<svg xmlns="http://www.w3.org/2000/svg" width="512" height="512" viewBox="0 0 384 384"><path fill="#201533" d="m227.012 365.55 1.43 18.45h-62.176Zm0 0"/><path fill="#eae9ec" d="m246.133 286.25 5.39-31.527 24.536 15.382Zm0 0"/><path fill="#201533" d="m248.957 95.703 13.867-54.308 44.043 46.828Zm0 0"/><path fill="#201533" d="m262.824 41.395-13.867 54.308-68.195-36.945ZM61.086 309.754l34.11 12.258-30.907 23.867Zm0 0"/><path fill="#fefefe" d="m271.402 249.484 4.657 20.621-24.536-15.382Zm0 0"/><path fill="#fefefe" d="m260.355 234.977 11.047 14.507-19.879 5.239Zm0 0"/><path fill="#f3f2f4" d="m225.477 249.27 26.046 5.453-5.39 31.527Zm0 0"/><path fill="#201533" d="M50.492 119.813 0 93.012l82.809-34.84ZM78.922 0h50.988L82.81 58.172ZM180.762 58.758l-46.766 48.816L82.81 58.172Zm0 0"/><path fill="#201533" d="m133.996 107.574-43.172 13.977-8.015-63.38Zm0 0"/><path fill="#201533" d="M123.832 136.629 90.824 121.55l43.172-13.977Zm0 0"/><path fill="#382e49" d="m136.066 229.918 20.684 4.605-5.95 8.106Zm0 0"/><path fill="#201533" d="M0 276.05v-44.527l19.723 13.23ZM-.004 153.367l29.156-14.633-.937 20.032ZM63.297 139.695 47.21 149.16l3.281-29.347ZM226.145 0l-45.383 58.758L180.047 0ZM229 135.617l-28.602-16.844 48.559-23.07Zm0 0"/><path fill="#201533" d="m248.957 95.703-48.559 23.07-19.636-60.015Zm0 0"/><path fill="#201533" d="m200.398 118.773-32.933 1.332 13.297-61.347ZM229 135.617l20.527 7.598-3.214 8.25ZM172.68 143.895l-5.215-23.79 14.465 13.637Zm0 0"/><path fill="#211634" d="m95.195 322.012 8.594 30.707-39.5-6.84Zm0 0"/><path fill="#201533" d="m103.79 352.719-18.583 31.285-20.918-38.125Zm0 0"/><path fill="#fdfdfd" d="m61.086 309.754 10.875-12.27 23.234 24.528Zm0 0"/><path fill="#f9f9fa" d="m260.355 234.977-9.746-1.98 22.813-39.157Zm0 0"/><path fill="#524960" d="m278.926 216.07-18.57 18.907 13.066-41.137Zm0 0"/><path fill="#201533" d="m357.582 225.344 13.848 45.62-25.93-16.085ZM384.004 204.371l-26.422 20.973-.625-25.645ZM262.488 351.605l-17.414 6.329 22.055-17.536ZM82.809 58.172 0 0h78.922ZM90.824 121.55l-40.332-1.737L82.81 58.172Zm0 0"/><path fill="#201533" d="m90.824 121.55-27.527 18.145-12.805-19.882ZM180.762 58.758l-13.297 61.347-33.469-12.53Zm0 0"/><path fill="#f8f8f9" d="m136.066 229.918 11.496-17.383 9.188 21.988Zm0 0"/><path fill="#afabb6" d="m106.797 275.621.023-16.46 15.72 14.589Zm0 0"/><path fill="#f4f3f5" d="m209.7 224.383-32.5-7.508 28.48-10.984Zm0 0"/><path fill="#201533" d="m0 276.05 24.703 27.981L0 384.004Zm0 0"/><path fill="#aca8b4" d="m49.043 245.188-15.316 20.93.636-19.794Zm0 0"/><path fill="#fefefe" d="m136.066 229.918-22.73-16.992 34.227-.39Zm0 0"/><path fill="#201533" d="M29.152 138.734 0 93.012l50.492 26.8ZM47.21 149.16l-18.058-10.426 21.34-18.922Zm0 0"/><path fill="#fefefe" d="m31.43 220.934-5.266 25.855-6.441-2.035Zm0 0"/><path fill="#e2e1e5" d="m26.164 246.79 5.266-25.856 2.933 25.39Zm0 0"/><path fill="#7a7385" d="M49.043 245.188 31.43 220.934l20.496 8Zm0 0"/><path fill="#c7c4cb" d="m31.43 220.934 17.613 24.254-14.68 1.136Zm0 0"/><path fill="#201533" d="M48.023 204.281 31.43 220.934l-2.64-28.602Zm0 0"/><path fill="#fefefe" d="m26.164 246.79-1.684 22.534-4.757-24.57Zm0 0"/><path fill="#291e3b" d="m41.898 170.508-16.105-5.469 2.422-6.273Zm0 0"/><path fill="#fefefe" d="m25.793 165.04 16.105 5.468-13.109 21.824ZM60.902 156.438l-7.793 10.28-5.898-17.558Zm0 0"/><path fill="#201533" d="m63.297 139.695-2.395 16.743-13.691-7.278ZM0 93.012l29.152 45.722-29.156 14.633ZM350.914 109.32 384 0l.004 128.824Zm0 0"/><path fill="#201533" d="M306.867 88.223 384 0l-33.086 109.32Zm0 0"/><path fill="#201533" d="m306.867 88.223-44.043-46.828L384 0ZM384 160.309l-8.543-4.59 8.547-26.895Zm0 0"/><path fill="#201533" d="m268.324 0-5.5 41.395L226.144 0Zm0 0"/><path fill="#201533" d="m226.145 0 36.68 41.395-82.063 17.363Zm0 0"/><path fill="#201533" d="M268.324 0H384L262.824 41.395ZM204.574 144.3 229 135.618 210.387 155.2Zm0 0"/><path fill="#201633" d="m200.008 153.828 4.566-9.527 5.813 10.898Zm0 0"/><path fill="#201533" d="M230.023 155.793 229 135.617l17.313 15.848Zm0 0"/><path fill="#201533" d="m229 135.617 1.023 20.176-19.636-.594Zm0 0"/><path fill="#fefefe" d="m38.203 290.117-4.476-24 13.89 16.656Zm0 0"/><path fill="#201533" d="M85.207 384.004H0l64.29-38.125ZM357.582 225.344l-19.027-17.227 18.402-8.418ZM344.477 253.469l13.105-28.125-12.082 29.535Zm0 0"/><path fill="#d9d7dc" d="m232.977 222.605-4.11 13.102-9.312-7.289Zm0 0"/><path fill="#9c97a4" d="m222.465 213.262 10.512 9.343-13.422 5.813Zm0 0"/><path fill="#201533" d="m260.355 234.977 28.415 2.898-17.368 11.61Zm0 0"/><path fill="#fefefe" d="m228.867 235.707 21.742-2.71-25.132 16.273Zm0 0"/><path fill="#fefefe" d="m225.477 249.27 25.132-16.274.914 21.727Zm0 0"/><path fill="#d6d5da" d="m250.61 232.996-21.743 2.711 4.11-13.102Zm0 0"/><path fill="#fefefe" d="m250.61 232.996 9.745 1.98-8.832 19.747Zm0 0"/><path fill="#554c63" d="m275.824 228-15.469 6.977 18.57-18.907Zm0 0"/><path fill="#201633" d="m275.824 228 12.946 9.875-28.415-2.898Zm0 0"/><path fill="#201533" d="m371.43 270.965 12.574-66.594v67.707Zm0 0"/><path fill="#201533" d="m384.004 204.371-12.574 66.594-13.848-45.621Zm0 0"/><path fill="#211634" d="m245.074 357.934 3.356 21.906-21.418-14.29Zm0 0"/><path fill="#201533" d="M248.43 379.84 228.44 384l-1.43-18.45Zm0 0"/><path fill="#fefefe" d="M262.488 351.605 248.43 379.84l-3.356-21.906Zm0 0"/><path fill="#201533" d="m222.227 333.191 22.847 24.743-18.062 7.617Zm0 0"/><path fill="#211633" d="m222.227 333.191 28.57-4.46-5.723 29.203Zm0 0"/><path fill="#443b54" d="m339.98 284.64-13.32 16.602 10.676-21.918Zm0 0"/><path fill="#574e65" d="m326.66 301.242-11.93-1.316-2.066-12.438Zm0 0"/><path fill="#201533" d="m337.91 337.45-23.18-37.524 11.93 1.316ZM384 354.242l.004 29.758h-65.758Zm0 0"/><path fill="#f8f8f9" d="m277.234 371.285-14.746-19.68 4.64-11.207Zm0 0"/><path fill="#201533" d="M0 93.012V0l82.809 58.172ZM180.047 0l.715 58.758L129.91 0Zm0 0"/><path fill="#201533" d="m129.91 0 50.852 58.758-97.953-.586Zm0 0"/><path fill="#fdfdfd" d="m179.96 186.52-32.398 26.015-20.28-19.617Zm0 0"/><path fill="#fcfcfc" d="m147.563 212.535 32.398-26.015-2.762 30.355Zm0 0"/><path fill="#453c55" d="m160.598 244.559-9.797-1.93 5.949-8.106Zm0 0"/><path fill="#201533" d="M103.79 352.719 166.265 384l-81.059.004ZM199.117 334.414 166.266 384l3.898-49.922Zm0 0"/><path fill="#dcdbdf" d="m186.46 317.715 12.657 16.7-28.953-.337Zm0 0"/><path fill="#61596f" d="m209.7 224.383 12.765-11.121-2.91 15.156Zm0 0"/><path fill="#fcfcfc" d="m222.465 213.262-12.766 11.12-4.02-18.491Zm0 0"/><path fill="#201533" d="M17.309 265.45 0 276.05l19.723-31.296Zm0 0"/><path fill="#221735" d="m24.48 269.324-7.171-3.875 2.414-20.695Zm0 0"/><path fill="#514860" d="m31.43 220.934 24.332-4.895-3.836 12.895Zm0 0"/><path fill="#f9f9fa" d="m48.023 204.281 7.739 11.758-24.332 4.895Zm0 0"/><path fill="#fefefe" d="m92.707 201.578 20.617 11 .012.348Zm0 0"/><path fill="#faf9fa" d="m105.043 190.79-12.336 10.788-2.98-17.66Zm0 0"/><path fill="#c5c2ca" d="m75.227 198.46-19.465 17.58-7.739-11.759Zm0 0"/><path fill="#fefefe" d="m55.762 216.04 31.343 1.815-35.18 11.079ZM87.105 217.855l-31.343-1.816 19.465-17.578ZM113.336 212.926l-.012-.348 34.239-.043ZM53.11 166.719 38.78 153.246l8.43-4.086Zm0 0"/><path fill="#211634" d="m38.781 153.246-9.629-14.512 18.059 10.426Zm0 0"/><path fill="#201533" d="m29.152 138.734 9.63 14.512-10.567 5.52Zm0 0"/><path fill="#fefefe" d="m38.781 153.246 3.117 17.262-13.683-11.742ZM41.898 170.508l-3.117-17.262L53.11 166.72ZM28.79 192.332l-16.392-22.789 13.395-4.504Zm0 0"/><path fill="#201533" d="m0 195.145 12.398-25.602 16.391 22.789Zm0 0"/><path fill="#211634" d="m25.793 165.04-13.395 4.503 15.817-10.777Zm0 0"/><path fill="#221735" d="M12.398 169.543 0 195.145l-.004-41.778Zm0 0"/><path fill="#211634" d="M12.398 169.543-.004 153.367l28.219 5.399ZM17.164 218.66l14.266 2.274-11.707 23.82Zm0 0"/><path fill="#201533" d="m0 195.145 17.164 23.515L0 231.523Zm0 0"/><path fill="#201533" d="m17.164 218.66 2.559 26.094L0 231.524Zm0 0"/><path fill="#211634" d="m31.43 220.934-14.266-2.274 11.625-26.328Zm0 0"/><path fill="#201533" d="M28.79 192.332 17.163 218.66 0 195.145Zm0 0"/><path fill="#c2bfc7" d="m33.727 266.117-7.563-19.328 8.2-.465Zm0 0"/><path fill="#fdfdfe" d="m70.82 191.102 4.407 7.359-27.204 5.82Zm0 0"/><path fill="#fcfcfc" d="m70.82 191.102 8.293-1.622-3.886 8.98Zm0 0"/><path fill="#fefefe" d="M92.707 201.578 79.113 189.48l10.614-5.562ZM70.418 167.64l18.68-15.593-3.301 21.215Zm0 0"/><path fill="#211634" d="m75.074 147.738-14.172 8.7 2.395-16.743Zm0 0"/><path fill="#fefefe" d="m70.418 167.64 4.656-19.902 14.024 4.309Zm0 0"/><path fill="#201533" d="m362.563 138.238-11.649-28.918 33.09 19.504Zm0 0"/><path fill="#fefefe" d="m369.266 160.324-18.094-5.094 6.527-9.199ZM328.54 149.91l-10.946.547.426-13.996Zm0 0"/><path fill="#201533" d="m230.023 155.793-6.46 15.965-13.176-16.559ZM331.559 220.723l6.996-12.606 19.027 17.227Zm0 0"/><path fill="#faf9fa" d="m250.61 232.996-1.7-27.066 24.512-12.09Zm0 0"/><path fill="#f0eff1" d="m232.977 222.605 15.933-16.675 1.7 27.066Zm0 0"/><path fill="#fcfcfc" d="m202.395 177.29 3.285 28.6-25.72-19.37Zm0 0"/><path fill="#d5d3d8" d="m179.96 186.52 25.72 19.37-28.48 10.985Zm0 0"/><path fill="#fcfcfc" d="m226.559 198.254-4.094 15.008-16.785-7.371Zm0 0"/><path fill="#dfdde2" d="m226.559 198.254-20.88 7.637-3.284-28.602Zm0 0"/><path fill="#f1f0f2" d="m288.77 237.875-9.844-21.805 20.383 26.535Zm0 0"/><path fill="#271c39" d="m275.824 228 3.102-11.93 9.844 21.805Zm0 0"/><path fill="#211634" d="m294.258 249.48-8.172 26.622-10.027-5.997Zm0 0"/><path fill="#201533" d="m294.258 249.48-18.2 20.625-4.656-20.62Zm0 0"/><path fill="#221835" d="m288.77 237.875 5.488 11.605-22.856.004Zm0 0"/><path fill="#201533" d="m371.43 270.965-34.094 8.36 8.164-24.446Zm0 0"/><path fill="#201533" d="m337.336 279.324 34.094-8.36-31.45 13.677ZM248.43 379.84l.14 4.16h-20.129ZM222.227 333.191l-13.7 15.012-9.41-13.789ZM208.527 348.203l18.485 17.348L166.266 384Zm0 0"/><path fill="#201533" d="m208.527 348.203 13.7-15.012 4.785 32.36ZM199.117 334.414l9.41 13.79L166.266 384Zm0 0"/><path fill="#d5d3d9" d="m222.375 315.988-.148 17.203-23.11 1.223Zm0 0"/><path fill="#cac8cf" d="m215.984 291.969 9.493-42.7 20.656 36.981Zm0 0"/><path fill="#f6f6f7" d="m312.664 287.488 13.168-1.941.828 15.695Zm0 0"/><path fill="#f4f4f5" d="m325.832 285.547-13.168 1.941 7.29-9.218Zm0 0"/><path fill="#201533" d="m326.66 301.242-.828-15.695 11.504-6.223Zm0 0"/><path fill="#d7d6db" d="m337.336 279.324-11.504 6.223-5.879-7.277Zm0 0"/><path fill="#201533" d="m286.086 276.102-14 9.894 3.973-15.89Zm0 0"/><path fill="#fafafa" d="m272.086 285.996-25.953.254 29.926-16.145Zm0 0"/><path fill="#efeef0" d="m246.133 286.25 25.953-.254-25.441 23.54Zm0 0"/><path fill="#211634" d="m272.086 285.996-1.75 21.246-23.691 2.293Zm0 0"/><path fill="#372d48" d="m270.336 307.242 20.14 9.149L284.134 336Zm0 0"/><path fill="#201533" d="m290.477 316.39 24.253-16.464 23.18 37.523ZM284.133 336l6.344-19.61 47.433 21.06ZM270.336 307.242 284.133 336l-17.004 4.398Zm0 0"/><path fill="#201533" d="m245.074 357.934 25.262-50.692-3.207 33.156Zm0 0"/><path fill="#211734" d="m250.797 328.73 19.539-21.488-25.262 50.692Zm0 0"/><path fill="#fefefe" d="m270.336 307.242-19.54 21.488-4.151-19.195ZM335.48 306.703l2.43 30.746-11.25-36.207Zm0 0"/><path fill="#201533" d="M355.094 335.254 384 354.242l-72.602 12.52ZM318.246 384l-29.016.027 22.168-17.265Zm0 0"/><path fill="#201533" d="M384 354.242 318.246 384l-6.848-17.238Zm0 0"/><path fill="#fefefe" d="m277.234 371.285-28.804 8.555 14.058-28.235ZM295.938 354.805l-18.704 16.48-10.105-30.887Zm0 0"/><path fill="#fefefe" d="m284.133 336 11.805 18.805-28.81-14.407Zm0 0"/><path fill="#201533" d="M295.938 354.805 284.133 336l53.777 1.45Zm0 0"/><path fill="#201533" d="m311.398 366.762-15.46-11.957 41.972-17.356ZM248.43 379.84l40.8 4.187-40.66-.027Zm0 0"/><path fill="#201533" d="m289.23 384.027-40.8-4.187 28.804-8.555ZM148.328 143.055l-24.496-6.426 10.164-29.055Zm0 0"/><path fill="#201533" d="m123.832 136.629 24.496 6.426-13.629 9.312ZM190.027 145.867l14.547-1.566-4.566 9.527Zm0 0"/><path fill="#221734" d="m215.813 240.309-6.114-15.926 9.856 4.035Zm0 0"/><path fill="#201533" d="m166.266 384-33.145-51.086 37.043 1.164Zm0 0"/><path fill="#201533" d="m103.79 352.719 29.331-19.805L166.266 384Zm0 0"/><path fill="#fbfbfb" d="m211.586 313.176-12.469 21.238-12.656-16.7Zm0 0"/><path fill="#fefefe" d="m71.96 297.484 29.517 9.356-6.282 15.172ZM76.941 249.797l36.395-36.871-6.516 46.234Zm0 0"/><path fill="#201533" d="m177.242 234.332-16.644 10.227-3.848-10.036Zm0 0"/><path fill="#fcfcfd" d="m147.563 212.535 29.68 21.797-20.493.191Zm0 0"/><path fill="#f6f5f7" d="m177.242 234.332-29.68-21.797 29.637 4.34Zm0 0"/><path fill="#eae9ec" d="m177.242 234.332-.043-17.457 32.5 7.508Zm0 0"/><path fill="#fdfdfe" d="m24.48 269.324 1.684-22.535 7.563 19.328Zm0 0"/><path fill="#201533" d="m0 276.05 24.48-6.726.223 34.707Zm0 0"/><path fill="#201533" d="m17.309 265.45 7.171 3.874L0 276.051Zm0 0"/><path fill="#fefefe" d="M38.203 290.117 24.48 269.324l9.247-3.207Zm0 0"/><path fill="#201533" d="m24.703 304.031-.223-34.707 13.723 20.793Zm0 0"/><path fill="#544b62" d="m63.992 265.48-30.265.637 15.316-20.93Zm0 0"/><path fill="#231836" d="M71.96 297.484 83.97 289.7l17.508 17.14Zm0 0"/><path fill="#fefefe" d="m83.969 289.7 21.05-9.997-3.542 27.137Zm0 0"/><path fill="#261b38" d="m113.324 212.578-20.617-11 12.336-10.789Zm0 0"/><path fill="#fefefe" d="m87.105 217.855 5.602-16.277 20.629 11.348ZM87.105 217.855l-7.992-28.375 13.594 12.098Zm0 0"/><path fill="#fefefe" d="m79.113 189.48 7.992 28.375-11.878-19.394ZM53.11 166.719l-5.352 24-5.86-20.211Zm0 0"/><path fill="#fefefe" d="m47.758 190.719 5.351-24 14.028 15.93Zm0 0"/><path fill="#201533" d="m47.758 190.719.265 13.562-19.234-11.949Zm0 0"/><path fill="#251a37" d="m41.898 170.508 5.86 20.21-18.969 1.614Zm0 0"/><path fill="#211634" d="m47.758 190.719 23.062.383-22.797 13.18Zm0 0"/><path fill="#231936" d="m70.82 191.102-23.062-.383 19.379-8.07Zm0 0"/><path fill="#201533" d="m76.727 182.25-6.309-14.61 15.379 5.622Zm0 0"/><path fill="#201533" d="m89.727 183.918-13-1.668 9.07-8.988ZM79.113 189.48l-2.386-7.23 13 1.668Zm0 0"/><path fill="#211634" d="m70.418 167.64 6.309 14.61-9.59.398Zm0 0"/><path fill="#221735" d="m76.727 182.25-5.907 8.852-3.683-8.454Zm0 0"/><path fill="#201533" d="m76.727 182.25 2.386 7.23-8.293 1.622Zm0 0"/><path fill="#fefefe" d="m53.11 166.719 17.308.922-3.281 15.007Zm0 0"/><path fill="#211634" d="m60.902 156.438 9.516 11.203-17.309-.922Zm0 0"/><path fill="#fefefe" d="m75.074 147.738-4.656 19.903-9.516-11.203Zm0 0"/><path fill="#201533" d="m75.074 147.738 15.75-26.187-1.726 30.496ZM90.824 121.55l-15.75 26.188-11.777-8.043ZM362.563 138.238l-18.532-6.828 6.883-22.09ZM320.313 126.469l-13.446-38.246 44.047 21.097ZM320.313 126.469l-10.649-.934-2.797-37.312ZM384.004 204.371l-8.73-39.82 8.726-4.242Zm0 0"/><path fill="#201533" d="m375.273 164.55.184-8.831 8.543 4.59Zm0 0"/><path fill="#231835" d="m375.273 164.55-6.007-4.226 6.191-4.605Zm0 0"/><path fill="#201533" d="m356.957 199.7 3.738-25.677 23.309 30.348Zm0 0"/><path fill="#201533" d="m360.695 174.023 14.578-9.472 8.73 39.82Zm0 0"/><path fill="#201533" d="m375.273 164.55-14.578 9.473 8.57-13.699Zm0 0"/><path fill="#221735" d="m240.758 166.04-10.735-10.247 16.29-4.328Zm0 0"/><path fill="#211634" d="m24.703 304.031 13.5-13.914 22.883 19.637Zm0 0"/><path fill="#211634" d="m24.703 304.031 36.383 5.723 3.203 36.125Zm0 0"/><path fill="#201533" d="m0 384.004 24.703-79.973L64.29 345.88ZM337.336 279.324l6.035-24.996 2.129.55Zm0 0"/><path fill="#201533" d="m343.371 254.328 1.106-.86 1.023 1.41Zm0 0"/><path fill="#201533" d="m344.477 253.469-6.247-21.563 19.352-6.562Zm0 0"/><path fill="#201533" d="m338.23 231.906-6.671-11.183 26.023 4.62Zm0 0"/><path fill="#f9f8f9" d="m343.371 254.328-5.14-22.422 6.246 21.563Zm0 0"/><path fill="#fefefe" d="m338.23 231.906 5.141 22.422-16.734-9.664Zm0 0"/><path fill="#fcfbfc" d="m248.91 205.93-5.05-16.38 29.562 4.29Zm0 0"/><path fill="#d4d1d7" d="m234.352 201.7 14.558 4.23-15.933 16.675Zm0 0"/><path fill="#5f576d" d="m222.465 213.262 11.887-11.563-1.375 20.906Zm0 0"/><path fill="#e6e5e8" d="m243.86 189.55-9.508 12.15-2.098-10.524Zm0 0"/><path fill="#f4f4f5" d="m248.91 205.93-14.558-4.23 9.507-12.15Zm0 0"/><path fill="#696175" d="m234.352 201.7-7.793-3.446 5.695-7.078Zm0 0"/><path fill="#878191" d="m226.559 198.254 7.793 3.445-11.887 11.563Zm0 0"/><path fill="#fefefe" d="m202.395 177.29-2.387-23.462 10.379 1.371Zm0 0"/><path fill="#fefefe" d="m223.563 171.758-21.168 5.531 7.992-22.09ZM338.23 231.906l-17.937-5.414 11.266-5.77Zm0 0"/><path fill="#221734" d="m278.926 216.07 23.199 16.137-2.816 10.398Zm0 0"/><path fill="#fefefe" d="m320.293 226.492-18.168 5.715 5.98-14.64Zm0 0"/><path fill="#4d445c" d="m273.422 193.84-29.563-4.29 25.028-2.765Zm0 0"/><path fill="#fdfdfd" d="m308.105 217.566 14.184-5.394-1.996 14.32Zm0 0"/><path fill="#221735" d="m331.766 173.625-14.172-23.168 10.945-.547Zm0 0"/><path fill="#fefefe" d="m304.547 200.398 17.742 11.774-14.184 5.394Zm0 0"/><path fill="#201533" d="m322.29 212.172-17.743-11.774 22.422-1.187Zm0 0"/><path fill="#f9f8f9" d="m312.664 287.488-10.578-29.238 17.867 20.02Zm0 0"/><path fill="#211734" d="m302.086 258.25 10.578 29.238-26.578-11.386Zm0 0"/><path fill="#211634" d="m294.258 249.48 7.828 8.77-16 17.852Zm0 0"/><path fill="#201533" d="m374.82 331.219 9.184-59.14-.004 82.163Zm0 0"/><path fill="#fefefe" d="m222.375 315.988 24.27-6.453 4.152 19.195Zm0 0"/><path fill="#b7b4bd" d="m222.227 333.191.148-17.203 28.422 12.742Zm0 0"/><path fill="#fcfcfd" d="m211.586 313.176 10.789 2.812-23.258 18.426Zm0 0"/><path fill="#fdfdfd" d="m314.73 299.926-22.816-3.727 20.75-8.71Zm0 0"/><path fill="#fcfcfc" d="m290.477 316.39 1.437-20.19 22.816 3.726Zm0 0"/><path fill="#221835" d="m291.914 296.2-5.828-20.098 26.578 11.386Zm0 0"/><path fill="#201533" d="m291.914 296.2-19.828-10.204 14-9.894Zm0 0"/><path fill="#211634" d="m272.086 285.996 19.828 10.203-21.578 11.043Zm0 0"/><path fill="#fefefe" d="m291.914 296.2-1.437 20.19-20.141-9.148Zm0 0"/><path fill="#201533" d="m371.43 270.965 3.39 60.254-25.457-34.664ZM371.43 270.965l12.574 1.113-9.184 59.14ZM355.094 335.254l-43.696 31.508 26.512-29.313Zm0 0"/><path fill="#fefefe" d="m335.48 306.703 19.614 28.55-17.184 2.196ZM295.938 354.805l-6.708 29.222-11.996-12.742Zm0 0"/><path fill="#fefefe" d="m289.23 384.027 6.707-29.222 15.461 11.957Zm0 0"/><path fill="#201533" d="m167.465 120.105-19.137 22.95-14.332-35.48ZM148.328 143.055l19.137-22.95 5.215 23.79ZM122.582 155.867l1.25-19.238 10.867 15.738Zm0 0"/><path fill="#d4d2d8" d="m182.195 153.766-24.91 5.96 15.395-15.831Zm0 0"/><path fill="#fefefe" d="m157.285 159.727-8.957-16.672 24.352.84ZM148.328 143.055l-1.879 13.265-11.75-3.953Zm0 0"/><path fill="#fefefe" d="m146.45 156.32.632 14.047-12.383-18Zm0 0"/><path fill="#fefefe" d="m157.285 159.727-10.836-3.407 1.88-13.265Zm0 0"/><path fill="#fefdfe" d="m183.824 170.773 6.203-24.906 9.98 7.961Zm0 0"/><path fill="#ecebed" d="m190.027 145.867-6.203 24.906-1.629-17.007Zm0 0"/><path fill="#fefefe" d="m202.395 177.29-18.57-6.517 16.183-16.945Zm0 0"/><path fill="#fbfbfc" d="m183.824 170.773 18.57 6.516-22.433 9.23Zm0 0"/><path fill="#fefefe" d="m157.285 159.727 26.54 11.046-3.864 15.747Zm0 0"/><path fill="#231936" d="m182.195 153.766 1.63 17.007-26.54-11.046Zm0 0"/><path fill="#fefefe" d="m172.68 143.895 17.347 1.972-7.832 7.899Zm0 0"/><path fill="#201533" d="m190.027 145.867-17.347-1.972 9.25-10.153Zm0 0"/><path fill="#221735" d="m215.813 240.309-38.57-5.977 32.456-9.95Zm0 0"/><path fill="#231835" d="m228.867 235.707-13.054 4.602 3.742-11.891Zm0 0"/><path fill="#c7c4cb" d="m135.5 251.55-12.96 22.2-15.72-14.59Zm0 0"/><path fill="#a19da9" d="M113.336 212.926 135.5 251.55l-28.68 7.61Zm0 0"/><path fill="#837c8d" d="m135.5 251.55.566-21.632 14.735 12.71Zm0 0"/><path fill="#3b324c" d="m135.5 251.55-22.164-38.624 22.73 16.992Zm0 0"/><path fill="#f6f5f7" d="m133.121 332.914 28.488-15.781 8.555 16.945Zm0 0"/><path fill="#201533" d="m186.46 317.715-24.85-.582 4.261-18.774Zm0 0"/><path fill="#fefefe" d="m161.61 317.133 24.85.582-16.296 16.363Zm0 0"/><path fill="#201533" d="m95.195 322.012 37.926 10.902-29.332 19.805ZM139.582 269.305l-15.41 18.12-1.633-13.675Zm0 0"/><path fill="#fefefe" d="m51.926 228.934 25.015 20.863-27.898-4.61ZM76.941 249.797 63.992 265.48l-14.949-20.293Zm0 0"/><path fill="#f4f3f5" d="m63.992 265.48 12.95-15.683 6.609 20.023Zm0 0"/><path fill="#fbfbfc" d="m76.941 249.797 29.88 9.363-23.27 10.66Zm0 0"/><path fill="#8a8494" d="m63.992 265.48-16.375 17.293-13.89-16.656Zm0 0"/><path fill="#2e2440" d="m83.969 289.7.277-11.95 20.774 1.953Zm0 0"/><path fill="#fefefe" d="m87.105 217.855-10.164 31.942-25.015-20.863Zm0 0"/><path fill="#f3f3f4" d="m76.941 249.797 10.164-31.942 26.23-4.93Zm0 0"/><path fill="#fefefe" d="m367.773 144.422 1.493 15.902-11.567-14.293Zm0 0"/><path fill="#fefefe" d="m369.266 160.324-1.493-15.902 7.684 11.297Zm0 0"/><path fill="#201533" d="m384.004 128.824-16.23 15.598-5.212-6.184Zm0 0"/><path fill="#201533" d="m375.457 155.719-7.684-11.297 16.23-15.598Zm0 0"/><path fill="#fefefe" d="m328.54 149.91 12.702-5.86.988 13.821Zm0 0"/><path fill="#fefefe" d="m341.242 144.05-12.703 5.86-10.52-13.45ZM344.031 131.41l-2.789 12.64-23.222-7.59Zm0 0"/><path fill="#201533" d="m344.031 131.41-23.719-4.941 30.602-17.149Zm0 0"/><path fill="#fefefe" d="m320.313 126.469 23.718 4.941-26.011 5.05ZM274.07 168.047l-2.554 8.023-10.036-13.218Zm0 0"/><path fill="#201533" d="m279.715 127.559-30.758-31.856 57.91-7.48Zm0 0"/><path fill="#201533" d="m279.715 127.559-7.574 2.586-23.184-34.442Zm0 0"/><path fill="#201533" d="m309.664 125.535-29.95 2.024 27.153-39.336Zm0 0"/><path fill="#fefefe" d="m279.8 141.344-.085-13.785 29.95-2.024Zm0 0"/><path fill="#fbfbfc" d="m279.715 127.559.086 13.785-7.66-11.2Zm0 0"/><path fill="#fefefe" d="m249.527 143.215 6.328 3.762-9.542 4.488Zm0 0"/><path fill="#201533" d="m254.133 165.992-13.375.047 5.554-14.574Zm0 0"/><path fill="#fefefe" d="m255.855 146.977-1.722 19.015-7.82-14.527ZM254.133 165.992l1.722-19.015 5.625 15.875Zm0 0"/><path fill="#251a37" d="m240.758 166.04-17.196 5.718 6.461-15.965Zm0 0"/><path fill="#362c47" d="m237.965 174.941-14.403-3.183 17.196-5.719Zm0 0"/><path fill="#fefefe" d="m223.563 171.758 14.402 3.183-12.895 6.16Zm0 0"/><path fill="#f9f9fa" d="m237.965 174.941 5.894 14.61-11.605 1.625Zm0 0"/><path fill="#7f798a" d="m225.07 181.102 12.895-6.16-5.711 16.234Zm0 0"/><path fill="#fefefe" d="m271.516 176.07-17.383-10.078 7.347-3.14Zm0 0"/><path fill="#fcfcfc" d="m321.07 257.559 22.301-3.23-6.035 24.995Zm0 0"/><path fill="#595167" d="m321.07 257.559 16.266 21.765-17.383-1.054Zm0 0"/><path fill="#fefefe" d="m343.371 254.328-22.3 3.23 5.566-12.894Zm0 0"/><path fill="#fdfdfd" d="m268.887 186.785-14.754-20.793 17.383 10.078Zm0 0"/><path fill="#251b38" d="m287.8 209.754 14.325 22.453-23.2-16.137Zm0 0"/><path fill="#f1f0f2" d="m302.125 232.207-14.324-22.453 20.304 7.812Zm0 0"/><path fill="#231835" d="m273.422 193.84 14.379 15.914-8.875 6.316Zm0 0"/><path fill="#fcfcfc" d="m287.8 209.754-14.378-15.914 18.273-1.387Zm0 0"/><path fill="#fdfcfd" d="m273.422 193.84 4.094-9.137 14.18 7.75Zm0 0"/><path fill="#f4f3f5" d="m277.516 184.703-4.094 9.137-4.535-7.055Zm0 0"/><path fill="#fefefe" d="m320.293 226.492 1.996-14.32 9.27 8.55Zm0 0"/><path fill="#201533" d="m331.559 220.723-9.27-8.551 16.266-4.055Zm0 0"/><path fill="#bdbac3" d="m304.547 200.398 1.473-24.507 20.949 23.32Zm0 0"/><path fill="#201533" d="m331.766 173.625-21.598-12.43 7.426-10.738Zm0 0"/><path fill="#201533" d="m310.168 161.195-17.027-11.636 24.453.898Zm0 0"/><path fill="#473e56" d="m293.14 149.559 17.028 11.636-15.367 2.782Zm0 0"/><path fill="#201533" d="m294.8 163.977 15.368-2.782-4.148 14.696Zm0 0"/><path fill="#201533" d="m306.02 175.89 4.148-14.695 21.598 12.43Zm0 0"/><path fill="#fefefe" d="m287.8 209.754 16.747-9.356 3.558 17.168Zm0 0"/><path fill="#fefefe" d="m304.547 200.398-16.746 9.356 3.894-17.3ZM225.477 249.27l-9.493 42.699-31.511-15.64Zm0 0"/><path fill="#201533" d="m165.871 298.36 45.715 14.816-25.125 4.539ZM349.363 296.555l5.73 38.699-19.613-28.55Zm0 0"/><path fill="#fefefe" d="m355.094 335.254-5.73-38.7 25.456 34.665Zm0 0"/><path fill="#201533" d="m355.094 335.254 19.726-4.035 9.18 23.023ZM371.43 270.965l-22.067 25.59-9.383-11.914Zm0 0"/><path fill="#f3f2f4" d="m349.363 296.555-13.883 10.148 4.5-22.062Zm0 0"/><path fill="#201533" d="m335.48 306.703-8.82-5.46 13.32-16.602ZM90.824 121.55l15.317 25.141-17.043 5.356Zm0 0"/><path fill="#201533" d="m123.832 136.629-17.691 10.062-15.317-25.14Zm0 0"/><path fill="#fefefe" d="m127.281 192.918-13.957 19.66-8.281-21.789Zm0 0"/><path fill="#201533" d="m190.027 145.867 10.371-27.094 4.176 25.528Zm0 0"/><path fill="#201533" d="m167.465 120.105 32.933-1.332-18.468 14.97Zm0 0"/><path fill="#201533" d="m200.398 118.773-10.37 27.094-8.098-12.125ZM204.574 144.3l-4.176-25.527L229 135.617Zm0 0"/><path fill="#fefefe" d="m228.867 235.707-3.39 13.563-9.665-8.961ZM182.063 253.277l43.414-4.007-41.004 27.058Zm0 0"/><path fill="#fefefe" d="m182.063 253.277-4.82-18.945 38.57 5.977Zm0 0"/><path fill="#fefefe" d="m225.477 249.27-43.415 4.007 33.75-12.968Zm0 0"/><path fill="#423952" d="m151.7 259.371-.9-16.742 9.798 1.93Zm0 0"/><path fill="#fdfdfd" d="m167.602 260.45-15.903-1.079 8.899-14.812Zm0 0"/><path fill="#b7b3bd" d="m151.7 259.371-16.2-7.82 15.3-8.922Zm0 0"/><path fill="#fefefe" d="m167.602 260.45-5.22 11.359L151.7 259.37Zm0 0"/><path fill="#5a5268" d="m135.5 251.55 4.082 17.755-17.043 4.445Zm0 0"/><path fill="#b1adb8" d="m151.7 259.371-12.118 9.934-4.082-17.754Zm0 0"/><path fill="#fefefe" d="m122.809 296.602-21.332 10.238 3.543-27.137Zm0 0"/><path fill="#201533" d="m124.172 287.426-17.375-11.805 15.742-1.871Zm0 0"/><path fill="#201533" d="m124.172 287.426-19.152-7.723 1.777-4.082Zm0 0"/><path fill="#f8f7f8" d="m124.172 287.426-1.363 9.176-17.79-16.899Zm0 0"/><path fill="#fafafa" d="m182.063 253.277-21.465-8.718 16.644-10.227Zm0 0"/><path fill="#fdfdfd" d="m182.063 253.277-14.461 7.172-7.004-15.89Zm0 0"/><path fill="#fefefe" d="m47.617 282.773 24.344 14.711-33.758-7.367Zm0 0"/><path fill="#fefefe" d="m38.203 290.117 33.758 7.367-10.875 12.27Zm0 0"/><path fill="#201533" d="m84.246 277.75 22.55-2.129-1.776 4.082Zm0 0"/><path fill="#f9f9f9" d="m106.82 259.16-.023 16.461-23.246-5.8Zm0 0"/><path fill="#201533" d="m106.797 275.621-22.55 2.129-.696-7.93Zm0 0"/><path fill="#fefefe" d="m357.7 146.031-13.669-14.62 18.531 6.827Zm0 0"/><path fill="#fefefe" d="m367.773 144.422-10.074 1.61 4.863-7.794Zm0 0"/><path fill="#201533" d="m351.172 155.23 3.836 14.11-12.778-11.469Zm0 0"/><path fill="#fefefe" d="m355.008 169.34-3.836-14.11 18.094 5.094ZM360.695 174.023l-5.687-4.683 14.258-9.016Zm0 0"/><path fill="#e8e7ea" d="m334.758 180.176 10.004 8.98-17.793 10.055Zm0 0"/><path fill="#201533" d="m344.762 189.156 15.933-15.133-3.738 25.676Zm0 0"/><path fill="#fefefe" d="m344.762 189.156 10.246-19.816 5.687 4.683Zm0 0"/><path fill="#f7f6f7" d="m355.008 169.34-10.246 19.816-10.004-8.98Zm0 0"/><path fill="#201533" d="m283.5 161.488 9.64-11.93 1.66 14.419ZM274.176 150.984l-.106 17.063-12.59-5.195ZM274.176 150.984l9.324 10.504-9.43 6.559Zm0 0"/><path fill="#251b38" d="m283.5 161.488-9.324-10.504 18.965-1.425Zm0 0"/><path fill="#fefefe" d="m255.855 146.977 18.32 4.007-12.695 11.868Zm0 0"/><path fill="#201533" d="m283.297 171.672 11.504-7.695 11.219 11.914Zm0 0"/><path fill="#fcfcfd" d="m291.695 192.453-8.398-20.781 22.723 4.219Zm0 0"/><path fill="#201533" d="m283.297 171.672.203-10.184 11.3 2.489Zm0 0"/><path fill="#201533" d="m283.5 161.488-.203 10.184-9.227-3.625Zm0 0"/><path fill="#fafafa" d="m277.516 184.703 5.78-13.031 8.4 20.781Zm0 0"/><path fill="#fefefe" d="m293.14 149.559 24.88-13.098-.426 13.996ZM318.02 136.46l-24.88 13.099-13.34-8.215Zm0 0"/><path fill="#fefefe" d="m320.313 126.469-2.293 9.992-8.356-10.926Zm0 0"/><path fill="#e9e8eb" d="m318.02 136.46-38.22 4.884 29.864-15.809Zm0 0"/><path fill="#fcfcfc" d="m255.895 136.64-.04 10.337-6.328-3.762Zm0 0"/><path fill="#201533" d="m255.895 136.64-6.368 6.575L229 135.617Zm0 0"/><path fill="#201533" d="M255.895 136.64 229 135.618l19.957-39.914Zm0 0"/><path fill="#201533" d="m272.14 130.145-16.245 6.496-6.938-40.938Zm0 0"/><path fill="#fdfdfd" d="m225.07 181.102 1.489 17.152-24.164-20.965Zm0 0"/><path fill="#fcfbfc" d="m226.559 198.254-1.489-17.152 7.184 10.074Zm0 0"/><path fill="#fefefe" d="m225.07 181.102-22.675-3.813 21.167-5.531ZM237.965 174.941l8.738 4.657-2.844 9.953Zm0 0"/><path fill="#fefdfe" d="m246.703 179.598 22.184 7.187-25.028 2.766Zm0 0"/><path fill="#211634" d="m268.887 186.785-22.184-7.187 7.43-13.606Zm0 0"/><path fill="#231835" d="m246.703 179.598-8.738-4.657 2.793-8.902Zm0 0"/><path fill="#231836" d="m254.133 165.992-7.43 13.606-5.945-13.559Zm0 0"/><path fill="#201533" d="m338.555 208.117 6.207-18.96 12.195 10.542Zm0 0"/><path fill="#201533" d="m344.762 189.156-6.207 18.961-11.586-8.906Zm0 0"/><path fill="#201533" d="m338.555 208.117-16.266 4.055 4.68-12.961Zm0 0"/><path fill="#e6e4e8" d="m306.02 175.89 28.738 4.286-7.79 19.035Zm0 0"/><path fill="#fefefe" d="m334.758 180.176-28.738-4.285 25.746-2.266Zm0 0"/><path fill="#332944" d="m304.547 200.398-12.852-7.945 14.325-16.562Zm0 0"/><path fill="#e8e7ea" d="m321.07 257.559-8.836-12.243 14.403-.652Zm0 0"/><path fill="#fefefe" d="m182.063 253.277 2.41 23.051-16.871-15.879ZM162.383 271.809l22.09 4.52-18.602 22.03Zm0 0"/><path fill="#fefefe" d="m184.473 276.328-22.09-4.52 5.219-11.359Zm0 0"/><path fill="#766f82" d="m246.645 309.535-24.27 6.453 23.758-29.738Zm0 0"/><path fill="#e4e3e7" d="m222.375 315.988-6.39-24.02 30.148-5.718Zm0 0"/><path fill="#201533" d="m122.582 155.867-16.441-9.176 17.691-10.062Zm0 0"/><path fill="#fefefe" d="m106.934 179.805 20.347 13.113-22.238-2.129ZM106.934 179.805l-1.891 10.984-15.316-6.871Zm0 0"/><path fill="#231836" d="m106.934 179.805-17.207 4.113-3.93-10.656Zm0 0"/><path fill="#fefefe" d="m179.96 186.52-32.878-16.153 10.203-10.64Zm0 0"/><path fill="#211634" d="m122.809 296.602 5.78 5.113-27.112 5.125Zm0 0"/><path fill="#2c213e" d="m74.316 280.613 9.93-2.863-.277 11.95Zm0 0"/><path fill="#534a61" d="m71.96 297.484 2.356-16.87 9.653 9.085Zm0 0"/><path fill="#211634" d="m74.316 280.613-2.355 16.871-24.344-14.71Zm0 0"/><path fill="#201533" d="m84.246 277.75-9.93 2.863 9.235-10.793Zm0 0"/><path fill="#221735" d="M74.316 280.613 63.992 265.48l19.559 4.34Zm0 0"/><path fill="#221734" d="m74.316 280.613-26.699 2.16 16.375-17.293Zm0 0"/><path fill="#fefefe" d="m341.242 144.05 9.93 11.18-8.942 2.641ZM351.172 155.23l-9.93-11.18 16.457 1.981Zm0 0"/><path fill="#fefefe" d="m357.7 146.031-16.458-1.98 2.79-12.64Zm0 0"/><path fill="#201533" d="m355.008 169.34-23.242 4.285 10.464-15.754Zm0 0"/><path fill="#fefefe" d="m331.766 173.625 23.242-4.285-20.25 10.836Zm0 0"/><path fill="#201533" d="m331.766 173.625-3.227-23.715 13.691 7.961Zm0 0"/><path fill="#fefefe" d="m283.297 171.672-11.781 4.398 2.554-8.023Zm0 0"/><path fill="#fdfdfd" d="m271.516 176.07 11.78-4.398-5.78 13.031Zm0 0"/><path fill="#fcfcfc" d="m271.516 176.07 6 8.633-8.63 2.082Zm0 0"/><path fill="#fefefe" d="m279.8 141.344-23.905-4.703 16.246-6.496ZM279.8 141.344l-5.624 9.64-18.32-4.007Zm0 0"/><path fill="#fefefe" d="m255.895 136.64 23.906 4.704-23.946 5.633ZM274.176 150.984l5.625-9.64 13.34 8.215Zm0 0"/><path fill="#f9f9fa" d="m299.309 242.605 2.777 15.645-7.828-8.77Zm0 0"/><path fill="#f8f8f9" d="m299.309 242.605-5.051 6.875-5.488-11.605Zm0 0"/><path fill="#201533" d="m312.234 245.316-12.925-2.71 2.816-10.399ZM302.086 258.25l10.148-12.934 8.836 12.243Zm0 0"/><path fill="#372d48" d="m302.086 258.25 18.984-.691-1.117 20.71Zm0 0"/><path fill="#5c546a" d="m302.086 258.25-2.777-15.645 12.925 2.711Zm0 0"/><path fill="#f8f8f8" d="m319.277 236.188-7.043 9.128-10.109-13.109Zm0 0"/><path fill="#fefefe" d="m319.277 236.188-17.152-3.981 18.168-5.715Zm0 0"/><path fill="#fdfdfd" d="m312.234 245.316 7.043-9.129 7.36 8.477Zm0 0"/><path fill="#fdfdfd" d="m319.277 236.188 18.953-4.282-11.593 12.758Zm0 0"/><path fill="#fefefe" d="m319.277 236.188 1.016-9.696 17.937 5.414Zm0 0"/><path fill="#fbfafb" d="m184.473 276.328 27.113 36.848-45.715-14.817Zm0 0"/><path fill="#fefefe" d="m211.586 313.176-27.113-36.848 31.511 15.64Zm0 0"/><path fill="#bcb8c1" d="m222.375 315.988-10.79-2.812 4.4-21.207Zm0 0"/><path fill="#201533" d="m106.14 146.691-3.722 15.809-13.32-10.453Zm0 0"/><path fill="#fefefe" d="m89.098 152.047 13.32 10.453-16.621 10.762ZM157.285 159.727l-10.203 10.64-.633-14.047Zm0 0"/><path fill="#eeeef0" d="m179.96 186.52-52.679 6.398 19.801-22.55Zm0 0"/><path fill="#fefefe" d="m113.324 212.578 13.957-19.66 20.281 19.617ZM131.418 314.465l-36.223 7.547 6.282-15.172Zm0 0"/><path fill="#261b38" d="m128.59 301.715 2.828 12.75-29.941-7.625Zm0 0"/><path fill="#f9f9fa" d="m95.195 322.012 36.223-7.547 1.703 18.45Zm0 0"/><path fill="#201533" d="m150.883 276.39-11.301-7.085 12.117-9.934ZM139.582 269.305l11.3 7.086-26.71 11.035Zm0 0"/><path fill="#fbfbfb" d="m162.383 271.809-11.5 4.582.816-17.02Zm0 0"/><path fill="#fdfdfd" d="m165.871 298.36-14.988-21.97 11.5-4.581Zm0 0"/><path fill="#fefefe" d="m122.582 155.867 8.445 5.274-3.746 31.777Zm0 0"/><path fill="#201533" d="m122.582 155.867-20.164 6.633 3.723-15.809Zm0 0"/><path fill="#fefefe" d="m131.027 161.14-8.445-5.273 12.117-3.5ZM147.082 170.367l-16.055-9.226 3.672-8.774ZM127.281 192.918l3.746-31.777 16.055 9.226Zm0 0"/><path fill="#fbfbfb" d="m131.418 314.465 30.191 2.668-28.488 15.781Zm0 0"/><path fill="#251a37" d="m131.418 314.465 34.453-16.106-4.262 18.774Zm0 0"/><path fill="#241937" d="m131.418 314.465-2.828-12.75 37.281-3.356Zm0 0"/><path fill="#201533" d="m130.145 293.578-1.555 8.137-5.781-5.113Zm0 0"/><path fill="#201533" d="m130.145 293.578-7.336 3.024 1.363-9.176Zm0 0"/><path fill="#201533" d="m150.883 276.39-20.738 17.188-5.973-6.152Zm0 0"/><path fill="#261b38" d="m128.59 301.715 1.555-8.137 35.726 4.781Zm0 0"/><path fill="#211634" d="m130.145 293.578 20.738-17.187 14.988 21.968Zm0 0"/><path fill="#201533" d="m122.582 155.867-15.648 23.938-4.516-17.305Zm0 0"/><path fill="#251a37" d="m102.418 162.5 4.516 17.305-21.137-6.543Zm0 0"/><path fill="#fefefe" d="m106.934 179.805 15.648-23.938 4.7 37.051Zm0 0"/></svg>