<svg xmlns="http://www.w3.org/2000/svg" width="512" height="512" viewBox="0 0 384 384"><path fill="#909b86" d="m247.078 283.598.524-31.41 30.359 27.953Zm0 0"/><path fill="#cac585" d="m247.602 252.188-.524 31.41-28.422-1.672Zm0 0"/><path fill="#2f232f" d="m0 237.934 21.64.375-.867 11.406Zm0 0"/><path fill="#2e222f" d="M384 175.55v42.048l-28.258-36.883ZM243.402 98.977l21.368-58.665 35.433 51.57ZM0 384v-90.094l52.316 43.133Zm0 0"/><path fill="#ddc97d" d="m247.602 252.188 24.503-1.512 5.856 29.465Zm0 0"/><path fill="#ece589" d="m259.496 234.645 12.61 16.03-24.504 1.512Zm0 0"/><path fill="#e6de87" d="m219.402 250.645 28.2 1.542-28.946 29.739Zm0 0"/><path fill="#983e42" d="M139.691-.004 87.824 17.438 52.625.003Zm0 0"/><path fill="#983f42" d="m52.625.004 35.2 17.434-37.61.414Zm0 0"/><path fill="#513c35" d="m50.215 17.852 38.074 22.96-88.644 5.07Zm0 0"/><path fill="#4f3a35" d="m87.824 17.438.465 23.375-38.074-22.961Zm0 0"/><path fill="#2e222f" d="M36.691 110.422-.355 45.882l88.644-5.07ZM36.691 110.422l-36.699 45.7-.347-110.24ZM192.121 42.227l51.281 56.75-48.523 14.148Zm0 0"/><path fill="#2e222f" d="m243.402 98.977-51.28-56.75 72.648-1.914Zm0 0"/><path fill="#2e222f" d="M143.613 107.973 88.29 40.813l103.832 1.414Zm0 0"/><path fill="#332430" d="m125.625 137.723-34.89-27.055 52.878-2.695Zm0 0"/><path fill="#2f232f" d="m90.734 110.668 34.891 27.055-24.512 20.687Zm0 0"/><path fill="#4e3a34" d="m128.05 226.355 26.962 7.13-5.157 10.902Zm0 0"/><path fill="#2e222f" d="M0 293.906v-55.972l20.773 11.78ZM-.008 156.121l26.176-8.512-.3 15.164Zm0 0"/><path fill="#f1eb8a" d="m15.398 183.785 10.329-8.824 8.53 14.879Zm0 0"/><path fill="#efea8a" d="m21.64 238.309 3.297 11.09-4.164.316Zm0 0"/><path fill="#31242f" d="m62.27 138.16-16.813 10.774-8.766-38.512Zm0 0"/><path fill="#2e222f" d="m340.656 98.793 43.348 3.41-20.469 20.82Zm0 0"/><path fill="#30232f" d="m244.945 133.969-20.035 3.094 18.492-38.086Zm0 0"/><path fill="#2f232f" d="m243.402 98.977-18.492 38.085-30.031-23.937ZM244.945 133.969l.778 12.785-20.813-9.691ZM169.012 129.273l25.867-16.148-15.785 21.293Zm0 0"/><path fill="#2f222f" d="m172.629 141.617-3.617-12.344 10.082 5.145Zm0 0"/><path fill="#2e222f" d="M102.555 337.797 99.027 384l-46.71-46.96ZM50.508 302.48l20.191-1.554-18.383 36.113Zm0 0"/><path fill="#9d9b76" d="m259.496 234.645-7.246-3.399 16.79-21.703Zm0 0"/><path fill="#595f68" d="m282.695 220.113-23.199 14.532 9.543-25.102Zm0 0"/><path fill="#2e222f" d="M359.719 241.027 384 272.332l-32.559-4.71ZM262.066 353.953l-11.128-3.445 15.656-9.88ZM384 384l-36.234-37.465L384 331.265ZM90.734 110.668 88.29 40.813l55.324 67.16ZM90.734 110.668l-54.043-.246 51.598-69.61Zm0 0"/><path fill="#32252f" d="M90.734 110.668 62.27 138.16 36.69 110.422Zm0 0"/><path fill="#533d35" d="m88.29 40.813-.466-23.376 55.758-.62Zm0 0"/><path fill="#983e41" d="M87.824 17.438 139.691-.005l3.891 16.82Zm0 0"/><path fill="#30242f" d="m169.012 129.273-25.399-21.3 51.266 5.152Zm0 0"/><path fill="#e5e088" d="m128.05 226.355 43.747-13.285-16.785 20.414Zm0 0"/><path fill="#e9e388" d="m171.797 213.07-50.574 5.387 33.683-28.531Zm0 0"/><path fill="#dfd683" d="m171.797 213.07-43.746 13.285-6.828-7.898Zm0 0"/><path fill="#dec87c" d="m103.875 276.922-.352-24.211 32.829 18.617Zm0 0"/><path fill="#d1cd86" d="m210.938 223.652-39.141-10.582 32.781-11.074Zm0 0"/><path fill="#798b87" d="m48.988 246.086-1.75 34.871-8.136-30.133Zm0 0"/><path fill="#2f222f" d="M26.168 147.61-.008 156.12l36.7-45.7Zm0 0"/><path fill="#2f232f" d="m45.457 148.934-19.289-1.325 10.523-37.187Zm0 0"/><path fill="#efea8a" d="m30.71 226.535-5.773 22.863-3.296-11.09Zm0 0"/><path fill="#7e8f87" d="m24.938 249.398 5.773-22.863 8.39 24.29Zm0 0"/><path fill="#778985" d="m48.988 246.086-18.277-19.55 22.918-5.938Zm0 0"/><path fill="#798b86" d="m30.71 226.535 18.278 19.55-9.886 4.74Zm0 0"/><path fill="#ede88a" d="m27.871 224.629 2.84 1.906-9.07 11.774Zm0 0"/><path fill="#2e222f" d="m27.871 224.629-12.473-40.844 18.86 6.055Zm0 0"/><path fill="#2e222f" d="m47.234 205.645-19.363 18.984 6.387-34.79Zm0 0"/><path fill="#ece68a" d="m27.871 224.629 19.363-18.984-16.523 20.89Zm0 0"/><path fill="#e9e286" d="m41.48 174.234-15.753.727.14-12.188Zm0 0"/><path fill="#f0ea8a" d="m25.727 174.96 15.753-.726-7.222 15.606ZM61.402 156.57l-9.836 10.809-6.109-18.445Zm0 0"/><path fill="#30232f" d="m62.27 138.16-.868 18.41-15.945-7.636Zm0 0"/><path fill="#2e222f" d="m350.898 126.172-10.242-27.379 22.88 24.23ZM340.656 98.793l-40.453-6.91 21.77-91.887Zm0 0"/><path fill="#2f232f" d="m300.203 91.883-35.433-51.57L321.973-.005Zm0 0"/><path fill="#2e222f" d="m384 175.55-7.18-22.804 7.184-50.543Zm0 0"/><path fill="#3e2d32" d="M264.77 40.313 262.559.002l59.414-.007Zm0 0"/><path fill="#3d2b31" d="m262.559.004-48.664 5.07.234-5.078Zm0 0"/><path fill="#3d2d31" d="m213.895 5.074 48.664-5.07 2.21 40.309Zm0 0"/><path fill="#2e222f" d="m384.004 102.203-43.348-3.41L321.973-.004ZM203.531 144.617l21.38-7.554-15.86 17.082Zm0 0"/><path fill="#2e222f" d="m199.953 153.121 3.578-8.504 5.52 9.528ZM228.86 155.46l-3.95-18.398 20.813 9.692Zm0 0"/><path fill="#2e222f" d="m224.91 137.063 3.95 18.398-19.81-1.316ZM99.027 384H0l52.316-46.96ZM354.152 216.066l1.59-35.351L384 217.598Zm0 0"/><path fill="#2e222f" d="m359.719 241.027-5.567-24.96 29.848 1.53ZM343.465 256.418l16.254-15.39-8.278 26.593Zm0 0"/><path fill="#2f222f" d="m259.496 234.645 24.086 2.75-11.477 13.28Zm0 0"/><path fill="#e4dd86" d="m230.523 232.39 21.727-1.144-32.848 19.399Zm0 0"/><path fill="#f0e98a" d="m219.402 250.645 32.848-19.399-4.648 20.941Zm0 0"/><path fill="#ebe287" d="m252.25 231.246 7.246 3.399-11.894 17.542Zm0 0"/><path fill="#2f222f" d="m283.582 237.395-24.086-2.75 23.2-14.532Zm0 0"/><path fill="#2e222f" d="m384 272.332-39.773 17.871 7.214-22.582ZM384 217.598v54.734l-24.281-31.305ZM250.938 350.508l-7.293 19.918L196.812 384Zm0 0"/><path fill="#f1eb8a" d="m262.066 353.953-18.421 16.473 7.292-19.918Zm0 0"/><path fill="#2e222f" d="m218.46 336.86 32.477 13.648L196.813 384Zm0 0"/><path fill="#2e222f" d="m218.46 336.86 19.755-21.919 12.722 35.567Zm0 0"/><path fill="#dfd987" d="m247.078 283.598 4.582 20.601-33.004-22.273Zm0 0"/><path fill="#babe88" d="m349.96 294.816-26.472 6.391 20.739-11.004Zm0 0"/><path fill="#2e222f" d="m315.68 288.957-4.95 17.668-5.886-15.441ZM310.73 306.625l4.95-17.668 7.808 12.25ZM347.766 346.535l24.402-18.855L384 331.266Zm0 0"/><path fill="#f0ea8a" d="m276.262 360.188-14.196-6.235 4.528-13.324Zm0 0"/><path fill="#993f42" d="M-.004 17.36 0 0l52.625.004Zm0 0"/><path fill="#6d403a" d="m-.004 17.36 50.219.492-50.57 28.03Zm0 0"/><path fill="#914243" d="m50.215 17.852-50.219-.493L52.625.004Zm0 0"/><path fill="#943f41" d="m214.129-.004-.234 5.078L139.69-.004Zm0 0"/><path fill="#483533" d="m143.582 16.816 70.313-11.742-21.774 37.153Zm0 0"/><path fill="#993e41" d="m213.895 5.074-70.313 11.742-3.89-16.82Zm0 0"/><path fill="#413032" d="m88.29 40.813 55.292-23.997 48.54 25.41Zm0 0"/><path fill="#5a4237" d="m192.121 42.227 21.774-37.153 50.875 35.239Zm0 0"/><path fill="#2e222f" d="m143.613 107.973 48.508-65.746 2.758 70.898Zm0 0"/><path fill="#9ea384" d="m171.797 213.07 9.793-29.617 22.988 18.543Zm0 0"/><path fill="#904944" d="m185.762 158.18-2.7 10.015-7.355-6.172Zm0 0"/><path fill="#dec47a" d="m175.324 156.309 10.438 1.87-10.055 3.844Zm0 0"/><path fill="#684d39" d="m159.477 247.184-9.622-2.797 5.157-10.903Zm0 0"/><path fill="#a79c72" d="m128.05 226.355-24.527 26.356 17.7-34.254Zm0 0"/><path fill="#7b8881" d="m47.234 205.645 6.395 14.953-22.918 5.937Zm0 0"/><path fill="#7f8e86" d="m82.086 189.516-28.457 31.082-6.395-14.953Zm0 0"/><path fill="#f1eb8a" d="m53.629 220.598 28.457-31.082 3.324 15.558ZM110.71 209.004l13.032-12.238-2.52 21.691Zm0 0"/><path fill="#ede789" d="m51.566 167.379-25.699-4.606 19.59-13.84Zm0 0"/><path fill="#2e222f" d="m25.867 162.773.301-15.164 19.289 1.325Zm0 0"/><path fill="#605546" d="m41.48 174.234-15.613-11.46 25.7 4.605Zm0 0"/><path fill="#f1eb8a" d="m15.398 183.785-1.632-14.808 11.96 5.984Zm0 0"/><path fill="#2e222f" d="m-.008 156.121 13.774 12.856 1.632 14.808Zm0 0"/><path fill="#ebe587" d="m25.727 174.96-11.961-5.983 12.101-6.204Zm0 0"/><path fill="#2e222f" d="M13.766 168.977-.008 156.12l25.875 6.652Zm0 0"/><path fill="#30232f" d="m11.934 225.703 15.937-1.074-6.23 13.68Zm0 0"/><path fill="#30242f" d="m11.934 225.703 9.707 12.606L0 237.934Zm0 0"/><path fill="#2f232f" d="m27.871 224.629-15.937 1.074 3.464-41.918ZM11.934 225.703 0 237.933l-.008-81.812Zm0 0"/><path fill="#30232f" d="m15.398 183.785-3.464 41.918-11.942-69.582Zm0 0"/><path fill="#7c8d87" d="m31.64 266.004-6.703-16.606 14.165 1.426Zm0 0"/><path fill="#7a8b87" d="m47.238 280.957-15.597-14.953 7.46-15.18Zm0 0"/><path fill="#efe98a" d="m30.574 280.195 1.067-14.191 15.597 14.953Zm0 0"/><path fill="#d9d88a" d="m67.777 192.945 14.309-3.43-34.852 16.13Zm0 0"/><path fill="#938a5e" d="m88.754 192.531-6.668-3.015 23.492-9.754Zm0 0"/><path fill="#f1eb8a" d="m82.086 189.516 6.668 3.015-3.344 12.543Zm0 0"/><path fill="#cdc578" d="m70.156 168.59 30.957-10.18-17.648 16.778Zm0 0"/><path fill="#30232f" d="m76.195 146.594-14.793 9.976.868-18.41Zm0 0"/><path fill="#f1eb8a" d="m70.156 168.59 6.04-21.996 24.917 11.816Zm0 0"/><path fill="#2e222f" d="m357.563 134.77-6.665-8.598 12.637-3.149Zm0 0"/><path fill="#f1eb8a" d="m374.293 151.848-9.309 15.523-5.25-11.098Zm0 0"/><path fill="#2e222f" d="M367.781 169.004 384 175.55l-28.258 5.164Zm0 0"/><path fill="#f1eb8a" d="m364.984 167.371-9.671-6.512 4.421-4.586ZM333.488 151.55l-12.547.942-1.816-15.469Zm0 0"/><path fill="#33252f" d="m384 0 .004 102.203L321.973-.004Zm0 0"/><path fill="#2e222f" d="m228.86 155.46-6.18 14.919-13.63-16.234ZM43.469 294.55 25.94 283.735l4.633-3.539ZM336.605 226.813l17.547-10.747 5.567 24.961Zm0 0"/><path fill="#efea8a" d="m277.96 280.14 31.259 1.942-4.375 9.102Zm0 0"/><path fill="#ddc97d" d="m309.219 282.082 6.46 6.875-10.835 2.227Zm0 0"/><path fill="#a4a67b" d="m252.25 231.246-7.36-32.324 24.15 10.621Zm0 0"/><path fill="#82816e" d="m230.523 232.39 14.368-33.468 7.359 32.324Zm0 0"/><path fill="#e3e08a" d="m197.61 170.484 6.968 31.512-22.988-18.543Zm0 0"/><path fill="#b1b486" d="m231.46 196.406-20.523 27.246-6.359-21.656Zm0 0"/><path fill="#2e222f" d="m272.105 250.676 28.2.168-22.344 29.297Zm0 0"/><path fill="#2e222f" d="m283.582 237.395 16.723 13.449-28.2-.168ZM344.227 290.203l-8.313-13.344 15.527-9.238Zm0 0"/><path fill="#eee688" d="m344.227 290.203-20.778-13.574 12.465.23Zm0 0"/><path fill="#2e222f" d="m243.645 370.426 23.457 13.746-70.29-.172Zm0 0"/><path fill="#2e222f" d="m196.813 384-10.094-42.574 31.742-4.567Zm0 0"/><path fill="#9b4343" d="m315.68 288.957-6.461-6.875 14.23-5.453Zm0 0"/><path fill="#e9e489" d="m323.488 301.207-7.808-12.25 28.547 1.246Zm0 0"/><path fill="#893c3f" d="m315.68 288.957 7.77-12.328 20.777 13.574Zm0 0"/><path fill="#c8c686" d="m247.078 283.598 30.883-3.457-26.3 24.058Zm0 0"/><path fill="#302430" d="m277.96 280.14-6.12 24.278-20.18-.219Zm0 0"/><path fill="#2e222f" d="m271.84 304.418 23.062 11.144-10.925 20.446ZM309.559 332.426l-14.657-16.863 15.828-8.938Zm0 0"/><path fill="#2e222f" d="m283.977 336.008 10.925-20.445 14.657 16.863ZM255.582 311.168l28.395 24.84-17.383 4.62Zm0 0"/><path fill="#2e222f" d="m255.582 311.168 16.258-6.75 12.137 31.59ZM250.938 350.508l4.644-39.34 11.012 29.46ZM238.215 314.941l17.367-3.773-4.644 39.34Zm0 0"/><path fill="#e2d986" d="m255.582 311.168-17.367 3.773L251.66 304.2Zm0 0"/><path fill="#e0d986" d="m271.84 304.418-16.258 6.75-3.922-6.969Zm0 0"/><path fill="#2e222f" d="m363.414 332.5 8.754-4.82-24.402 18.855Zm0 0"/><path fill="#f0ea8a" d="m372.168 327.68-8.754 4.82-14.156-29.79Zm0 0"/><path fill="#2e222f" d="m324.238 384 23.528-37.465L384 384Zm0 0"/><path fill="#2e222f" d="M347.766 346.535 324.238 384l-14.843-21.332Zm0 0"/><path fill="#f1eb8a" d="m276.262 360.188-9.719 23.656-4.477-29.89Zm0 0"/><path fill="#f1eb8a" d="m266.543 383.844-22.898-13.418 18.421-16.473Zm0 0"/><path fill="#2e222f" d="m266.543 383.844.559.328-23.457-13.746Zm0 0"/><path fill="#f1eb8a" d="m293.504 348.71-17.242 11.478-9.668-19.56Zm0 0"/><path fill="#f0ea8a" d="m283.977 336.008 9.527 12.703-26.91-8.082Zm0 0"/><path fill="#2e222f" d="m293.504 348.71-9.527-12.702 25.582-3.582Zm0 0"/><path fill="#2e222f" d="m309.395 362.668-15.891-13.957 16.055-16.285ZM266.543 383.844l17.52.144-16.961.184Zm0 0"/><path fill="#2e222f" d="m284.063 383.988-17.52-.144 9.719-23.656Zm0 0"/><path fill="#31242f" d="m146.02 143.832-20.395-6.11 17.988-29.75Zm0 0"/><path fill="#30232f" d="m125.625 137.723 20.395 6.109-9.297 8.406Zm0 0"/><path fill="#f1eb8a" d="m172.629 141.617 13.133 16.563-10.438-1.871Zm0 0"/><path fill="#2e222f" d="m192.023 146.25 11.508-1.633-3.578 8.504ZM196.813 384l-57.153-36.832 47.059-5.742Zm0 0"/><path fill="#2e222f" d="m99.027 384 40.633-36.832L196.813 384Zm0 0"/><path fill="#2e222f" d="M139.66 347.168 99.027 384l3.528-46.203ZM186.719 341.426l18.367-17.223 13.375 12.656Zm0 0"/><path fill="#2e222f" d="m205.086 324.203-18.367 17.223 13.644-23.266ZM70.7 300.926l20.042 6.195-38.426 29.918Zm0 0"/><path fill="#e4df88" d="m171.047 235.36-16.035-1.876 16.785-20.414Zm0 0"/><path fill="#d0cd84" d="m171.047 235.36.75-22.29 39.14 10.582Zm0 0"/><path fill="#f1eb8a" d="m24.031 266.77-3.258-17.055 4.165-.317Zm0 0"/><path fill="#eee88a" d="m24.031 266.77 7.61-.766-1.067 14.191Zm0 0"/><path fill="#eee88a" d="m31.64 266.004-7.609.766.907-17.372Zm0 0"/><path fill="#2e222f" d="m0 293.906 24.031-27.136 1.91 16.964Zm0 0"/><path fill="#2e222f" d="m20.773 249.715 3.258 17.055L0 293.906ZM25.941 283.734l-1.91-16.964 6.543 13.425Zm0 0"/><path fill="#7a8c86" d="m66.387 267.328-19.149 13.629 1.75-34.871Zm0 0"/><path fill="#e8e38a" d="m103.523 252.71-30.976-5.776 22.121-25.227Zm0 0"/><path fill="#e6dc86" d="m70.7 300.926 10.835-8.969 9.207 15.164Zm0 0"/><path fill="#f1eb8a" d="m81.535 291.957 22.34-15.035-13.133 30.2Zm0 0"/><path fill="#d3b072" d="m110.71 209.004-13.597-4.574 11.258-2.985Zm0 0"/><path fill="#f1eb8a" d="m97.113 204.43 13.598 4.574-16.043 12.703ZM97.113 204.43l9.946-15.239 1.312 12.254Zm0 0"/><path fill="#f1eb8a" d="m107.059 189.191-9.946 15.239-8.36-11.899ZM97.113 204.43l-2.445 17.277-9.258-16.633Zm0 0"/><path fill="#f1eb8a" d="m88.754 192.531 8.36 11.899-11.704.644ZM51.566 167.379l-4.906 21.289-5.18-14.434Zm0 0"/><path fill="#f1eb8a" d="m46.66 188.668 4.906-21.29 18.59 1.212Zm0 0"/><path fill="#2f232f" d="m46.66 188.668.574 16.977-12.976-15.805Zm0 0"/><path fill="#2e222f" d="m41.48 174.234 5.18 14.434-12.402 1.172Zm0 0"/><path fill="#332630" d="m46.66 188.668 21.117 4.277-20.543 12.7Zm0 0"/><path fill="#f1eb8a" d="m67.777 192.945-21.117-4.277 23.496-20.078Zm0 0"/><path fill="#2e222f" d="m82.086 189.516 1.379-14.328 22.113 4.574Zm0 0"/><path fill="#2f232f" d="m83.465 175.188-15.688 17.757 2.38-24.355Zm0 0"/><path fill="#2e222f" d="m83.465 175.188-1.38 14.328-14.308 3.43Zm0 0"/><path fill="#30232f" d="m61.402 156.57 8.754 12.02-18.59-1.211Zm0 0"/><path fill="#efea8a" d="m76.195 146.594-6.039 21.996-8.754-12.02Zm0 0"/><path fill="#2e222f" d="m76.195 146.594 14.54-35.926 10.378 47.742Zm0 0"/><path fill="#30232f" d="m90.734 110.668-14.539 35.926-13.925-8.434Zm0 0"/><path fill="#2e222f" d="m357.563 134.77-8.594-1.368 1.93-7.23ZM318.898 126.121l-18.695-34.238 40.453 6.91ZM318.898 126.121l-15.035-.066-3.66-34.172ZM367.781 169.004l9.04-16.258L384 175.551ZM367.781 169.004l6.512-17.156 2.527.898Zm0 0"/><path fill="#2e222f" d="m374.293 151.848-6.512 17.156-2.797-1.633Zm0 0"/><path fill="#2e222f" d="m364.984 167.371 2.797 1.633-12.039 11.71ZM242.574 168.547 228.86 155.46l16.864-8.707Zm0 0"/><path fill="#2f232f" d="m35.973 303.707 7.496-9.156 7.039 7.93Zm0 0"/><path fill="#2e222f" d="m43.469 294.55-7.496 9.157-10.032-19.973Zm0 0"/><path fill="#2e222f" d="m25.941 283.734 10.032 19.973L0 293.907ZM35.973 303.707l14.535-1.227 1.808 34.56Zm0 0"/><path fill="#2e222f" d="m0 293.906 35.973 9.801 16.343 33.332ZM335.914 276.86l3.707-18.247 11.82 9.008Zm0 0"/><path fill="#2e222f" d="m339.621 258.613 3.844-2.195 7.976 11.203ZM343.465 256.418l-1.555-14.219 17.809-1.172Zm0 0"/><path fill="#2e222f" d="m341.91 242.2-5.305-15.387 23.114 14.214Zm0 0"/><path fill="#ede789" d="m339.621 258.613 2.29-16.414 1.554 14.219Zm0 0"/><path fill="#f1eb8a" d="m341.91 242.2-2.289 16.413-11.094-9.87Zm0 0"/><path fill="#c5bf83" d="m244.89 198.922 18.82-5.984 5.33 16.605Zm0 0"/><path fill="#6f5d49" d="m231.46 196.406 13.43 2.516-14.367 33.469Zm0 0"/><path fill="#5a4338" d="m210.938 223.652 20.523-27.246-.938 35.985Zm0 0"/><path fill="#f1eb8a" d="m197.61 170.484 2.343-17.363 9.098 1.024Zm0 0"/><path fill="#f1eb8a" d="m222.68 170.379-25.07.105 11.44-16.34ZM341.91 242.2l-21.883-11.231 16.578-4.156Zm0 0"/><path fill="#903b3f" d="m278.59 199.75 4.105 20.363-13.656-10.57Zm0 0"/><path fill="#933d40" d="m263.71 192.938 14.88 6.812-9.55 9.793Zm0 0"/><path fill="#983e41" d="m278.59 199.75-14.88-6.812 4.106-7.883Zm0 0"/><path fill="#2e222f" d="m332.828 173.559-11.887-21.067 12.547-.941Zm0 0"/><path fill="#f1eb8a" d="m301.383 197.523 24.055 16.551-5.41 16.895Zm0 0"/><path fill="#2e222f" d="m325.438 214.074-24.055-16.55 26.273.609Zm0 0"/><path fill="#9c4444" d="m309.219 282.082-8.645-18.09 22.875 12.637Zm0 0"/><path fill="#eee88a" d="m300.574 263.992 8.645 18.09-31.258-1.941Zm0 0"/><path fill="#483939" d="m300.305 250.844.27 13.148-22.614 16.149Zm0 0"/><path fill="#e1d886" d="m211.176 316.375 40.484-12.176-13.445 10.742Zm0 0"/><path fill="#2e222f" d="m218.46 336.86-7.284-20.485 27.039-1.434Zm0 0"/><path fill="#2e222f" d="m205.086 324.203 6.09-7.828 7.285 20.484ZM310.73 306.625l-15.785-7.527 9.899-7.914Zm0 0"/><path fill="#2e222f" d="m294.902 315.563.043-16.465 15.785 7.527Zm0 0"/><path fill="#f0ea8a" d="m294.945 299.098-16.984-18.957 26.883 11.043Zm0 0"/><path fill="#d9d280" d="m277.96 280.14 16.985 18.958-23.105 5.32Zm0 0"/><path fill="#2e222f" d="m294.945 299.098-.043 16.464-23.062-11.144Zm0 0"/><path fill="#ece78a" d="m349.96 294.816 22.208 32.864-22.91-24.97Zm0 0"/><path fill="#2e222f" d="m384 272.332-34.04 22.484-5.733-4.613ZM384 331.266l-34.04-36.45L384 272.332Zm0 0"/><path fill="#2e222f" d="m349.96 294.816 34.04 36.45-11.832-3.586Zm0 0"/><path fill="#d2d289" d="m363.414 332.5-22.648-29.54 8.492-.25Zm0 0"/><path fill="#2e222f" d="m310.73 306.625 12.758-5.418 3.059 10.777ZM309.559 332.426l38.207 14.11-38.371 16.132ZM309.559 332.426l1.171-25.801 15.817 5.36Zm0 0"/><path fill="#2e222f" d="m347.766 346.535-38.207-14.11 16.988-20.44Zm0 0"/><path fill="#f1eb8a" d="m293.504 348.71 13.32 25.884-30.562-14.406ZM306.824 374.594l-22.762 9.394-7.8-23.8Zm0 0"/><path fill="#f1eb8a" d="m306.824 374.594-13.32-25.883 15.89 13.957Zm0 0"/><path fill="#2e222f" d="m284.063 383.988 22.761-9.394L324.238 384Zm0 0"/><path fill="#2e222f" d="m324.238 384-17.414-9.406 2.57-11.926Zm0 0"/><path fill="#30232f" d="m169.012 129.273-22.992 14.559-2.407-35.86Zm0 0"/><path fill="#2e222f" d="m146.02 143.832 22.992-14.559 3.617 12.344Zm0 0"/><path fill="#2f232f" d="m125.277 152.082.348-14.36 11.098 14.516Zm0 0"/><path fill="#dcc179" d="m164.566 157.785 10.758-1.476.383 5.714Zm0 0"/><path fill="#f1eb8a" d="m175.324 156.309-10.758 1.476 8.063-16.168Zm0 0"/><path fill="#f1eb8a" d="m164.566 157.785-18.546-13.953 26.609-2.215ZM146.02 143.832l6.167 23.465-15.464-15.059Zm0 0"/><path fill="#f1eb8a" d="m152.188 167.297-16.047 9.465.582-24.524Zm0 0"/><path fill="#f1eb8a" d="m164.566 157.785-12.379 9.512-6.167-23.465ZM197.61 170.484l-5.587-24.234 7.93 6.871ZM192.023 146.25l5.586 24.234-11.847-12.304ZM183.063 168.195l14.546 2.29-16.02 12.968Zm0 0"/><path fill="#f1eb8a" d="m185.762 158.18 11.847 12.304-14.547-2.289ZM172.629 141.617l19.394 4.633-6.261 11.93Zm0 0"/><path fill="#2e222f" d="m192.023 146.25-19.394-4.633 6.465-7.199Zm0 0"/><path fill="#513e37" d="m206.227 239.875-35.18-4.516 39.89-11.707Zm0 0"/><path fill="#9a8263" d="m219.402 250.645-8.464-26.993 19.585 8.739Zm0 0"/><path fill="#c8bf7d" d="m134.828 251.66 1.524 19.668-32.829-18.617Zm0 0"/><path fill="#7d7065" d="m134.828 251.66-6.777-25.305 21.804 18.032Zm0 0"/><path fill="#8d8c72" d="m134.828 251.66-31.305 1.05 24.528-26.355Zm0 0"/><path fill="#f1eb8a" d="m206.227 239.875-12.793 9.691-22.387-14.207Zm0 0"/><path fill="#2e222f" d="m139.66 347.168 25.504-27.441 21.555 21.699Zm0 0"/><path fill="#f0e98a" d="m200.363 318.16-35.199 1.567 6.652-18.25Zm0 0"/><path fill="#2e222f" d="m165.164 319.727 35.2-1.567-13.645 23.266ZM90.742 307.121l2.625 8.844-41.05 21.074Zm0 0"/><path fill="#32252f" d="m155.012 233.484 16.035 1.875-11.57 11.825Zm0 0"/><path fill="#f1eb8a" d="m53.629 220.598 18.918 26.336-23.559-.848Zm0 0"/><path fill="#f1eb8a" d="m72.547 246.934-6.16 20.394-17.399-21.242Zm0 0"/><path fill="#e8e087" d="m66.387 267.328 6.16-20.394 13.984 24.379Zm0 0"/><path fill="#ece78a" d="m47.238 280.957-3.77 13.594-12.894-14.356Zm0 0"/><path fill="#2e222f" d="m81.535 291.957 4.043-14.098 18.297-.937Zm0 0"/><path fill="#f1eb8a" d="m94.668 221.707-41.04-1.11 31.782-15.523Zm0 0"/><path fill="#db9e5d" d="m94.668 221.707 16.043-12.703 10.512 9.453Zm0 0"/><path fill="#f0e889" d="m103.523 252.71-8.855-31.003 26.555-3.25Zm0 0"/><path fill="#f1eb8a" d="m107.059 189.191 16.683 7.575-15.37 4.68Zm0 0"/><path fill="#f1eb8a" d="m123.742 196.766-13.031 12.238-2.34-7.559Zm0 0"/><path fill="#2e222f" d="m363.535 123.023 10.758 28.825-16.73-17.078ZM376.82 152.746l-2.527-.898 9.71-49.645Zm0 0"/><path fill="#2e222f" d="m374.293 151.848-10.758-28.825 20.469-20.82Zm0 0"/><path fill="#f1eb8a" d="m333.488 151.55 10.38-6.6-1.079 12.75ZM343.867 144.95l-10.379 6.6-14.363-14.527Zm0 0"/><path fill="#2e222f" d="m348.969 133.402-19.88-5.261 21.81-1.97Zm0 0"/><path fill="#2f222f" d="m350.898 126.172-21.808 1.969 11.566-29.348Zm0 0"/><path fill="#f1eb8a" d="m329.09 128.14 14.777 16.81-24.742-7.927ZM343.867 144.95l-14.777-16.81 19.879 5.262Zm0 0"/><path fill="#2f232f" d="m329.09 128.14-10.192-2.019 21.758-27.328Zm0 0"/><path fill="#f1eb8a" d="m318.898 126.121 10.192 2.02-9.965 8.882ZM269.84 167.465l-15.125 1.484 5.07-8.738ZM280.836 140.324l17 8.934-16.234 1.918Zm0 0"/><path fill="#2e222f" d="m277.594 127.863-34.192-28.886 56.801-7.094Zm0 0"/><path fill="#2e222f" d="m303.863 126.055-26.27 1.808 22.61-35.98Zm0 0"/><path fill="#f1eb8a" d="m280.836 140.324-3.242-12.46 26.27-1.81Zm0 0"/><path fill="#2e222f" d="m254.715 168.95-12.14-.403 3.148-21.793Zm0 0"/><path fill="#f1eb8a" d="m259.785 160.21-5.07 8.74-8.992-22.196Zm0 0"/><path fill="#2e222f" d="m242.574 168.547-19.894 1.832 6.18-14.918Zm0 0"/><path fill="#2e222f" d="m239.902 175.387-17.222-5.008 19.894-1.832Zm0 0"/><path fill="#f0ea8a" d="m222.68 170.379 17.222 5.008-11.894 14.496Zm0 0"/><path fill="#dcd888" d="m239.902 175.387 4.989 23.535-13.43-2.516Zm0 0"/><path fill="#e5dd86" d="m228.008 189.883 11.894-14.496-8.441 21.02Zm0 0"/><path fill="#9b4344" d="m323.45 276.629 2.39-14.238 10.074 14.468Zm0 0"/><path fill="#f0ea8a" d="m325.84 262.39 13.781-3.777-3.707 18.246Zm0 0"/><path fill="#f1eb8a" d="m339.621 258.613-13.781 3.778 2.687-13.649Zm0 0"/><path fill="#ebe589" d="m251.875 181.805 11.836 11.132-18.82 5.985Zm0 0"/><path fill="#30232f" d="m251.875 181.805 2.84-12.856 13.101 16.106Zm0 0"/><path fill="#a04d48" d="m263.71 192.938-11.835-11.133 15.941 3.25Zm0 0"/><path fill="#563436" d="M278.59 199.75 289.996 215l-7.3 5.113Zm0 0"/><path fill="#ede488" d="m289.996 215-11.406-15.25 8.336-7.25Zm0 0"/><path fill="#f0ea8a" d="m286.926 192.5-8.336 7.25-10.774-14.695Zm0 0"/><path fill="#f1eb8a" d="m325.438 214.074 11.167 12.738-16.578 4.157Zm0 0"/><path fill="#c2904a" d="m301.383 197.523 12.926-21.082 13.347 21.692Zm0 0"/><path fill="#2e222f" d="m332.828 173.559-20.941-8.59 9.054-12.477Zm0 0"/><path fill="#2e222f" d="m311.887 164.969-14.051-15.711 23.105 3.234ZM297.836 149.258l14.05 15.71-22.609-3.69Zm0 0"/><path fill="#2e222f" d="m289.277 161.277 22.61 3.692-22.43 8.281ZM311.887 164.969l2.422 11.472-24.852-3.191Zm0 0"/><path fill="#2e222f" d="m314.309 176.441-2.422-11.472 20.941 8.59Zm0 0"/><path fill="#f1eb8a" d="m289.996 215 11.387-17.477 18.644 33.446Zm0 0"/><path fill="#f1eb8a" d="M301.383 197.523 289.996 215l-3.07-22.5Zm0 0"/><path fill="#963c40" d="m289.996 215 21.176 31.707-28.477-26.594Zm0 0"/><path fill="#f1eb8a" d="M311.172 246.707 289.996 215l30.031 15.969Zm0 0"/><path fill="#2f232f" d="m200.363 318.16 10.813-1.785-6.09 7.828Zm0 0"/><path fill="#e4e18a" d="m340.766 302.96 7 43.575-21.22-34.55Zm0 0"/><path fill="#2f232f" d="m347.766 346.535-7-43.574 22.648 29.539Zm0 0"/><path fill="#c5c889" d="m340.766 302.96 9.195-8.144-.703 7.895Zm0 0"/><path fill="#e2df8a" d="m340.766 302.96-14.22 9.024 23.415-17.168Zm0 0"/><path fill="#eae58a" d="m326.547 311.984-3.059-10.777 26.473-6.39Zm0 0"/><path fill="#f1eb8a" d="m118.656 179.254 5.086 17.512-16.683-7.575Zm0 0"/><path fill="#ba835e" d="m169.77 168.8-5.204-11.015 11.141 4.238Zm0 0"/><path fill="#f1eb8a" d="m169.77 168.8-17.583-1.503 12.38-9.512Zm0 0"/><path fill="#8a4f46" d="m183.063 168.195-13.293.606 5.937-6.778Zm0 0"/><path fill="#f1eb8a" d="m181.59 183.453-11.82-14.652 13.292-.606Zm0 0"/><path fill="#ede78a" d="m154.906 189.926 26.684-6.473-9.793 29.617Zm0 0"/><path fill="#2e222f" d="m192.023 146.25 2.856-33.125 8.652 31.492Zm0 0"/><path fill="#2e222f" d="m194.879 113.125-2.856 33.125-12.93-11.832Zm0 0"/><path fill="#2f222f" d="m203.531 144.617-8.652-31.492 30.031 23.938Zm0 0"/><path fill="#e9e087" d="m210.938 223.652 8.464 26.993-13.175-10.77Zm0 0"/><path fill="#ece387" d="m219.402 250.645-25.968-1.079 12.793-9.691Zm0 0"/><path fill="#f1eb8a" d="m219.402 250.645-31.722 25.199 5.754-26.278Zm0 0"/><path fill="#6c503a" d="m152.266 259.773-2.41-15.386 9.62 2.797Zm0 0"/><path fill="#f1eb8a" d="m172.355 257.129-20.09 2.644 7.212-12.59Zm0 0"/><path fill="#987860" d="m152.266 259.773-17.438-8.113 15.027-7.273Zm0 0"/><path fill="#f1eb8a" d="m187.68 275.844-25.774-4.461 10.45-14.254Zm0 0"/><path fill="#f1eb8a" d="m161.906 271.383-9.64-11.61 20.09-2.644ZM152.266 259.773l9.64 11.61-10.988 4.328Zm0 0"/><path fill="#f1eb8a" d="m161.906 271.383-5.875 13.246-5.113-8.918ZM156.031 284.629l5.875-13.246 25.774 4.46Zm0 0"/><path fill="#f0ea8a" d="m165.164 319.727-24.934-11.829 31.586-6.421Zm0 0"/><path fill="#2e222f" d="m93.367 315.965 9.188 21.832-50.239-.758Zm0 0"/><path fill="#2e222f" d="m102.555 337.797-9.188-21.832 25.762-1.945ZM93.367 315.965l-2.625-8.844 28.387 6.899Zm0 0"/><path fill="#30232f" d="m136.352 271.328 15.914-11.555-1.348 15.938Zm0 0"/><path fill="#87745d" d="m152.266 259.773-15.914 11.555-1.524-19.668Zm0 0"/><path fill="#e5d581" d="m90.742 307.121 27.11-5.289 1.277 12.188Zm0 0"/><path fill="#f1eb8a" d="m117.852 301.832-27.11 5.29 13.133-30.2Zm0 0"/><path fill="#30232f" d="m142.484 284.297-18.238 4.148 12.106-17.117Zm0 0"/><path fill="#2e222f" d="m135.598 296.566-11.352-8.12 18.238-4.15Zm0 0"/><path fill="#2f222f" d="m124.246 288.445-20.371-11.523 32.477-5.594Zm0 0"/><path fill="#f1ea8a" d="m124.246 288.445-6.394 13.387-13.977-24.91Zm0 0"/><path fill="#31242f" d="m117.852 301.832 6.394-13.387 11.352 8.121Zm0 0"/><path fill="#ede789" d="m172.355 257.129-1.308-21.77 22.387 14.207Zm0 0"/><path fill="#f1eb8a" d="m187.68 275.844-15.325-18.715 21.079-7.563Zm0 0"/><path fill="#e9e488" d="m171.047 235.36 1.308 21.769-12.878-9.945Zm0 0"/><path fill="#efe98a" d="m47.238 280.957 8.32 10.559-12.09 3.035Zm0 0"/><path fill="#30232f" d="m55.559 291.516 15.14 9.41-20.191 1.554Zm0 0"/><path fill="#30242f" d="m43.469 294.55 12.09-3.034-5.051 10.964Zm0 0"/><path fill="#e0d484" d="m55.559 291.516 25.976.441-10.836 8.969Zm0 0"/><path fill="#2e222f" d="m85.578 277.86.953-6.548 17.344 5.61Zm0 0"/><path fill="#ede488" d="m103.875 276.922-17.344-5.61 16.992-18.601Zm0 0"/><path fill="#e6e087" d="m86.531 271.313-13.984-24.38 30.976 5.778Zm0 0"/><path fill="#f1eb8a" d="m94.668 221.707-22.121 25.227-18.918-26.336Zm0 0"/><path fill="#f1eb8b" d="m354.563 140.703 19.73 11.145-14.559 4.425Zm0 0"/><path fill="#f1eb8a" d="m354.563 140.703-5.594-7.3 8.594 1.367ZM374.293 151.848l-19.73-11.145 3-5.933Zm0 0"/><path fill="#2e222f" d="m355.313 160.86-1.243 10.25-11.28-13.41Zm0 0"/><path fill="#f1eb8a" d="m354.07 171.11 1.243-10.25 9.671 6.511Zm0 0"/><path fill="#b18247" d="m333.91 179.77 21.832.945-28.086 17.418Zm0 0"/><path fill="#31242f" d="m355.742 180.715-1.672-9.606 10.914-3.738Zm0 0"/><path fill="#957347" d="m354.07 171.11 1.672 9.605-21.832-.945Zm0 0"/><path fill="#2e222f" d="m297.836 149.258-8.559 12.02-7.675-10.102ZM281.602 151.176l-11.762 16.289-10.055-7.254Zm0 0"/><path fill="#2e222f" d="m281.602 151.176 7.675 10.101-19.437 6.188ZM289.277 161.277l.18 11.973-19.617-5.785Zm0 0"/><path fill="#f1eb8a" d="m297.836 149.258 21.289-12.235 1.816 15.47ZM319.125 137.023l-21.29 12.235-17-8.934ZM318.898 126.121l.227 10.902-15.262-10.968Zm0 0"/><path fill="#f1eb8a" d="m319.125 137.023-38.29 3.301 23.028-14.27ZM258.477 135.645l1.308 24.566-14.062-13.457Zm0 0"/><path fill="#2f232f" d="m258.477 135.645-12.754 11.109-.778-12.785Zm0 0"/><path fill="#2e222f" d="m258.477 135.645-13.532-1.676-1.543-34.992Zm0 0"/><path fill="#30232f" d="m277.594 127.863-19.117 7.782-15.075-36.668Zm0 0"/><path fill="#b0ae82" d="m228.008 189.883 3.453 6.523-26.883 5.59Zm0 0"/><path fill="#969e85" d="m197.61 170.484 30.398 19.399-23.43 12.113Zm0 0"/><path fill="#c8c888" d="m228.008 189.883-30.399-19.399 25.07-.105Zm0 0"/><path fill="#f0ea8a" d="m239.902 175.387 11.973 6.418-6.984 17.117Zm0 0"/><path fill="#2f222f" d="m251.875 181.805-11.973-6.418 2.672-6.84Zm0 0"/><path fill="#2e222f" d="m254.715 168.95-2.84 12.855-9.3-13.258ZM354.152 216.066l-15.488-7.09 17.078-28.261ZM336.605 226.813l2.06-17.836 15.487 7.09Zm0 0"/><path fill="#30232f" d="m355.742 180.715-17.078 28.262-11.008-10.844Zm0 0"/><path fill="#2e222f" d="m338.664 208.977-13.226 5.097 2.218-15.941Zm0 0"/><path fill="#2e222f" d="m338.664 208.977-2.059 17.835-11.168-12.738Zm0 0"/><path fill="#bf8c49" d="m314.309 176.441 19.601 3.329-6.254 18.363Zm0 0"/><path fill="#f1eb8a" d="m333.91 179.77-19.601-3.329 18.52-2.882Zm0 0"/><path fill="#eaaf54" d="m314.309 176.441-12.926 21.082-11.926-24.273Zm0 0"/><path fill="#d19a4d" d="m289.457 173.25 11.926 24.273-14.457-5.023Zm0 0"/><path fill="#ece588" d="m325.84 262.39-14.668-15.683 17.355 2.035Zm0 0"/><path fill="#eae68a" d="m218.656 281.926-30.976-6.082 31.722-25.2Zm0 0"/><path fill="#f0ea8a" d="m156.031 284.629 31.649-8.785-15.864 25.633Zm0 0"/><path fill="#dcd283" d="m251.66 304.2-41.562 7.405 8.558-29.68Zm0 0"/><path fill="#a86151" d="m211.176 316.375-1.078-4.77 41.562-7.406Zm0 0"/><path fill="#2e222f" d="m125.277 152.082-24.164 6.328 24.512-20.687Zm0 0"/><path fill="#665a48" d="m105.578 179.762 1.48 9.43-18.304 3.34Zm0 0"/><path fill="#f1eb8a" d="m105.578 179.762 13.078-.508-11.597 9.937Zm0 0"/><path fill="#f1ea8a" d="m123.742 196.766-5.086-17.512 17.485-2.492Zm0 0"/><path fill="#efea8a" d="M154.906 189.926 169.77 168.8l11.82 14.652Zm0 0"/><path fill="#efe789" d="m117.852 301.832 22.378 6.066-21.101 6.122Zm0 0"/><path fill="#ebe387" d="m140.23 307.898-22.378-6.066 17.746-5.266Zm0 0"/><path fill="#322630" d="m148.02 292.398 8.011-7.77 15.785 16.849Zm0 0"/><path fill="#ede689" d="m140.23 307.898 7.79-15.5 23.796 9.079Zm0 0"/><path fill="#f1eb8a" d="m66.387 267.328 19.191 10.531-4.043 14.098ZM55.559 291.516l10.828-24.188 15.148 24.629ZM66.387 267.328l-10.828 24.188-8.32-10.559Zm0 0"/><path fill="#30242f" d="m85.578 277.86-19.191-10.532 20.144 3.985Zm0 0"/><path fill="#f1eb8a" d="m343.867 144.95 10.695-4.247 5.172 15.57ZM343.867 144.95l11.445 15.91-12.523-3.16Zm0 0"/><path fill="#f1eb8a" d="m355.313 160.86-11.446-15.91 15.867 11.323ZM354.563 140.703l-10.696 4.246 5.102-11.547Zm0 0"/><path fill="#2e222f" d="m354.07 171.11-21.242 2.449 9.961-15.86Zm0 0"/><path fill="#f1eb8a" d="m332.828 173.559 21.242-2.45-20.16 8.66Zm0 0"/><path fill="#2e222f" d="m332.828 173.559.66-22.008 9.301 6.148Zm0 0"/><path fill="#f0e98a" d="m269.84 167.465-2.024 17.59-13.101-16.106Zm0 0"/><path fill="#f1eb8a" d="m289.457 173.25-21.64 11.805 2.023-17.59Zm0 0"/><path fill="#cdba79" d="m267.816 185.055 21.641-11.805-2.531 19.25Zm0 0"/><path fill="#f1eb8a" d="m280.836 140.324-22.36-4.68 19.118-7.78ZM280.836 140.324l.766 10.852-21.817 9.035Zm0 0"/><path fill="#f1eb8a" d="m258.477 135.645 22.359 4.68-21.05 19.886Zm0 0"/><path fill="#973d40" d="m300.305 250.844-16.723-13.45-.887-17.28Zm0 0"/><path fill="#30232f" d="m311.172 246.707-10.867 4.137-17.61-30.73Zm0 0"/><path fill="#983e41" d="m323.45 276.629-12.278-29.922 14.668 15.684Zm0 0"/><path fill="#953e41" d="m300.305 250.844 23.144 25.785-22.875-12.637Zm0 0"/><path fill="#2e222f" d="m323.45 276.629-23.145-25.785 10.867-4.137Zm0 0"/><path fill="#eae488" d="m311.172 246.707 8.855-15.738 8.5 17.773Zm0 0"/><path fill="#f1eb8a" d="m320.027 230.969 21.883 11.23-13.383 6.543Zm0 0"/><path fill="#9e5850" d="m210.098 311.605-9.735 6.555-28.547-16.683Zm0 0"/><path fill="#ece589" d="m187.68 275.844 22.418 35.761-38.282-10.128Zm0 0"/><path fill="#e5df88" d="m200.363 318.16 9.735-6.555 1.078 4.77Zm0 0"/><path fill="#eee78a" d="m210.098 311.605-22.418-35.761 30.976 6.082Zm0 0"/><path fill="#f0e98a" d="m152.188 167.297 2.718 22.629-18.765-13.164Zm0 0"/><path fill="#f1eb8a" d="m169.77 168.8-14.864 21.126-2.719-22.63Zm0 0"/><path fill="#f0ea8a" d="m154.906 189.926-31.164 6.84 12.399-20.004Zm0 0"/><path fill="#f0ea8a" d="m123.742 196.766 31.164-6.84-33.683 28.531Zm0 0"/><path fill="#2e222f" d="m102.555 337.797 16.574-23.777 20.531 33.148Zm0 0"/><path fill="#2f232f" d="m142.484 284.297-6.132-12.969 14.566 4.383Zm0 0"/><path fill="#2e222f" d="m156.031 284.629-13.547-.332 8.434-8.586Zm0 0"/><path fill="#2f222f" d="m148.02 292.398-5.536-8.101 13.547.332Zm0 0"/><path fill="#2e222f" d="m115.145 167.973-14.032-9.563 24.164-6.328Zm0 0"/><path fill="#f1eb8a" d="m125.313 167.98-.036-15.898 11.446.156Zm0 0"/><path fill="#f1eb8a" d="m136.14 176.762-10.827-8.782 11.41-15.742Zm0 0"/><path fill="#f1eb8a" d="m125.313 167.98-10.168-.007 10.132-15.891ZM115.145 167.973l10.168.007-6.657 11.274Zm0 0"/><path fill="#f0e788" d="m125.313 167.98 10.828 8.782-17.485 2.492Zm0 0"/><path fill="#2e222f" d="m119.129 314.02 20.39 2.62.141 30.528ZM139.52 316.64l25.644 3.087-25.504 27.441Zm0 0"/><path fill="#e4df89" d="m139.52 316.64.71-8.742 24.934 11.829Zm0 0"/><path fill="#eee789" d="m139.52 316.64-20.391-2.62 21.101-6.122Zm0 0"/><path fill="#eae388" d="m148.02 292.398-7.79 15.5-4.632-11.332Zm0 0"/><path fill="#2e222f" d="m148.02 292.398-12.422 4.168 6.886-12.27Zm0 0"/><path fill="#2f222f" d="m115.145 167.973-9.567 11.789-4.465-21.352Zm0 0"/><path fill="#2f222f" d="m101.113 158.41 4.465 21.352-22.113-4.574Zm0 0"/><path fill="#f1eb8a" d="m105.578 179.762 9.567-11.79 3.511 11.282Zm0 0"/></svg>