<svg xmlns="http://www.w3.org/2000/svg" width="512" height="512" viewBox="0 0 384 384"><path fill="#202215" d="M369.523 345.969 384 384h-64.73Zm0 0"/><path fill="#ded684" d="m254.277 282.57-1.293-23.004 24.602 16.696Zm0 0"/><path fill="#ded684" d="m252.984 259.566 1.293 23.004-26.726-4.437Zm0 0"/><path fill="#202215" d="m-.004 242.055 19.871.886-9.023 14.25ZM299.832 38.816l4.781 30.371-76.191-26.66ZM219.137 79.809l85.476-10.621-.465 15.007ZM304.613 69.188l-85.476 10.62 9.285-37.28ZM254.684 112.703 219.137 79.81l85.011 4.386Zm0 0"/><path fill="#ded684" d="m272.426 251.566 5.16 24.696-24.602-16.696Zm0 0"/><path fill="#ded684" d="m259.848 235.395 12.578 16.171-19.442 8ZM231.04 249.691l21.944 9.875-25.433 18.567Zm0 0"/><path fill="#202215" d="m384 227.227-19.102-25.97 19.106-29.757ZM364.898 201.258 384 227.227l-28.523-2.707Zm0 0"/><path fill="#963c3c" d="M148.324 0 62.38 16.832 62.707 0Zm0 0"/><path fill="#202215" d="M0 97.195 62.852 40.06 52.703 110.66ZM147.027 119.434l-44.859-15.012 44.863-25.172Zm0 0"/><path fill="#202215" d="m125.594 137.52-23.426-33.098 44.86 15.012Zm0 0"/><path fill="#202215" d="m102.168 104.422 23.426 33.098-28.524.628ZM142.09 230.848l16.176 4.218-5.23 7.496ZM0 298.266l-.004-56.211 10.848 15.136ZM0 159.902l27.668-22.89 2.59 19.758Zm0 0"/><path fill="#ded684" d="m14.629 185.332-.34-17.816L35.5 187.992Zm0 0"/><path fill="#202215" d="M74.176 131.637 50.133 148.84l2.57-38.18Zm0 0"/><path fill="#943b3b" d="m318.73 0-18.898 38.816-68.203-19.906Zm0 0"/><path fill="#202215" d="m254.684 112.703-27.079 14.004-8.468-46.898Zm0 0"/><path fill="#202215" d="m247.855 131.938-20.25-5.231 27.079-14.004ZM227.605 126.707l-37.972-10.766 29.504-36.132Zm0 0"/><path fill="#202215" d="m247.855 131.938-1.468 17.367-18.782-22.598Zm0 0"/><path fill="#202215" d="m246.387 149.305-16.832 4.98-1.95-27.578ZM89.098 327.527l9.5 56.473-51.903-53.602Zm0 0"/><path fill="#202215" d="M46.695 330.398 79 304.707l10.098 22.82ZM46.695 330.398 98.598 384H0Zm0 0"/><path fill="#ded684" d="m259.848 235.395-10.72-8.649 19.415-16.996Zm0 0"/><path fill="#202215" d="m274.664 212.086-14.816 23.309 8.695-25.645ZM384 227.227l-19.64 26.757-8.883-29.464ZM269.297 351.355l-24.723 4.77 24.953-18.25Zm0 0"/><path fill="#963c3c" d="M62.379 16.832 0 0h62.707Zm0 0"/><path fill="#953b3b" d="m0 0 62.379 16.832L-.004 41.391Zm0 0"/><path fill="#202215" d="M102.168 104.422 62.852 40.059l84.18 39.191Zm0 0"/><path fill="#202215" d="m62.852 40.059 39.316 64.363-49.465 6.238ZM102.168 104.422l-27.992 27.215-21.473-20.977ZM62.852 40.059l67.386-.329 16.793 39.52Zm0 0"/><path fill="#923b3a" d="m130.238 39.73-67.386.329-.473-23.227Zm0 0"/><path fill="#202215" d="m147.031 79.25-16.793-39.52 49.254 2.528Zm0 0"/><path fill="#953b3b" d="M179.492 42.258 148.324 0l51.684 15.078Zm0 0"/><path fill="#963c3c" d="m148.324 0-18.086 39.73-67.86-22.898Zm0 0"/><path fill="#943b3b" d="M130.238 39.73 148.324 0l31.168 42.258Zm0 0"/><path fill="#202215" d="m147.031 79.25 42.602 36.691-42.606 3.493Zm0 0"/><path fill="#ded684" d="m142.09 230.848 20.676-20.438-4.5 24.656ZM162.766 210.41l-27.121.75 11.14-31.062ZM162.766 210.41l-20.676 20.438-6.445-19.688ZM130.508 251.828l-19.457 24.41-16.09-23.68Zm0 0"/><path fill="#ded684" d="m111.05 276.238 19.458-24.41 8.664 19.004Zm0 0"/><path fill="#5d5c38" d="m48.453 240.52-5.176 17.968-16.937-14.324Zm0 0"/><path fill="#202215" d="M27.668 137.012 0 97.195l52.703 13.465ZM50.133 148.84l-22.465-11.828 25.035-26.352Zm0 0"/><path fill="#beb872" d="m26.34 244.164 8.164-28.082 13.95 24.438Zm0 0"/><path fill="#ded684" d="m34.504 216.082-8.164 28.082-6.473-1.223Zm0 0"/><path fill="#202215" d="m34.504 216.082-19.875-30.75 20.871 2.66Zm0 0"/><path fill="#202215" d="m51.383 203.523-16.88 12.559.997-28.09ZM19.867 242.941l4.496 25.29-13.52-11.04Zm0 0"/><path fill="#222316" d="m31.82 164.695-17.53 2.82 15.968-10.745Zm0 0"/><path fill="#dcd583" d="m14.29 167.516 17.53-2.82 3.68 23.296Zm0 0"/><path fill="#202215" d="m66.89 145.934-8.222 13.105-8.535-10.2Zm0 0"/><path fill="#202215" d="m74.176 131.637-7.285 14.297-16.758 2.906ZM0 97.195l27.668 39.817L0 159.902ZM353.965 113.035 384 81.148v54.258Zm0 0"/><path fill="#202215" d="M304.148 84.195 384 81.148l-30.035 31.887Zm0 0"/><path fill="#202215" d="m384 81.148-79.852 3.047.465-15.007ZM384.004 171.5l-9.27-13.719L384 135.406Zm0 0"/><path fill="#953b3b" d="m231.629 18.91 68.203 19.906-71.41 3.711Zm0 0"/><path fill="#963c3c" d="M318.73 0 231.63 18.91 216.48 0Zm0 0"/><path fill="#953b3b" d="m213.098 23.29 18.53-4.38-3.206 23.617Zm0 0"/><path fill="#953c3b" d="m231.629 18.91-18.531 4.38L216.48 0Zm0 0"/><path fill="#202215" d="m384 81.148-46.586-44.976 46.59-1.375Zm0 0"/><path fill="#202215" d="M337.414 36.172 384 81.148l-79.387-11.96Zm0 0"/><path fill="#953b3b" d="m318.73 0 18.684 36.172-37.582 2.644Zm0 0"/><path fill="#202215" d="m337.414 36.172-32.8 33.016-4.782-30.372ZM229.555 154.285l-21.485-12.324 19.535-15.254Zm0 0"/><path fill="#202215" d="m208.07 141.96 21.485 12.325-20.243 1.04Zm0 0"/><path fill="#202215" d="m198.75 152.55 9.32-10.59 1.243 13.364ZM0 384v-85.734l46.695 32.132Zm0 0"/><path fill="#ded684" d="m35.707 285.223-4.437-20.078 10.925 17.789Zm0 0"/><path fill="#202215" d="m347.453 204.074 17.445-2.816-9.421 23.262ZM348.906 240.137l6.57-15.617 8.883 29.464ZM259.848 235.395l19.293 9.02-6.715 7.151Zm0 0"/><path fill="#ded684" d="M259.848 235.395 245 240.68l4.129-13.934Zm0 0"/><path fill="#ded584" d="M232.16 230.777 245 240.68l-13.96 9.011Zm0 0"/><path fill="#ded684" d="M231.04 249.691 245 240.68l7.984 18.886ZM245 240.68l-12.84-9.903 16.969-4.03Zm0 0"/><path fill="#ded684" d="m245 240.68 14.848-5.285-6.864 24.171Zm0 0"/><path fill="#202215" d="m283.39 230.3-23.542 5.095 14.816-23.31Zm0 0"/><path fill="#202215" d="m283.39 230.3-4.25 14.114-19.292-9.02ZM364.36 253.984 384 227.227v112.578ZM245.953 372.598 201.824 384l42.75-27.875Zm0 0"/><path fill="#ded684" d="m269.297 351.355-23.344 21.243-1.379-16.473Zm0 0"/><path fill="#202215" d="m208.254 341.406 36.422-28-.102 42.719Zm0 0"/><path fill="#ded684" d="m254.277 282.57-8.191 25.578-18.535-30.015Zm0 0"/><path fill="#903a3a" d="m347.363 296.094-24.925 2.144 12.75-22.922Zm0 0"/><path fill="#202215" d="m322.438 298.238-28.793 12.66 19.41-22.421ZM293.402 348.98l-24.105 2.375.23-13.48ZM-.004 41.39l62.856-1.331L0 97.195Zm0 0"/><path fill="#953b3b" d="M62.852 40.059-.004 41.39 62.38 16.832Zm0 0"/><path fill="#963c3c" d="m216.48 0-16.472 15.078L148.324 0Zm0 0"/><path fill="#953b3b" d="m213.098 23.29 15.324 19.237-48.93-.27Zm0 0"/><path fill="#953b3b" d="m200.008 15.078 13.09 8.211-33.606 18.969Zm0 0"/><path fill="#963c3c" d="m213.098 23.29-13.09-8.212L216.48 0Zm0 0"/><path fill="#202215" d="m219.137 79.809-72.106-.559 32.461-36.992ZM219.137 79.809l-29.504 36.132L147.03 79.25Zm0 0"/><path fill="#202215" d="m228.422 42.527-9.285 37.282-39.645-37.551Zm0 0"/><path fill="#ded584" d="m182.555 172.125-19.79 38.285-15.98-30.312Zm0 0"/><path fill="#ded684" d="m162.766 210.41 19.789-38.285 4.511 37.277Zm0 0"/><path fill="#202215" d="m161.871 245.578-8.836-3.016 5.23-7.496ZM98.598 384l68.64-33.223L201.824 384ZM189.305 319.758l18.949 21.648-41.016 9.371Zm0 0"/><path fill="#ded684" d="m135.645 211.16 6.445 19.688-26.98-1.57Zm0 0"/><path fill="#ded684" d="m115.11 229.277 15.398 22.551-35.547.73ZM213.3 222.34l-22.87 10.219-3.364-23.157Zm0 0"/><path fill="#6d6b42" d="m34.504 216.082 19.637.352-5.688 24.086Zm0 0"/><path fill="#c8c177" d="m51.383 203.523 2.758 12.91-19.637-.351Zm0 0"/><path fill="#ded684" d="m106.387 179.426-19.211 18.281-3.403-9.46Zm0 0"/><path fill="#938555" d="m83.773 188.246-18.64 19.324-13.75-4.047Zm0 0"/><path fill="#413f27" d="m65.133 207.57-10.992 8.864-2.758-12.91Zm0 0"/><path fill="#ded684" d="m58.668 159.04-28.41-2.27 19.875-7.93Zm0 0"/><path fill="#202215" d="m30.258 156.77-2.59-19.758 22.465 11.828Zm0 0"/><path fill="#ddd584" d="m31.82 164.695-1.562-7.925 28.41 2.27Zm0 0"/><path fill="#202215" d="m0 159.902 14.29 7.614.339 17.816Zm0 0"/><path fill="#202215" d="M14.29 167.516 0 159.902l30.258-3.132ZM10.555 227.992l23.949-11.91-14.637 26.86Zm0 0"/><path fill="#202215" d="m10.555 227.992 9.312 14.95-19.87-.887ZM34.504 216.082l-23.95 11.91 4.075-42.66Zm0 0"/><path fill="#202215" d="M10.555 227.992-.004 242.055 0 159.902Zm0 0"/><path fill="#202215" d="m14.629 185.332-4.074 42.66L0 159.902Zm0 0"/><path fill="#ded684" d="M31.27 265.145 19.867 242.94l6.473 1.223ZM31.27 265.145l-6.907 3.085-4.496-25.289Zm0 0"/><path fill="#767347" d="m43.277 258.488-12.007 6.657-4.93-20.98Zm0 0"/><path fill="#ded684" d="m71.488 191.313 12.285-3.067-32.39 15.277Zm0 0"/><path fill="#cfb876" d="m71.227 170.324 14.09-19.902.706 21.332Zm0 0"/><path fill="#222416" d="m71.7 148.18-4.81-2.246 7.286-14.297Zm0 0"/><path fill="#ded684" d="m71.227 170.324.472-22.144 13.617 2.242Zm0 0"/><path fill="#202215" d="m366.234 141.418-12.27-28.383L384 135.406Zm0 0"/><path fill="#ded684" d="m369.125 160.488-4.68 7.84-2.328-9.11Zm0 0"/><path fill="#202215" d="m372.117 171.168 11.887.332-19.106 29.758Zm0 0"/><path fill="#ded684" d="m364.445 168.328-6.218-1.027 3.89-8.082Zm0 0"/><path fill="#953b3b" d="M355.707 17.516 318.73 0H384Zm0 0"/><path fill="#953c3b" d="m355.707 17.516-18.293 18.656L318.73 0Zm0 0"/><path fill="#202215" d="m229.555 154.285-5.184 16.988-15.059-15.949Zm0 0"/><path fill="#ded684" d="m44.71 293.398-9.003-8.175 6.488-2.29Zm0 0"/><path fill="#202215" d="m329.676 217.91 17.777-13.836 8.024 20.446Zm0 0"/><path fill="#ded684" d="m249.129 226.746-5.316-26.887 24.73 9.891Zm0 0"/><path fill="#ded684" d="m232.16 230.777 11.653-30.918 5.316 26.887Zm0 0"/><path fill="#dcd383" d="m204.031 190.965 9.27 31.375-26.235-12.938Zm0 0"/><path fill="#ded684" d="m182.555 172.125 21.476 18.84-16.965 18.437Zm0 0"/><path fill="#202215" d="m279.14 244.414 4.25-14.113 9.282 17.265ZM284.355 255.543l-6.77 20.719-5.16-24.696ZM279.14 244.414l5.215 11.129-11.93-3.977ZM347.363 296.094l-12.175-20.778 29.171-21.332ZM245.953 372.598l19.59 11.414-63.719-.012ZM208.254 341.406l36.32 14.719L201.824 384Zm0 0"/><path fill="#202215" d="m167.238 350.777 41.016-9.37-6.43 42.593Zm0 0"/><path fill="#ded684" d="m227.55 278.133-15.734-20.363 19.223-8.079Zm0 0"/><path fill="#953b3b" d="m322.438 298.238-9.383-9.761 22.132-13.16ZM335.188 275.316l-22.133 13.16 3.039-19.699Zm0 0"/><path fill="#ded684" d="m266.406 293.473-12.129-10.903 23.309-6.308Zm0 0"/><path fill="#ded684" d="m254.277 282.57 12.13 10.903-20.321 14.675Zm0 0"/><path fill="#c3a66c" d="m266.406 293.473 1.875 14.984-22.195-.309Zm0 0"/><path fill="#202215" d="m268.281 308.457 25.364 2.441-11.54 15.079ZM282.105 325.977l11.54-15.079 15.332 22.086Zm0 0"/><path fill="#202215" d="m261.098 322.016 21.007 3.96-12.578 11.899Zm0 0"/><path fill="#202215" d="m261.098 322.016 7.183-13.559 13.824 17.52Zm0 0"/><path fill="#202215" d="m244.574 356.125 16.524-34.11 8.43 15.86Zm0 0"/><path fill="#202215" d="m244.676 313.406 16.422 8.61-16.524 34.109Zm0 0"/><path fill="#212215" d="m261.098 322.016-16.422-8.61 1.41-5.258Zm0 0"/><path fill="#212215" d="m268.281 308.457-7.183 13.559-15.012-13.868ZM369.523 345.969 384 339.805V384Zm0 0"/><path fill="#953b3b" d="m384 339.805-25.36-7.61-11.277-36.101Zm0 0"/><path fill="#953b3b" d="m358.64 332.195 25.36 7.61-14.477 6.164Zm0 0"/><path fill="#202215" d="m339.918 338.668 29.605 7.3-58.453 22.927ZM319.27 384l-32.31.023 24.11-15.128Zm0 0"/><path fill="#202215" d="M369.523 345.969 319.27 384l-8.2-15.105ZM293.402 348.98l-19.406 14.704-4.7-12.329Zm0 0"/><path fill="#ded684" d="m273.996 363.684-28.043 8.914 23.344-21.243ZM273.996 363.684l-8.453 20.328-19.59-11.414Zm0 0"/><path fill="#202215" d="m282.105 325.977 11.297 23.003-23.875-11.105Zm0 0"/><path fill="#202215" d="m293.402 348.98-11.297-23.003 26.872 7.007Zm0 0"/><path fill="#202215" d="m311.07 368.895-17.668-19.915 15.575-15.996ZM273.996 363.684l12.965 20.34-21.418-.012Zm0 0"/><path fill="#ddd584" d="m286.96 384.023-12.964-20.34 19.406-14.703Zm0 0"/><path fill="#202215" d="m145.14 144.363-19.546-6.843 21.433-18.086Zm0 0"/><path fill="#202215" d="m125.594 137.52 19.547 6.843-5.926 7.399ZM192.73 146.273l15.34-4.312-9.32 10.59Zm0 0"/><path fill="#8f3b3a" d="m213.3 222.34-9.01 17.351-13.86-7.132Zm0 0"/><path fill="#202215" d="m98.598 384 27.652-49.598 40.988 16.375ZM208.254 341.406l-18.95-21.648 18.016-3.598Zm0 0"/><path fill="#202215" d="M126.25 334.402 98.598 384l-9.5-56.473ZM79 304.707l23.3 3.617-13.202 19.203Zm0 0"/><path fill="#ddd584" d="m113.8 285.637-17.23-3.14 14.48-6.259Zm0 0"/><path fill="#ded684" d="m84.234 226 30.875 3.277-20.148 23.282ZM190.43 232.559l-16.2 1.207 12.836-24.364Zm0 0"/><path fill="#202215" d="m174.23 233.766-12.359 11.812-3.605-10.512Zm0 0"/><path fill="#ded684" d="m162.766 210.41 11.464 23.356-15.964 1.3Zm0 0"/><path fill="#ded684" d="m174.23 233.766-11.464-23.356 24.3-1.008Zm0 0"/><path fill="#202215" d="m0 298.266 24.363-30.036 4.575 25.813Zm0 0"/><path fill="#202215" d="m10.844 257.191 13.52 11.04L0 298.265Zm0 0"/><path fill="#ded684" d="M35.707 285.223 24.363 268.23l6.907-3.085Zm0 0"/><path fill="#2d2f1d" d="m28.938 294.043-4.575-25.813 11.344 16.993Zm0 0"/><path fill="#222416" d="m56.938 258.36-13.66.128 5.175-17.968Zm0 0"/><path fill="#c8a96f" d="m79 304.707 2.668-12.668 20.633 16.285Zm0 0"/><path fill="#ded684" d="m81.668 292.04 14.902-9.544 5.73 25.828ZM54.14 216.434l11.133 10.714-16.82 13.372ZM65.273 227.148l-11.132-10.714 10.992-8.864ZM115.11 229.277l-3.555-17.152 24.09-.965Zm0 0"/><path fill="#ded484" d="m87.176 197.707 24.379 14.418-22.903 4.406Zm0 0"/><path fill="#98403e" d="m87.176 197.707 18.668-8.89 5.71 23.308Zm0 0"/><path fill="#ded684" d="m105.844 188.816-18.668 8.891 19.21-18.281ZM65.133 207.57l22.043-9.863 1.476 18.824Zm0 0"/><path fill="#ded684" d="m87.176 197.707-22.043 9.863 18.64-19.324Zm0 0"/><path fill="#949059" d="M58.668 159.04 35.5 187.991l-3.68-23.297Zm0 0"/><path fill="#202215" d="m35.5 187.992 23.168-28.953 12.559 11.285ZM35.5 187.992l35.988 3.32-20.105 12.211Zm0 0"/><path fill="#202215" d="m71.488 191.313-35.988-3.32 35.727-17.669Zm0 0"/><path fill="#202215" d="m78.082 180.969-6.855-10.645 14.796 1.43ZM83.773 188.246l-5.691-7.277 7.941-9.215Zm0 0"/><path fill="#202215" d="m78.082 180.969-6.594 10.344-.261-20.989Zm0 0"/><path fill="#202215" d="m78.082 180.969 5.691 7.277-12.285 3.066ZM71.7 148.18l-13.032 10.86 8.223-13.106Zm0 0"/><path fill="#ded684" d="m58.668 159.04 13.031-10.86-.472 22.144Zm0 0"/><path fill="#202215" d="m74.176 131.637 27.992-27.215-5.098 33.726ZM71.7 148.18l2.476-16.543 11.14 18.785ZM366.234 141.418l-20.66-9.629 8.39-18.754Zm0 0"/><path fill="#202215" d="m316.031 125.367-11.883-41.172 49.817 28.84ZM372.117 171.168l2.617-13.387 9.27 13.719Zm0 0"/><path fill="#202215" d="m372.117 171.168-2.992-10.68 5.61-2.707Zm0 0"/><path fill="#202215" d="m369.125 160.488 2.992 10.68-7.672-2.84Zm0 0"/><path fill="#202215" d="m348.516 188.277 23.601-17.109-7.219 30.09Zm0 0"/><path fill="#212315" d="m372.117 171.168-23.601 17.11 15.93-19.95Zm0 0"/><path fill="#202215" d="m243.563 166.09-14.008-11.805 16.832-4.98Zm0 0"/><path fill="#953b3b" d="m337.414 36.172 18.293-18.656 28.297 17.28Zm0 0"/><path fill="#953b3b" d="M355.707 17.516 384 0l.004 34.797Zm0 0"/><path fill="#202215" d="m28.938 294.043 15.773-.645 1.984 37Zm0 0"/><path fill="#222316" d="m44.71 293.398-15.772.645 6.769-8.82Zm0 0"/><path fill="#202215" d="m0 298.266 28.938-4.223 17.757 36.355ZM335.188 275.316l7.671-27.636 21.5 6.304Zm0 0"/><path fill="#202215" d="m342.86 247.68 6.046-7.543 15.453 13.847ZM348.906 240.137l-9.004-4.727 15.575-10.89ZM339.902 235.41l-10.226-17.5 25.8 6.61Zm0 0"/><path fill="#252417" d="m342.86 247.68-2.958-12.27 9.004 4.727Zm0 0"/><path fill="#ded684" d="m339.902 235.41 2.957 12.27-8.336-3.36ZM243.813 199.86l19.683-15.485 5.047 25.375ZM229.813 199.71l14 .15-11.653 30.917Zm0 0"/><path fill="#d0c87c" d="m213.3 222.34 16.512-22.63 2.348 31.067Zm0 0"/><path fill="#ded684" d="m204.031 190.965 25.781 8.746-16.511 22.629ZM200.32 168.441l-9.027-13.117 7.457-2.773ZM200.32 168.441l-1.57-15.89 10.563 2.773ZM224.371 171.273l-24.05-2.832 8.992-13.117Zm0 0"/><path fill="#ded484" d="m191.293 155.324 9.027 13.117-17.765 3.684Zm0 0"/><path fill="#ded684" d="m339.902 235.41-15.097-8.82 4.87-8.68Zm0 0"/><path fill="#943b3b" d="m283.39 230.3 19.462.532-10.18 16.734Zm0 0"/><path fill="#ded684" d="m324.805 226.59-21.953 4.242 3.035-20.434Zm0 0"/><path fill="#963d3c" d="m276.668 194.742-2.004 17.344-6.121-2.336Zm0 0"/><path fill="#973f3d" d="m263.496 184.375 13.172 10.367-8.125 15.008Zm0 0"/><path fill="#ded684" d="m305.887 210.398 23.789 7.512-4.871 8.68Zm0 0"/><path fill="#ded684" d="m311.14 203.004 18.536 14.906-23.79-7.512Zm0 0"/><path fill="#202215" d="m329.676 217.91-18.535-14.906 26.343-6.828Zm0 0"/><path fill="#963c3c" d="m313.055 288.477-8.25-15.989 11.289-3.71Zm0 0"/><path fill="#ddd583" d="m304.805 272.488 8.25 15.989-35.47-12.215Zm0 0"/><path fill="#202215" d="m284.355 255.543 20.45 16.945-27.22 3.774Zm0 0"/><path fill="#ded684" d="m207.32 316.16 38.766-8.012-1.41 5.258Zm0 0"/><path fill="#202215" d="m208.254 341.406-.934-25.246 37.356-2.754Zm0 0"/><path fill="#ded684" d="m189.305 319.758 15.093-8.973 2.922 5.375Zm0 0"/><path fill="#202215" d="m293.645 310.898-6.118-12.293 25.528-10.128Zm0 0"/><path fill="#d6ce7f" d="m287.527 298.605-9.941-22.343 35.469 12.215Zm0 0"/><path fill="#272718" d="m287.527 298.605-21.12-5.132 11.179-17.211Zm0 0"/><path fill="#d6c97e" d="m266.406 293.473 21.121 5.132-19.246 9.852Zm0 0"/><path fill="#212215" d="m287.527 298.605 6.118 12.293-25.364-2.441Zm0 0"/><path fill="#202215" d="m384 339.805-36.637-43.711 16.996-42.11ZM308.977 332.984l30.941 5.684-28.848 30.227ZM308.977 332.984l-15.332-22.086 28.793-12.66Zm0 0"/><path fill="#202215" d="m339.918 338.668-30.941-5.684 13.46-34.746Zm0 0"/><path fill="#ded684" d="m286.96 384.023 6.442-35.043 17.668 19.915Zm0 0"/><path fill="#202215" d="m168.531 142.973-23.39 1.39 1.886-24.93Zm0 0"/><path fill="#202215" d="m189.633 115.941-21.102 27.032-21.504-23.54ZM126.809 152.375l-1.215-14.855 13.62 14.242Zm0 0"/><path fill="#ded684" d="m145.14 144.363 6.704 11.43-12.63-4.031Zm0 0"/><path fill="#ded684" d="m151.844 155.793-5.059 24.305-7.57-28.336ZM168.531 142.973l-16.687 12.82-6.703-11.43ZM191.293 155.324l1.437-9.05 6.02 6.277Zm0 0"/><path fill="#ded684" d="m168.531 142.973 24.2 3.3-1.438 9.051Zm0 0"/><path fill="#202215" d="m192.73 146.273-24.199-3.3 21.102-27.032Zm0 0"/><path fill="#923b3a" d="m217.277 241.754-12.988-2.063 9.012-17.351Zm0 0"/><path fill="#ded584" d="m217.277 241.754 13.762 7.937-19.223 8.079Zm0 0"/><path fill="#903c3a" d="m232.16 230.777-14.883 10.977-3.976-19.414Zm0 0"/><path fill="#39281d" d="m231.04 249.691-13.763-7.937 14.883-10.977Zm0 0"/><path fill="#ded684" d="m130.508 251.828 11.582-20.98 10.945 11.714ZM130.508 251.828l-15.399-22.55 26.98 1.57Zm0 0"/><path fill="#202215" d="m126.25 334.402 24.402-15.664 16.586 32.04Zm0 0"/><path fill="#ded584" d="m189.305 319.758-38.653-1.02 20.86-17.457Zm0 0"/><path fill="#202215" d="m150.652 318.738 38.653 1.02-22.067 31.02ZM103.645 310.766l22.605 23.636-37.152-6.875Zm0 0"/><path fill="#202215" d="m102.3 308.324 1.345 2.442-14.547 16.761Zm0 0"/><path fill="#ded684" d="m65.273 227.148 4.223 17.602-21.043-4.23ZM69.496 244.75l-12.558 13.61-8.485-17.84ZM56.938 258.36l12.558-13.61-.172 22.21Zm0 0"/><path fill="#ded684" d="m94.96 252.559-25.464-7.809L84.234 226Zm0 0"/><path fill="#ded684" d="m69.496 244.75 25.465 7.809-25.637 14.402Zm0 0"/><path fill="#9e9a5f" d="m46.156 281.414-14.886-16.27 12.007-6.656Zm0 0"/><path fill="#2a2b1b" d="m56.938 258.36-10.782 23.054-2.879-22.926Zm0 0"/><path fill="#ded684" d="m31.27 265.145 14.886 16.27-3.96 1.519Zm0 0"/><path fill="#ded684" d="m46.156 281.414-1.445 11.984-2.516-10.464Zm0 0"/><path fill="#202215" d="m81.668 292.04 9.508-17.755 5.394 8.211Zm0 0"/><path fill="#ded684" d="m84.234 226-18.96 1.148-.141-19.578Zm0 0"/><path fill="#ded684" d="m84.234 226-19.101-18.43 23.52 8.961Zm0 0"/><path fill="#ded684" d="m88.652 216.531 22.903-4.406 3.554 17.152ZM84.234 226l4.418-9.469 26.457 12.746ZM105.844 188.816l16.558-2-10.847 25.309ZM122.402 186.816l13.243 24.344-24.09.965ZM366.234 141.418l2.891 19.07-7.008-1.27ZM369.125 160.488l-2.89-19.07 8.5 16.363Zm0 0"/><path fill="#202215" d="m374.734 157.781-8.5-16.363L384 135.406Zm0 0"/><path fill="#ded684" d="m323.254 150.57 1.613-9.66 21.91 14.617Zm0 0"/><path fill="#202215" d="m345.574 131.79-29.543-6.423 37.934-12.332Zm0 0"/><path fill="#ded684" d="m324.867 140.91-8.836-15.543 29.543 6.422ZM274.04 167.504l-3.712 7.172-8.293-12.422ZM271.113 143.879l27.746-2.762-25.777 11.293Zm0 0"/><path fill="#ded684" d="m298.86 141.117 1.812 6.73-27.59 4.563Zm0 0"/><path fill="#202215" d="m288.582 126.762-33.898-14.059 49.464-28.508Zm0 0"/><path fill="#202215" d="m316.031 125.367-27.449 1.395 15.566-42.567Zm0 0"/><path fill="#ded684" d="m298.86 141.117-10.278-14.355 27.45-1.395ZM271.113 143.879l17.469-17.117 10.277 14.355Zm0 0"/><path fill="#202215" d="m254.922 165.422-11.36.668 2.825-16.785Zm0 0"/><path fill="#ded684" d="m259.012 150.898-4.09 14.524-8.535-16.117ZM254.922 165.422l4.09-14.524 3.023 11.356Zm0 0"/><path fill="#202215" d="m235.98 173.18-11.609-1.907 5.184-16.988Zm0 0"/><path fill="#202215" d="m243.563 166.09-7.583 7.09-6.425-18.895Zm0 0"/><path fill="#ded684" d="m235.98 173.18 7.833 26.68-14-.15Zm0 0"/><path fill="#953d3c" d="m224.371 171.273 11.61 1.907-6.168 26.53Zm0 0"/><path fill="#ded684" d="m270.328 174.676-15.406-9.254 7.113-3.168ZM322.164 257.61l20.695-9.93-7.671 27.636Zm0 0"/><path fill="#953c3c" d="m322.164 257.61 13.024 17.706-19.094-6.539Zm0 0"/><path fill="#ded684" d="m342.86 247.68-20.696 9.93 12.36-13.29ZM263.496 184.375l-8.574-18.953 15.406 9.254Zm0 0"/><path fill="#973e3d" d="m286.098 209.2 16.754 21.632-19.461-.531Zm0 0"/><path fill="#953d3c" d="m286.098 209.2-2.707 21.1-8.727-18.214Zm0 0"/><path fill="#dacc80" d="m302.852 230.832-16.754-21.633 19.789 1.2Zm0 0"/><path fill="#973f3d" d="m276.668 194.742 9.43 14.457-11.434 2.887Zm0 0"/><path fill="#cbad71" d="m286.098 209.2-9.43-14.458 9.562-5.926Zm0 0"/><path fill="#ded684" d="m276.668 194.742-.75-11.898 10.312 5.972Zm0 0"/><path fill="#ded684" d="m275.918 182.844.75 11.898-13.172-10.367ZM311.14 203.004l5.876-26.535 20.468 19.707Zm0 0"/><path fill="#2a2418" d="m337.55 172.547-24.82-10.262 10.524-11.715Zm0 0"/><path fill="#99433f" d="m312.73 162.285-12.058-14.437 22.582 2.722Zm0 0"/><path fill="#963d3c" d="m300.672 147.848 12.058 14.437-22.921.125Zm0 0"/><path fill="#2e2519" d="m289.809 162.41 22.921-.125-13.418 11.695Zm0 0"/><path fill="#222215" d="m312.73 162.285 4.286 14.184-17.704-2.489Zm0 0"/><path fill="#202215" d="m317.016 176.469-4.286-14.184 24.82 10.262Zm0 0"/><path fill="#ded684" d="m301.281 197.887 9.86 5.117-5.254 7.394Zm0 0"/><path fill="#ded684" d="m286.098 209.2 15.183-11.313 4.606 12.511Zm0 0"/><path fill="#dcd282" d="m301.281 197.887-15.183 11.312.132-20.383Zm0 0"/><path fill="#ded684" d="m211.816 257.77-16.882 24.566.312-31.941ZM227.55 278.133l-32.616 4.203 16.882-24.566Zm0 0"/><path fill="#202215" d="m347.363 296.094 11.278 36.101-36.204-33.957Zm0 0"/><path fill="#953b3b" d="m358.64 332.195-18.722 6.473-17.48-40.43Zm0 0"/><path fill="#222215" d="m339.918 338.668 18.723-6.473 10.882 13.774Zm0 0"/><path fill="#202215" d="m74.176 131.637 22.894 6.511-11.754 12.274Zm0 0"/><path fill="#963c3c" d="m182.555 172.125-14.024-29.152 22.762 12.351Zm0 0"/><path fill="#963c3c" d="m182.555 172.125-30.711-16.332 16.687-12.82Zm0 0"/><path fill="#202215" d="m227.605 126.707-19.535 15.254-18.437-26.02Zm0 0"/><path fill="#202215" d="m208.07 141.96-15.34 4.313-3.097-30.332Zm0 0"/><path fill="#ded684" d="m207.484 247.754 9.793-6-5.46 16.016Zm0 0"/><path fill="#ddd383" d="m217.277 241.754-9.793 6-3.195-8.063Zm0 0"/><path fill="#ded684" d="m195.246 250.395 12.238-2.641 4.332 10.016Zm0 0"/><path fill="#6a6840" d="m195.246 250.395-21.016-16.63 16.2-1.206Zm0 0"/><path fill="#ded684" d="m195.246 250.395-4.816-17.836 13.86 7.132Zm0 0"/><path fill="#ded484" d="m207.484 247.754-12.238 2.64 9.043-10.703Zm0 0"/><path fill="#202215" d="m152.848 259.223.187-16.66 8.836 3.015Zm0 0"/><path fill="#ded684" d="m171.277 266.207-18.43-6.984 9.024-13.645Zm0 0"/><path fill="#ded684" d="m151.527 275.328 1.32-16.105 18.43 6.984Zm0 0"/><path fill="#ddd584" d="m152.848 259.223-22.34-7.395 22.527-9.266Zm0 0"/><path fill="#ded684" d="m171.277 266.207-15.562 19.79-4.188-10.669Zm0 0"/><path fill="#202215" d="m150.652 318.738-3.734-13.902 24.594-3.555ZM103.645 310.766l15.375 2.273 7.23 21.363ZM126.25 334.402l-7.23-21.363.87-1.39Zm0 0"/><path fill="#ded684" d="m119.02 313.04-15.375-2.274 16.246.882ZM103.645 310.766l-1.344-2.442 17.59 3.324ZM113.8 285.637l-11.5 22.687-5.73-25.828Zm0 0"/><path fill="#202215" d="m139.172 270.832 13.676-11.61-1.32 16.106ZM143.012 281.504l-3.84-10.672 12.355 4.496Zm0 0"/><path fill="#ddd583" d="m152.848 259.223-13.676 11.609-8.664-19.004Zm0 0"/><path fill="#242316" d="m102.3 308.324 19.216-12.199-1.625 15.523Zm0 0"/><path fill="#dcd383" d="m121.516 296.125-19.215 12.2 11.5-22.688Zm0 0"/><path fill="#202215" d="m143.012 281.504-21.164 4.723 17.324-15.395Zm0 0"/><path fill="#202215" d="m145.738 291.61-23.89-5.383 21.164-4.723ZM121.848 286.227l-10.797-9.989 28.12-5.406Zm0 0"/><path fill="#212315" d="m121.848 286.227-8.047-.59-2.75-9.399Zm0 0"/><path fill="#ded684" d="m121.848 286.227-.332 9.898-7.715-10.488Zm0 0"/><path fill="#202215" d="m121.516 296.125.332-9.898 23.89 5.382Zm0 0"/><path fill="#ded584" d="m173.027 245.883 22.22 4.512-23.97 15.812Zm0 0"/><path fill="#ddd584" d="m195.246 250.395-22.219-4.512 1.203-12.117Zm0 0"/><path fill="#ded684" d="m173.027 245.883-1.75 20.324-9.406-20.629ZM174.23 233.766l-1.203 12.117-11.156-.305ZM46.156 281.414l18.692 15.832-20.137-3.848Zm0 0"/><path fill="#202215" d="M64.848 297.246 79 304.707l-32.305 25.691Zm0 0"/><path fill="#202215" d="m44.71 293.398 20.138 3.848-18.153 33.152Zm0 0"/><path fill="#ded684" d="m64.848 297.246 16.82-5.207L79 304.707ZM111.05 276.238l-19.874-1.953 3.785-21.726Zm0 0"/><path fill="#202215" d="m96.57 282.496-5.394-8.21 19.875 1.952Zm0 0"/><path fill="#ded684" d="m94.96 252.559-3.784 21.726-21.852-7.324ZM84.234 226l-14.738 18.75-4.223-17.602ZM356.07 147.816l10.164-6.398-4.117 17.8Zm0 0"/><path fill="#dfd684" d="m356.07 147.816-10.496-16.027 20.66 9.629Zm0 0"/><path fill="#ded684" d="m348.516 188.277 9.71-20.976 6.22 1.027ZM339.547 181.137l8.969 7.14-11.032 7.899Zm0 0"/><path fill="#ded684" d="m358.227 167.3-9.711 20.977-8.97-7.14Zm0 0"/><path fill="#953c3b" d="m300.672 147.848-10.863 14.562-16.727-10Zm0 0"/><path fill="#903b3a" d="m273.082 152.41.957 15.094-12.004-5.25Zm0 0"/><path fill="#3b281e" d="m273.082 152.41 16.727 10-15.77 5.094Zm0 0"/><path fill="#ded684" d="m259.012 150.898 14.07 1.512-11.047 9.844Zm0 0"/><path fill="#202215" d="m282.945 172.414 6.864-10.004 9.503 11.57Zm0 0"/><path fill="#ded684" d="m286.23 188.816-3.285-16.402 16.368 1.566Zm0 0"/><path fill="#202215" d="m289.809 162.41-6.864 10.004-8.906-4.91Zm0 0"/><path fill="#ded684" d="m275.918 182.844 7.027-10.43 3.285 16.402ZM300.672 147.848l24.195-6.938-1.613 9.66ZM324.867 140.91l-24.195 6.938-1.813-6.73ZM324.867 140.91l-26.008.207 17.172-15.75ZM257.133 134.5l1.879 16.398-12.625-1.593Zm0 0"/><path fill="#202215" d="m257.133 134.5-10.746 14.805 1.468-17.368Zm0 0"/><path fill="#202215" d="m257.133 134.5-9.278-2.562 6.829-19.235Zm0 0"/><path fill="#202215" d="m288.582 126.762-31.45 7.738-2.448-21.797Zm0 0"/><path fill="#ded684" d="m200.32 168.441 3.711 22.524-21.476-18.84ZM204.031 190.965l20.34-19.692 5.441 28.438Zm0 0"/><path fill="#ded684" d="m204.031 190.965-3.71-22.524 24.05 2.832ZM235.98 173.18l12.2 7.691-4.368 18.988ZM248.18 180.871l15.316 3.504-19.683 15.484Zm0 0"/><path fill="#202215" d="m263.496 184.375-15.316-3.504 6.742-15.45Zm0 0"/><path fill="#202215" d="m248.18 180.871-12.2-7.691 7.583-7.09Zm0 0"/><path fill="#202215" d="m254.922 165.422-6.742 15.45-4.618-14.782ZM347.453 204.074l1.063-15.797 16.382 12.98Zm0 0"/><path fill="#202215" d="m348.516 188.277-1.063 15.797-9.969-7.898ZM347.453 204.074l-17.777 13.836 7.808-21.734Zm0 0"/><path fill="#ded684" d="m317.016 176.469 22.53 4.668-2.062 15.039ZM339.547 181.137l-22.531-4.668 20.535-3.922ZM301.281 197.887l-15.05-9.07 13.082-14.837Zm0 0"/><path fill="#ded684" d="m317.016 176.469-15.735 21.418-1.969-23.907ZM301.281 197.887l15.735-21.418-5.875 26.535ZM194.934 282.336l-23.657-16.129 23.97-15.812Zm0 0"/><path fill="#ded684" d="m155.715 285.996 15.562-19.789.235 35.074ZM204.398 310.785l-9.464-28.45 32.617-4.202ZM246.086 308.148l-41.688 2.637 23.153-32.652Zm0 0"/><path fill="#262517" d="m207.32 316.16-2.922-5.375 41.688-2.637Zm0 0"/><path fill="#202215" d="m126.809 152.375-24.489 7.215 23.274-22.07Zm0 0"/><path fill="#202215" d="m102.32 159.59-5.25-21.442 28.524-.628Zm0 0"/><path fill="#ded684" d="m106.387 179.426 16.015 7.39-16.558 2Zm0 0"/><path fill="#202215" d="m106.387 179.426-22.614 8.82 2.25-16.492Zm0 0"/><path fill="#232316" d="m121.516 296.125 8.238 7.16-9.863 8.363Zm0 0"/><path fill="#232416" d="m129.754 303.285-8.238-7.16 24.222-4.516Zm0 0"/><path fill="#202215" d="m145.738 291.61 9.977-5.614 15.797 15.285Zm0 0"/><path fill="#202215" d="m146.918 304.836-1.18-13.227 25.774 9.672Zm0 0"/><path fill="#262718" d="m69.324 266.96 21.852 7.325-9.508 17.754Zm0 0"/><path fill="#ded684" d="m64.848 297.246 4.476-30.285 12.344 25.078Zm0 0"/><path fill="#dad282" d="m69.324 266.96-4.476 30.286-18.692-15.832Zm0 0"/><path fill="#282a1a" d="m69.324 266.96-23.168 14.454 10.782-23.055Zm0 0"/><path fill="#ded684" d="m349.105 152.984 6.965-5.168 6.047 11.403ZM349.105 152.984l9.122 14.317-11.45-11.774Zm0 0"/><path fill="#ded684" d="m358.227 167.3-9.122-14.316 13.012 6.235Zm0 0"/><path fill="#ded684" d="m324.867 140.91 24.238 12.074-2.328 2.543Zm0 0"/><path fill="#ded684" d="m349.105 152.984-24.238-12.074 20.707-9.12ZM356.07 147.816l-6.965 5.168-3.53-21.195Zm0 0"/><path fill="#2f251a" d="m358.227 167.3-20.676 5.247 9.226-17.02Zm0 0"/><path fill="#ded684" d="m337.55 172.547 20.677-5.246-18.68 13.836Zm0 0"/><path fill="#923b3a" d="m337.55 172.547-14.296-21.977 23.523 4.957Zm0 0"/><path fill="#ded684" d="m282.945 172.414-12.617 2.262 3.711-7.172ZM270.328 174.676l12.617-2.262-7.027 10.43ZM270.328 174.676l5.59 8.168-12.422 1.531ZM271.113 143.879l-13.98-9.379 31.449-7.738ZM271.113 143.879l1.969 8.531-14.07-1.512Zm0 0"/><path fill="#ded684" d="m257.133 134.5 13.98 9.379-12.101 7.02Zm0 0"/><path fill="#202215" d="m292.672 247.566 12.133 24.922-20.45-16.945Zm0 0"/><path fill="#202215" d="m292.672 247.566-8.317 7.977-5.214-11.129Zm0 0"/><path fill="#963e3c" d="m322.164 257.61-29.492-10.044 10.18-16.734Zm0 0"/><path fill="#963d3c" d="m292.672 247.566 23.422 21.211-11.29 3.711Zm0 0"/><path fill="#953c3b" d="m316.094 268.777-23.422-21.21 29.492 10.042Zm0 0"/><path fill="#ded584" d="m329.371 241.035-7.207 16.574-19.312-26.777Zm0 0"/><path fill="#dbd081" d="m329.371 241.035-26.52-10.203 21.954-4.242Zm0 0"/><path fill="#ded684" d="m322.164 257.61 7.207-16.575 5.152 3.285ZM329.371 241.035l10.531-5.625-5.379 8.91Zm0 0"/><path fill="#ded684" d="m329.371 241.035-4.566-14.445 15.097 8.82ZM194.934 282.336l-5.63 37.422-17.792-18.477ZM171.277 266.207l23.657 16.129-23.422 18.945ZM189.305 319.758l5.629-37.422 9.464 28.45Zm0 0"/><path fill="#202215" d="m97.07 138.148 5.25 21.442-17.004-9.168Zm0 0"/><path fill="#d7ca7e" d="m85.316 150.422 17.004 9.168-16.297 12.164Zm0 0"/><path fill="#ded684" d="m151.844 155.793 30.71 16.332-35.769 7.973ZM122.402 186.816l24.383-6.718-11.14 31.062ZM129.754 303.285l15.984-11.676 1.18 13.227Zm0 0"/><path fill="#202215" d="m148.793 283.633-5.781-2.13 8.515-6.175ZM155.715 285.996l-6.922-2.363 2.734-8.305ZM145.738 291.61l3.055-7.977 6.922 2.363Zm0 0"/><path fill="#ded684" d="m113.832 169.148 17.207.38-8.637 17.288Zm0 0"/><path fill="#202215" d="m113.832 169.148-11.512-9.558 24.489-7.215Zm0 0"/><path fill="#ded684" d="m131.04 169.527-4.231-17.152 12.406-.613Zm0 0"/><path fill="#ded684" d="m146.785 180.098-15.746-10.57 8.176-17.766Zm0 0"/><path fill="#ded684" d="m131.04 169.527-17.208-.379 12.977-16.773ZM131.04 169.527l15.745 10.57-24.383 6.72Zm0 0"/><path fill="#202215" d="m119.89 311.648 13.016 4.383-6.656 18.371ZM132.906 316.031l17.746 2.707-24.402 15.664Zm0 0"/><path fill="#ded684" d="m132.906 316.031 14.012-11.195 3.734 13.902ZM132.906 316.031l-3.152-12.746 17.164 1.55Zm0 0"/><path fill="#ded684" d="m132.906 316.031-13.015-4.383 9.863-8.363Zm0 0"/><path fill="#202215" d="m148.793 283.633-3.055 7.976-2.726-10.105ZM113.832 169.148l-7.445 10.278-4.067-19.836ZM102.32 159.59l4.067 19.836-20.364-7.672Zm0 0"/><path fill="#ded684" d="m106.387 179.426 7.445-10.278 8.57 17.668Zm0 0"/></svg>