<svg xmlns="http://www.w3.org/2000/svg" width="512" height="512" viewBox="0 0 384 384"><path fill="#f04e52" d="M.004 133.047V96.102L50.62 113.93Zm0 0"/><path fill="#9b222b" d="m244.828 276.84 13.574 16.836-26.152-11.024Zm0 0"/><path fill="#ceede2" d="m28.043 203.68 1.156-29.2 19.684 9.188Zm0 0"/><path fill="#c2ebde" d="m29.2 174.48 26.573-22.25-6.89 31.438Zm0 0"/><path fill="#95dfcb" d="m89.063 106.273-6.594-27.511 19.547-2.926Zm0 0"/><path fill="#2d414d" d="m261.277 78.148 31.2-6.574-6.32 21.383Zm0 0"/><path fill="#1c2537" d="m173.262 187.063 19.515-10.168-1.55 11.472ZM258.402 293.676l-4.242 27.46-21.91-38.484Zm0 0"/><path fill="#9a222b" d="m384 303.652-37.305 33.512-.757-37.871Zm0 0"/><path fill="#f04e52" d="m118.512 7.844 41.343-7.84-28.023 25.164ZM166.719 20.23l57.23.98-31.222 15.345Zm0 0"/><path fill="#312636" d="m14.512 293.215-14.559-41.61 17.82-.171Zm0 0"/><path fill="#97222b" d="m11.164 205.586 16.879-1.906-7.754 10.406Zm0 0"/><path fill="#97222c" d="M11.164 205.586 29.2 174.48l-1.156 29.2Zm0 0"/><path fill="#b33138" d="m29.2 174.48-18.036 31.106 6.969-55.055Zm0 0"/><path fill="#f04d51" d="m37.094 147.063-18.961 3.468 5.922-13.062Zm0 0"/><path fill="#9fe1cf" d="m75.574 153.11-3.984-22.18 27.652 9.832Zm0 0"/><path fill="#9a272f" d="m0 341.012 27.488 14.445L0 384Zm0 0"/><path fill="#1d2537" d="m96.273 335.09 21.493 12.469-5.012 7.906Zm0 0"/><path fill="#9a242c" d="m384 207.867-21.617-47.222L384 115.844ZM362.383 160.645 384 207.867l-23.066.578Zm0 0"/><path fill="#9a222b" d="m384 115.844-21.617 44.8-24.856-37.425ZM338.098 74.188 384 115.844l-46.473 7.375Zm0 0"/><path fill="#95decb" d="m297.652 211.363 37.18-19.914-1.742 39.93Zm0 0"/><path fill="#1c2537" d="m384 0-23.406 34.574-17.125-6.652Zm0 0"/><path fill="#99dfcc" d="m320.305 270.121-19.809-27.812 32.594-10.93Zm0 0"/><path fill="#f04e52" d="m106.637 162.367-7.395-21.605 22.082-3.926Zm0 0"/><path fill="#9fe2d0" d="M99.242 140.762 71.59 130.93l17.472-24.657Zm0 0"/><path fill="#9a222b" d="m186.574 200.031-13.312-12.969 17.965 1.305Zm0 0"/><path fill="#1c2537" d="m154.754 155.219-27.758 8.554-5.672-26.937Zm0 0"/><path fill="#99222b" d="m159.309 128.727-4.5-14.747 33.914-5.066Zm0 0"/><path fill="#a4262f" d="m154.809 113.98 4.5 14.747-37.985 8.109Zm0 0"/><path fill="#1c2537" d="m159.309 128.727-4.555 26.492-33.43-18.383Zm0 0"/><path fill="#f04d51" d="m173.262 187.063-11.918-7.743 8.207-16.257Zm0 0"/><path fill="#9b222b" d="m136.55 178.215-18.234 7.008 8.68-21.45Zm0 0"/><path fill="#d9ece4" d="m149.465 213.559-3.168-17.043 15.262 2.398Zm0 0"/><path fill="#f04d51" d="m232.25 282.652-18.547-13.57 16.832-11.332Zm0 0"/><path fill="#9c222b" d="m232.25 282.652-1.715-24.902 14.293 19.09Zm0 0"/><path fill="#f04e52" d="m213.703 269.082-2.172-22.273 19.004 10.941Zm0 0"/><path fill="#9b222b" d="m232.25 282.652-23.676-3.992 5.13-9.578Zm0 0"/><path fill="#95dfcb" d="m297.652 211.363-27.3-9.976 28.316-39.61Zm0 0"/><path fill="#9cd1c0" d="m359.324 208.445-10.558 45.856-15.676-22.922Zm0 0"/><path fill="#1c2537" d="m286.656 343.09-24.55 17.258 3.343-11.496Zm0 0"/><path fill="#f14e52" d="m113.996.008 45.86-.004-41.344 7.84Zm0 0"/><path fill="#f04e52" d="m159.855.004 6.864 20.226-34.887 4.938Zm0 0"/><path fill="#f04e52" d="M223.95 21.21 159.854.005 271.832 0Zm0 0"/><path fill="#df6a69" d="m158.418 40.266 8.3-20.036 26.009 16.325Zm0 0"/><path fill="#334a54" d="m179.934 64.094-21.516-23.828 34.309-3.711Zm0 0"/><path fill="#486a6e" d="m213.094 66.156 5.781-27.597 12.23 20.863Zm0 0"/><path fill="#e65e5f" d="m223.95 21.21-5.075 17.349-26.148-2.004Zm0 0"/><path fill="#2d3f4c" d="m218.875 38.559-5.781 27.597-20.367-29.601Zm0 0"/><path fill="#a5c6b6" d="m214.664 70.855-1.57-4.699 18.011-6.734Zm0 0"/><path fill="#97dcc8" d="m250.594 47.176-31.719-8.617 32.914 5.402Zm0 0"/><path fill="#5e8c89" d="m218.875 38.559 31.719 8.617-19.489 12.246Zm0 0"/><path fill="#ec5558" d="m82.469 78.762-.723-28.938 20.27 26.012Zm0 0"/><path fill="#ed5356" d="m81.746 49.824 22.094 14.52-1.824 11.492Zm0 0"/><path fill="#f04e52" d="M24.055 137.469.004 133.047 50.62 113.93Zm0 0"/><path fill="#7b242f" d="m85.348 22.066-3.602 27.758-22.555-19.71Zm0 0"/><path fill="#ee5255" d="M41.941 79.363.004 96.102.05 51.273Zm0 0"/><path fill="#9b222b" d="m126.996 163.773-20.36-1.406 14.688-25.531Zm0 0"/><path fill="#ec4c50" d="M11.164 205.586-.008 220.734l.012-87.687Zm0 0"/><path fill="#9b222b" d="m11.164 205.586 2.438 21.621-13.61-6.473Zm0 0"/><path fill="#95222b" d="m13.602 227.207-2.438-21.621 9.125 8.5Zm0 0"/><path fill="#1c2537" d="m51.734 217.148 22.059 5.957-22.473 11.817Zm0 0"/><path fill="#9edfcd" d="m33.938 234.953 17.796-17.805-.414 17.774Zm0 0"/><path fill="#f04e52" d="m64.148 200.129 14.668-20.66 9.664 3.472Zm0 0"/><path fill="#1c2537" d="m118.316 185.223-2.507 33.547-42.016 4.335Zm0 0"/><path fill="#95dfcb" d="m51.336 115.512 37.727-9.239L71.59 130.93Zm0 0"/><path fill="#f04e52" d="m41.941 79.363 8.68 34.567L.004 96.102Zm0 0"/><path fill="#9fddcb" d="m29.2 174.48 7.894-27.417 18.68 5.167Zm0 0"/><path fill="#9d232c" d="m37.094 147.063-7.895 27.417-11.066-23.949Zm0 0"/><path fill="#a2e1cf" d="m75.574 153.11-19.8-.88 15.816-21.3Zm0 0"/><path fill="#f04f52" d="m106.637 162.367-24.664-3.262 17.27-18.343Zm0 0"/><path fill="#9fe1cf" d="m81.973 159.105-6.399-5.996 23.668-12.347Zm0 0"/><path fill="#f04d51" d="m88.48 182.941-6.507-23.836 24.664 3.262Zm0 0"/><path fill="#f04d51" d="m81.973 159.105 6.507 23.836-9.664-3.472Zm0 0"/><path fill="#1c2537" d="M194.473 384h-34.121l26.18-16.543Zm0 0"/><path fill="#95e0cc" d="m123.484 326.5 19.618-34.16 19.832 25.183Zm0 0"/><path fill="#97e0cc" d="M152.066 337.488 123.484 326.5l39.45-8.977Zm0 0"/><path fill="#d7f1e8" d="m123.484 326.5 28.582 10.988-34.3 10.07Zm0 0"/><path fill="#1c2537" d="m160.352 384 3.234-21.098 22.945 4.555Zm0 0"/><path fill="#9a2e35" d="m27.488 355.457-3.078-34.332 11.598 27.988Zm0 0"/><path fill="#9a2931" d="m24.41 321.125 3.078 34.332L0 341.012Zm0 0"/><path fill="#2b2637" d="m24.41 321.125 30.055 4.855-18.457 23.133Zm0 0"/><path fill="#272536" d="m89.043 360.48-5.582 23.516-47.453-34.883Zm0 0"/><path fill="#9a222b" d="m83.46 383.996-55.972-28.539 8.52-6.344Zm0 0"/><path fill="#9a222b" d="m27.488 355.457 55.973 28.54L0 384Zm0 0"/><path fill="#512432" d="m29.168 261.855-14.656 31.36 3.261-41.781Zm0 0"/><path fill="#9ae1ce" d="m66.41 260.082 31.79-7.598 11.421 27.903Zm0 0"/><path fill="#1c2537" d="m89.043 360.48-34.578-34.5 41.808 9.11Zm0 0"/><path fill="#212537" d="m54.465 325.98 34.578 34.5-53.035-11.367Zm0 0"/><path fill="#9a222b" d="m362.383 160.645-8.637 2.664-16.219-40.09Zm0 0"/><path fill="#9a252d" d="m319.125 97.266 18.973-23.079-.57 49.032Zm0 0"/><path fill="#9a232c" d="m353.746 163.309 8.637-2.664-1.45 47.8Zm0 0"/><path fill="#96ddca" d="m334.832 191.45-37.18 19.913 1.016-49.586Zm0 0"/><path fill="#1c2537" d="M312.223-.016 384 0l-40.531 27.922Zm0 0"/><path fill="#5c2431" d="m343.469 27.922-5.371 46.266L312.223-.016Zm0 0"/><path fill="#1c2637" d="m384.016 37.371-23.422-2.797L384 0Zm0 0"/><path fill="#f04d51" d="m258.402 293.676 4.61-32.211 18.633 7.433ZM244.828 276.84l18.184-15.375-4.61 32.21Zm0 0"/><path fill="#96e0cc" d="m277.625 251.11 15.41 13.288-11.39 4.5Zm0 0"/><path fill="#f04d51" d="m263.012 261.465 14.613-10.356 4.02 17.79Zm0 0"/><path fill="#96dfcc" d="m300.496 242.309-22.871 8.8-.61-25.015Zm0 0"/><path fill="#95e0cc" d="m277.625 251.11 22.871-8.801-7.46 22.09Zm0 0"/><path fill="#98e0cd" d="m300.496 242.309 19.809 27.812-27.27-5.723Zm0 0"/><path fill="#95decb" d="m300.496 242.309-2.844-30.946 35.438 20.016Zm0 0"/><path fill="#96deca" d="m297.652 211.363 2.844 30.946-23.48-16.215Zm0 0"/><path fill="#9be1ce" d="m108.582 120.59-9.34 20.172-10.18-34.489Zm0 0"/><path fill="#f04f53" d="m99.242 140.762 9.34-20.172 12.742 16.246Zm0 0"/><path fill="#f04e52" d="m312.223-.016-19.895 18.309L271.832 0Zm0 0"/><path fill="#95dfcb" d="m240.156 99.125 21.121-20.977 24.88 14.809Zm0 0"/><path fill="#1c2638" d="m165.664 207.32-16.2 6.239 12.095-14.645Zm0 0"/><path fill="#1c2637" d="m192.777 176.895-7.808-11.856 20.398.629Zm0 0"/><path fill="#1c2537" d="m184.969 165.04-11.707 22.023-3.711-24Zm0 0"/><path fill="#1c2537" d="m173.262 187.063 11.707-22.024 7.808 11.856Zm0 0"/><path fill="#f04d51" d="m169.55 163.063-14.796-7.844 4.555-26.492Zm0 0"/><path fill="#daebe3" d="m186.574 200.031-25.015-1.117 11.703-11.851Zm0 0"/><path fill="#d8ece3" d="m161.559 198.914-.215-19.594 11.918 7.743Zm0 0"/><path fill="#d8eae1" d="m161.559 198.914 25.015 1.117-20.91 7.29Zm0 0"/><path fill="#d6e5dc" d="m146.297 196.516 15.047-17.196.215 19.594Zm0 0"/><path fill="#1c2638" d="m165.664 207.32 1.774 5.805-17.973.434Zm0 0"/><path fill="#f04d51" d="m205.598 205.93-16.707 13.816-2.317-19.715Zm0 0"/><path fill="#1e2537" d="m262.105 360.348-6.996-8.137 10.34-3.36Zm0 0"/><path fill="#9a222b" d="m323.242 384 23.453-46.836L384 384ZM359.324 208.445h1.61l-12.168 45.856Zm0 0"/><path fill="#98222b" d="m313.535 319.125 33.16 18.04-28.523 5.8Zm0 0"/><path fill="#99232c" d="m346.695 337.164-33.16-18.039 32.402-19.832Zm0 0"/><path fill="#1c2537" d="m286.656 343.09-3.582-4.8 8.621-5.376Zm0 0"/><path fill="#bee7da" d="m283.074 338.29-17.625 10.562-10.668-17.836Zm0 0"/><path fill="#1d2537" d="m283.074 338.29 3.582 4.8-21.207 5.762Zm0 0"/><path fill="#262838" d="m291.695 332.914 18.621-16.684 3.22 2.895Zm0 0"/><path fill="#98e0cc" d="m293.035 264.398-5.18 23.157-6.21-18.657Zm0 0"/><path fill="#9d232c" d="m270.984 298.914-12.582-5.238 23.243-24.778Zm0 0"/><path fill="#f04d51" d="m287.855 287.555-16.87 11.36 10.66-30.017Zm0 0"/><path fill="#f04e52" d="m270.984 298.914 16.871-11.36 2.852 20.551Zm0 0"/><path fill="#1c2537" d="m270.984 298.914-16.824 22.223 4.242-27.461Zm0 0"/><path fill="#f04e52" d="m223.95 21.21-57.231-.98L159.855.004Zm0 0"/><path fill="#95dfcb" d="m179.934 64.094 12.714 7.648-24.906 14.442Zm0 0"/><path fill="#f04e52" d="m167.742 86.184 24.906-14.442 6.192 20.848Zm0 0"/><path fill="#94dfcb" d="m213.094 66.156-20.446 5.586.079-35.187Zm0 0"/><path fill="#95dfcb" d="m192.648 71.742-12.714-7.648 12.793-27.54Zm0 0"/><path fill="#1c2637" d="M85.348 22.066 59.19 30.113 33 .074Zm0 0"/><path fill="#1c2537" d="M85.348 22.066 33 .074 90.926 0Zm0 0"/><path fill="#f04e52" d="m272.84 28.402-48.89-7.191L271.831 0Zm0 0"/><path fill="#f04e52" d="m223.95 21.21 48.89 7.192-21.05 15.559ZM218.875 38.559l5.074-17.348 27.84 22.75Zm0 0"/><path fill="#f04f53" d="m192.648 71.742 22.016-.887L198.84 92.59Zm0 0"/><path fill="#98dac7" d="m214.664 70.855-22.016.887 20.446-5.586Zm0 0"/><path fill="#f04d51" d="m214.664 70.855 8.043 22.504-23.867-.77Zm0 0"/><path fill="#f04e52" d="m214.664 70.855 22.899 7.344-14.856 15.16Zm0 0"/><path fill="#97dcc8" d="m237.563 78.2 23.714-.052-21.12 20.977Zm0 0"/><path fill="#f04d51" d="m222.707 93.36 14.856-15.16 2.593 20.925Zm0 0"/><path fill="#f04e52" d="m237.563 78.2-22.899-7.345 16.441-11.433Zm0 0"/><path fill="#1e293a" d="m250.594 47.176-13.031 31.023-6.458-18.777Zm0 0"/><path fill="#202c3d" d="m237.563 78.2 13.03-31.024 10.684 30.972Zm0 0"/><path fill="#f04e52" d="m132.387 107.73 12.96-17.453 9.462 23.703Zm0 0"/><path fill="#95e0cc" d="m132.387 107.73-43.324-1.457 12.953-30.437Zm0 0"/><path fill="#96e0cc" d="m132.387 107.73-23.805 12.86-19.52-14.317Zm0 0"/><path fill="#f04d51" d="m132.387 107.73 22.422 6.25-33.485 22.856Zm0 0"/><path fill="#f04e52" d="m108.582 120.59 23.805-12.86-11.063 29.106ZM103.84 64.344l-22.094-14.52 37.336 2.582Zm0 0"/><path fill="#7b232e" d="m119.082 52.406-37.336-2.582 3.602-27.758Zm0 0"/><path fill="#98dfcc" d="m145.348 90.277-8.926-11.968 31.32 7.875Zm0 0"/><path fill="#86c8b9" d="m136.422 78.309 21.996-38.043 9.324 45.918Zm0 0"/><path fill="#1c2638" d="m158.418 40.266-21.996 38.043-32.582-13.965Zm0 0"/><path fill="#95dfcb" d="m136.422 78.309-4.035 29.421-30.371-31.894Zm0 0"/><path fill="#98ddca" d="m132.387 107.73 4.035-29.421 8.926 11.968Zm0 0"/><path fill="#95decb" d="m103.84 64.344 32.582 13.965-34.406-2.473Zm0 0"/><path fill="#b1e6d7" d="m119.082 52.406 39.336-12.14-54.578 24.078Zm0 0"/><path fill="#9b222b" d="m154.809 113.98 20.976-15.59 12.938 10.524Zm0 0"/><path fill="#f04e52" d="m154.809 113.98-9.461-23.703 22.394-4.093Zm0 0"/><path fill="#f04d51" d="m175.785 98.39-20.976 15.59 12.933-27.796Zm0 0"/><path fill="#96decb" d="M59.191 30.113 27.082 13.61 33 .074Zm0 0"/><path fill="#97dbc8" d="M.012-.008 33 .074 27.082 13.61Zm0 0"/><path fill="#8e2630" d="m27.082 13.61 32.11 16.503-17.587 18.078Zm0 0"/><path fill="#96dbc8" d="m59.191 30.113 22.555 19.711-40.14-1.633Zm0 0"/><path fill="#924449" d="M41.605 48.191.051 51.273 27.082 13.61Zm0 0"/><path fill="#9ce0cd" d="m48.754 243.246-14.816-8.293 17.382-.031Zm0 0"/><path fill="#262537" d="m13.602 227.207 12.828 9.531-8.657 14.696Zm0 0"/><path fill="#a4272f" d="M13.602 227.207-.047 251.605l.04-30.87Zm0 0"/><path fill="#3d2535" d="m-.047 251.605 13.649-24.398 4.171 24.227Zm0 0"/><path fill="#212537" d="m30.078 222.09-16.476 5.117 6.687-13.121Zm0 0"/><path fill="#2a2536" d="m28.043 203.68 2.035 18.41-9.789-8.004Zm0 0"/><path fill="#1f2638" d="m30.078 222.09 3.86 12.863-7.508 1.785Zm0 0"/><path fill="#1d2537" d="m13.602 227.207 16.476-5.117-3.648 14.648Zm0 0"/><path fill="#c9e8dd" d="m51.734 217.148-21.656 4.942-2.035-18.41Zm0 0"/><path fill="#caede1" d="m30.078 222.09 21.656-4.942-17.796 17.805Zm0 0"/><path fill="#caede2" d="m55.441 206.242-27.398-2.562 20.84-20.012Zm0 0"/><path fill="#c5ebdf" d="m55.441 206.242-3.707 10.906-23.691-13.468Zm0 0"/><path fill="#9a222b" d="m51.734 217.148 3.707-10.906 18.352 16.863Zm0 0"/><path fill="#9ee0ce" d="m64.148 200.129-8.707 6.113-6.558-22.574Zm0 0"/><path fill="#9a222b" d="m55.441 206.242 8.707-6.113 9.645 22.976Zm0 0"/><path fill="#f04e52" d="m73.793 223.105-9.645-22.976L88.48 182.94Zm0 0"/><path fill="#9a222b" d="m118.316 185.223-44.523 37.882 14.687-40.164ZM64.148 200.129l2.79-25.43 11.878 4.77Zm0 0"/><path fill="#9de2cf" d="m55.773 152.23 11.164 22.47-18.054 8.968Zm0 0"/><path fill="#a1e2d0" d="m66.938 174.7-2.79 25.429-15.265-16.461Zm0 0"/><path fill="#f04e52" d="m136.55 178.215-4.03 21.047-14.204-14.04Zm0 0"/><path fill="#daeae2" d="m146.297 196.516-13.777 2.746 4.03-21.047Zm0 0"/><path fill="#f04d51" d="m118.316 185.223 14.204 14.039-16.711 19.508Zm0 0"/><path fill="#daede4" d="m141.313 212.375 4.984-15.86 3.168 17.044Zm0 0"/><path fill="#dbe0d9" d="m146.297 196.516-4.984 15.859-8.793-13.113Zm0 0"/><path fill="#95e0cc" d="m118.816 265.223-9.195 15.164L98.2 252.484Zm0 0"/><path fill="#f14e52" d="m.004 133.047 24.05 4.422-5.921 13.062Zm0 0"/><path fill="#f04e52" d="m11.164 205.586-11.16-72.54 18.129 17.485Zm0 0"/><path fill="#96dfcb" d="m82.469 78.762 6.594 27.511-38.442 7.657Zm0 0"/><path fill="#95dcc9" d="m89.063 106.273-37.727 9.239-.715-1.582Zm0 0"/><path fill="#96e0cc" d="m55.773 152.23-4.437-36.718L71.59 130.93Zm0 0"/><path fill="#acd1c2" d="m51.336 115.512 4.437 36.718-18.68-5.167Zm0 0"/><path fill="#9ce1cf" d="m66.938 174.7-11.165-22.47 19.801.88Zm0 0"/><path fill="#a0e0ce" d="M81.973 159.105 66.938 174.7l8.636-21.59Zm0 0"/><path fill="#9a222b" d="m66.938 174.7 15.035-15.595-3.157 20.364Zm0 0"/><path fill="#95e0cc" d="m179.605 291.71-36.503.63 7.597-15.344Zm0 0"/><path fill="#94dfcb" d="m143.102 292.34 36.503-.63-16.671 25.813Zm0 0"/><path fill="#9a222b" d="m147.695 253.309 2.5-6.329 18.383 2.18Zm0 0"/><path fill="#95e0cc" d="m118.816 265.223 24.286 27.117-33.48-11.953Zm0 0"/><path fill="#95e0cc" d="m118.816 265.223 31.883 11.773-7.597 15.344Zm0 0"/><path fill="#1d2537" d="m136.91 357.035 26.676 5.867L160.352 384Zm0 0"/><path fill="#1f2537" d="m116.59 383.996 20.32-26.96L160.352 384Zm0 0"/><path fill="#1c2537" d="m136.91 357.035-20.32 26.961-3.836-28.531Zm0 0"/><path fill="#d9f1e8" d="m163.586 362.902-26.676-5.867 15.156-19.547Zm0 0"/><path fill="#1d2537" d="m117.766 347.559 19.144 9.476-24.156-1.57Zm0 0"/><path fill="#d9f1e8" d="m152.066 337.488-15.156 19.547-19.144-9.476Zm0 0"/><path fill="#9a222b" d="M14.512 293.215.004 302.96l-.05-51.356Zm0 0"/><path fill="#9a2931" d="m.004 302.96 24.406 18.165L0 341.012Zm0 0"/><path fill="#9a252d" d="m.004 302.96 14.508-9.745 9.898 27.91Zm0 0"/><path fill="#2a2536" d="m83.46 383.996 5.583-23.516 27.547 23.516Zm0 0"/><path fill="#1f2537" d="M116.59 383.996 89.043 360.48l23.71-5.015Zm0 0"/><path fill="#1c2537" d="m89.043 360.48 7.23-25.39 16.48 20.375Zm0 0"/><path fill="#342535" d="m14.512 293.215 14.656-31.36 15.316 8.211Zm0 0"/><path fill="#ade6d6" d="M83.938 289.027 66.41 260.082l43.211 20.305Zm0 0"/><path fill="#1c2537" d="m62.207 299.238 12.043 14.196-19.785 12.546Zm0 0"/><path fill="#d2efe5" d="m83.938 289.027-9.688 24.407-12.043-14.196Zm0 0"/><path fill="#1c2637" d="m337.527 123.219 16.22 40.09-39.415-36.91Zm0 0"/><path fill="#94dcc9" d="m353.746 163.309-55.078-1.532 15.664-35.379Zm0 0"/><path fill="#95deca" d="m353.746 163.309-18.914 28.14-36.164-29.672Zm0 0"/><path fill="#8a222c" d="m360.594 34.574 23.422 2.797-45.918 36.817Zm0 0"/><path fill="#9a222b" d="M384.016 37.371 384 115.844l-45.902-41.656Zm0 0"/><path fill="#9a2d34" d="m300.254 47.766 37.844 26.422-45.621-2.614Zm0 0"/><path fill="#87232d" d="m360.594 34.574-22.496 39.614 5.37-46.266Zm0 0"/><path fill="#df5e5f" d="m300.254 47.766-7.926-29.473L312.223-.016Zm0 0"/><path fill="#ef5054" d="m292.328 18.293 7.926 29.473-27.414-19.364Zm0 0"/><path fill="#96222c" d="m338.098 74.188-37.844-26.422L312.223-.016Zm0 0"/><path fill="#f04e52" d="m271.832 0 20.496 18.293-19.488 10.11Zm0 0"/><path fill="#1c2638" d="m261.277 78.148 8.137-22.543 23.063 15.97Zm0 0"/><path fill="#ce7f7b" d="m269.414 55.605 30.84-7.84-7.777 23.81Zm0 0"/><path fill="#e16666" d="m300.254 47.766-30.84 7.84 3.426-27.204Zm0 0"/><path fill="#9a222b" d="m188.723 108.914-12.938-10.523 23.055-5.801Zm0 0"/><path fill="#f04d51" d="m175.785 98.39-8.043-12.206 31.098 6.406Zm0 0"/><path fill="#7a232e" d="m198.5 123.023-39.191 5.704 29.414-19.813Zm0 0"/><path fill="#95e0cc" d="m276.004 122.348-35.848-23.223 46-6.168Zm0 0"/><path fill="#f04e52" d="m184.043 146.887.926 18.152-15.418-1.976Zm0 0"/><path fill="#f14e52" d="m184.043 146.887 14.457-23.864 14.2 22.11Zm0 0"/><path fill="#f05256" d="m184.969 165.04-.926-18.153 21.324 18.781Zm0 0"/><path fill="#f04d51" d="m184.043 146.887-14.492 16.176-10.242-34.336Zm0 0"/><path fill="#9b222b" d="m198.5 123.023-14.457 23.864-24.734-18.16Zm0 0"/><path fill="#d9f0e7" d="m146.297 196.516-9.746-18.301 24.793 1.105Zm0 0"/><path fill="#f04d51" d="m161.344 179.32-24.793-1.105 33-15.153Zm0 0"/><path fill="#f04d51" d="m136.55 178.215 18.204-22.996 14.797 7.844Zm0 0"/><path fill="#9b232c" d="m154.754 155.219-18.203 22.996-9.555-14.442Zm0 0"/><path fill="#1f2537" d="m139.203 238.824 2.11-26.449 8.152 1.184Zm0 0"/><path fill="#1c2638" d="m185.816 280.086-6.21 11.625-28.907-14.715Zm0 0"/><path fill="#d8f1e8" d="m150.195 246.98 8.18-17.359 10.203 19.54Zm0 0"/><path fill="#1c2637" d="m167.438 213.125-9.063 16.496-8.91-16.062Zm0 0"/><path fill="#1c2537" d="m158.375 229.621-19.172 9.203 10.262-25.265Zm0 0"/><path fill="#d8f1e8" d="m139.203 238.824 19.172-9.203-8.18 17.36Zm0 0"/><path fill="#1c2637" d="m199.922 295.805-14.106-15.72 22.758-1.425Zm0 0"/><path fill="#1c2638" d="m185.816 280.086 14.106 15.719-20.317-4.094Zm0 0"/><path fill="#f04e52" d="m277.625 251.11-12.52-6.743 11.91-18.273Zm0 0"/><path fill="#f04e52" d="m265.105 244.367 12.52 6.742-14.613 10.356Zm0 0"/><path fill="#d79692" d="m265.105 244.367 9.02-25.523 2.89 7.25Zm0 0"/><path fill="#d6d5cd" d="m274.125 218.844-9.02 25.523-23.312-15.36Zm0 0"/><path fill="#1c2537" d="m244.828 276.84-.207-24.32 18.39 8.945Zm0 0"/><path fill="#1c2637" d="m244.621 252.52 20.484-8.153-2.093 17.098Zm0 0"/><path fill="#f04d51" d="m201.617 195.676 3.98 10.254-19.023-5.899Zm0 0"/><path fill="#f04d51" d="m201.617 195.676 9.36-.559-5.38 10.813Zm0 0"/><path fill="#9b222b" d="m201.617 195.676-15.043 4.355 4.653-11.664Zm0 0"/><path fill="#1c2537" d="m208.277 366.016-6.992 9.308-14.754-7.867ZM194.473 384l6.812-8.676 16.328 8.688Zm0 0"/><path fill="#1c2537" d="M201.285 375.324 194.473 384l-7.942-16.543ZM239.938 361.18l15.171-8.97 6.996 8.138Zm0 0"/><path fill="#d9f1e8" d="m183.91 344.004 24.367 22.012-21.746 1.441Zm0 0"/><path fill="#d2eae0" d="m255.11 352.21-.329-21.194 10.668 17.836Zm0 0"/><path fill="#1e2637" d="m294.914 344.453-3.219-11.539 21.84-13.789Zm0 0"/><path fill="#97222b" d="m318.172 342.965-23.258 1.488 18.621-25.328Zm0 0"/><path fill="#202537" d="m286.656 343.09 8.258 1.363-27.832 39.555Zm0 0"/><path fill="#1d2537" d="m294.914 344.453-8.258-1.363 5.04-10.176Zm0 0"/><path fill="#9a222b" d="M294.914 344.453 323.242 384l-56.16.008ZM323.242 384l-28.328-39.547 23.258-1.488ZM346.695 337.164 384 303.652V384Zm0 0"/><path fill="#1e2537" d="m267.082 384.008-27.144-22.828 22.167-.832Zm0 0"/><path fill="#262536" d="m239.938 361.18 27.144 22.828-49.469.004Zm0 0"/><path fill="#1c2537" d="m286.656 343.09-19.574 40.918-4.977-23.66Zm0 0"/><path fill="#9a222b" d="M362.102 257.32 384 303.652l-38.062-4.359Zm0 0"/><path fill="#a3ccbb" d="m334.832 191.45 24.492 16.995-26.234 22.934Zm0 0"/><path fill="#9a232c" d="m359.324 208.445-5.578-45.136 7.188 45.136Zm0 0"/><path fill="#95c9b8" d="m353.746 163.309 5.578 45.136-24.492-16.996Zm0 0"/><path fill="#1c2638" d="m270.984 298.914 8.172 24.211-24.996-1.988Zm0 0"/><path fill="#1c2637" d="m279.156 323.125-8.172-24.21 19.723 9.19Zm0 0"/><path fill="#97e0cd" d="m254.16 321.137 24.996 1.988-24.375 7.89Zm0 0"/><path fill="#c5eade" d="m279.156 323.125 3.918 15.164-28.293-7.273Zm0 0"/><path fill="#97e0cd" d="m320.305 270.121-32.45 17.434 5.18-23.157Zm0 0"/><path fill="#f04d51" d="m166.719 20.23-8.301 20.036-26.586-15.098Zm0 0"/><path fill="#1c2537" d="m113.996.008-10.75 13.812L90.926 0Zm0 0"/><path fill="#1c2537" d="m103.246 13.82-17.898 8.246L90.926 0Zm0 0"/><path fill="#f04d51" d="M103.246 13.82 113.996.008l4.516 7.836Zm0 0"/><path fill="#72232f" d="m103.246 13.82 15.836 38.586-33.734-30.34Zm0 0"/><path fill="#ec5558" d="M269.414 55.605 251.79 43.961l21.05-15.559Zm0 0"/><path fill="#1c2638" d="m250.594 47.176 18.82 8.43-8.137 22.542Zm0 0"/><path fill="#95deca" d="m251.79 43.96 17.624 11.645-18.82-8.43Zm0 0"/><path fill="#1d2537" d="m231.742 112.824-5.265-10.015 13.68-3.684Zm0 0"/><path fill="#1f2637" d="m226.477 102.809-3.77-9.45 17.45 5.766Zm0 0"/><path fill="#1c2537" d="m208.941 113.32 22.801-.496-4.476 15.563Zm0 0"/><path fill="#752934" d="m81.746 49.824-39.805 29.54-.336-31.173Zm0 0"/><path fill="#405e64" d="m158.418 40.266 21.516 23.828-12.192 22.09Zm0 0"/><path fill="#f04e52" d="m119.082 52.406 12.75-27.238 26.586 15.098Zm0 0"/><path fill="#f04d51" d="m103.246 13.82 28.586 11.348-12.75 27.238Zm0 0"/><path fill="#f04d51" d="M131.832 25.168 103.246 13.82l15.266-5.976Zm0 0"/><path fill="#f04e52" d="M27.082 13.61 0 19.351.012-.008Zm0 0"/><path fill="#ef5054" d="m50.621 113.93-8.68-34.567 40.528-.601Zm0 0"/><path fill="#5e2935" d="m41.605 48.191.336 31.172-41.89-28.09Zm0 0"/><path fill="#1d2638" d="m29.168 261.855 7.95-9.843 7.366 18.054Zm0 0"/><path fill="#1e2638" d="m26.43 236.738 10.687 15.274-19.344-.578Zm0 0"/><path fill="#1c2637" d="m37.117 252.012-7.949 9.843-11.395-10.421Zm0 0"/><path fill="#1c2638" d="m33.938 234.953 3.18 17.059-10.688-15.274Zm0 0"/><path fill="#c9ece1" d="m48.754 243.246-11.637 8.766-3.18-17.059Zm0 0"/><path fill="#97e0cc" d="m69.754 244.957-21-1.71 2.566-8.325Zm0 0"/><path fill="#97dfcc" d="m66.41 260.082 3.344-15.125 28.445 7.527Zm0 0"/><path fill="#1c2638" d="m73.793 223.105-4.04 21.852-18.433-10.035Zm0 0"/><path fill="#b22d35" d="M118.316 185.223 88.48 182.94l18.157-20.574Zm0 0"/><path fill="#9b222b" d="m126.996 163.773-8.68 21.45-11.68-22.856Zm0 0"/><path fill="#f04e52" d="m141.313 212.375-23.555 25.375 14.762-38.488Zm0 0"/><path fill="#1c2537" d="m118.816 265.223-1.058-27.473 17.687 9.777Zm0 0"/><path fill="#9a222b" d="m117.758 237.75 21.445 1.074-3.758 8.703Zm0 0"/><path fill="#f04d51" d="m139.203 238.824-21.445-1.074 23.555-25.375Zm0 0"/><path fill="#f04e52" d="m24.055 137.469 26.566-23.54.715 1.583Zm0 0"/><path fill="#d6f1e7" d="m110.883 329.926-10.098-22.2 22.7 18.774Zm0 0"/><path fill="#d7f1e7" d="m96.273 335.09 14.61-5.164 6.883 17.633Zm0 0"/><path fill="#d4f0e6" d="m110.883 329.926 12.601-3.426-5.718 21.059Zm0 0"/><path fill="#d9f1e8" d="m100.785 307.727 10.098 22.199-14.61 5.164Zm0 0"/><path fill="#1c2637" d="m54.465 325.98 19.785-12.546 22.023 21.656Zm0 0"/><path fill="#d9f1e8" d="m74.25 313.434 26.535-5.707-4.512 27.363Zm0 0"/><path fill="#d0efe4" d="m74.25 313.434 9.688-24.407 16.847 18.7Zm0 0"/><path fill="#1c2537" d="m147.695 253.309 24.953 7.386-21.949 16.301ZM172.648 260.695l13.168 19.39-35.117-3.089Zm0 0"/><path fill="#9a222b" d="m172.648 260.695-24.953-7.386 20.883-4.149Zm0 0"/><path fill="#1c2537" d="m139.844 258.34 7.851-5.031 3.004 23.687ZM139.844 258.34l-21.028 6.883 16.63-17.696Zm0 0"/><path fill="#1c2638" d="m118.816 265.223 21.028-6.883 10.855 18.656Zm0 0"/><path fill="#4b2634" d="m14.512 293.215 25.566 6.2-15.668 21.71Zm0 0"/><path fill="#202537" d="m24.41 321.125 15.668-21.71 14.387 26.565Zm0 0"/><path fill="#262536" d="m40.078 299.414 22.129-.176-7.742 26.742Zm0 0"/><path fill="#1d2537" d="m40.078 299.414-25.566-6.2 29.972-23.148Zm0 0"/><path fill="#94dfcb" d="m314.332 126.398-38.328-4.05 10.152-29.391Zm0 0"/><path fill="#95e0cc" d="m276.004 122.348 38.328 4.05-15.664 35.38Zm0 0"/><path fill="#1d283a" d="m292.477 71.574 26.648 25.692-32.969-4.309Zm0 0"/><path fill="#598281" d="m319.125 97.266-4.793 29.132-28.176-33.441Zm0 0"/><path fill="#2f414d" d="m314.332 126.398 4.793-29.132 18.402 25.953Zm0 0"/><path fill="#f04e52" d="m184.043 146.887 28.656-1.754-7.332 20.535Zm0 0"/><path fill="#f04d51" d="m241.762 115.625-10.02-2.8 8.414-13.7Zm0 0"/><path fill="#96e0cc" d="m276.004 122.348-34.242-6.723-1.606-16.5Zm0 0"/><path fill="#9b222b" d="m231.742 112.824 10.02 2.801-14.496 12.762ZM208.574 278.66 195 266.422l18.703 2.66Zm0 0"/><path fill="#1c2537" d="M185.816 280.086 195 266.422l13.574 12.238Zm0 0"/><path fill="#f04d51" d="M213.703 269.082 195 266.422l16.531-19.613Zm0 0"/><path fill="#1c2537" d="m195 266.422-9.184 13.664-13.168-19.39Zm0 0"/><path fill="#d8f1e8" d="m158.375 229.621 14.36-6.027-4.157 25.566Zm0 0"/><path fill="#1c2537" d="m172.734 223.594-14.359 6.027 9.063-16.496Zm0 0"/><path fill="#1d2537" d="m214.91 292.027-6.336-13.367 23.676 3.992Zm0 0"/><path fill="#1c2638" d="m214.91 292.027-14.988 3.778 8.652-17.145Zm0 0"/><path fill="#1c2537" d="m230.535 257.75 14.086-5.23.207 24.32Zm0 0"/><path fill="#95e0cc" d="m270.352 201.387-10.61-27.192 38.926-12.418Zm0 0"/><path fill="#f04e52" d="m236.8 203.777 4.993 25.23-11.383-2.452ZM210.977 195.117l5.125 13.406-10.504-2.593ZM228.965 149.23l-16.266-4.097 14.567-16.746Zm0 0"/><path fill="#daf1e8" d="m205.367 165.668 23.598-16.438-.711 14.73Zm0 0"/><path fill="#d8efe6" d="m228.965 149.23-23.598 16.438 7.332-20.535Zm0 0"/><path fill="#1c2537" d="m192.777 176.895 9.965 8.05-11.515 3.422Zm0 0"/><path fill="#9a232c" d="m202.742 184.945-1.125 10.73-10.39-7.308Zm0 0"/><path fill="#f04e52" d="m201.617 195.676 1.125-10.73 8.235 10.171Zm0 0"/><path fill="#9c242d" d="m197.777 236.648 8.516-9.675 5.238 19.836Zm0 0"/><path fill="#f04d51" d="m206.293 226.973-17.402-7.227 16.707-13.816ZM206.293 226.973l-8.516 9.675-8.886-16.902Zm0 0"/><path fill="#d8f1e8" d="m239.938 361.18-17.481-20.852 32.652 11.883ZM222.457 340.328l32.324-9.312.328 21.195Zm0 0"/><path fill="#96e0cc" d="m183.91 344.004-31.844-6.516 10.868-19.965Zm0 0"/><path fill="#d9f1e8" d="m183.91 344.004-20.324 18.898-11.52-25.414Zm0 0"/><path fill="#d9f1e8" d="m163.586 362.902 20.324-18.898 2.621 23.453Zm0 0"/><path fill="#95e0cc" d="m191.633 317.148-7.723 26.856-20.976-26.48Zm0 0"/><path fill="#94dfcb" d="m179.605 291.71 12.028 25.438-28.7.375Zm0 0"/><path fill="#95dfcb" d="m199.922 295.805-8.29 21.343-12.027-25.437Zm0 0"/><path fill="#96e0cc" d="m191.633 317.148 30.824 23.18-38.547 3.676Zm0 0"/><path fill="#9a222b" d="m318.172 342.965 28.523-5.8L323.242 384Zm0 0"/><path fill="#b1e2d3" d="m320.305 270.121 28.46-15.82-18.495 35.39Zm0 0"/><path fill="#9a222b" d="m348.766 254.3-2.829 44.993-15.667-9.602Zm0 0"/><path fill="#9a232c" d="m348.766 254.3 13.336 3.02-16.164 41.973Zm0 0"/><path fill="#a6cbbb" d="m348.766 254.3-28.461 15.821 12.785-38.742Zm0 0"/><path fill="#9a232c" d="M362.102 257.32 384 207.867v95.785Zm0 0"/><path fill="#9a222b" d="m360.934 208.445 1.168 48.875-13.336-3.02Zm0 0"/><path fill="#9a232c" d="m384 207.867-21.898 49.453-1.168-48.875Zm0 0"/><path fill="#b4e7d8" d="m283.074 338.29 5.457-12.728 3.164 7.352Zm0 0"/><path fill="#c0ebde" d="m279.156 323.125 9.375 2.438-5.457 12.726Zm0 0"/><path fill="#b5e8d9" d="m288.531 325.563 21.785-9.333-18.62 16.684Zm0 0"/><path fill="#b0e7d7" d="m310.316 316.23-21.785 9.332 2.176-17.457Zm0 0"/><path fill="#96dfcb" d="m288.531 325.563-9.375-2.438 11.551-15.02Zm0 0"/><path fill="#97262f" d="m313.535 319.125 16.735-29.434 15.668 9.602Zm0 0"/><path fill="#542c39" d="m310.316 316.23 19.954-26.539-16.735 29.434Zm0 0"/><path fill="#a8e4d3" d="m304.684 296.05 5.632 20.18-19.609-8.125Zm0 0"/><path fill="#99e0cd" d="m287.855 287.555 16.829 8.496-13.977 12.054Zm0 0"/><path fill="#97e0cd" d="m320.305 270.121-15.621 25.93-16.829-8.496Zm0 0"/><path fill="#abe2d2" d="m304.684 296.05 25.586-6.359-19.954 26.54Zm0 0"/><path fill="#afe0d1" d="m330.27 289.691-25.586 6.36 15.62-25.93Zm0 0"/><path fill="#1c2537" d="m209.95 105.684 16.527-2.875 5.265 10.015Zm0 0"/><path fill="#1c2537" d="m226.477 102.809-16.528 2.875 12.758-12.325Zm0 0"/><path fill="#1d2537" d="m222.707 93.36-12.758 12.324-11.11-13.094Zm0 0"/><path fill="#99222b" d="m209.95 105.684-21.227 3.23L198.84 92.59Zm0 0"/><path fill="#1c2537" d="m209.95 105.684-1.009 7.636-20.218-4.406Zm0 0"/><path fill="#1c2537" d="m208.941 113.32 1.008-7.636 21.793 7.14Zm0 0"/><path fill="#992d35" d="m81.746 49.824.723 28.938-40.528.601Zm0 0"/><path fill="#99e0cd" d="m69.754 244.957-3.344 15.125-17.656-16.836Zm0 0"/><path fill="#cfeee3" d="m37.117 252.012 29.293 8.07-21.926 9.984Zm0 0"/><path fill="#d0eee3" d="m66.41 260.082-29.293-8.07 11.637-8.766Zm0 0"/><path fill="#f04d51" d="m132.52 199.262-23.024 37.586 6.313-18.078Zm0 0"/><path fill="#a72830" d="m117.758 237.75-8.262-.902 23.024-37.586Zm0 0"/><path fill="#99222b" d="m115.809 218.77-6.313 18.078-35.703-13.743Zm0 0"/><path fill="#1c2537" d="m109.496 236.848 8.262.902 1.058 27.473Zm0 0"/><path fill="#f04e52" d="m24.055 137.469 27.28-21.957-14.241 31.55Zm0 0"/><path fill="#a1e3d1" d="m83.938 289.027 25.683-8.64-8.836 27.34Zm0 0"/><path fill="#95e0cc" d="m123.484 326.5-13.863-46.113 33.48 11.953Zm0 0"/><path fill="#98e1cd" d="m100.785 307.727 8.836-27.34 13.863 46.113Zm0 0"/><path fill="#9a222b" d="m139.203 238.824 8.492 14.485-12.25-5.782Zm0 0"/><path fill="#97222b" d="m147.695 253.309-8.492-14.485 10.992 8.156Zm0 0"/><path fill="#1d2537" d="m147.695 253.309-7.851 5.03-4.399-10.812Zm0 0"/><path fill="#222537" d="m55.445 286.781-15.367 12.633 4.406-29.348Zm0 0"/><path fill="#232537" d="m40.078 299.414 15.367-12.633 6.762 12.457Zm0 0"/><path fill="#d5f0e7" d="m55.445 286.781 28.493 2.246-21.731 10.211Zm0 0"/><path fill="#d7f1e7" d="m66.41 260.082-10.965 26.7-10.96-16.716Zm0 0"/><path fill="#d2efe5" d="m55.445 286.781 10.965-26.699 17.528 28.945Zm0 0"/><path fill="#99484b" d="m338.098 74.188-18.973 23.078-26.648-25.692Zm0 0"/><path fill="#1c2537" d="m204.258 176.918-11.48-.023 12.59-11.227ZM204.258 176.918l-1.516 8.027-9.965-8.05Zm0 0"/><path fill="#d9f1e8" d="m221.152 178.828-15.785-13.16 22.887-1.707Zm0 0"/><path fill="#1c2638" d="m221.152 178.828-16.894-1.91 1.11-11.25ZM196.148 249.824 195 266.422l-22.352-5.727Zm0 0"/><path fill="#f04d51" d="m196.148 249.824 1.63-13.176 13.753 10.16Zm0 0"/><path fill="#f04e52" d="m195 266.422 1.148-16.598 15.383-3.015ZM197.777 236.648l-13.132 5.407 4.246-22.309Zm0 0"/><path fill="#d8ede4" d="m184.645 242.055-11.91-18.461 16.156-3.848Zm0 0"/><path fill="#1c2537" d="m184.645 242.055 11.503 7.77-23.5 10.87ZM196.148 249.824l-11.503-7.77 13.132-5.406Zm0 0"/><path fill="#9a222b" d="m184.645 242.055-11.997 18.64-4.07-11.535Zm0 0"/><path fill="#d8efe6" d="m172.734 223.594 11.91 18.46-16.066 7.106Zm0 0"/><path fill="#ee5457" d="m172.734 223.594-5.297-10.469 21.454 6.621Zm0 0"/><path fill="#d6e5dc" d="m186.574 200.031-19.137 13.094-1.773-5.805Zm0 0"/><path fill="#f04e52" d="m188.89 219.746-21.452-6.621 19.136-13.094Zm0 0"/><path fill="#9cdbc9" d="m274.125 218.844-3.773-17.457 27.3 9.976Zm0 0"/><path fill="#97dfcc" d="m274.125 218.844 23.527-7.48-20.636 14.73Zm0 0"/><path fill="#f04e52" d="m240.988 183.965 18.754-9.77 10.61 27.192Zm0 0"/><path fill="#d9d7d0" d="m270.352 201.387 3.773 17.457-37.324-15.067Zm0 0"/><path fill="#d9ede4" d="m236.8 203.777 37.325 15.067-32.332 10.164Zm0 0"/><path fill="#f04e52" d="m211.531 246.809 25.371-7.075-6.367 18.016Zm0 0"/><path fill="#ee4c51" d="m236.902 239.734 7.72 12.786-14.087 5.23Zm0 0"/><path fill="#f14e52" d="m224.91 198.316 11.89 5.461-6.39 22.778Zm0 0"/><path fill="#6f2430" d="m216.102 208.523 8.808-10.207 5.5 28.239Zm0 0"/><path fill="#f14e52" d="m236.8 203.777-11.89-5.46 16.078-14.352Zm0 0"/><path fill="#f04d51" d="m224.91 198.316-8.808 10.207-5.125-13.406Zm0 0"/><path fill="#1c2537" d="m206.293 226.973 9.809-18.45 14.308 18.032Zm0 0"/><path fill="#1c2537" d="m211.531 246.809-5.238-19.836 24.117-.418ZM216.102 208.523l-9.809 18.45-.695-21.043ZM208.277 366.016l31.66-4.836-22.324 22.832Zm0 0"/><path fill="#d9f1e8" d="m222.457 340.328-14.18 25.688-24.367-22.012ZM208.277 366.016l14.18-25.688 17.48 20.852Zm0 0"/><path fill="#1c2537" d="m208.277 366.016 9.336 17.996-16.328-8.688Zm0 0"/><path fill="#1c2638" d="m254.16 321.137-28.605.43 6.695-38.915ZM225.555 321.566l-10.645-29.539 17.34-9.375Zm0 0"/><path fill="#96e0cc" d="m191.633 317.148 33.922 4.418-3.098 18.762Zm0 0"/><path fill="#1c2638" d="m214.91 292.027 10.645 29.54-25.633-25.762Zm0 0"/><path fill="#95e0cc" d="m225.555 321.566-33.922-4.418 8.289-21.343Zm0 0"/><path fill="#97e0cc" d="m254.781 331.016-29.226-9.45 28.605-.43Zm0 0"/><path fill="#95e0cc" d="m222.457 340.328 3.098-18.762 29.226 9.45Zm0 0"/><path fill="#f04e52" d="m0 19.352 27.082-5.743L.051 51.273Zm0 0"/><path fill="#1c2537" d="m69.754 244.957 39.742-8.11L98.2 252.485Zm0 0"/><path fill="#1c2537" d="m109.496 236.848-39.742 8.109 4.039-21.852ZM109.496 236.848l9.32 28.375L98.2 252.484Zm0 0"/><path fill="#9e242d" d="m212.7 145.133-14.2-22.11 28.766 5.364Zm0 0"/><path fill="#1c2537" d="m198.5 123.023 10.441-9.703 18.325 15.067Zm0 0"/><path fill="#1e2537" d="m208.941 113.32-10.441 9.703-9.777-14.109Zm0 0"/><path fill="#f04e52" d="m240.988 183.965 29.364 17.422-33.551 2.39Zm0 0"/><path fill="#f04d51" d="m236.902 239.734-25.37 7.075 18.878-20.254Zm0 0"/><path fill="#f04e52" d="m241.793 229.008-4.89 10.726-6.493-13.18Zm0 0"/><path fill="#f14e52" d="m256.559 156.73 3.183 17.465-18.754 9.77Zm0 0"/><path fill="#f04d51" d="m252.313 139.52-25.047-11.133 14.496-12.762Zm0 0"/><path fill="#96e0cc" d="m252.313 139.52-10.551-23.895 34.242 6.723Zm0 0"/><path fill="#f04d51" d="m265.105 244.367-28.203-4.633 4.891-10.726Zm0 0"/><path fill="#1e2537" d="m244.621 252.52-7.719-12.786 28.203 4.633Zm0 0"/><path fill="#f04d51" d="m221.152 178.828 3.758 19.488-13.933-3.199Zm0 0"/><path fill="#9e252e" d="m202.742 184.945 18.41-6.117-10.175 16.29Zm0 0"/><path fill="#1d2537" d="m221.152 178.828-18.41 6.117 1.516-8.027Zm0 0"/><path fill="#daebe3" d="m221.152 178.828 12.489-8.613 7.347 13.75Zm0 0"/><path fill="#f14e52" d="m224.91 198.316-3.758-19.488 19.836 5.137Zm0 0"/><path fill="#d5ece2" d="m256.559 156.73-15.57 27.235-7.348-13.75Zm0 0"/><path fill="#f14e52" d="m252.313 139.52-23.348 9.71-1.7-20.843Zm0 0"/><path fill="#f04e52" d="m228.965 149.23 23.347-9.71 4.247 17.21Zm0 0"/><path fill="#d9ede4" d="m228.254 163.96.71-14.73 27.595 7.5Zm0 0"/><path fill="#97dfcc" d="m252.313 139.52 15.812 12.128-11.566 5.082Zm0 0"/><path fill="#96e0cc" d="m256.559 156.73 11.566-5.082-8.383 22.547Zm0 0"/><path fill="#95e0cc" d="m259.742 174.195 8.383-22.547 30.543 10.13Zm0 0"/><path fill="#95e0cc" d="m268.125 151.648 7.879-29.3 22.664 39.43Zm0 0"/><path fill="#96dfcc" d="m268.125 151.648-15.812-12.128 23.69-17.172Zm0 0"/><path fill="#d9f1e8" d="m221.152 178.828 7.102-14.867 5.387 6.254Zm0 0"/><path fill="#d9f1e8" d="m228.254 163.96 28.305-7.23-22.918 13.485Zm0 0"/></svg>