<svg xmlns="http://www.w3.org/2000/svg" width="512" height="512" viewBox="0 0 384 384"><path fill="#4a2d2c" d="M21.316 65.02 0 119.68V52.12ZM0 119.68l21.316-54.66-4.203 50.003Zm0 0"/><path fill="#4a3100" d="m243.156 278.191 16.168 14.63-24.715-7.032Zm0 0"/><path fill="#ccbd9c" d="m28.484 195.582 10.203-13.703 10.079 8.215Zm0 0"/><path fill="#c2bb96" d="m38.688 181.879 16.906-13.563-6.828 21.778Zm0 0"/><path fill="#4a2d2b" d="M384 155.133v63.808l-14.965-36.968Zm0 0"/><path fill="#4a2d2c" d="M100.785 112.938 89.211 96.62l28.61-3.125ZM246.55 72.266l35.49-3.918-3.907 18.82Zm0 0"/><path fill="#4b6f48" d="m166.59 181.54 12.777-7.927 8.582 18.727Zm0 0"/><path fill="#4a2d2b" d="m259.324 292.82 7.492 29.418-32.207-36.449Zm0 0"/><path fill="#f6c5b4" d="M119.965 13.953 132.043 0l13.488 29.027Zm0 0"/><path fill="#4a302d" d="m193.02 35.844 26.507 1.586-8.937 11.414Zm0 0"/><path fill="#4a2d2c" d="m21.316 65.02 15.918 33.398-20.12 16.605Zm0 0"/><path fill="#cfbd9e" d="m38.688 181.879-10.204 13.703 1-13.46Zm0 0"/><path fill="#f5c4b3" d="m40.957 137.836-9.344 28.055-4.898-36.618Zm0 0"/><path fill="#cfbd9d" d="m88.754 127.508-11.875 21.539L65 145.46Zm0 0"/><path fill="#e1c1a8" d="m76.879 149.047 11.875-21.54.219 25.622Zm0 0"/><path fill="#4a2d2c" d="m.023 384.02 41.254-33.602L112.512 384Zm0 0"/><path fill="#4a2d2b" d="m108.406 346.688 8.149-.977-4.5 6.945ZM328.832 106.348 384 155.133l-32.34.699Zm0 0"/><path fill="#4a2e2c" d="m335.23 58.203-30.261 23.59-22.93-13.445Zm0 0"/><path fill="#f6c5b4" d="m259.52 263.316-.196 29.504-16.168-14.629Zm0 0"/><path fill="#d5bfa1" d="m325.71 263.887-20.44-47.266 34.761-.64Zm0 0"/><path fill="#e2c1a9" d="m88.754 127.508 18.805-2.383-18.586 28.004Zm0 0"/><path fill="#e1bda3" d="m113.785 151.227-6.226-26.102 19.77 4.969Zm0 0"/><path fill="#bc7045" d="m107.559 125.125 6.226 26.102-24.812 1.902Zm0 0"/><path fill="#e0c1a7" d="m107.559 125.125-18.805 2.383 12.031-14.57Zm0 0"/><path fill="#9d3c04" d="m183.207 195.133-16.617-13.594 21.36 10.8Zm0 0"/><path fill="#993902" d="m149.926 113.824 7.594 11.969-30.192 4.3Zm0 0"/><path fill="#4a2d2c" d="m127.328 130.094 30.192-4.301 3.457 22.062Zm0 0"/><path fill="#9c3901" d="m145.043 178.258-25.64 1.691 23.433-17.746Zm0 0"/><path fill="#4a7049" d="m169.656 224.473-18.125-17.235 14.297-4.097Zm0 0"/><path fill="#4a714a" d="m234.61 285.79-7.825-21.915 16.371 14.316Zm0 0"/><path fill="#f5c5b4" d="m222.84 250.32 3.945 13.555-20.43-14.906Zm0 0"/><path fill="#efc4b0" d="m234.61 285.79-23.876-7.349 16.051-14.566Zm0 0"/><path fill="#e0c1a7" d="m305.27 216.621-32.649-16.457 21.832-37.172Zm0 0"/><path fill="#4a2d2c" d="m294.129 332.75-18.738 26.383-7.993-10.426ZM163.48.012 175.512 0l-19.016 39.043Zm0 0"/><path fill="#f4c5b3" d="m195.195 69.773 3.13 2.465-37.954 14.703Zm0 0"/><path fill="#f6c5b4" d="M110.922-.016 132.043 0l-12.078 13.953Zm0 0"/><path fill="#4a2e2c" d="m82.48 28.238 1.872-7.84 13.285 9.961Zm0 0"/><path fill="#f6c5b4" d="m163.48.012-17.949 29.015L132.043 0Zm0 0"/><path fill="#4a2d2c" d="M145.531 29.027 163.481.012l-6.985 39.031ZM195.195 69.773l-2.175-33.93 17.57 13Zm0 0"/><path fill="#4a2e2c" d="m198.324 72.238 24.633-18.496 7.164 7.594Zm0 0"/><path fill="#492d2c" d="m219.527 37.43 3.43 16.312-12.367-4.898Zm0 0"/><path fill="#4a2d2c" d="m222.957 53.742-24.633 18.496 12.266-23.394Zm0 0"/><path fill="#d47145" d="m230.121 61.336 7.461 30.723-23.89 1.824Zm0 0"/><path fill="#4a2d2c" d="m222.957 53.742 19.867-11.347-12.703 18.94ZM89.21 96.621l8.849-30.226 19.761 27.101ZM98.059 66.395l10.562-7.16 9.2 34.261Zm0 0"/><path fill="#4a2d2c" d="m128.73 62.715-20.109-3.48 19.871-9.954Zm0 0"/><path fill="#dd7a51" d="M198.324 72.238 188.238 94.57l-27.867-7.629Zm0 0"/><path fill="#4a2d2c" d="m31.613 165.89-16.62-35.292 11.722-1.325Zm0 0"/><path fill="#4b2e2d" d="m17.113 115.023-2.12 15.575L0 119.68Zm0 0"/><path fill="#4a2d2c" d="m26.715 129.273-11.723 1.325 2.121-15.575Zm0 0"/><path fill="#4a2e2c" d="M82.48 28.238 62.227 49.223l-.93-23.305Zm0 0"/><path fill="#497049" d="M72.375 0 59.902 11.34 52.258-.004Zm0 0"/><path fill="#973802" d="m119.402 179.95-5.617-28.723 29.05 10.976Zm0 0"/><path fill="#4a2d2b" d="m142.836 162.203-29.05-10.976 13.542-21.133Zm0 0"/><path fill="#4a2d2c" d="m0 273.785.004-23.633 16.598 4.657Zm0 0"/><path fill="#eebfae" d="M12.555 199.54-.004 221.085v-33.09Zm0 0"/><path fill="#ecc3af" d="m12.555 199.54 4.718 21.452-17.277.094Zm0 0"/><path fill="#f4c5b3" d="m17.273 220.992-4.718-21.453 15.93-3.957Zm0 0"/><path fill="#4b2d2b" d="m51.11 215.754 20.882 8.312-15.976 10.707Zm0 0"/><path fill="#cdbd9c" d="m33.215 233.559 17.894-17.805 4.907 19.02Zm0 0"/><path fill="#9c3900" d="m65.91 194.172 12.137-13.774L86.824 185Zm0 0"/><path fill="#4a2d2b" d="m86.824 185 30.86 14.484-45.692 24.582Zm0 0"/><path fill="#9c3900" d="m121.695 212.973-4.011-13.489 17.906-1.12Zm0 0"/><path fill="#4a2e2d" d="m14.762 183.305 16.851-17.414-2.129 16.23Zm0 0"/><path fill="#4a2d2c" d="m14.762 183.305.23-52.707 16.621 35.293ZM14.762 183.305l-14.766 4.691L0 119.68Zm0 0"/><path fill="#4b2e2d" d="m14.992 130.598-.23 52.707L0 119.68Zm0 0"/><path fill="#4a2d2b" d="m83.152 120.406-27.726-8.199 8.156-11.785Zm0 0"/><path fill="#4a2d2c" d="m89.21 96.621-6.058 23.785-19.57-19.984Zm0 0"/><path fill="#c8bc99" d="m83.152 120.406 5.602 7.102L65 145.46Zm0 0"/><path fill="#4c2f2d" d="m55.426 112.207 27.726 8.2L65 145.46Zm0 0"/><path fill="#4a2d2c" d="m83.152 120.406 6.059-23.785 11.574 16.317Zm0 0"/><path fill="#cdbd9c" d="m88.754 127.508-5.602-7.102 17.633-7.469Zm0 0"/><path fill="#4f3230" d="m31.613 165.89 9.344-28.054 14.637 30.48Zm0 0"/><path fill="#c7bc99" d="m31.613 165.89 23.98 2.426-16.906 13.563Zm0 0"/><path fill="#d1be9f" d="m31.613 165.89 7.075 15.989-9.204.242Zm0 0"/><path fill="#4e312e" d="M40.957 137.836 65 145.46l-9.406 22.855Zm0 0"/><path fill="#d59d7e" d="m86.824 185 2.149-31.871 24.812-1.902Zm0 0"/><path fill="#e3a98f" d="M88.973 153.129 86.824 185l-8.777-4.602Zm0 0"/><path fill="#ddc0a5" d="m117.371 322.984 10.61-20.238 35.687 39.227Zm0 0"/><path fill="#f5c5b4" d="m117.371 322.984 46.297 18.989-47.113 3.738Zm0 0"/><path fill="#4a2d2c" d="m202.078 384-43.297-22.48 47.477 5.296Zm0 0"/><path fill="#492d2c" d="M158.781 361.52 202.078 384h-89.566Zm0 0"/><path fill="#cea394" d="m.023 384.02-.039-70.301 41.293 36.699Zm0 0"/><path fill="#4a2d2c" d="m41.277 350.418-41.293-36.7 49.727 12.919ZM99.047 353.031 112.512 384l-71.235-33.582Zm0 0"/><path fill="#4a2d2b" d="M29.543 287.586 0 273.786l16.602-18.977Zm0 0"/><path fill="#e1c1a8" d="m66.973 261.441 30.215-14.128 5.195 25.12Zm0 0"/><path fill="#4a2d2b" d="M99.047 353.031 49.71 326.637l51.777 13.168Zm0 0"/><path fill="#4a2d2a" d="m49.71 326.637 49.337 26.394-57.77-2.613Zm0 0"/><path fill="#4a2d2b" d="m369.035 181.973-5.125-9.286L384 155.134Zm0 0"/><path fill="#4a2d2b" d="m363.91 172.688-12.25-16.856 32.34-.7ZM335.23 58.203 384 81.653l-55.168 24.695Zm0 0"/><path fill="#4a2d2b" d="M363.91 172.688 356.297 180l-4.637-24.168ZM356.297 180l7.613-7.312 5.125 9.285Zm0 0"/><path fill="#e7c2ab" d="m356.297 180-20.18-7.488 15.543-16.68Zm0 0"/><path fill="#ecc3af" d="m336.117 172.512 20.18 7.488-16.266 35.98Zm0 0"/><path fill="#dac0a4" d="m336.117 172.512-30.847 44.11-10.817-53.63Zm0 0"/><path fill="#d6bfa2" d="m336.117 172.512 3.914 43.468-34.761.641Zm0 0"/><path fill="#4a2d2c" d="M299.66.027 384 0l-48.77 58.203Zm0 0"/><path fill="#f6c5b4" d="m259.52 263.316 24.48 13.09-24.676 16.414Zm0 0"/><path fill="#4a3100" d="M277.594 240.918 284 276.406l-24.48-13.09Zm0 0"/><path fill="#e1c1a8" d="m277.594 240.918 24.312 22.531L284 276.406Zm0 0"/><path fill="#dfc1a7" d="m277.594 240.918 27.676-24.297-3.364 46.828Zm0 0"/><path fill="#d8bfa3" d="m305.27 216.621 20.44 47.266-23.804-.438Zm0 0"/><path fill="#e2c1a9" d="m240.602 90.863 5.949-18.597 31.582 14.902Zm0 0"/><path fill="#4a7049" d="m179.367 173.613-13.96-7.894 12.316-2.805Zm0 0"/><path fill="#4a7049" d="m166.59 181.54-1.184-15.821 13.961 7.894Zm0 0"/><path fill="#9a3800" d="m165.406 165.719-22.57-3.516 18.14-14.348Zm0 0"/><path fill="#4a2d2b" d="m142.836 162.203-15.508-32.11 33.649 17.762Zm0 0"/><path fill="#f6c5b4" d="m183.207 195.133-17.379 8.008.762-21.602Zm0 0"/><path fill="#f5c3b2" d="m165.828 203.14 17.379-8.007 3.844 14.492Zm0 0"/><path fill="#4a6e47" d="m169.656 224.473-3.828-21.332 21.223 6.484Zm0 0"/><path fill="#f6c5b4" d="m153.008 193.703-1.477 13.535-15.941-8.875Zm0 0"/><path fill="#f5c5b4" d="m151.531 207.238 1.477-13.535 12.82 9.438Zm0 0"/><path fill="#f6c5b4" d="m153.008 193.703 13.582-12.164-.762 21.602Zm0 0"/><path fill="#9b3900" d="m204.988 211.074-13.129 8.883-4.808-10.332Zm0 0"/><path fill="#492d2c" d="M304.152 359.266 280.29 384l-4.898-24.867Zm0 0"/><path fill="#4a2d2b" d="m337.422 329.563 22.96-39.227L384 303.172Zm0 0"/><path fill="#f5c5b4" d="m292.164 330.047-24.766 18.66-3.71-18.887Zm0 0"/><path fill="#f1c4b1" d="m292.164 330.047 1.965 2.703-26.73 15.957Zm0 0"/><path fill="#4a2d2c" d="M294.129 332.75 312 314.914l25.422 14.649Zm0 0"/><path fill="#dbc0a5" d="m301.906 263.45 5.89 27.714L284 276.406Zm0 0"/><path fill="#4a3100" d="m291.55 308.04-32.226-15.22L284 276.406Zm0 0"/><path fill="#dfc1a7" d="M307.797 291.164 291.55 308.04 284 276.406Zm0 0"/><path fill="#ebc3ae" d="m291.55 308.04 16.247-16.876-7.809 21.617Zm0 0"/><path fill="#4a2d2b" d="m291.55 308.04-24.734 14.198-7.492-29.418Zm0 0"/><path fill="#4a7049" d="M193.02 35.844 175.512 0l42.277-.008ZM193.02 35.844 217.79-.008l1.737 37.438Zm0 0"/><path fill="#4a6e49" d="m175.512 0 17.508 35.844-36.524 3.199Zm0 0"/><path fill="#4a2d2c" d="m198.324 72.238-3.129-2.465 15.395-20.93Zm0 0"/><path fill="#f6c5b4" d="m84.352 20.398-1.872 7.84-21.183-2.32Zm0 0"/><path fill="#4a7049" d="m59.902 11.34 24.45 9.058-23.055 5.52Zm0 0"/><path fill="#4a7049" d="m84.352 20.398-24.45-9.058L72.375 0ZM243.68 22.898 217.79-.008l81.87.035Zm0 0"/><path fill="#4a7049" d="M243.68 22.898 219.527 37.43 217.79-.008Zm0 0"/><path fill="#4a7049" d="m219.527 37.43 24.153-14.532-.856 19.497Zm0 0"/><path fill="#4a2f2d" d="m222.957 53.742-3.43-16.312 23.297 4.965Zm0 0"/><path fill="#4a714a" d="M280.512 58.684 243.68 22.898 299.66.028Zm0 0"/><path fill="#f4c5b3" d="m230.121 61.336-27.309 15.61-4.488-4.708Zm0 0"/><path fill="#dd7a51" d="m198.324 72.238 4.488 4.707-14.574 17.625Zm0 0"/><path fill="#dd7a51" d="m202.813 76.945 10.878 16.938-25.453.687Zm0 0"/><path fill="#e0835d" d="m202.813 76.945 27.308-15.61-16.43 32.548Zm0 0"/><path fill="#dbbfa4" d="m230.121 61.336 16.43 10.93-5.95 18.597Zm0 0"/><path fill="#a23f08" d="m237.582 92.059-7.46-30.723 10.48 29.527Zm0 0"/><path fill="#4a2d2b" d="m230.121 61.336 12.703-18.941 3.727 29.87Zm0 0"/><path fill="#cabc9a" d="m134.695 104.527-33.91 8.41 17.035-19.44Zm0 0"/><path fill="#ddc0a6" d="m134.695 104.527-27.136 20.598-6.774-12.187Zm0 0"/><path fill="#d7a486" d="m134.695 104.527 15.23 9.297-22.597 16.27Zm0 0"/><path fill="#9e3d05" d="m107.559 125.125 27.136-20.598-7.367 25.567Zm0 0"/><path fill="#f2c1b1" d="m108.621 59.234-16.988-7.363 36.86-2.59Zm0 0"/><path fill="#f6c5b4" d="M98.059 66.395 91.633 51.87l16.988 7.363Zm0 0"/><path fill="#4a2d2c" d="m128.492 49.281-36.86 2.59 6.005-21.512Zm0 0"/><path fill="#4a2e2c" d="M91.633 51.871 82.48 28.238l15.157 2.121Zm0 0"/><path fill="#dfc0a6" d="m55.82 91.535-18.586 6.883 9.434-34.043Zm0 0"/><path fill="#e2c1a9" d="m134.695 104.527 1.075-17.925 24.601.34Zm0 0"/><path fill="#4a2d2c" d="m135.77 86.602 4.921-25.438 19.68 25.777Zm0 0"/><path fill="#4a2d2c" d="m140.691 61.164-4.921 25.438-7.04-23.887Zm0 0"/><path fill="#cfbe9d" d="m135.77 86.602-1.075 17.925-16.875-11.03Zm0 0"/><path fill="#4a2d2c" d="m108.621 59.234 27.149 27.368-17.95 6.894Zm0 0"/><path fill="#4a2d2c" d="m128.73 62.715 7.04 23.887-27.149-27.368Zm0 0"/><path fill="#4a2d2b" d="m128.492 49.281 12.2 11.883-11.962 1.55Zm0 0"/><path fill="#9c3900" d="m149.926 113.824 38.312-19.254-30.718 31.223Zm0 0"/><path fill="#cb6c3f" d="m149.926 113.824-15.23-9.297 25.675-17.586Zm0 0"/><path fill="#dd7c53" d="m188.238 94.57-38.312 19.254 10.445-26.883Zm0 0"/><path fill="#4c714b" d="m42.555 11.535 17.347-.195-10.586 8.273Zm0 0"/><path fill="#497049" d="m59.902 11.34-17.347.195L52.258-.004Zm0 0"/><path fill="#4a714a" d="m59.902 11.34 1.395 14.578-11.98-6.305Zm0 0"/><path fill="#4a7049" d="M42.555 11.535 35.023.027l17.235-.03Zm0 0"/><path fill="#f6c5b4" d="m14.57-.004 20.453.031-4.535 10.93Zm0 0"/><path fill="#eec4af" d="m31.508 17.727 11.047-6.192 6.761 8.078Zm0 0"/><path fill="#f6c5b4" d="m61.297 25.918-12.531 1.273.55-7.578Zm0 0"/><path fill="#4a2d2c" d="M62.227 49.223 48.766 27.19l12.53-1.273Zm0 0"/><path fill="#4a2e2c" d="m48.766 27.191 13.46 22.032-21.968-.688Zm0 0"/><path fill="#4a2d2c" d="m21.316 65.02.11-29.137 18.832 12.652Zm0 0"/><path fill="#edc4af" d="m47.395 244.867-14.18-11.308 22.8 1.214Zm0 0"/><path fill="#f6c5b4" d="m-.004 221.086 8.625 14.894-8.625-.097Zm0 0"/><path fill="#f4c5b3" d="M17.273 220.992 8.621 235.98l-8.625-14.894Zm0 0"/><path fill="#4a2d2c" d="m8.621 235.98 8.652-14.988 5.973 14.676ZM8.621 235.98l14.625-.312-6.644 19.14Zm0 0"/><path fill="#f6c5b4" d="M8.621 235.98.004 250.152l-.008-14.27Zm0 0"/><path fill="#4a2d2c" d="M.004 250.152 8.62 235.98l7.98 18.829ZM29.555 221.652l-12.282-.66 11.211-25.41ZM29.555 221.652l3.66 11.907-9.969 2.109ZM17.273 220.992l12.282.66-6.309 14.016Zm0 0"/><path fill="#cdbd9d" d="m51.11 215.754-21.555 5.898-1.07-26.07Zm0 0"/><path fill="#d1be9e" d="m29.555 221.652 21.554-5.898-17.894 17.805Zm0 0"/><path fill="#cbbd9b" d="m51.11 215.754-22.626-20.172 20.282-5.488Zm0 0"/><path fill="#ebc3ae" d="m65.91 194.172-14.8 21.582-2.344-25.66Zm0 0"/><path fill="#9c3900" d="m51.11 215.754 14.8-21.582 6.082 29.894Zm0 0"/><path fill="#f3c3b1" d="M65.91 194.172 86.824 185l-14.832 39.066Zm0 0"/><path fill="#9c3900" d="m65.91 194.172-1.05-13.98 13.187.206Zm0 0"/><path fill="#eac3ad" d="m55.594 168.316 9.265 11.875-16.093 9.903Zm0 0"/><path fill="#edc4af" d="m64.86 180.191 1.05 13.98-17.144-4.077Zm0 0"/><path fill="#f6c5b4" d="m145.043 178.258-9.453 20.105-16.188-18.414ZM153.008 193.703l-17.418 4.66 9.453-20.105Zm0 0"/><path fill="#9d3b02" d="m135.59 198.363-17.906 1.121 1.718-19.535Zm0 0"/><path fill="#4a7049" d="m140.762 217.64 10.77-10.402 18.124 17.235Zm0 0"/><path fill="#f6c5b4" d="m151.531 207.238-10.77 10.403-5.171-19.278Zm0 0"/><path fill="#f6c5b4" d="m140.762 217.64-19.067-4.667 13.895-14.61Zm0 0"/><path fill="#ddc0a6" d="m115.04 257.395-12.657 15.039-5.195-25.122Zm0 0"/><path fill="#4e312f" d="m28.484 195.582-13.722-12.277 14.722-1.184Zm0 0"/><path fill="#f3c3b2" d="m14.762 183.305 13.722 12.277-15.93 3.957Zm0 0"/><path fill="#d9ab9b" d="m-.004 187.996 14.766-4.691-2.207 16.234Zm0 0"/><path fill="#f6c5b4" d="m55.426 112.207-6.227-3.656 14.383-8.13Zm0 0"/><path fill="#f0c4b1" d="m49.2 108.55 6.62-17.015 7.762 8.887Zm0 0"/><path fill="#f1c4b1" d="m55.82 91.535-6.62 17.016-11.966-10.133Zm0 0"/><path fill="#b78f82" d="m49.2 108.55-22.485 20.723 10.52-30.855Zm0 0"/><path fill="#4c2f2e" d="m37.234 98.418-10.52 30.855-9.6-14.25Zm0 0"/><path fill="#4c2f2d" d="m40.957 137.836 14.469-25.629L65 145.461Zm0 0"/><path fill="#f3c4b2" d="m40.957 137.836 8.242-29.285 6.227 3.656Zm0 0"/><path fill="#cfbb9d" d="M71.684 169.613 65 145.461l11.879 3.586Zm0 0"/><path fill="#e4c1a9" d="m88.973 153.129-17.29 16.484 5.196-20.566Zm0 0"/><path fill="#d0ba9c" d="m65 145.46 6.684 24.153-16.09-1.297Zm0 0"/><path fill="#f2c3b0" d="m71.684 169.613-6.825 10.578-9.265-11.875Zm0 0"/><path fill="#9c3900" d="m71.684 169.613 17.289-16.484-10.926 27.27Zm0 0"/><path fill="#9b3900" d="m64.86 180.191 6.824-10.578 6.363 10.785Zm0 0"/><path fill="#d9c0a3" d="m186.625 312.16-58.645-9.414 10.16-28.91Zm0 0"/><path fill="#ddc0a6" d="m127.98 302.746 58.645 9.414-22.957 29.813Zm0 0"/><path fill="#dbc0a4" d="m115.04 257.395 23.1 16.44-35.757-1.401Zm0 0"/><path fill="#4a2d2c" d="m138.14 273.836-23.1-16.441 20.983-8.762Zm0 0"/><path fill="#dec0a6" d="m138.14 273.836-10.16 28.91-25.597-30.312Zm0 0"/><path fill="#492d2c" d="m120.625 350.582 38.156 10.938-46.27 22.48Zm0 0"/><path fill="#4a2d2b" d="M120.625 350.582 112.512 384l-.457-31.344Zm0 0"/><path fill="#f5c5b4" d="m158.781 361.52-38.156-10.938 43.043-8.61Zm0 0"/><path fill="#4a2d2b" d="m116.555 345.71 4.07 4.872-8.57 2.074Zm0 0"/><path fill="#f6c5b4" d="m163.668 341.973-43.043 8.609-4.07-4.871Zm0 0"/><path fill="#4a2d2c" d="m112.512 384-13.465-30.969 13.008-.375Zm0 0"/><path fill="#4a2d2b" d="m99.047 353.031 9.36-6.344 3.648 5.97Zm0 0"/><path fill="#492d2c" d="m108.406 346.688-9.36 6.343 2.442-13.226Zm0 0"/><path fill="#4a2d2c" d="m0 273.785 29.543 13.8L-.016 313.72Zm0 0"/><path fill="#e0c1a7" d="m76.035 280.512-9.062-19.07 35.41 10.992Zm0 0"/><path fill="#4a2d2c" d="m66.41 304.156 5.5 7.61-22.2 14.87Zm0 0"/><path fill="#4a2d2c" d="m56.34 291.54 10.07 12.616-16.7 22.48Zm0 0"/><path fill="#eec4b0" d="m76.035 280.512-9.625 23.644-10.07-12.617Zm0 0"/><path fill="#cab99a" d="m336.117 172.512-14.039-36.79 29.582 20.11Zm0 0"/><path fill="#dec0a6" d="m322.078 135.723 14.04 36.789-41.665-9.52Zm0 0"/><path fill="#4a2d2b" d="M384 81.652v73.48l-55.168-48.784Zm0 0"/><path fill="#cabb9a" d="m328.832 106.348 22.828 49.484-29.582-20.11Zm0 0"/><path fill="#4a2d2c" d="m304.969 81.793 30.261-23.59-6.398 48.145Zm0 0"/><path fill="#4c322e" d="m280.512 58.684 54.718-.48-53.19 10.144Zm0 0"/><path fill="#4a7049" d="M280.512 58.684 299.66.027l35.57 58.176Zm0 0"/><path fill="#e2c1a8" d="m269.328 108.637-28.726-17.774 37.53-3.695Zm0 0"/><path fill="#e4c1a9" d="m240.602 90.863 28.726 17.774-24.203 4.418Zm0 0"/><path fill="#dec1a6" d="m269.328 108.637-.61 22.336-23.593-17.918Zm0 0"/><path fill="#9b3800" d="m177.723 162.914-12.317 2.805-4.43-17.864Zm0 0"/><path fill="#f6c5b4" d="m166.59 181.54-13.582 12.163-7.965-15.445Zm0 0"/><path fill="#9b3900" d="m166.59 181.54-23.754-19.337 22.57 3.516Zm0 0"/><path fill="#9b3900" d="m166.59 181.54-21.547-3.282-2.207-16.055Zm0 0"/><path fill="#4a7049" d="m138.281 239.023 2.48-21.382 28.895 6.832Zm0 0"/><path fill="#e2c1a8" d="m192.934 292.898-6.309 19.262-48.484-38.324Zm0 0"/><path fill="#4a7049" d="m170.148 226.035-31.867 12.988 31.375-14.55Zm0 0"/><path fill="#f6c5b4" d="m138.281 239.023 31.867-12.988-3.832 23.145Zm0 0"/><path fill="#e0c1a8" d="m277.594 240.918-4.719-19.645 32.395-4.652Zm0 0"/><path fill="#f5c5b4" d="m272.875 221.273 4.719 19.645-29.95 4.648Zm0 0"/><path fill="#f6c5b4" d="m272.875 221.273-25.23 24.293-6.665-7.605Zm0 0"/><path fill="#4a3100" d="m277.594 240.918-18.074 22.398-11.875-17.75Zm0 0"/><path fill="#9b3800" d="m187.95 192.34 17.038 18.734-17.937-1.449Zm0 0"/><path fill="#9c3900" d="m187.95 192.34 20.437 10.972-3.399 7.762Zm0 0"/><path fill="#f5c5b4" d="m183.207 195.133 4.742-2.793-.898 17.285Zm0 0"/><path fill="#4a2f2c" d="m217.3 365-4.554 7.406-6.488-5.59Zm0 0"/><path fill="#4a2d2c" d="m202.078 384 10.668-11.594L228.766 384Zm0 0"/><path fill="#4a2d2c" d="M212.746 372.406 202.078 384l4.18-17.184ZM238.012 362.832l29.386-14.125 7.993 10.426Zm0 0"/><path fill="#f5c5b4" d="M215.012 342.813 217.3 365l-11.043 1.816Zm0 0"/><path fill="#4a2d2c" d="M304.152 359.266 384 384H280.29ZM304.152 359.266 294.13 332.75l43.293-3.187Zm0 0"/><path fill="#4a2d2c" d="m294.129 332.75 10.023 26.516-28.761-.133ZM337.422 329.563 384 303.172V384Zm0 0"/><path fill="#4a2d2c" d="m280.29 384-42.278-21.168 37.379-3.7ZM238.012 362.832 280.289 384h-51.523Zm0 0"/><path fill="#4a2d2b" d="m384 303.172-7.242-82.598 7.242-1.633Zm0 0"/><path fill="#4a2d2b" d="m360.383 290.336 16.375-69.762L384 303.172ZM384 218.941l-7.242 1.633-7.723-38.601Zm0 0"/><path fill="#4a2d2b" d="m376.758 220.574-18.426-5.707 10.703-32.894Zm0 0"/><path fill="#4a2d2b" d="M358.332 214.867 356.297 180l12.738 1.973Zm0 0"/><path fill="#eac2ad" d="m356.297 180 2.035 34.867-18.3 1.113Zm0 0"/><path fill="#d3bea0" d="m291.55 308.04-3.597 15.55-21.137-1.352Zm0 0"/><path fill="#e4c2aa" d="m287.953 323.59 3.598-15.55 8.437 4.741Zm0 0"/><path fill="#f2c5b2" d="m266.816 322.238 21.137 1.352-24.265 6.23Zm0 0"/><path fill="#eec4af" d="m287.953 323.59 4.211 6.457-28.476-.227Zm0 0"/><path fill="#4a2d2c" d="m312 314.914 14.367-18.504 11.055 33.152Zm0 0"/><path fill="#d8bfa3" d="m325.71 263.887-17.913 27.277-5.89-27.715Zm0 0"/><path fill="#4a6f49" d="m110.922-.016-26.57 20.414L72.375 0Zm0 0"/><path fill="#503231" d="m105.336 15.426 5.586-15.442 9.043 13.97Zm0 0"/><path fill="#4a2d2c" d="m105.336 15.426 23.156 33.855L97.637 30.36Zm0 0"/><path fill="#4a2d2c" d="m84.352 20.398 20.984-4.972-7.7 14.933Zm0 0"/><path fill="#f6c5b4" d="m110.922-.016-5.586 15.442-20.984 4.972Zm0 0"/><path fill="#4a2d2c" d="m242.824 42.395 37.688 16.289-33.961 13.582Zm0 0"/><path fill="#4a7049" d="m243.68 22.898 36.832 35.786-37.688-16.29Zm0 0"/><path fill="#4a2d2c" d="m280.512 58.684 1.527 9.664-35.488 3.918Zm0 0"/><path fill="#84350d" d="m235.348 111.906 2.234-19.847 7.543 20.996Zm0 0"/><path fill="#f2c2b0" d="m237.582 92.059 3.02-1.196 4.523 22.192Zm0 0"/><path fill="#9b3901" d="m205.11 133.965 4.156-11.848 11.87 10.336Zm0 0"/><path fill="#4a2d2b" d="m209.266 122.117 26.082-10.21-14.211 20.546Zm0 0"/><path fill="#4a2d2c" d="m91.633 51.871-29.406-2.648L82.48 28.238ZM62.227 49.223 46.668 64.375l-6.41-15.84Zm0 0"/><path fill="#4a2e2c" d="m156.496 39.043 36.524-3.2 2.175 33.93Zm0 0"/><path fill="#4a2d2c" d="m156.496 39.043 38.7 30.73-34.825 17.168ZM140.691 61.164l15.805-22.121 3.875 47.898Zm0 0"/><path fill="#4a2e2c" d="m156.496 39.043-28.004 10.238 17.04-20.254Zm0 0"/><path fill="#4a2d2c" d="m140.691 61.164-12.199-11.883 28.004-10.238Zm0 0"/><path fill="#f2c3b1" d="m128.492 49.281-8.527-35.328 25.566 15.074Zm0 0"/><path fill="#4a2d2c" d="m128.492 49.281-23.156-33.855 14.629-1.473ZM14.57-.004l6.856 35.887L0 .003ZM21.426 35.883 0 52.12V.004Zm0 0"/><path fill="#f3c5b2" d="m48.766 27.191-17.258-9.464 17.808 1.886Zm0 0"/><path fill="#4a2d2c" d="m21.426 35.883 27.34-8.692-8.508 21.344Zm0 0"/><path fill="#4a2d2c" d="m31.508 17.727 17.258 9.464-27.34 8.692Zm0 0"/><path fill="#f1c4b2" d="m31.508 17.727-1.02-6.77 12.067.578Zm0 0"/><path fill="#f4c5b3" d="M30.488 10.957 35.023.027l7.532 11.508Zm0 0"/><path fill="#4a2d2c" d="m46.668 64.375-25.352.645 18.942-16.485Zm0 0"/><path fill="#4b2e2d" d="M37.234 98.418 21.316 65.02l25.352-.645Zm0 0"/><path fill="#4a2d2c" d="M21.316 65.02 0 52.12l21.426-16.238Zm0 0"/><path fill="#4a2d2b" d="m29.543 287.586 8.387-33.961 11.492 25.113Zm0 0"/><path fill="#4a2d2c" d="m23.246 235.668 14.684 17.957-21.328 1.184Zm0 0"/><path fill="#4a2d2b" d="m37.93 253.625-8.387 33.96-12.941-32.776Zm0 0"/><path fill="#4a2d2c" d="m33.215 233.559 4.715 20.066-14.684-17.957Zm0 0"/><path fill="#efc3b0" d="m47.395 244.867-9.465 8.758-4.715-20.066Zm0 0"/><path fill="#e1c0a8" d="m66.973 261.441-10.957-26.668 41.172 12.54Zm0 0"/><path fill="#9c3900" d="M119.402 179.95 86.824 185l26.961-33.773ZM119.402 179.95l-1.718 19.534L86.824 185Zm0 0"/><path fill="#f6c5b4" d="m140.762 217.64-12.512 23.84-6.555-28.507Zm0 0"/><path fill="#4a2d2b" d="m115.04 257.395 13.21-15.915 7.773 7.153Zm0 0"/><path fill="#cf8d6f" d="m128.25 241.48 10.031-2.457-2.258 9.61Zm0 0"/><path fill="#f6c5b4" d="m138.281 239.023-10.031 2.457 12.512-23.84Zm0 0"/><path fill="#4a2d2b" d="m108.406 346.688 1.696-3.965 6.453 2.988Zm0 0"/><path fill="#eec4af" d="m110.102 342.723 7.27-19.739-.817 22.727Zm0 0"/><path fill="#4a2d2c" d="m110.102 342.723-1.696 3.964-6.918-6.882Zm0 0"/><path fill="#efc4b0" d="m117.371 322.984-7.27 19.739-8.613-2.918Zm0 0"/><path fill="#4a2d2b" d="m79.102 319.766-29.391 6.87 22.2-14.87ZM49.71 326.637l29.392-6.871 22.386 20.039Zm0 0"/><path fill="#eac3ad" d="m79.102 319.766 38.27 3.218-15.884 16.82Zm0 0"/><path fill="#eec4af" d="m91.941 299.387-12.84 20.379-7.19-8Zm0 0"/><path fill="#eec4b0" d="m79.102 319.766 12.84-20.38 25.43 23.598Zm0 0"/><path fill="#4a2d2c" d="m170.824 259.785 22.11 33.113-54.793-19.062ZM144.93 261.559l25.894-1.774-32.683 14.05ZM144.93 261.559l-6.79 12.277-2.117-25.203ZM-.016 313.719l29.559-26.133 20.168 39.05Zm0 0"/><path fill="#4a2d2b" d="m29.543 287.586 26.797 3.953-6.63 35.098Zm0 0"/><path fill="#ccbd9b" d="m300.91 108.293 27.922-1.945-6.754 29.375Zm0 0"/><path fill="#dbc0a5" d="m300.91 108.293-31.582.344 8.805-21.469Zm0 0"/><path fill="#d7bfa2" d="m269.328 108.637 31.582-.344-32.191 22.68Zm0 0"/><path fill="#dcc0a5" d="m294.453 162.992 6.457-54.699 21.168 27.43Zm0 0"/><path fill="#dac0a4" d="m268.719 130.973 32.191-22.68-6.457 54.7Zm0 0"/><path fill="#4a2d2c" d="m282.04 68.348 22.929 13.445-26.836 5.375ZM304.969 81.793l-4.059 26.5-22.777-21.125Zm0 0"/><path fill="#d0bd9e" d="m300.91 108.293 4.059-26.5 23.863 24.555Zm0 0"/><path fill="#492d2c" d="m384 81.652-48.77-23.449L384 0Zm0 0"/><path fill="#9b3900" d="m193.984 124.488-33.007 23.367-3.457-22.062Zm0 0"/><path fill="#9c3900" d="m160.977 147.855 33.007-23.367-16.261 38.426Zm0 0"/><path fill="#9b3900" d="m244.469 119.223-9.121-7.317 9.777 1.149Zm0 0"/><path fill="#e2c1a9" d="m268.719 130.973-24.25-11.75.656-6.168Zm0 0"/><path fill="#e2c1a8" d="m251.242 141.516-6.773-22.293 24.25 11.75Zm0 0"/><path fill="#9b3800" d="m235.348 111.906 9.12 7.317-23.331 13.23Zm0 0"/><path fill="#9c3900" d="m244.469 119.223 6.773 22.293-30.105-9.063Zm0 0"/><path fill="#f4c5b3" d="m210.734 278.441-15.363-8.148 31.414-6.418Zm0 0"/><path fill="#4a2d2c" d="m192.934 292.898 2.437-22.605 15.363 8.148Zm0 0"/><path fill="#f5c5b4" d="m226.785 263.875-31.414 6.418 10.984-21.324Zm0 0"/><path fill="#4a2d2b" d="m195.371 270.293-2.437 22.605-22.11-33.113Zm0 0"/><path fill="#4b2e2c" d="m234.61 285.79-41.676 7.108 17.8-14.457Zm0 0"/><path fill="#4a7049" d="m226.785 263.875 15.004-3.86 1.367 18.176Zm0 0"/><path fill="#4a7049" d="m241.79 260.016 17.73 3.3-16.364 14.875Zm0 0"/><path fill="#e1c1a8" d="m272.621 200.164-8.828-20.379 30.66-16.793Zm0 0"/><path fill="#af4c18" d="m249.82 200.523-22.734 12.196 5.207-16.184Zm0 0"/><path fill="#f5c5b4" d="m221.488 143.395-16.379-9.43 16.028-1.512Zm0 0"/><path fill="#f6c5b4" d="m221.488 143.395-11.914 9.644-4.465-19.074Zm0 0"/><path fill="#f6c5b4" d="m209.574 153.04 11.914-9.645 9.52 29.851Zm0 0"/><path fill="#f5c5b3" d="m251.242 141.516-29.754 1.879-.351-10.942Zm0 0"/><path fill="#4a6f48" d="m179.367 173.613 19.418 12.614-10.836 6.113Zm0 0"/><path fill="#a03d06" d="m187.95 192.34 10.835-6.113 9.602 17.085Zm0 0"/><path fill="#973b04" d="m204.988 211.074-.41 17.738-12.719-8.855Zm0 0"/><path fill="#f4c5b3" d="m238.012 362.832-23-20.02 52.386 5.895Zm0 0"/><path fill="#f2c5b2" d="m215.012 342.813 48.676-12.993 3.71 18.887Zm0 0"/><path fill="#f6c5b4" d="m158.781 361.52 4.887-19.547 42.59 24.843Zm0 0"/><path fill="#f6c5b4" d="m163.668 341.973 51.344.84-8.754 24.003Zm0 0"/><path fill="#d6bfa1" d="m186.625 312.16 28.387 30.652-51.344-.84Zm0 0"/><path fill="#4a2d2c" d="m304.152 359.266 33.27-29.704L384 384Zm0 0"/><path fill="#4a2d2b" d="m376.758 220.574-31.938 43.203 13.512-48.91Zm0 0"/><path fill="#4a2d2b" d="m344.82 263.777 31.938-43.203-16.375 69.762Zm0 0"/><path fill="#f3c5b2" d="m344.82 263.777-19.11.11 14.321-47.907Zm0 0"/><path fill="#e9c3ad" d="m358.332 214.867-13.512 48.91-4.789-47.797Zm0 0"/><path fill="#edc3af" d="M292.164 330.047 312 314.914l-17.871 17.836Zm0 0"/><path fill="#ecc3ae" d="m312 314.914-19.836 15.133 7.824-17.266Zm0 0"/><path fill="#e8c2ac" d="m292.164 330.047-4.21-6.457 12.034-10.809Zm0 0"/><path fill="#4a2d2c" d="m326.367 296.41 34.016-6.074-22.961 39.226ZM360.383 290.336l-34.016 6.074 18.453-32.633Zm0 0"/><path fill="#eec4b0" d="m326.367 296.41-.656-32.523 19.11-.11Zm0 0"/><path fill="#ecc3ae" d="m307.797 291.164 4.203 23.75-12.012-2.133Zm0 0"/><path fill="#ecc3ae" d="m307.797 291.164 18.57 5.246L312 314.914Zm0 0"/><path fill="#edc4af" d="m326.367 296.41-18.57-5.246 17.914-27.277Zm0 0"/><path fill="#4a2d2b" d="m213.691 93.883 23.891-1.824-2.234 19.847ZM213.691 93.883l-20.457 19.012-4.996-18.325Zm0 0"/><path fill="#4a2d2b" d="m213.691 93.883-4.425 28.234-16.032-9.222Zm0 0"/><path fill="#4a2d2c" d="m209.266 122.117 4.425-28.234 21.657 18.023ZM77.195 83.262 98.06 66.395 89.21 96.62Zm0 0"/><path fill="#edbead" d="m77.195 83.262 14.438-31.39 6.426 14.523Zm0 0"/><path fill="#d8ab9c" d="m77.195 83.262-14.968-34.04 29.406 2.65Zm0 0"/><path fill="#ddb1a1" d="M77.195 83.262 55.82 91.535l-9.152-27.16Zm0 0"/><path fill="#4a302d" d="m62.227 49.223 14.968 34.039-30.527-18.887Zm0 0"/><path fill="#4a2d2c" d="m77.195 83.262 12.016 13.36-25.629 3.8Zm0 0"/><path fill="#f2c3b1" d="m55.82 91.535 21.375-8.273-13.613 17.16Zm0 0"/><path fill="#f4c4b3" d="M31.508 17.727 14.57-.003l15.918 10.96Zm0 0"/><path fill="#f1c4b1" d="m56.016 234.773 10.957 26.668-19.578-16.574Zm0 0"/><path fill="#f0c4b1" d="m37.93 253.625 29.043 7.816-17.551 17.297Zm0 0"/><path fill="#eec4b0" d="m66.973 261.441-29.043-7.816 9.465-8.758Zm0 0"/><path fill="#9b3800" d="m121.695 212.973-18.37 23.824 14.359-37.313Zm0 0"/><path fill="#9d3a02" d="m128.25 241.48-24.926-4.683 18.371-23.824Zm0 0"/><path fill="#4a2d2b" d="m117.684 199.484-14.36 37.313-31.332-12.73Zm0 0"/><path fill="#4a2d2c" d="m103.324 236.797 24.926 4.683-13.21 15.915Zm0 0"/><path fill="#f1c2b0" d="m40.957 137.836-14.242-8.563 22.484-20.722Zm0 0"/><path fill="#eec4af" d="m66.41 304.156 25.531-4.77-20.03 12.38Zm0 0"/><path fill="#dec1a6" d="m91.941 299.387-15.906-18.875 26.348-8.078Zm0 0"/><path fill="#efc4b0" d="m91.941 299.387-25.53 4.77 9.624-23.645Zm0 0"/><path fill="#dec1a6" d="m127.98 302.746-36.039-3.36 10.442-26.952Zm0 0"/><path fill="#cfbe9d" d="m91.941 299.387 36.04 3.36-10.61 20.237Zm0 0"/><path fill="#f1bfac" d="m170.824 259.785-34.8-11.152 30.292.547Zm0 0"/><path fill="#4a2e2c" d="m144.93 261.559-8.907-12.926 34.801 11.152Zm0 0"/><path fill="#f5c5b4" d="m136.023 248.633 2.258-9.61 28.035 10.157Zm0 0"/><path fill="#4a2d2b" d="m29.543 287.586 19.879-8.848 6.918 12.801Zm0 0"/><path fill="#f2c5b2" d="m49.422 278.738 26.613 1.774-19.695 11.027Zm0 0"/><path fill="#efc4b0" d="m49.422 278.738 17.55-17.297 9.063 19.07Zm0 0"/><path fill="#9b3800" d="m188.238 94.57 4.996 18.325-35.714 12.898Zm0 0"/><path fill="#713216" d="m193.234 112.895.75 11.593-36.464 1.305Zm0 0"/><path fill="#f6c5b4" d="m193.984 124.488 11.125 9.477-27.386 28.95Zm0 0"/><path fill="#f6c5b4" d="m205.11 133.965 4.464 19.074-31.851 9.875ZM209.574 153.04l-2.465 13.937-29.386-4.063Zm0 0"/><path fill="#4a7049" d="m207.11 166.977-27.743 6.636-1.644-10.699ZM207.11 166.977l-8.325 19.25-19.418-12.614Zm0 0"/><path fill="#4a7049" d="m198.785 186.227 8.324-19.25 2.102 11.109Zm0 0"/><path fill="#f6c5b4" d="m207.11 166.977 2.464-13.938 21.434 20.207Zm0 0"/><path fill="#4a3100" d="m196.98 247.648-1.609 22.645-24.547-10.508Zm0 0"/><path fill="#f6c5b4" d="m196.98 247.648 7.598-18.835 1.777 20.156Zm0 0"/><path fill="#f6c5b4" d="m195.371 270.293 1.61-22.645 9.374 1.32Zm0 0"/><path fill="#9d3b03" d="m204.578 228.813-17.531 11.238 4.812-20.094Zm0 0"/><path fill="#f6c5b4" d="m187.047 240.05-16.899-14.015 21.711-6.078Zm0 0"/><path fill="#4a3100" d="m187.047 240.05 9.933 7.598-26.156 12.137Zm0 0"/><path fill="#4a3100" d="m196.98 247.648-9.933-7.597 17.531-11.238Zm0 0"/><path fill="#933f0a" d="m187.047 240.05-16.223 19.735-4.508-10.605Zm0 0"/><path fill="#f6c5b4" d="m170.148 226.035 16.899 14.016-20.73 9.129Zm0 0"/><path fill="#f4c3b2" d="m191.86 219.957-22.204 4.516 17.395-14.848Zm0 0"/><path fill="#a59172" d="m191.86 219.957-21.712 6.078-.492-1.562Zm0 0"/><path fill="#f4c5b3" d="m272.875 221.273-23.055-20.75 22.801-.359Zm0 0"/><path fill="#e1c1a8" d="m272.875 221.273-.254-21.109 32.649 16.457Zm0 0"/><path fill="#4a7049" d="m263.793 179.785-1.898 3.863-17.922-7.203ZM249.82 200.523l12.075-16.875 10.726 16.516Zm0 0"/><path fill="#e3c2a9" d="m261.895 183.648 1.898-3.863 8.828 20.38Zm0 0"/><path fill="#9c3900" d="m225.063 224.895 13.23-4.168 2.687 17.234Zm0 0"/><path fill="#f6c5b4" d="m238.293 220.727 34.582.546-31.895 16.688Zm0 0"/><path fill="#f6c5b4" d="m238.293 220.727 11.527-20.204 23.055 20.75Zm0 0"/><path fill="#b14e1a" d="m238.293 220.727-11.207-8.008 22.734-12.196Zm0 0"/><path fill="#9c3900" d="m227.086 212.719 11.207 8.008-13.23 4.168Zm0 0"/><path fill="#f5c5b3" d="m222.84 250.32 11.996.614-8.05 12.941Zm0 0"/><path fill="#4a7049" d="m234.836 250.934 6.953 9.082-15.004 3.859Zm0 0"/><path fill="#9d3c03" d="m208.387 203.313 13.965-3.688 4.734 13.094Zm0 0"/><path fill="#9c3901" d="m227.086 212.719-4.734-13.094 9.941-3.09Zm0 0"/><path fill="#4a7049" d="m204.988 211.074 22.098 1.645-2.024 12.176Zm0 0"/><path fill="#4a7049" d="m204.988 211.074 3.399-7.762 18.699 9.407Zm0 0"/><path fill="#4a7049" d="m204.578 228.813.41-17.739 20.075 13.82Zm0 0"/><path fill="#4a2d2c" d="m217.3 365 20.712-2.168L228.766 384Zm0 0"/><path fill="#f5c5b4" d="m217.3 365-2.288-22.187 23 20.019Zm0 0"/><path fill="#492d2c" d="m217.3 365 11.466 19-16.02-11.594Zm0 0"/><path fill="#4a2d2c" d="m266.816 322.238-40.492-13.77 8.285-22.679Zm0 0"/><path fill="#d9c0a3" d="m186.625 312.16 39.7-3.691-11.313 34.344Zm0 0"/><path fill="#4a2d2c" d="m234.61 285.79-8.286 22.679-33.39-15.57Zm0 0"/><path fill="#d9c0a3" d="m226.324 308.469-39.699 3.691 6.309-19.262Zm0 0"/><path fill="#dbc0a4" d="m263.688 329.82-37.364-21.351 40.492 13.77Zm0 0"/><path fill="#e1c1a8" d="m215.012 342.813 11.312-34.344 37.363 21.351Zm0 0"/><path fill="#4a2d2c" d="M31.508 17.727 21.426 35.883 14.57-.004ZM56.016 234.773l47.308 2.024-6.136 10.516Zm0 0"/><path fill="#4d2d2a" d="m103.324 236.797-47.308-2.024 15.976-10.707Zm0 0"/><path fill="#4a2d2c" d="m103.324 236.797 11.715 20.598-17.851-10.082Zm0 0"/><path fill="#512e28" d="m193.234 112.895 16.032 9.222-15.282 2.371Zm0 0"/><path fill="#9c3900" d="m209.266 122.117-4.157 11.848-11.125-9.477Zm0 0"/><path fill="#4a7049" d="m246.793 189.953 15.102-6.305-12.075 16.875Zm0 0"/><path fill="#4a7049" d="m246.793 189.953 3.027 10.57-17.527-3.988Zm0 0"/><path fill="#4a7049" d="m246.793 189.953-14.5 6.582 11.68-20.09Zm0 0"/><path fill="#4a714a" d="m261.895 183.648-15.102 6.305-2.82-13.508Zm0 0"/><path fill="#f6c5b4" d="m221.668 237.113 13.168 13.82-11.996-.613Zm0 0"/><path fill="#4a7049" d="m221.668 237.113-17.09-8.3 20.484-3.918Zm0 0"/><path fill="#f3c5b2" d="m221.668 237.113 1.172 13.207-16.485-1.351Zm0 0"/><path fill="#4a714a" d="m204.578 228.813 17.09 8.3-15.313 11.856Zm0 0"/><path fill="#f6c5b4" d="m221.668 237.113 19.312.848-6.144 12.973Zm0 0"/><path fill="#f6c5b4" d="m240.98 237.96-19.312-.847 3.394-12.218Zm0 0"/><path fill="#4a714a" d="m209.21 178.086-2.1-11.11 16.75 15.141Zm0 0"/><path fill="#4d6e47" d="m251.77 167.977 12.023 11.808-19.82-3.34Zm0 0"/><path fill="#4a7049" d="m240.98 237.96 6.665 7.606-12.81 5.368ZM241.79 260.016l5.855-14.45 11.875 17.75Zm0 0"/><path fill="#4a6f49" d="m234.836 250.934 12.809-5.368-5.856 14.45Zm0 0"/><path fill="#f6c5b4" d="m223.86 182.117-1.508 17.508-13.965 3.688Zm0 0"/><path fill="#f2c4b2" d="m198.785 186.227 25.074-4.11-15.472 21.196Zm0 0"/><path fill="#4a714a" d="m223.86 182.117-25.075 4.11 10.426-8.141Zm0 0"/><path fill="#f4c5b3" d="m223.86 182.117 7.148-8.87 1.285 23.288Zm0 0"/><path fill="#f5c2af" d="m222.352 199.625 1.507-17.508 8.434 14.418Zm0 0"/><path fill="#d6754b" d="m243.973 176.445-11.68 20.09-1.285-23.289Zm0 0"/><path fill="#9c3900" d="m251.77 167.977-7.797 8.468-.918-16.515Zm0 0"/><path fill="#9c3a01" d="m243.973 176.445-12.965-3.199 12.047-13.316Zm0 0"/><path fill="#9c3900" d="m251.242 141.516-8.187 18.414-21.567-16.535Zm0 0"/><path fill="#f6c5b4" d="m243.055 159.93-12.047 13.316-9.52-29.851Zm0 0"/><path fill="#9c3900" d="m251.242 141.516 5.457 17.047-13.644 1.367Zm0 0"/><path fill="#9b3900" d="m251.77 167.977 4.93-9.415 7.093 21.223Zm0 0"/><path fill="#9c3900" d="m256.7 158.563-4.93 9.414-8.715-8.047Zm0 0"/><path fill="#e4c2a9" d="m263.793 179.785-7.094-21.222 37.754 4.43Zm0 0"/><path fill="#e2c1a9" d="m256.7 158.563 12.019-27.59 25.734 32.02Zm0 0"/><path fill="#d8bfa3" d="m256.7 158.563-5.458-17.047 17.477-10.543Zm0 0"/><path fill="#f6c5b4" d="m207.11 166.977 23.898 6.27-7.149 8.87Zm0 0"/></svg>