<svg xmlns="http://www.w3.org/2000/svg" width="512" height="512" viewBox="0 0 384 384"><path fill="#211634" d="m244.078 276.742 12.508 15.668-28.227.145Zm0 0"/><path fill="#eeeef0" d="m28.047 199.992 26.547-34-2.227 25.192Zm0 0"/><path fill="#efeff1" d="m384.02 162.184-.016 46.398-25.055-8.977Zm0 0"/><path fill="#2d233f" d="M97.39 111.54 80.216 80.933l35.937 12.914Zm0 0"/><path fill="#201533" d="m170.148 186.238 11.52-5.761 5.539 12.664ZM256.586 292.41l-10.09 21.953-18.137-21.808Zm0 0"/><path fill="#e9e8eb" d="m315.973 384-27.907.055 16.446-17.23Zm0 0"/><path fill="#fefefe" d="M130.227 12.09 146.102-.008l-4.555 23.89Zm0 0"/><path fill="#fdfdfd" d="m-.016 73.77 41.77 22.011-10.54 15.88Zm0 0"/><path fill="#948e9d" d="m70.512 133.258-15.918 32.734-19.903-10.98Zm0 0"/><path fill="#f4f4f5" d="m91.96 125.457-.206 26.309-21.242-18.508Zm0 0"/><path fill="#f2f1f3" d="m131.742 384.012-22.351-.024-.696-15.195Zm0 0"/><path fill="#c2bfc7" d="m-.04 383.953 37.056-38.473L69.594 384Zm0 0"/><path fill="#f5f4f6" d="m.129 313.219 36.887 32.261L-.04 383.953Zm0 0"/><path fill="#201533" d="m102.79 339.543 18.57 9.5-12.665 19.75Zm0 0"/><path fill="#dad8dd" d="m352.348 159.77 31.672 2.414-25.07 37.421Zm0 0"/><path fill="#fafafa" d="m361.656 118.969 22.364 43.215-42.672-35.051Zm0 0"/><path fill="#f1f0f2" d="m340.102 79.215 21.554 39.754-20.308 8.164Zm0 0"/><path fill="#e8e7ea" d="m303.691 208.61 32.57-24.692.665 33.605Zm0 0"/><path fill="#fefefe" d="m264.844 280.094-8.258 12.316-12.508-15.668ZM264.844 280.094l5.226 14.949-13.484-2.633ZM326.41 260.71l-7.918-22.366 33.867 4.176Zm0 0"/><path fill="#fdfdfd" d="m91.96 125.457 14.868-.207-15.074 26.516Zm0 0"/><path fill="#c3c0c8" d="m102.836 163.258 3.992-38.008 14.688 5.691Zm0 0"/><path fill="#201533" d="m106.828 125.25-3.992 38.008-11.082-11.492Zm0 0"/><path fill="#fcfcfd" d="m106.828 125.25-14.867.207 5.43-13.918Zm0 0"/><path fill="#f8f7f8" d="m177.527 203.156-7.379-16.918 17.059 6.903Zm0 0"/><path fill="#221835" d="m140.836 143.188 2.601-24.918 35.387-4.715Zm0 0"/><path fill="#201533" d="m143.438 118.27-2.602 24.918-19.32-12.247Zm0 0"/><path fill="#fefefe" d="m170.148 186.238-15.125 6.77 2.887-14.059Zm0 0"/><path fill="#201533" d="m136.3 179.664-17.491 3.375 22.027-39.851ZM142.523 209.766l15.79-6.188-4.266 14.836Zm0 0"/><path fill="#fefefe" d="m158.313 203.578-15.79 6.188 12.5-16.758Zm0 0"/><path fill="#201533" d="m222.566 276.176 21.512.566-15.719 15.813Zm0 0"/><path fill="#2c213e" d="m222.566 276.176 12.301-16.012 9.211 16.578Zm0 0"/><path fill="#fefefe" d="m222.566 276.176-3.726-21.543 16.027 5.531Zm0 0"/><path fill="#201533" d="m270.07 295.043-3.027 12.773-10.457-15.406Zm0 0"/><path fill="#201533" d="m267.043 307.816-20.547 6.547 10.09-21.953ZM246.496 314.363l20.547-6.547 1.45 17.063Zm0 0"/><path fill="#f4f4f5" d="m370.969 266.906 13.035-5.004-4.078 30.13Zm0 0"/><path fill="#fdfdfd" d="m336.926 217.523 22.023-17.918-6.59 42.915Zm0 0"/><path fill="#201533" d="m282.703 341.098-19.058 20.12-4.551-9.523Zm0 0"/><path fill="#261b38" d="m181.496 36.047 7.121 55.66-7.554-13.25Zm0 0"/><path fill="#fdfdfd" d="m112.52.012 33.582-.02-15.875 12.098Zm0 0"/><path fill="#281e3b" d="m83.14 26.512 18.942-14.063 15.406 40.23Zm0 0"/><path fill="#2b203d" d="m254.023.55-99.191 13.454-8.73-14.012Zm0 0"/><path fill="#fefefe" d="m146.102-.008 8.73 14.012-13.285 9.879Zm0 0"/><path fill="#e7e5e9" d="M154.832 14.004 254.023.55l-34.699 17.695Zm0 0"/><path fill="#fbfafb" d="m181.496 36.047 37.828-17.8-8.637 18.382Zm0 0"/><path fill="#201533" d="m230.879 60.457 2.633-20.289 14.05 5.11Zm0 0"/><path fill="#fdfdfd" d="m219.324 18.246 14.188 21.922-22.824-3.54Zm0 0"/><path fill="#201533" d="m233.512 40.168-2.633 20.289-20.191-23.828Zm0 0"/><path fill="#201533" d="m234.75 73.707-3.871-13.25 16.684-15.18Zm0 0"/><path fill="#fefefe" d="m247.563 45.277-14.051-5.109 21.656-15.422Zm0 0"/><path fill="#362c47" d="m80.215 80.934 14.078-15.137 21.86 28.05Zm0 0"/><path fill="#b0acb7" d="m188.617 91.707-23.176 8.828 15.621-22.078Zm0 0"/><path fill="#4d445c" d="M54.594 165.992-.023 135.875l34.714 19.137Zm0 0"/><path fill="#fbfbfb" d="m31.215 111.66 3.476 43.352-34.714-19.137Zm0 0"/><path fill="#e7e5e9" d="M31.215 111.66-.023 135.875l.007-62.105Zm0 0"/><path fill="#201533" d="m88.637 0-7.801 19.969L57.89.012Zm0 0"/><path fill="#fefefe" d="m49.332 28.98 31.504-9.011 2.305 6.543Zm0 0"/><path fill="#f8f8f9" d="m39.945 38.648-20.57 25.024 12.418-47.293Zm0 0"/><path fill="#6e677b" d="m65.95 177.738 12.882-11.129 4.68 14.989Zm0 0"/><path fill="#201533" d="m140.836 143.188-38 20.07 18.68-32.317Zm0 0"/><path fill="#e4e2e6" d="m.129 313.219-.172-104.996.063 40.191Zm0 0"/><path fill="#201533" d="m50.895 216.078 20.933 4.797-19.492 16.492Zm0 0"/><path fill="#fefefe" d="m32.184 237.797 18.71-21.719 1.442 21.29Zm0 0"/><path fill="#2b203d" d="m64.855 195.305 1.094-17.567 17.563 3.86Zm0 0"/><path fill="#201533" d="m116.445 208.66 8.004-15.414 8.95-.45Zm0 0"/><path fill="#d4d1d7" d="m-.023 135.875 54.617 30.117-26.547 34Zm0 0"/><path fill="#473f57" d="m85.008 117.348-32.742-.996 13.125-19.04Zm0 0"/><path fill="#372d48" d="m80.215 80.934 4.793 36.414L65.39 97.313Zm0 0"/><path fill="#edecef" d="m85.008 117.348 6.953 8.109-21.45 7.8Zm0 0"/><path fill="#554d63" d="m52.266 116.352 32.742.996-14.496 15.91Zm0 0"/><path fill="#342a46" d="m85.008 117.348-4.793-36.414 17.176 30.605Zm0 0"/><path fill="#fbfbfb" d="m91.96 125.457-6.952-8.11 12.383-5.808Zm0 0"/><path fill="#fcfcfc" d="m19.375 63.672 22.379 32.11L-.016 73.77Zm0 0"/><path fill="#746d80" d="m102.836 163.258-24.004 3.351 12.922-14.843Zm0 0"/><path fill="#201533" d="M214.43 384h-43.473l8.23-17.39Zm0 0"/><path fill="#e3e1e5" d="m123.75 326.273 4.96-32.128 44.395.238Zm0 0"/><path fill="#edecee" d="m151.137 337.512-27.387-11.239 49.355-31.89Zm0 0"/><path fill="#fefefe" d="m123.75 326.273 27.387 11.239-29.778 11.531Zm0 0"/><path fill="#edecee" d="m37.016 345.48 7.632-57.222 18.575 14.738Zm0 0"/><path fill="#faf9fa" d="m83.027 353.414 10.535 30.59L69.595 384Zm0 0"/><path fill="#fdfdfd" d="m37.016 345.48 46.011 7.934L69.594 384Zm0 0"/><path fill="#f9f9fa" d="m44.648 288.258-44.52 24.96-.108-64.804Zm0 0"/><path fill="#201533" d="m83.027 353.414-7.039-19.055 26.801 5.184Zm0 0"/><path fill="#ecebee" d="m63.223 302.996 12.765 31.363-38.972 11.121Zm0 0"/><path fill="#dfdde1" d="m75.988 334.36 7.04 19.054-46.012-7.934Zm0 0"/><path fill="#564e65" d="m384.004 119.875.016 42.309-22.364-43.215Zm0 0"/><path fill="#f9f9f9" d="m384.02 162.184-31.672-2.414-11-32.637Zm0 0"/><path fill="#211634" d="m335.297 68.266 48.707 5.242-43.902 5.707Zm0 0"/><path fill="#fafafb" d="m318.129 93.73 21.973-14.515 1.246 47.918Zm0 0"/><path fill="#d8d6dc" d="m293.73 154.68 42.532 29.238-32.57 24.691Zm0 0"/><path fill="#e4e3e7" d="m340.344 26.238-27.43-2.578 3.79-23.68Zm0 0"/><path fill="#f8f8f9" d="m312.914 23.66 22.383 44.606-9.879 4.043Zm0 0"/><path fill="#201533" d="m384.004 73.508-16.531-38.285 16.53-35.22Zm0 0"/><path fill="#201533" d="m384.004.004-16.531 35.219L355.637 0Zm0 0"/><path fill="#201533" d="m367.473 35.223-27.13-8.985L355.638 0Zm0 0"/><path fill="#61596e" d="m335.297 68.266 5.047-42.028 27.129 8.985Zm0 0"/><path fill="#fefefe" d="m264.055 258.922.789 21.172-20.766-3.352Zm0 0"/><path fill="#281e3b" d="m264.844 280.094 18.691-5.645-13.465 20.594Zm0 0"/><path fill="#fefefe" d="m283.535 274.45-18.691 5.644-.79-21.172Zm0 0"/><path fill="#f7f7f8" d="m277.242 245.59 41.25-7.246-19.797 27.73Zm0 0"/><path fill="#fdfdfd" d="m283.535 274.45-6.293-28.86 21.453 20.484Zm0 0"/><path fill="#453c55" d="m277.242 245.59 6.293 28.86-19.48-15.528Zm0 0"/><path fill="#fafafa" d="m318.492 238.344 7.918 22.367-27.715 5.363Zm0 0"/><path fill="#fefefe" d="m318.492 238.344 18.434-20.82 15.433 24.996Zm0 0"/><path fill="#f2f1f3" d="m318.492 238.344-14.8-29.735 33.234 8.914Zm0 0"/><path fill="#f9f9f9" d="m303.691 208.61 14.801 29.734-41.25 7.246Zm0 0"/><path fill="#fbfbfc" d="m316.703-.02-10.598 18.704L254.023.55Zm0 0"/><path fill="#fefefe" d="m261.742 77.922-4.047 25.683-8.18-14.757Zm0 0"/><path fill="#201533" d="m162.105 143.29 9.954 20.663-14.149 14.996Zm0 0"/><path fill="#f9f9fa" d="m172.059 163.953-1.91 22.285-12.239-7.289Zm0 0"/><path fill="#211634" d="m170.148 186.238 1.91-22.285 9.61 16.524Zm0 0"/><path fill="#201533" d="m140.836 143.188 21.27.101-4.196 35.66Zm0 0"/><path fill="#fefefe" d="m177.527 203.156-22.504-10.148 15.125-6.77ZM158.313 203.578l-3.29-10.57 22.504 10.148Zm0 0"/><path fill="#fdfdfe" d="m155.023 193.008-12.5 16.758-9.125-16.97Zm0 0"/><path fill="#221735" d="m164.691 216.164-6.379-12.586 19.215-.422Zm0 0"/><path fill="#201533" d="m158.313 203.578 6.378 12.586-10.644 2.25Zm0 0"/><path fill="#f6f6f7" d="m326.61 360.98 10.66-24.214 6.132 3.984Zm0 0"/><path fill="#e3e1e5" d="M326.61 360.98 315.972 384l-11.461-17.176Zm0 0"/><path fill="#e9e8eb" d="m359.25 270.727 11.719-3.82 8.957 25.124Zm0 0"/><path fill="#f5f5f6" d="m351.824 291.086 7.426-20.36 20.676 21.305Zm0 0"/><path fill="#fcfcfc" d="m337.27 336.766 14.582-18.715-8.45 22.699Zm0 0"/><path fill="#3b324c" d="m351.852 318.05-.028-26.964 28.102.945Zm0 0"/><path fill="#231836" d="m343.313 313.055-6.043 23.71-15.782-12.988Zm0 0"/><path fill="#95909e" d="m343.313 313.055 8.539 4.996-14.582 18.715Zm0 0"/><path fill="#50485f" d="m351.852 318.05-8.54-4.995 8.512-21.97Zm0 0"/><path fill="#fefefe" d="m282.703 341.098-3.512-7.91 15.196-1.97ZM279.191 333.188l-20.097 18.507 9.398-26.816Zm0 0"/><path fill="#fefefe" d="m279.191 333.188 3.512 7.91-23.61 10.597Zm0 0"/><path fill="#201533" d="m294.387 331.219 16.562-17.453 10.54 10.011Zm0 0"/><path fill="#a8a4b0" d="m290.879 304.727-20.809-9.684 13.465-20.594Zm0 0"/><path fill="#fdfdfd" d="m298.695 266.074-7.816 38.653-7.344-30.278Zm0 0"/><path fill="#201533" d="m290.879 304.727-23.836 3.09 3.027-12.774Zm0 0"/><path fill="#231836" d="M181.496 36.047 199.617 71.3l-11 20.406Zm0 0"/><path fill="#201533" d="m230.879 60.457-31.262 10.844 11.07-34.672ZM199.617 71.3l-18.12-35.253 29.19.582Zm0 0"/><path fill="#fdfcfd" d="m80.836 19.969 21.246-7.52-18.941 14.063Zm0 0"/><path fill="#201533" d="m102.082 12.45-21.246 7.519L88.636 0Zm0 0"/><path fill="#fbfbfb" d="m255.168 24.746-35.844-6.5 34.7-17.695Zm0 0"/><path fill="#fefefe" d="m233.512 40.168-14.188-21.922 35.844 6.5Zm0 0"/><path fill="#fcfcfc" d="m299.402 35.02-44.234-10.274L254.023.551Zm0 0"/><path fill="#fafafb" d="m234.75 73.707-35.133-2.406 31.262-10.844Zm0 0"/><path fill="#ada8b4" d="m199.617 71.3 16.95 19.356-27.95 1.051Zm0 0"/><path fill="#352b46" d="m199.617 71.3 35.133 2.407-18.184 16.95Zm0 0"/><path fill="#f8f7f8" d="m234.75 73.707 26.992 4.215-12.226 10.926Zm0 0"/><path fill="#251a37" d="m234.75 73.707 12.813-28.43 14.18 32.645Zm0 0"/><path fill="#211734" d="m134.027 104.34 20.282-14.008-10.871 27.938Zm0 0"/><path fill="#e8e7ea" d="m134.027 104.34-36.636 7.2 18.761-17.692Zm0 0"/><path fill="#f9f8f9" d="m134.027 104.34-27.199 20.91-9.437-13.71Zm0 0"/><path fill="#bbb8c1" d="m134.027 104.34 9.41 13.93-21.921 12.671Zm0 0"/><path fill="#3a314b" d="m106.828 125.25 27.2-20.91-12.512 26.601Zm0 0"/><path fill="#e4e2e6" d="M119.152 54.43 94.293 65.797l23.195-13.117Zm0 0"/><path fill="#201533" d="M94.293 65.797 83.141 26.512l34.347 26.168Zm0 0"/><path fill="#fefefe" d="m154.309 90.332-14.192-11.883 40.946.008Zm0 0"/><path fill="#2d223f" d="m140.117 78.45 7.461-36.235 33.485 36.242Zm0 0"/><path fill="#201533" d="m147.578 42.215-7.46 36.234-20.966-24.02Zm0 0"/><path fill="#f1f0f2" d="m140.117 78.45-6.09 25.89-17.875-10.492Zm0 0"/><path fill="#fefefe" d="m134.027 104.34 6.09-25.89 14.192 11.882Zm0 0"/><path fill="#312743" d="m94.293 65.797 45.824 12.652-23.965 15.399Zm0 0"/><path fill="#2d233f" d="m119.152 54.43 20.965 24.02-45.824-12.653Zm0 0"/><path fill="#fdfdfd" d="M133.188 34.285 119.152 54.43l-1.664-1.75Zm0 0"/><path fill="#fefefe" d="m133.188 34.285 14.39 7.93-28.426 12.215Zm0 0"/><path fill="#d4d2d8" d="m154.309 90.332 11.132 10.203-22.004 17.735Zm0 0"/><path fill="#211634" d="m143.438 118.27 22.003-17.735 13.383 13.02Zm0 0"/><path fill="#322844" d="M165.441 100.535 154.31 90.332l26.754-11.875Zm0 0"/><path fill="#221735" d="M31.793 16.379 57.891.012 49.332 28.98Zm0 0"/><path fill="#201533" d="m57.89.012 22.946 19.957-31.504 9.011Zm0 0"/><path fill="#201533" d="m31.793 16.379.71-16.383 25.388.016ZM65.598 43.164 49.332 28.98l33.809-2.468Zm0 0"/><path fill="#201533" d="m49.332 28.98 16.266 14.184-25.653-4.516Zm0 0"/><path fill="#fdfcfd" d="M11.32.059-.016 73.769 0 0Zm0 0"/><path fill="#fbfbfb" d="M19.375 63.672 11.32.059l20.473 16.32Zm0 0"/><path fill="#cac8cf" d="M-.016 73.77 11.32.059l8.055 63.613Zm0 0"/><path fill="#fefefe" d="m50.852 247.328-18.668-9.531 20.152-.43Zm0 0"/><path fill="#2d233f" d="m28.047 199.992 4.137 37.805L.02 248.414Zm0 0"/><path fill="#fdfdfd" d="m-.043 208.223 28.09-8.23L.02 248.413ZM50.895 216.078l-18.711 21.719-4.137-37.805Zm0 0"/><path fill="#f7f7f8" d="m50.895 216.078-22.848-16.086 24.32-8.808Zm0 0"/><path fill="#fefefe" d="m64.855 195.305-13.96 20.773 1.472-24.894Zm0 0"/><path fill="#9c98a5" d="m50.895 216.078 13.96-20.773 6.973 25.57Zm0 0"/><path fill="#201533" d="m71.828 220.875 44.617-12.215-10.98 23.63Zm0 0"/><path fill="#e6e4e8" d="m71.828 220.875-6.973-25.57 18.657-13.707Zm0 0"/><path fill="#201533" d="m116.445 208.66-44.617 12.215 11.684-39.277Zm0 0"/><path fill="#fefefe" d="m54.594 165.992 11.355 11.746-13.582 13.446ZM65.95 177.738l-1.095 17.567-12.488-4.121Zm0 0"/><path fill="#201533" d="m136.3 179.664-2.902 13.133-14.59-9.758Zm0 0"/><path fill="#fefefe" d="m155.023 193.008-21.625-.211 2.903-13.133Zm0 0"/><path fill="#201533" d="m133.398 192.797-8.949.45-5.64-10.208Zm0 0"/><path fill="#211634" d="m142.523 209.766-26.078-1.106 16.953-15.863Zm0 0"/><path fill="#201533" d="m134.207 255.5-27.602 2.61 21.817-13.489Zm0 0"/><path fill="#f5f5f6" d="m28.047 199.992-28.09 8.23.02-72.347Zm0 0"/><path fill="#fdfdfd" d="m52.266 116.352-10.512-20.57 23.637 1.53Zm0 0"/><path fill="#fdfdfd" d="m31.215 111.66 10.539-15.879 10.512 20.57ZM73.148 162.012l-2.636-28.754 21.242 18.508Zm0 0"/><path fill="#fefefe" d="m78.832 166.61-5.684-4.598 18.606-10.246Zm0 0"/><path fill="#f9f9f9" d="m70.512 133.258 2.636 28.754-18.554 3.98Zm0 0"/><path fill="#fefefe" d="m73.148 162.012-7.199 15.726-11.355-11.746Zm0 0"/><path fill="#fcfcfc" d="m73.148 162.012 5.684 4.597-12.883 11.13Zm0 0"/><path fill="#221735" d="m173.105 294.383-30.234-19.61 23.652-5.175Zm0 0"/><path fill="#f3f3f4" d="m128.71 294.145 14.161-19.372 30.234 19.61Zm0 0"/><path fill="#201533" d="m142.871 274.773 13.621-21.101 10.031 15.926Zm0 0"/><path fill="#f7f6f7" d="m106.605 258.11 17.313 13.66-22.711-.27Zm0 0"/><path fill="#201533" d="m123.918 271.77-17.313-13.66 27.602-2.61Zm0 0"/><path fill="#fafafa" d="m123.918 271.77 4.793 22.375-27.504-22.645Zm0 0"/><path fill="#faf9fa" d="m123.918 271.77 18.953 3.003-14.16 19.372Zm0 0"/><path fill="#201533" d="m140.148 357.844 39.04 8.765L170.957 384Zm0 0"/><path fill="#201533" d="m131.742 384.012 8.406-26.168L170.957 384Zm0 0"/><path fill="#201533" d="m140.148 357.844-8.406 26.168-23.047-15.219Zm0 0"/><path fill="#fefefe" d="m179.188 366.61-39.04-8.766 10.989-20.332Zm0 0"/><path fill="#201533" d="m121.36 349.043 18.788 8.8-31.453 10.95Zm0 0"/><path fill="#fefefe" d="m151.137 337.512-10.989 20.332-18.789-8.801Zm0 0"/><path fill="#777082" d="M37.016 345.48.129 313.22l44.52-24.961Zm0 0"/><path fill="#fafafb" d="m93.563 384.004 15.132-15.211.696 15.195Zm0 0"/><path fill="#f6f6f7" d="m108.695 368.793-15.132 15.21-10.536-30.589Zm0 0"/><path fill="#221735" d="m108.695 368.793-25.668-15.379 19.762-13.871Zm0 0"/><path fill="#fefefe" d="m71.824 271.422-8.601 31.574-12.442-20.105Zm0 0"/><path fill="#7f798a" d="m341.348 127.133 11 32.637-49.668-49.04Zm0 0"/><path fill="#d4d2d7" d="m352.348 159.77-58.618-5.09 8.95-43.95Zm0 0"/><path fill="#eae9ec" d="m352.348 159.77-16.086 24.148-42.532-29.238Zm0 0"/><path fill="#6c6579" d="m361.656 118.969 22.348-45.461v46.367Zm0 0"/><path fill="#6b6478" d="m384.004 73.508-22.348 45.46-21.554-39.753Zm0 0"/><path fill="#4e465d" d="m318.129 93.73 23.219 33.403-38.668-16.403Zm0 0"/><path fill="#fbfbfb" d="m325.418 72.309 9.879-4.043 4.805 10.949Zm0 0"/><path fill="#e9e8eb" d="m318.129 93.73 7.289-21.421 14.684 6.906Zm0 0"/><path fill="#f9f9fa" d="m299.402 35.02 26.016 37.289-24.48 1.507Zm0 0"/><path fill="#f5f5f6" d="m299.402 35.02 13.512-11.36 12.504 48.649Zm0 0"/><path fill="#201533" d="M340.344 26.238 316.704-.02l38.933.02Zm0 0"/><path fill="#3f364f" d="m312.914 23.66 27.43 2.578-5.047 42.028Zm0 0"/><path fill="#fefefe" d="m335.82 280.875-9.41-20.164 16.668 5.531Zm0 0"/><path fill="#e1dfe3" d="m312.914 23.66-6.809-4.976L316.703-.02Zm0 0"/><path fill="#fdfcfd" d="m299.402 35.02 6.703-16.336 6.81 4.976Zm0 0"/><path fill="#fcfcfc" d="m254.023.55 52.082 18.134-6.703 16.336Zm0 0"/><path fill="#f4f3f5" d="m284.922 64.773 14.48-29.753 1.536 38.796Zm0 0"/><path fill="#201533" d="m162.105 143.29-21.27-.102 37.99-29.633Zm0 0"/><path fill="#fdfdfd" d="m257.695 103.605 9.149 26.172-20.059-2.277Zm0 0"/><path fill="#fbfafb" d="m181.34 146.555-9.281 17.398-9.954-20.664Zm0 0"/><path fill="#fefefe" d="m157.91 178.95-2.887 14.058-18.722-13.344Zm0 0"/><path fill="#201533" d="m157.91 178.95-21.61.714 4.536-36.476ZM138.992 240.332l3.531-30.566 11.524 8.648ZM192.844 278.336l-19.739 16.047-6.582-24.785ZM164.691 216.164l-3.879 12.469-6.765-10.219Zm0 0"/><path fill="#201533" d="m160.813 228.633-21.82 11.699 15.054-21.918Zm0 0"/><path fill="#fefefe" d="m138.992 240.332 21.82-11.7 2.696 13.337Zm0 0"/><path fill="#201533" d="m192.844 278.336 16.902 23.8-36.64-7.753Zm0 0"/><path fill="#fbfafb" d="m268.188 244.313 9.054 1.277-13.187 13.332Zm0 0"/><path fill="#201533" d="m268.188 244.313 6.046-32.528 3.008 33.805Zm0 0"/><path fill="#201533" d="m274.234 211.785-6.046 32.528-8.856-2.817Zm0 0"/><path fill="#201533" d="m274.234 211.785-14.902 29.711-10.457-12.93Zm0 0"/><path fill="#281e3b" d="m259.332 241.496 8.856 2.816-4.133 14.61Zm0 0"/><path fill="#f8f7f8" d="m190.996 220.969-13.469-17.813 9.68-10.015Zm0 0"/><path fill="#fefefe" d="m198.7 240.11 23.37 1.132-3.23 13.39Zm0 0"/><path fill="#201533" d="m210.793 366.543-3.32 5.703-28.286-5.637ZM207.473 372.246 214.43 384l-35.243-17.39ZM238.883 360.25l20.21-8.555 4.552 9.524Zm0 0"/><path fill="#fefefe" d="m192.293 344.246 18.5 22.297-31.606.066ZM259.094 351.695 245.5 333.34l22.992-8.461Zm0 0"/><path fill="#fcfcfc" d="m245.5 333.34.996-18.977 21.996 10.516Zm0 0"/><path fill="#f9f9fa" d="m326.61 360.98 57.347 23.004-67.984.016Zm0 0"/><path fill="#201533" d="m317.465 352.078-23.078-20.86 27.101-7.44Zm0 0"/><path fill="#251a37" d="m337.27 336.766-19.805 15.312 4.023-28.3Zm0 0"/><path fill="#201533" d="m282.703 341.098 34.762 10.98-12.953 14.746ZM317.465 352.078l-34.762-10.98 11.684-9.88Zm0 0"/><path fill="#e0dee2" d="m317.465 352.078 9.144 8.902-22.097 5.844Zm0 0"/><path fill="#e2e0e4" d="m317.465 352.078 19.805-15.312-10.66 24.214Zm0 0"/><path fill="#f7f7f8" d="m351.852 318.05 32.105 65.934-40.555-43.234Zm0 0"/><path fill="#f9f9fa" d="m383.957 383.984-32.105-65.933 28.074-26.02Zm0 0"/><path fill="#f1f0f2" d="m384.004 261.902-.047 122.082-4.031-91.953Zm0 0"/><path fill="#201533" d="m258.41 384-19.527-23.75 24.762.969ZM238.883 360.25 258.41 384h-43.98Zm0 0"/><path fill="#211634" d="m258.41 384 21.692-14.8 7.964 14.855Zm0 0"/><path fill="#231936" d="m288.066 384.055-7.964-14.856 24.41-2.375Zm0 0"/><path fill="#201533" d="m280.102 369.2 2.601-28.102 21.809 25.726ZM282.703 341.098l-2.601 28.101-16.457-7.98Zm0 0"/><path fill="#201533" d="M280.102 369.2 258.41 384l5.235-22.781Zm0 0"/><path fill="#f3f2f4" d="m363.824 248.352 20.18 13.55-13.035 5.004Zm0 0"/><path fill="#eae9eb" d="m359.25 270.727 4.574-22.375 7.145 18.554Zm0 0"/><path fill="#fdfdfd" d="m336.262 183.918 22.687 15.687-22.023 17.918Zm0 0"/><path fill="#fcfcfc" d="m352.348 159.77 6.601 39.835-22.687-15.687Zm0 0"/><path fill="#201533" d="m290.879 304.727-11.797 18.187-12.039-15.098Zm0 0"/><path fill="#201533" d="m267.043 307.816 12.039 15.098-10.59 1.965Zm0 0"/><path fill="#fefefe" d="m279.082 322.914.11 10.274-10.7-8.31Zm0 0"/><path fill="#201533" d="m325.926 297.77 17.387 15.285-21.825 10.722Zm0 0"/><path fill="#231836" d="m310.95 313.766 14.976-15.996-4.438 26.007Zm0 0"/><path fill="#fefefe" d="m326.41 260.71-12.367 22.685-15.348-17.32ZM335.82 280.875l-21.777 2.52 12.367-22.684Zm0 0"/><path fill="#fdfdfe" d="m154.832 14.004 26.664 22.043-27.883-8.137Zm0 0"/><path fill="#efeef0" d="m154.832 14.004 64.492 4.242-37.828 17.8Zm0 0"/><path fill="#fafafb" d="m154.832 14.004-1.219 13.906-12.066-4.027Zm0 0"/><path fill="#201533" d="m112.52.012-10.438 12.437L88.637 0Zm0 0"/><path fill="#fbfbfc" d="M121.355 20.18 112.52.012l17.707 12.078Zm0 0"/><path fill="#fefefe" d="m121.355 20.18 11.832 14.105-15.699 18.395Zm0 0"/><path fill="#f7f6f7" d="m102.082 12.45 19.273 7.73-3.867 32.5Zm0 0"/><path fill="#fbfbfc" d="m112.52.012 8.835 20.168-19.273-7.73Zm0 0"/><path fill="#fdfdfd" d="m269.547 53.93-14.379-29.184 44.234 10.274Zm0 0"/><path fill="#f4f4f5" d="M284.922 64.773 269.547 53.93l29.855-18.91Zm0 0"/><path fill="#201533" d="m247.563 45.277 21.984 8.653-7.805 23.992Zm0 0"/><path fill="#fefefe" d="m255.168 24.746 14.379 29.184-21.985-8.653Zm0 0"/><path fill="#201533" d="m269.547 53.93 15.375 10.843-23.18 13.149Zm0 0"/><path fill="#261b38" d="m226.57 116.93 13.813-20.895 6.402 31.465Zm0 0"/><path fill="#f7f7f8" d="m257.695 103.605-17.312-7.57 9.133-7.187Zm0 0"/><path fill="#fefefe" d="m240.383 96.035 17.312 7.57-10.91 23.895Zm0 0"/><path fill="#fafafb" d="m240.383 96.035-5.633-22.328 14.766 15.14Zm0 0"/><path fill="#201533" d="m221.543 145.91-25.246-23.437 33.629 11.886Zm0 0"/><path fill="#201533" d="m196.297 122.473 30.273-5.543 3.356 17.43ZM94.293 65.797 65.598 43.164 83.14 26.512ZM65.598 43.164l14.617 37.77-40.27-42.286Zm0 0"/><path fill="#fefefe" d="m181.496 36.047-33.918 6.168 6.035-14.305Zm0 0"/><path fill="#261b38" d="m147.578 42.215 33.918-6.168-.434 42.41Zm0 0"/><path fill="#fefefe" d="m133.188 34.285 8.359-10.402 6.031 18.332Zm0 0"/><path fill="#fbfafb" d="m147.578 42.215-6.031-18.332 12.066 4.027Zm0 0"/><path fill="#fefefe" d="m121.355 20.18 20.192 3.703-8.36 10.402Zm0 0"/><path fill="#fefefe" d="m141.547 23.883-20.192-3.703 8.872-8.09Zm0 0"/><path fill="#fdfdfd" d="M31.793 16.379 49.332 28.98l-9.387 9.668Zm0 0"/><path fill="#201533" d="m11.32.059 21.184-.063-.711 16.383Zm0 0"/><path fill="#221835" d="M51.2 74.363 19.374 63.672l20.57-25.024Zm0 0"/><path fill="#201533" d="m80.215 80.934-29.016-6.57-11.254-35.716Zm0 0"/><path fill="#fefefe" d="M65.39 97.313 51.2 74.363l29.015 6.57Zm0 0"/><path fill="#fcfcfc" d="m41.754 95.781 9.445-21.418 14.192 22.95Zm0 0"/><path fill="#352b46" d="m32.184 237.797 7.793 19.656L.02 248.414Zm0 0"/><path fill="#fafafa" d="m39.977 257.453 4.671 30.805L.02 248.414Zm0 0"/><path fill="#fefefe" d="m50.852 247.328-10.875 10.125-7.793-19.656ZM80.578 252.84l-29.726-5.512 1.484-9.96ZM71.824 271.422l8.754-18.582 20.629 18.66Zm0 0"/><path fill="#201533" d="m71.828 220.875 8.75 31.965-28.242-15.473Zm0 0"/><path fill="#201533" d="m80.578 252.84-8.75-31.965 33.637 11.414Zm0 0"/><path fill="#2a1f3c" d="m78.832 166.61 39.977 16.43-35.297-1.442Zm0 0"/><path fill="#201533" d="m118.809 183.04-39.977-16.43 24.004-3.352ZM140.836 143.188l-22.027 39.851-15.973-19.781Zm0 0"/><path fill="#fefefe" d="m118.809 183.04-2.364 25.62-32.933-27.062Zm0 0"/><path fill="#201533" d="m118.809 183.04 5.64 10.206-8.004 15.414Zm0 0"/><path fill="#fdfdfd" d="m142.523 209.766-18.296 18.308-7.782-19.414Zm0 0"/><path fill="#201533" d="m106.605 258.11 17.622-30.036 4.195 16.547Zm0 0"/><path fill="#221735" d="m124.227 228.074 14.765 12.258-10.57 4.29Zm0 0"/><path fill="#fefefe" d="m138.992 240.332-14.765-12.258 18.296-18.308ZM102.79 339.543l5.456-8.61 13.113 18.11Zm0 0"/><path fill="#fefefe" d="m108.246 330.934 15.504-4.66-2.39 22.769Zm0 0"/><path fill="#201533" d="m84.36 324.871-8.372 9.488-12.765-31.363Zm0 0"/><path fill="#201533" d="m75.988 334.36 8.371-9.489 18.43 14.672Zm0 0"/><path fill="#fdfdfd" d="m84.36 324.871 23.886 6.063-5.457 8.609Zm0 0"/><path fill="#fdfdfe" d="M95.863 305.063 84.36 324.87l-21.136-21.875Zm0 0"/><path fill="#fefefe" d="m84.36 324.871 11.503-19.808 12.383 25.87Zm0 0"/><path fill="#201533" d="m156.492 253.672 17.008 5.36-6.977 10.566Zm0 0"/><path fill="#201533" d="m173.5 259.031 19.344 19.305-26.32-8.738ZM173.5 259.031l-17.008-5.36 7.016-11.702ZM134.207 255.5l22.285-1.828-13.62 21.101Zm0 0"/><path fill="#211634" d="m123.918 271.77 10.289-16.27 8.664 19.273Zm0 0"/><path fill="#281e3b" d="m44.648 288.258 6.133-5.367 12.442 20.105Zm0 0"/><path fill="#797284" d="m50.781 282.89-6.133 5.368-4.671-30.805Zm0 0"/><path fill="#bebbc4" d="m302.68 110.73-44.985-7.125 4.047-25.683Zm0 0"/><path fill="#f8f8f8" d="m257.695 103.605 44.985 7.125-35.836 19.047Zm0 0"/><path fill="#ecebee" d="m266.844 129.777 35.836-19.047-8.95 43.95Zm0 0"/><path fill="#352b46" d="m284.922 64.773 17.758 45.957-40.938-32.808Zm0 0"/><path fill="#201533" d="m367.473 35.223 16.53 38.285-48.706-5.242Zm0 0"/><path fill="#271c39" d="m359.25 270.727-7.426 20.359-8.746-24.844Zm0 0"/><path fill="#211634" d="m351.824 291.086-16.004-10.211 7.258-14.633Zm0 0"/><path fill="#201533" d="m196.297 122.473-34.192 20.816 16.72-29.734Zm0 0"/><path fill="#fefefe" d="m181.34 146.555 26.031 5.968-35.312 11.43Zm0 0"/><path fill="#fefefe" d="m207.371 152.523 1.461 13.653-36.773-2.223Zm0 0"/><path fill="#201533" d="m226.57 116.93 20.215 10.57-16.86 6.86ZM192.844 278.336l4.039-12.848 25.683 10.688Zm0 0"/><path fill="#fdfdfd" d="m222.566 276.176-25.683-10.688 21.957-10.855Zm0 0"/><path fill="#201533" d="m196.883 265.488-4.04 12.848L173.5 259.03Zm0 0"/><path fill="#fefefe" d="m160.813 228.633 14.066-4.485-11.371 17.82Zm0 0"/><path fill="#201533" d="m174.879 224.148-14.066 4.485 3.878-12.469ZM228.36 292.555l-35.516-14.22 29.722-2.16ZM228.36 292.555l-18.614 9.582-16.902-23.801ZM248.527 246.543l10.805-5.047 4.723 17.426ZM234.867 260.164l13.66-13.621-4.449 30.2Zm0 0"/><path fill="#201533" d="m248.527 246.543 15.528 12.379-19.977 17.82Zm0 0"/><path fill="#eeedf0" d="m268.27 199.734 7.43-13.765 27.991 22.64Zm0 0"/><path fill="#f4f4f5" d="m293.73 154.68-18.03 31.289-14.97-8.082Zm0 0"/><path fill="#ebeaed" d="m275.7 185.969 18.03-31.29 9.961 53.93Zm0 0"/><path fill="#241a37" d="m224.746 201.79 10.082 30.706-10.2-7.312Zm0 0"/><path fill="#211634" d="m238.867 149.45-17.324-3.54 8.383-11.55Zm0 0"/><path fill="#fdfdfe" d="m221.543 145.91 17.324 3.54-2.285 11.538Zm0 0"/><path fill="#fdfdfd" d="m208.832 166.176 12.711-20.266 15.039 15.078Zm0 0"/><path fill="#f9f8f9" d="m221.543 145.91-12.711 20.266-1.46-13.653Zm0 0"/><path fill="#b0acb7" d="m246.785 127.5-7.918 21.95-8.941-15.09Zm0 0"/><path fill="#211634" d="m190.996 220.969-3.789-27.828 20.691 12.015ZM198.7 240.11l25.929-14.926-2.559 16.058Zm0 0"/><path fill="#201533" d="m224.629 225.184-25.93 14.925-7.703-19.14Zm0 0"/><path fill="#fefefe" d="m238.883 360.25-11.992-20.566 32.203 12.011Zm0 0"/><path fill="#fefefe" d="m226.89 339.684 18.61-6.344 13.594 18.355Zm0 0"/><path fill="#e6e5e8" d="m192.293 344.246-41.156-6.734 21.968-43.13Zm0 0"/><path fill="#fefefe" d="m151.137 337.512 41.156 6.734-13.106 22.363Zm0 0"/><path fill="#ecebee" d="m207.703 317.02-15.41 27.226-19.188-49.863Zm0 0"/><path fill="#f4f4f5" d="m209.746 302.137-2.043 14.883-34.598-22.637Zm0 0"/><path fill="#dddbdf" d="m207.703 317.02 19.188 22.664-34.598 4.562Zm0 0"/><path fill="#eeedf0" d="m326.61 360.98 16.792-20.23 40.555 43.234Zm0 0"/><path fill="#201533" d="m363.824 248.352-20.746 17.89 9.281-23.722Zm0 0"/><path fill="#281e3b" d="m343.078 266.242 20.746-17.89-4.574 22.375Zm0 0"/><path fill="#fefefe" d="m343.078 266.242-16.668-5.531 25.95-18.191Zm0 0"/><path fill="#f4f4f5" d="m363.824 248.352 20.18-39.77v53.32Zm0 0"/><path fill="#ecebed" d="m384.004 208.582-20.18 39.77-4.875-48.747Zm0 0"/><path fill="#221735" d="m358.95 199.605 4.874 48.747-11.465-5.832Zm0 0"/><path fill="#fefefe" d="m279.191 333.188 10.461-7.497 4.735 5.528Zm0 0"/><path fill="#fefefe" d="m279.082 322.914 10.57 2.777-10.46 7.497Zm0 0"/><path fill="#fdfdfd" d="m289.652 325.691 21.297-11.925-16.562 17.453Zm0 0"/><path fill="#fefefe" d="m310.95 313.766-21.298 11.925 1.227-20.964Zm0 0"/><path fill="#201533" d="m289.652 325.691-10.57-2.777 11.797-18.187ZM351.824 291.086l-25.898 6.684 9.894-16.895Zm0 0"/><path fill="#211634" d="m343.313 313.055-17.387-15.285 25.898-6.684Zm0 0"/><path fill="#fefefe" d="m325.926 297.77-11.883-14.375 21.777-2.52ZM314.043 283.395l-3.094 30.37-20.07-9.038Zm0 0"/><path fill="#fefdfe" d="m314.043 283.395 11.883 14.375-14.977 15.996Zm0 0"/><path fill="#f9f8f9" d="m298.695 266.074 15.348 17.32-23.164 21.333Zm0 0"/><path fill="#201533" d="m216.566 90.656 23.817 5.38-13.813 20.894ZM240.383 96.035l-23.817-5.379 18.184-16.949ZM216.566 90.656l-37.742 22.899 9.793-21.848Zm0 0"/><path fill="#201533" d="m216.566 90.656-20.27 31.817-17.472-8.918ZM196.297 122.473l20.27-31.817 10.003 26.274ZM80.215 80.934l-14.617-37.77 28.695 22.633Zm0 0"/><path fill="#e8e7ea" d="m19.375 63.672 31.824 10.691-9.445 21.418Zm0 0"/><path fill="#fefdfe" d="m80.578 252.84-8.754 18.582-20.972-24.094Zm0 0"/><path fill="#fefefe" d="m71.824 271.422-31.847-13.969 10.875-10.125ZM124.227 228.074l-18.762 4.215 10.98-23.629Zm0 0"/><path fill="#201533" d="m105.465 232.29 18.762-4.216-17.622 30.035Zm0 0"/><path fill="#fdfdfd" d="m52.266 116.352-17.575 38.66-3.476-43.352Zm0 0"/><path fill="#686175" d="m34.691 155.012 17.575-38.66 18.246 16.906Zm0 0"/><path fill="#fefefe" d="m71.824 271.422 24.04 33.64-32.641-2.066Zm0 0"/><path fill="#f9f9f9" d="m95.863 305.063-24.039-33.641 29.383.078Zm0 0"/><path fill="#f2f2f3" d="m128.71 294.145-32.847 10.918 5.344-33.563Zm0 0"/><path fill="#e6e5e8" d="m123.75 326.273-27.887-21.21 32.848-10.918Zm0 0"/><path fill="#fefefe" d="m108.246 330.934-12.383-25.872 27.887 21.211ZM156.492 253.672l-17.5-13.34 24.516 1.637Zm0 0"/><path fill="#201533" d="m134.207 255.5 4.785-15.168 17.5 13.34Zm0 0"/><path fill="#201533" d="m138.992 240.332-4.785 15.168-5.785-10.879Zm0 0"/><path fill="#fefefe" d="M71.824 271.422 50.781 282.89l-10.804-25.438Zm0 0"/><path fill="#f3f2f4" d="m325.418 72.309-8.547 20.82-15.933-19.313Zm0 0"/><path fill="#362c47" d="M300.938 73.816 316.87 93.13l-31.95-28.356Zm0 0"/><path fill="#3a304b" d="M316.871 93.129 302.68 110.73l-17.758-45.957Zm0 0"/><path fill="#f0eff1" d="m316.871 93.129 8.547-20.82-7.29 21.421Zm0 0"/><path fill="#f3f2f4" d="M302.68 110.73 316.87 93.13l1.258.601Zm0 0"/><path fill="#201533" d="m188.617 91.707-9.793 21.848-13.383-13.02ZM196.297 122.473v.113l-34.192 20.703ZM196.297 122.586l-14.957 23.969-19.235-3.266Zm0 0"/><path fill="#fdfdfd" d="m181.34 146.555 14.957-23.97 11.074 29.938Zm0 0"/><path fill="#201533" d="m207.371 152.523-11.074-29.937 25.246 23.324ZM208.832 166.176l-17.445 10.547-19.328-12.77ZM191.387 176.723l-9.719 3.754-9.61-16.524ZM191.387 176.723l-4.18 16.418-5.539-12.664Zm0 0"/><path fill="#201533" d="m187.207 193.14 4.18-16.417 13.687 5.738Zm0 0"/><path fill="#201633" d="m191.387 176.723 17.445-10.547-3.758 16.285Zm0 0"/><path fill="#201533" d="m198.7 240.11-1.817 25.378-23.383-6.457Zm0 0"/><path fill="#fdfdfd" d="m196.883 265.488 1.816-25.379 20.14 14.524Zm0 0"/><path fill="#211634" d="m198.7 240.11-10.052-3.778 2.348-15.363Zm0 0"/><path fill="#f6f6f7" d="m188.648 236.332-13.77-12.184 16.118-3.18Zm0 0"/><path fill="#201533" d="m188.648 236.332 10.051 3.777-25.199 18.922Zm0 0"/><path fill="#fefefe" d="m188.648 236.332-15.148 22.7-9.992-17.063Zm0 0"/><path fill="#fefefe" d="m174.879 224.148 13.77 12.184-25.141 5.637Zm0 0"/><path fill="#201533" d="m174.879 224.148-10.188-7.984 12.836-13.008ZM190.996 220.969l-16.117 3.18 2.648-20.993Zm0 0"/><path fill="#f5f5f6" d="m274.234 211.785-5.964-12.05 35.421 8.874Zm0 0"/><path fill="#efeef0" d="m274.234 211.785 29.457-3.176-26.449 36.98Zm0 0"/><path fill="#fafafa" d="m275.7 185.969-7.43 13.765-7.54-21.847Zm0 0"/><path fill="#fefefe" d="m268.27 199.734-23.743 18.305-19.78-16.25Zm0 0"/><path fill="#fdfdfe" d="m234.828 232.496 9.7-14.457 4.347 10.527Zm0 0"/><path fill="#fefefe" d="m244.527 218.04 29.707-6.255-25.359 16.781ZM244.527 218.04l23.743-18.306 5.964 12.051Zm0 0"/><path fill="#fdfcfd" d="m224.746 201.79 19.781 16.25-9.699 14.456Zm0 0"/><path fill="#fefefe" d="m218.84 254.633 14.597-5.746 1.43 11.277Zm0 0"/><path fill="#201533" d="m233.438 248.887 15.09-2.344-13.66 13.621Zm0 0"/><path fill="#221735" d="m190.996 220.969 33.75-19.18-.117 23.395Zm0 0"/><path fill="#211634" d="m224.746 201.79-33.75 19.179 16.902-15.813Zm0 0"/><path fill="#201533" d="m210.793 366.543 28.09-6.293L214.43 384Zm0 0"/><path fill="#fefefe" d="m226.89 339.684-16.097 26.859-18.5-22.297ZM210.793 366.543l16.098-26.86 11.992 20.567Zm0 0"/><path fill="#201533" d="M210.793 366.543 214.43 384l-6.957-11.754ZM246.496 314.363l-21.758-2.246 3.621-19.562Zm0 0"/><path fill="#f3f3f4" d="m207.703 317.02 17.035-4.903 2.153 27.567Zm0 0"/><path fill="#201533" d="m228.36 292.555-3.622 19.562-14.992-9.98Zm0 0"/><path fill="#f4f3f5" d="m224.738 312.117-17.035 4.903 2.043-14.883Zm0 0"/><path fill="#fbfafb" d="m245.5 333.34-20.762-21.223 21.758 2.246Zm0 0"/><path fill="#f4f4f5" d="m226.89 339.684-2.152-27.567L245.5 333.34Zm0 0"/><path fill="#f7f7f8" d="m80.578 252.84 26.027 5.27-5.398 13.39Zm0 0"/><path fill="#201533" d="m106.605 258.11-26.027-5.27 24.887-20.55ZM196.297 122.586v-.113l25.246 23.437ZM249.047 186.148l19.223 13.586-43.524 2.055Zm0 0"/><path fill="#201533" d="m249.047 186.148-24.3 15.641 15.288-19.887Zm0 0"/><path fill="#201533" d="m268.27 199.734-19.223-13.586 11.683-8.261Zm0 0"/><path fill="#fefefe" d="m222.07 241.242 11.368 7.645-14.598 5.746ZM222.07 241.242l12.758-8.746-1.39 16.39Zm0 0"/><path fill="#fefefe" d="m234.828 232.496-12.758 8.746 2.559-16.058Zm0 0"/><path fill="#201533" d="m208.832 166.176 15.102 16.465-18.86-.18Zm0 0"/><path fill="#f9f9fa" d="m256.066 154.848 37.664-.168-33 23.207Zm0 0"/><path fill="#201533" d="m259.332 241.496-10.805 5.047.348-17.977ZM248.527 246.543l-13.699-14.047 14.047-3.93Zm0 0"/><path fill="#fefefe" d="m234.828 232.496 13.7 14.047-15.09 2.344Zm0 0"/><path fill="#f8f8f9" d="m209.793 194.402 14.953 7.387-16.848 3.367Zm0 0"/><path fill="#fdfdfd" d="m187.207 193.14 22.586 1.262-1.895 10.754Zm0 0"/><path fill="#fefefe" d="m209.793 194.402-22.586-1.261 17.867-10.68ZM223.934 182.64l-14.141 11.762-4.719-11.941Zm0 0"/><path fill="#201533" d="m224.746 201.79-.812-19.15 16.101-.738Zm0 0"/><path fill="#fbfbfc" d="m209.793 194.402 14.14-11.761.813 19.148Zm0 0"/><path fill="#221735" d="m249.047 186.148-1.774-12.468 13.457 4.207Zm0 0"/><path fill="#211633" d="m247.273 173.68 8.793-18.832 4.664 23.039Zm0 0"/><path fill="#231836" d="m247.273 173.68 1.774 12.468-9.012-4.246Zm0 0"/><path fill="#fefefe" d="m247.273 173.68-10.691-12.692 19.484-6.14Zm0 0"/><path fill="#271d3a" d="m238.867 149.45 7.918-21.95 9.281 27.348Zm0 0"/><path fill="#fefefe" d="m236.582 160.988 2.285-11.539 17.2 5.399Zm0 0"/><path fill="#fdfdfd" d="m246.785 127.5 20.059 2.277-10.778 25.07Zm0 0"/><path fill="#fafafa" d="m256.066 154.848 10.778-25.07 26.886 24.902Zm0 0"/><path fill="#fefefe" d="m247.273 173.68-13.261-2.551 2.57-10.14Zm0 0"/><path fill="#201533" d="m223.934 182.64 10.078-11.511 6.023 10.773Zm0 0"/><path fill="#fdfdfd" d="m234.012 171.129 13.261 2.55-7.238 8.223Zm0 0"/><path fill="#fefefe" d="m234.012 171.129-25.18-4.953 27.75-5.188Zm0 0"/><path fill="#fefefe" d="m208.832 166.176 25.18 4.953-10.078 11.512Zm0 0"/></svg>