<svg xmlns="http://www.w3.org/2000/svg" width="512" height="512" viewBox="0 0 384 384"><path fill="#fed600" d="M23.375 100.984 0 126V85.188ZM0 126l23.375-25.016 4.39 25.032Zm0 0"/><path fill="#800020" d="m244.703 273.805 6.988 15.152-12.91.785Zm0 0"/><path fill="#fed600" d="m40.484 64.188-17.109 36.796L0 85.188Zm0 0"/><path fill="#b8bcc4" d="m96.082 256.137 15.297 14.785-22.625-4.156Zm0 0"/><path fill="#fcd402" d="M384 127.734v111.598l-11.125-19.363Zm0 0"/><path fill="#81031f" d="m173.008 186.816 13.558-7.074.82 14.551Zm0 0"/><path fill="#b7bbc4" d="m251.691 288.957-4.984 9.922-7.926-9.137Zm0 0"/><path fill="#fcd302" d="m331.906 384-72.414.02 58.528-43.454Zm0 0"/><path fill="#fed600" d="M384 239.332v80.809l-31.594-18.383Zm0 0"/><path fill="#dda20d" d="m101.965 14.637 11.16-14.64 31.332 26.448Zm0 0"/><path fill="#f9d40e" d="m118.227 142.438-11.075 16.242-9.46-17.203Zm0 0"/><path fill="#fdd604" d="m25.922 183.93 3.328 2.718-17.117 5.653Zm0 0"/><path fill="#fdd500" d="m0 384 43.555-41.305L65.609 384Zm0 0"/><path fill="#fed600" d="m0 325.332 43.555 17.363L0 384Zm0 0"/><path fill="#fcd302" d="m100.426 338.61 20.808 11.007-4.96 9.336ZM370.586 130.824l13.414-3.09-11.125 92.235ZM352.98 79.379l17.606 51.445-33.484-11.086Zm0 0"/><path fill="#62138a" d="m349.734-.004-2.203 31.977-17.386-16.164Zm0 0"/><path fill="#80011f" d="m261.223 273.203-9.532 15.754-6.988-15.152Zm0 0"/><path fill="#80001f" d="m261.223 273.203 3.957 13.879-13.489 1.875Zm0 0"/><path fill="#b8bcc4" d="m315.984 267.563-14.011-18.258 26.27-23.774ZM97.691 141.477l-31.824 2.488 31.656-44.067Zm0 0"/><path fill="#f5c802" d="m175.941 198.527-2.933-11.71 14.379 7.476Zm0 0"/><path fill="#fed601" d="m175.941 198.527 10.84 8.516-15.832 3.172Zm0 0"/><path fill="#a13917" d="m146.047 135.465-24.98 20.988-2.84-14.016Zm0 0"/><path fill="#e3ab0a" d="m140.469 122.828 5.578 12.637-27.82 6.972Zm0 0"/><path fill="#c27010" d="m146.047 135.465-5.578-12.637 39.957-14.703Zm0 0"/><path fill="#fdd400" d="m173.008 186.816-9.848 8.782-7.332-15.043Zm0 0"/><path fill="#80001f" d="m134.008 181.074-15.946 9.961 3.004-34.582Zm0 0"/><path fill="#fad001" d="m220.36 277.645-8.137-9.79 19.382-7.527Zm0 0"/><path fill="#800020" d="m220.36 277.645 24.343-3.84-5.922 15.937Zm0 0"/><path fill="#80001f" d="m220.36 277.645 11.245-17.317 13.098 13.477Zm0 0"/><path fill="#fed600" d="m217.016 247.297-4.793 20.558-6.192-17.843ZM212.223 267.855l4.793-20.558 14.59 13.031Zm0 0"/><path fill="#80001f" d="m220.36 277.645-13.126.117 4.989-9.907Zm0 0"/><path fill="#b8bcc4" d="m306.18 197.438-32.907 4.003 11.856-33.113Zm0 0"/><path fill="#81031f" d="m265.18 287.082-7.14 9.012-6.349-7.137Zm0 0"/><path fill="#b7bbc4" d="m258.04 296.094-11.333 2.785 4.984-9.922Zm0 0"/><path fill="#b8bbc4" d="m246.707 298.879 11.332-2.785-3.582 20.199Zm0 0"/><path fill="#fcd401" d="m367.848 239.98 16.152-.648-31.594 62.426Zm0 0"/><path fill="#b8bcc4" d="m334.527 196.77 22.72 25.44-29.005 3.321Zm0 0"/><path fill="#b8bcc3" d="m357.246 222.21 10.602 17.77-39.606-14.449Zm0 0"/><path fill="#e0b320" d="m300.262 327.45-34.778 30.62-2.543-6.406Zm0 0"/><path fill="#ecbf0f" d="m69.668 29.398 32.297-14.761-4.043 25.465Zm0 0"/><path fill="#ca9127" d="m165.14.012-20.683 26.433L113.125-.004Zm0 0"/><path fill="#f9d40f" d="m150.973 40.41 43.007-9.96.075 4.187Zm0 0"/><path fill="#b8bcc2" d="m196.621 72.14-45.648-31.73 43.082-5.773Zm0 0"/><path fill="#b8bcc4" d="M196.621 72.14 225.2 38.083l6.633 21.766Zm0 0"/><path fill="#fcd507" d="m193.98 30.45 31.22 7.632-31.145-3.445Zm0 0"/><path fill="#b9bcc1" d="M225.2 38.082 196.62 72.141l-2.566-37.504ZM225.2 38.082l31.636 9.41-25.004 12.356Zm0 0"/><path fill="#fcd606" d="m196.621 72.14-24.676 26.02-6.3-11.613Zm0 0"/><path fill="#fed600" d="m16.402 144.121 11.364-18.105 1.187 18.941Zm0 0"/><path fill="#fed602" d="m0 126 16.402 18.121-16.406 45.52Zm0 0"/><path fill="#fed600" d="M27.766 126.016 16.402 144.12 0 126Zm0 0"/><path fill="#6e227f" d="M43.328 24.48 61.188.008l8.48 29.39Zm0 0"/><path fill="#fed602" d="M0 85.188V44.316l40.484 19.871Zm0 0"/><path fill="#f4c402" d="m118.227 142.438 2.84 14.015-13.915 2.227Zm0 0"/><path fill="#fed600" d="m0 282.664-.004-43.676 20.848 29.934Zm0 0"/><path fill="#fbd509" d="M12.133 192.3-.004 238.989v-49.347Zm0 0"/><path fill="#fed600" d="m12.133 192.3 15.59 24.118-27.727 22.57Zm0 0"/><path fill="#671883" d="m50.191 216.516 16.29 5.308-9.91 6.938Zm0 0"/><path fill="#b8bcc3" d="m33.14 237.258 17.051-20.742 6.38 12.246Zm0 0"/><path fill="#82031f" d="m101.367 192.383 5.656 13.601-34.386 18.649Zm0 0"/><path fill="#80001f" d="m118.184 209.781-.121-18.746 21.335 10.555Zm0 0"/><path fill="#80011f" d="m118.063 191.035.12 18.746-11.16-3.797Zm0 0"/><path fill="#fed600" d="m16.402 144.121 12.551.836-3.031 38.973Zm0 0"/><path fill="#b8bcc4" d="m61.723 102.063 35.8-2.165-31.656 44.067ZM36.152 149.121l16.45 25.414-23.352 12.113Zm0 0"/><path fill="#bcbdb9" d="m36.152 149.121-6.902 37.527-3.328-2.718Zm0 0"/><path fill="#fad50b" d="m28.953 144.957 7.2 4.164-10.231 34.809Zm0 0"/><path fill="#b8bcc2" d="m36.152 149.121 29.715-5.156-13.265 30.57Zm0 0"/><path fill="#fed601" d="m107.152 158.68-25.382 1.277 15.921-18.48Zm0 0"/><path fill="#b8bcc4" d="m81.77 159.957-15.903-15.992 31.824-2.488Zm0 0"/><path fill="#e7cd40" d="m87.035 181.008-5.265-21.051 25.382-1.277Zm0 0"/><path fill="#fdd500" d="m81.77 159.957 5.265 21.05-20.32-4.296Zm0 0"/><path fill="#b8bcc4" d="m146.945 342.18-9.445-35.383 49.965 22.066Zm0 0"/><path fill="#b8bcc4" d="m137.5 306.797 9.445 35.383-25.71 7.437Zm0 0"/><path fill="#ebbe11" d="m209.844 384.004-32.485-16.313 30.075-1.39Zm0 0"/><path fill="#f9d004" d="m177.36 367.691 32.484 16.313h-84.7Zm0 0"/><path fill="#fdd502" d="m43.555 342.695-15.512-39.66 26.781 7.57Zm0 0"/><path fill="#fed600" d="m43.555 342.695 39.707 15.692L65.609 384ZM83.262 358.387l-1.043-33.555 18.207 13.777Zm0 0"/><path fill="#fdd604" d="m65.094 303.785 17.125 21.047-27.395-14.227Zm0 0"/><path fill="#fdd500" d="m54.824 310.605 27.395 14.227-38.664 17.863Zm0 0"/><path fill="#fdd501" d="m82.219 324.832 1.043 33.555-39.707-15.692Zm0 0"/><path fill="#fbd203" d="m370.586 130.824-23.64 10.473-9.844-21.559Zm0 0"/><path fill="#b9bcc0" d="m346.945 141.297-18.261-8.086 8.418-13.473Zm0 0"/><path fill="#e7b915" d="m346.945 141.297 23.64-10.473-12.073 50.281Zm0 0"/><path fill="#ecbf10" d="m322.398 43.137 39.118 12.12-8.536 24.122Zm0 0"/><path fill="#f9d004" d="M319.055 95.05 352.98 79.38l-15.878 40.36Zm0 0"/><path fill="#e5b718" d="m358.512 181.105 12.074-50.28 2.289 89.144Zm0 0"/><path fill="#b8bcc4" d="m318.105 157.777 40.407 23.328-23.985 15.665ZM318.105 157.777l-11.925 39.66-21.051-29.109Zm0 0"/><path fill="#b8bcc4" d="m318.105 157.777 16.422 38.993-28.347.667Zm0 0"/><path fill="#641588" d="m315.68.02 34.054-.024-19.59 15.813Zm0 0"/><path fill="#a76a4c" d="m330.145 15.809-7.747 27.328-13.77-29.418Zm0 0"/><path fill="#6d2180" d="M384.016 35.656 364.715 13.41 383.969-.008Zm0 0"/><path fill="#c18936" d="m347.531 31.973-25.133 11.164 7.747-27.328Zm0 0"/><path fill="#60108c" d="M383.969-.008 364.715 13.41 349.735-.004Zm0 0"/><path fill="#671985" d="M364.715 13.41 347.53 31.973l2.203-31.977Zm0 0"/><path fill="#80001f" d="m258.969 261.281 2.254 11.922-16.52.602ZM261.223 273.203l-2.254-11.922 9.629-2.558Zm0 0"/><path fill="#80011f" d="m265.18 287.082 5.824-14.344 13.183 9.43Zm0 0"/><path fill="#81021f" d="m261.223 273.203 9.78-.465-5.823 14.344Zm0 0"/><path fill="#80001f" d="m271.004 272.738-9.781.465 7.375-14.48Zm0 0"/><path fill="#80001f" d="m280.602 266.64-9.598 6.098-2.406-14.015Zm0 0"/><path fill="#b8bcc4" d="m280.602 266.64 14.675-1.324-11.09 16.852Zm0 0"/><path fill="#8a111d" d="m271.004 272.738 9.598-6.097 3.586 15.527Zm0 0"/><path fill="#b8bcc4" d="m301.973 249.305-22.496 2.738 15.37-26.5Zm0 0"/><path fill="#b8bcc4" d="m279.477 252.043 22.496-2.738-6.696 16.011Zm0 0"/><path fill="#b7bbc4" d="m280.602 266.64-1.125-14.597 15.8 13.273Zm0 0"/><path fill="#80001f" d="m279.477 252.043 1.125 14.598-12.004-7.918Zm0 0"/><path fill="#b8bcc4" d="m301.973 249.305 14.011 18.257-20.707-2.246ZM328.242 225.531l-22.062-28.094 28.347-.667Zm0 0"/><path fill="#b8bcc4" d="m306.18 197.438 22.062 28.093-33.394.012ZM328.242 225.531l-26.27 23.774-7.124-23.762ZM109.676 118.957l-11.985 22.52-.168-41.579Zm0 0"/><path fill="#fed600" d="m109.676 118.957 30.793 3.871-22.242 19.61Zm0 0"/><path fill="#fad50d" d="m97.691 141.477 11.985-22.52 8.55 23.48Zm0 0"/><path fill="#fdd503" d="m315.68.02-7.051 13.699L267.816 0Zm0 0"/><path fill="#b8bcc4" d="m261.395 91.832 30.457-23.996 9.203 45.492ZM254.227 68.285l7.168 23.547-25.368-12.879Zm0 0"/><path fill="#b8bcc3" d="m261.395 91.832-7.168-23.547 37.625-.45Zm0 0"/><path fill="#81021f" d="m186.566 179.742-15.488-14.46 19.957-.716Zm0 0"/><path fill="#82031f" d="m171.078 165.281 1.93 21.535-17.18-6.261Zm0 0"/><path fill="#efbd04" d="m173.008 186.816-1.93-21.535 15.488 14.461Zm0 0"/><path fill="#a94515" d="m171.078 165.281-20.433-8.691 10.359-15.828Zm0 0"/><path fill="#80001f" d="m146.047 135.465 4.598 21.125-29.579-.137Zm0 0"/><path fill="#800020" d="m150.645 156.59-4.598-21.125 14.957 5.297Zm0 0"/><path fill="#80001f" d="m150.645 156.59 20.433 8.691-15.25 15.274Zm0 0"/><path fill="#fed600" d="m175.941 198.527-12.78-2.93 9.847-8.78Zm0 0"/><path fill="#fed500" d="m163.16 195.598 12.781 2.93-4.992 11.687Zm0 0"/><path fill="#fad002" d="m152.984 205.547 10.176-9.95 7.79 14.618Zm0 0"/><path fill="#fdd604" d="m149.063 193.344 3.921 12.203-13.586-3.957Zm0 0"/><path fill="#fed600" d="m149.063 193.344 14.097 2.254-10.176 9.949Zm0 0"/><path fill="#e5ac08" d="m152.984 205.547 17.965 4.668-14 6.82Zm0 0"/><path fill="#80001f" d="m206.813 207.664-17.586 13.594-2.446-14.215Zm0 0"/><path fill="#fdd401" d="m331.906 384 20.727-38.715L384 384Zm0 0"/><path fill="#e4b618" d="m357.246 222.21 15.629-2.241-5.027 20.011Zm0 0"/><path fill="#fdd500" d="m352.406 301.758.227 43.527-34.613-4.719Zm0 0"/><path fill="#b8bcc4" d="m276.203 318.957-13.262 32.707-8.484-35.371ZM276.203 318.957l24.059 8.492-37.32 24.215ZM295.277 265.316l-7.496 22.778-3.594-5.926Zm0 0"/><path fill="#fed600" d="m270.086 297.344-4.906-10.262 19.007-4.914Zm0 0"/><path fill="#fed601" d="m287.781 288.094-17.695 9.25 14.101-15.176Zm0 0"/><path fill="#fed600" d="m270.086 297.344 17.695-9.25 2.242 19.023Zm0 0"/><path fill="#80001f" d="m270.086 297.344-12.047-1.25 7.14-9.012Zm0 0"/><path fill="#fed600" d="M193.98 30.45 165.14.011l57.188-.016Zm0 0"/><path fill="#fdd300" d="m150.973 40.41-6.516-13.965 49.523 4.004Zm0 0"/><path fill="#fed600" d="m193.98 30.45-49.523-4.005L165.141.012Zm0 0"/><path fill="#7f346d" d="m61.188.008 40.777 14.629-32.297 14.761Zm0 0"/><path fill="#8e4962" d="M101.965 14.637 61.188.007l51.937-.01Zm0 0"/><path fill="#fdd604" d="m267.816 0-8.035 26.547-37.453-26.55Zm0 0"/><path fill="#fed601" d="m222.328-.004 2.871 38.086-31.219-7.633Zm0 0"/><path fill="#fdd500" d="M259.781 26.547 225.2 38.082 222.33-.004Zm0 0"/><path fill="#fdd603" d="m225.2 38.082 34.581-11.535-2.945 20.945Zm0 0"/><path fill="#fed600" d="m196.621 72.14 18.953 9.122-12.734 7.847Zm0 0"/><path fill="#fed600" d="m196.621 72.14 35.211-12.292-16.258 21.414Zm0 0"/><path fill="#b8bcc3" d="m231.832 59.848 22.395 8.437-18.2 10.668Zm0 0"/><path fill="#fdd604" d="m215.574 81.262 16.258-21.414 4.195 19.105Zm0 0"/><path fill="#b8bcc4" d="m231.832 59.848 25.004-12.356-2.61 20.793Zm0 0"/><path fill="#fcd504" d="m130.46 107.508 16.06-16.668-6.051 31.988Zm0 0"/><path fill="#b8bcc4" d="m130.46 107.508-20.784 11.449-12.153-19.059Zm0 0"/><path fill="#fed601" d="m109.676 118.957 20.785-11.45 10.008 15.321Zm0 0"/><path fill="#b8bcc4" d="m97.523 99.898.22-33.359 33.652 7.582Zm0 0"/><path fill="#f5ca07" d="M97.742 66.54 69.668 29.397l28.254 10.704Zm0 0"/><path fill="#b9bcc2" d="M146.52 90.84 131.395 74.12l34.25 12.426Zm0 0"/><path fill="#b8bcc4" d="m131.395 74.121 19.578-33.71 14.672 46.136Zm0 0"/><path fill="#b8bcc3" d="m131.395 74.121-.934 33.387-32.938-7.61Zm0 0"/><path fill="#b8bcc4" d="m130.46 107.508.935-33.387L146.52 90.84ZM122.934 51.059l8.46 23.062-33.652-7.582Zm0 0"/><path fill="#f8cd05" d="m122.934 51.059-25.192 15.48.18-26.437Zm0 0"/><path fill="#b8bcc3" d="m122.934 51.059 28.039-10.649-19.578 33.711Zm0 0"/><path fill="#eccf33" d="m146.52 90.84 25.425 7.32-31.476 24.668Zm0 0"/><path fill="#dfa108" d="m140.469 122.828 31.476-24.668 8.48 9.965Zm0 0"/><path fill="#fcd507" d="m171.945 98.16-25.425-7.32 19.125-4.293Zm0 0"/><path fill="#843763" d="m.016-.031 61.172.039-17.86 24.472Zm0 0"/><path fill="#fed600" d="M40.484 64.188 0 44.316 43.328 24.48Zm0 0"/><path fill="#f9d004" d="m40.484 64.188 2.844-39.708 26.34 4.918Zm0 0"/><path fill="#b8bcc4" d="m52.531 244.676-19.39-7.418 23.43-8.496Zm0 0"/><path fill="#f6cc07" d="m27.723 216.418-5.727 25.492-22-2.922Zm0 0"/><path fill="#fdd502" d="m-.004 238.988 22 2.922-1.152 27.012Zm0 0"/><path fill="#fed602" d="m29.25 186.648-1.527 29.77-15.59-24.117Zm0 0"/><path fill="#f3cd12" d="m27.723 216.418 5.418 20.84-11.145 4.652Zm0 0"/><path fill="#b8bcc3" d="m50.191 216.516-22.468-.098 1.527-29.77Zm0 0"/><path fill="#b8bcc4" d="m27.723 216.418 22.468.098-17.05 20.742ZM60.105 205.34 29.25 186.648l23.352-12.113Zm0 0"/><path fill="#b8bcc3" d="m60.105 205.34-9.914 11.176-20.941-29.868Zm0 0"/><path fill="#fdd501" d="m50.191 216.516 9.914-11.176 6.375 16.484Zm0 0"/><path fill="#b8bcc4" d="m66.715 176.71-6.61 28.63-7.503-30.805Zm0 0"/><path fill="#fdd501" d="m60.105 205.34 6.61-28.63-.235 45.114Zm0 0"/><path fill="#f6ca04" d="m66.48 221.824 17.985-31.058-11.828 33.867Zm0 0"/><path fill="#fdd602" d="m66.715 176.71 17.75 14.056-17.985 31.058Zm0 0"/><path fill="#e9b307" d="m84.465 190.766 16.902 1.617-28.73 32.25Zm0 0"/><path fill="#fcd506" d="m84.465 190.766-17.75-14.055 20.32 4.297Zm0 0"/><path fill="#eebe09" d="m101.367 192.383-16.902-1.617 2.57-9.758Zm0 0"/><path fill="#80001f" d="m134.008 181.074 5.39 20.516-21.335-10.555Zm0 0"/><path fill="#f6c902" d="m149.063 193.344-9.665 8.246-5.39-20.516Zm0 0"/><path fill="#c97c0d" d="m101.367 192.383 16.695-1.348-11.039 14.95Zm0 0"/><path fill="#e3ab0a" d="m139.3 214.535 13.684-8.988 3.965 11.488Zm0 0"/><path fill="#e5cc47" d="m152.984 205.547-13.683 8.988.097-12.945Zm0 0"/><path fill="#f0c10a" d="m139.3 214.535-21.116-4.754 21.214-8.191Zm0 0"/><path fill="#b8bcc4" d="m111.305 237.855.074 33.067-15.297-14.785Zm0 0"/><path fill="#fdd605" d="m12.133 192.3 4.27-48.179 9.519 39.809Zm0 0"/><path fill="#fdd603" d="m16.402 144.121-4.27 48.18-12.136-2.66Zm0 0"/><path fill="#fcd503" d="m27.766 126.016-4.391-25.032 38.348 1.079Zm0 0"/><path fill="#b8bcc4" d="m40.93 134.355 24.937 9.61-29.715 5.156Zm0 0"/><path fill="#b8bcc2" d="m40.93 134.355 20.793-32.292 4.144 41.902Zm0 0"/><path fill="#fbd507" d="m40.93 134.355-13.164-8.34 33.957-23.952Zm0 0"/><path fill="#b8bcc4" d="m81.77 159.957-15.055 16.754-.848-32.746ZM65.867 143.965l.848 32.746-14.113-2.176ZM137.5 306.797l-4.832-41.082 28.828 9.898Zm0 0"/><path fill="#b8bcc4" d="M176.246 293.992 137.5 306.797l23.996-31.184ZM137.5 306.797l38.746-12.805 11.219 34.871Zm0 0"/><path fill="#b8bcc4" d="m132.668 265.715 21.75-9.211 7.078 19.11Zm0 0"/><path fill="#f6c802" d="m154.418 256.504 5.05-11.637 6.395 1.836Zm0 0"/><path fill="#b8bcc5" d="m111.305 237.855 21.363 27.86-21.29 5.207Zm0 0"/><path fill="#b8bcc4" d="m132.668 265.715-21.363-27.86 24.918 9.477ZM132.668 265.715l4.832 41.082-26.121-35.875Zm0 0"/><path fill="#f9d004" d="m138.668 358.477 38.691 9.214-52.214 16.313Zm0 0"/><path fill="#fbd202" d="m138.668 358.477-13.523 25.527-8.872-25.05Zm0 0"/><path fill="#b8bcc4" d="m177.36 367.691-38.692-9.214 8.277-16.297Zm0 0"/><path fill="#fad104" d="m121.234 349.617 17.434 8.86-22.395.476Zm0 0"/><path fill="#b8bcc4" d="m146.945 342.18-8.277 16.297-17.434-8.86Zm0 0"/><path fill="#fed600" d="M28.043 303.035 0 325.332v-42.668Zm0 0"/><path fill="#fed600" d="m20.844 268.922 7.199 34.113L0 282.665Zm0 0"/><path fill="#fdd501" d="M43.555 342.695 0 325.332l28.043-22.297Zm0 0"/><path fill="#fed600" d="m65.61 384 17.652-25.613 41.883 25.617Zm0 0"/><path fill="#fed500" d="m125.145 384.004-41.883-25.617 33.011.566Zm0 0"/><path fill="#fdd401" d="m83.262 358.387 17.164-19.778 15.847 20.344Zm0 0"/><path fill="#fed600" d="m28.043 303.035-7.2-34.113 30.84 14.848Zm0 0"/><path fill="#fdd602" d="m51.684 283.77 13.41 20.015-10.27 6.82Zm0 0"/><path fill="#b8bcc4" d="m68.094 274.434-3 29.351-13.41-20.015ZM346.945 141.297l-28.84 16.48 10.579-24.566Zm0 0"/><path fill="#b8bcc2" d="m318.105 157.777 28.84-16.48 11.567 39.808Zm0 0"/><path fill="#fdd401" d="m352.98 79.379 31.02-5.77v54.125Zm0 0"/><path fill="#fdd501" d="M370.586 130.824 352.98 79.38 384 127.734Zm0 0"/><path fill="#b8bcc4" d="m328.684 133.21-27.63-19.882 36.048 6.41ZM301.055 113.328l18-18.277 18.047 24.687Zm0 0"/><path fill="#b8bcc4" d="m301.055 113.328 27.629 19.883-10.579 24.566Zm0 0"/><path fill="#fcd401" d="m319.055 95.05 3.343-51.913 30.582 36.242Zm0 0"/><path fill="#fed602" d="m322.398 43.137-65.562 4.355 2.945-20.945Zm0 0"/><path fill="#6b1e82" d="m347.531 31.973 17.184-18.563 19.3 22.246Zm0 0"/><path fill="#c89230" d="m330.145 15.809-21.516-2.09 7.05-13.7Zm0 0"/><path fill="#fed600" d="m308.629 13.719 13.77 29.418-62.618-16.59ZM267.816 0l40.813 13.719-48.848 12.828Zm0 0"/><path fill="#fed602" d="m322.398 43.137-30.546 24.699-35.016-20.344Zm0 0"/><path fill="#efbd04" d="m180.426 108.125-8.48-9.965 30.894-9.05Zm0 0"/><path fill="#d4c675" d="m171.945 98.16 24.676-26.02 6.219 16.97Zm0 0"/><path fill="#80001f" d="m161.004 140.762-14.957-5.297 34.379-27.34Zm0 0"/><path fill="#b8bcc4" d="m281.492 128.813-20.097-36.981 39.66 21.496Zm0 0"/><path fill="#b8bcc4" d="m261.395 91.832 20.097 36.98-35.722-16.609ZM281.492 128.813l-14.883 10.136-20.84-26.746Zm0 0"/><path fill="#f4d21c" d="m171.078 165.281 11.82-20.207 8.137 19.492Zm0 0"/><path fill="#81021f" d="m182.898 145.074-11.82 20.207-10.074-24.52Zm0 0"/><path fill="#fed600" d="m149.063 193.344 6.765-12.79 7.332 15.044Zm0 0"/><path fill="#f2c206" d="m155.828 180.555-6.766 12.789-15.054-12.27Zm0 0"/><path fill="#80001f" d="m155.828 180.555-21.82.52-12.942-24.622ZM150.645 156.59l5.183 23.965-34.762-24.102ZM140.879 238.43l-1.578-23.895 17.648 2.5Zm0 0"/><path fill="#b8bcc4" d="m191.258 269.742-15.012 24.25-14.75-18.379Zm0 0"/><path fill="#fed600" d="m159.469 244.867 5.355-17.258 1.04 19.094Zm0 0"/><path fill="#81021f" d="m170.95 210.215-6.126 17.394-7.875-10.574Zm0 0"/><path fill="#80001f" d="m164.824 227.61-23.945 10.82 16.07-21.395Zm0 0"/><path fill="#fdd400" d="m140.879 238.43 23.945-10.82-5.355 17.257Zm0 0"/><path fill="#b7bbc4" d="m199.172 294.93-7.914-25.188 15.976 8.02Zm0 0"/><path fill="#b8bcc4" d="m191.258 269.742 7.914 25.188-22.926-.938ZM279.477 252.043l-4.27-15.324 19.64-11.176Zm0 0"/><path fill="#80001f" d="m275.207 236.719 4.27 15.324-10.88 6.68Zm0 0"/><path fill="#b8bcc3" d="m275.207 236.719 2.09-16.36 17.55 5.184Zm0 0"/><path fill="#fdd604" d="m277.297 220.36-2.09 16.359-19.926-2Zm0 0"/><path fill="#fed600" d="m277.297 220.36-22.016 14.359-9.86-12.074Zm0 0"/><path fill="#80001f" d="m258.969 261.281-2.067-16.117 11.696 13.559Zm0 0"/><path fill="#80001f" d="m256.902 245.164 18.305-8.445-6.61 22.004Zm0 0"/><path fill="#fbd202" d="m275.207 236.719-18.305 8.445-1.62-10.445Zm0 0"/><path fill="#80001f" d="m187.387 194.293 19.426 13.371-20.032-.621Zm0 0"/><path fill="#83061f" d="m187.387 194.293 24.515 3.18-5.09 10.191Zm0 0"/><path fill="#ebb605" d="m175.941 198.527 11.446-4.234-.606 12.75Zm0 0"/><path fill="#f6d316" d="m208.586 229.598 8.43 17.699-10.985 2.715Zm0 0"/><path fill="#e3b418" d="m239.398 360.727 23.543-9.063 2.543 6.406Zm0 0"/><path fill="#fdd501" d="m318.02 340.566 34.613 4.72L331.906 384Zm0 0"/><path fill="#fed600" d="M352.633 345.285 384 320.141V384Zm0 0"/><path fill="#fdd501" d="M352.406 301.758 384 320.14l-31.367 25.144Zm0 0"/><path fill="#e5b716" d="m259.492 384.02-20.094-23.293 26.086-2.657Zm0 0"/><path fill="#eec20e" d="m239.398 360.727 20.094 23.293-49.648-.016Zm0 0"/><path fill="#e7b914" d="m300.262 327.45 17.758 13.116-52.536 17.504Zm0 0"/><path fill="#e4b517" d="m318.02 340.566-58.528 43.454 5.992-25.95Zm0 0"/><path fill="#e6b716" d="m357.246 222.21 1.266-41.105 14.363 38.864Zm0 0"/><path fill="#b8bcc3" d="m358.512 181.105-1.266 41.106-22.719-25.441Zm0 0"/><path fill="#80001f" d="m270.086 297.344-.418 1.676-11.629-2.926Zm0 0"/><path fill="#870c1e" d="m269.668 299.02.418-1.676 19.937 9.773Zm0 0"/><path fill="#b7bbc4" d="m258.04 296.094 11.628 2.926-15.211 17.273Zm0 0"/><path fill="#b8bcc4" d="m269.668 299.02 6.535 19.937-21.746-2.664Zm0 0"/><path fill="#e9bd15" d="m318.852 306.68 33.554-4.922-34.386 38.808Zm0 0"/><path fill="#e9bc12" d="m300.262 327.45 18.59-20.77-.832 33.886Zm0 0"/><path fill="#b8bcc4" d="m315.984 267.563-28.203 20.53 7.496-22.777Zm0 0"/><path fill="#eaba0c" d="m101.965 14.637 20.969 36.422-25.012-10.957Zm0 0"/><path fill="#b9bcc2" d="m254.227 68.285 2.609-20.793 35.016 20.344Zm0 0"/><path fill="#80001f" d="m228.371 111.844 9.402-18.649 7.997 19.008Zm0 0"/><path fill="#b8bcc4" d="m261.395 91.832-23.622 1.363-1.746-14.242ZM237.773 93.195l23.622-1.363-15.625 20.371Zm0 0"/><path fill="#e6ad06" d="m237.773 93.195-22.199-11.933 20.453-2.309Zm0 0"/><path fill="#82031f" d="m195.813 124.293 2.207-8.758 28.117 12.875Zm0 0"/><path fill="#83051f" d="m198.02 115.535 30.351-3.691-2.234 16.566Zm0 0"/><path fill="#f8cf06" d="m97.742 66.54-12.644 9.956-15.43-47.098Zm0 0"/><path fill="#b8bcc4" d="m150.973 40.41 45.648 31.73-30.976 14.407Zm0 0"/><path fill="#fcd402" d="m122.934 51.059 21.523-24.614 6.516 13.965Zm0 0"/><path fill="#dfac17" d="m101.965 14.637 42.492 11.808-21.523 24.614Zm0 0"/><path fill="#fed600" d="m40.484 64.188 21.239 37.875-38.348-1.079Zm0 0"/><path fill="#f9cf05" d="M85.098 76.496 40.484 64.188l29.184-34.79Zm0 0"/><path fill="#fdd501" d="M61.723 102.063 40.484 64.188l44.614 12.308Zm0 0"/><path fill="#fed600" d="m20.844 268.922 16.648-14.914 14.192 29.762Zm0 0"/><path fill="#fdd501" d="m21.996 241.91 15.496 12.098-16.648 14.914Zm0 0"/><path fill="#fad207" d="m33.14 237.258 4.352 16.75-15.496-12.098Zm0 0"/><path fill="#b8bcc2" d="m52.531 244.676-15.039 9.332-4.351-16.75Zm0 0"/><path fill="#b8bcc4" d="m69.766 238.957-17.235 5.719 4.04-15.914ZM88.754 266.766l-18.988-27.809 26.316 17.18Zm0 0"/><path fill="#833d6d" d="m66.48 221.824 3.286 17.133-13.196-10.195Zm0 0"/><path fill="#995759" d="m69.766 238.957-3.286-17.133 6.157 2.809Zm0 0"/><path fill="#80011f" d="m101.367 192.383 19.7-35.93-3.004 34.582Zm0 0"/><path fill="#d9980a" d="m101.367 192.383-14.332-11.375 20.117-22.328Zm0 0"/><path fill="#ad4e15" d="m121.066 156.453-19.699 35.93 5.785-33.703Zm0 0"/><path fill="#f8d20e" d="m139.3 214.535-16.327 16.973-4.79-21.727Zm0 0"/><path fill="#800020" d="m111.305 237.855 11.668-6.347 13.25 15.824Zm0 0"/><path fill="#f3cc13" d="m122.973 231.508 17.906 6.922-4.656 8.902Zm0 0"/><path fill="#fbd104" d="m140.879 238.43-17.906-6.922 16.328-16.973Zm0 0"/><path fill="#b8bcc4" d="m100.426 338.61 10.277-18.684 10.531 29.691Zm0 0"/><path fill="#b8bcc4" d="m110.703 319.926 26.797-13.13-16.266 42.821ZM90.613 317.07l-8.394 7.762-17.125-21.047ZM82.219 324.832l8.394-7.762 9.813 21.54ZM90.613 317.07l20.09 2.856-10.277 18.683Zm0 0"/><path fill="#b8bcc4" d="m95.95 292.238-5.337 24.832-25.52-13.285Zm0 0"/><path fill="#b8bcc4" d="m90.613 317.07 5.336-24.832 14.754 27.688Zm0 0"/><path fill="#b8bbc4" d="m154.418 256.504 15.68 2.191-8.602 16.918Zm0 0"/><path fill="#b8bcc4" d="m170.098 258.695 21.16 11.047-29.762 5.871Zm0 0"/><path fill="#800020" d="m191.258 269.742-21.16-11.047 11.695-8.14Zm0 0"/><path fill="#fed600" d="m181.793 250.555-11.695 8.14-4.235-11.992Zm0 0"/><path fill="#81011f" d="m170.098 258.695-15.68-2.191 11.445-9.8Zm0 0"/><path fill="#b8bbc4" d="m136.223 247.332 18.195 9.172-21.75 9.21Zm0 0"/><path fill="#fed600" d="m28.043 303.035 23.64-19.265 3.141 26.835Zm0 0"/><path fill="#b8bcc4" d="m281.492 128.813 19.563-15.485 17.05 44.45Zm0 0"/><path fill="#b8bcc4" d="m285.129 168.328-3.637-39.515 36.613 28.964Zm0 0"/><path fill="#b8bcc4" d="m266.61 138.95 14.882-10.137 3.637 39.515Zm0 0"/><path fill="#e1b11a" d="m384 73.61-22.484-18.352 22.5-19.602Zm0 0"/><path fill="#bc833b" d="M361.516 55.258 347.53 31.973l36.485 3.683Zm0 0"/><path fill="#e3b418" d="m352.98 79.379 8.536-24.121L384 73.609Zm0 0"/><path fill="#884268" d="m322.398 43.137 25.133-11.164 13.985 23.285Zm0 0"/><path fill="#dfab14" d="m367.848 239.98-15.442 61.778-16.437-19.348Zm0 0"/><path fill="#80001f" d="m187.902 121.395-26.898 19.367 19.422-32.637Zm0 0"/><path fill="#bf945d" d="m161.004 140.762 26.898-19.367-5.004 23.68Zm0 0"/><path fill="#fed601" d="m182.898 145.074 16.032 4.559-7.895 14.933ZM198.93 149.633l7.93 8.164-15.825 6.77Zm0 0"/><path fill="#80001f" d="m243.855 118.703-15.484-6.86 17.399.36Zm0 0"/><path fill="#b8bcc4" d="m266.61 138.95-22.755-20.247 1.915-6.5Zm0 0"/><path fill="#b8bcc4" d="m251.367 143.262-7.512-24.559 22.754 20.246Zm0 0"/><path fill="#80001f" d="m228.371 111.844 15.484 6.86-17.718 9.706Zm0 0"/><path fill="#81021f" d="m243.855 118.703 7.512 24.559-25.23-14.852Zm0 0"/><path fill="#80001f" d="m207.234 277.762-10.363-12.828 15.352 2.921Zm0 0"/><path fill="#80001f" d="m191.258 269.742 5.613-4.808 10.363 12.828Zm0 0"/><path fill="#fcd301" d="m212.223 267.855-15.352-2.921 9.16-14.922Zm0 0"/><path fill="#800020" d="m196.871 264.934-5.613 4.808-9.465-19.187Zm0 0"/><path fill="#fed600" d="m164.824 227.61 10.41-.329-9.37 19.422Zm0 0"/><path fill="#80011f" d="m175.234 227.281-10.41.328 6.125-17.394Zm0 0"/><path fill="#b7bbc4" d="m216.738 288.895 3.621-11.25 18.422 12.097Zm0 0"/><path fill="#b7bbc4" d="m216.738 288.895-9.504-11.133 13.125-.117Zm0 0"/><path fill="#b8bcc4" d="m216.738 288.895-17.566 6.035 8.062-17.168Zm0 0"/><path fill="#80001f" d="m242.047 252.328 14.855-7.164 2.067 16.117Zm0 0"/><path fill="#80001f" d="m231.605 260.328 10.442-8 2.656 21.477Zm0 0"/><path fill="#e8c731" d="m242.047 252.328 16.922 8.953-14.266 12.524Zm0 0"/><path fill="#b8bcc4" d="m273.273 201.441-11.011-17.308 22.867-15.805Zm0 0"/><path fill="#80001f" d="m223.898 178.871 15.536 8.785-16.11 6.551Zm0 0"/><path fill="#81021f" d="m220.426 212.645 13.43-10.485-5.168 25.156Zm0 0"/><path fill="#83051f" d="m211.902 197.473 8.524 15.172-13.613-4.98Zm0 0"/><path fill="#dea008" d="m211.59 146.547-15.778-22.254 30.325 4.117Zm0 0"/><path fill="#890f1d" d="m228.645 141.977-17.055 4.57 14.547-18.137Zm0 0"/><path fill="#fdd502" d="m211.59 146.547-12.66 3.086-3.118-25.34Zm0 0"/><path fill="#fcd605" d="m211.59 146.547 17.055-4.57-4.329 15.773Zm0 0"/><path fill="#fed500" d="m206.86 157.797 4.73-11.25 12.726 11.203Zm0 0"/><path fill="#edd031" d="m211.59 146.547-4.73 11.25-7.93-8.164Zm0 0"/><path fill="#83061f" d="m251.367 143.262-22.722-1.285-2.508-13.567Zm0 0"/><path fill="#83051f" d="m186.566 179.742 22 1.238-21.18 13.313Zm0 0"/><path fill="#cdb46b" d="m187.387 194.293 21.18-13.313 3.335 16.493Zm0 0"/><path fill="#80001f" d="m208.586 229.598-19.36-8.34 17.587-13.594Zm0 0"/><path fill="#b8bcc4" d="m239.398 360.727-8.5-22.97 32.043 13.907Zm0 0"/><path fill="#b8bcc4" d="m230.898 337.758 23.559-21.465 8.484 35.371ZM187.465 328.863l-10.106 38.828-30.414-25.511Zm0 0"/><path fill="#b8bcc4" d="m177.36 367.691 10.105-38.828 19.969 37.438Zm0 0"/><path fill="#b8bcc4" d="m199.172 294.93-11.707 33.933-11.219-34.87ZM315.984 267.563l37.418-26.172-17.433 41.02Zm0 0"/><path fill="#e2b217" d="m353.402 241.39 14.446-1.41-31.88 42.43Zm0 0"/><path fill="#b8bcc4" d="m353.402 241.39-37.418 26.173 12.258-42.032ZM367.848 239.98l-14.446 1.41-25.16-15.859Zm0 0"/><path fill="#fad207" d="m384 239.332-16.152.648 5.027-20.011Zm0 0"/><path fill="#b7bbc4" d="m300.262 327.45-24.059-8.493 13.82-11.84ZM276.203 318.957l-6.535-19.937 20.355 8.097Zm0 0"/><path fill="#ebbe13" d="m318.852 306.68 17.117-24.27 16.437 19.348Zm0 0"/><path fill="#b8bcc4" d="m307.934 298.34-7.672 29.11-10.239-20.333ZM307.934 298.34l10.918 8.34-18.59 20.77Zm0 0"/><path fill="#b8bcc4" d="m287.781 288.094 20.153 10.246-17.91 8.777Zm0 0"/><path fill="#b8bcc4" d="m315.984 267.563-8.05 30.777-20.153-10.246Zm0 0"/><path fill="#b8bcc3" d="m307.934 298.34 28.035-15.93-17.117 24.27Zm0 0"/><path fill="#b8bcc4" d="m335.969 282.41-28.035 15.93 8.05-30.777Zm0 0"/><path fill="#80011f" d="m209.621 95.742 28.152-2.547-9.402 18.649Zm0 0"/><path fill="#ca7e0d" d="m237.773 93.195-28.152 2.547 5.953-14.48Zm0 0"/><path fill="#da9909" d="m215.574 81.262-5.953 14.48-6.781-6.633Zm0 0"/><path fill="#bc6610" d="m209.621 95.742-29.195 12.383 22.414-19.016Zm0 0"/><path fill="#80001f" d="m209.621 95.742-11.601 19.793-17.594-7.41Zm0 0"/><path fill="#80011f" d="m198.02 115.535 11.601-19.793 18.75 16.102Zm0 0"/><path fill="#b9bcc2" d="m85.098 76.496 12.644-9.957-.219 33.36Zm0 0"/><path fill="#b8bcc3" d="m85.098 76.496 12.425 23.402-35.8 2.165Zm0 0"/><path fill="#b8bcc4" d="m68.094 274.434 1.672-35.477 18.988 27.809Zm0 0"/><path fill="#b8bcc4" d="m69.766 238.957-1.672 35.477-15.563-29.758Zm0 0"/><path fill="#b8bcc3" d="m37.492 254.008 30.602 20.426-16.41 9.336Zm0 0"/><path fill="#b8bcc4" d="m68.094 274.434-30.602-20.426 15.04-9.332Zm0 0"/><path fill="#80001f" d="m118.184 209.781-11.559 15.602.398-19.399Zm0 0"/><path fill="#cbc28d" d="m122.973 231.508-16.348-6.125 11.559-15.602Zm0 0"/><path fill="#80001f" d="m107.023 205.984-.398 19.399-33.988-.75Zm0 0"/><path fill="#81021f" d="m106.625 225.383 16.348 6.125-11.668 6.347Zm0 0"/><path fill="#f9d40f" d="m40.93 134.355-4.778 14.766-7.199-4.164Zm0 0"/><path fill="#f3d21e" d="m27.766 126.016 13.164 8.34-11.977 10.601Zm0 0"/><path fill="#b8bcc4" d="m68.094 274.434 27.855 17.804-30.855 11.547ZM95.95 292.238l-27.856-17.804 20.66-7.668Zm0 0"/><path fill="#b8bcc4" d="m111.379 270.922-15.43 21.316-7.195-25.472ZM137.5 306.797l-41.55-14.559 15.429-21.316Zm0 0"/><path fill="#b8bcc5" d="M110.703 319.926 95.95 292.238l41.551 14.559Zm0 0"/><path fill="#fcd505" d="m154.418 256.504-13.54-18.074 18.59 6.437Zm0 0"/><path fill="#80001f" d="m136.223 247.332 4.656-8.902 13.539 18.074Zm0 0"/><path fill="#fdd503" d="m291.852 67.836 30.546-24.7-3.343 51.915Zm0 0"/><path fill="#b8bcc4" d="m301.055 113.328-9.203-45.492 27.203 27.215Zm0 0"/><path fill="#80011f" d="m187.902 121.395 7.91 2.898-12.914 20.781Zm0 0"/><path fill="#f8d411" d="m195.813 124.293 3.117 25.34-16.032-4.559Zm0 0"/><path fill="#face01" d="m206.86 157.797-3.372 9.71-12.453-2.94Zm0 0"/><path fill="#80011f" d="m203.488 167.508-16.922 12.234 4.47-15.176Zm0 0"/><path fill="#80001f" d="m203.488 167.508 5.078 13.472-22-1.238Zm0 0"/><path fill="#fed600" d="m213.191 167.922-6.332-10.125 17.457-.047Zm0 0"/><path fill="#80011f" d="m203.488 167.508 9.703.414-4.625 13.058Zm0 0"/><path fill="#f8cc01" d="m213.191 167.922-9.703-.414 3.371-9.711Zm0 0"/><path fill="#80001f" d="m195.46 246.98 1.411 17.954-15.078-14.38Zm0 0"/><path fill="#f5d31a" d="m195.46 246.98 13.126-17.382-2.555 20.414Zm0 0"/><path fill="#f7ca02" d="m196.871 264.934-1.41-17.954 10.57 3.032Zm0 0"/><path fill="#80011f" d="m208.586 229.598-21.54 4.699 2.18-13.04Zm0 0"/><path fill="#f8cb02" d="m187.047 234.297-11.813-7.016 13.993-6.023Zm0 0"/><path fill="#80011f" d="m187.047 234.297 8.414 12.683-13.668 3.575Zm0 0"/><path fill="#c3730f" d="m195.46 246.98-8.413-12.683 21.539-4.7Zm0 0"/><path fill="#fed600" d="m187.047 234.297-5.254 16.258-15.93-3.852Zm0 0"/><path fill="#fed600" d="m175.234 227.281 11.813 7.016-21.184 12.406Zm0 0"/><path fill="#81011f" d="m189.227 221.258-13.993 6.023-4.285-17.066Zm0 0"/><path fill="#81021f" d="m186.781 207.043 2.446 14.215-18.278-11.043Zm0 0"/><path fill="#fed600" d="m254.84 200.188 18.433 1.253 4.024 18.918Zm0 0"/><path fill="#b8bcc4" d="m273.273 201.441 32.907-4.004-11.332 28.106Zm0 0"/><path fill="#b8bcc4" d="m277.297 220.36-4.024-18.919 21.575 24.102Zm0 0"/><path fill="#7b012e" d="m254.84 200.188 5.535-14.641 12.898 15.894Zm0 0"/><path fill="#b8bbc2" d="m260.375 185.547 1.887-1.414 11.011 17.308Zm0 0"/><path fill="#facf01" d="m254.84 200.188-3.68 9.3-17.305-7.328Zm0 0"/><path fill="#fad003" d="m233.855 202.16 17.305 7.328-5.738 13.157Zm0 0"/><path fill="#fed601" d="m251.16 209.488 26.137 10.871-31.875 2.286Zm0 0"/><path fill="#fbd100" d="m251.16 209.488 3.68-9.3 22.457 20.171Zm0 0"/><path fill="#fed600" d="m217.016 247.297 18.636 1.355-4.047 11.676Zm0 0"/><path fill="#80011f" d="m235.652 248.652 6.395 3.676-10.442 8Zm0 0"/><path fill="#80001f" d="m223.324 194.207 10.531 7.953-13.43 10.485Zm0 0"/><path fill="#83051f" d="m223.324 194.207-2.898 18.438-8.524-15.172Zm0 0"/><path fill="#82031f" d="m208.586 229.598 11.84-16.953 8.262 14.671Zm0 0"/><path fill="#eebc08" d="m217.016 247.297-8.43-17.7 20.101-2.28Zm0 0"/><path fill="#f1c003" d="m220.426 212.645-11.84 16.953-1.774-21.934Zm0 0"/><path fill="#eec20e" d="m207.434 366.3 31.964-5.573-29.554 23.277Zm0 0"/><path fill="#b8bcc3" d="M230.898 337.758 207.434 366.3l-19.97-37.438Zm0 0"/><path fill="#b8bcc4" d="m207.434 366.3 23.464-28.542 8.5 22.969ZM246.707 298.879l-22.336 11.89 14.41-21.027Zm0 0"/><path fill="#b8bcc4" d="m224.371 310.77-7.633-21.875 22.043.847ZM187.465 328.863l36.906-18.093 6.527 26.988Zm0 0"/><path fill="#b8bcc4" d="m216.738 288.895 7.633 21.875-25.2-15.84Zm0 0"/><path fill="#b8bcc4" d="m224.371 310.77-36.906 18.093 11.707-33.933Zm0 0"/><path fill="#b8bcc4" d="m254.457 316.293-30.086-5.523 22.336-11.891Zm0 0"/><path fill="#b8bcc4" d="m230.898 337.758-6.527-26.988 30.086 5.523Zm0 0"/><path fill="#81021f" d="m106.625 225.383 4.68 12.472-38.668-13.222Zm0 0"/><path fill="#b8bcc4" d="m69.766 238.957 41.539-1.102-15.223 18.282Zm0 0"/><path fill="#b7b5bb" d="m111.305 237.855-41.54 1.102 2.872-14.324Zm0 0"/><path fill="#80001f" d="m187.902 121.395 10.118-5.86-2.208 8.758Zm0 0"/><path fill="#80001f" d="m198.02 115.535-10.118 5.86-7.476-13.27Zm0 0"/><path fill="#800020" d="m239.434 187.656 15.406 12.531-20.985 1.973Zm0 0"/><path fill="#7e0025" d="m239.434 187.656 20.941-2.11-5.535 14.642Zm0 0"/><path fill="#80001f" d="m239.434 187.656-5.579 14.504-10.53-7.953Zm0 0"/><path fill="#fed600" d="m217.016 247.297 11.672-19.98 6.964 21.335Zm0 0"/><path fill="#80011f" d="m228.688 227.316 5.167-25.156 11.567 20.485Zm0 0"/><path fill="#80001f" d="m208.566 180.98 4.625-13.058 10.707 10.95Zm0 0"/><path fill="#bfbdae" d="m246.79 169.941 15.472 14.192-1.887 1.414Zm0 0"/><path fill="#fed600" d="M.016-.031 43.328 24.48 0 44.316Zm0 0"/><path fill="#81021f" d="m255.281 234.719-11.969 6.23 2.11-18.304Zm0 0"/><path fill="#80001f" d="m243.313 240.95-14.625-13.634 16.734-4.671Zm0 0"/><path fill="#fdd400" d="m228.688 227.316 14.625 13.633-7.66 7.703Zm0 0"/><path fill="#80011f" d="m256.902 245.164-13.59-4.215 11.97-6.23Zm0 0"/><path fill="#80001f" d="m242.047 252.328 1.266-11.379 13.59 4.215Zm0 0"/><path fill="#80001f" d="m235.652 248.652 7.66-7.703-1.265 11.38Zm0 0"/><path fill="#be6b11" d="m208.566 180.98 14.758 13.227-11.422 3.266Zm0 0"/><path fill="#81031f" d="m208.566 180.98 15.332-2.109-.574 15.336Zm0 0"/><path fill="#b9bcbf" d="m239.434 187.656 7.355-17.715 13.586 15.606Zm0 0"/><path fill="#80001f" d="m246.79 169.941-7.356 17.715-15.536-8.785Zm0 0"/><path fill="#fed600" d="m246.79 169.941-22.474-12.191 18.614-3.23Zm0 0"/><path fill="#fdd500" d="m251.367 143.262-8.437 11.258-14.285-12.543Zm0 0"/><path fill="#fed600" d="m242.93 154.52-18.614 3.23 4.329-15.773Zm0 0"/><path fill="#fcd405" d="m251.367 143.262 4.621 14.574-13.058-3.316Zm0 0"/><path fill="#80001f" d="m246.79 169.941 9.198-12.105 6.274 26.297Zm0 0"/><path fill="#fed600" d="m255.988 157.836-9.199 12.105-3.86-15.421Zm0 0"/><path fill="#b8bcc4" d="m262.262 184.133-6.274-26.297 29.14 10.492Zm0 0"/><path fill="#b8bcc3" d="m255.988 157.836 10.621-18.887 18.52 29.38Zm0 0"/><path fill="#b8bcc4" d="m255.988 157.836-4.62-14.574 15.241-4.313Zm0 0"/><path fill="#fed600" d="m246.79 169.941-21.767-1.312-.707-10.879Zm0 0"/><path fill="#fbd100" d="m225.023 168.629 21.766 1.312-22.89 8.93Zm0 0"/><path fill="#fed600" d="m225.023 168.629-11.832-.707 11.125-10.172Zm0 0"/><path fill="#f9ce01" d="m213.191 167.922 11.832.707-1.125 10.242Zm0 0"/></svg>