<svg xmlns="http://www.w3.org/2000/svg" width="512" height="512" viewBox="0 0 384 384"><path fill="#3d412f" d="m.012 118.953 14.937-26.191 7.055 27.39Zm0 0"/><path fill="#081d3b" d="m240.352 285.086 17.015 9.547-20.656 3.883Zm0 0"/><path fill="#333a31" d="m.02 68.723 14.93 24.039L.011 118.953Zm0 0"/><path fill="#f5f4ee" d="m28.863 204.328.426-30.512 17.965 5.891Zm0 0"/><path fill="#0d213c" d="m95.992 118.809-22.07-30.172 37.953-2.711Zm0 0"/><path fill="#0b1f3b" d="m260.953 72.223 40.668 4.015-5.848 24.27Zm0 0"/><path fill="#081d3b" d="m257.367 294.633-4.07 22.492-16.586-18.61Zm0 0"/><path fill="#142539" d="m28.242 292.469-28.25-.684 19.91-28.906Zm0 0"/><path fill="#081d3b" d="m19.785 209.773 9.078-5.445-3.445 5.586Zm0 0"/><path fill="#0b1f3b" d="m19.785 209.773 9.504-35.957-.426 30.512Zm0 0"/><path fill="#565129" d="m29.29 173.816-9.505 35.957 1.426-36.703Zm0 0"/><path fill="#6b6023" d="m-.004 383.992 36.754-33.324 48.7 33.352Zm0 0"/><path fill="#253034" d="m-.004 351.46 36.754-.792-36.754 33.324Zm0 0"/><path fill="#081d3b" d="m99.23 338.164 18.832 8.332-13.894 11.152ZM384 111.887l-30.238 47.933-23.446-53.566Zm0 0"/><path fill="#f6be02" d="m105.02 161.758-13.274-12.254 30.555-16.031Zm0 0"/><path fill="#e9eaec" d="m91.746 149.504-12-4.945 16.246-25.75Zm0 0"/><path fill="#091d3b" d="m145.066 127.254 3.54 31.312-26.305-25.093Zm0 0"/><path fill="#917a1a" d="m143.645 120.05 1.421 7.204-22.765 6.219Zm0 0"/><path fill="#eeb804" d="m145.066 127.254-1.421-7.203 28.78 6.246Zm0 0"/><path fill="#fbc102" d="m175.688 187.836-13.157-2.356 6.93-21.304Zm0 0"/><path fill="#6b6127" d="m142.813 178.793-28.25 4.52 34.042-24.747Zm0 0"/><path fill="#fefefc" d="m148.492 195.332 12.23 4.816-15.406 19.754Zm0 0"/><path fill="#fefdf8" d="m160.723 200.148-12.23-4.816 14.038-9.852Zm0 0"/><path fill="#6a6333" d="m240.352 285.086-24.02-5.578 4.953-9.098Zm0 0"/><path fill="#081d3c" d="m264.457 314.965-11.16 2.16 4.07-22.492Zm0 0"/><path fill="#c0c3cb" d="m253.297 317.125 11.16-2.16-.379 11.515Zm0 0"/><path fill="#cfd1d7" d="m337.945 185.441 18.508 36.77-20.781 17.11Zm0 0"/><path fill="#f1f2f3" d="m356.453 222.21-4.078 23.438-16.703-6.328Zm0 0"/><path fill="#081d3b" d="m286.164 337.313-22.473 28.062-3.257-13.762Zm0 0"/><path fill="#e4c353" d="M168.152 5.527 109.594 0l59.93.02Zm0 0"/><path fill="#debd4d" d="m109.594 0 58.558 5.527-19.863 19.024Zm0 0"/><path fill="#0b1f3b" d="m82.824 25.309 26.504-16.844-6.445 34.781Zm0 0"/><path fill="#ccbe8a" d="M311.613.012 229.715 19.25 169.523.02Zm0 0"/><path fill="#fbfaf8" d="m163.848 38.527 35.507-5.566-.183 2.918Zm0 0"/><path fill="#0b1f3b" d="m172.754 57.566-8.906-19.039 35.324-2.648Zm0 0"/><path fill="#fdfdfa" d="m199.355 32.96 32.692 7.126-32.875-4.207Zm0 0"/><path fill="#081d3b" d="m232.047 40.086-.902 20.89-31.973-25.097Zm0 0"/><path fill="#fac926" d="m201.148 78.36 13.207 14.886-21.609-1.148Zm0 0"/><path fill="#fbfaf5" d="m241.477 42.656-9.43-2.57 9.992-1.953Zm0 0"/><path fill="#091d3c" d="m232.047 40.086 9.43 2.57-10.332 18.32Zm0 0"/><path fill="#091e3b" d="m73.922 88.637 22.363-19.664 15.59 16.953Zm0 0"/><path fill="#0b1f3c" d="m96.285 68.973 21.992-13.086-6.402 30.039Zm0 0"/><path fill="#081d3b" d="m27.668 23.043 10.207 17.855-20.52-15.156ZM44.664 16.543l7.73-16.547 30.43 25.313ZM37.875 40.898l-15.59 25.684-4.93-40.84Zm0 0"/><path fill="#49492b" d="m114.563 183.313 3.554-23.696 30.488-1.05Zm0 0"/><path fill="#081d3b" d="m148.605 158.566-30.488 1.051 4.184-26.144Zm0 0"/><path fill="#86721d" d="m118.117 159.617-13.097 2.14 17.28-28.284Zm0 0"/><path fill="#162638" d="m-.008 291.785-.02-37.015 19.93 8.109Zm0 0"/><path fill="#091e3c" d="m52.504 214.469 16.113 7.836-15.949 9.468Zm0 0"/><path fill="#eeeff1" d="m32.8 233.293 19.704-18.824.164 17.304Zm0 0"/><path fill="#081d3b" d="m114.563 183.313 2.59 24.53-32.75 18.052Zm0 0"/><path fill="#8e771b" d="M21.21 173.07.013 210.262v-91.309Zm0 0"/><path fill="#575329" d="m22.004 120.152-.793 52.918-21.2-54.117Zm0 0"/><path fill="#b8bbc2" d="m70.195 124.59-23.625.933 7.328-15.691Zm0 0"/><path fill="#727876" d="m73.922 88.637-3.727 35.953-16.297-14.758Zm0 0"/><path fill="#dddfe2" d="m70.195 124.59 9.551 19.969-20.09 2.714Zm0 0"/><path fill="#a8adb6" d="m46.57 125.523 23.625-.933-10.539 22.683Zm0 0"/><path fill="#0b1f3c" d="m70.195 124.59 3.727-35.953 22.07 30.172Zm0 0"/><path fill="#cdd0d5" d="m79.746 144.559-9.55-19.97 25.796-5.78Zm0 0"/><path fill="#84711d" d="m.02 68.723 22.265-2.141-7.336 26.18Zm0 0"/><path fill="#d2d4d5" d="m29.29 173.816 8.82-29.988 9.144 35.879Zm0 0"/><path fill="#695e25" d="m38.11 143.828-8.82 29.988-7.286-53.664Zm0 0"/><path fill="#545029" d="m22.004 120.152 7.285 53.664-8.078-.746Zm0 0"/><path fill="#d1d4d9" d="m38.11 143.828 21.546 3.445-12.402 32.434Zm0 0"/><path fill="#efba04" d="m87.938 181.563 3.808-32.06 13.274 12.255Zm0 0"/><path fill="#081d3b" d="M198.328 384.004 156.566 384l24.5-17.437Zm0 0"/><path fill="#ccced2" d="m113.734 319.555 24.442-26.633 5.629 42.45Zm0 0"/><path fill="#f9f9fa" d="m113.734 319.555 30.07 15.816-25.742 11.125Zm0 0"/><path fill="#081d3b" d="m156.566 384 4.157-21.457 20.343 4.02Zm0 0"/><path fill="#47482d" d="m30.695 321.05 6.055 29.618-36.754.793Zm0 0"/><path fill="#081d3b" d="m81.7 353.852 3.75 30.168-48.7-33.352Zm0 0"/><path fill="#ecedef" d="m67.473 266.008 38.168-13.317 2.992 22.746Zm0 0"/><path fill="#081d3b" d="m81.7 353.852-15.485-24.57 33.015 8.882Zm0 0"/><path fill="#091d3b" d="m63.035 301.914 3.18 27.367-35.52-8.23Zm0 0"/><path fill="#091e3b" d="m30.695 321.05 35.52 8.231-29.465 21.387Zm0 0"/><path fill="#081d3b" d="m66.215 329.281 15.484 24.57-44.949-3.183Zm0 0"/><path fill="#0f213a" d="m361.238 188.676-7.476-28.856 30.226 29.785Zm0 0"/><path fill="#0d203a" d="M353.762 159.82 384 111.887l-.012 77.718Zm0 0"/><path fill="#081d3b" d="m301.621 76.238 54.438-25.707-25.743 55.723Zm0 0"/><path fill="#e3e3e4" d="m292.21 162.203 45.735 23.238-43.37 10.825Zm0 0"/><path fill="#0a1e3b" d="M316.531 0 384-.004 340.691 28.23Zm0 0"/><path fill="#aa8b19" d="M340.691 28.23 322.164 41.72 311.614.012Zm0 0"/><path fill="#081d3b" d="m301.621 76.238 20.543-34.52 33.895 8.813Zm0 0"/><path fill="#091e3b" d="m384.031 36.285-43.34-8.055L384-.004Zm0 0"/><path fill="#dbab08" d="m261.918 259.148-4.55 35.485-17.016-9.547Zm0 0"/><path fill="#081d3b" d="m264.457 314.965-7.09-20.332 27.871-14.149Zm0 0"/><path fill="#c9a00c" d="m285.238 280.484-27.87 14.149 4.55-35.485Zm0 0"/><path fill="#eeeff0" d="m277.672 250.738 30.328-7.86-11.035 30.786Zm0 0"/><path fill="#eeeff0" d="m285.238 280.484-7.566-29.746 19.293 22.926Zm0 0"/><path fill="#fec300" d="m277.672 250.738 7.566 29.746-23.32-21.336Zm0 0"/><path fill="#e7e8ea" d="M315.668 278.5 308 242.879l27.672-3.559Zm0 0"/><path fill="#e8e9ea" d="m308 242.879 7.668 35.621-18.703-4.836Zm0 0"/><path fill="#ebecee" d="m308 242.879 29.945-57.438-2.273 53.88Zm0 0"/><path fill="#e0e1e4" d="m308 242.879-13.426-46.613 43.371-10.825Zm0 0"/><path fill="#e5e6e9" d="M294.574 196.266 308 242.879l-30.328 7.86Zm0 0"/><path fill="#e8e9eb" d="m109.469 122.54-17.723 26.964 4.246-30.695Zm0 0"/><path fill="#fec60a" d="m109.469 122.54 34.176-2.49-21.344 13.423Zm0 0"/><path fill="#fecb20" d="m91.746 149.504 17.723-26.965 12.832 10.934Zm0 0"/><path fill="#455469" d="m257.469 99.086 3.484-26.863 34.82 28.285Zm0 0"/><path fill="#091e3d" d="m260.953 72.223-3.484 26.863-18-4.965Zm0 0"/><path fill="#0a1e3b" d="m189.488 176.441-8.347-11.515 22.574.37Zm0 0"/><path fill="#081d3b" d="m181.14 164.926-5.452 22.91-6.227-23.66ZM175.688 187.836l5.453-22.91 8.347 11.515Zm0 0"/><path fill="#fdfbf3" d="m183.785 207.43-21.254-21.95 13.156 2.356Zm0 0"/><path fill="#fdf9ee" d="m162.531 185.48 21.254 21.95-23.062-7.282Zm0 0"/><path fill="#081d3b" d="m160.723 200.148-2.438 19.47-12.969.284Zm0 0"/><path fill="#f5bd02" d="m196.586 208-5.934 25.121-6.867-25.691Zm0 0"/><path fill="#091d3b" d="m263.691 365.375-21.714-6.738 18.457-7.024Zm0 0"/><path fill="#5f5827" d="m286.613 383.984 47.992-41.921L346.915 384Zm0 0"/><path fill="#323931" d="m346.914 384 15.149-32.598 21.93 32.61Zm0 0"/><path fill="#343b33" d="m356.453 222.21 3.73.446-7.808 22.992Zm0 0"/><path fill="#726523" d="m352.434 325.7-11.797-34.536 43.37.36Zm0 0"/><path fill="#1c2a37" d="m340.637 291.164-6.032 50.899-15.585-10.497Zm0 0"/><path fill="#706322" d="m340.637 291.164 11.797 34.535-17.829 16.363Zm0 0"/><path fill="#f6f6f7" d="m282.344 330.555-21.91 21.058 3.644-25.133Zm0 0"/><path fill="#fdfdfd" d="m282.344 330.555 3.82 6.757-25.73 14.301Zm0 0"/><path fill="#081d3c" d="m286.164 337.313 20.137-17.258 12.719 11.511Zm0 0"/><path fill="#f2f3f3" d="m296.965 273.664-6.89 19.805-4.837-12.985Zm0 0"/><path fill="#081d3b" d="m277.738 301.094-13.281 13.87 20.781-34.48Zm0 0"/><path fill="#e6b305" d="m290.074 293.469-12.336 7.625 7.5-20.61Zm0 0"/><path fill="#fac001" d="m277.738 301.094 12.336-7.625 1.516 14.55Zm0 0"/><path fill="#cabf95" d="M229.715 19.25 168.152 5.527 169.523.02Zm0 0"/><path fill="#cebe86" d="m168.152 5.527 61.563 13.723-30.36 13.71Zm0 0"/><path fill="#d1bd77" d="m163.848 38.527 4.304-33 31.203 27.434Zm0 0"/><path fill="#091e3c" d="m172.754 57.566 16.351 16.141-25.039 13.758Zm0 0"/><path fill="#fdc300" d="m164.066 87.465 25.04-13.758 3.64 18.39Zm0 0"/><path fill="#081d3b" d="m231.145 60.977-42.04 12.73 10.067-37.828ZM189.105 73.707l-16.351-16.14 26.418-21.688Zm0 0"/><path fill="#fefefe" d="m83.02 19.32 26.308-10.855-26.504 16.844Zm0 0"/><path fill="#081d3b" d="M52.395-.004 83.02 19.32l-.196 5.989Zm0 0"/><path fill="#081d3b" d="M83.02 19.32 52.395-.004 82.789 0Zm0 0"/><path fill="#cebe87" d="m311.613.012-69.574 38.12-12.324-18.882Zm0 0"/><path fill="#ccc095" d="m232.047 40.086-2.332-20.836 12.324 18.883Zm0 0"/><path fill="#cdc090" d="m229.715 19.25 2.332 20.836-32.692-7.125Zm0 0"/><path fill="#faf9f9" d="m270.16 54.973-28.683-12.317.562-4.523Zm0 0"/><path fill="#fec300" d="m189.105 73.707 12.043 4.652-8.402 13.739Zm0 0"/><path fill="#fef9e8" d="m201.148 78.36-12.043-4.653 42.04-12.73Zm0 0"/><path fill="#fed755" d="m201.148 78.36 29.997-17.383-16.79 32.27Zm0 0"/><path fill="#091d3b" d="m231.145 60.977 29.808 11.246L239.47 94.12Zm0 0"/><path fill="#fdc301" d="m214.355 93.246 16.79-32.27 8.324 33.145Zm0 0"/><path fill="#081d3b" d="m231.145 60.977 10.332-18.32 19.476 29.566Zm0 0"/><path fill="#feca1c" d="m129.121 108.52 21.414-10.325-6.89 21.856Zm0 0"/><path fill="#536176" d="m129.121 108.52-33.129 10.289 15.883-32.883Zm0 0"/><path fill="#e8e9eb" d="m129.121 108.52-19.652 14.02-13.477-3.731Zm0 0"/><path fill="#fecf31" d="m109.469 122.54 19.652-14.02 14.524 11.53Zm0 0"/><path fill="#f6f6f4" d="M118.277 55.887 96.285 68.973l20.824-16.47Zm0 0"/><path fill="#89741d" d="M117.11 52.504 96.284 68.973l6.598-25.727Zm0 0"/><path fill="#091d3b" d="m96.285 68.973-13.46-43.664 20.058 17.937Zm0 0"/><path fill="#fcfaf2" d="m150.535 98.195-3.207-9.722 16.738-1.008Zm0 0"/><path fill="#0f223d" d="m147.328 88.473 6.184-47.016 10.554 46.008Zm0 0"/><path fill="#081d3b" d="m153.512 41.457-6.184 47.016-29.05-32.586Zm0 0"/><path fill="#253752" d="m147.328 88.473-18.207 20.047-17.246-22.594Zm0 0"/><path fill="#f9f6e9" d="m129.121 108.52 18.207-20.047 3.207 9.722Zm0 0"/><path fill="#0a1f3b" d="m118.277 55.887 29.051 32.586-35.453-2.547Zm0 0"/><path fill="#fdfdfd" d="m117.11 52.504 36.402-11.047-35.235 14.43Zm0 0"/><path fill="#fdc300" d="m150.535 98.195 10.512 6.184-17.402 15.672Zm0 0"/><path fill="#e0af07" d="m143.645 120.05 17.402-15.671 11.379 21.918Zm0 0"/><path fill="#fcd551" d="m161.047 104.379-10.512-6.184 13.531-10.73Zm0 0"/><path fill="#fcfcfc" d="m27.52.012 17.144 16.531-8.805 2.902Zm0 0"/><path fill="#081d3c" d="m27.52.012 24.875-.016-7.73 16.547Zm0 0"/><path fill="#fdfdfd" d="M16.246-.004 27.52.012l-3.168 6.234Zm0 0"/><path fill="#fefefe" d="m44.664 16.543 6.387 11.645-15.192-8.743Zm0 0"/><path fill="#fdfdfd" d="m51.05 28.188-6.386-11.645 38.16 8.766Zm0 0"/><path fill="#081d3b" d="M67.586 56.11 51.05 28.187l31.773-2.88Zm0 0"/><path fill="#081d3b" d="m51.05 28.188 16.536 27.921L37.875 40.9Zm0 0"/><path fill="#726626" d="m11.988 10.969 5.367 14.773-17.363-5.914Zm0 0"/><path fill="#7a6a20" d="m-.008 19.828 17.363 5.914L.02 68.722Zm0 0"/><path fill="#0f223a" d="m17.355 25.742 4.93 40.84L.02 68.722Zm0 0"/><path fill="#f1f1f2" d="M51.426 239.781 32.8 233.293l19.867-1.52Zm0 0"/><path fill="#977e19" d="m.012 210.262 7.41 26.832-7.434-.406Zm0 0"/><path fill="#8f791e" d="m19.785 209.773-12.363 27.32-7.41-26.831Zm0 0"/><path fill="#1b2937" d="m7.422 237.094 12.363-27.32.223 26.566Zm0 0"/><path fill="#152538" d="m7.422 237.094 12.586-.754-.106 26.539Zm0 0"/><path fill="#6b6023" d="m7.422 237.094-7.45 17.676.016-18.083Zm0 0"/><path fill="#122339" d="m-.027 254.77 7.449-17.676 12.48 25.785Zm0 0"/><path fill="#091d3b" d="m28.742 216.055-8.957-6.282 5.633.141Zm0 0"/><path fill="#091d3b" d="m28.863 204.328-.12 11.727-3.325-6.14Zm0 0"/><path fill="#081d3b" d="m28.742 216.055 4.059 17.238-12.793 3.047Zm0 0"/><path fill="#091e3b" d="m19.785 209.773 8.957 6.282-8.734 20.285Zm0 0"/><path fill="#f5f5f6" d="m52.504 214.469-23.762 1.586.121-11.727Zm0 0"/><path fill="#f8f9f9" d="m28.742 216.055 23.762-1.586L32.8 233.293Zm0 0"/><path fill="#f6f6f5" d="m52.504 214.469-23.64-10.14 18.39-24.622Zm0 0"/><path fill="#fbfbfb" d="M65.71 193.39 52.505 214.47l-5.25-34.762Zm0 0"/><path fill="#f6bf06" d="M52.504 214.469 65.71 193.39l2.906 28.914Zm0 0"/><path fill="#7a6a20" d="m68.617 222.305 19.32-40.743-3.535 44.333Zm0 0"/><path fill="#efb904" d="m65.71 193.39 22.228-11.827-19.32 40.742Zm0 0"/><path fill="#0a1e3b" d="m87.938 181.563 26.624 1.75-30.16 42.582Zm0 0"/><path fill="#fec300" d="m142.813 178.793-17.223 30.125-11.028-25.606Zm0 0"/><path fill="#fdf0c5" d="m148.492 195.332-22.902 13.586 17.222-30.125Zm0 0"/><path fill="#90791a" d="m114.563 183.313 11.027 25.605-8.438-1.074Zm0 0"/><path fill="#fdfbf7" d="m141.145 219.074 7.347-23.742-3.176 24.57Zm0 0"/><path fill="#fef9e6" d="m141.145 219.074-15.555-10.156 22.902-13.586Zm0 0"/><path fill="#081d3b" d="m126.91 258.441-21.27-5.75 18.977-20.68Zm0 0"/><path fill="#4c4b2b" d="m21.21 173.07-1.425 36.703-19.773.489Zm0 0"/><path fill="#081d3b" d="m22.285 66.582 31.613 43.25-38.949-17.07Zm0 0"/><path fill="#162638" d="m14.95 92.762 38.948 17.07-31.894 10.32Zm0 0"/><path fill="#c9ccd2" d="m46.57 125.523 13.086 21.75-21.547-3.445Zm0 0"/><path fill="#f2f2f3" d="m67.445 174.953-7.789-27.68 20.09-2.714Zm0 0"/><path fill="#f9f9f9" d="m91.746 149.504-24.3 25.45 12.3-30.395Zm0 0"/><path fill="#f3f3f5" d="m59.656 147.273 7.79 27.68-20.192 4.754Zm0 0"/><path fill="#f7f7f6" d="m67.445 174.953-1.734 18.438-18.457-13.684Zm0 0"/><path fill="#fec401" d="m67.445 174.953 24.301-25.45-3.808 32.06Zm0 0"/><path fill="#fdc300" d="m65.71 193.39 1.735-18.437 20.493 6.61Zm0 0"/><path fill="#a3a9b3" d="m177.66 292.977-28.37-16.641 14.233-4.23Zm0 0"/><path fill="#dddfe3" d="m149.29 276.336 28.37 16.64-39.484-.054ZM138.176 292.922l39.484.055-33.855 42.394Zm0 0"/><path fill="#0a1f3d" d="m149.29 276.336 6.019-20.586 8.214 16.355Zm0 0"/><path fill="#f0f0f2" d="m105.64 252.691 18.915 14.348-15.922 8.399Zm0 0"/><path fill="#929ba7" d="M124.555 267.04 105.64 252.69l21.27 5.75Zm0 0"/><path fill="#edeef0" d="m124.555 267.04 13.62 25.882-29.542-17.485Zm0 0"/><path fill="#e1e2e6" d="m124.555 267.04 24.734 9.296-11.113 16.586Zm0 0"/><path fill="#081d3b" d="m134.758 357.156 25.965 5.387L156.566 384Zm0 0"/><path fill="#081d3b" d="m85.45 384.02 49.308-26.864L156.566 384ZM134.758 357.156 85.449 384.02l18.719-26.372Zm0 0"/><path fill="#fefdfa" d="m160.723 362.543-25.965-5.387 9.047-21.785Zm0 0"/><path fill="#081d3b" d="m118.063 346.496 16.695 10.66-30.59.492Zm0 0"/><path fill="#fefefe" d="m143.805 335.371-9.047 21.785-16.696-10.66Zm0 0"/><path fill="#48482c" d="m-.008 291.785 30.703 29.266-30.699 30.41Zm0 0"/><path fill="#5f5827" d="m28.242 292.469 2.453 28.582-30.703-29.266Zm0 0"/><path fill="#081d3b" d="m85.45 384.02-3.75-30.168 22.468 3.796Zm0 0"/><path fill="#081d3b" d="m81.7 353.852 17.53-15.688 4.938 19.484ZM28.242 292.469l-8.34-29.59 24.746 7.266Zm0 0"/><path fill="#f9f9fa" d="m80.371 292.45-12.898-26.442 41.16 9.43Zm0 0"/><path fill="#8a929e" d="m353.762 159.82-32.594-27.367 9.148-26.2Zm0 0"/><path fill="#5a6679" d="m337.945 185.441-16.777-52.988 32.594 27.367Zm0 0"/><path fill="#c7cad0" d="m321.168 132.453 16.777 52.988-45.734-23.238Zm0 0"/><path fill="#081d3b" d="M356.059 50.531 384 111.887l-53.684-5.633Zm0 0"/><path fill="#b7a45d" d="M304.992 42.04 270.16 54.972l-28.12-16.84Zm0 0"/><path fill="#1d2b36" d="m304.992 42.04-3.37 34.198-9.114-10.875Zm0 0"/><path fill="#091d3b" d="m304.992 42.04 17.172-.321-20.543 34.52Zm0 0"/><path fill="#f1c01b" d="m316.531 0 24.16 28.23L311.613.012Zm0 0"/><path fill="#7c6b1f" d="m356.059 50.531-33.895-8.812 18.527-13.489Zm0 0"/><path fill="#f0f0ef" d="m333.906 286.223 1.766-46.903 16.703 6.328Zm0 0"/><path fill="#f4f3f1" d="m333.906 286.223-18.238-7.723 20.004-39.18Zm0 0"/><path fill="#cebe86" d="m311.613.012-6.62 42.027-62.954-3.906Zm0 0"/><path fill="#1d2c38" d="m322.164 41.719-17.172.32L311.613.012Zm0 0"/><path fill="#fdfdfd" d="m301.621 76.238-31.46-21.265 22.347 10.39Zm0 0"/><path fill="#081d3b" d="m260.953 72.223 9.207-17.25 31.461 21.265Zm0 0"/><path fill="#b29a40" d="m270.16 54.973 34.832-12.934-12.484 23.324Zm0 0"/><path fill="#534f29" d="m199.75 109.266-22.07-7.98 15.066-9.188Zm0 0"/><path fill="#ebb604" d="m177.68 101.285-13.614-13.82 28.68 4.633Zm0 0"/><path fill="#fdc301" d="m177.68 101.285-16.633 3.094 3.02-16.914Zm0 0"/><path fill="#142538" d="m145.066 127.254 27.36-.957-23.82 32.27Zm0 0"/><path fill="#aeb3bd" d="M279.195 129.898 257.47 99.086l38.304 1.422Zm0 0"/><path fill="#d7d9de" d="m257.469 99.086 21.726 30.812-35.425-16.402Zm0 0"/><path fill="#f9c001" d="m180.172 147.672.969 17.254-11.68-.75Zm0 0"/><path fill="#d0a40b" d="m180.172 147.672-7.746-21.375 24.191-5.04Zm0 0"/><path fill="#fdfcf7" d="m181.14 164.926-.968-17.254 23.543 17.625Zm0 0"/><path fill="#fdc300" d="m180.172 147.672-10.711 16.504-20.856-5.61Zm0 0"/><path fill="#e1b007" d="m172.426 126.297 7.746 21.375-31.567 10.894Zm0 0"/><path fill="#fefdfa" d="m148.492 195.332-5.68-16.539 19.72 6.687Zm0 0"/><path fill="#fdc301" d="m162.531 185.48-19.719-6.687 26.649-14.617Zm0 0"/><path fill="#fec300" d="m142.813 178.793 5.792-20.227 20.856 5.61Zm0 0"/><path fill="#0b1f3b" d="m136.219 243.656 4.926-24.582 4.171.828Zm0 0"/><path fill="#081d3c" d="m190.234 278.496-12.574 14.48-14.137-20.87Zm0 0"/><path fill="#081d3b" d="m158.285 219.617-2.277 10.586-10.692-10.3Zm0 0"/><path fill="#081d3b" d="m156.008 230.203-19.79 13.453 9.098-23.754Zm0 0"/><path fill="#f7f2e0" d="m136.219 243.656 19.789-13.453 6.91 13.488Zm0 0"/><path fill="#081d3c" d="m206.809 295.969-16.575-17.473 26.098 1.012Zm0 0"/><path fill="#091e3c" d="m190.234 278.496 16.575 17.473-29.149-2.992Zm0 0"/><path fill="#f9c105" d="m266.477 242.809 11.195 7.93-15.754 8.41Zm0 0"/><path fill="#fac103" d="m266.477 242.809 7.003-25.18 4.192 33.11Zm0 0"/><path fill="#fec505" d="m273.48 217.629-7.003 25.18-14.184-14.371Zm0 0"/><path fill="#0a1e3b" d="m247.145 245.086 19.332-2.277-4.559 16.34Zm0 0"/><path fill="#fcc40a" d="m266.477 242.809-19.332 2.277 5.148-16.649Zm0 0"/><path fill="#eeb907" d="M190.73 196.969 196.586 208l-12.8-.57Zm0 0"/><path fill="#e9b505" d="m190.73 196.969 12.27.035L196.586 208Zm0 0"/><path fill="#fdf9ea" d="m190.73 196.969-6.945 10.46-8.097-19.593Zm0 0"/><path fill="#fefefd" d="m194.527 358.441.008 9-13.469-.878Zm0 0"/><path fill="#081d3b" d="m194.535 367.441 3.793 16.563-17.262-17.442ZM240.715 361.352l1.262-2.715 21.714 6.738Zm0 0"/><path fill="#fefefd" d="m180.605 343.531 13.922 14.91-13.46 8.122Zm0 0"/><path fill="#fdfdfd" d="m194.527 358.441-13.922-14.91 27.907-.32Zm0 0"/><path fill="#f8f8f7" d="m260.434 351.613-16.516-17.011 20.16-8.122Zm0 0"/><path fill="#fefefd" d="m241.977 358.637 1.941-24.035 16.516 17.011Zm0 0"/><path fill="#d5d7db" d="m243.918 334.602 9.379-17.477 10.781 9.355Zm0 0"/><path fill="#081d3b" d="m286.164 337.313 32.856-5.747-32.407 52.418Zm0 0"/><path fill="#172738" d="m319.02 331.566 15.585 10.497-47.992 41.921Zm0 0"/><path fill="#313932" d="m362.063 351.402 21.945-59.879-.016 92.489Zm0 0"/><path fill="#5e5829" d="m352.434 325.7 9.628 25.702-27.457-9.34Zm0 0"/><path fill="#60592a" d="m352.434 325.7 31.574-34.177-21.945 59.88Zm0 0"/><path fill="#081d3b" d="m286.613 383.984-35.605.016 12.683-18.625Zm0 0"/><path fill="#081d3b" d="m251.008 384-10.293-22.648 22.976 4.023Zm0 0"/><path fill="#081d3b" d="M240.715 361.352 251.008 384l-52.68.004ZM286.164 337.313l.45 46.671-22.923-18.609Zm0 0"/><path fill="#3d412f" d="m383.988 189.605-23.804 33.051 1.054-33.98Zm0 0"/><path fill="#d0d2d8" d="m357.41 194.227-.957 27.984-18.508-36.77Zm0 0"/><path fill="#353c31" d="m357.41 194.227 2.774 28.43-3.73-.446Zm0 0"/><path fill="#3b4030" d="m360.184 222.656-2.774-28.43 3.828-5.55Zm0 0"/><path fill="#10223a" d="m357.41 194.227-3.648-34.407 7.476 28.856Zm0 0"/><path fill="#c4c7ce" d="m353.762 159.82 3.648 34.407-19.465-8.786Zm0 0"/><path fill="#091e3c" d="m277.738 301.094-1.355 21.465-11.926-7.594Zm0 0"/><path fill="#081d3b" d="m276.383 322.559 1.355-21.465 13.852 6.926Zm0 0"/><path fill="#c2c6cd" d="m264.457 314.965 11.926 7.594-12.305 3.921Zm0 0"/><path fill="#f2f3f4" d="m276.383 322.559 5.96 7.996-18.265-4.075Zm0 0"/><path fill="#081d3b" d="m316.484 309.738 24.153-18.574-21.617 40.402Zm0 0"/><path fill="#081d3b" d="m306.3 320.055 10.184-10.317 2.536 21.828Zm0 0"/><path fill="#e9eaec" d="m315.668 278.5-25.594 14.969 6.89-19.805Zm0 0"/><path fill="#ab902b" d="m148.29 24.55 19.862-19.023-4.304 33Zm0 0"/><path fill="#081d3b" d="M109.594 0 83.02 19.32 82.79 0Zm0 0"/><path fill="#fefefd" d="M83.02 19.32 109.594 0l-.266 8.465Zm0 0"/><path fill="#e1c04f" d="M109.328 8.465 109.594 0l38.695 24.55Zm0 0"/><path fill="#8c771c" d="m109.328 8.465 7.781 44.039-14.226-9.258Zm0 0"/><path fill="#081d3b" d="m241.477 42.656 28.683 12.317-9.207 17.25Zm0 0"/><path fill="#766821" d="m226.273 124.742 13.196-30.62 4.3 19.374Zm0 0"/><path fill="#f5f5f4" d="m239.469 94.121 18 4.965-13.7 14.41Zm0 0"/><path fill="#273234" d="m196.617 121.258 29.656 3.484-.23 13.164Zm0 0"/><path fill="#081d3b" d="m96.285 68.973-28.7-12.864 15.24-30.8ZM67.586 56.11 48.59 68.483 37.875 40.898Zm0 0"/><path fill="#091e3b" d="m153.512 41.457 10.336-2.93 8.906 19.04Zm0 0"/><path fill="#081d3b" d="m153.512 41.457 19.242 16.11-8.688 29.898Zm0 0"/><path fill="#7b7139" d="m117.11 52.504 31.18-27.953 5.222 16.906Zm0 0"/><path fill="#514f2b" d="m153.512 41.457-5.223-16.906 15.559 13.976Zm0 0"/><path fill="#e2b92d" d="M109.328 8.465 148.29 24.55l-31.18 27.953Zm0 0"/><path fill="#7c6e2a" d="M16.246-.004 11.988 10.97 0 .008Zm0 0"/><path fill="#5d5b3a" d="m21.559 9.86-9.57 1.109L16.245-.004Zm0 0"/><path fill="#746728" d="m11.988 10.969-11.996 8.86L0 .007Zm0 0"/><path fill="#f8f7f5" d="M21.559 9.86 16.246-.005l8.106 6.25Zm0 0"/><path fill="#081d3b" d="m35.86 19.445 15.19 8.743-13.175 12.71Zm0 0"/><path fill="#081d3b" d="m27.668 23.043 8.191-3.598 2.016 21.453Zm0 0"/><path fill="#fefefe" d="M35.86 19.445 24.351 6.246 27.52.012Zm0 0"/><path fill="#081d3b" d="m48.59 68.484 5.308 41.348-31.613-43.25Zm0 0"/><path fill="#081d3b" d="m48.59 68.484-26.305-1.902 15.59-25.684ZM19.902 262.879 36.75 251l7.898 19.145Zm0 0"/><path fill="#081d3b" d="M20.008 236.34 36.75 251l-16.848 11.879Zm0 0"/><path fill="#081d3b" d="M32.8 233.293 36.75 251l-16.742-14.66Zm0 0"/><path fill="#f9f9f8" d="M51.426 239.781 36.75 251l-3.95-17.707Zm0 0"/><path fill="#abafaf" d="m80.086 244.215-28.66-4.434 1.242-8.008Zm0 0"/><path fill="#eaebec" d="m67.473 266.008 12.613-21.793 25.555 8.476Zm0 0"/><path fill="#081d3b" d="m68.617 222.305 11.469 21.91-27.418-12.442Zm0 0"/><path fill="#081d3b" d="m80.086 244.215-11.469-21.91 15.785 3.59Zm0 0"/><path fill="#b29012" d="m114.563 183.313-26.626-1.75 17.083-19.805Zm0 0"/><path fill="#293333" d="m118.117 159.617-3.555 23.696-9.542-21.555Zm0 0"/><path fill="#fcf4d8" d="m141.145 219.074-16.528 12.938.973-23.094Zm0 0"/><path fill="#fec507" d="m136.219 243.656-11.602-11.644 16.528-12.938Zm0 0"/><path fill="#fbfbfc" d="m99.23 338.164 14.504-18.61 4.329 26.942Zm0 0"/><path fill="#081d3b" d="m78.293 318.523-12.078 10.758-3.18-27.367Zm0 0"/><path fill="#081d3b" d="m66.215 329.281 12.078-10.758 20.937 19.641Zm0 0"/><path fill="#fcfcfc" d="m78.293 318.523 35.441 1.032-14.504 18.61Zm0 0"/><path fill="#fbfbfb" d="m80.371 292.45-2.078 26.073-15.258-16.609Zm0 0"/><path fill="#fdfdfd" d="m78.293 318.523 2.078-26.074 33.363 27.106Zm0 0"/><path fill="#0b1f3c" d="m155.309 255.75 15.847 3.836-7.633 12.52Zm0 0"/><path fill="#081d3b" d="m171.156 259.586 19.078 18.91-26.71-6.39Zm0 0"/><path fill="#4f4d2b" d="m171.156 259.586-15.847-3.836 7.609-12.059Zm0 0"/><path fill="#091e3d" d="m126.91 258.441 28.399-2.691-6.02 20.586Zm0 0"/><path fill="#dadce0" d="m124.555 267.04 2.355-8.599 22.38 17.895Zm0 0"/><path fill="#081d3b" d="m28.242 292.469 34.793 9.445-32.34 19.137Zm0 0"/><path fill="#88909e" d="m321.168 132.453-41.973-2.555 16.578-29.39Zm0 0"/><path fill="#d9dbdf" d="m279.195 129.898 41.973 2.555-28.957 29.75Zm0 0"/><path fill="#848c92" d="m301.621 76.238 28.695 30.016-34.543-5.746Zm0 0"/><path fill="#142845" d="m330.316 106.254-9.148 26.2-25.395-31.946Zm0 0"/><path fill="#081d3b" d="M384 111.887 356.059 50.53l27.972-14.246Zm0 0"/><path fill="#c19a0e" d="m340.691 28.23 43.34 8.055-27.972 14.246Zm0 0"/><path fill="#1e2b36" d="m340.637 291.164-6.73-4.941 18.468-40.575Zm0 0"/><path fill="#fdfaef" d="m180.172 147.672 31.367 4.527-7.824 13.098Zm0 0"/><path fill="#fbc102" d="m248.11 133.95-21.837-9.208 17.497-11.246Zm0 0"/><path fill="#f4f5f6" d="m279.195 129.898-31.086 4.051-4.34-20.453Zm0 0"/><path fill="#d5a70a" d="m226.273 124.742 21.836 9.207-22.066 3.957Zm0 0"/><path fill="#e8b508" d="m216.332 279.508-19.844-10.16 24.797 1.062Zm0 0"/><path fill="#0a1e3b" d="m190.234 278.496 6.254-9.148 19.844 10.16Zm0 0"/><path fill="#fefbee" d="m221.285 270.41-24.797-1.062 21.367-25.07Zm0 0"/><path fill="#081d3b" d="m196.488 269.348-6.254 9.148-19.078-18.91Zm0 0"/><path fill="#fbf7ea" d="m156.008 230.203 20.73-7.207-13.82 20.695Zm0 0"/><path fill="#081d3b" d="m176.738 222.996-20.73 7.207 2.277-10.586ZM236.71 298.516l-20.378-19.008 24.02 5.578Zm0 0"/><path fill="#081d3c" d="m236.71 298.516-29.901-2.547 9.523-16.461Zm0 0"/><path fill="#0a1e3b" d="m245.906 256.406 1.239-11.32 14.773 14.062Zm0 0"/><path fill="#0a1e3b" d="m245.906 256.406 16.012 2.742-21.566 25.938Zm0 0"/><path fill="#f4f4f6" d="m267.957 197.734-5.426-13.402 32.043 11.934Zm0 0"/><path fill="#d5a910" d="m260.32 172.21 2.211 12.122-6.433 1.121Zm0 0"/><path fill="#ebecee" d="m260.32 172.21 31.89-10.007 2.364 34.063Zm0 0"/><path fill="#f4f4f5" d="m262.531 184.332-2.21-12.121 34.253 24.055Zm0 0"/><path fill="#d7a90a" d="m221.863 207.957 17.535 11.715-12.437 6.812Zm0 0"/><path fill="#fdefc1" d="m243.473 198.71-4.075 20.962-17.535-11.715Zm0 0"/><path fill="#5a5428" d="m211.54 152.2-14.923-30.942 29.426 16.648Zm0 0"/><path fill="#fdf3d2" d="m233.73 152.855-22.19-.656 14.503-14.293Zm0 0"/><path fill="#fbc616" d="m248.11 133.95-14.38 18.905-7.687-14.949Zm0 0"/><path fill="#081d3b" d="m189.488 176.441 7.219 10.114-21.02 1.28Zm0 0"/><path fill="#655c27" d="m196.707 186.555-5.977 10.414-15.042-9.133Zm0 0"/><path fill="#373d30" d="m190.73 196.969 5.977-10.414L203 197.004Zm0 0"/><path fill="#816f1e" d="m196.586 208 10.371 19.848-16.305 5.273Zm0 0"/><path fill="#fefdfa" d="m240.715 361.352-32.203-18.141 33.465 15.426Zm0 0"/><path fill="#fefcf7" d="m208.512 343.21 35.406-8.608-1.941 24.035Zm0 0"/><path fill="#fefefe" d="m180.605 343.531-19.882 19.012-16.918-27.172Zm0 0"/><path fill="#fefdfd" d="m160.723 362.543 19.882-19.012.461 23.031Zm0 0"/><path fill="#cbced4" d="m194.004 321.031-13.399 22.5-36.8-8.16Zm0 0"/><path fill="#d4d6dc" d="m177.66 292.977 16.344 28.054-50.2 14.34Zm0 0"/><path fill="#c8cbd2" d="m206.809 295.969-12.805 25.062-16.344-28.054Zm0 0"/><path fill="#d1d3d9" d="m180.605 343.531 13.399-22.5 14.508 22.18Zm0 0"/><path fill="#333a32" d="M362.063 351.402 346.914 384l-12.309-41.937Zm0 0"/><path fill="#263134" d="M340.637 291.164 369.12 245.7l14.887 45.824Zm0 0"/><path fill="#253136" d="m369.121 245.7-28.484 45.464 11.738-45.516Zm0 0"/><path fill="#2e3732" d="m369.121 245.7 14.867-56.095.02 101.918Zm0 0"/><path fill="#343b34" d="m360.184 222.656 8.937 23.043-16.746-.05Zm0 0"/><path fill="#313832" d="M383.988 189.605 369.121 245.7l-8.937-23.043Zm0 0"/><path fill="#caced4" d="m282.344 330.555 23.957-10.5-20.137 17.257Zm0 0"/><path fill="#f9fafa" d="m306.3 320.055-23.956 10.5 9.246-22.535Zm0 0"/><path fill="#dadce0" d="m282.344 330.555-5.961-7.996 15.207-14.54Zm0 0"/><path fill="#091d3b" d="m316.484 309.738 17.422-23.515 6.73 4.941Zm0 0"/><path fill="#fafafa" d="m303.715 300.777 2.586 19.278-14.711-12.035Zm0 0"/><path fill="#f2f3f4" d="m303.715 300.777 12.77 8.961-10.184 10.317Zm0 0"/><path fill="#fefdfd" d="m290.074 293.469 13.64 7.308-12.124 7.243Zm0 0"/><path fill="#e9eaec" d="m315.668 278.5-11.953 22.277-13.64-7.308Zm0 0"/><path fill="#f5f6f5" d="m303.715 300.777 30.191-14.554-17.422 23.515Zm0 0"/><path fill="#f1f1f1" d="m333.906 286.223-30.191 14.554 11.953-22.277Zm0 0"/><path fill="#081d3b" d="m199.75 109.266 39.719-15.145-13.196 30.621ZM214.355 93.246l-14.605 16.02-7.004-17.168Zm0 0"/><path fill="#081d3b" d="m239.469 94.121-39.719 15.145 14.605-16.02ZM196.617 121.258l3.133-11.992 26.523 15.476Zm0 0"/><path fill="#1c2a37" d="m73.922 88.637-6.336-32.528 28.7 12.864Zm0 0"/><path fill="#091d3b" d="m73.922 88.637-20.024 21.195-5.308-41.348Zm0 0"/><path fill="#081d3b" d="m67.586 56.11 6.336 32.527L48.59 68.484Zm0 0"/><path fill="#0c203a" d="m21.559 9.86 14.3 9.585-8.191 3.598Zm0 0"/><path fill="#fcfcfb" d="m21.559 9.86 2.793-3.614 11.507 13.2Zm0 0"/><path fill="#fbfbfa" d="m80.086 244.215-12.613 21.793-16.047-26.227Zm0 0"/><path fill="#fcfbf6" d="m36.75 251 30.723 15.008-22.825 4.137Zm0 0"/><path fill="#f8f7f3" d="M67.473 266.008 36.75 251l14.676-11.219Zm0 0"/><path fill="#8f781b" d="m125.59 208.918-20.45 25.352 12.012-26.426Zm0 0"/><path fill="#edb804" d="m124.617 232.012-19.476 2.258 20.449-25.352Zm0 0"/><path fill="#1b2937" d="m117.152 207.844-12.011 26.426-20.739-8.375Zm0 0"/><path fill="#081d3b" d="m105.14 234.27 19.477-2.258-18.976 20.68Zm0 0"/><path fill="#6a5f25" d="m46.57 125.523-24.566-5.37 31.894-10.321Zm0 0"/><path fill="#695f25" d="m22.004 120.152 24.566 5.371-8.46 18.305Zm0 0"/><path fill="#f5f5f6" d="m113.734 319.555-33.363-27.106 28.262-17.012Zm0 0"/><path fill="#dcdee2" d="m138.176 292.922-24.442 26.633-5.101-44.118Zm0 0"/><path fill="#e2b416" d="m155.309 255.75-19.09-12.094 26.699.035Zm0 0"/><path fill="#081d3c" d="m126.91 258.441 9.309-14.785 19.09 12.094Zm0 0"/><path fill="#091d3b" d="m136.219 243.656-9.309 14.785-2.293-26.43Zm0 0"/><path fill="#081d3b" d="m53.176 284.52-24.934 7.949 16.406-22.324Zm0 0"/><path fill="#081d3b" d="m28.242 292.469 24.934-7.95 9.86 17.395Zm0 0"/><path fill="#fbfaf9" d="m53.176 284.52 27.195 7.93-17.336 9.464Zm0 0"/><path fill="#fcf9ef" d="M67.473 266.008 53.176 284.52l-8.528-14.375Zm0 0"/><path fill="#fdfdfd" d="m53.176 284.52 14.297-18.512 12.898 26.441Zm0 0"/><path fill="#3c402f" d="m172.426 126.297 5.254-25.012 22.07 7.98Zm0 0"/><path fill="#bb9610" d="m177.68 101.285-5.254 25.012-11.38-21.918Zm0 0"/><path fill="#fdf9ec" d="m180.172 147.672 16.445-26.414 14.922 30.941Zm0 0"/><path fill="#091e3b" d="m203.715 165.297-7.008 21.258-7.219-10.114Zm0 0"/><path fill="#081d3b" d="m196.707 186.555 7.008-21.258 21.488 15.219Zm0 0"/><path fill="#fefbef" d="m225.203 180.516-13.664-28.317 22.191.656Zm0 0"/><path fill="#fef7de" d="m225.203 180.516-21.488-15.22 7.824-13.097Zm0 0"/><path fill="#0d213b" d="m197.531 242.695-1.043 26.653-25.332-9.762Zm0 0"/><path fill="#e0d3a5" d="m197.531 242.695 9.426-14.847 10.898 16.43Zm0 0"/><path fill="#fef8e2" d="m196.488 269.348 1.043-26.653 20.324 1.582Zm0 0"/><path fill="#0a1f3b" d="m190.652 233.121 6.88 9.574-26.376 16.89Zm0 0"/><path fill="#fdca1f" d="m197.531 242.695-6.879-9.574 16.305-5.273Zm0 0"/><path fill="#fcf6e2" d="m190.652 233.121-19.496 26.465-8.238-15.895Zm0 0"/><path fill="#fefcf4" d="m176.738 222.996 13.914 10.125-27.734 10.57Zm0 0"/><path fill="#081d3c" d="m176.738 222.996-18.453-3.379 2.438-19.469Zm0 0"/><path fill="#fdfaee" d="m183.785 207.43-7.047 15.566-16.015-22.848Zm0 0"/><path fill="#feca1e" d="m190.652 233.121-13.914-10.125 7.047-15.566Zm0 0"/><path fill="#fbc307" d="m273.48 217.629-15.418-16.64 9.895-3.255Zm0 0"/><path fill="#edeef0" d="m273.48 217.629-5.523-19.895 26.617-1.468Zm0 0"/><path fill="#ebecee" d="m273.48 217.629 21.094-21.363-16.902 54.472Zm0 0"/><path fill="#081d3b" d="m258.063 200.988-1.965-15.535 11.859 12.281Zm0 0"/><path fill="#162739" d="m256.098 185.453 6.433-1.121 5.426 13.402Zm0 0"/><path fill="#fcfaf5" d="m258.063 200.988-6.141 12.48-8.45-14.757Zm0 0"/><path fill="#fdfcf6" d="m239.398 219.672 12.524-6.203.371 14.969Zm0 0"/><path fill="#fdf8e7" d="m251.922 213.469 21.558 4.16-21.187 10.809Zm0 0"/><path fill="#fcfbf5" d="m251.922 213.469 6.14-12.48 15.418 16.64Zm0 0"/><path fill="#fcfaf3" d="m243.473 198.71 8.449 14.759-12.524 6.203Zm0 0"/><path fill="#fdedb8" d="m221.285 270.41 12.309-19.305 6.758 33.98Zm0 0"/><path fill="#0b1f3b" d="m233.594 251.105 12.312 5.301-5.554 28.68Zm0 0"/><path fill="#081d3b" d="m243.473 198.71-21.61 9.247 16.926-21.906Zm0 0"/><path fill="#0a1e3b" d="m206.957 227.848 14.906-19.891 5.098 18.527Zm0 0"/><path fill="#0b1f3b" d="m196.586 208 25.277-.043-14.906 19.89Zm0 0"/><path fill="#f3bc02" d="m203 197.004 18.863 10.953-25.277.043Zm0 0"/><path fill="#081d3b" d="m204.004 366.504 36.71-5.152-42.386 22.652Zm0 0"/><path fill="#fdfaed" d="m204.004 366.504 4.508-23.293 32.203 18.14Zm0 0"/><path fill="#fefefc" d="m204.004 366.504-9.477-8.063 13.985-15.23Zm0 0"/><path fill="#fefefc" d="m204.004 366.504-9.469.937-.008-9Zm0 0"/><path fill="#081d3b" d="m204.004 366.504-5.676 17.5-3.793-16.563Zm0 0"/><path fill="#102442" d="m253.297 317.125-23.727 2.508 7.14-21.117Zm0 0"/><path fill="#dddfe2" d="m194.004 321.031 35.566-1.398-21.058 23.578Zm0 0"/><path fill="#606d81" d="m236.71 298.516-7.14 21.117-22.761-23.664Zm0 0"/><path fill="#babec7" d="m229.57 319.633-35.566 1.398 12.805-25.062Zm0 0"/><path fill="#cbced2" d="m243.918 334.602-14.348-14.97 23.727-2.507Zm0 0"/><path fill="#d4d5d8" d="m208.512 343.21 21.058-23.577 14.348 14.969Zm0 0"/><path fill="#776a2b" d="m11.988 10.969 9.57-1.11-4.203 15.883Zm0 0"/><path fill="#2d3633" d="m21.559 9.86 6.109 13.183-10.313 2.7Zm0 0"/><path fill="#081d3b" d="m80.086 244.215 25.055-9.945.5 18.421ZM105.14 234.27l-25.054 9.945 4.316-18.32Zm0 0"/><path fill="#243035" d="m196.617 121.258-24.191 5.039 27.324-17.031Zm0 0"/><path fill="#081d3b" d="m248.613 193.086 9.45 7.902-14.59-2.277Zm0 0"/><path fill="#081d3b" d="m248.613 193.086 7.485-7.633 1.964 15.535ZM248.613 193.086l-5.14 5.625-4.684-12.66Zm0 0"/><path fill="#081d3b" d="m248.613 193.086-9.824-7.035 17.309-.598Zm0 0"/><path fill="#fefdf8" d="m217.855 244.277 15.739 6.828-12.309 19.305Zm0 0"/><path fill="#0c203a" d="m217.855 244.277-10.898-16.43 20.004-1.363Zm0 0"/><path fill="#fefcf6" d="m217.855 244.277 19.649-7.691-3.91 14.52Zm0 0"/><path fill="#fde8a0" d="m237.504 236.586-19.649 7.691 9.106-17.793Zm0 0"/><path fill="#bf9910" d="m237.504 236.586 1.894-16.914 12.895 8.766Zm0 0"/><path fill="#c69e0f" d="m239.398 219.672-1.894 16.914-10.543-10.102Zm0 0"/><path fill="#0c1f3a" d="m247.98 171.898 12.34.313-4.222 13.242Zm0 0"/><path fill="#f0f1f3" d="m254.531 153.133-6.422-19.184 31.086-4.05Zm0 0"/><path fill="#9c8118" d="m247.145 245.086-9.641-8.5 14.789-8.149Zm0 0"/><path fill="#fcfbf9" d="m237.504 236.586 9.64 8.5-13.55 6.02Zm0 0"/><path fill="#091d3c" d="m233.594 251.105 13.55-6.02-1.238 11.321Zm0 0"/><path fill="#fac103" d="m225.203 180.516-3.34 27.441L203 197.004Zm0 0"/><path fill="#5a5528" d="m196.707 186.555 28.496-6.04L203 197.005Zm0 0"/><path fill="#f1bb03" d="m221.863 207.957 3.34-27.441 13.586 5.535Zm0 0"/><path fill="#0b1f3b" d="m238.79 186.05 9.19-14.152 8.118 13.555Zm0 0"/><path fill="#facb2f" d="m247.98 171.898-9.19 14.153-13.587-5.535Zm0 0"/><path fill="#fefbf0" d="m247.98 171.898-6.851-8.132 13.402-10.633Zm0 0"/><path fill="#fec403" d="m254.531 153.133-20.8-.278 14.378-18.906Zm0 0"/><path fill="#fefaef" d="m241.129 163.766-7.399-10.91 20.801.277Zm0 0"/><path fill="#fec402" d="m260.32 172.21-12.34-.312 6.551-18.765Zm0 0"/><path fill="#ecedef" d="m260.32 172.21 18.875-42.312 13.016 32.305Zm0 0"/><path fill="#eff0f1" d="m260.32 172.21-5.789-19.077 24.664-23.235Zm0 0"/><path fill="#fdf8e6" d="m241.129 163.766 6.851 8.132-22.777 8.618Zm0 0"/><path fill="#fefaef" d="m241.129 163.766-15.926 16.75 8.527-27.66Zm0 0"/></svg>