<svg xmlns="http://www.w3.org/2000/svg" width="512" height="512" viewBox="0 0 384 384"><path fill="#cd683d" d="m246.328 278.027 9.77 15.403-14.57-4.297Zm0 0"/><path fill="#997f73" d="m23.273 68.367 9.579 24.238L0 96.156Zm0 0"/><path fill="#2e222f" d="m85.906 228.363 24.02 36.367-17.817-.52Zm0 0"/><path fill="#a9b2a1" d="m33.633 194.75 28.156-44.203 9.023 22.258Zm0 0"/><path fill="#a9b1a1" d="m88.625 113.156-16.703-24.43 31.883-4.66Zm0 0"/><path fill="#2e222f" d="m174.133 187.04 15.62-10.43.364 13.406ZM256.098 293.43l-6.168 23.406-8.403-27.703Zm0 0"/><path fill="#362830" d="M320.656 384h-32.93l18.817-20.562Zm0 0"/><path fill="#f2b658" d="m199.738 35.633 32.453 3.957-32.246.172Zm0 0"/><path fill="#f5b656" d="m27.652 191.836 5.98 2.914-5.937 1.828Zm0 0"/><path fill="#9a7f72" d="m21.402 193.324 6.25-1.488.043 4.742Zm0 0"/><path fill="#997f72" d="m39.11 142.164-11.458 49.672-4.152-60.957Zm0 0"/><path fill="#563f36" d="m-.012 383.996 36.106-36.183L86.18 384.03Zm0 0"/><path fill="#be8d4b" d="m0 324.91 36.094 22.902-36.106 36.184Zm0 0"/><path fill="#2e222f" d="m100.434 339.41 19.77 10.262-34.024 34.36Zm0 0"/><path fill="#413033" d="m352.195 154.965 31.813-52.192v91.653Zm0 0"/><path fill="#4b3735" d="m384.008 102.773-31.813 52.192-15.703-37.078Zm0 0"/><path fill="#4c3835" d="m349.664 75.3 34.344 27.473-47.516 15.114Zm0 0"/><path fill="#cd683d" d="m267.484 286.441-11.386 6.989-9.77-15.403Zm0 0"/><path fill="#a9b2a1" d="m61.79 150.547 39.76-13.883-30.737 36.14Zm0 0"/><path fill="#fab853" d="m101.438 166.445.113-29.78 18.254 12.878Zm0 0"/><path fill="#fab854" d="m101.55 136.664-.112 29.781-30.626 6.36Zm0 0"/><path fill="#a9b2a1" d="m101.55 136.664-39.76 13.883 26.835-37.39Zm0 0"/><path fill="#f3ac50" d="m186.656 209.395-12.523-22.356 15.984 2.977Zm0 0"/><path fill="#2e222f" d="m135.066 147.23-.132 14.551-15.13-12.238Zm0 0"/><path fill="#653b34" d="m125.758 132.27 9.308 14.96-15.261 2.313Zm0 0"/><path fill="#cc673c" d="m157.723 127.375 10.152-23.824 7.07 26.293Zm0 0"/><path fill="#cc673d" d="m167.875 103.55-10.152 23.825-31.965 4.895Zm0 0"/><path fill="#2e222f" d="m135.066 147.23 22.657-19.855-.446 25.395Zm0 0"/><path fill="#2f222f" d="m157.723 127.375-22.657 19.855-9.308-14.96Zm0 0"/><path fill="#f5b252" d="m174.133 187.04-26.496-7.313 9.64-26.957Zm0 0"/><path fill="#df8946" d="m147.637 179.727-29.301.98 16.598-18.926Zm0 0"/><path fill="#2e222f" d="m149.906 207.023 11.758-3.804-6.777 15.77Zm0 0"/><path fill="#f5b452" d="m161.664 203.219-11.758 3.804 12.313-10.02Zm0 0"/><path fill="#f7b653" d="m227.45 280.14-16.41-8.265 19.401-10.633Zm0 0"/><path fill="#ca693d" d="m227.45 280.14 18.878-2.113-4.8 11.106Zm0 0"/><path fill="#f5b452" d="m227.45 280.14 2.991-18.898 15.887 16.785Zm0 0"/><path fill="#f9b853" d="m211.04 271.875.757-28.238 18.644 17.605Zm0 0"/><path fill="#8e6840" d="m227.45 280.14-18.196-.37 1.785-7.895Zm0 0"/><path fill="#cd683d" d="m267.484 286.441-1.824 13.098-9.562-6.11Zm0 0"/><path fill="#2e222f" d="m265.66 299.54-15.73 17.296 6.168-23.406Zm0 0"/><path fill="#2e222f" d="m249.93 316.836 15.73-17.297-3.176 23.047Zm0 0"/><path fill="#a9b2a1" d="m332.996 212.977 19.113 29.742-36.687-6.578ZM171.172 54.313l17.566 21.664-32.695 12.543Zm0 0"/><path fill="#a8b1a1" d="M114.016.008 159.91 0l-2.379 12.59Zm0 0"/><path fill="#997f72" d="m208.863 0-51.332 12.59L159.911 0Zm0 0"/><path fill="#997e72" d="M157.531 12.59 208.863 0l-8.633 22.055Zm0 0"/><path fill="#a8b1a1" d="m169.46 37.938 30.278-2.305.207 4.129Zm0 0"/><path fill="#997f72" d="m171.172 54.313-1.711-16.376 30.484 1.825Zm0 0"/><path fill="#2e222f" d="m223.824 61.766 9.875-18.13-2.086 18.473Zm0 0"/><path fill="#edaf51" d="m232.191 39.59 1.508 4.047-33.754-3.875Zm0 0"/><path fill="#9b7c63" d="m233.7 43.637-9.876 18.129-23.879-22.004Zm0 0"/><path fill="#f9b753" d="m224.262 70.098-.438-8.332 7.79.343Zm0 0"/><path fill="#efb153" d="m71.922 88.727 24.14-21.895 7.743 17.234Zm0 0"/><path fill="#a49776" d="m96.063 66.832 26.57-10.73-18.828 27.964Zm0 0"/><path fill="#fab854" d="m188.738 75.977-20.863 27.574-11.832-15.031Zm0 0"/><path fill="#997f73" d="M23.5 130.879 0 96.156l32.852-3.55Zm0 0"/><path fill="#997f73" d="M23.5 130.879 0 184.586v-88.43Zm0 0"/><path fill="#5f4638" d="m41.3 24.965 2.63 11.082-10.246.816Zm0 0"/><path fill="#997f73" d="m0 96.156-.004-51.789 23.277 24Zm0 0"/><path fill="#6c4537" d="m43.93 36.047 8.683 30.289-18.93-29.473Zm0 0"/><path fill="#cd683d" d="m118.336 180.707-7.61-8.355 24.208-10.57Zm0 0"/><path fill="#cc673c" d="m134.934 161.781-24.207 10.57 9.078-22.808Zm0 0"/><path fill="#cd683d" d="m110.727 172.352-9.29-5.907 18.368-16.902Zm0 0"/><path fill="#3d2d32" d="M-.012 289.645 0 247.633l18.773 9.402Zm0 0"/><path fill="#997e72" d="M21.402 193.324 0 223.227v-38.641Zm0 0"/><path fill="#a9b1a1" d="m21.402 193.324-9.332 36.27L0 223.227Zm0 0"/><path fill="#997f72" d="m12.07 229.594 9.332-36.27 6.293 3.254Zm0 0"/><path fill="#aab19f" d="M34.496 236.758 53.2 215.492l14.149 6.332Zm0 0"/><path fill="#fab853" d="m53.2 215.492 17.612-42.687 14.149 25.054Zm0 0"/><path fill="#2e222f" d="m95.441 200.355 20.993 2.735-30.528 25.273Zm0 0"/><path fill="#cd693d" d="m123 211.75-6.566-8.66 21.543-5.106Zm0 0"/><path fill="#997f72" d="M21.402 193.324 23.5 130.88l4.152 60.957ZM23.5 130.879l-2.098 62.445L0 184.586Zm0 0"/><path fill="#dba14e" d="m79.246 113.832-28.683 5.211 21.359-30.316Zm0 0"/><path fill="#aab19f" d="M79.246 113.832 61.79 150.547l-8.363-16.645Zm0 0"/><path fill="#aab2a0" d="m50.563 119.043 28.683-5.211-25.82 20.07Zm0 0"/><path fill="#a07643" d="m79.246 113.832-7.324-25.105 16.703 24.43Zm0 0"/><path fill="#a9b1a1" d="m61.79 150.547 17.456-36.715 9.379-.676Zm0 0"/><path fill="#a9b2a1" d="m33.633 194.75 5.476-52.586 22.68 8.383Zm0 0"/><path fill="#f5b757" d="m39.11 142.164-5.477 52.586-5.98-2.914Zm0 0"/><path fill="#a9b2a1" d="m39.11 142.164 14.316-8.262 8.363 16.645Zm0 0"/><path fill="#fab853" d="m84.96 197.86-14.147-25.055 30.624-6.36Zm0 0"/><path fill="#a9b2a2" d="m114.023 323.629 24.622-21.777 4.402 31.89Zm0 0"/><path fill="#a9b2a2" d="m114.023 323.629 29.024 10.113-22.844 15.93Zm0 0"/><path fill="#2e222f" d="m184.54 384-41.169-24.258 45.496 8.078Zm0 0"/><path fill="#574036" d="m36.094 347.813-6.028-56.926 14.782 4.933Zm0 0"/><path fill="#31242f" d="m36.094 347.813 37.293-9.13 12.793 45.348Zm0 0"/><path fill="#2e222f" d="m64.266 304.586 9.12 34.098-28.538-42.864Zm0 0"/><path fill="#30242f" d="m44.848 295.82 28.539 42.864-37.293 9.128Zm0 0"/><path fill="#f5b655" d="m352.195 154.965-4.78 1.52-10.923-38.598Zm0 0"/><path fill="#f4b656" d="m347.414 156.484-15.297-36.449 4.375-2.148Zm0 0"/><path fill="#3c2c31" d="m313.719 87.125 35.945-11.824-13.172 42.586Zm0 0"/><path fill="#edb053" d="m352.195 154.965 6.313 39.883-11.094-38.364Zm0 0"/><path fill="#3c2c32" d="m358.508 194.848-6.313-39.883 31.813 39.46Zm0 0"/><path fill="#a9b2a1" d="m358.508 194.848-36.192-23.993 25.098-14.37Zm0 0"/><path fill="#a9b2a1" d="m322.316 170.855 36.192 23.993-25.512 18.129Zm0 0"/><path fill="#a9b2a2" d="m286.547 155.395 35.77 15.46-27.407 21.07Zm0 0"/><path fill="#a9b2a1" d="m322.316 170.855 10.68 42.122-38.086-21.051Zm0 0"/><path fill="#33252f" d="m349.664 75.3-33.969-44.46 40.43 4.5Zm0 0"/><path fill="#574036" d="m315.695 30.84 33.97 44.46-34.298-3.105Zm0 0"/><path fill="#2e222f" d="m383.984 36.223-27.859-.883L384.004.004Zm0 0"/><path fill="#2e222f" d="M384.004.004 356.125 35.34 311.352-.02Zm0 0"/><path fill="#362830" d="m349.664 75.3 6.461-39.96 27.883 67.433Zm0 0"/><path fill="#cd683d" d="m260.621 257.387 6.863 29.054-21.156-8.414Zm0 0"/><path fill="#9f5439" d="m267.484 286.441-6.863-29.054.695.125Zm0 0"/><path fill="#cd683d" d="m267.484 286.441-6.168-28.93 24.438 23.305Zm0 0"/><path fill="#a9b1a1" d="m276.074 249.547 32.168 18.941-22.488 12.328Zm0 0"/><path fill="#fab853" d="m261.316 257.512 14.758-7.965 9.68 31.27Zm0 0"/><path fill="#a9b2a1" d="m315.422 236.14-39.348 13.407-.144-29.777ZM276.074 249.547l39.348-13.406-7.18 32.347ZM308.242 268.488l7.18-32.347 13.32 25.992ZM315.422 236.14l-20.512-44.214 38.086 21.05Zm0 0"/><path fill="#a9b2a1" d="m294.91 191.926 20.512 44.215-39.492-16.371Zm0 0"/><path fill="#fab853" d="m101.55 136.664 24.208-4.394-5.953 17.273Zm0 0"/><path fill="#997f72" d="m311.352-.02-29.227 26.852L262.969-.004Zm0 0"/><path fill="#aab2a0" d="m273.777 108.594-7.968-32.328 31.742 3.488Zm0 0"/><path fill="#a8b1a1" d="m265.809 76.266 7.968 32.328-35.445-22.633Zm0 0"/><path fill="#2e222f" d="m189.754 176.61-17.813-12.145 18.27.023Zm0 0"/><path fill="#f9b753" d="m171.941 164.465 2.192 22.574-16.856-34.27Zm0 0"/><path fill="#2e222f" d="m174.133 187.04-2.192-22.575 17.813 12.144ZM135.066 147.23l22.211 5.54-22.343 9.011Zm0 0"/><path fill="#fab853" d="m186.656 209.395-24.437-12.391 11.914-9.965ZM162.219 197.004l-14.582-17.277 26.496 7.312Zm0 0"/><path fill="#fab853" d="m162.219 197.004 24.437 12.39-8.25 7.735Zm0 0"/><path fill="#f2b252" d="m161.664 203.219.555-6.215 16.187 20.125Zm0 0"/><path fill="#fab853" d="m162.219 197.004-12.313 10.02-11.93-9.04Zm0 0"/><path fill="#2e222f" d="m167.453 217.148-5.789-13.93 16.742 13.91Zm0 0"/><path fill="#2e222f" d="m161.664 203.219 5.79 13.93-12.567 1.84Zm0 0"/><path fill="#cc683d" d="m200.055 213.137-9.57 15.086-3.829-18.828Zm0 0"/><path fill="#2e222f" d="m283.48 358.063-4.175-16.942 15.601-8.297Zm0 0"/><path fill="#a9b2a1" d="m279.305 341.121-9.118 7.008-7.703-25.543Zm0 0"/><path fill="#2e222f" d="m279.305 341.121 4.175 16.942-13.293-9.934ZM294.906 332.824l15.106-19.422 25.136 28.309Zm0 0"/><path fill="#fab853" d="m273.129 299.473-5.645-13.032 18.27-5.625ZM273.129 299.473l12.625-18.657 4.297 25.97Zm0 0"/><path fill="#d37440" d="m273.129 299.473-7.469.066 1.824-13.098Zm0 0"/><path fill="#997f73" d="m235.105 29.406-34.875-7.351L208.863 0Zm0 0"/><path fill="#997f72" d="m200.23 22.055 34.875 7.351-2.914 10.184Zm0 0"/><path fill="#9a7f72" d="m199.738 35.633.492-13.578 31.961 17.535Zm0 0"/><path fill="#997f73" d="m169.46 37.938 30.77-15.883-.492 13.578Zm0 0"/><path fill="#a9b2a1" d="m223.824 61.766-35.086 14.21 11.207-36.214Zm0 0"/><path fill="#a9b1a1" d="m188.738 75.977-17.566-21.665 28.773-14.55Zm0 0"/><path fill="#2e222f" d="m58.89 0 23.262 24.547-25.066 3.433ZM82.152 24.547 58.891 0h29.668Zm0 0"/><path fill="#a18470" d="m235.105 29.406 1.344 10.36-4.258-.176Zm0 0"/><path fill="#eeaf51" d="m236.45 39.766-2.75 3.87-1.509-4.046Zm0 0"/><path fill="#997f72" d="m282.125 26.832-45.676 12.934-1.344-10.36Zm0 0"/><path fill="#997f72" d="m276.816 44.23-40.367-4.464 45.676-12.934Zm0 0"/><path fill="#fab853" d="m188.738 75.977 35.524-5.88-26.469 23.298Zm0 0"/><path fill="#fab853" d="m224.262 70.098-35.524 5.879 35.086-14.211ZM224.262 70.098l14.07 15.863-40.539 7.434Zm0 0"/><path fill="#fab853" d="m224.262 70.098 7.351-7.989 6.719 23.852Zm0 0"/><path fill="#a9b2a1" d="m231.613 62.11 34.196 14.156-27.477 9.695Zm0 0"/><path fill="#a9b1a1" d="m231.613 62.11 2.086-18.473 32.11 32.629Zm0 0"/><path fill="#fab853" d="m118.598 114.785 37.445-26.265 11.832 15.03Zm0 0"/><path fill="#a9b1a1" d="m118.598 114.785-29.973-1.629 15.18-29.09Zm0 0"/><path fill="#a9b2a1" d="m118.598 114.785-17.047 21.88-12.926-23.509Zm0 0"/><path fill="#fab853" d="m118.598 114.785 49.277-11.234-42.117 28.719Zm0 0"/><path fill="#fab853" d="m101.55 136.664 17.048-21.879 7.16 17.485Zm0 0"/><path fill="#afa886" d="m122.633 56.102-26.57 10.73 25.39-14.488Zm0 0"/><path fill="#4b3236" d="m121.453 52.344-25.39 14.488 3.671-50.59Zm0 0"/><path fill="#422c32" d="m96.063 66.832-13.91-42.285 17.581-8.305Zm0 0"/><path fill="#997e73" d="m71.922 88.727-20.059 2.308.75-24.7Zm0 0"/><path fill="#a9b1a1" d="m134.227 75.238 16.09-33.46 5.726 46.742ZM150.316 41.777l-16.09 33.461-11.593-19.136Zm0 0"/><path fill="#a9b2a1" d="m134.227 75.238-15.63 39.547-14.792-30.719ZM118.598 114.785l15.629-39.547 21.816 13.282Zm0 0"/><path fill="#a9b2a1" d="m122.633 56.102 11.594 19.136-30.422 8.828Zm0 0"/><path fill="#f9b753" d="m121.453 52.344 28.863-10.567-27.683 14.325Zm0 0"/><path fill="#2e222f" d="M41.3 24.965 58.89 0l-1.804 27.98Zm0 0"/><path fill="#2e222f" d="M41.3 24.965 11.458.012 58.891 0Zm0 0"/><path fill="#afa886" d="M11.457.012-.003 44.367 0 0Zm0 0"/><path fill="#afa886" d="m11.457.012 22.227 36.851-33.688 7.504ZM-.004 44.367l33.688-7.504-10.41 31.504Zm0 0"/><path fill="#876e59" d="m33.684 36.863 18.93 29.473-29.34 2.031Zm0 0"/><path fill="#71513a" d="m52.613 66.336-8.683-30.29 13.156-8.066Zm0 0"/><path fill="#a9b1a1" d="m53.617 243.742-19.12-6.984 32.85-14.934Zm0 0"/><path fill="#d8a457" d="m0 223.227 12.07 6.367L0 247.633Zm0 0"/><path fill="#372930" d="m12.07 229.594 14.692 9.976-7.989 17.465Zm0 0"/><path fill="#362830" d="m0 247.633 12.07-18.04 6.703 27.442Zm0 0"/><path fill="#31242f" d="m30.14 228.695-18.07.899 15.625-33.016Zm0 0"/><path fill="#f3b759" d="m33.633 194.75-3.492 33.945-2.446-32.117Zm0 0"/><path fill="#362830" d="m30.14 228.695 4.356 8.063-7.734 2.812Zm0 0"/><path fill="#362830" d="m12.07 229.594 18.07-.899-3.378 10.875Zm0 0"/><path fill="#a9b2a1" d="m53.2 215.492-23.06 13.203 3.493-33.945Zm0 0"/><path fill="#aab2a0" d="m30.14 228.695 23.06-13.203-18.704 21.266Zm0 0"/><path fill="#a9b2a2" d="M53.2 215.492 33.632 194.75l37.18-21.945Zm0 0"/><path fill="#85623e" d="M67.348 221.824 84.96 197.86l.945 30.504Zm0 0"/><path fill="#f9b853" d="m53.2 215.492 31.76-17.633-17.612 23.965Zm0 0"/><path fill="#2e222f" d="m84.96 197.86 10.481 2.495-9.535 28.008Zm0 0"/><path fill="#fab853" d="m147.637 179.727-9.66 18.257-19.641-17.277Zm0 0"/><path fill="#fab853" d="m162.219 197.004-24.242.98 9.66-18.257Zm0 0"/><path fill="#cd683d" d="m118.336 180.707 19.64 17.277-21.542 5.106Zm0 0"/><path fill="#fab853" d="m95.441 200.355 22.895-19.648-1.902 22.383Zm0 0"/><path fill="#2e222f" d="m139.402 218.516 10.504-11.493 4.98 11.965Zm0 0"/><path fill="#f9b753" d="m149.906 207.023-10.504 11.493-1.425-20.532Zm0 0"/><path fill="#fab853" d="M139.402 218.516 123 211.75l14.977-13.766Zm0 0"/><path fill="#75563b" d="m152.605 255.023-27.507-11.953 16.082-1.351Zm0 0"/><path fill="#2e222f" d="m125.098 243.07-15.172 21.66-24.02-36.367Zm0 0"/><path fill="#997f73" d="m71.922 88.727-21.36 30.316 1.301-28.008Zm0 0"/><path fill="#997f73" d="m32.852 92.605 19.011-1.57-1.3 28.008Zm0 0"/><path fill="#edb45b" d="m50.563 119.043 2.863 14.86-14.317 8.261Zm0 0"/><path fill="#a9b2a2" d="m138.645 301.852 8.671-25.61 20.528 6.625Zm0 0"/><path fill="#2e222f" d="m147.316 276.242 5.29-21.219 15.238 27.844Zm0 0"/><path fill="#f2b252" d="M152.605 255.023 141.18 241.72l22.886 2.773Zm0 0"/><path fill="#2e222f" d="m125.098 243.07 8.925 27.16-24.097-5.5Zm0 0"/><path fill="#2e222f" d="m134.023 270.23-8.925-27.16 27.507 11.953Zm0 0"/><path fill="#a9b2a2" d="m134.023 270.23 4.622 31.622-28.72-37.122ZM134.023 270.23l13.293 6.012-8.671 25.61Zm0 0"/><path fill="#2e222f" d="m86.18 384.031 57.191-24.289L184.54 384Zm0 0"/><path fill="#2e222f" d="m120.203 349.672 23.168 10.07-57.191 24.29Zm0 0"/><path fill="#a9b2a1" d="m143.047 333.742.324 26-23.168-10.07Zm0 0"/><path fill="#8a6742" d="M30.066 290.887 0 324.91l-.012-35.265Zm0 0"/><path fill="#594237" d="M36.094 347.813 0 324.91l30.066-34.023Zm0 0"/><path fill="#2e222f" d="m73.387 338.684 27.047.726-14.254 44.621Zm0 0"/><path fill="#382a30" d="m30.066 290.887-11.293-33.852 26.868 16.688Zm0 0"/><path fill="#362830" d="m18.773 257.035 11.293 33.852-30.078-1.242Zm0 0"/><path fill="#2f222f" d="m54.852 288.184 9.414 16.402-19.418-8.766Zm0 0"/><path fill="#a9b2a1" d="m347.414 156.484-25.098 14.371 9.801-50.82ZM322.316 170.855l-35.77-15.46 45.571-35.36Zm0 0"/><path fill="#efb052" d="m332.117 120.035-18.398-32.91 22.773 30.762Zm0 0"/><path fill="#402f32" d="m315.367 72.195-1.648 14.93L300.78 74.66Zm0 0"/><path fill="#31242f" d="M349.664 75.3 313.72 87.126l1.648-14.93Zm0 0"/><path fill="#997f72" d="m296.809 49.707-19.993-5.477 5.309-17.398Zm0 0"/><path fill="#76573c" d="m296.809 49.707 18.558 22.488-14.586 2.465Zm0 0"/><path fill="#654a39" d="m296.809 49.707 18.886-18.867-.328 41.355Zm0 0"/><path fill="#e3a850" d="m311.352-.02 44.773 35.36-40.43-4.5Zm0 0"/><path fill="#a9b2a1" d="m336.875 279.406-28.633-10.918 20.5-6.355Zm0 0"/><path fill="#997f72" d="m315.695 30.84-33.57-4.008L311.352-.02Zm0 0"/><path fill="#9a7f72" d="m296.809 49.707-14.684-22.875 33.57 4.008ZM208.863 0l54.106-.004-27.864 29.41Zm0 0"/><path fill="#997f72" d="m262.969-.004 19.156 26.836-47.02 2.574Zm0 0"/><path fill="#ebae52" d="M297.55 79.754 275.356 57.96l25.426 16.7Zm0 0"/><path fill="#79593c" d="m265.809 76.266 9.546-18.305 22.196 21.793Zm0 0"/><path fill="#5b4337" d="m275.355 57.96 21.454-8.253 3.972 24.953Zm0 0"/><path fill="#9a7e6c" d="m296.809 49.707-21.454 8.254 1.461-13.73Zm0 0"/><path fill="#f9b653" d="m197.793 93.395-29.918 10.156 20.863-27.574Zm0 0"/><path fill="#a85739" d="m157.723 127.375 17.222 2.469-17.668 22.926Zm0 0"/><path fill="#cc673c" d="m181.293 144.887-9.352 19.578-14.664-11.695Zm0 0"/><path fill="#cd683d" d="m181.293 144.887-6.348-15.043 13.813-.516Zm0 0"/><path fill="#fab853" d="m171.941 164.465 9.352-19.578 8.918 19.601Zm0 0"/><path fill="#cc683d" d="m174.945 129.844 6.348 15.043-24.016 7.883Zm0 0"/><path fill="#c9663c" d="m157.277 152.77-9.64 26.957-12.703-17.946Zm0 0"/><path fill="#2e222f" d="m140.926 236.055-1.524-17.54 15.485.473Zm0 0"/><path fill="#fab853" d="m141.18 241.719 19.23-12.883 3.656 15.656Zm0 0"/><path fill="#2e222f" d="m167.453 217.148-7.043 11.688-5.523-9.848ZM160.41 228.836l-19.484 7.219 13.96-17.067Zm0 0"/><path fill="#76573c" d="m140.926 236.055 19.484-7.22-19.23 12.884Zm0 0"/><path fill="#2e222f" d="m199.055 298.781-31.211-15.914 41.41-3.097Zm0 0"/><path fill="#a8b1a1" d="m167.844 282.867 31.21 15.914-60.41 3.07Zm0 0"/><path fill="#fab854" d="m276.074 249.547-8.68-6.715 8.536-23.062Zm0 0"/><path fill="#f9b753" d="m267.395 242.832 8.68 6.715-14.759 7.965Zm0 0"/><path fill="#fab853" d="m275.93 219.77-8.535 23.062-29.711-11.863Zm0 0"/><path fill="#2e222f" d="m260.621 257.387 6.774-14.555-6.079 14.68Zm0 0"/><path fill="#cd683d" d="m190.117 190.016 9.938 23.12-13.399-3.741Zm0 0"/><path fill="#cd683d" d="m190.117 190.016 18.399 15.566-8.461 7.555Zm0 0"/><path fill="#f5b553" d="m198.684 237.398 9.734-7.93 3.379 14.169Zm0 0"/><path fill="#2e222f" d="m203.516 367.777-7.364 7.649-7.285-7.606ZM184.54 384l11.612-8.574L208.36 384Zm0 0"/><path fill="#2e222f" d="M196.152 375.426 184.54 384l4.328-16.18ZM239.281 361.512l30.906-13.383 13.293 9.933Zm0 0"/><path fill="#a9b2a1" d="m191.652 349.86 11.864 17.917-14.649.043Zm0 0"/><path fill="#a9b2a2" d="m270.188 348.129-22.235-19.684 14.531-5.86Zm0 0"/><path fill="#a9b2a1" d="m247.953 328.445 1.977-11.61 12.554 5.75Zm0 0"/><path fill="#31242f" d="m320.656 384-14.113-20.562 28.605-21.727Zm0 0"/><path fill="#2e222f" d="m306.543 363.438-11.637-30.614 40.242 8.887Zm0 0"/><path fill="#2e222f" d="m306.543 363.438-23.063-5.375 11.426-25.239Zm0 0"/><path fill="#423133" d="m354.605 315.898 29.403-37.43-.02 105.536Zm0 0"/><path fill="#31242f" d="m384.008 278.469-29.403 37.43-.683-31.844Zm0 0"/><path fill="#3f2f33" d="m383.988 384.004-48.84-42.293 19.457-25.813Zm0 0"/><path fill="#2e222f" d="m287.727 384-48.446-22.488 44.2-3.45Zm0 0"/><path fill="#2e222f" d="M239.281 361.512 287.727 384h-79.368ZM287.727 384l-4.247-25.937 23.063 5.375Zm0 0"/><path fill="#332630" d="m366.148 250.227 17.86 28.242-30.086 5.586Zm0 0"/><path fill="#382a31" d="m384.008 278.469-17.86-28.242 17.86-55.801Zm0 0"/><path fill="#aeb29c" d="m357.559 220.8-5.45 21.919-19.113-29.742Zm0 0"/><path fill="#2e222f" d="m357.559 220.8 8.59 29.427-14.04-7.508Zm0 0"/><path fill="#2f232f" d="m366.148 250.227-8.59-29.426 26.45-26.375Zm0 0"/><path fill="#30242f" d="m357.559 220.8.949-25.952 25.5-.422Zm0 0"/><path fill="#a9b2a1" d="m358.508 194.848-.95 25.953-24.562-7.824Zm0 0"/><path fill="#2e222f" d="m273.129 299.473 4.45 23.609-11.919-23.543Zm0 0"/><path fill="#2e222f" d="m277.578 323.082-4.45-23.61 16.923 7.313Zm0 0"/><path fill="#2e222f" d="m265.66 299.54 11.918 23.542-15.094-.496Zm0 0"/><path fill="#a9b2a2" d="m277.578 323.082 1.727 18.04-16.82-18.536Zm0 0"/><path fill="#2e222f" d="m324.57 301.168 30.035 14.73-19.457 25.813ZM310.012 313.402l14.558-12.234 10.578 40.543Zm0 0"/><path fill="#a9b2a2" d="m308.754 291.215-23-10.399 22.488-12.328Zm0 0"/><path fill="#a9b1a1" d="m336.875 279.406-28.121 11.809-.512-22.727ZM169.46 37.938l-19.144 3.84 7.215-29.188Zm0 0"/><path fill="#997f73" d="M169.46 37.938 157.532 12.59l42.7 9.465Zm0 0"/><path fill="#2e222f" d="M114.016.008 99.734 16.242 88.56 0Zm0 0"/><path fill="#2e222f" d="m99.734 16.242-17.582 8.305L88.56 0Zm0 0"/><path fill="#997e72" d="M122.918 20.879 114.016.008 157.53 12.59Zm0 0"/><path fill="#997f73" d="m122.918 20.879-1.465 31.465-21.719-36.102Zm0 0"/><path fill="#997e72" d="m114.016.008 8.902 20.87-23.184-4.636Zm0 0"/><path fill="#997f72" d="M275.355 57.96 236.45 39.767l40.367 4.464Zm0 0"/><path fill="#5e4d43" d="m233.7 43.637 41.655 14.324-9.546 18.305Zm0 0"/><path fill="#f5b554" d="m236.45 39.766 38.905 18.195L233.7 43.637Zm0 0"/><path fill="#a8b1a1" d="m273.777 108.594-32.261 1.219-3.184-23.852Zm0 0"/><path fill="#c8663c" d="m203.684 124.75 19.129-7.09 3.566 7.863Zm0 0"/><path fill="#593e36" d="M76.691 62.8 57.086 27.98l25.066-3.433Zm0 0"/><path fill="#402c32" d="M96.063 66.832 76.69 62.801l5.461-38.254Zm0 0"/><path fill="#624539" d="m76.691 62.8-24.078 3.536 4.473-38.356Zm0 0"/><path fill="#d49c4d" d="m150.316 41.777 19.145-3.84 1.71 16.376Zm0 0"/><path fill="#a9b1a1" d="m150.316 41.777 20.856 12.535-15.129 34.208ZM121.453 52.344l18.86-18.297 10.003 7.73Zm0 0"/><path fill="#a9b1a1" d="m150.316 41.777-10.004-7.73 17.22-21.457Zm0 0"/><path fill="#997f73" d="m122.918 20.879 17.394 13.168-18.859 18.297Zm0 0"/><path fill="#997f73" d="m140.313 34.047-17.395-13.168 34.613-8.29Zm0 0"/><path fill="#78593d" d="m41.3 24.965 15.786 3.015-13.156 8.067Zm0 0"/><path fill="#997f73" d="m32.852 92.605 19.761-26.27-.75 24.7Zm0 0"/><path fill="#362830" d="m18.773 257.035 17.133-7.074 9.735 23.762Zm0 0"/><path fill="#352730" d="m26.762 239.57 9.144 10.39-17.133 7.075Zm0 0"/><path fill="#352730" d="m34.496 236.758 1.41 13.203-9.144-10.39Zm0 0"/><path fill="#a9b2a1" d="m53.617 243.742-17.71 6.219-1.41-13.203Zm0 0"/><path fill="#2e222f" d="m73.805 243.324-20.188.418 13.73-21.918ZM92.11 264.21l-18.305-20.886 12.101-14.96Zm0 0"/><path fill="#2e222f" d="m73.805 243.324-6.457-21.5 18.558 6.54Zm0 0"/><path fill="#cc673c" d="M110.727 172.352 84.96 197.859l16.477-31.414Zm0 0"/><path fill="#cc683d" d="M110.727 172.352 95.44 200.355l-10.48-2.496Zm0 0"/><path fill="#ce6a3d" d="m110.727 172.352 7.609 8.355-22.895 19.648Zm0 0"/><path fill="#fab853" d="M139.402 218.516 126.81 231.89 123 211.75Zm0 0"/><path fill="#cd6a3d" d="m125.098 243.07 1.71-11.18 14.372 9.829Zm0 0"/><path fill="#fab853" d="m126.809 231.89 14.117 4.165.254 5.664Zm0 0"/><path fill="#eeaf51" d="m140.926 236.055-14.117-4.164 12.593-13.375Zm0 0"/><path fill="#997f73" d="M50.563 119.043 23.5 130.879l9.352-38.274Zm0 0"/><path fill="#a9b2a1" d="m100.434 339.41 13.59-15.781 6.18 26.043Zm0 0"/><path fill="#2e222f" d="m84.824 325.77-11.437 12.914-9.121-34.098ZM73.387 338.684l11.437-12.914 15.61 13.64Zm0 0"/><path fill="#a9b1a1" d="m84.824 325.77 29.2-2.141-13.59 15.781ZM96.953 296.75l-12.129 29.02-20.558-21.184Zm0 0"/><path fill="#a9b2a2" d="m84.824 325.77 12.13-29.02 17.07 26.879Zm0 0"/><path fill="#2e222f" d="m152.605 255.023 18.317 6.688-3.078 21.156ZM170.922 261.71l-18.317-6.687 11.461-10.53ZM134.023 270.23l18.582-15.207-5.289 21.22Zm0 0"/><path fill="#3c2c31" d="m44.848 295.82-14.782-4.933 15.575-17.164Zm0 0"/><path fill="#a9b2a2" d="m332.117 120.035-58.34-11.441 23.774-28.84ZM273.777 108.594l58.34 11.441-45.57 35.36Zm0 0"/><path fill="#b0b29a" d="m313.719 87.125 18.398 32.91-34.566-40.281Zm0 0"/><path fill="#362830" d="M384.008 102.773 356.125 35.34l27.86.883Zm0 0"/><path fill="#fab853" d="m186.262 144.676 24.8 1.86-20.851 17.952Zm0 0"/><path fill="#fab853" d="m181.293 144.887 4.969-.211 3.949 19.812Zm0 0"/><path fill="#cd683d" d="m186.262 144.676-4.969.21 7.465-15.558Zm0 0"/><path fill="#fab854" d="m211.063 146.535.687 15.469-21.54 2.484Zm0 0"/><path fill="#432b30" d="m222.813 117.66 18.703-7.847-15.137 15.71Zm0 0"/><path fill="#bd8b48" d="m209.254 279.77-12.531-8.63 14.316.735Zm0 0"/><path fill="#2e222f" d="m167.844 282.867 28.879-11.726 12.53 8.629Zm0 0"/><path fill="#fab853" d="m211.04 271.875-14.317-.734 15.074-27.504Zm0 0"/><path fill="#2e222f" d="m196.723 271.14-28.88 11.727 3.079-21.156Zm0 0"/><path fill="#cb964b" d="m160.41 228.836 13.16-4.05-9.504 19.706Zm0 0"/><path fill="#2e222f" d="m173.57 224.785-13.16 4.05 7.043-11.687ZM218.504 298.473l8.945-18.332 14.078 8.992ZM218.504 298.473l-9.25-18.703 18.195.37Zm0 0"/><path fill="#2e222f" d="m218.504 298.473-19.45.308 10.2-19.011ZM230.441 261.242l13.344-5.305 2.543 22.09Zm0 0"/><path fill="#2e222f" d="m243.785 255.938 16.836 1.449-14.293 20.64Zm0 0"/><path fill="#a9b2a1" d="m269.836 195.957-6.86-14.816 31.934 10.785Zm0 0"/><path fill="#2e222f" d="m243 176.977 8.668 11.449-17.188 9.039Zm0 0"/><path fill="#a9b2a2" d="m262.977 181.14 23.57-25.745 8.363 36.53Zm0 0"/><path fill="#33252f" d="m226.145 215.43 11.539 15.539-14.606-4.844Zm0 0"/><path fill="#f2b252" d="m239.285 212.512-1.601 18.457-11.54-15.54Zm0 0"/><path fill="#3d2c31" d="m211.063 146.535-7.38-21.785 22.696.773Zm0 0"/><path fill="#fab853" d="m211.75 162.004-.687-15.469 25.367 14.645Zm0 0"/><path fill="#2e222f" d="m189.754 176.61 15.184 8.261-14.82 5.145Zm0 0"/><path fill="#ce6a3d" d="m190.117 190.016 14.82-5.145 3.579 20.711Zm0 0"/><path fill="#b65e3b" d="m208.418 229.469-17.934-1.246 9.57-15.086Zm0 0"/><path fill="#f6b452" d="m208.418 229.469-9.734 7.93-8.2-9.176Zm0 0"/><path fill="#a9b2a1" d="m239.281 361.512-11.68-20.684 42.587 7.3Zm0 0"/><path fill="#a9b2a2" d="m227.602 340.828 20.351-12.383 22.234 19.684ZM191.652 349.86l-48.28 9.882-.325-26Zm0 0"/><path fill="#a9b2a2" d="m143.371 359.742 48.281-9.883-2.785 17.961ZM195.008 324.352l-3.356 25.507-48.605-16.117Zm0 0"/><path fill="#a8b1a1" d="m138.645 301.852 56.363 22.5-51.961 9.39Zm0 0"/><path fill="#a9b2a2" d="m199.055 298.781-4.047 25.57-56.363-22.5ZM195.008 324.352l32.594 16.476-35.95 9.031Zm0 0"/><path fill="#3a2c32" d="m320.656 384 14.492-42.29 48.84 42.294Zm0 0"/><path fill="#2e222f" d="m366.148 250.227-18.414 8.168 4.375-15.676Zm0 0"/><path fill="#a9b1a1" d="m328.742 262.133 18.992-3.738-10.859 21.011Zm0 0"/><path fill="#2e222f" d="m347.734 258.395 6.188 25.66-17.047-4.649ZM347.734 258.395l18.414-8.168-12.226 33.828Zm0 0"/><path fill="#a9b2a1" d="m347.734 258.395-18.992 3.738-13.32-25.992ZM352.11 242.719l-4.376 15.676-32.312-22.254Zm0 0"/><path fill="#deb56c" d="m279.305 341.121 10.472-13.726 5.13 5.43Zm0 0"/><path fill="#a9b2a1" d="m277.578 323.082 12.2 4.313-10.473 13.726Zm0 0"/><path fill="#c1b38a" d="m289.777 327.395 20.235-13.993-15.106 19.422Zm0 0"/><path fill="#a9b1a1" d="m310.012 313.402-20.235 13.993.274-20.61Zm0 0"/><path fill="#2e222f" d="m289.777 327.395-12.199-4.313 12.473-16.297Zm0 0"/><path fill="#2f222f" d="m324.57 301.168 29.352-17.113.683 31.843Zm0 0"/><path fill="#2e222f" d="m353.922 284.055-29.352 17.113 12.305-21.762Zm0 0"/><path fill="#a9b1a1" d="m324.57 301.168-15.816-9.953 28.121-11.809Zm0 0"/><path fill="#a9b2a2" d="m308.754 291.215 1.258 22.187-19.961-6.617Zm0 0"/><path fill="#a9b2a1" d="m308.754 291.215 15.816 9.953-14.558 12.234Zm0 0"/><path fill="#a9b2a2" d="m285.754 280.816 23 10.399-18.703 15.57Zm0 0"/><path fill="#9d5338" d="m233.297 96.547 8.219 13.266-18.703 7.847Zm0 0"/><path fill="#cc683d" d="m241.516 109.813-8.22-13.266 5.036-10.586Zm0 0"/><path fill="#cd683d" d="m238.332 85.96-5.035 10.587-35.504-3.152Zm0 0"/><path fill="#2e222f" d="m233.297 96.547-26.531 14.32-8.973-17.472ZM233.297 96.547l-10.484 21.113-16.047-6.793Zm0 0"/><path fill="#7a3145" d="m71.922 88.727 4.77-25.926 19.37 4.031Zm0 0"/><path fill="#7c3547" d="m76.691 62.8-4.77 25.927-19.308-22.391Zm0 0"/><path fill="#997f73" d="m23.273 68.367 29.34-2.031-19.761 26.27Zm0 0"/><path fill="#a8b1a1" d="m60.953 265.992 12.852-22.668 18.304 20.887Zm0 0"/><path fill="#a9b1a1" d="m73.805 243.324-12.852 22.668-7.336-22.25Zm0 0"/><path fill="#a9b2a1" d="m72.55 284.266-11.597-18.274 31.156-1.781Zm0 0"/><path fill="#abb29f" d="m35.906 249.96 25.047 16.032-15.312 7.73Zm0 0"/><path fill="#a9b2a2" d="m60.953 265.992-25.047-16.031 17.711-6.219Zm0 0"/><path fill="#cc683d" d="m123 211.75-16.36 19.398 9.794-28.058Zm0 0"/><path fill="#e8aa50" d="m126.809 231.89-20.168-.742L123 211.75Zm0 0"/><path fill="#2e222f" d="m116.434 203.09-9.793 28.058-20.735-2.785Zm0 0"/><path fill="#cd683d" d="m106.64 231.148 20.169.743-1.711 11.18Zm0 0"/><path fill="#998073" d="M39.11 142.164 23.5 130.88l27.063-11.836Zm0 0"/><path fill="#a9b2a1" d="m54.852 288.184 17.699-3.918-8.285 20.32Zm0 0"/><path fill="#a9b2a2" d="m72.55 284.266 24.403 12.484-32.687 7.836ZM96.953 296.75l-24.402-12.484 19.558-20.055ZM109.926 264.73l-12.973 32.02-4.844-32.54ZM138.645 301.852l-41.692-5.102 12.973-32.02ZM114.023 323.629l-17.07-26.879 41.692 5.102Zm0 0"/><path fill="#31242f" d="m54.852 288.184-10.004 7.636.793-22.097Zm0 0"/><path fill="#b8b292" d="m60.953 265.992-6.101 22.192-9.211-14.461Zm0 0"/><path fill="#a9b2a1" d="m54.852 288.184 6.101-22.192 11.598 18.274Zm0 0"/><path fill="#f0b152" d="m300.781 74.66 12.938 12.465-16.168-7.371Zm0 0"/><path fill="#c6653c" d="m191.828 113.852 5.965-20.457 8.973 17.472Zm0 0"/><path fill="#cc673c" d="m197.793 93.395-5.965 20.457-23.953-10.301Zm0 0"/><path fill="#c1633c" d="m167.875 103.55 23.953 10.302-16.883 15.992Zm0 0"/><path fill="#cc673c" d="m191.828 113.852-3.07 15.476-13.813.516Zm0 0"/><path fill="#fab853" d="m186.262 144.676 2.496-15.348 22.304 17.207Zm0 0"/><path fill="#fab853" d="m211.063 146.535-22.305-17.207 14.926-4.578ZM211.75 162.004l-4.27 6.652-17.27-4.168Zm0 0"/><path fill="#2e222f" d="m207.48 168.656-17.726 7.953.457-12.12ZM207.48 168.656l-2.542 16.215-15.184-8.262ZM204.938 184.871l2.542-16.215 15.165 11.48Zm0 0"/><path fill="#fab853" d="m207.48 168.656 4.27-6.652 10.895 18.133Zm0 0"/><path fill="#32252f" d="m195.324 249.469 1.399 21.672-25.801-9.43Zm0 0"/><path fill="#fab853" d="m195.324 249.469 3.36-12.07 13.113 6.238ZM196.723 271.14l-1.399-21.671 16.473-5.832Zm0 0"/><path fill="#f5b452" d="m198.684 237.398-14.829 5.559 6.63-14.734Zm0 0"/><path fill="#fab853" d="m183.855 242.957-10.285-18.172 16.914 3.438Zm0 0"/><path fill="#2e222f" d="m183.855 242.957 11.47 6.512-24.403 12.242Zm0 0"/><path fill="#2e222f" d="m195.324 249.469-11.469-6.512 14.829-5.559Zm0 0"/><path fill="#bd623b" d="m183.855 242.957-12.933 18.754-6.856-17.219Zm0 0"/><path fill="#fab853" d="m173.57 224.785 10.285 18.172-19.789 1.535Zm0 0"/><path fill="#362830" d="m178.406 217.129-4.836 7.656-6.117-7.637Zm0 0"/><path fill="#d19a4c" d="m173.57 224.785 4.836-7.656 12.078 11.094Zm0 0"/><path fill="#f6b152" d="m190.484 228.223-12.078-11.094 8.25-7.734Zm0 0"/><path fill="#f9b753" d="m256.086 200.773 13.75-4.816 6.094 23.813Zm0 0"/><path fill="#a9b2a1" d="m269.836 195.957 25.074-4.031-18.98 27.844Zm0 0"/><path fill="#322531" d="m262.977 181.14-.243 10.829-11.066-3.543Zm0 0"/><path fill="#2e222f" d="m256.086 200.773 6.648-8.804 7.102 3.988Zm0 0"/><path fill="#a9b1a1" d="m262.734 191.969.243-10.828 6.859 14.816Zm0 0"/><path fill="#f0b152" d="m256.086 200.773-16.8 11.739-4.806-15.047Zm0 0"/><path fill="#f7b653" d="m239.285 212.512 36.645 7.258-38.246 11.199Zm0 0"/><path fill="#c7934a" d="m239.285 212.512 16.8-11.739 19.845 18.997Zm0 0"/><path fill="#fab853" d="m211.797 243.637 23.371 3.68-4.727 13.925Zm0 0"/><path fill="#2e222f" d="m235.168 247.316 8.617 8.621-13.344 5.305Zm0 0"/><path fill="#f7b653" d="m226.508 201.152 12.777 11.36-13.14 2.918Zm0 0"/><path fill="#e8a950" d="m208.516 205.582 17.992-4.43-.363 14.278Zm0 0"/><path fill="#f9b753" d="m239.285 212.512-12.777-11.36 7.972-3.687Zm0 0"/><path fill="#2e222f" d="m213.188 219.121 12.957-3.691-3.067 10.695Zm0 0"/><path fill="#2e222f" d="m213.188 219.121-4.672-13.539 17.629 9.848Zm0 0"/><path fill="#2e222f" d="m208.418 229.469 4.77-10.348 9.89 7.004Zm0 0"/><path fill="#2e222f" d="m208.516 205.582 4.672 13.54-13.133-5.985Zm0 0"/><path fill="#2e222f" d="m213.188 219.121-4.77 10.348-8.363-16.332ZM203.516 367.777l35.765-6.265L208.36 384Zm0 0"/><path fill="#a9b2a2" d="m227.602 340.828-24.086 26.95-11.864-17.919Zm0 0"/><path fill="#a9b2a1" d="m203.516 367.777 24.086-26.949 11.68 20.684Zm0 0"/><path fill="#2e222f" d="M203.516 367.777 208.359 384l-12.207-8.574ZM249.93 316.836l-23.278.156 14.875-27.86ZM226.652 316.992l-8.148-18.52 23.023-9.34Zm0 0"/><path fill="#a9b2a1" d="m195.008 324.352 31.644-7.36.95 23.836Zm0 0"/><path fill="#a8b1a1" d="m218.504 298.473 8.148 18.52-27.597-18.212Zm0 0"/><path fill="#a9b2a1" d="m226.652 316.992-31.644 7.36 4.047-25.57ZM247.953 328.445l-21.3-11.453 23.277-.156Zm0 0"/><path fill="#a9b2a1" d="m227.602 340.828-.95-23.836 21.301 11.453Zm0 0"/><path fill="#afa886" d="m11.457.012 29.844 24.953-7.617 11.898Zm0 0"/><path fill="#cb673c" d="m85.906 228.363 20.735 2.785 18.457 11.922Zm0 0"/><path fill="#cc673c" d="m191.828 113.852 11.856 10.898-14.926 4.578Zm0 0"/><path fill="#be613b" d="m203.684 124.75-11.856-10.898 14.938-2.985Zm0 0"/><path fill="#7c4435" d="m222.813 117.66-19.13 7.09 3.083-13.883Zm0 0"/><path fill="#2e222f" d="m251.668 188.426 4.418 12.347-21.606-3.308Zm0 0"/><path fill="#2e222f" d="m251.668 188.426 11.066 3.543-6.648 8.804Zm0 0"/><path fill="#f8b653" d="m223.258 236.059 11.91 11.257-23.371-3.68Zm0 0"/><path fill="#2e222f" d="m223.258 236.059-14.84-6.59 14.66-3.344Zm0 0"/><path fill="#31242f" d="m208.418 229.469 14.84 6.59-11.461 7.578Zm0 0"/><path fill="#f8b653" d="m223.258 236.059 14.426-5.09-2.516 16.347Zm0 0"/><path fill="#efb051" d="m237.684 230.969-14.426 5.09-.18-9.934Zm0 0"/><path fill="#cc673c" d="m251.95 145.64-25.571-20.117 15.137-15.71Zm0 0"/><path fill="#a9b2a1" d="m251.95 145.64-10.434-35.827 32.261-1.22Zm0 0"/><path fill="#f9b753" d="m267.395 242.832-20.954 2.758-8.757-14.621Zm0 0"/><path fill="#86633f" d="m237.684 230.969 8.757 14.62-11.273 1.727Zm0 0"/><path fill="#2e222f" d="m260.621 257.387-14.18-11.797 20.954-2.758Zm0 0"/><path fill="#2e222f" d="m243.785 255.938 2.656-10.348 14.18 11.797Zm0 0"/><path fill="#30232f" d="m235.168 247.316 11.273-1.726-2.656 10.347Zm0 0"/><path fill="#f8b553" d="m215.453 192.773 11.055 8.38-17.992 4.429Zm0 0"/><path fill="#f9b553" d="m204.938 184.871 10.515 7.902-6.937 12.809Zm0 0"/><path fill="#eeaf51" d="m215.453 192.773-10.516-7.902 17.708-4.734Zm0 0"/><path fill="#cc683d" d="m222.645 180.137 20.355-3.16-8.52 20.488Zm0 0"/><path fill="#cd683d" d="m226.508 201.152-3.863-21.015 11.835 17.328Zm0 0"/><path fill="#fab853" d="m215.453 192.773 7.192-12.636 3.863 21.015Zm0 0"/><path fill="#2e222f" d="m243 176.977 19.977 4.164-11.309 7.285Zm0 0"/><path fill="#2e222f" d="M262.977 181.14 243 176.978l14.723-9.563Zm0 0"/><path fill="#fab853" d="m243 176.977-6.57-15.797 21.293 6.234Zm0 0"/><path fill="#fab854" d="m236.43 161.18 15.52-15.54 5.773 21.774Zm0 0"/><path fill="#2e222f" d="m226.379 125.523 25.57 20.118-40.887.894Zm0 0"/><path fill="#d19a4c" d="m251.95 145.64-15.52 15.54-25.368-14.645Zm0 0"/><path fill="#a9b2a2" d="m251.95 145.64 34.597 9.755-28.824 12.02Zm0 0"/><path fill="#a9b2a1" d="m286.547 155.395-23.57 25.746-5.254-13.727ZM286.547 155.395l-34.598-9.754 21.828-37.047Zm0 0"/><path fill="#fab853" d="m243 176.977-20.355 3.16 13.785-18.957ZM222.645 180.137l-10.895-18.133 24.68-.824Zm0 0"/></svg>