<svg xmlns="http://www.w3.org/2000/svg" width="512" height="512" viewBox="0 0 384 384"><path fill="#89aabb" d="M28.355 209.773 0 220.051l28.305-12.164Zm0 0"/><path fill="#89aabb" d="m0 220.05 28.355-10.277 7.383 28.278ZM0 220.05v-51.984l28.305 39.82ZM0 384v-71.078l44.016 34.418Zm0 0"/><path fill="#89aabb" d="M0 262.164v-42.113l35.738 18ZM0 262.164l52.781 12.883L0 312.922ZM313.273 0l-.894 59.652-39.82-18.363ZM278.484 80.684l13.618 13.804-9.899 3.575ZM354.992 168.91 384 184.691l-18.828 8.336ZM16.18 128.734 0 168.066v-66.203ZM16.18 128.734l28.082 22.02L0 168.066ZM0 168.066l51.816 7.977-23.511 31.844Zm0 0"/><path fill="#89aabb" d="m44.262 150.754 7.554 25.289L0 168.066ZM118.512 44.059 88.035 77.453l-27.238-36.21ZM0 0l60.797 41.242L0 54.84Zm0 0"/><path fill="#89aabb" d="M83.18 0 60.797 41.242 0 0Zm0 0"/><path fill="#9c3900" d="m241.828 194.324-23.762-27.129 35.887 9.403Zm0 0"/><path fill="#89aabb" d="m218.066 167.195 3.168-17.343 32.72 26.746Zm0 0"/><path fill="#9b3900" d="m260.66 177.86-18.832 16.464 12.125-17.726Zm0 0"/><path fill="#89aabb" d="m57.047 314.816 27.016 27.489-40.047 5.035Zm0 0"/><path fill="#89aabb" d="m0 312.922 57.047 1.894-13.031 32.524ZM57.047 314.816 0 312.922l52.781-37.875ZM52.781 275.047 0 262.164l35.738-24.113Zm0 0"/><path fill="#4a2d2b" d="m196.61 162.66-17.13 13.988-7.05-19.457Zm0 0"/><path fill="#9c3900" d="m188.504 198.305-37.469.3 28.445-21.957Zm0 0"/><path fill="#9c3900" d="m151.035 198.605 37.469-.3-28.191 19.797Zm0 0"/><path fill="#9c3900" d="m160.313 218.102 28.19-19.797-26.429 22.882Zm0 0"/><path fill="#89aabb" d="m269.23 99.094 9.254-18.41 3.72 17.379ZM278.484 80.684l-9.254 18.41-25.984-26.438Zm0 0"/><path fill="#9c3900" d="m271.883 108.785-2.653-9.691 12.973-1.031Zm0 0"/><path fill="#89aabb" d="m272.559 41.29 5.925 39.394-35.238-8.028ZM255.098 103.117l-13.067 1.266 1.215-31.727Zm0 0"/><path fill="#89aabb" d="m269.23 99.094-14.132 4.023-11.852-30.46Zm0 0"/><path fill="#9c3900" d="m255.098 103.117 14.132-4.023 2.653 9.691Zm0 0"/><path fill="#89aabb" d="m242.031 104.383-16.851-6.938 18.066-24.789Zm0 0"/><path fill="#9b3800" d="m227.586 109.133 14.445-4.75 3.23 9.465Zm0 0"/><path fill="#89aabb" d="m225.18 97.445-24.457-15.078 42.523-9.71ZM272.559 41.29 254.656 0h58.617ZM234.902 32.855l-33.734 16.528L199.723 0Zm0 0"/><path fill="#89aabb" d="m254.656 0-19.754 32.855L199.722 0Zm0 0"/><path fill="#89aabb" d="M234.902 32.855 254.656 0l17.903 41.29Zm0 0"/><path fill="#9b3800" d="m299.672 181.977-6.574 17.468-9.422-11.007Zm0 0"/><path fill="#9b3800" d="m313.566 188.727-20.468 10.718 6.574-17.468Zm0 0"/><path fill="#89aabb" d="m384 63.363.008 43.063-11.485-14.766Zm0 0"/><path fill="#9b3800" d="m384.008 106.426-6.738.183-4.747-14.949Zm0 0"/><path fill="#89aabb" d="m365.172 193.027-13.086-.05 2.906-24.067ZM351.563 196.984l.523-4.007 13.086.05Zm0 0"/><path fill="#9c3900" d="m352.086 192.977-.524 4.007-37.996-8.257Zm0 0"/><path fill="#89aabb" d="m352.086 192.977-38.52-4.25 41.426-19.817ZM88.035 77.453l-42.074 4 14.836-40.21Zm0 0"/><path fill="#9c3900" d="m95.852 190.668-10.094 18.52-4.684-20.981Zm0 0"/><path fill="#89aabb" d="M142.648 0h57.075l-34.844 33.11Zm0 0"/><path fill="#89aabb" d="m199.723 0 1.445 49.383-36.29-16.274ZM142.648 0l22.23 33.11-46.366 10.949Zm0 0"/><path fill="#89aabb" d="M118.512 44.059 83.18 0h59.468Zm0 0"/><path fill="#89aabb" d="m83.18 0 35.332 44.059-57.715-2.817ZM194.367 139.684l2.242 22.976-24.18-5.469Zm0 0"/><path fill="#9b3800" d="m214.559 124.688 13.027-15.555 17.676 4.715Zm0 0"/><path fill="#9a3800" d="m227.586 109.133-13.027 15.555-3.989-13.723Zm0 0"/><path fill="#89aabb" d="m126.148 89.246-27.914 15.996-10.199-27.789ZM98.234 105.242l27.914-15.996-10.156 24.887Zm0 0"/><path fill="#89aaba" d="m75.398 104.805 22.836.437-10.71 18.102Zm0 0"/><path fill="#9c3900" d="m75.035 124.39.363-19.585 12.125 18.539Zm0 0"/><path fill="#89aabb" d="M75.398 104.805 45.961 81.453l42.074-4ZM98.234 105.242l-22.836-.437 12.637-27.352ZM58.895 154.813l-7.079 21.23-7.554-25.29Zm0 0"/><path fill="#9b3800" d="m99.969 132.223-19.809 1.214 7.363-10.093ZM241.828 194.324l-23.664-22.484-.098-4.645Zm0 0"/><path fill="#89aabb" d="m221.234 149.852 35.813 9.054-3.094 17.692ZM267.066 170.691l12.465 12.77-18.87-5.602ZM279.531 183.46l-12.465-12.769 11.852-13.03Zm0 0"/><path fill="#9b3800" d="m252.77 134.375 4.277 24.531-6.711-15.586Zm0 0"/><path fill="#89aabb" d="M155.98 350.188 174.348 384h-54.7ZM63.418 384l20.645-41.695L119.648 384ZM125.191 328.836l-41.128 13.469 12.207-45.93Zm0 0"/><path fill="#89aabb" d="m84.063 342.305 41.128-13.47L119.648 384ZM0 384l44.016-36.66L63.418 384ZM52.781 275.047 35.738 238.05l41.242-1.977Zm0 0"/><path fill="#89aabb" d="m88.32 250.648-35.539 24.399 24.2-38.973ZM155.98 350.188l36.622-3.387L174.348 384Zm0 0"/><path fill="#4a2d2b" d="m179.48 176.648 23.13-.937-14.106 22.594Zm0 0"/><path fill="#4a2d2b" d="m196.61 162.66 6 13.05-23.13.938Zm0 0"/><path fill="#4a2d2b" d="m218.164 171.84-15.555 3.87 15.457-8.515Zm0 0"/><path fill="#9c3900" d="m156.027 222.191 4.286-4.09 1.761 3.087Zm0 0"/><path fill="#9b3800" d="m153.5 170.383 18.93-13.192 7.05 19.457Zm0 0"/><path fill="#9b3800" d="m151.035 198.605 2.465-28.222 25.98 6.265Zm0 0"/><path fill="#9c3900" d="m153.5 170.383-2.465 28.222-18.726-22.011ZM139.46 153.27l14.04 17.113-21.191 6.21ZM186.145 261.73l3.78 18.497-3.46.183ZM101.863 209.844l-6.894 9.562-3.602-5.242Zm0 0"/><path fill="#9c3900" d="m94.969 219.406-7.125-2.613 3.523-2.629Zm0 0"/><path fill="#9c3900" d="m87.844 216.793-2.086-7.606 5.61 4.977Zm0 0"/><path fill="#89aabb" d="m80.324 215.945 7.52.848-10.864 19.281Zm0 0"/><path fill="#89aabb" d="m87.844 216.793 7.125 2.613-17.989 16.668Zm0 0"/><path fill="#9c3900" d="m101.863 209.844-6.011-19.176 27.59 8.172ZM85.758 209.188l16.105.656-10.496 4.32Zm0 0"/><path fill="#89aabb" d="m101.863 209.844-16.105-.656 10.094-18.52Zm0 0"/><path fill="#9b3800" d="m142.164 219.93-15.371-.125-3.352-20.965Zm0 0"/><path fill="#9c3900" d="m151.035 198.605-8.87 21.325-18.724-21.09Zm0 0"/><path fill="#9c3900" d="m132.309 176.594 18.726 22.011-27.594.235Zm0 0"/><path fill="#89aabb" d="m119.777 270.047 5.52-8.863 10.379 6.394ZM384 63.363l-34.762-22.992L384 0Zm0 0"/><path fill="#89aabb" d="M349.238 40.371 313.273 0H384Zm0 0"/><path fill="#89aabb" d="m349.238 40.371-36.86 19.281L313.274 0Zm0 0"/><path fill="#9b3800" d="m292.504 106.574 22.328-15.965 1.414 21.922ZM292.504 106.574l-20.621 2.211 10.32-10.722Zm0 0"/><path fill="#9c3900" d="m292.102 94.488.402 12.086-10.3-8.511ZM314.832 90.61l-22.328 15.964-.402-12.086Zm0 0"/><path fill="#89aabb" d="m278.484 80.684-5.925-39.395 39.82 18.363Zm0 0"/><path fill="#9b3800" d="m255.098 103.117-9.836 10.73-3.23-9.464Zm0 0"/><path fill="#4a2d2b" d="m134.32 140.266 9.168-2.028-.554 6.895ZM194.367 139.684l2.45-9.149 13.288 6.555Zm0 0"/><path fill="#9b3800" d="m168.168 140.797-10.441-17.738 17.558 4.687Zm0 0"/><path fill="#89aabb" d="m162.938 69.305-44.426-25.246 46.367-10.95ZM200.723 82.367l24.457 15.078-14.61 13.52ZM225.18 97.445l2.406 11.688-17.016 1.832Zm0 0"/><path fill="#89a9ba" d="m227.586 109.133-2.406-11.688 16.851 6.938Zm0 0"/><path fill="#89aabb" d="m189.77 104.496 10.953-22.129 9.847 28.598Zm0 0"/><path fill="#9c3900" d="m283.676 188.438 11.222-30.836 4.774 24.375Zm0 0"/><path fill="#9b3800" d="m345.996 103.906-5.34 15.817-24.41-7.192Zm0 0"/><path fill="#89aabb" d="m360.04 132.55-26.505 9.829 13.516-16.55Zm0 0"/><path fill="#89aabb" d="m384 139.102-29.008 29.808 5.047-36.36ZM384 139.102v45.59l-29.008-15.782ZM373.156 119.094l10.852-12.668-.008 32.676Zm0 0"/><path fill="#89aabb" d="m384.008 106.426-10.852 12.668 4.114-12.485ZM340.656 119.723l10.36-.512-3.965 6.617Zm0 0"/><path fill="#9b3800" d="m351.016 119.21-10.36.513 5.34-15.817ZM351.016 119.21l-5.02-15.304 17.453 11.121Zm0 0"/><path fill="#89aabb" d="m0 101.863 32.227 7.66-16.047 19.211ZM32.227 109.523l.199 14.278-16.246 4.933Zm0 0"/><path fill="#89aabb" d="m45.96 81.453-13.733 28.07L0 101.863Zm0 0"/><path fill="#89aaba" d="m32.426 123.8-.2-14.277 15.098 12.543Zm0 0"/><path fill="#89aabb" d="m32.227 109.523 24.683 1.97-9.586 10.573Zm0 0"/><path fill="#89aabb" d="m56.91 111.492-24.683-1.969 13.734-28.07Zm0 0"/><path fill="#88a9ba" d="m16.18 128.734 31.664 6.828-3.582 15.192Zm0 0"/><path fill="#9c3900" d="m32.426 123.8 15.418 11.763-31.664-6.829Zm0 0"/><path fill="#f6c5b4" d="M47.844 135.563 32.426 123.8l14.898-1.735Zm0 0"/><path fill="#89aabb" d="M0 101.863V54.84l45.96 26.613Zm0 0"/><path fill="#89aabb" d="M60.797 41.242 45.96 81.453 0 54.84Zm0 0"/><path fill="#9c3900" d="m28.305 207.887 29.71 6.238-29.66-4.352Zm0 0"/><path fill="#89aabb" d="m58.016 214.125-22.278 23.926-7.383-28.278Zm0 0"/><path fill="#89aabb" d="m35.738 238.05 22.278-23.925 18.964 21.95ZM58.016 214.125l22.308 1.82-3.344 20.13ZM61.21 205.473l-32.905 2.414 23.511-31.844ZM202.016 161.89l-7.649-22.206 15.738-2.594Zm0 0"/><path fill="#4a2d2b" d="m194.367 139.684 7.649 22.207-5.407.77ZM202.61 175.71l-.594-13.82 16.05 5.305Zm0 0"/><path fill="#4a2d2b" d="m202.016 161.89.593 13.82-6-13.05Zm0 0"/><path fill="#89aabb" d="m75.398 104.805-18.488 6.687-10.95-30.039Zm0 0"/><path fill="#89aabb" d="m56.91 111.492 18.488-6.687-.363 19.586Zm0 0"/><path fill="#89a9ba" d="M77.004 157.258 62.43 139.934l14.96 1.234Zm0 0"/><path fill="#89aabb" d="m62.43 139.934 14.574 17.324-18.11-2.446Zm0 0"/><path fill="#9b3900" d="m62.43 139.934 17.73-6.496-2.77 7.73ZM80.16 133.438l-17.73 6.496 12.605-15.543Zm0 0"/><path fill="#9c3900" d="m80.16 133.438-5.125-9.047 12.488-1.047Zm0 0"/><path fill="#89aabb" d="m98.234 105.242 3.305 18.477-14.016-.375Zm0 0"/><path fill="#9c3900" d="m101.54 123.719-1.571 8.504-12.446-8.88Zm0 0"/><path fill="#89aabb" d="m101.54 123.719-3.306-18.477 17.758 8.89Zm0 0"/><path fill="#9c3900" d="m262.277 185.48-20.449 8.844 18.832-16.465Zm0 0"/><path fill="#9b3800" d="M224.676 225.555 199 225.297l-3.395-7.707ZM293.098 199.445l-27.489 16.29 18.067-27.298Zm0 0"/><path fill="#9d3b03" d="m265.61 215.734 5.476 12.582-7.766-12.347Zm0 0"/><path fill="#4a2d2b" d="m224.11 216.906-5.946-45.066 23.664 22.484ZM224.11 216.906l-28.505.684-7.101-19.285Zm0 0"/><path fill="#4a2d2b" d="m202.61 175.71 21.5 41.196-35.606-18.601Zm0 0"/><path fill="#4a2d2b" d="m224.11 216.906-21.5-41.195 15.554-3.871Zm0 0"/><path fill="#89aabb" d="m252.77 134.375 23.164 13.73-18.887 10.801Zm0 0"/><path fill="#89aabb" d="m267.066 170.691-10.02-11.785 21.872-1.246Zm0 0"/><path fill="#89aabb" d="m257.047 158.906 18.887-10.8 2.984 9.554ZM257.047 158.906l10.02 11.785-6.407 7.168ZM349.563 68.617l-37.184-8.965 36.86-19.28ZM125.191 328.836l30.79 21.351L119.647 384ZM153.316 275.5l18.637 1.988-8.058 33.45Zm0 0"/><path fill="#89aabb" d="m171.953 277.488-18.637-1.988 13.54-17.937ZM44.016 347.34l40.047-5.035L63.418 384ZM96.27 296.375 52.78 275.047l42.258-12.98Zm0 0"/><path fill="#89aabb" d="m96.27 296.375-39.223 18.441-4.266-39.77Zm0 0"/><path fill="#9c3900" d="m351.563 196.984-39.805 20.008 1.808-28.265Zm0 0"/><path fill="#89aabb" d="m187.477 290.934-15.524-13.446 14.512 2.922Zm0 0"/><path fill="#89aabb" d="m171.953 277.488 15.524 13.446-23.582 20.003Zm0 0"/><path fill="#89aabb" d="m189.926 280.227-2.45 10.707-1.011-10.524Zm0 0"/><path fill="#9c3900" d="m171.805 156.258.625.933-18.93 13.192Zm0 0"/><path fill="#4a2d2c" d="m171.805 156.258 22.562-16.574-21.937 17.507Zm0 0"/><path fill="#9b3900" d="m170.086 242.793-14.059-20.602 6.047-1.004Zm0 0"/><path fill="#89aabb" d="m224.676 225.555-2.496 28.632-23.18-28.89Zm0 0"/><path fill="#89aabb" d="m222.18 254.188-27.075-17.977L199 225.297Zm0 0"/><path fill="#89aabb" d="m222.18 254.188-24.024 8.085-3.05-26.062Zm0 0"/><path fill="#89aabb" d="m198.156 262.273 24.024-8.086-6.426 31.688Zm0 0"/><path fill="#89aabb" d="m189.926 280.227 8.23-17.954 17.598 23.602Zm0 0"/><path fill="#9c3900" d="m198.156 262.273-8.23 17.954-3.781-18.497ZM94.969 219.406l6.894-9.562 6.434 8.926Zm0 0"/><path fill="#89aabb" d="m110.168 236.137-15.2-16.73 13.329-.637Zm0 0"/><path fill="#9b3800" d="m95.852 190.668 13.64-12.543 13.95 20.715Zm0 0"/><path fill="#9c3900" d="m109.492 178.125 22.817-1.531-8.868 22.246Zm0 0"/><path fill="#9b3800" d="m142.164 219.93 8.871-21.325 4.992 23.586Zm0 0"/><path fill="#9c3900" d="m151.035 198.605 9.278 19.497-4.286 4.09Zm0 0"/><path fill="#9b3800" d="m120.883 235.363-10.715.774-1.871-17.367Zm0 0"/><path fill="#89aabb" d="m126.793 219.805-5.91 15.558-12.586-16.593Zm0 0"/><path fill="#9b3800" d="m101.863 209.844 21.578-11.004-15.144 19.93ZM123.441 198.84l3.352 20.965-18.496-1.035Zm0 0"/><path fill="#89aabb" d="M119.777 270.047 96.27 296.375l9.16-31.234Zm0 0"/><path fill="#89aabb" d="m105.43 265.14-9.16 31.235-1.23-34.309ZM125.297 261.184l8.613-9.618 1.766 16.012ZM364.566 81.742l-15.003-13.125L384 63.363Zm0 0"/><path fill="#89aabb" d="M364.566 81.742 384 63.363 372.523 91.66Zm0 0"/><path fill="#89aabb" d="m363.316 89.52 1.25-7.778 7.957 9.918Zm0 0"/><path fill="#89aabb" d="m354.41 86.285 10.156-4.543-1.25 7.778ZM364.566 81.742l-10.156 4.543-4.848-17.668Zm0 0"/><path fill="#89aabb" d="m349.563 68.617 4.847 17.668-8.172-1.922Zm0 0"/><path fill="#9b3800" d="m273.629 131.54 18.875-24.966 23.742 5.957Zm0 0"/><path fill="#9b3800" d="m292.504 106.574-18.875 24.965-1.746-22.754ZM256.48 117.254l-1.382-14.137 16.785 5.668ZM256.48 117.254l-11.218-3.406 9.836-10.73ZM256.48 117.254l-3.71 17.121-7.508-20.527Zm0 0"/><path fill="#89aabb" d="m133.836 149.55.484-9.284 8.614 4.867Zm0 0"/><path fill="#89aabb" d="m134.32 140.266-.484 9.285-16.61-4.719Zm0 0"/><path fill="#89aabb" d="m139.46 153.27-5.624-3.72 9.098-4.417Zm0 0"/><path fill="#9b3800" d="m133.836 149.55 5.625 3.72-21.781 7.324Zm0 0"/><path fill="#4a2d2b" d="m134.32 140.266.043-16.364 9.125 14.336Zm0 0"/><path fill="#973802" d="m134.363 123.902 23.364-.843-14.239 15.18Zm0 0"/><path fill="#4a2d2b" d="m157.727 123.059-2.942 20.52-11.297-5.34Zm0 0"/><path fill="#4a2d2b" d="m154.785 143.578 2.942-20.52 10.441 17.739Zm0 0"/><path fill="#89aabb" d="m171.805 156.258-17.02-12.68 13.383-2.781ZM143.488 138.238l11.297 5.34-11.851 1.555ZM200.723 82.367l-37.786-13.062 38.231-19.922Zm0 0"/><path fill="#89aabb" d="m162.938 69.305 37.785 13.062-23.797 14.188ZM162.938 69.305l1.94-36.196 36.29 16.274Zm0 0"/><path fill="#9c3900" d="m157.727 123.059 17.003-4.438.555 9.125Zm0 0"/><path fill="#89aabb" d="m174.73 118.621 2.196-22.066 12.844 7.941Zm0 0"/><path fill="#9a3800" d="m174.73 118.621 10.336-.031-9.78 9.156Zm0 0"/><path fill="#89aabb" d="m185.066 118.59-10.336.031 15.04-14.125ZM189.77 104.496l-12.844-7.941 23.797-14.188ZM201.168 49.383l42.078 23.273-42.523 9.711Zm0 0"/><path fill="#89aabb" d="m243.246 72.656-42.078-23.273 33.734-16.528Zm0 0"/><path fill="#89aabb" d="m243.246 72.656-8.344-39.8 37.657 8.433ZM283.676 188.438l-4.758-30.778 15.98-.058Zm0 0"/><path fill="#9c3900" d="m279.531 183.46-.613-25.8 4.758 30.778Zm0 0"/><path fill="#89aabb" d="m314.621 165.035 18.914-22.656 21.457 26.531Zm0 0"/><path fill="#89a9ba" d="m313.566 188.727 1.055-23.692 40.371 3.875Zm0 0"/><path fill="#9b3800" d="m314.621 165.035-1.055 23.692-13.894-6.75Zm0 0"/><path fill="#9c3900" d="m294.898 157.602 19.723 7.433-14.95 16.942Zm0 0"/><path fill="#9b3900" d="m306.648 146.746 7.973 18.29-19.723-7.434Zm0 0"/><path fill="#89aabb" d="m354.992 168.91-21.457-26.531 26.504-9.828ZM373.156 119.094 384 139.102l-23.96-6.551Zm0 0"/><path fill="#9b3900" d="m345.996 103.906 21.496 6.996-4.043 4.125Zm0 0"/><path fill="#9b3800" d="m377.27 106.61-9.778 4.292 5.031-19.242Zm0 0"/><path fill="#9b3800" d="m367.492 110.902-4.176-21.382 9.207 2.14Zm0 0"/><path fill="#89a9ba" d="m373.156 119.094-5.664-8.192 9.778-4.293ZM367.492 110.902l5.664 8.192-9.707-4.067Zm0 0"/><path fill="#9c3900" d="m85.758 209.188 2.086 7.605-7.52-.848Zm0 0"/><path fill="#89aabb" d="m72.848 189.434 7.53-20.098.696 18.871Zm0 0"/><path fill="#89aaba" d="m85.758 209.188-12.91-19.754 8.226-1.227Zm0 0"/><path fill="#89aabb" d="m227.066 140.371 29.98 18.535-35.812-9.054ZM257.047 158.906l-29.98-18.535 23.269 2.95Zm0 0"/><path fill="#89a9ba" d="m227.066 140.371 25.704-5.996-2.434 8.945Zm0 0"/><path fill="#9b3900" d="m62.43 139.934-4.594-15.493 17.2-.05Zm0 0"/><path fill="#89aabb" d="m56.91 111.492.926 12.95-10.512-2.376Zm0 0"/><path fill="#89aaba" d="m57.836 124.441-.926-12.949 18.125 12.899Zm0 0"/><path fill="#f6c5b4" d="m57.836 124.441-9.992 11.121-.52-13.496Zm0 0"/><path fill="#89a9ba" d="m47.844 135.563 14.586 4.37-18.168 10.82Zm0 0"/><path fill="#89aabb" d="m62.43 139.934-3.535 14.879-14.633-4.06Zm0 0"/><path fill="#9c3900" d="m57.836 124.441 4.594 15.493-14.586-4.371Zm0 0"/><path fill="#4a2d2b" d="m117.25 125.277 17.07 14.989-17.093 4.566Zm0 0"/><path fill="#87350b" d="m99.969 132.223 17.281-6.946-.023 19.555Zm0 0"/><path fill="#9b3800" d="m101.54 123.719 15.71 1.558-17.281 6.946Zm0 0"/><path fill="#89a9ba" d="m117.25 125.277-15.71-1.558 14.452-9.586Zm0 0"/><path fill="#89aabb" d="m134.363 123.902-17.113 1.375-1.258-11.144Zm0 0"/><path fill="#4b2d2b" d="m117.25 125.277 17.113-1.375-.043 16.364Zm0 0"/><path fill="#dc7a50" d="m82.797 156.36 14.687 7.476-17.105 5.5Zm0 0"/><path fill="#9b3800" d="m82.797 156.36-5.793.898.387-16.09Zm0 0"/><path fill="#4e2d29" d="m77.004 157.258 5.793-.899-2.418 12.977Zm0 0"/><path fill="#9b3800" d="m262.277 185.48 1.043 30.489-21.492-21.645Zm0 0"/><path fill="#89aabb" d="m263.32 215.969-1.043-30.489 3.332 30.254Zm0 0"/><path fill="#9b3900" d="m265.61 215.734-3.333-30.254 21.399 2.958Zm0 0"/><path fill="#89aabb" d="m279.531 183.46-17.254 2.02-1.617-7.62Zm0 0"/><path fill="#9b3901" d="m262.277 185.48 17.254-2.02 4.145 4.977Zm0 0"/><path fill="#89aabb" d="m288.094 212.648-17.008 15.668-5.477-12.582Zm0 0"/><path fill="#4a2d2b" d="m293.098 199.445-5.004 13.203-22.485 3.086Zm0 0"/><path fill="#89aabb" d="m222.18 254.188 29.957 24.558-36.383 7.129ZM215.754 285.875l36.383-7.129-18.219 28.332Zm0 0"/><path fill="#9b3800" d="m224.11 216.906.566 8.649-29.07-7.965Zm0 0"/><path fill="#89aabb" d="m273.629 131.54 2.305 16.565-23.164-13.73Zm0 0"/><path fill="#4a2d2b" d="m273.629 131.54-17.149-14.286 15.403-8.469Zm0 0"/><path fill="#4a2d2b" d="m256.48 117.254 17.149 14.285-20.86 2.836Zm0 0"/><path fill="#9c3900" d="m257.047 158.906 3.613 18.953-6.707-1.261Zm0 0"/><path fill="#89aabb" d="m278.484 80.684 33.895-21.032-20.277 34.836ZM312.379 59.652l2.453 30.957-22.73 3.88Zm0 0"/><path fill="#89aaba" d="m346.238 84.363-.648 4.91-8.79-4.164Zm0 0"/><path fill="#89aabb" d="m349.563 68.617-3.325 15.746-9.437.746Zm0 0"/><path fill="#9c3900" d="m336.258 95.113 9.332-5.84.406 14.633Zm0 0"/><path fill="#9b3900" d="m345.59 89.273-9.332 5.84.543-10.004Zm0 0"/><path fill="#9c3900" d="m314.832 90.61 21.426 4.503-20.012 17.418Zm0 0"/><path fill="#9c3900" d="m336.258 95.113 9.738 8.793-29.75 8.625Zm0 0"/><path fill="#89aabb" d="m125.191 328.836 38.704-17.899-7.915 39.25Zm0 0"/><path fill="#9c3900" d="m178.594 264.785-6.64 12.703-5.099-19.925Zm0 0"/><path fill="#9c3900" d="m174.23 247.926 4.364 16.86-11.739-7.224ZM178.594 264.785l-4.364-16.86 11.915 13.805Zm0 0"/><path fill="#9c3900" d="m178.594 264.785 7.55-3.055.32 18.68Zm0 0"/><path fill="#9b3900" d="m171.953 277.488 6.64-12.703 7.872 15.625Zm0 0"/><path fill="#89aabb" d="m57.047 314.816 39.223-18.441-12.207 45.93Zm0 0"/><path fill="#9c3900" d="m110.168 236.137 6.062 11.773-14.609 2.914ZM116.23 247.91l4.653-12.547 13.027 16.203Zm0 0"/><path fill="#9b3800" d="m120.883 235.363-4.653 12.547-6.062-11.773Zm0 0"/><path fill="#9c3900" d="m116.23 247.91 12.915 8.977-3.848 4.297Zm0 0"/><path fill="#89aabb" d="m129.145 256.887 4.765-5.32-8.613 9.617Zm0 0"/><path fill="#9c3900" d="m129.145 256.887-12.915-8.977 17.68 3.656ZM105.914 259.777l10.316-11.867 9.067 13.274ZM105.914 259.777l13.863 10.27-14.347-4.906Zm0 0"/><path fill="#9c3900" d="m119.777 270.047-13.863-10.27 19.383 1.407Zm0 0"/><path fill="#89aabb" d="m374.219 229.926-22.656-32.942 13.609-3.957ZM324.902 260.008l49.317-30.082 1.566.687ZM320.031 233l4.871 27.008-29.566-12.906Zm0 0"/><path fill="#89aabb" d="M324.902 260.008 320.032 233l54.187-3.074ZM192.602 346.8l11.554-32.359 27.621 22.77Zm0 0"/><path fill="#89aabb" d="m227.898 384-35.296-37.2 39.175-9.59ZM187.477 290.934l2.449-10.707 25.828 5.648Zm0 0"/><path fill="#89aabb" d="m163.895 310.938 23.582-20.004 16.68 23.507Zm0 0"/><path fill="#89aabb" d="m233.918 307.078-29.762 7.363 11.598-28.566ZM204.156 314.441l-16.68-23.507 28.278-5.059ZM153.316 275.5l-5.066-20.117 18.605 2.18Zm0 0"/><path fill="#89aabb" d="m148.25 255.383 5.066 20.117-17.64-7.922Zm0 0"/><path fill="#89aabb" d="m133.91 251.566 14.34 3.817-12.574 12.195Zm0 0"/><path fill="#89a9ba" d="m170.086 242.793 4.144 5.133-7.375 9.637Zm0 0"/><path fill="#89aabb" d="m170.086 242.793 20.059-1.398-15.915 6.53Zm0 0"/><path fill="#9c3900" d="m174.23 247.926 15.915-6.531-4 20.335Zm0 0"/><path fill="#89aabb" d="m198.156 262.273-8.011-20.878 4.96-5.184Zm0 0"/><path fill="#9c3900" d="m190.145 241.395 8.011 20.878-12.011-.543Zm0 0"/><path fill="#89aabb" d="m187.96 221.797 11.04 3.5-3.895 10.914Zm0 0"/><path fill="#9c3900" d="m188.504 198.305-.543 23.492-25.887-.61Zm0 0"/><path fill="#9b3800" d="m187.96 221.797.544-23.492 7.101 19.285Zm0 0"/><path fill="#9c3900" d="m199 225.297-11.04-3.5 7.645-4.207Zm0 0"/><path fill="#89aabb" d="m94.648 239.395 15.52-3.258-8.547 14.687ZM94.648 239.395l.32-19.989 15.2 16.73Zm0 0"/><path fill="#89aabb" d="m94.969 219.406-.32 19.989-17.669-3.32Zm0 0"/><path fill="#89aabb" d="m94.648 239.395-6.328 11.253-11.34-14.574ZM94.648 239.395l6.973 11.43-13.3-.177Zm0 0"/><path fill="#9c3900" d="m92.926 178.824 16.566-.699-13.64 12.543Zm0 0"/><path fill="#9c3900" d="m109.492 178.125-16.566.7 4.558-14.99Zm0 0"/><path fill="#9b3800" d="m92.926 178.824 2.926 11.844-14.778-2.461Zm0 0"/><path fill="#9b3900" d="m80.379 169.336 12.547 9.488-11.852 9.383Zm0 0"/><path fill="#9c3900" d="m97.484 163.836-4.558 14.988-12.547-9.488ZM109.492 178.125l8.188-17.531 14.629 16Zm0 0"/><path fill="#9b3800" d="m117.68 160.594 21.78-7.324-7.151 23.324Zm0 0"/><path fill="#89aabb" d="m133.91 251.566 7.828-13.425 6.512 17.242ZM153.316 275.5l-20.66 14.945 3.02-22.867ZM132.656 290.445l-12.879-20.398 15.899-2.469ZM132.656 290.445l-36.386 5.93 23.507-26.328Zm0 0"/><path fill="#89aabb" d="m96.27 296.375 36.386-5.93-7.465 38.39ZM132.656 290.445l20.66-14.945 10.579 35.438Zm0 0"/><path fill="#89aabb" d="m132.656 290.445 31.239 20.493-38.704 17.898ZM349.563 68.617l-.325-28.246L384 63.363Zm0 0"/><path fill="#89a9ba" d="m354.41 86.285-8.82 2.988.648-4.91Zm0 0"/><path fill="#9b3800" d="m273.629 131.54 7.39 10.87-5.085 5.695Zm0 0"/><path fill="#89aabb" d="m281.02 142.41 25.628 4.336-11.75 10.856ZM333.535 142.379l7.121-22.656 6.395 6.105ZM333.535 142.379l-18.914 22.656-7.973-18.289ZM134.363 123.902l21.164-20.609 2.2 19.766Zm0 0"/><path fill="#89aabb" d="m155.527 103.293 19.203 15.328-17.003 4.438ZM176.926 96.555l-21.399 6.738 7.41-33.988Zm0 0"/><path fill="#89aabb" d="m174.73 118.621-19.203-15.328 21.399-6.738Zm0 0"/><path fill="#4a2d2b" d="m185.066 118.59 3.438 17.652-13.219-8.496Zm0 0"/><path fill="#4a2d2b" d="m188.504 136.242-20.336 4.555 7.117-13.05Zm0 0"/><path fill="#89aabb" d="m188.504 136.242-16.7 20.016-3.636-15.461Zm0 0"/><path fill="#4a2d2b" d="m188.504 136.242-3.438-17.652 11.75 11.945ZM188.504 136.242l8.312-5.707-2.449 9.149Zm0 0"/><path fill="#89aabb" d="m171.805 156.258 16.699-20.016 5.863 3.442Zm0 0"/><path fill="#89a9ba" d="m197.91 115.617-8.14-11.12 20.8 6.468Zm0 0"/><path fill="#89aabb" d="m197.91 115.617-12.844 2.973 4.704-14.094Zm0 0"/><path fill="#9b3800" d="m185.066 118.59 12.844-2.973-1.094 14.918Zm0 0"/><path fill="#9c3900" d="m150.54 152.332 21.265 3.926-18.305 14.125Zm0 0"/><path fill="#89aabb" d="m150.54 152.332 4.245-8.754 17.02 12.68ZM154.785 143.578l-4.246 8.754-7.605-7.2Zm0 0"/><path fill="#9b3800" d="m139.46 153.27 11.08-.938 2.96 18.05Zm0 0"/><path fill="#89aabb" d="m150.54 152.332-11.08.938 3.474-8.137ZM278.918 157.66l-2.984-9.555 18.964 9.497Zm0 0"/><path fill="#89aabb" d="m275.934 148.105 5.086-5.695 13.878 15.192ZM373.156 119.094 360.04 132.55l3.41-17.524ZM351.016 119.21l9.023 13.34-12.988-6.722Zm0 0"/><path fill="#89aabb" d="m360.04 132.55-9.024-13.34 12.433-4.183Zm0 0"/><path fill="#f6c4b3" d="m61.21 205.473 24.548 3.714-5.434 6.758Zm0 0"/><path fill="#9c3900" d="m58.016 214.125 3.195-8.652 19.113 10.472Zm0 0"/><path fill="#89aabb" d="m61.21 205.473 11.638-16.04 12.91 19.755Zm0 0"/><path fill="#f6c5b4" d="m61.21 205.473-3.194 8.652-29.711-6.238Zm0 0"/><path fill="#89aabb" d="m51.816 176.043 25.188-18.785 3.375 12.078ZM72.848 189.434l-21.032-13.391 28.563-6.707Zm0 0"/><path fill="#89a9ba" d="m77.004 157.258-25.188 18.785 7.079-21.23ZM51.816 176.043l21.032 13.39-11.637 16.04Zm0 0"/><path fill="#89aabb" d="m202.016 161.89 19.218-12.038-3.168 17.343Zm0 0"/><path fill="#89aabb" d="m221.234 149.852-19.218 12.039 8.09-24.801Zm0 0"/><path fill="#89aabb" d="m225.922 139.055-4.688 10.797-11.129-12.762ZM221.234 149.852l4.688-10.797 1.144 1.316Zm0 0"/><path fill="#4a2d2b" d="m227.066 140.371-1.144-1.316 26.848-4.68ZM225.922 139.055l-11.363-14.368 30.703-10.84Zm0 0"/><path fill="#4a2d2b" d="m252.77 134.375-26.848 4.68 19.34-25.207Zm0 0"/><path fill="#9b3800" d="m133.836 149.55-16.156 11.044-.453-15.762Zm0 0"/><path fill="#89aabb" d="m289.133 229.57 12.222-2.355-6.02 19.887Zm0 0"/><path fill="#9b3800" d="m301.355 227.215-12.222 2.355-1.04-16.922ZM224.11 216.906l39.21-.937-38.644 9.586Zm0 0"/><path fill="#4a2d2b" d="m263.32 215.969-39.21.937 17.718-22.582Zm0 0"/><path fill="#89aabb" d="M336.8 85.11 312.38 59.651l37.183 8.965ZM312.379 59.652 336.8 85.11l-21.969 5.5Zm0 0"/><path fill="#9c3900" d="m336.8 85.11-.542 10.003-21.426-4.504ZM105.914 259.777l-4.293-8.953 14.61-2.914Zm0 0"/><path fill="#89aabb" d="m321.535 384 15.797-33.344L384 384Zm0 0"/><path fill="#89aabb" d="M337.332 350.656 384 315.512V384ZM339.41 282.977l-18.894 34.71-23.922-35.097ZM320.516 317.688l16.816 32.968-38.148.914ZM375.785 230.613l-1.566-.687-9.047-36.899Zm0 0"/><path fill="#89aabb" d="m384 184.691-8.215 45.922-10.613-37.586ZM375.785 230.613 384 184.691v49.723ZM339.41 282.977 384 234.414v81.098Zm0 0"/><path fill="#89aabb" d="M339.41 282.977 384 315.512l-63.484 2.175ZM305.79 206.504l-4.435 20.71-13.261-14.566Zm0 0"/><path fill="#9b3800" d="m305.79 206.504-12.692-7.059 20.468-10.718Zm0 0"/><path fill="#89aabb" d="m311.758 216.992-5.969-10.488 7.777-17.777Zm0 0"/><path fill="#4c2d2a" d="m293.098 199.445 12.691 7.059-17.695 6.144Zm0 0"/><path fill="#89aabb" d="m296.594 282.59-1.258-35.488 29.566 12.906Zm0 0"/><path fill="#9b3800" d="m320.031 233-18.676-5.785 10.403-10.223Zm0 0"/><path fill="#89aabb" d="m301.355 227.215 4.434-20.711 5.969 10.488ZM301.355 227.215 320.031 233l-24.695 14.102Zm0 0"/><path fill="#89aabb" d="m341.637 219.707-29.88-2.715 39.805-20.008Zm0 0"/><path fill="#9b3900" d="M341.637 219.707 320.03 233l-8.273-16.008Zm0 0"/><path fill="#89aabb" d="m374.219 229.926-32.582-10.219 9.926-22.723Zm0 0"/><path fill="#9b3800" d="m320.031 233 21.606-13.293 32.582 10.219Zm0 0"/><path fill="#89aaba" d="m174.348 384 18.254-37.2 35.296 37.2Zm0 0"/><path fill="#89aabb" d="m263.156 354.957-31.379-17.746 40.016-18.563ZM271.793 318.648l27.39 32.922-36.027 3.387Zm0 0"/><path fill="#89aabb" d="M299.184 351.57 279.289 384l-16.133-29.043ZM263.156 354.957 227.898 384l3.88-46.79Zm0 0"/><path fill="#89aabb" d="M279.29 384h-51.392l35.258-29.043ZM163.895 310.938l28.707 35.863-36.622 3.387ZM192.602 346.8l-28.707-35.863 40.261 3.504ZM204.156 314.441l29.762-7.363-2.14 30.133ZM157.395 243.215l-8.34-12.547 6.972-8.477Zm0 0"/><path fill="#89aabb" d="m170.086 242.793-12.691.422-1.368-21.024ZM149.055 230.668l8.34 12.547-15.657-5.074Zm0 0"/><path fill="#89aabb" d="m157.395 243.215 12.69-.422-3.23 14.77Zm0 0"/><path fill="#89aabb" d="m148.25 255.383 9.145-12.168 9.46 14.347Zm0 0"/><path fill="#89aabb" d="m157.395 243.215-9.145 12.168-6.512-17.242ZM190.145 241.395l-7.36-9.477 12.32 4.293Zm0 0"/><path fill="#89aabb" d="m182.785 231.918 7.36 9.477-20.06 1.398Zm0 0"/><path fill="#89aabb" d="m182.785 231.918-12.7 10.875-8.01-21.606Zm0 0"/><path fill="#89aabb" d="m187.96 221.797-5.175 10.121-20.71-10.73ZM182.785 231.918l5.176-10.121 7.144 14.414ZM120.883 235.363l6.004-.468 7.023 16.671Zm0 0"/><path fill="#89aabb" d="m126.887 234.895 14.851 3.246-7.828 13.425ZM126.887 234.895l-.094-15.09 7.773 8.968Zm0 0"/><path fill="#9b3900" d="m126.793 219.805.094 15.09-6.004.468Zm0 0"/><path fill="#89aabb" d="m149.055 230.668-7.285-8.344 14.257-.133Zm0 0"/><path fill="#89a9ba" d="m141.77 222.324.394-2.394 13.863 2.261Zm0 0"/><path fill="#9b3900" d="m142.164 219.93-.394 2.394-14.977-2.52Zm0 0"/><path fill="#89aabb" d="m141.77 222.324-7.204 6.45-7.773-8.97Zm0 0"/><path fill="#89aabb" d="m141.738 238.14-14.851-3.245 7.68-6.122Zm0 0"/><path fill="#89aabb" d="m141.77 222.324-.032 15.817-7.172-9.368Zm0 0"/><path fill="#89aabb" d="m141.738 238.14.032-15.816 7.285 8.344Zm0 0"/><path fill="#9b3800" d="m354.422 95.098 13.07 15.804-21.496-6.996Zm0 0"/><path fill="#9c3900" d="m345.59 89.273 8.832 5.825-8.426 8.808ZM367.492 110.902l-13.07-15.804 8.894-5.578Zm0 0"/><path fill="#9b3800" d="m354.422 95.098-.012-8.813 8.906 3.235Zm0 0"/><path fill="#9c3900" d="m354.422 95.098-8.832-5.825 8.82-2.988Zm0 0"/><path fill="#89aabb" d="m281.02 142.41 34.605-18.383-8.977 22.72Zm0 0"/><path fill="#89aabb" d="M315.625 124.027 281.02 142.41l-7.391-10.87ZM315.625 124.027l17.91 18.352-26.887 4.367ZM333.535 142.379l-17.91-18.352 25.031-4.304Zm0 0"/><path fill="#9b3800" d="m340.656 119.723-25.031 4.304.621-11.496Zm0 0"/><path fill="#9b3800" d="m315.625 124.027-41.996 7.512 42.617-19.008ZM214.559 124.688l-16.649-9.07 12.66-4.653Zm0 0"/><path fill="#9b3800" d="m197.91 115.617 16.649 9.07-17.743 5.848Zm0 0"/><path fill="#4a2d2b" d="m196.816 130.535 17.743-5.847-4.454 12.402ZM214.559 124.688l11.363 14.367-15.817-1.965Zm0 0"/><path fill="#9c3900" d="M117.68 160.594 94.37 142.82l22.856 2.012Zm0 0"/><path fill="#4a2d2b" d="m94.371 142.82 5.598-10.597 17.258 12.609Zm0 0"/><path fill="#9b3800" d="M99.969 132.223 94.37 142.82l-14.21-9.382Zm0 0"/><path fill="#9c3900" d="m97.484 163.836-3.113-21.016 23.309 17.774Zm0 0"/><path fill="#89aabb" d="m222.18 254.188 31.36-8.067-1.403 32.625Zm0 0"/><path fill="#89aabb" d="m253.54 246.121-31.36 8.066 2.496-28.632ZM271.086 228.316l18.047 1.254 6.203 17.532Zm0 0"/><path fill="#9b3800" d="m289.133 229.57-18.047-1.254 17.008-15.668Zm0 0"/><path fill="#9b3800" d="m271.086 228.316-12.215-1.882 4.45-10.465Zm0 0"/><path fill="#89aabb" d="m253.54 246.121 5.331-19.687 12.215 1.882Zm0 0"/><path fill="#9b3800" d="m263.32 215.969-4.449 10.465-34.195-.88Zm0 0"/><path fill="#89aabb" d="m258.871 226.434-5.332 19.687-28.863-20.566ZM101.621 250.824l-6.582 11.242-6.719-11.418Zm0 0"/><path fill="#89aabb" d="m95.04 262.066-42.259 12.98 35.54-24.398ZM95.04 262.066l6.581-11.242 4.293 8.953Zm0 0"/><path fill="#89aabb" d="m95.04 262.066 10.874-2.289-.484 5.364ZM279.29 384l19.894-32.43L321.535 384Zm0 0"/><path fill="#89aabb" d="m299.184 351.57 38.148-.914L321.535 384ZM320.516 317.688 384 315.512l-46.668 35.144ZM324.902 260.008l14.508 22.969-42.816-.387ZM320.516 317.688l-48.723.96 24.8-36.058Zm0 0"/><path fill="#89aabb" d="m271.793 318.648 48.723-.96-21.332 33.882ZM271.793 318.648l-37.875-11.57 18.219-28.332ZM375.785 230.613l8.215 3.801-44.59 48.563Zm0 0"/><path fill="#89aabb" d="m233.918 307.078 37.875 11.57-40.016 18.563ZM126.148 89.246l8.215 34.656-18.37-9.77Zm0 0"/><path fill="#89aabb" d="m126.148 89.246 29.38 14.047-21.165 20.61Zm0 0"/><path fill="#89aabb" d="m126.148 89.246 36.79-19.941-7.41 33.988ZM126.148 89.246 88.035 77.453l30.477-33.394Zm0 0"/><path fill="#89aabb" d="m162.938 69.305-36.79 19.941-7.636-45.187Zm0 0"/><path fill="#9c3900" d="m97.484 163.836 20.196-3.242-8.188 17.531Zm0 0"/><path fill="#de7b52" d="m94.371 142.82 3.113 21.016-14.687-7.477Zm0 0"/><path fill="#dc7c53" d="m94.371 142.82-11.574 13.54-5.406-15.192Zm0 0"/><path fill="#9c3900" d="m80.16 133.438 14.211 9.382-16.98-1.652Zm0 0"/><path fill="#89aabb" d="m271.086 228.316 2.566 27.141-20.113-9.336ZM273.652 255.457l-21.515 23.29 1.402-32.626ZM375.785 230.613l-36.375 52.364-14.508-22.97ZM296.594 282.59l-22.942-27.133 21.684-8.355Zm0 0"/><path fill="#89aabb" d="m273.652 255.457-2.566-27.14 24.25 18.785ZM273.652 255.457l22.942 27.133-44.457-3.844ZM296.594 282.59l-24.801 36.058-19.656-39.902Zm0 0"/></svg>