<svg xmlns="http://www.w3.org/2000/svg" width="512" height="512" viewBox="0 0 384 384"><path fill="#b8bcc5" d="m384 173.27-22.203 31.085-2.383-31.27ZM0 229.168l26.941-18.398 3.754 38.41Zm0 0"/><path fill="#b8bcc5" d="m384.004 224.14-22.207-19.785L384 173.27ZM0 229.168v-64.012l26.941 45.614ZM26.941 210.77l35.422 28.105-31.668 10.305ZM282.82 76.656l16.91 15.696-11.257 3.007ZM282.82 76.656l-23.644 9.332-3.25-28.156ZM361.797 204.355l-10.738-11.109 8.355-20.16ZM32.21 133.324l7.22 10.09L0 165.156Zm0 0"/><path fill="#b8bcc5" d="m17.617 127.668 14.594 5.656L0 165.156ZM0 165.156l46.457 8.914-19.516 36.7Zm0 0"/><path fill="#b8bcc5" d="m39.43 143.414 7.027 30.656L0 165.156ZM188.418 33.328l-40.953 6.176L170.675 0ZM0 0l39.098 59.402L0 74.652Zm0 0"/><path fill="#b8bcc5" d="M63.203 0 39.098 59.402 0 0Zm0 0"/><path fill="#82031f" d="m250.512 185.172-20.977-14.77 29.84 8.72Zm0 0"/><path fill="#b8bcc5" d="m229.535 170.402 1.781-7.226 28.059 15.945Zm0 0"/><path fill="#b8bcc5" d="m231.316 163.176-1.78 7.226-26.72-6.246ZM140.855 341.734l-46.039-20.101 39.641-23.008ZM50.43 340.043 50.168 384H0ZM0 295.93l58.156-13.61-7.726 57.723Zm0 0"/><path fill="#b8bcc5" d="M58.156 282.32 0 295.93l30.695-46.75ZM58.156 282.32l-27.46-33.14 31.667-10.305Zm0 0"/><path fill="#b8bcc5" d="m0 229.168 30.695 20.012L0 295.93Zm0 0"/><path fill="#81021f" d="m196.844 160.035-8.223 16.496-10.016-16.117Zm0 0"/><path fill="#80011f" d="m188.621 176.531-30.332 2.73 20.316-18.847Zm0 0"/><path fill="#80001f" d="m159.621 225.344 20.848-24.156-5.7 23.171ZM180.469 201.188l8.152-24.657 22.828 16.246Zm0 0"/><path fill="#80011f" d="m205.465 215.563-24.996-14.375 30.98-8.41Zm0 0"/><path fill="#80001f" d="m180.469 201.188-22.18-21.926 30.332-2.73Zm0 0"/><path fill="#b8bcc5" d="m274.984 97.496 7.836-20.84 5.653 18.703Zm0 0"/><path fill="#b8bcc5" d="m282.82 76.656-7.836 20.84-15.808-11.508Zm0 0"/><path fill="#80001f" d="m278.617 113.863-3.633-16.367 13.489-2.137Zm0 0"/><path fill="#b8bcc5" d="m260.965 102.336-14.645 1.281 12.856-17.629Zm0 0"/><path fill="#b8bcc5" d="m274.984 97.496-14.02 4.84-1.788-16.348Zm0 0"/><path fill="#80011f" d="m260.965 102.336 14.02-4.84 3.632 16.367Zm0 0"/><path fill="#b8bcc5" d="m259.176 85.988-22.32-6.093 19.07-22.063ZM246.32 103.617l-9.465-23.722 22.32 6.093ZM236.855 79.895l-18.687-24.786 37.758 2.723Zm0 0"/><path fill="#b8bcc5" d="m218.168 55.11 18.687 24.785-25.273 3.828ZM178.57 68.82l39.598-13.71-6.586 28.613ZM290.375 42.816l-34.45 15.016L240.802 0Zm0 0"/><path fill="#b8bcc5" d="m255.926 57.832-37.758-2.723L240.801 0ZM312.508 0l-22.133 42.816L240.801 0Zm0 0"/><path fill="#84071e" d="m297.96 185.172-3.288 15.32-14.715-7.445Zm0 0"/><path fill="#84081e" d="m314.934 192.047-20.262 8.445 3.289-15.32Zm0 0"/><path fill="#b8bcc5" d="m384 61.758.004 60.664-2.383-18.926ZM351.059 193.246l-18.817-3.664 1.434-13.863Zm0 0"/><path fill="#80001f" d="m331.86 197.348.382-7.766 18.817 3.664ZM332.242 189.582l-.383 7.766-16.925-5.301Zm0 0"/><path fill="#b7bbc4" d="m332.242 189.582-17.308 2.465 18.742-16.328Zm0 0"/><path fill="#b8bbc4" d="M0 165.156v-51.12l17.617 13.632Zm0 0"/><path fill="#80001f" d="m36.805 122.723-4.594 10.601-14.594-5.656Zm0 0"/><path fill="#b8bcc5" d="m90.512 58.11-36.324 43.644-15.09-42.352Zm0 0"/><path fill="#b7bbc4" d="m46.457 174.07 5.41 32.344-24.926 4.356Zm0 0"/><path fill="#b8bcc5" d="M188.418 33.328 170.676 0H240.8ZM218.168 55.11l-29.75-21.782L240.801 0ZM147.465 39.504 118.742 0h51.934Zm0 0"/><path fill="#b8bcc5" d="m118.742 0 28.723 39.504-56.953 18.605Zm0 0"/><path fill="#b8bcc5" d="M90.512 58.11 63.203 0h55.54Zm0 0"/><path fill="#b8bcc5" d="m63.203 0 27.309 58.11-51.414 1.292Zm0 0"/><path fill="#b7bbc4" d="m194.988 135.57 1.856 24.465-18.239.38Zm0 0"/><path fill="#9f3418" d="m246.32 103.617 2.22 12.281-29.852-5.73Zm0 0"/><path fill="#b8bcc5" d="m76.836 106.438 13.676-48.329 15.367 45.348Zm0 0"/><path fill="#fed600" d="m74.238 123.61 2.598-17.172 12.023 17.539Zm0 0"/><path fill="#b8bcc5" d="m76.836 106.438-22.648-4.684 36.324-43.645Zm0 0"/><path fill="#80001f" d="m99.719 139.637-3.582 9.61-7.278-25.27Zm0 0"/><path fill="#83051f" d="m241.031 196.863-11.496-26.46 20.977 14.769Zm0 0"/><path fill="#80001f" d="m229.535 170.402-18.086 22.375-8.633-28.62Zm0 0"/><path fill="#81011f" d="m241.031 196.863-29.582-4.086 18.086-22.375Zm0 0"/><path fill="#b8bcc5" d="m231.316 163.176 22.223-9.637 5.836 25.582Zm0 0"/><path fill="#b8bcc4" d="m259.656 153.273-6.117.266.266-2.14Zm0 0"/><path fill="#b7bbc4" d="m272.14 169.29 8.356 16.023-21.121-6.192Zm0 0"/><path fill="#b8bbc3" d="m280.496 185.313-8.355-16.024 6.507-4.254Zm0 0"/><path fill="#b8bcc3" d="m257.992 135.238 1.664 18.035-5.851-1.875Zm0 0"/><path fill="#b8bcc5" d="m98.586 384 42.27-42.266L159.19 384ZM50.43 340.043 98.586 384H50.168ZM0 295.93l50.43 44.113L0 384ZM83.715 250.438 58.156 282.32l4.207-43.445Zm0 0"/><path fill="#b8bcc5" d="m83.715 250.438-21.352-11.563 23.903-8.11Zm0 0"/><path fill="#80001f" d="m188.621 176.531 14.195-12.375 8.633 28.621Zm0 0"/><path fill="#80001f" d="m196.844 160.035 5.972 4.121-14.195 12.375Zm0 0"/><path fill="#81031f" d="m161.41 230.18-1.789-4.836 15.149-.985Zm0 0"/><path fill="#80001f" d="m183.773 264.246 3.95 17.734-13.246-4.367Zm0 0"/><path fill="#81021f" d="m104.113 217.879-14.332.035 6.719-6.504Zm0 0"/><path fill="#83061f" d="m89.781 217.914-.113-9.965 6.832 3.461Zm0 0"/><path fill="#b8bbc4" d="m89.781 217.914 14.332-.035-17.847 12.887Zm0 0"/><path fill="#fdd401" d="m101.57 205.441-5.289-11.906 8.953 1.668Zm0 0"/><path fill="#fed600" d="M112.664 218.133 101.57 205.44l3.664-10.238Zm0 0"/><path fill="#b8bcc1" d="m89.668 207.95 11.902-2.509-5.07 5.97Zm0 0"/><path fill="#b8bcc4" d="m101.57 205.441-11.902 2.508 6.613-14.414Zm0 0"/><path fill="#84081e" d="m101.57 205.441 2.543 12.438-7.613-6.469Zm0 0"/><path fill="#fed500" d="m104.113 217.879-2.543-12.438 11.094 12.692Zm0 0"/><path fill="#b55b12" d="m124.035 191.84-11.37 26.293-7.43-22.93Zm0 0"/><path fill="#81031f" d="m124.035 191.84 7.242 20.594-18.613 5.699Zm0 0"/><path fill="#80001f" d="m131.277 212.434-7.242-20.594 25.41 13.203ZM158.29 179.262l-34.255 12.578 11.477-22.418Zm0 0"/><path fill="#80001f" d="m124.035 191.84 34.254-12.578-8.844 25.781Zm0 0"/><path fill="#b7bbc4" d="m120.43 270.637 7.078-12.133 5.129-2.934Zm0 0"/><path fill="#b8bcc5" d="M334.031 45.992 312.508 0H384ZM334.031 45.992 384 0v61.758Zm0 0"/><path fill="#b7bbc4" d="M290.375 42.816 312.508 0l21.523 45.992Zm0 0"/><path fill="#80001f" d="m301.227 105.035 12.382-14.07 5.368 17.265ZM301.227 105.035l-22.61 8.828 9.856-18.504Zm0 0"/><path fill="#80001f" d="m299.73 92.352 1.497 12.683-12.754-9.676Zm0 0"/><path fill="#80001f" d="m313.61 90.965-12.383 14.07-1.497-12.683Zm0 0"/><path fill="#b8bcc5" d="m290.375 42.816-7.555 33.84-26.894-18.824Zm0 0"/><path fill="#9a2c19" d="m260.965 102.336-12.426 13.562-2.219-12.28Zm0 0"/><path fill="#b7bbc4" d="m117.777 144.031 23.13-3.785 1.706 10.941Zm0 0"/><path fill="#80001f" d="m194.988 135.57 4.82-6.77 7.63 8.454ZM169.39 141.316l-7.808-19.187 18.73 3.187Zm0 0"/><path fill="#b8bcc5" d="M188.418 33.328 178.57 68.82l-31.105-29.316ZM236.855 79.895l-8.351 14.101-16.922-10.273Zm0 0"/><path fill="#b8bcc5" d="m211.582 83.723 16.922 10.273-9.816 16.172Zm0 0"/><path fill="#b8bcc5" d="m228.504 93.996 17.816 9.621-27.632 6.551Zm0 0"/><path fill="#b8bcc5" d="m228.504 93.996 8.351-14.101 9.465 23.722ZM188.79 99.113 178.57 68.82l33.012 14.903ZM188.79 99.113l22.792-15.39 7.106 26.445Zm0 0"/><path fill="#b8bcc5" d="m192.43 111.7-3.64-12.587 29.898 11.055Zm0 0"/><path fill="#a23917" d="m280.496 185.313 17.465-.141-18.004 7.875Zm0 0"/><path fill="#880e1d" d="m280.496 185.313 9.777-20.434 7.688 20.293Zm0 0"/><path fill="#80001f" d="m337.117 105.008-9.64 17.722-8.5-14.5Zm0 0"/><path fill="#b8bcc5" d="m361.39 140.91-23.187 13.66.867-19.03ZM384 173.27l-24.586-.184 1.977-32.176ZM327.477 122.73l23.214-4.804-11.62 17.613Zm0 0"/><path fill="#80001f" d="m350.691 117.926-23.214 4.804 9.64-17.722ZM354.516 100.227l-3.825 17.699-13.574-12.918Zm0 0"/><path fill="#80001f" d="m350.691 117.926 3.825-17.7 13.418 16.196Zm0 0"/><path fill="#b7bbc4" d="m0 114.035 20.188 2.977-2.57 10.656Zm0 0"/><path fill="#b7bbc4" d="m20.188 117.012 16.617 5.71-19.188 4.946ZM25.586 98.469l-5.398 18.543L0 114.035ZM32.21 133.324l11.267.52-4.047 9.57Zm0 0"/><path fill="#81021f" d="m36.805 122.723 6.672 11.12-11.266-.519Zm0 0"/><path fill="#b8bcc5" d="M0 114.035V74.652L25.586 98.47Zm0 0"/><path fill="#b8bcc5" d="M39.098 59.402 25.586 98.47 0 74.652Zm0 0"/><path fill="#b8bcc5" d="m54.188 101.754-28.602-3.285 13.512-39.067Zm0 0"/><path fill="#80001f" d="m51.867 206.414 20.012 9.73-44.938-5.374Zm0 0"/><path fill="#b8bbc4" d="m71.879 216.145-9.516 22.73-35.422-28.105Zm0 0"/><path fill="#b8bcc5" d="m62.363 238.875 9.516-22.73 14.387 14.62Zm0 0"/><path fill="#b7bbc4" d="m71.879 216.145 17.902 1.77-3.515 12.85ZM69.04 189.766l-17.173 16.648-5.41-32.344Zm0 0"/><path fill="#b8bcc5" d="m188.418 33.328 29.75 21.781L178.57 68.82ZM199.809 158.105l-4.82-22.535 12.448 1.684Zm0 0"/><path fill="#85091e" d="m194.988 135.57 4.82 22.535-2.964 1.93Zm0 0"/><path fill="#860b1e" d="m199.809 158.105 3.007 6.051-5.972-4.12Zm0 0"/><path fill="#eab506" d="m250.465 135.578 7.527-.34-4.187 16.16Zm0 0"/><path fill="#b8bcc5" d="m54.188 101.754 22.648 4.683-2.598 17.172Zm0 0"/><path fill="#b7bbc4" d="m81.836 158.406-27.14-18.93 22.816 1.02ZM54.695 139.477l27.14 18.93-35.378 15.663Zm0 0"/><path fill="#83051f" d="m77.512 140.496-22.817-1.02 19.543-15.867Zm0 0"/><path fill="#fed600" d="m77.512 140.496-3.274-16.887 14.621.368Zm0 0"/><path fill="#fed600" d="m96.137 149.246-18.625-8.75 11.347-16.52Zm0 0"/><path fill="#b8bcc4" d="m88.86 123.977-12.024-17.54 29.043-2.98Zm0 0"/><path fill="#80011f" d="m120.191 161.73 15.32 7.692-11.476 22.418Zm0 0"/><path fill="#84071e" d="m259.262 191.89-8.75-6.718 8.863-6.05Zm0 0"/><path fill="#860a1e" d="m259.262 191.89-18.23 4.973 9.48-11.691Zm0 0"/><path fill="#9e3318" d="m221.691 225.734-15.988 1.032-.238-11.203Zm0 0"/><path fill="#83061e" d="m285.668 207.262-22.438 7.496 16.727-21.711Zm0 0"/><path fill="#982a19" d="m294.672 200.492-9.004 6.77-5.711-14.215Zm0 0"/><path fill="#b7bbc4" d="m276.16 153.734-7.414-8.691 6.39-.023ZM268.746 145.043l7.414 8.691-16.504-.46Zm0 0"/><path fill="#b7bbc4" d="m257.992 135.238 10.754 9.805-9.09 8.23Zm0 0"/><path fill="#b8bcc5" d="m272.14 169.29-12.484-16.017 18.992 11.762Zm0 0"/><path fill="#b8bcc5" d="m259.656 153.273 16.504.461 2.488 11.301ZM259.656 153.273l12.485 16.016-12.766 9.832Zm0 0"/><path fill="#80001f" d="m340.086 86.738 14.43 13.489-17.399 4.78Zm0 0"/><path fill="#b8bcc5" d="m180.348 350.75 33.789-17.473L212.574 384Zm0 0"/><path fill="#b8bcc5" d="M180.348 350.75 212.574 384h-53.383ZM170.93 277.875l-17.18 8.066-2.55-28.414ZM50.43 340.043l44.386-18.41L98.586 384Zm0 0"/><path fill="#b8bcc5" d="m98.586 384-3.77-62.367 46.04 20.101Zm0 0"/><path fill="#b7bbc4" d="m331.86 197.348-23.52 19.8 6.594-25.101ZM173.39 284.02l-2.46-6.145 3.547-.262Zm0 0"/><path fill="#b8bcc5" d="m170.93 277.875 2.46 6.145-19.64 1.921Zm0 0"/><path fill="#b7bbc4" d="m187.723 281.98-14.332 2.04 1.086-6.407Zm0 0"/><path fill="#b8bcc5" d="m173.39 284.02 3.239 29.71-22.879-27.789ZM218.137 287.453l37.707-12.281-4.008 39.598Zm0 0"/><path fill="#b8bcc4" d="m172.39 156.531 22.598-20.96-16.383 24.843Zm0 0"/><path fill="#80011f" d="m158.29 179.262 14.1-22.73 6.215 3.882Zm0 0"/><path fill="#b7bbc4" d="M174.496 243.332 161.41 230.18l13.36-5.82Zm0 0"/><path fill="#80001f" d="m161.41 230.18-11.668 5.949 9.88-10.785Zm0 0"/><path fill="#b8bcc5" d="m211.984 247.496 9.36-12.137 12.27 16.399Zm0 0"/><path fill="#b7bbc4" d="m221.691 225.734-.347 9.625-15.64-8.593Zm0 0"/><path fill="#b8bcc5" d="m197.91 234.922 14.074 12.574-17.152-3.473Zm0 0"/><path fill="#b7bbc4" d="m211.984 247.496-14.074-12.574 7.793-8.156Zm0 0"/><path fill="#b8bcc5" d="m221.344 235.36-9.36 12.136-6.28-20.73Zm0 0"/><path fill="#b7bbc4" d="M211.984 247.496 197.27 265.73l-2.438-21.707Zm0 0"/><path fill="#b8bcc5" d="m197.27 265.73 14.714-18.234 6.153 39.957Zm0 0"/><path fill="#b8bcc5" d="m187.723 281.98 9.547-16.25 20.867 21.723Zm0 0"/><path fill="#80001f" d="m197.27 265.73-9.547 16.25-3.95-17.734Zm0 0"/><path fill="#9c3018" d="m205.703 226.766-4.07-1.133 3.832-10.07Zm0 0"/><path fill="#83061f" d="m197.91 234.922 3.723-9.29 4.07 1.134Zm0 0"/><path fill="#c06d0f" d="m96.281 193.535 6.817-20.465 2.136 22.133Zm0 0"/><path fill="#80001f" d="m149.445 205.043 31.024-3.856-20.848 24.157Zm0 0"/><path fill="#80001f" d="m180.469 201.188-31.024 3.855 8.844-25.781Zm0 0"/><path fill="#83061f" d="m128.031 222.445-3.261 12.993-13.165-.813Zm0 0"/><path fill="#b7bbc4" d="m141.883 245.152 9.316 12.375-19.71-6.933Zm0 0"/><path fill="#b8bcc5" d="m151.2 257.527-9.317-12.375 7.86-9.023Zm0 0"/><path fill="#fed600" d="m104.113 217.879 8.551.254-1.059 16.492Zm0 0"/><path fill="#b8bcc2" d="m112.664 218.133 15.367 4.312-16.426 12.18Zm0 0"/><path fill="#81031f" d="m128.031 222.445-15.367-4.312 18.613-5.7Zm0 0"/><path fill="#b8bcc5" d="m58.156 282.32 38.035-3.168-1.375 42.48Zm0 0"/><path fill="#80001f" d="m127.508 258.504 3.98-7.91 1.149 4.976Zm0 0"/><path fill="#b8bcc5" d="M370.164 83.48 384 61.758l-2.379 41.738Zm0 0"/><path fill="#b8bcc4" d="m367.965 90.48 2.2-7 11.456 20.016Zm0 0"/><path fill="#b8bcc5" d="m359.324 86.836 10.84-3.356-2.2 7Zm0 0"/><path fill="#b8bcc5" d="m359.324 86.836-1.46-12.48 12.3 9.124Zm0 0"/><path fill="#80001f" d="m304.453 125.855-31.129 5.5 5.293-17.492ZM304.453 125.855l-3.226-20.82 17.75 3.195Zm0 0"/><path fill="#80011f" d="m301.227 105.035 3.226 20.82-25.836-11.992Zm0 0"/><path fill="#80001f" d="m258.508 121.078 2.457-18.742 17.652 11.527Zm0 0"/><path fill="#80011f" d="m258.508 121.078-9.969-5.18 12.426-13.562Zm0 0"/><path fill="#901c1b" d="m250.465 135.578 8.043-14.5-.516 14.16Zm0 0"/><path fill="#dd9e08" d="m258.508 121.078-8.043 14.5-1.926-19.68Zm0 0"/><path fill="#80001f" d="m120.191 161.73-2.414-17.699 24.836 7.156Zm0 0"/><path fill="#80001f" d="m117.777 144.031 14.82-20.07 8.31 16.285Zm0 0"/><path fill="#80001f" d="m132.598 123.96 28.984-1.831-20.676 18.117Zm0 0"/><path fill="#80001f" d="m161.582 122.129-16.613 18.922-4.063-.805Zm0 0"/><path fill="#81011f" d="m144.969 141.05 16.613-18.921 7.809 19.187Zm0 0"/><path fill="#b8bcc5" d="m172.39 156.531-27.421-15.48 24.422.265Zm0 0"/><path fill="#800020" d="m140.906 140.246 4.063.805-2.356 10.137Zm0 0"/><path fill="#81021f" d="m161.582 122.129 17.547-4.606 1.184 7.793Zm0 0"/><path fill="#b8bcc5" d="m179.129 117.523 9.66-18.41 3.64 12.586Zm0 0"/><path fill="#80001f" d="m179.129 117.523 14-1.707-12.816 9.5Zm0 0"/><path fill="#b8bbc4" d="m193.129 115.816-14 1.707 13.3-5.824Zm0 0"/><path fill="#e0a30a" d="m280.496 185.313-1.848-20.278 11.625-.156Zm0 0"/><path fill="#b8bcc5" d="m313.145 158.191 25.058-3.62-4.527 21.148ZM314.934 192.047l-1.79-33.856 20.532 17.528Zm0 0"/><path fill="#81021f" d="m313.145 158.191 1.789 33.856-16.973-6.875Zm0 0"/><path fill="#81021f" d="m290.273 164.879 22.872-6.688-15.184 26.98Zm0 0"/><path fill="#82041f" d="m303.473 146.887 9.672 11.304-22.872 6.688Zm0 0"/><path fill="#b7bbc4" d="m359.414 173.086-8.355 20.16-17.383-17.527Zm0 0"/><path fill="#b8bcc5" d="m338.203 154.57 21.211 18.516-25.738 2.633Zm0 0"/><path fill="#b8bcc5" d="m359.414 173.086-21.21-18.516 23.187-13.66Zm0 0"/><path fill="#b8bcc5" d="M384.004 122.422 384 173.27l-22.61-32.36Zm0 0"/><path fill="#80001f" d="m354.516 100.227 18.57 11.378-5.152 4.817ZM373.086 111.605l-5.121-21.125 13.656 13.016Zm0 0"/><path fill="#b8bcc5" d="m384.004 122.422-10.918-10.817 8.535-8.109ZM373.086 111.605l10.918 10.817-16.07-6ZM20.188 117.012l5.398-18.543 11.219 24.254ZM25.586 98.469l28.602 3.285-17.383 20.969Zm0 0"/><path fill="#b8bcc4" d="m82.766 197.293.074-11.09 13.441 7.332Zm0 0"/><path fill="#b8bbc4" d="m89.668 207.95-6.902-10.657 13.515-3.758Zm0 0"/><path fill="#b8bcc5" d="m227.066 143.48 26.473 10.06-22.223 9.636ZM253.54 153.54l-26.474-10.06 26.739 7.918Zm0 0"/><path fill="#b8bcc5" d="m227.066 143.48 23.399-7.902 3.34 15.82Zm0 0"/><path fill="#81021f" d="m54.695 139.477-3.12-15.043 22.663-.825Zm0 0"/><path fill="#b8bcc5" d="m54.188 101.754-2.614 22.68-14.77-1.711Zm0 0"/><path fill="#b8bcc5" d="m51.574 124.434 2.614-22.68 20.05 21.855Zm0 0"/><path fill="#80011f" d="m51.574 124.434-8.097 9.41-6.672-11.121Zm0 0"/><path fill="#b7bbc4" d="m43.477 133.844 11.218 5.633-15.265 3.937Zm0 0"/><path fill="#b8bcc5" d="m54.695 139.477-8.238 34.593-7.027-30.656Zm0 0"/><path fill="#80001f" d="m51.574 124.434 3.121 15.043-11.218-5.633ZM99.719 139.637l8.496-15.758 9.562 20.152Zm0 0"/><path fill="#80001f" d="m88.86 123.977 19.355-.098-8.496 15.758Zm0 0"/><path fill="#b8bcc4" d="m108.215 123.879-19.356.098 17.02-20.52Zm0 0"/><path fill="#b8bbc4" d="m132.598 123.96-24.383-.081-2.336-20.422Zm0 0"/><path fill="#80001f" d="m108.215 123.879 24.383.082-14.82 20.07Zm0 0"/><path fill="#b8bcc4" d="m81.836 158.406 8.023 13.64-7.02 14.157Zm0 0"/><path fill="#82041f" d="m259.262 191.89 3.968 22.868-22.199-17.895Zm0 0"/><path fill="#9e3418" d="m263.23 214.758-3.968-22.867 20.695 1.156Zm0 0"/><path fill="#ab4915" d="m280.496 185.313-21.234 6.578.113-12.77Zm0 0"/><path fill="#8f1a1c" d="m259.262 191.89 21.234-6.577-.539 7.734Zm0 0"/><path fill="#b75d12" d="m284.277 218.285-21.816 9.797.77-13.324Zm0 0"/><path fill="#e9cb37" d="m284.277 218.285 1.391-11.023 4.95 10.113Zm0 0"/><path fill="#82041f" d="m285.668 207.262-1.39 11.023-21.048-3.527Zm0 0"/><path fill="#b8bcc5" d="m211.984 247.496 21.63 4.262-15.477 35.695Zm0 0"/><path fill="#b8bcc5" d="m218.137 287.453 15.476-35.695 22.23 23.414Zm0 0"/><path fill="#ad4d14" d="m230.773 216.516-9.082 9.218-16.226-10.172Zm0 0"/><path fill="#81011f" d="m211.45 192.777 19.323 23.739-25.308-.953Zm0 0"/><path fill="#b7bbc4" d="m273.324 131.355-4.578 13.688-10.754-9.805Zm0 0"/><path fill="#81031f" d="m273.324 131.355-14.816-10.277 20.11-7.215Zm0 0"/><path fill="#8a121d" d="m258.508 121.078 14.816 10.277-15.332 3.883Zm0 0"/><path fill="#b8bcc5" d="m268.746 145.043 4.578-13.688 1.813 13.665Zm0 0"/><path fill="#ecbe10" d="m253.54 153.54 6.116-.267-.281 25.848Zm0 0"/><path fill="#b8bcc5" d="m334.031 45.992-26.09 27.504-17.566-30.68ZM307.941 73.496l-25.12 3.16 7.554-33.84Zm0 0"/><path fill="#b8bcc5" d="m282.82 76.656 25.121-3.16-8.21 18.856Zm0 0"/><path fill="#b8bcc5" d="m307.941 73.496 5.668 17.469-13.879 1.387ZM340.086 86.738l-2.04-7.664 19.817-4.719Zm0 0"/><path fill="#b8bcc5" d="m338.047 79.074 2.039 7.664-13.274-.695ZM338.047 79.074l-4.016-33.082 23.832 28.363Zm0 0"/><path fill="#b8bcc5" d="m334.031 45.992 4.016 33.082-11.235 6.969Zm0 0"/><path fill="#80001f" d="m327.707 95.098 12.379-8.36-2.969 18.27Zm0 0"/><path fill="#80001f" d="m340.086 86.738-12.379 8.36-.894-9.055ZM313.61 90.965l14.097 4.133-8.73 13.132ZM327.707 95.098l9.41 9.91-18.14 3.222Zm0 0"/><path fill="#b8bcc5" d="m214.137 333.277-33.79 17.473-3.718-37.02Zm0 0"/><path fill="#b8bcc5" d="m140.855 341.734 39.493 9.016L159.19 384ZM168.84 261.328l2.09 16.547-19.73-20.348Zm0 0"/><path fill="#80001f" d="m168.84 261.328 8.02-9.531 6.913 12.45Zm0 0"/><path fill="#800020" d="m168.84 261.328 14.933 2.918-9.296 13.367Zm0 0"/><path fill="#80001f" d="m170.93 277.875-2.09-16.547 5.637 16.285Zm0 0"/><path fill="#b8bcc5" d="m58.156 282.32 36.66 39.313-44.386 18.41Zm0 0"/><path fill="#81011f" d="m111.605 234.625 2.68 10.14-12.992 5.497Zm0 0"/><path fill="#80001f" d="m114.285 244.766 1.172 8.422-14.164-2.926Zm0 0"/><path fill="#81021f" d="m114.285 244.766 10.485-9.328-2.622 13.328Zm0 0"/><path fill="#f2c203" d="m124.77 235.438-10.485 9.328-2.68-10.141Zm0 0"/><path fill="#80001f" d="m115.457 253.188 6.691-4.422 5.36 9.738Zm0 0"/><path fill="#80001f" d="m122.148 248.766 9.34 1.828-3.98 7.91Zm0 0"/><path fill="#83061f" d="m114.285 244.766 7.863 4-6.691 4.422Zm0 0"/><path fill="#80001f" d="m106.883 265.457 8.574-12.27 12.05 5.317Zm0 0"/><path fill="#b7bbc4" d="m106.883 265.457 13.547 5.18-24.239 8.515Zm0 0"/><path fill="#800020" d="m120.43 270.637-13.547-5.18 20.625-6.953Zm0 0"/><path fill="#b8bcc5" d="M329.715 335.988 311.262 384l-28.117-39.469Zm0 0"/><path fill="#b8bcc5" d="m329.715 335.988-46.57 8.543 11.918-47.758ZM355.48 255.113 384 240.09v60.035Zm0 0"/><path fill="#b7bbc4" d="M361.797 204.355 348.5 220.883l-16.64-23.535Zm0 0"/><path fill="#b7bbc4" d="m361.797 204.355-29.938-7.007 19.2-4.102Zm0 0"/><path fill="#b8bcc5" d="m331.93 250.18 11.726-16.813 11.824 21.746ZM321.656 233.258l10.274 16.922-27.551 5.047Zm0 0"/><path fill="#b8bcc5" d="m331.93 250.18-10.274-16.922 22 .11ZM214.137 333.277l31.468 18.215L212.575 384ZM176.629 313.73l-3.238-29.71 14.332-2.04Zm0 0"/><path fill="#b8bcc5" d="m176.629 313.73 11.094-31.75 30.414 5.473Zm0 0"/><path fill="#b8bcc5" d="m251.836 314.77-37.7 18.507 4-45.824Zm0 0"/><path fill="#b8bcc5" d="m214.137 333.277-37.508-19.547 41.508-26.277ZM151.2 257.527l2.55 28.414-21.113-30.37Zm0 0"/><path fill="#80001f" d="m131.488 250.594 19.711 6.933-18.562-1.957Zm0 0"/><path fill="#80011f" d="m174.496 243.332-4.828 5.746-8.258-18.898Zm0 0"/><path fill="#80001f" d="m169.668 249.078 7.191 2.719-8.02 9.531Zm0 0"/><path fill="#80001f" d="m169.668 249.078 4.828-5.746 2.363 8.465ZM190.469 242.285l7.441-7.363-3.078 9.101Zm0 0"/><path fill="#80001f" d="m174.496 243.332 15.973-1.047-13.61 9.512ZM176.86 251.797l13.609-9.512-6.696 21.961ZM197.27 265.73l-6.801-23.445 4.363 1.738Zm0 0"/><path fill="#80001f" d="m190.469 242.285 6.8 23.445-13.496-1.484Zm0 0"/><path fill="#b7bbc4" d="m190.754 225.738 10.879-.105-3.723 9.289Zm0 0"/><path fill="#80001f" d="m180.469 201.188 10.285 24.55-15.984-1.379Zm0 0"/><path fill="#80001f" d="m190.754 225.738-10.285-24.55 24.996 14.375Zm0 0"/><path fill="#9c3018" d="m201.633 225.633-10.88.105 14.712-10.175Zm0 0"/><path fill="#b7bbc4" d="m96.566 236.453 15.04-1.828-10.313 15.637Zm0 0"/><path fill="#b8bbc3" d="m111.605 234.625-15.039 1.828 7.547-18.574Zm0 0"/><path fill="#b7bbc4" d="m104.113 217.879-7.547 18.574-10.3-5.687ZM96.566 236.453l-12.851 13.984 2.55-19.671Zm0 0"/><path fill="#b8bcc5" d="m96.566 236.453 4.727 13.809-17.578.175Zm0 0"/><path fill="#e1a407" d="m82.84 186.203 20.258-13.133-6.817 20.465Zm0 0"/><path fill="#fed500" d="m89.86 172.047 13.238 1.023-20.258 13.133Zm0 0"/><path fill="#b8bcc5" d="m96.191 279.152 38.266 19.473-39.64 23.008ZM153.75 285.941l-19.293 12.684-1.82-43.055Zm0 0"/><path fill="#b8bcc5" d="m134.457 298.625-14.027-27.988 12.207-15.067Zm0 0"/><path fill="#b8bcc5" d="m134.457 298.625-38.266-19.473 24.239-8.515ZM176.629 313.73l-42.172-15.105 19.293-12.684ZM357.863 74.355l-23.832-28.363L384 61.758ZM370.164 83.48l-12.3-9.125L384 61.758Zm0 0"/><path fill="#80001f" d="m340.086 86.738 19.238.098-4.808 13.39Zm0 0"/><path fill="#b8bcc5" d="m359.324 86.836-19.238-.098 17.777-12.383ZM304.453 125.855l-23.383 18.649-7.746-13.149Zm0 0"/><path fill="#8c151c" d="m273.324 131.355 7.746 13.149-5.933.516Zm0 0"/><path fill="#b7bbc4" d="m281.07 144.504 22.403 2.383-13.2 17.992Zm0 0"/><path fill="#b8bcc5" d="m321.05 140.797 6.427-18.067 11.593 12.81Zm0 0"/><path fill="#b8bcc5" d="m338.203 154.57-17.152-13.773 18.02-5.258Zm0 0"/><path fill="#b8bcc5" d="m313.145 158.191 7.906-17.394 17.152 13.773Zm0 0"/><path fill="#b7bbc4" d="m321.05 140.797-7.905 17.394-9.672-11.304ZM132.598 123.96l29.707-22.815-.723 20.984Zm0 0"/><path fill="#b8bcc5" d="m162.305 101.145 16.824 16.378-17.547 4.606ZM188.79 99.113l-26.485 2.032L178.57 68.82Zm0 0"/><path fill="#b8bcc5" d="m179.129 117.523-16.824-16.378 26.484-2.032Zm0 0"/><path fill="#80001f" d="m193.129 115.816-1.852 17.645-10.964-8.145Zm0 0"/><path fill="#80001f" d="m191.277 133.46-21.886 7.856 10.922-16Zm0 0"/><path fill="#b8bcc4" d="m191.277 133.46-18.886 23.071-3-15.215Zm0 0"/><path fill="#80001f" d="m191.277 133.46 1.852-17.644 6.68 12.985Zm0 0"/><path fill="#80001f" d="m191.277 133.46 8.532-4.66-4.82 6.77Zm0 0"/><path fill="#b8bcc4" d="m172.39 156.531 18.887-23.07 3.711 2.11Zm0 0"/><path fill="#b8bbc4" d="m193.129 115.816-.7-4.117 26.258-1.531Zm0 0"/><path fill="#80001f" d="m142.613 151.188 29.778 5.343-14.102 22.73Zm0 0"/><path fill="#b8bcc5" d="m142.613 151.188 2.356-10.137 27.422 15.48Zm0 0"/><path fill="#80001f" d="m135.512 169.422 7.101-18.234 15.676 28.074Zm0 0"/><path fill="#80001f" d="m120.191 161.73 22.422-10.542-7.101 18.234Zm0 0"/><path fill="#ecb704" d="m278.648 165.035-2.488-11.3 14.113 11.144Zm0 0"/><path fill="#da9b0c" d="m281.07 144.504-4.91 9.23-1.023-8.714Zm0 0"/><path fill="#b7bbc4" d="m276.16 153.734 4.91-9.23 9.203 20.375Zm0 0"/><path fill="#b8bcc5" d="M384.004 122.422 361.39 140.91l6.543-24.488Zm0 0"/><path fill="#b8bcc5" d="m350.691 117.926 10.7 22.984-22.32-5.37Zm0 0"/><path fill="#b8bcc5" d="m361.39 140.91-10.699-22.984 17.243-1.504Zm0 0"/><path fill="#85091e" d="m75.957 208.824 13.711-.875.113 9.965Zm0 0"/><path fill="#81021f" d="m71.879 216.145 4.078-7.32 13.824 9.09Zm0 0"/><path fill="#b7bbc4" d="m82.766 197.293-6.809 11.531-6.918-19.058Zm0 0"/><path fill="#b7bbc4" d="m75.957 208.824 6.809-11.531 6.902 10.656Zm0 0"/><path fill="#81011f" d="m75.957 208.824-4.078 7.32-20.012-9.73Zm0 0"/><path fill="#b7bbc4" d="m69.04 189.766 6.917 19.058-24.09-2.41Zm0 0"/><path fill="#b8bbc4" d="m69.04 189.766 12.796-31.36 1.004 27.797Zm0 0"/><path fill="#b7bbc4" d="m82.766 197.293-13.727-7.527 13.8-3.563ZM81.836 158.406l-12.797 31.36-22.582-15.696Zm0 0"/><path fill="#b8bcc5" d="m217.016 149.883 10.05-6.403 4.25 19.696Zm0 0"/><path fill="#b8bcc5" d="m217.016 149.883 14.3 13.293-28.5.98Zm0 0"/><path fill="#b7bbc4" d="m199.809 158.105 17.207-8.222-14.2 14.273Zm0 0"/><path fill="#b8bcc5" d="m217.016 149.883-17.207 8.222 7.629-20.851ZM225.027 140.45l-8.011 9.433-9.578-12.63Zm0 0"/><path fill="#b8bcc5" d="m217.016 149.883 8.011-9.434 2.04 3.031Zm0 0"/><path fill="#b8bcc5" d="m227.066 143.48-2.039-3.03 25.438-4.872Zm0 0"/><path fill="#80001f" d="m250.465 135.578-25.438 4.871 23.512-24.55Zm0 0"/><path fill="#b8bcc5" d="m259.785 245.035-3.941 30.137-22.23-23.414Zm0 0"/><path fill="#81011f" d="m289.188 220.629 3.98 1.168-9.16 8.98Zm0 0"/><path fill="#8a111d" d="m289.188 220.629-4.91-2.344 6.34-.91Zm0 0"/><path fill="#850a1e" d="m293.168 221.797-3.98-1.168 1.43-3.254Zm0 0"/><path fill="#80011f" d="m263.23 214.758-32.457 1.758 10.258-19.653ZM230.773 216.516l-19.324-23.739 29.582 4.086Zm0 0"/><path fill="#b8bcc5" d="M326.813 86.043 307.94 73.496l26.09-27.504Zm0 0"/><path fill="#b8bcc5" d="m307.941 73.496 18.872 12.547-13.204 4.922Zm0 0"/><path fill="#80011f" d="m326.813 86.043.894 9.055-14.098-4.133Zm0 0"/><path fill="#b8bcc5" d="m134.457 298.625 42.172 15.105-35.774 28.004Zm0 0"/><path fill="#b8bcc5" d="m176.629 313.73 3.719 37.02-39.493-9.016Zm0 0"/><path fill="#80001f" d="m106.883 265.457-5.59-15.195 14.164 2.925Zm0 0"/><path fill="#b8bcc5" d="m311.262 384 18.453-48.012L384 384Zm0 0"/><path fill="#b8bcc5" d="M329.715 335.988 384 300.125V384ZM264.02 384l19.125-39.469L311.262 384ZM329.715 335.988l-34.652-39.215 37.554 4.118ZM376.078 231.012 384 240.09l-28.52 15.023Zm0 0"/><path fill="#b7bbc4" d="m376.078 231.012-27.578-10.13 13.297-16.527Zm0 0"/><path fill="#80001f" d="m348.5 220.883 27.578 10.129-32.422 2.355Zm0 0"/><path fill="#b8bcc5" d="m384.004 224.14-7.926 6.872-14.281-26.657Zm0 0"/><path fill="#b8bcc5" d="m376.078 231.012 7.926-6.871L384 240.09ZM376.078 231.012l-20.598 24.101-11.824-21.746Zm0 0"/><path fill="#901c1b" d="m300.254 215.16-7.086 6.637-2.55-4.422Zm0 0"/><path fill="#81021f" d="m300.254 215.16-5.582-14.668 20.262-8.445Zm0 0"/><path fill="#80011f" d="m308.34 217.148-8.086-1.988 14.68-23.113Zm0 0"/><path fill="#83061f" d="m285.668 207.262 14.586 7.898-9.637 2.215Zm0 0"/><path fill="#81021f" d="m300.254 215.16-14.586-7.898 9.004-6.77Zm0 0"/><path fill="#82031f" d="m321.656 233.258-21.59-3.246 8.274-12.864Zm0 0"/><path fill="#85081e" d="m300.066 230.012.188-14.852 8.086 1.988Zm0 0"/><path fill="#85091e" d="m300.254 215.16-.188 14.852-6.898-8.215Zm0 0"/><path fill="#b8bcc5" d="m300.066 230.012 21.59 3.246-17.277 21.969Zm0 0"/><path fill="#b8bcc5" d="m284.008 230.777 16.058-.765 4.313 25.215Zm0 0"/><path fill="#82041f" d="m293.168 221.797 6.898 8.215-16.058.765Zm0 0"/><path fill="#b7bbc4" d="m330.793 219.117-22.453-1.969 23.52-19.8Zm0 0"/><path fill="#80001f" d="m330.793 219.117-9.137 14.14-13.316-16.109Zm0 0"/><path fill="#b7bbc4" d="m348.5 220.883-17.707-1.766 1.066-21.77Zm0 0"/><path fill="#80001f" d="m343.656 233.367-12.863-14.25 17.707 1.766ZM321.656 233.258l9.137-14.14 12.863 14.25Zm0 0"/><path fill="#b8bcc5" d="M283.145 344.531 264.02 384l-18.415-32.508Zm0 0"/><path fill="#b8bcc5" d="M264.02 384h-51.446l33.031-32.508Zm0 0"/><path fill="#b7bbc4" d="m157.645 254.04-7.903-17.911 11.668-5.95Zm0 0"/><path fill="#b7bbc4" d="m169.668 249.078-12.023 4.961 3.765-23.86ZM157.645 254.04l12.023-4.962-.828 12.25Zm0 0"/><path fill="#80001f" d="m151.2 257.527 6.445-3.488 11.195 7.29Zm0 0"/><path fill="#b8bcc5" d="m157.645 254.04-6.446 3.487-1.457-21.398Zm0 0"/><path fill="#b7bbc4" d="m190.469 242.285-3.79-8.305 11.231.942Zm0 0"/><path fill="#b8bcc5" d="m186.68 233.98 3.789 8.305-15.973 1.047Zm0 0"/><path fill="#b7bbc4" d="m186.68 233.98-12.184 9.352.274-18.973Zm0 0"/><path fill="#b8bcc4" d="m190.754 225.738-4.074 8.242-11.91-9.62Zm0 0"/><path fill="#b8bbc4" d="m186.68 233.98 4.074-8.242 7.156 9.184Zm0 0"/><path fill="#80001f" d="m124.77 235.438 6.718 15.156-9.34-1.828Zm0 0"/><path fill="#b7bbc4" d="m149.742 236.129-7.172-13.496 17.051 2.71Zm0 0"/><path fill="#80001f" d="m142.57 222.633 6.875-17.59 10.176 20.3Zm0 0"/><path fill="#80001f" d="m149.445 205.043-6.875 17.59-11.293-10.2ZM142.57 222.633l-14.539-.188 3.246-10.011Zm0 0"/><path fill="#b7bbc4" d="m139.043 239.32-14.273-3.882 3.261-12.993ZM124.77 235.438l14.273 3.882-7.555 11.274Zm0 0"/><path fill="#b7bbc4" d="m142.57 222.633-3.527 16.687-11.012-16.875Zm0 0"/><path fill="#b7bbc4" d="m139.043 239.32 3.527-16.687 7.172 13.496Zm0 0"/><path fill="#800020" d="m131.488 250.594 7.555-11.274 2.84 5.832Zm0 0"/><path fill="#80001f" d="m139.043 239.32 10.7-3.191-7.86 9.023ZM363.137 94.625l9.949 16.98-18.57-11.378Zm0 0"/><path fill="#80001f" d="m359.324 86.836 3.813 7.789-8.621 5.602Zm0 0"/><path fill="#80001f" d="m373.086 111.605-9.95-16.98 4.829-4.145Zm0 0"/><path fill="#80001f" d="m363.137 94.625-3.813-7.79 8.64 3.645Zm0 0"/><path fill="#b8bcc5" d="m281.07 144.504 23.93-18.16-1.527 20.543Zm0 0"/><path fill="#b8bcc5" d="m305 126.344-23.93 18.16 23.383-18.649ZM305 126.344l16.05 14.453-17.577 6.09Zm0 0"/><path fill="#b8bcc5" d="M321.05 140.797 305 126.344l22.477-3.614Zm0 0"/><path fill="#80001f" d="M327.477 122.73 305 126.344l13.977-18.114Zm0 0"/><path fill="#80001f" d="m305 126.344-.547-.489 14.524-17.625Zm0 0"/><path fill="#a64016" d="m248.54 115.898-30.298 9.43.446-15.16Zm0 0"/><path fill="#85091e" d="m218.242 125.328-25.113-9.512 25.559-5.648Zm0 0"/><path fill="#80001f" d="m225.027 140.45-6.785-15.122 30.297-9.43ZM193.129 115.816l25.113 9.512-18.433 3.473Zm0 0"/><path fill="#80001f" d="m199.809 128.8 18.433-3.472-10.804 11.926Zm0 0"/><path fill="#800020" d="m218.242 125.328 6.785 15.121-17.59-3.195Zm0 0"/><path fill="#9e3318" d="m120.191 161.73-24.054-12.484 21.64-5.215Zm0 0"/><path fill="#b7bbc4" d="m96.137 149.246 3.582-9.61 18.058 4.395Zm0 0"/><path fill="#fed601" d="m81.836 158.406 21.262 14.664-13.239-1.023Zm0 0"/><path fill="#9c2f18" d="m103.098 173.07-6.961-23.824 24.054 12.484Zm0 0"/><path fill="#b7bbc4" d="m232.04 227.574 30.42.508-2.675 16.953Zm0 0"/><path fill="#b8bcc5" d="m221.344 235.36 10.695-7.786 1.574 24.184Zm0 0"/><path fill="#b8bcc5" d="m232.04 227.574 27.745 17.461-26.172 6.723Zm0 0"/><path fill="#b7bbc4" d="m232.04 227.574-10.696 7.785.347-9.625Zm0 0"/><path fill="#84061e" d="m284.277 218.285-.27 12.492-21.546-2.695Zm0 0"/><path fill="#85081e" d="m289.188 220.629-5.18 10.148.27-12.492Zm0 0"/><path fill="#a33b17" d="m262.46 228.082-31.687-11.566 32.457-1.758Zm0 0"/><path fill="#a64016" d="m232.04 227.574-1.267-11.058 31.688 11.566Zm0 0"/><path fill="#95231a" d="m230.773 216.516 1.266 11.058-10.348-1.84Zm0 0"/><path fill="#b7bbc4" d="m101.293 250.262-5.102 28.89-12.476-28.714Zm0 0"/><path fill="#b8bcc5" d="m83.715 250.438 12.476 28.714-38.035 3.168Zm0 0"/><path fill="#b7bbc4" d="m96.191 279.152 5.102-28.89 5.59 15.195Zm0 0"/><path fill="#b8bcc5" d="m332.617 300.89 51.383-.765-54.285 35.863ZM304.379 255.227l28.223 21-37.54 20.546ZM332.617 300.89l-37.555-4.117 37.54-20.546ZM245.605 351.492l6.23-36.722 31.31 29.761ZM283.145 344.531l-31.31-29.761 43.227-17.997Zm0 0"/><path fill="#b8bcc5" d="m295.063 296.773-43.227 17.997 4.008-39.598ZM332.617 300.89l-.015-24.663L384 300.125Zm0 0"/><path fill="#b8bcc5" d="m332.602 276.227 22.878-21.114L384 300.125ZM245.605 351.492l-31.468-18.215 37.699-18.507ZM137.266 82.082l-4.668 41.879-26.72-20.504ZM137.266 82.082l25.039 19.063-29.707 22.816Zm0 0"/><path fill="#b8bcc5" d="M137.266 82.082 178.57 68.82l-16.265 32.325ZM137.266 82.082 90.512 58.109l56.953-18.605Zm0 0"/><path fill="#b8bcc5" d="m178.57 68.82-41.304 13.262 10.199-42.578ZM90.512 58.11l46.754 23.972-31.387 21.375Zm0 0"/><path fill="#a64016" d="m124.035 191.84-20.937-18.77 17.093-11.34Zm0 0"/><path fill="#aa4815" d="m103.098 173.07 20.937 18.77-18.8 3.363Zm0 0"/><path fill="#fed500" d="m103.098 173.07-21.262-14.664 14.3-9.16Zm0 0"/><path fill="#fed600" d="m96.137 149.246-14.301 9.16-4.324-17.91Zm0 0"/><path fill="#b7bbc4" d="m284.008 230.777-24.223 14.258 2.676-16.953Zm0 0"/><path fill="#b8bcc5" d="m332.602 276.227-.672-26.047 23.55 4.933Zm0 0"/><path fill="#b8bcc5" d="m331.93 250.18.672 26.047-28.223-21ZM304.379 255.227l-24.852 3.851 4.48-28.3ZM259.785 245.035l19.742 14.043-23.683 16.094Zm0 0"/><path fill="#b7bbc4" d="m279.527 259.078-19.742-14.043 24.223-14.258ZM295.063 296.773l-15.536-37.695 24.852-3.851Zm0 0"/><path fill="#b8bcc5" d="m279.527 259.078 15.536 37.695-39.22-21.601Zm0 0"/></svg>