<svg xmlns="http://www.w3.org/2000/svg" width="512" height="512" viewBox="0 0 384 384"><path fill="#0486a4" d="m384 197.05-28.957 9.942-.742-13.55Zm0 0"/><path fill="#0287a4" d="m0 199.18 24.355 11.047L0 256.117ZM13.676 345.98 0 319.75l32.629 28.059Zm0 0"/><path fill="#0386a4" d="m24.355 210.227 55.172 6.164L0 256.117Zm0 0"/><path fill="#0883a3" d="M201.668 0h69.383l-17.133 35.652Zm0 0"/><path fill="#0386a4" d="m268.348 86.203 21.39 7.879-18.039 4.992Zm0 0"/><path fill="#0187a4" d="m268.348 86.203-24.97 18.344 3.06-34.797ZM16.941 125.207l21.594 10.945L0 129.375Zm0 0"/><path fill="#0187a4" d="m0 129.375 38.535 6.777L0 199.18Zm0 0"/><path fill="#0784a3" d="m201.668 0-52.332 42.145L125.359 0Zm0 0"/><path fill="#0684a3" d="M149.336 42.145 201.668 0l-11.559 51.867Zm0 0"/><path fill="#0c81a2" d="m0 0 32.844 40.215L0 58.39Zm0 0"/><path fill="#0c82a2" d="M60.996 0 32.844 40.215 0 0Zm0 0"/><path fill="#fece7f" d="m233.527 169.074-1.043 18.492-20.554-22.18Zm0 0"/><path fill="#feca7f" d="m256.004 179.332-23.52 8.234 1.043-18.492Zm0 0"/><path fill="#fef5eb" d="m84.477 371.219-16.184-20.192 17.816-2.289Zm0 0"/><path fill="#0287a4" d="M13.676 345.98.004 357.164 0 319.75Zm0 0"/><path fill="#1e789d" d="m9.898 375.738 36.211 8.27-46.101-.012Zm0 0"/><path fill="#20779d" d="m9.898 375.738 36.293.168-.082 8.102Zm0 0"/><path fill="#fbf3ea" d="m9.898 375.738 3.778-29.758 18.953 1.829Zm0 0"/><path fill="#f1e3d1" d="m46.191 375.906-36.293-.168 22.73-27.93Zm0 0"/><path fill="#0684a3" d="m38.625 304.75 20.578 22.766-26.574 20.293Zm0 0"/><path fill="#0286a4" d="m0 319.75 38.625-15-5.996 43.059Zm0 0"/><path fill="#0187a4" d="M38.625 304.75 0 319.75v-63.633Zm0 0"/><path fill="#0486a4" d="m70.684 268.61-32.059 36.14L0 256.117Zm0 0"/><path fill="#0684a3" d="m38.625 304.75 32.059-36.14 2.484 38.417Zm0 0"/><path fill="#0386a4" d="M70.684 268.61 0 256.116l79.527-39.726Zm0 0"/><path fill="#fe546f" d="m196.879 161.547-29.977 27.465.782-33.133Zm0 0"/><path fill="#fd546e" d="m207.344 215.117-40.442-26.105 35.22-3.203Zm0 0"/><path fill="#fe566f" d="m166.902 189.012 40.442 26.105-45.293 8.774Zm0 0"/><path fill="#0386a4" d="m253.918 35.652 35.05-3.422-8.05 31.415Zm0 0"/><path fill="#0486a4" d="m268.348 86.203 3.351 12.871-28.32 5.473Zm0 0"/><path fill="#0187a4" d="m280.918 63.645-12.57 22.558-21.91-16.453ZM268.348 86.203l12.57-22.558 8.82 30.437Zm0 0"/><path fill="#fd556f" d="m271.7 99.074-25.114 13.059-3.207-7.586Zm0 0"/><path fill="#fd556f" d="m246.586 112.133 25.113-13.059 4.008 18.36Zm0 0"/><path fill="#0287a4" d="m221.594 49.68 24.844 20.07-37.016 11.371Zm0 0"/><path fill="#0585a3" d="m190.11 51.867 31.484-2.187-12.172 31.441Zm0 0"/><path fill="#fe596f" d="m285.203 185.61 26.793 9.09-30.164-3.348Zm0 0"/><path fill="#fe586f" d="m311.996 194.7 2.625-6.868-1.293 7.617Zm0 0"/><path fill="#fece7f" d="m314.621 187.832-2.625 6.867-26.793-9.09Zm0 0"/><path fill="#0386a4" d="m354.3 193.441-39.679-5.609 16.879-20.39Zm0 0"/><path fill="#fd546f" d="m319.633 195.457-5.012-7.625 39.68 5.61Zm0 0"/><path fill="#fd5a6f" d="m314.621 187.832 5.012 7.625-6.305-.008Zm0 0"/><path fill="#0585a3" d="m28.473 75.605 56.96-18.867-39.117 37.739Zm0 0"/><path fill="#0d81a2" d="M85.434 56.738 28.473 75.605l4.37-35.39Zm0 0"/><path fill="#29719b" d="m102 207.996-16.426 1.281-1.297-4.652Zm0 0"/><path fill="#0386a4" d="m38.535 136.152-14.18 74.075L0 199.18Zm0 0"/><path fill="#0684a3" d="m201.668 0 19.926 49.68-31.485 2.187Zm0 0"/><path fill="#0784a3" d="M253.918 35.652 221.594 49.68 201.668 0Zm0 0"/><path fill="#0c81a2" d="m125.36 0 23.976 42.145-63.902 14.593Zm0 0"/><path fill="#0e81a1" d="M85.434 56.738 60.996 0h64.363Zm0 0"/><path fill="#0e81a2" d="m60.996 0 24.438 56.738-52.59-16.523Zm0 0"/><path fill="#0187a4" d="m194.344 148.086 2.535 13.46-29.195-5.667Zm0 0"/><path fill="#fd546f" d="m208.715 124.2 34.664-19.653 3.207 7.586ZM243.379 104.547l-34.664 19.652-1.05-11.715Zm0 0"/><path fill="#0485a4" d="m131.883 85.48-31.156 17.985-15.293-46.727Zm0 0"/><path fill="#0187a4" d="m100.727 103.465 31.156-17.985-14.758 26.575ZM75.867 104.672l24.86-1.207-10.997 19.937Zm0 0"/><path fill="#fecf7f" d="m74.652 124.66 1.215-19.988 13.863 18.73Zm0 0"/><path fill="#0386a4" d="m75.867 104.672-29.55-10.195 39.117-37.739Zm0 0"/><path fill="#0386a4" d="m100.727 103.465-24.86 1.207 9.567-47.934Zm0 0"/><path fill="#fd536e" d="m113.594 147.078-20.528-3.766-3.336-19.91Zm0 0"/><path fill="#fe5b70" d="m256.723 174.57 25.109 16.782-25.828-12.02Zm0 0"/><path fill="#3b6b9a" d="m281.832 191.352-25.11-16.782 23.012-13.277Zm0 0"/><path fill="#22779c" d="m78.75 384 5.727-12.781 22.168 12.754Zm0 0"/><path fill="#cfbda2" d="m109.883 360.34 23.34 23.648-26.578-.015Zm0 0"/><path fill="#fef4e9" d="m109.883 360.34-25.406 10.879 1.632-22.48Zm0 0"/><path fill="#d0b29d" d="m84.477 371.219 25.406-10.88-3.238 23.634Zm0 0"/><path fill="#28799f" d="m.004 357.164 9.894 18.574-9.89 8.258Zm0 0"/><path fill="#fef1e0" d="M9.898 375.738.004 357.164l13.672-11.184Zm0 0"/><path fill="#fd546f" d="m166.902 189.012 29.977-27.465 5.242 24.262Zm0 0"/><path fill="#fe556f" d="m148.285 165.11 19.399-9.231-.782 33.133Zm0 0"/><path fill="#fd546e" d="m183.207 264.941 6.883 17.543-16.676-1.957Zm0 0"/><path fill="#fecf7f" d="M115.805 218.285 102 207.996 104.29 188Zm0 0"/><path fill="#fe5a6f" d="m127.61 179.75-11.805 38.535L104.289 188Zm0 0"/><path fill="#fe546f" d="m127.61 179.75 10.597 25.133-22.402 13.402Zm0 0"/><path fill="#fe546f" d="m138.207 204.883-10.598-25.133 39.293 9.262Zm0 0"/><path fill="#0187a4" d="m108.797 270.297 13.433-3.485 22.786 21.981Zm0 0"/><path fill="#0883a3" d="M384 61.66 339.7 0H384Zm0 0"/><path fill="#fe546f" d="m291.637 103.547 15.066-11.629 19.016 20.148Zm0 0"/><path fill="#fd546f" d="m291.637 103.547-15.93 13.887-4.008-18.36Zm0 0"/><path fill="#fd546f" d="m289.738 94.082 1.899 9.465-19.938-4.473Zm0 0"/><path fill="#fd556f" d="m306.703 91.918-15.066 11.629-1.899-9.465Zm0 0"/><path fill="#0486a4" d="m253.918 35.652 27 27.993-34.48 6.105Zm0 0"/><path fill="#0287a4" d="m113.594 147.078 24.3-7.539-.796 6.563Zm0 0"/><path fill="#de4e6b" d="m194.344 148.086-4.606-16.496 15.672 6Zm0 0"/><path fill="#0187a4" d="m209.422 81.121 33.957 23.426-35.715 7.937Zm0 0"/><path fill="#0187a4" d="m209.422 81.121 37.016-11.371-3.06 34.797ZM186.023 100.414l23.399-19.293-1.758 31.363Zm0 0"/><path fill="#0486a4" d="m221.594 49.68 32.324-14.028-7.48 34.098Zm0 0"/><path fill="#0a82a2" d="m339.7 0-50.731 32.23L271.05 0Zm0 0"/><path fill="#0784a3" d="m271.05 0 17.919 32.23-35.051 3.422Zm0 0"/><path fill="#fe546f" d="m359.887 103.984-31.59 17.575-2.578-9.493Zm0 0"/><path fill="#0287a4" d="M355.117 148.398 331.5 167.441l-5.895-17.77ZM354.3 193.441l.817-45.043L384 197.051Zm0 0"/><path fill="#0386a4" d="m369.863 112.762 14.157-11.328-.024 30.726Zm0 0"/><path fill="#fd546f" d="m328.297 121.559 31.59-17.575 3.726 13.375Zm0 0"/><path fill="#0187a4" d="M28.473 75.605 16.94 125.207 0 129.375ZM16.941 125.207l29.375-30.73-.699 29.296Zm0 0"/><path fill="#0187a4" d="m16.941 125.207 11.532-49.602 17.843 18.872Zm0 0"/><path fill="#fd546f" d="m16.941 125.207 28.676-1.434-7.082 12.38Zm0 0"/><path fill="#0187a4" d="M0 129.375V58.391l28.473 17.214Zm0 0"/><path fill="#0983a3" d="m32.844 40.215-4.371 35.39L0 58.391Zm0 0"/><path fill="#fd5b70" d="m61.828 205.871 17.7 10.52-55.173-6.164Zm0 0"/><path fill="#fc6671" d="m61.828 205.871 23.746 3.406-6.047 7.114Zm0 0"/><path fill="#0486a4" d="m61.828 205.871-37.473 4.356 14.18-74.075Zm0 0"/><path fill="#0187a4" d="m202.246 154.723-7.902-6.637 11.066-10.496Zm0 0"/><path fill="#fec87e" d="m194.344 148.086 7.902 6.637-5.367 6.824Zm0 0"/><path fill="#0985a4" d="m196.879 161.547 5.367-6.824 9.684 10.664Zm0 0"/><path fill="#0187a4" d="m75.867 104.672-30.25 19.101.7-29.296Zm0 0"/><path fill="#0187a4" d="m45.617 123.773 30.25-19.101-1.215 19.988ZM75.715 153.059l-21.688-10.914 26.567 3.984Zm0 0"/><path fill="#fecf7f" d="m79.754 139.191 13.312 4.121-12.472 2.817Zm0 0"/><path fill="#0287a4" d="m54.027 142.145 25.727-2.954.84 6.938Zm0 0"/><path fill="#fd556f" d="m79.754 139.191-25.727 2.954 20.625-17.485Zm0 0"/><path fill="#fecf7f" d="m79.754 139.191-5.102-14.53 15.078-1.259Zm0 0"/><path fill="#fecf7f" d="m93.066 143.313-13.312-4.122 9.976-15.789Zm0 0"/><path fill="#0187a4" d="m100.727 103.465 9.546 19.746-20.543.191Zm0 0"/><path fill="#fd546f" d="m110.273 123.21 3.32 23.868-23.863-23.676Zm0 0"/><path fill="#0187a4" d="m110.273 123.21-9.546-19.745 16.398 8.59Zm0 0"/><path fill="#fecc7f" d="m260.453 198.395-27.969-10.829 23.52-8.234Zm0 0"/><path fill="#fe586f" d="m217.742 225.809-13.16-.641 2.762-10.05Zm0 0"/><path fill="#fe7573" d="m291.633 209.027-27.574 6.16 17.773-23.835Zm0 0"/><path fill="#fecf7f" d="m311.996 194.7-20.363 14.327-9.801-17.675Zm0 0"/><path fill="#fe586f" d="m202.121 185.809 9.809-20.422 20.554 22.18Zm0 0"/><path fill="#fea87a" d="m202.121 185.809-5.242-24.262 15.05 3.84Zm0 0"/><path fill="#815f9a" d="m276.121 131.09 3.613 30.203-28.37-13.14Zm0 0"/><path fill="#665e97" d="m279.734 161.293-23.011 13.277-5.36-26.418Zm0 0"/><path fill="#0685a3" d="m288.969 32.23 26.957 21.672-35.008 9.743Zm0 0"/><path fill="#0982a3" d="M315.926 53.902 288.969 32.23 339.699 0Zm0 0"/><path fill="#0f82a2" d="m145.176 373.023 37.234-9.738L188.52 384Zm0 0"/><path fill="#0a83a2" d="M145.176 373.023 188.52 384l-55.297-.012Zm0 0"/><path fill="#1c799d" d="M73.344 375.965 78.75 384l-32.64.008Zm0 0"/><path fill="#1b799e" d="m46.191 375.906 27.153.059-27.235 8.043Zm0 0"/><path fill="#f7e7d3" d="m84.477 371.219-11.133 4.746-5.051-24.938Zm0 0"/><path fill="#1a7a9e" d="m78.75 384-5.406-8.035 11.133-4.746Zm0 0"/><path fill="#fef7ef" d="m101.586 332.707 8.297 27.633-23.774-11.602Zm0 0"/><path fill="#0784a3" d="m59.203 327.516 20.012.793-10.922 22.718Zm0 0"/><path fill="#e5d6c0" d="m68.293 351.027 10.922-22.718 6.894 20.43Zm0 0"/><path fill="#fdedd5" d="m79.215 328.309 22.37 4.398-15.476 16.031Zm0 0"/><path fill="#0c82a2" d="m101.586 332.707-22.371-4.398 13.734-11.235Zm0 0"/><path fill="#0784a3" d="m313.566 337.727-12.492 14.343-11.715-16.578Zm0 0"/><path fill="#0983a3" d="m319.633 195.457-.438 35.55-5.867-35.558Zm0 0"/><path fill="#0784a3" d="m339.5 234.574 20.96.45-14.675 21.808Zm0 0"/><path fill="#fd546f" d="m339.5 234.574 7.367-13.914 13.594 14.363Zm0 0"/><path fill="#fef8f3" d="m182.41 363.285-37.234 9.738 15.41-17.535Zm0 0"/><path fill="#0486a4" d="m251.637 320.734 3.867 11.375-22.73-2.812Zm0 0"/><path fill="#0187a4" d="m178.629 311.668-33.613-22.875 28.398-8.266Zm0 0"/><path fill="#0187a4" d="m190.09 282.484-11.461 29.184-5.215-31.14ZM178.629 311.668l-32.606 8.152-1.007-31.027ZM227.457 285.305l13.027-23.453 8.36 24.23Zm0 0"/><path fill="#0187a4" d="m235.484 300.793-8.027-15.488 21.387.777ZM213.078 266.695l4.25-27.195 23.156 22.352Zm0 0"/><path fill="#0585a4" d="m217.742 225.809-.414 13.691-12.746-14.332Zm0 0"/><path fill="#0386a4" d="m217.328 239.5-13.879 2.648 1.133-16.98Zm0 0"/><path fill="#0386a4" d="m203.45 242.148 13.878-2.648-4.25 27.195Zm0 0"/><path fill="#0187a4" d="m213.078 266.695-15.035-5.894 5.406-18.653Zm0 0"/><path fill="#0187a4" d="m190.09 282.484 7.953-21.683 15.035 5.894Zm0 0"/><path fill="#fd546f" d="m198.043 260.8-7.953 21.684-6.883-17.543Zm0 0"/><path fill="#febc7d" d="m102 207.996 12.621 23.27-29.047-21.989Zm0 0"/><path fill="#fe546f" d="m162.05 223.89-23.843-19.007 28.695-15.871Zm0 0"/><path fill="#fd536e" d="m154.125 257.32-25.477-5.172 33.403-28.257Zm0 0"/><path fill="#fecf7f" d="m102 207.996 13.805 10.29-1.184 12.98Zm0 0"/><path fill="#0485a4" d="m115.805 218.285 12.644 4.918-13.828 8.063Zm0 0"/><path fill="#fd546f" d="m128.45 223.203-12.645-4.918 22.402-13.402Zm0 0"/><path fill="#0684a3" d="m108.797 270.297-10.684 28.719-27.43-30.407Zm0 0"/><path fill="#0685a3" d="m98.113 299.016-24.945 8.011-2.484-38.418Zm0 0"/><path fill="#0287a4" d="m73.168 307.027 24.945-8.011-5.164 18.058Zm0 0"/><path fill="#0187a4" d="m122.23 266.813 6.418-14.665 16.368 36.645ZM365.055 86.469 384 61.66l.02 39.774Zm0 0"/><path fill="#0286a4" d="m365.055 86.469-10.09-22.07L384 61.66Zm0 0"/><path fill="#0386a4" d="m363.93 87.883 1.125-1.414 18.965 14.965Zm0 0"/><path fill="#0486a4" d="m363.504 86.809 1.55-.34-1.124 1.414Zm0 0"/><path fill="#0287a4" d="m365.055 86.469-1.551.34-8.54-22.41Zm0 0"/><path fill="#0884a3" d="m354.965 64.398-39.04-10.496L339.7 0Zm0 0"/><path fill="#fd546f" d="m275.707 117.434 15.93-13.887 34.082 8.52Zm0 0"/><path fill="#fead7b" d="m248.55 133.734-1.964-21.601 29.121 5.3Zm0 0"/><path fill="#fd546f" d="m113.594 147.078 16.375-23.223 7.926 15.684Zm0 0"/><path fill="#fd546e" d="m129.969 123.855 22.722-1.886-14.796 17.57Zm0 0"/><path fill="#fd546f" d="m152.691 121.969-2.214 31.035-12.582-13.465Zm0 0"/><path fill="#fd546f" d="m150.477 153.004 2.214-31.035 9.079-.63Zm0 0"/><path fill="#0187a4" d="m167.684 155.879-17.207-2.875 11.293-31.664ZM137.895 139.54l12.582 13.464-13.38-6.902Zm0 0"/><path fill="#0585a3" d="m149.336 42.145 40.773 9.722-19.086 24.426Zm0 0"/><path fill="#0187a4" d="m190.992 116.125-29.222 5.215 24.253-20.926ZM209.422 81.121l-23.399 19.293-15-24.121Zm0 0"/><path fill="#0486a4" d="m190.11 51.867 19.312 29.254-38.399-4.828Zm0 0"/><path fill="#197ba0" d="m285.203 185.61-5.469-24.317 13.313-2.297Zm0 0"/><path fill="#fe7974" d="m281.832 191.352-2.098-30.059 5.47 24.316Zm0 0"/><path fill="#0585a4" d="m314.621 187.832-.605-26.098 17.484 5.707Zm0 0"/><path fill="#fecf7f" d="m314.016 161.734.605 26.098-29.418-2.223Zm0 0"/><path fill="#fecd7f" d="m293.047 158.996 20.969 2.738-28.813 23.875Zm0 0"/><path fill="#fecf7f" d="m305.273 145.758 8.743 15.976-20.97-2.738Zm0 0"/><path fill="#0287a4" d="m354.3 193.441-22.8-26 23.617-19.043Zm0 0"/><path fill="#0187a4" d="m383.996 132.16.004 64.89-28.883-48.652Zm0 0"/><path fill="#0885a4" d="m369.863 112.762 14.133 19.398-20.383-14.8Zm0 0"/><path fill="#fd546f" d="m369.863 112.762-9.976-8.778 24.133-2.55ZM359.887 103.984l4.043-16.101 20.09 13.55Zm0 0"/><path fill="#fd556f" d="m359.887 103.984 9.976 8.778-6.25 4.597Zm0 0"/><path fill="#1a799f" d="m61.828 205.871 18.285-27.988 4.164 26.742Zm0 0"/><path fill="#29729b" d="m85.574 209.277-23.746-3.406 22.45-1.246Zm0 0"/><path fill="#3487a9" d="m218.035 152.043 33.328-3.89-17.836 20.921Zm0 0"/><path fill="#0386a4" d="m218.035 152.043 30.516-18.309 2.812 14.418Zm0 0"/><path fill="#fd566f" d="m54.027 142.145.371-10.012 20.254-7.473Zm0 0"/><path fill="#feb67c" d="m54.398 132.133-8.78-8.36 29.034.887Zm0 0"/><path fill="#fd556f" d="m45.617 123.773 8.41 18.372-15.492-5.993ZM54.398 132.133l-.37 10.012-8.41-18.372Zm0 0"/><path fill="#0187a4" d="m129.969 123.855-19.696-.644 6.852-11.156Zm0 0"/><path fill="#fd546f" d="m110.273 123.21 19.696.645-16.375 23.223Zm0 0"/><path fill="#53355a" d="m86.43 158.273.949 21.684-7.266-2.074Zm0 0"/><path fill="#403458" d="m86.43 158.273-10.715-5.214 4.879-6.93Zm0 0"/><path fill="#3f3157" d="m75.715 153.059 10.715 5.214-6.317 19.61Zm0 0"/><path fill="#fea57a" d="m264.059 215.188-3.606-16.793 21.379-7.043Zm0 0"/><path fill="#fe556f" d="m281.832 191.352-21.379 7.043-4.45-19.063Zm0 0"/><path fill="#0187a4" d="m240.484 261.852-13.027 23.453-14.379-18.61Zm0 0"/><path fill="#fe546f" d="m233.277 216.004-15.535 9.805-10.398-10.692Zm0 0"/><path fill="#fec47e" d="m202.121 185.809 31.156 30.195-25.933-.887Zm0 0"/><path fill="#fe5f70" d="m276.121 131.09-27.57 2.644 27.156-16.3Zm0 0"/><path fill="#29759e" d="m248.55 133.734 27.571-2.644-24.758 17.062Zm0 0"/><path fill="#0f7fa1" d="m256.723 174.57-.72 4.762-22.476-10.258Zm0 0"/><path fill="#177ca0" d="m251.363 148.152 5.36 26.418-23.196-5.496Zm0 0"/><path fill="#0386a4" d="M315.926 53.902 303.94 78.863l-23.023-15.218Zm0 0"/><path fill="#0187a4" d="m280.918 63.645 23.023 15.218-14.203 15.219Zm0 0"/><path fill="#0287a4" d="m303.941 78.863 2.762 13.055-16.965 2.164ZM354.965 64.398l-18.797 22.247-1.488-2.606Zm0 0"/><path fill="#0585a4" d="m315.926 53.902 39.039 10.496L334.68 84.04Zm0 0"/><path fill="#fe546f" d="m306.703 91.918 29.465-5.273-10.45 25.421ZM336.168 86.645l23.719 17.34-34.168 8.081Zm0 0"/><path fill="#fefcfe" d="m145.176 373.023-6.117-27.332 21.527 9.797Zm0 0"/><path fill="#0985a4" d="m146.023 319.82-6.964 25.871-11.914-18.183Zm0 0"/><path fill="#0d82a3" d="m160.586 355.488-21.527-9.797 21.02-8.765Zm0 0"/><path fill="#0884a3" d="m139.059 345.691 6.964-25.87 14.055 17.105Zm0 0"/><path fill="#0f84a4" d="m134.832 369.238 10.344 3.785-11.953 10.965Zm0 0"/><path fill="#e4d5c3" d="m109.883 360.34 24.949 8.898-1.61 14.75Zm0 0"/><path fill="#fefcfd" d="m139.059 345.691-4.227 23.547-24.95-8.898Zm0 0"/><path fill="#fefbfb" d="m134.832 369.238 4.227-23.547 6.117 27.332Zm0 0"/><path fill="#0187a4" d="m173.414 280.527-28.398 8.266 9.109-31.473Zm0 0"/><path fill="#0187a4" d="m168.637 259.633 4.777 20.894-19.289-23.207Zm0 0"/><path fill="#fd546f" d="m173.414 280.527-4.777-20.894 14.57 5.308Zm0 0"/><path fill="#0884a3" d="m59.203 327.516 9.09 23.511-35.664-3.218Zm0 0"/><path fill="#fdf8f5" d="m68.293 351.027-22.102 24.88-13.562-28.098Zm0 0"/><path fill="#f6e7d4" d="m68.293 351.027 5.05 24.938-27.152-.059Zm0 0"/><path fill="#0b83a2" d="m79.215 328.309-6.047-21.282 19.781 10.047Zm0 0"/><path fill="#0b82a2" d="m73.168 307.027 6.047 21.282-20.012-.793Zm0 0"/><path fill="#0287a4" d="m38.625 304.75 34.543 2.277-13.965 20.489Zm0 0"/><path fill="#fe7273" d="m114.621 231.266 3.352 20.21-17.567-2.148Zm0 0"/><path fill="#fe546f" d="m117.973 251.477-3.352-20.211 8.008 19.496Zm0 0"/><path fill="#fe546f" d="m117.973 251.477 4.656-.715-.399 16.05Zm0 0"/><path fill="#fd546f" d="m122.629 250.762 6.02 1.386-6.419 14.665Zm0 0"/><path fill="#fe546f" d="m100.406 249.328 17.567 2.149 4.257 15.335Zm0 0"/><path fill="#0585a4" d="m100.406 249.328 8.39 20.969-38.112-1.688Zm0 0"/><path fill="#fd546f" d="m108.797 270.297-8.39-20.969 21.823 17.484Zm0 0"/><path fill="#0386a4" d="m315.238 384 38.754-17.91L383.996 384Zm0 0"/><path fill="#0486a4" d="m341.129 341.719-20.938 15.527-6.625-19.52Zm0 0"/><path fill="#0b82a2" d="m320.191 357.246-19.117-5.176 12.492-14.343Zm0 0"/><path fill="#0586a4" d="m353.992 366.09-33.8-8.844 20.937-15.527Zm0 0"/><path fill="#0287a4" d="m355.043 206.992-8.176 13.668-27.234-25.203Zm0 0"/><path fill="#0386a4" d="m355.043 206.992-35.41-11.535 34.668-2.016Zm0 0"/><path fill="#0785a4" d="m325.879 253.3 13.621-18.726 6.285 22.258Zm0 0"/><path fill="#0486a4" d="m319.195 231.008 6.684 22.293-12.024-8.649Zm0 0"/><path fill="#0485a4" d="m325.879 253.3-6.684-22.292 20.305 3.566Zm0 0"/><path fill="#0a83a3" d="m182.41 363.285 34.332-5.23L188.52 384Zm0 0"/><path fill="#0685a3" d="m216.742 358.055-17.148-20.04 33.18-8.718ZM199.594 338.016l17.148 20.039-34.332 5.23Zm0 0"/><path fill="#0784a3" d="m238.75 384-22.008-25.945 31.985-6.95Zm0 0"/><path fill="#0c81a2" d="m280.89 350.324-11.456-9.383 19.925-5.449Zm0 0"/><path fill="#137ea1" d="m301.074 352.07-20.183-1.746 8.468-14.832Zm0 0"/><path fill="#0883a3" d="m269.434 340.941-6.625 22.36-14.082-12.196Zm0 0"/><path fill="#0e81a2" d="m269.434 340.941 11.457 9.383-18.082 12.977Zm0 0"/><path fill="#0187a4" d="m206.52 293.137-27.891 18.531 11.46-29.184ZM206.52 293.137l-16.43-10.653 22.988-15.789Zm0 0"/><path fill="#0187a4" d="m227.457 285.305-20.937 7.832 6.558-26.442Zm0 0"/><path fill="#0287a4" d="m199.594 338.016-20.965-26.348 30.031 1.668Zm0 0"/><path fill="#0485a4" d="m146.023 319.82 32.606-8.152-18.55 25.258Zm0 0"/><path fill="#0187a4" d="m178.629 311.668 27.89-18.531 2.141 20.199ZM235.484 300.793l-12.812 1.793 4.785-17.281Zm0 0"/><path fill="#0187a4" d="m206.52 293.137 16.152 9.449-14.012 10.75Zm0 0"/><path fill="#0187a4" d="m222.672 302.586-16.152-9.45 20.937-7.831ZM145.016 288.793l-16.368-36.645 25.477 5.172Zm0 0"/><path fill="#fd546e" d="m172.422 245.57-3.785 14.063-14.512-2.313Zm0 0"/><path fill="#fd546f" d="m172.422 245.57 18.027-2.91-21.812 16.973Zm0 0"/><path fill="#fd546f" d="m168.637 259.633 21.812-16.973-7.242 22.281Zm0 0"/><path fill="#0187a4" d="m198.043 260.8-7.594-18.14 13-.512Zm0 0"/><path fill="#fe546f" d="m190.45 242.66 7.593 18.14-14.836 4.141Zm0 0"/><path fill="#fe8175" d="m207.344 215.117-2.762 10.051-42.531-1.277Zm0 0"/><path fill="#0586a4" d="m99.914 233.207 14.707-1.941-14.215 18.062Zm0 0"/><path fill="#137da0" d="m114.621 231.266-14.707 1.941-14.34-23.93Zm0 0"/><path fill="#1b789e" d="m85.574 209.277 14.34 23.93-20.387-16.816Zm0 0"/><path fill="#0386a4" d="m99.914 233.207.492 16.121-20.879-32.937Zm0 0"/><path fill="#fece7f" d="m87.379 179.957 16.91 8.043L102 207.996Zm0 0"/><path fill="#2b719b" d="M87.379 179.957 102 207.997l-17.723-3.372Zm0 0"/><path fill="#f15b6e" d="m80.113 177.883 7.266 2.074-3.102 24.668Zm0 0"/><path fill="#fe546f" d="m166.902 189.012-39.293-9.262 20.676-14.64Zm0 0"/><path fill="#fe546f" d="m127.61 179.75-14.016-32.672 34.691 18.031Zm0 0"/><path fill="#0187a4" d="m98.113 299.016 14.758 24.171-19.922-6.113Zm0 0"/><path fill="#0984a3" d="m112.871 323.188-11.285 9.519-8.637-15.633Zm0 0"/><path fill="#0187a4" d="m125.07 304.645-16.273-34.348 36.219 18.496Zm0 0"/><path fill="#0187a4" d="m125.07 304.645-26.957-5.63 10.684-28.718Zm0 0"/><path fill="#0884a3" d="m112.871 323.188 12.2-18.543 2.074 22.863Zm0 0"/><path fill="#0187a4" d="m125.07 304.645-12.199 18.543-14.758-24.172ZM146.023 319.82l-20.953-15.175 19.946-15.852Zm0 0"/><path fill="#0286a4" d="m125.07 304.645 20.953 15.175-18.878 7.688Zm0 0"/><path fill="#0983a3" d="M354.965 64.398 339.699 0 384 61.66Zm0 0"/><path fill="#0386a4" d="m363.504 86.809-27.336-.164 18.797-22.247Zm0 0"/><path fill="#fd546f" d="m275.707 117.434 8.309 11.62-7.895 2.036Zm0 0"/><path fill="#0585a3" d="m284.016 129.055 21.257 16.703-12.226 13.238Zm0 0"/><path fill="#0386a4" d="m314.016 161.734 11.59-12.062 5.894 17.77ZM325.605 149.672l-11.59 12.062-8.742-15.976Zm0 0"/><path fill="#0187a4" d="m129.969 123.855 23.644-18.316-.922 16.43ZM153.613 105.54l8.157 15.8-9.079.629ZM186.023 100.414l-32.41 5.125 17.41-29.246Zm0 0"/><path fill="#0187a4" d="m161.77 121.34-8.157-15.8 32.41-5.126Zm0 0"/><path fill="#fd546e" d="m190.992 116.125-1.254 15.465-27.968-10.25Zm0 0"/><path fill="#fd546f" d="m189.738 131.59-22.054 24.289-5.914-34.54Zm0 0"/><path fill="#0187a4" d="m167.684 155.879 22.054-24.29 4.606 16.497ZM190.992 116.125l-4.969-15.71 21.641 12.07Zm0 0"/><path fill="#fe556f" d="m150.477 153.004 17.207 2.875-19.399 9.23Zm0 0"/><path fill="#0287a4" d="m150.477 153.004-36.883-5.926 23.504-.976Zm0 0"/><path fill="#fe546f" d="m113.594 147.078 36.883 5.926-2.192 12.105Zm0 0"/><path fill="#0883a3" d="m284.016 129.055-4.282 32.238-3.613-30.203Zm0 0"/><path fill="#0883a3" d="m279.734 161.293 4.282-32.238 9.03 29.941Zm0 0"/><path fill="#0287a4" d="m383.996 132.16-28.879 16.238 8.496-31.039Zm0 0"/><path fill="#0187a4" d="m328.297 121.559 26.82 26.84-29.512 1.273ZM355.117 148.398l-26.82-26.84 35.316-4.199Zm0 0"/><path fill="#0386a4" d="m54.027 142.145 21.688 10.914 4.398 24.824Zm0 0"/><path fill="#cb5f70" d="m61.828 205.871-7.8-63.726 26.085 35.738Zm0 0"/><path fill="#0386a4" d="m54.027 142.145 7.801 63.726-23.293-69.719Zm0 0"/><path fill="#0b84a3" d="m218.035 152.043 15.492 17.031-21.597-3.687Zm0 0"/><path fill="#0885a4" d="m202.246 154.723 15.79-2.68-6.106 13.344Zm0 0"/><path fill="#0187a4" d="m218.035 152.043-15.789 2.68 3.164-17.133ZM218.074 139.195l-.039 12.848-12.625-14.453Zm0 0"/><path fill="#0386a4" d="m218.035 152.043.04-12.848 30.476-5.46Zm0 0"/><path fill="#fd546f" d="m218.074 139.195-9.36-14.996 37.872-12.066ZM248.55 133.734l-30.476 5.461 28.512-27.062Zm0 0"/><path fill="#fe546f" d="m97.363 154.02 16.23-6.942 14.016 32.672Zm0 0"/><path fill="#fd546f" d="m282.809 219.316 10.367-6.875.36 18.965Zm0 0"/><path fill="#0b82a2" d="m293.176 212.441-10.367 6.875-18.75-4.129Zm0 0"/><path fill="#fecf7f" d="m260.453 198.395-27.176 17.609-.793-28.438Zm0 0"/><path fill="#fe9778" d="m233.277 216.004-31.156-30.195 30.363 1.757Zm0 0"/><path fill="#0486a4" d="m334.68 84.04-30.739-5.177 11.985-24.96Zm0 0"/><path fill="#0187a4" d="m303.941 78.863 30.739 5.176-27.977 7.879Zm0 0"/><path fill="#fb556f" d="m334.68 84.04 1.488 2.605-29.465 5.273Zm0 0"/><path fill="#feedda" d="m101.586 332.707 16.348 5.254-8.051 22.379Zm0 0"/><path fill="#f1dac2" d="m117.934 337.96 21.125 7.731-29.176 14.649Zm0 0"/><path fill="#fbfafb" d="m139.059 345.691-21.125-7.73 9.21-10.453Zm0 0"/><path fill="#0785a4" d="M383.996 355.098V384l-30.004-17.91Zm0 0"/><path fill="#0b82a2" d="m282.71 383.98 20.661-14.671L315.238 384Zm0 0"/><path fill="#0785a4" d="m362.645 340.871-21.516.848 15.492-13.383Zm0 0"/><path fill="#b1b7b5" d="m384.008 318.402-21.363 22.47-6.024-12.536Zm0 0"/><path fill="#1380a2" d="m362.645 340.871 21.363-22.469-.012 36.696Zm0 0"/><path fill="#eceae3" d="m326.578 303.523-27.805 15.188 12.98-26.09Zm0 0"/><path fill="#0685a3" d="m333.383 319.074 7.746 22.645-27.563-3.992Zm0 0"/><path fill="#0984a3" d="m298.773 318.71 34.61.364-19.817 18.653Zm0 0"/><path fill="#e0e4e5" d="m326.578 303.523 6.805 15.551-34.61-.363Zm0 0"/><path fill="#0a83a3" d="m341.129 341.719-7.746-22.645 23.238 9.262Zm0 0"/><path fill="#fbe7d5" d="m262.3 301.875-26.816-1.082 13.36-14.711Zm0 0"/><path fill="#eaedf0" d="m235.484 300.793 26.817 1.082-10.664 18.86Zm0 0"/><path fill="#f9f9fb" d="m301.309 277.906 16.375 2.84-5.93 11.875Zm0 0"/><path fill="#fcfafd" d="m384 254.172-10.793-9.14 10.797-1.497Zm0 0"/><path fill="#0486a4" d="m373.824 228.645-26.957-7.985 8.176-13.668Zm0 0"/><path fill="#fd546f" d="m346.867 220.66 26.957 7.985-13.363 6.378Zm0 0"/><path fill="#0486a4" d="m373.824 228.645-.617 16.386-12.746-10.008Zm0 0"/><path fill="#0287a4" d="m384 197.05-10.176 31.595-18.781-21.653Zm0 0"/><path fill="#0586a4" d="M373.824 228.645 384 197.05l.004 46.484Zm0 0"/><path fill="#0884a3" d="m373.207 245.031.617-16.386 10.18 14.89Zm0 0"/><path fill="#faf7f5" d="m367.621 307.867 16.375-26.52.012 37.055Zm0 0"/><path fill="#eae7e1" d="m367.621 307.867 16.387 10.535-27.387 9.934Zm0 0"/><path fill="#fdf8f7" d="m383.996 281.348-16.27-25.508L384 254.172Zm0 0"/><path fill="#fcfbfd" d="m367.727 255.84 5.48-10.809 10.793 9.14Zm0 0"/><path fill="#f5f7fa" d="m360.46 235.023 7.267 20.817-21.942.992Zm0 0"/><path fill="#b6cfdd" d="m373.207 245.031-5.48 10.809-7.266-20.817Zm0 0"/><path fill="#137ea1" d="m293.176 212.441 18.82-17.742 1.332.75Zm0 0"/><path fill="#157da1" d="m319.195 231.008-26.02-18.567 20.153-16.992Zm0 0"/><path fill="#0c81a2" d="m291.633 209.027 1.543 3.414-29.117 2.746Zm0 0"/><path fill="#fecd7f" d="m293.176 212.441-1.543-3.414 20.363-14.328Zm0 0"/><path fill="#0386a4" d="m325.879 253.3-15.41.387 3.386-9.035Zm0 0"/><path fill="#0486a4" d="m310.469 253.688 15.41-.387-8.195 27.445Zm0 0"/><path fill="#0386a4" d="m301.309 277.906 9.16-24.219 7.215 27.06Zm0 0"/><path fill="#0287a4" d="m310.469 253.688-16.934-22.282 20.32 13.246Zm0 0"/><path fill="#0187a4" d="m310.469 253.688-9.16 24.218-7.774-46.5Zm0 0"/><path fill="#0287a4" d="m293.535 231.406 25.66-.398-5.34 13.644Zm0 0"/><path fill="#fd546f" d="m293.176 212.441 26.02 18.567-25.66.398Zm0 0"/><path fill="#0f7fa1" d="m321.121 218.277-1.926 12.73.438-35.55Zm0 0"/><path fill="#0386a4" d="m346.867 220.66-25.746-2.383-1.488-22.82Zm0 0"/><path fill="#fd546f" d="m339.5 234.574-18.379-16.297 25.746 2.383Zm0 0"/><path fill="#fd546e" d="m319.195 231.008 1.926-12.73 18.379 16.296Zm0 0"/><path fill="#0a83a3" d="m188.52 384 28.222-25.945L238.75 384Zm0 0"/><path fill="#0784a3" d="m248.727 351.105-31.985 6.95 16.031-28.758Zm0 0"/><path fill="#0585a4" d="m255.504 332.11-6.777 18.995-15.954-21.808Zm0 0"/><path fill="#0a82a3" d="m269.434 340.941-20.707 10.164 6.777-18.996Zm0 0"/><path fill="#edd9ba" d="m281.344 372.43-.453-22.106 20.183 1.746Zm0 0"/><path fill="#f5e5d2" d="m280.89 350.324.454 22.106-18.535-9.13Zm0 0"/><path fill="#147da0" d="m281.344 372.43 1.367 11.55-19.902-20.68Zm0 0"/><path fill="#117fa1" d="m281.344 372.43 22.027-3.121-20.66 14.671Zm0 0"/><path fill="#fdf1e3" d="m303.371 369.309-22.027 3.12 19.73-20.359Zm0 0"/><path fill="#0585a4" d="M262.809 363.3 238.75 384l9.977-32.895Zm0 0"/><path fill="#0d81a2" d="m282.71 383.98-43.96.02 24.059-20.7Zm0 0"/><path fill="#0585a4" d="m178.629 311.668-3.11 31.45-15.44-6.192Zm0 0"/><path fill="#0a83a3" d="m175.52 343.117-14.934 12.371-.508-18.562Zm0 0"/><path fill="#0984a3" d="m175.52 343.117 6.89 20.168-21.824-7.797Zm0 0"/><path fill="#0486a4" d="m175.52 343.117 3.109-31.449 20.965 26.348Zm0 0"/><path fill="#0784a3" d="m175.52 343.117 24.074-5.101-17.184 25.27Zm0 0"/><path fill="#0286a4" d="m199.594 338.016 9.066-24.68 24.113 15.96Zm0 0"/><path fill="#fd546e" d="m162.05 223.89 10.372 21.68-18.297 11.75Zm0 0"/><path fill="#0187a4" d="m190.45 242.66-.387-6.918 13.386 6.406ZM190.063 235.742l.386 6.918-18.027 2.91Zm0 0"/><path fill="#0187a4" d="m190.063 235.742-17.641 9.828-10.371-21.68Zm0 0"/><path fill="#0187a4" d="m204.582 225.168-14.52 10.574-28.011-11.851Zm0 0"/><path fill="#0187a4" d="m190.063 235.742 14.519-10.574-1.133 16.98Zm0 0"/><path fill="#fd546e" d="m128.45 223.203-5.821 27.559-8.008-19.496Zm0 0"/><path fill="#0187a4" d="m128.648 252.148-.199-28.945 33.602.688Zm0 0"/><path fill="#fd546f" d="m128.45 223.203 9.757-18.32 23.844 19.008ZM128.648 252.148l-6.02-1.386 5.821-27.559Zm0 0"/><path fill="#fe546f" d="m336.168 86.645 27.762 1.238-4.043 16.101Zm0 0"/><path fill="#fd546f" d="m363.93 87.883-27.762-1.238 27.336.164Zm0 0"/><path fill="#0187a4" d="m284.016 129.055 44.28-7.496-23.023 24.199Zm0 0"/><path fill="#fd546e" d="m328.297 121.559-44.281 7.496-8.309-11.621Zm0 0"/><path fill="#0187a4" d="m328.297 121.559-2.692 28.113-20.332-3.914Zm0 0"/><path fill="#fd546f" d="m328.297 121.559-52.59-4.125 50.012-5.368ZM208.715 124.2l-17.723-8.075 16.672-3.64Zm0 0"/><path fill="#fd546e" d="m190.992 116.125 17.723 8.074-18.977 7.39Zm0 0"/><path fill="#fd536e" d="m189.738 131.59 18.977-7.39-3.305 13.39Zm0 0"/><path fill="#fd546e" d="m208.715 124.2 9.36 14.995-12.665-1.605Zm0 0"/><path fill="#0386a4" d="m113.594 147.078-16.23 6.942-4.298-10.708Zm0 0"/><path fill="#f5c57d" d="m86.43 158.273 7.37.332-6.421 21.352Zm0 0"/><path fill="#0287a4" d="m234.684 227.582 22.668-.098 1.308 17.543Zm0 0"/><path fill="#0187a4" d="m217.328 239.5 17.356-11.918 5.8 34.27Zm0 0"/><path fill="#0187a4" d="m234.684 227.582 23.976 17.445-18.176 16.825Zm0 0"/><path fill="#0287a4" d="M234.684 227.582 217.328 239.5l.414-13.691ZM265.23 265.488l-24.746-3.636 18.176-16.825Zm0 0"/><path fill="#fa596f" d="m274.691 229.957 8.118-10.64 10.726 12.09Zm0 0"/><path fill="#fd546f" d="m264.059 215.188 10.632 14.769-17.34-2.473Zm0 0"/><path fill="#f8566f" d="m282.809 219.316-8.118 10.641-10.632-14.77Zm0 0"/><path fill="#fece7f" d="m233.277 216.004 27.176-17.61 3.606 16.793Zm0 0"/><path fill="#fe576f" d="m257.352 227.484-24.075-11.48 30.782-.816Zm0 0"/><path fill="#fd546f" d="m234.684 227.582-1.407-11.578 24.075 11.48Zm0 0"/><path fill="#fe556f" d="m233.277 216.004 1.407 11.578-16.942-1.773Zm0 0"/><path fill="#f8f8f9" d="m115.195 330.066-2.324-6.878 14.274 4.32Zm0 0"/><path fill="#faf9fb" d="m117.934 337.96-2.739-7.894 11.95-2.558Zm0 0"/><path fill="#fcfafc" d="m112.871 323.188 2.324 6.878-13.61 2.641Zm0 0"/><path fill="#fdfcfe" d="m115.195 330.066 2.739 7.895-16.348-5.254Zm0 0"/><path fill="#0585a4" d="M100.406 249.328 70.684 268.61l8.843-52.218Zm0 0"/><path fill="#faf0e4" d="m315.957 368.2 4.234-10.954 33.801 8.844Zm0 0"/><path fill="#fbead2" d="m315.957 368.2-12.586 1.109-2.297-17.239Zm0 0"/><path fill="#f9e5c9" d="m320.191 357.246-4.234 10.953-14.883-16.129Zm0 0"/><path fill="#0d82a2" d="m303.371 369.309 12.586-1.11-.719 15.801Zm0 0"/><path fill="#0486a4" d="m315.957 368.2 38.035-2.11L315.238 384Zm0 0"/><path fill="#0585a4" d="m362.645 340.871-8.653 25.219-12.863-24.371Zm0 0"/><path fill="#0785a4" d="m362.645 340.871 21.351 14.227-30.004 10.992Zm0 0"/><path fill="#fbfafd" d="m317.684 280.746 13.515 1.668-19.445 10.207Zm0 0"/><path fill="#e8ebec" d="m331.2 282.414-4.622 21.11-14.824-10.903Zm0 0"/><path fill="#dfe1da" d="m355.383 300.273-22 18.801-6.805-15.55Zm0 0"/><path fill="#c3d4d0" d="m333.383 319.074 22-18.8 1.238 28.062Zm0 0"/><path fill="#dee2de" d="m355.383 300.273 12.238 7.594-11 20.469Zm0 0"/><path fill="#0784a3" d="m298.773 318.71 14.793 19.017-24.207-2.235Zm0 0"/><path fill="#fefbfc" d="m262.16 277.523.14 24.352-13.456-15.793Zm0 0"/><path fill="#fefcfe" d="m262.3 301.875-.14-24.352 12.567 10.817Zm0 0"/><path fill="#0287a4" d="m240.484 261.852 21.676 15.671-13.316 8.559Zm0 0"/><path fill="#0287a4" d="m265.23 265.488-3.07 12.035-21.676-15.671Zm0 0"/><path fill="#e6e6e3" d="m262.3 301.875 12.337 16.36-23 2.5Zm0 0"/><path fill="#0b82a2" d="m255.504 332.11 19.133-13.876-5.203 22.707Zm0 0"/><path fill="#0983a3" d="m274.637 318.234-19.133 13.875-3.867-11.375ZM269.434 340.941l5.203-22.707 14.722 17.258Zm0 0"/><path fill="#0586a4" d="m274.637 318.234 24.136.477-9.414 16.781Zm0 0"/><path fill="#fae3cd" d="m281.86 300.598-19.56 1.277 12.427-13.535Zm0 0"/><path fill="#d5ccc5" d="m274.637 318.234 7.222-17.636 16.914 18.113Zm0 0"/><path fill="#f1d9c9" d="m281.86 300.598-7.223 17.636-12.336-16.359Zm0 0"/><path fill="#fefcfe" d="m262.16 277.523 12.086.7.48 10.117Zm0 0"/><path fill="#0485a4" d="m274.246 278.223-12.086-.7 3.07-12.035Zm0 0"/><path fill="#faf6f5" d="m383.996 281.348-16.375 26.52-12.238-7.595Zm0 0"/><path fill="#0386a4" d="m232.773 329.297-10.101-26.711 12.812-1.793Zm0 0"/><path fill="#0187a4" d="m232.773 329.297-24.113-15.961 14.012-10.75Zm0 0"/><path fill="#0585a3" d="m232.773 329.297 2.711-28.504 16.153 19.941Zm0 0"/><path fill="#0187a4" d="m131.883 85.48-1.914 38.375-12.844-11.8Zm0 0"/><path fill="#0187a4" d="m131.883 85.48 21.73 20.06-23.644 18.315ZM131.883 85.48l39.14-9.187-17.41 29.246Zm0 0"/><path fill="#0b82a2" d="m131.883 85.48-46.45-28.742 63.903-14.593Zm0 0"/><path fill="#0585a4" d="m171.023 76.293-39.14 9.187 17.453-43.335Zm0 0"/><path fill="#fe8c76" d="M106.309 173.785 104.289 188l-16.91-8.043Zm0 0"/><path fill="#fece7f" d="m93.8 158.605 12.509 15.18-18.93 6.172Zm0 0"/><path fill="#fe556f" d="m106.309 173.785 21.3 5.965-23.32 8.25Zm0 0"/><path fill="#fe546f" d="M106.309 173.785 93.8 158.605l3.562-4.585ZM106.309 173.785l-8.946-19.765 30.246 25.73Zm0 0"/><path fill="#fdcf7f" d="m90.777 153.082 3.024 5.523-7.371-.332Zm0 0"/><path fill="#fecf7f" d="m93.8 158.605-3.023-5.523 6.586.938ZM90.777 153.082l-4.347 5.191-5.836-12.144Zm0 0"/><path fill="#fecf7f" d="m93.066 143.313-2.289 9.769-10.183-6.953ZM97.363 154.02l-6.586-.938 2.29-9.77Zm0 0"/><path fill="#0287a4" d="m274.691 229.957-16.03 15.07-1.31-17.543Zm0 0"/><path fill="#f1efe8" d="m331.2 282.414 24.183 17.86-28.805 3.25Zm0 0"/><path fill="#529cb6" d="m331.2 282.414-5.321-29.113 19.906 3.531Zm0 0"/><path fill="#0884a3" d="m325.879 253.3 5.32 29.114-13.515-1.668Zm0 0"/><path fill="#f1dbc9" d="m281.86 300.598 15.066-8.11 1.847 26.223Zm0 0"/><path fill="#fcfafa" d="m296.926 292.488 4.383-14.582 10.445 14.715Zm0 0"/><path fill="#f2ece2" d="m298.773 318.71-1.847-26.222 14.828.133Zm0 0"/><path fill="#0187a4" d="m301.309 277.906-21.036-20.699 13.262-25.8Zm0 0"/><path fill="#0286a4" d="m280.273 257.207-5.582-27.25 18.844 1.45Zm0 0"/><path fill="#0386a4" d="m280.273 257.207-6.027 21.016-9.016-12.735Zm0 0"/><path fill="#0287a4" d="m258.66 245.027 21.613 12.18-15.043 8.281Zm0 0"/><path fill="#0286a4" d="m280.273 257.207-21.613-12.18 16.031-15.07Zm0 0"/><path fill="#c0d0c9" d="m355.426 277.469-.043 22.804-24.184-17.859Zm0 0"/><path fill="#d9dfe1" d="m355.426 277.469 28.57 3.879-28.613 18.925Zm0 0"/><path fill="#f5f5f5" d="m355.426 277.469 12.3-21.63 16.27 25.509Zm0 0"/><path fill="#f0edef" d="m367.727 255.84-12.301 21.629-9.64-20.637Zm0 0"/><path fill="#c6e1df" d="m355.426 277.469-24.227 4.945 14.586-25.582Zm0 0"/><path fill="#fefcfe" d="m296.926 292.488-9.844-12.148 14.227-2.434Zm0 0"/><path fill="#0386a4" d="m287.082 280.34-6.809-23.133 21.036 20.7Zm0 0"/><path fill="#0485a4" d="m280.273 257.207 6.809 23.133-12.836-2.117Zm0 0"/><path fill="#fbfafd" d="m274.246 278.223 12.836 2.117-12.355 8Zm0 0"/><path fill="#fae6db" d="m287.082 280.34-5.223 20.258-7.132-12.258Zm0 0"/><path fill="#fdf6f1" d="m287.082 280.34 9.844 12.148-15.067 8.11Zm0 0"/></svg>