<svg xmlns="http://www.w3.org/2000/svg" width="512" height="512" viewBox="0 0 384 384"><path fill="#788a87" d="m384 213.61-21.379-14.794 21.383-40.875Zm0 0"/><path fill="#788a87" d="m384.004 157.941-21.383 40.875-6.445-35.046Zm0 0"/><path fill="#778986" d="m0 241.742 33.84-38.656 7.012 34.672Zm0 0"/><path fill="#778986" d="M0 241.742V170.23l33.84 32.856Zm0 0"/><path fill="#788a87" d="m0 241.742 49.492 43.711L0 316.012ZM288.047 70.809l12.027 22.726-17.992.406ZM288.047 70.809l-27.684 10.824 2.16-33.742ZM362.621 198.816l-14.117-6.082 7.672-28.964Zm0 0"/><path fill="#778986" d="M17.648 128.367 0 170.23v-65.484ZM17.648 128.367l20.524 21.867L0 170.23ZM0 170.23l51.465-4.234-17.625 37.09Zm0 0"/><path fill="#778986" d="m38.172 150.234 13.293 15.762L0 170.23Zm0 0"/><path fill="#788a87" d="M137.754 43.91 156.266 0l18.52 32.227ZM33.574 58.527 0 57.625V0Zm0 0"/><path fill="#788a87" d="m58.254 0-24.68 58.527L0 0ZM119.105 81.93l-31.347-28.7 49.996-9.32ZM119.105 81.93 93.172 98.707 87.758 53.23Zm0 0"/><path fill="#983c40" d="m238.648 189.809-24.218-22.004 25.086 3.672Zm0 0"/><path fill="#778986" d="m214.43 167.805 10.84-14.832 14.246 18.504Zm0 0"/><path fill="#983c40" d="m257.18 176.563-18.532 13.246.868-18.332Zm0 0"/><path fill="#788a87" d="M38.844 349.578 64.828 384H0Zm0 0"/><path fill="#788a87" d="m49.977 323.207 16.015 20.742-27.148 5.63ZM0 316.012l49.977 7.195-11.133 26.371Zm0 0"/><path fill="#788a87" d="M49.977 323.207 0 316.012l49.492-30.559ZM0 241.742l40.852-3.984 8.64 47.695Zm0 0"/><path fill="#2e222f" d="m196.27 162.867-14.797 16.446-6.422-21.602Zm0 0"/><path fill="#983c40" d="m163.195 224.074 2.93-25.035 11.668 25.332Zm0 0"/><path fill="#2e222f" d="m194.246 216.586-12.773-37.274 27.859 22.532Zm0 0"/><path fill="#2e222f" d="m209.531 216.188-15.285.398 15.086-14.742Zm0 0"/><path fill="#993d40" d="m194.246 216.586-28.121-17.547 15.348-19.726Zm0 0"/><path fill="#983d40" d="m166.125 199.04 28.121 17.546-16.453 7.785ZM166.125 199.04l-24.98 11.405-.47-23.433Zm0 0"/><path fill="#788a87" d="m288.047 70.809-5.965 23.132-21.719-12.308Zm0 0"/><path fill="#2e222f" d="m282.082 93.941 6.457 21.551-14.137-1.789Zm0 0"/><path fill="#788a87" d="m262.078 100.66-19.808 4.836 18.093-23.863Zm0 0"/><path fill="#788a87" d="m282.082 93.941-20.004 6.72-1.715-19.028Zm0 0"/><path fill="#2f222f" d="m262.078 100.66 20.004-6.719-7.68 19.762Zm0 0"/><path fill="#788a87" d="m260.363 81.633-22.601-6.746 24.761-26.996Zm0 0"/><path fill="#788a87" d="m242.27 105.496-4.508-30.61 22.601 6.747Zm0 0"/><path fill="#2e222f" d="m211.406 111.66 30.864-6.164-5.887 16.484Zm0 0"/><path fill="#788a87" d="m237.762 74.887-12.215-27.63 36.976.634ZM225.547 47.258l12.215 27.629-31.617 2.5ZM225.547 47.258l-19.402 30.129-8.567-31.727ZM315.898 31.879 270.746 0h46.57Zm0 0"/><path fill="#788a87" d="m270.746 0 45.152 31.879-53.375 16.012ZM242.55 26.766l-17.003 20.492L209.71 0ZM270.746 0l-28.195 26.766L209.71 0Zm0 0"/><path fill="#788a87" d="M242.55 26.766 270.747 0l-8.223 47.89Zm0 0"/><path fill="#993d40" d="m300.14 176.941 12.184 17.575-31.586-10.27Zm0 0"/><path fill="#983c40" d="m312.324 194.516 2.207-5.961 5.653 8.476Zm0 0"/><path fill="#993d40" d="m314.531 188.555-2.207 5.96-12.183-17.574Zm0 0"/><path fill="#778885" d="m384.008 100.324-4.543 6.508-.574-6.625Zm0 0"/><path fill="#788986" d="m348.504 192.734-4.984 15.254-23.336-10.957ZM348.504 192.734l-33.973-4.18 19.168-18.468Zm0 0"/><path fill="#983d41" d="m314.531 188.555 33.973 4.18-28.32 4.296Zm0 0"/><path fill="#788a87" d="m65.867 93.027-32.293-34.5 54.184-5.297Zm0 0"/><path fill="#788a87" d="m93.172 98.707-27.305-5.68 21.89-39.797ZM156.266 0h53.445l-34.926 32.227Zm0 0"/><path fill="#788a87" d="m209.71 0-12.132 45.66-22.793-13.433ZM225.547 47.258l-27.969-1.598L209.711 0ZM110.426 0h45.84l-18.512 43.91ZM110.426 0l27.328 43.91-49.996 9.32Zm0 0"/><path fill="#788a87" d="M87.758 53.23 58.254 0h52.172Zm0 0"/><path fill="#788a87" d="M33.574 58.527 58.254 0l29.504 53.23Zm0 0"/><path fill="#778986" d="m195.703 144.707.567 18.16-21.22-5.156ZM78.605 108.887l14.567-10.18-4.031 25.984Zm0 0"/><path fill="#cc683d" d="m74.96 125.57 3.645-16.683 10.536 15.804Zm0 0"/><path fill="#788a87" d="m78.605 108.887-12.738-15.86 27.305 5.68Zm0 0"/><path fill="#2e222f" d="m101.887 131.227-8.606 11.59-4.14-18.126ZM238.648 189.809l-32.578-12.864 8.36-9.14Zm0 0"/><path fill="#778986" d="m225.27 152.973 27.492-2.5-13.246 21.004Zm0 0"/><path fill="#788986" d="m262.746 170.754 15.777 14.797-21.343-8.988Zm0 0"/><path fill="#788a87" d="m278.523 185.55-15.777-14.796 15.879-14.164ZM155.563 349.258 187.105 384h-62.707ZM64.828 384l27.524-32.469L124.398 384Zm0 0"/><path fill="#788a87" d="m92.352 351.531 29.949-16.433L124.398 384ZM0 316.012l38.844 33.566L0 384ZM86.668 259.14l-37.176 26.313-8.64-47.695ZM155.563 349.258 193.46 333l-6.356 51Zm0 0"/><path fill="#2e222f" d="m181.473 179.313 24.597-2.368 3.262 24.899Zm0 0"/><path fill="#2e222f" d="m196.27 162.867 9.8 14.078-24.597 2.368Zm0 0"/><path fill="#778986" d="m166.027 229.895-2.832-5.82 14.598.296Zm0 0"/><path fill="#9a3e40" d="m158.488 173.191 16.563-15.48 6.422 21.601Zm0 0"/><path fill="#983d40" d="m166.125 199.04-7.637-25.849 22.985 6.121Zm0 0"/><path fill="#983c40" d="m158.488 173.191 7.637 25.848-25.45-12.027ZM142.734 163.54l15.754 9.651-17.812 13.82ZM184.605 261.207l7.926 17.395-11.644 1.906Zm0 0"/><path fill="#a6483f" d="m104.918 219.367-58.695-8.433L97.37 207.5Zm0 0"/><path fill="#778986" d="m46.223 210.934 53.086-12.797-1.938 9.363Zm0 0"/><path fill="#30222f" d="m99.309 198.137 5.609 21.23-7.547-11.867Zm0 0"/><path fill="#ca663c" d="m104.918 219.367-5.61-21.23 6.86-6.07Zm0 0"/><path fill="#2e222f" d="m141.145 210.445-7.52 10.094-9.324-16.836Zm0 0"/><path fill="#2f222f" d="m121.918 182.418 2.383 21.285-18.133-11.637Zm0 0"/><path fill="#983c40" d="m124.3 203.703-2.382-21.285 18.758 4.594ZM140.676 187.012l.469 23.433-16.844-6.742Zm0 0"/><path fill="#778986" d="m113.527 271.172 9.594-5.797 7.86 6.625Zm0 0"/><path fill="#788a87" d="M384 46.371 315.898 31.88 384 0ZM315.898 31.879 317.316 0H384Zm0 0"/><path fill="#2e222f" d="m302.441 104.836 13.016-14.629 3.258 18.398ZM302.441 104.836l-13.902 10.656-6.457-21.55ZM300.074 93.535l2.367 11.3-20.359-10.894Zm0 0"/><path fill="#2e222f" d="m315.457 90.207-13.016 14.629-2.367-11.3Zm0 0"/><path fill="#2f222f" d="m288.54 115.492-12.657 18.25-1.48-20.039Zm0 0"/><path fill="#2e222f" d="m242.27 105.496 8.75 13.004-14.637 3.48Zm0 0"/><path fill="#5c2d36" d="M262.078 100.66 251.02 118.5l-8.75-13.004Zm0 0"/><path fill="#2e222f" d="m129.18 142.27 14.515-6.18-1.375 9.168Zm0 0"/><path fill="#778986" d="m195.703 144.707-.433-5.906 19.625.336Zm0 0"/><path fill="#2e222f" d="m159.992 142.063-3.285-19.114 26.09 10.25Zm0 0"/><path fill="#788a87" d="m149.32 82.14-11.566-38.23 36.406 18.848Zm0 0"/><path fill="#788a87" d="M178.172 94.852 149.32 82.14l24.84-19.383ZM237.762 74.887 224.8 92.336l-18.656-14.95ZM206.145 77.387 224.8 92.336l-13.395 19.324Zm0 0"/><path fill="#788a87" d="m224.8 92.336 12.962-17.45 4.508 30.61Zm0 0"/><path fill="#788a87" d="m211.406 111.66 13.395-19.324 17.469 13.16ZM196.066 102.402l10.079-25.015 5.261 34.273Zm0 0"/><path fill="#778986" d="m189.77 117.137 6.296-14.735 15.34 9.258Zm0 0"/><path fill="#788a87" d="M288.047 70.809 262.523 47.89l53.375-16.012Zm0 0"/><path fill="#993d40" d="m280.738 184.246 12.754-25.363 6.649 18.058Zm0 0"/><path fill="#2e222f" d="m333.875 109.973-8.195 12.355-6.965-13.723Zm0 0"/><path fill="#788a87" d="m384.004 157.941-27.828 5.829 3.82-25.954Zm0 0"/><path fill="#778986" d="m379.465 106.832 4.543-6.508.004 5.676Zm0 0"/><path fill="#788986" d="m325.68 122.328 17.644-1.488-7.187 25.316Zm0 0"/><path fill="#2e222f" d="m343.324 120.84-17.644 1.488 8.195-12.355Zm0 0"/><path fill="#2e222f" d="m352.68 100.68-9.356 20.16-9.449-10.867Zm0 0"/><path fill="#2f222f" d="m343.324 120.84 9.356-20.16 16.316 15.277Zm0 0"/><path fill="#778986" d="m0 104.746 33.738-.023-16.09 23.644ZM33.738 104.723l13.332 18.722-29.422 4.922Zm0 0"/><path fill="#788a87" d="m33.574 58.527.164 46.196L0 104.746Zm0 0"/><path fill="#778986" d="m33.738 104.723 17.508 11.543-4.176 7.18Zm0 0"/><path fill="#788a87" d="m65.867 93.027-32.129 11.696-.164-46.196ZM51.246 116.266l-17.508-11.543 32.13-11.696Zm0 0"/><path fill="#778986" d="m17.648 128.367 23.809 6.813-3.285 15.054Zm0 0"/><path fill="#2e222f" d="m47.07 123.445-5.613 11.735-23.809-6.813Zm0 0"/><path fill="#788a87" d="M0 104.746V57.625l33.574.902Zm0 0"/><path fill="#778986" d="m33.84 203.086 12.383 7.848-5.371 26.824ZM200.938 161.11l-5.235-16.403 19.192-5.57Zm0 0"/><path fill="#2e222f" d="m195.703 144.707 5.234 16.402-4.667 1.758ZM206.07 176.945l-5.132-15.836 13.492 6.696Zm0 0"/><path fill="#2e2330" d="m200.938 161.11 5.132 15.835-9.8-14.078Zm0 0"/><path fill="#2e222f" d="m251.02 118.5.73 16.234-15.367-12.754Zm0 0"/><path fill="#788a86" d="m58.23 123.582-6.984-7.316 14.621-23.239Zm0 0"/><path fill="#778986" d="M78.605 108.887 58.23 123.582l7.637-30.555Zm0 0"/><path fill="#778986" d="m58.23 123.582 20.375-14.695-3.644 16.683ZM51.246 116.266l6.984 7.316-11.16-.137ZM74.828 163.563 67.242 141.5l11.664.418Zm0 0"/><path fill="#778986" d="m67.242 141.5 7.586 22.063-23.363 2.433Zm0 0"/><path fill="#2e222f" d="m78.906 141.918-11.664-.418 7.719-15.93Zm0 0"/><path fill="#cc683d" d="m78.906 141.918-3.945-16.348 14.18-.879Zm0 0"/><path fill="#cc673d" d="m93.281 142.816-14.375-.898 10.235-17.227Zm0 0"/><path fill="#778986" d="m93.172 98.707 7.387 23.434-11.418 2.55Zm0 0"/><path fill="#2e222f" d="m100.559 122.14 1.328 9.087-12.746-6.536Zm0 0"/><path fill="#778986" d="m100.559 122.14-7.387-23.433 21.914 9.793Zm0 0"/><path fill="#983c40" d="m259.32 190.129-20.672-.32 18.532-13.246Zm0 0"/><path fill="#9a3e40" d="m285.254 192.879-20.012 22.086 13.281-29.414Zm0 0"/><path fill="#993d40" d="m285.254 192.879-6.73-7.328 2.214-1.305Zm0 0"/><path fill="#993d40" d="m312.324 194.516-27.07-1.637-4.516-8.633Zm0 0"/><path fill="#2e222f" d="m209.332 201.844-3.262-24.899 32.578 12.864Zm0 0"/><path fill="#b57151" d="m277 141.813 1.625 14.777-25.863-6.117Zm0 0"/><path fill="#cc683d" d="m251.75 134.734 25.25 7.078-24.238 8.66Zm0 0"/><path fill="#788986" d="m262.746 170.754-6.55-6.66 22.429-7.504Zm0 0"/><path fill="#cc673d" d="m256.195 164.094 6.551 6.66-5.566 5.809ZM278.625 156.59l-22.43 7.504-3.433-13.621Zm0 0"/><path fill="#788a87" d="m170.102 275.469-19.043 6.363 15.675-20.043ZM38.844 349.578l27.148-5.629L64.828 384ZM64.828 384l1.164-40.05 26.36 7.581ZM65.992 343.95l20.43-28.009 5.93 35.59Zm0 0"/><path fill="#788a87" d="m86.422 315.941 35.879 19.157-29.95 16.433ZM86.422 315.941l-36.93-30.488 45.68-4.558Zm0 0"/><path fill="#788a87" d="m86.422 315.941-36.445 7.266-.485-37.754Zm0 0"/><path fill="#788986" d="m343.52 207.988-18.688 8.86-4.648-19.817Zm0 0"/><path fill="#788a87" d="m177.832 297.887-7.73-22.418 10.785 5.039Zm0 0"/><path fill="#788a87" d="m170.102 275.469 7.73 22.418-26.773-16.055ZM192.531 278.602l-14.699 19.285 3.055-17.38ZM177.832 297.887l-24.445 18.039-2.328-34.094ZM210.555 297.8l4.75-29.109 31.172 15.414Zm0 0"/><path fill="#2e222f" d="m166.734 261.79-21.906-5.747 24.895.176Zm0 0"/><path fill="#788a87" d="m172.172 241.848-6.145-11.953 11.766-5.524Zm0 0"/><path fill="#2e222f" d="m166.027 229.895-20.734 9.25 17.902-15.07Zm0 0"/><path fill="#778986" d="m198.703 227.047 10.223 18.133-18.856-2.993Zm0 0"/><path fill="#778986" d="m208.926 245.18-10.223-18.133 18.442-.66Zm0 0"/><path fill="#788a87" d="m233.691 250.648-24.765-5.468 8.219-18.793ZM208.926 245.18l-10.914 13.343-7.942-16.336Zm0 0"/><path fill="#778986" d="m198.012 258.523 10.914-13.343 6.379 23.511Zm0 0"/><path fill="#788a87" d="m192.531 278.602 5.48-20.079 17.294 10.168Zm0 0"/><path fill="#983c40" d="m198.012 258.523-5.48 20.079-7.927-17.395ZM198.703 227.047l10.828-10.86 7.614 10.2Zm0 0"/><path fill="#778986" d="m101.355 227.07 3.563-7.703 8.73 11.348Zm0 0"/><path fill="#778986" d="m104.918 219.367-3.563 7.703-55.132-16.136ZM110.328 235.586l-8.973-8.516 12.293 3.645Zm0 0"/><path fill="#983c40" d="m163.195 224.074-22.05-13.629 24.98-11.406Zm0 0"/><path fill="#2e222f" d="m163.195 224.074-29.57-3.535 7.52-10.094Zm0 0"/><path fill="#778986" d="m123.664 235.668-13.336-.082 3.32-4.871ZM136.082 226.988l-5.152-1.117 2.695-5.332Zm0 0"/><path fill="#778986" d="m130.93 225.871-7.266 9.797-10.016-4.953Zm0 0"/><path fill="#2e222f" d="m132.488 249.637 12.34 6.406-14.777-1.98Zm0 0"/><path fill="#8c3a3f" d="m144.828 256.043-12.34-6.406 12.805-10.492Zm0 0"/><path fill="#cc673c" d="m112.313 216.805-7.395 2.562 1.25-27.3Zm0 0"/><path fill="#2e222f" d="m124.3 203.703-11.987 13.102-6.145-24.739Zm0 0"/><path fill="#cc683d" d="m104.918 219.367 7.394-2.562 1.336 13.91Zm0 0"/><path fill="#2e222f" d="m112.313 216.805 11.988-13.102 9.324 16.836Zm0 0"/><path fill="#778986" d="m112.313 216.805 18.617 9.066-17.282 4.844Zm0 0"/><path fill="#2e222f" d="m130.93 225.871-18.618-9.066 21.313 3.734Zm0 0"/><path fill="#788a87" d="m113.527 271.172 8.364 26.422-26.72-16.7Zm0 0"/><path fill="#788a87" d="M121.89 297.594 86.423 315.94l8.75-35.046ZM86.422 315.941l35.469-18.347.41 37.504Zm0 0"/><path fill="#778986" d="m123.121 265.375 6.93-11.312.93 17.937Zm0 0"/><path fill="#788a87" d="M369.414 77.559 384 46.37l.008 53.953Zm0 0"/><path fill="#788a87" d="M369.414 77.559 342.31 64.906 384 46.371ZM369.414 77.559l14.594 22.765-5.117-.117Zm0 0"/><path fill="#788a87" d="m365.922 90.012 3.492-12.453 9.477 22.648Zm0 0"/><path fill="#788a87" d="m348.91 85.95 20.504-8.391-3.492 12.453ZM369.414 77.559l-20.504 8.39-6.601-21.043Zm0 0"/><path fill="#2e222f" d="m304.309 128.113-28.426 5.63 12.656-18.25ZM304.309 128.113l-1.868-23.277 16.274 3.77Zm0 0"/><path fill="#2e222f" d="m302.441 104.836 1.868 23.277-15.77-12.62ZM262.137 120.719l-.059-20.059 12.324 13.043Zm0 0"/><path fill="#2e222f" d="M262.137 120.719 251.02 118.5l11.058-17.84Zm0 0"/><path fill="#2e222f" d="m262.137 120.719-10.387 14.015-.73-16.234Zm0 0"/><path fill="#778986" d="m130.215 151.887-1.035-9.617 13.14 2.988Zm0 0"/><path fill="#778986" d="m129.18 142.27 1.035 9.617-18.711-7.492Zm0 0"/><path fill="#993d40" d="m142.734 163.54-12.52-11.653 12.106-6.63Zm0 0"/><path fill="#2e222f" d="m129.18 142.27 3.863-18.715 10.652 12.535ZM133.043 123.555l23.664-.606-13.012 13.14ZM156.707 122.95l3.285 19.112-16.297-5.972Zm0 0"/><path fill="#2e222f" d="m143.695 136.09 16.297 5.972-17.672 3.196Zm0 0"/><path fill="#788a87" d="m174.785 32.227-.625 30.53-36.406-18.847ZM206.145 77.387l-31.985-14.63 23.418-17.097Zm0 0"/><path fill="#788a87" d="m174.16 62.758.625-30.531 22.793 13.433Zm0 0"/><path fill="#2e222f" d="m156.707 122.95 21.48-4.688 4.61 14.937Zm0 0"/><path fill="#788a87" d="m178.188 118.262-.016-23.41 11.598 22.285Zm0 0"/><path fill="#2e222f" d="m182.797 133.2-4.61-14.938 11.583-1.125Zm0 0"/><path fill="#788a87" d="m178.172 94.852 17.894 7.55-6.296 14.735ZM206.145 77.387l-27.973 17.465-4.012-32.094Zm0 0"/><path fill="#788a87" d="m196.066 102.402-17.894-7.55 27.973-17.465ZM225.547 47.258l17.004-20.492 19.972 21.125Zm0 0"/><path fill="#798683" d="m280.738 184.246-2.215 1.305.102-28.961Zm0 0"/><path fill="#788986" d="m280.738 184.246-2.113-27.656 14.867 2.293ZM313.477 161.313l22.66-15.157-2.438 23.93Zm0 0"/><path fill="#788a87" d="m314.531 188.555-1.054-27.243 20.222 8.774Zm0 0"/><path fill="#993d40" d="m313.477 161.313 1.054 27.242-14.39-11.614Zm0 0"/><path fill="#993d40" d="m293.492 158.883 19.985 2.43-13.336 15.628ZM304.02 147.734l9.457 13.578-19.985-2.43Zm0 0"/><path fill="#788a87" d="m356.176 163.77-7.672 28.964-14.805-22.648Zm0 0"/><path fill="#788a87" d="m336.137 146.156 20.039 17.614-22.477 6.316Zm0 0"/><path fill="#778986" d="m356.176 163.77-20.04-17.614 23.86-8.34Zm0 0"/><path fill="#788986" d="m377.238 122.195 2.227-15.363 4.547-.832Zm0 0"/><path fill="#788a87" d="m384.004 157.941-6.766-35.746L384.012 106Zm0 0"/><path fill="#788a87" d="m377.238 122.195 6.766 35.746-24.008-20.125Zm0 0"/><path fill="#788986" d="m379.465 106.832-2.227 15.363-8.242-6.238Zm0 0"/><path fill="#2e222f" d="m352.68 100.68 18.402 3.64-2.086 11.637ZM379.465 106.832l-8.383-2.512 7.809-4.113Zm0 0"/><path fill="#953c40" d="m371.082 104.32-5.16-14.308 12.969 10.195Zm0 0"/><path fill="#2e222f" d="m371.082 104.32 8.383 2.512-10.469 9.125Zm0 0"/><path fill="#778986" d="m99.309 198.137-53.086 12.797 32.156-26.028Zm0 0"/><path fill="#2e222f" d="m67.242 141.5-10.656-10.004 18.375-5.926Zm0 0"/><path fill="#2f222f" d="m58.23 123.582-1.644 7.914-9.516-8.05ZM56.586 131.496l1.644-7.914 16.73 1.988Zm0 0"/><path fill="#2e222f" d="m56.586 131.496-15.129 3.684 5.613-11.735Zm0 0"/><path fill="#778986" d="m41.457 135.18 12.715 4.054-16 11ZM54.172 139.234l-2.707 26.762-13.293-15.762Zm0 0"/><path fill="#778986" d="m54.172 139.234 13.07 2.266-15.777 24.496Zm0 0"/><path fill="#2e222f" d="m56.586 131.496-2.414 7.738-12.715-4.054ZM54.172 139.234l2.414-7.738L67.242 141.5ZM113.762 124.855l15.418 17.415-17.676 2.125Zm0 0"/><path fill="#2e222f" d="m101.887 131.227 11.875-6.372-2.258 19.54Zm0 0"/><path fill="#2e222f" d="m100.559 122.14 13.203 2.715-11.875 6.372Zm0 0"/><path fill="#778986" d="m113.762 124.855-13.203-2.714 14.527-13.641ZM133.043 123.555l-19.281 1.3 1.324-16.355Zm0 0"/><path fill="#2e222f" d="m113.762 124.855 19.281-1.3-3.863 18.715Zm0 0"/><path fill="#778986" d="m85.59 160.45-10.762 3.113 4.078-21.645Zm0 0"/><path fill="#778986" d="m74.828 163.563 10.762-3.114 3.68 17.227Zm0 0"/><path fill="#983c40" d="m259.32 190.129 5.922 24.836-26.594-25.156Zm0 0"/><path fill="#cc673d" d="m265.242 214.965-5.922-24.836 19.203-4.578Zm0 0"/><path fill="#cc673d" d="m278.523 185.55-19.203 4.579-2.14-13.566Zm0 0"/><path fill="#788a87" d="m268.496 253.79-22.02 30.315-12.785-33.457Zm0 0"/><path fill="#ca653d" d="m287.21 214.84-19.397 13.09-2.57-12.965Zm0 0"/><path fill="#983d41" d="m285.254 192.879 1.957 21.96-21.969.126Zm0 0"/><path fill="#788a87" d="m215.305 268.691-6.38-23.511 24.766 5.468ZM246.477 284.105l-31.172-15.414 18.386-18.043Zm0 0"/><path fill="#c56b43" d="m275.883 133.742 1.117 8.07-25.25-7.078Zm0 0"/><path fill="#2e222f" d="m275.883 133.742-13.746-13.023 12.265-7.016Zm0 0"/><path fill="#2e222f" d="m262.137 120.719 13.746 13.023-24.133.992Zm0 0"/><path fill="#778986" d="m256.195 164.094.985 12.469-17.664-5.086ZM252.762 150.473l3.433 13.62-16.68 7.384Zm0 0"/><path fill="#788a87" d="M342.309 64.906 313.3 73.645l2.597-41.766Zm0 0"/><path fill="#788a87" d="m313.3 73.645-25.253-2.836 27.851-38.93Zm0 0"/><path fill="#788a87" d="m288.047 70.809 25.254 2.836-13.227 19.89Zm0 0"/><path fill="#788986" d="m313.3 73.645 2.157 16.562-15.383 3.328Zm0 0"/><path fill="#2e222f" d="m331.129 95.902 21.55 4.778-18.804 9.293Zm0 0"/><path fill="#983c40" d="m352.68 100.68-21.551-4.778 17.781-9.953Zm0 0"/><path fill="#2e222f" d="m315.457 90.207 15.672 5.695-12.414 12.703Zm0 0"/><path fill="#2e222f" d="m331.129 95.902 2.746 14.07-15.16-1.367Zm0 0"/><path fill="#788a87" d="m155.563 349.258-33.262-14.16 31.086-19.172ZM122.3 335.098l33.263 14.16L124.398 384Zm0 0"/><path fill="#5c2d36" d="m172.89 261.54-6.156.25 2.989-5.571Zm0 0"/><path fill="#778986" d="m172.89 261.54-2.788 13.929-3.368-13.68Zm0 0"/><path fill="#30222f" d="m176.797 248.902-3.906 12.637-3.168-5.32Zm0 0"/><path fill="#993d40" d="m172.89 261.54 3.907-12.638 7.808 12.305ZM172.89 261.54l11.715-.333-3.718 19.3Zm0 0"/><path fill="#2e222f" d="m170.102 275.469 2.789-13.93 7.996 18.969Zm0 0"/><path fill="#788a87" d="m49.977 323.207 36.445-7.266-20.43 28.008Zm0 0"/><path fill="#2e222f" d="m110.328 235.586 3.129 10.965-11.05 3.75Zm0 0"/><path fill="#2e222f" d="m113.457 246.55-1.008 8.446-10.043-4.695Zm0 0"/><path fill="#2e232f" d="m123.664 235.668-10.207 10.883-3.129-10.965Zm0 0"/><path fill="#2e222f" d="m112.45 254.996 7.85-3.156 2.821 13.535ZM120.3 251.84l9.75 2.222-6.929 11.313Zm0 0"/><path fill="#2e222f" d="m130.05 254.063-9.75-2.223 3.364-16.172ZM120.3 251.84l-6.843-5.29 10.207-10.882Zm0 0"/><path fill="#2e222f" d="m113.457 246.55 6.844 5.29-7.852 3.156Zm0 0"/><path fill="#2e222f" d="m104.625 262.7 7.824-7.704 10.672 10.379Zm0 0"/><path fill="#778986" d="m104.625 262.7 8.902 8.472-18.355 9.723Zm0 0"/><path fill="#2e222f" d="m113.527 271.172-8.902-8.473 18.496 2.676Zm0 0"/><path fill="#788a87" d="m356.805 275.54 1.988-25.31L384 254.926ZM354.648 222.102l7.973-23.286L384 213.61Zm0 0"/><path fill="#788986" d="m362.621 198.816-7.973 23.286-11.128-14.114Zm0 0"/><path fill="#788986" d="m362.621 198.816-19.101 9.172 4.984-15.254Zm0 0"/><path fill="#788a87" d="m323.984 242.309 22.07-8.52-9.976 24.035Zm0 0"/><path fill="#788a87" d="m323.984 242.309.641-9.903 21.43 1.383ZM193.46 333l40.126 25.145L187.106 384Zm0 0"/><path fill="#788a87" d="M233.586 358.145 193.46 333l44.152-11.328ZM233.586 358.145l37.27-16.946 3.12 42.801ZM210.555 297.8l-32.723.087 14.7-19.285Zm0 0"/><path fill="#788a87" d="m210.555 297.8-18.024-19.198 22.774-9.91ZM177.832 297.887 193.461 333l-40.074-17.074Zm0 0"/><path fill="#788a87" d="M210.555 297.8 193.46 333l-15.629-35.113ZM151.059 281.832l-6.23-25.789 21.905 5.746ZM144.828 256.043l6.23 25.789L130.98 272Zm0 0"/><path fill="#778986" d="m130.05 254.063 14.778 1.98L130.98 272Zm0 0"/><path fill="#983d41" d="m172.172 241.848 4.625 7.054-7.074 7.317Zm0 0"/><path fill="#788a87" d="m172.172 241.848 17.898.34-13.273 6.714Zm0 0"/><path fill="#82373d" d="m176.797 248.902 13.273-6.714-5.465 19.019Zm0 0"/><path fill="#983c40" d="m190.07 242.188 7.942 16.335-13.407 2.684Zm0 0"/><path fill="#778986" d="m194.246 216.586 4.457 10.46-20.91-2.675Zm0 0"/><path fill="#7c353b" d="m198.703 227.047-4.457-10.461 15.285-.399Zm0 0"/><path fill="#778986" d="m92.746 240.32 17.582-4.734-7.922 14.715ZM92.746 240.32l8.61-13.25 8.972 8.516Zm0 0"/><path fill="#778986" d="m101.355 227.07-8.609 13.25-46.523-29.386Zm0 0"/><path fill="#778986" d="m46.223 210.934 46.523 29.386-51.894-2.562Zm0 0"/><path fill="#788a87" d="m92.746 240.32-6.078 18.82-45.816-21.382Zm0 0"/><path fill="#778986" d="m92.746 240.32 9.66 9.98-15.738 8.84Zm0 0"/><path fill="#cc673d" d="m106.168 192.066-6.86 6.07-10.038-20.46Zm0 0"/><path fill="#cc673d" d="m89.27 177.676 10.039 20.46-20.93-13.23Zm0 0"/><path fill="#983c40" d="m140.676 187.012-12.594-12.824 14.652-10.649Zm0 0"/><path fill="#983d40" d="m121.918 182.418 6.164-8.23 12.594 12.824Zm0 0"/><path fill="#993d40" d="m142.734 163.54-14.652 10.648 2.133-22.301Zm0 0"/><path fill="#2e222f" d="m132.488 249.637-2.437 4.426-6.387-18.395Zm0 0"/><path fill="#788a87" d="m151.059 281.832-29.168 15.762L130.98 272ZM121.89 297.594l-8.363-26.422 17.453.828ZM153.387 315.926l-31.496-18.332 29.168-15.762ZM121.89 297.594l31.497 18.332-31.086 19.172ZM342.309 64.906l-26.41-33.027L384 46.37Zm0 0"/><path fill="#983c40" d="M365.922 90.012 352.68 100.68l-3.77-14.73Zm0 0"/><path fill="#778986" d="M304.309 128.113 277 141.813l-1.117-8.07Zm0 0"/><path fill="#788a87" d="m277 141.813 27.02 5.921-10.528 11.149ZM317.305 141.617l8.375-19.289 10.457 23.828ZM313.477 161.313l3.828-19.696 18.832 4.54Zm0 0"/><path fill="#788986" d="m317.305 141.617-3.828 19.696-9.457-13.579Zm0 0"/><path fill="#778986" d="m133.043 123.555 19.602-16.532 4.062 15.926Zm0 0"/><path fill="#788986" d="m152.645 107.023 25.542 11.239-21.48 4.687Zm0 0"/><path fill="#788a87" d="m178.172 94.852-25.527 12.171-3.325-24.882Zm0 0"/><path fill="#788a87" d="m178.188 118.262-25.543-11.239 25.527-12.171Zm0 0"/><path fill="#778986" d="m195.27 138.8-35.278 3.262 22.805-8.863ZM195.27 138.8l-20.22 18.91-15.058-15.648Zm0 0"/><path fill="#778986" d="m175.05 157.71 20.22-18.91.433 5.907Zm0 0"/><path fill="#2e222f" d="m193.828 122.953-4.058-5.816 21.636-5.477ZM193.828 122.953 182.797 133.2l6.973-16.062Zm0 0"/><path fill="#2e222f" d="m182.797 133.2 11.031-10.247 1.442 15.848Zm0 0"/><path fill="#993d40" d="m153.547 154.3 21.504 3.41-16.563 15.481Zm0 0"/><path fill="#778986" d="m153.547 154.3 6.445-12.238 15.059 15.649Zm0 0"/><path fill="#778986" d="m159.992 142.063-6.445 12.238-11.227-9.043Zm0 0"/><path fill="#983c40" d="m142.734 163.54 10.813-9.24 4.941 18.891Zm0 0"/><path fill="#993d40" d="m153.547 154.3-10.813 9.24-.414-18.282Zm0 0"/><path fill="#778986" d="M278.625 156.59 277 141.812l16.492 17.07Zm0 0"/><path fill="#788a87" d="m377.238 122.195-17.242 15.621 9-21.859Zm0 0"/><path fill="#788a87" d="m343.324 120.84 16.672 16.976-23.86 8.34Zm0 0"/><path fill="#788986" d="m359.996 137.816-16.672-16.976 25.672-4.883Zm0 0"/><path fill="#778986" d="m78.379 184.906-44.54 18.18 17.626-37.09ZM33.84 203.086l44.539-18.18-32.156 26.028ZM78.379 184.906l-3.55-21.344 14.44 14.114Zm0 0"/><path fill="#778986" d="m74.828 163.563 3.55 21.343-26.913-18.91ZM200.938 161.11l24.332-8.137-10.84 14.832Zm0 0"/><path fill="#778986" d="m225.27 152.973-24.333 8.136 13.958-21.972ZM232.238 139.254l-6.968 13.719-10.375-13.836Zm0 0"/><path fill="#778986" d="m225.27 152.973 6.968-13.72 20.524 11.22Zm0 0"/><path fill="#778986" d="m252.762 150.473-20.524-11.22 19.512-4.519Zm0 0"/><path fill="#2e222f" d="m251.75 134.734-19.512 4.52 4.145-17.274Zm0 0"/><path fill="#983c40" d="m209.531 216.188 31.969-1.172-24.355 11.37Zm0 0"/><path fill="#2f222f" d="m265.242 214.965-23.742.05-2.852-25.206Zm0 0"/><path fill="#2e222f" d="m241.5 215.016-32.168-13.172 29.316-12.035ZM241.5 215.016l-31.969 1.172-.199-14.344Zm0 0"/><path fill="#788a87" d="m329.156 86.18 13.153-21.274 6.601 21.043ZM329.156 86.18l-15.855-12.535 29.008-8.739Zm0 0"/><path fill="#788986" d="m313.3 73.645 15.856 12.535-13.699 4.027Zm0 0"/><path fill="#983c40" d="m329.156 86.18 1.973 9.722-15.672-5.695Zm0 0"/><path fill="#983c40" d="m331.129 95.902-1.973-9.722 19.754-.23Zm0 0"/><path fill="#2e232f" d="m104.625 262.7-2.219-12.4 10.043 4.696Zm0 0"/><path fill="#788a87" d="m323.664 384 17.64-37.031L384 384ZM341.305 346.969 384 331.46V384ZM273.977 384l29.941-29.062L323.664 384ZM307.23 319.598l34.075 27.37-37.387 7.97ZM246.477 284.105l23.539 26.602-32.403 10.965ZM307.602 259.68l28.476-1.856-11.512 26.957Zm0 0"/><path fill="#788986" d="m373.074 229.668-18.426-7.566L384 213.609Zm0 0"/><path fill="#788a87" d="M373.074 229.668 384 254.926l-25.207-4.696Zm0 0"/><path fill="#993d40" d="m354.648 222.102 18.426 7.566-27.02 4.121Zm0 0"/><path fill="#788a87" d="m373.074 229.668-14.281 20.562-12.738-16.44ZM373.074 229.668 384 213.609v41.317ZM349.754 308.867 384 292.625v38.836Zm0 0"/><path fill="#788a87" d="M349.754 308.867 384 331.461l-42.695 15.508ZM346.055 233.79l12.738 16.44-22.715 7.594Zm0 0"/><path fill="#788986" d="m306.777 203.82 5.547-9.304 7.86 2.515Zm0 0"/><path fill="#778a87" d="m324.832 216.848-18.055-13.028 13.407-6.789Zm0 0"/><path fill="#2e222f" d="m285.254 192.879 21.523 10.941-19.566 11.02Zm0 0"/><path fill="#2e222f" d="m306.777 203.82-21.523-10.941 27.07 1.637Zm0 0"/><path fill="#788a87" d="m307.602 259.68 16.382-17.371 12.094 15.515ZM323.984 242.309l-23.77-11.028 24.411 1.125Zm0 0"/><path fill="#788a87" d="m323.984 242.309-16.382 17.37-7.387-28.398Zm0 0"/><path fill="#993d40" d="m324.625 232.406-18.586-13.039 18.793-2.52Zm0 0"/><path fill="#788986" d="m306.04 219.367.737-15.547 18.055 13.028ZM306.777 203.82l-.738 15.547-18.828-4.527Zm0 0"/><path fill="#993d40" d="m300.215 231.281 5.824-11.914 18.586 13.04Zm0 0"/><path fill="#993d40" d="m287.21 214.84 18.83 4.527-5.825 11.914Zm0 0"/><path fill="#788986" d="m340.363 220.879-15.531-4.031 18.688-8.86Zm0 0"/><path fill="#983c40" d="m340.363 220.879-15.738 11.527.207-15.558Zm0 0"/><path fill="#788a87" d="m354.648 222.102-14.285-1.223 3.157-12.89Zm0 0"/><path fill="#983c40" d="m346.055 233.79-5.692-12.911 14.285 1.223Zm0 0"/><path fill="#983c40" d="m324.625 232.406 15.738-11.527 5.692 12.91Zm0 0"/><path fill="#788a87" d="M233.586 358.145 233.187 384h-46.082ZM270.855 341.2l-37.27 16.945 4.028-36.473ZM270.855 341.2l33.063 13.738L273.977 384Zm0 0"/><path fill="#788a87" d="M273.977 384h-40.79l.399-25.855ZM193.46 333l-37.898 16.258-2.175-33.332ZM237.613 321.672 193.461 333l17.094-35.2Zm0 0"/><path fill="#778986" d="m166.555 242.816-21.262-3.671 20.734-9.25Zm0 0"/><path fill="#983d41" d="m172.172 241.848-5.617.968-.528-12.921Zm0 0"/><path fill="#778986" d="m166.555 242.816 5.617-.968-2.45 14.37Zm0 0"/><path fill="#778986" d="m144.828 256.043 21.727-13.227 3.168 13.403Zm0 0"/><path fill="#778986" d="m166.555 242.816-21.727 13.227.465-16.898Zm0 0"/><path fill="#788a87" d="m190.07 242.188-5.386-8.051 14.02-7.09Zm0 0"/><path fill="#788a87" d="m184.684 234.137 5.386 8.05-17.898-.34Zm0 0"/><path fill="#788a87" d="m184.684 234.137-12.512 7.71 5.621-17.476Zm0 0"/><path fill="#788a87" d="m198.703 227.047-14.02 7.09-6.89-9.766Zm0 0"/><path fill="#778986" d="m130.93 225.871 1.558 23.766-8.824-13.969ZM145.293 239.145l-9.211-12.157 27.113-2.914ZM136.082 226.988l-2.457-6.449 29.57 3.535Zm0 0"/><path fill="#788a87" d="m130.93 225.871 5.152 1.117-3.594 22.649Zm0 0"/><path fill="#778986" d="m136.082 226.988 9.211 12.157-12.805 10.492Zm0 0"/><path fill="#933b40" d="m365.922 90.012 5.16 14.308-18.402-3.64Zm0 0"/><path fill="#788a87" d="m277 141.813 27.531-13.356-.511 19.277Zm0 0"/><path fill="#778986" d="M304.531 128.457 277 141.813l27.309-13.7Zm0 0"/><path fill="#788a87" d="m304.531 128.457 12.774 13.16-13.285 6.117Zm0 0"/><path fill="#788986" d="m317.305 141.617-12.774-13.16 21.149-6.129Zm0 0"/><path fill="#2e222f" d="m325.68 122.328-21.149 6.129 14.184-19.852Zm0 0"/><path fill="#2e222f" d="m304.531 128.457-.222-.344 14.406-19.508ZM236.383 121.98l-19.66 2.56-5.317-12.88Zm0 0"/><path fill="#2e222f" d="m216.723 124.54-22.895-1.587 17.578-11.293ZM232.238 139.254l-15.515-14.715 19.66-2.559Zm0 0"/><path fill="#2e222f" d="m193.828 122.953 22.895 1.586-21.453 14.262Zm0 0"/><path fill="#2e222f" d="m195.27 138.8 21.453-14.26-1.828 14.597ZM216.723 124.54l15.515 14.714-17.343-.117ZM101.887 131.227l9.617 13.168-18.223-1.579Zm0 0"/><path fill="#cc683d" d="m85.59 160.45 10.996 5.253-7.316 11.973Zm0 0"/><path fill="#778986" d="m245.824 229.266 21.988-1.336.684 25.86Zm0 0"/><path fill="#788a87" d="m245.824 229.266 22.672 24.523-34.805-3.14ZM245.824 229.266l-12.133 21.382-16.546-24.261Zm0 0"/><path fill="#983c40" d="m267.813 227.93 19.398-13.09 13.004 16.441Zm0 0"/><path fill="#993d40" d="m245.266 225.316-3.766-10.3 23.742-.051Zm0 0"/><path fill="#993d40" d="m267.813 227.93-22.547-2.614 19.976-10.351Zm0 0"/><path fill="#973c40" d="m245.824 229.266-.558-3.95 22.547 2.614Zm0 0"/><path fill="#943b40" d="m241.5 215.016 3.766 10.3-28.121 1.07Zm0 0"/><path fill="#778986" d="m245.266 225.316.558 3.95-28.68-2.88Zm0 0"/><path fill="#788a87" d="m49.492 285.453 37.176-26.312 8.504 21.754Zm0 0"/><path fill="#778986" d="m86.668 259.14 15.738-8.84 2.219 12.4ZM86.668 259.14l17.957 3.56-9.453 18.195Zm0 0"/><path fill="#788a87" d="m323.664 384-19.746-29.062 37.387-7.97ZM307.23 319.598l42.524-10.73-8.45 38.1ZM307.23 319.598l-3.312 35.34-33.063-13.739ZM270.016 310.707l37.214 8.89-36.375 21.602Zm0 0"/><path fill="#788a87" d="m270.016 310.707.84 30.492-33.243-19.527ZM356.805 275.54 384 292.624l-34.246 16.242Zm0 0"/><path fill="#788a87" d="m384 292.625-27.195-17.086L384 254.926ZM237.613 321.672 210.555 297.8l35.922-13.696Zm0 0"/><path fill="#788986" d="m133.957 100.887-.914 22.668-17.957-15.055Zm0 0"/><path fill="#788a87" d="m133.957 100.887 18.688 6.136-19.602 16.532ZM133.957 100.887 149.32 82.14l3.325 24.882ZM149.32 82.14l-30.215-.21 18.649-38.02Zm0 0"/><path fill="#788a87" d="M133.957 100.887 119.105 81.93l30.215.21ZM93.172 98.707l25.933-16.777-4.02 26.57Zm0 0"/><path fill="#788a87" d="m119.105 81.93 14.852 18.957-18.871 7.613Zm0 0"/><path fill="#cc673d" d="m117.2 174.137-11.032 17.93-16.898-14.391ZM96.586 165.703l20.613 8.434-27.93 3.539Zm0 0"/><path fill="#7d363c" d="m117.2 174.137 4.718 8.281-15.75 9.648Zm0 0"/><path fill="#2e222f" d="m117.2 174.137-20.614-8.434 14.918-21.308Zm0 0"/><path fill="#9a3e40" d="m117.2 174.137-5.696-29.742 18.71 7.492Zm0 0"/><path fill="#993d40" d="m128.082 174.188-10.883-.051 13.016-22.25Zm0 0"/><path fill="#983c40" d="m117.2 174.137 10.882.05-6.164 8.231Zm0 0"/><path fill="#cc673d" d="M96.586 165.703 85.59 160.45l25.914-16.054Zm0 0"/><path fill="#cc683d" d="M93.281 142.816 85.59 160.45l-6.684-18.531Zm0 0"/><path fill="#cc683d" d="M111.504 144.395 85.59 160.449l7.691-17.633Zm0 0"/><path fill="#788a87" d="m324.566 284.781 25.188 24.086-42.524 10.73ZM287.313 285.781l19.917 33.817-37.214-8.891ZM287.313 285.781l20.289-26.101 16.964 25.101Zm0 0"/><path fill="#788a87" d="m307.23 319.598-19.918-33.817 37.254-1ZM307.602 259.68l-39.106-5.89 31.719-22.509ZM268.496 253.79l-.683-25.86 32.402 3.351ZM356.805 275.54l-7.051 33.327-25.188-24.086ZM336.078 257.824l20.727 17.715-32.239 9.242Zm0 0"/><path fill="#788a87" d="m358.793 250.23-1.988 25.31-20.727-17.716ZM287.313 285.781l-18.817-31.992 39.106 5.89ZM268.496 253.79l18.817 31.991-40.836-1.676ZM287.313 285.781l-17.297 24.926-23.54-26.602Zm0 0"/></svg>