<svg xmlns="http://www.w3.org/2000/svg" width="512" height="512" viewBox="0 0 384 384"><path fill="#0098da" d="m0 252.805 24.855-43.34 24.82 45.629Zm0 0"/><path fill="#0097da" d="M0 252.805v-84.04l24.855 40.7Zm0 0"/><path fill="#0098da" d="M.004 348.984 0 315.304l27.145 30.126Zm0 0"/><path fill="#0098db" d="m327.004 0-20.836 23.684L295.473.012Zm0 0"/><path fill="#0098db" d="m295.473.012 10.695 23.672-21.617-.711ZM265.453 79.453l19.828 15.953-19.82 4.77Zm0 0"/><path fill="#0097da" d="M17.676 127.598 0 168.766v-52.403Zm0 0"/><path fill="#0097da" d="m17.676 127.598 35.496 12.566L0 168.766ZM0 168.766l61.453 36.972-36.598 3.727Zm0 0"/><path fill="#0097da" d="m53.172 140.164 8.281 65.574L0 168.766Zm0 0"/><path fill="#d8dbe0" d="M55.746 100.418 35.012 77.934 93.71 97.84Zm0 0"/><path fill="#c4d2d8" d="M73.762.004 108.02 73.12l-73.008 4.813Zm0 0"/><path fill="#fafbfb" d="M151.695 79.426 108.02 73.12l52.515-30.289Zm0 0"/><path fill="#f1f4f6" d="m35.012 77.934 73.008-4.813L93.71 97.84Zm0 0"/><path fill="#221735" d="m255.988 177.52-4.554 15.12-19.086-23.34Zm0 0"/><path fill="#ebeff1" d="m72.203 372.867-7.086-20.703 19.922 3.399Zm0 0"/><path fill="#74abbb" d="m.004 348.984 44.578 24.375L.004 384Zm0 0"/><path fill="#f9fafb" d="M44.582 373.36.004 348.983l27.14-3.554Zm0 0"/><path fill="#0097d9" d="M32.871 301.281 0 315.305v-62.5Zm0 0"/><path fill="#0098da" d="m32.871 301.281 22.707 23.188-28.433 20.96Zm0 0"/><path fill="#0098da" d="m0 315.305 32.871-14.024-5.726 44.149Zm0 0"/><path fill="#0297d9" d="M49.676 255.094 32.87 301.28 0 252.805Zm0 0"/><path fill="#0097da" d="m32.871 301.281 16.805-46.187 21.633 41.699Zm0 0"/><path fill="#201533" d="m199.676 161.238-16.48 16.047-11.454-20.586Zm0 0"/><path fill="#201533" d="m183.195 177.285-23.437-1.793 11.984-18.793ZM158.43 223.57l17.77-20.808-9.173 23.195ZM176.2 202.762l6.995-25.477 29.086 15.692Zm0 0"/><path fill="#201533" d="m203.32 225.656-27.12-22.894 36.081-9.785ZM176.2 202.762l-16.442-27.27 23.437 1.793Zm0 0"/><path fill="#201533" d="m147.543 202.207 12.215-26.715 16.441 27.27ZM265.46 100.176l21.517 9.453-20.825 8.785Zm0 0"/><path fill="#0098db" d="m273.203 38.512 11.348-15.54 5.75 27.376Zm0 0"/><path fill="#0198db" d="m265.46 100.176-24.78 4.449 24.773-25.172Zm0 0"/><path fill="#0098da" d="m265.453 79.453-35.191 5.328 25.527-22.906Zm0 0"/><path fill="#0098db" d="m240.68 104.625-10.418-19.844 35.191-5.328Zm0 0"/><path fill="#0098da" d="m230.262 84.781-1.61-27.054 27.137 4.148Zm0 0"/><path fill="#0298db" d="m228.652 57.727-21.996 12.101.121-18.547Zm0 0"/><path fill="#0298da" d="m206.656 69.828 21.996-12.101 1.61 27.054Zm0 0"/><path fill="#fdfdfd" d="M278.656 11.074 271.437-.004l24.036.016ZM278.656 11.074 295.473.012l-10.922 22.96Zm0 0"/><path fill="#fcfcfc" d="m271.438-.004 7.218 11.078-13.59 8.883Zm0 0"/><path fill="#f1f3f5" d="m247.156 37.672-26.32-2.356 5.777-35.324Zm0 0"/><path fill="#f9f9f9" d="m226.613-.008 44.825.004-6.372 19.961Zm0 0"/><path fill="#f6f7f8" d="M247.156 37.672 226.613-.008l38.453 19.965Zm0 0"/><path fill="#0097da" d="m284.55 22.973 21.618.71-15.867 26.665Zm0 0"/><path fill="#201533" d="m299.762 182.73 2.855 24.684-20.715-21.754Zm0 0"/><path fill="#201533" d="m314.32 192.012-11.703 15.402-2.855-24.684Zm0 0"/><path fill="#0098db" d="m384 58.36.082 46.081-17.934-17.214Zm0 0"/><path fill="#201533" d="m384.082 104.441-20.41 12.582 2.476-29.796Zm0 0"/><path fill="#0098db" d="M361.617 205.871 384 164.711l.004 56.887Zm0 0"/><path fill="#0098da" d="m352.55 193.05-21.402-4.437 1.098-19.633Zm0 0"/><path fill="#201533" d="m331.137 197.64.011-9.027 21.403 4.438Zm0 0"/><path fill="#211634" d="m331.148 188.613-.011 9.028-16.817-5.63Zm0 0"/><path fill="#0098da" d="m331.148 188.613-16.828 3.399 17.926-23.032Zm0 0"/><path fill="#201533" d="m88.512 187.895-3.575 27.671-3.093-26.68Zm0 0"/><path fill="#ccd1d7" d="m203.57 27.215-19.168 12.484L145.122.008Zm0 0"/><path fill="#eff4f6" d="M226.613-.008 203.57 27.215 145.121.008Zm0 0"/><path fill="#dfe2e6" d="m145.121.008 39.281 39.691-23.867 3.133Zm0 0"/><path fill="#eff2f4" d="m73.762.004 71.36.004L108.02 73.12Zm0 0"/><path fill="#fbfbfc" d="M108.02 73.121 145.12.008l15.414 42.824Zm0 0"/><path fill="#9fc1cb" d="M-.004.012 73.762.004l-38.75 77.93Zm0 0"/><path fill="#bfe3f4" d="m193.797 141.363 5.879 19.875-27.934-4.539Zm0 0"/><path fill="#201533" d="m240.68 104.625 1.742 10.941-26.715-5.57Zm0 0"/><path fill="#0596d7" d="M95.523 111.758 93.711 97.84l28.422 6.277Zm0 0"/><path fill="#0198da" d="m78.219 108.23 17.304 3.528-7.437 12.61Zm0 0"/><path fill="#fefefe" d="m74.637 124.879 3.582-16.649 9.867 16.137Zm0 0"/><path fill="#0698d9" d="m78.219 108.23-22.473-7.812 37.965-2.578Zm0 0"/><path fill="#0097da" d="M95.523 111.758 78.22 108.23 93.71 97.84Zm0 0"/><path fill="#201533" d="m57.668 141.371 3.785 64.367-8.281-65.574Zm0 0"/><path fill="#221734" d="m99.07 141.36-3.925 4.296-7.06-21.289Zm0 0"/><path fill="#f6f6f7" d="m281.902 185.66-25.914-8.14 21.555-13.973Zm0 0"/><path fill="#528098" d="m172.844 367.477 12.515 16.515-38.105.004Zm0 0"/><path fill="#0697d8" d="m117.203 369.188 30.05 14.808-71.714.008Zm0 0"/><path fill="#dfe1e5" d="m117.203 369.188-45 3.68 12.836-17.305Zm0 0"/><path fill="#0996d6" d="m72.203 372.867 45-3.68-41.664 14.817Zm0 0"/><path fill="#0991ce" d="m44.582 373.36 3.375 10.648L.004 384Zm0 0"/><path fill="#0297da" d="m71.309 296.793-21.633-41.7 38.242 14.184Zm0 0"/><path fill="#0098da" d="m87.918 269.277-38.242-14.183 33.797-18.848Zm0 0"/><path fill="#c8ced5" d="m172.844 367.477 32.297-8.618-19.782 25.133Zm0 0"/><path fill="#201533" d="m199.676 161.238 12.605 31.739-29.086-15.692ZM251.434 192.64l-39.153.337 20.067-23.676ZM186.309 266.137l6.07 12.484-11.836 1.75Zm0 0"/><path fill="#fdfdfd" d="m101.125 205.172-12.613-17.277 16.277-.829Zm0 0"/><path fill="#fefefe" d="m112.047 214.922-10.922-9.75 3.664-18.106Zm0 0"/><path fill="#0699da" d="m101.125 205.172-16.187 10.394 3.574-27.671Zm0 0"/><path fill="#211634" d="m101.125 205.172 4.18 14.851-20.368-4.457Zm0 0"/><path fill="#fefefe" d="m105.305 220.023-4.18-14.851 10.922 9.75Zm0 0"/><path fill="#281d3a" d="m124.977 180.61-12.93 34.312-7.258-27.856Zm0 0"/><path fill="#201533" d="m124.977 180.61 2.093 31.992-15.023 2.32Zm0 0"/><path fill="#201533" d="m127.07 212.602-2.093-31.993 22.566 21.598Zm0 0"/><path fill="#201533" d="m124.977 180.61 34.78-5.118-12.214 26.715Zm0 0"/><path fill="#0298da" d="m115.105 272.656 9.348-8.414 18.434 14.453Zm0 0"/><path fill="#0098db" d="M331.691 44.648 384 0v58.36ZM331.691 44.648l-25.523-20.964L327.004 0Zm0 0"/><path fill="#0098da" d="m290.3 50.348 15.868-26.664 25.523 20.964Zm0 0"/><path fill="#201533" d="m286.977 109.629 17.851-17.266 7.969 16.899Zm0 0"/><path fill="#201533" d="m285.281 95.406 1.696 14.223-21.516-9.453Zm0 0"/><path fill="#201533" d="m304.828 92.363-17.851 17.266-1.696-14.223ZM286.977 109.629l-9.536 21.57-11.289-12.785Zm0 0"/><path fill="#0098da" d="m265.453 79.453-9.664-17.578 34.512-11.527Zm0 0"/><path fill="#0098db" d="m255.79 61.875 17.413-23.363 17.098 11.836Zm0 0"/><path fill="#201533" d="m265.46 100.176-23.038 15.39-1.742-10.941ZM193.797 141.363l-.149-5.836 3.75 2.313ZM169.453 141.828l-11.246-19.375 15.93 5.617Zm0 0"/><path fill="#fdfdfd" d="m166.469 98.04-14.774-18.614 31.973-1.196Zm0 0"/><path fill="#0098da" d="m230.262 84.781 10.418 19.844-24.973 5.371Zm0 0"/><path fill="#0198db" d="m204.305 95.465 2.351-25.637 23.606 14.953Zm0 0"/><path fill="#0098db" d="m204.305 95.465 25.957-10.684-14.555 25.215Zm0 0"/><path fill="#0098da" d="m183.176 105.617 21.129-10.152 11.402 14.531Zm0 0"/><path fill="#f1f5f7" d="m220.836 35.316 7.816 22.41-21.875-6.445Zm0 0"/><path fill="#fdfdfd" d="m265.066 19.957 13.59-8.883 5.895 11.899ZM265.066 19.957l8.137 18.555-9.515-9.48Zm0 0"/><path fill="#fdfdfd" d="m273.203 38.512-8.137-18.555 19.485 3.016Zm0 0"/><path fill="#f8f8f9" d="m273.203 38.512-26.047-.84 16.531-8.64Zm0 0"/><path fill="#0098db" d="m247.156 37.672 26.047.84-17.414 23.363Zm0 0"/><path fill="#f9f9fa" d="m247.156 37.672 17.91-17.715-1.378 9.074Zm0 0"/><path fill="#201533" d="m281.902 185.66 11.54-28.187 6.32 25.257ZM338.402 105.547l-1.988 16.484-23.617-12.77Zm0 0"/><path fill="#0098db" d="m384 164.71-22.383 41.161 3.367-48.152Zm0 0"/><path fill="#0098db" d="m364.984 157.719 19.098-53.278-.082 60.27Zm0 0"/><path fill="#0098db" d="m384.082 104.441-19.098 53.278-1.312-40.696Zm0 0"/><path fill="#201533" d="m336.414 122.031 1.988-16.484 25.27 11.476Zm0 0"/><path fill="#0097da" d="m0 116.363 33.895 5.715-16.22 5.52Zm0 0"/><path fill="#0097da" d="M33.895 122.078 0 116.363-.004 99.18ZM55.746 100.418l4.399 14.887-26.25 6.773ZM17.676 127.598l35.558 12.265-.062.301Zm0 0"/><path fill="#201533" d="m33.895 122.078 19.34 17.785-35.56-12.265Zm0 0"/><path fill="#4f869a" d="M.012 70.488-.004.012l35.016 77.922Zm0 0"/><path fill="#b2bcc7" d="m-.004 99.18.016-28.692 35 7.446Zm0 0"/><path fill="#0097da" d="m60.672 216.113-10.996 38.98-24.82-45.628Zm0 0"/><path fill="#0098da" d="m49.676 255.094 10.996-38.98 22.8 20.132ZM60.672 216.113l24.266-.547-1.465 20.68Zm0 0"/><path fill="#f1f5f7" d="M203.57 27.215 226.613-.008l-5.777 35.324Zm0 0"/><path fill="#cecfd6" d="m184.402 39.7 19.168-12.485 3.207 24.066Zm0 0"/><path fill="#f2f4f6" d="m203.57 27.215 17.266 8.101-14.059 15.965Zm0 0"/><path fill="#201533" d="m199.676 161.238-5.88-19.875 3.602-3.523ZM212.281 192.977l-12.605-31.739 32.672 8.063Zm0 0"/><path fill="#0097da" d="m78.219 108.23-18.074 7.075-4.399-14.887ZM60.145 115.305l18.074-7.075-3.582 16.649ZM76.313 155.426 57.668 141.37 78 142.496Zm0 0"/><path fill="#201533" d="m78 142.496-20.332-1.125 16.969-16.492Zm0 0"/><path fill="#fefefe" d="m78 142.496-3.363-17.617 13.449-.512ZM95.145 145.656 78 142.496l10.086-18.129Zm0 0"/><path fill="#0198da" d="m95.523 111.758 6.961 10.656-14.398 1.953Zm0 0"/><path fill="#201533" d="M102.484 122.414 99.07 141.36l-10.984-16.992Zm0 0"/><path fill="#0097da" d="m102.484 122.414-6.96-10.656 26.609-7.64Zm0 0"/><path fill="#089adb" d="m235.465 227.469-30.547 1.914-1.598-3.727Zm0 0"/><path fill="#201533" d="M302.617 207.414 287.141 214l-5.239-28.34ZM212.281 192.977l39.153-.336-13.973 23.539Zm0 0"/><path fill="#adadb9" d="m255.988 177.52-1.636-13.954 23.191-.02Zm0 0"/><path fill="#c5e0ed" d="m254.352 163.566 25.14-11.75-1.949 11.73Zm0 0"/><path fill="#38ace0" d="m279.492 151.816-25.14 11.75-2.036-17.308Zm0 0"/><path fill="#447c98" d="m147.809 373.336 25.035-5.86-25.59 16.52Zm0 0"/><path fill="#0398da" d="m142.887 278.695 30.511-.554 2.22 17.011ZM173.398 278.14l-30.511.555 23.93-19.754Zm0 0"/><path fill="#0594d4" d="m72.203 372.867 3.336 11.137-27.582.004Zm0 0"/><path fill="#1390c9" d="m44.582 373.36 27.621-.493-24.246 11.14Zm0 0"/><path fill="#d1d2d8" d="m102.703 332.41 14.5 36.777-32.164-13.625Zm0 0"/><path fill="#0198da" d="m55.578 324.469 21.988 2.617-12.449 25.078Zm0 0"/><path fill="#6f88a2" d="m65.117 352.164 12.45-25.078 7.472 28.476Zm0 0"/><path fill="#f5f5f7" d="m77.566 327.086 25.137 5.324-17.664 23.152Zm0 0"/><path fill="#0098da" d="m102.703 332.41-25.137-5.324 18.371-13.957ZM331.137 197.64l-19.809 18.723 2.992-24.351Zm0 0"/><path fill="#c0cad2" d="m172.844 367.477-25.035 5.859 12.824-19.64Zm0 0"/><path fill="#91b8c8" d="M246.527 318.816 274 347.07l-48.36-12.293Zm0 0"/><path fill="#0198db" d="m175.617 295.152-2.219-17.011 7.145 2.23Zm0 0"/><path fill="#0499db" d="m192.379 278.621-16.762 16.531 4.926-14.78Zm0 0"/><path fill="#0098db" d="m224.484 283.7 27.348-18.188-12.387 29.117Zm0 0"/><path fill="#211634" d="m167.027 225.957-9.867 4.68 1.27-7.067Zm0 0"/><path fill="#0098db" d="m235.465 227.469-13.68 26.672-16.867-24.758Zm0 0"/><path fill="#0098da" d="m221.785 254.14-29.672-12.48 12.805-12.277Zm0 0"/><path fill="#0098da" d="m221.785 254.14-23.957 8.407-5.715-20.887Zm0 0"/><path fill="#0098db" d="m197.828 262.547 23.957-8.406-14.226 21.785Zm0 0"/><path fill="#0098db" d="m192.379 278.621 5.45-16.074 9.73 13.379Zm0 0"/><path fill="#201533" d="m197.828 262.547-5.45 16.074-6.07-12.484ZM192.113 241.66l11.207-16.004 1.598 3.727ZM158.43 223.57l-10.887-21.363 28.656.555Zm0 0"/><path fill="#fdfdfd" d="m118.95 233.926-8.973.922-4.672-14.825Zm0 0"/><path fill="#efeef0" d="m124.973 223.918-6.024 10.008-13.644-13.903Zm0 0"/><path fill="#0699db" d="m157.16 230.637 9.656 28.304-34.992-8.265Zm0 0"/><path fill="#dfdee2" d="m112.047 214.922 12.926 8.996-19.668-3.895Zm0 0"/><path fill="#201533" d="m124.973 223.918-12.926-8.996 15.023-2.32Zm0 0"/><path fill="#0098da" d="m115.105 272.656-10.824 20.989-16.363-24.368Zm0 0"/><path fill="#0097da" d="m104.281 293.645-32.972 3.148 16.609-27.516ZM71.309 296.793l32.972-3.148-8.344 19.484Zm0 0"/><path fill="#201533" d="m130.715 257.063-8.906-5.47 10.015-.917Zm0 0"/><path fill="#0198db" d="m124.453 264.242 6.262-7.18 12.172 21.633Zm0 0"/><path fill="#0098db" d="m384 0-52.309 44.648L327.004 0ZM345.559 71.34 384 58.36l-17.852 28.867Zm0 0"/><path fill="#201533" d="M293.473 119.695 277.44 131.2l9.536-21.57ZM293.473 119.695l-6.496-10.066 25.82-.367ZM266.152 118.414l-23.73-2.848 23.039-15.39Zm0 0"/><path fill="#201533" d="m266.152 118.414-12.59 17.691-11.14-20.539Zm0 0"/><path fill="#4cb6e5" d="m138.434 149.914-22.477-5.816 24.246.816Zm0 0"/><path fill="#201533" d="m140.203 144.914 1.84-22.55 3.793 4.003Zm0 0"/><path fill="#201533" d="m142.043 122.363 16.164.09-12.371 3.914Zm0 0"/><path fill="#201533" d="m158.207 122.453-18.004 22.461 5.633-18.547ZM140.203 144.914l18.004-22.46 11.246 19.374Zm0 0"/><path fill="#57b9e5" d="m171.742 156.7-31.539-11.786 29.25-3.086Zm0 0"/><path fill="#fdfdfd" d="m151.695 79.426 29.028-22.098 2.945 20.902Zm0 0"/><path fill="#efeff1" d="m184.402 39.7-3.68 17.628-20.187-14.496Zm0 0"/><path fill="#fdfdfd" d="m180.723 57.328-29.028 22.098 8.84-36.594Zm0 0"/><path fill="#0298da" d="m206.656 69.828-25.933-12.5 26.054-6.047Zm0 0"/><path fill="#0098da" d="m180.723 57.328 25.933 12.5-22.988 8.402Zm0 0"/><path fill="#eceff1" d="m180.723 57.328 3.68-17.629 22.374 11.582Zm0 0"/><path fill="#201533" d="m158.207 122.453 13.86-4.012 2.07 9.63Zm0 0"/><path fill="#0098da" d="M172.066 118.441 166.47 98.04l16.707 7.578Zm0 0"/><path fill="#201533" d="m172.066 118.441 14.047-1.117-11.976 10.746Zm0 0"/><path fill="#0097da" d="m186.113 117.324-14.047 1.117 11.11-12.824Zm0 0"/><path fill="#fdfdfd" d="m166.469 98.04 17.199-19.81-.492 27.387Zm0 0"/><path fill="#fefefe" d="m183.668 78.23 20.637 17.235-21.13 10.152Zm0 0"/><path fill="#0298db" d="M204.305 95.465 183.668 78.23l22.988-8.402Zm0 0"/><path fill="#0198db" d="m228.652 57.727 18.504-20.055 8.633 24.203Zm0 0"/><path fill="#fafafb" d="m247.156 37.672-18.504 20.055-7.816-22.41Zm0 0"/><path fill="#201533" d="m279.492 151.816 2.41 33.844-4.359-22.113Zm0 0"/><path fill="#0098db" d="m314.676 163.55 12.078-17.253 5.492 22.683Zm0 0"/><path fill="#0098da" d="m314.32 192.012.356-28.461 17.57 5.43Zm0 0"/><path fill="#201533" d="m314.676 163.55-.356 28.462-14.558-9.282Zm0 0"/><path fill="#201533" d="m293.441 157.473 21.235 6.078-14.914 19.18ZM305.883 147.52l8.793 16.03-21.235-6.077Zm0 0"/><path fill="#0098db" d="m364.984 157.719-12.433 35.332-20.305-24.07ZM364.984 157.719l-3.367 48.152-9.066-12.82Zm0 0"/><path fill="#0098db" d="m326.754 146.297 38.23 11.422-32.738 11.261Zm0 0"/><path fill="#d4dce2" d="M35.805 100.258-.004 99.18l35.016-21.246Zm0 0"/><path fill="#0097da" d="m35.805 100.258-1.91 21.82L-.004 99.18Zm0 0"/><path fill="#d0d2d9" d="m55.746 100.418-19.941-.16-.793-22.324Zm0 0"/><path fill="#0097da" d="m35.805 100.258 19.941.16-21.851 21.66Zm0 0"/><path fill="#0897d7" d="m61.453 205.738 21.234-28.707-.843 11.856Zm0 0"/><path fill="#0097da" d="m84.938 215.566-23.485-9.828 20.39-16.851Zm0 0"/><path fill="#0399db" d="m229.738 148.926 22.578-2.668-19.968 23.043Zm0 0"/><path fill="#0198db" d="m229.738 148.926 23.825-12.82-1.247 10.152Zm0 0"/><path fill="#201533" d="m57.668 141.371.14-16.457 16.829-.035Zm0 0"/><path fill="#0097da" d="m60.145 115.305-2.336 9.61-23.914-2.837Zm0 0"/><path fill="#0097da" d="m57.809 124.914 2.336-9.61 14.492 9.575Zm0 0"/><path fill="#201533" d="m57.809 124.914-4.575 14.95-19.34-17.786Zm0 0"/><path fill="#1e1c3c" d="m53.234 139.863 4.434 1.508-4.496-1.207Zm0 0"/><path fill="#211634" d="m57.809 124.914-.141 16.457-4.434-1.508Zm0 0"/><path fill="#201533" d="m119.488 124.07 20.715 20.844-24.246-.816Zm0 0"/><path fill="#211634" d="m99.07 141.36 20.418-17.29-3.531 20.028Zm0 0"/><path fill="#201533" d="m102.484 122.414 17.004 1.656-20.418 17.29Zm0 0"/><path fill="#0097da" d="m119.488 124.07-17.004-1.656 19.649-18.297Zm0 0"/><path fill="#0097da" d="m142.043 122.363-22.555 1.707 2.645-19.953Zm0 0"/><path fill="#201533" d="m119.488 124.07 22.555-1.707-1.84 22.551Zm0 0"/><path fill="#9c97a4" d="m83.098 155.535 8.816 19.422-9.227 2.074Zm0 0"/><path fill="#211634" d="m83.098 155.535-6.785-.11L78 142.497ZM76.313 155.426l6.785.11-.41 21.495Zm0 0"/><path fill="#201533" d="M251.434 192.64 287.14 214l-49.68 2.18Zm0 0"/><path fill="#291e3b" d="m281.902 185.66-30.468 6.98 4.554-15.12Zm0 0"/><path fill="#342a45" d="m251.434 192.64 30.468-6.98 5.239 28.34Zm0 0"/><path fill="#0198db" d="m255.633 245.04-3.801 20.472-30.047-11.371Zm0 0"/><path fill="#0098da" d="m221.785 254.14 2.7 29.56-16.926-7.774Zm0 0"/><path fill="#0098da" d="m224.484 283.7-2.699-29.56 30.047 11.372Zm0 0"/><path fill="#4eb6e4" d="m277.441 131.2-25.125 15.058 1.246-10.153Zm0 0"/><path fill="#201533" d="m266.152 118.414 11.29 12.785-23.88 4.906Zm0 0"/><path fill="#35ade2" d="m252.316 146.258 25.125-15.059 2.051 20.617Zm0 0"/><path fill="#f4f6f8" d="m254.352 163.566 1.636 13.954-23.64-8.22Zm0 0"/><path fill="#e5eff5" d="m252.316 146.258 2.036 17.308-22.004 5.735Zm0 0"/><path fill="#0098db" d="m331.691 44.648-31.601 28.43-9.79-22.73Zm0 0"/><path fill="#0098da" d="m300.09 73.078-34.637 6.375 24.848-29.105Zm0 0"/><path fill="#0098db" d="m265.453 79.453 34.637-6.375-14.809 22.328ZM300.09 73.078l4.738 19.285-19.547 3.043Zm0 0"/><path fill="#0098da" d="m345.559 71.34-4.489 15.2-15.238-.548Zm0 0"/><path fill="#0098da" d="M331.691 44.648 345.56 71.34l-19.727 14.652Zm0 0"/><path fill="#201533" d="m326.906 94.305 14.164-7.766-2.668 19.008Zm0 0"/><path fill="#201533" d="m341.07 86.54-14.164 7.765-1.074-8.313ZM304.828 92.363l22.078 1.942-14.11 14.957ZM326.906 94.305l11.496 11.242-25.605 3.715Zm0 0"/><path fill="#b6c3cf" d="m147.809 373.336-5.22-29.098 18.044 9.457Zm0 0"/><path fill="#f5f5f7" d="m160.633 353.695-18.043-9.457 19.933-9.75Zm0 0"/><path fill="#fafbfb" d="m142.59 344.238 8.433-29.41 11.5 19.66Zm0 0"/><path fill="#0e96d3" d="m117.203 369.188 30.606 4.148-.555 10.66Zm0 0"/><path fill="#d7dde2" d="m142.59 344.238 5.219 29.098-30.606-4.149Zm0 0"/><path fill="#201533" d="m171.047 257.996 2.351 20.145-6.582-19.2ZM171.047 257.996l4.984-13.183 10.278 21.324Zm0 0"/><path fill="#201533" d="m171.047 257.996 15.262 8.14-5.766 14.235Zm0 0"/><path fill="#201533" d="m173.398 278.14-2.351-20.144 9.496 22.375Zm0 0"/><path fill="#0197da" d="m55.578 324.469 9.54 27.695-37.973-6.734Zm0 0"/><path fill="#edf0f2" d="M65.117 352.164 44.582 373.36l-17.437-27.93Zm0 0"/><path fill="#bdcad2" d="m65.117 352.164 7.086 20.703-27.621.492Zm0 0"/><path fill="#0097da" d="m77.566 327.086-6.257-30.293 24.629 16.336Zm0 0"/><path fill="#0097da" d="m71.309 296.793 6.257 30.293-21.988-2.617Zm0 0"/><path fill="#0097da" d="m32.871 301.281 38.438-4.488-15.73 27.676Zm0 0"/><path fill="#201533" d="m109.977 234.848 4.289 6.933-12.457 8.617ZM114.266 241.781l7.543 9.813-20-1.196Zm0 0"/><path fill="#201533" d="m114.266 241.781 4.683-7.855 2.86 17.668Zm0 0"/><path fill="#fbfbfc" d="m118.95 233.926-4.684 7.855-4.29-6.933Zm0 0"/><path fill="#201533" d="m121.809 251.594 8.906 5.469-6.262 7.18Zm0 0"/><path fill="#201533" d="m104.441 262.629 17.368-11.035 2.644 12.648Zm0 0"/><path fill="#0097da" d="m104.441 262.629 10.664 10.027-27.187-3.379Zm0 0"/><path fill="#201533" d="m115.105 272.656-10.664-10.027 20.012 1.613Zm0 0"/><path fill="#0298da" d="m384.02 298.672-.02 31.84-25.602-2.825Zm0 0"/><path fill="#e1e5e9" d="m358.5 280.934-1.305-34.622 26.79 29.305Zm0 0"/><path fill="#0098db" d="M361.617 205.871 349.16 221l-18.023-23.36Zm0 0"/><path fill="#0098db" d="m361.617 205.871-30.48-8.23 21.414-4.59ZM349.738 233.145l-7.187 23.164-30.723-4.395Zm0 0"/><path fill="#54b7e3" d="m205.14 358.86-4.327-17.735 24.828-6.348Zm0 0"/><path fill="#f3f4f5" d="m311.371 353.145-37.898-3.602.527-2.473Zm0 0"/><path fill="#0098da" d="m203.61 300.063-27.993-4.91 16.762-16.532Zm0 0"/><path fill="#0098db" d="m203.61 300.063-11.231-21.442 15.18-2.695Zm0 0"/><path fill="#0098da" d="m224.484 283.7-20.875 16.363 3.95-24.137Zm0 0"/><path fill="#0399db" d="m200.813 341.125-18.676-21.477 43.504 15.13Zm0 0"/><path fill="#fcfcfd" d="m151.023 314.828 31.114 4.82-19.614 14.84Zm0 0"/><path fill="#0198da" d="m175.617 295.152 6.52 24.496-31.114-4.82Zm0 0"/><path fill="#0298da" d="m182.137 319.648 21.472-19.586 22.032 34.715Zm0 0"/><path fill="#0097da" d="m203.61 300.063-21.473 19.585-6.52-24.496Zm0 0"/><path fill="#0197d9" d="m239.445 294.629-13.5 10.992-1.46-21.922Zm0 0"/><path fill="#0097da" d="m203.61 300.063 22.335 5.558-.304 29.156Zm0 0"/><path fill="#0097da" d="m225.945 305.621-22.336-5.558 20.875-16.364Zm0 0"/><path fill="#201533" d="m166.816 258.941-36.101-1.878 1.11-6.387Zm0 0"/><path fill="#0198db" d="m142.887 278.695-12.172-21.632 36.101 1.878Zm0 0"/><path fill="#119edc" d="m176.148 234.422-8.273 3.527-.848-11.992Zm0 0"/><path fill="#201634" d="m167.875 237.95 8.156 6.863-4.984 13.183Zm0 0"/><path fill="#0299db" d="m167.875 237.95 8.273-3.528-.117 10.39Zm0 0"/><path fill="#201533" d="m197.828 262.547-21.797-17.735 16.082-3.152Zm0 0"/><path fill="#201533" d="m176.031 244.813 21.797 17.734-11.52 3.59Zm0 0"/><path fill="#0299db" d="m180.77 225.238 22.55.418-11.207 16.004Zm0 0"/><path fill="#201533" d="m176.2 202.762 4.57 22.476-13.743.719Zm0 0"/><path fill="#211634" d="m180.77 225.238-4.57-22.476 27.12 22.894Zm0 0"/><path fill="#0198da" d="m83.473 236.246 26.504-1.398-8.168 15.55Zm0 0"/><path fill="#0198da" d="m83.473 236.246 21.832-16.223 4.672 14.825Zm0 0"/><path fill="#0499db" d="m105.305 220.023-21.832 16.223 1.465-20.68Zm0 0"/><path fill="#0198da" d="m83.473 236.246 18.336 14.152-13.891 18.88Zm0 0"/><path fill="#312743" d="m104.79 187.066-16.278.829 3.402-12.938Zm0 0"/><path fill="#322843" d="m82.688 177.031 5.824 10.864-6.668.992Zm0 0"/><path fill="#e3e2e5" d="m91.914 174.957-3.402 12.938-5.824-10.864Zm0 0"/><path fill="#201533" d="m124.977 180.61 13.457-30.696 21.324 25.578ZM138.434 149.914l-13.457 30.695-9.02-36.511ZM121.809 251.594l7.304-5.906 2.711 4.988Zm0 0"/><path fill="#201533" d="m129.113 245.688 28.047-15.051-25.336 20.039Zm0 0"/><path fill="#0097da" d="m104.281 293.645 14.367 22.425-22.71-2.941Zm0 0"/><path fill="#0298da" d="m118.648 316.07-15.945 16.34-6.766-19.281Zm0 0"/><path fill="#0098da" d="m135.406 293.746-20.3-21.09 27.78 6.04Zm0 0"/><path fill="#0097da" d="m135.406 293.746-31.125-.101 10.824-20.989ZM118.648 316.07l16.758-22.324 15.617 21.082Zm0 0"/><path fill="#0097da" d="m135.406 293.746-16.758 22.324-14.367-22.425ZM135.406 293.746l7.48-15.05 32.731 16.456Zm0 0"/><path fill="#0097da" d="m151.023 314.828-15.617-21.082 40.211 1.406Zm0 0"/><path fill="#0098db" d="M345.559 71.34 331.69 44.648 384 58.36Zm0 0"/><path fill="#0098db" d="m366.148 87.227-25.078-.688 4.489-15.2Zm0 0"/><path fill="#201533" d="m293.473 119.695.523 9.465-16.555 2.04Zm0 0"/><path fill="#c4e4f3" d="m277.441 131.2 16.555-2.04-14.504 22.656Zm0 0"/><path fill="#0198db" d="m293.996 129.16 11.887 18.36-12.442 9.953Zm0 0"/><path fill="#0098db" d="m326.754 146.297 9.66-24.266 28.57 35.688ZM326.754 146.297l-12.078 17.254-8.793-16.031Zm0 0"/><path fill="#0098da" d="m142.043 122.363 12.441-19.781 3.723 19.871Zm0 0"/><path fill="#0197da" d="m154.484 102.582 17.582 15.86-13.859 4.011Zm0 0"/><path fill="#e8e9ec" d="m166.469 98.04-11.985 4.542-2.789-23.156Zm0 0"/><path fill="#0198da" d="m172.066 118.441-17.582-15.859 11.985-4.543Zm0 0"/><path fill="#201533" d="m186.113 117.324.63 22.942-12.606-12.196Zm0 0"/><path fill="#221735" d="m186.742 140.266-17.289 1.562 4.684-13.758Zm0 0"/><path fill="#0399db" d="m186.742 140.266-15 16.433-2.289-14.87Zm0 0"/><path fill="#201533" d="m186.742 140.266-.629-22.942 7.535 18.203Zm0 0"/><path fill="#0e9cdb" d="m186.742 140.266 6.906-4.739.149 5.836Zm0 0"/><path fill="#069adb" d="m171.742 156.7 15-16.434 7.055 1.097Zm0 0"/><path fill="#0098da" d="m186.113 117.324-2.937-11.707 32.531 4.38Zm0 0"/><path fill="#201533" d="m140.203 144.914 31.54 11.785-11.985 18.793Zm0 0"/><path fill="#201533" d="m138.434 149.914 1.77-5 19.554 30.578Zm0 0"/><path fill="#ebf5f9" d="m281.902 185.66-2.41-33.844 13.95 5.657Zm0 0"/><path fill="#0198db" d="m279.492 151.816 14.504-22.656-.555 28.313Zm0 0"/><path fill="#0098db" d="m364.984 157.719-28.57-35.688 27.258-5.008Zm0 0"/><path fill="#332945" d="m60.672 216.113.781-10.375 23.484 9.828Zm0 0"/><path fill="#201533" d="m61.453 205.738-.781 10.375-35.817-6.648Zm0 0"/><path fill="#0496d8" d="m61.453 205.738 14.86-50.312 6.374 21.605Zm0 0"/><path fill="#0198da" d="m76.313 155.426-14.86 50.312-3.785-64.367Zm0 0"/><path fill="#0399db" d="m215.066 151.238 14.672-2.312 2.61 20.375Zm0 0"/><path fill="#fdfdfd" d="m199.676 161.238 15.39-10 17.282 18.063Zm0 0"/><path fill="#f6f6f8" d="m215.066 151.238-15.39 10-2.278-23.398Zm0 0"/><path fill="#0499db" d="m222.96 139.344-7.894 11.894-17.668-13.398Zm0 0"/><path fill="#059adb" d="m215.066 151.238 7.895-11.894 6.777 9.582Zm0 0"/><path fill="#0198db" d="m229.738 148.926-6.777-9.582 30.601-3.239Zm0 0"/><path fill="#201533" d="m253.563 136.105-30.602 3.239 19.46-23.778Zm0 0"/><path fill="#2e2440" d="m203.32 225.656 34.14-9.476-1.995 11.289Zm0 0"/><path fill="#201533" d="m237.46 216.18-34.14 9.476 8.961-32.68Zm0 0"/><path fill="#0098db" d="M325.832 85.992 300.09 73.078l31.601-28.43Zm0 0"/><path fill="#0098db" d="m300.09 73.078 25.742 12.914-21.004 6.371Zm0 0"/><path fill="#201533" d="m325.832 85.992 1.074 8.313-22.078-1.942Zm0 0"/><path fill="#eeeef0" d="m102.703 332.41 21.734-.187-7.234 36.964Zm0 0"/><path fill="#e9e9ec" d="m124.438 332.223 18.152 12.015-25.387 24.95Zm0 0"/><path fill="#f5f6f8" d="m142.59 344.238-18.153-12.015 26.586-17.395Zm0 0"/><path fill="#201533" d="m121.809 251.594-17.368 11.035-2.632-12.23Zm0 0"/><path fill="#0198da" d="m101.809 250.398 2.632 12.23-16.523 6.65Zm0 0"/><path fill="#fafafb" d="m383.988 351.328.004 32.664-26.777-32Zm0 0"/><path fill="#fcfcfc" d="m371.773 340.516-14.558 11.476 1.183-24.305Zm0 0"/><path fill="#0098da" d="m384 330.512-12.227 10.004-13.375-12.829Zm0 0"/><path fill="#0098db" d="M371.773 340.516 384 330.512l-.012 20.816Zm0 0"/><path fill="#fafafb" d="m327.66 294.36-32.676 13.624 8.618-28.96Zm0 0"/><path fill="#f5f6f8" d="m335.664 320.406 21.55 31.586-45.843 1.153Zm0 0"/><path fill="#f8fafb" d="m294.984 307.984 40.68 12.422-24.293 32.739Zm0 0"/><path fill="#e8e9ec" d="m327.66 294.36 8.004 26.046-40.68-12.422Zm0 0"/><path fill="#f4f5f6" d="m357.215 351.992-21.55-31.586 22.733 7.281Zm0 0"/><path fill="#7991a6" d="m239.445 294.629 25.922 8.594-18.84 15.593Zm0 0"/><path fill="#fdfdfe" d="m383.984 275.617-26.789-29.305 26.809-.25Zm0 0"/><path fill="#0097da" d="M374.406 229.258 349.16 221l12.457-15.129Zm0 0"/><path fill="#201533" d="m349.16 221 25.246 8.258-24.668 3.887Zm0 0"/><path fill="#0198db" d="m374.406 229.258-17.21 17.054-7.458-13.167Zm0 0"/><path fill="#0098da" d="m384.004 221.598-9.598 7.66-12.789-23.387Zm0 0"/><path fill="#0098db" d="m374.406 229.258 9.598-7.66v24.464Zm0 0"/><path fill="#0098db" d="m357.195 246.313 17.211-17.055 9.598 16.804ZM349.738 233.145l7.457 13.167-14.644 9.997Zm0 0"/><path fill="#0499db" d="m302.617 207.414-2.265 23.078L287.14 214Zm0 0"/><path fill="#0097da" d="m311.328 216.363-8.71-8.949 11.702-15.402Zm0 0"/><path fill="#f8f9fa" d="m311.828 251.914 30.723 4.395-13.434 23.214Zm0 0"/><path fill="#6d839c" d="m303.602 279.023 8.226-27.109 17.29 27.61Zm0 0"/><path fill="#0098db" d="m311.828 251.914-8.226 27.11-19.512-23.231Zm0 0"/><path fill="#201533" d="m349.738 233.145-49.386-2.653 10.976-14.129Zm0 0"/><path fill="#0098db" d="m300.352 230.492 2.265-23.078 8.711 8.95ZM300.352 230.492l49.386 2.653-37.91 18.77Zm0 0"/><path fill="#0098db" d="m284.09 255.793 16.262-25.3 11.476 21.421ZM349.16 221l-37.832-4.637 19.809-18.722Zm0 0"/><path fill="#201533" d="m349.16 221 .578 12.145-38.41-16.782Zm0 0"/><path fill="#b8cbd3" d="m185.36 383.992 19.78-25.133 59.536 25.16Zm0 0"/><path fill="#4699a9" d="m205.14 358.86 20.5-24.083 39.036 49.243Zm0 0"/><path fill="#dde9ec" d="m225.64 334.777 47.833 14.766-8.797 34.477Zm0 0"/><path fill="#8bb1be" d="m273.473 349.543-47.832-14.766L274 347.07Zm0 0"/><path fill="#b2bdc7" d="m264.676 384.02 46.695-30.875 72.621 30.847Zm0 0"/><path fill="#909cac" d="m273.473 349.543 37.898 3.602-46.695 30.875Zm0 0"/><path fill="#fefefe" d="m182.137 319.648.11 21.926-19.724-7.086Zm0 0"/><path fill="#f8f8f8" d="m182.246 341.574-21.613 12.121 1.89-19.207Zm0 0"/><path fill="#f9f9fa" d="m182.246 341.574-9.402 25.903-12.211-13.782Zm0 0"/><path fill="#0298db" d="m182.246 341.574-.11-21.926 18.677 21.477Zm0 0"/><path fill="#f4f5f6" d="m172.844 367.477 9.402-25.903 22.895 17.285Zm0 0"/><path fill="#ecedef" d="m182.246 341.574 18.566-.449 4.329 17.734Zm0 0"/><path fill="#302642" d="m167.875 237.95-10.715-7.313 9.867-4.68Zm0 0"/><path fill="#0999d9" d="m166.816 258.941 1.059-20.992 3.172 20.047Zm0 0"/><path fill="#089adb" d="m167.875 237.95-1.059 20.991-9.656-28.304Zm0 0"/><path fill="#0298db" d="m176.031 244.813.117-10.391 15.965 7.238Zm0 0"/><path fill="#099bdb" d="m180.77 225.238-4.622 9.184-9.12-8.465Zm0 0"/><path fill="#069adb" d="m176.148 234.422 4.622-9.184 11.343 16.422Zm0 0"/><path fill="#201533" d="m118.95 233.926 10.163 11.762-7.304 5.906Zm0 0"/><path fill="#201533" d="m124.973 223.918 4.14 21.77-10.164-11.762Zm0 0"/><path fill="#0098da" d="m157.16 230.637-23.433-10.535 24.703 3.468Zm0 0"/><path fill="#201533" d="m133.727 220.102 13.816-17.895 10.887 21.363Zm0 0"/><path fill="#201533" d="m147.543 202.207-13.816 17.895-6.657-7.5Zm0 0"/><path fill="#211734" d="m133.727 220.102-8.754 3.816 2.097-11.316Zm0 0"/><path fill="#0399db" d="m157.16 230.637-28.047 15.05-4.14-21.769Zm0 0"/><path fill="#0d9cdb" d="m133.727 220.102 23.433 10.535-32.187-6.719Zm0 0"/><path fill="#201533" d="m350.5 98.477 13.172 18.546-25.27-11.476ZM341.07 86.54l9.43 11.937-12.098 7.07Zm0 0"/><path fill="#201533" d="M363.672 117.023 350.5 98.477l15.648-11.25ZM350.5 98.477l-9.43-11.938 25.078.688Zm0 0"/><path fill="#0298db" d="m293.996 129.16 16.844-5.226-4.957 23.586Zm0 0"/><path fill="#201533" d="m310.84 123.934-16.844 5.226-.523-9.465Zm0 0"/><path fill="#0098db" d="m310.84 123.934 15.914 22.363-20.871 1.223ZM326.754 146.297l-15.914-22.363 25.574-1.903Zm0 0"/><path fill="#201533" d="m336.414 122.031-25.574 1.903 1.957-14.672ZM310.84 123.934l-17.367-4.239 19.324-10.433Zm0 0"/><path fill="#e8e8eb" d="m154.484 102.582-11.27-7.148 8.481-16.008Zm0 0"/><path fill="#201533" d="m242.422 115.566-28.125 6.399 1.41-11.969Zm0 0"/><path fill="#201533" d="m214.297 121.965-28.184-4.64 29.594-7.329Zm0 0"/><path fill="#201533" d="m222.96 139.344-8.663-17.38 28.125-6.398ZM186.113 117.324l28.184 4.64-20.649 13.563ZM193.648 135.527l20.649-13.562-16.899 15.875Zm0 0"/><path fill="#201533" d="m214.297 121.965 8.664 17.379-25.563-1.504Zm0 0"/><path fill="#fcfbfc" d="m95.145 145.656 3.925-4.297 16.887 2.739Zm0 0"/><path fill="#fefefe" d="m83.098 155.535 18.277 12.68-9.46 6.742Zm0 0"/><path fill="#211634" d="m101.375 168.215-6.23-22.559 20.812-1.558Zm0 0"/><path fill="#0098db" d="m235.465 227.469 24.66 1.246-4.492 16.324Zm0 0"/><path fill="#0098db" d="m235.465 227.469 20.168 17.57-33.848 9.102ZM281.68 230.848l18.672-.356-16.262 25.301Zm0 0"/><path fill="#221735" d="m287.14 214-5.46 16.848-21.555-2.133Zm0 0"/><path fill="#302541" d="m300.352 230.492-18.672.356L287.14 214Zm0 0"/><path fill="#5c546a" d="m260.125 228.715-22.664-12.535 49.68-2.18Zm0 0"/><path fill="#231835" d="m235.465 227.469 1.996-11.29 22.664 12.536Zm0 0"/><path fill="#eff3f5" d="m124.438 332.223-5.79-16.153 32.375-1.242Zm0 0"/><path fill="#dde1e6" d="m118.648 316.07 5.79 16.153-21.735.187Zm0 0"/><path fill="#f7fbfb" d="m357.215 351.992 26.777 32-72.62-30.847Zm0 0"/><path fill="#f9f9fa" d="m357.215 351.992 14.558-11.476 12.215 10.812Zm0 0"/><path fill="#eeeef0" d="m329.117 279.523-1.457 14.836-24.058-15.336Zm0 0"/><path fill="#fdfdfd" d="m353.441 301.75-17.777 18.656-8.004-26.047Zm0 0"/><path fill="#fefefe" d="m335.664 320.406 17.777-18.656 4.957 25.938Zm0 0"/><path fill="#f5f5f7" d="m353.441 301.75 30.579-3.078-25.622 29.015Zm0 0"/><path fill="#e6eaed" d="m294.984 307.984 16.387 45.16L274 347.07Zm0 0"/><path fill="#dce1e5" d="m264.563 275.938.804 27.285-25.922-8.594Zm0 0"/><path fill="#fafafa" d="m265.367 303.223-.805-27.286 13.813 14.75Zm0 0"/><path fill="#0098da" d="m251.832 265.512 12.73 10.426-25.117 18.69Zm0 0"/><path fill="#d0dfe4" d="M265.367 303.223 274 347.07l-27.473-28.254Zm0 0"/><path fill="#eaecee" d="m265.367 303.223 29.617 4.761L274 347.07Zm0 0"/><path fill="#f8f8f9" d="m265.367 303.223 13.008-12.536 16.61 17.297Zm0 0"/><path fill="#fdfdfd" d="m358.5 280.934 25.52 17.738-30.579 3.078Zm0 0"/><path fill="#dbdbe1" d="m384.02 298.672-25.52-17.738 25.484-5.317Zm0 0"/><path fill="#4588af" d="m246.527 318.816-20.582-13.195 13.5-10.992Zm0 0"/><path fill="#61a7ca" d="m246.527 318.816-20.886 15.961.304-29.156Zm0 0"/><path fill="#0198da" d="m138.863 103.906 3.18 18.457-19.91-18.246Zm0 0"/><path fill="#0198da" d="m138.863 103.906 15.621-1.324-12.441 19.781Zm0 0"/><path fill="#e5e8eb" d="m138.863 103.906 4.352-8.472 11.27 7.148Zm0 0"/><path fill="#f9fafa" d="m124.809 90.836-16.79-17.715 43.676 6.305Zm0 0"/><path fill="#f8f9f9" d="m143.215 95.434-18.406-4.598 26.886-11.41Zm0 0"/><path fill="#e2e5e8" d="M124.809 90.836 93.71 97.84 108.02 73.12Zm0 0"/><path fill="#fafbfc" d="m138.863 103.906-14.054-13.07 18.406 4.598Zm0 0"/><path fill="#dce0e4" d="m93.71 97.84 31.099-7.004-2.676 13.281Zm0 0"/><path fill="#dcdfe4" d="m124.809 90.836 14.054 13.07-16.73.211Zm0 0"/><path fill="#dbd9de" d="m101.375 168.215 3.414 18.851-12.875-12.109Zm0 0"/><path fill="#251b38" d="m101.375 168.215 23.602 12.394-20.188 6.457Zm0 0"/><path fill="#2a1f3c" d="m124.977 180.61-23.602-12.395 14.582-24.117Zm0 0"/><path fill="#fdfdfd" d="m89.094 151.156 12.281 17.059-18.277-12.68Zm0 0"/><path fill="#fefdfe" d="m101.375 168.215-12.281-17.059 6.05-5.5Zm0 0"/><path fill="#fafafb" d="m89.094 151.156-5.996 4.38L78 142.495Zm0 0"/><path fill="#fdfdfe" d="m95.145 145.656-6.051 5.5L78 142.496Zm0 0"/><path fill="#0098da" d="m281.68 230.848-26.047 14.191 4.492-16.324Zm0 0"/><path fill="#0097da" d="m284.09 255.793-19.527 20.144-12.731-10.425Zm0 0"/><path fill="#0198da" d="m255.633 245.04 28.457 10.753-32.258 9.719Zm0 0"/><path fill="#0098db" d="m284.09 255.793-28.457-10.754 26.047-14.191Zm0 0"/><path fill="#fefefe" d="m358.5 280.934-5.059 20.816-25.78-7.39Zm0 0"/><path fill="#fafafb" d="m329.117 279.523 29.383 1.41-30.84 13.426Zm0 0"/><path fill="#847f8f" d="m357.195 246.313 1.305 34.62-15.95-24.624Zm0 0"/><path fill="#ececef" d="m358.5 280.934-29.383-1.41 13.434-23.215Zm0 0"/><path fill="#f8f8f9" d="m294.984 307.984-9.304-27.937 17.922-1.024Zm0 0"/><path fill="#0098da" d="m285.68 280.047-1.59-24.254 19.512 23.23ZM284.09 255.793l1.59 24.254-21.118-4.11Zm0 0"/><path fill="#fafafb" d="m264.563 275.938 21.117 4.109-7.305 10.64Zm0 0"/><path fill="#f7f7f8" d="m285.68 280.047 9.304 27.937-16.609-17.296Zm0 0"/></svg>