<svg xmlns="http://www.w3.org/2000/svg" width="512" height="512" viewBox="0 0 384 384"><path fill="#ded685" d="m378.508 228.043-16.746-57.816L384 228.46Zm0 0"/><path fill="#ded684" d="M361.762 170.227 384 152.657v75.804ZM41.23 242.438 0 240.453l21.137-30.723Zm0 0"/><path fill="#ded684" d="m0 240.453 41.23 1.984-8.675 33.489ZM0 240.453v-80.445l21.137 49.722ZM208.637 384h-42.149l41.969-46.375Zm0 0"/><path fill="#ded684" d="m0 240.453 32.555 35.473L0 301.156ZM277.035 71.984l17.45 21.711-18.723 5.899Zm0 0"/><path fill="#dfd785" d="m359.672 146.367 24.328 6.29-22.238 17.57Zm0 0"/><path fill="#ded684" d="M14.84 127.66 0 160.008v-42.496ZM14.84 127.66l19.336 28.945L0 160.008ZM0 160.008l34.176-3.403-13.04 53.125Zm0 0"/><path fill="#dfd785" d="m168.61 36.43-47.192 13.68L144.883 0Zm0 0"/><path fill="#ded684" d="m203.46 0-34.85 36.43L144.882 0ZM168.61 36.43 203.46 0l2.9 55.578ZM75.258 106.93 58.324 61.098 99.93 96.012ZM0 0l58.324 61.098L0 75.89Zm0 0"/><path fill="#ded684" d="m84.734 0-26.41 61.098L0 0ZM58.324 61.098l63.094-10.989L99.93 96.012Zm0 0"/><path fill="#963c3c" d="m239.89 184.625-6.835-12.23 9.457-1.622Zm0 0"/><path fill="#ded684" d="m233.055 172.395.879-7.47 8.578 5.848Zm0 0"/><path fill="#ded684" d="m233.934 164.926-.88 7.469-16.992-6.704Zm0 0"/><path fill="#963c3c" d="m258.023 178.434-18.132 6.191 2.62-13.852Zm0 0"/><path fill="#ded684" d="M57.234 321.39 94.73 384H0Zm0 0"/><path fill="#ded684" d="m0 301.156 32.555-25.23 24.68 45.465ZM67.73 272.355l-35.175 3.57 8.675-33.488Zm0 0"/><path fill="#953b3b" d="m199.14 161.672-17.449 19.582-8.707-23.543Zm0 0"/><path fill="#953b3b" d="M181.691 181.254 160.09 170.23l12.894-12.52Zm0 0"/><path fill="#963c3c" d="m182.207 203.09-.516-21.836 32.012 5.73Zm0 0"/><path fill="#953b3b" d="m212.484 209.645-30.277-6.555 31.496-16.106Zm0 0"/><path fill="#963c3c" d="m182.207 203.09-33.473-6.621 32.957-15.215Zm0 0"/><path fill="#963c3c" d="m148.734 196.469 33.473 6.62-22.32 21.138ZM159.887 224.227l22.32-21.137-8.965 21.488Zm0 0"/><path fill="#ded684" d="m277.035 71.984-1.273 27.61-13.09.586Zm0 0"/><path fill="#963c3c" d="m263.14 107.746-12.308-5.14 11.84-2.426Zm0 0"/><path fill="#963c3c" d="m275.762 99.594-12.621 8.152-.47-7.566Zm0 0"/><path fill="#963c3c" d="m263.14 107.746 12.622-8.152-1.852 19.84Zm0 0"/><path fill="#ded684" d="M262.672 100.18 245.64 69.45l31.394 2.534Zm0 0"/><path fill="#ded684" d="m250.832 102.605-5.191-33.156 17.03 30.73Zm0 0"/><path fill="#963c3c" d="m228.008 107.648 22.824-5.043-1.754 18.32Zm0 0"/><path fill="#dfd785" d="m206.36 55.578 39.28 13.871-22.324 19.239Zm0 0"/><path fill="#ded684" d="m264.055 44.895-26.446-8.516L265.582 0ZM265.582 0h54.508L295.8 39.48Zm0 0"/><path fill="#ded684" d="M264.055 44.895 265.582 0l30.219 39.48Zm0 0"/><path fill="#963c3c" d="m298.703 181.434 16.649 12.617-31.579 4.992Zm0 0"/><path fill="#dfd685" d="M384.188 103.55 384 152.657l-.223-50.164Zm0 0"/><path fill="#ded684" d="m384 152.656-12.676-34.851 12.453-15.313ZM350.852 193.504l-20.247-5.02 2.399-13.59Zm0 0"/><path fill="#963c3c" d="m337.191 197.945-6.586-9.46 20.247 5.019Zm0 0"/><path fill="#963c3c" d="m330.605 188.484 6.586 9.461-15.418-.062Zm0 0"/><path fill="#ded684" d="m330.605 188.484-15.253 5.567 17.652-19.156Zm0 0"/><path fill="#963c3c" d="m315.352 194.05 15.253-5.566-8.832 9.399ZM97.297 196.617l-13.688 12.824-.386-22.785Zm0 0"/><path fill="#dfd785" d="m25.02 209.723 16.21 32.714-20.093-32.707ZM34.176 156.605l-9.156 53.118-3.883.007Zm0 0"/><path fill="#ded684" d="m203.46 0 34.15 36.379-31.25 19.2ZM121.418 50.11 84.734 0h60.149ZM84.734 0l36.684 50.11-63.094 10.988ZM197.324 155.563l1.817 6.109-26.157-3.961Zm0 0"/><path fill="#963c3c" d="m223.957 120.191 4.05-12.543 21.071 13.278Zm0 0"/><path fill="#963c3c" d="m228.008 107.648-4.051 12.543-11.336-9.52Zm0 0"/><path fill="#ded684" d="M75.258 106.93 99.93 96.012l-12.907 27.324Zm0 0"/><path fill="#963c3c" d="m79.035 125.848-3.777-18.918 11.765 16.406ZM103.117 140.496l-8.66 5.445-7.434-22.605ZM233.055 172.395l-19.352 14.59 2.36-21.294Zm0 0"/><path fill="#963c3c" d="m239.89 184.625-26.187 2.36 19.352-14.59Zm0 0"/><path fill="#ded684" d="m260.512 176.512 19.636 9.105-22.125-7.183Zm0 0"/><path fill="#ded684" d="m280.148 185.617-19.636-9.105 15.93-14.328ZM136.688 342.512 94.73 384l15.754-57.102Zm0 0"/><path fill="#ded684" d="m94.73 384 41.957-41.488L166.489 384ZM0 301.156l57.234 20.235L0 384ZM67.73 272.355l-26.5-29.918 37.188-5.523ZM90.031 253.242l-22.3 19.113 10.687-35.44Zm0 0"/><path fill="#953b3b" d="m181.691 181.254 23.48-15.613 8.532 21.343Zm0 0"/><path fill="#953c3c" d="m199.14 161.672 6.032 3.969-23.48 15.613Zm0 0"/><path fill="#963c3c" d="m213.703 186.984-8.531-21.343 10.89.05Zm0 0"/><path fill="#963d3c" d="m163.012 230.125-3.125-5.898 13.355.351Zm0 0"/><path fill="#963c3c" d="m148.734 196.469 11.356-26.239 21.601 11.024Zm0 0"/><path fill="#953b3b" d="m183.34 260.086 6.812 18.879-12.93 2.562Zm0 0"/><path fill="#963c3c" d="m101.977 217.922-19.165.531 5.13-4.93Zm0 0"/><path fill="#963c3c" d="m82.813 218.453.796-9.012 4.332 4.082Zm0 0"/><path fill="#ded684" d="m82.813 218.453 19.164-.531-23.559 18.992ZM99.43 207.691l-2.133-11.074 12.71 5.723Zm0 0"/><path fill="#963c3c" d="m83.61 209.441 15.82-1.75-11.489 5.832Zm0 0"/><path fill="#ded684" d="m99.43 207.691-15.82 1.75 13.687-12.824Zm0 0"/><path fill="#963c3c" d="m99.43 207.691 2.547 10.23-14.036-4.398Zm0 0"/><path fill="#ded684" d="m101.977 217.922-2.547-10.23 10.578-5.352Zm0 0"/><path fill="#963c3c" d="m148.734 196.469-18.562 23.597-6.496-14.906Zm0 0"/><path fill="#ded684" d="M341.203 44.574 384 0v60.48ZM341.203 44.574l-45.402-5.094L320.09 0Zm0 0"/><path fill="#963c3c" d="m297.086 106.707 16.527-16.184 6.832 16.243ZM297.086 106.707l-23.176 12.727 1.852-19.84Zm0 0"/><path fill="#963c3c" d="m294.484 93.695 2.602 13.012-21.324-7.113ZM313.613 90.523l-16.527 16.184-2.602-13.012Zm0 0"/><path fill="#ded684" d="m277.035 71.984-12.98-27.09L295.8 39.48Zm0 0"/><path fill="#963c3c" d="m263.14 107.746-14.062 13.18 1.754-18.32Zm0 0"/><path fill="#9a4440" d="m138.77 141.566 5.859.434-1.453 9.027Zm0 0"/><path fill="#ded684" d="m197.324 155.563-2.863-19.918 11.129 3.34Zm0 0"/><path fill="#963c3c" d="m170.328 140.48-6.3-18.628 14.312 3.953Zm0 0"/><path fill="#dfd785" d="M168.61 36.43 166.503 73l-45.086-22.89Zm0 0"/><path fill="#ded684" d="m223.316 88.688 4.692 18.96-15.387 3.024Zm0 0"/><path fill="#dfd785" d="m223.316 88.688 22.325-19.239 5.191 33.156Zm0 0"/><path fill="#ded684" d="m228.008 107.648-4.692-18.96 27.516 13.917Zm0 0"/><path fill="#dfd785" d="m196.074 88.664 10.285-33.086 16.957 33.11Zm0 0"/><path fill="#dfd785" d="m196.074 88.664 27.242.023-10.695 21.985ZM190.191 105.625l5.883-16.96 16.547 22.007Zm0 0"/><path fill="#ded684" d="M237.61 36.379 203.46 0h62.122ZM237.61 36.379l8.03 33.07-39.28-13.87ZM237.61 36.379l26.445 8.516-18.414 24.554Zm0 0"/><path fill="#963c3c" d="m280.148 185.617 18.555-4.183-14.93 17.609ZM280.148 185.617l10.95-23.777 7.605 19.594ZM336.457 100.664l-.73 20.574-15.282-14.472Zm0 0"/><path fill="#dfd785" d="m359.672 146.367-20.492 9.172 5.136-18.918Zm0 0"/><path fill="#963c3c" d="m348.559 100.715-12.832 20.523.73-20.574Zm0 0"/><path fill="#963c3c" d="m335.727 121.238 12.832-20.523 17.453 15.957Zm0 0"/><path fill="#ded684" d="m0 117.512 26.96-15.2-12.12 25.348ZM26.96 102.313l17.661 21.277-29.781 4.07ZM52.75 107.07l5.574-45.972 16.934 45.832ZM14.84 127.66l29.168 8.27-9.832 20.675Zm0 0"/><path fill="#963c3c" d="m44.621 123.59-.613 12.34-29.168-8.27Zm0 0"/><path fill="#ded684" d="M0 117.512V75.89l26.96 26.421Zm0 0"/><path fill="#dfd785" d="m0 75.89 58.324-14.792-31.363 41.215Zm0 0"/><path fill="#ded685" d="m25.02 209.723 33.168 6.218-16.958 26.496Zm0 0"/><path fill="#dfd785" d="m41.23 242.438 16.958-26.497 20.23 20.973Zm0 0"/><path fill="#dfd785" d="m58.188 215.941 24.624 2.512-4.394 18.461Zm0 0"/><path fill="#ded684" d="M57.008 177.71 25.02 209.724l9.156-53.118ZM208.023 156.02l-10.699-.458 8.266-16.578Zm0 0"/><path fill="#ded684" d="m197.324 155.563 10.7.457-8.883 5.652Zm0 0"/><path fill="#ded684" d="m205.172 165.64 2.851-9.62 8.04 9.671Zm0 0"/><path fill="#ded684" d="m208.023 156.02-2.851 9.62-6.031-3.968ZM59.617 122.906 52.75 107.07l22.508-.14Zm0 0"/><path fill="#ded684" d="m59.617 122.906 15.64-15.976 3.778 18.918ZM52.75 107.07l6.867 15.836-14.996.684Zm0 0"/><path fill="#ddd584" d="m58.105 138.59 18.915 5.129-18.368 5.68Zm0 0"/><path fill="#ded584" d="m79.035 125.848 15.422 20.093-17.437-2.222Zm0 0"/><path fill="#963c3c" d="m58.105 138.59 20.93-12.742-2.015 17.87Zm0 0"/><path fill="#ded684" d="m94.457 145.941-15.422-20.093 7.988-2.512ZM99.93 96.012l4.718 26.754-17.625.57Zm0 0"/><path fill="#963c3c" d="m104.648 122.766-1.53 17.73-16.095-17.16Zm0 0"/><path fill="#ded684" d="M104.648 122.766 99.93 96.012l19.945 16.133Zm0 0"/><path fill="#963c3c" d="m139.988 167.305 20.102 2.925-11.356 26.239ZM258.176 196.715l-18.285-12.09 18.132-6.191ZM224.531 226.773l-21.402.184 9.355-17.312ZM285.434 216.145l-16.188-3.07 14.527-14.032Zm0 0"/><path fill="#963c3c" d="m315.352 194.05-29.918 22.095-1.66-17.102ZM269.246 213.074l-6.355 15.547-15.696-13.266Zm0 0"/><path fill="#ded684" d="m256.605 136.734 22.657 2.489-24.63 5.05ZM260.512 176.512l-3.637-24.012 19.566 9.684ZM256.875 152.5l22.387-13.277-2.82 22.96Zm0 0"/><path fill="#963c3c" d="m256.875 152.5 3.637 24.012-2.489 1.922Zm0 0"/><path fill="#ded684" d="M279.262 139.223 256.875 152.5l-2.242-8.227ZM308.29 70.465 295.8 39.48l45.403 5.094Zm0 0"/><path fill="#dfd785" d="m308.29 70.465 32.913-25.89-9.644 40.636Zm0 0"/><path fill="#963c3c" d="m341.637 89.254 6.922 11.46-12.102-.05Zm0 0"/><path fill="#ded684" d="m94.73 384-37.496-62.61 53.25 5.508Zm0 0"/><path fill="#ded684" d="m110.484 326.898-53.25-5.507 47.575-26.211ZM57.234 321.39l-24.68-45.464 35.176-3.57Zm0 0"/><path fill="#dfd785" d="m337.191 197.945-4.488 19.086-10.93-19.148Zm0 0"/><path fill="#ded684" d="m176.117 304.781-9.11-41.566 10.216 18.312Zm0 0"/><path fill="#ded684" d="m167.008 263.215 9.11 41.566-31.794-.715Zm0 0"/><path fill="#ded684" d="m190.152 278.965-14.035 25.816 1.106-23.254Zm0 0"/><path fill="#963c3c" d="m167.008 263.215-19.153-7.363 21.22.464Zm0 0"/><path fill="#dfd785" d="m172.969 238.781-9.957-8.656 10.23-5.547ZM212.418 252.594l12.195-16.965 19.875 28.988Zm0 0"/><path fill="#ded684" d="m224.531 226.773.082 8.856-21.484-8.672ZM203.773 229.555l8.645 23.039-19.445-8.711Zm0 0"/><path fill="#ded684" d="m224.613 235.629-20.84-6.074-.644-2.598ZM203.773 229.555l20.84 6.074-12.195 16.965Zm0 0"/><path fill="#ded684" d="m212.418 252.594-16.063 10.449-3.382-19.16Zm0 0"/><path fill="#ded684" d="m196.355 263.043 16.063-10.45.242 34.18Zm0 0"/><path fill="#ded684" d="m190.152 278.965 6.203-15.922 16.305 23.73Zm0 0"/><path fill="#963c3c" d="m196.355 263.043-6.203 15.922-6.812-18.88Zm0 0"/><path fill="#ded684" d="m97.297 196.617 5.59-14.047 7.12 19.77Zm0 0"/><path fill="#963c3c" d="m123.676 205.16-4.41-24.785 29.468 16.094Zm0 0"/><path fill="#953c3b" d="m119.266 180.375 4.41 24.785-13.668-2.82Zm0 0"/><path fill="#202215" d="m102.887 182.57 16.379-2.195-9.258 21.965Zm0 0"/><path fill="#ded684" d="m124.035 235.809-13.578-1.473.848-6.195Zm0 0"/><path fill="#963d3c" d="m128.477 225.375-4.442 10.434-12.73-7.668Zm0 0"/><path fill="#ded684" d="m112.793 216.652-10.816 1.27 8.03-15.582Zm0 0"/><path fill="#963c3c" d="m123.676 205.16-10.883 11.492-2.785-14.312Zm0 0"/><path fill="#dfd785" d="m101.977 217.922 10.816-1.27-1.488 11.489Zm0 0"/><path fill="#963c3c" d="m112.793 216.652 10.883-11.492 6.496 14.906Zm0 0"/><path fill="#ded684" d="m112.793 216.652 15.684 8.723-17.172 2.766Zm0 0"/><path fill="#963d3c" d="m128.477 225.375-15.684-8.723 17.379 3.414Zm0 0"/><path fill="#ded684" d="m104.809 295.18-47.575 26.21 10.496-49.035Zm0 0"/><path fill="#963e3c" d="m133.18 256.695-2.13-3.57 16.805 2.727Zm0 0"/><path fill="#ded684" d="m123.324 266.305 9.856-9.61-4.836 18.637ZM371.426 70.629l-30.223-26.055L384 60.48ZM384 0l-42.797 44.574L320.09 0Zm0 0"/><path fill="#dfd785" d="M371.426 70.629 384 60.48l.188 43.07Zm0 0"/><path fill="#dfd785" d="m371.426 70.629 12.762 32.922-.41-1.059Zm0 0"/><path fill="#ded684" d="m365.195 88.137 6.23-17.508 12.352 31.863Zm0 0"/><path fill="#ded684" d="m341.203 44.574 30.223 26.055-20.106 5.836ZM371.426 70.629l-6.23 17.508-13.876-11.672Zm0 0"/><path fill="#963c3c" d="m303.773 125.984-27.476 3.434-2.387-9.984ZM303.773 125.984l-6.687-19.277 23.36.059Zm0 0"/><path fill="#963c3c" d="m297.086 106.707 6.687 19.277-29.863-6.55ZM273.91 119.434l-24.832 1.492 14.063-13.18ZM273.91 119.434l-17.305 17.3-7.527-15.808Zm0 0"/><path fill="#ded684" d="m130.625 150.137 8.145-8.57 4.406 9.46ZM138.77 141.566l-8.145 8.57-14.316-5.5Zm0 0"/><path fill="#933c3b" d="m139.988 167.305-9.363-17.168 12.55.89Zm0 0"/><path fill="#8a3938" d="m130.625 150.137 9.363 17.168-20.238-1.903Zm0 0"/><path fill="#963c3c" d="m138.77 141.566 3.054-18.64L144.63 142Zm0 0"/><path fill="#963c3c" d="m141.824 122.926 22.203-1.074L144.63 142Zm0 0"/><path fill="#963c3c" d="m164.027 121.852.805 20.53-20.203-.382Zm0 0"/><path fill="#963c3c" d="m164.832 142.383-.805-20.531 6.301 18.628Zm0 0"/><path fill="#973f3d" d="m172.984 157.71-8.152-15.327 5.496-1.903Zm0 0"/><path fill="#ded684" d="m144.629 142 20.203.383-21.656 8.644ZM168.61 36.43l37.75 19.148L166.503 73Zm0 0"/><path fill="#963c3c" d="m164.027 121.852 13.828-4.399.485 8.352Zm0 0"/><path fill="#dfd785" d="m177.855 117.453 1.016-18.547 11.32 6.719Zm0 0"/><path fill="#963c3c" d="m177.855 117.453 7.325 1.106-6.84 7.246Zm0 0"/><path fill="#ded684" d="m185.18 118.559-7.325-1.106 12.336-11.828Zm0 0"/><path fill="#dfd785" d="m178.871 98.906 17.203-10.242-5.883 16.961Zm0 0"/><path fill="#ded684" d="m196.074 88.664-17.203 10.242L166.504 73Zm0 0"/><path fill="#ded684" d="m206.36 55.578-10.286 33.086L166.504 73ZM245.64 69.45l18.415-24.555 12.98 27.09ZM280.148 185.617l-3.707-23.433 14.657-.344Zm0 0"/><path fill="#dfd785" d="m314.723 161.453 24.457-5.914-6.176 19.356Zm0 0"/><path fill="#ded684" d="m315.352 194.05-.63-32.597 18.282 13.442Zm0 0"/><path fill="#963c3c" d="m314.723 161.453.629 32.598-16.649-12.617ZM291.098 161.84l23.625-.387-16.02 19.98Zm0 0"/><path fill="#963c3c" d="m305.738 147.574 8.985 13.88-23.625.386Zm0 0"/><path fill="#ded684" d="m361.762 170.227-10.91 23.277-17.848-18.61Zm0 0"/><path fill="#dfd785" d="m339.18 155.54 22.582 14.687-28.758 4.668ZM361.762 170.227l-22.582-14.688 20.492-9.172Zm0 0"/><path fill="#ded684" d="m359.672 146.367 11.652-28.562L384 152.656Zm0 0"/><path fill="#ded684" d="m371.324 117.805-11.652 28.562 6.34-29.695Zm0 0"/><path fill="#963c3c" d="m348.559 100.715 20.105 12.582-2.652 3.375Zm0 0"/><path fill="#ded684" d="m371.324 117.805-2.66-4.508 15.113-10.805Zm0 0"/><path fill="#963c3c" d="m368.664 113.297-3.469-25.16 18.582 14.355Zm0 0"/><path fill="#ded684" d="m368.664 113.297 2.66 4.508-5.312-1.133ZM52.75 107.07l-25.79-4.757 31.364-41.215ZM26.96 102.313l25.79 4.757-8.129 16.52Zm0 0"/><path fill="#dcd483" d="m69.262 190.14 10.941-15.242 3.02 11.758Zm0 0"/><path fill="#ded684" d="m83.61 209.441-14.348-19.3 13.96-3.485ZM233.934 164.926l-11.77-13.43 32.469-7.223Zm0 0"/><path fill="#ded684" d="m222.164 151.496 34.441-14.762-1.972 7.54Zm0 0"/><path fill="#963c3c" d="m58.105 138.59-1.917-7.403 22.847-5.34ZM59.617 122.906l-3.43 8.281-11.566-7.597Zm0 0"/><path fill="#963c3c" d="m56.188 131.188 3.43-8.282 19.417 2.942ZM56.188 131.188l-12.18 4.742.613-12.34Zm0 0"/><path fill="#ded684" d="m44.008 135.93 14.097 2.66-23.93 18.015Zm0 0"/><path fill="#ded684" d="m58.105 138.59.547 10.808-24.476 7.207Zm0 0"/><path fill="#963c3c" d="m56.188 131.188 1.917 7.402-14.097-2.66ZM120.074 123.613l18.696 17.953-22.461 3.07Zm0 0"/><path fill="#963c3c" d="m103.117 140.496 16.957-16.883-3.765 21.024ZM104.648 122.766l15.426.847-16.957 16.883Zm0 0"/><path fill="#ded684" d="m120.074 123.613-15.426-.847 15.227-10.621ZM141.824 122.926l-21.75.687-.199-11.468Zm0 0"/><path fill="#963c3c" d="m120.074 123.613 21.75-.687-3.054 18.64Zm0 0"/><path fill="#202215" d="m84.117 156.246 5.274 14.742-9.188 3.91ZM77.02 143.719l7.097 12.527-3.914 18.652Zm0 0"/><path fill="#963c3c" d="m258.176 196.715 11.07 16.36-22.05 2.28ZM269.246 213.074l-11.07-16.36 25.597 2.329Zm0 0"/><path fill="#963c3c" d="m280.148 185.617-21.972 11.098-.153-18.281Zm0 0"/><path fill="#963c3c" d="m258.176 196.715 21.972-11.098 3.625 13.426ZM276.39 224.316l-13.5 4.305 6.356-15.547ZM285.434 216.145l-9.043 8.171-7.145-11.242Zm0 0"/><path fill="#ded684" d="m212.418 252.594 32.07 12.023-31.828 22.156Zm0 0"/><path fill="#dfd785" d="m244.488 264.617-5.164 39.633-26.664-17.477Zm0 0"/><path fill="#963c3c" d="m233.883 203.066-9.352 23.707-12.047-17.128Zm0 0"/><path fill="#963c3c" d="m213.703 186.984 20.18 16.082-21.399 6.579Zm0 0"/><path fill="#dfd785" d="m276.297 129.418 2.965 9.805-22.657-2.489Zm0 0"/><path fill="#963c3c" d="m273.91 119.434 2.387 9.984-19.692 7.316ZM256.875 152.5l1.148 25.934-15.511-7.66ZM233.934 164.926l22.941-12.426-14.363 18.273Zm0 0"/><path fill="#ded684" d="m256.875 152.5-22.941 12.426 20.699-20.653Zm0 0"/><path fill="#dfd785" d="m308.29 70.465-31.255 1.52 18.766-32.505Zm0 0"/><path fill="#dfd785" d="m277.035 71.984 31.254-1.52-13.805 23.231Zm0 0"/><path fill="#ded684" d="m308.29 70.465 5.323 20.058-19.129 3.172ZM351.32 76.465l-9.683 12.789-10.078-4.043Zm0 0"/><path fill="#ded685" d="m341.203 44.574 10.117 31.89-19.761 8.747Zm0 0"/><path fill="#963c3c" d="m330.844 94.059 10.793-4.805-5.18 11.41Zm0 0"/><path fill="#963c3c" d="m341.637 89.254-10.793 4.805.715-8.848ZM313.613 90.523l17.23 3.536-10.398 12.707ZM330.844 94.059l5.613 6.605-16.012 6.102Zm0 0"/><path fill="#ded684" d="m208.457 337.625-43.46-4.816 11.12-28.028Zm0 0"/><path fill="#ded684" d="m164.996 332.809-20.672-28.743 31.793.715ZM164.996 332.809l43.461 4.816L166.488 384ZM136.688 342.512l28.308-9.703L166.488 384Zm0 0"/><path fill="#963c3c" d="m175.082 260.246-8.074 2.969 2.066-6.899Zm0 0"/><path fill="#953b3b" d="m173.422 244.117 1.66 16.13-6.008-3.93ZM175.082 260.246l-1.66-16.129 9.918 15.969Zm0 0"/><path fill="#953b3b" d="m175.082 260.246 8.258-.16-6.117 21.441Zm0 0"/><path fill="#953b3b" d="m167.008 263.215 8.074-2.969 2.14 21.281Zm0 0"/><path fill="#202215" d="m110.457 234.336 4.914 12.883-13.262 1.289Zm0 0"/><path fill="#202215" d="m115.371 247.219.016 11.73-13.278-10.441Zm0 0"/><path fill="#953c3b" d="m115.371 247.219 8.664-11.41 7.016 17.316Zm0 0"/><path fill="#963c3c" d="m124.035 235.809-8.664 11.41-4.914-12.883Zm0 0"/><path fill="#953b3b" d="m115.387 258.95 15.664-5.825-7.727 13.18Zm0 0"/><path fill="#ded684" d="m131.05 253.125 2.13 3.57-9.856 9.61Zm0 0"/><path fill="#953b3b" d="m115.371 247.219 15.68 5.906-15.664 5.824Zm0 0"/><path fill="#933c3b" d="m114.637 270.05.75-11.1 7.937 7.355Zm0 0"/><path fill="#ded684" d="m114.637 270.05 13.707 5.282-23.535 19.848Zm0 0"/><path fill="#ded684" d="m128.344 275.332-13.707-5.281 8.687-3.746ZM345.902 286.91 384 270.941v51.145ZM378.508 228.043l-1.692 1.637-39.625-31.735ZM378.508 228.043l-27.656-34.54 10.91-23.276Zm0 0"/><path fill="#dfd785" d="m378.508 228.043-41.317-30.098 13.66-4.441ZM340.98 233.762l13.465 22.843-35.496 2.758Zm0 0"/><path fill="#ded684" d="m354.445 256.605-13.465-22.843 35.836-4.082Zm0 0"/><path fill="#dfd785" d="m252.852 333-1.086 51-43.309-46.375Zm0 0"/><path fill="#ded684" d="m212.66 286.773-36.543 18.008 14.035-25.816ZM176.117 304.781l36.543-18.008-4.203 50.852Zm0 0"/><path fill="#dfd785" d="m252.852 333-44.395 4.625 30.867-33.375Zm0 0"/><path fill="#dfd785" d="m208.457 337.625 4.203-50.852 26.664 17.477ZM144.46 268.844l-11.28-12.149 14.675-.843ZM144.324 304.066l.137-35.222 22.547-5.63Zm0 0"/><path fill="#ded684" d="m144.46 268.844 3.395-12.992 19.153 7.363Zm0 0"/><path fill="#dfd785" d="m144.46 268.844-.136 35.222-15.98-28.734Zm0 0"/><path fill="#ded684" d="m133.18 256.695 11.28 12.149-16.116 6.488Zm0 0"/><path fill="#963c3c" d="m172.969 238.781-4.614 4.403-5.343-13.059ZM168.355 243.184l5.067.933-4.348 12.2Zm0 0"/><path fill="#963c3c" d="m168.355 243.184 4.614-4.403.453 5.336Zm0 0"/><path fill="#ded684" d="m172.969 238.781 20.004 5.102-19.551.234Zm0 0"/><path fill="#963c3c" d="m173.422 244.117 19.55-.234-9.632 16.203ZM192.973 243.883l3.382 19.16-13.015-2.957ZM182.207 203.09l20.922 23.867-29.887-2.379Zm0 0"/><path fill="#963c3c" d="m203.129 226.957-20.922-23.867 30.277 6.555Zm0 0"/><path fill="#ded684" d="m97.105 234.96 13.352-.624-8.348 14.172Zm0 0"/><path fill="#ded684" d="m97.105 234.96 14.2-6.82-.848 6.196Zm0 0"/><path fill="#dfd785" d="m111.305 228.14-14.2 6.82 4.872-17.038Zm0 0"/><path fill="#ded684" d="m101.977 217.922-4.872 17.039-18.687 1.953Zm0 0"/><path fill="#ded684" d="m97.105 234.96-7.074 18.282-11.613-16.328ZM97.105 234.96l5.004 13.548-12.078 4.734ZM102.887 182.57l-5.59 14.047-14.074-9.96Zm0 0"/><path fill="#222416" d="m80.203 174.898 22.684 7.672-19.664 4.086Zm0 0"/><path fill="#dbd382" d="m89.39 170.988 13.497 11.582-22.684-7.672Zm0 0"/><path fill="#963c3c" d="m119.266 180.375 20.722-13.07 8.746 29.164Zm0 0"/><path fill="#953b3b" d="m139.988 167.305-20.722 13.07.484-14.973Zm0 0"/><path fill="#963c3c" d="m131.05 253.125 1.59-3.086 15.215 5.813Zm0 0"/><path fill="#ded684" d="m132.64 250.04 13.286-9.544 1.93 15.356Zm0 0"/><path fill="#973e3d" d="m163.012 230.125-17.086 10.371 13.96-16.27Zm0 0"/><path fill="#dfd785" d="m144.324 304.066-39.515-8.886 23.535-19.848Zm0 0"/><path fill="#963c3c" d="m341.637 89.254 11.027-2.41-4.105 13.87Zm0 0"/><path fill="#ded684" d="m352.664 86.844-11.027 2.41 9.683-12.79ZM365.195 88.137l-12.53-1.293-1.345-10.38ZM303.773 125.984l-24.511 13.239-2.965-9.805Zm0 0"/><path fill="#dfd785" d="m279.262 139.223 26.476 8.351-14.64 14.266Zm0 0"/><path fill="#ded684" d="m324.477 141.281 11.25-20.043 8.59 15.383Zm0 0"/><path fill="#dfd785" d="m339.18 155.54-14.703-14.259 19.84-4.66Zm0 0"/><path fill="#dfd785" d="m314.723 161.453 9.754-20.172 14.703 14.258ZM324.477 141.281l-9.754 20.172-8.985-13.879Zm0 0"/><path fill="#ded684" d="m141.824 122.926 18.961-18.672 3.242 17.598Zm0 0"/><path fill="#ded684" d="m160.785 104.254 17.07 13.2-13.828 4.398ZM178.871 98.906l-18.086 5.348L166.504 73Zm0 0"/><path fill="#ded684" d="m177.855 117.453-17.07-13.2 18.086-5.347Zm0 0"/><path fill="#963c3c" d="m185.18 118.559 6.312 18.761-13.152-11.515ZM191.492 137.32l-21.164 3.16 8.012-14.675Zm0 0"/><path fill="#ded684" d="m191.492 137.32-18.508 20.39-2.656-17.23Zm0 0"/><path fill="#963c3c" d="m191.492 137.32-6.312-18.761 9.28 17.086ZM191.492 137.32l2.969-1.675 2.863 19.917Zm0 0"/><path fill="#ded684" d="m172.984 157.71 18.508-20.39 5.832 18.243ZM196.004 114.7l-5.813-9.075 22.43 5.047ZM196.004 114.7l-10.824 3.859 5.011-12.934Zm0 0"/><path fill="#963c3c" d="m185.18 118.559 10.824-3.86-1.543 20.946ZM155.816 154.043l17.168 3.668-12.894 12.52Zm0 0"/><path fill="#ded684" d="m155.816 154.043 9.016-11.66 8.152 15.328Zm0 0"/><path fill="#ded684" d="m164.832 142.383-9.016 11.66-12.64-3.016Zm0 0"/><path fill="#963c3c" d="m155.816 154.043-15.828 13.262 3.188-16.278ZM139.988 167.305l15.828-13.262 4.274 16.187Zm0 0"/><path fill="#dfd785" d="m276.441 162.184 2.82-22.961 11.837 22.617Zm0 0"/><path fill="#ded684" d="m359.672 146.367-15.356-9.746 21.696-19.95Zm0 0"/><path fill="#dfd785" d="m344.316 136.621-8.59-15.383 30.286-4.566Zm0 0"/><path fill="#963c3c" d="m60.684 207.203 22.925 2.238-.796 9.012Zm0 0"/><path fill="#97403d" d="m58.188 215.941 2.496-8.738 22.129 11.25Zm0 0"/><path fill="#ded684" d="m69.262 190.14-8.578 17.063-3.676-29.492ZM60.684 207.203l8.578-17.062 14.347 19.3Zm0 0"/><path fill="#963c3c" d="m60.684 207.203-2.496 8.738-33.168-6.218Zm0 0"/><path fill="#ded684" d="m57.008 177.71 3.676 29.493-35.664 2.52ZM57.008 177.71 77.02 143.72l3.183 31.18Zm0 0"/><path fill="#ded684" d="m69.262 190.14-12.254-12.43 23.195-2.812Zm0 0"/><path fill="#ded684" d="m58.652 149.398-1.644 28.313-22.832-21.106Zm0 0"/><path fill="#dcd483" d="M77.02 143.719 57.008 177.71l1.644-28.313Zm0 0"/><path fill="#ded684" d="m222.164 151.496 11.77 13.43-17.871.765Zm0 0"/><path fill="#dfd785" d="m208.023 156.02 14.141-4.524-6.101 14.195Zm0 0"/><path fill="#dfd785" d="m222.164 151.496-14.14 4.524-2.434-17.036ZM225.316 138.512l-3.152 12.984-16.574-12.512Zm0 0"/><path fill="#dfd785" d="m222.164 151.496 3.152-12.984 31.29-1.778Zm0 0"/><path fill="#963c3c" d="m225.316 138.512-1.359-18.32 25.121.734ZM256.605 136.734l-31.289 1.778 23.762-17.586ZM130.625 150.137l-18.11 6.25 3.794-11.75ZM112.516 156.387l18.109-6.25-10.875 15.265ZM262.89 228.621l-19.327.274 3.632-13.54ZM292.07 230.457l-15.68-6.14 9.044-8.172ZM258.176 196.715l-24.293 6.351 6.008-18.441Zm0 0"/><path fill="#963c3c" d="m233.883 203.066-20.18-16.082 26.188-2.359Zm0 0"/><path fill="#ded684" d="m308.29 70.465 23.269 14.746-17.946 5.312Zm0 0"/><path fill="#963c3c" d="m331.559 85.21-.715 8.849-17.23-3.536Zm0 0"/><path fill="#dfd785" d="m110.484 326.898 33.84-22.832-7.637 38.446Zm0 0"/><path fill="#dfd785" d="m144.324 304.066 20.672 28.743-28.309 9.703Zm0 0"/><path fill="#202215" d="m115.387 258.95-10.696 4.1-2.582-14.542ZM114.637 270.05l-9.946-7 10.696-4.1Zm0 0"/><path fill="#ded684" d="m102.11 248.508 2.581 14.543-14.66-9.809Zm0 0"/><path fill="#dfd785" d="m318.336 384 33.621-30.676L384 384Zm0 0"/><path fill="#ded684" d="M351.957 353.324 384 322.086V384Zm0 0"/><path fill="#dfd785" d="m384 322.086-32.043 31.238-28.879-28.207Zm0 0"/><path fill="#ded685" d="m281.465 260.57 37.484-1.207-10.18 26.723Zm0 0"/><path fill="#ded684" d="m378.96 230.992-2.144-1.312 1.692-1.637ZM378.96 230.992l5.04 39.95-29.555-14.337Zm0 0"/><path fill="#ded684" d="m378.96 230.992-24.515 25.613 22.371-26.925Zm0 0"/><path fill="#ded684" d="m384 228.46-5.04 2.532-.452-2.949Zm0 0"/><path fill="#ded684" d="m378.96 230.992 5.04-2.531v42.48ZM345.902 286.91l8.543-30.305L384 270.941Zm0 0"/><path fill="#963c3c" d="m302.887 217.54-10.817 12.917-6.636-14.312Zm0 0"/><path fill="#dfd785" d="m302.887 217.54 12.465-23.49 6.421 3.833Zm0 0"/><path fill="#dfd785" d="m332.703 217.031-29.816.508 18.886-19.656Zm0 0"/><path fill="#ded684" d="m302.887 217.54-17.453-1.395 29.918-22.094Zm0 0"/><path fill="#dfd785" d="m318.95 259.363-37.485 1.207 12.066-18.703Zm0 0"/><path fill="#963c3c" d="m340.98 233.762-34.39-2.442 26.113-14.289ZM306.59 231.32l-3.703-13.78 29.816-.509Zm0 0"/><path fill="#963c3c" d="m302.887 217.54 3.703 13.78-14.52-.863Zm0 0"/><path fill="#dfd785" d="m306.59 231.32 34.39 2.442-22.03 25.601Zm0 0"/><path fill="#ded684" d="m293.531 241.867 13.059-10.547 12.36 28.043ZM292.07 230.457l14.52.863-13.059 10.547Zm0 0"/><path fill="#dfd785" d="m376.816 229.68-44.113-12.649 4.488-19.086Zm0 0"/><path fill="#963c3c" d="m376.816 229.68-35.836 4.082-8.277-16.73Zm0 0"/><path fill="#dfd785" d="m208.637 384-.18-46.375L251.766 384Zm0 0"/><path fill="#ded684" d="m251.766 384 32.402-40.105L318.336 384ZM284.168 343.895 252.852 333l23.566-30.207Zm0 0"/><path fill="#ded684" d="m252.852 333 31.316 10.895L251.766 384ZM168.355 243.184l-9.808 2.195 4.465-15.254Zm0 0"/><path fill="#dfd785" d="m163.012 230.125-4.465 15.254-12.621-4.883Zm0 0"/><path fill="#ded684" d="m158.547 245.379 9.808-2.195.72 13.132ZM147.855 255.852l10.692-10.473 10.527 10.937Zm0 0"/><path fill="#ded684" d="m158.547 245.379-10.692 10.473-1.93-15.356Zm0 0"/><path fill="#963c3c" d="m192.973 243.883-.989-9.5 11.79-4.828Zm0 0"/><path fill="#ded684" d="m191.984 234.383.989 9.5-20.004-5.102ZM191.984 234.383l-19.015 4.398.273-14.203ZM203.129 226.957l-11.145 7.426-18.742-9.805ZM191.984 234.383l11.145-7.426.644 2.598Zm0 0"/><path fill="#973f3d" d="m124.035 235.809 8.606 14.23-1.59 3.086Zm0 0"/><path fill="#ded684" d="m145.926 240.496-6.594-16.996 20.555.727Zm0 0"/><path fill="#963c3c" d="m139.332 223.5 9.402-27.031 11.153 27.758Zm0 0"/><path fill="#963c3c" d="m148.734 196.469-9.402 27.031-9.16-3.434Zm0 0"/><path fill="#dfd785" d="m139.332 223.5-10.855 1.875 1.695-5.309ZM136.18 238.863l-12.145-3.054 4.442-10.434Zm0 0"/><path fill="#ded684" d="m124.035 235.809 12.145 3.054-3.54 11.176Zm0 0"/><path fill="#dfd785" d="m139.332 223.5-3.152 15.363-7.703-13.488Zm0 0"/><path fill="#ded684" d="m136.18 238.863 3.152-15.363 6.594 16.996Zm0 0"/><path fill="#963c3c" d="m132.64 250.04 3.54-11.177 9.746 1.633ZM357.723 95.234l10.941 18.063-20.105-12.582ZM352.664 86.844l5.059 8.39-9.164 5.48Zm0 0"/><path fill="#963c3c" d="m368.664 113.297-10.941-18.063 7.472-7.097Zm0 0"/><path fill="#963c3c" d="m357.723 95.234-5.059-8.39 12.531 1.293Zm0 0"/><path fill="#dfd785" d="m279.262 139.223 25.656-12.47.82 20.821Zm0 0"/><path fill="#ded684" d="m304.918 126.754-25.656 12.469 24.511-13.239Zm0 0"/><path fill="#dfd785" d="m304.918 126.754 19.559 14.527-18.739 6.293Zm0 0"/><path fill="#dfd785" d="m324.477 141.281-19.559-14.527 30.809-5.516Zm0 0"/><path fill="#963c3c" d="m335.727 121.238-30.809 5.516 15.527-19.988Zm0 0"/><path fill="#963c3c" d="m304.918 126.754-1.145-.77 16.672-19.218ZM223.957 120.191l-15.383 4.403 4.047-13.922Zm0 0"/><path fill="#963c3c" d="m208.574 124.594-12.57-9.895 16.617-4.027ZM225.316 138.512l-16.742-13.918 15.383-4.403ZM196.004 114.7l12.57 9.894-14.113 11.05ZM194.46 135.645l14.114-11.051-2.984 14.39Zm0 0"/><path fill="#963c3c" d="m208.574 124.594 16.742 13.918-19.726.472ZM112.516 156.387l-7.645-8.258 11.438-3.492Zm0 0"/><path fill="#ded684" d="m104.871 148.129-1.754-7.633 13.192 4.14Zm0 0"/><path fill="#ded684" d="m103.117 140.496 1.754 7.633-10.414-2.188Zm0 0"/><path fill="#ddd584" d="m84.117 156.246 12.953 3.488-7.68 11.254Zm0 0"/><path fill="#953b3b" d="m97.07 159.734 7.801-11.605 7.645 8.258Zm0 0"/><path fill="#dfd785" d="m224.613 235.629 18.95-6.734.925 35.722Zm0 0"/><path fill="#ded684" d="m243.563 228.895-18.95 6.734-.082-8.856Zm0 0"/><path fill="#dfd785" d="m276.418 302.793-37.094 1.457 5.164-39.633Zm0 0"/><path fill="#ded684" d="m275.848 230.844 16.222-.387 1.461 11.41Zm0 0"/><path fill="#963c3c" d="m276.39 224.316-.542 6.528-12.957-2.223Zm0 0"/><path fill="#963d3c" d="m292.07 230.457-16.222.387.543-6.528Zm0 0"/><path fill="#963c3c" d="m247.195 215.355-13.312-12.289 24.293-6.351Zm0 0"/><path fill="#963c3c" d="m233.883 203.066 13.312 12.29-22.664 11.417Zm0 0"/><path fill="#963c3c" d="m247.195 215.355-3.632 13.54-19.032-2.122Zm0 0"/><path fill="#ded684" d="m104.809 295.18 39.515 8.886-33.84 22.832ZM104.691 263.05l-5.707 7.891-8.953-17.699Zm0 0"/><path fill="#ded684" d="m98.984 270.941-31.254 1.414 22.301-19.113Zm0 0"/><path fill="#dcd583" d="m98.984 270.941 5.707-7.89 9.946 7Zm0 0"/><path fill="#ded684" d="m98.984 270.941 5.825 24.239-37.079-22.825Zm0 0"/><path fill="#ded684" d="m98.984 270.941 15.653-.89-9.828 25.129Zm0 0"/><path fill="#dfd785" d="m318.336 384 4.742-58.883 28.879 28.207ZM323.078 325.117l-38.91 18.778-7.75-41.102Zm0 0"/><path fill="#dfd785" d="m284.168 343.895 38.91-18.778L318.336 384ZM318.95 259.363l26.952 27.547-37.132-.824Zm0 0"/><path fill="#dfd785" d="m345.902 286.91-22.824 38.207-14.308-39.031Zm0 0"/><path fill="#ded684" d="m239.324 304.25 37.094-1.457L252.852 333ZM281.465 260.57l-5.047 42.223-31.93-38.176Zm0 0"/><path fill="#dfd785" d="m323.078 325.117 22.824-38.207L384 322.086Zm0 0"/><path fill="#ded684" d="m134.988 92.82 6.836 30.106-21.949-10.781ZM134.988 92.82l25.797 11.434-18.96 18.672Zm0 0"/><path fill="#dfd684" d="M134.988 92.82 166.504 73l-5.719 31.254Zm0 0"/><path fill="#ded684" d="m166.504 73-31.516 19.82-13.57-42.71Zm0 0"/><path fill="#ded684" d="M134.988 92.82 99.93 96.012l21.488-45.903ZM99.93 96.012l35.058-3.192-15.113 19.325ZM103.105 168.648l-.218 13.922-13.496-11.582ZM97.07 159.734l6.035 8.914-13.714 2.34Zm0 0"/><path fill="#212215" d="m103.105 168.648 16.16 11.727-16.378 2.195Zm0 0"/><path fill="#953b3b" d="m103.105 168.648-6.035-8.914 15.446-3.347Zm0 0"/><path fill="#953b3b" d="m103.105 168.648 9.41-12.261 7.235 9.015Zm0 0"/><path fill="#963c3c" d="m119.266 180.375-16.16-11.727 16.644-3.246Zm0 0"/><path fill="#ded684" d="m94.457 145.941 2.613 13.793-12.953-3.488Zm0 0"/><path fill="#963c3c" d="m97.07 159.734-2.613-13.793 10.414 2.188Zm0 0"/><path fill="#ded684" d="m94.457 145.941-10.34 10.305-7.097-12.527ZM262.238 240.441l-18.675-11.546 19.328-.274ZM275.848 230.844l-13.61 9.597.653-11.82Zm0 0"/><path fill="#dfd785" d="m243.563 228.895 18.675 11.546-17.75 24.176ZM354.445 256.605l-8.543 30.305-26.953-27.547ZM276.418 302.793l5.047-42.223 27.305 25.516Zm0 0"/><path fill="#dfd785" d="m323.078 325.117-46.66-22.324 32.352-16.707Zm0 0"/><path fill="#ded684" d="m281.465 260.57-5.617-29.726 17.683 11.023ZM262.238 240.441l19.227 20.13-36.977 4.046Zm0 0"/><path fill="#ded684" d="m281.465 260.57-19.227-20.129 13.61-9.597Zm0 0"/></svg>