<svg xmlns="http://www.w3.org/2000/svg" width="512" height="512" viewBox="0 0 384 384"><path fill="#eac3b0" d="m92.691 70.375-23.316 8.398 2.43-42.699Zm0 0"/><path fill="#f6c5b4" d="m255.61 110.25 30.812-14.73 10.453 22.218Zm0 0"/><path fill="#4a7049" d="m312.625 67.852-21.32-35.832 46.949 5.914Zm0 0"/><path fill="#4a714a" d="m291.305 32.02 21.32 35.832-15.508 10.257Zm0 0"/><path fill="#a2b484" d="m153.906 215.078-1.73-32.008 19.582 11.72Zm0 0"/><path fill="#f6c5b4" d="m225.695 144.063-54.953-.508 30.754-43.961ZM236.004 239.227l18.766 15.394-22.028 16.211Zm0 0"/><path fill="#4a2e2c" d="m365.59 213.11 18.433-1.012-13.46 22.39Zm0 0"/><path fill="#4a714a" d="M130.395 0h26.625l-23.157 11.691Zm0 0"/><path fill="#f6c5b4" d="m238.133 70.172-36.637 29.422 3.832-46.422Zm0 0"/><path fill="#edc3b3" d="m116.07 63.031-23.379 7.344-20.886-34.3Zm0 0"/><path fill="#ecc3b4" d="M61.973 18.027 42.598 45.313 43 16.238Zm0 0"/><path fill="#c8b1a5" d="m50.887 283.73 37.082-9.601 25.433 6.637Zm0 0"/><path fill="#4a714a" d="M26.5 345.441 71.992 384H0Zm0 0"/><path fill="#4a714a" d="M71.992 384 26.5 345.441l47.336 17.196Zm0 0"/><path fill="#d9b8aa" d="m66.156 320.441-15.27-36.71 62.516-2.965Zm0 0"/><path fill="#4a2d2c" d="m66.156 320.441 7.68 42.196L26.5 345.44ZM66.156 320.441l47.246-39.675 34.258 47.605Zm0 0"/><path fill="#c6bb9b" d="M29.371 160.227.004 151.004l26.52-22.203Zm0 0"/><path fill="#5d4743" d="m87.969 274.129-37.082 9.601 20.191-36.562Zm0 0"/><path fill="#4a2d2c" d="m50.887 283.73-21.032-53.199 41.223 16.637Zm0 0"/><path fill="#503837" d="m29.855 230.531 21.032 53.2L.004 250.733Zm0 0"/><path fill="#4a2d2c" d="m29.855 230.531 26.305-17.617 14.918 34.254ZM56.16 212.914l20.512 3.008-5.594 31.246Zm0 0"/><path fill="#4b714a" d="m360.848 115.582 6.593 47.73L343.59 145Zm0 0"/><path fill="#4a7049" d="m360.848 115.582-6.403-39.797L384 103.781ZM384 55.168l-29.555 20.617-16.191-37.851ZM354.445 75.785l-41.82-7.933 25.629-29.918Zm0 0"/><path fill="#edc4af" d="m272.863 147.504-22.156 28.195-25.012-31.637Zm0 0"/><path fill="#f6c5b4" d="m255.61 110.25 17.253 37.254-47.168-3.441Zm0 0"/><path fill="#f6c5b4" d="m296.875 117.738-24.012 29.766-17.254-37.254Zm0 0"/><path fill="#b7b990" d="m250.707 175.7-8.832 21.702-14-16.824Zm0 0"/><path fill="#4a322f" d="m153.906 215.078 22.711 7.774-23.308 7.488Zm0 0"/><path fill="#a5b489" d="m152.176 183.07 1.73 32.008-13.246-4.762Zm0 0"/><path fill="#e7c2ab" d="m225.695 144.063 2.18 36.515-42.707-8.117Zm0 0"/><path fill="#eec4b0" d="m170.742 143.555 54.953.507-40.527 28.399Zm0 0"/><path fill="#4c573f" d="m185.168 172.46 5.941 21.645-19.351.684Zm0 0"/><path fill="#aab68b" d="m201.129 217.426 6.746.465-4.648 6.949Zm0 0"/><path fill="#a6b586" d="m218.191 205.86-13.035-13.434 22.719-11.848Zm0 0"/><path fill="#a9b588" d="m191.11 194.105 14.046-1.68-4.851 13.208Zm0 0"/><path fill="#aeb38b" d="m205.156 192.426-14.047 1.68-5.941-21.645Zm0 0"/><path fill="#afb78b" d="m227.875 180.578-22.719 11.848-19.988-19.965Zm0 0"/><path fill="#4a2d2c" d="m271.758 239.25 13.77 5.266-13.872 3.257Zm0 0"/><path fill="#f6c5b4" d="m261.898 269.047-7.128-14.426 16.886-6.848Zm0 0"/><path fill="#eec4b4" d="m183.012 273.082 18.5 3.777-16.36 18.875Zm0 0"/><path fill="#4a2d2c" d="m384.023 212.098-.054 86.636-13.406-64.246ZM383.969 298.734l.031 49.07-25.07-29.656Zm0 0"/><path fill="#4a714a" d="m225.914 346.816 26.79-1.378-28.79 20.68Zm0 0"/><path fill="#4a714a" d="m252.703 345.438 22.277 17.82-51.066 2.86ZM223.04 384l51.94-20.742L306.06 384ZM130.395 0 81.64 17.375 63.887 0ZM133.863 11.691l-52.222 5.684L130.395 0Zm0 0"/><path fill="#f6c5b4" d="m219.648 45.027 18.485 25.145-32.805-17ZM238.133 70.172l-18.485-25.145 7.536-9.246Zm0 0"/><path fill="#4a714a" d="M203.906 23.922 186.367 0h38.844Zm0 0"/><path fill="#f2c4b5" d="m152.906 25.914-23.222 17.238 4.18-31.46Zm0 0"/><path fill="#f6c5b4" d="M201.496 99.594 169.13 55.16l36.2-1.988Zm0 0"/><path fill="#f6c5b5" d="m169.129 55.16 27.332-19.023 8.867 17.035Zm0 0"/><path fill="#f6c5b4" d="m156.5 89.594 12.629-34.434 32.367 44.434Zm0 0"/><path fill="#f5c5b4" d="M169.129 55.16 156.5 89.594l-15.652-20.7Zm0 0"/><path fill="#f0c4b4" d="m129.684 43.152 39.445 12.008-28.281 13.735Zm0 0"/><path fill="#f2c4b5" d="M152.906 25.914 169.13 55.16l-39.445-12.008Zm0 0"/><path fill="#ebc3b0" d="m92.691 70.375 18.54 11.902-20.485 2.043Zm0 0"/><path fill="#eec4b3" d="m116.07 63.031-4.84 19.246-18.539-11.902Zm0 0"/><path fill="#4a714a" d="M28.004 0h35.883L43 16.238Zm0 0"/><path fill="#4a714a" d="m63.887 0-1.914 18.027L43 16.238Zm0 0"/><path fill="#4a714a" d="M61.973 18.027 63.887 0 81.64 17.375Zm0 0"/><path fill="#e4c1b4" d="m71.805 36.074-9.832-18.047 19.668-.652Zm0 0"/><path fill="#ecc3b1" d="m71.805 36.074-29.207 9.239 19.375-27.286Zm0 0"/><path fill="#e9c3af" d="m69.375 78.773 23.316-8.398-1.945 13.945Zm0 0"/><path fill="#eec4b0" d="m.004 55.254 21.691 12.633L.008 93.512Zm0 0"/><path fill="#c5bb9a" d="M26.523 128.8.003 151.005l.005-57.492Zm0 0"/><path fill="#c4b99e" d="m94.684 186.66 34.46-21.37-11.027 36.425Zm0 0"/><path fill="#c2bb98" d="m109.031 159.156 20.114 6.133-34.461 21.371Zm0 0"/><path fill="#c1b99d" d="m83.723 171.645 25.308-12.489-14.347 27.504Zm0 0"/><path fill="#9fa88a" d="m109.031 159.156-25.308 12.489 11.851-20.704Zm0 0"/><path fill="#675d5e" d="M14.719 332.008-.004 334.28l.031-40.867Zm0 0"/><path fill="#4a714b" d="m-.004 334.281 14.723-2.273L26.5 345.44Zm0 0"/><path fill="#4f3938" d="m14.719 332.008 51.437-11.567-39.656 25Zm0 0"/><path fill="#88a2ac" d="M66.156 320.441 14.72 332.008l36.168-48.278Zm0 0"/><path fill="#4a714a" d="m-.004 334.281 26.504 11.16L0 384ZM73.836 362.637l17.906 7.66L71.992 384Zm0 0"/><path fill="#4a2d2c" d="m-.031 197.434 29.886 33.097L.004 250.734ZM56.16 212.914l-18.75-15.176 19.598-5.195Zm0 0"/><path fill="#4a2d2c" d="m37.41 197.738 18.75 15.176-26.305 17.617Zm0 0"/><path fill="#5e4948" d="m50.887 283.73-50.86 9.684-.023-42.68Zm0 0"/><path fill="#4e3736" d="M14.719 332.008.027 293.414l50.86-9.684Zm0 0"/><path fill="#4a714a" d="m149.367 361.465-57.625 8.832 1.43-9.402ZM91.742 370.297 155.7 384H71.992Zm0 0"/><path fill="#4a714a" d="m155.7 384-63.958-13.703 57.625-8.832Zm0 0"/><path fill="#98abb2" d="m152.145 283.988-15.708 2.914 6.051-11.328Zm0 0"/><path fill="#4a2d2c" d="m71.078 247.168 5.594-31.246 14.18 19.32Zm0 0"/><path fill="#4a714a" d="m384 164.852-23.152-49.27 23.152-11.8Zm0 0"/><path fill="#4a714a" d="M360.848 115.582 384 164.852l-16.559-1.54Zm0 0"/><path fill="#4a2d2c" d="m360.848 115.582-35.07-.32 5.316-15.215Zm0 0"/><path fill="#f6c5b4" d="m296.875 117.738 16.895 25.336-40.907 4.43ZM286.422 95.52l17.586-.922-7.133 23.14ZM225.695 144.063l-24.199-44.47 54.113 10.657Zm0 0"/><path fill="#f6c5b4" d="m201.496 99.594 36.637-29.422 17.476 40.078Zm0 0"/><path fill="#4a2f2d" d="M354.445 75.785 317.961 87.36l-5.336-19.507Zm0 0"/><path fill="#4a2d2c" d="m331.094 100.047 23.351-24.262 6.403 39.797ZM331.094 100.047 317.96 87.359l36.484-11.574Zm0 0"/><path fill="#c2b9a4" d="m143.742 225.543 10.164-10.465-.597 15.262Zm0 0"/><path fill="#cbbca7" d="m153.906 215.078-10.164 10.465-3.082-15.227Zm0 0"/><path fill="#cebbac" d="m143.742 225.543-14.379 1.078 11.297-16.305Zm0 0"/><path fill="#4a2d2c" d="m153.906 215.078 23.082-9.851-.37 17.625Zm0 0"/><path fill="#4a2d2c" d="m176.988 205.227-23.082 9.851 17.852-20.289Zm0 0"/><path fill="#4a2f2d" d="m191.11 194.105-14.122 11.122-5.23-10.438Zm0 0"/><path fill="#a2b287" d="m152.176 183.07-11.516 27.246-22.543-8.601Zm0 0"/><path fill="#cfbba9" d="m140.66 210.316-11.297 16.305-11.246-24.906Zm0 0"/><path fill="#f0c4b1" d="m250.707 175.7-22.832 4.878-2.18-36.515Zm0 0"/><path fill="#9fb083" d="m152.176 183.07 32.992-10.61-13.41 22.33Zm0 0"/><path fill="#dcc0a6" d="m170.742 143.555-18.566 39.515-23.031-17.78Zm0 0"/><path fill="#d8bfa3" d="m152.176 183.07 18.566-39.515 14.426 28.906Zm0 0"/><path fill="#f6c5b4" d="m294.781 285.902-13.12 8.239-1.11-17.727Zm0 0"/><path fill="#e0bfb4" d="m294.781 285.902 26.332 2.598-24.195 15.75Zm0 0"/><path fill="#f3c5b5" d="m281.66 294.14 13.121-8.238 2.137 18.348Zm0 0"/><path fill="#a5b586" d="m207.875 217.89-7.57-12.257 17.886.226Zm0 0"/><path fill="#a6b586" d="m200.305 205.633 4.851-13.207 13.035 13.433Zm0 0"/><path fill="#a6b58a" d="m200.305 205.633 7.57 12.258-6.746-.465Zm0 0"/><path fill="#aeb78b" d="m215.86 231.184-7.985-13.293 10.316-12.032Zm0 0"/><path fill="#acb689" d="m235.832 217.3-19.973 13.884 2.332-25.325Zm0 0"/><path fill="#b3b88d" d="m241.875 197.402-23.684 8.457 9.684-25.28Zm0 0"/><path fill="#aab688" d="m241.875 197.402-6.043 19.899-17.64-11.442Zm0 0"/><path fill="#4a2d2c" d="m285.527 244.516-6.453-18.797 25.328 3.902Zm0 0"/><path fill="#4a2d2c" d="m279.074 225.719 6.453 18.797-13.77-5.266ZM301.867 251.64l-16.34-7.124 18.875-14.895Zm0 0"/><path fill="#f6c5b4" d="m236.004 239.227 26.187 2.062-7.421 13.332Zm0 0"/><path fill="#f5c5b4" d="m254.77 254.621 7.421-13.332 9.465 6.484Zm0 0"/><path fill="#4a2d2c" d="m262.191 241.29 9.567-2.04-.102 8.523Zm0 0"/><path fill="#492d2c" d="m279.074 225.719-17.664 8.652 4.313-14.496Zm0 0"/><path fill="#4a2d2c" d="m261.41 234.371 17.664-8.652-7.316 13.531Zm0 0"/><path fill="#4a2d2c" d="m262.191 241.29-.78-6.919 10.347 4.879Zm0 0"/><path fill="#f6c5b4" d="m261.41 234.371.781 6.918-26.187-2.062Zm0 0"/><path fill="#b0b78d" d="m215.86 231.184 19.972-13.883.172 21.926Zm0 0"/><path fill="#f5c5b4" d="m205.027 291.848-3.515-14.989 31.23-6.027Zm0 0"/><path fill="#f2c4b5" d="m201.512 276.86 3.515 14.988-19.875 3.886Zm0 0"/><path fill="#e8c2b1" d="m213.84 252.004-12.328 24.855-7.282-19.964Zm0 0"/><path fill="#dfc0b1" d="m196.594 238.512 17.246 13.492-19.61 4.89Zm0 0"/><path fill="#f5c5b3" d="m213.84 252.004 22.164-12.777-3.262 31.605Zm0 0"/><path fill="#f5c5b4" d="m201.512 276.86 12.328-24.856 18.902 18.828Zm0 0"/><path fill="#4a2d2c" d="m176.617 222.852-11.07 15.078-12.238-7.59Zm0 0"/><path fill="#4a2e2c" d="m196.594 238.512-14.766-4.586 21.399-9.086Zm0 0"/><path fill="#4a2e2c" d="m181.828 233.926 19.3-16.5 2.099 7.414Zm0 0"/><path fill="#4a2d2c" d="m165.547 237.93 16.281-4.004-11.586 17.746ZM201.129 217.426l-19.3 16.5-5.212-11.074ZM181.828 233.926l-16.281 4.004 11.07-15.078Zm0 0"/><path fill="#4a714a" d="m324.508 319.176 31.137 24.07-15.95 15.461Zm0 0"/><path fill="#4b2f2e" d="m337.375 263.875-3.07 37.23-13.192-12.605Zm0 0"/><path fill="#e4c0ad" d="m363.586 188.25-6.98 17.367-15.223-8.418Zm0 0"/><path fill="#4a2d2c" d="m384 347.805-28.355-4.559 3.285-25.098Zm0 0"/><path fill="#4a714a" d="M304.742 349.066 306.06 384l-31.079-20.742Zm0 0"/><path fill="#4a7049" d="m304.742 349.066-23.918-9.285 15.918-17.418Zm0 0"/><path fill="#4a714a" d="m306.059 384 33.636-25.293L384 384Zm0 0"/><path fill="#4a714a" d="M339.695 358.707 306.06 384l-1.317-34.934ZM339.695 358.707l15.95-15.46L384 364.288Zm0 0"/><path fill="#4a2d2c" d="m239.898 331.54 12.805 13.897-26.789 1.38ZM239.898 331.54l-13.984 15.276-7-22.597ZM324.508 319.176l9.797-18.07 21.34 42.14ZM321.113 288.5l13.192 12.605-37.387 3.145Zm0 0"/><path fill="#f1c4b5" d="M129.684 43.152 81.64 17.375l52.222-5.684Zm0 0"/><path fill="#f0c4b4" d="m81.64 17.375 48.044 25.777-57.88-7.078Zm0 0"/><path fill="#f3c5b4" d="m219.648 45.027-7.382-11.41 14.918 2.164Zm0 0"/><path fill="#f4c5b4" d="m212.266 33.617-15.805 2.52 7.445-12.215Zm0 0"/><path fill="#f5c5b4" d="m196.46 36.137 15.806-2.52-6.938 19.555Zm0 0"/><path fill="#f5c5b4" d="m212.266 33.617 7.382 11.41-14.32 8.145Zm0 0"/><path fill="#4a714a" d="m157.02 0-1.348 7.84-21.809 3.851Zm0 0"/><path fill="#e9c1b0" d="m155.672 7.84-2.766 18.074-19.043-14.223Zm0 0"/><path fill="#f0c4b2" d="M132.617 82.633 116.07 63.03l24.778 5.864Zm0 0"/><path fill="#f5c5b4" d="m156.5 89.594-23.883-6.961 8.23-13.738Zm0 0"/><path fill="#efc4b2" d="m132.617 82.633-21.387-.356 4.84-19.246Zm0 0"/><path fill="#f6c5b4" d="m170.742 143.555-10.086-13.766 40.84-30.195Zm0 0"/><path fill="#f6c5b4" d="M160.656 129.79 156.5 89.593l44.996 10Zm0 0"/><path fill="#e3c1ab" d="m131.266 136.246 29.39-6.457-31.511 35.5Zm0 0"/><path fill="#ddc0a7" d="m160.656 129.79 10.086 13.765-41.597 21.734Zm0 0"/><path fill="#ecc3b2" d="m17.406 43.55 4.29 24.337L.003 55.254Zm0 0"/><path fill="#eac2b4" d="M17.406 43.55.004 55.255l-.008-32.895Zm0 0"/><path fill="#4a714a" d="M28.004 0 13.105 10.918 0 0Zm0 0"/><path fill="#4a714a" d="m22.906 20.059-9.8-9.141L28.003 0ZM13.105 10.918-.004 22.359 0 0Zm0 0"/><path fill="#ecc3b4" d="m17.406 43.55 5.5-23.491 19.692 25.254Zm0 0"/><path fill="#edc3b4" d="m22.906 20.059-5.5 23.492-17.41-21.192Zm0 0"/><path fill="#4a714a" d="m13.105 10.918 9.801 9.14-22.91 2.301ZM43 16.238l-20.094 3.82L28.004 0Zm0 0"/><path fill="#ebc3b3" d="M22.906 20.059 43 16.239l-.402 29.074Zm0 0"/><path fill="#dcc0a8" d="m129.145 165.29 23.03 17.78-34.058 18.645Zm0 0"/><path fill="#e9c3af" d="M83.09 108.098 69.375 78.773l21.371 5.547Zm0 0"/><path fill="#513533" d="m101.148 113.563-18.058-5.465 7.656-23.778Zm0 0"/><path fill="#c8bc9a" d="m.004 151.004 15.441 20.969-15.476 25.46Zm0 0"/><path fill="#beba95" d="m29.371 160.227-13.926 11.746-15.441-20.97Zm0 0"/><path fill="#cbbc9d" d="m15.445 171.973 10.29 7.183-25.766 18.278Zm0 0"/><path fill="#4f3432" d="m25.734 179.156 11.676 18.582-37.441-.304Zm0 0"/><path fill="#4a2d2c" d="m-.031 197.434 37.441.304-7.555 32.793Zm0 0"/><path fill="#cfbbb6" d="m152.145 283.988 4.53-9.84 7.626 10.848Zm0 0"/><path fill="#8fa7b0" d="m149.578 266.965 7.098 7.183-14.188 1.426Zm0 0"/><path fill="#aab1b5" d="m156.676 274.148-4.531 9.84-9.657-8.414Zm0 0"/><path fill="#d6bdb5" d="m67.207 202.21 13.95-2.19-4.485 15.902Zm0 0"/><path fill="#4b302e" d="M67.207 202.21 56.16 212.915l.848-20.371Zm0 0"/><path fill="#4b2f2e" d="m67.207 202.21 9.465 13.712-20.512-3.008Zm0 0"/><path fill="#d3bcb5" d="m81.156 200.02 13.602 9.808-18.086 6.094Zm0 0"/><path fill="#cbb9ad" d="m94.758 209.828-13.602-9.808 13.528-13.36Zm0 0"/><path fill="#87a0a4" d="m136.438 286.902-18.934-16.652 24.984 5.324Zm0 0"/><path fill="#7c9ba0" d="m133.602 258.184 15.976 8.78-7.09 8.61Zm0 0"/><path fill="#7d9b9f" d="m117.504 270.25 16.098-12.066 8.886 17.39Zm0 0"/><path fill="#4a7049" d="M338.254 37.934 384 0v55.168ZM338.254 37.934l-46.95-5.914L311.189 0Zm0 0"/><path fill="#4a7049" d="M338.254 37.934 311.187 0H384Zm0 0"/><path fill="#f6c5b4" d="m325.777 115.262-12.007 27.812-16.895-25.336ZM317.727 103.246l8.05 12.016-28.902 2.476Zm0 0"/><path fill="#f6c5b4" d="m304.008 94.598 13.719 8.648-20.852 14.492Zm0 0"/><path fill="#f3c3b3" d="m317.96 87.36-.233 15.886-13.72-8.648Zm0 0"/><path fill="#4a2d2d" d="m325.777 115.262-8.05-12.016 13.367-3.2Zm0 0"/><path fill="#4a2d2d" d="m317.727 103.246.234-15.887 13.133 12.688Zm0 0"/><path fill="#f5c5b4" d="m313.77 143.074 22.246 10.653-22.774 29.484Zm0 0"/><path fill="#87a4b1" d="m317.96 87.36-20.843-9.25 15.508-10.258Zm0 0"/><path fill="#f3c4b4" d="m297.117 78.11 20.844 9.25-13.953 7.238Zm0 0"/><path fill="#4a704a" d="m270.563 48.145-43.38-12.364.118-14.066Zm0 0"/><path fill="#f6c5b4" d="m238.133 70.172-10.95-34.39 43.38 12.363Zm0 0"/><path fill="#4a7049" d="m291.305 32.02-20.743 16.125-43.261-26.43Zm0 0"/><path fill="#4a7049" d="m225.21 0 66.095 32.02L227.3 21.715Zm0 0"/><path fill="#4a714a" d="M291.305 32.02 225.21 0h85.976Zm0 0"/><path fill="#ecc3ae" d="m271.137 173.441-20.43 2.258 22.156-28.195Zm0 0"/><path fill="#adb68a" d="m241.875 197.402 20.95-5.05-5.552 18.75Zm0 0"/><path fill="#b3b88d" d="m262.824 192.352-20.949 5.05 8.832-21.703Zm0 0"/><path fill="#abb689" d="m271.137 173.441-8.313 18.91-12.117-16.652Zm0 0"/><path fill="#c1b7a6" d="m142.242 240.805 1.5-15.262 9.567 4.797Zm0 0"/><path fill="#4b3532" d="m154.277 247.117-12.035-6.312 11.067-10.465Zm0 0"/><path fill="#bfb6a3" d="m142.242 240.805-12.879-14.184 14.38-1.078Zm0 0"/><path fill="#4a2d2c" d="m191.332 207.262-14.344-2.035 14.121-11.122Zm0 0"/><path fill="#4b302e" d="m191.332 207.262-.223-13.157 9.196 11.528Zm0 0"/><path fill="#4a2d2c" d="m191.332 207.262 9.797 10.164-24.512 5.426Zm0 0"/><path fill="#4a2d2c" d="m176.988 205.227 14.344 2.035-14.715 15.59Zm0 0"/><path fill="#9aab93" d="m191.332 207.262 8.973-1.63.824 11.794Zm0 0"/><path fill="#e8c2b0" d="m321.496 222.754-9.379-14.984 20.332-1.579Zm0 0"/><path fill="#c7bc9b" d="m332.45 206.191-19.208-22.98 28.14 13.988Zm0 0"/><path fill="#e9c2b1" d="m339.504 225.793-18.008-3.04 10.953-16.562Zm0 0"/><path fill="#c7bc9c" d="m312.117 207.77 1.125-24.56 19.207 22.981Zm0 0"/><path fill="#f0c4b1" d="m363.586 188.25-18.762-10.254 15.164-11.351Zm0 0"/><path fill="#f1c4b2" d="m344.824 177.996-31.582 5.215 22.774-29.484Zm0 0"/><path fill="#efc4b1" d="m344.824 177.996 18.762 10.254-22.203 8.95Zm0 0"/><path fill="#edc3b0" d="m313.242 183.21 31.582-5.214-3.441 19.203Zm0 0"/><path fill="#f2c5b2" d="m213.84 252.004 2.02-20.82 20.144 8.043Zm0 0"/><path fill="#f0c4b2" d="m215.86 231.184-2.02 20.82-17.246-13.492Zm0 0"/><path fill="#dec0a9" d="m215.86 231.184-19.266 7.328 6.633-13.672Zm0 0"/><path fill="#acb68c" d="m207.875 217.89 7.984 13.294-12.632-6.344Zm0 0"/><path fill="#564444" d="m315.496 241-13.629 10.64 2.535-22.019Zm0 0"/><path fill="#c5b9b5" d="M324.938 258.422 315.496 241l14.07 1.55Zm0 0"/><path fill="#584849" d="m301.867 251.64 13.63-10.64 9.44 17.422Zm0 0"/><path fill="#544244" d="m298.344 272.61 3.523-20.97 23.07 6.782Zm0 0"/><path fill="#b4b4b7" d="m298.344 272.61 26.594-14.188-3.825 30.078Zm0 0"/><path fill="#e7c1b5" d="m294.781 285.902 3.563-13.293 22.77 15.891Zm0 0"/><path fill="#4a2d2c" d="m253.813 225.02 3.46-13.918 8.45 8.773Zm0 0"/><path fill="#4c3c35" d="m142.242 240.805 12.035 6.312-20.675 11.067Zm0 0"/><path fill="#4c3d37" d="m154.277 247.117-4.699 19.848-15.976-8.781Zm0 0"/><path fill="#4a2d2c" d="m165.547 237.93-11.27 9.187-.968-16.777Zm0 0"/><path fill="#eac2b3" d="m194.23 256.895 7.282 19.964-18.5-3.777Zm0 0"/><path fill="#4a2d2c" d="m181.828 233.926 4.055 13.617-15.64 4.129Zm0 0"/><path fill="#4a2d2c" d="m185.883 247.543-4.055-13.617 14.766 4.586Zm0 0"/><path fill="#b8b6ae" d="m185.883 247.543 10.71-9.031-2.363 18.383Zm0 0"/><path fill="#4a714a" d="m324.508 319.176-19.766 29.89-8-26.703Zm0 0"/><path fill="#4a2d2c" d="m358.93 318.148-3.285 25.098-21.34-42.14Zm0 0"/><path fill="#bba59f" d="m358.93 318.148 3.32-44.433 21.719 25.02Zm0 0"/><path fill="#4a2d2c" d="m362.25 273.715-3.32 44.433-24.625-17.043Zm0 0"/><path fill="#98a6af" d="m324.938 258.422 12.437 5.453-16.262 24.625Zm0 0"/><path fill="#4a2d2c" d="m337.375 263.875 24.875 9.84-27.945 27.39Zm0 0"/><path fill="#4a2d2c" d="m362.25 273.715-24.875-9.84 9.855-18.379ZM370.563 234.488l-8.313 39.227-15.02-28.219Zm0 0"/><path fill="#533f40" d="m383.969 298.734-21.719-25.02 8.313-39.226Zm0 0"/><path fill="#4d734b" d="m367.441 163.313-3.855 24.937-3.598-21.605Zm0 0"/><path fill="#4a714a" d="m367.89 188.191 16.11-23.34.023 47.247Zm0 0"/><path fill="#4a714a" d="m367.441 163.313.45 24.878-4.305.059Zm0 0"/><path fill="#4a714a" d="m367.89 188.191-.449-24.879 16.559 1.54Zm0 0"/><path fill="#a8b587" d="m359.988 166.645-23.972-12.918L343.59 145Zm0 0"/><path fill="#4b724a" d="m367.441 163.313-7.453 3.332L343.59 145Zm0 0"/><path fill="#f3c5b3" d="m359.988 166.645-15.164 11.351-8.808-24.27Zm0 0"/><path fill="#4a2d2c" d="m352.523 213.598 4.082-7.98 8.985 7.491Zm0 0"/><path fill="#e8c1b1" d="m356.605 205.617-4.082 7.98-11.14-16.398Zm0 0"/><path fill="#e8c2b1" d="m352.523 213.598-20.074-7.407 8.934-8.992Zm0 0"/><path fill="#e8c2b3" d="m332.45 206.191 20.073 7.407-13.02 12.195Zm0 0"/><path fill="#4a2e2c" d="m365.59 213.11 2.3-24.919 16.133 23.907Zm0 0"/><path fill="#4a2d2c" d="m365.59 213.11-8.985-7.493 6.98-17.367ZM367.89 188.191l-2.3 24.918-2.004-24.859Zm0 0"/><path fill="#4a714a" d="M384 364.29V384l-44.305-25.293ZM384 364.29l-28.355-21.044L384 347.805Zm0 0"/><path fill="#4a7049" d="m280.824 339.781-5.844 23.477-22.277-17.82Zm0 0"/><path fill="#4a714a" d="m274.98 363.258 5.844-23.477 23.918 9.285ZM304.742 349.066l19.766-29.89 15.187 39.531Zm0 0"/><path fill="#4a2d2c" d="m260.184 332.754 20.64 7.027-28.12 5.656Zm0 0"/><path fill="#f6c5b4" d="m280.55 276.414-13.874 12.223-4.778-19.59Zm0 0"/><path fill="#f6c5b4" d="m266.676 288.637-14.117 2.125 9.34-21.715Zm0 0"/><path fill="#f1c4b5" d="m205.027 291.848-10.441 9.82-9.434-5.934Zm0 0"/><path fill="#879ea6" d="m194.586 301.668 10.441-9.82 26.063 15.797Zm0 0"/><path fill="#4a2d2c" d="m194.586 301.668 36.504 5.977-12.176 16.574Zm0 0"/><path fill="#d2bcb4" d="m184.504 321.95 10.082-20.282 24.328 22.55Zm0 0"/><path fill="#4e3835" d="m66.156 320.441 81.504 7.93-54.488 32.524Zm0 0"/><path fill="#eec4b3" d="m116.07 63.031 13.614-19.879 11.164 25.743Zm0 0"/><path fill="#efc4b4" d="m129.684 43.152-13.614 19.88-44.265-26.958Zm0 0"/><path fill="#4a714a" d="m227.3 21.715-15.034 11.902-8.36-9.695Zm0 0"/><path fill="#4a714a" d="m227.3 21.715-23.394 2.207L225.211 0ZM212.266 33.617 227.3 21.715l-.117 14.066Zm0 0"/><path fill="#f4c5b5" d="m152.906 25.914 20.75-9.777-4.527 39.023Zm0 0"/><path fill="#f1c4b2" d="m155.672 7.84 17.984 8.297-20.75 9.777Zm0 0"/><path fill="#f3c5b5" d="m173.656 16.137 22.805 20-27.332 19.023Zm0 0"/><path fill="#f2c4b5" d="m196.46 36.137-22.804-20 30.25 7.785Zm0 0"/><path fill="#4a714a" d="M173.656 16.137 186.367 0l17.54 23.922Zm0 0"/><path fill="#4a714a" d="m186.367 0-12.71 16.137L157.02 0ZM173.656 16.137 155.672 7.84 157.02 0Zm0 0"/><path fill="#4f3634" d="m123.93 124.219-11.254 8.363-11.528-19.02Zm0 0"/><path fill="#c6bb9e" d="m112.676 132.582 11.254-8.363 7.336 12.027Zm0 0"/><path fill="#f1c4b2" d="m136.043 111.781 24.613 18.008-29.39 6.457Zm0 0"/><path fill="#f1c4b2" d="m160.656 129.79-24.613-18.009L156.5 89.594Zm0 0"/><path fill="#f4c5b4" d="m136.043 111.781-3.426-29.148 23.883 6.96Zm0 0"/><path fill="#c1ba99" d="m123.93 124.219 12.113-12.438-4.777 24.465Zm0 0"/><path fill="#edc3b5" d="M21.695 67.887 17.406 43.55l25.192 1.761Zm0 0"/><path fill="#d9bfa8" d="M42.598 45.313 50.19 69.57l-28.496-1.683Zm0 0"/><path fill="#d0bda2" d="m21.695 67.887 4.828 60.914L.008 93.51Zm0 0"/><path fill="#d8bfa4" d="m21.695 67.887 25.743 45.922L26.523 128.8Zm0 0"/><path fill="#dec0aa" d="M47.438 113.809 21.695 67.887l28.496 1.683Zm0 0"/><path fill="#cebd9f" d="m109.031 159.156 22.235-22.91-2.121 29.043Zm0 0"/><path fill="#4a2e2c" d="m73.598 148.324 12.539-19.031 9.437 21.648Zm0 0"/><path fill="#4a2d2c" d="m86.137 129.293 26.539 3.289-17.102 18.36Zm0 0"/><path fill="#a1b096" d="m112.676 132.582-3.645 26.574-13.457-8.215Zm0 0"/><path fill="#b3b69b" d="m112.676 132.582 18.59 3.664-22.235 22.91Zm0 0"/><path fill="#4a2d2c" d="m93.172 360.895-19.336 1.742-7.68-42.196Zm0 0"/><path fill="#bfba95" d="m25.734 179.156-10.289-7.183 13.926-11.746Zm0 0"/><path fill="#dcc0a7" d="m26.523 128.8 17.243 12.438-14.395 18.989Zm0 0"/><path fill="#5c514f" d="m117.504 270.25-4.102 10.516-14.52-22.743Zm0 0"/><path fill="#5b4f4f" d="m113.402 280.766 4.102-10.516 18.933 16.652Zm0 0"/><path fill="#868d7c" d="m83.723 171.645-10.125-23.32 21.976 2.616Zm0 0"/><path fill="#b0b78d" d="m73.598 148.324 10.125 23.32-20.188-7.19Zm0 0"/><path fill="#bbb4b2" d="m76.672 215.922 18.086-6.094-3.906 25.414Zm0 0"/><path fill="#cbbba6" d="m109.215 230.648 8.902-28.933 11.246 24.906Zm0 0"/><path fill="#afafa8" d="m94.758 209.828 14.457 20.82-18.363 4.594Zm0 0"/><path fill="#a9afa4" d="m109.215 230.648-14.457-20.82 23.36-8.113Zm0 0"/><path fill="#6a7b6a" d="m121.406 246.492 20.836-5.687-8.64 17.379Zm0 0"/><path fill="#c3b7a3" d="m142.242 240.805-20.836 5.687 7.957-19.87Zm0 0"/><path fill="#c2b8a0" d="m121.406 246.492-12.191-15.844 20.148-4.027Zm0 0"/><path fill="#4a2e2c" d="m98.883 258.023-27.805-10.855 19.774-11.926Zm0 0"/><path fill="#c4b9a3" d="m103.223 248.395 5.992-17.747-.028 19.711Zm0 0"/><path fill="#574645" d="m98.883 258.023 4.34-9.628 5.965 1.964Zm0 0"/><path fill="#acab9d" d="m109.215 230.648-5.992 17.747-12.371-13.153Zm0 0"/><path fill="#707165" d="m103.223 248.395-4.34 9.628-8.031-22.78Zm0 0"/><path fill="#cabaa4" d="m118.117 201.715-23.36 8.113-.073-23.168Zm0 0"/><path fill="#f5c5b4" d="m336.094 138.984-22.324 4.09 12.007-27.812Zm0 0"/><path fill="#4a2e2c" d="m336.094 138.984 24.754-23.402L343.59 145Zm0 0"/><path fill="#4a2d2c" d="m336.094 138.984-10.317-23.722 35.07.32Zm0 0"/><path fill="#eec4b2" d="m336.016 153.727.078-14.743L343.59 145Zm0 0"/><path fill="#f3c5b4" d="m313.77 143.074 22.324-4.09-.078 14.743Zm0 0"/><path fill="#4a714a" d="m384 103.781-29.555-27.996L384 55.168Zm0 0"/><path fill="#f4c5b3" d="m272.863 147.504 40.907-4.43-.528 40.137Zm0 0"/><path fill="#f4c5b3" d="m271.137 173.441 1.726-25.937 40.38 35.707Zm0 0"/><path fill="#ebc3b1" d="m304.234 215.434 7.883-7.664 9.38 14.984Zm0 0"/><path fill="#e5c2af" d="m304.234 215.434 17.262 7.32-17.094 6.867Zm0 0"/><path fill="#5e4c48" d="m279.074 225.719 25.16-10.285.168 14.187Zm0 0"/><path fill="#e8c2b2" d="m318.14 234.898 3.356-12.144 8.07 19.797Zm0 0"/><path fill="#e7c2b1" d="m321.496 222.754-3.355 12.144-13.739-5.277Zm0 0"/><path fill="#e8c2b4" d="m315.496 241 2.645-6.102 11.425 7.653Zm0 0"/><path fill="#eac3b3" d="M318.14 234.898 315.497 241l-11.094-11.379Zm0 0"/><path fill="#f5c5b4" d="m280.55 276.414 17.794-3.805-3.563 13.293Zm0 0"/><path fill="#afb78b" d="m235.832 217.3 6.043-19.898 15.398 13.7Zm0 0"/><path fill="#b0b78c" d="m253.813 225.02-17.981-7.72 21.441-6.198Zm0 0"/><path fill="#b9b991" d="m235.832 217.3 17.98 7.72-17.808 14.207Zm0 0"/><path fill="#f1c4b2" d="m253.813 225.02 7.597 9.351-25.406 4.856Zm0 0"/><path fill="#4a2d2c" d="m261.41 234.371-7.598-9.351 11.91-5.145ZM154.277 247.117l15.965 4.555-20.664 15.293Zm0 0"/><path fill="#4a2d2c" d="m165.547 237.93 4.695 13.742-15.965-4.555Zm0 0"/><path fill="#e3c1b3" d="m156.676 274.148 26.336-1.066-18.711 11.914Zm0 0"/><path fill="#534242" d="m170.242 251.672-13.566 22.476-7.098-7.183Zm0 0"/><path fill="#4a2d2c" d="m324.508 319.176-27.59-14.926 37.387-3.145Zm0 0"/><path fill="#4a2d2c" d="m296.918 304.25 27.59 14.926-27.766 3.187Zm0 0"/><path fill="#c9bab6" d="m329.566 242.55 7.809 21.325-12.437-5.453Zm0 0"/><path fill="#b9b4b6" d="m337.375 263.875-7.809-21.324 17.664 2.945Zm0 0"/><path fill="#e7c2b1" d="m321.496 222.754 18.008 3.039-9.938 16.758Zm0 0"/><path fill="#eac2b4" d="m329.566 242.55 9.938-16.757 7.726 19.703Zm0 0"/><path fill="#4a2d2c" d="m347.23 245.496 7.555-22.027 15.777 11.02ZM370.563 234.488l-15.778-11.02 10.805-10.359Zm0 0"/><path fill="#4a2d2c" d="m354.785 223.469-2.262-9.871 13.067-.489Zm0 0"/><path fill="#e7c2b1" d="m352.523 213.598 2.262 9.87-15.281 2.325Zm0 0"/><path fill="#efc3b3" d="m339.504 225.793 15.281-2.324-7.555 22.027Zm0 0"/><path fill="#f4c5b5" d="M260.184 332.754 242.62 321.78l15.207-13.367Zm0 0"/><path fill="#d0bbb4" d="m242.621 321.781-2.723 9.758-20.984-7.32Zm0 0"/><path fill="#4a2d2c" d="m231.09 307.645 11.531 14.136-23.707 2.438Zm0 0"/><path fill="#f6c5b5" d="m265.55 301.39 10.18 20.231-17.902-13.207Zm0 0"/><path fill="#f4c5b5" d="m275.73 321.621-15.546 11.133-2.356-24.34Zm0 0"/><path fill="#5b6c5c" d="m260.184 332.754 15.546-11.133 5.094 18.16Zm0 0"/><path fill="#4b503e" d="m280.824 339.781-5.094-18.16 21.012.742Zm0 0"/><path fill="#f5c5b5" d="m233.75 297.23-28.723-5.382 27.715-21.016Zm0 0"/><path fill="#7e9098" d="m205.027 291.848 28.723 5.382-2.66 10.415Zm0 0"/><path fill="#f6c5b4" d="m281.66 294.14-14.984-5.503 13.875-12.223ZM266.676 288.637l14.984 5.504-16.11 7.25Zm0 0"/><path fill="#4a2d2c" d="m261.414 299.496 4.137 1.895-7.723 7.023Zm0 0"/><path fill="#f5c5b5" d="m261.414 299.496 5.262-10.86-1.125 12.755Zm0 0"/><path fill="#f6c5b4" d="m266.676 288.637-5.262 10.86-8.855-8.735Zm0 0"/><path fill="#4a714a" d="m223.914 366.117 51.066-2.86L223.04 384Zm0 0"/><path fill="#4a2d2c" d="m225.914 346.816-22.855-2.945 15.855-19.652Zm0 0"/><path fill="#b0b2a2" d="m203.059 343.871-18.555-21.922 34.41 2.27Zm0 0"/><path fill="#4a714a" d="m155.7 384-6.333-22.535 33.242 2.12ZM149.367 361.465l-1.707-33.094 25.246 12.922Zm0 0"/><path fill="#e7c2b4" d="m183.012 273.082 2.14 22.652-20.851-10.738Zm0 0"/><path fill="#e4c1b5" d="m185.152 295.734 9.434 5.934-10.082 20.281Zm0 0"/><path fill="#5c7d63" d="m147.66 328.371 6.742-7.094 18.504 20.016Zm0 0"/><path fill="#6e8d87" d="m154.402 321.277-41-40.511 23.036 6.136Zm0 0"/><path fill="#504840" d="m147.66 328.371-34.258-47.605 41 40.511Zm0 0"/><path fill="#92a9b2" d="m152.145 283.988 5.75 24.828-21.458-21.914Zm0 0"/><path fill="#789398" d="m157.895 308.816-3.493 12.461-17.964-34.375Zm0 0"/><path fill="#d5bdb4" d="m157.895 308.816-5.75-24.828 12.156 1.008Zm0 0"/><path fill="#4a2d2c" d="m113.945 100.926 9.985 23.293-22.782-10.656Zm0 0"/><path fill="#583d3a" d="m111.23 82.277 2.715 18.649L90.746 84.32Zm0 0"/><path fill="#4a2d2c" d="m113.945 100.926-12.797 12.636L90.746 84.32Zm0 0"/><path fill="#4b2f2e" d="m132.617 82.633-18.672 18.293-2.715-18.649Zm0 0"/><path fill="#4d312f" d="m136.043 111.781-22.098-10.855 18.672-18.293Zm0 0"/><path fill="#4b2e2d" d="m113.945 100.926 22.098 10.855-12.113 12.438Zm0 0"/><path fill="#ddc0a9" d="M71.805 36.074 50.19 69.57l-7.593-24.257Zm0 0"/><path fill="#dac0a5" d="m50.191 69.57 21.614-33.496-2.43 42.7Zm0 0"/><path fill="#4b2f2d" d="m37.41 197.738 12.719-19.23 6.879 14.035Zm0 0"/><path fill="#b9b991" d="m50.129 178.508-8.61-9.383 7.399-7.293Zm0 0"/><path fill="#d8bfa4" d="m43.766 141.238 5.152 20.594-19.547-1.605Zm0 0"/><path fill="#d3bea0" d="m48.918 161.832-7.398 7.293-12.149-8.898Zm0 0"/><path fill="#4a2d2c" d="m112.676 132.582-26.54-3.289 15.012-15.73Zm0 0"/><path fill="#4a2d2c" d="m83.09 108.098 3.047 21.195-17.727-12.426Zm0 0"/><path fill="#4a2d2c" d="m86.137 129.293-3.047-21.195 18.058 5.465Zm0 0"/><path fill="#4a714a" d="m93.172 360.895-1.43 9.402-17.906-7.66Zm0 0"/><path fill="#d5bdb0" d="m94.684 186.66-24.641-4.176 13.68-10.84Zm0 0"/><path fill="#d2bbb2" d="m67.207 202.21 2.836-19.726 11.113 17.536Zm0 0"/><path fill="#d4bcb1" d="m70.043 182.484 24.64 4.176-13.527 13.36Zm0 0"/><path fill="#d7beae" d="m70.043 182.484-2.836 19.727-10.2-9.668Zm0 0"/><path fill="#b2b78e" d="m50.129 178.508 19.914 3.976-13.035 10.059Zm0 0"/><path fill="#4a2e2c" d="M98.883 258.023 87.969 274.13l-16.89-26.961Zm0 0"/><path fill="#4e3534" d="m113.402 280.766-25.433-6.637 10.914-16.106Zm0 0"/><path fill="#f6c5b4" d="m271.266 80.418-33.133-10.246 32.43-22.027Zm0 0"/><path fill="#f6c5b4" d="m238.133 70.172 33.133 10.246-15.657 29.832Zm0 0"/><path fill="#4a714a" d="m291.305 32.02 5.812 46.09-26.555-29.965Zm0 0"/><path fill="#f6c5b4" d="m297.117 78.11-25.851 2.308-.704-32.273ZM286.422 95.52l10.695-17.41 6.89 16.488Zm0 0"/><path fill="#d0bda6" d="m304.234 215.434-16.25-17.403 24.133 9.739Zm0 0"/><path fill="#c2bb99" d="m312.117 207.77-24.133-9.739 25.258-14.82Zm0 0"/><path fill="#c3ba99" d="m287.984 198.031-16.847-24.59 42.105 9.77Zm0 0"/><path fill="#4b533d" d="m287.984 198.031-25.16-5.68 8.313-18.91Zm0 0"/><path fill="#4a2d2c" d="m257.273 211.102 30.711-13.07-22.261 21.843Zm0 0"/><path fill="#4a2d2c" d="m262.824 192.352 25.16 5.68-30.71 13.07Zm0 0"/><path fill="#4a2d2c" d="m287.984 198.031-8.91 27.688-13.351-5.844Zm0 0"/><path fill="#7c807c" d="m287.984 198.031 16.25 17.403-25.16 10.285Zm0 0"/><path fill="#4a2d2c" d="m285.527 244.516-6.824 17.289-7.047-14.032Zm0 0"/><path fill="#f6c5b4" d="m278.703 261.805-16.805 7.242 9.758-21.274ZM278.703 261.805l1.848 14.61-18.653-7.368Zm0 0"/><path fill="#f6c5b5" d="m284.176 311.133-8.446 10.488-10.18-20.23Zm0 0"/><path fill="#f5c5b5" d="m281.66 294.14 2.516 16.993-18.625-9.742Zm0 0"/><path fill="#e2c0b5" d="m275.73 321.621 8.446-10.488 12.566 11.23Zm0 0"/><path fill="#e2c0b6" d="m284.176 311.133 12.742-6.883-.176 18.113Zm0 0"/><path fill="#f0c4b5" d="m296.918 304.25-12.742 6.883-2.516-16.992Zm0 0"/><path fill="#71857e" d="m252.703 345.438-12.805-13.899 20.286 1.215Zm0 0"/><path fill="#b8b3b1" d="m239.898 331.54 2.723-9.759 17.563 10.973Zm0 0"/><path fill="#f6c5b5" d="m233.75 297.23-1.008-26.398 19.817 19.93Zm0 0"/><path fill="#f6c5b4" d="m252.559 290.762-19.817-19.93 29.156-1.785Zm0 0"/><path fill="#f6c5b4" d="m232.742 270.832 22.028-16.21 7.128 14.425Zm0 0"/><path fill="#4a2d2c" d="m251.531 304.617-8.91 17.164-11.531-14.136Zm0 0"/><path fill="#bcb3b3" d="m261.414 299.496-9.883 5.121 1.028-13.855Zm0 0"/><path fill="#4a2d2c" d="m242.621 321.781 8.91-17.164 6.297 3.797Zm0 0"/><path fill="#4a2e2c" d="m251.531 304.617 9.883-5.12-3.586 8.917Zm0 0"/><path fill="#94a8b4" d="m251.531 304.617-17.781-7.387 18.809-6.468Zm0 0"/><path fill="#7d8d97" d="m233.75 297.23 17.781 7.387-20.441 3.028Zm0 0"/><path fill="#4a714a" d="m155.7 384 26.91-20.414L223.04 384ZM182.61 363.586l41.304 2.531L223.04 384ZM203.059 343.871l22.855 2.945-2 19.301Zm0 0"/><path fill="#4a714a" d="m203.059 343.871 20.855 22.246-41.305-2.531Zm0 0"/><path fill="#aeb3b6" d="m185.152 295.734-.648 26.215-26.61-13.133Zm0 0"/><path fill="#91a9b2" d="m184.504 321.95-30.102-.673 3.493-12.46Zm0 0"/><path fill="#4c5e45" d="m154.402 321.277 30.102.672-11.598 19.344Zm0 0"/><path fill="#4a322e" d="m147.047 359.164.613-30.793 1.707 33.094Zm0 0"/><path fill="#4a2d2c" d="m147.66 328.371-.613 30.793-53.875 1.73Zm0 0"/><path fill="#4c734c" d="m147.047 359.164 2.32 2.3-56.195-.57Zm0 0"/><path fill="#debfb5" d="m185.152 295.734-27.257 13.082 6.406-23.82Zm0 0"/><path fill="#dfc1a8" d="m47.438 113.809 21.937-35.036-.965 38.094Zm0 0"/><path fill="#eac3af" d="M69.375 78.773 47.438 113.81 50.19 69.57Zm0 0"/><path fill="#e2c1a9" d="m69.375 78.773 13.715 29.325-14.68 8.77Zm0 0"/><path fill="#d8bfa4" d="m26.523 128.8 20.915-14.991-3.672 27.43Zm0 0"/><path fill="#4a2e2d" d="m36.219 176.605 13.91 1.903-12.719 19.23Zm0 0"/><path fill="#c4bb98" d="m50.129 178.508-13.91-1.903 5.3-7.48Zm0 0"/><path fill="#4b302e" d="m25.734 179.156 10.485-2.55 1.191 21.132Zm0 0"/><path fill="#bfba95" d="m36.219 176.605-10.485 2.551 3.637-18.93Zm0 0"/><path fill="#c6bc99" d="m41.52 169.125-5.301 7.48-6.848-16.378Zm0 0"/><path fill="#d6bfa2" d="m55.914 147.973-6.996 13.859-5.152-20.594Zm0 0"/><path fill="#adb78a" d="m55.914 147.973 17.684.351-10.063 16.13Zm0 0"/><path fill="#acb689" d="m48.918 161.832 6.996-13.86 7.621 16.481Zm0 0"/><path fill="#adb68c" d="m70.043 182.484-6.508-18.03 20.188 7.19Zm0 0"/><path fill="#abb688" d="M63.535 164.453 50.13 178.508l-1.211-16.676Zm0 0"/><path fill="#acb68a" d="m63.535 164.453 6.508 18.031-19.914-3.976Zm0 0"/><path fill="#f6c5b4" d="m297.117 78.11-10.695 17.41-15.156-15.102ZM271.266 80.418l15.156 15.102-30.813 14.73Zm0 0"/><path fill="#4a2d2c" d="m301.867 251.64-14.656 12.731-1.684-19.855Zm0 0"/><path fill="#4a2d2c" d="m287.21 264.371-8.507-2.566 6.824-17.29Zm0 0"/><path fill="#f4c5b4" d="m278.703 261.805 8.508 2.566-6.66 12.043Zm0 0"/><path fill="#4b2f2e" d="m298.344 272.61-11.133-8.239 14.656-12.73Zm0 0"/><path fill="#f4c5b4" d="m280.55 276.414 6.66-12.043 11.134 8.238Zm0 0"/><path fill="#cebcaf" d="m156.676 274.148 21.437-13.539 4.899 12.473Zm0 0"/><path fill="#4e3736" d="m178.113 260.61-21.437 13.538 13.566-22.476Zm0 0"/><path fill="#4a2d2c" d="m178.113 260.61-7.87-8.938 15.64-4.129Zm0 0"/><path fill="#b3b5b1" d="m194.23 256.895-16.117 3.714 7.77-13.066Zm0 0"/><path fill="#e4c1b1" d="m183.012 273.082-4.899-12.473 16.117-3.714Zm0 0"/><path fill="#4a2e2c" d="m203.059 343.871-30.153-2.578 11.598-19.344Zm0 0"/><path fill="#4a7049" d="m172.906 341.293 30.153 2.578-20.45 19.715Zm0 0"/><path fill="#4a714a" d="m149.367 361.465 23.54-20.172 9.702 22.293Zm0 0"/><path fill="#4a2e2d" d="m61.055 126.34 25.082 2.953-12.54 19.031Zm0 0"/><path fill="#563b37" d="m61.055 126.34 7.355-9.473 17.727 12.426Zm0 0"/><path fill="#b1b793" d="m55.914 147.973 5.14-21.633 12.544 21.984Zm0 0"/><path fill="#d8bfa5" d="m47.438 113.809 13.617 12.53-17.29 14.9Zm0 0"/><path fill="#d9bfa5" d="m68.41 116.867-7.355 9.473-13.617-12.531Zm0 0"/><path fill="#d6bfa3" d="m61.055 126.34-5.14 21.633-12.15-6.735Zm0 0"/><path fill="#5a5250" d="m109.188 250.36 8.316 19.89-18.621-12.227Zm0 0"/><path fill="#c1b89f" d="m109.215 230.648 12.191 15.844-12.219 3.867Zm0 0"/><path fill="#88a3a7" d="m121.406 246.492-3.902 23.758-8.317-19.89Zm0 0"/><path fill="#7c999e" d="m117.504 270.25 3.902-23.758 12.196 11.692Zm0 0"/></svg>