<svg xmlns="http://www.w3.org/2000/svg" width="512" height="512" viewBox="0 0 384 384"><path fill="#e7cd42" d="M95.844 82.469 73.94 69.645l26.883-19.688Zm0 0"/><path fill="#fdd603" d="m303.086 58.996-21.477 5.79 31.098-36.634Zm0 0"/><path fill="#671986" d="m281.61 64.785 21.476-5.789-10.992 21.5Zm0 0"/><path fill="#edd031" d="m247.445 77.176-6.418 45.898-41.21-31.125Zm0 0"/><path fill="#ccc38a" d="m143.473 201.746-18.817-15.934 37.45-8.164Zm0 0"/><path fill="#eed02e" d="m241.027 123.074 41.79 24.008-47.672 16.414Zm0 0"/><path fill="#e8ce3e" d="m241.027 123.074-55.695 18.45 14.484-49.575Zm0 0"/><path fill="#ac7049" d="m368.871 221.691 15.14 25.653-18.53-6.438Zm0 0"/><path fill="#fed600" d="M319.742 358.441 289.382 384l-.241-31.973Zm0 0"/><path fill="#eacf38" d="m247.445 77.176-47.629 14.773 20.317-37.996Zm0 0"/><path fill="#fcd507" d="m66.832 34.895-38.703-6.266L46.086 0Zm0 0"/><path fill="#d8c86a" d="m126.191 130.61 28.442-16.298-15.844 36.934Zm0 0"/><path fill="#fed600" d="M0 376.324 62.367 384H0Zm0 0"/><path fill="#fed600" d="M62.367 384 0 376.324l52.438-10.988Zm0 0"/><path fill="#95535f" d="m64.996 332.262-7.562 22.383-22.336-10.696Zm0 0"/><path fill="#af7346" d="m103.012 318.285.39 12.535-38.406 1.442Zm0 0"/><path fill="#d1b75f" d="m-.008 271.492 17.653-57.11 1.472 58.563Zm0 0"/><path fill="#d6c76e" d="M40.855 153.52.004 139.43l34.969-8.25Zm0 0"/><path fill="#e3c743" d="m69.133 286.566-50.016-13.62 37.7-14.032Zm0 0"/><path fill="#d6b64a" d="m19.117 272.945-1.472-58.562 39.171 44.531Zm0 0"/><path fill="#bb8b4e" d="m65.332 316.945-46.215-44 50.016 13.621Zm0 0"/><path fill="#bc853d" d="m73.34 233.086 10.82 10.434-27.344 15.394Zm0 0"/><path fill="#86426d" d="M89.488 227.676 84.16 243.52l-10.82-10.434Zm0 0"/><path fill="#c3913e" d="m57.262 220.277 16.078 12.809-16.524 25.828Zm0 0"/><path fill="#c39141" d="m17.645 214.383 39.617 5.894-.446 38.637Zm0 0"/><path fill="#9c5f5e" d="m57.262 220.277 19.71-2.683-3.632 15.492Zm0 0"/><path fill="#f1d125" d="m310.45 128.473-24.278-12.016 22.156-5.824Zm0 0"/><path fill="#f2d223" d="m310.45 128.473-27.634 18.609 3.356-30.625Zm0 0"/><path fill="#fad40b" d="m354.805 113.457 5.804-34.984L384 101.027Zm0 0"/><path fill="#fbd50a" d="m332.934 59.16 21.195-12.527 6.48 31.84Zm0 0"/><path fill="#fad40a" d="m332.934 59.16-29.848-.164 9.621-30.844Zm0 0"/><path fill="#fdd604" d="M354.129 46.633 332.934 59.16l-20.227-31.008Zm0 0"/><path fill="#e6cd44" d="m282.816 147.082-12.082 34.023-35.59-17.609Zm0 0"/><path fill="#e3cc4c" d="m235.145 163.496 5.89 30.664-22.71.524Zm0 0"/><path fill="#e5cd46" d="m270.734 181.105-29.699 13.055-5.89-30.664Zm0 0"/><path fill="#e9ce3c" d="m185.332 141.523 49.813 21.973-37.989 14.063Zm0 0"/><path fill="#e9ce3a" d="m235.145 163.496-49.813-21.973 55.695-18.449Zm0 0"/><path fill="#d9c764" d="m197.156 177.559-9.437 22.324-25.614-22.235Zm0 0"/><path fill="#c9c293" d="m191.902 215.656 14.953-.054-7.718 10.87Zm0 0"/><path fill="#d8c869" d="m218.324 194.684-30.605 5.199 9.437-22.324Zm0 0"/><path fill="#e4cc4a" d="m235.145 163.496-16.82 31.188-21.169-17.125Zm0 0"/><path fill="#efd12b" d="m260.578 233.05 13.629 12.11-19.27 3.445Zm0 0"/><path fill="#b98243" d="m368.871 221.691 15.086-12.359.055 38.012Zm0 0"/><path fill="#6a1d83" d="m384.02 309.375-.016 40.14-25.336-25.785Zm0 0"/><path fill="#fdd502" d="m345.469 327.203 10 16.52-18.258-1.22Zm0 0"/><path fill="#fed600" d="M319.742 358.441 341.156 384h-51.773Zm0 0"/><path fill="#fbd408" d="m226.84 349.828 23.496-1.164-21.348 15.426Zm0 0"/><path fill="#5d0d8e" d="m346.746 288.316-36.176 2.102 11.47-14.637Zm0 0"/><path fill="#fad50c" d="M99.227-.004 157.582 0l-17.555 45.21Zm0 0"/><path fill="#f5d31a" d="m245.547 42.188 1.898 34.988-27.312-23.223Zm0 0"/><path fill="#d9c867" d="m199.816 91.95-23.261-36.99 43.578-1.007Zm0 0"/><path fill="#edd031" d="m176.555 54.96 33.59-28.269 9.988 27.262Zm0 0"/><path fill="#f3d21e" d="m210.145 26.691-33.59 28.27-5.446-18.738Zm0 0"/><path fill="#dbc962" d="m171.11 36.223 5.445 18.738-36.528-9.75Zm0 0"/><path fill="#f9d40f" d="m46.086 0 53.14-.004-32.394 34.899Zm0 0"/><path fill="#e4cc4a" d="m82.082 90.586-8.14-20.941 21.902 12.824Zm0 0"/><path fill="#fbd50a" d="M26.867 59.492.004 92.722 0 44.837Zm0 0"/><path fill="#d6c66b" d="M25.484 102.047.004 139.43V92.723Zm0 0"/><path fill="#d5c773" d="m.004 139.43 25.48-37.383 9.489 29.133Zm0 0"/><path fill="#946280" d="m87.332 175.691 24.508.356-17.098 20.871Zm0 0"/><path fill="#5b0a90" d="m102.418 163.75-21.68-6.926 21.559-16.12Zm0 0"/><path fill="#9f7888" d="m87.332 175.691 15.086-11.941 9.422 12.297Zm0 0"/><path fill="#5d0d8e" d="m102.418 163.75-15.086 11.941-6.594-18.867Zm0 0"/><path fill="#86426e" d="M-.004 327.309 32.625 322l2.473 21.95Zm0 0"/><path fill="#a66a52" d="m32.625 322 32.371 10.262-29.898 11.687Zm0 0"/><path fill="#b4875e" d="M64.996 332.262 32.625 322l32.707-5.055Zm0 0"/><path fill="#fed600" d="m79.43 372.34 15.297 11.664-32.36-.004Zm0 0"/><path fill="#fdd603" d="m0 376.324-.004-49.015 35.102 16.64Zm0 0"/><path fill="#f9d40f" d="m57.434 354.645 12.617 7.449-17.614 3.242Zm0 0"/><path fill="#fed600" d="M70.05 362.094 62.368 384l-9.93-18.664Zm0 0"/><path fill="#fed600" d="m70.05 362.094 9.38 10.246L62.367 384Zm0 0"/><path fill="#ae7348" d="m65.332 316.945 37.68 1.34-38.016 13.977Zm0 0"/><path fill="#cd9a2e" d="m103.012 318.285-37.68-1.34 29.867-17.89Zm0 0"/><path fill="#cbad5e" d="m-.02 197.086 17.665 17.297-17.653 57.11Zm0 0"/><path fill="#b58251" d="m53.45 196.723 3.812 23.554-39.617-5.894Zm0 0"/><path fill="#c19b5b" d="m-.008 271.492 19.125 1.453-19.12 54.364Zm0 0"/><path fill="#c6a866" d="M19.117 272.945 32.625 322l-32.629 5.309Zm0 0"/><path fill="#d0aa46" d="m32.625 322-13.508-49.055 46.215 44Zm0 0"/><path fill="#5b0a90" d="m124.402 360.938-34.922 1.257 24.825-19.5Zm0 0"/><path fill="#fed600" d="m94.727 384.004 29.675-23.067 13.2 23.063Zm0 0"/><path fill="#f9d40d" d="m94.727 384.004-5.247-21.809 34.922-1.257Zm0 0"/><path fill="#edd02f" d="m91.191 272.71-22.058 13.856-12.317-27.652Zm0 0"/><path fill="#a76d54" d="m84.16 243.52 7.031 29.19-34.375-13.796Zm0 0"/><path fill="#834178" d="m76.973 217.594 12.515 10.082-16.148 5.41Zm0 0"/><path fill="#deae1d" d="m118.516 284.816-15.504 33.47-7.813-19.231Zm0 0"/><path fill="#a98b91" d="m111.84 176.047-2.86 30.734-14.238-9.863Zm0 0"/><path fill="#cfba6d" d="m108.98 206.781 2.86-30.734 12.816 9.766Zm0 0"/><path fill="#fdd604" d="m384 151.035-29.195-37.578L384 101.027Zm0 0"/><path fill="#fed601" d="M354.805 113.457 384 151.035l-37.941-1.027Zm0 0"/><path fill="#5d0d8e" d="m354.805 113.457-24.07 7.64-1.532-19.488Zm0 0"/><path fill="#e7ce41" d="m286.172 116.457 14.11-18.894 8.046 13.07Zm0 0"/><path fill="#fcd605" d="m384 60.68-29.871-14.047L384 0Zm0 0"/><path fill="#fcd607" d="M360.61 78.473 384 60.68v40.347Zm0 0"/><path fill="#e9cf3a" d="m241.027 123.074 6.418-45.898 22.239 20.437Zm0 0"/><path fill="#f1d224" d="m282.816 147.082-41.789-24.008 45.145-6.617Zm0 0"/><path fill="#eed02d" d="m241.027 123.074 28.657-25.46 16.488 18.843Zm0 0"/><path fill="#a6694e" d="m332.934 59.16-16.559 23.762-13.29-23.926Zm0 0"/><path fill="#f4d117" d="M353.777 81.434 332.934 59.16l27.675 19.313Zm0 0"/><path fill="#641588" d="m353.777 81.434 1.028 32.023-25.602-11.848Zm0 0"/><path fill="#f5d217" d="m353.777 81.434 6.832-2.961-5.804 34.984Zm0 0"/><path fill="#5e0e8d" d="m316.375 82.922 37.402-1.488-24.574 20.175Zm0 0"/><path fill="#8b4667" d="m353.777 81.434-37.402 1.488 16.559-23.762Zm0 0"/><path fill="#d0c481" d="m152.148 215.176-12.234 4.058 3.559-17.488Zm0 0"/><path fill="#ccc389" d="m139.914 219.234-12.812-5.613 16.37-11.875Zm0 0"/><path fill="#cac290" d="m163.148 198.246-11 16.93-8.675-13.43Zm0 0"/><path fill="#5d0c8f" d="m152.148 215.176 11-16.93 7.938 26.84Zm0 0"/><path fill="#ccc28b" d="m163.148 198.246-19.675 3.5 18.632-24.098Zm0 0"/><path fill="#d2c579" d="m187.719 199.883-24.57-1.637-1.044-20.598Zm0 0"/><path fill="#cfc482" d="m127.102 213.621-2.446-27.809 18.817 15.934Zm0 0"/><path fill="#e1cb50" d="m185.332 141.523-23.227 36.125-23.316-26.402Zm0 0"/><path fill="#e5cd46" d="m162.105 177.648 23.227-36.125 11.824 36.036Zm0 0"/><path fill="#eacc32" d="m346.059 150.008-10.372 44.625-23.335-23.988Zm0 0"/><path fill="#cdc388" d="m310.57 290.418-15.312-8.703 26.781-5.934Zm0 0"/><path fill="#c7c097" d="m295.258 281.715 15.312 8.703-12.078 8.77Zm0 0"/><path fill="#dbc85f" d="m278.703 303.969 16.555-22.254 3.234 17.473Zm0 0"/><path fill="#d7c86c" d="m206.855 215.602-19.136-15.72 30.605-5.198Zm0 0"/><path fill="#d1c47a" d="m187.719 199.883 19.136 15.719-14.953.054Zm0 0"/><path fill="#c8c298" d="m228.785 233.5-21.93-17.898 11.47-20.918Zm0 0"/><path fill="#deca5a" d="m241.035 194.16-12.25 39.34-10.46-38.816Zm0 0"/><path fill="#5b0b90" d="m274.207 245.16 2.168-18.23 15.535 6.453Zm0 0"/><path fill="#5e0e8d" d="m276.375 226.93-2.168 18.23-13.629-12.11Zm0 0"/><path fill="#5b0a90" d="m293.828 253.734-19.621-8.574 17.703-11.777Zm0 0"/><path fill="#5f0f8d" d="m276.375 226.93-15.797 6.12 3.645-13.394Zm0 0"/><path fill="#f4d31c" d="m260.578 233.05-5.64 15.555-26.153-15.105Zm0 0"/><path fill="#dac965" d="m214.352 291.875-14.348-11.969 29.77-14.656Zm0 0"/><path fill="#d9c869" d="m211.813 250.73-11.81 29.176-3.628-25.664Zm0 0"/><path fill="#d3c679" d="m195.95 239.3 15.863 11.43-15.438 3.512Zm0 0"/><path fill="#e3cc4b" d="m211.813 250.73 16.972-17.23.988 31.75Zm0 0"/><path fill="#dfcb56" d="m200.004 279.906 11.809-29.176 17.96 14.52Zm0 0"/><path fill="#661988" d="m195.95 239.3-9.884-7.323 13.07-5.504Zm0 0"/><path fill="#5e0e8e" d="m186.066 231.977 5.836-16.32 7.235 10.816Zm0 0"/><path fill="#5c0c8f" d="m171.086 225.086 14.98 6.89-9.093 11.348Zm0 0"/><path fill="#5b0a90" d="m191.902 215.656-5.836 16.32-14.98-6.89Zm0 0"/><path fill="#f6d110" d="m309.473 324.215 35.996 2.988-8.258 15.3Zm0 0"/><path fill="#5d0c8f" d="m338.082 254.8 8.664 33.516-24.707-12.535Zm0 0"/><path fill="#fed600" d="m365.418 183.879-19.36-33.871L384 151.035Zm0 0"/><path fill="#5d0c8f" d="m384.004 349.516-28.535-5.793 3.199-19.993Zm0 0"/><path fill="#6d2180" d="m358.668 323.73-3.2 19.993-10-16.52Zm0 0"/><path fill="#f4ce14" d="m309.473 324.215-38.66 11.719 34.8-15.036Zm0 0"/><path fill="#fed600" d="m343.93 357.758 20.496 6.387L341.156 384Zm0 0"/><path fill="#fed600" d="m364.426 364.145-20.496-6.387 11.539-14.035ZM343.93 357.758 341.156 384l-21.414-25.559Zm0 0"/><path fill="#fed600" d="m355.469 343.723-11.54 14.035-6.718-15.254Zm0 0"/><path fill="#5c0c8f" d="m250.395 334.008-.06 14.656-23.495 1.164Zm0 0"/><path fill="#5b0a90" d="m250.395 334.008-23.555 15.82 4.05-23.066ZM345.469 327.203l-29.153-20.215 30.43-18.672Zm0 0"/><path fill="#5b0a90" d="m316.316 306.988-5.746-16.57 36.176-2.102ZM309.473 324.215l6.843-17.227 29.153 20.215Zm0 0"/><path fill="#5b0b90" d="m310.57 290.418 5.746 16.57-17.824-7.8Zm0 0"/><path fill="#fed600" d="M289.383 384H230.5l33.68-23.39Zm0 0"/><path fill="#fed600" d="m289.383 384-25.203-23.39 24.96-8.583Zm0 0"/><path fill="#f9d410" d="m210.145 26.691 35.402 15.497-25.414 11.765Zm0 0"/><path fill="#f1d126" d="m157.582 0 13.527 36.223-31.082 8.988Zm0 0"/><path fill="#deca5b" d="m123.188 84.035-22.364-34.078 39.203-4.746Zm0 0"/><path fill="#dbc962" d="m176.555 54.96-53.368 29.075 16.84-38.824Zm0 0"/><path fill="#e0cb53" d="M123.188 84.035 95.844 82.47l4.98-32.512Zm0 0"/><path fill="#e4cd48" d="m185.332 141.523-30.7-27.21 45.184-22.364Zm0 0"/><path fill="#d9c868" d="m154.633 114.313 21.922-59.352 23.261 36.988Zm0 0"/><path fill="#e3cc4c" d="m154.633 114.313 30.699 27.21-46.543 9.723Zm0 0"/><path fill="#f7d414" d="m28.129 28.629-1.262 30.863L0 44.836Zm0 0"/><path fill="#fdd605" d="M46.086 0 28.129 28.629.004 0Zm0 0"/><path fill="#f8d411" d="M28.129 28.629 0 44.836.004 0Zm0 0"/><path fill="#d9c866" d="m26.867 59.492-1.383 42.555-25.48-9.324Zm0 0"/><path fill="#e3cc4b" d="m82.082 90.586-22.3 3.504 14.16-24.445Zm0 0"/><path fill="#d2c579" d="m111.84 176.047 26.95-24.8-14.134 34.565Zm0 0"/><path fill="#deca58" d="m138.79 151.246 23.315 26.402-37.449 8.165Zm0 0"/><path fill="#eccf34" d="m90.594 96.102-8.512-5.516 13.762-8.117Zm0 0"/><path fill="#e6cc42" d="m104.258 101.215-13.664-5.113 5.25-13.633Zm0 0"/><path fill="#fed600" d="M52.438 365.336 0 376.324l35.098-32.375Zm0 0"/><path fill="#f4d21c" d="m57.434 354.645-4.996 10.69-17.34-21.386Zm0 0"/><path fill="#843e6c" d="m76.625 347.59-19.191 7.055 7.562-22.383Zm0 0"/><path fill="#894469" d="m76.625 347.59-6.574 14.504-12.617-7.45Zm0 0"/><path fill="#94525d" d="m103.402 330.82-26.777 16.77-11.629-15.328Zm0 0"/><path fill="#d1c57c" d="m.004 139.43 32.855 38.496-32.879 19.16Zm0 0"/><path fill="#bb8f59" d="m32.86 177.926-15.215 36.457L-.02 197.086Zm0 0"/><path fill="#c5994a" d="m17.645 214.383 15.214-36.457 20.59 18.797Zm0 0"/><path fill="#cea440" d="m65.332 316.945 3.8-30.379L95.2 299.055Zm0 0"/><path fill="#b9bcc0" d="m142.426 290.027 8.031-11.418 8.688 9.887Zm0 0"/><path fill="#b6b4bb" d="m150.566 270.398-.109 8.211-14.973-4.289Zm0 0"/><path fill="#b1abb6" d="m150.457 278.61-8.031 11.417-6.942-15.707Zm0 0"/><path fill="#915775" d="m68.031 205.441 12.39-.738-3.448 12.89Zm0 0"/><path fill="#a8715b" d="m68.031 205.441-10.77 14.836-3.812-23.554Zm0 0"/><path fill="#aa755e" d="m68.031 205.441 8.942 12.153-19.711 2.683Zm0 0"/><path fill="#956a8f" d="M80.422 204.703 90.617 214l-13.644 3.594Zm0 0"/><path fill="#9c7b9c" d="m90.617 214-1.129 13.676-12.515-10.082Zm0 0"/><path fill="#905e8a" d="m90.617 214-10.195-9.297 14.32-7.785Zm0 0"/><path fill="#d2c478" d="m127.102 213.621-18.122-6.84 15.676-20.969Zm0 0"/><path fill="#7c4495" d="m142.426 290.027-23.91-5.21 16.968-10.497Zm0 0"/><path fill="#62138c" d="m150.566 270.398-15.082 3.922.207-23.062Zm0 0"/><path fill="#fdd603" d="M312.707 28.152 384 0l-29.871 46.633Zm0 0"/><path fill="#fed601" d="m312.707 28.152-31.098 36.633L269.66 0Zm0 0"/><path fill="#fdd504" d="M312.707 28.152 269.66 0H384Zm0 0"/><path fill="#5b0a90" d="m330.734 121.098-10.183-3.489 8.652-16Zm0 0"/><path fill="#deca5a" d="m320.55 117.61-10.1 10.863-2.122-17.84Zm0 0"/><path fill="#d4b857" d="m315.938 102.938 4.613 14.671-12.223-6.976Zm0 0"/><path fill="#ddc858" d="m300.281 97.563 15.656 5.374-7.609 7.696Zm0 0"/><path fill="#5c0c8f" d="m316.375 82.922-.437 20.016-15.657-5.376Zm0 0"/><path fill="#5b0a90" d="m320.55 117.61-4.613-14.672 13.266-1.329Zm0 0"/><path fill="#5c0b90" d="m315.938 102.938.437-20.016 12.828 18.687Zm0 0"/><path fill="#deca59" d="m320.55 117.61 10.571 14.156-20.672-3.293Zm0 0"/><path fill="#b3855f" d="m331.121 131.766-10.57-14.157 10.183 3.489Zm0 0"/><path fill="#e2c53f" d="m315.957 146.234 30.102 3.774-33.707 20.637Zm0 0"/><path fill="#d2a73b" d="m315.957 146.234 15.164-14.468 14.938 18.242Zm0 0"/><path fill="#e0c951" d="m331.121 131.766-15.164 14.468-5.508-17.761Zm0 0"/><path fill="#fcd507" d="M354.129 46.633 384 60.68l-23.39 17.793Zm0 0"/><path fill="#9c5c58" d="m316.375 82.922-24.281-2.426 10.992-21.5Zm0 0"/><path fill="#5d0d8e" d="m292.094 80.496 24.281 2.426-16.094 14.64Zm0 0"/><path fill="#f3d21e" d="m247.445 77.176-1.898-34.988 36.062 22.597Zm0 0"/><path fill="#fdd605" d="m269.66 0 11.95 64.785-36.063-22.597Zm0 0"/><path fill="#d9c865" d="m241.035 194.16 29.7-13.055-15.747 27.278Zm0 0"/><path fill="#c4c0a1" d="m148.523 231.254-8.609-12.02 12.234-4.058Zm0 0"/><path fill="#ccc38b" d="m139.914 219.234-12.266 16.696-.546-22.309Zm0 0"/><path fill="#d2c477" d="m127.102 213.621.546 22.309-21.257-1.809Zm0 0"/><path fill="#cbc38e" d="m148.523 231.254-20.875 4.676 12.266-16.696Zm0 0"/><path fill="#5e0d8e" d="m179.828 210.191-16.68-11.945 24.57 1.637Zm0 0"/><path fill="#5b0b90" d="m179.828 210.191 12.074 5.465-20.816 9.43Zm0 0"/><path fill="#5b0a90" d="m163.148 198.246 16.68 11.945-8.742 14.895Zm0 0"/><path fill="#5c0b8f" d="m179.828 210.191 7.89-10.308 4.184 15.773Zm0 0"/><path fill="#daba44" d="m311.914 223.125 1.895-19.145 12.43 14.977Zm0 0"/><path fill="#e0c341" d="m335.688 194.633 5.832 25.105-15.282-.781Zm0 0"/><path fill="#e1c23f" d="m313.809 203.98 21.878-9.347-9.449 24.324Zm0 0"/><path fill="#e3be2d" d="m335.688 194.633-21.88 9.347-1.456-33.335Zm0 0"/><path fill="#dcb533" d="m365.418 183.879-29.73 10.754 10.37-44.625Zm0 0"/><path fill="#cc9d39" d="m335.688 194.633 29.73-10.754-11.34 31.508Zm0 0"/><path fill="#e0cb53" d="m211.813 250.73-4.403-18.054 21.375.824Zm0 0"/><path fill="#d0c581" d="m207.41 232.676 4.403 18.054-15.864-11.43Zm0 0"/><path fill="#c4c0a1" d="m207.41 232.676-11.46 6.625 3.187-12.828Zm0 0"/><path fill="#c7c19a" d="m206.855 215.602.555 17.074-8.273-6.203Zm0 0"/><path fill="#c4c0a3" d="m228.785 233.5-21.375-.824-.555-17.074Zm0 0"/><path fill="#60108c" d="m314.895 234.68-21.067 19.054-1.918-20.351Zm0 0"/><path fill="#9e6461" d="m321.762 254.313-6.867-19.633 8.367-3.875Zm0 0"/><path fill="#641688" d="m293.828 253.734 21.067-19.054 6.867 19.632Zm0 0"/><path fill="#b09386" d="m295.258 265.094-1.43-11.36 27.934.578Zm0 0"/><path fill="#c8b57a" d="m295.258 265.094 26.504-10.781.277 21.468Zm0 0"/><path fill="#d2c57c" d="M295.258 281.715v-16.621l26.781 10.687Zm0 0"/><path fill="#5f108c" d="m255.336 224.734-.348-16.351 9.235 11.273Zm0 0"/><path fill="#c4ba93" d="m148.523 231.254-12.832 20.004-8.043-15.328Zm0 0"/><path fill="#661b8c" d="m171.086 225.086-22.563 6.168 3.625-16.078Zm0 0"/><path fill="#c8bd8b" d="m179.988 263.8 6.746-17.144 9.641 7.586Zm0 0"/><path fill="#cbc390" d="m179.988 263.8 20.016 16.106-25.191.14Zm0 0"/><path fill="#d1c57c" d="m200.004 279.906-20.016-16.105 16.387-9.559Zm0 0"/><path fill="#61128a" d="m186.066 231.977.668 14.68-9.761-3.333Zm0 0"/><path fill="#62138b" d="m186.734 246.656-.668-14.68 9.883 7.325Zm0 0"/><path fill="#c9c190" d="m186.734 246.656 9.215-7.355.426 14.941Zm0 0"/><path fill="#c79437" d="m384.02 309.375-18.364-37.355 18.356-24.676Zm0 0"/><path fill="#5b0a90" d="m305.613 320.898 10.703-13.91-6.843 17.227Zm0 0"/><path fill="#6d2081" d="m346.746 288.316 11.922 35.414-13.2 3.473Zm0 0"/><path fill="#863f6a" d="m358.668 323.73-11.922-35.414 37.274 21.059Zm0 0"/><path fill="#8b4667" d="m346.746 288.316 18.91-16.296 18.364 37.355Zm0 0"/><path fill="#c9a85b" d="m321.762 254.313 16.32.488-16.043 20.98Zm0 0"/><path fill="#61128b" d="m338.082 254.8 27.574 17.22-18.91 16.296Zm0 0"/><path fill="#6d2180" d="m365.656 272.02-27.574-17.22 8.652-11.167Zm0 0"/><path fill="#884368" d="m365.48 240.906.176 31.114-18.922-28.387Zm0 0"/><path fill="#b47a42" d="m384.012 247.344-18.356 24.676-.176-31.114Zm0 0"/><path fill="#fed600" d="m383.957 209.332-18.539-25.453L384 151.035Zm0 0"/><path fill="#d8b23a" d="m335.688 194.633 18.39 20.754-12.558 4.351Zm0 0"/><path fill="#9a5959" d="m354.078 215.387 11.34-31.508 3.453 37.812Zm0 0"/><path fill="#c18a39" d="m365.418 183.879 18.539 25.453-15.086 12.36Zm0 0"/><path fill="#fed600" d="m341.156 384 23.27-19.855L384 384Zm0 0"/><path fill="#fed600" d="m364.426 364.145 19.578.75L384 384ZM384.004 364.895l-19.578-.75 19.578-14.63Zm0 0"/><path fill="#fed600" d="m364.426 364.145-8.957-20.422 28.535 5.793Zm0 0"/><path fill="#fcd506" d="m270.813 335.934 18.328 16.093-24.961 8.582Zm0 0"/><path fill="#fcd404" d="m289.14 352.027-18.327-16.093 38.66-11.72Zm0 0"/><path fill="#fed601" d="m319.742 358.441-10.27-34.226 27.739 18.289Zm0 0"/><path fill="#fed600" d="m343.93 357.758-24.188.683 17.469-15.937ZM319.742 358.441l-30.601-6.414 20.332-27.812Zm0 0"/><path fill="#5b0a90" d="m218.387 304.75 14.496 3.566-1.992 18.446Zm0 0"/><path fill="#f4d21d" d="m281.012 275.766-13.887 22.293-3.664-30.063Zm0 0"/><path fill="#fcd507" d="m267.125 298.059-18.621-9.602 14.957-20.46Zm0 0"/><path fill="#f2d221" d="m267.125 298.059 13.887-22.293-2.309 28.203Zm0 0"/><path fill="#d8c86b" d="m214.352 291.875-19.457 13.633 5.109-25.602Zm0 0"/><path fill="#c8c196" d="m194.895 305.508 19.457-13.633 4.035 12.875Zm0 0"/><path fill="#5b0b90" d="m194.895 305.508 23.492-.758 12.504 22.012Zm0 0"/><path fill="#c1bfa9" d="m190.254 327.8 4.64-22.292 35.997 21.254Zm0 0"/><path fill="#70257d" d="m103.402 330.82 27.38-6.675-16.477 18.55Zm0 0"/><path fill="#c48f38" d="m130.781 324.145-27.379 6.675-.39-12.535Zm0 0"/><path fill="#fed600" d="m230.5 384-1.512-19.91 35.192-3.48Zm0 0"/><path fill="#fdd605" d="m264.18 360.61-35.192 3.48 21.348-15.426Zm0 0"/><path fill="#edd02f" d="M100.824 49.957 99.227-.003l40.8 45.214Zm0 0"/><path fill="#f5d31b" d="m99.227-.004 1.597 49.961-33.992-15.062Zm0 0"/><path fill="#fdd604" d="M210.145 26.691 157.582 0H269.66Zm0 0"/><path fill="#fed602" d="M245.547 42.188 210.145 26.69 269.66 0Zm0 0"/><path fill="#fdd605" d="M171.11 36.223 157.581 0l52.563 26.691Zm0 0"/><path fill="#874371" d="m125.305 110.117-14.22 12.242-6.827-21.144Zm0 0"/><path fill="#d6c770" d="m126.191 130.61-.886-20.493 29.328 4.195Zm0 0"/><path fill="#c29f60" d="m111.086 122.36 14.219-12.243.886 20.492Zm0 0"/><path fill="#c8c295" d="m154.633 114.313-16.73-19.981 38.652-39.371Zm0 0"/><path fill="#d1c57e" d="m137.902 94.332-14.714-10.297 53.367-29.074Zm0 0"/><path fill="#d2c67b" d="m125.305 110.117 12.597-15.785 16.73 19.98Zm0 0"/><path fill="#f9d50e" d="M66.832 34.895 26.867 59.492 28.13 28.63Zm0 0"/><path fill="#cfbb6f" d="m117.84 149.879 20.95 1.367-26.95 24.8Zm0 0"/><path fill="#9a6e88" d="m102.418 163.75 15.422-13.871-6 26.168Zm0 0"/><path fill="#ccb060" d="m117.84 149.879 8.351-19.27 12.598 20.637Zm0 0"/><path fill="#5c0b90" d="m80.738 156.824-5.437-17.09 26.996.97Zm0 0"/><path fill="#ebcf36" d="m90.594 96.102-10.035 7.851 1.523-13.367Zm0 0"/><path fill="#641688" d="m102.297 140.703 8.789-18.344 15.105 8.25Zm0 0"/><path fill="#5f0f8d" d="m117.84 149.879-15.543-9.176 23.894-10.094Zm0 0"/><path fill="#5c0b8f" d="m102.297 140.703 15.543 9.176-15.422 13.871Zm0 0"/><path fill="#641588" d="m114.305 342.695-37.68 4.895 26.777-16.77Zm0 0"/><path fill="#d3c676" d="m40.855 153.52-7.996 24.406L.004 139.43Zm0 0"/><path fill="#edcd2c" d="m69.133 286.566 22.058-13.855 4.008 26.344Zm0 0"/><path fill="#e2b622" d="m91.191 272.71 27.325 12.106-23.317 14.239Zm0 0"/><path fill="#681c86" d="M118.516 284.816 91.19 272.711l16.157-10.184Zm0 0"/><path fill="#cdbb78" d="M69.844 186.18 68 170.86l19.332 4.831Zm0 0"/><path fill="#936285" d="m69.844 186.18 17.488-10.489 7.41 21.227Zm0 0"/><path fill="#885088" d="M80.422 204.703 69.844 186.18l24.898 10.738Zm0 0"/><path fill="#651788" d="m68 170.86 12.738-14.036 6.594 18.867Zm0 0"/><path fill="#631589" d="M80.738 156.824 68 170.86l-8.812-12.851Zm0 0"/><path fill="#60108c" d="m75.3 139.734 5.438 17.09-21.55 1.184Zm0 0"/><path fill="#aa97a6" d="M90.617 214 98 220.73l-8.512 6.946Zm0 0"/><path fill="#cfc482" d="m106.39 234.121 2.59-27.34 18.122 6.84Zm0 0"/><path fill="#bab4a9" d="m98 220.73 8.39 13.391-16.902-6.445Zm0 0"/><path fill="#c1b99e" d="M106.39 234.121 98 220.731l10.98-13.95Zm0 0"/><path fill="#7c387f" d="m95.516 244.023-11.356-.503 5.328-15.844Zm0 0"/><path fill="#b6a69c" d="m95.516 244.023 10.875-9.902.957 28.406Zm0 0"/><path fill="#ad99a2" d="m106.39 234.121-10.874 9.902-6.028-16.347Zm0 0"/><path fill="#b39f97" d="M108.98 206.781 90.617 214l4.125-17.082Zm0 0"/><path fill="#b8aea4" d="M108.98 206.781 98 220.731 90.617 214Zm0 0"/><path fill="#fdd603" d="m331.121 131.766 23.684-18.309-8.746 36.55Zm0 0"/><path fill="#f5cf11" d="m331.121 131.766-.387-10.668 24.07-7.641Zm0 0"/><path fill="#f2d222" d="m282.816 147.082 33.141-.848-3.605 24.41Zm0 0"/><path fill="#eccf33" d="m270.734 181.105 12.082-34.023 29.536 23.563Zm0 0"/><path fill="#f1d126" d="m315.957 146.234-33.14.848 27.632-18.61Zm0 0"/><path fill="#dfb82d" d="m302.078 212.762 11.73-8.782-1.894 19.145Zm0 0"/><path fill="#904f66" d="m302.078 212.762 9.836 10.363-20.004 10.258Zm0 0"/><path fill="#651787" d="m276.375 226.93 25.703-14.168-10.168 20.62Zm0 0"/><path fill="#d5be61" d="m311.914 223.125 14.324-4.168-2.976 11.848Zm0 0"/><path fill="#c39a53" d="m314.895 234.68-2.98-11.555 11.347 7.68Zm0 0"/><path fill="#89456a" d="m311.914 223.125 2.98 11.555-22.984-1.297Zm0 0"/><path fill="#e3cc4c" d="m281.012 275.766 14.246 5.949-16.555 22.254Zm0 0"/><path fill="#e2cc4f" d="m281.012 275.766 14.246-10.672v16.62Zm0 0"/><path fill="#dac865" d="m228.785 233.5 12.25-39.34 13.953 14.223Zm0 0"/><path fill="#d5c774" d="m255.336 224.734-26.55 8.766 26.202-25.117Zm0 0"/><path fill="#e7cd42" d="m255.336 224.734 5.242 8.317-31.793.449Zm0 0"/><path fill="#5c0c8f" d="m260.578 233.05-5.242-8.316 8.887-5.078Zm0 0"/><path fill="#5b0a90" d="m135.691 251.258 25.051-2.738-10.176 21.878Zm0 0"/><path fill="#62148c" d="m160.742 248.52-25.05 2.738 12.831-20.004Zm0 0"/><path fill="#5b0a90" d="m171.086 225.086-10.344 23.434-12.219-17.266Zm0 0"/><path fill="#babcbf" d="m150.457 278.61 12.258-6.22-3.57 16.106Zm0 0"/><path fill="#bcbdb6" d="m162.715 272.39 12.097 7.657-15.667 8.45Zm0 0"/><path fill="#b9bbbd" d="m162.715 272.39-12.258 6.22.11-8.212Zm0 0"/><path fill="#5b0b90" d="m160.742 248.52 1.973 23.87-12.149-1.992Zm0 0"/><path fill="#5d0d8e" d="m316.316 306.988-14.25 2.875-3.574-10.675Zm0 0"/><path fill="#5c0c8f" d="m305.613 320.898-3.547-11.035 14.25-2.875Zm0 0"/><path fill="#c09b60" d="m331.922 232.781-10.16 21.531 1.5-23.507Zm0 0"/><path fill="#a16d69" d="m331.922 232.781 6.16 22.02-16.32-.488Zm0 0"/><path fill="#b2835d" d="m338.082 254.8-6.16-22.019 14.812 10.852Zm0 0"/><path fill="#cac08b" d="m326.238 218.957 5.684 13.824-8.66-1.976Zm0 0"/><path fill="#d3c26f" d="m331.922 232.781-5.684-13.824 15.282.781Zm0 0"/><path fill="#7b3374" d="m346.734 243.633 4.375-15.098 14.371 12.371Zm0 0"/><path fill="#8a4566" d="m365.48 240.906-14.37-12.37 17.761-6.845Zm0 0"/><path fill="#8c4765" d="m351.11 228.535 2.968-13.148 14.793 6.304Zm0 0"/><path fill="#d5b042" d="m354.078 215.387-2.969 13.148-9.59-8.797Zm0 0"/><path fill="#d5c063" d="m351.11 228.535-19.188 4.246 9.598-13.043Zm0 0"/><path fill="#d3b95d" d="m331.922 232.781 19.187-4.246-4.375 15.098Zm0 0"/><path fill="#c3bb9b" d="m251.71 315.824-1.315 18.184-19.504-7.246Zm0 0"/><path fill="#5b0a90" d="m232.883 308.316 18.828 7.508-20.82 10.938Zm0 0"/><path fill="#e5cd45" d="m278.703 303.969-7.89 31.965-19.102-20.11Zm0 0"/><path fill="#fdd605" d="m258.074 345.277 6.106 15.332-13.844-11.945Zm0 0"/><path fill="#e3b71e" d="m258.074 345.277 12.738-9.343-6.632 24.675Zm0 0"/><path fill="#cac291" d="m230.977 293.715 1.906 14.601-14.496-3.566Zm0 0"/><path fill="#e5cd47" d="m230.977 293.715-16.625-1.84 15.421-26.625Zm0 0"/><path fill="#cac291" d="m214.352 291.875 16.625 1.84-12.59 11.035Zm0 0"/><path fill="#e7cd41" d="m267.125 298.059 11.578 5.91-26.992 11.855Zm0 0"/><path fill="#fed600" d="m199.203 367.566 29.785-3.476L230.5 384Zm0 0"/><path fill="#5c0c8f" d="m226.84 349.828-24.383-6.574 28.434-16.492Zm0 0"/><path fill="#af8a78" d="M202.457 343.254 190.254 327.8l40.637-1.04Zm0 0"/><path fill="#fdd603" d="m124.402 360.938 26.47-1.508-13.27 24.57Zm0 0"/><path fill="#5e0e8d" d="m148.965 353.7 1.906 5.73-26.469 1.507Zm0 0"/><path fill="#fed600" d="M150.871 359.43 177.363 384h-39.761Zm0 0"/><path fill="#f4d119" d="m148.488 340.906 3.817-8.894 7.09 5.281Zm0 0"/><path fill="#cbc38d" d="m176.543 296.145-1.73-16.098 25.19-.14Zm0 0"/><path fill="#bdbeb5" d="m174.813 280.047 1.73 16.098-17.398-7.649Zm0 0"/><path fill="#c7c097" d="m190.484 304.766 4.41.742-4.64 22.293Zm0 0"/><path fill="#c8c298" d="m194.895 305.508-4.41-.742 9.519-24.86Zm0 0"/><path fill="#cac292" d="m190.484 304.766-13.941-8.621 23.46-16.239Zm0 0"/><path fill="#5b0a90" d="m152.305 332.012 13.027-21.817-5.937 27.098Zm0 0"/><path fill="#5b0a90" d="m144.3 313.805 21.032-3.61-13.027 21.817Zm0 0"/><path fill="#c8ae6a" d="m130.781 324.145 13.52-10.34 8.004 18.207Zm0 0"/><path fill="#61128b" d="m148.488 340.906-17.707-16.761 21.524 7.867Zm0 0"/><path fill="#dfaf1d" d="m118.516 284.816 14.648 18.211-30.152 15.258Zm0 0"/><path fill="#c09046" d="m133.164 303.027-2.383 21.118-27.77-5.86Zm0 0"/><path fill="#e1c340" d="m130.781 324.145 2.383-21.118 11.137 10.778Zm0 0"/><path fill="#62138c" d="m142.426 290.027-9.262 13-14.648-18.21Zm0 0"/><path fill="#5c0c8f" d="m142.426 290.027 9.66 8.532-18.922 4.468ZM152.086 298.559l-7.785 15.246-11.137-10.778Zm0 0"/><path fill="#5b0a90" d="m152.086 298.559 13.246 11.636-21.031 3.61Zm0 0"/><path fill="#9e88af" d="m152.086 298.559-9.66-8.532 16.719-1.53Zm0 0"/><path fill="#dac257" d="m123.188 84.035 2.117 26.082-21.047-8.902Zm0 0"/><path fill="#e5cd46" d="m123.188 84.035-18.93 17.18-8.414-18.746Zm0 0"/><path fill="#d6c76e" d="m123.188 84.035 14.714 10.297-12.597 15.785Zm0 0"/><path fill="#e1cb51" d="M73.941 69.645 26.867 59.492l39.965-24.597Zm0 0"/><path fill="#e4cc49" d="m73.941 69.645-7.109-34.75 33.992 15.062Zm0 0"/><path fill="#e5cc44" d="m25.484 102.047 1.383-42.555L59.781 94.09Zm0 0"/><path fill="#e3cc4b" d="M59.781 94.09 26.867 59.492l47.074 10.153Zm0 0"/><path fill="#d3c576" d="m32.86 177.926 7.995-24.406 10.926 24.664Zm0 0"/><path fill="#d7c76d" d="M51.781 178.184 40.855 153.52l18.333 4.488Zm0 0"/><path fill="#5c0b8f" d="m102.297 140.703-10.137-23.45 18.926 5.106Zm0 0"/><path fill="#5b0b90" d="m92.16 117.254 10.137 23.45-26.996-.97Zm0 0"/><path fill="#6c2082" d="m111.086 122.36-18.926-5.106 12.098-16.04Zm0 0"/><path fill="#651787" d="m92.16 117.254-16.86 22.48-8.882-20.054Zm0 0"/><path fill="#7b367c" d="m80.559 103.953 11.601 13.3-25.742 2.427Zm0 0"/><path fill="#782e77" d="m92.16 117.254-1.566-21.152 13.664 5.113Zm0 0"/><path fill="#8b496c" d="m92.16 117.254-11.601-13.3 10.035-7.852Zm0 0"/><path fill="#5c0c8f" d="m114.305 342.695-24.825 19.5-12.855-14.605Zm0 0"/><path fill="#fed601" d="m79.43 372.34 10.05-10.145 5.247 21.809Zm0 0"/><path fill="#fdd605" d="m70.05 362.094 19.43.101-10.05 10.145Zm0 0"/><path fill="#651787" d="m76.625 347.59 12.855 14.605-19.43-.101Zm0 0"/><path fill="#986781" d="m68.031 205.441 1.813-19.261 10.578 18.523Zm0 0"/><path fill="#99606e" d="M69.844 186.18 68.03 205.44l-14.582-8.718Zm0 0"/><path fill="#b19181" d="m51.781 178.184 18.063 7.996-16.395 10.543Zm0 0"/><path fill="#6c1f83" d="m91.191 272.71 4.325-28.687 11.832 18.504Zm0 0"/><path fill="#803a74" d="m95.516 244.023-4.325 28.688-7.03-29.191Zm0 0"/><path fill="#f2d223" d="m247.445 77.176 28.934 6.18-6.695 14.257Zm0 0"/><path fill="#edd02f" d="m247.445 77.176 34.164-12.39-5.23 18.57Zm0 0"/><path fill="#eed02e" d="m269.684 97.613 14.613-3.343 1.875 22.187Zm0 0"/><path fill="#e9ce3c" d="m284.297 94.27 15.984 3.293-14.11 18.894Zm0 0"/><path fill="#742c7e" d="m284.297 94.27 7.797-13.774 8.187 17.067Zm0 0"/><path fill="#deb831" d="m302.078 212.762-7.746-15.797 19.477 7.015Zm0 0"/><path fill="#dcbd43" d="m313.809 203.98-19.477-7.015 18.02-26.32Zm0 0"/><path fill="#dfc143" d="m294.332 196.965-23.598-15.86 41.618-10.46Zm0 0"/><path fill="#5c0c8f" d="m254.988 208.383 39.344-11.418-30.11 22.691Zm0 0"/><path fill="#5c0b8f" d="m270.734 181.105 23.598 15.86-39.344 11.418Zm0 0"/><path fill="#691b84" d="m294.332 196.965-17.957 29.965-12.152-7.274Zm0 0"/><path fill="#86416d" d="m294.332 196.965 7.746 15.797-25.703 14.168Zm0 0"/><path fill="#f6d318" d="m274.207 245.16-10.746 22.836-8.524-19.39Zm0 0"/><path fill="#5e0e8d" d="m176.973 243.324-16.23 5.196 10.343-23.434Zm0 0"/><path fill="#e6cd42" d="m287.148 311.7-16.336 24.234 7.891-31.965Zm0 0"/><path fill="#ddc95b" d="m287.148 311.7-8.445-7.731 19.79-4.781Zm0 0"/><path fill="#5e0e8e" d="m270.813 335.934 16.335-24.235 18.465 9.2Zm0 0"/><path fill="#5d0d8e" d="m287.148 311.7 14.918-1.837 3.547 11.035Zm0 0"/><path fill="#5e0f8e" d="m302.066 309.863-14.918 1.836 11.344-12.512Zm0 0"/><path fill="#5b0a90" d="m258.074 345.277-7.68-11.27 20.418 1.927Zm0 0"/><path fill="#c5be9a" d="m250.395 334.008 1.316-18.184 19.101 20.11Zm0 0"/><path fill="#5b0a90" d="m250.395 334.008 7.68 11.27-7.74 3.386Zm0 0"/><path fill="#eacf38" d="m230.977 293.715-1.204-28.465 18.73 23.207Zm0 0"/><path fill="#f7d413" d="m248.504 288.457-18.73-23.207 33.687 2.746Zm0 0"/><path fill="#f8d411" d="m254.938 248.605-25.165 16.645-.988-31.75Zm0 0"/><path fill="#f9d50d" d="m229.773 265.25 25.165-16.645 8.523 19.391Zm0 0"/><path fill="#5b0a90" d="m246.895 301.875 4.816 13.95-18.828-7.509Zm0 0"/><path fill="#d3c677" d="m267.125 298.059-20.23 3.816 1.609-13.418Zm0 0"/><path fill="#5b0a90" d="m246.895 301.875 20.23-3.816-15.414 17.765Zm0 0"/><path fill="#cdc386" d="m246.895 301.875-15.918-8.16 17.527-5.258Zm0 0"/><path fill="#c5bd99" d="m230.977 293.715 15.918 8.16-14.012 6.441Zm0 0"/><path fill="#fed600" d="m177.363 384 21.84-16.434L230.5 384Zm0 0"/><path fill="#fed600" d="M199.203 367.566 177.363 384l8.301-25.078Zm0 0"/><path fill="#fcd505" d="m200.32 352.559 26.52-2.73 2.148 14.26Zm0 0"/><path fill="#fed601" d="m199.203 367.566 1.117-15.007 28.668 11.53Zm0 0"/><path fill="#fad409" d="m200.32 352.559 2.137-9.305 24.383 6.574Zm0 0"/><path fill="#fed601" d="m200.32 352.559-1.117 15.007-13.539-8.644Zm0 0"/><path fill="#bebbab" d="m180.68 330-2.266-12.98 11.84 10.78Zm0 0"/><path fill="#c4c0a1" d="m178.414 317.02 12.07-12.254-.23 23.035Zm0 0"/><path fill="#c6c19b" d="m190.484 304.766-12.07 12.254-1.871-20.875Zm0 0"/><path fill="#bdbdb4" d="m178.414 317.02-13.082-6.825 11.211-14.05Zm0 0"/><path fill="#5b0a90" d="M178.414 317.02 180.68 330l-21.285 7.293ZM165.332 310.195l13.082 6.825-19.02 20.273Zm0 0"/><path fill="#fbd508" d="m160.555 352.031-12.067-11.125 10.907-3.613Zm0 0"/><path fill="#fed600" d="m160.555 352.031 25.11 6.89L177.362 384Zm0 0"/><path fill="#fcd606" d="m148.488 340.906 12.067 11.125-11.59 1.668Zm0 0"/><path fill="#fed600" d="m150.871 359.43 9.684-7.399L177.363 384Zm0 0"/><path fill="#fbd408" d="m160.555 352.031-9.684 7.399-1.906-5.73Zm0 0"/><path fill="#752b7a" d="m132.219 346.617-1.438-22.472 17.707 16.761Zm0 0"/><path fill="#5c0b90" d="m132.219 346.617 16.27-5.71.476 12.792Zm0 0"/><path fill="#6c1f81" d="m130.781 324.145 1.438 22.472-17.914-3.922Zm0 0"/><path fill="#5c0b90" d="m132.219 346.617-7.817 14.32-10.097-18.242Zm0 0"/><path fill="#5b0a90" d="m132.219 346.617 16.746 7.082-24.563 7.238Zm0 0"/><path fill="#babcbb" d="m165.332 310.195-2.586-11.847 13.797-2.203Zm0 0"/><path fill="#b7bac1" d="m152.086 298.559 10.66-.211 2.586 11.847Zm0 0"/><path fill="#babdbc" d="m176.543 296.145-13.797 2.203-3.601-9.852Zm0 0"/><path fill="#b4b4bf" d="m162.746 298.348-10.66.21 7.059-10.062Zm0 0"/><path fill="#e1cb51" d="M48.473 118.453 59.78 94.09l6.637 25.59Zm0 0"/><path fill="#e8ce3e" d="m59.781 94.09 20.778 9.863-14.141 15.727Zm0 0"/><path fill="#e9ce3b" d="M80.559 103.953 59.78 94.09l22.301-3.504Zm0 0"/><path fill="#dfcb56" d="m25.484 102.047 22.989 16.406-13.5 12.727Zm0 0"/><path fill="#e0cb53" d="m48.473 118.453-22.989-16.406 34.297-7.957Zm0 0"/><path fill="#a36c62" d="m32.86 177.926 18.921.258 1.668 18.539Zm0 0"/><path fill="#dbc961" d="M55.07 136.824 40.855 153.52l-5.882-22.34Zm0 0"/><path fill="#6f237f" d="m55.07 136.824 20.23 2.91-16.112 18.274Zm0 0"/><path fill="#dbc860" d="m40.855 153.52 14.215-16.696 4.118 21.184Zm0 0"/><path fill="#d7c569" d="m68 170.86-16.219 7.324 7.407-20.176Zm0 0"/><path fill="#cec07e" d="m68 170.86 1.844 15.32-18.063-7.996Zm0 0"/><path fill="#ae7650" d="m276.379 83.355 5.23-18.57 10.485 15.711Zm0 0"/><path fill="#daba45" d="m284.297 94.27-7.918-10.915 15.715-2.859Zm0 0"/><path fill="#f2d222" d="m276.379 83.355 7.918 10.915-14.613 3.343Zm0 0"/><path fill="#5e0f8e" d="m293.828 253.734-8.812 4.856-10.809-13.43Zm0 0"/><path fill="#f5d319" d="m285.016 258.59-21.555 9.406 10.746-22.836Zm0 0"/><path fill="#f7d415" d="m263.46 267.996 21.556-9.406-4.004 17.176Zm0 0"/><path fill="#814282" d="m295.258 265.094-10.242-6.504 8.812-4.856Zm0 0"/><path fill="#e6cd45" d="m281.012 275.766 4.004-17.176 10.242 6.504Zm0 0"/><path fill="#5c0b8f" d="m176.973 243.324.886 19.281-17.117-14.085Zm0 0"/><path fill="#bfbdad" d="m162.715 272.39 15.144-9.785-3.047 17.442Zm0 0"/><path fill="#5b0a90" d="m177.86 262.605-15.145 9.786-1.973-23.871Zm0 0"/><path fill="#5d0d8e" d="m177.86 262.605-.887-19.28 9.761 3.331Zm0 0"/><path fill="#5f108f" d="m179.988 263.8-2.129-1.195 8.875-15.949Zm0 0"/><path fill="#c7c199" d="m174.813 280.047 3.046-17.442 2.13 1.196Zm0 0"/><path fill="#f6d00f" d="m200.32 352.559-15.933-11.352 18.07 2.047Zm0 0"/><path fill="#5c0b8f" d="m202.457 343.254-18.07-2.047 5.867-13.406Zm0 0"/><path fill="#5e0e8e" d="M184.387 341.207 180.68 330l9.574-2.2Zm0 0"/><path fill="#fcd405" d="m184.387 341.207 15.933 11.352-14.656 6.363Zm0 0"/><path fill="#fdd604" d="m160.555 352.031 23.832-10.824 1.277 17.715Zm0 0"/><path fill="#5c0b90" d="m180.68 330 3.707 11.207-24.992-3.914Zm0 0"/><path fill="#f7d00d" d="m184.387 341.207-23.832 10.824-1.16-14.738Zm0 0"/><path fill="#74297b" d="m55.07 136.824 11.348-17.144 8.883 20.054Zm0 0"/><path fill="#dfca58" d="m48.473 118.453 6.597 18.371-20.097-5.644Zm0 0"/><path fill="#ddca5c" d="M66.418 119.68 55.07 136.824l-6.597-18.37Zm0 0"/><path fill="#b4a5a1" d="m118.79 258.16-.274 26.656-11.168-22.289Zm0 0"/><path fill="#885796" d="m118.516 284.816.273-26.656 16.695 16.16Zm0 0"/><path fill="#7f448d" d="m118.79 258.16 16.901-6.902-.207 23.062Zm0 0"/><path fill="#ccc28a" d="m106.39 234.121 12.4 24.04-11.442 4.366Zm0 0"/><path fill="#cbc18a" d="m127.648 235.93-8.859 22.23-12.398-24.039Zm0 0"/><path fill="#bdb29b" d="m135.691 251.258-16.902 6.902 8.86-22.23Zm0 0"/></svg>