<svg xmlns="http://www.w3.org/2000/svg" width="512" height="512" viewBox="0 0 384 384"><path fill="#fefaeb" d="M97.762 64.883 55.676 58.05l46.48-18.27Zm0 0"/><path fill="#fdc300" d="M302.527 60.367 292.023 32.61l58.47 7.618Zm0 0"/><path fill="#fdc200" d="m292.023 32.61 10.504 27.757-17.918 3.508Zm0 0"/><path fill="#fefcf5" d="m218.766 90.031 50.027 31.621-64.14 22.578Zm0 0"/><path fill="#716422" d="m370.91 218.277 13.094 35.786-20.227-2.989Zm0 0"/><path fill="#f3c630" d="M118.871-.004h33.848L121.96 7.781Zm0 0"/><path fill="#fefefb" d="m218.766 90.031-48.098-21.21 39.48-16.15Zm0 0"/><path fill="#fdf6de" d="m79.36 12.852-21.723 21L30.648 15.48Zm0 0"/><path fill="#d8c787" d="M27.383 159.008.059 150.21l30.07-7.527Zm0 0"/><path fill="#323a33" d="M62.426 301.316.012 262.262l53.136-22.574Zm0 0"/><path fill="#504e2a" d="m.012 262.262 28.914-46.653 24.222 24.078Zm0 0"/><path fill="#0c203a" d="M97.102 238.68 77.64 268.473l-24.493-28.786Zm0 0"/><path fill="#212e35" d="m28.926 215.61 19.734-2.173 4.488 26.25Zm0 0"/><path fill="#172738" d="m48.66 213.438 25.7-3.262-21.212 29.512Zm0 0"/><path fill="#fec300" d="m370.04 125.434-1.388 30.636-16.25-1.535Zm0 0"/><path fill="#fcc200" d="m370.04 125.434 1.75-48.2L384 79.855Zm0 0"/><path fill="#fac101" d="m346.664 52.766-44.137 7.601 47.965-20.14Zm0 0"/><path fill="#fefaea" d="m268.793 121.652-21.219 53.797-42.922-31.219Zm0 0"/><path fill="#f4f0e1" d="m247.574 175.45 21.219-53.798 17.777 51.024Zm0 0"/><path fill="#1b2a38" d="m155.258 216.871 20.012-1.402-20.59 13.828Zm0 0"/><path fill="#f1dd98" d="m198.098 181.715-5.371 7.015-23.61-14.601Zm0 0"/><path fill="#e7dfc4" d="m200.879 210.3 12.855-7.058-9.5 22.77Zm0 0"/><path fill="#faeab5" d="m198.098 181.715 6.554-37.485 22.387 47.465Zm0 0"/><path fill="#f1df9f" d="m192.727 188.73 5.37-7.015 15.637 21.527Zm0 0"/><path fill="#fefefe" d="m265.86 243.605 10.074 9.899-14.391 12.871Zm0 0"/><path fill="#fbf7e9" d="m183.719 285.922 19.18 7.121-12.77 12.398Zm0 0"/><path fill="#726522" d="m370.91 218.277 13.07-6.87.024 42.655Zm0 0"/><path fill="#0b1f3b" d="m358.316 322.453-.796 22.879-9.829-14.504Zm0 0"/><path fill="#736623" d="m222.395 346 28.265 1.762-32.035 14.718Zm0 0"/><path fill="#081d3b" d="m360.316 282.95-29.902 22.71-2.3-28.12Zm0 0"/><path fill="#f9c30e" d="M96.875 12.254 118.871-.004l3.09 7.785Zm0 0"/><path fill="#fbc308" d="M118.871-.004 96.875 12.254 81.52 0Zm0 0"/><path fill="#fefefc" d="m218.766 90.031-8.618-37.36 25.266 6.645Zm0 0"/><path fill="#fefefd" d="m235.414 59.316-25.266-6.644 21.18-17.02Zm0 0"/><path fill="#fec302" d="M192.883 20.742 152.719-.004l80.75.004Zm0 0"/><path fill="#fefefc" d="m170.668 68.82 14.61-30.742 24.87 14.594Zm0 0"/><path fill="#fefcf7" d="m170.668 68.82-32.164 6.672-7.387-16.242Zm0 0"/><path fill="#fefcf5" d="m142.102 36.918 28.566 31.902-39.55-9.57Zm0 0"/><path fill="#fefefb" d="m170.668 68.82-28.566-31.902 43.175 1.16Zm0 0"/><path fill="#fefaee" d="m97.762 64.883 19.234 18.133-24.176 2.941Zm0 0"/><path fill="#fac209" d="M24.285 0H81.52L30.648 15.48Zm0 0"/><path fill="#f9c209" d="m81.52 0-2.16 12.852-48.712 2.628Zm0 0"/><path fill="#fef7de" d="m28.3 37.453 29.337-3.601-1.961 24.199Zm0 0"/><path fill="#fef7e1" d="m28.3 37.453 2.348-21.973 26.989 18.372Zm0 0"/><path fill="#fef8e5" d="m-.004 60.86 28.305-23.407 27.375 20.598Zm0 0"/><path fill="#fefaea" d="M77.758 80.438 55.676 58.05l42.086 6.832Zm0 0"/><path fill="#fef9e9" d="M77.758 80.438 60.46 91.316l-4.785-33.265Zm0 0"/><path fill="#fef8e1" d="m77.758 80.438 20.004-15.555-4.942 21.074Zm0 0"/><path fill="#fbf2d1" d="M26.582 98.883.059 150.21l-.063-54.89Zm0 0"/><path fill="#fbf0ca" d="m.059 150.21 26.523-51.327 3.547 43.8Zm0 0"/><path fill="#f5e3a8" d="m113.719 176.992 22.316-9.133 1.559 29.418Zm0 0"/><path fill="#a19661" d="m85.508 171.32 28.21 5.672-21.534 13.793Zm0 0"/><path fill="#f6e097" d="m115.469 164.34 20.566 3.52-22.316 9.132Zm0 0"/><path fill="#4b4f3f" d="m85.508 171.32 29.96-6.98-1.75 12.652Zm0 0"/><path fill="#081d3b" d="m115.469 164.34-29.961 6.98 8.601-19.547Zm0 0"/><path fill="#fac30c" d="m.012 328.91 20.636 8.344L0 351.086Zm0 0"/><path fill="#122339" d="m38.512 323.297-38.5 5.613-.047-14.543Zm0 0"/><path fill="#112339" d="m20.648 337.254 17.864-13.957-2.946 25.52Zm0 0"/><path fill="#102239" d="m38.512 323.297-17.864 13.957L.012 328.91Zm0 0"/><path fill="#fdc404" d="m.008 384.004 80.101-.008 84.114-.008Zm0 0"/><path fill="#fec405" d="m0 351.086 20.984 8.906L.008 384.004Zm0 0"/><path fill="#fcc307" d="m20.984 359.992-.336-22.738 14.918 11.562Zm0 0"/><path fill="#fec403" d="m20.648 337.254.336 22.738L0 351.086Zm0 0"/><path fill="#fdc50a" d="m35.566 348.816 44.543 35.18-59.125-24.004Zm0 0"/><path fill="#fec405" d="m80.11 383.996-80.102.008 20.976-24.012Zm0 0"/><path fill="#54512b" d="m62.426 301.316 24.37 38.872-48.284-16.891Zm0 0"/><path fill="#a58716" d="m86.797 340.188-24.371-38.872 50.847-17.753Zm0 0"/><path fill="#5c5628" d="m.004 200.16 28.922 15.45L.012 262.261Zm0 0"/><path fill="#333a31" d="m48.66 213.438-9.937-16.473 21.25-3.48Zm0 0"/><path fill="#3e412f" d="m38.723 196.965 9.937 16.472-19.734 2.172Zm0 0"/><path fill="#2f3732" d="m.012 262.262 38.5 61.035-38.547-8.93Zm0 0"/><path fill="#363c30" d="m38.512 323.297-38.5-61.035 62.414 39.054Zm0 0"/><path fill="#fec403" d="m80.11 383.996 66.078-19.95 18.035 19.942Zm0 0"/><path fill="#393f34" d="m77.64 268.473-15.214 32.843-9.278-61.628Zm0 0"/><path fill="#8f9289" d="m154.832 283.418-15.32 4.941 9.781-12.75Zm0 0"/><path fill="#a2a399" d="m139.512 288.36 15.32-4.942-1.34 14.687Zm0 0"/><path fill="#0f213a" d="m86.16 223.152 10.942 15.528-43.954 1.007Zm0 0"/><path fill="#102239" d="m74.36 210.176 11.8 12.976-33.012 16.536Zm0 0"/><path fill="#a6a182" d="M97.102 238.68 86.16 223.152l19.91 6.946Zm0 0"/><path fill="#c79e0e" d="m113.273 283.563 30.989 31.414-57.465 25.21Zm0 0"/><path fill="#b5aa7b" d="m113.719 176.992-6.114 33.078-15.421-19.285Zm0 0"/><path fill="#f7e6ab" d="m107.605 210.07 6.114-33.078 23.875 20.285Zm0 0"/><path fill="#fcc201" d="m384 131.793-13.96-6.36L384 79.856Zm0 0"/><path fill="#fec300" d="m370.04 125.434 13.96 6.359-15.348 24.277Zm0 0"/><path fill="#081d3b" d="m370.04 125.434-33.224 13.671-7.046-33.125Zm0 0"/><path fill="#fec300" d="M371.79 77.234 384 56.262v23.593Zm0 0"/><path fill="#fefefd" d="m218.766 90.031 16.648-30.715 18.82 17.079Zm0 0"/><path fill="#fefefc" d="m218.766 90.031 35.468-13.636 14.559 45.257Zm0 0"/><path fill="#504e2a" d="m346.664 52.766-31.113 31.609-13.024-24.008Zm0 0"/><path fill="#fec300" d="m371.79 77.234-.981.29-20.317-37.297Zm0 0"/><path fill="#fec300" d="m370.809 77.523-24.145-24.757 3.828-12.54Zm0 0"/><path fill="#0e213a" d="m370.809 77.523-.77 47.91-40.27-19.453Zm0 0"/><path fill="#fcc200" d="m370.809 77.523.98-.289-1.75 48.2Zm0 0"/><path fill="#081d3b" d="m315.55 84.375 55.259-6.852-41.04 28.457Zm0 0"/><path fill="#0b1f3b" d="m370.809 77.523-55.258 6.852 31.113-31.61Zm0 0"/><path fill="#efefee" d="m140.7 222.793 14.558-5.922-.578 12.426Zm0 0"/><path fill="#efebdc" d="m155.258 216.871-14.559 5.922-3.105-25.516Zm0 0"/><path fill="#eeeadd" d="m140.7 222.793-12.13-1.574 9.024-23.942Zm0 0"/><path fill="#f3eedc" d="m167.332 198.438-12.074 18.433-17.664-19.594Zm0 0"/><path fill="#1a2937" d="m155.258 216.871 12.074-18.434 7.938 17.032Zm0 0"/><path fill="#f3e3ad" d="m167.332 198.438-29.738-1.16 31.523-23.15Zm0 0"/><path fill="#d8c580" d="m192.727 188.73-25.395 9.708 1.785-24.31Zm0 0"/><path fill="#f2eede" d="m137.594 197.277-9.024 23.942-20.965-11.149Zm0 0"/><path fill="#faf0d0" d="m204.652 144.23 42.922 31.22-20.535 16.245Zm0 0"/><path fill="#fdecb5" d="m204.652 144.23-35.535 29.899-23.402-31.606Zm0 0"/><path fill="#f9e6a4" d="m169.117 174.129 35.535-29.899-6.554 37.485Zm0 0"/><path fill="#081d3c" d="m330.414 305.66-25.273-8.957 22.972-19.164Zm0 0"/><path fill="#f0f1f3" d="m305.14 296.703-12.894 11.668-12.207-16.379Zm0 0"/><path fill="#081d3b" d="m305.14 296.703 25.274 8.957-24.504 2.149Zm0 0"/><path fill="#081d3c" d="m292.246 308.371 12.895-11.668.77 11.106Zm0 0"/><path fill="#eedea6" d="m213.734 203.242-15.636-21.527 28.941 9.98Zm0 0"/><path fill="#d4d0be" d="m237.25 234.664-23.516-31.422 13.305-11.547Zm0 0"/><path fill="#f0ead6" d="m227.04 191.695 20.534-16.246 7.035 34.684Zm0 0"/><path fill="#091e3b" d="m275.934 253.504 4.5-16.207 12.445 4.45Zm0 0"/><path fill="#0a1e3b" d="m280.434 237.297-4.5 16.207-10.075-9.899Zm0 0"/><path fill="#091e3b" d="m271.973 228.129 8.46 9.168-14.574 6.308Zm0 0"/><path fill="#081d3b" d="m296.887 255.465-20.953-1.961 16.945-11.758Zm0 0"/><path fill="#fefefe" d="m258.14 244.117 3.403 22.258-24.293-31.71Zm0 0"/><path fill="#fefefe" d="m258.14 244.117 7.72-.512-4.317 22.77Zm0 0"/><path fill="#0f223a" d="m259.98 237.703 11.993-9.574-6.114 15.476Zm0 0"/><path fill="#fefefe" d="m258.14 244.117 1.84-6.414 5.88 5.902Zm0 0"/><path fill="#fefefe" d="m259.98 237.703-1.84 6.414-20.89-9.453Zm0 0"/><path fill="#fdfcf9" d="m225.793 257.137-22.895 35.906-6.925-32.64Zm0 0"/><path fill="#fefbf1" d="m199.137 240.664 26.656 16.473-29.82 3.265Zm0 0"/><path fill="#40432f" d="m199.137 240.664-17.875-13.55 22.972-1.102Zm0 0"/><path fill="#0a1e3b" d="m181.262 227.113 19.617-16.812 3.355 15.71Zm0 0"/><path fill="#081d3b" d="m154.68 229.297 26.582-2.184-17.965 23.54ZM200.879 210.3l-19.617 16.813-5.992-11.644Zm0 0"/><path fill="#081d3b" d="m181.262 227.113-26.582 2.184 20.59-13.828Zm0 0"/><path fill="#091d3b" d="m330.418 325.664 27.898-3.21-10.625 8.374Zm0 0"/><path fill="#081d3c" d="m340.73 258.031 19.586 24.918-32.203-5.41Zm0 0"/><path fill="#fec300" d="m384.004 172.234-15.352-16.164L384 131.793Zm0 0"/><path fill="#f4f2ea" d="m359.04 190.715-.458 12.207-9.36-4.328Zm0 0"/><path fill="#0f213a" d="m358.316 322.453 25.7-11.629-.012 39.703Zm0 0"/><path fill="#182738" d="m358.316 322.453 25.688 28.074-26.484-5.195Zm0 0"/><path fill="#a88915" d="m308.703 338.27-29.265-2.782 25.578-14.511Zm0 0"/><path fill="#fec300" d="M350.68 360.074 336.324 384l-11.219-26.437ZM357.52 345.332l-6.84 14.742-2.989-29.246Zm0 0"/><path fill="#081d3b" d="m250.871 336.621-.21 11.14L222.394 346Zm0 0"/><path fill="#081d3b" d="M250.871 336.621 222.395 346l3.625-20.684ZM358.316 322.453l-27.902-16.793 29.902-22.71Zm0 0"/><path fill="#081d3b" d="m330.418 325.664-.004-20.004 27.902 16.793Zm0 0"/><path fill="#fec300" d="M336.324 384h-70.777l59.558-26.437Zm0 0"/><path fill="#fec301" d="m265.547 384 11.969-24.75 47.59-1.687Zm0 0"/><path fill="#e6b40a" d="m277.516 359.25-17.325-8.95 2.372-7.292Zm0 0"/><path fill="#fefbf0" d="m142.102 36.918-39.946 2.863 19.805-32Zm0 0"/><path fill="#fdfaef" d="m102.156 39.781-5.281-27.527 25.086-4.473Zm0 0"/><path fill="#fdfcf5" d="m102.156 39.781 39.946-2.863-10.985 22.332Zm0 0"/><path fill="#fbc306" d="m96.875 12.254-17.516.598L81.52 0Zm0 0"/><path fill="#fdf7e1" d="m79.36 12.852 17.515-.598 5.281 27.527Zm0 0"/><path fill="#fdf6df" d="m57.637 33.852 21.722-21 22.797 26.93Zm0 0"/><path fill="#fefaec" d="m210.148 52.672-1.27-24.848 22.45 7.828Zm0 0"/><path fill="#fefcf6" d="m208.879 27.824-23.602 10.254 7.606-17.336Zm0 0"/><path fill="#fefcf5" d="m185.277 38.078 23.602-10.254 1.27 24.848Zm0 0"/><path fill="#eec435" d="m152.719-.004-.672 5.156-30.086 2.63Zm0 0"/><path fill="#fdfbf4" d="m152.047 5.152-9.945 31.766L121.96 7.781Zm0 0"/><path fill="#fefbf0" d="M116.996 83.016 97.762 64.883l33.355-5.633Zm0 0"/><path fill="#fdfbf4" d="m138.504 75.492-21.508 7.524 14.121-23.766Zm0 0"/><path fill="#fefcf6" d="m204.652 144.23-48.12-35.843 62.234-18.356Zm0 0"/><path fill="#fefdf9" d="m156.531 108.387 14.137-39.567 48.098 21.211Zm0 0"/><path fill="#fefbf1" d="m156.531 108.387-18.027-32.895 32.164-6.672Zm0 0"/><path fill="#f5efd6" d="m131.492 130.531 25.04-22.144-10.817 34.136Zm0 0"/><path fill="#fef7e1" d="m156.531 108.387 48.121 35.843-58.937-1.707Zm0 0"/><path fill="#fef7dd" d="m-.004 60.86 26.586 38.023L-.004 95.32Zm0 0"/><path fill="#fbc203" d="m24.285 0-7.672 8.645L0 0Zm0 0"/><path fill="#fac104" d="M30.648 15.48 16.613 8.645 24.285 0Zm0 0"/><path fill="#fbc203" d="M16.613 8.645 0 20.723V0Zm0 0"/><path fill="#fcf4d8" d="m0 20.723 30.648-5.243-2.347 21.973Zm0 0"/><path fill="#fef8e3" d="M-.004 60.86 0 20.722l28.3 16.73Zm0 0"/><path fill="#f7c007" d="M0 20.723 16.613 8.645l14.035 6.835Zm0 0"/><path fill="#f8edc9" d="m136.035 167.86 33.082 6.269-31.523 23.148Zm0 0"/><path fill="#f9e8b1" d="m169.117 174.129-33.082-6.27 9.68-25.336Zm0 0"/><path fill="#fef8e5" d="m77.758 80.438 4.222 21.53-21.52-10.652Zm0 0"/><path fill="#fef8e4" d="m81.98 101.969-4.222-21.531 15.062 5.519Zm0 0"/><path fill="#4d4c2d" d="m94.39 105.266-12.41-3.297 10.84-16.012Zm0 0"/><path fill="#081d3b" d="m68.406 361.113-32.84-12.297 2.946-25.52Zm0 0"/><path fill="#fbc50f" d="m68.406 361.113 11.703 22.883-44.543-35.18Zm0 0"/><path fill="#0a1e3b" d="m86.797 340.188-18.39 20.925-29.895-37.816Zm0 0"/><path fill="#c9bc8b" d="m.059 150.21 13.945 19.813-14 30.137Zm0 0"/><path fill="#dbcb8f" d="m14.004 170.023 12.305 8.98L.004 200.16Zm0 0"/><path fill="#ae9e5c" d="m26.309 179.004-3.098 20.57-23.207.586Zm0 0"/><path fill="#726b3d" d="m23.21 199.574 3.099-20.57 12.414 17.96Zm0 0"/><path fill="#897c3d" d="m.004 200.16 23.207-.586 5.715 16.035Zm0 0"/><path fill="#625a27" d="m23.21 199.574 15.513-2.61-9.797 18.645Zm0 0"/><path fill="#f8eaba" d="m30.129 142.684 11.965 12.539-14.711 3.785Zm0 0"/><path fill="#ccc08f" d="m154.832 283.418 12.82-11.816.957 17.68Zm0 0"/><path fill="#081d3b" d="m163.297 250.652 4.355 20.95-18.359 4.007Zm0 0"/><path fill="#d4ccad" d="m167.652 271.602-12.82 11.816-5.539-7.809Zm0 0"/><path fill="#dcd0a2" d="m59.973 193.484 7.757-7.011 6.63 23.703Zm0 0"/><path fill="#212e37" d="m59.973 193.484 14.386 16.692-25.699 3.262Zm0 0"/><path fill="#b3aa81" d="m67.73 186.473 18.391 18.02-11.762 5.683Zm0 0"/><path fill="#9f9974" d="m86.121 204.492.04 18.66-11.802-12.976Zm0 0"/><path fill="#a59964" d="m86.121 204.492-18.39-18.02 24.453 4.313Zm0 0"/><path fill="#787f83" d="m139.512 288.36-12.696-12.07 22.477-.68Zm0 0"/><path fill="#0e213a" d="m139.512 288.36-26.239-4.798 13.543-7.273Zm0 0"/><path fill="#081d3b" d="m143.73 254.078 19.567-3.426-14.004 24.957Zm0 0"/><path fill="#091d3b" d="m126.816 276.29 16.914-22.212 5.563 21.531Zm0 0"/><path fill="#081d3b" d="m163.297 250.652-19.567 3.426 3.79-12.469Zm0 0"/><path fill="#fbc204" d="m384 0-33.508 40.227L311.387 0Zm0 0"/><path fill="#fdc201" d="m350.492 40.227-58.469-7.618L311.387 0Zm0 0"/><path fill="#fcc200" d="m384 56.262-33.508-16.035L384 0Zm0 0"/><path fill="#112542" d="m336.816 139.105-19.55-29.453 12.504-3.672Zm0 0"/><path fill="#fdfdfd" d="m290.941 86.195 26.325 23.457-48.473 12Zm0 0"/><path fill="#c4c8d0" d="m315.55 84.375 1.716 25.277-26.325-23.457Zm0 0"/><path fill="#081d3c" d="m317.266 109.652-1.715-25.277 14.219 21.605Zm0 0"/><path fill="#fcfdfd" d="m317.266 109.652-5.758 37.133-42.715-25.133Zm0 0"/><path fill="#f6f6f7" d="m311.508 146.785 5.758-37.133 19.55 29.453Zm0 0"/><path fill="#fec300" d="M350.492 40.227 384 56.262l-12.21 20.972Zm0 0"/><path fill="#ede8d7" d="m302.527 60.367-9.894 19.293-8.024-15.785Zm0 0"/><path fill="#112339" d="m315.55 84.375-22.917-4.715 9.894-19.293Zm0 0"/><path fill="#d7dade" d="m292.633 79.66 22.918 4.715-24.61 1.82Zm0 0"/><path fill="#fdc301" d="m269.379 47.11-38.05-11.458 2.464-22.168Zm0 0"/><path fill="#fefefd" d="m278.809 79.906-10.016 41.746-14.559-45.257Zm0 0"/><path fill="#fefefc" d="m235.414 59.316-4.086-23.664 38.05 11.457Zm0 0"/><path fill="#fdc300" d="m292.023 32.61-22.644 14.5-35.586-33.626Zm0 0"/><path fill="#fec300" d="m292.023 32.61-7.414 31.265-15.23-16.766Zm0 0"/><path fill="#fcc204" d="m233.469 0 58.554 32.61-58.23-19.126Zm0 0"/><path fill="#fcc201" d="M292.023 32.61 233.47 0h77.918Zm0 0"/><path fill="#e8e6dc" d="m247.574 175.45 18.078 12.585-11.043 22.098Zm0 0"/><path fill="#e7e4da" d="m286.57 172.676-20.918 15.36-18.078-12.587Zm0 0"/><path fill="#eeeeed" d="m143.566 232.824-2.867-10.031 13.98 6.504Zm0 0"/><path fill="#112540" d="m147.52 241.61-3.954-8.786 11.114-3.527Zm0 0"/><path fill="#edeadf" d="m140.7 222.793 2.866 10.031-11.757 6.75Zm0 0"/><path fill="#ebe9e0" d="m128.57 221.219 12.13 1.574-8.891 16.781Zm0 0"/><path fill="#0b1f3b" d="m195.758 200.828-28.426-2.39 25.395-9.708Zm0 0"/><path fill="#ecdeac" d="m195.758 200.828-3.031-12.098 21.007 14.512Zm0 0"/><path fill="#0a1e3b" d="m195.758 200.828 5.12 9.473-25.608 5.168Zm0 0"/><path fill="#081d3b" d="m167.332 198.438 28.426 2.39-20.488 14.64Zm0 0"/><path fill="#eadeb4" d="m195.758 200.828 17.976 2.414-12.855 7.059Zm0 0"/><path fill="#eff0f1" d="m336.488 203.25 2.938 15.95-20.719-5.49Zm0 0"/><path fill="#f5f6f6" d="m336.488 203.25 3.77-29.957 8.965 25.3Zm0 0"/><path fill="#eff0f1" d="m336.488 203.25-17.781 10.46-.742-22.16Zm0 0"/><path fill="#f6f6f5" d="m336.488 203.25-18.523-11.7 22.293-18.257Zm0 0"/><path fill="#f3f3f1" d="m359.04 190.715-18.782-17.422 23.61.906Zm0 0"/><path fill="#f1f2f3" d="m340.258 173.293 18.781 17.422-9.816 7.879Zm0 0"/><path fill="#fdfaee" d="m225.793 257.137-10.297-23.824 21.754 1.351Zm0 0"/><path fill="#fefbf1" d="m215.496 233.313 10.297 23.824-26.656-16.473Zm0 0"/><path fill="#faf0cf" d="m215.496 233.313-16.36 7.351 5.098-14.652Zm0 0"/><path fill="#e2dbc0" d="m213.734 203.242 1.762 30.07-11.262-7.3Zm0 0"/><path fill="#d9d5c2" d="m237.25 234.664-21.754-1.351-1.762-30.07Zm0 0"/><path fill="#081d3b" d="m309.012 243.742-12.125 11.723-4.008-13.719Zm0 0"/><path fill="#172942" d="m322.32 256.477-13.308-12.735 16.652-6.832Zm0 0"/><path fill="#0b1f3b" d="m296.887 255.465 12.125-11.723 13.308 12.735Zm0 0"/><path fill="#091e3b" d="m300.68 272.207-3.793-16.742 25.433 1.012Zm0 0"/><path fill="#0a1f3d" d="m300.68 272.207 21.64-15.73 5.793 21.062Zm0 0"/><path fill="#dee1e5" d="m305.14 296.703-4.46-24.496 27.433 5.332Zm0 0"/><path fill="#081d3b" d="m255.215 229.316-.606-19.183 17.364 17.996Zm0 0"/><path fill="#fdfaee" d="m195.973 260.402 6.925 32.641-19.18-7.121Zm0 0"/><path fill="#091d3b" d="m184.813 247.988-5.266 14.614-16.25-11.95Zm0 0"/><path fill="#081d3b" d="m181.262 227.113 3.55 20.875-21.515 2.664Zm0 0"/><path fill="#091d3b" d="m184.813 247.988-3.551-20.875 17.875 13.551Zm0 0"/><path fill="#fdf2ce" d="m184.813 247.988 14.324-7.324-3.164 19.738Zm0 0"/><path fill="#f0e6c2" d="m179.547 262.602 5.266-14.614 11.16 12.414Zm0 0"/><path fill="#c79f12" d="m305.016 320.977 25.402 4.687-21.715 12.606Zm0 0"/><path fill="#081d3b" d="m305.016 320.977 25.398-15.317.004 20.004Zm0 0"/><path fill="#575228" d="m358.316 322.453 2-39.504 23.7 27.875Zm0 0"/><path fill="#937b1a" d="m360.316 282.95 23.688-28.887.012 56.761Zm0 0"/><path fill="#748090" d="m322.32 256.477 18.41 1.554-12.617 19.508Zm0 0"/><path fill="#49482c" d="m363.777 251.074 20.227 2.988-23.688 28.887Zm0 0"/><path fill="#0a1e3b" d="m340.73 258.031 23.047-6.957-3.46 31.875Zm0 0"/><path fill="#0b1f3b" d="m363.777 251.074-23.047 6.957 6.711-12.484Zm0 0"/><path fill="#fec300" d="m363.867 174.2 4.785-18.13 15.352 16.164Zm0 0"/><path fill="#fdc405" d="m370.836 190.988 13.168-18.754-.024 39.172Zm0 0"/><path fill="#937c1f" d="m363.867 174.2 6.969 16.788-11.797-.273Zm0 0"/><path fill="#fdc302" d="m370.836 190.988-6.969-16.789 20.137-1.965Zm0 0"/><path fill="#fec300" d="m352.402 154.535 16.25 1.535-4.785 18.13Zm0 0"/><path fill="#f0e6c3" d="m340.258 173.293 12.144-18.758 11.465 19.664Zm0 0"/><path fill="#675e26" d="m354.2 212.27 4.382-9.348 12.328 15.355Zm0 0"/><path fill="#f4f3f0" d="m358.582 202.922-4.383 9.348-4.976-13.676Zm0 0"/><path fill="#f5f5f6" d="m354.2 212.27-17.712-9.02 12.735-4.656Zm0 0"/><path fill="#eff0f2" d="m336.488 203.25 17.711 9.02-14.773 6.93Zm0 0"/><path fill="#8f7a25" d="m358.582 202.922 12.254-11.934.074 27.29Zm0 0"/><path fill="#937b1b" d="m370.836 190.988 13.144 20.418-13.07 6.871Zm0 0"/><path fill="#b69b38" d="m370.836 190.988-12.254 11.934.457-12.207Zm0 0"/><path fill="#fec300" d="m336.324 384 14.356-23.926L384 384Zm0 0"/><path fill="#fec300" d="m350.68 360.074 33.32 2.934V384ZM384 363.008l-33.32-2.934 33.324-9.547Zm0 0"/><path fill="#fec300" d="m350.68 360.074 6.84-14.742 26.484 5.195Zm0 0"/><path fill="#dfaf08" d="m279.438 335.488-1.922 23.762-14.954-16.242Zm0 0"/><path fill="#f1ba03" d="m277.516 359.25 1.921-23.762 29.266 2.782Zm0 0"/><path fill="#fdc301" d="m325.105 357.563 5.313-31.899 17.273 5.164Zm0 0"/><path fill="#fbc203" d="m330.418 325.664-5.313 31.899-16.402-19.293Zm0 0"/><path fill="#fec300" d="m350.68 360.074-25.575-2.512 22.586-26.734ZM325.105 357.563l-47.59 1.687 31.188-20.98Zm0 0"/><path fill="#212e35" d="m265.902 329.07 13.536 6.418-16.875 7.52Zm0 0"/><path fill="#081d3c" d="m219.945 305.574 11.118 4.004-5.043 15.738Zm0 0"/><path fill="#fdfdfd" d="m286.36 281.617-6.32 10.375-18.497-25.617Zm0 0"/><path fill="#fefefe" d="m280.04 291.992-22.575 1.5 4.078-27.117Zm0 0"/><path fill="#faf3da" d="m202.898 293.043-6.207 15.559-6.562-3.16Zm0 0"/><path fill="#4e5961" d="m196.691 308.602 6.207-15.559 17.047 12.531Zm0 0"/><path fill="#081d3c" d="m196.691 308.602 23.254-3.028 6.075 19.742Zm0 0"/><path fill="#faf5e4" d="m189.402 325.363 7.29-16.761 29.328 16.714Zm0 0"/><path fill="#1a2937" d="m144.262 314.977 5.773 19.207-63.238 6.003Zm0 0"/><path fill="#081d3b" d="m86.797 340.188 63.238-6.004-7.93 25.347Zm0 0"/><path fill="#fdc301" d="m265.547 384-9.957-24.258 21.926-.492Zm0 0"/><path fill="#d5aa12" d="m255.59 359.742 4.601-9.441 17.325 8.949Zm0 0"/><path fill="#fdc404" d="m218.625 362.48 36.965-2.738L265.547 384Zm0 0"/><path fill="#b4941d" d="m255.59 359.742-36.965 2.738 32.035-14.718Zm0 0"/><path fill="#d7ab14" d="m260.191 350.3-4.601 9.442-4.93-11.98Zm0 0"/><path fill="#fefbf0" d="m97.762 64.883 4.394-25.102 28.961 19.469Zm0 0"/><path fill="#fcc203" d="m233.793 13.484-24.914 14.34-15.996-7.082Zm0 0"/><path fill="#fcc304" d="m233.793 13.484-40.91 7.258L233.469 0Zm0 0"/><path fill="#fcc201" d="m208.879 27.824 24.914-14.34-2.465 22.168Zm0 0"/><path fill="#fdfbf4" d="m142.102 36.918 9.945-31.766 33.23 32.926Zm0 0"/><path fill="#fdfbf2" d="m185.277 38.078-33.23-32.926 40.836 15.59Zm0 0"/><path fill="#fbc305" d="m152.047 5.152.672-5.156 40.164 20.746Zm0 0"/><path fill="#1f2f41" d="m128.594 101.938 27.937 6.449-25.039 22.144Zm0 0"/><path fill="#2f3938" d="m156.531 108.387-27.937-6.45 9.91-26.445Zm0 0"/><path fill="#3c4132" d="m128.594 101.938-11.598-18.922 21.508-7.524Zm0 0"/><path fill="#0d203a" d="m109.941 116.512 18.653-14.574 2.898 28.593Zm0 0"/><path fill="#fef7df" d="M26.582 98.883-.004 60.859l55.68-2.808Zm0 0"/><path fill="#f5e4a8" d="m115.469 164.34 10.355-17.738 10.211 21.257Zm0 0"/><path fill="#f7e7af" d="m136.035 167.86-10.21-21.258 19.89-4.079Zm0 0"/><path fill="#f3e8bf" d="m125.824 146.602 5.668-16.07 14.223 11.991Zm0 0"/><path fill="#091d3b" d="m75.555 155.938 8.941-30.825 9.613 26.66Zm0 0"/><path fill="#fefaed" d="m81.98 101.969-9.671 11.07L60.46 91.316Zm0 0"/><path fill="#0b1f3b" d="m111.465 138.898-1.524-22.386 21.551 14.02Zm0 0"/><path fill="#2d383b" d="m125.824 146.602-14.36-7.704 20.028-8.367Zm0 0"/><path fill="#081d3b" d="m84.496 125.113 26.969 13.785-17.356 12.875Zm0 0"/><path fill="#091d3b" d="m111.465 138.898 4.004 25.442-21.36-12.567Zm0 0"/><path fill="#243036" d="m111.465 138.898 14.36 7.704-10.356 17.738Zm0 0"/><path fill="#081d3b" d="m88.563 360.766-20.157.347 18.39-20.925ZM88.563 360.766l-1.766-20.579 55.308 19.344Zm0 0"/><path fill="#f4bc03" d="m146.188 364.047-57.625-3.281 53.542-1.235Zm0 0"/><path fill="#fec404" d="m88.563 360.766 57.625 3.28-66.079 19.95Zm0 0"/><path fill="#f4e9c4" d="m27.383 159.008 14.71-3.785-.96 13.953Zm0 0"/><path fill="#f0e4b9" d="m26.309 179.004 1.074-19.996 13.75 10.168Zm0 0"/><path fill="#dccf9d" d="m27.383 159.008-1.074 19.996-12.305-8.98Zm0 0"/><path fill="#90885a" d="m.059 150.21 27.324 8.798-13.38 11.015Zm0 0"/><path fill="#b1a163" d="m73.547 176.434 11.96-5.114 6.677 19.465Zm0 0"/><path fill="#9b9368" d="m67.73 186.473 5.817-10.04 18.637 14.352Zm0 0"/><path fill="#0a1e3b" d="m85.508 171.32-9.953-15.382 18.554-4.165Zm0 0"/><path fill="#ecd37a" d="m73.547 176.434 2.008-20.496 9.953 15.382Zm0 0"/><path fill="#ada98d" d="m86.16 223.152 21.445-13.082-1.535 20.028Zm0 0"/><path fill="#908b6b" d="m86.121 204.492 21.484 5.578-21.445 13.082Zm0 0"/><path fill="#eee9d5" d="m117.105 239.758.82-10.254 13.884 10.07Zm0 0"/><path fill="#f1ecda" d="m117.926 229.504 10.644-8.285 3.239 18.355Zm0 0"/><path fill="#f0ead4" d="m117.926 229.504-10.32-19.434 20.964 11.149Zm0 0"/><path fill="#eee7d1" d="m107.605 210.07 10.32 19.434-11.855.594Zm0 0"/><path fill="#13253e" d="m131.809 239.574 11.757-6.75 3.954 8.785Zm0 0"/><path fill="#ebe3c5" d="m108.719 239.93 8.386-.172-1.023 8.488Zm0 0"/><path fill="#e4dcbc" d="m106.89 254.29 1.829-14.36 7.363 8.316Zm0 0"/><path fill="#ede7ce" d="m117.926 229.504-9.207 10.426-2.649-9.832Zm0 0"/><path fill="#ede5ca" d="m108.719 239.93 9.207-10.426-.82 10.254Zm0 0"/><path fill="#beb89a" d="m108.719 239.93-11.617-1.25 8.968-8.582Zm0 0"/><path fill="#828476" d="m97.102 238.68 11.617 1.25-1.828 14.36Zm0 0"/><path fill="#968e63" d="m107.605 210.07-21.484-5.578 6.063-13.707Zm0 0"/><path fill="#fec301" d="m336.816 139.105 33.223-13.671-17.637 29.101Zm0 0"/><path fill="#f2ecd4" d="m340.258 173.293-3.442-34.188 15.586 15.43Zm0 0"/><path fill="#f8f8f6" d="m311.508 146.785 25.308-7.68 3.442 34.188Zm0 0"/><path fill="#f7f7f5" d="m286.57 172.676 24.938-25.89 28.75 26.507ZM317.965 191.55l-31.395-18.874 53.688.617Zm0 0"/><path fill="#fbf9f2" d="m311.508 146.785-24.938 25.89-17.777-51.023Zm0 0"/><path fill="#f0f0ef" d="m302.313 218.563 16.394-4.852-9.754 14.129Zm0 0"/><path fill="#0e213b" d="m302.313 218.563 6.64 9.277-16.074 13.906Zm0 0"/><path fill="#091e3b" d="m280.434 237.297 21.878-18.734-9.433 23.183Zm0 0"/><path fill="#0c1f3b" d="m302.313 218.563-21.88 18.734-8.46-9.168Zm0 0"/><path fill="#f0f1f2" d="m308.953 227.84 9.754-14.13 6.957 23.2Zm0 0"/><path fill="#192a3c" d="m309.012 243.742-.059-15.902 16.711 9.07Zm0 0"/><path fill="#0c203a" d="m308.953 227.84.059 15.902-16.133-1.996Zm0 0"/><path fill="#fbfbfb" d="m286.36 281.617 18.78 15.086-25.1-4.71Zm0 0"/><path fill="#eaebee" d="m286.36 281.617 14.32-9.41 4.46 24.496Zm0 0"/><path fill="#e5e4dc" d="m237.25 234.664-10.21-42.969 27.57 18.438Zm0 0"/><path fill="#e6e7e8" d="m255.215 229.316-17.965 5.348 17.36-24.531Zm0 0"/><path fill="#fdfcf9" d="m255.215 229.316 4.765 8.387-22.73-3.039Zm0 0"/><path fill="#454837" d="m259.98 237.703-4.765-8.387 16.758-1.187Zm0 0"/><path fill="#081d3b" d="m154.68 229.297 8.617 21.355-15.777-9.043Zm0 0"/><path fill="#efe3b8" d="m167.652 271.602 16.067 14.32-15.11 3.36Zm0 0"/><path fill="#081d3b" d="m305.016 320.977.894-13.168 24.504-2.149Zm0 0"/><path fill="#6f7a88" d="m325.664 236.91 15.066 21.121-18.41-1.554Zm0 0"/><path fill="#b8bdc2" d="m340.73 258.031-15.066-21.12 21.777 8.636Zm0 0"/><path fill="#f1f2f3" d="m318.707 213.71 15.063 15.845-8.106 7.355Zm0 0"/><path fill="#f8f7f7" d="m325.664 236.91 8.106-7.355 13.671 15.992Zm0 0"/><path fill="#f1f1f3" d="m333.77 229.555-15.063-15.844 20.719 5.488Zm0 0"/><path fill="#1e2c36" d="m347.441 245.547 5.293-10.824 11.043 16.351Zm0 0"/><path fill="#4f4d2a" d="m363.777 251.074-11.043-16.351 18.176-16.446Zm0 0"/><path fill="#695e24" d="m352.734 234.723 1.465-22.453 16.711 6.007Zm0 0"/><path fill="#f7f8f8" d="m354.2 212.27-1.466 22.453-13.308-15.524Zm0 0"/><path fill="#f5f5f6" d="m352.734 234.723-18.964-5.168 5.656-10.356Zm0 0"/><path fill="#f9faf9" d="m333.77 229.555 18.964 5.168-5.293 10.824Zm0 0"/><path fill="#fafafb" d="m265.902 329.07-18.863-9.574 17.43-16.21Zm0 0"/><path fill="#c3bda2" d="m247.04 319.496 3.831 17.125-24.851-11.305Zm0 0"/><path fill="#081d3c" d="m231.063 309.578 15.976 9.918-21.02 5.82Zm0 0"/><path fill="#fcfcfc" d="m278.602 306.273-2.196 15.762-11.937-18.75Zm0 0"/><path fill="#fcfcfc" d="m276.406 322.035-10.504 7.035-1.433-25.785Zm0 0"/><path fill="#c1b994" d="m265.902 329.07 10.504-7.035 3.031 13.453Zm0 0"/><path fill="#b49114" d="m279.438 335.488-3.032-13.453 28.61-1.058Zm0 0"/><path fill="#cea410" d="m262.563 343.008-2.372 7.293-9.53-2.54Zm0 0"/><path fill="#30415b" d="m228.207 297.281 2.856 12.297-11.118-4.004Zm0 0"/><path fill="#f8f8f7" d="m228.207 297.281-25.309-4.238 22.895-35.906Zm0 0"/><path fill="#0f2341" d="m202.898 293.043 25.309 4.238-8.262 8.293Zm0 0"/><path fill="#fbfbfb" d="m264.469 303.285 15.57-11.293-1.437 14.281Zm0 0"/><path fill="#fcfcfc" d="m280.04 291.992-15.571 11.293-7.004-9.793Zm0 0"/><path fill="#081d3b" d="m222.395 346-17.711-7.309 21.336-13.375Zm0 0"/><path fill="#c5bb8e" d="m204.684 338.691-15.282-13.328 36.618-.047Zm0 0"/><path fill="#f9f0d3" d="m175.656 300.25 8.063-14.328 6.41 19.52Zm0 0"/><path fill="#f5e7b7" d="m183.719 285.922-8.063 14.328-7.047-10.969Zm0 0"/><path fill="#fcf4d7" d="m190.129 305.441 6.562 3.16-7.289 16.762Zm0 0"/><path fill="#081d3b" d="m144.262 314.977 19.62-7.489-13.847 26.696Zm0 0"/><path fill="#091e3c" d="m144.262 314.977-30.989-31.414 26.239 4.796Zm0 0"/><path fill="#0a1e3b" d="m144.262 314.977-4.75-26.618 13.98 9.746Zm0 0"/><path fill="#091e3c" d="m153.492 298.105 10.39 9.383-19.62 7.489Zm0 0"/><path fill="#d4cdad" d="m153.492 298.105 1.34-14.687 13.777 5.863Zm0 0"/><path fill="#0e213a" d="m107.48 98.293 2.461 18.219-15.55-11.246Zm0 0"/><path fill="#706323" d="m116.996 83.016-9.516 15.277-14.66-12.336Zm0 0"/><path fill="#393e2f" d="m107.48 98.293-13.09 6.973-1.57-19.309Zm0 0"/><path fill="#3c402f" d="m128.594 101.938-21.114-3.645 9.516-15.277Zm0 0"/><path fill="#0b1f3b" d="m107.48 98.293 21.114 3.644-18.653 14.575Zm0 0"/><path fill="#fefaed" d="m55.676 58.05 1.96-24.198 44.52 5.93Zm0 0"/><path fill="#fef7e1" d="m60.46 91.316-33.878 7.567L55.676 58.05Zm0 0"/><path fill="#fdf4d4" d="m60.46 91.316-5.394 21.579-28.484-14.012Zm0 0"/><path fill="#615b2f" d="m38.723 196.965 13.55-14.235 7.7 10.754Zm0 0"/><path fill="#f8e7b0" d="m52.273 182.73-11.14-13.554 11.375-6.93Zm0 0"/><path fill="#f8e9b7" d="m42.094 155.223 10.414 7.023-11.375 6.93Zm0 0"/><path fill="#091d3b" d="m111.465 138.898-26.969-13.785 25.445-8.601Zm0 0"/><path fill="#091e3b" d="m109.941 116.512-25.445 8.601 9.895-19.847Zm0 0"/><path fill="#283335" d="m72.309 113.04 12.187 12.073-14.848-6.18Zm0 0"/><path fill="#1d2b36" d="M84.496 125.113 81.98 101.97l12.41 3.297Zm0 0"/><path fill="#263135" d="M84.496 125.113 72.31 113.04l9.671-11.07Zm0 0"/><path fill="#fec403" d="m88.563 360.766-8.454 23.23-11.703-22.883Zm0 0"/><path fill="#dfd2a4" d="m52.273 182.73 15.457 3.743-7.757 7.011Zm0 0"/><path fill="#081d3b" d="m143.73 254.078-11.921-14.504 15.71 2.035Zm0 0"/><path fill="#091d3b" d="m77.64 268.473 19.462-29.793 9.789 15.61Zm0 0"/><path fill="#091e3b" d="m113.273 283.563-35.632-15.09 29.25-14.184Zm0 0"/><path fill="#806e20" d="m77.64 268.473 35.633 15.09-50.847 17.753Zm0 0"/><path fill="#fefefd" d="m254.234 76.395-18.82-17.079L269.38 47.11Zm0 0"/><path fill="#fefdfa" d="m284.61 63.875-11.41 3.242-3.821-20.008Zm0 0"/><path fill="#fefefd" d="m273.2 67.117-18.966 9.278 15.145-29.286Zm0 0"/><path fill="#fefefe" d="m254.234 76.395 18.965-9.278 5.61 12.79Zm0 0"/><path fill="#fefefe" d="m278.809 79.906 12.132 6.29-22.148 35.456ZM278.809 79.906l13.824-.246-1.692 6.535Zm0 0"/><path fill="#ebeced" d="m302.313 218.563-10.66-19.891 27.054 15.039Zm0 0"/><path fill="#eceded" d="m318.707 213.71-27.055-15.038 26.313-7.121Zm0 0"/><path fill="#eaeae7" d="m291.652 198.672-5.082-25.996 31.395 18.875Zm0 0"/><path fill="#c6c6bd" d="m291.652 198.672-26-10.637 20.918-15.36Zm0 0"/><path fill="#0a1e3b" d="m254.61 210.133 37.042-11.461-19.68 29.457Zm0 0"/><path fill="#091e3b" d="m265.652 188.035 26 10.637-37.043 11.46Zm0 0"/><path fill="#23313d" d="m291.652 198.672 10.66 19.89-30.34 9.567Zm0 0"/><path fill="#fafafa" d="m292.246 308.371-15.84 13.664 2.196-15.762Zm0 0"/><path fill="#fafafb" d="m280.04 291.992 12.206 16.38-13.644-2.099Zm0 0"/><path fill="#0b1f3b" d="m276.406 322.035 15.84-13.664 12.77 12.606Zm0 0"/><path fill="#081d3b" d="m292.246 308.371 13.664-.562-.894 13.168Zm0 0"/><path fill="#0e213a" d="m262.563 343.008-11.692-6.387 15.031-7.55Zm0 0"/><path fill="#ece9dc" d="m250.871 336.621-3.832-17.125 18.863 9.574Zm0 0"/><path fill="#0f213a" d="m250.871 336.621 11.691 6.387-11.902 4.754Zm0 0"/><path fill="#f7f8f8" d="m228.207 297.281-2.414-40.144 31.672 36.355Zm0 0"/><path fill="#fefefe" d="m257.465 293.492-31.672-36.355 35.75 9.238Zm0 0"/><path fill="#fefefd" d="m261.543 266.375-35.75-9.238 11.457-22.473Zm0 0"/><path fill="#081d3c" d="m247.625 303.766-.586 15.73-15.976-9.918Zm0 0"/><path fill="#7a8595" d="m264.469 303.285-16.844.48 9.84-10.273Zm0 0"/><path fill="#091e3d" d="m247.04 319.496.585-15.73 16.844-.48Zm0 0"/><path fill="#32445d" d="m247.625 303.766-19.418-6.485 29.258-3.789Zm0 0"/><path fill="#3e4f67" d="m228.207 297.281 19.418 6.485-16.562 5.812Zm0 0"/><path fill="#fec403" d="m164.223 383.988 54.402-21.508L265.547 384Zm0 0"/><path fill="#fec401" d="m218.625 362.48-54.402 21.508 13.574-24.675Zm0 0"/><path fill="#816f20" d="M203.422 347.598 222.395 346l-3.77 16.48Zm0 0"/><path fill="#0d203a" d="m203.422 347.598 1.262-8.907 17.71 7.309Zm0 0"/><path fill="#e2b10b" d="m203.422 347.598 15.203 14.882-40.828-3.168Zm0 0"/><path fill="#d6ceae" d="m176.914 332.93.559-15.907 11.93 8.34Zm0 0"/><path fill="#fbf4df" d="m177.473 317.023 12.656-11.582-.727 19.922Zm0 0"/><path fill="#f8f0d3" d="m190.129 305.441-12.656 11.582-1.817-16.773Zm0 0"/><path fill="#ede8d5" d="m177.473 317.023-13.59-9.535 11.773-7.238Zm0 0"/><path fill="#0a1e3b" d="m177.473 317.023-.559 15.907-26.879 1.254Zm0 0"/><path fill="#091e3b" d="m163.883 307.488 13.59 9.535-27.438 17.16Zm0 0"/><path fill="#fdc301" d="m150.035 334.184 27.762 25.128-31.61 4.735Zm0 0"/><path fill="#fec400" d="m146.188 364.047 31.609-4.735-13.574 24.676Zm0 0"/><path fill="#0c203a" d="m142.105 359.531 7.93-25.347-3.847 29.863Zm0 0"/><path fill="#eae5d0" d="m163.883 307.488 1.699-8.82 10.074 1.582Zm0 0"/><path fill="#d1d0c3" d="m153.492 298.105 12.09.563-1.7 8.82Zm0 0"/><path fill="#efe8d0" d="m175.656 300.25-10.074-1.582 3.027-9.387Zm0 0"/><path fill="#c9c6b5" d="m165.582 298.668-12.09-.563 15.117-8.824Zm0 0"/><path fill="#fdf6e0" d="m55.066 112.895 17.243.144-2.66 5.895Zm0 0"/><path fill="#fdf5d8" d="m72.309 113.04-17.243-.145 5.395-21.579Zm0 0"/><path fill="#fbefc5" d="m26.582 98.883 28.484 14.012-24.937 29.789Zm0 0"/><path fill="#5a562f" d="m40.098 177.645 12.175 5.085-13.55 14.235Zm0 0"/><path fill="#f0e5bf" d="m52.273 182.73-12.175-5.085 1.035-8.47Zm0 0"/><path fill="#585530" d="m26.309 179.004 13.789-1.36-1.375 19.32Zm0 0"/><path fill="#eee5c6" d="m40.098 177.645-13.79 1.359 14.825-9.828Zm0 0"/><path fill="#f2db8b" d="m52.508 162.246 23.047-6.309-2.008 20.497Zm0 0"/><path fill="#efdd9f" d="m67.73 186.473-3.984-7.97 9.8-2.07Zm0 0"/><path fill="#efdb93" d="m63.746 178.504-11.238-16.258 21.039 14.188Zm0 0"/><path fill="#efd887" d="m63.746 178.504-11.473 4.226.235-20.484Zm0 0"/><path fill="#efdfa5" d="m63.746 178.504 3.984 7.969-15.457-3.743Zm0 0"/><path fill="#0b1f3b" d="m143.73 254.078-16.914 22.211 4.993-36.715Zm0 0"/><path fill="#fefefe" d="m278.809 79.906-5.61-12.789 11.41-3.242Zm0 0"/><path fill="#fefefe" d="m292.633 79.66-13.824.246 5.8-16.031Zm0 0"/><path fill="#081d3c" d="m296.887 255.465-15.188 10.816-5.765-12.777Zm0 0"/><path fill="#fefefe" d="m281.7 266.281-20.157.094 14.39-12.871Zm0 0"/><path fill="#fefefe" d="m261.543 266.375 20.156-.094 4.66 15.336Zm0 0"/><path fill="#091d3c" d="m300.68 272.207-18.98-5.926 15.187-10.816Zm0 0"/><path fill="#f1f2f3" d="m286.36 281.617-4.66-15.336 18.98 5.926Zm0 0"/><path fill="#f2ecd9" d="m167.652 271.602 11.895-9 4.172 23.32Zm0 0"/><path fill="#081d3b" d="m179.547 262.602-11.895 9-4.355-20.95Zm0 0"/><path fill="#fcf7e5" d="m183.719 285.922-4.172-23.32 16.426-2.2Zm0 0"/><path fill="#192837" d="m203.422 347.598-21.66-4.793 22.922-4.114Zm0 0"/><path fill="#0e213a" d="m204.684 338.691-22.922 4.114 7.64-17.442Zm0 0"/><path fill="#10223a" d="m181.762 342.805-4.848-9.875 12.488-7.567Zm0 0"/><path fill="#ebb707" d="m181.762 342.805 21.66 4.793-25.625 11.714Zm0 0"/><path fill="#192837" d="m176.914 332.93 4.848 9.875-31.727-8.621Zm0 0"/><path fill="#f9c002" d="m181.762 342.805-3.965 16.507-27.762-25.128Zm0 0"/><path fill="#182838" d="m63.105 127.57 21.391-2.457-8.941 30.825Zm0 0"/><path fill="#132439" d="m63.105 127.57 6.543-8.636 14.848 6.18Zm0 0"/><path fill="#fce8a6" d="m52.508 162.246 10.597-34.676 12.45 28.368Zm0 0"/><path fill="#fdefc2" d="m55.066 112.895 8.04 14.675-32.977 15.114Zm0 0"/><path fill="#fcf2d3" d="m69.648 118.934-6.543 8.636-8.039-14.675Zm0 0"/><path fill="#fcefc3" d="m63.105 127.57-21.011 27.653-11.965-12.54Zm0 0"/><path fill="#fdefbe" d="m63.105 127.57-10.597 34.676-10.414-7.023Zm0 0"/><path fill="#71756d" d="m116.082 248.246 10.734 28.043-19.925-22Zm0 0"/><path fill="#0b1f3b" d="m126.816 276.29-13.543 7.272-6.382-29.273Zm0 0"/><path fill="#e7e0c4" d="m131.809 239.574-15.727 8.672 1.023-8.488Zm0 0"/><path fill="#424d54" d="m126.816 276.29-10.734-28.044 15.727-8.672Zm0 0"/></svg>