<svg xmlns="http://www.w3.org/2000/svg" width="512" height="512" viewBox="0 0 384 384"><path fill="#a8b1a1" d="m269.098 92.469 17.492 3.328 5.68 11.223Zm0 0"/><path fill="#f1eb8a" d="m269.043 47.766 48.144-5.254L284.7 64.777Zm0 0"/><path fill="#afa987" d="m146.406 207.05-17.398-22.023 31.972 6.965Zm0 0"/><path fill="#a9b2a2" d="m215.094 95.215 43.172 28.187-49.887 24.41ZM222.262 260.29l-1.711-29.392 25.933 15.094Zm0 0"/><path fill="#a8b1a1" d="m123.797 118.5 17.773-11.445 14.414 32.8Zm0 0"/><path fill="#4e433e" d="m48.023 329.89-18.921-47.882 52.355 24.972Zm0 0"/><path fill="#3c3035" d="M48.023 329.89 46.07 345.47l-14.86-2.73Zm0 0"/><path fill="#3a2e34" d="m81.457 306.98 9.43 36.13-42.864-13.22Zm0 0"/><path fill="#4d423e" d="M29.102 282.008-.02 243.723l53.645-.149Zm0 0"/><path fill="#544a41" d="m86.965 237.043-33.34 6.531 11.73-17.472Zm0 0"/><path fill="#5b5144" d="m47.84 217.25 17.515 8.852-11.73 17.472Zm0 0"/><path fill="#70674e" d="m-.02 243.723 47.86-26.473 5.785 26.324Zm0 0"/><path fill="#4f443f" d="m47.84 217.25 25.742-4.723-8.227 13.575Zm0 0"/><path fill="#a9b2a2" d="m258.266 123.402 10.832-30.933 23.172 14.55Zm0 0"/><path fill="#f0ea8a" d="m350.25 119.734-8.723-29.68L384 101.692Zm0 0"/><path fill="#f1eb8a" d="M384 47.246 344.992 73.36l-27.805-30.847Zm0 0"/><path fill="#a9b2a2" d="m257.563 159.46.703-36.058 35.277 30.344Zm0 0"/><path fill="#a9b2a2" d="m258.266 123.402-.704 36.059-49.183-11.649ZM208.379 147.813l29.625 40.277-24.047 13.308Zm0 0"/><path fill="#a9b2a2" d="m257.563 159.46-19.56 28.63-29.624-40.277Zm0 0"/><path fill="#2f232f" d="m154.078 216.29 18.113 2.183-18.933 9.125Zm0 0"/><path fill="#afa886" d="m168.95 175.813 14.921 19.949-22.89-3.77Zm0 0"/><path fill="#a8b1a1" d="m191.254 209.832 22.703-8.434-12.758 24.243Zm0 0"/><path fill="#a9b2a2" d="m193.164 188.387 15.215-40.574 5.578 53.585Zm0 0"/><path fill="#b0a986" d="m183.871 195.762 9.293-7.375-1.18 10.636ZM193.164 188.387l-9.293 7.375-14.922-19.95Zm0 0"/><path fill="#a8b1a1" d="m193.164 188.387-24.215-12.574 39.43-28ZM267.148 234.754l10.864 11.379-10.246 9.285Zm0 0"/><path fill="#a9b2a2" d="m252.484 276.738-6-30.746 21.282 9.426ZM238.293 219.16l8.191 26.832-25.933-15.094Zm0 0"/><path fill="#2e222f" d="m383.984 300.855.004 45.415-21.582-25.262Zm0 0"/><path fill="#f0ea8a" d="m344.809 320.848 13.808 24.09-28.601-6.317Zm0 0"/><path fill="#f1eb8a" d="m224.754 344.238 12.984 2.457-10.675 12.45Zm0 0"/><path fill="#2f232f" d="m333.64 298.941-22.5 3.145 12.02-22.703Zm0 0"/><path fill="#f0ea8a" d="m237.738 346.695 10.547 11.926-21.222.524Zm0 0"/><path fill="#f1eb8a" d="M248.285 358.621 236.625 384l-9.562-24.855ZM236.625 384l33.484-18.086L295.688 384Zm0 0"/><path fill="#a8b1a1" d="m121.176 0 2.023 14.828L94.746 0Zm0 0"/><path fill="#a9b2a2" d="m235.32 38.766-39.61 10.332 14.294-17.47ZM159.773 38.508l-45.617 1.652 9.043-25.332Zm0 0"/><path fill="#a9b1a1" d="m114.156 40.16 53.215 46.383-44.062-6.063Zm0 0"/><path fill="#a9b2a2" d="m167.371 86.543-7.598-48.035 35.938 10.59Zm0 0"/><path fill="#a9b1a2" d="m159.773 38.508 7.598 48.035-53.215-46.383Zm0 0"/><path fill="#a9b2a2" d="m78.395 59.492 44.914 20.988-32.563 4.239Zm0 0"/><path fill="#a8b1a1" d="M56.473 0h38.273L77.082 27.117Zm0 0"/><path fill="#a9b2a2" d="m67.234 89.191-30.863-9.25 42.024-20.449Zm0 0"/><path fill="#a9b2a2" d="m67.234 89.191 11.16-29.699L90.747 84.72ZM0 55.73l36.371 24.211L0 97.601Zm0 0"/><path fill="#a8b1a1" d="m25.172 117.68-25.18 21.43L0 97.601Zm0 0"/><path fill="#a0ab9c" d="m-.008 139.11 25.18-21.43-4.692 33.957Zm0 0"/><path fill="#afa886" d="m96.82 172.332 32.188 12.695-35.266.63Zm0 0"/><path fill="#423638" d="m.008 326.309.008-18.875 31.195 35.304Zm0 0"/><path fill="#655b49" d="m.016 307.434 48.007 22.457-16.812 12.847Zm0 0"/><path fill="#554a41" d="M48.023 329.89.016 307.435l29.086-25.426Zm0 0"/><path fill="#f1eb8a" d="m0 353.902 27.527-.55L0 384Zm0 0"/><path fill="#f0ea8a" d="M27.527 353.352.007 326.309l31.204 16.43Zm0 0"/><path fill="#f1eb8a" d="m.008 326.309 27.52 27.043-27.528.55ZM69.559 384H0l43.957-17.969Zm0 0"/><path fill="#f1eb8a" d="m0 384 27.527-30.648 16.43 12.68Zm0 0"/><path fill="#f0ea8a" d="m46.07 345.469 21.918 15.601-24.031 4.961Zm0 0"/><path fill="#f1eb8a" d="m67.988 361.07 1.57 22.93-25.601-17.969ZM67.988 361.07l12.215 5.211L69.56 384Zm0 0"/><path fill="#6f664f" d="m47.84 217.25-14.942-18.148 23.438-7.032Zm0 0"/><path fill="#7c7354" d="M32.898 199.102 47.84 217.25-.02 243.723Zm0 0"/><path fill="#493e3b" d="m-.02 243.723 29.122 38.285L.016 307.434Zm0 0"/><path fill="#f1eb8a" d="m80.203 366.281 14.406 8.477L69.56 384ZM146.805 370.512l-52.196 4.246 11.13-14.63ZM94.61 374.758l65.456 9.246L69.56 384Zm0 0"/><path fill="#f1eb8a" d="m160.066 384.004-65.457-9.246 52.196-4.246Zm0 0"/><path fill="#7a7053" d="m141.336 296.906-20.094-13.558 25.727-2.352Zm0 0"/><path fill="#392e34" d="m73.582 212.527 13.383 24.516-21.61-10.941Zm0 0"/><path fill="#9e9671" d="m86.965 237.043-13.383-24.516 22.574 19.676Zm0 0"/><path fill="#f1eb8a" d="m350.25 119.734-24.266-.16-.293-19.847Zm0 0"/><path fill="#342a36" d="m286.59 95.797 11.93-2.805-6.25 14.028Zm0 0"/><path fill="#7e8f87" d="m334.875 137.758 22.746 24.433-30.465 1Zm0 0"/><path fill="#f1eb8a" d="m357.621 162.191-22.746-24.433 15.375-18.024Zm0 0"/><path fill="#a9b2a2" d="m239.05 75.754-23.956 19.46-19.383-46.116ZM215.094 95.215l23.957-19.461 19.215 47.648Zm0 0"/><path fill="#a9b2a2" d="M258.266 123.402 239.05 75.754l30.047 16.715Zm0 0"/><path fill="#f1eb8a" d="m344.992 73.36-32.39 10.519 4.586-41.367ZM341.527 90.055l8.723 29.68-24.559-20.008Zm0 0"/><path fill="#efe98a" d="m312.602 83.879 28.925 6.176-15.836 9.672Zm0 0"/><path fill="#f1eb8a" d="m341.527 90.055-28.925-6.176 32.39-10.52Zm0 0"/><path fill="#afa887" d="m145.86 220.305 8.218-4.016-.82 11.309Zm0 0"/><path fill="#afa987" d="m154.078 216.29-8.219 4.015.547-13.254Zm0 0"/><path fill="#afa886" d="m145.86 220.305-11.407-1.926 11.953-11.328Zm0 0"/><path fill="#aea888" d="m164.023 202.867-9.945 13.422-7.672-9.238Zm0 0"/><path fill="#302430" d="m154.078 216.29 9.945-13.423 8.168 15.606Zm0 0"/><path fill="#afa886" d="m164.023 202.867-17.617 4.184 14.574-15.059Zm0 0"/><path fill="#aea785" d="m183.871 195.762-19.848 7.105-3.043-10.875Zm0 0"/><path fill="#afa987" d="m134.453 218.379-5.445-33.352 17.398 22.024ZM129.008 185.027l39.941-9.214-7.969 16.18Zm0 0"/><path fill="#a8b1a1" d="m208.379 147.813-39.43 28-12.965-35.958Zm0 0"/><path fill="#758683" d="m311.14 302.086-16.058-16.02 28.078-6.683Zm0 0"/><path fill="#a8b1a1" d="m191.984 199.023 1.18-10.636 20.793 13.011Zm0 0"/><path fill="#a8b1a0" d="m191.984 199.023 21.973 2.375-22.703 8.434Zm0 0"/><path fill="#a9b2a2" d="m238.293 219.16-17.742 11.738-6.594-29.5ZM238.293 219.16l-.29-31.07 16.767 20.105Zm0 0"/><path fill="#a9b2a2" d="m238.004 188.09.289 31.07-24.336-17.762Zm0 0"/><path fill="#2e222f" d="m278.012 246.133.57-16.543 16.45 6.101Zm0 0"/><path fill="#2e222f" d="m278.582 229.59-.57 16.543-10.864-11.38Zm0 0"/><path fill="#2e222f" d="m265.992 219.57 12.59 10.02-11.434 5.164ZM297.445 249.64l-19.433-3.507 17.02-10.442Zm0 0"/><path fill="#a9b2a2" d="m246.484 245.992 20.664-11.238.618 20.664Zm0 0"/><path fill="#2e222f" d="m255.344 229.727 10.648-10.157 1.156 15.184Zm0 0"/><path fill="#a8b1a1" d="m246.484 245.992 8.86-16.265 11.804 5.027Zm0 0"/><path fill="#a8b1a1" d="m255.344 229.727-8.86 16.265-8.191-26.832Zm0 0"/><path fill="#a9b2a2" d="m208.766 285.398-11.883-18.488 25.379-6.62Zm0 0"/><path fill="#a9b2a2" d="m196.883 266.91 11.883 18.488-22.86 1.758ZM222.262 260.29l-25.38 6.62 3.763-14.473Zm0 0"/><path fill="#a8b1a1" d="m202.598 238.078 19.664 22.211-21.617-7.851Zm0 0"/><path fill="#2e222f" d="m172.191 218.473-1.93 17.894-17.003-8.77Zm0 0"/><path fill="#2f232f" d="m202.598 238.078-14.7-6.851 13.301-5.586Zm0 0"/><path fill="#2e222f" d="m187.898 231.227 3.356-21.395 9.945 15.809Zm0 0"/><path fill="#2e222f" d="m191.254 209.832-3.356 21.395-15.707-12.754Zm0 0"/><path fill="#2e222f" d="m187.898 231.227-17.636 5.14 1.93-17.894Zm0 0"/><path fill="#f0ea8a" d="m316.86 318.852 27.949 1.996-14.793 17.773Zm0 0"/><path fill="#2e222f" d="m359.035 276.977-25.394 21.964-10.48-19.558Zm0 0"/><path fill="#f1eb8a" d="m384 168.242-15.238-7.691L384 101.69Zm0 0"/><path fill="#f1eb8a" d="m368.762 160.55-18.512-40.816L384 101.691Zm0 0"/><path fill="#758684" d="m365.828 186.754-14.156 25.375-12.27-20.602Zm0 0"/><path fill="#352a32" d="m383.988 346.27-25.37-1.332 3.788-23.93Zm0 0"/><path fill="#2e222f" d="m362.406 321.008-3.789 23.93-13.808-24.09Zm0 0"/><path fill="#f1eb8a" d="M323.8 362.914 384 384h-88.312Zm0 0"/><path fill="#e0db86" d="m299.066 333.508-20.37-.508 16.062-12.73Zm0 0"/><path fill="#f1eb8a" d="m384 384-60.2-21.086 40.134-1.36Zm0 0"/><path fill="#f1eb8a" d="m358.617 344.938-34.816 17.976 6.215-24.293Zm0 0"/><path fill="#f1eb8a" d="m323.8 362.914 34.817-17.976 5.317 16.617Zm0 0"/><path fill="#2e222f" d="m238.016 334.074-.278 12.621-12.984-2.457Zm0 0"/><path fill="#302430" d="m238.016 334.074-13.262 10.164 9.648-15.437Zm0 0"/><path fill="#2e222f" d="m344.809 320.848-27.711-7.114 16.543-14.793ZM317.098 313.734l-5.957-11.648 22.5-3.145Zm0 0"/><path fill="#302530" d="m316.86 318.852.238-5.118 27.71 7.114Zm0 0"/><path fill="#f1eb8a" d="m248.285 358.621 21.824 7.293L236.625 384Zm0 0"/><path fill="#efea8a" d="m270.11 365.914-21.825-7.293 16.945-14.492Zm0 0"/><path fill="#a9b1a2" d="M94.746 0 123.2 14.828l-9.043 25.332Zm0 0"/><path fill="#a8b1a1" d="M77.082 27.117 94.746 0l19.41 40.16ZM210.004 31.629 195.71 49.098l10.871-25.434ZM121.176 0h13.695L123.2 14.828Zm0 0"/><path fill="#a8b1a1" d="m134.871 0 24.902 38.508-36.574-23.68Zm0 0"/><path fill="#a9b2a2" d="m167.371 86.543 28.34-37.445 19.383 46.117Zm0 0"/><path fill="#a9b2a2" d="m208.379 147.813-41.008-61.27 47.723 8.672ZM141.57 107.055l25.801-20.512-11.387 53.312Zm0 0"/><path fill="#a9b2a2" d="m167.371 86.543 41.008 61.27-52.395-7.958ZM78.395 59.492l-1.313-32.375 37.074 13.043ZM41.82 37.59 0 55.73V0Zm0 0"/><path fill="#a9b2a2" d="M56.473 0 41.82 37.59 0 0ZM41.82 37.59 56.473 0l20.609 27.117ZM41.82 37.59 36.371 79.94 0 55.731ZM67.234 89.191l-17.96 21.895L36.37 79.94Zm0 0"/><path fill="#adab8f" d="m168.95 175.813-39.942 9.214 26.976-45.172Zm0 0"/><path fill="#b0a986" d="m106.723 161.14-9.903 11.192-4.36-13.398Zm0 0"/><path fill="#afa987" d="m96.82 172.332 9.903-11.191 22.285 23.886Zm0 0"/><path fill="#a8b1a1" d="M83.672 104.168 67.234 89.191l23.512-4.472Zm0 0"/><path fill="#312530" d="m102.984 100.773-19.312 3.395 7.074-19.45Zm0 0"/><path fill="#f0ea8a" d="m46.07 345.469-18.543 7.883 3.684-10.614Zm0 0"/><path fill="#f1eb8a" d="m27.527 353.352 18.543-7.883-2.113 20.562Zm0 0"/><path fill="#2e222f" d="m78.93 356.254-32.86-10.785 1.953-15.578Zm0 0"/><path fill="#302430" d="m78.93 356.254-10.942 4.816L46.07 345.47Zm0 0"/><path fill="#2e222f" d="M90.887 343.11 78.93 356.253 48.023 329.89Zm0 0"/><path fill="#766c51" d="m-.012 194.664 29.227-14.754 3.683 19.192Zm0 0"/><path fill="#7e7555" d="m-.012 194.664 32.91 4.438-32.918 44.62Zm0 0"/><path fill="#8e875f" d="m141.336 296.906 14.836-10.531 8.969 9.813Zm0 0"/><path fill="#999061" d="m155.73 278.105.442 8.27-9.203-5.379Zm0 0"/><path fill="#8a815b" d="m156.172 286.375-14.836 10.531 5.633-15.91Zm0 0"/><path fill="#9f9879" d="m56.336 192.07 22.137-.629-4.891 21.086Zm0 0"/><path fill="#5e564b" d="m56.336 192.07 17.246 20.457-25.742 4.723Zm0 0"/><path fill="#b0a986" d="m78.473 191.441 16.988 15.805-21.879 5.281Zm0 0"/><path fill="#b0a986" d="m95.46 207.246-16.987-15.805 15.27-5.785Zm0 0"/><path fill="#afa886" d="M134.453 218.379 113 225.926l16.008-40.899Zm0 0"/><path fill="#aba46c" d="m99.883 254.852 13.176.496-4.297 16.527Zm0 0"/><path fill="#2f232f" d="m155.73 278.105-8.761 2.891-1.48-26.863Zm0 0"/><path fill="#f1eb8a" d="M317.188 42.512 384 0v47.246ZM317.188 42.512l-48.145 5.254L281.832 0Zm0 0"/><path fill="#f1eb8a" d="M317.188 42.512 281.832 0H384Zm0 0"/><path fill="#362d38" d="m316.906 116.305-4.996-2.239 13.781-14.34Zm0 0"/><path fill="#312631" d="m325.984 119.574-9.078-3.27 8.785-16.577Zm0 0"/><path fill="#a8b1a1" d="m311.91 114.066-1.27 18.457-18.37-25.503Zm0 0"/><path fill="#a9b2a2" d="m310.64 132.523-52.374-9.12 34.004-16.383Zm0 0"/><path fill="#a9b2a2" d="m310.64 132.523-17.097 21.223-35.277-30.344Zm0 0"/><path fill="#a8b1a1" d="m316.906 116.305-6.265 16.218 1.27-18.457Zm0 0"/><path fill="#302431" d="m307.969 100.441 3.941 13.625-19.64-7.046Zm0 0"/><path fill="#2e222f" d="m298.52 92.992 9.449 7.45-15.7 6.578Zm0 0"/><path fill="#2e222f" d="m312.602 83.879-4.633 16.562-9.45-7.449Zm0 0"/><path fill="#312632" d="m311.91 114.066-3.941-13.625 17.722-.714Zm0 0"/><path fill="#2f2430" d="m307.969 100.441 4.633-16.562 13.09 15.848Zm0 0"/><path fill="#97a398" d="m316.906 116.305 9.078 3.27-15.343 12.948Zm0 0"/><path fill="#788a86" d="m310.64 132.523 24.235 5.235-7.719 25.433Zm0 0"/><path fill="#778986" d="m310.64 132.523 15.344-12.949 8.891 18.184Zm0 0"/><path fill="#f1eb8a" d="M344.992 73.36 384 101.69l-42.473-11.636ZM317.188 42.512l-24.872 34.453-7.617-12.188ZM312.602 83.879l-20.286-6.914 24.872-34.453Zm0 0"/><path fill="#2f2330" d="m292.316 76.965 20.286 6.914-14.082 9.113Zm0 0"/><path fill="#a8b1a1" d="m239.05 75.754-3.73-36.988 33.723 9Zm0 0"/><path fill="#a9b2a2" d="m235.32 38.766 3.73 36.988-43.34-26.656ZM282.996 172.883l-25.433-13.422 35.98-5.715ZM238.004 188.09l25.848-4.824-9.082 24.93Zm0 0"/><path fill="#a9b2a2" d="m263.852 183.266-25.848 4.824 19.559-28.63Zm0 0"/><path fill="#a9b2a2" d="m282.996 172.883-19.144 10.383-6.29-23.805Zm0 0"/><path fill="#afa886" d="m143.578 233.656 2.281-13.351 7.399 7.293Zm0 0"/><path fill="#2f232f" d="m155.504 240.809-11.926-7.153 9.68-6.058Zm0 0"/><path fill="#afa886" d="m134.453 218.379 9.125 15.277-12.433-2.629Zm0 0"/><path fill="#afa886" d="m143.578 233.656-9.125-15.277 11.406 1.926Zm0 0"/><path fill="#352932" d="m184.871 201.668-20.848 1.2 19.848-7.106Zm0 0"/><path fill="#a59d6e" d="m184.871 201.668-1-5.906 8.113 3.261Zm0 0"/><path fill="#2e222f" d="m184.871 201.668 6.383 8.164-19.063 8.64Zm0 0"/><path fill="#2f232f" d="m164.023 202.867 20.848-1.199-12.68 16.805Zm0 0"/><path fill="#8b8361" d="m184.871 201.668 7.113-2.645-.73 10.809Zm0 0"/><path fill="#a8b1a1" d="m315.215 214.27-9.55-16.993L322.151 194ZM339.402 191.527l-.086 22.442L322.152 194Zm0 0"/><path fill="#a8b1a1" d="m339.316 213.969-24.101.3L322.152 194ZM322.152 194l-16.488 3.277-1.863-19.511ZM339.402 191.527 322.152 194l5.004-30.809Zm0 0"/><path fill="#a8b1a1" d="m322.152 194-18.351-16.234 23.355-14.575Zm0 0"/><path fill="#f1eb8a" d="m365.828 186.754-8.207-24.563 11.14-1.64Zm0 0"/><path fill="#798b86" d="m357.621 162.191 8.207 24.563-26.426 4.773Zm0 0"/><path fill="#788a87" d="m327.156 163.191 30.465-1-18.219 29.336Zm0 0"/><path fill="#a9b2a2" d="m220.55 230.898 1.712 29.391-19.664-22.21Zm0 0"/><path fill="#a8b1a1" d="m220.55 230.898-17.952 7.18-1.399-12.437Zm0 0"/><path fill="#a8b1a1" d="m213.957 201.398 6.594 29.5-19.352-5.257Zm0 0"/><path fill="#2e222f" d="m314.344 242.695-16.899 6.946-2.414-13.95Zm0 0"/><path fill="#2e222f" d="m297.445 249.64 16.899-6.945-3.149 14.653Zm0 0"/><path fill="#2e222f" d="m299.586 263.633-2.14-13.992 13.75 7.707Zm0 0"/><path fill="#7b8c88" d="m299.586 263.633 11.61-6.285 11.964 22.035Zm0 0"/><path fill="#a7b0a1" d="m295.082 286.066 4.504-22.433 23.574 15.75Zm0 0"/><path fill="#2e222f" d="m254.96 219.965-.19-11.77 11.222 11.375Zm0 0"/><path fill="#2f232f" d="m145.488 254.133-1.91-20.477 11.926 7.153Zm0 0"/><path fill="#2e222f" d="m170.262 236.367-14.758 4.442-2.246-13.211Zm0 0"/><path fill="#a9b2a2" d="m196.883 266.91-10.344-18.851 14.106 4.379Zm0 0"/><path fill="#2e222f" d="m187.898 231.227-1.359 16.832-16.277-11.692ZM186.54 248.059l1.358-16.832 14.7 6.851Zm0 0"/><path fill="#a8b1a1" d="m186.54 248.059 16.058-9.98-1.953 14.358Zm0 0"/><path fill="#392d34" d="m383.984 300.855-24.949-23.878 24.973-51.98Zm0 0"/><path fill="#ede789" d="m294.758 320.27 22.101-1.418-17.793 14.656Zm0 0"/><path fill="#2f232f" d="m294.758 320.27 22.34-6.536-.239 5.118Zm0 0"/><path fill="#2e222f" d="m357.598 303.527-12.79 17.32-11.167-21.906Zm0 0"/><path fill="#2f232f" d="m357.598 303.527 4.808 17.48-17.597-.16Zm0 0"/><path fill="#2e222f" d="m362.406 321.008-4.808-17.48 26.386-2.673Zm0 0"/><path fill="#322630" d="m357.598 303.527 1.437-26.55 24.95 23.878Zm0 0"/><path fill="#2e222f" d="m359.035 276.977-1.437 26.55-23.957-4.586Zm0 0"/><path fill="#778986" d="m311.195 257.348 21.75-3.828-9.785 25.863Zm0 0"/><path fill="#2e222f" d="m332.945 253.52 26.09 23.457-35.875 2.406ZM359.035 276.977l7.805-56.485 17.168 4.504ZM347.762 229.195l19.078-8.703-7.805 56.485Zm0 0"/><path fill="#f1eb8a" d="m365.828 186.754 2.934-26.203L384 168.242ZM365.828 186.754 384 168.242l.008 35.996ZM368.762 160.55l-11.14 1.641-7.372-42.457Zm0 0"/><path fill="#778986" d="m339.402 191.527 12.27 20.602-12.356 1.84Zm0 0"/><path fill="#423738" d="m384.008 224.996-17.168-4.504 17.168-16.254Zm0 0"/><path fill="#3c3035" d="m366.84 220.492-1.012-33.738 18.18 17.484Zm0 0"/><path fill="#352932" d="m366.84 220.492-15.168-8.363 14.156-25.375Zm0 0"/><path fill="#f1eb8a" d="m384 354.418-25.383-9.48 25.371 1.332ZM358.617 344.938l25.383 9.48-20.066 7.137ZM384 354.418V384l-20.066-22.445ZM270.11 365.914l21.761-12.039L295.688 384Zm0 0"/><path fill="#f1eb8a" d="m291.871 353.875 31.93 9.04L295.688 384Zm0 0"/><path fill="#efe98a" d="m291.871 353.875-21.762 12.04-4.879-21.786Zm0 0"/><path fill="#ebe68a" d="m278.695 333 13.176 20.875-26.64-9.746Zm0 0"/><path fill="#ede88a" d="M291.871 353.875 278.695 333l20.371.508Zm0 0"/><path fill="#f0ea8a" d="m312.035 341.668 4.824-22.816 13.157 19.77Zm0 0"/><path fill="#f0eb8a" d="m316.86 318.852-4.825 22.816-12.969-8.16ZM323.8 362.914l-11.765-21.246 17.98-3.047Zm0 0"/><path fill="#f0ea8a" d="m312.035 341.668-20.164 12.207 7.195-20.367Zm0 0"/><path fill="#f1eb8a" d="m291.871 353.875 20.164-12.207 11.766 21.246Zm0 0"/><path fill="#7d8a7f" d="m262.465 331.04 16.23 1.96-13.465 11.129Zm0 0"/><path fill="#2e222f" d="m216.934 303.797 16.254 3.648 1.214 21.356Zm0 0"/><path fill="#a9b2a2" d="m279.063 272.113-4.465 17.61-22.114-12.985Zm0 0"/><path fill="#74827f" d="m286.691 306.543 8.391-20.477 16.059 16.02Zm0 0"/><path fill="#a7b0a0" d="m208.766 285.398-9.582 23.305-13.278-21.547Zm0 0"/><path fill="#cac57d" d="m199.184 308.703 9.582-23.305 8.168 18.399Zm0 0"/><path fill="#2f232f" d="m199.184 308.703 17.75-4.906 17.468 25.004Zm0 0"/><path fill="#d8d17f" d="m190.555 320.816 8.629-12.113 35.218 20.098Zm0 0"/><path fill="#2e222f" d="m125.465 311.504-12.707 24.73-31.301-29.254ZM90.887 343.11l21.87-6.876-7.019 23.895Zm0 0"/><path fill="#2e222f" d="m112.758 336.234-21.871 6.875-9.43-36.129Zm0 0"/><path fill="#a9b2a2" d="m114.156 40.16 9.153 40.32-44.914-20.988Zm0 0"/><path fill="#f1eb8a" d="m281.832 0-75.25 23.664-10-23.664Zm0 0"/><path fill="#f1eb8a" d="M206.582 23.664 281.832 0l-12.789 47.766Zm0 0"/><path fill="#f1eb8a" d="m235.32 38.766-28.738-15.102 62.461 24.102Zm0 0"/><path fill="#f1eb8b" d="m206.582 23.664 28.738 15.102-25.316-7.137Zm0 0"/><path fill="#a9b2a2" d="m159.773 38.508 25.047-19.223 10.89 29.813Zm0 0"/><path fill="#a8b1a1" d="m134.871 0 49.95 19.285-25.048 19.223Zm0 0"/><path fill="#a9b2a2" d="m195.71 49.098-10.89-29.813 21.762 4.38Zm0 0"/><path fill="#f1eb8a" d="M184.82 19.285 196.582 0l10 23.664Zm0 0"/><path fill="#f1eb8a" d="M196.582 0 184.82 19.285 134.871 0Zm0 0"/><path fill="#332731" d="m123.797 118.5-18.832 2.527-1.98-20.254Zm0 0"/><path fill="#a9b2a2" d="M141.57 107.055 123.31 80.48l44.062 6.063ZM78.395 59.492 41.82 37.59l35.262-10.473ZM49.273 111.086l-24.101 6.594 11.2-37.739Zm0 0"/><path fill="#afa887" d="m106.723 161.14 20.359-12.042 1.926 35.93Zm0 0"/><path fill="#aeaa8c" d="m129.008 185.027-1.926-35.93 28.902-9.242Zm0 0"/><path fill="#a8b1a1" d="m127.082 149.098-3.285-30.598 32.187 21.355Zm0 0"/><path fill="#2e222f" d="m72.219 159 9.75-30.965 10.492 30.899Zm0 0"/><path fill="#a8b1a1" d="m83.672 104.168-12.695 8.836-3.743-23.813Zm0 0"/><path fill="#3a2f35" d="m107.652 135.324-2.687-14.297 18.832-2.527Zm0 0"/><path fill="#a4a375" d="m127.082 149.098-19.43-13.774 16.145-16.824Zm0 0"/><path fill="#2e222f" d="m81.969 128.035 25.683 7.29-15.191 23.609Zm0 0"/><path fill="#8b835f" d="m107.652 135.324-.93 25.817-14.261-2.207Zm0 0"/><path fill="#9f9670" d="m107.652 135.324 19.43 13.774-20.36 12.043Zm0 0"/><path fill="#2e222f" d="m88.398 360.426-9.468-4.172 11.957-13.145ZM88.398 360.426l2.489-17.317 14.851 17.02Zm0 0"/><path fill="#f1eb8a" d="m94.61 374.758-6.212-14.332 17.34-.297ZM88.398 360.426l6.211 14.332-14.406-8.477Zm0 0"/><path fill="#a8b1a1" d="m29.215 179.91-8.735-28.273 16.891 10.312Zm0 0"/><path fill="#a0a787" d="m20.48 151.637 8.735 28.273-29.227 14.754Zm0 0"/><path fill="#a8a06a" d="m-.008 139.11 20.488 12.527-20.492 43.027Zm0 0"/><path fill="#a8b1a1" d="m25.172 117.68 16.933 19.101-21.625 14.856Zm0 0"/><path fill="#a8b1a1" d="m42.105 136.781-4.734 25.168-16.89-10.312Zm0 0"/><path fill="#362a32" d="m81.457 306.98 27.305-35.105 12.48 11.473Zm0 0"/><path fill="#afa886" d="m93.742 185.656-11.215-9.902 14.293-3.422ZM96.82 172.332l-11.3-3.52 6.94-9.878Zm0 0"/><path fill="#b1aa85" d="m82.527 175.754 2.993-6.941 11.3 3.519Zm0 0"/><path fill="#524741" d="m85.52 168.813-2.993 6.94L72.22 159Zm0 0"/><path fill="#2e222f" d="M85.52 168.813 72.219 159l20.242-.066Zm0 0"/><path fill="#b1aa80" d="m73.582 212.527 21.879-5.28.695 24.956Zm0 0"/><path fill="#afa886" d="m113 225.926 21.453-7.547-3.308 12.648Zm0 0"/><path fill="#afa887" d="m95.46 207.246 17.54 18.68-16.844 6.277Zm0 0"/><path fill="#2e222f" d="m129.71 245.164 13.868-11.508 1.91 20.477Zm0 0"/><path fill="#afa886" d="m143.578 233.656-13.867 11.508 1.434-14.137ZM129.71 245.164 113 225.926l18.145 5.101Zm0 0"/><path fill="#b4ad82" d="M96.156 232.203 113 225.926l.059 29.422Zm0 0"/><path fill="#bcb579" d="m99.883 254.852-3.727-22.649 16.903 23.145Zm0 0"/><path fill="#958d66" d="m86.965 237.043 9.191-4.84 3.727 22.649Zm0 0"/><path fill="#afa886" d="m129.008 185.027-33.547 22.22-1.719-21.59Zm0 0"/><path fill="#afa886" d="m95.46 207.246 33.548-22.219L113 225.926Zm0 0"/><path fill="#f1eb8a" d="m334.875 137.758-8.89-18.184 24.265.16ZM384 101.691 344.992 73.36 384 47.246Zm0 0"/><path fill="#a8b1a1" d="m293.543 153.746 17.098-21.223 16.515 30.668Zm0 0"/><path fill="#a9b2a2" d="m303.8 177.766-10.257-24.02 33.613 9.445Zm0 0"/><path fill="#a9b2a2" d="m282.996 172.883 10.547-19.137 10.258 24.02Zm0 0"/><path fill="#a8b1a1" d="m297.77 207.52 7.894-10.243 9.55 16.993Zm0 0"/><path fill="#2e222f" d="m297.77 207.52 17.445 6.75-20.184 21.421Zm0 0"/><path fill="#2f232f" d="m278.582 229.59 19.188-22.07-2.739 28.171Zm0 0"/><path fill="#2e222f" d="m297.77 207.52-19.188 22.07-12.59-10.02ZM315.215 214.27l-.871 28.425-19.313-7.004Zm0 0"/><path fill="#a8b1a1" d="m279.063 272.113 16.019 13.953-20.484 3.657Zm0 0"/><path fill="#a8b1a1" d="m279.063 272.113 20.523-8.48-4.504 22.433ZM254.96 219.965l-16.667-.805 16.477-10.965Zm0 0"/><path fill="#a8b1a1" d="m254.96 219.965.384 9.762-17.051-10.567Zm0 0"/><path fill="#2e222f" d="m255.344 229.727-.383-9.762 11.031-.395ZM145.488 254.133l20.285 1.226-10.043 22.746Zm0 0"/><path fill="#2e222f" d="m165.773 255.36-20.285-1.227 10.016-13.324Zm0 0"/><path fill="#2e222f" d="m170.262 236.367-4.489 18.992-10.27-14.55Zm0 0"/><path fill="#857d59" d="m156.172 286.375 9.187-8.309-.218 18.122Zm0 0"/><path fill="#aaa773" d="m165.36 278.066 20.546 9.09-20.765 9.031Zm0 0"/><path fill="#a09865" d="m165.36 278.066-9.188 8.309-.442-8.27Zm0 0"/><path fill="#2f232f" d="m165.773 255.36-.414 22.706-9.629.04Zm0 0"/><path fill="#302430" d="m294.758 320.27 16.383-18.184 5.957 11.648Zm0 0"/><path fill="#38303a" d="m332.945 253.52-21.75 3.828 3.149-14.653Zm0 0"/><path fill="#2e222f" d="m332.945 253.52 14.817-24.325 11.273 47.782Zm0 0"/><path fill="#3c3640" d="m315.215 214.27 19.457 12.12-20.328 16.305Zm0 0"/><path fill="#352c37" d="m334.672 226.39-1.727 27.13-18.601-10.825Zm0 0"/><path fill="#5b5d5e" d="m332.945 253.52 1.727-27.13 13.09 2.805Zm0 0"/><path fill="#a8b1a1" d="m334.672 226.39-19.457-12.12 24.101-.301Zm0 0"/><path fill="#2e222f" d="m347.762 229.195 3.91-17.066 15.168 8.363Zm0 0"/><path fill="#778986" d="m351.672 212.129-3.91 17.066-8.446-15.226Zm0 0"/><path fill="#778886" d="m347.762 229.195-13.09-2.804 4.644-12.422Zm0 0"/><path fill="#9da481" d="m262.465 331.04-28.063-2.24 22.059-10.905Zm0 0"/><path fill="#a8b1a1" d="m270.258 301.285 4.347 19.664-18.144-3.054Zm0 0"/><path fill="#8e9a88" d="m274.605 320.95-12.14 10.09-6.004-13.145Zm0 0"/><path fill="#4b474b" d="m262.465 331.04 12.14-10.09 4.09 12.05Zm0 0"/><path fill="#6d736c" d="m278.695 333-4.09-12.05 20.153-.68Zm0 0"/><path fill="#efe98a" d="m248.988 344.617-.703 14.004-10.547-11.926Zm0 0"/><path fill="#ebe78a" d="m248.285 358.621.703-14.004 16.242-.488Zm0 0"/><path fill="#2f232f" d="m248.988 344.617 13.477-13.578 2.765 13.09Zm0 0"/><path fill="#919d93" d="m229.902 289.805 3.286 17.64-16.254-3.648Zm0 0"/><path fill="#a9b2a2" d="m229.902 289.805-21.136-4.407 13.496-25.109Zm0 0"/><path fill="#a8b1a1" d="m208.766 285.398 21.136 4.407-12.968 13.992ZM286.691 306.543l-12.093-16.82 20.484-3.657Zm0 0"/><path fill="#2e222f" d="m262.082 298.059 8.176 3.226-13.797 16.61Zm0 0"/><path fill="#a8b1a1" d="m262.082 298.059 12.516-8.336-4.34 11.562Zm0 0"/><path fill="#a9b2a2" d="m274.598 289.723-12.516 8.336-9.598-21.32Zm0 0"/><path fill="#f1eb8a" d="m202.441 364.695 24.621-5.55L236.626 384Zm0 0"/><path fill="#302430" d="m224.754 344.238-13.645-8.64 23.293-6.797Zm0 0"/><path fill="#dad480" d="m211.11 335.598-20.555-14.782 43.847 7.985Zm0 0"/><path fill="#f1eb8a" d="m146.805 370.512 20-12.274-6.739 25.766Zm0 0"/><path fill="#f1eb8a" d="m150.895 356.645 15.91 1.593-20 12.274Zm0 0"/><path fill="#ebe588" d="m147.938 343.742 2.554-10.996 17.684 6.438Zm0 0"/><path fill="#9f9f74" d="m185.906 287.156-7.746 21.77-13.02-12.738Zm0 0"/><path fill="#b5ae70" d="m178.16 308.926 21.024-.223-8.63 12.113Zm0 0"/><path fill="#c6c37e" d="m199.184 308.703-21.024.223 7.746-21.77Zm0 0"/><path fill="#443939" d="m150.492 332.746 9.54-10.254 8.144 16.692Zm0 0"/><path fill="#554a41" d="m145.934 315.52 14.097 6.972-9.539 10.254Zm0 0"/><path fill="#2e222f" d="m135.617 333.773-22.86 2.461 12.708-24.73ZM135.617 333.773l10.317-18.253 4.558 17.226Zm0 0"/><path fill="#2f232f" d="m147.938 343.742-12.32-9.969 14.874-1.027Zm0 0"/><path fill="#2e222f" d="m145.934 315.52-20.47-4.016 15.872-14.598Zm0 0"/><path fill="#2e222f" d="m135.617 333.773-10.152-22.27 20.469 4.017Zm0 0"/><path fill="#302430" d="m125.465 311.504-44.008-4.524 39.785-23.632Zm0 0"/><path fill="#312530" d="m125.465 311.504-4.223-28.156 20.094 13.558Zm0 0"/><path fill="#655b49" d="m161.953 309.371-16.02 6.149-4.597-18.614Zm0 0"/><path fill="#645a48" d="m161.953 309.371-1.922 13.121-14.097-6.972Zm0 0"/><path fill="#928a5f" d="m161.953 309.371-20.617-12.465 23.805-.719Zm0 0"/><path fill="#787f75" d="m123.309 80.48.488 38.02-20.813-17.727Zm0 0"/><path fill="#a8b1a1" d="m123.309 80.48-20.325 20.293L90.746 84.72ZM123.309 80.48l18.261 26.575-17.773 11.445ZM36.371 79.941l-11.2 37.739L0 97.602ZM56.336 192.07l-12.594-15 11.574-2.742ZM43.742 177.07l7.371-15.632 4.203 12.89ZM42.105 136.781l9.008 24.656-13.742.512Zm0 0"/><path fill="#a8b1a1" d="m51.113 161.438-7.37 15.632-6.372-15.12Zm0 0"/><path fill="#767361" d="m55.316 174.328-4.203-12.89L72.22 159Zm0 0"/><path fill="#2e222f" d="m107.652 135.324-25.683-7.289 22.996-7.008ZM104.965 121.027l-22.996 7.008 21.015-27.262Zm0 0"/><path fill="#302530" d="m70.977 113.004 10.992 15.031-22.934-2.285Zm0 0"/><path fill="#2e222f" d="m81.969 128.035 1.703-23.867 19.312-3.395Zm0 0"/><path fill="#2e222f" d="m81.969 128.035-10.992-15.031 12.695-8.836Zm0 0"/><path fill="#ebe588" d="m88.398 360.426-8.195 5.855-1.273-10.027Zm0 0"/><path fill="#ebe587" d="m78.93 356.254 1.273 10.027-12.215-5.21Zm0 0"/><path fill="#b0a986" d="m93.742 185.656-15.27 5.785 4.055-15.687Zm0 0"/><path fill="#2f2330" d="m124.746 265.938 4.965-20.774 15.777 8.969Zm0 0"/><path fill="#2e222f" d="m146.969 280.996-22.223-15.058 20.742-11.805ZM72.883 270.828l27-15.976 8.879 17.023Zm0 0"/><path fill="#2f232f" d="m72.883 270.828 14.082-33.785 12.918 17.809Zm0 0"/><path fill="#2e222f" d="m86.965 237.043-14.082 33.785-19.258-27.254Zm0 0"/><path fill="#362a32" d="m72.883 270.828 35.879 1.047-27.305 35.105Zm0 0"/><path fill="#433738" d="m72.883 270.828-43.781 11.18 24.523-38.434Zm0 0"/><path fill="#3b3035" d="m72.883 270.828 8.574 36.152-52.355-24.972Zm0 0"/><path fill="#a8b1a1" d="m269.121 68.695-30.07 7.059 29.992-27.988Zm0 0"/><path fill="#a9b2a2" d="m269.121 68.695-.023 23.774-30.047-16.715Zm0 0"/><path fill="#788a87" d="m269.121 68.695 11.617 5.133-11.64 18.64Zm0 0"/><path fill="#778886" d="m284.7 64.777-15.579 3.918-.078-20.93Zm0 0"/><path fill="#778986" d="m269.121 68.695 15.578-3.918-3.96 9.051Zm0 0"/><path fill="#54585d" d="m269.098 92.469 23.218-15.504-5.726 18.832Zm0 0"/><path fill="#302531" d="m292.316 76.965 6.204 16.027-11.93 2.805Zm0 0"/><path fill="#a8b1a1" d="m297.77 207.52-10.293-18.168 18.187 7.925ZM305.664 197.277l-18.187-7.925 16.324-11.586Zm0 0"/><path fill="#a8b1a1" d="m287.477 189.352-4.48-16.47 20.804 4.884ZM287.477 189.352l-23.625-6.086 19.144-10.383Zm0 0"/><path fill="#2e222f" d="m254.77 208.195 32.707-18.843-21.485 30.218ZM263.852 183.266l23.625 6.086-32.707 18.843Zm0 0"/><path fill="#312631" d="m287.477 189.352 10.293 18.168-31.778 12.05Zm0 0"/><path fill="#a9b2a2" d="m267.766 255.418 11.296 16.695-26.578 4.625Zm0 0"/><path fill="#2e222f" d="m186.54 248.059-20.767 7.3 4.489-18.992Zm0 0"/><path fill="#a8b1a1" d="m286.691 306.543-12.086 14.406-4.347-19.664Zm0 0"/><path fill="#a9b2a2" d="m274.598 289.723 12.093 16.82-16.433-5.258Zm0 0"/><path fill="#515155" d="m274.605 320.95 12.086-14.407 8.067 13.727Zm0 0"/><path fill="#5b5b58" d="m286.691 306.543 24.45-4.457-16.383 18.184Zm0 0"/><path fill="#2e222f" d="m248.988 344.617-10.972-10.543 24.449-3.035Zm0 0"/><path fill="#362a32" d="m238.016 334.074-3.614-5.273 28.063 2.238Zm0 0"/><path fill="#2e222f" d="m238.016 334.074 10.972 10.543-11.25 2.078Zm0 0"/><path fill="#a9b2a2" d="m252.484 276.738-30.222-16.449 24.222-14.297Zm0 0"/><path fill="#a9b2a2" d="m252.484 276.738-22.582 13.067-7.64-29.516Zm0 0"/><path fill="#2e222f" d="m244.836 305.566-10.434 23.235-1.214-21.356Zm0 0"/><path fill="#a8b1a1" d="m262.082 298.059-17.246 7.507 7.648-28.828Zm0 0"/><path fill="#2e222f" d="m234.402 328.8 10.434-23.234 11.625 12.329ZM244.836 305.566l17.246-7.507-5.621 19.836Zm0 0"/><path fill="#a9b2a2" d="m244.836 305.566-14.934-15.761 22.582-13.067Zm0 0"/><path fill="#a8b1a1" d="m229.902 289.805 14.934 15.761-11.649 1.88Zm0 0"/><path fill="#f1eb8a" d="m160.066 384.004 42.375-19.309L236.625 384ZM212.484 348.508l12.27-4.27 2.309 14.907ZM202.441 364.695l10.043-16.187 14.578 10.637Zm0 0"/><path fill="#332731" d="m212.484 348.508-1.375-12.91 13.645 8.64Zm0 0"/><path fill="#8a815a" d="m183.43 327.078-9.97-6.5 17.095.238Zm0 0"/><path fill="#958d61" d="m173.46 320.578 4.7-11.652 12.395 11.89Zm0 0"/><path fill="#837b59" d="m178.16 308.926-4.7 11.652-11.507-11.207Zm0 0"/><path fill="#70674e" d="m173.46 320.578-13.429 1.914 1.922-13.12Zm0 0"/><path fill="#7e7454" d="m173.46 320.578 9.97 6.5-15.254 12.106Zm0 0"/><path fill="#6d634c" d="m160.031 322.492 13.43-1.914-5.285 18.606Zm0 0"/><path fill="#f0ea8a" d="m166.805 358.238-18.868-14.496 20.239-4.558Zm0 0"/><path fill="#f1eb8a" d="m166.805 358.238 35.636 6.457-42.375 19.309Zm0 0"/><path fill="#f0eb8a" d="m147.938 343.742 18.867 14.496-15.91-1.593Zm0 0"/><path fill="#2e222f" d="m135.617 333.773 1.774 23.317-24.633-20.856Zm0 0"/><path fill="#2e222f" d="m137.39 357.09-1.773-23.317 12.32 9.97Zm0 0"/><path fill="#342832" d="m137.39 357.09 10.548-13.348 2.957 12.903Zm0 0"/><path fill="#2e222f" d="m112.758 336.234 24.633 20.856-31.653 3.039Zm0 0"/><path fill="#f0ea8a" d="m137.39 357.09 9.415 13.422-41.067-10.383Zm0 0"/><path fill="#f1eb8a" d="m137.39 357.09 13.505-.445-4.09 13.867Zm0 0"/><path fill="#827a58" d="m178.16 308.926-16.207.445 3.188-13.183Zm0 0"/><path fill="#a9b2a2" d="m41.82 37.59 36.575 21.902-42.024 20.45ZM42.105 136.781l7.168-25.695 9.762 14.664ZM49.273 111.086l21.704 1.918-11.942 12.746Zm0 0"/><path fill="#a9b2a2" d="m70.977 113.004-21.704-1.918L67.234 89.19ZM42.105 136.781 25.172 117.68l24.101-6.594Zm0 0"/><path fill="#514640" d="m43.742 177.07 12.594 15-23.438 7.032Zm0 0"/><path fill="#807e63" d="m29.215 179.91 14.527-2.84-10.844 22.032Zm0 0"/><path fill="#a8b1a1" d="m43.742 177.07-14.527 2.84 8.156-17.96ZM55.652 141.223l-4.539 20.214-9.008-24.656Zm0 0"/><path fill="#6e6a5b" d="m51.113 161.438 4.54-20.215L72.218 159Zm0 0"/><path fill="#afa886" d="m78.473 191.441-7.086-12.296 11.14-3.391Zm0 0"/><path fill="#666963" d="m71.387 179.145-16.07-4.817L72.218 159Zm0 0"/><path fill="#483d3c" d="m82.527 175.754-11.14 3.39.832-20.144Zm0 0"/><path fill="#41373a" d="M71.387 179.145 56.336 192.07l-1.02-17.742Zm0 0"/><path fill="#afa886" d="m71.387 179.145 7.086 12.296-22.137.63Zm0 0"/><path fill="#778986" d="m292.316 76.965-11.578-3.137 3.961-9.05Zm0 0"/><path fill="#778986" d="m280.738 73.828 11.578 3.137-23.218 15.504Zm0 0"/><path fill="#302431" d="m297.445 249.64-12.789 7.883-6.644-11.39Zm0 0"/><path fill="#a8b1a1" d="m284.656 257.523-16.89-2.105 10.246-9.285Zm0 0"/><path fill="#a9b2a2" d="m267.766 255.418 16.89 2.105-5.594 14.59Zm0 0"/><path fill="#2e222f" d="m299.586 263.633-14.93-6.11 12.79-7.882Zm0 0"/><path fill="#a8b1a1" d="m279.063 272.113 5.593-14.59 14.93 6.11Zm0 0"/><path fill="#a4a578" d="m165.36 278.066 15.581-11.3 4.965 20.39Zm0 0"/><path fill="#2e222f" d="m180.941 266.766-15.582 11.3.414-22.707ZM180.941 266.766l-15.168-11.407 20.766-7.3Zm0 0"/><path fill="#a8b1a1" d="m196.883 266.91-15.942-.144 5.598-18.707ZM185.906 287.156l-4.965-20.39 15.942.144Zm0 0"/><path fill="#807755" d="m212.484 348.508-16.496-7.91 15.121-5Zm0 0"/><path fill="#a19865" d="m211.11 335.598-15.122 5-5.433-19.782Zm0 0"/><path fill="#5d5245" d="m195.988 340.598-12.558-13.52 7.125-6.262Zm0 0"/><path fill="#f1eb8a" d="m195.988 340.598 16.496 7.91-10.043 16.187Zm0 0"/><path fill="#f1eb8a" d="m166.805 358.238 29.183-17.64 6.453 24.097Zm0 0"/><path fill="#312530" d="m183.43 327.078 12.558 13.52-27.812-1.414Zm0 0"/><path fill="#f0ea8a" d="m195.988 340.598-29.183 17.64 1.37-19.054Zm0 0"/><path fill="#2e222f" d="m55.652 141.223 26.317-13.188L72.219 159Zm0 0"/><path fill="#4f4847" d="m55.652 141.223 3.383-15.473 22.934 2.285Zm0 0"/><path fill="#a9b2a2" d="m59.035 125.75-3.383 15.473-13.547-4.442Zm0 0"/><path fill="#433839" d="m113.059 255.348 11.687 10.59-15.984 5.937Zm0 0"/><path fill="#443939" d="m124.746 265.938-3.504 17.41-12.48-11.473Zm0 0"/><path fill="#392d34" d="m121.242 283.348 3.504-17.41 22.223 15.058Zm0 0"/><path fill="#ada685" d="m113 225.926 16.71 19.238-16.651 10.184Zm0 0"/><path fill="#362a33" d="m129.71 245.164-4.964 20.774-11.687-10.59Zm0 0"/></svg>