<svg xmlns="http://www.w3.org/2000/svg" width="512" height="512" viewBox="0 0 384 384"><path fill="#2af8d8" d="M297.992 63.734 284.016 31.81l41.164 4.636Zm0 0"/><path fill="#25f9db" d="m284.016 31.809 13.976 31.925-14.277-.586Zm0 0"/><path fill="#afe2c1" d="m151.984 194.48-6.039-12.515 22.653.59Zm0 0"/><path fill="#fcf4f0" d="m195.531 145.41 53.446-34.543 12.52 44.488Zm0 0"/><path fill="#a48a6f" d="m362.254 225.7 21.754 19.28-29.133-6.906Zm0 0"/><path fill="#bbe8bc" d="M73.8 16.05 46.942 44.755l-13.5-27.879Zm0 0"/><path fill="#3e3a5c" d="m55.031 327.023.16 31.477-20.804-13.594Zm0 0"/><path fill="#352a55" d="m55.191 358.5-.16-31.477 18.707 13.868Zm0 0"/><path fill="#7a756f" d="m91.035 310.684 4.555 26.324-21.852 3.883Zm0 0"/><path fill="#85736a" d="m95.59 337.008-4.555-26.324 31.844 13.968Zm0 0"/><path fill="#d7d28d" d="M52.336 283.664 20.508 269.02l29.195-5.426Zm0 0"/><path fill="#9d9779" d="m20.508 269.02 5.664-26.028 23.531 20.602Zm0 0"/><path fill="#96957a" d="m26.172 242.992-5.664 26.028-20.496-7.903Zm0 0"/><path fill="#6b6a6c" d="m63.016 232.719 8.195 31.492-21.508-.617Zm0 0"/><path fill="#483f5c" d="M88.414 245.563 71.211 264.21l-8.195-31.492Zm0 0"/><path fill="#928974" d="m26.172 242.992 36.844-10.273-13.313 30.875Zm0 0"/><path fill="#28f8d9" d="m362.422 124.34 4.96 21.754-28.081-2.996Zm0 0"/><path fill="#fdfbfb" d="m294.535 132.148-19.57-42.28 25.297 8.62Zm0 0"/><path fill="#fefbfb" d="m294.535 132.148-45.558-21.28 25.988-21Zm0 0"/><path fill="#41efcc" d="m362.422 124.34 13.262-35.922L384 92.105Zm0 0"/><path fill="#46f3cc" d="M383.996 41.586 360.54 61.14l-35.36-24.696Zm0 0"/><path fill="#687474" d="M335.164 72.977 360.54 61.14l15.145 27.277Zm0 0"/><path fill="#607476" d="m335.164 72.977-37.172-9.243 27.188-27.289Zm0 0"/><path fill="#a9ba8c" d="m360.54 61.14-25.376 11.837-9.984-36.532Zm0 0"/><path fill="#2ef8d7" d="M202.785-.004 292.453 0l-74.61 17.297ZM292.453 0l-8.437 31.809-66.172-14.512Zm0 0"/><path fill="#fdf9f8" d="m294.535 132.148-33.039 23.207-12.52-44.488Zm0 0"/><path fill="#dfe9d1" d="m261.496 155.355-12.77 33.625-21.331-3.593Zm0 0"/><path fill="#e0e8ce" d="m262.148 184.2-13.421 4.78 12.77-33.625Zm0 0"/><path fill="#b6e1bb" d="m151.984 194.48 2.172 14.168-24.75-6.457Zm0 0"/><path fill="#bae3c0" d="m145.945 181.965 6.04 12.515-22.579 7.711Zm0 0"/><path fill="#aae5bc" d="m192.348 174.785 1.793 15.012-25.543-7.242Zm0 0"/><path fill="#bee3c0" d="m194.14 189.797 33.255-4.41-20.899 17.343Zm0 0"/><path fill="#cce8cb" d="m227.395 185.387-33.254 4.41-1.793-15.012Zm0 0"/><path fill="#dcebd5" d="m227.395 185.387-35.047-10.602 3.183-29.375Zm0 0"/><path fill="#352a55" d="m283.031 236.023 15.133 16.094-21.351 5.906Zm0 0"/><path fill="#fefcfe" d="m259.648 241.738-1.433 12.39-21.79-17.198ZM261.734 274.777l-3.52-20.648 18.599 3.894Zm0 0"/><path fill="#352a55" d="m384.031 307.281-.066 39.735-25.973-22.805Zm0 0"/><path fill="#29f7d8" d="m345.008 324.367 10.96 21.16-19.945-4.523Zm0 0"/><path fill="#352d56" d="m202.3 340.238 28.884 9.496-32.301-5.37Zm0 0"/><path fill="#2df8d7" d="m234.05 359.18-36.476 5.375 1.309-20.192Zm0 0"/><path fill="#38f5d2" d="m231.184 349.734 2.867 9.446-35.168-14.817Zm0 0"/><path fill="#55f0c7" d="m234.05 359.18 5.9 24.82-42.376-19.445Zm0 0"/><path fill="#52f1c7" d="m239.95 384 24.198-34.36L314.961 384Zm0 0"/><path fill="#65edc0" d="m133.758-.02-33.7 16.52L75.563-.008Zm0 0"/><path fill="#5ceec3" d="M139.633.035 100.059 16.5 133.758-.02Zm0 0"/><path fill="#fdfbfc" d="m186.46 82.277 29.767-34.82 25.398 28.133Zm0 0"/><path fill="#fdf8f6" d="m216.227 47.457-29.766 34.82 5.46-41.543Zm0 0"/><path fill="#fcf6f2" d="M186.46 82.277 153.31 35.844l38.613 4.89Zm0 0"/><path fill="#fbf8f2" d="m135.418 68.578 17.89-32.734 33.153 46.433Zm0 0"/><path fill="#e0dda7" d="m88.29 72.754 28.038 12.332-24.86-1.512Zm0 0"/><path fill="#57f0c6" d="m26.941 0 48.622-.008L33.44 16.875Zm0 0"/><path fill="#61eec1" d="M75.563-.008 73.8 16.051l-40.36.824Zm0 0"/><path fill="#c0e7ba" d="M84.215 31 46.94 44.754l26.86-28.703Zm0 0"/><path fill="#b7e6b5" d="m.008 20.879 33.433-4.004L20.31 42.57Zm0 0"/><path fill="#b9e7b9" d="M20.309 42.57 33.44 16.875l13.5 27.879Zm0 0"/><path fill="#e5ddaa" d="M63.148 98.32 46.664 79.27l41.625-6.516Zm0 0"/><path fill="#e8dfac" d="M63.148 98.32 88.29 72.754l3.18 10.82Zm0 0"/><path fill="#cad996" d="m15.469 127.297-15.477 28.57.016-60.172Zm0 0"/><path fill="#9edcb7" d="m106.148 163.82 14.493 22.043-23.532-3.86Zm0 0"/><path fill="#352a55" d="m84.344 168.91 21.804-5.09-9.039 18.184Zm0 0"/><path fill="#352a55" d="m106.148 163.82-21.804 5.09 4.832-17.156Zm0 0"/><path fill="#444c65" d="m0 327.816 25-12.918 9.387 30.008Zm0 0"/><path fill="#7e8678" d="M25 314.898 0 327.816l.004-30.293Zm0 0"/><path fill="#94b890" d="m25 314.898 30.031 12.125-20.644 17.883Zm0 0"/><path fill="#d4d38e" d="M55.031 327.023 25 314.898l27.336-31.234Zm0 0"/><path fill="#38f6d3" d="M0 365.52v-37.704l34.387 17.09Zm0 0"/><path fill="#e8d288" d="m91.035 310.684-36.004 16.34-2.695-43.36Zm0 0"/><path fill="#433c5b" d="m55.031 327.023 36.004-16.34-17.297 30.208Zm0 0"/><path fill="#88917c" d="m.016 226.719 26.156 16.273-26.16 18.125Zm0 0"/><path fill="#4d5367" d="m63.016 232.719-24.95-33.016 22.739-2.758Zm0 0"/><path fill="#5a606b" d="m38.066 199.703 24.95 33.016-36.844 10.273Zm0 0"/><path fill="#b2ae82" d="m.012 261.117 20.496 7.903L.004 297.523Zm0 0"/><path fill="#9fac86" d="M20.508 269.02 25 314.898.004 297.523Zm0 0"/><path fill="#c6c489" d="m25 314.898-4.492-45.878 31.828 14.644Zm0 0"/><path fill="#5defc3" d="m82.398 384 61.793-12.84 23.79 12.8Zm0 0"/><path fill="#d4d28e" d="m71.21 264.21-18.874 19.454-2.633-20.07Zm0 0"/><path fill="#362b55" d="m144.23 311.527-17.84-14.582 14.426-13.777Zm0 0"/><path fill="#362c56" d="m80.762 220.191 7.652 25.371-25.398-12.843Zm0 0"/><path fill="#372e56" d="m88.414 245.563-7.652-25.372 21.199 17.606Zm0 0"/><path fill="#8a7c6e" d="m126.39 296.945-3.511 27.707-31.844-13.968Zm0 0"/><path fill="#b8daa2" d="m93.766 208.621 3.343-26.617 23.532 3.86Zm0 0"/><path fill="#4bf2cb" d="M383.996 41.586 346.613 0H384Zm0 0"/><path fill="#3ef4d0" d="m384 135.57-21.578-11.23L384 92.105Zm0 0"/><path fill="#21fadc" d="M362.422 124.34 384 135.57l-16.617 10.524Zm0 0"/><path fill="#352a55" d="m362.422 124.34-34.95-4.317-5.335-12.312Zm0 0"/><path fill="#fbf8f3" d="m294.535 132.148 11.875 34.52-44.914-11.313Zm0 0"/><path fill="#41f3ce" d="m375.684 88.418 8.312-46.832.004 50.52Zm0 0"/><path fill="#fcf6f3" d="M248.977 110.867 195.53 145.41l-9.07-63.133Zm0 0"/><path fill="#fefaf9" d="m241.625 75.59 7.352 35.277-62.516-28.59Zm0 0"/><path fill="#fefcfe" d="m248.977 110.867-7.352-35.277 33.34 14.277Zm0 0"/><path fill="#382c55" d="m335.164 72.977-18.91 11.351-18.262-20.594Zm0 0"/><path fill="#352a55" d="m336.441 92.277-1.277-19.3 40.52 15.441ZM336.441 92.277l25.98 32.063-40.284-16.63ZM336.441 92.277l39.243-3.859-13.262 35.922Zm0 0"/><path fill="#362a55" d="m316.254 84.328 20.187 7.95-14.304 15.433Zm0 0"/><path fill="#352a55" d="m336.441 92.277-20.187-7.949 18.91-11.351Zm0 0"/><path fill="#362f58" d="m136.258 227.39 17.898-18.742 13.531 9.391Zm0 0"/><path fill="#b5e0b4" d="m154.156 208.648-17.898 18.743-6.852-25.2Zm0 0"/><path fill="#ade2b0" d="m136.258 227.39-19.113-.988 12.261-24.21Zm0 0"/><path fill="#a3dfbd" d="m163.215 199.36-9.059 9.288-2.172-14.168Zm0 0"/><path fill="#352b55" d="m154.156 208.648 9.059-9.289 4.472 18.68Zm0 0"/><path fill="#aee1be" d="m163.215 199.36-11.23-4.88 16.613-11.925Zm0 0"/><path fill="#352b55" d="m194.14 189.797-30.925 9.562 5.383-16.804Zm0 0"/><path fill="#bde3ba" d="m145.945 181.965-16.539 20.226-8.765-16.328Zm0 0"/><path fill="#ebf2e8" d="m195.531 145.41 65.965 9.945-34.101 30.032Zm0 0"/><path fill="#cdeacb" d="m145.945 181.965 22.098-12.453.555 13.043Zm0 0"/><path fill="#beebc7" d="m168.043 169.512 24.305 5.273-23.75 7.77Zm0 0"/><path fill="#cbe7c4" d="m195.531 145.41-27.488 24.102-26.254-26.942Zm0 0"/><path fill="#d2e6c8" d="m192.348 174.785-24.305-5.273 27.488-24.102Zm0 0"/><path fill="#f5f7f1" d="m293.52 292.664-1.457 10.477-13.54-4.786Zm0 0"/><path fill="#617375" d="m293.52 292.664 27.921-9.031-15.343 16.441Zm0 0"/><path fill="#647375" d="m292.063 303.14 1.457-10.476 12.578 7.41Zm0 0"/><path fill="#bfe4c3" d="m206.496 202.73 20.899-17.343-6.66 28.582Zm0 0"/><path fill="#c0e1c6" d="m206.496 202.73 14.238 11.239-16.882 6.047Zm0 0"/><path fill="#e9efdf" d="m236.594 210.504 12.133-21.524 6.168 21.797Zm0 0"/><path fill="#e8eddf" d="m248.727 188.98-12.133 21.524-9.2-25.117Zm0 0"/><path fill="#d2e7d2" d="m236.594 210.504-15.86 3.465 6.66-28.582Zm0 0"/><path fill="#352a55" d="m298.164 252.117-15.133-16.094 24.961-.355Zm0 0"/><path fill="#fefcfe" d="m270.207 243.473-11.992 10.656 1.433-12.39Zm0 0"/><path fill="#fefcfe" d="m258.215 254.129 11.992-10.656 6.606 14.55Zm0 0"/><path fill="#372d57" d="m270.207 243.473 12.824-7.45-6.219 22Zm0 0"/><path fill="#352a55" d="m267.262 235.617.05-12.441 15.72 12.847Zm0 0"/><path fill="#372e57" d="m270.207 243.473-2.945-7.856 15.77.406Zm0 0"/><path fill="#fefcfe" d="m267.262 235.617 2.945 7.856-10.559-1.735Zm0 0"/><path fill="#d9e7e0" d="m236.426 236.93-15.692-22.961 15.86-3.465Zm0 0"/><path fill="#f5fbfb" d="m207.633 292.965-11.543-11.813 33.676-13.43Zm0 0"/><path fill="#f2f9f8" d="m196.09 281.152 11.543 11.813-15.297 6.355Zm0 0"/><path fill="#ebf9f6" d="m215.746 254.61-19.656 26.542-.809-22.41Zm0 0"/><path fill="#e9f5ef" d="m195.988 237.543 19.758 17.066-20.465 4.133Zm0 0"/><path fill="#f8f9fa" d="m215.746 254.61 20.68-17.68-6.66 30.793Zm0 0"/><path fill="#f6fbfa" d="m196.09 281.152 19.656-26.543 14.02 13.114Zm0 0"/><path fill="#3a385c" d="m195.988 237.543-12.172-4.945 20.036-12.582Zm0 0"/><path fill="#352a55" d="m167.688 218.04 16.128 14.558-12.476 12.097ZM203.852 220.016l-20.036 12.582-16.129-14.559Zm0 0"/><path fill="#34efcf" d="m314.145 320.559 30.863 3.808-8.985 16.637Zm0 0"/><path fill="#352a55" d="m341.96 255.555 6.966 32.64-27.485-4.562Zm0 0"/><path fill="#1ffbdd" d="m384 166.34-16.617-20.246L384 135.57Zm0 0"/><path fill="#f9f2e1" d="m363.586 185.219-9.387 39.273-22.058-33.082Zm0 0"/><path fill="#352a55" d="m383.965 347.016-27.996-1.489 2.023-21.316Zm0 0"/><path fill="#3a3459" d="m357.992 324.21-2.023 21.317-10.961-21.16Zm0 0"/><path fill="#29f3d5" d="m298.684 341.168-18.32-9.457 16.335-10.313Zm0 0"/><path fill="#4ff1c9" d="M342.492 363.426 314.961 384l-.293-28.512Zm0 0"/><path fill="#50f1c9" d="m355.969 345.527-13.477 17.899-6.469-22.422Zm0 0"/><path fill="#59efc5" d="m342.492 363.426 13.477-17.899 8.304 13.04Zm0 0"/><path fill="#352a55" d="m227.656 325.914 3.528 23.82-28.883-9.496ZM345.008 324.367l-22.93-18.82 26.848-17.352Zm0 0"/><path fill="#352a55" d="m322.078 305.547-.637-21.914 27.485 4.562ZM314.145 320.559l7.933-15.012 22.93 18.82Zm0 0"/><path fill="#352a55" d="m321.441 283.633.637 21.914-15.98-5.473Zm0 0"/><path fill="#51f1c8" d="m234.05 359.18 30.098-9.54L239.95 384Zm0 0"/><path fill="#e6f2e1" d="m153.309 35.844-35.188-3.735L139.633.035Zm0 0"/><path fill="#d9efd6" d="M118.121 32.11 100.06 16.5 139.633.035Zm0 0"/><path fill="#f9f3e7" d="m118.121 32.11 35.188 3.734-17.891 32.734Zm0 0"/><path fill="#69ecbe" d="M75.563-.008 100.059 16.5 73.8 16.05Zm0 0"/><path fill="#c8e6b8" d="M100.059 16.5 84.215 31 73.8 16.05Zm0 0"/><path fill="#dee6bb" d="m84.215 31 15.844-14.5 18.062 15.61Zm0 0"/><path fill="#25f9da" d="m284.016 31.809-66.98.3.808-14.812Zm0 0"/><path fill="#e5f4e3" d="m217.035 32.11-25.113 8.624 9.414-17.425Zm0 0"/><path fill="#e5f3e1" d="m217.035 32.11-.808 15.347-24.305-6.723Zm0 0"/><path fill="#4af2cb" d="m202.785-.004-63.152.04-5.875-.056Zm0 0"/><path fill="#e8eacb" d="M116.328 85.086 88.29 72.754l47.129-4.176Zm0 0"/><path fill="#f3f4f0" d="m195.531 145.41-35.98-35.61 26.91-27.523Zm0 0"/><path fill="#f2f0e3" d="m159.55 109.8-24.132-41.222 51.043 13.7Zm0 0"/><path fill="#e9efe5" d="m137.29 114.672 22.26-4.871-17.76 32.77Zm0 0"/><path fill="#e7ede2" d="m159.55 109.8 35.981 35.61-53.742-2.84Zm0 0"/><path fill="#f1e6bd" d="m84.215 31 33.906 1.11L88.29 72.753Zm0 0"/><path fill="#c7e4b4" d="m.012 55.316 23.48 12.809L.008 95.695Zm0 0"/><path fill="#bbe6b8" d="M23.492 68.125.012 55.316 20.309 42.57Zm0 0"/><path fill="#bde5b4" d="M20.309 42.57.012 55.316.008 20.88Zm0 0"/><path fill="#45f3cd" d="M26.941 0 .008 20.879 0 0Zm0 0"/><path fill="#40f4cf" d="M.008 20.879 26.94 0l6.5 16.875Zm0 0"/><path fill="#e0dda5" d="m63.148 98.32-17.414 8.047.93-27.097Zm0 0"/><path fill="#cee8c7" d="m168.043 169.512-22.098 12.453-4.156-39.395Zm0 0"/><path fill="#dfdba3" d="m79.035 105.57-15.887-7.25 28.32-14.746Zm0 0"/><path fill="#352a55" d="m98.297 110.121-19.262-4.55L91.47 83.573Zm0 0"/><path fill="#4df2ca" d="m0 365.52 51.793 2.386-51.797 16.13Zm0 0"/><path fill="#3ff4d0" d="M51.793 367.906 0 365.52l34.387-20.614Zm0 0"/><path fill="#45f3cd" d="m55.191 358.5-3.398 9.406-17.406-23Zm0 0"/><path fill="#352c56" d="M82.813 362.805 55.19 358.5l18.547-17.61Zm0 0"/><path fill="#5befc4" d="m82.813 362.805-31.02 5.101 3.398-9.406Zm0 0"/><path fill="#352a55" d="m95.59 337.008-12.778 25.797-9.074-21.914Zm0 0"/><path fill="#b5c68f" d="m-.008 155.867 10.547 31.797L.016 226.72Zm0 0"/><path fill="#a8a981" d="m10.54 187.664 27.526 12.04-38.05 27.015Zm0 0"/><path fill="#828b7a" d="m.016 226.719 38.05-27.016-11.894 43.29Zm0 0"/><path fill="#f1d285" d="m81.8 281.262 9.235 29.422-38.7-27.02Zm0 0"/><path fill="#d6d48e" d="m71.21 264.21 10.59 17.052-29.464 2.402Zm0 0"/><path fill="#352a55" d="m144.23 311.527-3.414-28.359 23.813 12.14Zm0 0"/><path fill="#7dc7a0" d="m60.805 196.945 9.672-5.277 10.285 28.523Zm0 0"/><path fill="#3a365b" d="m60.805 196.945 19.957 23.246-17.746 12.528Zm0 0"/><path fill="#76c2a0" d="m70.477 191.668 23.289 16.953-13.004 11.57Zm0 0"/><path fill="#619288" d="m93.766 208.621-23.29-16.953 26.633-9.664Zm0 0"/><path fill="#b7dfa6" d="m117.145 226.402-23.38-17.78 35.641-6.43Zm0 0"/><path fill="#362b55" d="m126.39 296.945 1.005-25.406 13.421 11.629Zm0 0"/><path fill="#352a55" d="m126.39 296.945-17.593-19.02 18.598-6.386ZM165.582 266.363l-24.766 16.805 9.672-30.914Zm0 0"/><path fill="#c8e0ab" d="m129.406 202.191-35.64 6.43 26.875-22.758Zm0 0"/><path fill="#49f2cb" d="M325.18 36.445 346.613 0l37.383 41.586Zm0 0"/><path fill="#35f6d4" d="m325.18 36.445-41.164-4.636L292.453 0Zm0 0"/><path fill="#40f4cf" d="M325.18 36.445 292.453 0h54.16Zm0 0"/><path fill="#fdfaf9" d="m294.535 132.148 5.727-33.66 21.875 9.223Zm0 0"/><path fill="#fbf7f3" d="m327.473 120.023-32.938 12.125 27.602-24.437Zm0 0"/><path fill="#fbf8f3" d="m306.41 166.668-11.875-34.52 33.75 18.993Zm0 0"/><path fill="#f8f5f5" d="m300.262 98.488 15.992-14.16 5.883 23.383Zm0 0"/><path fill="#fcf7f2" d="m328.285 151.14-33.75-18.992 32.938-12.125Zm0 0"/><path fill="#f9f3e7" d="m306.41 166.668 21.875-15.527 3.856 40.27Zm0 0"/><path fill="#40f4cf" d="m360.54 61.14 23.456-19.554-8.312 46.832Zm0 0"/><path fill="#f8f5e9" d="m297.992 63.734-4.379 15.828-9.898-16.414Zm0 0"/><path fill="#3d3257" d="m316.254 84.328-22.64-4.766 4.378-15.828Zm0 0"/><path fill="#fbf8f6" d="m293.613 79.563 22.64 4.765-15.991 14.16Zm0 0"/><path fill="#1cfbde" d="m267.54 47.793-50.505-15.684 66.98-.3Zm0 0"/><path fill="#e4f7ed" d="m216.227 47.457.808-15.348 50.504 15.684Zm0 0"/><path fill="#1dfbde" d="m284.016 31.809-.301 31.34-16.176-15.356Zm0 0"/><path fill="#dee4c8" d="m286.145 182.785-23.997 1.414-.652-28.844Zm0 0"/><path fill="#e6efde" d="m248.727 188.98 14.187 1.954-8.02 19.843Zm0 0"/><path fill="#e1ecd2" d="m262.914 190.934-14.187-1.954 13.421-4.78Zm0 0"/><path fill="#d7e0c1" d="m286.145 182.785-23.23 8.149-.767-6.735Zm0 0"/><path fill="#352e57" d="m141.95 245.59-5.692-18.2 31.43-9.35Zm0 0"/><path fill="#352a55" d="m195.836 204.492-32.621-5.133 30.926-9.562Zm0 0"/><path fill="#c3e6c3" d="m195.836 204.492-1.695-14.695 12.355 12.933Zm0 0"/><path fill="#372e57" d="m195.836 204.492 8.016 15.524-36.165-1.977Zm0 0"/><path fill="#352a55" d="m163.215 199.36 32.62 5.132-28.148 13.547Zm0 0"/><path fill="#b7e3bf" d="m195.836 204.492 10.66-1.762-2.644 17.286Zm0 0"/><path fill="#f3ead2" d="m332.14 191.41-12.257 30.344-6.23-21.36Zm0 0"/><path fill="#efe4cc" d="m313.652 200.395-7.347-12.782 25.836 3.797Zm0 0"/><path fill="#f7efd8" d="m363.586 185.219-31.445 6.191 29.015-25.23Zm0 0"/><path fill="#c3d9d3" d="m214.027 233.652 6.707-19.683 15.692 22.96Zm0 0"/><path fill="#f7f9fa" d="m215.746 254.61-1.719-20.958 22.399 3.278Zm0 0"/><path fill="#eff6ef" d="m214.027 233.652 1.72 20.957-19.759-17.066Zm0 0"/><path fill="#ddf0dc" d="m214.027 233.652-18.039 3.891 7.864-17.527Zm0 0"/><path fill="#cae6da" d="m220.734 213.969-6.707 19.683-10.175-13.636Zm0 0"/><path fill="#352a55" d="m321.332 262.816-13.34-27.148 18.906-2.184ZM298.164 252.117l9.828-16.449 13.34 27.148Zm0 0"/><path fill="#352a55" d="m299.383 270.602-1.219-18.485 23.168 10.7Zm0 0"/><path fill="#615765" d="m299.383 270.602 21.949-7.786.11 20.817Zm0 0"/><path fill="#bcdec1" d="m293.52 292.664 5.863-22.062 22.058 13.03Zm0 0"/><path fill="#362d56" d="m254.71 225.363.185-14.586 12.417 12.399Zm0 0"/><path fill="#352a55" d="m150.488 252.254-8.539-6.664 25.738-27.55Zm0 0"/><path fill="#352b55" d="m185.664 242.238-4.031 15.356-10.293-12.899Zm0 0"/><path fill="#352a55" d="m183.816 232.598 1.848 9.64-14.324 2.457Zm0 0"/><path fill="#352c56" d="m185.664 242.238-1.848-9.64 12.172 4.945Zm0 0"/><path fill="#c9efda" d="m185.664 242.238 10.324-4.695-.707 21.2Zm0 0"/><path fill="#d5efe4" d="m181.633 257.594 4.031-15.356 9.617 16.504Zm0 0"/><path fill="#d3f8ee" d="m180.176 271.563 15.914 9.59-31.461 14.156Zm0 0"/><path fill="#c3f6e4" d="m180.176 271.563 15.105-12.82.809 22.41Zm0 0"/><path fill="#f2ce82" d="m384.031 307.281-17.894-34.937 17.87-27.364Zm0 0"/><path fill="#28f6d8" d="m314.145 320.559-15.461 20.609-1.985-19.77Zm0 0"/><path fill="#3c3056" d="m348.926 288.195 9.066 36.016-12.984.156Zm0 0"/><path fill="#756063" d="m357.992 324.21-9.066-36.015 35.105 19.086Zm0 0"/><path fill="#b89a74" d="m348.926 288.195 17.21-15.851 17.895 34.937Zm0 0"/><path fill="#928277" d="m321.332 262.816 20.629-7.261-20.52 28.078Zm0 0"/><path fill="#413457" d="m341.96 255.555 24.177 16.789-17.211 15.851Zm0 0"/><path fill="#56465d" d="m366.137 272.344-24.176-16.79 12.914-17.48Zm0 0"/><path fill="#c7a878" d="m384.008 244.98-17.871 27.364-11.262-34.27Zm0 0"/><path fill="#2bf8d8" d="m384 166.34-20.414 18.879-2.43-19.04Zm0 0"/><path fill="#27f9d9" d="m384 166.34.012 42.36-20.426-23.481Zm0 0"/><path fill="#f5efd8" d="m361.156 166.18-32.87-15.04 11.015-8.042Zm0 0"/><path fill="#2ef8d7" d="m367.383 146.094-6.227 20.086-21.855-23.082Zm0 0"/><path fill="#1ffadd" d="m384 166.34-22.844-.16 6.227-20.086Zm0 0"/><path fill="#faf4e6" d="m361.156 166.18-29.015 25.23-3.856-40.27Zm0 0"/><path fill="#e6c27e" d="m384.008 244.98-21.754-19.28 21.758-17Zm0 0"/><path fill="#efcf84" d="m362.254 225.7-8.055-1.208 9.387-39.273Zm0 0"/><path fill="#edd185" d="m384.012 208.7-21.758 17 1.332-40.481Zm0 0"/><path fill="#57f0c6" d="M384 384.004 314.96 384l27.532-20.574Zm0 0"/><path fill="#58f0c5" d="m384 384.004-41.508-20.578 21.781-4.86Zm0 0"/><path fill="#59efc5" d="m384 384.004-19.727-25.438 19.692-11.55Zm0 0"/><path fill="#55f0c6" d="m364.273 358.566-8.304-13.039 27.996 1.489Zm0 0"/><path fill="#4cf2ca" d="m264.148 349.64 50.52 5.848.293 28.512Zm0 0"/><path fill="#40f1cd" d="m264.148 349.64 16.215-17.93 18.32 9.458Zm0 0"/><path fill="#3bf5d1" d="m314.668 355.488-.523-34.93 21.878 20.446Zm0 0"/><path fill="#36f6d3" d="m314.145 320.559.523 34.93-15.984-14.321Zm0 0"/><path fill="#47f3cc" d="m342.492 363.426-27.824-7.938 21.355-14.484ZM314.668 355.488l-50.52-5.847 34.536-8.473Zm0 0"/><path fill="#393258" d="m267.496 327.426 12.867 4.285-16.215 17.93Zm0 0"/><path fill="#352a55" d="m217.004 305.148 16.434 2.856-5.782 17.91Zm0 0"/><path fill="#fefcfe" d="m282.184 278.563-14.668 10.23-5.782-14.016Zm0 0"/><path fill="#fdfcfe" d="m267.516 288.793-15.625 3.18 9.843-17.196Zm0 0"/><path fill="#fefcfe" d="m267.516 288.793 14.668-10.23-3.66 19.792Zm0 0"/><path fill="#372e57" d="m207.633 292.965-6.828 19.207-8.47-12.852Zm0 0"/><path fill="#362d56" d="m200.805 312.172 6.828-19.207 9.37 12.183Zm0 0"/><path fill="#352a55" d="m200.805 312.172 16.199-7.024 10.652 20.766Zm0 0"/><path fill="#9adba6" d="m188.602 324.813 12.203-12.641 26.851 13.742Zm0 0"/><path fill="#352a55" d="m95.59 337.008 27.289-12.356 9.879 32.914Zm0 0"/><path fill="#f7f1de" d="m88.29 72.754 29.831-40.645 17.297 36.47Zm0 0"/><path fill="#32f7d5" d="m217.844 17.297-.809 14.812-15.7-8.8Zm0 0"/><path fill="#30f7d6" d="m217.844 17.297-16.508 6.012 1.45-23.313Zm0 0"/><path fill="#e4f5e7" d="m139.633.035 33.883 15.004-20.207 20.805Zm0 0"/><path fill="#daf4e3" d="m173.516 15.04 18.406 25.694-38.613-4.89Zm0 0"/><path fill="#e0f4e4" d="M191.922 40.734 173.516 15.04l27.82 8.27Zm0 0"/><path fill="#2ff7d6" d="m173.516 15.04 29.27-15.044-1.45 23.313Zm0 0"/><path fill="#31f7d5" d="M173.516 15.04 139.633.034l63.152-.039Zm0 0"/><path fill="#352a55" d="m123.262 118.922-8.782 22.555-16.183-31.356Zm0 0"/><path fill="#e7ece4" d="m141.79 142.57-18.528-23.648 14.027-4.25Zm0 0"/><path fill="#dcebe0" d="m114.48 141.477 8.782-22.555 18.527 23.648Zm0 0"/><path fill="#e5e9de" d="m131.094 89.453 28.457 20.348-22.262 4.87Zm0 0"/><path fill="#f3f4ec" d="m159.55 109.8-28.456-20.347 4.324-20.875Zm0 0"/><path fill="#ece9cc" d="m131.094 89.453-14.766-4.367 19.09-16.508Zm0 0"/><path fill="#dfe6db" d="m123.262 118.922 7.832-29.469 6.195 25.219Zm0 0"/><path fill="#ccd997" d="m25.738 101.473-10.27 25.824L.009 95.695Zm0 0"/><path fill="#c6da99" d="m15.469 127.297 10.27-25.824 10.656 28.5Zm0 0"/><path fill="#cedda3" d="m25.738 101.473 19.996 4.894-9.34 23.606Zm0 0"/><path fill="#d7db9e" d="m45.734 106.367-19.996-4.894L46.664 79.27Zm0 0"/><path fill="#daecd0" d="m124.027 158.52 21.918 23.445-25.304 3.898Zm0 0"/><path fill="#cfeccf" d="m106.148 163.82 17.88-5.3-3.387 27.343Zm0 0"/><path fill="#deefd8" d="m145.945 181.965-21.918-23.445 17.762-15.95Zm0 0"/><path fill="#352a55" d="m74.004 152.715 5.973-17.844 9.199 16.883Zm0 0"/><path fill="#d3e3b7" d="m79.035 105.57-8.992 7.875-6.895-15.125Zm0 0"/><path fill="#d1e7cf" d="m124.027 158.52-9.547-17.043 27.31 1.093Zm0 0"/><path fill="#352a55" d="m79.977 134.871 34.503 6.606-25.304 10.277Zm0 0"/><path fill="#352a55" d="m114.48 141.477-8.332 22.343-16.972-12.066Zm0 0"/><path fill="#c9e9cb" d="m114.48 141.477 9.547 17.043-17.879 5.3Zm0 0"/><path fill="#352a55" d="m82.813 362.805 12.777-25.797 37.168 20.558Zm0 0"/><path fill="#59eec4" d="m144.191 371.16-61.378-8.355 49.945-5.239Zm0 0"/><path fill="#54f0c7" d="m82.813 362.805 61.378 8.355L82.398 384Zm0 0"/><path fill="#c0da99" d="m18.938 156.887 17.457-26.914-4.473 33.699Zm0 0"/><path fill="#c0db99" d="m36.395 129.973-17.458 26.914-3.468-29.59Zm0 0"/><path fill="#bfdc9c" d="m10.54 187.664 8.398-30.777 12.984 6.785Zm0 0"/><path fill="#c3db98" d="m-.008 155.867 18.946 1.02-8.399 30.777Zm0 0"/><path fill="#c1da99" d="m15.469 127.297 3.469 29.59-18.946-1.02Zm0 0"/><path fill="#f6d083" d="m81.8 281.262 26.997-3.336-17.762 32.758Zm0 0"/><path fill="#e2c27f" d="m108.797 277.926 17.594 19.02-35.356 13.738Zm0 0"/><path fill="#506c75" d="m71.742 179.406 12.602-10.496 12.765 13.094Zm0 0"/><path fill="#639f90" d="m70.477 191.668 1.265-12.262 25.367 2.598Zm0 0"/><path fill="#82d0a5" d="m84.344 168.91-12.602 10.496L59.93 164.77Zm0 0"/><path fill="#352a55" d="m84.344 168.91-10.34-16.195 15.172-.961Zm0 0"/><path fill="#a2daa1" d="m74.004 152.715 10.34 16.195-24.414-4.14Zm0 0"/><path fill="#7fa98e" d="m80.762 220.191 13.004-11.57 8.195 29.176Zm0 0"/><path fill="#98c79b" d="m122.508 245.117-5.363-18.715 19.113.989Zm0 0"/><path fill="#bdd597" d="m93.766 208.621 23.379 17.781-15.184 11.395Zm0 0"/><path fill="#352c56" d="m141.95 245.59-19.442-.473 13.75-17.726Zm0 0"/><path fill="#88ac8d" d="m101.96 237.797 20.548 7.32-16.211 3.7Zm0 0"/><path fill="#96be94" d="m101.96 237.797 15.185-11.395 5.363 18.715Zm0 0"/><path fill="#372c55" d="m88.414 245.563 13.547-7.766 4.336 11.02Zm0 0"/><path fill="#fcf8f1" d="m339.3 143.098-11.015 8.043-.812-31.118Zm0 0"/><path fill="#676b6e" d="m339.3 143.098-11.827-23.075 34.949 4.317Zm0 0"/><path fill="#f4eddc" d="m306.305 187.613.105-20.945 25.73 24.742Zm0 0"/><path fill="#efedda" d="m286.145 182.785 20.265-16.117-.105 20.945Zm0 0"/><path fill="#f6f4ec" d="m306.41 166.668-20.265 16.117-24.649-27.43Zm0 0"/><path fill="#f1ead8" d="m298.602 204.98 15.05-4.585 6.23 21.359Zm0 0"/><path fill="#3b3056" d="m298.602 204.98 21.28 16.774-11.89 13.914Zm0 0"/><path fill="#393057" d="m283.031 236.023 15.57-31.043 9.391 30.688Zm0 0"/><path fill="#352a55" d="m298.602 204.98-15.57 31.043-15.72-12.847Zm0 0"/><path fill="#40375a" d="m307.992 235.668 11.89-13.914 7.016 11.73Zm0 0"/><path fill="#fdfbfc" d="m282.184 278.563 11.336 14.101-14.997 5.691Zm0 0"/><path fill="#e9f2e3" d="m282.184 278.563 17.199-7.961-5.863 22.062Zm0 0"/><path fill="#ddecdd" d="m248.965 220.691-12.371-10.187 18.3.273Zm0 0"/><path fill="#eef5f0" d="m254.71 225.363-5.745-4.672 5.93-9.914Zm0 0"/><path fill="#ecf1eb" d="m248.965 220.691-12.54 16.239.169-26.426Zm0 0"/><path fill="#eef4ef" d="m248.965 220.691 5.746 4.672-18.285 11.567Zm0 0"/><path fill="#fefcfe" d="m236.426 236.93 21.926-2.188 1.296 6.996Zm0 0"/><path fill="#fdfcfd" d="m254.71 225.363 3.642 9.38-21.926 2.187Zm0 0"/><path fill="#fefcfe" d="m258.352 234.742 8.91.875-7.614 6.121Zm0 0"/><path fill="#b9c3ca" d="m267.262 235.617-8.91-.875 8.96-11.566Zm0 0"/><path fill="#e3e5ea" d="m258.352 234.742-3.641-9.379 12.601-2.187Zm0 0"/><path fill="#352a55" d="m150.488 252.254 20.852-7.559-5.758 21.668Zm0 0"/><path fill="#352a55" d="m171.34 244.695-20.852 7.559 17.2-34.215Zm0 0"/><path fill="#64d0af" d="m140.816 283.168 24.766-16.805-.953 28.946Zm0 0"/><path fill="#83eec6" d="m165.582 266.363 14.594 5.2-15.547 23.746Zm0 0"/><path fill="#352a55" d="m322.078 305.547-16.129 4.59.149-10.063ZM314.145 320.559l-8.196-10.422 16.13-4.59Zm0 0"/><path fill="#352b55" d="m305.95 310.137-13.887-6.996 14.035-3.067Zm0 0"/><path fill="#352a55" d="m305.95 310.137 8.195 10.422-17.446.84Zm0 0"/><path fill="#392e56" d="m341.96 255.555-20.628 7.261 5.566-29.332Zm0 0"/><path fill="#e9e8dd" d="m319.883 221.754 16.347 5.476-9.332 6.254Zm0 0"/><path fill="#d8d4b6" d="m336.23 227.23 5.73 28.325-15.062-22.07Zm0 0"/><path fill="#dad6ab" d="m341.96 255.555-5.73-28.325 18.645 10.844Zm0 0"/><path fill="#f0ebd3" d="m336.23 227.23-16.347-5.476 12.258-30.344Zm0 0"/><path fill="#cfb07a" d="m354.875 238.074-.676-13.582 8.055 1.207Zm0 0"/><path fill="#f2e8c8" d="m354.2 224.492-17.97 2.738-4.09-35.82Zm0 0"/><path fill="#e2d8a1" d="m336.23 227.23 17.97-2.738.675 13.582Zm0 0"/><path fill="#f2f8f1" d="m267.496 327.426-20.648-8.156 13.562-12.516Zm0 0"/><path fill="#352a55" d="m233.438 308.004 13.41 11.266-19.192 6.644Zm0 0"/><path fill="#f8f9f7" d="m278.523 298.355-1.171 22.586-16.942-14.187Zm0 0"/><path fill="#f8faf8" d="m277.352 320.941-9.856 6.485-7.086-20.672Zm0 0"/><path fill="#4f596a" d="m267.496 327.426 9.856-6.485 3.011 10.77Zm0 0"/><path fill="#3b365a" d="m280.363 331.71-3.011-10.769 19.347.457Zm0 0"/><path fill="#55efc6" d="m251.945 339.297-17.894 19.883-2.867-9.446Zm0 0"/><path fill="#54f0c7" d="m234.05 359.18 17.895-19.883 12.203 10.344Zm0 0"/><path fill="#3f3c5d" d="m251.945 339.297 15.551-11.871-3.348 22.215Zm0 0"/><path fill="#516472" d="m231.3 297.668 2.137 10.336-16.433-2.856Zm0 0"/><path fill="#dff0ec" d="m231.3 297.668-23.667-4.703 22.133-25.242Zm0 0"/><path fill="#352b55" d="m207.633 292.965 23.668 4.703-14.297 7.48Zm0 0"/><path fill="#f9fafa" d="m264.559 298.156 13.964.2-18.113 8.398Zm0 0"/><path fill="#fbfcfc" d="m264.559 298.156 2.957-9.363 11.007 9.562Zm0 0"/><path fill="#fcfcfd" d="m267.516 288.793-2.957 9.363-12.668-6.183Zm0 0"/><path fill="#75d1a9" d="m202.3 340.238-13.698-15.425 39.054 1.101Zm0 0"/><path fill="#56f0c6" d="m144.191 371.16 25.887-10.453-2.098 23.254Zm0 0"/><path fill="#50f1c9" d="m148.66 355.52 21.418 5.187-25.887 10.453Zm0 0"/><path fill="#28f6d8" d="m148.66 355.52.79-20.836 20.445 3.925Zm0 0"/><path fill="#d3f5e5" d="m177.73 303.285 18.36-22.133-3.754 18.168Zm0 0"/><path fill="#cff7e9" d="m196.09 281.152-18.36 22.133-13.101-7.976Zm0 0"/><path fill="#9ce2a8" d="m188.219 311.758 12.586.414-12.203 12.64Zm0 0"/><path fill="#a5dfa4" d="m200.805 312.172-12.586-.414 4.117-12.438Zm0 0"/><path fill="#a1e2aa" d="m188.219 311.758-10.489-8.473 14.606-3.965Zm0 0"/><path fill="#8ce5af" d="m177.73 303.285 10.489 8.473-9.707 10.129Zm0 0"/><path fill="#352b55" d="m149.45 334.684 12.175-14.989 8.27 18.914Zm0 0"/><path fill="#352a55" d="m144.23 311.527 17.395 8.168-12.176 14.989Zm0 0"/><path fill="#c9b57f" d="m126.39 296.945 17.84 14.582-21.351 13.125Zm0 0"/><path fill="#9f9477" d="m144.23 311.527 5.22 23.157-26.571-10.032Zm0 0"/><path fill="#352a55" d="m161.316 309.742.309 9.953-17.395-8.168Zm0 0"/><path fill="#352a55" d="m161.316 309.742-17.086 1.785 20.399-16.218ZM113.66 96.707l9.602 22.215-24.965-8.8ZM116.328 85.086l-2.668 11.621L91.47 83.574ZM113.66 96.707l-15.363 13.414-6.828-26.547Zm0 0"/><path fill="#352a55" d="m131.094 89.453-17.434 7.254 2.668-11.621Zm0 0"/><path fill="#352b55" d="m113.66 96.707 17.434-7.254-7.832 29.469Zm0 0"/><path fill="#f0e5bc" d="m88.29 72.754-41.349-28L84.215 31Zm0 0"/><path fill="#d6da99" d="m23.492 68.125 2.246 33.348-25.73-5.778Zm0 0"/><path fill="#d6da98" d="M23.492 68.125 46.664 79.27l-20.926 22.203Zm0 0"/><path fill="#424e67" d="m38.066 199.703 19.422-15.465 3.317 12.707Zm0 0"/><path fill="#c0ddaa" d="m56.027 131.742-5.523 32.07-14.11-33.84Zm0 0"/><path fill="#beda9a" d="m36.395 129.973 14.109 33.84-18.582-.141Zm0 0"/><path fill="#352a55" d="m83.719 121.094 30.761 20.383-34.503-6.606ZM114.48 141.477 83.72 121.094l14.578-10.973ZM83.719 121.094l-3.742 13.777-13.18-13.375Zm0 0"/><path fill="#352a55" d="m70.043 113.445 13.676 7.649-16.922.402Zm0 0"/><path fill="#352a55" d="m83.719 121.094-4.684-15.524 19.262 4.551Zm0 0"/><path fill="#352a55" d="m83.719 121.094-13.676-7.649 8.992-7.875Zm0 0"/><path fill="#55f0c6" d="M-.004 384.035 82.398 384l85.582-.04Zm0 0"/><path fill="#4cf2ca" d="M51.793 367.906 82.398 384l-82.402.035Zm0 0"/><path fill="#52f1c8" d="M82.813 362.805 82.398 384l-30.605-16.094Zm0 0"/><path fill="#80bd9a" d="m57.488 184.238 12.989 7.43-9.672 5.277Zm0 0"/><path fill="#352a55" d="m150.488 252.254-9.672 30.914-13.421-11.629ZM89.293 268.457l17.004-19.64 6.984 10.093ZM89.293 268.457l-.879-22.894 17.883 3.253Zm0 0"/><path fill="#382e56" d="m88.414 245.563.879 22.894-18.082-4.246Zm0 0"/><path fill="#352a55" d="m108.797 277.926-19.504-9.469 23.988-9.547Zm0 0"/><path fill="#bbaa7d" d="m89.293 268.457 19.504 9.469-26.996 3.336Zm0 0"/><path fill="#d1cc8b" d="m89.293 268.457-7.492 12.805-10.59-17.051Zm0 0"/><path fill="#fefcfe" d="m241.625 75.59-25.398-28.133 51.312.336ZM241.625 75.59l26.914-8.242 6.426 22.52Zm0 0"/><path fill="#fdfcfd" d="m283.715 63.148-15.176 4.2-1-19.555Zm0 0"/><path fill="#fefcfe" d="m268.54 67.348-26.915 8.242 25.914-27.797Zm0 0"/><path fill="#fdfaf9" d="m274.965 89.867 18.648-10.305 6.649 18.926Zm0 0"/><path fill="#e8e4d5" d="m313.652 200.395-15.05 4.585 7.703-17.367Zm0 0"/><path fill="#e6e3ca" d="m298.602 204.98-12.457-22.195 20.16 4.828Zm0 0"/><path fill="#372d56" d="m298.602 204.98-35.688-14.046 23.23-8.149Zm0 0"/><path fill="#3e3659" d="m254.895 210.777 43.707-5.797-31.29 18.196Zm0 0"/><path fill="#352a55" d="m262.914 190.934 35.688 14.046-43.707 5.797Zm0 0"/><path fill="#fefcfe" d="m276.813 258.023 5.37 20.54-20.449-3.786Zm0 0"/><path fill="#fafaf8" d="m292.063 303.14-14.711 17.801 1.171-22.586Zm0 0"/><path fill="#b4d99c" d="m277.352 320.941 14.71-17.8 4.637 18.257Zm0 0"/><path fill="#352a55" d="m292.063 303.14 13.886 6.997-9.25 11.261Zm0 0"/><path fill="#a3dda4" d="m246.848 319.27 5.097 20.027-24.289-13.383Zm0 0"/><path fill="#b1dc9f" d="m251.945 339.297-5.097-20.027 20.648 8.156Zm0 0"/><path fill="#352a55" d="m227.656 325.914 24.29 13.383-20.762 10.437Zm0 0"/><path fill="#eff4f3" d="m231.3 297.668-1.534-29.945 22.125 24.25Zm0 0"/><path fill="#fcfcfd" d="m251.89 291.973-22.124-24.25 31.968 7.054Zm0 0"/><path fill="#fefcfe" d="m258.215 254.129-28.45 13.594 6.66-30.793ZM229.766 267.723l28.449-13.594 3.52 20.648Zm0 0"/><path fill="#352a55" d="m251.09 301.77-4.242 17.5-13.41-11.266Zm0 0"/><path fill="#8c9ea4" d="m264.559 298.156-13.47 3.614.802-9.797Zm0 0"/><path fill="#352a55" d="m246.848 319.27 4.242-17.5 9.32 4.984Zm0 0"/><path fill="#362c56" d="m251.09 301.77 13.469-3.614-4.149 8.598Zm0 0"/><path fill="#565970" d="m251.09 301.77-19.79-4.102 20.59-5.695Zm0 0"/><path fill="#5c6f7a" d="m231.3 297.668 19.79 4.102-17.653 6.234Zm0 0"/><path fill="#57f0c6" d="m167.98 383.96 29.594-19.405L239.95 384Zm0 0"/><path fill="#46586c" d="m183.074 329.508-4.562-7.621 10.09 2.925Zm0 0"/><path fill="#82e2b0" d="m178.512 321.887 9.707-10.13.383 13.055Zm0 0"/><path fill="#367b87" d="m178.512 321.887 4.562 7.62-13.18 9.102Zm0 0"/><path fill="#352c56" d="m161.625 319.695 16.887 2.192-8.617 16.722Zm0 0"/><path fill="#27f8d9" d="m170.078 360.707-21.418-5.187 21.235-16.91Zm0 0"/><path fill="#53f0c7" d="m170.078 360.707 27.496 3.848-29.594 19.406Zm0 0"/><path fill="#362b55" d="m149.45 334.684-16.692 22.882-9.88-32.914Zm0 0"/><path fill="#352a55" d="m132.758 357.566 16.691-22.882-.789 20.836Zm0 0"/><path fill="#5eebc1" d="m132.758 357.566 15.902-2.046-4.469 15.64Zm0 0"/><path fill="#50a197" d="m161.625 319.695 6.496-9.773 10.39 11.965Zm0 0"/><path fill="#3f4c67" d="m161.316 309.742 6.805.18-6.496 9.773Zm0 0"/><path fill="#81e3b1" d="m168.121 309.922 9.61-6.637.78 18.602Zm0 0"/><path fill="#7ee6b7" d="m177.73 303.285-9.609 6.637-3.492-14.613Zm0 0"/><path fill="#485f70" d="m168.121 309.922-6.805-.18 3.313-14.433Zm0 0"/><path fill="#ece2b4" d="m46.941 44.754 41.348 28-41.625 6.516Zm0 0"/><path fill="#dedc9e" d="m23.492 68.125 23.45-23.371-.278 34.516Zm0 0"/><path fill="#b6e8bb" d="M46.941 44.754 23.492 68.125 20.31 42.57Zm0 0"/><path fill="#dfdca8" d="m56.172 115.71-10.438-9.343 17.414-8.047Zm0 0"/><path fill="#d2dda7" d="m56.172 115.71 13.871-2.265-3.246 8.051Zm0 0"/><path fill="#d5e1b3" d="m70.043 113.445-13.871 2.266 6.976-17.39Zm0 0"/><path fill="#d2dea8" d="m36.395 129.973 19.777-14.262-.145 16.031Zm0 0"/><path fill="#cddda8" d="m56.172 115.71-19.777 14.263 9.34-23.606Zm0 0"/><path fill="#4c5e6e" d="m38.64 176.09 18.848 8.148-19.422 15.465Zm0 0"/><path fill="#b3daa1" d="m57.488 184.238-18.847-8.148 11.863-12.278Zm0 0"/><path fill="#59656f" d="m10.54 187.664 28.1-11.574-.574 23.613Zm0 0"/><path fill="#bddc9f" d="m38.64 176.09-28.1 11.574 21.382-23.992Zm0 0"/><path fill="#bfdc9f" d="M50.504 163.813 38.64 176.09l-6.72-12.418Zm0 0"/><path fill="#bbd497" d="m59.93 164.77-9.426-.958 5.523-32.07Zm0 0"/><path fill="#70ab93" d="m70.477 191.668-12.989-7.43 14.254-4.832Zm0 0"/><path fill="#98c89a" d="m57.488 184.238-6.984-20.425 9.426.957Zm0 0"/><path fill="#90cc9e" d="m71.742 179.406-14.254 4.832 2.442-19.468Zm0 0"/><path fill="#352a55" d="m150.488 252.254-23.093 19.285 14.554-25.95Zm0 0"/><path fill="#fefcfe" d="m274.965 89.867-6.426-22.52 15.176-4.199Zm0 0"/><path fill="#fefcfd" d="m293.613 79.563-18.648 10.304 8.75-26.719Zm0 0"/><path fill="#352a55" d="m299.383 270.602-22.57-12.579 21.351-5.906Zm0 0"/><path fill="#e2ece5" d="m282.184 278.563-5.372-20.54 22.57 12.579Zm0 0"/><path fill="#8fe5c7" d="m165.582 266.363 16.05-8.77-1.456 13.97Zm0 0"/><path fill="#352a55" d="m181.633 257.594-16.051 8.77 5.758-21.669Zm0 0"/><path fill="#d4f5e9" d="m180.176 271.563 1.457-13.97 13.648 1.15Zm0 0"/><path fill="#352a55" d="m202.3 340.238-3.417 4.125-10.281-19.55Zm0 0"/><path fill="#352a55" d="m198.883 344.363-15.809-14.855 5.528-4.695Zm0 0"/><path fill="#29f9d9" d="m170.078 360.707 28.805-16.344-1.309 20.192Zm0 0"/><path fill="#352a55" d="m183.074 329.508 15.809 14.855-28.988-5.754Zm0 0"/><path fill="#24f9da" d="m198.883 344.363-28.805 16.344-.183-22.098Zm0 0"/><path fill="#352a55" d="m60.043 131.422 19.934 3.45-5.973 17.843ZM60.043 131.422l6.754-9.926 13.18 13.375Zm0 0"/><path fill="#a4d39d" d="m59.93 164.77.113-33.348 13.96 21.293Zm0 0"/><path fill="#d9deaa" d="m56.172 115.71 3.871 15.712-4.016.32Zm0 0"/><path fill="#d5dfac" d="m66.797 121.496-6.754 9.926-3.871-15.711Zm0 0"/><path fill="#a9cf9a" d="m60.043 131.422-.113 33.348-3.903-33.028Zm0 0"/><path fill="#352a55" d="m108.797 277.926 4.484-19.016 14.114 12.63Zm0 0"/><path fill="#82917e" d="m122.508 245.117-9.227 13.793-6.984-10.094Zm0 0"/><path fill="#362b55" d="m113.281 258.91 9.227-13.793 4.887 26.422Zm0 0"/><path fill="#352a55" d="m127.395 271.54-4.887-26.423 19.441.473Zm0 0"/></svg>