<svg xmlns="http://www.w3.org/2000/svg" width="512" height="512" viewBox="0 0 384 384"><path fill="#2e222f" d="m264.668 0 49.36.004-13.614 20.703Zm0 0"/><path fill="#fab854" d="m148.438 137.535-18.56 1.66 7.86-25.906Zm0 0"/><path fill="#7a3044" d="m129.879 139.195 18.559-1.66-6.008 21.055Zm0 0"/><path fill="#fab854" d="m181.355 182.945 11.614-10.96 2.168 25.667Zm0 0"/><path fill="#f8b754" d="m177.316 195.645 4.04-12.7 13.78 14.707Zm0 0"/><path fill="#7a3044" d="m210.95 151.855-19.75-.367 9.07-18.011Zm0 0"/><path fill="#873943" d="m191.2 151.488 19.75.367-17.981 20.13Zm0 0"/><path fill="#997e72" d="m284.61 373.629 12.406 10.363-77.137-12.004Zm0 0"/><path fill="#2e222f" d="m288.238 32.07-26.035-11.675 38.211.312ZM228.988-.004l35.68.004-12.973 9.336ZM383.996 184.047l-.156-47.727.308.02Zm0 0"/><path fill="#fab854" d="m290.477 61.68-2.239-29.61 20.969 14.633Zm0 0"/><path fill="#575f68" d="M9.281 153.672 0 213.84.023 86.156Zm0 0"/><path fill="#2e222f" d="m142.023 17.984 22.165 3.141-21.5 5.125Zm0 0"/><path fill="#2e222f" d="M142.023 17.984 135.777 0l28.41 21.125ZM124.855 20.152l-51.12 2.504L135.776 0Zm0 0"/><path fill="#565f68" d="M41.387 65.762 24.5 99.555.023 86.156Zm0 0"/><path fill="#2e222f" d="m41.387 65.762 32.347-43.106 5.09 31.918ZM73.734 22.656 41.387 65.762 0 0Zm0 0"/><path fill="#fab853" d="m220.5 188.574-1.258 12.188-24.105-3.11Zm0 0"/><path fill="#fab854" d="m137.738 113.29-7.86 25.905-34.073 2.856Zm0 0"/><path fill="#fab753" d="m135.781 49.316-21.36 3.993 12.114-22.024Zm0 0"/><path fill="#793045" d="m115.285 164.7-35.508 3.593 16.028-26.242Zm0 0"/><path fill="#7a3044" d="M129.879 139.195 115.285 164.7l-19.48-22.648ZM148.438 137.535l14.773 16.528-20.781 4.527Zm0 0"/><path fill="#ac8367" d="m86.77 373.543-39.778-19.07 43.742-15.075Zm0 0"/><path fill="#4a3a45" d="m47.902 331.016-.91 23.457-15.195-15.68Zm0 0"/><path fill="#975641" d="m90.734 339.398-43.742 15.075.91-23.457Zm0 0"/><path fill="#715849" d="M11.293 313.328-.02 331.961l.008-58.215Zm0 0"/><path fill="#fab854" d="m11.293 313.328 27.441 6.934L-.02 331.96Zm0 0"/><path fill="#f7b654" d="m242.14 200.414-21.64-11.84 25.89-8.043Zm0 0"/><path fill="#783045" d="m219.242 200.762 22.899-.348 5.535 20.703Zm0 0"/><path fill="#f3b554" d="m242.14 200.414-22.898.348 1.258-12.188Zm0 0"/><path fill="#7c3144" d="m210.95 151.855 1.554 19.739-19.535.39Zm0 0"/><path fill="#fab854" d="m220.5 188.574-7.996-16.98 33.887 8.937ZM192.969 171.984l19.535-.39-17.367 26.058Zm0 0"/><path fill="#fab853" d="m212.504 171.594 7.996 16.98-25.363 9.078Zm0 0"/><path fill="#793045" d="m242.14 200.414 22.048-2.633-16.512 23.336Zm0 0"/><path fill="#fab853" d="m303.625 228.07-29.781 17.282-3.035-25.286Zm0 0"/><path fill="#793045" d="m294.234 199.695-23.425 20.371-6.622-22.285Zm0 0"/><path fill="#443846" d="m295.082 276.848-41.156 5.382 3.285-15.671ZM253.926 282.23l41.156-5.382-38.668 14.52Zm0 0"/><path fill="#f8b754" d="m354.926 311.652-16.946-26.664 27.168 2.614Zm0 0"/><path fill="#443846" d="m297.016 383.992 62.136-24.738L356.594 384Zm0 0"/><path fill="#5a6268" d="m289.836 302.184-30.84 13.675-2.582-24.492Zm0 0"/><path fill="#443845" d="m213.59 351.262 41.207-3.653-34.918 24.38Zm0 0"/><path fill="#473945" d="m254.797 347.61 29.812 26.019-64.73-1.64Zm0 0"/><path fill="#443846" d="M314.027.004 384 0l-53.863 22.664Zm0 0"/><path fill="#2e222f" d="M231.516 17.582 228.988-.004l22.707 9.34Zm0 0"/><path fill="#fab853" d="m258.574 29.79 29.664 2.28-25.863 23.254Zm0 0"/><path fill="#f7b754" d="m288.238 32.07-29.664-2.28 3.63-9.395Zm0 0"/><path fill="#433745" d="m288.238 32.07 12.176-11.363 8.793 25.996ZM330.137 22.664l-29.723-1.957L314.027.004Zm0 0"/><path fill="#2e222f" d="M262.203 20.395 264.668 0l35.746 20.707Zm0 0"/><path fill="#a9b1a1" d="m359.707 116.52 24.133 19.8-35.07 7.707Zm0 0"/><path fill="#433745" d="m383.84 136.32-24.133-19.8 9.285-18.395Zm0 0"/><path fill="#443846" d="m356.68 188.652 27.316-4.605.016 20.871Zm0 0"/><path fill="#575f68" d="m383.996 184.047-27.316 4.605 7.984-17.632Zm0 0"/><path fill="#565f68" d="m346.023 147.625 18.641 23.395-24.828-15.055Zm0 0"/><path fill="#443745" d="m321.418 214.262-5.727 15.883-15.238-14.47ZM315.691 230.145l-12.066-2.075-3.172-12.394Zm0 0"/><path fill="#443745" d="m333.82 228.906-18.129 1.239 5.727-15.883Zm0 0"/><path fill="#fab854" d="m320.43 103.203-14.078 16.602-7.782-15.887Zm0 0"/><path fill="#f9b853" d="m307.922 63.926 1.285-17.223 17.68 19.172Zm0 0"/><path fill="#fab854" d="m307.922 63.926-17.445-2.246 18.73-14.977ZM290.477 61.68l-28.102-6.356 25.863-23.254Zm0 0"/><path fill="#f9b854" d="m142.688 26.25-6.907 23.066-9.246-18.03Zm0 0"/><path fill="#2e222f" d="m0 0 41.387 65.762L.023 86.156ZM135.777 0 73.734 22.656 0 0Zm0 0"/><path fill="#453745" d="m111.828 226.91-1.05 1.028-20.434-2.11Zm0 0"/><path fill="#443745" d="m79.777 168.293 22.364 38.559-52.59-14.317Zm0 0"/><path fill="#793045" d="m102.14 206.852-11.796 18.976-40.793-33.293ZM90.344 225.828l11.797-18.976 9.687 20.058Zm0 0"/><path fill="#443846" d="m219.3 221.055-.058-20.293 28.434 20.355Zm0 0"/><path fill="#443846" d="m219.242 200.762.059 20.293-24.223-.41Zm0 0"/><path fill="#fab853" d="m219.3 221.055-16.327 22.023-7.895-22.433Zm0 0"/><path fill="#443745" d="m189.527 210.684 29.715-9.922-24.164 19.883Zm0 0"/><path fill="#793045" d="m189.527 210.684-12.21-15.04 17.82 2.008Zm0 0"/><path fill="#443745" d="m219.242 200.762-29.715 9.922 5.61-13.032Zm0 0"/><path fill="#7a3045" d="m142.43 158.59-27.145 6.11 14.594-25.505Zm0 0"/><path fill="#f8b754" d="m181.355 182.945-3.546-13.742 15.16 2.781Zm0 0"/><path fill="#7b3044" d="m177.809 169.203 13.39-17.715 1.77 20.496Zm0 0"/><path fill="#fab854" d="m74.36 299.375 1.062-13.363 24.715 8.035Zm0 0"/><path fill="#a3865a" d="m100.137 294.047-24.715-8.035 13.191-9.598Zm0 0"/><path fill="#fab854" d="m46.438 287.89 27.921 11.485-14.343 17.27Zm0 0"/><path fill="#f7b754" d="m46.438 287.89 28.984-1.878-1.063 13.363Zm0 0"/><path fill="#443845" d="m29.398 370.953 57.372 2.59-1.563 10.46Zm0 0"/><path fill="#be985b" d="m29.398 370.953 17.594-16.48 39.778 19.07Zm0 0"/><path fill="#433745" d="m0 384 29.398-13.047 55.809 13.05Zm0 0"/><path fill="#9c7f70" d="m217.719 384-61.606.02 15.575-15.149Zm0 0"/><path fill="#443845" d="m86.77 373.543 38.574 10.45-40.137.01Zm0 0"/><path fill="#443745" d="m129.43 376.348-16.996-19.59 10.593-3.422Zm0 0"/><path fill="#a6826b" d="m86.77 373.543 42.66 2.805-4.086 7.644Zm0 0"/><path fill="#453845" d="m129.43 376.348-42.66-2.805 25.664-16.785Zm0 0"/><path fill="#2e222f" d="m20.223 273.16 26.215 14.73-35.145 25.438Zm0 0"/><path fill="#565f68" d="m49.55 192.535-27.331 28.59 9.02-47.64Zm0 0"/><path fill="#576069" d="M22.219 221.125 9.28 153.672l21.957 19.812Zm0 0"/><path fill="#576069" d="m9.281 153.672 12.938 67.453L0 213.84Zm0 0"/><path fill="#793045" d="m90.344 225.828-36.125-8.808-4.668-24.485Zm0 0"/><path fill="#fab854" d="m54.852 257.117-.633-40.097 36.125 8.808Zm0 0"/><path fill="#fab853" d="m110.777 227.938 2.383 16.234-22.816-18.344Zm0 0"/><path fill="#443846" d="m88.613 276.414-3.488-24.695 20.797 10.597Zm0 0"/><path fill="#443846" d="m85.125 251.719 28.035-7.547-7.238 18.144ZM85.125 251.719l-30.273 5.398 35.492-31.289Zm0 0"/><path fill="#fab854" d="m113.16 244.172-28.035 7.547 5.219-25.89Zm0 0"/><path fill="#443846" d="M85.125 251.719 74.719 272.96l-19.867-15.844Zm0 0"/><path fill="#eaad53" d="m74.719 272.96 13.894 3.454-13.191 9.598Zm0 0"/><path fill="#453846" d="m74.719 272.96 10.406-21.241 3.488 24.695Zm0 0"/><path fill="#493c46" d="m38.734 320.262 21.282-3.617-12.114 14.37Zm0 0"/><path fill="#d0a259" d="m267.895 151.73-21.504 28.801-1.977-15.886Zm0 0"/><path fill="#fab854" d="m246.39 180.531 17.798 17.25-22.047 2.633Zm0 0"/><path fill="#fab854" d="m276.547 173.852 13.195 13.68-25.555 10.25Zm0 0"/><path fill="#2e222f" d="m289.742 187.531 4.492 12.164-30.046-1.914Zm0 0"/><path fill="#473a46" d="m253.926 282.23-13.992-35.761 17.277 20.09Zm0 0"/><path fill="#fab853" d="M252.215 237.168 231 234.855l16.676-13.738Zm0 0"/><path fill="#fab854" d="m252.215 237.168 21.629 8.184-16.633 21.207ZM252.215 237.168l-12.281 9.3L231 234.856Zm0 0"/><path fill="#fab854" d="m239.934 246.469 12.28-9.301 4.997 29.39Zm0 0"/><path fill="#793045" d="m270.809 220.066-23.133 1.051 16.512-23.336Zm0 0"/><path fill="#793045" d="m300.453 215.676-29.644 4.39 23.425-20.37Zm0 0"/><path fill="#443745" d="m300.453 215.676 3.172 12.394-32.816-8.004Zm0 0"/><path fill="#443846" d="m253.926 282.23-29.516-17.605 15.524-18.156Zm0 0"/><path fill="#453846" d="m273.844 245.352 21.238 31.496-37.871-10.29Zm0 0"/><path fill="#443846" d="m224.41 264.625-4.824 27.23-22.082-16.082Zm0 0"/><path fill="#5b6268" d="m219.586 291.855 34.34-9.625 2.488 9.137Zm0 0"/><path fill="#443846" d="m219.586 291.855 4.824-27.23 29.516 17.605Zm0 0"/><path fill="#fab854" d="m179.434 294.23 34.668 19.18-37.38 9.113Zm0 0"/><path fill="#433745" d="m369.59 289.273 14.418-18.308-.02 36.219Zm0 0"/><path fill="#f6b654" d="m384 252.828.008 18.137-13.668-4.695Zm0 0"/><path fill="#443846" d="m384.008 270.965-14.418 18.308.75-23.003Zm0 0"/><path fill="#2e222f" d="m384 252.828-11.316-3.508L384 236.676Zm0 0"/><path fill="#443846" d="m370.34 266.27-.75 23.003-4.442-1.671Zm0 0"/><path fill="#fab854" d="m337.98 284.988 32.36-18.718-5.192 21.332Zm0 0"/><path fill="#443845" d="m369.59 289.273 14.398 17.91-29.062 4.47Zm0 0"/><path fill="#433745" d="m369.59 289.273-14.664 22.38 10.222-24.051Zm0 0"/><path fill="#2e222f" d="m340.871 324.2 18.281 35.054-41.16-11.656Zm0 0"/><path fill="#5a6268" d="M354.926 311.652 340.87 324.2l-2.89-39.21Zm0 0"/><path fill="#443845" d="M384 384h-27.406l2.558-24.746Zm0 0"/><path fill="#443846" d="M384.023 344.633 384 384l-24.848-24.746Zm0 0"/><path fill="#5b6167" d="m384.023 344.633-43.152-20.434 14.055-12.547Zm0 0"/><path fill="#2e222f" d="m340.871 324.2 43.152 20.433-24.87 14.62Zm0 0"/><path fill="#fab853" d="m182.266 351.418-14.825-2.168 16.157-6.64Zm0 0"/><path fill="#fab853" d="m182.266 351.418 1.332-8.809 29.992 8.653Zm0 0"/><path fill="#9a7f72" d="m284.61 373.629 14.374-4.961-1.968 15.324Zm0 0"/><path fill="#a38875" d="m297.016 383.992 1.968-15.324 60.168-9.414Zm0 0"/><path fill="#433745" d="m298.984 368.668 19.008-21.07 41.16 11.656Zm0 0"/><path fill="#fab854" d="m289.836 302.184 22.047 33.793-28.66-7.504Zm0 0"/><path fill="#443745" d="M362.313 78.707 384 43.086l.004 45.465ZM300.414 20.707l29.723 1.957-20.93 24.04Zm0 0"/><path fill="#2e222f" d="m228.988-.004-28.96 17.707L176.761 0Zm0 0"/><path fill="#2e222f" d="m231.516 17.582-31.489.121L228.988-.004ZM200.027 17.703l-21.968-1.265L176.762 0Zm0 0"/><path fill="#fab853" d="m137.738 113.29 38.75 23.683-28.05.562Zm0 0"/><path fill="#793045" d="m176.488 136.973-13.277 17.09-14.774-16.528ZM191.2 151.488l-14.712-14.515 23.782-3.496Zm0 0"/><path fill="#793044" d="m177.809 169.203-1.32-32.23 14.71 14.515Zm0 0"/><path fill="#7a3044" d="m176.488 136.973 1.32 32.23-14.597-15.14Zm0 0"/><path fill="#fab854" d="m306.352 119.805-23.239 4.297 15.457-20.184Zm0 0"/><path fill="#463a46" d="m283.113 124.102 23.239-4.297-10.954 16.789Zm0 0"/><path fill="#816d56" d="m383.84 136.32.164-47.77.144 47.79Zm0 0"/><path fill="#433745" d="m384.004 88.55-.164 47.77-14.848-38.195Zm0 0"/><path fill="#5d6164" d="m383.84 136.32-11.602 27.137-23.468-19.43Zm0 0"/><path fill="#565f68" d="m372.238 163.457-26.215-15.832 2.747-3.598Zm0 0"/><path fill="#576068" d="m372.238 163.457 11.758 20.59-19.332-13.027Zm0 0"/><path fill="#2f2330" d="m372.238 163.457 11.602-27.137.156 47.727Zm0 0"/><path fill="#565f68" d="m372.238 163.457-7.574 7.563-18.64-23.395Zm0 0"/><path fill="#433745" d="m384 236.676-15.445-20.89 15.457-10.868Zm0 0"/><path fill="#793044" d="m321.418 214.262-20.965 1.414-6.219-15.98Zm0 0"/><path fill="#7a3044" d="m321.418 214.262-27.184-14.567 25.446-1.715Zm0 0"/><path fill="#fab854" d="m305.805 82.648 14.625 20.555-21.86.715Zm0 0"/><path fill="#443846" d="m362.313 78.707 21.69 9.844-15.01 9.574ZM353.16 97.41l9.152-18.703 6.68 19.418Zm0 0"/><path fill="#443846" d="m338.16 80.828 3.453-27.016 20.7 24.895Zm0 0"/><path fill="#f9b853" d="m326.887 65.875 11.273 14.953-11.492 5.555Zm0 0"/><path fill="#443846" d="m341.613 53.813-3.453 27.015-11.273-14.953Zm0 0"/><path fill="#fab854" d="m305.805 82.648 21.082-16.773-.219 20.508Zm0 0"/><path fill="#fab854" d="m305.805 82.648 2.117-18.722 18.965 1.949Zm0 0"/><path fill="#fab854" d="m307.922 63.926-2.117 18.722-15.328-20.968Zm0 0"/><path fill="#576068" d="m9.281 153.672 17.469-8.348 4.488 28.16Zm0 0"/><path fill="#576068" d="m26.75 145.324 39.402-2.57-34.914 30.73Zm0 0"/><path fill="#443846" d="m53.883 73.414-12.496-7.652 37.437-11.188Zm0 0"/><path fill="#576068" d="M53.883 73.414 24.5 99.554l16.887-33.792Zm0 0"/><path fill="#7f7663" d="m31.238 173.484 48.54-5.191-30.227 24.242Zm0 0"/><path fill="#807663" d="m66.152 142.754 13.625 25.539-48.539 5.191Zm0 0"/><path fill="#2e222f" d="M135.777 0h40.985l-12.574 21.125ZM176.762 0l1.297 16.438-13.871 4.687Zm0 0"/><path fill="#cd683d" d="m159.5 43.328 5.398-13.629 11.747 10.13Zm0 0"/><path fill="#fab854" d="m164.188 21.125.71 8.574-22.21-3.449Zm0 0"/><path fill="#c6643d" d="M164.898 29.7 159.5 43.327 142.688 26.25Zm0 0"/><path fill="#fab853" d="M202.703 63.652 159.5 43.328l17.145-3.5Zm0 0"/><path fill="#f7b352" d="m159.5 43.328-23.719 5.988 6.906-23.066Zm0 0"/><path fill="#7b3144" d="m78.824 54.574 35.598-1.265-21.45 19.617Zm0 0"/><path fill="#2e222f" d="M101.023 40.59 73.734 22.656l51.121-2.504Zm0 0"/><path fill="#2e222f" d="M101.023 40.59 78.824 54.574l-5.09-31.918ZM101.023 40.59l23.832-20.438 1.68 11.133Zm0 0"/><path fill="#fab853" d="m114.422 53.309-13.399-12.72 25.512-9.304Zm0 0"/><path fill="#2e222f" d="m142.688 26.25-17.833-6.098 17.168-2.168Zm0 0"/><path fill="#2e222f" d="M124.855 20.152 135.777 0l6.246 17.984ZM124.855 20.152l17.832 6.098-16.152 5.035Zm0 0"/><path fill="#793045" d="m102.14 206.852 38.532 20.46-28.844-.402Zm0 0"/><path fill="#443845" d="m110.766 273.613-10.63 20.434-11.523-17.633Zm0 0"/><path fill="#443846" d="m105.922 262.316 4.844 11.297-22.153 2.801Zm0 0"/><path fill="#fab853" d="m231 234.855-11.7-13.8 28.376.062Zm0 0"/><path fill="#fab854" d="m219.3 221.055 11.7 13.8-28.027 8.223Zm0 0"/><path fill="#793045" d="m189.527 210.684-46.582-5.82 34.371-9.22Zm0 0"/><path fill="#793045" d="m171.074 222.16-30.402 5.153 2.273-22.45ZM140.672 227.313l-38.531-20.461 40.804-1.989Zm0 0"/><path fill="#fab853" d="m127.137 241.55-15.309-14.64 28.844.403Zm0 0"/><path fill="#443745" d="m143.984 188.566 33.332 7.079-34.37 9.218Zm0 0"/><path fill="#fab854" d="m143.984 188.566 11.485-12.793 21.847 19.872Zm0 0"/><path fill="#f9b854" d="m155.469 175.773-11.485 12.793-1.554-29.976Zm0 0"/><path fill="#e4ac56" d="m162.023 169.367 15.786-.164 3.546 13.742Zm0 0"/><path fill="#7e3244" d="m177.809 169.203-15.786.164 1.188-15.304Zm0 0"/><path fill="#fab854" d="m155.469 175.773 6.554-6.406 15.293 26.278Zm0 0"/><path fill="#b35940" d="m163.21 154.063-1.187 15.304-19.593-10.777Zm0 0"/><path fill="#f2b454" d="m162.023 169.367-6.554 6.406-13.04-17.183Zm0 0"/><path fill="#fab853" d="m162.023 169.367 19.332 13.578-4.039 12.7Zm0 0"/><path fill="#443846" d="m127.898 184.844-25.757 22.008-22.364-38.559Zm0 0"/><path fill="#443745" d="m102.14 206.852 25.758-22.008 15.047 20.02Zm0 0"/><path fill="#443846" d="m115.285 164.7 12.613 20.144-48.12-16.551Zm0 0"/><path fill="#fab854" d="m142.43 158.59-14.532 26.254-12.613-20.145Zm0 0"/><path fill="#433745" d="m127.898 184.844 16.086 3.722-1.039 16.297Zm0 0"/><path fill="#f9b854" d="m143.984 188.566-16.086-3.722 14.532-26.254Zm0 0"/><path fill="#443846" d="m.016 368.36 29.382 2.593L0 384Zm0 0"/><path fill="#df9f56" d="M29.398 370.953.016 368.36l31.78-29.566Zm0 0"/><path fill="#aa8369" d="m31.797 338.793 15.195 15.68-17.594 16.48Zm0 0"/><path fill="#f9b753" d="m171.688 368.871-15.575 15.149-12.14-35.137Zm0 0"/><path fill="#443845" d="m167.441 349.25 4.246 19.621-27.714-19.988Zm0 0"/><path fill="#443845" d="m182.266 351.418-10.578 17.453-4.247-19.621Zm0 0"/><path fill="#fab854" d="m167.441 349.25 9.282-26.727 6.875 20.086Zm0 0"/><path fill="#a08370" d="m125.344 383.992 4.086-7.644 26.683 7.672Zm0 0"/><path fill="#443846" d="m129.43 376.348-6.403-23.012 20.946-4.453Zm0 0"/><path fill="#c06f4a" d="m156.113 384.02-26.683-7.672 14.543-27.465Zm0 0"/><path fill="#fab854" d="m110.766 273.613 10.39 4.95-21.02 15.484Zm0 0"/><path fill="#edb155" d="m121.156 278.563 25.54 7.285-7.18 12.437Zm0 0"/><path fill="#543f46" d="m123.027 353.336-5.23-11.324 26.176 6.87Zm0 0"/><path fill="#593d45" d="m112.434 356.758 5.363-14.746 5.23 11.324Zm0 0"/><path fill="#473a46" d="m60.016 316.645 30.718 22.753-42.832-8.382Zm0 0"/><path fill="#fab854" d="m90.754 316.57 9.383-22.523 24.265 22.515Zm0 0"/><path fill="#fab854" d="m100.137 294.047 39.379 4.238-15.114 18.277Zm0 0"/><path fill="#433745" d="m100.137 294.047 21.02-15.485 18.359 19.723Zm0 0"/><path fill="#576068" d="M22.219 221.125.004 233.652 0 213.84Zm0 0"/><path fill="#9f875f" d="m54.852 257.117-8.414 30.774-26.215-14.73Zm0 0"/><path fill="#5e6368" d="m46.438 287.89 8.414-30.773 20.57 28.895Zm0 0"/><path fill="#443846" d="m54.852 257.117 19.867 15.844.703 13.05Zm0 0"/><path fill="#453946" d="m46.438 287.89-7.704 32.372-27.441-6.934Zm0 0"/><path fill="#443846" d="m38.734 320.262 7.703-32.371 13.579 28.754Zm0 0"/><path fill="#576068" d="m43.883 222.191-21.664-1.066 27.332-28.59Zm0 0"/><path fill="#fab854" d="m54.219 217.02-10.336 5.171 5.668-29.656Zm0 0"/><path fill="#f0b153" d="m43.883 222.191 10.336-5.171.633 40.097Zm0 0"/><path fill="#443845" d="m110.766 273.613 11.921-7.222-1.53 12.171Zm0 0"/><path fill="#443846" d="m122.688 266.39-11.922 7.223-4.844-11.297Zm0 0"/><path fill="#443846" d="m122.688 266.39-16.766-4.074 7.238-18.144Zm0 0"/><path fill="#f5b554" d="m38.734 320.262 9.168 10.754-16.105 7.777Zm0 0"/><path fill="#998460" d="m276.547 173.852-30.156 6.68 21.504-28.802Zm0 0"/><path fill="#fab854" d="m283.2 162.793-6.653 11.059-8.652-22.122Zm0 0"/><path fill="#fab853" d="m270.809 220.066-18.594 17.102-4.54-16.05Zm0 0"/><path fill="#fab854" d="m252.215 237.168 18.594-17.102 3.035 25.286ZM276.547 173.852l-12.36 23.93-17.796-17.25ZM224.41 264.625l-6.605-11.898 22.129-6.258Zm0 0"/><path fill="#fab854" d="M217.805 252.727 231 234.855l8.934 11.614ZM231 234.855l-13.195 17.872-14.832-9.649Zm0 0"/><path fill="#f9b753" d="m307.7 254.809-33.856-9.457 29.781-17.282Zm0 0"/><path fill="#443846" d="m307.7 254.809-12.618 22.039-21.238-31.496Zm0 0"/><path fill="#ae8f5d" d="m315.691 230.145-7.992 24.664-4.074-26.739Zm0 0"/><path fill="#8e7e61" d="m298.332 284.418-8.496 17.766-33.422-10.817Zm0 0"/><path fill="#576068" d="m219.586 291.855-5.484 21.555-34.668-19.18Zm0 0"/><path fill="#433745" d="m219.586 291.855-40.152 2.375 18.07-18.457Zm0 0"/><path fill="#f0ae52" d="m182.328 235.078-11.254-12.918 24.004-1.515Zm0 0"/><path fill="#443745" d="m171.074 222.16 18.453-11.476 5.551 9.96Zm0 0"/><path fill="#793045" d="m171.074 222.16-28.129-17.297 46.582 5.82Zm0 0"/><path fill="#443846" d="m196.074 266.422 28.336-1.797-26.906 11.148Zm0 0"/><path fill="#443846" d="m196.074 266.422 21.73-13.695 6.606 11.898Zm0 0"/><path fill="#443846" d="m217.805 252.727-21.73 13.695 6.898-23.344Zm0 0"/><path fill="#fab853" d="m202.973 243.078-20.645-8 12.75-14.433Zm0 0"/><path fill="#f2b454" d="M372.684 249.32 384 252.828l-13.66 13.442Zm0 0"/><path fill="#423644" d="m367.848 238.137.707-22.352L384 236.675Zm0 0"/><path fill="#2e222f" d="m372.684 249.32-4.836-11.183L384 236.676Zm0 0"/><path fill="#636667" d="m337.98 284.988 2.891 39.211-21.168-8.344Zm0 0"/><path fill="#493b46" d="m383.988 307.184.035 37.449-29.097-32.98Zm0 0"/><path fill="#443846" d="m171.688 368.871 10.578-17.453 31.324-.156Zm0 0"/><path fill="#9a7f72" d="m217.719 384 2.16-12.012 77.137 12.004Zm0 0"/><path fill="#4a3a45" d="m219.879 371.988-48.191-3.117 41.902-17.61Zm0 0"/><path fill="#997f72" d="m171.688 368.871 48.19 3.117-2.16 12.012Zm0 0"/><path fill="#fab854" d="m214.102 313.41-8.395 17.871-28.984-8.758Zm0 0"/><path fill="#fab854" d="m205.707 331.281-22.11 11.328-6.874-20.086Zm0 0"/><path fill="#fab853" d="m183.598 342.61 22.109-11.329 7.883 19.98Zm0 0"/><path fill="#443845" d="m298.984 368.668-9.726-23.059 28.734 1.989Zm0 0"/><path fill="#423845" d="m289.258 345.61 22.625-9.633 6.11 11.62Zm0 0"/><path fill="#443846" d="m289.258 345.61 9.726 23.058-14.375 4.96Zm0 0"/><path fill="#443845" d="m254.797 347.61 34.46-2-4.648 28.019Zm0 0"/><path fill="#fab854" d="m289.258 345.61-34.461 2 28.426-19.137ZM311.883 335.977l-22.625 9.632-6.035-17.136Zm0 0"/><path fill="#576068" d="m311.883 335.977 28.988-11.778-22.879 23.399Zm0 0"/><path fill="#fab854" d="m340.871 324.2-28.988 11.777 7.82-20.122Zm0 0"/><path fill="#443846" d="M384 0v43.086l-53.863-20.422Zm0 0"/><path fill="#433745" d="m384 43.086-42.387 10.727-11.476-31.149Zm0 0"/><path fill="#433845" d="m309.207 46.703 32.406 7.11-14.726 12.062Zm0 0"/><path fill="#433745" d="m330.137 22.664 11.476 31.149-32.406-7.11ZM341.613 53.813 384 43.085l-21.687 35.621Zm0 0"/><path fill="#7c3144" d="m253.703 144.73 14.192 7-23.48 12.915Zm0 0"/><path fill="#fab853" d="m253.297 106.922-4.281 21.441-21.68-16.273Zm0 0"/><path fill="#fab853" d="m235.328 80.977 17.969 25.945-25.961 5.168Zm0 0"/><path fill="#fab854" d="m283.113 124.102-9.082-36.618 24.54 16.434Zm0 0"/><path fill="#443846" d="m353.16 97.41-9.441 15.137-2-13.817Zm0 0"/><path fill="#fab854" d="m320.43 103.203 6.238-16.82 15.05 12.347Zm0 0"/><path fill="#f8b754" d="m343.719 112.547-23.29-9.344 21.29-4.473Zm0 0"/><path fill="#f9b854" d="m320.43 103.203 23.289 9.344-19.516 4.125Zm0 0"/><path fill="#586068" d="m327.777 167.957 12.059-11.992 8.047 30.433Zm0 0"/><path fill="#576068" d="m356.68 188.652-16.844-32.687 24.828 15.055Zm0 0"/><path fill="#fab854" d="m299.004 166.973-9.262 20.558-13.195-13.68Zm0 0"/><path fill="#443846" d="m368.555 215.785-11.875-27.133 27.332 16.266Zm0 0"/><path fill="#f1b354" d="m367.809 215.793-19.012-4.465 7.883-22.676Zm0 0"/><path fill="#443846" d="m368.555 215.785-.746.008-11.13-27.14Zm0 0"/><path fill="#576068" d="m347.883 186.398-8.047-30.433 16.844 32.687Zm0 0"/><path fill="#793045" d="m347.883 186.398-26.465 27.864-1.738-16.282Zm0 0"/><path fill="#a7b0a0" d="m348.77 144.027-2.747 3.598-21.82-30.953Zm0 0"/><path fill="#fab854" d="m306.352 119.805 14.078-16.602 3.773 13.469Zm0 0"/><path fill="#443746" d="m359.707 116.52-6.547-19.11 15.832.715Zm0 0"/><path fill="#fab853" d="m326.668 86.383 11.492-5.555 3.559 17.902Zm0 0"/><path fill="#443846" d="m338.16 80.828 15 16.582-11.441 1.32Zm0 0"/><path fill="#453846" d="m353.16 97.41-15-16.582 24.152-2.121Zm0 0"/><path fill="#576068" d="M9.281 153.672 24.5 99.555l2.25 45.77Zm0 0"/><path fill="#576068" d="M.023 86.156 24.5 99.555 9.281 153.672Zm0 0"/><path fill="#2e222f" d="m178.059 16.438.394 4.289-14.266.398Zm0 0"/><path fill="#f7b754" d="m178.453 20.727-13.555 8.972-.71-8.574Zm0 0"/><path fill="#2e222f" d="m200.027 17.703-21.574 3.024-.394-4.29Zm0 0"/><path fill="#db8244" d="m130.54 72.645-16.118-19.336 21.36-3.993Zm0 0"/><path fill="#fab853" d="m130.54 72.645 53.991 21.77-46.793 18.874Zm0 0"/><path fill="#793045" d="m130.54 72.645 5.241-23.329 23.719-5.988Zm0 0"/><path fill="#fab853" d="m184.531 94.414-53.992-21.77L159.5 43.329ZM114.422 53.309l16.117 19.336-37.566.28Zm0 0"/><path fill="#e69c4e" d="m78.824 54.574 22.2-13.984 13.398 12.719Zm0 0"/><path fill="#fab854" d="m111.828 226.91 15.309 14.64-13.977 2.622Zm0 0"/><path fill="#fab853" d="m111.828 226.91 1.332 17.262-2.383-16.234ZM127.137 241.55l.933 21.563-14.91-18.941Zm0 0"/><path fill="#443846" d="m128.07 263.113-5.382 3.278-9.528-22.22Zm0 0"/><path fill="#777164" d="m163.191 310.547-23.675-12.262 7.18-12.437Zm0 0"/><path fill="#f7b654" d="m147.105 331.832 20.336 17.418-23.468-.367Zm0 0"/><path fill="#fab854" d="m147.105 331.832 29.618-9.309-9.282 26.727ZM117.797 342.012l29.308-10.18-3.132 17.05Zm0 0"/><path fill="#443846" d="m122.688 266.39 24.007 19.458-25.539-7.286Zm0 0"/><path fill="#9a7e71" d="m86.77 373.543 3.964-34.145 21.7 17.36Zm0 0"/><path fill="#564045" d="m90.734 339.398 27.063 2.614-5.363 14.746Zm0 0"/><path fill="#fab854" d="m106.063 327.852-15.31-11.282 33.65-.007Zm0 0"/><path fill="#f9b854" d="m90.754 316.57-.02 22.828-30.718-22.753Zm0 0"/><path fill="#fab854" d="m74.36 299.375 16.394 17.195-30.738.075Zm0 0"/><path fill="#fab854" d="m90.754 316.57-16.395-17.195 25.778-5.328Zm0 0"/><path fill="#2e222f" d="m20.223 273.16-8.93 40.168-11.305-39.582Zm0 0"/><path fill="#433745" d="m20.223 273.16 23.66-50.969 10.969 34.926Zm0 0"/><path fill="#e4ac56" d="m.004 233.652 20.219 39.508-20.235.586Zm0 0"/><path fill="#c59b5a" d="M20.223 273.16.003 233.652l22.216-12.527Zm0 0"/><path fill="#433745" d="m43.883 222.191-23.66 50.97 1.996-52.036ZM307.7 254.809l13.683 16.574-26.301 5.465Zm0 0"/><path fill="#2e222f" d="m336.926 248.02-29.227 6.789 7.992-24.664Zm0 0"/><path fill="#f1b253" d="m336.926 248.02-21.235-17.875 18.13-1.239Zm0 0"/><path fill="#2e222f" d="m336.926 248.02 11.219-3.028-5.004 19.184ZM348.145 244.992l-11.22 3.028-3.105-19.114Zm0 0"/><path fill="#fab854" d="m289.836 302.184 29.867 13.671-7.82 20.122ZM258.996 315.86l30.84-13.676-6.613 26.289Zm0 0"/><path fill="#fab854" d="m254.797 347.61 4.2-31.75 24.226 12.613Zm0 0"/><path fill="#ebb056" d="m258.996 315.86-39.41-24.005 36.828-.488Zm0 0"/><path fill="#606467" d="m219.586 291.855 39.41 24.004-44.894-2.449Zm0 0"/><path fill="#443846" d="m196.074 266.422-25.203 9.707 9.766-15.836Zm0 0"/><path fill="#f1b253" d="m345.336 265.238-7.356 19.75 5.16-20.812Zm0 0"/><path fill="#f5b654" d="m345.336 265.238 25.004 1.032-32.36 18.718Zm0 0"/><path fill="#fab853" d="m205.707 331.281 18.36.11-10.477 19.87Zm0 0"/><path fill="#fab854" d="m224.066 331.39 30.73 16.22-41.206 3.652ZM224.066 331.39l-18.359-.109 8.395-17.87Zm0 0"/><path fill="#fab854" d="m224.066 331.39 34.93-15.53-4.2 31.75ZM258.996 315.86l-34.93 15.53-9.964-17.98Zm0 0"/><path fill="#2e222f" d="m262.203 20.395-30.687-2.813 20.18-8.246Zm0 0"/><path fill="#ab8d5d" d="m231.516 17.582 30.687 2.813-3.629 9.394Zm0 0"/><path fill="#2e222f" d="m264.668 0-2.465 20.395-10.508-11.06Zm0 0"/><path fill="#fab854" d="m176.488 136.973 8.043-42.559 15.739 39.063Zm0 0"/><path fill="#fab853" d="m184.531 94.414-8.043 42.559-38.75-23.684Zm0 0"/><path fill="#443846" d="m271.402 133.125 11.711-9.023 12.285 12.492Zm0 0"/><path fill="#453846" d="m283.113 124.102-11.71 9.023-22.387-4.762Zm0 0"/><path fill="#bb5c3e" d="m239.242 148.371 14.461-3.64-9.289 19.914Zm0 0"/><path fill="#fab854" d="m249.016 128.363-19.977 2.684-1.703-18.957Zm0 0"/><path fill="#793045" d="m229.04 131.047 19.976-2.684-9.774 20.008Zm0 0"/><path fill="#fab854" d="m253.297 106.922 20.734-19.438 9.082 36.618Zm0 0"/><path fill="#fab854" d="m253.297 106.922 29.816 17.18-34.097 4.261Zm0 0"/><path fill="#d4a358" d="m283.2 162.793 15.804 4.18-22.457 6.879Zm0 0"/><path fill="#443745" d="m294.234 199.695 9.512-12.742 15.934 11.027Zm0 0"/><path fill="#433745" d="m289.742 187.531 14.004-.578-9.512 12.742Zm0 0"/><path fill="#453946" d="m299.004 166.973 4.742 19.98-14.004.578ZM367.809 215.793l.746-.008-8.457 19.59Zm0 0"/><path fill="#423644" d="m368.555 215.785-.707 22.352-7.75-2.762Zm0 0"/><path fill="#463946" d="m348.797 211.328-.914-24.93 8.797 2.254Zm0 0"/><path fill="#cb673d" d="m347.883 186.398.914 24.93-27.379 2.934Zm0 0"/><path fill="#2e222f" d="m348.145 244.992-14.325-16.086 26.278 6.469Zm0 0"/><path fill="#586068" d="m346.023 147.625-32.918-17.969 11.098-12.984Zm0 0"/><path fill="#586169" d="m313.105 129.656 26.73 26.309-27.913-2.75Zm0 0"/><path fill="#9ea79a" d="m339.836 155.965-26.73-26.309 32.917 17.969Zm0 0"/><path fill="#787164" d="m313.105 129.656-6.753-9.851 17.851-3.133Zm0 0"/><path fill="#576068" d="m295.398 136.594 17.707-6.938-1.183 23.559Zm0 0"/><path fill="#5e6367" d="m306.352 119.805 6.753 9.851-17.707 6.938Zm0 0"/><path fill="#595f65" d="m318.074 180.25 9.703-12.293 20.106 18.441Zm0 0"/><path fill="#443846" d="m318.074 180.25-14.328 6.703-4.742-19.98Zm0 0"/><path fill="#443745" d="m318.074 180.25 29.809 6.148-28.203 11.582Zm0 0"/><path fill="#443846" d="m303.746 186.953 14.328-6.703 1.606 17.73Zm0 0"/><path fill="#a9b1a1" d="m343.719 112.547 5.05 31.48-24.566-27.355Zm0 0"/><path fill="#a9b2a1" d="m343.719 112.547 15.988 3.973-10.937 27.507Zm0 0"/><path fill="#443846" d="m359.707 116.52-15.988-3.973 9.441-15.137Zm0 0"/><path fill="#fab854" d="m320.43 103.203-14.625-20.555 20.863 3.735Zm0 0"/><path fill="#fab853" d="m130.54 72.645-31.485 31.027-6.082-30.746Zm0 0"/><path fill="#fab853" d="m99.055 103.672-31.133-8.68 25.05-22.066Zm0 0"/><path fill="#fab854" d="m99.055 103.672 38.683 9.617-41.933 28.762Zm0 0"/><path fill="#fab854" d="m137.738 113.29-38.683-9.618 31.484-31.027Zm0 0"/><path fill="#c6653e" d="M92.973 72.926 67.922 94.992l-14.04-21.578Zm0 0"/><path fill="#fab853" d="m92.973 72.926-39.09.488 24.941-18.84ZM67.922 94.992l-30.79 10.145 16.75-31.723Zm0 0"/><path fill="#575f68" d="m53.883 73.414-16.75 31.723L24.5 99.555Zm0 0"/><path fill="#576068" d="m24.5 99.555 12.633 5.582-10.383 40.187Zm0 0"/><path fill="#fab854" d="m202.512 27.7-24.059-6.973 21.574-3.024Zm0 0"/><path fill="#fab854" d="m202.512 27.7-2.485-9.997 31.489-.121Zm0 0"/><path fill="#f9b753" d="m232.156 41.883-29.644-14.184 29.004-10.117Zm0 0"/><path fill="#f9b653" d="m178.453 20.727-1.808 19.101L164.898 29.7Zm0 0"/><path fill="#fab853" d="m202.512 27.7-25.867 12.128 1.808-19.101Zm0 0"/><path fill="#443846" d="m170.871 276.129-24.687-23.824 34.453 7.988Zm0 0"/><path fill="#fab854" d="m146.184 252.305-19.047-10.754 13.535-14.238Zm0 0"/><path fill="#fab853" d="m146.184 252.305-18.114 10.808-.933-21.562Zm0 0"/><path fill="#a18370" d="m.016 368.36-.036-36.4 31.817 6.833Zm0 0"/><path fill="#443745" d="m170.871 276.129 25.203-9.707 1.43 9.351ZM179.434 294.23l-8.563-18.101 26.633-.356Zm0 0"/><path fill="#f8b754" d="m163.191 310.547 16.243-16.317-2.711 28.293Zm0 0"/><path fill="#4b3b46" d="m90.734 339.398 5.649-2.914 21.414 5.528Zm0 0"/><path fill="#fab853" d="m96.383 336.484 9.68-8.632 11.734 14.16Zm0 0"/><path fill="#fab854" d="m106.063 327.852-9.68 8.632-5.63-19.914Zm0 0"/><path fill="#f6b653" d="m90.754 316.57 5.629 19.914-5.649 2.914Zm0 0"/><path fill="#fab854" d="m124.402 316.563 22.703 15.269-29.308 10.18Zm0 0"/><path fill="#fab854" d="m106.063 327.852 18.34-11.29-6.606 25.45Zm0 0"/><path fill="#fab854" d="m147.105 331.832-22.703-15.27 38.79-6.015Zm0 0"/><path fill="#fab854" d="m163.191 310.547-38.789 6.015 15.114-18.277Zm0 0"/><path fill="#443846" d="m321.383 271.383-23.051 13.035-3.25-7.57Zm0 0"/><path fill="#433745" d="m295.082 276.848 3.25 7.57-41.918 6.95Zm0 0"/><path fill="#f7b755" d="m337.98 284.988-16.597-13.605 21.758-7.207Zm0 0"/><path fill="#2e222f" d="m321.383 271.383 15.543-23.363 6.215 16.156Zm0 0"/><path fill="#2e222f" d="m336.926 248.02-15.543 23.363-13.684-16.574Zm0 0"/><path fill="#6e6d65" d="m298.332 284.418 21.371 31.437-29.867-13.671Zm0 0"/><path fill="#f7b653" d="m164.676 240.11 23.273 14.077-7.312 6.106Zm0 0"/><path fill="#443745" d="m187.95 254.188 8.124 12.234-15.437-6.129Zm0 0"/><path fill="#fab853" d="m187.95 254.188-23.274-14.079 17.652-5.03Zm0 0"/><path fill="#fab853" d="m202.973 243.078-15.024 11.11-5.62-19.11Zm0 0"/><path fill="#4c3645" d="m196.074 266.422-8.125-12.235 15.024-11.109Zm0 0"/><path fill="#978260" d="m345.336 265.238 14.426-17.02 10.578 18.052Zm0 0"/><path fill="#2e222f" d="m348.145 244.992 11.617 3.227-16.621 15.957Zm0 0"/><path fill="#312532" d="m359.762 248.219-14.426 17.02-2.195-1.063Zm0 0"/><path fill="#2e222f" d="m367.848 238.137-8.086 10.082.336-12.844ZM359.762 248.219l-11.617-3.227 11.953-9.617ZM372.684 249.32l-12.922-1.101 8.086-10.082Zm0 0"/><path fill="#eaaf55" d="m370.34 266.27-10.578-18.051 12.922 1.101Zm0 0"/><path fill="#fab853" d="m274.031 87.484-11.656-32.16 28.102 6.356Zm0 0"/><path fill="#fab854" d="m274.031 87.484 31.774-4.836-7.235 21.27Zm0 0"/><path fill="#fab854" d="m274.031 87.484 16.446-25.804 15.328 20.968ZM253.297 106.922l-17.969-25.945 38.703 6.507Zm0 0"/><path fill="#d57741" d="m232.156 41.883-.64-24.301 27.058 12.207Zm0 0"/><path fill="#fbb954" d="m184.531 94.414 42.805 17.676-27.066 21.387Zm0 0"/><path fill="#fab854" d="m227.336 112.09 1.703 18.957-28.77 2.43Zm0 0"/><path fill="#fab853" d="m235.328 80.977-7.992 31.113-42.805-17.676Zm0 0"/><path fill="#793044" d="m271.402 133.125-17.699 11.605-4.687-16.367Zm0 0"/><path fill="#793044" d="m253.703 144.73-14.46 3.641 9.773-20.008Zm0 0"/><path fill="#bf5f3e" d="m253.703 144.73 17.7-11.605-3.508 18.605Zm0 0"/><path fill="#813544" d="m244.414 164.645-31.91 6.949-1.555-19.739Zm0 0"/><path fill="#9a8460" d="m212.504 171.594 31.91-6.95 1.977 15.887Zm0 0"/><path fill="#7a3044" d="m229.04 131.047-18.09 20.808-10.68-18.378Zm0 0"/><path fill="#fab853" d="m235.328 80.977-50.797 13.437 18.172-30.762Zm0 0"/><path fill="#fab853" d="M184.531 94.414 159.5 43.328l43.203 20.324Zm0 0"/><path fill="#f8b754" d="m267.895 151.73 22.023.008-6.719 11.055Zm0 0"/><path fill="#443846" d="m289.918 151.738-18.516-18.613 23.996 3.469Zm0 0"/><path fill="#443846" d="m271.402 133.125 18.516 18.613-22.023-.008Zm0 0"/><path fill="#f9b854" d="m333.82 228.906 14.977-17.578 11.3 24.047Zm0 0"/><path fill="#a68a5d" d="m348.797 211.328 19.012 4.465-7.711 19.582Zm0 0"/><path fill="#fab853" d="m348.797 211.328-14.977 17.578-12.402-14.644Zm0 0"/><path fill="#576068" d="m311.922 153.215 27.914 2.75-12.059 11.992Zm0 0"/><path fill="#fab853" d="m99.055 103.672-31.633 18.793.5-27.473Zm0 0"/><path fill="#fab854" d="m67.422 122.465-30.29-17.328 30.79-10.145Zm0 0"/><path fill="#d2723f" d="m202.703 63.652-.191-35.953 29.644 14.184Zm0 0"/><path fill="#d67941" d="m202.703 63.652-26.058-23.824L202.512 27.7Zm0 0"/><path fill="#433745" d="m128.07 263.113 18.625 22.735-24.007-19.457Zm0 0"/><path fill="#443846" d="m128.07 263.113 18.114-10.808 24.687 23.824ZM146.695 285.848l-18.625-22.735 42.801 13.016Zm0 0"/><path fill="#fab853" d="m164.676 240.11-18.492 12.195-5.512-24.993ZM171.074 222.16l-6.398 17.95-24.004-12.798Zm0 0"/><path fill="#fab853" d="m182.328 235.078-17.652 5.031 6.398-17.949Zm0 0"/><path fill="#443845" d="m170.871 276.129-6.055 15.855-18.12-6.136Zm0 0"/><path fill="#433745" d="m179.434 294.23-14.618-2.246 6.055-15.855Zm0 0"/><path fill="#443846" d="m163.191 310.547 1.625-18.563 14.618 2.246Zm0 0"/><path fill="#fab854" d="m147.105 331.832 16.086-21.285 13.532 11.976Zm0 0"/><path fill="#e8ae56" d="m164.816 291.984-1.625 18.563-16.496-24.7Zm0 0"/><path fill="#586168" d="m298.332 284.418 39.648.57-18.277 30.867Zm0 0"/><path fill="#9c855f" d="m337.98 284.988-39.648-.57 23.05-13.035Zm0 0"/><path fill="#fab853" d="m274.031 87.484-38.703-6.507 27.047-25.653Zm0 0"/><path fill="#fab853" d="m262.375 55.324-30.219-13.441 26.418-12.094ZM232.156 41.883l30.219 13.441-27.047 25.653Zm0 0"/><path fill="#fab853" d="m202.703 63.652 29.453-21.77 3.172 39.095Zm0 0"/><path fill="#b2563f" d="m210.95 151.855 28.292-3.484 5.172 16.274Zm0 0"/><path fill="#793045" d="m239.242 148.371-28.293 3.484 18.09-20.808Zm0 0"/><path fill="#586068" d="m311.922 153.215-22.004-1.477 5.48-15.144Zm0 0"/><path fill="#f6b654" d="m283.2 162.793 6.718-11.055 9.086 15.235Zm0 0"/><path fill="#5a6168" d="m311.922 153.215 6.152 27.035-19.07-13.277Zm0 0"/><path fill="#616567" d="m289.918 151.738 22.004 1.477-12.918 13.758Zm0 0"/><path fill="#60686d" d="m318.074 180.25-6.152-27.035 15.855 14.742Zm0 0"/><path fill="#793045" d="m95.805 142.05-16.028 26.243-13.625-25.54Zm0 0"/><path fill="#fab854" d="m95.805 142.05-28.383-19.585 31.633-18.793Zm0 0"/><path fill="#443846" d="m146.184 252.305 18.492-12.196 15.96 20.184Zm0 0"/><path fill="#f6b654" d="M31.797 338.793-.02 331.961l38.754-11.7Zm0 0"/><path fill="#f4b554" d="m67.422 122.465 28.383 19.586-29.653.703Zm0 0"/><path fill="#fab854" d="m26.75 145.324 40.672-22.86-1.27 20.29Zm0 0"/><path fill="#fab853" d="m37.133 105.137 30.289 17.328-40.672 22.86Zm0 0"/></svg>