<svg xmlns="http://www.w3.org/2000/svg" width="512" height="512" viewBox="0 0 384 384"><path fill="#5b0a90" d="M27.633 222.855 0 199.75l18.309-9.434ZM286.492 0l19.559 21.535-21.348-2.898Zm0 0"/><path fill="#5b0a90" d="M0 199.75v-51.363l18.309 41.93Zm0 0"/><path fill="#fed600" d="m181.973 179.66 7.836-7.66 6.445 25.598ZM177.46 194.727l4.513-15.067 14.28 17.938Zm0 0"/><path fill="#5b0990" d="m90.563 167.691-18.168 33.485-10.348-19.098Zm0 0"/><path fill="#c6071d" d="m90.563 167.691 2.734-16.054 19.68 13.113Zm0 0"/><path fill="#5b0990" d="m72.395 201.176-22.598-9.27 12.25-9.828Zm0 0"/><path fill="#c7c196" d="m57.527 307.469 20.512 18.906-13.953-2.324Zm0 0"/><path fill="#5c098b" d="m210.34 152.113-27.461 2.664 23.18-21.445Zm0 0"/><path fill="#ca0720" d="m182.879 154.777 27.46-2.664L189.81 172Zm0 0"/><path fill="#cc071d" d="m260.832 200.352 4.098 21.644-27.075-4.644Zm0 0"/><path fill="#5b0a90" d="m284.375 28.145-22.512-7.688 22.84-1.82Zm0 0"/><path fill="#fad40a" d="m292.668 54.098-8.293-25.953 18.57 15.027Zm0 0"/><path fill="#5b0a90" d="m141.672 16.383 24.797 4.906-26.578 5.637Zm0 0"/><path fill="#5b0a90" d="M141.672 16.383 146.828 0l19.64 21.29Zm0 0"/><path fill="#5c0b8f" d="m37.266 52.5 36.12-31.262-5.402 39.707Zm0 0"/><path fill="#fed600" d="M220.68 186.457 216 200.805l-19.746-3.207Zm0 0"/><path fill="#f5cb17" d="m141.57 137.559-43.332-18.211 44.266-9.25Zm0 0"/><path fill="#f8d410" d="m98.238 119.348 43.332 18.21-34 3.993Zm0 0"/><path fill="#b9713c" d="m109.633 39.96 30.258-13.034-2.305 24.21Zm0 0"/><path fill="#c8061e" d="m112.977 164.75-19.68-13.113 14.273-10.086Zm0 0"/><path fill="#840021" d="m141.57 137.559-28.593 27.191-5.407-23.2Zm0 0"/><path fill="#7f0020" d="m141.57 137.559 16.121 12.98-16.171 6.703Zm0 0"/><path fill="#5e0c8c" d="m114.008 384.02-72.766-37.528 32.18-6.613Zm0 0"/><path fill="#5e0d8e" d="m64.086 324.05-22.844 22.442 4.168-32.453Zm0 0"/><path fill="#5c0b8f" d="m73.422 339.879-32.18 6.613 22.844-22.441Zm0 0"/><path fill="#5b0b90" d="m49.797 191.906-22.164 30.95-9.324-32.54Zm0 0"/><path fill="#5b0a90" d="m49.797 191.906.121-6.933 12.129-2.895Zm0 0"/><path fill="#5b098e" d="m24.664 311.824 14.55-32.867 6.196 35.082Zm0 0"/><path fill="#fed600" d="m238.586 199.977-17.906-13.52 24.125-6.2Zm0 0"/><path fill="#cc071d" d="m238.586 199.977 22.246.375-22.977 17Zm0 0"/><path fill="#cc071d" d="m216 200.805 22.586-.828-.73 17.375Zm0 0"/><path fill="#fdd603" d="m238.586 199.977-22.586.828 4.68-14.348Zm0 0"/><path fill="#cb071f" d="m210.34 152.113 7.472 18.258L189.81 172Zm0 0"/><path fill="#fdd604" d="m220.68 186.457-2.868-16.086 26.993 9.887Zm0 0"/><path fill="#fed600" d="m189.809 172 28.004-1.629-21.56 27.227ZM217.813 170.371l2.867 16.086-24.426 11.14Zm0 0"/><path fill="#fed601" d="m238.586 199.977 20.691-8.84 1.555 9.215Zm0 0"/><path fill="#d3c679" d="m264.93 221.996-32.055 12.106 4.98-16.75Zm0 0"/><path fill="#fed600" d="m302.496 229.473-25.394 17.48 13.539-24.719Zm0 0"/><path fill="#7b012e" d="m264.957 275.21-17.266-4.179 13.204-8.37Zm0 0"/><path fill="#6f0451" d="m247.691 271.031 17.266 4.18-8.55 17.254Zm0 0"/><path fill="#600b83" d="m349.035 49.277-42.984-27.742L384-.004Zm0 0"/><path fill="#5e0a87" d="M306.05 21.535 286.493 0 384-.004Zm0 0"/><path fill="#5b0a90" d="M222.668 16.73 186.922 0h56.101Zm0 0"/><path fill="#5b0a90" d="M222.668 16.73 243.023 0l-5.597 18.39Zm0 0"/><path fill="#fad50d" d="m284.375 28.145-16.2 12.402-6.312-20.09Zm0 0"/><path fill="#5b0a90" d="m284.375 28.145 21.676-6.61-3.106 21.637ZM306.05 21.535l-21.675 6.61.328-9.508Zm0 0"/><path fill="#5c0b8f" d="M243.023 0h43.47l-24.63 20.457Zm0 0"/><path fill="#5b0a90" d="M261.863 20.457 286.493 0l-1.79 18.637Zm0 0"/><path fill="#b7bbc4" d="m357.664 147.219 8.152-25.215 18.18 13.168Zm0 0"/><path fill="#b8bcc4" d="m365.816 122.004-8.152 25.215-15.02-16.817Zm0 0"/><path fill="#b8bbc4" d="m355.602 115.676 10.214 6.328-23.171 8.398Zm0 0"/><path fill="#5b0990" d="m365.816 122.004-10.214-6.328 10.617-8.887Zm0 0"/><path fill="#5b0a90" d="M368.672 224.91 384 218.266l.012 22.062Zm0 0"/><path fill="#5c0b8f" d="m368.672 224.91-1.496 12.133-28.13 8.484Zm0 0"/><path fill="#5b0a90" d="m367.879 208.2 16.117-73.028.004 69.66Zm0 0"/><path fill="#5b0a90" d="m383.996 135.172-16.117 73.027 4.281-19.394Zm0 0"/><path fill="#b9bcc0" d="m357.664 147.219-7.047 34.242-19.308-29.707Zm0 0"/><path fill="#fdd501" d="m329.844 225.809-12.02 10.004 2.063-17.172ZM317.824 235.813l-15.328-6.34 17.39-10.832Zm0 0"/><path fill="#fcd403" d="m339.047 245.527-21.223-9.714 12.02-10.004Zm0 0"/><path fill="#fdd402" d="m292.668 54.098 10.277-10.926 31.407 27.883Zm0 0"/><path fill="#fed501" d="m292.668 54.098-24.492-13.551 16.199-12.402Zm0 0"/><path fill="#5b0a90" d="m16.625 133.824.441 18.223L0 148.387ZM37.266 52.5 28.55 84.695 0 75.363Zm0 0"/><path fill="#fed600" d="m49.918 184.973-4.676-25.786 16.805 22.891Zm0 0"/><path fill="#fdd603" d="m45.242 159.188 4.676 25.785-14.742-17.055Zm0 0"/><path fill="#e97c0d" d="m72.29 72.828 5.245-14.3 20.02 27.906Zm0 0"/><path fill="#5d0b8c" d="m73.387 21.238 4.148 37.29-9.55 2.417Zm0 0"/><path fill="#5b0a90" d="M0 75.363V0l37.266 52.5Zm0 0"/><path fill="#5b0a90" d="m0 0 73.387 21.238L37.266 52.5Zm0 0"/><path fill="#f6d114" d="m66.488 219.844 29.157 7.355-19.399 8.723Zm0 0"/><path fill="#cd071d" d="m66.488 219.844-16.691-27.938 22.598 9.27Zm0 0"/><path fill="#5b098e" d="M102.781 206.676 90.562 167.69l22.415-2.941Zm0 0"/><path fill="#5b098e" d="m90.563 167.691 12.218 38.985-30.386-5.5Zm0 0"/><path fill="#cd071d" d="m102.781 206.676-36.293 13.168 5.907-18.668ZM66.488 219.844l36.293-13.168-7.136 20.523Zm0 0"/><path fill="#620982" d="M219.531 219.18 216 200.805l21.855 16.547Zm0 0"/><path fill="#5b0a90" d="m216 200.805 3.531 18.375-30.886.53Zm0 0"/><path fill="#f1d125" d="m219.531 219.18-11.851 25.875-19.035-25.344Zm0 0"/><path fill="#5b0a90" d="M186.098 211.793 216 200.805l-27.355 18.906Zm0 0"/><path fill="#cd131c" d="m186.098 211.793-8.637-17.066 18.793 2.87Zm0 0"/><path fill="#5b098f" d="m216 200.805-29.902 10.988 10.156-14.195Zm0 0"/><path fill="#fed601" d="m127.844 227.668 32.113-4.625-32.184 9.121Zm0 0"/><path fill="#f4c909" d="m127.844 227.668-.07 4.496-32.13-4.965Zm0 0"/><path fill="#800020" d="m141.52 157.242-28.543 7.508 28.593-27.191Zm0 0"/><path fill="#edd031" d="m181.973 179.66-7.668-13.433L189.809 172Zm0 0"/><path fill="#cc071e" d="m174.305 166.227 8.574-11.45 6.93 17.223Zm0 0"/><path fill="#fed601" d="m82.977 274.953 16.23 16.582-33.242-5.625Zm0 0"/><path fill="#d8c86b" d="m57.527 307.469 18.582-1.778 1.93 20.684Zm0 0"/><path fill="#d2c67b" d="m99.207 291.535-23.098 14.156-10.144-19.78Zm0 0"/><path fill="#884269" d="m-.012 384.004 41.254-37.512 72.766 37.528Zm0 0"/><path fill="#fdd603" d="m49.918 184.973-31.61 5.343 16.868-22.398Zm0 0"/><path fill="#5b0a90" d="m18.309 190.316-1.243-38.27 18.11 15.872Zm0 0"/><path fill="#5b0a91" d="m17.066 152.047 1.243 38.27L0 148.386Zm0 0"/><path fill="#fed600" d="m18.309 190.316 31.609-5.343-.121 6.933Zm0 0"/><path fill="#cd071d" d="m66.488 219.844-9.242 2.246-7.45-30.184Zm0 0"/><path fill="#fad40a" d="m59.336 242.625-2.09-20.535 19 13.832Zm0 0"/><path fill="#fcd504" d="m57.246 222.09 9.242-2.246 9.758 16.078Zm0 0"/><path fill="#fbd101" d="m95.645 227.2 1.37 22.222-20.769-13.5Zm0 0"/><path fill="#6a0560" d="M82.977 274.953 74.03 254.86l22.528 4.094Zm0 0"/><path fill="#710650" d="m74.031 254.86 22.985-5.438-.457 9.531Zm0 0"/><path fill="#78296f" d="m74.031 254.86-14.695-12.235 16.91-6.703Zm0 0"/><path fill="#6e0f63" d="m97.016 249.422-22.985 5.437 2.215-18.937Zm0 0"/><path fill="#620b7e" d="m74.031 254.86-18.238 6.992 3.543-19.227Zm0 0"/><path fill="#d6b146" d="m55.793 261.852 27.184 13.101-17.012 10.957Zm0 0"/><path fill="#6b055e" d="m55.793 261.852 18.238-6.993 8.946 20.094Zm0 0"/><path fill="#5b0a90" d="m45.41 314.04 12.117-6.571 6.559 16.582Zm0 0"/><path fill="#d3c677" d="m262.027 158.648-17.222 21.61-3.512-14.63Zm0 0"/><path fill="#fed600" d="m244.805 180.258 14.472 10.879-20.691 8.84ZM272.582 173.617l18.063 10.418-6.282 7.8Zm0 0"/><path fill="#5b0a90" d="m290.645 184.035-.09 15.914-6.192-8.113Zm0 0"/><path fill="#fcd506" d="m232.875 234.102 13.5 13.125-18.71 6.218Zm0 0"/><path fill="#6c085f" d="m247.691 271.031-1.316-23.804 14.52 15.433Zm0 0"/><path fill="#6a0a68" d="m246.375 247.227 1.316 23.804-20.027-17.586Zm0 0"/><path fill="#fed600" d="m246.375 247.227-13.5-13.125 32.055-12.106Zm0 0"/><path fill="#efc20e" d="m246.375 247.227 30.727-.274-16.207 15.707Zm0 0"/><path fill="#5b0a90" d="m290.555 199.95-29.723.402 23.531-8.516Zm0 0"/><path fill="#cd071d" d="m290.555 199.95 11.382 19.98-11.296 2.304Zm0 0"/><path fill="#f9cf05" d="m301.938 219.93.558 9.543-11.855-7.239Zm0 0"/><path fill="#fed600" d="m302.496 229.473-.558-9.543 17.949-1.29Zm0 0"/><path fill="#6d0559" d="m247.691 271.031-30.59-5.844 10.563-11.742Zm0 0"/><path fill="#690666" d="m277.102 246.953 1.543 17.836-17.75-2.129Zm0 0"/><path fill="#6e0555" d="m278.645 264.79-13.688 10.42-4.062-12.55Zm0 0"/><path fill="#6a0663" d="m217.102 265.188 6.261 23.37-17.484-13.964Zm0 0"/><path fill="#730345" d="m223.363 288.559 24.328-17.528 8.715 21.434Zm0 0"/><path fill="#710650" d="m223.363 288.559-6.261-23.372 30.59 5.844Zm0 0"/><path fill="#fdd401" d="m223.363 288.559-5.117 23-12.383-.457Zm0 0"/><path fill="#5b0a90" d="m370.852 287.102 13.144-16.668.012 56.722Zm0 0"/><path fill="#fdd602" d="m384 255.086-.004 15.348-15.937-5.711Zm0 0"/><path fill="#5b0a90" d="m383.996 270.434-13.144 16.668-2.793-22.38Zm0 0"/><path fill="#efd12b" d="m384 255.086-12.445-5.899 12.457-8.859Zm0 0"/><path fill="#5b0a90" d="m365.25 285.824 5.602 1.278-16.243 23.27Zm0 0"/><path fill="#b8bbc3" d="m343.445 293.777 21.805-7.953-10.64 24.547Zm0 0"/><path fill="#5b0a90" d="m371.64 324.055-.788-36.953 13.156 40.054Zm0 0"/><path fill="#5b0a90" d="m370.852 287.102.789 36.953-17.032-13.684Zm0 0"/><path fill="#5c0c8f" d="M359.965 355.383 360 328.16l11.64-4.105Zm0 0"/><path fill="#5d0c8e" d="m359.965 355.383-47.504 10.539 26.644-26.285Zm0 0"/><path fill="#c3c0a5" d="m289.5 302.633 15.625 6.48-23.332 20.36Zm0 0"/><path fill="#71267d" d="m312.48 384.008-.02-18.086 47.505-10.54Zm0 0"/><path fill="#60118b" d="M384.008 384.008H312.48l47.485-28.625Zm0 0"/><path fill="#d59c1e" d="m159.457 347.79 25.668-16.478 18.96 18.665Zm0 0"/><path fill="#884269" d="m265.637 376.438 46.824-10.516.02 18.086Zm0 0"/><path fill="#c5c1a0" d="m305.125 309.113-2.555 29.028-20.777-8.668Zm0 0"/><path fill="#bbbdba" d="m302.57 338.14 2.555-29.027 13.445 7.325Zm0 0"/><path fill="#5b0a90" d="m352.766 76.418-3.73-27.14L384 67.456ZM222.668 16.73l-33.262 2.965L186.922 0Zm0 0"/><path fill="#f5ad05" d="m142.504 110.098-44.266 9.25-.683-32.914Zm0 0"/><path fill="#fed600" d="m142.504 110.098 25.285 24.988-26.219 2.473Zm0 0"/><path fill="#7c012c" d="m167.79 135.086-10.099 15.453-16.12-12.98Zm0 0"/><path fill="#6e0454" d="m182.879 154.777-15.09-19.691 38.27-1.754Zm0 0"/><path fill="#77023b" d="m174.305 166.227-6.516-31.141 15.09 19.691Zm0 0"/><path fill="#7a012f" d="m167.79 135.086 6.515 31.14-16.614-15.687Zm0 0"/><path fill="#fed500" d="m286.484 124.258-13.582-15.828 28.383-7.059Zm0 0"/><path fill="#fed600" d="m272.902 108.43 13.582 15.828-17.722 2.344Zm0 0"/><path fill="#5b0990" d="M365.816 122.004 384 112.766l-.004 22.406Zm0 0"/><path fill="#5e0986" d="M384 67.457v45.309l-17.781-5.977Zm0 0"/><path fill="#5b0990" d="m384 112.766-18.184 9.238.403-15.215Zm0 0"/><path fill="#bebeb2" d="m357.664 147.219 26.332-12.047-11.836 53.633Zm0 0"/><path fill="#b8bcc3" d="m350.617 181.46 7.047-34.241 14.496 41.586Zm0 0"/><path fill="#5b0a90" d="m384 218.266-16.121-10.067L384 204.832Zm0 0"/><path fill="#5b0a90" d="M367.879 208.2 384 218.265l-15.328 6.644ZM367.879 208.2l-12.395-12.028 16.676-7.367ZM355.484 196.172l-4.867-14.711 21.543 7.344Zm0 0"/><path fill="#cd071d" d="m312.984 198.637 16.758 6.601-9.855 13.403Zm0 0"/><path fill="#cd071d" d="m301.938 219.93 11.046-21.293 6.903 20.004Zm0 0"/><path fill="#cd071d" d="m312.984 198.637-11.046 21.293-11.383-19.98Zm0 0"/><path fill="#5d0988" d="M352.766 76.418 384 67.457l-17.781 39.332Zm0 0"/><path fill="#5b0a90" d="m354.207 107.371-1.441-30.953 13.453 30.371Zm0 0"/><path fill="#5b0a8f" d="m352.766 76.418 1.441 30.953-10.664 4.61Zm0 0"/><path fill="#5b0990" d="m334.352 71.055 14.683-21.778 3.73 27.141Zm0 0"/><path fill="#fed600" d="m292.668 54.098 41.684 16.957-22.383 15.816Zm0 0"/><path fill="#5b0a90" d="m16.625 133.824 12.156 10.387-11.715 7.836ZM28.781 144.21l-12.156-10.386 13.742-.265Zm0 0"/><path fill="#5b0a90" d="m17.066 152.047 11.715-7.836 6.395 23.707Zm0 0"/><path fill="#5b0a90" d="m28.781 144.21 16.461 14.977-10.066 8.731Zm0 0"/><path fill="#5b0a90" d="m28.781 144.21 36.793.563-20.332 14.415Zm0 0"/><path fill="#5b0a8f" d="M54.79 75.45 37.265 52.5l30.718 8.445Zm0 0"/><path fill="#5b0a90" d="m54.79 75.45-26.24 9.245L37.267 52.5Zm0 0"/><path fill="#fed600" d="m72.71 160.477 17.853 7.214-28.516 14.387Zm0 0"/><path fill="#b4051e" d="m90.563 167.691-17.852-7.214 20.586-8.84Zm0 0"/><path fill="#fdd603" d="m45.242 159.188 27.469 1.289-10.664 21.601Zm0 0"/><path fill="#c38531" d="m65.574 144.773 7.137 15.704-27.469-1.29Zm0 0"/><path fill="#5b0a90" d="M146.828 0h40.094l-20.453 21.29Zm0 0"/><path fill="#5b0a90" d="m186.922 0 2.484 19.695-22.937 1.594Zm0 0"/><path fill="#dfb326" d="m161.785 44.18 5.856-15.23 28.09 12.64Zm0 0"/><path fill="#dcc95e" d="m166.469 21.29 1.172 7.66-27.75-2.024Zm0 0"/><path fill="#efcf29" d="m167.64 28.95-5.855 15.23-21.894-17.254Zm0 0"/><path fill="#f7ba06" d="m145.926 71.23 15.86-27.05 33.944-2.59Zm0 0"/><path fill="#df5513" d="m213.336 58.05-67.41 13.18 49.804-29.64Zm0 0"/><path fill="#af223f" d="m139.89 26.926 21.895 17.254-24.2 6.957Zm0 0"/><path fill="#df5313" d="m137.586 51.137 24.2-6.957-15.86 27.05Zm0 0"/><path fill="#d73e17" d="m105.695 66.422-28.16-7.895L89.844 45.04Zm0 0"/><path fill="#ea800c" d="m77.535 58.527 28.16 7.895-8.14 20.012Zm0 0"/><path fill="#d0251d" d="m105.695 66.422 3.938-26.461 27.953 11.176Zm0 0"/><path fill="#f4a906" d="m109.633 39.96-3.938 26.462-15.851-21.383Zm0 0"/><path fill="#5b0a90" d="M89.844 45.04 77.535 58.526l-4.148-37.289Zm0 0"/><path fill="#5b0a90" d="M89.844 45.04 73.387 21.237l36.246 18.723Zm0 0"/><path fill="#e16111" d="M77.535 58.527 72.29 72.828l-4.305-11.883Zm0 0"/><path fill="#5b0a90" d="m139.89 26.926-66.503-5.688 68.285-4.855Zm0 0"/><path fill="#5b0a90" d="M73.387 21.238 146.828 0l-5.156 16.383ZM73.387 21.238l66.504 5.688-30.258 13.035Zm0 0"/><path fill="#5b0a90" d="M146.828 0 73.387 21.238 0 0Zm0 0"/><path fill="#cc071d" d="m102.781 206.676 25.063 20.992-32.2-.469Zm0 0"/><path fill="#6c055b" d="m113.398 271.652-14.191 19.883-16.23-16.582Zm0 0"/><path fill="#680667" d="m96.559 258.953 16.84 12.7-30.422 3.3Zm0 0"/><path fill="#cfb86a" d="m232.875 234.102-13.344-14.922 18.324-1.828Zm0 0"/><path fill="#fed600" d="m219.531 219.18 13.344 14.922-25.195 10.953Zm0 0"/><path fill="#cd071d" d="m186.098 211.793-40.903-6.977 32.266-10.09ZM145.195 204.816l14.762 18.227-32.113 4.625ZM102.781 206.676l42.414-1.86-17.351 22.852Zm0 0"/><path fill="#5b0990" d="m148.023 189.316 29.438 5.41-32.266 10.09Zm0 0"/><path fill="#fed600" d="m148.023 189.316 11.13-10.77 18.308 16.18Zm0 0"/><path fill="#fed600" d="m159.152 178.547-11.129 10.77-6.503-32.075Zm0 0"/><path fill="#f6d316" d="m168.27 170.152 6.035-3.925 7.668 13.433Zm0 0"/><path fill="#cb071f" d="m174.305 166.227-6.035 3.925-10.579-19.613Zm0 0"/><path fill="#fed600" d="m159.152 178.547 9.118-8.395 9.19 24.575Zm0 0"/><path fill="#cc071e" d="m157.691 150.54 10.579 19.612-26.75-12.91Zm0 0"/><path fill="#fbd409" d="m168.27 170.152-9.118 8.395-17.632-21.305Zm0 0"/><path fill="#fed600" d="m168.27 170.152 13.703 9.508-4.512 15.067Zm0 0"/><path fill="#5b0990" d="m127.563 186.023-24.782 20.653 10.196-41.926Zm0 0"/><path fill="#5b0990" d="m102.781 206.676 24.781-20.653 17.633 18.793Zm0 0"/><path fill="#fed600" d="m141.52 157.242-13.958 28.781-14.585-21.273Zm0 0"/><path fill="#5b0990" d="m127.563 186.023 20.46 3.293-2.828 15.5Zm0 0"/><path fill="#fed600" d="m148.023 189.316-20.46-3.293 13.957-28.78Zm0 0"/><path fill="#96545c" d="M41.242 346.492-.012 384.004l.043-57.024Zm0 0"/><path fill="#5f0c89" d="m143.852 363.797-21.95-18.387 37.555 2.38Zm0 0"/><path fill="#5b0a8f" d="m143.852 363.797-29.844 20.223 7.894-38.61Zm0 0"/><path fill="#60108c" d="m114.008 384.02 29.844-20.223 38.64 20.215Zm0 0"/><path fill="#d29215" d="m155.469 334.742 29.656-3.43-25.668 16.477Zm0 0"/><path fill="#fed600" d="m113.398 271.652 11.614 7.723-25.805 12.16Zm0 0"/><path fill="#621188" d="m78.04 326.375-4.618 13.504-9.336-15.828Zm0 0"/><path fill="#d7c76d" d="m90.035 312.113 9.172-20.578 20.36 36.848Zm0 0"/><path fill="#dfc956" d="m99.207 291.535 23.68 3.621-3.32 33.227Zm0 0"/><path fill="#5c0a8c" d="m99.207 291.535 25.805-12.16-2.125 15.781Zm0 0"/><path fill="#5b0a91" d="M27.633 222.855 0 232.801V199.75Zm0 0"/><path fill="#f8cf06" d="m39.215 278.957.918-2.555 25.832 9.508Zm0 0"/><path fill="#f9d30d" d="m40.133 276.402 15.66-14.55 10.172 24.058Zm0 0"/><path fill="#cfc483" d="m76.11 305.691-18.583 1.778 8.438-21.559Zm0 0"/><path fill="#ccc38d" d="m57.527 307.469-18.312-28.512 26.75 6.953Zm0 0"/><path fill="#5c098d" d="m39.215 278.957 18.312 28.512-12.117 6.57Zm0 0"/><path fill="#f6c105" d="m57.246 222.09-12.695 5.754 5.246-35.938Zm0 0"/><path fill="#5b0a90" d="m49.797 191.906-5.246 35.938-16.918-4.989Zm0 0"/><path fill="#6c1f81" d="m44.55 227.844 14.786 14.781-3.543 19.227Zm0 0"/><path fill="#6c2081" d="m44.55 227.844 12.696-5.754 2.09 20.535Zm0 0"/><path fill="#6f0453" d="m113.398 271.652-16.84-12.699 28.641-2.355Zm0 0"/><path fill="#d3c677" d="m272.582 173.617-27.777 6.64 17.222-21.609Zm0 0"/><path fill="#cd071d" d="m264.93 221.996 25.625-22.047.086 22.285Zm0 0"/><path fill="#fed600" d="m277.102 246.953-12.172-24.957 25.71.238Zm0 0"/><path fill="#fed601" d="m246.375 247.227 18.555-25.23 12.172 24.956Zm0 0"/><path fill="#cd071d" d="m264.93 221.996-4.098-21.644 29.723-.403Zm0 0"/><path fill="#fdd602" d="m260.832 200.352-1.555-9.215 25.086.699Zm0 0"/><path fill="#fed600" d="m259.277 191.137 13.305-17.52 11.781 18.219Zm0 0"/><path fill="#fed600" d="m272.582 173.617-13.305 17.52-14.472-10.88Zm0 0"/><path fill="#fdd401" d="m232.875 234.102-5.21 19.343-19.985-8.39Zm0 0"/><path fill="#f1cc1a" d="m305.703 255.176-28.601-8.223 25.394-17.48Zm0 0"/><path fill="#690867" d="m305.703 255.176-27.058 9.613-1.543-17.836Zm0 0"/><path fill="#6d1f7e" d="m317.824 235.813-12.12 19.363-3.208-25.703Zm0 0"/><path fill="#b16933" d="M300.863 289.516 289.5 302.633l-33.094-10.168Zm0 0"/><path fill="#fed600" d="m300.863 289.516 4.262 19.597-15.625-6.48Zm0 0"/><path fill="#e6cd44" d="m164.55 234.91-4.593-11.867 28.688-3.332Zm0 0"/><path fill="#5b0a90" d="m159.957 223.043 26.14-11.25 2.548 7.918Zm0 0"/><path fill="#cd071d" d="m159.957 223.043-14.762-18.227 40.903 6.977Zm0 0"/><path fill="#6b055d" d="m197.492 262.727 19.61 2.46-11.223 9.407Zm0 0"/><path fill="#680669" d="m217.102 265.188-19.61-2.461 10.188-17.672Zm0 0"/><path fill="#67096f" d="m227.664 253.445-10.562 11.743-9.422-20.133Zm0 0"/><path fill="#7a205d" d="m197.492 262.727-7.297-14.239 17.485-3.433Zm0 0"/><path fill="#fdd300" d="m207.68 245.055-17.485 3.433-1.55-28.777Zm0 0"/><path fill="#fed600" d="m190.195 248.488-25.644-13.578 24.094-15.2Zm0 0"/><path fill="#fed602" d="M371.555 249.188 384 255.086l-15.941 9.637Zm0 0"/><path fill="#5b0b90" d="m367.176 237.043 1.496-12.133 15.34 15.418Zm0 0"/><path fill="#eacb32" d="m371.555 249.188-4.38-12.145 16.837 3.285Zm0 0"/><path fill="#fed600" d="m324 299.688 8.488-23.852 10.957 17.941Zm0 0"/><path fill="#5b0a90" d="m365.25 285.824 2.809-21.101 2.793 22.379ZM360 328.16l-5.39-17.789 17.03 13.684Zm0 0"/><path fill="#fed600" d="m343.445 293.777-5.75 30.27L324 299.687ZM337.695 324.047l16.914-13.676 5.391 17.79Zm0 0"/><path fill="#fed600" d="m354.61 310.371-16.915 13.676 5.75-30.27Zm0 0"/><path fill="#5d0c8f" d="m359.965 355.383-20.86-15.746L360 328.16Zm0 0"/><path fill="#5d0d8e" d="m339.105 339.637-1.41-15.59L360 328.16Zm0 0"/><path fill="#61118b" d="m359.965 355.383 24.043-28.227v56.852Zm0 0"/><path fill="#5c0c8f" d="m384.008 327.156-24.043 28.227 11.676-31.328Zm0 0"/><path fill="#5d0b8d" d="m182.492 384.012-23.035-36.223 44.629 2.188Zm0 0"/><path fill="#5e0c8b" d="m159.457 347.79 23.035 36.222-38.64-20.215Zm0 0"/><path fill="#5b0a8f" d="m265.637 376.438-61.551-26.461 52.824-2.489Zm0 0"/><path fill="#5c0c8f" d="m265.637 376.438-83.145 7.574 21.594-34.035Zm0 0"/><path fill="#833d6d" d="m182.492 384.012 83.145-7.574 46.843 7.57Zm0 0"/><path fill="#c3c0a4" d="m218.246 311.559-5.309 14.351-7.074-14.808Zm0 0"/><path fill="#c9c295" d="m212.938 325.91-27.813 5.402 20.738-20.21Zm0 0"/><path fill="#d69e1c" d="m204.086 349.977 8.851-24.067 43.973 21.578Zm0 0"/><path fill="#dfa30c" d="m185.125 331.313 27.813-5.403-8.852 24.067Zm0 0"/><path fill="#5c0a8c" d="m265.637 376.438 20.484-30.786 26.34 20.27Zm0 0"/><path fill="#5e0b88" d="m286.121 345.652 16.45-7.511 9.89 27.78Zm0 0"/><path fill="#5d0a8a" d="m256.91 347.488 29.211-1.836-20.484 30.786Zm0 0"/><path fill="#e2b825" d="m286.121 345.652-29.21 1.836 24.882-18.015Zm0 0"/><path fill="#e4b61d" d="m302.57 338.14-16.449 7.512-4.328-16.18Zm0 0"/><path fill="#5c0c8e" d="m312.46 365.922 10.93-34.883 15.715 8.598Zm0 0"/><path fill="#5d0c8d" d="m302.57 338.14 20.82-7.1-10.93 34.882Zm0 0"/><path fill="#c9be8c" d="m323.39 331.04-20.82 7.1 16-21.702Zm0 0"/><path fill="#c8c196" d="m337.695 324.047-14.304 6.992-4.82-14.601Zm0 0"/><path fill="#600f8b" d="m339.105 339.637-15.714-8.598 14.304-6.992Zm0 0"/><path fill="#5b0990" d="M349.035 49.277 384-.003v67.46Zm0 0"/><path fill="#5b0a8f" d="m302.945 43.172 46.09 6.105-14.683 21.778Zm0 0"/><path fill="#5f0a87" d="m306.05 21.535 42.985 27.742-46.09-6.105Zm0 0"/><path fill="#e7be1f" d="m238.207 25.977-15.539-9.247 14.758 1.66Zm0 0"/><path fill="#e1cb50" d="m268.176 40.547-18.88-4.664 12.567-15.426Zm0 0"/><path fill="#fbd509" d="m238.207 25.977-5.18 10.453-10.359-19.7Zm0 0"/><path fill="#cd071e" d="m268.887 144.695-6.86 13.953-20.734 6.98Zm0 0"/><path fill="#d29c25" d="m226.207 107.465 1.41 23.39-11.836-9.062Zm0 0"/><path fill="#5e0987" d="m242.297 147.598-14.68-16.743 41.145-4.253Zm0 0"/><path fill="#fed600" d="m227.617 130.855-1.41-23.39 42.555 19.137Zm0 0"/><path fill="#fdcf01" d="M226.207 107.465 213.336 58.05l50.562 12.812Zm0 0"/><path fill="#fed500" d="m272.902 108.43-9.004-37.567 37.387 30.508Zm0 0"/><path fill="#fed600" d="M332.117 114.79 311.97 86.87l31.574 25.11Zm0 0"/><path fill="#b8bcc2" d="m331.309 151.754 19.308 29.707-35.71-.79Zm0 0"/><path fill="#fdd603" d="m300.063 164.676-9.418 19.36-18.063-10.419Zm0 0"/><path fill="#fed600" d="m355.34 218.738-12.473-6.976 12.617-15.59Zm0 0"/><path fill="#fed600" d="m367.879 208.2-12.54 10.538.145-22.566Zm0 0"/><path fill="#cc071e" d="m340.25 192.086 10.367-10.625 4.867 14.71Zm0 0"/><path fill="#5b0990" d="m350.617 181.46-10.367 10.626-25.344-11.414Zm0 0"/><path fill="#5b0a90" d="m314.906 180.672 25.344 11.414-27.266 6.55Zm0 0"/><path fill="#cd071d" d="m312.984 198.637 27.266-6.551-10.508 13.152Zm0 0"/><path fill="#fed300" d="m342.867 211.762-13.023 14.047-9.957-7.168Zm0 0"/><path fill="#cd071d" d="m329.742 205.238 13.125 6.524-22.98 6.879Zm0 0"/><path fill="#fed600" d="m310.04 119.695-23.556 4.563 14.801-22.887Zm0 0"/><path fill="#fed600" d="m332.117 114.79-22.078 4.905-8.754-18.324Zm0 0"/><path fill="#5b0990" d="m355.602 115.676-1.395-8.305 12.012-.582Zm0 0"/><path fill="#fed500" d="m311.969 86.871 22.383-15.816 9.191 40.925Zm0 0"/><path fill="#5d0a8c" d="m334.352 71.055 18.414 5.363-9.223 35.562Zm0 0"/><path fill="#fed500" d="m263.898 70.863 48.07 16.008-10.683 14.5Zm0 0"/><path fill="#5b0a91" d="M16.625 133.824 0 148.387V75.363Zm0 0"/><path fill="#5b0990" d="m28.55 84.695-11.925 49.13L0 75.362Zm0 0"/><path fill="#f3d220" d="m189.406 19.695-21.765 9.254-1.172-7.66Zm0 0"/><path fill="#dd4d13" d="m145.926 71.23-40.23-4.808 31.89-15.285Zm0 0"/><path fill="#fccd01" d="m145.926 71.23 40.472 33.055-43.894 5.813Zm0 0"/><path fill="#eb870b" d="m145.926 71.23-3.422 38.868-44.95-23.664Zm0 0"/><path fill="#f7b604" d="m105.695 66.422 40.23 4.808-48.37 15.204Zm0 0"/><path fill="#6b0660" d="m96.559 258.953.457-9.531 28.183 7.176Zm0 0"/><path fill="#670a6f" d="m97.016 249.422 30.757-17.258-2.574 24.434Zm0 0"/><path fill="#fcd402" d="m127.773 232.164-30.757 17.258-1.371-22.223Zm0 0"/><path fill="#fed600" d="m181.898 294.43 41.465-5.871-17.5 22.543Zm0 0"/><path fill="#c5c0a0" d="m185.125 331.313-3.227-36.883 23.965 16.672Zm0 0"/><path fill="#5d0988" d="m153.645 302.09-30.758-6.934 2.125-15.781Zm0 0"/><path fill="#c98f2a" d="m121.902 345.41 33.567-10.668 3.988 13.047Zm0 0"/><path fill="#5c0a8d" d="m73.422 339.879 48.48 5.531-7.894 38.61Zm0 0"/><path fill="#cfc482" d="m76.11 305.691 13.925 6.422-11.996 14.262Zm0 0"/><path fill="#d4c676" d="m90.035 312.113-13.926-6.422 23.098-14.156Zm0 0"/><path fill="#5b0a90" d="m0 287.793 24.664 24.031L.031 326.98Zm0 0"/><path fill="#5b0a90" d="M24.664 311.824 0 287.793l39.215-8.836ZM9 271.785l-9 16.008.016-30.285Zm0 0"/><path fill="#fcd507" d="m9 271.785 31.133 4.617-.918 2.555Zm0 0"/><path fill="#5b0a90" d="m0 287.793 9-16.008 30.215 7.172Zm0 0"/><path fill="#dcbf4b" d="m22.668 256.11 21.883-28.266 11.242 34.008Zm0 0"/><path fill="#fad50d" d="m0 232.8 22.668 23.31-22.652 1.398Zm0 0"/><path fill="#f7d110" d="M22.668 256.11 0 232.8l27.633-9.945Zm0 0"/><path fill="#ecc218" d="m44.55 227.844-21.882 28.265 4.965-33.254Zm0 0"/><path fill="#fbd509" d="M22.668 256.11 9 271.784.016 257.508Zm0 0"/><path fill="#f8d411" d="M40.133 276.402 22.668 256.11l33.125 5.743Zm0 0"/><path fill="#fed600" d="m9 271.785 13.668-15.676 17.465 20.293Zm0 0"/><path fill="#720348" d="m305.703 255.176-5.965 27.258-21.093-17.645Zm0 0"/><path fill="#6d1d7a" d="m339.047 245.527-33.344 9.649 12.121-19.363Zm0 0"/><path fill="#fed600" d="M305.125 309.113 324 299.688l-5.43 16.75Zm0 0"/><path fill="#fed600" d="m324 299.688 13.695 24.359-19.125-7.61Zm0 0"/><path fill="#fdd601" d="m258.39 316.21-1.984-23.745 33.094 10.168Zm0 0"/><path fill="#fed601" d="m258.39 316.21-17.027-8.98 15.043-14.765Zm0 0"/><path fill="#c0bfad" d="m258.39 316.21 31.11-13.577-7.707 26.84Zm0 0"/><path fill="#e3b115" d="m256.91 347.488 1.48-31.277 23.403 13.262Zm0 0"/><path fill="#fed500" d="m241.363 307.23-18-18.671 33.043 3.906Zm0 0"/><path fill="#5f0a85" d="m223.363 288.559 18 18.671-23.117 4.329Zm0 0"/><path fill="#691175" d="m174.746 263.457 15.45-14.969 7.296 14.239Zm0 0"/><path fill="#d0c580" d="m349.234 273.566-16.746 2.27-.258-8.09Zm0 0"/><path fill="#b7bbc4" d="m332.488 275.836 16.746-2.27-5.789 20.211Zm0 0"/><path fill="#b8bcc4" d="m349.234 273.566 16.016 12.258-21.805 7.953Zm0 0"/><path fill="#b8bcc2" d="m349.234 273.566 18.825-8.843-2.809 21.101Zm0 0"/><path fill="#dea510" d="m212.938 325.91 27.171-6.308 16.801 27.886Zm0 0"/><path fill="#c2bfa7" d="m240.11 319.602-27.173 6.308 5.31-14.351Zm0 0"/><path fill="#d9a21a" d="m240.11 319.602 18.28-3.391-1.48 31.277Zm0 0"/><path fill="#c4be9d" d="m258.39 316.21-18.28 3.392 1.253-12.372Zm0 0"/><path fill="#bfb9a5" d="m241.363 307.23-1.254 12.372-21.863-8.043Zm0 0"/><path fill="#f8d40f" d="m245.781 20.86-7.574 5.117-.781-7.586Zm0 0"/><path fill="#f0d129" d="m245.781 20.86 3.516 15.023-11.09-9.906Zm0 0"/><path fill="#f3d220" d="m249.297 35.883-3.516-15.024 16.082-.402Zm0 0"/><path fill="#5b0a90" d="m243.023 0 2.758 20.86-8.355-2.47Zm0 0"/><path fill="#5b0a90" d="M245.781 20.86 243.023 0l18.84 20.457Zm0 0"/><path fill="#f8bc05" d="m268.176 40.547-4.278 30.316-14.601-34.98Zm0 0"/><path fill="#fed500" d="m167.79 135.086 18.608-30.8 19.66 29.046Zm0 0"/><path fill="#fed600" d="m186.398 104.285-18.609 30.8-25.285-24.987ZM268.762 126.602l-42.555-19.137 46.695.965ZM226.207 107.465l37.691-36.602 9.004 37.567Zm0 0"/><path fill="#e5cd47" d="m262.027 158.648 31.762-6.003-21.207 20.972Zm0 0"/><path fill="#e8cb39" d="m293.79 152.645 6.272 12.03-27.48 8.942Zm0 0"/><path fill="#5b0a90" d="m290.555 199.95 11.304-13.895 11.125 12.582Zm0 0"/><path fill="#5b0a90" d="m290.645 184.035 11.214 2.02-11.304 13.894Zm0 0"/><path fill="#5c098d" d="m300.063 164.676 1.796 21.379-11.214-2.02Zm0 0"/><path fill="#fcd302" d="m368.672 224.91-13.332-6.172 12.539-10.539Zm0 0"/><path fill="#cd081d" d="m342.867 211.762-2.617-19.676 15.234 4.086Zm0 0"/><path fill="#cd071d" d="m340.25 192.086 2.617 19.676-13.125-6.524Zm0 0"/><path fill="#71267c" d="m343.418 227.082-4.371 18.445-9.203-19.718Zm0 0"/><path fill="#fed600" d="m342.867 211.762.551 15.32-13.574-1.273Zm0 0"/><path fill="#b8bcc3" d="m310.04 119.695 32.605 10.707-11.336 21.352Zm0 0"/><path fill="#b8bcc4" d="m342.645 130.402-10.528-15.613 11.426-2.809Zm0 0"/><path fill="#b8bcc4" d="m332.117 114.79 10.528 15.612-32.606-10.707Zm0 0"/><path fill="#b9bcc0" d="m357.664 147.219-26.355 4.535 11.336-21.352Zm0 0"/><path fill="#5b098f" d="m314.906 180.672-13.047 5.383-1.796-21.38Zm0 0"/><path fill="#5b0a90" d="m301.86 186.055 13.046-5.383-1.922 17.965Zm0 0"/><path fill="#b8bcc4" d="m343.543 111.98 12.059 3.696-12.957 14.726Zm0 0"/><path fill="#5b0a90" d="m355.602 115.676-12.059-3.696 10.664-4.609Zm0 0"/><path fill="#fed600" d="m311.969 86.871 20.148 27.918-30.832-13.418Zm0 0"/><path fill="#fed602" d="m263.898 70.863 4.278-30.316 24.492 13.55Zm0 0"/><path fill="#fed600" d="m311.969 86.871-48.07-16.008 28.769-16.765Zm0 0"/><path fill="#fac302" d="M98.238 119.348 68.305 93.645l29.25-7.211Zm0 0"/><path fill="#e16612" d="m72.29 72.828-3.985 20.817-13.516-18.196Zm0 0"/><path fill="#e46c0f" d="m72.29 72.828-17.5 2.621 13.194-14.504Zm0 0"/><path fill="#e8880c" d="m68.305 93.645-27.961 2.503L54.789 75.45Zm0 0"/><path fill="#5b0a90" d="M54.79 75.45 40.343 96.147 28.55 84.695ZM16.625 133.824l23.719-37.676-9.977 37.41Zm0 0"/><path fill="#5b0990" d="m40.344 96.148-23.719 37.676 11.926-49.129Zm0 0"/><path fill="#f7d415" d="m195.73 41.59-28.09-12.64 21.766-9.255Zm0 0"/><path fill="#efd12a" d="m195.73 41.59-6.324-21.895 33.262-2.965Zm0 0"/><path fill="#f8d412" d="m233.027 36.43-37.297 5.16 26.938-24.86Zm0 0"/><path fill="#740749" d="m182.793 284.438-51.621-16.668 43.574-4.313Zm0 0"/><path fill="#6e0657" d="m131.172 267.77 51.621 16.668-57.781-5.063Zm0 0"/><path fill="#e8b40b" d="m153.77 246.031-28.57 10.567 2.573-24.434Zm0 0"/><path fill="#6e0656" d="m182.793 284.438 14.7-21.711 8.386 11.867Zm0 0"/><path fill="#6b055e" d="m223.363 288.559-40.57-4.122 23.086-9.843Zm0 0"/><path fill="#7b012e" d="m181.898 294.43.895-9.993 40.57 4.122Zm0 0"/><path fill="#6a0864" d="m182.793 284.438-8.047-20.981 22.746-.73Zm0 0"/><path fill="#ccc38c" d="m155.469 334.742 12.191-23.094 17.465 19.664Zm0 0"/><path fill="#c8c298" d="m167.66 311.648 14.238-17.218 3.227 36.882Zm0 0"/><path fill="#610c82" d="m73.422 339.879 4.617-13.504 43.863 19.035Zm0 0"/><path fill="#ca861b" d="m78.04 326.375 41.526 2.008 2.336 17.027Zm0 0"/><path fill="#ddc755" d="m119.566 328.383-41.527-2.008 11.996-14.262Zm0 0"/><path fill="#ddab1d" d="m119.566 328.383 35.903 6.36-33.567 10.667Zm0 0"/><path fill="#cdc38a" d="m155.469 334.742-35.903-6.36 34.079-26.292Zm0 0"/><path fill="#d7c668" d="m153.645 302.09-34.079 26.293 3.32-33.227Zm0 0"/><path fill="#72044a" d="m278.645 264.79 21.093 17.644-34.781-7.223Zm0 0"/><path fill="#700550" d="m264.957 275.21 34.781 7.224-43.332 10.03Zm0 0"/><path fill="#e7cc3c" d="m299.738 282.434 1.125 7.082-44.457 2.949Zm0 0"/><path fill="#66066c" d="m332.23 267.746-32.492 14.688 5.965-27.258Zm0 0"/><path fill="#71054e" d="m339.047 245.527-6.817 22.22-26.527-12.571Zm0 0"/><path fill="#fed600" d="M300.863 289.516 324 299.687l-18.875 9.426Zm0 0"/><path fill="#fdd501" d="m190.195 248.488-21.113-.25-4.531-13.328Zm0 0"/><path fill="#fcd301" d="m174.746 263.457-5.664-15.219 21.113.25Zm0 0"/><path fill="#d7c86c" d="m349.234 273.566 1.864-13.46 16.96 4.617Zm0 0"/><path fill="#640e7d" d="m339.047 245.527 12.05 14.578-18.867 7.641Zm0 0"/><path fill="#d4c675" d="m351.098 260.105-1.864 13.461-17.004-5.82Zm0 0"/><path fill="#5c0c8f" d="m367.176 237.043-16.078 23.062-12.051-14.578Zm0 0"/><path fill="#efce25" d="m371.555 249.188-20.457 10.917 16.078-23.062Zm0 0"/><path fill="#fbd103" d="m368.059 264.723-16.961-4.618 20.457-10.918Zm0 0"/><path fill="#fed600" d="m186.398 104.285 29.383 17.508-9.722 11.539Zm0 0"/><path fill="#fad107" d="m215.781 121.793 11.836 9.062-21.558 2.477Zm0 0"/><path fill="#e36510" d="m226.207 107.465-10.426 14.328-29.383-17.508Zm0 0"/><path fill="#5e0a89" d="m266.703 133.234-24.406 14.364 26.465-20.996Zm0 0"/><path fill="#cd0a1e" d="m242.297 147.598 24.406-14.364 2.184 11.461Zm0 0"/><path fill="#cc071e" d="m241.293 165.629-23.48 4.742-7.473-18.258Zm0 0"/><path fill="#d8c86b" d="m217.813 170.371 23.48-4.742 3.512 14.629Zm0 0"/><path fill="#5d0989" d="m227.617 130.855 14.68 16.743-36.238-14.266Zm0 0"/><path fill="#5c098c" d="m206.059 133.332 36.238 14.266-31.957 4.515Zm0 0"/><path fill="#cb071f" d="m242.297 147.598-1.004 18.03-30.953-13.515Zm0 0"/><path fill="#d93b16" d="m226.207 107.465-39.809-3.18 26.938-46.234Zm0 0"/><path fill="#ee9409" d="M186.398 104.285 145.926 71.23l67.41-13.18Zm0 0"/><path fill="#d3c678" d="m268.887 144.695 24.902 7.95-31.762 6.003Zm0 0"/><path fill="#5c0a8e" d="m286.484 124.258-17.597 20.437-.125-18.093Zm0 0"/><path fill="#600c86" d="m268.887 144.695-2.184-11.46 2.059-6.633Zm0 0"/><path fill="#752b79" d="m355.34 218.738 13.332 6.172-29.625 20.617Zm0 0"/><path fill="#70247e" d="m343.418 227.082 11.922-8.344-16.293 26.79Zm0 0"/><path fill="#fed600" d="m355.34 218.738-11.922 8.344-.55-15.32Zm0 0"/><path fill="#b8bbc3" d="m309.184 151.203-22.7-26.945 23.555-4.563Zm0 0"/><path fill="#b8bcc4" d="m309.184 151.203.855-31.508 21.27 32.059Zm0 0"/><path fill="#f9c203" d="m98.238 119.348-33.41 8.172 3.477-33.875Zm0 0"/><path fill="#fccd01" d="M64.828 127.52 40.344 96.148l27.96-2.503Zm0 0"/><path fill="#e05812" d="m68.305 93.645 3.984-20.817 25.266 13.606Zm0 0"/><path fill="#be2e31" d="M213.336 58.05 195.73 41.59l37.297-5.16Zm0 0"/><path fill="#6a0561" d="m131.172 267.77-6.16 11.605-11.614-7.723Zm0 0"/><path fill="#6b055e" d="m125.2 256.598 5.972 11.172-17.774 3.882Zm0 0"/><path fill="#700755" d="m153.77 246.031-22.598 21.739-5.973-11.172Zm0 0"/><path fill="#fed500" d="m164.55 234.91-10.78 11.121-25.997-13.867Zm0 0"/><path fill="#fdd602" d="m159.957 223.043 4.594 11.867-36.778-2.746Zm0 0"/><path fill="#650973" d="m182.793 284.438-.895 9.992-56.886-15.055Zm0 0"/><path fill="#d7c86c" d="m153.645 302.09 14.015 9.558-12.191 23.094Zm0 0"/><path fill="#fed600" d="m153.645 302.09 28.253-7.66-14.238 17.218Zm0 0"/><path fill="#fed600" d="m181.898 294.43-28.253 7.66-28.633-22.715ZM300.863 289.516l31.625-13.68L324 299.687Zm0 0"/><path fill="#d6c46c" d="m332.488 275.836-31.625 13.68-1.125-7.082Zm0 0"/><path fill="#be9a6d" d="m332.23 267.746.258 8.09-32.75 6.598Zm0 0"/><path fill="#deca5a" d="m233.027 36.43 5.18-10.453 11.09 9.906Zm0 0"/><path fill="#f8bc05" d="m263.898 70.863-30.87-34.433 16.269-.547Zm0 0"/><path fill="#f4ae07" d="m213.336 58.05 19.691-21.62 30.871 34.433Zm0 0"/><path fill="#cd071d" d="m241.293 165.629 1.004-18.031 26.59-2.903Zm0 0"/><path fill="#5c0b8d" d="m293.79 152.645-24.903-7.95 17.597-20.437Zm0 0"/><path fill="#bbbcba" d="m309.184 151.203-15.395 1.442-7.305-28.387Zm0 0"/><path fill="#b8bbc1" d="m309.184 151.203 5.722 29.469-14.844-15.996Zm0 0"/><path fill="#b9bcc0" d="m293.79 152.645 15.394-1.442-9.122 13.473Zm0 0"/><path fill="#b8bcc3" d="m314.906 180.672-5.722-29.469 22.125.55Zm0 0"/><path fill="#ba051e" d="m72.71 160.477 10.743-18.762 9.844 9.922Zm0 0"/><path fill="#bd071e" d="m83.453 141.715-10.742 18.762-7.137-15.704Zm0 0"/><path fill="#f6d215" d="M83.453 141.715 64.828 127.52l33.41-8.172Zm0 0"/><path fill="#67066b" d="m93.297 151.637-9.844-9.922 24.117-.164Zm0 0"/><path fill="#f6d317" d="m83.453 141.715 14.785-22.367 9.332 22.203Zm0 0"/><path fill="#fed602" d="m153.77 246.031 10.78-11.12 4.532 13.327Zm0 0"/><path fill="#fad104" d="m153.77 246.031 15.312 2.207 5.664 15.219Zm0 0"/><path fill="#650a74" d="m131.172 267.77 22.598-21.739 20.976 17.426Zm0 0"/><path fill="#5c0c8f" d="m45.41 314.04-4.168 32.452-16.578-34.668Zm0 0"/><path fill="#5b0b90" d="M41.242 346.492.032 326.98l24.632-15.156Zm0 0"/><path fill="#f8d413" d="m64.828 127.52 18.625 14.195-17.879 3.058Zm0 0"/><path fill="#fcd504" d="m64.828 127.52-36.047 16.69 1.586-10.651Zm0 0"/><path fill="#f7d00e" d="m28.781 144.21 36.047-16.69.746 17.253Zm0 0"/><path fill="#fccf01" d="m40.344 96.148 24.484 31.372-34.46 6.039Zm0 0"/></svg>