<svg xmlns="http://www.w3.org/2000/svg" width="512" height="512" viewBox="0 0 384 384"><path fill="#f9f2da" d="m168.953 136.129-46.707 3.086-2.39-12.094Zm0 0"/><path fill="#7e6d1f" d="m122.246 139.215 46.707-3.086-38.137 27.105Zm0 0"/><path fill="#fec50b" d="m170.715 173.55 19.777-1.003-12.672 24.02Zm0 0"/><path fill="#bbbcbe" d="m232.277 383.988-25.504-.004 18.153-12.386Zm0 0"/><path fill="#76808f" d="m268.023 375.656-35.746 8.332-7.351-12.39Zm0 0"/><path fill="#fefaec" d="m283.82 28.105 11.125 9.368-18.578 2.703Zm0 0"/><path fill="#081d3b" d="M226.324 0h76.266l-71.336 6.383ZM384 172.93l-5.375-39.418 5.379-.004ZM94.25 0l72.234 21.29-30.273 6.46ZM30.645 75.574l12.253-39.703 17.149 32.36Zm0 0"/><path fill="#081d3b" d="M42.898 35.871 30.645 75.574 0 70.02Zm0 0"/><path fill="#faf3dc" d="m119.855 127.121 2.391 12.094-22.633 2.61Zm0 0"/><path fill="#7d6c1f" d="m114.715 164.188-33.543 4.675 18.441-27.039Zm0 0"/><path fill="#4f4d2a" d="m122.246 139.215-7.531 24.972-15.102-22.363Zm0 0"/><path fill="#081d3b" d="m81.172 168.863 33.543-4.675-13.09 27.613Zm0 0"/><path fill="#0d203a" d="m168.953 136.129 2.574 32.8-40.71-5.695Zm0 0"/><path fill="#24364d" d="m46.926 371.008-4.274-46.055 39.739 20.309Zm0 0"/><path fill="#091e3c" d="m82.39 345.262-39.738-20.309 43.434 9.274Zm0 0"/><path fill="#081d3b" d="M19.418 202.531 0 225.011v-63.546Zm0 0"/><path fill="#fec507" d="m212.48 200.945-21.988-28.398 34.649 7.578Zm0 0"/><path fill="#fec403" d="m190.492 172.547 21.988 28.398-34.66-4.379Zm0 0"/><path fill="#383d30" d="m212.48 200.945 58.211-1.09-31.824 19.293Zm0 0"/><path fill="#112339" d="m295.121 236.254-8.402 22.637-9.57-36.875Zm0 0"/><path fill="#3e412e" d="m253.328 264.566 6.445-.113-5.242 27.383Zm0 0"/><path fill="#565129" d="m288.293 277.785-28.52-13.332 26.946-5.562Zm0 0"/><path fill="#222e35" d="m259.773 264.453 28.52 13.332-33.762 14.05Zm0 0"/><path fill="#fefefb" d="m354.5 311.336-16.57-25.02 20.941 13.961Zm0 0"/><path fill="#081d3c" d="m302.152 384.016 36.172-17.18L348.355 384Zm0 0"/><path fill="#44462e" d="m289.695 303.64-29.183 9.837-5.98-21.641Zm0 0"/><path fill="#cacdd2" d="m232.277 383.988 35.746-8.332 3.399 8.344Zm0 0"/><path fill="#cccfd2" d="m338.324 366.836-22.687-17.066 32.808-3.735Zm0 0"/><path fill="#10233e" d="m214.059 351.273 41.226-1.875-30.36 22.2Zm0 0"/><path fill="#38485d" d="m255.285 349.398 12.738 26.258-43.097-4.058Zm0 0"/><path fill="#081d3c" d="M225.133 16.527 191.785 0h34.54Zm0 0"/><path fill="#081d3b" d="M225.133 16.527 226.324 0l4.93 6.383Zm0 0"/><path fill="#fbf5e0" d="m172.719 115.266-3.766 20.863-49.098-9.008Zm0 0"/><path fill="#fefcf6" d="m263.043 23.176 20.777 4.93-7.453 12.07Zm0 0"/><path fill="#081d3b" d="m283.82 28.105-20.777-4.93 21.984-9.76ZM283.82 28.105l18.293-3.347-7.168 12.715Zm0 0"/><path fill="#081d3b" d="m302.113 24.758-18.293 3.347 1.207-14.69ZM302.59 0l-.477 24.758-17.086-11.344Zm0 0"/><path fill="#f8f9f9" d="m360.215 118.04 18.41 15.472-20.398 4.156Zm0 0"/><path fill="#081d3b" d="m378.625 133.512-18.41-15.473 9.418-6.289ZM384 172.93v32.12l-18.758-26.234ZM359.91 99.605l-1.598-41.925L384 96.64Zm0 0"/><path fill="#fefcf5" d="m299.965 54.82-22.535 9.008 17.515-26.355Zm0 0"/><path fill="#fefdf9" d="m311.996 49.012-12.031 5.808-5.02-17.347Zm0 0"/><path fill="#fefcf4" d="M294.945 37.473 277.43 63.828l-1.063-23.652Zm0 0"/><path fill="#081d3c" d="M19.328 95.059 0 161.465V70.02Zm0 0"/><path fill="#b8a86a" d="m49.797 158 .086 32.355L29.03 175.13Zm0 0"/><path fill="#fdefbe" d="m97.945 42.508 38.266-14.758-17.879 32.266Zm0 0"/><path fill="#081d3b" d="m42.898 35.871 43.133 10.902L60.047 68.23ZM42.898 35.871 0 0h94.25Zm0 0"/><path fill="#081d3b" d="m0 0 42.898 35.871L0 70.02Zm0 0"/><path fill="#0c1f3a" d="m67.29 219.527 27.23 5.75-32.235 3.528Zm0 0"/><path fill="#081d3b" d="m94.52 225.277-.47 4.04-31.765-.512Zm0 0"/><path fill="#605826" d="m101.625 191.8-10.004 12.91-41.738-14.355Zm0 0"/><path fill="#fec300" d="M91.621 204.71 67.29 219.528l-17.406-29.172Zm0 0"/><path fill="#fdc300" d="m67.29 219.527 24.331-14.816 2.899 20.566Zm0 0"/><path fill="#0f213a" d="m112.602 273.77-41.297-3.067L78 252.086Zm0 0"/><path fill="#8d771b" d="m181.684 218.531 30.796-17.586 26.387 18.203Zm0 0"/><path fill="#081d3b" d="m212.48 200.945-30.796 17.586-3.864-21.965Zm0 0"/><path fill="#091e3b" d="m127.668 225.738 24.742-1.664-24.222 6.992Zm0 0"/><path fill="#081d3b" d="m127.668 225.738.52 5.328-33.668-5.789Zm0 0"/><path fill="#f2eddb" d="m170.715 173.55.812-4.62 18.965 3.617Zm0 0"/><path fill="#192938" d="m171.527 168.93 18.762-14.664.203 18.28Zm0 0"/><path fill="#f7e4a5" d="m72.176 298.926 1.226-12.606 24.028 12.703Zm0 0"/><path fill="#1d2b36" d="m73.402 286.32 28.067-2.652-4.04 15.355Zm0 0"/><path fill="#a88a16" d="m101.469 283.668-28.067 2.652-2.097-15.617Zm0 0"/><path fill="#fdf9ea" d="m72.176 298.926-27.489-15.82 28.715 3.214Zm0 0"/><path fill="#bdbfc3" d="m131.172 372.96 21.637 10.993-21.278.047Zm0 0"/><path fill="#081d3c" d="m46.473 384.004 43.336-12.305-.266 12.305Zm0 0"/><path fill="#081d3c" d="m89.809 371.7-43.336 12.304.453-12.996ZM89.809 371.7l25.398 12.304H89.543Zm0 0"/><path fill="#8c949f" d="m82.39 345.262 7.419 26.437-42.883-.691Zm0 0"/><path fill="#1d2f4b" d="m89.809 371.7-7.418-26.438 25.918 13.105Zm0 0"/><path fill="#dcca8a" d="m115.207 384.004-25.398-12.305 18.5-13.332Zm0 0"/><path fill="#89741c" d="m49.883 190.355-30.465 12.176 9.613-27.402Zm0 0"/><path fill="#081d3c" d="M19.418 202.531 0 161.465l29.031 13.664Zm0 0"/><path fill="#f7be01" d="m67.29 219.527-13.813-6.414-3.594-22.758Zm0 0"/><path fill="#736523" d="m53.02 256.863.457-43.75 8.808 15.692Zm0 0"/><path fill="#0b1f3b" d="m53.477 213.113 13.812 6.414-5.004 9.278Zm0 0"/><path fill="#3e412f" d="M94.05 229.316 78 252.086l-15.715-23.281Zm0 0"/><path fill="#42442d" d="m71.305 270.703-18.285-13.84 9.265-28.058Zm0 0"/><path fill="#9d8217" d="m78 252.086-6.695 18.617-9.02-41.898Zm0 0"/><path fill="#162638" d="m44.688 283.105 26.617-12.402 2.097 15.617Zm0 0"/><path fill="#081d3b" d="m42.652 324.953 17.262-9.336 26.172 18.61Zm0 0"/><path fill="#5d5627" d="M42.652 324.953-.004 335.262l-.012-25.059Zm0 0"/><path fill="#fdfaee" d="m260.398 159.14-3.43 20.028-14.222-13.758Zm0 0"/><path fill="#fdc300" d="m256.969 179.168 13.722 20.687-58.21 1.09Zm0 0"/><path fill="#fdc403" d="m256.969 179.168-44.489 21.777 12.66-20.82Zm0 0"/><path fill="#fefcf3" d="m242.746 165.41 14.223 13.758-31.828.957Zm0 0"/><path fill="#fbc30a" d="m277.145 175.98 7.535 18.528-13.989 5.347Zm0 0"/><path fill="#313832" d="m253.328 264.566-12.988-23.304 19.433 23.191Zm0 0"/><path fill="#f3bc03" d="m240.34 241.262 12.988 23.304-29.398-6.28Zm0 0"/><path fill="#081d3b" d="m262.137 238.969-21.797 2.293-1.473-22.114Zm0 0"/><path fill="#e4b209" d="m262.137 238.969 24.582 19.922-26.946 5.562Zm0 0"/><path fill="#313831" d="m240.34 241.262 21.797-2.293-2.364 25.484Zm0 0"/><path fill="#fec300" d="m294.027 219.64-23.336-19.785 13.989-5.347Zm0 0"/><path fill="#fdc200" d="m270.691 199.855 23.336 19.786-16.879 2.375Zm0 0"/><path fill="#081d3b" d="m294.027 219.64 1.094 16.614-17.973-14.238Zm0 0"/><path fill="#081d3b" d="m295.121 236.254-1.094-16.613 19.418-.094Zm0 0"/><path fill="#0b1f3b" d="m221.227 291.645 32.101-27.079 1.203 27.27Zm0 0"/><path fill="#fef9e8" d="m177.098 294.379 38.46 18.965-34.8 20.34Zm0 0"/><path fill="#081d3c" d="m365.89 288.5 2.583 12.832-9.602-1.055Zm0 0"/><path fill="#081d3b" d="M368.473 301.332 365.89 288.5l18.113 18.504ZM365.89 288.5l18.102-17.996.012 36.5Zm0 0"/><path fill="#fdd346" d="m383.996 251.148-.004 19.356-15.082-5.414Zm0 0"/><path fill="#081d3b" d="M383.992 270.504 365.891 288.5l3.02-23.41ZM383.996 251.148l-19.129-12.375 19.137-2.449Zm0 0"/><path fill="#fefdfc" d="m356.016 285.898 9.875 2.602-7.02 11.777Zm0 0"/><path fill="#fefefd" d="m337.93 286.316 18.086-.418 2.855 14.38Zm0 0"/><path fill="#081d3b" d="m368.219 311.871.254-10.539 15.53 5.672Zm0 0"/><path fill="#39495d" d="m368.219 311.871 15.777 10.715-23.039 4.277Zm0 0"/><path fill="#0b1f3c" d="m368.219 311.871-13.719-.535 4.371-11.059Zm0 0"/><path fill="#081d3b" d="m368.473 301.332-.254 10.54-9.348-11.595Zm0 0"/><path fill="#b8bcc4" d="m348.445 346.035-12.234-22.176 24.746 3.004Zm0 0"/><path fill="#dfe1e2" d="m338.324 366.836 10.121-20.8 10.352 13.808Zm0 0"/><path fill="#fec405" d="m354.5 311.336-23.066-2.43 6.496-22.59Zm0 0"/><path fill="#fefaed" d="m289.695 303.64 28.77 11.544-33.48 29.605Zm0 0"/><path fill="#081d3b" d="M384 384h-35.645l10.442-24.156Zm0 0"/><path fill="#081d3b" d="m348.355 384-10.03-17.164 20.472-6.992Zm0 0"/><path fill="#081d3c" d="M384 350.219V384l-25.203-24.156Zm0 0"/><path fill="#b9bdc6" d="m384 350.219-35.555-4.184 12.512-19.172Zm0 0"/><path fill="#e1e2e5" d="M348.445 346.035 384 350.22l-25.203 9.625Zm0 0"/><path fill="#0a1e3b" d="m157.34 362.395-9.2-13.454 65.919 2.332Zm0 0"/><path fill="#e0e1e4" d="m268.023 375.656 29.446-7.734L271.422 384Zm0 0"/><path fill="#dcdee2" d="m297.469 367.922 4.683 16.094-30.73-.016Zm0 0"/><path fill="#d8d9dd" d="m302.152 384.016-4.683-16.094 40.855-1.086Zm0 0"/><path fill="#a0a3a3" d="m297.469 367.922 18.168-18.152 22.687 17.066Zm0 0"/><path fill="#f8df8b" d="m318.465 315.184-12.219 23.605-21.262 6Zm0 0"/><path fill="#081d3b" d="M358.313 57.68 384 0v96.64ZM302.113 24.758l9.883 24.254-17.05-11.54ZM336.242 29.738l-34.129-4.98L302.59 0Zm0 0"/><path fill="#081d3c" d="m225.133 16.527-22.793 2.309L191.785 0Zm0 0"/><path fill="#081d3c" d="m202.34 18.836-13.445-2.852L191.785 0Zm0 0"/><path fill="#fdf8e5" d="m116.707 101.215 56.012 14.05-52.864 11.856Zm0 0"/><path fill="#081d3b" d="m190.29 154.266-21.337-18.137 22.426.16Zm0 0"/><path fill="#091e3b" d="m171.527 168.93-2.574-32.801 21.336 18.137Zm0 0"/><path fill="#fefbf1" d="m306.719 119.61-25.239-5.18 12.84-18.996Zm0 0"/><path fill="#fefbf2" d="m281.48 114.43 25.239 5.18-23.196 4.515Zm0 0"/><path fill="#f1ead1" d="m270.809 145.723-1.293 17.144-9.118-3.726Zm0 0"/><path fill="#081d3b" d="M378.625 133.512 384 96.64l.004 36.867Zm0 0"/><path fill="#081d3b" d="m384 96.64-5.375 36.872-8.992-21.762Zm0 0"/><path fill="#eeeff1" d="m378.625 133.512-5.617 33.293-14.781-29.137Zm0 0"/><path fill="#b0b5bf" d="m373.008 166.805-30.613-19.758 15.832-9.379Zm0 0"/><path fill="#081d3b" d="M373.008 166.805 384 172.93l-18.758 5.886Zm0 0"/><path fill="#081d3c" d="m373.008 166.805 5.617-33.293L384 172.93Zm0 0"/><path fill="#081d3b" d="m373.008 166.805-7.766 12.011-22.847-31.77Zm0 0"/><path fill="#081d3c" d="m351.328 181.52-21.574-30.22 35.488 27.516Zm0 0"/><path fill="#081d3b" d="m384 205.05-28.254-9.472 9.496-16.762Zm0 0"/><path fill="#fec300" d="m310.883 197.848 32.203 14.515-29.64 7.184Zm0 0"/><path fill="#fec300" d="m294.027 219.64 16.856-21.792 2.562 21.699Zm0 0"/><path fill="#fec300" d="m310.883 197.848-16.856 21.793-9.347-25.133Zm0 0"/><path fill="#af8e13" d="m310.883 197.848-26.203-3.34 23.558-8.438Zm0 0"/><path fill="#081d3c" d="m384 96.64-14.367 15.11-9.723-12.145Zm0 0"/><path fill="#081d3b" d="m358.313 57.68 1.597 41.925-23.258-23.183Zm0 0"/><path fill="#fefdf8" d="m311.996 49.012 24.656 27.41-28.191-2.207Zm0 0"/><path fill="#091d3b" d="m336.55 53.82.102 22.602-24.656-27.41Zm0 0"/><path fill="#fefbf3" d="m299.965 54.82 12.031-5.808-3.535 25.203Zm0 0"/><path fill="#fefbee" d="m277.43 63.828-15.387-20.547 14.324-3.105Zm0 0"/><path fill="#081d3c" d="m19.328 95.059 7.82 49.793L0 161.465ZM0 161.465l27.148-16.613 1.883 30.277Zm0 0"/><path fill="#081d3c" d="M27.148 144.852 49.797 158 29.03 175.129Zm0 0"/><path fill="#081d3c" d="m27.148 144.852 33.696 1.957L49.797 158ZM39.46 97.043l-8.815-21.469 29.402-7.344Zm0 0"/><path fill="#081d3b" d="m81.172 168.863 20.453 22.938-51.742-1.446Zm0 0"/><path fill="#9d9568" d="m49.797 158 31.375 10.863-31.29 21.492Zm0 0"/><path fill="#12253d" d="m60.844 146.809 20.328 22.054L49.797 158Zm0 0"/><path fill="#081d3b" d="M94.25 0h97.535l-25.3 21.29Zm0 0"/><path fill="#081d3b" d="m191.785 0-2.89 15.984-22.41 5.305Zm0 0"/><path fill="#fec506" d="m162.344 44.406 5.133-15.996 14.886 12.223Zm0 0"/><path fill="#faf7e9" d="m166.484 21.29.993 7.12-31.266-.66Zm0 0"/><path fill="#fec403" d="m167.477 28.41-5.133 15.996L136.21 27.75Zm0 0"/><path fill="#fec813" d="m180 69.426-17.656-25.02 20.02-3.773Zm0 0"/><path fill="#fec301" d="M215.71 52.48 180 69.426l2.363-28.793Zm0 0"/><path fill="#f7f2e1" d="m162.344 44.406-44.012 15.61 17.879-32.266Zm0 0"/><path fill="#ebb706" d="M162.344 44.406 140.43 70.961l-22.098-10.945Zm0 0"/><path fill="#fcf4d7" d="M162.344 44.406 180 69.426l-39.57 1.535Zm0 0"/><path fill="#eec021" d="m118.332 60.016-20.473 10.55.086-28.058Zm0 0"/><path fill="#f8bf02" d="m97.86 70.566 20.472-10.55-1.625 41.199Zm0 0"/><path fill="#081d3b" d="M87.012 45.305 42.898 35.87 94.25 0ZM87.012 45.305l-.98 1.468-43.134-10.902ZM87.012 45.305 94.25 0l3.695 42.508Zm0 0"/><path fill="#0a1e3b" d="m86.031 46.773 1.739 1.032L60.047 68.23Zm0 0"/><path fill="#081d3b" d="m94.25 0 41.96 27.75-38.265 14.758Zm0 0"/><path fill="#fdc300" d="m113.734 203.047 13.934 22.691-33.148-.46Zm0 0"/><path fill="#fec300" d="m91.621 204.71 22.113-1.663-19.214 22.23Zm0 0"/><path fill="#d3a60a" d="m113.734 203.047-22.113 1.664 10.004-12.91Zm0 0"/><path fill="#081d3b" d="m128.188 231.066-34.137-1.75.469-4.039Zm0 0"/><path fill="#091d3b" d="m112.602 273.77-11.133 9.898-30.164-12.965Zm0 0"/><path fill="#081d3b" d="m240.34 241.262-34.238 1.793 32.765-23.907Zm0 0"/><path fill="#343b31" d="m206.102 243.055 34.238-1.793-16.41 17.023Zm0 0"/><path fill="#fdc200" d="m177.82 196.566-25.41 27.508-.297-21.492Zm0 0"/><path fill="#fdc300" d="m152.41 224.074-38.676-21.027 38.38-.465Zm0 0"/><path fill="#fdc200" d="m113.734 203.047 38.676 21.027-24.742 1.664Zm0 0"/><path fill="#716422" d="m113.734 203.047 12.454-10.29 25.925 9.825Zm0 0"/><path fill="#0b1f3b" d="M126.188 192.758 128 183.41l24.113 19.172Zm0 0"/><path fill="#081d3b" d="m128 183.41 49.82 13.156-25.707 6.016Zm0 0"/><path fill="#fec300" d="m128 183.41 42.715-9.86 7.105 23.016Zm0 0"/><path fill="#e0b00c" d="M170.715 173.55 128 183.41l2.816-20.176Zm0 0"/><path fill="#2d3632" d="m128 183.41-5.754-44.195 8.57 24.02Zm0 0"/><path fill="#f7f1dc" d="m171.527 168.93-.812 4.62-39.899-10.316Zm0 0"/><path fill="#0a1e3b" d="m128 183.41-14.266 19.637-12.109-11.246ZM113.734 203.047 128 183.41l-1.812 9.348Zm0 0"/><path fill="#081d3b" d="M114.715 164.188 128 183.41l-26.375 8.39Zm0 0"/><path fill="#393e2f" d="M122.246 139.215 128 183.41l-13.285-19.222Zm0 0"/><path fill="#081d3b" d="m-.004 369.188 46.477 14.816L0 384Zm0 0"/><path fill="#081d3c" d="M46.473 384.004-.004 369.187l46.93 1.82Zm0 0"/><path fill="#bbbfc5" d="m-.004 369.188 23.04-20.852 23.89 22.672Zm0 0"/><path fill="#585c51" d="m23.035 348.336 19.617-23.383 4.274 46.055Zm0 0"/><path fill="#0c203b" d="m157.34 362.395-26.168 10.566 16.969-24.02Zm0 0"/><path fill="#2b3c55" d="m152.809 383.953 4.53-21.558 43.384 6.789Zm0 0"/><path fill="#5a646e" d="m131.172 372.96 26.168-10.565-4.531 21.558Zm0 0"/><path fill="#fcc306" d="m131.172 372.96-22.863-14.593 39.832-9.426Zm0 0"/><path fill="#dac785" d="m131.172 372.96-15.965 11.044-6.898-25.637Zm0 0"/><path fill="#b9bdc4" d="m115.207 384.004 15.965-11.043.36 11.039Zm0 0"/><path fill="#c49c10" d="m121.316 298.254 9.293-14.367 16.172 14.496Zm0 0"/><path fill="#fac001" d="m130.61 283.887-29.141-.219 11.133-9.898Zm0 0"/><path fill="#cea30c" d="m101.469 283.668 29.14.219-9.293 14.367Zm0 0"/><path fill="#091d3b" d="m108.309 358.367 1.402-17.652 38.43 8.226Zm0 0"/><path fill="#fdf5d9" d="m97.43 299.023 23.886-.77-17.156 21.716Zm0 0"/><path fill="#c49d13" d="m97.43 299.023 4.039-15.355 19.847 14.586Zm0 0"/><path fill="#b79311" d="m53.02 256.863 18.285 13.84-26.618 12.402Zm0 0"/><path fill="#fef6da" d="m44.688 283.105 27.488 15.82-12.262 16.692Zm0 0"/><path fill="#081d3b" d="m44.688 283.105-2.036 41.848-42.668-14.75Zm0 0"/><path fill="#081d3b" d="m42.652 324.953 2.035-41.848 15.227 32.512ZM43.344 216.203l-23.926-13.672 30.465-12.176Zm0 0"/><path fill="#081d3b" d="m53.477 213.113-10.133 3.09 6.539-25.848Zm0 0"/><path fill="#081d3c" d="m19.418 202.531 23.926 13.672L0 225.012Zm0 0"/><path fill="#b79412" d="m43.344 216.203 10.133-3.09-.457 43.75Zm0 0"/><path fill="#fdf8e7" d="m269.516 162.867-12.547 16.301 3.43-20.027Zm0 0"/><path fill="#fef9e9" d="m256.969 179.168 12.547-16.3 7.629 13.112Zm0 0"/><path fill="#fec401" d="m256.969 179.168 20.176-3.188-6.454 23.875Zm0 0"/><path fill="#081d3b" d="m277.148 222.016-15.011 16.953-23.27-19.82Zm0 0"/><path fill="#081d3b" d="m262.137 238.969 15.011-16.953 9.57 36.875Zm0 0"/><path fill="#eeb804" d="m270.691 199.855 6.457 22.16-38.28-2.867Zm0 0"/><path fill="#e3b20a" d="m312.8 265.195-26.081-6.304 8.402-22.637Zm0 0"/><path fill="#ac8c14" d="m312.8 265.195-24.507 12.59-1.574-18.894Zm0 0"/><path fill="#232f35" d="m313.445 219.547-.644 45.648-17.68-28.941Zm0 0"/><path fill="#d2a50b" d="m291.656 285.766-1.96 17.875-35.165-11.805Zm0 0"/><path fill="#675d25" d="m291.656 285.766 26.809 29.418-28.77-11.543Zm0 0"/><path fill="#ac8c15" d="m221.227 291.645-5.668 21.699-38.461-18.965Zm0 0"/><path fill="#081d3b" d="m187.473 234.3-5.79-15.769 57.184.617Zm0 0"/><path fill="#e6b305" d="m177.82 196.566 3.864 21.965-29.274 5.543Zm0 0"/><path fill="#091e3b" d="m181.684 218.531-26.336 13.723-2.938-8.18Zm0 0"/><path fill="#091e3b" d="m155.348 232.254 26.336-13.723 5.789 15.77Zm0 0"/><path fill="#3b3f2f" d="m219.945 264.547 33.383.02-32.101 27.078Zm0 0"/><path fill="#1f2c36" d="m219.945 264.547 3.985-6.262 29.398 6.281Zm0 0"/><path fill="#1d2b36" d="m223.93 258.285-3.985 6.262-13.843-21.492Zm0 0"/><path fill="#081d3b" d="m206.102 243.055-18.63-8.754 51.395-15.153ZM361.387 249.734l3.48-10.96 19.13 12.374Zm0 0"/><path fill="#fde593" d="m361.387 249.734 22.61 1.414-15.087 13.942Zm0 0"/><path fill="#081d3b" d="M364.867 238.773 384 205.051l.004 31.273Zm0 0"/><path fill="#fdfaed" d="m356.016 285.898 12.894-20.808-3.02 23.41Zm0 0"/><path fill="#c5c6bf" d="M383.996 322.586 368.22 311.87l15.785-4.867Zm0 0"/><path fill="#fec401" d="m336.21 323.86 18.29-12.524 6.457 15.527Zm0 0"/><path fill="#838885" d="m354.5 311.336 13.719.535-7.262 14.992Zm0 0"/><path fill="#fec403" d="m354.5 311.336-18.29 12.523-4.776-14.953Zm0 0"/><path fill="#c2c5cb" d="m383.996 322.586.004 27.633-23.043-23.356Zm0 0"/><path fill="#b3b6ba" d="m200.723 369.184 6.05 14.8-53.964-.03Zm0 0"/><path fill="#0d213d" d="m200.723 369.184-43.383-6.79 56.719-11.12Zm0 0"/><path fill="#6f7881" d="m224.926 371.598-24.203-2.414 13.336-17.91Zm0 0"/><path fill="#b9bcc2" d="m200.723 369.184 24.203 2.414-18.153 12.386Zm0 0"/><path fill="#fde492" d="m215.559 313.344-4.301 25.011-30.5-4.671Zm0 0"/><path fill="#d6ba5a" d="m211.258 338.355-63.117 10.586 32.617-15.257Zm0 0"/><path fill="#d1b965" d="m148.14 348.941 63.118-10.586 2.8 12.918Zm0 0"/><path fill="#4c5a6d" d="m297.469 367.922-9.254-12.387 27.422-5.765Zm0 0"/><path fill="#1f314c" d="m288.215 355.535 18.031-16.746 9.39 10.98Zm0 0"/><path fill="#5d6878" d="m288.215 355.535 9.254 12.387-29.446 7.734Zm0 0"/><path fill="#31425a" d="m255.285 349.398 32.93 6.137-20.192 20.121Zm0 0"/><path fill="#091d3c" d="m288.215 355.535-32.93-6.137 29.7-4.609Zm0 0"/><path fill="#0a1e3d" d="m306.246 338.79-18.031 16.745-3.23-10.746Zm0 0"/><path fill="#b8bcc4" d="m315.637 349.77 10.672-19.286 22.136 15.551Zm0 0"/><path fill="#545f6a" d="m306.246 338.79 20.063-8.306-10.672 19.286Zm0 0"/><path fill="#fde288" d="m326.309 330.484-20.063 8.305 12.219-23.605Zm0 0"/><path fill="#fce59a" d="m336.21 323.86-9.901 6.624-7.844-15.3Zm0 0"/><path fill="#b8bcc4" d="m326.309 330.484 9.902-6.625 12.234 22.176Zm0 0"/><path fill="#081d3b" d="m384 0-47.758 29.738L302.59 0ZM336.242 29.738l.309 24.082-24.555-4.808Zm0 0"/><path fill="#081d3b" d="m302.113 24.758 34.13 4.98-24.247 19.274Zm0 0"/><path fill="#081d3b" d="m336.242 29.738 22.07 27.942-21.761-3.86ZM384 0l-25.687 57.68-22.07-27.942Zm0 0"/><path fill="#fec919" d="m239.773 36.598 23.27-13.422-1 20.105Zm0 0"/><path fill="#fef8e4" d="m262.043 43.281 1-20.105 13.324 17Zm0 0"/><path fill="#fdeaab" d="m116.707 101.215 32.871-14.781 23.14 28.832Zm0 0"/><path fill="#fefbf2" d="m263.344 126.684 18.136-12.254 2.043 9.695Zm0 0"/><path fill="#081d3b" d="m226.938 131.348-36.649 22.918 1.09-17.977Zm0 0"/><path fill="#635c2a" d="m253.734 145.719 17.075.004-10.41 13.418Zm0 0"/><path fill="#5d582e" d="m253.734 145.719 6.664 13.422-17.652 6.27Zm0 0"/><path fill="#fef9e6" d="m258.238 96.36 5.106 30.324-37.356-7.637Zm0 0"/><path fill="#fefcf4" d="m215.71 52.48 42.528 43.88-32.25 22.687Zm0 0"/><path fill="#fefbee" d="m281.48 114.43-23.242-18.07 36.082-.926Zm0 0"/><path fill="#081d3c" d="m359.91 99.605-16.168 12.903-7.09-36.086Zm0 0"/><path fill="#fefefc" d="m320.578 98.777-12.117-24.562 28.191 2.207Zm0 0"/><path fill="#fefefe" d="m343.742 112.508-23.164-13.73 16.074-22.356Zm0 0"/><path fill="#fefefd" d="m320.578 98.777 23.164 13.73-14.23 5.81Zm0 0"/><path fill="#e0e2e6" d="m345.488 129.21 14.727-11.17-1.988 19.628Zm0 0"/><path fill="#f9c001" d="m351.328 181.52 4.418 14.058-11.687-7.457Zm0 0"/><path fill="#081d3b" d="m355.746 195.578-4.418-14.058 13.914-2.704Zm0 0"/><path fill="#fec402" d="m297.727 173.219-13.047 21.289-7.535-18.528Zm0 0"/><path fill="#081d3b" d="m384 205.05-15.488 5.99-12.766-15.462Zm0 0"/><path fill="#bf990f" d="m344.059 188.121-33.176 9.727-2.645-11.778Zm0 0"/><path fill="#fec300" d="m310.883 197.848 33.176-9.727-.973 24.242Zm0 0"/><path fill="#11233b" d="m343.086 212.363.39 29.93-30.03-22.746Zm0 0"/><path fill="#b8bcc5" d="m345.488 129.21-12.238 10.735-3.738-21.629Zm0 0"/><path fill="#081d3c" d="m351.328 181.52-33.144-16.25 11.57-13.97Zm0 0"/><path fill="#fefcf6" d="m306.719 119.61 13.86-20.833 8.933 19.54Zm0 0"/><path fill="#081d3b" d="m369.633 111.75-9.418 6.29-.305-18.435ZM358.313 57.68l-21.66 18.742-.102-22.602Zm0 0"/><path fill="#fefcf4" d="m277.43 63.828 22.535-9.008 8.496 19.395Zm0 0"/><path fill="#081d3c" d="M30.645 75.574 19.328 95.06 0 70.019Zm0 0"/><path fill="#0a1e3d" d="m188.895 15.984.03 3.844-22.44 1.461Zm0 0"/><path fill="#f7f6f3" d="m188.926 19.828-21.45 8.582-.992-7.12Zm0 0"/><path fill="#081d3c" d="m202.34 18.836-13.414.992-.031-3.844Zm0 0"/><path fill="#e7c346" d="m116.707 101.215 1.625-41.2 22.098 10.946Zm0 0"/><path fill="#fcdf81" d="m149.578 86.434-32.871 14.78 23.723-30.253Zm0 0"/><path fill="#1a2a39" d="m87.012 45.305.758 2.5-1.739-1.032Zm0 0"/><path fill="#cbb258" d="m87.77 47.805-.758-2.5 10.933-2.797Zm0 0"/><path fill="#deb119" d="M97.86 70.566 87.77 47.805l10.175-5.297Zm0 0"/><path fill="#081d3b" d="M128.188 231.066 106.02 249.22l-11.97-19.903Zm0 0"/><path fill="#daab08" d="M106.02 249.219 78 252.086l16.05-22.77Zm0 0"/><path fill="#48482c" d="m106.02 249.219 6.582 24.55L78 252.087Zm0 0"/><path fill="#0c203a" d="m112.602 273.77-6.582-24.551 28.527 20.586Zm0 0"/><path fill="#46472c" d="m106.02 249.219 33.035 6.449-4.508 14.137Zm0 0"/><path fill="#d2a60a" d="m139.055 255.668-33.035-6.45 22.168-18.152Zm0 0"/><path fill="#fef8e3" d="m139.746 316.66-18.43-18.406 25.465.129Zm0 0"/><path fill="#d6bd65" d="m146.523 334.043 34.235-.36-32.617 15.258Zm0 0"/><path fill="#c6b576" d="m109.71 340.715 36.813-6.672 1.618 14.898Zm0 0"/><path fill="#122439" d="m134.547 269.805-3.938 14.082-18.007-10.117Zm0 0"/><path fill="#091e3c" d="m82.39 345.262 15.005-3.035 10.914 16.14Zm0 0"/><path fill="#091e3c" d="m97.395 342.227 12.316-1.512-1.402 17.652Zm0 0"/><path fill="#081d3b" d="m86.086 334.227 11.309 8-15.004 3.035Zm0 0"/><path fill="#eccf6c" d="m90.406 321.832-4.32 12.395-26.172-18.61Zm0 0"/><path fill="#fef5d9" d="m72.176 298.926 18.23 22.906-30.492-6.215Zm0 0"/><path fill="#fef8e4" d="m90.406 321.832-18.23-22.906 25.254.097Zm0 0"/><path fill="#fef4d3" d="m90.406 321.832 7.024-22.809 6.73 20.946Zm0 0"/><path fill="#fad65c" d="m-.008 267.508 53.028-10.645-8.333 26.242Zm0 0"/><path fill="#081d3c" d="m-.016 310.203.008-42.695 44.696 15.597Zm0 0"/><path fill="#081d3b" d="m0 225.012 43.344-8.809 9.676 40.66Zm0 0"/><path fill="#091d3b" d="M-.008 267.508 0 225.012l53.02 31.851Zm0 0"/><path fill="#0b1f3b" d="m312.8 265.195 4.216 11.75-28.723.84Zm0 0"/><path fill="#48482e" d="m330.324 265.55-17.523-.355.644-45.648Zm0 0"/><path fill="#e6b510" d="m330.324 265.55-16.879-46.003 30.032 22.746Zm0 0"/><path fill="#fdf9e9" d="m331.434 308.906 4.777 14.953-17.746-8.675Zm0 0"/><path fill="#fef9e6" d="m262.184 333.004-1.672-19.527 29.183-9.836Zm0 0"/><path fill="#fef1c7" d="m262.184 333.004-12.75-12.172 11.078-7.355Zm0 0"/><path fill="#fef5d8" d="m262.184 333.004 27.511-29.363-4.71 41.148Zm0 0"/><path fill="#e3cc7b" d="m255.285 349.398 6.899-16.394 22.8 11.785Zm0 0"/><path fill="#fcd654" d="m260.512 313.477-18.7-4.735 12.72-16.906Zm0 0"/><path fill="#e5be36" d="m249.434 320.832-7.621-12.09 18.699 4.735Zm0 0"/><path fill="#fed754" d="m241.813 308.742-20.586-17.097 33.304.19Zm0 0"/><path fill="#0b1f3b" d="m221.227 291.645 20.585 17.097-26.253 4.602Zm0 0"/><path fill="#0a1f3b" d="m163.008 242.223-7.66-9.97 32.125 2.048Zm0 0"/><path fill="#dbab08" d="m181.645 261.98 24.457-18.925 13.843 21.492Zm0 0"/><path fill="#eab605" d="m347.172 263.813-9.242 22.503-7.606-20.765Zm0 0"/><path fill="#e9b505" d="m347.172 263.813 8.844 22.085-18.086.418Zm0 0"/><path fill="#fcc611" d="m347.172 263.813 21.738 1.277-12.894 20.808Zm0 0"/><path fill="#e3cd81" d="m211.258 338.355 25.219-6.66-22.418 19.578Zm0 0"/><path fill="#e5cf84" d="m236.477 331.695 18.808 17.703-41.226 1.875Zm0 0"/><path fill="#fbe391" d="m236.477 331.695-25.22 6.66 4.302-25.011Zm0 0"/><path fill="#ecd27b" d="m236.477 331.695 25.707 1.309-6.899 16.394Zm0 0"/><path fill="#fdf2cc" d="m262.184 333.004-25.707-1.309 12.957-10.863Zm0 0"/><path fill="#feefbe" d="m241.813 308.742-5.336 22.953-20.918-18.351Zm0 0"/><path fill="#fefaee" d="m236.477 331.695 5.335-22.953 7.622 12.09Zm0 0"/><path fill="#fdf9eb" d="m225.133 16.527 37.91 6.649-23.27 13.422Zm0 0"/><path fill="#081d3c" d="m263.043 23.176-37.91-6.649 59.894-3.113Zm0 0"/><path fill="#081d3b" d="m302.59 0-77.457 16.527 6.12-10.144ZM225.133 16.527 302.59 0l-17.563 13.414Zm0 0"/><path fill="#fef9e9" d="m277.43 63.828-28.032-6.367 12.645-14.18Zm0 0"/><path fill="#fef7e1" d="m168.953 136.129 3.766-20.863 18.66 21.023Zm0 0"/><path fill="#0a1e3c" d="m267.555 132.164-4.211-5.48 20.18-2.559Zm0 0"/><path fill="#5c572c" d="m230.625 151.75 23.11-6.031-10.989 19.691Zm0 0"/><path fill="#fefbf0" d="m263.344 126.684-36.406 4.664-.95-12.301Zm0 0"/><path fill="#091d3b" d="m226.938 131.348 36.406-4.664-9.61 19.035Zm0 0"/><path fill="#fadc79" d="m180 69.426 35.71-16.946 10.278 66.567Zm0 0"/><path fill="#fefbf1" d="m263.344 126.684-5.106-30.325 23.242 18.07Zm0 0"/><path fill="#fefaed" d="m269.516 162.867 13.804-.847-6.175 13.96Zm0 0"/><path fill="#fdf0c4" d="m283.32 162.02 14.407 11.199-20.582 2.761Zm0 0"/><path fill="#091d3b" d="m297.727 173.219 10.511 12.851-23.558 8.438Zm0 0"/><path fill="#fec300" d="m344.059 188.121 11.687 7.457-12.66 16.785Zm0 0"/><path fill="#081d3c" d="m306.719 119.61-5.41 16.64-17.786-12.125Zm0 0"/><path fill="#babec6" d="m333.25 139.945-14.941-9.773 11.203-11.856Zm0 0"/><path fill="#0d213f" d="m318.309 130.172 11.445 21.129-28.445-15.051Zm0 0"/><path fill="#091e3d" d="m329.754 151.3-11.445-21.128 14.941 9.773Zm0 0"/><path fill="#959ca9" d="m318.309 130.172-11.59-10.563 22.793-1.293Zm0 0"/><path fill="#081d3c" d="m306.719 119.61 11.59 10.562-17 6.078Zm0 0"/><path fill="#102441" d="m333.25 139.945 9.145 7.102-12.641 4.254Zm0 0"/><path fill="#b7bbc4" d="m342.395 147.047-9.145-7.102 12.238-10.734Zm0 0"/><path fill="#081d3b" d="m329.754 151.3 12.64-4.253 22.848 31.77Zm0 0"/><path fill="#b8bcc5" d="m342.395 147.047 3.093-17.836 12.739 8.457Zm0 0"/><path fill="#081d3b" d="m318.184 165.27 33.144 16.25-7.27 6.601ZM318.184 165.27l-9.946 20.8-10.511-12.851Zm0 0"/><path fill="#081d3b" d="m318.184 165.27 25.875 22.851-35.82-2.05Zm0 0"/><path fill="#c8cbd1" d="m343.742 112.508 1.746 16.703-15.976-10.895Zm0 0"/><path fill="#dfe1e5" d="m343.742 112.508 16.473 5.531-14.727 11.172Zm0 0"/><path fill="#081d3c" d="m360.215 118.04-16.473-5.532 16.168-12.903Zm0 0"/><path fill="#fefdf8" d="M306.719 119.61 294.32 95.433l26.258 3.343Zm0 0"/><path fill="#fefbf2" d="m294.32 95.434-16.89-31.606 31.03 10.387Zm0 0"/><path fill="#fefcf6" d="m320.578 98.777-26.258-3.343 14.14-21.22Zm0 0"/><path fill="#fceaac" d="M94.695 125.453 71.84 95.07l44.867 6.145Zm0 0"/><path fill="#fcf3d6" d="m94.695 125.453 25.16 1.668-20.242 14.703Zm0 0"/><path fill="#fdf3d0" d="m119.855 127.121-25.16-1.668 22.012-24.238Zm0 0"/><path fill="#fece2d" d="m62.973 70.871 8.867 24.2-32.38 1.972Zm0 0"/><path fill="#fcdd75" d="M62.973 70.871 39.46 97.043 60.047 68.23Zm0 0"/><path fill="#e9e2cb" d="M87.77 47.805 62.973 70.87l-2.926-2.64Zm0 0"/><path fill="#081d3c" d="m19.328 95.059 20.133 1.984-12.313 47.809Zm0 0"/><path fill="#081d3c" d="m39.46 97.043-20.132-1.984 11.317-19.485Zm0 0"/><path fill="#fbf8ef" d="m202.992 27.7-14.066-7.872 13.414-.992Zm0 0"/><path fill="#fcfaf4" d="m202.992 27.7-.652-8.864 22.793-2.309Zm0 0"/><path fill="#fec405" d="m239.773 36.598-36.78-8.899 22.14-11.172Zm0 0"/><path fill="#fecd2c" d="m188.926 19.828-6.563 20.805-14.886-12.223Zm0 0"/><path fill="#fecd2c" d="m202.992 27.7-20.629 12.933 6.563-20.805Zm0 0"/><path fill="#806e1e" d="m154.934 286.46-3.332-21.78 30.043-2.7Zm0 0"/><path fill="#081d3b" d="m187.977 280.316-10.88 14.063-22.163-7.918Zm0 0"/><path fill="#87731d" d="m187.977 280.316 31.968-15.77 1.282 27.099Zm0 0"/><path fill="#081d3b" d="m177.098 294.379 10.879-14.063 33.25 11.329Zm0 0"/><path fill="#48482c" d="m187.977 280.316-6.332-18.336 38.3 2.567Zm0 0"/><path fill="#0e213a" d="m181.645 261.98 6.332 18.336-33.043 6.145Zm0 0"/><path fill="#fef8e3" d="m162.39 311.602 14.708-17.223 3.66 39.305Zm0 0"/><path fill="#6f6323" d="m130.61 283.887 24.324 2.574-8.153 11.922Zm0 0"/><path fill="#122439" d="m154.934 286.46-24.325-2.573 3.938-14.082Zm0 0"/><path fill="#0a1e3b" d="m97.395 342.227 2.242-8.184 10.074 6.672Zm0 0"/><path fill="#d1c28b" d="m99.637 334.043 14.457-6.434-4.383 13.106Zm0 0"/><path fill="#fcf2ce" d="m114.094 327.61-14.457 6.433 4.523-14.074Zm0 0"/><path fill="#091e3b" d="m99.637 334.043-2.242 8.184-11.31-8Zm0 0"/><path fill="#fdefc2" d="m99.637 334.043-9.23-12.211 13.753-1.863Zm0 0"/><path fill="#e5c761" d="m90.406 321.832 9.23 12.211-13.55.184Zm0 0"/><path fill="#ccb252" d="m114.094 327.61 32.43 6.433-36.813 6.672Zm0 0"/><path fill="#fcf5de" d="m146.523 334.043-32.43-6.434 25.653-10.949Zm0 0"/><path fill="#fcf4da" d="m121.316 298.254-7.222 29.355-9.934-7.64Zm0 0"/><path fill="#fef7e0" d="m139.746 316.66-25.652 10.95 7.222-29.356Zm0 0"/><path fill="#0f223a" d="m317.016 276.945-25.36 8.82-3.363-7.98Zm0 0"/><path fill="#434531" d="m288.293 277.785 3.363 7.98-37.125 6.07Zm0 0"/><path fill="#bc9710" d="m337.93 286.316-20.914-9.37 13.308-11.395Zm0 0"/><path fill="#0e213a" d="m330.324 265.55-13.308 11.395-4.215-11.75Zm0 0"/><path fill="#d2a60b" d="m316.91 287.223-25.254-1.457 25.36-8.82Zm0 0"/><path fill="#fbc30a" d="m291.656 285.766 25.254 1.457 1.555 27.96Zm0 0"/><path fill="#fdd03c" d="m316.91 287.223 14.524 21.683-12.97 6.278Zm0 0"/><path fill="#393e30" d="m181.645 261.98-18.637-19.757 24.465-7.922Zm0 0"/><path fill="#1a2937" d="m206.102 243.055-24.457 18.925 5.828-27.68Zm0 0"/><path fill="#0e213a" d="m343.477 242.293 3.695 21.52-16.848 1.738Zm0 0"/><path fill="#6b6126" d="m347.172 263.813-3.695-21.52 21.39-3.52Zm0 0"/><path fill="#d3ac27" d="m361.387 249.734-14.215 14.078 17.695-25.039Zm0 0"/><path fill="#f2bb04" d="m368.91 265.09-21.738-1.277 14.215-14.079Zm0 0"/><path fill="#fefaea" d="m258.238 96.36 19.192-32.532 16.89 31.606Zm0 0"/><path fill="#fdf7e3" d="m258.238 96.36-42.527-43.88 33.687 4.98Zm0 0"/><path fill="#fde698" d="m225.988 119.047.95 12.3-35.56 4.942Zm0 0"/><path fill="#fceebf" d="m172.719 115.266 53.27 3.78-34.61 17.243Zm0 0"/><path fill="#f0d57a" d="m180 69.426 45.988 49.62-53.27-3.78Zm0 0"/><path fill="#081d3b" d="m267.555 132.164-13.82 13.555 9.609-19.035Zm0 0"/><path fill="#9d8219" d="m253.734 145.719 13.82-13.555 3.255 13.559Zm0 0"/><path fill="#243035" d="m223.219 168.793-32.727 3.754-.203-18.281Zm0 0"/><path fill="#fef9ea" d="m190.492 172.547 32.727-3.754 1.922 11.332Zm0 0"/><path fill="#fdf9ec" d="m223.219 168.793 19.527-3.383-17.605 14.715Zm0 0"/><path fill="#595634" d="m223.219 168.793 7.406-17.043 12.121 13.66Zm0 0"/><path fill="#081d3b" d="m226.938 131.348 3.687 20.402-40.336 2.516Zm0 0"/><path fill="#4a4a2c" d="m230.625 151.75-7.406 17.043-32.93-14.527Zm0 0"/><path fill="#fde080" d="m180 69.426-7.281 45.84-23.14-28.832Zm0 0"/><path fill="#f8df89" d="m180 69.426-30.422 17.008-9.148-15.473Zm0 0"/><path fill="#f3eedb" d="m270.809 145.723 12.511 16.297-13.804.847Zm0 0"/><path fill="#081d3b" d="m301.309 136.25-30.5 9.473 12.714-21.598Zm0 0"/><path fill="#081d3b" d="m270.809 145.723-3.254-13.559 15.968-8.039ZM368.512 211.04 384 205.05l-19.133 33.723Zm0 0"/><path fill="#ecc12f" d="m343.477 242.293 25.035-31.254-3.645 27.734Zm0 0"/><path fill="#43452e" d="m368.512 211.04-25.426 1.323 12.66-16.785Zm0 0"/><path fill="#e8c03a" d="m368.512 211.04-25.035 31.253-.391-29.93Zm0 0"/><path fill="#68602c" d="m329.754 151.3-11.57 13.97-16.875-29.02Zm0 0"/><path fill="#feedb6" d="m94.695 125.453-26.496-5.45 3.64-24.933Zm0 0"/><path fill="#feeeba" d="M68.2 120.004 39.46 97.043l32.38-1.973Zm0 0"/><path fill="#fbf3d5" d="m97.86 70.566-34.887.305L87.77 47.805Zm0 0"/><path fill="#d8aa0b" d="m62.973 70.871 34.886-.305L71.84 95.07Zm0 0"/><path fill="#f4cb41" d="m71.84 95.07 26.02-24.504 18.847 30.649Zm0 0"/><path fill="#feeaa8" d="M215.71 52.48 202.993 27.7l36.781 8.898Zm0 0"/><path fill="#fee182" d="m215.71 52.48-33.347-11.847 20.63-12.934Zm0 0"/><path fill="#736521" d="m134.547 269.805 17.055-5.125 3.332 21.78Zm0 0"/><path fill="#0a1e3b" d="m155.348 232.254-16.293 23.414-10.868-24.602Zm0 0"/><path fill="#081d3b" d="m152.41 224.074 2.938 8.18-27.16-1.188Zm0 0"/><path fill="#e2bb36" d="M23.035 348.336-.004 369.187v-33.925Zm0 0"/><path fill="#655c25" d="m154.934 286.46 3.636 10.532-11.789 1.39Zm0 0"/><path fill="#595428" d="m177.098 294.379-18.528 2.613-3.636-10.531Zm0 0"/><path fill="#59552d" d="m162.39 311.602-3.82-14.61 18.528-2.613Zm0 0"/><path fill="#faf5e5" d="m146.523 334.043 15.868-22.441 18.367 22.082Zm0 0"/><path fill="#fdf6df" d="m162.39 311.602-15.867 22.441-6.777-17.383Zm0 0"/><path fill="#fdf7e1" d="m162.39 311.602-22.644 5.058 7.035-18.277Zm0 0"/><path fill="#7c6e28" d="m158.57 296.992 3.82 14.61-15.609-13.22Zm0 0"/><path fill="#fef3cf" d="m316.91 287.223 21.02-.907-6.496 22.59Zm0 0"/><path fill="#f5c00c" d="m337.93 286.316-21.02.907.106-10.278Zm0 0"/><path fill="#fdf9e9" d="M277.43 63.828 258.238 96.36l-8.84-38.898Zm0 0"/><path fill="#fefaed" d="m249.398 57.46-9.625-20.862 22.27 6.683Zm0 0"/><path fill="#fef8e4" d="m215.71 52.48 24.063-15.882 9.625 20.863Zm0 0"/><path fill="#091d3b" d="m230.625 151.75-3.687-20.402 26.796 14.37Zm0 0"/><path fill="#f1eddc" d="m270.809 145.723 25.199 7.754-12.688 8.543Zm0 0"/><path fill="#081d3b" d="m296.008 153.477-25.2-7.754 30.5-9.473Zm0 0"/><path fill="#081d3c" d="m318.184 165.27-22.176-11.793 5.3-17.227Zm0 0"/><path fill="#fbf1cf" d="m283.32 162.02 12.688-8.543 1.719 19.742Zm0 0"/><path fill="#081d3c" d="m296.008 153.477 22.176 11.793-20.457 7.949Zm0 0"/><path fill="#091e3c" d="m73.07 142.281 8.102 26.582-20.328-22.054Zm0 0"/><path fill="#feedb3" d="m73.07 142.281-4.87-22.277 26.495 5.45Zm0 0"/><path fill="#585329" d="m81.172 168.863-8.102-26.582 26.543-.457Zm0 0"/><path fill="#fdf5d8" d="m73.07 142.281 21.625-16.828 4.918 16.371Zm0 0"/><path fill="#e3b106" d="m151.602 264.68 11.406-22.457 18.637 19.757Zm0 0"/><path fill="#fbc202" d="m42.652 324.953-19.617 23.383-23.039-13.074Zm0 0"/><path fill="#fef0c3" d="m57.078 128.91 15.992 13.371-12.226 4.528Zm0 0"/><path fill="#fef2cc" d="m73.07 142.281-15.992-13.37 11.121-8.907Zm0 0"/><path fill="#fdf1c9" d="m27.148 144.852 29.93-15.942 3.766 17.899Zm0 0"/><path fill="#feefbc" d="m39.46 97.043 17.618 31.867-29.93 15.942Zm0 0"/><path fill="#feecae" d="m68.2 120.004-11.122 8.906-17.617-31.867Zm0 0"/><path fill="#e9b505" d="m139.055 255.668 23.953-13.445-11.406 22.457Zm0 0"/><path fill="#514e2a" d="m134.547 269.805 4.508-14.137 12.547 9.012Zm0 0"/><path fill="#0b1f3b" d="m163.008 242.223-23.953 13.445 16.293-23.414Zm0 0"/></svg>