<svg xmlns="http://www.w3.org/2000/svg" width="512" height="512" viewBox="0 0 384 384"><path fill="#88a9ba" d="M26.953 223.441 0 218.7v-23.812ZM26.953 223.441 0 194.887l17.418-1.676Zm0 0"/><path fill="#4a2d2c" d="m277.258 0 32.566-.016-32.793 10.125Zm0 0"/><path fill="#4a7049" d="m107.523 167.027-57.472 22.22-.203-1.009Zm0 0"/><path fill="#4a2d2c" d="m215.953 153.21-35.941 2.056 18.43-20.739Zm0 0"/><path fill="#de7b52" d="m180.012 155.266 35.941-2.055-41.082 16.05Zm0 0"/><path fill="#dbaa8a" d="m293.371 372.883-57.223 11.125.688-13.637Zm0 0"/><path fill="#4a2d2c" d="M230.18 0h21.734L239.27 11.89ZM384.043 153.902l-7.293-3.996 7.3-14.57Zm0 0"/><path fill="#f6c5b4" d="M292.723 46.984 284.168 27.2l15.668 12.18Zm0 0"/><path fill="#88a9b9" d="M15.738 157.742 0 194.887v-48.68Zm0 0"/><path fill="#4a2d2c" d="m114.828 8.273 65.61 11.954-33.278 5.043Zm0 0"/><path fill="#4a2d2c" d="M114.828 8.273 113.734 0l66.704 20.227Zm0 0"/><path fill="#4a2d2c" d="M114.828 8.273 69.426 23.508 113.734 0ZM32.805 55.023l36.62-31.515-13.792 34.71Zm0 0"/><path fill="#4a2d2c" d="M69.426 23.508 32.805 55.023 0 0Zm0 0"/><path fill="#9eb380" d="m210.648 195.2-.355 5.218-20.461-2.836Zm0 0"/><path fill="#de7b52" d="m107.418 108.582 15.422 32.106-24.344 1.484Zm0 0"/><path fill="#f6c5b4" d="m123.426 51.637-15.61-.38 14.844-18.062Zm0 0"/><path fill="#dd7a51" d="m107.523 167.027-29.511-2.699 20.484-22.156Zm0 0"/><path fill="#a34008" d="m122.84 140.688-15.317 26.34-9.027-24.856Zm0 0"/><path fill="#dd7a51" d="m122.84 140.688 38.293 12.855-26.461 5.43Zm0 0"/><path fill="#dcc0a5" d="m56.57 372.238-7.402-18.406 26.102-3.61Zm0 0"/><path fill="#55400f" d="m50.672 331.379-1.504 22.453-11.41-16.656Zm0 0"/><path fill="#5e4d1d" d="m75.27 350.223-26.102 3.609 1.504-22.453Zm0 0"/><path fill="#4a714a" d="m40.727 219.953-13.774 3.488-9.535-30.23Zm0 0"/><path fill="#f6c5b4" d="m-.004 312.973 10.43.308L.004 333.223ZM10.426 313.281l8.281-41.136 9.852 17.199Zm0 0"/><path fill="#f6c5b4" d="m10.426 313.281-10.43-.308.008-34.774Zm0 0"/><path fill="#4a2d2c" d="m36.25 320.41-25.824-7.129 18.133-23.937Zm0 0"/><path fill="#9eb381" d="m210.293 200.418.355-5.219 37.747 5.106Zm0 0"/><path fill="#dd7a51" d="m210.293 200.418 38.102-.113-12.57 18.53ZM215.953 153.21l1.578 15.735-42.66.317Zm0 0"/><path fill="#9eb481" d="m210.648 195.2 6.883-26.255 30.864 31.36Zm0 0"/><path fill="#d58257" d="m174.871 169.262 42.66-.317-27.699 28.637Zm0 0"/><path fill="#9db380" d="m217.531 168.945-6.883 26.254-20.816 2.383Zm0 0"/><path fill="#4a714a" d="m307.059 223.555-29.176 17.28-1.801-19.593Zm0 0"/><path fill="#4a7049" d="m223.281 270.676 32.957-13.496-2.246 26.98Zm0 0"/><path fill="#4a714a" d="m284.598 264.336-28.36-7.156 21.645-16.344Zm0 0"/><path fill="#4a7049" d="m256.238 257.18 28.36 7.156-30.606 19.824Zm0 0"/><path fill="#4a714a" d="m253.992 284.16 30.606-19.824 5.191 22.719Zm0 0"/><path fill="#4a2d2c" d="m299.617 383.992 35.953-15.094L344.785 384Zm0 0"/><path fill="#9eb481" d="m256.066 295.055-2.074-10.895 35.797 2.895Zm0 0"/><path fill="#9eb481" d="m294.172 302.578-38.106-7.523 33.723-8Zm0 0"/><path fill="#f5c5b4" d="m236.148 384.008 57.223-11.125-1.957 11.12Zm0 0"/><path fill="#dabfa3" d="m335.57 368.898-17.191-20.171 24.879-5.598Zm0 0"/><path fill="#4a2d2c" d="m279.121 347.016 14.25 25.867-56.535-2.512Zm0 0"/><path fill="#9eb381" d="m335.926-.004-16.828 14.067-9.274-14.079Zm0 0"/><path fill="#9eb380" d="m330.695 39.508-11.597-25.446L335.926-.004Zm0 0"/><path fill="#4a2d2c" d="M224.113 16.809 190.102 0h40.078ZM224.113 16.809 230.18 0l9.09 11.89Zm0 0"/><path fill="#dd7b52" d="m174.32 102.219-51.48 38.469-15.422-32.106Zm0 0"/><path fill="#edc1ac" d="m269.074 25.121 15.094 2.078-6.324 7.613Zm0 0"/><path fill="#4a2d2c" d="m284.168 27.2-15.094-2.079 7.957-15.012ZM284.168 27.2l18.055-4.403-2.387 16.582Zm0 0"/><path fill="#4a2d2c" d="m302.223 22.797-18.055 4.402-7.137-17.09Zm0 0"/><path fill="#4a2d2c" d="m309.824-.016-7.601 22.813-25.192-12.688Zm0 0"/><path fill="#9eb481" d="m319.098 14.063-16.875 8.734 7.601-22.813Zm0 0"/><path fill="#4a2d2c" d="M251.914 0h25.344l-.227 10.11Zm0 0"/><path fill="#9db380" d="m376.75 149.906-6.602-24.71 13.903 10.14Zm0 0"/><path fill="#9eb481" d="m370.148 125.195 6.602 24.711-27.32-18.847Zm0 0"/><path fill="#9db380" d="m359.09 116.309 11.058 8.886-20.718 5.864Zm0 0"/><path fill="#4a2d2c" d="m370.148 125.195-11.058-8.886 24.91-7.903Zm0 0"/><path fill="#497049" d="m384.043 153.902-.035 41.157-13.375-32.801Zm0 0"/><path fill="#f6c5b4" d="m304.184 116.773-14.914 5.422 12.39-19.945Zm0 0"/><path fill="#497049" d="m384 78.516-20.34-3.668L384 37.91Zm0 0"/><path fill="#f6c5b4" d="m292.723 46.984 7.113-7.605 19.14 16.316ZM284.168 27.2l8.555 19.784-14.88-12.172Zm0 0"/><path fill="#4a2d2c" d="m15.516 143.707.222 14.035L0 146.207ZM32.805 55.023 25.77 85.277 0 70.336Zm0 0"/><path fill="#f6c5b4" d="m123.426 51.637-.766-18.442 9.742 8.516Zm0 0"/><path fill="#ebbca6" d="m132.402 41.71-9.742-8.515 24.5-7.925Zm0 0"/><path fill="#4a2d2c" d="m122.66 33.195-7.832-24.922L147.16 25.27ZM69.426 23.508l10.683 20.64-24.476 14.07ZM0 0l32.805 55.023L0 70.336ZM113.734 0 69.426 23.508 0 0Zm0 0"/><path fill="#4a7149" d="m75.55 220.746 23.59 3.598-24.581 4.824Zm0 0"/><path fill="#9e3c04" d="m107.523 167.027-14.015 29.297-43.457-7.078Zm0 0"/><path fill="#de7b52" d="M93.508 196.324 75.55 220.746l-25.5-31.5ZM75.55 220.746l17.958-24.422 5.633 28.02Zm0 0"/><path fill="#4a7049" d="m111.645 271.402-25.106-5.914 7.66-17.492Zm0 0"/><path fill="#4a2d2c" d="m210.293 200.418 25.531 18.418-48.222-.008Zm0 0"/><path fill="#dd7a51" d="m210.293 200.418-22.691 18.41 2.23-21.246ZM187.602 218.828l-31.973 4.637.082-30.496Zm0 0"/><path fill="#4a714a" d="m126.219 241.86 2.347-16.563 27.063-1.832Zm0 0"/><path fill="#da774e" d="m134.672 158.973-27.149 8.054 15.317-26.34Zm0 0"/><path fill="#dd7a51" d="m161.133 153.543 18.879 1.723-5.14 13.996Zm0 0"/><path fill="#4a714a" d="m86.54 265.488 14.315 26.246-22.78-19.867Zm0 0"/><path fill="#f6c5b5" d="m70.781 284.777 8.196 17.86-21.278 9.914Zm0 0"/><path fill="#4a714a" d="m70.781 284.777-20.035-18.586 27.328 5.676Zm0 0"/><path fill="#9eb380" d="m100.855 291.734-30.074-6.957 7.293-12.91Zm0 0"/><path fill="#f6c5b4" d="m70.781 284.777 30.074 6.957-21.878 10.903ZM49.168 353.832l7.402 18.406-16.707-1.367Zm0 0"/><path fill="#ecc1ac" d="m138.395 373.684 24.23 10.328-28.047-.012Zm0 0"/><path fill="#4a2d2c" d="m52.824 384.004 36.88-12.547-.2 12.547Zm0 0"/><path fill="#4a2d2c" d="m89.703 371.457-36.879 12.547 3.746-11.766Zm0 0"/><path fill="#4b2e2d" d="m89.703 371.457 28.586 12.555-28.785-.008Zm0 0"/><path fill="#ecc3ae" d="m86.703 365.168-30.133 7.07 18.7-22.015Zm0 0"/><path fill="#edc3af" d="m86.703 365.168 3 6.289-33.133.781Zm0 0"/><path fill="#cdbc9b" d="m89.703 371.457-3-6.289 23.984-8.871Zm0 0"/><path fill="#a4b383" d="m128.871 374.996-18.184-18.7 29.602-6.394Zm0 0"/><path fill="#edbfaa" d="m128.871 374.996 5.707 9.004-16.289.012Zm0 0"/><path fill="#f5c5b3" d="m89.703 371.457 39.168 3.54-10.582 9.015Zm0 0"/><path fill="#959564" d="m128.871 374.996-39.168-3.539 20.984-15.16Zm0 0"/><path fill="#4a714a" d="m49.848 188.238-32.43 4.973 15.402-24.895Zm0 0"/><path fill="#89a9ba" d="m17.418 193.21-1.68-35.468 17.082 10.574Zm0 0"/><path fill="#88a9ba" d="m15.738 157.742 1.68 35.469L0 194.887Zm0 0"/><path fill="#4a714a" d="m40.727 219.953-23.309-26.742 32.633-3.965Zm0 0"/><path fill="#4a7049" d="m17.418 193.21 32.43-4.972.203 1.008Zm0 0"/><path fill="#dd7a51" d="m75.55 220.746-20.843-4.656-4.656-26.844Zm0 0"/><path fill="#4a714a" d="m61.54 244.758-6.833-28.668 19.852 13.078Zm0 0"/><path fill="#4a7049" d="m54.707 216.09 20.844 4.656-.992 8.422Zm0 0"/><path fill="#4a714a" d="m99.14 224.344-4.94 23.652-19.641-18.828ZM86.54 265.488l-25-20.73 32.66 3.238Zm0 0"/><path fill="#4a7049" d="m94.2 247.996-32.66-3.238 13.019-15.59ZM50.746 266.191l10.793-21.433 16.535 27.11ZM61.54 244.758l25 20.73-8.466 6.38Zm0 0"/><path fill="#4a2d2b" d="m36.25 320.41 21.45-7.86-7.028 18.829Zm0 0"/><path fill="#9eb481" d="m277.426 172.55 20.281 3.427-12.336 18.027Zm0 0"/><path fill="#9f3c04" d="m297.707 175.977 7.102 14.945-19.438 3.082Zm0 0"/><path fill="#4a714a" d="m256.238 257.18-32.957 13.496 12.543-51.84Zm0 0"/><path fill="#4a714a" d="m235.824 218.836 42.059 22-21.645 16.344Zm0 0"/><path fill="#dd7a51" d="m304.664 218.148-19.293-24.144 19.438-3.082Zm0 0"/><path fill="#dd7a51" d="m285.371 194.004 19.293 24.144-28.582 3.094Zm0 0"/><path fill="#4a714a" d="m304.664 218.148 2.395 5.407-30.977-2.313Zm0 0"/><path fill="#4a7049" d="m223.281 270.676-3.047 17.996-11.793-1.887Zm0 0"/><path fill="#4a714a" d="m220.234 288.672 3.047-17.996 30.711 13.484Zm0 0"/><path fill="#f6c5b4" d="m179.574 295.117 32.992 20.903-16.484 12.84Zm0 0"/><path fill="#4a2d2c" d="M369.629 267.27 384 272.324l-21.46 21.918Zm0 0"/><path fill="#4a7149" d="m369.629 267.27 14.367-16.954.004 22.008Zm0 0"/><path fill="#9eb381" d="m383.996 250.316-26.324-2.699 26.3-21.394Zm0 0"/><path fill="#9eb481" d="m341.43 286.629 28.199-19.36-7.09 26.973Zm0 0"/><path fill="#9eb481" d="m346.473 297.207-5.043-10.578 21.11 7.613Zm0 0"/><path fill="#4a2d2c" d="m371.559 310.035 12.453 8.453-20.38 11.63Zm0 0"/><path fill="#4a2d2b" d="m384 272.324-12.441 37.711-9.02-15.793Zm0 0"/><path fill="#dd7c53" d="m343.258 343.129-3.395-17.996 23.77 4.984Zm0 0"/><path fill="#eec3af" d="m335.57 368.898 7.688-25.77 17.097 16.036Zm0 0"/><path fill="#f6c5b4" d="m362.54 294.242-8.235 15.82-7.832-12.855Zm0 0"/><path fill="#de7b52" d="m294.172 302.578 17.215 12.504-32.266 31.934Zm0 0"/><path fill="#4a2d2c" d="m344.785 384-9.215-15.102 24.785-9.734Zm0 0"/><path fill="#4a2d2c" d="M384 384h-39.215l15.57-24.836Zm0 0"/><path fill="#eec4af" d="m360.355 359.164-17.097-16.035 20.375-13.012Zm0 0"/><path fill="#f4c4b3" d="m293.371 372.883 6.246 11.11-8.203.01Zm0 0"/><path fill="#f6c5b4" d="m299.617 383.992-6.246-11.11 42.2-3.984Zm0 0"/><path fill="#d3bea0" d="m293.371 372.883 25.008-24.156 17.191 20.171Zm0 0"/><path fill="#dd7a51" d="m311.387 315.082-.145 20.207-32.12 11.727Zm0 0"/><path fill="#4a714a" d="m302.223 22.797 28.472 16.71-30.86-.128Zm0 0"/><path fill="#9eb381" d="m330.695 39.508-28.472-16.711 16.875-8.734Zm0 0"/><path fill="#4a2d2c" d="m224.113 16.809-29.922-1.594L190.101 0Zm0 0"/><path fill="#de7b52" d="m174.32 102.219-5.593 34.64-45.887 3.828Zm0 0"/><path fill="#4a2d2c" d="m168.727 136.86-7.594 16.683-38.293-12.856ZM180.012 155.266l-11.285-18.407 29.714-2.332Zm0 0"/><path fill="#4a2d2c" d="m161.133 153.543 7.594-16.684 11.285 18.407Zm0 0"/><path fill="#9fb27f" d="m269.059 145.941 8.441 11.18-18.918.578Zm0 0"/><path fill="#de7b52" d="m217.844 77.496-30.035-17.93 29.507-5.457Zm0 0"/><path fill="#4a2d2c" d="M370.148 125.195 384 108.406l.05 26.93Zm0 0"/><path fill="#9db280" d="m376.75 149.906-6.117 12.352-21.203-31.2Zm0 0"/><path fill="#9eb481" d="m370.633 162.258-35.324-22.442 14.12-8.757Zm0 0"/><path fill="#4a7049" d="m370.633 162.258 6.117-12.352 7.293 3.996Zm0 0"/><path fill="#4a714a" d="m370.633 162.258-35.664-4.485.34-17.957Zm0 0"/><path fill="#4a7049" d="m384.008 195.059-29.043-10.668 15.668-22.133Zm0 0"/><path fill="#497049" d="m354.965 184.39-19.996-26.617 35.664 4.485Zm0 0"/><path fill="#de7b52" d="m304.809 190.922 32.53 3.703-32.675 23.523Zm0 0"/><path fill="#4a2d2c" d="M384 78.516v29.89L361.723 93.47ZM384 78.516l-22.277 14.953 1.937-18.621ZM361.723 93.469l-10.836 12.21-7.387-4.945Zm0 0"/><path fill="#4a7049" d="m336.793 77.93-5.7-31.563 32.567 28.48Zm0 0"/><path fill="#f6c5b4" d="m318.977 55.695 17.816 22.235-17.2-1.024Zm0 0"/><path fill="#4a7049" d="m331.094 46.367 5.699 31.563-17.816-22.235Zm0 0"/><path fill="#f6c5b4" d="m299.004 76.922 19.973-21.227.617 21.211Zm0 0"/><path fill="#f6c5b4" d="m299.004 76.922-6.281-29.938 26.254 8.711ZM292.723 46.984l-25.32 6.856 10.44-19.028Zm0 0"/><path fill="#4a2d2c" d="m15.516 143.707 11.476 1.969-11.254 12.066Zm0 0"/><path fill="#4a2d2c" d="m15.738 157.742 11.254-12.066 5.828 22.64ZM26.992 145.676l42.988-2.938-37.16 25.578ZM50.324 81.063l-17.52-26.04 22.829 3.196Zm0 0"/><path fill="#4a2d2c" d="M50.324 81.063 25.77 85.277l7.035-30.254Zm0 0"/><path fill="#4a714a" d="m78.012 164.328 29.511 2.7-57.675 21.21Zm0 0"/><path fill="#4a714a" d="m32.82 168.316 45.192-3.988-28.164 23.91Zm0 0"/><path fill="#4a7049" d="m69.98 142.738 8.032 21.59-45.192 3.988Zm0 0"/><path fill="#4a2d2c" d="M113.734 0h76.368l-9.665 20.227ZM190.102 0l4.09 15.215-13.755 5.012Zm0 0"/><path fill="#f6c5b4" d="m160.52 48.102 19.43-11.391 7.859 22.855Zm0 0"/><path fill="#f6c4b3" d="m180.438 20.227-.489 16.484L147.16 25.27Zm0 0"/><path fill="#de7b52" d="m179.95 36.71-19.43 11.392-13.36-22.832ZM151.973 74.973l8.547-26.871 27.289 11.464Zm0 0"/><path fill="#f6c5b4" d="m139.77 52.102-7.368-10.391L147.16 25.27Zm0 0"/><path fill="#f6c5b4" d="m160.52 48.102-20.75 4 7.39-26.832ZM132.402 41.71l7.368 10.392-16.344-.465Zm0 0"/><path fill="#de7b52" d="m139.77 52.102-17.395 15.546 1.05-16.011Zm0 0"/><path fill="#de7b52" d="m122.375 67.648 17.395-15.546 12.203 22.87Zm0 0"/><path fill="#de7b52" d="M151.973 74.973 139.77 52.102l20.75-4ZM107.816 51.258l14.559 16.39-23.812 1.313ZM123.426 51.637l-1.051 16.011-14.559-16.39Zm0 0"/><path fill="#4a2d2c" d="m101.285 40.055-31.86-16.547 45.403-15.235Zm0 0"/><path fill="#4a2d2c" d="M101.285 40.055 80.11 44.148l-10.683-20.64ZM101.285 40.055l13.543-31.782 7.832 24.922Zm0 0"/><path fill="#f6c5b4" d="m107.816 51.258-6.53-11.203 21.374-6.86Zm0 0"/><path fill="#4a2d2c" d="m80.11 44.148 2.773 6.801-27.25 7.27Zm0 0"/><path fill="#de7b52" d="m99.14 224.344 34.9-33.88-5.474 34.833Zm0 0"/><path fill="#de7b52" d="m93.508 196.324 40.531-5.86-34.898 33.88Zm0 0"/><path fill="#a13e06" d="m134.04 190.465-40.532 5.86 14.015-29.298Zm0 0"/><path fill="#4a714a" d="M126.219 241.86 99.14 224.343l29.425.953ZM111.645 271.402l-10.79 20.332-14.316-26.246Zm0 0"/><path fill="#dd7a51" d="m189.832 197.582-2.23 21.246-31.891-25.86ZM155.71 192.969l-.081 30.496-27.063 1.832Zm0 0"/><path fill="#de7b52" d="m134.04 190.465 21.67 2.504-27.144 32.328Zm0 0"/><path fill="#9eb481" d="m155.71 192.969 19.161-23.707 14.961 28.32Zm0 0"/><path fill="#9eb380" d="m174.871 169.262-19.16 23.707-21.04-33.996Zm0 0"/><path fill="#dd7a51" d="m161.133 153.543 13.738 15.719-40.2-10.29Zm0 0"/><path fill="#9eb380" d="m134.672 158.973-.633 31.492-26.516-23.438Zm0 0"/><path fill="#9fb380" d="m155.71 192.969-21.67-2.504.632-31.492Zm0 0"/><path fill="#f5c5b4" d="M0 370.828v-15.371l28.121-2.14Zm0 0"/><path fill="#4a2d2c" d="m39.863 370.871 12.961 13.133H0Zm0 0"/><path fill="#4a2d2c" d="m0 370.828 39.863.043L0 384.004Zm0 0"/><path fill="#f6c5b4" d="M39.863 370.871 0 370.828l28.121-17.512Zm0 0"/><path fill="#bbb991" d="m49.168 353.832-21.047-.516 9.637-16.14Zm0 0"/><path fill="#f3c5b2" d="m28.121 353.316 21.047.516-9.305 17.04Zm0 0"/><path fill="#4a2d2c" d="m56.57 372.238-3.746 11.766-12.96-13.133Zm0 0"/><path fill="#4c320d" d="m161.402 360.496-23.007 13.188 1.894-23.782Zm0 0"/><path fill="#4a2d2b" d="m160.422 347.625.98 12.871-21.113-10.594Zm0 0"/><path fill="#c79066" d="m162.625 384.012-1.223-23.516 18.25 9.203Zm0 0"/><path fill="#b5a174" d="m138.395 373.684 23.007-13.188 1.223 23.516Zm0 0"/><path fill="#4a2d2b" d="m161.402 360.496 16.895-10.375 1.355 19.578Zm0 0"/><path fill="#4a2d2b" d="m178.297 350.121-16.895 10.375-.98-12.871Zm0 0"/><path fill="#dd7b52" d="m178.297 350.121-4.942-16.215 22.727-5.047Zm0 0"/><path fill="#dd7b52" d="m160.422 347.625 12.933-13.719 4.942 16.215Zm0 0"/><path fill="#efc2ae" d="m128.871 374.996 9.524-1.312L134.578 384Zm0 0"/><path fill="#4b3201" d="m138.395 373.684-9.524 1.312 11.418-25.094Zm0 0"/><path fill="#4a7049" d="m122.203 295.375-.371-17.047 23.387 19.727Zm0 0"/><path fill="#9db380" d="m111.645 271.402 10.187 6.926-20.977 13.406Zm0 0"/><path fill="#4a2d2b" d="m110.688 356.297.75-15.067 28.851 8.672Zm0 0"/><path fill="#4a2d2c" d="m57.7 312.55 28.179 21.376-35.207-2.547Zm0 0"/><path fill="#8f8151" d="m85.879 333.926-10.61 16.297-24.597-18.844Zm0 0"/><path fill="#f6c5b4" d="m88.227 321.61 12.628-29.876 6.215 14.86ZM100.855 291.734l21.348 3.641-15.133 11.219Zm0 0"/><path fill="#4a7049" d="m100.855 291.734 20.977-13.406.371 17.047Zm0 0"/><path fill="#88a9ba" d="m26.953 223.441-26.96 10.125L0 218.7Zm0 0"/><path fill="#4a714a" d="m18.707 272.145 11.656-26.832 20.383 20.878ZM30.363 245.313l31.176-.555-10.793 21.433ZM70.781 284.777l-24.183 1.414 4.148-20Zm0 0"/><path fill="#4a714a" d="m46.598 286.191-27.891-14.046 32.04-5.954Zm0 0"/><path fill="#f6c5b4" d="m46.598 286.191 24.183-1.414L57.7 312.551ZM18.707 272.145l27.89 14.046-18.038 3.153Zm0 0"/><path fill="#4a2d2c" d="m46.598 286.191-10.348 34.22-7.691-31.067Zm0 0"/><path fill="#4a2d2b" d="m36.25 320.41 10.348-34.219 11.101 26.36Zm0 0"/><path fill="#4a7049" d="m54.707 216.09-13.98 3.863 9.324-30.707Zm0 0"/><path fill="#4a714a" d="m40.727 219.953 13.98-3.863 6.832 28.668Zm0 0"/><path fill="#e2bda5" d="M37.758 337.176 36.25 320.41l14.422 10.969Zm0 0"/><path fill="#9eb481" d="m277.426 172.55-29.031 27.755 10.187-42.606Zm0 0"/><path fill="#9eb481" d="m277.5 157.121-.074 15.43-18.844-14.852Zm0 0"/><path fill="#4a7049" d="m235.824 218.836 40.258 2.406 1.8 19.594Zm0 0"/><path fill="#dd7a51" d="m248.395 200.305 27.687 20.937-40.258-2.406ZM276.082 221.242l-27.687-20.937 36.976-6.301Zm0 0"/><path fill="#9eb481" d="m248.395 200.305 29.03-27.754 7.946 21.453Zm0 0"/><path fill="#4a714a" d="m320.762 244.57-42.88-3.734 29.177-17.281Zm0 0"/><path fill="#4a714a" d="m320.762 244.57-36.164 19.766-6.715-23.5ZM208.441 286.785l4.125 29.235-32.992-20.903Zm0 0"/><path fill="#4a704a" d="m198.543 266.605 24.738 4.07-14.84 16.11Zm0 0"/><path fill="#497049" d="m223.281 270.676-24.738-4.07 37.281-47.77Zm0 0"/><path fill="#4a7049" d="m198.543 266.605-16.781-21 54.062-26.77Zm0 0"/><path fill="#4a7049" d="m235.824 218.836-54.062 26.77 5.84-26.778Zm0 0"/><path fill="#9eb481" d="m337.242 302.46 4.188-15.831 5.043 10.578Zm0 0"/><path fill="#9eb481" d="m354.305 310.063-17.063-7.602 9.23-5.254Zm0 0"/><path fill="#4a7049" d="m369.629 267.27-11.957-19.653 26.324 2.7Zm0 0"/><path fill="#4a2d2c" d="m384.012 318.488-12.453-8.453L384 272.325ZM371.559 310.035l-17.254.027 8.234-15.82Zm0 0"/><path fill="#9eb481" d="m339.863 325.133 14.442-15.07 9.328 20.054Zm0 0"/><path fill="#4a2d2c" d="m354.305 310.063 17.254-.028-7.926 20.082Zm0 0"/><path fill="#9eb481" d="m337.242 302.46 17.063 7.603-14.442 15.07Zm0 0"/><path fill="#9db380" d="m337.242 302.46 2.621 22.673-28.476-10.051Zm0 0"/><path fill="#4a2d2c" d="m360.355 359.164 23.649-8.61L384 384Zm0 0"/><path fill="#ecc3ae" d="m384.012 318.488-.008 32.067-20.371-20.438Zm0 0"/><path fill="#f2c5b2" d="m384.004 350.555-23.649 8.61 3.278-29.048Zm0 0"/><path fill="#d8ac8b" d="m179.652 369.7 56.496 14.308-73.523.004Zm0 0"/><path fill="#4a2d2b" d="m179.652 369.7-1.355-19.579 40.09 1.34Zm0 0"/><path fill="#4a2d2b" d="m236.836 370.371-18.45-18.91 60.735-4.445Zm0 0"/><path fill="#4a2d2b" d="m236.836 370.371-57.184-.672 38.735-18.238Zm0 0"/><path fill="#d6ba9c" d="m179.652 369.7 57.184.671-.688 13.637Zm0 0"/><path fill="#dd7b52" d="m212.566 316.02 5.82 35.44-22.304-22.6Zm0 0"/><path fill="#dd7a51" d="m218.387 351.46-40.09-1.339 17.785-21.262Zm0 0"/><path fill="#4a2d2c" d="m293.371 372.883-14.25-25.867 39.258 1.71Zm0 0"/><path fill="#4a2d2c" d="m279.121 347.016 32.121-11.727 7.137 13.438Zm0 0"/><path fill="#dc7b52" d="m318.379 348.727 21.484-23.594 3.395 17.996Zm0 0"/><path fill="#4a2d2c" d="m311.242 335.29 28.621-10.157-21.484 23.594Zm0 0"/><path fill="#dd7b52" d="m339.863 325.133-28.62 10.156.144-20.207Zm0 0"/><path fill="#9eb380" d="m383.984-.004-53.289 39.512 5.23-39.512Zm0 0"/><path fill="#9eb381" d="m384 37.91-53.305 1.598 53.29-39.512Zm0 0"/><path fill="#4a7049" d="m299.836 39.379 31.258 6.988-12.117 9.328Zm0 0"/><path fill="#497049" d="m330.695 39.508.399 6.86-31.258-6.99Zm0 0"/><path fill="#4a7049" d="M331.094 46.367 384 37.91l-20.34 36.938Zm0 0"/><path fill="#4a7049" d="m331.094 46.367-.399-6.86L384 37.91Zm0 0"/><path fill="#4a2d2c" d="m238.57 19.723-14.457-2.914 15.157-4.918Zm0 0"/><path fill="#f6c5b4" d="m245.797 38.098 23.277-12.977-1.672 28.719Zm0 0"/><path fill="#ebc3ae" d="m267.402 53.84 1.672-28.719 8.77 9.692Zm0 0"/><path fill="#d7a285" d="m238.57 19.723-17.922 11.582 3.465-14.496Zm0 0"/><path fill="#dd7a51" d="m254.082 143.516 14.977 2.425-10.477 11.758ZM215.953 153.21l38.129-9.694 4.5 14.183Zm0 0"/><path fill="#f6c5b4" d="m263.902 107.012-12.949 20.437-25.594-22.695Zm0 0"/><path fill="#4a2d2c" d="m254.082 143.516-3.129-16.067 18.621-2.004Zm0 0"/><path fill="#f6c5b4" d="m250.953 127.45 12.95-20.438 5.671 18.433ZM248.828 81.055l15.074 25.957-38.543-2.258ZM289.27 122.195l-10.391-30.53 22.781 10.585Zm0 0"/><path fill="#4a2d2c" d="m350.887 105.68-7.614 6.57.227-11.516Zm0 0"/><path fill="#f6c5b4" d="m330.418 108.484-9.606-14.535 22.688 6.785Zm0 0"/><path fill="#f6c5b4" d="m343.273 112.25-12.855-3.766 13.082-7.75Zm0 0"/><path fill="#f6c5b4" d="m330.418 108.484 12.855 3.766-12.98 5.844Zm0 0"/><path fill="#4a704a" d="m354.965 184.39-21.09.278 1.094-26.895Zm0 0"/><path fill="#9eb481" d="m295.371 158.55 2.336 17.427-20.281-3.426Zm0 0"/><path fill="#4a7049" d="m363.57 217.969-8.586-17.383 29.024-5.527Zm0 0"/><path fill="#4a3201" d="m363.57 217.969 20.438-22.91-.035 31.164Zm0 0"/><path fill="#dd7a51" d="m337.34 194.625-3.465-9.957 21.09-.277Zm0 0"/><path fill="#f6c5b4" d="m333.875 184.668 3.465 9.957-32.531-3.703Zm0 0"/><path fill="#dd7b52" d="M354.984 200.586 339.52 213.84l-2.18-19.215Zm0 0"/><path fill="#4a7049" d="m339.52 213.84-32.461 9.715-2.395-5.407Zm0 0"/><path fill="#de7b52" d="m337.34 194.625 2.18 19.215-34.856 4.308Zm0 0"/><path fill="#f6c5b4" d="m305.48 122.086-16.21.11 14.914-5.423Zm0 0"/><path fill="#9eb481" d="m349.43 131.059-14.121 8.757-5.016-21.722Zm0 0"/><path fill="#4a714a" d="m333.875 184.668-13.266-22.395 14.36-4.5Zm0 0"/><path fill="#f6c5b4" d="m316.055 115.984-10.575 6.102-1.296-5.313Zm0 0"/><path fill="#f6c5b4" d="m301.66 102.25 14.395 13.734-11.871.79ZM316.055 115.984l14.363-7.5-.125 9.61Zm0 0"/><path fill="#4a2d2c" d="m359.09 116.309-8.203-10.63 10.836-12.21Zm0 0"/><path fill="#4a2d2c" d="m384 108.406-24.91 7.903 2.633-22.84Zm0 0"/><path fill="#f6c5b4" d="m320.813 93.95 15.98-16.02 6.707 22.804Zm0 0"/><path fill="#4a2d2c" d="m336.793 77.93 24.93 15.539-18.223 7.265Zm0 0"/><path fill="#4a2d2b" d="m361.723 93.469-24.93-15.54 26.867-3.081Zm0 0"/><path fill="#f6c5b4" d="m319.594 76.906 17.199 1.024-15.98 16.02Zm0 0"/><path fill="#4a2d2c" d="m0 70.336 25.77 14.941L0 146.207Zm0 0"/><path fill="#4a2d2c" d="m15.516 143.707 10.254-58.43 1.222 60.399Zm0 0"/><path fill="#4a2d2c" d="m0 146.207 25.77-60.93-10.254 58.43ZM194.191 15.215l.598 4.66-14.351.352Zm0 0"/><path fill="#eca98e" d="m194.79 19.875-14.84 16.836.488-16.484Zm0 0"/><path fill="#4a2d2c" d="m224.113 16.809-29.324 3.066-.598-4.66Zm0 0"/><path fill="#dd7a51" d="m107.418 108.582 14.957-40.934 29.598 7.325Zm0 0"/><path fill="#dd7a51" d="m174.32 102.219-66.902 6.363 44.555-33.61Zm0 0"/><path fill="#de7b52" d="m122.375 67.648-14.957 40.934-8.856-39.621Zm0 0"/><path fill="#4a2d2c" d="M101.285 40.055 82.883 50.949l-2.774-6.8Zm0 0"/><path fill="#f6c5b4" d="m82.883 50.95 18.402-10.895 6.531 11.203Zm0 0"/><path fill="#de7b52" d="m82.883 50.95 24.933.308-9.254 17.703Zm0 0"/><path fill="#4a714a" d="m126.219 241.86-32.02 6.136 4.942-23.652ZM126.219 241.86l-14.574 29.542-17.446-23.406Zm0 0"/><path fill="#efc4b0" d="m10.426 313.281 11.09 18.332-21.512 1.61Zm0 0"/><path fill="#e2c1a9" d="m36.25 320.41-14.734 11.203-11.09-18.332Zm0 0"/><path fill="#f6c5b3" d="m173.355 333.906 6.22-38.789 16.507 33.742Zm0 0"/><path fill="#f6c5b4" d="m139.29 313.176-17.087-17.801 23.016 2.68Zm0 0"/><path fill="#de7b52" d="m145.465 332.371 14.957 15.254-20.133 2.277ZM145.465 332.371l27.89 1.535-12.933 13.719Zm0 0"/><path fill="#dd7b52" d="m111.438 341.23 34.027-8.859-5.176 17.531Zm0 0"/><path fill="#d6bc9e" d="m110.688 356.297-23.985 8.871-11.433-14.945Zm0 0"/><path fill="#c9875c" d="m85.879 333.926 24.808 22.37-35.417-6.073Zm0 0"/><path fill="#f6c5b4" d="m114.402 329.223-26.175-7.614 18.843-15.015Zm0 0"/><path fill="#de7b52" d="m88.227 321.61-2.348 12.316-28.18-21.375Zm0 0"/><path fill="#f6c5b4" d="m78.977 302.637 9.25 18.972-30.528-9.058Zm0 0"/><path fill="#f6c5b4" d="M100.855 291.734 88.227 321.61l-9.25-18.972ZM10.426 313.281.004 278.2l18.703-6.054Zm0 0"/><path fill="#4a714a" d="m-.004 259.3 30.367-13.988-11.656 26.833Zm0 0"/><path fill="#88a9ba" d="m.004 278.2-.008-18.9 18.711 12.845Zm0 0"/><path fill="#4a7049" d="m30.363 245.313 10.364-25.36 20.812 24.805Zm0 0"/><path fill="#4a714a" d="m-.008 233.566 30.371 11.746-30.367 13.989Zm0 0"/><path fill="#4a7049" d="m30.363 245.313-30.37-11.747 26.96-10.125Zm0 0"/><path fill="#4a7049" d="m40.727 219.953-10.364 25.36-3.41-21.872ZM320.762 244.57l2.16 26.797-38.324-7.031Zm0 0"/><path fill="#f6c5b4" d="m247.48 313.637 8.586-18.582 38.106 7.523Zm0 0"/><path fill="#de7b52" d="m247.48 313.637 46.692-11.059-15.05 44.438Zm0 0"/><path fill="#9fb481" d="m256.066 295.055-35.832-6.383 33.758-4.512Zm0 0"/><path fill="#f6c5b4" d="m247.48 313.637-27.246-24.965 35.832 6.383Zm0 0"/><path fill="#4a704a" d="m208.441 286.785 11.793 1.887-7.668 27.348Zm0 0"/><path fill="#dd7b52" d="m218.387 351.46 29.093-37.823 31.641 33.379Zm0 0"/><path fill="#dd7b52" d="m247.48 313.637-29.093 37.824-5.82-35.441Zm0 0"/><path fill="#4a714a" d="m220.234 288.672 27.246 24.965-34.914 2.383Zm0 0"/><path fill="#4a2d2c" d="m249.805 20.348-11.235-.625.7-7.832Zm0 0"/><path fill="#dd7b52" d="m238.57 19.723 11.235.625-4.008 17.75ZM249.805 20.348l19.27 4.773-23.278 12.977Zm0 0"/><path fill="#4a2d2c" d="m269.074 25.121-19.27-4.773 27.227-10.239ZM251.914 0l-2.11 20.348-10.534-8.457Zm0 0"/><path fill="#4a2d2c" d="M249.805 20.348 251.915 0l25.116 10.11Zm0 0"/><path fill="#de7b52" d="m168.727 136.86 5.593-34.641 24.121 32.308Zm0 0"/><path fill="#4a714a" d="m286.066 124.574-8.687 10.86-7.805-9.989Zm0 0"/><path fill="#f6c5b4" d="m250.953 127.45-22.305 3.976-3.289-26.672Zm0 0"/><path fill="#4a2d2c" d="m228.648 131.426 22.305-3.977 3.129 16.067Zm0 0"/><path fill="#f6c5b4" d="m248.828 81.055-23.469 23.699-7.515-27.258ZM286.066 124.574l-22.164-17.562 25.368 15.183Zm0 0"/><path fill="#f6c5b4" d="m263.902 107.012 14.977-15.348 10.39 30.531ZM263.902 107.012l22.164 17.562-16.492.871Zm0 0"/><path fill="#9fb481" d="m277.5 157.121 17.871 1.43-17.945 14Zm0 0"/><path fill="#91420c" d="m297.707 175.977 9.164-1.856-2.062 16.8Zm0 0"/><path fill="#4a7049" d="m295.371 158.55 11.5 15.571-9.164 1.856Zm0 0"/><path fill="#4a714a" d="m363.57 217.969 20.403 8.254-26.301 21.394Zm0 0"/><path fill="#4a3100" d="m354.984 200.586-.02-16.195 29.044 10.668Zm0 0"/><path fill="#dd7a51" d="m354.984 200.586-17.644-5.961 17.625-10.234Zm0 0"/><path fill="#4a714a" d="m320.762 244.57 18.758-30.73 18.152 33.777Zm0 0"/><path fill="#4a714a" d="m339.52 213.84-18.758 30.73-13.703-21.015Zm0 0"/><path fill="#4a7049" d="m289.27 122.195 10 21.918-13.204-19.539Zm0 0"/><path fill="#497049" d="m305.48 122.086-6.21 22.027-10-21.918Zm0 0"/><path fill="#4a714a" d="m299.27 144.113 6.21-22.027 10.883 25.027ZM316.363 147.113l18.946-7.297-.34 17.957ZM320.61 162.273l-4.247-15.16 18.606 10.66Zm0 0"/><path fill="#98af7d" d="m335.309 139.816-16.07-10.777 11.054-10.945Zm0 0"/><path fill="#4a7049" d="m316.363 147.113 2.875-18.074 16.07 10.777Zm0 0"/><path fill="#4a7049" d="m319.238 129.04-3.183-13.056 14.238 2.11Zm0 0"/><path fill="#4a714a" d="m305.48 122.086 13.758 6.953-2.875 18.074ZM316.055 115.984l3.183 13.055-13.758-6.953Zm0 0"/><path fill="#4a7049" d="m306.871 174.121 13.738-11.848 13.266 22.395Zm0 0"/><path fill="#9e3e07" d="m306.871 174.121 27.004 10.547-29.066 6.254Zm0 0"/><path fill="#9eb481" d="m343.273 112.25 6.157 18.809-19.137-12.965Zm0 0"/><path fill="#9eb381" d="m343.273 112.25 15.817 4.059-9.66 14.75Zm0 0"/><path fill="#4a2d2c" d="m359.09 116.309-15.817-4.059 7.614-6.57Zm0 0"/><path fill="#f6c5b4" d="m320.813 93.95-4.758 22.034-14.395-13.734Zm0 0"/><path fill="#f6c5b4" d="m316.055 115.984 4.757-22.035 9.606 14.535Zm0 0"/><path fill="#f6c5b5" d="m299.004 76.922 21.808 17.027-19.152 8.301Zm0 0"/><path fill="#f6c5b4" d="m320.813 93.95-21.81-17.028 20.59-.016Zm0 0"/><path fill="#f6c5b4" d="M299.004 76.922 267.402 53.84l25.32-6.856Zm0 0"/><path fill="#de7b52" d="M107.418 108.582 70.27 77.656l28.293-8.695Zm0 0"/><path fill="#f3c5b2" d="m62.332 66.242 7.938 11.414-19.946 3.406Zm0 0"/><path fill="#4a2d2c" d="m62.332 66.242-12.008 14.82 5.309-22.843Zm0 0"/><path fill="#4a2d2c" d="M82.883 50.95 62.332 66.241l-6.7-8.023Zm0 0"/><path fill="#f6c5b4" d="M70.27 77.656 40.215 94.301l10.11-13.239Zm0 0"/><path fill="#4a2d2c" d="M50.324 81.063 40.214 94.3 25.77 85.277ZM25.77 85.277l14.445 9.024-13.223 51.375Zm0 0"/><path fill="#edc3ae" d="m220.648 31.305-25.859-11.43 29.324-3.066Zm0 0"/><path fill="#e1855f" d="m179.95 36.71 20.745 6.99-12.886 15.866Zm0 0"/><path fill="#de7b52" d="m194.79 19.875 5.905 23.824-20.746-6.988Zm0 0"/><path fill="#dd7b52" d="m220.648 31.305-19.953 12.394-5.906-23.824Zm0 0"/><path fill="#4a714a" d="m145.844 256.07-19.625-14.21 29.41-18.395Zm0 0"/><path fill="#a3b483" d="M22.43 345.469 0 355.457l.004-22.234Zm0 0"/><path fill="#a3b584" d="m21.516 331.613.914 13.856L.004 333.223Zm0 0"/><path fill="#cdbd9c" d="m0 355.457 22.43-9.988 5.691 7.847Zm0 0"/><path fill="#4a7049" d="m198.543 266.605-18.969 28.512-7.086-24.828ZM179.574 295.117l18.969-28.512 9.898 20.18Zm0 0"/><path fill="#f6c5b4" d="m164.543 312.508 15.031-17.39-6.219 38.788Zm0 0"/><path fill="#9db380" d="m121.832 278.328 34.066 8.094-10.68 11.633Zm0 0"/><path fill="#4a2d2b" d="m110.688 356.297-24.81-22.371 25.56 7.304Zm0 0"/><path fill="#dd7b52" d="m85.879 333.926 28.523-4.703-2.965 12.007Zm0 0"/><path fill="#de7b52" d="m114.402 329.223-28.523 4.703 2.348-12.317Zm0 0"/><path fill="#dd7b52" d="m114.402 329.223 31.063 3.148-34.027 8.86Zm0 0"/><path fill="#f6c5b4" d="m145.465 332.371-31.063-3.148 24.887-16.047Zm0 0"/><path fill="#f6c5b4" d="m122.203 295.375-7.8 33.848-7.333-22.63Zm0 0"/><path fill="#f6c5b4" d="m139.29 313.176-24.888 16.047 7.801-33.848Zm0 0"/><path fill="#4a714a" d="m322.922 271.367-33.133 15.688-5.191-22.72ZM341.43 286.629l-18.508-15.262 23.367-9.008Zm0 0"/><path fill="#4a7049" d="m322.922 271.367-2.16-26.797 25.527 17.79Zm0 0"/><path fill="#9eb481" d="m294.172 302.578-4.383-15.523 33.133-15.688Zm0 0"/><path fill="#4e744c" d="m341.43 286.629 4.86-24.27 23.339 4.91Zm0 0"/><path fill="#4a714a" d="m346.29 262.36-25.528-17.79 36.91 3.047Zm0 0"/><path fill="#4a7049" d="m369.629 267.27-23.34-4.91 11.383-14.743Zm0 0"/><path fill="#f7c6b5" d="m278.879 91.664 20.125-14.742 2.656 25.328Zm0 0"/><path fill="#f5c3b1" d="m245.797 38.098-28.48 16.011 3.331-22.804Zm0 0"/><path fill="#dd7b52" d="m245.797 38.098-25.149-6.793 17.922-11.582Zm0 0"/><path fill="#de7b52" d="m174.32 102.219 51.04 2.535-26.919 29.773ZM225.36 104.754l3.288 26.672-30.207 3.101Zm0 0"/><path fill="#dd7a52" d="m254.082 143.516 15.492-18.07-.515 20.495Zm0 0"/><path fill="#4a714a" d="m269.574 125.445 7.805 9.989-8.32 10.507Zm0 0"/><path fill="#9eb481" d="m217.531 168.945 41.051-11.246-10.187 42.606Zm0 0"/><path fill="#4a2d2c" d="m228.648 131.426-12.695 21.785-17.512-18.684Zm0 0"/><path fill="#de7b52" d="m225.36 104.754-51.04-2.535 43.524-24.723Zm0 0"/><path fill="#de7b52" d="M217.844 77.496 174.32 102.22l13.489-42.653ZM174.32 102.219l-22.347-27.246 35.836-15.407Zm0 0"/><path fill="#9eb380" d="m269.059 145.941 16.066.91-7.625 10.27Zm0 0"/><path fill="#4a704a" d="m299.27 144.113-14.145 2.739.941-22.278Zm0 0"/><path fill="#4a714a" d="m285.125 146.852-7.746-11.418 8.687-10.86Zm0 0"/><path fill="#4a7049" d="m277.379 135.434 7.746 11.418-16.066-.91Zm0 0"/><path fill="#497049" d="m339.52 213.84 24.05 4.129-5.898 29.648Zm0 0"/><path fill="#4a7049" d="m363.57 217.969-24.05-4.13 15.464-13.253ZM307.574 157.016l-8.304-12.903 17.093 3ZM307.574 157.016l8.79-9.903 4.245 15.16Zm0 0"/><path fill="#dd7b52" d="m107.418 108.582-36.227 4.145-.921-35.07Zm0 0"/><path fill="#f6c5b3" d="M71.191 112.727 40.215 94.3 70.27 77.656Zm0 0"/><path fill="#d2be9f" d="m62.332 66.242 20.55-15.293L70.27 77.656Zm0 0"/><path fill="#f6c5b4" d="M70.27 77.656 82.883 50.95l15.68 18.012ZM187.809 59.566 200.695 43.7l16.621 10.41ZM217.316 54.11l-16.62-10.41 19.952-12.395Zm0 0"/><path fill="#4a7049" d="m145.844 256.07-24.012 22.258-10.187-6.926Zm0 0"/><path fill="#4a714a" d="m126.219 241.86 19.625 14.21-34.2 15.332ZM145.844 256.07l26.644 14.22-16.59 16.132Zm0 0"/><path fill="#4a7049" d="m121.832 278.328 24.012-22.258 10.054 30.352Zm0 0"/><path fill="#497049" d="m181.762 245.605-35.918 10.465 9.785-32.605Zm0 0"/><path fill="#4a7049" d="m187.602 218.828-5.84 26.777-26.133-22.14Zm0 0"/><path fill="#4a714a" d="m179.574 295.117-23.676-8.695 16.59-16.133Zm0 0"/><path fill="#4a714a" d="m164.543 312.508-8.645-26.086 23.676 8.695Zm0 0"/><path fill="#f6c5b4" d="m145.465 332.371 19.078-19.863 8.812 21.398Zm0 0"/><path fill="#f6c5b4" d="m164.543 312.508-19.078 19.863-6.176-19.195Zm0 0"/><path fill="#f6c5b4" d="m164.543 312.508-25.254.668 5.93-15.121Zm0 0"/><path fill="#9eb481" d="m155.898 286.422 8.645 26.086-19.324-14.453ZM311.387 315.082l-17.215-12.504 43.07-.117Zm0 0"/><path fill="#9db380" d="m337.242 302.46-43.07.118 47.258-15.95Zm0 0"/><path fill="#9eb481" d="m294.172 302.578 28.75-31.21 18.508 15.26Zm0 0"/><path fill="#f6c5b4" d="m299.004 76.922-20.125 14.742-11.477-37.824ZM267.402 53.84l11.477 37.824-30.05-10.61Zm0 0"/><path fill="#f6c5b4" d="m278.879 91.664-14.977 15.348-15.074-25.957Zm0 0"/><path fill="#de7b52" d="m217.316 54.11 28.48-16.012 21.606 15.742Zm0 0"/><path fill="#f6c5b4" d="m217.316 54.11 50.086-.27-18.574 27.215Zm0 0"/><path fill="#f6c5b3" d="m217.844 77.496-.528-23.387 31.512 26.946Zm0 0"/><path fill="#de7b52" d="m217.531 168.945-1.578-15.734 42.629 4.488Zm0 0"/><path fill="#4a2d2c" d="m215.953 153.21 12.695-21.784 25.434 12.09Zm0 0"/><path fill="#9eb380" d="m285.125 146.852 10.246 11.699-17.871-1.43Zm0 0"/><path fill="#4a7049" d="m295.371 158.55-10.246-11.698 14.145-2.739ZM307.574 157.016l-12.203 1.535 3.899-14.438Zm0 0"/><path fill="#4a714a" d="m307.574 157.016-.703 17.105-11.5-15.57Zm0 0"/><path fill="#4a7049" d="m306.871 174.121.703-17.105 13.035 5.257Zm0 0"/><path fill="#de7b52" d="m69.98 142.738 1.211-30.011 36.227-4.145Zm0 0"/><path fill="#c15e2f" d="m78.012 164.328-8.032-21.59 28.516-.566Zm0 0"/><path fill="#de7b52" d="m69.98 142.738 37.438-34.156-8.922 33.59Zm0 0"/><path fill="#497049" d="m172.488 270.29 9.274-24.685 16.781 21Zm0 0"/><path fill="#b6b88f" d="m22.43 345.469 15.328-8.293-9.637 16.14Zm0 0"/><path fill="#b9b991" d="m37.758 337.176-16.242-5.563L36.25 320.41Zm0 0"/><path fill="#a1b482" d="m37.758 337.176-15.328 8.293-.914-13.856Zm0 0"/><path fill="#f6c5b4" d="m69.98 142.738-15.597-19.472 16.808-10.54ZM26.992 145.676l27.39-22.41 15.598 19.472Zm0 0"/><path fill="#f6c5b4" d="m40.215 94.3 14.168 28.966-27.39 22.41Zm0 0"/><path fill="#f6c5b4" d="m71.191 112.727-16.808 10.539L40.215 94.3Zm0 0"/><path fill="#4a7049" d="m181.762 245.605-9.274 24.684-26.644-14.219Zm0 0"/></svg>