<svg xmlns="http://www.w3.org/2000/svg" width="512" height="512" viewBox="0 0 384 384"><path fill="#1c2638" d="M26.535 222.152 0 201.672l15.91-9.738Zm0 0"/><path fill="#1c2638" d="M0 201.672v-32.68l15.91 22.942Zm0 0"/><path fill="#f04e52" d="m149.758 138.434-15.02-.305 2.657-32.285Zm0 0"/><path fill="#1e2537" d="m134.738 138.129 15.02.305-.813 15.129Zm0 0"/><path fill="#95deca" d="m178.914 177.664 10.219-9.187 5.113 28.558Zm0 0"/><path fill="#95dfcb" d="m176.914 196.387 2-18.723 15.332 19.371Zm0 0"/><path fill="#1c2637" d="m84.672 183.629-1.848 19.285-13.73-22.965Zm0 0"/><path fill="#1c2638" d="m84.672 183.629-.402-16.356 19.41 18.204ZM82.824 202.914 49.06 191.285l20.035-11.336Zm0 0"/><path fill="#ed5255" d="m59.563 312.14 14.925 2.88-6.793 12.02Zm0 0"/><path fill="#1c2537" d="m205.129 156.04-16.445-.29 16.218-20.559Zm0 0"/><path fill="#f04d51" d="m188.684 155.75 16.445.29-15.996 12.437ZM257.684 201.203l13.437 21.234-45.371-8.023Zm0 0"/><path fill="#c4938c" d="m265.996 378.39-33.332 5.614.531-8.777Zm0 0"/><path fill="#1c2638" d="m283.227 28.129.007-13.23 17.852 8.257Zm0 0"/><path fill="#ef5054" d="m283.227 28.129 16.98 13.004-19.148 1.043Zm0 0"/><path fill="#1c2638" d="M210.867 0h52.238l-19.66 12.281ZM384.004 186.902l-5.645-46.847 5.657-3.575ZM116.754 0l77.504 18.566-51.88 8.914ZM38.723 53.438l37.816-25.231-10.523 35.637Zm0 0"/><path fill="#1c2638" d="m76.54 28.207-37.817 25.23L0 0Zm0 0"/><path fill="#94dfcb" d="m213.918 188.305-4.117 13.117-15.555-4.387Zm0 0"/><path fill="#f04e52" d="m134.738 138.129-15.96-13.57 18.617-18.715ZM118.777 124.559l15.961 13.57-30.777 4.293Zm0 0"/><path fill="#9a222b" d="m112.809 164.633-28.54 2.64 19.692-24.851Zm0 0"/><path fill="#9a222b" d="m134.738 138.129-21.93 26.504-8.847-22.211Zm0 0"/><path fill="#1c2638" d="m84.27 167.273 28.539-2.64-9.13 20.844Zm0 0"/><path fill="#9a222b" d="m149.758 138.434 20.918 24.379-21.73-9.25Zm0 0"/><path fill="#686266" d="m87.668 373.566-39.164-17.05 25.43-11.641Zm0 0"/><path fill="#1e2537" d="m67.695 327.04-19.191 29.476-5.668-33.407Zm0 0"/><path fill="#372535" d="m73.934 344.875-25.43 11.64 19.191-29.476Zm0 0"/><path fill="#94dfcb" d="m49.059 191.285-1.782-17.547 21.817 6.211Zm0 0"/><path fill="#8b5b60" d="m.004 307.043 16.953-34.191 6.863 21.988Zm0 0"/><path fill="#1d2637" d="M11.816 313.867.004 307.043 23.82 294.84Zm0 0"/><path fill="#94dfcb" d="m229.016 200.969-15.098-12.664 18.73-12.532Zm0 0"/><path fill="#f14e52" d="m229.016 200.969 28.668.234-31.934 13.211Zm0 0"/><path fill="#f04d51" d="m209.8 201.422 19.216-.453-3.266 13.445Zm0 0"/><path fill="#95dfcb" d="m229.016 200.969-19.215.453 4.117-13.117Zm0 0"/><path fill="#f04e52" d="m205.129 156.04 2.492 13.433-18.488-.996Zm0 0"/><path fill="#95dfcb" d="m213.918 188.305-6.297-18.832 25.027 6.3ZM189.133 168.477l18.488.996-13.375 27.562Zm0 0"/><path fill="#95dfcb" d="m207.621 169.473 6.297 18.832-19.672 8.73ZM229.016 200.969l28.629-5.442.039 5.676Zm0 0"/><path fill="#1c2537" d="m271.121 222.438-44.219 13.664-1.152-21.688Zm0 0"/><path fill="#f14e52" d="m293.09 198.781-21.969 23.656 7.152-24.355Zm0 0"/><path fill="#222537" d="m280.387 283.129-34.016-4.453 38.356-4.598Zm0 0"/><path fill="#212537" d="m246.371 278.676 34.016 4.453-36.422 6.476Zm0 0"/><path fill="#95e0cc" d="m243.965 289.605 36.422-6.476 1.16 7.254Zm0 0"/><path fill="#5d2331" d="m301.625 384.04 43.918-24.103 4.668 24.07Zm0 0"/><path fill="#94dfcb" d="m241.434 308.305 2.53-18.7 37.583.778Zm0 0"/><path fill="#94dfcb" d="m288.367 297.25-46.933 11.055 40.113-17.922Zm0 0"/><path fill="#be9a91" d="m232.664 384.004 33.332-5.613 2.18 5.613Zm0 0"/><path fill="#1c2537" d="m345.543 359.938-50.414-15.13 41.023-20.07Zm0 0"/><path fill="#272537" d="m251.777 348.422 14.22 29.969-32.802-3.164Zm0 0"/><path fill="#1c2638" d="m343.625 38.691-42.54-15.535L308.103 0ZM215.754 17.32 210.867 0l32.578 12.281Zm0 0"/><path fill="#f04e52" d="m190.152 104.09-40.394 34.344-12.363-32.59Zm0 0"/><path fill="#1c2637" d="m283.227 28.129 17.859-4.973-.879 17.977Zm0 0"/><path fill="#1c2638" d="M263.105 0h44.997l-24.868 14.898Zm0 0"/><path fill="#1c2638" d="M283.234 14.898 308.102 0l-7.016 23.156Zm0 0"/><path fill="#95dfcb" d="m378.36 140.055-13.313-17.317 18.969 13.742ZM365.047 122.738l13.312 17.317-16.566 5.066Zm0 0"/><path fill="#1d2537" d="m374.973 226.848 9.03-.02-.007 14.664Zm0 0"/><path fill="#82222d" d="m362.582 214.914 1.406 26.227-11.644-.364Zm0 0"/><path fill="#1c2537" d="m356.29 199.598 27.706-2.953v12.054ZM384.004 186.902l-.008 9.743-9.883-7.75Zm0 0"/><path fill="#1c2637" d="m383.996 196.645-27.707 2.953 17.824-10.703Zm0 0"/><path fill="#1c2537" d="m333.781 242.922-27.289-14.457 10.301-10.38Zm0 0"/><path fill="#ef4f53" d="m312.902 82.969-35.984-14.535 23.289-27.301Zm0 0"/><path fill="#f04e52" d="M332.266 69.105 312.902 82.97l-12.695-41.836Zm0 0"/><path fill="#f04f53" d="m300.207 41.133-23.289 27.3 4.14-26.257Zm0 0"/><path fill="#1c2638" d="M38.723 53.438 23.816 88.292 0 78.531Zm0 0"/><path fill="#95dfcb" d="m47.277 173.738 6.391-17.718 15.426 23.93Zm0 0"/><path fill="#94dfcb" d="m53.668 156.02-6.39 17.718-8.653-9.648Zm0 0"/><path fill="#aabdaf" d="m142.379 27.48-27.625 34.313-6.496-24.941Zm0 0"/><path fill="#1c2638" d="m76.54 28.207 4.226 18.117-14.75 17.52ZM0 0l38.723 53.438L0 78.53ZM116.754 0 76.539 28.207 0 0Zm0 0"/><path fill="#1c2537" d="m74.055 220.805 20.949 4.277-16.102 23.04Zm0 0"/><path fill="#f14e52" d="m74.055 220.805-24.996-29.52 33.765 11.63Zm0 0"/><path fill="#1c2638" d="m82.824 202.914 1.848-19.285 19.008 1.848Zm0 0"/><path fill="#f14e52" d="m74.055 220.805 8.77-17.89 12.179 22.167Zm0 0"/><path fill="#1c2537" d="m190.188 214.156 19.613-12.734 15.949 12.992Zm0 0"/><path fill="#f04d51" d="m190.188 214.156-13.274-17.77 17.332.65Zm0 0"/><path fill="#f04d51" d="m209.8 201.422-19.613 12.734 4.06-17.12Zm0 0"/><path fill="#1c2537" d="m131.477 226.766 30.023-4.442-24.61 22.086Zm0 0"/><path fill="#1c2637" d="m131.477 226.766-7.594 8.96-28.88-10.644Zm0 0"/><path fill="#542735" d="m123.883 235.727 7.594-8.961 5.414 17.644Zm0 0"/><path fill="#1d2537" d="m137.781 156.531-3.043-18.402 14.207 15.434Zm0 0"/><path fill="#9a222b" d="m137.781 156.531-24.972 8.102 21.93-26.504Zm0 0"/><path fill="#95dfcb" d="m178.914 177.664-8.238-14.851 18.457 5.664Zm0 0"/><path fill="#ed4d51" d="m170.676 162.813 18.008-7.063.449 12.727Zm0 0"/><path fill="#93ddca" d="m83.395 270.234 17.511 22.778L75.63 277.39Zm0 0"/><path fill="#1c2638" d="m100.906 293.012-17.511-22.778 27.078 1.567Zm0 0"/><path fill="#f04e52" d="m59.563 312.14 12.636-26.128 2.29 29.008Zm0 0"/><path fill="#f04e52" d="m72.2 286.012 17.503 25.035-15.215 3.973Zm0 0"/><path fill="#94dfcb" d="m72.2 286.012-26.442-16.813 29.87 8.192Zm0 0"/><path fill="#94dfcb" d="m100.906 293.012-28.707-7 3.43-8.621Zm0 0"/><path fill="#f04e52" d="m72.2 286.012 28.706 7-11.203 18.035Zm0 0"/><path fill="#1c2637" d="m21.703 371.922 65.965 1.644L86.023 384Zm0 0"/><path fill="#c68e87" d="m21.703 371.922 26.8-15.406 39.165 17.05Zm0 0"/><path fill="#1c2537" d="m0 383.996 21.703-12.074L86.023 384Zm0 0"/><path fill="#1e2638" d="m87.668 373.566 40.57 10.422-42.215.012Zm0 0"/><path fill="#272839" d="m104.188 362.137-16.52 11.43-13.734-28.692Zm0 0"/><path fill="#968781" d="m128.238 383.988-24.05-21.851 35.101-13.13Zm0 0"/><path fill="#85696a" d="m128.238 383.988-40.57-10.422 16.52-11.43Zm0 0"/><path fill="#94dfcb" d="m47.277 173.738-21.05 5.461 12.398-15.11Zm0 0"/><path fill="#1c2638" d="m26.227 179.2-10.051-24.657 22.449 9.547Zm0 0"/><path fill="#94dfcb" d="m26.227 179.2.308 42.952-10.625-30.218Zm0 0"/><path fill="#1c2638" d="M0 168.992 26.227 179.2 15.91 191.934ZM16.176 154.543l10.05 24.656L0 168.992Zm0 0"/><path fill="#94dfcb" d="m26.535 222.152-.308-42.953 22.832 12.086Zm0 0"/><path fill="#95dfcb" d="m26.227 179.2 21.05-5.462 1.782 17.547Zm0 0"/><path fill="#f04d51" d="m74.055 220.805-19.309-6.051-5.687-23.469Zm0 0"/><path fill="#8e222c" d="m53.137 255.094 1.61-40.34 24.155 33.367Zm0 0"/><path fill="#1c2537" d="m54.746 214.754 19.309 6.05 4.847 27.317Zm0 0"/><path fill="#984246" d="m95.004 225.082 11.219 24.371-27.32-1.332Zm0 0"/><path fill="#5c2431" d="m83.395 270.234-4.493-22.113 31.57 23.68Zm0 0"/><path fill="#332535" d="m78.902 248.121 27.32 1.332 4.25 22.348Zm0 0"/><path fill="#96ddc9" d="m45.758 269.2 7.379-14.106 22.492 22.297Zm0 0"/><path fill="#1c2638" d="m53.137 255.094 30.258 15.14-7.766 7.157Zm0 0"/><path fill="#1d2537" d="m53.137 255.094 25.765-6.973 4.493 22.113Zm0 0"/><path fill="#1c2638" d="m42.836 323.11 16.727-10.97 8.132 14.9Zm0 0"/><path fill="#1c2537" d="m42.836 323.11-31.02-9.243L23.82 294.84Zm0 0"/><path fill="#95dfcb" d="m258.992 180.871-1.347 14.656-28.63 5.442Zm0 0"/><path fill="#95dfcb" d="m258.992 180.871-29.976 20.098 3.632-25.196Zm0 0"/><path fill="#95dfcb" d="m258.992 180.871-26.344-5.098 24.582-16.886ZM280.734 172.688l12.524 10.57-14.985 14.824Zm0 0"/><path fill="#1c2537" d="m293.258 183.258-.168 15.523-14.817-.699ZM265.516 254.234l-38.614-18.132 44.22-13.665Zm0 0"/><path fill="#89222c" d="m265.516 254.234 33.156-3.285-13.945 23.13Zm0 0"/><path fill="#a02b33" d="m265.516 254.234-36.848-.5-1.766-17.632Zm0 0"/><path fill="#362535" d="m265.516 254.234 19.21 19.844-38.355 4.598Zm0 0"/><path fill="#8c232d" d="m228.668 253.734 36.848.5-19.145 24.442Zm0 0"/><path fill="#f14e52" d="m271.121 222.438-13.437-21.235 20.59-3.121ZM304.566 219l-33.445 3.438 21.969-23.657Zm0 0"/><path fill="#1c2537" d="M271.121 222.438 304.566 219l1.926 9.465ZM306.492 228.465 304.566 219l12.227-.914Zm0 0"/><path fill="#3f2534" d="m246.371 278.676-21.71-3.664 4.007-21.278Zm0 0"/><path fill="#4a2433" d="m224.66 275.012-4.14 14.68-5.036-15.962Zm0 0"/><path fill="#95dfcb" d="m220.52 289.691 25.851-11.015-2.406 10.93Zm0 0"/><path fill="#282536" d="m220.52 289.691 4.14-14.68 21.711 3.665Zm0 0"/><path fill="#94dfcb" d="m220.52 289.691-1.774 21.575-11.11-.477Zm0 0"/><path fill="#1c2537" d="m367.832 283.914 3.578 23.86-10.219-8.645ZM371.41 307.773l-3.578-23.859 16.172 18.07Zm0 0"/><path fill="#1c2537" d="m367.832 283.914 16.164-11.055.008 29.125Zm0 0"/><path fill="#94decb" d="m384 260.285-.004 12.574-12.734-5.304Zm0 0"/><path fill="#1c2637" d="m383.996 272.86-16.164 11.054 3.43-16.36Zm0 0"/><path fill="#95dfcb" d="m384 260.285-16.645-1.5 16.641-17.293Zm0 0"/><path fill="#ef4d51" d="m360.398 281.64 7.434 2.274-6.64 15.215Zm0 0"/><path fill="#f04e52" d="m337.762 282.84 22.636-1.2.793 17.489Zm0 0"/><path fill="#1f2637" d="m371.41 307.773 12.613 24.829-23.355-4.243Zm0 0"/><path fill="#212537" d="m358.426 356.68-22.274-31.942 24.516 3.621Zm0 0"/><path fill="#1d2537" d="m358.426 356.68-12.883 3.257-9.39-35.199Zm0 0"/><path fill="#f04e52" d="m361.191 299.129-6.234 11.613-17.195-27.902ZM288.367 297.25l15.496 13.387-41.601 10.199Zm0 0"/><path fill="#662935" d="m350.21 384.008-4.667-24.07 12.883-3.258Zm0 0"/><path fill="#8d252f" d="m384 384-33.79.008 8.216-27.328Zm0 0"/><path fill="#6f343e" d="M374.723 353.047 384 384l-25.574-27.32Zm0 0"/><path fill="#242637" d="m374.723 353.047-16.297 3.633 2.242-28.32Zm0 0"/><path fill="#e6585a" d="m192.305 349.727-27.743-1.477 31.06-13.293Zm0 0"/><path fill="#e8595b" d="m192.305 349.727 3.316-14.77 17.922 17.219Zm0 0"/><path fill="#be9e94" d="m265.996 378.39 27.582-10.324-25.402 15.938Zm0 0"/><path fill="#ce847f" d="m293.578 368.066 8.047 15.973-33.45-.035Zm0 0"/><path fill="#ce807b" d="m301.625 384.04-8.047-15.974 51.965-8.128Zm0 0"/><path fill="#6a424a" d="m293.578 368.066 1.55-23.257 50.415 15.128Zm0 0"/><path fill="#f04f53" d="m303.863 310.637-8.734 34.172-32.867-23.973Zm0 0"/><path fill="#1c2638" d="m343.625 38.691-11.36 30.414-32.058-27.972Zm0 0"/><path fill="#1c2638" d="m301.086 23.156 42.539 15.535-43.418 2.442ZM215.754 17.32l-21.496 1.246L210.868 0Zm0 0"/><path fill="#f04e52" d="m137.395 105.844-18.618 18.715-20.39-16.168Zm0 0"/><path fill="#dc6e6d" d="m190.152 104.09-9.562 31.57-30.832 2.774Zm0 0"/><path fill="#1c2537" d="m180.59 135.66-9.914 27.153-20.918-24.38ZM188.684 155.75l-8.094-20.09 24.312-.469Zm0 0"/><path fill="#1c2537" d="m170.676 162.813 9.914-27.153 8.094 20.09Zm0 0"/><path fill="#f04e52" d="m315.402 119.715-39.414 5.797 22.887-27.903Zm0 0"/><path fill="#96dcc9" d="m268.809 146.71 2.168 15.25-13.747-3.073Zm0 0"/><path fill="#ef4f53" d="m226.707 65.582-68.016-18.644 43.567-3.043Zm0 0"/><path fill="#1c2638" d="M365.047 122.738 384 102l.016 34.48Zm0 0"/><path fill="#94dfcb" d="m378.36 140.055-4.247 48.84-12.32-43.774Zm0 0"/><path fill="#94dfcb" d="m374.113 188.895-28.11-30.325 15.79-13.449Zm0 0"/><path fill="#1c2638" d="m374.113 188.895 4.246-48.84 5.645 46.847Zm0 0"/><path fill="#1c2537" d="m384.004 226.828-9.031.02 9.023-18.149Zm0 0"/><path fill="#1c2638" d="m356.29 199.598-4.43-14.07 22.253 3.367Zm0 0"/><path fill="#94dfcb" d="m351.86 185.527-5.856-26.957 28.11 30.325Zm0 0"/><path fill="#f14e52" d="m321.887 194.895 12.207 8.949-17.301 14.242ZM304.566 219l17.32-24.105-5.093 23.19Zm0 0"/><path fill="#f14e52" d="M321.887 194.895 304.567 219l-11.477-20.219Zm0 0"/><path fill="#1c2537" d="M384 60.84V102l-24.363-19.203Zm0 0"/><path fill="#1c2638" d="m384 60.84-24.363 21.957-16.012-44.106Zm0 0"/><path fill="#1c2537" d="m359.637 82.797-14.301 17.598-4.45-4.063Zm0 0"/><path fill="#f04f52" d="M276.918 68.434 263.43 40.508l17.629 1.668Zm0 0"/><path fill="#1c2638" d="m16.176 154.543 11.605-9.215 10.844 18.762Zm0 0"/><path fill="#1c2638" d="m27.781 145.328 25.887 10.692-15.043 8.07ZM27.781 145.328l44.957-1.371-19.07 12.063ZM54.992 74.902l-16.27-21.464 27.294 10.406Zm0 0"/><path fill="#1c2638" d="M54.992 74.902 23.816 88.293l14.907-34.856ZM84.27 167.273l.402 16.356-15.578-3.68Zm0 0"/><path fill="#95dfcb" d="m53.668 156.02 30.602 11.253-15.176 12.676ZM72.738 143.957l11.532 23.316-30.602-11.253Zm0 0"/><path fill="#1c2638" d="M116.754 0h94.113l-16.61 18.566Zm0 0"/><path fill="#c6918a" d="m194.258 18.566 1.777 8.32-53.656.594Zm0 0"/><path fill="#e75d5e" d="m196.035 26.887-37.344 20.05L142.38 27.48Zm0 0"/><path fill="#dd6c6b" d="m158.691 46.938-43.937 14.855 27.625-34.313Zm0 0"/><path fill="#1c2638" d="m88.594 48.074-7.828-1.75-4.227-18.117ZM88.594 48.074 76.539 28.207l31.719 8.645Zm0 0"/><path fill="#e16666" d="m114.754 61.793-26.16-13.719 19.664-11.222Zm0 0"/><path fill="#1c2637" d="m80.766 46.324 7.828 1.75-22.578 15.77Zm0 0"/><path fill="#1c2638" d="M76.54 28.207 116.753 0l-8.496 36.852ZM116.754 0l25.625 27.48-34.121 9.372Zm0 0"/><path fill="#f14e52" d="m117.8 203.813 13.677 22.953-36.473-1.684Zm0 0"/><path fill="#f14e52" d="m82.824 202.914 34.977.899-22.797 21.269Zm0 0"/><path fill="#1c2638" d="m117.8 203.813-34.976-.899 20.856-17.437Zm0 0"/><path fill="#95dfcb" d="m118.582 274.676-17.676 18.336 9.567-21.211Zm0 0"/><path fill="#1c2537" d="m226.902 236.102-36.714-21.946 35.562.258Zm0 0"/><path fill="#f14e52" d="m190.188 214.156-28.688 8.168 15.414-25.937Zm0 0"/><path fill="#f14e52" d="M176.914 196.387 161.5 222.324l-16.719-19.09Zm0 0"/><path fill="#f14e52" d="m161.5 222.324-22.742-8.55 6.023-10.54Zm0 0"/><path fill="#f04d51" d="m138.758 213.773 22.742 8.551-30.023 4.442Zm0 0"/><path fill="#f14e52" d="m117.8 203.813 20.958 9.96-7.281 12.993ZM138.758 213.773l-20.957-9.96 26.98-.579Zm0 0"/><path fill="#99222b" d="m106.223 249.453 17.66-13.726 13.008 8.683Zm0 0"/><path fill="#1c2537" d="m149.254 189.879 27.66 6.508-32.133 6.847Zm0 0"/><path fill="#94dfcb" d="m149.254 189.879 14.883-11.73 12.777 18.238Zm0 0"/><path fill="#95dfcb" d="m164.137 178.148-14.883 11.73-.309-36.315ZM149.254 189.879 137.78 156.53l11.164-2.969ZM164.137 178.148l6.539-15.335 8.238 14.851Zm0 0"/><path fill="#95dfcb" d="m170.676 162.813-6.54 15.335-15.19-24.585ZM164.137 178.148l14.777-.484-2 18.723Zm0 0"/><path fill="#1c2537" d="M129.969 186.777 117.8 203.813l-14.121-18.336ZM117.8 203.813l12.169-17.036 14.812 16.457Zm0 0"/><path fill="#1c2638" d="m112.809 164.633 17.16 22.144-26.29-1.3Zm0 0"/><path fill="#94dfcb" d="m137.781 156.531-7.812 30.246-17.16-22.144Zm0 0"/><path fill="#1c2537" d="m129.969 186.777 19.285 3.102-4.473 13.355Zm0 0"/><path fill="#95dfcb" d="m149.254 189.879-19.285-3.102 7.812-30.246Zm0 0"/><path fill="#1d2637" d="m0 383.996-.02-13.488 21.723 1.414Zm0 0"/><path fill="#b8a298" d="m-.02 370.508 10.602-14.477 11.121 15.89Zm0 0"/><path fill="#b3a59b" d="m10.582 356.031 13.031-9.277-1.91 25.168Zm0 0"/><path fill="#2d2536" d="m48.504 356.516-24.89-9.762 19.222-23.645Zm0 0"/><path fill="#a79d94" d="m23.613 346.754 24.89 9.762-26.8 15.406Zm0 0"/><path fill="#412e3c" d="m164.563 348.25-36.325 35.738 11.051-34.98Zm0 0"/><path fill="#252637" d="m160.29 383.996 4.273-35.746 26.367 19.906Zm0 0"/><path fill="#252537" d="m128.238 383.988 36.325-35.738-4.274 35.746Zm0 0"/><path fill="#202637" d="m164.563 348.25 27.742 1.477-1.375 18.43Zm0 0"/><path fill="#ef4f53" d="m195.621 334.957-16.73-13.668 28.746-10.5Zm0 0"/><path fill="#ed5356" d="m164.563 348.25 14.328-26.96 16.73 13.667Zm0 0"/><path fill="#1c2638" d="m122.21 297.531-.175-16.59 29.563 19.5Zm0 0"/><path fill="#94dfcb" d="m118.582 274.676 3.453 6.265-21.129 12.07Zm0 0"/><path fill="#1f2637" d="M104.188 362.137 93.39 335.313l45.898 13.695Zm0 0"/><path fill="#ef4f53" d="m74.488 315.02 8.325 13.992-15.118-1.973Zm0 0"/><path fill="#1c2537" d="m82.813 329.012-8.88 15.863-6.238-17.836Zm0 0"/><path fill="#f04e52" d="m89.703 311.047 11.203-18.035 8.477 19.82Zm0 0"/><path fill="#f04e52" d="m100.906 293.012 21.305 4.52-12.828 15.3Zm0 0"/><path fill="#1c2638" d="m100.906 293.012 21.13-12.07.175 16.59ZM26.535 222.152-.012 232.215 0 201.672Zm0 0"/><path fill="#95dfcb" d="m72.2 286.012-27.391.754.949-17.567Zm0 0"/><path fill="#95ddc9" d="m44.809 286.766-27.852-13.914 28.8-3.653Zm0 0"/><path fill="#ef4f53" d="m44.809 286.766 27.39-.754-12.636 26.129Zm0 0"/><path fill="#b06162" d="m16.957 272.852 27.852 13.914-20.989 8.074Zm0 0"/><path fill="#1c2637" d="m44.809 286.766-1.973 36.343-19.016-28.27Zm0 0"/><path fill="#1c2537" d="m42.836 323.11 1.973-36.344 14.754 25.375Zm0 0"/><path fill="#1c2638" d="m44.16 218.984-17.625 3.168 22.524-30.867Zm0 0"/><path fill="#1c2638" d="m54.746 214.754-10.586 4.23 4.899-27.699Zm0 0"/><path fill="#432534" d="m44.16 218.984 10.586-4.23-1.61 40.34Zm0 0"/><path fill="#1c2638" d="m110.473 271.8 8.777-.175-.668 3.05Zm0 0"/><path fill="#95dfcb" d="m270.977 161.96-11.985 18.911-1.762-21.984ZM258.992 180.871l11.985-18.91 9.757 10.726ZM258.992 180.871l21.742-8.184-2.46 25.395Zm0 0"/><path fill="#1c2537" d="m298.672 250.95-27.55-28.512 35.37 6.027Zm0 0"/><path fill="#342535" d="m265.516 254.234 5.605-31.797 27.55 28.512Zm0 0"/><path fill="#95dfcb" d="m257.684 201.203-.04-5.676 20.63 2.555Zm0 0"/><path fill="#95dfcb" d="m257.645 195.527 1.347-14.656 19.281 17.211Zm0 0"/><path fill="#f04e52" d="m333.781 242.922-35.11 8.027 7.821-22.484Zm0 0"/><path fill="#1c2537" d="m175.43 235.277-13.93-12.953 28.688-8.168Zm0 0"/><path fill="#532432" d="m228.668 253.734-4.008 21.278-9.176-1.282Zm0 0"/><path fill="#98222c" d="m182.285 256.8 46.383-3.066-13.184 19.996Zm0 0"/><path fill="#212537" d="m228.668 253.734-46.383 3.067 44.617-20.7Zm0 0"/><path fill="#1c2537" d="m226.902 236.102-51.472-.825 14.757-21.12Zm0 0"/><path fill="#95dfcb" d="m367.355 258.785 16.645 1.5-12.738 7.27Zm0 0"/><path fill="#1d2638" d="m363.988 241.14 10.985-14.292 9.023 14.644Zm0 0"/><path fill="#94dfcb" d="m367.355 258.785-3.367-17.644 20.008.351Zm0 0"/><path fill="#95dfcb" d="m354.957 310.742-18.238-5.21 1.043-22.692Zm0 0"/><path fill="#ef4f53" d="m367.832 283.914-7.434-2.273 10.864-14.086Zm0 0"/><path fill="#95deca" d="m360.398 281.64 6.957-22.855 3.907 8.77Zm0 0"/><path fill="#252537" d="m371.41 307.773 12.594-5.789.02 30.618Zm0 0"/><path fill="#1c2537" d="m371.41 307.773-16.453 2.97 6.234-11.614Zm0 0"/><path fill="#95dfcb" d="m336.152 324.738 18.805-13.996 5.711 17.617Zm0 0"/><path fill="#1d2638" d="m354.957 310.742 16.453-2.969-10.742 20.586Zm0 0"/><path fill="#95dfcb" d="m336.719 305.531 18.238 5.211-18.805 13.996Zm0 0"/><path fill="#6a3841" d="m374.723 353.047 9.3-20.445L384 384Zm0 0"/><path fill="#1e2537" d="m384.023 332.602-9.3 20.445-14.055-24.688Zm0 0"/><path fill="#bda096" d="m190.93 368.156 41.734 15.848-72.375-.008Zm0 0"/><path fill="#242637" d="m190.93 368.156 1.375-18.43 21.238 2.45Zm0 0"/><path fill="#1f2537" d="m233.195 375.227-19.652-23.051 38.234-3.754Zm0 0"/><path fill="#4c2634" d="m233.195 375.227-42.265-7.07 22.613-15.981Zm0 0"/><path fill="#ca7775" d="m190.93 368.156 42.265 7.07-.53 8.778Zm0 0"/><path fill="#f04e52" d="m218.746 311.266.277 21.406-11.386-21.883Zm0 0"/><path fill="#f04f52" d="m219.023 332.672-23.402 2.285 12.016-24.168Zm0 0"/><path fill="#ef4f53" d="m213.543 352.176 5.48-19.504 32.754 15.75Zm0 0"/><path fill="#ee5154" d="m195.621 334.957 23.402-2.285-5.48 19.504Zm0 0"/><path fill="#5d2532" d="m295.129 344.809-1.55 23.257-27.583 10.325Zm0 0"/><path fill="#1f2537" d="m251.777 348.422 43.352-3.613-29.133 33.582Zm0 0"/><path fill="#ef5053" d="m295.129 344.809-43.352 3.613 10.485-27.586Zm0 0"/><path fill="#f04f53" d="m336.152 324.738-41.023 20.07 8.734-34.171Zm0 0"/><path fill="#1c2638" d="m384 0-40.375 38.691L308.102 0Zm0 0"/><path fill="#1c2638" d="M384 60.84 343.625 38.69 384 0ZM242.367 20.64l-26.613-3.32 27.691-5.039Zm0 0"/><path fill="#ef5054" d="m263.43 40.508 19.797-12.38-2.168 14.048Zm0 0"/><path fill="#b5aca0" d="m242.367 20.64-23.402 10.04-3.211-13.36Zm0 0"/><path fill="#f04e52" d="m137.395 105.844 21.296-58.906 31.461 57.152ZM254.727 145.535l14.082 1.176-11.579 12.176Zm0 0"/><path fill="#1c2637" d="m244.117 137.621-8.847-8.637 18.402-.605Zm0 0"/><path fill="#f04e52" d="m235.27 128.984 3.648-19.949 14.754 19.344ZM275.988 125.512l-13.937-24.645 36.824-3.258ZM345.336 100.395l-3.387 13.164-1.062-17.227ZM330.332 114.305l-17.43-31.336 27.985 13.363Zm0 0"/><path fill="#f04e52" d="m341.95 113.559-11.618.746 10.555-17.973Zm0 0"/><path fill="#95dfcb" d="m330.332 114.305 11.617-.746-.562 20.238Zm0 0"/><path fill="#95dfcb" d="m341.387 133.797 23.66-11.059-3.254 22.383ZM298.71 164.164l-5.452 19.094-12.524-10.57Zm0 0"/><path fill="#1c2637" d="m374.973 226.848-12.391-11.934 21.414-6.215Zm0 0"/><path fill="#1c2638" d="m362.582 214.914-6.293-15.316 27.707 9.101Zm0 0"/><path fill="#1c2638" d="m362.582 214.914-24.234-.36 17.941-14.956Zm0 0"/><path fill="#f04d51" d="m321.887 194.895 29.972-9.368-17.765 18.317Zm0 0"/><path fill="#1c2537" d="m338.348 214.555-4.567 28.367-16.988-24.836Zm0 0"/><path fill="#f14e52" d="m334.094 203.844 4.254 10.71-21.555 3.532Zm0 0"/><path fill="#95dfcb" d="m315.402 119.715 14.93-5.41 11.055 19.492Zm0 0"/><path fill="#1c2638" d="m358.934 115.871-13.598-15.476 14.3-17.598Zm0 0"/><path fill="#1c2637" d="m384 102-25.066 13.871.703-33.074Zm0 0"/><path fill="#1c2638" d="M358.934 115.871 384 102l-18.953 20.738Zm0 0"/><path fill="#95dfcb" d="m341.387 133.797 17.547-17.926 6.113 6.867Zm0 0"/><path fill="#f04f52" d="m312.902 82.969 19.364-13.864 8.62 27.227Zm0 0"/><path fill="#1c2537" d="m332.266 69.105 27.37 13.692-18.75 13.535Zm0 0"/><path fill="#1c2638" d="m359.637 82.797-27.371-13.692 11.359-30.414ZM0 78.531l16.176 76.012L0 168.993ZM16.176 154.543l7.64-66.25 3.965 57.035Zm0 0"/><path fill="#1c2638" d="m0 78.531 23.816 9.762-7.64 66.25Zm0 0"/><path fill="#b0b4a7" d="m215.754 17.32-19.719 9.567-1.777-8.32Zm0 0"/><path fill="#f04e52" d="m114.754 61.793 43.937-14.855-21.296 58.906ZM114.754 61.793l22.64 44.05-39.007 2.548Zm0 0"/><path fill="#f04f52" d="m114.754 61.793-16.367 46.598-6.532-37.57Zm0 0"/><path fill="#dc6e6d" d="m91.855 70.82-3.261-22.746 26.16 13.719Zm0 0"/><path fill="#1c2537" d="m123.883 235.727-17.66 13.726-11.22-24.371Zm0 0"/><path fill="#2a2536" d="m110.473 271.8-4.25-22.347 13.027 22.172Zm0 0"/><path fill="#94dfcb" d="m180.191 292.629 40.329-2.938-12.883 21.098Zm0 0"/><path fill="#ef5054" d="m178.89 321.29 1.301-28.661 27.446 18.16Zm0 0"/><path fill="#f04e52" d="m150.215 325.734-28.004-28.203 29.387 2.91Zm0 0"/><path fill="#ef5054" d="m150.215 325.734 14.347 22.516-25.273.758Zm0 0"/><path fill="#ef5154" d="m150.215 325.734 28.676-4.445-14.328 26.961Zm0 0"/><path fill="#1e2537" d="m86.629 340.246 6.762-4.933 10.796 26.824Zm0 0"/><path fill="#222637" d="m86.629 340.246 17.558 21.89-30.253-17.261Zm0 0"/><path fill="#1c2537" d="m82.813 329.012 3.816 11.234-12.695 4.629Zm0 0"/><path fill="#f04f53" d="m98.492 324.316-8.789-13.27 19.68 1.786Zm0 0"/><path fill="#ef4f53" d="m93.39 335.313 5.102-10.997 40.797 24.692Zm0 0"/><path fill="#f04e52" d="m89.703 311.047-6.89 17.965-8.325-13.992Zm0 0"/><path fill="#cd817c" d="M.004 307.043v-32.707l16.953-1.484Zm0 0"/><path fill="#1c2638" d="m16.957 272.852-16.96-.204.01-14.902Zm0 0"/><path fill="#24293a" d="M16.957 272.852.004 274.336l-.008-1.688Zm0 0"/><path fill="#94deca" d="m26.785 247.578 17.375-28.594 8.977 36.11Zm0 0"/><path fill="#98dac7" d="m-.012 232.215 26.797 15.363L.008 257.746Zm0 0"/><path fill="#94dfcb" d="M26.785 247.578-.012 232.215l26.547-10.063Zm0 0"/><path fill="#94dfcb" d="m44.16 218.984-17.375 28.594-.25-25.426ZM26.785 247.578l-9.828 25.274-16.95-15.106Zm0 0"/><path fill="#95dfcb" d="m45.758 269.2-18.973-21.622 26.352 7.516Zm0 0"/><path fill="#94decb" d="m16.957 272.852 9.828-25.274L45.758 269.2Zm0 0"/><path fill="#252537" d="m298.672 250.95 17.644 23.429-31.59-.3Zm0 0"/><path fill="#9c232c" d="m335.582 249.484-36.91 1.465 35.11-8.027Zm0 0"/><path fill="#95dfcb" d="m262.262 320.836-20.828-12.531 46.933-11.055ZM241.434 308.305 220.52 289.69l23.445-.086Zm0 0"/><path fill="#1c2638" d="m220.52 289.691 20.914 18.614-22.688 2.96Zm0 0"/><path fill="#84232d" d="m182.285 256.8-5.308 20.766-34.883-23.398Zm0 0"/><path fill="#98dac7" d="m360.398 281.64-22.636 1.2 11.222-20.844Zm0 0"/><path fill="#f04e52" d="m219.023 332.672 18.762-9.352 13.992 25.102ZM237.785 323.32l-18.762 9.352-.277-21.406ZM237.785 323.32l24.477-2.484-10.485 27.586Zm0 0"/><path fill="#f04f53" d="m241.434 308.305-3.649 15.015-19.039-12.054Zm0 0"/><path fill="#f04e52" d="m237.785 323.32 3.649-15.015 20.828 12.53Zm0 0"/><path fill="#1c2638" d="m262.719 22.07-20.352-1.43 1.078-8.359Zm0 0"/><path fill="#dc6d6c" d="m242.367 20.64 20.352 1.43.71 18.438Zm0 0"/><path fill="#cc8781" d="m262.719 22.07 20.508 6.059-19.797 12.379Zm0 0"/><path fill="#1c2638" d="m283.227 28.129-20.508-6.059 20.515-7.172ZM263.105 0l-.386 22.07-19.274-9.789Zm0 0"/><path fill="#1c2638" d="M262.719 22.07 263.105 0l20.13 14.898Zm0 0"/><path fill="#ef5053" d="m180.59 135.66 9.562-31.57 14.75 31.101Zm0 0"/><path fill="#1c2638" d="m269.848 132.918-16.176-4.54 22.316-2.866Zm0 0"/><path fill="#95dfcb" d="m232.648 175.773-1.84-10.218 26.422-6.668Zm0 0"/><path fill="#f04e52" d="m230.809 165.555 23.918-20.02 2.503 13.352ZM190.152 104.09l36.555-38.508 12.211 43.453ZM253.672 128.379l8.379-27.512 13.937 24.645Zm0 0"/><path fill="#ee5255" d="m238.918 109.035 23.133-8.168-8.38 27.512Zm0 0"/><path fill="#95dfcb" d="m270.977 161.96 19.46-12.128-9.703 22.856ZM290.438 149.832l8.273 14.332-17.977 8.524Zm0 0"/><path fill="#1c2637" d="m293.258 183.258 28.629 11.637-28.797 3.886Zm0 0"/><path fill="#1c2637" d="m298.71 164.164 23.177 30.73-28.63-11.636Zm0 0"/><path fill="#95decb" d="m363.988 241.14-1.406-26.226 12.39 11.934Zm0 0"/><path fill="#f14e52" d="m356.29 199.598-17.942 14.957-4.254-10.711ZM351.86 185.527l4.43 14.07-22.196 4.247Zm0 0"/><path fill="#8c222c" d="m335.582 249.484-1.8-6.562 18.562-2.145Zm0 0"/><path fill="#95dfcb" d="m315.402 119.715-13.957 23.805-25.457-18.008ZM321.305 150.586l20.082-16.79 4.617 24.774Zm0 0"/><path fill="#95dfcb" d="m321.305 150.586-5.903-30.871 25.985 14.082Zm0 0"/><path fill="#95dfcb" d="m315.402 119.715 5.903 30.87-19.86-7.065Zm0 0"/><path fill="#94dfcb" d="m346.004 158.57-4.617-24.773 20.406 11.324Zm0 0"/><path fill="#95dfcb" d="m323.188 182.418 22.816-23.848 5.855 26.957Zm0 0"/><path fill="#95dfcb" d="m323.188 182.418-1.883-31.832 24.699 7.984Zm0 0"/><path fill="#94dfcb" d="m323.188 182.418-1.301 12.477-23.176-30.73Zm0 0"/><path fill="#1c2638" d="m323.188 182.418 28.671 3.11-29.972 9.367Zm0 0"/><path fill="#95dfcb" d="m341.95 113.559 16.984 2.312-17.547 17.926Zm0 0"/><path fill="#1c2638" d="m358.934 115.871-16.985-2.312 3.387-13.164Zm0 0"/><path fill="#f04e52" d="m315.402 119.715-16.527-22.106 31.457 16.696Zm0 0"/><path fill="#f04e52" d="m330.332 114.305-31.457-16.696 14.027-14.64ZM312.902 82.969l-14.027 14.64-21.957-29.175Zm0 0"/><path fill="#f04f52" d="m98.387 108.39-29.324-17 22.792-20.57Zm0 0"/><path fill="#f04f53" d="m98.387 108.39 20.39 16.169-14.816 17.863Zm0 0"/><path fill="#ed5356" d="m69.914 69.148-.852 22.243-14.07-16.489Zm0 0"/><path fill="#c6918a" d="m69.914 69.148-14.922 5.754 11.024-11.058Zm0 0"/><path fill="#b8a89d" d="m88.594 48.074-18.68 21.074-3.898-5.304Zm0 0"/><path fill="#ee5255" d="m69.063 91.39-29.708 6.7 15.637-23.188Zm0 0"/><path fill="#1c2638" d="M54.992 74.902 39.355 98.09l-15.539-9.797Zm0 0"/><path fill="#1c2638" d="m23.816 88.293 15.54 9.797-11.575 47.238Zm0 0"/><path fill="#e36263" d="m218.965 30.68-22.93-3.793 19.719-9.567Zm0 0"/><path fill="#d17f7b" d="m196.035 26.887 6.223 17.008-43.567 3.042Zm0 0"/><path fill="#86232d" d="m142.094 254.168 34.883 23.398-19.329 13.957Zm0 0"/><path fill="#977f7b" d="M11.816 313.867-.02 345.441l.024-38.398Zm0 0"/><path fill="#b09a92" d="m-.02 345.441 10.602 10.59L-.02 370.508Zm0 0"/><path fill="#562432" d="m176.977 277.566 5.308-20.765 33.2 16.93Zm0 0"/><path fill="#6a2330" d="m220.52 289.691-43.543-12.125 38.507-3.836Zm0 0"/><path fill="#1c2537" d="m180.191 292.629-3.214-15.063 43.543 12.125Zm0 0"/><path fill="#ef4f53" d="m167.543 311.895 12.648-19.266-1.3 28.66Zm0 0"/><path fill="#94dfcb" d="m122.035 280.941-3.453-6.265 33.016 25.765Zm0 0"/><path fill="#95dfcb" d="m118.582 274.676 39.066 16.847-6.05 8.918Zm0 0"/><path fill="#1c2537" d="m86.629 340.246-3.817-11.234 10.579 6.3Zm0 0"/><path fill="#ef5053" d="m82.813 329.012 15.68-4.696-5.102 10.997Zm0 0"/><path fill="#ef5054" d="m98.492 324.316-15.68 4.696 6.891-17.965Zm0 0"/><path fill="#ef4f53" d="m109.383 312.832 40.832 12.902-10.926 23.274Zm0 0"/><path fill="#ef5054" d="m98.492 324.316 10.89-11.484 29.907 36.176Zm0 0"/><path fill="#f04e52" d="m150.215 325.734-40.832-12.902 12.828-15.3Zm0 0"/><path fill="#1c2537" d="m284.727 274.078 6.777 11.774-11.117-2.723Zm0 0"/><path fill="#212537" d="m316.316 274.379-24.812 11.473-6.777-11.774Zm0 0"/><path fill="#95e0cc" d="m280.387 283.129 11.117 2.723-9.957 4.53Zm0 0"/><path fill="#95dfcb" d="m291.504 285.852-3.137 11.398-6.82-6.867Zm0 0"/><path fill="#94deca" d="m337.762 282.84-21.446-8.461 32.668-12.383Zm0 0"/><path fill="#402534" d="m316.316 274.379 19.266-24.895 13.402 12.512Zm0 0"/><path fill="#95222b" d="m335.582 249.484-19.266 24.895-17.644-23.43Zm0 0"/><path fill="#95dfcb" d="m291.504 285.852 21.098 11.753-24.235-.355Zm0 0"/><path fill="#95e0cc" d="m312.602 297.605-21.098-11.753 24.812-11.473Zm0 0"/><path fill="#95dfcb" d="m288.367 297.25 24.235.355-8.739 13.032Zm0 0"/><path fill="#95dfcb" d="m312.602 297.605 23.55 27.133-32.289-14.101Zm0 0"/><path fill="#ee4e52" d="m175.43 235.277 6.855 21.524-40.191-2.633Zm0 0"/><path fill="#1c2537" d="m182.285 256.8-6.855-21.523 51.472.825Zm0 0"/><path fill="#8b222c" d="m363.988 241.14-15.004 20.856 3.36-21.219Zm0 0"/><path fill="#8c222c" d="m348.984 261.996-13.402-12.512 16.762-8.707Zm0 0"/><path fill="#95dfcb" d="m367.355 258.785-18.37 3.211 15.003-20.855Zm0 0"/><path fill="#95dfcb" d="m360.398 281.64-11.414-19.644 18.371-3.21Zm0 0"/><path fill="#f04e52" d="m262.05 100.867 14.868-32.433 21.957 29.175Zm0 0"/><path fill="#f04e52" d="m226.707 65.582 35.344 35.285-23.133 8.168Zm0 0"/><path fill="#ef4f53" d="m226.707 65.582-24.45-21.687 16.708-13.215ZM226.707 65.582l15.66-44.941 21.063 19.867Zm0 0"/><path fill="#e9595b" d="m226.707 65.582-7.742-34.902 23.402-10.04Zm0 0"/><path fill="#f04e52" d="m235.27 128.984-45.118-24.894 48.766 4.945Zm0 0"/><path fill="#ed5256" d="m190.152 104.09 45.118 24.894-30.368 6.207Zm0 0"/><path fill="#1c2637" d="m269.848 132.918-15.121 12.617-1.055-17.156Zm0 0"/><path fill="#1c2537" d="m254.727 145.535-10.61-7.914 9.555-9.242Zm0 0"/><path fill="#f04d51" d="m254.727 145.535 15.12-12.617-1.038 13.793Zm0 0"/><path fill="#f04e52" d="m230.809 165.555-23.188 3.918-2.492-13.434Zm0 0"/><path fill="#95dfcb" d="m207.621 169.473 23.188-3.918 1.84 10.218Zm0 0"/><path fill="#1c2537" d="m235.27 128.984-5.72 22.258-24.648-16.05Zm0 0"/><path fill="#1c2537" d="m204.902 135.191 24.649 16.051-24.422 4.797Zm0 0"/><path fill="#f04e52" d="m229.55 151.242 1.259 14.313-25.68-9.516Zm0 0"/><path fill="#f04f53" d="m190.152 104.09-31.46-57.152 68.015 18.644Zm0 0"/><path fill="#95dfcb" d="m268.809 146.71 21.628 3.122-19.46 12.129Zm0 0"/><path fill="#94dfcb" d="m301.445 143.52-11.007 6.312-14.45-24.32Zm0 0"/><path fill="#1c2637" d="m290.438 149.832-20.59-16.914 6.14-7.406Zm0 0"/><path fill="#1c2537" d="m269.848 132.918 20.59 16.914-21.63-3.121Zm0 0"/><path fill="#5e2331" d="m333.781 242.922 28.801-28.008-10.238 25.863Zm0 0"/><path fill="#472433" d="m362.582 214.914-28.8 28.008 4.566-28.367Zm0 0"/><path fill="#f04e52" d="m98.387 108.39-36.715 7.52 7.39-24.52Zm0 0"/><path fill="#f04e52" d="M61.672 115.91 39.355 98.09l29.708-6.7Zm0 0"/><path fill="#b3b0a4" d="m91.855 70.82-21.94-1.672 18.679-21.074Zm0 0"/><path fill="#e95a5c" d="m69.914 69.148 21.941 1.672-22.793 20.57Zm0 0"/><path fill="#bda096" d="m202.258 43.895-6.223-17.008 22.93 3.793Zm0 0"/><path fill="#8b222c" d="m136.89 244.41-17.64 27.215-13.027-22.172Zm0 0"/><path fill="#3a2534" d="m119.25 271.625 22.844-17.457 15.554 37.355Zm0 0"/><path fill="#94dfcb" d="m118.582 274.676.668-3.051 38.398 19.898Zm0 0"/><path fill="#1c2537" d="m161.5 222.324 13.93 12.953-38.54 9.133Zm0 0"/><path fill="#492635" d="m-.02 345.441 23.633 1.313-13.031 9.277Zm0 0"/><path fill="#91222c" d="M23.613 346.754-.02 345.44l11.836-31.574Zm0 0"/><path fill="#1d2537" d="m180.191 292.629-22.543-1.106 19.329-13.957Zm0 0"/><path fill="#94dfcb" d="m167.543 311.895-9.895-20.372 22.543 1.106Zm0 0"/><path fill="#ef4f53" d="m150.215 325.734 17.328-13.84 11.348 9.395Zm0 0"/><path fill="#f04e52" d="m167.543 311.895-17.328 13.84 1.383-25.294Zm0 0"/><path fill="#96deca" d="m157.648 291.523 9.895 20.372-15.945-11.454Zm0 0"/><path fill="#95dfcb" d="m336.152 324.738-23.55-27.133 24.117 7.926Zm0 0"/><path fill="#95dfcb" d="m336.719 305.531-24.117-7.926 25.16-14.765Zm0 0"/><path fill="#95e0cc" d="m312.602 297.605 3.714-23.226 21.446 8.46Zm0 0"/><path fill="#f04f53" d="m276.918 68.434-14.867 32.433-35.344-35.285Zm0 0"/><path fill="#f04e52" d="m276.918 68.434-50.211-2.852 36.723-25.074ZM230.809 165.555l-1.258-14.313 25.176-5.707Zm0 0"/><path fill="#1c2537" d="m254.727 145.535-25.176 5.707 14.566-13.62ZM229.55 151.242l5.72-22.258 8.847 8.637Zm0 0"/><path fill="#95dfcb" d="m298.71 164.164-8.272-14.332 11.007-6.312ZM321.305 150.586l-22.594 13.578 2.734-20.644ZM323.188 182.418l-24.477-18.254 22.594-13.578Zm0 0"/><path fill="#ef4f53" d="M72.738 143.957 61.672 115.91l36.715-7.52Zm0 0"/><path fill="#92222b" d="m84.27 167.273-11.532-23.316 31.223-1.535Zm0 0"/><path fill="#f04e52" d="m72.738 143.957 25.649-35.566 5.574 34.03Zm0 0"/><path fill="#93222b" d="m42.836 323.11-19.223 23.644-11.797-32.887Zm0 0"/><path fill="#ee5154" d="m27.781 145.328 33.89-29.418 11.067 28.047Zm0 0"/><path fill="#f04d51" d="m39.355 98.09 22.317 17.82-33.89 29.418Zm0 0"/><path fill="#98222b" d="m142.094 254.168-22.844 17.457 17.64-27.215Zm0 0"/><path fill="#1c2537" d="m175.43 235.277-33.336 18.891-5.203-9.758Zm0 0"/></svg>