<svg xmlns="http://www.w3.org/2000/svg" width="512" height="512" viewBox="0 0 384 384"><path fill="#9a232b" d="m192.07 169.531 12.899 11.707-13.637 3.598Zm0 0"/><path fill="#96ddca" d="m211.145 57.703 9.996-29.289 12.582 21.961Zm0 0"/><path fill="#d9f1e8" d="m52.48 110.004-2.496-53.758 30.582 27.555Zm0 0"/><path fill="#d9f1e8" d="m49.984 56.246 2.496 53.758L0 82.578ZM126.172 27.086l-33.766 26.84L83.156 0Zm0 0"/><path fill="#d9f1e8" d="m113.023 55.602-20.617-1.676 33.766-26.84ZM49.984 56.246l42.422-2.32L80.566 83.8Zm0 0"/><path fill="#d9f1e8" d="m92.406 53.926-42.422 2.32L83.156 0Zm0 0"/><path fill="#daf2e9" d="M105.32 354.672 117.09 384l-73.383-36.363Zm0 0"/><path fill="#282637" d="m250.621 117.672.387 27.394-10.45-6.375Zm0 0"/><path fill="#2e2939" d="m240.156 263.035 22.719-.789-25.602 16.211Zm0 0"/><path fill="#daf2e9" d="M330.602 330.14 297.348 384l-7.332-41.723Zm0 0"/><path fill="#daf2e9" d="m297.348 384-33.02-30.219 25.688-11.504Zm0 0"/><path fill="#d9f1e8" d="m334.36 286.543 49.64 5.203-53.398 38.395Zm0 0"/><path fill="#d9f2e8" d="M348.363 234.074 384 291.746l-49.64-5.203Zm0 0"/><path fill="#d9f1e8" d="m384 291.746-35.637-57.672L384 197.781ZM325.16 54.977l-33 23.605-12.566-16.219Zm0 0"/><path fill="#d8f0e7" d="m304.637 0-25.864 28.945L233.82 0Zm0 0"/><path fill="#d9f1e8" d="M126.172 27.086 83.156 0h81.742ZM0 0l49.984 56.246L0 82.578Zm0 0"/><path fill="#d9f1e8" d="M0 0h83.156L49.984 56.246ZM113.023 55.602l-.156 16.855-20.46-18.531ZM87.7 195.766l-14.68-8.774 38.734-.976Zm0 0"/><path fill="#56807f" d="m94.313 210.078 19.558 2.367-19.473 11.782Zm0 0"/><path fill="#375059" d="m79.438 218.176 14.874-8.098.086 14.149Zm0 0"/><path fill="#d9f1e8" d="m0 275.39 48.613 18.04-4.906 54.207ZM325.16 54.977l-14.254 63.421-18.746-39.816Zm0 0"/><path fill="#daf2e9" d="m384 131.293-34.687-22.34L384 78.855Zm0 0"/><path fill="#662431" d="m179.27 178.02 12.8-8.489-.738 15.305Zm0 0"/><path fill="#1e293a" d="m185.246 88.742-18.137 16.16-10.832-18.55Zm0 0"/><path fill="#5e8b89" d="m147.363 117.879 19.746-12.977 1.465 24.621Zm0 0"/><path fill="#3b565e" d="m267.23 102.098-16.609 15.574-5.226-14.578Zm0 0"/><path fill="#ac4c4f" d="m283.602 274.45 7.757.214-9.988 13.04Zm0 0"/><path fill="#9ad3c1" d="m240.156 263.035-24.113-8.797 27.73-3.64Zm0 0"/><path fill="#97dbc8" d="m243.773 250.598-27.742-12.22 33.133-11.425Zm0 0"/><path fill="#95dfcb" d="m216.043 254.238-.012-15.86 27.742 12.22Zm0 0"/><path fill="#daf2e9" d="m297.348 384 33.254-53.86L384 384Zm0 0"/><path fill="#d9f1e8" d="m302.2 295.164-10.84-20.5 27.867-1.531ZM197.941 384.023l66.387-30.242L297.348 384ZM233.82 0l9.102 29.281-21.781-.867Zm0 0"/><path fill="#8dd5c3" d="m187.102 34.129 34.039-5.715-9.996 29.29Zm0 0"/><path fill="#334a54" d="m187.102 34.129-16.559 15.496-4.863-18.176Zm0 0"/><path fill="#d9f1e8" d="m233.82 0 44.953 28.945-35.851.336Zm0 0"/><path fill="#5b8584" d="m190.832 22.48-3.73 11.649-21.422-2.68Zm0 0"/><path fill="#d9f1e8" d="m221.14 28.414-30.308-5.934L233.82 0Zm0 0"/><path fill="#7dbbaf" d="m187.102 34.129 3.73-11.649 30.309 5.934Zm0 0"/><path fill="#d9f1e8" d="m132.66 46.926-19.637 8.676 13.149-28.516ZM126.172 27.086 164.898 0l.782 31.45ZM100.242 79.5l-19.676 4.3 11.84-29.874Zm0 0"/><path fill="#d9f1e8" d="M112.867 72.457 100.242 79.5l-7.836-25.574ZM80.566 83.8l19.676-4.3-2.36 19.617ZM0 160.102l32.195 45.484L0 275.39ZM63.402 217.422l-31.207-11.836 40.825-18.594Zm0 0"/><path fill="#daf2e9" d="m32.195 205.586 28.489-46.305 12.336 27.711Zm0 0"/><path fill="#496c6f" d="m131.324 213.293-.613 7.633-16.84-8.48Zm0 0"/><path fill="#92dbc8" d="m130.71 220.926 26.645.816-1.93 17.074Zm0 0"/><path fill="#91dac7" d="m113.871 212.445.602 10.758-20.075 1.024Zm0 0"/><path fill="#73ada3" d="m130.71 220.926-16.237 2.277-.602-10.758Zm0 0"/><path fill="#d9f1e8" d="m78.5 208.293-5.48-21.3 14.68 8.773Zm0 0"/><path fill="#1d293a" d="M94.313 210.078 78.5 208.293l9.2-12.527Zm0 0"/><path fill="#304651" d="m78.5 208.293 15.813 1.785-14.876 8.098Zm0 0"/><path fill="#6da29a" d="m73.355 235.5-9.953-18.078 16.035.754Zm0 0"/><path fill="#252738" d="m73.355 235.5-2.64 9.727-15.973-10.72Zm0 0"/><path fill="#332636" d="m70.715 245.227 2.64-9.727 15.106 11.45Zm0 0"/><path fill="#88ccbc" d="m73.355 235.5 6.082-17.324 14.961 6.05Zm0 0"/><path fill="#70a79e" d="M88.46 246.95 73.356 235.5l21.043-11.273Zm0 0"/><path fill="#d9f1e8" d="M90.723 105.555 80.566 83.8l17.317 15.316ZM104.836 109.418l-14.113-3.863 7.16-6.438Zm0 0"/><path fill="#d9f1e8" d="m80.566 83.8 10.157 21.755-38.243 4.449ZM52.48 110.004l30.317 19.578-22.113 29.7Zm0 0"/><path fill="#ba6b6a" d="m262.875 262.246-13.934 30.356-11.668-14.145Zm0 0"/><path fill="#d9f1e8" d="m124.406 339.242.485 14.684-10.454-11.961Zm0 0"/><path fill="#d9f1e8" d="m124.89 353.926-.484-14.684 20.57 1.633ZM82.879 322.941l19.086-17.558 14.094 22.824ZM0 384V275.39l43.707 72.247Zm0 0"/><path fill="#262637" d="m105.09 292.664-18.582-20.566 26.57 14.406Zm0 0"/><path fill="#d9f1e8" d="m76.375 258.348 10.133 13.75-14.778 3.234Zm0 0"/><path fill="#3a2535" d="m76.375 258.348-5.66-13.121 17.746 1.722Zm0 0"/><path fill="#d9f1e8" d="m70.715 245.227-12.742 15.558-3.23-26.277Zm0 0"/><path fill="#daf2e9" d="M117.09 384H0l43.707-36.363ZM82.879 322.941l22.441 31.73-61.613-7.034Zm0 0"/><path fill="#d9f1e8" d="m82.879 322.941-39.172 24.696 4.906-54.207Zm0 0"/><path fill="#daf2e9" d="M342.332 149.426 384 131.293v66.488Zm0 0"/><path fill="#daf2e9" d="m384 131.293-41.668 18.133 6.98-40.473Zm0 0"/><path fill="#d9f1e8" d="m325.16 54.977-46.387-26.032L304.637 0ZM152.703 162.77l14.012 2.82-13.153 11.058Zm0 0"/><path fill="#6b2531" d="m173.707 192.621 5.563-14.601 12.062 6.816Zm0 0"/><path fill="#1f2a3b" d="m168.574 129.523-35.754 7.747 14.543-19.391Zm0 0"/><path fill="#92dbc8" d="m207.773 110.762-19.375-7.43 17.516-18.469Zm0 0"/><path fill="#83c5b6" d="m188.398 103.332-3.152-14.59 20.668-3.879Zm0 0"/><path fill="#1d283a" d="m188.398 103.332-21.289 1.57 18.137-16.16Zm0 0"/><path fill="#262637" d="m187.59 142.879-11.985-6.156 12.766-9.54Zm0 0"/><path fill="#452433" d="m175.605 136.723-7.03-7.2 19.796-2.34Zm0 0"/><path fill="#1d2738" d="m168.574 129.523 19.824-26.191-.027 23.852Zm0 0"/><path fill="#1c2638" d="m188.398 103.332-19.824 26.191-1.465-24.62Zm0 0"/><path fill="#1f2b3c" d="m205.914 84.863.3-16.511 17.599 12.144Zm0 0"/><path fill="#1e293a" d="m206.215 68.352 4.93-10.649 12.667 22.793Zm0 0"/><path fill="#557e7e" d="m250.934 85.305 16.296 16.793-21.835.996Zm0 0"/><path fill="#4b6f72" d="m234.91 91.121 16.024-5.816-5.54 17.789Zm0 0"/><path fill="#95dfcb" d="m234.91 91.121-12.847 1.422 1.75-12.047Zm0 0"/><path fill="#86caba" d="m222.063 92.543-16.149-7.68 17.899-4.367Zm0 0"/><path fill="#507677" d="m222.063 92.543-14.29 18.219-1.859-25.899Zm0 0"/><path fill="#d9f1e8" d="m242.922 29.281-9.2 21.094-12.581-21.96ZM263.664 43.16l15.11-14.215.82 33.418Zm0 0"/><path fill="#d7efe7" d="M278.773 28.945 263.664 43.16l-20.742-13.879Zm0 0"/><path fill="#d9f1e8" d="m263.664 43.16-29.941 7.215 9.199-21.094Zm0 0"/><path fill="#73232f" d="m236.828 148.234 3.73-9.543 10.45 6.375Zm0 0"/><path fill="#d9f1e8" d="m319.227 273.133 29.136-39.059-14.004 52.469Zm0 0"/><path fill="#94dfcb" d="m216.031 238.379 12.574-28.2 20.56 16.774Zm0 0"/><path fill="#d9f1e8" d="M330.602 330.14 384 291.747V384Zm0 0"/><path fill="#1c2739" d="m104.523 200.195-10.21 9.883-6.614-14.312Zm0 0"/><path fill="#d9f1e8" d="m104.523 200.195-16.824-4.43 24.055-9.75Zm0 0"/><path fill="#1d2739" d="m121.293 200.93-16.77-.735 7.23-14.18Zm0 0"/><path fill="#243241" d="m94.313 210.078 10.21-9.883 9.348 12.25Zm0 0"/><path fill="#223040" d="m104.523 200.195 16.77.735-7.422 11.515Zm0 0"/><path fill="#94dfcb" d="m181.438 60.133 24.476 24.73-20.668 3.88Zm0 0"/><path fill="#202c3d" d="m206.215 68.352-24.778-8.22 29.708-2.429Zm0 0"/><path fill="#91dac7" d="m181.438 60.133 24.777 8.219-.3 16.511Zm0 0"/><path fill="#4d7274" d="m181.438 60.133 5.664-26.004 24.043 23.574Zm0 0"/><path fill="#253443" d="m187.102 34.129-5.665 26.004-10.894-10.508Zm0 0"/><path fill="#d9f1e8" d="m154.176 45.875-28.004-18.79 39.508 4.364Zm0 0"/><path fill="#212e3e" d="m170.543 49.625-16.367-3.75 11.504-14.426Zm0 0"/><path fill="#364e57" d="m164.824 70.148 20.422 18.594-28.969-2.39Zm0 0"/><path fill="#1d2739" d="m164.824 70.148-10.648-24.273 16.367 3.75Zm0 0"/><path fill="#699c96" d="m164.824 70.148 16.613-10.015 3.81 28.61Zm0 0"/><path fill="#1e293a" d="m181.438 60.133-16.614 10.015 5.719-20.523Zm0 0"/><path fill="#d9f1e8" d="m278.773 28.945 46.387 26.032-45.566 7.386ZM190.832 22.48 164.898 0h68.922Zm0 0"/><path fill="#d9f1e8" d="m164.898 0 25.934 22.48-25.152 8.97ZM120.246 62.559l-7.379 9.898.156-16.855Zm0 0"/><path fill="#d9f1e8" d="m132.66 46.926-12.414 15.633-7.223-6.957Zm0 0"/><path fill="#1c2638" d="m120.246 62.559 4.149 17.796-11.528-7.898Zm0 0"/><path fill="#d9f1e8" d="m111.723 84.887-11.48-5.387 12.624-7.043ZM124.395 80.355l-12.672 4.532 1.144-12.43ZM100.242 79.5l11.48 5.387-13.84 14.23Zm0 0"/><path fill="#daf2e9" d="m0 160.102 60.684-.82-28.489 46.304Zm0 0"/><path fill="#d9f1e8" d="M60.684 159.281 0 160.101l52.48-50.097Zm0 0"/><path fill="#d9f1e8" d="M52.48 110.004 0 160.102V82.578ZM32.195 205.586l4.047 50.777L0 275.391Zm0 0"/><path fill="#d9f1e8" d="m36.242 256.363 12.371 37.067L0 275.39ZM57.973 260.785l-21.73-4.422 18.5-21.855Zm0 0"/><path fill="#d9f1e8" d="m36.242 256.363 21.73 4.422-9.359 32.645Zm0 0"/><path fill="#8bd1c0" d="m113.91 246.758 16.8-25.832 24.716 17.89Zm0 0"/><path fill="#7cbaad" d="m113.91 246.758.563-23.555 16.238-2.277Zm0 0"/><path fill="#202d3e" d="m131.324 213.293-10.031-12.363 26.316-9.32Zm0 0"/><path fill="#212e3e" d="m121.293 200.93 10.031 12.363-17.453-.848Zm0 0"/><path fill="#7fbeb1" d="m114.473 223.203-.563 23.555-19.512-22.531Zm0 0"/><path fill="#88cdbd" d="m113.91 246.758-25.45.191 5.938-22.722Zm0 0"/><path fill="#314652" d="m63.402 217.422 15.098-9.129.938 9.883Zm0 0"/><path fill="#d9f1e8" d="m78.5 208.293-15.098 9.129 9.618-30.43Zm0 0"/><path fill="#496c6f" d="m73.355 235.5-18.613-.992 8.66-17.086Zm0 0"/><path fill="#d9f1e8" d="m54.742 234.508-22.547-28.922 31.207 11.836Zm0 0"/><path fill="#d9f1e8" d="m54.742 234.508-18.5 21.855-4.047-50.777Zm0 0"/><path fill="#1c2638" d="m82.797 129.582 11.285-2.008 6.934 12.715Zm0 0"/><path fill="#1d283a" d="m132.82 137.27-19.285 12.359-12.52-9.34Zm0 0"/><path fill="#d9f1e8" d="m124.89 353.926-19.57.746 9.118-12.707Zm0 0"/><path fill="#daf2e9" d="m105.32 354.672 19.57-.746-7.8 30.074Zm0 0"/><path fill="#d9f1e8" d="m157.004 353.11-32.113.816 20.086-13.051Zm0 0"/><path fill="#daf2e9" d="m124.89 353.926 32.114-.817L117.09 384Zm0 0"/><path fill="#1c2638" d="m116.059 328.207 8.347 11.035-9.969 2.723Zm0 0"/><path fill="#1e2637" d="m111.664 297.848-9.7 7.535 3.126-12.719Zm0 0"/><path fill="#1e2638" d="m101.965 305.383 7.812 6.172 6.282 16.652Zm0 0"/><path fill="#442534" d="m128.887 287.723-15.809-1.22 7.734-21.534Zm0 0"/><path fill="#6f2732" d="m154.613 284.148-25.726 3.575-8.074-22.754Zm0 0"/><path fill="#d9f1e8" d="m57.973 260.785 18.402-2.437-4.645 16.984Zm0 0"/><path fill="#d9f1e8" d="m76.375 258.348-18.402 2.437 12.742-15.558ZM48.613 293.43l9.36-32.645 13.757 14.547Zm0 0"/><path fill="#332535" d="m76.375 258.348 17.547-.586-7.414 14.336Zm0 0"/><path fill="#2e2637" d="m86.508 272.098 7.414-14.336 19.156 28.742Zm0 0"/><path fill="#4a2634" d="m93.922 257.762 26.89 7.207-7.734 21.535Zm0 0"/><path fill="#3a2635" d="m93.922 257.762-17.547.586 12.086-11.399Zm0 0"/><path fill="#4a6c70" d="m113.91 246.758-19.988 11.004-5.461-10.813Zm0 0"/><path fill="#2f2738" d="m93.922 257.762 19.988-11.004 6.903 18.21Zm0 0"/><path fill="#d9f1e8" d="m78.875 296.438-30.262-3.008 23.117-18.098Zm0 0"/><path fill="#d9f1e8" d="m78.875 296.438 4.004 26.503-34.266-29.511ZM349.313 108.953l-38.407 9.445 14.254-63.421Zm0 0"/><path fill="#daf2e9" d="M342.332 149.426 384 197.78l-50.691-1.426Zm0 0"/><path fill="#d9f1e8" d="M325.16 54.977 384 0v78.855ZM166.715 165.59l2.98 5.96-16.132 5.098Zm0 0"/><path fill="#1e293b" d="m121.293 200.93 14.406-16.325 11.91 7.004Zm0 0"/><path fill="#1d2638" d="m168.574 129.523-16.562 15.625-19.192-7.878Zm0 0"/><path fill="#1c2638" d="m105.953 123.172 26.867 14.098-31.804 3.02Zm0 0"/><path fill="#1d2839" d="m94.082 127.574 11.871-4.402-4.937 17.117Zm0 0"/><path fill="#1e283a" d="m188.398 103.332 19.375 7.43-19.402 16.422Zm0 0"/><path fill="#6f232f" d="m236.828 148.234-14.312 7.758-6.528-19.215Zm0 0"/><path fill="#552432" d="m189.473 149.496 2.597 20.035-8.613-11.695Zm0 0"/><path fill="#95dfcb" d="m228.469 110.445-6.406-17.902 12.847-1.422Zm0 0"/><path fill="#94deca" d="m228.469 110.445 6.441-19.324 10.485 11.973Zm0 0"/><path fill="#47686c" d="m222.063 92.543 6.406 17.902-20.696.317Zm0 0"/><path fill="#253342" d="m250.621 117.672-22.152-7.227 16.926-7.351Zm0 0"/><path fill="#93ddca" d="m238.031 73.422-26.886-15.719 22.578-7.328Zm0 0"/><path fill="#233140" d="m211.145 57.703 26.886 15.719-14.219 7.074Zm0 0"/><path fill="#293b48" d="m238.031 73.422-3.12 17.7-11.099-10.626Zm0 0"/><path fill="#1d2739" d="m238.031 73.422 12.903 11.883-16.024 5.816Zm0 0"/><path fill="#96d9c6" d="m256.969 68.625 6.695-25.465 15.93 19.203Zm0 0"/><path fill="#1d2739" d="m238.031 73.422 18.938-4.797-6.035 16.68Zm0 0"/><path fill="#1d2839" d="m256.969 68.625-18.938 4.797-4.308-23.047Zm0 0"/><path fill="#3d5a61" d="m263.664 43.16-6.695 25.465-23.246-18.25Zm0 0"/><path fill="#a7c1b2" d="m274.434 79.492 17.726-.91-24.93 23.516Zm0 0"/><path fill="#d9f1e8" d="m274.434 79.492 5.16-17.129 12.566 16.219Zm0 0"/><path fill="#94dac7" d="m250.934 85.305 23.5-5.813-7.204 22.606Zm0 0"/><path fill="#7bb4a9" d="m274.434 79.492-17.465-10.867 22.625-6.262Zm0 0"/><path fill="#263645" d="m256.969 68.625 17.465 10.867-23.5 5.813Zm0 0"/><path fill="#212537" d="m254.8 164.2-17.972-15.966 14.18-3.168Zm0 0"/><path fill="#d9f1e8" d="m236.828 148.234 17.973 15.965-17.254-.242Zm0 0"/><path fill="#d9f1e8" d="m254.8 164.2-8.84 12.991-8.413-13.234ZM237.547 163.957l-15.031-7.965 14.312-7.758Zm0 0"/><path fill="#a3c0b1" d="m215.988 136.777 24.57 1.914-3.73 9.543Zm0 0"/><path fill="#252a3b" d="m243.773 250.598 19.102 11.648-22.719.79Zm0 0"/><path fill="#d9f1e8" d="m319.227 273.133-27.868 1.531 31.02-39.91Zm0 0"/><path fill="#d9f1e8" d="m319.227 273.133 3.152-38.38 25.984-.679ZM222.516 155.992l6.164 17.188-23.711 8.058ZM228.68 173.18l-6.164-17.188 15.03 7.965Zm0 0"/><path fill="#94dfcb" d="m208.863 227.871-.793-22.719 20.535 5.028Zm0 0"/><path fill="#91cebd" d="m155.426 238.816 15.785-17.28 37.652 6.335Zm0 0"/><path fill="#96dbc7" d="m216.031 238.379-60.605.437 53.437-10.945Zm0 0"/><path fill="#95decb" d="m155.426 238.816 60.605-.437-47.629 17.137Zm0 0"/><path fill="#884a4f" d="m248.941 292.602-20.66 8.464 8.992-22.609Zm0 0"/><path fill="#d9f1e8" d="m291.36 274.664-3.544 18.828-6.445-5.789Zm0 0"/><path fill="#212738" d="m302.2 295.164-14.384-1.672 3.543-18.828Zm0 0"/><path fill="#d9f1e8" d="m197.941 384.023-2.855-.043 69.242-30.199Zm0 0"/><path fill="#81c1b3" d="M164.824 70.148 132.66 46.926l21.516-1.051Zm0 0"/><path fill="#d9f1e8" d="m154.176 45.875-21.516 1.05-6.488-19.84Zm0 0"/><path fill="#4c7072" d="m128.473 88.742-16.75-3.855 12.672-4.532Zm0 0"/><path fill="#daf2e9" d="m60.684 159.281 39.507 9.301-27.171 18.41Zm0 0"/><path fill="#daf2e9" d="m73.02 186.992 27.171-18.41 11.563 17.434Zm0 0"/><path fill="#2f2636" d="m173.707 192.621-7.676 16.98-6.457-11.39Zm0 0"/><path fill="#1c2638" d="m91.305 115.363 2.777 12.211-11.285 2.008Zm0 0"/><path fill="#d9f1e8" d="m91.305 115.363-.582-9.808 14.113 3.863ZM90.723 105.555l.582 9.808-38.825-5.36Zm0 0"/><path fill="#d9f1e8" d="m91.305 115.363-8.508 14.219-30.317-19.578ZM97.602 153.125l-36.918 6.156 22.113-29.699ZM97.602 153.125l16.273 4.906-13.684 10.551Zm0 0"/><path fill="#1c2738" d="m97.602 153.125 15.933-3.496.34 8.402Zm0 0"/><path fill="#d9f1e8" d="m97.602 153.125-14.805-23.543 18.219 10.707Zm0 0"/><path fill="#1c2638" d="m113.535 149.629-15.933 3.496 3.414-12.836Zm0 0"/><path fill="#daf2e9" d="m60.684 159.281 36.918-6.156 2.59 15.457Zm0 0"/><path fill="#d9f1e8" d="m114.438 341.965-31.56-19.024 33.18 5.266Zm0 0"/><path fill="#d9f1e8" d="m82.879 322.941 31.558 19.024-9.117 12.707Zm0 0"/><path fill="#222638" d="m166.86 349.168 7.937-8.852 6.297 20Zm0 0"/><path fill="#d9f1e8" d="m234.613 339.434-39.527 44.546 14.668-38.648Zm0 0"/><path fill="#daf2e9" d="m195.086 383.98 39.527-44.546 29.715 14.347Zm0 0"/><path fill="#372535" d="m112.691 304.836-1.027-6.988 20.086 11.132Zm0 0"/><path fill="#252637" d="m111.664 297.848 1.027 6.988-10.726.547Zm0 0"/><path fill="#3c2535" d="m144.137 308.45-15.25-20.727 25.726-3.575Zm0 0"/><path fill="#232d3e" d="m152.48 326.605 4.524 26.504-12.027-12.234Zm0 0"/><path fill="#d9f1e8" d="m157.004 353.11-4.524-26.505 14.38 22.563Zm0 0"/><path fill="#d9f1e8" d="m152.48 326.605 22.317 13.711-7.938 8.852Zm0 0"/><path fill="#222537" d="m174.797 340.316-22.317-13.71 3.63-11.817Zm0 0"/><path fill="#d9f1e8" d="m124.406 339.242 19.43-13.699 1.14 15.332ZM143.836 325.543l8.644 1.062-7.503 14.27Zm0 0"/><path fill="#212637" d="m152.48 326.605-8.644-1.062 3.543-7.336Zm0 0"/><path fill="#252839" d="m143.836 325.543-5.113-9.203 8.656 1.867Zm0 0"/><path fill="#3f2a38" d="m213.113 307.645-31.5-21.176 30.723.285Zm0 0"/><path fill="#d9f1e8" d="m101.965 305.383-8.11-9.324 11.235-3.395ZM78.875 296.438l14.98-.38-10.976 26.883ZM348.363 234.074l-15.054-37.719L384 197.781ZM349.313 108.953 325.16 54.977 384 78.855ZM325.16 54.977 304.637 0H384Zm0 0"/><path fill="#352535" d="m173.707 192.621-8.387-7.867 13.95-6.734Zm0 0"/><path fill="#302536" d="m165.32 184.754 4.375-13.203 9.575 6.469Zm0 0"/><path fill="#d9f1e8" d="m169.695 171.55-4.375 13.204-11.757-8.106Zm0 0"/><path fill="#3a2535" d="m165.32 184.754 8.387 7.867-14.133 5.59Zm0 0"/><path fill="#d9f1e8" d="m165.32 184.754-8.613 2.535-3.144-10.64Zm0 0"/><path fill="#1f2637" d="m156.707 187.29 8.613-2.536-5.746 13.457Zm0 0"/><path fill="#d9f1e8" d="m179.07 163.965-9.375 7.586-2.98-5.961Zm0 0"/><path fill="#532533" d="m192.07 169.531-13-5.566 4.387-6.13Zm0 0"/><path fill="#5d2431" d="m179.27 178.02-.2-14.055 13 5.566Zm0 0"/><path fill="#402534" d="m169.695 171.55 9.375-7.585.2 14.055Zm0 0"/><path fill="#362737" d="m179.07 163.965-7.77-11.758 12.157 5.629Zm0 0"/><path fill="#d9f1e8" d="m171.3 152.207 7.77 11.758-12.355 1.625ZM135.7 184.605l17.863-7.957-5.954 14.961Zm0 0"/><path fill="#d9f1e8" d="m153.563 176.648 3.144 10.641-9.098 4.32Zm0 0"/><path fill="#1c2638" d="m121.41 193.23 14.29-8.625-14.407 16.325Zm0 0"/><path fill="#d9f1e8" d="m133.29 174.098-2.009-11.176 21.422-.152Zm0 0"/><path fill="#d9f1e8" d="m153.563 176.648-20.274-2.55 19.414-11.328Zm0 0"/><path fill="#d9f1e8" d="m133.29 174.098 20.273 2.55-17.864 7.957ZM133.29 174.098l-14.552-6.57 12.543-4.606Zm0 0"/><path fill="#1c2638" d="m152.012 145.148-5.29 9.442-13.902-17.32Zm0 0"/><path fill="#d9f1e8" d="m131.281 162.922 15.442-8.332 5.98 8.18Zm0 0"/><path fill="#1e2a3b" d="m105.953 123.172-14.648-7.809 13.53-5.945Zm0 0"/><path fill="#1c2638" d="m91.305 115.363 14.648 7.809-11.871 4.402Zm0 0"/><path fill="#502432" d="m189.473 149.496 13.394 8.938-10.797 11.097Zm0 0"/><path fill="#98222b" d="m192.07 169.531 10.797-11.097 2.102 22.804Zm0 0"/><path fill="#7c232e" d="m202.867 158.434 19.649-2.442-17.547 25.246Zm0 0"/><path fill="#392535" d="m215.988 136.777-26.515 12.72-1.883-6.618Zm0 0"/><path fill="#4c2433" d="m215.988 136.777-28.398 6.102.781-15.695Zm0 0"/><path fill="#1c2638" d="m207.773 110.762 8.215 26.015-27.617-9.593Zm0 0"/><path fill="#472533" d="m215.988 136.777-13.12 21.657-13.395-8.938Zm0 0"/><path fill="#5c2431" d="m222.516 155.992-19.649 2.442 13.121-21.657Zm0 0"/><path fill="#95dbc8" d="m261 215.633 8.73-17.125 28.82 6.043Zm0 0"/><path fill="#94deca" d="M269.73 198.508 261 215.633l-27.27-27.649Zm0 0"/><path fill="#d9f1e8" d="m269.73 198.508-23.77-21.317 19.75-4.222Zm0 0"/><path fill="#d9f1e8" d="m245.96 177.191 23.77 21.317-36-10.524Zm0 0"/><path fill="#daf2e9" d="m264.195 158.555 9.743 5.257-8.227 9.157Zm0 0"/><path fill="#d9f1e8" d="m298.55 204.55 34.759-8.195-11.262 24.247Zm0 0"/><path fill="#1e2638" d="m254.8 164.2-3.792-19.134 13.187 13.489Zm0 0"/><path fill="#d9f1e8" d="m254.8 164.2 9.395-5.645 1.516 14.414Zm0 0"/><path fill="#d9f1e8" d="m245.96 177.191 8.84-12.992 10.91 8.77Zm0 0"/><path fill="#282637" d="m215.988 136.777 7.38-11.66 17.19 13.574Zm0 0"/><path fill="#1d2738" d="m223.367 125.117 27.254-7.445-10.062 21.02Zm0 0"/><path fill="#456469" d="m223.367 125.117 5.102-14.672 22.152 7.227Zm0 0"/><path fill="#1c2638" d="m228.469 110.445-5.102 14.672-15.594-14.355ZM223.367 125.117l-7.379 11.66-8.215-26.015Zm0 0"/><path fill="#95dfcb" d="M282.988 233.297 261 215.633l37.55-11.082Zm0 0"/><path fill="#bb494d" d="m276.324 275.54 7.278-1.09-2.23 13.253Zm0 0"/><path fill="#61333e" d="m276.324 275.54-27.383 17.062 13.934-30.356Zm0 0"/><path fill="#272738" d="m276.324 275.54-16.078 17.366-11.305-.304Zm0 0"/><path fill="#d9f1e8" d="m228.68 173.18 17.28 4.011-12.23 10.793Zm0 0"/><path fill="#d9f1e8" d="m245.96 177.191-17.28-4.011 8.867-9.223Zm0 0"/><path fill="#d84348" d="m191.332 184.836 13.637-3.598 3.101 23.914Zm0 0"/><path fill="#496b6f" d="m208.863 227.871-17.215-19.77 16.422-2.949Zm0 0"/><path fill="#f04e52" d="m191.648 208.102-.316-23.266 16.738 20.316Zm0 0"/><path fill="#ed5155" d="m216.043 254.238 24.113 8.797-2.883 15.422Zm0 0"/><path fill="#462937" d="m189.332 269.793-24.559-4.703 3.63-9.574Zm0 0"/><path fill="#94deca" d="m208.863 227.871 19.742-17.691-12.574 28.199Zm0 0"/><path fill="#8bcebe" d="m216.043 254.238-26.711 15.555-20.93-14.277Zm0 0"/><path fill="#95dfcb" d="m216.031 238.379.012 15.86-47.64 1.277Zm0 0"/><path fill="#94decb" d="m142.672 253.031-28.762-6.273 41.516-7.942Zm0 0"/><path fill="#70a59d" d="m113.91 246.758 28.762 6.273-21.86 11.938Zm0 0"/><path fill="#572634" d="m142.672 253.031 11.941 31.117-33.8-19.18Zm0 0"/><path fill="#8bd1c0" d="m171.21 221.535-15.784 17.281 1.93-17.074Zm0 0"/><path fill="#383240" d="m233.777 322.25-20.664-14.605 15.168-6.579Zm0 0"/><path fill="#9b8b85" d="m233.777 322.25 12.868-6.195-12.032 23.379Zm0 0"/><path fill="#2e2738" d="m242.05 307.715-13.769-6.649 20.66-8.464Zm0 0"/><path fill="#1f2b3c" d="m133.879 73.04 30.945-2.892-8.547 16.204Zm0 0"/><path fill="#79b5a9" d="m133.879 73.04-1.219-26.114 32.164 23.222Zm0 0"/><path fill="#8fd8c5" d="m128.473 88.742 5.406-15.703 22.398 13.313Zm0 0"/><path fill="#4a6d71" d="m133.879 73.04-5.406 15.702-4.078-8.387Zm0 0"/><path fill="#1c2739" d="m120.246 62.559 13.633 10.48-9.484 7.316Zm0 0"/><path fill="#2b3e4b" d="m132.66 46.926 1.219 26.113-13.633-10.48Zm0 0"/><path fill="#87cabb" d="m143.988 100.508-15.515-11.766 27.804-2.39Zm0 0"/><path fill="#93deca" d="m167.11 104.902-23.122-4.394 12.29-14.156Zm0 0"/><path fill="#90d8c6" d="m143.988 100.508 23.121 4.394-19.746 12.977Zm0 0"/><path fill="#293a48" d="m128.473 88.742-15.227 9.559-1.523-13.414Zm0 0"/><path fill="#1d2739" d="m113.246 98.3-8.41 11.118-6.953-10.3Zm0 0"/><path fill="#273846" d="m111.723 84.887 1.523 13.414-15.363.816Zm0 0"/><path fill="#1c2638" d="m156.707 187.29 2.867 10.92-11.965-6.6Zm0 0"/><path fill="#1d283a" d="m159.574 198.21-28.25 15.083 16.285-21.684Zm0 0"/><path fill="#7ab6aa" d="m166.031 209.602 5.18 11.933-13.856.207Zm0 0"/><path fill="#86c9ba" d="m130.71 220.926 35.321-11.324-8.676 12.14Zm0 0"/><path fill="#486a6e" d="m166.031 209.602-35.32 11.324.613-7.633Zm0 0"/><path fill="#243242" d="m159.574 198.21 6.457 11.392-34.707 3.691Zm0 0"/><path fill="#d9f1e8" d="m195.086 383.98-38.082-30.87 9.855-3.942Zm0 0"/><path fill="#d9f1e8" d="m195.086 383.98-77.996.02 39.914-30.89ZM195.086 383.98l-28.227-34.812 14.235 11.148Zm0 0"/><path fill="#d9f1e8" d="m117.09 384 77.996-.02 2.855.043Zm0 0"/><path fill="#942f37" d="m273.156 296.59 3.168-21.05 5.047 12.163Zm0 0"/><path fill="#322b3a" d="m276.324 275.54-3.168 21.05-12.91-3.684Zm0 0"/><path fill="#d9f1e8" d="m222.25 330.34 12.363 9.094-24.86 5.898Zm0 0"/><path fill="#8a3c42" d="m222.25 330.34-16.453 5.305 7.316-28Zm0 0"/><path fill="#523641" d="m205.797 335.645 16.453-5.305-12.496 14.992Zm0 0"/><path fill="#302636" d="m205.797 335.645-22.043-21.165 29.36-6.835Zm0 0"/><path fill="#8b6161" d="m183.754 314.48-2.14-28.011 31.5 21.176Zm0 0"/><path fill="#302536" d="m154.613 284.148 29.14 30.332-27.644.31Zm0 0"/><path fill="#2b2536" d="m181.613 286.469 2.14 28.011-29.14-30.332Zm0 0"/><path fill="#d9f1e8" d="m181.094 360.316 11.082-7.41 2.91 31.074ZM290.016 342.277l-17.754-12.62 20.41-12.212Zm0 0"/><path fill="#202537" d="m111.664 297.848 1.414-11.344 18.672 22.476Zm0 0"/><path fill="#242537" d="m113.078 286.504-1.414 11.344-6.574-5.184Zm0 0"/><path fill="#212738" d="m112.691 304.836-2.914 6.719-7.812-6.172Zm0 0"/><path fill="#d9f1e8" d="m116.059 328.207 13.14-2.73-4.793 13.765ZM129.2 325.477l14.636.066-19.43 13.7Zm0 0"/><path fill="#d9f1e8" d="m143.836 325.543-14.637-.066 9.524-9.137Zm0 0"/><path fill="#252537" d="m144.137 308.45-5.414 7.89-6.973-7.36Zm0 0"/><path fill="#272637" d="m138.723 316.34 5.414-7.89 3.242 9.757Zm0 0"/><path fill="#252537" d="m156.11 314.79-3.63 11.815-5.101-8.398Zm0 0"/><path fill="#2a2536" d="m144.137 308.45 11.972 6.34-8.73 3.417Zm0 0"/><path fill="#d9f1e8" d="m93.855 296.059-10.492-16.207 21.727 12.812Zm0 0"/><path fill="#1c2638" d="m83.363 279.852 10.492 16.207-14.98.378Zm0 0"/><path fill="#d9f1e8" d="m83.363 279.852-4.488 16.586-7.145-21.106Zm0 0"/><path fill="#d9f1e8" d="m86.508 272.098-3.145 7.754-11.633-4.52Zm0 0"/><path fill="#232637" d="m105.09 292.664-21.727-12.812 3.145-7.754Zm0 0"/><path fill="#d9f1e8" d="m96.45 304.79 5.515.593-19.086 17.558Zm0 0"/><path fill="#d9f1e8" d="m96.45 304.79-2.595-8.731 8.11 9.324ZM96.45 304.79 82.878 322.94l10.976-26.882ZM342.332 149.426l-31.426-31.028 38.406-9.445Zm0 0"/><path fill="#94d1c0" d="m310.906 118.398-12.965.192-5.78-40.008Zm0 0"/><path fill="#81b9ad" d="m292.16 78.582 5.781 40.008-30.71-16.492Zm0 0"/><path fill="#242738" d="m263.746 140.219-12.738 4.847-.387-27.394Zm0 0"/><path fill="#292839" d="m251.008 145.066 12.738-4.847.45 18.336Zm0 0"/><path fill="#89cdbd" d="m267.23 102.098 6.422 22.136-23.03-6.562Zm0 0"/><path fill="#1e293a" d="m273.652 124.234-9.906 15.985-13.125-22.547Zm0 0"/><path fill="#34434e" d="m263.746 140.219 9.906-15.985 9.258 17.672Zm0 0"/><path fill="#cceee3" d="m297.941 118.59-24.289 5.644-6.422-22.136Zm0 0"/><path fill="#d9f2e8" d="m322.379 234.754-.332-14.152 26.316 13.472Zm0 0"/><path fill="#d9f1e8" d="m322.047 220.602 11.262-24.247 15.054 37.72Zm0 0"/><path fill="#95dfcb" d="m322.047 220.602.332 14.152-8.543-9.809Zm0 0"/><path fill="#602431" d="m156.906 151.707-4.894-6.559 23.593-8.425Zm0 0"/><path fill="#242738" d="m175.605 136.723-23.593 8.425 16.562-15.625Zm0 0"/><path fill="#81aba1" d="m171.3 152.207 18.173-2.71-6.016 8.339Zm0 0"/><path fill="#94dfcb" d="m189.473 149.496-18.172 2.711 16.289-9.328ZM171.3 152.207l4.305-15.484 11.985 6.156Zm0 0"/><path fill="#d9f1e8" d="m171.3 152.207-4.585 13.383-14.012-2.82Zm0 0"/><path fill="#d9f1e8" d="m156.906 151.707 14.395.5-18.598 10.563Zm0 0"/><path fill="#94232c" d="m171.3 152.207-14.394-.5 18.7-14.984Zm0 0"/><path fill="#d9f1e8" d="m113.875 158.031 4.863 9.496-18.547 1.055Zm0 0"/><path fill="#daf2e9" d="m100.191 168.582 18.547-1.055-6.984 18.489Zm0 0"/><path fill="#d9f1e8" d="m111.754 186.016 21.535-11.918 2.41 10.507Zm0 0"/><path fill="#1c2738" d="m111.754 186.016 9.656 7.214-.117 7.7Zm0 0"/><path fill="#d9f1e8" d="m121.41 193.23-9.656-7.214 23.945-1.41Zm0 0"/><path fill="#daf2e9" d="m133.29 174.098-21.536 11.918 6.984-18.489Zm0 0"/><path fill="#d9f1e8" d="m118.738 167.527 10.242-10.96 2.301 6.355Zm0 0"/><path fill="#1c2638" d="m128.98 156.566 17.743-1.976-15.442 8.332Zm0 0"/><path fill="#1d2839" d="m146.723 154.59-17.743 1.976 3.84-19.296Zm0 0"/><path fill="#1c2638" d="m128.98 156.566-15.445-6.937 19.285-12.36Zm0 0"/><path fill="#1c2738" d="m113.535 149.629 15.445 6.937-15.105 1.465Zm0 0"/><path fill="#d9f1e8" d="m128.98 156.566-10.242 10.961-4.863-9.496ZM156.906 151.707l-10.183 2.883 5.289-9.442ZM146.723 154.59l10.183-2.883-4.203 11.063Zm0 0"/><path fill="#daf2e9" d="m295.094 179.738-21.156-15.925 19.761-7.938Zm0 0"/><path fill="#daf2e9" d="m342.332 149.426-47.238 30.312-1.395-23.863ZM295.094 179.738l47.238-30.312-9.023 46.93ZM273.938 163.813l21.156 15.925-29.383-6.77Zm0 0"/><path fill="#d9f1e8" d="m295.094 179.738 38.215 16.617-34.758 8.196Zm0 0"/><path fill="#daf2e9" d="m295.094 179.738-25.364 18.77-4.02-25.54Zm0 0"/><path fill="#d9f1e8" d="m269.73 198.508 25.364-18.77 3.457 24.813Zm0 0"/><path fill="#72343d" d="m262.875 262.246 8.441-15.586 5.008 28.88Zm0 0"/><path fill="#363e4a" d="m271.316 246.66 18.309 4.426-13.3 24.453Zm0 0"/><path fill="#9bd2c1" d="m271.316 246.66-8.441 15.586-19.102-11.648Zm0 0"/><path fill="#95ddca" d="m289.625 251.086-18.309-4.426 11.672-13.363Zm0 0"/><path fill="#eb5558" d="m289.625 251.086-6.023 23.363-7.278 1.09Zm0 0"/><path fill="#f04f52" d="m291.36 274.664-1.735-23.578 32.754-16.332Zm0 0"/><path fill="#f04f53" d="m289.625 251.086 1.734 23.578-7.757-.215Zm0 0"/><path fill="#94dfcb" d="m322.379 234.754-32.754 16.332-6.637-17.79Zm0 0"/><path fill="#3f5c63" d="m261 215.633-32.395-5.453 5.125-22.196Zm0 0"/><path fill="#92dbc8" d="M228.605 210.18 261 215.633l-11.836 11.32Zm0 0"/><path fill="#d9f1e8" d="m228.68 173.18-16.868 13.562-6.843-5.504Zm0 0"/><path fill="#92807b" d="m208.07 205.152 25.66-17.168-5.125 22.196Zm0 0"/><path fill="#93dcc9" d="m171.21 221.535 20.438-13.433 17.215 19.77Zm0 0"/><path fill="#982830" d="m191.648 208.102-25.617 1.5 7.676-16.98Zm0 0"/><path fill="#77aba1" d="m166.031 209.602 25.617-1.5-20.437 13.433Zm0 0"/><path fill="#712430" d="m191.332 184.836.316 23.266-17.941-15.48Zm0 0"/><path fill="#923f44" d="m216.043 254.238-3.707 32.516-23.004-16.961Zm0 0"/><path fill="#ef4f53" d="m213.113 307.645-.777-20.891 15.945 14.312Zm0 0"/><path fill="#f04f52" d="m228.281 301.066-15.945-14.312 24.937-8.297Zm0 0"/><path fill="#ef5053" d="m212.336 286.754 3.707-32.516 21.23 24.219Zm0 0"/><path fill="#3b2535" d="m154.613 284.148 1.496 30.641-11.972-6.34Zm0 0"/><path fill="#94dfcb" d="m168.402 255.516-25.73-2.485 12.754-14.215Zm0 0"/><path fill="#ed5155" d="m233.777 322.25-11.527 8.09-9.137-22.695Zm0 0"/><path fill="#d9f1e8" d="m222.25 330.34 11.527-8.09.836 17.184Zm0 0"/><path fill="#482736" d="m242.05 307.715 12.802-3.899-8.207 12.239Zm0 0"/><path fill="#d8f0e7" d="m254.852 303.816 9.25 10.739-17.457 1.5Zm0 0"/><path fill="#d9f1e8" d="m264.102 314.555-9.25-10.739 18.304-7.226Zm0 0"/><path fill="#382837" d="m254.852 303.816-12.801 3.899 6.89-15.113Zm0 0"/><path fill="#3d2736" d="m260.246 292.906-5.394 10.91-5.91-11.214Zm0 0"/><path fill="#342737" d="m273.156 296.59-18.304 7.226 5.394-10.91Zm0 0"/><path fill="#2b2a3a" d="m242.05 307.715-8.273 14.535-5.496-21.184Zm0 0"/><path fill="#2c2737" d="m233.777 322.25 8.274-14.535 4.594 8.34Zm0 0"/><path fill="#d9f1e8" d="m334.36 286.543-32.16 8.621 17.027-22.031Zm0 0"/><path fill="#1d2839" d="m121.887 109.145-15.934 14.027-1.117-13.754Zm0 0"/><path fill="#1f2b3c" d="m113.246 98.3 8.64 10.845-17.05.273Zm0 0"/><path fill="#699d96" d="m143.988 100.508-22.101 8.637 6.586-20.403Zm0 0"/><path fill="#202c3d" d="m121.887 109.145-8.64-10.844 15.226-9.559Zm0 0"/><path fill="#1c2638" d="m105.953 123.172 15.934-14.027 10.933 28.125Zm0 0"/><path fill="#1e293a" d="m132.82 137.27-10.933-28.125 25.476 8.734Zm0 0"/><path fill="#3f5d63" d="m121.887 109.145 22.101-8.637 3.375 17.37Zm0 0"/><path fill="#d9f1e8" d="m287.816 293.492-9.187 7.965 2.742-13.754Zm0 0"/><path fill="#d9f1e8" d="m278.629 301.457-5.473-4.867 8.215-8.887ZM292.672 317.445l-14.043-15.988 9.187-7.965ZM174.797 340.316l17.379 12.59-11.082 7.41Zm0 0"/><path fill="#352535" d="m183.754 314.48-8.957 25.836-18.688-25.527Zm0 0"/><path fill="#d9f1e8" d="m192.176 352.906 17.578-7.574-14.668 38.648ZM272.262 329.656l-8.16-15.101 28.57 2.89ZM272.262 329.656l17.754 12.621-25.688 11.504ZM234.613 339.434l37.649-9.778-7.934 24.125ZM264.102 314.555l-29.489 24.879 12.032-23.38Zm0 0"/><path fill="#272738" d="m264.102 314.555 8.16 15.101-37.649 9.778Zm0 0"/><path fill="#d8f0e7" d="m109.777 311.555 16.426 7.898-10.144 8.754Zm0 0"/><path fill="#d9f1e8" d="m126.203 319.453 2.996 6.024-13.14 2.73ZM126.203 319.453l-13.512-14.617 19.059 4.144Zm0 0"/><path fill="#1d2638" d="m126.203 319.453-16.426-7.898 2.914-6.72Zm0 0"/><path fill="#d9f1e8" d="m138.723 316.34-12.52 3.113 5.547-10.473Zm0 0"/><path fill="#d9f1e8" d="m129.2 325.477-2.997-6.024 12.52-3.113Zm0 0"/><path fill="#452534" d="m113.078 286.504 15.809 1.219 2.863 21.257Zm0 0"/><path fill="#452534" d="m128.887 287.723 15.25 20.726-12.387.531Zm0 0"/><path fill="#232b3b" d="m263.746 140.219 19.164 1.687-18.715 16.649Zm0 0"/><path fill="#1d2638" d="m282.91 141.906-8.973 21.906-9.742-5.257Zm0 0"/><path fill="#344a54" d="m273.938 163.813 8.972-21.907 10.79 13.969Zm0 0"/><path fill="#d9f1e8" d="m282.91 141.906 12.613 4.04-1.824 9.929Zm0 0"/><path fill="#4d7073" d="m273.652 124.234 27.043 1.743-17.785 15.93Zm0 0"/><path fill="#1c2739" d="m295.523 145.945 5.172-19.968 12.996 7.097Zm0 0"/><path fill="#1e293a" d="m300.695 125.977-5.172 19.968-12.613-4.039Zm0 0"/><path fill="#93dcc9" d="m300.695 125.977-27.043-1.743 24.29-5.644Zm0 0"/><path fill="#82c3b5" d="m300.695 125.977 10.211-7.579 2.785 14.676Zm0 0"/><path fill="#3b555d" d="m300.695 125.977-2.754-7.387 12.965-.192Zm0 0"/><path fill="#d9f1e8" d="m295.523 145.945 18.168-12.87-19.992 22.8Zm0 0"/><path fill="#daf2e9" d="m313.691 133.074 28.641 16.352-48.633 6.449Zm0 0"/><path fill="#d9f1e8" d="m313.691 133.074-2.785-14.676 31.426 31.028Zm0 0"/><path fill="#95dfcb" d="M249.164 226.953 261 215.633l21.988 17.664Zm0 0"/><path fill="#95decb" d="m271.316 246.66-22.152-19.707 33.824 6.344Zm0 0"/><path fill="#96ddca" d="m249.164 226.953 22.152 19.707-27.543 3.938Zm0 0"/><path fill="#95dfcb" d="m313.836 224.945-15.285-20.394 23.496 16.05Zm0 0"/><path fill="#94dfcb" d="m313.836 224.945 8.543 9.809-39.39-1.457Zm0 0"/><path fill="#95dfcb" d="m313.836 224.945-30.848 8.352 15.563-28.746Zm0 0"/><path fill="#d9f1e8" d="m233.73 187.984-21.917-1.242 16.867-13.562Zm0 0"/><path fill="#92494c" d="m204.969 181.238 6.844 5.504-3.743 18.41Zm0 0"/><path fill="#979b91" d="m211.813 186.742 21.917 1.242-25.66 17.168Zm0 0"/><path fill="#3a2535" d="m181.613 286.469-27-2.32 10.16-19.06Zm0 0"/><path fill="#4b2836" d="m181.613 286.469-16.84-21.38 24.559 4.704Zm0 0"/><path fill="#974b4e" d="m181.613 286.469 7.719-16.676 23.004 16.96Zm0 0"/><path fill="#392838" d="m142.672 253.031 22.101 12.059-10.16 19.058Zm0 0"/><path fill="#77ada4" d="m168.402 255.516-3.629 9.574-22.101-12.059Zm0 0"/><path fill="#daf1e8" d="m302.2 295.164 32.16-8.621-3.758 43.598Zm0 0"/><path fill="#daf1e8" d="m292.672 317.445 9.527-22.28 28.403 34.976Zm0 0"/><path fill="#586166" d="m302.2 295.164-9.528 22.281-4.856-23.953Zm0 0"/><path fill="#d9f1e8" d="m330.602 330.14-40.586 12.137 2.656-24.832Zm0 0"/><path fill="#372535" d="m205.797 335.645-31 4.671 8.957-25.836Zm0 0"/><path fill="#d9f1e8" d="m205.797 335.645 3.957 9.687-17.578 7.574Zm0 0"/><path fill="#3d2636" d="m174.797 340.316 31-4.671-13.621 17.261Zm0 0"/><path fill="#d9f1e8" d="m264.102 314.555 14.527-13.098 14.043 15.988Zm0 0"/><path fill="#352e3d" d="m278.629 301.457-14.527 13.098 9.054-17.965Zm0 0"/></svg>