<svg xmlns="http://www.w3.org/2000/svg" width="512" height="512" viewBox="0 0 384 384"><path fill="#fecf80" d="m206.867 55.121 13.156-28.504 15.11 24.488Zm0 0"/><path fill="#50b4c8" d="m138.371.004-25.8 30.121L74.331.004Zm0 0"/><path fill="#5bacc5" d="m36.723 33.453 12.609 44.652L.004 53.531Zm0 0"/><path fill="#52b4c8" d="m74.773 39.816 37.797-9.691-25.53 32.5Zm0 0"/><path fill="#56afc6" d="M74.773 39.816 87.04 62.625l-37.707 15.48Zm0 0"/><path fill="#5ab0c6" d="m112.57 30.125-37.797 9.691L74.332.004Zm0 0"/><path fill="#5badc5" d="m36.723 33.453 38.05 6.363-25.441 38.29Zm0 0"/><path fill="#59adc5" d="m74.773 39.816-38.05-6.363L74.332.003Zm0 0"/><path fill="#e1edf3" d="m87.04 62.625-5.2 36.488-32.508-21.008Zm0 0"/><path fill="#eae5c1" d="M336.883 346.172 294.188 384l-5.25-14.64Zm0 0"/><path fill="#acd9ca" d="m340.734 299.035 4.102-55.238L384 203.437Zm0 0"/><path fill="#ccf1f0" d="m279.395 60.5 14.16 16.875-17.192 2.688Zm0 0"/><path fill="#4db8ca" d="m138.371.004 14.11 43.164-39.91-13.043Zm0 0"/><path fill="#67b5cb" d="M49.332 78.105 0 97.316l.004-43.785Zm0 0"/><path fill="#a8c9da" d="m0 97.316 49.332-19.21-3.582 52.023Zm0 0"/><path fill="#5bacc5" d="M.004 53.531V0l36.719 33.453Zm0 0"/><path fill="#bfe9ee" d="m50.246 194.23-3.902 32.657-46.328 9.101Zm0 0"/><path fill="#fdf9f5" d="m88.504 191.855-38.258 2.375 49.246-19.757Zm0 0"/><path fill="#238f9e" d="m94.25 202.691 17.258 9.414-8.633 10.82Zm0 0"/><path fill="#148ba1" d="m82.477 220.668 11.773-17.977 8.625 20.235Zm0 0"/><path fill="#ecedd8" d="m176.898 384.012 36.649-16.29 75.39 1.637Zm0 0"/><path fill="#d2dcd6" d="m0 384-.004-61.844 62.766 61.848Zm0 0"/><path fill="#d8e2de" d="m-.004 322.156 57.332-11.597 5.434 73.445Zm0 0"/><path fill="#b6e2e8" d="m-.004 322.156.02-86.168 57.312 74.57Zm0 0"/><path fill="#b3e3e7" d="m.016 235.988 57.152 54.582.16 19.989Zm0 0"/><path fill="#fbd081" d="m293.555 77.375 12.816 28.645-30.008-25.957Zm0 0"/><path fill="#4b3c66" d="m194.55 182.227-3.734-21.633 25.028 3.375Zm0 0"/><path fill="#433664" d="m190.816 160.594 3.735 21.633-15.395-.665Zm0 0"/><path fill="#0f7a99" d="m261.32 104.145-11.363 18.605-5.95-20.773Zm0 0"/><path fill="#635069" d="m236.613 262.48.969-5.289 16.04 20.079Zm0 0"/><path fill="#483a65" d="m236.613 262.48 17.008 14.79-21.316 26.046Zm0 0"/><path fill="#81ac92" d="m237.582 257.191-24.273-8.882 24.656-18.551Zm0 0"/><path fill="#e4f5f1" d="m301.594 293.445-2.293-14.504 9.539.52Zm0 0"/><path fill="#e7f4f3" d="m301.594 293.445-9.836-15.457 7.543.953Zm0 0"/><path fill="#f6f0de" d="m340.734 299.035 43.278 23.899-47.13 23.238Zm0 0"/><path fill="#a9dcca" d="m384.012 322.934-43.278-23.899L384 203.437Zm0 0"/><path fill="#4fbdcd" d="M248.922 25.363 213.207.003 274.957 0Zm0 0"/><path fill="#51bbcc" d="m213.207.004 35.715 25.36-28.899 1.253Zm0 0"/><path fill="#dfcd88" d="m189.922 23.316 30.101 3.301-13.156 28.504Zm0 0"/><path fill="#168ea1" d="m189.922 23.316-17.57 40.907-4.442-33.743Zm0 0"/><path fill="#53c9d3" d="m312.691 74.7-33.296-14.2 19.91-23.61Zm0 0"/><path fill="#c6f0f0" d="m279.395 60.5 33.296 14.2-19.136 2.675Zm0 0"/><path fill="#6cb3c8" d="M299.305 36.89 274.957 0h51.34Zm0 0"/><path fill="#5db8ca" d="m299.305 36.89-33.149 4.997L274.957 0Zm0 0"/><path fill="#51bccc" d="m266.156 41.887-17.234-16.524L274.957 0Zm0 0"/><path fill="#4ab9cb" d="m220.023 26.617-30.101-3.3L213.207.003Zm0 0"/><path fill="#48bacb" d="m152.48 43.168-17.05 1.238-22.86-14.281Zm0 0"/><path fill="#4eb9cb" d="M213.207.004 167.91 30.48 138.371.004Zm0 0"/><path fill="#4db9cb" d="m167.91 30.48-15.43 12.688L138.371.004Zm0 0"/><path fill="#59abc4" d="M36.723 33.453.003 0l74.329.004Zm0 0"/><path fill="#fbfbfb" d="m94.523 92.434-12.683 6.68 5.2-36.489Zm0 0"/><path fill="#f9fcfd" d="m81.84 99.113 12.683-6.68 3.313 9.672Zm0 0"/><path fill="#d0eff3" d="m67.055 216.672-20.711 10.215 3.902-32.657Zm0 0"/><path fill="#0b8aa3" d="m138.98 218.793-.316 4.203-27.156-10.89Zm0 0"/><path fill="#61a396" d="m138.664 222.996-35.789-.07 8.633-10.82Zm0 0"/><path fill="#f7fbfd" d="m79.191 207.25-28.945-13.02 38.258-2.375Zm0 0"/><path fill="#127595" d="m94.25 202.691-15.059 4.559 9.313-15.395Zm0 0"/><path fill="#0a87a2" d="m79.191 207.25 15.059-4.559-11.773 17.977Zm0 0"/><path fill="#73a793" d="m77.766 235.082-10.711-18.41 15.422 3.996Zm0 0"/><path fill="#3c3465" d="m70.965 248.027 6.8-12.945 13.774 16.273Zm0 0"/><path fill="#acb88c" d="m77.766 235.082 4.71-14.414 20.399 2.258Zm0 0"/><path fill="#62a094" d="m91.54 251.355-13.774-16.273 25.109-12.156Zm0 0"/><path fill="#96bfce" d="m0 97.316 45.75 32.813-45.758 29.504Zm0 0"/><path fill="#cee6ed" d="M49.332 78.105 73.5 119.246 45.75 130.13Zm0 0"/><path fill="#f6f9fc" d="M49.332 78.105 81.84 99.113l-8.34 20.133Zm0 0"/><path fill="#c6a378" d="m253.621 277.27 3.594 10.023-24.91 16.023Zm0 0"/><path fill="#eefbfa" d="m126.188 345.57 9.09-13.48 13.214 12.308Zm0 0"/><path fill="#dff5f6" d="m91.973 320.184 15.582-8.414-5.407 14.511Zm0 0"/><path fill="#3b3a69" d="m104.54 292.125-19.067-19.516 24.496 11.172Zm0 0"/><path fill="#bcedf1" d="m70.965 248.027 14.508 24.582-12.418 4.172Zm0 0"/><path fill="#b0e2e8" d="m52.629 254.574 4.539 35.996L.016 235.988Zm0 0"/><path fill="#f1fbfc" d="m89.035 339.137 2.938-18.953 10.175 6.097Zm0 0"/><path fill="#daeadc" d="m89.035 339.137 17.387 18.664-43.66 26.203Zm0 0"/><path fill="#fef8f2" d="m324.633 116.727 59.375-16.399-48.926 45.512Zm0 0"/><path fill="#fef5e9" d="m384.008 100.328-.016 58.317-48.91-12.805Zm0 0"/><path fill="#2a527b" d="m258.766 147.285-17.352-7.113 8.543-17.422Zm0 0"/><path fill="#70b4bc" d="M343.496 37.652 384-.004l.008 100.332Zm0 0"/><path fill="#6eb7ba" d="m343.496 37.652 40.512 62.676L312.69 74.7Zm0 0"/><path fill="#6abdc4" d="m299.305 36.89 44.191.762L312.691 74.7Zm0 0"/><path fill="#423564" d="m173.137 206.363 6.02-24.8 15.394.664Zm0 0"/><path fill="#1f5d84" d="m155.75 142.629-27.781-49.125 56.336.512Zm0 0"/><path fill="#0288a4" d="m212.082 112.512-27.777-18.496 22.125-8.543Zm0 0"/><path fill="#24577f" d="m181.426 143.02 2.879-49.004 18.906 47.71Zm0 0"/><path fill="#0385a2" d="m206.43 85.473-1.996-17.528 19.648 10.223Zm0 0"/><path fill="#d1c386" d="m224.082 78.168-17.215-23.047 28.266-4.016Zm0 0"/><path fill="#0686a2" d="m224.082 78.168-19.648-10.223 2.433-12.824Zm0 0"/><path fill="#088aa3" d="m251.438 84.172 9.882 19.973-17.312-2.168Zm0 0"/><path fill="#148da2" d="m233.766 89.41 17.672-5.238-7.43 17.805Zm0 0"/><path fill="#fdcf80" d="m233.766 89.41-10.211 2.887.527-14.129Zm0 0"/><path fill="#f8ce80" d="m223.555 92.297-17.125-6.824 17.652-7.305Zm0 0"/><path fill="#6da695" d="m223.555 92.297-11.473 20.215-5.652-27.04Zm0 0"/><path fill="#4ac1cf" d="m248.922 25.363-13.79 25.742-15.109-24.488Zm0 0"/><path fill="#f7d184" d="m254.84 45.613 11.316-3.726L279.395 60.5Zm0 0"/><path fill="#47c0ce" d="m266.156 41.887-11.316 3.726-5.918-20.25Zm0 0"/><path fill="#4ac9d3" d="m254.84 45.613-19.707 5.492 13.789-25.742Zm0 0"/><path fill="#3d3465" d="m241.414 140.172-.309 13.234-7.808-8.004Zm0 0"/><path fill="#bbedec" d="m308.84 279.46 13.254-18.042 18.64 37.617Zm0 0"/><path fill="#afe8e3" d="m322.094 261.418 22.742-17.621-4.102 55.238Zm0 0"/><path fill="#e9f5f4" d="m291.758 277.988 6.277-10.082 1.266 11.035Zm0 0"/><path fill="#f3cc81" d="m203.031 223.621-.668-19.984 29.582 4.523Zm0 0"/><path fill="#ede8cc" d="m336.883 346.172 47.129-23.238-.008 61.062Zm0 0"/><path fill="#ebe4c0" d="m336.883 346.172 47.12 37.824-89.815.004Zm0 0"/><path fill="#fcfcfd" d="M110.523 194.016 94.25 202.69l-5.746-10.836Zm0 0"/><path fill="#fcfbf9" d="m110.523 194.016-22.02-2.16 10.99-17.383Zm0 0"/><path fill="#0187a4" d="m94.25 202.691 16.273-8.675.985 18.09Zm0 0"/><path fill="#0286a3" d="m110.523 194.016 12.094 8.77-11.11 9.32Zm0 0"/><path fill="#80ab92" d="m184.656 62.574 21.774 22.899-22.125 8.543Zm0 0"/><path fill="#0488a4" d="m204.434 67.945-19.778-5.37 22.211-7.454Zm0 0"/><path fill="#f9ce80" d="m184.656 62.574 19.778 5.371 1.996 17.528Zm0 0"/><path fill="#2191a0" d="m184.656 62.574 5.266-39.258 16.945 31.805Zm0 0"/><path fill="#0589a4" d="m189.922 23.316-5.266 39.258-12.304 1.649Zm0 0"/><path fill="#0689a4" d="m158.016 53.996-5.536-10.828 15.43-12.688Zm0 0"/><path fill="#0489a4" d="m172.352 64.223-14.336-10.227 9.894-23.516Zm0 0"/><path fill="#aab78c" d="m172.352 64.223 12.304-1.649-.351 31.442Zm0 0"/><path fill="#6db7c4" d="m326.297 0 17.2 37.652-44.192-.761Zm0 0"/><path fill="#49c2cd" d="m266.156 41.887 33.149-4.996-19.91 23.609Zm0 0"/><path fill="#48bbcc" d="m213.207.004-23.285 23.312-22.012 7.164Zm0 0"/><path fill="#4cb8ca" d="m116.879 62.867-29.84-.242 25.531-32.5Zm0 0"/><path fill="#43bdcc" d="m135.43 44.406-18.551 18.461-4.309-32.742Zm0 0"/><path fill="#eaf6f9" d="m116.879 62.867 3.004 17.5-32.844-17.742Zm0 0"/><path fill="#fdfcfe" d="m105.758 90.55-11.235 1.884-7.484-29.809Zm0 0"/><path fill="#f0f7fa" d="m119.883 80.367-14.125 10.184-18.719-27.926Zm0 0"/><path fill="#fdfcfe" d="m94.523 92.434 11.235-1.883-7.922 11.554Zm0 0"/><path fill="#eeeff2" d="m.016 235.988-.024-76.355 50.254 34.597Zm0 0"/><path fill="#e6e2e1" d="M50.246 194.23-.008 159.633l45.758-29.504Zm0 0"/><path fill="#abe0e8" d="m46.344 226.887 6.285 27.687L.016 235.988Zm0 0"/><path fill="#6aa595" d="m114.746 247.344 23.918-24.348 3.945 30.57Zm0 0"/><path fill="#f0cb82" d="m114.746 247.344-11.871-24.418 35.79.07Zm0 0"/><path fill="#0688a4" d="m122.617 202.785 16.363 16.008-27.472-6.688Zm0 0"/><path fill="#a1b58d" d="m114.746 247.344-23.207 4.011 11.336-28.43Zm0 0"/><path fill="#138ba1" d="m67.055 216.672 12.136-9.422 3.286 13.418Zm0 0"/><path fill="#f7fafc" d="m79.191 207.25-12.136 9.422-16.809-22.442Zm0 0"/><path fill="#3c3968" d="m53.543 231.703 24.223 3.379-6.801 12.945Zm0 0"/><path fill="#14839c" d="m77.766 235.082-24.223-3.379 13.512-15.031Zm0 0"/><path fill="#d3eff4" d="m52.629 254.574.914-22.87 17.422 16.323Zm0 0"/><path fill="#cbeff3" d="m53.543 231.703-7.2-4.816 20.712-10.215Zm0 0"/><path fill="#9edde5" d="m53.543 231.703-.914 22.871-6.285-27.687Zm0 0"/><path fill="#0f7295" d="m82.727 128.105 16.742-6.394 1.855 19.3Zm0 0"/><path fill="#19658b" d="m124.547 142-11.578 9.7-11.645-10.688Zm0 0"/><path fill="#fcf9f5" d="m136.54 185.035-26.017 8.98-11.03-19.542Zm0 0"/><path fill="#ebf4ec" d="m106.422 357.8 19.766-12.23.585 38.426Zm0 0"/><path fill="#dcebd9" d="m62.762 384.004 43.66-26.203 20.351 26.195Zm0 0"/><path fill="#f2faf8" d="m150.348 363.813-24.16-18.243 22.304-1.172Zm0 0"/><path fill="#ebf2e7" d="m126.188 345.57 24.16 18.243-23.575 20.183Zm0 0"/><path fill="#effbfb" d="m117.098 326.324 18.18 5.766-9.09 13.48Zm0 0"/><path fill="#25557e" d="m114.27 299.629-15.34 7.266 5.61-14.77Zm0 0"/><path fill="#27547d" d="m114.27 299.629-6.715 12.14-8.625-4.874Zm0 0"/><path fill="#215e84" d="m107.555 311.77 7.215 7.367-12.622 7.144Zm0 0"/><path fill="#403565" d="m130.008 290.277-20.04-6.496 11.298-19.02Zm0 0"/><path fill="#beeff2" d="m73.055 276.781-20.426-22.207 18.336-6.547Zm0 0"/><path fill="#beeef0" d="m52.629 254.574 20.426 22.207-15.887 13.79Zm0 0"/><path fill="#3e3264" d="m70.965 248.027 20.574 3.328-6.066 21.254Zm0 0"/><path fill="#3e3c6a" d="m85.473 272.61 6.066-21.255 18.43 32.426Zm0 0"/><path fill="#3e3364" d="m91.54 251.355 29.726 13.407-11.297 19.02Zm0 0"/><path fill="#3e3464" d="m91.54 251.355 23.206-4.011 6.52 17.418Zm0 0"/><path fill="#c6eef1" d="m77.89 296.2-20.722-5.63 15.887-13.789Zm0 0"/><path fill="#cdf1f1" d="m77.89 296.2-20.562 14.359-.16-19.989Zm0 0"/><path fill="#eaf7f3" d="m312.691 74.7 11.942 42.027-18.262-10.707Zm0 0"/><path fill="#e2f5f1" d="m312.691 74.7-6.32 31.32-12.816-28.645Zm0 0"/><path fill="#fef8f3" d="m312.691 74.7 71.317 25.628-59.375 16.399Zm0 0"/><path fill="#feeaca" d="m346.09 180.629 37.902-21.984.008 44.792Zm0 0"/><path fill="#fdf8f3" d="M346.09 180.629 384 203.438l-40.7 1.269Zm0 0"/><path fill="#fcfcfe" d="m159.594 164.855 7.918 9.43-10.594 1.418Zm0 0"/><path fill="#205c83" d="m127.969 93.504 11.601 50.11L124.547 142Zm0 0"/><path fill="#1c6188" d="m155.75 142.629-16.18.984-11.601-50.11Zm0 0"/><path fill="#126f92" d="M114.328 119.281 124.547 142l-23.223-.988Zm0 0"/><path fill="#19658b" d="m114.328 119.281 13.64-25.777L124.548 142Zm0 0"/><path fill="#146c8f" d="m99.469 121.71 14.86-2.429-13.005 21.73Zm0 0"/><path fill="#137192" d="m184.305 94.016 27.777 18.496-8.871 29.215Zm0 0"/><path fill="#fafcfd" d="m215.844 163.969 9.511-11.324 6.04 13.167Zm0 0"/><path fill="#423765" d="m233.297 145.402-7.942 7.243-1.437-18.618Zm0 0"/><path fill="#fdcf80" d="m234.508 107.078-10.953-14.781 10.21-2.887Zm0 0"/><path fill="#face80" d="m234.508 107.078-.742-17.668 10.242 12.567Zm0 0"/><path fill="#9fb48d" d="m223.555 92.297 10.953 14.781-22.426 5.434Zm0 0"/><path fill="#0c7d9b" d="m249.957 122.75-15.45-15.672 9.5-5.101Zm0 0"/><path fill="#b5ba8a" d="m238.758 74.445-14.676 3.723 11.05-27.063Zm0 0"/><path fill="#278296" d="m238.758 74.445-4.992 14.965-9.684-11.242Zm0 0"/><path fill="#2f4b76" d="m238.758 74.445 12.68 9.727-17.672 5.238Zm0 0"/><path fill="#fccf80" d="m258.16 68.96-3.32-23.347L279.395 60.5Zm0 0"/><path fill="#27547d" d="m238.758 74.445 19.402-5.484-6.723 15.21Zm0 0"/><path fill="#27587f" d="m258.16 68.96-19.402 5.485-3.625-23.34Zm0 0"/><path fill="#30959e" d="m254.84 45.613 3.32 23.348-23.027-17.856Zm0 0"/><path fill="#d2c386" d="m251.438 84.172 24.925-4.11-15.043 24.083Zm0 0"/><path fill="#c6c993" d="M276.363 80.063 258.16 68.96l21.235-8.461Zm0 0"/><path fill="#2d557c" d="m258.16 68.96 18.203 11.103-24.925 4.109Zm0 0"/><path fill="#94b18f" d="m237.965 229.758-34.934-6.137 28.914-15.46Zm0 0"/><path fill="#f9f2e2" d="m300.8 192.648 45.29-12.02-2.79 24.079Zm0 0"/><path fill="#28527c" d="m258.766 147.285-17.66 6.121.308-13.234Zm0 0"/><path fill="#fbfcfc" d="m241.105 153.406 7.618 21.457-17.328-9.05Zm0 0"/><path fill="#3f3364" d="m241.105 153.406-7.777-.363-.031-7.64Zm0 0"/><path fill="#fbfcfe" d="m225.355 152.645 7.973.398-1.933 12.77Zm0 0"/><path fill="#3e3264" d="m233.328 153.043-7.973-.398 7.942-7.243Zm0 0"/><path fill="#fbfcfe" d="m233.328 153.043 7.777.363-9.71 12.406Zm0 0"/><path fill="#418a93" d="m223.918 134.027 17.496 6.145-8.117 5.23Zm0 0"/><path fill="#f0cb82" d="m259.36 254.188-21.778 3.003.383-27.433Zm0 0"/><path fill="#473a65" d="m237.582 257.191 21.777-3.003-5.738 23.082Zm0 0"/><path fill="#e4ba7c" d="m259.36 254.188 6.675 2.984-12.414 20.098Zm0 0"/><path fill="#fa9e7d" d="m281.332 269.309 16.703-1.403-6.277 10.082Zm0 0"/><path fill="#3f3364" d="m266.035 257.172 15.297 12.137-27.71 7.96Zm0 0"/><path fill="#e0f4f4" d="m299.3 278.941-1.265-11.035 10.805 11.555Zm0 0"/><path fill="#baeded" d="m298.035 267.906 24.059-6.488-13.254 18.043Zm0 0"/><path fill="#bfeded" d="m322.094 261.418-24.059 6.488 9.73-18.136Zm0 0"/><path fill="#aee7e5" d="m322.094 261.418.176-22.066 22.566 4.445Zm0 0"/><path fill="#6d5a6b" d="m308.555 236.129 13.715 3.223-14.504 10.418Zm0 0"/><path fill="#c3eeec" d="m322.27 239.352-.176 22.066-14.328-11.648Zm0 0"/><path fill="#fcfcfe" d="m221.746 173.191-5.902-9.222 15.55 1.844Zm0 0"/><path fill="#3e436d" d="m202.363 203.637-29.226 2.726 21.414-24.136Zm0 0"/><path fill="#f2cc81" d="m182.11 237.336-5.278-19.29 26.2 5.575Zm0 0"/><path fill="#abb88c" d="m213.309 248.309-31.2-10.973 20.922-13.715Zm0 0"/><path fill="#ebca82" d="m182.11 237.336 31.199 10.973-23.641 19.808Zm0 0"/><path fill="#f1cc81" d="m138.664 222.996 28.887 22.414-24.942 8.156Zm0 0"/><path fill="#eaeedb" d="m288.938 369.36 5.25 14.64-117.29.012Zm0 0"/><path fill="#439a9b" d="m158.016 53.996-41.137 8.871 18.55-18.46Zm0 0"/><path fill="#eff7fa" d="m158.016 53.996-22.586-9.59 17.05-1.238Zm0 0"/><path fill="#0985a0" d="m127.969 93.504-22.211-2.953 14.125-10.184Zm0 0"/><path fill="#fdf1df" d="m72.527 147.617 26.965 26.856-49.246 19.757Zm0 0"/><path fill="#0b7999" d="m93.664 113.668 5.805 8.043-16.742 6.394Zm0 0"/><path fill="#fdfcfe" d="M93.664 113.668 81.84 99.113l15.996 2.992Zm0 0"/><path fill="#fcfcfe" d="m81.84 99.113 11.824 14.555-20.164 5.578Zm0 0"/><path fill="#f9fafd" d="m93.664 113.668-10.937 14.437-9.227-8.859Zm0 0"/><path fill="#f4f8fb" d="m82.727 128.105-10.2 19.512.973-28.37Zm0 0"/><path fill="#fafbfd" d="m97.64 151.922-25.113-4.305 10.2-19.512Zm0 0"/><path fill="#f9fbfd" d="m97.64 151.922 14.864 7.531-13.012 15.02Zm0 0"/><path fill="#1a658a" d="m97.64 151.922 15.329-.223-.465 7.754Zm0 0"/><path fill="#fdfcfe" d="m97.64 151.922-14.913-23.817 18.597 12.907Zm0 0"/><path fill="#107697" d="m112.969 151.7-15.328.222 3.683-10.91Zm0 0"/><path fill="#fbfcfe" d="m72.527 147.617 25.114 4.305 1.851 22.55Zm0 0"/><path fill="#eef8f6" d="m106.422 357.8 5.437-13.585 14.329 1.355Zm0 0"/><path fill="#2d557c" d="m111.86 344.215 5.238-17.89 9.09 19.245Zm0 0"/><path fill="#edfbfb" d="m117.098 326.324-5.239 17.89-9.71-17.933Zm0 0"/><path fill="#edf9fa" d="m111.86 344.215-22.825-5.078 13.113-12.856Zm0 0"/><path fill="#eef9f8" d="m89.035 339.137 22.824 5.078-5.437 13.586Zm0 0"/><path fill="#ebf2e7" d="m150.348 363.813 26.55 20.199-50.125-.016Zm0 0"/><path fill="#197e98" d="m171.137 341.973 3.687.308 3.75 21.824Zm0 0"/><path fill="#f5f7ee" d="m161.438 352.613-11.09 11.2-1.856-19.415Zm0 0"/><path fill="#f0f4e9" d="m213.547 367.723 25.465-25.196 49.926 26.832Zm0 0"/><path fill="#ecf5ec" d="m225.21 334.516 13.802 8.011-25.465 25.196Zm0 0"/><path fill="#eff7f0" d="m256.879 334.773 32.058 34.586-49.925-26.832Zm0 0"/><path fill="#f4faf8" d="m242.39 321.363 14.489 13.41-17.867 7.754Zm0 0"/><path fill="#35416f" d="m118.39 310.293-4.12-10.664 18.058 8.523Zm0 0"/><path fill="#3f969f" d="m114.27 299.629 4.12 10.664-10.835 1.477Zm0 0"/><path fill="#226186" d="m114.77 319.137 2.328 7.187-14.95-.043Zm0 0"/><path fill="#3e3364" d="m166.398 303.445-36.39-13.168-8.742-25.515Zm0 0"/><path fill="#ddf5f5" d="m159.805 328.879 11.332 13.094-22.645 2.425Zm0 0"/><path fill="#f4fbfa" d="m171.137 341.973-9.7 10.64-12.945-8.215Zm0 0"/><path fill="#3a3969" d="m174.824 342.281-3.687-.308 3.965-14.649Zm0 0"/><path fill="#f1fbfb" d="m135.277 332.09 13.473-5.14-.258 17.448Zm0 0"/><path fill="#3788a1" d="m148.75 326.95 11.055 1.929-11.313 15.52Zm0 0"/><path fill="#324471" d="m159.805 328.879-11.055-1.93 3.621-14.64Zm0 0"/><path fill="#33426f" d="m148.75 326.95-7.215-6.192 10.836-8.45Zm0 0"/><path fill="#383a6a" d="m175.102 327.324-3.965 14.649-11.332-13.094Zm0 0"/><path fill="#eafbfb" d="m98.93 306.895-6.805-7.329 12.414-7.441Zm0 0"/><path fill="#dbf8f8" d="m77.89 296.2 14.235 3.366-34.797 10.993Zm0 0"/><path fill="#e8f7f2" d="m324.633 116.727-24.594-1.11 6.332-9.597Zm0 0"/><path fill="#a6dad2" d="m344.836 243.797-1.535-39.09 40.699-1.27Zm0 0"/><path fill="#6fb5c2" d="M343.496 37.652 326.296 0 384-.004Zm0 0"/><path fill="#3d3364" d="m162.742 186.363 4.77-12.078 11.644 7.278Zm0 0"/><path fill="#fcfcfe" d="m167.512 174.285-4.77 12.078-5.824-10.66Zm0 0"/><path fill="#fdfcfe" d="m178.156 161.367-10.644 12.918-7.918-9.43Zm0 0"/><path fill="#3f3364" d="m178.156 161.367 12.66-.773-11.66 20.969Zm0 0"/><path fill="#3f3364" d="m190.816 160.594-12.66.773 3.27-18.347Zm0 0"/><path fill="#3e3264" d="m167.512 174.285 10.644-12.918 1 20.196ZM178.156 161.367l-8.46-8.02 11.73-10.327Zm0 0"/><path fill="#fdfcfe" d="m169.695 153.348 8.461 8.02-18.562 3.487Zm0 0"/><path fill="#fbfcfe" d="m156.918 175.703-22.93-3.422 25.606-7.426Zm0 0"/><path fill="#fafcfc" d="m136.54 185.035 26.202 1.328-25.554 3.38Zm0 0"/><path fill="#fafcfe" d="m156.918 175.703-20.379 9.332-2.55-12.754Zm0 0"/><path fill="#fdfcfe" d="m136.54 185.035 20.378-9.332 5.824 10.66Zm0 0"/><path fill="#0286a3" d="m137.188 189.742 1.792 29.051-16.363-16.008Zm0 0"/><path fill="#0a86a1" d="m137.188 189.742-14.57 13.043-12.095-8.77Zm0 0"/><path fill="#24567f" d="m139.57 143.613-7.937 17.184L124.547 142Zm0 0"/><path fill="#0b799a" d="m104.52 110.809 9.808 8.472-14.86 2.43Zm0 0"/><path fill="#fcfcfe" d="m104.52 110.809-10.856 2.859 4.172-11.563Zm0 0"/><path fill="#0b7f9e" d="m93.664 113.668 10.856-2.86-5.051 10.903Zm0 0"/><path fill="#29547c" d="m203.21 141.727 8.872-29.215 11.836 21.515Zm0 0"/><path fill="#3d3264" d="m203.21 141.727-12.394 18.867-9.39-17.574Zm0 0"/><path fill="#3e3364" d="m190.816 160.594 12.395-18.867 12.633 22.242Zm0 0"/><path fill="#3e3565" d="m225.355 152.645-22.144-10.918 20.707-7.7Zm0 0"/><path fill="#3f3364" d="m203.21 141.727 22.145 10.918-9.511 11.324Zm0 0"/><path fill="#f2cc81" d="m269.16 191.922 18.543 12.285-22.789 12.719Zm0 0"/><path fill="#fdfbfa" d="m269.16 191.922-20.437-17.059 18.41-1.234Zm0 0"/><path fill="#fcfbfc" d="m269.16 191.922-11.867 7.016-8.57-24.075Zm0 0"/><path fill="#f2cc81" d="m257.293 198.938 11.867-7.016-4.246 25.004Zm0 0"/><path fill="#eecb82" d="m257.293 198.938-26.02.21.739-13.453Zm0 0"/><path fill="#35969d" d="m257.293 198.938 7.621 17.988-32.969-8.766Zm0 0"/><path fill="#b4b98a" d="m231.273 199.148 26.02-.21-25.348 9.222Zm0 0"/><path fill="#fdfbfb" d="m248.723 174.863 8.57 24.075-25.281-13.243Zm0 0"/><path fill="#fee5bd" d="m346.09 180.629-11.008-34.79 48.91 12.806Zm0 0"/><path fill="#fef4e7" d="m300.8 192.648 7.958-26.582 37.332 14.563Zm0 0"/><path fill="#fef7ee" d="m308.758 166.066 26.324-20.226 11.008 34.789Zm0 0"/><path fill="#0f8ca3" d="m305.375 208.703-17.672-4.496 13.098-11.559Zm0 0"/><path fill="#bdeae9" d="m305.375 208.703-4.574-16.055 42.5 12.059Zm0 0"/><path fill="#314773" d="m255.488 163.14 3.278-15.855 16.652 14.672Zm0 0"/><path fill="#17698d" d="m255.488 163.14-14.383-9.734 17.66-6.12Zm0 0"/><path fill="#fbfcfd" d="m248.723 174.863 6.765-11.722 11.645 10.488Zm0 0"/><path fill="#fcfcfe" d="m255.488 163.14 19.93-1.183-8.285 11.672Zm0 0"/><path fill="#fcfcfc" d="m241.105 153.406 14.383 9.735-6.765 11.722Zm0 0"/><path fill="#255f83" d="m223.918 134.027 26.039-11.277-8.543 17.422Zm0 0"/><path fill="#117e9a" d="m234.508 107.078 15.449 15.672-37.875-10.238Zm0 0"/><path fill="#2a597f" d="m249.957 122.75-26.039 11.277-11.836-21.515Zm0 0"/><path fill="#cec287" d="m268.379 242.516-30.414-12.758 26.95-12.832Zm0 0"/><path fill="#413464" d="m281.332 269.309-24.117 17.984-3.594-10.023Zm0 0"/><path fill="#5f4d68" d="m257.215 287.293 24.117-17.984 10.426 8.68Zm0 0"/><path fill="#fbfcfd" d="m232.012 185.695-10.266-12.504 9.649-7.379Zm0 0"/><path fill="#fbfbfb" d="m248.723 174.863-16.711 10.832-.617-19.882Zm0 0"/><path fill="#edc17d" d="m208.727 187.422-6.364 16.215-7.812-21.41Zm0 0"/><path fill="#433664" d="m210.898 281.398-31.82 5.2 10.59-18.48Zm0 0"/><path fill="#f1cc81" d="m237.965 229.758-24.656 18.55-10.278-24.687Zm0 0"/><path fill="#403464" d="m213.465 252.625-2.567 28.773-21.23-13.28Zm0 0"/><path fill="#e0c683" d="m213.309 248.309.156 4.316-23.797 15.492Zm0 0"/><path fill="#433765" d="m236.613 262.48-23.148-9.855 24.117 4.566Zm0 0"/><path fill="#594968" d="m213.465 252.625 23.148 9.855-25.715 18.918Zm0 0"/><path fill="#bbbc89" d="m213.465 252.625-.156-4.316 24.273 8.882Zm0 0"/><path fill="#509594" d="m114.746 247.344 27.863 6.222-21.343 11.196Zm0 0"/><path fill="#96b28f" d="m182.11 237.336-43.446-14.34 38.168-4.95Zm0 0"/><path fill="#f1f7f2" d="m233.86 323.578 8.53-2.215-3.378 21.164Zm0 0"/><path fill="#6a6a88" d="m225.21 334.516 8.65-10.938 5.152 18.95Zm0 0"/><path fill="#ebf2e1" d="m288.938 369.36 5.152-51.852 42.793 28.664Zm0 0"/><path fill="#0487a3" d="m154.914 75.45 17.438-11.227 11.953 29.793Zm0 0"/><path fill="#148ea2" d="m154.914 75.45 3.102-21.454 14.336 10.227Zm0 0"/><path fill="#0384a2" d="m127.969 93.504 26.945-18.055 29.39 18.567Zm0 0"/><path fill="#0487a3" d="M154.914 75.45 127.97 93.503l-8.086-13.137Zm0 0"/><path fill="#2d4f79" d="m116.879 62.867 38.035 12.582-35.031 4.918Zm0 0"/><path fill="#15849d" d="m158.016 53.996-3.102 21.453-38.035-12.582Zm0 0"/><path fill="#0388a4" d="m127.969 93.504-18.254 10.5-3.957-13.453Zm0 0"/><path fill="#07809e" d="m105.758 90.55 3.957 13.454-11.88-1.899Zm0 0"/><path fill="#fcf5ec" d="m45.75 130.129 26.777 17.488-22.28 46.613Zm0 0"/><path fill="#f5f8fa" d="M72.527 147.617 45.75 130.13l27.75-10.883Zm0 0"/><path fill="#34416f" d="m173.137 206.363-12.176-8.254 18.195-16.547Zm0 0"/><path fill="#0585a2" d="m162.742 186.363-1.781 11.746-23.774-8.367Zm0 0"/><path fill="#3c3465" d="m160.96 198.11 1.782-11.747 16.414-4.8Zm0 0"/><path fill="#0483a1" d="m160.96 198.11-21.98 20.683-1.792-29.05Zm0 0"/><path fill="#c8c087" d="m138.98 218.793 37.852-.746-38.168 4.95Zm0 0"/><path fill="#e4c883" d="m176.832 218.047-37.852.746 34.157-12.43Zm0 0"/><path fill="#0689a3" d="m138.98 218.793 21.98-20.684 12.177 8.254Zm0 0"/><path fill="#f1fafa" d="m178.574 364.105-17.137-11.492 9.7-10.64Zm0 0"/><path fill="#f1f7f0" d="m161.438 352.613 17.136 11.492-28.226-.293Zm0 0"/><path fill="#f5f4ea" d="m176.898 384.012 1.676-19.907 34.973 3.618Zm0 0"/><path fill="#f1f5ee" d="m150.348 363.813 28.226.292-1.676 19.907Zm0 0"/><path fill="#393c6b" d="m274.426 295.914-10.09 5.45-7.121-14.071Zm0 0"/><path fill="#695a6d" d="m274.426 295.914-17.211-8.621 34.543-9.305Zm0 0"/><path fill="#f5f8f3" d="m178.574 364.105 13.223-11.039 21.75 14.657Zm0 0"/><path fill="#3b3667" d="m114.27 299.629 15.738-9.352 2.32 17.875Zm0 0"/><path fill="#35426f" d="m109.969 283.781 4.3 15.848-9.73-7.504Zm0 0"/><path fill="#3d3465" d="m109.969 283.781 20.039 6.496-15.738 9.352Zm0 0"/><path fill="#277c94" d="m118.39 310.293-3.62 8.844-7.215-7.367Zm0 0"/><path fill="#f2fcfc" d="m148.75 326.95-13.473 5.14 6.258-11.332Zm0 0"/><path fill="#3c3466" d="m152.371 312.309-10.836 8.449-9.207-12.606Zm0 0"/><path fill="#3d3465" d="m166.398 303.445-6.593 25.434-7.434-16.57Zm0 0"/><path fill="#3d3465" d="m166.398 303.445 8.704 23.88-15.297 1.554Zm0 0"/><path fill="#3c3566" d="m175.102 327.324-8.704-23.879 23.387 13.434Zm0 0"/><path fill="#d9faf9" d="m92.125 299.566-8.098-18.628 20.512 11.187Zm0 0"/><path fill="#28557d" d="m84.027 280.938 8.098 18.628-14.234-3.367Zm0 0"/><path fill="#caedf1" d="m84.027 280.938-6.136 15.261-4.836-19.418Zm0 0"/><path fill="#beecf0" d="m85.473 272.61-1.446 8.327-10.972-4.156Zm0 0"/><path fill="#3e3767" d="m104.54 292.125-20.513-11.187 1.446-8.329Zm0 0"/><path fill="#e6ece5" d="m57.328 310.559 31.707 28.578-26.273 44.867Zm0 0"/><path fill="#f5fbfc" d="m89.035 339.137-31.707-28.578 34.645 9.625Zm0 0"/><path fill="#d4faf8" d="m107.555 311.77-15.582 8.414 6.957-13.29Zm0 0"/><path fill="#d9fbfa" d="m91.973 320.184.152-20.618 6.805 7.329Zm0 0"/><path fill="#d8faf8" d="m91.973 320.184-34.645-9.625 34.797-10.993Zm0 0"/><path fill="#e5f9f3" d="m316.95 130.781-16.91-15.164 24.593 1.11Zm0 0"/><path fill="#eed185" d="m300.04 115.617 16.91 15.164-18.79-2.746Zm0 0"/><path fill="#f9f6eb" d="m316.95 130.781 7.683-14.054 10.449 29.113Zm0 0"/><path fill="#1f90a0" d="m306.371 106.02-24.926 2.285-5.082-28.243Zm0 0"/><path fill="#1c8fa1" d="m300.04 115.617-18.595-7.312 24.926-2.285Zm0 0"/><path fill="#85ad91" d="m276.363 80.063 5.082 28.242-20.125-4.16Zm0 0"/><path fill="#2e4e78" d="m268.703 140.465-9.937 6.82-8.809-24.535Zm0 0"/><path fill="#17839b" d="m258.766 147.285 9.937-6.82 6.715 21.492Zm0 0"/><path fill="#b3ba8b" d="m261.32 104.145 7.168 19.19-18.531-.585Zm0 0"/><path fill="#2f4c76" d="m268.488 123.336.215 17.129-18.746-17.715Zm0 0"/><path fill="#315279" d="m268.703 140.465-.215-17.13 10.914 12.634Zm0 0"/><path fill="#e4e9c4" d="m281.445 108.305-12.957 15.03-7.168-19.19Zm0 0"/><path fill="#b2e6e7" d="m322.27 239.352 4.242-10.817 18.324 15.262Zm0 0"/><path fill="#fecf80" d="m326.512 228.535-4.242 10.817-13.715-3.223Zm0 0"/><path fill="#156c8f" d="m181.426 143.02-25.676-.391 28.555-48.613Zm0 0"/><path fill="#3e3264" d="m181.426 143.02-11.73 10.328-13.946-10.72Zm0 0"/><path fill="#fdfcfe" d="m158.559 154.652 11.136-1.304-10.101 11.507Zm0 0"/><path fill="#3e3264" d="m169.695 153.348-11.136 1.304-2.809-12.023Zm0 0"/><path fill="#f4fbfc" d="m133.988 172.281-34.496 2.192 13.012-15.02Zm0 0"/><path fill="#f9d083" d="m136.54 185.035.648 4.707-26.665 4.274Zm0 0"/><path fill="#f5fafa" d="m136.54 185.035-37.048-10.562 34.496-2.192Zm0 0"/><path fill="#f6fbfd" d="m117.93 157.531 13.703 3.266 2.355 11.484Zm0 0"/><path fill="#1b6389" d="m131.633 160.797-13.703-3.266L124.547 142Zm0 0"/><path fill="#1f5e85" d="m117.93 157.531-4.961-5.832L124.547 142Zm0 0"/><path fill="#25567f" d="m112.969 151.7 4.96 5.831-5.425 1.922Zm0 0"/><path fill="#f4fafc" d="m117.93 157.531 16.058 14.75-21.484-12.828Zm0 0"/><path fill="#26537d" d="m146.281 156.094-14.648 4.703 7.937-17.184Zm0 0"/><path fill="#fbfcfe" d="m131.633 160.797 14.648-4.703-12.293 16.187Zm0 0"/><path fill="#1a648a" d="m146.281 156.094-6.71-12.48 16.179-.985Zm0 0"/><path fill="#fbfbfd" d="m158.559 154.652-12.278 1.442 9.469-13.465Zm0 0"/><path fill="#fdfcfe" d="m146.281 156.094 12.278-1.442 1.035 10.203Zm0 0"/><path fill="#f9fcfd" d="m133.988 172.281 12.293-16.187 13.313 8.761Zm0 0"/><path fill="#fdf9f4" d="m286.074 180.184-10.656-18.227 17.676-6.066Zm0 0"/><path fill="#fdf9f5" d="m308.758 166.066-22.684 14.118 7.02-24.293Zm0 0"/><path fill="#fdf6ee" d="m286.074 180.184 22.684-14.118-7.957 26.582Zm0 0"/><path fill="#fdf9f4" d="m275.418 161.957 10.656 18.227-18.941-6.555Zm0 0"/><path fill="#fcf8f3" d="m286.074 180.184 14.727 12.464-13.098 11.559Zm0 0"/><path fill="#fdfaf7" d="m286.074 180.184-16.914 11.738-2.027-18.293Zm0 0"/><path fill="#faf9f4" d="m269.16 191.922 16.914-11.738 1.63 24.023Zm0 0"/><path fill="#413564" d="m266.035 257.172 24.442-9.559-9.145 21.696Zm0 0"/><path fill="#413665" d="m290.477 247.613-24.442 9.559 2.344-14.656Zm0 0"/><path fill="#f2c57e" d="m290.477 247.613 4.16 12.149-13.305 9.547Zm0 0"/><path fill="#f6a47d" d="m294.637 259.762 3.398 8.144-16.703 1.403Zm0 0"/><path fill="#947070" d="m298.035 267.906-3.398-8.144 13.129-9.992Zm0 0"/><path fill="#a98b74" d="m290.477 247.613 18.078-11.484-.79 13.64Zm0 0"/><path fill="#e0b77b" d="m294.637 259.762-4.16-12.149 17.289 2.157Zm0 0"/><path fill="#face80" d="m264.914 216.926-26.95 12.832-6.019-21.598Zm0 0"/><path fill="#cc8978" d="m209.824 180.613-15.273 1.614 21.293-18.258Zm0 0"/><path fill="#fdfcfe" d="m221.746 173.191-11.922 7.422 6.02-16.644Zm0 0"/><path fill="#fcfcfe" d="m232.012 185.695-22.188-5.082 11.922-7.422Zm0 0"/><path fill="#f7c97e" d="m209.824 180.613-1.097 6.809-14.176-5.195Zm0 0"/><path fill="#5f9a92" d="m202.363 203.637 28.91-4.489.672 9.012Zm0 0"/><path fill="#6da695" d="m176.832 218.047 25.531-14.41.668 19.984Zm0 0"/><path fill="#aeb88b" d="m173.137 206.363 29.226-2.726-25.531 14.41Zm0 0"/><path fill="#e0b87c" d="m210.898 281.398 21.407 21.918-13.672 14.66Zm0 0"/><path fill="#f6c97f" d="m236.613 262.48-4.308 40.836-21.407-21.918Zm0 0"/><path fill="#3e3364" d="m179.078 286.598-36.469-33.032 47.059 14.551Zm0 0"/><path fill="#d3ae7b" d="m218.633 317.977 15.226 5.601-8.648 10.938Zm0 0"/><path fill="#574768" d="m232.305 303.316 20.902.215-3.793 8.106Zm0 0"/><path fill="#f5fbfc" d="m253.207 303.531 7.527 7.567-11.32.539Zm0 0"/><path fill="#f4fbfc" d="m260.734 311.098-7.527-7.567 11.129-2.168Zm0 0"/><path fill="#534467" d="m253.207 303.531-20.902-.215 24.91-16.023Zm0 0"/><path fill="#3e3867" d="m264.336 301.363-11.129 2.168 4.008-16.238Zm0 0"/><path fill="#534568" d="m235.754 314.875-1.895 8.703-15.226-5.601Zm0 0"/><path fill="#5a4b69" d="m232.305 303.316 3.449 11.559-17.121 3.102Zm0 0"/><path fill="#5e4c68" d="m235.754 314.875-3.45-11.559 17.11 8.32Zm0 0"/><path fill="#564969" d="m242.39 321.363-6.636-6.488 13.66-3.238Zm0 0"/><path fill="#534567" d="m233.86 323.578 1.894-8.703 6.637 6.488Zm0 0"/><path fill="#e2f5f3" d="m340.734 299.035-39.14-5.59 7.246-13.984Zm0 0"/><path fill="#f5f3e7" d="m294.09 317.508 46.644-18.473-3.851 47.137Zm0 0"/><path fill="#087d9d" d="m104.52 110.809 5.195-6.805 4.613 15.277Zm0 0"/><path fill="#0682a0" d="m109.715 104.004-5.195 6.805-6.684-8.704Zm0 0"/><path fill="#0683a0" d="m114.328 119.281-4.613-15.277 18.254-10.5Zm0 0"/><path fill="#eef9fb" d="m280.453 301.645-6.027-5.73 17.332-17.927Zm0 0"/><path fill="#15809a" d="m174.824 342.281 7.047 3.29-3.297 18.534Zm0 0"/><path fill="#eff9f7" d="m181.871 345.57 9.926 7.496-13.223 11.04Zm0 0"/><path fill="#3a3969" d="m181.871 345.57-7.047-3.289.278-14.957Zm0 0"/><path fill="#3a3868" d="m189.785 316.879-7.914 28.691-6.77-18.246Zm0 0"/><path fill="#ecf6ef" d="m203.098 339.652 22.113-5.136-11.664 33.207Zm0 0"/><path fill="#f6f9f5" d="m191.797 353.066 11.3-13.414 10.45 28.07Zm0 0"/><path fill="#74616d" d="m203.098 339.652 15.535-21.675 6.578 16.539Zm0 0"/><path fill="#edf5ee" d="m256.879 334.773 18.601-3.046 13.457 37.632Zm0 0"/><path fill="#0c809d" d="m268.54 318.344 6.94 13.383-18.601 3.046Zm0 0"/><path fill="#f5fbfb" d="m255.52 320.336-13.13 1.027 7.024-9.726Zm0 0"/><path fill="#f4fcfc" d="m260.734 311.098-5.214 9.238-6.106-8.7Zm0 0"/><path fill="#f7faf7" d="m255.52 320.336 1.359 14.437-14.488-13.41Zm0 0"/><path fill="#f3fafa" d="m255.52 320.336 13.02-1.992-11.661 16.43Zm0 0"/><path fill="#267691" d="m255.52 320.336 5.214-9.238 7.805 7.246Zm0 0"/><path fill="#1d7291" d="m114.77 319.137 15.855 3.476-13.527 3.711Zm0 0"/><path fill="#f0fbfc" d="m130.625 322.613 4.652 9.477-18.18-5.766Zm0 0"/><path fill="#effdfd" d="m130.625 322.613-12.234-12.32 13.937-2.14Zm0 0"/><path fill="#197191" d="m130.625 322.613-15.855-3.476 3.62-8.844Zm0 0"/><path fill="#f7fcfe" d="m141.535 320.758-10.91 1.855 1.703-14.46Zm0 0"/><path fill="#f6fcfd" d="m135.277 332.09-4.652-9.477 10.91-1.855Zm0 0"/><path fill="#3d3364" d="m130.008 290.277 22.363 22.032-20.043-4.157Zm0 0"/><path fill="#3d3465" d="m166.398 303.445-14.027 8.864-22.363-22.032Zm0 0"/><path fill="#248d9d" d="m268.703 140.465 13.11 3.637-6.395 17.855Zm0 0"/><path fill="#417889" d="m275.418 161.957 6.394-17.855 11.282 11.789Zm0 0"/><path fill="#295a7f" d="m281.813 144.102-13.11-3.637 10.7-4.496Zm0 0"/><path fill="#fafcfd" d="m281.813 144.102 6.156-2.84 5.125 14.629Zm0 0"/><path fill="#295b80" d="m287.969 141.262-6.156 2.84-2.41-8.133Zm0 0"/><path fill="#306282" d="m268.488 123.336 18.032 2.207-7.118 10.426Zm0 0"/><path fill="#909782" d="m287.969 141.262-1.45-15.719 11.641 2.492Zm0 0"/><path fill="#276888" d="m286.52 125.543 1.449 15.719-8.567-5.293Zm0 0"/><path fill="#a3e2ab" d="m286.52 125.543-18.032-2.207 12.957-15.031Zm0 0"/><path fill="#f4d183" d="m286.52 125.543 13.52-9.926-1.88 12.418Zm0 0"/><path fill="#f1d285" d="m286.52 125.543-5.075-17.238 18.594 7.312Zm0 0"/><path fill="#fbfcfd" d="m287.969 141.262 11.328 4.11-6.203 10.519Zm0 0"/><path fill="#fafaf8" d="m299.297 145.371 9.46 20.695-15.663-10.175Zm0 0"/><path fill="#fcf9f5" d="m308.758 166.066-9.461-20.695 35.785.469Zm0 0"/><path fill="#2e6081" d="m299.297 145.371-11.328-4.11 10.191-13.226Zm0 0"/><path fill="#385377" d="m316.95 130.781-17.653 14.59-1.137-17.336Zm0 0"/><path fill="#f6f5e8" d="m299.297 145.371 17.652-14.59 18.133 15.059Zm0 0"/><path fill="#b3e6e5" d="m344.836 243.797-18.324-15.262 16.789-23.828Zm0 0"/><path fill="#beece6" d="m343.3 204.707-16.788 23.828-21.137-19.832Zm0 0"/><path fill="#fecf80" d="m326.512 228.535-17.957 7.594-3.18-27.426Zm0 0"/><path fill="#f2cb81" d="m268.379 242.516-2.344 14.656-6.676-2.985Zm0 0"/><path fill="#face80" d="m268.379 242.516-9.02 11.672-21.394-24.43Zm0 0"/><path fill="#efcb82" d="m308.555 236.129-24.102-8.383 20.922-19.043Zm0 0"/><path fill="#fecf80" d="m290.477 247.613-6.024-19.867 24.102 8.383Zm0 0"/><path fill="#d8c787" d="m284.453 227.746 3.25-23.539 17.672 4.496Zm0 0"/><path fill="#e1c784" d="m284.453 227.746 6.024 19.867-22.098-5.097Zm0 0"/><path fill="#d5c486" d="m287.703 204.207-3.25 23.54-19.539-10.821Zm0 0"/><path fill="#fecf80" d="m284.453 227.746-16.074 14.77-3.465-25.59Zm0 0"/><path fill="#fdfbfc" d="m208.727 187.422 1.097-6.809 22.188 5.082Zm0 0"/><path fill="#31959d" d="m231.273 199.148-22.546-11.726 23.285-1.727Zm0 0"/><path fill="#b5aa81" d="m208.727 187.422 22.546 11.726-28.91 4.489Zm0 0"/><path fill="#3e3364" d="m189.785 316.879-23.387-13.434 12.68-16.847Zm0 0"/><path fill="#433765" d="m189.785 316.879-10.707-30.281 31.82-5.2Zm0 0"/><path fill="#413564" d="m189.785 316.879 21.113-35.48 7.735 36.578Zm0 0"/><path fill="#3e3364" d="m166.398 303.445-45.132-38.683 57.812 21.836Zm0 0"/><path fill="#3e3264" d="m121.266 264.762 21.343-11.196 36.47 33.032Zm0 0"/><path fill="#eecb82" d="m167.55 245.41-28.886-22.414 43.445 14.34Zm0 0"/><path fill="#8baf90" d="m167.55 245.41 14.56-8.074 7.558 30.781Zm0 0"/><path fill="#82ab91" d="m142.61 253.566 24.94-8.156 22.118 22.707Zm0 0"/><path fill="#ddeae3" d="m301.594 293.445 39.14 5.59-46.644 18.473Zm0 0"/><path fill="#507583" d="m280.453 301.645 21.14-8.2-7.503 24.063Zm0 0"/><path fill="#25718d" d="m301.594 293.445-21.14 8.2 11.304-23.657Zm0 0"/><path fill="#f0f8f9" d="m294.09 317.508-18.61 14.219-6.94-13.383Zm0 0"/><path fill="#edf7f2" d="m294.09 317.508-5.152 51.851-13.458-37.632Zm0 0"/><path fill="#443a66" d="m197.32 335.852-7.535-18.973 28.848 1.098Zm0 0"/><path fill="#3b3868" d="m197.32 335.852-15.449 9.718 7.914-28.691Zm0 0"/><path fill="#413665" d="m203.098 339.652-5.778-3.8 21.313-17.875Zm0 0"/><path fill="#383f6d" d="m197.32 335.852 5.778 3.8-11.301 13.414Zm0 0"/><path fill="#3d3565" d="m181.871 345.57 15.45-9.718-5.524 17.214Zm0 0"/><path fill="#3a758a" d="m260.734 311.098 7.508-6.266.297 13.512Zm0 0"/><path fill="#f0fafb" d="m268.242 304.832-7.508 6.266 3.602-9.735Zm0 0"/><path fill="#ebf8f9" d="m274.426 295.914-6.184 8.918-3.906-3.469Zm0 0"/><path fill="#346c87" d="m280.453 301.645-12.21 3.187 6.183-8.918Zm0 0"/><path fill="#38748b" d="m268.242 304.832 12.211-3.187-11.914 16.699Zm0 0"/><path fill="#e6faf9" d="m280.453 301.645 13.637 15.863-25.55.836Zm0 0"/></svg>