<svg xmlns="http://www.w3.org/2000/svg" width="512" height="512" viewBox="0 0 384 384"><path fill="#a9b2a2" d="m206.164 69.598 13.371-18.418 10.344 21.683ZM132.66 0l-17.094 27.805L96.492 0ZM27.309 68.48l10.226-31.425 21.625 31.82Zm0 0"/><path fill="#a9b2a2" d="M37.535 37.055 27.31 68.48 0 50.598ZM79.336 35.113l27.187 16.02-15.695 15.941Zm0 0"/><path fill="#a9b2a2" d="m79.336 35.113 11.492 31.961-31.668 1.801ZM115.566 27.805l-36.23 7.308L96.492 0Zm0 0"/><path fill="#a9b2a2" d="m106.523 51.133-27.187-16.02 36.23-7.308ZM37.535 37.055l41.8-1.942L59.16 68.875Zm0 0"/><path fill="#a9b2a2" d="m79.336 35.113-41.8 1.942L55.433 0ZM90.828 67.074l-9.195 22.82L59.16 68.876ZM27.766 272.96 39.398 250l13.122 23.32ZM26.191 320.531l12.473-23.648 15.281 25.644ZM241.566 248.719l17.125 12.96-26.02 8.032ZM306.703 384h-31.855l-.04-22.168ZM304.691 341.762 306.703 384l-31.894-22.168ZM330.516 291.59l26.504-.531-11.336 34.656ZM344.215 266.543l-13.7 25.047-15.23-22.348Zm0 0"/><path fill="#a9b2a2" d="m326.02 243.164 18.195 23.379-28.93 2.7Zm0 0"/><path fill="#a9b2a2" d="m344.215 266.543-18.195-23.379 29.19-4.09ZM344.215 266.543l12.805 24.516-26.504.53ZM290.91 83.457l-22.988 4.074 7.582-17.656Zm0 0"/><path fill="#a9b2a2" d="m290.91 83.457-9.078 21.79-13.91-17.716ZM316.55 40.918l-29.675-9.555L313.289 0ZM148.344 30.563 132.66 0h39.656Zm0 0"/><path fill="#a9b2a2" d="m132.66 0 15.684 30.563-32.778-2.758ZM27.309 68.48 0 92.191V50.598Zm0 0"/><path fill="#a9b2a2" d="m37.414 93.066-11.477 22.188L0 92.19ZM25.938 115.254l11.476-22.188 12.305 23.22ZM37.414 93.066 27.31 68.48l31.851.395ZM0 50.598V0l37.535 37.055ZM106.523 51.133l8 19.234-23.695-3.293ZM96.492 0 79.336 35.113 55.434 0ZM31.297 187.973l-.723 33.855L0 206.618Zm0 0"/><path fill="#a9b2a2" d="m35.457 137.773-9.52-22.52 23.782 1.032ZM99.938 195.3l18.093 7.282-20.558 14.887ZM82.527 199.05l17.41-3.75-2.464 22.169Zm0 0"/><path fill="#a9b2a2" d="M25.938 115.254 0 136.098V92.19ZM34.531 350l16.254 34H0ZM0 336.828V295.68l26.191 24.851ZM0 248.352l27.766 24.609L0 295.68Zm0 0"/><path fill="#a9b2a2" d="m0 295.68 38.664 1.203-12.473 23.648Zm0 0"/><path fill="#a9b2a2" d="m27.766 272.96 10.898 23.923L0 295.68Zm0 0"/><path fill="#a9b2a2" d="M38.664 296.883 27.766 272.96l24.754.36ZM39.398 250l25.434 2.695L52.52 273.32ZM364.734 106.348 384 118.492l-23.996 11.078ZM355.531 158.04 384 184.84l-38.863.648ZM172.676 92.121l-11.031 20.25-12.829-19.121ZM138.79 114.402l22.855-2.03-9.297 19.776ZM267.922 87.531l-13.32-19.457 20.902 1.801ZM292.188 279.36l-13.165-14.028 15.743-7.117ZM241.566 248.719l-20.574-2.555 16.317-16.621ZM232.672 269.71l-11.68-23.546 20.574 2.555ZM384 343.203l-26.27 16.465-12.046-33.953ZM271.965 333.184l32.726 8.578-29.882 20.07ZM306.703 384l25.98-24.504L345.228 384Zm0 0"/><path fill="#a9b2a2" d="m304.691 341.762 27.993 17.734L306.704 384ZM332.684 359.496l-27.993-17.734 40.993-16.047ZM357.73 359.668l-25.046-.172 13-33.781ZM332.684 359.496l25.046.172L345.227 384ZM292.188 279.36l2.578-21.145 20.52 11.027ZM243.398 384l31.41-22.168.04 22.168Zm0 0"/><path fill="#a9b2a2" d="M384 307.555v35.648l-38.316-17.488Zm0 0"/><path fill="#a9b2a2" d="M357.02 291.059 384 307.555l-38.316 18.16ZM384 265.445l-39.785 1.098 10.996-27.469Zm0 0"/><path fill="#a9b2a2" d="M384 225.074v40.371l-28.79-26.37ZM211.824 31.531l25.531-.828-17.82 20.477Zm0 0"/><path fill="#a9b2a2" d="m216.172 0 21.183 30.703-25.53.828ZM253.14 47.969l-15.785-17.266 24.895 3.258Zm0 0"/><path fill="#a9b2a2" d="m262.82 0-25.465 30.703L216.172 0ZM237.355 30.703 262.82 0l-.57 33.96ZM194.105 47.383l17.72-15.852 7.71 19.649Zm0 0"/><path fill="#a9b2a2" d="m194.105 47.383 25.43 3.797-13.37 18.418ZM194.105 47.383 168.496 51.8l7.54-20.227ZM290.91 83.457l2.766-24.926 28.05 16.504ZM286.875 31.363 262.82 0h50.47Zm0 0"/><path fill="#a9b2a2" d="m262.82 0 24.055 31.363-24.625 2.598ZM286.875 31.363 270.973 51.7l-8.723-17.738Zm0 0"/><path fill="#a9b2a2" d="m270.973 51.7-17.832-3.731 9.109-14.008ZM194.063 23.473l.042 23.91-18.07-15.809Zm0 0"/><path fill="#a9b2a2" d="m211.824 31.531-17.762-8.058L216.173 0Zm0 0"/><path fill="#a9b2a2" d="m194.105 47.383-.042-23.91 17.761 8.058ZM128.223 51.855l-21.7-.722 9.043-23.328Zm0 0"/><path fill="#a9b2a2" d="m148.344 30.563-20.121 21.292-12.657-24.05ZM176.035 31.574l-27.691-1.012L172.316 0ZM37.414 93.066 0 92.191l27.309-23.71ZM37.535 37.055 0 0h55.434ZM101.707 85.21l-20.074 4.685 9.195-22.82Zm0 0"/><path fill="#a9b2a2" d="m114.523 70.367-12.816 14.844-10.879-18.137ZM0 173.344l31.297 14.629L0 206.617ZM30.574 221.828 0 248.352v-41.735ZM0 248.352l30.574-26.524L39.398 250ZM53.941 207.727l-22.644-19.754 32.598-3.828ZM53.941 207.727l-23.367 14.101.723-33.855Zm0 0"/><path fill="#a9b2a2" d="m69 202.45-15.059 5.277 9.954-23.582ZM31.297 187.973l17.387-26.79 15.21 22.962ZM121.352 268.164l-16.04 17.578-8.84-17.441ZM138.969 209.418l-16.371 15.922-4.567-22.758Zm0 0"/><path fill="#a9b2a2" d="m118.031 202.582 4.567 22.758-25.125-7.871ZM99.938 195.3l-17.41 3.75 6.429-19.827ZM88.957 179.223l-6.43 19.828-18.632-14.906ZM73.43 215.973 69 202.449l13.527-3.398ZM73.43 215.973l9.097-16.922 14.946 18.418Zm0 0"/><path fill="#a9b2a2" d="m80.098 236.023-6.668-20.05 24.043 1.496ZM35.457 137.773 0 136.098l25.938-20.844ZM81.633 89.895l-20.649 7.343-1.824-28.363Zm0 0"/><path fill="#a9b2a2" d="m60.984 97.238-23.57-4.172L59.16 68.875ZM37.414 93.066l23.57 4.172-11.265 19.047Zm0 0"/><path fill="#a9b2a2" d="m60.984 97.238 15.614 18.344-26.88.703ZM60.984 97.238l20.649-7.343-5.035 25.687ZM102.594 360.922 125.473 384h-37.68Zm0 0"/><path fill="#a9b2a2" d="m72.82 351.648 29.774 9.274L87.793 384ZM199.008 384l21.222-28.86L243.398 384ZM258.691 261.68l-6.191 21.578-19.828-13.547ZM0 336.828 34.531 350 0 384Zm0 0"/><path fill="#a9b2a2" d="M34.531 350 0 336.828l26.191-16.297ZM27.766 272.96 0 248.353 39.398 250ZM57.164 230.746l7.668 21.95L39.398 250ZM80.098 236.023l-22.934-5.277 16.266-14.773ZM50.785 384l22.035-32.352L87.793 384Zm0 0"/><path fill="#a9b2a2" d="m34.531 350-8.34-29.469 27.754 1.996ZM72.82 351.648 34.531 350l19.414-27.473Zm0 0"/><path fill="#a9b2a2" d="m50.785 384-16.254-34 38.29 1.648ZM104.988 315.777l-22.297 4.828 10.79-20.109ZM82.691 320.605l-9.87 31.043-18.876-29.12ZM384 118.492v27.688l-23.996-16.61ZM384 118.492l-19.266-12.144L384 92.578ZM313.348 126.438l23.254-17.942-1.997 30.438Zm0 0"/><path fill="#a9b2a2" d="m336.602 108.496 23.402 21.074-25.399 9.364Zm0 0"/><path fill="#a9b2a2" d="m336.602 108.496 28.132-2.148-4.73 23.222ZM355.531 158.04 384 146.18v38.66Zm0 0"/><path fill="#a9b2a2" d="m384 146.18-28.469 11.86 4.473-28.47ZM364.734 106.348l-8.183-24.516L384 92.578Zm0 0"/><path fill="#a9b2a2" d="M356.55 81.832 384 60.688v31.89Zm0 0"/><path fill="#a9b2a2" d="m348.254 49.61 8.297 32.222-34.824-6.797ZM321.727 75.035l34.824 6.797-19.95 26.664Zm0 0"/><path fill="#a9b2a2" d="m356.55 81.832 8.184 24.516-28.132 2.148ZM286.875 31.363l29.676 9.555-22.875 17.613ZM293.676 58.531l22.875-17.613 5.176 34.117Zm0 0"/><path fill="#a9b2a2" d="m316.55 40.918 31.704 8.691-26.527 25.426ZM173.281 202.887l-19.285-7.614 15.633-13.375ZM152.348 132.148l-21.813 3.532 8.254-21.278ZM213.309 106.559l-26.055 7.21 8.762-23.957Zm0 0"/><path fill="#a9b2a2" d="M187.254 113.77 172.676 92.12l23.34-2.308ZM187.254 113.77l-25.61-1.399 11.032-20.25ZM167.25 147.02l3.629-17.891 16.336 9.93Zm0 0"/><path fill="#a9b2a2" d="m170.879 129.129 16.375-15.36-.04 25.29Zm0 0"/><path fill="#a9b2a2" d="m161.645 112.371 9.234 16.758-18.531 3.02Zm0 0"/><path fill="#a9b2a2" d="m187.254 113.77-16.375 15.359-9.234-16.758ZM196.016 89.813l10.148-20.215 8.617 16.738ZM214.781 86.336l-1.472 20.223-17.293-16.746ZM239.074 54.402l-1.719-23.699 15.786 17.266Zm0 0"/><path fill="#a9b2a2" d="m219.535 51.18 19.54 3.222-9.196 18.461Zm0 0"/><path fill="#a9b2a2" d="m237.355 30.703 1.72 23.7-19.54-3.223ZM254.602 68.074l16.37-16.375 4.532 18.176Zm0 0"/><path fill="#a9b2a2" d="m270.973 51.7-16.371 16.374-1.461-20.105Zm0 0"/><path fill="#a9b2a2" d="m254.602 68.074-15.528-13.672 14.067-6.433ZM258.66 108.297l9.262-20.766 13.91 17.715ZM258.66 108.297l-12.394 21.844-9.899-21.696ZM307.938 251.867l18.082-8.703-10.735 26.078ZM220.992 246.164l-6.058-23.059 22.375 6.438ZM357.73 359.668 384 343.203V384ZM345.227 384l12.503-24.332L384 384ZM312.055 310.117l18.46-18.527 15.169 34.125ZM304.691 341.762l7.364-31.645 33.629 15.598ZM357.02 291.059 384 265.445v42.11ZM344.215 266.543 384 265.445l-26.98 25.614ZM113.504 178.727 99.937 195.3l-10.98-16.078ZM99.938 195.3l13.566-16.573 4.527 23.855ZM182.84 70.652l13.176 19.16-23.34 2.31Zm0 0"/><path fill="#a9b2a2" d="m182.84 70.652 23.324-1.054-10.148 20.215Zm0 0"/><path fill="#a9b2a2" d="m182.84 70.652 11.265-23.27 12.06 22.216Zm0 0"/><path fill="#a9b2a2" d="m194.105 47.383-11.265 23.27L168.496 51.8ZM168.496 51.8l-20.152-21.237 27.691 1.011ZM159.727 73.05l12.949 19.071-23.86 1.129Zm0 0"/><path fill="#a9b2a2" d="m159.727 73.05 23.113-2.398-10.164 21.47Zm0 0"/><path fill="#a9b2a2" d="m182.84 70.652-23.113 2.399 8.77-21.25ZM293.676 58.531 270.973 51.7l15.902-20.336ZM293.676 58.531l-2.766 24.926-15.406-13.582Zm0 0"/><path fill="#a9b2a2" d="m270.973 51.7 22.703 6.831-18.172 11.344ZM194.063 23.473 172.316 0h43.856ZM172.316 0l21.746 23.473-18.027 8.101ZM128.223 51.855l-13.7 18.512-8-19.234ZM0 173.344l23.715-14.016 7.582 28.645Zm0 0"/><path fill="#a9b2a2" d="m23.715 159.328 24.969 1.856-17.387 26.789Zm0 0"/><path fill="#a9b2a2" d="m48.684 161.184-24.97-1.856 11.743-21.555Zm0 0"/><path fill="#a9b2a2" d="M23.715 159.328 0 173.344v-37.246Zm0 0"/><path fill="#a9b2a2" d="m35.457 137.773-11.742 21.555L0 136.098ZM30.574 221.828l26.59 8.918L39.398 250Zm0 0"/><path fill="#a9b2a2" d="m53.941 207.727 3.223 23.02-26.59-8.919ZM61.95 138.402l-13.266 22.782-13.227-23.41ZM61.95 138.402l-26.493-.629 14.262-21.488Zm0 0"/><path fill="#a9b2a2" d="m76.598 115.582-14.649 22.82-12.23-22.117ZM61.95 138.402l14.648-22.82 9.925 23.738ZM74.871 160.14l14.086 19.083-25.062 4.922Zm0 0"/><path fill="#a9b2a2" d="m48.684 161.184 26.187-1.043-10.976 24.004ZM128.59 245.727l-5.992-20.387 25.152 7.05ZM157.352 212.688l-3.356-17.415 19.285 7.614ZM134.734 188.945l4.235 20.473-20.938-6.836ZM113.504 178.727l21.23 10.218-16.703 13.637ZM122.598 225.34l-18.04 19.52-7.085-27.391Zm0 0"/><path fill="#a9b2a2" d="m104.559 244.86-24.461-8.837 17.375-18.554ZM104.559 244.86l24.03.867-7.237 22.437ZM128.59 245.727l-24.031-.868 18.039-19.52ZM82.527 199.05 69 202.45l-5.105-18.305Zm0 0"/><path fill="#a9b2a2" d="m73.43 215.973-19.489-8.246L69 202.449Zm0 0"/><path fill="#a9b2a2" d="m73.43 215.973-16.266 14.773-3.223-23.02ZM86.523 139.32l11.368-15.906 10.836 15.262ZM121.688 156.043l-22.657 2.648 9.696-20.015ZM124.266 350.035l-21.672 10.887-.614-23.402Zm0 0"/><path fill="#a9b2a2" d="m125.473 384-22.88-23.078 21.673-10.887ZM196.105 352.895l24.125 2.246L199.008 384ZM205.332 333.84l14.898 21.3-24.125-2.245ZM199.008 384h-36.969l12.879-24.281Zm0 0"/><path fill="#a9b2a2" d="m199.008 384-24.09-24.281 21.187-6.824ZM274.809 361.832l-26.622-14.223 23.778-14.425ZM105.313 285.742l-16.778-1.558 7.938-15.883ZM123.445 292.352l-18.132-6.61 16.039-17.578Zm0 0"/><path fill="#a9b2a2" d="m143.938 282.7-20.493 9.652-2.093-24.188ZM84.11 254.879l-19.278-2.184 15.266-16.672ZM64.832 252.695l-7.668-21.949 22.934 5.277ZM84.11 254.879l20.449-10.02-8.086 23.442Zm0 0"/><path fill="#a9b2a2" d="m104.559 244.86 16.793 23.304-24.88.137ZM104.559 244.86l-20.45 10.019-4.011-18.856ZM75.93 271.379l-23.41 1.941 12.312-20.625ZM306.2 103.234l7.148 23.204-19.172-5.637Zm0 0"/><path fill="#a9b2a2" d="m306.2 103.234-12.024 17.567-12.344-15.555ZM306.2 103.234l15.527-28.199 14.875 33.461Zm0 0"/><path fill="#a9b2a2" d="m290.91 83.457 15.29 19.777-24.368 2.012Zm0 0"/><path fill="#a9b2a2" d="m306.2 103.234-15.29-19.777 30.817-8.422ZM306.2 103.234l30.402 5.262-23.254 17.942ZM355.531 158.04l-28.097 6.151 7.171-25.257Zm0 0"/><path fill="#a9b2a2" d="m360.004 129.57-4.473 28.47-20.926-19.106ZM384 184.84l-27.39 25.965-11.473-25.317Zm0 0"/><path fill="#a9b2a2" d="m356.61 210.805-22.075-4.72 10.602-20.597ZM384 225.074l-27.39-14.27L384 184.84ZM356.61 210.805l27.39 14.27-28.79 14ZM345.137 185.488l-30.086 4.973 12.383-26.27ZM355.531 158.04l-10.394 27.448-17.703-21.297Zm0 0"/><path fill="#a9b2a2" d="m345.137 185.488-10.602 20.598-19.484-15.625ZM348.254 49.61 384 0v60.688ZM130.535 135.68l21.813-3.532-6.961 22.168ZM108.727 138.676l21.808-2.996-8.847 20.363ZM187.254 113.77l20.047 15.664-20.086 9.625Zm0 0"/><path fill="#a9b2a2" d="m207.3 129.434-20.046-15.664 26.055-7.211ZM213.309 106.559l1.472-20.223 13.281 6.457Zm0 0"/><path fill="#a9b2a2" d="m236.367 108.445-23.058-1.886 14.754-13.766ZM214.781 86.336l-8.617-16.738 23.715 3.265Zm0 0"/><path fill="#a9b2a2" d="m214.781 86.336 15.098-13.473-1.816 19.93ZM254.602 68.074l-24.723 4.79 9.195-18.462ZM246.059 89.684l12.601 18.613-22.293.148ZM246.059 89.684l8.543-21.61 13.32 19.457ZM258.66 108.297 246.06 89.684l21.863-2.153Zm0 0"/><path fill="#a9b2a2" d="m228.063 92.793 17.996-3.11-9.692 18.762Zm0 0"/><path fill="#a9b2a2" d="m246.059 89.684-16.18-16.82 24.723-4.79Zm0 0"/><path fill="#a9b2a2" d="m229.879 72.863 16.18 16.82-17.996 3.11ZM214.934 223.105l18.293-18.23 4.082 24.668Zm0 0"/><path fill="#a9b2a2" d="m233.227 204.875-18.293 18.23-4.473-20.003ZM287.477 187.336l6.984 22.695-22.156-6.617ZM243.113 154.258l-18.015-12.196 21.168-11.921ZM257.746 238.035l-16.18 10.684-4.257-19.176ZM257.746 238.035l.945 23.645-17.125-12.961ZM279.023 265.332l-20.332-3.652 18.782-14.508ZM334.535 206.086l-16.906 12.059-2.578-27.684ZM294.766 258.215l13.171-6.348 7.348 17.375Zm0 0"/><path fill="#a9b2a2" d="m298.79 235.441 9.147 16.426-13.171 6.348ZM243.113 154.258l-19.847 9.207 1.832-21.403ZM223.266 163.465l19.847-9.207-.52 24.644Zm0 0"/><path fill="#a9b2a2" d="m225.098 142.063-1.832 21.402-17.743-12.344ZM193.273 188.578l-19.992 14.309-3.652-20.989ZM194.328 240.484l-21.906-15.28 20.621-11.27ZM190.148 311.215l23.676-19.227.68 23.688Zm0 0"/><path fill="#a9b2a2" d="m213.824 291.988-23.676 19.227-2.683-27.836ZM252.5 283.258l-15.457 8.277-4.371-21.824ZM271.965 333.184l16.426-18.434 16.3 27.012Zm0 0"/><path fill="#a9b2a2" d="m288.39 314.75 23.665-4.633-7.364 31.645Zm0 0"/><path fill="#a9b2a2" d="m267.508 310.438 20.883 4.312-16.426 18.434ZM248.188 347.61l-4.79 36.39-23.168-28.86ZM243.398 384l4.79-36.39 26.62 14.222ZM336.453 26.457l-19.902 14.461L313.289 0Zm0 0"/><path fill="#a9b2a2" d="m316.55 40.918 19.903-14.461 11.8 23.152ZM159.727 73.05l-11.332-16.34 20.101-4.91ZM148.395 56.71l-20.172-4.855 20.12-21.292Zm0 0"/><path fill="#a9b2a2" d="m168.496 51.8-20.101 4.91-.051-26.147ZM122.664 94.324l-20.957-9.113 12.816-14.844ZM74.871 160.14l24.16-1.449-10.074 20.532ZM99.031 158.691l14.473 20.036-24.547.496ZM76.598 115.582l21.293 7.832-11.368 15.906ZM76.598 115.582l5.035-25.687 17.879 14.566Zm0 0"/><path fill="#a9b2a2" d="m99.031 158.691-12.508-19.37 22.204-.645ZM101.98 337.52l-19.289-16.915 22.297-4.828Zm0 0"/><path fill="#a9b2a2" d="m82.691 320.605 19.29 16.915-29.16 14.128Zm0 0"/><path fill="#a9b2a2" d="m101.98 337.52.614 23.402-29.774-9.274ZM149.102 359.086 162.039 384h-36.566ZM124.266 350.035l24.836 9.05L125.472 384ZM205.332 333.84l23.117-3.246-8.219 24.547ZM205.332 333.84l-15.184-22.625 24.356 4.46ZM248.188 347.61l1.64-25.493 22.137 11.067ZM105.313 285.742 93.48 300.496l-4.945-16.312Zm0 0"/><path fill="#a9b2a2" d="m109.48 300.695-16-.199 11.832-14.754ZM93.48 300.496l16 .2-4.492 15.081ZM141.102 309.016l-17.657-16.664 20.493-9.653ZM143.965 334.695l5.137 24.39-24.836-9.05ZM101.98 337.52l20.618-11.34 1.668 23.855Zm0 0"/><path fill="#a9b2a2" d="m122.598 326.18 21.367 8.515-19.7 15.34ZM143.965 334.695l20.312-13.004-1.293 20.645Zm0 0"/><path fill="#a9b2a2" d="m149.102 359.086-5.137-24.39 19.02 7.64ZM88.535 284.184 75.93 271.379l20.543-3.078ZM75.93 271.379l8.18-16.5L96.472 268.3ZM75.93 271.379l-7.223 24.687L52.52 273.32ZM313.348 126.438l-17.895 13.492-1.277-19.13ZM326.02 243.164l11.746-20.117 17.445 16.027Zm0 0"/><path fill="#a9b2a2" d="m337.766 223.047 18.843-12.242-1.398 28.27Zm0 0"/><path fill="#a9b2a2" d="m356.61 210.805-18.844 12.242-3.23-16.961ZM337.766 223.047l-20.137-4.902 16.906-12.06ZM356.55 81.832l-8.296-32.223L384 60.687Zm0 0"/><path fill="#a9b2a2" d="m348.254 49.61-11.8-23.153L384 0ZM336.453 26.457 313.29 0H384ZM153.996 195.273l-3.922-19.128 19.555 5.753Zm0 0"/><path fill="#a9b2a2" d="m134.734 188.945 15.34-12.8 3.922 19.128ZM163.258 164.613l21.328-1.465-14.957 18.75Zm0 0"/><path fill="#a9b2a2" d="m150.074 176.145 13.184-11.532 6.37 17.285ZM113.504 178.727l19.758-7.782 1.472 18Zm0 0"/><path fill="#a9b2a2" d="m133.262 170.945 16.812 5.2-15.34 12.8ZM121.688 156.043l11.574 14.902-19.758 7.782ZM97.89 123.414l-21.292-7.832 22.914-11.121ZM187.215 139.059l-2.63 24.09-17.335-16.13ZM187.215 139.059l20.086-9.625-1.778 21.687Zm0 0"/><path fill="#a9b2a2" d="m187.215 139.059 18.308 12.062-20.937 12.027ZM266.152 183.723l21.325 3.613-15.172 16.078Zm0 0"/><path fill="#a9b2a2" d="m254.363 197.594 11.79-13.871 6.152 19.691ZM266.152 183.723l-23.558-4.82 18.898-14.575Zm0 0"/><path fill="#a9b2a2" d="m242.594 178.902 23.558 4.82-11.789 13.872Zm0 0"/><path fill="#a9b2a2" d="m242.594 178.902 11.77 18.692-21.137 7.281ZM242.594 178.902l.52-24.644 18.378 10.07ZM287.477 187.336l12.21-22.652 15.364 25.777ZM299.688 164.684l27.746-.493-12.383 26.27ZM294.46 210.031l23.169 8.114-18.84 17.296Zm0 0"/><path fill="#a9b2a2" d="m294.46 210.031-6.983-22.695 27.574 3.125ZM317.629 218.145l-23.168-8.114 20.59-19.57ZM261.492 164.328l-18.379-10.07 17.399-7.836ZM207.3 129.434l17.798 12.629-19.575 9.058ZM225.098 142.063l.476-18.708 20.692 6.786Zm0 0"/><path fill="#a9b2a2" d="m225.574 123.355 10.793-14.91 9.899 21.696Zm0 0"/><path fill="#a9b2a2" d="M225.574 123.355 213.31 106.56l23.058 1.886Zm0 0"/><path fill="#a9b2a2" d="m213.309 106.559 12.265 16.796-18.273 6.079ZM225.574 123.355l-.476 18.707-17.797-12.628ZM255.246 216.531l-.883-18.937 17.942 5.82Zm0 0"/><path fill="#a9b2a2" d="m275.96 225.098-20.714-8.567 17.059-13.117ZM271.184 280.047l-18.684 3.21 6.191-21.577Zm0 0"/><path fill="#a9b2a2" d="m279.023 265.332-7.84 14.715-12.492-18.367ZM271.184 280.047l7.84-14.715 13.164 14.027ZM184.586 163.148l8.687 25.43-23.644-6.68ZM193.043 213.934l.23-25.356 17.188 14.524ZM187.465 283.379l-21.656-11.402 18.32-9.809ZM194.328 240.484l20.606-17.379 6.058 23.06ZM214.934 223.105l-21.891-9.171 17.418-10.832Zm0 0"/><path fill="#a9b2a2" d="m214.934 223.105-20.606 17.38-1.285-26.551ZM205.707 265.703l-18.242 17.676-3.336-21.211Zm0 0"/><path fill="#a9b2a2" d="m194.328 240.484 11.379 25.22-21.578-3.536ZM213.824 291.988l-8.117-26.285 26.965 4.008Zm0 0"/><path fill="#a9b2a2" d="m205.707 265.703 8.117 26.285-26.36-8.61ZM205.707 265.703l15.285-19.539 11.68 23.547Zm0 0"/><path fill="#a9b2a2" d="m205.707 265.703-11.379-25.219 26.664 5.68ZM168.309 248.363l-22.262 9.942 1.703-25.914ZM146.047 258.305l-17.457-12.578 19.16-13.336Zm0 0"/><path fill="#a9b2a2" d="m128.59 245.727 17.457 12.578-24.695 9.86Zm0 0"/><path fill="#a9b2a2" d="m146.047 258.305-2.11 24.394-22.585-14.535ZM172.422 225.203l-4.113 23.16-20.559-15.972ZM157.352 212.688l15.07 12.515-24.672 7.188ZM232.543 309.105l-18.719-17.117 23.219-.453ZM232.543 309.105l18.031-7.289-.746 20.301ZM228.45 330.594l4.093-21.489 17.285 13.012ZM250.574 301.816l-13.531-10.28 15.457-8.278ZM288.39 314.75l7.817-16.898 15.848 12.265ZM137.078 73.285l22.649-.234-10.91 20.199Zm0 0"/><path fill="#a9b2a2" d="m137.078 73.285 11.317-16.574 11.332 16.34ZM122.664 94.324l14.414-21.039 11.738 19.965Zm0 0"/><path fill="#a9b2a2" d="m137.078 73.285-14.414 21.04-8.14-23.958Zm0 0"/><path fill="#a9b2a2" d="m128.223 51.855 8.855 21.43-22.555-2.918Zm0 0"/><path fill="#a9b2a2" d="m148.395 56.71-11.317 16.575-8.855-21.43ZM138.79 114.402l-16.126-20.078 26.152-1.074Zm0 0"/><path fill="#a9b2a2" d="m161.645 112.371-22.856 2.031 10.027-21.152ZM122.664 94.324l-23.152 10.137 2.195-19.25ZM101.707 85.21l-2.195 19.25-17.88-14.565ZM61.95 138.402l12.921 21.739-26.187 1.043ZM74.871 160.14l11.652-20.82 12.508 19.371Zm0 0"/><path fill="#a9b2a2" d="M74.871 160.14 61.95 138.403l24.574.918ZM138.969 209.418l-4.235-20.473 19.262 6.328ZM138.969 209.418l18.383 3.27-9.602 19.703ZM122.598 225.34l16.37-15.922 8.782 22.973Zm0 0"/><path fill="#a9b2a2" d="m157.352 212.688-18.383-3.27 15.027-14.145ZM174.918 359.719l-25.816-.633 13.882-16.75Zm0 0"/><path fill="#a9b2a2" d="m174.918 359.719-11.934-17.383 19.352-5.344ZM149.102 359.086l25.816.633L162.039 384ZM228.45 330.594l19.738 17.015-27.958 7.532Zm0 0"/><path fill="#a9b2a2" d="m248.188 347.61-19.739-17.016 21.38-8.477ZM214.504 315.676l13.945 14.918-23.117 3.246ZM205.332 333.84l-22.996 3.152 7.812-25.777ZM164.277 321.691l18.059 15.301-19.352 5.344Zm0 0"/><path fill="#a9b2a2" d="m190.148 311.215-7.812 25.777-18.059-15.3ZM174.918 359.719l7.418-22.727 13.77 15.903Zm0 0"/><path fill="#a9b2a2" d="m182.336 336.992 22.996-3.152-9.227 19.055ZM109.48 300.695l-4.168-14.953 18.133 6.61ZM104.988 315.777l17.61 10.403-20.618 11.34ZM119.68 308.66l21.422.356-18.504 17.164Zm0 0"/><path fill="#a9b2a2" d="m119.68 308.66-14.692 7.117 4.492-15.082Zm0 0"/><path fill="#a9b2a2" d="m104.988 315.777 14.692-7.117 2.918 17.52ZM141.102 309.016l2.863 25.68-21.367-8.516ZM143.965 334.695l-2.863-25.68 23.175 12.676ZM84.11 254.879l-8.18 16.5-11.098-18.684ZM52.52 273.32l16.187 22.746-30.043.817Zm0 0"/><path fill="#a9b2a2" d="m38.664 296.883 30.043-.817-14.762 26.461ZM68.707 296.066l13.984 24.54-28.746 1.921Zm0 0"/><path fill="#a9b2a2" d="m82.691 320.605-13.984-24.539 24.773 4.43ZM68.707 296.066l19.828-11.882 4.945 16.312Zm0 0"/><path fill="#a9b2a2" d="m68.707 296.066 7.223-24.687 12.605 12.805ZM314.027 146.578l-18.574-6.648 17.895-13.493ZM295.453 139.93l18.574 6.648-14.34 18.106Zm0 0"/><path fill="#a9b2a2" d="m314.027 146.578-.68-20.14 21.258 12.496ZM327.434 164.191l-13.407-17.613 20.578-7.644ZM294.176 120.8l-20.738 8.063 8.394-23.617ZM295.453 139.93l-22.015-11.067 20.738-8.062Zm0 0"/><path fill="#a9b2a2" d="m273.438 128.863-14.778-20.566 23.172-3.05Zm0 0"/><path fill="#a9b2a2" d="m273.438 128.863-27.172 1.278 12.394-21.844ZM260.512 146.422l-17.399 7.836 3.153-24.117ZM273.438 128.863l-12.926 17.559-14.246-16.281ZM326.02 243.164l-18.082 8.703-9.149-16.426ZM167.25 147.02l-3.992 17.593-17.871-10.297ZM170.879 129.129l-3.629 17.89-14.902-14.87Zm0 0"/><path fill="#a9b2a2" d="m152.348 132.148 14.902 14.872-21.863 7.296ZM184.586 163.148l-21.328 1.465 3.992-17.593ZM99.031 158.691l22.656-2.648-8.183 22.684ZM145.387 154.316l-23.7 1.727 8.848-20.363ZM121.688 156.043l23.699-1.727-12.125 16.63ZM145.387 154.316l17.87 10.297-13.183 11.532Zm0 0"/><path fill="#a9b2a2" d="m133.262 170.945 12.125-16.629 4.687 21.829ZM278.117 170.531l21.57-5.847-12.21 22.652ZM278.117 170.531l-11.965 13.192-4.66-19.395Zm0 0"/><path fill="#a9b2a2" d="m266.152 183.723 11.965-13.192 9.36 16.805ZM257.746 238.035l19.727 9.137-18.782 14.508ZM277.473 247.172l21.316-11.73-4.023 22.773Zm0 0"/><path fill="#a9b2a2" d="m279.023 265.332-1.55-18.16 17.293 11.043ZM255.246 216.531l-22.02-11.656 21.137-7.281Zm0 0"/><path fill="#a9b2a2" d="m233.227 204.875 22.02 11.656-17.938 13.012ZM205.254 170.074l-20.668-6.926 20.937-12.027ZM223.266 163.465l-18.012 6.61.27-18.954Zm0 0"/><path fill="#a9b2a2" d="m205.254 170.074-11.98 18.504-8.688-25.43ZM210.46 203.102l7.567-18.286 15.2 20.059Zm0 0"/><path fill="#a9b2a2" d="m218.027 184.816 24.567-5.914-9.367 25.973Zm0 0"/><path fill="#a9b2a2" d="m218.027 184.816 5.239-21.351 19.328 15.437ZM172.422 225.203l.86-22.316 19.761 11.047Zm0 0"/><path fill="#a9b2a2" d="m157.352 212.688 15.93-9.801-.86 22.316Zm0 0"/><path fill="#a9b2a2" d="m193.043 213.934-19.762-11.047 19.992-14.309ZM237.043 291.535l-23.219.453 18.848-22.277ZM165.418 296.676l-24.316 12.34 2.835-26.317ZM141.102 309.016l24.316-12.34-1.14 25.015ZM165.809 271.977l2.5-23.614 15.82 13.805ZM232.543 309.105l-18.04 6.57-.679-23.687ZM214.504 315.676l18.039-6.57-4.094 21.488ZM264.355 294.313l-13.78 7.503 1.925-18.558Zm0 0"/><path fill="#a9b2a2" d="m271.184 280.047-6.829 14.265-11.855-11.054ZM250.574 301.816l-18.031 7.29 4.5-17.57ZM308.852 289.762l-16.664-10.403 23.097-10.117ZM296.207 297.852l12.645-8.09 3.203 20.355ZM312.055 310.117l-3.203-20.355 21.664 1.828Zm0 0"/><path fill="#a9b2a2" d="m330.516 291.59-21.664-1.828 6.433-20.52ZM97.89 123.414l18.516-4.89-7.68 20.152Zm0 0"/><path fill="#a9b2a2" d="m116.406 118.523-18.515 4.891 1.62-18.953Zm0 0"/><path fill="#a9b2a2" d="m138.79 114.402-22.384 4.121 6.258-24.199Zm0 0"/><path fill="#a9b2a2" d="m116.406 118.523-16.894-14.062 23.152-10.137ZM108.727 138.676l7.68-20.153 14.128 17.157Zm0 0"/><path fill="#a9b2a2" d="m130.535 135.68-14.129-17.157 22.383-4.12ZM267.508 310.438l-3.153-16.125 15.598 1.824Zm0 0"/><path fill="#a9b2a2" d="m249.828 322.117 17.68-11.68 4.457 22.747Zm0 0"/><path fill="#a9b2a2" d="m250.574 301.816 16.934 8.622-17.68 11.68Zm0 0"/><path fill="#a9b2a2" d="m250.574 301.816 13.781-7.503 3.153 16.125ZM141.102 309.016l-21.422-.356 3.765-16.308Zm0 0"/><path fill="#a9b2a2" d="m119.68 308.66-10.2-7.965 13.965-8.343ZM278.05 152.453l-16.558 11.875-.98-17.906ZM261.492 164.328l16.559-11.875.066 18.078Zm0 0"/><path fill="#a9b2a2" d="m278.05 152.453 21.637 12.23-21.57 5.848ZM278.05 152.453l-17.538-6.031 12.926-17.559Zm0 0"/><path fill="#a9b2a2" d="m278.05 152.453 17.403-12.523 4.235 24.754Zm0 0"/><path fill="#a9b2a2" d="m278.05 152.453-4.613-23.59 22.016 11.067ZM299.688 164.684l14.34-18.106 13.406 17.613ZM337.766 223.047l-11.746 20.117-8.391-25.02ZM317.629 218.145l8.39 25.02-27.23-7.724ZM257.746 238.035l-2.5-21.504 20.715 8.567ZM277.473 247.172l-19.727-9.137 18.215-12.937Zm0 0"/><path fill="#a9b2a2" d="m255.246 216.531 2.5 21.504-20.437-8.492ZM277.473 247.172l-1.512-22.074 22.828 10.343Zm0 0"/><path fill="#a9b2a2" d="m275.96 225.098 18.5-15.067 4.33 25.41Zm0 0"/><path fill="#a9b2a2" d="m294.46 210.031-18.5 15.067-3.655-21.684ZM218.027 184.816l-12.773-14.742 18.012-6.61Zm0 0"/><path fill="#a9b2a2" d="m205.254 170.074 12.773 14.742-24.754 3.762ZM193.273 188.578l24.754-3.762-7.566 18.286ZM165.418 296.676l24.73 14.539-25.87 10.476ZM165.418 296.676l.39-24.7 21.657 11.403Zm0 0"/><path fill="#a9b2a2" d="m190.148 311.215-24.73-14.54 22.047-13.296Zm0 0"/><path fill="#a9b2a2" d="m165.809 271.977-.391 24.699-21.48-13.977Zm0 0"/><path fill="#a9b2a2" d="m146.047 258.305 19.762 13.672-21.871 10.722ZM168.309 248.363l-2.5 23.614-19.762-13.672Zm0 0"/><path fill="#a9b2a2" d="m172.422 225.203 21.906 15.281-26.02 7.88Zm0 0"/><path fill="#a9b2a2" d="m168.309 248.363 26.02-7.879-10.2 21.684ZM308.852 289.762l-12.645 8.09-4.02-18.493ZM279.953 296.137l8.438 18.613-20.883-4.312ZM279.953 296.137l16.254 1.715-7.816 16.898Zm0 0"/><path fill="#a9b2a2" d="m279.953 296.137 12.235-16.778 4.019 18.493ZM279.953 296.137l-15.598-1.825 6.829-14.265Zm0 0"/><path fill="#a9b2a2" d="m292.188 279.36-12.235 16.777-8.77-16.09Zm0 0"/></svg>