<svg xmlns="http://www.w3.org/2000/svg" width="512" height="512" viewBox="0 0 384 384"><path fill="#9db380" d="m207.691 62.863 13.825-17.894 11.882 6.308Zm0 0"/><path fill="#89aabb" d="M100.379 43.738 86.03 70.028l-40.5-14.633ZM100.379 43.738 45.53 55.395 90.981 0Zm0 0"/><path fill="#89aabb" d="m86.031 70.027-9.047 15.235-31.453-29.867Zm0 0"/><path fill="#f6c5b5" d="M321.86 346.09 290.43 384l-1.106-46.672Zm0 0"/><path fill="#f6c5b5" d="m290.43 384-41.137-33.762 40.031-12.91Zm0 0"/><path fill="#628358" d="m184.207 92.027 15.254-11.27 6.758 3.645Zm0 0"/><path fill="#89aaba" d="m304.805 36.34-12.618 40.746-27.664-33.574ZM353.207 22.066 304.805 36.34l22.91-36.344Zm0 0"/><path fill="#89aabb" d="m90.98 0 45.102 26.7-35.703 17.038Zm0 0"/><path fill="#89aaba" d="M43.883 116.574 0 127.364V75.75Zm0 0"/><path fill="#89aabb" d="m0 0 45.531 55.395L0 75.75Zm0 0"/><path fill="#89aabb" d="M0 0h90.98L45.531 55.395ZM100.379 43.738l.683 28.348-15.03-2.059Zm0 0"/><path fill="#f6c5b5" d="m23.41 188.512 5.805 34.894-29.211-1.883Zm0 0"/><path fill="#8aaaba" d="M30.133 154.117 0 127.363l43.883-10.789Zm0 0"/><path fill="#67885d" d="m94.047 210.285 20.32 2.621-19.922 13.078Zm0 0"/><path fill="#4a714a" d="m76.402 217.84 17.645-7.555.398 15.7Zm0 0"/><path fill="#f7c6b5" d="m219.18 384 2.672-32.29 27.441-1.472Zm0 0"/><path fill="#89aaba" d="m30.54 261.434 3.726 57.824L0 303.605Zm0 0"/><path fill="#4a6c47" d="m149.684 118.578 11.09-23.965 6.476 33.883Zm0 0"/><path fill="#da7951" d="m187.488 163.078 18.696 21.055-14.52 7.156Zm0 0"/><path fill="#4a563d" d="m243.004 101.371 15.773 22.543-14.14 12.344Zm0 0"/><path fill="#f6c5b4" d="m287.668 280.762 7.574 2.293-18.664 16.629Zm0 0"/><path fill="#4a2e2c" d="m237.328 271.852 2.078-15.329 17.977 13.934Zm0 0"/><path fill="#874d3b" d="m237.328 271.852 20.055-1.395-26.438 22.637Zm0 0"/><path fill="#9eb481" d="m239.406 256.523-37.734-21.449 46.781 1.301Zm0 0"/><path fill="#f6c5b5" d="m384 383.996-62.14-37.906 30.253-27.445Zm0 0"/><path fill="#89aaba" d="M384 302.824v81.172l-31.887-65.351ZM346.078 283.992 384 302.824l-31.887 15.82ZM231.64 32.285 250.888 0l13.636 43.512Zm0 0"/><path fill="#9db380" d="m197.164 36.61 34.477-4.325-10.125 12.684Zm0 0"/><path fill="#9bb17e" d="m197.164 36.61 24.352 8.359-13.825 17.894Zm0 0"/><path fill="#4b714a" d="M197.164 36.61 182.95 59.062l-17.336-27.211Zm0 0"/><path fill="#89aaba" d="M304.805 36.34 250.887 0l76.828-.004Zm0 0"/><path fill="#89aabb" d="m250.887 0 53.918 36.34-40.282 7.172Zm0 0"/><path fill="#7d996b" d="m196.781 21.672.383 14.937-31.55-4.757Zm0 0"/><path fill="#89aaba" d="m231.64 32.285-34.859-10.613L250.887 0Zm0 0"/><path fill="#9db381" d="m197.164 36.61-.383-14.938 34.86 10.613Zm0 0"/><path fill="#89aaba" d="m136.082 26.7-1.96 17.757-33.743-.719Zm0 0"/><path fill="#89aabb" d="m164.121 0-28.039 26.7L90.98 0Zm0 0"/><path fill="#89aaba" d="M136.082 26.7 164.122 0l1.491 31.852Zm0 0"/><path fill="#89aabb" d="M43.883 116.574 0 75.75l45.531-20.355Zm0 0"/><path fill="#89aaba" d="m93.27 82.863-16.286 2.399 9.047-15.235Zm0 0"/><path fill="#89aaba" d="M101.063 72.086 93.27 82.863 86.03 70.027Zm0 0"/><path fill="#f6c5b4" d="m76.984 85.262 16.286-2.399 2.863 16.95Zm0 0"/><path fill="#89aaba" d="m0 248.984.004-27.46 29.21 1.882Zm0 0"/><path fill="#f6c5b4" d="m29.215 223.406-5.805-34.894 32.758.511Zm0 0"/><path fill="#f6c5b4" d="m60.664 221.938-31.45 1.468 26.954-34.383Zm0 0"/><path fill="#f7c6b5" d="m23.41 188.512 6.723-34.395 26.035 34.906Zm0 0"/><path fill="#52774f" d="m133.664 208.977-.062 11.664-19.235-7.735Zm0 0"/><path fill="#9db380" d="m133.602 220.64 33.761 4.255-15.89 15.203ZM114.367 212.906l5.63 19.86-25.552-6.782Zm0 0"/><path fill="#9db380" d="m133.602 220.64-13.606 12.126-5.629-19.86Zm0 0"/><path fill="#4a7049" d="m88.145 198.133 5.902 12.152-17.645 7.555Zm0 0"/><path fill="#f6c5b4" d="m94.504 184.79-6.36 13.343-31.976-9.11Zm0 0"/><path fill="#4a7049" d="m66.223 240.117-5.559-18.18 15.738-4.097Zm0 0"/><path fill="#94ac7a" d="m66.223 240.117 10.18-22.277 18.042 8.144Zm0 0"/><path fill="#587b53" d="m86.902 245.2-20.68-5.083 28.223-14.133Zm0 0"/><path fill="#8caaba" d="m0 127.363 30.133 26.754L.003 169.7Zm0 0"/><path fill="#89aabb" d="M76.984 85.262 59.422 95.547l-13.89-40.152Zm0 0"/><path fill="#89aaba" d="m59.422 95.547-15.54 21.027 1.65-61.18Zm0 0"/><path fill="#f6c5b4" d="m59.422 95.547 5.691 32.875-21.23-11.848ZM79.152 110.39l-2.168-25.128 19.149 14.55ZM104.863 108.89l-25.71 1.5 16.98-10.577Zm0 0"/><path fill="#f6c5b4" d="m79.152 110.39-19.73-14.843 17.562-10.285ZM59.422 95.547l19.73 14.844-14.039 18.03Zm0 0"/><path fill="#f6c5b5" d="m102.664 322.727 31.27 18.964.332 42.309Zm0 0"/><path fill="#d97851" d="m257.383 270.457-10.914 25.488-15.524-2.851Zm0 0"/><path fill="#f6c5b5" d="m68.98 384-68.996.004 34.282-64.746Zm0 0"/><path fill="#89aaba" d="M-.016 384.004 0 303.605l34.266 15.653ZM30.54 261.434 0 248.984l29.215-25.578ZM0 303.605v-54.62l30.54 12.449Zm0 0"/><path fill="#4a2d2c" d="m99.555 289.426-9.973-12.824 16.367-.98Zm0 0"/><path fill="#88a9ba" d="m77.125 256.086 12.457 20.516-5.27 6.453Zm0 0"/><path fill="#4a2d2c" d="m77.125 256.086-10.902-15.969 20.68 5.082Zm0 0"/><path fill="#89aaba" d="m66.223 240.117-9.938 29.426-.828-30.984Zm0 0"/><path fill="#f5c5b5" d="m68.98 384 33.684-61.273L134.266 384Zm0 0"/><path fill="#89aaba" d="M102.664 322.727 68.98 384l-34.714-64.742ZM56.285 269.543l-22.02 49.715-3.726-57.824Zm0 0"/><path fill="#f6c5b4" d="M384.012 81.43 384 153.547 352.598 107.8Zm0 0"/><path fill="#89aaba" d="m384.012 81.43-30.805-59.364 30.79 3.395Zm0 0"/><path fill="#4a322e" d="m259.152 144.813-14.515-8.555 14.14-12.344Zm0 0"/><path fill="#f6c5b4" d="m136.895 166.172 23.05-2.453-7.902 13.273Zm0 0"/><path fill="#4a2d2c" d="m172.152 206.988 2.688-22.035 16.824 6.336Zm0 0"/><path fill="#4a6f49" d="m216.566 112.883-21.863-2.672 11.516-25.809Zm0 0"/><path fill="#97af7c" d="m194.703 110.21-10.496-18.183 22.012-7.625Zm0 0"/><path fill="#4a3c32" d="m194.703 110.21-33.93-15.597 23.434-2.586Zm0 0"/><path fill="#4a2d2c" d="m186.176 141.348-13.5-4.653 12.262-8.855Zm0 0"/><path fill="#4a2e2c" d="m184.938 127.84-12.262 8.855-5.426-8.199Zm0 0"/><path fill="#4a6c48" d="m160.773 94.613 24.165 33.227-17.688.656Zm0 0"/><path fill="#4a3630" d="m194.703 110.21-9.766 17.63-24.164-33.227Zm0 0"/><path fill="#98af7c" d="m203.957 76.996 2.262 7.406-6.758-3.644Zm0 0"/><path fill="#4a4f39" d="m206.219 84.402-2.262-7.406 23.762 1.254Zm0 0"/><path fill="#9aaf7c" d="M227.719 78.25 207.69 62.863l25.707-11.586Zm0 0"/><path fill="#4a5e3d" d="m227.719 78.25-23.762-1.254 3.734-14.133Zm0 0"/><path fill="#9db380" d="m243.004 101.371-16.172 5.184.887-28.305Zm0 0"/><path fill="#9db380" d="m226.832 106.555-20.613-22.153 21.5-6.152Zm0 0"/><path fill="#4a7049" d="m226.832 106.555-10.266 6.328-10.347-28.48Zm0 0"/><path fill="#89aaba" d="m233.398 51.277-1.757-18.992 32.882 11.227Zm0 0"/><path fill="#9fb482" d="m231.64 32.285 1.758 18.992-11.882-6.308Zm0 0"/><path fill="#4b6c44" d="m281.156 104.848-38.152-3.477L255.68 83.61Zm0 0"/><path fill="#9db380" d="m243.004 101.371 38.152 3.477-22.379 19.066Zm0 0"/><path fill="#4b2e2c" d="m251.637 161.254-17.899-16.7 10.899-8.296Zm0 0"/><path fill="#f3c4b4" d="m287.668 280.762 8.805-14.082-1.23 16.375Zm0 0"/><path fill="#9eb481" d="m201.672 235.074-1.48-25.008 48.261 26.309Zm0 0"/><path fill="#f7c6b5" d="m290.43 384 31.43-37.91L384 383.996Zm0 0"/><path fill="#89aaba" d="m313.523 313.973 32.555-29.98 6.035 34.652Zm0 0"/><path fill="#f6c5b5" d="m321.86 346.09-8.337-32.117 38.59 4.672Zm0 0"/><path fill="#4a714a" d="m105.027 199.898-10.98 10.387-5.902-12.152Zm0 0"/><path fill="#f6c5b4" d="m105.027 199.898-16.882-1.765 6.359-13.344ZM115.05 191.46l-10.023 8.438-10.523-15.109Zm0 0"/><path fill="#4a6e49" d="m94.047 210.285 10.98-10.387 9.34 13.008Zm0 0"/><path fill="#4a7049" d="m105.027 199.898 14.078 1.004-4.738 12.004Zm0 0"/><path fill="#4a7049" d="m119.105 200.902-14.078-1.004 10.024-8.437Zm0 0"/><path fill="#9db380" d="m182.95 59.063 16.51 21.695-15.253 11.27Zm0 0"/><path fill="#4a4517" d="m203.957 76.996-21.008-17.933 24.742 3.8Zm0 0"/><path fill="#9db380" d="m182.95 59.063 21.007 17.933-4.496 3.762Zm0 0"/><path fill="#4a7049" d="m182.95 59.063 14.214-22.454 10.527 26.254Zm0 0"/><path fill="#88a9ba" d="m152.574 49.172-16.492-22.473 29.531 5.153Zm0 0"/><path fill="#4a5429" d="m182.95 59.063-30.376-9.891 13.04-17.32Zm0 0"/><path fill="#4a6645" d="m162.82 73.008 21.387 19.02-23.434 2.585Zm0 0"/><path fill="#4a4011" d="m162.82 73.008-10.246-23.836 30.375 9.89Zm0 0"/><path fill="#4b7149" d="m162.82 73.008 20.13-13.945 1.257 32.964Zm0 0"/><path fill="#89aaba" d="M196.781 21.672 164.121 0h86.766Zm0 0"/><path fill="#89aaba" d="m164.121 0 32.66 21.672-31.168 10.18ZM117.46 68.563l-16.397 3.523-.684-28.348Zm0 0"/><path fill="#89a9ba" d="m134.121 44.457-16.66 24.106-17.082-24.825Zm0 0"/><path fill="#89aaba" d="M109.328 87.84 93.27 82.863l7.793-10.777Zm0 0"/><path fill="#88a9ba" d="m117.46 68.563-8.132 19.277-8.266-15.754Zm0 0"/><path fill="#f6c5b4" d="m93.27 82.863 16.058 4.977-13.195 11.972Zm0 0"/><path fill="#f6c5b5" d="M.004 221.523V169.7l23.406 18.813Zm0 0"/><path fill="#f7c6b5" d="m.004 169.7 30.129-15.583-6.723 34.395Zm0 0"/><path fill="#89aaba" d="m56.285 269.543-25.746-8.11 24.918-22.874Zm0 0"/><path fill="#f6c5b4" d="m65.113 128.422-34.98 25.695 13.75-37.543ZM85.836 165.867l8.668 18.922-38.336 4.234Zm0 0"/><path fill="#f7c6b5" d="m30.133 154.117 55.703 11.75-29.668 23.156Zm0 0"/><path fill="#9cb17e" d="m131.21 242.758 2.392-22.117 17.87 19.457Zm0 0"/><path fill="#9db380" d="m131.21 242.758-11.214-9.992 13.606-12.125Zm0 0"/><path fill="#4a6e49" d="m133.664 208.977-14.559-8.075 13.805-9.488Zm0 0"/><path fill="#4a6e48" d="m119.105 200.902 14.56 8.075-19.298 3.93Zm0 0"/><path fill="#5e8057" d="m119.996 232.766-7.453 14.113-18.098-20.895Zm0 0"/><path fill="#96ae7c" d="m112.543 246.879-25.64-1.68 7.542-19.215Zm0 0"/><path fill="#9db380" d="m112.543 246.879 18.668-4.121-10.352 21.508ZM131.21 242.758l-18.667 4.12 7.453-14.112Zm0 0"/><path fill="#4a7049" d="m60.664 221.938 27.48-23.805-11.742 19.707Zm0 0"/><path fill="#f6c5b4" d="m88.145 198.133-27.48 23.804-4.497-32.914Zm0 0"/><path fill="#4a3d33" d="m66.223 240.117-10.766-1.558 5.207-16.621Zm0 0"/><path fill="#96afa1" d="m55.457 238.559-26.242-15.153 31.45-1.469Zm0 0"/><path fill="#89aaba" d="m55.457 238.559-24.918 22.875-1.324-38.028Zm0 0"/><path fill="#4a513c" d="m82.234 126.164 35.887-1.523-15.945 16.906Zm0 0"/><path fill="#4a4035" d="m120.02 142.89-7.313 9.57-10.531-10.913Zm0 0"/><path fill="#f6c5b4" d="m108.55 172.371 6.5 19.09-20.546-6.672ZM221.852 351.71 219.18 384l-15.625-27.29Zm0 0"/><path fill="#f6c5b5" d="M219.18 384h-84.914l46.828-17.543Zm0 0"/><path fill="#f6c5b4" d="m219.18 384-38.086-17.543 22.46-9.746Zm0 0"/><path fill="#f6c5b5" d="m156.328 353.078-22.394-11.387 17.625-2.293Zm0 0"/><path fill="#96adba" d="m111.96 302.836-9.296 19.89-3.11-33.3Zm0 0"/><path fill="#4a2e2c" d="m128.477 288.82-22.528-13.199 14.91-11.355Zm0 0"/><path fill="#693e34" d="m143.95 280.45-15.473 8.37-7.618-24.554Zm0 0"/><path fill="#88a9ba" d="m56.285 269.543 20.84-13.457 7.188 26.969Zm0 0"/><path fill="#89aaba" d="m77.125 256.086-20.84 13.457 9.938-29.426Zm0 0"/><path fill="#4a2d2c" d="m77.125 256.086 17.191 2.113-4.734 18.403Zm0 0"/><path fill="#4a2d2c" d="m89.582 276.602 4.734-18.403 11.633 17.422Zm0 0"/><path fill="#4d3735" d="m94.316 258.2 26.543 6.066-14.91 11.355Zm0 0"/><path fill="#4a2d2c" d="m94.316 258.2-17.191-2.114 9.777-10.887Zm0 0"/><path fill="#4b6f47" d="m112.543 246.879-18.227 11.32-7.414-13Zm0 0"/><path fill="#4a2f2d" d="m94.316 258.2 18.227-11.321 8.316 17.387Zm0 0"/><path fill="#89aaba" d="m78.402 298.344-22.117-28.801 28.028 13.512Zm0 0"/><path fill="#f6c5b4" d="m322.727 78.473.84 38.398-16.68-9.648Zm0 0"/><path fill="#f6c5b4" d="m322.727 78.473-15.84 28.75-14.7-30.137Zm0 0"/><path fill="#89aaba" d="m304.805 36.34 17.922 42.133-30.54-1.387Zm0 0"/><path fill="#89aaba" d="M322.727 78.473 304.805 36.34l48.402-14.274Zm0 0"/><path fill="#f6c5b5" d="m352.598 107.8-29.871-29.327 30.48-56.407Zm0 0"/><path fill="#f6c5b4" d="m322.727 78.473 29.87 29.328-29.03 9.07Zm0 0"/><path fill="#f5c5b5" d="m384.012 81.43-31.414 26.37.609-85.734Zm0 0"/><path fill="#f6c5b4" d="m337.426 144.98 15.172-37.18L384 153.548Zm0 0"/><path fill="#f6c5b4" d="m352.598 107.8-15.172 37.18-13.86-28.109Zm0 0"/><path fill="#89aaba" d="m384.027 244.035-.027 58.79-37.922-18.833Zm0 0"/><path fill="#f7c6b5" d="m352.605 188.113-39.328-16.218 24.149-26.915Zm0 0"/><path fill="#f7c6b5" d="m352.605 188.113-15.18-43.133L384 153.547ZM352.605 188.113 384 153.547l.027 90.488ZM313.277 171.895l39.328 16.218-43.73 18.11Zm0 0"/><path fill="#89aaba" d="M353.207 22.066 384 .004l-.004 25.457Zm0 0"/><path fill="#f6c5b4" d="m159.945 163.719 6.95 11.187-14.852 2.086ZM186.176 141.348l-14.09 11.5.59-16.153ZM133.277 179.715l3.618-13.543 15.148 10.82ZM148 188.008l-14.723-8.293 18.766-2.723Zm0 0"/><path fill="#4a7049" d="m119.105 200.902-4.054-9.441 17.86-.047Zm0 0"/><path fill="#4a3e33" d="m118.121 124.64 23.082 13.618-21.183 4.633Zm0 0"/><path fill="#4a4034" d="m149.684 118.578-8.48 19.68-23.083-13.617Zm0 0"/><path fill="#4a4637" d="m118.121 124.64 1.899 18.25-17.844-1.343Zm0 0"/><path fill="#4a4a39" d="m194.703 110.21 9.961 23.204-19.726-5.574Zm0 0"/><path fill="#4a4737" d="m204.664 133.414-9.96-23.203 21.862 2.672Zm0 0"/><path fill="#51312d" d="m233.738 144.555-16.418 18.511 2.965-21.902Zm0 0"/><path fill="#4a2d2c" d="m189.52 150.148-2.032 12.93-5.218-4.508Zm0 0"/><path fill="#9db380" d="m240.738 80.664-13.02-2.414 5.68-26.973Zm0 0"/><path fill="#4b3909" d="m240.738 80.664 2.266 20.707-15.285-23.121Zm0 0"/><path fill="#4a3808" d="m240.738 80.664 14.942 2.945-12.676 17.762Zm0 0"/><path fill="#4a3a21" d="M240.738 80.664 255.45 68.38l.23 15.23Zm0 0"/><path fill="#4a4018" d="m255.45 68.379-14.712 12.285-7.34-29.387Zm0 0"/><path fill="#6c6634" d="m264.523 43.512-9.074 24.867-22.05-17.102Zm0 0"/><path fill="#9eb481" d="m276.926 77.883 15.262-.797-11.032 27.762Zm0 0"/><path fill="#8aa373" d="m276.926 77.883 4.23 26.965-25.476-21.239Zm0 0"/><path fill="#acb68a" d="m276.926 77.883-12.403-34.371 27.664 33.574Zm0 0"/><path fill="#8d9b68" d="m276.926 77.883-21.477-9.504 9.074-24.867Zm0 0"/><path fill="#4a502b" d="m255.45 68.379 21.476 9.504-21.246 5.726Zm0 0"/><path fill="#f6c5b5" d="m298.363 203.895 14.914-32-4.402 34.328Zm0 0"/><path fill="#4a2d2c" d="m259.152 144.813-7.515 16.44-7-24.995Zm0 0"/><path fill="#f6c6b4" d="m251.637 161.254-3.297 15.094-11.781-9.786Zm0 0"/><path fill="#f6c5b4" d="m251.637 161.254-15.078 5.309-2.82-22.008ZM236.559 166.563l-19.239-3.497 16.418-18.511Zm0 0"/><path fill="#f6c4b3" d="m224.535 132.969 9.203 11.586-13.453-3.39Zm0 0"/><path fill="#f4c2b1" d="m233.738 144.555-9.203-11.586 20.102 3.289Zm0 0"/><path fill="#9db380" d="m255.012 255.55-15.606.973 9.047-20.148Zm0 0"/><path fill="#4a2e2c" d="m239.406 256.523 15.606-.972 2.37 14.906Zm0 0"/><path fill="#97aa79" d="m255.012 255.55 15.054-6.874-12.683 21.781Zm0 0"/><path fill="#4c2f2c" d="m279.938 269.965-4.563-7.121 8.766-2.41Zm0 0"/><path fill="#d67750" d="m296.473 266.68-16.536 3.285 4.204-9.531Zm0 0"/><path fill="#dd7b52" d="m279.938 269.965 16.535-3.285-8.805 14.082Zm0 0"/><path fill="#4a2e2c" d="m275.375 262.844-17.992 7.613 12.683-21.781Zm0 0"/><path fill="#4a2d2c" d="m279.938 269.965-22.555.492 17.992-7.613Zm0 0"/><path fill="#8aaaba" d="m295.242 283.055 1.23-16.375 16.891 10.757Zm0 0"/><path fill="#8aaaba" d="m313.363 277.438-16.89-10.758 31.656-32.473Zm0 0"/><path fill="#89aaba" d="m313.363 277.438 14.766-43.231 17.95 49.785Zm0 0"/><path fill="#f6c5b4" d="m236.559 166.563 11.78 9.785-19.898 10.507ZM217.32 163.066l11.121 23.79-22.257-2.723ZM228.441 186.855l-11.12-23.789 19.238 3.496Zm0 0"/><path fill="#4a593e" d="m200.191 210.066-28.039-3.078 19.512-15.699Zm0 0"/><path fill="#4a2e2c" d="m197.098 314.04 14.828-9.81-.613 18.293Zm0 0"/><path fill="#4d302d" d="m211.926 304.23-14.828 9.81.379-34.786Zm0 0"/><path fill="#f6c5b5" d="m289.324 337.328 24.2-23.355 8.335 32.117ZM249.293 350.238 290.43 384h-71.25Zm0 0"/><path fill="#52774f" d="m152.574 49.172-35.113 19.39 16.66-24.105Zm0 0"/><path fill="#89aaba" d="m152.574 49.172-18.453-4.715 1.961-17.758Zm0 0"/><path fill="#4a6a47" d="m127.195 88.477-17.867-.637 8.133-19.278Zm0 0"/><path fill="#f6c5b4" d="m85.836 165.867 22.715 6.504-14.047 12.418Zm0 0"/><path fill="#4a714a" d="m172.152 206.988-16.75 4.645-4.62-12.317Zm0 0"/><path fill="#f6c5b4" d="m82.234 126.164-3.082-15.773 25.711-1.5Zm0 0"/><path fill="#f6c5b4" d="m79.152 110.39 3.082 15.774-17.12 2.258Zm0 0"/><path fill="#f6c5b4" d="m97.418 152.355-32.305-23.933 17.121-2.258ZM97.418 152.355l14.148 5.403-10.136 3.906Zm0 0"/><path fill="#4b4e3b" d="m97.418 152.355 15.289.106-1.14 5.297Zm0 0"/><path fill="#f6c5b4" d="m97.418 152.355-15.184-26.19 19.942 15.382Zm0 0"/><path fill="#4a4d3a" d="m112.707 152.46-15.289-.105 4.758-10.808Zm0 0"/><path fill="#f6c5b4" d="m85.836 165.867 11.582-13.512 4.012 9.31Zm0 0"/><path fill="#f6c5b4" d="m65.113 128.422 32.305 23.933-11.582 13.512Zm0 0"/><path fill="#f4c5b5" d="m133.934 341.691-31.27-18.964 23.64-2.125Zm0 0"/><path fill="#f7c6b5" d="m133.934 341.691 22.394 11.387L134.266 384Zm0 0"/><path fill="#f6c5b5" d="m156.328 353.078 11.453-15.816 5.371 10.55Zm0 0"/><path fill="#f4c5b3" d="m232.063 337.5-10.211 14.21-5.293-14.019Zm0 0"/><path fill="#4c2e2c" d="m206.875 332.586-9.777-18.547 14.214 8.484Zm0 0"/><path fill="#9fb482" d="m246.266 318.695 3.027 31.543-17.23-12.738Zm0 0"/><path fill="#4a2d2c" d="m117.563 306.629 1.011-10.121 13.45 11.648Zm0 0"/><path fill="#f1c4b5" d="m111.96 302.836 5.603 3.793-14.899 16.098Zm0 0"/><path fill="#4a2e2d" d="m118.574 296.508-1.011 10.12-5.602-3.792Zm0 0"/><path fill="#55332f" d="m150.598 302.098-22.121-13.278 15.472-8.37Zm0 0"/><path fill="#f5c5b5" d="m158.59 327.84 9.191 9.422-16.222 2.136Zm0 0"/><path fill="#f6c5b5" d="m167.781 337.262-11.453 15.816-4.77-13.68Zm0 0"/><path fill="#f4c5b4" d="m133.934 341.691 12.582-14.468 5.043 12.175Zm0 0"/><path fill="#92acba" d="m146.516 327.223 12.074.617-7.031 11.558Zm0 0"/><path fill="#4a2d2c" d="m158.59 327.84-12.074-.617 5.984-8.88Zm0 0"/><path fill="#4a2e2d" d="m146.516 327.223-8.004-10.555 13.988 1.676Zm0 0"/><path fill="#4e2f2d" d="m197.098 314.04-19.426-28.618 19.805-6.168Zm0 0"/><path fill="#4a2d2c" d="m167.781 337.262-1.101-18.586 7.824 13.629Zm0 0"/><path fill="#4a2e2d" d="m166.68 318.676 1.101 18.586-9.191-9.422Zm0 0"/><path fill="#b6b5b8" d="m102.664 322.727-13.527-28.938 10.418-4.363Zm0 0"/><path fill="#f5c5b4" d="m323.566 116.871-23.695-1.05 7.016-8.598Zm0 0"/><path fill="#89aaba" d="m328.129 234.207 55.898 9.828-37.949 39.957Zm0 0"/><path fill="#e8c2b5" d="m384.027 244.035-55.898-9.828 24.476-46.094Zm0 0"/><path fill="#f6c5b5" d="m328.129 234.207-19.254-27.984 43.73-18.11Zm0 0"/><path fill="#89aaba" d="M353.207 22.066 327.715-.004 384 .004Zm0 0"/><path fill="#4a2f2c" d="m172.152 206.988-10.879-18.98 13.567-3.055Zm0 0"/><path fill="#4a332f" d="m161.273 188.008 5.622-13.102 7.945 10.047Zm0 0"/><path fill="#f6c5b4" d="m166.895 174.906-5.622 13.102-9.23-11.016Zm0 0"/><path fill="#4a3730" d="m161.273 188.008 10.88 18.98-21.372-7.672Zm0 0"/><path fill="#f6c5b4" d="M161.273 188.008H148l4.043-11.016Zm0 0"/><path fill="#4a6f49" d="M148 188.008h13.273l-10.492 11.308Zm0 0"/><path fill="#f6c5b4" d="m179.195 164.047-12.3 10.86-6.95-11.188Zm0 0"/><path fill="#5e3731" d="m179.195 164.047 8.293-.969 4.176 28.211Zm0 0"/><path fill="#4a2d2c" d="m187.488 163.078-8.293.969 3.075-5.477Zm0 0"/><path fill="#4b2e2c" d="m174.84 184.953 4.355-20.906 12.47 27.242Zm0 0"/><path fill="#4a2d2c" d="m166.895 174.906 12.3-10.86-4.355 20.907Zm0 0"/><path fill="#4a2d2c" d="m179.195 164.047-7.11-11.2 10.185 5.723Zm0 0"/><path fill="#f6c5b4" d="m172.086 152.848 7.11 11.199-19.25-.328ZM115.05 191.46l18.227-11.745-.367 11.7Zm0 0"/><path fill="#f6c5b4" d="M133.277 179.715 148 188.008l-15.09 3.406Zm0 0"/><path fill="#4a352f" d="m141.203 138.258-5.898 22.203-15.285-17.57Zm0 0"/><path fill="#4a6243" d="m118.121 124.64-35.887 1.524 22.63-17.273Zm0 0"/><path fill="#4a2d2c" d="m189.52 150.148 12.851 5.766-14.883 7.164Zm0 0"/><path fill="#4b2e2c" d="m187.488 163.078 14.883-7.164 3.813 28.219Zm0 0"/><path fill="#ab6145" d="m202.371 155.914 14.95 7.152-11.137 21.067Zm0 0"/><path fill="#4a2d2c" d="m194.098 140.54-4.578 9.608-3.344-8.8Zm0 0"/><path fill="#4a2d2c" d="m194.098 140.54-7.922.808-1.238-13.508ZM204.664 133.414l-10.566 7.125-9.16-12.7ZM202.371 155.914l2.293-22.5 15.621 7.75Zm0 0"/><path fill="#4e2f2d" d="m202.371 155.914-8.273-15.375 10.566-7.125Zm0 0"/><path fill="#4a2d2c" d="m194.098 140.54 8.273 15.374-12.851-5.766Zm0 0"/><path fill="#52312e" d="m217.32 163.066-14.949-7.152 17.914-14.75Zm0 0"/><path fill="#9db380" d="m261.934 198.563 36.43 5.332-1.145 9.664Zm0 0"/><path fill="#9db380" d="m254.219 214.305 7.715-15.743 35.285 14.997Zm0 0"/><path fill="#9db380" d="m261.934 198.563-7.715 15.742-25.778-27.45Zm0 0"/><path fill="#f6c5b4" d="m261.934 198.563-13.594-22.215 16.508-3.461Zm0 0"/><path fill="#f6c5b4" d="m248.34 176.348 13.594 22.214-33.493-11.707ZM265.84 157.336 277.348 165l-12.5 7.887ZM297.219 213.559l1.144-9.664 10.512 2.328Zm0 0"/><path fill="#4b6239" d="m251.637 161.254 7.515-16.441 6.688 12.523Zm0 0"/><path fill="#f6c5b4" d="m251.637 161.254 14.203-3.918-.992 15.55ZM248.34 176.348l3.297-15.094 13.21 11.633Zm0 0"/><path fill="#4a2d2c" d="m204.664 133.414 19.871-.445-4.25 8.195Zm0 0"/><path fill="#4a362f" d="m216.566 112.883 7.97 20.086-19.872.445Zm0 0"/><path fill="#4a3e33" d="m224.535 132.969 5.8-15.809 14.302 19.098Zm0 0"/><path fill="#4a543d" d="m230.336 117.16 12.668-15.789 1.633 34.887Zm0 0"/><path fill="#4d724b" d="m230.336 117.16-3.504-10.605 16.172-5.184Zm0 0"/><path fill="#4a6d48" d="m226.832 106.555 3.504 10.605-13.77-4.277Zm0 0"/><path fill="#4a573e" d="m230.336 117.16-5.8 15.809-7.97-20.086Zm0 0"/><path fill="#9db380" d="m272.527 233.086-18.308-18.781 43-.746Zm0 0"/><path fill="#d97a51" d="m273.547 280.715 14.121.047-11.09 18.922Zm0 0"/><path fill="#d77750" d="m273.547 280.715 6.39-10.75 7.731 10.797Zm0 0"/><path fill="#4b2e2c" d="m273.547 280.715-16.164-10.258 22.555-.492Zm0 0"/><path fill="#4a2d2c" d="m258.496 291.73-12.027 4.215 10.914-25.488Zm0 0"/><path fill="#4b2d2c" d="m273.547 280.715-15.05 11.015-1.114-21.273Zm0 0"/><path fill="#5a3630" d="m258.496 291.73 15.05-11.015 3.032 18.969Zm0 0"/><path fill="#d87951" d="m206.184 184.133-5.993 25.933-8.527-18.777Zm0 0"/><path fill="#dd7b52" d="m200.191 210.066 5.993-25.933 7.718 18.238ZM213.273 276.488l24.055-4.636-6.383 21.242Zm0 0"/><path fill="#db7a52" d="m237.328 271.852-24.055 4.636 26.133-19.965Zm0 0"/><path fill="#4c2e2c" d="m197.477 279.254-19.805 6.168 12.238-16.324Zm0 0"/><path fill="#7b8a5a" d="m200.191 210.066 1.48 25.008-34.308-10.18Zm0 0"/><path fill="#4b2e2c" d="m211.617 255.465-14.14 23.789-7.567-10.156Zm0 0"/><path fill="#9db380" d="m201.672 235.074 9.945 20.39-21.707 13.634Zm0 0"/><path fill="#776b4e" d="m213.273 276.488-1.656-21.023 27.79 1.058Zm0 0"/><path fill="#4a2d2c" d="m211.617 255.465 1.656 21.023-15.796 2.766Zm0 0"/><path fill="#9eb481" d="m211.617 255.465-9.945-20.39 37.734 21.448Zm0 0"/><path fill="#9db380" d="m142.273 255.055-11.062-12.297 20.262-2.66Zm0 0"/><path fill="#99af7d" d="m131.21 242.758 11.063 12.297-21.414 9.21Zm0 0"/><path fill="#4a2d2c" d="m142.273 255.055 1.676 25.394-23.09-16.183Zm0 0"/><path fill="#9db380" d="m201.672 235.074-25.84 10.473-8.469-20.652Zm0 0"/><path fill="#9db380" d="m175.832 245.547-24.36-5.45 15.891-15.202Zm0 0"/><path fill="#6c4135" d="m228.23 323.793-16.304-19.563 19.02-11.136Zm0 0"/><path fill="#d5bea2" d="m228.23 323.793 18.036-5.098-14.203 18.805Zm0 0"/><path fill="#4a4938" d="m139.352 74.621 23.468-1.613-2.047 21.605Zm0 0"/><path fill="#4a6c44" d="m139.352 74.621 13.222-25.45 10.246 23.837Zm0 0"/><path fill="#4a6645" d="m127.195 88.477 12.157-13.856 21.421 19.992Zm0 0"/><path fill="#4a4837" d="m139.352 74.621-12.157 13.856-9.734-19.915Zm0 0"/><path fill="#4a7049" d="m152.574 49.172-13.222 25.45-21.891-6.06ZM122.531 106.77l4.664-18.293 33.578 6.136Zm0 0"/><path fill="#4a7049" d="m122.531 106.77 38.242-12.157-11.09 23.965Zm0 0"/><path fill="#4a6e48" d="m127.195 88.477-15.457 9.453-2.41-10.09Zm0 0"/><path fill="#4a7049" d="m111.738 97.93-6.875 10.96-8.73-9.077Zm0 0"/><path fill="#4a714a" d="m109.328 87.84 2.41 10.09-15.605 1.882Zm0 0"/><path fill="#f6c5b5" d="m65.113 128.422 20.723 37.445-55.703-11.75Zm0 0"/><path fill="#4a7049" d="m148 188.008 2.781 11.308-17.87-7.902ZM150.781 199.316l-17.117 9.66-.754-17.562Zm0 0"/><path fill="#9db380" d="m133.602 220.64 21.8-9.007 11.961 13.262Zm0 0"/><path fill="#50764e" d="m155.402 211.633-21.8 9.008.062-11.664Zm0 0"/><path fill="#4a704a" d="m150.781 199.316 4.621 12.317-21.738-2.656Zm0 0"/><path fill="#f6c5b5" d="m156.328 353.078 16.824-5.265 7.942 18.644ZM134.266 384l22.062-30.922 24.766 13.379Zm0 0"/><path fill="#f6c5b4" d="m221.852 351.71 10.21-14.21 17.231 12.738Zm0 0"/><path fill="#efc2af" d="m222.73 327.555 9.333 9.945-15.504.191Zm0 0"/><path fill="#7a4738" d="m222.73 327.555-15.855 5.03 4.438-10.062Zm0 0"/><path fill="#704136" d="m206.875 332.586 15.855-5.031-6.171 10.136Zm0 0"/><path fill="#54322e" d="m206.875 332.586-21.031-6.918 11.254-11.629Zm0 0"/><path fill="#4a2d2c" d="m185.844 325.668-8.172-40.246 19.426 28.617ZM166.68 318.676l19.164 6.992-11.34 6.637Zm0 0"/><path fill="#4a2d2c" d="m177.672 285.422 8.172 40.246-19.164-6.992Zm0 0"/><path fill="#f5c5b4" d="m181.094 366.457 8.707-15.48 13.754 5.734Zm0 0"/><path fill="#8baaba" d="m173.152 347.813 16.649 3.164-8.707 15.48Zm0 0"/><path fill="#4a2e2d" d="m118.574 296.508 9.903-7.688 3.546 19.336Zm0 0"/><path fill="#4b322e" d="m118.574 296.508-6.613 6.328-12.406-13.41Zm0 0"/><path fill="#4a312d" d="m105.95 275.621 12.624 20.887-19.02-7.082Zm0 0"/><path fill="#4a2e2c" d="m128.477 288.82-9.903 7.688-12.625-20.887Zm0 0"/><path fill="#f4c5b4" d="m117.563 306.629 8.742 13.973-23.64 2.125Zm0 0"/><path fill="#f6c5b5" d="m126.305 320.602 10.152 4.308-2.523 16.781Zm0 0"/><path fill="#f6c5b4" d="m136.457 324.91 10.059 2.313-12.582 14.468Zm0 0"/><path fill="#f6c5b4" d="m146.516 327.223-10.059-2.313 2.055-8.242Zm0 0"/><path fill="#4a2d2c" d="m150.598 302.098-12.086 14.57-6.489-8.512ZM138.512 316.668l12.086-14.57 1.902 16.246ZM166.68 318.676l-8.09 9.164-6.09-9.496Zm0 0"/><path fill="#4b3030" d="m150.598 302.098 16.082 16.578-14.18-.332Zm0 0"/><path fill="#f5c5b4" d="m89.137 293.79-4.824-10.735 15.242 6.37Zm0 0"/><path fill="#efc4b5" d="m84.313 283.055 4.824 10.734-10.735 4.555Zm0 0"/><path fill="#f4c5b4" d="m99.555 289.426-15.243-6.371 5.27-6.453Zm0 0"/><path fill="#89aaba" d="m56.285 269.543 22.117 28.8-44.136 20.915Zm0 0"/><path fill="#89aaba" d="m78.402 298.344 24.262 24.383-68.398-3.47Zm0 0"/><path fill="#8baaba" d="m102.664 322.727-24.262-24.383 10.735-4.555Zm0 0"/><path fill="#f1c4b1" d="m316.285 128.746-16.414-12.926 23.695 1.051Zm0 0"/><path fill="#9db380" d="m299.871 115.82 16.414 12.926-16.129 1.906Zm0 0"/><path fill="#f6c5b4" d="m337.426 144.98-21.14-16.234 7.28-11.875Zm0 0"/><path fill="#9eb481" d="m306.887 107.223-25.73-2.375 11.03-27.762Zm0 0"/><path fill="#9db380" d="m299.871 115.82-18.715-10.972 25.73 2.375Zm0 0"/><path fill="#4a3730" d="m273.754 138.406-14.602 6.406-.375-20.898Zm0 0"/><path fill="#4a3215" d="m259.152 144.813 14.602-6.407-7.914 18.93Zm0 0"/><path fill="#6a8a5e" d="m281.156 104.848 3.84 21.035-26.219-1.969Zm0 0"/><path fill="#4a6843" d="m284.996 125.883-11.242 12.523-14.977-14.492Zm0 0"/><path fill="#4b5a2f" d="m273.754 138.406 11.242-12.523-2.262 16.765Zm0 0"/><path fill="#4a342f" d="m158.297 138.8-7.156 7.95-9.938-8.492Zm0 0"/><path fill="#4b2e2d" d="m151.14 146.75 7.157-7.95 13.789 14.048Zm0 0"/><path fill="#f6c5b4" d="m172.086 152.848-13.79-14.047 14.38-2.106Zm0 0"/><path fill="#4a3730" d="m172.676 136.695-14.38 2.106 8.954-10.305Zm0 0"/><path fill="#4a4436" d="m149.684 118.578 8.613 20.223-17.094-.543Zm0 0"/><path fill="#4a3e33" d="m158.297 138.8-8.613-20.222 17.566 9.918Zm0 0"/><path fill="#4a2d2c" d="m172.086 152.848 17.434-2.7-7.25 8.422Zm0 0"/><path fill="#f5c4b4" d="m189.52 150.148-17.434 2.7 14.09-11.5Zm0 0"/><path fill="#f6c5b4" d="m151.14 146.75 20.946 6.098-12.14 10.87ZM151.14 146.75l8.805 16.969-23.05 2.453Zm0 0"/><path fill="#f6c5b4" d="m136.895 166.172-28.344 6.2 3.015-14.614ZM111.566 157.758l-3.015 14.613-7.121-10.707ZM108.55 172.371l-22.714-6.504 15.594-4.203Zm0 0"/><path fill="#f6c5b4" d="m133.277 179.715-24.726-7.344 28.344-6.2ZM108.55 172.371l24.727 7.344-18.226 11.746Zm0 0"/><path fill="#4a553d" d="m135.305 160.46-22.598-8 7.313-9.57Zm0 0"/><path fill="#4a5f42" d="m112.707 152.46 22.598 8-23.739-2.702Zm0 0"/><path fill="#f6c5b4" d="m135.305 160.46 1.59 5.712-25.329-8.414Zm0 0"/><path fill="#4a312e" d="m151.14 146.75-15.835 13.71 5.898-22.202Zm0 0"/><path fill="#f6c5b4" d="m135.305 160.46 15.836-13.71-14.246 19.422ZM285.441 178.5l-8.093-13.5 16.57-6.91Zm0 0"/><path fill="#f7c6b5" d="m313.277 171.895-27.836 6.605 8.477-20.41Zm0 0"/><path fill="#f6c5b5" d="m285.441 178.5 27.836-6.605-14.914 32Zm0 0"/><path fill="#f6c5b4" d="m277.348 165 8.093 13.5-20.593-5.613ZM285.441 178.5l-23.507 20.063 2.914-25.676Zm0 0"/><path fill="#f6c5b4" d="M261.934 198.563 285.44 178.5l12.922 25.395Zm0 0"/><path fill="#4a2e2c" d="m275.375 262.844-5.309-14.168 14.075 11.758Zm0 0"/><path fill="#4c442c" d="m270.066 248.676 20.63-1.156-6.555 12.914Zm0 0"/><path fill="#9db380" d="m290.695 247.52-20.629 1.156 2.461-15.59Zm0 0"/><path fill="#c16e4b" d="m290.695 247.52 5.778 19.16-12.332-6.246Zm0 0"/><path fill="#dd7b52" d="m296.473 266.68-5.778-19.16 37.434-13.313Zm0 0"/><path fill="#9db380" d="m200.191 210.066 54.028 4.239-5.766 22.07Zm0 0"/><path fill="#aba776" d="m213.902 202.371 40.317 11.934-54.028-4.239Zm0 0"/><path fill="#9eb380" d="m254.219 214.305-40.317-11.934 14.54-15.516Zm0 0"/><path fill="#9db380" d="m172.152 206.988 28.04 3.078-32.829 14.829Zm0 0"/><path fill="#96ad7b" d="m155.402 211.633 16.75-4.645-4.789 17.907Zm0 0"/><path fill="#4e2f2d" d="m213.273 276.488-1.347 27.742-14.45-24.976Zm0 0"/><path fill="#dc7b52" d="m211.926 304.23 1.347-27.742 17.672 16.606Zm0 0"/><path fill="#4a2d2c" d="m177.672 285.422-27.074 16.676-6.649-21.649Zm0 0"/><path fill="#4b2d2c" d="m177.672 285.422-10.992 33.254-16.082-16.578Zm0 0"/><path fill="#9db380" d="m168.008 257.492-25.735-2.437 9.2-14.957Zm0 0"/><path fill="#4a2d2c" d="m177.672 285.422-9.664-27.93 21.902 11.606Zm0 0"/><path fill="#643b32" d="m211.926 304.23 10.804 23.325-11.417-5.032Zm0 0"/><path fill="#d5764f" d="m228.23 323.793-5.5 3.762-10.804-23.325Zm0 0"/><path fill="#f4c5b3" d="m222.73 327.555 5.5-3.762 3.833 13.707Zm0 0"/><path fill="#4c2e2c" d="m246.469 295.945 10.562 6.848-7.414 4.848Zm0 0"/><path fill="#8aaaba" d="m257.031 302.793 11.008 15.309-18.422-10.461Zm0 0"/><path fill="#8caab9" d="m268.04 318.102-11.009-15.309 19.547-3.11Zm0 0"/><path fill="#4a2d2c" d="m258.496 291.73-1.465 11.063-10.562-6.848Zm0 0"/><path fill="#663c33" d="m276.578 299.684-19.547 3.109 1.465-11.063Zm0 0"/><path fill="#d0744e" d="m239.434 306.184-11.204 17.609 2.715-30.7Zm0 0"/><path fill="#d77750" d="m246.469 295.945-7.035 10.239-8.489-13.09Zm0 0"/><path fill="#4e2f2d" d="m239.434 306.184 7.035-10.239 3.148 11.696Zm0 0"/><path fill="#4c2f2d" d="m246.266 318.695-6.832-12.511 10.183 1.457Zm0 0"/><path fill="#52322e" d="m228.23 323.793 11.204-17.61 6.832 12.512Zm0 0"/><path fill="#89aaba" d="m313.523 313.973-.16-36.536 32.715 6.555Zm0 0"/><path fill="#4a4034" d="m122.531 106.77-4.41 17.87-13.258-15.75Zm0 0"/><path fill="#4a6042" d="m111.738 97.93 10.793 8.84-17.668 2.12Zm0 0"/><path fill="#4a5b40" d="m122.531 106.77-10.793-8.84 15.457-9.453Zm0 0"/><path fill="#4a5d41" d="m118.121 124.64 4.41-17.87 27.153 11.808Zm0 0"/><path fill="#f6c5b4" d="m295.242 283.055-7.082 27.156-11.582-10.527Zm0 0"/><path fill="#97adb9" d="m167.781 337.262 10.047 3.203-4.676 7.348Zm0 0"/><path fill="#8eabba" d="m177.828 340.465 11.973 10.512-16.649-3.164Zm0 0"/><path fill="#4a2e2d" d="m177.828 340.465-10.047-3.203 6.723-4.957Zm0 0"/><path fill="#4a2d2c" d="m185.844 325.668-8.016 14.797-3.324-8.16Zm0 0"/><path fill="#f6c5b4" d="m209.723 342.855 6.836-5.164 5.293 14.02Zm0 0"/><path fill="#f6c5b4" d="m203.555 356.71 6.168-13.855 12.129 8.856Zm0 0"/><path fill="#553430" d="m209.723 342.855-2.848-10.27 9.684 5.106Zm0 0"/><path fill="#8caab8" d="m268.04 318.102-21.774.593 3.351-11.054Zm0 0"/><path fill="#8cabb7" d="m268.04 318.102-18.747 32.136-3.027-31.543Zm0 0"/><path fill="#f3c5b4" d="m268.04 318.102 21.284 19.226-40.031 12.91Zm0 0"/><path fill="#90aab8" d="m126.305 320.602-8.743-13.973 14.461 1.527Zm0 0"/><path fill="#94acba" d="m138.512 316.668-12.207 3.934 5.718-12.446Zm0 0"/><path fill="#f0c4b5" d="m136.457 324.91-10.152-4.308 12.207-3.934Zm0 0"/><path fill="#4a2d2c" d="m128.477 288.82 22.12 13.278-18.574 6.058Zm0 0"/><path fill="#4a3819" d="m273.754 138.406 8.98 4.242-16.894 14.688Zm0 0"/><path fill="#4b6c44" d="M282.734 142.648 277.348 165l-11.508-7.664Zm0 0"/><path fill="#99af7d" d="m277.348 165 5.386-22.352 11.184 15.442Zm0 0"/><path fill="#f6c5b4" d="m282.734 142.648 10.086.45 1.098 14.992Zm0 0"/><path fill="#4c6b43" d="m292.82 143.098-7.824-17.215 15.16 4.77Zm0 0"/><path fill="#4a5631" d="m284.996 125.883 7.824 17.215-10.086-.45Zm0 0"/><path fill="#9db380" d="m284.996 125.883 14.875-10.063.285 14.832Zm0 0"/><path fill="#9db380" d="m284.996 125.883-3.84-21.035 18.715 10.972Zm0 0"/><path fill="#f6c5b4" d="m292.82 143.098 12.598-1.375-11.5 16.367Zm0 0"/><path fill="#f6c6b4" d="m305.418 141.723 7.86 30.172-19.36-13.805Zm0 0"/><path fill="#f6c5b4" d="m313.277 171.895-7.859-30.172 32.008 3.257Zm0 0"/><path fill="#4b663f" d="m305.418 141.723-12.598 1.375 7.336-12.446Zm0 0"/><path fill="#546f45" d="m316.285 128.746-10.867 12.977-5.262-11.07Zm0 0"/><path fill="#f6c5b4" d="m305.418 141.723 10.867-12.977 21.14 16.234Zm0 0"/><path fill="#9db380" d="m308.875 206.223 19.254 27.984-30.91-20.648Zm0 0"/><path fill="#9eb481" d="m248.453 236.375 5.766-22.07 18.308 18.78Zm0 0"/><path fill="#9eb481" d="m270.066 248.676-21.613-12.301 24.074-3.29Zm0 0"/><path fill="#9db380" d="m248.453 236.375 21.613 12.3-15.054 6.876Zm0 0"/><path fill="#9eb481" d="m290.695 247.52 6.524-33.961 30.91 20.648Zm0 0"/><path fill="#9db380" d="m297.219 213.559-6.524 33.96-18.168-14.433Zm0 0"/><path fill="#9cb27f" d="m206.184 184.133 22.257 2.722-14.539 15.516Zm0 0"/><path fill="#4a2d2c" d="m155.676 270.703 12.332-13.21 9.664 27.929Zm0 0"/><path fill="#4a2d2c" d="m155.676 270.703 21.996 14.719-33.723-4.973Zm0 0"/><path fill="#4a2e2c" d="m142.273 255.055 13.403 15.648-11.727 9.746Zm0 0"/><path fill="#4b704a" d="m168.008 257.492-12.332 13.211-13.403-15.648Zm0 0"/><path fill="#9db380" d="m175.832 245.547-7.824 11.945-16.535-17.394ZM175.832 245.547l25.84-10.473-11.762 34.024Zm0 0"/><path fill="#99af7c" d="m168.008 257.492 7.824-11.945 14.078 23.55Zm0 0"/><path fill="#8aaaba" d="m295.242 283.055 18.121-5.618.16 36.536Zm0 0"/><path fill="#f6c5b4" d="m288.16 310.21 7.082-27.155 18.281 30.918Zm0 0"/><path fill="#f6c5b5" d="m289.324 337.328-1.164-27.117 25.363 3.762Zm0 0"/><path fill="#f6c5b4" d="m288.16 310.21-20.12 7.892 8.538-18.418Zm0 0"/><path fill="#54322e" d="m198.621 343.398-12.777-17.73 21.031 6.918Zm0 0"/><path fill="#4a2d2c" d="m198.621 343.398-20.793-2.933 8.016-14.797Zm0 0"/><path fill="#f3c5b3" d="m209.723 342.855-11.102.543 8.254-10.812Zm0 0"/><path fill="#f6c5b4" d="m198.621 343.398 11.102-.543-6.168 13.856Zm0 0"/><path fill="#f6c5b4" d="m198.621 343.398 4.934 13.313-13.754-5.734Zm0 0"/><path fill="#4a2d2c" d="m177.828 340.465 20.793 2.933-8.82 7.579Zm0 0"/><path fill="#f5c5b4" d="m289.324 337.328-21.285-19.226 20.121-7.891Zm0 0"/></svg>