<svg xmlns="http://www.w3.org/2000/svg" width="512" height="512" viewBox="0 0 384 384"><path fill="#fdfdfd" d="m0 272.41.004-30.703 17.004 8.418Zm0 0"/><path fill="#201533" d="M49.375 172.457 0 185.926l31.313-77.98Zm0 0"/><path fill="#fdfdfe" d="m.004 241.707 18.148-2.328-1.144 10.746Zm0 0"/><path fill="#e3e2e6" d="M-.008 313.809 0 272.41l27.965 35.715Zm0 0"/><path fill="#201533" d="m357.105 132.668-21.793 3.578 3.122-12.5ZM299.227 321.45l52.207-9.391L289.074 384ZM114.145 0l2.511 23.863L64.715 0Zm0 0"/><path fill="#201533" d="M116.656 23.863 76.578 45.18 64.715 0ZM76.578 45.18l40.078-21.317-13.25 41.832Zm0 0"/><path fill="#201533" d="m64.715 0 11.863 45.18-35.195 9.722Zm0 0"/><path fill="#201533" d="M0 0h64.715L41.383 54.902ZM74.98 84.07l1.598-38.89 26.828 20.515Zm0 0"/><path fill="#201533" d="M76.578 45.18 74.98 84.07 41.383 54.902ZM125.504 384H0l86.195-24.68Zm0 0"/><path fill="#211634" d="m74.98 84.07 30.793 7.375-26.718 8.743Zm0 0"/><path fill="#fcfbfc" d="M105.773 91.445 74.98 84.07l28.426-18.375Zm0 0"/><path fill="#201533" d="m106.207 119.734 33.246-21.66-11.695 35.922Zm0 0"/><path fill="#201533" d="m106.207 119.734-.434-28.289 33.68 6.63ZM0 88.191l31.313 19.754L0 185.925Zm0 0"/><path fill="#211634" d="M105.773 91.445 80.06 113.832l-1.004-13.644Zm0 0"/><path fill="#211633" d="m80.059 113.832 25.714-22.387.434 28.29Zm0 0"/><path fill="#201533" d="m0 185.926 18.152 53.453-18.148 2.328Zm0 0"/><path fill="#fdfdfd" d="m28.422 260.531 3.07-17.844 26.192 12.723Zm0 0"/><path fill="#fdfdfd" d="m31.492 242.688-3.07 17.843-11.414-10.406Zm0 0"/><path fill="#fefdfe" d="m18.152 239.379 13.34 3.309-14.484 7.437Zm0 0"/><path fill="#fdfdfd" d="m0 272.41 17.008-22.285 11.414 10.406Zm0 0"/><path fill="#201533" d="M188.387 384h-62.883l46.039-21.977Zm0 0"/><path fill="#fdfdfe" d="m303.559 295.05-23.547 3.466 17.918-22.547Zm0 0"/><path fill="#201533" d="m299.227 321.45-34.164-9.872 14.949-13.062ZM303.559 295.05l-4.332 26.4-19.215-22.934ZM200.805 312.773l29.28-1.933-25.05 36.324Zm0 0"/><path fill="#fdfdfd" d="m106.137 292.496-34.852 5.742 20.403-32.172Zm0 0"/><path fill="#fefefe" d="m57.684 255.41 13.601 42.828-35.523-13.047ZM71.285 298.238l5.438-39.855 14.965 7.683Zm0 0"/><path fill="#fefefe" d="M71.285 298.238 57.684 255.41l19.039 2.973Zm0 0"/><path fill="#ceccd3" d="m175.227 227.45-6.61-24.137 23.153 12.695Zm0 0"/><path fill="#676074" d="m197.45 255.68-24.333-2.72 18.715-19.75Zm0 0"/><path fill="#b7b3bd" d="m191.309 274.848-17.457-10.809 23.597-8.36Zm0 0"/><path fill="#f2f1f3" d="m197.45 255.68-23.598 8.36-.735-11.08Zm0 0"/><path fill="#edecee" d="m168.617 203.313 18.75-24.731 4.403 37.426Zm0 0"/><path fill="#201533" d="M306.676 0H384l-56.777 47.832ZM384 0v87.242l-56.777-39.41Zm0 0"/><path fill="#fafafa" d="m318.559 236.063 18.308 18.265-19.164 6.508Zm0 0"/><path fill="#f8f7f8" d="m336.867 254.328-2.734 23.059-16.43-16.551Zm0 0"/><path fill="#201533" d="m318.559 236.063-15.942-3.555 27.531-23.414ZM359.32 215.117l-9.824-40.238 34.508-2.254Zm0 0"/><path fill="#201533" d="m349.496 174.879 7.61-42.211 26.898 39.957Zm0 0"/><path fill="#aaa6b1" d="m351.434 312.059 18.507-29.563 14.063 21.934Zm0 0"/><path fill="#201533" d="M351.434 312.059 384 384h-94.926Zm0 0"/><path fill="#201533" d="M384.004 304.43 384 384l-32.566-71.941Zm0 0"/><path fill="#fdfdfd" d="M187.527.023 166.234 35.18 159.172.02Zm0 0"/><path fill="#201533" d="m114.145 0 23.597-.016-21.086 23.88ZM0 88.191V0l41.383 54.902ZM-.008 313.809l27.168 17.82L0 384Zm0 0"/><path fill="#c1bec6" d="m71.285 298.238-43.32 9.887 7.797-22.934Zm0 0"/><path fill="#201533" d="m27.16 331.629 62.832-1.14-3.797 28.831ZM27.965 308.125l62.027 22.363-62.832 1.14Zm0 0"/><path fill="#f3f2f4" d="m89.992 330.488-62.027-22.363 43.32-9.887Zm0 0"/><path fill="#201533" d="m86.195 359.32 31.352-7.902L125.504 384Zm0 0"/><path fill="#201533" d="m117.547 351.418-31.352 7.902 3.797-28.832ZM193.676 115.855l-15.39 5.891.491-21.734Zm0 0"/><path fill="#fdfcfd" d="m178.285 121.746 15.39-5.89-3.405 14.75Zm0 0"/><path fill="#fdfdfd" d="m105.773 91.445 40.106-16.004-6.426 22.633Zm0 0"/><path fill="#dedce1" d="m145.879 75.441-40.106 16.004-2.367-25.75Zm0 0"/><path fill="#201533" d="M31.313 107.945 0 88.191l41.383-33.289Zm0 0"/><path fill="#201533" d="m74.98 84.07-43.668 23.875 10.07-53.043ZM80.059 113.832l-15.215-9.098 14.21-4.546ZM31.313 107.945l33.53-3.21-1.863 17.14Zm0 0"/><path fill="#201533" d="M64.844 104.734 74.98 84.07l4.075 16.118Zm0 0"/><path fill="#201533" d="m64.844 104.734-33.531 3.211L74.98 84.07ZM76.918 147.652l-16.2-9.922 14.157-4.52ZM83.445 122.781l-3.386-8.949 26.148 5.902Zm0 0"/><path fill="#fdfdfd" d="m57.684 255.41-21.922 29.781-7.34-24.66Zm0 0"/><path fill="#fefefe" d="M35.762 285.191 0 272.411l28.422-11.88Zm0 0"/><path fill="#9a95a2" d="m133.488 189-5.547-2.121 2.235-26.164Zm0 0"/><path fill="#4a4159" d="M139.469 163.156 133.489 189l-3.313-28.285Zm0 0"/><path fill="#fdfdfd" d="m82.95 231.078-6.227 27.305-19.04-2.973Zm0 0"/><path fill="#f8f8f9" d="m33.59 237.457-2.098 5.23-13.34-3.308Zm0 0"/><path fill="#fdfdfe" d="m31.492 242.688 2.098-5.231 24.094 17.953Zm0 0"/><path fill="#201533" d="M33.59 237.457 0 185.926l50.559 18.535Zm0 0"/><path fill="#201533" d="m0 185.926 33.59 51.531-15.438 1.922Zm0 0"/><path fill="#fefefe" d="m193.941 284.438 6.864 28.335-17.852-15.253Zm0 0"/><path fill="#201533" d="m153.594 351.512 17.133-11.18.816 21.691ZM299.227 321.45l-45.868 9.288 11.703-19.16ZM299.227 321.45 289.074 384l-35.715-53.262Zm0 0"/><path fill="#aca7b3" d="m299.227 321.45 35.96-29.548 16.247 20.157Zm0 0"/><path fill="#231936" d="m335.188 291.902-35.961 29.547 4.332-26.398Zm0 0"/><path fill="#f5f4f5" d="m334.133 277.387 1.055 14.515-31.63 3.149Zm0 0"/><path fill="#201533" d="m230.086 310.84 23.273 19.898-48.324 16.426ZM253.36 330.738l-5.485-26.367 17.188 7.207Zm0 0"/><path fill="#201533" d="m247.875 304.371 5.484 26.367-23.273-19.898Zm0 0"/><path fill="#fdfdfd" d="m220.309 295.285 9.777 15.555-29.281 1.933ZM193.941 284.438l26.368 10.847-19.504 17.488Zm0 0"/><path fill="#fdfcfd" d="m247.875 304.371-27.566-9.086 14.543-14.18Zm0 0"/><path fill="#fdfdfd" d="m220.309 295.285 27.566 9.086-17.79 6.469Zm0 0"/><path fill="#302642" d="m272.336 224.082 4.906-13.84 15.84 9.547Zm0 0"/><path fill="#fbfafb" d="m274.387 229.066-2.051-4.984 20.746-4.293Zm0 0"/><path fill="#efeef0" d="m257.117 233.016 15.219-8.934 2.05 4.984Zm0 0"/><path fill="#fefefe" d="m132.32 279.89 19.489 6.208-45.672 6.398Zm0 0"/><path fill="#fdfdfd" d="m107.285 244.293-2.777 23.473-12.82-1.7Zm0 0"/><path fill="#483f58" d="m104.508 267.766 8.578-21.602 2.07 29.04Zm0 0"/><path fill="#6f677b" d="m113.086 246.164-8.578 21.602 2.777-23.473Zm0 0"/><path fill="#fefefe" d="m94.984 239.219 12.301 5.074-15.597 21.773ZM76.723 258.383l18.261-19.164-3.296 26.847ZM132.32 279.89l-26.183 12.606 9.02-17.293Zm0 0"/><path fill="#fefefe" d="m106.137 292.496-1.63-24.73 10.65 7.437Zm0 0"/><path fill="#f5f5f6" d="m139.133 249.3 10.164 5.598-21.457 8.598Zm0 0"/><path fill="#201533" d="m121.313 244.273-6.606-27.43 12.297 2.872Zm0 0"/><path fill="#e3e2e6" d="m121.313 244.273 17.82 5.028-11.293 14.195Zm0 0"/><path fill="#554d64" d="m191.309 274.848-15.29 10.593-3.867-12.011Zm0 0"/><path fill="#fefefe" d="m166.488 296.84 9.532-11.399 6.933 12.079Zm0 0"/><path fill="#fafafb" d="m176.02 285.441 17.921-1.003-10.988 13.082Zm0 0"/><path fill="#5c546a" d="m193.941 284.438-17.921 1.003 15.289-10.593Zm0 0"/><path fill="#c1bec6" d="m217.16 283.93-25.851-9.082 6.14-19.168Zm0 0"/><path fill="#221735" d="m217.16 283.93-23.219.507-2.632-9.59Zm0 0"/><path fill="#fdfdfd" d="m220.309 295.285-3.149-11.355 17.692-2.825Zm0 0"/><path fill="#fbfbfc" d="m217.16 283.93 3.149 11.355-26.368-10.848Zm0 0"/><path fill="#aeaab5" d="m173.852 264.04 17.457 10.808-19.157-1.418Zm0 0"/><path fill="#d6d4da" d="m156.7 268.773 17.152-4.734-1.7 9.39Zm0 0"/><path fill="#201533" d="m302.617 232.508 7.918-31.074 19.613 7.66Zm0 0"/><path fill="#6e677a" d="m233.172 157.785-3.586 19.828-7.934-13.304Zm0 0"/><path fill="#201533" d="m221.363 115.988 19.172 1.703-14.87 13.114ZM221.363 115.988l-9.39 9.032-18.297-9.165Zm0 0"/><path fill="#201533" d="m211.973 125.02 9.39-9.032 4.301 14.817Zm0 0"/><path fill="#fafafb" d="m225.664 130.805-5.55 12.539-8.141-18.324Zm0 0"/><path fill="#201533" d="m327.223 47.832-57.371-16.836L306.676 0Zm0 0"/><path fill="#edecee" d="m202.766 34.46-22.328 19.235-14.204-18.515Zm0 0"/><path fill="#201533" d="m344.664 113.793 12.441 18.875-18.671-8.922ZM384 87.242l-26.895 45.426-12.44-18.875ZM357.105 132.668 384 87.242l.004 85.383Zm0 0"/><path fill="#362c47" d="m246.832 71.973 30.914-3.301-14.406 27.531Zm0 0"/><path fill="#fafafb" d="m269.852 30.996 7.894 37.676-27.11-23.754Zm0 0"/><path fill="#eae9ec" d="m277.746 68.672-30.914 3.3 3.805-27.054Zm0 0"/><path fill="#201533" d="m349.496 174.879-27.066 3.879 6.324-38.004Zm0 0"/><path fill="#201533" d="m335.313 136.246 14.183 38.633-20.742-34.125ZM349.496 174.879l-14.183-38.633 21.792-3.578Zm0 0"/><path fill="#211633" d="m384.008 245.79-24.688-30.673 24.684-42.492Zm0 0"/><path fill="#201533" d="m369.941 282.496 14.067-2.828-.004 24.762Zm0 0"/><path fill="#bcb9c2" d="m334.133 277.387 35.808 5.11-34.753 9.405Zm0 0"/><path fill="#a6a1ad" d="m202.766 34.46-36.532.72L187.527.023Zm0 0"/><path fill="#201533" d="m27.965 308.125-.805 23.504-27.168-17.82Zm0 0"/><path fill="#9e99a6" d="m35.762 285.191-7.797 22.934L0 272.41Zm0 0"/><path fill="#201533" d="m0 384 27.16-52.371 59.035 27.691Zm0 0"/><path fill="#564e65" d="m108.48 307.715-18.488 22.773-18.707-32.25Zm0 0"/><path fill="#fefefe" d="m106.137 292.496 2.343 15.219-37.195-9.477Zm0 0"/><path fill="#201533" d="m0 185.926 49.375-13.469 1.184 32.004ZM60.719 137.73l-11.344 34.727-18.062-64.512ZM60.719 137.73l-29.406-29.785 31.667 13.93ZM60.719 137.73l10.601-11.472 3.555 6.953Zm0 0"/><path fill="#f5f5f6" d="m71.32 126.258 12.125-3.477-8.57 10.43Zm0 0"/><path fill="#201533" d="M71.32 126.258 60.72 137.73l2.261-15.855ZM60.719 137.73l8.332 15.458-19.676 19.269Zm0 0"/><path fill="#201533" d="M69.05 153.188 60.72 137.73l16.199 9.922Zm0 0"/><path fill="#f9f9fa" d="m91.488 136.09-14.57 11.562-2.043-14.441Zm0 0"/><path fill="#fefefe" d="m83.445 122.781 8.043 13.309-16.613-2.88Zm0 0"/><path fill="#201533" d="m91.488 136.09-8.043-13.309 22.762-3.047Zm0 0"/><path fill="#3d334d" d="m127.941 186.879-5.257-7.29 7.492-18.874Zm0 0"/><path fill="#3a304a" d="m118.672 184.434 4.012-4.844 5.257 7.289Zm0 0"/><path fill="#201533" d="m82.04 173.469 6.308 18.195-38.973-19.207ZM88.348 191.664l-37.79 12.797-1.183-32.004Zm0 0"/><path fill="#f5f5f6" d="m107.766 166.926-6.59 5.543-.938-14.39Zm0 0"/><path fill="#fefefe" d="m57.715 233.613 25.234-2.535-25.265 24.332Zm0 0"/><path fill="#fdfdfe" d="m33.59 237.457 24.125-3.844-.031 21.797Zm0 0"/><path fill="#201533" d="m82.95 231.078-25.235 2.535 25.734-19.648Zm0 0"/><path fill="#201533" d="m57.715 233.613-7.156-29.152 32.89 9.504Zm0 0"/><path fill="#201533" d="m50.559 204.46 7.156 29.153-24.125 3.844ZM205.035 347.164 289.075 384H188.386Zm0 0"/><path fill="#201533" d="M253.36 330.738 289.073 384l-84.039-36.836Zm0 0"/><path fill="#fefefe" d="m155.297 305.64 20.941 11.27-22.879 4.738Zm0 0"/><path fill="#201533" d="m176.238 316.91-5.511 23.422-17.368-18.684Zm0 0"/><path fill="#201533" d="m170.727 340.332 5.511-23.422 28.797 30.254Zm0 0"/><path fill="#fefefe" d="m200.805 312.773-24.567 4.137 6.715-19.39Zm0 0"/><path fill="#201533" d="m205.035 347.164-28.797-30.254 24.567-4.137Zm0 0"/><path fill="#fefefe" d="m176.238 316.91-9.75-20.07 16.465.68Zm0 0"/><path fill="#fefefe" d="m176.238 316.91-20.941-11.27 11.191-8.8Zm0 0"/><path fill="#6d6579" d="m176.02 285.441-12.985-.804 9.117-11.207Zm0 0"/><path fill="#fefefe" d="m163.035 284.637 12.985.804-9.532 11.399Zm0 0"/><path fill="#b9b5bf" d="m297.93 275.969 36.203 1.418-30.574 17.664Zm0 0"/><path fill="#241936" d="m369.941 282.496-18.507 29.563-16.247-20.157Zm0 0"/><path fill="#201533" d="m265.063 311.578-3.247-11.34 18.196-1.722Zm0 0"/><path fill="#201533" d="m247.875 304.371 13.941-4.133 3.247 11.34Zm0 0"/><path fill="#fdfdfd" d="m274.387 229.066 25.754 25.489-23.887 11.195Zm0 0"/><path fill="#302541" d="m257.117 233.016 17.27-3.95 1.867 36.684Zm0 0"/><path fill="#fefefe" d="m301.492 238.75-1.351 15.805-25.754-25.489Zm0 0"/><path fill="#fbfbfc" d="m301.492 238.75 1.125-6.242 15.942 3.554Zm0 0"/><path fill="#342a46" d="m277.242 210.242 13.195-7.972 2.645 17.52Zm0 0"/><path fill="#201533" d="m212.766 228.957 23.707-2.766 2.62 24.192Zm0 0"/><path fill="#211634" d="m228.781 203.508 7.692 22.683-23.707 2.766Zm0 0"/><path fill="#c0bdc6" d="m191.832 233.21-16.605-5.76 16.543-11.442Zm0 0"/><path fill="#201533" d="m153.36 321.648 17.367 18.684-17.133 11.18ZM122.137 340.324l-4.59 11.094-27.555-20.93Zm0 0"/><path fill="#aeaab5" d="m153.36 321.648-31.223 18.676-13.657-32.61Zm0 0"/><path fill="#fefefe" d="m151.809 286.098-43.329 21.617-2.343-15.219ZM94.984 239.219l9.57-7.664 2.731 12.738Zm0 0"/><path fill="#fdfdfd" d="m104.555 231.555 10.152-14.711-7.422 27.449Zm0 0"/><path fill="#fefefe" d="m104.508 267.766 1.629 24.73-14.45-26.43Zm0 0"/><path fill="#f9f8f9" d="m173.852 264.04-17.153 4.733 16.418-15.812Zm0 0"/><path fill="#574e65" d="m121.313 244.273 5.69-24.558 12.13 29.586Zm0 0"/><path fill="#231835" d="m239.094 250.383-41.645 5.297 15.317-26.723Zm0 0"/><path fill="#201533" d="m197.45 255.68-5.618-22.47 20.934-4.253Zm0 0"/><path fill="#d6d4da" d="m310.535 201.434-10.887-14.043 22.782-8.633Zm0 0"/><path fill="#201533" d="m330.148 209.094 19.348-34.215 9.824 40.238Zm0 0"/><path fill="#201633" d="m330.148 209.094-19.613-7.66 11.895-22.676Zm0 0"/><path fill="#201533" d="m349.496 174.879-19.348 34.215-7.718-30.336Zm0 0"/><path fill="#6b6478" d="m299.648 187.39 8.414-17.62 14.368 8.988Zm0 0"/><path fill="#534b62" d="m255.496 170.348-25.91 7.265 3.586-19.828Zm0 0"/><path fill="#c4c1c9" d="m246.813 151.969 8.683 18.379-22.324-12.563Zm0 0"/><path fill="#fdfdfd" d="m236.324 141.48-16.21 1.864 5.55-12.54Zm0 0"/><path fill="#665e73" d="m213.164 166.89 4.223-8.69 4.265 6.109Zm0 0"/><path fill="#d8d7dc" d="m194.797 147.64 22.59 10.56-4.223 8.69Zm0 0"/><path fill="#c6c3cb" d="m187.367 178.582 7.43-30.941 18.367 19.25Zm0 0"/><path fill="#f2f1f3" d="m211.973 125.02-21.703 5.585 3.406-14.75Zm0 0"/><path fill="#231835" d="M269.852 30.996 246.688.055 306.676 0Zm0 0"/><path fill="#6c6579" d="m220.566 27.988 5.77 20.555-23.57-14.082Zm0 0"/><path fill="#dbdade" d="m246.832 71.973-20.496-23.43 24.3-3.625Zm0 0"/><path fill="#e4e2e6" d="m139.453 98.074 6.426-22.633 32.898 24.57Zm0 0"/><path fill="#635b70" d="m145.879 75.441 31.777.336 1.121 24.235Zm0 0"/><path fill="#d0ced4" d="m180.438 53.695-34.56 21.746 20.356-40.261Zm0 0"/><path fill="#eeedef" d="m145.879 75.441 34.559-21.746-2.782 22.082Zm0 0"/><path fill="#bab7c0" d="m209.594 75.922-29.156-22.227 22.328-19.234Zm0 0"/><path fill="#d2d0d6" d="m180.438 53.695 29.156 22.227-31.938-.145Zm0 0"/><path fill="#534a62" d="m226.336 48.543-16.742 27.379-6.828-41.461Zm0 0"/><path fill="#d3d1d7" d="m209.594 75.922 16.742-27.379 20.496 23.43Zm0 0"/><path fill="#736c7f" d="m209.594 75.922-30.817 24.09-1.12-24.235Zm0 0"/><path fill="#201533" d="m384 87.242-56.39 3.82-.387-43.23Zm0 0"/><path fill="#211634" d="m327.223 47.832.386 43.23-17.562-15.75Zm0 0"/><path fill="#201533" d="m327.61 91.063 56.39-3.82-39.336 26.55ZM327.223 47.832l-30.235 17.277-27.136-34.113Zm0 0"/><path fill="#f9f9f9" d="m296.988 65.11-19.242 3.562-7.894-37.676Zm0 0"/><path fill="#211634" d="m296.988 65.11 30.235-17.278-17.176 27.48Zm0 0"/><path fill="#231835" d="m384.008 245.79-22.051-2.392-2.637-28.28Zm0 0"/><path fill="#f9f8f9" d="m361.957 243.398 22.05 2.391-.007 9.29Zm0 0"/><path fill="#201533" d="m359.32 215.117-19.777 23.621-9.395-29.644Zm0 0"/><path fill="#f7f7f8" d="m339.543 238.738 22.414 4.66-25.09 10.93Zm0 0"/><path fill="#201533" d="m361.957 243.398-22.414-4.66 19.777-23.62Zm0 0"/><path fill="#221735" d="m339.543 238.738-20.984-2.675 11.59-26.97Zm0 0"/><path fill="#f7f7f8" d="m339.543 238.738-2.676 15.59-18.308-18.266Zm0 0"/><path fill="#fcfcfc" d="m364.855 264.34 19.153 15.328-14.067 2.828ZM334.133 277.387l30.722-13.047 5.086 18.156Zm0 0"/><path fill="#f9f9fa" d="m384.008 279.668-19.153-15.328L384 255.078Zm0 0"/><path fill="#f4f3f5" d="m364.855 264.34-2.898-20.942L384 255.078Zm0 0"/><path fill="#f5f5f6" d="m364.855 264.34-30.722 13.047 2.734-23.059Zm0 0"/><path fill="#f4f3f5" d="m361.957 243.398 2.898 20.942-27.988-10.012Zm0 0"/><path fill="#f5f5f6" d="m116.656 23.863 19.895 7.758-33.145 34.074Zm0 0"/><path fill="#efeef0" d="m136.55 31.621 9.329 43.82-42.473-9.746Zm0 0"/><path fill="#fcfcfc" d="m145.879 75.441-9.328-43.82 29.683 3.559Zm0 0"/><path fill="#efeff1" d="m108.48 307.715 13.657 32.61-32.145-9.837Zm0 0"/><path fill="#201533" d="m70.379 119.602.941 6.656-8.34-4.383Zm0 0"/><path fill="#fafafb" d="m71.32 126.258-.941-6.656 13.066 3.18Zm0 0"/><path fill="#211634" d="m64.844 104.734 5.535 14.868-7.399 2.273Zm0 0"/><path fill="#fefefe" d="m70.379 119.602-5.535-14.868 15.215 9.098Zm0 0"/><path fill="#fdfdfd" d="m83.445 122.781-13.066-3.18 9.68-5.769Zm0 0"/><path fill="#211634" d="m178.285 121.746-38.832-23.672 39.324 1.938Zm0 0"/><path fill="#e2e0e4" d="M149.523 176.316 133.488 189l5.98-25.844Zm0 0"/><path fill="#fefefe" d="m101.176 172.469-10.153-4.38 9.215-10.01Zm0 0"/><path fill="#f9f9fa" d="m91.488 136.09-5.11 17.726-9.46-6.164Zm0 0"/><path fill="#201533" d="m122.684 179.59-5.036-12.88 12.528-5.995Zm0 0"/><path fill="#fbfbfb" d="m114.168 177.715 8.516 1.875-4.012 4.844Zm0 0"/><path fill="#f4f3f5" d="m114.168 177.715-12.992-5.246 6.59-5.543Zm0 0"/><path fill="#201533" d="m117.648 166.71-3.48 11.005-6.402-10.79ZM114.168 177.715l3.48-11.004 5.036 12.879ZM112.66 149.914 91.488 136.09l14.719-16.356ZM112.66 149.914l-6.453-30.18 21.55 14.262Zm0 0"/><path fill="#fcfcfc" d="m101.176 172.469 7.726 14.367-16.925 2.195Zm0 0"/><path fill="#201533" d="m188.387 384-16.844-21.977 33.492-14.859Zm0 0"/><path fill="#201533" d="m170.727 340.332 34.308 6.832-33.492 14.86Zm0 0"/><path fill="#a8a4af" d="m163.035 284.637-6.336-15.864 15.453 4.657Zm0 0"/><path fill="#d0ced4" d="m156.7 268.773-4.891 17.325-19.489-6.207Zm0 0"/><path fill="#6c6579" d="m151.809 286.098 4.89-17.325 6.336 15.864Zm0 0"/><path fill="#fafafa" d="m334.133 277.387-36.203-1.418 19.773-15.133Zm0 0"/><path fill="#fdfdfd" d="m250.531 292.117 11.285 8.121-13.941 4.133Zm0 0"/><path fill="#fefefe" d="m250.531 292.117-2.656 12.254-13.023-23.266Zm0 0"/><path fill="#fdfdfd" d="m250.531 292.117-15.68-11.012 20.11-3.039Zm0 0"/><path fill="#fefefe" d="m261.816 300.238-11.285-8.12 4.43-14.052Zm0 0"/><path fill="#fdfdfd" d="m269.672 281.887-7.856 18.351-6.855-22.172Zm0 0"/><path fill="#201533" d="m217.16 283.93 8.3-18.422 9.392 15.597Zm0 0"/><path fill="#271c39" d="m225.46 265.508 20.876 1.023-11.484 14.574Zm0 0"/><path fill="#9d99a6" d="m225.46 265.508-8.3 18.422-19.71-28.25Zm0 0"/><path fill="#d3d1d7" d="m225.46 265.508-28.01-9.828 41.644-5.297Zm0 0"/><path fill="#261c39" d="m246.336 266.531-20.875-1.023 13.633-15.125Zm0 0"/><path fill="#211734" d="m256.863 258.184.254-25.168 19.137 32.734Zm0 0"/><path fill="#201533" d="m256.863 258.184-17.77-7.801 18.024-17.367Zm0 0"/><path fill="#f9f9fa" d="m300.14 254.555 18.419-18.493-.856 24.774Zm0 0"/><path fill="#fdfcfd" d="m300.14 254.555 1.352-15.805 17.067-2.687Zm0 0"/><path fill="#faf9fa" d="m297.93 275.969 2.21-21.414 17.563 6.28Zm0 0"/><path fill="#fefefe" d="m301.492 238.75-27.105-9.684 28.23 3.442ZM273.082 203.559l17.356-1.29-13.196 7.973Zm0 0"/><path fill="#857f90" d="m256.227 185.895 8.863-5.68 1.52 13.308Zm0 0"/><path fill="#211634" d="m265.09 180.215 15.332 6.097-13.813 7.211Zm0 0"/><path fill="#201533" d="m243.465 210.66-6.992 15.531-7.692-22.683Zm0 0"/><path fill="#221735" d="m245.621 198.016-2.156 12.644-14.684-7.152Zm0 0"/><path fill="#201533" d="m236.473 226.191 20.644 6.825-18.023 17.367Zm0 0"/><path fill="#251a37" d="m212.766 228.957-20.934 4.254-.062-17.203Zm0 0"/><path fill="#fefefe" d="m155.297 305.64-1.938 16.008-44.879-13.933ZM155.297 305.64l-46.817 2.075 43.329-21.617Zm0 0"/><path fill="#201533" d="m122.137 340.324 31.457 11.188-36.047-.094ZM125.504 384l28.09-32.488 17.949 10.511Zm0 0"/><path fill="#201533" d="m117.547 351.418 36.047.094L125.504 384Zm0 0"/><path fill="#f7f6f7" d="m153.594 351.512-31.457-11.188 31.222-18.676Zm0 0"/><path fill="#a29daa" d="m127.84 263.496 4.48 16.395-17.164-4.688Zm0 0"/><path fill="#c6c4cb" d="m113.086 246.164 14.754 17.332-12.684 11.707Zm0 0"/><path fill="#e5e3e7" d="m127.84 263.496-14.754-17.332 8.227-1.89Zm0 0"/><path fill="#756e81" d="m114.707 216.844-1.621 29.32-5.8-1.871Zm0 0"/><path fill="#221735" d="m121.313 244.273-8.227 1.891 1.621-29.32Zm0 0"/><path fill="#fefefe" d="m82.95 231.078 12.034 8.14-18.261 19.165Zm0 0"/><path fill="#201533" d="m88.348 191.664 26.359 25.18-31.258-2.88Zm0 0"/><path fill="#c9c6cd" d="m113.066 202.648 1.641 14.196-26.36-25.18Zm0 0"/><path fill="#e4e3e7" d="m127.84 263.496 21.457-8.598-16.977 24.993Zm0 0"/><path fill="#fbfafb" d="m149.297 254.898 7.402 13.875-24.379 11.118Zm0 0"/><path fill="#fcfcfc" d="M173.117 252.96 156.7 268.774l-7.402-13.875Zm0 0"/><path fill="#eae9ec" d="m156.398 235.629-7.101 19.27-10.164-5.598Zm0 0"/><path fill="#9c97a5" d="m173.117 252.96 2.11-25.51 16.605 5.76Zm0 0"/><path fill="#fefefe" d="m113.066 202.648-21.09-13.617 16.926-2.195Zm0 0"/><path fill="#241937" d="m91.977 189.031 21.09 13.617-24.72-10.984Zm0 0"/><path fill="#201533" d="m272.102 162.566-16.606 7.782-8.684-18.38ZM288.953 164.07l-16.851-1.504 17.003-23.257Zm0 0"/><path fill="#201533" d="m265.902 131.055 6.2 31.511-25.29-10.597Zm0 0"/><path fill="#201533" d="m272.102 162.566-6.2-31.511 23.203 8.254Zm0 0"/><path fill="#efeef0" d="m236.324 141.48 10.488 10.489-13.64 5.816Zm0 0"/><path fill="#e5e3e7" d="m194.797 147.64-4.527-17.035 21.703-5.585Zm0 0"/><path fill="#d1cfd5" d="m220.113 143.344-25.316 4.297 17.176-22.621Zm0 0"/><path fill="#fdfdfd" d="m180.21 136.691-1.925-14.945 11.985 8.86Zm0 0"/><path fill="#afabb6" d="M202.766 34.46 217.215-.011l3.351 28Zm0 0"/><path fill="#e5e4e7" d="m217.215-.012-14.45 34.473L187.528.023Zm0 0"/><path fill="#bab7c0" d="m226.336 48.543 10.312-26.281 13.989 22.656Zm0 0"/><path fill="#fcfcfc" d="m236.648 22.262 33.204 8.734-19.215 13.922Zm0 0"/><path fill="#eae9ec" d="M236.648 22.262 246.688.055l23.164 30.941Zm0 0"/><path fill="#bdb9c2" d="m217.215-.012 19.433 22.274-16.082 5.726Zm0 0"/><path fill="#564e64" d="m236.648 22.262-10.312 26.281-5.77-20.555Zm0 0"/><path fill="#fbfbfb" d="M236.648 22.262 217.215-.012l29.472.067Zm0 0"/><path fill="#201533" d="m227.656 99.813-6.293 16.175-27.687-.133ZM178.777 100.012l48.88-.2-33.981 16.043Zm0 0"/><path fill="#201533" d="m221.363 115.988 6.293-16.175 12.88 17.878Zm0 0"/><path fill="#201533" d="m240.535 117.691-12.879-17.879 35.684-3.609Zm0 0"/><path fill="#bdbac2" d="m227.656 99.813 19.176-27.84 16.508 24.23Zm0 0"/><path fill="#221735" d="m227.656 99.813-18.062-23.891 37.238-3.95Zm0 0"/><path fill="#e0dee2" d="m209.594 75.922 18.062 23.89-48.879.2Zm0 0"/><path fill="#f8f7f8" d="m296.988 65.11-2.64 29.394-16.602-25.832Zm0 0"/><path fill="#dddbe0" d="m277.746 68.672 16.602 25.832-31.008 1.7Zm0 0"/><path fill="#201533" d="m289.105 139.309 5.243-44.805 15.793 34.89Zm0 0"/><path fill="#201533" d="m294.348 94.504 29.242 29.914-13.45 4.977Zm0 0"/><path fill="#221735" d="m294.348 94.504 2.64-29.395 13.059 10.204Zm0 0"/><path fill="#201533" d="m327.61 91.063-33.262 3.44 15.699-19.19Zm0 0"/><path fill="#201533" d="m294.348 94.504 33.261-3.442-4.02 33.356ZM319.352 133.742l-9.207 8.418-.004-12.765Zm0 0"/><path fill="#231835" d="m323.59 124.418-4.238 9.324-9.211-4.347Zm0 0"/><path fill="#d9d8dd" d="m166.234 35.18-29.683-3.559L159.17.02Zm0 0"/><path fill="#fafafa" d="m136.55 31.621 1.192-31.637 21.43.036Zm0 0"/><path fill="#d1cfd5" d="m137.742-.016-1.191 31.637-19.895-7.758Zm0 0"/><path fill="#fafafb" d="m141.527 213.691 7.996-37.375 9.743 35.438Zm0 0"/><path fill="#fefefe" d="m160.7 129.824 11.784 26.25-15.75-3.914Zm0 0"/><path fill="#fcfcfd" d="m100.238 158.078-9.215 10.012-4.644-14.274Zm0 0"/><path fill="#dcdadf" d="m77.89 160.914 13.133 7.176-8.984 5.379Zm0 0"/><path fill="#e8e7ea" d="m91.023 168.09-13.132-7.176 8.488-7.098Zm0 0"/><path fill="#201533" d="m77.89 160.914 4.15 12.555-32.665-1.012ZM69.05 153.188l8.84 7.726-28.515 11.543Zm0 0"/><path fill="#201533" d="m77.89 160.914-8.84-7.726 7.868-5.536Zm0 0"/><path fill="#f9f8f9" d="m86.379 153.816-8.488 7.098-.973-13.262Zm0 0"/><path fill="#e0dee2" d="m130.176 160.715 12.144-17.012-2.851 19.453Zm0 0"/><path fill="#201533" d="m142.32 143.703-12.144 17.012-2.418-26.719Zm0 0"/><path fill="#fefefe" d="m108.902 186.836 5.266-9.121 4.504 6.719ZM114.168 177.715l-5.266 9.12-7.726-14.366Zm0 0"/><path fill="#c8c5cc" d="m156.734 152.16-13.73 9.278-.684-17.735Zm0 0"/><path fill="#dcdadf" d="m142.32 143.703.684 17.734-3.535 1.72Zm0 0"/><path fill="#8a8494" d="m143.004 161.438 6.52 14.878-10.055-13.16Zm0 0"/><path fill="#c6c3cb" d="m149.523 176.316-6.52-14.879 13.731-9.277Zm0 0"/><path fill="#fefefe" d="m91.488 136.09 8.75 21.988-13.86-4.262Zm0 0"/><path fill="#d2d0d6" d="m91.977 189.031-3.63 2.633-6.308-18.195Zm0 0"/><path fill="#fdfdfd" d="m91.023 168.09.954 20.941-9.938-15.562Zm0 0"/><path fill="#fefefe" d="m91.977 189.031-.954-20.941 10.153 4.379Zm0 0"/><path fill="#201533" d="m50.559 204.46 37.789-12.796-4.899 22.3Zm0 0"/><path fill="#fbfbfb" d="m269.672 281.887 1.426-4.899 26.832-1.02Zm0 0"/><path fill="#fcfcfc" d="m280.012 298.516-10.34-16.63 28.258-5.917Zm0 0"/><path fill="#f8f7f8" d="m276.254 265.75 23.887-11.195-2.211 21.414Zm0 0"/><path fill="#665f73" d="m276.254 265.75 21.676 10.219-26.832 1.02Zm0 0"/><path fill="#201533" d="m234.852 281.105 11.484-14.574 8.625 11.535ZM256.863 258.184l-10.527 8.347-7.242-16.148ZM266.965 269.617l-10.102-11.433 19.39 7.566ZM266.965 269.617l4.133 7.371-7.918-4.789Zm0 0"/><path fill="#201533" d="m266.965 269.617 9.289-3.867-5.156 11.238Zm0 0"/><path fill="#f4f3f5" d="m299.648 187.39-9.21 14.88-5.391-10.782Zm0 0"/><path fill="#4b425a" d="m310.535 201.434-20.098.836 9.211-14.88Zm0 0"/><path fill="#201533" d="m293.082 219.79 17.453-18.356-7.918 31.074Zm0 0"/><path fill="#241936" d="m274.387 229.066 18.695-9.277 9.535 12.719Zm0 0"/><path fill="#eae9eb" d="m310.535 201.434-17.453 18.355-2.644-17.52Zm0 0"/><path fill="#f3f2f4" d="m266.61 193.523-13.477 7.012 3.094-14.64Zm0 0"/><path fill="#fefefe" d="m243.465 210.66 9.668-10.125v10.867Zm0 0"/><path fill="#fdfcfd" d="m253.133 200.535-7.512-2.52 10.606-12.12Zm0 0"/><path fill="#efeef0" d="m253.133 200.535-9.668 10.125 2.156-12.644Zm0 0"/><path fill="#fefefe" d="m253.133 200.535 8.562 5.172-8.562 5.695Zm0 0"/><path fill="#fefefe" d="m261.695 205.707-8.562-5.172 13.476-7.012Zm0 0"/><path fill="#4a4159" d="m240.438 186.73-10.852-9.117 25.91-7.265Zm0 0"/><path fill="#5f576d" d="m256.227 185.895-15.79.835 15.06-16.382Zm0 0"/><path fill="#fcfcfc" d="m285.047 191.488 5.39 10.782-17.355 1.289Zm0 0"/><path fill="#655d72" d="m257.117 233.016 6.832-16.243 8.387 7.309Zm0 0"/><path fill="#2f2440" d="m272.336 224.082-8.387-7.309 13.293-6.53Zm0 0"/><path fill="#fdfdfd" d="m261.695 205.707 2.254 11.066-10.816-5.37Zm0 0"/><path fill="#201533" d="m248.21 222.48 8.907 10.536-20.644-6.825Zm0 0"/><path fill="#7d7788" d="m248.21 222.48-4.745-11.82 9.668.742Zm0 0"/><path fill="#201533" d="m243.465 210.66 4.746 11.82-11.738 3.711Zm0 0"/><path fill="#efeef0" d="m263.95 216.773-15.74 5.707 4.923-11.078Zm0 0"/><path fill="#3f3650" d="m248.21 222.48 15.74-5.707-6.833 16.243Zm0 0"/><path fill="#fefefe" d="m155.297 305.64-3.488-19.542 14.68 10.742Zm0 0"/><path fill="#fefefe" d="m151.809 286.098 11.226-1.461 3.453 12.203Zm0 0"/><path fill="#201533" d="m97.348 226.914-14.399 4.164.5-17.113Zm0 0"/><path fill="#fdfdfd" d="m97.348 226.914-2.364 12.305-12.035-8.14Zm0 0"/><path fill="#fefefe" d="m94.984 239.219 2.364-12.305 7.207 4.64Zm0 0"/><path fill="#201533" d="m114.707 216.844-17.36 10.07-13.898-12.95Zm0 0"/><path fill="#211634" d="m97.348 226.914 17.359-10.07-10.152 14.71Zm0 0"/><path fill="#fdfdfd" d="m149.523 176.316 19.094 26.996-9.351 8.442Zm0 0"/><path fill="#cfcdd3" d="m156.398 235.629 16.72 17.332-23.821 1.937Zm0 0"/><path fill="#f1f0f2" d="m175.227 227.45-18.829 8.179 2.868-23.875Zm0 0"/><path fill="#d9d8dd" d="m156.398 235.629 18.829-8.18-2.11 25.512Zm0 0"/><path fill="#f0eff1" d="m168.617 203.313 6.61 24.136-15.961-15.695Zm0 0"/><path fill="#2c223e" d="m126.16 203.64-8.383-10.503 10.164-6.258Zm0 0"/><path fill="#2e233f" d="m117.777 193.137.895-8.703 9.27 2.445Zm0 0"/><path fill="#fbfbfb" d="m117.777 193.137-8.875-6.301 9.77-2.402Zm0 0"/><path fill="#2f2541" d="m117.777 193.137 8.383 10.504-13.094-.993Zm0 0"/><path fill="#fdfdfd" d="m117.777 193.137-4.71 9.511-4.165-15.812Zm0 0"/><path fill="#868090" d="m141.527 213.691-14.523 6.024-.844-16.074Zm0 0"/><path fill="#9b96a3" d="m133.488 189 8.04 24.691-15.368-10.05Zm0 0"/><path fill="#5e566c" d="m133.488 189-7.328 14.64 1.781-16.761Zm0 0"/><path fill="#686175" d="m322.43 178.758-2.114-35.57 8.438-2.434Zm0 0"/><path fill="#4b435b" d="m308.063 169.77 12.253-26.583 2.114 35.57Zm0 0"/><path fill="#fefefe" d="m320.316 143.188-12.253 26.582 2.082-27.61Zm0 0"/><path fill="#c8c5cc" d="m320.316 143.188-.964-9.446 9.402 7.012Zm0 0"/><path fill="#fefefe" d="m319.352 133.742.964 9.446-10.171-1.028ZM287.078 181.703l-2.031 9.785-4.625-5.175Zm0 0"/><path fill="#fdfdfd" d="m287.078 181.703 7.762 1.352-9.793 8.433Zm0 0"/><path fill="#eeedef" d="m285.047 191.488 9.793-8.433 4.808 4.336Zm0 0"/><path fill="#fefefe" d="m294.84 183.055 13.223-13.285-8.415 17.62Zm0 0"/><path fill="#fdfdfd" d="m294.84 183.055.71-14.012 12.512.727Zm0 0"/><path fill="#201533" d="m310.145 142.16-21.04-2.851 21.036-9.914ZM272.102 162.566l8.32 23.746-15.332-6.097ZM287.078 181.703l-14.976-19.137 16.851 1.504Zm0 0"/><path fill="#221734" d="m272.102 162.566 14.976 19.137-6.656 4.61Zm0 0"/><path fill="#201533" d="M240.535 117.691 242.371 135l-16.707-4.195Zm0 0"/><path fill="#201533" d="m242.371 135-6.047 6.48-10.66-10.675Zm0 0"/><path fill="#ccc9d0" d="m236.324 141.48-3.152 16.305-13.059-14.441Zm0 0"/><path fill="#544c63" d="m217.387 158.2 15.785-.415-11.52 6.524Zm0 0"/><path fill="#847e8e" d="m233.172 157.785-15.785.414 2.726-14.855Zm0 0"/><path fill="#c5c2c9" d="m217.387 158.2-22.59-10.56 25.316-4.296Zm0 0"/><path fill="#fafafa" d="m194.797 147.64-14.586-10.949 10.059-6.086Zm0 0"/><path fill="#201533" d="m294.348 94.504-28.446 36.55-2.562-34.85ZM265.902 131.055l28.446-36.551-5.243 44.805Zm0 0"/><path fill="#201533" d="m265.902 131.055-25.367-13.364 22.805-21.488Zm0 0"/><path fill="#201533" d="M265.902 131.055 242.372 135l-1.837-17.309Zm0 0"/><path fill="#fdfdfd" d="m333.008 119.695 11.656-5.902-6.23 9.953Zm0 0"/><path fill="#211633" d="m333.008 119.695-5.399-28.632 17.055 22.73Zm0 0"/><path fill="#201533" d="m327.61 91.063 5.398 28.632-9.418 4.723Zm0 0"/><path fill="#d1ced4" d="m133.488 189 16.035-12.684-7.996 37.375Zm0 0"/><path fill="#201533" d="m160.7 129.824-8.61-7.558 26.195-.52ZM178.285 121.746l-26.195.52-12.637-24.192Zm0 0"/><path fill="#fefefe" d="m156.734 152.16 15.75 3.914-22.96 20.242Zm0 0"/><path fill="#f9f9fa" d="m172.484 156.074 14.883 22.508-37.844-2.266Zm0 0"/><path fill="#fdfdfe" d="m149.523 176.316 37.844 2.266-18.75 24.73Zm0 0"/><path fill="#fefefe" d="m180.21 136.691-7.726 19.383-11.785-26.25Zm0 0"/><path fill="#fdfdfe" d="m180.21 136.691-19.51-6.867 17.585-8.078Zm0 0"/><path fill="#201533" d="m112.66 149.914 4.988 16.797-9.882.215Zm0 0"/><path fill="#201533" d="m112.66 149.914-4.894 17.012-7.528-8.848ZM112.66 149.914l17.516 10.8-12.528 5.997Zm0 0"/><path fill="#201533" d="m130.176 160.715-17.516-10.8 15.098-15.919Zm0 0"/><path fill="#4e465d" d="m271.098 276.988-1.426 4.899-6.492-9.688Zm0 0"/><path fill="#fefefe" d="m261.816 300.238 7.856-18.351 10.34 16.629Zm0 0"/><path fill="#868090" d="m263.18 272.2 6.492 9.687-14.711-3.82Zm0 0"/><path fill="#201533" d="m246.336 266.531 16.844 5.668-8.22 5.867Zm0 0"/><path fill="#201533" d="m263.18 272.2-16.844-5.669 10.527-8.347Zm0 0"/><path fill="#201533" d="m266.965 269.617-3.785 2.582-6.317-14.015Zm0 0"/><path fill="#2d233f" d="m245.621 198.016-5.184-11.286 15.79-.835Zm0 0"/><path fill="#fefefe" d="m285.047 191.488-18.438 2.035 13.813-7.21ZM266.61 193.523l18.437-2.035-11.965 12.07Zm0 0"/><path fill="#fcfcfc" d="m263.95 216.773 9.132-13.214 4.16 6.683Zm0 0"/><path fill="#fefefe" d="m273.082 203.559-9.133 13.214-2.254-11.066Zm0 0"/><path fill="#fdfdfd" d="m266.61 193.523 6.472 10.036-11.387 2.148Zm0 0"/><path fill="#231836" d="m212.578 195.934 16.203 7.574-16.015 25.449Zm0 0"/><path fill="#a5a0ac" d="m213.164 166.89-.586 29.044-25.21-17.352Zm0 0"/><path fill="#6c6579" d="m187.367 178.582 25.211 17.352-20.808 20.074Zm0 0"/><path fill="#3a304a" d="m212.578 195.934.188 33.023-20.996-12.95Zm0 0"/><path fill="#201533" d="m126.16 203.64-11.453 13.204-1.64-14.196ZM127.004 219.715l-12.297-2.871 11.453-13.203Zm0 0"/><path fill="#fefefe" d="m295.55 169.043 3.235-8.02 9.277 8.747Zm0 0"/><path fill="#fbfafb" d="m308.063 169.77-9.278-8.747 11.36-18.863Zm0 0"/><path fill="#201533" d="m298.785 161.023-9.68-21.714 21.04 2.851ZM288.953 164.07l9.832-3.047-3.234 8.02Zm0 0"/><path fill="#201533" d="m298.785 161.023-9.832 3.047.152-24.761ZM242.371 135l23.531-3.945-19.09 20.914Zm0 0"/><path fill="#201533" d="m236.324 141.48 6.047-6.48 4.441 16.969Zm0 0"/><path fill="#4d445c" d="m335.313 136.246-7.274-5.473 10.395-7.027Zm0 0"/><path fill="#faf9fa" d="m328.04 130.773 4.968-11.078 5.426 4.051Zm0 0"/><path fill="#5d556a" d="m328.04 130.773 7.272 5.473-6.558 4.508Zm0 0"/><path fill="#fcfcfd" d="m319.352 133.742 8.687-2.969.715 9.98Zm0 0"/><path fill="#fcfcfc" d="m328.04 130.773-8.688 2.97 4.238-9.325Zm0 0"/><path fill="#fafafa" d="m333.008 119.695-4.969 11.078-4.45-6.355Zm0 0"/><path fill="#201533" d="m152.09 122.266-9.77 21.437-14.562-9.707ZM139.453 98.074l12.637 24.192-24.332 11.73ZM91.488 136.09l21.172 13.824-12.422 8.164Zm0 0"/><path fill="#847e8f" d="m127.004 219.715 14.523-6.024-2.394 35.61Zm0 0"/><path fill="#ebeaec" d="m141.527 213.691 14.871 21.938-17.265 13.672Zm0 0"/><path fill="#f8f8f9" d="m141.527 213.691 17.739-1.937-2.868 23.875Zm0 0"/><path fill="#fefefe" d="m295.55 169.043-.71 14.012-7.762-1.352Zm0 0"/><path fill="#201533" d="m295.55 169.043-8.472 12.66 1.875-17.633Zm0 0"/><path fill="#bbb7c0" d="m256.227 185.895-.73-15.547 9.593 9.867Zm0 0"/><path fill="#201533" d="m255.496 170.348 16.606-7.782-7.012 17.649Zm0 0"/><path fill="#221734" d="m152.09 122.266 8.61 7.558-18.38 13.88Zm0 0"/><path fill="#cfcdd3" d="m142.32 143.703 18.38-13.879-3.966 22.336Zm0 0"/><path fill="#fdfdfd" d="m187.367 178.582-14.883-22.508 22.313-8.433Zm0 0"/><path fill="#fefefe" d="m194.797 147.64-22.313 8.434 7.727-19.383Zm0 0"/><path fill="#595167" d="m229.586 177.613-17.008 18.32.586-29.042Zm0 0"/><path fill="#5c546a" d="m229.586 177.613-16.422-10.722 8.488-2.582Zm0 0"/><path fill="#2a203c" d="m229.586 177.613-.805 25.895-16.203-7.574Zm0 0"/><path fill="#241936" d="m228.781 203.508.805-25.895 10.851 9.117Zm0 0"/><path fill="#231836" d="m228.781 203.508 11.656-16.778 5.184 11.286Zm0 0"/></svg>