<svg xmlns="http://www.w3.org/2000/svg" width="512" height="512" viewBox="0 0 384 384"><path fill="#091d3b" d="M0 92.18V0l41.695 49.273Zm0 0"/><path fill="#081d3b" d="M0 0h88.52L41.695 49.273ZM40.629 170.504 0 92.18l38.324 6.879ZM345.363 114.379 384 158.69l-29.762 18.485ZM313.59 384l-11.113-63.219 81.5-15.523Zm0 0"/><path fill="#0e213b" d="m163.957.004-27.45 48.902L88.52 0Zm0 0"/><path fill="#0a1e3b" d="m136.508 48.906-56.403 16.7L88.52 0Zm0 0"/><path fill="#081d3b" d="m88.52 0-8.415 65.605-38.41-16.332ZM71.094 384H0l44.441-35.637Zm0 0"/><path fill="#081d3c" d="m100.918 117.723 22.137-26.098 3.687 37.25ZM100.918 117.723 88.414 99.39l34.64-7.766Zm0 0"/><path fill="#0a1e3b" d="m80.035 114.844 8.38-15.453 12.503 18.332Zm0 0"/><path fill="#081d3b" d="m0 186.168 40.566 22.223L.023 241.449Zm0 0"/><path fill="#fef3cd" d="m50.945 261.898 3.489-27.093 9.492 6.695Zm0 0"/><path fill="#fef3cb" d="m54.434 234.805-3.489 27.093L.023 241.45Zm0 0"/><path fill="#081d3b" d="m40.566 208.39 13.868 26.415-54.41 6.644Zm0 0"/><path fill="#fef2c9" d="M50.945 261.898 6.746 275.656.023 241.45Zm0 0"/><path fill="#fef0c2" d="M6.746 275.656-.02 297.352l.043-55.903Zm0 0"/><path fill="#0c203b" d="M187.828 384h-26.293l28.664-39.586Zm0 0"/><path fill="#081d3b" d="M87.676 358.895 161.536 384H71.093Zm0 0"/><path fill="#9b893e" d="m200.66 326.547 6.52-12.05 19.757 21.843Zm0 0"/><path fill="#081d3b" d="m308.852 296.07-16.395 9.258-1.148-7.223Zm0 0"/><path fill="#0a1f3b" d="m308.852 296.07-6.375 24.711-10.02-15.453Zm0 0"/><path fill="#fef2ca" d="m50.945 261.898 11.95 33.164-29.614-10.98Zm0 0"/><path fill="#fef2ca" d="m50.945 261.898 31.766 24.97-19.816 8.195Zm0 0"/><path fill="#feedb4" d="m63.926 241.5 13.336 9.95-26.317 10.448Zm0 0"/><path fill="#fef0c0" d="m86.016 268.172-3.305 18.695-31.766-24.969Zm0 0"/><path fill="#fef1c4" d="m77.262 251.45 8.754 16.722-35.07-6.274Zm0 0"/><path fill="#ad963c" d="m176.484 227.832-14.175-33.441 25.62 8.355Zm0 0"/><path fill="#091e3b" d="m384.012 213.785-29.43 8.996-.344-45.605Zm0 0"/><path fill="#091d3b" d="m384 158.691.012 55.094-29.774-36.61Zm0 0"/><path fill="#0c203a" d="M300.574 79.988 306.316 0l38.372 63.852Zm0 0"/><path fill="#0c1f3b" d="m384 0-39.312 63.852L306.316 0Zm0 0"/><path fill="#091d3b" d="M345.363 114.379 384 89.055v69.636Zm0 0"/><path fill="#fce8a7" d="m321.207 234.84 14.16 22.82-26.207 15.016Zm0 0"/><path fill="#f3de95" d="m335.367 257.66.465 22.86-26.672-7.844Zm0 0"/><path fill="#0b1f3b" d="m321.207 234.84-15.441-4.383 24.539-17.234Zm0 0"/><path fill="#081d3b" d="M383.977 305.258 384 384h-70.41ZM-.02 297.352l22.91 8.753L0 332.633Zm0 0"/><path fill="#bca13c" d="M62.895 295.063 22.89 306.105l10.39-22.023Zm0 0"/><path fill="#081d3b" d="m22.89 306.105 46.587 17.547-25.036 24.711Zm0 0"/><path fill="#c2a846" d="M69.477 323.652 22.89 306.105l40.004-11.043Zm0 0"/><path fill="#0a1e3b" d="m87.676 358.895-18.2-35.243 25.34 7.051Zm0 0"/><path fill="#081d3b" d="M87.676 358.895 71.094 384 44.44 348.363ZM69.477 323.652l18.199 35.243-43.235-10.532Zm0 0"/><path fill="#091e3c" d="m192.164 117.05-15.305 6.212-8.593-30.047Zm0 0"/><path fill="#fcf0c5" d="m176.86 123.262 15.304-6.211-6.93 14.554Zm0 0"/><path fill="#0a1e3b" d="m136.508 48.906-13.453 42.719-42.95-26.02Zm0 0"/><path fill="#0a1e3b" d="m123.055 91.625-34.64 7.766-8.31-33.786Zm0 0"/><path fill="#081d3b" d="M40.629 170.504 0 186.168V92.18ZM41.695 49.273l-3.37 49.786L0 92.179ZM80.105 65.605 38.325 99.06l3.37-49.786Zm0 0"/><path fill="#081d3c" d="m80.035 114.844-15.39-10.54 23.77-4.913Zm0 0"/><path fill="#081d3b" d="m38.324 99.059 26.32 5.246-5.937 28.261Zm0 0"/><path fill="#091d3c" d="m64.645 104.305 15.46-38.7 8.31 33.786Zm0 0"/><path fill="#081d3b" d="m64.645 104.305-26.32-5.246 41.78-33.454ZM76.422 143.61l-17.715-11.044 15.637-.148ZM83.61 123.66l-3.575-8.816 20.883 2.879Zm0 0"/><path fill="#fef1c3" d="m33.281 284.082-26.535-8.426 44.2-13.758Zm0 0"/><path fill="#a99e6a" d="m140.555 176.41-12.72-3.12 4.27-17.231Zm0 0"/><path fill="#d7c582" d="m136.574 153.8 3.98 22.61-8.449-20.351Zm0 0"/><path fill="#feefbe" d="m75.254 233.273 2.008 18.176-13.336-9.949Zm0 0"/><path fill="#081d3b" d="m40.629 170.504 23.844 30.855-23.907 7.032ZM63.496 233.348l-9.062 1.457-13.868-26.414Zm0 0"/><path fill="#fde595" d="m54.434 234.805 9.062-1.457.43 8.152Zm0 0"/><path fill="#081d3b" d="m226.938 336.34 33.437-8.652L237.34 384Zm0 0"/><path fill="#feefbc" d="m203.43 283.57 3.75 30.926-22.434-15.297Zm0 0"/><path fill="#081d3b" d="m260.375 327.688 42.102-6.907L313.59 384Zm0 0"/><path fill="#5e5930" d="m302.477 320.781-42.102 6.906 32.082-22.359Zm0 0"/><path fill="#081d3b" d="M260.375 327.688 313.59 384h-76.25Zm0 0"/><path fill="#6e642c" d="m302.477 320.781 34.52-29.273 46.98 13.75Zm0 0"/><path fill="#0a1f3b" d="m336.996 291.508-34.52 29.273 6.376-24.71Zm0 0"/><path fill="#f8d45c" d="m335.832 280.52 1.164 10.988-28.144 4.562Zm0 0"/><path fill="#8c7d3c" d="m226.938 336.34 9.667-29.88 23.77 21.228Zm0 0"/><path fill="#0c203b" d="m236.605 306.46-9.667 29.88-19.758-21.844Zm0 0"/><path fill="#fdefc0" d="m203.43 283.57 14.64 12.395-10.89 18.531Zm0 0"/><path fill="#fef2cb" d="m236.605 306.46-18.535-10.495 7.72-14.356Zm0 0"/><path fill="#feeaa7" d="m218.07 295.965 18.535 10.496-29.425 8.035Zm0 0"/><path fill="#736d43" d="m269.691 228.813 8.043-8.641 5.254 6.691Zm0 0"/><path fill="#fcdd76" d="m277.441 239.625-7.75-10.812 13.297-1.95Zm0 0"/><path fill="#091e3b" d="m254.219 247.246 15.472-18.434 7.75 10.813Zm0 0"/><path fill="#fef1c6" d="m93.64 250.672 9.684 18.004-17.308-.504Zm0 0"/><path fill="#fef0c0" d="m108.3 250.004-4.976 18.672-9.683-18.004Zm0 0"/><path fill="#feeaa7" d="m108.3 250.004-14.66.668 13.07-9.836Zm0 0"/><path fill="#fef2c7" d="m77.262 251.45 16.379-.778-7.625 17.5Zm0 0"/><path fill="#feecaf" d="m98.074 280.504 24.762-1.012.05.488Zm0 0"/><path fill="#feeeb8" d="m122.836 279.492-24.762 1.012 5.25-11.828Zm0 0"/><path fill="#d0c086" d="m122.887 279.98-.051-.488 24.77-5.816Zm0 0"/><path fill="#405067" d="m170.293 274.316-2.742 10.942-12.57-10.442Zm0 0"/><path fill="#feefbb" d="m167.758 301.66-.207-16.402 17.195 13.941Zm0 0"/><path fill="#feefbf" d="m167.55 285.258 35.88-1.688-18.684 15.63Zm0 0"/><path fill="#2d3e54" d="m203.43 283.57-35.88 1.688 2.743-10.942Zm0 0"/><path fill="#b9a865" d="m202.883 256.242.547 27.328-28.778-26.98Zm0 0"/><path fill="#7c7a5e" d="m203.43 283.57-33.137-9.254 4.36-17.726Zm0 0"/><path fill="#fcebb4" d="m218.07 295.965-14.64-12.395 22.36-1.96Zm0 0"/><path fill="#27343f" d="m197.281 233.895-22.629 22.695 1.832-28.758Zm0 0"/><path fill="#344047" d="m197.281 233.895 5.602 22.347-28.23.348Zm0 0"/><path fill="#ecda9e" d="m174.652 256.59-4.359 17.726-15.313.5Zm0 0"/><path fill="#fae59d" d="m154.441 257.29 20.211-.7-19.672 18.226Zm0 0"/><path fill="#0a1f3b" d="m305.766 230.457 3.37-27.418 21.169 10.184Zm0 0"/><path fill="#b3ae95" d="m213.762 173.242 1.156-13.48 16.36 11.523Zm0 0"/><path fill="#081d3c" d="m207.777 124.008 8.133-16.235 3.2 20.774Zm0 0"/><path fill="#081d3b" d="m215.91 107.773 18.535 11.868-15.336 8.906Zm0 0"/><path fill="#d4c690" d="m202.059 119.977 5.718 4.03-8.355 3.84Zm0 0"/><path fill="#091e3c" d="m202.059 119.977-9.895-2.926 8.3-4.035Zm0 0"/><path fill="#091d3c" d="m215.91 107.773-13.851 12.204-1.594-6.961Zm0 0"/><path fill="#081d3c" d="m202.059 119.977 13.851-12.204-8.133 16.235Zm0 0"/><path fill="#ada271" d="m207.777 124.008 1.207 9.566-9.562-5.726Zm0 0"/><path fill="#d7c585" d="m216.512 142.164-7.528-8.59 10.125-5.027Zm0 0"/><path fill="#c1b894" d="m208.984 133.574-1.207-9.566 11.332 4.539Zm0 0"/><path fill="#0c203a" d="m300.574 79.988-44.082-34.41L306.316 0Zm0 0"/><path fill="#091d3b" d="M384 0v89.055l-39.312-25.203Zm0 0"/><path fill="#091d3b" d="m345.363 114.379-.675-50.527L384 89.055Zm0 0"/><path fill="#0a1e3c" d="m246.227 90.902-44.938-35.386 55.203-9.938Zm0 0"/><path fill="#091d3b" d="m264.16 129.484 28.504 1.23-3.82 16.356Zm0 0"/><path fill="#fce392" d="m384 246.426-.004 32.703-15.824-21.2Zm0 0"/><path fill="#091e3b" d="m328.996 154.504 25.242 22.672-35.367 8.168Zm0 0"/><path fill="#081d3b" d="m345.363 114.379 8.875 62.797-25.242-22.672Zm0 0"/><path fill="#0d203a" d="m370.453 281.426 13.543-2.297-.02 26.129Zm0 0"/><path fill="#f9e7ab" d="m383.996 279.129-13.543 2.297-2.281-23.496Zm0 0"/><path fill="#8c7c35" d="m335.832 280.52 34.621.906-33.457 10.082Zm0 0"/><path fill="#10233e" d="M201.29 55.516 163.956.004 233.852 0Zm0 0"/><path fill="#e8c756" d="m6.746 275.656 16.145 30.45-22.91-8.754Zm0 0"/><path fill="#4b4d34" d="m33.281 284.082-10.39 22.023-16.145-30.449Zm0 0"/><path fill="#081d3b" d="M0 384v-51.367l44.441 15.73ZM0 332.633l22.89-26.528 21.551 42.258Zm0 0"/><path fill="#e7cc6c" d="m69.477 323.652 11.863-21.41 13.476 28.461Zm0 0"/><path fill="#414637" d="m81.34 302.242-11.863 21.41-6.582-28.59Zm0 0"/><path fill="#feeeb7" d="m81.34 302.242 1.37-15.375 24.83 20.403ZM82.71 286.867l-1.37 15.375-18.445-7.18Zm0 0"/><path fill="#081d3b" d="m0 186.168 40.629-15.664-.063 37.887ZM58.707 132.566l-18.078 37.938-2.305-71.445Zm0 0"/><path fill="#081d3b" d="m58.707 132.566 8.563 17.18-26.641 20.758Zm0 0"/><path fill="#081d3b" d="m67.27 149.746-8.563-17.18 17.715 11.043Zm0 0"/><path fill="#fce69b" d="m90.813 136.871-14.391 6.738-2.078-11.191Zm0 0"/><path fill="#fddb6c" d="m83.61 123.66 7.203 13.211-16.47-4.453Zm0 0"/><path fill="#091e3b" d="m90.813 136.871-7.204-13.21 17.309-5.938Zm0 0"/><path fill="#fbecb9" d="m166.465 175.371-4.156 19.02-12.598-17.985Zm0 0"/><path fill="#081d3b" d="m83.207 175.66.711 8.274-43.29-13.43Zm0 0"/><path fill="#081d3b" d="m83.918 183.934-19.445 17.425-23.844-30.855Zm0 0"/><path fill="#faf7eb" d="m112.68 172.523-3.895 5.286-2.465-10.086Zm0 0"/><path fill="#fefcf4" d="m108.785 177.809-8.472-1.317 6.007-8.77Zm0 0"/><path fill="#fefefc" d="m108.785 177.809-6.156 7.851-2.317-9.168Zm0 0"/><path fill="#081d3b" d="m64.473 201.36-.977 31.988-22.93-24.957Zm0 0"/><path fill="#fde285" d="m63.496 233.348 11.758-.075-11.328 8.227Zm0 0"/><path fill="#081d3b" d="m75.254 233.273-11.758.075 16.352-20.328Zm0 0"/><path fill="#081d3b" d="m63.496 233.348.977-31.989 15.375 11.66Zm0 0"/><path fill="#feebad" d="m154.086 321.715 26.238-6.238-23.34 7.976Zm0 0"/><path fill="#ae9c53" d="m180.324 315.477 9.875 28.937-33.215-20.96Zm0 0"/><path fill="#1e2d3b" d="m190.2 344.414-9.876-28.937 20.336 11.07Zm0 0"/><path fill="#feeaa8" d="m207.18 314.496-26.856.98 4.422-16.277Zm0 0"/><path fill="#0d213b" d="m200.66 326.547-20.336-11.07 26.856-.98Zm0 0"/><path fill="#fee9a0" d="m180.324 315.477-12.566-13.817 16.988-2.46Zm0 0"/><path fill="#fee9a3" d="m180.324 315.477-26.238 6.238 13.672-20.055Zm0 0"/><path fill="#ecc543" d="m306.57 282.934 2.282 13.136-17.543 2.035Zm0 0"/><path fill="#f4d25f" d="m306.57 282.934 29.262-2.414-26.98 15.55Zm0 0"/><path fill="#2b3536" d="m336.996 291.508 33.457-10.082 13.524 23.832Zm0 0"/><path fill="#323a35" d="m260.375 327.688 7.871-27.067 24.211 4.707Zm0 0"/><path fill="#feeeb7" d="m268.246 300.621-15.867 2.48-.02-23.331Zm0 0"/><path fill="#0b1f3b" d="m236.605 306.46 15.774-3.358 7.996 24.586Zm0 0"/><path fill="#10223a" d="m260.375 327.688-7.996-24.586 15.867-2.48Zm0 0"/><path fill="#27384e" d="m225.145 271.004 14.343 8.742-13.699 1.863Zm0 0"/><path fill="#fddf7c" d="m291.844 257.512-17.457-4.059 3.054-13.828Zm0 0"/><path fill="#0c203c" d="m274.387 253.453-20.168-6.207 23.222-7.621Zm0 0"/><path fill="#f8db7b" d="m301.965 243.902-10.121 13.61-14.403-17.887Zm0 0"/><path fill="#f7d76e" d="m301.965 243.902 3.8-13.445 15.442 4.383Zm0 0"/><path fill="#a29149" d="m277.734 220.172 13.883-4.192-8.629 10.883Zm0 0"/><path fill="#081d3b" d="m222.457 219.785 26.984 11.367-17.949 20.86Zm0 0"/><path fill="#091d3b" d="m249.441 231.152-26.984-11.367 23.344-8.183Zm0 0"/><path fill="#253139" d="m197.281 233.895-20.797-6.063 11.446-25.086Zm0 0"/><path fill="#2d3b4c" d="m149.46 283.57-26.573-3.59 24.718-6.304Zm0 0"/><path fill="#3b4239" d="m190.2 344.414-35.555 7.75 2.34-28.71Zm0 0"/><path fill="#fef2ca" d="m149.46 283.57-6.097 19.121-20.476-22.71Zm0 0"/><path fill="#091e3b" d="m117.93 337.863-30.254 21.032 7.14-28.192Zm0 0"/><path fill="#ecc84e" d="m154.645 352.164-36.715-14.3 15.617-22.344Zm0 0"/><path fill="#fee697" d="m133.547 315.52-26.008-8.25 35.824-4.579Zm0 0"/><path fill="#fef1c7" d="m143.363 302.691-35.824 4.579 15.348-27.29Zm0 0"/><path fill="#fef0c2" d="m107.54 307.27-9.466-26.766 24.813-.524Zm0 0"/><path fill="#aea475" d="m122.836 279.492 1.762-29.52 20.238 5.575Zm0 0"/><path fill="#fef1c5" d="m93.64 250.672 3.903-21.016 9.168 11.18Zm0 0"/><path fill="#fddc6e" d="m97.543 229.656 15.836-1.738-6.668 12.918Zm0 0"/><path fill="#fef0be" d="m103.324 268.676-5.25 11.828-12.058-12.332Zm0 0"/><path fill="#fef3cb" d="m86.016 268.172 12.058 12.332-15.363 6.363Zm0 0"/><path fill="#fef2c9" d="m82.71 286.867 15.364-6.363 9.465 26.766Zm0 0"/><path fill="#d8c88b" d="m144.836 255.547 13.726-12.836-4.12 14.578Zm0 0"/><path fill="#a59b6c" d="m158.563 242.71 16.09 13.88-20.212.7Zm0 0"/><path fill="#efd478" d="m144.836 255.547-.988-22.879 14.714 10.043Zm0 0"/><path fill="#343d3c" d="m143.848 232.668-19.25 17.305-11.22-22.055Zm0 0"/><path fill="#3e4746" d="m124.598 249.973 19.25-17.305.988 22.879Zm0 0"/><path fill="#0f223c" d="m197.281 233.895 34.211 18.117-28.61 4.23Zm0 0"/><path fill="#605d39" d="m309.137 203.04-8.801-15.005 18.535-2.691Zm0 0"/><path fill="#0a1e3b" d="m330.305 213.223 23.933-36.047.344 45.605Zm0 0"/><path fill="#0e213b" d="m330.305 213.223-21.168-10.184 9.734-17.695Zm0 0"/><path fill="#0b1f3b" d="m354.238 177.176-23.933 36.047-11.434-27.88Zm0 0"/><path fill="#39413a" d="m306.25 171.238 22.746-16.734-10.125 30.84Zm0 0"/><path fill="#2a363c" d="m300.336 188.035 5.914-16.797 12.621 14.106Zm0 0"/><path fill="#3d443e" d="m231.277 171.285 20.383-13.558-3.023 17.668Zm0 0"/><path fill="#091d3b" d="m275.91 162.55-11.75-33.066 24.684 17.586Zm0 0"/><path fill="#b8a96c" d="m234.457 138.352-17.945 3.812 2.597-13.617Zm0 0"/><path fill="#e9dcad" d="m198.055 162.086.437-14.758 16.426 12.434Zm0 0"/><path fill="#c5b98a" d="m198.055 162.086 15.707 11.156-23.453 5.352Zm0 0"/><path fill="#a7a285" d="m213.762 173.242-15.707-11.156 16.863-2.324Zm0 0"/><path fill="#fef8e5" d="m192.164 117.05 7.258 10.798-14.188 3.757Zm0 0"/><path fill="#d2c287" d="m202.059 119.977-2.637 7.87-7.258-10.796Zm0 0"/><path fill="#fef8e4" d="m199.422 127.848-.93 19.48-13.258-15.723Zm0 0"/><path fill="#0b1f3b" d="M256.492 45.578 233.852 0h72.464Zm0 0"/><path fill="#0a1f3c" d="m136.508 48.906 64.781 6.61-33.023 37.699Zm0 0"/><path fill="#081d3c" d="m123.055 91.625 13.453-42.719 31.758 44.309Zm0 0"/><path fill="#091e3c" d="m201.29 55.516-4.517 47.59-28.507-9.891Zm0 0"/><path fill="#081d3c" d="m196.773 103.105-4.609 13.946-23.898-23.836Zm0 0"/><path fill="#081d3c" d="m192.164 117.05 4.61-13.945 3.69 9.91Zm0 0"/><path fill="#0a1e3b" d="m300.574 79.988-54.347 10.914 10.265-45.324Zm0 0"/><path fill="#0d203b" d="m368.598 242.395 15.414-28.61-.012 32.64Zm0 0"/><path fill="#0b1f3b" d="m368.598 242.395-16.153-1.239 2.137-18.375Zm0 0"/><path fill="#091e3b" d="m384.012 213.785-15.414 28.61-14.016-19.614Zm0 0"/><path fill="#fde8a3" d="m368.172 257.93.426-15.535 15.402 4.03Zm0 0"/><path fill="#fce9a9" d="m352.445 241.156 16.153 1.239-.426 15.535Zm0 0"/><path fill="#0b1f3b" d="m354.582 222.781-15.516 14.106-8.761-23.664Zm0 0"/><path fill="#fde48f" d="m339.066 236.887 13.38 4.27-17.079 16.503Zm0 0"/><path fill="#0b1f3b" d="m352.445 241.156-13.379-4.27 15.516-14.105Zm0 0"/><path fill="#0c203b" d="m339.066 236.887-17.859-2.047 9.098-21.617Zm0 0"/><path fill="#fde9a6" d="m339.066 236.887-3.699 20.773-14.16-22.82Zm0 0"/><path fill="#f4e2a4" d="m335.832 280.52 18.941-17.235 15.68 18.14Zm0 0"/><path fill="#fcedba" d="m370.453 281.426-15.68-18.14 13.399-5.356Zm0 0"/><path fill="#fce9a8" d="m354.773 263.285-2.328-22.129 15.727 16.774Zm0 0"/><path fill="#f8e298" d="m354.773 263.285-18.941 17.235-.465-22.86Zm0 0"/><path fill="#fceaab" d="m352.445 241.156 2.328 22.13-19.406-5.626Zm0 0"/><path fill="#2b363a" d="m81.34 302.242 25.367 9.278-11.89 19.183Zm0 0"/><path fill="#eccb59" d="m106.707 311.52 11.223 26.343-23.114-7.16Zm0 0"/><path fill="#6c6535" d="m117.93 337.863-11.223-26.343 26.84 4Zm0 0"/><path fill="#57563a" d="m106.707 311.52.832-4.25 26.008 8.25Zm0 0"/><path fill="#6d673c" d="m106.707 311.52-25.367-9.278 26.2 5.028Zm0 0"/><path fill="#081d3b" d="m71.512 122.453 2.832 9.965-15.637.148Zm0 0"/><path fill="#fedc6b" d="m74.344 132.418-2.832-9.965 12.097 1.207Zm0 0"/><path fill="#081d3b" d="m64.645 104.305 6.867 18.148-12.805 10.113Zm0 0"/><path fill="#fcedba" d="m71.512 122.453-6.867-18.148 15.39 10.539Zm0 0"/><path fill="#fbdf80" d="m83.61 123.66-12.098-1.207 8.523-7.61Zm0 0"/><path fill="#fef2ca" d="m176.86 123.262 8.374 8.343-9.027.094Zm0 0"/><path fill="#ccbb7a" d="m149.71 176.406-9.155.004-3.98-22.61Zm0 0"/><path fill="#fdf7e2" d="m149.71 176.406 4.56-17.785 12.195 16.75Zm0 0"/><path fill="#fefbef" d="m100.313 176.492-7.645-8.992 13.652.223Zm0 0"/><path fill="#feedb5" d="m90.813 136.871-5.032 13.074-9.36-6.336Zm0 0"/><path fill="#b2ad90" d="m127.836 173.29-4.246-2.263 8.515-14.968Zm0 0"/><path fill="#5b646a" d="m120.805 179.414 7.03-6.125 2.27 19.016Zm0 0"/><path fill="#f9f8f4" d="m120.805 179.414-12.02-1.605 3.895-5.286Zm0 0"/><path fill="#0a1f3d" d="m123.59 171.027-2.785 8.387-8.125-6.89Zm0 0"/><path fill="#cbc9b8" d="m120.805 179.414 2.785-8.387 4.246 2.262Zm0 0"/><path fill="#091e3c" d="m148.09 137.484-11.516 16.317-9.832-24.926Zm0 0"/><path fill="#091d3c" d="m136.574 153.8-4.469 2.259-5.363-27.184Zm0 0"/><path fill="#081d3b" d="m111.195 140.305-20.382-3.434 10.105-19.148Zm0 0"/><path fill="#081d3b" d="m111.195 140.305-10.277-22.582 25.824 11.152Zm0 0"/><path fill="#091d3c" d="m132.105 156.059-20.91-15.754 15.547-11.43Zm0 0"/><path fill="#fef6db" d="m97.746 191.242-6.875-8.62 11.758 3.038Zm0 0"/><path fill="#fdf5dd" d="m97.746 191.242 4.883-5.582 12.305 15.336Zm0 0"/><path fill="#081d3b" d="m190.2 344.414 36.738-8.074L237.34 384ZM187.828 384l2.371-39.586L237.34 384Zm0 0"/><path fill="#a6954d" d="m190.2 344.414 10.46-17.867 26.278 9.793Zm0 0"/><path fill="#36475f" d="m154.98 274.816-5.52 8.754-1.855-9.894Zm0 0"/><path fill="#21334d" d="m149.46 283.57 5.52-8.754 12.57 10.442Zm0 0"/><path fill="#2b3840" d="m335.832 280.52-29.262 2.414 2.59-10.258Zm0 0"/><path fill="#fef4d0" d="m240.746 288.777 11.633 14.325-15.774 3.359Zm0 0"/><path fill="#fef3ce" d="m240.746 288.777-4.14 17.684-10.817-24.852Zm0 0"/><path fill="#fdeebd" d="m239.488 279.746 1.258 9.031-14.957-7.168Zm0 0"/><path fill="#fef2ca" d="m240.746 288.777-1.258-9.03 12.871.023Zm0 0"/><path fill="#fef4d1" d="m252.379 303.102-11.633-14.325 11.613-9.007Zm0 0"/><path fill="#fef1c4" d="m271.7 286.285-3.454 14.336-15.887-20.851Zm0 0"/><path fill="#1b2e49" d="m203.43 283.57 21.715-12.566.644 10.605Zm0 0"/><path fill="#73735c" d="M225.145 271.004 203.43 283.57l-.547-27.328Zm0 0"/><path fill="#62634d" d="m225.145 271.004-22.262-14.762 28.61-4.23Zm0 0"/><path fill="#fce59b" d="m309.16 272.676-7.195-28.774 19.242-9.062Zm0 0"/><path fill="#0a1e3b" d="m309.16 272.676-2.59 10.258-11.605-5.754Zm0 0"/><path fill="#f8e08f" d="m291.844 257.512 17.316 15.164-14.195 4.504Zm0 0"/><path fill="#fde182" d="m301.965 243.902 7.195 28.774-17.316-15.164Zm0 0"/><path fill="#fee288" d="m282.988 226.863 18.977 17.04-24.524-4.278Zm0 0"/><path fill="#fedc6b" d="m301.965 243.902-18.977-17.039 22.778 3.594Zm0 0"/><path fill="#3c4235" d="m278.793 207.004 12.824 8.976-13.883 4.192Zm0 0"/><path fill="#353e3a" d="m254.91 184.664 10.766-3.988.972 12.715Zm0 0"/><path fill="#dfc97a" d="m256.07 195.93-1.16-11.266 11.738 8.727Zm0 0"/><path fill="#e3cc7a" d="m254.91 184.664 1.16 11.266-7.406-1.364Zm0 0"/><path fill="#0c203c" d="m265.676 180.676 9.46 7.828-8.488 4.887Zm0 0"/><path fill="#0a1e3c" d="m249.441 231.152 20.25-2.34-15.472 18.434Zm0 0"/><path fill="#091d3b" d="m249.441 231.152 4.778 16.094-22.727 4.766Zm0 0"/><path fill="#0c203b" d="m197.281 233.895 25.176-14.11 9.035 32.227Zm0 0"/><path fill="#0d203b" d="m187.93 202.746 34.527 17.04-25.176 14.109Zm0 0"/><path fill="#f3da88" d="m154.645 352.164-.56-30.45 2.9 1.74Zm0 0"/><path fill="#c7b46d" d="m154.086 321.715.559 30.45-21.098-36.645Zm0 0"/><path fill="#feeba9" d="m154.086 321.715-20.54-6.195 9.817-12.829Zm0 0"/><path fill="#081d3b" d="m117.93 337.863 36.715 14.301-66.97 6.73Zm0 0"/><path fill="#0a1e3b" d="m161.535 384-6.89-31.836 35.554-7.75Zm0 0"/><path fill="#081d3b" d="m87.676 358.895 66.969-6.73 6.89 31.835Zm0 0"/><path fill="#3f4846" d="m103.324 268.676 21.274-18.703-1.762 29.52Zm0 0"/><path fill="#7a7654" d="m124.598 249.973-21.274 18.703 4.977-18.672Zm0 0"/><path fill="#2c383e" d="m113.379 227.918.113 14.832-6.781-1.914Zm0 0"/><path fill="#1a2a3d" d="m124.598 249.973-11.106-7.223-.113-14.832Zm0 0"/><path fill="#6b6844" d="m113.492 242.75-5.191 7.254-1.59-9.168Zm0 0"/><path fill="#968a50" d="m113.492 242.75 11.106 7.223-16.297.03Zm0 0"/><path fill="#fef1c4" d="m85.969 240.625 11.574-10.969-3.902 21.016Zm0 0"/><path fill="#fef2cb" d="m75.254 233.273 10.715 7.352-8.707 10.824Zm0 0"/><path fill="#fee9a5" d="m85.969 240.625 7.672 10.047-16.38.777Zm0 0"/><path fill="#081d3b" d="m96.98 201.723.266 17.164-17.398-5.867Zm0 0"/><path fill="#091d3b" d="m111.957 211.3-14.71 7.587-.267-17.164Zm0 0"/><path fill="#081d3b" d="m97.543 229.656-.297-10.77 16.133 9.032Zm0 0"/><path fill="#081d3b" d="m113.379 227.918-16.133-9.031 14.711-7.586Zm0 0"/><path fill="#d3c38b" d="m144.836 255.547 2.77 18.129-24.77 5.816Zm0 0"/><path fill="#fae59e" d="m147.605 273.676-2.77-18.13 9.606 1.743Zm0 0"/><path fill="#f9e399" d="m154.98 274.816-7.375-1.14 6.836-16.387Zm0 0"/><path fill="#65644b" d="m176.484 227.832-1.832 28.758-16.09-13.88Zm0 0"/><path fill="#6a653d" d="m97.746 191.242 17.188 9.754-17.954.727Zm0 0"/><path fill="#d1aa24" d="m114.934 200.996-2.977 10.305-14.977-9.578Zm0 0"/><path fill="#323c3e" d="m306.25 171.238 10.168-21.05 12.578 4.316Zm0 0"/><path fill="#373f39" d="m251.66 157.727 7.504 15.484-10.527 2.184Zm0 0"/><path fill="#081d3b" d="m275.91 162.55-16.746 10.66-7.504-15.483Zm0 0"/><path fill="#091d3b" d="m264.16 129.484 11.75 33.067-24.25-4.824Zm0 0"/><path fill="#d8c57e" d="m208.984 133.574-10.492 13.754.93-19.48Zm0 0"/><path fill="#fef2c9" d="m185.234 131.605-7.34 11.583-1.687-11.489Zm0 0"/><path fill="#0b1f3b" d="m256.492 45.578-55.203 9.938L233.852 0Zm0 0"/><path fill="#081d3c" d="m196.773 103.105 19.137 4.668-15.445 5.243Zm0 0"/><path fill="#081d3b" d="m234.445 119.64-18.535-11.867 30.317-16.87Zm0 0"/><path fill="#091d3c" d="m215.91 107.773-14.62-52.257 44.937 35.386Zm0 0"/><path fill="#091e3c" d="m201.29 55.516 14.62 52.257-19.137-4.668Zm0 0"/><path fill="#091e3b" d="m264.16 129.484 36.414-49.496-7.91 50.727Zm0 0"/><path fill="#0a1e3b" d="m300.574 79.988 24.082 44.067-31.992 6.66Zm0 0"/><path fill="#091e3b" d="m300.574 79.988 44.113-16.136.676 50.527ZM324.645 124.059l-15.567 21.425-16.414-14.77Zm0 0"/><path fill="#172739" d="m324.656 124.055-.011.004-31.98 6.656Zm0 0"/><path fill="#0a1f3c" d="m163.957.004 37.332 55.512-64.781-6.61Zm0 0"/><path fill="#faebbb" d="m162.852 130.047 14.007-6.785-.652 8.437Zm0 0"/><path fill="#fef5d7" d="m177.895 143.188-15.043-13.141 13.355 1.652Zm0 0"/><path fill="#fceebf" d="m177.895 143.188-4.704 9.41-12.754-7.942Zm0 0"/><path fill="#fef6db" d="m160.438 144.656 10.074 16.239-16.242-2.274Zm0 0"/><path fill="#fef5d7" d="m173.191 152.598-2.68 8.297-10.073-16.239Zm0 0"/><path fill="#f0db93" d="m92.668 167.5 9.684-7.512 3.968 7.735Zm0 0"/><path fill="#feefbb" d="m102.352 159.988-9.684 7.512-1.36-9.723Zm0 0"/><path fill="#fdecb6" d="m77.945 160.285 7.836-10.34 5.528 7.832Zm0 0"/><path fill="#fde28b" d="m77.945 160.285 14.723 7.215-9.461 8.16Zm0 0"/><path fill="#feeaa8" d="m92.668 167.5-14.723-7.215 13.364-2.508Zm0 0"/><path fill="#081d3b" d="m77.945 160.285 5.262 15.375-42.578-5.156Zm0 0"/><path fill="#081d3b" d="m67.27 149.746 10.675 10.54-37.316 10.218Zm0 0"/><path fill="#091d3b" d="M77.945 160.285 67.27 149.746l9.152-6.137Zm0 0"/><path fill="#f5dd8c" d="m85.781 149.945-7.836 10.34-1.523-16.676Zm0 0"/><path fill="#16273c" d="m114.934 200.996 1.289-13.21 13.882 4.519Zm0 0"/><path fill="#424d54" d="m116.223 187.785 4.582-8.37 9.3 12.89Zm0 0"/><path fill="#fefefb" d="m120.805 179.414-4.582 8.371-7.438-9.976Zm0 0"/><path fill="#fefefd" d="m116.223 187.785-13.594-2.125 6.156-7.851Zm0 0"/><path fill="#fefaeb" d="m102.629 185.66 13.594 2.125-1.29 13.211Zm0 0"/><path fill="#f6e19a" d="m160.438 144.656-6.168 13.965-6.18-21.137Zm0 0"/><path fill="#ead99d" d="m154.27 158.621-17.696-4.82 11.516-16.317Zm0 0"/><path fill="#e9d283" d="m154.27 158.621-4.56 17.785-13.136-22.605Zm0 0"/><path fill="#f0dd9c" d="m85.781 149.945 11.422.504-5.894 7.328Zm0 0"/><path fill="#e1cb7f" d="m97.203 150.45 5.149 9.538-11.043-2.21Zm0 0"/><path fill="#f3dc8f" d="m97.203 150.45-11.422-.505 5.031-13.074Zm0 0"/><path fill="#081d3b" d="m111.195 140.305-13.992 10.144-6.39-13.578Zm0 0"/><path fill="#f3e6b9" d="m90.871 182.621-6.953 1.313-.711-8.274Zm0 0"/><path fill="#fef5d6" d="m92.668 167.5-1.797 15.121-7.664-6.96Zm0 0"/><path fill="#fef0c3" d="m90.871 182.621 1.797-15.121 7.644 8.992Zm0 0"/><path fill="#fefdf6" d="m102.629 185.66-11.758-3.039 9.442-6.129Zm0 0"/><path fill="#6f6839" d="m88.102 191.336 9.644-.094-.766 10.48Zm0 0"/><path fill="#8e8555" d="m88.102 191.336 2.77-8.715 6.874 8.621Zm0 0"/><path fill="#d3c591" d="m90.871 182.621-2.77 8.715-4.183-7.402Zm0 0"/><path fill="#091d3b" d="m88.102 191.336 8.878 10.387-17.132 11.297Zm0 0"/><path fill="#081d3b" d="m64.473 201.36 23.629-10.024-8.254 21.684Zm0 0"/><path fill="#091d3b" d="m83.918 183.934 4.184 7.402-23.63 10.023Zm0 0"/><path fill="#fee696" d="m281.441 277.773 13.524-.593-3.656 20.925Zm0 0"/><path fill="#fee9a0" d="m294.965 277.18 11.605 5.754-15.261 15.171Zm0 0"/><path fill="#fde185" d="m291.844 257.512-11.102 10.3-6.355-14.359Zm0 0"/><path fill="#eed16f" d="m280.742 267.813 11.102-10.301 3.12 19.668Zm0 0"/><path fill="#18293e" d="m280.742 267.813 14.223 9.367-13.524.593Zm0 0"/><path fill="#203148" d="m239.488 279.746 3.668-11.226 9.203 11.25Zm0 0"/><path fill="#253445" d="m225.145 271.004 18.011-2.484-3.668 11.226Zm0 0"/><path fill="#7a7758" d="m243.156 268.52-18.011 2.484 6.347-18.992Zm0 0"/><path fill="#444b45" d="m254.219 247.246-11.063 21.274-11.664-16.508Zm0 0"/><path fill="#0d213c" d="m265.344 273.09-11.125-25.844 20.168 6.207Zm0 0"/><path fill="#0a1f3c" d="m280.742 267.813-15.398 5.277 9.043-19.637Zm0 0"/><path fill="#f7edca" d="m265.344 273.09 16.097 4.683-9.742 8.512Zm0 0"/><path fill="#5f635b" d="m265.344 273.09 15.398-5.277.7 9.96Zm0 0"/><path fill="#fee38b" d="m300.336 188.035-6.953 13.203-1.684-13.199Zm0 0"/><path fill="#404537" d="m309.137 203.04-15.754-1.802 6.953-13.203Zm0 0"/><path fill="#b0952e" d="m293.383 201.238 15.754 1.801-17.52 12.941Zm0 0"/><path fill="#253239" d="m278.793 207.004 14.59-5.766-1.766 14.742Zm0 0"/><path fill="#0a1e3b" d="m293.586 218.07 15.55-15.03-3.37 27.417Zm0 0"/><path fill="#0b1f3b" d="m282.988 226.863 10.598-8.793 12.18 12.387Zm0 0"/><path fill="#e2bc38" d="m309.137 203.04-15.551 15.03-1.969-2.09Zm0 0"/><path fill="#12243b" d="m291.617 215.98 1.969 2.09-10.598 8.793Zm0 0"/><path fill="#f4e1a0" d="m256.07 195.93-4.328 5.414-3.078-6.778Zm0 0"/><path fill="#ebdaa0" d="m251.742 201.344-7.133-1.918 4.055-4.86Zm0 0"/><path fill="#e5d18a" d="m251.742 201.344-5.941 10.258-1.192-12.176Zm0 0"/><path fill="#fef2cd" d="m251.742 201.344 9.832 2.55-15.773 7.708Zm0 0"/><path fill="#fef8e4" d="m261.574 203.895-9.832-2.551 4.328-5.414Zm0 0"/><path fill="#fefaed" d="m261.574 203.895-5.504-7.965 10.578-2.54Zm0 0"/><path fill="#13253c" d="m239.348 189.73 15.562-5.066-6.246 9.902Zm0 0"/><path fill="#16273b" d="m239.348 189.73-8.07-18.445 17.359 4.11Zm0 0"/><path fill="#14253b" d="m254.91 184.664-15.562 5.066 9.289-14.335Zm0 0"/><path fill="#fee694" d="m293.383 201.238-10.621-6.55 8.937-6.649Zm0 0"/><path fill="#e8cd6e" d="m282.762 194.688 10.62 6.55-14.589 5.766Zm0 0"/><path fill="#323e44" d="m249.441 231.152 14.118-14.476 6.132 12.137Zm0 0"/><path fill="#3a4344" d="m269.691 228.813-6.132-12.137 14.175 3.496Zm0 0"/><path fill="#fadc75" d="m261.574 203.895 1.985 12.78-17.758-5.073Zm0 0"/><path fill="#b2a15b" d="m263.559 216.676-14.118 14.476-3.64-19.55Zm0 0"/><path fill="#0d213b" d="m234.055 202.934 10.554-3.508 1.192 12.176Zm0 0"/><path fill="#feecae" d="m154.086 321.715-10.723-19.024 24.395-1.03Zm0 0"/><path fill="#fef3cc" d="m143.363 302.691 24.188-17.433.207 16.402Zm0 0"/><path fill="#fef1c7" d="m143.363 302.691 6.098-19.12 18.09 1.687Zm0 0"/><path fill="#0b1f3b" d="m86.973 229.828-11.72 3.445 4.595-20.253Zm0 0"/><path fill="#fedf76" d="m86.973 229.828-1.004 10.797-10.715-7.352Zm0 0"/><path fill="#fedb6a" d="m85.969 240.625 1.004-10.797 10.57-.172Zm0 0"/><path fill="#0c1f3b" d="m97.246 218.887-10.273 10.941-7.125-16.808Zm0 0"/><path fill="#0a1e3b" d="m86.973 229.828 10.273-10.941.297 10.77Zm0 0"/><path fill="#a39145" d="m157.3 223.809 19.184 4.023-17.922 14.879Zm0 0"/><path fill="#e0cf90" d="m176.484 227.832-19.183-4.023 5.008-29.418Zm0 0"/><path fill="#424532" d="m133.34 208.137-18.406-7.14 15.171-8.692Zm0 0"/><path fill="#feedb7" d="m143.52 217.406 2.394-20.89 16.395-2.125Zm0 0"/><path fill="#686235" d="m145.914 196.516-12.574 11.62-3.235-15.831Zm0 0"/><path fill="#333c3b" d="m316.418 150.188 8.227-26.13 4.351 30.446Zm0 0"/><path fill="#feebad" d="m324.645 124.059-8.227 26.129-7.34-4.704Zm0 0"/><path fill="#fee697" d="m282.762 194.688 3.3-12.31 5.637 5.661Zm0 0"/><path fill="#fefcf5" d="m286.063 182.379-3.301 12.309-7.625-6.184Zm0 0"/><path fill="#fee696" d="m286.063 182.379 8-1.008-2.364 6.668Zm0 0"/><path fill="#fee591" d="m291.7 188.04 2.363-6.669 6.273 6.664Zm0 0"/><path fill="#f8db7b" d="m294.063 181.371 12.187-10.133-5.914 16.797Zm0 0"/><path fill="#fee07d" d="m294.063 181.371.039-9.648 12.148-.485Zm0 0"/><path fill="#0a1e3b" d="m309.078 145.484-20.234 1.586 3.82-16.355Zm0 0"/><path fill="#091e3b" d="m286.063 182.379-20.387-1.703 10.234-18.125Zm0 0"/><path fill="#0c203b" d="m265.676 180.676 20.387 1.703-10.926 6.125Zm0 0"/><path fill="#081d3b" d="m234.445 119.64.012 18.712-15.348-9.805Zm0 0"/><path fill="#8a8359" d="m234.457 138.352 5.258 8.238-23.203-4.426Zm0 0"/><path fill="#696b5a" d="m214.918 159.762 24.797-13.172-8.438 24.695Zm0 0"/><path fill="#5d5d46" d="m239.715 146.59 11.945 11.137-20.383 13.558Zm0 0"/><path fill="#9f976f" d="m216.512 142.164 23.203 4.426-24.797 13.172Zm0 0"/><path fill="#d3c387" d="m216.512 142.164-18.02 5.164 10.492-13.754Zm0 0"/><path fill="#9c9676" d="m216.512 142.164-1.594 17.598-16.426-12.434Zm0 0"/><path fill="#fefcf3" d="m198.492 147.328-20.597-4.14 7.34-11.583Zm0 0"/><path fill="#091d3b" d="m300.574 79.988-36.414 49.496-17.933-38.582Zm0 0"/><path fill="#081d3c" d="m264.16 129.484-29.715-9.843 11.782-28.739Zm0 0"/><path fill="#081d3b" d="m264.16 129.484-29.703 8.868-.012-18.711Zm0 0"/><path fill="#0f213a" d="m324.656 124.055-24.082-44.067 44.79 34.39Zm0 0"/><path fill="#f9e5a3" d="m162.309 194.39-16.395 2.126 3.797-20.11Zm0 0"/><path fill="#091d3c" d="m162.852 130.047-11.153-14.785 25.16 8Zm0 0"/><path fill="#081d3c" d="m168.266 93.215-16.567 22.047-28.644-23.637ZM176.86 123.262l-25.16-8 16.566-22.047Zm0 0"/><path fill="#fcf6e2" d="m154.27 158.621 16.242 2.274-4.047 14.476Zm0 0"/><path fill="#fefaed" d="m190.309 178.594-28 15.797 4.156-19.02Zm0 0"/><path fill="#fefdfa" d="m170.512 160.895 19.797 17.699-23.844-3.223Zm0 0"/><path fill="#edd687" d="m162.309 194.39 28-15.796-2.38 24.152Zm0 0"/><path fill="#fefefb" d="m173.191 152.598 9.77 4.543-12.45 3.754Zm0 0"/><path fill="#fefcf5" d="m177.895 143.188 5.066 13.953-9.77-4.543Zm0 0"/><path fill="#081d3b" d="m113.633 158.434 9.957 12.593-10.91 1.496Zm0 0"/><path fill="#091e3b" d="m113.633 158.434-.953 14.09-6.36-4.801Zm0 0"/><path fill="#0a1e3b" d="m102.352 159.988 11.28-1.554-7.312 9.289Zm0 0"/><path fill="#091e3b" d="m113.633 158.434 18.472-2.375-8.515 14.968Zm0 0"/><path fill="#feeaa6" d="m281.441 277.773 9.868 20.332-19.61-11.82Zm0 0"/><path fill="#fee9a1" d="m271.7 286.285 19.609 11.82-23.063 2.516Zm0 0"/><path fill="#081d3b" d="m268.246 300.621 23.063-2.516 1.148 7.223Zm0 0"/><path fill="#faf0d0" d="m265.344 273.09 6.355 13.195-19.34-6.515Zm0 0"/><path fill="#0e223f" d="m243.156 268.52 22.188 4.57-12.985 6.68Zm0 0"/><path fill="#10233d" d="m265.344 273.09-22.188-4.57 11.063-21.274Zm0 0"/><path fill="#1f2e3e" d="m244.61 199.426-5.262-9.696 9.316 4.836Zm0 0"/><path fill="#fefcf2" d="m275.137 188.504-1.09 9.535-7.399-4.648Zm0 0"/><path fill="#fefdf6" d="m282.762 194.688-8.715 3.351 1.09-9.535Zm0 0"/><path fill="#f8d972" d="m274.047 198.04 8.715-3.352-3.969 12.316Zm0 0"/><path fill="#fefdf8" d="m274.047 198.04-12.473 5.855 5.074-10.504Zm0 0"/><path fill="#15263a" d="m263.559 216.676 15.234-9.672-1.059 13.168Zm0 0"/><path fill="#cfb556" d="m278.793 207.004-15.234 9.672-1.985-12.781Zm0 0"/><path fill="#fbe69e" d="m274.047 198.04 4.746 8.964-17.219-3.11Zm0 0"/><path fill="#0c203b" d="m222.457 219.785 11.598-16.851 11.746 8.668Zm0 0"/><path fill="#0c1f3b" d="m217.871 195.457 16.184 7.477-11.598 16.851Zm0 0"/><path fill="#938e6a" d="m213.762 173.242 4.11 22.215-27.563-16.863Zm0 0"/><path fill="#474f4c" d="m190.309 178.594 27.562 16.863-29.941 7.29Zm0 0"/><path fill="#19293a" d="m217.871 195.457 4.586 24.328-34.527-17.039Zm0 0"/><path fill="#ad9742" d="m157.3 223.809-13.78-6.403 18.789-23.015Zm0 0"/><path fill="#1c2a38" d="m114.934 200.996 18.406 7.14-21.383 3.165Zm0 0"/><path fill="#2d3634" d="m133.34 208.137-19.961 19.781-1.422-16.617Zm0 0"/><path fill="#b6a04a" d="m143.52 217.406-10.18-9.27 12.574-11.62Zm0 0"/><path fill="#243036" d="m113.379 227.918 19.96-19.781 10.18 9.27Zm0 0"/><path fill="#fde289" d="m298.105 161.855 18.313-11.667-10.168 21.05Zm0 0"/><path fill="#f9dd80" d="m294.102 171.723 4.003-9.868 8.145 9.383Zm0 0"/><path fill="#fde595" d="m316.418 150.188-18.313 11.667 10.973-16.37Zm0 0"/><path fill="#081d3b" d="m298.105 161.855-9.261-14.785 20.234-1.586Zm0 0"/><path fill="#091d3b" d="m275.91 162.55 22.195-.695-4.003 9.868Zm0 0"/><path fill="#081d3b" d="m298.105 161.855-22.195.696 12.934-15.48ZM239.715 146.59l-5.258-8.238 29.703-8.868ZM239.715 146.59l24.445-17.106-12.5 28.243Zm0 0"/><path fill="#091d3b" d="m324.656 124.055 20.707-9.676-16.367 40.125Zm0 0"/><path fill="#0b1f3b" d="m324.645 124.059.011-.004 4.34 30.449Zm0 0"/><path fill="#c8b364" d="m140.555 176.41 5.36 20.106-15.81-4.211Zm0 0"/><path fill="#8d8d7b" d="m140.555 176.41-10.45 15.895-2.27-19.016Zm0 0"/><path fill="#fce8a5" d="m145.914 196.516-5.36-20.106 9.157-.004Zm0 0"/><path fill="#081d3c" d="m151.7 115.262-3.61 22.222-21.348-8.609Zm0 0"/><path fill="#081d3b" d="m123.055 91.625 28.644 23.637-24.957 13.613Zm0 0"/><path fill="#fefbf0" d="m190.309 178.594-7.348-21.453 15.094 4.945Zm0 0"/><path fill="#fefcf7" d="m182.96 157.14 7.349 21.454-19.797-17.7Zm0 0"/><path fill="#081d3b" d="m113.633 158.434-2.438-18.13 20.91 15.755ZM113.633 158.434l-16.43-7.985 13.992-10.144Zm0 0"/><path fill="#081d3b" d="m97.203 150.45 16.43 7.984-11.281 1.554Zm0 0"/><path fill="#ceb354" d="m143.848 232.668 13.453-8.86 1.262 18.903Zm0 0"/><path fill="#d4b750" d="m143.848 232.668-.328-15.262 13.78 6.403Zm0 0"/><path fill="#202e39" d="m113.379 227.918 30.14-10.512.329 15.262Zm0 0"/><path fill="#091d3b" d="m289.828 177.906-13.918-15.355 18.192 9.172Zm0 0"/><path fill="#fddc6f" d="m289.828 177.906 4.235 3.465-8 1.008Zm0 0"/><path fill="#fee38b" d="m294.063 181.371-4.235-3.465 4.274-6.183Zm0 0"/><path fill="#0a1e3b" d="m289.828 177.906-3.765 4.473-10.153-19.828Zm0 0"/><path fill="#3d443b" d="m254.91 184.664 4.254-11.453 6.512 7.465Zm0 0"/><path fill="#0a1e3b" d="m259.164 173.21 16.746-10.66-10.234 18.126Zm0 0"/><path fill="#3f453c" d="m259.164 173.21-4.254 11.454-6.273-9.27Zm0 0"/><path fill="#081d3c" d="m151.7 115.262 11.152 14.785-14.762 7.437Zm0 0"/><path fill="#f5e3a4" d="m148.09 137.484 14.762-7.437-2.415 14.61Zm0 0"/><path fill="#fef6d8" d="m162.852 130.047 15.043 13.14-17.458 1.47Zm0 0"/><path fill="#fefaee" d="m182.96 157.14 15.532-9.812-.437 14.758Zm0 0"/><path fill="#fef8e4" d="m177.895 143.188 20.597 4.14-15.531 9.813Zm0 0"/><path fill="#535a54" d="m217.871 195.457-4.11-22.215 17.516-1.957Zm0 0"/><path fill="#374248" d="m239.348 189.73-21.477 5.727 13.406-24.172Zm0 0"/><path fill="#0a1f3b" d="m234.055 202.934-16.184-7.477 21.477-5.727Zm0 0"/><path fill="#0d203b" d="m234.055 202.934 5.293-13.204 5.261 9.696Zm0 0"/></svg>