<svg xmlns="http://www.w3.org/2000/svg" width="512" height="512" viewBox="0 0 384 384"><path fill="#4a2e2b" d="M174.723 0h21.968l-12.246 18.602Zm0 0"/><path fill="#4a2d2c" d="M0 0h80.621L60.523 55.957Zm0 0"/><path fill="#4a2d2c" d="M0 110.906V0l60.523 55.957Zm0 0"/><path fill="#f6c5b4" d="m-.098 272.313.215-39.391-.058 11.035Zm0 0"/><path fill="#4a2d2c" d="M37.293 161.914 0 110.906l41.484 6.856ZM0 310.242l-.098-37.93 18.856 20.551ZM292.031 297.836l14.317 20.789-24.524-10.203ZM384 327.074 323.273 384l25.739-68.05ZM136.54 28.406 60.522 55.957 80.621 0Zm0 0"/><path fill="#492d2c" d="m60.523 55.957 76.016-27.55-3.906 36.652Zm0 0"/><path fill="#4a2d2c" d="M70.352 384H0l39.125-58.863ZM60.523 55.957l36.5 38.773-20.515 4.665Zm0 0"/><path fill="#4a2d2c" d="m97.023 94.73-36.5-38.773 72.11 9.102ZM103.063 118.012l36.613-21.274-13.25 33.985Zm0 0"/><path fill="#4a2d2c" d="m103.063 118.012-6.04-23.282 42.653 2.008ZM0 181.035l37.293-19.12-2.36 43.823ZM37.293 161.914 0 181.035v-70.129Zm0 0"/><path fill="#4a2d2b" d="M97.023 94.73 79.691 113.63l-3.183-14.234Zm0 0"/><path fill="#4a2d2b" d="M79.691 113.629 97.023 94.73l6.04 23.282Zm0 0"/><path fill="#f6c5b4" d="m73.43 253.926-31.907 11.14 4.657-29.945Zm0 0"/><path fill="#f6c5b4" d="m41.523 265.066-20.535-8.324 25.192-21.62Zm0 0"/><path fill="#4a2d2c" d="m0 181.035 34.934 24.703L.117 232.922Zm0 0"/><path fill="#f6c5b4" d="m20.988 256.742-9.066-17.148 34.258-4.473Zm0 0"/><path fill="#f6c5b4" d="m11.922 239.594 9.066 17.148-20.93-12.785Zm0 0"/><path fill="#4a2d2c" d="m.117 232.922 11.805 6.672-11.863 4.363Zm0 0"/><path fill="#f6c5b4" d="m10.922 263.703-11.02 8.61.157-28.356Zm0 0"/><path fill="#f6c5b4" d="m20.988 256.742-10.066 6.961L.059 243.957ZM20.984 279.824l-10.062-16.12 10.066-6.962Zm0 0"/><path fill="#4a2d2c" d="m-.098 272.313 21.082 7.511-2.226 13.04Zm0 0"/><path fill="#f6c5b4" d="m10.922 263.703 10.062 16.121-21.082-7.512Zm0 0"/><path fill="#4a2d2c" d="M113.152 347.93 141.617 384H70.352Zm0 0"/><path fill="#f6c5b4" d="m305 293.664-12.969 4.172-.812-17.703Zm0 0"/><path fill="#492d2c" d="m305 293.664 1.348 24.961-14.317-20.79Zm0 0"/><path fill="#4a2d2c" d="m323.273 384-16.925-65.375 42.664-2.676ZM213.121 309.98l18.086-.671-11.89 27.093Zm0 0"/><path fill="#f6c5b4" d="m71.57 279.898-1.21 16.477-32.825-11.781Zm0 0"/><path fill="#f6c5b4" d="m71.57 279.898 15.25 19.48-16.46-3.003Zm0 0"/><path fill="#f6c5b4" d="m86.82 299.379-15.25-19.48 16.477-4.31ZM41.523 265.066l30.047 14.832-34.035 4.696Zm0 0"/><path fill="#f6c5b4" d="m71.57 279.898 1.86-25.972 14.617 21.664Zm0 0"/><path fill="#f6c5b4" d="m71.57 279.898-30.047-14.832 31.907-11.14ZM88.047 275.59 73.43 253.926l19.957 1.66Zm0 0"/><path fill="#4a2e2c" d="m110.598 228.395-.446-11.868 12.215 10.055Zm0 0"/><path fill="#4a4c39" d="m185.102 217.453-5.57-1.305 25.034-20.195Zm0 0"/><path fill="#4a2d2c" d="m384 104.07-30.684 80.035-11.96-68.78ZM257.715 51.863 297.8 0l35.262 68.309Zm0 0"/><path fill="#4a2d2b" d="m297.8 0-40.085 51.863L233.707 0Zm0 0"/><path fill="#4a2d2c" d="m384 0-50.937 68.309L297.8 0Zm0 0"/><path fill="#f6c5b4" d="m314.059 233.191 24.359 25.598-35.262-6.086Zm0 0"/><path fill="#4a2d2c" d="m353.316 184.105-32.39-8.593 20.43-60.188ZM349.012 315.95l19.258-32.813L384 327.074ZM384 327.074V384h-60.727Zm0 0"/><path fill="#4a2e2b" d="m174.723 0-9.696 15.918L152.852 0Zm0 0"/><path fill="#4a2d2c" d="M80.621 0h51.817l4.101 28.406ZM70.36 296.375l-31.235 28.762-1.59-40.543Zm0 0"/><path fill="#4a2d2c" d="m76.27 331.316-37.145-6.18 31.234-28.761ZM76.27 331.316l36.882 16.614-42.8 36.07Zm0 0"/><path fill="#4a2d2c" d="M76.27 331.316 70.352 384l-31.227-58.863ZM193.227 115.91l-12.618 5.465-3.812-24.395Zm0 0"/><path fill="#f6c5b4" d="m180.61 121.375 12.617-5.465-2.84 13.11Zm0 0"/><path fill="#4a2d2b" d="M139.676 96.738 97.023 94.73l35.61-29.671Zm0 0"/><path fill="#4a2d2c" d="m60.523 55.957-19.039 61.805L0 110.906ZM79.691 113.629l-14.336-8.563 11.153-5.671Zm0 0"/><path fill="#492d2c" d="m41.484 117.762 23.871-12.696-1.171 18.414Zm0 0"/><path fill="#4a2d2c" d="m65.355 105.066-4.832-49.109 15.985 43.438ZM65.355 105.066l-23.87 12.696 19.038-61.805Zm0 0"/><path fill="#4a2d2b" d="m84.965 125.055-5.274-11.426 23.371 4.383Zm0 0"/><path fill="#f6c5b4" d="m20.984 279.824 20.54-14.758-3.989 19.528ZM41.523 265.066l-20.539 14.758.004-23.082Zm0 0"/><path fill="#4a3c32" d="m141.465 164.488-7.317 23.344-11.105-19.383Zm0 0"/><path fill="#f6c5b4" d="m80.93 230.809-7.5 23.117-27.25-18.805Zm0 0"/><path fill="#4a2d2c" d="m37.293 161.914 31.309 28.703-33.668 15.121ZM34.934 205.738l-23.012 33.856-11.805-6.672Zm0 0"/><path fill="#4a2d2c" d="m11.922 239.594 23.012-33.856 11.246 29.383ZM229.21 384h-87.593l16.715-28.16Zm0 0"/><path fill="#f6c5b4" d="m208.227 283.973 4.894 26.007-14.203-11Zm0 0"/><path fill="#4a2d2c" d="M323.273 384h-94.062l35.523-48.184Zm0 0"/><path fill="#4a2d2c" d="m323.273 384-58.539-48.184 41.614-17.191Zm0 0"/><path fill="#f6c5b4" d="m308.242 277.39 30.176-18.6.918 16.835Zm0 0"/><path fill="#f6c5b4" d="m338.418 258.79-30.176 18.6-5.086-24.687Zm0 0"/><path fill="#492d2c" d="m306.348 318.625 31.672-29.496 10.992 26.82Zm0 0"/><path fill="#4a2d2c" d="m338.02 289.129-31.672 29.496-1.348-24.96ZM338.02 289.129l-29.778-11.738 31.094-1.766Zm0 0"/><path fill="#f6c5b4" d="m308.242 277.39 29.778 11.739-33.02 4.535Zm0 0"/><path fill="#4a2d2c" d="m231.207 309.309 7.895 3.363-19.786 23.73Zm0 0"/><path fill="#4a2d2c" d="m236.605 304.285 2.497 8.387-7.895-3.363Zm0 0"/><path fill="#f6c5b4" d="m224.707 298.29 6.5 11.019-18.086.671ZM208.227 283.973l16.48 14.316-11.586 11.691ZM236.605 304.285l-11.898-5.996 7.238-17.969Zm0 0"/><path fill="#f6c5b4" d="m224.707 298.29 11.898 5.995-5.398 5.024Zm0 0"/><path fill="#4a320f" d="m268.102 228.883 6.496-17.414 8.804 13.445Zm0 0"/><path fill="#f6c5b4" d="m276.031 239.496-7.93-10.613 15.301-3.969Zm0 0"/><path fill="#4a3000" d="m261.527 246.75 6.575-17.867 7.93 10.613Zm0 0"/><path fill="#f6c5b4" d="M111.617 275.18 130 280.164l-11.84 7.219ZM130 280.164l-5.348 15.734-6.492-8.515ZM105.52 265.332 88.047 275.59l5.34-20.004Zm0 0"/><path fill="#f6c5b4" d="m105.52 265.332-12.133-9.746 13.254-10.75ZM111.617 275.18l-23.57.41 17.473-10.258Zm0 0"/><path fill="#4a2f1c" d="m121.371 254.176-9.754 21.004-6.097-9.848Zm0 0"/><path fill="#4a4335" d="m121.371 254.176 10.274-16.004 12.77 21.773Zm0 0"/><path fill="#4a3930" d="m130 280.164-8.629-25.988 23.043 5.77Zm0 0"/><path fill="#4a322d" d="M121.371 254.176 130 280.164l-18.383-4.984Zm0 0"/><path fill="#4a2e2c" d="m115.504 244.902-4.906-16.507 11.77-1.813Zm0 0"/><path fill="#4a3c2f" d="m236.215 254.766-11.942-36.977 23.25 6.606Zm0 0"/><path fill="#4a4d39" d="m183.79 271.223-7.227 13.691-8.223-22.098Zm0 0"/><path fill="#f6c5b4" d="m176.563 284.914 31.664-.941-9.309 15.007Zm0 0"/><path fill="#494d39" d="m208.227 283.973-31.665.941 7.227-13.691Zm0 0"/><path fill="#4a432f" d="m205.328 258.793 3.2 24.793-20.473-21.856Zm0 0"/><path fill="#4a4c36" d="m208.527 283.586-24.738-12.363 4.266-9.493Zm0 0"/><path fill="#4a4433" d="m208.527 283.586-.3.387-24.438-12.75Zm0 0"/><path fill="#f6c5b4" d="m224.707 298.29-16.18-14.704 23.418-3.266Zm0 0"/><path fill="#f6c5b4" d="m208.527 283.586 16.18 14.703-16.48-14.316Zm0 0"/><path fill="#4a593f" d="m189.605 233.855 15.723 24.938-17.273 2.937Zm0 0"/><path fill="#4a4432" d="m168.34 262.816 19.715-1.086-4.266 9.493Zm0 0"/><path fill="#4d4937" d="m233.707 159.578 5.2 13.367-15.66-4.187Zm0 0"/><path fill="#4b4c39" d="m199.273 180.352 1.809-18.254 22.164 6.66Zm0 0"/><path fill="#4a2d2c" d="m207.629 122.059 3.113-7.973 9.64 15.047ZM210.742 114.086l17.559-16.332-7.918 31.379Zm0 0"/><path fill="#4a2d2c" d="m207.629 122.059-14.402-6.149 17.515-1.824Zm0 0"/><path fill="#f6c5b4" d="m217.594 138.945-13.324-9.355 16.113-.457Zm0 0"/><path fill="#f4c4b2" d="m204.27 129.59 3.359-7.531 12.754 7.074Zm0 0"/><path fill="#4b302b" d="m184.445 18.602 9.856 20.695-23.762-4.035Zm0 0"/><path fill="#4a2e2b" d="m184.445 18.602 19.875 1.515-10.02 19.18Zm0 0"/><path fill="#4b312b" d="m170.54 35.262 7.987 19.636-19.867-2.273Zm0 0"/><path fill="#4a322b" d="m194.3 39.297-15.773 15.601-7.988-19.636Zm0 0"/><path fill="#4a2d2c" d="M384 0v104.07L333.063 68.31Zm0 0"/><path fill="#4a2d2c" d="m384 104.07-42.645 11.254-8.293-47.015Zm0 0"/><path fill="#4a2d2b" d="m205.254 71.805 52.46-19.942-29.413 45.89Zm0 0"/><path fill="#4a2d2c" d="m384 197.262-30.684-13.157L384 104.07ZM353.316 184.105l4.801 33.149-30.265-7.184ZM368.27 283.137l15.738-3.555-.008 47.492Zm0 0"/><path fill="#f6c5b4" d="m338.418 258.79 29.852 24.347-28.934-7.512Zm0 0"/><path fill="#4b2f2c" d="m184.445 18.602-19.418-2.684L174.723 0Zm0 0"/><path fill="#4b302b" d="m165.027 15.918 19.418 2.684-13.906 16.66Zm0 0"/><path fill="#4a2d2c" d="m18.758 292.863 20.367 32.274L0 310.242ZM18.758 292.863l2.226-13.039 16.551 4.77Zm0 0"/><path fill="#4a2d2c" d="m39.125 325.137-20.367-32.274 18.777-8.27ZM0 384v-73.758l39.125 14.895ZM92.016 318.18 76.27 331.316l-5.91-34.941ZM92.016 318.18l-5.196-18.801 14.2 3.988Zm0 0"/><path fill="#4a2d2c" d="m86.82 299.379 5.196 18.8-21.657-21.804ZM61.18 138.758l-23.887 23.156 4.191-44.152Zm0 0"/><path fill="#4a2d2c" d="m61.18 138.758-19.696-20.996 22.7 5.718ZM61.18 138.758l11.75-10.606 3.28 11.036Zm0 0"/><path fill="#f6c5b4" d="m72.93 128.152 12.035-3.097-8.754 14.132Zm0 0"/><path fill="#4a2d2c" d="m72.93 128.152-11.75 10.606 3.004-15.278Zm0 0"/><path fill="#f6c5b4" d="m84.965 125.055 6.105 11.707-14.86 2.425Zm0 0"/><path fill="#4a2d2c" d="m91.07 136.762-6.105-11.707 18.097-7.043Zm0 0"/><path fill="#91acba" d="m176.504 171.77 3.902 22.546-19.375-.171Zm0 0"/><path fill="#4a553d" d="m180.406 194.316 24.16 1.637-25.035 20.195Zm0 0"/><path fill="#4a352f" d="m118.48 199.41 4.965-16.844 10.703 5.266Zm0 0"/><path fill="#4a3a31" d="m134.148 187.832-10.703-5.266-.402-14.117Zm0 0"/><path fill="#492d2c" d="m77.484 161.39-8.882 29.227-31.309-28.703Zm0 0"/><path fill="#f5c5b4" d="m111.004 170.57-7.328 8.856.515-14.524Zm0 0"/><path fill="#f6c5b5" d="m103.676 179.426-5.797-.285 6.312-14.239Zm0 0"/><path fill="#f6c5b4" d="m103.676 179.426-8.328 9.496 2.53-9.781Zm0 0"/><path fill="#4a2d2c" d="m68.602 190.617 9.703 25.043-43.371-9.922ZM78.305 215.66l2.625 15.149-34.75 4.312ZM34.934 205.738l43.37 9.922-32.124 19.461ZM264.734 335.816 229.211 384l-9.895-47.598ZM192.184 313.547l-33.852 42.293-3.16-35.406Zm0 0"/><path fill="#492d2c" d="m158.332 355.84 33.852-42.293 27.132 22.855Zm0 0"/><path fill="#f6c5b4" d="m213.121 309.98-20.937 3.567 6.734-14.567Zm0 0"/><path fill="#4a2d2c" d="m219.316 336.402-27.132-22.855 20.937-3.567Zm0 0"/><path fill="#f6c5b4" d="m192.184 313.547-15.621-28.633 22.355 14.066ZM192.184 313.547l-37.012 6.887 21.39-35.52Zm0 0"/><path fill="#4c5942" d="m176.563 284.914-26.172-.445 17.949-21.653Zm0 0"/><path fill="#f6c5b4" d="M308.242 277.39 305 293.665l-13.781-13.531Zm0 0"/><path fill="#4a2d2c" d="m368.27 283.137-30.25 5.992 1.316-13.504ZM338.02 289.129l30.25-5.992-19.258 32.812Zm0 0"/><path fill="#492d2c" d="m264.734 335.816.18-35.16 16.91 7.766Zm0 0"/><path fill="#4a2d2c" d="m306.348 318.625-41.614 17.191 17.09-27.394Zm0 0"/><path fill="#f6c5b4" d="m264.914 300.656-17.71 3.84.69-25.535Zm0 0"/><path fill="#4a2d2c" d="m236.605 304.285 10.598.211-8.101 8.176Zm0 0"/><path fill="#492d2c" d="m247.203 304.496 17.531 31.32-25.632-23.144Zm0 0"/><path fill="#4a2d2c" d="m264.734 335.816-17.53-31.32 17.71-3.84Zm0 0"/><path fill="#4a3213" d="m230.184 269.734 9.351 9.067-7.59 1.52Zm0 0"/><path fill="#4a322d" d="m261.527 246.75-25.312 8.016 11.308-30.371Zm0 0"/><path fill="#f6c5b4" d="m285.113 247.844-10.89 2.816 1.808-11.164Zm0 0"/><path fill="#4a3001" d="m274.223 250.66-12.696-3.91 14.504-7.254Zm0 0"/><path fill="#f6c5b4" d="m292.797 230.625-7.684 17.219-9.082-8.348Zm0 0"/><path fill="#4a4c2a" d="m274.598 211.469 17.523-2.074-8.719 15.52Zm0 0"/><path fill="#4a4f3a" d="m189.605 233.855-4.503-16.402 19.464-21.5Zm0 0"/><path fill="#4a573e" d="M150.39 284.469 130 280.164l14.414-20.219Zm0 0"/><path fill="#4a322e" d="m158.332 355.84-24.926-22.43 21.766-12.976Zm0 0"/><path fill="#f6c5b4" d="m130 280.164 17.266 17.48-22.614-1.746Zm0 0"/><path fill="#f6c5b4" d="m150.39 284.469-3.124 13.176L130 280.165Zm0 0"/><path fill="#4a2d2c" d="m133.406 333.41-20.254 14.52 3.434-39.446Zm0 0"/><path fill="#f6c5b4" d="m116.586 308.484-15.566-5.117 23.632-7.469Zm0 0"/><path fill="#f6c5b4" d="m124.652 295.898-23.632 7.47 17.14-15.985ZM101.02 303.367l10.597-28.187 6.543 12.203ZM93.387 255.586l-2.293-13.914 15.547 3.164ZM91.094 241.672l19.504-13.277-3.957 16.44Zm0 0"/><path fill="#f6c5b4" d="M111.617 275.18 96.25 292.977l-8.203-17.387Zm0 0"/><path fill="#f6c5b4" d="m88.047 275.59 8.203 17.387-9.43 6.402ZM86.82 299.379l9.43-6.402 4.77 10.39ZM96.25 292.977l15.367-17.797-10.597 28.187Zm0 0"/><path fill="#8fabb9" d="m175.426 240.695-7.086 22.121-9.676-16.07Zm0 0"/><path fill="#4a563e" d="m188.055 261.73-12.63-21.035 14.18-6.84Zm0 0"/><path fill="#4a553d" d="m168.34 262.816 7.086-22.12 12.629 21.034Zm0 0"/><path fill="#8baaba" d="m145.895 238.34 13.527-6.254-.758 14.66Zm0 0"/><path fill="#acb2b9" d="m159.422 232.086 16.004 8.61-16.762 6.05Zm0 0"/><path fill="#4a302d" d="m131.645 238.172-16.141 6.73 6.863-18.32Zm0 0"/><path fill="#4a4033" d="m224.273 217.79 11.942 36.976-30.887 4.027Zm0 0"/><path fill="#4a4b39" d="m189.605 233.855 34.668-16.066-18.945 41.004Zm0 0"/><path fill="#4a6946" d="M311.598 200.973 299.3 183.512l21.625-8Zm0 0"/><path fill="#4a6444" d="m299.3 183.512 12.298 17.46-21.95.52Zm0 0"/><path fill="#4a2d2c" d="m327.852 210.07-16.254-9.097 9.328-25.461ZM353.316 184.105l-25.464 25.965-6.926-34.558Zm0 0"/><path fill="#4a6f49" d="m299.3 183.512 5.65-13.184 15.976 5.184Zm0 0"/><path fill="#f3c5b3" d="m289.426 185.238.222 16.254-8.921-8.496Zm0 0"/><path fill="#98adb7" d="m289.426 185.238 9.875-1.726-9.653 17.98Zm0 0"/><path fill="#a26e44" d="m238.906 172.945 10.649-15.03-1.254 21.796Zm0 0"/><path fill="#956537" d="m249.555 157.914-10.649 15.031-5.199-13.367Zm0 0"/><path fill="#4a2d2c" d="m262.441 150.637-.148-39.887L284 144.844Zm0 0"/><path fill="#f5c5b4" d="m237.969 140.668-20.375-1.723 2.789-9.812Zm0 0"/><path fill="#f6c5b4" d="m193.227 115.91 11.043 13.68-13.883-.57Zm0 0"/><path fill="#f6c5b4" d="m207.629 122.059-3.36 7.53-11.042-13.679Zm0 0"/><path fill="#4a2f2c" d="m204.32 20.117 14.336 16.95-24.355 2.23Zm0 0"/><path fill="#4a2e2a" d="m205.254 71.805 13.402-34.739 39.059 14.797Zm0 0"/><path fill="#4a2f2c" d="m166.363 74.875 38.89-3.07-28.456 25.175Zm0 0"/><path fill="#4a2d2c" d="m166.363 74.875-33.73-9.816 26.027-12.434Zm0 0"/><path fill="#4a2e2c" d="m178.527 54.898-12.164 19.977-7.703-22.25Zm0 0"/><path fill="#4a312c" d="m166.363 74.875 12.164-19.977 26.727 16.907Zm0 0"/><path fill="#4a2d2b" d="m166.363 74.875-26.687 21.863-7.043-31.68Zm0 0"/><path fill="#4a2e2c" d="m139.676 96.738 26.687-21.863 10.434 22.105Zm0 0"/><path fill="#4a2d2c" d="m205.254 71.805-2.395 27.96-26.062-2.785Zm0 0"/><path fill="#4a2d2c" d="m202.86 99.766-9.633 16.144-16.43-18.93Zm0 0"/><path fill="#4a2d2c" d="m193.227 115.91 9.632-16.144 7.883 14.32Zm0 0"/><path fill="#4a2e2c" d="m205.254 71.805-26.727-16.907 15.774-15.601Zm0 0"/><path fill="#4a2d2c" d="m218.656 37.066-13.402 34.739L194.3 39.297ZM384 197.262l-25.883 19.992-4.8-33.149Zm0 0"/><path fill="#4a2d2b" d="m383.996 244.055-25.879-26.801L384 197.262Zm0 0"/><path fill="#4a2d2b" d="m358.094 240.383.023-23.13 25.88 26.802Zm0 0"/><path fill="#492d2c" d="m358.117 217.254-19.254 19.059-11.011-26.243Zm0 0"/><path fill="#f6c5b4" d="m338.863 236.313 19.23 4.07-19.675 18.406Zm0 0"/><path fill="#492d2c" d="m358.094 240.383-19.23-4.07 19.253-19.06Zm0 0"/><path fill="#4a2d2c" d="m338.863 236.313-24.804-3.122 13.793-23.12Zm0 0"/><path fill="#f6c5b4" d="m338.863 236.313-.445 22.476-24.36-25.598ZM366.66 259.168l17.348 20.414-15.738 3.555Zm0 0"/><path fill="#f6c5b4" d="m338.418 258.79 28.242.378 1.61 23.969Zm0 0"/><path fill="#f6c5b4" d="m384.008 279.582-17.348-20.414 17.336-15.113Zm0 0"/><path fill="#f6c5b4" d="m366.66 259.168-8.566-18.785 25.902 3.672ZM358.094 240.383l8.566 18.785-28.242-.379Zm0 0"/><path fill="#4a2d2c" d="m132.633 65.059 3.906-36.653 22.121 24.219ZM92.016 318.18l21.136 29.75-36.882-16.614Zm0 0"/><path fill="#4a2d2c" d="m113.152 347.93-21.136-29.75 24.57-9.696Zm0 0"/><path fill="#4a2d2c" d="m92.016 318.18 9.004-14.813 15.566 5.117Zm0 0"/><path fill="#4a2d2b" d="m71.344 120.844 1.586 7.308-8.746-4.672Zm0 0"/><path fill="#f6c5b4" d="m72.93 128.152-1.586-7.308 13.62 4.21Zm0 0"/><path fill="#4a2d2c" d="m65.355 105.066 5.989 15.778-7.16 2.636Zm0 0"/><path fill="#f6c5b4" d="m71.344 120.844-5.989-15.778 14.336 8.563ZM84.965 125.055l-13.621-4.211 8.347-7.215Zm0 0"/><path fill="#85a6b4" d="m161.031 194.145 19.375.171-.875 21.832Zm0 0"/><path fill="#f4c5b3" d="m180.61 121.375 9.777 7.645-7.778 10.253Zm0 0"/><path fill="#4a3730" d="m150.41 171.516-16.262 16.316 7.317-23.344Zm0 0"/><path fill="#4a4536" d="m150.41 171.516-5.336 20.039-10.926-3.723Zm0 0"/><path fill="#89a9ba" d="m145.074 191.555 5.336-20.04 10.621 22.63Zm0 0"/><path fill="#adb3b8" d="m150.41 171.516 26.094.254-15.473 22.375Zm0 0"/><path fill="#efc4b1" d="m150.41 171.516 6.418-15.426 19.676 15.68Zm0 0"/><path fill="#f6c5b4" d="m97.879 179.14-8.758-15.863 15.07 1.625Zm0 0"/><path fill="#f5c5b3" d="m91.07 136.762-6.273 15.793-8.586-13.368Zm0 0"/><path fill="#f6c5b4" d="m118.074 181.203-14.398-1.777 7.328-8.856Zm0 0"/><path fill="#4a312d" d="m123.043 168.45-4.969 12.753-7.07-10.633Zm0 0"/><path fill="#664c43" d="m118.074 181.203 4.969-12.754.402 14.117Zm0 0"/><path fill="#4a2f2c" d="m148.703 136.75-14.156 16.914-8.121-22.941Zm0 0"/><path fill="#4a2e2c" d="m134.547 153.664-18.66.559 10.539-23.5ZM105.96 138.414l-14.89-1.652 11.993-18.75Zm0 0"/><path fill="#4a2d2c" d="m105.96 138.414-2.897-20.402 23.363 12.71ZM115.887 154.223l-9.926-15.809 20.465-7.691Zm0 0"/><path fill="#f3c5b5" d="m103.676 179.426 1.086 11.324-9.414-1.828Zm0 0"/><path fill="#89aaba" d="m92.555 198.926 12.207-8.176 8.98 7.246Zm0 0"/><path fill="#89aaba" d="m104.762 190.75-12.207 8.176 2.793-10.004Zm0 0"/><path fill="#f5c5b4" d="m104.762 190.75 13.312-9.547-4.332 16.793Zm0 0"/><path fill="#4a2d2c" d="m158.332 355.84 60.984-19.438L229.211 384Zm0 0"/><path fill="#85a5b4" d="m144.414 259.945 14.25-13.199 9.676 16.07Zm0 0"/><path fill="#89a9ba" d="m150.39 284.469-5.976-24.524 23.926 2.871Zm0 0"/><path fill="#f6c5b4" d="m240.008 284.457 7.195 20.04-10.598-.212Zm0 0"/><path fill="#f6c5b4" d="m240.008 284.457-3.403 19.828-4.66-23.965Zm0 0"/><path fill="#f5c3b2" d="m239.535 278.8.473 5.657-8.063-4.137Zm0 0"/><path fill="#f6c5b4" d="m240.008 284.457-.473-5.656 8.36.16ZM247.203 304.496l-7.195-20.039 7.887-5.496Zm0 0"/><path fill="#f6c5b4" d="m265.09 283.55-.176 17.106-17.02-21.695Zm0 0"/><path fill="#4a3517" d="m208.527 283.586 21.657-13.852 1.761 10.586Zm0 0"/><path fill="#4a3314" d="m230.184 269.734-21.657 13.852-3.199-24.793Zm0 0"/><path fill="#4a3315" d="m230.184 269.734-24.856-10.941 30.887-4.027Zm0 0"/><path fill="#4a3109" d="m245.664 267.254-15.48 2.48 6.03-14.968Zm0 0"/><path fill="#4a3011" d="m230.184 269.734 15.48-2.48-6.129 11.547Zm0 0"/><path fill="#f6c5b4" d="m303.156 252.703-10.36-22.078 21.263 2.566ZM303.156 252.703l5.086 24.688-27.976-11.293Zm0 0"/><path fill="#f6c5b4" d="m285.113 247.844 18.043 4.86-22.89 13.394ZM292.797 230.625l10.36 22.078-18.044-4.86ZM292.797 230.625l-16.766 8.871 7.371-14.582Zm0 0"/><path fill="#4a4334" d="m289.648 201.492 2.473 7.903-17.523 2.074Zm0 0"/><path fill="#4a2e2c" d="m261.508 183.488 7.851-2.93.235 11.317Zm0 0"/><path fill="#b4b288" d="m258.063 195.219 3.445-11.73 8.086 8.386Zm0 0"/><path fill="#655d46" d="m261.508 183.488-12.297 5.242-.91-9.02Zm0 0"/><path fill="#eabfaa" d="m249.21 188.73 8.852 6.489-11.898 4.437Zm0 0"/><path fill="#edc3af" d="m258.063 195.219-8.852-6.489 12.297-5.242Zm0 0"/><path fill="#4a2d2c" d="m269.36 180.559 10.468 5.148-10.234 6.168Zm0 0"/><path fill="#4a3b2f" d="m242.8 206.605 4.723 17.79-23.25-6.606Zm0 0"/><path fill="#4a3017" d="m247.523 224.395 20.579 4.488-6.575 17.867Zm0 0"/><path fill="#4a2e2c" d="m133.406 333.41 3.106-19.812 18.66 6.836Zm0 0"/><path fill="#4a2d2c" d="m136.512 313.598-3.106 19.812-16.82-24.926Zm0 0"/><path fill="#f6c5b4" d="m136.512 313.598-19.926-5.114 8.066-12.586ZM147.266 297.645l-10.754 15.953-11.86-17.7Zm0 0"/><path fill="#492d2c" d="m141.617 384-28.465-36.07 45.18 7.91Zm0 0"/><path fill="#4a2d2c" d="m113.152 347.93 20.254-14.52 24.926 22.43Zm0 0"/><path fill="#4a312d" d="m121.371 254.176-5.867-9.274 16.14-6.73Zm0 0"/><path fill="#4a2f14" d="m115.504 244.902 5.867 9.274-15.851 11.156Zm0 0"/><path fill="#4a3029" d="m115.504 244.902-8.863-.066 3.957-16.441Zm0 0"/><path fill="#4a3017" d="m106.64 244.836 8.864.066-9.984 20.43Zm0 0"/><path fill="#f6c5b4" d="m80.93 230.809 10.164 10.863-17.664 12.254Zm0 0"/><path fill="#f6c5b4" d="m91.094 241.672 2.293 13.914-19.957-1.66Zm0 0"/><path fill="#4a2d2b" d="m110.152 216.527.446 11.868-32.293-12.735Zm0 0"/><path fill="#4a4838" d="m131.645 238.172 14.25.168-1.48 21.605Zm0 0"/><path fill="#89a9ba" d="m144.414 259.945 1.48-21.605 12.77 8.406Zm0 0"/><path fill="#8dabba" d="m148.86 217.125 10.562 14.96-13.527 6.255Zm0 0"/><path fill="#4a503b" d="m179.531 216.148 5.57 1.305 4.504 16.402Zm0 0"/><path fill="#4a593f" d="m175.426 240.695 4.105-24.547 10.074 17.707Zm0 0"/><path fill="#89a6b6" d="m111.426 209.988-18.871-11.062 21.187-.93Zm0 0"/><path fill="#4a2d2c" d="m92.555 198.926 18.87 11.062-1.273 6.54Zm0 0"/><path fill="#4a6a47" d="m304.95 170.328 6.46-10.398 9.516 15.582Zm0 0"/><path fill="#915c31" d="m236.215 150.629 13.34 7.285-15.848 1.664Zm0 0"/><path fill="#4a2d2c" d="m196.691 0 7.63 20.117-19.876-1.515Zm0 0"/><path fill="#4a2d2c" d="M196.691 0h37.016L204.32 20.117Zm0 0"/><path fill="#4a2d2b" d="M218.656 37.066 233.707 0l24.008 51.863Zm0 0"/><path fill="#4a2e2b" d="m233.707 0-15.05 37.066-14.337-16.949Zm0 0"/><path fill="#4a2d2c" d="m210.742 114.086-7.883-14.32 25.442-2.012Zm0 0"/><path fill="#4a2d2b" d="m202.86 99.766 2.394-27.961L228.3 97.754Zm0 0"/><path fill="#4a2d2c" d="m333.063 68.309-70.77 42.441-4.578-58.887Zm0 0"/><path fill="#4a2d2b" d="m257.715 51.863 4.578 58.887-33.992-12.996Zm0 0"/><path fill="#4a2e2c" d="m262.293 110.75 65.547-4.875L284 144.844Zm0 0"/><path fill="#4a2d2b" d="m262.293 110.75 70.77-42.441-5.223 37.566Zm0 0"/><path fill="#4a2d2c" d="m333.57 116.055-29.347 35.441L284 144.844Zm0 0"/><path fill="#4a2d2c" d="m327.84 105.875 5.73 10.18L284 144.844Zm0 0"/><path fill="#4a2d2b" d="M165.027 15.918 136.54 28.406 152.852 0ZM136.54 28.406 132.437 0h20.414Zm0 0"/><path fill="#4b2f2c" d="m136.54 28.406 34 6.856-11.88 17.363Zm0 0"/><path fill="#4b2e2b" d="m170.54 35.262-34-6.856 28.487-12.488Zm0 0"/><path fill="#89aaba" d="m145.074 191.555 15.957 2.59-12.172 22.98Zm0 0"/><path fill="#8dabba" d="m142.578 217.27 2.496-25.715 3.785 25.57Zm0 0"/><path fill="#f6c5b4" d="m166.535 127.824 14.074-6.449 2 17.898ZM164.152 142.25l2.383-14.426 16.074 11.45ZM89.121 163.277l7.637-12.703 7.433 14.328Zm0 0"/><path fill="#f5c5b4" d="m96.758 150.574-7.637 12.703-4.324-10.722Zm0 0"/><path fill="#8dabba" d="m89.121 163.277-11.637-1.886 7.313-8.836Zm0 0"/><path fill="#4a2d2c" d="m61.18 138.758 16.304 22.633-40.191.523Zm0 0"/><path fill="#4a2d2c" d="M77.484 161.39 61.18 138.759l15.03.43Zm0 0"/><path fill="#8caaba" d="m84.797 152.555-7.313 8.836-1.273-22.203Zm0 0"/><path fill="#573f30" d="m134.547 153.664 6.918 10.824-18.422 3.961Zm0 0"/><path fill="#f6c5b4" d="m118.074 181.203-13.312 9.547-1.086-11.324Zm0 0"/><path fill="#b1a37a" d="m164.152 142.25-7.324 13.84-8.125-19.34Zm0 0"/><path fill="#c2a18a" d="m156.828 156.09-22.281-2.426 14.156-16.914Zm0 0"/><path fill="#bab4b1" d="m134.547 153.664 22.281 2.426-15.363 8.398Zm0 0"/><path fill="#b6b5b7" d="m156.828 156.09-6.418 15.426-8.945-7.028Zm0 0"/><path fill="#f5c5b4" d="m91.07 136.762 5.688 13.812-11.961 1.98Zm0 0"/><path fill="#4a2d2c" d="m85.879 186.781-17.277 3.836 8.882-29.226Zm0 0"/><path fill="#4a2d2c" d="m85.879 186.781 6.676 12.145-23.953-8.309Zm0 0"/><path fill="#89a9b9" d="m89.121 163.277-3.242 23.504-8.395-25.39Zm0 0"/><path fill="#dfbfb6" d="m85.879 186.781 3.242-23.504 8.758 15.864Zm0 0"/><path fill="#f6c5b4" d="m95.348 188.922-9.47-2.14 12-7.641Zm0 0"/><path fill="#89a9b9" d="m92.555 198.926-6.676-12.145 9.469 2.14Zm0 0"/><path fill="#4a2d2b" d="m78.305 215.66 14.25-16.734 17.597 17.601Zm0 0"/><path fill="#492d2c" d="m92.555 198.926-14.25 16.734-9.703-25.043Zm0 0"/><path fill="#4a2d2c" d="m219.316 336.402 19.786-23.73 25.632 23.144Zm0 0"/><path fill="#4a2d2b" d="m272.969 276 7.297-9.902 10.953 14.035Zm0 0"/><path fill="#4a2d2c" d="m280.266 266.098 27.976 11.293-17.023 2.742Zm0 0"/><path fill="#f6c5b4" d="M279.855 297.352 272.97 276l18.25 4.133Zm0 0"/><path fill="#f6c5b4" d="m292.031 297.836-12.176-.484 11.364-17.22Zm0 0"/><path fill="#4a2d2c" d="m279.855 297.352 12.176.484-10.207 10.586Zm0 0"/><path fill="#f6c5b4" d="m285.113 247.844-4.847 18.254-6.043-15.438Zm0 0"/><path fill="#4a3013" d="m239.535 278.8 6.13-11.546 2.23 11.707Zm0 0"/><path fill="#4a3004" d="m261.527 246.75-15.863 20.504-9.45-12.488Zm0 0"/><path fill="#4c3302" d="m270.816 267.797-9.289-21.047 12.696 3.91Zm0 0"/><path fill="#4a3000" d="m280.266 266.098-9.45 1.699 3.407-17.137Zm0 0"/><path fill="#4a2d2a" d="m270.816 267.797 9.45-1.7-7.297 9.903Zm0 0"/><path fill="#4a4838" d="m289.648 201.492 21.95-.52-19.477 8.423Zm0 0"/><path fill="#4a2d2b" d="m298.277 215.16 29.575-5.09-13.793 23.121Zm0 0"/><path fill="#4a2d2c" d="m298.277 215.16 13.32-14.187 16.255 9.097ZM292.797 230.625l5.48-15.465 15.782 18.031Zm0 0"/><path fill="#4a6e48" d="m311.598 200.973-13.32 14.187-6.157-5.765Zm0 0"/><path fill="#4a6845" d="m292.121 209.395 6.156 5.765-14.875 9.754Zm0 0"/><path fill="#4a2d2c" d="m298.277 215.16-5.48 15.465-9.395-5.71Zm0 0"/><path fill="#f5c5b3" d="m258.063 195.219-7.622 10.969-4.277-6.532Zm0 0"/><path fill="#d0af9a" d="m250.441 206.188-7.64.417 3.363-6.949Zm0 0"/><path fill="#f6c5b4" d="m268.61 201.637-18.169 4.55 7.621-10.968ZM268.61 201.637l-10.548-6.418 11.532-3.344Zm0 0"/><path fill="#4a573e" d="m232.703 190.188 16.508-1.458-3.047 10.926Zm0 0"/><path fill="#4a4c39" d="m232.703 190.188 6.203-17.243 9.395 6.766Zm0 0"/><path fill="#4a503a" d="m249.21 188.73-16.507 1.458 15.598-10.477Zm0 0"/><path fill="#4a3026" d="m247.523 224.395 15.016-8.2 5.563 12.688Zm0 0"/><path fill="#4a3109" d="m268.102 228.883-5.563-12.688 12.059-4.726Zm0 0"/><path fill="#8daab9" d="m268.61 201.637-6.07 14.558-12.099-10.007Zm0 0"/><path fill="#575349" d="m247.523 224.395-4.722-17.79 7.64-.417Zm0 0"/><path fill="#8ca9b8" d="m262.54 216.195-15.017 8.2 2.918-18.208Zm0 0"/><path fill="#f6c5b4" d="m136.512 313.598 10.754-15.953 7.906 22.789ZM155.172 320.434l-7.906-22.79 29.297-12.73Zm0 0"/><path fill="#f6c5b4" d="m147.266 297.645 3.125-13.176 26.172.445Zm0 0"/><path fill="#4a2d2c" d="m110.598 228.395-29.668 2.414-2.625-15.149Zm0 0"/><path fill="#f6c5b4" d="m80.93 230.809 29.668-2.414-19.504 13.277Zm0 0"/><path fill="#a3b0b9" d="m164.484 220.422-3.453-26.277 18.5 22.003Zm0 0"/><path fill="#99aeba" d="m161.031 194.145 3.453 26.277-15.625-3.297Zm0 0"/><path fill="#94adba" d="m148.86 217.125 15.624 3.297-5.062 11.664Zm0 0"/><path fill="#93acba" d="m164.484 220.422 10.942 20.273-16.004-8.61Zm0 0"/><path fill="#8caaba" d="m164.484 220.422 15.047-4.274-4.105 24.547Zm0 0"/><path fill="#4a362f" d="m118.48 199.41-.406-18.207 5.371 1.363Zm0 0"/><path fill="#4a2d2c" d="m118.48 199.41-7.054 10.578 2.316-11.992Zm0 0"/><path fill="#4a2d2c" d="m118.074 181.203.406 18.207-4.738-1.414Zm0 0"/><path fill="#4a312e" d="m142.578 217.27-19.07-5.04 10.64-24.398Zm0 0"/><path fill="#4a6b47" d="m311.41 159.93 22.16-43.875-12.644 59.457Zm0 0"/><path fill="#f0c4b5" d="m333.57 116.055-22.16 43.875-7.187-8.434Zm0 0"/><path fill="#4a2d2c" d="m285.668 180.922-5.84 4.785-4.36-14.473Zm0 0"/><path fill="#f6c5b4" d="m279.828 185.707 9.598-.469-8.7 7.758ZM279.828 185.707l5.84-4.785 3.758 4.316Zm0 0"/><path fill="#f2c4b2" d="m285.668 180.922 7.09-5.27-3.332 9.586Zm0 0"/><path fill="#c2b9a1" d="m289.426 185.238 3.332-9.586 6.543 7.86Zm0 0"/><path fill="#c4b9b4" d="m292.758 175.652 12.191-5.324-5.648 13.184Zm0 0"/><path fill="#d7b9a8" d="m292.758 175.652 3.015-9.359 9.176 4.035Zm0 0"/><path fill="#4a2d2c" d="m304.223 151.496-4.34 1.754L284 144.844Zm0 0"/><path fill="#4a2d2b" d="m275.469 171.234 4.36 14.473-10.47-5.148Zm0 0"/><path fill="#4a2d2c" d="m228.3 97.754 33.993 12.996-41.91 18.383Zm0 0"/><path fill="#4a2d2c" d="m262.293 110.75-24.324 29.918-17.586-11.535Zm0 0"/><path fill="#f2c4b2" d="m237.969 140.668-16.453 8.305-3.922-10.028Zm0 0"/><path fill="#b0724b" d="m236.215 150.629-14.7-1.656 16.454-8.305Zm0 0"/><path fill="#59563d" d="m201.082 162.098 20.434-13.125 1.73 19.785Zm0 0"/><path fill="#4b523b" d="m221.516 148.973 12.191 10.605-10.46 9.18Zm0 0"/><path fill="#835c38" d="m221.516 148.973 14.699 1.656-2.508 8.95Zm0 0"/><path fill="#dabfa3" d="m221.516 148.973-21.528-6.09 17.606-3.938Zm0 0"/><path fill="#c0b28b" d="m199.988 142.883 21.528 6.09-20.434 13.125Zm0 0"/><path fill="#d4bd9f" d="m199.988 142.883 4.282-13.293 13.324 9.355Zm0 0"/><path fill="#d8bfa3" d="m204.27 129.59-4.282 13.293-9.601-13.863Zm0 0"/><path fill="#d6bfa2" d="m199.988 142.883-17.379-3.61 7.778-10.253Zm0 0"/><path fill="#4a3f34" d="m134.148 187.832 10.926 3.723-2.496 25.715Zm0 0"/><path fill="#4a2d2c" d="m166.535 127.824-9.484-12.699 23.558 6.25ZM176.797 96.98l-19.746 18.145-17.375-18.387Zm0 0"/><path fill="#4a2d2c" d="m180.61 121.375-23.56-6.25 19.747-18.145Zm0 0"/><path fill="#c6bb98" d="m182.598 153.594 18.484 8.504-24.578 9.672Zm0 0"/><path fill="#ebc3ae" d="m156.828 156.09 25.77-2.496-6.094 18.176Zm0 0"/><path fill="#e6c2ab" d="m164.152 142.25 18.446 11.344-25.77 2.496Zm0 0"/><path fill="#5a6c4b" d="m199.273 180.352-18.867 13.964-3.902-22.546Zm0 0"/><path fill="#a08551" d="m201.082 162.098-1.809 18.254-22.77-8.582Zm0 0"/><path fill="#4b5f41" d="m180.406 194.316 18.867-13.964 5.293 15.601Zm0 0"/><path fill="#e7c2ac" d="m182.61 139.273-.012 14.32-18.446-11.343Zm0 0"/><path fill="#4a2e2c" d="m115.887 154.223 7.156 14.226-12.04 2.121Zm0 0"/><path fill="#4a302d" d="m115.887 154.223-4.883 16.347-6.813-5.668Zm0 0"/><path fill="#4a2d2c" d="m96.758 150.574 19.129 3.649-11.696 10.68Zm0 0"/><path fill="#4a2e2c" d="m115.887 154.223 18.66-.559-11.504 14.785Zm0 0"/><path fill="#f6c5b4" d="M279.855 297.352 265.09 283.55l7.879-7.551ZM265.09 283.55l14.765 13.802-14.94 3.304Zm0 0"/><path fill="#4a2d2c" d="m264.914 300.656 14.941-3.304 1.97 11.07Zm0 0"/><path fill="#f6c5b4" d="m261.824 273.516 3.266 10.035-17.195-4.59Zm0 0"/><path fill="#4a300b" d="m245.664 267.254 16.16 6.262-13.93 5.445Zm0 0"/><path fill="#f6c5b4" d="m265.09 283.55-3.266-10.034L272.97 276Zm0 0"/><path fill="#4a2d2a" d="m261.824 273.516 8.992-5.72L272.97 276Zm0 0"/><path fill="#4a3000" d="m261.824 273.516-16.16-6.262 15.863-20.504Zm0 0"/><path fill="#6f5127" d="m270.816 267.797-8.992 5.719-.297-26.766Zm0 0"/><path fill="#4a4033" d="m242.8 206.605-10.097-16.417 13.461 9.468Zm0 0"/><path fill="#f6c5b4" d="m279.828 185.707.899 7.29-11.133-1.122Zm0 0"/><path fill="#f6c5b4" d="m280.727 192.996-12.118 8.64.985-9.761Zm0 0"/><path fill="#8baaba" d="m262.54 216.195 6.07-14.558 5.988 9.832Zm0 0"/><path fill="#89aaba" d="m268.61 201.637 21.038-.145-15.05 9.977Zm0 0"/><path fill="#f0c4b4" d="m268.61 201.637 12.117-8.64 8.921 8.495Zm0 0"/><path fill="#492e2c" d="m111.426 209.988 12.082 2.242-13.356 4.297Zm0 0"/><path fill="#4a2e2c" d="m123.508 212.23-1.14 14.352-12.216-10.055ZM118.48 199.41l5.028 12.82-12.082-2.242Zm0 0"/><path fill="#4a2e2c" d="m123.508 212.23-5.028-12.82 15.668-11.578Zm0 0"/><path fill="#e8c0af" d="m300.543 160.426 10.867-.496-6.46 10.398Zm0 0"/><path fill="#d6baa8" d="m295.773 166.293 4.77-5.867 4.406 9.902Zm0 0"/><path fill="#e5beaa" d="m311.41 159.93-10.867.496 3.68-8.93Zm0 0"/><path fill="#4c312f" d="m300.543 160.426-.66-7.176 4.34-1.754Zm0 0"/><path fill="#4a2d2c" d="m284 144.844 16.543 15.582-4.77 5.867Zm0 0"/><path fill="#4a2d2c" d="M300.543 160.426 284 144.844l15.883 8.406Zm0 0"/><path fill="#492d2c" d="M262.441 150.637 284 144.844l-8.531 26.39Zm0 0"/><path fill="#4a2d2b" d="m237.969 140.668 24.324-29.918.148 39.887Zm0 0"/><path fill="#4a2d2c" d="m237.969 140.668 24.472 9.969-12.886 7.277Zm0 0"/><path fill="#bd7d54" d="m236.215 150.629 1.754-9.961 11.586 17.246Zm0 0"/><path fill="#4a6846" d="m333.57 116.055 7.785-.73-20.43 60.187Zm0 0"/><path fill="#4a2d2c" d="m341.355 115.324-7.785.73-5.73-10.179Zm0 0"/><path fill="#4a2d2c" d="m333.063 68.309 8.292 47.015-13.515-9.449ZM157.05 115.125l-8.347 21.625-22.277-6.027Zm0 0"/><path fill="#4a2d2c" d="m139.676 96.738 17.375 18.387-30.625 15.598Zm0 0"/><path fill="#4a2e2c" d="m91.07 136.762 14.89 1.652-9.202 12.16Zm0 0"/><path fill="#4a2d2c" d="m105.96 138.414 9.927 15.809-19.13-3.649Zm0 0"/><path fill="#4a4d3a" d="m224.273 217.79-34.668 16.065 14.961-37.902Zm0 0"/><path fill="#4a4838" d="m142.578 217.27 3.317 21.07-14.25-.168Zm0 0"/><path fill="#97adba" d="m145.895 238.34-3.317-21.07 6.281-.145Zm0 0"/><path fill="#49322e" d="m122.367 226.582 20.211-9.312-10.933 20.902Zm0 0"/><path fill="#4a322e" d="m142.578 217.27-20.21 9.312 1.14-14.352Zm0 0"/><path fill="#4a2d2b" d="M286.45 169.895 284 144.844l11.773 21.449Zm0 0"/><path fill="#4a2d2c" d="m286.45 169.895 6.308 5.757-7.09 5.27Zm0 0"/><path fill="#4a2d2b" d="m292.758 175.652-6.309-5.757 9.324-3.602Zm0 0"/><path fill="#4a2d2c" d="m286.45 169.895-.782 11.027-10.2-9.688Zm0 0"/><path fill="#4a2d2c" d="m284 144.844 2.45 25.05-10.981 1.34ZM262.441 150.637l-1.921 22.441-10.965-15.164ZM261.508 183.488l-.988-10.41 8.84 7.48Zm0 0"/><path fill="#4a2d2c" d="m260.52 173.078 14.949-1.844-6.11 9.325Zm0 0"/><path fill="#4a2d2c" d="m260.52 173.078 1.921-22.441 13.028 20.597Zm0 0"/><path fill="#e8c1ad" d="m260.52 173.078.988 10.41-13.207-3.777Zm0 0"/><path fill="#c58862" d="m249.555 157.914 10.965 15.164-12.22 6.633Zm0 0"/><path fill="#4a2d2c" d="m157.05 115.125 9.485 12.7-17.832 8.925Zm0 0"/><path fill="#ccb393" d="m148.703 136.75 17.832-8.926-2.383 14.426Zm0 0"/><path fill="#b8b990" d="m182.61 139.273 17.378 3.61-17.39 10.71Zm0 0"/><path fill="#bbb991" d="m199.988 142.883 1.094 19.215-18.484-8.504Zm0 0"/><path fill="#4a563d" d="m223.918 178.645-19.352 17.308-5.293-15.601Zm0 0"/><path fill="#4a563e" d="m223.918 178.645-24.645 1.707 23.973-11.594Zm0 0"/><path fill="#4a583f" d="m238.906 172.945-14.988 5.7-.672-9.887Zm0 0"/><path fill="#4a593f" d="m232.703 190.188-8.785-11.543 14.988-5.7Zm0 0"/><path fill="#4a533d" d="m223.918 178.645 8.785 11.542-28.137 5.766Zm0 0"/><path fill="#49533c" d="m204.566 195.953 28.137-5.766-8.43 27.602Zm0 0"/><path fill="#4a3d32" d="m224.273 217.79 8.43-27.602 10.098 16.417Zm0 0"/></svg>