<svg xmlns="http://www.w3.org/2000/svg" width="512" height="512" viewBox="0 0 384 384"><path fill="#5b0b90" d="M50.246 155.305 0 151.27l35.445-33.82Zm0 0"/><path fill="#fcd201" d="m.012 241.313 32.504-4.407 1.386 13.703Zm0 0"/><path fill="#712177" d="m353.57 153.305 5.653-51.18 24.78 53.906Zm0 0"/><path fill="#5c0b8f" d="m384 384-72.29.004 34.438-70.84Zm0 0"/><path fill="#651687" d="m161.879.004-11.32 36.262L97.023.004Zm0 0"/><path fill="#631588" d="m150.559 36.266-45.63 21.453L97.024.004Zm0 0"/><path fill="#61118a" d="m97.023.004 7.907 57.715L51.434 46.91Zm0 0"/><path fill="#5f0f8c" d="m0 0 97.023.004-45.59 46.906Zm0 0"/><path fill="#60108b" d="m104.93 57.719-34.684 22.27L51.434 46.91Zm0 0"/><path fill="#5b0a90" d="M97.965 384.004 0 384l47.836-34.332Zm0 0"/><path fill="#61118b" d="M89 95.836 70.246 79.988l34.684-22.27Zm0 0"/><path fill="#5e0e8d" d="m102.188 119.89 20.156-21.57 7.43 32.043Zm0 0"/><path fill="#5f0f8c" d="M102.188 119.89 89 95.837l33.344 2.484Zm0 0"/><path fill="#5b0a90" d="m0 151.27 50.246 4.035-14.797 37.172ZM0 78.512l35.445 38.937L0 151.27Zm0 0"/><path fill="#5c0b8f" d="M80.965 114.29 89 95.835l13.188 24.055Zm0 0"/><path fill="#fed600" d="m49.52 266.531-35.047 10.086 19.43-26.008Zm0 0"/><path fill="#5b0a90" d="m0 207.871 32.516 29.035-32.504 4.406Zm0 0"/><path fill="#fdd300" d="M14.473 276.617.012 241.312l33.89 9.297Zm0 0"/><path fill="#fed600" d="m14.473 276.617-14.496 2.817.035-38.122Zm0 0"/><path fill="#ac6f48" d="m156.027 384.02-20.05-.02 17.312-31.434Zm0 0"/><path fill="#c79130" d="M99.324 355.445 135.977 384l-38.012.004Zm0 0"/><path fill="#b47840" d="m194.707 344.203 16.57-31.89 19.348 23.14Zm0 0"/><path fill="#9d5c55" d="m316.016 289.734-27.672 33 5.254-27.507Zm0 0"/><path fill="#5b0a8f" d="m311.71 384.004-23.366-61.27 57.804-9.57Zm0 0"/><path fill="#fdd500" d="M49.52 266.531 68.965 296.5l-26.985-8.234Zm0 0"/><path fill="#fed600" d="m49.52 266.531 23.617-3.222-4.172 33.191Zm0 0"/><path fill="#fdd501" d="m73.137 263.309 17.793 13.277L68.965 296.5Zm0 0"/><path fill="#fed600" d="m90.93 276.586-17.793-13.277L93.75 244.16Zm0 0"/><path fill="#74297a" d="m111.418 228.648 2.418-18.128 15.414 10.656Zm0 0"/><path fill="#894468" d="m174.535 218.781.645-13.426 20.394 6.083Zm0 0"/><path fill="#9a5856" d="m195.746 255.258-14.48-.164 1.734-15.86Zm0 0"/><path fill="#edbf0e" d="m182.7 268.656-1.434-13.562 14.48.164Zm0 0"/><path fill="#9f6054" d="m175.18 205.355 19.05-17.457 1.344 23.54Zm0 0"/><path fill="#792a6d" d="m316.098.008 32.191 42.86-41.098 2.163Zm0 0"/><path fill="#8a4262" d="M383.996 0 348.29 42.867 316.098.007Zm0 0"/><path fill="#6e1e78" d="m359.223 102.125 24.773-13.879.008 67.785Zm0 0"/><path fill="#f3c606" d="m335.336 229.637 2.992 29.43-29.84-2.942Zm0 0"/><path fill="#5e0e8d" d="m357.074 197.895.453-18.72 26.47 15.759Zm0 0"/><path fill="#60108b" d="m383.996 194.934-26.469-15.758 26.477-23.145Zm0 0"/><path fill="#651686" d="m357.527 179.176-3.957-25.871 30.434 2.726Zm0 0"/><path fill="#ebbb0c" d="m365.918 226.906-8.844-29.011 26.922-2.961Zm0 0"/><path fill="#5c0b8e" d="m346.148 313.164 37.86-9.672L384 384Zm0 0"/><path fill="#ddaa19" d="m346.148 313.164 24.801-30.02 13.059 20.348Zm0 0"/><path fill="#671a88" d="m198.05-.008-14.773 24.633L161.88.004Zm0 0"/><path fill="#5e0d8e" d="M0 78.512V0l51.434 46.91Zm0 0"/><path fill="#621389" d="m-.023 279.434 14.48 23.144L.004 322.133Zm0 0"/><path fill="#5c0c8f" d="m14.457 302.578 53.148 20-19.77 27.09Zm0 0"/><path fill="#86406a" d="m68.965 296.5-1.36 26.078-25.625-34.312Zm0 0"/><path fill="#5c0b8f" d="m99.324 355.445-31.719-32.867 34.762 10.813Zm0 0"/><path fill="#5b0a90" d="m99.324 355.445-1.36 28.559-50.128-34.336Zm0 0"/><path fill="#5b0a90" d="m67.605 322.578 31.72 32.867-51.49-5.777Zm0 0"/><path fill="#631489" d="M154.348 72.363 122.344 98.32 104.93 57.72Zm0 0"/><path fill="#61118b" d="M122.344 98.32 89 95.836l15.93-38.117Zm0 0"/><path fill="#5e0e8d" d="M46.082 86.168 0 78.512 51.434 46.91Zm0 0"/><path fill="#5c0c8f" d="m0 78.512 46.082 7.656-10.637 31.281Zm0 0"/><path fill="#5e0e8d" d="m70.246 79.988-24.164 6.18 5.352-39.258Zm0 0"/><path fill="#5b0a90" d="m80.965 114.29-17.828-11.017L89 95.836ZM35.445 117.45l27.692-14.177-3 23.043Zm0 0"/><path fill="#5c0b8f" d="m46.082 86.168 17.055 17.105-27.692 14.176Zm0 0"/><path fill="#5c0c8f" d="m63.137 103.273 7.11-23.285L89 95.836Zm0 0"/><path fill="#5c0b8f" d="M63.137 103.273 46.082 86.168l24.164-6.18Zm0 0"/><path fill="#5b0a90" d="m85.508 126.977-4.543-12.688 21.222 5.602Zm0 0"/><path fill="#fcd301" d="m49.52 266.531-7.54 21.735-27.507-11.649Zm0 0"/><path fill="#bf8837" d="m137.457 164.719 4.344 24.902-14.477-27.187Zm0 0"/><path fill="#fed600" d="M66.063 233.047 49.52 266.53 33.902 250.61ZM66.063 233.047l7.074 30.262-23.617 3.222Zm0 0"/><path fill="#5b0a90" d="M50.246 155.305 67.45 187.37l-32 5.106ZM32.516 236.906 0 207.871l35.45-15.394Zm0 0"/><path fill="#5d0c8e" d="m203.684 383.984-47.657.036-2.738-31.454Zm0 0"/><path fill="#fed600" d="m187.738 284.996 23.54 27.317-32.321-12.426Zm0 0"/><path fill="#5b0a90" d="m228.82 383.984 33.512-27.12 49.379 27.14Zm0 0"/><path fill="#5b0a90" d="m311.71 384.004-49.378-27.14 26.012-34.13Zm0 0"/><path fill="#5c0b8f" d="m262.332 356.863-31.707-21.41 57.719-12.719ZM262.332 356.863l-33.512 27.121 1.805-48.53Zm0 0"/><path fill="#f8cd03" d="m318.54 275.875 19.788-16.809 11.07 24.625Zm0 0"/><path fill="#f9ce03" d="m338.328 259.066-19.789 16.809-10.05-19.75Zm0 0"/><path fill="#dcab1c" d="m288.344 322.734 38.64-32.59 19.164 23.02Zm0 0"/><path fill="#944f5c" d="m326.984 290.145-38.64 32.59 27.672-33Zm0 0"/><path fill="#ae6f43" d="m326.984 290.145-8.445-14.27 30.86 7.816Zm0 0"/><path fill="#edbf0e" d="m318.54 275.875 8.444 14.27-10.968-.41Zm0 0"/><path fill="#6e207d" d="m229.516 307.691 1.109 27.762-19.348-23.14Zm0 0"/><path fill="#fdd500" d="m187.738 284.996 26.028 11.082-2.489 16.235Zm0 0"/><path fill="#fdd401" d="m229.516 307.691-15.75-11.613 11.664-12.789Zm0 0"/><path fill="#fdd500" d="m213.766 296.078 15.75 11.613-18.239 4.622Zm0 0"/><path fill="#742775" d="m272.629 228.277 3.863-18.636 15.547 10.109Zm0 0"/><path fill="#6b1d80" d="m273.8 229.586-1.171-1.309 19.41-8.527Zm0 0"/><path fill="#6c1c7b" d="m262.246 245.887 10.383-17.61 1.172 1.309Zm0 0"/><path fill="#fdd501" d="m126.172 279.172 17.226 4.59-17.015 11.492Zm0 0"/><path fill="#fdd400" d="m106.54 244.676-1.118 24.289L93.75 244.16Zm0 0"/><path fill="#fed500" d="m105.422 268.965-14.492 7.62 2.82-32.425Zm0 0"/><path fill="#641487" d="m105.422 268.965 8.023-4.824 1.012 10.386Zm0 0"/><path fill="#661684" d="m113.445 264.14-8.023 4.825 1.117-24.29Zm0 0"/><path fill="#fdd500" d="m109.09 283.7 17.082-4.528.21 16.082Zm0 0"/><path fill="#fcd301" d="m126.172 279.172-17.082 4.527 5.367-9.172Zm0 0"/><path fill="#fed600" d="m109.09 283.7-3.668-14.735 9.035 5.562Zm0 0"/><path fill="#7d3370" d="m126.172 279.172.344-11.363 14.23 8.023Zm0 0"/><path fill="#742979" d="m143.398 283.762-17.226-4.59 14.574-3.34Zm0 0"/><path fill="#7b3172" d="m129.367 233.352-17.949-4.704 17.832-7.472ZM129.367 233.352l12.95 23.425-19.547-8.332Zm0 0"/><path fill="#6c2082" d="m182.7 268.656-16.923 16.297-5.418-11.457Zm0 0"/><path fill="#fad103" d="m164.156 304.14 1.621-19.187 13.18 14.934Zm0 0"/><path fill="#fcd302" d="m165.777 284.953 21.961.043-8.781 14.89Zm0 0"/><path fill="#691b83" d="m187.738 284.996-21.96-.043 16.921-16.297Zm0 0"/><path fill="#974b4b" d="m212.406 254.7-2.844 28.023-13.816-27.465Zm0 0"/><path fill="#8b3f5c" d="m209.563 282.723-26.864-14.067 13.047-13.398Zm0 0"/><path fill="#671884" d="m209.563 282.723-21.825 2.273-5.039-16.34Zm0 0"/><path fill="#fcd301" d="m213.766 296.078-4.203-13.355 15.867.566Zm0 0"/><path fill="#fdd500" d="m209.563 282.723 4.203 13.355-26.028-11.082Zm0 0"/><path fill="#9c5b55" d="m195.172 233.469.574 21.789L183 239.234Zm0 0"/><path fill="#77256d" d="m195.746 255.258-.574-21.79 17.234 21.231Zm0 0"/><path fill="#e3b519" d="m165.777 255.871 16.922 12.785-22.34 4.84Zm0 0"/><path fill="#f1c50b" d="m165.777 255.871 15.489-.777 1.433 13.562Zm0 0"/><path fill="#f7d110" d="m153.898 256.512 11.88-.64-5.419 17.624Zm0 0"/><path fill="#f0c006" d="m300.516 234.633 7.933-29.762 26.887 24.766Zm0 0"/><path fill="#f1c60d" d="m243.121 150.988-4.766 19.504-11.78-15.422Zm0 0"/><path fill="#b37945" d="m216.246 172.867-15.355-15.41 25.683-2.387Zm0 0"/><path fill="#5d0d8e" d="m213.766 123.383 2.46-16.051 8.587 14.55Zm0 0"/><path fill="#5f0f8c" d="m216.227 107.332 41.753 9.375-33.168 5.176Zm0 0"/><path fill="#e6cd42" d="m201.332 119.363 12.434 4.02-12.438 12.043Zm0 0"/><path fill="#5e0d8e" d="m201.332 119.363-9.187-4.027 7.285-4.234Zm0 0"/><path fill="#5e0e8e" d="m216.227 107.332-14.895 12.031-1.902-8.261Zm0 0"/><path fill="#5d0d8e" d="m201.332 119.363 14.895-12.031-2.461 16.05Zm0 0"/><path fill="#e6cd43" d="m213.766 123.383 6.523 5.879-18.96 6.164Zm0 0"/><path fill="#5e0e8d" d="m220.29 129.262-6.524-5.88 11.047-1.5Zm0 0"/><path fill="#722477" d="m307.191 45.031-51.175-8.613L316.098.008Zm0 0"/><path fill="#853863" d="M383.996 0v88.246L348.29 42.867Zm0 0"/><path fill="#732374" d="m383.996 88.246-24.773 13.879-10.934-59.258Zm0 0"/><path fill="#752572" d="m307.191 45.031 41.098-2.164-20.867 46.84Zm0 0"/><path fill="#631489" d="m228.578 74.43 57.25 13.96-27.848 28.317Zm0 0"/><path fill="#6a1c83" d="m285.828 88.39-57.25-13.96 27.438-38.012Zm0 0"/><path fill="#61118b" d="m257.98 116.707 40.434 15.102-11.746 18.351Zm0 0"/><path fill="#ecb908" d="m384.008 303.492-18.574-56.047 18.57-8.492Zm0 0"/><path fill="#61118b" d="m357.527 179.176-20.511-5.504 16.554-20.367Zm0 0"/><path fill="#62128a" d="m337.016 173.672-13.38-3.684 3.981-19.316Zm0 0"/><path fill="#641587" d="m323.637 169.988 13.379 3.684-18.696 14.55Zm0 0"/><path fill="#621389" d="m353.57 153.305-16.554 20.367-9.399-23Zm0 0"/><path fill="#e6b40f" d="m384.004 238.953-18.086-12.047 18.078-31.972Zm0 0"/><path fill="#e8b70e" d="m357.074 197.895 8.844 29.011-30.582 2.73Zm0 0"/><path fill="#efbf08" d="m384.008 303.492-13.059-20.347-5.515-35.7Zm0 0"/><path fill="#f2c406" d="m356.984 270.746 13.965 12.399-21.55.546Zm0 0"/><path fill="#f4c504" d="m356.984 270.746-18.656-11.68 27.106-11.62Zm0 0"/><path fill="#f9cd02" d="m338.328 259.066 18.656 11.68-7.586 12.945Zm0 0"/><path fill="#6a1d85" d="m214.36 31.629-31.083-7.004L198.051-.008Zm0 0"/><path fill="#661988" d="m183.277 24.625 31.082 7.004-29.082 24.578Zm0 0"/><path fill="#d4a123" d="m14.473 276.617-.016 25.961-14.48-23.144Zm0 0"/><path fill="#8a4465" d="m41.98 288.266-27.523 14.312.016-25.96Zm0 0"/><path fill="#e1b119" d="m67.605 322.578-53.148-20 27.523-14.312Zm0 0"/><path fill="#5b0a90" d="m0 384 .004-61.867 47.832 27.535Zm0 0"/><path fill="#5e0d8e" d="m.004 322.133 14.453-19.555 33.379 47.09Zm0 0"/><path fill="#efc30d" d="m67.605 322.578 29.196-18.39 5.566 29.203Zm0 0"/><path fill="#be8638" d="m96.8 304.188-29.195 18.39 1.36-26.078Zm0 0"/><path fill="#5b0a90" d="M0 207.871V151.27l35.45 41.207ZM60.137 126.316l-9.89 28.989-14.802-37.856Zm0 0"/><path fill="#5b0a90" d="m50.246 155.305 22.461-22 3.477 7.398Zm0 0"/><path fill="#fcd402" d="m72.707 133.305 12.8-6.328-9.323 13.726Zm0 0"/><path fill="#5b0a90" d="m60.137 126.316 12.57 6.989-22.46 22ZM77.977 156.398l-27.73-1.093 25.937-14.602Zm0 0"/><path fill="#fed600" d="m85.508 126.977 6.414 10.535-15.738 3.191Zm0 0"/><path fill="#5b0b90" d="m91.922 137.512-6.414-10.535 16.68-7.086Zm0 0"/><path fill="#bf8738" d="m164.547 185.984 29.683 1.914-19.05 17.457Zm0 0"/><path fill="#874169" d="m127.46 189.84-7.944-11.395 7.808-16.011Zm0 0"/><path fill="#5b0a90" d="m79.54 170.785-12.09 16.586-17.204-32.066Zm0 0"/><path fill="#fad103" d="m119.516 178.445-7.543 1.532-5.035-12.786Zm0 0"/><path fill="#fed600" d="m111.973 179.977-8.93 1.773 3.894-14.559Zm0 0"/><path fill="#5b0a90" d="m67.45 187.371-4.555 22.84-27.446-17.734Zm0 0"/><path fill="#5b0a90" d="m62.895 210.21-30.38 26.696 2.934-44.43Zm0 0"/><path fill="#fed500" d="m65.816 232.68.246.367-32.16 17.562Zm0 0"/><path fill="#fdd400" d="m32.516 236.906 33.3-4.226-31.914 17.93Zm0 0"/><path fill="#5c0c8e" d="m66.063 233.047-.247-.367 15.13-11.559Zm0 0"/><path fill="#5b0a90" d="m65.816 232.68-2.921-22.47 18.05 10.911Zm0 0"/><path fill="#5b0a90" d="m62.895 210.21 2.921 22.47-33.3 4.226Zm0 0"/><path fill="#691b84" d="m175.156 317.762-6.976 12.61-13.387-9.255Zm0 0"/><path fill="#6b1e81" d="m168.18 330.371 6.976-12.61 19.551 26.442Zm0 0"/><path fill="#fed600" d="m211.277 312.313-36.12 5.449 3.8-17.875Zm0 0"/><path fill="#691c83" d="m194.707 344.203-19.55-26.441 36.12-5.45Zm0 0"/><path fill="#fdd500" d="m175.156 317.762-11-13.621 14.801-4.254Zm0 0"/><path fill="#fad104" d="m175.156 317.762-20.363 3.355 9.363-16.976Zm0 0"/><path fill="#f9cf04" d="m304.535 275.914 11.48 13.82-22.417 5.493Zm0 0"/><path fill="#762973" d="m304.535 275.914 14.004-.039-2.523 13.86Zm0 0"/><path fill="#6f1f7a" d="m370.95 283.145-24.802 30.02 3.25-29.474Zm0 0"/><path fill="#7e316b" d="m346.148 313.164-19.164-23.02 22.414-6.453Zm0 0"/><path fill="#d29e27" d="m230.625 335.453 34.445-24.117 23.274 11.398Zm0 0"/><path fill="#fbd202" d="m266.176 298.777-14.754 5.114-3.836-22.93Zm0 0"/><path fill="#631488" d="m229.516 307.691 21.906-3.8-20.797 31.562Zm0 0"/><path fill="#c38c33" d="m251.422 303.89 13.648 7.446-34.445 24.117Zm0 0"/><path fill="#6f237e" d="m265.07 311.336-13.648-7.445 14.754-5.114Zm0 0"/><path fill="#5f0c89" d="m226.7 267.512 9.6 11.343-10.87 4.434Zm0 0"/><path fill="#fcd201" d="m289.77 249.453-14.547 7.707-1.422-27.574Zm0 0"/><path fill="#6f1e75" d="m275.223 257.16-12.977-11.273 11.555-16.301Zm0 0"/><path fill="#fdd400" d="m300.516 234.633-10.746 14.82-15.97-19.867Zm0 0"/><path fill="#5f0b87" d="m224.648 218.383 23.239 7.629-8.383 24.476Zm0 0"/><path fill="#a5684f" d="m183.582 227.473-9.047-8.692 21.04-7.344Zm0 0"/><path fill="#a7694e" d="m195.172 233.469-11.59-5.996 11.992-16.036Zm0 0"/><path fill="#8a4466" d="m183.582 227.473 11.59 5.996L183 239.234Zm0 0"/><path fill="#bc833a" d="m154.793 321.117 13.387 9.254-14.89 22.195Zm0 0"/><path fill="#cd982b" d="m121.023 340.281-21.699 15.164 3.043-22.054Zm0 0"/><path fill="#8c4864" d="m154.793 321.117-33.77 19.164 7.649-26.953Zm0 0"/><path fill="#fed600" d="m128.672 313.328-31.871-9.14 29.582-8.934Zm0 0"/><path fill="#fed600" d="m96.8 304.188 12.29-20.489 17.293 11.555Zm0 0"/><path fill="#fdd400" d="m93.75 244.16 17.668-15.512-4.879 16.028Zm0 0"/><path fill="#fed600" d="m109.09 283.7-18.16-7.114 14.492-7.621ZM68.965 296.5l21.965-19.914 5.87 27.601Zm0 0"/><path fill="#fed600" d="m90.93 276.586 18.16 7.113-12.29 20.488Zm0 0"/><path fill="#e7b712" d="m142.316 256.777-15.8 11.032-3.746-19.364Zm0 0"/><path fill="#a47168" d="m165.777 255.871-11.879.64 6.864-26.777Zm0 0"/><path fill="#e8cb36" d="m153.898 256.512-11.582.265 8.461-24.964Zm0 0"/><path fill="#e5c83a" d="m160.762 229.734-6.864 26.778-3.12-24.7Zm0 0"/><path fill="#e4c53b" d="m142.316 256.777-1.273-28.011 9.734 3.047Zm0 0"/><path fill="#985759" d="m141.043 228.766-11.676 4.586-.117-12.176Zm0 0"/><path fill="#853e6a" d="m129.367 233.352 11.676-4.586 1.273 28.011Zm0 0"/><path fill="#650f7d" d="m239.504 250.488-27.098 4.211 12.242-36.316Zm0 0"/><path fill="#5e0d8d" d="m334.36 200.172 23.167-20.996-.453 18.719Zm0 0"/><path fill="#641488" d="m318.32 188.223 16.04 11.949-25.91 4.7Zm0 0"/><path fill="#edbd0b" d="m334.36 200.172 22.714-2.277-21.738 31.742Zm0 0"/><path fill="#edbc09" d="m308.45 204.871 25.91-4.7.976 29.466Zm0 0"/><path fill="#651587" d="m337.016 173.672-2.657 26.5-16.039-11.95Zm0 0"/><path fill="#60108c" d="m334.36 200.172 2.656-26.5 20.511 5.504Zm0 0"/><path fill="#ddac1d" d="m306.566 173.184 17.07-3.196-5.316 18.235Zm0 0"/><path fill="#bc833b" d="m299.73 186.074 6.836-12.89 11.754 15.039Zm0 0"/><path fill="#fad106" d="m238.355 170.492 17.688-5.797-7.39 14.524Zm0 0"/><path fill="#fbd203" d="m256.043 164.695-17.688 5.797 4.766-19.504Zm0 0"/><path fill="#60118b" d="m259.953 145.355-1.973-28.648 28.688 33.453Zm0 0"/><path fill="#5e0e8d" d="m235.34 136.918-15.05-7.656 4.523-7.38Zm0 0"/><path fill="#b67e45" d="m200.89 157.457 22.926-11.926 2.758 9.54Zm0 0"/><path fill="#96565f" d="m200.89 157.457 15.356 15.41-22.016 15.031Zm0 0"/><path fill="#fdd604" d="m192.145 115.336 3.03 8.21-7.73 3.825Zm0 0"/><path fill="#f2c80f" d="m201.332 119.363-6.156 4.184-3.031-8.211Zm0 0"/><path fill="#f3d21e" d="m195.176 123.547 6.152 11.879-13.883-8.055Zm0 0"/><path fill="#f6d316" d="m195.176 123.547 6.156-4.184-.004 16.063Zm0 0"/><path fill="#651787" d="M228.578 74.43 214.36 31.629l41.657 4.789Zm0 0"/><path fill="#5f0f8d" d="m159.61 106.723-5.262-34.36 36.09 16.711Zm0 0"/><path fill="#62138b" d="m154.348 72.363 30.93-16.156 5.16 32.867Zm0 0"/><path fill="#61128b" d="m122.344 98.32 32.004-25.957 5.261 34.36Zm0 0"/><path fill="#5d0d8e" d="m192.145 115.336-1.708-26.262 8.993 22.028Zm0 0"/><path fill="#661888" d="m228.578 74.43-43.3-18.223 29.081-24.578Zm0 0"/><path fill="#62138b" d="m228.578 74.43-38.14 14.644-5.16-32.867Zm0 0"/><path fill="#712479" d="m359.223 102.125-31.801-12.418 20.867-46.84Zm0 0"/><path fill="#6e1f7a" d="m307.191 45.031-21.363 43.36-29.812-51.973Zm0 0"/><path fill="#702077" d="m285.828 88.39 21.363-43.359 20.23 44.676Zm0 0"/><path fill="#edba06" d="m365.434 247.445.484-20.539 18.086 12.047Zm0 0"/><path fill="#f0c005" d="m338.328 259.066-2.992-29.43 30.098 17.81Zm0 0"/><path fill="#f0c005" d="m365.434 247.445-30.098-17.808 30.582-2.73Zm0 0"/><path fill="#f1c105" d="m356.984 270.746 8.45-23.3 5.515 35.699Zm0 0"/><path fill="#62148a" d="m150.559 36.266 3.789 36.097L104.93 57.72Zm0 0"/><path fill="#62138b" d="m154.348 72.363-3.79-36.097 34.72 19.941Zm0 0"/><path fill="#f3c809" d="m96.8 304.188 24.223 36.093-18.656-6.89Zm0 0"/><path fill="#9a5958" d="m121.023 340.281-24.222-36.094 31.87 9.141Zm0 0"/><path fill="#5b0a90" d="m71.074 122.758 1.633 10.547-12.57-6.989Zm0 0"/><path fill="#fed600" d="m72.707 133.305-1.633-10.547 14.434 4.219Zm0 0"/><path fill="#5b0a90" d="m63.137 103.273 7.937 19.485-10.937 3.558Zm0 0"/><path fill="#fed600" d="m71.074 122.758-7.937-19.485 17.828 11.016Zm0 0"/><path fill="#fed600" d="m85.508 126.977-14.434-4.22 9.89-8.468Zm0 0"/><path fill="#fdd504" d="m171.938 123.637 20.207-8.301-4.7 12.035Zm0 0"/><path fill="#5f108c" d="m192.145 115.336-32.536-8.613 30.828-17.649Zm0 0"/><path fill="#5e0e8d" d="m171.938 123.637-12.329-16.914 32.536 8.613Zm0 0"/><path fill="#d4a125" d="m147.64 179.781-5.84 9.84-4.343-24.902Zm0 0"/><path fill="#fed600" d="m147.64 179.781 5.735-18.816 11.172 25.02ZM103.043 181.75l-11.055-14.625 14.95.066ZM91.922 137.512l-4.664 13.297-11.074-10.106Zm0 0"/><path fill="#5b0a90" d="m106.148 139.848-14.226-2.336 10.266-17.621Zm0 0"/><path fill="#5f0f8d" d="m106.148 139.848-3.96-19.957 27.585 10.472Zm0 0"/><path fill="#fed600" d="m101.895 193.004-15.493-9.961 16.641-1.293ZM111.973 179.977l4.078 9.09-13.008-7.317Zm0 0"/><path fill="#fdd501" d="m101.895 193.004 14.156-3.938-2.215 21.454Zm0 0"/><path fill="#fed600" d="m116.05 189.066-14.155 3.938 1.148-11.254Zm0 0"/><path fill="#8e4761" d="m194.707 344.203 35.918-8.75-1.805 48.531Zm0 0"/><path fill="#c38b33" d="m203.684 383.984-8.977-39.78 34.113 39.78Zm0 0"/><path fill="#5c0b8f" d="m194.707 344.203 8.977 39.781-50.395-31.418Zm0 0"/><path fill="#b07445" d="m168.18 330.371 26.527 13.832-41.418 8.363Zm0 0"/><path fill="#cb972e" d="m160.36 273.496-16.962 10.266-2.652-7.93Zm0 0"/><path fill="#6c1f82" d="m143.398 283.762 16.961-10.266 5.418 11.457Zm0 0"/><path fill="#f8cd04" d="m318.54 275.875-14.005.04 3.953-19.79Zm0 0"/><path fill="#fdd501" d="m237.16 285.922 14.262 17.969-21.906 3.8Zm0 0"/><path fill="#fcd302" d="m237.16 285.922-7.644 21.77-4.086-24.403Zm0 0"/><path fill="#c38931" d="m236.3 278.855.86 7.067-11.73-2.633Zm0 0"/><path fill="#c9932d" d="m237.16 285.922-.86-7.067 11.286 2.106Zm0 0"/><path fill="#fbd202" d="m251.422 303.89-14.262-17.968 10.426-4.961Zm0 0"/><path fill="#fdd501" d="m259.902 280.578 6.274 18.2-18.59-17.817Zm0 0"/><path fill="#620e84" d="m209.563 282.723 17.136-15.211-1.27 15.777Zm0 0"/><path fill="#772369" d="m226.7 267.512-17.137 15.21 2.843-28.023Zm0 0"/><path fill="#c07d26" d="m226.7 267.512-14.294-12.813 27.098-4.21Zm0 0"/><path fill="#813466" d="m260.563 261.023 1.683-15.136 12.977 11.273Zm0 0"/><path fill="#9a534f" d="m260.563 261.023-21.06-10.535 22.743-4.601Zm0 0"/><path fill="#f6c903" d="m308.488 256.125-7.972-21.492 34.82-4.996Zm0 0"/><path fill="#fad003" d="m308.488 256.125-3.953 19.79-24.289-7.169Zm0 0"/><path fill="#fcd301" d="m289.77 249.453 18.718 6.672-28.242 12.621Zm0 0"/><path fill="#fcd301" d="m300.516 234.633 7.972 21.492-18.718-6.672Zm0 0"/><path fill="#f7cc04" d="m300.516 234.633-26.715-5.047 18.238-9.836Zm0 0"/><path fill="#d29e27" d="m318.32 188.223-24.3 11.343 5.71-13.492Zm0 0"/><path fill="#d6a323" d="m294.02 199.566 24.3-11.343-9.87 16.648Zm0 0"/><path fill="#5d0c8f" d="m258.703 184.281 10.14 1.086-.636 7.57Zm0 0"/><path fill="#e1b11a" d="m258.75 196.195-.047-11.914 9.504 8.656Zm0 0"/><path fill="#bf883a" d="m258.703 184.281.047 11.914-8.04 2.868Zm0 0"/><path fill="#5c0b8f" d="m268.844 185.367 7.73 2.192-8.367 5.379Zm0 0"/><path fill="#5e0d8c" d="m245.895 210.523 1.992 15.489-23.239-7.63Zm0 0"/><path fill="#95515a" d="m247.887 226.012 24.742 2.265-10.383 17.61Zm0 0"/><path fill="#610d85" d="m247.887 226.012 14.36 19.875-22.743 4.601Zm0 0"/><path fill="#6c1a7b" d="m195.172 233.469 29.476-15.086-12.242 36.316Zm0 0"/><path fill="#71247c" d="m224.648 218.383-29.476 15.086.402-22.031Zm0 0"/><path fill="#651787" d="m135.977 384-14.954-43.719 32.266 12.285Zm0 0"/><path fill="#b57a40" d="m99.324 355.445 21.7-15.164L135.976 384Zm0 0"/><path fill="#f9cf05" d="m121.023 340.281 33.77-19.164-1.504 31.45Zm0 0"/><path fill="#772b74" d="m126.516 267.809-.344 11.363-11.715-4.645Zm0 0"/><path fill="#772973" d="m113.445 264.14 13.07 3.669-12.058 6.718Zm0 0"/><path fill="#b3743c" d="m122.77 248.445 3.746 19.364-13.07-3.668Zm0 0"/><path fill="#6f1e78" d="m111.418 228.648 11.352 19.797-16.23-3.77Zm0 0"/><path fill="#7a2f72" d="m129.367 233.352-6.597 15.093-11.352-19.797Zm0 0"/><path fill="#c68726" d="m122.77 248.445-9.325 15.696-6.906-19.465Zm0 0"/><path fill="#fdd500" d="m66.063 233.047 14.195 8.02-7.121 22.242Zm0 0"/><path fill="#fdd400" d="m80.258 241.066 13.492 3.094-20.613 19.149Zm0 0"/><path fill="#5b0a90" d="m93.703 200.598 1.586 26.87-14.344-6.347Zm0 0"/><path fill="#fed600" d="m93.75 244.16 1.54-16.691 16.128 1.18Zm0 0"/><path fill="#5b0b90" d="m111.418 228.648-16.129-1.18 18.547-16.948Zm0 0"/><path fill="#5b0a90" d="m95.29 227.469-1.587-26.871 20.133 9.922Zm0 0"/><path fill="#c8912e" d="m126.516 267.809 17.41-2.778-3.18 10.801Zm0 0"/><path fill="#cf9927" d="m142.316 256.777 1.61 8.254-17.41 2.778Zm0 0"/><path fill="#fcd404" d="m143.926 265.031 16.433 8.465-19.613 2.336Zm0 0"/><path fill="#fad40a" d="m143.926 265.031-1.61-8.254 11.582-.265Zm0 0"/><path fill="#fcd505" d="m160.36 273.496-16.434-8.465 9.972-8.52Zm0 0"/><path fill="#904c61" d="m165.777 255.871 7.754-15.262 7.735 14.485Zm0 0"/><path fill="#b39178" d="m173.531 240.61-7.754 15.261-5.015-26.137Zm0 0"/><path fill="#934f5e" d="m181.266 255.094-7.735-14.485 9.469-1.375Zm0 0"/><path fill="#9d6a70" d="m183.582 227.473-7.39 4.488-1.657-13.18Zm0 0"/><path fill="#874069" d="m176.191 231.96 7.391-4.487-.582 11.761Zm0 0"/><path fill="#965661" d="m173.531 240.61 2.66-8.65 6.809 7.274Zm0 0"/><path fill="#b87e3e" d="m93.703 200.598 8.192-7.594 11.94 17.516Zm0 0"/><path fill="#edc00f" d="m306.566 173.184 6.13-15.438 10.94 12.242Zm0 0"/><path fill="#5e0e8d" d="m259.953 145.355-3.91 19.34-12.922-13.707Zm0 0"/><path fill="#f7d315" d="m177.746 145.383-5.809-21.746 15.508 3.734Zm0 0"/><path fill="#732879" d="m239.309-.008 76.789.016-60.082 36.41Zm0 0"/><path fill="#6d2284" d="m239.309-.008-24.95 31.637L198.051-.008Zm0 0"/><path fill="#70257f" d="m256.016 36.418-41.657-4.79L239.31-.007Zm0 0"/><path fill="#5e0e8e" d="m190.438 89.074 25.789 18.258-16.797 3.77Zm0 0"/><path fill="#62128a" d="m216.227 107.332 12.351-32.902 29.402 42.277Zm0 0"/><path fill="#61128b" d="m228.578 74.43-12.351 32.902-25.79-18.258Zm0 0"/><path fill="#641588" d="m257.98 116.707 27.848-28.316 12.586 43.418Zm0 0"/><path fill="#691981" d="m285.828 88.39 34.973 37.083-22.387 6.336Zm0 0"/><path fill="#6d207e" d="m285.828 88.39 41.594 1.317-6.621 35.766Zm0 0"/><path fill="#691a83" d="m314.922 137.734-7.668 9.121-8.84-15.046Zm0 0"/><path fill="#651685" d="m320.8 125.473-5.878 12.261-16.508-5.925Zm0 0"/><path fill="#65198c" d="m161.879.004 21.398 24.621-32.718 11.64Zm0 0"/><path fill="#63168c" d="m150.559 36.266 32.718-11.641 2 31.582Zm0 0"/><path fill="#fed600" d="m141.8 189.621 22.747-3.637-19 20.407Zm0 0"/><path fill="#fed500" d="m141.8 189.621 5.84-9.84 16.907 6.203Zm0 0"/><path fill="#5d0d8e" d="m153.785 130.309 5.824-23.586 12.328 16.914Zm0 0"/><path fill="#caa755" d="m159.547 140.676-5.762-10.367 18.153-6.672Zm0 0"/><path fill="#fdd401" d="m91.988 167.125 5.899-15.105 9.05 15.171Zm0 0"/><path fill="#fed600" d="m97.887 152.02-5.899 15.105-4.73-16.316Zm0 0"/><path fill="#f4ca0a" d="m77.977 156.398 14.011 10.727-12.449 3.66Zm0 0"/><path fill="#f2c70c" d="m91.988 167.125-14.011-10.727 9.28-5.59Zm0 0"/><path fill="#5b0a90" d="m77.977 156.398 1.562 14.387-29.293-15.48Zm0 0"/><path fill="#f9d005" d="m87.258 150.809-9.281 5.59-1.793-15.696Zm0 0"/><path fill="#bc833a" d="m127.324 162.434 14.793-18.383-4.66 20.668Zm0 0"/><path fill="#5e0d8e" d="m142.117 144.05-14.793 18.384 2.45-32.07Zm0 0"/><path fill="#fed600" d="m119.516 178.445-3.465 10.621-4.078-9.09Zm0 0"/><path fill="#d8a722" d="m159.547 140.676-6.172 20.289-11.258-16.914Zm0 0"/><path fill="#e0b01b" d="m142.117 144.05 11.258 16.915-15.918 3.754Zm0 0"/><path fill="#dcac1e" d="m153.375 160.965-5.734 18.816-10.184-15.062Zm0 0"/><path fill="#fed600" d="m97.887 152.02-10.63-1.211 4.665-13.297Zm0 0"/><path fill="#5b0a90" d="m106.148 139.848-8.261 12.172-5.965-14.508ZM86.402 183.043l-18.953 4.328 12.09-16.586Zm0 0"/><path fill="#f7cd06" d="m91.988 167.125-5.586 15.918-6.863-12.258Zm0 0"/><path fill="#fed600" d="m86.402 183.043 5.586-15.918 11.055 14.625Zm0 0"/><path fill="#ae7247" d="m93.703 200.598-7.3-17.555 15.492 9.96Zm0 0"/><path fill="#5b0a90" d="m86.402 183.043 7.301 17.555L67.45 187.37ZM62.895 210.21l30.808-9.612-12.758 20.523Zm0 0"/><path fill="#5b0a90" d="m93.703 200.598-30.808 9.613 4.554-22.84Zm0 0"/><path fill="#fdd401" d="m278.703 280.934 25.832-5.02-10.937 19.313Zm0 0"/><path fill="#aa6c4a" d="m304.535 275.914-25.832 5.02 1.543-12.188Zm0 0"/><path fill="#fdd500" d="m278.148 299.125.555-18.191 14.895 14.293Zm0 0"/><path fill="#833b6c" d="m288.344 322.734-10.196-23.609 15.45-3.898Zm0 0"/><path fill="#6e217e" d="m278.148 299.125 10.196 23.61-23.274-11.4Zm0 0"/><path fill="#f9cf04" d="m289.77 249.453-9.524 19.293-5.023-11.586Zm0 0"/><path fill="#600e88" d="m236.3 278.855 7.81-10.894 3.476 13Zm0 0"/><path fill="#630f83" d="m226.7 267.512 17.41.449-7.81 10.894Zm0 0"/><path fill="#621084" d="m244.11 267.96-17.41-.448 12.804-17.024Zm0 0"/><path fill="#6b1b7d" d="m260.563 261.023-16.454 6.938-4.605-17.473Zm0 0"/><path fill="#5c0b8d" d="m269.3 270.89-8.738-9.867 14.66-3.863Zm0 0"/><path fill="#600f8a" d="m280.246 268.746-10.945 2.145 5.922-13.73Zm0 0"/><path fill="#ab6e48" d="m269.3 270.89 9.403 10.044-12.945-2.442Zm0 0"/><path fill="#8d4863" d="m269.3 270.89 10.946-2.144-1.543 12.188Zm0 0"/><path fill="#fbd304" d="m299.73 186.074-5.71 13.492-3.082-12.578Zm0 0"/><path fill="#efbf07" d="m292.04 219.75 16.41-14.879-7.934 29.762Zm0 0"/><path fill="#762b77" d="m292.04 219.75 1.98-20.184 14.43 5.305Zm0 0"/><path fill="#72267a" d="m294.02 199.566-1.98 20.184-15.548-10.11Zm0 0"/><path fill="#fcd505" d="m258.75 196.195-3.473 6.207-4.566-3.34Zm0 0"/><path fill="#fed601" d="m255.277 202.402-9.382 8.121 4.816-11.46Zm0 0"/><path fill="#fdd601" d="m255.277 202.402 12.149 2.25-21.531 5.871Zm0 0"/><path fill="#fed600" d="m267.426 204.652-12.149-2.25 3.473-6.207Zm0 0"/><path fill="#fed602" d="m267.426 204.652-8.676-8.457 9.457-3.257Zm0 0"/><path fill="#fbd305" d="m242.363 196.617 16.34-12.336-7.992 14.781Zm0 0"/><path fill="#5b0a90" d="m242.363 196.617-4.008-26.125 10.297 8.727Zm0 0"/><path fill="#5d0d8e" d="m258.703 184.281-16.34 12.336 6.29-17.398Zm0 0"/><path fill="#fed600" d="m294.02 199.566-12.95-4.16 9.868-8.418Zm0 0"/><path fill="#fdd501" d="m281.07 195.406 12.95 4.16-17.528 10.075Zm0 0"/><path fill="#641687" d="m272.629 228.277-24.742-2.265 28.605-16.371Zm0 0"/><path fill="#f9d004" d="m267.426 204.652-19.54 21.36-1.991-15.489Zm0 0"/><path fill="#fed600" d="m128.672 313.328 18.465-13.176 7.656 20.965Zm0 0"/><path fill="#fed600" d="m147.137 300.152-18.465 13.176-2.29-18.074ZM154.793 321.117l-7.656-20.965 17.02 3.989Zm0 0"/><path fill="#fcd402" d="m147.137 300.152 18.64-15.199-1.62 19.188Zm0 0"/><path fill="#fed600" d="m147.137 300.152-3.739-16.39 22.38 1.191Zm0 0"/><path fill="#fed600" d="m147.137 300.152-20.754-4.898 17.015-11.492Zm0 0"/><path fill="#5b0b8f" d="m83.379 230.813-17.317 2.234 14.883-11.926Zm0 0"/><path fill="#fad003" d="m83.379 230.813-3.121 10.253-14.195-8.02Zm0 0"/><path fill="#fed600" d="m80.258 241.066 3.12-10.254L93.75 244.16Zm0 0"/><path fill="#5b0a90" d="m95.29 227.469-11.911 3.344-2.434-9.692Zm0 0"/><path fill="#fed600" d="m83.379 230.813 11.91-3.344-1.539 16.691Zm0 0"/><path fill="#eccf32" d="m149.84 220.578 9.703-8.613 1.219 17.77Zm0 0"/><path fill="#f2d222" d="m149.84 220.578-4.293-14.187 13.996 5.574Zm0 0"/><path fill="#ba8d58" d="m159.543 211.965 5.004-25.98 10.633 19.37Zm0 0"/><path fill="#fbd408" d="m164.547 185.984-5.004 25.98-13.996-5.573Zm0 0"/><path fill="#ac8c87" d="m160.762 229.734 15.43 2.227-2.66 8.648Zm0 0"/><path fill="#cdc489" d="m159.543 211.965 14.992 6.816-13.773 10.953Zm0 0"/><path fill="#c5b98d" d="m174.535 218.781 1.656 13.18-15.43-2.227Zm0 0"/><path fill="#ccc187" d="m174.535 218.781-14.992-6.816 15.637-6.61Zm0 0"/><path fill="#661886" d="m113.836 210.52 2.215-21.454 11.41.774Zm0 0"/><path fill="#94515e" d="m116.05 189.066 3.466-10.62 7.945 11.394Zm0 0"/><path fill="#c38c34" d="m141.8 189.621 3.747 16.77-12.36-.13Zm0 0"/><path fill="#bb8441" d="m145.547 206.39-5.727 11.165-6.632-11.293Zm0 0"/><path fill="#b87e3e" d="m127.46 189.84 14.34-.219-8.613 16.64Zm0 0"/><path fill="#7a3174" d="m113.836 210.52 13.625-20.68 5.727 16.422Zm0 0"/><path fill="#f2c70a" d="m312.695 157.746 14.922-7.074-3.98 19.316Zm0 0"/><path fill="#fed600" d="m327.617 150.672-14.922 7.074-5.441-10.89Zm0 0"/><path fill="#fdd501" d="m314.922 137.734 12.695 12.938-20.363-3.817Zm0 0"/><path fill="#fed600" d="m281.07 195.406 3.235-12.672 6.632 4.254Zm0 0"/><path fill="#fed600" d="m284.305 182.734-3.235 12.672-4.496-7.847ZM284.305 182.734l6.968-6.761-.336 11.015Zm0 0"/><path fill="#fed600" d="m290.938 186.988.335-11.015 8.457 10.101ZM291.273 175.973l15.293-2.79-6.836 12.891Zm0 0"/><path fill="#fcd302" d="m291.273 175.973 2.66-8.485 12.633 5.696Zm0 0"/><path fill="#651686" d="m307.254 146.855-20.586 3.305 11.746-18.351Zm0 0"/><path fill="#5b0a90" d="m274.375 169.957 2.2 17.602-7.731-2.192Zm0 0"/><path fill="#5c0c8f" d="m284.305 182.734-9.93-12.777 10.297-.094Zm0 0"/><path fill="#5c0b90" d="m274.375 169.957 9.93 12.777-7.73 4.825Zm0 0"/><path fill="#5e0e8e" d="m257.98 116.707-22.64 20.211-10.528-15.035Zm0 0"/><path fill="#f2d222" d="m235.34 136.918-11.524 8.613-3.527-16.27Zm0 0"/><path fill="#f1c70e" d="m223.816 145.531 19.305 5.457-16.547 4.082Zm0 0"/><path fill="#f8d10a" d="m223.816 145.531 11.524-8.613 7.781 14.07Zm0 0"/><path fill="#e3cc4a" d="m223.816 145.531-22.488-10.105 18.961-6.164Zm0 0"/><path fill="#c39c58" d="m201.328 135.426 22.488 10.105-22.925 11.926Zm0 0"/><path fill="#fdd602" d="m201.328 135.426-23.582 9.957 9.7-18.012Zm0 0"/><path fill="#fed600" d="m177.746 145.383 23.582-9.957-.437 22.031Zm0 0"/><path fill="#6b1c7f" d="m344.172 111.191-16.75-21.484 31.8 12.418Zm0 0"/><path fill="#671782" d="m327.422 89.707 16.75 21.484-23.371 14.282Zm0 0"/><path fill="#5d0d8e" d="m153.785 130.309-24.012.054 29.836-23.64Zm0 0"/><path fill="#5f0f8d" d="m159.61 106.723-29.837 23.64-7.43-32.043Zm0 0"/><path fill="#fed601" d="m153.375 160.965 24.371-15.582-13.2 40.601Zm0 0"/><path fill="#fdd603" d="m153.375 160.965 6.172-20.29 18.2 4.708Zm0 0"/><path fill="#e0b01b" d="m164.547 185.984 36.344-28.527-6.66 30.441Zm0 0"/><path fill="#fad50c" d="m177.746 145.383-18.2-4.707 12.392-17.04Zm0 0"/><path fill="#5d0d8e" d="m115.504 157.824 11.82 4.61-7.808 16.011ZM115.504 157.824l4.012 20.621-12.579-11.254Zm0 0"/><path fill="#5f0f8d" d="m97.887 152.02 17.617 5.804-8.567 9.367Zm0 0"/><path fill="#5d0d8e" d="m127.324 162.434-11.82-4.61 14.27-27.46Zm0 0"/><path fill="#fcd302" d="m278.703 280.934-12.527 17.843-.418-20.285Zm0 0"/><path fill="#fed500" d="m278.148 299.125-11.972-.348 12.527-17.843Zm0 0"/><path fill="#fdd500" d="m266.176 298.777-6.274-18.199 5.856-2.086Zm0 0"/><path fill="#70247d" d="m266.176 298.777 11.972.348-13.078 12.21Zm0 0"/><path fill="#a16151" d="m258.691 273.426 1.211 7.152-12.316.383Zm0 0"/><path fill="#5d0c8d" d="m244.11 267.96 14.581 5.466-11.105 7.535Zm0 0"/><path fill="#b97f3d" d="m259.902 280.578-1.21-7.152 7.066 5.066Zm0 0"/><path fill="#5f0e8c" d="m258.691 273.426 10.61-2.535-3.543 7.601Zm0 0"/><path fill="#5e0c8a" d="m258.691 273.426-14.582-5.465 16.453-6.938Zm0 0"/><path fill="#5d0b8d" d="m269.3 270.89-10.609 2.536 1.872-12.403Zm0 0"/><path fill="#b37844" d="m245.895 210.523-3.532-13.906 8.348 2.446Zm0 0"/><path fill="#fed601" d="m276.574 187.559 4.496 7.847-12.863-2.469ZM281.07 195.406l-13.644 9.246.781-11.714Zm0 0"/><path fill="#fdd501" d="m276.492 209.64-28.605 16.372 19.539-21.36Zm0 0"/><path fill="#fdd602" d="m281.07 195.406-4.578 14.235-9.066-4.989Zm0 0"/><path fill="#97555b" d="m216.246 172.867 3.457 21.168-25.473-6.137Zm0 0"/><path fill="#61118b" d="m194.23 187.898 25.473 6.137-24.129 17.403Zm0 0"/><path fill="#7d3b7f" d="m219.703 194.035 4.945 24.348-29.074-6.946Zm0 0"/><path fill="#edd030" d="m150.777 231.813-.937-11.235 10.922 9.156Zm0 0"/><path fill="#823b6e" d="m129.25 221.176-15.414-10.656 19.352-4.258Zm0 0"/><path fill="#97565b" d="m139.82 217.555-10.57 3.62 3.938-14.913Zm0 0"/><path fill="#fed600" d="m300.598 158.262 12.097-.516-6.129 15.438Zm0 0"/><path fill="#fdd401" d="m293.934 167.488 6.664-9.226 5.968 14.922Zm0 0"/><path fill="#fed600" d="m312.695 157.746-12.097.516 6.656-11.407Zm0 0"/><path fill="#661886" d="m300.598 158.262-13.93-8.102 20.586-3.305Zm0 0"/><path fill="#641588" d="m286.668 150.16 13.93 8.102-6.664 9.226Zm0 0"/><path fill="#5f0f8c" d="m286.668 150.16-12.293 19.797-14.422-24.602Zm0 0"/><path fill="#5f0f8d" d="m274.375 169.957-18.332-5.262 3.91-19.34Zm0 0"/><path fill="#60108c" d="m274.375 169.957 12.293-19.797-1.996 19.703Zm0 0"/><path fill="#5e0e8e" d="m235.34 136.918 22.64-20.211 1.973 28.648Zm0 0"/><path fill="#5d0c8f" d="m235.34 136.918 24.613 8.437-16.832 5.633Zm0 0"/><path fill="#681781" d="m353.57 153.305-9.398-42.114 15.05-9.066Zm0 0"/><path fill="#611089" d="m344.172 111.191 9.398 42.114-25.953-2.633Zm0 0"/><path fill="#ebbc0f" d="m314.922 137.734 29.25-26.543-16.555 39.48Zm0 0"/><path fill="#fed500" d="m344.172 111.191-29.25 26.543 5.879-12.261Zm0 0"/><path fill="#ab6e49" d="m141.8 189.621-14.34.219-.136-27.406Zm0 0"/><path fill="#e9bf19" d="m164.547 185.984 13.2-40.601 23.144 12.074Zm0 0"/><path fill="#5e0e8e" d="m115.504 157.824-9.356-17.976 23.625-9.485Zm0 0"/><path fill="#5e0e8d" d="m106.148 139.848 9.356 17.976-17.617-5.804Zm0 0"/><path fill="#edd030" d="m141.043 228.766 8.797-8.188.937 11.234Zm0 0"/><path fill="#edd02f" d="m149.84 220.578-10.02-3.023 5.727-11.164Zm0 0"/><path fill="#e9cd37" d="m141.043 228.766-1.223-11.211 10.02 3.023Zm0 0"/><path fill="#94515e" d="m129.25 221.176 10.57-3.621 1.223 11.21Zm0 0"/><path fill="#61128b" d="m284.672 169.863 1.996-19.703 7.266 17.328Zm0 0"/><path fill="#60108c" d="m284.672 169.863 6.601 6.11-6.968 6.761Zm0 0"/><path fill="#60118c" d="m291.273 175.973-6.601-6.11 9.262-2.375ZM274.375 169.957l-15.672 14.324-2.66-19.586Zm0 0"/><path fill="#5b0a90" d="m258.703 184.281 15.672-14.324-5.531 15.41Zm0 0"/><path fill="#f1c70d" d="m256.043 164.695 2.66 19.586-10.05-5.062Zm0 0"/><path fill="#5c0c8f" d="m129.773 130.363 24.012-.054-11.668 13.742Zm0 0"/><path fill="#b78551" d="m142.117 144.05 11.668-13.741 5.762 10.367Zm0 0"/><path fill="#8b4666" d="m238.355 170.492-18.652 23.543-3.457-21.168Zm0 0"/><path fill="#a26452" d="m238.355 170.492-22.109 2.375 10.328-17.797Zm0 0"/><path fill="#80396f" d="m238.355 170.492 4.008 26.125-22.66-2.582Zm0 0"/><path fill="#681a84" d="m219.703 194.035 22.66 2.582-17.715 21.766Zm0 0"/><path fill="#5e0e8d" d="m224.648 218.383 17.715-21.766 3.532 13.906Zm0 0"/></svg>