<svg xmlns="http://www.w3.org/2000/svg" width="512" height="512" viewBox="0 0 384 384"><path fill="#f6c5b4" d="m50.64 259.188 6.594 33.527-25.34-7.024Zm0 0"/><path fill="#4a2f2d" d="m219.176 256.227 8.105-24.817 16.04 19.348Zm0 0"/><path fill="#4a7049" d="m384 216.16-41.324-14.512L384 162.914ZM342.676 201.648l15.773 34.743-24.355 2.586ZM358.45 236.39 384 216.16l-.012 38.227Zm0 0"/><path fill="#4a7049" d="m384 216.16-25.55 20.23-15.774-34.742ZM302.453 225.316l40.223-23.668-8.582 37.329Zm0 0"/><path fill="#9db380" d="m118.664 0 .613 16.71L68.043 0Zm0 0"/><path fill="#f6c5b4" d="m171.184 24.297 14.191 4.726-8.293 9.399Zm0 0"/><path fill="#4a7049" d="m185.375 29.023-14.191-4.726 28.62-13.332ZM209.332 31.273l-23.957-2.25 14.43-18.058Zm0 0"/><path fill="#f6c5b4" d="m185.375 29.023 23.957 2.25-1.816 20.293Zm0 0"/><path fill="#9db380" d="m41.61 91.402 16.796 48.508L0 166.691ZM.016 265.953 0 166.691l47.293 62.762Zm0 0"/><path fill="#f6c5b4" d="m.016 265.953 31.879 19.738L.004 299.375Zm0 0"/><path fill="#9eb481" d="M50.64 259.188.017 265.953l47.277-36.5Zm0 0"/><path fill="#f6c5b4" d="M50.64 259.188 31.896 285.69.015 265.953ZM78.691 276.55l-21.457 16.165-6.593-33.527ZM199.617 372.14l26.633.512-30.918 11.352ZM268.04 345.879l-24.372 12.523 7.215-16.101Zm0 0"/><path fill="#563813" d="m243.668 358.402-11.746-15.222 18.96-.88Zm0 0"/><path fill="#563a0e" d="m231.922 343.18 11.746 15.222-15.555-2.586Zm0 0"/><path fill="#4a714a" d="m301.09 266.363 1.363-41.047 31.64 13.66Zm0 0"/><path fill="#f6c5b4" d="m88.387 329.316 18.898 23.309-29.515-.605Zm0 0"/><path fill="#4a7049" d="m277.91 36.484-33.668 23.641-3-31.855Zm0 0"/><path fill="#497049" d="M309.156 0H384l-45.496 71.719Zm0 0"/><path fill="#cfb19a" d="m227.281 231.41-16.18-10.246 17.2-10.223Zm0 0"/><path fill="#4b3f34" d="m211.102 221.164 8.449-13.586 8.75 3.363Zm0 0"/><path fill="#4a7049" d="m302.254 135.594 7-40.156 32.43 40.613Zm0 0"/><path fill="#9fb481" d="m62.754 184.14 18.137 42.645-33.598 2.668Zm0 0"/><path fill="#9eb380" d="m95.613 186.953-14.722 39.832-18.137-42.644Zm0 0"/><path fill="#9eb380" d="m80.89 226.785 15.57-1.504 7.927 31.461ZM96.46 225.281l-15.57 1.504 14.723-39.832Zm0 0"/><path fill="#d9bda2" d="m190.34 221.633-22.399-20.824 32.91-3.422Zm0 0"/><path fill="#526849" d="m184.96 179.668 19.806 1.836-3.914 15.883Zm0 0"/><path fill="#c9b898" d="m167.941 200.809 17.02-21.141 15.89 17.719Zm0 0"/><path fill="#4a302d" d="m211.828 248.738 15.453-17.328-8.105 24.817Zm0 0"/><path fill="#9db380" d="M119.277 16.71 77.992 28.314 68.043 0Zm0 0"/><path fill="#f6c5b4" d="m164.855 29.91 6.329-5.613 5.898 14.125Zm0 0"/><path fill="#f4c1af" d="m163.41 40.633 1.445-10.723 12.227 8.512Zm0 0"/><path fill="#4a7049" d="m252.508 0-11.266 28.27-41.437-17.305ZM241.242 28.27l-31.91 3.003-9.527-20.308Zm0 0"/><path fill="#9eb380" d="m41.61 91.402-.485-51.136L68.188 58.37Zm0 0"/><path fill="#9eb381" d="M87.324 83.98 41.61 91.402l26.579-33.03Zm0 0"/><path fill="#9eb380" d="m41.61 91.402 45.714-7.422-14.66 27.899Zm0 0"/><path fill="#9db380" d="M41.125 40.266 0 0h68.043ZM90.195 156.137 62.754 184.14l-4.348-44.23Zm0 0"/><path fill="#9eb481" d="m.016 320.434-.012-21.059 35.766 7.266Zm0 0"/><path fill="#f6c5b4" d="m.004 299.375 31.89-13.684 3.876 20.95Zm0 0"/><path fill="#577950" d="M.016 320.434 23.78 340.34 0 353.977Zm0 0"/><path fill="#9bb17f" d="M23.781 340.34.016 320.434 35.77 306.64Zm0 0"/><path fill="#f5c4b2" d="m246.379 195.215 11.879 15.144-29.957.582Zm0 0"/><path fill="#f4c4b2" d="m262.219 192.922-15.84 2.293-.332-8.113Zm0 0"/><path fill="#f6c5b4" d="m246.379 195.215 15.84-2.293-3.961 17.437Zm0 0"/><path fill="#4a714a" d="m280.453 203.188-18.234-10.266 19.527-12.168Zm0 0"/><path fill="#4a7049" d="m262.219 192.922 18.234 10.266-22.195 7.171Zm0 0"/><path fill="#e18c68" d="M250.352 235.879 265 258.402l-21.68-7.644Zm0 0"/><path fill="#4a2e2c" d="m227.281 231.41 23.07 4.469-7.03 14.879Zm0 0"/><path fill="#4a7049" d="m260.363 157.313 41.89-21.72-20.507 45.16Zm0 0"/><path fill="#d7bea6" d="m262.219 192.922-1.856-35.61 21.383 23.442Zm0 0"/><path fill="#4a322e" d="m218.938 177.723-7.16 10.73-7.012-6.95Zm0 0"/><path fill="#f6c5b4" d="m226.25 372.652 28.723 11.352h-59.641Zm0 0"/><path fill="#533828" d="m243.668 358.402-17.418 14.25 1.863-16.836Zm0 0"/><path fill="#f6c5b4" d="m212.46 294.305-13.812 26.504-7.355-25.364ZM198.648 320.809l13.813-26.504 1.84 26.86ZM198.648 320.809l16.829 17.14-12.688 13.551Zm0 0"/><path fill="#f6c5b4" d="m215.477 337.95-16.829-17.141 15.653.355Zm0 0"/><path fill="#4a302c" d="m231.922 343.18-16.445-5.23-1.176-16.786Zm0 0"/><path fill="#9eb481" d="m211.938 258.207-.11-9.469 7.348 7.489Zm0 0"/><path fill="#9fb481" d="m211.828 248.738.11 9.469-16.54.438Zm0 0"/><path fill="#4b342f" d="m229.93 268.805-10.754-12.578 24.144-5.47Zm0 0"/><path fill="#7c3b07" d="m231.922 343.18 8.308-24.645 10.653 23.766Zm0 0"/><path fill="#503214" d="m240.23 318.535-8.308 24.645-17.621-22.016Zm0 0"/><path fill="#a2b382" d="m279.348 312.371-16.078-9.976 21.074-15.957Zm0 0"/><path fill="#f6c5b4" d="m226.25 372.652 26.02-3.3 2.703 14.652ZM252.27 369.352l-8.602-10.95 24.371-12.523Zm0 0"/><path fill="#f6c5b4" d="m252.27 369.352-26.02 3.3 17.418-14.25ZM268.04 345.879l-17.157-3.578 6.61-21.227Zm0 0"/><path fill="#92410d" d="m250.883 342.3-10.653-23.765 17.262 2.54Zm0 0"/><path fill="#f6c5b4" d="m97.215 383.984 47.422-12.511 8.117 12.53ZM159.86 373.86l35.472 10.144h-42.578Zm0 0"/><path fill="#876148" d="m159.86 373.86-5.653-22.31 16.367 6.548Zm0 0"/><path fill="#58473d" d="m85.934 362.473 21.351-9.848-10.07 31.36Zm0 0"/><path fill="#f5c4b3" d="m97.215 383.984 10.07-31.359 37.352 18.848Zm0 0"/><path fill="#4c3d34" d="m77.77 352.02 29.515.605-21.351 9.848Zm0 0"/><path fill="#4a714a" d="m244.242 60.125-12.664-6.91 9.664-24.945Zm0 0"/><path fill="#4a7049" d="m241.242 28.27-9.664 24.945-22.246-21.942Zm0 0"/><path fill="#f6c5b3" d="m185.375 29.023 8.348 31.454-16.641-22.055Zm0 0"/><path fill="#9d3b02" d="m193.723 60.477-8.348-31.454 22.14 22.543Zm0 0"/><path fill="#f6c5b4" d="m201.305 71.535-7.582-11.058 13.793-8.91Zm0 0"/><path fill="#497049" d="m384 97.516-45.496-25.797L384 0Zm0 0"/><path fill="#4a7149" d="m306.965 310.578-27.617 1.793 4.996-25.933Zm0 0"/><path fill="#4e744c" d="m316.488 285.816-9.523 24.762-22.621-24.14Zm0 0"/><path fill="#4d7049" d="m306.965 310.578-20.215 10.524-7.402-8.73Zm0 0"/><path fill="#9cb17e" d="m306.965 310.578 9.523-24.762 11.024 16.567Zm0 0"/><path fill="#4a7049" d="m342.676 201.648-.992-65.597L384 162.914ZM338.504 71.719l3.18 64.332-32.43-40.613Zm0 0"/><path fill="#4a7049" d="m308.406 187.316 33.278-51.265.992 65.597Zm0 0"/><path fill="#4a7149" d="m302.254 135.594 6.152 51.722-26.66-6.562Zm0 0"/><path fill="#4a7049" d="m308.406 187.316-6.152-51.722 39.43.457ZM308.406 187.316l34.27 14.332-40.223 23.668Zm0 0"/><path fill="#4a714a" d="m308.406 187.316-27.953 15.871 1.293-22.433Zm0 0"/><path fill="#4a7049" d="m280.453 203.188 27.953-15.872-5.953 38Zm0 0"/><path fill="#bf683c" d="m251.188 153.035-6.258-31.433 12.078 18.925Zm0 0"/><path fill="#544037" d="m260.363 157.313-9.175-4.278 5.82-12.508Zm0 0"/><path fill="#f6c5b4" d="m251.188 153.035 9.175 4.278-24.886 12.07Zm0 0"/><path fill="#4a2d2c" d="m251.188 153.035-15.711 16.348-4.207-18.028Zm0 0"/><path fill="#a04009" d="m244.93 121.602 6.257 31.433-19.917-1.68Zm0 0"/><path fill="#4a714a" d="m302.254 135.594-24.715-25.082 3.75-10.258ZM278.734 133.68l-1.195-23.168 24.715 25.082Zm0 0"/><path fill="#4a7049" d="m260.363 157.313 18.371-23.633 23.52 1.914Zm0 0"/><path fill="#f6c5b4" d="m278.734 133.68-18.37 23.632-3.356-16.785Zm0 0"/><path fill="#9d3b02" d="m150.773 15.484-2.972 26.036-22.047-14.735Zm0 0"/><path fill="#f6c4b3" d="m164.855 29.91-17.054 11.61 2.972-26.036Zm0 0"/><path fill="#9f3e07" d="m147.8 41.52 17.055-11.61-1.445 10.723Zm0 0"/><path fill="#99400a" d="m144.121 138.766 14.684.074-6.016 18.586Zm0 0"/><path fill="#4a2d2c" d="m183.355 100.14-3.542 4.926-9.313-3.761Zm0 0"/><path fill="#9c3a02" d="m217.398 153.672 27.532-32.07-13.66 29.753Zm0 0"/><path fill="#9c3900" d="m217.398 153.672 6.5-32.871 21.032.8Zm0 0"/><path fill="#4b302f" d="m175.207 154.727-16.402-15.887 20.472-1.863Zm0 0"/><path fill="#aaa8a6" d="m158.805 138.84 16.402 15.887-22.418 2.699Zm0 0"/><path fill="#f6c5b4" d="m64.527 324.25 23.86 5.066L77.77 352.02ZM82.621 304.809l-3.93-28.258 18.301 15.887Zm0 0"/><path fill="#f6c5b4" d="m78.691 276.55 3.93 28.259-25.387-12.094ZM106.074 270.988l-.113 21.043-8.969.406Zm0 0"/><path fill="#f6c5b4" d="m105.96 292.031 4.497 24.028-13.465-23.622Zm0 0"/><path fill="#4a2d2c" d="m96.46 225.281 18.685-13.496 5.953 16.727Zm0 0"/><path fill="#4a2e2c" d="M115.145 211.785 96.46 225.281l-.848-38.328Zm0 0"/><path fill="#9eb381" d="m75.488 257.75 5.403-30.965 23.496 29.957Zm0 0"/><path fill="#f5c5b3" d="m75.488 257.75 3.203 18.8-28.05-17.363Zm0 0"/><path fill="#9eb381" d="m75.488 257.75-24.847 1.438-3.348-29.735Zm0 0"/><path fill="#9eb380" d="m80.89 226.785-5.402 30.965-28.195-28.297Zm0 0"/><path fill="#4a2d2c" d="m96.46 225.281 23.114 19.352-15.187 12.11ZM119.574 244.633 96.461 225.28l24.637 3.23Zm0 0"/><path fill="#9c3900" d="m155.191 218.453-20.543 16.703-2.687-14.422Zm0 0"/><path fill="#848972" d="m190.34 221.633-35.149-3.18 12.75-17.644Zm0 0"/><path fill="#9c3c03" d="m167.941 200.809-34.867-20.922 22.68-5.371Zm0 0"/><path fill="#c5b7ab" d="m184.96 179.668-17.019 21.14-12.187-26.292Zm0 0"/><path fill="#9b3900" d="m133.074 179.887 11.047-41.121 8.668 18.66Zm0 0"/><path fill="#713501" d="m174.156 272.305 5.801 20.101-30.902 4.356Zm0 0"/><path fill="#b3845d" d="m179.957 292.406 11.871-17.32-.535 20.36Zm0 0"/><path fill="#c0b18e" d="m191.828 275.086-11.871 17.32-5.8-20.101Zm0 0"/><path fill="#504034" d="m191.828 275.086-6.336-19.106 9.906 2.665Zm0 0"/><path fill="#9b9073" d="m185.492 255.98 6.336 19.106-17.672-2.781Zm0 0"/><path fill="#99ae7c" d="m201.281 230.895 9.82-9.73 16.18 10.245Zm0 0"/><path fill="#9db380" d="m211.828 248.738-10.547-17.843 26 .515Zm0 0"/><path fill="#9fb481" d="m370.281 314.246-20.883-48.805L384 309.395Zm0 0"/><path fill="#a3b483" d="m349.398 265.441 20.883 48.805-29.55-18.36Zm0 0"/><path fill="#f6c5b4" d="M346.61 384.004 302.155 384l12.719-28.352Zm0 0"/><path fill="#9eb380" d="M77.992 28.313 68.187 58.37 41.126 40.266Zm0 0"/><path fill="#f6c5b4" d="m100.176 34.148 19.101-17.437 6.477 10.074Zm0 0"/><path fill="#9db380" d="m100.176 34.148-22.184-5.836 41.285-11.601Zm0 0"/><path fill="#f6c5b4" d="m119.277 16.71 31.496-1.226-25.02 11.301Zm0 0"/><path fill="#9db380" d="M119.277 16.71 118.664 0l30.707-.012Zm0 0"/><path fill="#9eb380" d="m150.773 15.484-31.496 1.227L149.371-.012Zm0 0"/><path fill="#4a7049" d="M149.371-.012 194.098 0l-22.914 24.297Zm0 0"/><path fill="#4a714a" d="M199.805 10.965 194.098 0h58.41Zm0 0"/><path fill="#4a7049" d="M171.184 24.297 194.098 0l5.707 10.965ZM150.773 15.484 149.371-.012l21.813 24.309Zm0 0"/><path fill="#f6c5b4" d="m164.855 29.91-14.082-14.426 20.41 8.813Zm0 0"/><path fill="#9eb380" d="m87.324 83.98-2.574 26.707-12.086 1.192Zm0 0"/><path fill="#9c3c03" d="m84.75 110.688 2.574-26.708 13.84.586Zm0 0"/><path fill="#9c3a01" d="m96.848 119.637-12.098-8.95 16.414-26.12Zm0 0"/><path fill="#9db380" d="M0 69.535V0l41.125 40.266ZM77.992 28.313 41.125 40.266 68.043 0ZM0 69.535l41.61 21.867L0 166.692Zm0 0"/><path fill="#9db380" d="m0 166.691 62.754 17.45-15.461 45.312Zm0 0"/><path fill="#9db380" d="M62.754 184.14 0 166.692l58.406-26.78Zm0 0"/><path fill="#4a714a" d="M26.25 383.95-.004 384 0 353.977Zm0 0"/><path fill="#4a6f48" d="m0 353.977 23.781-13.637 10.098 23.062Zm0 0"/><path fill="#f6c5b4" d="M56.375 339.422 45.121 352.84l-.242-20.715Zm0 0"/><path fill="#f6c5b4" d="m45.121 352.84-21.34-12.5 21.098-8.215Zm0 0"/><path fill="#4a6d48" d="m23.781 340.34 21.34 12.5-11.242 10.562Zm0 0"/><path fill="#f5c5b4" d="m64.527 324.25-8.152 15.172-11.496-7.297Zm0 0"/><path fill="#4a2e2c" d="m258.258 210.36-7.906 25.519-23.07-4.469Zm0 0"/><path fill="#f4c3b1" d="m258.258 210.36-30.977 21.05 1.02-20.469Zm0 0"/><path fill="#4a714a" d="m263.879 222.195 16.574-19.007 22 22.128Zm0 0"/><path fill="#f4c0ad" d="m258.258 210.36 5.62 11.835-13.526 13.684Zm0 0"/><path fill="#4a704a" d="m280.453 203.188-16.574 19.007-5.621-11.836Zm0 0"/><path fill="#546650" d="m184.96 179.668 15.817-10.129 3.989 11.965Zm0 0"/><path fill="#4a2d2c" d="m200.777 169.54 18.16 8.183-14.171 3.78Zm0 0"/><path fill="#4c302e" d="m237.578 176.5 13.875-4.73-5.406 15.332Zm0 0"/><path fill="#e4bfb3" d="m260.363 157.313-8.91 14.457-15.976-2.387Zm0 0"/><path fill="#f4c2b0" d="m251.453 171.77 10.766 21.152-16.172-5.82Zm0 0"/><path fill="#f6c4b3" d="m251.453 171.77 8.91-14.458 1.856 35.61Zm0 0"/><path fill="#edc3b5" d="m235.477 169.383 15.976 2.387-13.875 4.73Zm0 0"/><path fill="#4a322e" d="m211.777 188.453-10.925 8.934 3.914-15.883Zm0 0"/><path fill="#4d3b36" d="m219.55 207.578 5.087-5.039 3.664 8.402Zm0 0"/><path fill="#4b4436" d="m224.637 202.54 21.742-7.325L228.3 210.94Zm0 0"/><path fill="#667757" d="m200.852 197.387 23.785 5.152-5.086 5.04Zm0 0"/><path fill="#627756" d="m224.637 202.54-23.785-5.153 10.925-8.934Zm0 0"/><path fill="#f5c5b4" d="m212.46 294.305 14.716 7.27-12.875 19.59ZM227.176 301.574l-14.715-7.27 17.187-7.234Zm0 0"/><path fill="#803b0c" d="m227.176 301.574 13.054 16.961-25.93 2.63Zm0 0"/><path fill="#4a362f" d="m202.79 351.5 29.132-8.32-3.809 12.636Zm0 0"/><path fill="#50352f" d="m202.79 351.5 12.687-13.55 16.445 5.23Zm0 0"/><path fill="#4e3608" d="m191.238 358.332 11.551-6.832-3.172 20.64Zm0 0"/><path fill="#4b4333" d="M226.25 372.652 202.79 351.5l25.323 4.316Zm0 0"/><path fill="#f6c5b4" d="m202.79 351.5 23.46 21.152-26.633-.511Zm0 0"/><path fill="#b28a6f" d="m187.79 321.219 10.858-.41 4.141 30.691Zm0 0"/><path fill="#f6c5b4" d="m203.734 274.941 8.727 19.364-21.168 1.14Zm0 0"/><path fill="#f6c5b4" d="m191.828 275.086 11.906-.145-12.441 20.504Zm0 0"/><path fill="#f5c5b3" d="m211.938 258.207-8.204 16.734-8.336-16.296Zm0 0"/><path fill="#f6c5b4" d="m203.734 274.941-11.906.145 3.57-16.441Zm0 0"/><path fill="#e59372" d="m265 258.402-20.664 10.266-1.016-17.91Zm0 0"/><path fill="#bc9683" d="m244.336 268.668-14.406.137 13.39-18.047Zm0 0"/><path fill="#a97c5d" d="m229.93 268.805 14.406-.137-14.688 18.402Zm0 0"/><path fill="#f6c5b4" d="m263.27 302.395 16.078 9.976-21.856 8.703ZM254.973 384.004l33.3-31.934L302.156 384Zm0 0"/><path fill="#f6c5b4" d="m288.273 352.07-33.3 31.934-2.703-14.652ZM288.273 352.07l26.602 3.578L302.156 384Zm0 0"/><path fill="#4b724a" d="m349.398 265.441-48.308.922 33.004-27.386Zm0 0"/><path fill="#f6c5b4" d="m144.637 371.473 15.222 2.386-7.105 10.145Zm0 0"/><path fill="#4d302e" d="m159.86 373.86-15.223-2.387 9.57-19.922Zm0 0"/><path fill="#f6c5b4" d="m138.512 354.016 6.125 17.457-37.352-18.848Zm0 0"/><path fill="#f6c4b3" d="m138.512 354.016 15.695-2.465-9.57 19.922Zm0 0"/><path fill="#4a2d2c" d="m129.633 333.816 8.879 20.2-31.227-1.391Zm0 0"/><path fill="#f6c5b4" d="m159.86 373.86 28.382.976 7.09 9.168Zm0 0"/><path fill="#4e3531" d="m188.242 374.836-28.383-.977 10.715-15.761Zm0 0"/><path fill="#684c42" d="m191.238 358.332-2.996 16.504-17.668-16.738Zm0 0"/><path fill="#4d322f" d="m188.242 374.836 2.996-16.504 8.38 13.809Zm0 0"/><path fill="#f5c5b4" d="m195.332 384.004-7.09-9.168 11.375-2.695Zm0 0"/><path fill="#d3a99a" d="m74.027 367.977 23.188 16.007-70.965-.035Zm0 0"/><path fill="#4a3931" d="m77.77 352.02-3.743 15.957-28.906-15.137Zm0 0"/><path fill="#8b7064" d="m97.215 383.984-23.188-16.007 11.907-5.504Zm0 0"/><path fill="#4b3a32" d="m74.027 367.977 3.743-15.957 8.164 10.453Zm0 0"/><path fill="#f6c5b4" d="m231.578 53.215-8.922 3.984-13.324-25.926Zm0 0"/><path fill="#f6c5b4" d="M209.332 31.273 222.656 57.2l-15.14-5.633Zm0 0"/><path fill="#f6c5b4" d="m222.656 57.2-21.351 14.335 6.21-19.969Zm0 0"/><path fill="#4a714a" d="m340.629 328.04-33.664-17.462 20.547-8.195Zm0 0"/><path fill="#4a714a" d="m340.73 295.887-.101 32.152-13.117-25.656Zm0 0"/><path fill="#4a7049" d="M341.684 136.05 384 97.517v65.398Zm0 0"/><path fill="#9fb481" d="m349.398 265.441 34.59-11.054.012 55.008Zm0 0"/><path fill="#e19373" d="m244.93 121.602 32.61-11.09-20.532 30.015Zm0 0"/><path fill="#f6c5b4" d="m277.54 110.512 1.194 23.168-21.726 6.847ZM254.785 84.273l-8.64 12.387-18.032-16.648Zm0 0"/><path fill="#4a7049" d="m309.254 95.438-7 40.156-20.965-35.34Zm0 0"/><path fill="#4a2d2c" d="m181.125 78.168-5.121 4.156-16.941-21.566Zm0 0"/><path fill="#9c3900" d="m176.004 82.324-37.996-.496 21.054-21.07Zm0 0"/><path fill="#9c3900" d="m117.559 52.285 20.449 29.543-36.844 2.738Zm0 0"/><path fill="#9d3b03" d="m88.465 54.305 29.094-2.02-16.395 32.281Zm0 0"/><path fill="#9c3b02" d="m87.324 83.98 1.14-29.675 12.7 30.261Zm0 0"/><path fill="#9eb381" d="m88.465 54.305-1.14 29.675-19.138-25.609Zm0 0"/><path fill="#9c3900" d="m125.11 118.414 19.011 20.352-11.047 41.12Zm0 0"/><path fill="#a1511b" d="M125.11 118.414 99.913 154.25l-3.066-34.613Zm0 0"/><path fill="#944009" d="m99.914 154.25 25.195-35.836 7.965 61.473Zm0 0"/><path fill="#b39e93" d="m155.059 121.016 3.746 17.824-14.684-.074Zm0 0"/><path fill="#9c3900" d="m125.11 118.414 29.949 2.602-10.938 17.75Zm0 0"/><path fill="#4a2d2c" d="m193.125 106.223-9.77-6.082 7.711-2.461Zm0 0"/><path fill="#4f3331" d="m193.125 106.223-13.312-1.157 3.542-4.925Zm0 0"/><path fill="#f6c5b4" d="m213.348 105.066-20.223 1.157-2.059-8.543ZM213.348 105.066l3.726-21.53.528 34.687Zm0 0"/><path fill="#4a2d2c" d="m193.125 106.223 20.223-1.157 4.254 13.157ZM235.477 169.383l2.101 7.117-18.64 1.223Zm0 0"/><path fill="#909ba2" d="m184.96 179.668-9.753-24.941 25.57 14.812Zm0 0"/><path fill="#8f4b1f" d="m183.543 126.258 9.582-20.035 24.477 12Zm0 0"/><path fill="#4d3127" d="m193.125 106.223-9.582 20.035-3.73-21.192Zm0 0"/><path fill="#f6c5b4" d="m82.621 304.809 27.836 11.25-22.07 13.257Zm0 0"/><path fill="#f6c5b4" d="m110.457 316.059-27.836-11.25 14.371-12.372ZM110.457 316.059l-3.172 36.566-18.898-23.309Zm0 0"/><path fill="#4a2d2c" d="m107.285 352.625 3.172-36.566 19.176 17.757ZM129.633 333.816l-19.176-17.757 17.695-4.387Zm0 0"/><path fill="#f6c5b4" d="m56.375 339.422 8.152-15.172 13.243 27.77Zm0 0"/><path fill="#f6c5b4" d="m45.121 352.84 11.254-13.418L77.77 352.02Zm0 0"/><path fill="#4a2e2b" d="m105.96 292.031 15.298 6.035-10.801 17.993Zm0 0"/><path fill="#4a2d2c" d="m121.258 298.066-15.297-6.035 26.238-5.902Zm0 0"/><path fill="#9db380" d="m90.195 156.137 5.418 30.816-32.86-2.812Zm0 0"/><path fill="#9b4a12" d="m115.145 211.785-19.532-24.832 13.621-3.14Zm0 0"/><path fill="#4b352d" d="m122.805 277.363-16.844 14.668.113-21.043Zm0 0"/><path fill="#be9b87" d="m121.195 261.844 1.61 15.52-16.73-6.376Zm0 0"/><path fill="#4a2e2c" d="m105.96 292.031 16.845-14.668 9.394 8.766Zm0 0"/><path fill="#4a2d2c" d="m104.387 256.742 16.808 5.102-15.12 9.144Zm0 0"/><path fill="#4a2d2c" d="m119.574 244.633 1.621 17.21-16.808-5.1ZM134.648 235.156l-15.074 9.477 1.524-16.121Zm0 0"/><path fill="#f6c5b4" d="m144.242 280.195-4.273 12.078-7.77-6.144ZM139.969 292.273l4.273-12.078 4.813 16.567Zm0 0"/><path fill="#6b3501" d="m154.398 269.2 19.758 3.105-25.101 24.457Zm0 0"/><path fill="#9a3900" d="m144.242 280.195 10.156-10.996-5.343 27.563Zm0 0"/><path fill="#9c3900" d="m154.398 269.2-10.156 10.995-4.832-13.543ZM137.371 252.383l17.027 16.816-14.988-2.547Zm0 0"/><path fill="#a3b080" d="m167.941 200.809-12.75 17.644-22.117-38.566Zm0 0"/><path fill="#565444" d="m211.102 221.164-10.25-23.777 18.699 10.191Zm0 0"/><path fill="#4d463a" d="m211.102 221.164-20.762.469 10.512-24.246Zm0 0"/><path fill="#f6c5b4" d="m346.61 384.004 37.382-8.18L384 384Zm0 0"/><path fill="#a59e7f" d="m365.578 345-12.883 21.113-7.87-17.547Zm0 0"/><path fill="#4a714a" d="M352.695 366.113 365.578 345l7.817 16.227Zm0 0"/><path fill="#58764c" d="m384 309.395.031 21.683-13.75-16.832Zm0 0"/><path fill="#4b7049" d="M370.281 314.246 340.63 328.04l.101-32.152Zm0 0"/><path fill="#bd6d43" d="M147.8 41.52 117.56 52.285l8.195-25.5Zm0 0"/><path fill="#9d3a02" d="m117.559 52.285-17.383-18.137 25.578-7.363Zm0 0"/><path fill="#4a2d2b" d="m201.305 71.535-5.778 18.285-14.402-11.652Zm0 0"/><path fill="#4d312e" d="m181.125 78.168 14.402 11.652-4.46 7.86Zm0 0"/><path fill="#f6c5b4" d="m217.074 83.535-21.547 6.285 5.778-18.285Zm0 0"/><path fill="#523533" d="m195.527 89.82 17.82 15.246-22.28-7.386Zm0 0"/><path fill="#f6c5b4" d="m213.348 105.066-17.82-15.246 21.546-6.285Zm0 0"/><path fill="#4a6f49" d="M26.25 383.95 0 353.976l33.879 9.425Zm0 0"/><path fill="#4a704a" d="m74.027 367.977-40.148-4.575L45.12 352.84Zm0 0"/><path fill="#4a7049" d="m33.879 363.402 40.148 4.575-47.777 15.972Zm0 0"/><path fill="#9fb381" d="m23.781 340.34 11.989-33.7 9.109 25.485Zm0 0"/><path fill="#a4b181" d="m35.77 306.64 28.757 17.61-19.648 7.875Zm0 0"/><path fill="#f6c5b4" d="M64.527 324.25 35.77 306.64l21.464-13.925Zm0 0"/><path fill="#f6c5b4" d="M57.234 292.715 35.77 306.64l-3.875-20.95ZM82.621 304.809 64.527 324.25l-7.293-31.535Zm0 0"/><path fill="#4a714a" d="m301.09 266.363-36.09-7.96 37.453-33.087Zm0 0"/><path fill="#4a714a" d="m265 258.402-1.121-36.207 38.574 3.121Zm0 0"/><path fill="#9fb381" d="M277.71 272.89 265 258.403l36.09 7.961Zm0 0"/><path fill="#4a2d2c" d="m226.703 182.734-14.926 5.72 7.16-10.731Zm0 0"/><path fill="#f4c5b4" d="m226.703 182.734-2.066 19.805-12.86-14.086Zm0 0"/><path fill="#4a2d2c" d="m237.578 176.5-10.875 6.234-7.766-5.011Zm0 0"/><path fill="#d9ac94" d="m187.79 321.219-7.833-28.813 11.336 3.04Zm0 0"/><path fill="#c19f88" d="m198.648 320.809-10.859.41 3.504-25.774Zm0 0"/><path fill="#f6c5b4" d="m138.434 308.613 1.836-10.812 8.785-1.04Zm0 0"/><path fill="#f6c5b4" d="m140.27 297.8-.301-5.527 9.086 4.489Zm0 0"/><path fill="#f4c5b3" d="m221.508 270.125-17.774 4.816 8.203-16.734Zm0 0"/><path fill="#523e36" d="m221.508 270.125 8.422-1.32-.282 18.265Zm0 0"/><path fill="#f5c5b4" d="m212.46 294.305 9.048-24.18 8.14 16.945Zm0 0"/><path fill="#f6c5b4" d="m203.734 274.941 17.774-4.816-9.047 24.18Zm0 0"/><path fill="#f3c5b3" d="m221.508 270.125-9.57-11.918 7.238-1.98Zm0 0"/><path fill="#4f3732" d="m229.93 268.805-8.422 1.32-2.332-13.898Zm0 0"/><path fill="#dd7b52" d="m262.992 279.418-18.656-10.75L265 258.402Zm0 0"/><path fill="#9fb381" d="m277.71 272.89-14.718 6.528L265 258.402Zm0 0"/><path fill="#9eb381" d="m263.27 302.395-.278-22.977 21.352 7.02Zm0 0"/><path fill="#9fb381" d="m262.992 279.418 14.719-6.527 6.633 13.546Zm0 0"/><path fill="#7e3c09" d="m240.23 318.535 23.04-16.14-5.778 18.68Zm0 0"/><path fill="#758a64" d="m288.273 352.07-36.003 17.282 15.77-23.473Zm0 0"/><path fill="#f6c5b4" d="m279.348 312.371-2.743 13.656-19.113-4.953Zm0 0"/><path fill="#f3c5b3" d="m286.75 321.102-10.145 4.925 2.743-13.656Zm0 0"/><path fill="#f6c5b4" d="m276.605 326.027-8.566 19.852-10.547-24.805ZM276.605 326.027l11.668 26.043-20.234-6.191Zm0 0"/><path fill="#f6c5b4" d="m276.605 326.027 10.145-4.925 1.523 30.968Zm0 0"/><path fill="#9bb17f" d="m277.71 272.89 23.38-6.527-16.746 20.075Zm0 0"/><path fill="#a0b381" d="m301.09 266.363 15.398 19.453-32.144.622Zm0 0"/><path fill="#5f8158" d="m316.488 285.816 24.242 10.07-13.218 6.497Zm0 0"/><path fill="#a7b586" d="m316.488 285.816-15.398-19.453 48.308-.922Zm0 0"/><path fill="#9db380" d="m316.488 285.816 32.91-20.375-8.668 30.446Zm0 0"/><path fill="#4a2d2c" d="m139.273 324.355-9.64 9.461-1.48-22.144Zm0 0"/><path fill="#86645c" d="m138.434 308.613.84 15.742-11.122-12.683Zm0 0"/><path fill="#4d3201" d="m191.238 358.332-18.906-23.691 30.457 16.859Zm0 0"/><path fill="#4e3201" d="m172.332 334.64 18.906 23.692-20.664-.234Zm0 0"/><path fill="#4c3100" d="m172.332 334.64 15.457-13.421 15 30.281Zm0 0"/><path fill="#4a2d2c" d="m138.512 354.016 7.636-17.672 8.059 15.207Zm0 0"/><path fill="#4a2e2c" d="m146.148 336.344-7.636 17.672-8.88-20.2Zm0 0"/><path fill="#825e57" d="m139.273 324.355 6.875 11.989-16.515-2.528Zm0 0"/><path fill="#4c302e" d="m231.18 73.25.398-20.035 12.664 6.91Zm0 0"/><path fill="#f6c5b4" d="m231.18 73.25-8.524-16.05 8.922-3.985Zm0 0"/><path fill="#4a2d2c" d="m231.18 73.25 23.605 11.023-26.672-4.261Zm0 0"/><path fill="#4a7049" d="M241.242 28.27 252.508 0l25.402 36.484ZM277.91 36.484 309.156 0l29.348 71.719Zm0 0"/><path fill="#4a714a" d="M277.91 36.484 252.508 0h56.648Zm0 0"/><path fill="#4a7049" d="m281.29 100.254-3.38-63.77 31.344 58.954Zm0 0"/><path fill="#f6c5b4" d="m312.438 337.227 2.437 18.421-26.602-3.578ZM286.75 321.102l25.688 16.125-24.165 14.843Zm0 0"/><path fill="#f6c5b4" d="m312.438 337.227-25.688-16.125 20.215-10.524Zm0 0"/><path fill="#4a7049" d="m341.684 136.05-3.18-64.331L384 97.516Zm0 0"/><path fill="#4a714a" d="m383.988 254.387-34.59 11.054 9.051-29.05Zm0 0"/><path fill="#4a714a" d="m358.45 236.39-9.052 29.051-15.304-26.464Zm0 0"/><path fill="#f6c5b4" d="m269.793 104.695 7.746 5.817-32.61 11.09ZM277.54 110.512l-7.747-5.817 11.496-4.441Zm0 0"/><path fill="#e4a990" d="m231.18 73.25 13.062-13.125 10.543 24.148Zm0 0"/><path fill="#4a2d2c" d="m246.145 96.66-21.887-7.355 3.855-9.293Zm0 0"/><path fill="#f4c2b0" d="m224.258 89.305-7.184-5.77 11.04-3.523Zm0 0"/><path fill="#4c2f2a" d="m217.074 83.535 7.184 5.77-6.656 28.918Zm0 0"/><path fill="#f6c5b4" d="m253.691 96.102-7.546.558 8.64-12.387Zm0 0"/><path fill="#eebba7" d="m201.305 71.535-20.18 6.633 12.598-17.691Zm0 0"/><path fill="#f5c4b3" d="m176.004 82.324 5.121-4.156 9.941 19.512Zm0 0"/><path fill="#f5c4b2" d="m183.355 100.14-7.351-17.816 15.062 15.356Zm0 0"/><path fill="#4a2f2d" d="m176.004 82.324 7.351 17.817-12.855 1.164Zm0 0"/><path fill="#4a2d2c" d="m173.945 55.809 7.18 22.359-22.062-17.41ZM181.125 78.168l-7.18-22.36 19.778 4.669Zm0 0"/><path fill="#4a2d2c" d="m193.723 60.477-19.778-4.668 3.137-17.387ZM173.945 55.809 163.41 40.633l13.672-2.211ZM163.41 40.633l10.535 15.176-14.882 4.949Zm0 0"/><path fill="#f0bca8" d="M159.063 60.758 147.8 41.52l15.61-.887Zm0 0"/><path fill="#9e3c04" d="m159.063 60.758-41.504-8.473L147.8 41.52ZM159.063 60.758l-21.055 21.07-20.45-29.543Zm0 0"/><path fill="#945822" d="m101.164 84.566 23.945 33.848-28.261 1.223Zm0 0"/><path fill="#a2430d" d="m138.008 81.828-12.899 36.586-23.945-33.848Zm0 0"/><path fill="#9eb380" d="m77.992 28.313 10.473 25.992-20.278 4.066Zm0 0"/><path fill="#9c3c04" d="m96.848 119.637-9.442 9.539-2.656-18.488Zm0 0"/><path fill="#9c3b02" d="m99.914 154.25-12.508-25.074 9.442-9.54Zm0 0"/><path fill="#9c3900" d="m87.406 129.176 12.508 25.074-9.719 1.887Zm0 0"/><path fill="#9eb380" d="m58.406 139.91 29-10.734 2.79 26.96ZM84.75 110.688l2.656 18.488-14.742-17.297Zm0 0"/><path fill="#9db381" d="m87.406 129.176-29 10.734 14.258-28.031Zm0 0"/><path fill="#a5b1b9" d="m155.059 121.016 17.152 7.55-13.406 10.274Zm0 0"/><path fill="#9aaeb8" d="m170.5 101.305 1.71 27.261-17.151-7.55Zm0 0"/><path fill="#4a2d2c" d="m158.805 138.84 13.406-10.274 7.066 8.41Zm0 0"/><path fill="#8baaba" d="m172.21 128.566 11.333-2.308-4.266 10.719Zm0 0"/><path fill="#4a2d2c" d="m172.21 128.566-1.71-27.261 9.313 3.761Zm0 0"/><path fill="#89aaba" d="m183.543 126.258-11.332 2.308 7.601-23.5Zm0 0"/><path fill="#aeb2b7" d="m175.207 154.727 22.879 2.355 2.691 12.457Zm0 0"/><path fill="#cab5ae" d="m175.207 154.727-19.453 19.789-2.965-17.09Zm0 0"/><path fill="#9c3900" d="m155.754 174.516-22.68 5.37 19.715-22.46Zm0 0"/><path fill="#d6bcb4" d="m155.754 174.516 19.453-19.79 9.754 24.942Zm0 0"/><path fill="#f6c5b4" d="m64.527 324.25 18.094-19.441 5.766 24.507Zm0 0"/><path fill="#4a2d2c" d="m110.457 316.059 10.8-17.993 6.895 13.606Zm0 0"/><path fill="#6a4c47" d="m134.531 297.43 3.903 11.183-10.282 3.059Zm0 0"/><path fill="#4b312e" d="m121.258 298.066 13.273-.636-6.379 14.242Zm0 0"/><path fill="#f6c5b4" d="m140.27 297.8-5.739-.37 5.438-5.157ZM134.531 297.43l5.739.37-1.836 10.813Zm0 0"/><path fill="#f6c5b4" d="m139.969 292.273-5.438 5.157-2.332-11.301Zm0 0"/><path fill="#624540" d="m134.531 297.43-13.273.636 10.941-11.937Zm0 0"/><path fill="#9c3900" d="m99.914 154.25-4.3 32.703-5.419-30.816Zm0 0"/><path fill="#4a4838" d="m133.074 179.887-17.93 31.898-5.91-27.972Zm0 0"/><path fill="#4a2d2c" d="m115.145 211.785 16.816 8.95-10.863 7.777Zm0 0"/><path fill="#4a2e2c" d="m131.96 220.734 2.688 14.422-13.55-6.644Zm0 0"/><path fill="#4a6243" d="m131.96 220.734-16.815-8.949 17.93-31.898Zm0 0"/><path fill="#4a2f2d" d="m139.41 266.652-18.215-4.808 16.176-9.461Zm0 0"/><path fill="#e6c0a9" d="m139.41 266.652-16.605 10.711-1.61-15.52Zm0 0"/><path fill="#7b6056" d="m122.805 277.363 16.605-10.71-7.21 19.476Zm0 0"/><path fill="#f6c5b4" d="m139.41 266.652 4.832 13.543-12.043 5.934ZM104.387 256.742 78.69 276.551l-3.203-18.801Zm0 0"/><path fill="#f6c5b4" d="m78.691 276.55 25.696-19.808 1.687 14.246ZM78.691 276.55l27.383-5.562-9.082 21.45Zm0 0"/><path fill="#4a2d2c" d="m119.574 244.633 17.797 7.75-16.176 9.46Zm0 0"/><path fill="#a0abaa" d="m181.45 236.633-26.259-18.18 35.149 3.18Zm0 0"/><path fill="#9c3900" d="m155.191 218.453-23.23 2.281 1.113-40.847Zm0 0"/><path fill="#9eb381" d="m195.54 248.426 5.741-17.531 10.547 17.843ZM195.54 248.426l16.288.312-16.43 9.907Zm0 0"/><path fill="#4b3c32" d="m185.492 255.98 10.047-7.554-.14 10.219Zm0 0"/><path fill="#4a2e2c" d="m195.54 248.426-10.048 7.554-4.043-19.347Zm0 0"/><path fill="#f6c5b4" d="m352.695 366.113-6.086 17.89-31.734-28.355Zm0 0"/><path fill="#7a9065" d="m384.016 352.45-.024 23.374-10.597-14.597Zm0 0"/><path fill="#4c6f48" d="m365.578 345 18.438 7.45-10.621 8.777Zm0 0"/><path fill="#4b6e47" d="m384.031 331.078-.015 21.371L365.578 345Zm0 0"/><path fill="#f6c5b4" d="m340.629 328.04 19.558 6.468-15.363 14.058Zm0 0"/><path fill="#f3c5b2" d="m384.031 331.078-23.844 3.43 10.094-20.262Zm0 0"/><path fill="#f6c5b4" d="m360.188 334.508-19.56-6.469 29.653-13.793ZM360.188 334.508l5.39 10.492-20.754 3.566Zm0 0"/><path fill="#f6c5b4" d="m360.188 334.508 23.843-3.43L365.578 345Zm0 0"/><path fill="#9eb380" d="M58.406 139.91 41.61 91.402l31.055 20.477Zm0 0"/><path fill="#9db380" d="M41.61 91.402 0 69.535l41.125-29.27Zm0 0"/><path fill="#e1906d" d="M263.879 222.195 265 258.402l-14.648-22.523Zm0 0"/><path fill="#f6c5b4" d="m224.637 202.54 21.41-15.438.332 8.113ZM226.703 182.734l19.344 4.368-21.41 15.437Zm0 0"/><path fill="#4b322e" d="m246.047 187.102-19.344-4.368 10.875-6.234Zm0 0"/><path fill="#a57d64" d="m241.762 295.828-14.586 5.746 2.472-14.504Zm0 0"/><path fill="#99420d" d="m241.762 295.828-1.532 22.707-13.054-16.96Zm0 0"/><path fill="#ecc0ad" d="m244.336 268.668-2.574 27.16-12.114-8.758Zm0 0"/><path fill="#db784e" d="m262.992 279.418-21.23 16.41 2.574-27.16Zm0 0"/><path fill="#db794f" d="m241.762 295.828 21.23-16.41.278 22.977Zm0 0"/><path fill="#9f3d05" d="m240.23 318.535 1.532-22.707 21.508 6.567Zm0 0"/><path fill="#f6c5b4" d="m154.215 322.121-14.942 2.234-.84-15.742ZM154.215 322.121l-15.781-13.508 10.62-11.851ZM146.148 336.344l8.067-14.223 2.289 15.156Zm0 0"/><path fill="#f6c5b4" d="m154.215 322.121-8.067 14.223-6.875-11.989Zm0 0"/><path fill="#6c3501" d="m154.215 322.121 18.117 12.52-15.828 2.636Zm0 0"/><path fill="#653400" d="m179.957 292.406-10.52 22.184-20.382-17.828Zm0 0"/><path fill="#873e0a" d="m169.438 314.59-15.223 7.531-5.16-25.36Zm0 0"/><path fill="#6d3400" d="m154.215 322.121 15.222-7.531 2.895 20.05Zm0 0"/><path fill="#59390a" d="m187.79 321.219-18.352-6.63 10.519-22.183Zm0 0"/><path fill="#613502" d="m172.332 334.64-2.894-20.05 18.351 6.629Zm0 0"/><path fill="#513200" d="m154.207 351.55 18.125-16.91-1.758 23.458Zm0 0"/><path fill="#4c3101" d="m172.332 334.64-18.125 16.91 2.297-14.273Zm0 0"/><path fill="#f6c5b4" d="m154.207 351.55-8.059-15.206 10.356.933Zm0 0"/><path fill="#512f29" d="m217.074 83.535 5.996-15.418 5.043 11.895Zm0 0"/><path fill="#4a2d2c" d="m223.07 68.117 8.11 5.133-3.067 6.762Zm0 0"/><path fill="#e2a68c" d="m223.07 68.117-5.996 15.418-15.77-12Zm0 0"/><path fill="#4a2d2c" d="m231.18 73.25-8.11-5.133-.414-10.918ZM222.656 57.2l.414 10.917-21.765 3.418Zm0 0"/><path fill="#f6c5b4" d="m254.785 84.273-10.543-24.148 33.668-23.64Zm0 0"/><path fill="#4a7049" d="m277.91 36.484 60.594 35.235-29.25 23.719Zm0 0"/><path fill="#f6c5b4" d="m344.824 348.566-29.949 7.082-2.437-18.421Zm0 0"/><path fill="#527049" d="m352.695 366.113-37.82-10.465 29.95-7.082Zm0 0"/><path fill="#9c3a01" d="m223.898 120.8 22.247-24.14-1.215 24.942Zm0 0"/><path fill="#9c3900" d="m223.898 120.8.36-31.495 21.887 7.355Zm0 0"/><path fill="#9c3901" d="m224.258 89.305-.36 31.496-6.296-2.578Zm0 0"/><path fill="#f6c5b4" d="m246.145 96.66 6.437 8.516-7.652 16.426Zm0 0"/><path fill="#f6c5b4" d="m253.691 96.102-1.109 9.074-6.437-8.516Zm0 0"/><path fill="#4e302e" d="m252.582 105.176 17.211-.48-24.863 16.906Zm0 0"/><path fill="#4d302f" d="m252.582 105.176 1.11-9.074 18.042-4.239Zm0 0"/><path fill="#f6c5b4" d="m252.582 105.176 19.152-13.313-1.941 12.832Zm0 0"/><path fill="#9d3b02" d="m153.164 101.832-15.156-20.004 37.996.496Zm0 0"/><path fill="#9c3900" d="m153.164 101.832-28.055 16.582 12.899-36.586Zm0 0"/><path fill="#f2c1b0" d="m153.164 101.832 22.84-19.508-5.504 18.98Zm0 0"/><path fill="#f4c5b4" d="m153.164 101.832 17.336-.527-15.441 19.71Zm0 0"/><path fill="#9c3900" d="m125.11 118.414 28.054-16.582 1.895 19.184Zm0 0"/><path fill="#9c3a01" d="m88.465 54.305 11.71-20.157 17.384 18.137Zm0 0"/><path fill="#9eb380" d="M100.176 34.148 88.465 54.305 77.992 28.313Zm0 0"/><path fill="#d4bcb5" d="m198.086 157.082 37.39 12.3-16.538 8.34Zm0 0"/><path fill="#4a2d2c" d="m200.777 169.54-2.691-12.458 20.851 20.64Zm0 0"/><path fill="#4d3634" d="m179.277 136.977 18.809 20.105-22.879-2.355Zm0 0"/><path fill="#764f22" d="m99.914 154.25 33.16 25.637-23.84 3.925Zm0 0"/><path fill="#9c3b03" d="m95.613 186.953 4.301-32.703 9.32 29.563Zm0 0"/><path fill="#4a2d2c" d="m134.648 235.156 2.723 17.227-17.797-7.75Zm0 0"/><path fill="#9b3900" d="m155.191 218.453 9.88 31.117-30.423-14.414Zm0 0"/><path fill="#4a302d" d="m165.07 249.57-9.879-31.117 26.258 18.18Zm0 0"/><path fill="#9b3900" d="m165.07 249.57-27.699 2.813-2.723-17.227Zm0 0"/><path fill="#4a2e2c" d="m165.07 249.57 16.38-12.937 4.042 19.347Zm0 0"/><path fill="#7c3701" d="m137.371 252.383 27.7-2.813-10.673 19.63Zm0 0"/><path fill="#937f4e" d="m165.07 249.57 20.422 6.41-11.336 16.325Zm0 0"/><path fill="#733602" d="m154.398 269.2 10.672-19.63 9.086 22.735Zm0 0"/><path fill="#4a4335" d="m211.102 221.164-9.82 9.73-10.942-9.261Zm0 0"/><path fill="#747054" d="m201.281 230.895-5.742 17.53-14.09-11.792Zm0 0"/><path fill="#4a4435" d="m201.281 230.895-19.832 5.738 8.89-15Zm0 0"/><path fill="#f6c5b4" d="m383.992 375.824-37.383 8.18 6.086-17.89Zm0 0"/><path fill="#8f9874" d="m383.992 375.824-31.297-9.71 20.7-4.887Zm0 0"/><path fill="#f6c5b4" d="m253.691 96.102 1.094-11.829 16.95 7.59ZM340.629 328.04l-28.192 9.187-5.472-26.649Zm0 0"/><path fill="#f6c5b4" d="m312.438 337.227 28.19-9.188 4.196 20.527Zm0 0"/><path fill="#beb6b5" d="m198.086 157.082 19.312-3.41 18.079 15.71Zm0 0"/><path fill="#4a2d2c" d="m235.477 169.383-18.079-15.711 13.872-2.317Zm0 0"/><path fill="#99adb8" d="m201.055 140-21.778-3.023 4.266-10.72Zm0 0"/><path fill="#743602" d="M217.398 153.672 201.055 140l22.843-19.2Zm0 0"/><path fill="#4a2d2c" d="M198.086 157.082 201.055 140l16.343 13.672Zm0 0"/><path fill="#cebab4" d="M179.277 136.977 201.055 140l-2.97 17.082Zm0 0"/><path fill="#593205" d="M223.898 120.8 201.055 140l16.547-21.777Zm0 0"/><path fill="#8b3b06" d="m201.055 140-17.512-13.742 34.059-8.035Zm0 0"/><path fill="#f6c5b4" d="m271.734 91.863 9.555 8.39-11.496 4.442Zm0 0"/><path fill="#4a714a" d="m271.734 91.863 6.176-55.379 3.38 63.77Zm0 0"/><path fill="#f6c5b4" d="m271.734 91.863-16.949-7.59 23.125-47.789Zm0 0"/></svg>