<svg xmlns="http://www.w3.org/2000/svg" width="512" height="512" viewBox="0 0 384 384"><path fill="#e8b865" d="m55.188 259.574 1.292 32.153-23.671-6.532Zm0 0"/><path fill="#443846" d="m219.664 258.805 11.297-28.02 12.422 20.637Zm0 0"/><path fill="#efe98a" d="M262.191 18.883 302.844.016l-1.867 22.515Zm0 0"/><path fill="#51454b" d="m384.012 223.113-27.332-16.972 27.312-18.805Zm0 0"/><path fill="#c2bc7a" d="m356.68 206.14-.094 35.22-11.309-1.04Zm0 0"/><path fill="#564a4c" d="m356.586 241.36 27.426-18.247-.012 32.008Zm0 0"/><path fill="#51484e" d="m384.012 223.113-27.426 18.246.094-35.218Zm0 0"/><path fill="#e0db86" d="m342.371 198.684 14.309 7.457-11.403 34.18Zm0 0"/><path fill="#5c5453" d="m308.453 223.742 33.918-25.058 2.906 41.636Zm0 0"/><path fill="#eae488" d="m286.184 169.898-.68-14.714 24.09 7.004Zm0 0"/><path fill="#eee98a" d="m285.504 155.184.68 14.714-26.735-16.253Zm0 0"/><path fill="#586069" d="m122.96 0-8.26 18.172L91.66 0Zm0 0"/><path fill="#f0ea8a" d="m233.309 0-29.254 30.254L184.992.008Zm0 0"/><path fill="#fab954" d="m171.746 26.266 26.586 11.437-19.355 2.031Zm0 0"/><path fill="#443846" d="m198.332 37.703-26.586-11.437 32.309 3.988Zm0 0"/><path fill="#483b47" d="m215.285 38.945-16.953-1.242 5.723-7.45Zm0 0"/><path fill="#967650" d="m198.332 37.703 16.953 1.242-4.945 11.266Zm0 0"/><path fill="#576069" d="M76.95 31.73 33.585-.008 91.66 0Zm0 0"/><path fill="#a0a178" d="m33.055 126.543.508 41.504L0 183.289Zm0 0"/><path fill="#767a6d" d="m-.008 267.332.004-34.371 54.508 9.71Zm0 0"/><path fill="#f6bb5a" d="m-.008 267.332 32.817 17.863L.012 315.871Zm0 0"/><path fill="#6e736d" d="m55.188 259.574-55.196 7.758 54.512-24.66Zm0 0"/><path fill="#e8ba66" d="m55.188 259.574-22.38 25.621-32.816-17.863Zm0 0"/><path fill="#e6b867" d="m81.871 285.02-25.39 6.707-1.294-32.153Zm0 0"/><path fill="#997f72" d="m198.824 374.504 32.63-1.711 4.468 11.223Zm0 0"/><path fill="#f7b654" d="m253.027 368.863-8.074-9.832 9.043-21.96Zm0 0"/><path fill="#443846" d="m244.953 359.031-11.808-13.816 20.851-8.145Zm0 0"/><path fill="#443846" d="m233.145 345.215 11.808 13.816-14.3-1.55Zm0 0"/><path fill="#f8b855" d="m291.402 340.324-38.375 28.54.97-31.794Zm0 0"/><path fill="#7c7662" d="m310.941 256.332-2.488-32.59 36.824 16.578Zm0 0"/><path fill="#d4a45a" d="m77.215 367.55-2.578 16.442-20.832-8.07Zm0 0"/><path fill="#e9ae59" d="m104.754 352.14 24.86 12.63-52.4 2.78Zm0 0"/><path fill="#f9b955" d="m87.172 326.664 17.582 25.477-32.582-.95Zm0 0"/><path fill="#f1eb8a" d="m260.57 46.496-17.43 14.379 9.9-22.777Zm0 0"/><path fill="#efe98a" d="M332.047 25.355 361.152 0l3.461 26.27Zm0 0"/><path fill="#efe989" d="m361.941 44.23-28.218 28.813-1.676-47.688Zm0 0"/><path fill="#4c4049" d="m364.559 88.285 19.445-41.09.012 75.903Zm0 0"/><path fill="#4a3f48" d="m384.004 47.195-19.445 41.09 5.503-44.558Zm0 0"/><path fill="#eee889" d="m361.941 44.23 2.618 44.055-30.836-15.242Zm0 0"/><path fill="#b7af73" d="M364.559 88.285 361.94 44.23l8.122-.503Zm0 0"/><path fill="#f0eb8a" d="m300.977 22.531-28.399 14.364-10.387-18.012Zm0 0"/><path fill="#f1eb8a" d="m262.191 18.883 10.387 18.012-19.539 1.203ZM272.578 36.895l-12.008 9.601-7.53-8.398Zm0 0"/><path fill="#443846" d="m218.188 207.254 24.75-.234-11.977 23.765ZM218.188 207.254l18.992-7.805 5.757 7.57Zm0 0"/><path fill="#ece689" d="m285.504 155.184 19.148-25.25 4.942 32.254Zm0 0"/><path fill="#e3aa54" d="M128.219 177.754 116.5 161.133l13.61-4.711Zm0 0"/><path fill="#576069" d="m64.398 194.773 31.559 30.622-41.453 17.277ZM95.27 183.469l.687 41.926-31.559-30.622Zm0 0"/><path fill="#443846" d="m185.578 190.203 21.902-3.441-11.417 23.05ZM214.035 250.672l16.926-19.887-11.297 28.02Zm0 0"/><path fill="#576069" d="M114.7 18.172 76.95 31.73 91.66 0Zm0 0"/><path fill="#fab854" d="m164.266 43.117 7.48-16.851 7.23 13.468Zm0 0"/><path fill="#f1eb8a" d="m233.309 0 1.02 25.96-30.274 4.294Zm0 0"/><path fill="#f1ea8a" d="m234.328 25.96-19.043 12.985-11.23-8.691Zm0 0"/><path fill="#f1eb8a" d="m234.328 25.96 27.863-7.077-9.152 19.215Zm0 0"/><path fill="#f0ea8a" d="m262.191 18.883-27.863 7.078L233.308 0Zm0 0"/><path fill="#576069" d="M65.031 58.781 33.465 79.586l15.84-38.547Zm0 0"/><path fill="#586169" d="M33.465 79.586 29.609 38.05l19.696 2.988Zm0 0"/><path fill="#abac7b" d="m29.61 38.05 3.855 41.536-9.848.133Zm0 0"/><path fill="#576069" d="m65.031 58.781 23.469.68-18.637 35.437ZM88.867 150.457l-24.469 44.316-30.835-26.726Zm0 0"/><path fill="#f8ba57" d="m.012 315.871 32.797-30.676 1.054 35.07Zm0 0"/><path fill="#a68a5b" d="m-.016 346.809.028-30.938 33.851 4.395Zm0 0"/><path fill="#dba459" d="m74.637 383.992-49.844.063 29.012-8.133Zm0 0"/><path fill="#443846" d="m244.262 187.73 17.023 13.391-18.348 5.899Zm0 0"/><path fill="#443846" d="m261.285 201.121-17.023-13.39 3.41-10.149Zm0 0"/><path fill="#7c8170" d="m261.86 201.355-.575-.234 18.668-20.953Zm0 0"/><path fill="#5d4a47" d="m248.21 228.945 15.892 33.133-20.72-10.656Zm0 0"/><path fill="#443846" d="m230.96 230.785 17.25-1.84-4.827 22.477Zm0 0"/><path fill="#443846" d="m242.938 207.02 5.273 21.925-17.25 1.84Zm0 0"/><path fill="#f0ea8a" d="m259.45 153.645 26.734 16.253-6.23 10.27Zm0 0"/><path fill="#796f5b" d="m261.285 201.121-1.836-47.476 20.504 26.523Zm0 0"/><path fill="#443846" d="m207.48 186.762 7.41-8.489 16.954-5.218ZM244.953 359.031l-13.5 13.762-.8-15.313Zm0 0"/><path fill="#fab954" d="m212.438 291.457-15.055 26.176-5.5-31.145Zm0 0"/><path fill="#fab854" d="m197.383 317.633 15.054-26.176 6.551 25.383ZM206.559 347.191l-9.176-29.558 21.605-.793Zm0 0"/><path fill="#443846" d="m233.145 345.215-26.586 1.976 12.43-30.351Zm0 0"/><path fill="#f9b855" d="m211.766 262.086 2.27-11.414 5.628 8.133Zm0 0"/><path fill="#fab955" d="m214.035 250.672-2.27 11.414-15.265-5.625Zm0 0"/><path fill="#443846" d="m229.094 267.879-9.43-9.074 23.719-7.383ZM233.145 345.215l7.386-24.203 13.465 16.058Zm0 0"/><path fill="#443846" d="m240.531 321.012-7.386 24.203-14.157-28.375Zm0 0"/><path fill="#997f72" d="m231.453 372.793 21.574-3.93-17.105 15.153Zm0 0"/><path fill="#f9b854" d="m253.027 368.863-21.574 3.93 13.5-13.762Zm0 0"/><path fill="#ecaf58" d="m144.488 372.219 38.184 11.77-48.442.015Zm0 0"/><path fill="#4f4047" d="m144.488 372.219 10.926-20.867 18.074-2.192Zm0 0"/><path fill="#d4a260" d="m182.672 383.988 16.152-9.484 37.098 9.512Zm0 0"/><path fill="#d7a35f" d="m77.215 367.55 52.398-2.78 4.617 19.234Zm0 0"/><path fill="#c79a64" d="m74.637 383.992 2.578-16.441 57.015 16.453Zm0 0"/><path fill="#f6b655" d="m129.613 364.77-24.86-12.63 24.126 1.923Zm0 0"/><path fill="#d5a357" d="m72.172 351.191 32.582.95-27.54 15.41Zm0 0"/><path fill="#f1ea8a" d="m243.14 60.875-10.202-8.988 20.101-13.79Zm0 0"/><path fill="#f1eb8a" d="m232.938 51.887 1.39-25.926 18.711 12.137Zm0 0"/><path fill="#f1ea89" d="m234.328 25.96-1.39 25.927-17.653-12.942Zm0 0"/><path fill="#fab955" d="m198.332 37.703-.707 19.7-18.648-17.669Zm0 0"/><path fill="#82674e" d="m197.625 57.402.707-19.699 12.008 12.508Zm0 0"/><path fill="#fab954" d="m217.047 67.953-19.422-10.55 12.715-7.192Zm0 0"/><path fill="#f0ea8a" d="M302.844.016 262.19 18.883 233.31 0Zm0 0"/><path fill="#483c47" d="M364.613 26.27 361.153 0l22.835.012Zm0 0"/><path fill="#574b4d" d="m338.547 107.09-22.09 1.969 17.266-36.016Zm0 0"/><path fill="#efe889" d="m364.559 88.285-26.012 18.805-4.824-34.047Zm0 0"/><path fill="#473c47" d="M370.063 43.727 383.988.012l.016 47.183Zm0 0"/><path fill="#493d48" d="m370.063 43.727-5.45-17.457L383.988.012Zm0 0"/><path fill="#e1da84" d="m342.371 198.684 17.664-16.2-3.355 23.657Zm0 0"/><path fill="#4c4049" d="m356.68 206.14 3.355-23.656 23.957 4.852Zm0 0"/><path fill="#605551" d="m338.602 141.844 3.77 56.84-32.778-36.496Zm0 0"/><path fill="#676c69" d="m304.652 129.934 33.95 11.91-29.008 20.344Zm0 0"/><path fill="#61696b" d="m338.547 107.09.055 34.754-22.145-32.785Zm0 0"/><path fill="#62696a" d="m338.602 141.844-33.95-11.91 11.805-20.875Zm0 0"/><path fill="#e8e388" d="m286.184 169.898 21.347 25.157-27.578-14.887Zm0 0"/><path fill="#eae388" d="m307.531 195.055-21.347-25.157 23.41-7.71Zm0 0"/><path fill="#6b6155" d="m342.371 198.684-34.84-3.63 2.063-32.866Zm0 0"/><path fill="#766e5d" d="m307.531 195.055 34.84 3.629-33.918 25.058Zm0 0"/><path fill="#e8e388" d="m307.531 195.055-45.672 6.3 18.094-21.187Zm0 0"/><path fill="#e5df87" d="m261.86 201.355 45.671-6.3.922 28.687Zm0 0"/><path fill="#453946" d="m253.418 138.707 6.031 14.938-27.605 19.41Zm0 0"/><path fill="#ede889" d="m304.652 129.934-19.367-4.067.406-24.101Zm0 0"/><path fill="#eee889" d="m285.285 125.867 19.367 4.067-19.148 25.25Zm0 0"/><path fill="#453946" d="m269.27 137.395 16.234 17.789-26.055-1.54ZM269.27 137.395l16.015-11.528.219 29.317Zm0 0"/><path fill="#8c6c4c" d="m253.418 138.707 15.852-1.312-9.82 16.25Zm0 0"/><path fill="#fab854" d="m128.219 177.754 13.508 10.93-8.258 11.336Zm0 0"/><path fill="#fab954" d="m150.73 14.723-13.742 28.695-17.027-12.45Zm0 0"/><path fill="#5f4b48" d="m171.746 26.266-34.758 17.152 13.742-28.695Zm0 0"/><path fill="#fab954" d="m136.988 43.418 34.758-17.152-7.48 16.851ZM128.219 177.754l24.273-16.191-10.765 27.12ZM152.492 161.563l-24.273 16.19 1.89-21.331Zm0 0"/><path fill="#83654b" d="m152.492 161.563-8.543-21.38 16.906 2.032Zm0 0"/><path fill="#a57c4d" d="m143.95 140.184 11.109-8.848 5.796 10.879Zm0 0"/><path fill="#f8b753" d="m143.95 140.184 8.542 21.379-22.383-5.141Zm0 0"/><path fill="#fab854" d="m139.043 110.844-38.445 14.828-14.606-29.649Zm0 0"/><path fill="#443846" d="m214.36 156.695 39.058-17.988-21.574 34.348Zm0 0"/><path fill="#443846" d="m214.36 156.695 2.714-39.937 36.344 21.949Zm0 0"/><path fill="#fab854" d="m109.867 334.766-5.113 17.375-17.582-25.477Zm0 0"/><path fill="#463946" d="m109.867 334.766 15.504-9.09 3.508 28.387Zm0 0"/><path fill="#453946" d="m104.754 352.14 5.113-17.374 19.012 19.296Zm0 0"/><path fill="#fab954" d="m106.57 282.941 3.575 31.852L81.87 285.02Zm0 0"/><path fill="#d19b51" d="m95.957 225.395 13.438-15.372 17.644 14.356Zm0 0"/><path fill="#fab954" d="m109.395 210.023-13.438 15.372-.687-41.926Zm0 0"/><path fill="#586169" d="m76.965 257.973 18.992-32.578 10.234 41.183Zm0 0"/><path fill="#dbb873" d="m76.965 257.973 4.906 27.047-26.683-25.446Zm0 0"/><path fill="#5d656a" d="m76.965 257.973-21.778 1.601-.683-16.902Zm0 0"/><path fill="#586169" d="m95.957 225.395-18.992 32.578-22.461-15.301Zm0 0"/><path fill="#f5d06e" d="m95.957 225.395 27.469 32.882-17.235 8.301Zm0 0"/><path fill="#443846" d="m123.426 258.277-27.469-32.882 31.082-1.016Zm0 0"/><path fill="#f8b753" d="m159.945 243.93-27.562-21.813 13.46-14.129Zm0 0"/><path fill="#443846" d="m196.063 209.813-18.88.57 8.395-20.18Zm0 0"/><path fill="#443846" d="m178.68 178.277 22.05-12.093-15.152 24.02Zm0 0"/><path fill="#fab853" d="m152.492 161.563 7.762 30.011-18.527-2.89Zm0 0"/><path fill="#ac834f" d="m172.184 268.195 6.636 17.707-17.922-7.343Zm0 0"/><path fill="#493b46" d="m178.82 285.902 13.325-13.718-.262 14.304Zm0 0"/><path fill="#443846" d="m192.145 272.184-13.325 13.718-6.636-17.707ZM192.145 272.184l-10.813-14.555 15.168-1.168Zm0 0"/><path fill="#443846" d="m181.332 257.629 10.813 14.555-19.961-3.989ZM209.336 223.148l8.851-15.894 12.774 23.531ZM214.035 250.672l-4.7-27.524 21.626 7.637Zm0 0"/><path fill="#f8b855" d="m359.195 306.645 24.832-22.555-.039 45.437Zm0 0"/><path fill="#9a8072" d="M383.996 384.004h-70.254l43.79-28.645Zm0 0"/><path fill="#576069" d="M76.95 31.73 65.03 58.781 49.305 41.04Zm0 0"/><path fill="#f7b754" d="m94.3 40.758 20.4-22.586 5.26 12.797Zm0 0"/><path fill="#576069" d="M94.3 40.758 76.95 31.73l37.75-13.558Zm0 0"/><path fill="#deaa57" d="m114.7 18.172 36.03-3.45-30.77 16.247Zm0 0"/><path fill="#586069" d="m122.96 0 27.77 14.723-36.03 3.449Zm0 0"/><path fill="#586069" d="M150.73 14.723 122.96 0l33.884.016Zm0 0"/><path fill="#efe98a" d="m156.844.016 28.148-.008-13.246 26.258Zm0 0"/><path fill="#eae489" d="M171.746 26.266 184.992.008l19.063 30.246Zm0 0"/><path fill="#5a6269" d="M150.73 14.723 156.844.016l14.902 26.25Zm0 0"/><path fill="#d8d485" d="M23.617 79.719.012 105.082l-.016-56.258Zm0 0"/><path fill="#bebd7f" d="M23.617 79.719-.003 48.824l29.612-10.773Zm0 0"/><path fill="#576069" d="m88.5 59.46-2.508 36.563-16.129-1.125Zm0 0"/><path fill="#d9d585" d="M29.61 38.05-.005 48.825.004-.008Zm0 0"/><path fill="#b7b77e" d="m33.586-.008-3.977 38.059L.004-.008Zm0 0"/><path fill="#586169" d="m49.305 41.04-19.696-2.99L33.586-.007Zm0 0"/><path fill="#576069" d="M49.305 41.04 33.585-.009 76.95 31.73ZM53.805 127.309l35.062 23.148-55.305 17.59Zm0 0"/><path fill="#586169" d="m33.055 126.543 20.75.766-20.242 40.738Zm0 0"/><path fill="#9ea078" d="m.012 105.082 33.043 21.461L0 183.289Zm0 0"/><path fill="#7f806d" d="M33.2 208.477-.005 232.96 0 183.289Zm0 0"/><path fill="#7e816f" d="M-.004 232.96 33.2 208.478l21.305 34.195Zm0 0"/><path fill="#586169" d="m54.504 242.672-21.305-34.195 31.2-13.704Zm0 0"/><path fill="#576069" d="M64.398 194.773 33.2 208.477l.364-40.43Zm0 0"/><path fill="#828671" d="M33.2 208.477 0 183.289l33.563-15.242Zm0 0"/><path fill="#524247" d="M17.18 362.969 0 384l-.016-37.191Zm0 0"/><path fill="#6e5a4d" d="M19.766 346.953 17.18 362.97l-17.196-16.16Zm0 0"/><path fill="#4b3f48" d="m17.18 362.969 2.586-16.016 22.488 12.805Zm0 0"/><path fill="#e8b35d" d="m33.863 320.266-14.097 26.687-19.782-.144Zm0 0"/><path fill="#e2b05e" d="m42.898 352.219-23.132-5.266 14.097-26.687Zm0 0"/><path fill="#777669" d="m19.766 346.953 23.132 5.266-.644 7.539Zm0 0"/><path fill="#443846" d="m261.285 201.121-13.074 27.824-5.274-21.925Zm0 0"/><path fill="#d8d384" d="m264.066 230.719-2.207-29.364 46.594 22.387Zm0 0"/><path fill="#604c48" d="m261.285 201.121 2.781 29.598-15.855-1.774Zm0 0"/><path fill="#453946" d="m261.86 201.355 2.206 29.364-2.78-29.598Zm0 0"/><path fill="#463a46" d="m185.578 190.203 15.152-24.02 6.75 20.579Zm0 0"/><path fill="#443846" d="m200.73 166.184 14.16 12.09-7.41 8.488ZM247.672 177.582l11.777-23.937 1.836 47.476Zm0 0"/><path fill="#f7b653" d="m247.672 177.582-15.828-4.527 27.605-19.41Zm0 0"/><path fill="#453946" d="m237.18 199.45 7.082-11.72-1.325 19.29Zm0 0"/><path fill="#fab854" d="m212.438 291.457 25.117 9.746-18.567 15.637Zm0 0"/><path fill="#fab954" d="m237.555 301.203-25.118-9.746 15.747-8.02Zm0 0"/><path fill="#443846" d="m237.555 301.203 2.976 19.809-21.543-4.172Zm0 0"/><path fill="#463946" d="m203.902 352.703 29.243-7.488-2.493 12.265Zm0 0"/><path fill="#4c3d46" d="m203.902 352.703 2.657-5.512 26.586-1.976Zm0 0"/><path fill="#443846" d="m231.453 372.793-27.55-20.09 26.75 4.777Zm0 0"/><path fill="#f9b854" d="m203.902 352.703 27.551 20.09-32.629 1.71Zm0 0"/><path fill="#4e3f46" d="m187.664 324.945 9.719-7.312 9.176 29.558Zm0 0"/><path fill="#f9b956" d="m204.281 274.023 8.156 17.434-20.554-4.969Zm0 0"/><path fill="#f9ba56" d="m192.145 272.184 12.136 1.84-12.398 12.464Zm0 0"/><path fill="#f8bd59" d="m211.766 262.086-7.485 11.937-7.781-17.562Zm0 0"/><path fill="#f8bf5c" d="m204.281 274.023-12.136-1.84 4.355-15.722Zm0 0"/><path fill="#6a5348" d="m264.102 262.078-21.235 8.067.516-18.723Zm0 0"/><path fill="#916e4c" d="m242.867 270.145-13.773-2.266 14.289-16.457Zm0 0"/><path fill="#b3864e" d="m229.094 267.879 13.773 2.266-14.683 13.293Zm0 0"/><path fill="#fab854" d="m263.008 305.117 23.683 2.832-32.695 29.121Zm0 0"/><path fill="#9b8072" d="m253.027 368.863 60.715 15.14-77.82.013Zm0 0"/><path fill="#997f72" d="m310.723 369.484 3.02 14.52-60.716-15.14Zm0 0"/><path fill="#e5ae5c" d="m305.242 353.031-13.84-12.707 29.543-14.32Zm0 0"/><path fill="#e6bd68" d="m315.938 286.023-4.997-29.691 34.336-16.012Zm0 0"/><path fill="#e2b66a" d="m352.746 266.508-36.808 19.515 29.34-45.703Zm0 0"/><path fill="#e7ad5a" d="m129.613 364.77 14.875 7.449-10.258 11.785Zm0 0"/><path fill="#f9b854" d="m155.414 351.352-10.926 20.867-14.875-7.45Zm0 0"/><path fill="#fab854" d="m128.879 354.063 26.535-2.711-25.8 13.418Zm0 0"/><path fill="#f1b357" d="m144.488 372.219 37.38 2.3.804 9.47Zm0 0"/><path fill="#443846" d="m181.867 374.52-37.379-2.301 29-23.059Zm0 0"/><path fill="#443846" d="m203.902 352.703-22.035 21.817-8.379-25.36Zm0 0"/><path fill="#443746" d="m181.867 374.52 22.035-21.817-5.078 21.8Zm0 0"/><path fill="#f5b555" d="m182.672 383.988-.805-9.468 16.957-.016Zm0 0"/><path fill="#473a46" d="m232.938 51.887-13.086.746-4.567-13.688Zm0 0"/><path fill="#453946" d="m215.285 38.945 4.567 13.688-9.512-2.422Zm0 0"/><path fill="#fab954" d="m219.852 52.633-2.805 15.32-6.707-17.742Zm0 0"/><path fill="#ede789" d="M332.047 25.355 329.89.012 361.152 0Zm0 0"/><path fill="#968d66" d="m272.754 95.406.226-15.699 12.711 22.059Zm0 0"/><path fill="#f0ea8a" d="m272.98 79.707 28.227 1.246-15.516 20.813Zm0 0"/><path fill="#b4ac72" d="m301.207 80.953 32.516-7.91-17.266 36.016Zm0 0"/><path fill="#f0e98a" d="m364.613 26.27-2.672 17.96-29.894-18.875Zm0 0"/><path fill="#b3aa72" d="m361.941 44.23 2.672-17.96 5.45 17.457Zm0 0"/><path fill="#e4de86" d="m338.602 141.844 21.433 40.64-17.664 16.2Zm0 0"/><path fill="#574c4d" d="m360.035 182.484 23.98-59.386-.023 64.238Zm0 0"/><path fill="#ba9c74" d="m352.746 266.508 31.281 17.582-24.832 22.555Zm0 0"/><path fill="#453946" d="m245.852 110.398 23.418 26.997-15.852 1.312Zm0 0"/><path fill="#f1e989" d="m251.313 84.156-7.907 11.856-18.84-13.574Zm0 0"/><path fill="#f1eb8a" d="m301.207 80.953 15.25 28.106-30.766-7.293Zm0 0"/><path fill="#efea8a" d="m316.457 109.059-11.805 20.875-18.96-28.168Zm0 0"/><path fill="#443846" d="m188.91 72.637-19.406 11.676-8.399-22.633Zm0 0"/><path fill="#f9b753" d="m169.504 84.313-27.95-4.032 19.551-18.601Zm0 0"/><path fill="#fab854" d="m114.477 58.11 27.078 22.171-55.563 15.742Zm0 0"/><path fill="#f4c563" d="m88.5 59.46 25.977-1.35-28.485 37.913Zm0 0"/><path fill="#fab954" d="m115.547 138.777 28.402 1.407-13.84 16.238ZM115.547 138.777l-18.102 3.246 3.153-16.351Zm0 0"/><path fill="#dab262" d="m116.5 161.133-.953-22.356 14.562 17.645Zm0 0"/><path fill="#906e4b" d="m139.043 110.844 24.336-14.324-8.32 34.816Zm0 0"/><path fill="#f7b754" d="m189.996 104.07 6.961 11.594-11.621 18.293Zm0 0"/><path fill="#463946" d="m178.941 98.328 11.055 5.742-4.66 29.887Zm0 0"/><path fill="#453946" d="m189.996 104.07 22.14 3.016-15.179 8.578Zm0 0"/><path fill="#f9b854" d="m196.957 115.664 15.18-8.578 4.937 9.672Zm0 0"/><path fill="#f9b753" d="m214.36 156.695-18.516-10.125 21.23-29.812Zm0 0"/><path fill="#443846" d="m173.496 138.629 2.992 20.254-15.633-16.668Zm0 0"/><path fill="#f8b754" d="m176.488 158.883-23.996 2.68 8.363-19.348Zm0 0"/><path fill="#fab954" d="m173.496 138.629 5.445-40.3 6.395 35.628Zm0 0"/><path fill="#4f4047" d="m185.336 133.957 11.621-18.293 20.117 1.094Zm0 0"/><path fill="#fab954" d="m81.871 285.02 28.274 29.773-22.973 11.871Zm0 0"/><path fill="#fab854" d="m110.145 314.793-.278 19.973-22.695-8.102Zm0 0"/><path fill="#604c48" d="m109.867 334.766.278-19.973 15.226 10.883Zm0 0"/><path fill="#5e4a48" d="m125.371 325.676-15.226-10.883 13.793-9.54Zm0 0"/><path fill="#e9b560" d="m72.172 351.191-29.274 1.028-9.035-31.953Zm0 0"/><path fill="#594747" d="m106.57 282.941 17.368 22.313-13.793 9.539Zm0 0"/><path fill="#443846" d="M123.938 305.254 106.57 282.94l27.493 5.985Zm0 0"/><path fill="#576069" d="m88.867 150.457 6.403 33.012-30.872 11.304Zm0 0"/><path fill="#443846" d="m106.57 282.941 15.621-10.68 11.871 16.665Zm0 0"/><path fill="#483a46" d="m106.191 266.578 16 5.684-15.62 10.68Zm0 0"/><path fill="#443846" d="m123.426 258.277-1.235 13.985-16-5.684ZM132.383 222.117l4.574 30.555-9.918-28.293ZM136.957 252.672l-13.531 5.605 3.613-33.898Zm0 0"/><path fill="#dfa551" d="m160.898 278.559-14.406 10.738-4.453-21.66Zm0 0"/><path fill="#e2a852" d="m148.938 251.113 11.96 27.446-18.859-10.922Zm0 0"/><path fill="#f9b753" d="m136.957 252.672 11.98-1.559-6.898 16.524Zm0 0"/><path fill="#443846" d="m170.871 230.559-10.926 13.37-14.101-35.94Zm0 0"/><path fill="#443846" d="m159.945 243.93 10.926-13.371 13.91 14.425ZM177.184 210.383l-16.93-18.809 25.324-1.37ZM160.254 191.574l18.426-13.297 6.898 11.926ZM181.332 257.629l3.45-12.645 11.718 11.477Zm0 0"/><path fill="#efe98a" d="m218.188 207.254-10.708-20.492 29.7 12.687Zm0 0"/><path fill="#473b47" d="m207.48 186.762 10.708 20.492-22.125 2.559Zm0 0"/><path fill="#eeb359" d="m359.195 306.645 24.793 22.882-32.25-3.297Zm0 0"/><path fill="#9a7f72" d="m313.742 384.004-3.02-14.52 46.81-14.125Zm0 0"/><path fill="#fab854" d="m136.988 43.418-22.511 14.691 5.484-27.14Zm0 0"/><path fill="#fab954" d="M114.477 58.11 94.3 40.757l25.66-9.79Zm0 0"/><path fill="#f2e887" d="M217.047 67.953 203.12 85.7l-9.586-7.246Zm0 0"/><path fill="#f6d26f" d="m193.535 78.453 9.586 7.246-13.125 18.371Zm0 0"/><path fill="#f4de7c" d="m203.121 85.7 21.445-3.263-12.43 24.649Zm0 0"/><path fill="#443846" d="m224.566 82.438-21.445 3.261 13.926-17.746Zm0 0"/><path fill="#f1eb8a" d="m203.121 85.7 9.016 21.386-22.14-3.016Zm0 0"/><path fill="#9a9d77" d="m.012 105.082 23.605-25.363 9.438 46.824Zm0 0"/><path fill="#4d3f47" d="M25.188 383.945 17.18 362.97l25.074-3.211Zm0 0"/><path fill="#62504b" d="M25.188 383.945 0 384l17.18-21.031Zm0 0"/><path fill="#736b5f" d="m24.793 384.055.395-.11 28.617-8.023Zm0 0"/><path fill="#473b47" d="m25.188 383.945 17.066-24.187 11.55 16.164Zm0 0"/><path fill="#4f4249" d="m42.254 359.758 34.96 7.793-23.41 8.37Zm0 0"/><path fill="#dda95b" d="m77.215 367.55-34.961-7.792 29.918-8.567Zm0 0"/><path fill="#f8ba57" d="m56.48 291.727-22.617 28.539-1.054-35.07Zm0 0"/><path fill="#ada875" d="m310.941 256.332-22.703-5.426 20.215-27.164Zm0 0"/><path fill="#ccc981" d="m288.238 250.906-24.172-20.187 44.387-6.977Zm0 0"/><path fill="#f3cd6c" d="m285.953 278.96 2.285-28.054 22.703 5.426Zm0 0"/><path fill="#443846" d="m244.262 187.73-36.782-.968 24.364-13.707Zm0 0"/><path fill="#f1eb8a" d="m244.262 187.73-7.082 11.72-29.7-12.688Zm0 0"/><path fill="#473a46" d="m187.664 324.945-8.844-39.043 13.063.586Zm0 0"/><path fill="#463946" d="m197.383 317.633-9.719 7.312 4.219-38.457Zm0 0"/><path fill="#fab854" d="m221.988 270.406-17.707 3.617 7.485-11.937Zm0 0"/><path fill="#443846" d="m221.988 270.406 7.106-2.527-.91 15.558Zm0 0"/><path fill="#faba55" d="m212.438 291.457 9.55-21.05 6.196 13.03Zm0 0"/><path fill="#fab954" d="m204.281 274.023 17.707-3.617-9.55 21.051Zm0 0"/><path fill="#fab854" d="m221.988 270.406-10.222-8.32 7.898-3.281Zm0 0"/><path fill="#443846" d="m229.094 267.879-7.106 2.527-2.324-11.601Zm0 0"/><path fill="#493c46" d="m263.969 290.574-21.102-20.43 21.235-8.066Zm0 0"/><path fill="#f9bd59" d="m285.953 278.96-21.984 11.614.133-28.496Zm0 0"/><path fill="#fab854" d="m263.008 305.117.96-14.543 22.723 17.375Zm0 0"/><path fill="#fab954" d="m263.969 290.574 21.984-11.613.738 28.988Zm0 0"/><path fill="#443846" d="m240.531 321.012 22.477-15.895-9.012 31.953Zm0 0"/><path fill="#bb9368" d="m310.723 369.484-57.696-.62 52.215-15.833Zm0 0"/><path fill="#f5b655" d="m253.027 368.863 38.375-28.539 13.84 12.707Zm0 0"/><path fill="#fab854" d="m286.691 307.95 4.711 32.374-37.406-3.254ZM320.945 326.004l-29.543 14.32-4.71-32.375Zm0 0"/><path fill="#e3b66a" d="m315.938 286.023-29.985-7.062 24.988-22.629Zm0 0"/><path fill="#fab954" d="m285.953 278.96 29.985 7.063-29.247 21.926ZM315.938 286.023l5.007 39.98-34.254-18.054Zm0 0"/><path fill="#dbb36e" d="m359.195 306.645-43.257-20.622 36.808-19.515Zm0 0"/><path fill="#fab854" d="m315.938 286.023 43.257 20.622-38.25 19.359Zm0 0"/><path fill="#443846" d="m137.43 308.637-12.059 17.039-1.433-20.422Zm0 0"/><path fill="#785c4a" d="m203.902 352.703-30.414-3.543 33.07-1.969Zm0 0"/><path fill="#9f784d" d="m173.488 349.16 14.176-24.215 18.895 22.246Zm0 0"/><path fill="#c89550" d="m173.488 349.16-6.078-27.582 20.254 3.367Zm0 0"/><path fill="#e0a652" d="m167.41 321.578 6.078 27.582-18.074 2.192Zm0 0"/><path fill="#443846" d="m128.879 354.063 12.809-25.254 13.726 22.543Zm0 0"/><path fill="#443846" d="m141.688 328.809-12.81 25.253-3.507-28.386Zm0 0"/><path fill="#453846" d="m137.43 308.637 4.257 20.172-16.316-3.133Zm0 0"/><path fill="#f2b353" d="m229.145 70.234 3.792-18.347 10.204 8.988Zm0 0"/><path fill="#fab854" d="m229.145 70.234-9.293-17.601 13.085-.746Zm0 0"/><path fill="#443846" d="m229.145 70.234 22.167 13.922-26.746-1.719Zm0 0"/><path fill="#5e5350" d="m329.89.012 2.157 25.343L302.844.015Zm0 0"/><path fill="#726858" d="m332.047 25.355-31.07-2.824L302.844.016Zm0 0"/><path fill="#f0ea8a" d="m272.98 79.707 7.989-20.387 20.238 21.633Zm0 0"/><path fill="#857b5f" d="m304.46 47.535-3.483-25.004 31.07 2.824Zm0 0"/><path fill="#5e5350" d="m304.46 47.535 27.587-22.18 1.676 47.688Zm0 0"/><path fill="#e7df85" d="m361.617 127.016-1.582 55.468-21.433-40.64Zm0 0"/><path fill="#a9a16e" d="m360.035 182.484 1.582-55.468 22.399-3.918Zm0 0"/><path fill="#eee789" d="m364.559 88.285-2.942 38.73-23.07-19.925Zm0 0"/><path fill="#e4df87" d="m361.617 127.016-23.015 14.828-.055-34.754Zm0 0"/><path fill="#a9a06e" d="m384.016 123.098-22.399 3.918 2.942-38.73Zm0 0"/><path fill="#d8b26d" d="m384.027 284.09-31.28-17.582L384 255.12Zm0 0"/><path fill="#6a625a" d="m384 255.121-31.254 11.387 3.84-25.149Zm0 0"/><path fill="#978e6b" d="m356.586 241.36-3.84 25.148-7.469-26.188Zm0 0"/><path fill="#544448" d="m272.191 112.219-2.921 25.176-23.418-26.997Zm0 0"/><path fill="#453a46" d="m272.191 112.219.563-16.813 12.937 6.36Zm0 0"/><path fill="#473b47" d="m285.285 125.867-13.094-13.648 13.5-10.453Zm0 0"/><path fill="#635852" d="m269.27 137.395 2.921-25.176 13.094 13.648Zm0 0"/><path fill="#4a3c46" d="m253.45 74.504-24.305-4.27 13.996-9.359Zm0 0"/><path fill="#f0b153" d="m229.145 70.234 24.304 4.27-2.137 9.652Zm0 0"/><path fill="#443846" d="m243.406 96.012-14.199 6.914-4.64-20.489ZM224.566 82.438l4.641 20.488-17.07 4.16ZM212.137 107.086l17.07-4.16-12.133 13.832ZM188.91 72.637l28.137-4.684-23.512 10.5Zm0 0"/><path fill="#f9b955" d="m217.047 67.953-28.137 4.684 8.715-15.235Zm0 0"/><path fill="#463946" d="m188.91 72.637 4.625 5.816-3.539 25.617Zm0 0"/><path fill="#443846" d="m178.941 98.328 9.97-25.691 1.085 31.433Zm0 0"/><path fill="#f6d16e" d="m169.504 84.313 19.406-11.676-18.472 25.332Zm0 0"/><path fill="#443846" d="m188.91 72.637-9.969 25.691-8.504-.36ZM174.71 53.09l14.2 19.547-27.805-10.957Zm0 0"/><path fill="#443846" d="m188.91 72.637-14.2-19.547 22.915 4.312ZM197.625 57.402l-22.914-4.312 4.266-13.356ZM174.71 53.09l-10.444-9.973 14.71-3.383Zm0 0"/><path fill="#443846" d="m164.266 43.117 10.445 9.973-13.606 8.59Zm0 0"/><path fill="#e8ac52" d="m143.95 57.367 20.316-14.25-3.16 18.563Zm0 0"/><path fill="#fab854" d="m141.555 80.281 2.394-22.914 17.156 4.313ZM143.95 57.367l-6.962-13.949 27.278-.3Zm0 0"/><path fill="#fab854" d="m143.95 57.367-29.473.742 22.511-14.691ZM143.95 57.367l-2.395 22.914-27.078-22.172Zm0 0"/><path fill="#fab954" d="m141.555 80.281-2.512 30.563-53.05-14.82Zm0 0"/><path fill="#576069" d="M76.95 31.73 88.5 59.46l-23.469-.679Zm0 0"/><path fill="#edde80" d="m100.598 125.672-14.418 3.793-.188-33.442Zm0 0"/><path fill="#f3e280" d="M97.445 142.023 86.18 129.465l14.418-3.793Zm0 0"/><path fill="#e5de86" d="m86.18 129.465 11.265 12.558-8.578 8.434Zm0 0"/><path fill="#576069" d="m53.805 127.309 32.375 2.156 2.687 20.992ZM85.992 96.023l.188 33.442-16.317-34.567Zm0 0"/><path fill="#576069" d="m86.18 129.465-32.375-2.156 16.058-32.41Zm0 0"/><path fill="#c2914f" d="m143.95 140.184-4.907-29.34 16.016 20.492Zm0 0"/><path fill="#fab853" d="m115.547 138.777 23.496-27.933 4.906 29.34Zm0 0"/><path fill="#f8b753" d="m139.043 110.844-23.496 27.933-14.95-13.105Zm0 0"/><path fill="#fab853" d="m163.379 96.52-2.524 45.695-5.796-10.88Zm0 0"/><path fill="#fab854" d="m170.438 97.969-9.583 44.246 2.524-45.695Zm0 0"/><path fill="#453846" d="m160.855 142.215 9.583-44.246 8.503.36Zm0 0"/><path fill="#443846" d="m173.496 138.629-12.64 3.586 18.085-43.887Zm0 0"/><path fill="#5a4d4c" d="m176.488 158.883 19.356-12.313 4.886 19.614Zm0 0"/><path fill="#e4dc84" d="m176.488 158.883 2.192 19.394-26.188-16.714Zm0 0"/><path fill="#443846" d="m178.68 178.277-18.426 13.297-7.762-30.012Zm0 0"/><path fill="#f1ea8a" d="m178.68 178.277-2.192-19.394 24.242 7.3Zm0 0"/><path fill="#faba55" d="m81.871 285.02 5.3 41.644-30.69-34.937Zm0 0"/><path fill="#443846" d="m134.063 288.926 3.367 19.71-13.493-3.382Zm0 0"/><path fill="#fab854" d="m134.063 288.926 12.43.37-9.063 19.34Zm0 0"/><path fill="#f3e180" d="m97.445 142.023 6.801 17.188-15.379-8.754Zm0 0"/><path fill="#f8c15e" d="M104.246 159.21 95.27 183.47l-6.403-33.012Zm0 0"/><path fill="#463946" d="m104.246 159.21 11.3-20.433.954 22.356Zm0 0"/><path fill="#f9ba56" d="m115.547 138.777-11.3 20.434-6.802-17.188Zm0 0"/><path fill="#453946" d="m121.285 195.602-11.89 14.421L95.27 183.47Zm0 0"/><path fill="#443846" d="m121.285 195.602 6.934-17.848 5.25 22.266ZM133.469 200.02l-9.535 8.644-2.649-13.062Zm0 0"/><path fill="#443846" d="m109.395 210.023 14.539-1.359 3.105 15.715ZM123.934 208.664l8.449 13.453-5.344 2.262Zm0 0"/><path fill="#443846" d="m123.934 208.664-14.54 1.36 11.891-14.422Zm0 0"/><path fill="#fab853" d="m132.383 222.117 1.086-22.097 12.375 7.968Zm0 0"/><path fill="#443846" d="m123.934 208.664 9.535-8.644-1.086 22.097ZM138.32 268.695l-16.129 3.567 1.235-13.985Zm0 0"/><path fill="#443846" d="m136.957 252.672 1.363 16.023-14.894-10.418Zm0 0"/><path fill="#524247" d="m138.32 268.695-1.363-16.023 5.082 14.965Zm0 0"/><path fill="#f9b854" d="m146.492 289.297-8.172-20.602 3.72-1.058Zm0 0"/><path fill="#443846" d="m122.191 272.262 16.13-3.567-4.258 20.23Zm0 0"/><path fill="#f9b855" d="m138.32 268.695 8.172 20.602-12.43-.371Zm0 0"/><path fill="#dcb970" d="m106.191 266.578-24.32 18.442-4.906-27.047Zm0 0"/><path fill="#d9b775" d="m81.871 285.02 24.32-18.442.38 16.363Zm0 0"/><path fill="#f9b753" d="m159.945 243.93-11.007 7.183-16.555-28.996Zm0 0"/><path fill="#fab853" d="m148.938 251.113-11.981 1.559-4.574-30.555Zm0 0"/><path fill="#cc9850" d="m190.543 232.18-19.672-1.621 6.313-20.176Zm0 0"/><path fill="#443846" d="m190.543 232.18-13.36-21.797 18.88-.57Zm0 0"/><path fill="#443846" d="m170.871 230.559 19.672 1.62-5.762 12.805Zm0 0"/><path fill="#cb9750" d="m170.871 230.559-25.027-22.57 31.34 2.394Zm0 0"/><path fill="#f7b653" d="m145.844 207.988 14.41-16.414 16.93 18.809Zm0 0"/><path fill="#fab854" d="m145.844 207.988-12.375-7.968 8.258-11.336Zm0 0"/><path fill="#edaf53" d="m145.844 207.988-4.117-19.304 18.527 2.89Zm0 0"/><path fill="#dfa552" d="m199.086 239.996 10.25-16.848 4.7 27.524Zm0 0"/><path fill="#d7ab5c" d="m199.086 239.996 14.95 10.676-17.536 5.789Zm0 0"/><path fill="#443846" d="m184.781 244.984 14.305-4.988-2.586 16.465Zm0 0"/><path fill="#443846" d="m199.086 239.996-14.305 4.988 5.762-12.804Zm0 0"/><path fill="#5c4e4e" d="m383.988 329.527.008 54.477-26.465-28.645Zm0 0"/><path fill="#a38671" d="m351.738 326.23 32.25 3.297-26.457 25.832Zm0 0"/><path fill="#929576" d="m23.617 79.719 9.848-.133-.41 46.957Zm0 0"/><path fill="#576069" d="M33.465 79.586 65.03 58.78l4.832 36.117ZM53.805 127.309l-20.34-47.723 36.398 15.312Zm0 0"/><path fill="#576069" d="m33.465 79.586 20.34 47.723-20.75-.766Zm0 0"/><path fill="#dca95c" d="m72.172 351.191-29.918 8.567.644-7.54Zm0 0"/><path fill="#f4ca69" d="m265.95 260.492 20.003 18.469-21.851-16.883Zm0 0"/><path fill="#efd375" d="m265.95 260.492 22.288-9.586-2.285 28.055Zm0 0"/><path fill="#cfcb82" d="m288.238 250.906-22.289 9.586-1.883-29.773Zm0 0"/><path fill="#5d4a48" d="m248.21 228.945 17.74 31.547-1.848 1.586Zm0 0"/><path fill="#5d4a48" d="m264.066 230.719 1.883 29.773-17.738-31.547Zm0 0"/><path fill="#443846" d="m244.262 187.73-12.418-14.675 15.828 4.527Zm0 0"/><path fill="#fab854" d="m242.867 270.145-5.312 31.058-9.371-17.765Zm0 0"/><path fill="#473a46" d="m263.969 290.574-26.414 10.63 5.312-31.06Zm0 0"/><path fill="#463946" d="m237.555 301.203 26.414-10.629-.961 14.543Zm0 0"/><path fill="#443846" d="m240.531 321.012-2.976-19.809 25.453 3.914Zm0 0"/><path fill="#fab854" d="m154.887 321.715-17.457-13.078 9.062-19.34ZM141.688 328.809l13.199-7.094.527 29.637Zm0 0"/><path fill="#fab854" d="m154.887 321.715-13.2 7.094-4.257-20.172Zm0 0"/><path fill="#d79f51" d="m154.887 321.715 12.523-.137-11.996 29.774Zm0 0"/><path fill="#d19b50" d="m167.41 321.578-20.918-32.281 14.406-10.738Zm0 0"/><path fill="#98734c" d="m178.82 285.902-11.41 35.676-6.512-43.02Zm0 0"/><path fill="#c79450" d="m167.41 321.578-12.523.137-8.395-32.418Zm0 0"/><path fill="#96724c" d="m187.664 324.945-20.254-3.367 11.41-35.676Zm0 0"/><path fill="#443846" d="m229.145 70.234-4.579 12.204-4.714-29.805Zm0 0"/><path fill="#473a46" d="m219.852 52.633 4.714 29.804-7.52-14.484Zm0 0"/><path fill="#443846" d="M280.969 59.32 258 68.133l2.57-21.637Zm0 0"/><path fill="#443846" d="m258 68.133-14.86-7.258 17.43-14.379Zm0 0"/><path fill="#d39e52" d="m258 68.133-4.55 6.37-10.31-13.628Zm0 0"/><path fill="#f0ea8a" d="m280.969 59.32 23.492-11.785-3.254 33.418Zm0 0"/><path fill="#897f61" d="m304.46 47.535 29.263 25.508-32.516 7.91Zm0 0"/><path fill="#ae8c6d" d="m305.242 353.031 52.29 2.328-46.81 14.125Zm0 0"/><path fill="#443846" d="m245.852 110.398-16.645-7.472 14.2-6.914ZM245.852 110.398l7.566 28.309-36.344-21.95Zm0 0"/><path fill="#443846" d="m229.207 102.926 16.645 7.472-28.778 6.36Zm0 0"/><path fill="#ede789" d="m243.406 96.012 18.52 5.234-16.074 9.152Zm0 0"/><path fill="#eee889" d="m251.313 84.156 10.613 17.09-18.52-5.234Zm0 0"/><path fill="#443846" d="m261.926 101.246 10.265 10.973-26.34-1.82Zm0 0"/><path fill="#a39869" d="m261.926 101.246-10.613-17.09 8.14-.633Zm0 0"/><path fill="#473b47" d="m261.926 101.246-2.473-17.723 13.3 11.883Zm0 0"/><path fill="#443846" d="m272.191 112.219-10.265-10.973 10.828-5.84Zm0 0"/><path fill="#fab853" d="M163.379 96.52 141.555 80.28l27.949 4.031Zm0 0"/><path fill="#f3b353" d="m163.379 96.52-24.336 14.324 2.512-30.563Zm0 0"/><path fill="#fab954" d="m163.379 96.52 6.125-12.207.934 13.656Zm0 0"/><path fill="#f6ba58" d="m88.5 59.46 5.8-18.702 20.177 17.351Zm0 0"/><path fill="#576069" d="M94.3 40.758 88.5 59.46 76.95 31.73Zm0 0"/><path fill="#f1e888" d="m214.89 178.273-14.16-12.09 13.63-9.488Zm0 0"/><path fill="#f1eb8a" d="m214.36 156.695-13.63 9.489-4.886-19.614Zm0 0"/><path fill="#443846" d="m195.844 146.57-19.356 12.313-2.992-20.254Zm0 0"/><path fill="#fab854" d="m185.336 133.957 10.508 12.613-22.348-7.941Zm0 0"/><path fill="#f9ba56" d="m87.172 326.664-53.309-6.398 22.617-28.54Zm0 0"/><path fill="#ebb762" d="m87.172 326.664-15 24.527-38.309-30.925Zm0 0"/><path fill="#fabd58" d="m104.246 159.21 6.656 9.38-15.632 14.879Zm0 0"/><path fill="#fab854" d="m110.902 168.59 10.383 27.012-26.015-12.133Zm0 0"/><path fill="#463a46" d="m110.902 168.59-6.656-9.38 12.254 1.923Zm0 0"/><path fill="#443846" d="m128.219 177.754-17.317-9.164 5.598-7.457Zm0 0"/><path fill="#443846" d="m121.285 195.602-10.383-27.012 17.317 9.164ZM159.945 243.93l24.836 1.054-3.449 12.645Zm0 0"/><path fill="#bf8f4f" d="m148.938 251.113 11.007-7.183.953 34.629Zm0 0"/><path fill="#443846" d="m159.945 243.93 21.387 13.699-9.148 10.566Zm0 0"/><path fill="#c1904f" d="m160.898 278.559-.953-34.63 12.239 24.266Zm0 0"/><path fill="#443846" d="m218.188 207.254-8.852 15.894-13.274-13.335Zm0 0"/><path fill="#524247" d="m209.336 223.148-10.25 16.848-8.543-7.816Zm0 0"/><path fill="#453846" d="m209.336 223.148-18.793 9.032 5.52-22.368Zm0 0"/><path fill="#514349" d="m251.313 84.156 2.136-9.652 6.004 9.02Zm0 0"/><path fill="#f1eb8a" d="m304.46 47.535-31.882-10.64 28.399-14.364Zm0 0"/><path fill="#f0ea8a" d="m272.578 36.895 31.883 10.64-23.492 11.785Zm0 0"/><path fill="#443846" d="m272.578 36.895 8.39 22.425-20.398-12.824Zm0 0"/><path fill="#d8a55f" d="m320.945 326.004 30.793.226 5.793 29.13Zm0 0"/><path fill="#e5ad5b" d="m305.242 353.031 15.703-27.027 36.586 29.355Zm0 0"/><path fill="#f8b855" d="m320.945 326.004 38.25-19.36-7.457 19.586Zm0 0"/><path fill="#f1eb8a" d="m231.844 173.055-16.953 5.218-.532-21.578Zm0 0"/><path fill="#bf8f50" d="m195.844 146.57-10.508-12.613 31.738-17.2Zm0 0"/><path fill="#4a3c46" d="m253.45 74.504 14.382 3.773-8.379 5.246Zm0 0"/><path fill="#c08f4f" d="m267.832 78.277-14.383-3.773L258 68.133Zm0 0"/><path fill="#e1da84" d="m267.832 78.277 5.148 1.43-.226 15.7Zm0 0"/><path fill="#483c47" d="m259.453 83.523 8.379-5.246 4.922 17.13Zm0 0"/><path fill="#695e54" d="m267.832 78.277 13.137-18.957-7.989 20.387Zm0 0"/><path fill="#443846" d="M267.832 78.277 258 68.133l22.969-8.813Zm0 0"/></svg>