<svg xmlns="http://www.w3.org/2000/svg" width="512" height="512" viewBox="0 0 384 384"><path fill="#edcc5c" d="m61.078 269.344-24.984-7.586 23.781-3.801Zm0 0"/><path fill="#fefbf0" d="m36.094 261.758 24.984 7.586-27.45 22.57Zm0 0"/><path fill="#fefcf2" d="m61.078 269.344 5.86 36.273-33.31-13.703Zm0 0"/><path fill="#081d3b" d="m217.605 255.004 11.918-24.586 14.797 15.437Zm0 0"/><path fill="#8b751c" d="m271.688.023 53.164-.015-2.739 30.457Zm0 0"/><path fill="#192837" d="m384.04 202.8-14.79 42.38-33.219-10.285Zm0 0"/><path fill="#1c2a37" d="m369.25 245.18 14.79-42.38-.036 39.462Zm0 0"/><path fill="#1f2c36" d="M294.164 221.727 384.04 202.8l-48.008 32.094Zm0 0"/><path fill="#393e31" d="m283.05 179.508-1.28-51.852 46.394 49.871Zm0 0"/><path fill="#dee0e1" d="m281.77 127.656 1.28 51.852-23.437-24.899Zm0 0"/><path fill="#081d3b" d="m155.09 0-38.992 17.758L85.273 0Zm0 0"/><path fill="#fee48f" d="m172.844 25.488 18.73 4.414-14.722 8.813Zm0 0"/><path fill="#0a1e3b" d="m191.574 29.902-18.73-4.414 25.187-8.047Zm0 0"/><path fill="#0d203a" d="m206.871 30.59-15.297-.688 6.457-12.46Zm0 0"/><path fill="#fdcc27" d="m191.574 29.902 15.297.688-2.39 21.789Zm0 0"/><path fill="#081d3b" d="M58.273 41.871 0 0h85.273ZM60.793 126.398l-17.8 31.207L0 104.777Zm0 0"/><path fill="#0b1f3b" d="m36.094 261.758-3.453-20.23 27.234 16.429ZM.016 266.695l-.02-57.324 32.645 32.156Zm0 0"/><path fill="#fefbf1" d="m.016 266.695 33.613 25.22-33.633-.173Zm0 0"/><path fill="#0b1f3b" d="M36.094 261.758.016 266.695l32.625-25.168Zm0 0"/><path fill="#fefbf1" d="m36.094 261.758-2.465 30.156L.016 266.695Zm0 0"/><path fill="#fefcf4" d="m87.43 277.203-20.493 28.414-5.859-36.273Zm0 0"/><path fill="#081d3b" d="m198.219 373.773 31.12-2.238-.948 12.473Zm0 0"/><path fill="#fef7de" d="m268.516 356.258-23.188.71 6.984-15.718Zm0 0"/><path fill="#081d3b" d="m245.328 356.969-15.031-15.035 22.016-.684ZM230.297 341.934l15.031 15.035-17.02-1.13Zm0 0"/><path fill="#fef7df" d="m262.434 338.895 6.082 17.363-16.204-15.008Zm0 0"/><path fill="#1a2938" d="m304.05 250.277-9.886-28.55 41.867 13.168Zm0 0"/><path fill="#fefdf6" d="m89.031 328.156 16.434 27.13-36.547-4.09Zm0 0"/><path fill="#fecc25" d="m256.605 67.219-14.644 6.472 8.996-20.718Zm0 0"/><path fill="#695f24" d="m384-.004-61.887 30.469L324.852.008Zm0 0"/><path fill="#1c2b36" d="M322.113 30.465 384-.004l.004 85.992Zm0 0"/><path fill="#585328" d="m271.688.023 1.746 36.711-17.079-5.8Zm0 0"/><path fill="#5a5428" d="m322.113 30.465-48.68 6.27L271.689.022Zm0 0"/><path fill="#444839" d="m256.355 30.934 17.079 5.8-22.477 16.239Zm0 0"/><path fill="#fefefb" d="M273.434 36.734 256.605 67.22l-5.648-14.246Zm0 0"/><path fill="#081d3b" d="m214.527 216.219 23.973 8.531-8.977 5.668Zm0 0"/><path fill="#081d3b" d="m214.527 216.219 12.828-12.051L238.5 224.75Zm0 0"/><path fill="#202d36" d="m294.164 221.727 34-44.2 55.875 25.274Zm0 0"/><path fill="#887420" d="M383.988 259.191 369.25 245.18l14.754-2.918Zm0 0"/><path fill="#1a2937" d="m384.008 135.328-58.91-28.578 58.906-20.762Zm0 0"/><path fill="#fbf9f2" d="m129.336 183.77-37.77-22.836 35.582 5.406Zm0 0"/><path fill="#081d3c" d="m95.98 200.32.86 23.164-39.524-30.765Zm0 0"/><path fill="#081d3b" d="m57.316 192.719 36.91 33.031-34.351 32.207Zm0 0"/><path fill="#081d3c" d="m96.84 223.484-2.613 2.266-36.91-33.031Zm0 0"/><path fill="#fccf37" d="m94.227 225.75 2.613-2.266 4.867 17.91Zm0 0"/><path fill="#091e3c" d="m189.418 223.36-14.32-32.247 28.761 3.707Zm0 0"/><path fill="#0e2240" d="m193.852 179.777 16.187 5.407-6.18 9.636Zm0 0"/><path fill="#0b203d" d="m175.098 191.113 18.754-11.336 10.007 15.043Zm0 0"/><path fill="#081d3b" d="m213.137 248.816 16.386-18.398-11.918 24.586ZM92.305 26.488 58.273 41.871 85.273 0Zm0 0"/><path fill="#081d3b" d="m116.098 17.758-23.793 8.73L85.273 0Zm0 0"/><path fill="#fee9a2" d="m161.61 30.379 11.234-4.89 4.008 13.226Zm0 0"/><path fill="#feecaf" d="m162.797 45.48-1.188-15.101 15.243 8.336Zm0 0"/><path fill="#0c203a" d="M224.059 17.531 197.199 0l74.488.023Zm0 0"/><path fill="#0a1e3b" d="m197.2 0 26.859 17.531-26.028-.09Zm0 0"/><path fill="#0b1f3b" d="M224.059 17.531 206.87 30.59l-8.84-13.149Zm0 0"/><path fill="#091e3b" d="m224.059 17.531 32.296 13.403-5.398 22.039Zm0 0"/><path fill="#0d203a" d="M256.355 30.934 224.06 17.53 271.688.023Zm0 0"/><path fill="#081d3b" d="M-.004 209.371 0 104.777l42.992 52.828Zm0 0"/><path fill="#081d3c" d="m88.223 149.555-30.907 43.164-14.324-35.114Zm0 0"/><path fill="#081d3b" d="m32.64 241.527 24.676-48.808 2.559 65.238Zm0 0"/><path fill="#fefbf2" d="M33.629 291.914.004 316.082l-.008-24.34Zm0 0"/><path fill="#c8a31e" d="m.004 316.082 11.937 18.047-11.957 13.383Zm0 0"/><path fill="#e4b823" d="m11.941 334.129 15.743 9.398-27.7 3.985Zm0 0"/><path fill="#fefdf7" d="m33.629 291.914 7.184 30.582-40.81-6.414Zm0 0"/><path fill="#081d3c" d="m247.086 187.938 16.3 9.664L238.5 224.75Zm0 0"/><path fill="#081d3b" d="m238.5 224.75 5.82 21.105-14.797-15.437Zm0 0"/><path fill="#f5f6f5" d="m263.387 197.602-3.774-42.993 23.438 24.899Zm0 0"/><path fill="#091e3d" d="m210.04 185.184-.759-13.625 13.996 6.78Zm0 0"/><path fill="#081d3b" d="M229.34 371.535 253.07 384l-24.68.008ZM245.328 356.969l-15.988 14.566-1.031-15.695Zm0 0"/><path fill="#fefefb" d="m212.191 294.871-12.379 27.867-8.425-28.668Zm0 0"/><path fill="#fefdfa" d="m199.813 322.738 12.378-27.867 2.164 26.91Zm0 0"/><path fill="#fefbf0" d="m199.813 322.738 14.8 14.535-14.699 4.176Zm0 0"/><path fill="#fefdfa" d="m214.613 337.273-14.8-14.535 14.542-.957Zm0 0"/><path fill="#091e3b" d="m230.297 341.934-15.684-4.66-.258-15.493Zm0 0"/><path fill="#c7b980" d="m211.832 257.676 1.305-8.86 4.468 6.188Zm0 0"/><path fill="#c6a21f" d="m213.137 248.816-1.305 8.86-15.133-5.613Zm0 0"/><path fill="#081d3b" d="m232.023 265.043-14.418-10.04 26.715-9.148ZM230.297 341.934l1.672-24.528 20.344 23.844Zm0 0"/><path fill="#081d3b" d="m231.969 317.406-1.672 24.528-15.942-20.153Zm0 0"/><path fill="#f6cd43" d="m275.566 312.074-11.613-8.793 23.48-17.097Zm0 0"/><path fill="#091d3b" d="m273.238 370.352-16.398.953 11.676-15.047Zm0 0"/><path fill="#081d3b" d="m229.34 371.535 27.5-.23L253.07 384Zm0 0"/><path fill="#fdf1c8" d="m256.84 371.305-11.512-14.336 23.188-.711Zm0 0"/><path fill="#fefcf4" d="m256.84 371.305-27.5.23 15.988-14.566Zm0 0"/><path fill="#fefbef" d="m262.434 338.895-10.122 2.355 5-17.781Zm0 0"/><path fill="#081d3b" d="m252.313 341.25-20.344-23.844 25.344 6.063Zm0 0"/><path fill="#fde8a1" d="m100.715 384.004 30.68-17.543 7.687 17.547Zm0 0"/><path fill="#feecae" d="M145.816 371.762 179 384l-39.918.008Zm0 0"/><path fill="#f8c108" d="m145.816 371.762 9.098-20.711 8.383 3.937Zm0 0"/><path fill="#fcecb7" d="m179 384 19.219-10.227 30.172 10.235Zm0 0"/><path fill="#fbdc76" d="m68.918 351.195 36.547 4.09-4.75 28.719Zm0 0"/><path fill="#feecb1" d="m100.715 384.004 4.75-28.719 25.93 11.176Zm0 0"/><path fill="#fef1c6" d="m131.395 366.46-25.93-11.175 2.094-2.527Zm0 0"/><path fill="#fbc617" d="m241.96 73.691-.972-16.093 9.969-4.625Zm0 0"/><path fill="#081d3b" d="m240.988 57.598-16.93-40.067 26.899 35.442Zm0 0"/><path fill="#091d3b" d="m224.059 17.531 16.93 40.067L206.87 30.59Zm0 0"/><path fill="#fdcb23" d="m191.574 29.902 2.508 27.313-17.23-18.5Zm0 0"/><path fill="#fec507" d="m194.082 57.215-2.508-27.313L204.48 52.38Zm0 0"/><path fill="#fdc201" d="m221.484 70.957-27.402-13.742 10.398-4.836Zm0 0"/><path fill="#e3b71f" d="m299.277 305.504-23.71 6.57 11.867-25.89Zm0 0"/><path fill="#847326" d="m313.117 285.133-13.84 20.37-11.843-19.32Zm0 0"/><path fill="#e3ba2c" d="m299.277 305.504-2.355 12.183-21.356-5.613Zm0 0"/><path fill="#293434" d="m296.922 317.688 2.355-12.184 9.918 8.535Zm0 0"/><path fill="#303832" d="m309.195 314.04-9.918-8.536 16.918-.965Zm0 0"/><path fill="#d5aa15" d="m299.277 305.504 13.84-20.371 3.078 19.406Zm0 0"/><path fill="#2a3434" d="m320.543 314.09-11.348-.05 7-9.5Zm0 0"/><path fill="#091d3b" d="m338.336 311.367-22.14-6.828 22.429-8.965Zm0 0"/><path fill="#1d2b36" d="m328.164 177.527 55.844-42.199.031 67.473Zm0 0"/><path fill="#383d31" d="m281.77 127.656 44.968 2.88 1.426 46.991Zm0 0"/><path fill="#383e30" d="m326.738 130.535-44.968-2.879 43.328-20.906Zm0 0"/><path fill="#283337" d="m328.164 177.527-64.777 20.075 19.664-18.094Zm0 0"/><path fill="#3a3f30" d="m263.387 197.602 64.777-20.075-34 44.2Zm0 0"/><path fill="#344251" d="m250.46 121.773 31.31 5.883-22.157 26.953Zm0 0"/><path fill="#081d3b" d="m250.46 121.773 9.153 32.836-32.617 1.399Zm0 0"/><path fill="#081d3b" d="m219.875 118.055 30.586 3.718-23.465 34.235ZM219.875 118.055l25.34-7.918 5.246 11.636Zm0 0"/><path fill="#b59318" d="m145.117 16.152 3.89 22.47-28.714 1.437Zm0 0"/><path fill="#c59e17" d="m161.61 30.379-12.602 8.242-3.89-22.469Zm0 0"/><path fill="#fefaec" d="m149.008 38.621 12.601-8.242 1.188 15.101Zm0 0"/><path fill="#fec400" d="m127.148 166.34.997-28.387 24.195 17.383ZM128.145 137.953l27.59-.871-3.395 18.254Zm0 0"/><path fill="#fedc68" d="m127.164 108.168-17.945 18.355-13.551-15.976Zm0 0"/><path fill="#fdfdfb" d="m183.566 98.598-4.738 24.972-5.965-34.382Zm0 0"/><path fill="#b08e13" d="m213.61 155.262 6.265-37.207 7.121 37.953Zm0 0"/><path fill="#fefefe" d="m164.75 154.816-9.016-17.734 16.825 4.223Zm0 0"/><path fill="#fefefe" d="m155.734 137.082 9.016 17.734-12.41.52Zm0 0"/><path fill="#fefefc" d="m107.559 352.758-2.094 2.527-16.434-27.129Zm0 0"/><path fill="#fefdf6" d="m66.938 305.617 20.492-28.414 5.918 23.067Zm0 0"/><path fill="#fefefb" d="m107.031 284.16 2.774 15.508-16.457.602Zm0 0"/><path fill="#fefefd" d="m109.805 299.668 1.156 22.617-17.613-22.015Zm0 0"/><path fill="#081d3c" d="m92.402 165.785 3.578 34.535-38.664-7.601Zm0 0"/><path fill="#fdde77" d="m95.98 200.32-3.578-34.535 9.403 29.852Zm0 0"/><path fill="#fefbf1" d="m96.84 223.484 15.562-9.695 3.657 20.125Zm0 0"/><path fill="#fefaed" d="m95.98 200.32 16.422 13.47-15.562 9.694Zm0 0"/><path fill="#0b1f3b" d="m85.508 259.113 8.719-33.363 7.48 15.645Zm0 0"/><path fill="#fef9ea" d="m85.508 259.113 1.922 18.09-26.352-7.86Zm0 0"/><path fill="#bb9d2f" d="m85.508 259.113-24.43 10.23-1.203-11.386Zm0 0"/><path fill="#081d3b" d="m94.227 225.75-8.72 33.363-25.632-1.156Zm0 0"/><path fill="#4c4e39" d="m96.84 223.484 19.219 10.43-14.352 7.48Zm0 0"/><path fill="#fec402" d="M151.941 218.777 132.18 228.88l14.851-19.168Zm0 0"/><path fill="#081d3c" d="m189.418 223.36-25.645-28.477 11.325-3.77Zm0 0"/><path fill="#fdfdfd" d="m179.797 169.422-4.7 21.691-16.882-18.851Zm0 0"/><path fill="#eff0f2" d="m175.098 191.113 4.699-21.691 14.055 10.355Zm0 0"/><path fill="#dcac0a" d="m168.18 264.96 7.242 24.935-26.297 5.132Zm0 0"/><path fill="#0b1f3b" d="m175.422 289.895 16.336-16.418-.371 20.593Zm0 0"/><path fill="#081d3b" d="m191.758 273.477-16.336 16.418-7.242-24.934Zm0 0"/><path fill="#0a1e3b" d="m191.758 273.477-13.086-19.301 18.027-2.113Zm0 0"/><path fill="#091d3b" d="m178.672 254.176 13.086 19.3-23.578-8.515Zm0 0"/><path fill="#081d3b" d="m209.094 225.977 5.433-9.758 14.996 14.199Zm0 0"/><path fill="#fefefe" d="m213.137 248.816-4.043-22.84 20.43 4.442Zm0 0"/><path fill="#0a1e3b" d="m383.996 383.996-102.547.008 55.293-9.113Zm0 0"/><path fill="#fee490" d="m101.492 32.168 14.606-14.41 4.195 22.3Zm0 0"/><path fill="#0a1e3b" d="m101.492 32.168-9.187-5.68 23.793-8.73Zm0 0"/><path fill="#fddf7c" d="m116.098 17.758 29.02-1.606-24.825 23.907Zm0 0"/><path fill="#081d3b" d="m155.09 0-9.973 16.152-29.02 1.606Zm0 0"/><path fill="#091e3b" d="M155.09 0h42.11l-24.356 25.488Zm0 0"/><path fill="#0a1e3b" d="M172.844 25.488 197.199 0l.832 17.441Zm0 0"/><path fill="#091d3b" d="m157.262 15.965-12.145.187L155.09 0Zm0 0"/><path fill="#f8cb33" d="m157.262 15.965 4.347 14.414-16.492-14.227Zm0 0"/><path fill="#091e3b" d="M157.262 15.965 155.09 0l17.754 25.488Zm0 0"/><path fill="#f3cb45" d="m161.61 30.379-4.348-14.414 15.582 9.523Zm0 0"/><path fill="#091e3b" d="m0 104.777 58.273-62.906-.855 60.504Zm0 0"/><path fill="#081d3b" d="M0 104.777V0l58.273 41.871ZM60.793 126.398l27.43 23.157-45.23 8.05Zm0 0"/><path fill="#0a1e3b" d="m-.004 209.371 57.32-16.652-24.675 48.808Zm0 0"/><path fill="#081d3b" d="M57.316 192.719-.004 209.37l42.996-51.766Zm0 0"/><path fill="#dbac0a" d="M31.39 384H-.003v-16.383Zm0 0"/><path fill="#0f213a" d="m27.684 343.527-27.688 24.09-.012-20.105Zm0 0"/><path fill="#615a28" d="m-.004 367.617 27.688-24.09 9.257 23.364Zm0 0"/><path fill="#fef2cb" d="M27.684 343.527 11.94 334.13l28.871-11.633Zm0 0"/><path fill="#fefbf0" d="m68.918 351.195-19.996 6.25-8.11-34.949Zm0 0"/><path fill="#fefaef" d="m48.922 357.445-21.238-13.918 13.128-21.03Zm0 0"/><path fill="#6a602a" d="m27.684 343.527 21.238 13.918-11.98 9.446Zm0 0"/><path fill="#383e33" d="m261.54 221.59 1.847-23.988 30.777 24.125Zm0 0"/><path fill="#081d3b" d="m238.5 224.75 23.04-3.16-17.22 24.265Zm0 0"/><path fill="#e2e4e7" d="m261.54 221.59-23.04 3.16 24.887-27.148Zm0 0"/><path fill="#30425b" d="m193.852 179.777 15.43-8.218.757 13.625Zm0 0"/><path fill="#081d3c" d="m237.965 177.313 14.344-6.024 11.078 26.313Zm0 0"/><path fill="#0a1f3d" d="m252.309 171.29 7.304-16.68 3.774 42.992Zm0 0"/><path fill="#122541" d="m259.613 154.61-28.836 13.89-3.78-12.492Zm0 0"/><path fill="#fbfbfc" d="m252.309 171.29-21.532-2.79 28.836-13.89Zm0 0"/><path fill="#fefefe" d="m230.777 168.5 21.532 2.79-14.344 6.023Zm0 0"/><path fill="#081d3b" d="m227.355 204.168 19.73-16.23-8.585 36.812Zm0 0"/><path fill="#fdfdfc" d="m227.355 204.168-23.496-9.348 6.18-9.636Zm0 0"/><path fill="#fefefb" d="m212.191 294.871 15.176 10.711-13.012 16.2Zm0 0"/><path fill="#fefdf8" d="m227.367 305.582-15.176-10.71 16.551-8.231Zm0 0"/><path fill="#e2b20f" d="m227.367 305.582 4.602 11.824-17.614 4.375Zm0 0"/><path fill="#081d3b" d="m202.133 352.133 28.164-10.2-1.988 13.907Zm0 0"/><path fill="#091d3c" d="m202.133 352.133 12.48-14.86 15.684 4.66Zm0 0"/><path fill="#081d3b" d="m187.031 355 15.102-2.867-3.914 21.64Zm0 0"/><path fill="#0a1e3b" d="M202.133 352.133 187.03 355l12.883-13.55Zm0 0"/><path fill="#fefefc" d="m214.613 337.273-12.48 14.86-2.219-10.684Zm0 0"/><path fill="#081d3b" d="m229.34 371.535-27.207-19.402 26.176 3.707Zm0 0"/><path fill="#fefbf0" d="m202.133 352.133 27.207 19.402-31.121 2.238Zm0 0"/><path fill="#091e3b" d="m187.004 324.336 12.809-1.598.101 18.711Zm0 0"/><path fill="#fefefb" d="m203.836 275.105 8.355 19.766-20.804-.8Zm0 0"/><path fill="#fefefc" d="m191.758 273.477 12.078 1.628-12.45 18.965Zm0 0"/><path fill="#fefdf8" d="m211.832 257.676-7.996 17.43-7.137-23.043Zm0 0"/><path fill="#fefcf7" d="m203.836 275.105-12.078-1.628 4.941-21.414Zm0 0"/><path fill="#0c203a" d="m265.277 257.73-20.222 8.489-.735-20.364Zm0 0"/><path fill="#222f39" d="m245.055 266.219-13.032-1.176 12.297-19.188Zm0 0"/><path fill="#081d3b" d="m232.023 265.043 13.032 1.176-16.313 20.422Zm0 0"/><path fill="#fef7dd" d="m263.953 303.281 11.613 8.793-18.253 11.395Zm0 0"/><path fill="#081d3b" d="m256.84 371.305 24.61 12.699-28.38-.004ZM281.45 384.004l-24.61-12.7 16.398-.952Zm0 0"/><path fill="#081d3b" d="m282.113 367.703-.664 16.3-8.21-13.651Zm0 0"/><path fill="#091d3b" d="m282.113 367.703 13.489 1.348-14.153 14.953Zm0 0"/><path fill="#f2d77a" d="m282.113 367.703 11.582-11.168 1.907 12.516Zm0 0"/><path fill="#fdf7e1" d="m293.695 356.535-25.18-.277 21.215-16.399Zm0 0"/><path fill="#f4c011" d="m330.293 263.898-26.242-13.62 31.98-15.383Zm0 0"/><path fill="#feecb2" d="m131.395 366.46 14.421 5.302-6.734 12.246Zm0 0"/><path fill="#fef8e6" d="m154.914 351.05-9.098 20.712-14.421-5.301Zm0 0"/><path fill="#fef5d5" d="m130.691 354.04.704 12.42-23.836-13.702Zm0 0"/><path fill="#fef9e8" d="m130.691 354.04 24.223-2.99-23.52 15.41Zm0 0"/><path fill="#0c203b" d="m121.25 329.277 9.441 24.762-23.132-1.281Zm0 0"/><path fill="#fceaab" d="m145.816 371.762 31.68 3.847L179 384Zm0 0"/><path fill="#091d3b" d="m177.496 375.61-31.68-3.848 17.48-16.774Zm0 0"/><path fill="#081d3b" d="m187.031 355-9.535 20.61-14.2-20.622ZM177.496 375.61l9.535-20.61 11.188 18.773Zm0 0"/><path fill="#fbefc6" d="m179 384-1.504-8.39 20.723-1.837Zm0 0"/><path fill="#a4881f" d="m48.922 357.445 51.793 26.559-48.11.008Zm0 0"/><path fill="#f8db78" d="m100.715 384.004-51.793-26.559 19.996-6.25Zm0 0"/><path fill="#fdf0c2" d="m240.988 57.598-18.746-4.38-15.37-22.628Zm0 0"/><path fill="#fee284" d="m206.871 30.59 15.371 22.629-17.762-.84Zm0 0"/><path fill="#ddad09" d="m222.242 53.219-.758 17.738-17.004-18.578Zm0 0"/><path fill="#575229" d="m325.098 106.75-2.985-76.285 61.89 55.523Zm0 0"/><path fill="#0c203a" d="m320.543 314.09-4.348-9.55 22.14 6.827Zm0 0"/><path fill="#fefaeb" d="m340.8 329-20.257-14.91 17.793-2.723Zm0 0"/><path fill="#fef8e3" d="m384.004 285.012-21.203-.387 21.187-25.434Zm0 0"/><path fill="#fdf5db" d="m333.973 276.605 28.828 8.02-24.176 10.95Zm0 0"/><path fill="#081d3b" d="m245.215 110.137 17.117.175-11.871 11.461Zm0 0"/><path fill="#192c46" d="m262.332 110.313 19.438 17.343-31.31-5.883Zm0 0"/><path fill="#d0b967" d="m253.77 83.527-8.094 9.668-15.504-13.277Zm0 0"/><path fill="#c0a237" d="m325.098 106.75-43.328 20.906-5.04-27.52Zm0 0"/><path fill="#081d3b" d="m189.09 67.762-16.227 21.426-12.617-27Zm0 0"/><path fill="#fec401" d="m172.863 89.188-33.875-9.72 21.258-17.28Zm0 0"/><path fill="#a3871c" d="m90.68 49.125 12.5 26.09-7.512 35.332Zm0 0"/><path fill="#fee799" d="m84.512 108.516 6.168-59.391 4.988 61.422Zm0 0"/><path fill="#081d3b" d="m90.68 49.125-6.168 59.39-26.239-66.644Zm0 0"/><path fill="#fee694" d="m104.492 146.824 23.653-8.87-.997 28.386Zm0 0"/><path fill="#fef8e4" d="m91.566 160.934 12.926-14.11 22.656 19.516Zm0 0"/><path fill="#fec403" d="m156.11 116.48-.376 20.602-27.59.871Zm0 0"/><path fill="#fec300" d="m127.164 108.168 28.945 8.312-27.964 21.473Zm0 0"/><path fill="#434635" d="m194.059 107.414-10.493-8.816 9.309-15.653Zm0 0"/><path fill="#d3a811" d="m194.059 107.414 5.46 9.61-20.69 6.546Zm0 0"/><path fill="#091e3b" d="m194.059 107.414-15.23 16.156 4.737-24.972Zm0 0"/><path fill="#081d3c" d="m178.828 123.57-13.555 1.301 7.59-35.683Zm0 0"/><path fill="#fefefc" d="m204.914 106.059-10.855 1.355-1.184-24.469Zm0 0"/><path fill="#091e3c" d="m194.059 107.414 10.855-1.355-5.394 10.964Zm0 0"/><path fill="#fefefd" d="m204.914 106.059 7.606-14.278 7.355 26.274Zm0 0"/><path fill="#182838" d="m199.52 117.023 5.394-10.964 14.961 11.996Zm0 0"/><path fill="#091e3c" d="m230.777 168.5 7.188 8.813-14.688 1.027Zm0 0"/><path fill="#fefefe" d="m164.75 154.816 7.809-13.511 2.226 11.664Zm0 0"/><path fill="#fefefe" d="m164.75 154.816 10.035-1.847 5.012 16.453Zm0 0"/><path fill="#fefdfa" d="m110.96 322.285-21.929 5.871 4.317-27.886Zm0 0"/><path fill="#fefdf7" d="m89.031 328.156-22.094-22.539 26.41-5.347Zm0 0"/><path fill="#fefdf9" d="m110.96 322.285-3.401 30.473-18.528-24.602Zm0 0"/><path fill="#fdc509" d="m107.559 352.758 3.402-30.473 10.289 6.992Zm0 0"/><path fill="#f8c108" d="m121.25 329.277-10.29-6.992 12.794-16.039Zm0 0"/><path fill="#fcc409" d="m109.805 299.668 13.949 6.578-12.793 16.04Zm0 0"/><path fill="#0b1f3b" d="m123.754 306.246-13.95-6.578 23.97-11.242Zm0 0"/><path fill="#081d3c" d="m88.223 149.555 3.343 11.379-34.25 31.785ZM91.566 160.934l.836 4.851-35.086 26.934Zm0 0"/><path fill="#0b1f3e" d="M112.402 213.79 95.98 200.32l5.825-4.683Zm0 0"/><path fill="#091d3c" d="m134.215 205.605-15.133-9.757 10.254-12.078Zm0 0"/><path fill="#fec404" d="m139.262 177.406-5.047 28.2-4.88-21.836Zm0 0"/><path fill="#fec918" d="m127.148 166.34 12.114 11.066-9.926 6.364Zm0 0"/><path fill="#fec504" d="m152.34 155.336-13.078 22.07-12.114-11.066Zm0 0"/><path fill="#fef8e4" d="m139.262 177.406 13.078-22.07 5.875 16.926Zm0 0"/><path fill="#fdc50c" d="m116.867 283.402-7.062 16.266-2.774-15.508Zm0 0"/><path fill="#081d3b" d="m109.805 299.668 7.062-16.266 16.906 5.024Zm0 0"/><path fill="#fec401" d="m127.664 256.77-22.555 6.449-3.402-21.824Zm0 0"/><path fill="#0b1f3b" d="m105.11 263.219-19.602-4.106 16.199-17.718Zm0 0"/><path fill="#fecb20" d="m105.11 263.219 11.757 20.183-9.836.758Zm0 0"/><path fill="#0a1e3b" d="M116.867 283.402 105.11 263.22l22.555-6.45Zm0 0"/><path fill="#081d3b" d="m116.059 233.914 11.605 22.856-25.957-15.375Zm0 0"/><path fill="#081d3b" d="m132.18 228.879-4.516 27.89-11.605-22.855Zm0 0"/><path fill="#fefefd" d="m144.582 282.805-3.664 8.972-7.145-3.351ZM140.918 291.777l3.664-8.972 4.543 12.222Zm0 0"/><path fill="#e5b206" d="m154.938 263.879 13.242 1.082-19.055 30.066Zm0 0"/><path fill="#fec403" d="m144.582 282.805 10.356-18.926-5.813 31.148Zm0 0"/><path fill="#fec400" d="m154.938 263.879-16.098-1.563 4.414-28.449Zm0 0"/><path fill="#fec508" d="m138.84 262.316 16.097 1.563-10.355 18.926Zm0 0"/><path fill="#091e3d" d="m175.098 191.113-11.325 3.77-5.558-22.621Zm0 0"/><path fill="#081d3b" d="m178.672 254.176 4.902-17.735 13.125 15.621Zm0 0"/><path fill="#0a1e3c" d="M214.527 216.219 203.86 194.82l23.496 9.348Zm0 0"/><path fill="#0b1f3d" d="m214.527 216.219-25.109 7.14 14.441-28.539Zm0 0"/><path fill="#f5db86" d="m333.941 351.164 23.676 15.691-20.875 8.036Zm0 0"/><path fill="#f8dc7c" d="m368.168 341.215-10.55 25.64-23.677-15.69Zm0 0"/><path fill="#fef8e2" d="m383.988 312.719-21.187-28.094 21.203.387Zm0 0"/><path fill="#40463a" d="m368.078 314.824-29.742-3.457.289-15.793Zm0 0"/><path fill="#fdf6dd" d="m362.8 284.625 5.278 30.2-29.453-19.25Zm0 0"/><path fill="#fef7e0" d="m368.078 314.824-5.277-30.199 21.187 28.094Zm0 0"/><path fill="#fefbef" d="M368.078 314.824 340.801 329l-2.465-17.633Zm0 0"/><path fill="#091d3b" d="m281.45 384.004 14.152-14.953 41.14 5.84Zm0 0"/><path fill="#fddb69" d="m202.082 82.547 28.09-2.629-17.652 11.863Zm0 0"/><path fill="#091d3b" d="m230.172 79.918-28.09 2.629 19.402-11.59Zm0 0"/><path fill="#fefefe" d="m202.082 82.547 2.832 23.512-12.039-23.114Zm0 0"/><path fill="#fefefe" d="m204.914 106.059-2.832-23.512 10.438 9.234Zm0 0"/><path fill="#6e6324" d="M31.39 384-.003 367.617l36.945-.726Zm0 0"/><path fill="#ac8d1b" d="m31.39 384 5.551-17.11 15.664 17.122Zm0 0"/><path fill="#af901b" d="m36.941 366.89 11.98-9.445 3.684 26.567Zm0 0"/><path fill="#fef8e2" d="M40.813 322.496 11.94 334.13.004 316.082Zm0 0"/><path fill="#fefcf5" d="m66.938 305.617-26.126 16.88-7.183-30.583Zm0 0"/><path fill="#fefcf4" d="m40.813 322.496 26.124-16.879 1.981 45.578Zm0 0"/><path fill="#3b4031" d="m304.05 250.277-38.773 7.453 28.887-36.003Zm0 0"/><path fill="#3c4130" d="m265.277 257.73-3.738-36.14 32.625.137Zm0 0"/><path fill="#f1cb4d" d="m278.492 266.602-13.215-8.872 38.774-7.453Zm0 0"/><path fill="#0a1f3d" d="m227.45 185.89-17.41-.706 13.237-6.844Zm0 0"/><path fill="#fefefe" d="m227.45 185.89-.095 18.278-17.316-18.984Zm0 0"/><path fill="#081d3c" d="m237.965 177.313-10.516 8.578-4.172-7.551Zm0 0"/><path fill="#0b1f3b" d="m187.004 324.336-11.582-34.441 15.965 4.175Zm0 0"/><path fill="#0b1f3b" d="m199.813 322.738-12.81 1.598 4.384-30.266Zm0 0"/><path fill="#fefefc" d="m136.34 304.063 4.578-12.286 8.207 3.25Zm0 0"/><path fill="#fefdf9" d="m221.703 270.758-17.867 4.347 7.996-17.43Zm0 0"/><path fill="#1b2b3e" d="m221.703 270.758 10.32-5.715-3.28 21.598Zm0 0"/><path fill="#fefcf5" d="m212.191 294.871 9.512-24.113 7.04 15.883Zm0 0"/><path fill="#fefdf7" d="m203.836 275.105 17.867-4.347-9.512 24.113Zm0 0"/><path fill="#fefefb" d="m221.703 270.758-9.871-13.082 5.773-2.672Zm0 0"/><path fill="#081d3b" d="m232.023 265.043-10.32 5.715-4.098-15.754Zm0 0"/><path fill="#0f213a" d="m263.543 278.344-18.488-12.125 20.222-8.489Zm0 0"/><path fill="#fefcf4" d="m278.492 266.602-14.949 11.742 1.734-20.614Zm0 0"/><path fill="#fefbf0" d="m263.953 303.281-.41-24.937 23.89 7.84Zm0 0"/><path fill="#fefcf3" d="m263.543 278.344 14.95-11.742 8.94 19.582Zm0 0"/><path fill="#081d3b" d="m231.969 317.406 11.265-9.3 14.078 15.363Zm0 0"/><path fill="#0b1f3b" d="m243.234 308.105 20.72-4.824-6.642 20.188Zm0 0"/><path fill="#091e3b" d="m227.367 305.582 15.867 2.523-11.265 9.301Zm0 0"/><path fill="#0a1f3b" d="m268.516 356.258 13.597 11.445-8.875 2.649Zm0 0"/><path fill="#f4d97c" d="m282.113 367.703-13.597-11.445 25.18.277Zm0 0"/><path fill="#fefaec" d="m275.566 312.074.348 20.68-18.601-9.285Zm0 0"/><path fill="#fefbf1" d="m296.922 317.688-21.008 15.066-.348-20.68Zm0 0"/><path fill="#fefcf3" d="m275.914 332.754-13.48 6.14-5.122-15.425Zm0 0"/><path fill="#fef7de" d="m275.914 332.754-7.398 23.504-6.082-17.363Zm0 0"/><path fill="#fefaea" d="m275.914 332.754 21.008-15.067-7.192 22.172Zm0 0"/><path fill="#fef3cf" d="m268.516 356.258 7.398-23.504 13.816 7.105Zm0 0"/><path fill="#e8c757" d="m330.293 263.898-24.23 1.075-2.012-14.696Zm0 0"/><path fill="#f1da8d" d="m306.063 264.973-27.57 1.629 25.558-16.325Zm0 0"/><path fill="#fefbf2" d="m278.492 266.602 27.57-1.63-18.628 21.212Zm0 0"/><path fill="#fefbf2" d="m306.063 264.973 7.054 20.16-25.683 1.05Zm0 0"/><path fill="#233036" d="m313.117 285.133 25.508 10.441-22.43 8.965Zm0 0"/><path fill="#fefaec" d="m333.973 276.605 4.652 18.97-25.508-10.442Zm0 0"/><path fill="#fefbf0" d="m306.063 264.973 27.91 11.632-20.856 8.528Zm0 0"/><path fill="#fef7de" d="m333.973 276.605-27.91-11.632 24.23-1.075Zm0 0"/><path fill="#be9a1a" d="m140.855 328.64-19.605.637 2.504-23.03Zm0 0"/><path fill="#0e213c" d="m136.34 304.063 4.515 24.578-17.101-22.395Zm0 0"/><path fill="#d8aa0c" d="m187.031 355-12.558-24.973 25.441 11.422Zm0 0"/><path fill="#cfa30b" d="M174.473 330.027 187.03 355l-23.734-.012Zm0 0"/><path fill="#514e2a" d="m174.473 330.027 12.53-5.691 12.911 17.113Zm0 0"/><path fill="#081d3b" d="m130.691 354.04 10.164-25.4 14.06 22.41Zm0 0"/><path fill="#2f3733" d="m140.855 328.64-10.164 25.4-9.441-24.763Zm0 0"/><path fill="#e5b309" d="m230.172 79.918 10.816-22.32.973 16.093Zm0 0"/><path fill="#f8bf02" d="m230.172 79.918-7.93-26.7 18.746 4.38Zm0 0"/><path fill="#947c1c" d="m276.73 100.137-3.753-17.403 52.12 24.016Zm0 0"/><path fill="#fef6da" d="m312.984 333.152-19.289 23.383-3.965-16.676Zm0 0"/><path fill="#fefaec" d="m296.922 317.688 16.062 15.464-23.254 6.707Zm0 0"/><path fill="#fefaed" d="m312.984 333.152-16.062-15.464 12.273-3.649Zm0 0"/><path fill="#fef8e4" d="m320.543 314.09-7.559 19.062-3.789-19.113Zm0 0"/><path fill="#f4d56e" d="m293.695 356.535 40.246-5.37-38.34 17.886Zm0 0"/><path fill="#f5dd8d" d="m295.602 369.05 38.34-17.886 2.8 23.727Zm0 0"/><path fill="#1e2c36" d="m384.008 135.328-55.844 42.2-1.426-46.993Zm0 0"/><path fill="#1a2937" d="m384.008 135.328-57.27-4.793-1.64-23.785Zm0 0"/><path fill="#fef7df" d="m362.8 284.625-12.116-20.937 33.304-4.497Zm0 0"/><path fill="#fef8e5" d="m333.973 276.605 16.71-12.918 12.118 20.938Zm0 0"/><path fill="#fef7e1" d="m350.684 263.688-16.711 12.917-3.68-12.707Zm0 0"/><path fill="#99842e" d="m383.988 259.191-33.304 4.497 18.566-18.508Zm0 0"/><path fill="#504f2f" d="m369.25 245.18-18.566 18.507-14.653-28.792Zm0 0"/><path fill="#b79827" d="m350.684 263.688-20.391.21 5.738-29.003Zm0 0"/><path fill="#0a1e3b" d="m281.77 127.656-19.438-17.344 14.398-10.175Zm0 0"/><path fill="#091e3b" d="m230.172 79.918 11.789-6.227 11.809 9.836Zm0 0"/><path fill="#0d203a" d="m245.676 93.195-16.301-1.058.797-12.219Zm0 0"/><path fill="#081d3b" d="m230.172 79.918-.797 12.219-16.855-.356Zm0 0"/><path fill="#9d8117" d="m212.52 91.781 16.855.356-9.5 25.918Zm0 0"/><path fill="#fec60c" d="m189.09 67.762 32.394 3.195-19.402 11.59Zm0 0"/><path fill="#1c2a37" d="m221.484 70.957-32.394-3.195 4.992-10.547Zm0 0"/><path fill="#655c26" d="m192.875 82.945-3.785-15.183 12.992 14.785Zm0 0"/><path fill="#fbc206" d="m189.09 67.762 3.785 15.183-20.012 6.243Zm0 0"/><path fill="#0a1e3b" d="m192.875 82.945-9.309 15.653-10.703-9.41Zm0 0"/><path fill="#081d3b" d="m172.738 52.281 16.352 15.48-28.844-5.573Zm0 0"/><path fill="#091d3b" d="m189.09 67.762-16.352-15.48 21.344 4.933Zm0 0"/><path fill="#081d3b" d="m194.082 57.215-21.344-4.934 4.114-13.566Zm0 0"/><path fill="#0b1f3b" d="m172.738 52.281-9.941-6.8 14.055-6.766Zm0 0"/><path fill="#081d3b" d="m162.797 45.48 9.941 6.801-12.492 9.907Zm0 0"/><path fill="#fec403" d="m146.691 50.863 16.106-5.383-2.55 16.708Zm0 0"/><path fill="#fec400" d="m138.988 79.469 7.703-28.606 13.555 11.325Zm0 0"/><path fill="#fed038" d="m146.691 50.863 2.317-12.242 13.789 6.86Zm0 0"/><path fill="#fecb20" d="M146.691 50.863 120.293 40.06l28.715-1.438Zm0 0"/><path fill="#fed756" d="m146.691 50.863-7.703 28.606-35.808-4.254Zm0 0"/><path fill="#fee07b" d="m120.293 40.059 26.398 10.804-43.511 24.352Zm0 0"/><path fill="#fed447" d="m103.18 75.215 23.984 32.953-31.496 2.379Zm0 0"/><path fill="#fedc69" d="m138.988 79.469-11.824 28.699-23.984-32.953Zm0 0"/><path fill="#fedd70" d="m109.219 126.523-21.848-1.359 8.297-14.617Zm0 0"/><path fill="#feebad" d="m104.492 146.824-17.12-21.66 21.847 1.36Zm0 0"/><path fill="#fee48d" d="m87.371 125.164 17.121 21.66-16.27 2.73Zm0 0"/><path fill="#081d3b" d="m60.793 126.398 26.578-1.234.852 24.39Zm0 0"/><path fill="#fee48d" d="m95.668 110.547-8.297 14.617-2.86-16.648Zm0 0"/><path fill="#081d3b" d="m87.371 125.164-26.578 1.234 23.719-17.882Zm0 0"/><path fill="#fee58f" d="m127.164 108.168.98 29.785-18.925-11.43Zm0 0"/><path fill="#fee48b" d="m128.145 137.953-23.653 8.871 4.727-20.3Zm0 0"/><path fill="#fefefe" d="m156.11 116.48 9.163 8.391-9.539 12.211Zm0 0"/><path fill="#fefefe" d="m155.734 137.082 9.54-12.21 7.285 16.433Zm0 0"/><path fill="#091d3c" d="m165.273 124.871 13.555-1.3-6.27 17.734Zm0 0"/><path fill="#fcfdfd" d="m174.785 152.969 23.156 5.101-18.144 11.352Zm0 0"/><path fill="#fefefe" d="m164.75 154.816-6.535 17.446-5.875-16.926ZM158.215 172.262l6.535-17.446 15.047 14.606Zm0 0"/><path fill="#fefcf4" d="m89.031 328.156-20.113 23.04-1.98-45.579Zm0 0"/><path fill="#0b1f3c" d="m133.773 288.426 2.567 15.637-12.586 2.183Zm0 0"/><path fill="#fefdf8" d="m133.773 288.426 7.145 3.351-4.578 12.286Zm0 0"/><path fill="#fee695" d="m104.492 146.824-12.926 14.11-3.343-11.38Zm0 0"/><path fill="#fefdfb" d="m119.082 195.848-6.68 17.941-10.597-18.152Zm0 0"/><path fill="#546277" d="m134.215 205.605-21.813 8.184 6.68-17.941Zm0 0"/><path fill="#fdfdfa" d="m112.402 213.79 19.778 15.089-16.121 5.035Zm0 0"/><path fill="#fec402" d="m132.18 228.879 2.035-23.274 12.816 4.106Zm0 0"/><path fill="#091e3c" d="m112.402 213.79 21.813-8.185-2.035 23.274Zm0 0"/><path fill="#081d3b" d="m138.84 262.316-21.973 21.086 10.797-26.632Zm0 0"/><path fill="#25333e" d="m116.867 283.402 21.973-21.086-5.067 26.11Zm0 0"/><path fill="#fefcf4" d="m138.84 262.316 5.742 20.489-10.809 5.62Zm0 0"/><path fill="#fef9e7" d="m105.11 263.219-17.68 13.984-1.922-18.09Zm0 0"/><path fill="#fefefb" d="m87.43 277.203 17.68-13.984 1.921 20.941Zm0 0"/><path fill="#fefdf6" d="m87.43 277.203 19.601 6.957-13.683 16.11Zm0 0"/><path fill="#fec401" d="m151.941 218.777-8.687 15.09-11.074-4.988Zm0 0"/><path fill="#fdfdfd" d="m189.418 223.36-42.387-13.65 16.742-14.827Zm0 0"/><path fill="#e9eaea" d="m151.941 218.777 37.477 4.582-5.844 13.082Zm0 0"/><path fill="#fefefe" d="m147.031 209.71 42.387 13.65-37.477-4.583Zm0 0"/><path fill="#fefdf7" d="m147.031 209.71-7.77-32.304 24.512 17.477Zm0 0"/><path fill="#fec403" d="m134.215 205.605 5.047-28.199 7.77 32.305Zm0 0"/><path fill="#fefcf4" d="m163.773 194.883-24.511-17.477 18.953-5.144Zm0 0"/><path fill="#081d3b" d="m151.941 218.777 31.633 17.664-4.902 17.735Zm0 0"/><path fill="#857327" d="m209.094 225.977 4.043 22.84-16.438 3.245Zm0 0"/><path fill="#0c1f3a" d="m183.574 236.441 25.52-10.464-12.395 26.085Zm0 0"/><path fill="#091e3b" d="m357.617 366.855 26.38 17.141-47.255-9.105Zm0 0"/><path fill="#d9bf63" d="m368.168 341.215 15.828 42.781-26.379-17.14Zm0 0"/><path fill="#e7c348" d="m383.996 383.996-15.828-42.781 15.832-3.05Zm0 0"/><path fill="#e7b81a" d="m368.078 314.824.09 26.39L340.801 329Zm0 0"/><path fill="#fde698" d="m340.8 329 27.368 12.215-34.227 9.95Zm0 0"/><path fill="#977e1c" d="m384 338.164-15.832 3.05 15.82-28.495Zm0 0"/><path fill="#e5b81c" d="m368.168 341.215-.09-26.39 15.91-2.106Zm0 0"/><path fill="#081d3b" d="m0 104.777 57.418-2.402 3.375 24.023ZM57.418 102.375l.855-60.504 26.239 66.645Zm0 0"/><path fill="#081d3b" d="m60.793 126.398-3.375-24.023 27.094 6.14Zm0 0"/><path fill="#0d203b" d="m261.54 221.59 3.737 36.14-20.957-11.875Zm0 0"/><path fill="#fefefe" d="m227.45 185.89 19.636 2.048-19.73 16.23Zm0 0"/><path fill="#081d3c" d="m247.086 187.938-9.121-10.625 25.422 20.289Zm0 0"/><path fill="#081d3c" d="m247.086 187.938-19.637-2.047 10.516-8.578Zm0 0"/><path fill="#f9c106" d="m240.898 296.422-13.53 9.16 1.374-18.941Zm0 0"/><path fill="#0d213a" d="m240.898 296.422 2.336 11.683-15.867-2.523Zm0 0"/><path fill="#e7bf35" d="m245.055 266.219-4.157 30.203-12.156-9.781Zm0 0"/><path fill="#081d3b" d="m263.543 278.344-22.645 18.078 4.157-30.203Zm0 0"/><path fill="#091d3b" d="m240.898 296.422 22.645-18.078.41 24.937Zm0 0"/><path fill="#081d3b" d="m243.234 308.105-2.336-11.683 23.055 6.86Zm0 0"/><path fill="#fefefc" d="m155.816 327.176-14.96 1.465-4.516-24.579Zm0 0"/><path fill="#fefefd" d="m155.816 327.176-19.476-23.113 12.785-9.036Zm0 0"/><path fill="#fefefc" d="m140.855 328.64 14.961-1.464-.902 23.875Zm0 0"/><path fill="#fdc301" d="m155.816 327.176 18.657 2.851-19.559 21.024Zm0 0"/><path fill="#dbac08" d="m175.422 289.895-.95 40.132-25.347-35Zm0 0"/><path fill="#fec300" d="m174.473 330.027-18.657-2.851-6.691-32.149Zm0 0"/><path fill="#b59213" d="m187.004 324.336-12.531 5.691.949-40.132Zm0 0"/><path fill="#fec508" d="m154.914 351.05 19.559-21.023-11.176 24.961Zm0 0"/><path fill="#0a1f3b" d="m222.242 53.219 7.93 26.699-8.688-8.961Zm0 0"/><path fill="#6a6025" d="m272.977 82.734 8.976-23.171 43.145 47.187Zm0 0"/><path fill="#9a7f18" d="m281.953 59.563 40.16-29.098 2.985 76.285Zm0 0"/><path fill="#fef5d8" d="m312.984 333.152 20.957 18.012-40.246 5.371Zm0 0"/><path fill="#766821" d="m245.215 110.137-15.84-18 16.3 1.058Zm0 0"/><path fill="#081d3b" d="m229.375 92.137 15.84 18-25.34 7.918Zm0 0"/><path fill="#dbdddf" d="m245.676 93.195 14.992 9.078-15.453 7.864Zm0 0"/><path fill="#081d3c" d="m260.668 102.273 1.664 8.04-17.117-.176Zm0 0"/><path fill="#142744" d="m260.668 102.273-14.992-9.078 15.914 2.375Zm0 0"/><path fill="#081d3b" d="m260.668 102.273.922-6.703 15.14 4.567ZM262.332 110.313l-1.664-8.04 16.062-2.136Zm0 0"/><path fill="#fec505" d="M156.11 116.48 138.987 79.47l33.875 9.719Zm0 0"/><path fill="#fec401" d="m156.11 116.48-28.946-8.312 11.824-28.7Zm0 0"/><path fill="#fefefd" d="m165.273 124.871-9.164-8.39 16.754-27.293Zm0 0"/><path fill="#fecc25" d="m90.68 49.125 29.613-9.066-17.113 35.156Zm0 0"/><path fill="#fee181" d="M120.293 40.059 90.68 49.125l10.812-16.957Zm0 0"/><path fill="#081d3b" d="M101.492 32.168 90.68 49.125l1.625-22.637Zm0 0"/><path fill="#081d3b" d="m90.68 49.125-32.407-7.254 34.032-15.383Zm0 0"/><path fill="#fefefe" d="m209.281 171.559 21.496-3.059-7.5 9.84Zm0 0"/><path fill="#f0f2f3" d="m193.852 179.777 4.09-21.707 11.34 13.489Zm0 0"/><path fill="#fefefe" d="m209.281 171.559-11.34-13.489 15.668-2.808Zm0 0"/><path fill="#cdd1d5" d="m197.941 158.07-4.09 21.707-14.054-10.355Zm0 0"/><path fill="#fefefe" d="m193.016 142.477-20.457-1.172 6.27-17.735Zm0 0"/><path fill="#202e38" d="m199.52 117.023-6.504 25.454-14.188-18.907Zm0 0"/><path fill="#081d3c" d="m172.559 141.305 20.457 1.172-18.23 10.492Zm0 0"/><path fill="#091e3c" d="m193.016 142.477 4.925 15.593-23.156-5.101Zm0 0"/><path fill="#fefefc" d="m92.402 165.785 26.68 30.063-17.277-.211Zm0 0"/><path fill="#fefbef" d="m129.336 183.77-36.934-17.985-.836-4.851Zm0 0"/><path fill="#081d3c" d="m119.082 195.848-26.68-30.063 36.934 17.985Zm0 0"/><path fill="#081d3b" d="m127.664 256.77 4.516-27.891 6.66 33.437Zm0 0"/><path fill="#fec60d" d="m138.84 262.316-6.66-33.437 11.074 4.988Zm0 0"/><path fill="#fec507" d="m151.941 218.777 2.996 45.102-11.683-30.012Zm0 0"/><path fill="#091d3b" d="m151.941 218.777 26.73 35.399-10.491 10.785Zm0 0"/><path fill="#dcac08" d="m154.938 263.879-2.997-45.102 16.239 46.184Zm0 0"/><path fill="#eff0f0" d="m214.527 216.219-5.433 9.758-19.676-2.618Zm0 0"/><path fill="#fcfbfb" d="m189.418 223.36 19.676 2.617-25.52 10.464Zm0 0"/><path fill="#deb117" d="m256.605 67.219-2.835 16.308-11.81-9.836Zm0 0"/><path fill="#ebeceb" d="m245.676 93.195 8.094-9.668 7.82 12.043Zm0 0"/><path fill="#4c4b2b" d="m281.953 59.563-8.52-22.829 48.68-6.27Zm0 0"/><path fill="#081d3c" d="m273.434 36.734 8.52 22.829-25.349 7.656Zm0 0"/><path fill="#081d3b" d="m281.953 59.563-8.976 23.171-16.372-15.515Zm0 0"/><path fill="#fefaeb" d="m340.8 329-27.816 4.152 7.559-19.062Zm0 0"/><path fill="#fee799" d="m340.8 329-6.859 22.164-20.957-18.012Zm0 0"/><path fill="#fefefe" d="m230.777 168.5-21.496 3.059 4.328-16.297Zm0 0"/><path fill="#081d3c" d="m230.777 168.5-17.168-13.238 13.387.746Zm0 0"/><path fill="#fdc406" d="m213.61 155.262-20.594-12.785 26.859-24.422Zm0 0"/><path fill="#fefefc" d="m197.941 158.07-4.925-15.593 20.593 12.785Zm0 0"/><path fill="#7d6d26" d="m193.016 142.477 6.504-25.454 20.355 1.032Zm0 0"/><path fill="#10223a" d="m253.77 83.527 19.207-.793L261.59 95.57Zm0 0"/><path fill="#565229" d="m272.977 82.734-19.207.793 2.835-16.308Zm0 0"/><path fill="#1c2a38" d="m261.59 95.57 11.387-12.836 3.753 17.403Zm0 0"/></svg>