<svg xmlns="http://www.w3.org/2000/svg" width="512" height="512" viewBox="0 0 384 384"><path fill="#96deca" d="M53.727 320.023 25.422 308.23 64.5 262.715Zm0 0"/><path fill="#332535" d="m218.926 259.102 6.687-24.516 13.617 22.469Zm0 0"/><path fill="#2c3f4b" d="M272.89 23.66 301.16-.008l3.957 25.488Zm0 0"/><path fill="#91dac7" d="M294.086 38.55 272.89 23.66l32.226 1.82Zm0 0"/><path fill="#1c2638" d="m384 238.484-21.36-28.902L384 195.277Zm0 0"/><path fill="#4b4851" d="m362.64 209.582 6.965 35.465L344.996 238Zm0 0"/><path fill="#955758" d="M369.605 245.047 384 238.484l.012 20.828Zm0 0"/><path fill="#1c2638" d="m384 238.484-14.395 6.563-6.964-35.465Zm0 0"/><path fill="#414851" d="m338.547 212.246 24.094-2.664L344.996 238Zm0 0"/><path fill="#3c4751" d="m307.688 231.527 30.859-19.28 6.45 25.753Zm0 0"/><path fill="#94d9c6" d="m290.121 164.074-.691-27.781 35.375 11.535Zm0 0"/><path fill="#94d0bf" d="m289.43 136.293.691 27.781-9.953-11.648Zm0 0"/><path fill="#e46162" d="m179.355 28.285 28.754 3.766-31.957 4.324Zm0 0"/><path fill="#95dfcb" d="m208.11 32.05-28.755-3.765 34.891-7.125ZM71.777 34.914 40.613 0h66.32Zm0 0"/><path fill="#96deca" d="m-.016 267.852 25.438 40.378-25.453 12.582Zm0 0"/><path fill="#aabdaf" d="M32.516 208.066 64.5 262.715l-64.516 5.137Zm0 0"/><path fill="#95dfcb" d="M64.5 262.715 25.422 308.23-.016 267.852Zm0 0"/><path fill="#adb9ab" d="m198.496 373.543 20.27-1.059 1.093 11.52Zm0 0"/><path fill="#a1caba" d="m267.7 360.05-23.829-2.093 7.39-13.426Zm0 0"/><path fill="#2e2536" d="m243.871 357.957-28.289-13.168 35.68-.258Zm0 0"/><path fill="#262537" d="m215.582 344.79 28.29 13.167-30.188-.187Zm0 0"/><path fill="#98dac7" d="m266.066 339.309 1.633 20.742-16.437-15.52Zm0 0"/><path fill="#856868" d="m311.66 264.387-3.973-32.86 37.31 6.473Zm0 0"/><path fill="#95deca" d="m260.605 47.117-14.53 11.39 3.542-26.093Zm0 0"/><path fill="#3d5961" d="M272.89 23.66 251.806-.004l49.355-.004Zm0 0"/><path fill="#94dfcb" d="M251.805-.004 272.89 23.66l-23.274 8.754Zm0 0"/><path fill="#233141" d="m384.008.004-42.95 25.68L301.16-.008Zm0 0"/><path fill="#1e283a" d="m348.672 60.648 35.371 35.168-34.285 8.442Zm0 0"/><path fill="#94dfcb" d="m272.89 23.66-1.308 14.906-21.965-6.152Zm0 0"/><path fill="#94dfcb" d="m294.086 38.55-22.504.016 1.309-14.906ZM271.582 38.566l-10.977 8.551-10.988-14.703Zm0 0"/><path fill="#1c2537" d="m225.613 234.586-13.968-10.762 23.027-10.316Zm0 0"/><path fill="#1c2638" d="m211.645 223.824 4.417-13.234 18.61 2.918Zm0 0"/><path fill="#9cd4c2" d="m352.316 264.777-1.128 57.047-28.434-26.078Zm0 0"/><path fill="#3f5a61" d="m338.547 212.246 4.05-24.851 20.044 22.187Zm0 0"/><path fill="#c78f88" d="m352.316 264.777 17.29-19.73 14.406 14.266Zm0 0"/><path fill="#91d4c2" d="m289.43 136.293 18.879-15.762 16.496 27.297Zm0 0"/><path fill="#9a222b" d="m244.531 121.316-21.703 22.164-6.746-22.632Zm0 0"/><path fill="#a7c3b3" d="m96.492 206.676-1.62 17.738-25.294-22.367Zm0 0"/><path fill="#a8c1b2" d="m69.578 202.047 25.293 22.367-30.371 38.3Zm0 0"/><path fill="#a2caba" d="m94.871 224.414 3.504.953 3.438 17.371Zm0 0"/><path fill="#878f88" d="m186.035 235.086-11.43-29.356 23.282-2.765Zm0 0"/><path fill="#1c2638" d="m182.738 180.613 21.032 8.149-5.883 14.203Zm0 0"/><path fill="#92b5a8" d="m174.605 205.73 8.133-25.117 15.149 22.352Zm0 0"/><path fill="#1c2637" d="m213.484 245.164 12.13-10.578-6.688 24.516Zm0 0"/><path fill="#95decb" d="m112.078 20.707-40.3 14.207L106.933 0Zm0 0"/><path fill="#ec5457" d="m168.078 24.848 11.277 3.437-3.203 8.09Zm0 0"/><path fill="#f04e52" d="m158.676 52.746 9.402-27.898 8.074 11.527Zm0 0"/><path fill="#95dfcb" d="M214.246 21.16 176.844 0l74.96-.004Zm0 0"/><path fill="#94dfcb" d="m249.617 32.414-35.37-11.254L251.804-.004Zm0 0"/><path fill="#95dfcb" d="M63.234 86.012 33.164 73.41l38.613-38.496Zm0 0"/><path fill="#95dfcb" d="M33.164 73.41 40.614 0l31.163 34.914Zm0 0"/><path fill="#94dfcb" d="m-.016 203.254.012-83.14 41.328 21.148Zm0 0"/><path fill="#96ddc9" d="m89.61 153.945-20.032 48.102-28.254-60.785Zm0 0"/><path fill="#acbaac" d="m-.016 203.254 32.532 4.812-32.532 59.786Zm0 0"/><path fill="#a9bfb0" d="m32.516 208.066 37.062-6.02-5.078 60.669Zm0 0"/><path fill="#97d9c6" d="m53.727 320.023-8.008 34.164-25.938-14.101Zm0 0"/><path fill="#98d9c6" d="m25.422 308.23-5.64 31.856-19.813-19.274Zm0 0"/><path fill="#985253" d="m-.031 320.813 19.812 19.273L0 383.996Zm0 0"/><path fill="#1c2638" d="m242.754 194.594 20.46.144-28.542 18.77Zm0 0"/><path fill="#1d2638" d="m263.215 194.738-20.461-.144 1.926-12.969Zm0 0"/><path fill="#97dbc8" d="m284.637 202.563-21.422-7.825 18.191-13.629Zm0 0"/><path fill="#96222b" d="m246.695 243.52 17.258 20.636-24.723-7.101Zm0 0"/><path fill="#292536" d="m225.613 234.586 21.082 8.934-7.465 13.535Zm0 0"/><path fill="#93dcc8" d="m290.121 164.074-30.496-9.183 20.543-2.465Zm0 0"/><path fill="#94decb" d="m259.625 154.89 30.496 9.184-8.715 17.035Zm0 0"/><path fill="#435e64" d="m263.215 194.738-3.59-39.847 21.781 26.218Zm0 0"/><path fill="#372535" d="m234.066 370.133-15.3 2.351-5.082-14.714Zm0 0"/><path fill="#2d2636" d="m243.871 357.957-9.805 12.176-20.382-12.363Zm0 0"/><path fill="#a3c9b8" d="m219.86 384.004 14.206-13.871 6.274 13.855Zm0 0"/><path fill="#a6c3b4" d="m234.066 370.133-14.207 13.87-1.093-11.519Zm0 0"/><path fill="#95dfcb" d="m211.629 295.71-13.375 25.606-5.715-27.57ZM198.254 321.316l13.375-25.605 7.738 18.57ZM198.254 321.316l13.601 21.079-11.207 1.69Zm0 0"/><path fill="#95dfcb" d="m211.855 342.395-13.601-21.079 21.113-7.035Zm0 0"/><path fill="#98222b" d="m215.582 344.79-3.727-2.395 7.512-28.114Zm0 0"/><path fill="#9ad7c4" d="m209.855 263.605 3.63-18.44 5.44 13.937Zm0 0"/><path fill="#96ddc9" d="m213.484 245.164-3.629 18.441-16.484 1.891Zm0 0"/><path fill="#1c2537" d="m230.848 269.383-11.922-10.281 20.304-2.047Zm0 0"/><path fill="#252537" d="m215.582 344.79 14.957-29.024 20.723 28.765Zm0 0"/><path fill="#89222c" d="m230.54 315.766-14.958 29.023 3.785-30.508Zm0 0"/><path fill="#97dcc9" d="m295.16 321.363-22.64-20.222 17.964-11.434Zm0 0"/><path fill="#9dcbbb" d="m234.066 370.133 9.805-12.176 23.828 2.094Zm0 0"/><path fill="#95deca" d="m266.066 339.309-14.804 5.222 7.761-25.601Zm0 0"/><path fill="#212537" d="m251.262 344.531-20.723-28.765 28.484 3.164Zm0 0"/><path fill="#b8a79d" d="m96.742 384 47.153-11.496L150.46 384Zm0 0"/><path fill="#c09a92" d="m161.098 373.91 18.82 10.11-29.457-.02Zm0 0"/><path fill="#9a232c" d="m161.098 373.91-6.176-21.46 15.074 6.585Zm0 0"/><path fill="#afb6a9" d="m179.918 384.02 18.578-10.477 21.363 10.46Zm0 0"/><path fill="#b8a79c" d="m96.742 384-10.914-31.625 58.067 20.129Zm0 0"/><path fill="#adb9ab" d="m143.895 372.504-58.067-20.129 21.625 1.16Zm0 0"/><path fill="#95dfcb" d="m246.074 58.508-13.594-6.082 17.137-20.012ZM232.48 52.426 214.246 21.16l35.371 11.254Zm0 0"/><path fill="#95dfcb" d="m214.246 21.16 18.234 31.266-24.37-20.375Zm0 0"/><path fill="#f04e52" d="m208.11 32.05-10.794 29.075-21.164-24.75Zm0 0"/><path fill="#f04e52" d="m197.316 61.125 10.793-29.074-5.5 35.086Zm0 0"/><path fill="#2f4450" d="M348.672 60.648 322.18 45.961l18.879-20.277Zm0 0"/><path fill="#263443" d="m322.05 88.621 27.708 15.637-17.7 15.883Zm0 0"/><path fill="#2f434f" d="M349.758 104.258 322.05 88.62l26.62-27.973Zm0 0"/><path fill="#1c2638" d="M348.672 60.648 384.008.004l.035 95.812Zm0 0"/><path fill="#243342" d="m348.672 60.648-7.613-34.964L384.008.004Zm0 0"/><path fill="#425c63" d="m342.598 187.395 17.554-6.973 2.489 29.16Zm0 0"/><path fill="#1c2638" d="m360.152 180.422 23.864-26.18-.016 41.035Zm0 0"/><path fill="#1e293a" d="m362.64 209.582-2.488-29.16L384 195.277Zm0 0"/><path fill="#75a79e" d="m324.805 147.828-16.496-27.297 23.75-.39Zm0 0"/><path fill="#446066" d="m315.121 191.648 27.477-4.253-4.051 24.851Zm0 0"/><path fill="#94d9c6" d="m290.121 164.074 25 27.574-33.715-10.539Zm0 0"/><path fill="#95d8c5" d="m315.121 191.648-25-27.574 34.684-16.246Zm0 0"/><path fill="#46666a" d="m342.598 187.395-27.477 4.253 9.684-43.82Zm0 0"/><path fill="#37424d" d="m315.121 191.648 23.426 20.598-30.86 19.281Zm0 0"/><path fill="#96d6c3" d="m315.121 191.648-30.484 10.915-3.23-21.454Zm0 0"/><path fill="#759892" d="m284.637 202.563 30.484-10.915-7.433 39.88Zm0 0"/><path fill="#5c2532" d="m259.625 154.89-14.535 3.063-.559-36.637Zm0 0"/><path fill="#7c7573" d="m289.43 136.293-12.121-3.504 2.664-31.848Zm0 0"/><path fill="#45434d" d="m277.309 132.79 12.12 3.503-9.261 16.133Zm0 0"/><path fill="#1d2738" d="m259.625 154.89 17.684-22.1 2.859 19.636Zm0 0"/><path fill="#4b2534" d="m277.309 132.79-17.684 22.1-15.094-33.574Zm0 0"/><path fill="#e95a5c" d="m129.328 172.063 12.617 16.343-12.468 5.785Zm0 0"/><path fill="#ef5053" d="m152.25 15.84-5.574 26.394-29.836-3.254Zm0 0"/><path fill="#c29890" d="m168.078 24.848-21.402 17.386 5.574-26.394Zm0 0"/><path fill="#f04e52" d="m146.676 42.234 21.402-17.386-9.402 27.898Zm0 0"/><path fill="#cb8984" d="m129.328 172.063-14.039-5.579 8.023-17.703Zm0 0"/><path fill="#95dcc8" d="m154.46 169.96-7.273-22.73 16.262 3.79Zm0 0"/><path fill="#ed5356" d="m147.188 147.23-17.86 24.833-6.016-23.282Zm0 0"/><path fill="#f04e52" d="m129.328 172.063 17.86-24.833 7.273 22.73Zm0 0"/><path fill="#966a68" d="m147.188 147.23 10.21-11.335 6.051 15.125Zm0 0"/><path fill="#ec5557" d="m125.25 120.063-25.078 4.656-13.125-36.57Zm0 0"/><path fill="#1c2537" d="m182.703 96.102-3.969 7.664-7.797-5.95Zm0 0"/><path fill="#99222b" d="m222.828 143.48 21.703-22.164.559 36.637Zm0 0"/><path fill="#a0cdbc" d="m165.672 142.605-8.274-6.71 15.868-2.54Zm0 0"/><path fill="#96deca" d="m157.398 135.895 8.274 6.71-2.223 8.415Zm0 0"/><path fill="#97dbc8" d="m107.453 353.535-21.625-1.16 12.356-14.484Zm0 0"/><path fill="#96deca" d="m86.762 326.14 11.422 11.75-12.356 14.485Zm0 0"/><path fill="#96ddca" d="m105.578 266.79 2.133 17.476-20.512 5.515Zm0 0"/><path fill="#95deca" d="m107.71 284.266 3.313 34.906-23.824-29.39Zm0 0"/><path fill="#99d9c6" d="m97.457 193.773-.965 12.903-26.914-4.63Zm0 0"/><path fill="#bf9990" d="m98.375 225.367 7.555-12.281 15.09 17.926Zm0 0"/><path fill="#e06565" d="m96.492 206.676 9.438 6.41-11.059 11.328Zm0 0"/><path fill="#d87270" d="m105.93 213.086-7.555 12.281-3.504-.953Zm0 0"/><path fill="#a7c2b3" d="m64.5 262.715 30.371-38.3 6.942 18.323Zm0 0"/><path fill="#1c2638" d="m98.375 225.367 22.645 5.645-19.207 11.726Zm0 0"/><path fill="#95c1b2" d="m160.852 190.418 21.886-9.805-8.133 25.117Zm0 0"/><path fill="#f04e52" d="m129.328 172.063 20.399 3.859-7.782 12.484Zm0 0"/><path fill="#ee4f53" d="m149.727 175.922-20.399-3.86 25.133-2.101Zm0 0"/><path fill="#9a222b" d="m177.031 274.105 3.871 20.454-32.156-3.02Zm0 0"/><path fill="#622330" d="m180.902 294.559 10.645-12.032.992 11.22Zm0 0"/><path fill="#70232f" d="m191.547 282.527-10.645 12.032-3.87-20.454Zm0 0"/><path fill="#1c2537" d="m191.547 282.527-6.008-16.351 7.832-.68Zm0 0"/><path fill="#1c2637" d="m185.54 266.176 6.007 16.351-14.516-8.422ZM212.273 232.152l-.628-8.328 13.968 10.762Zm0 0"/><path fill="#1c2637" d="m213.484 245.164-1.21-13.012 13.34 2.434Zm0 0"/><path fill="#e36364" d="m112.078 20.707 40.172-4.867-35.41 23.14Zm0 0"/><path fill="#95dfcb" d="m106.934 0 45.316 15.84-40.172 4.867Zm0 0"/><path fill="#95dfcb" d="M152.25 15.84 106.934 0h69.91ZM179.355 28.285 176.844 0l37.402 21.16Zm0 0"/><path fill="#95dfcb" d="M168.078 24.848 152.25 15.84 176.844 0ZM168.078 24.848 176.844 0l2.511 28.285ZM33.164 73.41-.004 120.113 0 58.52Zm0 0"/><path fill="#95dfcb" d="M33.164 73.41 0 58.52 40.613 0Zm0 0"/><path fill="#95dfcb" d="M40.613 0 0 58.52V0Zm0 0"/><path fill="#96deca" d="m69.578 202.047-37.062 6.02 8.808-66.805Zm0 0"/><path fill="#95dfcb" d="m32.516 208.066-32.532-4.812 41.34-61.992Zm0 0"/><path fill="#6f343d" d="m19.781 340.086 25.938 14.101L0 383.998Zm0 0"/><path fill="#3b2535" d="m248.383 220.293-1.688 23.227-21.082-8.934Zm0 0"/><path fill="#1c2638" d="m248.383 220.293-22.77 14.293 9.059-21.078Zm0 0"/><path fill="#1c2638" d="m263.215 194.738-14.832 25.555-13.711-6.785Zm0 0"/><path fill="#8cc4b5" d="m262.984 224.637 21.653-22.074 23.05 28.964Zm0 0"/><path fill="#7a232e" d="m248.383 220.293 14.601 4.344-16.289 18.883Zm0 0"/><path fill="#97d7c4" d="m284.637 202.563-21.653 22.074.23-29.899Zm0 0"/><path fill="#85232d" d="m262.984 224.637-14.601-4.344 14.832-25.555Zm0 0"/><path fill="#1e2738" d="m182.738 180.613 14.82-15.746 6.212 23.895Zm0 0"/><path fill="#1f2638" d="m197.559 164.867 19.78 14.488-13.57 9.407Zm0 0"/><path fill="#1d2638" d="m245.09 157.953 18.125 36.785-18.535-13.113Zm0 0"/><path fill="#682733" d="m245.09 157.953 14.535-3.062 3.59 39.847Zm0 0"/><path fill="#95dcc8" d="m231.727 170.387 13.363-12.434-.41 23.672Zm0 0"/><path fill="#1c2638" d="m216.063 210.59 2.535-7.899 16.074 10.817ZM218.598 202.691l24.156-8.097-8.082 18.914Zm0 0"/><path fill="#1f2839" d="m197.887 202.965 20.71-.274-2.535 7.899Zm0 0"/><path fill="#1d2739" d="m218.598 202.691-20.711.274 5.883-14.203Zm0 0"/><path fill="#95dfcb" d="m211.629 295.71 15.797 6.692-8.059 11.88Zm0 0"/><path fill="#95dfcb" d="m227.426 302.402-15.797-6.691 18.168-10.04Zm0 0"/><path fill="#992931" d="m227.426 302.402 3.113 13.364-11.172-1.485Zm0 0"/><path fill="#95dfcb" d="m201.52 357.738 14.062-12.949-1.898 12.98Zm0 0"/><path fill="#96ddc9" d="m201.52 357.738 10.335-15.343 3.727 2.394Zm0 0"/><path fill="#94232d" d="m189.074 356.86 12.446.878-3.024 15.805Zm0 0"/><path fill="#9a222b" d="m201.52 357.738-12.446-.879 11.574-12.773Zm0 0"/><path fill="#9ad7c4" d="m211.855 342.395-10.335 15.343-.872-13.652Zm0 0"/><path fill="#99d9c6" d="m218.766 372.484-17.246-14.746 12.164.032Zm0 0"/><path fill="#9dd2c1" d="m201.52 357.738 17.246 14.746-20.27 1.059Zm0 0"/><path fill="#9a222b" d="m183.566 325.832 14.688-4.516 2.394 22.77Zm0 0"/><path fill="#95dfcb" d="m203.773 281.348 7.856 14.363-19.09-1.965Zm0 0"/><path fill="#95dfcb" d="m191.547 282.527 12.226-1.18-11.234 12.4Zm0 0"/><path fill="#95dfcb" d="m209.855 263.605-6.082 17.743-10.402-15.852Zm0 0"/><path fill="#95dfcb" d="m203.773 281.348-12.226 1.18 1.824-17.032Zm0 0"/><path fill="#97222b" d="m263.953 264.156-22.203 8.848-2.52-15.95Zm0 0"/><path fill="#70232f" d="m241.75 273.004-10.902-3.621 8.382-12.328Zm0 0"/><path fill="#602331" d="m230.848 269.383 10.902 3.62-11.953 12.669Zm0 0"/><path fill="#95dfcb" d="m272.52 301.14 22.64 20.223-36.137-2.433Zm0 0"/><path fill="#a2caba" d="m240.34 383.988-6.274-13.855L267.7 360.05Zm0 0"/><path fill="#afb5a8" d="m240.34 383.988 27.36-23.937 75.542 23.87Zm0 0"/><path fill="#c88d86" d="m352.316 264.777-40.656-.39L344.996 238Zm0 0"/><path fill="#adb8aa" d="m143.895 372.504 17.203 1.406L150.46 384Zm0 0"/><path fill="#7c232e" d="m161.098 373.91-17.203-1.406 11.027-20.055Zm0 0"/><path fill="#a3c8b8" d="m134.238 353.852 9.657 18.652-36.442-18.969Zm0 0"/><path fill="#a6c3b4" d="m134.238 353.852 20.684-1.403-11.027 20.055Zm0 0"/><path fill="#7a242f" d="m122.438 325.883 11.8 27.969-26.785-.317Zm0 0"/><path fill="#a8c0b2" d="m161.098 373.91 18.77.719.05 9.39Zm0 0"/><path fill="#452534" d="m179.867 374.629-18.77-.719 8.9-14.875Zm0 0"/><path fill="#8c232c" d="m189.074 356.86-9.207 17.769-9.87-15.594Zm0 0"/><path fill="#4e2432" d="m179.867 374.629 9.207-17.77 9.422 16.684Zm0 0"/><path fill="#a2cab9" d="m179.918 384.02-.05-9.391 18.628-1.086Zm0 0"/><path fill="#f04e52" d="m232.48 52.426-9.535 4.12-14.836-24.495Zm0 0"/><path fill="#f04e52" d="m208.11 32.05 14.835 24.497-20.336 10.59Zm0 0"/><path fill="#304651" d="m341.059 25.684-35.942-.204L301.16-.008Zm0 0"/><path fill="#976261" d="m270.828 89.05 9.059.384.086 11.507Zm0 0"/><path fill="#94d8c6" d="m279.887 89.434 16.676-.801-16.59 12.308Zm0 0"/><path fill="#5c8886" d="m322.05 88.621.13-42.66 26.492 14.687Zm0 0"/><path fill="#1d2839" d="m360.152 180.422-6.597-41.582 30.46 15.402Zm0 0"/><path fill="#628482" d="m353.555 138.84 6.597 41.582-17.554 6.973Zm0 0"/><path fill="#608e8b" d="m324.805 147.828 28.75-8.988-10.957 48.555Zm0 0"/><path fill="#732530" d="m262.805 104.984 14.504 27.805-32.778-11.473Zm0 0"/><path fill="#9a222b" d="m250.54 79.29-9.872 10.503-14.961-10.297Zm0 0"/><path fill="#94d5c3" d="m296.563 88.633 11.746 31.898-28.336-19.59Zm0 0"/><path fill="#91d8c5" d="m308.309 120.531-18.88 15.762-9.456-35.352Zm0 0"/><path fill="#5c8886" d="m308.309 120.531-11.747-31.898 25.489-.012Zm0 0"/><path fill="#43545c" d="m308.309 120.531 13.742-31.91 10.008 31.52Zm0 0"/><path fill="#cc8781" d="m129.328 172.063-17.133 15.976 3.094-21.555Zm0 0"/><path fill="#1d2637" d="M180.215 75.957 167.07 87.016l1.477-15.032Zm0 0"/><path fill="#f04e52" d="M167.07 87.016 139.02 70.89l29.527 1.093Zm0 0"/><path fill="#f04f53" d="m109.598 60.316 29.422 10.575-51.973 17.257Zm0 0"/><path fill="#c5928b" d="m123.313 148.781-33.704 5.164 10.563-29.226Zm0 0"/><path fill="#98dac7" d="m146.09 115.965 11.308 19.93-10.21 11.335Zm0 0"/><path fill="#f04f53" d="m125.25 120.063 20.84-4.098 1.097 31.265Zm0 0"/><path fill="#9b232c" d="m189.816 99.758 5.446 7.11-10.899 20.726Zm0 0"/><path fill="#1d2537" d="m178.734 103.766 11.082-4.008-5.453 27.836Zm0 0"/><path fill="#eb5658" d="m189.816 99.758-11.082 4.008 3.97-7.664Zm0 0"/><path fill="#1c2637" d="m178.734 103.766-12.132 6.472 4.335-12.422Zm0 0"/><path fill="#95dfcb" d="m189.816 99.758 17.692 4.254-12.246 2.855Zm0 0"/><path fill="#1c2537" d="m195.262 106.867 12.246-2.855 8.574 16.836Zm0 0"/><path fill="#1c2638" d="m231.727 170.387 12.953 11.238-27.34-2.27Zm0 0"/><path fill="#1c2637" d="m165.672 142.605 7.594-9.25.277 12.063Zm0 0"/><path fill="#97dbc8" d="m163.45 151.02 2.222-8.415 7.871 2.813Zm0 0"/><path fill="#96dac7" d="m163.45 151.02 10.093-5.602 24.016 19.45Zm0 0"/><path fill="#1c2638" d="M182.738 180.613 163.45 151.02l34.11 13.847Zm0 0"/><path fill="#95deca" d="m173.266 133.355 5.468-29.59 5.63 23.829Zm0 0"/><path fill="#9a222b" d="m197.27 137.988-2.008-31.12 20.82 13.98Zm0 0"/><path fill="#9a262e" d="m195.262 106.867 2.008 31.121-12.907-10.394Zm0 0"/><path fill="#1c2638" d="m197.27 137.988-24.004-4.633 11.097-5.761Zm0 0"/><path fill="#95dfcb" d="m111.023 319.172-24.261 6.969.437-36.36Zm0 0"/><path fill="#95dfcb" d="m86.762 326.14-33.035-6.117 33.472-30.242Zm0 0"/><path fill="#95deca" d="m86.762 326.14 24.261-6.968-12.84 18.719Zm0 0"/><path fill="#97dcc9" d="m111.023 319.172-3.57 34.363-9.27-15.644Zm0 0"/><path fill="#9a222b" d="m107.453 353.535 3.57-34.363 11.415 6.71Zm0 0"/><path fill="#9a222b" d="m122.438 325.883-11.415-6.711 13.516-14.746Zm0 0"/><path fill="#98d9c6" d="m85.828 352.375-40.11 1.813 8.009-34.165Zm0 0"/><path fill="#9ad6c3" d="m86.762 326.14-.934 26.235-32.101-32.352Zm0 0"/><path fill="#9a222b" d="m107.71 284.266 12.806 18.097-9.493 16.809Zm0 0"/><path fill="#1f2537" d="m120.516 302.363-12.805-18.097 24.238.933Zm0 0"/><path fill="#97dbc8" d="m89.61 153.945 7.847 39.828-27.879 8.274Zm0 0"/><path fill="#832a34" d="m109.172 201.031-12.68 5.645.965-12.903Zm0 0"/><path fill="#1c2637" d="m109.172 201.031-3.242 12.055-9.438-6.41Zm0 0"/><path fill="#9a3d42" d="m141.945 188.406 7.782-12.484 11.125 14.496Zm0 0"/><path fill="#96232c" d="m108.86 266.02-1.15 18.246-2.132-17.477Zm0 0"/><path fill="#9a222b" d="m107.71 284.266 1.15-18.246 23.09 19.18Zm0 0"/><path fill="#6c2c37" d="m108.86 266.02-3.282.77-3.766-24.052Zm0 0"/><path fill="#a7c2b3" d="M105.578 266.79 64.5 262.714l37.313-19.977Zm0 0"/><path fill="#c78781" d="m122.77 244.906-13.91 21.114-7.047-23.282Zm0 0"/><path fill="#1c2638" d="m121.02 231.012 1.75 13.894-20.957-2.168Zm0 0"/><path fill="#95deca" d="m141.707 273.945 2.563 19.356-12.32-8.102Zm0 0"/><path fill="#96dbc8" d="m144.27 293.3-2.563-19.355 7.04 17.594Zm0 0"/><path fill="#9a222b" d="m153.75 263.34 23.281 10.765-28.285 17.434Zm0 0"/><path fill="#9b262e" d="m141.707 273.945 12.043-10.605-5.004 28.2Zm0 0"/><path fill="#eb5658" d="m153.75 263.34-15.844-8.688 10.645-10.55Zm0 0"/><path fill="#f04e52" d="m137.906 254.652 15.844 8.688-12.043 10.605Zm0 0"/><path fill="#1c2637" d="m185.54 266.176.495-31.09 7.336 30.41Zm0 0"/><path fill="#1e2738" d="m211.645 223.824-13.758-20.86 18.176 7.626Zm0 0"/><path fill="#1d2638" d="m211.645 223.824-25.61 11.262 11.852-32.121Zm0 0"/><path fill="#9ed0bf" d="m330.484 353.309 20.704-31.485 8.925 30.73Zm0 0"/><path fill="#9bd5c3" d="m384.012 259.313.004 70.437-32.829-7.926Zm0 0"/><path fill="#9cd4c2" d="m352.316 264.777 31.696-5.464-32.824 62.511Zm0 0"/><path fill="#c6918a" d="m330.484 353.309 12.758 30.613L267.7 360.05Zm0 0"/><path fill="#96ddc9" d="m202.61 67.137 2.445 25.793-15.239 6.828Zm0 0"/><path fill="#95dfcb" d="m205.055 92.93 8.12-2.813-5.667 13.895Zm0 0"/><path fill="#e65c5e" d="m213.176 90.117-8.121 2.813-2.446-25.793Zm0 0"/><path fill="#1c2638" d="m205.055 92.93 2.453 11.082-17.692-4.254Zm0 0"/><path fill="#95dfcb" d="m33.164 73.41 8.16 67.852-41.328-21.149Zm0 0"/><path fill="#994347" d="M45.719 354.188 40.684 384 0 383.996Zm0 0"/><path fill="#ce837e" d="m40.684 384 5.035-29.812L96.742 384Zm0 0"/><path fill="#99d8c5" d="M53.727 320.023 19.78 340.086l5.64-31.856Zm0 0"/><path fill="#bd978e" d="m311.66 264.387-24.87-15.098 20.897-17.762Zm0 0"/><path fill="#83b1a6" d="m286.79 249.29-23.806-24.653 44.704 6.89Zm0 0"/><path fill="#bda096" d="m279.516 265.3 7.273-16.01 24.871 15.097Zm0 0"/><path fill="#95ddca" d="m217.34 179.355 1.258 23.336-14.828-13.93Zm0 0"/><path fill="#392535" d="m198.254 321.316-17.352-26.757 11.637-.813Zm0 0"/><path fill="#9a262f" d="m183.566 325.832-2.664-31.273 17.352 26.757Zm0 0"/><path fill="#95dfcb" d="m136.672 299.957 7.598-6.656 6.464 17.644Zm0 0"/><path fill="#95deca" d="m150.734 310.945-6.464-17.644 4.476-1.762Zm0 0"/><path fill="#95dfcb" d="m223.215 274.516-19.442 6.832 6.082-17.743Zm0 0"/><path fill="#5a2431" d="m223.215 274.516 7.633-5.133-1.051 16.289Zm0 0"/><path fill="#95dfcb" d="m211.629 295.71 11.586-21.194 6.582 11.156Zm0 0"/><path fill="#95dfcb" d="m203.773 281.348 19.442-6.832-11.586 21.195Zm0 0"/><path fill="#95deca" d="m223.215 274.516-13.36-10.91 9.07-4.504Zm0 0"/><path fill="#272536" d="m230.848 269.383-7.633 5.133-4.29-15.414Zm0 0"/><path fill="#99222b" d="m264.766 284.895-23.016-11.891 22.203-8.848Zm0 0"/><path fill="#97dbc8" d="m279.516 265.3-14.75 19.595-.813-20.739Zm0 0"/><path fill="#95dfcb" d="m272.52 301.14-7.754-16.245 25.718 4.812Zm0 0"/><path fill="#96ddc9" d="m264.766 284.895 14.75-19.594 10.968 24.406Zm0 0"/><path fill="#3f2434" d="m230.54 315.766 32.534-17.672-4.05 20.836Zm0 0"/><path fill="#97dcc9" d="m263.074 298.094 9.446 3.047-13.497 17.789Zm0 0"/><path fill="#8b222c" d="m227.426 302.402 35.648-4.308-32.535 17.672Zm0 0"/><path fill="#95dfcb" d="m295.16 321.363-29.094 17.946-7.043-20.38Zm0 0"/><path fill="#96ddc9" d="m295.16 321.363-27.46 38.688-1.634-20.742Zm0 0"/><path fill="#99d8c5" d="m290.484 289.707-10.968-24.406 32.144-.914Zm0 0"/><path fill="#98dbc7" d="m290.484 289.707 32.27 6.04-27.594 25.616Zm0 0"/><path fill="#9dd2c0" d="m322.754 295.746 28.433 26.078-56.027-.46Zm0 0"/><path fill="#9ad8c5" d="m311.66 264.387 40.656.39-29.562 30.97Zm0 0"/><path fill="#99d8c6" d="m311.66 264.387 11.094 31.36-32.27-6.04Zm0 0"/><path fill="#4f2432" d="m139.11 322.91-16.673 2.973 2.102-21.457Zm0 0"/><path fill="#292536" d="m136.672 299.957 2.437 22.953-14.57-18.484Zm0 0"/><path fill="#9a222b" d="m163.402 311.336 17.5-16.777 2.664 31.273ZM189.074 356.86l-15.949-20.872 27.523 8.098Zm0 0"/><path fill="#9a222b" d="m173.125 335.988 15.95 20.871-19.079 2.176Zm0 0"/><path fill="#7f222d" d="m173.125 335.988 10.441-10.156 17.082 18.254Zm0 0"/><path fill="#9a222b" d="m173.125 335.988-9.723-24.652 20.164 14.496Zm0 0"/><path fill="#9a222b" d="m163.402 311.336 9.723 24.652-18.512-13.847Zm0 0"/><path fill="#3d2534" d="m134.238 353.852 4.871-30.942 15.813 29.54Zm0 0"/><path fill="#6d232f" d="m139.11 322.91-4.872 30.942-11.8-27.97Zm0 0"/><path fill="#98222b" d="m224.785 68.379 7.695-15.953 13.594 6.082Zm0 0"/><path fill="#9a222b" d="m224.785 68.379-1.84-11.832 9.535-4.121Zm0 0"/><path fill="#1c2537" d="m224.785 68.379 25.754 10.91-24.832.207Zm0 0"/><path fill="#83c5b7" d="m294.086 38.55 11.031-13.07 17.063 20.48Zm0 0"/><path fill="#547c7c" d="m322.18 45.96-17.063-20.48 35.942.204Zm0 0"/><path fill="#95dfcb" d="m279.887 89.434-.348-23.196 17.024 22.395Zm0 0"/><path fill="#81c0b2" d="m322.18 45.96-23.594 12.747-4.5-20.156Zm0 0"/><path fill="#5b8684" d="m349.758 104.258 3.797 34.582-21.496-18.7Zm0 0"/><path fill="#908b85" d="m353.555 138.84-28.75 8.988 7.254-27.687Zm0 0"/><path fill="#1d2638" d="m353.555 138.84 30.488-43.024-.027 58.426Zm0 0"/><path fill="#202c3c" d="m384.043 95.816-30.488 43.024-3.797-34.582Zm0 0"/><path fill="#c88e87" d="m369.605 245.047-17.289 19.73-7.32-26.777Zm0 0"/><path fill="#502432" d="m262.805 104.984 8.023-15.933 9.145 11.89Zm0 0"/><path fill="#4d2433" d="m277.309 132.79-14.504-27.806 17.168-4.043Zm0 0"/><path fill="#f04e52" d="m224.785 68.379 21.29-9.871 4.464 20.781Zm0 0"/><path fill="#1c2537" d="m240.668 89.793-27.492.324 12.531-10.62Zm0 0"/><path fill="#95dfcb" d="m207.508 104.012 5.668-13.895 2.906 30.73Zm0 0"/><path fill="#8e222c" d="m252.484 89.242-11.816.551 9.871-10.504Zm0 0"/><path fill="#f04e52" d="m202.61 67.137-22.395 8.82 17.101-14.832Zm0 0"/><path fill="#f04d51" d="m182.863 86.152-2.648-10.195 22.394-8.82Zm0 0"/><path fill="#1d2537" d="m182.863 86.152 19.746-19.015-12.793 32.62Zm0 0"/><path fill="#eb5759" d="m182.703 96.102.16-9.95 6.953 13.606Zm0 0"/><path fill="#f04e52" d="m180.215 75.957 2.648 10.195-15.793.864Zm0 0"/><path fill="#ed5255" d="m167.07 87.016 15.793-.864-11.925 11.664Zm0 0"/><path fill="#1c2637" d="m182.863 86.152-.16 9.95-11.766 1.714Zm0 0"/><path fill="#1c2537" d="m176.895 61.34 3.32 14.617-11.668-3.973Zm0 0"/><path fill="#1c2637" d="m180.215 75.957-3.32-14.617 20.421-.215Zm0 0"/><path fill="#1c2537" d="m197.316 61.125-20.421.215-.743-24.965Zm0 0"/><path fill="#1c2637" d="m176.895 61.34-18.22-8.594 17.477-16.371Zm0 0"/><path fill="#1c2637" d="m158.676 52.746 18.219 8.594-8.348 10.644Zm0 0"/><path fill="#f04e52" d="m139.02 70.89 19.656-18.144 9.87 19.238Zm0 0"/><path fill="#f04e52" d="m139.02 70.89 7.656-28.656 12 10.512Zm0 0"/><path fill="#e75c5e" d="m139.02 70.89-22.18-31.91 29.836 3.254Zm0 0"/><path fill="#e95a5c" d="m116.84 38.98 22.18 31.91-29.422-10.574Zm0 0"/><path fill="#e75d5f" d="m139.02 70.89-6.848 26.606-45.125-9.348Zm0 0"/><path fill="#da7270" d="m132.172 97.496-6.922 22.567-38.203-31.915Zm0 0"/><path fill="#ef5054" d="m132.172 97.496 13.918 18.469-20.84 4.097Zm0 0"/><path fill="#95dfcb" d="M71.777 34.914 90.27 49.957 63.234 86.012Zm0 0"/><path fill="#95dfcb" d="m90.27 49.957-3.223 38.191-23.813-2.136Zm0 0"/><path fill="#e06868" d="m87.047 88.148 3.223-38.191 19.328 10.36Zm0 0"/><path fill="#de6b6b" d="m100.172 124.719-14.18-.617 1.055-35.954Zm0 0"/><path fill="#de6a69" d="m89.61 153.945-3.618-29.843 14.18.617Zm0 0"/><path fill="#95deca" d="m41.324 141.262 44.668-17.16 3.617 29.843Zm0 0"/><path fill="#95dfcb" d="m87.047 88.148-1.055 35.954-22.758-38.09Zm0 0"/><path fill="#95dfcb" d="m85.992 124.102-44.668 17.16 21.91-55.25Zm0 0"/><path fill="#e75c5e" d="m123.313 148.781 1.937-28.719 21.938 27.168Zm0 0"/><path fill="#c3968e" d="m125.25 120.063-1.937 28.718-23.141-24.062Zm0 0"/><path fill="#aabeaf" d="m146.09 115.965 20.512-5.727-9.204 25.657Zm0 0"/><path fill="#9fcfbe" d="m157.398 135.895 9.204-25.657 6.664 23.117Zm0 0"/><path fill="#1c2637" d="m173.266 133.355-6.664-23.117 12.132-6.472Zm0 0"/><path fill="#9a222b" d="m221.008 159.29-23.738-21.302 25.558 5.492Zm0 0"/><path fill="#96dac7" d="m173.543 145.418 25.93 16.598-1.914 2.851Zm0 0"/><path fill="#1d2739" d="m149.727 175.922 4.734-5.961 6.39 20.457Zm0 0"/><path fill="#96c1b1" d="m154.46 169.96 28.278 10.653-21.886 9.805Zm0 0"/><path fill="#b1b0a4" d="m154.46 169.96 8.99-18.94 19.288 29.593Zm0 0"/><path fill="#9a222b" d="m111.023 319.172 9.493-16.809 4.023 2.063Zm0 0"/><path fill="#1c2537" d="m131.95 285.2 4.722 14.757-12.133 4.469Zm0 0"/><path fill="#242537" d="m120.516 302.363 11.433-17.164-7.41 19.227Zm0 0"/><path fill="#95dfcb" d="m131.95 285.2 12.32 8.1-7.598 6.657Zm0 0"/><path fill="#d57a77" d="m89.61 153.945 33.703-5.164-8.024 17.703Zm0 0"/><path fill="#372a39" d="m109.172 201.031 3.023-12.992 4.106 9.102Zm0 0"/><path fill="#96b3a6" d="m116.3 197.14-4.105-9.1 17.282 6.151Zm0 0"/><path fill="#262738" d="m112.195 188.04-3.023 12.991-11.715-7.258Zm0 0"/><path fill="#a28b84" d="m112.195 188.04 17.133-15.977.149 22.128Zm0 0"/><path fill="#97b1a4" d="m129.477 194.191-8.758 14.907-4.418-11.957Zm0 0"/><path fill="#1c2638" d="m105.93 213.086 14.789-3.988.3 21.914Zm0 0"/><path fill="#1c2638" d="m120.719 209.098 11.422 14.46-11.121 7.454Zm0 0"/><path fill="#965657" d="m120.719 209.098-11.547-8.067 7.129-3.89Zm0 0"/><path fill="#1c2638" d="m109.172 201.031 11.547 8.067-14.79 3.988Zm0 0"/><path fill="#f04e52" d="m132.14 223.559 4.262-18.68 15.395 15.297Zm0 0"/><path fill="#ed5356" d="m136.402 204.879-6.925-10.688 12.468-5.785Zm0 0"/><path fill="#1c2637" d="m120.719 209.098 15.683-4.22-4.261 18.68Zm0 0"/><path fill="#97a398" d="m136.402 204.879-15.683 4.219 8.758-14.907Zm0 0"/><path fill="#1c2638" d="m134.668 272.27-25.809-6.25L131.074 256ZM137.906 254.652l-3.238 17.618-3.594-16.27Zm0 0"/><path fill="#97dcc8" d="m134.668 272.27 3.238-17.618 3.801 19.293Zm0 0"/><path fill="#202537" d="m108.86 266.02 25.808 6.25-2.719 12.93Zm0 0"/><path fill="#95dfcb" d="m134.668 272.27 7.039 1.675-9.758 11.254Zm0 0"/><path fill="#96ddca" d="m64.5 262.715 22.7 27.066-33.473 30.242Zm0 0"/><path fill="#95deca" d="M105.578 266.79 87.2 289.78 64.5 262.715Zm0 0"/><path fill="#96978e" d="M122.77 244.906 131.074 256l-22.215 10.02Zm0 0"/><path fill="#f04e52" d="m132.14 223.559 19.657-3.383-3.246 23.926Zm0 0"/><path fill="#8b7874" d="m186.035 235.086-34.238-14.91 22.808-14.446Zm0 0"/><path fill="#954347" d="m151.797 220.176-15.395-15.297 38.203.851Zm0 0"/><path fill="#913c41" d="m136.402 204.879 24.45-14.461 13.753 15.312Zm0 0"/><path fill="#ed4d51" d="m136.402 204.879 5.543-16.473 18.907 2.012Zm0 0"/><path fill="#95dfcb" d="m199.93 238.441 12.343-6.289 1.211 13.012Zm0 0"/><path fill="#95dfcb" d="m199.93 238.441 13.554 6.723-20.113 20.332Zm0 0"/><path fill="#1c2638" d="m186.035 235.086 13.895 3.355-6.559 27.055Zm0 0"/><path fill="#8a484d" d="m383.996 384.012-23.883-31.457 23.903-22.805Zm0 0"/><path fill="#a1ccbb" d="m384.016 329.75-23.903 22.805-8.925-30.73Zm0 0"/><path fill="#95dfcb" d="m41.324 141.262-8.16-67.852 30.07 12.602Zm0 0"/><path fill="#bca197" d="M96.742 384 45.72 354.188l40.11-1.813ZM266.523 253.898l12.993 11.403-15.563-1.145Zm0 0"/><path fill="#b5aca1" d="m266.523 253.898 20.266-4.609-7.273 16.012Zm0 0"/><path fill="#95d0bf" d="m286.79 249.29-20.267 4.608-3.539-29.261Zm0 0"/><path fill="#9b222b" d="m246.695 243.52 19.828 10.378-2.57 10.258Zm0 0"/><path fill="#9a222b" d="m262.984 224.637 3.54 29.261-19.829-10.378Zm0 0"/><path fill="#95dfcb" d="m218.598 202.691 12.242-14.058 11.914 5.96Zm0 0"/><path fill="#95deca" d="m217.34 179.355 13.5 9.278-12.242 14.058Zm0 0"/><path fill="#95dfcb" d="m242.754 194.594-11.914-5.961 13.84-7.008Zm0 0"/><path fill="#74aca2" d="m230.84 188.633-13.5-9.278 27.34 2.27Zm0 0"/><path fill="#99222b" d="m263.074 298.094-35.648 4.308 2.37-16.73ZM241.75 273.004l21.324 25.09-33.277-12.422Zm0 0"/><path fill="#9a222b" d="m264.766 284.895-1.692 13.199-21.324-25.09Zm0 0"/><path fill="#96ddc9" d="m263.074 298.094 1.692-13.2 7.754 16.247Zm0 0"/><path fill="#95deca" d="M150.734 310.945 139.11 322.91l-2.437-22.953Zm0 0"/><path fill="#96ddca" d="m139.11 322.91 11.624-11.965 3.88 11.196Zm0 0"/><path fill="#9a222b" d="m150.734 310.945 12.668.39-8.789 10.806Zm0 0"/><path fill="#9a222b" d="m163.402 311.336-12.668-.39-1.988-19.407ZM180.902 294.559l-17.5 16.777-14.656-19.797ZM154.922 352.45l18.203-16.462-3.129 23.047ZM173.125 335.988l-18.203 16.461-.309-30.308Zm0 0"/><path fill="#95dfcb" d="m154.922 352.45-15.813-29.54 15.504-.77Zm0 0"/><path fill="#9a222b" d="m213.176 90.117 11.61-21.738.921 11.117Zm0 0"/><path fill="#f04d51" d="m224.785 68.379-11.61 21.738-10.566-22.98Zm0 0"/><path fill="#1c2537" d="m222.945 56.547 1.84 11.832-22.176-1.242ZM279.54 66.238l-16.056 6.055-2.879-25.176Zm0 0"/><path fill="#1d2537" d="m263.484 72.293-17.41-13.785 14.531-11.39Zm0 0"/><path fill="#94deca" d="m279.54 66.238 19.046-7.531-2.024 29.926Zm0 0"/><path fill="#7dbbae" d="m298.586 58.707 23.465 29.914-25.488.012Zm0 0"/><path fill="#7fbdb0" d="m322.05 88.621-23.464-29.914 23.594-12.746Zm0 0"/><path fill="#9bd5c3" d="m295.16 321.363 35.324 31.946-62.785 6.742Zm0 0"/><path fill="#9fcebd" d="m330.484 353.309-35.324-31.946 56.027.461Zm0 0"/><path fill="#94222b" d="m244.531 121.316-31.355-31.199 27.492-.324Zm0 0"/><path fill="#97222b" d="m213.176 90.117 31.355 31.2-28.449-.47Zm0 0"/><path fill="#9a222b" d="m240.668 89.793 8.707 15.453-4.844 16.07Zm0 0"/><path fill="#95deca" d="m252.484 89.242-3.109 16.004-8.707-15.453Zm0 0"/><path fill="#1c2637" d="m249.375 105.246 13.43-.262-18.274 16.332Zm0 0"/><path fill="#95dbc8" d="m249.375 105.246 3.11-16.004 8.753-.531Zm0 0"/><path fill="#1e2537" d="m249.375 105.246 11.863-16.535 9.59.34Zm0 0"/><path fill="#806364" d="m262.805 104.984-13.43.262 21.453-16.195Zm0 0"/><path fill="#f04e52" d="M154.941 97.262 139.02 70.89l28.05 16.125ZM154.941 97.262l-22.77.234 6.849-26.605Zm0 0"/><path fill="#a3c9b9" d="m154.941 97.262 12.13-10.246 3.867 10.8Zm0 0"/><path fill="#9cd3c1" d="m166.602 110.238-11.66-12.976 15.995.554ZM154.941 97.262l11.66 12.976-20.511 5.727Zm0 0"/><path fill="#f04f52" d="m132.172 97.496 22.77-.234-8.852 18.703Zm0 0"/><path fill="#ea575a" d="m90.27 49.957 26.57-10.977-7.242 21.336Zm0 0"/><path fill="#df6969" d="M116.84 38.98 90.27 49.957l21.808-29.25Zm0 0"/><path fill="#95dfcb" d="M112.078 20.707 90.27 49.957 71.777 34.914Zm0 0"/><path fill="#95d0be" d="m218.176 167.71 13.55 2.677-14.386 8.968Zm0 0"/><path fill="#978a83" d="m197.559 164.867 1.914-2.851 17.867 17.34Zm0 0"/><path fill="#753c43" d="m199.473 162.016 18.703 5.695-.836 11.644Zm0 0"/><path fill="#95d4c2" d="m218.176 167.71-18.703-5.694 21.535-2.727Zm0 0"/><path fill="#9a222b" d="m221.008 159.29-21.535 2.726-2.203-24.028Zm0 0"/><path fill="#95dbc7" d="m197.27 137.988-7.844 8.254-16.16-12.887Zm0 0"/><path fill="#1c2638" d="m173.266 133.355 16.16 12.887-15.883-.824Zm0 0"/><path fill="#1d2637" d="m189.426 146.242 10.047 15.774-25.93-16.598Zm0 0"/><path fill="#e75c5e" d="m89.61 153.945 22.585 34.094-14.738 5.734Zm0 0"/><path fill="#c6918a" d="M112.195 188.04 89.61 153.944l25.68 12.54Zm0 0"/><path fill="#1c2637" d="m132.14 223.559 2.798 19.105-13.918-11.652Zm0 0"/><path fill="#1c2638" d="m121.02 231.012 13.918 11.652-12.168 2.242ZM134.938 242.664 131.074 256l-8.304-11.094Zm0 0"/><path fill="#1c2638" d="m131.074 256 3.863-13.336 2.97 11.988Zm0 0"/><path fill="#ee5154" d="m137.906 254.652-2.969-11.988 13.614 1.438Zm0 0"/><path fill="#ef4f53" d="m134.938 242.664-2.797-19.105 16.41 20.543Zm0 0"/><path fill="#9a232c" d="m151.797 220.176 15.355 29.832-18.601-5.906Zm0 0"/><path fill="#1c2537" d="m167.152 250.008-15.355-29.832 34.238 14.91Zm0 0"/><path fill="#9a242c" d="M167.152 250.008 153.75 263.34l-5.2-19.238Zm0 0"/><path fill="#1c2638" d="m167.152 250.008 18.883-14.922-.496 31.09Zm0 0"/><path fill="#1e2537" d="m167.152 250.008 18.387 16.168-8.508 7.93Zm0 0"/><path fill="#9a222b" d="m153.75 263.34 13.402-13.332 9.88 24.097Zm0 0"/><path fill="#94dfcb" d="m211.645 223.824.628 8.328-26.238 2.934Zm0 0"/><path fill="#95deca" d="m212.273 232.152-12.343 6.29-13.895-3.356Zm0 0"/><path fill="#c88e87" d="m343.242 383.922-12.758-30.613 29.63-.754Zm0 0"/><path fill="#c6918a" d="m383.996 384.012-40.754-.09 16.871-31.367Zm0 0"/><path fill="#f04e52" d="m263.484 72.293-12.945 6.996-4.465-20.781Zm0 0"/><path fill="#99d7c5" d="m252.484 89.242-1.945-9.953 10.7 9.422Zm0 0"/><path fill="#94dfcb" d="m298.586 58.707-18.727-9.11 14.227-11.046Zm0 0"/><path fill="#94dfcb" d="m279.86 49.598-8.278-11.032 22.504-.015Zm0 0"/><path fill="#94ddc9" d="m279.86 49.598 18.726 9.109-19.047 7.531Zm0 0"/><path fill="#1c2638" d="m271.582 38.566 8.277 11.032-19.254-2.48Zm0 0"/><path fill="#1c2638" d="m279.86 49.598-.32 16.64-18.935-19.12Zm0 0"/><path fill="#95d7c4" d="m218.176 167.71 2.832-8.42 10.719 11.097Zm0 0"/><path fill="#1f2537" d="m231.727 170.387-10.72-11.098 24.083-1.336Zm0 0"/><path fill="#84222d" d="m221.008 159.29 1.82-15.81 22.262 14.473Zm0 0"/><path fill="#95dfcb" d="m189.426 146.242 7.844-8.254 2.203 24.028Zm0 0"/><path fill="#9a222b" d="m222.828 143.48-25.558-5.492 18.812-17.14Zm0 0"/><path fill="#1d2537" d="m250.54 79.29 20.288 9.76-9.59-.34Zm0 0"/><path fill="#6a2431" d="m270.828 89.05-20.289-9.76 12.945-6.997Zm0 0"/><path fill="#95dfcb" d="m270.828 89.05 8.711-22.812.348 23.196Zm0 0"/><path fill="#916464" d="m270.828 89.05-7.344-16.757 16.055-6.055Zm0 0"/></svg>