<svg xmlns="http://www.w3.org/2000/svg" width="512" height="512" viewBox="0 0 384 384"><path fill="#252315" d="m218.168 259.055 4.855-21.727 14.98 18.344Zm0 0"/><path fill="#30311e" d="M290.746 28.605 264.898-.008l51.5.016Zm0 0"/><path fill="#545333" d="m384.016 237.785-18.278-26.203 18.266-1.34Zm0 0"/><path fill="#9b965d" d="m365.738 211.582 4.035 33.152-26.117-8.28Zm0 0"/><path fill="#d1c87c" d="m369.773 244.734 14.243-6.949-.02 21.086Zm0 0"/><path fill="#8d8a55" d="m384.016 237.785-14.243 6.95-4.035-33.153Zm0 0"/><path fill="#7b784a" d="m337.617 212.93 28.121-1.348-22.082 24.871Zm0 0"/><path fill="#65643e" d="m293.855 222.758 43.762-9.828 6.04 23.523Zm0 0"/><path fill="#dfd684" d="m264.898-.008-60.546 14.735L194.82 0Zm0 0"/><path fill="#cb6233" d="m178.102 27.531 27.23 2.766-25.723 9.48Zm0 0"/><path fill="#ded684" d="m205.332 30.297-27.23-2.766 26.25-12.804ZM56.465 123.164l-14.797 37.457L0 124.395ZM0 266.809v-66.493l46.14 59.668Zm0 0"/><path fill="#eac275" d="m0 266.809 41.086 36.601L0 325.848Zm0 0"/><path fill="#eac275" d="m46.14 259.984-5.054 43.426L0 266.81Zm0 0"/><path fill="#eac174" d="m200.488 371.867 25.242 1.055-33.816 11.086ZM275.313 358.945l-31.743.899 8.297-15.953Zm0 0"/><path fill="#262416" d="m243.57 359.844-19.007-17.528 27.304 1.575Zm0 0"/><path fill="#202215" d="m224.563 342.316 19.007 17.528-17.25-.653Zm0 0"/><path fill="#eac174" d="m260.992 339.258 14.32 19.687-23.445-15.054Zm0 0"/><path fill="#c4bd75" d="m323.336 264.023-29.48-41.265 49.8 13.695Zm0 0"/><path fill="#eac275" d="m93.191 366.8 41.48 17.2H82.759Zm0 0"/><path fill="#eac275" d="m76.555 326.906 16.636 39.895-46.39-20.059Zm0 0"/><path fill="#ded684" d="m260.637 46.82-16.219 14.008L250.738 41Zm0 0"/><path fill="#ddd583" d="m264.898-.008 25.848 28.613-19.914 8.7Zm0 0"/><path fill="#232516" d="M383.992 0 346.84 54.52 344.207 0Zm0 0"/><path fill="#99945c" d="m363.29 88.488-21.938-.554 5.488-33.414Zm0 0"/><path fill="#ded684" d="m270.832 37.305-10.195 9.515-9.899-5.82Zm0 0"/><path fill="#202215" d="m215.672 216.129 27.894 5.36-20.543 15.84ZM243.566 221.488l-27.894-5.36 24.09-10.05Zm0 0"/><path fill="#202215" d="m215.672 216.129-3.59-22.348 27.68 12.297Zm0 0"/><path fill="#9b965d" d="m337.617 212.93 11.66-25.594 16.461 24.246Zm0 0"/><path fill="#d3cb7d" d="m359.316 262.512 10.457-17.778 14.223 14.137Zm0 0"/><path fill="#dbd382" d="m289.617 156.914 22.82-21.508 11.461 26.88Zm0 0"/><path fill="#ded684" d="m96.387 193.203-1.278 29.164-35.851-23.68Zm0 0"/><path fill="#dfd684" d="m95.11 222.367-15.258 34.559-20.594-58.238Zm0 0"/><path fill="#ded684" d="m79.852 256.926 15.257-34.559 7.297 25.45Zm0 0"/><path fill="#212315" d="m190.383 214.418-17.906-7.336 20.421-14.137Zm0 0"/><path fill="#232315" d="m213.61 244.836 9.413-7.508-4.855 21.727Zm0 0"/><path fill="#ded684" d="M111.781 19.633 39.22 59.535 100.535 0Zm0 0"/><path fill="#ca5a2e" d="m162.828 41.777 15.274-14.246 1.507 12.246Zm0 0"/><path fill="#ded684" d="M264.898-.008 245.074 26.79l-40.722-12.062Zm0 0"/><path fill="#ded684" d="m245.074 26.79-39.742 3.507-.98-15.57ZM245.074 26.79l25.758 10.515L250.738 41ZM270.832 37.305l-25.758-10.516L264.898-.008ZM84.184 103.734l-27.72 19.43L39.22 59.535ZM0 200.316v-75.921l41.668 36.226ZM89.09 154.441l-29.832 44.247-17.59-38.067Zm0 0"/><path fill="#dfd684" d="m46.14 259.984 13.118-61.296 20.594 58.238Zm0 0"/><path fill="#eac275" d="m0 325.848 41.086-22.438 5.715 43.332Zm0 0"/><path fill="#202215" d="m244.102 196.313 15.644 10.757-19.984-.992ZM261.95 196.004l-17.848.309 2.062-16.09Zm0 0"/><path fill="#202215" d="m244.102 196.313 17.847-.31-2.203 11.067Zm0 0"/><path fill="#ddd583" d="m276.309 204.773-14.36-8.77 20.004-15.077Zm0 0"/><path fill="#d0c97c" d="m261.95 196.004 14.359 8.77-16.563 2.296Zm0 0"/><path fill="#c6582d" d="m246.414 243.117 18.125 28.32-26.535-15.765Zm0 0"/><path fill="#232315" d="m223.023 237.328 23.391 5.79-8.41 12.554Zm0 0"/><path fill="#442d1a" d="m243.566 221.488 2.848 21.63-23.39-5.79Zm0 0"/><path fill="#202215" d="m289.617 156.914-29.234-4.375 8.484-6.187Zm0 0"/><path fill="#d7cf80" d="m260.383 152.54 29.234 4.374-7.664 24.012Zm0 0"/><path fill="#727045" d="m261.95 196.004-1.567-43.465 21.57 28.387Zm0 0"/><path fill="#202215" d="m243.57 359.844-17.84 13.078.59-13.73Zm0 0"/><path fill="#eac275" d="m191.914 384.008 33.816-11.086L249.96 384Zm0 0"/><path fill="#eac174" d="m209.457 289.656-10.539 31.711-7.512-33.742ZM198.918 321.367l10.539-31.71 6.559 31.363Zm0 0"/><path fill="#eac074" d="m198.918 321.367 12.96 19.945-10.894 6.278Zm0 0"/><path fill="#eac174" d="m211.879 341.313-12.961-19.946 17.098-.347Zm0 0"/><path fill="#51351e" d="m224.563 342.316-12.684-1.003 4.137-20.293Zm0 0"/><path fill="#eac174" d="m210.09 262.402 3.52-17.566 4.558 14.219Zm0 0"/><path fill="#eac174" d="m213.61 244.836-3.52 17.566-15.438-2.109Zm0 0"/><path fill="#202215" d="m228.645 271.02-10.477-11.965 19.836-3.383Zm0 0"/><path fill="#2e2617" d="m224.563 342.316 12.64-18.433 14.664 20.008Zm0 0"/><path fill="#352819" d="m237.203 323.883-12.64 18.433-8.547-21.296Zm0 0"/><path fill="#eac275" d="m275.14 328.46-11.632-21.815 24.648-3.649ZM225.73 372.922l21.497-.54L249.96 384Zm0 0"/><path fill="#362c1b" d="m247.227 372.383-3.657-12.54 31.743-.898Zm0 0"/><path fill="#eac174" d="m247.227 372.383-21.497.539 17.84-13.078ZM254.914 331.293l6.078 7.965-9.125 4.633Zm0 0"/><path fill="#222316" d="m237.203 323.883 17.711 7.41-3.047 12.598Zm0 0"/><path fill="#eac174" d="m146.29 372.516 45.624 11.492-57.242-.008Zm0 0"/><path fill="#202215" d="m146.29 372.516 2.085-18.137 20.54 3.918Zm0 0"/><path fill="#eac174" d="m134.672 384-41.48-17.2 38.82-.027Zm0 0"/><path fill="#eac174" d="m132.012 366.773-38.82.028 13.652-14.207Zm0 0"/><path fill="#ded684" d="m244.418 60.828-15.29-10.95L250.739 41Zm0 0"/><path fill="#ded684" d="m229.129 49.879 15.945-23.09L250.738 41Zm0 0"/><path fill="#ded684" d="M245.074 26.79 229.13 49.878l-23.797-19.582Zm0 0"/><path fill="#ca5a2e" d="M205.332 30.297 193 52.668l-13.39-12.89ZM193 52.668l12.332-22.371-.797 23.672Zm0 0"/><path fill="#ca5b2f" d="M203.48 67.121 193 52.668l11.535 1.3Zm0 0"/><path fill="#c8bf76" d="m341.352 87.934 3.71 31.175-20.042-5.816Zm0 0"/><path fill="#938e58" d="m317.523 93.402 23.829-5.468-16.332 25.359Zm0 0"/><path fill="#b9b26e" d="m345.063 119.11-3.711-31.176 21.937.554Zm0 0"/><path fill="#2f301e" d="M346.84 54.52 383.992 0l.024 78.305Zm0 0"/><path fill="#3c3c25" d="M363.29 88.488 346.84 54.52l37.176 23.785Zm0 0"/><path fill="#eac275" d="m307.746 339.996-32.605-11.535 13.015-25.465ZM326.68 296.305l-18.934 43.691-19.59-37Zm0 0"/><path fill="#5c5b38" d="m349.277 187.336 34.723-9.36-18.262 33.606Zm0 0"/><path fill="#6f6d43" d="M365.738 211.582 384 177.977l.004 32.265Zm0 0"/><path fill="#515031" d="m333.734 145.14 15.543 42.196-25.379-25.05Zm0 0"/><path fill="#d4cc7e" d="m312.438 135.406 21.296 9.735-9.836 17.144Zm0 0"/><path fill="#cac378" d="m345.063 119.11-11.329 26.03-8.714-31.847Zm0 0"/><path fill="#d5cd7f" d="m333.734 145.14-21.296-9.734 12.582-22.113Zm0 0"/><path fill="#928e57" d="m311.59 188.73 37.687-1.394-11.66 25.594Zm0 0"/><path fill="#ddd583" d="m289.617 156.914 21.973 31.816-29.637-7.804Zm0 0"/><path fill="#d9d181" d="m311.59 188.73-21.973-31.816 34.281 5.371Zm0 0"/><path fill="#8f8b56" d="m349.277 187.336-37.687 1.394 12.308-26.445Zm0 0"/><path fill="#848150" d="m311.59 188.73 26.027 24.2-43.762 9.828Zm0 0"/><path fill="#dcd483" d="m311.59 188.73-35.281 16.043 5.644-23.847Zm0 0"/><path fill="#ddd584" d="m276.309 204.773 35.28-16.043-17.734 34.028Zm0 0"/><path fill="#5d361e" d="m253.168 152.363-13.625-16.758 9.746-25.773Zm0 0"/><path fill="#a77747" d="m260.383 152.54-7.215-.177-3.879-42.531Zm0 0"/><path fill="#a04d29" d="m239.543 135.605 13.625 16.758-16.441 9.664Zm0 0"/><path fill="#dbd382" d="m294.453 124.316 17.985 11.09-22.82 21.508Zm0 0"/><path fill="#a69e61" d="m294.453 124.316-13.258 2.356.395-25.93Zm0 0"/><path fill="#908853" d="m281.195 126.672 13.258-2.356-4.836 32.598Zm0 0"/><path fill="#202215" d="m269.883 139.54 19.734 17.374-20.75-10.562Zm0 0"/><path fill="#2d2b1a" d="m269.883 139.54 11.312-12.868 8.422 30.242Zm0 0"/><path fill="#554228" d="m260.383 152.54 9.5-13-1.016 6.812Zm0 0"/><path fill="#462e1b" d="m269.883 139.54-9.5 13-11.094-42.708Zm0 0"/><path fill="#ca5a2e" d="M150.32 14.648 136.793 38.34l-9.691-9.547Zm0 0"/><path fill="#cc6334" d="m162.828 41.777-26.035-3.437 13.527-23.692Zm0 0"/><path fill="#564328" d="m155.809 168.586-17.696-21.082 19.512.562Zm0 0"/><path fill="#51331d" d="m138.113 147.504 16.371-11.277 3.141 11.84Zm0 0"/><path fill="#eac174" d="m136.402 173.844 1.711-26.34 17.696 21.082ZM154.484 136.227l18.07-4.372-14.929 16.211Zm0 0"/><path fill="#c95a2e" d="m137.281 110.098-22.484 16.215-15.211-22.508Zm0 0"/><path fill="#c6592d" d="m220.676 151.332 18.867-15.727-2.816 26.422Zm0 0"/><path fill="#c9592e" d="m220.676 151.332-2.23-37.602 21.097 21.875Zm0 0"/><path fill="#eac174" d="M106.844 352.594 93.19 366.8l-16.636-39.895Zm0 0"/><path fill="#eac275" d="m41.086 303.41 35.469 23.496L46.8 346.742ZM41.086 303.41l5.055-43.426 32.332 28.692Zm0 0"/><path fill="#e9c376" d="m104.727 265.086 1.953 23.828-28.207-.238Zm0 0"/><path fill="#ded684" d="m93.492 178.328 2.895 14.875-37.13 5.484Zm0 0"/><path fill="#c95a2e" d="m96.387 193.203-2.895-14.875 10.258 4.375Zm0 0"/><path fill="#ac5029" d="m95.11 222.367 13.617-14.05 7.804 13.785Zm0 0"/><path fill="#854324" d="m96.387 193.203 12.34 15.113-13.618 14.051Zm0 0"/><path fill="#202215" d="m112.637 266.281 1.25-13.363 10.308 6.855Zm0 0"/><path fill="#222215" d="m95.11 222.367 15.09 17.656-7.794 7.793Zm0 0"/><path fill="#c7592d" d="m110.2 240.023-15.09-17.656 21.421-.265Zm0 0"/><path fill="#cb6133" d="m150.527 224.074-18.695-.758 4.207-19.566Zm0 0"/><path fill="#202215" d="m158.559 184.98 34.34 7.965-20.422 14.137Zm0 0"/><path fill="#202215" d="m158.559 184.98 24.511-11.996 9.828 19.961Zm0 0"/><path fill="#c5582d" d="m174.723 270.46 5.5 14.79-30.36 14.508Zm0 0"/><path fill="#212215" d="m180.223 285.25 11.898-12.793-.715 15.168Zm0 0"/><path fill="#202215" d="m192.121 272.457-11.898 12.793-5.5-14.79Zm0 0"/><path fill="#232316" d="m192.121 272.457-11.215-13.668 13.746 1.504Zm0 0"/><path fill="#202215" d="m180.906 258.79 11.215 13.667-17.398-1.996ZM210.934 223.348l4.738-7.22 7.351 21.2Zm0 0"/><path fill="#202215" d="m213.61 244.836-2.676-21.488 12.09 13.98Zm0 0"/><path fill="#eac275" d="m326.68 296.305 32.636-33.793L384 297.637Zm0 0"/><path fill="#d1723e" d="m111.781 19.633 38.54-4.985-23.22 14.145Zm0 0"/><path fill="#ded684" d="M111.781 19.633 100.535 0h52.305Zm0 0"/><path fill="#ded684" d="m150.32 14.648-38.539 4.985L152.84 0ZM152.84 0h41.98l-16.718 27.531ZM178.102 27.531 194.82 0l9.532 14.727Zm0 0"/><path fill="#ded684" d="M150.32 14.648 152.84 0l25.262 27.531Zm0 0"/><path fill="#ca5d30" d="M162.828 41.777 150.32 14.648l27.782 12.883Zm0 0"/><path fill="#ded684" d="M39.219 59.535 0 59.95V0ZM100.535 0 39.22 59.535 0 0ZM56.465 123.164l32.625 31.277-47.422 6.18ZM0 200.316l59.258-1.629-13.117 61.297Zm0 0"/><path fill="#ded684" d="M59.258 198.688 0 200.316l41.668-39.695Zm0 0"/><path fill="#eac175" d="M46.8 346.742 82.759 384H0Zm0 0"/><path fill="#eac275" d="m0 325.848 46.8 20.894L0 384Zm0 0"/><path fill="#202215" d="m259.746 207.07-16.18 14.418-3.804-15.41Zm0 0"/><path fill="#dad282" d="m264.914 230.379 11.395-25.606 17.546 17.985Zm0 0"/><path fill="#854424" d="m243.566 221.488 21.348 8.89-18.5 12.74Zm0 0"/><path fill="#ddd583" d="m276.309 204.773-11.395 25.606-5.168-23.309Zm0 0"/><path fill="#4a321c" d="m264.914 230.379-21.348-8.89 16.18-14.419Zm0 0"/><path fill="#202215" d="m192.898 192.945 3.793-17.656 12.91-.539Zm0 0"/><path fill="#202215" d="m183.07 172.984 13.621 2.305-3.793 17.656Zm0 0"/><path fill="#bf9055" d="m260.383 152.54-7.895 20.487.68-20.664Zm0 0"/><path fill="#202215" d="m252.488 173.027 9.461 22.977-15.785-15.781Zm0 0"/><path fill="#212215" d="m252.488 173.027 7.895-20.488 1.566 43.465Zm0 0"/><path fill="#202215" d="m253.168 152.363-17.48 18.774 1.039-9.11Zm0 0"/><path fill="#eac174" d="m252.488 173.027-16.8-1.89 17.48-18.774Zm0 0"/><path fill="#202215" d="m235.688 171.137 16.8 1.89-6.324 7.196Zm0 0"/><path fill="#2b2516" d="m209.602 174.75 2.48 19.031-19.184-.836Zm0 0"/><path fill="#202215" d="m212.082 193.781 32.02 2.531-4.34 9.766Zm0 0"/><path fill="#eac174" d="m209.457 289.656 16.754 12.856-10.195 18.508Zm0 0"/><path fill="#eac174" d="m226.21 302.512-16.753-12.856 19.441-1.601Zm0 0"/><path fill="#be592f" d="m226.21 302.512 10.993 21.37-21.187-2.862Zm0 0"/><path fill="#202215" d="m212.078 358.785 12.484-16.469 1.758 16.875Zm0 0"/><path fill="#232315" d="m212.078 358.785-.2-17.473 12.685 1.004Zm0 0"/><path fill="#eac174" d="m197.105 356.547 14.973 2.238-11.59 13.082Zm0 0"/><path fill="#eac073" d="m212.078 358.785-14.973-2.238 3.88-8.957Zm0 0"/><path fill="#eac073" d="m211.879 341.313.2 17.472-11.095-11.195Zm0 0"/><path fill="#202215" d="m225.73 372.922-13.652-14.137 14.242.406Zm0 0"/><path fill="#eac174" d="m212.078 358.785 13.652 14.137-25.242-1.055Zm0 0"/><path fill="#3d311e" d="m189.273 321 9.645.367 2.066 26.223Zm0 0"/><path fill="#eac174" d="m203.586 274.102 5.871 15.554-18.05-2.031ZM192.121 272.457l11.465 1.645-12.18 13.523ZM210.09 262.402l-6.504 11.7-8.934-13.809Zm0 0"/><path fill="#eac174" d="m203.586 274.102-11.465-1.645 2.531-12.164Zm0 0"/><path fill="#c9592d" d="m264.54 271.438-23.31 1.132-3.226-16.898Zm0 0"/><path fill="#b3532b" d="m241.23 272.57-12.585-1.55 9.359-15.348Zm0 0"/><path fill="#c55e31" d="m228.645 271.02 12.585 1.55-12.332 15.485Zm0 0"/><path fill="#eac174" d="m263.508 306.645 11.633 21.816-20.227 2.832ZM249.96 384l-2.733-11.617 28.085-13.438ZM249.96 384l25.352-25.055L292.223 384Zm0 0"/><path fill="#eac275" d="m275.313 358.945 32.433-18.949L292.223 384Zm0 0"/><path fill="#eac174" d="m132.012 366.773 14.277 5.743L134.672 384Zm0 0"/><path fill="#eac174" d="m148.375 354.379-2.086 18.137-14.277-5.743ZM131.8 352.941l.212 13.832-25.168-14.18Zm0 0"/><path fill="#eac174" d="m131.8 352.941 16.575 1.438-16.363 12.394Zm0 0"/><path fill="#202215" d="m125.164 327.594 6.637 25.347-24.957-.347Zm0 0"/><path fill="#eac174" d="m146.29 372.516 38.53 1.968 7.094 9.524Zm0 0"/><path fill="#202215" d="m184.82 374.484-38.53-1.968 22.624-14.22Zm0 0"/><path fill="#202215" d="m197.105 356.547-12.285 17.937-15.906-16.187Zm0 0"/><path fill="#202215" d="m184.82 374.484 12.285-17.937 3.383 15.32Zm0 0"/><path fill="#eac174" d="m191.914 384.008-7.094-9.524 15.668-2.617ZM82.758 384 46.8 346.742l46.39 20.059Zm0 0"/><path fill="#ca5b2e" d="m205.332 30.297 23.797 19.582-24.594 4.09Zm0 0"/><path fill="#ce6837" d="M229.129 49.879 203.48 67.12l1.055-13.152Zm0 0"/><path fill="#252718" d="m346.84 54.52-17.05-27.454L344.206 0Zm0 0"/><path fill="#807d4d" d="m312.031 30.473-21.285-1.868L316.398.008Zm0 0"/><path fill="#ca6032" d="m267.633 87.71 6.8-4.976 7.157 18.008Zm0 0"/><path fill="#ded584" d="m274.434 82.734 23.437-1.066-16.281 19.074Zm0 0"/><path fill="#767347" d="m317.523 93.402 2.622-23.03 21.207 17.562Zm0 0"/><path fill="#c2bc74" d="m297.871 81.668 22.274-11.297-2.622 23.031Zm0 0"/><path fill="#777448" d="M320.145 70.371 346.84 54.52l-5.488 33.414Zm0 0"/><path fill="#5d5b38" d="m320.145 70.371 2.097-21.3 24.598 5.449Zm0 0"/><path fill="#eac275" d="m346.93 332.266-39.184 7.73 18.934-43.691Zm0 0"/><path fill="#4c4b2e" d="M359.992 153.758 384 177.977l-34.723 9.359Zm0 0"/><path fill="#505031" d="m333.734 145.14 26.258 8.618-10.715 33.578Zm0 0"/><path fill="#eac275" d="m359.316 262.512 24.68-3.64.004 38.765Zm0 0"/><path fill="#eac275" d="m323.336 264.023 35.98-1.511-32.636 33.793Zm0 0"/><path fill="#4b4b2e" d="m384 177.977-20.71-89.489 20.726-10.183Zm0 0"/><path fill="#904726" d="m272.867 119.965-2.984 19.574-20.594-29.707Zm0 0"/><path fill="#b5542c" d="m269.883 139.54 2.984-19.575 8.328 6.707Zm0 0"/><path fill="#c7592d" d="m246.297 80.383-5.207 10.816-12.504-12.097Zm0 0"/><path fill="#ddd483" d="m297.871 81.668 8.742 27.71-25.023-8.636Zm0 0"/><path fill="#ded281" d="m306.613 109.379-12.16 14.937-12.863-23.574Zm0 0"/><path fill="#b1ac6a" d="m306.613 109.379-8.742-27.711 19.652 11.734Zm0 0"/><path fill="#747146" d="m306.613 109.379 10.91-15.977 7.497 19.891Zm0 0"/><path fill="#d5ce7f" d="m312.438 135.406-5.825-26.027 18.407 3.914Zm0 0"/><path fill="#dcd483" d="m294.453 124.316 12.16-14.937 5.825 26.027Zm0 0"/><path fill="#202215" d="m185.793 70.625-14.047 13.5-12.082-22.3Zm0 0"/><path fill="#ca6233" d="M171.746 84.125 142.56 69.402l17.105-7.578Zm0 0"/><path fill="#cb6032" d="m87.77 89.203 15.746-5.008-3.93 19.61Zm0 0"/><path fill="#cb6334" d="m84.184 103.734 3.586-14.53 11.816 14.6Zm0 0"/><path fill="#ded684" d="m87.77 89.203-3.586 14.531-44.965-44.199Zm0 0"/><path fill="#cb5f31" d="m117.938 156.777 20.175-9.273-1.71 26.34Zm0 0"/><path fill="#322818" d="m117.938 156.777-14.657-11.902 11.516-18.562Zm0 0"/><path fill="#ca5b2f" d="m127.676 178.715-9.739-21.938 18.465 17.067Zm0 0"/><path fill="#e9be72" d="m137.281 110.098 35.274 21.757-18.07 4.372Zm0 0"/><path fill="#202215" d="m196.8 105.2-18.452 2.327 14.82-17.824Zm0 0"/><path fill="#eac174" d="m196.8 105.2 20.731-8.06.914 16.59Zm0 0"/><path fill="#4a301b" d="M178.348 107.527 196.8 105.2l21.644 8.531Zm0 0"/><path fill="#202215" d="m235.688 171.137 10.476 9.086-27.172-2.891Zm0 0"/><path fill="#be562c" d="m220.676 151.332-19.66-11.113 17.43-26.489Zm0 0"/><path fill="#272718" d="m182.18 154.426-24.555-6.36 14.93-16.21Zm0 0"/><path fill="#eac174" d="m182.18 154.426-26.371 14.16 1.816-20.52Zm0 0"/><path fill="#b4522b" d="m187.457 138.047-9.11-30.52 40.098 6.203Zm0 0"/><path fill="#eac174" d="m178.348 107.527 9.109 30.52-14.902-6.192Zm0 0"/><path fill="#eac275" d="m78.473 288.676 31.703 23.59-33.621 14.64Zm0 0"/><path fill="#eac174" d="m110.176 312.266-3.332 40.328-30.29-25.688Zm0 0"/><path fill="#292617" d="m106.844 352.594 3.332-40.328 14.988 15.328Zm0 0"/><path fill="#222215" d="m125.164 327.594-14.988-15.328 13.613-5.762Zm0 0"/><path fill="#202215" d="m117.125 299.266-10.445-10.352 25.43-6.922Zm0 0"/><path fill="#ded684" d="m89.09 154.441 4.402 23.887-34.234 20.36Zm0 0"/><path fill="#212215" d="m109.309 194.11-12.922-.907 7.363-10.5Zm0 0"/><path fill="#202215" d="m109.309 194.11-.582 14.206-12.34-15.113Zm0 0"/><path fill="#eac174" d="m136.402 173.844 19.407-5.258 2.75 16.394Zm0 0"/><path fill="#59351d" d="m112.637 266.281-5.957 22.633-1.953-23.828Zm0 0"/><path fill="#964927" d="m106.68 288.914 5.957-22.633 19.472 15.711Zm0 0"/><path fill="#202215" d="m113.887 252.918-9.16 12.168-2.32-17.27Zm0 0"/><path fill="#ded684" d="m104.727 265.086-24.875-8.16 22.554-9.11Zm0 0"/><path fill="#202215" d="m112.637 266.281-7.91-1.195 9.16-12.168ZM110.2 240.023l3.687 12.895-11.48-5.102ZM131.832 223.316l2.512 13.215-17.813-14.43Zm0 0"/><path fill="#c6582d" d="m134.344 236.531-24.145 3.492 6.332-17.921Zm0 0"/><path fill="#202215" d="m134.344 236.531-20.457 16.387-3.688-12.895Zm0 0"/><path fill="#c9592d" d="m157.715 270.96 17.008-.5-24.86 29.298Zm0 0"/><path fill="#ca5a2e" d="m143.27 281.363 14.445-10.402-7.852 28.797ZM138.875 258.32l18.84 12.64-14.445 10.403Zm0 0"/><path fill="#232315" d="m154.477 220.133-3.95 3.941-14.488-20.324Zm0 0"/><path fill="#202215" d="m150.527 224.074 3.95-3.941 20.699 24.144ZM180.906 258.79l5.875-11.724 7.871 13.227ZM215.672 216.129l-25.29-1.711 2.516-21.473Zm0 0"/><path fill="#202215" d="m212.082 193.781 3.59 22.348-22.774-23.184Zm0 0"/><path fill="#e9c275" d="m346.93 332.266 37.07-34.63-.004 52.372Zm0 0"/><path fill="#eac275" d="m326.68 296.305 57.32 1.332-37.07 34.629Zm0 0"/><path fill="#ca5a2e" d="m136.793 38.34-18.895 8.937 9.204-18.484ZM117.898 47.277l-6.117-27.644 15.32 9.16Zm0 0"/><path fill="#eac174" d="m203.48 67.121 1.602 22.813-11.914-.23ZM205.082 89.934l19.422.273-6.973 6.934Zm0 0"/><path fill="#ca5b2f" d="m224.504 90.207-19.422-.273-1.602-22.813Zm0 0"/><path fill="#eac174" d="m205.082 89.934-8.281 15.265-3.633-15.496Zm0 0"/><path fill="#e3ab65" d="m196.8 105.2 8.282-15.266 12.45 7.207Zm0 0"/><path fill="#dfd684" d="M39.219 59.535 0 124.395V59.949Zm0 0"/><path fill="#beb46f" d="m323.336 264.023-33.688.649 4.207-41.914Zm0 0"/><path fill="#dbd382" d="m289.648 264.672-24.734-34.293 28.941-7.621Zm0 0"/><path fill="#2a2516" d="m218.992 177.332-6.91 16.45-2.48-19.032Zm0 0"/><path fill="#242316" d="m189.273 321-9.05-35.75 11.183 2.375Zm0 0"/><path fill="#262416" d="m198.918 321.367-9.645-.367 2.133-33.375Zm0 0"/><path fill="#eac174" d="m136.543 300.934 6.727-19.57 6.593 18.394ZM222.785 272.063l-19.2 2.039 6.505-11.7Zm0 0"/><path fill="#382e1c" d="m222.785 272.063 5.86-1.043.253 17.035Zm0 0"/><path fill="#eac174" d="m209.457 289.656 13.328-17.594 6.113 15.993Zm0 0"/><path fill="#eac174" d="m203.586 274.102 19.2-2.04-13.329 17.594Zm0 0"/><path fill="#eac174" d="m222.785 272.063-12.695-9.66 8.078-3.348Zm0 0"/><path fill="#242316" d="m228.645 271.02-5.86 1.043-4.617-13.008Zm0 0"/><path fill="#eac275" d="m263.508 306.645 1.031-35.207 23.617 31.558ZM264.54 271.438l25.108-6.766-1.492 38.324Zm0 0"/><path fill="#292516" d="m237.203 323.883 26.305-17.238-8.594 24.648Zm0 0"/><path fill="#eac174" d="m275.14 328.46-14.148 10.798-6.078-7.965Zm0 0"/><path fill="#eac275" d="m275.14 328.46.173 30.485-14.32-19.687ZM275.313 358.945l-.172-30.484 32.605 11.535ZM326.68 296.305l-37.032-31.633 33.688-.649Zm0 0"/><path fill="#eac275" d="m289.648 264.672 37.032 31.633-38.524 6.691Zm0 0"/><path fill="#222215" d="m138.797 315.547-13.633 12.047-1.375-21.09Zm0 0"/><path fill="#202215" d="m136.543 300.934 2.254 14.613-15.008-9.043Zm0 0"/><path fill="#d07440" d="m197.105 356.547-23.273-14.527 27.152 5.57Zm0 0"/><path fill="#c7592d" d="m173.832 342.02 23.273 14.527-28.19 1.75Zm0 0"/><path fill="#c6592e" d="M173.832 342.02 189.273 321l11.711 26.59Zm0 0"/><path fill="#c75b2f" d="m173.832 342.02-10.746-28.141L189.273 321Zm0 0"/><path fill="#c95a2e" d="m163.086 313.879 10.746 28.14-16.902 3.965Zm0 0"/><path fill="#212215" d="m131.8 352.941 12.145-18.488 4.43 19.926Zm0 0"/><path fill="#222215" d="m143.945 334.453-12.144 18.488-6.637-25.347Zm0 0"/><path fill="#222215" d="m138.797 315.547 5.148 18.906-18.78-6.86Zm0 0"/><path fill="#c9592e" d="m222.867 65.344 6.262-15.465 15.289 10.95Zm0 0"/><path fill="#202215" d="m222.867 65.344 23.43 15.039-17.711-1.281Zm0 0"/><path fill="#2b2c1b" d="m344.207 0-14.418 27.066L316.4.008Zm0 0"/><path fill="#32331f" d="m329.79 27.066-17.759 3.407L316.398.008Zm0 0"/><path fill="#ded684" d="m274.434 82.734 5.992-19.937 17.445 18.871Zm0 0"/><path fill="#c8c177" d="m312.031 30.473-11.746 23.765-9.539-25.633Zm0 0"/><path fill="#868351" d="m346.84 54.52-24.598-5.45 7.547-22.004Zm0 0"/><path fill="#515132" d="m322.242 49.07-10.21-18.597 17.757-3.407Zm0 0"/><path fill="#c2bc74" d="m322.242 49.07-21.957 5.168 11.746-23.765Zm0 0"/><path fill="#eac174" d="M307.746 339.996 340.95 384h-48.726Zm0 0"/><path fill="#696740" d="m363.29 88.488-3.298 65.27-14.93-34.649Zm0 0"/><path fill="#4d4d2f" d="m359.992 153.758-26.258-8.617 11.329-26.032Zm0 0"/><path fill="#424229" d="m384 177.977-24.008-24.22 3.297-65.269Zm0 0"/><path fill="#c7c076" d="m369.773 244.734-10.457 17.778-15.66-26.059Zm0 0"/><path fill="#cac378" d="m359.316 262.512-35.98 1.511 20.32-27.57Zm0 0"/><path fill="#45321d" d="m275.703 105.14-2.836 14.825-23.578-10.133Zm0 0"/><path fill="#222215" d="m275.703 105.14-8.07-17.43 13.957 13.032Zm0 0"/><path fill="#212215" d="m281.195 126.672-5.492-21.531 5.887-4.399Zm0 0"/><path fill="#ab532c" d="m272.867 119.965 2.836-14.824 5.492 21.53Zm0 0"/><path fill="#232315" d="m250.352 73.09-27.485-7.746 21.551-4.516Zm0 0"/><path fill="#e1a662" d="m222.867 65.344 27.485 7.746-4.055 7.293Zm0 0"/><path fill="#202215" d="m241.09 91.2-16.586-.993 4.082-11.105Zm0 0"/><path fill="#212215" d="m217.531 97.14 6.973-6.933-6.059 23.523Zm0 0"/><path fill="#ce6e3b" d="m258.05 87.223-16.96 3.976 5.207-10.816Zm0 0"/><path fill="#202215" d="m203.48 67.121-17.687 3.504L193 52.668Zm0 0"/><path fill="#e1a360" d="m187.094 84.723-1.301-14.098 17.687-3.504Zm0 0"/><path fill="#222215" d="M187.094 84.723 203.48 67.12l-10.312 22.582Zm0 0"/><path fill="#c76133" d="m178.348 107.527 8.746-22.804 6.074 4.98Zm0 0"/><path fill="#e2a763" d="m185.793 70.625 1.3 14.098-15.347-.598Zm0 0"/><path fill="#eac174" d="m171.746 84.125 15.348.598-18.465 20.152Zm0 0"/><path fill="#202215" d="m187.094 84.723-8.746 22.804-9.72-2.652ZM175.652 53.148l10.141 17.477-26.129-8.8ZM185.793 70.625l-10.14-17.477 17.347-.48ZM193 52.668l-17.348.48 3.957-13.37Zm0 0"/><path fill="#202215" d="m175.652 53.148-12.824-11.37 16.781-2Zm0 0"/><path fill="#202215" d="m162.828 41.777 12.824 11.371-15.988 8.676Zm0 0"/><path fill="#eac074" d="m142.559 69.402 20.27-27.625-3.165 20.047Zm0 0"/><path fill="#ca5a2e" d="m142.559 69.402-5.766-31.062 26.035 3.437Zm0 0"/><path fill="#ca5a2e" d="m142.559 69.402-24.66-22.125 18.894-8.937Zm0 0"/><path fill="#cd6535" d="m117.898 47.277 24.66 22.125-39.042 14.793Zm0 0"/><path fill="#ca5a2e" d="m103.516 84.195 33.765 25.903-37.695-6.293Zm0 0"/><path fill="#ca5a2e" d="m142.559 69.402-5.278 40.696-33.765-25.903Zm0 0"/><path fill="#dfd684" d="m89.094 52.633-1.324 36.57-48.551-29.668Zm0 0"/><path fill="#cb6133" d="m87.77 89.203 1.324-36.57 14.422 31.562Zm0 0"/><path fill="#c9592d" d="m114.797 126.313-28.406-3.997 13.195-18.511Zm0 0"/><path fill="#c8592d" d="m103.281 144.875-16.89-22.559 28.406 3.996Zm0 0"/><path fill="#ca5a2e" d="m86.39 122.316 16.891 22.559-14.191 9.566Zm0 0"/><path fill="#ded684" d="m56.465 123.164 29.926-.848 2.699 32.125Zm0 0"/><path fill="#ca6334" d="M99.586 103.805 86.39 122.316l-2.207-18.582Zm0 0"/><path fill="#dfd684" d="m86.39 122.316-29.925.848 27.719-19.43Zm0 0"/><path fill="#c7592e" d="m138.113 147.504-.832-37.406 17.203 26.129Zm0 0"/><path fill="#cc6032" d="m137.281 110.098.832 37.406-23.316-21.191Zm0 0"/><path fill="#c9592d" d="m138.113 147.504-20.175 9.273-3.141-30.464Zm0 0"/><path fill="#222315" d="m172.555 131.855-3.926-26.98 9.719 2.652Zm0 0"/><path fill="#cd6837" d="m217.832 155.95-16.816-15.731 19.66 11.113Zm0 0"/><path fill="#e8c073" d="m182.18 154.426 18.558 8.68-17.668 9.878Zm0 0"/><path fill="#202215" d="m155.809 168.586 27.261 4.398-24.511 11.996Zm0 0"/><path fill="#e8c074" d="m155.809 168.586 26.37-14.16.891 18.558Zm0 0"/><path fill="#eac275" d="m41.086 303.41 37.387-14.734-1.918 38.23Zm0 0"/><path fill="#232315" d="m110.176 312.266 6.949-13 6.664 7.238Zm0 0"/><path fill="#202215" d="m117.125 299.266-6.95 13-3.495-23.352Zm0 0"/><path fill="#eac275" d="m110.176 312.266-31.703-23.59 28.207.238Zm0 0"/><path fill="#202215" d="m132.11 281.992 4.433 18.942-12.754 5.57Zm0 0"/><path fill="#202215" d="m117.125 299.266 14.984-17.274-8.32 24.512Zm0 0"/><path fill="#eabf73" d="m132.11 281.992 11.16-.629-6.727 19.57Zm0 0"/><path fill="#c9592d" d="m103.281 144.875 5.016 19.836-19.207-10.27Zm0 0"/><path fill="#c95a2e" d="m108.297 164.71-14.805 13.618-4.402-23.887Zm0 0"/><path fill="#242315" d="m108.297 164.71 9.64-7.933 9.739 21.938Zm0 0"/><path fill="#232315" d="m117.938 156.777-9.641 7.934-5.016-19.836Zm0 0"/><path fill="#212215" d="m116.785 184.902-7.476 9.207-5.559-11.406Zm0 0"/><path fill="#202215" d="m127.676 178.715-4.106 25.137-6.785-18.95ZM108.727 208.316l14.843-4.464-7.039 18.25Zm0 0"/><path fill="#202215" d="m123.57 203.852 8.262 19.464-15.3-1.214ZM123.57 203.852l-14.261-9.743 7.476-9.207ZM109.309 194.11l14.261 9.742-14.843 4.464Zm0 0"/><path fill="#cb5e31" d="m136.04 203.75-8.364-25.035 8.726-4.871Zm0 0"/><path fill="#202215" d="m123.57 203.852 12.47-.102-4.208 19.566Zm0 0"/><path fill="#202215" d="m136.04 203.75-12.47.102 4.106-25.137Zm0 0"/><path fill="#854425" d="m132.11 281.992-19.473-15.71 11.558-6.509Zm0 0"/><path fill="#6a3a20" d="m138.875 258.32-6.766 23.672-7.914-22.219Zm0 0"/><path fill="#eac074" d="m132.11 281.992 6.765-23.672 4.395 23.043Zm0 0"/><path fill="#eac275" d="m79.852 256.926 24.875 8.16-26.254 23.59Zm0 0"/><path fill="#eac174" d="m46.14 259.984 33.712-3.058-1.38 31.75Zm0 0"/><path fill="#cb5f31" d="m150.527 224.074-10.609 11.309-8.086-12.067Zm0 0"/><path fill="#cb5f31" d="m139.918 235.383-5.574 1.148-2.512-13.215Zm0 0"/><path fill="#e7be73" d="m183.984 235.176-29.507-15.043 18-13.051Zm0 0"/><path fill="#947949" d="m183.984 235.176-11.507-28.094 17.906 7.336Zm0 0"/><path fill="#202215" d="m154.477 220.133 29.507 15.043-8.808 9.101ZM145.156 199.57l9.32 20.563-18.437-16.383Zm0 0"/><path fill="#e9c074" d="m154.477 220.133-9.32-20.563 27.32 7.512Zm0 0"/><path fill="#2d2617" d="m145.156 199.57-9.117 4.18.363-29.906Zm0 0"/><path fill="#eac174" d="m145.156 199.57-8.754-25.726 22.157 11.136Zm0 0"/><path fill="#eac174" d="m172.477 207.082-27.32-7.512 13.402-14.59Zm0 0"/><path fill="#202215" d="m175.176 244.277 11.605 2.79-5.875 11.722Zm0 0"/><path fill="#202215" d="m186.781 247.066-11.605-2.789 8.808-9.101Zm0 0"/><path fill="#eac174" d="m200.977 237.203 9.957-13.855 2.675 21.488Zm0 0"/><path fill="#eac174" d="m200.977 237.203 12.632 7.633-18.957 15.457Zm0 0"/><path fill="#202215" d="m186.781 247.066 14.196-9.863-6.325 23.09Zm0 0"/><path fill="#202215" d="m200.977 237.203-14.196 9.863-2.797-11.89Zm0 0"/><path fill="#eac174" d="M384 384h-43.05l43.046-33.992Zm0 0"/><path fill="#eac174" d="m346.93 332.266 37.066 17.742L340.95 384Zm0 0"/><path fill="#ded684" d="M56.465 123.164 0 124.394l39.219-64.859Zm0 0"/><path fill="#ddd483" d="m289.648 264.672-25.109 6.765.375-41.058Zm0 0"/><path fill="#5d361e" d="m264.914 230.379-.375 41.059-18.125-28.32Zm0 0"/><path fill="#eac174" d="m212.082 193.781 17.563-9.406 14.457 11.938Zm0 0"/><path fill="#eabf73" d="m218.992 177.332 10.653 7.043-17.563 9.406Zm0 0"/><path fill="#eac174" d="m244.102 196.313-14.457-11.938 16.52-4.152Zm0 0"/><path fill="#202215" d="m229.645 184.375-10.653-7.043 27.172 2.89Zm0 0"/><path fill="#da9758" d="m241.426 301.012-15.215 1.5 2.687-14.457Zm0 0"/><path fill="#b75a2f" d="m241.426 301.012-4.223 22.87-10.992-21.37Zm0 0"/><path fill="#e9be72" d="m241.23 272.57.196 28.442-12.528-12.957Zm0 0"/><path fill="#cb5f31" d="m264.54 271.438-23.114 29.574-.196-28.442Zm0 0"/><path fill="#ca5a2e" d="m241.426 301.012 23.113-29.574-1.031 35.207Zm0 0"/><path fill="#804123" d="m237.203 323.883 4.223-22.871 22.082 5.633Zm0 0"/><path fill="#eac174" d="m152.852 315.168-14.055.379-2.254-14.613Zm0 0"/><path fill="#eac174" d="m152.852 315.168-16.309-14.234 13.32-1.176Zm0 0"/><path fill="#eac174" d="m143.945 334.453 8.907-19.285 4.078 30.816Zm0 0"/><path fill="#eac174" d="m152.852 315.168-8.907 19.285-5.148-18.906Zm0 0"/><path fill="#cb6536" d="m152.852 315.168 10.234-1.29-6.156 32.106Zm0 0"/><path fill="#c9592d" d="m180.223 285.25-17.137 28.629-13.223-14.121Zm0 0"/><path fill="#cb6234" d="m163.086 313.879-10.234 1.289-2.989-15.41Zm0 0"/><path fill="#c8592e" d="m189.273 321-26.187-7.121 17.137-28.629Zm0 0"/><path fill="#202215" d="m143.945 334.453 12.985 11.531-8.555 8.395Zm0 0"/><path fill="#ce6838" d="m148.375 354.379 8.555-8.395 11.984 12.313Zm0 0"/><path fill="#ca5b2f" d="m156.93 345.984 16.902-3.964-4.918 16.277Zm0 0"/><path fill="#202215" d="m224.504 90.207-1.637-24.863 5.719 13.758Zm0 0"/><path fill="#482e1c" d="m222.867 65.344 1.637 24.863-21.024-23.086Zm0 0"/><path fill="#ca5b2e" d="m229.129 49.879-6.262 15.465-19.387 1.777Zm0 0"/><path fill="#202215" d="m280.426 62.797-23.227 3.762 3.438-19.739Zm0 0"/><path fill="#202215" d="m257.2 66.559-12.782-5.73 16.219-14.009Zm0 0"/><path fill="#ca5e30" d="m257.2 66.559-6.848 6.53-5.934-12.26Zm0 0"/><path fill="#ddd584" d="m280.426 62.797 19.86-8.559-2.415 27.43Zm0 0"/><path fill="#c3bd74" d="m300.285 54.238 19.86 16.133-22.274 11.297Zm0 0"/><path fill="#b7b16d" d="m320.145 70.371-19.86-16.133 21.957-5.168Zm0 0"/><path fill="#864324" d="M218.445 113.73 241.09 91.2l8.2 18.632Zm0 0"/><path fill="#874424" d="m218.445 113.73 6.059-23.523 16.586.992Zm0 0"/><path fill="#a64e28" d="m218.445 113.73 30.844-3.898-9.746 25.773Zm0 0"/><path fill="#e6c879" d="m241.09 91.2 24.246 11.3-16.047 7.332Zm0 0"/><path fill="#ded684" d="m258.05 87.223 7.286 15.277-24.246-11.3Zm0 0"/><path fill="#232315" d="m265.336 102.5 10.367 2.64-26.414 4.692Zm0 0"/><path fill="#3d3d26" d="m265.336 102.5-7.285-15.277 1.988-1.633Zm0 0"/><path fill="#202215" d="m265.336 102.5-5.297-16.91 7.594 2.12Zm0 0"/><path fill="#c85c2f" d="m275.703 105.14-10.367-2.64 2.297-14.79Zm0 0"/><path fill="#d68048" d="m168.629 104.875-26.07-35.473 29.187 14.723Zm0 0"/><path fill="#dd9858" d="m168.629 104.875-31.348 5.223 5.278-40.696Zm0 0"/><path fill="#eac073" d="m137.281 110.098 31.348-5.223 3.926 26.98Zm0 0"/><path fill="#ca5a2e" d="m89.094 52.633 28.804-5.356-14.382 36.918Zm0 0"/><path fill="#ca5a2e" d="m117.898 47.277-28.804 5.356 22.687-33Zm0 0"/><path fill="#ded684" d="m89.094 52.633-49.875 6.902 72.562-39.902Zm0 0"/><path fill="#eac073" d="m209.602 174.75 8.23-18.8 1.16 21.382Zm0 0"/><path fill="#eac174" d="m217.832 155.95 17.856 15.187-16.696 6.195Zm0 0"/><path fill="#222315" d="m196.691 175.29 4.047-12.185 8.864 11.645Zm0 0"/><path fill="#e9bd72" d="m200.738 163.105 17.094-7.156-8.23 18.801Zm0 0"/><path fill="#292819" d="m200.738 163.105-4.047 12.184-13.62-2.305Zm0 0"/><path fill="#eac074" d="m217.832 155.95-17.094 7.155.278-22.886Zm0 0"/><path fill="#eac174" d="m187.457 138.047-5.277 16.379-9.625-22.57Zm0 0"/><path fill="#202215" d="m187.457 138.047 13.281 25.058-18.558-8.68Zm0 0"/><path fill="#b4522a" d="m108.297 164.71 8.488 20.192-13.035-2.199Zm0 0"/><path fill="#c9592d" d="m93.492 178.328 14.805-13.617-4.547 17.992Zm0 0"/><path fill="#202215" d="m116.785 184.902-8.488-20.191 19.379 14.004ZM134.344 236.531l-10.149 23.242-10.308-6.855ZM124.195 259.773l10.149-23.242 4.531 21.79Zm0 0"/><path fill="#cc6132" d="m138.875 258.32-4.531-21.789 5.574-1.148Zm0 0"/><path fill="#c85a2e" d="m150.527 224.074 14.04 28.258-24.649-16.95Zm0 0"/><path fill="#222215" d="m164.566 252.332-14.039-28.258 24.649 20.203Zm0 0"/><path fill="#ca5b2e" d="m164.566 252.332-25.691 5.988 1.043-22.937Zm0 0"/><path fill="#202215" d="m164.566 252.332 10.61-8.055 5.73 14.512Zm0 0"/><path fill="#c9592d" d="m138.875 258.32 25.691-5.988-6.851 18.629Zm0 0"/><path fill="#202215" d="m164.566 252.332 16.34 6.457-6.183 11.672Zm0 0"/><path fill="#c8592d" d="m157.715 270.96 6.851-18.628 10.157 18.129Zm0 0"/><path fill="#212215" d="m215.672 216.129-4.738 7.219-20.551-8.93Zm0 0"/><path fill="#9a7c4a" d="m210.934 223.348-9.957 13.855-16.993-2.027Zm0 0"/><path fill="#202215" d="m210.934 223.348-26.95 11.828 6.399-20.758Zm0 0"/><path fill="#d0894f" d="m258.05 87.223-7.698-14.133 9.687 12.5Zm0 0"/><path fill="#e9c174" d="m250.352 73.09 7.699 14.133-11.754-6.84Zm0 0"/><path fill="#dcd483" d="m300.285 54.238-20.578-7.293 11.04-18.34Zm0 0"/><path fill="#ded684" d="m279.707 46.945-8.875-9.64 19.914-8.7Zm0 0"/><path fill="#dcd483" d="m279.707 46.945 20.578 7.293-19.86 8.559Zm0 0"/><path fill="#202215" d="m270.832 37.305 8.875 9.64-19.07-.125ZM279.707 46.945l.719 15.852-19.79-15.977Zm0 0"/><path fill="#eac174" d="m340.95 384-33.204-44.004 39.184-7.73Zm0 0"/><path fill="#292516" d="m217.832 155.95 2.844-4.618 15.012 19.805Zm0 0"/><path fill="#202215" d="m235.688 171.137-15.012-19.805 16.05 10.695Zm0 0"/><path fill="#e8b96f" d="m187.457 138.047 13.559 2.172-.278 22.886Zm0 0"/><path fill="#914726" d="m201.016 140.219-13.559-2.172 30.988-24.317Zm0 0"/><path fill="#232315" d="m250.352 73.09 16.078 4.644-6.39 7.856Zm0 0"/><path fill="#c75a2e" d="m266.43 77.734-16.078-4.644 6.847-6.531Zm0 0"/><path fill="#cb6435" d="m266.43 77.734 8.004 5-6.801 4.977Zm0 0"/><path fill="#272516" d="m260.04 85.59 6.39-7.856 1.203 9.977Zm0 0"/><path fill="#8f8a55" d="m266.43 77.734 13.996-14.937-5.992 19.937Zm0 0"/><path fill="#222316" d="M266.43 77.734 257.2 66.56l23.226-3.762Zm0 0"/></svg>