<svg xmlns="http://www.w3.org/2000/svg" width="512" height="512" viewBox="0 0 384 384"><path fill="#777548" d="M27.336 193.04 0 209.382v-37.176Zm0 0"/><path fill="#777548" d="m0 209.383 27.336-16.344 4.355 31.711ZM48.941 51.86l-3.39 50.117L0 71.363Zm0 0"/><path fill="#757247" d="m85.895 83.543 39.253-.656-13.285 23.547Zm0 0"/><path fill="#777448" d="M85.895 83.543 45.55 101.977l3.39-50.118ZM231.172 173.629l21.078 13.055-22.07 15.43Zm0 0"/><path fill="#757247" d="m292.008 123.758-32.211 6.898 5.902-30.61Zm0 0"/><path fill="#767347" d="m231.172 173.629 25.7-12.348-4.622 25.403ZM289.258 266.504l18.476 27.86-32.57-1.587ZM218.418-.004l-23.207 46.379L152.539.008Zm0 0"/><path fill="#777448" d="m195.21 46.375-45.3 5.441L152.54.008Zm0 0"/><path fill="#747246" d="m218.418-.004 8.613 33.438-31.82 12.941Zm0 0"/><path fill="#767347" d="M45.55 101.977 0 127.176V71.363Zm0 0"/><path fill="#787548" d="m43.105 152.184-15.77 40.855L0 172.207Zm0 0"/><path fill="#787649" d="M48.941 51.86 0 71.362V0Zm0 0"/><path fill="#ded684" d="m211.809 202.883 19.363-29.254-.992 28.484Zm0 0"/><path fill="#ded684" d="m223.754 242.555-11.945-39.672 18.37-.77Zm0 0"/><path fill="#877b4e" d="m83.89 333.45-6.8 28.878-25.977-24.562Zm0 0"/><path fill="#757247" d="m242 268.848 47.258-2.344-14.094 26.273Zm0 0"/><path fill="#726f45" d="m353.188 78.648-20.95 46.188-30.648-43.531Zm0 0"/><path fill="#757347" d="m384 127.707-30.812-49.059 30.812-.48Zm0 0"/><path fill="#757246" d="M353.188 78.648 384 127.707l-51.762-2.871Zm0 0"/><path fill="#535233" d="m172.387 333.563-13.117 20.593-10.864-11.035Zm0 0"/><path fill="#747246" d="m317.418 190.883 33.652 15.37-31.129 16.88Zm0 0"/><path fill="#757246" d="m295.363 210.023 22.055-19.14 2.523 32.25Zm0 0"/><path fill="#767347" d="M351.07 206.254 384 183.387v53.562Zm0 0"/><path fill="#767347" d="m344.867 239.883 6.203-33.63L384 236.95Zm0 0"/><path fill="#757247" d="m351.07 206.254-6.203 33.629-24.926-16.75Zm0 0"/><path fill="#747246" d="m317.418 190.883-34.594-9.102 26.594-25.55Zm0 0"/><path fill="#737045" d="m282.824 181.781 34.594 9.102-22.055 19.14Zm0 0"/><path fill="#767447" d="m256.871 161.281 25.953 20.5-30.574 4.903Zm0 0"/><path fill="#757246" d="m262.98 215.477 32.383-5.454-3.422 25.797Zm0 0"/><path fill="#757247" d="m282.824 181.781-19.844 33.696-10.73-28.793ZM262.98 215.477l19.844-33.696 12.54 28.242Zm0 0"/><path fill="#757347" d="m252.25 186.684 10.73 28.793-32.8-13.364Zm0 0"/><path fill="#757246" d="m262.98 215.477-39.226 27.078 6.426-40.442ZM291.941 235.82l27.95 18.39-30.633 12.294Zm0 0"/><path fill="#767347" d="m291.941 235.82 3.422-25.797 24.578 13.11ZM319.89 254.21l-27.949-18.39 28-12.687Zm0 0"/><path fill="#dcd383" d="m310.281 384.02-33.86-.016 16.477-22.098Zm0 0"/><path fill="#757246" d="m325.555 293.078-5.664-38.867 34.847 35.305Zm0 0"/><path fill="#747246" d="m319.89 254.21 5.665 38.868-36.297-26.574Zm0 0"/><path fill="#767347" d="m325.555 293.078-17.82 1.285-18.477-27.86Zm0 0"/><path fill="#ded584" d="m230.555 355.93-11.985 6.617-7.332-15.926Zm0 0"/><path fill="#767247" d="M99.547 39.297 65.12 0h36.172Zm0 0"/><path fill="#767347" d="m65.121 0 34.426 39.297L48.94 51.859Zm0 0"/><path fill="#757247" d="M99.547 39.297 85.895 83.543 48.94 51.859Zm0 0"/><path fill="#767347" d="m221.5 52.36 5.531-18.926 19.38 22.804Zm0 0"/><path fill="#777448" d="m0 127.176 43.105 25.008L0 172.207Zm0 0"/><path fill="#767347" d="m0 127.176 45.55-25.2-2.445 50.208Zm0 0"/><path fill="#797548" d="M0 0h65.121l-16.18 51.86Zm0 0"/><path fill="#797649" d="m127.375 226.938 2.398 14.132-28.054-2.222Zm0 0"/><path fill="#bcb570" d="m179.824 206.48-11.183-12.027 10.207-13.562Zm0 0"/><path fill="#797649" d="m129.105 156.328-3.566 27.606-33.457-21.36Zm0 0"/><path fill="#7a7649" d="m0 307.898 23.48-23.863-7.433 26.938Zm0 0"/><path fill="#c9b072" d="m0 307.898 16.047 3.075L.004 342.305Zm0 0"/><path fill="#a2985f" d="m26.637 318.285-10.59-7.312 9.469-2.387Zm0 0"/><path fill="#d5cb7e" d="m147.273 358.7-9.453-16.493 10.586.914Zm0 0"/><path fill="#ddd583" d="m137.82 342.207 9.453 16.492-24.902-1.515Zm0 0"/><path fill="#565535" d="m159.27 354.156-11.997 4.543 1.133-15.578Zm0 0"/><path fill="#585535" d="m148.68 325.441 23.707 8.122-23.98 9.558Zm0 0"/><path fill="#757347" d="m289.258 266.504-26.242-21.977 28.925-8.707Zm0 0"/><path fill="#757246" d="m242 268.848 21.016-24.32 26.242 21.976ZM263.016 244.527l-.036-29.05 28.961 20.343Zm0 0"/><path fill="#767347" d="m262.98 215.477.036 29.05-39.262-1.972Zm0 0"/><path fill="#ded684" d="m211.809 202.883-17.97 34.297-14.015-30.7ZM193.84 237.18l17.969-34.297 11.945 39.672Zm0 0"/><path fill="#ddd483" d="m223.754 242.555-13.43 32.465-7.972-22.02Zm0 0"/><path fill="#ded684" d="m193.84 237.18 29.914 5.375L202.352 253Zm0 0"/><path fill="#767347" d="M346.34 165.05 384 183.388l-32.93 22.867Zm0 0"/><path fill="#747146" d="m346.34 165.05-28.922 25.833-8-34.653Zm0 0"/><path fill="#747246" d="m317.418 190.883 28.922-25.832 4.73 41.203ZM332.238 124.836l14.102 40.215-36.922-8.82Zm0 0"/><path fill="#747146" d="m292.008 123.758 40.23 1.078-22.82 31.394Zm0 0"/><path fill="#716f44" d="m332.238 124.836-40.23-1.078 9.582-42.453Zm0 0"/><path fill="#737146" d="M346.34 165.05 384 127.708v55.68Zm0 0"/><path fill="#767347" d="m384 127.707-37.66 37.344-14.102-40.215Zm0 0"/><path fill="#c2b571" d="m156.688 367.91 14.718 16.098-41.824-.02Zm0 0"/><path fill="#787649" d="m85.55 269.668 27.165-4.746-13.137 23.348Zm0 0"/><path fill="#797649" d="m112.715 264.922-.024 23.07-13.113.278Zm0 0"/><path fill="#767347" d="m384 236.95-.016 56.945-29.246-4.38ZM319.89 254.21l24.977-14.327 9.871 49.633Zm0 0"/><path fill="#757246" d="m344.867 239.883-24.976 14.328.05-31.078Zm0 0"/><path fill="#747246" d="m279.992 150.898 12.016-27.14 17.41 32.472Zm0 0"/><path fill="#757347" d="m282.824 181.781-2.832-30.883 29.426 5.332ZM292.008 123.758l-12.016 27.14-20.195-20.242Zm0 0"/><path fill="#767347" d="m279.992 150.898-23.12 10.383 2.925-30.625Zm0 0"/><path fill="#767347" d="m279.992 150.898 2.832 30.883-25.953-20.5Zm0 0"/><path fill="#dcd182" d="m276.422 384.004-20.2-30.66 36.676 8.562Zm0 0"/><path fill="#ded584" d="m230.555 355.93-.211-19.203 25.879 16.617Zm0 0"/><path fill="#ded684" d="m230.344 336.727 24.691-11.075 1.188 27.692ZM230.344 336.727l.21 19.203-19.316-9.309Zm0 0"/><path fill="#cfb675" d="m230.344 336.727-19.106 9.894-6.285-28.742Zm0 0"/><path fill="#767347" d="M152.54.008 99.546 39.297 101.293 0Zm0 0"/><path fill="#757247" d="M99.547 39.297 152.539.007l-2.629 51.81Zm0 0"/><path fill="#777448" d="m99.547 39.297 25.601 43.59-39.253.656Zm0 0"/><path fill="#797549" d="m99.547 39.297 50.363 12.52-24.762 31.07Zm0 0"/><path fill="#757247" d="m149.91 51.816-1.07 25.43-23.692 5.64Zm0 0"/><path fill="#727045" d="m301.59 81.305-36.668-10.653 9.176-38.8Zm0 0"/><path fill="#212215" d="m227.676 59.344-6.176-6.985 24.91 3.88Zm0 0"/><path fill="#737045" d="m259.797 130.656-30.492-19.898 36.394-10.711Zm0 0"/><path fill="#737145" d="m229.305 110.758 12.687-27.988 23.707 17.277Zm0 0"/><path fill="#c1b973" d="m168.64 194.453-.433-13.191 10.64-.371Zm0 0"/><path fill="#ded684" d="m198.68 180.246-18.856 26.234-.976-25.59ZM206.484 152.91l-25.402 8.7 2.64-24.153Zm0 0"/><path fill="#ded684" d="m198.68 180.246-17.598-18.637 25.402-8.699Zm0 0"/><path fill="#706e44" d="m301.59 81.305-9.582 42.453-26.309-23.711Zm0 0"/><path fill="#726f45" d="M323.906 46.172 301.59 81.305l-27.492-49.453Zm0 0"/><path fill="#757347" d="m85.895 83.543-4.86 39.484-35.484-21.05Zm0 0"/><path fill="#747246" d="m81.035 123.027 4.86-39.484 25.968 22.89Zm0 0"/><path fill="#ded684" d="m200.137 97.281-14.274-15.219 15.59 1.758ZM234.5 145.004l-24.426-26.555 19.23-7.691Zm0 0"/><path fill="#9c8b59" d="m175.11 236.23-13.798 7.153-3.832-9.16Zm0 0"/><path fill="#a1915d" d="m150.414 239.371 10.899 4.012-7.817 7.52Zm0 0"/><path fill="#777448" d="m133.441 262.2.079 17.093-20.805-14.371Zm0 0"/><path fill="#787549" d="m129.773 241.07-17.058 23.852-10.996-26.074Zm0 0"/><path fill="#787548" d="m133.441 262.2-20.726 2.722 17.058-23.852Zm0 0"/><path fill="#7a774a" d="m186.496 290-8.672-7.512 16.328-2.886Zm0 0"/><path fill="#a1975f" d="m152.344 258.996 22.324.203-20.414 16.54Zm0 0"/><path fill="#aaa064" d="m174.668 259.2-22.324-.204 1.152-8.094Zm0 0"/><path fill="#202215" d="m145.61 225.04 19.23-5.458-7.36 14.64ZM164.84 219.582l-19.23 5.457 7.984-19.195Zm0 0"/><path fill="#b29e65" d="m164.84 219.582 10.27 16.648-17.63-2.007Zm0 0"/><path fill="#c4b973" d="m175.11 236.23-10.27-16.648 14.984-13.102Zm0 0"/><path fill="#c2b973" d="m164.84 219.582 2.539-13.676 12.445.574Zm0 0"/><path fill="#202215" d="m167.379 205.906-2.54 13.676-11.245-13.738Zm0 0"/><path fill="#bcb470" d="m167.379 205.906 1.262-11.453 11.183 12.027Zm0 0"/><path fill="#767447" d="m125.54 183.934-29.966 11.648-3.492-33.008Zm0 0"/><path fill="#777448" d="m109.863 211.621 15.676-27.687 1.93 24.421Zm0 0"/><path fill="#767347" d="m109.863 211.621-14.289-16.039 29.965-11.648Zm0 0"/><path fill="#747246" d="m65.117 240.344-3.203-42.055 26.133 18.426Zm0 0"/><path fill="#767447" d="m27.336 193.04 34.578 5.25-30.223 26.46Zm0 0"/><path fill="#767347" d="m61.914 198.29 3.203 42.054-33.426-15.594Zm0 0"/><path fill="#777548" d="m31.691 224.75 33.426 15.594L36.63 257.28Zm0 0"/><path fill="#ccb474" d="m26.637 318.285 4.68 22.527-31.313 1.493Zm0 0"/><path fill="#c5ad70" d="m16.047 310.973 10.59 7.312-26.633 24.02Zm0 0"/><path fill="#797649" d="m23.48 284.035 13.149-26.754 20.906 19.059Zm0 0"/><path fill="#4c482d" d="m.004 342.305 32.34 20.597L0 384Zm0 0"/><path fill="#c8ad70" d="m31.316 340.813-4.68-22.528 24.477 19.48Zm0 0"/><path fill="#7a7549" d="m129.582 383.988-28.824.012 21.613-26.816Zm0 0"/><path fill="#7e7449" d="M77.09 362.328 100.758 384l-33.856-.004Zm0 0"/><path fill="#d7c97e" d="m137.82 342.207 10.86-16.766-.274 17.68Zm0 0"/><path fill="#d2bc78" d="m170.059 320.852-21.38 4.59 11.473-10.813Zm0 0"/><path fill="#d6c67d" d="m148.68 325.441 21.379-4.59 2.328 12.712Zm0 0"/><path fill="#d3be79" d="m230.344 336.727-2.578-21.149 27.27 10.074Zm0 0"/><path fill="#d3bd79" d="m204.953 317.879 22.813-2.3 2.578 21.148Zm0 0"/><path fill="#767347" d="m239.188 288.164 1.527 8.813-16.395-.704Zm0 0"/><path fill="#cbad71" d="m227.766 315.578 12.949-18.601 14.32 28.675Zm0 0"/><path fill="#757247" d="m239.188 288.164 35.976 4.613-34.45 4.2Zm0 0"/><path fill="#767347" d="m275.164 292.777-35.976-4.613L242 268.848Zm0 0"/><path fill="#747246" d="M263.016 244.527 242 268.847l-18.246-26.292Zm0 0"/><path fill="#777347" d="m242 268.848-31.676 6.172 13.43-32.465Zm0 0"/><path fill="#767447" d="m239.188 288.164-15.731-3.3L242 268.847Zm0 0"/><path fill="#767447" d="m223.457 284.863-13.133-9.843L242 268.848Zm0 0"/><path fill="#777548" d="m223.457 284.863 15.73 3.301-14.867 8.11Zm0 0"/><path fill="#585736" d="m176.71 363.965-5.304 20.043-14.719-16.098Zm0 0"/><path fill="#575635" d="m159.27 354.156 17.44 9.809-20.023 3.945Zm0 0"/><path fill="#575535" d="m172.387 333.563 4.324 30.402-17.441-9.809Zm0 0"/><path fill="#c4b773" d="m147.273 358.7 9.415 9.21-27.106 16.078Zm0 0"/><path fill="#595736" d="m156.688 367.91-9.415-9.21 11.997-4.544Zm0 0"/><path fill="#d9d081" d="m147.273 358.7-17.691 25.288-7.21-26.804Zm0 0"/><path fill="#202215" d="m117.863 293.844 8.02 13.308-8.992 1.13Zm0 0"/><path fill="#777548" d="m133.52 279.293-20.829 8.7.024-23.071Zm0 0"/><path fill="#787548" d="m133.52 279.293-15.657 14.55-5.172-5.85Zm0 0"/><path fill="#d9cb7f" d="m383.992 347.95-13.015-38.981 13.007-15.074Zm0 0"/><path fill="#ded684" d="m255.035 325.652 40.574 13.805-39.386 13.887Zm0 0"/><path fill="#dcd182" d="m323.54 332.363-7.169 30.485-20.762-23.391Zm0 0"/><path fill="#d9cb7f" d="m316.371 362.848 7.168-30.485 23.027 24.04Zm0 0"/><path fill="#ddd383" d="m307.734 294.363 15.805 38-27.93 7.094Zm0 0"/><path fill="#747146" d="M344.867 239.883 384 236.949l-29.262 52.567Zm0 0"/><path fill="#ded584" d="m256.223 353.344 20.199 30.66-46.067-.027Zm0 0"/><path fill="#ddd483" d="m230.555 355.93 25.668-2.586-25.868 30.633Zm0 0"/><path fill="#d3be79" d="m188.656 307.188.942 7.523-8.489-.531Zm0 0"/><path fill="#dcd383" d="m230.555 355.93-.2 28.047-11.785-21.43Zm0 0"/><path fill="#585635" d="m218.57 362.547-18.34-3.797 11.008-12.129Zm0 0"/><path fill="#555333" d="M211.238 346.621 200.23 358.75l-27.843-25.187Zm0 0"/><path fill="#535233" d="m200.23 358.75-23.52 5.215-4.323-30.402Zm0 0"/><path fill="#767447" d="m148.84 77.246 2.808 17.492-26.5-11.851Zm0 0"/><path fill="#767347" d="m227.031 33.434 47.067-1.582-27.688 24.386Zm0 0"/><path fill="#767247" d="m274.098 31.852-9.176 38.8-18.512-14.414Zm0 0"/><path fill="#747146" d="m218.418-.004 55.68 31.856-47.067 1.582Zm0 0"/><path fill="#737146" d="m264.922 70.652 36.668 10.653-35.89 18.742Zm0 0"/><path fill="#757247" d="m241.992 82.77 22.93-12.118.777 29.395Zm0 0"/><path fill="#767347" d="m246.41 56.238 18.512 14.414-22.93 12.118Zm0 0"/><path fill="#202215" d="m210.094 75.152-7.192 3 2.602-18.738ZM192.79 62.496l-14.36-5.434 4.988-4.066ZM195.21 46.375l-2.42 16.121-9.372-9.5Zm0 0"/><path fill="#202215" d="m192.79 62.496 2.42-16.121 10.294 13.04Zm0 0"/><path fill="#202215" d="M202.902 78.152 192.79 62.496l12.715-3.082Zm0 0"/><path fill="#ded684" d="m178.43 57.063 7.984 21.886-17.152-11.297ZM185.863 82.063l.551-3.114 15.04 4.871Zm0 0"/><path fill="#ded684" d="m186.414 78.95 16.488-.798-1.449 5.668Zm0 0"/><path fill="#202215" d="m192.79 62.496-6.376 16.453-7.984-21.886Zm0 0"/><path fill="#202215" d="m186.414 78.95 6.375-16.454 10.113 15.656Zm0 0"/><path fill="#767347" d="M227.031 33.434 221.5 52.359l-26.29-5.984Zm0 0"/><path fill="#8c3938" d="m227.676 59.344-22.172.07L221.5 52.36Zm0 0"/><path fill="#202215" d="m221.5 52.36-15.996 7.054-10.293-13.039ZM210.094 75.152l-4.59-15.738 22.172-.07Zm0 0"/><path fill="#ded684" d="m178.848 180.89 2.234-19.28 17.598 18.636Zm0 0"/><path fill="#202215" d="m148.754 190.84 19.453-9.578.434 13.191ZM153.594 205.844l-4.84-15.004 19.887 3.613Zm0 0"/><path fill="#ded684" d="m231.172 173.629-32.492 6.617 7.804-27.336ZM198.68 180.246l13.129 22.637-31.985 3.597Zm0 0"/><path fill="#ded684" d="m198.68 180.246 32.492-6.617-19.363 29.254ZM206.484 152.91l3.59-34.46 24.426 26.554Zm0 0"/><path fill="#ded684" d="m210.074 118.45-3.59 34.46-22.761-15.453Zm0 0"/><path fill="#787548" d="M256.871 161.281 234.5 145.004l25.297-14.348Zm0 0"/><path fill="#757347" d="m229.305 110.758-10.567-23.84 23.254-4.148Zm0 0"/><path fill="#747046" d="M323.906 46.172 289.453 0H384Zm0 0"/><path fill="#767347" d="m115.691 127.328-34.656-4.3 30.828-16.594Zm0 0"/><path fill="#757347" d="m81.035 123.027-37.93 29.157 2.446-50.207Zm0 0"/><path fill="#767447" d="m43.105 152.184 18.81 46.105-34.58-5.25Zm0 0"/><path fill="#ded684" d="m200.137 97.281-21.758-4.523 7.484-10.695ZM188.7 111.262l21.374 7.187-26.351 19.008Zm0 0"/><path fill="#9a8a58" d="m161.313 243.383-10.899-4.012 7.066-5.148Zm0 0"/><path fill="#202215" d="m150.414 239.371-4.805-14.332 11.871 9.184Zm0 0"/><path fill="#ddd483" d="m193.84 237.18-18.73-.95 4.714-29.75Zm0 0"/><path fill="#ddd483" d="m174.668 259.2 19.172-22.02 8.512 15.82Zm0 0"/><path fill="#202215" d="m152.344 258.996-8.48 13.86-10.423-10.657ZM133.52 279.293l10.343-6.438 2.485 12.45Zm0 0"/><path fill="#202215" d="m143.863 272.855 10.39 2.883-7.905 9.567Zm0 0"/><path fill="#202215" d="m143.863 272.855 8.48-13.859 1.91 16.742ZM133.441 262.2l10.422 10.655-10.343 6.438Zm0 0"/><path fill="#202215" d="m144.918 250.547 7.426 8.45-18.903 3.202Zm0 0"/><path fill="#202215" d="m144.918 250.547-11.477 11.652-3.668-21.129Zm0 0"/><path fill="#202215" d="m150.414 239.371-5.496 11.176-15.145-9.477ZM144.918 250.547l5.496-11.176 3.082 11.531Zm0 0"/><path fill="#202215" d="m152.344 258.996-7.426-8.45 8.578.356ZM145.61 225.04l4.804 14.331-20.64 1.7ZM127.469 208.355l18.14 16.684-18.234 1.899Zm0 0"/><path fill="#202215" d="m145.61 225.04-18.141-16.685 26.125-2.511Zm0 0"/><path fill="#202215" d="m148.754 190.84-21.285 17.515-1.93-24.421Zm0 0"/><path fill="#202215" d="m127.469 208.355 21.285-17.515 4.84 15.004ZM167.379 205.906l-13.785-.062 15.047-11.39Zm0 0"/><path fill="#777448" d="m95.574 195.582-33.66 2.707 30.168-35.715Zm0 0"/><path fill="#757347" d="m61.914 198.29 33.66-2.708-7.527 21.133ZM65.117 240.344l36.602-1.496-16.168 30.82Zm0 0"/><path fill="#787548" d="m101.719 238.848 10.996 26.074-27.164 4.746Zm0 0"/><path fill="#202215" d="m147.48 174.176 1.274 16.664-23.215-6.906Zm0 0"/><path fill="#202215" d="m148.754 190.84-1.274-16.664 20.727 7.086Zm0 0"/><path fill="#797649" d="m136.2 130.36-7.095 25.968-13.414-29Zm0 0"/><path fill="#787548" d="M23.48 284.035 0 256.691l36.629.59Zm0 0"/><path fill="#797649" d="m0 256.691 23.48 27.344L0 307.898Zm0 0"/><path fill="#777448" d="M31.691 224.75 0 256.691v-47.308Zm0 0"/><path fill="#c7ae70" d="m26.637 318.285 12.96-11.633 11.516 31.114Zm0 0"/><path fill="#797549" d="m23.48 284.035 2.036 24.55-9.47 2.388Zm0 0"/><path fill="#4d482e" d="M32.344 362.902 30.87 384H0Zm0 0"/><path fill="#595134" d="M32.344 362.902.004 342.305l31.312-1.493Zm0 0"/><path fill="#7b7148" d="m77.09 362.328-44.746.574 18.77-25.136Zm0 0"/><path fill="#7e6f48" d="m32.344 362.902-1.028-22.09 19.797-3.046Zm0 0"/><path fill="#7b7248" d="m30.871 384 1.473-21.098 34.558 21.094Zm0 0"/><path fill="#d3be79" d="M99.586 313.148 83.89 333.45l-2.614-26.781Zm0 0"/><path fill="#7b7248" d="m122.371 357.184-45.281 5.144 6.8-28.879Zm0 0"/><path fill="#7c7449" d="m77.09 362.328 45.281-5.144L100.758 384Zm0 0"/><path fill="#c49e6a" d="m125.883 307.152-.024 4.641-8.968-3.512Zm0 0"/><path fill="#ccae72" d="m148.234 315.457 7.133-8 4.785 7.172Zm0 0"/><path fill="#caab70" d="m155.367 307.457-7.133 8-10.187-9.379Zm0 0"/><path fill="#cbad71" d="m148.68 325.441-.446-9.984 11.918-.828Zm0 0"/><path fill="#d7c77d" d="m189.598 314.71-2.344 9.185-6.145-9.715Zm0 0"/><path fill="#d8c87e" d="m187.254 323.895-17.195-3.043 11.05-6.672Zm0 0"/><path fill="#d5c47c" d="m170.059 320.852 17.195 3.043-14.867 9.668Zm0 0"/><path fill="#d7c77d" d="m187.254 323.895 2.344-9.184 15.355 3.168ZM211.238 346.621l-23.984-22.726 17.7-6.016Zm0 0"/><path fill="#d7c87d" d="m187.254 323.895 23.984 22.726-38.851-13.058Zm0 0"/><path fill="#2e2f1d" d="m186.496 290 8.777-1.84-2.726 8.211Zm0 0"/><path fill="#777448" d="m195.273 288.16-8.777 1.84 7.656-10.398Zm0 0"/><path fill="#ded684" d="m210.324 275.02-35.656-15.82 27.684-6.2Zm0 0"/><path fill="#555434" d="m176.71 363.965 22.86 20.039-28.164.004Zm0 0"/><path fill="#555434" d="m200.23 358.75-.66 25.254-22.86-20.04Zm0 0"/><path fill="#585635" d="m230.355 383.977-30.785.027 19-21.457Zm0 0"/><path fill="#565434" d="m199.57 384.004.66-25.254 18.34 3.797Zm0 0"/><path fill="#d0b776" d="m155.367 307.457 5.688-.727-.903 7.899Zm0 0"/><path fill="#202215" d="m161.055 306.73-5.688.727 1.563-8.434ZM155.367 307.457l-5.11-9.73 6.673 1.296ZM150.258 297.727l5.625-9.57 1.047 10.866ZM155.883 288.156l-5.625 9.57-3.91-12.421Zm0 0"/><path fill="#3c281e" d="m150.258 297.727 5.11 9.73-17.321-1.379Zm0 0"/><path fill="#ba8a60" d="m131.656 307.773-5.797 4.02.024-4.64Zm0 0"/><path fill="#524e31" d="m350.316 383.953-40.035.067 6.09-21.172Zm0 0"/><path fill="#dcd182" d="m310.281 384.02-17.383-22.114 23.473.942Zm0 0"/><path fill="#ddd483" d="m316.371 362.848-23.473-.942 2.711-22.449Zm0 0"/><path fill="#c6b974" d="m350.316 383.953 15.875-31.851 17.84 31.886Zm0 0"/><path fill="#dbd081" d="m366.191 352.102 17.801-4.153.04 36.04Zm0 0"/><path fill="#ddd383" d="m284.387 311.738 23.347-17.375-12.125 45.094Zm0 0"/><path fill="#d8c87e" d="m307.734 294.363-23.347 17.375-9.223-18.96Zm0 0"/><path fill="#c7a56d" d="m284.387 311.738-29.352 13.914-14.32-28.675Zm0 0"/><path fill="#ded584" d="m284.387 311.738 11.222 27.719-40.574-13.805Zm0 0"/><path fill="#d7c67d" d="m275.164 292.777 9.223 18.961-43.672-14.761Zm0 0"/><path fill="#d3bd79" d="m179.586 307.453 9.07-.265-7.547 6.992Zm0 0"/><path fill="#777448" d="m125.148 82.887 17.368 31.91-30.653-8.363Zm0 0"/><path fill="#767347" d="m151.648 94.738-9.132 20.059-17.368-31.91Zm0 0"/><path fill="#202215" d="m142.516 114.797 9.132-20.059 7.528 10.696Zm0 0"/><path fill="#757247" d="m161.73 84.2-10.082 10.538-2.808-17.492Zm0 0"/><path fill="#767347" d="M218.418-.004 289.453 0l-15.355 31.852Zm0 0"/><path fill="#726f45" d="m289.453 0 34.453 46.172-49.808-14.32Zm0 0"/><path fill="#272417" d="m183.418 52.996-15.137 8.496 26.93-15.117Zm0 0"/><path fill="#7b7549" d="m195.21 46.375-26.929 15.117-18.37-9.676Zm0 0"/><path fill="#202215" d="m178.43 57.063-10.149 4.43 15.137-8.497Zm0 0"/><path fill="#202215" d="m168.281 61.492 10.149-4.43-9.168 10.59Zm0 0"/><path fill="#797649" d="M162.594 67.898 161.73 84.2l-12.89-6.953ZM162.594 67.898l-13.754 9.348 1.07-25.43Zm0 0"/><path fill="#797549" d="m168.281 61.492-5.687 6.406-12.684-16.082Zm0 0"/><path fill="#757246" d="m162.594 67.898 5.687-6.406.98 6.16Zm0 0"/><path fill="#d1c67b" d="m160.48 150.293 23.243-12.836-2.641 24.152Zm0 0"/><path fill="#d9cd80" d="m171.48 116.375.461-6.902 2.746 7.496Zm0 0"/><path fill="#202215" d="m161.227 114.742 10.253 1.633-1.968 7.035ZM161.227 114.742l-18.711.055 16.66-9.363Zm0 0"/><path fill="#202215" d="m171.941 109.473-10.714 5.27-2.051-9.31Zm0 0"/><path fill="#202215" d="m161.227 114.742 10.714-5.27-.46 6.903Zm0 0"/><path fill="#ded684" d="m231.172 173.629-24.688-20.719 28.016-7.906Zm0 0"/><path fill="#777447" d="m231.172 173.629 3.328-28.625 22.371 16.277Zm0 0"/><path fill="#7a7248" d="m227.676 59.344 18.734-3.106-4.418 26.532Zm0 0"/><path fill="#797649" d="m218.738 86.918 8.938-27.574 14.316 23.426Zm0 0"/><path fill="#ded684" d="m202.902 78.152 9.344 3.254-10.793 2.414Zm0 0"/><path fill="#ded685" d="m212.246 81.406-12.11 15.875 1.317-13.46Zm0 0"/><path fill="#202215" d="m212.246 81.406-9.344-3.254 7.192-3Zm0 0"/><path fill="#7d754a" d="m227.676 59.344-15.43 22.062-2.152-6.254Zm0 0"/><path fill="#747146" d="m234.5 145.004-5.195-34.246 30.492 19.898Zm0 0"/><path fill="#757246" d="M384 0v78.168l-30.812.48Zm0 0"/><path fill="#767347" d="M323.906 46.172 384 0l-30.812 78.648Zm0 0"/><path fill="#747146" d="m323.906 46.172 29.281 32.476-51.597 2.657Zm0 0"/><path fill="#787548" d="m92.082 162.574 23.61-35.246 13.413 29Zm0 0"/><path fill="#767447" d="m43.105 152.184 48.977 10.39-30.168 35.715Zm0 0"/><path fill="#777448" d="m115.691 127.328-23.609 35.246-11.047-39.547Zm0 0"/><path fill="#767447" d="m92.082 162.574-48.977-10.39 37.93-29.157Zm0 0"/><path fill="#202215" d="m178.379 92.758 1.453-10.188 6.031-.507Zm0 0"/><path fill="#ded684" d="m186.414 78.95-6.582 3.62-10.57-14.918Zm0 0"/><path fill="#ded684" d="m179.832 82.57 6.582-3.62-.55 3.112ZM210.074 118.45l8.664-31.532 10.567 23.84Zm0 0"/><path fill="#dfd785" d="m218.738 86.918-8.664 31.531-9.937-21.168Zm0 0"/><path fill="#ded684" d="m210.074 118.45-21.375-7.188 11.438-13.98Zm0 0"/><path fill="#ded684" d="m188.7 111.262-10.321-18.504 21.758 4.523Zm0 0"/><path fill="#cfc57a" d="m166.07 280.547 8.598-21.348 3.156 23.29Zm0 0"/><path fill="#bfb470" d="m174.668 259.2-8.598 21.347-11.816-4.809Zm0 0"/><path fill="#cdc57a" d="m155.883 288.156 9.031 6.344-7.984 4.523Zm0 0"/><path fill="#d8cd7f" d="m164.914 294.5-3.86 12.23-4.124-7.707Zm0 0"/><path fill="#b1a568" d="m161.313 243.383 13.355 15.816-21.172-8.297Zm0 0"/><path fill="#b4a568" d="m174.668 259.2-13.356-15.817 13.797-7.153Zm0 0"/><path fill="#ded684" d="m193.84 237.18-19.172 22.02.441-22.97Zm0 0"/><path fill="#767447" d="m88.047 216.715 13.672 22.133-36.602 1.496Zm0 0"/><path fill="#767347" d="m109.863 211.621-21.816 5.094 7.527-21.133Zm0 0"/><path fill="#202215" d="m147.48 174.176 19.364-4.262 1.363 11.348Zm0 0"/><path fill="#c1b973" d="m178.848 180.89-12.004-10.976 14.238-8.305Zm0 0"/><path fill="#cac178" d="m166.844 169.914 12.004 10.977-10.641.37Zm0 0"/><path fill="#202215" d="m166.844 169.914-19.364 4.262 3.875-16.352Zm0 0"/><path fill="#cfc57a" d="m166.844 169.914-6.364-19.621 20.602 11.316Zm0 0"/><path fill="#202215" d="m160.48 150.293 6.364 19.621-15.489-12.09ZM147.48 174.176l-18.375-17.848 22.25 1.496ZM129.105 156.328l18.375 17.848-21.94 9.758Zm0 0"/><path fill="#777548" d="m31.691 224.75 4.938 32.531L0 256.691Zm0 0"/><path fill="#ccb373" d="m61.066 304.156 22.825 29.293-32.778 4.317Zm0 0"/><path fill="#c5ab6f" d="m39.598 306.652 21.468-2.496-9.953 33.61Zm0 0"/><path fill="#aa9d63" d="m39.598 306.652-12.961 11.633-1.121-9.7Zm0 0"/><path fill="#cdb474" d="m61.066 304.156 20.211 2.512 2.614 26.781Zm0 0"/><path fill="#7a7649" d="m81.277 306.668 4.274-37 14.027 18.602Zm0 0"/><path fill="#787548" d="m39.598 306.652-14.082 1.934-2.036-24.55ZM39.598 306.652 23.48 284.035l34.055-7.695Zm0 0"/><path fill="#777448" d="m65.117 240.344-7.582 35.996L36.63 257.28Zm0 0"/><path fill="#797649" d="M81.277 306.668 57.535 276.34l28.016-6.672Zm0 0"/><path fill="#787548" d="m57.535 276.34 23.742 30.328-20.21-2.512Zm0 0"/><path fill="#777448" d="m85.55 269.668-28.015 6.672 7.582-35.996Zm0 0"/><path fill="#7c7349" d="m32.344 362.902 44.746-.574-10.188 21.668Zm0 0"/><path fill="#ded684" d="m119.191 333.34 18.63 8.867-15.45 14.977Zm0 0"/><path fill="#cfb575" d="m99.586 313.148 19.605 20.192-35.3.11Zm0 0"/><path fill="#7c7549" d="m119.191 333.34 3.18 23.844-38.48-23.735Zm0 0"/><path fill="#d0ba77" d="m119.191 333.34-11.609-24.871 9.309-.188Zm0 0"/><path fill="#d0b776" d="m125.86 311.793-6.669 21.547-2.3-25.059Zm0 0"/><path fill="#d2bd78" d="m99.586 313.148 7.996-4.68 11.61 24.872Zm0 0"/><path fill="#c7a86e" d="m107.582 308.469-7.996 4.68 2.27-8.364Zm0 0"/><path fill="#777448" d="m117.863 293.844-8.074 6.492 2.902-12.344Zm0 0"/><path fill="#928a56" d="m109.79 300.336-2.208 8.133-5.727-3.684Zm0 0"/><path fill="#202215" d="m109.79 300.336 8.073-6.492-.972 14.437ZM107.582 308.469l2.207-8.133 7.102 7.945Zm0 0"/><path fill="#777448" d="m109.79 300.336-7.935 4.45-2.277-16.516Zm0 0"/><path fill="#777448" d="m112.691 287.992-2.902 12.344-10.21-12.066Zm0 0"/><path fill="#c9aa6f" d="m138.922 325.383 9.312-9.926.446 9.984Zm0 0"/><path fill="#cdb173" d="m138.922 325.383-19.73 7.957 6.667-21.547Zm0 0"/><path fill="#cbad71" d="m148.234 315.457-9.312 9.926-.875-19.305Zm0 0"/><path fill="#d8c87e" d="m138.922 325.383 9.758.058-10.86 16.766Zm0 0"/><path fill="#ded584" d="m119.191 333.34 19.73-7.957-1.1 16.824Zm0 0"/><path fill="#cbad71" d="m138.922 325.383-7.266-17.61 6.39-1.695ZM131.656 307.773l7.266 17.61-13.063-13.59Zm0 0"/><path fill="#202215" d="m217.02 303.457-4.094-12.797 11.394 5.613Zm0 0"/><path fill="#777448" d="m212.926 290.66 10.531-5.797.863 11.41Zm0 0"/><path fill="#c9a86f" d="m217.02 303.457 10.746 12.121-17.067-6.84Zm0 0"/><path fill="#cdb173" d="m227.766 315.578-22.813 2.3 5.746-9.14Zm0 0"/><path fill="#d7c97e" d="m240.715 296.977-14.024 5.086-2.37-5.79Zm0 0"/><path fill="#202215" d="m226.691 302.063-9.671 1.394 7.3-7.184Zm0 0"/><path fill="#ccb072" d="m226.691 302.063 14.024-5.086-12.95 18.601Zm0 0"/><path fill="#ccaf72" d="m226.691 302.063 1.075 13.515-10.746-12.121Zm0 0"/><path fill="#787548" d="m212.926 290.66-2.602-15.64 13.133 9.843Zm0 0"/><path fill="#d0b876" d="m188.656 307.188 6 .824-5.058 6.699Zm0 0"/><path fill="#cfb675" d="m194.656 308.012 10.297 9.867-15.355-3.168Zm0 0"/><path fill="#ded684" d="m292.898 361.906-36.675-8.562 39.386-13.887Zm0 0"/><path fill="#6a5a3b" d="m350.316 383.953-3.75-27.55 19.625-4.301Zm0 0"/><path fill="#9e8858" d="m346.566 356.402 3.75 27.551-33.945-21.105Zm0 0"/><path fill="#ccaf72" d="m323.54 332.363-15.806-38 17.82-1.285Zm0 0"/><path fill="#dacd80" d="m354.738 289.516-4.59 19.718-24.593-16.156Zm0 0"/><path fill="#d9ca7f" d="m350.148 309.234-26.609 23.13 2.016-39.286Zm0 0"/><path fill="#b57e5b" d="m383.992 347.95-22.984-10.321 9.969-28.66Zm0 0"/><path fill="#dcd182" d="m169.738 298.262-4.824-3.762 6.07-2.645Zm0 0"/><path fill="#dbcf81" d="m164.914 294.5 4.824 3.762-8.683 8.468Zm0 0"/><path fill="#a29c61" d="m178.547 294.664-.723-12.176 8.672 7.512Zm0 0"/><path fill="#ddd383" d="m177.824 282.488.723 12.176-7.563-2.809Zm0 0"/><path fill="#d9cb7f" d="m178.547 294.664-8.809 3.598 1.246-6.407Zm0 0"/><path fill="#202215" d="m169.738 298.262 8.809-3.598 1.039 12.79Zm0 0"/><path fill="#dad081" d="m171.48 116.375 3.208.594-5.176 6.441ZM174.688 116.969l-2.868 7.672-2.308-1.23Zm0 0"/><path fill="#ded684" d="m174.688 116.969 14.011-5.707-4.976 26.195Zm0 0"/><path fill="#dacd80" d="m171.82 124.64 2.868-7.671 9.035 20.488Zm0 0"/><path fill="#d9cb7f" d="m165.113 136.945 6.707-12.304 11.903 12.816Zm0 0"/><path fill="#d3c67c" d="m160.48 150.293 4.633-13.348 18.61.512Zm0 0"/><path fill="#d9cd80" d="m171.82 124.64-6.707 12.305 4.399-13.535Zm0 0"/><path fill="#202215" d="m171.941 109.473 2.672-1.391.075 8.887Zm0 0"/><path fill="#ded684" d="m174.613 108.082 14.086 3.18-14.012 5.707ZM188.7 111.262l-14.087-3.18 3.766-15.324Zm0 0"/><path fill="#202215" d="m154.684 124.293 6.543-9.55 8.285 8.667ZM161.227 114.742l-6.543 9.551-12.168-9.496Zm0 0"/><path fill="#202215" d="m154.684 124.293-18.485 6.066 6.317-15.562Zm0 0"/><path fill="#787448" d="m218.738 86.918-6.492-5.512 15.43-22.062Zm0 0"/><path fill="#ded684" d="m212.246 81.406 6.492 5.512-18.601 10.363Zm0 0"/><path fill="#202215" d="m172.855 92.258 6.977-9.688-1.453 10.188Zm0 0"/><path fill="#202215" d="m174.613 108.082-1.758-15.824 5.524.5Zm0 0"/><path fill="#aca566" d="m154.254 275.738 11.816 4.809-10.187 7.61Zm0 0"/><path fill="#202215" d="m154.254 275.738 1.629 12.418-9.535-2.851Zm0 0"/><path fill="#ddd383" d="m164.914 294.5 2.29-6.68 3.78 4.035Zm0 0"/><path fill="#dad181" d="m167.203 287.82-2.289 6.68-9.031-6.344Zm0 0"/><path fill="#dad181" d="m166.07 280.547 1.133 7.273-11.32.336Zm0 0"/><path fill="#dcd383" d="m167.203 287.82 10.621-5.332-6.84 9.367Zm0 0"/><path fill="#dbd081" d="m167.203 287.82-1.133-7.273 11.754 1.941Zm0 0"/><path fill="#202215" d="m129.773 241.07-2.398-14.132 18.234-1.899Zm0 0"/><path fill="#767447" d="m109.863 211.621 17.606-3.266-.094 18.583Zm0 0"/><path fill="#777347" d="m101.855 304.785-20.578 1.883 18.301-18.398Zm0 0"/><path fill="#777448" d="m61.066 304.156-21.468 2.496 17.937-30.312Zm0 0"/><path fill="#ded684" d="m200.852 295.602.773-5.883 4.059 2.812Zm0 0"/><path fill="#cfb575" d="m209.59 303.54 7.43-.083-6.32 5.281Zm0 0"/><path fill="#202215" d="m209.59 303.54-8.738-7.938 4.832-3.07Zm0 0"/><path fill="#202215" d="m212.926 290.66-3.336 12.88-3.906-11.009ZM209.59 303.54l3.336-12.88 4.094 12.797Zm0 0"/><path fill="#ddd483" d="m210.324 275.02-16.172 4.582-19.484-20.403Zm0 0"/><path fill="#ded684" d="m194.152 279.602-16.328 2.886-3.156-23.289Zm0 0"/><path fill="#b9875f" d="m193.547 301.96 1.11 6.052-6-.825Zm0 0"/><path fill="#202215" d="m139.703 294.219 10.555 3.508-12.211 8.351Zm0 0"/><path fill="#202215" d="m150.258 297.727-10.555-3.508 6.645-8.914Zm0 0"/><path fill="#202215" d="m139.703 294.219-6.183-14.926 12.828 6.012Zm0 0"/><path fill="#5d5837" d="m383.992 347.95-17.8 4.152-5.184-14.473Zm0 0"/><path fill="#d3c57b" d="m366.191 352.102-19.625 4.3 14.442-18.773Zm0 0"/><path fill="#d6c57c" d="m354.738 289.516 29.246 4.379-13.007 15.074Zm0 0"/><path fill="#dacc80" d="m350.148 309.234 10.86 28.395-37.469-5.266Zm0 0"/><path fill="#d2c27a" d="m361.008 337.629-14.442 18.773-23.027-24.039Zm0 0"/><path fill="#d0b776" d="m161.055 306.73 7.543 2.547-8.446 5.352Zm0 0"/><path fill="#202215" d="m169.738 298.262-1.14 11.015-7.543-2.547Zm0 0"/><path fill="#cfb775" d="m168.598 309.277 1.46 11.575-9.906-6.223Zm0 0"/><path fill="#d0b776" d="m170.059 320.852-1.461-11.575 12.511 4.903Zm0 0"/><path fill="#d3be79" d="m168.598 309.277 10.988-1.824 1.523 6.727Zm0 0"/><path fill="#202215" d="m168.598 309.277 1.14-11.015 9.848 9.191Zm0 0"/><path fill="#222215" d="m187.184 298.836-.688-8.836 6.05 6.371Zm0 0"/><path fill="#565233" d="m187.184 298.836-8.637-4.172 7.95-4.664Zm0 0"/><path fill="#202215" d="m193.547 301.96-6.363-3.124 5.363-2.465ZM187.184 298.836l6.363 3.125-4.89 5.226Zm0 0"/><path fill="#202215" d="m179.586 307.453 7.598-8.617 1.472 8.351Zm0 0"/><path fill="#202215" d="m178.547 294.664 8.637 4.172-7.598 8.617Zm0 0"/><path fill="#767447" d="m142.516 114.797-6.317 15.562-20.508-3.03Zm0 0"/><path fill="#777548" d="m142.516 114.797-26.825 12.531-3.828-20.894Zm0 0"/><path fill="#202215" d="m150.402 143.836-21.297 12.492 7.094-25.969ZM150.402 143.836l14.711-6.89-4.633 13.347ZM129.105 156.328l21.297-12.492.953 13.988Zm0 0"/><path fill="#202215" d="m150.402 143.836 10.078 6.457-9.125 7.531ZM165.113 136.945 156 130.656l13.512-7.246Zm0 0"/><path fill="#202215" d="m156 130.656-1.316-6.363 14.828-.883ZM150.402 143.836l5.598-13.18 9.113 6.29Zm0 0"/><path fill="#202215" d="m156 130.656-5.598 13.18-14.203-13.477ZM154.684 124.293l1.316 6.363-19.8-.297Zm0 0"/><path fill="#747246" d="m164.41 84-1.816-16.102 6.668-.246Zm0 0"/><path fill="#a49f62" d="M162.594 67.898 164.41 84l-2.68.2Zm0 0"/><path fill="#d9d181" d="M179.832 82.57 164.41 84l4.852-16.348Zm0 0"/><path fill="#202215" d="M172.855 92.258 164.41 84l15.422-1.43ZM164.637 96.059l9.976 12.023-2.672 1.39Zm0 0"/><path fill="#202215" d="m164.637 96.059 8.218-3.801 1.758 15.824ZM164.637 96.059l7.304 13.414-12.765-4.04Zm0 0"/><path fill="#202215" d="m151.648 94.738 12.989 1.32-5.461 9.376Zm0 0"/><path fill="#202215" d="m164.637 96.059-12.989-1.32 10.082-10.54ZM164.41 84l.227 12.059-2.907-11.86Zm0 0"/><path fill="#202215" d="M164.637 96.059 164.41 84l8.445 8.258Zm0 0"/><path fill="#777448" d="m101.719 238.848 8.144-27.227 17.512 15.316Zm0 0"/><path fill="#767447" d="m109.863 211.621-8.144 27.227-13.672-22.133Zm0 0"/><path fill="#c5aa6e" d="m99.586 313.148-18.309-6.48 20.578-1.883Zm0 0"/><path fill="#ded584" d="m201.625 289.719 3.64-2.278.419 5.09Zm0 0"/><path fill="#ddd483" d="m205.266 287.441 7.66 3.22-7.242 1.87Zm0 0"/><path fill="#7a7649" d="m205.266 287.441 5.058-12.421 2.602 15.64Zm0 0"/><path fill="#8d8955" d="m200.105 284.32-5.953-4.718 16.172-4.582Zm0 0"/><path fill="#787448" d="m200.105 284.32-4.832 3.84-1.12-8.558Zm0 0"/><path fill="#d2ca7d" d="m200.105 284.32 1.52 5.399-6.352-1.559Zm0 0"/><path fill="#ded684" d="m205.266 287.441-5.16-3.12 10.218-9.301Zm0 0"/><path fill="#ddd483" d="m200.105 284.32 5.16 3.121-3.64 2.278Zm0 0"/><path fill="#cbb875" d="m195.273 288.16 5.579 7.442-8.305.77Zm0 0"/><path fill="#202215" d="m200.852 295.602-7.305 6.359-1-5.59Zm0 0"/><path fill="#ded584" d="m201.625 289.719-.773 5.883-5.579-7.442Zm0 0"/><path fill="#ccb072" d="m199.453 304.125 10.137-.586 1.11 5.2Zm0 0"/><path fill="#202215" d="m209.59 303.54-10.137.585 1.399-8.523Zm0 0"/><path fill="#cdb173" d="m204.953 317.879-5.5-13.754 11.246 4.613Zm0 0"/><path fill="#202215" d="m200.852 295.602-1.399 8.523-5.906-2.164Zm0 0"/><path fill="#d1ba77" d="m194.656 308.012 4.797-3.887 5.5 13.754Zm0 0"/><path fill="#ad6d53" d="m193.547 301.96 5.906 2.165-4.797 3.887Zm0 0"/><path fill="#202215" d="m131.656 307.773-.8-9.851 7.19 8.156Zm0 0"/><path fill="#202215" d="m130.855 297.922 8.848-3.703-1.656 11.86ZM130.855 297.922l.801 9.851-5.773-.62ZM117.863 293.844l12.992 4.078-4.972 9.23Zm0 0"/><path fill="#c19967" d="m354.738 289.516 16.239 19.453-20.829.265Zm0 0"/><path fill="#bd9063" d="m370.977 308.969-9.97 28.66-10.859-28.395Zm0 0"/><path fill="#202215" d="m133.52 279.293-2.665 18.629-12.992-4.078Zm0 0"/><path fill="#202215" d="m130.855 297.922 2.665-18.629 6.183 14.926Zm0 0"/></svg>