<svg xmlns="http://www.w3.org/2000/svg" width="512" height="512" viewBox="0 0 384 384"><path fill="#6a6da2" d="M40.66 218.387.004 189.317l45.437-26.473Zm0 0"/><path fill="#875496" d="M53.898 59.832 68.5 110.777l-68.504 5.149ZM53.898 59.832l50.207 11.465-35.605 39.48Zm0 0"/><path fill="#686fa3" d="m234.012 169.688 20.062 18.078-24.941 23.527Zm0 0"/><path fill="#5e76a6" d="m243.387 239.27-17.7-3.7 3.446-24.277Zm0 0"/><path fill="#79609c" d="m298.207 134.95-41.648-19.59 25.5-30.942Zm0 0"/><path fill="#6571a4" d="m234.012 169.688 29.062-14.637-9 32.715Zm0 0"/><path fill="#fdfcfe" d="m306.219 294.68-19.817 19.047-10.91-19.383Zm0 0"/><path fill="#5f77a7" d="m301.281 268.465 4.938 26.215-30.727-.336Zm0 0"/><path fill="#8b5094" d="M188.844.004 143.117 52.05 102.973 0Zm0 0"/><path fill="#865496" d="m227.281 25.273-34.18 4.934L188.845.004Zm0 0"/><path fill="#8e4d93" d="M53.898 59.832-.004 62.687 0 0Zm0 0"/><path fill="#fef8f2" d="m200.191 205.52 33.82-35.833-4.878 41.606Zm0 0"/><path fill="#fef9f3" d="m225.688 235.57-25.497-30.05 28.942 5.773Zm0 0"/><path fill="#6770a3" d="M40.66 218.387 0 256.757l.004-67.44Zm0 0"/><path fill="#6175a6" d="M.004 313.23 0 256.758l21.313 40.168Zm0 0"/><path fill="#0e8da9" d="M14.707 345.93 0 359.418-.02 345Zm0 0"/><path fill="#68baca" d="M70.223 335.203 60.19 353.098 37.351 341Zm0 0"/><path fill="#7ed0d8" d="m60.191 353.098 10.032-17.895 18.882 15.004Zm0 0"/><path fill="#6075a6" d="m278.363 246.066 22.918 22.399-25.789 25.879Zm0 0"/><path fill="#6770a4" d="m278.363 246.066 13.297-55.011 37.738 32.254Zm0 0"/><path fill="#6770a3" d="m263.074 155.05 28.586 36.005-37.586-3.29Zm0 0"/><path fill="#696ea3" d="m291.66 191.055-32.762 24.07-4.824-27.36Zm0 0"/><path fill="#6373a5" d="m258.898 215.125 32.762-24.07-13.297 55.011Zm0 0"/><path fill="#6c6ba1" d="m254.074 187.766 4.824 27.359-29.765-3.832Zm0 0"/><path fill="#6571a4" d="m258.898 215.125-15.511 24.145-14.254-27.977Zm0 0"/><path fill="#6473a5" d="m278.363 246.066 51.035-22.757-28.117 45.156Zm0 0"/><path fill="#5dc7d0" d="m309.672 383.996-43.996.031 33.586-40.074Zm0 0"/><path fill="#6176a6" d="m306.219 294.68 15.488-22.766 9.848 20.035Zm0 0"/><path fill="#6472a5" d="m329.398 223.309-7.691 48.605-20.426-3.45Zm0 0"/><path fill="#6175a6" d="m321.707 271.914-15.488 22.766-4.938-26.215Zm0 0"/><path fill="#6274a5" d="m278.363 246.066-2.87 48.278-27.29-24.45Zm0 0"/><path fill="#1c99b1" d="m233.559 359.242-13.266 3.418-8.848-16.762Zm0 0"/><path fill="#825898" d="m102.973 0 1.132 71.297-50.207-11.465Zm0 0"/><path fill="#8a5195" d="M188.844.004 246.066 0l-18.785 25.273Zm0 0"/><path fill="#815898" d="m193.102 30.207-49.985 21.844L188.844.004Zm0 0"/><path fill="#6f69a0" d="m-.004 115.926 45.445 46.918L.004 189.316Zm0 0"/><path fill="#7a5f9c" d="m-.004 115.926 68.504-5.149-23.059 52.067Zm0 0"/><path fill="#8a5195" d="M53.898 59.832-.004 115.926V62.688Zm0 0"/><path fill="#904c92" d="M0 0h102.973L53.898 59.832Zm0 0"/><path fill="#d2dcd7" d="m171.672 214.805-4.688-5.852 12.215-3.683Zm0 0"/><path fill="#cfdbdb" d="m177.563 233.074-5.891-18.27 7.527-9.534Zm0 0"/><path fill="#352a55" d="m166.984 208.953-12.882-25.273 7.734-1.598Zm0 0"/><path fill="#696ea3" d="m109.39 187.715-13.023-34.621 22.02 24.965Zm0 0"/><path fill="#6472a5" d="m0 256.758 42.469 12.02-21.156 28.148Zm0 0"/><path fill="#ebf1f6" d="m.004 313.23 26.797 4.754L-.02 345Zm0 0"/><path fill="#6076a6" d="M26.8 317.984.005 313.23l21.309-16.304Zm0 0"/><path fill="#5d78a7" d="m36.457 301.074-9.656 16.91-5.488-21.058Zm0 0"/><path fill="#64baca" d="m83.578 369.105-23.387-16.007 28.914-2.891Zm0 0"/><path fill="#4caebf" d="m60.828 384.012 22.75-14.907 13.781 14.907Zm0 0"/><path fill="#b5e0e7" d="m70.223 335.203 24.359-2.164-5.477 17.168Zm0 0"/><path fill="#ecf6f9" d="m87.043 321.918 7.539 11.121-24.36 2.164Zm0 0"/><path fill="#53f9ea" d="m136.836 365.242-2.457-34.77 18.297 31.555Zm0 0"/><path fill="#4fe4de" d="m134.379 330.473 2.457 34.77-18.961.382Zm0 0"/><path fill="#098da6" d="m152.676 326.945 28.851 10.856-28.851 24.226Zm0 0"/><path fill="#6373a5" d="m258.898 215.125 19.465 30.941-34.976-6.796Zm0 0"/><path fill="#f3f6ed" d="m200.191 205.52-22.629 27.554 1.637-27.804Zm0 0"/><path fill="#fdfbfb" d="m225.688 235.57-7.508 27.09-14.883-16.95Zm0 0"/><path fill="#fbf9f4" d="m200.191 205.52 25.496 30.05-22.39 10.14Zm0 0"/><path fill="#686fa3" d="m384.004 193.457-45.192-25.652 45.192-27.075Zm0 0"/><path fill="#6770a3" d="m338.813 167.805 45.19 25.652-54.605 29.852Zm0 0"/><path fill="#6572a5" d="m291.66 191.055 47.152-23.25-9.414 55.504Zm0 0"/><path fill="#6c6ba1" d="m298.207 134.95 40.606 32.855-47.153 23.25Zm0 0"/><path fill="#75639e" d="m384.008 75.285-.004 65.445-52.281-29.156Zm0 0"/><path fill="#6e6aa0" d="m384.004 140.73-45.192 27.075-7.09-56.23Zm0 0"/><path fill="#aee9eb" d="m145.684 384.004 6.992-21.977 20.14 21.953Zm0 0"/><path fill="#5d78a7" d="m104.777 270.848 5.73 20.23-12.804.184Zm0 0"/><path fill="#5c79a8" d="m354.43 269.324-22.875 22.625-9.848-20.035Zm0 0"/><path fill="#fbfbfd" d="m313.348 307.2-7.13-12.52 25.337-2.73Zm0 0"/><path fill="#f8fafc" d="m306.219 294.68 7.129 12.52-26.946 6.527Zm0 0"/><path fill="#5e77a7" d="m354.43 269.324 29.566-21.52.035 45.665Zm0 0"/><path fill="#6075a6" d="m329.398 223.309 25.032 46.015-32.723 2.59Zm0 0"/><path fill="#7068a0" d="m298.207 134.95-35.133 20.1-6.515-39.69Zm0 0"/><path fill="#6e69a0" d="m298.207 134.95-6.547 56.105-28.586-36.004Zm0 0"/><path fill="#62c2ce" d="m265.676 384.027-11.168-33.347 44.754-6.727Zm0 0"/><path fill="#cff1f3" d="m233.559 359.242 15.382-29.222 5.567 20.66Zm0 0"/><path fill="#44c2cb" d="m248.941 330.02 20.094-7.715-14.527 28.375Zm0 0"/><path fill="#effafc" d="m248.941 330.02-15.382 29.222-22.114-13.344Zm0 0"/><path fill="#cbfbf8" d="m211.445 345.898-29.918-8.097 16.25-15.059Zm0 0"/><path fill="#8b5095" d="M104.105 71.297 102.973 0l40.144 52.05Zm0 0"/><path fill="#875396" d="m246.066 0 21.188 32.934-39.973-7.66Zm0 0"/><path fill="#7a5f9c" d="m256.559 115.36-15.664-31.067 41.164.125Zm0 0"/><path fill="#c7d8da" d="m166.984 208.953-.066-27.82 12.281 24.137Zm0 0"/><path fill="#363259" d="m166.918 181.133.066 27.82-5.148-26.871Zm0 0"/><path fill="#fdf9f5" d="m200.191 205.52 9.239-61.23 24.582 25.398Zm0 0"/><path fill="#7b5e9b" d="m331.723 111.574-33.516 23.375-16.148-50.531Zm0 0"/><path fill="#6b6ca2" d="m298.207 134.95 33.516-23.376 7.09 56.23Zm0 0"/><path fill="#835798" d="M322.496 52.117 282.06 84.418l-14.805-51.484Zm0 0"/><path fill="#d0dfe0" d="m177.563 233.074-17.848 10.02-.492-10.617Zm0 0"/><path fill="#557eaa" d="m122.793 261.875 2.437 12.559-20.453-3.586Zm0 0"/><path fill="#5e77a7" d="m122.793 261.875-18.016 8.973 6.703-30.602Zm0 0"/><path fill="#cdc89e" d="m178.98 292.805-2.445-11.176 11.797 1.992Zm0 0"/><path fill="#352a55" d="m144.156 259.73-11.215.313 17.313-15.758Zm0 0"/><path fill="#eff3f4" d="m151.543 264.613 18.473.032-17.485 11.093Zm0 0"/><path fill="#567da9" d="m129.613 249.035 3.328 11.008-10.148 1.832Zm0 0"/><path fill="#5e78a7" d="m111.48 240.246 18.133 8.79-6.82 12.839Zm0 0"/><path fill="#342a55" d="m132.941 260.043-3.328-11.008 20.64-4.75Zm0 0"/><path fill="#352a55" d="m152.156 220.781 13.086-2.586-6.02 14.282ZM165.242 218.195l-13.086 2.586 5.91-10.21Zm0 0"/><path fill="#c3d6d8" d="m165.242 218.195 12.32 14.88-18.34-.598Zm0 0"/><path fill="#ccdbdb" d="m177.563 233.074-12.32-14.879 6.429-3.39Zm0 0"/><path fill="#ccd8da" d="m165.242 218.195 1.742-9.242 4.688 5.852Zm0 0"/><path fill="#352a55" d="m166.984 208.953-1.742 9.242-7.176-7.625Zm0 0"/><path fill="#342a55" d="m158.066 210.57-3.964-26.89 12.882 25.273Zm0 0"/><path fill="#686fa3" d="m109.39 187.715 8.997-9.656 7.707 8.504ZM40.66 218.387l38.168-22.496-1.707 44.824Zm0 0"/><path fill="#6d6ba1" d="M78.828 195.89 40.66 218.388l4.781-55.543Zm0 0"/><path fill="#6e69a0" d="m96.367 153.094 31.285 19.195-9.265 5.77Zm0 0"/><path fill="#6f69a0" d="m96.367 153.094 22.719-27.211 13.71 16.898Zm0 0"/><path fill="#6a6da2" d="m127.652 172.29-31.285-19.196 36.43-10.313Zm0 0"/><path fill="#5c78a7" d="m127.652 172.29-1.558 14.273-7.707-8.504Zm0 0"/><path fill="#eff6f9" d="M28.445 328.164 14.707 345.93-.02 345Zm0 0"/><path fill="#f0f7fa" d="m26.8 317.984 1.645 10.18L-.02 345Zm0 0"/><path fill="#108ba8" d="m0 359.418 29 .922L0 384Zm0 0"/><path fill="#f4f8fb" d="M28.445 328.164 37.352 341l-22.645 4.93Zm0 0"/><path fill="#51b6c4" d="m127.7 383.996-30.34.016 20.515-18.387Zm0 0"/><path fill="#1f9db2" d="m83.578 369.105 17.434-7.855-3.653 22.762Zm0 0"/><path fill="#209eb3" d="m101.012 361.25-17.434 7.855 5.527-18.898Zm0 0"/><path fill="#43f8e8" d="m134.379 330.473 18.297-3.528v35.082Zm0 0"/><path fill="#f9fbfd" d="m178.195 322.43-25.52 4.515 5.536-10.949Zm0 0"/><path fill="#c9f7f5" d="m152.676 326.945 25.52-4.515 3.331 15.37Zm0 0"/><path fill="#a3dae2" d="m211.445 345.898 16.946-27.933 20.55 12.055Zm0 0"/><path fill="#c2f6f4" d="m197.777 322.742 30.614-4.777-16.946 27.933Zm0 0"/><path fill="#4881a9" d="m237.79 288.383 2.597 9.074-16.684-2.582Zm0 0"/><path fill="#f5fbfd" d="m240.387 297.457 28.648 24.848-20.094 7.715Zm0 0"/><path fill="#f6fcfd" d="m228.39 317.965 11.997-20.508 8.554 32.563Zm0 0"/><path fill="#fbfbfd" d="m248.379 293.152 27.113 1.192-6.457 27.96Zm0 0"/><path fill="#f9fafc" d="m240.387 297.457 7.992-4.305 20.656 29.153Zm0 0"/><path fill="#4b82aa" d="m248.379 293.152-7.992 4.305-2.598-9.074Zm0 0"/><path fill="#5e77a7" d="m275.492 294.344-27.113-1.192-.176-23.257Zm0 0"/><path fill="#5b7aa8" d="m248.379 293.152-10.59-4.77 10.414-18.487Zm0 0"/><path fill="#5a77a6" d="m218.18 262.66 25.207-23.39 4.816 30.625Zm0 0"/><path fill="#5b77a6" d="m243.387 239.27-25.207 23.39 7.507-27.09Zm0 0"/><path fill="#6473a5" d="m243.387 239.27 34.976 6.796-30.16 23.829Zm0 0"/><path fill="#5f77a7" d="m237.79 288.383-11.688-9.602 22.101-8.886Zm0 0"/><path fill="#5a78a7" d="m226.102 278.781-7.922-16.12 30.023 7.234Zm0 0"/><path fill="#577ba8" d="m226.102 278.781 11.687 9.602-14.086 6.492Zm0 0"/><path fill="#0288a5" d="m152.676 362.027 29.008 5.496-8.868 16.457Zm0 0"/><path fill="#0188a5" d="m181.527 337.8.157 29.723-29.008-5.496Zm0 0"/><path fill="#a1f3ef" d="m136.836 365.242 8.848 18.762-17.985-.008Zm0 0"/><path fill="#a6f4f0" d="m145.684 384.004-8.848-18.762 15.84-3.215Zm0 0"/><path fill="#c6f2f2" d="m136.836 365.242-9.137 18.754-9.824-18.371Zm0 0"/><path fill="#342a55" d="m117.484 296.727 9.594 8.96-8.594 2.633Zm0 0"/><path fill="#557eaa" d="m125.23 274.434-3.183 12.043-17.27-15.63Zm0 0"/><path fill="#5a7ba8" d="m122.047 286.477-11.54 4.601-5.73-20.23Zm0 0"/><path fill="#5487af" d="m122.047 286.477-4.563 10.25-6.976-5.649Zm0 0"/><path fill="#5083ac" d="m133.54 279.117-11.493 7.36 3.183-12.043Zm0 0"/><path fill="#2798b1" d="m383.992 348.617-21.597-32.668 21.636-22.48Zm0 0"/><path fill="#dbf2f5" d="m321.008 338.926-3.856 24.273-17.89-19.246Zm0 0"/><path fill="#cbe6ed" d="m317.152 363.2 3.856-24.274 19.437 19.969Zm0 0"/><path fill="#eaf5f9" d="m313.348 307.2 7.66 31.726-21.746 5.027Zm0 0"/><path fill="#6373a5" d="m383.996 247.805-54.598-24.496 54.606-29.852Zm0 0"/><path fill="#6373a5" d="m329.398 223.309 54.598 24.496-29.566 21.52Zm0 0"/><path fill="#9fe3e6" d="m254.508 350.68 11.168 33.347-35.059-.011Zm0 0"/><path fill="#caf1f2" d="m233.559 359.242 20.949-8.562-23.89 33.336Zm0 0"/><path fill="#f4fcfd" d="m189.64 307.238.442 8.242-7.52-3Zm0 0"/><path fill="#2fa5b9" d="m233.559 359.242-2.942 24.774-10.324-21.356Zm0 0"/><path fill="#0289a5" d="m220.293 362.66-18.965-2.598 10.117-14.164Zm0 0"/><path fill="#0288a5" d="m201.328 360.063-19.8-22.262 29.917 8.097Zm0 0"/><path fill="#0289a5" d="m201.328 360.063-19.644 7.46-.157-29.722Zm0 0"/><path fill="#825898" d="m143.117 52.05-10.086 43.134-28.926-23.887Zm0 0"/><path fill="#845697" d="m227.281 25.273 39.973 7.66-22.586 21.465Zm0 0"/><path fill="#815898" d="m267.254 32.934 14.805 51.484-37.391-30.02Zm0 0"/><path fill="#855597" d="m322.496 52.117-55.242-19.183L297.418 0Zm0 0"/><path fill="#845797" d="m244.668 54.398 37.39 30.02-41.163-.125Zm0 0"/><path fill="#77629d" d="m178.527 56.262 14.575-26.055 2.855 16.133Zm0 0"/><path fill="#352a55" d="m211.91 76.629-10.351 1.426 4.433-7.274ZM196.242 62.129l-17.715-5.867 17.43-9.922Zm0 0"/><path fill="#352a55" d="m201.559 78.055-5.317-15.926 9.75 8.652Zm0 0"/><path fill="#fecf7f" d="m178.527 56.262 11.72 24.754-19.411-11.164Zm0 0"/><path fill="#fed080" d="m190.246 81.016 11.313-2.961-3.477 8.922Zm0 0"/><path fill="#352a55" d="m196.242 62.129-5.996 18.887-11.719-24.754ZM190.246 81.016l5.996-18.887 5.317 15.926Zm0 0"/><path fill="#865597" d="m227.281 25.273-16.168 24.84-18.011-19.906Zm0 0"/><path fill="#835798" d="m244.668 54.398-33.555-4.285 16.168-24.84Zm0 0"/><path fill="#352a55" d="m213.625 57.121-2.512-7.008 33.555 4.285Zm0 0"/><path fill="#352a55" d="m211.113 50.113 2.512 7.008-17.383 5.008Zm0 0"/><path fill="#fecf80" d="m213.625 57.121 31.043-2.723-22.227 9.235Zm0 0"/><path fill="#342a55" d="m211.91 76.629 1.715-19.508 8.816 6.512Zm0 0"/><path fill="#352a55" d="M213.625 57.121 211.91 76.63l-5.918-5.848ZM196.242 62.129l17.383-5.008-7.633 13.66Zm0 0"/><path fill="#352a55" d="m195.957 46.34 15.156 3.773-14.87 12.016Zm0 0"/><path fill="#7a5f9b" d="m211.113 50.113-15.156-3.773-2.855-16.133Zm0 0"/><path fill="#ddefe9" d="m181.234 166.805-11.91-17.989 13.238-4.82Zm0 0"/><path fill="#e0eee9" d="m169.324 148.816 11.91 17.989-19.152-10.45Zm0 0"/><path fill="#6075a6" d="m119.086 125.883 19.945 2.144-6.234 14.754Zm0 0"/><path fill="#d7e1de" d="m181.234 166.805-14.316 14.328-4.836-24.778Zm0 0"/><path fill="#d6e4de" d="m166.918 181.133 14.316-14.328-2.035 38.465Zm0 0"/><path fill="#f3f6ef" d="m181.234 166.805 18.957 38.715-20.992-.25Zm0 0"/><path fill="#f6f8f1" d="m181.234 166.805 28.196-22.516-9.239 61.23Zm0 0"/><path fill="#f4f8f2" d="m209.43 144.29-28.196 22.515 1.328-22.809Zm0 0"/><path fill="#6b6da2" d="m263.074 155.05-29.031-14.312 22.516-25.379Zm0 0"/><path fill="#7d5d9a" d="m216.637 84.082-4.727-7.453 10.531-12.996Zm0 0"/><path fill="#73669f" d="m256.559 115.36-20.985-14.337 5.32-16.73Zm0 0"/><path fill="#72669f" d="m235.574 101.023-13.199-7.73 18.52-9Zm0 0"/><path fill="#8c4e93" d="M322.496 52.117 297.418 0H384Zm0 0"/><path fill="#815998" d="m331.723 111.574-9.227-59.457 61.512 23.168Zm0 0"/><path fill="#fed080" d="m201.793 97.645-24.762-4.665 21.051-6.003Zm0 0"/><path fill="#faf8f3" d="m184.89 124.059 24.54 20.23-26.868-.293Zm0 0"/><path fill="#fef7f0" d="m209.43 144.29-7.688-32.907 26.48 1.844Zm0 0"/><path fill="#fbf8f0" d="m184.89 124.059 16.852-12.676 7.688 32.906Zm0 0"/><path fill="#537eaa" d="m133.074 270.125-10.281-8.25 10.148-1.832Zm0 0"/><path fill="#537da9" d="m133.074 270.125-7.844 4.309-2.437-12.559Zm0 0"/><path fill="#4b7fa9" d="m125.23 274.434 7.844-4.309.465 8.992Zm0 0"/><path fill="#f6f8f4" d="m177.563 233.074 22.628-27.554 3.106 40.19Zm0 0"/><path fill="#fafbfa" d="m187.938 264.504-10.375-31.43 25.734 12.637Zm0 0"/><path fill="#352a55" d="m151.543 264.613-9.934 6.016 2.547-10.899Zm0 0"/><path fill="#342a55" d="m133.54 279.117 8.07-8.488 2.32 15.851ZM141.61 270.629l10.921 5.11-8.601 10.741Zm0 0"/><path fill="#352a55" d="m141.61 270.629 9.933-6.016.988 11.125ZM133.074 270.125l8.535.504-8.07 8.488ZM144.156 259.73l-2.547 10.899-8.668-10.586Zm0 0"/><path fill="#352a55" d="m141.61 270.629-8.536-.504-.133-10.082ZM151.242 257.23l.301 7.383-7.387-4.883Zm0 0"/><path fill="#352a55" d="m151.242 257.23-7.086 2.5 6.098-15.445Zm0 0"/><path fill="#e4e9e5" d="m159.715 243.094-8.473 14.136-.988-12.945Zm0 0"/><path fill="#e8eeee" d="m151.242 257.23 8.473-14.136 10.3 21.55Zm0 0"/><path fill="#eef3f2" d="m151.543 264.613-.3-7.383 18.773 7.415Zm0 0"/><path fill="#352a55" d="m159.223 232.477-8.125 4.132 1.058-15.828Zm0 0"/><path fill="#f2f3f0" d="m151.098 236.61 8.617 6.484-9.461 1.191Zm0 0"/><path fill="#f2f1ee" d="m151.098 236.61 8.125-4.133.492 10.617Zm0 0"/><path fill="#342a55" d="m143.285 206.676 8.871 14.105-11.488 1.836Zm0 0"/><path fill="#342a55" d="m126.29 215.992 16.995-9.316-2.617 15.941Zm0 0"/><path fill="#352a55" d="m128.297 195.578 14.988 11.098-16.996 9.316Zm0 0"/><path fill="#342a55" d="m152.156 220.781-8.87-14.105 14.78 3.894ZM137.71 185.594l16.392-1.914-10.817 22.996Zm0 0"/><path fill="#342a55" d="m158.066 210.57-14.78-3.894 10.816-22.996Zm0 0"/><path fill="#6b6da2" d="m78.828 195.89-33.387-33.046 50.926-9.75Zm0 0"/><path fill="#696ea3" d="m109.39 187.715-30.562 8.176 17.54-42.797Zm0 0"/><path fill="#6472a4" d="m78.828 195.89 24.254 15.926-25.96 28.899Zm0 0"/><path fill="#6a6da2" d="m78.828 195.89 30.563-8.175-6.309 24.101Zm0 0"/><path fill="#352a55" d="m142.473 169.45-14.82 2.84 5.144-29.509Zm0 0"/><path fill="#77629d" d="m119.086 125.883-22.719 27.21L68.5 110.778Zm0 0"/><path fill="#6671a4" d="M42.469 268.777 0 256.757l40.66-38.37Zm0 0"/><path fill="#f3f8fb" d="m28.445 328.164 16.059-3.008L37.352 341Zm0 0"/><path fill="#6373a5" d="m42.469 268.777-6.012 32.297-15.144-4.148Zm0 0"/><path fill="#118ba8" d="m29 360.34-29-.922 14.707-13.488Zm0 0"/><path fill="#2c9bb3" d="M37.352 341 29 360.34l-14.293-14.41Zm0 0"/><path fill="#40a9bd" d="M60.191 353.098 29 360.34 37.352 341Zm0 0"/><path fill="#1e8eab" d="m0 384 29-23.66 31.828 23.672Zm0 0"/><path fill="#2999b1" d="m97.36 384.012 3.652-22.762 16.863 4.375Zm0 0"/><path fill="#f3f9fb" d="m127.078 305.688 1.57 8.574-10.164-5.942Zm0 0"/><path fill="#f5fcfd" d="m160.738 304.617-2.527 11.38-10.625-8.685Zm0 0"/><path fill="#edfcfc" d="m190.082 315.48-11.887 6.95 4.368-9.95Zm0 0"/><path fill="#f2fbfc" d="m178.195 322.43 11.887-6.95 7.695 7.262Zm0 0"/><path fill="#c8f9f7" d="m181.527 337.8-3.332-15.37 19.582.312Zm0 0"/><path fill="#3e4d68" d="m178.98 292.805 10.114.175-.188 7.168Zm0 0"/><path fill="#443e5d" d="m189.094 292.98-10.114-.175 9.352-9.184Zm0 0"/><path fill="#fdfbfb" d="m218.18 262.66-11.637 3.2-3.246-20.15ZM206.543 265.86l-18.606-1.356 15.36-18.793Zm0 0"/><path fill="#effcfc" d="m190.082 315.48 12.625-2.695-4.93 9.957Zm0 0"/><path fill="#0389a5" d="M181.684 367.523 202.492 384l-29.676-.02Zm0 0"/><path fill="#0289a5" d="M201.328 360.063 202.492 384l-20.808-16.477Zm0 0"/><path fill="#0389a5" d="M230.617 384.016 202.492 384l17.801-21.34Zm0 0"/><path fill="#0388a5" d="m202.492 384-1.164-23.937 18.965 2.597Zm0 0"/><path fill="#342d57" d="m160.738 304.617-8.718-7.039 5.687-2.422Zm0 0"/><path fill="#342a55" d="m152.02 297.578 3.207-8.992 2.48 6.57Zm0 0"/><path fill="#18bdb9" d="m152.02 297.578 8.718 7.04-13.152 2.695Zm0 0"/><path fill="#fdfcfd" d="m171.168 289.66 5.367-8.031 2.445 11.176Zm0 0"/><path fill="#effcfc" d="m147.586 307.313-18.938 6.949-1.57-8.574Zm0 0"/><path fill="#342a55" d="m117.484 296.727 13.586-3.918-3.992 12.878Zm0 0"/><path fill="#352a55" d="m122.047 286.477 9.023 6.332-13.586 3.918Zm0 0"/><path fill="#078ba7" d="m350.031 383.813-40.36.183 7.481-20.797Zm0 0"/><path fill="#b5e8eb" d="m309.672 383.996-10.41-40.043 17.89 19.246Zm0 0"/><path fill="#f6f8fb" d="m366.41 361.074 17.582-12.457-.004 35.406Zm0 0"/><path fill="#f9fafc" d="m383.992 348.617-17.582 12.457-3.742-9.5Zm0 0"/><path fill="#3da4ba" d="m321.008 338.926 21.66-8.031-2.223 28Zm0 0"/><path fill="#0c8da8" d="m383.992 348.617-21.324 2.957-.273-35.625Zm0 0"/><path fill="#1894ae" d="m269.035 322.305 17.367-8.578 12.86 30.226Zm0 0"/><path fill="#96dae1" d="m286.402 313.727 26.946-6.528-14.086 36.754Zm0 0"/><path fill="#f9fafc" d="m275.492 294.344 10.91 19.383-17.367 8.578Zm0 0"/><path fill="#f9fcfd" d="m181.613 306.316 8.028.922-7.078 5.242Zm0 0"/><path fill="#845697" d="m104.105 71.297 14.465 35.738-50.07 3.742Zm0 0"/><path fill="#7f5b9a" d="m133.031 95.184-14.46 11.851-14.466-35.738Zm0 0"/><path fill="#342a55" d="m150 121.387-3.41-12.508 13.066 4.098Zm0 0"/><path fill="#7c5e9b" d="m150.953 95.105-17.922.079 10.086-43.133Zm0 0"/><path fill="#77629d" d="m163.207 84.813-12.254 10.292-7.836-43.054Zm0 0"/><path fill="#6c6ca1" d="m150.953 95.105-4.363 13.774-13.559-13.695Zm0 0"/><path fill="#865496" d="M267.254 32.934 246.066 0h51.352Zm0 0"/><path fill="#7b5e9b" d="m178.527 56.262-35.41-4.211 49.985-21.844Zm0 0"/><path fill="#73669f" d="m168.82 68.781-5.613 16.031-20.09-32.761Zm0 0"/><path fill="#76639d" d="m178.527 56.262-9.707 12.52-25.703-16.731Zm0 0"/><path fill="#362b55" d="m168.82 68.781 9.707-12.52-7.691 13.59Zm0 0"/><path fill="#e9f6f0" d="m169.324 148.816.512-7.308 12.726 2.488Zm0 0"/><path fill="#e1eae5" d="m159.71 155.516 9.614-6.7-7.242 7.54Zm0 0"/><path fill="#f5f6ed" d="m169.152 129.371 1.645-12.348 14.094 7.036Zm0 0"/><path fill="#352b55" d="m160.875 125.469 8.277 3.902-3.91 6.832Zm0 0"/><path fill="#342a55" d="M160.875 125.469 150 121.387l9.656-8.41Zm0 0"/><path fill="#393359" d="m170.797 117.023-9.922 8.446-1.219-12.492Zm0 0"/><path fill="#352a55" d="m160.875 125.469 9.922-8.446-1.645 12.348Zm0 0"/><path fill="#fdf8f3" d="m234.043 140.738-.031 28.95-24.582-25.399Zm0 0"/><path fill="#6770a3" d="m234.012 169.688.031-28.95 29.031 14.313Zm0 0"/><path fill="#71679f" d="m216.637 84.082 24.258.211-18.52 9Zm0 0"/><path fill="#825898" d="m244.668 54.398-3.773 29.895-18.454-20.66Zm0 0"/><path fill="#7b5f9b" d="m240.895 84.293-24.258-.211 5.804-20.45Zm0 0"/><path fill="#fed080" d="m201.559 78.055 8.254 3.39-11.731 5.532Zm0 0"/><path fill="#fed080" d="m209.813 81.445-8.02 16.2-3.711-10.668Zm0 0"/><path fill="#352a55" d="m209.813 81.445-8.254-3.39 10.351-1.426Zm0 0"/><path fill="#6d6ba1" d="m216.637 84.082-6.824-2.637 2.097-4.816Zm0 0"/><path fill="#fef9f4" d="m228.223 113.227 5.82 27.511-24.613 3.551Zm0 0"/><path fill="#71679f" d="m228.223 113.227 7.351-12.204 20.985 14.336Zm0 0"/><path fill="#686fa3" d="m234.043 140.738-5.82-27.511 28.336 2.132Zm0 0"/><path fill="#8c4f94" d="m384 0 .008 75.285-61.512-23.168Zm0 0"/><path fill="#855597" d="m322.496 52.117 9.227 59.457-49.664-27.156Zm0 0"/><path fill="#74649e" d="m96.367 153.094-50.926 9.75L68.5 110.777Zm0 0"/><path fill="#fecf80" d="m177.031 92.98 13.215-11.964 7.836 5.96Zm0 0"/><path fill="#74659e" d="m235.574 101.023-7.351 12.204-5.848-19.934Zm0 0"/><path fill="#fed080" d="m228.223 113.227-26.48-1.844.05-13.738ZM201.742 111.383l-13.988-3.649 14.039-10.09Zm0 0"/><path fill="#fed080" d="M187.754 107.734 177.03 92.98l24.762 4.665Zm0 0"/><path fill="#fef7ef" d="m187.754 107.734 13.988 3.649-16.851 12.676Zm0 0"/><path fill="#fbfbfb" d="m164.625 281.969 5.39-17.324 6.52 16.984Zm0 0"/><path fill="#edf3f4" d="m170.016 264.645-5.391 17.324-12.094-6.23Zm0 0"/><path fill="#fcfbfc" d="m155.227 288.586 9.28 3.996-6.8 2.574Zm0 0"/><path fill="#fefcfe" d="m164.508 292.582-3.77 12.035-3.031-9.46Zm0 0"/><path fill="#f9faf8" d="m170.016 264.645 7.547-31.57 10.375 31.429Zm0 0"/><path fill="#e0ecec" d="m170.016 264.645-10.301-21.551 17.847-10.02Zm0 0"/><path fill="#5e78a7" d="m126.29 215.992 4.23 16.524-19.04 7.73Zm0 0"/><path fill="#5d79a8" d="m130.52 232.516-.907 16.52-18.133-8.79Zm0 0"/><path fill="#352a55" d="m129.613 249.035.907-16.52 19.734 11.77Zm0 0"/><path fill="#352a55" d="m130.52 232.516 20.578 4.093-.844 7.676Zm0 0"/><path fill="#342a55" d="m137.71 185.594-9.413 9.984-2.203-9.016ZM128.297 195.578l9.414-9.984 5.574 21.082Zm0 0"/><path fill="#6b6ca2" d="m118.992 196.934-9.601-9.22 16.703-1.151ZM118.992 196.934l-15.91 14.882 6.309-24.101Zm0 0"/><path fill="#6075a6" d="m128.297 195.578-9.305 1.356 7.102-10.371Zm0 0"/><path fill="#6471a4" d="m118.992 196.934 9.305-1.356-2.008 20.414Zm0 0"/><path fill="#5f77a7" d="m111.48 240.246-6.703 30.602-27.656-30.133Zm0 0"/><path fill="#6275a6" d="m103.082 211.816 8.398 28.43-34.359.469Zm0 0"/><path fill="#352a55" d="m154.102 183.68 5.609-28.164 2.125 26.566Zm0 0"/><path fill="#352b55" d="m166.918 181.133-7.207-25.617 2.371.84Zm0 0"/><path fill="#352a55" d="m159.71 155.516 7.208 25.617-5.082.949Zm0 0"/><path fill="#342a55" d="m159.71 155.516-5.608 28.164-11.63-14.23Zm0 0"/><path fill="#342a55" d="m154.102 183.68-16.391 1.914 4.762-16.145ZM137.71 185.594l-11.616.969 1.558-14.274Zm0 0"/><path fill="#352a55" d="m142.473 169.45-4.762 16.144-10.059-13.305Zm0 0"/><path fill="#edf7f9" d="m44.504 325.156 25.719 10.047L37.352 341Zm0 0"/><path fill="#edf6f9" d="m44.504 325.156 13.8-10.43 11.919 20.477Zm0 0"/><path fill="#ecf6f9" d="m58.305 314.727-13.801 10.43-.965-11.04Zm0 0"/><path fill="#eff3f8" d="m26.8 317.984 17.704 7.172-16.059 3.008Zm0 0"/><path fill="#5d7aa8" d="m26.8 317.984 9.657-16.91 7.082 13.043Zm0 0"/><path fill="#edf4f8" d="M44.504 325.156 26.8 317.984l16.738-3.867ZM79.055 310.625l7.988 11.293-16.82 13.285Zm0 0"/><path fill="#eef5f8" d="m58.305 314.727 20.75-4.102-8.832 24.578Zm0 0"/><path fill="#5a7daa" d="m79.055 310.625-20.75 4.102 8.238-10.032Zm0 0"/><path fill="#577da9" d="m71.453 298.25 7.602 12.375-12.512-5.93Zm0 0"/><path fill="#5d78a7" d="m75.195 277.496 29.582-6.648-7.074 20.414Zm0 0"/><path fill="#5b7aa8" d="m36.457 301.074 18.234-4.379-11.152 17.422Zm0 0"/><path fill="#6078a7" d="m54.691 296.695 3.614 18.032-14.766-.61Zm0 0"/><path fill="#587daa" d="m58.305 314.727-3.614-18.032 11.852 8Zm0 0"/><path fill="#6472a5" d="m42.469 268.777 12.222 27.918-18.234 4.38Zm0 0"/><path fill="#6374a5" d="M54.691 296.695 42.47 268.777l32.726 8.72Zm0 0"/><path fill="#6572a4" d="M77.121 240.715 42.47 268.777l-1.809-50.39Zm0 0"/><path fill="#6374a5" d="m77.121 240.715-1.926 36.781-32.726-8.719Zm0 0"/><path fill="#6275a6" d="m104.777 270.848-29.582 6.648 1.926-36.781Zm0 0"/><path fill="#219bb2" d="M60.828 384.012 29 360.34l31.191-7.242Zm0 0"/><path fill="#58b3c4" d="m83.578 369.105-22.75 14.907-.637-30.914Zm0 0"/><path fill="#6fd9db" d="m118.156 334.504 16.223-4.031-16.504 35.152Zm0 0"/><path fill="#b5e7ea" d="m94.582 333.04 23.574 1.464-29.05 15.703Zm0 0"/><path fill="#30afbe" d="m101.012 361.25 17.144-26.746-.281 31.121Zm0 0"/><path fill="#2dabbb" d="m118.156 334.504-17.144 26.746-11.907-11.043Zm0 0"/><path fill="#f2f9fb" d="m117.258 321.762-14.383-10.696 15.61-2.746Zm0 0"/><path fill="#f4f9fb" d="m102.875 311.066 14.383 10.696-22.676 11.277Zm0 0"/><path fill="#f4fafc" d="m128.648 314.262-11.39 7.5 1.226-13.442Zm0 0"/><path fill="#f1fafc" d="m117.258 321.762.898 12.742-23.574-1.465Zm0 0"/><path fill="#f2f9fb" d="m102.875 311.066-8.293 21.973-7.539-11.121Zm0 0"/><path fill="#5081aa" d="m117.484 296.727-11.25 7.593 4.274-13.242Zm0 0"/><path fill="#c4e3e9" d="m106.234 304.32-3.359 6.746-4.2-5.761Zm0 0"/><path fill="#342a55" d="m106.234 304.32 11.25-7.593 1 11.593Zm0 0"/><path fill="#b3dae2" d="m102.875 311.066 3.36-6.746 12.25 4Zm0 0"/><path fill="#4d80a9" d="m106.234 304.32-7.558.985-.973-14.043Zm0 0"/><path fill="#507ea9" d="m110.508 291.078-4.274 13.242-8.53-13.058Zm0 0"/><path fill="#f1fafc" d="m134.379 330.473-17.121-8.711 11.39-7.5Zm0 0"/><path fill="#edfafb" d="m117.258 321.762 17.12 8.71-16.222 4.032Zm0 0"/><path fill="#f8fcfe" d="m145.895 318.293 12.316-2.297-5.535 10.95Zm0 0"/><path fill="#edfbfc" d="m145.895 318.293-11.516 12.18-5.73-16.211Zm0 0"/><path fill="#edfcfc" d="m158.21 315.996-12.315 2.297 1.69-10.98ZM145.895 318.293l6.78 8.652-18.296 3.528Zm0 0"/><path fill="#ecfcfc" d="m147.586 307.313-1.691 10.98-17.247-4.031Zm0 0"/><path fill="#352a55" d="m211.453 302.625 1.317-11.82 10.933 4.07Zm0 0"/><path fill="#4f7ea9" d="m212.77 290.805 13.332-12.024-2.399 16.094Zm0 0"/><path fill="#f1fbfc" d="m202.707 312.785 25.684 5.18-30.614 4.777Zm0 0"/><path fill="#f8fafc" d="m240.387 297.457-13.637 4.555-3.047-7.137Zm0 0"/><path fill="#342a55" d="m226.75 302.012-15.297.613 12.25-7.75Zm0 0"/><path fill="#f5f8fb" d="m226.75 302.012 13.637-4.555-11.996 20.508Zm0 0"/><path fill="#f7fafd" d="m202.707 312.785 24.043-10.773 1.64 15.953Zm0 0"/><path fill="#fcfcfe" d="m226.75 302.012-24.043 10.773 8.746-10.16Zm0 0"/><path fill="#567ba8" d="m226.102 278.781-11.567-5.449 3.645-10.672Zm0 0"/><path fill="#fdfbfc" d="m214.535 273.332-7.992-7.473 11.637-3.199Zm0 0"/><path fill="#507ea9" d="m212.77 290.805 1.765-17.473 11.567 5.45Zm0 0"/><path fill="#f4fcfd" d="m189.64 307.238 13.067 5.547-12.625 2.695Zm0 0"/><path fill="#1293ad" d="m254.508 350.68 14.527-28.375 30.227 21.648Zm0 0"/><path fill="#7abecd" d="m350.031 383.813 16.38-22.739 17.577 22.95Zm0 0"/><path fill="#f9fafc" d="m366.41 361.074-25.965-2.18 22.223-7.32Zm0 0"/><path fill="#55afc2" d="m366.41 361.074-16.379 22.738-9.586-24.917Zm0 0"/><path fill="#55b0c3" d="m340.445 358.895 9.586 24.918-32.879-20.614Zm0 0"/><path fill="#49a9be" d="m313.348 307.2 29.32 23.695-21.66 8.03Zm0 0"/><path fill="#f8f9fc" d="m331.555 291.95 10.418 11.972-28.625 3.277Zm0 0"/><path fill="#cbe5ec" d="m313.348 307.2 28.625-3.278.695 26.973Zm0 0"/><path fill="#fefcfe" d="m171.258 297.86-6.75-5.278 6.66-2.922Zm0 0"/><path fill="#fefcfe" d="m164.508 292.582 6.75 5.277-10.52 6.758Zm0 0"/><path fill="#fefcfd" d="m178.98 292.805-7.722 5.054-.09-8.199Zm0 0"/><path fill="#352c56" d="m171.258 297.86 7.722-5.055 2.633 13.511Zm0 0"/><path fill="#73659e" d="m140.504 116.918-21.934-9.883 14.461-11.851Zm0 0"/><path fill="#6f69a0" d="m146.59 108.879-6.086 8.039-7.473-21.734Zm0 0"/><path fill="#6670a4" d="m140.504 116.918-1.473 11.11-19.945-2.145Zm0 0"/><path fill="#352a55" d="m140.504 116.918 6.086-8.04 3.41 12.509Zm0 0"/><path fill="#352a55" d="m139.031 128.027 1.473-11.109 9.496 4.469ZM146.59 108.879l11.027-7.559 2.04 11.657Zm0 0"/><path fill="#352a55" d="m150.953 95.105 6.664 6.215-11.027 7.559ZM157.617 101.32l-6.664-6.215 12.254-10.293Zm0 0"/><path fill="#eff5ee" d="m169.152 129.371 3.407 5.895-7.317.937Zm0 0"/><path fill="#f0f7f1" d="m172.559 135.266-2.723 6.242-4.594-5.305Zm0 0"/><path fill="#f3f5ec" d="m172.559 135.266-3.407-5.895 15.739-5.312Zm0 0"/><path fill="#eff6ed" d="m172.559 135.266 12.332-11.207-2.328 19.937Zm0 0"/><path fill="#eff7f0" d="m169.836 141.508 2.723-6.242 10.004 8.73Zm0 0"/><path fill="#eaf5ef" d="m162.973 143.633 6.863-2.125-.512 7.308Zm0 0"/><path fill="#dfece5" d="m159.71 155.516 3.263-11.883 6.351 5.183Zm0 0"/><path fill="#eef6ef" d="m169.836 141.508-6.863 2.125 2.27-7.43Zm0 0"/><path fill="#f9f6ec" d="m170.797 117.023 4.816-10.847 9.278 17.883Zm0 0"/><path fill="#fdf7ee" d="m175.613 106.176 12.14 1.558-2.862 16.325Zm0 0"/><path fill="#fbd081" d="m187.754 107.734-12.14-1.558 1.417-13.196Zm0 0"/><path fill="#352a55" d="m148.598 138.586 12.277-13.117 4.367 10.734Zm0 0"/><path fill="#342a55" d="m160.875 125.469-12.277 13.117 1.402-17.2Zm0 0"/><path fill="#352a55" d="m148.598 138.586-9.567-10.559 10.969-6.64Zm0 0"/><path fill="#fed080" d="m213.348 93.617 3.289-9.535 5.738 9.211Zm0 0"/><path fill="#fed080" d="m213.348 93.617-3.536-12.172 6.825 2.637ZM228.223 113.227l-14.875-19.61 9.027-.324Zm0 0"/><path fill="#fed080" d="m209.813 81.445 3.535 12.172-11.555 4.028ZM213.348 93.617l14.875 19.61-26.43-15.582Zm0 0"/><path fill="#352a55" d="m174.785 92.027 15.461-11.011-13.215 11.964Zm0 0"/><path fill="#352a55" d="m175.613 106.176-.828-14.149 2.246.953Zm0 0"/><path fill="#f1f4f3" d="m164.625 281.969-9.398 6.617-2.696-12.848Zm0 0"/><path fill="#342a55" d="m152.531 275.738 2.696 12.848-11.297-2.106ZM155.227 288.586l-3.207 8.992-8.09-11.098Zm0 0"/><path fill="#fefcfe" d="m164.508 292.582.117-10.613 6.543 7.691Zm0 0"/><path fill="#fefcfe" d="m164.625 281.969-.117 10.613-9.281-3.996ZM171.168 289.66l-6.543-7.691 11.91-.34Zm0 0"/><path fill="#352a55" d="m140.668 222.617-10.148 9.899-4.23-16.524Zm0 0"/><path fill="#342a55" d="m151.098 236.61-10.43-13.993 11.488-1.836Zm0 0"/><path fill="#352a55" d="m130.52 232.516 10.148-9.899 10.43 13.992Zm0 0"/><path fill="#6373a5" d="m103.082 211.816 23.207 4.176-14.809 24.254Zm0 0"/><path fill="#686ea3" d="m103.082 211.816 15.91-14.882 7.297 19.058Zm0 0"/><path fill="#557ca8" d="m98.676 305.305-13.27-7.801 12.297-6.242Zm0 0"/><path fill="#5f77a7" d="m85.406 297.504-10.21-20.008 22.507 13.766Zm0 0"/><path fill="#6076a6" d="m75.195 277.496 10.211 20.008-13.953.746Zm0 0"/><path fill="#587ca9" d="m54.691 296.695 16.762 1.555-4.91 6.445Zm0 0"/><path fill="#6175a6" d="m71.453 298.25-16.762-1.555 20.504-19.199Zm0 0"/><path fill="#f9fafd" d="m204.258 301.445 7.195 1.18-8.746 10.16Zm0 0"/><path fill="#352a55" d="m204.258 301.445-9.414-6.726 7.664-1.969Zm0 0"/><path fill="#352a55" d="m212.77 290.805-8.512 10.64-1.75-8.695Zm0 0"/><path fill="#342a55" d="m204.258 301.445 8.512-10.64-1.317 11.82Zm0 0"/><path fill="#fdfbfb" d="m187.938 264.504-11.403 17.125-6.52-16.984Zm0 0"/><path fill="#81fcf0" d="m143.023 300.14 8.997-2.562-4.434 9.735Zm0 0"/><path fill="#342a55" d="m143.023 300.14.907-13.66 8.09 11.098Zm0 0"/><path fill="#51afc2" d="m342.668 330.895 20 20.68-22.223 7.32Zm0 0"/><path fill="#f9fafc" d="m357.133 292.25-15.16 11.672-10.418-11.973Zm0 0"/><path fill="#597aa8" d="m357.133 292.25-25.578-.3 22.875-22.626Zm0 0"/><path fill="#4b99b8" d="m357.133 292.25 26.898 1.219-21.636 22.48Zm0 0"/><path fill="#5e77a6" d="m357.133 292.25-2.703-22.926 29.601 24.145Zm0 0"/><path fill="#cde6ed" d="m342.668 330.895 19.727-14.946.273 35.625Zm0 0"/><path fill="#fbfcfe" d="m160.738 304.617 11.918 3.988-14.445 7.391Zm0 0"/><path fill="#342b55" d="m171.258 297.86 1.398 10.745-11.918-3.988Zm0 0"/><path fill="#f3fcfd" d="m172.656 308.605 5.54 13.825-19.985-6.434Zm0 0"/><path fill="#f0fcfc" d="m178.195 322.43-5.539-13.825 9.906 3.875Zm0 0"/><path fill="#f9fcfe" d="m172.656 308.605 8.957-2.289.95 6.164Zm0 0"/><path fill="#342a55" d="m172.656 308.605-1.398-10.746 10.355 8.457Zm0 0"/><path fill="#352b55" d="m181.613 306.316 7.293-6.168.735 7.09Zm0 0"/><path fill="#352a55" d="m178.98 292.805 9.926 7.343-7.293 6.168Zm0 0"/><path fill="#7068a0" d="m118.57 107.035 21.934 9.883-21.418 8.965Zm0 0"/><path fill="#7d5c9a" d="m118.57 107.035.516 18.848L68.5 110.777Zm0 0"/><path fill="#352a55" d="m139.031 128.027 9.567 10.559-15.801 4.195Zm0 0"/><path fill="#362c56" d="m148.598 138.586-6.125 30.863-9.676-26.668Zm0 0"/><path fill="#352a55" d="m148.598 138.586 14.375 5.047-3.262 11.883Zm0 0"/><path fill="#352a55" d="m148.598 138.586 11.113 16.93-17.238 13.933ZM162.973 143.633l-14.375-5.047 16.644-2.383ZM163.207 84.813l5.613-16.032 2.016 1.07Zm0 0"/><path fill="#fed080" d="m190.246 81.016-27.039 3.796 7.629-14.96Zm0 0"/><path fill="#352a55" d="m174.785 92.027-11.578-7.215 27.04-3.796Zm0 0"/><path fill="#382e56" d="m166.148 103.2 9.465 2.976-4.816 10.847Zm0 0"/><path fill="#352a55" d="m166.148 103.2 8.637-11.173.828 14.149Zm0 0"/><path fill="#383057" d="m166.148 103.2 4.649 13.823-11.14-4.046Zm0 0"/><path fill="#352a55" d="m157.617 101.32 8.531 1.88-6.492 9.777Zm0 0"/><path fill="#352a55" d="m166.148 103.2-8.53-1.88 5.589-16.507ZM166.148 103.2l-2.941-18.388 11.578 7.215Zm0 0"/><path fill="#bddbe5" d="m102.875 311.066-23.82-.441 19.62-5.32Zm0 0"/><path fill="#517ea9" d="m79.055 310.625 6.351-13.121 13.27 7.8Zm0 0"/><path fill="#f2f8fa" d="m79.055 310.625 23.82.441-15.832 10.852Zm0 0"/><path fill="#5b7aa8" d="m85.406 297.504-6.351 13.121-7.602-12.375Zm0 0"/><path fill="#98b08b" d="m194.844 294.719 8.215-16.633-.551 14.664Zm0 0"/><path fill="#fefcfe" d="m203.059 278.086 9.71 12.719-10.261 1.945ZM203.059 278.086l11.476-4.754-1.765 17.473Zm0 0"/><path fill="#fefcfc" d="m203.059 278.086-15.121-13.582 18.605 1.355Zm0 0"/><path fill="#fdfbfb" d="m214.535 273.332-11.476 4.754 3.484-12.227Zm0 0"/><path fill="#fdfbfc" d="m188.332 283.621-11.797-1.992 11.403-17.125Zm0 0"/><path fill="#352a55" d="m188.332 283.621 6.512 11.098-5.75-1.739Zm0 0"/><path fill="#fdfcfc" d="m203.059 278.086-14.727 5.535-.394-19.117Zm0 0"/><path fill="#5e666e" d="m188.332 283.621 14.727-5.535-8.215 16.633Zm0 0"/><path fill="#41556c" d="m189.094 292.98 5.75 1.739-5.938 5.43Zm0 0"/><path fill="#f4f9fb" d="m196.508 303.988 7.75-2.543-1.551 11.34Zm0 0"/><path fill="#342a55" d="m204.258 301.445-7.75 2.543-1.664-9.27Zm0 0"/><path fill="#93cabe" d="m194.844 294.719 1.664 9.27-7.602-3.84Zm0 0"/><path fill="#f9fcfe" d="m189.64 307.238 6.868-3.25 6.199 8.797Zm0 0"/><path fill="#352b56" d="m188.906 300.148 7.602 3.84-6.867 3.25Zm0 0"/><path fill="#55f7e8" d="m143.023 300.14 4.563 7.173-20.508-1.625Zm0 0"/><path fill="#342a55" d="m131.07 292.809 11.953 7.332-15.945 5.546Zm0 0"/><path fill="#c2e2ea" d="m357.133 292.25 5.262 23.7-20.422-12.028Zm0 0"/><path fill="#c8e3eb" d="m362.395 315.95-19.727 14.945-.695-26.973Zm0 0"/><path fill="#342a55" d="m131.07 292.809-9.023-6.332 11.492-7.36ZM143.93 286.48l-12.86 6.329 2.47-13.692ZM131.07 292.809l12.86-6.329-.907 13.66Zm0 0"/></svg>