<svg xmlns="http://www.w3.org/2000/svg" width="758.4" height="120.84" viewBox="0 0 568.8 90.63"><defs><clipPath id="a"><path d="M1.059 0h566.484v90.262H1.059Zm0 0"/></clipPath></defs><g clip-path="url(#a)"><path fill="#fff" d="M1.059 90.262h566.484V0H1.059Zm0 0"/></g><path fill="#fff" d="M8.227 83.09h552.148V7.172H8.227Zm0 0"/><path fill="#89aabb" stroke="#000" stroke-miterlimit="10" stroke-width=".99593" d="M11.68 76.188h62.113V14.074H11.68Zm0 0"/><path fill="#9eb481" stroke="#000" stroke-miterlimit="10" stroke-width=".99593" d="M80.695 76.188h62.117V14.074H80.695Zm0 0"/><path fill="#4a714a" stroke="#000" stroke-miterlimit="10" stroke-width=".99593" d="M149.715 76.188h62.117V14.074h-62.117Zm0 0"/><path fill="#4a2d2c" stroke="#000" stroke-miterlimit="10" stroke-width=".99593" d="M218.734 76.188h62.114V14.074h-62.114Zm0 0"/><path fill="#f7c6b5" stroke="#000" stroke-miterlimit="10" stroke-width=".99593" d="M287.75 76.188h62.117V14.074H287.75Zm0 0"/><path fill="#de7b52" stroke="#000" stroke-miterlimit="10" stroke-width=".99593" d="M356.77 76.188h62.117V14.074H356.77Zm0 0"/><path fill="#9c3900" stroke="#000" stroke-miterlimit="10" stroke-width=".99593" d="M425.789 76.188h62.113V14.074H425.79Zm0 0"/><path fill="#4a3100" stroke="#000" stroke-miterlimit="10" stroke-width=".99593" d="M494.805 76.188h62.117V14.074h-62.117Zm0 0"/></svg>