<svg xmlns="http://www.w3.org/2000/svg" width="662.4" height="120.274" viewBox="0 0 496.8 90.206"><defs><clipPath id="a"><path d="M2.07 0h492.461v89.418H2.071Zm0 0"/></clipPath></defs><g clip-path="url(#a)"><path fill="#fff" d="M2.07 89.418h492.461V0H2.071Zm0 0"/></g><path fill="#fff" d="M9.207 82.281h478.188V7.137H9.207Zm0 0"/><path fill="#fff" stroke="#000" stroke-miterlimit="10" stroke-width=".99127" d="M12.621 75.45h61.48V13.968h-61.48Zm0 0"/><path fill="#0ce6f2" stroke="#000" stroke-miterlimit="10" stroke-width=".99127" d="M80.934 75.45h61.484V13.968H80.934Zm0 0"/><path fill="#0098db" stroke="#000" stroke-miterlimit="10" stroke-width=".99127" d="M149.246 75.45h61.485V13.968h-61.485Zm0 0"/><path fill="#1e579c" stroke="#000" stroke-miterlimit="10" stroke-width=".99127" d="M217.559 75.45h61.484V13.968H217.56Zm0 0"/><path fill="#203562" stroke="#000" stroke-miterlimit="10" stroke-width=".99127" d="M285.871 75.45h61.485V13.968H285.87Zm0 0"/><path fill="#252446" stroke="#000" stroke-miterlimit="10" stroke-width=".99127" d="M354.188 75.45h61.48V13.968h-61.48Zm0 0"/><path fill="#201533" stroke="#000" stroke-miterlimit="10" stroke-width=".99127" d="M422.5 75.45h61.48V13.968H422.5Zm0 0"/></svg>