<svg xmlns="http://www.w3.org/2000/svg" width="1334.4" height="122.537" viewBox="0 0 1000.8 91.903"><defs><clipPath id="a"><path d="M.43 0h999.742v91.805H.43Zm0 0"/></clipPath></defs><g clip-path="url(#a)"><path fill="#fff" d="M.43 91.805h999.742V0H.43Zm0 0"/></g><path fill="#fff" d="M7.621 84.613h985.36V7.191H7.62Zm0 0"/><path fill="#2e222f" stroke="#000" stroke-miterlimit="10" stroke-width=".99894" d="M11.14 77.574h63.344V14.23H11.141Zm0 0"/><path fill="#45293f" stroke="#000" stroke-miterlimit="10" stroke-width=".99894" d="M81.523 77.574h63.344V14.23H81.523Zm0 0"/><path fill="#7a3045" stroke="#000" stroke-miterlimit="10" stroke-width=".99894" d="M151.906 77.574h63.344V14.23h-63.344Zm0 0"/><path fill="#993d41" stroke="#000" stroke-miterlimit="10" stroke-width=".99894" d="M222.289 77.574h63.344V14.23h-63.344Zm0 0"/><path fill="#cd683d" stroke="#000" stroke-miterlimit="10" stroke-width=".99894" d="M292.672 77.574h63.344V14.23h-63.344Zm0 0"/><path fill="#fbb954" stroke="#000" stroke-miterlimit="10" stroke-width=".99894" d="M363.055 77.574h63.343V14.23h-63.343Zm0 0"/><path fill="#f2ec8b" stroke="#000" stroke-miterlimit="10" stroke-width=".99894" d="M433.437 77.574h63.344V14.23h-63.344Zm0 0"/><path fill="#b0a987" stroke="#000" stroke-miterlimit="10" stroke-width=".99894" d="M503.82 77.574h63.344V14.23H503.82Zm0 0"/><path fill="#997f73" stroke="#000" stroke-miterlimit="10" stroke-width=".99894" d="M574.203 77.574h63.344V14.23h-63.344Zm0 0"/><path fill="#665964" stroke="#000" stroke-miterlimit="10" stroke-width=".99894" d="M644.586 77.574h63.344V14.23h-63.344Zm0 0"/><path fill="#443846" stroke="#000" stroke-miterlimit="10" stroke-width=".99894" d="M714.969 77.574h63.343V14.23H714.97Zm0 0"/><path fill="#576069" stroke="#000" stroke-miterlimit="10" stroke-width=".99894" d="M785.351 77.574h63.344V14.23h-63.344Zm0 0"/><path fill="#788a87" stroke="#000" stroke-miterlimit="10" stroke-width=".99894" d="M855.734 77.574h63.344V14.23h-63.344Zm0 0"/><path fill="#a9b2a2" stroke="#000" stroke-miterlimit="10" stroke-width=".99894" d="M926.117 77.574h63.344V14.23h-63.344Zm0 0"/></svg>