<svg xmlns="http://www.w3.org/2000/svg" width="950.4" height="121.632" viewBox="0 0 712.8 91.224"><defs><clipPath id="a"><path d="M2.906 0h706.79v90.453H2.905Zm0 0"/></clipPath></defs><g clip-path="url(#a)"><path fill="#fff" d="M2.906 90.453h706.79V0H2.905Zm0 0"/></g><path fill="#fff" d="M10.047 83.316h692.508V7.141H10.047Zm0 0"/><path fill="#df0772" stroke="#000" stroke-miterlimit="10" stroke-width=".99157" d="M13.508 76.39h62.328V14.064H13.508Zm0 0"/><path fill="#fe546f" stroke="#000" stroke-miterlimit="10" stroke-width=".99157" d="M82.758 76.39h62.328V14.064H82.758Zm0 0"/><path fill="#ff9e7d" stroke="#000" stroke-miterlimit="10" stroke-width=".99157" d="M152.012 76.39h62.324V14.064h-62.324Zm0 0"/><path fill="#ffd080" stroke="#000" stroke-miterlimit="10" stroke-width=".99157" d="M221.262 76.39h62.324V14.064h-62.324Zm0 0"/><path fill="#fffdff" stroke="#000" stroke-miterlimit="10" stroke-width=".99157" d="M290.512 76.39h62.328V14.064h-62.328Zm0 0"/><path fill="#0bffe6" stroke="#000" stroke-miterlimit="10" stroke-width=".99157" d="M359.762 76.39h62.328V14.064h-62.328Zm0 0"/><path fill="#01cbcf" stroke="#000" stroke-miterlimit="10" stroke-width=".99157" d="M429.016 76.39h62.324V14.064h-62.324Zm0 0"/><path fill="#0188a5" stroke="#000" stroke-miterlimit="10" stroke-width=".99157" d="M498.266 76.39h62.324V14.064h-62.324Zm0 0"/><path fill="#3e3264" stroke="#000" stroke-miterlimit="10" stroke-width=".99157" d="M567.516 76.39h62.328V14.064h-62.328Zm0 0"/><path fill="#352a55" stroke="#000" stroke-miterlimit="10" stroke-width=".99157" d="M636.765 76.39h62.329V14.064h-62.329Zm0 0"/></svg>