<svg xmlns="http://www.w3.org/2000/svg" width="512" height="512" viewBox="0 0 384 384"><path fill="#a9b2a2" d="m295.75 144.434 40.496-29.012-2.254 46.683Zm0 0"/><path fill="#a9b2a2" d="m336.246 115.422-40.496 29.012-6.043-49.22ZM38.758 36.129 0 58.504V0ZM86.727 76.234l-38.633 1.211 34.445-34.664Zm0 0"/><path fill="#a9b2a2" d="M82.54 42.781 48.093 77.445 38.758 36.13Zm0 0"/><path fill="#8e815a" d="m162.781 285.914 27.278-11.43 6.015 25.293Zm0 0"/><path fill="#483d3b" d="m178.824 202.71-2.738-16.515 20.34 12.54Zm0 0"/><path fill="#a9b2a2" d="M48.094 77.445 80.46 94.777l-19.766 28.676ZM80.46 94.777 48.095 77.445l38.633-1.21Zm0 0"/><path fill="#a9b2a2" d="m80.46 94.777 6.267-18.543 18.964 15.602Zm0 0"/><path fill="#e6e085" d="m173.777 169.262-11.398 5.742-2.29-15.063Zm0 0"/><path fill="#d6cf7d" d="m162.379 175.004 11.398-5.742 2.309 16.933Zm0 0"/><path fill="#817856" d="m124.824 77.012 5.465-13.64 5.629 19.51Zm0 0"/><path fill="#2f232f" d="m182.117 99.254-25.101-8.23 10.464-20.547Zm0 0"/><path fill="#a9b2a2" d="M336.246 115.422 384 154.332l-50.008 7.773Zm0 0"/><path fill="#a9b2a2" d="M384 84.05v70.282l-47.754-38.91ZM327.082 56.918l9.164 58.504-46.539-20.207Zm0 0"/><path fill="#a9b2a2" d="m295.75 144.434-31.54-21.055 25.497-28.164Zm0 0"/><path fill="#a9b2a2" d="m289.707 95.215-34.2-10.723 7.86-44.234Zm0 0"/><path fill="#d4cd7d" d="m23.527 286.234-23.5 48.63-.011-64.45Zm0 0"/><path fill="#a9b2a2" d="m18.625 215.992-18.629 13.88L0 186.59Zm0 0"/><path fill="#a9b2a2" d="M18.625 215.992 0 186.59l44.945 17.984Zm0 0"/><path fill="#a9b2a1" d="M27.473 233.52-.004 229.87l18.629-13.879Zm0 0"/><path fill="#f1eb8a" d="m-.004 229.871 27.477 3.649L.016 270.414Zm0 0"/><path fill="#f1eb8a" d="m.016 270.414 27.457-36.894 18.773 22.566Zm0 0"/><path fill="#2e222f" d="m201.758 322.793 7.496 19.855-24.758 11.754Zm0 0"/><path fill="#f1eb8a" d="m269.445 319.848-16.925 5.007-.868-11.054Zm0 0"/><path fill="#a9b2a2" d="m277.895 243.922-24.887 22.86-.625-25.212Zm0 0"/><path fill="#2e222f" d="m206.563 212.84 19.027 4.05-15.88 23.344Zm0 0"/><path fill="#e1db83" d="m253.008 266.781-15.801-18.922 15.176-6.289Zm0 0"/><path fill="#a9b2a2" d="m307.656 200.543-11.906-56.11 38.242 17.672ZM41.645 164.535l3.3 40.04L0 186.59Zm0 0"/><path fill="#a9b2a2" d="m0 121.348 41.645 43.187L0 186.59Zm0 0"/><path fill="#a9b2a2" d="M41.645 164.535 0 121.348l60.695 2.105ZM73.305 158.148l11.656 18.13-13.996 10.96ZM155.047 0h60.027l-11.457 24.805ZM157.86 25.836 155.046 0l48.57 24.805ZM203.617 24.805l17.63 28.558-22.267 2.332ZM0 58.504l48.094 18.941L0 121.348Zm0 0"/><path fill="#a9b2a2" d="M48.094 77.445 0 58.504l38.758-22.375ZM58.602 0 38.758 36.129 0 0Zm0 0"/><path fill="#a9b2a2" d="M82.54 42.781 38.757 36.13 58.602 0ZM0 121.348l48.094-43.903 12.601 46.008Zm0 0"/><path fill="#a9b2a2" d="M82.54 42.781 58.601 0h47.546Zm0 0"/><path fill="#b7af6f" d="m121.422 95.332 3.402-18.32 11.094 5.87Zm0 0"/><path fill="#a9b2a2" d="m86.727 76.234 23.277-6.796-4.313 22.398Zm0 0"/><path fill="#75644d" d="m162.781 285.914-27.539 15.262.035-25.602Zm0 0"/><path fill="#e6e085" d="m212.605 206.34 12.985 10.55-19.028-4.05Zm0 0"/><path fill="#dad37f" d="m151.14 190.945 11.239-15.941 13.707 11.191Zm0 0"/><path fill="#d9d27f" d="m178.824 202.71-27.683-11.765 24.945-4.75Zm0 0"/><path fill="#ded781" d="m162.379 175.004-19.07-6.832 16.78-8.23Zm0 0"/><path fill="#2e222f" d="m182.23 71.715-.113 27.539-14.637-28.777Zm0 0"/><path fill="#d7d07e" d="m174.684 131.078-14.016-3.918 7.68-9.25Zm0 0"/><path fill="#342831" d="m128.172 160.375-14.207 16.066-5.227-12.57Zm0 0"/><path fill="#c7c077" d="m143.309 168.172-2.868-13.344 19.649 5.113Zm0 0"/><path fill="#837956" d="m140.441 154.828 2.868 13.344-15.137-7.797Zm0 0"/><path fill="#8e855c" d="m140.441 154.828-12.27 5.547-1.394-20.39Zm0 0"/><path fill="#2e222f" d="m157.016 91.023-8.32-19.878 18.784-.668Zm0 0"/><path fill="#827856" d="m130.29 63.371 18.405 7.774-12.777 11.738Zm0 0"/><path fill="#2e222f" d="m148.695 71.145 8.32 19.878-21.097-8.14ZM168.348 117.91l-11.332-26.887 25.101 8.23Zm0 0"/><path fill="#dad37f" d="m130.719 108.617 11.851-.582-4.132 15.8Zm0 0"/><path fill="#dfd982" d="m160.668 127.16-18.098-19.125 25.778 9.875Zm0 0"/><path fill="#e3dc84" d="m142.57 108.035 18.098 19.125-22.23-3.324Zm0 0"/><path fill="#a9b2a2" d="m350.406 194.61-16.414-32.505L384 154.332Zm0 0"/><path fill="#a9b1a1" d="m333.992 162.105 16.414 32.504-42.75 5.934Zm0 0"/><path fill="#a9b2a2" d="M262.664 0h42.856l-42.153 40.258Zm0 0"/><path fill="#a9b2a2" d="m305.52 0 21.562 56.918-63.715-16.66ZM215.074 0h47.59l.703 40.258Zm0 0"/><path fill="#a9b2a2" d="m263.367 40.258 63.715 16.66-37.375 38.297ZM295.75 144.434l-36.414.859 4.875-21.914ZM229.344 73.59l-8.098-20.227 42.121-13.105ZM255.508 84.492 229.344 73.59l34.023-33.332ZM257.852 103.68l-2.344-19.188 34.199 10.723Zm0 0"/><path fill="#a9b2a2" d="m264.21 123.379-6.358-19.7 31.855-8.464Zm0 0"/><path fill="#786e52" d="m70.383 363.578 22.27 20.445-23.524-.003Zm0 0"/><path fill="#d1ca7b" d="M28.445 325.809.027 334.863l23.5-48.629Zm0 0"/><path fill="#f1eb8a" d="m234.73 383.996 15.555-14.383 39.703 14.422ZM271.39 275.68l17.942 33.093-38.504-22.953Zm0 0"/><path fill="#a9b2a2" d="m271.39 275.68-18.382-8.899 24.887-22.86Zm0 0"/><path fill="#2f232f" d="m201.758 322.793 28.902 10.777-21.406 9.078Zm0 0"/><path fill="#30232f" d="m230.66 333.57-5.75 12.028-15.656-2.95Zm0 0"/><path fill="#f1eb8a" d="M241.266 346.184 230.66 333.57l14.418-5.199Zm0 0"/><path fill="#f0ea8a" d="m230.66 333.57 10.606 12.614-16.356-.586Zm0 0"/><path fill="#dad27f" d="m230.273 323.668-34.199-23.89 36.516 5.003Zm0 0"/><path fill="#322731" d="m230.273 323.668.387 9.902-28.902-10.777Zm0 0"/><path fill="#f1eb8a" d="m269.445 319.848-18.617-34.028 38.504 22.953Zm0 0"/><path fill="#f1eb8a" d="m250.828 285.82 18.617 34.028-17.793-6.047ZM252.52 324.855l5.484 16.93-12.926-13.414ZM250.285 369.613l7.719-27.828 28.766 18.434Zm0 0"/><path fill="#f1eb8a" d="m258.004 341.785-16.738 4.399 3.812-17.813Zm0 0"/><path fill="#f1eb8a" d="m241.266 346.184 16.738-4.399-7.719 27.828ZM271.39 275.68l-20.562 10.14 2.18-19.039Zm0 0"/><path fill="#382c33" d="m237.207 247.86 4.121-25.278 11.055 18.988Zm0 0"/><path fill="#f1eb8a" d="m241.328 222.582 12.945-5.469-1.89 24.457Zm0 0"/><path fill="#2e222f" d="m224.95 243.328.64-26.437 7.61 2.234Zm0 0"/><path fill="#2e222f" d="m241.328 222.582-16.379 20.746 8.25-24.203Zm0 0"/><path fill="#2f232f" d="m224.95 243.328 16.378-20.746-4.121 25.277Zm0 0"/><path fill="#2e222f" d="m225.59 216.89-.64 26.438-15.24-3.094Zm0 0"/><path fill="#a9b2a2" d="m272.926 207.668 4.969 36.254-25.512-2.352Zm0 0"/><path fill="#a9b2a2" d="m254.273 217.113 18.653-9.445-20.543 33.902ZM272.926 207.668l34.73-7.125-29.761 43.379Zm0 0"/><path fill="#f1eb8a" d="m369.96 287.316 14.04-15.39v25.879Zm0 0"/><path fill="#f1eb8a" d="m358.016 305.113 11.945-17.797L384 297.805ZM78.508 261.762l-6.813-19.66 17.942 7.39Zm0 0"/><path fill="#a9b2a2" d="m178.734 48.39 24.883-23.585-4.637 30.89ZM263.367 40.258l-59.75-15.453L215.074 0Zm0 0"/><path fill="#a9b2a2" d="m221.246 53.363-17.629-28.558 59.75 15.453ZM157.86 25.836l45.757-1.031-24.883 23.586ZM155.047 0l-29.621 28.379L106.148 0ZM106.148 0l19.278 28.379L82.539 42.78ZM73.305 158.148l-31.66 6.387 19.05-41.082Zm0 0"/><path fill="#a9b2a2" d="m41.645 164.535 31.66-6.387-2.34 29.09ZM44.945 204.574l-3.3-40.039 29.32 22.703Zm0 0"/><path fill="#2f232f" d="m130.719 108.617-9.297-13.285 14.496-12.45Zm0 0"/><path fill="#2f232f" d="m130.719 108.617-15.149-4.48 5.852-8.805Zm0 0"/><path fill="#3e3336" d="m121.89 62.082 8.4 1.29-5.466 13.64Zm0 0"/><path fill="#332731" d="m110.004 69.438 11.887-7.356 2.933 14.93Zm0 0"/><path fill="#a9b2a2" d="m82.54 42.781 27.464 26.657-23.277 6.796Zm0 0"/><path fill="#2e222f" d="m115.785 82.988-5.781-13.55 14.82 7.574Zm0 0"/><path fill="#594e43" d="m121.422 95.332-5.637-12.344 9.04-5.976Zm0 0"/><path fill="#2e222f" d="m110.004 69.438 5.781 13.55-10.094 8.848Zm0 0"/><path fill="#322631" d="m115.324 290.797-8.86 43.262-15.222-20.77Zm0 0"/><path fill="#2f232f" d="m106.465 334.059 59.996-18.852-21.793 42.57Zm0 0"/><path fill="#675a49" d="m157.809 257.05 4.972 28.864-27.504-10.34Zm0 0"/><path fill="#91865c" d="m162.781 285.914 19.23-22.887 8.048 11.457Zm0 0"/><path fill="#c9bb76" d="m182.012 263.027 16.031-7.976-7.984 19.433Zm0 0"/><path fill="#ad9b67" d="m157.809 257.05 24.203 5.977-19.23 22.887Zm0 0"/><path fill="#2e222f" d="m192.43 235.633 14.132-22.793 3.149 27.394Zm0 0"/><path fill="#e9e286" d="m190.559 214.645-11.735-11.934 17.602-3.977Zm0 0"/><path fill="#2f242f" d="m192.43 235.633-1.871-20.988 16.004-1.805Zm0 0"/><path fill="#f1eb8a" d="m239.223 143.566 7.21 15.23-14.94-6.16Zm0 0"/><path fill="#a9b2a2" d="m239.223 143.566 20.113 1.727-12.902 13.504Zm0 0"/><path fill="#a9b1a1" d="m259.336 145.293-20.113-1.727 2.148-8.449Zm0 0"/><path fill="#a9b2a2" d="m264.21 123.379-4.874 21.914-17.965-10.176Zm0 0"/><path fill="#2f232f" d="m239.223 143.566-10.266-3.07 12.414-5.379Zm0 0"/><path fill="#d4cd7d" d="m228.957 140.496 10.266 3.07-7.73 9.07Zm0 0"/><path fill="#2e222f" d="m202.332 170.371-5.906 28.363-20.34-12.539Zm0 0"/><path fill="#2f232f" d="m127.941 250.414-23.73-5.664 24.332-12.605Zm0 0"/><path fill="#f1eb8a" d="m101.54 262.059-23.032-.297 11.129-12.27ZM78.508 261.762l23.031.297-13.215 13.238Zm0 0"/><path fill="#f1eb8a" d="m104.21 244.75-2.67 17.309-11.903-12.567Zm0 0"/><path fill="#302430" d="m101.54 262.059 2.67-17.309 23.731 5.664Zm0 0"/><path fill="#2e222f" d="m94.46 178.203-.91-15.34 15.188 1.008Zm0 0"/><path fill="#a9b2a2" d="m73.305 158.148 20.246 4.715-8.59 13.414Zm0 0"/><path fill="#a8b1a1" d="m93.55 162.863.91 15.34-9.5-1.926Zm0 0"/><path fill="#392e34" d="m113.965 176.441 13.953 23.387-17.535-5.445Zm0 0"/><path fill="#2e222f" d="m94.46 178.203 19.505-1.762-3.582 17.942Zm0 0"/><path fill="#2e222f" d="m113.965 176.441-19.504 1.762 14.277-14.332Zm0 0"/><path fill="#dfd982" d="m151.14 190.945-7.831-22.773 19.07 6.832Zm0 0"/><path fill="#f1eb8a" d="m182.984 63.684-.754 8.03-14.75-1.237Zm0 0"/><path fill="#e5df85" d="m182.117 99.254 12.238-7.281 2.047 15.218Zm0 0"/><path fill="#342831" d="m182.23 71.715 12.125 20.258-12.238 7.28Zm0 0"/><path fill="#dad27f" d="m178.129 159.293-4.352 9.969-13.687-9.32Zm0 0"/><path fill="#e9e286" d="m201.84 123.738-17.059-5.62 11.621-10.927Zm0 0"/><path fill="#776d51" d="m168.348 117.91 16.433.207-10.097 12.961Zm0 0"/><path fill="#aaa269" d="m184.781 118.117-2.664-18.863 14.285 7.937Zm0 0"/><path fill="#5d5245" d="m184.781 118.117-16.433-.207 13.77-18.656Zm0 0"/><path fill="#e2db83" d="m201.84 123.738 11.555 2.914-12.989 12.785Zm0 0"/><path fill="#6a604b" d="m188.273 132.773-9.539 14.575-4.05-16.27Zm0 0"/><path fill="#413638" d="m184.781 118.117 3.492 14.656-13.59-1.695Zm0 0"/><path fill="#635948" d="m188.273 132.773-3.492-14.656 17.059 5.621Zm0 0"/><path fill="#413638" d="m178.734 147.348 9.54-14.575 12.132 6.665Zm0 0"/><path fill="#bab270" d="m188.273 132.773 13.567-9.035-1.434 15.7Zm0 0"/><path fill="#ede788" d="m160.668 127.16-12.281 15.086-9.95-18.41Zm0 0"/><path fill="#dfd882" d="m148.387 142.246-21.61-2.262 11.66-16.148Zm0 0"/><path fill="#cfc87a" d="m148.387 142.246-7.946 12.582-13.664-14.844Zm0 0"/><path fill="#ece588" d="m140.441 154.828 7.946-12.582 11.703 17.695Zm0 0"/><path fill="#f1eb8a" d="m168.582 57.664 14.402 6.02-15.504 6.793ZM182.984 63.684l-14.402-6.02 10.152-9.273Zm0 0"/><path fill="#a9b2a2" d="M350.406 194.61 384 154.331v60.48ZM350.406 194.61l-7.633 42.085-35.117-36.152ZM384 84.05l-56.918-27.132L384 0Zm0 0"/><path fill="#a9b2a2" d="M327.082 56.918 305.52 0H384ZM327.082 56.918 384 84.051l-47.754 31.37ZM270.531 171.043l37.125 29.5-34.73 7.125Zm0 0"/><path fill="#a8b1a1" d="m307.656 200.543-37.125-29.5 25.219-26.61Zm0 0"/><path fill="#a9b2a2" d="m270.531 171.043-11.195-25.75 36.414-.86Zm0 0"/><path fill="#a8b1a1" d="m221.246 53.363-5.613 10.703-16.653-8.37Zm0 0"/><path fill="#a9b2a1" d="m229.344 73.59-13.711-9.524 5.613-10.703Zm0 0"/><path fill="#2e222f" d="m184.496 354.402-39.828 3.375 21.793-42.57Zm0 0"/><path fill="#2f232f" d="m144.668 357.777 39.828-3.375-23.031 29.618Zm0 0"/><path fill="#a49c66" d="m70.734 325.863 20.66 32.282-21.011 5.433Zm0 0"/><path fill="#a8a068" d="m91.395 358.145-20.66-32.282 35.73 8.196Zm0 0"/><path fill="#c5be76" d="m70.734 325.863 20.508-12.574 15.223 20.77Zm0 0"/><path fill="#b8b070" d="m134.063 367.105-20.977 16.891-4.621-18.73Zm0 0"/><path fill="#a79e67" d="m113.086 383.996 20.977-16.89 27.402 16.914Zm0 0"/><path fill="#4d423d" d="m134.063 367.105 10.605-9.328 16.797 26.243Zm0 0"/><path fill="#6d634c" d="m106.465 334.059 2 31.207-17.07-7.121Zm0 0"/><path fill="#7e7454" d="m230.719 358.398-14.574 25.594 8.765-38.394Zm0 0"/><path fill="#f1eb8a" d="m234.73 383.996-4.011-25.598 19.566 11.215Zm0 0"/><path fill="#a19865" d="m216.145 383.992 14.574-25.594 4.011 25.598Zm0 0"/><path fill="#f1eb8a" d="m230.719 358.398 10.547-12.214 9.02 23.43Zm0 0"/><path fill="#f0ea8a" d="m241.266 346.184-10.547 12.214-5.809-12.8Zm0 0"/><path fill="#2f232f" d="m224.91 345.598-15.558 24.613-.098-27.563Zm0 0"/><path fill="#a29564" d="m216.145 383.992-6.793-13.781 15.558-24.613Zm0 0"/><path fill="#302430" d="m209.352 370.21-24.856-15.808 24.758-11.754Zm0 0"/><path fill="#5e5345" d="m209.352 370.21 6.793 13.782-21.618.02Zm0 0"/><path fill="#332731" d="m184.496 354.402 10.031 29.61-33.062.008Zm0 0"/><path fill="#322630" d="m209.352 370.21-14.825 13.802-10.03-29.61Zm0 0"/><path fill="#ab9f68" d="m166.46 315.207-3.679-29.293 33.293 13.863Zm0 0"/><path fill="#2f232f" d="m106.465 334.059 28.777-32.883 31.219 14.031Zm0 0"/><path fill="#382d34" d="m70.383 363.578-34.336-6.5 10.234-9.965Zm0 0"/><path fill="#3a2e35" d="m36.047 357.078 3-13.262 7.234 3.297Zm0 0"/><path fill="#f0ea8a" d="m25.684 345.309 10.363 11.77-15.262 6.437Zm0 0"/><path fill="#f1eb8a" d="m36.047 357.078-10.363-11.77 13.363-1.492Zm0 0"/><path fill="#524740" d="m108.465 365.266-15.813 18.757-1.257-25.878Zm0 0"/><path fill="#695f4a" d="m92.652 384.023 15.813-18.757 4.62 18.73Zm0 0"/><path fill="#3e3236" d="m39.047 343.816 6.629-8.511.605 11.808Zm0 0"/><path fill="#332731" d="m70.734 325.863-9.566-15.218 18.469-7.997Zm0 0"/><path fill="#3f3437" d="m54.883 326.742 6.285-16.097 9.566 15.218Zm0 0"/><path fill="#f1eb8a" d="M23.527 286.234.016 270.414l46.23-14.328Zm0 0"/><path fill="#322631" d="m230.273 323.668 14.805 4.703-14.418 5.2Zm0 0"/><path fill="#a99d67" d="m245.078 328.371-14.805-4.703 2.317-18.887Zm0 0"/><path fill="#9a9061" d="m251.652 313.8-6.574 14.571-12.488-23.59Zm0 0"/><path fill="#4f443e" d="m252.52 324.855-7.442 3.516 6.574-14.57Zm0 0"/><path fill="#ede789" d="m198.043 255.05-5.613-19.417 17.28 4.601Zm0 0"/><path fill="#e8e086" d="m198.043 255.05 20.488 26.255-28.472-6.82Zm0 0"/><path fill="#b7b582" d="m219.816 255.938-1.285 25.367-20.488-26.254Zm0 0"/><path fill="#ded481" d="m190.059 274.484 28.472 6.82-22.457 18.473Zm0 0"/><path fill="#f1eb8a" d="m269.445 319.848 19.887-11.075-2.562 51.446Zm0 0"/><path fill="#f1eb8a" d="m258.004 341.785 11.441-21.937 17.325 40.37Zm0 0"/><path fill="#f1eb8a" d="m269.445 319.848-11.441 21.937-5.484-16.93Zm0 0"/><path fill="#e7df85" d="m224.95 243.328-5.134 12.61-10.105-15.704Zm0 0"/><path fill="#e2d782" d="m219.816 255.938-21.773-.887 11.668-14.817Zm0 0"/><path fill="#d8d17e" d="m219.816 255.938 17.391-8.079 15.8 18.922Zm0 0"/><path fill="#e3dd84" d="m219.816 255.938 5.133-12.61 12.258 4.531Zm0 0"/><path fill="#f1eb8a" d="m240.973 215.266 11.527-14.188 1.773 16.035ZM240.973 215.266l.355 7.316-8.129-3.457Zm0 0"/><path fill="#f1eb8a" d="m241.328 222.582-.355-7.316 13.3 1.847Zm0 0"/><path fill="#a9b2a1" d="m252.5 201.078 20.426 6.59-18.653 9.445Zm0 0"/><path fill="#f1eb8a" d="M328.438 345.957 384 327.883l-27.422 25.437Zm0 0"/><path fill="#e7e085" d="m337.398 383.992 19.18-30.672 27.43 30.672Zm0 0"/><path fill="#dfd882" d="m356.578 353.32-19.18 30.672-8.96-38.035Zm0 0"/><path fill="#f1eb8a" d="m289.332 308.773 39.106 37.184-41.668 14.262Zm0 0"/><path fill="#e5df85" d="m286.77 360.219 3.218 23.816-39.703-14.422Zm0 0"/><path fill="#ece487" d="m289.988 384.035 38.45-38.078 8.96 38.035Zm0 0"/><path fill="#d4cd7d" d="m289.988 384.035-3.218-23.816 41.668-14.262Zm0 0"/><path fill="#a9b2a2" d="m384 271.926-41.227-35.23L384 214.812ZM342.773 236.695l7.633-42.086L384 214.812Zm0 0"/><path fill="#f1eb8a" d="m384 327.883-25.984-22.77L384 297.805Zm0 0"/><path fill="#f1eb8a" d="M358.016 305.113 384 327.883l-55.562 18.074ZM346.656 271.543l11.36 33.57-34.43-10.039Zm0 0"/><path fill="#f1eb8a" d="m358.016 305.113-11.36-33.57 23.305 15.773ZM346.656 271.543l-23.07 23.531-1.168-25.703Zm0 0"/><path fill="#a9b2a2" d="m342.773 236.695 3.883 34.848-24.238-2.172Zm0 0"/><path fill="#f1eb8a" d="m346.656 271.543 37.344.383-14.04 15.39Zm0 0"/><path fill="#a9b2a2" d="m346.656 271.543-3.883-34.848L384 271.925Zm0 0"/><path fill="#f1eb8a" d="m358.016 305.113-29.579 40.844-4.851-50.883Zm0 0"/><path fill="#a9b2a2" d="M44.945 204.574 27.473 233.52l-8.848-17.528Zm0 0"/><path fill="#2e222f" d="m90.766 187.852 3.695-9.649 15.922 16.18Zm0 0"/><path fill="#a9b2a2" d="m94.46 178.203-3.694 9.649-5.805-11.575Zm0 0"/><path fill="#a9b2a2" d="m90.766 187.852-19.801-.614 13.996-10.96Zm0 0"/><path fill="#f1eb8a" d="m65.14 283.508 13.368-21.746 9.816 13.535Zm0 0"/><path fill="#a9b2a2" d="m52.602 230.352-25.13 3.168 17.473-28.946Zm0 0"/><path fill="#352932" d="m112.21 147.8 15.962 12.575-19.434 3.496Zm0 0"/><path fill="#2e222f" d="m112.21 147.8-13.534-6.464 13.914-11.207Zm0 0"/><path fill="#342831" d="m126.777 139.984-14.566 7.817.379-17.672Zm0 0"/><path fill="#342832" d="m128.172 160.375-15.961-12.574 14.566-7.817Zm0 0"/><path fill="#a9b2a2" d="m157.86 25.836-32.434 2.543L155.046 0Zm0 0"/><path fill="#2e222f" d="m115.785 82.988.281 12.508-10.375-3.66Zm0 0"/><path fill="#302430" d="m116.066 95.496-.496 8.64-9.879-12.3Zm0 0"/><path fill="#7d7454" d="m115.57 104.137.496-8.64 5.356-.165Zm0 0"/><path fill="#524740" d="m116.066 95.496-.28-12.508 5.636 12.344Zm0 0"/><path fill="#ece688" d="m121.227 124.953-5.657-20.816 15.149 4.48Zm0 0"/><path fill="#4a3f3c" d="m121.227 124.953 5.55 15.031-14.187-9.855Zm0 0"/><path fill="#817756" d="m115.57 104.137 5.657 20.816-8.637 5.176Zm0 0"/><path fill="#e3dc84" d="m126.777 139.984-5.55-15.03 17.21-1.118Zm0 0"/><path fill="#ebe588" d="m121.227 124.953 9.492-16.336 7.719 15.219Zm0 0"/><path fill="#2e222f" d="m168.348 117.91-25.778-9.875 14.446-17.012ZM157.016 91.023l-14.446 17.012-6.652-25.152Zm0 0"/><path fill="#2f232f" d="m142.57 108.035-11.851.582 5.199-25.734Zm0 0"/><path fill="#a9b2a2" d="M112.691 56.84 82.54 42.78l42.887-14.402Zm0 0"/><path fill="#a9b2a2" d="m121.89 62.082-9.199-5.242 12.735-28.461Zm0 0"/><path fill="#a8b1a1" d="m112.691 56.84 9.2 5.242-11.887 7.355Zm0 0"/><path fill="#a9b2a2" d="M82.54 42.781 112.69 56.84l-2.687 12.597Zm0 0"/><path fill="#2f232f" d="m106.465 334.059 8.86-43.262 19.917 10.379Zm0 0"/><path fill="#52443f" d="m135.242 301.176-19.918-10.38 19.953-15.222Zm0 0"/><path fill="#6b5848" d="m157.809 257.05-22.532 18.524-7.336-25.16Zm0 0"/><path fill="#a79664" d="m180.293 248.066 1.719 14.961-24.203-5.976Zm0 0"/><path fill="#b7a96d" d="m182.012 263.027-1.719-14.96 17.75 6.984Zm0 0"/><path fill="#b5a66b" d="m198.043 255.05-17.75-6.984 12.137-12.433Zm0 0"/><path fill="#f1eb8a" d="m246.434 158.797-7.786 7.527-7.156-13.687Zm0 0"/><path fill="#e0d982" d="m213.113 137.586 1.164 15.164-13.87-13.312Zm0 0"/><path fill="#e6df85" d="m213.395 126.652-.282 10.934-12.707 1.851Zm0 0"/><path fill="#f0ea8a" d="m213.113 137.586.282-10.934 7.757 6.715Zm0 0"/><path fill="#e5df85" d="m206.563 212.84-16.004 1.805 5.867-15.91Zm0 0"/><path fill="#a49b66" d="m190.559 214.645-34.59 17.246 22.855-29.18Zm0 0"/><path fill="#2e222f" d="m155.969 231.89 34.59-17.245 1.87 20.988Zm0 0"/><path fill="#c2b974" d="m178.824 202.71-22.855 29.18-4.828-40.945Zm0 0"/><path fill="#f1eb8a" d="m71.695 242.102 18.848-1.918-.906 9.308Zm0 0"/><path fill="#a9b2a1" d="m83.066 229.29 7.477 10.894-18.848 1.918Zm0 0"/><path fill="#f1eb8a" d="m90.543 240.184 13.668 4.566-14.574 4.742Zm0 0"/><path fill="#4c3e3c" d="m119.207 271.824 8.734-21.41 7.336 25.16Zm0 0"/><path fill="#342832" d="m119.207 271.824-17.668-9.765 26.402-11.645Zm0 0"/><path fill="#423638" d="m115.324 290.797 3.883-18.973 16.07 3.75Zm0 0"/><path fill="#a9b2a2" d="m60.695 123.453 25.38 16.32-12.77 18.375Zm0 0"/><path fill="#796f52" d="m129.848 177.336 21.293 13.61-23.223 8.882Zm0 0"/><path fill="#7d7354" d="m143.309 168.172-13.461 9.164-1.676-16.961Zm0 0"/><path fill="#7c7253" d="m151.14 190.945-21.292-13.61 13.46-9.163Zm0 0"/><path fill="#342831" d="m129.848 177.336-15.883-.895 14.207-16.066Zm0 0"/><path fill="#352932" d="m113.965 176.441 15.883.895-1.93 22.492Zm0 0"/><path fill="#f1eb8a" d="m182.984 63.684-4.25-15.293 20.246 7.304Zm0 0"/><path fill="#2e222f" d="m221.152 133.367 3.153-16.652 7.515 10.465Zm0 0"/><path fill="#d8d17f" d="m178.129 159.293-10.75-12.758 11.355.813Zm0 0"/><path fill="#e8e286" d="m178.734 147.348-11.355-.813 7.305-15.457Zm0 0"/><path fill="#eae487" d="m167.379 146.535-6.711-19.375 14.016 3.918Zm0 0"/><path fill="#eee789" d="m167.379 146.535-18.992-4.289 12.281-15.086Zm0 0"/><path fill="#dfd781" d="m167.379 146.535 10.75 12.758-18.04.648Zm0 0"/><path fill="#ddd681" d="m148.387 142.246 18.992 4.29-7.29 13.405Zm0 0"/><path fill="#c6bf76" d="m229.91 134.887-.953 5.61-7.805-7.13Zm0 0"/><path fill="#2e222f" d="m228.957 140.496.953-5.61 11.461.231Zm0 0"/><path fill="#2f232f" d="m241.371 135.117-11.46-.23 1.91-7.707Zm0 0"/><path fill="#352932" d="m229.91 134.887-8.758-1.52 10.668-6.187Zm0 0"/><path fill="#e1db83" d="m148.695 71.145 7.047-11.34 11.738 10.672Zm0 0"/><path fill="#e3dd84" d="m155.742 59.805 12.84-2.14-1.102 12.812Zm0 0"/><path fill="#a9b2a2" d="m135.79 45.43-13.9 16.652 3.536-33.703Zm0 0"/><path fill="#4c413d" d="m121.89 62.082 13.9-16.652-5.5 17.941Zm0 0"/><path fill="#a9b2a2" d="m322.418 269.371-21.453-17.762 41.808-14.914ZM300.965 251.61l-29.574 24.07 6.504-31.758Zm0 0"/><path fill="#a9b2a2" d="m307.656 200.543-6.691 51.066-23.07-7.687Zm0 0"/><path fill="#a9b2a2" d="m300.965 251.61 6.691-51.067 35.117 36.152Zm0 0"/><path fill="#f1eb8a" d="m215.633 64.066-11.211 13.106-5.442-21.477Zm0 0"/><path fill="#f1eb8a" d="m204.422 77.172-21.438-13.488 15.996-7.989Zm0 0"/><path fill="#f1eb8a" d="m182.984 63.684 21.438 13.488-22.192-5.457Zm0 0"/><path fill="#2f242f" d="m204.422 77.172-10.067 14.8-12.125-20.257Zm0 0"/><path fill="#b1a96c" d="m106.465 334.059 27.597 33.046-25.597-1.84Zm0 0"/><path fill="#3b2f35" d="m134.063 367.105-27.598-33.046 38.203 23.718Zm0 0"/><path fill="#5e5445" d="m56.035 338.71 14.7-12.847-.352 37.715Zm0 0"/><path fill="#3b2f36" d="m70.734 325.863-14.699 12.848-1.152-11.969Zm0 0"/><path fill="#4d423d" d="m56.035 338.71 14.348 24.868-24.102-16.465Zm0 0"/><path fill="#372c33" d="m45.676 335.305 10.36 3.406-9.755 8.402Zm0 0"/><path fill="#392e35" d="m56.035 338.71-10.36-3.405 9.208-8.563Zm0 0"/><path fill="#2e222f" d="m166.46 315.207 35.298 7.586-17.262 31.61Zm0 0"/><path fill="#9f9563" d="m201.758 322.793-35.297-7.586 29.613-15.43Zm0 0"/><path fill="#d3cb7c" d="m230.273 323.668-28.515-.875-5.684-23.016Zm0 0"/><path fill="#867957" d="m166.46 315.207-31.218-14.031 27.54-15.262Zm0 0"/><path fill="#372b33" d="m33.547 383.992 2.226-16.496L69.13 384.02Zm0 0"/><path fill="#382c34" d="m35.773 367.496 34.61-3.918-1.254 20.442Zm0 0"/><path fill="#392d34" d="m35.773 367.496.274-10.418 34.336 6.5Zm0 0"/><path fill="#f1eb8a" d="m35.773 367.496-2.226 16.496-12.762-20.476Zm0 0"/><path fill="#f1eb8a" d="m36.047 357.078-.274 10.418-14.988-3.98Zm0 0"/><path fill="#f1eb8a" d="m25.684 345.309-4.899 18.207L.027 334.863ZM20.785 363.516l12.762 20.476L0 384Zm0 0"/><path fill="#f1eb8a" d="m.027 334.863 20.758 28.653L0 384ZM25.684 345.309l2.761-19.5 10.602 18.007Zm0 0"/><path fill="#f1eb8a" d="m28.445 325.809 17.23 9.496-6.628 8.511ZM25.684 345.309.027 334.863l28.418-9.054Zm0 0"/><path fill="#807655" d="m92.652 384.023-22.27-20.445 21.013-5.433Zm0 0"/><path fill="#c5be76" d="m23.527 286.234 23.133 13.793-18.215 25.782Zm0 0"/><path fill="#f1eb8a" d="m23.527 286.234 41.614-2.726-18.48 16.52Zm0 0"/><path fill="#392d35" d="m92.652 295.652-1.41 17.637-11.605-10.64Zm0 0"/><path fill="#382d34" d="m91.242 313.29-20.508 12.573 8.903-23.215Zm0 0"/><path fill="#362a33" d="m92.652 295.652 22.672-4.855-24.082 22.492Zm0 0"/><path fill="#bfb170" d="m218.531 281.305 32.297 4.515-18.238 18.961Zm0 0"/><path fill="#b8b06f" d="m250.828 285.82.824 27.98-19.062-9.019Zm0 0"/><path fill="#d5cc7c" d="m196.074 299.777 22.457-18.472 14.059 23.476Zm0 0"/><path fill="#a9b2a2" d="m252.5 201.078 1.559-14.14 18.867 20.73Zm0 0"/><path fill="#a9b2a2" d="m254.059 186.938 16.472-15.895 2.395 36.625Zm0 0"/><path fill="#f0ea8a" d="m238.648 166.324 10.11 7.031-11.442.415Zm0 0"/><path fill="#a9b2a2" d="m254.059 186.938-5.301-13.583 21.773-2.312Zm0 0"/><path fill="#f1eb8a" d="M356.578 353.32 384 327.883l.008 56.11ZM323.586 295.074l4.851 50.883-39.105-37.184Zm0 0"/><path fill="#a9b2a2" d="m74.207 207.777-29.262-3.203 26.02-17.336Zm0 0"/><path fill="#f1eb8a" d="m52.602 230.352-6.356 25.734-18.773-22.566ZM46.246 256.086l6.356-25.734 19.093 11.75Zm0 0"/><path fill="#f1eb8a" d="m78.508 261.762-32.262-5.676 25.45-13.984Zm0 0"/><path fill="#f1eb8a" d="m46.246 256.086 18.895 27.422-41.614 2.726Zm0 0"/><path fill="#f1eb8a" d="m65.14 283.508-18.894-27.422 32.262 5.676Zm0 0"/><path fill="#a9b2a2" d="m92.855 150.809-6.78-11.036 12.6 1.563ZM92.855 150.809l.696 12.054-20.246-4.715Zm0 0"/><path fill="#a9b2a2" d="m86.074 139.773 6.781 11.036-19.55 7.34ZM87.582 106.047l-7.121-11.27 25.23-2.941ZM80.46 94.777l7.122 11.27-26.887 17.406Zm0 0"/><path fill="#f1eb8a" d="m214.277 152.75 14.68-12.254 2.535 12.14Zm0 0"/><path fill="#f0ea8a" d="m228.957 140.496-14.68 12.254 6.875-19.383Zm0 0"/><path fill="#eee889" d="m214.277 152.75-1.164-15.164 8.04-4.219Zm0 0"/><path fill="#ada46a" d="m202.332 170.371-11.926-14.266 23.871-3.355Zm0 0"/><path fill="#675d49" d="m214.277 152.75-23.87 3.355 10-16.667Zm0 0"/><path fill="#403437" d="m190.406 156.105-11.672-8.757 21.672-7.91Zm0 0"/><path fill="#8d845b" d="m190.406 156.105-12.277 3.188.605-11.945Zm0 0"/><path fill="#ddd781" d="m225.59 216.89 6.523-5.859 1.086 8.094Zm0 0"/><path fill="#f1eb8a" d="m232.113 211.031 8.86 4.235-7.774 3.859Zm0 0"/><path fill="#f0ea8a" d="m232.113 211.031-2.761-8.246 23.148-1.707Zm0 0"/><path fill="#f1eb8a" d="m240.973 215.266-8.86-4.235 20.387-9.953Zm0 0"/><path fill="#342832" d="m237.316 173.77-17.109 11.89 3.234-18.847Zm0 0"/><path fill="#bdac6f" d="m155.969 231.89 24.324 16.176-22.484 8.985Zm0 0"/><path fill="#d1c67a" d="m180.293 248.066-24.324-16.175 36.46 3.742Zm0 0"/><path fill="#6e644d" d="m155.969 231.89-14.598-6.792 9.77-34.153Zm0 0"/><path fill="#786e51" d="m141.371 225.098-12.828 7.047-.625-32.317Zm0 0"/><path fill="#6a5f4b" d="m151.14 190.945-9.769 34.153-13.453-25.27Zm0 0"/><path fill="#776c51" d="m141.371 225.098 1.54 13.797-14.368-6.75Zm0 0"/><path fill="#5c4e43" d="m155.969 231.89-13.059 7.005-1.539-13.797Zm0 0"/><path fill="#6a5948" d="m142.91 238.895-14.969 11.52.602-18.27Zm0 0"/><path fill="#2e222f" d="m104.21 244.75.274-12.629 24.059.024Zm0 0"/><path fill="#a9b2a1" d="m90.543 240.184 13.941-8.063-.273 12.629Zm0 0"/><path fill="#332731" d="m101.648 277.266 17.559-5.442-3.883 18.973Zm0 0"/><path fill="#f1eb8a" d="m101.54 262.059.108 15.207-13.324-1.97Zm0 0"/><path fill="#352932" d="m119.207 271.824-17.559 5.442-.109-15.207Zm0 0"/><path fill="#f1eb8a" d="m101.648 277.266-8.996 18.386-4.328-20.355Zm0 0"/><path fill="#332731" d="m92.652 295.652 8.996-18.386 13.676 13.53Zm0 0"/><path fill="#f1eb8a" d="m219.52 85.844-3.887-21.778 13.71 9.524ZM219.52 85.844l-15.098-8.672 11.21-13.106Zm0 0"/><path fill="#2e222f" d="m213.395 126.652 10.91-9.937-3.153 16.652ZM224.305 116.715l22.804-1.442-15.289 11.907Zm0 0"/><path fill="#a9b2a2" d="m247.11 115.273 10.742-11.593 6.359 19.699ZM241.371 135.117l5.738-19.844 17.102 8.106Zm0 0"/><path fill="#2e222f" d="m247.11 115.273-5.739 19.844-9.55-7.937Zm0 0"/><path fill="#e7e186" d="m155.742 59.805.04-15.301 12.8 13.16Zm0 0"/><path fill="#a9b2a1" d="M155.781 44.504 143 39.289l14.86-13.453Zm0 0"/><path fill="#a9b2a1" d="m155.781 44.504 2.078-18.668 20.875 22.555Zm0 0"/><path fill="#f1eb8a" d="m168.582 57.664-12.8-13.16 22.952 3.887Zm0 0"/><path fill="#a9b2a2" d="m143 39.29-7.21 6.14-10.364-17.051ZM143 39.29l-17.574-10.911 32.433-2.543Zm0 0"/><path fill="#d8d17e" d="m142.828 48.422 12.914 11.383-7.047 11.34Zm0 0"/><path fill="#cfc87a" d="m142.828 48.422 5.867 22.723-18.406-7.774Zm0 0"/><path fill="#c5bd75" d="m135.79 45.43 7.038 2.992-12.539 14.95Zm0 0"/><path fill="#a8b1a1" d="m155.781 44.504-12.953 3.918.172-9.133Zm0 0"/><path fill="#d4cc7c" d="m142.828 48.422 12.953-3.918-.039 15.3Zm0 0"/><path fill="#a8b1a1" d="m143 39.29-.172 9.132-7.039-2.992Zm0 0"/><path fill="#f1eb8a" d="m301.457 272.77 22.129 22.304-34.254 13.7ZM271.39 275.68l30.067-2.91-12.125 36.003Zm0 0"/><path fill="#a9b2a1" d="m300.965 251.61.492 21.16-30.066 2.91Zm0 0"/><path fill="#f1eb8a" d="m323.586 295.074-22.129-22.304 20.961-3.399Zm0 0"/><path fill="#a9b2a2" d="m301.457 272.77-.492-21.16 21.453 17.761Zm0 0"/><path fill="#e4dd84" d="m46.66 300.027 4.367 23.055-22.582 2.727Zm0 0"/><path fill="#f1ea8a" d="m28.445 325.809 22.582-2.727-5.351 12.223Zm0 0"/><path fill="#f0ea8a" d="m51.027 323.082-4.367-23.055 14.508 10.618Zm0 0"/><path fill="#372b34" d="m45.676 335.305 5.351-12.223 3.856 3.66Zm0 0"/><path fill="#342932" d="m51.027 323.082 10.141-12.437-6.285 16.097Zm0 0"/><path fill="#f1eb8a" d="m92.652 295.652-27.511-12.144 23.183-8.211ZM65.14 283.508l27.512 12.144-13.015 6.996Zm0 0"/><path fill="#f1eb8a" d="m61.168 310.645 3.973-27.137 14.496 19.14ZM46.66 300.027l18.48-16.52-3.972 27.138ZM246.434 158.797l2.324 14.558-10.11-7.03Zm0 0"/><path fill="#a9b2a1" d="m248.758 173.355-2.324-14.558 24.097 12.246Zm0 0"/><path fill="#a9b2a2" d="m270.531 171.043-24.097-12.246 12.902-13.504Zm0 0"/><path fill="#2e222f" d="m112.21 147.8-12.16 5.747-1.374-12.211Zm0 0"/><path fill="#2e222f" d="m100.05 153.547-7.195-2.738 5.82-9.473ZM100.05 153.547l12.16-5.746-3.472 16.07ZM93.55 162.863l6.5-9.316 8.688 10.324Zm0 0"/><path fill="#a8b1a1" d="m92.855 150.809 7.196 2.738-6.5 9.316Zm0 0"/><path fill="#a9b2a2" d="m98.043 120.156-11.969 19.617-25.379-16.32Zm0 0"/><path fill="#a9b2a2" d="m87.582 106.047 10.461 14.11-37.348 3.296Zm0 0"/><path fill="#a9b1a1" d="m86.074 139.773 11.969-19.617.633 21.18Zm0 0"/><path fill="#2e222f" d="m98.676 141.336-.633-21.18 14.547 9.973Zm0 0"/><path fill="#2e222f" d="m98.043 120.156 17.527-16.02-2.98 25.993Zm0 0"/><path fill="#2e222f" d="m115.57 104.137-17.527 16.02 7.648-28.321Zm0 0"/><path fill="#a9b2a2" d="m98.043 120.156-10.461-14.11 18.11-14.21Zm0 0"/><path fill="#f1eb8a" d="m223.441 166.813-9.164-14.063 17.215-.113Zm0 0"/><path fill="#d3cc7c" d="m214.277 152.75 9.164 14.063-21.109 3.558Zm0 0"/><path fill="#f1eb8a" d="m238.648 166.324-15.207.488 8.051-14.175Zm0 0"/><path fill="#eae487" d="m223.441 166.813 15.207-.489-1.332 7.446Zm0 0"/><path fill="#655b49" d="m178.129 159.293 4.894 9.719-9.246.25Zm0 0"/><path fill="#695f4b" d="m190.406 156.105-7.383 12.907-4.894-9.719Zm0 0"/><path fill="#5a4f43" d="m173.777 169.262 9.246-.25-6.937 17.183Zm0 0"/><path fill="#bfb873" d="m183.023 169.012 7.383-12.907 11.926 14.266Zm0 0"/><path fill="#655b49" d="m183.023 169.012 19.309 1.36-26.246 15.823Zm0 0"/><path fill="#2e222f" d="m220.207 185.66-17.875-15.289 21.11-3.559Zm0 0"/><path fill="#2e222f" d="m220.207 185.66-23.781 13.074 5.906-28.363ZM220.207 185.66l23.695 1.465-14.55 15.66Zm0 0"/><path fill="#cac378" d="m229.352 202.785 14.55-15.66 8.598 13.953Zm0 0"/><path fill="#5f5446" d="m248.758 173.355-4.856 13.77-6.586-13.355Zm0 0"/><path fill="#2e222f" d="m243.902 187.125-23.695-1.465 17.11-11.89Zm0 0"/><path fill="#e4dd84" d="m243.902 187.125 10.157-.187-1.559 14.14Zm0 0"/><path fill="#ede788" d="m243.902 187.125 4.856-13.77 5.3 13.583Zm0 0"/><path fill="#836d52" d="m127.941 250.414 14.97-11.52 14.898 18.157Zm0 0"/><path fill="#7d6c52" d="m142.91 238.895 13.059-7.004 1.84 25.16Zm0 0"/><path fill="#2f232f" d="m109.168 218.313 18.75-18.485.625 32.317Zm0 0"/><path fill="#2e222f" d="m104.484 232.121 4.684-13.809 19.375 13.833Zm0 0"/><path fill="#a9b2a2" d="m87.195 219.027 5.293 7.63-9.422 2.632Zm0 0"/><path fill="#2e222f" d="m92.488 226.656-5.293-7.629 21.973-.714Zm0 0"/><path fill="#2e222f" d="m92.488 226.656 16.68-8.344-4.684 13.81Zm0 0"/><path fill="#a9b2a2" d="m92.488 226.656-1.945 13.528-7.477-10.895Zm0 0"/><path fill="#a9b2a2" d="m92.488 226.656 11.996 5.465-13.941 8.063ZM69.855 221.668l-24.91-17.094 29.262 3.203Zm0 0"/><path fill="#a9b2a2" d="m87.195 219.027-17.34 2.641 4.352-13.89ZM44.945 204.574l24.91 17.094-17.253 8.684ZM69.855 221.668l17.34-2.64-4.129 10.261Zm0 0"/><path fill="#a9b2a2" d="m52.602 230.352 17.253-8.684 1.84 20.434ZM69.855 221.668l13.211 7.621-11.37 12.813ZM70.965 187.238l19.176 14.239-15.934 6.3Zm0 0"/><path fill="#a9b2a2" d="m90.14 201.477-2.945 17.55-12.988-11.25ZM90.766 187.852l-.625 13.625-19.176-14.239Zm0 0"/><path fill="#2e222f" d="m87.195 219.027 2.946-17.55 19.027 16.835Zm0 0"/><path fill="#a9b2a2" d="m241.453 98.008-12.11-24.418 26.165 10.902Zm0 0"/><path fill="#f1eb8a" d="M241.453 98.008 219.52 85.844l9.824-12.254Zm0 0"/><path fill="#a9b2a2" d="m257.852 103.68-16.399-5.672 14.055-13.516Zm0 0"/><path fill="#a9b2a2" d="m247.11 115.273-5.657-17.265 16.399 5.672Zm0 0"/><path fill="#332731" d="m204.422 77.172 2.969 23.75-13.036-8.95Zm0 0"/><path fill="#342832" d="m219.52 85.844-12.13 15.078-2.968-23.75Zm0 0"/><path fill="#eee889" d="m194.355 91.973 13.036 8.949-10.989 6.27Zm0 0"/><path fill="#f0ea8a" d="m210.043 115.367-8.203 8.371-5.438-16.547Zm0 0"/><path fill="#f1eb8a" d="m210.043 115.367 3.352 11.285-11.555-2.914Zm0 0"/><path fill="#ede788" d="m207.39 100.922 2.653 14.445-13.64-8.176Zm0 0"/><path fill="#2e222f" d="m213.395 126.652-3.352-11.285 14.262 1.348Zm0 0"/><path fill="#2e222f" d="m210.043 115.367-2.652-14.445 16.914 15.793Zm0 0"/><path fill="#ab9d68" d="m250.828 285.82-31.012-29.882 33.192 10.843Zm0 0"/><path fill="#9e9262" d="m250.828 285.82-32.297-4.515 1.285-25.368Zm0 0"/><path fill="#2e222f" d="m212.605 206.34 7.602-20.68 9.145 17.125Zm0 0"/><path fill="#2f232f" d="m212.605 206.34 19.508 4.691-6.523 5.86Zm0 0"/><path fill="#2e222f" d="m232.113 211.031-19.508-4.691 16.747-3.555Zm0 0"/><path fill="#ccc579" d="m212.605 206.34-6.042 6.5-10.137-14.106Zm0 0"/><path fill="#2e222f" d="m220.207 185.66-7.602 20.68-16.18-7.606Zm0 0"/><path fill="#3b2f35" d="m109.168 218.313 1.215-23.93 17.535 5.445Zm0 0"/><path fill="#2e222f" d="m90.14 201.477 20.243-7.094-1.215 23.93Zm0 0"/><path fill="#2e222f" d="m110.383 194.383-20.242 7.094.625-13.625ZM241.453 98.008l-12.66 7.375-9.273-19.54Zm0 0"/><path fill="#2e222f" d="m207.39 100.922 21.403 4.46-4.488 11.333Zm0 0"/><path fill="#2e222f" d="m228.793 105.383-21.402-4.461 12.129-15.078ZM228.793 105.383l18.316 9.89-22.804 1.442Zm0 0"/><path fill="#2e222f" d="m228.793 105.383 12.66-7.375 5.656 17.265Zm0 0"/></svg>