<svg xmlns="http://www.w3.org/2000/svg" width="512" height="512" viewBox="0 0 384 384"><path fill="#daf2e9" d="m316.715 178.941-34.633-28.523L331 132.68Zm0 0"/><path fill="#daf2e9" d="m331 132.68-48.918 17.738 9.527-47.828ZM41.672 33.086 0 54.934V0ZM0 54.934l41.672-21.848 7.828 39.05ZM0 114.508l55.117 3.972-16.047 40.465Zm0 0"/><path fill="#1d2638" d="m181.543 201.441-6.242-19.199 28.117 16.696Zm0 0"/><path fill="#daf2e9" d="m49.5 72.137 30.918 22.015-25.3 24.328Zm0 0"/><path fill="#daf2e9" d="M80.418 94.152 49.5 72.137l42.02-1.875ZM80.418 94.152l11.102-23.89 7.898 19.523ZM100.863 100.914l-20.445-6.762 19-4.367Zm0 0"/><path fill="#1c2537" d="m193.742 93.172-30.793-8.317 11.57-14.27Zm0 0"/><path fill="#daf2e9" d="m384 174.04-67.285 4.901L331 132.68Zm0 0"/><path fill="#daf2e9" d="M384 109.46v64.58l-53-41.36ZM384 55.867 335.633 81.02l-.246-49.36ZM291.61 102.59l44.023-21.57L331 132.68ZM335.633 81.02l-44.024 21.57-2.285-48.277ZM282.082 150.418l-17.383-27.828 26.91-20Zm0 0"/><path fill="#daf2e9" d="m264.7 122.59-6.212-18.309 33.121-1.691Zm0 0"/><path fill="#daf2e9" d="m258.488 104.281-.379-27.3 33.5 25.609Zm0 0"/><path fill="#979c92" d="m41.977 299.098-14.891 23.324L.008 293.035Zm0 0"/><path fill="#daf2e9" d="M35.988 197.46-.02 206.423 0 173.234Zm0 0"/><path fill="#daf2e9" d="M21.488 226.582-.02 206.422l36.008-8.961Zm0 0"/><path fill="#95decb" d="m-.02 206.422 21.508 20.16L0 243.676Zm0 0"/><path fill="#95dfcb" d="m0 243.676 21.488-17.094 16.297 31.328Zm0 0"/><path fill="#95c7b7" d="m262.156 383.984-27.16.032 17.305-20.082Zm0 0"/><path fill="#95ddc9" d="m271.64 291.156 20.165-15.93 1.957 25.079Zm0 0"/><path fill="#95deca" d="m276.95 318.895-24.446 6.828-.887-23.305Zm0 0"/><path fill="#daf2e9" d="m280.516 250.004-26.641-1.34 1.105-9.742Zm0 0"/><path fill="#1c2537" d="m206.691 214 17.653 1.8L223 226.396Zm0 0"/><path fill="#1f2537" d="m253.875 248.664-18.363-8.84 19.468-.902Zm0 0"/><path fill="#1f2637" d="m235.512 239.824 18.363 8.84-12.05 5.262Zm0 0"/><path fill="#daf2e9" d="m288.984 217.191-13.445-35.226 41.176-3.024Zm0 0"/><path fill="#daf2e9" d="m275.54 181.965 6.542-31.547 34.633 28.523ZM39.07 158.945l-3.082 38.516L0 173.234Zm0 0"/><path fill="#daf2e9" d="m0 114.508 39.07 44.437L0 173.235ZM72.172 154.168l13.02 21.36-16.06 11.949ZM161.184 0h50.52L188.96 28.176ZM188.96 28.176l43.93 9.972-42.878 14.543ZM49.5 72.137 87.867 34.48l3.653 35.782ZM0 54.934l49.5 17.203L0 114.507ZM61.793 0 41.672 33.086 0 0ZM0 114.508l49.5-42.371 5.617 46.343ZM41.672 33.086l46.195 1.394L49.5 72.137ZM87.867 34.48 61.793 0h51.832Zm0 0"/><path fill="#daf2e9" d="m61.793 0 26.074 34.48-46.195-1.394ZM111.668 67.89 91.52 70.263l17.12-13.547Zm0 0"/><path fill="#1d2637" d="m187.395 177.785-12.094 4.457 1.937-19.07Zm0 0"/><path fill="#993f44" d="m210.012 204.914 14.332 10.887L206.69 214Zm0 0"/><path fill="#985a5a" d="m159.941 183.598.664-34.395 16.633 13.969Zm0 0"/><path fill="#966d6a" d="m175.3 182.242-15.359 1.356 17.297-20.426Zm0 0"/><path fill="#924549" d="m181.543 201.441-21.602-17.843 15.36-1.356Zm0 0"/><path fill="#1c2537" d="m197.563 74.176-3.82 18.996-19.223-22.586Zm0 0"/><path fill="#914146" d="m143.203 156.383-14.394 8.55-4.196-30.855Zm0 0"/><path fill="#222637" d="m162.95 84.855-5.727-15.925 17.297 1.656Zm0 0"/><path fill="#964347" d="m131.824 62.05 25.399 6.88-29.48 12.867Zm0 0"/><path fill="#1c2637" d="m157.223 68.93 5.726 15.925-35.207-3.058ZM167.39 99.934l-4.44-15.079 30.792 8.317Zm0 0"/><path fill="#965c5c" d="m148.262 131.793-5.637-22.352 30.734 12.403Zm0 0"/><path fill="#984f51" d="m142.625 109.441 5.637 22.352-23.649 2.285Zm0 0"/><path fill="#d9f1e8" d="m340.406 218.215-23.691-39.274L384 174.04Zm0 0"/><path fill="#daf2e9" d="m316.715 178.941 23.691 39.274-51.422-1.024ZM211.703 0h69.258l-48.07 38.148Zm0 0"/><path fill="#daf2e9" d="m280.96 0 8.364 54.313-56.433-16.165Zm0 0"/><path fill="#daf2e9" d="M289.324 54.313 258.11 76.98l-25.218-38.832Zm0 0"/><path fill="#daf2e9" d="m291.61 102.59-33.5-25.61 31.214-22.668Zm0 0"/><path fill="#daf2e9" d="m289.324 54.313 46.063-22.653.246 49.36ZM282.082 150.418l-30.215-12.547L264.7 122.59ZM258.11 76.98l-29.407-3.968 4.188-34.864ZM264.7 122.59l-17.157-3.469 10.945-14.84ZM258.488 104.281l-10.457-8.011 10.078-19.29Zm0 0"/><path fill="#1d2637" d="m148.113 373.773-20.527-21.582 14.746-19.183Zm0 0"/><path fill="#96595a" d="m103.883 330.453 4.312 29.05-37.27 1.364Zm0 0"/><path fill="#953e43" d="m70.926 360.867 18.656 23.145-21.617-.008Zm0 0"/><path fill="#95c1b1" d="m48.238 309.29-21.152 13.132 14.89-23.324Zm0 0"/><path fill="#95dfcb" d="m41.977 299.098-41.97-6.063 37.778-35.125Zm0 0"/><path fill="#95dfcb" d="M37.785 257.91.008 293.035 0 243.675Zm0 0"/><path fill="#96b8aa" d="m262.156 383.984-9.855-20.05 36.933-9.805Zm0 0"/><path fill="#95c7b7" d="m303.82 384-41.664-.016 27.078-29.855Zm0 0"/><path fill="#95deca" d="m271.64 291.156-3.69-22.52 23.855 6.59Zm0 0"/><path fill="#d9f1e8" d="m291.805 275.227-23.856-6.59 12.567-18.633Zm0 0"/><path fill="#95dfcb" d="m267.95 268.637 3.69 22.52-21.027-9.481Zm0 0"/><path fill="#daf2e8" d="m267.95 268.637-14.075-19.973 26.64 1.34Zm0 0"/><path fill="#1c2637" d="m230.145 334.375-4.329 9.695-11.918-6.53Zm0 0"/><path fill="#95deca" d="m242.367 346.266-12.222-11.891 22.359-8.652Zm0 0"/><path fill="#95dcc8" d="m230.145 334.375 12.222 11.89-16.55-2.195Zm0 0"/><path fill="#974145" d="m222.004 322.68-8.508-20.883 14.027-3.254Zm0 0"/><path fill="#1c2637" d="m222.004 322.68 8.14 11.695-16.246 3.164Zm0 0"/><path fill="#95dfcb" d="m250.613 281.676 21.028 9.48-20.024 11.262Zm0 0"/><path fill="#95dfcb" d="m271.64 291.156 5.31 27.739-25.333-16.477Zm0 0"/><path fill="#96b9ab" d="m252.3 363.934 11.473-23.684 25.461 13.879Zm0 0"/><path fill="#95deca" d="m263.773 340.25-21.406 6.016 10.137-20.543Zm0 0"/><path fill="#95d9c6" d="m242.367 346.266 21.406-6.016-11.472 23.684Zm0 0"/><path fill="#712732" d="m253.875 248.664-.719 15.992-11.332-10.73Zm0 0"/><path fill="#95dfcb" d="m253.156 264.656 14.793 3.98-17.336 13.04Zm0 0"/><path fill="#d9f1e8" d="m267.95 268.637-14.794-3.98.719-15.993Zm0 0"/><path fill="#1f2537" d="m235.512 239.824 5.52-18.039 13.948 17.137Zm0 0"/><path fill="#9a2830" d="m241.031 221.785 13.696-1.406.253 18.543Zm0 0"/><path fill="#1c2637" d="m223 226.395 1.344-10.594 16.687 5.984Zm0 0"/><path fill="#1c2537" d="m223 226.395 18.031-4.61-5.52 18.04Zm0 0"/><path fill="#daf2e9" d="m288.984 217.191-8.468 32.813-25.536-11.082ZM254.727 220.379l34.257-3.188-34.004 21.73ZM255.281 202.016l-3.539-22.903 23.797 2.852Zm0 0"/><path fill="#95dcc8" d="m347.516 350.379-33.106-24.574 31.305-20.075Zm0 0"/><path fill="#95bfb0" d="M341.496 384H303.82l17.075-24.598Zm0 0"/><path fill="#95dfcb" d="M363.348 285.129 384 277.215v33.496Zm0 0"/><path fill="#95dcc9" d="m21.488 226.582 25.707-1.973-9.41 33.301Zm0 0"/><path fill="#daf2e9" d="m47.195 224.61-25.707 1.972 14.5-29.121Zm0 0"/><path fill="#95dfcb" d="m73.422 257.48 11.984-18.46 5.36 12.753Zm0 0"/><path fill="#daf2e9" d="m178.324 48.219 10.637-20.043 1.05 24.515Zm0 0"/><path fill="#daf2e9" d="m232.89 38.148-43.93-9.972L211.704 0Zm0 0"/><path fill="#daf2e9" d="m159.531 30.125 29.43-1.95-10.637 20.044ZM161.184 0l-31.125 24.063L113.625 0Zm0 0"/><path fill="#daf2e9" d="m87.867 34.48 42.192-10.417-8.246 19.039Zm0 0"/><path fill="#daf2e9" d="m113.625 0 16.434 24.063L87.867 34.48ZM72.172 154.168l-33.102 4.777 16.047-40.465ZM39.07 158.945l33.102-4.777-3.04 33.309Zm0 0"/><path fill="#daf2e9" d="m35.988 197.46 3.082-38.515 30.063 28.532Zm0 0"/><path fill="#1c2637" d="m143.766 103.066-22.274-8.742 6.25-12.527ZM116.207 110.434l27.559-7.368-1.141 6.375Zm0 0"/><path fill="#1c2637" d="m143.766 103.066-27.559 7.368 5.285-16.11Zm0 0"/><path fill="#352737" d="m120.89 62.035 10.934.016-4.082 19.746Zm0 0"/><path fill="#602b37" d="m111.668 67.89 9.223-5.855 6.851 19.762Zm0 0"/><path fill="#daf2e9" d="m87.867 34.48 20.774 22.235L91.52 70.262Zm0 0"/><path fill="#1f2638" d="m108.582 83.105 3.086-15.214 16.074 13.906Zm0 0"/><path fill="#daf2e9" d="M108.582 83.105 91.52 70.262l20.148-2.371Zm0 0"/><path fill="#83363d" d="m121.492 94.324-12.91-11.219 19.16-1.308Zm0 0"/><path fill="#daf2e9" d="m91.52 70.262 17.062 12.843-9.164 6.68Zm0 0"/><path fill="#782b35" d="m103.883 330.453-12.399-18.238 11.508-7.195Zm0 0"/><path fill="#202637" d="m124.773 296.059-20.89 34.394-.89-25.433Zm0 0"/><path fill="#1c2637" d="m158.184 310.926-15.852 22.082-17.559-36.95Zm0 0"/><path fill="#202637" d="m103.863 287.637 20.91 8.422-21.78 8.96Zm0 0"/><path fill="#774148" d="m168.047 270.234 1.18 25.454-25.758-11.422Zm0 0"/><path fill="#4d2f3c" d="m169.227 295.688-1.18-25.454 24.95 16.477Zm0 0"/><path fill="#82353d" d="m168.047 270.234 39.058 2.133-14.109 14.344Zm0 0"/><path fill="#8f5254" d="m124.773 296.059 18.696-11.793 14.715 26.66Zm0 0"/><path fill="#1c2537" d="M205.895 242.832 206.69 214 223 226.395Zm0 0"/><path fill="#1c2537" d="m205.895 242.832-20.196-24.523L206.691 214Zm0 0"/><path fill="#8e353c" d="m200.523 210.21-18.98-8.769 21.875-2.504Zm0 0"/><path fill="#292536" d="m185.7 218.309 14.823-8.098 6.168 3.789Zm0 0"/><path fill="#daf2e9" d="m245.508 154.996-6.973-11.512 13.332-5.613Zm0 0"/><path fill="#983a3f" d="m238.535 143.484 6.973 11.512-14.84-4.406Zm0 0"/><path fill="#daf2e9" d="m251.867 137.871-13.332 5.613 3.07-10.148ZM247.543 119.121l4.324 18.75-10.262-4.535Zm0 0"/><path fill="#daf2e9" d="m264.7 122.59-12.833 15.281-4.324-18.75Zm0 0"/><path fill="#1c2537" d="m238.535 143.484-16.453-9.336 19.523-.812Zm0 0"/><path fill="#9a3037" d="m222.082 134.148 16.453 9.336-7.867 7.106Zm0 0"/><path fill="#1c2637" d="m187.395 177.785 16.023 21.153-28.117-16.696Zm0 0"/><path fill="#262637" d="m104.773 244.566 5-15.636 17.801-1.559Zm0 0"/><path fill="#202637" d="m120.14 270.875-15.367-26.309 22.801-17.195Zm0 0"/><path fill="#773e45" d="m127.574 227.371 20.766 3.043-10.668 32.41Zm0 0"/><path fill="#95dfcb" d="M100.898 273.152 73.422 257.48l17.344-5.707ZM73.422 257.48l27.476 15.672-32.406 1.114ZM104.773 244.566l-3.875 28.586-10.132-21.379Zm0 0"/><path fill="#202638" d="m100.898 273.152 3.875-28.586 15.368 26.309Zm0 0"/><path fill="#2a2536" d="m94.379 177.523.844-14.472 14.437 2.394Zm0 0"/><path fill="#daf2e9" d="m72.172 154.168 23.05 8.883-10.03 12.476Zm0 0"/><path fill="#daf2e9" d="m95.223 163.05-.844 14.473-9.188-1.996Zm0 0"/><path fill="#572a37" d="m113.52 178.953 15.043 12.79-19.043-1.4Zm0 0"/><path fill="#442837" d="m113.52 178.953 15.289-14.02-.246 26.81Zm0 0"/><path fill="#422736" d="m128.809 164.934-15.29 14.02-3.859-13.509Zm0 0"/><path fill="#2f2636" d="m94.379 177.523 19.14 1.43-4 11.39Zm0 0"/><path fill="#272637" d="m113.52 178.953-19.141-1.43 15.281-12.078Zm0 0"/><path fill="#975254" d="m143.203 156.383 17.402-7.18-.664 34.395Zm0 0"/><path fill="#934448" d="m143.203 156.383 16.738 27.215-16.09 5.472Zm0 0"/><path fill="#987874" d="m174.805 61.336 22.757 12.84-23.042-3.59Zm0 0"/><path fill="#972e35" d="m208.816 111.148-35.457 10.696 20.383-28.672Zm0 0"/><path fill="#1c2537" d="m173.36 121.844-5.97-21.91 26.352-6.762Zm0 0"/><path fill="#993239" d="m208.816 111.148 5.149 15.559-16.207 10.652Zm0 0"/><path fill="#772934" d="m178.348 140.516-4.989-18.672 35.457-10.696Zm0 0"/><path fill="#692531" d="m178.348 140.516 30.468-29.368-11.058 26.211Zm0 0"/><path fill="#1c2537" d="m213.965 126.707 9.793-7.527-1.676 14.968Zm0 0"/><path fill="#985a5b" d="m148.262 131.793-5.059 24.59-18.59-22.305Zm0 0"/><path fill="#986e6b" d="m143.203 156.383 5.059-24.59 12.343 17.41Zm0 0"/><path fill="#daf2e9" d="m159.531 30.125-12.363 13.816-3.293-5.523ZM384 235.535l-43.594-17.32L384 174.039ZM340.406 218.215 318 249.246l-29.016-32.055ZM342.703 274.023 318 249.246l39.59 8.149Zm0 0"/><path fill="#daf2e9" d="m342.703 274.023-24.508-.968-.195-23.809ZM384 55.867 335.387 31.66 384 0Zm0 0"/><path fill="#daf2e9" d="M335.387 31.66 334.992 0H384ZM335.633 81.02 384 55.867v53.594Zm0 0"/><path fill="#daf2e9" d="M335.633 81.02 384 109.46l-53 23.22ZM335.387 31.66 280.96 0h54.031Zm0 0"/><path fill="#daf2e9" d="m335.387 31.66-46.063 22.653L280.961 0ZM232.89 38.148l-19.57 23.504-23.308-8.96Zm0 0"/><path fill="#d9f1e8" d="m228.703 73.012-15.383-11.36 19.57-23.504Zm0 0"/><path fill="#1c2537" d="m182.727 347.273-40.395-14.265 15.852-22.082Zm0 0"/><path fill="#1c2637" d="m142.332 333.008 40.395 14.265-34.614 26.5Zm0 0"/><path fill="#452836" d="m148.113 373.773 52.817 10.211-88.239.028Zm0 0"/><path fill="#95363c" d="m69.598 327.957 34.285 2.496-32.957 30.414Zm0 0"/><path fill="#995f5e" d="m69.598 327.957 21.886-15.742 12.399 18.238Zm0 0"/><path fill="#582734" d="m127.586 352.191-14.895 31.82-4.496-24.507Zm0 0"/><path fill="#642d38" d="m127.586 352.191 20.527 21.582-35.422 10.239Zm0 0"/><path fill="#7c3b42" d="m220.484 366.203 4.426 17.79-23.98-.009Zm0 0"/><path fill="#95333a" d="m231.95 365.703-11.466.5 5.332-22.133Zm0 0"/><path fill="#95c7b7" d="m234.996 384.016-3.047-18.313 20.352-1.77Zm0 0"/><path fill="#872f37" d="m224.91 383.992 7.04-18.289 3.046 18.313Zm0 0"/><path fill="#8c2d36" d="m231.95 365.703-7.04 18.29-4.426-17.79Zm0 0"/><path fill="#95d3c1" d="m231.95 365.703 10.417-19.437 9.934 17.668Zm0 0"/><path fill="#95dac7" d="m242.367 346.266-10.418 19.437-6.133-21.633Zm0 0"/><path fill="#1d2637" d="m225.816 344.07-11.242 18.739-.676-25.27Zm0 0"/><path fill="#903e43" d="m220.484 366.203-5.91-3.394 11.242-18.739Zm0 0"/><path fill="#1c2637" d="m214.574 362.809-31.847-15.536 31.171-9.734Zm0 0"/><path fill="#7b3941" d="m214.574 362.809 5.91 3.394-19.554 17.781Zm0 0"/><path fill="#1c2637" d="m200.93 383.984-52.817-10.21 34.614-26.5Zm0 0"/><path fill="#1c2637" d="m214.574 362.809-13.644 21.175-18.203-36.71Zm0 0"/><path fill="#452a38" d="m197.535 321.355-28.308-25.668 23.77-8.976Zm0 0"/><path fill="#994f51" d="m213.496 301.797-15.96 19.558-4.54-34.644Zm0 0"/><path fill="#1c2537" d="m197.535 321.355-14.808 25.918-24.543-36.347Zm0 0"/><path fill="#3e2635" d="m51.078 360.133 19.848.734-2.961 23.137Zm0 0"/><path fill="#96b0a3" d="M18.5 348.73.004 384l-.008-48.586Zm0 0"/><path fill="#222537" d="m51.078 360.133-14.129-3.598 8.164-7.48Zm0 0"/><path fill="#1f2637" d="m36.95 356.535.675-10.75 7.488 3.27Zm0 0"/><path fill="#96b5a7" d="m18.5 348.73 18.45 7.805L19.952 384Zm0 0"/><path fill="#95c8b7" d="M36.95 356.535 18.5 348.73l19.125-2.945Zm0 0"/><path fill="#953f44" d="m108.195 359.504-18.613 24.508-18.656-23.145Zm0 0"/><path fill="#965052" d="m89.582 384.012 18.613-24.508 4.496 24.508Zm0 0"/><path fill="#592a37" d="m37.625 345.785 6.219-6.64 1.27 9.91Zm0 0"/><path fill="#992a32" d="m69.598 327.957-10.942-15.508 19.094-8.8Zm0 0"/><path fill="#87252f" d="m55.355 331.156 3.301-18.707 10.942 15.508Zm0 0"/><path fill="#1d2638" d="m230.145 334.375 6.02-10.281 16.339 1.629Zm0 0"/><path fill="#1c2637" d="m222.004 322.68 14.16 1.414-6.02 10.281Zm0 0"/><path fill="#974045" d="m236.164 324.094-14.16-1.414 5.52-24.137Zm0 0"/><path fill="#982c34" d="m251.617 302.418-15.453 21.676-8.64-25.551Zm0 0"/><path fill="#9a2e35" d="m252.504 325.723-16.34-1.63 15.453-21.675Zm0 0"/><path fill="#973037" d="m205.895 242.832 23.44 9.555-22.23 19.98Zm0 0"/><path fill="#95ddca" d="m276.95 318.895-5.31-27.739 22.122 9.149Zm0 0"/><path fill="#95decb" d="m263.773 340.25 13.176-21.355 12.285 35.234Zm0 0"/><path fill="#95dfcb" d="m276.95 318.895-13.177 21.355-11.27-14.527Zm0 0"/><path fill="#963339" d="m229.965 274.977-22.86-2.61 22.23-19.98Zm0 0"/><path fill="#1c2537" d="m235.512 239.824-29.617 3.008L223 226.395Zm0 0"/><path fill="#1e2637" d="m229.336 252.387 6.176-12.563 6.312 14.102Zm0 0"/><path fill="#1c2637" d="m205.895 242.832 29.617-3.008-6.176 12.563Zm0 0"/><path fill="#9a2f36" d="m241.031 221.785 14.25-19.77-.554 18.364Zm0 0"/><path fill="#daf2e9" d="m288.984 217.191-33.703-15.175 20.258-20.051Zm0 0"/><path fill="#daf2e9" d="m255.281 202.016 33.703 15.175-34.257 3.188Zm0 0"/><path fill="#95d8c5" d="M347.516 350.379 384 310.71l-.004 42.59Zm0 0"/><path fill="#96b4a6" d="m341.496 384 6.02-33.621 36.476 33.625Zm0 0"/><path fill="#95dfcb" d="m276.95 318.895 37.46 6.91-25.176 28.324Zm0 0"/><path fill="#daf2e9" d="m384 277.215-26.41-19.82 26.41-21.86Zm0 0"/><path fill="#daf2e9" d="m357.59 257.395-17.184-39.18L384 235.535Zm0 0"/><path fill="#daf2e9" d="M357.59 257.395 318 249.246l22.406-31.031Zm0 0"/><path fill="#95dfcb" d="M363.348 285.129 384 310.71l-38.285-4.98Zm0 0"/><path fill="#95d8c5" d="m384 310.71-36.484 39.669-1.801-44.649Zm0 0"/><path fill="#95dfcb" d="m363.348 285.129-20.645-11.106 14.887-16.628Zm0 0"/><path fill="#95dfcb" d="m363.348 285.129-5.758-27.734 26.41 19.82Zm0 0"/><path fill="#95deca" d="m363.348 285.129-17.633 20.601-3.012-31.707Zm0 0"/><path fill="#daf2e9" d="M68.457 217.012 35.988 197.46l33.145-9.984ZM68.457 217.012l-21.262 7.597-11.207-27.148Zm0 0"/><path fill="#292536" d="m91.867 187.512 2.512-9.989 15.14 12.82Zm0 0"/><path fill="#daf2e9" d="m94.379 177.523-2.512 9.989-6.676-11.985ZM91.867 187.512l-22.734-.035 16.058-11.95Zm0 0"/><path fill="#412635" d="m112.664 148.336 16.145 16.598-19.149.511Zm0 0"/><path fill="#1d2637" d="m112.664 148.336-14.477-6.469 12.848-11.512Zm0 0"/><path fill="#2b2536" d="m124.613 134.078-11.949 14.258-1.629-17.98Zm0 0"/><path fill="#3a2635" d="m128.809 164.934-16.145-16.598 11.95-14.258Zm0 0"/><path fill="#daf2e9" d="m80.809 129.992-8.637 24.176-17.055-35.688ZM130.059 24.063l29.472 6.062-15.656 8.293ZM159.531 30.125 161.184 0l27.777 28.176Zm0 0"/><path fill="#daf2e9" d="m159.531 30.125-29.472-6.062L161.184 0ZM107.992 96.738l-7.129 4.176-1.445-11.129Zm0 0"/><path fill="#daf2e9" d="m108.582 83.105-.59 13.633-8.574-6.953Zm0 0"/><path fill="#202537" d="m107.992 96.738 1.293 14.735-8.422-10.559Zm0 0"/><path fill="#2d2637" d="m109.285 111.473-1.293-14.735 8.215 13.696Zm0 0"/><path fill="#874146" d="m116.207 110.434-8.215-13.696 13.5-2.414Zm0 0"/><path fill="#362737" d="m107.992 96.738.59-13.633 12.91 11.22Zm0 0"/><path fill="#8f2730" d="m116.207 110.434 8.406 23.644-13.578-3.723Zm0 0"/><path fill="#582633" d="m109.285 111.473 6.922-1.04-5.172 19.922Zm0 0"/><path fill="#993f43" d="m116.207 110.434 26.418-.993-18.012 24.637Zm0 0"/><path fill="#1c2637" d="m167.39 99.934-23.624 3.132 19.183-18.21ZM162.95 84.855l-19.184 18.211-16.024-21.27ZM143.766 103.066l23.625-3.132 5.968 21.91ZM142.625 109.441l1.14-6.375 29.594 18.778Zm0 0"/><path fill="#daf2e9" d="M108.64 56.715 87.868 34.48l33.945 8.622Zm0 0"/><path fill="#d9f1e8" d="m120.89 62.035-12.25-5.32 13.173-13.613ZM108.64 56.715l12.25 5.32-9.222 5.856Zm0 0"/><path fill="#472b39" d="m143.469 284.266-18.696 11.793-4.632-25.184Zm0 0"/><path fill="#794047" d="m168.047 270.234-30.375-7.41 24.398-24.523Zm0 0"/><path fill="#4a313d" d="m137.672 262.824 30.375 7.41-24.578 14.032Zm0 0"/><path fill="#1c2537" d="m205.895 242.832-21-.793.804-23.73Zm0 0"/><path fill="#974c4f" d="m184.895 242.04-16.848 28.194-5.977-31.933Zm0 0"/><path fill="#99464a" d="m168.047 270.234 16.848-28.195 22.21 30.328Zm0 0"/><path fill="#913139" d="m184.895 242.04 21 .792 1.21 29.535Zm0 0"/><path fill="#995a5a" d="m245.508 154.996-11.305 12.828-3.535-17.234Zm0 0"/><path fill="#993037" d="m213.965 126.707.824 8.098-17.031 2.554Zm0 0"/><path fill="#984c4e" d="m214.79 134.805-.825-8.098 8.117 7.441Zm0 0"/><path fill="#1c2537" d="m187.395 177.785 26.21-12.597 2.067 18.683Zm0 0"/><path fill="#402937" d="m210.012 204.914-9.489 5.297 2.895-11.274Zm0 0"/><path fill="#986362" d="m200.523 210.21 9.489-5.296-3.32 9.086Zm0 0"/><path fill="#994d50" d="M200.523 210.21 185.7 218.31l-4.156-16.868Zm0 0"/><path fill="#984044" d="m181.543 201.441-22.336 23.09.734-40.933Zm0 0"/><path fill="#96373d" d="m185.7 218.309-26.493 6.222 22.336-23.09Zm0 0"/><path fill="#95dfcc" d="m85.406 239.02 19.367 5.546-14.007 7.207Zm0 0"/><path fill="#2d2838" d="m120.14 270.875 17.532-8.05 5.797 21.44Zm0 0"/><path fill="#462938" d="m120.14 270.875 7.434-43.504 10.098 35.453Zm0 0"/><path fill="#202638" d="m103.863 287.637-2.965-14.485 19.243-2.277ZM124.773 296.059l-20.91-8.422 16.278-16.762Zm0 0"/><path fill="#daf2e9" d="m80.809 129.992 9.761 11.258-18.398 12.918Zm0 0"/><path fill="#813a41" d="m128.809 164.934 14.394-8.551.649 32.687Zm0 0"/><path fill="#8e4448" d="m128.563 191.742.246-26.808 15.043 24.136Zm0 0"/><path fill="#995c5c" d="m174.805 61.336 8.11-3.61 14.648 16.45Zm0 0"/><path fill="#993d42" d="m182.914 57.727-8.11 3.609 3.52-13.117Zm0 0"/><path fill="#9a3d42" d="m182.914 57.727-4.59-9.508 11.688 4.472Zm0 0"/><path fill="#1c2537" d="m223.758 119.18.004-15.16 10.554 10.027Zm0 0"/><path fill="#985e5e" d="m177.238 163.172-16.633-13.969 17.743-8.687Zm0 0"/><path fill="#995858" d="m178.348 140.516-17.743 8.687 12.754-27.36Zm0 0"/><path fill="#99484b" d="m160.605 149.203-12.343-17.41 25.097-9.95Zm0 0"/><path fill="#1c2537" d="m223.758 119.18 10.37 4.492-12.046 10.476Zm0 0"/><path fill="#1c2537" d="m222.082 134.148 12.047-10.476 7.476 9.664Zm0 0"/><path fill="#1c2537" d="m234.129 123.672 13.414-4.55-5.938 14.214ZM247.543 119.121l-13.414 4.55.187-9.624Zm0 0"/><path fill="#1c2537" d="m234.129 123.672-10.371-4.492 10.558-5.133Zm0 0"/><path fill="#987873" d="m157.223 68.93 17.582-7.594-.285 9.25Zm0 0"/><path fill="#d9f1e8" d="m129.844 49.96-8.953 12.075.921-18.933Zm0 0"/><path fill="#2f2636" d="m120.89 62.035 8.954-12.074 1.98 12.09Zm0 0"/><path fill="#95deca" d="m345.715 305.73-27.461-14.054 24.45-17.653Zm0 0"/><path fill="#95dfcb" d="m318.254 291.676-.059-18.621 24.508.968Zm0 0"/><path fill="#95dcc9" d="m293.762 300.305 24.492-8.63-3.844 34.13Zm0 0"/><path fill="#95dbc8" d="m318.254 291.676 27.46 14.054-31.304 20.075Zm0 0"/><path fill="#d9f1e8" d="m318 249.246-26.195 25.98-11.29-25.222Zm0 0"/><path fill="#daf2e9" d="M288.984 217.191 318 249.246l-37.484.758Zm0 0"/><path fill="#9a2a32" d="m213.32 61.652-15.757 12.524-7.551-21.485Zm0 0"/><path fill="#99484b" d="m197.563 74.176-14.649-16.45 7.098-5.035Zm0 0"/><path fill="#1e2537" d="m142.332 333.008-38.45-2.555 20.891-34.394Zm0 0"/><path fill="#1d2537" d="m127.586 352.191-23.703-21.738 38.449 2.555Zm0 0"/><path fill="#452635" d="m103.883 330.453 23.703 21.738-19.39 7.313Zm0 0"/><path fill="#412635" d="m56.125 345.191 13.473-17.234 1.328 32.91Zm0 0"/><path fill="#4a2534" d="m69.598 327.957-13.473 17.234-.77-14.035Zm0 0"/><path fill="#5e2935" d="m56.125 345.191-5.047 14.942-5.965-11.078Zm0 0"/><path fill="#5c2633" d="m51.078 360.133 5.047-14.942 14.8 15.676Zm0 0"/><path fill="#622a36" d="m43.844 339.145 12.281 6.046-11.012 3.864Zm0 0"/><path fill="#392636" d="m56.125 345.191-12.281-6.046 11.511-7.989Zm0 0"/><path fill="#1c2537" d="m197.535 321.355 16.363 16.184-31.171 9.734Zm0 0"/><path fill="#985758" d="m222.004 322.68-24.469-1.325 15.961-19.558Zm0 0"/><path fill="#1c2637" d="m197.535 321.355 24.469 1.325-8.106 14.86Zm0 0"/><path fill="#905355" d="m158.184 310.926-14.715-26.66 25.758 11.421Zm0 0"/><path fill="#965053" d="m197.535 321.355-39.351-10.43 11.043-15.238Zm0 0"/><path fill="#232637" d="m34.21 384.008.79-8.762 32.965 8.758Zm0 0"/><path fill="#2c2636" d="m35 375.246 16.078-15.113 16.887 23.87Zm0 0"/><path fill="#1e2637" d="m35 375.246 1.95-18.71 14.128 3.597Zm0 0"/><path fill="#96beaf" d="m35 375.246-.79 8.762L19.954 384Zm0 0"/><path fill="#96bbac" d="M36.95 356.535 35 375.246 19.953 384Zm0 0"/><path fill="#95c2b3" d="M.004 384 18.5 348.73 19.953 384Zm0 0"/><path fill="#95caba" d="m18.5 348.73 8.586-26.308 10.539 23.363Zm0 0"/><path fill="#95d8c5" d="m27.086 322.422 16.758 16.723-6.219 6.64Zm0 0"/><path fill="#95c6b6" d="m27.086 322.422-27.09 12.992.012-42.379Zm0 0"/><path fill="#96b0a3" d="M27.086 322.422 18.5 348.73-.004 335.414Zm0 0"/><path fill="#95dfcb" d="m68.492 274.266-26.515 24.832-4.192-41.188Zm0 0"/><path fill="#962a32" d="m77.75 303.648 13.734 8.567-21.886 15.742Zm0 0"/><path fill="#913038" d="m77.75 303.648 14.91-6.128-1.176 14.695Zm0 0"/><path fill="#6e2834" d="m91.484 312.215 1.176-14.695 10.332 7.5Zm0 0"/><path fill="#4a2c3a" d="m92.66 297.52 11.203-9.883-.87 17.383Zm0 0"/><path fill="#95dcc8" d="m92.66 297.52-14.91 6.128 1.219-12.664Zm0 0"/><path fill="#95353b" d="m229.965 274.977 9.937 14.378-12.379 9.188Zm0 0"/><path fill="#99343a" d="m239.902 289.355 11.715 13.063-24.094-3.875Zm0 0"/><path fill="#972d35" d="m239.902 289.355 10.711-7.68 1.004 20.743Zm0 0"/><path fill="#97494c" d="m213.496 301.797-6.39-29.43 20.417 26.176Zm0 0"/><path fill="#98363c" d="m207.105 272.367 22.86 2.61-2.442 23.566Zm0 0"/><path fill="#8e393f" d="m207.105 272.367 6.391 29.43-20.5-15.086Zm0 0"/><path fill="#daf2e9" d="m251.742 179.113-.012-8.472 23.81 11.324Zm0 0"/><path fill="#daf2e9" d="m251.73 170.64 30.352-20.222-6.543 31.547Zm0 0"/><path fill="#daf2e9" d="m251.73 170.64-.261-6.257 30.613-13.965Zm0 0"/><path fill="#d9f1e8" d="m251.73 170.64-4.785-4.238 4.524-2.02Zm0 0"/><path fill="#96b2a5" d="M320.895 359.402 303.82 384l-14.586-29.871Zm0 0"/><path fill="#95ddc9" d="m314.41 325.805 6.485 33.597-31.66-5.273Zm0 0"/><path fill="#95cdbc" d="m347.516 350.379 36.48 2.922-.004 30.703Zm0 0"/><path fill="#96bbad" d="M347.516 350.379 341.496 384l-20.601-24.598Zm0 0"/><path fill="#daf2e9" d="m47.195 224.61 21.262-7.598-5.238 23.222ZM82.156 205.156l-13.699 11.856.676-29.535Zm0 0"/><path fill="#95dfcb" d="m73.422 257.48-10.203-17.246 22.187-1.214Zm0 0"/><path fill="#95deca" d="m73.422 257.48-4.93 16.786-30.707-16.356Zm0 0"/><path fill="#d9f2e9" d="m96.59 153.563-6.02-12.313 7.618.617Zm0 0"/><path fill="#daf2e9" d="m96.59 153.563-1.367 9.488-23.051-8.883ZM90.57 141.25l6.02 12.313-24.418.605ZM84.555 111.984l-4.137-17.832 20.445 6.762ZM80.418 94.152l4.137 17.832-29.438 6.496Zm0 0"/><path fill="#daf2e9" d="m84.555 111.984-3.746 18.008-25.692-11.512Zm0 0"/><path fill="#9a2c33" d="m216.543 140.441-2.938 24.746-15.847-27.828Zm0 0"/><path fill="#96b5a7" d="m216.543 140.441 5.539-6.293 8.586 16.442Zm0 0"/><path fill="#97807a" d="m216.543 140.441-1.754-5.636 7.293-.657Zm0 0"/><path fill="#992e35" d="m214.79 134.805 1.753 5.636-18.785-3.082Zm0 0"/><path fill="#5a2835" d="m213.605 165.188-24.378-11.758 8.53-16.07Zm0 0"/><path fill="#292637" d="m189.227 153.43-10.88-12.914 19.41-3.157Zm0 0"/><path fill="#532836" d="m189.227 153.43-11.989 9.742 1.11-22.656Zm0 0"/><path fill="#986665" d="m224.344 215.8 7.886-12.613 8.801 18.598Zm0 0"/><path fill="#1c2537" d="m232.23 203.188-10.457-7.043 29.97-17.032Zm0 0"/><path fill="#9a262e" d="m255.281 202.016-23.05 1.172 19.511-24.075Zm0 0"/><path fill="#9a2931" d="m241.031 221.785-8.8-18.597 23.05-1.172Zm0 0"/><path fill="#1c2537" d="m184.895 242.04-22.825-3.74 23.63-19.991Zm0 0"/><path fill="#1f2537" d="m162.07 238.3-2.863-13.769 26.492-6.222Zm0 0"/><path fill="#8e4d50" d="m143.852 189.07 15.355 35.461-10.867 5.883Zm0 0"/><path fill="#945456" d="m159.207 224.531-15.355-35.46 16.09-5.473Zm0 0"/><path fill="#814147" d="m127.574 227.371 16.278-38.3 4.488 41.343Zm0 0"/><path fill="#834248" d="m143.852 189.07-16.278 38.301.989-35.629Zm0 0"/><path fill="#8d4b4f" d="m148.34 230.414 13.73 7.887-24.398 24.523Zm0 0"/><path fill="#924f52" d="m159.207 224.531 2.863 13.77-13.73-7.887Zm0 0"/><path fill="#1c2638" d="m104.773 244.566-.503-16.285 5.503.649Zm0 0"/><path fill="#daf2e9" d="m85.406 239.02 18.864-10.739.503 16.285Zm0 0"/><path fill="#95decb" d="m97.129 284.848-18.16 6.136-10.477-16.718Zm0 0"/><path fill="#95dfcb" d="m100.898 273.152-3.77 11.696-28.636-10.582Zm0 0"/><path fill="#2a293a" d="m103.863 287.637-6.734-2.79 3.77-11.695Zm0 0"/><path fill="#95deca" d="M97.129 284.848 92.66 297.52l-13.691-6.536Zm0 0"/><path fill="#382b3a" d="m92.66 297.52 4.469-12.672 6.734 2.789Zm0 0"/><path fill="#9a2f36" d="m216.898 83.125-3.578-21.473 15.383 11.36Zm0 0"/><path fill="#9a3c41" d="m216.898 83.125-19.335-8.95 15.757-12.523Zm0 0"/><path fill="#1d2637" d="m208.816 111.148 14.942 8.032-9.793 7.527Zm0 0"/><path fill="#1c2537" d="m208.816 111.148 14.946-7.128-.004 15.16Zm0 0"/><path fill="#1c2637" d="M223.762 104.02 244 102.996l-9.684 11.05Zm0 0"/><path fill="#daf2e9" d="m244 102.996 4.031-6.726 10.457 8.011ZM247.543 119.121 244 102.996l14.488 1.285Zm0 0"/><path fill="#1c2537" d="m244 102.996 3.543 16.125-13.227-5.074Zm0 0"/><path fill="#986e6c" d="m157.223 68.93 2.336-23.211 15.246 15.617Zm0 0"/><path fill="#d9f1e8" d="m159.559 45.719-12.391-1.778 12.363-13.816Zm0 0"/><path fill="#daf1e8" d="m159.559 45.719-.028-15.594 18.793 18.094Zm0 0"/><path fill="#9a353b" d="m174.805 61.336-15.246-15.617 18.765 2.5Zm0 0"/><path fill="#daf2e9" d="m143.875 38.418-5.117 5.867-8.7-20.222Zm0 0"/><path fill="#daf2e9" d="m130.059 24.063 8.699 20.222-16.946-1.183Zm0 0"/><path fill="#daf2e9" d="m138.758 44.285-8.914 5.676-8.031-6.86ZM147.168 43.941l-8.41.344 5.117-5.867Zm0 0"/><path fill="#99373d" d="m143.86 53.355 13.363 15.575-25.399-6.88Zm0 0"/><path fill="#983138" d="m129.844 49.96 14.015 3.395-12.035 8.696Zm0 0"/><path fill="#95252e" d="m159.559 45.719-15.7 7.636 3.309-9.414Zm0 0"/><path fill="#933239" d="m143.86 53.355 15.699-7.636-2.336 23.21Zm0 0"/><path fill="#982931" d="m143.86 53.355-5.102-9.07 8.41-.344Zm0 0"/><path fill="#992c33" d="m138.758 44.285 5.101 9.07-14.015-3.394Zm0 0"/><path fill="#95d9c6" d="m291.805 275.227 26.449 16.449-24.492 8.629Zm0 0"/><path fill="#95ddc9" d="m318.254 291.676-26.45-16.45 26.391-2.171Zm0 0"/><path fill="#daf2e9" d="M291.805 275.227 318 249.247l.195 23.808Zm0 0"/><path fill="#96beaf" d="m48.238 309.29-.25 17.155-20.902-4.023Zm0 0"/><path fill="#95d7c5" d="m27.086 322.422 20.902 4.023-4.144 12.7Zm0 0"/><path fill="#95d5c3" d="m47.988 326.445.25-17.156 10.418 3.16Zm0 0"/><path fill="#1e2638" d="m43.844 339.145 4.144-12.7 7.367 4.711Zm0 0"/><path fill="#872630" d="m47.988 326.445 10.668-13.996-3.3 18.707Zm0 0"/><path fill="#95deca" d="m60.629 298.098 7.863-23.832 10.477 16.718Zm0 0"/><path fill="#95dfcb" d="m60.629 298.098-18.652 1 26.515-24.832Zm0 0"/><path fill="#95ddc9" d="m77.75 303.648-17.121-5.55 18.34-7.114Zm0 0"/><path fill="#95dcc9" d="m41.977 299.098 18.652-1-12.39 11.191Zm0 0"/><path fill="#95ddca" d="m58.656 312.45 1.973-14.352 17.121 5.55Zm0 0"/><path fill="#95dcc8" d="m48.238 309.29 12.39-11.192-1.972 14.351Zm0 0"/><path fill="#972d35" d="m250.613 281.676-10.71 7.68-9.938-14.38Zm0 0"/><path fill="#995c5c" d="m245.508 154.996 1.437 11.406-12.742 1.422Zm0 0"/><path fill="#d9f1e8" d="m246.945 166.402-1.437-11.406 5.96 9.387Zm0 0"/><path fill="#daf2e9" d="m282.082 150.418-36.574 4.578 6.36-17.125ZM251.469 164.383l-5.961-9.387 36.574-4.578Zm0 0"/><path fill="#95ddca" d="m314.41 325.805 33.106 24.574-26.621 9.023Zm0 0"/><path fill="#95dfcb" d="m37.785 257.91 9.41-33.3 16.024 15.624Zm0 0"/><path fill="#95deca" d="m73.422 257.48-35.637.43 25.434-17.676Zm0 0"/><path fill="#1e2637" d="m112.664 148.336-10.602 6.195-3.874-12.664Zm0 0"/><path fill="#1c2637" d="m102.063 154.531-5.473-.969 1.597-11.695Zm0 0"/><path fill="#292637" d="m102.063 154.531 10.601-6.195-3.004 17.11Zm0 0"/><path fill="#5d2532" d="m95.223 163.05 6.84-8.519 7.597 10.914Zm0 0"/><path fill="#292839" d="m96.59 153.563 5.472.968-6.84 8.52Zm0 0"/><path fill="#daf2e9" d="M99.168 121.121 90.57 141.25l-9.761-11.258ZM84.555 111.984l14.613 9.137-18.36 8.871Zm0 0"/><path fill="#daf2e9" d="m90.57 141.25 8.598-20.129-.98 20.746Zm0 0"/><path fill="#1d2637" d="m98.188 141.867.98-20.746 11.867 9.234Zm0 0"/><path fill="#392535" d="m99.168 121.121 10.117-9.648 1.75 18.882Zm0 0"/><path fill="#252537" d="m109.285 111.473-10.117 9.648 1.695-20.207Zm0 0"/><path fill="#daf2e9" d="m99.168 121.121-14.613-9.137 16.308-11.07Zm0 0"/><path fill="#9a373d" d="m213.605 165.188 2.938-24.747 14.125 10.149Zm0 0"/><path fill="#1c2637" d="m213.605 165.188 20.598 2.636-18.531 16.047Zm0 0"/><path fill="#99383e" d="m234.203 167.824-20.598-2.637 17.063-14.597Zm0 0"/><path fill="#92333a" d="m177.238 163.172 11.989-9.742 24.378 11.757Zm0 0"/><path fill="#8d2e36" d="m177.238 163.172 36.367 2.016-26.21 12.597Zm0 0"/><path fill="#1c2637" d="m215.672 183.871-12.254 15.066-16.023-21.152Zm0 0"/><path fill="#1c2537" d="m215.672 183.871 29.777-10.328-23.676 22.602Zm0 0"/><path fill="#1c2537" d="m221.773 196.145 23.676-22.602 6.293 5.57Zm0 0"/><path fill="#842e37" d="m246.945 166.402-1.496 7.141-11.246-5.719Zm0 0"/><path fill="#1c2537" d="m245.45 173.543-29.778 10.328 18.531-16.047Zm0 0"/><path fill="#922730" d="m245.45 173.543 6.28-2.902.012 8.472Zm0 0"/><path fill="#992c34" d="m245.45 173.543 1.495-7.14 4.785 4.238Zm0 0"/><path fill="#452635" d="m110.684 208.418 17.879-16.676-.989 35.63Zm0 0"/><path fill="#452736" d="m109.773 228.93.91-20.512 16.891 18.953Zm0 0"/><path fill="#1c2537" d="m104.27 228.281 6.414-19.863-.91 20.512Zm0 0"/><path fill="#daf2e9" d="m89.246 212.938 3.652 10.867-7.316-.973Zm0 0"/><path fill="#1f2537" d="m92.898 223.805-3.652-10.868 21.438-4.519Zm0 0"/><path fill="#1c2537" d="m92.898 223.805 17.786-15.387-6.414 19.863Zm0 0"/><path fill="#daf2e9" d="m92.898 223.805-7.492 15.215.176-16.188Zm0 0"/><path fill="#daf2e9" d="m92.898 223.805 11.372 4.476-18.864 10.739ZM89.246 212.938l-20.789 4.074 13.7-11.856Zm0 0"/><path fill="#daf2e9" d="m68.457 217.012 20.79-4.075-3.665 9.895Zm0 0"/><path fill="#daf2e9" d="m63.219 240.234 5.238-23.222 16.95 22.008Zm0 0"/><path fill="#daf2e9" d="m68.457 217.012 17.125 5.82-.176 16.188ZM69.133 187.477l22.515 12.144-9.492 5.535ZM91.648 199.621l-2.402 13.316-7.09-7.78Zm0 0"/><path fill="#daf2e9" d="m91.867 187.512-.219 12.11-22.515-12.145Zm0 0"/><path fill="#822630" d="m89.246 212.938 2.402-13.317 19.036 8.797Zm0 0"/><path fill="#daf2e9" d="m238.477 92.777-9.774-19.765 29.406 3.968Zm0 0"/><path fill="#9a252d" d="m238.477 92.777-21.579-9.652 11.805-10.113Zm0 0"/><path fill="#daf2e9" d="m248.031 96.27-9.554-3.493 19.632-15.797Zm0 0"/><path fill="#daf2e9" d="m244 102.996-5.523-10.219 9.554 3.493Zm0 0"/><path fill="#1c2537" d="m216.898 83.125-23.156 10.047 3.82-18.996Zm0 0"/><path fill="#1c2637" d="m208.816 111.148-15.074-17.976 30.02 10.848Zm0 0"/><path fill="#8a2932" d="m253.156 264.656-13.105 1.23 1.773-11.96Zm0 0"/><path fill="#7f252f" d="m250.613 281.676-10.562-15.79 13.105-1.23Zm0 0"/><path fill="#98393f" d="m240.05 265.887 10.563 15.789-20.648-6.7Zm0 0"/><path fill="#973239" d="m240.05 265.887-10.714-13.5 12.488 1.539Zm0 0"/><path fill="#96343b" d="m240.05 265.887-10.085 9.09-.63-22.59Zm0 0"/><path fill="#95deca" d="m293.762 300.305 20.648 25.5-37.46-6.91Zm0 0"/><path fill="#1c2537" d="m221.773 196.145 10.457 7.042-7.886 12.614ZM221.773 196.145l2.57 19.656-14.331-10.887Zm0 0"/><path fill="#1c2637" d="m221.773 196.145-11.761 8.77-6.594-5.977ZM215.672 183.871l6.101 12.274-18.355 2.792Zm0 0"/><path fill="#532a37" d="m110.684 208.418-1.164-18.074 19.043 1.398Zm0 0"/><path fill="#262537" d="m91.648 199.621 17.872-9.277 1.164 18.074Zm0 0"/><path fill="#602532" d="m109.52 190.344-17.872 9.277.22-12.11Zm0 0"/><path fill="#1c2537" d="m238.477 92.777-14.067 7.32-7.512-16.972Zm0 0"/><path fill="#1c2637" d="m193.742 93.172 30.668 6.926-.648 3.922Zm0 0"/><path fill="#1c2537" d="m224.41 100.098-30.668-6.926 23.156-10.047ZM224.41 100.098l19.59 2.898-20.238 1.024ZM224.41 100.098l14.067-7.32L244 102.995Zm0 0"/></svg>