<svg xmlns="http://www.w3.org/2000/svg" width="512" height="512" viewBox="0 0 384 384"><path fill="#f6c5b5" d="M26.219 195.254 0 199.172V146.77Zm0 0"/><path fill="#f7c6b5" d="M40.45 54.414 0 78.676V0Zm0 0"/><path fill="#f7c6b5" d="m39.402 106.453 1.047-52.039L72.996 85.16ZM98.922 84.402l-25.926.758 22.149-17.168Zm0 0"/><path fill="#f7c6b5" d="m72.996 85.16 9.027-46.02 13.122 28.852Zm0 0"/><path fill="#f7c6b5" d="m82.023 39.14-9.027 46.02L40.45 54.414Zm0 0"/><path fill="#4a553d" d="m158.398 311.27 28.684-35.762 8.8 25.082Zm0 0"/><path fill="#4a2f2c" d="m177.566 197.543 8.434-15.91 13.676 30.25Zm0 0"/><path fill="#f7c6b5" d="M101.59 100.316 72.996 85.16l25.926-.758Zm0 0"/><path fill="#4a6645" d="m124.723 74.957 8.129-10.598 5.355 17.664Zm0 0"/><path fill="#4a2d2c" d="M203.242 95.906 163.81 85.527l6.46-14.394Zm0 0"/><path fill="#f6c5b4" d="m384 184.555-75.945 13.273 4.738-43.328Zm0 0"/><path fill="#f6c5b5" d="M384 114.84v69.715L312.793 154.5Zm0 0"/><path fill="#f6c5b4" d="M296.52 110.285 384 114.84l-71.207 39.66Zm0 0"/><path fill="#f7c6b5" d="m384 45-87.406-10.195L331.859 0ZM267.605 70.098l45.68 4.492-16.765 35.695Zm0 0"/><path fill="#f6c5b5" d="M10.648 209.926 0 219.859v-20.687ZM0 219.86l10.648-9.934 9.305 12.027Zm0 0"/><path fill="#f6c5b5" d="M10.648 209.926 0 199.172l26.219-3.918Zm0 0"/><path fill="#f6c5b5" d="m19.953 221.953-9.305-12.027 15.57-14.672Zm0 0"/><path fill="#9db380" d="M16.117 235.45 0 219.86l19.953 2.093Zm0 0"/><path fill="#9eb481" d="m0 219.86 16.117 15.59L0 255.335Zm0 0"/><path fill="#9db380" d="m0 255.336 16.117-19.887 8.551 15.63Zm0 0"/><path fill="#67885c" d="m259.422 383.996-24.988-.008-.813-15.215Zm0 0"/><path fill="#4c734b" d="m261.977 358.133 22.601-10.832-3.09 21.191Zm0 0"/><path fill="#9db380" d="m276.707 318.332-23.512 7.711-1.062-23.156Zm0 0"/><path fill="#f6c5b5" d="m267.059 239.527-12.438 11.055.055-11.894Zm0 0"/><path fill="#4a4637" d="m254.621 250.582-10.184-7.547 10.239-4.347Zm0 0"/><path fill="#4a6b47" d="m244.438 243.035 10.183 7.547-18.516 5.266Zm0 0"/><path fill="#f6c5b5" d="M53.535 158.297 26.22 195.254 0 146.77Zm0 0"/><path fill="#f6c6b5" d="M53.535 158.297 0 146.77l39.402-40.317Zm0 0"/><path fill="#f6c5b5" d="m53.535 158.297 24.102 26.933-20.887 16.778ZM156.313 0h50.91l-18.965 29.766ZM154.7 30.273 156.312 0l31.945 29.766ZM197.574 48.254l34.574-11.809-33.023 18.934Zm0 0"/><path fill="#f7c6b5" d="m82.023 39.14 26.43 11.704-13.308 17.148ZM57.063 0 40.448 54.414 0 0ZM82.023 39.14 40.45 54.415 57.063 0ZM0 78.676l39.402 27.777L0 146.77Zm0 0"/><path fill="#f6c5b4" d="m0 78.676 40.45-24.262-1.048 52.04Zm0 0"/><path fill="#f7c6b5" d="m72.55 119.75-33.148-13.297L72.996 85.16ZM106.492 0 82.023 39.14 57.063 0Zm0 0"/><path fill="#4a6545" d="m122.672 92.531 2.05-17.574 13.485 7.066Zm0 0"/><path fill="#f6c5b5" d="m95.145 67.992 8.918 8.645-5.141 7.765ZM111.125 68.8l-7.062 7.837-8.918-8.645Zm0 0"/><path fill="#4a2e2c" d="m117.363 290.332 17.836 11.41-30.52 1.18Zm0 0"/><path fill="#4a5c41" d="m158.398 311.27 12.27-36.891 16.414 1.129Zm0 0"/><path fill="#4a6344" d="m170.668 274.379-12.27 36.89-16.843-40.312Zm0 0"/><path fill="#4a6e48" d="M212.645 166.84 186 181.633l-9.613-16.13Zm0 0"/><path fill="#4a2f2d" d="m177.566 197.543-1.18-32.04 9.614 16.13Zm0 0"/><path fill="#4a302d" d="m115.59 154.617 6.812 30.38-18.472-16.34Zm0 0"/><path fill="#4a4838" d="m139.25 156.797-23.66-2.18 5.945-23.61Zm0 0"/><path fill="#4a513c" d="m163.809 85.527-12.77-14.984 19.23.59Zm0 0"/><path fill="#4a6746" d="m132.852 64.36 18.187 6.183-12.832 11.48Zm0 0"/><path fill="#4a2e2c" d="m151.04 70.543 12.769 14.984-25.602-3.504Zm0 0"/><path fill="#4a2d2c" d="m174.2 119.285-10.391-33.758 39.433 10.38Zm0 0"/><path fill="#4b704b" d="m135.117 108.68 17.352 4.644-11.54 15.633Zm0 0"/><path fill="#4a704a" d="m157.219 137.68-4.75-24.356 21.73 5.961Zm0 0"/><path fill="#4a704a" d="m152.469 113.324 4.75 24.356-16.29-8.723Zm0 0"/><path fill="#f6c5b5" d="m337.746 232.262-29.691-34.434L384 184.555Zm0 0"/><path fill="#f7c6b5" d="M253.39 0h42.333l.87 34.805Zm0 0"/><path fill="#f7c6b5" d="M232.148 36.445 253.391 0l43.203 34.805Zm0 0"/><path fill="#f6c5b5" d="M207.223 0h46.168l-21.243 36.445Zm0 0"/><path fill="#f7c6b5" d="m296.594 34.805 16.691 39.785-45.68-4.492Zm0 0"/><path fill="#f7c6b5" d="m296.594 34.805-28.989 35.293-35.457-33.653ZM384 0v45L331.86 0Zm0 0"/><path fill="#f6c5b5" d="m271.238 147.648-11.058-24.585 36.34-12.778Zm0 0"/><path fill="#f7c6b5" d="m312.793 154.5-41.555-6.852 25.282-37.363ZM260.18 123.063l11.058 24.585-22.25-1.914Zm0 0"/><path fill="#f6c5b5" d="m267.605 70.098-39.293 1.953 3.836-35.606Zm0 0"/><path fill="#f7c6b5" d="m260.18 123.063-1.098-26.383 37.438 13.605ZM296.52 110.285 259.082 96.68l8.523-26.582Zm0 0"/><path fill="#4a322e" d="m145.758 364.688-25.336-25.047 24.27-10.766Zm0 0"/><path fill="#729164" d="m243.484 345.938 18.493 12.195-28.356 10.64Zm0 0"/><path fill="#92a16f" d="M33.473 384h-15.52l11.375-12.848Zm0 0"/><path fill="#4a4335" d="M53.797 360.852 70.074 384l-19.687-.004Zm0 0"/><path fill="#98ac79" d="M27.355 324.266 0 299.14l23.742-12.829Zm0 0"/><path fill="#92a16f" d="m46.656 303.23-19.3 21.036-3.614-37.954Zm0 0"/><path fill="#7b7f4e" d="m0 299.14 27.355 25.126L.031 337.324Zm0 0"/><path fill="#9db380" d="M23.742 286.313 0 299.14v-43.805Zm0 0"/><path fill="#9db380" d="M23.742 286.313 0 255.336l24.668-4.258Zm0 0"/><path fill="#4a714a" d="m261.977 358.133.496 16.558-28.852-5.918Zm0 0"/><path fill="#52774f" d="m262.473 374.691-3.051 9.305-25.8-15.223Zm0 0"/><path fill="#4c734b" d="m262.473 374.691-.496-16.558 19.511 10.36Zm0 0"/><path fill="#52764e" d="m262.473 374.691 21.605 9.301-24.656.004Zm0 0"/><path fill="#618359" d="m284.078 383.992-21.605-9.3 19.015-6.2Zm0 0"/><path fill="#f6c5b5" d="m282.914 271.586-13.379-13.066 24.672-18.196ZM269.535 258.52l-2.476-18.993 27.148.797Zm0 0"/><path fill="#f6c5b5" d="m269.535 258.52 13.38 13.066-31.458 4.816ZM269.535 258.52l-14.914-7.938 12.438-11.055Zm0 0"/><path fill="#4a2d2c" d="m231.219 334.406-5.625 11.016-14.07-8.254Zm0 0"/><path fill="#9db380" d="m243.484 345.938-12.265-11.532 21.976-8.363Zm0 0"/><path fill="#9db380" d="m231.219 334.406 12.265 11.531-17.89-.515Zm0 0"/><path fill="#4a6e48" d="m216.656 323.281-20.773-22.691 30.976-.645Zm0 0"/><path fill="#4a2d2c" d="m216.656 323.281 14.563 11.125-19.696 2.762Zm0 0"/><path fill="#9eb481" d="m275.355 292.398 7.56-20.812 7.538 13.035Zm0 0"/><path fill="#9db380" d="m275.355 292.398-23.898-15.996 31.457-4.816Zm0 0"/><path fill="#9db380" d="m251.457 276.402 23.898 15.996-23.222 10.489ZM275.355 292.398l1.352 25.934-24.574-15.445Zm0 0"/><path fill="#8fa877" d="m261.977 358.133.957-19.567 21.644 8.735Zm0 0"/><path fill="#9db380" d="m262.934 338.566-19.45 7.372 9.711-19.895Zm0 0"/><path fill="#9db380" d="m243.484 345.938 19.45-7.372-.957 19.567Zm0 0"/><path fill="#4a6f49" d="m254.621 250.582-1.512 10.86-17.004-5.594Zm0 0"/><path fill="#f6c5b5" d="m253.11 261.441 16.425-2.921-18.078 17.882ZM269.535 258.52l-16.426 2.921 1.512-10.859Zm0 0"/><path fill="#4a2e2c" d="m244.438 243.035 3.378-10.465 6.86 6.118Zm0 0"/><path fill="#4a7049" d="m247.816 232.57 7.926-4.144-1.066 10.262Zm0 0"/><path fill="#4a2d2c" d="m227.27 237.05-6.11-20.062 18.45 4.102Zm0 0"/><path fill="#4a2d2c" d="m247.816 232.57-20.546 4.48 12.34-15.96Zm0 0"/><path fill="#4a2e2c" d="m227.27 237.05 20.546-4.48-3.379 10.465Zm0 0"/><path fill="#4a2d2c" d="m221.16 216.988 6.11 20.063-17.48-5.207Zm0 0"/><path fill="#f6c5b5" d="m255.742 228.426 11.317 11.101-12.383-.84ZM255.04 204.324l-3.5-19.734 19.042 4.855ZM294.207 240.324l13.848-42.496 29.691 34.434Zm0 0"/><path fill="#f6c5b5" d="m309.969 259.719-15.762-19.395 43.54-8.062Zm0 0"/><path fill="#7d996b" d="m313.168 364.25-28.59-16.95 31.281-3.3Zm0 0"/><path fill="#9db380" d="m358.875 299.93 25.129-24.664-.004 24.05Zm0 0"/><path fill="#f6c5b5" d="m77.637 185.23 2.367 19.704-23.254-2.926Zm0 0"/><path fill="#9db380" d="M16.117 235.45 33.184 232l-8.516 19.078ZM33.184 232l-17.067 3.45 3.836-13.497ZM75.824 261.941l-5.34-21.503 17.325 5.449Zm0 0"/><path fill="#f6c5b5" d="m190.574 51.64 7-3.386 1.551 7.125ZM188.258 29.766l2.316 21.875-13.238-1.883Zm0 0"/><path fill="#f6c5b5" d="m190.574 51.64-2.316-21.874 9.316 18.488Zm0 0"/><path fill="#f7c6b5" d="m232.148 36.445-34.574 11.809-9.316-18.488ZM207.223 0l24.925 36.445-43.89-6.68Zm0 0"/><path fill="#f6c5b5" d="m154.7 30.273 33.558-.507-10.922 19.992ZM108.453 50.844l14.902-25.766 3.051 20.434Zm0 0"/><path fill="#f6c6b5" d="m106.492 0 16.863 25.078-41.332 14.063Zm0 0"/><path fill="#f7c6b5" d="m123.355 25.078-14.902 25.766-26.43-11.703Zm0 0"/><path fill="#f6c5b5" d="m154.7 30.273-31.345-5.195L156.312 0Zm0 0"/><path fill="#f7c6b5" d="m53.535 158.297-14.133-51.844 33.149 13.297Zm0 0"/><path fill="#f6c5b5" d="m26.219 195.254 27.316-36.957 3.215 43.71Zm0 0"/><path fill="#4a2d2c" d="M135.117 108.68 122.672 92.53l15.535-10.508Zm0 0"/><path fill="#4a2e2c" d="m135.117 108.68-19.965 3.851 7.52-20Zm0 0"/><path fill="#4a4938" d="m122.414 60.832 10.438 3.527-8.13 10.598Zm0 0"/><path fill="#4a4c39" d="m111.125 68.8 11.29-7.968 2.308 14.125Zm0 0"/><path fill="#f6c5b5" d="m108.453 50.844 2.672 17.957-15.98-.809Zm0 0"/><path fill="#4a332e" d="m110.3 82.637.825-13.836 13.598 6.156Zm0 0"/><path fill="#f5c5b4" d="m110.3 82.637-6.237-6 7.062-7.836Zm0 0"/><path fill="#4a4436" d="M122.672 92.531 110.3 82.637l14.422-7.68Zm0 0"/><path fill="#f6c5b5" d="m104.063 76.637 6.238 6-11.38 1.765Zm0 0"/><path fill="#4a4737" d="m110.234 323.168-18.156-8.77 12.602-11.476Zm0 0"/><path fill="#4a5c40" d="m92.078 314.398 18.156 8.77-6.851 26.371Zm0 0"/><path fill="#4a302d" d="m135.2 301.742-24.966 21.426-5.554-20.246Zm0 0"/><path fill="#4a503b" d="m170.668 274.379 6.078-19.32 10.336 20.449Zm0 0"/><path fill="#4a6444" d="m176.746 255.059 25.457-3.215-15.121 23.664Zm0 0"/><path fill="#4a533d" d="m141.555 270.957 35.191-15.898-6.078 19.32ZM158.398 311.27l-23.199-9.528 6.356-30.785Zm0 0"/><path fill="#4a2f2d" d="m209.79 231.844-10.114-19.961 21.484 5.105Zm0 0"/><path fill="#f5c5b4" d="m242.64 149.54-3.925-7.49 10.273 3.684Zm0 0"/><path fill="#4a714a" d="m238.715 142.05 3.926 7.49-7.399-.083Zm0 0"/><path fill="#f6c5b5" d="m238.715 142.05 21.465-18.988-11.192 22.672Zm0 0"/><path fill="#f6c5b5" d="m247.66 116.066 12.52 6.996-21.465 18.989Zm0 0"/><path fill="#f6c5b5" d="m259.082 96.68 1.098 26.382-12.52-6.996Zm0 0"/><path fill="#4a704a" d="m218.316 141.742 20.399.309-3.473 7.406Zm0 0"/><path fill="#4a2f2c" d="m186 181.633 20.07 19.543-6.394 10.707Zm0 0"/><path fill="#4a2d2c" d="m212.645 166.84-6.575 34.336L186 181.633Zm0 0"/><path fill="#4a6e49" d="m176.387 165.504 1.18 32.039-24.915-5.824Zm0 0"/><path fill="#4a3830" d="m104.52 244.645 6.062-14.997 16.832 11.512Zm0 0"/><path fill="#4a3731" d="m120.738 265.637-16.218-20.992 22.894-3.485Zm0 0"/><path fill="#4a4838" d="m127.414 241.16 2.3-26.996 27.243 16.305Zm0 0"/><path fill="#4a342f" d="m110.582 229.648 19.133-15.484-2.3 26.996Zm0 0"/><path fill="#9fb481" d="m100.23 269.031-24.406-7.09 11.985-16.054Zm0 0"/><path fill="#9db380" d="m75.824 261.941 24.406 7.09-13.37 11.301Zm0 0"/><path fill="#9fb481" d="m104.52 244.645-4.29 24.386-12.421-23.144Zm0 0"/><path fill="#4a322e" d="m100.23 269.031 4.29-24.386 16.218 20.992Zm0 0"/><path fill="#4a4034" d="m93.543 182.746-.547-16.355 10.934 2.265Zm0 0"/><path fill="#f6c5b5" d="m53.535 158.297 39.461 8.094-15.36 18.84Zm0 0"/><path fill="#f6c5b5" d="m92.996 166.39.547 16.356-15.906 2.484Zm0 0"/><path fill="#4a302d" d="m122.402 184.996-13.41 28.977-9.902-12.809Zm0 0"/><path fill="#4a302d" d="m93.543 182.746 28.86 2.25-23.313 16.168Zm0 0"/><path fill="#4a332e" d="m122.402 184.996-28.859-2.25 10.387-14.09Zm0 0"/><path fill="#4a6e48" d="m152.652 191.719-13.402-34.922 37.137 8.707Zm0 0"/><path fill="#4a714a" d="m190.574 51.64-2.754 9.419-10.484-11.301Zm0 0"/><path fill="#4a6c48" d="m174.2 119.285 29.042-23.379 5.219 16.086Zm0 0"/><path fill="#4b714a" d="m208.46 111.992 6.595 16.457-15.473-1.285Zm0 0"/><path fill="#4a332e" d="m183.781 152.3-9.582-33.015 25.383 7.88Zm0 0"/><path fill="#4a714a" d="m174.2 119.285 34.26-7.293-8.878 15.172Zm0 0"/><path fill="#4a6c48" d="m157.219 137.68-17.969 19.117 1.68-27.84Zm0 0"/><path fill="#4a6a47" d="m139.25 156.797-17.715-25.79 19.395-2.05Zm0 0"/><path fill="#4a714a" d="m187.82 61.059-17.55 10.074 7.066-21.375Zm0 0"/><path fill="#f6c5b5" d="m384 237.55-46.254-5.288L384 184.555ZM337.746 232.262l5.867 42.898-33.644-15.441ZM343.613 275.16l-34.875-.527 1.23-14.914ZM384 45l-70.715 29.59-16.691-39.785Zm0 0"/><path fill="#f6c5b5" d="m384 114.84-70.715-40.25L384 45Zm0 0"/><path fill="#f6c5b4" d="M313.285 74.59 384 114.84l-87.48-4.555Zm0 0"/><path fill="#f7c6b5" d="m331.86 0-35.266 34.805L295.723 0Zm0 0"/><path fill="#f6c5b5" d="m276.64 172.688 31.415 25.14-37.473-8.383Zm0 0"/><path fill="#f6c5b5" d="m308.055 197.828-31.414-25.14 36.152-18.188ZM276.64 172.688l-5.402-25.04 41.555 6.852ZM232.148 36.445 214.48 63.031l-15.355-7.652Zm0 0"/><path fill="#f6c5b5" d="m228.313 72.05-13.833-9.019 17.668-26.586Zm0 0"/><path fill="#4a2d2c" d="m187.242 321.281-41.484 43.406-1.067-35.812Zm0 0"/><path fill="#4a2d2c" d="m158.398 311.27 28.844 10.011-42.55 7.594ZM184.637 365.7l2.605-44.419 24.281 15.887ZM187.242 321.281l-2.605 44.418-38.88-1.012Zm0 0"/><path fill="#4a332e" d="m145.758 364.688 38.879 1.011-24.989 18.313Zm0 0"/><path fill="#4a6846" d="m70.309 332.582 33.074 16.957-33.867 3.02Zm0 0"/><path fill="#4a6e49" d="m70.309 332.582 21.77-18.184 11.304 35.141Zm0 0"/><path fill="#4a593f" d="m103.383 349.54 42.375 15.147-33.383 19.317Zm0 0"/><path fill="#4a4d3a" d="m120.422 339.64 25.336 25.048-42.375-15.149Zm0 0"/><path fill="#4a6544" d="m112.375 384.004 33.383-19.317 13.89 19.325Zm0 0"/><path fill="#4a5f42" d="m210.672 366.863 23.762 17.125h-38.73Zm0 0"/><path fill="#4a5d41" d="m233.621 368.773-22.95-1.91 14.923-21.441Zm0 0"/><path fill="#4a6344" d="m233.621 368.773.813 15.215-23.762-17.125Zm0 0"/><path fill="#9cb27f" d="m243.484 345.938-9.863 22.835-8.027-23.351Zm0 0"/><path fill="#4a2d2c" d="m225.594 345.422-14.922 21.441.851-29.695Zm0 0"/><path fill="#4a2f2c" d="m210.672 366.863-26.035-1.164 26.886-28.531Zm0 0"/><path fill="#4a513c" d="m184.637 365.7 11.066 18.288-36.055.024Zm0 0"/><path fill="#4a4536" d="m184.637 365.7 26.035 1.163-14.969 17.125Zm0 0"/><path fill="#4a6645" d="m187.242 321.281-28.844-10.011 37.485-10.68Zm0 0"/><path fill="#4a2d2c" d="m158.398 311.27-13.707 17.605-9.492-27.133Zm0 0"/><path fill="#95a674" d="M17.563 355.531 0 383.996l.031-46.672Zm0 0"/><path fill="#4a352f" d="m53.797 360.852-16.809-8.97 10.918-3.667Zm0 0"/><path fill="#94a673" d="m17.563 355.531 19.425-3.648-7.66 19.27Zm0 0"/><path fill="#99ad7a" d="m27.355 324.266-9.792 31.265L.03 337.324Zm0 0"/><path fill="#99ad7a" d="m17.563 355.531 9.792-31.265 9.633 27.617Zm0 0"/><path fill="#4a6d48" d="m70.074 384 33.309-34.46 8.992 34.464Zm0 0"/><path fill="#4a4536" d="m36.988 351.883 6.91-14.426 4.008 10.758Zm0 0"/><path fill="#4a5c40" d="m59.89 329.516 6.07-22.223 4.349 25.289Zm0 0"/><path fill="#4a2e2c" d="m231.219 334.406 1.832-10.11 20.144 1.747Zm0 0"/><path fill="#4a2f2c" d="m216.656 323.281 16.395 1.016-1.832 10.11Zm0 0"/><path fill="#4a6b47" d="m233.05 324.297-16.394-1.016 10.203-23.336Zm0 0"/><path fill="#4a6e48" d="m252.133 302.887-19.082 21.41-6.192-24.352Zm0 0"/><path fill="#4a6243" d="m253.195 326.043-20.144-1.746 19.082-21.41Zm0 0"/><path fill="#4a6d48" d="m202.203 251.844 15.094 24.445-30.215-.781Zm0 0"/><path fill="#4a6d49" d="m187.082 275.508 30.215.781-21.414 24.3Zm0 0"/><path fill="#9db380" d="m297.918 299.578-22.563-7.18 15.098-7.777ZM275.355 292.398l22.563 7.18-21.211 18.754Zm0 0"/><path fill="#9db380" d="m297.918 299.578 10.137 23.55-31.348-4.796ZM276.707 318.332l31.348 4.797-23.477 24.172Zm0 0"/><path fill="#9db380" d="m262.934 338.566 13.773-20.234 7.871 28.969ZM276.707 318.332l-13.773 20.234-9.739-12.523Zm0 0"/><path fill="#4a523c" d="m227.27 237.05-17.848.825.367-6.031Zm0 0"/><path fill="#4a6f49" d="m227.27 237.05 17.167 5.985-8.332 12.813Zm0 0"/><path fill="#4a6846" d="m202.203 251.844 25.067-14.793 8.835 18.797Zm0 0"/><path fill="#4a6d48" d="m209.422 237.875 17.848-.824-25.067 14.793Zm0 0"/><path fill="#f6c5b5" d="m276.64 172.688-19.206-8.32 13.804-16.72Zm0 0"/><path fill="#4a714a" d="m239.61 221.09 15.43-16.766.702 24.102Zm0 0"/><path fill="#4a7049" d="m247.816 232.57-8.207-11.48 16.133 7.336Zm0 0"/><path fill="#f6c5b4" d="m294.207 240.324-18.648-23.375 32.496-19.12Zm0 0"/><path fill="#f6c5b5" d="m275.559 216.95 18.648 23.374-27.148-.797ZM308.055 197.828l-32.496 19.121-4.977-27.504ZM275.559 216.95l-20.52-12.626 15.543-14.879Zm0 0"/><path fill="#f6c5b5" d="m275.559 216.95-8.5 22.577-11.317-11.101Zm0 0"/><path fill="#f6c5b4" d="m255.04 204.324 20.519 12.625-19.817 11.477Zm0 0"/><path fill="#9db27f" d="m345.61 327.758 38.39-7.563.012 33.778Zm0 0"/><path fill="#4b714a" d="m341.613 383.96 18.543-15.476 23.836 15.52Zm0 0"/><path fill="#4a7049" d="m360.156 368.484-18.543 15.477-4.531-21.18Zm0 0"/><path fill="#4b724b" d="m313.168 364.25 28.445 19.71-57.535.032Zm0 0"/><path fill="#9db380" d="M308.055 323.129 315.859 344l-31.28 3.3Zm0 0"/><path fill="#4a714a" d="m337.082 362.781 4.531 21.18-28.445-19.711Zm0 0"/><path fill="#4d744c" d="m281.488 368.492 31.68-4.242-29.09 19.742Zm0 0"/><path fill="#4a714a" d="m281.488 368.492 3.09-21.191 28.59 16.949Zm0 0"/><path fill="#f6c5b5" d="M384.004 275.266 363.3 255.367 384 237.551Zm0 0"/><path fill="#f6c5b5" d="m337.746 232.262 25.555 23.105-19.688 19.793Zm0 0"/><path fill="#f6c5b5" d="m363.3 255.367-25.554-23.105L384 237.55Zm0 0"/><path fill="#9db380" d="m384 320.195-25.125-20.265 25.125-.614Zm0 0"/><path fill="#9cb27f" d="m345.61 327.758 13.265-27.828L384 320.195Zm0 0"/><path fill="#9db380" d="m343.613 275.16 40.39.106-25.128 24.664Zm0 0"/><path fill="#f6c5b5" d="m343.613 275.16 19.688-19.793 20.703 19.899ZM37.078 218.082l-10.86-22.828 30.532 6.754Zm0 0"/><path fill="#f6c5b5" d="m37.078 218.082-17.125 3.871 6.266-26.7Zm0 0"/><path fill="#f6c5b4" d="M37.078 218.082 33.184 232l-13.23-10.047Zm0 0"/><path fill="#4a563e" d="m91.07 198.75 2.473-16.004 5.547 18.418Zm0 0"/><path fill="#f6c5b5" d="M93.543 182.746 91.07 198.75l-13.433-13.52ZM91.07 198.75l-11.066 6.184-2.367-19.704Zm0 0"/><path fill="#9db380" d="m61.516 285.063 14.308-23.122 11.035 18.391Zm0 0"/><path fill="#f6c5b4" d="M50.176 233.074 33.184 232l3.894-13.918Zm0 0"/><path fill="#4a2f2d" d="m115.59 154.617-16.274-12.324 11.485-11.242Zm0 0"/><path fill="#4a4034" d="m121.535 131.008-5.945 23.61-4.79-23.567Zm0 0"/><path fill="#f6c5b5" d="m108.32 96.469-6.73 3.847-2.668-15.914ZM110.3 82.637l-1.98 13.832-9.398-12.067Zm0 0"/><path fill="#4a2d2c" d="m108.32 96.469 4.118 17.312-10.848-13.465Zm0 0"/><path fill="#4a322e" d="M112.438 113.781 108.32 96.47l6.832 16.062Zm0 0"/><path fill="#4b563f" d="M115.152 112.531 108.32 96.47l14.352-3.938Zm0 0"/><path fill="#4a513c" d="m108.32 96.469 1.98-13.832 12.372 9.894Zm0 0"/><path fill="#4b6e4a" d="m121.535 131.008-6.383-18.477 19.965-3.851Zm0 0"/><path fill="#4a563e" d="m112.438 113.781 9.097 17.227-10.734.043Zm0 0"/><path fill="#4a6846" d="m121.535 131.008-9.097-17.227 2.714-1.25Zm0 0"/><path fill="#4a6f49" d="m121.535 131.008 13.582-22.328 5.813 20.277Zm0 0"/><path fill="#4a2f2d" d="m152.438 99.133.03 14.191-17.35-4.644Zm0 0"/><path fill="#4a2d2c" d="m174.2 119.285-21.762-20.152 11.37-13.606Zm0 0"/><path fill="#4a2d2c" d="m163.809 85.527-11.371 13.606-14.231-17.11Zm0 0"/><path fill="#4a2e2c" d="m152.438 99.133-17.32 9.547 3.089-26.657ZM152.469 113.324l-.031-14.191 21.761 20.152Zm0 0"/><path fill="#f6c5b5" d="m122.414 60.832-13.96-9.988 17.952-5.332ZM108.453 50.844l13.961 9.988-11.289 7.969Zm0 0"/><path fill="#4a302d" d="m110.234 323.168 24.965-21.426 9.492 27.133Zm0 0"/><path fill="#4a4336" d="m117.363 290.332 3.375-24.695 20.817 5.32Zm0 0"/><path fill="#4a4b39" d="m117.363 290.332 24.192-19.375-6.356 30.785Zm0 0"/><path fill="#4a583f" d="m141.555 270.957 15.402-40.488 19.79 24.59Zm0 0"/><path fill="#4a2e2c" d="m209.79 231.844-13.157.035 3.043-19.996Zm0 0"/><path fill="#4a563e" d="m176.746 255.059 19.887-23.18 5.57 19.965Zm0 0"/><path fill="#4a6f49" d="m196.633 231.879 12.789 5.996-7.219 13.969Zm0 0"/><path fill="#4a6544" d="m209.422 237.875-12.79-5.996 13.157-.035Zm0 0"/><path fill="#4a704a" d="m242.64 149.54-8.16 9.526.762-9.609Zm0 0"/><path fill="#4a6042" d="m218.316 141.742-34.535 10.559 15.801-25.137Zm0 0"/><path fill="#4a7049" d="m215.055 128.45 3.261 13.292-18.734-14.578Zm0 0"/><path fill="#4c724b" d="m199.676 211.883-42.719 18.586 20.61-32.926Zm0 0"/><path fill="#4a704a" d="m156.957 230.469-4.305-38.75 24.914 5.824Zm0 0"/><path fill="#f6c5b4" d="m70.484 240.438 20.528-5.81-3.203 11.259Zm0 0"/><path fill="#f7c6b5" d="m84.234 225.793 6.778 8.836-20.528 5.809Zm0 0"/><path fill="#f6c5b5" d="m91.012 234.629 13.508 10.016-16.711 1.242Zm0 0"/><path fill="#4a5b40" d="m141.555 270.957-14.14-29.797 29.542-10.691Zm0 0"/><path fill="#4a3e33" d="m141.555 270.957-20.817-5.32 6.676-24.477Zm0 0"/><path fill="#4a322e" d="m107.441 277.45-7.21-8.419 20.507-3.394Zm0 0"/><path fill="#4a3530" d="m117.363 290.332-9.922-12.883 13.297-11.812Zm0 0"/><path fill="#f7c6b5" d="m72.55 119.75 11.821 18.398-30.836 20.149Zm0 0"/><path fill="#4a4d3a" d="m122.402 184.996 30.25 6.723-22.937 22.445Zm0 0"/><path fill="#4a3b32" d="m108.992 213.973 13.41-28.977 7.313 29.168Zm0 0"/><path fill="#4a4536" d="m139.25 156.797-16.848 28.2-6.812-30.38Zm0 0"/><path fill="#4a4737" d="m152.652 191.719-30.25-6.723 16.848-28.2Zm0 0"/><path fill="#4a714a" d="m187.82 61.059 2.754-9.418 8.551 3.738Zm0 0"/><path fill="#4a2d2c" d="m215.055 128.45 8.605-22.067 8.125 7.21Zm0 0"/><path fill="#4a704a" d="m183.781 152.3-26.562-14.62 16.98-18.395ZM157.219 137.68l26.562 14.62-7.394 13.204Zm0 0"/><path fill="#4a714b" d="m139.25 156.797 17.969-19.117 19.168 27.824Zm0 0"/><path fill="#4c714c" d="m224.832 133.582-6.516 8.16-3.261-13.293Zm0 0"/><path fill="#4a6d48" d="m218.316 141.742 6.516-8.16 13.883 8.469Zm0 0"/><path fill="#4a2d2c" d="m224.832 133.582 22.828-17.516-8.945 25.985Zm0 0"/><path fill="#4a2d2c" d="m247.66 116.066-22.828 17.516 6.953-19.988ZM224.832 133.582l-9.777-5.133 16.73-14.855Zm0 0"/><path fill="#f4c5b4" d="m131.016 50.172-8.602 10.66 3.992-15.32Zm0 0"/><path fill="#4a4938" d="m122.414 60.832 8.602-10.66 1.836 14.187Zm0 0"/><path fill="#9db380" d="m327.383 299.848 16.23-24.688 15.262 24.77Zm0 0"/><path fill="#9db380" d="m327.383 299.848-18.645-25.215 34.875.527ZM308.055 323.129l19.328-23.281 18.226 27.91ZM327.383 299.848l31.492.082-13.266 27.828Zm0 0"/><path fill="#9db380" d="m297.918 299.578 29.465.27-19.328 23.28Zm0 0"/><path fill="#9db380" d="m327.383 299.848-29.465-.27 10.82-24.945Zm0 0"/><path fill="#f6c5b5" d="m309.969 259.719-27.055 11.867 11.293-31.262Zm0 0"/><path fill="#4a714a" d="m214.48 63.031-13.695 16.914-1.66-24.566ZM200.785 79.945 187.82 61.06l11.305-5.68Zm0 0"/><path fill="#4a714a" d="m187.82 61.059 12.965 18.886-30.515-8.812Zm0 0"/><path fill="#4a2d2c" d="m200.785 79.945 2.457 15.961-32.972-24.773Zm0 0"/><path fill="#4a6846" d="m120.422 339.64-17.04 9.9 6.852-26.372Zm0 0"/><path fill="#4a312d" d="m144.691 328.875-24.27 10.766-10.187-16.473Zm0 0"/><path fill="#4a4034" d="m57.75 343.3 12.559-10.718-.793 19.977Zm0 0"/><path fill="#4a4c3a" d="M70.309 332.582 57.75 343.301l2.14-13.785Zm0 0"/><path fill="#4a3b32" d="m57.75 343.3-3.953 17.552-5.89-12.637Zm0 0"/><path fill="#4a4134" d="M53.797 360.852 57.75 343.3l11.766 9.258Zm0 0"/><path fill="#4a4737" d="m43.898 337.457 13.852 5.844-9.844 4.914Zm0 0"/><path fill="#4a4436" d="m57.75 343.3-13.852-5.843 15.993-7.941Zm0 0"/><path fill="#4a6645" d="m216.656 323.281-29.414-2 8.64-20.691Zm0 0"/><path fill="#4a2e2c" d="m187.242 321.281 29.414 2-5.133 13.887Zm0 0"/><path fill="#4a322e" d="m33.473 384 3.496-12.195 13.418 12.191Zm0 0"/><path fill="#4a3831" d="m36.969 371.805 16.828-10.953-3.41 23.144Zm0 0"/><path fill="#4a322e" d="m36.969 371.805.02-19.922 16.808 8.969Zm0 0"/><path fill="#90a170" d="M36.969 371.805 33.473 384l-4.145-12.848Zm0 0"/><path fill="#94a573" d="m36.988 351.883-.02 19.922-7.64-.653Zm0 0"/><path fill="#919f6d" d="m17.953 384-.39-28.469 11.765 15.621Zm0 0"/><path fill="#95a673" d="m17.563 355.531.39 28.469L0 383.996Zm0 0"/><path fill="#9aae7b" d="m27.355 324.266 16.543 13.191-6.91 14.426Zm0 0"/><path fill="#4a4235" d="M69.516 352.559 70.074 384l-16.277-23.148Zm0 0"/><path fill="#4a6a47" d="m69.516 352.559 33.867-3.02L70.074 384Zm0 0"/><path fill="#9db380" d="m23.742 286.313 37.774-1.25-14.86 18.167Zm0 0"/><path fill="#4a3c32" d="m92.078 314.398-1.73-16.953 14.332 5.477Zm0 0"/><path fill="#4a573e" d="m90.348 297.445 1.73 16.953-26.117-7.105Zm0 0"/><path fill="#4a6343" d="m92.078 314.398-21.77 18.184-4.347-25.289Zm0 0"/><path fill="#4a3f33" d="m90.348 297.445 8.812-12.351 5.52 17.828Zm0 0"/><path fill="#4a302d" d="m99.16 285.094 18.203 5.238-12.683 12.59Zm0 0"/><path fill="#9db380" d="m99.16 285.094-8.812 12.351-3.489-17.113Zm0 0"/><path fill="#4a6444" d="m217.297 276.29 22.273-.33-12.71 23.985Zm0 0"/><path fill="#4a6545" d="m239.57 275.96 12.563 26.927-25.274-2.942Zm0 0"/><path fill="#4a6e49" d="m239.57 275.96 11.887.442.676 26.485Zm0 0"/><path fill="#4a6e48" d="m195.883 300.59 21.414-24.3 9.562 23.655Zm0 0"/><path fill="#f6c5b5" d="m251.54 184.59.67-9.672 18.372 14.527Zm0 0"/><path fill="#f6c5b5" d="m252.21 174.918 24.43-2.23-6.058 16.757Zm0 0"/><path fill="#f6c5b5" d="m252.21 174.918 5.224-10.55 19.207 8.32Zm0 0"/><path fill="#4a7049" d="m234.48 159.066 13.172 7.696-13.539 4.105Zm0 0"/><path fill="#f6c5b4" d="m252.21 174.918-4.558-8.156 9.782-2.395Zm0 0"/><path fill="#8fa776" d="m334.34 351.805-21.172 12.445 2.691-20.25Zm0 0"/><path fill="#69895e" d="m334.34 351.805 2.742 10.976-23.914 1.469Zm0 0"/><path fill="#9db380" d="m345.61 327.758-11.27 24.047L315.86 344Zm0 0"/><path fill="#53774f" d="m360.156 368.484 23.856-14.511-.02 30.03Zm0 0"/><path fill="#708f62" d="m350.172 351.098 9.984 17.386-23.074-5.703Zm0 0"/><path fill="#698a5e" d="m350.172 351.098 33.84 2.875-23.856 14.511Zm0 0"/><path fill="#9cb27f" d="m384.012 353.973-33.84-2.875-4.563-23.34Zm0 0"/><path fill="#f6c5b5" d="m56.75 202.008-6.574 31.066-13.098-14.992Zm0 0"/><path fill="#9db380" d="m50.176 233.074-2.305 22.688L33.184 232ZM33.184 232l14.687 23.762-23.203-4.684Zm0 0"/><path fill="#9db380" d="m47.871 255.762-24.129 30.55.926-35.234ZM47.871 255.762l2.305-22.688 20.308 7.363Zm0 0"/><path fill="#9db380" d="m75.824 261.941-27.953-6.18 22.613-15.323ZM47.871 255.762l13.645 29.3-37.774 1.25Zm0 0"/><path fill="#9db380" d="M61.516 285.063 47.87 255.762l27.953 6.18Zm0 0"/><path fill="#f6c5b5" d="m88.969 153.21-4.598-15.062 14.945 4.145ZM88.969 153.21l4.027 13.18-39.46-8.093Zm0 0"/><path fill="#f6c5b5" d="m84.371 138.148 4.598 15.063-35.434 5.086Zm0 0"/><path fill="#f6c6b5" d="M87.39 108.613 72.997 85.16l28.594 15.156Zm0 0"/><path fill="#f6c6b5" d="m72.996 85.16 14.395 23.453-14.84 11.137Zm0 0"/><path fill="#f6c5b5" d="M106.492 0h49.82l-32.957 25.078Zm0 0"/><path fill="#4a6846" d="m218.316 141.742-3.02 13.89-31.515-3.331Zm0 0"/><path fill="#4a714a" d="m221.16 216.988 15.8-19.758 2.65 23.86Zm0 0"/><path fill="#4a2d2c" d="m236.96 197.23.99-15.578 13.59 2.938Zm0 0"/><path fill="#4a6f49" d="m255.04 204.324-18.08-7.094 14.58-12.64Zm0 0"/><path fill="#4a704a" d="m239.61 221.09-2.65-23.86 18.08 7.094Zm0 0"/><path fill="#4d724d" d="m156.957 230.469 39.676 1.41-19.887 23.18Zm0 0"/><path fill="#4a2d2c" d="m196.633 231.879-39.676-1.41 42.719-18.586Zm0 0"/><path fill="#4a553d" d="m152.652 191.719 4.305 38.75-27.242-16.305Zm0 0"/><path fill="#4a2e2c" d="m104.52 244.645-.407-15.934 6.469.937Zm0 0"/><path fill="#f6c5b5" d="m91.012 234.629 13.101-5.918.407 15.934Zm0 0"/><path fill="#4a2f2d" d="m99.16 285.094 8.281-7.645 9.922 12.883Zm0 0"/><path fill="#9db380" d="m100.23 269.031-1.07 16.063-12.3-4.762Zm0 0"/><path fill="#4a312e" d="m107.441 277.45-8.28 7.644 1.07-16.063Zm0 0"/><path fill="#4a704a" d="m212.719 86.688 1.761-23.657 13.833 9.02Zm0 0"/><path fill="#4a714a" d="m212.719 86.688-11.934-6.743 13.695-16.914Zm0 0"/><path fill="#4a2d2c" d="m223.66 106.383 17.57-7.781-9.445 14.992Zm0 0"/><path fill="#f6c5b5" d="m247.66 116.066-6.43-17.464 17.852-1.922Zm0 0"/><path fill="#4a2d2c" d="m241.23 98.602 6.43 17.464-15.875-2.472Zm0 0"/><path fill="#4a714b" d="m151.04 70.543 3.964-22.742 15.266 23.332Zm0 0"/><path fill="#f6c5b5" d="m155.004 47.8-10.059-2.609 9.754-14.918Zm0 0"/><path fill="#f6c5b5" d="m155.004 47.8-.305-17.527 22.637 19.485Zm0 0"/><path fill="#4a6f49" d="M170.27 71.133 155.004 47.8l22.332 1.957Zm0 0"/><path fill="#f6c5b4" d="m123.355 25.078 18.747 19.485-15.696.949Zm0 0"/><path fill="#f6c5b4" d="m142.102 44.563-11.086 5.609-4.61-4.66Zm0 0"/><path fill="#f6c5b5" d="m144.945 45.191-2.843-.629 12.597-14.289Zm0 0"/><path fill="#f6c5b5" d="m142.102 44.563-18.747-19.485 31.344 5.195Zm0 0"/><path fill="#4a6d48" d="m142.602 54.066 8.437 16.477-18.187-6.184Zm0 0"/><path fill="#4a6b47" d="m131.016 50.172 11.586 3.894-9.75 10.293Zm0 0"/><path fill="#4a6544" d="m155.004 47.8-12.402 6.266 2.343-8.875Zm0 0"/><path fill="#4a6c48" d="m142.602 54.066 12.402-6.265-3.965 22.742Zm0 0"/><path fill="#4a6745" d="m142.602 54.066-.5-9.504 2.843.63Zm0 0"/><path fill="#4a6b47" d="m142.102 44.563.5 9.503-11.586-3.894Zm0 0"/><path fill="#9db380" d="m290.453 284.621 18.285-9.988-10.82 24.945Zm0 0"/><path fill="#9db380" d="m282.914 271.586 25.824 3.047-18.285 9.988Zm0 0"/><path fill="#f6c5b5" d="m309.969 259.719-1.23 14.914-25.825-3.047Zm0 0"/><path fill="#9cb17e" d="m46.656 303.23 3.895 17.704-23.196 3.332Zm0 0"/><path fill="#95a775" d="m27.355 324.266 23.196-3.332-6.653 16.523Zm0 0"/><path fill="#9db380" d="m50.55 320.934-3.894-17.704 19.305 4.063Zm0 0"/><path fill="#4a4134" d="m43.898 337.457 6.653-16.523 9.34 8.582Zm0 0"/><path fill="#4a533d" d="m50.55 320.934 15.41-13.641-6.07 22.223Zm0 0"/><path fill="#9db380" d="m90.348 297.445-28.832-12.382 25.343-4.731ZM61.516 285.063l28.832 12.382-24.387 9.848Zm0 0"/><path fill="#9db380" d="m46.656 303.23 14.86-18.168 4.445 22.231Zm0 0"/><path fill="#4a6444" d="m239.57 275.96 13.54-14.519-1.653 14.961Zm0 0"/><path fill="#4a704a" d="m248.047 156.867-13.567 2.2 8.16-9.528Zm0 0"/><path fill="#4a7049" d="m248.047 156.867-.395 9.895-13.172-7.696Zm0 0"/><path fill="#f5c5b4" d="m248.047 156.867-5.406-7.328 6.347-3.805Zm0 0"/><path fill="#f6c5b4" d="m247.652 166.762.395-9.895 9.387 7.5Zm0 0"/><path fill="#f6c5b5" d="m271.238 147.648-23.191 9.22.941-11.134Zm0 0"/><path fill="#f6c5b5" d="m257.434 164.367-9.387-7.5 23.191-9.219Zm0 0"/><path fill="#66875c" d="m334.34 351.805 15.832-.707-13.09 11.683Zm0 0"/><path fill="#9bb27f" d="m345.61 327.758 4.562 23.34-15.832.707Zm0 0"/><path fill="#4a312e" d="m115.59 154.617-16.024 3.348-.25-15.672Zm0 0"/><path fill="#f6c5b5" d="M99.566 157.965 88.97 153.21l10.347-10.918Zm0 0"/><path fill="#4a2f2d" d="m99.566 157.965 16.024-3.348-11.66 14.04Zm0 0"/><path fill="#4a3a32" d="m92.996 166.39 6.57-8.425 4.364 10.691Zm0 0"/><path fill="#f6c5b5" d="m88.969 153.21 10.597 4.755-6.57 8.426ZM97.477 124.027 84.37 138.148l-11.82-18.398ZM87.39 108.613l10.087 15.414-24.926-4.277ZM84.371 138.148l13.106-14.12 1.84 18.265Zm0 0"/><path fill="#4a2e2c" d="m99.316 142.293-1.84-18.266 13.325 7.024ZM97.477 124.027l14.96-10.246-1.636 17.27Zm0 0"/><path fill="#4a2f2d" d="m112.438 113.781-14.961 10.246 4.113-23.71Zm0 0"/><path fill="#f6c5b5" d="M97.477 124.027 87.39 108.613l14.199-8.297Zm0 0"/><path fill="#738564" d="m234.48 159.066-16.164-17.324 16.926 7.715Zm0 0"/><path fill="#4a7049" d="m234.48 159.066-.367 11.801-21.468-4.027Zm0 0"/><path fill="#4a6f49" d="m215.297 155.633 19.183 3.433-21.835 7.774Zm0 0"/><path fill="#4a704a" d="m218.316 141.742 16.164 17.324-19.183-3.433Zm0 0"/><path fill="#4a523c" d="m183.781 152.3 28.864 14.54-36.258-1.336Zm0 0"/><path fill="#4a6745" d="m183.781 152.3 31.516 3.333-2.652 11.207Zm0 0"/><path fill="#4a2d2c" d="m234.113 170.867-28.043 30.309 6.575-34.336Zm0 0"/><path fill="#4a2e2c" d="m234.113 170.867 11.707 4.188-7.87 6.597Zm0 0"/><path fill="#4a2d2c" d="m237.95 181.652 7.87-6.597 5.72 9.535Zm0 0"/><path fill="#4a6c47" d="m247.652 166.762-1.832 8.293-11.707-4.188Zm0 0"/><path fill="#4a2e2c" d="m245.82 175.055 6.39-.137-.67 9.672Zm0 0"/><path fill="#4a7049" d="m245.82 175.055 1.832-8.293 4.559 8.156Zm0 0"/><path fill="#4a3e33" d="m110.582 229.648-1.59-15.675 20.723.191Zm0 0"/><path fill="#4a2d2c" d="m104.113 228.71 4.88-14.737 1.589 15.675Zm0 0"/><path fill="#f6c5b5" d="m88.328 214.535 5.598 9.188-9.692 2.07Zm0 0"/><path fill="#4a332e" d="m93.926 223.723-5.598-9.188 7.16-1.12Zm0 0"/><path fill="#4a2e2c" d="m108.992 213.973-15.066 9.75 1.562-10.309Zm0 0"/><path fill="#4a2d2c" d="m93.926 223.723 15.066-9.75-4.879 14.738Zm0 0"/><path fill="#f6c5b5" d="m93.926 223.723-2.914 10.906-6.778-8.836ZM93.926 223.723l10.187 4.988-13.101 5.918ZM72.66 218.824l-15.91-16.816 23.254 2.926Zm0 0"/><path fill="#f6c5b5" d="m88.328 214.535-15.668 4.29 7.344-13.891Zm0 0"/><path fill="#f6c6b5" d="m56.75 202.008 15.91 16.816-22.484 14.25Zm0 0"/><path fill="#f6c5b5" d="m72.66 218.824 15.668-4.289-4.094 11.258ZM50.176 233.074l22.484-14.25-2.176 21.613Zm0 0"/><path fill="#f6c5b5" d="m72.66 218.824 11.574 6.969-13.75 14.644ZM91.133 208.36l-2.805 6.175-8.324-9.601Zm0 0"/><path fill="#f6c5b5" d="m91.07 198.75.063 9.61-11.13-3.426Zm0 0"/><path fill="#4a6a47" d="m88.328 214.535 2.805-6.176 4.355 5.055Zm0 0"/><path fill="#f6c5b5" d="m233.531 84.379-5.219-12.328 39.293-1.953Zm0 0"/><path fill="#4a704a" d="m233.531 84.379-20.812 2.308 15.594-14.636Zm0 0"/><path fill="#f7c6b5" d="m259.082 96.68-25.55-12.301 34.073-14.281Zm0 0"/><path fill="#f6c6b5" d="m241.23 98.602-7.699-14.223 25.551 12.3Zm0 0"/><path fill="#4a2e2c" d="m212.719 86.688-9.477 9.218-2.457-15.96ZM215.055 128.45l-6.594-16.458 15.2-5.61Zm0 0"/><path fill="#4a2d2c" d="m208.46 111.992-5.218-16.086 20.418 10.477Zm0 0"/><path fill="#4a5f42" d="m239.57 275.96-3.465-20.112 17.004 5.593Zm0 0"/><path fill="#4a583f" d="m236.105 255.848 3.465 20.113-22.273.328Zm0 0"/><path fill="#4a5c40" d="m236.105 255.848-18.808 20.441-15.094-24.445Zm0 0"/><path fill="#9cb280" d="m308.055 323.129 37.554 4.629L315.86 344Zm0 0"/><path fill="#4a2d2c" d="m206.07 201.176 28.043-30.309 3.836 10.785Zm0 0"/><path fill="#492d2c" d="m206.07 201.176 30.89-3.946-15.8 19.758Zm0 0"/><path fill="#4a2d2c" d="m236.96 197.23-30.89 3.946 31.88-19.524Zm0 0"/><path fill="#557651" d="m199.676 211.883 6.394-10.707 15.09 15.812Zm0 0"/><path fill="#4a6042" d="m95.488 213.414 3.602-12.25 9.902 12.809Zm0 0"/><path fill="#4a6e48" d="m91.133 208.36 7.957-7.196-3.602 12.25Zm0 0"/><path fill="#4a6c48" d="m99.09 201.164-7.957 7.195-.063-9.609Zm0 0"/><path fill="#4b724b" d="m233.531 84.379-5.515 8.07-15.297-5.761Zm0 0"/><path fill="#4a2d2c" d="m203.242 95.906 24.774-3.457-4.356 13.934Zm0 0"/><path fill="#4a2d2c" d="m228.016 92.45-24.774 3.456 9.477-9.219ZM228.016 92.45l13.214 6.152-17.57 7.78Zm0 0"/><path fill="#4a704a" d="m228.016 92.45 5.515-8.071 7.7 14.223Zm0 0"/></svg>