<svg xmlns="http://www.w3.org/2000/svg" width="512" height="512" viewBox="0 0 384 384"><path fill="#fefcfe" d="m280.164 160.793 40.031-43.547 9.465 73.379Zm0 0"/><path fill="#fffdff" d="M55.223 45.738-.04 62.465 0 0ZM.004 129.383l74.078-25.02.625 22.508ZM55.223 45.738 90.535 72.84l-16.453 31.523Zm0 0"/><path fill="#fffdff" d="m101.715 38.75-11.18 34.09-35.312-27.102ZM74.082 104.363 90.535 72.84l6.988 19.515ZM100.156 102.813l-26.074 1.55 23.441-12.008Zm0 0"/><path fill="#e3d58b" d="m175.223 162.707-15.352 11.254-1.906-20.652Zm0 0"/><path fill="#ded58d" d="m159.871 173.96 15.352-11.253-6.227 18.527Zm0 0"/><path fill="#b1a07a" d="m124.648 78.594 1.235-21.32 10.105 25.308Zm0 0"/><path fill="#352a55" d="m183.57 90.719-23.597-2.895 11.09-15.597Zm0 0"/><path fill="#fefcfe" d="M320.195 117.246 384 150.523l-54.34 40.102Zm0 0"/><path fill="#fefcfe" d="m383.996 78.953.004 71.57-63.805-33.277Zm0 0"/><path fill="#fffdff" d="m285.438 51.176 51.132-1.88-16.375 67.95ZM280.164 160.793l-11.773-30.953 51.804-12.594ZM285.438 51.176l-38.239 19.836-14.582-37.375Zm0 0"/><path fill="#fffdff" d="m268.39 129.84-.327-30.59 52.132 17.996Zm0 0"/><path fill="#fffdff" d="m268.063 99.25 17.375-48.074 34.757 66.07Zm0 0"/><path fill="#352a55" d="m208.27 345.09-17.387 17.98-12.156-21.605Zm0 0"/><path fill="#fefdff" d="M-.004 227.598 0 180.754l22.008 32.012Zm0 0"/><path fill="#fefcfe" d="M22.008 212.766 0 180.754l47.95 17.23ZM20.809 229.738l-20.813-2.14 22.012-14.832Zm0 0"/><path fill="#8fe5ae" d="m-.004 227.598 20.813 2.14-20.813 21.95Zm0 0"/><path fill="#97e3ab" d="m-.004 251.688 20.813-21.95 21.695 16.207Zm0 0"/><path fill="#1efbdd" d="m275.414 384.012-41.398-.008-.793-15.281Zm0 0"/><path fill="#72eaba" d="m252.598 273.836 38.02-2.168 4.741 19.934Zm0 0"/><path fill="#352a55" d="m207 335.785 1.27 9.305-29.543-3.625Zm0 0"/><path fill="#88e6b1" d="m279.45 316.836-28.208 7.754.403-12.742Zm0 0"/><path fill="#fffdff" d="m281.64 214.29-29.023 31.382 1.574-25.133Zm0 0"/><path fill="#362b55" d="m201.035 212.41 18.61 4.594-12.915 20.305Zm0 0"/><path fill="#eed186" d="m252.617 245.672-6.453-2.59 8.027-22.543Zm0 0"/><path fill="#d2ba80" d="m246.164 243.082 6.453 2.59-12.34 10.742Zm0 0"/><path fill="#fefcfe" d="M59.086 161.164 0 180.754l.004-51.371ZM59.086 161.164l-11.137 36.82L0 180.754Zm0 0"/><path fill="#fefcfe" d="M59.086 161.164.004 129.383l74.703-2.512Zm0 0"/><path fill="#fffdff" d="m59.086 161.164 24.371 13.95-8.812 18.78ZM75.176 0 55.223 45.738 0 0ZM101.715 38.75l-46.492 6.988L75.176 0Zm0 0"/><path fill="#97e3ab" d="m-.04 62.465 74.122 41.898-74.078 25.02Zm0 0"/><path fill="#fefcfe" d="m-.04 62.465 55.263-16.727 18.859 58.625Zm0 0"/><path fill="#fffdff" d="m129.11 0-27.395 38.75L75.175 0Zm0 0"/><path fill="#d4bd81" d="m121.941 94.879 2.707-16.285 11.34 3.988Zm0 0"/><path fill="#fffdff" d="M111.652 68.168 90.535 72.84l11.18-34.09Zm0 0"/><path fill="#9b9277" d="m163.703 289.277-27.777 11.368 2.66-32.875Zm0 0"/><path fill="#382f57" d="m183.43 180.258-10.47 19.066-3.964-18.09Zm0 0"/><path fill="#4f455e" d="m112.156 205.066 16.899-8.957-.989 26.672Zm0 0"/><path fill="#676c6f" d="m112.156 205.066-.3-20.73 17.199 11.773Zm0 0"/><path fill="#e5d48a" d="m159.871 173.96-14.809-.062 12.903-20.59Zm0 0"/><path fill="#362b55" d="m192.52 75.438-8.95 15.28-12.507-18.491Zm0 0"/><path fill="#372c55" d="m174.586 123.191-21.402-11.601 15.543-8.324Zm0 0"/><path fill="#494660" d="m125.977 156.598-12.524 12.34-5.164-9Zm0 0"/><path fill="#545264" d="m113.453 168.938 12.524-12.34 3.468 15.25Zm0 0"/><path fill="#e2d48b" d="m145.063 173.898-5.75-18.918 18.652-1.671Zm0 0"/><path fill="#b8c68f" d="m139.313 154.98 5.75 18.918-15.618-2.05Zm0 0"/><path fill="#c2c68c" d="m125.977 156.598 13.335-1.618-9.867 16.868Zm0 0"/><path fill="#cec085" d="m139.313 154.98-13.336 1.618.777-15.004Zm0 0"/><path fill="#352a55" d="m159.973 87.824-14.02-14.93 25.11-.667Zm0 0"/><path fill="#aea47d" d="m125.883 57.273 20.07 15.622-9.965 9.687Zm0 0"/><path fill="#352a55" d="m145.953 72.895 14.02 14.93-23.985-5.243ZM168.727 103.266l-8.754-15.442 23.597 2.895Zm0 0"/><path fill="#f4d083" d="m134.27 107.84 18.914 3.75-17.301 12.972Zm0 0"/><path fill="#80e8b4" d="m343.824 286.395-16.816-13.72 25.383-.124Zm0 0"/><path fill="#fffdff" d="m255.254 0 30.184 51.176-52.82-17.54ZM280.164 160.793l-25.297-14.98 13.524-15.973ZM221.07 67.727l-17.015-19.41 28.562-14.68Zm0 0"/><path fill="#fffdff" d="m247.2 71.012-26.13-3.285 11.547-34.09ZM268.39 129.84l-20.835-10.77 20.507-19.82Zm0 0"/><path fill="#fffdff" d="m268.063 99.25-20.864-28.238 38.238-19.836Zm0 0"/><path fill="#403f5f" d="m142.016 367.383 9.539-26.578 4.199 35.37Zm0 0"/><path fill="#3c375b" d="m142.016 367.383-16.5-17.031 26.039-9.547Zm0 0"/><path fill="#4df2ca" d="m241.902 346.453 15.883 10.703-24.562 11.567Zm0 0"/><path fill="#1efbdd" d="m33.191 384.008-14.504-.004 2.09-20.137Zm0 0"/><path fill="#8de5af" d="M43.61 301.066-.005 289.984l37.934-17.226Zm0 0"/><path fill="#26f9da" d="M24.832 327.586 0 338.836l-.004-48.852Zm0 0"/><path fill="#92e4ad" d="M37.93 272.758-.004 289.984v-38.296Zm0 0"/><path fill="#90e5ae" d="m37.93 272.758-37.934-21.07 42.508-5.743Zm0 0"/><path fill="#20fadd" d="m257.785 357.156 17.63 26.856-42.192-15.29Zm0 0"/><path fill="#fefcfe" d="m252.598 273.836 22.37-22.75 15.65 20.582Zm0 0"/><path fill="#fefcfe" d="m290.617 271.668-15.648-20.582 27.3-10.559Zm0 0"/><path fill="#fefcfe" d="m274.969 251.086 6.672-36.797 20.629 26.238ZM274.969 251.086l-22.352-5.414 29.024-31.383Zm0 0"/><path fill="#352a55" d="m207 335.785 23.285-1.414-22.015 10.719Zm0 0"/><path fill="#3f3659" d="m230.285 334.371-4.984 12.043-17.031-1.324Zm0 0"/><path fill="#6decbc" d="m241.902 346.453-11.617-12.082 14.063-2.758Zm0 0"/><path fill="#65edc0" d="m230.285 334.371 11.617 12.082-16.601-.039Zm0 0"/><path fill="#cdd793" d="m218.395 323.523-6.192-13.074 16.715-3.715Zm0 0"/><path fill="#352a55" d="m218.395 323.523 11.89 10.848L207 335.785Zm0 0"/><path fill="#82e8b4" d="m249.531 290.094 3.067-16.258 42.761 17.766Zm0 0"/><path fill="#7fe8b5" d="m249.531 290.094 29.918 26.742-27.804-4.988Zm0 0"/><path fill="#50f1c8" d="m251.242 324.59 8.211 15.746-15.105-8.723Zm0 0"/><path fill="#4ef1c9" d="m259.453 340.336-17.55 6.117 2.445-14.84Zm0 0"/><path fill="#49f3cc" d="m241.902 346.453 17.551-6.117-1.668 16.82Zm0 0"/><path fill="#ddc482" d="m252.617 245.672-.02 28.164-12.32-17.422Zm0 0"/><path fill="#fefcfe" d="m274.969 251.086-22.371 22.75.02-28.164Zm0 0"/><path fill="#f0d286" d="m246.164 243.082-4.91-18.148 12.937-4.395Zm0 0"/><path fill="#352a55" d="m225.727 244.281-6.082-27.277 11.933 2.262Zm0 0"/><path fill="#362a55" d="m241.254 224.934-15.527 19.347 5.851-25.015Zm0 0"/><path fill="#352a55" d="m225.727 244.281 15.527-19.347 4.91 18.148ZM219.645 217.004l6.082 27.277-18.997-6.972Zm0 0"/><path fill="#fefcfe" d="m344.031 241.71-41.761-1.183 27.39-49.902Zm0 0"/><path fill="#82e7b3" d="m366.71 302.172 17.29-29.39.004 30.632Zm0 0"/><path fill="#a3e1a6" d="m20.809 229.738 27.027-3.758-5.332 19.965Zm0 0"/><path fill="#fefdfe" d="m47.836 225.98-27.027 3.758 1.199-16.972Zm0 0"/><path fill="#87e6b1" d="m69.426 264.879 4.715-26.387 14.394 12.965Zm0 0"/><path fill="#fefcfe" d="m179.61 49.395 24.445-1.079-3.95 9.207Zm0 0"/><path fill="#fffdff" d="m179.61 49.395 14.296-19.657 10.149 18.578Zm0 0"/><path fill="#fffdff" d="m232.617 33.637-28.562 14.68-10.149-18.579ZM232.617 33.637 195.227 0h60.027Zm0 0"/><path fill="#fffdff" d="m195.227 0 37.39 33.637-38.71-3.899ZM158.02 26.246l35.886 3.492-14.297 19.657ZM195.227 0 158.02 26.246 129.11 0ZM101.715 38.75l29.847-5.582-3.292 12.27Zm0 0"/><path fill="#fffdff" d="m129.11 0 2.452 33.168-29.847 5.582Zm0 0"/><path fill="#fefcfe" d="m47.95 197.984 11.136-36.82 15.559 32.73Zm0 0"/><path fill="#352a55" d="M134.27 107.84 121.94 94.879l14.047-12.297Zm0 0"/><path fill="#352a55" d="m134.27 107.84-17.836-1.52 5.507-11.441Zm0 0"/><path fill="#464661" d="m111.652 68.168 14.23-10.895-1.234 21.32Zm0 0"/><path fill="#352a55" d="m107.707 83.238 3.945-15.07 12.996 10.426Zm0 0"/><path fill="#fffdff" d="M107.707 83.238 90.535 72.84l21.117-4.672Zm0 0"/><path fill="#4d435d" d="m121.941 94.879-14.234-11.64 16.941-4.645Zm0 0"/><path fill="#fffdff" d="m90.535 72.84 17.172 10.398-10.184 9.117Zm0 0"/><path fill="#352a55" d="m101.207 328.719-6.797-19.2 15.383-3.12Zm0 0"/><path fill="#637274" d="m101.207 328.719-16.02-13.574 9.223-5.625Zm0 0"/><path fill="#362b55" d="m131.324 323.328-30.117 5.39 8.586-22.32ZM131.324 323.328l31.106-10.09-10.875 27.567Zm0 0"/><path fill="#645864" d="m114.66 288.129 23.926-20.36-2.66 32.876Zm0 0"/><path fill="#352a55" d="m109.793 306.398 4.867-18.27 21.266 12.517Zm0 0"/><path fill="#a5a680" d="m158.992 256.934 4.711 32.343-25.117-21.507Zm0 0"/><path fill="#828f7c" d="m163.703 289.277 13.172-33.625 15.93 29.207Zm0 0"/><path fill="#c8d291" d="m176.875 255.652 18.488-.453-2.558 29.66Zm0 0"/><path fill="#b7ae80" d="m176.875 255.652-17.883 1.282 3.867-18.575Zm0 0"/><path fill="#a7a27d" d="m158.992 256.934 17.883-1.282-13.172 33.625Zm0 0"/><path fill="#bcbe88" d="m135.926 300.645 27.777-11.368-1.273 23.961Zm0 0"/><path fill="#352a55" d="m206.73 237.309-21.457-4.375 15.762-20.524Zm0 0"/><path fill="#fffdff" d="m239.363 145.04 10.508-9.888 4.996 10.66Zm0 0"/><path fill="#fefcfe" d="m249.871 135.152-10.508 9.887 2.668-12.34Zm0 0"/><path fill="#fffdff" d="m249.871 135.152 18.52-5.312-13.524 15.972Zm0 0"/><path fill="#fefcfe" d="m247.555 119.07 2.316 16.082-7.84-2.453Zm0 0"/><path fill="#fffdff" d="m268.39 129.84-18.519 5.312-2.316-16.082Zm0 0"/><path fill="#362b55" d="m239.363 145.04-8.508-7.157 11.176-5.184Zm0 0"/><path fill="#a3b88d" d="m172.96 199.324 30.114 1.344-2.039 11.742Zm0 0"/><path fill="#352a55" d="m183.43 180.258 19.644 20.41-30.113-1.344Zm0 0"/><path fill="#dad68f" d="m168.996 181.234-14.75 13.414 5.625-20.687Zm0 0"/><path fill="#ced793" d="m154.246 194.648 14.75-13.414 3.965 18.09Zm0 0"/><path fill="#483e5c" d="m104.95 248.176 3.745-20.86 18.961 13.621Zm0 0"/><path fill="#3b3258" d="m118.754 263.465-13.805-15.29 22.707-7.238Zm0 0"/><path fill="#b4b083" d="m128.066 222.781 25.735 6.711-4.617 11.918Zm0 0"/><path fill="#b7ad80" d="m127.656 240.938.41-18.157 21.118 18.63Zm0 0"/><path fill="#4a3d5a" d="m108.695 227.316 19.371-4.535-.41 18.156Zm0 0"/><path fill="#54495f" d="m118.754 263.465 19.832 4.305-23.926 20.359Zm0 0"/><path fill="#554a5f" d="m138.586 267.77-19.832-4.305 8.902-22.527Zm0 0"/><path fill="#89e6b0" d="m98.957 270.219-29.531-5.34 19.11-13.422Zm0 0"/><path fill="#88e6b1" d="m69.426 264.879 29.531 5.34-14.074 14.36Zm0 0"/><path fill="#8be5b0" d="m104.95 248.176-5.993 22.043-10.422-18.762Zm0 0"/><path fill="#352a55" d="m98.957 270.219 5.992-22.043 13.805 15.289ZM94.723 174.21l-.02-13.034 13.586-1.238Zm0 0"/><path fill="#fefcfe" d="m59.086 161.164 35.617.012-11.246 13.937Zm0 0"/><path fill="#fefcfe" d="m94.703 161.176.02 13.035-11.266.902Zm0 0"/><path fill="#352a55" d="m94.723 174.21 18.73-5.273-1.598 15.399Zm0 0"/><path fill="#352b55" d="m113.453 168.938-18.73 5.273 13.566-14.274Zm0 0"/><path fill="#d8d58f" d="m154.246 194.648-9.184-20.75 14.81.063Zm0 0"/><path fill="#bccf94" d="m145.063 173.898 9.183 20.75-25.191 1.461Zm0 0"/><path fill="#efd286" d="m180.992 61.684 11.528 13.754-21.458-3.211Zm0 0"/><path fill="#372c55" d="m183.57 90.719 8.95-15.281 15.292 24.343Zm0 0"/><path fill="#ded58d" d="m179.305 145.855-4.082 16.852-17.258-9.398Zm0 0"/><path fill="#f4d184" d="m208.586 114.133-19.68-7.149 18.906-7.203Zm0 0"/><path fill="#362b55" d="m168.727 103.266 20.18 3.718-14.321 16.207Zm0 0"/><path fill="#ead287" d="M188.906 106.984 183.57 90.72l24.243 9.062Zm0 0"/><path fill="#362b55" d="m188.906 106.984-20.18-3.718 14.844-12.547Zm0 0"/><path fill="#f8d182" d="m208.586 114.133 6.25 14.168-18.469-.172Zm0 0"/><path fill="#787670" d="m188.906 106.984 7.461 21.145-21.781-4.938Zm0 0"/><path fill="#e9d388" d="m196.367 128.129-7.46-21.145 19.679 7.149Zm0 0"/><path fill="#f0d285" d="m153.184 111.59-5.454 24.422-11.847-11.45Zm0 0"/><path fill="#f3d083" d="m147.73 136.012-20.976 5.582 9.129-17.031Zm0 0"/><path fill="#ead388" d="m147.73 136.012-8.417 18.968-12.56-13.386Zm0 0"/><path fill="#ecd387" d="m139.313 154.98 8.417-18.968 10.235 17.297ZM165.246 58.445l15.746 3.239-9.93 10.543Zm0 0"/><path fill="#e7d187" d="m180.992 61.684-15.746-3.239 14.363-9.05Zm0 0"/><path fill="#fefcfe" d="m384 215.559-54.34-24.934L384 150.523ZM327.008 272.676l17.023-30.965 8.36 30.84Zm0 0"/><path fill="#fefcfe" d="m327.008 272.676-15.852-14.328 32.875-16.637Zm0 0"/><path fill="#fffdff" d="M383.996 78.953 336.57 49.297 384 0Zm0 0"/><path fill="#fffdff" d="M336.57 49.297 313.05 0H384ZM336.57 49.297l47.426 29.656-63.8 38.293Zm0 0"/><path fill="#fffdff" d="m336.57 49.297-51.132 1.879L313.05 0Zm0 0"/><path fill="#fffdff" d="M285.438 51.176 255.254 0h57.797Zm0 0"/><path fill="#fefcfe" d="m329.66 190.625-48.02 23.664-1.476-53.496ZM221.07 67.727l-20.965-10.204 3.95-9.207Zm0 0"/><path fill="#352a55" d="m178.727 341.465-27.172-.66 10.875-27.567Zm0 0"/><path fill="#352b55" d="m151.555 340.805 27.172.66-22.973 34.71Zm0 0"/><path fill="#383158" d="m178.727 341.465 12.156 21.605-35.13 13.106Zm0 0"/><path fill="#909d82" d="m142.016 367.383 13.738 8.793-8.715 7.804Zm0 0"/><path fill="#878e7b" d="m95.543 365.395 5.664-36.676 8.195 35.242Zm0 0"/><path fill="#bbca91" d="m69.883 331.742 25.66 33.653-25.816 18.613Zm0 0"/><path fill="#cad391" d="m95.543 365.395-25.66-33.653 31.324-3.023Zm0 0"/><path fill="#dcd38c" d="m69.883 331.742 15.305-16.597 16.019 13.574Zm0 0"/><path fill="#b6d196" d="m85.188 315.145-15.305 16.597-2.598-24.64Zm0 0"/><path fill="#d2c587" d="m109.402 363.96 17.036 6.493-15.504 13.543Zm0 0"/><path fill="#afb889" d="m125.516 350.352.921 20.101-17.035-6.492Zm0 0"/><path fill="#a8b78b" d="m142.016 367.383-15.578 3.07-.922-20.101Zm0 0"/><path fill="#c9c78b" d="m110.934 383.996 15.504-13.543 20.601 13.527Zm0 0"/><path fill="#c5c389" d="m126.438 370.453 15.578-3.07 5.023 16.597Zm0 0"/><path fill="#c9bf86" d="m224.707 371.125 9.309 12.879-34.43-.016Zm0 0"/><path fill="#e9d388" d="m233.223 368.723-8.516 2.402.594-24.71Zm0 0"/><path fill="#e6d389" d="m233.223 368.723.793 15.28-9.309-12.878Zm0 0"/><path fill="#51f1c8" d="m241.902 346.453-8.68 22.27-7.921-22.309Zm0 0"/><path fill="#392f57" d="m225.3 346.414-12.695 18.984-4.335-20.308Zm0 0"/><path fill="#d1c989" d="m224.707 371.125-12.102-5.727 12.696-18.984Zm0 0"/><path fill="#372d56" d="m212.605 365.398-21.722-2.328 17.387-17.98Zm0 0"/><path fill="#ded18b" d="m212.605 365.398 12.102 5.727-25.121 12.863Zm0 0"/><path fill="#a2ab85" d="m155.754 376.176 43.832 7.812-52.547-.008Zm0 0"/><path fill="#79756f" d="m199.586 383.988-43.832-7.812 35.129-13.106Zm0 0"/><path fill="#8e987f" d="m212.605 365.398-13.02 18.59-8.702-20.918Zm0 0"/><path fill="#555c6a" d="m195.504 321.895-31.8-32.618 29.1-4.418Zm0 0"/><path fill="#cbd894" d="m212.203 310.45-16.7 11.445-2.698-37.036Zm0 0"/><path fill="#352a55" d="m195.504 321.895-16.777 19.57-16.297-28.227Zm0 0"/><path fill="#362d56" d="m43.094 354.887-7.489-2.957 6.247-7.61Zm0 0"/><path fill="#4df2ca" d="m35.605 351.93-1.078-11.47 7.325 3.86Zm0 0"/><path fill="#2ef6d6" d="m24.344 344.867 11.261 7.063-14.828 11.937Zm0 0"/><path fill="#40f4cf" d="m35.605 351.93-11.261-7.063 10.183-4.406Zm0 0"/><path fill="#9aa885" d="m69.727 384.008 25.816-18.613 15.39 18.601Zm0 0"/><path fill="#aba17c" d="m95.543 365.395 13.86-1.434 1.53 20.035Zm0 0"/><path fill="#372c55" d="m230.285 334.371 5.742-8.816 8.32 6.058Zm0 0"/><path fill="#352a55" d="m218.395 323.523 17.632 2.032-5.742 8.816Zm0 0"/><path fill="#362b55" d="m236.027 325.555 15.215-.965-6.894 7.023Zm0 0"/><path fill="#e0cc86" d="m236.027 325.555-17.632-2.032 10.523-16.789Zm0 0"/><path fill="#e9d388" d="m251.645 311.848-15.618 13.707-7.109-18.82Zm0 0"/><path fill="#e6c883" d="m251.242 324.59-15.215.965 15.618-13.707Zm0 0"/><path fill="#ddcf89" d="m205.34 244.473 11.965 16.62-21.942-5.894Zm0 0"/><path fill="#e3d38a" d="m217.305 261.094-24.5 23.765 2.558-29.66Zm0 0"/><path fill="#81e8b4" d="m279.45 316.836-29.919-26.742 45.828 1.508Zm0 0"/><path fill="#4bf2cb" d="m259.453 340.336 19.926 8.289-21.594 8.531Zm0 0"/><path fill="#7ae9b7" d="m259.453 340.336 19.996-23.5-.07 31.789Zm0 0"/><path fill="#78e9b8" d="m259.453 340.336-8.21-15.746 28.206-7.754Zm0 0"/><path fill="#d6c384" d="m225.727 244.281-20.387.192 1.39-7.164Zm0 0"/><path fill="#dbc684" d="m225.727 244.281 20.437-1.199-5.887 13.332Zm0 0"/><path fill="#f0d185" d="m217.305 261.094 8.422-16.813 14.55 12.133Zm0 0"/><path fill="#e5d087" d="m205.34 244.473 20.387-.192-8.422 16.813Zm0 0"/><path fill="#fffdff" d="m281.64 214.29-20.163-38.677 18.687-14.82Zm0 0"/><path fill="#bcdb9b" d="m240.496 213.55 12.223-25.683 1.472 32.672Zm0 0"/><path fill="#f7d183" d="m240.496 213.55.758 11.384-9.676-5.668Zm0 0"/><path fill="#eed387" d="m241.254 224.934-.758-11.383 13.695 6.988Zm0 0"/><path fill="#fefcfe" d="m302.27 240.527-20.63-26.238 48.02-23.664Zm0 0"/><path fill="#fefcfe" d="m252.719 187.867 28.922 26.422-27.45 6.25Zm0 0"/><path fill="#26c3b8" d="m340.688 383.988-1.786-20.953L384 384.004Zm0 0"/><path fill="#28c1b7" d="m338.902 363.035 1.786 20.953-65.274.024Zm0 0"/><path fill="#77eab8" d="m279.45 316.836 49.765 4.39-49.836 27.399Zm0 0"/><path fill="#26f8d9" d="m279.379 348.625-3.965 35.387-17.629-26.856Zm0 0"/><path fill="#33e5ca" d="m275.414 384.012 3.965-35.387 59.523 14.41Zm0 0"/><path fill="#fefcfe" d="m384 272.781-39.969-31.07L384 215.559ZM344.031 241.71l-14.37-51.085L384 215.559Zm0 0"/><path fill="#61ecc1" d="m384 346.922-17.29-44.75 17.294 1.242Zm0 0"/><path fill="#5debc1" d="m366.71 302.172 17.29 44.75-54.785-25.695Zm0 0"/><path fill="#5eecc1" d="m384 346.922-45.098 16.113-9.687-41.808Zm0 0"/><path fill="#74e9b9" d="m352.39 272.55 14.32 29.622-22.886-15.777Zm0 0"/><path fill="#7ee8b5" d="m352.39 272.55 31.61.231-17.29 29.39Zm0 0"/><path fill="#fefcfe" d="m352.39 272.55-8.359-30.84L384 272.782Zm0 0"/><path fill="#7be9b7" d="m366.71 302.172-37.495 19.055 14.61-34.832Zm0 0"/><path fill="#fefcfe" d="m47.95 197.984 26.695-4.09-2.489 24.301ZM47.95 197.984l-.114 27.996-25.828-13.214Zm0 0"/><path fill="#fefcfe" d="m47.836 225.98.113-27.996 24.207 20.211Zm0 0"/><path fill="#352a55" d="m90.54 186.016 4.183-11.805 17.132 10.125Zm0 0"/><path fill="#fefcfe" d="m94.723 174.21-4.184 11.806-7.082-10.903Zm0 0"/><path fill="#fefcfe" d="m90.54 186.016-15.895 7.879 8.812-18.782Zm0 0"/><path fill="#352a55" d="M112.156 205.066 97.613 192.36l14.242-8.023ZM97.613 192.36l-7.074-6.344 21.316-1.68Zm0 0"/><path fill="#86e7b2" d="m66.684 288.727 2.742-23.848 15.457 19.7Zm0 0"/><path fill="#fefcfe" d="M74.14 238.492 47.837 225.98l24.32-7.785Zm0 0"/><path fill="#453e5d" d="m114.008 147.691 11.969 8.907-17.688 3.34Zm0 0"/><path fill="#362b55" d="m114.008 147.691-16.223-2.46 11.633-16.489Zm0 0"/><path fill="#423658" d="m126.754 141.594-12.746 6.097-4.59-18.949Zm0 0"/><path fill="#54485e" d="m125.977 156.598-11.97-8.907 12.747-6.097Zm0 0"/><path fill="#fffdff" d="M158.02 26.246 195.227 0l-1.32 29.738Zm0 0"/><path fill="#fefcfe" d="m106.656 97.844-6.5 4.969-2.633-10.458Zm0 0"/><path fill="#fffdff" d="m107.707 83.238-1.05 14.606-9.134-5.489Zm0 0"/><path fill="#352a55" d="m106.656 97.844 2.383 16.992-8.883-12.023Zm0 0"/><path fill="#372b55" d="m109.04 114.836-2.384-16.992 9.778 8.476Zm0 0"/><path fill="#aea17b" d="m116.434 106.32-9.778-8.476 15.285-2.965Zm0 0"/><path fill="#362b55" d="m106.656 97.844 1.051-14.606 14.234 11.64Zm0 0"/><path fill="#f6ce81" d="m118.844 120.398-2.41-14.078 17.836 1.52Zm0 0"/><path fill="#a08c72" d="m118.844 120.398 7.91 21.196-17.336-12.852Zm0 0"/><path fill="#4b3e5b" d="m109.04 114.836 9.804 5.562-9.426 8.344Zm0 0"/><path fill="#62505f" d="m118.844 120.398-9.805-5.562 7.395-8.516Zm0 0"/><path fill="#f5cf82" d="m126.754 141.594-7.91-21.196 17.039 4.165Zm0 0"/><path fill="#f8d082" d="m118.844 120.398 15.426-12.558 1.613 16.722Zm0 0"/><path fill="#352a55" d="m151.59 98.98 1.594 12.61-18.914-3.75ZM168.727 103.266 151.59 98.98l8.383-11.156Zm0 0"/><path fill="#352a55" d="M159.973 87.824 151.59 98.98l-15.602-16.398Zm0 0"/><path fill="#352a55" d="m151.59 98.98-17.32 8.86 1.718-25.258ZM153.184 111.59l-1.594-12.61 17.137 4.286Zm0 0"/><path fill="#fffdff" d="M125.883 57.273 101.715 38.75l26.555 6.688Zm0 0"/><path fill="#fffdff" d="m101.715 38.75 24.168 18.523-14.23 10.895Zm0 0"/><path fill="#362b55" d="m135.926 300.645 26.504 12.593-31.106 10.09Zm0 0"/><path fill="#362b55" d="m135.926 300.645-4.602 22.683-21.531-16.93Zm0 0"/><path fill="#ccc286" d="m158.992 256.934-9.808-15.524 13.675-3.05Zm0 0"/><path fill="#b9bc88" d="m149.184 241.41 9.808 15.524-20.406 10.836Zm0 0"/><path fill="#bed496" d="m206.73 237.309-22.128-.45.671-3.925Zm0 0"/><path fill="#d9c484" d="m184.602 236.86-7.727 18.792-14.016-17.293Zm0 0"/><path fill="#cbc98b" d="m176.875 255.652 7.727-18.793 10.761 18.34Zm0 0"/><path fill="#e0d28b" d="m184.602 236.86 20.738 7.613-9.977 10.726Zm0 0"/><path fill="#d3c485" d="m205.34 244.473-20.738-7.614 22.128.45Zm0 0"/><path fill="#dfd58c" d="m214.836 128.3-9.79 17.106-8.679-17.277Zm0 0"/><path fill="#b1de9f" d="m183.43 180.258 24.535-21.278 5.523 7.157Zm0 0"/><path fill="#c5d292" d="m201.035 212.41-38.785 14.73 10.71-27.816Zm0 0"/><path fill="#d4d38f" d="m162.25 227.14-8.004-32.492 18.715 4.676Zm0 0"/><path fill="#352a55" d="m162.25 227.14 38.785-14.73-15.762 20.524Zm0 0"/><path fill="#c9d090" d="m162.25 227.14-8.45 2.352.446-34.844Zm0 0"/><path fill="#9ce3aa" d="m74.14 238.492 17.9 1.238-3.505 11.727Zm0 0"/><path fill="#fefcfe" d="m85.582 228.664 6.457 11.066-17.898-1.238Zm0 0"/><path fill="#96e4ac" d="m92.04 239.73 12.91 8.446-16.415 3.281Zm0 0"/><path fill="#89947e" d="m138.586 267.77-10.93-26.832 21.528.472Zm0 0"/><path fill="#372d56" d="m114.66 288.129-15.703-17.91 19.797-6.754Zm0 0"/><path fill="#352a55" d="m102.86 293.023 11.8-4.894-4.867 18.27Zm0 0"/><path fill="#fefcfe" d="m74.707 126.871 10.902 13.332-26.523 20.961Zm0 0"/><path fill="#bace93" d="m129.445 171.848 15.618 2.05-16.008 22.211Zm0 0"/><path fill="#69656a" d="m111.855 184.336 17.59-12.488-.39 24.261Zm0 0"/><path fill="#443e5d" d="m113.453 168.938 15.992 2.91-17.59 12.488Zm0 0"/><path fill="#f0d285" d="m180.992 61.684-1.383-12.29 20.496 8.13Zm0 0"/><path fill="#352a55" d="m214.836 128.3 8.469-19.913 8.777 8.59ZM179.305 145.855l-7.344-15.277 24.406-2.45Zm0 0"/><path fill="#352a55" d="m196.367 128.129-24.406 2.45 2.625-7.388Zm0 0"/><path fill="#dccf8a" d="m171.96 130.578-18.776-18.988 21.402 11.601Zm0 0"/><path fill="#ead388" d="m171.96 130.578-24.23 5.434 5.454-24.422Zm0 0"/><path fill="#e7d489" d="m171.96 130.578 7.345 15.277-21.34 7.454Zm0 0"/><path fill="#ead388" d="m147.73 136.012 24.23-5.434-13.995 22.73Zm0 0"/><path fill="#362b55" d="m234.313 126.613-3.458 11.27-16.02-9.582Zm0 0"/><path fill="#352a55" d="m230.855 137.883 3.458-11.27 7.718 6.086Zm0 0"/><path fill="#352a55" d="m234.313 126.613 13.242-7.543-5.524 13.63Zm0 0"/><path fill="#3a2e56" d="m247.555 119.07-13.243 7.543-2.23-9.636Zm0 0"/><path fill="#352a55" d="m234.313 126.613-19.477 1.688 17.246-11.324Zm0 0"/><path fill="#d6d690" d="m145.953 72.895 19.293-14.45 5.816 13.782Zm0 0"/><path fill="#fefcfe" d="m131.852 49.75-5.97 7.523 2.388-11.836Zm0 0"/><path fill="#85e6b2" d="m329.215 321.227-2.207-48.551 16.816 13.719Zm0 0"/><path fill="#84e6b2" d="m327.008 272.676 2.207 48.55-33.856-29.624Zm0 0"/><path fill="#fefcfe" d="m311.156 258.348-20.539 13.32 11.653-31.14Zm0 0"/><path fill="#fefcfe" d="m311.156 258.348-8.886-17.82 41.761 1.183Zm0 0"/><path fill="#ecd387" d="m192.52 75.438-11.528-13.754 19.113-4.16Zm0 0"/><path fill="#b1ad81" d="m101.207 328.719 24.309 21.633-16.114 13.609Zm0 0"/><path fill="#362b55" d="m125.516 350.352 5.808-27.024 20.23 17.477Zm0 0"/><path fill="#362b55" d="m131.324 323.328-5.808 27.024-24.309-21.633Zm0 0"/><path fill="#4c4860" d="m49.68 350.46 20.203-18.718-.156 52.266Zm0 0"/><path fill="#352b55" d="m49.68 350.46-6.586 4.427-1.242-10.567Zm0 0"/><path fill="#382e56" d="m43.094 354.887 6.586-4.426 20.047 33.547Zm0 0"/><path fill="#8a917c" d="m49.68 350.46-7.828-6.14 28.03-12.578Zm0 0"/><path fill="#352a55" d="M195.504 321.895 207 335.785l-28.273 5.68Zm0 0"/><path fill="#c2d897" d="m218.395 323.523-22.891-1.628 16.7-11.446Zm0 0"/><path fill="#362b55" d="m195.504 321.895 22.89 1.628L207 335.785Zm0 0"/><path fill="#b9d195" d="m195.504 321.895-33.074-8.657 1.273-23.96Zm0 0"/><path fill="#352a55" d="m33.191 384.008 3.086-22.18 33.45 22.18Zm0 0"/><path fill="#362b55" d="m36.277 361.828 6.817-6.941 26.633 29.12Zm0 0"/><path fill="#362f57" d="m36.277 361.828-.672-9.898 7.489 2.957Zm0 0"/><path fill="#1cfbde" d="m36.277 361.828-3.086 22.18-12.414-20.14Zm0 0"/><path fill="#27f8d9" d="m35.605 351.93.672 9.898-15.5 2.04Zm0 0"/><path fill="#3ff2ce" d="m24.344 344.867-3.567 19L0 338.836Zm0 0"/><path fill="#2ef5d5" d="m20.777 363.867-2.09 20.137L0 384Zm0 0"/><path fill="#2ff6d5" d="m0 338.836 20.777 25.031L0 384Zm0 0"/><path fill="#47f3cc" d="m34.527 340.46-10.183 4.407.488-17.281Zm0 0"/><path fill="#54f0c6" d="m24.832 327.586-.488 17.281L0 338.836Zm0 0"/><path fill="#24fadb" d="m-.004 289.984 43.613 11.082-18.777 26.52Zm0 0"/><path fill="#92e4ad" d="m37.93 272.758 28.754 15.969-23.075 12.34Zm0 0"/><path fill="#352b55" d="m85.188 315.145-1.56-13.754 10.782 8.129Zm0 0"/><path fill="#372c56" d="m85.188 315.145-17.903-8.043 16.344-5.711Zm0 0"/><path fill="#352a55" d="m83.629 301.39 9.887-5.452.894 13.582Zm0 0"/><path fill="#352a55" d="m94.41 309.52-.894-13.582 16.277 10.46ZM93.516 295.938l9.343-2.915 6.934 13.375Zm0 0"/><path fill="#81e8b4" d="m93.516 295.938-9.887 5.453 1.254-16.813Zm0 0"/><path fill="#e8d389" d="m192.805 284.86 56.726 5.234-20.613 16.64Zm0 0"/><path fill="#f4d184" d="m249.531 290.094 2.114 21.754-22.727-5.114Zm0 0"/><path fill="#d6d790" d="m212.203 310.45-19.398-25.59 36.113 21.874Zm0 0"/><path fill="#fefcfe" d="m252.719 187.867 8.758-12.254 20.164 38.676Zm0 0"/><path fill="#f3d184" d="m237.395 161.387 11.421 14.426-19.71-5.641Zm0 0"/><path fill="#fefcfe" d="m252.719 187.867-3.903-12.054 12.66-.2Zm0 0"/><path fill="#5de9bf" d="m329.215 321.227 9.687 41.808-59.523-14.41Zm0 0"/><path fill="#40e7c7" d="M338.902 363.035 384 346.922v37.082Zm0 0"/><path fill="#fefcfe" d="m90.54 186.016 2.202 10.238-18.097-2.36Zm0 0"/><path fill="#352a55" d="m97.613 192.36-4.87 3.894-2.204-10.238Zm0 0"/><path fill="#fefcfe" d="m83.117 211.559-10.96 6.636 2.488-24.3Zm0 0"/><path fill="#a1e2a9" d="m74.14 238.492-31.636 7.453 5.332-19.965Zm0 0"/><path fill="#85e7b2" d="m69.426 264.879-2.742 23.848-28.754-15.97Zm0 0"/><path fill="#fffdff" d="m88.148 149.895-2.539-9.692 12.176 5.027ZM88.148 149.895l6.555 11.28-35.617-.01Zm0 0"/><path fill="#fffdff" d="m85.61 140.203 2.538 9.692-29.062 11.27ZM87.305 114.516l-13.223-10.153 26.074-1.55ZM74.082 104.363l13.223 10.153-12.598 12.355Zm0 0"/><path fill="#fefcfe" d="m129.11 0 28.91 26.246-26.458 6.922Zm0 0"/><path fill="#c9d996" d="m223.55 153.617-15.585 5.363-2.918-13.574Zm0 0"/><path fill="#fcd080" d="m223.55 153.617 7.305-15.734 8.508 7.156Zm0 0"/><path fill="#fad081" d="m230.855 137.883-7.304 15.734-8.715-25.316Zm0 0"/><path fill="#ded58d" d="m214.836 128.3 8.715 25.317-18.504-8.21Zm0 0"/><path fill="#666b6e" d="m205.047 145.406-25.742.45 17.062-17.727Zm0 0"/><path fill="#fad082" d="m219.645 217.004 9.156-8.649 2.777 10.91Zm0 0"/><path fill="#fad081" d="m228.8 208.355 11.696 5.196-8.918 5.715Zm0 0"/><path fill="#e8d489" d="m228.8 208.355 15.735-22.503 8.184 2.015Zm0 0"/><path fill="#e7d389" d="m240.496 213.55-11.695-5.195 23.918-20.488Zm0 0"/><path fill="#ded08a" d="m162.25 227.14 22.352 9.72-21.743 1.5Zm0 0"/><path fill="#352a55" d="m184.602 236.86-22.352-9.72 23.023 5.794Zm0 0"/><path fill="#b9ce94" d="m153.8 229.492-13.355-18.457 13.801-16.387Zm0 0"/><path fill="#a7b88c" d="m128.066 222.781 12.38-11.746 13.355 18.457Zm0 0"/><path fill="#bbc790" d="m140.445 211.035-12.379 11.746.989-26.672Zm0 0"/><path fill="#afc995" d="m154.246 194.648-13.8 16.387-11.391-14.926Zm0 0"/><path fill="#352a55" d="m104.95 248.176-1.153-16.29 4.898-4.57Zm0 0"/><path fill="#fcfbfd" d="m92.04 239.73 11.757-7.843 1.152 16.289Zm0 0"/><path fill="#352a55" d="m98.297 284.984 16.363 3.145-11.8 4.894Zm0 0"/><path fill="#85e7b2" d="m98.957 270.219-.66 14.765-13.414-.406Zm0 0"/><path fill="#362b55" d="m114.66 288.129-16.363-3.145.66-14.765Zm0 0"/><path fill="#77e9b8" d="m98.297 284.984-4.781 10.954-8.633-11.36Zm0 0"/><path fill="#352a55" d="m93.516 295.938 4.78-10.954 4.563 8.04Zm0 0"/><path fill="#e8d489" d="m213.469 84.176-13.364-26.653 20.965 10.204Zm0 0"/><path fill="#f7d182" d="m213.469 84.176-20.95-8.739 7.586-17.914Zm0 0"/><path fill="#362b55" d="m208.586 114.133 14.719-5.746-8.47 19.914Zm0 0"/><path fill="#352a55" d="m223.305 108.387 18.656-7.742-9.879 16.332Zm0 0"/><path fill="#fffdff" d="m241.96 100.645 5.24-29.633 20.863 28.238Zm0 0"/><path fill="#fffdff" d="m247.555 119.07-5.594-18.425 26.101-1.395Zm0 0"/><path fill="#352a55" d="m241.96 100.645 5.595 18.425-15.473-2.093Zm0 0"/><path fill="#fffdff" d="m156.426 44.914 1.594-18.668 21.59 23.149Zm0 0"/><path fill="#e2d48b" d="m165.246 58.445-8.82-13.53 23.183 4.48Zm0 0"/><path fill="#fffdff" d="m158.02 26.246-18.977 19.016-7.48-12.094ZM131.563 33.168l7.48 12.094-10.773.175Zm0 0"/><path fill="#fefcfe" d="m139.043 45.262-7.191 4.488-3.582-4.312Zm0 0"/><path fill="#fffdff" d="m156.426 44.914-17.383.348 18.977-19.016Zm0 0"/><path fill="#cbd894" d="m139.95 55.863 25.296 2.582-19.293 14.45Zm0 0"/><path fill="#abae84" d="m139.95 55.863 6.003 17.032-20.07-15.622Zm0 0"/><path fill="#4e4962" d="m131.852 49.75 8.097 6.113-14.066 1.41Zm0 0"/><path fill="#b0db9f" d="m139.95 55.863 16.476-10.949 8.82 13.531Zm0 0"/><path fill="#addda1" d="m139.95 55.863-.907-10.601 17.383-.348Zm0 0"/><path fill="#adac82" d="m139.043 45.262.906 10.601-8.097-6.113Zm0 0"/><path fill="#7be8b6" d="m305.816 273.703 21.192-1.027-31.649 18.926Zm0 0"/><path fill="#78e9b8" d="m290.617 271.668 15.2 2.035-10.458 17.899Zm0 0"/><path fill="#fefcfe" d="m311.156 258.348-5.34 15.355-15.199-2.035Zm0 0"/><path fill="#fefcfe" d="m327.008 272.676-21.192 1.027 5.34-15.355Zm0 0"/><path fill="#33f7d4" d="m43.61 301.066 8.671 18.227-27.449 8.293Zm0 0"/><path fill="#48f3cc" d="m52.281 319.293-17.754 21.168-9.695-12.875Zm0 0"/><path fill="#50f1c8" d="m34.527 340.46 17.754-21.167-10.43 25.027Zm0 0"/><path fill="#35f6d4" d="m52.281 319.293-8.672-18.227 23.676 6.036Zm0 0"/><path fill="#392e56" d="m41.852 344.32 10.43-25.027 17.6 12.45Zm0 0"/><path fill="#c8b881" d="m52.281 319.293 15.004-12.191 2.598 24.64Zm0 0"/><path fill="#86e7b2" d="m83.629 301.39-16.945-12.663 18.199-4.149Zm0 0"/><path fill="#6becbd" d="m67.285 307.102-.601-18.375 16.945 12.664Zm0 0"/><path fill="#78e9b8" d="m43.61 301.066 23.074-12.34.601 18.376Zm0 0"/><path fill="#efd285" d="m249.531 290.094-13-15.11 16.067-1.148Zm0 0"/><path fill="#ebd187" d="m236.531 274.984 13 15.11-56.726-5.235Zm0 0"/><path fill="#fbd081" d="m247.246 159.496-9.851 1.89 1.968-16.347Zm0 0"/><path fill="#f6d183" d="m247.246 159.496 1.57 16.316-11.421-14.425Zm0 0"/><path fill="#fefcfe" d="m247.246 159.496-7.883-14.457 15.504.774Zm0 0"/><path fill="#fefcfe" d="m248.816 175.813-1.57-16.317 14.23 16.117Zm0 0"/><path fill="#fffdff" d="m280.164 160.793-32.918-1.297 7.621-13.684Zm0 0"/><path fill="#fffdff" d="m261.477 175.613-14.23-16.117 32.917 1.297Zm0 0"/><path fill="#95e4ac" d="m69.426 264.879-26.922-18.934 31.637-7.453Zm0 0"/><path fill="#84e7b3" d="m42.504 245.945 26.922 18.934-31.496 7.879Zm0 0"/><path fill="#392f57" d="m97.785 145.23 16.223 2.461-5.719 12.246Zm0 0"/><path fill="#352a55" d="m94.703 161.176 3.082-15.946 10.504 14.708Zm0 0"/><path fill="#fefcfe" d="m88.148 149.895 9.637-4.665-3.082 15.946Zm0 0"/><path fill="#fffdff" d="M98.871 123.855 85.61 140.203l-10.902-13.332Zm0 0"/><path fill="#fffdff" d="m87.305 114.516 11.566 9.34-24.164 3.015Zm0 0"/><path fill="#fffdff" d="m85.61 140.203 13.261-16.348-1.086 21.375Zm0 0"/><path fill="#352a55" d="m97.785 145.23 1.086-21.375 10.547 4.887Zm0 0"/><path fill="#372c55" d="m98.871 123.855 10.168-9.02.379 13.907Zm0 0"/><path fill="#352a55" d="m109.04 114.836-10.169 9.02 1.285-21.043Zm0 0"/><path fill="#fefcfe" d="m98.871 123.855-11.566-9.34 12.851-11.702Zm0 0"/><path fill="#e7d489" d="m223.55 153.617 5.555 16.555-15.617-4.035Zm0 0"/><path fill="#b4dd9e" d="m207.965 158.98 15.586-5.363-10.063 12.52Zm0 0"/><path fill="#fad081" d="m237.395 161.387-13.844-7.77 15.812-8.578Zm0 0"/><path fill="#eed386" d="m223.55 153.617 13.845 7.77-8.29 8.785Zm0 0"/><path fill="#3d3358" d="m205.047 145.406-29.824 17.301 4.082-16.852Zm0 0"/><path fill="#688c82" d="m175.223 162.707 29.824-17.3 2.918 13.573Zm0 0"/><path fill="#372c56" d="m175.223 162.707 8.207 17.55-14.434.977Zm0 0"/><path fill="#81b595" d="m175.223 162.707 32.742-3.727-24.535 21.278Zm0 0"/><path fill="#352a55" d="m229.105 170.172-26.03 30.496 10.413-34.531ZM203.074 200.668l-19.644-20.41 30.058-14.121Zm0 0"/><path fill="#382d55" d="m248.816 175.813-4.28 10.039-15.43-15.68Zm0 0"/><path fill="#e1d68e" d="m244.535 185.852 4.281-10.04 3.903 12.055Zm0 0"/><path fill="#d0ce8d" d="m149.184 241.41 4.617-11.918 9.058 8.867Zm0 0"/><path fill="#e5d389" d="m153.8 229.492 8.45-2.351.61 11.218Zm0 0"/><path fill="#605966" d="m108.695 227.316 3.461-22.25 15.91 17.715Zm0 0"/><path fill="#352a55" d="m108.695 227.316-10.765-9.203 14.226-13.047Zm0 0"/><path fill="#fffdff" d="m89.11 220.363 5.956 6.38-9.484 1.921Zm0 0"/><path fill="#352a55" d="m95.066 226.742-5.957-6.379 8.82-2.25Zm0 0"/><path fill="#352a55" d="m108.695 227.316-13.629-.574 2.864-8.629Zm0 0"/><path fill="#352a55" d="m95.066 226.742 13.63.574-4.9 4.57Zm0 0"/><path fill="#fffdff" d="M95.066 226.742 92.04 239.73l-6.457-11.066Zm0 0"/><path fill="#fffdff" d="m95.066 226.742 8.73 5.145-11.757 7.843Zm0 0"/><path fill="#fefcfe" d="m89.11 220.363-16.954-2.168 10.961-6.636ZM72.156 218.195l16.953 2.168-3.527 8.301Zm0 0"/><path fill="#fffdff" d="m72.156 218.195 13.426 10.47-11.441 9.827Zm0 0"/><path fill="#fefcfe" d="m74.645 193.895 14.84 14.714-6.368 2.95Zm0 0"/><path fill="#fefcfe" d="m89.484 208.61-.375 11.753-5.992-8.804ZM92.742 196.254l-3.258 12.355-14.84-14.714Zm0 0"/><path fill="#352a55" d="m89.11 220.363.374-11.754 8.446 9.504Zm0 0"/><path fill="#fefcfe" d="m231.586 80.867-10.516-13.14 26.13 3.285Zm0 0"/><path fill="#f8d182" d="m231.586 80.867-18.117 3.309 7.601-16.45Zm0 0"/><path fill="#fffdff" d="m241.96 100.645-10.374-19.778 15.613-9.855Zm0 0"/><path fill="#3e3257" d="m213.469 84.176-5.656 15.605-15.293-24.344Zm0 0"/><path fill="#352a55" d="m208.586 114.133-.774-14.352 15.493 8.606Zm0 0"/><path fill="#f4d184" d="m252.598 273.836-16.067 1.148 3.746-18.57Zm0 0"/><path fill="#e5d389" d="m236.531 274.984-19.226-13.89 22.972-4.68Zm0 0"/><path fill="#e1d58c" d="m236.531 274.984-43.726 9.875 24.5-23.765Zm0 0"/><path fill="#7de8b5" d="m295.36 291.602 33.855 29.625-49.766-4.391Zm0 0"/><path fill="#352a55" d="m214.168 207.406 14.937-37.234 15.43 15.68Zm0 0"/><path fill="#352a55" d="m214.168 207.406-11.094-6.738 26.031-30.496Zm0 0"/><path fill="#f6d083" d="m214.168 207.406 14.633.95-9.156 8.648Zm0 0"/><path fill="#362b55" d="m228.8 208.355-14.632-.949 30.367-21.554Zm0 0"/><path fill="#e0d58c" d="m201.035 212.41 13.133-5.004 5.477 9.598Zm0 0"/><path fill="#e8d388" d="m214.168 207.406-13.133 5.004 2.04-11.742Zm0 0"/><path fill="#352a55" d="m89.484 208.61 22.672-3.544-14.226 13.047Zm0 0"/><path fill="#352a55" d="m112.156 205.066-22.672 3.543 3.258-12.355ZM112.156 205.066l-19.414-8.812 4.871-3.895Zm0 0"/><path fill="#f9d082" d="m231.586 80.867-4.977 10.211-13.14-6.902Zm0 0"/><path fill="#352a55" d="m207.813 99.781 18.796-8.703-3.304 17.309Zm0 0"/><path fill="#362b55" d="m226.61 91.078-18.798 8.703 5.657-15.605Zm0 0"/><path fill="#352a55" d="m226.61 91.078 15.35 9.567-18.655 7.742Zm0 0"/><path fill="#f4d184" d="m226.61 91.078 4.976-10.21 10.375 19.777Zm0 0"/></svg>