<svg xmlns="http://www.w3.org/2000/svg" width="512" height="512" viewBox="0 0 384 384"><path fill="#fff" d="M85.96 72.672 48.89 89.777l4.977-45.996ZM297.734 131.543l41.098-19.184-5.289 68.739ZM53.867 43.781 0 65.734V0ZM0 131.293l63.117-.953-19.344 43.883Zm0 0"/><path fill="#fff" d="m100.66 35.7-14.7 36.972-32.093-28.89Zm0 0"/><path fill="#904c61" d="m164.45 296.07 22.82-29.41 8.992 35.762Zm0 0"/><path fill="#6f237e" d="m174.992 203.352 2.668-17.098 26.715 17.223Zm0 0"/><path fill="#fff" d="m48.89 89.777 34.934 10.996-20.707 29.567ZM83.824 100.773 48.891 89.777l37.07-17.105ZM83.824 100.773l2.137-28.101 10.434 21.504Zm0 0"/><path fill="#fff" d="m101.828 104.348-18.004-3.575 12.57-6.597Zm0 0"/><path fill="#dcab1e" d="m162.531 164.438 16.278-12.786-3.926 15.582Zm0 0"/><path fill="#c69032" d="m123.738 73.777 7.407-10.586L143.59 73.52Zm0 0"/><path fill="#5c0b8f" d="m183.082 92.402-24.832-3.804 8.875-17.278Zm0 0"/><path fill="#fff" d="M384 147.5v75.43l-50.457-41.832Zm0 0"/><path fill="#fff" d="M338.832 112.36 384 147.5l-50.457 33.598Zm0 0"/><path fill="#fff" d="M384 79.863V147.5l-45.168-35.14ZM296.23 65.152l42.602 47.207-41.098 19.184ZM296.23 65.152 344 55.617l-5.168 56.742ZM296.23 65.152l-45.007 12.141-4.926-34.457Zm0 0"/><path fill="#fff" d="m263.637 130.133 2.675-25.262 31.422 26.672ZM266.313 104.871l29.917-39.719 1.504 66.391Zm0 0"/><path fill="#fed600" d="m24.43 281.535 6.355 31.11L0 323.023Zm0 0"/><path fill="#fff" d="M.008 230.621 0 198.45l16.129 28.297ZM16.129 226.746 0 198.45l27.477 13.27Zm0 0"/><path fill="#fefefe" d="m13.168 239.695-13.16-9.074 16.12-3.875Zm0 0"/><path fill="#fed600" d="m.008 230.621 13.16 9.074L0 262.504ZM0 262.504l13.168-22.809 10.797 15.02ZM259.543 384l-24.945.012-2.18-20.375Zm0 0"/><path fill="#fefefe" d="m264.777 277.797 14.192-11.688 2.793 19.739Zm0 0"/><path fill="#fed600" d="m264.777 277.797-13.074 17.945.098-22.484Zm0 0"/><path fill="#fff" d="m269.125 249.488-15.867 6.262.012-14.598Zm0 0"/><path fill="#5c0c8f" d="m204.129 212.672 16.25 3.562-14.461 23.614Zm0 0"/><path fill="#9d5c56" d="m253.258 255.75-11.871-8.047 11.883-6.55Zm0 0"/><path fill="#f0c40d" d="m241.387 247.703 11.87 8.047-16.312 3.605Zm0 0"/><path fill="#fff" d="m301.387 238.676-15.778-54.711 47.934-2.867Zm0 0"/><path fill="#fff" d="m285.61 183.965 12.124-52.422 35.809 49.555ZM43.773 174.223l-16.296 37.496L0 198.449Zm0 0"/><path fill="#fff" d="m0 131.293 43.773 42.93L0 198.449ZM77.297 157.25l3.558 15.402-37.082 1.57ZM162.48 26.133 186.371 0l-1.656 33.73ZM209.574 34l10.531 22.063-15.558 3.261ZM0 65.734l48.89 24.043L0 131.293Zm0 0"/><path fill="#fff" d="M48.89 89.777 0 65.734l53.867-21.953Zm0 0"/><path fill="#fff" d="M75.453 0 53.867 43.781 0 0Zm0 0"/><path fill="#fff" d="M100.66 35.7 53.867 43.78 75.453 0ZM0 131.293l48.89-41.516 14.227 40.563Zm0 0"/><path fill="#fff" d="M134.164 0 100.66 35.7 75.453 0Zm0 0"/><path fill="#a36451" d="m126.563 87.992-2.825-14.215 19.852-.257Zm0 0"/><path fill="#98565a" d="m164.45 296.07-4.157-29.785 26.977.375Zm0 0"/><path fill="#904c61" d="m160.293 266.285 4.156 29.785-23.8-28.53Zm0 0"/><path fill="#843e6b" d="m207.45 167.625-29.79 18.629-2.777-19.02Zm0 0"/><path fill="#70257d" d="m127.707 182.813-.414 24.75-17.41-18.606Zm0 0"/><path fill="#ddac1d" d="m167.66 185.145-5.129-20.708 12.352 2.797Zm0 0"/><path fill="#8e4a62" d="m177.66 186.254-10-1.11 7.223-17.91Zm0 0"/><path fill="#8d4863" d="m174.992 203.352-7.332-18.207 10 1.109Zm0 0"/><path fill="#5c0c8f" d="m186.563 75.234-3.481 17.168-15.957-21.082Zm0 0"/><path fill="#ecc010" d="m171.512 122.457-15.098 10.531-10.426-22.008Zm0 0"/><path fill="#eabd11" d="m145.363 173.973 4.66-22.668 12.508 13.132Zm0 0"/><path fill="#daa91f" d="m150.023 151.305-4.66 22.668-17.324-21.075Zm0 0"/><path fill="#651787" d="M158.25 88.598 143.59 73.52l23.535-2.2Zm0 0"/><path fill="#5d0c8f" d="m157.379 103.465.871-14.867 24.832 3.804Zm0 0"/><path fill="#93505f" d="m157.379 103.465 14.133 18.992-25.524-11.477Zm0 0"/><path fill="#f6cc07" d="m145.988 110.98 10.426 22.008-16.52 3.961Zm0 0"/><path fill="#fff" d="m338.734 243.516-5.191-62.418L384 222.93ZM333.543 181.098l5.191 62.418-37.347-4.84Zm0 0"/><path fill="#fed600" d="m340.086 289.82-18.652-18.57 22.476.023Zm0 0"/><path fill="#fff" d="M320.074 0 296.23 65.152 275.68 0Zm0 0"/><path fill="#fff" d="M246.297 42.836 275.68 0l20.55 65.152ZM229.719 0h45.96l-29.382 42.836ZM384 0v79.863l-40-24.246ZM264.797 152.504l-14.668-13.23 13.508-9.141Zm0 0"/><path fill="#fff" d="m297.734 131.543-32.937 20.96-1.16-22.37ZM227.543 71.84l-7.438-15.778 26.192-13.226Zm0 0"/><path fill="#fff" d="m251.223 77.293-23.68-5.453 18.754-29.004ZM263.637 130.133l-16.985-9.61 19.66-15.652Zm0 0"/><path fill="#fff" d="m266.313 104.871-15.09-27.578 45.007-12.14Zm0 0"/><path fill="#671985" d="m146.535 365.313-21.914-16.067 33.067-9.316Zm0 0"/><path fill="#aa6c4a" d="M90.516 365.473 69.37 330.777l31.684 16.403Zm0 0"/><path fill="#fed600" d="m237.098 345.754 13.632 4.781-18.312 13.102Zm0 0"/><path fill="#8b4666" d="m71.035 376.113 19.113 7.907-56.625-.02Zm0 0"/><path fill="#823b6d" d="m71.035 376.113-30.023-31.93 28.36-13.406Zm0 0"/><path fill="#fed600" d="m30.785 312.645-6.355-31.11 25.695 11.602ZM28.945 338.75 0 323.023l30.785-10.378ZM0 262.504l24.43 19.031L0 323.023Zm0 0"/><path fill="#fed600" d="M24.43 281.535 0 262.504l23.965-7.79ZM250.73 350.535 259.543 384l-27.125-20.363Zm0 0"/><path fill="#fefefe" d="m264.777 277.797-1.328-13.262 15.52 1.574Zm0 0"/><path fill="#fff" d="m278.969 266.11-15.52-1.575 5.676-15.047Zm0 0"/><path fill="#fefefe" d="m263.45 264.535 1.327 13.262-12.976-4.54Zm0 0"/><path fill="#fff" d="m263.45 264.535-10.192-8.785 15.867-6.262Zm0 0"/><path fill="#5c0b8f" d="m241.05 329.531-16.46 11.504-23.598-2.617Zm0 0"/><path fill="#fed600" d="m241.05 329.531-3.952 16.223-12.508-4.719Zm0 0"/><path fill="#ddad1d" d="m208.832 322.676-12.57-20.254 33.597 8.863Zm0 0"/><path fill="#5b0b90" d="m208.832 322.676 32.219 6.855-40.059 8.887Zm0 0"/><path fill="#fed600" d="m251.703 295.742 13.074-17.945 16.985 8.05ZM250.73 350.535l-13.632-4.781 3.953-16.223Zm0 0"/><path fill="#f0c40c" d="m253.258 255.75-1.457 17.508-14.856-13.903Zm0 0"/><path fill="#fefefe" d="m263.45 264.535-11.65 8.723 1.458-17.508Zm0 0"/><path fill="#5b0b90" d="m241.387 247.703 2.75-13.539 9.133 6.988Zm0 0"/><path fill="#904d61" d="m244.137 234.164 8.781-8.531.352 15.52Zm0 0"/><path fill="#5c0b90" d="m230.633 234.195-10.254-17.96 21.094 5.722ZM244.137 234.164l-13.504.031 10.84-12.238Zm0 0"/><path fill="#5b0a90" d="m230.633 234.195 13.504-.03-2.75 13.538Zm0 0"/><path fill="#5d0c8e" d="m220.379 216.234 10.254 17.961-24.715 5.653Zm0 0"/><path fill="#fff" d="m269.738 226.195-.613 23.293-15.855-8.336Zm0 0"/><path fill="#fff" d="m252.918 225.633 16.82.562-16.468 14.957ZM254.531 208.871l-4.562-29.648 35.64 4.742Zm0 0"/><path fill="#fff" d="m269.738 226.195 31.649 12.48-32.262 10.813Zm0 0"/><path fill="#fed600" d="M384 330.191V384l-42.254-34.809Zm0 0"/><path fill="#fed700" d="M372.648 287.188 384 274.64v21.57ZM362.445 299.96l10.203-12.772L384 296.21Zm0 0"/><path fill="#fff" d="m51.883 216.348-24.406-4.63 16.296-37.495ZM80.855 172.652l-7.117 21.618-29.965-20.047Zm0 0"/><path fill="#fff" d="m73.738 194.27-21.855 22.078-8.11-42.125Zm0 0"/><path fill="#fed700" d="m13.168 239.695 10.195-1.144.602 16.164Zm0 0"/><path fill="#fefefe" d="m23.363 238.55-10.195 1.145 2.96-12.949Zm0 0"/><path fill="#fed701" d="m73.98 269.89-2.406-19.488 17.43 4.371Zm0 0"/><path fill="#fefefe" d="M192.07 53.59 209.574 34l-5.027 25.324ZM184.715 33.73l7.355 19.86-19.507-6.211Zm0 0"/><path fill="#fff" d="m192.07 53.59-7.355-19.86 24.86.27Zm0 0"/><path fill="#fff" d="M246.297 42.836 209.574 34 229.72 0Zm0 0"/><path fill="#fff" d="M220.105 56.063 209.575 34l36.722 8.836ZM209.574 34 186.371 0h43.348Zm0 0"/><path fill="#fff" d="m186.371 0 23.203 34-24.86-.27Zm0 0"/><path fill="#fff" d="m162.48 26.133 22.235 7.597-12.153 13.649Zm0 0"/><path fill="#fefefe" d="m186.371 0-23.89 26.133L134.163 0Zm0 0"/><path fill="#fff" d="m100.66 35.7 36.211-4.946-10.176 14.3ZM134.164 0l2.707 30.754-36.21 4.945Zm0 0"/><path fill="#fefefe" d="m162.48 26.133-25.609 4.62L134.164 0Zm0 0"/><path fill="#fff" d="m77.297 157.25-33.524 16.973 19.344-43.883Zm0 0"/><path fill="#5e0e8d" d="m143.84 98.781-17.278-10.789L143.59 73.52Zm0 0"/><path fill="#742a7a" d="m114.664 106.777 29.176-7.996 2.148 12.2Zm0 0"/><path fill="#5c0c8f" d="m143.84 98.781-29.176 7.996 11.898-18.785Zm0 0"/><path fill="#7e3671" d="m120.996 62.18 10.149 1.011-7.407 10.586Zm0 0"/><path fill="#7d3572" d="m111.152 67.934 9.844-5.754 2.742 11.597Zm0 0"/><path fill="#5d0d8e" d="m107.45 91.063 3.702-23.13 12.586 5.844Zm0 0"/><path fill="#fff" d="M107.45 91.063 85.96 72.672l25.192-4.738Zm0 0"/><path fill="#762c78" d="m126.563 87.992-19.114 3.07 16.29-17.285Zm0 0"/><path fill="#fff" d="m85.96 72.672 21.49 18.39-11.055 3.114Zm0 0"/><path fill="#8c4765" d="m86.273 316.531 16.094-10.906 7.137 27.918Zm0 0"/><path fill="#9f5e54" d="m86.273 316.531 23.23 17.012-8.448 13.637Zm0 0"/><path fill="#681b84" d="m102.367 305.625 23.903 19.066-16.766 8.852Zm0 0"/><path fill="#5d0c8f" d="m126.27 324.691 24.574-17.894 6.844 33.133Zm0 0"/><path fill="#5e0e8d" d="m107.285 284.492 16.957 11.79-21.875 9.343Zm0 0"/><path fill="#b27743" d="m160.293 266.285 10.445-15.555 16.532 15.93Zm0 0"/><path fill="#884268" d="m150.844 306.797-26.602-10.516 16.406-28.742Zm0 0"/><path fill="#7e3671" d="m164.45 296.07-13.606 10.727-10.196-39.258Zm0 0"/><path fill="#5e0e8d" d="m205.918 239.848-19.672-22.922 17.883-4.254Zm0 0"/><path fill="#dfb01b" d="m186.246 216.926-11.254-13.574 29.383.125Zm0 0"/><path fill="#fefefe" d="m250.129 139.273-12.207 5.07 2.734-9.89Zm0 0"/><path fill="#fff" d="m246.652 120.523 3.477 18.75-9.473-4.82Zm0 0"/><path fill="#fff" d="m263.637 130.133-13.508 9.14-3.477-18.75Zm0 0"/><path fill="#671986" d="m237.922 144.344-9.332-5.422 12.066-4.469Zm0 0"/><path fill="#fbd304" d="m228.59 138.922 9.332 5.422-8.996 6.168Zm0 0"/><path fill="#5b0a90" d="m177.66 186.254 36.063-1.172-9.348 18.395Zm0 0"/><path fill="#5c0b90" d="m207.45 167.625 6.273 17.457-36.063 1.172Zm0 0"/><path fill="#fdd501" d="m220.379 216.234 11.168-11.34 9.926 17.063Zm0 0"/><path fill="#d5a324" d="m174.992 203.352-25.418-6.711 18.086-11.496Zm0 0"/><path fill="#6d2180" d="m103.7 252.492 4.265-24.226 17.058 10.601Zm0 0"/><path fill="#6d2080" d="m119.512 268.223-15.813-15.73 21.324-13.626Zm0 0"/><path fill="#691b84" d="m125.023 238.867-17.058-10.601 19.328-20.703Zm0 0"/><path fill="#7f3770" d="m140.648 267.54-21.136.683 5.511-29.356Zm0 0"/><path fill="#fed700" d="M99.469 267.004 73.98 269.89l15.024-15.118Zm0 0"/><path fill="#fed700" d="m73.98 269.89 25.489-2.886-19.602 15.742Zm0 0"/><path fill="#fed700" d="m103.7 252.492-4.231 14.512-10.465-12.23Zm0 0"/><path fill="#671986" d="m99.469 267.004 4.23-14.512 15.813 15.73Zm0 0"/><path fill="#5e0e8d" d="m93.68 173.035 2-13.844 11.332 1.227Zm0 0"/><path fill="#fff" d="m77.297 157.25 18.383 1.941-14.825 13.461Zm0 0"/><path fill="#fff" d="m95.68 159.191-2 13.844-12.825-.383Zm0 0"/><path fill="#752a79" d="m112.008 173.36 15.699 9.452-17.824 6.145Zm0 0"/><path fill="#6e227f" d="m112.008 173.36 16.031-20.462-.332 29.915Zm0 0"/><path fill="#752b79" d="m128.04 152.898-16.032 20.461-4.996-12.941Zm0 0"/><path fill="#5d0d8e" d="m93.68 173.035 18.328.324-2.125 15.598Zm0 0"/><path fill="#5d0c8f" d="m112.008 173.36-18.328-.325 13.332-12.617Zm0 0"/><path fill="#e3b418" d="m145.363 173.973 17.168-9.536 5.13 20.708Zm0 0"/><path fill="#d9a820" d="m149.574 196.64-4.21-22.667 22.296 11.172Zm0 0"/><path fill="#bf8638" d="m145.363 173.973 4.211 22.668-21.867-13.828Zm0 0"/><path fill="#f7cd06" d="m189.332 62.594-2.77 12.64-19.437-3.914Zm0 0"/><path fill="#fcd302" d="m192.07 53.59-2.738 9.004-16.77-15.215Zm0 0"/><path fill="#b67c40" d="m183.082 92.402 12.055-4.757 11.437 14.05Zm0 0"/><path fill="#661886" d="m186.563 75.234 8.574 12.41-12.055 4.758Zm0 0"/><path fill="#fdd401" d="m193.617 116.98-10.535-24.578 23.492 9.293Zm0 0"/><path fill="#5c0c8f" d="m157.379 103.465 25.703-11.063-11.57 30.055Zm0 0"/><path fill="#dfaf1b" d="m193.617 116.98 20.168 10.723-20.148 7.852Zm0 0"/><path fill="#72277b" d="m171.512 122.457 11.57-30.055 10.535 24.578Zm0 0"/><path fill="#9f5f54" d="m171.512 122.457 22.105-5.477.02 18.575Zm0 0"/><path fill="#f9d004" d="m156.414 132.988-6.39 18.317-10.13-14.356Zm0 0"/><path fill="#eabc12" d="m150.023 151.305-21.984 1.593 11.856-15.949Zm0 0"/><path fill="#f1c60b" d="m162.844 59.055 26.488 3.539-22.207 8.726Zm0 0"/><path fill="#ebbe11" d="m189.332 62.594-26.488-3.54 9.719-11.675Zm0 0"/><path fill="#fefefe" d="m162.48 26.133-8.628 18.754-16.98-14.133Zm0 0"/><path fill="#fff" d="m321.434 271.25 17.3-27.734 5.176 27.757ZM338.734 243.516l-17.3 27.734-20.047-32.574Zm0 0"/><path fill="#fff" d="m321.434 271.25-25.336 1.25 5.289-33.824ZM344 55.617 320.074 0H384ZM344 55.617l40 24.246-45.168 32.496Zm0 0"/><path fill="#fff" d="m344 55.617-47.77 9.535L320.074 0ZM285.61 183.965l-20.813-31.461 32.937-20.961ZM220.105 56.063l-4.175 8.992-11.383-5.73Zm0 0"/><path fill="#fffefe" d="m227.543 71.84-11.613-6.785 4.175-8.993Zm0 0"/><path fill="#5b0a90" d="m180.738 366.219-23.05-26.29 43.304-1.511Zm0 0"/><path fill="#61128b" d="m157.688 339.93 23.05 26.289-34.203-.906Zm0 0"/><path fill="#6a1d83" d="m146.535 365.313 34.203.906-17.68 17.765Zm0 0"/><path fill="#b07445" d="m90.516 365.473 10.539-18.293 10.257 22.09Zm0 0"/><path fill="#e0b01b" d="m69.371 330.777 16.902-14.246 14.782 30.649Zm0 0"/><path fill="#95525d" d="m146.535 365.313-35.222 3.957 13.308-20.024Zm0 0"/><path fill="#a5674e" d="m90.148 384.02 21.165-14.75 51.746 14.714Zm0 0"/><path fill="#9a5958" d="m111.313 369.27 35.222-3.957 16.524 18.671Zm0 0"/><path fill="#af7346" d="m214.25 365.988 20.348 18.024-43.22-.004Zm0 0"/><path fill="#aa6c4a" d="m232.418 363.637-18.168 2.351 10.34-24.953Zm0 0"/><path fill="#b47a41" d="m232.418 363.637 2.18 20.375-20.348-18.024Zm0 0"/><path fill="#fed500" d="m237.098 345.754-4.68 17.883-7.828-22.602Zm0 0"/><path fill="#5e0e8e" d="m224.59 341.035-10.34 24.953-13.258-27.57Zm0 0"/><path fill="#5e0d8e" d="m214.25 365.988-33.512.23 20.254-27.8Zm0 0"/><path fill="#73287b" d="m180.738 366.219 10.64 17.789-28.32-.024Zm0 0"/><path fill="#6e227f" d="m180.738 366.219 33.512-.23-22.871 18.019Zm0 0"/><path fill="#8b4666" d="m188.883 320.977-24.434-24.907 31.813 6.352Zm0 0"/><path fill="#5b0a90" d="m188.883 320.977-31.196 18.953-6.843-33.133Zm0 0"/><path fill="#752b79" d="M71.035 376.113 44.32 359.484l-3.308-15.3Zm0 0"/><path fill="#782e76" d="m44.32 359.484 26.715 16.63L33.523 384Zm0 0"/><path fill="#fed500" d="M17.98 354.195 0 384v-60.977Zm0 0"/><path fill="#fed600" d="m35.566 357.496-6.62-18.746 12.066 5.434ZM35.566 357.496l-17.586-3.3 10.965-15.446Zm0 0"/><path fill="#5f108c" d="m44.32 359.484-8.754-1.988 5.446-13.312Zm0 0"/><path fill="#fed600" d="M28.945 338.75 17.98 354.195 0 323.023Zm0 0"/><path fill="#a86b4b" d="m111.313 369.27-21.165 14.75.368-18.547Zm0 0"/><path fill="#b77d3f" d="m69.371 330.777-11-17.414 12.91-7.793Zm0 0"/><path fill="#752a79" d="m53.766 325.469 4.605-12.106 11 17.414Zm0 0"/><path fill="#fed600" d="m48.512 262.984 1.613 30.153-25.695-11.602Zm0 0"/><path fill="#ce9a2a" d="m241.05 329.531-32.218-6.855 21.027-11.39Zm0 0"/><path fill="#884268" d="m253.234 325.695-12.183 3.836-11.192-18.246Zm0 0"/><path fill="#f1c50c" d="m203.238 250.074 11.688 12.586-27.656 4Zm0 0"/><path fill="#e9bb13" d="m214.926 262.66 8.004 22.41-35.66-18.41Zm0 0"/><path fill="#dcab1e" d="m187.27 266.66 35.66 18.41-26.668 17.352Zm0 0"/><path fill="#fed600" d="m279.59 307.121 2.172-21.273 26.535 12.097Zm0 0"/><path fill="#fed600" d="m279.59 307.121-27.887-11.379 30.059-9.894ZM251.703 295.742l27.887 11.38-26.356 18.573ZM250.73 350.535l2.504-24.84 21.82 27.395Zm0 0"/><path fill="#fed600" d="m253.234 325.695-2.504 24.84-9.68-21.004Zm0 0"/><path fill="#5c0c8f" d="m230.633 234.195-3.98 12.098-20.735-6.445Zm0 0"/><path fill="#ce992a" d="m226.652 246.293-23.414 3.781 2.68-10.226Zm0 0"/><path fill="#f0c40d" d="m226.652 246.293 14.735 1.41-4.442 11.652Zm0 0"/><path fill="#5c0b8f" d="m226.652 246.293 3.98-12.098 10.755 13.508Zm0 0"/><path fill="#c69032" d="m214.926 262.66 11.726-16.367 10.293 13.062Zm0 0"/><path fill="#d09c28" d="m203.238 250.074 23.414-3.781-11.726 16.367Zm0 0"/><path fill="#8f4b62" d="m241.473 221.957 13.058-13.086-1.613 16.762Zm0 0"/><path fill="#f9d004" d="m244.137 234.164-2.664-12.207 11.445 3.676Zm0 0"/><path fill="#fff" d="m301.387 238.676-31.649-12.48 15.871-42.231ZM269.738 226.195l-15.207-17.324 31.078-24.906ZM254.531 208.871l15.207 17.324-16.82-.562Zm0 0"/><path fill="#fed600" d="M339.625 318.54 384 330.19l-42.254 19ZM311.66 384l30.086-34.809L384 384ZM253.234 325.695l45.618 8.035-23.797 19.36Zm0 0"/><path fill="#fed600" d="m311.66 384-12.808-50.27 42.894 15.461ZM250.73 350.535l24.325 2.555L259.543 384Zm0 0"/><path fill="#fed600" d="M275.055 353.09 311.66 384h-52.117Zm0 0"/><path fill="#fed600" d="m275.055 353.09 23.797-19.36L311.66 384Zm0 0"/><path fill="#fff" d="m384 274.64-23.84-14.41 23.84-37.3Zm0 0"/><path fill="#fefefe" d="m338.734 243.516 21.426 16.714-16.25 11.043Zm0 0"/><path fill="#fff" d="m360.16 260.23-21.426-16.714L384 222.93Zm0 0"/><path fill="#fed700" d="m384 330.191-21.555-30.23L384 296.21Zm0 0"/><path fill="#fed600" d="M362.445 299.96 384 330.192l-44.375-11.652Zm0 0"/><path fill="#fed600" d="m359.063 276.637 3.382 23.324-22.36-10.14ZM362.445 299.96l-3.382-23.323 13.585 10.55ZM359.063 276.637l-18.977 13.183 3.824-18.547Zm0 0"/><path fill="#fffefe" d="m360.16 260.23-1.098 16.407-15.152-5.364Zm0 0"/><path fill="#fed700" d="M359.063 276.637 384 274.64l-11.352 12.546Zm0 0"/><path fill="#fff" d="m359.063 276.637 1.097-16.407L384 274.64Zm0 0"/><path fill="#fed600" d="m362.445 299.96-22.82 18.58.46-28.72Zm0 0"/><path fill="#fff" d="m30.188 228.629-2.711-16.91 24.406 4.629Zm0 0"/><path fill="#fff" d="m30.188 228.629-14.06-1.883 11.349-15.027Zm0 0"/><path fill="#fff" d="m30.188 228.629-6.825 9.922-7.234-11.805Zm0 0"/><path fill="#5d0c8f" d="m92.488 191.008 1.192-17.973 16.203 15.922Zm0 0"/><path fill="#fff" d="m93.68 173.035-1.192 17.973-11.633-18.356ZM92.488 191.008l-18.75 3.262 7.117-21.618Zm0 0"/><path fill="#5f108c" d="m127.293 207.563-26.836-3.829 9.426-14.777Zm0 0"/><path fill="#5b0b90" d="m100.457 203.734-7.969-12.726 17.395-2.051Zm0 0"/><path fill="#fed600" d="M50.125 293.137 73.98 269.89l5.887 12.855Zm0 0"/><path fill="#fff" d="m73.738 194.27 4.367 16.55-26.222 5.528ZM37.648 241.934l-14.285-3.383 6.825-9.922Zm0 0"/><path fill="#651687" d="m109.332 150.605 18.707 2.293-21.027 7.52Zm0 0"/><path fill="#5c0c8f" d="m109.332 150.605-10.836-1.656 14.145-18.89Zm0 0"/><path fill="#6e2180" d="m128.04 152.898-18.708-2.293 3.309-20.546Zm0 0"/><path fill="#fff" d="m107.45 91.063-5.622 13.285-5.433-10.172Zm0 0"/><path fill="#5e0e8d" d="m107.45 91.063 7.214 15.714-12.836-2.43Zm0 0"/><path fill="#a26251" d="m114.664 106.777-7.215-15.715 19.114-3.07Zm0 0"/><path fill="#f9cf04" d="m121.738 127.367-7.074-20.59 31.324 4.203Zm0 0"/><path fill="#833c6d" d="m121.738 127.367 6.301 25.531-15.398-22.84Zm0 0"/><path fill="#a86a4c" d="m114.664 106.777 7.074 20.59-9.097 2.692Zm0 0"/><path fill="#ebbe11" d="m128.04 152.898-6.302-25.53 18.157 9.581Zm0 0"/><path fill="#f5cb07" d="m121.738 127.367 24.25-16.387-6.093 25.97Zm0 0"/><path fill="#61118b" d="m157.379 103.465-13.54-4.684 14.411-10.183Zm0 0"/><path fill="#5c0c8f" d="M158.25 88.598 143.84 98.78l-.25-25.261Zm0 0"/><path fill="#6a1d83" d="m143.84 98.781 13.539 4.684-11.39 7.515Zm0 0"/><path fill="#fff" d="M120.996 62.18 100.66 35.7l26.035 9.355Zm0 0"/><path fill="#fff" d="m100.66 35.7 20.336 26.48-9.844 5.754Zm0 0"/><path fill="#fff" d="m85.96 72.672 14.7-36.973 10.492 32.235Zm0 0"/><path fill="#5b0b90" d="m124.242 296.281 26.602 10.516-24.574 17.894Zm0 0"/><path fill="#60118c" d="m102.367 305.625 21.875-9.344 2.028 28.41Zm0 0"/><path fill="#904d61" d="m140.648 267.54-16.406 28.741-4.73-28.058Zm0 0"/><path fill="#b27743" d="m160.293 266.285-5.54-34.148 15.985 18.593Zm0 0"/><path fill="#95525d" d="m154.754 232.137 5.539 34.148-19.645 1.254Zm0 0"/><path fill="#5c0b8f" d="m205.918 239.848-21.113-3.27 1.441-19.652Zm0 0"/><path fill="#d29f26" d="m170.738 250.73 14.067-14.152 2.465 30.082Zm0 0"/><path fill="#eabd12" d="m184.805 236.578 18.433 13.496-15.968 16.586Zm0 0"/><path fill="#cf9b29" d="m203.238 250.074-18.433-13.496 21.113 3.27Zm0 0"/><path fill="#e5b716" d="m237.922 144.344-1.234 11.125-7.762-4.957Zm0 0"/><path fill="#f2c70b" d="m213.785 127.703-7.05 18.645-13.098-10.793Zm0 0"/><path fill="#fcd302" d="m204.375 203.477 16.004 12.757-16.25-3.562Zm0 0"/><path fill="#e4b517" d="m186.246 216.926 18.129-13.45-.246 9.196Zm0 0"/><path fill="#ae7246" d="m186.246 216.926-31.492 15.21 20.238-28.784Zm0 0"/><path fill="#d09c28" d="m174.992 203.352-23.008 16.894-2.41-23.605Zm0 0"/><path fill="#ce9a2a" d="m154.754 232.137-2.77-11.89 23.008-16.895Zm0 0"/><path fill="#fefefe" d="m71.574 250.402 20.02-10.691-2.59 15.062Zm0 0"/><path fill="#fff" d="m85.05 232.273 6.544 7.438-20.02 10.691Zm0 0"/><path fill="#fefefe" d="m91.594 239.71 12.105 12.782-14.695 2.281Zm0 0"/><path fill="#a36451" d="m140.648 267.54-15.625-28.673 29.73-6.73Zm0 0"/><path fill="#772d77" d="m107.285 284.492 12.227-16.27 4.73 28.06Zm0 0"/><path fill="#fff" d="m63.117 130.34 24.301 16.527-10.121 10.383Zm0 0"/><path fill="#b27743" d="m145.363 173.973-17.656 8.84.332-29.915Zm0 0"/><path fill="#fdd501" d="m189.332 62.594 2.738-9.004 12.477 5.734Zm0 0"/><path fill="#5b0a90" d="m213.785 127.703 10.235-20.73 8.113 9.215Zm0 0"/><path fill="#80386f" d="m178.809 151.652-5.977-8.43 20.805-7.667Zm0 0"/><path fill="#8b4666" d="m193.637 135.555-20.805 7.668-1.32-20.766Zm0 0"/><path fill="#f1c60c" d="m172.832 143.223-16.418-10.235 15.098-10.531Zm0 0"/><path fill="#f0c50c" d="m172.832 143.223-22.809 8.082 6.391-18.317Zm0 0"/><path fill="#e7b914" d="m172.832 143.223 5.977 8.43-16.278 12.785Zm0 0"/><path fill="#e4b517" d="m150.023 151.305 22.809-8.082-10.3 21.214Zm0 0"/><path fill="#6a1d83" d="m233.406 126.91-4.816 12.012-14.805-11.219Zm0 0"/><path fill="#5e0e8d" d="m228.59 138.922 4.816-12.012 7.25 7.543Zm0 0"/><path fill="#5b0a90" d="m233.406 126.91 13.246-6.387-5.996 13.93Zm0 0"/><path fill="#5c0b8f" d="m246.652 120.523-13.246 6.387-1.273-10.722Zm0 0"/><path fill="#5b0a90" d="m233.406 126.91-19.62.793 18.347-11.516Zm0 0"/><path fill="#d7a523" d="m143.59 73.52 19.254-14.465 4.281 12.265Zm0 0"/><path fill="#fefdfe" d="m130.809 51.266-9.813 10.914 5.7-17.125Zm0 0"/><path fill="#60108c" d="m120.996 62.18 9.813-10.914.336 11.925Zm0 0"/><path fill="#fed600" d="m339.625 318.54-31.328-20.595 31.789-8.125ZM308.297 297.945l13.137-26.695 18.652 18.57Zm0 0"/><path fill="#fed600" d="m308.297 297.945-12.2-25.445 25.337-1.25ZM308.297 297.945l31.328 20.594-40.773 15.191Zm0 0"/><path fill="#fff" d="m301.387 238.676-22.418 27.433-9.844-16.62Zm0 0"/><path fill="#fbd203" d="m215.93 65.055-13.426 14.804 2.043-20.535Zm0 0"/><path fill="#fbd203" d="m202.504 79.86-13.172-17.266 15.215-3.27Zm0 0"/><path fill="#fed600" d="m189.332 62.594 13.172 17.265-15.941-4.625Zm0 0"/><path fill="#6e2180" d="m202.504 79.86-7.367 7.785-8.574-12.41Zm0 0"/><path fill="#924f5f" d="m101.055 347.18 23.566 2.066-13.308 20.024Zm0 0"/><path fill="#641588" d="m124.621 349.246 1.649-24.555 31.418 15.239Zm0 0"/><path fill="#6e227f" d="m124.621 349.246-15.117-15.703 16.766-8.852Zm0 0"/><path fill="#a36450" d="m109.504 333.543 15.117 15.703-23.566-2.066Zm0 0"/><path fill="#73287b" d="m69.371 330.777-28.36 13.407 12.755-18.715Zm0 0"/><path fill="#5b0a90" d="m157.688 339.93 31.195-18.953 12.11 17.441Zm0 0"/><path fill="#c18a36" d="m208.832 322.676-19.95-1.7 7.38-18.554Zm0 0"/><path fill="#5b0b90" d="m188.883 320.977 19.949 1.699-7.84 15.742Zm0 0"/><path fill="#995759" d="m188.883 320.977-38.04-14.18 13.606-10.727Zm0 0"/><path fill="#631489" d="m35.566 357.496 8.754 1.988L33.523 384Zm0 0"/><path fill="#fcd302" d="m23.422 368.7-5.442-14.505 17.586 3.301Zm0 0"/><path fill="#fed600" d="m17.98 354.195 5.442 14.504L0 384ZM33.523 384l-10.101-15.3 12.144-11.204ZM23.422 368.7 33.523 384H0Zm0 0"/><path fill="#a4644f" d="m90.148 384.02-19.113-7.907 19.48-10.64Zm0 0"/><path fill="#b57a41" d="m71.035 376.113-1.664-45.336 21.145 34.696Zm0 0"/><path fill="#6d2080" d="m86.273 316.531 5.09-18.789 11.004 7.883Zm0 0"/><path fill="#884368" d="m91.363 297.742-5.09 18.79-14.992-10.962Zm0 0"/><path fill="#b57a40" d="m86.273 316.531-16.902 14.246 1.91-25.207Zm0 0"/><path fill="#681a85" d="m91.363 297.742 15.922-13.25-4.918 21.133Zm0 0"/><path fill="#c79130" d="m222.93 285.07 28.773 10.672-21.844 15.543Zm0 0"/><path fill="#a16152" d="m251.703 295.742 1.531 29.953-23.375-14.41Zm0 0"/><path fill="#d7a522" d="m196.262 302.422 26.668-17.352 6.93 26.215Zm0 0"/><path fill="#fff" d="m249.969 179.223.433-9.446 35.207 14.188ZM250.402 169.777l14.395-17.273 20.812 31.46Zm0 0"/><path fill="#fff" d="m250.402 169.777-.687-9.64 15.082-7.633Zm0 0"/><path fill="#fed500" d="m236.688 155.469 7.242 7.418-18.489 4.476Zm0 0"/><path fill="#fefefe" d="m250.402 169.777-6.472-6.89 5.785-2.75Zm0 0"/><path fill="#fed600" d="m279.59 307.121 28.707-9.176-9.445 35.785Zm0 0"/><path fill="#fff" d="m89.2 202.516-11.095 8.304-4.367-16.55ZM92.488 191.008 89.2 202.516l-15.46-8.246Zm0 0"/><path fill="#681b85" d="m100.457 203.734-11.258-1.218 3.29-11.508Zm0 0"/><path fill="#fefefe" d="m37.648 241.934 14.235-25.586 4.187 27.582Zm0 0"/><path fill="#fff" d="m51.883 216.348-14.235 25.586-7.46-13.305Zm0 0"/><path fill="#fed700" d="m37.648 241.934-13.683 12.78-.602-16.163Zm0 0"/><path fill="#fed600" d="m24.43 281.535-.465-26.82 24.547 8.27ZM48.512 262.984l7.558-19.054 15.504 6.472ZM73.98 269.89l-25.468-6.906 23.062-12.582ZM50.125 293.137l-1.613-30.153 25.468 6.907Zm0 0"/><path fill="#fff" d="m87.418 146.867 8.262 12.324-18.383-1.941ZM90.344 112.273l-6.52-11.5 18.004 3.575Zm0 0"/><path fill="#fff" d="m83.824 100.773 6.52 11.5-27.227 18.067Zm0 0"/><path fill="#d19d28" d="m218.914 148.793-11.465 18.832-.715-21.277Zm0 0"/><path fill="#fdd401" d="m218.914 148.793 9.676-9.871.336 11.59Zm0 0"/><path fill="#fdd501" d="m228.59 138.922-9.676 9.871-5.129-21.09Zm0 0"/><path fill="#f5cb08" d="m218.914 148.793-12.18-2.445 7.051-18.645Zm0 0"/><path fill="#a16252" d="m207.45 167.625-17.24-13.762 16.524-7.515Zm0 0"/><path fill="#80386f" d="m206.734 146.348-16.523 7.515 3.426-18.308Zm0 0"/><path fill="#6e227f" d="m190.21 153.863-11.401-2.21 14.828-16.098Zm0 0"/><path fill="#5b0a90" d="m231.547 204.895-8.176-6.282 26.598-19.39Zm0 0"/><path fill="#daa920" d="m254.531 208.871-22.984-3.976 18.422-25.672Zm0 0"/><path fill="#b77e3e" d="m241.473 221.957-9.926-17.062 22.984 3.976Zm0 0"/><path fill="#daa820" d="m154.754 232.137 30.05 4.441-14.066 14.152Zm0 0"/><path fill="#5d0d8e" d="m184.805 236.578-30.051-4.441 31.492-15.211Zm0 0"/><path fill="#9b5a57" d="m127.293 207.563 24.691 12.683-26.96 18.621Zm0 0"/><path fill="#ab6e49" d="m151.984 220.246-24.691-12.684 22.281-10.921Zm0 0"/><path fill="#aa6d4a" d="m149.574 196.64-22.281 10.923.414-24.75Zm0 0"/><path fill="#9a5958" d="m151.984 220.246 2.77 11.89-29.73 6.731Zm0 0"/><path fill="#5c0b8f" d="m103.7 252.492-.325-20.703 4.59-3.523Zm0 0"/><path fill="#fefefe" d="m91.594 239.71 11.781-7.92.324 20.702Zm0 0"/><path fill="#6b1d82" d="m100.79 278.688 18.722-10.465-12.227 16.27Zm0 0"/><path fill="#fed700" d="m99.469 267.004 1.32 11.683-20.922 4.06Zm0 0"/><path fill="#671985" d="m119.512 268.223-18.723 10.464-1.32-11.683Zm0 0"/><path fill="#fed600" d="m100.79 278.688-9.427 19.054-11.496-14.996Zm0 0"/><path fill="#681a85" d="m91.363 297.742 9.426-19.055 6.496 5.805Zm0 0"/><path fill="#fed701" d="m215.559 84.695.37-19.64 11.614 6.785Zm0 0"/><path fill="#fed600" d="m215.559 84.695-13.055-4.836 13.426-14.804Zm0 0"/><path fill="#5b0a90" d="m224.02 106.973 17.91-5.782-9.797 14.996Zm0 0"/><path fill="#fff" d="m241.93 101.191 9.293-23.898 15.09 27.578ZM246.652 120.523l-4.722-19.332 24.382 3.68Zm0 0"/><path fill="#5b0a90" d="m241.93 101.191 4.722 19.332-14.52-4.335Zm0 0"/><path fill="#fff" d="m153.852 44.887 8.628-18.754 10.083 21.246Zm0 0"/><path fill="#efc30d" d="m162.844 59.055-8.992-14.168 18.71 2.492Zm0 0"/><path fill="#fff" d="m136.871 30.754 2.035 15.437-12.21-1.136Zm0 0"/><path fill="#fefefe" d="m138.906 46.191-8.097 5.075-4.114-6.211ZM153.852 44.887l-14.946 1.304-2.035-15.437Zm0 0"/><path fill="#e9bc12" d="m141.98 56.598 20.864 2.457L143.59 73.52Zm0 0"/><path fill="#bd8539" d="m141.98 56.598 1.61 16.922-12.445-10.329Zm0 0"/><path fill="#a26252" d="m130.809 51.266 11.171 5.332-10.835 6.593Zm0 0"/><path fill="#d4a125" d="m141.98 56.598 11.872-11.711 8.992 14.168Zm0 0"/><path fill="#f5cb08" d="m141.98 56.598-3.074-10.407 14.946-1.304Zm0 0"/><path fill="#ca942e" d="m138.906 46.191 3.074 10.407-11.171-5.332Zm0 0"/><path fill="#fed600" d="m281.762 285.848 14.336-13.348 12.199 25.445Zm0 0"/><path fill="#fffffe" d="m278.969 266.11 17.129 6.39-14.336 13.348Zm0 0"/><path fill="#fff" d="m301.387 238.676-5.29 33.824-17.128-6.39Zm0 0"/><path fill="#fed600" d="m50.125 293.137-.203 30.328-19.137-10.82Zm0 0"/><path fill="#fed600" d="M49.922 323.465 28.945 338.75l1.84-26.105ZM28.945 338.75l20.977-15.285-8.91 20.719Zm0 0"/><path fill="#fcd402" d="m49.922 323.465.203-30.328 8.246 20.226Zm0 0"/><path fill="#71267c" d="m41.012 344.184 8.91-20.72 3.844 2.005Zm0 0"/><path fill="#782e76" d="m49.922 323.465 8.45-10.102-4.606 12.106Zm0 0"/><path fill="#fed600" d="m71.281 305.57-21.156-12.433 29.742-10.39Zm0 0"/><path fill="#fed600" d="m91.363 297.742-20.082 7.828 8.586-22.824ZM50.125 293.137l21.156 12.433-12.91 7.793Zm0 0"/><path fill="#b47942" d="m251.703 295.742-15.293-22.527 15.39.043Zm0 0"/><path fill="#d6a324" d="m236.41 273.215 15.293 22.527-28.773-10.672Zm0 0"/><path fill="#fcd402" d="m244.844 153.555-8.156 1.914 1.234-11.125Zm0 0"/><path fill="#fed600" d="m244.844 153.555-.914 9.332-7.243-7.418Zm0 0"/><path fill="#fefefe" d="m244.844 153.555-6.922-9.211 12.207-5.07Zm0 0"/><path fill="#fefefd" d="m243.93 162.887.914-9.332 4.87 6.582Zm0 0"/><path fill="#fff" d="m264.797 152.504-19.953 1.05 5.285-14.28ZM249.715 160.137l-4.871-6.582 19.953-1.051Zm0 0"/><path fill="#fed600" d="m341.746 349.191-42.894-15.46 40.773-15.192ZM48.512 262.984l-24.547-8.27 13.683-12.78Zm0 0"/><path fill="#fed600" d="m48.512 262.984-10.864-21.05 18.422 1.996Zm0 0"/><path fill="#5b0a90" d="m98.496 148.95 10.836 1.655-2.32 9.813Zm0 0"/><path fill="#5c0b8f" d="m95.68 159.191 2.816-10.242 8.516 11.469Zm0 0"/><path fill="#fff" d="m87.418 146.867 11.078 2.082-2.816 10.242ZM99.36 122.137l-11.942 24.73-24.3-16.527ZM90.344 112.273l9.015 9.864-36.242 8.203Zm0 0"/><path fill="#fff" d="m87.418 146.867 11.941-24.73-.863 26.812Zm0 0"/><path fill="#631489" d="m98.496 148.95.863-26.813 13.282 7.922Zm0 0"/><path fill="#681a84" d="m99.36 122.137 15.304-15.36-2.023 23.282Zm0 0"/><path fill="#5c0c8f" d="m114.664 106.777-15.305 15.36 2.47-17.79Zm0 0"/><path fill="#fefefe" d="m99.36 122.137-9.016-9.864 11.484-7.925Zm0 0"/><path fill="#fed600" d="m225.441 167.363-6.527-18.57 10.012 1.719Zm0 0"/><path fill="#5c0b8f" d="m207.45 167.625 17.991-.262-11.718 17.719Zm0 0"/><path fill="#e6b716" d="m218.914 148.793 6.527 18.57-17.992.262Zm0 0"/><path fill="#fed600" d="m236.688 155.469-11.247 11.894 3.485-16.851Zm0 0"/><path fill="#7c3373" d="m190.21 153.863-15.327 13.371 3.926-15.582Zm0 0"/><path fill="#b37842" d="m174.883 167.234 15.328-13.37 17.238 13.761Zm0 0"/><path fill="#5b0a90" d="m213.723 185.082 27.78-12.09-18.132 25.621ZM223.371 198.613l18.133-25.62 8.465 6.23Zm0 0"/><path fill="#fdd401" d="m243.93 162.887-2.426 10.105-16.063-5.629Zm0 0"/><path fill="#5d0d8e" d="m241.504 172.992-27.781 12.09 11.718-17.719Zm0 0"/><path fill="#f6cc08" d="m241.504 172.992 8.898-3.215-.433 9.446Zm0 0"/><path fill="#fed600" d="m241.504 172.992 2.426-10.105 6.472 6.89Zm0 0"/><path fill="#5c0c8f" d="m107.965 228.266-7.445-11.473 26.773-9.23Zm0 0"/><path fill="#fff" d="m87.414 220.637 9.32 5.984-11.683 5.652Zm0 0"/><path fill="#5b0a90" d="m96.734 226.621-9.32-5.984 13.106-3.844ZM107.965 228.266l-11.23-1.645 3.785-9.828ZM96.734 226.621l11.23 1.645-4.589 3.523Zm0 0"/><path fill="#fff" d="m96.734 226.621-5.14 13.09-6.543-7.438ZM96.734 226.621l6.641 5.168-11.781 7.922ZM73.219 227.016l-21.336-10.668 26.222-5.528ZM87.414 220.637l-14.195 6.379 4.886-16.196ZM51.883 216.348l21.336 10.668L56.07 243.93Zm0 0"/><path fill="#fff" d="m73.219 227.016 14.195-6.38-2.363 11.637Zm0 0"/><path fill="#fefefe" d="m56.07 243.93 17.149-16.914-1.645 23.386Zm0 0"/><path fill="#fff" d="m73.219 227.016 11.832 5.257-13.477 18.13ZM90.102 210.418l-2.688 10.219-9.309-9.817Zm0 0"/><path fill="#fefefe" d="m89.2 202.516.902 7.902-11.997.402Zm0 0"/><path fill="#5b0a90" d="m87.414 220.637 2.688-10.219 10.418 6.375Zm0 0"/><path fill="#fff" d="m232.313 83.219-4.77-11.38 23.68 5.454Zm0 0"/><path fill="#fed500" d="m232.313 83.219-16.754 1.476 11.984-12.855Zm0 0"/><path fill="#fff" d="m241.93 101.191-9.618-17.972 18.91-5.926Zm0 0"/><path fill="#5f108c" d="m202.504 79.86 4.07 21.835-11.437-14.05Zm0 0"/><path fill="#5e0e8d" d="m215.559 84.695-8.985 17-4.07-21.836Zm0 0"/><path fill="#fdd500" d="m206.574 101.695 7.211 26.008-20.168-10.723Zm0 0"/><path fill="#5b0b90" d="m213.785 127.703-7.21-26.008 17.445 5.278Zm0 0"/><path fill="#f3c80a" d="m251.8 273.258-15.39-.043.535-13.86Zm0 0"/><path fill="#e6b815" d="m236.41 273.215-21.484-10.555 22.02-3.305Zm0 0"/><path fill="#b37842" d="m236.41 273.215-13.48 11.855-8.004-22.41Zm0 0"/><path fill="#fed600" d="m279.59 307.121 19.262 26.61-45.618-8.036Zm0 0"/><path fill="#5c0b90" d="m223.371 198.613 8.176 6.282-11.168 11.34Zm0 0"/><path fill="#5b0a90" d="m204.375 203.477 18.996-4.864-2.992 17.621Zm0 0"/><path fill="#5b0a90" d="m223.371 198.613-18.996 4.864 9.348-18.395ZM100.52 216.793l-.063-13.059 26.836 3.828Zm0 0"/><path fill="#5b0a90" d="m90.102 210.418 10.355-6.684.063 13.059Zm0 0"/><path fill="#5d0d8e" d="m100.457 203.734-10.355 6.684-.903-7.902Zm0 0"/><path fill="#fdd501" d="m232.313 83.219-7.84 8.668-8.914-7.192Zm0 0"/><path fill="#5b0a90" d="m206.574 101.695 17.899-9.808-.453 15.086Zm0 0"/><path fill="#5c0b8f" d="m224.473 91.887-17.899 9.808 8.985-17Zm0 0"/><path fill="#5b0a90" d="m224.473 91.887 17.457 9.304-17.91 5.782Zm0 0"/><path fill="#eec20e" d="m224.473 91.887 7.84-8.668 9.617 17.972Zm0 0"/></svg>