<svg xmlns="http://www.w3.org/2000/svg" width="512" height="512" viewBox="0 0 384 384"><path fill="#c1bec7" d="M43.844 0 87.09.02 43.043 24.969Zm0 0"/><path fill="#e7e5e9" d="m384.012 100.613-.051 132.961-31.344-56.793Zm0 0"/><path fill="#fbfbfc" d="m295.36 158.523 43.753-49.003 13.504 67.261Zm0 0"/><path fill="#fefdfe" d="m339.113 109.52-43.754 49.003-.296-62.472Zm0 0"/><path fill="#a8a4af" d="M43.043 24.969.035 91.426.043-.004Zm0 0"/><path fill="#f4f4f5" d="m.035 91.426 44.918-6.88-4.844 55.036Zm0 0"/><path fill="#fefefe" d="m83.84 93.672-38.887-9.125L85.63 70.305Zm0 0"/><path fill="#edecef" d="m44.953 84.547-1.91-59.578 42.586 45.336Zm0 0"/><path fill="#291e3b" d="m166.348 312.832 20.644-35.883 13.094 24.719Zm0 0"/><path fill="#514960" d="m175.453 202.535 2.3-12.75 26.126 10.031Zm0 0"/><path fill="#fefefe" d="m44.953 84.547 38.887 9.125-11.824 26.34Zm0 0"/><path fill="#fff" d="M100.727 101.36 83.84 93.671l22.195-5.426Zm0 0"/><path fill="#c6c4cb" d="m174.648 170.992-6.16 4.274-7.644-14.07Zm0 0"/><path fill="#201533" d="m180.746 94.602-26.625-7.157 14.86-18.773Zm0 0"/><path fill="#fdfdfe" d="m352.617 176.781-29.695 48.38-27.563-66.638Zm0 0"/><path fill="#f9f8f9" d="m339.113 109.52 44.899-8.907-31.395 76.168Zm0 0"/><path fill="#f7f7f8" d="M170.086-.016 223.91-.02l-57.43 46.598Zm0 0"/><path fill="#fefefe" d="m295.36 158.523-29.423-30.546 29.125-31.926Zm0 0"/><path fill="#fefefe" d="m265.938 127.977-7.31-22.09 36.435-9.836Zm0 0"/><path fill="#fefefe" d="m258.629 105.887-4.102-20.434 40.536 10.598ZM223.91-.02l59.25 37.29-55.762 35.34Zm0 0"/><path fill="#9893a1" d="m27.723 297.234-8.739 21.29L.016 291.382Zm0 0"/><path fill="#d4d2d8" d="m.023 229.637-.027-45.41 33.215 14.933Zm0 0"/><path fill="#e5e4e8" d="m259.977 383.984-25.211.016 10.578-18.39Zm0 0"/><path fill="#f0eff1" d="m265.18 275.98 24.152-2.5-20.328 18.34Zm0 0"/><path fill="#f8f8f9" d="m265.18 275.98-14.547 11.278.93-18.692Zm0 0"/><path fill="#f5f5f6" d="m283.867 314.238-32.445 12.446.367-19.903Zm0 0"/><path fill="#f8f8f9" d="m265.996 253.887-12.328-2.418 1.238-11.207Zm0 0"/><path fill="#201533" d="m218.82 213.621 3.243 1.445-13.133 25.036Zm0 0"/><path fill="#231836" d="m253.668 251.469-11.57-6.196 12.808-5.011Zm0 0"/><path fill="#716a7d" d="m242.098 245.273 11.57 6.196-14.008-.094Zm0 0"/><path fill="#fbfafb" d="M322.922 225.16 277.09 190.56l18.27-32.036Zm0 0"/><path fill="#f0eff1" d="m40.11 139.582-6.9 59.578-33.214-14.933Zm0 0"/><path fill="#e9e8eb" d="m.035 91.426 40.074 48.156-40.113 44.645Zm0 0"/><path fill="#fefefe" d="m223.91-.02 3.488 72.63-16.73-11.813ZM43.043 24.969l56.922 3.843-14.336 41.493Zm0 0"/><path fill="#9e9aa7" d="m43.844 0-.801 24.969-43-24.973Zm0 0"/><path fill="#c5c2ca" d="m.035 91.426 43.008-66.457 1.91 59.578Zm0 0"/><path fill="#fefefe" d="m40.11 139.582 4.843-55.035 27.063 35.465ZM85.629 70.305l20.406 17.941-22.195 5.426ZM110.805 67l-4.77 21.246L85.63 70.305Zm0 0"/><path fill="#382e49" d="m128.535 298.555-6.668-34.95 35.996 8.438Zm0 0"/><path fill="#5f576c" d="m166.348 312.832-37.813-14.277 29.328-26.512Zm0 0"/><path fill="#2d233f" d="m166.348 312.832-8.485-40.789 29.13 4.906Zm0 0"/><path fill="#2b203d" d="m190.355 173.293-12.601 16.492-3.106-18.793Zm0 0"/><path fill="#241937" d="m127.012 194.328.246 20.918-14.028-9.965Zm0 0"/><path fill="#332944" d="m110.852 181.516 16.16 12.812-13.782 10.953Zm0 0"/><path fill="#dedce1" d="m177.754 189.785-9.266-14.52 6.16-4.273Zm0 0"/><path fill="#e6e5e8" d="m168.488 175.266 9.266 14.52-28.063-6.192Zm0 0"/><path fill="#afabb6" d="m168.488 175.266-18.797 8.328 11.153-22.399Zm0 0"/><path fill="#201533" d="m185.8 71.148-5.054 23.454-11.766-25.93Zm0 0"/><path fill="#b7b3bd" d="m176.262 128.41-19.012-1.387 6.184-12.28Zm0 0"/><path fill="#bdbac3" d="m149.691 183.594-7.75-27.965 18.903 5.566Zm0 0"/><path fill="#554d64" d="m141.941 155.629 7.75 27.965-20.98-19.719Zm0 0"/><path fill="#574f66" d="m141.941 155.629-13.23 8.246-2.05-20.074Zm0 0"/><path fill="#231836" d="m154.121 87.445-8.203-17.785 23.062-.988Zm0 0"/><path fill="#7f788a" d="m129.3 64.395 16.618 5.265-17.79 13.547Zm0 0"/><path fill="#201533" d="m145.918 69.66 8.203 17.785-25.992-4.238ZM163.434 114.742l-9.313-27.297 26.625 7.157Zm0 0"/><path fill="#b9b6bf" d="m157.25 127.023-16.43-17.753 22.614 5.472Zm0 0"/><path fill="#dcdbdf" d="m140.82 109.27 16.43 17.753-16.355 3.762Zm0 0"/><path fill="#ecebed" d="m352.617 176.781 31.344 56.793-61.04-8.414Zm0 0"/><path fill="#dad8dd" d="M279.91.004 330.742 0 283.16 37.27Zm0 0"/><path fill="#fbfbfb" d="m283.16 37.27 51.883 18.093-39.98 40.688Zm0 0"/><path fill="#cccad0" d="m330.742 0 4.301 55.363L283.16 37.27Zm0 0"/><path fill="#fefefe" d="m283.16 37.27 11.902 58.78-40.535-10.597ZM283.16 37.27l-28.633 48.183-27.129-12.844Zm0 0"/><path fill="#dddbe0" d="M384.012.031v100.582l-48.969-45.25Zm0 0"/><path fill="#fefefe" d="m295.36 158.523-43.528-11.273 14.106-19.273ZM265.938 127.977l-19.282-10.415 11.973-11.675Zm0 0"/><path fill="#f1f1f3" d="m243.125 346.508 18.824 8.703-16.605 10.398Zm0 0"/><path fill="#787284" d="m.016 291.383 18.968 27.14-18.976 7.598Zm0 0"/><path fill="#a4a0ac" d="m18.984 318.523 8.739-21.289 7.304 17.325Zm0 0"/><path fill="#edecee" d="M27.723 297.234.016 291.383l39.332-46.13Zm0 0"/><path fill="#cdcbd1" d="M39.348 245.254.016 291.383l.007-61.746Zm0 0"/><path fill="#948f9d" d="m259.977 383.984 1.972-28.773 42.399 28.785Zm0 0"/><path fill="#c1bec6" d="m261.95 355.21-1.973 28.774-14.633-18.375Zm0 0"/><path fill="#f9f9fa" d="m265.18 275.98.816-22.093 23.336 19.593Zm0 0"/><path fill="#faf9fa" d="m265.996 253.887-.816 22.093-13.618-7.414Zm0 0"/><path fill="#201533" d="m230.457 333.926-4.883 10.012-23.347-20.575Zm0 0"/><path fill="#fefefe" d="m243.125 346.508-12.668-12.582 20.965-7.242Zm0 0"/><path fill="#fdfdfd" d="m230.457 333.926 12.668 12.582-17.55-2.57Zm0 0"/><path fill="#332945" d="m234.54 319.805-32.313 3.558 27.628-16.797Zm0 0"/><path fill="#211633" d="m234.54 319.805-4.083 14.12-28.23-10.562Zm0 0"/><path fill="#f0f0f1" d="m269.004 291.82-18.371-4.562 14.547-11.278Zm0 0"/><path fill="#f6f6f7" d="m250.633 287.258 18.37 4.562-17.214 14.961Zm0 0"/><path fill="#f2f2f3" d="m269.004 291.82 14.863 22.418-32.078-7.457Zm0 0"/><path fill="#fefefe" d="m264.672 337.953-21.547 8.555 8.297-19.824Zm0 0"/><path fill="#fdfdfd" d="m243.125 346.508 21.547-8.555-2.723 17.258Zm0 0"/><path fill="#60596e" d="m253.668 251.469-2.106 17.097-11.902-17.191Zm0 0"/><path fill="#fbfafb" d="m265.996 253.887-14.433 14.68 2.105-17.098Zm0 0"/><path fill="#201533" d="m242.098 245.273.734-22.25 12.074 17.239Zm0 0"/><path fill="#b9b5bf" d="m242.832 223.023 11.711-1.984.363 19.223Zm0 0"/><path fill="#201533" d="m228.625 231.133-6.562-16.067 11.44 3.61Zm0 0"/><path fill="#211634" d="m242.832 223.023-14.207 8.11 4.879-12.457Zm0 0"/><path fill="#201533" d="m228.625 231.133 14.207-8.11-.734 22.25ZM222.063 215.066l6.562 16.067-19.695 8.969Zm0 0"/><path fill="#fdfdfd" d="m278.469 227.543-12.473 26.344-11.09-13.625Zm0 0"/><path fill="#fefefe" d="m254.543 221.04 23.926 6.503-23.563 12.719Zm0 0"/><path fill="#fdfdfd" d="m265.996 253.887 12.473-26.344 10.863 45.937Zm0 0"/><path fill="#fefefe" d="m254.785 203.375-4.562-22.332 26.867 9.516Zm0 0"/><path fill="#fdfdfd" d="m278.469 227.543 44.453-2.383-33.59 48.32Zm0 0"/><path fill="#878191" d="m384 345.695-.027 23.477-13.77-15.637Zm0 0"/><path fill="#f7f6f7" d="m40.11 139.582 34.75 30.078-41.65 29.5Zm0 0"/><path fill="#fefefe" d="m84.852 187.64-11.094 7.622 1.101-25.602Zm0 0"/><path fill="#e2e1e4" d="M39.348 245.254.023 229.637l33.188-30.477Zm0 0"/><path fill="#fdfdfd" d="m84.605 271.426-16.574-29.719 24.742 4.832Zm0 0"/><path fill="#fefefe" d="M186.54 51.273 223.91-.02l-13.242 60.817Zm0 0"/><path fill="#fefefe" d="m186.54 51.273-20.06-4.695L223.91-.02Zm0 0"/><path fill="#d8d6db" d="M283.16 37.27 223.91-.02l56 .024Zm0 0"/><path fill="#fafafb" d="M170.086-.016 147.68 44.48 136.535.02Zm0 0"/><path fill="#dddbe0" d="m136.535.02-36.57 28.793L87.09.02Zm0 0"/><path fill="#e2e1e4" d="m87.09.02 12.875 28.793-56.922-3.844Zm0 0"/><path fill="#fefdfe" d="m125.082 29.457-3.379 18.398-21.738-19.042Zm0 0"/><path fill="#f8f8f9" d="m147.68 44.48-22.598-15.023L136.535.02Zm0 0"/><path fill="#fefefe" d="m79.727 148.695-39.618-9.113 31.907-19.57Zm0 0"/><path fill="#fdfdfe" d="m40.11 139.582 39.617 9.113-4.868 20.965Zm0 0"/><path fill="#201533" d="m131.84 98.793-11.93-8.035 8.219-7.551ZM115.75 109.39l16.09-10.597 8.98 10.477Zm0 0"/><path fill="#201533" d="m131.84 98.793-16.09 10.598 4.16-18.633Zm0 0"/><path fill="#312743" d="m118.598 63.043 10.703 1.352-1.172 18.812Zm0 0"/><path fill="#281e3b" d="m110.805 67 7.793-3.957 9.53 20.164Zm0 0"/><path fill="#fefefe" d="M99.965 28.813 110.805 67l-25.176 3.305Zm0 0"/><path fill="#291e3b" d="M119.91 90.758 110.805 67l17.324 16.207Zm0 0"/><path fill="#211634" d="m119.91 90.758-13.875-2.512L110.805 67Zm0 0"/><path fill="#201533" d="m128.535 298.555-37.582 14.734 13.219-15.305Zm0 0"/><path fill="#201533" d="m128.535 298.555-23.965 43.882-13.617-29.148ZM128.535 298.555l37.813 14.277-27.625 30.004Zm0 0"/><path fill="#2d233f" d="m108.398 288.64 13.47-25.035 6.667 34.95Zm0 0"/><path fill="#221735" d="m104.172 297.984 4.226-9.343 20.137 9.914Zm0 0"/><path fill="#6c6579" d="m157.863 272.043 17.371-20.848 11.758 25.754Zm0 0"/><path fill="#a09ba8" d="m175.234 251.195 22.032 2.614-10.274 23.14Zm0 0"/><path fill="#8f8998" d="m175.234 251.195-19.254-4.347 13.727-12.414Zm0 0"/><path fill="#908a99" d="m155.98 246.848 19.254 4.347-17.37 20.848Zm0 0"/><path fill="#201533" d="m208.93 240.102-17.043-6.676 26.933-19.805Zm0 0"/><path fill="#ebeaed" d="m197.086 212.633-21.633-10.098 28.426-2.719Zm0 0"/><path fill="#201533" d="m191.887 233.426 5.199-20.793 21.734.988Zm0 0"/><path fill="#fefefe" d="m235.879 152.469 3.105-9.938 12.848 4.719ZM238.984 142.531l8.75-7.562 4.098 12.281Zm0 0"/><path fill="#fefefe" d="m247.734 134.969-8.75 7.562 2.473-9.644ZM247.734 134.969l18.203-6.992-14.105 19.273Zm0 0"/><path fill="#fefefe" d="m246.656 117.563 1.078 17.406-6.277-2.082Zm0 0"/><path fill="#fefefe" d="m265.938 127.977-18.204 6.992-1.078-17.406Zm0 0"/><path fill="#201533" d="m238.984 142.531-13.402-5.761 15.875-3.883Zm0 0"/><path fill="#a39eab" d="m225.582 136.77 13.402 5.761-3.105 9.938Zm0 0"/><path fill="#201533" d="m190.355 173.293 13.524 26.523-26.125-10.03Zm0 0"/><path fill="#a9a4b0" d="m175.453 202.535-24.062 2.832-1.7-21.773Zm0 0"/><path fill="#cdcad1" d="m177.754 189.785-2.3 12.75-25.763-18.941Zm0 0"/><path fill="#241936" d="m104.29 249.04 21.296-10.876-3.719 25.441Zm0 0"/><path fill="#fefefe" d="m101.195 269.836-16.59 1.59 8.168-24.887ZM104.29 249.04l-3.095 20.796-8.422-23.297Zm0 0"/><path fill="#211634" d="m101.195 269.836 3.094-20.797 17.578 14.566Zm0 0"/><path fill="#201533" d="m92.914 168.816 2.816-10.972 13.485 4.926Zm0 0"/><path fill="#fefefe" d="m79.727 148.695 16.003 9.149-20.87 11.816Zm0 0"/><path fill="#fefefe" d="m95.73 157.844-2.816 10.972-18.055.844Zm0 0"/><path fill="#2c213e" d="m110.852 181.516 17.859-17.641-1.7 30.453Zm0 0"/><path fill="#261b38" d="m128.71 163.875-17.858 17.64-1.637-18.745Zm0 0"/><path fill="#211633" d="m110.852 181.516-17.938-12.7 16.3-6.046Zm0 0"/><path fill="#635b70" d="m149.691 183.594 1.7 21.773-24.38-11.039Zm0 0"/><path fill="#c9c6cd" d="m186.54 51.273-.74 19.875-16.82-2.476Zm0 0"/><path fill="#d1cfd5" d="m185.8 71.148.74-19.875 11.628 22.043Zm0 0"/><path fill="#221735" d="m194.605 90.074-8.804-18.926 12.367 2.168Zm0 0"/><path fill="#908b9a" d="m180.746 94.602 13.86-4.528 1.843 13.84Zm0 0"/><path fill="#201533" d="m185.8 71.148 8.805 18.926-13.859 4.528Zm0 0"/><path fill="#ecebee" d="m181.027 157.137-6.379 13.855-13.804-9.797Zm0 0"/><path fill="#e5e4e7" d="m201.797 122.7-15.25-9.704 9.902-9.082Zm0 0"/><path fill="#211634" d="m163.434 114.742 23.113-1.746-10.285 15.414Zm0 0"/><path fill="#433a53" d="m186.547 112.996-5.8-18.394 15.702 9.312Zm0 0"/><path fill="#201533" d="m186.547 112.996-23.113 1.746 17.312-20.14Zm0 0"/><path fill="#fdfdfd" d="m201.797 122.7 11.93 3.21-9.063 13.48Zm0 0"/><path fill="#372d48" d="m192.867 129.09-5.887 12.988-10.718-13.668Zm0 0"/><path fill="#60586d" d="m186.547 112.996 6.32 16.094-16.605-.68Zm0 0"/><path fill="#5c5369" d="m192.867 129.09-6.32-16.094 15.25 9.703Zm0 0"/><path fill="#5f576d" d="m186.98 142.078 5.887-12.988 11.797 10.3Zm0 0"/><path fill="#d3d1d7" d="m192.867 129.09 8.93-6.39 2.867 16.69Zm0 0"/><path fill="#201533" d="m213.727 125.91 9.835-4.734 2.02 15.594Zm0 0"/><path fill="#ebeaec" d="m157.25 127.023-7.832 14.747-8.523-10.985Zm0 0"/><path fill="#ebeaed" d="m149.418 141.77-22.758 2.03 14.235-13.015Zm0 0"/><path fill="#d7d5da" d="m149.418 141.77-7.477 13.859-15.28-11.828Zm0 0"/><path fill="#eae9ec" d="m141.941 155.629 7.477-13.86 11.426 19.426Zm0 0"/><path fill="#8f8a99" d="m166.48 46.578 20.06 4.695-17.56 17.399Zm0 0"/><path fill="#fafafb" d="m383.96 233.574-52.925 40.387-8.113-48.8Zm0 0"/><path fill="#8a8594" d="M335.043 55.363 330.743 0l53.269.031Zm0 0"/><path fill="#fafafb" d="m295.063 96.05 39.98-40.687 4.07 54.157Zm0 0"/><path fill="#f2f1f3" d="m335.043 55.363 48.969 45.25-44.899 8.907Zm0 0"/><path fill="#201533" d="m184.11 384.027-45.387-41.191 27.625-30.004Zm0 0"/><path fill="#b3afb9" d="m69.293 332.371-3.547-6.348 25.207-12.734Zm0 0"/><path fill="#615a6f" d="m70.371 373.086-1.078-40.715 35.277 10.067Zm0 0"/><path fill="#39304a" d="M104.57 342.438 69.293 332.37l21.66-19.082Zm0 0"/><path fill="#201533" d="m104.57 342.438 34.153.398-28.11 41.156ZM110.613 383.992l28.11-41.156 45.386 41.191Zm0 0"/><path fill="#453b54" d="m232.41 364.734-9.719-.207 2.883-20.59Zm0 0"/><path fill="#e6e5e8" d="m234.766 384-2.356-19.266 12.934.875Zm0 0"/><path fill="#2f2440" d="m219.535 383.996 12.875-19.262L234.766 384Zm0 0"/><path fill="#2d233f" d="m232.41 364.734-12.875 19.262 3.156-19.469Zm0 0"/><path fill="#faf9fa" d="m232.41 364.734 10.715-18.226 2.219 19.101Zm0 0"/><path fill="#fcfcfc" d="m243.125 346.508-10.715 18.226-6.836-20.796Zm0 0"/><path fill="#201533" d="m225.574 343.938-11.703 20.32-11.644-40.895Zm0 0"/><path fill="#888292" d="m222.691 364.527-8.82-.27 11.703-20.32Zm0 0"/><path fill="#201533" d="m213.871 364.258-29.762 19.77 18.118-60.665Zm0 0"/><path fill="#413851" d="m213.871 364.258 8.82.27-3.156 19.468Zm0 0"/><path fill="#2c213e" d="m184.11 384.027 29.761-19.77 5.664 19.74Zm0 0"/><path fill="#352b46" d="m202.227 323.363-35.88-10.531 33.739-11.164Zm0 0"/><path fill="#201533" d="m202.227 323.363-18.118 60.664-17.761-71.195Zm0 0"/><path fill="#221734" d="m35.781 359.664 3.102-13.398 9.086 2.066Zm0 0"/><path fill="#211633" d="m70.371 373.086-34.59-13.422 12.188-11.332Zm0 0"/><path fill="#c2bfc7" d="m18.684 337.941 17.097 21.723L0 350.586Zm0 0"/><path fill="#bab6c0" d="m35.781 359.664-17.097-21.723 20.199 8.325Zm0 0"/><path fill="#392f4a" d="m104.57 342.438 6.043 41.554-40.242-10.906Zm0 0"/><path fill="#2f2440" d="m38.883 346.266 5.683-7.555 3.403 9.621Zm0 0"/><path fill="#635b70" d="m65.746 326.023-2.238-15.351 27.445 2.617Zm0 0"/><path fill="#e7e6e9" d="m39.348 245.254 20.965 38.976-32.59 13.004Zm0 0"/><path fill="#211634" d="m230.457 333.926 4.082-14.121 16.883 6.879Zm0 0"/><path fill="#291f3b" d="m251.79 306.781-17.25 13.024-4.685-13.239Zm0 0"/><path fill="#2e2340" d="m251.422 326.684-16.883-6.88 17.25-13.023Zm0 0"/><path fill="#ceccd2" d="m206.82 246.492 10.528 16.5-20.082-9.183Zm0 0"/><path fill="#c6c4cb" d="m197.266 253.809 8.297 25.062-18.57-1.922Zm0 0"/><path fill="#e5e4e7" d="m217.348 262.992-11.786 15.88-8.296-25.063Zm0 0"/><path fill="#554d63" d="m186.992 276.95 18.57 1.921-5.476 22.797Zm0 0"/><path fill="#f2f1f3" d="m264.672 337.953 48.262 4.035-50.985 13.223Zm0 0"/><path fill="#f4f4f5" d="m264.672 337.953 19.195-23.715 29.067 27.75Zm0 0"/><path fill="#fafafb" d="m264.672 337.953-13.25-11.27 32.445-12.445Zm0 0"/><path fill="#dbd9de" d="m222.598 284.57-17.036-5.699 11.786-15.879Zm0 0"/><path fill="#201533" d="m228.625 231.133-8.133 17.406-11.562-8.437Zm0 0"/><path fill="#4c435b" d="m220.492 248.54-13.672-2.048 2.11-6.39Zm0 0"/><path fill="#4b425a" d="m220.492 248.54 21.606-3.267-2.438 6.102Zm0 0"/><path fill="#201533" d="m220.492 248.54 8.133-17.407 13.473 14.14Zm0 0"/><path fill="#463d56" d="m217.348 262.992 3.144-14.453 19.168 2.836Zm0 0"/><path fill="#837d8e" d="m206.82 246.492 13.672 2.047-3.144 14.453Zm0 0"/><path fill="#fefefe" d="m295.36 158.523-48.61 3.27 5.082-14.543Zm0 0"/><path fill="#655e72" d="m242.195 213.422 12.59-10.047-.242 17.664Zm0 0"/><path fill="#f9f8f9" d="m242.195 213.422.637 9.601-9.328-4.347Zm0 0"/><path fill="#c6c3cb" d="m242.832 223.023-.637-9.601 12.348 7.617Zm0 0"/><path fill="#fdfdfd" d="m322.922 225.16-44.453 2.383-1.38-36.984Zm0 0"/><path fill="#fefdfe" d="m278.469 227.543-23.684-24.168 22.305-12.816Zm0 0"/><path fill="#fdfdfd" d="m254.785 203.375 23.684 24.168-23.926-6.504Zm0 0"/><path fill="#938e9d" d="m361.23 335.676 22.758-33.36.012 43.38Zm0 0"/><path fill="#c2bfc7" d="m361.23 335.676 22.77 10.02-13.797 7.84Zm0 0"/><path fill="#e1dfe3" d="m361.23 335.676-48.296 6.312 41.074-34.285Zm0 0"/><path fill="#5a5168" d="m338.723 383.965 45.25-14.793.027 14.824Zm0 0"/><path fill="#574f65" d="m338.723 383.965-5.512-18.996 50.762 4.203Zm0 0"/><path fill="#958f9e" d="m307.398 356 25.813 8.969-28.863 19.027Zm0 0"/><path fill="#696276" d="m304.348 383.996 28.863-19.027 5.512 18.996Zm0 0"/><path fill="#b2aeb8" d="m261.95 355.21 45.448.79-3.05 27.996Zm0 0"/><path fill="#e4e2e6" d="M312.934 341.988 307.398 356l-45.449-.79Zm0 0"/><path fill="#ceccd2" d="m383.988 302.316-30.246-28.894 30.219-39.848Zm0 0"/><path fill="#fafafb" d="m353.742 273.422-22.707.539 52.926-40.387Zm0 0"/><path fill="#bab7c0" d="m383.988 302.316-22.758 33.36-7.222-27.973Zm0 0"/><path fill="#e1e0e4" d="m354.008 307.703-.266-34.281 30.246 28.894Zm0 0"/><path fill="#fdfdfd" d="m33.21 199.16 40.548-3.898-8.738 21.574Zm0 0"/><path fill="#fefefe" d="m33.21 199.16 41.65-29.5-1.102 25.602ZM39.348 245.254 33.21 199.16l31.809 17.676Zm0 0"/><path fill="#211634" d="m92.617 184.098.297-15.282 17.938 12.7Zm0 0"/><path fill="#fefefe" d="m92.914 168.816-.297 15.282L74.86 169.66ZM92.617 184.098l-7.765 3.543-9.993-17.98Zm0 0"/><path fill="#211634" d="m99.004 190.191-6.387-6.093 18.235-2.582Zm0 0"/><path fill="#fbfbfb" d="m85.582 289.355-25.27-5.125 24.293-12.804Zm0 0"/><path fill="#251a37" d="m113.223 149.488 15.488 14.387-19.496-1.105Zm0 0"/><path fill="#221735" d="m113.223 149.488-14.407-8.14 12.454-10.5Zm0 0"/><path fill="#271c39" d="m126.66 143.8-13.437 5.688-1.953-18.64Zm0 0"/><path fill="#261b38" d="m128.71 163.875-15.487-14.387 13.437-5.687Zm0 0"/><path fill="#fbfbfc" d="M147.68 44.48 170.086-.016l-3.606 46.594Zm0 0"/><path fill="#fefefe" d="m107.242 100.02-6.515 1.34 5.308-13.114Zm0 0"/><path fill="#231836" d="m119.91 90.758-12.668 9.262-1.207-11.774Zm0 0"/><path fill="#211634" d="m107.242 100.02 4.235 12.66-10.75-11.32Zm0 0"/><path fill="#231835" d="m111.477 112.68-4.235-12.66 8.508 9.37Zm0 0"/><path fill="#858090" d="m115.75 109.39-8.508-9.37 12.668-9.262Zm0 0"/><path fill="#d3d1d7" d="m121.969 125.434-6.219-16.043 25.07-.121Zm0 0"/><path fill="#413851" d="m121.969 125.434 4.691 18.367-15.39-12.953Zm0 0"/><path fill="#95909e" d="m111.477 112.68 10.492 12.754-10.7 5.414Zm0 0"/><path fill="#7b7586" d="m121.969 125.434-10.492-12.754 4.273-3.29Zm0 0"/><path fill="#d6d4d9" d="m126.66 143.8-4.691-18.366 18.926 5.351Zm0 0"/><path fill="#e1dfe3" d="m121.969 125.434 18.851-16.164.075 21.515Zm0 0"/><path fill="#201533" d="m131.84 98.793 13.273-2.195-4.293 12.672ZM163.434 114.742l-18.32-18.144 9.007-9.153ZM154.121 87.445l-9.008 9.153-16.984-13.391Zm0 0"/><path fill="#201533" d="m145.113 96.598-13.273 2.195-3.711-15.586ZM140.82 109.27l4.293-12.672 18.32 18.144Zm0 0"/><path fill="#fefefe" d="m118.598 63.043-18.633-34.23 21.738 19.042Zm0 0"/><path fill="#fcfcfd" d="m99.965 28.813 18.633 34.23L110.805 67Zm0 0"/><path fill="#211633" d="m101.285 291.809 7.113-3.168-4.226 9.343Zm0 0"/><path fill="#423952" d="m121.867 263.605 34.113-16.757 1.883 25.195Zm0 0"/><path fill="#847e8e" d="m191.887 233.426-16.653 17.77-5.527-16.762Zm0 0"/><path fill="#a4a0ac" d="m175.234 251.195 16.653-17.77 5.379 20.384Zm0 0"/><path fill="#cecbd2" d="m191.887 233.426 14.933 13.066-9.554 7.317Zm0 0"/><path fill="#524961" d="m206.82 246.492-14.933-13.066 17.043 6.676Zm0 0"/><path fill="#eeedf0" d="m213.727 125.91 2.468 13.031-11.53.45Zm0 0"/><path fill="#fbfbfb" d="m216.195 138.941-2.468-13.03 11.855 10.859Zm0 0"/><path fill="#201533" d="m190.355 173.293 21.762-8.793 2.809 14.402Zm0 0"/><path fill="#f0f0f2" d="m218.82 213.621-21.734-.988 6.793-12.817Zm0 0"/><path fill="#c0bdc5" d="m197.086 212.633-19.152 5.601-2.48-15.699Zm0 0"/><path fill="#201533" d="m177.934 218.234 19.152-5.601-5.2 20.793Zm0 0"/><path fill="#9a96a3" d="m175.453 202.535-21.781 25.242-2.281-22.41Zm0 0"/><path fill="#8a8494" d="m177.934 218.234-24.262 9.543 21.781-25.242Zm0 0"/><path fill="#fefefe" d="m89.137 231.129 3.636 15.41-24.742-4.832Zm0 0"/><path fill="#261b38" d="m127.258 215.246-1.672 22.918-16.48-13.297Zm0 0"/><path fill="#372e48" d="m113.23 205.281 14.028 9.965-18.153 9.621Zm0 0"/><path fill="#302642" d="m108.398 288.64-7.203-18.804 20.672-6.23Zm0 0"/><path fill="#fefefe" d="m72.016 120.012 17.773 19.058-10.062 9.625Zm0 0"/><path fill="#4b425a" d="m128.71 163.875 20.981 19.719-22.68 10.734Zm0 0"/><path fill="#9792a0" d="m198.168 73.316-11.629-22.043 24.129 9.524Zm0 0"/><path fill="#201533" d="m223.563 121.176-.813-12.946 10.367 6.91Zm0 0"/><path fill="#524a61" d="m181.027 157.137-4.468-14.328 10.421-.73Zm0 0"/><path fill="#3f364f" d="m186.98 142.078-10.421.73-.297-14.398Zm0 0"/><path fill="#dbd9de" d="m176.559 142.809-19.309-15.786 19.012 1.387Zm0 0"/><path fill="#f0f0f2" d="m176.559 142.809-27.141-1.04 7.832-14.746Zm0 0"/><path fill="#d3d0d6" d="m176.559 142.809 4.468 14.328-20.183 4.058Zm0 0"/><path fill="#d2d0d6" d="m149.418 141.77 27.14 1.039-15.714 18.386Zm0 0"/><path fill="#201533" d="m223.563 121.176 10.546 3.48-8.527 12.114ZM225.582 136.77l8.527-12.114 7.348 8.23Zm0 0"/><path fill="#201533" d="m234.11 124.656 12.546-7.094-5.199 15.325Zm0 0"/><path fill="#201533" d="m246.656 117.563-12.547 7.093-.992-9.515Zm0 0"/><path fill="#201533" d="m234.11 124.656-10.548-3.48 9.555-6.035Zm0 0"/><path fill="#bfbcc4" d="m145.918 69.66 6.652-12.668 16.41 11.68Zm0 0"/><path fill="#aaa6b1" d="m152.57 56.992 13.91-10.414 2.5 22.094Zm0 0"/><path fill="#fcfcfc" d="m127.371 54.898-8.773 8.145 3.105-15.188Zm0 0"/><path fill="#302642" d="m118.598 63.043 8.773-8.145 1.93 9.497Zm0 0"/><path fill="#dddce0" d="m354.008 307.703-22.973-33.742 22.707-.54Zm0 0"/><path fill="#e3e2e5" d="m283.867 314.238 47.168-40.277-18.101 68.027Zm0 0"/><path fill="#e4e3e6" d="m331.035 273.96 22.973 33.743-41.074 34.285Zm0 0"/><path fill="#fbfbfb" d="m289.332 273.48 33.59-48.32 8.113 48.8Zm0 0"/><path fill="#aca8b3" d="m227.398 72.61-18.113 7.5 1.383-19.313Zm0 0"/><path fill="#d0cdd4" d="m209.285 80.11-11.117-6.794 12.5-12.52Zm0 0"/><path fill="#201533" d="m209.285 80.11-14.68 9.964 3.563-16.758ZM138.723 342.836l-34.153-.399 23.965-43.882ZM47.969 348.332l21.324-15.96 1.078 40.714Zm0 0"/><path fill="#261c39" d="m44.566 338.71 24.727-6.339-21.324 15.961Zm0 0"/><path fill="#241936" d="m69.293 332.371-24.727 6.34 21.18-12.688Zm0 0"/><path fill="#201533" d="m32.746 383.992 37.625-10.906.703 10.918Zm0 0"/><path fill="#201533" d="m32.746 383.992 3.035-24.328 34.59 13.422Zm0 0"/><path fill="#7d7688" d="m35.781 359.664-15.031 9.89L0 350.587Zm0 0"/><path fill="#9c97a4" d="M32.746 383.992 20.75 369.555l15.031-9.89Zm0 0"/><path fill="#5b5369" d="m20.75 369.555 11.996 14.437-32.762.02Zm0 0"/><path fill="#564e65" d="m0 350.586 20.75 18.969-20.766 14.457Zm0 0"/><path fill="#c9c7ce" d="m33.3 329.852-14.316-11.329 16.043-3.964Zm0 0"/><path fill="#a8a4b0" d="m33.3 329.852-14.616 8.09.3-19.419Zm0 0"/><path fill="#b8b5be" d="m18.684 337.941 14.617-8.09 5.582 16.415Zm0 0"/><path fill="#ecebed" d="m33.3 329.852 11.266 8.859-5.683 7.555Zm0 0"/><path fill="#aaa6b1" d="M18.684 337.941.008 326.121l18.976-7.598Zm0 0"/><path fill="#948f9d" d="m.008 326.121 18.676 11.82L0 350.586Zm0 0"/><path fill="#2e2440" d="m70.371 373.086 40.242 10.906-39.539.012Zm0 0"/><path fill="#bcb9c2" d="m27.723 297.234 18.996 5.184-11.692 12.14Zm0 0"/><path fill="#f8f7f8" d="m27.723 297.234 32.59-13.004-13.594 18.188Zm0 0"/><path fill="#3b324c" d="m82.906 301.613 8.047 11.676-27.445-2.617Zm0 0"/><path fill="#271d39" d="m82.906 301.613 10.473-4.785-2.426 16.461Zm0 0"/><path fill="#201533" d="m90.953 313.29 2.426-16.462 10.793 1.156ZM93.379 296.828l7.906-5.02 2.887 6.176Zm0 0"/><path fill="#faf9fa" d="m93.379 296.828-10.473 4.785 2.676-12.258Zm0 0"/><path fill="#342a45" d="m222.598 284.57 22.945 5.016-15.688 16.98Zm0 0"/><path fill="#2a1f3c" d="m245.543 289.586 6.246 17.195-21.934-.215Zm0 0"/><path fill="#231836" d="m245.543 289.586 5.09-2.328 1.156 19.523ZM202.227 323.363l-2.141-21.695 29.77 4.898Zm0 0"/><path fill="#251a37" d="m200.086 301.668 22.512-17.098 7.257 21.996Zm0 0"/><path fill="#392f4a" d="m222.598 284.57-22.512 17.098 5.476-22.797Zm0 0"/><path fill="#fefefe" d="m250.223 181.043.12-6.66 26.747 16.176Zm0 0"/><path fill="#fefefe" d="m250.344 174.383 45.015-15.86-18.27 32.036Zm0 0"/><path fill="#fefefe" d="m250.344 174.383-3.594-12.59 48.61-3.27Zm0 0"/><path fill="#221735" d="m236.535 165.082 5.371 5.64-9.254 3.462Zm0 0"/><path fill="#e0dfe3" d="m250.344 174.383-8.438-3.66 4.844-8.93Zm0 0"/><path fill="#cfccd3" d="M334.2 360.035 307.397 356l5.536-14.012Zm0 0"/><path fill="#8a8494" d="m334.2 360.035-.99 4.934L307.399 356Zm0 0"/><path fill="#574e65" d="m333.21 364.969 4.509-2.285 46.254 6.488Zm0 0"/><path fill="#9994a2" d="m337.719 362.684 32.484-9.149 13.77 15.637Zm0 0"/><path fill="#dfdde2" d="m370.203 353.535-32.484 9.149 23.511-27.008Zm0 0"/><path fill="#fefefe" d="m90.445 195.61-16.687-.348 11.094-7.621Zm0 0"/><path fill="#fefefe" d="m92.617 184.098-2.172 11.511-5.593-7.968Zm0 0"/><path fill="#271d3a" d="m99.004 190.191-8.559 5.418 2.172-11.511Zm0 0"/><path fill="#fcfcfc" d="m39.348 245.254 25.672-28.418 3.011 24.871Zm0 0"/><path fill="#efeef0" d="m60.313 284.23 7.718-42.523 16.574 29.719Zm0 0"/><path fill="#fefefe" d="m94.922 148.246-5.133-9.176 9.027 2.278ZM94.922 148.246l.808 9.598-16.003-9.149Zm0 0"/><path fill="#fefefe" d="m89.79 139.07 5.132 9.176-15.195.45ZM89.707 108.2 83.84 93.671l16.887 7.687Zm0 0"/><path fill="#fefefe" d="m83.84 93.672 5.867 14.527-17.691 11.813Zm0 0"/><path fill="#c2bfc7" d="m136.535.02-11.453 29.437-25.117-.645Zm0 0"/><path fill="#b9b6bf" d="m221.36 150.371-9.243 14.129-7.453-25.11Zm0 0"/><path fill="#fafafb" d="m221.36 150.371 4.222-13.601 10.297 15.699Zm0 0"/><path fill="#fbfbfb" d="m221.36 150.371-5.165-11.43 9.387-2.171Zm0 0"/><path fill="#777082" d="m216.195 138.941 5.164 11.43-16.695-10.98Zm0 0"/><path fill="#736c7f" d="m212.117 164.5-18.234-9.914 10.781-15.195Zm0 0"/><path fill="#3b314b" d="m193.883 154.586-6.903-12.508 17.684-2.687Zm0 0"/><path fill="#2c223e" d="m193.883 154.586-12.856 2.55 5.953-15.058Zm0 0"/><path fill="#d7d5da" d="m222.063 215.066 12.261-12.996-.82 16.606Zm0 0"/><path fill="#f6f6f7" d="m234.324 202.07 7.871 11.352-8.691 5.254Zm0 0"/><path fill="#201533" d="m234.324 202.07 7.75-23.41 8.149 2.383Zm0 0"/><path fill="#b0adb7" d="m254.785 203.375-20.46-1.305 15.898-21.027Zm0 0"/><path fill="#b4b0ba" d="m242.195 213.422-7.87-11.352 20.46 1.305Zm0 0"/><path fill="#201533" d="m169.707 234.434 8.227-16.2 13.953 15.192ZM169.707 234.434l-16.035-6.657 24.262-9.543Zm0 0"/><path fill="#807a8b" d="m127.258 215.246 26.414 12.531-28.086 10.387Zm0 0"/><path fill="#50485f" d="m153.672 227.777-26.414-12.53 24.133-9.88Zm0 0"/><path fill="#726b7e" d="m151.39 205.367-24.132 9.88-.246-20.919Zm0 0"/><path fill="#655e72" d="m125.586 238.164 30.394 8.684-34.113 16.757Zm0 0"/><path fill="#5a5268" d="m153.672 227.777 2.308 19.07-30.394-8.683Zm0 0"/><path fill="#302642" d="m104.29 249.04-.177-16.505 21.473 5.63Zm0 0"/><path fill="#fefefe" d="m92.773 246.54 11.34-14.005.176 16.504Zm0 0"/><path fill="#201533" d="m97.773 286.07 10.625 2.57-7.113 3.169Zm0 0"/><path fill="#fdfdfd" d="m97.773 286.07-12.191 3.285-.977-17.93Zm0 0"/><path fill="#fefefe" d="m101.195 269.836-3.422 16.234-13.168-14.644Zm0 0"/><path fill="#211634" d="m108.398 288.64-10.625-2.57 3.422-16.234Zm0 0"/><path fill="#fcfcfc" d="m97.773 286.07-4.394 10.758-7.797-7.473Zm0 0"/><path fill="#2d233f" d="m93.379 296.828 4.394-10.758 3.512 5.739Zm0 0"/><path fill="#fefefe" d="m220.234 85.035-10.949-4.926 18.113-7.5Zm0 0"/><path fill="#201533" d="m212.172 117.879 11.39 3.297-9.835 4.734ZM212.172 117.879l10.578-9.649.813 12.946Zm0 0"/><path fill="#fcfcfc" d="m212.172 117.879 1.555 8.031-11.93-3.21Zm0 0"/><path fill="#201533" d="m222.75 108.23 19.469-7.324-9.102 14.235Zm0 0"/><path fill="#fdfdfd" d="m242.219 100.906 12.308-15.453 4.102 20.434Zm0 0"/><path fill="#fefefe" d="m246.656 117.563-4.437-16.657 16.41 4.98Zm0 0"/><path fill="#201533" d="m242.219 100.906 4.437 16.656-13.539-2.421Zm0 0"/><path fill="#756e81" d="m152.57 56.992-4.89-12.512 18.8 2.098Zm0 0"/><path fill="#fefefe" d="m125.082 29.457 6.473 18.277-9.852.121ZM131.555 47.734l-4.184 7.164-5.668-7.043ZM131.555 47.734l-6.473-18.277L147.68 44.48Zm0 0"/><path fill="#afabb6" d="m136.664 56.602 15.906.39-6.652 12.668Zm0 0"/><path fill="#aeaab5" d="m136.664 56.602 9.254 13.058-16.617-5.265Zm0 0"/><path fill="#2b213d" d="m127.371 54.898 9.293 1.704-7.363 7.793Zm0 0"/><path fill="#857f90" d="m147.68 44.48-11.016 12.122-5.11-8.868Zm0 0"/><path fill="#878191" d="M136.664 56.602 147.68 44.48l4.89 12.512Zm0 0"/><path fill="#221735" d="m131.555 47.734 5.11 8.868-9.294-1.704Zm0 0"/><path fill="#f4f3f4" d="m269.004 291.82 20.328-18.34-5.465 40.758Zm0 0"/><path fill="#c2bfc7" d="m283.867 314.238 5.465-40.758 41.703.48Zm0 0"/><path fill="#e5e4e7" d="m46.719 302.418 4.078 18.512-15.77-6.371Zm0 0"/><path fill="#e9e8eb" d="M50.797 320.93 33.3 329.852l1.726-15.293Zm0 0"/><path fill="#eeedef" d="m33.3 329.852 17.497-8.922-6.23 17.78Zm0 0"/><path fill="#f2f1f3" d="m50.797 320.93-4.078-18.512 16.789 8.254Zm0 0"/><path fill="#231836" d="m44.566 338.71 6.23-17.78 14.95 5.093Zm0 0"/><path fill="#2e2440" d="m50.797 320.93 12.71-10.258 2.24 15.351Zm0 0"/><path fill="#fafafb" d="M82.906 301.613 60.312 284.23l25.27 5.125Zm0 0"/><path fill="#fefefe" d="m60.313 284.23 22.593 17.383-19.398 9.059Zm0 0"/><path fill="#fbfbfc" d="m46.719 302.418 13.593-18.188 3.196 26.442Zm0 0"/><path fill="#6e677a" d="m245.543 289.586.539-3.836 4.55 1.508Zm0 0"/><path fill="#595167" d="m250.633 287.258-4.551-1.508 5.48-17.184Zm0 0"/><path fill="#ada9b4" d="m246.082 285.75-.539 3.836-22.945-5.016Zm0 0"/><path fill="#f4f3f5" d="m246.75 161.793-10.215 3.289-.656-12.613Zm0 0"/><path fill="#e5e4e8" d="m246.75 161.793-4.844 8.93-5.37-5.641Zm0 0"/><path fill="#fefefe" d="m246.75 161.793-10.871-9.324 15.953-5.219Zm0 0"/><path fill="#6b6478" d="m334.2 360.035 3.519 2.649-4.508 2.285Zm0 0"/><path fill="#ecebee" d="m334.2 360.035-21.266-18.047 48.296-6.312Zm0 0"/><path fill="#b6b2bc" d="m337.719 362.684-3.52-2.649 27.031-24.36Zm0 0"/><path fill="#d1ced5" d="m39.348 245.254 28.683-3.547-7.719 42.523Zm0 0"/><path fill="#221734" d="m113.223 149.488-10.762 2.434-3.645-10.574Zm0 0"/><path fill="#221735" d="m102.46 151.922-7.538-3.676 3.894-6.898ZM102.46 151.922l10.763-2.434-4.008 13.282Zm0 0"/><path fill="#211634" d="m95.73 157.844 6.73-5.922 6.755 10.848Zm0 0"/><path fill="#281d3a" d="m94.922 148.246 7.539 3.676-6.73 5.922Zm0 0"/><path fill="#fefefe" d="m98.418 123.191-8.629 15.88-17.773-19.06Zm0 0"/><path fill="#fefefe" d="m89.707 108.2 8.711 14.991-26.402-3.18ZM89.79 139.07l8.628-15.879.398 18.157Zm0 0"/><path fill="#241a37" d="m98.816 141.348-.398-18.157 12.852 7.657Zm0 0"/><path fill="#473e56" d="m98.418 123.191 13.059-10.511-.207 18.168Zm0 0"/><path fill="#251a37" d="M111.477 112.68 98.418 123.19l2.309-21.832Zm0 0"/><path fill="#fefefe" d="M98.418 123.191 89.707 108.2l11.02-6.84Zm0 0"/><path fill="#f7f7f8" d="m225.438 164.29-4.079-13.919 14.52 2.098Zm0 0"/><path fill="#201533" d="m225.438 164.29 7.214 9.894-17.726 4.718ZM212.117 164.5l13.32-.21-10.511 14.612Zm0 0"/><path fill="#e7e6e9" d="m221.36 150.371 4.077 13.918-13.32.211Zm0 0"/><path fill="#f7f7f8" d="m236.535 165.082-11.097-.793 10.44-11.82Zm0 0"/><path fill="#201633" d="m225.438 164.29 11.097.792-3.883 9.102Zm0 0"/><path fill="#403751" d="m181.027 157.137 9.328 16.156-15.707-2.3Zm0 0"/><path fill="#b9b5be" d="m193.883 154.586-3.528 18.707-9.328-16.156Zm0 0"/><path fill="#c3c0c8" d="m190.355 173.293 3.528-18.707 18.234 9.914Zm0 0"/><path fill="#201533" d="m214.926 178.902-11.047 20.914-13.524-26.523ZM241.906 170.723l.168 7.937-9.422-4.476Zm0 0"/><path fill="#201633" d="m242.074 178.66 8.27-4.277-.121 6.66Zm0 0"/><path fill="#201533" d="m242.074 178.66-.168-7.937 8.438 3.66Zm0 0"/><path fill="#a7a3af" d="m169.707 234.434-13.727 12.414-2.308-19.07Zm0 0"/><path fill="#201533" d="m109.105 224.867-11.27-6.738 15.395-12.848Zm0 0"/><path fill="#2d223f" d="m104.113 232.535 4.992-7.668 16.48 13.297Zm0 0"/><path fill="#fefefe" d="m88.727 222.594 7.87 5.8-7.46 2.735Zm0 0"/><path fill="#201533" d="m96.598 228.395-7.871-5.801 9.109-4.465Zm0 0"/><path fill="#201533" d="m109.105 224.867-12.507 3.528 1.238-10.266ZM96.598 228.395l12.507-3.528-4.992 7.668Zm0 0"/><path fill="#fff" d="m96.598 228.395-3.825 18.144-3.636-15.41Zm0 0"/><path fill="#fff" d="m96.598 228.395 7.515 4.14-11.34 14.004Zm0 0"/><path fill="#fefefe" d="M88.727 222.594 68.03 241.707l-3.011-24.871ZM68.031 241.707l20.696-19.113.41 8.535ZM73.758 195.262l13.644 13.617-22.382 7.957ZM87.402 208.879l1.325 13.715-23.707-5.758Zm0 0"/><path fill="#fefefe" d="m90.445 195.61-3.043 13.269-13.644-13.617Zm0 0"/><path fill="#211633" d="m88.727 222.594-1.325-13.715 10.434 9.25Zm0 0"/><path fill="#fefefe" d="m237.2 92.848-9.802-20.239 27.13 12.844Zm0 0"/><path fill="#a8a3af" d="m237.2 92.848-16.966-7.813 7.164-12.426Zm0 0"/><path fill="#fefefe" d="m242.219 100.906-5.02-8.058 17.328-7.395Zm0 0"/><path fill="#201533" d="m209.285 80.11-2.152 18.831-12.528-8.867Zm0 0"/><path fill="#201533" d="m220.234 85.035-13.101 13.906 2.152-18.832Zm0 0"/><path fill="#f0f0f1" d="m194.605 90.074 12.528 8.867-10.684 4.973Zm0 0"/><path fill="#fbfbfb" d="m208.844 111.082-7.047 11.617-5.348-18.785Zm0 0"/><path fill="#fcfcfc" d="m208.844 111.082 3.328 6.797-10.375 4.82Zm0 0"/><path fill="#d2d0d6" d="m207.133 98.941 1.71 12.141-12.394-7.168Zm0 0"/><path fill="#201533" d="m212.172 117.879-3.328-6.797 13.906-2.852ZM208.844 111.082l-1.711-12.14 15.617 9.288Zm0 0"/><path fill="#ada9b4" d="m251.563 268.566-5.481 17.184-23.484-1.18Zm0 0"/><path fill="#b7b3bd" d="m251.563 268.566-34.215-5.574 22.312-11.617Zm0 0"/><path fill="#928d9b" d="m251.563 268.566-28.965 16.004-5.25-21.578Zm0 0"/><path fill="#201533" d="m224.563 195.117 8.09-20.933 9.421 4.476ZM224.563 195.117l-9.637-16.215 17.726-4.718ZM224.563 195.117l9.761 6.953-12.262 12.996Zm0 0"/><path fill="#201533" d="m234.324 202.07-9.762-6.953 17.512-16.457Zm0 0"/><path fill="#201533" d="m218.82 213.621 5.743-18.504-2.5 19.95ZM224.563 195.117l-5.743 18.504-14.941-13.805Zm0 0"/><path fill="#201533" d="m214.926 178.902 9.637 16.215-20.684 4.7ZM87.402 208.879l25.828-3.598-15.394 12.848Zm0 0"/><path fill="#201533" d="m113.23 205.281-25.828 3.598 3.043-13.27Zm0 0"/><path fill="#201533" d="m113.23 205.281-22.785-9.672 8.559-5.418Zm0 0"/><path fill="#201533" d="m113.23 205.281-14.226-15.09 11.848-8.675ZM237.2 92.848l-12.872 6.23-4.094-14.043Zm0 0"/><path fill="#201533" d="m207.133 98.941 17.195.137-1.578 9.152Zm0 0"/><path fill="#201533" d="m224.328 99.078-17.195-.137 13.101-13.906ZM224.328 99.078l17.89 1.828-19.468 7.324ZM224.328 99.078l12.871-6.23 5.02 8.058Zm0 0"/></svg>