<svg xmlns="http://www.w3.org/2000/svg" width="512" height="512" viewBox="0 0 384 384"><path fill="#dfd785" d="M0 190.336v-49.477l39.125 30.055Zm0 0"/><path fill="#ded684" d="m296.48 145.39 42.07-26.167-2.015 55.918Zm0 0"/><path fill="#dfd785" d="m338.55 119.223-42.07 26.168-4.953-52.137ZM57.336 34.945 0 73.184V0ZM0 73.184l61.82 3.718-16.398 41.473ZM90.59 79.45l-28.77-2.548 24.438-16.867ZM61.82 76.902l-4.484-41.957 28.922 25.09Zm0 0"/><path fill="#414128" d="m172.902 298.406 16.922-20.715 4.52 17.918Zm0 0"/><path fill="#dfd785" d="M79.742 99.094 61.82 76.902l28.77 2.547Zm0 0"/><path fill="#dfd785" d="m79.742 99.094-34.32 19.281L61.82 76.902ZM79.742 99.094 90.59 79.449l6.879 14.09ZM100.277 107.73l-20.535-8.636 17.727-5.555Zm0 0"/><path fill="#aca767" d="m178.145 160.742-6.48 14.406-15.317-22.023Zm0 0"/><path fill="#232416" d="m171.664 175.148 6.48-14.406 6.282 18.27Zm0 0"/><path fill="#68663f" d="m124.55 76.914 7.06-12 5.706 16.211Zm0 0"/><path fill="#202215" d="m185.707 91.746-27.437.438 13.742-22.23Zm0 0"/><path fill="#dfd785" d="M338.55 119.223 384 170.629l-47.465 4.512Zm0 0"/><path fill="#dfd785" d="M384 89.3v81.329l-45.45-51.406ZM237.656 41.05l44.574 4.005-26.62 30.367Zm0 0"/><path fill="#dfd785" d="m291.527 93.254 40.989-33.633 6.035 59.602Zm0 0"/><path fill="#dfd785" d="m296.48 145.39-32.144-27.363 27.191-24.773ZM30.86 209.074 0 190.336l39.125-19.422Zm0 0"/><path fill="#ded684" d="m0 190.336 30.86 18.738L0 242.082Zm0 0"/><path fill="#ded684" d="m0 242.082 30.86-33.008 17.035 28.172Zm0 0"/><path fill="#c0ba73" d="m261.105 383.973-26.015.03 18.805-13.823Zm0 0"/><path fill="#ded684" d="m266.496 278.07-14.629 13.871-.906-9.199ZM268.21 326.191l-17.542-.257L252 310.707ZM282.219 250.55l-28.02 4.825.344-18.64Zm0 0"/><path fill="#212315" d="m201.945 212.902 16.137 1.153-12.137 25.91Zm0 0"/><path fill="#30311e" d="m254.2 255.375-10.852-11.559 11.195-7.082Zm0 0"/><path fill="#878451" d="m243.348 243.816 10.851 11.559-13.43-1.148Zm0 0"/><path fill="#dfd785" d="m336.535 175.14-32.3 32.673-7.755-62.422ZM0 140.86V73.183l45.422 45.191ZM39.125 170.914 0 140.86l45.422-22.484Zm0 0"/><path fill="#dfd785" d="m72.195 148.668 2.172 33.969-35.242-11.723Zm0 0"/><path fill="#ded684" d="m188.703 53.465 48.953-12.414-20.125 23.828Zm0 0"/><path fill="#dfd785" d="m57.336 34.945 45.586.93-16.664 24.16ZM54.2 0l3.136 34.945L0 0ZM0 73.184l57.336-38.239 4.484 41.957Zm0 0"/><path fill="#dfd785" d="M84.742 0 57.336 34.945 54.199 0ZM57.336 34.945 84.742 0l18.18 35.875Zm0 0"/><path fill="#555434" d="m123.363 92.965 1.188-16.05 12.765 4.21Zm0 0"/><path fill="#dfd785" d="M110.324 68.79 90.59 79.45l-4.332-19.415Zm0 0"/><path fill="#5c5b38" d="m172.902 298.406-25.804-14.73 22.445-7.774Zm0 0"/><path fill="#535333" d="m172.902 298.406-3.359-22.504 20.281 1.79Zm0 0"/><path fill="#232516" d="m171.191 194.516.473-19.368 12.762 3.864Zm0 0"/><path fill="#222416" d="m193.883 210.133-22.692-15.617 13.235-15.504Zm0 0"/><path fill="#9f9a5f" d="m171.664 175.148-23.172-3.82 7.856-18.203Zm0 0"/><path fill="#202215" d="m191.5 75.418-5.793 16.328-13.695-21.793Zm0 0"/><path fill="#333420" d="m172.832 121.031-10.488-.804 3.062-7.442Zm0 0"/><path fill="#252618" d="m128.902 167.672-16.5 18.219-1.78-20.512Zm0 0"/><path fill="#98935b" d="m148.492 171.328-7.222-16.441 15.078-1.762Zm0 0"/><path fill="#6a6940" d="m141.27 154.887 7.222 16.441-19.59-3.656Zm0 0"/><path fill="#5a5937" d="m141.27 154.887-12.368 12.785-2.66-26.402Zm0 0"/><path fill="#202215" d="m158.27 92.184-9.497-21.13 23.239-1.1Zm0 0"/><path fill="#64623d" d="m131.61 64.914 17.163 6.14-11.457 10.071Zm0 0"/><path fill="#202215" d="m148.773 71.055 9.497 21.129-20.954-11.059ZM185.504 100.469l-27.234-8.285 27.437-.438Zm0 0"/><path fill="#222316" d="m185.504 100.469-12.672 20.562-7.426-8.246Zm0 0"/><path fill="#cac378" d="m135.418 108.254 18.945 3.969-9.308 17.683Zm0 0"/><path fill="#31321f" d="m162.344 120.227-7.98-8.004 11.042.562Zm0 0"/><path fill="#b5af6c" d="m154.363 112.223 7.98 8.004-17.288 9.68Zm0 0"/><path fill="#dfd785" d="m348.918 230.223-12.383-55.082L384 170.629ZM261.191 0h51.704L282.23 45.055Zm0 0"/><path fill="#dfd785" d="M237.656 41.05 261.191 0l21.04 45.055ZM213.754 0h47.437l-23.535 41.05Zm0 0"/><path fill="#dfd785" d="m291.527 93.254-9.297-48.2 50.286 14.567Zm0 0"/><path fill="#dfd785" d="m282.23 45.055 9.297 48.199-35.918-17.832ZM296.48 145.39l-39.668-4.785 7.524-22.578ZM230.535 76.297l7.121-35.246 17.953 34.37ZM257.277 98.746l-1.668-23.324 35.918 17.832Zm0 0"/><path fill="#dfd785" d="m264.336 118.027-7.059-19.28 34.25-5.493Zm0 0"/><path fill="#c5bf76" d="m251.637 349.223 28.187 12.71-25.93 8.247Zm0 0"/><path fill="#202215" d="M59.465 369.793 65.848 384h-32.2ZM59.465 369.793l.152-19.762 48.11 4.89Zm0 0"/><path fill="#c4bd75" d="M21.145 326.727-.004 338.992l-.004-47.066Zm0 0"/><path fill="#ded684" d="M-.008 291.926 0 242.082l42.574 29.914ZM0 242.082l47.895-4.836-5.32 34.75Zm0 0"/><path fill="#beb872" d="m279.824 361.934-18.719 22.039-7.21-13.793Zm0 0"/><path fill="#aca767" d="m279.824 361.934 23.723 22.117-42.442-.078Zm0 0"/><path fill="#ded684" d="m293.383 285.11-26.887-7.04 15.723-27.52Zm0 0"/><path fill="#ded684" d="M266.496 278.07 254.2 255.375l28.02-4.824Zm0 0"/><path fill="#202215" d="m230.383 334.473-4.238 9.656-19.434-3.586Zm0 0"/><path fill="#ded684" d="m251.637 349.223-21.254-14.75 20.285-8.54Zm0 0"/><path fill="#ded684" d="m230.383 334.473 21.254 14.75-25.492-5.094Zm0 0"/><path fill="#a6a163" d="m216.313 321.84-6.153-18.3 17.692-1.384Zm0 0"/><path fill="#202215" d="m216.313 321.84 14.07 12.633-23.672 6.07Zm0 0"/><path fill="#ded684" d="m270.938 301.34-4.442-23.27 26.887 7.04ZM270.938 301.34l-19.07-9.399 14.628-13.87ZM251.867 291.941l19.07 9.399L252 310.707ZM270.938 301.34l-2.727 24.851L252 310.707Zm0 0"/><path fill="#535233" d="m254.2 255.375-2.872 17.895-10.558-19.043Zm0 0"/><path fill="#ded684" d="m251.328 273.27 15.168 4.8-15.535 4.672Zm0 0"/><path fill="#ded684" d="m266.496 278.07-15.168-4.8 2.871-17.895Zm0 0"/><path fill="#31321f" d="m243.348 243.816.453-18.414 10.742 11.332Zm0 0"/><path fill="#5f5d39" d="m243.8 225.402 11.49-7.12-.747 18.452Zm0 0"/><path fill="#202215" d="m225.96 244.273-7.878-30.218 16.953 6.324Zm0 0"/><path fill="#202215" d="m243.8 225.402-17.84 18.871 9.075-23.894Zm0 0"/><path fill="#212315" d="m225.96 244.273 17.84-18.87-.452 18.413Zm0 0"/><path fill="#202215" d="m218.082 214.055 7.879 30.218-20.016-4.308Zm0 0"/><path fill="#dfd785" d="m271.203 223.984 11.016 26.567-27.676-13.817ZM255.29 218.281l15.913 5.703-16.66 12.75Zm0 0"/><path fill="#ded684" d="m253.46 204.973-.722-16.95 15.828 15.403ZM348.918 230.223l-44.684-22.41 32.301-32.672Zm0 0"/><path fill="#dfd785" d="m271.203 223.984 33.031-16.172-22.015 42.739Zm0 0"/><path fill="#c0ba73" d="m384 333.813-.008 50.19-32.394-37Zm0 0"/><path fill="#dbd382" d="m361.824 309.496-7.367-32.773 29.547 19.804Zm0 0"/><path fill="#ded684" d="m73.535 259.82 2.852-28.117L90.8 245.867Zm0 0"/><path fill="#dfd785" d="m237.656 41.05-48.953 12.415L213.753 0Zm0 0"/><path fill="#ded684" d="M188.703 53.465 177.328 0h36.426Zm0 0"/><path fill="#dfd785" d="m177.328 0 11.375 53.465-23.848-7.692Zm0 0"/><path fill="#ded684" d="m177.328 0-27.637 30.79L128.61 0ZM131.79 33.219l-3.845 11.347-25.023-8.691Zm0 0"/><path fill="#dfd785" d="m149.691 30.79-17.902 2.429L128.61 0Zm0 0"/><path fill="#ded684" d="m72.195 148.668-33.07 22.246 6.297-52.539Zm0 0"/><path fill="#202215" d="m135.418 108.254-12.055-15.29 13.953-11.839Zm0 0"/><path fill="#202215" d="m135.418 108.254-18.508-1.66 6.453-13.63Zm0 0"/><path fill="#232517" d="m121.027 61.379 10.582 3.535-7.058 12Zm0 0"/><path fill="#212316" d="m110.324 68.79 10.703-7.411 3.524 15.535Zm0 0"/><path fill="#dfd785" d="m102.922 35.875 7.402 32.914-24.066-8.754Zm0 0"/><path fill="#202215" d="m107.957 84.168 2.367-15.379 14.227 8.125Zm0 0"/><path fill="#ded684" d="M107.957 84.168 90.59 79.449l19.734-10.66Zm0 0"/><path fill="#262819" d="m123.363 92.965-15.406-8.797 16.594-7.254Zm0 0"/><path fill="#dfd785" d="m90.59 79.45 17.367 4.718-10.488 9.371Zm0 0"/><path fill="#202215" d="m107.125 323.02-18.367-13.848 9.601-3.695Zm0 0"/><path fill="#202215" d="m118.957 293.215-11.832 29.805-8.766-17.543Zm0 0"/><path fill="#212315" d="m107.125 323.02 54.68-10.196L143.8 362.95Zm0 0"/><path fill="#3b3b25" d="m118.957 293.215.613-23.59 27.528 14.05Zm0 0"/><path fill="#3c3c25" d="m169.543 275.902 9.648-16.582 10.633 18.371Zm0 0"/><path fill="#797649" d="m179.191 259.32 19.61-.11-8.977 18.481Zm0 0"/><path fill="#605f3b" d="m179.191 259.32-18.527 1.489 11.402-13.02Zm0 0"/><path fill="#565534" d="m160.664 260.809 18.527-1.489-9.648 16.582Zm0 0"/><path fill="#807d4d" d="m147.098 283.676 25.804 14.73-11.097 14.418Zm0 0"/><path fill="#202215" d="m205.945 239.965-18.05-7.078 14.05-19.985Zm0 0"/><path fill="#202215" d="m187.895 232.887 5.988-22.754 8.062 2.77Zm0 0"/><path fill="#b4ae6c" d="m239.113 143.254 5.91 11.586-19.878-9.582Zm0 0"/><path fill="#ded684" d="m239.113 143.254 17.7-2.649-11.79 14.235Zm0 0"/><path fill="#ded684" d="m256.813 140.605-17.7 2.649 1.91-7.805Zm0 0"/><path fill="#ded684" d="m245.11 123.613 11.702 16.992-15.789-5.156Zm0 0"/><path fill="#dfd785" d="m264.336 118.027-7.524 22.578-11.703-16.992Zm0 0"/><path fill="#202215" d="m239.113 143.254-14.008-9.238 15.918 1.433Zm0 0"/><path fill="#cdc67a" d="m225.105 134.016 14.008 9.238-13.968 2.004Zm0 0"/><path fill="#202215" d="m184.426 179.012 20.246 7.707-10.79 23.414ZM201.336 170.648l3.336 16.07-20.246-7.706Zm0 0"/><path fill="#898552" d="m159.664 204.332 11.527-9.816 22.692 15.617Zm0 0"/><path fill="#202215" d="m104.27 242.543 7.855-8.965 4.23 12.535ZM128.766 230.594l-16.641 2.984-1.875-11.074Zm0 0"/><path fill="#202215" d="m116.355 246.113 12.41-15.52 1.606 16.923Zm0 0"/><path fill="#202215" d="m112.125 233.578 16.64-2.984-12.41 15.52Zm0 0"/><path fill="#212315" d="m116.355 246.113 14.016 1.403-10.8 22.109Zm0 0"/><path fill="#ded684" d="m100.504 260.367-26.969-.547 17.266-13.953ZM73.535 259.82l26.969.547-9.48 10.918Zm0 0"/><path fill="#ded684" d="m104.27 242.543-3.766 17.824-9.703-14.5Zm0 0"/><path fill="#202215" d="m100.504 260.367 3.766-17.824 12.085 3.57ZM93.504 181.906l1.332-22.894 15.785 6.367Zm0 0"/><path fill="#dfd785" d="m72.195 148.668 22.64 10.344-20.468 23.625Zm0 0"/><path fill="#ded684" d="m94.836 159.012-1.332 22.894-19.137.73Zm0 0"/><path fill="#202215" d="m112.402 185.89 17.43 20.196-28.27-8.649Zm0 0"/><path fill="#202215" d="m93.504 181.906 18.898 3.985-10.84 11.547ZM112.402 185.89l-18.898-3.984 17.117-16.527Zm0 0"/><path fill="#9f9a5f" d="m154.266 191.91 17.398-16.762-.473 19.368Zm0 0"/><path fill="#a9a365" d="m154.266 191.91-5.774-20.582 23.172 3.82Zm0 0"/><path fill="#a49f62" d="m159.664 204.332-5.398-12.422 16.925 2.606Zm0 0"/><path fill="#272919" d="m154.266 191.91 5.398 12.422-29.832 1.754Zm0 0"/><path fill="#bab36f" d="m188.703 53.465 2.797 21.953-19.488-5.465Zm0 0"/><path fill="#d0c97c" d="m191.5 75.418-2.797-21.953 18.164 25.355Zm0 0"/><path fill="#212315" d="M200.488 86.637 191.5 75.418l15.367 3.402Zm0 0"/><path fill="#212315" d="m185.707 91.746 14.781-5.11.688 10Zm0 0"/><path fill="#212315" d="m191.5 75.418 8.988 11.219-14.781 5.11Zm0 0"/><path fill="#d1ca7d" d="m196.05 119.633-10.546-19.164 15.672-3.832Zm0 0"/><path fill="#898653" d="m185.504 100.469.203-8.723 15.469 4.89Zm0 0"/><path fill="#bdb771" d="m196.05 119.633 16.169 6.597-9.778 8.27Zm0 0"/><path fill="#31321f" d="m196.05 119.633-18.066 20.035-5.152-18.637Zm0 0"/><path fill="#2b2d1b" d="m185.504 100.469 10.547 19.164-23.219 1.398Zm0 0"/><path fill="#232517" d="m177.984 139.668 18.067-20.035 6.39 14.867Zm0 0"/><path fill="#202215" d="m212.219 126.23 12.344-6.507.542 14.293Zm0 0"/><path fill="#a29d61" d="m145.055 129.906-3.785 24.98-15.028-13.616Zm0 0"/><path fill="#b7b16d" d="m141.27 154.887 3.785-24.98 11.293 23.218Zm0 0"/><path fill="#908d57" d="m164.855 45.773 23.848 7.692-16.691 16.488Zm0 0"/><path fill="#dfd785" d="m384 247.953-35.082-17.73L384 170.629Zm0 0"/><path fill="#ded684" d="m354.457 276.723-34.98-13.13 29.441-33.37Zm0 0"/><path fill="#dfd785" d="m384 89.3-51.484-29.679L384 0Zm0 0"/><path fill="#dfd785" d="M332.516 59.621 312.895 0H384ZM332.516 59.621 384 89.301l-45.45 29.922Zm0 0"/><path fill="#dfd785" d="M332.516 59.621 282.23 45.055 312.895 0ZM271.18 170.86l33.054 36.952-35.668-4.386Zm0 0"/><path fill="#dfd785" d="m304.234 207.813-33.054-36.954 25.3-25.468Zm0 0"/><path fill="#dfd785" d="m271.18 170.86-14.368-30.255 39.668 4.786Zm0 0"/><path fill="#ded684" d="m230.535 76.297-13.004-11.418 20.125-23.828Zm0 0"/><path fill="#202215" d="M175.14 341.027 143.8 362.95l18.005-50.125Zm0 0"/><path fill="#292b1a" d="m143.8 362.95 31.34-21.923-.804 42.977Zm0 0"/><path fill="#202215" d="m174.336 384.004.805-42.977 31.57-.484ZM78.438 326.836l28.687-3.816.602 31.902Zm0 0"/><path fill="#7f7c4c" d="m143.8 362.95-31.624 21.073-4.45-29.101Zm0 0"/><path fill="#7e7b4c" d="M112.176 384.023 143.8 362.95l30.535 21.055Zm0 0"/><path fill="#706e44" d="m214.223 364.7 4.793 19.312-44.68-.008Zm0 0"/><path fill="#5b5a37" d="m232.754 367.66-18.531-2.96 11.922-20.571Zm0 0"/><path fill="#c9c278" d="m235.09 384.004-2.336-16.344 21.14 2.52Zm0 0"/><path fill="#67653f" d="m219.016 384.012 13.738-16.352 2.336 16.344Zm0 0"/><path fill="#737045" d="m232.754 367.66-13.738 16.352-4.793-19.313Zm0 0"/><path fill="#c2bc74" d="m232.754 367.66 18.883-18.437 2.258 20.957Zm0 0"/><path fill="#dad282" d="m251.637 349.223-18.883 18.437-6.61-23.531Zm0 0"/><path fill="#202215" d="m226.145 344.129-14.696 17.113-4.738-20.699Zm0 0"/><path fill="#222416" d="m214.223 364.7-2.774-3.458 14.696-17.113Zm0 0"/><path fill="#212315" d="m211.45 361.242-37.114 22.762 32.375-43.461Zm0 0"/><path fill="#202215" d="m211.45 361.242 2.773 3.457-39.887 19.305Zm0 0"/><path fill="#575635" d="m197.93 320.406-25.028-22 21.442-2.797Zm0 0"/><path fill="#a29e61" d="m210.16 303.54-12.23 16.866-3.586-24.797Zm0 0"/><path fill="#202215" d="m197.93 320.406-22.79 20.621-13.335-28.203Zm0 0"/><path fill="#212315" d="m59.617 350.031-22.469 12.235-.683-12.782Zm0 0"/><path fill="#d7d080" d="m37.148 362.266-15.18-4.438 14.497-8.344Zm0 0"/><path fill="#202215" d="m59.465 369.793-22.317-7.527 22.47-12.235ZM107.727 354.922l4.449 29.101L65.848 384Zm0 0"/><path fill="#212315" d="m78.438 326.836-17.536-15.91 14.989-6.813Zm0 0"/><path fill="#202215" d="m58.754 328.824 2.148-17.898 17.536 15.91ZM230.383 334.473l3.488-11.356 16.797 2.817ZM216.313 321.84l17.558 1.277-3.488 11.356Zm0 0"/><path fill="#afaa69" d="m233.871 323.117-17.559-1.277 11.54-19.684Zm0 0"/><path fill="#908c56" d="m252 310.707-18.129 12.41-6.02-20.96Zm0 0"/><path fill="#706d43" d="m250.668 325.934-16.797-2.817L252 310.707Zm0 0"/><path fill="#928e58" d="m205.945 239.965 13.774 23.707-20.918-4.461Zm0 0"/><path fill="#7c7a4b" d="m198.8 259.21 15.458 22.29-24.434-3.809Zm0 0"/><path fill="#9c985e" d="m219.719 263.672-5.461 17.828-15.457-22.29Zm0 0"/><path fill="#a29d61" d="m189.824 277.691 24.434 3.809-19.914 14.11Zm0 0"/><path fill="#ddd584" d="m296.957 324.016-26.02-22.676 22.446-16.23Zm0 0"/><path fill="#ded684" d="m270.938 301.34 26.019 22.676-28.746 2.175Zm0 0"/><path fill="#ded684" d="m268.21 326.191 28.747-2.175-17.133 37.918Zm0 0"/><path fill="#ddd684" d="m251.637 349.223 16.574-23.032 11.613 35.743Zm0 0"/><path fill="#ded684" d="m268.21 326.191-16.573 23.032-.969-23.29Zm0 0"/><path fill="#65643d" d="m231.797 283.953-17.54-2.453 5.462-17.828Zm0 0"/><path fill="#a8a365" d="m225.96 244.273 17.388-.457-2.578 10.41Zm0 0"/><path fill="#888552" d="m219.719 263.672 6.242-19.399 14.809 9.954Zm0 0"/><path fill="#8e8a55" d="m205.945 239.965 20.016 4.308-6.242 19.399Zm0 0"/><path fill="#3f3f27" d="m241.809 215.246 11.652-10.273 1.828 13.308Zm0 0"/><path fill="#ddd583" d="m241.809 215.246 1.992 10.156-8.766-5.023Zm0 0"/><path fill="#4f4e30" d="m243.8 225.402-1.991-10.156 13.48 3.035Zm0 0"/><path fill="#dfd785" d="m268.566 203.426 35.668 4.387-33.03 16.171ZM268.566 203.426l2.637 20.558-15.914-5.703Zm0 0"/><path fill="#ded684" d="m253.46 204.973 15.106-1.547-13.277 14.855Zm0 0"/><path fill="#b0ab69" d="m340.598 384.04 11-37.036 32.394 37Zm0 0"/><path fill="#d8d081" d="m296.957 324.016 22.98 23.937-40.113 13.98Zm0 0"/><path fill="#b6b06d" d="m279.824 361.934 40.113-13.98-16.39 36.097Zm0 0"/><path fill="#aaa566" d="m303.547 384.05 16.39-36.097 20.66 36.086Zm0 0"/><path fill="#b6b06c" d="m340.598 384.04-20.66-36.087 31.66-.95Zm0 0"/><path fill="#ded684" d="m384.004 296.527-29.547-19.804L384 247.953Zm0 0"/><path fill="#ded684" d="m354.457 276.723-5.539-46.5L384 247.953Zm0 0"/><path fill="#d6ce7f" d="m384 333.813-22.176-24.317 22.18-12.969Zm0 0"/><path fill="#d5cd7f" d="m384 333.813-32.402 13.19 10.226-37.507Zm0 0"/><path fill="#dfd785" d="m30.86 209.074 8.265-38.16 23.2 35.152Zm0 0"/><path fill="#dfd785" d="m47.895 237.246-17.036-28.172 31.465-3.008Zm0 0"/><path fill="#202215" d="m91.898 193.805 1.606-11.899 8.058 15.531Zm0 0"/><path fill="#ded684" d="m93.504 181.906-1.606 11.899-17.53-11.168ZM85.035 282.008l-11.5-22.188 17.488 11.465Zm0 0"/><path fill="#dfd785" d="m74.367 182.637-12.043 23.43-23.199-35.153Zm0 0"/><path fill="#242617" d="m112.867 146.277 16.035 21.395-18.28-2.293Zm0 0"/><path fill="#202215" d="m112.867 146.277-13.984-7.558L111.69 128.3Zm0 0"/><path fill="#232516" d="m126.242 141.27-13.375 5.007-1.176-17.976Zm0 0"/><path fill="#212315" d="m128.902 167.672-16.035-21.395 13.375-5.007Zm0 0"/><path fill="#dfd785" d="m81.059 121.09-8.864 27.578-26.773-30.293Zm0 0"/><path fill="#ded684" d="M149.691 30.79 177.328 0l-12.473 45.773Zm0 0"/><path fill="#dfd785" d="m106.145 96.7-5.868 11.03-2.808-14.19ZM107.957 84.168l-1.812 12.531-8.676-3.16Zm0 0"/><path fill="#202215" d="m106.145 96.7 3.125 18.507-8.993-7.477ZM109.27 115.207l-3.125-18.508 10.765 9.895Zm0 0"/><path fill="#4e4d2f" d="m116.91 106.594-10.765-9.895 17.218-3.734Zm0 0"/><path fill="#242617" d="m106.145 96.7 1.812-12.532 15.406 8.797Zm0 0"/><path fill="#bab46f" d="m120.969 122.234-4.059-15.64 18.508 1.66Zm0 0"/><path fill="#232416" d="m120.969 122.234 5.273 19.036-14.55-12.97Zm0 0"/><path fill="#48482c" d="m109.27 115.207 11.699 7.027-9.278 6.067Zm0 0"/><path fill="#343521" d="m120.969 122.234-11.7-7.027 7.641-8.613Zm0 0"/><path fill="#a9a465" d="m126.242 141.27-5.273-19.036 24.086 7.672Zm0 0"/><path fill="#b9b36e" d="m120.969 122.234 14.449-13.98 9.637 21.652Zm0 0"/><path fill="#202215" d="m158.27 92.184-3.907 20.039-18.945-3.97Zm0 0"/><path fill="#202215" d="m158.27 92.184-22.852 16.07 1.898-27.129ZM158.27 92.184l27.234 8.285-20.098 12.316Zm0 0"/><path fill="#202215" d="m154.363 112.223 3.907-20.04 7.136 20.602Zm0 0"/><path fill="#ded684" d="m121.027 61.379-18.105-25.504 25.023 8.691ZM102.922 35.875l18.105 25.504-10.703 7.41Zm0 0"/><path fill="#202215" d="m118.957 293.215 42.848 19.61-54.68 10.195Zm0 0"/><path fill="#6a6840" d="m118.957 293.215 28.14-9.54 14.708 29.15ZM160.664 260.809l-2.746-17.735 14.148 4.715Zm0 0"/><path fill="#4b4b2e" d="m157.918 243.074 2.746 17.735-30.293-13.293Zm0 0"/><path fill="#4e4e30" d="m147.098 283.676 13.566-22.867 8.879 15.093Zm0 0"/><path fill="#4c4c2f" d="m160.664 260.809-13.566 22.867-16.727-36.16Zm0 0"/><path fill="#bfb872" d="m205.945 239.965-18.98 4.363.93-11.441Zm0 0"/><path fill="#767347" d="m186.965 244.328-7.774 14.992-7.125-11.53Zm0 0"/><path fill="#97935a" d="m179.191 259.32 7.774-14.992 11.836 14.883Zm0 0"/><path fill="#9d995e" d="m186.965 244.328 18.98-4.363-7.144 19.246Zm0 0"/><path fill="#8c8854" d="m216.02 137.082-5.461 9.91-8.118-12.492Zm0 0"/><path fill="#b3ad6b" d="m212.219 126.23 3.8 10.852-13.578-2.582Zm0 0"/><path fill="#dad282" d="m216.02 137.082-3.801-10.852 12.886 7.786Zm0 0"/><path fill="#212315" d="m201.336 170.648 16.3-7.699.262 10.528Zm0 0"/><path fill="#202215" d="m204.672 186.719.777 14.34-11.566 9.074Zm0 0"/><path fill="#d4cd7e" d="m205.45 201.059 12.632 12.996-16.137-1.153Zm0 0"/><path fill="#888552" d="m193.883 210.133 11.566-9.074-3.504 11.843Zm0 0"/><path fill="#959159" d="m174.246 220.16-14.582-15.828 34.219 5.8Zm0 0"/><path fill="#202215" d="m174.246 220.16 19.637-10.027-5.988 22.754Zm0 0"/><path fill="#68663f" d="m174.246 220.16-22.562 6.266 7.98-22.094Zm0 0"/><path fill="#ded684" d="m76.387 231.703 17.902 3.617-3.488 10.547Zm0 0"/><path fill="#ded684" d="m94.29 235.32 9.98 7.223-13.47 3.324Zm0 0"/><path fill="#202215" d="m129.832 206.086-1.066 24.508-18.516-8.09Zm0 0"/><path fill="#252718" d="m130.371 247.516 16.727 36.16-27.528-14.051Zm0 0"/><path fill="#202215" d="m119.57 269.625-19.066-9.258 15.851-14.254Zm0 0"/><path fill="#dfd785" d="m81.059 121.09 8.918 15.644-17.782 11.934Zm0 0"/><path fill="#605f3a" d="m148.492 171.328-18.66 34.758-.93-38.414Zm0 0"/><path fill="#5a5937" d="m154.266 191.91-24.434 14.176 18.66-34.758Zm0 0"/><path fill="#202215" d="m129.832 206.086-17.43-20.195 16.5-18.22Zm0 0"/><path fill="#b2ad6b" d="m206.867 78.82-18.164-25.355 28.828 11.414Zm0 0"/><path fill="#202215" d="m224.563 119.723 4.558-12.164 6.828 9.992Zm0 0"/><path fill="#9d985e" d="m178.145 160.742-12.813-22.195 12.652 1.121Zm0 0"/><path fill="#747246" d="m177.984 139.668-12.652-1.121 7.5-17.516Zm0 0"/><path fill="#9a965c" d="m165.332 138.547-2.988-18.32 10.488.804Zm0 0"/><path fill="#c1ba73" d="m165.332 138.547-20.277-8.64 17.289-9.68Zm0 0"/><path fill="#b4ae6b" d="m165.332 138.547 12.813 22.195-21.797-7.617Zm0 0"/><path fill="#b5b06c" d="m145.055 129.906 20.277 8.64-8.984 14.579Zm0 0"/><path fill="#202215" d="m224.563 119.723 10.05 6.132-9.508 8.16ZM225.105 134.016l9.508-8.16 6.41 9.593Zm0 0"/><path fill="#202215" d="m234.613 125.855 10.496-2.242-4.086 11.836Zm0 0"/><path fill="#202215" d="m245.11 123.613-10.497 2.242 1.336-8.304ZM234.613 125.855l-10.05-6.132 11.386-2.172Zm0 0"/><path fill="#a29e61" d="m148.773 71.055 7.47-13.618 15.769 12.516Zm0 0"/><path fill="#9e995e" d="m156.242 57.438 8.613-11.665 7.157 24.18Zm0 0"/><path fill="#ddd583" d="m131.43 49.77-10.403 11.609 6.918-16.813Zm0 0"/><path fill="#232416" d="m121.027 61.379 10.403-11.61.18 15.145Zm0 0"/><path fill="#dcd483" d="m331.89 309.816 22.567-33.093 7.367 32.773Zm0 0"/><path fill="#dcd483" d="m331.89 309.816-12.413-46.222 34.98 13.129Zm0 0"/><path fill="#ded684" d="m319.477 263.594-26.094 21.515-11.164-34.558Zm0 0"/><path fill="#dfd785" d="m304.234 207.813 15.243 55.78-37.258-13.042Zm0 0"/><path fill="#ded684" d="m319.477 263.594-15.243-55.781 44.684 22.41Zm0 0"/><path fill="#555434" d="m107.727 354.922-.602-31.902 36.676 39.93Zm0 0"/><path fill="#202215" d="m59.617 350.031 18.82-23.195 29.29 28.086Zm0 0"/><path fill="#202215" d="m78.438 326.836-18.82 23.195-.864-21.207Zm0 0"/><path fill="#232516" d="m45.621 337.387 13.996 12.644-23.152-.547Zm0 0"/><path fill="#202215" d="m59.617 350.031-13.996-12.644 13.133-8.563ZM175.14 341.027l22.79-20.62 8.78 20.136Zm0 0"/><path fill="#a9a365" d="m216.313 321.84-18.383-1.434 12.23-16.867Zm0 0"/><path fill="#202215" d="m197.93 320.406 18.382 1.434-9.601 18.703Zm0 0"/><path fill="#8c8854" d="m197.93 320.406-36.125-7.582 11.097-14.418Zm0 0"/><path fill="#202215" d="m33.648 384 3.5-21.734 22.317 7.527Zm0 0"/><path fill="#bcb670" d="m33.648 384-11.68-26.172 15.18 4.438Zm0 0"/><path fill="#b5b06c" d="M21.969 357.828 33.649 384l-33.653.004Zm0 0"/><path fill="#beb871" d="m-.004 338.992 21.973 18.836-21.973 26.176Zm0 0"/><path fill="#d5ce7f" d="m21.969 357.828-.824-31.101 15.32 22.757Zm0 0"/><path fill="#d7d080" d="m21.145 326.727 24.476 10.66-9.156 12.097Zm0 0"/><path fill="#cdc67a" d="M21.969 357.828-.004 338.992l21.149-12.265Zm0 0"/><path fill="#202215" d="M107.727 354.922 65.847 384l-6.382-14.207Zm0 0"/><path fill="#bcb570" d="m-.008 291.926 43.617 9.605-22.464 25.196Zm0 0"/><path fill="#ded684" d="m-.008 291.926 42.582-19.93 1.035 29.535Zm0 0"/><path fill="#222416" d="m84.215 298.738 4.543 10.434-12.867-5.059Zm0 0"/><path fill="#202215" d="m88.758 309.172-10.32 17.664-2.547-22.723Zm0 0"/><path fill="#212315" d="m88.758 309.172 18.367 13.848-28.687 3.816Zm0 0"/><path fill="#222416" d="m84.215 298.738 8.297-1.43-3.754 11.864Zm0 0"/><path fill="#202215" d="m88.758 309.172 3.754-11.863 5.847 8.168Zm0 0"/><path fill="#202215" d="m92.512 297.309 26.445-4.094-20.598 12.262Zm0 0"/><path fill="#ded684" d="m92.512 297.309-8.297 1.43.82-16.731Zm0 0"/><path fill="#938f58" d="m231.797 283.953 20.07 7.988-24.015 10.215Zm0 0"/><path fill="#888552" d="m251.867 291.941.133 18.766-24.148-8.55Zm0 0"/><path fill="#aaa465" d="m210.16 303.54 4.098-22.04 13.594 20.656Zm0 0"/><path fill="#898653" d="m214.258 281.5 17.539 2.453-3.945 18.203Zm0 0"/><path fill="#9f9a5f" d="m214.258 281.5-4.098 22.04-15.816-7.93Zm0 0"/><path fill="#dfd785" d="m252.738 188.023 18.442-17.164-2.614 32.567Zm0 0"/><path fill="#b0ab69" d="m245.023 154.84 4.696 19.008-17.13-6.739Zm0 0"/><path fill="#ded684" d="m252.738 188.023-3.02-14.175 21.462-2.989Zm0 0"/><path fill="#ddd583" d="m331.89 309.816-34.933 14.2-3.574-38.907Zm0 0"/><path fill="#dfd785" d="m47.895 237.246 14.43-31.18 14.062 25.637Zm0 0"/><path fill="#ded684" d="m95.004 148.168-5.027-11.434 8.906 1.985Zm0 0"/><path fill="#dfd785" d="m95.004 148.168-.168 10.844-22.64-10.344ZM89.977 136.734l5.027 11.434-22.809.5ZM81.059 121.09l-1.317-21.996 20.535 8.636Zm0 0"/><path fill="#dfd785" d="m79.742 99.094 1.317 21.996-35.637-2.715ZM84.742 0h43.867l-25.687 35.875Zm0 0"/><path fill="#ded684" d="m128.61 0 3.18 33.219-28.868 2.656Zm0 0"/><path fill="#d1ca7d" d="m225.145 145.258-7.508 17.691-7.078-15.957Zm0 0"/><path fill="#ded684" d="m225.145 145.258-9.125-8.176 9.085-3.066Zm0 0"/><path fill="#d5cd7f" d="m216.02 137.082 9.125 8.176-14.586 1.734Zm0 0"/><path fill="#424229" d="m217.637 162.95-22.477-11.126 15.399-4.832Zm0 0"/><path fill="#30311e" d="m210.559 146.992-15.399 4.832 7.281-17.324Zm0 0"/><path fill="#242617" d="m195.16 151.824-17.176-12.156 24.457-5.168Zm0 0"/><path fill="#242617" d="m195.16 151.824-17.015 8.918-.16-21.074Zm0 0"/><path fill="#b0ab69" d="m218.082 214.055 12.281-9.567 4.672 15.89Zm0 0"/><path fill="#dcd583" d="m230.363 204.488 11.446 10.758-6.774 5.133Zm0 0"/><path fill="#dcd483" d="m230.363 204.488 14.02-17.41 8.355.945Zm0 0"/><path fill="#696740" d="m253.46 204.973-23.097-.485 22.375-16.465Zm0 0"/><path fill="#8b8753" d="m241.809 215.246-11.446-10.758 23.098.485Zm0 0"/><path fill="#202215" d="m232.59 167.11-6.676 14.32-8.016-7.953ZM172.348 233.39l1.898-13.23 13.649 12.727Zm0 0"/><path fill="#aaa566" d="m172.348 233.39 14.617 10.938-14.899 3.461Zm0 0"/><path fill="#b5af6c" d="m186.965 244.328-14.617-10.937 15.547-.504Zm0 0"/><path fill="#202215" d="m172.348 233.39-20.664-6.964 22.562-6.266Zm0 0"/><path fill="#605f3a" d="m151.684 226.426-22.918 4.168 1.066-24.508Zm0 0"/><path fill="#545333" d="m159.664 204.332-7.98 22.094-21.852-20.34Zm0 0"/><path fill="#2b2c1b" d="m151.684 226.426-21.313 21.09-1.605-16.922Zm0 0"/><path fill="#202215" d="m104.27 242.543.257-12.242 7.598 3.277Zm0 0"/><path fill="#ded684" d="m94.29 235.32 10.237-5.02-.257 12.243Zm0 0"/><path fill="#222416" d="m99.727 278.04 19.843-8.415-.613 23.59Zm0 0"/><path fill="#ded684" d="m99.727 278.04-14.692 3.968 5.988-10.723ZM100.504 260.367l-.777 17.672-8.704-6.754Zm0 0"/><path fill="#202215" d="m119.57 269.625-19.843 8.414.777-17.672Zm0 0"/><path fill="#ded684" d="m99.727 278.04-7.215 19.269-7.477-15.301Zm0 0"/><path fill="#202215" d="m92.512 297.309 7.215-19.27 19.23 15.176Zm0 0"/><path fill="#949059" d="m221.656 85.23-4.125-20.351 13.004 11.418Zm0 0"/><path fill="#cfc87c" d="m221.656 85.23-14.789-6.41 10.664-13.941Zm0 0"/><path fill="#212315" d="m210.027 105.895 14.536 13.828-12.344 6.507Zm0 0"/><path fill="#202215" d="m210.027 105.895 19.094 1.664-4.559 12.164Zm0 0"/><path fill="#d9d181" d="m210.027 105.895 2.192 20.335-16.168-6.597Zm0 0"/><path fill="#202215" d="m229.121 107.559 17.219 1.832-10.39 8.16Zm0 0"/><path fill="#dfd785" d="m246.34 109.39 10.937-10.644 7.059 19.281Zm0 0"/><path fill="#ded684" d="m245.11 123.613 1.23-14.222 17.996 8.636Zm0 0"/><path fill="#202215" d="m246.34 109.39-1.23 14.223-9.16-6.062Zm0 0"/><path fill="#787548" d="m156.242 57.438-4.105-10.657 12.718-1.008Zm0 0"/><path fill="#ded684" d="M152.137 46.781 149.69 30.79l15.164 14.984ZM131.79 33.219l8.78 11.64-12.625-.293Zm0 0"/><path fill="#ded684" d="m140.57 44.86-9.14 4.91-3.485-5.204ZM152.137 46.781 140.57 44.86l9.121-14.07Zm0 0"/><path fill="#dfd785" d="m140.57 44.86-8.78-11.641 17.901-2.43Zm0 0"/><path fill="#938f58" d="m143.656 56.066 12.586 1.371-7.469 13.618Zm0 0"/><path fill="#949059" d="m143.656 56.066 5.117 14.989-17.164-6.14Zm0 0"/><path fill="#5c5b38" d="m131.43 49.77 12.226 6.296-12.047 8.848Zm0 0"/><path fill="#787548" d="m143.656 56.066 8.48-9.285 4.106 10.657Zm0 0"/><path fill="#5c5b38" d="M143.656 56.066 140.57 44.86l11.567 1.922Zm0 0"/><path fill="#5c5b38" d="m140.57 44.86 3.086 11.206-12.226-6.296Zm0 0"/><path fill="#dcd483" d="m331.89 309.816-38.507-24.707 26.094-21.515Zm0 0"/><path fill="#d0c97c" d="m43.61 301.531 5.722 20.528-28.187 4.668Zm0 0"/><path fill="#dad382" d="m21.145 326.727 28.187-4.668-3.71 15.328Zm0 0"/><path fill="#d1ca7d" d="m49.332 322.059-5.723-20.528 17.293 9.395Zm0 0"/><path fill="#202215" d="m45.621 337.387 3.711-15.328 9.422 6.765Zm0 0"/><path fill="#222416" d="m49.332 322.059 11.57-11.133-2.148 17.898Zm0 0"/><path fill="#ded684" d="m70.43 285.98 3.105-26.16 11.5 22.188ZM70.43 285.98l-27.856-13.984 30.961-12.176ZM84.215 298.738 70.43 285.98l14.605-3.972Zm0 0"/><path fill="#ded684" d="m70.43 285.98 13.785 12.758-8.324 5.375ZM42.574 271.996l17.617 23.344-16.582 6.191Zm0 0"/><path fill="#ded684" d="m70.43 285.98-10.239 9.36-17.617-23.344Zm0 0"/><path fill="#ded684" d="m60.191 295.34 10.239-9.36 5.46 18.133Zm0 0"/><path fill="#ded684" d="m60.902 310.926-.71-15.586 15.699 8.773Zm0 0"/><path fill="#ddd583" d="m43.61 301.531 16.581-6.191.711 15.586Zm0 0"/><path fill="#727045" d="m250.96 282.742.907 9.2-20.07-7.989Zm0 0"/><path fill="#dfd785" d="m249.719 173.848-4.696-19.008 26.157 16.02Zm0 0"/><path fill="#dfd785" d="m271.18 170.86-26.157-16.02 11.79-14.235Zm0 0"/><path fill="#d5cd7f" d="m361.824 309.496-10.226 37.508-19.707-37.188Zm0 0"/><path fill="#ded684" d="m73.535 259.82-25.64-22.574 28.492-5.543ZM42.574 271.996l5.32-34.75 25.641 22.574Zm0 0"/><path fill="#202215" d="m112.867 146.277-10.105 4.446-3.88-12.004Zm0 0"/><path fill="#202215" d="m102.762 150.723-7.758-2.555 3.879-9.45ZM102.762 150.723l10.105-4.446-2.246 19.102Zm0 0"/><path fill="#202215" d="m94.836 159.012 7.926-8.29 7.86 14.657Zm0 0"/><path fill="#202215" d="m95.004 148.168 7.758 2.555-7.926 8.289Zm0 0"/><path fill="#dfd785" d="m98.758 123.766-8.781 12.968-8.918-15.644Zm0 0"/><path fill="#ded684" d="m89.977 136.734 8.78-12.968.126 14.953Zm0 0"/><path fill="#202215" d="m98.883 138.719-.125-14.953 12.933 4.535Zm0 0"/><path fill="#202215" d="m98.758 123.766 10.512-8.559 2.421 13.094ZM109.27 115.207l-10.512 8.559 1.52-16.036Zm0 0"/><path fill="#ded684" d="m98.758 123.766-17.7-2.676 19.22-13.36Zm0 0"/><path fill="#202215" d="m217.637 162.95 14.953 4.16-14.692 6.367Zm0 0"/><path fill="#dcd483" d="m245.023 154.84-27.386 8.11 7.508-17.692Zm0 0"/><path fill="#c0ba73" d="m217.637 162.95 27.386-8.11-12.433 12.27Zm0 0"/><path fill="#858250" d="m195.16 151.824 6.176 18.824-23.191-9.906Zm0 0"/><path fill="#61603b" d="m178.145 160.742 23.19 9.906-16.91 8.364Zm0 0"/><path fill="#68663f" d="m201.336 170.648-6.176-18.824 22.477 11.125Zm0 0"/><path fill="#202215" d="m225.914 181.43-21.242 5.289 13.226-13.242Zm0 0"/><path fill="#202215" d="m204.672 186.719-3.336-16.07 16.562 2.828Zm0 0"/><path fill="#262818" d="m225.914 181.43 18.805-1.414-.336 7.062Zm0 0"/><path fill="#4e4e30" d="m244.383 187.078.336-7.062 8.02 8.007Zm0 0"/><path fill="#212315" d="m249.719 173.848-5 6.168-12.13-12.907Zm0 0"/><path fill="#202215" d="m244.719 180.016-18.805 1.414 6.676-14.32Zm0 0"/><path fill="#5b5a37" d="m244.719 180.016 5-6.168 3.02 14.175Zm0 0"/><path fill="#b5af6c" d="m157.918 243.074 14.43-9.683-.282 14.398Zm0 0"/><path fill="#97935b" d="m172.348 233.39-14.43 9.684-6.234-16.648Zm0 0"/><path fill="#5f5d3a" d="m157.918 243.074-27.547 4.442 21.313-21.09Zm0 0"/><path fill="#202215" d="m110.25 222.504-10.098-12.152 29.68-4.266ZM104.527 230.3l5.723-7.796 1.875 11.074Zm0 0"/><path fill="#ded684" d="m86.52 213.691 5.867 9.477-16 8.535Zm0 0"/><path fill="#202215" d="m92.387 223.168-5.867-9.477 13.632-3.34Zm0 0"/><path fill="#202215" d="m110.25 222.504-17.863.664 7.765-12.816ZM92.387 223.168l17.863-.664-5.723 7.797Zm0 0"/><path fill="#dfd785" d="m92.387 223.168 1.902 12.152-17.902-3.617Zm0 0"/><path fill="#ded684" d="m92.387 223.168 12.14 7.133-10.238 5.02Zm0 0"/><path fill="#dfd785" d="m62.324 206.066 24.196 7.625-10.133 18.012Zm0 0"/><path fill="#dfd785" d="m74.367 182.637 15.613 20-27.656 3.43Zm0 0"/><path fill="#dfd785" d="m89.98 202.637-3.46 11.054-24.196-7.625Zm0 0"/><path fill="#ded684" d="m91.898 193.805-1.918 8.832-15.613-20Zm0 0"/><path fill="#202215" d="m86.52 213.691 3.46-11.054 10.172 7.715Zm0 0"/><path fill="#ded684" d="m239.797 95.457-9.262-19.16 25.074-.875Zm0 0"/><path fill="#d3cc7e" d="m239.797 95.457-18.14-10.227 8.878-8.933Zm0 0"/><path fill="#ded684" d="m257.277 98.746-17.48-3.289 15.812-20.035ZM246.34 109.39l-6.543-13.933 17.48 3.29Zm0 0"/><path fill="#202215" d="m206.867 78.82 6.446 14.871-12.825-7.054Zm0 0"/><path fill="#222416" d="m221.656 85.23-8.344 8.461-6.445-14.87Zm0 0"/><path fill="#202215" d="m200.488 86.637 12.825 7.054-12.137 2.946Zm0 0"/><path fill="#cbc479" d="m210.027 105.895-13.976 13.738 5.125-22.996Zm0 0"/><path fill="#202215" d="m213.313 93.691-3.286 12.204-8.851-9.258Zm0 0"/><path fill="#202215" d="m210.027 105.895 3.286-12.204 15.808 13.868Zm0 0"/><path fill="#6f6d43" d="m251.328 273.27-.367 9.472-19.164 1.211Zm0 0"/><path fill="#9d995e" d="m251.328 273.27-31.61-9.598 21.052-9.445Zm0 0"/><path fill="#807d4d" d="m251.328 273.27-19.531 10.683-12.078-20.281Zm0 0"/><path fill="#d8d181" d="m331.89 309.816-11.952 38.137-22.981-23.937Zm0 0"/><path fill="#d9d181" d="m351.598 347.004-31.66.95 11.953-38.138Zm0 0"/><path fill="#202215" d="m221.664 196.29 4.25-14.86 18.469 5.648ZM221.664 196.29l-16.992-9.571 21.242-5.29ZM221.664 196.29l8.7 8.198-12.282 9.567Zm0 0"/><path fill="#202215" d="m230.363 204.488-8.699-8.199 22.719-9.21ZM205.45 201.059l16.214-4.77-3.582 17.766Zm0 0"/><path fill="#202215" d="m221.664 196.29-16.215 4.769-.777-14.34ZM100.152 210.352l1.41-12.915 28.27 8.649Zm0 0"/><path fill="#202215" d="m89.98 202.637 11.582-5.2-1.41 12.915Zm0 0"/><path fill="#202215" d="m101.563 197.438-11.583 5.199 1.918-8.832ZM239.797 95.457l-7.774 5.648-10.367-15.875ZM213.313 93.691l18.71 7.414-2.902 6.454Zm0 0"/><path fill="#202215" d="m232.023 101.105-18.71-7.414 8.343-8.46ZM232.023 101.105l14.317 8.286-17.219-1.832Zm0 0"/><path fill="#202215" d="m232.023 101.105 7.774-5.648 6.543 13.934Zm0 0"/></svg>