<svg xmlns="http://www.w3.org/2000/svg" width="512" height="512" viewBox="0 0 384 384"><path fill="#714f4b" d="m100.992 346.219 22.227-20.856 17.457 28.93Zm0 0"/><path fill="#78554f" d="m263.598 240.984 22.664 34.043-35.594 7.328Zm0 0"/><path fill="#76544f" d="m35.867 165.465-35.86-26.36 42.325-7.714Zm0 0"/><path fill="#7e5a53" d="m383.996 69.477-37.379 33.66-5.039-54.567Zm0 0"/><path fill="#795651" d="M0 282.453v-48.258l38.727 21.477Zm0 0"/><path fill="#72514c" d="m96.078 302.71 27.14 22.653-22.226 20.856Zm0 0"/><path fill="#7d5952" d="m384 280.305-28.418-34.5L384 228.89Zm0 0"/><path fill="#7a5751" d="m224.922 258.496 38.676-17.512-12.93 41.371Zm0 0"/><path fill="#7b5751" d="m279.426 201.512 36.726 39.625-52.554-.153Zm0 0"/><path fill="#7a5751" d="m263.598 240.984 52.554.153-29.89 33.89Zm0 0"/><path fill="#785550" d="M35.867 165.465.004 188.309l.004-49.204Zm0 0"/><path fill="#795650" d="M286.32 66.148 254.91 54.93l20.945-22.297Zm0 0"/><path fill="#7a5751" d="m254.91 54.93 31.41 11.218-19.629 21.536ZM305.473 47.434l5.41-47.438 30.695 48.574Zm0 0"/><path fill="#7a5650" d="m286.32 66.148 13.22 33.153-32.849-11.617Zm0 0"/><path fill="#795650" d="m299.54 99.3-20.614 28.348-12.235-39.964Zm0 0"/><path fill="#7b5852" d="m299.54 99.3 47.077 3.837-34.648 37.8Zm0 0"/><path fill="#795651" d="m278.926 127.648 20.613-28.347 12.43 41.637Zm0 0"/><path fill="#7e5a53" d="m346.617 103.137 37.38-33.66.003 57.386Zm0 0"/><path fill="#704f4a" d="m111.402.004 30.953 26.957-25.027 22.922Zm0 0"/><path fill="#75534e" d="m72.129 144.945-9.813-36.941 32.297 4.41Zm0 0"/><path fill="#795651" d="M33.648 210.371 0 234.195l.004-45.886Zm0 0"/><path fill="#77544f" d="m0 234.195 33.648-23.824 5.079 45.3Zm0 0"/><path fill="#73514c" d="m97.031 212.777 18.114 38.993-34.516 1.43Zm0 0"/><path fill="#72504b" d="m115.145 251.77-19.067 50.94-15.45-49.51Zm0 0"/><path fill="#72514c" d="M140.676 354.293 121.77 384l-20.778-37.781Zm0 0"/><path fill="#775550" d="M0 325.355v-42.902l32.14 22.043Zm0 0"/><path fill="#74524d" d="M31.957 341.633 0 325.355l32.14-20.859Zm0 0"/><path fill="#75534e" d="m96.078 302.71-33.121 23.474-.496-35.383Zm0 0"/><path fill="#7e5a54" d="m384 228.89-34.016-23.554L384 182.25Zm0 0"/><path fill="#7d5953" d="M349.984 205.336 384 228.89l-28.418 16.914ZM349.984 205.336l-.222-44.57L384 182.25Zm0 0"/><path fill="#7e5a53" d="m349.984 205.336 5.598 40.469-39.43-4.668Zm0 0"/><path fill="#7c5852" d="m261.285 179.48 18.14 22.032-41.28 3.195Zm0 0"/><path fill="#7d5953" d="M384 126.863v55.387l-34.238-21.484Zm0 0"/><path fill="#76544e" d="m246.543 384-18.746-24.082 37.933-8.195Zm0 0"/><path fill="#795650" d="m311.605 384-17.09-40.363 23.97-12.387Zm0 0"/><path fill="#704e4a" d="m123.219 325.363 27.918-2.636-10.461 31.566Zm0 0"/><path fill="#77554f" d="m239.086 322.113 42.258-9.675-15.614 39.285Zm0 0"/><path fill="#7a5751" d="m316.152 241.137 1.754 51.218-31.644-17.328Zm0 0"/><path fill="#795650" d="m317.906 292.355-36.562 20.082 4.918-37.41ZM281.344 312.438l37.14 18.812-23.968 12.387Zm0 0"/><path fill="#7a5751" d="m281.344 312.438 36.562-20.083.578 38.895Zm0 0"/><path fill="#75534e" d="M72.926 37.957 40.312 69.621l-7.046-39.16Zm0 0"/><path fill="#77554f" d="M.008 139.105 0 88.293l31.098 21.078Zm0 0"/><path fill="#76544f" d="m.008 139.105 31.09-29.734 11.234 22.02Zm0 0"/><path fill="#75534e" d="m66.355 187.96-3.046 34.493-29.66-12.082Zm0 0"/><path fill="#76544f" d="m97.031 212.777-33.722 9.676 3.046-34.492Zm0 0"/><path fill="#75534e" d="m63.309 222.453 33.722-9.676L80.63 253.2Zm0 0"/><path fill="#775550" d="M33.648 210.371.004 188.31l35.863-22.844Zm0 0"/><path fill="#76544f" d="m31.098 109.371 31.218-1.367-19.984 23.387Zm0 0"/><path fill="#75534e" d="m42.332 131.39 19.984-23.386 9.813 36.941Zm0 0"/><path fill="#77544f" d="m254.91 54.93-15.02-26.774 35.965 4.477Zm0 0"/><path fill="#785550" d="m254.91 54.93-28.195-3.797 13.176-22.977Zm0 0"/><path fill="#76544e" d="M217.438 0h42.082l-19.63 28.156Zm0 0"/><path fill="#77544f" d="m259.52 0 16.335 32.633-35.964-4.477Zm0 0"/><path fill="#75534e" d="M212.695 24.035 217.438 0l22.453 28.156Zm0 0"/><path fill="#76544e" d="m310.883-.004-35.028 32.637L259.52 0Zm0 0"/><path fill="#795650" d="M275.855 32.633 310.883-.004l-5.41 47.438Zm0 0"/><path fill="#795650" d="M305.473 47.434 286.32 66.148l-10.465-33.515Zm0 0"/><path fill="#7c5852" d="M383.996 69.477 341.578 48.57 384-.008Zm0 0"/><path fill="#785550" d="M341.578 48.57 310.883-.004 384-.008Zm0 0"/><path fill="#7b5852" d="m299.54 99.3 13.358-28.362 33.72 32.199Zm0 0"/><path fill="#805b54" d="m346.617 103.137-33.719-32.2 28.68-22.367Zm0 0"/><path fill="#7b5751" d="m312.898 70.938-7.425-23.504 36.105 1.136Zm0 0"/><path fill="#7c5851" d="M312.898 70.938 299.54 99.3 286.32 66.148Zm0 0"/><path fill="#7b5751" d="m305.473 47.434 7.425 23.504-26.578-4.79Zm0 0"/><path fill="#72504b" d="m140.883 70.2 17.316 8.734-1.304 7.129Zm0 0"/><path fill="#f1c1b0" d="m158.2 78.934 5.663 10.136-6.968-3.007Zm0 0"/><path fill="#f6c5b4" d="m205.113 86.297-3.55 11.55-5.708-8.011Zm0 0"/><path fill="#714f4b" d="m99.758 173.36-2.727 39.417-30.676-24.816Zm0 0"/><path fill="#704e4a" d="m141.332 226.59 2.875 13.68-29.062 11.5Zm0 0"/><path fill="#75534e" d="m226.715 51.133-5.63-4.797 18.806-18.18Zm0 0"/><path fill="#785650" d="m234.969 68.55 19.941-13.62 11.781 32.754Zm0 0"/><path fill="#785550" d="M254.91 54.93 234.97 68.55l-8.254-17.417Zm0 0"/><path fill="#74524d" d="m215.063 34.645-14.793-.434 12.425-10.176Zm0 0"/><path fill="#75534e" d="m215.063 34.645-2.368-10.61 27.196 4.121Zm0 0"/><path fill="#75534e" d="m221.086 46.336-6.024-11.691 24.829-6.489Zm0 0"/><path fill="#71504b" d="m117.328 49.883 23.555 20.316-16.45 14.29Zm0 0"/><path fill="#704f4a" d="m117.328 49.883 25.027-22.922 7.575 24.508Zm0 0"/><path fill="#72514c" d="M87.469 77.32 72.926 37.957l44.402 11.926Zm0 0"/><path fill="#73514d" d="M72.926 37.957 87.469 77.32l-47.156-7.699ZM87.469 77.32l29.86-27.437 7.105 34.605Zm0 0"/><path fill="#72504b" d="m87.469 77.32 36.965 7.168-29.82 27.926Zm0 0"/><path fill="#72504c" d="M62.316 108.004 87.47 77.32l7.144 35.094Zm0 0"/><path fill="#74524d" d="m87.469 77.32-25.153 30.684L40.312 69.62Zm0 0"/><path fill="#72504b" d="m169.66 0-27.305 26.96L111.402.005Zm0 0"/><path fill="#704e4a" d="m161.691 30.773-19.336-3.812L169.66 0Zm0 0"/><path fill="#714f4a" d="m184.793 25.469-23.102 5.304L169.661 0Zm0 0"/><path fill="#704f4a" d="m142.355 26.96 19.336 3.813L149.93 51.47ZM72.926 37.957 111.402.004l5.926 49.879Zm0 0"/><path fill="#4a2d2c" d="m243.402 178.758-20.793.238 5.203-9.309ZM222.61 178.996l20.792-.238-5.257 25.949Zm0 0"/><path fill="#76544f" d="m0 282.453 38.727-26.781-6.586 48.824Zm0 0"/><path fill="#704f4a" d="M115.145 251.77 97.03 212.777l36.668 5.192Zm0 0"/><path fill="#704e4a" d="m141.332 226.59-26.187 25.18 18.554-33.801Zm0 0"/><path fill="#704f4a" d="m97.031 212.777 31.371-23.351 5.297 28.543Zm0 0"/><path fill="#704e4a" d="m128.402 189.426-31.37 23.351 2.726-39.418Zm0 0"/><path fill="#75534e" d="m183.5 367.059 44.297-7.141L182.953 384Zm0 0"/><path fill="#da7951" d="m180.016 326.48 5.789-15.109 14.3 7.54Zm0 0"/><path fill="#72504c" d="m65.164 384 35.828-37.781L121.77 384Zm0 0"/><path fill="#72504c" d="m62.957 326.184 38.035 20.035L65.164 384Zm0 0"/><path fill="#73514c" d="m100.992 346.219-38.035-20.035 33.121-23.473Zm0 0"/><path fill="#714f4b" d="M140.676 354.293 182.953 384H121.77Zm0 0"/><path fill="#74524d" d="M62.957 326.184 65.164 384l-33.207-42.367Zm0 0"/><path fill="#75534e" d="M31.957 341.633 65.164 384H0Zm0 0"/><path fill="#74524d" d="m32.14 304.496 30.817 21.688-31 15.449Zm0 0"/><path fill="#76544e" d="m62.957 326.184-30.816-21.688 30.32-13.695Zm0 0"/><path fill="#75534e" d="m32.14 304.496 6.587-48.824L62.46 290.8Zm0 0"/><path fill="#7b5852" d="m316.152 241.137 27.559 35.308-25.805 15.91Zm0 0"/><path fill="#7d5953" d="m343.71 276.445-27.558-35.308 39.43 4.668Zm0 0"/><path fill="#7c5852" d="m384 280.305-40.29-3.86 11.872-30.64Zm0 0"/><path fill="#7b5751" d="m238.145 204.707 41.28-3.195-15.827 39.472Zm0 0"/><path fill="#7a5751" d="m230.766 231.438 7.379-26.731 25.453 36.277Zm0 0"/><path fill="#7a5751" d="m230.766 231.438 32.832 9.546-38.676 17.512Zm0 0"/><path fill="#7c5852" d="m261.285 179.48 23.711-14.59-5.57 36.622Zm0 0"/><path fill="#7d5953" d="m349.984 205.336-30.671-18.582 30.449-25.988Zm0 0"/><path fill="#7c5953" d="m319.313 186.754-7.344-45.816 37.793 19.828Zm0 0"/><path fill="#7b5852" d="m279.426 201.512 39.887-14.758-3.16 54.383Zm0 0"/><path fill="#7e5a53" d="m319.313 186.754 30.671 18.582-33.832 35.8Zm0 0"/><path fill="#795650" d="M350.133 310.566 384 280.305v51.273Zm0 0"/><path fill="#78554f" d="m265.73 351.723 28.786-8.086L311.606 384Zm0 0"/><path fill="#77544f" d="m246.543 384 19.187-32.277L311.605 384Zm0 0"/><path fill="#78554f" d="m265.73 351.723 15.614-39.286 13.172 31.2Zm0 0"/><path fill="#72504c" d="m128.879 299.895-32.8 2.816 19.066-50.941Zm0 0"/><path fill="#ce724e" d="m181.875 263.273 18.21 1.352-6.694 14.512Zm0 0"/><path fill="#76544f" d="M0 88.293V48.512l40.313 21.11Zm0 0"/><path fill="#74524d" d="M0 48.512 33.266 30.46l7.047 39.16Zm0 0"/><path fill="#74524d" d="M33.266 30.46 0 48.513-.004.008Zm0 0"/><path fill="#75534e" d="M54.64-.004 33.267 30.461-.004.008Zm0 0"/><path fill="#76534e" d="m40.313 69.621-9.215 39.75L0 88.293Zm0 0"/><path fill="#75534e" d="m38.727 255.672 41.902-2.473-18.168 37.602Zm0 0"/><path fill="#72514c" d="m80.629 253.2 15.45 49.51L62.46 290.8Zm0 0"/><path fill="#76534e" d="m62.316 108.004-31.218 1.367 9.215-39.75Zm0 0"/><path fill="#71504b" d="M119.434 117.898 106.262 143.5l-11.649-31.086Zm0 0"/><path fill="#73514c" d="m106.262 143.5-34.133 1.445 22.484-32.53Zm0 0"/><path fill="#77544f" d="m35.867 165.465 30.488 22.496-32.707 22.41Zm0 0"/><path fill="#76544f" d="m72.129 144.945-36.262 20.52 6.465-34.074Zm0 0"/><path fill="#74524d" d="m200.27 34.21-1.235-16.175 13.66 6Zm0 0"/><path fill="#73514c" d="M199.035 18.035 217.438 0l-4.743 24.035Zm0 0"/><path fill="#72504c" d="m169.66 0 29.375 18.035-14.242 7.434Zm0 0"/><path fill="#73514c" d="M199.035 18.035 169.66 0h47.778Zm0 0"/><path fill="#7b5852" d="m349.762 160.766-37.793-19.828 34.648-37.801Zm0 0"/><path fill="#7c5953" d="m384 126.863-34.238 33.903-3.145-57.63Zm0 0"/><path fill="#f6c5b4" d="m189.254 53.383 10.36-8.621 5.144 10.207Zm0 0"/><path fill="#71504b" d="m117.328 49.883 32.602 1.586-9.047 18.73Zm0 0"/><path fill="#f6c5b4" d="m199.223 67.82-9.97-14.437 15.505 1.586ZM205.113 86.297l7.914 6.426-11.464 5.125Zm0 0"/><path fill="#4f3130" d="m239.5 147.672-4.055-6.488 16.035-1.356Zm0 0"/><path fill="#7c5852" d="m278.926 127.648-26.113-14.628 13.878-25.336Zm0 0"/><path fill="#7c5953" d="m237.8 131.422-11.202-9.926 26.214-8.476Zm0 0"/><path fill="#7b5751" d="m266.691 87.684-27.273 5.629-4.773-11.57Zm0 0"/><path fill="#785550" d="m252.813 113.02-13.395-19.707 27.273-5.63Zm0 0"/><path fill="#4c2f2d" d="m230.348 88.176-4.52-3.371 8.817-3.063Zm0 0"/><path fill="#4b2e2c" d="m239.418 93.313-9.07-5.137 4.297-6.434Zm0 0"/><path fill="#714f4a" d="M127.086 149.367 120 165.2 106.262 143.5ZM133.281 156.234 120 165.2l7.086-15.832Zm0 0"/><path fill="#704e4a" d="m126.266 132.5.82 16.867-20.824-5.867Zm0 0"/><path fill="#6f4e49" d="m126.266 132.5-20.004 11 13.172-25.602Zm0 0"/><path fill="#654441" d="m127.086 149.367-.82-16.867 12.195 1.488Zm0 0"/><path fill="#d9ab9d" d="m156.54 132.727-11.2 13.878-6.88-12.617Zm0 0"/><path fill="#72504c" d="M124.434 84.488 140.883 70.2l16.012 15.864Zm0 0"/><path fill="#694844" d="m135.996 124.945-9.73 7.555-6.832-14.602Zm0 0"/><path fill="#674743" d="m126.266 132.5 9.73-7.555 2.465 9.043Zm0 0"/><path fill="#775550" d="m66.355 187.96-30.488-22.495 36.262-20.52Zm0 0"/><path fill="#a15a42" d="m189.563 206.719-17.004-.735 7.78-18.129Zm0 0"/><path fill="#f6c5b4" d="m156.98 163.184 8.2-7.38 2.504 10.423Zm0 0"/><path fill="#4d2e2c" d="m162.816 171.285-5.836-8.101 10.704 3.043Zm0 0"/><path fill="#6f4d49" d="m135.098 169.922-6.696 19.504L120 165.199Zm0 0"/><path fill="#6f4e49" d="m160.82 232.535.36 12.117-16.973-4.382Zm0 0"/><path fill="#795651" d="m234.969 68.55 31.722 19.134-32.046-5.942Zm0 0"/><path fill="#72514c" d="M72.926 37.957 54.64-.003l56.761.007Zm0 0"/><path fill="#74524d" d="m54.64-.004 18.286 37.961-39.66-7.496Zm0 0"/><path fill="#4a2d2c" d="m222.61 178.996-17.18 5.106 6.718-10.63Zm0 0"/><path fill="#7c5751" d="m243.402 178.758 17.883.722-23.14 25.227Zm0 0"/><path fill="#6d3f34" d="m184.637 177.29 10.34 12.519-14.637-1.954Zm0 0"/><path fill="#4a2d2c" d="m227.137 162.816 5.66 1.985-4.984 4.887Zm0 0"/><path fill="#f4c3b3" d="m227.137 162.816 12.363-15.144-6.703 17.129Zm0 0"/><path fill="#7e5a53" d="m260.566 155.852-9.086-16.024 27.446-12.18Zm0 0"/><path fill="#77544f" d="m244.254 150.754-4.754-3.082 11.98-7.844Zm0 0"/><path fill="#f4c3b2" d="m239.5 147.672 4.754 3.082-11.457 14.047Zm0 0"/><path fill="#4b2e2c" d="m260.566 155.852-16.312-5.098 7.226-10.926Zm0 0"/><path fill="#4d2f2e" d="m251.48 139.828-16.035 1.356 2.356-9.762Zm0 0"/><path fill="#4a2d2c" d="m232.797 164.8 10.605 13.958-15.59-9.07Zm0 0"/><path fill="#4a2d2c" d="m248.793 162.887-5.39 15.87-10.606-13.956Zm0 0"/><path fill="#73514c" d="m140.676 354.293 42.824 12.766-.547 16.941Zm0 0"/><path fill="#74524d" d="m0 325.355 31.957 16.278L0 384Zm0 0"/><path fill="#795651" d="m350.133 310.566-6.422-34.12L384 280.304Zm0 0"/><path fill="#7a5751" d="m343.71 276.445 6.423 34.121-32.227-18.21Zm0 0"/><path fill="#7b5752" d="m350.133 310.566-31.649 20.684-.578-38.895Zm0 0"/><path fill="#7c5953" d="m284.996 164.89-24.43-9.038 18.36-28.204Zm0 0"/><path fill="#7d5952" d="m261.285 179.48-.719-23.628 24.43 9.039Zm0 0"/><path fill="#7a5752" d="m319.313 186.754-34.317-21.863 26.973-23.953Zm0 0"/><path fill="#795650" d="m284.996 164.89 34.317 21.864-39.887 14.758Zm0 0"/><path fill="#7a5751" d="m284.996 164.89-6.07-37.242 33.043 13.29Zm0 0"/><path fill="#785550" d="M349.367 347.316 384 331.578V384Zm0 0"/><path fill="#76534e" d="M227.797 359.918 246.543 384h-63.59Zm0 0"/><path fill="#6e4d48" d="m175.785 308.297-24.648 14.43 4.133-23.993Zm0 0"/><path fill="#dc7c55" d="m175.785 308.297 10.02 3.074-5.79 15.11Zm0 0"/><path fill="#71504b" d="m166.152 344.734 18.32 6.204-.972 16.12Zm0 0"/><path fill="#704f4a" d="M166.152 344.734 183.5 367.06l-42.824-12.766Zm0 0"/><path fill="#6e4d49" d="m151.137 322.727 15.015 22.007-25.476 9.559Zm0 0"/><path fill="#704f4a" d="m151.137 322.727-22.258-22.832 26.39-1.16Zm0 0"/><path fill="#72504b" d="m128.879 299.895 22.258 22.832-27.918 2.636Zm0 0"/><path fill="#72504b" d="m128.879 299.895-5.66 25.468-27.14-22.652Zm0 0"/><path fill="#6e4d48" d="m155.27 298.734-9.102-31.433 25.965 22.832Zm0 0"/><path fill="#704f4a" d="m128.879 299.895 17.289-32.594 9.102 31.433Zm0 0"/><path fill="#71504b" d="m146.168 267.3-17.29 32.595-13.733-48.125Zm0 0"/><path fill="#714f4b" d="m146.168 267.3-31.023-15.53 29.062-11.5Zm0 0"/><path fill="#6f4e49" d="M172.133 290.133 146.168 267.3l20.371-3.34Zm0 0"/><path fill="#72504c" d="m161.18 244.652-15.012 22.649-1.961-27.031Zm0 0"/><path fill="#72504b" d="m146.168 267.3 15.012-22.648 5.36 19.309Zm0 0"/><path fill="#56332f" d="m189.395 244.36 4.89-10.618 13.504 8.442Zm0 0"/><path fill="#b26446" d="m200.086 264.625-10.691-20.266 18.394-2.175Zm0 0"/><path fill="#9d5941" d="m189.395 244.36 10.69 20.265-18.21-1.352Zm0 0"/><path fill="#5b3630" d="m224.922 258.496-24.836 6.129 7.703-22.441Zm0 0"/><path fill="#da7951" d="m185.805 311.371 8.425-6.707 5.875 14.246Zm0 0"/><path fill="#b16346" d="m194.23 304.664-6.105-12.988 12.785 2.133Zm0 0"/><path fill="#775550" d="m227.797 359.918-19.55-22.926 30.839-14.879Zm0 0"/><path fill="#77544f" d="m227.797 359.918 11.289-37.805 26.644 29.61Zm0 0"/><path fill="#a35b42" d="m200.086 264.625 15.871 27.082-22.566-12.57Zm0 0"/><path fill="#4c2e2c" d="m224.922 258.496-8.965 33.211-15.871-27.082Zm0 0"/><path fill="#9f5a42" d="m193.39 279.137 22.567 12.57-15.047 2.102Zm0 0"/><path fill="#d3754f" d="m188.125 291.676 5.266-12.54 7.52 14.673Zm0 0"/><path fill="#dc7a51" d="m177.813 278.266 15.578.87-5.266 12.54Zm0 0"/><path fill="#dd7b52" d="m175.785 308.297 6.668-6.055 3.352 9.13Zm0 0"/><path fill="#dc7a51" d="m182.453 302.242 11.777 2.422-8.425 6.707Zm0 0"/><path fill="#db7951" d="m194.23 304.664-11.777-2.422 5.672-10.566Zm0 0"/><path fill="#785550" d="m215.957 291.707 34.711-9.352-11.582 39.758Zm0 0"/><path fill="#77544f" d="m239.086 322.113 11.582-39.758 30.676 30.082Zm0 0"/><path fill="#77544f" d="m281.344 312.438-30.676-30.083 35.594-7.328Zm0 0"/><path fill="#6f4e4a" d="m166.5 52.258-4.809-21.485 15.66 8.676Zm0 0"/><path fill="#6f4d49" d="m161.691 30.773 4.809 21.485-16.57-.79Zm0 0"/><path fill="#714f4b" d="m149.93 51.469 16.57.789-4.066 5.937Zm0 0"/><path fill="#75534e" d="m63.309 222.453-24.582 33.219-5.079-45.3ZM80.629 253.2l-41.902 2.472 24.582-33.219Zm0 0"/><path fill="#73514c" d="m106.262 143.5-6.504 29.86-27.63-28.415Zm0 0"/><path fill="#74524d" d="m99.758 173.36-33.403 14.6 5.774-43.015Zm0 0"/><path fill="#73514d" d="m184.793 25.469 14.242-7.434 1.235 16.176Zm0 0"/><path fill="#714f4b" d="m161.691 30.773 23.102-5.304-7.441 13.98Zm0 0"/><path fill="#74524d" d="m215.063 34.645-5.184 7.156-9.61-7.59Zm0 0"/><path fill="#e7b8a9" d="m209.879 41.8-10.266 2.962.657-10.551Zm0 0"/><path fill="#75534e" d="m209.879 41.8 5.184-7.155 6.023 11.69Zm0 0"/><path fill="#f5c4b3" d="M199.613 44.762 209.88 41.8l-5.121 13.168Zm0 0"/><path fill="#74524d" d="m157.078 64.2-7.148-12.731 12.504 6.726Zm0 0"/><path fill="#72504b" d="m140.883 70.2 16.195-6 1.121 14.734Zm0 0"/><path fill="#73514d" d="m149.93 51.469 7.148 12.73-16.195 6Zm0 0"/><path fill="#f6c5b4" d="m176.762 101.23-18.192-2.226 5.293-9.934Zm0 0"/><path fill="#b6674a" d="m176.707 81.313 19.148 8.523-19.093 11.394Zm0 0"/><path fill="#b58b80" d="m226.598 121.496 1.968-14.637 24.246 6.16Zm0 0"/><path fill="#d0a396" d="m230.348 88.176-4.211 4.094-.309-7.465Zm0 0"/><path fill="#f6c5b4" d="m213.027 92.723.602 13.23-12.066-8.105Zm0 0"/><path fill="#6f4e49" d="m133.281 156.234.297 7.965-13.578 1Zm0 0"/><path fill="#6d4c48" d="m133.578 164.2 1.52 5.722L120 165.199Zm0 0"/><path fill="#6f4e49" d="m135.098 169.922-1.52-5.723 11.695-.387Zm0 0"/><path fill="#c09182" d="m164.02 146.375-18.68.23 11.2-13.878Zm0 0"/><path fill="#f6c5b4" d="m158.57 99.004-5.187-8.254 10.48-1.68Zm0 0"/><path fill="#f5c4b3" d="m163.863 89.07-10.48 1.68 3.512-4.687Zm0 0"/><path fill="#f6c5b4" d="m153.383 90.75 5.187 8.254-17.433.555Zm0 0"/><path fill="#6f4e49" d="m153.383 90.75-28.95-6.262 32.462 1.575Zm0 0"/><path fill="#6c4b47" d="m124.434 84.488 28.949 6.262-12.246 8.809Zm0 0"/><path fill="#6d4c47" d="m119.434 117.898 5-33.41 16.703 15.07Zm0 0"/><path fill="#6d4c48" d="m135.996 124.945-16.562-7.047 21.703-18.34Zm0 0"/><path fill="#73514c" d="m124.434 84.488-5 33.41-24.82-5.484Zm0 0"/><path fill="#c46d4b" d="m165.371 183.945 19.266-6.656-4.297 10.566Zm0 0"/><path fill="#6d4c47" d="m145.574 172.77-17.172 16.656 6.696-19.504Zm0 0"/><path fill="#6e4d48" d="m145.574 172.77-10.476-2.848 10.175-6.11Zm0 0"/><path fill="#d67953" d="m165.371 183.945-19.797-11.175 17.242-1.485Zm0 0"/><path fill="#4a2d2c" d="m156.98 163.184-11.406 9.586-.3-8.958Zm0 0"/><path fill="#4d2f2d" d="m145.574 172.77 11.406-9.586 5.836 8.101Zm0 0"/><path fill="#6e4d49" d="m128.402 189.426 17.172-16.656 2.473 13.242Zm0 0"/><path fill="#e7997b" d="m145.574 172.77 19.797 11.175-17.324 2.067Zm0 0"/><path fill="#4a2d2c" d="m215.71 221.277 22.435-16.57-7.38 26.73Zm0 0"/><path fill="#704f4a" d="m141.332 226.59 16.434-3.395-13.559 17.075ZM157.766 223.195l3.054 9.34-16.613 7.735Zm0 0"/><path fill="#5c3630" d="m207.79 242.184-13.505-8.442 3.356-9.09Zm0 0"/><path fill="#db7951" d="m189.563 206.719-8.918 19.207-8.086-19.942Zm0 0"/><path fill="#714f4b" d="m152.172 200.773-7.766 5.778-16.004-17.125Zm0 0"/><path fill="#704f4a" d="m128.402 189.426 16.004 17.125-10.707 11.418Zm0 0"/><path fill="#6e4d48" d="m148.047 186.012 4.125 14.761-23.77-11.347Zm0 0"/><path fill="#f6c5b4" d="m217.824 64.664-18.601 3.156 5.535-12.851Zm0 0"/><path fill="#8c6760" d="M217.824 64.664 206.31 78.04l-7.086-10.219Zm0 0"/><path fill="#ca704c" d="m194.977 189.809-5.415 16.91-9.222-18.864Zm0 0"/><path fill="#56332f" d="m194.977 189.809 10.89 14.23-16.304 2.68Zm0 0"/><path fill="#4a2d2c" d="m205.43 184.102 17.18-5.106 15.535 25.711ZM205.43 184.102l.785-15.04 5.933 4.41Zm0 0"/><path fill="#4b2d2c" d="m186.516 160.852 8.07 5.847-11.176.43Zm0 0"/><path fill="#4a2d2c" d="m194.586 166.7-9.95 10.59-1.226-10.161Zm0 0"/><path fill="#7c5953" d="m244.254 150.754 4.539 12.133-15.996 1.914Zm0 0"/><path fill="#4b2e2d" d="m248.793 162.887-4.54-12.133 16.313 5.098Zm0 0"/><path fill="#553734" d="m252.813 113.02-1.333 26.808-13.68-8.406Zm0 0"/><path fill="#7b5852" d="m251.48 139.828 1.333-26.808 26.113 14.628Zm0 0"/><path fill="#db7951" d="m192.09 335.508-12.074-9.028 20.09-7.57Zm0 0"/><path fill="#76544f" d="m183.5 367.059 19.488-14.836 24.809 7.695Zm0 0"/><path fill="#76544e" d="m184.473 350.938 18.515 1.285-19.488 14.836Zm0 0"/><path fill="#7d5851" d="m248.793 162.887 12.492 16.593-17.883-.722Zm0 0"/><path fill="#7c5852" d="m248.793 162.887 11.773-7.035.72 23.628Zm0 0"/><path fill="#785550" d="m384 331.578-34.633 15.738.766-36.75ZM311.605 384l37.762-36.684L384 384Zm0 0"/><path fill="#6e4d49" d="m170.875 329.133 4.91-20.836 4.23 18.183Zm0 0"/><path fill="#6f4e49" d="m175.785 308.297-4.91 20.836-19.738-6.406Zm0 0"/><path fill="#6c4b47" d="m170.875 329.133-4.723 15.601-15.015-22.007Zm0 0"/><path fill="#795651" d="m215.957 291.707 8.965-33.21 25.746 23.858Zm0 0"/><path fill="#f4bfac" d="m177.813 278.266-5.68 11.867-5.594-26.172Zm0 0"/><path fill="#f4c0ad" d="m181.875 263.273-4.062 14.993-11.274-14.305Zm0 0"/><path fill="#dc7a52" d="m177.813 278.266 4.062-14.993 11.516 15.864Zm0 0"/><path fill="#e18863" d="m172.133 290.133 5.68-11.867 10.312 13.41Zm0 0"/><path fill="#795651" d="m208.246 336.992 3.629-25.469 27.21 10.59Zm0 0"/><path fill="#775550" d="m211.875 311.523 4.082-19.816 23.129 30.406Zm0 0"/><path fill="#f6c5b4" d="m173.734 57.344-7.234-5.086 10.852-12.809Zm0 0"/><path fill="#f6c5b4" d="m166.5 52.258 7.234 5.086-11.3.851ZM189.254 53.383l-15.52 3.96 3.618-17.894Zm0 0"/><path fill="#73514c" d="m120 165.2-20.242 8.16 6.504-29.86Zm0 0"/><path fill="#f4c4b3" d="m199.613 44.762-8.05-7.297 8.707-3.254Zm0 0"/><path fill="#73514c" d="m191.563 37.465-6.77-11.996 15.477 8.742Zm0 0"/><path fill="#f6c5b4" d="m189.254 53.383 2.309-15.918 8.05 7.297ZM191.563 37.465l-2.31 15.918-11.901-13.934Zm0 0"/><path fill="#704f4a" d="m184.793 25.469 6.77 11.996-14.211 1.984Zm0 0"/><path fill="#d6a89a" d="m226.715 51.133-9.574.18 3.945-4.977Zm0 0"/><path fill="#e9b9aa" d="M217.14 51.313 209.88 41.8l11.207 4.535Zm0 0"/><path fill="#f6c5b4" d="m209.879 41.8 7.262 9.513-12.383 3.656Zm0 0"/><path fill="#f6c5b4" d="m217.14 51.313.684 13.351-13.066-9.695Zm0 0"/><path fill="#d6a99b" d="m217.824 64.664-.683-13.352 9.574-.18Zm0 0"/><path fill="#f6c5b4" d="m199.223 67.82-15.57.274 5.6-14.711Zm0 0"/><path fill="#f6c5b4" d="m183.652 68.094-9.918-10.75 15.52-3.961Zm0 0"/><path fill="#f6c5b4" d="M173.734 57.344 167.785 68.5l-5.351-10.305ZM157.078 64.2l10.707 4.3-9.586 10.434Zm0 0"/><path fill="#f6c5b4" d="m167.785 68.5-10.707-4.3 5.356-6.005ZM167.785 68.5l15.867-.406-6.945 13.219Zm0 0"/><path fill="#f6c5b4" d="m183.652 68.094-15.867.406 5.95-11.156ZM171.77 131.512l4.992-30.282 12.914 22.09ZM150.691 117.152l-14.695 7.793 5.14-25.386ZM158.57 99.004l-7.879 18.148-9.554-17.593ZM176.762 101.23l-26.07 15.922 7.878-18.148Zm0 0"/><path fill="#f1c1b0" d="m135.996 124.945 14.695-7.793-12.23 16.836Zm0 0"/><path fill="#bd6c4c" d="m196.723 78.668-.868 11.168-19.148-8.523Zm0 0"/><path fill="#ebb8a7" d="m183.652 68.094 13.07 10.574-20.015 2.644Zm0 0"/><path fill="#53322e" d="m196.723 78.668 8.39 7.629-9.258 3.539Zm0 0"/><path fill="#4a2d2c" d="m196.723 78.668 9.586-.629-1.196 8.258Zm0 0"/><path fill="#5b3c39" d="m206.309 78.04-9.586.628 2.5-10.848Zm0 0"/><path fill="#f6c5b4" d="m196.723 78.668-13.07-10.574 15.57-.274ZM198.578 110.05l15.05-4.097-9.503 14.637Zm0 0"/><path fill="#f6c5b4" d="m213.629 105.953-15.05 4.098 2.983-12.203Zm0 0"/><path fill="#f6c5b4" d="m201.563 97.848-24.801 3.382 19.093-11.394ZM201.563 97.848l-2.985 12.203-21.816-8.82Zm0 0"/><path fill="#f5c4b4" d="m186.516 160.852 9.468-1.63-1.398 7.477Zm0 0"/><path fill="#503230" d="m223.04 150.758 12.405-9.574 4.055 6.488Zm0 0"/><path fill="#f6c5b4" d="m227.137 162.816-4.098-12.058 16.461-3.086Zm0 0"/><path fill="#e2b3a4" d="m228.566 106.86 10.852-13.547 13.394 19.707Zm0 0"/><path fill="#8c6860" d="m239.418 93.313-10.852 13.546-2.718-7.195Zm0 0"/><path fill="#b38a7f" d="m239.418 93.313-13.281-1.043 4.21-4.094Zm0 0"/><path fill="#aa8278" d="m226.137 92.27 13.281 1.043-13.57 6.351Zm0 0"/><path fill="#f6c5b4" d="m220.453 118.133 8.113-11.274-1.968 14.637ZM220.617 95.64l5.52-3.37-.29 7.394ZM220.617 95.64l-6.988 10.313-.602-13.23ZM152.684 155.363l11.336-8.988 1.16 9.43ZM152.684 155.363l4.296 7.82-11.707.63Zm0 0"/><path fill="#f6c5b4" d="m156.98 163.184-4.296-7.82 12.496.44Zm0 0"/><path fill="#f5c4b3" d="m142.047 157.727-8.469 6.472-.297-7.965Zm0 0"/><path fill="#edbdad" d="m133.578 164.2 8.469-6.473 3.226 6.085Zm0 0"/><path fill="#f6c5b4" d="m142.047 157.727 10.637-2.364-7.41 8.45Zm0 0"/><path fill="#ad7c6e" d="m171.77 131.512-7.75 14.863-7.48-13.648Zm0 0"/><path fill="#b66547" d="m165.371 183.945 5.941-11.238 13.325 4.582Zm0 0"/><path fill="#7b4738" d="m171.313 172.707-5.942 11.238-2.555-12.66Zm0 0"/><path fill="#4b2d2c" d="m167.684 166.227 3.629 6.48-8.497-1.422Zm0 0"/><path fill="#ab6045" d="m215.71 221.277-7.92 20.907-10.15-17.532Zm0 0"/><path fill="#53322e" d="m207.79 242.184 7.92-20.907 15.056 10.16Zm0 0"/><path fill="#4c2e2c" d="m224.922 258.496-17.133-16.312 22.977-10.746Zm0 0"/><path fill="#8c503d" d="m180.645 225.926 8.917-19.207 8.079 17.933Zm0 0"/><path fill="#ce724d" d="m194.285 233.742-13.64-7.816 16.996-1.274Zm0 0"/><path fill="#dd7a51" d="m180.645 225.926-13.829-5.469 5.743-14.473Zm0 0"/><path fill="#f6c5b4" d="m176.5 147.004-12.48-.629 7.75-14.863Zm0 0"/><path fill="#c37b61" d="m164.02 146.375 12.48.629-1.367 3Zm0 0"/><path fill="#f4c4b3" d="m176.5 147.004-4.73-15.492 14.921 13.312Zm0 0"/><path fill="#a25b42" d="m182.434 153.195-5.934-6.191 10.191-2.18Zm0 0"/><path fill="#b5735b" d="m176.5 147.004 5.934 6.191-7.301-3.191Zm0 0"/><path fill="#4a2d2c" d="m206.215 169.063-.785 15.039-10.844-17.403ZM205.43 184.102l-20.793-6.813 9.949-10.59Zm0 0"/><path fill="#4c2e2c" d="m184.637 177.29 20.793 6.812-10.453 5.707Zm0 0"/><path fill="#a65d44" d="m208.246 336.992-16.156-1.484 8.015-16.598Zm0 0"/><path fill="#d0734e" d="m197.64 224.652-8.077-17.933 16.304-2.68Zm0 0"/><path fill="#795650" d="M349.367 347.316 311.605 384l6.88-52.75Zm0 0"/><path fill="#795650" d="m349.367 347.316-30.883-16.066 31.649-20.684Zm0 0"/><path fill="#6e4d49" d="m170.875 329.133 10.34 6.812-15.063 8.79Zm0 0"/><path fill="#6f4d49" d="m166.152 344.734 15.063-8.789 3.258 14.993Zm0 0"/><path fill="#dd7b53" d="m192.09 335.508-10.875.437-1.2-9.465Zm0 0"/><path fill="#6e4c48" d="m181.215 335.945-10.34-6.812 9.14-2.653Zm0 0"/><path fill="#dd7b52" d="m182.453 302.242-10.32-12.11 15.992 1.544Zm0 0"/><path fill="#6e4d49" d="m172.133 290.133 3.652 18.164-20.515-9.563Zm0 0"/><path fill="#df8560" d="m172.133 290.133 10.32 12.11-6.668 6.054Zm0 0"/><path fill="#4f2f2d" d="m211.875 311.523-3.629 25.47-8.14-18.083Zm0 0"/><path fill="#56332f" d="m194.23 304.664 17.645 6.86-11.77 7.386Zm0 0"/><path fill="#ab6045" d="m211.875 311.523-17.645-6.859 6.68-10.855Zm0 0"/><path fill="#50302d" d="m215.957 291.707-4.082 19.816-10.965-17.714Zm0 0"/><path fill="#704e4a" d="m120 165.2 8.402 24.226-28.644-16.067Zm0 0"/><path fill="#f5c5b4" d="m176.707 81.313-12.844 7.757-5.664-10.136Zm0 0"/><path fill="#f5c4b3" d="m167.785 68.5 8.922 12.813-18.508-2.38Zm0 0"/><path fill="#ac715e" d="m163.863 89.07 12.844-7.757.055 19.917Zm0 0"/><path fill="#523432" d="M217.824 64.664 216.812 82.5l-10.503-4.46Zm0 0"/><path fill="#4c2f2d" d="m216.813 82.5-11.7 3.797 1.196-8.258Zm0 0"/><path fill="#4a2d2c" d="m225.469 77.691-8.656 4.809 1.011-17.836Zm0 0"/><path fill="#f6c5b4" d="m205.113 86.297 11.7-3.797-3.786 10.223ZM226.598 121.496l-12.63 9.313 6.485-12.676Zm0 0"/><path fill="#533533" d="m205.629 138.992-7.899-5.82 7.024-2.016Zm0 0"/><path fill="#583937" d="m197.73 133.172 7.899 5.82-8.805 6.781Zm0 0"/><path fill="#f5c4b3" d="m197.73 133.172-6.359 2.84-1.695-12.692Zm0 0"/><path fill="#c49486" d="m171.77 131.512 19.601 4.5-4.68 8.812Zm0 0"/><path fill="#b17f70" d="m186.691 144.824 4.68-8.812 5.453 9.761Zm0 0"/><path fill="#7a564f" d="m191.371 136.012 6.36-2.84-.907 12.601Zm0 0"/><path fill="#f4c3b2" d="m191.371 136.012-19.601-4.5 17.906-8.192Zm0 0"/><path fill="#f6c5b4" d="m198.578 110.05 5.547 10.54-14.45 2.73Zm0 0"/><path fill="#ac847a" d="m213.969 130.809-9.844-10.22 16.328-2.456Zm0 0"/><path fill="#b98f83" d="m223.04 150.758-8.313 4.414-3.993-13.879Zm0 0"/><path fill="#f2c1b1" d="m213.629 105.953 6.824 12.18-16.328 2.457Zm0 0"/><path fill="#f6c5b4" d="m213.629 105.953 6.988-10.312 5.23 4.023Zm0 0"/><path fill="#f4c3b2" d="m228.566 106.86-14.937-.907 12.219-6.289Zm0 0"/><path fill="#daad9e" d="m220.453 118.133-6.824-12.18 14.937.906Zm0 0"/><path fill="#f6c5b4" d="m220.586 89.828.031 5.813-7.59-2.918Zm0 0"/><path fill="#f6c5b4" d="m220.617 95.64-.031-5.812 5.55 2.442ZM226.137 92.27l-5.551-2.442 5.242-5.023ZM216.813 82.5l3.773 7.328-7.559 2.895ZM152.684 155.363l-7.344-8.758 18.68-.23ZM142.047 157.727l3.293-11.122 7.344 8.758ZM145.34 146.605l-3.293 11.122-8.766-1.493ZM145.34 146.605l-18.254 2.762 11.375-15.379Zm0 0"/><path fill="#b48a80" d="m145.34 146.605-12.059 9.63-6.195-6.868Zm0 0"/><path fill="#f5c4b3" d="m150.691 117.152 5.848 15.575-18.078 1.261Zm0 0"/><path fill="#f6c5b4" d="m156.54 132.727-5.849-15.575 26.07-15.922Zm0 0"/><path fill="#be8d7e" d="m171.77 131.512-15.23 1.215 20.222-31.497Zm0 0"/><path fill="#4a2d2c" d="m176.184 168.582-4.871 4.125-3.63-6.48ZM184.637 177.29l-8.453-8.708 7.226-1.453Zm0 0"/><path fill="#4a2d2c" d="m171.313 172.707 4.87-4.125 8.454 8.707Zm0 0"/><path fill="#52312e" d="m215.71 221.277-18.07 3.375 8.227-20.613Zm0 0"/><path fill="#4a2d2c" d="m205.867 204.04-.437-19.938 32.715 20.605Zm0 0"/><path fill="#56332f" d="m215.71 221.277-9.843-17.238 32.278.668Zm0 0"/><path fill="#4a2d2c" d="m205.43 184.102.437 19.937-10.89-14.23Zm0 0"/><path fill="#ecae97" d="m157.766 223.195 7.879 4.743-4.825 4.597Zm0 0"/><path fill="#f1baa6" d="m160.82 232.535 12.254 10.442-11.894 1.675Zm0 0"/><path fill="#f3c0ae" d="m165.645 227.938 7.43 15.039-12.255-10.442Zm0 0"/><path fill="#ebb8a7" d="m160.203 210.016-7.973 2.82-.058-12.063Zm0 0"/><path fill="#d9ab9c" d="m152.23 212.836 7.973-2.82-2.437 13.18Zm0 0"/><path fill="#71504b" d="m152.23 212.836 5.536 10.36-16.434 3.394Zm0 0"/><path fill="#714f4b" d="m152.23 212.836-10.898 13.754-7.633-8.621Zm0 0"/><path fill="#71504b" d="m144.406 206.55 7.824 6.286-18.53 5.133Zm0 0"/><path fill="#6f4e49" d="m152.23 212.836-7.824-6.285 7.766-5.778Zm0 0"/><path fill="#f1b7a3" d="m148.047 186.012 10.586 12.55-6.461 2.211Zm0 0"/><path fill="#edae96" d="m158.633 198.563 1.57 11.453-8.031-9.243Zm0 0"/><path fill="#f3bca8" d="m165.371 183.945-6.738 14.618-10.586-12.551Zm0 0"/><path fill="#de7b52" d="m160.203 210.016-1.57-11.453 13.926 7.421Zm0 0"/><path fill="#f5c1af" d="m166.816 220.457-6.613-10.441 12.356-4.032Zm0 0"/><path fill="#e69a7c" d="m160.203 210.016 6.613 10.441-9.05 2.738Zm0 0"/><path fill="#f3bca8" d="m166.816 220.457-1.171 7.48-7.88-4.742Zm0 0"/><path fill="#84605a" d="m234.969 68.55-17.145-3.886 8.89-13.531Zm0 0"/><path fill="#4c2f2e" d="m234.969 68.55-9.5 9.141-7.645-13.027Zm0 0"/><path fill="#f6c5b4" d="m192.105 154.047 3.88 5.176-9.47 1.629Zm0 0"/><path fill="#f6c5b4" d="m182.434 153.195 9.671.852-5.59 6.805Zm0 0"/><path fill="#794639" d="m192.105 154.047-9.671-.852 4.257-8.37Zm0 0"/><path fill="#874e3d" d="m192.105 154.047-5.414-9.223 10.133.95Zm0 0"/><path fill="#f6c5b4" d="m164.02 146.375 11.113 3.629-9.953 5.8Zm0 0"/><path fill="#5c3d3a" d="m213.969 130.809-8.34 8.183-.875-7.836Zm0 0"/><path fill="#6f4e49" d="m205.629 138.992 8.34-8.183-3.235 10.484Zm0 0"/><path fill="#f6c5b4" d="m176.762 101.23 21.816 8.82-8.902 13.27Zm0 0"/><path fill="#f4c4b3" d="m204.125 120.59-6.395 12.582-8.054-9.852Zm0 0"/><path fill="#916c64" d="m197.73 133.172 6.395-12.582.629 10.566Zm0 0"/><path fill="#86625b" d="m204.125 120.59 9.844 10.219-9.215.347Zm0 0"/><path fill="#4e302e" d="m214.727 155.172-11.32-3.707 7.327-10.172Zm0 0"/><path fill="#533431" d="m203.406 151.465 2.223-12.473 5.105 2.301Zm0 0"/><path fill="#f6c5b4" d="m192.105 154.047 11.301-2.582-7.422 7.758Zm0 0"/><path fill="#4f302e" d="m205.629 138.992-2.223 12.473-6.582-5.692Zm0 0"/><path fill="#5d3d3a" d="m203.406 151.465-11.3 2.582 4.718-8.274Zm0 0"/><path fill="#4a2d2c" d="m206.215 169.063 8.941-2.16-3.008 6.57ZM222.61 178.996l-7.454-12.094 12.656 2.786Zm0 0"/><path fill="#4a2d2c" d="m215.156 166.902 7.453 12.094-10.46-5.523Zm0 0"/><path fill="#f6c5b4" d="m227.137 162.816-12.41-7.644 8.312-4.414Zm0 0"/><path fill="#f5c4b3" d="m227.137 162.816-11.98 4.086-.43-11.73Zm0 0"/><path fill="#4a2d2c" d="m215.156 166.902 11.98-4.086.677 6.871Zm0 0"/><path fill="#4e2f2d" d="m177.36 159.793-1.176 8.789-8.5-2.355Zm0 0"/><path fill="#f6c5b4" d="m177.36 159.793-9.676 6.434-2.504-10.422Zm0 0"/><path fill="#f6c5b4" d="m175.133 150.004 2.226 9.789-12.18-3.988Zm0 0"/><path fill="#4e2f2d" d="m177.36 159.793 9.156 1.059-3.106 6.277Zm0 0"/><path fill="#4d2e2c" d="m176.184 168.582 1.175-8.789 6.051 7.336Zm0 0"/><path fill="#f6c5b4" d="m177.36 159.793 5.074-6.598 4.082 7.657ZM182.434 153.195l-5.075 6.598-2.226-9.79Zm0 0"/><path fill="#dd7d56" d="m180.645 225.926-15 2.012 1.171-7.481Zm0 0"/><path fill="#e8a083" d="m180.645 225.926-7.57 17.05-7.43-15.038Zm0 0"/><path fill="#4f312f" d="m225.469 77.691 9.5-9.14-.324 13.191Zm0 0"/><path fill="#76544f" d="m227.797 359.918-24.809-7.695 5.258-15.23Zm0 0"/><path fill="#f6c5b4" d="m213.969 130.809 9.52 4.035-12.755 6.449Zm0 0"/><path fill="#503231" d="m223.04 150.758.448-15.914 11.957 6.34Zm0 0"/><path fill="#eebeae" d="m223.488 134.844-.449 15.914-12.305-9.465Zm0 0"/><path fill="#f6c5b4" d="m223.488 134.844-9.52-4.035 12.63-9.313Zm0 0"/><path fill="#f5c4b3" d="m203.406 151.465.922 9.437-8.344-1.68Zm0 0"/><path fill="#af877c" d="m204.328 160.902-.922-9.437 11.32 3.707Zm0 0"/><path fill="#f6c5b4" d="m204.328 160.902 1.887 8.16-11.63-2.363Zm0 0"/><path fill="#f5c4b3" d="m195.984 159.223 8.344 1.68-9.742 5.796Zm0 0"/><path fill="#efbfaf" d="m204.328 160.902 10.828 6-8.941 2.16Zm0 0"/><path fill="#87635c" d="m215.156 166.902-10.828-6 10.399-5.73Zm0 0"/><path fill="#d4754f" d="m189.395 244.36-8.75-18.434 13.64 7.816Zm0 0"/><path fill="#b96748" d="m180.645 225.926 8.75 18.433-16.32-1.382Zm0 0"/><path fill="#dd7a51" d="m172.559 205.984-7.188-22.039 14.969 3.91Zm0 0"/><path fill="#dd7a52" d="m165.371 183.945 7.188 22.04-13.926-7.423Zm0 0"/><path fill="#4d302e" d="m225.828 84.805-.36-7.114 9.177 4.051Zm0 0"/><path fill="#4f3130" d="m225.828 84.805-9.016-2.305 8.657-4.809Zm0 0"/><path fill="#f1c1b0" d="m225.828 84.805-5.242 5.023-3.774-7.328Zm0 0"/><path fill="#553532" d="m202.988 352.223-10.898-16.715 16.156 1.484Zm0 0"/><path fill="#d97951" d="m192.09 335.508 10.898 16.715-18.515-1.286Zm0 0"/><path fill="#e18661" d="m181.215 335.945 10.875-.437-7.617 15.43Zm0 0"/><path fill="#654441" d="m237.8 131.422-14.312 3.422 3.11-13.348Zm0 0"/><path fill="#4d302e" d="m223.488 134.844 14.313-3.422-2.356 9.762Zm0 0"/><path fill="#de8764" d="m173.074 242.977 8.801 20.296-15.336.688Zm0 0"/><path fill="#e69676" d="m173.074 242.977 16.32 1.382-7.519 18.914Zm0 0"/><path fill="#f3bfad" d="m161.18 244.652 11.894-1.675-6.535 20.984Zm0 0"/></svg>