<svg xmlns="http://www.w3.org/2000/svg" width="512" height="512" viewBox="0 0 384 384"><path fill="#e2b5b1" d="m87.281 0 42.2-.008-24.446 36.602Zm0 0"/><path fill="#e79290" d="m0 261.219.004-38.762 31.273 16.684Zm0 0"/><path fill="#e88c8b" d="m109.852 333.91-40.387-25.406 49.844-19.637Zm0 0"/><path fill="#ea7e7e" d="M338.758 227.95 384 210.77l.004 64.394Zm0 0"/><path fill="#e98181" d="m295.352 239.816-2.797-39.05 46.203 27.183Zm0 0"/><path fill="#e98483" d="m295.352 239.816-22.297 30.059-16.793-42.16Zm0 0"/><path fill="#e98383" d="m292.555 200.766 2.797 39.05-39.09-12.101Zm0 0"/><path fill="#ea7a7b" d="m297.227 316.207 47.89-.832-20.398 29.43Zm0 0"/><path fill="#e98282" d="m295.352 239.816 27.722 30.575-50.02-.516Zm0 0"/><path fill="#e98080" d="m323.074 270.39-27.722-30.574 43.406-11.867Zm0 0"/><path fill="#e88b8a" d="m279.844 71.805 27.847 15.468-24.128 21.985Zm0 0"/><path fill="#e88988" d="m283.563 109.258 24.128-21.985 10.43 27.051Zm0 0"/><path fill="#e88786" d="M347.629 86.328 384 62.621l-.004 48.281Zm0 0"/><path fill="#e7908f" d="m84.973 270.316 27.988-19.632 6.348 38.183Zm0 0"/><path fill="#e5a09e" d="m129.48-.008-1.957 39.918-22.488-3.316Zm0 0"/><path fill="#e49f9c" d="m75.379 143.555-11.711-35.223 35.34 8.121Zm0 0"/><path fill="#e69492" d="m36.484 205.422-5.207 33.719L.004 222.457Zm0 0"/><path fill="#e78f8e" d="m72.32 233.02 40.64 17.664-27.987 19.632Zm0 0"/><path fill="#e79190" d="m162.297 248.063-49.336 2.62 44.078-21.07Zm0 0"/><path fill="#e78e8d" d="M115.43 213.383 72.32 233.02l1.399-45.325Zm0 0"/><path fill="#e88d8c" d="m69.465 308.504 15.508-38.188 34.336 18.551Zm0 0"/><path fill="#e88b8a" d="m74.406 350.781-4.941-42.277 40.387 25.406Zm0 0"/><path fill="#e88a89" d="M144.707 353.746 110.965 384l-1.113-50.09Zm0 0"/><path fill="#e88c8b" d="m69.465 308.504 4.941 42.277-34.238-7.71Zm0 0"/><path fill="#ea7e7e" d="M342.926 181.242 384 210.77l-45.242 17.18Zm0 0"/><path fill="#e88786" d="m273.055 269.875-31.2-23.402 14.407-18.758Zm0 0"/><path fill="#e98585" d="m236.156 268.582 5.7-22.11 31.199 23.403Zm0 0"/><path fill="#e88887" d="m252.953 193.035 39.602 7.73-41.598 4.688Zm0 0"/><path fill="#e98282" d="m384 159.668-41.074 21.574 4.52-47.687Zm0 0"/><path fill="#ea7a7b" d="m266.32 384.004 30.203-28.602L326.324 384Zm0 0"/><path fill="#ea7d7d" d="m297.227 316.207-.704 39.195-26.972-10.433Zm0 0"/><path fill="#ea797a" d="m326.324 384-29.8-28.598 28.195-10.597Zm0 0"/><path fill="#ea7a7a" d="m296.523 355.402.704-39.195 27.492 28.598Zm0 0"/><path fill="#e88d8c" d="m109.852 333.91 35.113-16.433-.258 36.27Zm0 0"/><path fill="#e98483" d="m273.055 269.875-36.227 19.164-.672-20.457Zm0 0"/><path fill="#e98584" d="m236.828 289.04-16.746-11.298 16.074-9.16Zm0 0"/><path fill="#eb7777" d="m323.074 270.39-25.847 45.817-24.172-46.332Zm0 0"/><path fill="#e69795" d="M159.008 26.61 183.727-.005l1.46 23.176Zm0 0"/><path fill="#e2b5b1" d="M65.074 35.066 43.445 63.781 32.63 26.754Zm0 0"/><path fill="#e59e9b" d="m-.004 183.016.008-47.66 37.992 27.925Zm0 0"/><path fill="#e4a09d" d="m.004 135.355 40.73-6.917-2.738 34.843Zm0 0"/><path fill="#e4a3a0" d="M31.207 101.488.004 135.355l-.008-45.87Zm0 0"/><path fill="#e39f9d" d="m.004 135.355 31.203-33.867 9.527 26.95Zm0 0"/><path fill="#e7908f" d="M73.719 187.695 72.32 233.02l-35.836-27.598Zm0 0"/><path fill="#e69b99" d="m-.004 183.016 36.488 22.406-36.48 17.035Zm0 0"/><path fill="#e69a98" d="M36.484 205.422-.004 183.016l38-19.735Zm0 0"/><path fill="#e5a09e" d="m37.996 163.281 2.738-34.844 34.645 15.118Zm0 0"/><path fill="#e3a29f" d="m40.734 128.438 22.934-20.106 11.71 35.223Zm0 0"/><path fill="#e69694" d="m204.727 17.7-21-17.704L235.664 0Zm0 0"/><path fill="#e79190" d="m250 63.535 14.328-30.73 15.516 39ZM250 63.535l-19.504-5.754 5.457-10.926Zm0 0"/><path fill="#e79190" d="m250 63.535-14.047-16.68 28.375-14.05Zm0 0"/><path fill="#e79291" d="M235.664 0h73.531l-44.867 32.805Zm0 0"/><path fill="#e78f8e" d="m309.195 0 .63 55.098-45.497-22.293Zm0 0"/><path fill="#e69694" d="m225.543 30.754-20.816-13.055L235.664 0Zm0 0"/><path fill="#e79493" d="M225.543 30.754 235.664 0l28.664 32.805Zm0 0"/><path fill="#e79290" d="m235.953 46.855-10.41-16.101 38.785 2.05Zm0 0"/><path fill="#e88a89" d="m309.824 55.098 35.813-12.864 1.992 44.094Zm0 0"/><path fill="#e78e8d" d="m309.824 55.098-29.98 16.707-15.516-39Zm0 0"/><path fill="#e88c8b" d="m345.637 42.234-35.813 12.864L309.195 0Zm0 0"/><path fill="#e88888" d="M345.637 42.234 384 62.621l-36.371 23.707Zm0 0"/><path fill="#e88b8a" d="M345.637 42.234 309.195 0H384Zm0 0"/><path fill="#e88888" d="m318.121 114.324-10.43-27.05 39.938-.946Zm0 0"/><path fill="#e88988" d="m307.691 87.273 2.133-32.175 37.805 31.23Zm0 0"/><path fill="#e88c8b" d="m309.824 55.098-2.133 32.175-27.847-15.468Zm0 0"/><path fill="#d9efe6" d="m135.715 123.195 19.27 11.164-16.739-.398Zm0 0"/><path fill="#e79291" d="m106.074 173.438 9.356 39.945-41.711-25.688Zm0 0"/><path fill="#e79493" d="m115.43 213.383-9.356-39.946 24.867 11.84Zm0 0"/><path fill="#e39593" d="m230.496 57.781-6.68-8.566 12.137-2.36Zm0 0"/><path fill="#e78e8d" d="m250 63.535-16.418 4.23-3.086-9.984Zm0 0"/><path fill="#e69795" d="m225.543 30.754-24.121 4.715 3.305-17.77Zm0 0"/><path fill="#e79391" d="m223.816 49.215 1.727-18.461 10.41 16.101Zm0 0"/><path fill="#e4a2a0" d="m127.523 39.91-6.671 43.375-15.817-46.691Zm0 0"/><path fill="#e59d9b" d="m120.852 83.285 6.671-43.375 15.165 20.7Zm0 0"/><path fill="#e2b3af" d="M83.953 74.164 65.074 35.066l39.961 1.528Zm0 0"/><path fill="#e2b3af" d="m65.074 35.066 18.88 39.098-40.509-10.383Zm0 0"/><path fill="#e4a6a3" d="m120.852 83.285-36.899-9.12 21.082-37.571Zm0 0"/><path fill="#e5a09d" d="m83.953 74.164 36.899 9.121-21.844 33.168Zm0 0"/><path fill="#e5a09e" d="m63.668 108.332 20.285-34.168 15.055 42.29Zm0 0"/><path fill="#e4aaa7" d="m83.953 74.164-20.285 34.168-20.223-44.55Zm0 0"/><path fill="#e69b99" d="m159.008 26.61-31.485 13.3L129.48-.008ZM183.727-.004l-24.72 26.613L129.48-.008Zm0 0"/><path fill="#e59d9a" d="m127.523 39.91 31.485-13.3-16.32 34Zm0 0"/><path fill="#e1b9b4" d="M32.629 26.754 46.063.004l19.011 35.062Zm0 0"/><path fill="#d13e44" d="m180.328 190.41 6.223-12.95 8.867 14.942Zm0 0"/><path fill="#432433" d="m231.41 184.793-14.469-3.461 10.786-11.344Zm0 0"/><path fill="#412434" d="m216.941 181.332 14.47 3.461-6.282 10.516Zm0 0"/><path fill="#e88888" d="m236.469 212.469 3.758-11.457 10.73 4.441Zm0 0"/><path fill="#e78e8d" d="m0 261.219 44.883 8.437L0 305.32Zm0 0"/><path fill="#e7918f" d="M44.883 269.656 0 261.22l31.277-22.078Zm0 0"/><path fill="#e7908e" d="m115.43 213.383-2.47 37.3-40.64-17.663Zm0 0"/><path fill="#e79391" d="m112.96 250.684 2.47-37.301 41.61 16.23Zm0 0"/><path fill="#e79291" d="m115.43 213.383 39.125-.676 2.484 16.906Zm0 0"/><path fill="#e79492" d="m154.555 212.707-39.125.676 35.707-13.668Zm0 0"/><path fill="#e69593" d="m115.43 213.383 15.511-28.106 20.196 14.438Zm0 0"/><path fill="#f04e52" d="m181.078 329.527-4.894-18.32 22.777 3.356Zm0 0"/><path fill="#e88b8a" d="m110.965 384-36.559-33.219 35.446-16.87Zm0 0"/><path fill="#e88989" d="m47.688 384 26.718-33.219L110.965 384Zm0 0"/><path fill="#e88b8a" d="m144.707 353.746 38.012 30.258-71.754-.004ZM74.406 350.781 47.687 384l-7.519-40.93Zm0 0"/><path fill="#e88d8c" d="M0 359.867 47.688 384H0Zm0 0"/><path fill="#e78e8d" d="M47.688 384 0 359.867l40.168-16.797Zm0 0"/><path fill="#e7908f" d="m0 305.32 44.883-35.664 24.582 38.848Zm0 0"/><path fill="#e78f8e" d="m0 305.32 69.465 3.184-29.297 34.566Zm0 0"/><path fill="#ea7d7d" d="m384.004 275.164-60.93-4.773 15.684-42.442Zm0 0"/><path fill="#e98686" d="m292.555 200.766-36.293 26.949-5.305-22.262Zm0 0"/><path fill="#e88887" d="m256.262 227.715-19.793-15.246 14.488-7.016Zm0 0"/><path fill="#642330" d="m225.73 209.625 5.657 20.887-5.114-.184Zm0 0"/><path fill="#542432" d="m231.387 230.512-5.657-20.887 10.739 2.844Zm0 0"/><path fill="#e88888" d="m256.262 227.715-24.875 2.797 5.082-18.043Zm0 0"/><path fill="#e88887" d="m231.387 230.512 24.875-2.797-14.407 18.758Zm0 0"/><path fill="#e98686" d="m225.902 252.375 15.953-5.902-5.699 22.109Zm0 0"/><path fill="#e88a89" d="m305.734 150.344-22.171-41.086 34.558 5.066Zm0 0"/><path fill="#e88787" d="m305.734 150.344-13.18 50.422-22.144-36.192Zm0 0"/><path fill="#e88b8a" d="m271.207 140.25 34.527 10.094-35.324 14.23Zm0 0"/><path fill="#e88a89" d="m283.563 109.258 22.171 41.086-34.527-10.094Zm0 0"/><path fill="#e98080" d="M342.926 181.242 384 159.668v51.102ZM292.555 200.766l50.37-19.524-4.167 46.707Zm0 0"/><path fill="#eb7778" d="M384.004 275.164 384 333.258l-38.883-17.883Zm0 0"/><path fill="#e98483" d="m238.305 359.29 28.015 24.714H182.72Zm0 0"/><path fill="#ea7e7e" d="m269.55 344.969 26.973 10.433-30.203 28.602Zm0 0"/><path fill="#e98080" d="m238.305 359.29 31.246-14.321-3.23 39.035Zm0 0"/><path fill="#e78e8d" d="m119.309 288.867-6.348-38.183 49.336-2.621Zm0 0"/><path fill="#a62932" d="m183.191 257.125 15.196 1.258-10.375 11.414Zm0 0"/><path fill="#e98080" d="m238.305 359.29 14.765-40.696 16.48 26.375Zm0 0"/><path fill="#ea7f7f" d="m253.07 318.594 44.157-2.387-27.676 28.762Zm0 0"/><path fill="#ea7d7e" d="m297.227 316.207-44.157 2.387 19.985-48.719Zm0 0"/><path fill="#e0b8b3" d="M-.004 89.484 0 43.066l43.445 20.715Zm0 0"/><path fill="#e1bbb6" d="M43.445 63.781 0 43.066l32.629-16.312Zm0 0"/><path fill="#ddc4be" d="M32.629 26.754 0 43.066-.004.004Zm0 0"/><path fill="#e0c1bc" d="m46.063.004-13.434 26.75L-.004.004Zm0 0"/><path fill="#dfb7b2" d="m43.445 63.781-12.238 37.707-31.21-12.004Zm0 0"/><path fill="#e88d8c" d="m44.883 269.656 40.09.66-15.508 38.188Zm0 0"/><path fill="#e2b3af" d="m63.668 108.332-32.461-6.844 12.238-37.707Zm0 0"/><path fill="#e3a3a0" d="m40.734 128.438-9.527-26.95 32.461 6.844Zm0 0"/><path fill="#e4a09d" d="m135.715 123.195-24.871 20.664-11.836-27.406Zm0 0"/><path fill="#e49f9c" d="m110.844 143.86-35.465-.305 23.629-27.102Zm0 0"/><path fill="#e59e9c" d="m73.719 187.695-37.235 17.727 1.512-42.14Zm0 0"/><path fill="#e5a09e" d="m75.379 143.555-1.66 44.14-35.723-24.414Zm0 0"/><path fill="#e69997" d="m201.422 35.469-16.234-12.297 19.539-5.473Zm0 0"/><path fill="#e69795" d="m204.727 17.7-19.54 5.472-1.46-23.176Zm0 0"/><path fill="#e7908f" d="M260.176 85.348 250 63.535l29.844 8.27Zm0 0"/><path fill="#e78e8d" d="M260.176 85.348 243.44 80 250 63.535ZM260.176 85.348l19.668-13.543 3.719 37.453Zm0 0"/><path fill="#e88b8a" d="m260.176 85.348 23.387 23.91-27.52-6.395ZM384 62.621l-38.363-20.387L384 0Zm0 0"/><path fill="#e88989" d="m347.629 86.328-.184 47.227-29.324-19.23Zm0 0"/><path fill="#e98484" d="m383.996 110.902-36.55 22.653.183-47.227Zm0 0"/><path fill="#d8f1e7" d="m185.934 60.758 14.824-16.692 4.144 11.649Zm0 0"/><path fill="#daf1e8" d="m177.836 38.605 22.922 5.461-14.824 16.692Zm0 0"/><path fill="#e69795" d="m120.852 83.285 21.835-22.676 15.098 24.848Zm0 0"/><path fill="#a2e1d0" d="m201.64 70.629-15.706-9.871 18.968-5.043Zm0 0"/><path fill="#1e2a3b" d="m235.566 149.754-2.27-9.063 10.235 1.168Zm0 0"/><path fill="#e78c8b" d="m283.563 109.258-28.88 15 1.36-21.395Zm0 0"/><path fill="#e88a89" d="m254.684 124.258 28.879-15-12.356 30.992Zm0 0"/><path fill="#e69392" d="m243.441 80-1.992 13.508-7.195-10.496Zm0 0"/><path fill="#e78c8b" d="m248.113 106.574-6.664-13.066 14.594 9.355Zm0 0"/><path fill="#e88c8b" d="m241.45 93.508 18.726-8.16-4.133 17.515Zm0 0"/><path fill="#e88a8a" d="m260.176 85.348-18.727 8.16L243.441 80Zm0 0"/><path fill="#324752" d="m248.113 106.574-5.965 23.078-7.812-7.511Zm0 0"/><path fill="#222c3d" d="m248.113 106.574 6.57 17.684-12.535 5.394Zm0 0"/><path fill="#e58c8b" d="m254.684 124.258-6.57-17.684 7.929-3.71Zm0 0"/><path fill="#232e3e" d="M237.988 94.836 227.2 87.383l7.055-4.371Zm0 0"/><path fill="#1f293a" d="m241.45 93.508-3.462 1.328-3.734-11.824Zm0 0"/><path fill="#202c3d" d="m237.988 94.836 3.461-1.328 6.664 13.066Zm0 0"/><path fill="#e49f9d" d="m110.844 143.86 24.87-20.665 2.532 10.766Zm0 0"/><path fill="#e59f9d" d="m128.875 149.14-18.031-5.28 27.402-9.9Zm0 0"/><path fill="#9ae0cd" d="m154.984 134.36-4.07 12.234-12.668-12.633Zm0 0"/><path fill="#e59b99" d="m157.785 85.457-15.37 13.606-21.563-15.778Zm0 0"/><path fill="#e59e9c" d="M106.074 173.438 73.72 187.695l1.66-44.14Zm0 0"/><path fill="#95222b" d="m184.082 202.527-3.754-12.117 15.09 1.992Zm0 0"/><path fill="#96242e" d="m184.082 202.527-10.969 3.95 7.215-16.067Zm0 0"/><path fill="#532432" d="m152.516 168.023-.793-9.023 13.625 7.848Zm0 0"/><path fill="#b1323a" d="m164.695 173.73-12.18-5.707 12.833-1.175Zm0 0"/><path fill="#e69593" d="m151.137 199.715-20.196-14.438 14.743-6.941Zm0 0"/><path fill="#e68f8e" d="M235.04 74.188 243.44 80l-9.187 3.012Zm0 0"/><path fill="#e78e8d" d="m243.441 80-8.402-5.812L250 63.535Zm0 0"/><path fill="#e6908f" d="m235.04 74.188-1.458-6.422L250 63.536Zm0 0"/><path fill="#304551" d="m220.957 57.379 2.86-8.164 6.68 8.566Zm0 0"/><path fill="#e2b6b1" d="M46.063.004 87.28 0 65.074 35.066ZM87.281 0l17.754 36.594-39.96-1.528Zm0 0"/><path fill="#79232e" d="m216.941 181.332-12.691.672 3.488-5.691Zm0 0"/><path fill="#e88989" d="m244.32 196.988 8.633-3.953-1.996 12.418Zm0 0"/><path fill="#e88988" d="m240.227 201.012 4.093-4.024 6.637 8.465Zm0 0"/><path fill="#e88887" d="m252.953 193.035-8.633 3.953-1.433-10.535Zm0 0"/><path fill="#592431" d="m231.41 184.793 7.344 12.406-13.625-1.89Zm0 0"/><path fill="#e88c8b" d="m238.754 197.2 5.566-.212-4.093 4.024Zm0 0"/><path fill="#622835" d="m238.754 197.2-7.344-12.407 11.477 1.66Zm0 0"/><path fill="#e88d8c" d="m244.32 196.988-5.566.211 4.133-10.746Zm0 0"/><path fill="#f04d51" d="m174.105 177.707 12.446-.246-6.223 12.95Zm0 0"/><path fill="#2e2637" d="m226.258 165.707 11.281-2.934-9.812 7.215Zm0 0"/><path fill="#d4cbc3" d="m226.258 165.707 9.308-15.953 1.973 13.02Zm0 0"/><path fill="#e78d8c" d="m259.43 154.113 11.777-13.863-.797 24.324Zm0 0"/><path fill="#e78d8c" d="m259.43 154.113-8.625-14.82 20.402.957Zm0 0"/><path fill="#263443" d="m250.805 139.293-6.22 14.125-1.054-11.559Zm0 0"/><path fill="#7ebaad" d="m244.586 153.418-9.02-3.664 7.965-7.895Zm0 0"/><path fill="#a4d3c3" d="m235.566 149.754 9.02 3.664-7.047 9.355Zm0 0"/><path fill="#283846" d="m259.43 154.113-14.844-.695 6.219-14.125Zm0 0"/><path fill="#1f2b3c" d="m243.531 141.86-10.234-1.169 8.851-11.039Zm0 0"/><path fill="#5a2431" d="m231.41 184.793 5.399-8.852 6.078 10.512Zm0 0"/><path fill="#532c39" d="m236.809 175.941 8.164-1.785-2.086 12.297Zm0 0"/><path fill="#452433" d="m236.809 175.941-5.399 8.852-3.683-14.805Zm0 0"/><path fill="#4a2433" d="m237.54 162.773-.731 13.168-9.082-5.953Zm0 0"/><path fill="#5a2532" d="m244.973 174.156-8.164 1.785.73-13.168Zm0 0"/><path fill="#e88888" d="m144.707 353.746 39.691 14.61-1.68 15.648Zm0 0"/><path fill="#e88d8c" d="M0 359.867V305.32l40.168 37.75Zm0 0"/><path fill="#eb7677" d="m345.117 315.375-22.043-44.984 60.93 4.773Zm0 0"/><path fill="#ea797a" d="m323.074 270.39 22.043 44.985-47.89.832Zm0 0"/><path fill="#e88989" d="m342.926 181.242-37.192-30.898 41.711-16.79Zm0 0"/><path fill="#e88988" d="m347.445 133.555-41.71 16.789 12.386-36.02Zm0 0"/><path fill="#e98282" d="m305.734 150.344 37.192 30.898-50.371 19.524Zm0 0"/><path fill="#eb7676" d="M352.508 351.668 384 333.258l-.004 50.746Zm0 0"/><path fill="#e98484" d="m238.305 359.29-55.586 24.714 1.68-15.649Zm0 0"/><path fill="#e88a8a" d="m165.613 340.43 20.703 12.011-1.918 15.914Zm0 0"/><path fill="#e88b8a" d="m165.613 340.43 18.785 27.925-39.691-14.609Zm0 0"/><path fill="#e88d8c" d="m144.965 317.477 20.648 22.953-20.906 13.316Zm0 0"/><path fill="#e78e8d" d="m119.309 288.867 49.539-9.758-23.883 38.368Zm0 0"/><path fill="#e88c8b" d="m119.309 288.867 25.656 28.61-35.113 16.433Zm0 0"/><path fill="#e78f8e" d="m119.309 288.867 42.988-40.805 6.55 31.047Zm0 0"/><path fill="#8f222c" d="m198.387 258.383-10.489-21.031 22.375 7.285Zm0 0"/><path fill="#ed4c50" d="m187.898 237.352 10.489 21.03-15.196-1.257Zm0 0"/><path fill="#75232e" d="m211.727 259.324-1.454-14.687 15.63 7.738Zm0 0"/><path fill="#77232e" d="m211.727 259.324-13.34-.941 11.886-13.746Zm0 0"/><path fill="#f04d51" d="m176.184 311.207 18.074-6.797 4.703 10.152Zm0 0"/><path fill="#94252f" d="m194.258 304.41-6.61-12.246 15.02.14Zm0 0"/><path fill="#e98484" d="m253.07 318.594-30.664.914 1.785-13.145Zm0 0"/><path fill="#e98483" d="m253.07 318.594-27.52 19.781-3.144-18.867Zm0 0"/><path fill="#e98484" d="m225.55 338.375 27.52-19.781-14.765 40.695Zm0 0"/><path fill="#97222b" d="m198.387 258.383 6.566 11.219-16.941.195Zm0 0"/><path fill="#3e2434" d="m209.785 282.734-4.832-13.132 15.129 8.14Zm0 0"/><path fill="#522432" d="m211.727 259.324-6.774 10.278-6.566-11.22Zm0 0"/><path fill="#7d222e" d="m193.832 280.328 15.953 2.406-7.117 9.57Zm0 0"/><path fill="#ee4c51" d="m187.648 292.164 6.184-11.836 8.836 11.977Zm0 0"/><path fill="#f04e52" d="m168.848 279.11 24.984 1.218-6.184 11.836Zm0 0"/><path fill="#f04d51" d="m193.832 280.328-24.984-1.219 19.164-9.312Zm0 0"/><path fill="#9a222b" d="m204.953 269.602-11.121 10.726-5.82-10.531Zm0 0"/><path fill="#97222b" d="m193.832 280.328 11.121-10.726 4.832 13.132Zm0 0"/><path fill="#f04e52" d="m194.258 304.41-18.074 6.797 11.464-19.043Zm0 0"/><path fill="#e98584" d="m253.07 318.594-28.879-12.23 12.637-17.325Zm0 0"/><path fill="#e98181" d="m253.07 318.594-16.242-29.555 36.227-19.164Zm0 0"/><path fill="#e69896" d="m156.656 62.04 2.352-35.43 18.828 11.995Zm0 0"/><path fill="#e69997" d="m159.008 26.61-2.352 35.43-13.969-1.43Zm0 0"/><path fill="#e79391" d="m72.32 233.02-41.043 6.12 5.207-33.718Zm0 0"/><path fill="#e79190" d="m72.32 233.02-27.437 36.636-13.606-30.515Zm0 0"/><path fill="#e78f8e" d="m72.32 233.02 12.653 37.296-40.09-.66Zm0 0"/><path fill="#e59d9b" d="m110.844 143.86-4.77 29.577-30.695-29.882Zm0 0"/><path fill="#e69493" d="m159.008 26.61 26.18-3.438-7.352 15.433Zm0 0"/><path fill="#e98484" d="m384 159.668-36.555-26.113 36.551-22.653Zm0 0"/><path fill="#e69896" d="m225.543 30.754-11.18 13.433-12.941-8.718Zm0 0"/><path fill="#abdccc" d="m214.363 44.188-13.605-.122.664-8.597Zm0 0"/><path fill="#e69594" d="m214.363 44.188 11.18-13.434-1.727 18.46Zm0 0"/><path fill="#95decb" d="m200.758 44.066 13.605.121-9.46 11.528Zm0 0"/><path fill="#e69795" d="m157.785 85.457-15.097-24.848 13.968 1.43Zm0 0"/><path fill="#95ddc9" d="m181.5 80.04 9.7 12.581L179.86 99Zm0 0"/><path fill="#87c9ba" d="m237.988 94.836-14.074 2.27 3.285-9.723Zm0 0"/><path fill="#96deca" d="m206.777 101.031 2.426-14.476 6.012 10.925Zm0 0"/><path fill="#d7f0e7" d="m209.203 86.555-2.426 14.476-6.707-12.304Zm0 0"/><path fill="#d9f1e8" d="m142.414 99.063 15.371-13.606L179.86 99Zm0 0"/><path fill="#e59c99" d="m142.414 99.063-6.7 24.132-14.862-39.91Zm0 0"/><path fill="#e4a09e" d="m120.852 83.285 14.863 39.91-36.707-6.742Zm0 0"/><path fill="#ea4b4f" d="m173.113 206.477-9.398-18.11 16.613 2.043Zm0 0"/><path fill="#f04e52" d="m163.715 188.367 10.39-10.66 6.223 12.703Zm0 0"/><path fill="#f04d51" d="m163.715 188.367-18.031-10.031 19.011-4.606Zm0 0"/><path fill="#f05155" d="m145.684 178.336 18.03 10.031-12.577 11.348Zm0 0"/><path fill="#e69593" d="m145.684 178.336-14.743 6.941.36-20.43Zm0 0"/><path fill="#e69896" d="M145.684 178.336 131.3 164.848l11.855-.778Zm0 0"/><path fill="#92252e" d="m152.516 168.023-6.832 10.313-2.528-14.266Zm0 0"/><path fill="#f04d51" d="m145.684 178.336 6.832-10.313 12.18 5.707Zm0 0"/><path fill="#ef4d51" d="m188.781 207.344.461 9.105-11.664.184Zm0 0"/><path fill="#89222d" d="m188.781 207.344-4.699-4.817 11.336-10.125Zm0 0"/><path fill="#712531" d="m209.992 230.914-22.094 6.438 12.286-21.293Zm0 0"/><path fill="#442433" d="m187.898 237.352 22.094-6.438.281 13.723Zm0 0"/><path fill="#98dfcc" d="m210 69.746-8.36.883 3.262-14.914Zm0 0"/><path fill="#94deca" d="m210 69.746-4.777 7.61-3.582-6.727Zm0 0"/><path fill="#692430" d="m204.25 182.004.07 22.71-8.902-12.312Zm0 0"/><path fill="#962730" d="m186.55 177.46 17.7 4.544-8.832 10.398Zm0 0"/><path fill="#4c2433" d="m225.73 209.625 14.497-8.613-3.758 11.457Zm0 0"/><path fill="#5c2431" d="m225.73 209.625 13.024-12.426 1.473 3.813Zm0 0"/><path fill="#522432" d="m238.754 197.2-13.024 12.425-.601-14.316Zm0 0"/><path fill="#8b222c" d="m204.25 182.004-2.988-11.36 6.476 5.668Zm0 0"/><path fill="#532533" d="m183.168 159.21 8.531 5.376-11.992 4.445Zm0 0"/><path fill="#d7efe6" d="m151.723 159 10.632-4.246 2.993 12.094Zm0 0"/><path fill="#96dfcb" d="m163.078 146.195-8.094-11.836 17.328-.687Zm0 0"/><path fill="#94decb" d="m154.984 134.36 8.094 11.835-12.164.399Zm0 0"/><path fill="#90232d" d="m186.55 177.46-12.445.247 5.602-8.676Zm0 0"/><path fill="#89222c" d="m191.7 164.586-5.15 12.875-6.843-8.43Zm0 0"/><path fill="#4a2836" d="m248.457 164.758-3.484 9.398-7.434-11.383Zm0 0"/><path fill="#9a9996" d="m244.586 153.418 3.871 11.34-10.918-1.985Zm0 0"/><path fill="#3a515a" d="m248.457 164.758-3.871-11.34 14.844.695Zm0 0"/><path fill="#e88a89" d="m270.41 164.574-21.953.184 10.973-10.645Zm0 0"/><path fill="#202b3c" d="m254.684 124.258-3.88 15.035-8.656-9.64Zm0 0"/><path fill="#273745" d="m250.805 139.293-7.274 2.566-1.383-12.207Zm0 0"/><path fill="#e68c8b" d="m250.805 139.293 3.879-15.035 16.523 15.992Zm0 0"/><path fill="#ee4d51" d="m194.137 330.527-13.059-1 17.883-14.964Zm0 0"/><path fill="#e88787" d="m186.316 352.441 17.41-.28-19.328 16.194Zm0 0"/><path fill="#ee4d51" d="m189.242 216.45-.46-9.106 11.402 8.715Zm0 0"/><path fill="#402737" d="m231.387 230.512-2.203 10.043-2.91-10.227Zm0 0"/><path fill="#472433" d="m209.992 230.914 19.192 9.64-18.91 4.083Zm0 0"/><path fill="#452534" d="m210.273 244.637 18.91-4.082-3.28 11.82Zm0 0"/><path fill="#e88786" d="m229.184 240.555 12.671 5.918-15.953 5.902Zm0 0"/><path fill="#e88686" d="m229.184 240.555 2.203-10.043 10.468 15.96Zm0 0"/><path fill="#e98685" d="m244.973 174.156 11.562 4.801-13.648 7.496Zm0 0"/><path fill="#e98686" d="m256.535 178.957-3.582 14.078-10.066-6.582Zm0 0"/><path fill="#e98484" d="m248.457 164.758 8.078 14.199-11.562-4.8Zm0 0"/><path fill="#e88988" d="m256.535 178.957-8.078-14.2 21.953-.183Zm0 0"/><path fill="#e88786" d="m256.535 178.957 36.02 21.809-39.602-7.73Zm0 0"/><path fill="#e88887" d="m256.535 178.957 13.875-14.383 22.145 36.192Zm0 0"/><path fill="#eb7576" d="m384 333.258-31.492 18.41-7.39-36.293Zm0 0"/><path fill="#eb7475" d="m326.324 384 26.184-32.332 31.488 32.336Zm0 0"/><path fill="#e79290" d="m165.613 340.43 10.57-29.223 4.895 18.32Zm0 0"/><path fill="#e78f8e" d="m176.184 311.207-10.57 29.223-20.65-22.953Zm0 0"/><path fill="#4b2433" d="m204.953 269.602 17.793-3.66-2.664 11.8Zm0 0"/><path fill="#472433" d="m222.746 265.941-17.793 3.66 6.774-10.277Zm0 0"/><path fill="#e98685" d="m220.082 277.742 2.664-11.8 13.41 2.64Zm0 0"/><path fill="#432433" d="m222.746 265.941-11.02-6.617 14.176-6.949Zm0 0"/><path fill="#e88786" d="m222.746 265.941 3.156-13.566 10.254 16.207Zm0 0"/><path fill="#ef5558" d="m183.191 257.125-14.343 21.984-6.551-31.046Zm0 0"/><path fill="#ee4d51" d="m168.848 279.11 14.343-21.985 4.82 12.672Zm0 0"/><path fill="#e98484" d="m222.406 319.508-9.133-8.656 10.918-4.489Zm0 0"/><path fill="#e98484" d="m208.598 331.14 4.675-20.288 9.133 8.656Zm0 0"/><path fill="#e88685" d="m213.273 310.852.63-5.727 10.288 1.238Zm0 0"/><path fill="#e88484" d="m213.902 305.125 2.735-10.828 7.554 12.066Zm0 0"/><path fill="#282637" d="m216.637 294.297-6.852-11.563 10.297-4.992Zm0 0"/><path fill="#572431" d="m209.785 282.734 6.852 11.563-13.969-1.992Zm0 0"/><path fill="#532432" d="m216.637 294.297-2.735 10.828-11.234-12.82Zm0 0"/><path fill="#e88585" d="m236.828 289.04-20.191 5.257 3.445-16.555Zm0 0"/><path fill="#e98484" d="m224.191 306.363-7.554-12.066 20.191-5.258Zm0 0"/><path fill="#daf1e8" d="m185.934 60.758-29.278 1.281 21.18-23.434Zm0 0"/><path fill="#e59f9c" d="m128.875 149.14 2.426 15.708-20.457-20.989Zm0 0"/><path fill="#e59d9b" d="m131.3 164.848-25.226 8.59 4.77-29.579Zm0 0"/><path fill="#d9f0e7" d="m200.758 44.066-22.922-5.46 23.586-3.137Zm0 0"/><path fill="#e79391" d="m177.836 38.605 7.351-15.433 16.235 12.297Zm0 0"/><path fill="#4a6d70" d="m220.957 57.379-3.766-2.383 6.625-5.781Zm0 0"/><path fill="#83c2b4" d="m217.191 54.996-2.828-10.809 9.453 5.028Zm0 0"/><path fill="#8ed1c0" d="m214.363 44.188 2.828 10.808-12.289.719Zm0 0"/><path fill="#689892" d="M217.191 54.996 210 69.746l-5.098-14.031Zm0 0"/><path fill="#4e7174" d="m210 69.746 7.191-14.75 3.766 2.383Zm0 0"/><path fill="#97e0cc" d="m201.64 70.629-7.609 8.336-8.097-18.207Zm0 0"/><path fill="#d9f1e8" d="M185.934 60.758 181.5 80.039l-24.844-18Zm0 0"/><path fill="#d9ede5" d="m181.5 80.04-23.715 5.417-1.129-23.418Zm0 0"/><path fill="#97e0cc" d="M194.031 78.965 181.5 80.039l4.434-19.281Zm0 0"/><path fill="#d9f1e8" d="m173.316 117.625 11.23 9.535-12.233 6.512ZM184.547 127.16l-11.23-9.535 16.183-5.328Zm0 0"/><path fill="#96dbc8" d="M194.031 78.965 191.2 92.62 181.5 80.04Zm0 0"/><path fill="#94ddc9" d="m194.031 78.965 6.04 9.762-8.872 3.894Zm0 0"/><path fill="#8dd1c0" d="m194.031 78.965 11.192-1.61-5.153 11.372Zm0 0"/><path fill="#97dfcc" d="m205.223 77.355-11.192 1.61 7.61-8.336Zm0 0"/><path fill="#d9f1e8" d="m195.02 101.98 11.757-.949-3.238 10.45Zm0 0"/><path fill="#d9f1e8" d="m206.777 101.031-11.757.95 5.05-13.254Zm0 0"/><path fill="#d9f1e8" d="m195.02 101.98-3.82-9.359 8.87-3.894Zm0 0"/><path fill="#d7f1e7" d="m191.2 92.621 3.82 9.36L179.86 99Zm0 0"/><path fill="#273644" d="m205.223 77.355 3.98 9.2-9.133 2.172Zm0 0"/><path fill="#1f293a" d="m234.336 122.14-8.64 5.02.831-11.262Zm0 0"/><path fill="#8cd2c1" d="m225.695 127.16-13.828 4.246 14.66-15.508Zm0 0"/><path fill="#d9f0e7" d="m202.031 121.395-4.066-.477 5.574-9.438Zm0 0"/><path fill="#d8efe6" d="m183.168 159.21 7.7-3.73.831 9.106Zm0 0"/><path fill="#1f2b3c" d="m221.004 151.64 12.293-10.949 2.27 9.063Zm0 0"/><path fill="#9ec9bb" d="m226.258 165.707-5.254-14.066 14.562-1.887Zm0 0"/><path fill="#2b3c49" d="m226.527 115.898 7.04-11.738.769 17.98Zm0 0"/><path fill="#4c6c6f" d="m233.566 104.16-7.039 11.738-2.613-18.793Zm0 0"/><path fill="#2e3f4b" d="m233.566 104.16 14.547 2.414-13.777 15.567Zm0 0"/><path fill="#2c3d4b" d="m233.566 104.16 4.422-9.324 10.125 11.738Zm0 0"/><path fill="#588080" d="m233.566 104.16-9.652-7.055 14.074-2.27Zm0 0"/><path fill="#7cb7ac" d="m210.059 117.344-8.028 4.05 1.508-9.914Zm0 0"/><path fill="#456368" d="m202.031 121.395 8.028-4.051 1.808 14.062Zm0 0"/><path fill="#435960" d="m211.867 131.406-1.808-14.062 16.468-1.446Zm0 0"/><path fill="#5b2533" d="m151.723 159 .793 9.023-9.36-3.953Zm0 0"/><path fill="#daf1e8" d="m140.3 156.734-9 8.114-2.425-15.707Zm0 0"/><path fill="#daf0e7" d="m131.3 164.848 9-8.114 2.856 7.336Zm0 0"/><path fill="#bfe8db" d="M140.3 156.734 151.724 159l-8.567 5.07Zm0 0"/><path fill="#99dbc8" d="m154.984 134.36-.195-17.548 17.524 16.86Zm0 0"/><path fill="#98ddc9" d="m154.79 116.813 18.526.812-1.004 16.047Zm0 0"/><path fill="#cbece1" d="m154.79 116.813-12.376-17.75L179.86 99Zm0 0"/><path fill="#9ce1ce" d="m173.316 117.625-18.527-.812L179.86 99Zm0 0"/><path fill="#f05054" d="m163.715 188.367.98-14.637 9.41 3.977Zm0 0"/><path fill="#4a2433" d="m209.992 230.914 15.738-21.289.543 20.703Zm0 0"/><path fill="#7d222e" d="m225.73 209.625-15.738 21.29-9.808-14.856Zm0 0"/><path fill="#3c2534" d="m229.184 240.555-19.192-9.64 16.281-.587Zm0 0"/><path fill="#c73b41" d="m187.898 237.352 1.344-20.903 10.942-.39Zm0 0"/><path fill="#f04e52" d="m173.113 206.477 15.668.867-11.203 9.289Zm0 0"/><path fill="#f04e52" d="m188.781 207.344-15.668-.867 10.969-3.95Zm0 0"/><path fill="#d9f1e8" d="m150.914 146.594 11.441 8.16L151.723 159Zm0 0"/><path fill="#ceede2" d="m163.078 146.195 9.234-12.523 5.118 17.601Zm0 0"/><path fill="#96e0cc" d="m172.313 133.672 12.234-6.512 4.676 16.285Zm0 0"/><path fill="#aee5d5" d="m177.43 151.273-5.118-17.601 16.91 9.773Zm0 0"/><path fill="#322939" d="m201.262 170.645-3.625 1.785-5.938-7.844Zm0 0"/><path fill="#572431" d="m197.637 172.43-11.086 5.03 5.148-12.874Zm0 0"/><path fill="#86222d" d="m197.637 172.43 3.625-1.785 2.988 11.359Zm0 0"/><path fill="#7d222e" d="m186.55 177.46 11.087-5.03 6.613 9.574Zm0 0"/><path fill="#8c222c" d="m208.598 331.14-14.461-.613 4.824-15.964Zm0 0"/><path fill="#79232e" d="m204.32 204.715-15.539 2.629 6.637-14.942Zm0 0"/><path fill="#eb7878" d="M352.508 351.668 326.324 384l-1.605-39.195Zm0 0"/><path fill="#eb7778" d="m345.117 315.375 7.39 36.293-27.788-6.863Zm0 0"/><path fill="#e7908f" d="m165.613 340.43 18.89 1.347 1.813 10.664Zm0 0"/><path fill="#f04e52" d="m194.137 330.527-9.633 11.25-3.426-12.25Zm0 0"/><path fill="#e7908f" d="m184.504 341.777-18.89-1.347 15.464-10.903Zm0 0"/><path fill="#ef5053" d="m176.184 311.207-7.336-32.098 18.8 13.055Zm0 0"/><path fill="#e78e8d" d="m168.848 279.11 7.336 32.097-31.22 6.27Zm0 0"/><path fill="#412434" d="m208.496 308.684 4.777 2.168-4.675 20.289Zm0 0"/><path fill="#442433" d="m208.496 308.684.102 22.457-9.637-16.579Zm0 0"/><path fill="#4e2432" d="m194.258 304.41 14.238 4.274-9.535 5.878Zm0 0"/><path fill="#362535" d="m213.273 310.852-4.777-2.168 5.406-3.559Zm0 0"/><path fill="#92222b" d="m208.496 308.684-14.238-4.274 8.41-12.105Zm0 0"/><path fill="#4e2433" d="m213.902 305.125-5.406 3.559-5.828-16.38Zm0 0"/><path fill="#b2e4d5" d="m157.785 85.457 23.715-5.418L179.86 99Zm0 0"/><path fill="#405d63" d="m210 69.746 8.078 12.867-12.855-5.258Zm0 0"/><path fill="#3c565e" d="m218.078 82.613-8.875 3.942-3.98-9.2Zm0 0"/><path fill="#253342" d="m223.293 75.105-5.215 7.508L210 69.746Zm0 0"/><path fill="#d2ede2" d="m209.203 86.555 8.875-3.942-2.863 14.867Zm0 0"/><path fill="#99e0cd" d="m196 139.918-11.453-12.758 13.418-6.242Zm0 0"/><path fill="#96e0cc" d="M184.547 127.16 196 139.918l-6.777 3.527Zm0 0"/><path fill="#d9f1e8" d="m197.965 120.918-13.418 6.242 4.953-14.863ZM189.5 112.297l5.52-10.317 8.52 9.5Zm0 0"/><path fill="#daf1e8" d="m197.965 120.918-8.465-8.621 14.04-.817Zm0 0"/><path fill="#d9f1e8" d="m195.02 101.98-5.52 10.317L179.86 99Zm0 0"/><path fill="#99d5c4" d="m221.004 151.64-6.043 3.59.566-6.433Zm0 0"/><path fill="#81c0b2" d="m206.777 101.031 6.95 4.594-10.188 5.855Zm0 0"/><path fill="#7bb8ac" d="m213.727 105.625-3.668 11.719-6.52-5.864Zm0 0"/><path fill="#96e0cc" d="m213.727 105.625 1.488-8.145 8.7-.375Zm0 0"/><path fill="#93ddc9" d="m226.527 115.898-12.8-10.273 10.187-8.52Zm0 0"/><path fill="#659590" d="m210.059 117.344 3.668-11.719 12.8 10.273Zm0 0"/><path fill="#8ed5c3" d="m215.215 97.48-1.488 8.145-6.95-4.594Zm0 0"/><path fill="#d4efe5" d="m215.215 97.48 2.863-14.867 5.836 14.492Zm0 0"/><path fill="#94dbc8" d="m223.914 97.105-5.836-14.492 9.121 4.77Zm0 0"/><path fill="#d9f1e8" d="m151.723 159-9.352-9.637 8.543-2.77Zm0 0"/><path fill="#daf1e8" d="m140.3 156.734 2.071-7.37 9.352 9.636Zm0 0"/><path fill="#9be0cd" d="m150.914 146.594-8.543 2.77-4.125-15.403Zm0 0"/><path fill="#daf1e8" d="m142.371 149.363-2.07 7.371-11.426-7.593Zm0 0"/><path fill="#d8ebe2" d="m142.371 149.363-13.496-.222 9.371-15.18Zm0 0"/><path fill="#c4e6da" d="m154.79 116.813.194 17.546-19.27-11.164Zm0 0"/><path fill="#d9f1e8" d="m142.414 99.063 12.375 17.75-19.074 6.382Zm0 0"/><path fill="#8a232d" d="m171.453 169.406-6.758 4.324.653-6.882Zm0 0"/><path fill="#8d232d" d="m174.105 177.707-2.652-8.3 8.254-.376Zm0 0"/><path fill="#8f242e" d="m164.695 173.73 6.758-4.324 2.652 8.301Zm0 0"/><path fill="#eb4c50" d="m200.184 216.059-11.403-8.715 15.54-2.63Zm0 0"/><path fill="#4e2432" d="m204.32 204.715 12.621-23.383 8.188 13.977Zm0 0"/><path fill="#452433" d="m225.73 209.625-21.41-4.91 20.809-9.406Zm0 0"/><path fill="#79232e" d="m200.184 216.059 4.136-11.344 21.41 4.91Zm0 0"/><path fill="#90242e" d="m216.941 181.332-12.62 23.383-.071-22.711Zm0 0"/><path fill="#ef5659" d="m154.555 212.707-3.418-12.992 21.976 6.762Zm0 0"/><path fill="#e78b8a" d="m154.555 212.707 18.558-6.23 4.465 10.156Zm0 0"/><path fill="#ed6365" d="m157.04 229.613-2.485-16.906 23.023 3.926Zm0 0"/><path fill="#557d7d" d="M225.027 67.566 210 69.746l10.957-12.367Zm0 0"/><path fill="#243141" d="m225.027 67.566-1.734 7.54L210 69.745Zm0 0"/><path fill="#2e3f4c" d="m233.582 67.766-8.555-.2 5.47-9.785Zm0 0"/><path fill="#30434f" d="m225.027 67.566-4.07-10.187 9.54.402Zm0 0"/><path fill="#d9f1e8" d="m177.43 151.273 13.437 4.207-7.699 3.73Zm0 0"/><path fill="#9edccb" d="m190.867 155.48-13.437-4.207 11.793-7.828Zm0 0"/><path fill="#cbe9de" d="m163.078 146.195-.723 8.559-11.44-8.16Zm0 0"/><path fill="#d9f1e8" d="m162.355 154.754.723-8.559 14.352 5.078Zm0 0"/><path fill="#e98585" d="m211.152 332.941-2.554-1.8 13.808-11.633Zm0 0"/><path fill="#e98686" d="m225.55 338.375-14.398-5.434 11.254-13.433Zm0 0"/><path fill="#e79290" d="m106.074 173.438 25.227-8.59-.36 20.43Zm0 0"/><path fill="#2e3f4c" d="M211.867 131.406 196 139.918l6.031-18.523Zm0 0"/><path fill="#5b8785" d="m196 139.918 15.867-8.512 3.66 17.39Zm0 0"/><path fill="#daf1e8" d="m189.5 112.297-16.184 5.328L179.86 99Zm0 0"/><path fill="#9ce1ce" d="m196 139.918 1.965-19 4.066.477Zm0 0"/><path fill="#446368" d="m214.96 155.23-14.019-3.246 14.586-3.187Zm0 0"/><path fill="#293947" d="M200.941 151.984 196 139.918l19.527 8.879Zm0 0"/><path fill="#9ae0cd" d="m196 139.918 4.941 12.066-11.718-8.539Zm0 0"/><path fill="#9ee1cf" d="m200.941 151.984-10.074 3.496-1.644-12.035Zm0 0"/><path fill="#5b2431" d="m201.262 170.645 10.46-2.961-3.984 8.629Zm0 0"/><path fill="#4a2433" d="m216.941 181.332-5.218-13.648 16.004 2.304Zm0 0"/><path fill="#5f2331" d="m211.723 167.684 5.218 13.648-9.203-5.02Zm0 0"/><path fill="#a5c4b7" d="M226.258 165.707 214.96 155.23l6.043-3.59Zm0 0"/><path fill="#a3d9c8" d="m226.258 165.707-14.535 1.977 3.238-12.454Zm0 0"/><path fill="#b5b9af" d="m211.723 167.684 14.535-1.977 1.469 4.281Zm0 0"/><path fill="#572735" d="m173.074 162.996-1.62 6.41-6.106-2.558Zm0 0"/><path fill="#d9f1e8" d="m173.074 162.996-7.726 3.852-2.993-12.094Zm0 0"/><path fill="#592533" d="m173.074 162.996 10.094-3.785-3.461 9.82Zm0 0"/><path fill="#602431" d="m171.453 169.406 1.621-6.41 6.633 6.035Zm0 0"/><path fill="#daf1e8" d="m173.074 162.996 4.356-11.723 5.738 7.938Zm0 0"/><path fill="#daf1e8" d="m173.074 162.996-10.719-8.242 15.075-3.48Zm0 0"/><path fill="#f05457" d="m177.578 216.633-15.281 31.43-5.258-18.45Zm0 0"/><path fill="#9a252e" d="m177.578 216.633 11.664-.184-1.344 20.903Zm0 0"/><path fill="#f04e52" d="m151.137 199.715 12.578-11.348 9.398 18.11Zm0 0"/><path fill="#233040" d="m225.027 67.566 4.895 6.746-6.629.793Zm0 0"/><path fill="#1f293a" d="m235.04 74.188-5.118.124 3.66-6.546Zm0 0"/><path fill="#212d3d" d="m229.922 74.313-4.895-6.747 8.555.2Zm0 0"/><path fill="#212839" d="m229.922 74.313 5.117-.126-.785 8.825Zm0 0"/><path fill="#e59896" d="m211.152 332.941-7.425 19.22 4.87-21.02Zm0 0"/><path fill="#e88887" d="m203.727 352.16 7.425-19.219 14.399 5.434Zm0 0"/><path fill="#e88787" d="m238.305 359.29-34.578-7.13 21.824-13.785Zm0 0"/><path fill="#e98585" d="m184.398 368.355 19.329-16.195 34.578 7.13Zm0 0"/><path fill="#84c3b5" d="m211.867 131.406 11.77 5.785-8.11 11.606Zm0 0"/><path fill="#212d3d" d="m221.004 151.64 2.633-14.449 9.66 3.5Zm0 0"/><path fill="#83bfb2" d="m223.637 137.191-2.633 14.45-5.477-2.844Zm0 0"/><path fill="#8ed5c3" d="m223.637 137.191-11.77-5.785 13.828-4.246Zm0 0"/><path fill="#d6f0e6" d="m200.941 151.984 1.164 8.332-11.238-4.836Zm0 0"/><path fill="#4b6b6f" d="m202.105 160.316-1.164-8.332 14.02 3.246Zm0 0"/><path fill="#d3eee4" d="m202.105 160.316-.843 10.329-9.563-6.06Zm0 0"/><path fill="#d6f0e6" d="m190.867 155.48 11.238 4.836-10.406 4.27Zm0 0"/><path fill="#d1e3d9" d="m202.105 160.316 9.618 7.368-10.461 2.96Zm0 0"/><path fill="#577677" d="m211.723 167.684-9.618-7.368 12.856-5.086Zm0 0"/><path fill="#f04e52" d="m162.297 248.063 15.281-31.43 10.32 20.719Zm0 0"/><path fill="#222b3c" d="m227.2 87.383-.805-7.07 7.859 2.699Zm0 0"/><path fill="#232d3e" d="m226.395 80.313 3.527-6 4.332 8.699Zm0 0"/><path fill="#202a3b" d="m218.078 82.613 8.317-2.3.804 7.07Zm0 0"/><path fill="#222f3f" d="m229.922 74.313-3.527 6-3.102-5.208Zm0 0"/><path fill="#222e3e" d="m226.395 80.313-8.317 2.3 5.215-7.508Zm0 0"/><path fill="#262738" d="m203.727 352.16-2.204-3.098 7.075-17.921Zm0 0"/><path fill="#472433" d="m208.598 331.14-7.075 17.923-7.386-18.536Zm0 0"/><path fill="#e49e9c" d="m201.523 349.063 2.204 3.097-17.41.281Zm0 0"/><path fill="#96222b" d="m184.504 341.777 17.02 7.286-15.208 3.378Zm0 0"/><path fill="#96222b" d="m201.523 349.063-17.02-7.286 9.634-11.25Zm0 0"/><path fill="#202b3c" d="m231.445 131.43 2.89-9.29 7.813 7.512Zm0 0"/><path fill="#1f2a3b" d="m233.297 140.691-1.852-9.261 10.703-1.778Zm0 0"/><path fill="#1f2b3c" d="m231.445 131.43-5.75-4.27 8.64-5.02Zm0 0"/><path fill="#1f2a3b" d="m231.445 131.43-7.808 5.761 2.058-10.03Zm0 0"/><path fill="#1f2b3c" d="m223.637 137.191 7.808-5.761 1.852 9.261Zm0 0"/><path fill="#f04e52" d="m162.297 248.063 25.601-10.711-4.707 19.773Zm0 0"/></svg>