<svg xmlns="http://www.w3.org/2000/svg" width="512" height="512" viewBox="0 0 384 384"><path fill="#983d41" d="m253.629 306.844-2.043-35.34 32.371 16.898Zm0 0"/><path fill="#993d41" d="m251.586 271.504 2.043 35.34-22.191-8.88ZM349.504 76.125l-26.336 19.363L308.02 62.09Zm0 0"/><path fill="#983d41" d="m384 54.422-34.496 21.703-5.656-38.832Zm0 0"/><path fill="#993e42" d="M0 244.664v-36.16l26.578 16.394Zm0 0"/><path fill="#993d41" d="m129.48 337.945-26.312-21.457 30.414-9.785ZM348.379 231.102 384 197.078v71.262ZM286.762 244.191l13.77-39.71 19.343 23.449ZM286.762 244.191l-35.176 27.313.25-35.742ZM271.219 211.684l15.543 32.507-34.926-8.43Zm0 0"/><path fill="#993d41" d="m286.762 244.191-15.543-32.507 29.312-7.204ZM251.586 271.504l35.176-27.313-2.805 44.211Zm0 0"/><path fill="#993d41" d="m286.762 244.191 38.586 24.606-41.391 19.605Zm0 0"/><path fill="#983d41" d="m325.348 268.797-38.586-24.606 33.113-16.261Zm0 0"/><path fill="#983d41" d="m348.379 231.102-23.031 37.695-5.473-40.867Zm0 0"/><path fill="#993d41" d="m64.629 219.734-33.664-25.652 30.55-15.426Zm0 0"/><path fill="#993f42" d="m30.965 194.082 3.656-29.816 26.895 14.39Zm0 0"/><path fill="#994043" d="m56.758 141.219 4.758 37.437-26.895-14.39Zm0 0"/><path fill="#993e42" d="m271.168 70.18 36.852-8.09-18.196 35.129Zm0 0"/><path fill="#993e41" d="m271.656 34.582 36.875-8.105-.511 35.613Zm0 0"/><path fill="#993d41" d="M308.531 26.477 328.781 0l15.067 37.293Zm0 0"/><path fill="#993e41" d="m343.848 37.293 5.656 38.832L308.02 62.09Zm0 0"/><path fill="#993e42" d="m308.02 62.09 15.148 33.398-33.344 1.73Zm0 0"/><path fill="#993d41" d="m289.824 97.219 33.344-1.73-6.523 30.948Zm0 0"/><path fill="#993d41" d="m350.836 114.297-34.191 12.14 6.523-30.949ZM350.836 114.297l-1.332-38.172L384 95.203Zm0 0"/><path fill="#993d41" d="m349.504 76.125 1.332 38.172-27.668-18.809Zm0 0"/><path fill="#993e41" d="m384 95.203-34.496-19.078L384 54.422Zm0 0"/><path fill="#993d41" d="m136.563 221.035 10.363 10.172-20.414 18.691Zm0 0"/><path fill="#993f42" d="m30.965 194.082-4.387 30.816L0 208.504ZM26.578 224.898l4.387-30.816 33.664 25.652Zm0 0"/><path fill="#993d41" d="m106.375 223.879 20.137 26.02-38.348 5.19Zm0 0"/><path fill="#993d41" d="m126.512 249.898-14.88 32.63-23.468-27.438Zm0 0"/><path fill="#993d41" d="m111.633 282.527-8.465 33.961-27.875-23.965ZM103.168 316.488l8.465-33.96 21.949 24.175ZM99.586 348.777l3.582-32.289 26.312 21.457ZM159.621 353.34 126.855 384l2.625-46.055Zm0 0"/><path fill="#993d41" d="m103.168 316.488-33.711 15.11 5.836-39.075Zm0 0"/><path fill="#993d41" d="m99.586 348.777-30.129-17.18 33.711-15.109ZM334.707 197.273l49.293-.195-35.621 34.024Zm0 0"/><path fill="#993d41" d="m334.707 197.273 12.129-42.058L384 197.078ZM334.707 197.273l13.672 33.829-28.504-3.172ZM256.59 196.54l14.629 15.144-22.684.71ZM384 137.773l-37.164 17.442 4-40.918ZM272.398 384l15.157-25.484L320.87 384Zm0 0"/><path fill="#983d41" d="m315.125 338.938-27.57 19.578-8.922-30.782Zm0 0"/><path fill="#983d41" d="m320.871 384-33.316-25.484 27.57-19.579Zm0 0"/><path fill="#993d41" d="m129.48 337.945 25.157-15.87 4.984 31.265ZM325.348 268.797l-16.54 38.812-24.851-19.207Zm0 0"/><path fill="#983d41" d="m278.633 327.734-25.004-20.89 30.328-18.442ZM308.809 307.61l-30.176 20.124 5.324-39.332Zm0 0"/><path fill="#983d41" d="m278.633 327.734 30.176-20.125 6.316 31.329Zm0 0"/><path fill="#994144" d="M0 167.48v-40.816l24.137 15.691Zm0 0"/><path fill="#994043" d="m0 167.48 24.137-25.125 10.484 21.91Zm0 0"/><path fill="#9a4749" d="M31.531 112.176 0 126.664V83.691Zm0 0"/><path fill="#9a4447" d="m0 126.664 31.531-14.488-7.394 30.18Zm0 0"/><path fill="#993d41" d="m64.629 219.734 41.746 4.145-18.21 31.21Zm0 0"/><path fill="#994044" d="m0 167.48 30.965 26.602L0 208.504Zm0 0"/><path fill="#994044" d="M30.965 194.082 0 167.48l34.621-3.214Zm0 0"/><path fill="#994043" d="m24.137 142.355 32.62-1.136-22.136 23.047ZM56.758 141.219l2.512-35.621 29.917 13.82Zm0 0"/><path fill="#993f43" d="m88.488 160.02-31.73-18.801 32.43-21.801Zm0 0"/><path fill="#994144" d="M233.227 19.617 210.586 0l36.742-.004Zm0 0"/><path fill="#994144" d="m233.227 19.617-23.07.633.429-20.25Zm0 0"/><path fill="#993f43" d="m271.168 70.18.488-35.598L308.02 62.09Zm0 0"/><path fill="#993f43" d="m233.227 19.617 38.43 14.965-33.731 7.063Zm0 0"/><path fill="#994044" d="m249.492 76.293 3.434-17.824 18.242 11.71Zm0 0"/><path fill="#994145" d="m252.926 58.469-18.297 6.148 3.297-22.972Zm0 0"/><path fill="#993f43" d="m271.656 34.582-18.73 23.887-15-16.824Zm0 0"/><path fill="#993e42" d="m252.926 58.469 18.73-23.887-.488 35.598Zm0 0"/><path fill="#993e41" d="m247.328-.004 42.75.004-18.422 34.582Zm0 0"/><path fill="#993d41" d="m290.078 0 18.453 26.477-36.875 8.105Zm0 0"/><path fill="#993f43" d="m271.656 34.582-38.43-14.965 14.102-19.62Zm0 0"/><path fill="#993d41" d="m328.781 0-20.25 26.477L290.078 0ZM308.531 26.477l35.317 10.816L308.02 62.09Zm0 0"/><path fill="#983d41" d="M343.848 37.293 328.78 0H384Zm0 0"/><path fill="#993d41" d="m384 137.773-33.164-23.476L384 95.203Zm0 0"/><path fill="#994144" d="m139.363 70.64 16.98-.847-11.613 11.973Zm0 0"/><path fill="#994043" d="m156.344 69.793 2.082 16.332-13.696-4.36Zm0 0"/><path fill="#993e41" d="m94.426 193.8 11.949 30.079-41.746-4.145Zm0 0"/><path fill="#994346" d="m234.629 64.617-11.691-16.215 14.988-6.757Zm0 0"/><path fill="#994245" d="m234.629 64.617 18.297-6.148-3.434 17.824ZM233.227 19.617l-15.36 12.676-7.71-12.043Zm0 0"/><path fill="#994044" d="m217.867 32.293-19.777 1.348 12.066-13.391Zm0 0"/><path fill="#994144" d="m217.867 32.293 15.36-12.676 4.699 22.028Zm0 0"/><path fill="#994144" d="m222.938 48.402-5.07-16.109 20.058 9.352Zm0 0"/><path fill="#9a4547" d="m129.082 24.953-5.777 29.586-43.266-20.07Zm0 0"/><path fill="#9a4648" d="m123.305 54.54 16.058 16.1-20.972 22.11Zm0 0"/><path fill="#9a4749" d="m123.305 54.54 5.777-29.587 16.106 19.367ZM79.785 76.98l-38.87-17.746L80.038 34.47Zm0 0"/><path fill="#9a494b" d="M40.914 59.234 79.785 76.98l-36.793 5.832Zm0 0"/><path fill="#9a4649" d="m123.305 54.54-43.52 22.44.254-42.511ZM79.785 76.98l43.52-22.44-4.914 38.21Zm0 0"/><path fill="#9a4547" d="m79.785 76.98 38.606 15.77-29.204 26.668Zm0 0"/><path fill="#994446" d="M59.27 105.598 79.785 76.98l9.403 42.438Zm0 0"/><path fill="#9a4447" d="M79.785 76.98 59.27 105.598 42.992 82.813Zm0 0"/><path fill="#9a4649" d="m165.77-.004-36.688 24.957L114.688 0Zm0 0"/><path fill="#9a4547" d="m161.734 29.621-32.652-4.668L165.77-.004Zm0 0"/><path fill="#994245" d="m182.71 26.543-20.976 3.078L165.77-.004Zm0 0"/><path fill="#994346" d="m129.082 24.953 32.652 4.668-16.547 14.7Zm0 0"/><path fill="#9a484a" d="m38.18 28.484 41.86 5.985-39.126 24.765Zm0 0"/><path fill="#9a4649" d="M80.04 34.469 114.686 0l14.395 24.953Zm0 0"/><path fill="#cc683d" d="m232.266 189.559-17.313-3.551 13.918-16.211Zm0 0"/><path fill="#bc6548" d="m214.953 186.008 17.313 3.55-10.88 15.977Zm0 0"/><path fill="#c4623f" d="m215.352 223.238 6.035-17.703 12.02 5.246Zm0 0"/><path fill="#993d41" d="m233.406 210.781 8.797-9.754 6.332 11.368ZM0 285.324l41.727-23.43-4.801 45.497Zm0 0"/><path fill="#993d41" d="M41.727 261.895 0 285.325v-40.66Zm0 0"/><path fill="#993d41" d="M41.727 261.895 0 244.665l26.578-19.767ZM136.563 221.035l-10.051 28.863-20.137-26.02Zm0 0"/><path fill="#993d41" d="m136.563 221.035-30.188 2.844 18.258-21.867Zm0 0"/><path fill="#993d41" d="m124.633 202.012-18.258 21.867-11.95-30.078ZM201.809 359.168l24.343-3.29L217.785 384Zm0 0"/><path fill="#b3876d" d="m179.316 322.809 3.711-10.45 9.899 7.121Zm0 0"/><path fill="#993d41" d="M99.586 348.777 126.856 384h-60.54Zm0 0"/><path fill="#993d41" d="m126.855 384-27.27-35.223 29.895-10.832Zm0 0"/><path fill="#993d41" d="M159.621 353.34 173.695 384h-46.84ZM99.586 348.777 66.316 384l3.141-52.402ZM34.785 345.438 66.316 384H0ZM66.316 384l-31.53-38.562 34.671-13.84ZM0 328.344v-43.02l36.926 22.067ZM69.457 331.598 36.926 307.39l38.367-14.868Zm0 0"/><path fill="#993d41" d="m36.926 307.39 4.8-45.495 33.567 30.628Zm0 0"/><path fill="#983d41" d="m384 268.34-58.652.457 23.03-37.695Zm0 0"/><path fill="#993d41" d="m248.535 212.395 22.684-.711-19.383 24.078Zm0 0"/><path fill="#ca6d44" d="m235.781 220.059-20.43 3.18 18.055-12.458Zm0 0"/><path fill="#993d41" d="m248.535 212.395-12.754 7.664-2.375-9.278ZM235.781 220.059l12.754-7.664 3.3 23.367ZM227.836 247.934l24-12.172-.25 35.742ZM281.316 133.172l8.508-35.953 26.82 29.219ZM281.316 133.172l-2.886 40.844-24.508-33.063Zm0 0"/><path fill="#993d41" d="m256.082 125.95 25.234 7.222-27.394 7.781Zm0 0"/><path fill="#993f42" d="m281.316 133.172-16.93-24.524 25.438-11.43Zm0 0"/><path fill="#993e41" d="m264.387 108.648 16.93 24.524-25.235-7.223Zm0 0"/><path fill="#993d41" d="m278.43 174.016 22.101 30.464-29.312 7.204ZM256.59 196.54l21.84-22.524-7.211 37.668ZM346.836 155.215 384 137.773v59.305ZM300.531 204.48l34.176-7.207-14.832 30.657Zm0 0"/><path fill="#983d41" d="M384 268.34v60.453l-39.922-17.445Zm0 0"/><path fill="#993d41" d="m258.598 358.648 13.8 25.352h-54.613Zm0 0"/><path fill="#983d41" d="m258.598 358.648 28.957-.132L272.398 384ZM258.598 358.648l-12.957-25.242 32.992-5.672Zm0 0"/><path fill="#983d41" d="m287.555 358.516-28.957.132 20.035-30.914Zm0 0"/><path fill="#993d41" d="m278.633 327.734-32.992 5.672 7.988-26.562Zm0 0"/><path fill="#9a4a4b" d="m0 83.691 40.914-24.457 2.078 23.579Zm0 0"/><path fill="#9b4c4d" d="M40.914 59.234 0 83.691V43.36Zm0 0"/><path fill="#9a4a4c" d="M38.18 28.484 0 43.36V0Zm0 0"/><path fill="#9a4a4c" d="M58.96 0 38.18 28.484 0 0Zm0 0"/><path fill="#9a4749" d="m42.992 82.813-11.46 29.363L0 83.69Zm0 0"/><path fill="#993d41" d="m41.727 261.895 46.437-6.805-12.871 37.433ZM88.164 255.09l23.469 27.437-36.34 9.996Zm0 0"/><path fill="#9a4548" d="m59.27 105.598-27.739 6.578 11.461-29.364Zm0 0"/><path fill="#994346" d="M56.758 141.219 31.53 112.176l27.739-6.578Zm0 0"/><path fill="#994245" d="m31.531 112.176 25.227 29.043-32.621 1.136Zm0 0"/><path fill="#994043" d="M111.945 146.293 88.488 160.02l.7-40.602ZM117.918 123.93l-5.973 22.363-22.757-26.875Zm0 0"/><path fill="#993e42" d="m88.488 160.02-26.972 18.636-4.758-37.437Zm0 0"/><path fill="#994144" d="m198.09 33.64-3.711-16.988 15.777 3.598Zm0 0"/><path fill="#994245" d="m165.77-.004 28.609 16.656-11.668 9.891Zm0 0"/><path fill="#994144" d="M194.379 16.652 165.769-.004 210.587 0Zm0 0"/><path fill="#994245" d="m210.156 20.25-15.777-3.598L210.586 0Zm0 0"/><path fill="#994044" d="m259.418 90.57-9.926-14.277 21.676-6.113Zm0 0"/><path fill="#993f43" d="m259.418 90.57 11.75-20.39 18.656 27.039Zm0 0"/><path fill="#994043" d="m264.387 108.648-4.969-18.078 30.406 6.649Zm0 0"/><path fill="#993f42" d="m259.418 90.57 4.969 18.078-17.215-3.824Zm0 0"/><path fill="#993d41" d="m384 54.422-40.152-17.129L384 0ZM350.836 114.297l-4 40.918-30.191-28.778Zm0 0"/><path fill="#9a4649" d="m148.29 57.902-24.985-3.363 21.882-10.219Zm0 0"/><path fill="#9a484a" d="m123.305 54.54 24.984 3.362-8.926 12.739Zm0 0"/><path fill="#a8a798" d="m183.125 96.445-10.887 29.285 2.918-32.289Zm0 0"/><path fill="#993f43" d="m264.387 108.648-8.305 17.301-8.91-21.125Zm0 0"/><path fill="#a6a295" d="m223.832 131.555-6.984-3.645 6.988-15.219Zm0 0"/><path fill="#9f6d69" d="m237.398 130.293-13.566 1.262.004-18.864Zm0 0"/><path fill="#994043" d="m249.492 76.293-8.758 16.129-3.722-5.277Zm0 0"/><path fill="#994144" d="m240.734 92.422 18.684-1.852-12.246 14.254Zm0 0"/><path fill="#993f43" d="m259.418 90.57-18.684 1.852 8.758-16.129Zm0 0"/><path fill="#a2847c" d="m247.172 104.824-9.774 25.469-13.562-17.602Zm0 0"/><path fill="#a5968b" d="m256.082 125.95-18.684 4.343 9.774-25.469Zm0 0"/><path fill="#a9ac9c" d="m240.734 92.422-7.828 3.328 4.106-8.605Zm0 0"/><path fill="#a7a395" d="m232.906 95.75 7.828-3.328 6.438 12.402Zm0 0"/><path fill="#994043" d="m129.305 145.332 4.035 18.383-21.395-17.422Zm0 0"/><path fill="#a9b1a1" d="m139.793 154.617-6.453 9.098-4.035-18.383Zm0 0"/><path fill="#994043" d="m125.934 133.934 3.37 11.398-17.359.961Zm0 0"/><path fill="#994043" d="m125.934 133.934-13.989 12.359 5.973-22.363Zm0 0"/><path fill="#993e41" d="m129.305 145.332-3.371-11.398 13.289.09Zm0 0"/><path fill="#994346" d="m139.363 70.64 5.367 11.126-26.34 10.984Zm0 0"/><path fill="#994044" d="m137.102 123.668-11.168 10.266-8.016-10.004Zm0 0"/><path fill="#993f43" d="m125.934 133.934 11.168-10.266 2.12 10.355Zm0 0"/><path fill="#993e42" d="m61.516 178.656 32.91 15.145-29.797 25.933Zm0 0"/><path fill="#993f42" d="m94.426 193.8-32.91-15.144 26.972-18.636Zm0 0"/><path fill="#c8724a" d="m190.578 196.773-16.601-.66 2.347-7.289Zm0 0"/><path fill="#cc683e" d="m152.8 168.176-.581-8.371 14.629 8.632Zm0 0"/><path fill="#cb6a40" d="m164.18 177.035-11.38-8.86 14.048.262Zm0 0"/><path fill="#993d41" d="m136.531 173.453-19.984 2.844 16.793-12.582ZM136.16 189.484l-19.613-13.187 19.984-2.844Zm0 0"/><path fill="#993e42" d="m116.547 176.297 8.086 25.715-30.207-8.211Zm0 0"/><path fill="#993e41" d="m124.633 202.012-8.086-25.715 19.613 13.187Zm0 0"/><path fill="#993d41" d="m146.926 231.207 13.222 8.535-33.636 10.156Zm0 0"/><path fill="#a49187" d="m225.2 66.883-2.262-18.48 11.69 16.214Zm0 0"/><path fill="#9a484a" d="M80.04 34.469 58.96 0h55.728ZM58.96 0l21.08 34.469-41.86-5.985Zm0 0"/><path fill="#cc693e" d="m214.953 186.008-20.781 1.847 7.695-17.41Zm0 0"/><path fill="#993d41" d="m242.203 201.027 14.387-4.488-8.055 15.856Zm0 0"/><path fill="#993d41" d="m256.59 196.54-14.387 4.487.055-9.718Zm0 0"/><path fill="#c76e48" d="m232.266 189.559 3.617 9.27-14.496 6.706Zm0 0"/><path fill="#c6653f" d="m235.883 198.828-3.617-9.27 9.992 1.75Zm0 0"/><path fill="#9a4144" d="m242.203 201.027-6.32-2.199 6.375-7.52Zm0 0"/><path fill="#a99b8b" d="m227.98 159.363 8.141.926-7.25 9.508Zm0 0"/><path fill="#a8b1a1" d="m227.98 159.363 4.504-8.531 3.637 9.457Zm0 0"/><path fill="#a8b0a0" d="m232.484 150.832 21.438-9.879-17.8 19.336Zm0 0"/><path fill="#c07c5b" d="m232.266 189.559 11.351-17.172-1.36 18.922Zm0 0"/><path fill="#cc683d" d="m243.617 172.387-11.351 17.172-3.395-19.762Zm0 0"/><path fill="#cb683e" d="m236.121 160.29 7.496 12.097-14.746-2.59Zm0 0"/><path fill="#993d41" d="M185.191 367.941 217.785 384h-44.09Zm0 0"/><path fill="#993d41" d="m217.785 384-32.594-16.059 16.618-8.773ZM159.621 353.34l25.57 14.601L173.695 384Zm0 0"/><path fill="#993d41" d="m185.281 351.793 16.528 7.375-16.618 8.773ZM0 328.344l34.785 17.094L0 384ZM34.785 345.438l2.14-38.047 32.532 24.207Zm0 0"/><path fill="#983d41" d="m344.078 311.348-18.73-42.551L384 268.34Zm0 0"/><path fill="#983d41" d="m325.348 268.797 18.73 42.55-35.27-3.738Zm0 0"/><path fill="#983d41" d="m344.078 311.348-28.953 27.59-6.316-31.329Zm0 0"/><path fill="#c86f48" d="m235.781 220.059-4.937 9.921-15.492-6.742Zm0 0"/><path fill="#993d41" d="m230.844 229.98 4.937-9.921 16.055 15.703Zm0 0"/><path fill="#993d41" d="m227.836 247.934 3.008-17.954 20.992 5.782ZM334.707 197.273 309.57 165.36l37.266-10.144ZM346.836 155.215l-37.266 10.144 7.075-38.922ZM278.43 174.016l31.14-8.657-9.039 39.121ZM309.57 165.36l25.137 31.913-34.176 7.207Zm0 0"/><path fill="#993d41" d="m309.57 165.36-28.254-32.188 35.329-6.734Zm0 0"/><path fill="#993d41" d="m281.316 133.172 28.254 32.187-31.14 8.657Zm0 0"/><path fill="#983d41" d="M348.95 348.367 384 328.793V384ZM320.871 384l28.078-35.633L384 384Zm0 0"/><path fill="#993d41" d="M258.598 358.648 217.785 384l8.367-28.121ZM175.527 309.48l-20.89 12.594 2.851-19.937Zm0 0"/><path fill="#aaaf9e" d="m175.527 309.48 7.5 2.88-3.71 10.449Zm0 0"/><path fill="#993d41" d="m159.621 353.34 25.66-1.547-.09 16.148ZM154.637 322.074l-21.055-15.37 23.906-4.567ZM133.582 306.703l11.281-32.223 12.625 27.657Zm0 0"/><path fill="#993d41" d="m133.582 306.703-21.95-24.176 33.231-8.047ZM133.582 306.703l21.055 15.371-25.157 15.871Zm0 0"/><path fill="#993d41" d="m144.863 274.48-33.23 8.047 14.879-32.629ZM160.148 239.742l-15.285 34.738-18.351-24.582ZM144.863 274.48l15.285-34.738 6.528 24.649Zm0 0"/><path fill="#ac4d40" d="m188.746 244.672 7.79-18.555 8.624 17.637Zm0 0"/><path fill="#be8565" d="m197.906 264.414-9.16-19.742 16.414-.918Zm0 0"/><path fill="#ca6d44" d="m188.746 244.672 9.16 19.742-17.5-.293Zm0 0"/><path fill="#cc673d" d="m220.574 245.965-22.668 18.45 7.254-20.661Zm0 0"/><path fill="#998074" d="m183.027 312.36 2.082-8.817 7.817 15.937Zm0 0"/><path fill="#983d41" d="m226.152 355.879-1.68-23.438 21.169.965Zm0 0"/><path fill="#983d41" d="m258.598 358.648-32.446-2.77 19.489-22.472Zm0 0"/><path fill="#993d41" d="m245.64 333.406-21.167-.965 7.375-15.543Zm0 0"/><path fill="#cc673d" d="m220.574 245.965-11.96 36.465-10.708-18.016Zm0 0"/><path fill="#ca6c42" d="m191.61 282.973 17.003-.543-6.472 17.636Zm0 0"/><path fill="#afa28d" d="m185.11 303.543 6.5-20.57 10.53 17.093Zm0 0"/><path fill="#a64a41" d="m208.613 282.43-17.004.543 6.297-18.559Zm0 0"/><path fill="#aea591" d="m175.527 309.48 9.582-5.937-2.082 8.816Zm0 0"/><path fill="#993d41" d="m231.848 316.898-9.5-8.828 9.09-10.105Zm0 0"/><path fill="#993d41" d="m231.848 316.898-.41-18.933 22.19 8.879Zm0 0"/><path fill="#993d41" d="m245.64 333.406-13.792-16.508 21.78-10.054Zm0 0"/><path fill="#994346" d="m165.988 51.41-4.254-21.789 17.657 9.473Zm0 0"/><path fill="#9a4749" d="m161.734 29.621 4.254 21.79-20.8-7.09Zm0 0"/><path fill="#9b4e4f" d="m165.988 51.41-17.699 6.492-3.101-13.582Zm0 0"/><path fill="#9b4f50" d="m148.29 57.902 17.698-6.492-6.261 9.844Zm0 0"/><path fill="#9b4b4d" d="m38.18 28.484 2.734 30.75L0 43.36Zm0 0"/><path fill="#993d41" d="m64.629 219.734-22.902 42.16-15.149-36.996ZM64.629 219.734l23.535 35.356-46.437 6.805Zm0 0"/><path fill="#993f43" d="m111.945 146.293 4.602 30.004-28.059-16.277Zm0 0"/><path fill="#993e42" d="M116.547 176.297 94.426 193.8l-5.938-33.781Zm0 0"/><path fill="#994245" d="m182.71 26.543 11.669-9.89 3.71 16.988Zm0 0"/><path fill="#994245" d="m161.734 29.621 20.977-3.078-3.32 12.55ZM217.867 32.293l-6.613 8.84-13.164-7.492Zm0 0"/><path fill="#aca997" d="m211.254 41.133-20.977 4.203 7.813-11.695Zm0 0"/><path fill="#994245" d="m211.254 41.133 6.613-8.84 5.07 16.11Zm0 0"/><path fill="#abab9a" d="m190.277 45.336 20.977-4.203-15.137 17.61Zm0 0"/><path fill="#aaaf9e" d="m176.273 61.297 14.004-15.961 5.84 13.406Zm0 0"/><path fill="#9b4d4e" d="m156.344 69.793-8.055-11.89 11.438 3.35Zm0 0"/><path fill="#9a4648" d="m148.29 57.902 8.054 11.891-16.98.848Zm0 0"/><path fill="#a9b1a1" d="m172.238 125.73-13.187-21.16 16.105-11.129ZM201.336 118.574l-29.098 7.156 10.887-29.285Zm0 0"/><path fill="#a27f77" d="m183.125 96.445 3.309-14.476 10.367 7.687Zm0 0"/><path fill="#a2847c" d="m186.434 81.969-3.309 14.476-7.969-3.004Zm0 0"/><path fill="#b6977d" d="m139.793 154.617 3.316 10.403-9.77-1.305Zm0 0"/><path fill="#993d41" d="m143.11 165.02-6.579 8.433-3.191-9.738Zm0 0"/><path fill="#a9b0a0" d="m153.273 136 18.965-10.27-5.707 23.567Zm0 0"/><path fill="#a9b1a1" d="m159.05 104.57-.624-18.445 16.73 7.316Zm0 0"/><path fill="#a9b1a1" d="m158.426 86.125.625 18.445-17.621-4.86Zm0 0"/><path fill="#994043" d="m144.73 81.766 13.696 4.359-16.996 13.586Zm0 0"/><path fill="#9a4648" d="m118.39 92.75 18.712 30.918-19.184.262ZM118.39 92.75l26.34-10.984-3.3 17.945Zm0 0"/><path fill="#9a494b" d="M137.102 123.668 118.39 92.75l23.039 6.96Zm0 0"/><path fill="#994346" d="m118.39 92.75-.472 31.18-28.73-4.512Zm0 0"/><path fill="#b29d86" d="m173.977 196.113-12.594-7.539 14.941.25Zm0 0"/><path fill="#993d41" d="m148.352 177.05-12.192 12.434.371-16.03ZM148.352 177.05l-11.82-3.597 6.577-8.433Zm0 0"/><path fill="#ca6d44" d="m161.383 188.574-13.031-11.523 15.828-.016Zm0 0"/><path fill="#cb6a3f" d="m152.8 168.176-4.448 8.875-5.243-12.031Zm0 0"/><path fill="#c6754f" d="m148.352 177.05 4.449-8.874 11.379 8.86Zm0 0"/><path fill="#993d41" d="m136.16 189.484 12.192-12.433 1.199 14.703Zm0 0"/><path fill="#afa38e" d="m148.352 177.05 13.03 11.524-11.831 3.18Zm0 0"/><path fill="#993d41" d="m136.563 221.035 19.62.016-9.257 10.156ZM156.184 221.05l3.964 18.692-13.222-8.535ZM153.594 205.746l-28.961-3.734 11.527-12.528ZM149.55 191.754l4.044 13.992-17.434-16.262Zm0 0"/><path fill="#a69d90" d="m207.648 70.754-15.437 1.652 3.906-13.664Zm0 0"/><path fill="#a59a8e" d="m207.648 70.754-9.683 9.203-5.754-7.55Zm0 0"/><path fill="#c7724b" d="m190.578 196.773-14.254-7.949 17.848-.969Zm0 0"/><path fill="#af5848" d="m205.137 205.938 9.816-19.93 6.434 19.527Zm0 0"/><path fill="#b87a5f" d="m205.137 205.938-10.965-18.083 20.781-1.847Zm0 0"/><path fill="#cb693f" d="m205.137 205.938-14.559-9.165 3.594-8.918Zm0 0"/><path fill="#cc683d" d="m221.387 205.535 14.496-6.707-2.477 11.953Zm0 0"/><path fill="#c7724b" d="m235.883 198.828 6.32 2.2-8.797 9.753Zm0 0"/><path fill="#abac9a" d="m152.219 159.805 14.773-.285-.144 8.917Zm0 0"/><path fill="#c86841" d="m255.484 165.07-11.867 7.317-7.496-12.098Zm0 0"/><path fill="#a59b8f" d="m253.922 140.953 1.562 24.117-19.363-4.78Zm0 0"/><path fill="#993d41" d="m278.43 174.016-22.946-8.946-1.562-24.117Zm0 0"/><path fill="#a2827a" d="m256.082 125.95-2.16 15.003-16.524-10.66Zm0 0"/><path fill="#a0746f" d="m253.922 140.953-21.438 9.879 4.914-20.539Zm0 0"/><path fill="#a99c89" d="m192.887 330.047-13.57-7.238 13.609-3.329Zm0 0"/><path fill="#993d41" d="m36.926 307.39-2.14 38.048L0 328.344Zm0 0"/><path fill="#be8463" d="m185.621 208.805 19.516-2.868-8.602 20.18Zm0 0"/><path fill="#cc693e" d="m205.137 205.938 10.215 17.3-18.817 2.88Zm0 0"/><path fill="#b7573f" d="m230.844 229.98-10.27 15.985-5.222-22.727Zm0 0"/><path fill="#cc683d" d="m220.574 245.965 10.27-15.985-3.008 17.954Zm0 0"/><path fill="#993d41" d="m243.617 172.387 10.852 7.207-12.211 11.715ZM254.469 179.594l2.12 16.945-14.331-5.23ZM255.484 165.07l-1.015 14.524-10.852-7.207Zm0 0"/><path fill="#993d41" d="m254.469 179.594 1.015-14.524 22.946 8.946Zm0 0"/><path fill="#993d41" d="m254.469 179.594 23.96-5.578-21.84 22.523Zm0 0"/><path fill="#983d41" d="m384 328.793-35.05 19.574-4.872-37.02Zm0 0"/><path fill="#993d41" d="m167.574 327.379 7.953-17.899 3.79 13.329ZM175.527 309.48l-7.953 17.899-12.937-5.305Zm0 0"/><path fill="#993d41" d="m167.574 327.379-7.953 25.96-4.984-31.265Zm0 0"/><path fill="#9e4241" d="m218.066 280.93-9.453 1.5 11.961-36.465Zm0 0"/><path fill="#cc673d" d="m218.066 280.93 2.508-34.965 7.262 1.969Zm0 0"/><path fill="#993d41" d="m218.066 280.93 33.52-9.426-20.149 26.46Zm0 0"/><path fill="#993d41" d="m218.066 280.93 9.77-32.996 23.75 23.57Zm0 0"/><path fill="#c47853" d="m191.61 282.973-11.204-18.852 17.5.293Zm0 0"/><path fill="#993d41" d="m172.746 291.602-27.883-17.122 21.813-10.09Zm0 0"/><path fill="#acab98" d="m180.406 264.121-7.66 27.48-6.07-27.21Zm0 0"/><path fill="#c0805f" d="m172.746 291.602 7.66-27.48 11.203 18.85Zm0 0"/><path fill="#ba8d70" d="m172.746 291.602 18.863-8.63-6.5 20.571Zm0 0"/><path fill="#993d41" d="m224.473 332.441-12.024-15.418 19.399-.125Zm0 0"/><path fill="#993d41" d="m208.328 328.45 4.121-11.427 12.024 15.418ZM212.45 317.023l9.898-8.953 9.5 8.828Zm0 0"/><path fill="#993d41" d="m212.45 317.023 2.152-16.003 7.746 7.05Zm0 0"/><path fill="#c86f47" d="m214.602 301.02-5.989-18.59 9.453-1.5Zm0 0"/><path fill="#9f4240" d="m208.613 282.43 5.989 18.59-12.461-.954Zm0 0"/><path fill="#993d41" d="m231.438 297.965-16.836 3.055 3.464-20.09Zm0 0"/><path fill="#993d41" d="m222.348 308.07-7.746-7.05 16.835-3.055Zm0 0"/><path fill="#a9b1a1" d="m172.723 55.379-6.735-3.969 13.403-12.316Zm0 0"/><path fill="#a9b1a1" d="m165.988 51.41 6.735 3.969-12.996 5.875Zm0 0"/><path fill="#a9b1a0" d="m190.277 45.336-17.554 10.043 6.668-16.285Zm0 0"/><path fill="#a9b1a1" d="m172.723 55.379 3.55 5.918-16.546-.043Zm0 0"/><path fill="#ada894" d="m176.273 61.297-3.55-5.918 17.554-10.043Zm0 0"/><path fill="#993f42" d="m133.34 163.715-16.793 12.582-4.602-30.004Zm0 0"/><path fill="#a9b1a1" d="m190.277 45.336-3.527-8.73 11.34-2.965Zm0 0"/><path fill="#994245" d="m186.75 36.605-4.04-10.062 15.38 7.098Zm0 0"/><path fill="#a9b0a0" d="m186.75 36.605 3.527 8.73-10.886-6.241Zm0 0"/><path fill="#994245" d="m182.71 26.543 4.04 10.062-7.36 2.489Zm0 0"/><path fill="#a28179" d="m225.2 66.883-10.731-9.418 8.469-9.063Zm0 0"/><path fill="#a8ae9f" d="m214.469 57.465-3.215-16.332 11.684 7.27Zm0 0"/><path fill="#a79d90" d="m211.254 41.133 3.215 16.332-18.352 1.277Zm0 0"/><path fill="#a17972" d="m214.469 57.465-6.82 13.289-11.532-12.012Zm0 0"/><path fill="#a2837b" d="m207.648 70.754 6.82-13.29 10.731 9.419Zm0 0"/><path fill="#a7a294" d="m192.21 72.406-8.769-3.234 12.676-10.43Zm0 0"/><path fill="#a8ac9c" d="m183.441 69.172-7.168-7.875 19.844-2.555Zm0 0"/><path fill="#a9b1a1" d="m176.273 61.297-4.664 14.867-11.882-14.91Zm0 0"/><path fill="#a9b1a1" d="m171.61 76.164-15.266-6.371 3.383-8.54Zm0 0"/><path fill="#a8a798" d="m171.61 76.164 11.831-6.992 2.993 12.797Zm0 0"/><path fill="#a9b09f" d="m183.441 69.172-11.832 6.992 4.664-14.867Zm0 0"/><path fill="#a9b1a1" d="m149.3 122.273-12.198 1.395 4.328-23.957Zm0 0"/><path fill="#a9b1a1" d="m159.05 104.57-9.75 17.703-7.87-22.562Zm0 0"/><path fill="#a9b1a0" d="m172.238 125.73-22.937-3.457 9.75-17.703Zm0 0"/><path fill="#a9b1a1" d="m137.102 123.668 12.199-1.395-10.078 11.75Zm0 0"/><path fill="#a2837b" d="m186.434 81.969 11.53-2.012-1.163 9.7Zm0 0"/><path fill="#a6998d" d="m197.965 79.957-11.531 2.012 5.777-9.563Zm0 0"/><path fill="#a8a798" d="m186.434 81.969-2.993-12.797 8.77 3.234Zm0 0"/><path fill="#a9b1a1" d="m197.738 98.813 13.059.492-9.461 19.27ZM210.797 99.305l-13.059-.493 2.016-2.253Zm0 0"/><path fill="#a9b1a1" d="m199.754 96.559-2.016 2.254-.937-9.157Zm0 0"/><path fill="#a9b1a1" d="m197.738 98.813-14.613-2.368 13.676-6.789Zm0 0"/><path fill="#a8b1a1" d="m199.754 96.559-2.953-6.903 13.996 9.649Zm0 0"/><path fill="#a8ab9c" d="m227.98 159.363-7.156-6.988 11.66-1.543Zm0 0"/><path fill="#a8af9f" d="m223.836 112.691 9.07-16.941 14.266 9.074Zm0 0"/><path fill="#a8ad9d" d="m223.836 112.691-1.254-17.558 10.324.617Zm0 0"/><path fill="#a0706b" d="m201.336 118.574 22.5-5.883-6.988 15.22Zm0 0"/><path fill="#cc693f" d="m152.219 159.805.582 8.37-9.692-3.155Zm0 0"/><path fill="#acab98" d="m139.793 154.617 12.426 5.188-9.11 5.215Zm0 0"/><path fill="#bb8b6e" d="m161.383 188.574 2.797-11.539 12.144 11.79Zm0 0"/><path fill="#c9663f" d="m215.352 223.238-10.192 20.516-8.625-17.637Zm0 0"/><path fill="#a84a40" d="m215.352 223.238 5.222 22.727-15.414-2.211Zm0 0"/><path fill="#c27d5a" d="m169.945 206.04 10.086-3.864 5.59 6.629Zm0 0"/><path fill="#c96e46" d="m180.031 202.176-6.054-6.063 16.601.66Zm0 0"/><path fill="#ca6d43" d="m185.621 208.805-5.59-6.63 10.547-5.402Zm0 0"/><path fill="#a9b1a1" d="m166.531 149.297.461 10.223-14.773.285Zm0 0"/><path fill="#a48d83" d="m182.21 152.66-9.972-26.93 21.219 13.13Zm0 0"/><path fill="#9f6c68" d="m172.238 125.73 9.973 26.93-15.68-3.363Zm0 0"/><path fill="#cc693f" d="m201.867 170.445-18.312.567 4.418-10.242Zm0 0"/><path fill="#cc683d" d="m183.555 171.012 18.312-.567-7.695 17.41Zm0 0"/><path fill="#cc693e" d="m176.324 188.824 7.23-17.812 10.618 16.843Zm0 0"/><path fill="#cc683e" d="m208.328 328.45-15.441 1.597.039-10.567Zm0 0"/><path fill="#cc693f" d="m205.137 205.938-19.516 2.867 4.957-12.032Zm0 0"/><path fill="#983d41" d="M348.95 348.367 320.87 384l-5.746-45.062ZM348.95 348.367l-33.825-9.43 28.953-27.59Zm0 0"/><path fill="#993d41" d="m167.574 327.379 15.82 14.285-23.773 11.676Zm0 0"/><path fill="#993d41" d="m159.621 353.34 23.774-11.676 1.886 10.129Zm0 0"/><path fill="#acaa98" d="m192.887 330.047-9.492 11.617-4.079-18.855Zm0 0"/><path fill="#993d41" d="m183.395 341.664-15.82-14.285 11.741-4.57ZM172.746 291.602l2.781 17.878-18.039-7.343Zm0 0"/><path fill="#b0a28d" d="m172.746 291.602 12.363 11.941-9.582 5.937Zm0 0"/><path fill="#993d41" d="m144.863 274.48 27.883 17.122-15.258 10.535Zm0 0"/><path fill="#cc673d" d="m198.852 313.148 13.597 3.875-4.12 11.426Zm0 0"/><path fill="#cb6a40" d="m198.852 313.148 9.476 15.301-15.402-8.969Zm0 0"/><path fill="#9c8a7d" d="m185.11 303.543 13.742 9.605-5.926 6.332Zm0 0"/><path fill="#cc683d" d="m212.45 317.023-13.598-3.875 15.75-12.128Zm0 0"/><path fill="#ca6c42" d="m198.852 313.148-13.743-9.605 17.032-3.477Zm0 0"/><path fill="#cc683d" d="m214.602 301.02-15.75 12.128 3.289-13.082Zm0 0"/><path fill="#a9b1a1" d="m171.61 76.164-13.184 9.961-2.082-16.332Zm0 0"/><path fill="#a5968b" d="m158.426 86.125 13.183-9.96 3.547 17.276Zm0 0"/><path fill="#a5978b" d="m171.61 76.164 14.824 5.805-11.278 11.472Zm0 0"/><path fill="#a0736d" d="m207.648 70.754 5.133 12.637-14.816-3.434Zm0 0"/><path fill="#9f6b67" d="m212.781 83.39-15.98 6.266 1.164-9.699Zm0 0"/><path fill="#a07670" d="m223.781 77.262-11 6.129-5.133-12.637Zm0 0"/><path fill="#a9b1a1" d="m196.8 89.656 15.981-6.265-1.984 15.914Zm0 0"/><path fill="#a49186" d="m223.832 131.555-12.648 6.324 5.664-9.969Zm0 0"/><path fill="#9c5757" d="m201.336 118.574 9.848 19.305-17.727.98Zm0 0"/><path fill="#a9b1a1" d="m193.457 138.86-21.219-13.13 29.098-7.156Zm0 0"/><path fill="#9f6e6a" d="m211.184 137.879-9.848-19.305 15.512 9.336Zm0 0"/><path fill="#a7aa9b" d="m223.836 112.691-13.04-13.386 11.786-4.172Zm0 0"/><path fill="#a5988c" d="m201.336 118.574 9.46-19.27 13.04 13.387Zm0 0"/><path fill="#a8b1a1" d="m212.781 83.39 9.801 11.743-11.785 4.172Zm0 0"/><path fill="#a9b1a1" d="m152.219 159.805-5.871-15.094 20.183 4.586Zm0 0"/><path fill="#a9b1a1" d="m139.793 154.617 6.555-9.906 5.87 15.094Zm0 0"/><path fill="#9d5f5d" d="m166.531 149.297-20.183-4.586 6.925-8.711Zm0 0"/><path fill="#a28179" d="m153.273 136-6.925 8.71-7.125-10.687Zm0 0"/><path fill="#a8b1a1" d="m146.348 144.71-17.043.622 9.918-11.309Zm0 0"/><path fill="#a9b1a1" d="m146.348 144.71-6.555 9.907-10.488-9.285Zm0 0"/><path fill="#a9b09f" d="m149.3 122.273 22.938 3.457L153.273 136Zm0 0"/><path fill="#a9b1a1" d="M149.3 122.273 153.274 136l-14.05-1.977Zm0 0"/><path fill="#cb6a3f" d="m183.555 171.012-19.375 6.023 2.668-8.597Zm0 0"/><path fill="#bb8b6e" d="m164.18 177.035 19.375-6.023-7.23 17.812Zm0 0"/><path fill="#cc693e" d="m215.352 223.238-10.215-17.3 16.25-.403Zm0 0"/><path fill="#abac9a" d="m156.184 221.05 9.375 5.977-5.41 12.715Zm0 0"/><path fill="#b89176" d="m165.559 227.027 6.906 18.13-12.317-5.415Zm0 0"/><path fill="#acab98" d="m153.594 205.746 7.117 4.527-4.527 10.778Zm0 0"/><path fill="#993d41" d="m153.594 205.746 2.59 15.305-19.621-.016Zm0 0"/><path fill="#993d41" d="m153.594 205.746-17.031 15.29-11.93-19.024Zm0 0"/><path fill="#aaaf9e" d="m149.55 191.754 10.114 9.016-6.07 4.976Zm0 0"/><path fill="#bb8a6c" d="m159.664 200.77 1.047 9.503-7.117-4.527Zm0 0"/><path fill="#c47853" d="m161.383 188.574-1.719 12.196-10.113-9.016Zm0 0"/><path fill="#b98366" d="m160.71 210.273-1.046-9.503 10.281 5.27Zm0 0"/><path fill="#b39c85" d="m168.172 215.508-7.461-5.235 9.234-4.234Zm0 0"/><path fill="#c27c59" d="m168.172 215.508 1.773-9.469 15.676 2.766Zm0 0"/><path fill="#b5987f" d="m178.852 227.125-10.68-11.617 17.45-6.703Zm0 0"/><path fill="#ada08c" d="m160.71 210.273 7.462 5.235-11.988 5.543Zm0 0"/><path fill="#b29880" d="m168.172 215.508-2.613 11.52-9.375-5.977Zm0 0"/><path fill="#c47853" d="m165.559 227.027 2.613-11.52 10.68 11.618Zm0 0"/><path fill="#a17c75" d="m225.2 66.883-1.419 10.379-16.133-6.508Zm0 0"/><path fill="#a9b1a1" d="m182.21 152.66 18.77 1.13-13.007 6.98ZM197.738 98.813l3.598 19.761-18.211-22.129Zm0 0"/><path fill="#a0716c" d="m200.98 153.79 10.204-15.911 9.64 14.496Zm0 0"/><path fill="#9e6461" d="m211.184 137.879-10.204 15.91-7.523-14.93Zm0 0"/><path fill="#a17c76" d="m200.98 153.79-18.77-1.13 11.247-13.8Zm0 0"/><path fill="#cc683d" d="m214.953 186.008 1.055-18.73 12.863 2.519ZM216.008 167.277l-1.055 18.73-13.086-15.562Zm0 0"/><path fill="#a59589" d="m227.98 159.363-11.972 7.914 4.816-14.902Zm0 0"/><path fill="#aa9687" d="m216.008 167.277 11.972-7.914.891 10.434Zm0 0"/><path fill="#cc683d" d="m177.875 159.902 10.098.868-4.418 10.242Zm0 0"/><path fill="#cc693e" d="m166.848 168.438 11.027-8.536 5.68 11.11Zm0 0"/><path fill="#aaae9d" d="m177.875 159.902-11.027 8.536.144-8.918Zm0 0"/><path fill="#a9b1a1" d="m177.875 159.902 4.336-7.242 5.762 8.11ZM182.21 152.66l-4.335 7.242-11.344-10.605Zm0 0"/><path fill="#a9b1a1" d="m177.875 159.902-10.883-.382-.46-10.223Zm0 0"/><path fill="#b5977e" d="m178.852 227.125-6.387 18.031-6.906-18.129Zm0 0"/><path fill="#c96e46" d="m178.852 227.125 6.77-18.32 10.913 17.312Zm0 0"/><path fill="#a2817a" d="m225.2 66.883 9.343 8.633-10.762 1.746Zm0 0"/><path fill="#994043" d="m249.492 76.293-14.949-.777.086-10.899Zm0 0"/><path fill="#a27e77" d="m234.543 75.516-9.344-8.633 9.43-2.266Zm0 0"/><path fill="#994144" d="m234.543 75.516 14.95.777-12.481 10.852Zm0 0"/><path fill="#993d41" d="m204.906 350.688 21.246 5.19-24.343 3.29ZM224.473 332.441l-19.567 18.247 3.422-22.239Zm0 0"/><path fill="#983d41" d="m226.152 355.879-21.246-5.192 19.567-18.246Zm0 0"/><path fill="#a38a81" d="m211.184 137.879 13.054 2.48-3.414 12.016Zm0 0"/><path fill="#9f6f6a" d="m220.824 152.375 3.414-12.016 8.246 10.473Zm0 0"/><path fill="#a38d83" d="m224.238 140.36-13.054-2.481 12.648-6.324Zm0 0"/><path fill="#a9b1a1" d="m200.98 153.79.887 16.655-13.894-9.675Zm0 0"/><path fill="#a9ae9e" d="m200.98 153.79 15.028 13.487-14.14 3.168Zm0 0"/><path fill="#a17872" d="M216.008 167.277 200.98 153.79l19.844-1.414Zm0 0"/><path fill="#b89175" d="m188.746 244.672-9.894-17.547 17.683-1.008Zm0 0"/><path fill="#c7724a" d="m178.852 227.125 9.894 17.547-16.281.484Zm0 0"/><path fill="#c37c58" d="m173.977 196.113 6.054 6.063-10.086 3.863Zm0 0"/><path fill="#b5977d" d="m159.664 200.77 14.313-4.657-4.032 9.926Zm0 0"/><path fill="#b29d85" d="m161.383 188.574 12.594 7.54-14.313 4.656Zm0 0"/><path fill="#a8a697" d="m232.906 95.75-5.644-8 9.75-.605Zm0 0"/><path fill="#a0736d" d="m227.262 87.75 7.281-12.234 2.469 11.629Zm0 0"/><path fill="#a7a395" d="m222.582 95.133 4.68-7.383 5.644 8Zm0 0"/><path fill="#9f6a66" d="m234.543 75.516-7.281 12.234-3.48-10.488Zm0 0"/><path fill="#9e6764" d="m227.262 87.75-14.48-4.36 11-6.128Zm0 0"/><path fill="#a6a295" d="m227.262 87.75-4.68 7.383-9.8-11.742Zm0 0"/><path fill="#993d41" d="m201.27 349.8 3.636.887-3.097 8.481Zm0 0"/><path fill="#c9683f" d="m204.906 350.688-3.636-.887 7.058-21.352Zm0 0"/><path fill="#ca673e" d="m208.328 328.45-7.058 21.35-8.383-19.753Zm0 0"/><path fill="#993d41" d="m201.27 349.8.539 9.368-16.528-7.375Zm0 0"/><path fill="#b88f73" d="m183.395 341.664 17.875 8.137-15.989 1.992Zm0 0"/><path fill="#c57752" d="m201.27 349.8-17.875-8.136 9.492-11.617Zm0 0"/><path fill="#9f6b67" d="m237.398 130.293-13.16 10.066-.406-8.804Zm0 0"/><path fill="#9f6e6a" d="m224.238 140.36 13.16-10.067-4.914 20.539Zm0 0"/><path fill="#c6754f" d="m172.465 245.156 7.941 18.965-13.73.27Zm0 0"/><path fill="#b39c85" d="m172.465 245.156 16.281-.484-8.34 19.45Zm0 0"/><path fill="#a9b1a1" d="m160.148 239.742 12.317 5.414-5.79 19.235Zm0 0"/></svg>