<svg xmlns="http://www.w3.org/2000/svg" width="512" height="512" viewBox="0 0 384 384"><path fill="#740977" d="M70.871 0h63.344l-24.598 45.11Zm0 0"/><path fill="#720979" d="M39.16 173.125 0 151.563l43.043-30.364Zm0 0"/><path fill="#680983" d="m122.668 266.355 7.426-38.664 15.945 26.383Zm0 0"/><path fill="#670a84" d="M.004 298.926 0 248.078l43.152 21.203Zm0 0"/><path fill="#5d0a8e" d="m285.992 225.371-10.625 55.797-23.824-36.82Zm0 0"/><path fill="#5c098f" d="m285.992 225.371 40.73 27.988-51.355 27.809Zm0 0"/><path fill="#5d098e" d="m326.723 253.36-40.73-27.989 33.66-23.473Zm0 0"/><path fill="#5c098f" d="m355.176 202.531-28.453 50.828-7.07-51.46Zm0 0"/><path fill="#7e096d" d="M76.445 139.79 39.16 173.124l3.883-51.926Zm0 0"/><path fill="#610a8b" d="M303.25 51.215 314.215 0l27.375 56.758Zm0 0"/><path fill="#650a87" d="m274.879 65.586 35.754 31.187-37.063 8.211Zm0 0"/><path fill="#5f0a8d" d="m349.063 103.355-7.473-46.597L384 79.738Zm0 0"/><path fill="#6b0a80" d="M39.672 220.668 0 248.078v-47.73Zm0 0"/><path fill="#6e097d" d="m39.16 173.125.512 47.543L0 200.348Zm0 0"/><path fill="#70097b" d="m39.672 220.668-.512-47.543 37.703 13.75Zm0 0"/><path fill="#6b0980" d="m0 248.078 39.672-27.41 3.48 48.613Zm0 0"/><path fill="#6e097d" d="m122.668 266.355-36.613-27.707 44.039-10.957Zm0 0"/><path fill="#690982" d="m88.332 297.648-2.277-59 36.613 27.707Zm0 0"/><path fill="#640987" d="m119.695 341.695-31.363-44.047 49.68 3.641Zm0 0"/><path fill="#620989" d="m69.18 343.605 19.152-45.957 31.363 44.047Zm0 0"/><path fill="#5c098f" d="M183.043 367.895 156.555 384l5.386-34.992Zm0 0"/><path fill="#5e098d" d="m156.555 384-36.86-42.305 42.246 7.313ZM156.555 384l-60.11-.004 23.25-42.3Zm0 0"/><path fill="#630988" d="M22.473 340.242.003 298.926l44.49 10.918Zm0 0"/><path fill="#650985" d="m88.332 297.648-43.84 12.196-1.34-40.563Zm0 0"/><path fill="#640987" d="m69.18 343.605-24.688-33.761 43.84-12.196Zm0 0"/><path fill="#5d0a8f" d="m384 257.824-28.824-55.293 28.824-.035Zm0 0"/><path fill="#5c098f" d="m238.586 265.586 12.957-21.238 23.824 36.82Zm0 0"/><path fill="#60098b" d="m265.906 194.91 20.086 30.461-32.566-6.465Zm0 0"/><path fill="#5c0a8f" d="m384 145.629-28.824 56.902-25.719-50.62Zm0 0"/><path fill="#610a8a" d="m349.063 103.355-19.606 48.555-18.824-55.137Zm0 0"/><path fill="#5f098c" d="m119.695 341.695 33.387-19.504 8.86 26.817Zm0 0"/><path fill="#5c098f" d="m275.367 281.168-40.25 7.184 3.469-22.766Zm0 0"/><path fill="#5c0a8f" d="m235.117 288.352-13.86-14.946 17.329-7.82Zm0 0"/><path fill="#5c098f" d="m326.723 253.36-14.028 53.156-37.328-25.348Zm0 0"/><path fill="#5b0990" d="m312.695 306.516-37.46 30.816.132-56.164Zm0 0"/><path fill="#5b0a90" d="m275.234 337.332 37.461-30.816-2.285 32.847Zm0 0"/><path fill="#7f096c" d="m33.02 35.508 34.093 15.14-29.328 24.145Zm0 0"/><path fill="#730978" d="M0 151.563V98.797l43.043 22.402Zm0 0"/><path fill="#70097b" d="m86.055 238.648-9.192-51.773 33.278 9.023Zm0 0"/><path fill="#71097b" d="m0 151.563 39.16 21.562L0 200.348Zm0 0"/><path fill="#680b85" d="m187.023 0 27.782 22.324-28.16.52Zm0 0"/><path fill="#650a87" d="M214.805 22.324 187.023 0h62.836Zm0 0"/><path fill="#640987" d="m249.55 38.773 27.759-6.39-2.43 33.203Zm0 0"/><path fill="#690982" d="M247.164 62.258 226.31 49.812l23.242-11.039Zm0 0"/><path fill="#670984" d="m247.164 62.258 2.387-23.485 25.328 26.813Zm0 0"/><path fill="#630a89" d="M249.86 0h64.355l-36.906 32.383Zm0 0"/><path fill="#680983" d="m249.55 38.773-34.745-16.449L249.859 0Zm0 0"/><path fill="#630988" d="M249.55 38.773 249.86 0l27.449 32.383Zm0 0"/><path fill="#620a8a" d="M277.309 32.383 314.215 0 303.25 51.215Zm0 0"/><path fill="#650a86" d="m277.309 32.383 25.941 18.832-28.371 14.37Zm0 0"/><path fill="#5e0b8e" d="m384 79.738-42.41-22.98L384 0Zm0 0"/><path fill="#5e0a8d" d="M341.59 56.758 314.215 0H384Zm0 0"/><path fill="#610a8b" d="m349.063 103.355-38.43-6.582 30.957-40.015Zm0 0"/><path fill="#620a8a" d="m341.59 56.758-30.957 40.015-7.383-45.558Zm0 0"/><path fill="#640a87" d="m303.25 51.215 7.383 45.558-35.754-31.187Zm0 0"/><path fill="#700a7c" d="m137.207 78.168 18.387-2.246-3.567 15.285Zm0 0"/><path fill="#6d198f" d="m155.594 75.922 4.652 10.797-8.219 4.488Zm0 0"/><path fill="#fcfafd" d="m160.246 86.719 22.629 10.297-18.258 6.586Zm0 0"/><path fill="#fefefe" d="m205.152 85.785-3.953 8.543-5.297-3.965Zm0 0"/><path fill="#6a0d85" d="m247.164 62.258-13.46 4.715-7.395-17.16Zm0 0"/><path fill="#690e88" d="M214.805 22.324 194.02 34.695l-7.375-11.851Zm0 0"/><path fill="#680b84" d="m226.309 49.813-11.504-27.489 34.746 16.45Zm0 0"/><path fill="#780973" d="m109.617 45.11 27.59 33.058-14.945 8.945Zm0 0"/><path fill="#80096b" d="M83.98 93.957 67.113 50.648l42.504-5.539Zm0 0"/><path fill="#830968" d="M67.113 50.648 83.98 93.957 37.785 74.793Zm0 0"/><path fill="#7c096f" d="m83.98 93.957 25.637-48.848 12.645 42.004Zm0 0"/><path fill="#740977" d="M155.406 28.621 109.617 45.11 134.215 0Zm0 0"/><path fill="#730978" d="m187.023 0-31.617 28.621L134.215 0Zm0 0"/><path fill="#6a0b82" d="m186.645 22.844-31.239 5.777L187.023 0Zm0 0"/><path fill="#790972" d="m109.617 45.11 45.79-16.489-10.516 29Zm0 0"/><path fill="#e9b80d" d="m180.605 185.77 18.258-.329-7.992 16.637Zm0 0"/><path fill="#ad4e18" d="m230.832 185.32-16.125-.75 12.156-14.699Zm0 0"/><path fill="#c37b1a" d="m214.707 184.57 16.125.75-6.773 14.075Zm0 0"/><path fill="#60098b" d="m237.93 212.086 9.02-8.496 6.476 15.316Zm0 0"/><path fill="#650986" d="m.004 298.926 43.148-29.645 1.34 40.563Zm0 0"/><path fill="#70097b" d="m130.094 227.691-44.04 10.957 24.087-42.75Zm0 0"/><path fill="#70097b" d="m137.594 201.516-7.5 26.175-19.953-31.793Zm0 0"/><path fill="#70097b" d="m135.441 185.395 2.153 16.12-27.453-5.617Zm0 0"/><path fill="#fdf2bc" d="m178.156 320.805 9.496-15.782 8.043 16.293Zm0 0"/><path fill="#60098b" d="m96.445 383.996-27.265-40.39 50.515-1.91Zm0 0"/><path fill="#5e098d" d="m46.102 384 23.078-40.395 27.265 40.391Zm0 0"/><path fill="#5e098d" d="M69.18 343.605 46.102 384l-23.63-43.758Zm0 0"/><path fill="#5b0990" d="M22.473 340.242 46.102 384H0Zm0 0"/><path fill="#61098a" d="m0 339.664.004-40.738 22.469 41.316ZM44.492 309.844l24.688 33.761-46.707-3.363Zm0 0"/><path fill="#5c098f" d="m384 257.824-57.277-4.465 28.453-50.828Zm0 0"/><path fill="#5f098c" d="m253.426 218.906 32.566 6.465-34.449 18.977Zm0 0"/><path fill="#dbae3d" d="m231.695 226.313-5.382-10.954 11.617-3.273Zm0 0"/><path fill="#5e098d" d="m253.426 218.906-21.73 7.406 6.234-14.226Zm0 0"/><path fill="#5d098e" d="m231.695 226.313 21.73-7.407-1.882 25.442Zm0 0"/><path fill="#5c0a8f" d="m223.8 257.934 3.079-6.293 11.707 13.945Zm0 0"/><path fill="#5c098f" d="m226.879 251.64 24.664-7.292-12.957 21.238Zm0 0"/><path fill="#630a88" d="m288.078 137.883-14.508-32.899 37.063-8.21Zm0 0"/><path fill="#640a88" d="m288.078 137.883 4.621 42.488-31.101-22.848Zm0 0"/><path fill="#630a88" d="m251.855 137.648 36.223.235-26.48 19.64Zm0 0"/><path fill="#690982" d="m273.57 104.984 14.508 32.899-36.223-.235Zm0 0"/><path fill="#5e0a8d" d="m292.7 180.371 26.952 21.527-33.66 23.473Zm0 0"/><path fill="#600a8b" d="m265.906 194.91 26.793-14.539-6.707 45Zm0 0"/><path fill="#5d0a8f" d="M355.176 202.531 384 145.63v56.867Zm0 0"/><path fill="#5c0a8f" d="M349.203 297.21 384 257.825v60.653Zm0 0"/><path fill="#5b0a90" d="m183.043 367.895 49.973 16.109-76.461-.004ZM275.234 337.332l35.176 2.031-.898 44.637Zm0 0"/><path fill="#5b0990" d="m275.234 337.332-42.218 46.672 4.066-41.8Zm0 0"/><path fill="#5b0a90" d="m233.016 384.004 42.218-46.672L309.512 384Zm0 0"/><path fill="#680983" d="m88.332 297.648 34.336-31.293 15.344 34.934Zm0 0"/><path fill="#f1d88d" d="m180.258 254.914 12.183-8.98-4.984 24.125Zm0 0"/><path fill="#780974" d="M33.02 35.508 0 54.218-.004-.003Zm0 0"/><path fill="#720979" d="M70.871 0 33.02 35.508-.004-.004Zm0 0"/><path fill="#770974" d="M33.02 35.508 70.87 0l-3.758 50.648ZM0 54.219l37.785 20.574L0 98.797Zm0 0"/><path fill="#7a0971" d="m37.785 74.793 5.258 46.406L0 98.797Zm0 0"/><path fill="#790a73" d="M37.785 74.793 0 54.219l33.02-18.711Zm0 0"/><path fill="#6b0980" d="m88.332 297.648-45.18-28.367 42.903-30.633Zm0 0"/><path fill="#830968" d="m83.98 93.957-40.937 27.242-5.258-46.406Zm0 0"/><path fill="#820969" d="M76.445 139.79 43.043 121.2 83.98 93.956Zm0 0"/><path fill="#7d096e" d="m112.66 125.703-2.605 29.207-33.61-15.12Zm0 0"/><path fill="#7e096c" d="M112.66 125.703 76.445 139.79l7.535-45.832Zm0 0"/><path fill="#770974" d="m76.445 139.79.418 47.085-37.703-13.75Zm0 0"/><path fill="#670984" d="m253.855 84.316-6.69-22.058 27.714 3.328Zm0 0"/><path fill="#6b0980" d="m253.855 84.316-17.453-6.812 10.762-15.246Zm0 0"/><path fill="#690a83" d="m253.855 84.316 21.024-18.73-1.309 39.398Zm0 0"/><path fill="#670984" d="m253.855 84.316 19.715 20.668-22.902 1.864Zm0 0"/><path fill="#5d0a8e" d="M349.063 103.355 384 145.63l-54.543 6.281Zm0 0"/><path fill="#fbf9fb" d="m189.707 58.063 4.961-14.883 13.055 10.98Zm0 0"/><path fill="#fdfdfe" d="m178.582 39.242 16.086 3.938-4.961 14.883Zm0 0"/><path fill="#790972" d="m109.617 45.11 35.274 12.511-7.684 20.547Zm0 0"/><path fill="#c2a0cf" d="m182.875 97.016-11.168 18.468-7.09-11.882Zm0 0"/><path fill="#ddcde7" d="m203.691 73.594-13.984-15.531 18.016-3.903Zm0 0"/><path fill="#fefdfe" d="m205.152 85.785 7.403 5.11-11.356 3.433Zm0 0"/><path fill="#71339b" d="m233.625 148.629-2.27-11.535 20.5.554Zm0 0"/><path fill="#680a84" d="m273.57 104.984-21.715 32.664-1.187-30.8Zm0 0"/><path fill="#9b83b4" d="m233.707 124.363-8.098-9.222 9.09-5.192Zm0 0"/><path fill="#aa99b6" d="m236.402 77.504 1.903 14.258-9.293-5.992Zm0 0"/><path fill="#fcfbfc" d="m241.219 106.238-2.914-14.476 12.363 15.086Zm0 0"/><path fill="#670a84" d="m238.305 91.762 15.55-7.446-3.187 22.532Zm0 0"/><path fill="#6c0b81" d="m253.855 84.316-15.55 7.446-1.903-14.258Zm0 0"/><path fill="#a291b8" d="m243.414 113.89-9.707 10.473.992-14.414Zm0 0"/><path fill="#a48cbc" d="m241.219 106.238 2.195 7.653-8.715-3.942Zm0 0"/><path fill="#a894bc" d="m243.414 113.89 8.441 23.758-18.148-13.285Zm0 0"/><path fill="#c1a2d2" d="m243.414 113.89-2.195-7.652 9.449.61Zm0 0"/><path fill="#e3d5e6" d="m251.855 137.648-8.44-23.757 7.253-7.043Zm0 0"/><path fill="#dcd8e4" d="m238.305 91.762-7.489 4.636-1.804-10.628Zm0 0"/><path fill="#d9d3e2" d="m230.816 96.398 7.489-4.636 2.914 14.476Zm0 0"/><path fill="#770974" d="m128.508 147.914 4.789 9.254-23.242-2.258Zm0 0"/><path fill="#840967" d="m137.797 133.668-9.29 14.246-18.452 6.996Zm0 0"/><path fill="#790973" d="m137.797 133.668-27.742 21.242 2.605-29.207Zm0 0"/><path fill="#760a76" d="m142.125 97.637-4.918-19.469 14.82 13.039Zm0 0"/><path fill="#780a73" d="m137.207 78.168 4.918 19.469-19.863-10.524Zm0 0"/><path fill="#7a0971" d="m136.281 121.79 1.516 11.878-25.137-7.965Zm0 0"/><path fill="#780973" d="m76.863 186.875-.418-47.086 33.61 15.121Zm0 0"/><path fill="#d8a323" d="m190.871 202.078-16.894 1.602 6.628-17.91Zm0 0"/><path fill="#dfad19" d="m156.191 172.004-7.836-6.043 10.473-3.133Zm0 0"/><path fill="#f3c60c" d="m162.39 169.457-6.199 2.547 2.637-9.176Zm0 0"/><path fill="#670a84" d="m143.691 191.688-8.25-6.293 10.211-.079Zm0 0"/><path fill="#70097c" d="m136.8 173.992-1.359 11.403-8.195-14.23Zm0 0"/><path fill="#670984" d="m130.094 227.691 26.972 4.504-11.027 21.88Zm0 0"/><path fill="#630b89" d="m157.066 232.195 3.356 9.692-14.383 12.187Zm0 0"/><path fill="#6c0a80" d="m236.402 77.504-2.699-10.531 13.461-4.715Zm0 0"/><path fill="#760975" d="m70.871 0 38.746 45.11-42.504 5.538Zm0 0"/><path fill="#61098a" d="m246.95 203.59 18.956-8.68-12.48 23.996Zm0 0"/><path fill="#620989" d="m265.906 194.91-18.957 8.68-3.387-21.453Zm0 0"/><path fill="#c88017" d="m230.832 185.32 8.043 16.508-14.816-2.433Zm0 0"/><path fill="#e6b312" d="m238.875 201.828-8.043-16.508 12.73-3.183Zm0 0"/><path fill="#620989" d="m246.95 203.59-8.075-1.762 4.688-19.691Zm0 0"/><path fill="#977cb0" d="m224.05 157.598 10.313 4.18-7.5 8.093Zm0 0"/><path fill="#ada7be" d="m224.05 157.598 9.575-8.97.738 13.15Zm0 0"/><path fill="#cab6d7" d="m244.621 152.719-10.996-4.09 18.23-10.98Zm0 0"/><path fill="#b0adc0" d="m233.625 148.629 10.996 4.09-10.258 9.058Zm0 0"/><path fill="#f9f6fa" d="m261.598 157.523-16.977-4.804 7.234-15.07Zm0 0"/><path fill="#73389d" d="m251.855 137.648-20.5-.554 2.352-12.73Zm0 0"/><path fill="#c77b13" d="m230.832 185.32 6.172-12.875 6.559 9.692Zm0 0"/><path fill="#e8b51c" d="m237.004 172.445 10.012-7.582-3.453 17.274Zm0 0"/><path fill="#c57610" d="m237.004 172.445-6.172 12.875-3.969-15.449Zm0 0"/><path fill="#c47b19" d="m234.363 161.777 2.64 10.668-10.14-2.574Zm0 0"/><path fill="#d09e33" d="m247.016 164.863-10.012 7.582-2.64-10.668Zm0 0"/><path fill="#61098a" d="m0 339.664 22.473.578L0 384Zm0 0"/><path fill="#5b0a90" d="m349.203 297.21-22.48-43.85L384 257.823Zm0 0"/><path fill="#5b0990" d="m326.723 253.36 22.48 43.85-36.508 9.306Zm0 0"/><path fill="#5f0a8d" d="m226.879 251.64 4.816-25.327 19.848 18.035Zm0 0"/><path fill="#5f0a8c" d="m292.7 180.371 36.757-28.46-9.805 49.987Zm0 0"/><path fill="#5d0a8e" d="m329.457 151.91 25.719 50.621-35.524-.633Zm0 0"/><path fill="#620989" d="m329.457 151.91-41.379-14.027 22.555-41.11Zm0 0"/><path fill="#620a89" d="m288.078 137.883 41.379 14.027-36.758 28.461Zm0 0"/><path fill="#5c0b91" d="M340.992 338.746 384 318.476V384Zm0 0"/><path fill="#5e098d" d="m173.066 300.094-19.984 22.097-15.07-20.902Zm0 0"/><path fill="#fcec9c" d="m173.066 300.094 14.586 4.93-9.496 15.78Zm0 0"/><path fill="#5b0a90" d="m161.941 349.008 23.817 1.937-2.715 16.95Zm0 0"/><path fill="#640987" d="m138.012 301.29-15.344-34.935 29.828 10.653Zm0 0"/><path fill="#620989" d="m138.012 301.29 15.07 20.901-33.387 19.504ZM152.496 277.008l-6.457-22.934 18.793 13.578Zm0 0"/><path fill="#630988" d="m122.668 266.355 23.371-12.28 6.457 22.933Zm0 0"/><path fill="#61098b" d="m164.832 267.652-18.793-13.578 18.016 3.371Zm0 0"/><path fill="#620a8a" d="m146.04 254.074 14.382-12.187 3.633 15.558Zm0 0"/><path fill="#fae484" d="m187.652 305.023-8.101-15.773 18.648 3.035Zm0 0"/><path fill="#5b0a90" d="m233.016 384.004-14.887-34.746 18.953-7.055ZM237.082 342.203l-15.73-11.605 19.847-15.5Zm0 0"/><path fill="#5b0a90" d="m237.082 342.203-18.953 7.055 3.223-18.66Zm0 0"/><path fill="#f3da86" d="m192.441 245.934 9.016 17.425-14 6.7Zm0 0"/><path fill="#b16b34" d="m207.703 281.688-6.246-18.329 19.8 10.047Zm0 0"/><path fill="#d2a245" d="m209.309 242.004-7.852 21.355-9.016-17.425Zm0 0"/><path fill="#d9a31b" d="m187.457 270.059 20.246 11.628-9.504 10.598Zm0 0"/><path fill="#f7dd73" d="m179.55 289.25 7.907-19.191 10.742 22.226Zm0 0"/><path fill="#fcedad" d="m173.309 267.691 14.148 2.368-7.906 19.191Zm0 0"/><path fill="#e7b40e" d="m187.457 270.059 14-6.7 6.246 18.329Zm0 0"/><path fill="#fef3bb" d="m173.066 300.094 3.73-5.293 10.856 10.222Zm0 0"/><path fill="#fdf5cf" d="m187.652 305.023-10.855-10.222 2.754-5.551Zm0 0"/><path fill="#5c098f" d="m237.082 342.203 4.117-27.105 34.035 22.234ZM241.2 315.098l-16.012-12.368 9.93-14.378Zm0 0"/><path fill="#5c098f" d="m241.2 315.098-6.083-26.746 40.25-7.184ZM275.234 337.332 241.2 315.098l34.168-33.93Zm0 0"/><path fill="#6e0d81" d="m160.426 56.512-5.02-27.89 23.176 10.62Zm0 0"/><path fill="#70097b" d="m155.406 28.621 5.02 27.89-15.535 1.11ZM86.055 238.648l-46.383-17.98 37.191-33.793Zm0 0"/><path fill="#6c097f" d="m43.152 269.281-3.48-48.613 46.383 17.98Zm0 0"/><path fill="#6b0b82" d="m155.406 28.621 31.239-5.777-8.063 16.398Zm0 0"/><path fill="#5e0b8e" d="M349.063 103.355 384 79.738v65.89Zm0 0"/><path fill="#680e88" d="m214.805 22.324-4.84 16.844-15.945-4.473Zm0 0"/><path fill="#fbf9fc" d="m209.965 39.168-15.297 4.012-.648-8.485Zm0 0"/><path fill="#69128c" d="m209.965 39.168 4.84-16.844 11.504 27.489Zm0 0"/><path fill="#ebe1f0" d="m194.668 43.18 15.297-4.012-2.242 14.992Zm0 0"/><path fill="#fbf9fc" d="m173.777 61.883 4.805-22.64 11.125 18.82Zm0 0"/><path fill="#730a79" d="m155.594 75.922-10.703-18.3 15.535-1.11Zm0 0"/><path fill="#720979" d="m144.89 57.621 10.704 18.3-18.387 2.247Zm0 0"/><path fill="#f6f1f8" d="m171.707 115.484-19.555 4.903 12.465-16.785Zm0 0"/><path fill="#bc93c6" d="m185.68 76.918 10.222 13.445-13.027 6.653Zm0 0"/><path fill="#fefefe" d="m195.902 90.363 5.297 3.965-18.324 2.688Zm0 0"/><path fill="#aea0c1" d="m225.61 115.14-1.465-13.074 10.554 7.883Zm0 0"/><path fill="#fefefe" d="m212.555 90.895-1.434 14.324-9.922-10.89Zm0 0"/><path fill="#740d7b" d="m133.297 157.168 4.668 9.094-10.719 4.902Zm0 0"/><path fill="#710a7b" d="m137.965 166.262-1.164 7.73-9.555-2.828Zm0 0"/><path fill="#fefefe" d="m152.027 91.207 8.22-4.488 4.37 16.883Zm0 0"/><path fill="#fdfdfd" d="m152.152 120.387-.125-29.18 12.59 12.395Zm0 0"/><path fill="#fefdfe" d="m152.027 91.207.125 29.18-10.027-22.75Zm0 0"/><path fill="#790972" d="m142.125 97.637-20.105 7.613.242-18.137Zm0 0"/><path fill="#7b0970" d="m122.02 105.25 14.261 16.54-23.62 3.913Zm0 0"/><path fill="#7c0a70" d="m136.281 121.79-14.261-16.54 20.105-7.613Zm0 0"/><path fill="#7f096c" d="m122.02 105.25-9.36 20.453-28.68-31.746Zm0 0"/><path fill="#7e096d" d="m122.262 87.113-.242 18.137-38.04-11.293Zm0 0"/><path fill="#f7cd0d" d="m162.39 169.457 3.32 7.152-9.519-4.605Zm0 0"/><path fill="#fde984" d="m165.71 176.61-12.284 6.097 2.765-10.703Zm0 0"/><path fill="#6e0a7d" d="m145.563 174.879-10.122 10.516 1.36-11.403Zm0 0"/><path fill="#700a7c" d="m145.563 174.879-8.762-.887 1.164-7.73Zm0 0"/><path fill="#fef0a9" d="m153.426 182.707-7.863-7.828 10.628-2.875Zm0 0"/><path fill="#d2a04d" d="m148.355 165.96-2.792 8.919-7.598-8.617Zm0 0"/><path fill="#fad41a" d="m145.563 174.879 2.792-8.918 7.836 6.043Zm0 0"/><path fill="#670a85" d="m135.441 185.395 10.121-10.516.09 10.437Zm0 0"/><path fill="#fdf5d3" d="m145.563 174.879 7.863 7.828-7.774 2.61Zm0 0"/><path fill="#6a0981" d="m155.945 220.695 1.121 11.5-26.972-4.504Zm0 0"/><path fill="#b26b34" d="m201.043 227.371 8.266 14.633-16.868 3.93Zm0 0"/><path fill="#e1b438" d="m184.941 230.79 16.102-3.419-8.602 18.563Zm0 0"/><path fill="#6a0a81" d="m150.043 199.14-12.45 2.376 6.098-9.828Zm0 0"/><path fill="#6b0980" d="m137.594 201.516-2.153-16.121 8.25 6.292Zm0 0"/><path fill="#690b84" d="m148.797 190.043-5.106 1.644 1.961-6.37Zm0 0"/><path fill="#6d0b80" d="m148.797 190.043 1.246 9.098-6.352-7.453Zm0 0"/><path fill="#9a71b5" d="m218.785 69.14-15.094 4.454 4.032-19.434Zm0 0"/><path fill="#78399d" d="m218.785 69.14-7.98 11.32-7.114-6.866Zm0 0"/><path fill="#c08531" d="M214.707 184.57 207.59 204l-8.727-18.559Zm0 0"/><path fill="#b47941" d="M198.863 185.441 207.59 204l-16.719-1.922Zm0 0"/><path fill="#83358a" d="m226.313 215.36 12.562-13.532-.945 10.258Zm0 0"/><path fill="#620a89" d="m238.875 201.828 8.074 1.762-9.02 8.496Zm0 0"/><path fill="#d6a938" d="m238.875 201.828-12.562 13.531-2.254-15.964Zm0 0"/><path fill="#a55a3c" d="m198.863 185.441 6.43-13.921 9.414 13.05Zm0 0"/><path fill="#661b90" d="m186.43 156.93 6.27 7.386-9.966 2.512Zm0 0"/><path fill="#be9bcf" d="m161.242 147.098-6.988-10.778 14.156 2.73Zm0 0"/><path fill="#be8436" d="m180.605 185.77 10.282-12.887 7.976 12.558Zm0 0"/><path fill="#f5c805" d="m190.887 172.883-10.282 12.887 2.13-18.942Zm0 0"/><path fill="#d0931b" d="m192.7 164.316-1.813 8.567-8.153-6.055Zm0 0"/><path fill="#b77c49" d="m167.992 166.996-5.601 2.461-3.563-6.629Zm0 0"/><path fill="#faf7fb" d="m167.719 157.559.273 9.437-9.164-4.168Zm0 0"/><path fill="#753b9c" d="m244.621 152.719 2.395 12.144-12.653-3.086Zm0 0"/><path fill="#fceca7" d="m188.152 330.531-9.996-9.726 17.54.511Zm0 0"/><path fill="#ca881c" d="m231.695 226.313-22.386 15.69 17.004-26.644Zm0 0"/><path fill="#c5842f" d="m209.309 242.004 17.57 9.637-3.078 6.293Zm0 0"/><path fill="#dba521" d="m209.309 242.004 22.386-15.691-4.816 25.328Zm0 0"/><path fill="#630a88" d="m247.016 164.863 14.582-7.34-18.036 24.614Zm0 0"/><path fill="#620a89" d="m261.598 157.523 4.308 37.387-22.344-12.773Zm0 0"/><path fill="#d0b8da" d="m244.621 152.719 16.977 4.804-14.582 7.34Zm0 0"/><path fill="#630988" d="m261.598 157.523 31.101 22.848-26.793 14.54Zm0 0"/><path fill="#5b0a90" d="m384 318.477-43.008 20.27 8.211-41.536Zm0 0"/><path fill="#5b0a90" d="m309.512 384 31.48-45.254L384 384Zm0 0"/><path fill="#5e0b8f" d="m165.738 326.645 7.328-26.551 5.09 20.71Zm0 0"/><path fill="#5d098e" d="m173.066 300.094-7.328 26.55-12.656-4.453Zm0 0"/><path fill="#5d098e" d="m165.738 326.645-3.797 22.363-8.859-26.817Zm0 0"/><path fill="#d8a426" d="m201.457 263.36 22.344-5.426-2.543 15.472Zm0 0"/><path fill="#cc8f2d" d="m223.8 257.934-22.343 5.425 7.852-21.355Zm0 0"/><path fill="#5c0a8f" d="m221.258 273.406 2.543-15.472 14.785 7.652Zm0 0"/><path fill="#fef1aa" d="m173.309 267.691-8.477-.039-.777-10.207Zm0 0"/><path fill="#feefa2" d="m180.258 254.914-6.95 12.777-9.253-10.246Zm0 0"/><path fill="#fbf1cc" d="m173.309 267.691 6.949-12.777 7.199 15.145Zm0 0"/><path fill="#620a89" d="m167.129 273.723-14.633 3.285 12.336-9.356Zm0 0"/><path fill="#fef4be" d="m173.309 267.691-6.18 6.032-2.297-6.07Zm0 0"/><path fill="#fef6cb" d="m167.129 273.723 6.18-6.032 6.242 21.559Zm0 0"/><path fill="#5c098f" d="m221.352 330.598-7.497-15.926 27.344.426Zm0 0"/><path fill="#5c0a8f" d="m208.258 325.32 5.597-10.648 7.497 15.926Zm0 0"/><path fill="#5b0990" d="m213.855 314.672 11.333-11.942 16.011 12.368Zm0 0"/><path fill="#5d0a8e" d="m213.855 314.672 1.305-19.438 10.028 7.496Zm0 0"/><path fill="#b3743c" d="m215.16 295.234-7.457-13.546 13.555-8.282Zm0 0"/><path fill="#d9a218" d="m207.703 281.688 7.457 13.546-16.96-2.949Zm0 0"/><path fill="#5d0a8e" d="m235.117 288.352-19.957 6.882 6.098-21.828Zm0 0"/><path fill="#5d098e" d="m225.188 302.73-10.028-7.496 19.957-6.882Zm0 0"/><path fill="#fefefe" d="m173.777 61.883-13.351-5.371 18.156-17.27Zm0 0"/><path fill="#730978" d="m133.297 157.168-6.05 13.996-17.192-16.254Zm0 0"/><path fill="#fdfcfd" d="m178.582 39.242 15.438-4.547.648 8.485Zm0 0"/><path fill="#690c85" d="m186.645 22.844 7.375 11.851-15.438 4.547Zm0 0"/><path fill="#9a7db1" d="m223.973 58.953-6.73-6.574 9.066-2.566Zm0 0"/><path fill="#f2edf5" d="m217.242 52.379-7.277-13.211 16.344 10.645Zm0 0"/><path fill="#f5eff7" d="m209.965 39.168 7.277 13.21-9.52 1.782Zm0 0"/><path fill="#a88bbc" d="m217.242 52.379 1.543 16.762-11.062-14.98Zm0 0"/><path fill="#a289b7" d="m218.785 69.14-1.543-16.761 6.73 6.574Zm0 0"/><path fill="#e1d2e9" d="m203.691 73.594-18.011 3.324 4.027-18.856Zm0 0"/><path fill="#f4eff7" d="m185.68 76.918-11.903-15.035 15.93-3.82Zm0 0"/><path fill="#fefefe" d="m173.777 61.883-7.03 14.785-6.321-20.156Zm0 0"/><path fill="#faf8fb" d="m166.746 76.668-11.152-.746 4.832-19.41Zm0 0"/><path fill="#f9f6fb" d="m185.68 76.918-18.934-.25 7.031-14.785Zm0 0"/><path fill="#fefefe" d="m152.152 120.387-15.87 1.402 5.843-24.152Zm0 0"/><path fill="#fbf9f8" d="m136.281 121.79 15.871-1.403-14.355 13.281Zm0 0"/><path fill="#9c65b4" d="m205.152 85.785-9.25 4.578-10.222-13.445Zm0 0"/><path fill="#682097" d="m210.805 80.46-5.653 5.325-1.46-12.191Zm0 0"/><path fill="#a979bb" d="m205.152 85.785-19.472-8.867 18.011-3.324Zm0 0"/><path fill="#faf8fb" d="m196.426 108.29 14.695-3.071-2.332 10.988Zm0 0"/><path fill="#f8f5fa" d="m211.121 105.219-14.695 3.07 4.773-13.96Zm0 0"/><path fill="#fefefe" d="m211.156 85.086 1.399 5.809-7.403-5.11Zm0 0"/><path fill="#ab84c5" d="m210.805 80.46.351 4.626-6.004.7Zm0 0"/><path fill="#8252a5" d="m233.707 124.363-9.59 1.64 1.492-10.862Zm0 0"/><path fill="#f8f6fa" d="m224.117 126.004-6.676-3.387 8.168-7.476Zm0 0"/><path fill="#fcfafd" d="m200.305 122.066-4.907 8.258-23.691-14.84Zm0 0"/><path fill="#9c71ba" d="m186.43 156.93 8.972-.38-2.703 7.766Zm0 0"/><path fill="#73359a" d="m222.59 147.25 8.765-10.156 2.27 11.535Zm0 0"/><path fill="#b0adc0" d="m224.05 157.598-1.46-10.348 11.035 1.379Zm0 0"/><path fill="#aea4c0" d="m234.7 109.95-3.884-13.552 10.403 9.84Zm0 0"/><path fill="#b0a2c2" d="m234.7 109.95-10.555-7.884 6.671-5.668Zm0 0"/><path fill="#8246a4" d="m208.79 116.207 16.82-1.066-8.169 7.476Zm0 0"/><path fill="#fdfcfd" d="m217.73 96.871-6.609 8.348 1.434-14.324Zm0 0"/><path fill="#f6f2f8" d="m146.84 157.945 14.402-10.847-2.414 15.73Zm0 0"/><path fill="#671786" d="m146.84 157.945 1.515 8.016-10.39.3Zm0 0"/><path fill="#7936a0" d="m148.355 165.96-1.515-8.015 11.988 4.883Zm0 0"/><path fill="#fdfcfd" d="m139.89 157.852-1.925 8.41-4.668-9.094Zm0 0"/><path fill="#ae83bd" d="m139.89 157.852 6.95.093-8.875 8.317Zm0 0"/><path fill="#9d69b9" d="m154.254 136.32 17.238-4.125-3.082 6.856Zm0 0"/><path fill="#d7c2e2" d="m171.492 132.195-19.34-11.808 19.555-4.903Zm0 0"/><path fill="#f1c20d" d="m167.992 166.996-2.281 9.613-3.32-7.152Zm0 0"/><path fill="#c78620" d="m209.309 242.004-8.266-14.633 25.27-12.012Zm0 0"/><path fill="#d59c1a" d="m184.941 230.79 6.684-18.759 9.418 15.34Zm0 0"/><path fill="#dc9f19" d="m184.941 230.79-5.14-12.93 11.824-5.829Zm0 0"/><path fill="#faf3d8" d="m173.977 203.68 17.648 8.351-11.824 5.828Zm0 0"/><path fill="#f6eedf" d="m191.625 212.031-17.648-8.351 16.894-1.602Zm0 0"/><path fill="#fef8df" d="m153.426 182.707-4.63 7.336-3.144-4.727Zm0 0"/><path fill="#fefdfe" d="m161.242 147.098 6.477 10.46-8.89 5.27Zm0 0"/><path fill="#fdfdfe" d="m161.242 147.098 7.168-8.047 6.805 10.754Zm0 0"/><path fill="#fefefe" d="m168.41 139.05 3.082-6.855 15.88 7.07Zm0 0"/><path fill="#fefdfe" d="m175.215 149.805-6.805-10.754 18.961.215Zm0 0"/><path fill="#bb7e35" d="m205.293 171.52-14.406 1.363 1.812-8.567Zm0 0"/><path fill="#d0941d" d="m190.887 172.883 14.406-1.363-6.43 13.921Zm0 0"/><path fill="#d39719" d="m208.258 325.32-8.418 8.27-4.145-12.274Zm0 0"/><path fill="#f6dc6e" d="m199.84 333.59-11.688-3.059 7.543-9.215Zm0 0"/><path fill="#5b0a90" d="m185.758 350.945 20.324 7.785-23.039 9.165Zm0 0"/><path fill="#5b0a90" d="m206.082 358.73 26.934 25.274-49.973-16.11Zm0 0"/><path fill="#5b0a90" d="m206.082 358.73 12.047-9.472 14.887 34.746Zm0 0"/><path fill="#fdfcfc" d="m207.59 204-15.965 8.031-.754-9.953Zm0 0"/><path fill="#5b0a90" d="M340.992 338.746 309.512 384l.898-44.637Zm0 0"/><path fill="#5b0990" d="m340.992 338.746-30.582.617 2.285-32.847Zm0 0"/><path fill="#5b0990" d="m349.203 297.21-8.21 41.536-28.298-32.23Zm0 0"/><path fill="#5b0a90" d="m165.738 326.645 15.532 9.296-19.329 13.067ZM161.941 349.008l19.329-13.067 4.488 15.004Zm0 0"/><path fill="#fdeea5" d="m188.152 330.531-6.882 5.41-3.114-15.136Zm0 0"/><path fill="#5c0a8f" d="m181.27 335.941-15.532-9.296 12.418-5.84Zm0 0"/><path fill="#fef4be" d="m176.797 294.8-5.719-3.542 8.473-2.008Zm0 0"/><path fill="#fef2b2" d="m171.078 291.258-3.95-17.535 12.423 15.527Zm0 0"/><path fill="#60098b" d="m171.078 291.258 1.988 8.836-35.054 1.195Zm0 0"/><path fill="#fef4bc" d="m171.078 291.258 5.719 3.543-3.73 5.293Zm0 0"/><path fill="#60098b" d="m152.496 277.008 18.582 14.25-33.066 10.031Zm0 0"/><path fill="#67128d" d="m167.129 273.723 3.95 17.535-18.583-14.25Zm0 0"/><path fill="#d4a02b" d="m205.484 308.918 8.371 5.754-5.597 10.648Zm0 0"/><path fill="#dfa711" d="m205.484 308.918 2.774 16.402-12.563-4.004Zm0 0"/><path fill="#e9c455" d="m187.652 305.023 17.832 3.895-9.789 12.398Zm0 0"/><path fill="#d39d2d" d="m213.855 314.672-8.37-5.754 9.675-13.684Zm0 0"/><path fill="#f1ce4b" d="m205.484 308.918-17.832-3.895 10.547-12.738Zm0 0"/><path fill="#d19522" d="m215.16 295.234-9.676 13.684-7.285-16.633Zm0 0"/><path fill="#720979" d="m127.246 171.164 8.195 14.23-25.3 10.504Zm0 0"/><path fill="#fdfdfd" d="m166.746 76.668-6.5 10.05-4.652-10.796Zm0 0"/><path fill="#d1b9dd" d="m160.246 86.719 6.5-10.051 16.129 20.348Zm0 0"/><path fill="#ebddeb" d="m166.746 76.668 18.934.25-2.805 20.098Zm0 0"/><path fill="#7a42a0" d="m218.785 69.14 1.227 12.462-9.207-1.141Zm0 0"/><path fill="#864fac" d="m220.012 81.602-8.856 3.484-.351-4.625Zm0 0"/><path fill="#804ea2" d="m228.059 76.594-8.047 5.008-1.227-12.461Zm0 0"/><path fill="#fefdfe" d="m211.156 85.086 8.856-3.484-7.457 9.293Zm0 0"/><path fill="#f6f3f8" d="m224.117 126.004-9.328 3.668 2.652-7.055Zm0 0"/><path fill="#6e2e9b" d="m205.172 131.863.226 9.73-7.25-1.476Zm0 0"/><path fill="#dac8e5" d="m171.492 132.195 23.906-1.87-8.027 8.94Zm0 0"/><path fill="#7d42a7" d="m187.371 139.266 8.027-8.942 2.75 9.793Zm0 0"/><path fill="#804da6" d="m195.398 130.324 9.774 1.54-7.024 8.253Zm0 0"/><path fill="#fbfafc" d="m195.398 130.324-23.906 1.871.215-16.71Zm0 0"/><path fill="#fbf9fc" d="m200.305 122.066-3.88-13.777 12.364 7.918Zm0 0"/><path fill="#faf8fc" d="m196.426 108.29 3.879 13.776-28.598-6.582Zm0 0"/><path fill="#7e3ea3" d="m208.578 124.434-8.273-2.368 8.484-5.859Zm0 0"/><path fill="#6a2495" d="m208.578 124.434 6.211 5.238-9.617 2.191Zm0 0"/><path fill="#702a98" d="m208.578 124.434.211-8.227 8.652 6.41Zm0 0"/><path fill="#6e2994" d="m214.79 129.672-6.212-5.238 8.863-1.817Zm0 0"/><path fill="#e1d4ea" d="m222.59 147.25-8.992 6.73-2-8.125Zm0 0"/><path fill="#e5dcec" d="m211.121 105.219 14.488 9.922-16.82 1.066Zm0 0"/><path fill="#f3f1f6" d="m211.121 105.219 6.61-8.348 6.414 5.195Zm0 0"/><path fill="#f4f1f7" d="m225.61 115.14-14.489-9.921 13.024-3.153Zm0 0"/><path fill="#fdfdfd" d="m223.348 91.773-5.618 5.098-5.175-5.976Zm0 0"/><path fill="#f1eef4" d="m217.73 96.871 5.618-5.098.797 10.293Zm0 0"/><path fill="#b3a7c5" d="m224.145 102.066-.797-10.293 7.468 4.625Zm0 0"/><path fill="#fefefe" d="m220.012 81.602 3.336 10.171-10.793-.878ZM146.84 157.945l-4.371-11.66 18.773.813Zm0 0"/><path fill="#f8f4f9" d="m139.89 157.852 2.579-11.567 4.37 11.66Zm0 0"/><path fill="#c09ecf" d="m161.242 147.098-18.773-.813 11.785-9.965Zm0 0"/><path fill="#f7f3f8" d="m154.254 136.32-11.785 9.965-4.672-12.617Zm0 0"/><path fill="#fefdfd" d="m142.469 146.285-2.578 11.567-6.594-.684Zm0 0"/><path fill="#fefefe" d="m142.469 146.285-13.961 1.63 9.289-14.247Zm0 0"/><path fill="#fefdfb" d="m142.469 146.285-9.172 10.883-4.79-9.254Zm0 0"/><path fill="#fbf9fb" d="m152.152 120.387 2.102 15.933-16.457-2.652Zm0 0"/><path fill="#dbc7e2" d="m171.492 132.195-17.238 4.125-2.102-15.933Zm0 0"/><path fill="#dea40f" d="m174.574 169.469-8.863 7.14 2.281-9.613Zm0 0"/><path fill="#e6b00a" d="m180.605 185.77-6.03-16.301 8.16-2.64Zm0 0"/><path fill="#e5ae09" d="m165.71 176.61 8.864-7.141 6.031 16.3Zm0 0"/><path fill="#9d5043" d="m207.59 204 18.722 11.36-25.269 12.011Zm0 0"/><path fill="#b77838" d="M191.625 212.031 207.59 204l-6.547 23.371Zm0 0"/><path fill="#a15e4d" d="m207.59 204 7.117-19.43 9.352 14.825Zm0 0"/><path fill="#c99d67" d="M226.313 215.36 207.59 204l16.469-4.605Zm0 0"/><path fill="#fef4bb" d="m155.945 220.695 12.7 7.227-11.579 4.273Zm0 0"/><path fill="#fef7d1" d="m157.066 232.195 11.579-4.273-8.223 13.965Zm0 0"/><path fill="#fdf2b9" d="m159 206.707-7.504 2.063-1.453-9.63Zm0 0"/><path fill="#fcf6e6" d="m151.496 208.77 7.504-2.063-3.055 13.988Zm0 0"/><path fill="#6a0981" d="m151.496 208.77 4.45 11.925-25.852 6.996Zm0 0"/><path fill="#6c097f" d="m151.496 208.77-21.402 18.921 7.5-26.175Zm0 0"/><path fill="#70097b" d="m151.496 208.77-13.902-7.254 12.449-2.375Zm0 0"/><path fill="#fef3b8" d="m148.797 190.043 14.168 1.637-12.922 7.46Zm0 0"/><path fill="#fef7ce" d="M162.965 191.68 159 206.707l-8.957-7.566Zm0 0"/><path fill="#fef1a9" d="m153.426 182.707 9.539 8.973-14.168-1.637Zm0 0"/><path fill="#fcd50e" d="m159 206.707 3.965-15.027 11.012 12Zm0 0"/><path fill="#fef9e1" d="M167.55 218.79 159 206.706l14.977-3.027Zm0 0"/><path fill="#f5ce2f" d="m167.55 218.79 6.427-15.11 5.824 14.18Zm0 0"/><path fill="#fef3b6" d="m159 206.707 8.55 12.082-11.605 1.906Zm0 0"/><path fill="#fef3b7" d="m167.55 218.79 1.095 9.132-12.7-7.227Zm0 0"/><path fill="#fbdf5c" d="m168.645 227.922-1.094-9.133 12.25-.93Zm0 0"/><path fill="#ada5bc" d="m233.703 66.973-14.918 2.168 5.188-10.188Zm0 0"/><path fill="#aa9fba" d="m233.703 66.973-5.644 9.62-9.274-7.452Zm0 0"/><path fill="#b6b7c4" d="m233.703 66.973-9.73-8.02 2.336-9.14Zm0 0"/><path fill="#fefefe" d="m191.934 148.3 3.468 8.25-8.972.38Zm0 0"/><path fill="#ede3f2" d="m175.215 149.805 16.719-1.504-5.504 8.629Zm0 0"/><path fill="#e9def0" d="m191.934 148.3-16.72 1.505 12.157-10.54Zm0 0"/><path fill="#ece3f2" d="m191.934 148.3-4.563-9.034 10.777.851Zm0 0"/><path fill="#fefefe" d="m167.719 157.559-6.477-10.461 13.973 2.707Zm0 0"/><path fill="#5b0a90" d="m208.273 336.727-.015-11.407 13.094 5.278Zm0 0"/><path fill="#dda715" d="m208.273 336.727-8.433-3.137 8.418-8.27Zm0 0"/><path fill="#5b0a90" d="m218.129 349.258-9.856-12.531 13.079-6.13Zm0 0"/><path fill="#750976" d="m76.863 186.875 33.192-31.965.086 40.988Zm0 0"/><path fill="#730978" d="m110.055 154.91 17.191 16.254-17.105 24.734Zm0 0"/><path fill="#702e97" d="m214.79 129.672-1.9 7.437-7.718-5.246Zm0 0"/><path fill="#6a2597" d="m212.89 137.11-7.492 4.484-.226-9.73Zm0 0"/><path fill="#702a98" d="m205.398 141.594 7.493-4.485-1.293 8.746Zm0 0"/><path fill="#fefefe" d="m182.875 97.016 13.55 11.273-24.718 7.195Zm0 0"/><path fill="#fefefe" d="m196.426 108.29-13.551-11.274 18.324-2.688Zm0 0"/><path fill="#7c42a4" d="m200.305 122.066 4.867 9.797-9.774-1.539Zm0 0"/><path fill="#6f2d9a" d="m208.578 124.434-3.406 7.43-4.867-9.798Zm0 0"/><path fill="#d0badc" d="m213.598 153.98-11.5-4.746 9.5-3.379Zm0 0"/><path fill="#cbb0d8" d="m202.098 149.234 3.3-7.64 6.2 4.261Zm0 0"/><path fill="#fefefe" d="m191.934 148.3 10.164.934-6.696 7.317Zm0 0"/><path fill="#ceb5db" d="m205.398 141.594-3.3 7.64-3.95-9.117Zm0 0"/><path fill="#fefdfe" d="m202.098 149.234-10.164-.933 6.214-8.184Zm0 0"/><path fill="#b96518" d="m205.293 171.52 10.016-4.375-.602 17.425Zm0 0"/><path fill="#ba6515" d="m214.707 184.57.602-17.425 11.554 2.726Zm0 0"/><path fill="#ba9ccb" d="m224.05 157.598-10.452-3.618 8.992-6.73Zm0 0"/><path fill="#814ba3" d="m224.05 157.598-8.741 9.547-1.711-13.165Zm0 0"/><path fill="#783991" d="m215.309 167.145 8.742-9.547 2.812 12.273Zm0 0"/><path fill="#6e2181" d="m175.746 160.121 10.684-3.191-3.696 9.898Zm0 0"/><path fill="#8a3653" d="m174.574 169.469 1.172-9.348 6.988 6.707Zm0 0"/><path fill="#83356a" d="m167.992 166.996 7.754-6.875-1.172 9.348Zm0 0"/><path fill="#f7f3f9" d="m175.746 160.121-7.754 6.875-.273-9.437Zm0 0"/><path fill="#fefdfe" d="m175.746 160.121-.531-10.316 11.215 7.125Zm0 0"/><path fill="#fefefe" d="m175.746 160.121-8.027-2.562 7.496-7.754Zm0 0"/><path fill="#f8e59e" d="m184.941 230.79-16.296-2.868 11.156-10.063Zm0 0"/><path fill="#feeb8c" d="m162.965 191.68-9.54-8.973 12.286-6.098Zm0 0"/><path fill="#f8cd09" d="m180.605 185.77-17.64 5.91 2.746-15.07Zm0 0"/><path fill="#fdec96" d="m162.965 191.68 17.64-5.91-6.628 17.91Zm0 0"/><path fill="#ada1b8" d="m233.703 66.973 2.7 10.53-8.344-.91Zm0 0"/><path fill="#5c0b90" d="m205.434 349.207.648 9.523-20.324-7.785Zm0 0"/><path fill="#e6b51e" d="m208.273 336.727-2.84 12.48-5.593-15.617Zm0 0"/><path fill="#5c0b91" d="m205.434 349.207 2.84-12.48 9.855 12.53Zm0 0"/><path fill="#5b0a90" d="m206.082 358.73-.648-9.523 12.695.05Zm0 0"/><path fill="#7632a1" d="m212.89 137.11 9.7 10.14-10.992-1.395Zm0 0"/><path fill="#f5f1f7" d="m224.047 133.707-9.258-4.035 9.328-3.668Zm0 0"/><path fill="#fbfafc" d="m224.047 133.707-11.156 3.402 1.898-7.437Zm0 0"/><path fill="#e9e1ef" d="m224.047 133.707-1.457 13.543-9.7-10.14Zm0 0"/><path fill="#fefdfe" d="m202.098 149.234 1.297 11.672-7.993-4.355Zm0 0"/><path fill="#c0a9ce" d="m203.395 160.906-1.297-11.672 11.5 4.746Zm0 0"/><path fill="#7a3ca1" d="m203.395 160.906 1.898 10.614-12.594-7.204Zm0 0"/><path fill="#966bb6" d="m195.402 156.55 7.993 4.356-10.696 3.41Zm0 0"/><path fill="#8d5da3" d="m203.395 160.906 11.914 6.239-10.016 4.375Zm0 0"/><path fill="#8c62a9" d="m215.309 167.145-11.914-6.239 10.203-6.926Zm0 0"/><path fill="#d2d0db" d="m223.348 91.773 5.664-6.003 1.804 10.628Zm0 0"/><path fill="#a799b6" d="m236.402 77.504-7.39 8.266-.953-9.176Zm0 0"/><path fill="#8b64ab" d="m229.012 85.77-9-4.168 8.047-5.008Zm0 0"/><path fill="#e1dde7" d="m229.012 85.77-5.664 6.003-3.336-10.171Zm0 0"/><path fill="#fadb48" d="m191.512 339.723 13.922 9.484-19.676 1.738Zm0 0"/><path fill="#f2d469" d="m205.434 349.207-13.922-9.484 8.328-6.133Zm0 0"/><path fill="#f7d851" d="m199.84 333.59-8.328 6.133-3.36-9.192Zm0 0"/><path fill="#fdefa4" d="m181.27 335.941 10.242 3.782-5.754 11.222Zm0 0"/><path fill="#fceca0" d="m191.512 339.723-10.242-3.782 6.882-5.41Zm0 0"/><path fill="#7a45a0" d="m231.355 137.094-7.308-3.387 9.66-9.344Zm0 0"/><path fill="#7e4ca1" d="m224.047 133.707.07-7.703 9.59-1.64Zm0 0"/><path fill="#763c9d" d="m222.59 147.25 1.457-13.543 7.308 3.387Zm0 0"/><path fill="#f7e4a9" d="m175.23 241.855 9.711-11.066 7.5 15.145Zm0 0"/><path fill="#fef3bd" d="m175.23 241.855 5.028 13.06-16.203 2.53Zm0 0"/><path fill="#f6e5ab" d="m175.23 241.855 17.211 4.079-12.183 8.98Zm0 0"/><path fill="#feed91" d="m160.422 241.887 14.808-.032-11.175 15.59Zm0 0"/><path fill="#fef5c7" d="m168.645 227.922 6.585 13.933-14.808.032Zm0 0"/><path fill="#f5d03f" d="m184.941 230.79-9.71 11.065-6.586-13.933Zm0 0"/></svg>