<svg xmlns="http://www.w3.org/2000/svg" width="512" height="512" viewBox="0 0 384 384"><path fill="#443164" d="m275.418 255.719-25.508 37.566-9.902-27.933Zm0 0"/><path fill="#543166" d="M39.64 198.668 0 177.504l35.348-26.156Zm0 0"/><path fill="#423164" d="m384 275.188-33.945-36.22L384 218.872Zm0 0"/><path fill="#463164" d="m230.246 239.445 45.172 16.274-35.41 9.633ZM275.418 255.719l17.062-48.895 25.22 27.082Zm0 0"/><path fill="#443164" d="m292.48 206.824-17.062 48.895-17.195-27.899Zm0 0"/><path fill="#443164" d="m326.383 270.148-50.965-14.43 42.281-21.812Zm0 0"/><path fill="#423164" d="m350.055 238.969-23.672 31.18-8.684-36.243Zm0 0"/><path fill="#413164" d="m304.027 344.238 34.36-32.418 6.488 38.082Zm0 0"/><path fill="#4a3164" d="m281.77 64.734 35.242 6.93-14.746 35.793Zm0 0"/><path fill="#4a3164" d="m317.012 71.664-35.242-6.93 24.421-28.84Zm0 0"/><path fill="#483164" d="m302.266 107.457 42.254-5.574-23.977 55.305Zm0 0"/><path fill="#463064" d="m344.52 101.883 7.175-52.684L384 85.922Zm0 0"/><path fill="#493064" d="m384 85.922-32.305-36.723 32.305.242Zm0 0"/><path fill="#4d3065" d="m96.035 243.64 37.598 28.774-47.453 15.91Zm0 0"/><path fill="#523065" d="m39.64 198.668 8.946 49.723L0 225.23Zm0 0"/><path fill="#4c3165" d="M0 278.008V225.23l48.586 23.16Zm0 0"/><path fill="#4e3165" d="m128.223 233.547 5.41 38.867-37.598-28.773Zm0 0"/><path fill="#533065" d="m108.426 204.195-12.39 39.446-21.806-30.016Zm0 0"/><path fill="#473164" d="m77.54 339.898 8.64-51.574 35.672 39.508Zm0 0"/><path fill="#423164" d="M151.86 357.945 114.046 384l7.805-56.168Zm0 0"/><path fill="#4b3164" d="M41.309 304.395 0 278.008l48.586-29.617Zm0 0"/><path fill="#483264" d="m41.309 304.395 36.23 35.503-38.766 8.844Zm0 0"/><path fill="#483164" d="m77.54 339.898-36.231-35.503 44.87-16.07Zm0 0"/><path fill="#433164" d="M341.297 200.68 384 218.87l-33.945 20.098Zm0 0"/><path fill="#443164" d="m341.297 200.68 8.758 38.289-32.356-5.063Zm0 0"/><path fill="#463164" d="m275.418 255.719-45.172-16.274 27.977-11.625ZM262.676 188.707l29.804 18.117-35.156 1.055Zm0 0"/><path fill="#453164" d="m384 148.824-42.703 51.856-20.754-43.493Zm0 0"/><path fill="#403164" d="m259.84 384 44.187-39.762L322.613 384Zm0 0"/><path fill="#403164" d="m322.613 384-18.586-39.762 40.848 5.664Zm0 0"/><path fill="#433164" d="m121.852 327.832 35.296 2.383-5.289 27.73Zm0 0"/><path fill="#423164" d="m249.91 293.285-29.437-14.965 19.535-12.968Zm0 0"/><path fill="#423264" d="m292.523 302.285 33.86-32.137 12.004 41.672Zm0 0"/><path fill="#413164" d="m304.027 344.238-11.504-41.953 45.864 9.535Zm0 0"/><path fill="#433164" d="m326.383 270.148-33.86 32.137-17.105-46.566Zm0 0"/><path fill="#433264" d="m292.523 302.285-42.613-9 25.508-37.566Zm0 0"/><path fill="#413164" d="m292.523 302.285 11.504 41.953-45.91-8.824Zm0 0"/><path fill="#623267" d="M65.773 49.527 35.391 70.434 34.18 32.938Zm0 0"/><path fill="#573266" d="m0 177.504.008-48.336 35.34 22.18Zm0 0"/><path fill="#5c2f65" d="m.008 129.168 37.547-21.594-2.207 43.774Zm0 0"/><path fill="#5d3067" d="M37.555 107.574.008 129.168l-.012-40.375Zm0 0"/><path fill="#553066" d="m0 177.504 39.64 21.164L0 225.23Zm0 0"/><path fill="#583066" d="m35.348 151.348 2.207-43.774L70.16 128.91Zm0 0"/><path fill="#5f2e66" d="m37.555 107.574 41.207-20.363-8.602 41.7Zm0 0"/><path fill="#5b2d66" d="m76.285 172.66-40.937-21.312L70.16 128.91Zm0 0"/><path fill="#4e3065" d="M196.012 19.516 178.21 0h50.426Zm0 0"/><path fill="#483264" d="M281.77 64.734 266.43 28.79l39.761 7.106Zm0 0"/><path fill="#4a3164" d="m226.125 27.742 40.305 1.047-15.743 21.426Zm0 0"/><path fill="#4b3065" d="m255.219 71.637-4.531-21.422 31.082 14.52Zm0 0"/><path fill="#4a3164" d="m250.688 50.215 15.742-21.426 15.34 35.945Zm0 0"/><path fill="#493264" d="M228.637 0h54.988L266.43 28.79Zm0 0"/><path fill="#483264" d="m283.625 0 22.566 35.895-39.761-7.106Zm0 0"/><path fill="#4e3065" d="m226.125 27.742-30.113-8.226L228.637 0Zm0 0"/><path fill="#493164" d="M226.125 27.742 228.637 0l37.793 28.79Zm0 0"/><path fill="#473164" d="m331.48 0-25.289 35.895L283.625 0Zm0 0"/><path fill="#453264" d="M306.191 35.895 331.481 0l20.214 49.2Zm0 0"/><path fill="#483164" d="m351.695 49.2-34.683 22.464-10.82-35.77Zm0 0"/><path fill="#463164" d="m384 49.441-32.305-.242L384 0Zm0 0"/><path fill="#433164" d="M351.695 49.2 331.48 0H384Zm0 0"/><path fill="#483164" d="m344.52 101.883-27.508-30.219L351.695 49.2ZM344.52 101.883l-42.254 5.574 14.746-35.793Zm0 0"/><path fill="#453164" d="m384 148.824-39.48-46.941L384 85.922Zm0 0"/><path fill="#582d66" d="m139.941 77.559 18.188.855-1.367 7.805Zm0 0"/><path fill="#dcc7d7" d="m175.64 92.926-.038 15.61-9.817-1.415Zm0 0"/><path fill="#f6c1db" d="m158.129 78.414 2.77 9.215-4.137-1.41Zm0 0"/><path fill="#f9ebf3" d="m160.898 87.629 14.743 5.297-9.856 14.195Zm0 0"/><path fill="#fdfbfe" d="m205.52 86.39 5.207 8.41-14.985-4.128Zm0 0"/><path fill="#eee9ef" d="m136.508 121.637 17.418 13.27-16.164.98Zm0 0"/><path fill="#4f2f65" d="m234.629 67.766 16.059-17.551 4.53 21.422Zm0 0"/><path fill="#4f2e65" d="m250.688 50.215-16.06 17.55-8.226-16.624Zm0 0"/><path fill="#523065" d="m226.125 27.742-31.55 5.977 1.437-14.203Zm0 0"/><path fill="#4d2f65" d="m226.402 51.14-.277-23.398 24.563 22.473Zm0 0"/><path fill="#672e68" d="m65.773 49.527 44.665-.695-31.676 38.379Zm0 0"/><path fill="#623267" d="m65.773 49.527 12.989 37.684L35.39 70.434Zm0 0"/><path fill="#583166" d="m163.71 28.434-15.757 9.886L133.672 0Zm0 0"/><path fill="#533165" d="m178.21 0-14.5 28.434L133.673 0Zm0 0"/><path fill="#532f66" d="m182.063 27.34-18.352 1.094L178.21 0Zm0 0"/><path fill="#593166" d="M110.438 48.832 133.672 0l14.281 38.32Zm0 0"/><path fill="#643367" d="M34.18 32.938 71.238 0l-5.465 49.527Zm0 0"/><path fill="#c88b71" d="m233.598 179.531-15.84-9.594 9.039-4.316Zm0 0"/><path fill="#d49d74" d="m217.758 169.938 15.84 9.593-4.524 5.871Zm0 0"/><path fill="#4e2f65" d="m236.152 219.559 2.223-16.364 18.95 4.684Zm0 0"/><path fill="#523065" d="m108.426 204.195 19.797 29.352-32.188 10.094Zm0 0"/><path fill="#532e65" d="m128.223 233.547-19.797-29.352 29.578 13.168Zm0 0"/><path fill="#512e65" d="m108.426 204.195 31.797-3.851-2.22 17.02Zm0 0"/><path fill="#fecf7f" d="m181.027 329.11 6.672-11.852 7.738 2.98Zm0 0"/><path fill="#453164" d="m114.047 384-36.508-44.102 44.313-12.066Zm0 0"/><path fill="#463164" d="m60.563 384 16.976-44.102L114.047 384Zm0 0"/><path fill="#413164" d="M151.86 357.945 183.68 384h-69.633Zm0 0"/><path fill="#483164" d="M77.54 339.898 60.561 384l-21.789-35.258Zm0 0"/><path fill="#473164" d="M38.773 348.742 60.563 384H-.008Zm0 0"/><path fill="#493264" d="m41.309 304.395 7.277-56.004 37.594 39.933Zm0 0"/><path fill="#423164" d="m384 275.188-57.617-5.04 23.672-31.18Zm0 0"/><path fill="#453164" d="m292.48 206.824-34.257 20.996-.899-19.941Zm0 0"/><path fill="#4b3164" d="m258.223 227.82-22.07-8.261 21.171-11.68Zm0 0"/><path fill="#fccc7f" d="m221.445 212.773 14.707 6.786-9.05 18.558Zm0 0"/><path fill="#4a3065" d="m236.152 219.559 22.07 8.261-27.976 11.625Zm0 0"/><path fill="#fece7f" d="m224.664 258.125 2.438-20.008 3.144 1.328Zm0 0"/><path fill="#483164" d="m283.805 143.121 18.46-35.664 18.278 49.73Zm0 0"/><path fill="#4d2f65" d="m283.805 143.121-8.91-22.367 27.37-13.297Zm0 0"/><path fill="#522f65" d="m274.895 120.754 8.91 22.367-18.836-7.324Zm0 0"/><path fill="#453164" d="m262.676 188.707 15.601-16.668 14.203 34.785ZM341.297 200.68 384 148.824v70.047Zm0 0"/><path fill="#453264" d="m292.48 206.824 28.063-49.637 20.754 43.493Zm0 0"/><path fill="#453164" d="m292.48 206.824 48.817-6.144-23.598 33.226Zm0 0"/><path fill="#423264" d="M384 275.188v54.785l-45.613-18.153Zm0 0"/><path fill="#403164" d="m258.117 335.414 45.91 8.824L259.84 384Zm0 0"/><path fill="#403164" d="m224.297 363.168 33.82-27.754L259.84 384Zm0 0"/><path fill="#423164" d="m292.523 302.285-34.406 33.13-8.207-42.13Zm0 0"/><path fill="#622e67" d="m-.004 88.793.008-40.29 35.387 21.93Zm0 0"/><path fill="#632e68" d="m34.18 32.938 1.21 37.496L.005 48.504Zm0 0"/><path fill="#623268" d="M34.18 32.938.004 48.504V0Zm0 0"/><path fill="#643068" d="M71.238 0 34.18 32.938.004 0Zm0 0"/><path fill="#602f67" d="m35.39 70.434 2.165 37.14L-.004 88.793Zm0 0"/><path fill="#522f65" d="m48.586 248.39 25.644-34.765 21.805 30.016Zm0 0"/><path fill="#4f3065" d="m48.586 248.39 47.45-4.75-9.856 44.684Zm0 0"/><path fill="#642f67" d="m78.762 87.21-41.207 20.364-2.164-37.14Zm0 0"/><path fill="#5f2c66" d="M101.23 143.246 70.16 128.91l34.028-15.37Zm0 0"/><path fill="#5c2c66" d="M104.188 113.54 70.16 128.91l8.602-41.7Zm0 0"/><path fill="#563066" d="m76.285 172.66-36.644 26.008-4.293-47.32Zm0 0"/><path fill="#522f66" d="m178.21 0 17.802 19.516-13.95 7.824Zm0 0"/><path fill="#4c2f65" d="m265.809 92.902-10.59-21.265 26.55-6.903Zm0 0"/><path fill="#552f66" d="m265.809 92.902-19.938-10.14 9.348-11.125Zm0 0"/><path fill="#4d2f65" d="m265.809 92.902 15.96-28.168 20.497 42.723Zm0 0"/><path fill="#4c2f65" d="m274.895 120.754-9.086-27.852 36.457 14.555Zm0 0"/><path fill="#532d65" d="m265.809 92.902 9.086 27.852L254 119.262Zm0 0"/><path fill="#453164" d="m384 148.824-63.457 8.363 23.977-55.304Zm0 0"/><path fill="#eb9ec4" d="m189.402 64.063 3.75-20.45 12.364 15.043Zm0 0"/><path fill="#f8d8e8" d="m178.547 50.965 14.605-7.352-3.75 20.45Zm0 0"/><path fill="#5a3166" d="m147.465 55.137-37.027-6.305 37.515-10.512Zm0 0"/><path fill="#5e3067" d="m110.438 48.832 37.027 6.305-7.524 22.422Zm0 0"/><path fill="#d7c5d2" d="m175.64 92.926 10.524 3.715-10.562 11.894Zm0 0"/><path fill="#d15898" d="m203.203 72.402-13.8-8.34 16.113-5.406Zm0 0"/><path fill="#e9e6eb" d="m237.488 154.34-3.644-8.262 11.129-4.512Zm0 0"/><path fill="#562c65" d="m254 119.262 20.895 1.492-9.926 15.043Zm0 0"/><path fill="#ada6b9" d="m236.441 132.895-11.484-8.438 20.36-.863Zm0 0"/><path fill="#d9d3dd" d="m236.441 132.895 8.875-9.301-.343 17.972Zm0 0"/><path fill="#562d66" d="m245.871 82.762-2.23 13.761-6.043-6.585Zm0 0"/><path fill="#fefbfe" d="m240.488 99.363 3.153-2.84L254 119.262Zm0 0"/><path fill="#5e2c67" d="m243.64 96.523 22.169-3.62L254 119.261Zm0 0"/><path fill="#522f66" d="m265.809 92.902-22.168 3.621 2.23-13.761Zm0 0"/><path fill="#f9f5f9" d="m240.488 99.363 7.805 18.703-2.977 5.528Zm0 0"/><path fill="#fdfbfd" d="m248.293 118.066 5.707 1.196-8.684 4.332Zm0 0"/><path fill="#fdfafd" d="m248.293 118.066-7.805-18.703L254 119.262Zm0 0"/><path fill="#fbf9fc" d="m240.488 99.363-16.199-3.117 13.309-6.308Zm0 0"/><path fill="#fdfbfd" d="m243.64 96.523-3.152 2.84-2.89-9.425Zm0 0"/><path fill="#542e66" d="m128.031 147.836-14.988 20.406-11.813-24.996Zm0 0"/><path fill="#542e66" d="m135.152 163.16-22.109 5.082 14.988-20.406Zm0 0"/><path fill="#512e65" d="m113.043 168.242 22.11-5.082-2.844 17.942Zm0 0"/><path fill="#542f65" d="m120.996 127.676 7.035 20.16-26.8-4.59ZM120.996 127.676l-19.766 15.57 2.957-29.707Zm0 0"/><path fill="#5b2c66" d="m120.996 127.676 15.512-6.04 1.254 14.25Zm0 0"/><path fill="#562d66" d="m128.031 147.836-7.035-20.16 16.766 8.21Zm0 0"/><path fill="#5d2d66" d="m139.316 108.691-18.32 18.985-16.808-14.137Zm0 0"/><path fill="#622b67" d="m120.996 127.676 18.32-18.985-2.808 12.946Zm0 0"/><path fill="#582f66" d="m74.23 213.625-34.59-14.957 36.645-26.008Zm0 0"/><path fill="#cf8671" d="m199.184 212.45-27.395-.75 12.969-26.403Zm0 0"/><path fill="#fdfbfd" d="m156.242 162.016 4.969-14.414 6.293 8.503Zm0 0"/><path fill="#faf7fa" d="m168.035 167.797-11.793-5.781 11.262-5.91Zm0 0"/><path fill="#fece7f" d="m146.355 189.746-.75-11.422 17.375 9.371Zm0 0"/><path fill="#4a2f65" d="m145.605 178.324-13.296 2.778 10.644-10.602Zm0 0"/><path fill="#4b2f65" d="m132.309 181.102 13.296-2.778.75 11.422Zm0 0"/><path fill="#532d65" d="m132.309 181.102 7.914 19.242-31.797 3.851Zm0 0"/><path fill="#4c2f65" d="m140.223 200.344-7.914-19.242 14.046 8.644Zm0 0"/><path fill="#4f3065" d="m138.004 217.363 20.324 15.535-30.105.649Zm0 0"/><path fill="#532e65" d="M245.871 82.762 234.63 67.766l20.59 3.87Zm0 0"/><path fill="#5e3266" d="M110.438 48.832 71.238 0h62.434Zm0 0"/><path fill="#5f3267" d="m71.238 0 39.2 48.832-44.665.695Zm0 0"/><path fill="#493164" d="m249.004 194.477 13.672-5.77-5.352 19.172Zm0 0"/><path fill="#522f65" d="m238.375 203.195 10.629-8.718 8.32 13.402Zm0 0"/><path fill="#4e3065" d="m262.676 188.707-13.672 5.77-3.02-15.16Zm0 0"/><path fill="#fbc97e" d="m233.598 179.531 6.93 11.95-11.454-6.079Zm0 0"/><path fill="#5d2b66" d="m240.527 191.48 8.477 2.997-10.629 8.718Zm0 0"/><path fill="#fdcd7f" d="m240.527 191.48-6.93-11.949 12.387-.215Zm0 0"/><path fill="#4b2f65" d="m249.004 194.477-8.477-2.997 5.457-12.164Zm0 0"/><path fill="#504160" d="m226.797 165.621 10.691-11.281 4.739 7.87Zm0 0"/><path fill="#502e65" d="m258.012 151.617 6.957-15.82 18.836 7.324Zm0 0"/><path fill="#672867" d="m258.012 151.617-5.895-12.035 12.852-3.785Zm0 0"/><path fill="#fbf8fb" d="m252.117 139.582-5.16 14.332-1.984-12.348Zm0 0"/><path fill="#fbf9fb" d="m246.957 153.914-9.469.426 7.485-12.774Zm0 0"/><path fill="#e4e0e8" d="m237.488 154.34 9.469-.426-4.73 8.297Zm0 0"/><path fill="#fdfafd" d="m258.012 151.617-11.055 2.297 5.16-14.332Zm0 0"/><path fill="#fccc7f" d="m233.598 179.531 5.109-7.23 7.277 7.015Zm0 0"/><path fill="#fdcd7f" d="m238.707 172.3 7.305-1.195-.028 8.211Zm0 0"/><path fill="#ebb87a" d="m238.707 172.3-5.11 7.231-6.8-13.91Zm0 0"/><path fill="#e8b57a" d="m242.227 162.21-3.52 10.09-11.91-6.679Zm0 0"/><path fill="#fdce7f" d="m246.012 171.105-7.305 1.196 3.52-10.09Zm0 0"/><path fill="#423164" d="m151.86 357.945 33.699 9.176-1.88 16.879Zm0 0"/><path fill="#493164" d="m0 325.113 38.773 23.63L-.007 384Zm0 0"/><path fill="#413264" d="m338.387 311.82-12.004-41.672 57.617 5.04Zm0 0"/><path fill="#4c2f65" d="m227.102 238.117 9.05-18.558-5.906 19.886Zm0 0"/><path fill="#4d3065" d="m278.277 172.04-16.496-14.044 22.024-14.875Zm0 0"/><path fill="#4c2f65" d="m261.781 157.996-3.77-6.379 25.794-8.496Zm0 0"/><path fill="#483064" d="m283.805 143.121 36.738 14.066-42.266 14.852Zm0 0"/><path fill="#473164" d="m320.543 157.188-28.063 49.636-14.203-34.785Zm0 0"/><path fill="#413164" d="M344.875 349.902 384 329.972V384Zm0 0"/><path fill="#403164" d="m183.68 384 40.617-20.832L259.84 384Zm0 0"/><path fill="#423164" d="M224.297 363.168 183.68 384l1.879-16.879Zm0 0"/><path fill="#463164" d="m175.723 312.793-18.575 17.422-3.023-27.223Zm0 0"/><path fill="#fecf7f" d="m175.723 312.793 11.976 4.465-6.672 11.851Zm0 0"/><path fill="#413164" d="m170.121 346.977 15.602 4.175-.164 15.97Zm0 0"/><path fill="#423164" d="m170.121 346.977 15.438 20.144-33.7-9.176Zm0 0"/><path fill="#453064" d="m157.148 330.215 12.973 16.762-18.262 10.968Zm0 0"/><path fill="#463164" d="m157.148 330.215-35.296-2.383 32.273-24.84Zm0 0"/><path fill="#473164" d="m121.852 327.832 11.78-55.418 20.493 30.578Zm0 0"/><path fill="#4d3065" d="m133.633 272.414-11.781 55.418-35.672-39.508Zm0 0"/><path fill="#493064" d="m154.125 302.992-20.492-30.578 35.773 11.07ZM169.406 283.484l-35.773-11.07 30.734-10.496Zm0 0"/><path fill="#4d2f65" d="m158.328 232.898-24.695 39.516-5.41-38.867Zm0 0"/><path fill="#4a3164" d="m133.633 272.414 24.695-39.516 6.04 29.02Zm0 0"/><path fill="#f9c87e" d="m198.68 264.04-14.243-26.731 25.536-.133Zm0 0"/><path fill="#dfad78" d="m184.438 237.309 14.242 26.73-22.97-4.922Zm0 0"/><path fill="#fdce7f" d="m217.133 258.543 9.969-20.426-2.438 20.008Zm0 0"/><path fill="#f8c77e" d="m227.102 238.117-9.97 20.426-7.16-21.367Zm0 0"/><path fill="#be886f" d="m217.133 258.543-18.453 5.496 11.293-26.863Zm0 0"/><path fill="#fecf7f" d="m187.7 317.258 5.148-8.29 2.59 11.27Zm0 0"/><path fill="#fac97e" d="m192.848 308.969-4.29-22.727 19.606 5.274Zm0 0"/><path fill="#423164" d="m222.637 338.75 35.48-3.336-33.82 27.754Zm0 0"/><path fill="#f0c07c" d="m217.133 258.543-2.504 18.746-15.95-13.25Zm0 0"/><path fill="#f0be7c" d="m198.68 264.04 15.949 13.25-6.465 14.226Zm0 0"/><path fill="#b4776c" d="m188.559 286.242 10.12-22.203 9.485 27.477Zm0 0"/><path fill="#fecf7f" d="m175.723 312.793 17.125-3.824-5.149 8.289Zm0 0"/><path fill="#413164" d="m230.55 314.36 27.567 21.054-35.48 3.336Zm0 0"/><path fill="#423164" d="m258.117 335.414-27.566-21.055 19.36-21.074Zm0 0"/><path fill="#532e66" d="m163.82 51.875-.11-23.441 13.052 12.375Zm0 0"/><path fill="#523065" d="m163.71 28.434.11 23.441-15.867-13.555Zm0 0"/><path fill="#503065" d="m163.82 51.875-16.355 3.262.488-16.817Zm0 0"/><path fill="#552f66" d="m147.465 55.137 16.355-3.262-1.222 3.93Zm0 0"/><path fill="#563165" d="m74.23 213.625-25.644 34.766-8.945-49.723Zm0 0"/><path fill="#5d2b66" d="m76.285 172.66-6.125-43.75 31.07 14.336Zm0 0"/><path fill="#542e66" d="m182.063 27.34 13.949-7.824-1.438 14.203Zm0 0"/><path fill="#522f66" d="m163.71 28.434 18.352-1.094-5.3 13.469Zm0 0"/><path fill="#522f65" d="m226.125 27.742-13.418 13.68-18.133-7.703Zm0 0"/><path fill="#fbe4f0" d="m212.707 41.422-19.555 2.191 1.422-9.894Zm0 0"/><path fill="#4f2f65" d="m212.707 41.422 13.418-13.68.277 23.399Zm0 0"/><path fill="#eb85b7" d="m193.152 43.613 19.555-2.191-7.191 17.234Zm0 0"/><path fill="#572f66" d="m157.047 64.309-9.582-9.172 15.133.668Zm0 0"/><path fill="#5e2c67" d="m139.941 77.559 17.106-13.25 1.082 14.105Zm0 0"/><path fill="#5d2d67" d="m147.465 55.137 9.582 9.172-17.106 13.25Zm0 0"/><path fill="#a94173" d="m181.8 78.277 4.774 9.246-10.933 5.403Zm0 0"/><path fill="#a34667" d="m186.164 96.64.41-9.117 9.168 3.149Zm0 0"/><path fill="#8e4b6d" d="m186.574 87.523-.41 9.118-10.523-3.715Zm0 0"/><path fill="#fcfafd" d="m186.164 96.64 3.856 13.067-14.418-1.172Zm0 0"/><path fill="#ddd8e1" d="m224.957 124.457 2.688-11.727 17.671 10.864Zm0 0"/><path fill="#fdfafd" d="m214.246 104.656-15.64-1.66 12.12-8.195Zm0 0"/><path fill="#4f2e65" d="m135.152 163.16 7.801 7.34-10.644 10.602Zm0 0"/><path fill="#5c2c67" d="m142.953 170.5-7.8-7.34 10.808 1.664Zm0 0"/><path fill="#beb6c6" d="m142.656 147.043 11.27-12.137 7.285 12.696Zm0 0"/><path fill="#a293aa" d="m153.926 134.906 19.449-3.043-12.164 15.739Zm0 0"/><path fill="#fefcfe" d="m151.805 91.977 9.093-4.348 4.887 19.492Zm0 0"/><path fill="#fefbfe" d="m150.29 101.426 1.515-9.45 13.98 15.145Zm0 0"/><path fill="#fcf0f7" d="m160.898 87.629-9.093 4.348 4.957-5.758Zm0 0"/><path fill="#fefafd" d="m151.805 91.977-1.516 9.449-9.617-3.48Zm0 0"/><path fill="#5d2e67" d="M151.805 91.977 139.94 77.559l16.82 8.66Zm0 0"/><path fill="#5d2d67" d="m139.941 77.559 11.864 14.418-11.133 5.968Zm0 0"/><path fill="#612f67" d="M139.941 77.559 116.68 90.766l-6.243-41.934Zm0 0"/><path fill="#602c67" d="m116.68 90.766 22.636 17.925-35.128 4.848Zm0 0"/><path fill="#602c66" d="m116.68 90.766 23.261-13.207.73 20.386Zm0 0"/><path fill="#692968" d="M139.316 108.691 116.68 90.766l23.992 7.18Zm0 0"/><path fill="#632b67" d="m116.68 90.766-12.493 22.773-25.425-26.328Zm0 0"/><path fill="#652e67" d="m110.438 48.832 6.242 41.934-37.918-3.555Zm0 0"/><path fill="#fecd7f" d="m171.79 211.7-8.81-24.005 21.778-2.398Zm0 0"/><path fill="#fccc7f" d="m151.668 171.996-6.063 6.328-2.652-7.824Zm0 0"/><path fill="#fccc7f" d="m151.668 171.996-8.715-1.496 3.008-5.676Zm0 0"/><path fill="#fbc47e" d="m162.98 187.695-11.312-15.699 16.367-4.2Zm0 0"/><path fill="#f2c17c" d="m156.242 162.016-4.574 9.98-5.707-7.172Zm0 0"/><path fill="#f7c27d" d="m151.668 171.996 4.574-9.98 11.793 5.78Zm0 0"/><path fill="#fecd7f" d="m145.605 178.324 6.063-6.328 11.312 15.7Zm0 0"/><path fill="#c4836f" d="m209.973 237.176 11.472-24.403 5.657 25.344Zm0 0"/><path fill="#513065" d="m153.172 211.293 5.156 21.605-20.324-15.535Zm0 0"/><path fill="#4b2f65" d="m151.375 199.262-11.152 1.082 6.132-10.598Zm0 0"/><path fill="#fecf7f" d="m162.98 187.695-11.605 11.567-5.02-9.516Zm0 0"/><path fill="#ee9ec5" d="m213.45 72.926-10.247-.524 2.313-13.746Zm0 0"/><path fill="#de5f9d" d="m213.45 72.926-6.66 5.96-3.587-6.484Zm0 0"/><path fill="#f6c67d" d="m210.547 186.133-11.363 26.316-14.426-27.152Zm0 0"/><path fill="#a56969" d="m210.547 186.133 10.898 26.64-22.261-.324Zm0 0"/><path fill="#b66d6b" d="m210.547 186.133 7.21-16.196 11.317 15.465Zm0 0"/><path fill="#f9c37e" d="m221.445 212.773 16.93-9.578-2.223 16.364Zm0 0"/><path fill="#fbca7e" d="m233.203 198.96 7.324-7.48-2.152 11.715Zm0 0"/><path fill="#d49c74" d="m221.445 212.773 11.758-13.812 5.172 4.234Zm0 0"/><path fill="#fdcd7f" d="m240.527 191.48-7.324 7.48-4.129-13.558Zm0 0"/><path fill="#dfaa77" d="m210.547 186.133-3.512-17.156 10.723.96Zm0 0"/><path fill="#8e869f" d="m194.734 156.73 3.356 7.458-6.68.156Zm0 0"/><path fill="#fac67e" d="m196.316 169.23-11.558 16.067 6.652-20.953Zm0 0"/><path fill="#4f3d61" d="m198.09 164.188-1.774 5.042-4.906-4.886Zm0 0"/><path fill="#f8ca7e" d="m249.723 163.05-3.711 8.055-3.785-8.894Zm0 0"/><path fill="#d2cbd6" d="m246.957 153.914 2.766 9.137-7.496-.84Zm0 0"/><path fill="#fbf9fb" d="m249.723 163.05-2.766-9.136 11.055-2.297Zm0 0"/><path fill="#fcf1f7" d="m261.781 157.996-12.058 5.055 8.289-11.434Zm0 0"/><path fill="#f9f5f9" d="m254 119.262-1.883 20.32-6.8-15.988Zm0 0"/><path fill="#fbf7fa" d="m245.316 123.594 6.801 15.988-7.144 1.984Zm0 0"/><path fill="#5b2d66" d="m252.117 139.582 1.883-20.32 10.969 16.535Zm0 0"/><path fill="#fece7f" d="m188.152 335.016-7.125-5.907 14.41-8.87Zm0 0"/><path fill="#413164" d="m185.723 351.152 4.464 2.051-4.628 13.918Zm0 0"/><path fill="#4a3164" d="m0 278.008 41.309 26.387L0 325.113Zm0 0"/><path fill="#493164" d="m41.309 304.395-2.536 44.347L0 325.113Zm0 0"/><path fill="#efbb7b" d="m199.184 212.45 22.261.323-11.472 24.403Zm0 0"/><path fill="#4c3065" d="m246.012 171.105 12.242 1.805-12.27 6.406Zm0 0"/><path fill="#4e3065" d="m258.254 172.91 4.422 15.797-16.692-9.39Zm0 0"/><path fill="#5c2c66" d="m249.723 163.05 8.53 9.86-12.241-1.805Zm0 0"/><path fill="#612a67" d="m258.254 172.91-8.531-9.86 12.058-5.054Zm0 0"/><path fill="#483064" d="m258.254 172.91 20.023-.87-15.601 16.667Zm0 0"/><path fill="#4c2f65" d="m258.254 172.91 3.527-14.914 16.496 14.043Zm0 0"/><path fill="#403264" d="m384 329.973-39.125 19.93-6.488-38.083Zm0 0"/><path fill="#3f3164" d="m322.613 384 22.262-34.098L384 384Zm0 0"/><path fill="#433164" d="m173.242 332.02 2.48-19.227 5.305 16.316Zm0 0"/><path fill="#443164" d="m175.723 312.793-2.48 19.227-16.095-1.805Zm0 0"/><path fill="#423164" d="m173.242 332.02-3.12 14.957-12.974-16.762Zm0 0"/><path fill="#fdcd7f" d="m214.629 277.29 10.035-19.165-4.191 20.195ZM224.664 258.125l-10.035 19.164 2.504-18.746Zm0 0"/><path fill="#413164" d="m220.473 278.32 4.191-20.195 15.344 7.227Zm0 0"/><path fill="#463064" d="m224.664 258.125 5.582-18.68 9.762 25.907Zm0 0"/><path fill="#fbc97e" d="m188.559 286.242-19.153-2.758-5.039-21.566Zm0 0"/><path fill="#fdcd7f" d="m175.71 259.117 12.849 27.125-24.192-24.324Zm0 0"/><path fill="#fccb7f" d="m188.559 286.242-12.848-27.125 22.969 4.922Zm0 0"/><path fill="#433164" d="m211.91 321.36 18.64-7-7.913 24.39Zm0 0"/><path fill="#423164" d="m211.91 321.36.266-10.684 18.375 3.683Zm0 0"/><path fill="#443164" d="m212.176 310.676 4.75-18.887 13.625 22.57Zm0 0"/><path fill="#fdcb7f" d="m216.926 291.79-2.297-14.5 5.844 1.03Zm0 0"/><path fill="#fdce7f" d="m214.629 277.29 2.297 14.5-8.762-.274Zm0 0"/><path fill="#fbca7e" d="m216.926 291.79-4.75 18.886-4.012-19.16Zm0 0"/><path fill="#433164" d="m249.91 293.285-32.984-1.496 3.547-13.469Zm0 0"/><path fill="#463164" d="m230.55 314.36-13.624-22.57 32.984 1.495Zm0 0"/><path fill="#fef9fd" d="m178.547 50.965-14.727.91 12.942-11.066Zm0 0"/><path fill="#fcebf4" d="m163.82 51.875 14.727-.91-15.95 4.84Zm0 0"/><path fill="#5a2c66" d="m113.043 168.242-36.758 4.418 24.945-29.414Zm0 0"/><path fill="#fdf6fa" d="m193.152 43.613-7.457-5.234 8.88-4.66Zm0 0"/><path fill="#522e65" d="m185.695 38.379-3.632-11.04 12.511 6.38Zm0 0"/><path fill="#fcf1f8" d="m178.547 50.965 7.148-12.586 7.457 5.234Zm0 0"/><path fill="#fdf2f8" d="m185.695 38.379-7.148 12.586-1.785-10.156Zm0 0"/><path fill="#562f66" d="m182.063 27.34 3.632 11.039-8.933 2.43Zm0 0"/><path fill="#f7c8df" d="m216.55 57.355-3.843-15.933 13.695 9.719Zm0 0"/><path fill="#f09ac5" d="m212.707 41.422 3.844 15.933-11.035 1.301Zm0 0"/><path fill="#de5399" d="m216.55 57.355-3.1 15.57-7.934-14.269Zm0 0"/><path fill="#fef6fb" d="m178.547 50.965-9.242 14.515-6.707-9.675Zm0 0"/><path fill="#fce7f2" d="m157.047 64.309 12.258 1.171-11.176 12.934Zm0 0"/><path fill="#fef5fa" d="m169.305 65.48-12.258-1.171 5.55-8.504Zm0 0"/><path fill="#fbe6f1" d="m169.305 65.48 20.097-1.418-7.601 14.215Zm0 0"/><path fill="#fbe4f0" d="m189.402 64.063-20.097 1.417 9.242-14.515Zm0 0"/><path fill="#fdfbfd" d="m173.375 131.863 2.227-23.328 11.816 17.692Zm0 0"/><path fill="#d2ced9" d="m185.988 140.355-12.613-8.492 14.043-5.636Zm0 0"/><path fill="#fefbfd" d="m147.523 109.094-8.207-.403 1.356-10.746Zm0 0"/><path fill="#fcf6fa" d="m150.29 101.426-2.767 7.668-6.851-11.149Zm0 0"/><path fill="#fcfafc" d="m165.785 107.121-18.262 1.973 2.766-7.668Zm0 0"/><path fill="#fefbfe" d="m139.316 108.691 8.207.403-11.015 12.543Zm0 0"/><path fill="#aa4973" d="m195.367 80.793-8.793 6.73-4.773-9.246Zm0 0"/><path fill="#bc5a93" d="m189.402 64.063 5.965 16.73-13.566-2.516Zm0 0"/><path fill="#ad7e9b" d="m195.367 80.793 10.153 5.598-9.778 4.28Zm0 0"/><path fill="#a55375" d="m186.574 87.523 8.793-6.73.375 9.879Zm0 0"/><path fill="#963768" d="m195.367 80.793 11.422-1.906-1.27 7.504Zm0 0"/><path fill="#e38bb6" d="m206.79 78.887-11.423 1.906 7.836-8.39Zm0 0"/><path fill="#b55e93" d="m195.367 80.793-5.965-16.73 13.801 8.34Zm0 0"/><path fill="#fdfbfd" d="m210.727 94.8-12.122 8.196-2.863-12.324Zm0 0"/><path fill="#fefcfe" d="m198.605 102.996-12.44-6.355 9.577-5.97ZM198.605 102.996l-8.585 6.711-3.856-13.066Zm0 0"/><path fill="#f3f0f4" d="m202.45 117.262-2.9 12.633-12.132-3.668Zm0 0"/><path fill="#e8e5ec" d="m218.691 153.832 15.153-7.754 3.644 8.262Zm0 0"/><path fill="#a59caf" d="m226.797 165.621-8.106-11.789 18.797.508Zm0 0"/><path fill="#cec8d3" d="m227.645 112.73 12.843-13.367 4.828 24.23Zm0 0"/><path fill="#e7e3ea" d="m224.29 96.246 16.198 3.117-12.843 13.367Zm0 0"/><path fill="#d2c8d4" d="m202.45 117.262 17.636-.645-1.824 5.434Zm0 0"/><path fill="#f5f2f6" d="m218.262 122.05 1.824-5.433 4.871 7.84Zm0 0"/><path fill="#f9f7fa" d="m220.086 116.617 7.559-3.887-2.688 11.727Zm0 0"/><path fill="#f7f4f8" d="m214.246 104.656 10.043-8.41 3.356 16.484Zm0 0"/><path fill="#fdfbfd" d="m146.832 156.438-4.176-9.395 18.555.559Zm0 0"/><path fill="#bbb3c3" d="m146.832 156.438 9.41 5.578-10.281 2.808Zm0 0"/><path fill="#f4f1f5" d="m156.242 162.016-9.41-5.578 14.379-8.836Zm0 0"/><path fill="#bfb2c1" d="m135.152 163.16 11.68-6.722-.871 8.386Zm0 0"/><path fill="#d6cfdb" d="m173.375 131.863-7.59-24.742 9.817 1.414Zm0 0"/><path fill="#f8c37d" d="m162.98 187.695 15.422-18.789 6.356 16.39Zm0 0"/><path fill="#ee9d77" d="m178.402 168.906-15.422 18.79 5.055-19.9Zm0 0"/><path fill="#e1a376" d="m233.203 198.96-11.758 13.813 7.63-27.37Zm0 0"/><path fill="#c98a71" d="m209.973 237.176-25.536.133 14.747-24.86Zm0 0"/><path fill="#fbc67e" d="m171.79 211.7 27.394.75-14.746 24.859Zm0 0"/><path fill="#faf8fb" d="m173.375 131.863 12.613 8.492-10.414 7.497Zm0 0"/><path fill="#f7f5f8" d="m185.988 140.355 3.98 8.04-14.394-.543Zm0 0"/><path fill="#775c63" d="m207.035 168.977-10.719.253 1.774-5.042Zm0 0"/><path fill="#dda677" d="m196.316 169.23 10.72-.253 3.51 17.156Zm0 0"/><path fill="#c0826f" d="m184.758 185.297 11.558-16.067 14.23 16.903Zm0 0"/><path fill="#fdcd7f" d="m211.91 321.36-5.726 16.945-10.746-18.067Zm0 0"/><path fill="#e9af79" d="m206.184 338.305-18.032-3.29 7.286-14.777Zm0 0"/><path fill="#443064" d="m173.242 332.02 8.63 6.425-11.75 8.532Zm0 0"/><path fill="#433064" d="m170.121 346.977 11.75-8.532 3.852 12.707Zm0 0"/><path fill="#fecf7f" d="m188.152 335.016-6.28 3.43-.845-9.337Zm0 0"/><path fill="#463064" d="m181.871 338.445-8.629-6.425 7.785-2.91Zm0 0"/><path fill="#fdc97f" d="m192.848 308.969-19.356-10.59 15.067-12.137Zm0 0"/><path fill="#fece7f" d="m173.492 298.379-4.086-14.895 19.153 2.758Zm0 0"/><path fill="#463064" d="m173.492 298.379 2.23 14.414-21.597-9.8Zm0 0"/><path fill="#fccb7f" d="m173.492 298.379 19.356 10.59-17.125 3.824Zm0 0"/><path fill="#473064" d="m169.406 283.484 4.086 14.895-19.367 4.613Zm0 0"/><path fill="#fece7f" d="m201.719 312.906 10.191 8.453-16.472-1.12ZM192.848 308.969l8.87 3.937-6.28 7.332Zm0 0"/><path fill="#fece7f" d="m211.91 321.36-10.191-8.454 10.457-2.23Zm0 0"/><path fill="#e5b479" d="m201.719 312.906-8.871-3.937 15.316-17.453Zm0 0"/><path fill="#c59472" d="m212.176 310.676-10.457 2.23 6.445-21.39Zm0 0"/><path fill="#522f65" d="m108.426 204.195 4.617-35.953 19.266 12.86Zm0 0"/><path fill="#f8d0e4" d="m166.777 81.172-5.879 6.457-2.77-9.215Zm0 0"/><path fill="#fbe0ee" d="m169.305 65.48-2.528 15.692-8.648-2.758Zm0 0"/><path fill="#f7cce1" d="m166.777 81.172 2.528-15.692L181.8 78.277Zm0 0"/><path fill="#d95498" d="m160.898 87.629 5.88-6.457 8.863 11.754Zm0 0"/><path fill="#f0b6d2" d="m166.777 81.172 15.024-2.895-6.16 14.649Zm0 0"/><path fill="#d14b8f" d="m213.45 72.926 1.655 9.453-8.316-3.492Zm0 0"/><path fill="#ca5c94" d="m215.105 82.379-9.585 4.012 1.27-7.504Zm0 0"/><path fill="#792e6d" d="m221.867 77.676-6.762 4.703-1.656-9.453Zm0 0"/><path fill="#fefbfd" d="m205.52 86.39 9.585-4.011-4.378 12.422Zm0 0"/><path fill="#f4f1f5" d="m224.957 124.457-12.3 9.676 5.605-12.082Zm0 0"/><path fill="#5d5376" d="m204.848 139.55-3.094-3.687 3.418-2.16Zm0 0"/><path fill="#655c7d" d="m201.754 135.863 3.094 3.688-9.063 1.054Zm0 0"/><path fill="#605678" d="m201.754 135.863-5.969 4.742 3.766-10.71Zm0 0"/><path fill="#e9e6ec" d="m199.55 129.895-3.765 10.71-8.367-14.378Zm0 0"/><path fill="#bdb7c7" d="m195.785 140.605-9.797-.25 1.43-14.128Zm0 0"/><path fill="#fdfbfd" d="m198.605 102.996 3.844 14.266-12.43-7.555Zm0 0"/><path fill="#7c728f" d="m207.059 127.574 5.597 6.559-7.484-.43Zm0 0"/><path fill="#ccc5d2" d="m207.059 127.574-4.61-10.312 15.813 4.789Zm0 0"/><path fill="#cfc7d3" d="m212.656 134.133-5.597-6.559 11.203-5.523Zm0 0"/><path fill="#e2dde5" d="m218.691 153.832-9.375-.066 2.02-8.801Zm0 0"/><path fill="#f5f2f6" d="m198.605 102.996 15.641 1.66-11.797 12.606Zm0 0"/><path fill="#e9e3ea" d="m214.246 104.656 5.84 11.961-17.637.645Zm0 0"/><path fill="#faf7fa" d="m220.086 116.617-5.84-11.96 13.399 8.073Zm0 0"/><path fill="#fcf9fc" d="m214.246 104.656-3.52-9.855 13.563 1.445Zm0 0"/><path fill="#dfdae3" d="m153.926 134.906-11.27 12.137-4.894-11.156Zm0 0"/><path fill="#fcf9fc" d="m142.656 147.043 4.176 9.394-11.68 6.723Zm0 0"/><path fill="#fefcfe" d="m142.656 147.043-14.625.793 9.73-11.95ZM142.656 147.043l-7.504 16.117-7.12-15.324Zm0 0"/><path fill="#d8d2dc" d="m156.059 118.824 17.316 13.04-19.45 3.042Zm0 0"/><path fill="#f7f4f8" d="m156.059 118.824-2.133 16.082-17.418-13.27Zm0 0"/><path fill="#fcf9fc" d="m147.523 109.094 8.536 9.73-19.551 2.813Zm0 0"/><path fill="#fdfafd" d="m156.059 118.824-8.536-9.73 18.262-1.973Zm0 0"/><path fill="#d3c5d4" d="m173.375 131.863-17.316-13.039 9.726-11.703Zm0 0"/><path fill="#fbca7e" d="m184.758 185.297-6.356-16.39 13.008-4.563Zm0 0"/><path fill="#f6c17d" d="m221.445 212.773-10.898-26.64 18.527-.73Zm0 0"/><path fill="#f6bf7d" d="m153.172 211.293 9.969 20.402-4.813 1.203Zm0 0"/><path fill="#fbca7e" d="m158.184 203.496-5.012 7.797-1.797-12.031Zm0 0"/><path fill="#522f65" d="m140.223 200.344 12.949 10.949-15.168 6.07Zm0 0"/><path fill="#522f66" d="m153.172 211.293-12.95-10.95 11.153-1.081Zm0 0"/><path fill="#f9bc7c" d="m162.98 187.695-4.796 15.801-6.809-4.234Zm0 0"/><path fill="#fccb7f" d="m158.184 203.496 13.605 8.203-18.617-.406Zm0 0"/><path fill="#fdcd7f" d="m171.79 211.7-8.65 19.995-9.968-20.402Zm0 0"/><path fill="#e9a277" d="m163.14 231.695 8.65-19.996 12.648 25.61Zm0 0"/><path fill="#b5518d" d="m224.664 69.309-11.215 3.617 3.102-15.57Zm0 0"/><path fill="#a54280" d="m224.664 69.309-2.797 8.367-8.418-4.75Zm0 0"/><path fill="#fbe5ee" d="m234.629 67.766-9.965 1.543 1.738-18.168Zm0 0"/><path fill="#ed81b4" d="m224.664 69.309-8.113-11.954 9.851-6.214Zm0 0"/><path fill="#f9f6f9" d="m189.969 148.395-3.98-8.04 9.796.25Zm0 0"/><path fill="#fbf9fc" d="m161.21 147.602 12.165-15.739 2.2 15.989Zm0 0"/><path fill="#fefcfe" d="m161.21 147.602 14.364.25-8.07 8.253Zm0 0"/><path fill="#413164" d="m222.637 338.75-16.453-.445 5.726-16.946Zm0 0"/><path fill="#552e66" d="m76.285 172.66 32.14 31.535-34.195 9.43Zm0 0"/><path fill="#562e66" d="m113.043 168.242-4.617 35.953-32.14-31.535Zm0 0"/><path fill="#867d98" d="m212.656 134.133-7.808 5.418.324-5.848Zm0 0"/><path fill="#beb8c7" d="m204.848 139.55 7.808-5.417-1.32 10.832Zm0 0"/><path fill="#fdfbfd" d="m175.602 108.535 14.418 1.172-2.602 16.52ZM190.02 109.707l12.43 7.555-15.032 8.965Zm0 0"/><path fill="#938aa2" d="m207.059 127.574-7.508 2.32 2.898-12.632Zm0 0"/><path fill="#5d5376" d="m201.754 135.863-2.203-5.968 5.62 3.808Zm0 0"/><path fill="#796f8d" d="m199.55 129.895 7.509-2.32-1.887 6.128Zm0 0"/><path fill="#d2ced9" d="m209.316 153.766-8.156-5.598 10.176-3.203Zm0 0"/><path fill="#c3bdcc" d="m201.16 148.168 3.688-8.617 6.488 5.414Zm0 0"/><path fill="#f8f6f9" d="m189.969 148.395 11.191-.227-6.426 8.562Zm0 0"/><path fill="#cdc9d5" d="m204.848 139.55-3.688 8.618-5.375-7.563Zm0 0"/><path fill="#f5f3f7" d="m201.16 148.168-11.191.227 5.816-7.79Zm0 0"/><path fill="#8e7b8e" d="m207.035 168.977 6.309-5.067 4.414 6.028Zm0 0"/><path fill="#cdc5d1" d="m217.758 169.938-4.414-6.028 13.453 1.711Zm0 0"/><path fill="#e9e3ea" d="m213.344 163.91 5.347-10.078 8.106 11.79Zm0 0"/><path fill="#cfc9d5" d="m213.344 163.91-4.028-10.144 9.375.066Zm0 0"/><path fill="#624d6b" d="m179.129 156.176-.727 12.73-10.367-1.11Zm0 0"/><path fill="#faf8fb" d="m179.129 156.176-11.094 11.62-.531-11.69Zm0 0"/><path fill="#fefcfe" d="m175.574 147.852 3.555 8.324-11.625-.07Zm0 0"/><path fill="#ece9ef" d="m179.129 156.176 15.605.554-3.324 7.614Zm0 0"/><path fill="#817590" d="m178.402 168.906.727-12.73 12.281 8.168Zm0 0"/><path fill="#fbf9fc" d="m179.129 156.176 10.84-7.781 4.765 8.335Zm0 0"/><path fill="#fbf9fb" d="m189.969 148.395-10.84 7.78-3.555-8.323Zm0 0"/><path fill="#d65e98" d="m224.664 69.309 9.941 10.82-12.738-2.453Zm0 0"/><path fill="#592c66" d="m245.871 82.762-11.266-2.633.024-12.363Zm0 0"/><path fill="#ef9bb4" d="m234.605 80.129-9.94-10.82 9.964-1.543Zm0 0"/><path fill="#652a67" d="m234.605 80.129 11.266 2.633-8.273 7.176Zm0 0"/><path fill="#413164" d="M206.664 351.86 185.56 367.12l4.629-13.918Zm0 0"/><path fill="#433164" d="m222.637 338.75-15.973 13.11-.48-13.555Zm0 0"/><path fill="#423164" d="m224.297 363.168-17.633-11.309 15.973-13.109Zm0 0"/><path fill="#413164" d="m185.559 367.121 21.105-15.262 17.633 11.309Zm0 0"/><path fill="#f4f0f4" d="m212.656 134.133 9.516 5.308-10.836 5.524Zm0 0"/><path fill="#9f96ac" d="m218.691 153.832 3.48-14.39 11.673 6.636Zm0 0"/><path fill="#f4f1f5" d="m222.172 139.441-3.48 14.391-7.356-8.867Zm0 0"/><path fill="#f7f3f7" d="m222.172 139.441-9.516-5.308 12.301-9.676Zm0 0"/><path fill="#f4f1f5" d="m201.16 148.168 2.309 10.195-8.735-1.633Zm0 0"/><path fill="#d2ced9" d="m203.469 158.363-2.309-10.195 8.156 5.598Zm0 0"/><path fill="#4d4065" d="m203.469 158.363 3.566 10.614-8.945-4.79Zm0 0"/><path fill="#847b96" d="m194.734 156.73 8.735 1.633-5.38 5.825Zm0 0"/><path fill="#e0dce4" d="m203.469 158.363 9.875 5.547-6.309 5.067Zm0 0"/><path fill="#b9b3c3" d="m213.344 163.91-9.875-5.547 5.847-4.597Zm0 0"/><path fill="#f7b77c" d="m162.98 187.695 8.81 24.004-13.606-8.203Zm0 0"/><path fill="#f9f7fa" d="m224.29 96.246.382-11.816 12.926 5.507Zm0 0"/><path fill="#eed0de" d="m224.672 84.43 9.933-4.301 2.993 9.808Zm0 0"/><path fill="#f7f5f8" d="m210.727 94.8 13.945-10.37-.383 11.816Zm0 0"/><path fill="#cb4781" d="m234.605 80.129-9.933 4.3-2.805-6.753Zm0 0"/><path fill="#78326d" d="m224.672 84.43-9.567-2.051 6.762-4.703Zm0 0"/><path fill="#fdfbfd" d="M224.672 84.43 210.727 94.8l4.378-12.421Zm0 0"/><path fill="#463064" d="m190.34 349.215 16.324 2.644-16.476 1.344Zm0 0"/><path fill="#fac87e" d="m206.664 351.86-16.324-2.645 15.844-10.91Zm0 0"/><path fill="#fecf7f" d="m206.184 338.305-15.844 10.91-2.188-14.2Zm0 0"/><path fill="#463064" d="m190.34 349.215-.153 3.988-4.464-2.05Zm0 0"/><path fill="#fecc7f" d="m181.871 338.445 8.469 10.77-4.617 1.937Zm0 0"/><path fill="#fecf7f" d="m190.34 349.215-8.469-10.77 6.281-3.43Zm0 0"/><path fill="#716584" d="m232.7 136.828 3.741-3.933 8.532 8.671Zm0 0"/><path fill="#867c96" d="m233.844 146.078-1.145-9.25 12.274 4.738Zm0 0"/><path fill="#877f99" d="m232.7 136.828-7.743-12.371 11.484 8.438Zm0 0"/><path fill="#89819a" d="m232.7 136.828-10.528 2.613 2.785-14.984Zm0 0"/><path fill="#867e99" d="m222.172 139.441 10.527-2.613 1.145 9.25Zm0 0"/><path fill="#f6c47d" d="m163.14 231.695 12.57 27.422-11.343 2.801Zm0 0"/><path fill="#fecf7f" d="m163.14 231.695 21.298 5.614-8.727 21.808Zm0 0"/><path fill="#fdcc7f" d="m158.328 232.898 4.813-1.203 1.226 30.223Zm0 0"/></svg>