<svg xmlns="http://www.w3.org/2000/svg" width="512" height="512" viewBox="0 0 384 384"><path fill="#b8bcc5" d="M55.656 0h60.446L74.855 36.172Zm0 0"/><path fill="#b7bbc4" d="m111.3 333.465 39.263-8.172-4.434 29.004Zm0 0"/><path fill="#b6bac3" d="m273.313 297.848-3.243-49.868 46.055 22.528Zm0 0"/><path fill="#b7bbc4" d="m270.07 247.98 3.243 49.868-29.399-17.993ZM384 62.125 343.352 84.23l3.359-41.425ZM116.785 244.195l16.246-29.468 8.262 23.648ZM116.879 289.582l33.683 35.711-39.261 8.172ZM384 264.438l-49.238-44.696L384 186.574Zm0 0"/><path fill="#b7bbc4" d="m238.2 254.344 31.87-6.364-26.156 31.875ZM296.848 228.77l4.097-28.391 33.817 19.363Zm0 0"/><path fill="#b7bbc4" d="m269.234 209.996 27.614 18.774-26.778 19.21ZM296.848 228.77l-27.614-18.774 31.711-9.617Zm0 0"/><path fill="#b7bbc4" d="m270.07 247.98 26.778-19.21 19.277 41.738Zm0 0"/><path fill="#b7bbc4" d="m316.125 270.508-19.277-41.738 37.914-9.028Zm0 0"/><path fill="#b6bbc4" d="m275.73 77.195-26.035-20.261 24.332-20.246Zm0 0"/><path fill="#b7bbc4" d="M310.398 56.434 312.953 0l33.758 42.805ZM334.07 127.98l9.282-43.75L384 118.996Zm0 0"/><path fill="#b7bbc4" d="M343.352 84.23 384 62.125v56.871ZM133.031 214.727l14.7 8.183-6.438 15.465Zm0 0"/><path fill="#b8bcc4" d="m74.855 36.172 41.579 7.215L90.12 72.965Zm0 0"/><path fill="#b8bcc5" d="m116.102 0 .332 43.387-41.579-7.215Zm0 0"/><path fill="#b8bcc4" d="m92.918 139.8-24.059-32.116 39.606-1.993ZM74.855 36.172l-31.94 34.523-7.122-39.07Zm0 0"/><path fill="#b7bbc4" d="M38.555 238.105 0 276.527v-57.675Zm0 0"/><path fill="#b7bbc4" d="m37.043 195.012 1.512 43.093L0 218.852ZM38.555 238.105l-1.512-43.093 29.871 18.86Zm0 0"/><path fill="#b7bbc4" d="m0 276.527 38.555-38.422 9.488 39.028ZM100.867 208.129l15.918 36.066-35.2 8.657ZM81.586 252.852l-3.223 49.441-30.32-25.16ZM78.363 302.293l3.223-49.441 35.293 36.73ZM78.363 302.293l38.516-12.711-5.578 43.883ZM146.129 354.297 110.71 384l.59-50.535ZM69.89 344.887l-37.242 6.422 5.735-36.743Zm0 0"/><path fill="#b7bbc4" d="m78.363 302.293-8.472 42.594-31.508-30.32ZM38.383 314.566 0 276.527l48.043.606ZM78.363 302.293l-39.98 12.273 9.66-37.433ZM326.68 169.406 384 186.574l-49.238 33.168Zm0 0"/><path fill="#b7bbc4" d="m326.68 169.406 26.75-19.601 30.57 36.77ZM255.477 345.379l17.835-47.531 33.06 25.89Zm0 0"/><path fill="#b7bbc4" d="m273.313 297.848 42.812-27.34-9.754 53.23ZM0 172.414v-42.652l43.54 18.312Zm0 0"/><path fill="#b8bbc4" d="m0 172.414 43.54-24.34-6.497 46.938Zm0 0"/><path fill="#b7bbc4" d="M30.695 108.996 0 129.762V89.203Zm0 0"/><path fill="#b8bcc4" d="m0 129.762 30.695-20.766 12.844 39.078Zm0 0"/><path fill="#b7bbc4" d="m100.867 208.129-19.281 44.723-14.672-38.98ZM0 218.852v-46.438l37.043 22.598Zm0 0"/><path fill="#b8bcc4" d="m43.54 148.074 25.32-40.39L92.917 139.8Zm0 0"/><path fill="#b7bbc4" d="m198.137 0 40.222 26.668-31.8-3.813ZM249.695 56.934 238.36 26.668l35.668 10.02ZM247.86 75.758l1.835-18.824 26.035 20.261ZM249.695 56.934l-19.668-1.918 8.332-28.348Zm0 0"/><path fill="#b7bbc4" d="m255.355 0 18.672 36.688-35.668-10.02Zm0 0"/><path fill="#b7bbc4" d="M238.36 26.668 198.136 0h57.218ZM312.953 0l-38.926 36.688L255.355 0ZM274.027 36.688 312.953 0l-2.555 56.434Zm0 0"/><path fill="#b6bac3" d="M310.398 56.434 275.73 77.195l-1.703-40.507Zm0 0"/><path fill="#b7bbc4" d="m310.398 56.434 36.313-13.63-3.36 41.426Zm0 0"/><path fill="#b7bbc4" d="m384 62.125-37.29-19.32L384 0Zm0 0"/><path fill="#b7bbc4" d="M346.71 42.805 312.954 0H384ZM334.07 127.98l-26.578-28.449 35.86-15.3ZM307.492 99.531l2.906-43.097 32.954 27.796Zm0 0"/><path fill="#b7bbc4" d="m310.398 56.434-2.906 43.097-31.762-22.336Zm0 0"/><path fill="#cfd0d1" d="m177.191 94.887 1.66 9.281-15.878-4.363Zm0 0"/><path fill="#fcfbf9" d="m160.113 85.938 17.078 8.949-14.218 4.918Zm0 0"/><path fill="#fbfaf7" d="m202.996 86.621-3.523 9.473-4.91-6.14Zm0 0"/><path fill="#fefefe" d="m137.555 122.57 13.047 8.407-13.098 6.62Zm0 0"/><path fill="#b4b8c2" d="m230.027 55.016-7.672-8.317 16.004-20.031Zm0 0"/><path fill="#b7bbc4" d="m235.707 69.957 13.988-13.023-1.836 18.824Zm0 0"/><path fill="#b6bac3" d="m249.695 56.934-13.988 13.023-5.68-14.941Zm0 0"/><path fill="#b7bbc4" d="m238.36 26.668-22.47 9.445-9.331-13.258ZM215.89 36.113l-15.003-.84 5.672-12.418Zm0 0"/><path fill="#b7bbc4" d="m222.355 46.7-6.464-10.587 22.468-9.445Zm0 0"/><path fill="#b8bcc4" d="m116.434 43.387 11.851 31.972-38.164-2.394Zm0 0"/><path fill="#b8bcc4" d="m128.285 75.36-11.851-31.973 26.941 9.504Zm0 0"/><path fill="#b8bcc4" d="m90.121 72.965 38.164 2.394-19.82 30.332Zm0 0"/><path fill="#b8bcc4" d="m68.86 107.684 21.261-34.72 18.344 32.727Zm0 0"/><path fill="#b8bcc4" d="M90.121 72.965 68.86 107.684 42.914 70.695Zm0 0"/><path fill="#b7bbc4" d="m147.758 23.27-31.324 20.117L116.102 0Zm0 0"/><path fill="#b7bbc4" d="m198.137 0-50.38 23.27L116.103 0ZM187.453 24.543l-39.695-1.273L198.137 0ZM116.434 43.387l31.324-20.117-4.383 29.62Zm0 0"/><path fill="#b8bcc4" d="m42.914 70.695 31.941-34.523 15.266 36.793Zm0 0"/><path fill="#b7bbc4" d="M35.793 31.625 55.656 0l19.2 36.172Zm0 0"/><path fill="#d8aa09" d="m231.086 184.035-15.293-1.176 11.855-13.918Zm0 0"/><path fill="#efb903" d="m215.793 182.86 15.293 1.175-6.238 18.961Zm0 0"/><path fill="#b7bbc4" d="m243.285 220.664-4.195-13.312 30.144 2.644ZM133.031 214.727l-16.246 29.468-15.918-36.066ZM185.137 350.316l26.37 14.325L178.513 384Zm0 0"/><path fill="#fed755" d="m180.684 326.156 3.742-21.117 11 18.367Zm0 0"/><path fill="#b7bbc4" d="m69.89 344.887 8.473-42.594 32.938 31.172ZM69.89 344.887 110.71 384H52.286Zm0 0"/><path fill="#b7bbc4" d="m110.71 384-40.82-39.113 41.41-11.422ZM146.129 354.297 178.512 384H110.71ZM52.285 384H0l32.648-32.691Zm0 0"/><path fill="#b7bbc4" d="M69.89 344.887 52.286 384l-19.637-32.691ZM0 384v-51.793l32.648 19.102ZM384 264.438l-67.875 6.07 18.637-50.766ZM270.07 247.98l-26.785-27.316 25.95-10.668Zm0 0"/><path fill="#ecb704" d="m232.11 218.27 1.652 10.773-6.094-1.223Zm0 0"/><path fill="#b7bbc4" d="m233.762 229.043-1.653-10.773 11.176 2.394Zm0 0"/><path fill="#b7bbc4" d="m270.07 247.98-36.308-18.937 9.523-8.379ZM233.762 229.043l36.308 18.937-31.87 6.364Zm0 0"/><path fill="#b7bbc4" d="m225.836 248.156 4.984-1.633 7.38 7.82ZM299.742 136.664l7.75-37.133 26.578 28.45Zm0 0"/><path fill="#b6bac4" d="m269.828 137.281 29.914-.617-18.11 35.488ZM299.742 136.664l-21.398-23.898 29.148-13.235Zm0 0"/><path fill="#b6bac3" d="m278.344 112.766 21.398 23.898-29.914.617Zm0 0"/><path fill="#b7bbc4" d="m281.633 172.152 19.312 28.227-31.71 9.617ZM256.453 193.41l25.18-21.258-12.399 37.844ZM353.43 149.805 384 118.996v67.578ZM300.945 200.379l25.735-30.973 8.082 50.336ZM384 264.438v60.109l-38.465-18.067ZM225.738 384l29.739-38.621L303.586 384Zm0 0"/><path fill="#b7bbc4" d="m255.477 345.379 50.894-21.64L303.586 384ZM116.879 289.582l-35.293-36.73 35.2-8.657ZM236.898 313.738l36.415-15.89-17.836 47.53ZM0 89.203V50.086l42.914 20.61Zm0 0"/><path fill="#b8bcc4" d="m35.793 31.625 7.121 39.07L0 50.085Zm0 0"/><path fill="#b7bbc4" d="M35.793 31.625 0 50.085V0Zm0 0"/><path fill="#b7bbc4" d="M55.656 0 35.793 31.625 0 0Zm0 0"/><path fill="#b8bcc4" d="m42.914 70.695-12.219 38.301L0 89.203ZM68.86 107.684l-38.165 1.312 12.22-38.3Zm0 0"/><path fill="#b8bcc4" d="m43.54 148.074-12.845-39.078 38.164-1.312Zm0 0"/><path fill="#b7bbc4" d="m198.137 0 8.422 22.855-19.106 1.688ZM278.344 112.766l-2.614-35.57 31.762 22.335Zm0 0"/><path fill="#b7bbc4" d="m275.73 77.195 2.614 35.57-18.457-10.152ZM334.07 127.98l49.93-8.984-30.57 30.809Zm0 0"/><path fill="#c7c8c8" d="m190.848 63.828 8.027-18.687 6.703 10.988Zm0 0"/><path fill="#faf8ef" d="m180.234 46.676 18.641-1.535-8.027 18.687Zm0 0"/><path fill="#b7bbc4" d="m128.285 75.36 15.09-22.47 2.73 19.215Zm0 0"/><path fill="#c7c9cb" d="m178.852 104.168-6.817 14.32-9.062-18.683Zm0 0"/><path fill="#c8c9c8" d="m177.191 94.887 9.48 1.07-7.82 8.211Zm0 0"/><path fill="#babec4" d="m203.566 69.387-12.718-5.559 14.73-7.7Zm0 0"/><path fill="#fafaf9" d="m202.996 86.621 8.7 3.82-12.223 5.653Zm0 0"/><path fill="#081d3c" d="m231.367 150.387.91-10.696 11.836 5.438Zm0 0"/><path fill="#b7bbc4" d="m278.344 112.766-23.192 7.851 4.735-18.004Zm0 0"/><path fill="#b6bac3" d="m255.152 120.617 23.192-7.851-8.516 24.515Zm0 0"/><path fill="#192c48" d="m236.23 126.977-9.03-4.965 14.296-9.266Zm0 0"/><path fill="#102442" d="m246.582 124.707-10.352 2.27 5.266-14.23Zm0 0"/><path fill="#162946" d="m236.23 126.977 10.352-2.27-1.687 10.418Zm0 0"/><path fill="#b6bac4" d="m247.86 75.758 1.011 12.129-13.008-6.469Zm0 0"/><path fill="#b6bac3" d="m243.215 99.43 5.656-11.543 11.016 14.726Zm0 0"/><path fill="#b7bbc4" d="m248.871 87.887 26.86-10.692-15.844 25.418Zm0 0"/><path fill="#b6bac3" d="m275.73 77.195-26.859 10.692-1.012-12.13Zm0 0"/><path fill="#0a1e3b" d="m250.133 109.535-3.551 15.172-5.086-11.96Zm0 0"/><path fill="#081d3b" d="m243.215 99.43 6.918 10.105-8.637 3.211Zm0 0"/><path fill="#091d3c" d="m250.133 109.535 5.02 11.082-8.571 4.09Zm0 0"/><path fill="#b4b9c2" d="m250.133 109.535-6.918-10.105 16.672 3.183Zm0 0"/><path fill="#b7bbc4" d="m255.152 120.617-5.02-11.082 9.755-6.922Zm0 0"/><path fill="#091d3b" d="m237.328 92.18-7.613-4.055 6.148-6.707Zm0 0"/><path fill="#b5b9c2" d="m248.871 87.887-11.543 4.293-1.465-10.762Zm0 0"/><path fill="#b6bac3" d="m237.328 92.18 11.543-4.293-5.656 11.543Zm0 0"/><path fill="#b8bcc4" d="m127.258 147.91-14.969 21.336-19.371-29.445Zm0 0"/><path fill="#b8bcc5" d="m134.176 155.215-21.887 14.031 14.969-21.336Zm0 0"/><path fill="#b8bcc4" d="m122.25 124.61 5.008 23.3-34.34-8.11Zm0 0"/><path fill="#b8bcc4" d="M122.25 124.61 92.918 139.8l15.547-34.109Zm0 0"/><path fill="#b9bcc4" d="m122.25 124.61 15.305-2.04-.051 15.028Zm0 0"/><path fill="#b9bdc6" d="m127.258 147.91-5.008-23.3 15.254 12.988Zm0 0"/><path fill="#e7e4d9" d="m150.602 130.977 1.562 13.546-14.66-6.925Zm0 0"/><path fill="#b8bcc4" d="m140.477 104.02-18.227 20.59-13.785-18.919ZM122.25 124.61l18.227-20.59-2.922 18.55Zm0 0"/><path fill="#b7bbc4" d="m37.043 195.012 38.262-16.184-8.39 35.043Zm0 0"/><path fill="#b8bcc4" d="m75.305 178.828-38.262 16.184 6.496-46.938Zm0 0"/><path fill="#b8bcc5" d="m75.305 178.828 25.562 29.3-33.953 5.743Zm0 0"/><path fill="#fcc50e" d="m145.176 174.168 11.672-9.824 11.18 8.82Zm0 0"/><path fill="#feecad" d="m162.992 180.758-17.816-6.59 22.851-1.004Zm0 0"/><path fill="#b8bcc5" d="m131.2 188.098-30.333 20.03 11.422-38.882Zm0 0"/><path fill="#b8bcc5" d="m133.031 214.727-32.164-6.598 30.332-20.031Zm0 0"/><path fill="#b7bbc4" d="m147.73 222.91 8.114 3.149-14.551 12.316Zm0 0"/><path fill="#b7bbc4" d="m155.844 226.059 6.773 22.816-21.324-10.5Zm0 0"/><path fill="#b6bac3" d="m235.707 69.957 12.152 5.8-11.996 5.661Zm0 0"/><path fill="#10233d" d="m223.008 57.637-.653-10.938 7.672 8.317Zm0 0"/><path fill="#b7bbc4" d="m239.09 207.352 17.363-13.942 12.781 16.586Zm0 0"/><path fill="#e4b206" d="m231.086 184.035 9.785 6.477-16.023 12.484Zm0 0"/><path fill="#b7bbc4" d="m240.871 190.512 15.582 2.898-17.363 13.942Zm0 0"/><path fill="#b4b8c1" d="m226.234 158.852 9.086.77-7.672 9.32Zm0 0"/><path fill="#9da4b0" d="m226.234 158.852 5.133-8.465 3.953 9.234Zm0 0"/><path fill="#b7bbc4" d="m259.16 150.465 10.668-13.184 11.805 34.871Zm0 0"/><path fill="#b6bac3" d="m259.16 150.465-8-10.727 18.668-2.457Zm0 0"/><path fill="#aab0ba" d="m231.367 150.387 12.746-5.258-8.793 14.492Zm0 0"/><path fill="#081d3c" d="m259.16 150.465-15.047-5.336 7.047-5.39Zm0 0"/><path fill="#091d3c" d="m244.895 135.125 6.265 4.613-7.047 5.39Zm0 0"/><path fill="#091d3c" d="m232.277 139.691 12.618-4.566-.782 10.004Zm0 0"/><path fill="#fbc100" d="m231.086 184.035 11.73-10.37-1.945 16.847Zm0 0"/><path fill="#e9b505" d="m242.816 173.664-11.73 10.371-3.438-15.094Zm0 0"/><path fill="#ecb704" d="m235.32 159.621 7.496 14.043-15.168-4.723Zm0 0"/><path fill="#b7bbc4" d="m146.129 354.297 39.008-3.98L178.512 384ZM0 332.207l38.383-17.64-5.735 36.742ZM38.383 314.566 0 332.207v-55.68ZM345.535 306.48l-29.41-35.972 67.875-6.07Zm0 0"/><path fill="#b7bbc4" d="m345.535 306.48-39.164 17.258 9.754-53.23ZM230.82 246.523l2.942-17.48 4.437 25.3Zm0 0"/><path fill="#b4b8c2" d="m353.43 149.805-26.75 19.601 7.39-41.426Zm0 0"/><path fill="#b7bbc4" d="m281.633 172.152 45.047-2.746-25.735 30.973Zm0 0"/><path fill="#b6bbc4" d="m326.68 169.406-26.938-32.742 34.328-8.684Zm0 0"/><path fill="#b6bbc4" d="m299.742 136.664 26.938 32.742-45.047 2.746Zm0 0"/><path fill="#b7bbc4" d="M345.133 342.559 384 324.547V384ZM225.738 384h-47.226l32.996-19.36ZM175.434 308.012l-24.871 17.281 3.28-32.867Zm0 0"/><path fill="#feecb0" d="m175.434 308.012 8.992-2.973-3.742 21.117Zm0 0"/><path fill="#b7bbc4" d="m150.563 325.293 34.574 25.023-39.008 3.98ZM150.563 325.293l-33.684-35.711 36.965 2.844ZM153.844 292.426 141.5 265.457l25.844 7.586Zm0 0"/><path fill="#b7bbc4" d="m116.879 289.582 24.621-24.125 12.344 26.969Zm0 0"/><path fill="#b7bbc4" d="m141.5 265.457-24.621 24.125-.094-45.387Zm0 0"/><path fill="#b7bbc4" d="m141.5 265.457-24.715-21.262 24.508-5.82Zm0 0"/><path fill="#b5b9c3" d="m167.344 273.043-25.844-7.586 21.117-16.582Zm0 0"/><path fill="#b6bac3" d="M162.617 248.875 141.5 265.457l-.207-27.082Zm0 0"/><path fill="#fbe291" d="M198.516 264.016 187.07 245.12l18.801-.418Zm0 0"/><path fill="#facd38" d="m187.07 245.121 11.446 18.895-19.371 5.273Zm0 0"/><path fill="#d6a809" d="m215.125 261.578-16.61 2.438 7.356-19.313Zm0 0"/><path fill="#fecd2a" d="m184.426 305.04 6.3-21.06 19.075 6.29Zm0 0"/><path fill="#b7bbc4" d="m211.508 364.64 11.433-24.624 32.536 5.363ZM225.738 384l-14.23-19.36 43.969-19.261Zm0 0"/><path fill="#b7bbc4" d="m236.898 313.738-13.957 26.278-6.675-13.668ZM222.941 340.016l13.957-26.278 18.579 31.64Zm0 0"/><path fill="#f4bc02" d="m198.516 264.016 16.609-2.438-5.324 28.692Zm0 0"/><path fill="#daad11" d="m190.727 283.98 7.789-19.964L209.8 290.27Zm0 0"/><path fill="#b7bbc4" d="m236.898 313.738 7.016-33.883 29.399 17.993Zm0 0"/><path fill="#b8bcc4" d="m147.758 23.27 27.719 16.64-32.102 12.98Zm0 0"/><path fill="#b8bcc5" d="m143.375 52.89 32.102-12.98-18.125 22.817Zm0 0"/><path fill="#b7bbc4" d="m81.586 252.852-43.031-14.747 28.36-24.234Zm0 0"/><path fill="#b7bbc4" d="m48.043 277.133-9.488-39.028 43.03 14.747Zm0 0"/><path fill="#b8bcc4" d="m92.918 139.8-17.613 39.028-31.766-30.754Zm0 0"/><path fill="#b8bbc4" d="m187.453 24.543 19.106-1.688-5.672 12.418Zm0 0"/><path fill="#b7bbc4" d="m147.758 23.27 39.695 1.273-11.976 15.367Zm0 0"/><path fill="#b8bbc4" d="m215.89 36.113-3.288 7.95-11.715-8.79Zm0 0"/><path fill="#f4eccf" d="m212.602 44.063-13.727 1.078 2.012-9.868Zm0 0"/><path fill="#b7bbc4" d="m212.602 44.063 3.289-7.95 6.464 10.586Zm0 0"/><path fill="#bfc0bd" d="m198.875 45.14 13.727-1.078-7.024 12.067Zm0 0"/><path fill="#f8f5eb" d="m170.043 66.89 10.191-20.214 10.614 17.152Zm0 0"/><path fill="#b8bcc5" d="m146.105 72.105 11.247-9.378 2.761 23.21Zm0 0"/><path fill="#b7bbc4" d="m143.375 52.89 13.977 9.837-11.247 9.378Zm0 0"/><path fill="#dadbdb" d="m172.035 118.488-18.52.196 9.458-18.88Zm0 0"/><path fill="#f8f3e3" d="m153.516 118.684-6.977-16.13 16.434-2.75Zm0 0"/><path fill="#fcfbf8" d="m184.46 120.371-12.425-1.883 6.817-14.32Zm0 0"/><path fill="#b8bbc1" d="m179.258 82.254 6.77 5.613-8.837 7.02Zm0 0"/><path fill="#acb0b3" d="m186.672 95.957-.645-8.09 8.536 2.086Zm0 0"/><path fill="#b6b9bd" d="m186.027 87.867.645 8.09-9.48-1.07Zm0 0"/><path fill="#fcfbf8" d="m186.672 95.957 4.027 10.121-11.847-1.91Zm0 0"/><path fill="#324258" d="m227.2 122.012.816-12.895 13.48 3.63Zm0 0"/><path fill="#b4b7ba" d="m237.328 92.18-11.375 4.746 3.762-8.801Zm0 0"/><path fill="#fbfbfa" d="m211.695 90.441.067 10.82-12.29-5.167Zm0 0"/><path fill="#b8bcc4" d="m134.176 155.215 1.164 12.347-23.05 1.684Zm0 0"/><path fill="#b7bbc4" d="m135.34 167.563-4.14 20.535-18.91-18.852Zm0 0"/><path fill="#b8bcc4" d="m131.2 188.098 4.14-20.536 9.836 6.606Zm0 0"/><path fill="#d2d2ce" d="m157.96 153.625-5.796-9.102 11.938-1.238Zm0 0"/><path fill="#3d4c62" d="m152.164 144.523 7.8-9.113 4.138 7.875Zm0 0"/><path fill="#7b838e" d="m159.965 135.41-7.8 9.113-1.563-13.546Zm0 0"/><path fill="#fefefd" d="m150.508 92.719 9.605-6.781 2.86 13.867Zm0 0"/><path fill="#fdfcfa" d="m146.54 102.555 3.968-9.836 12.465 7.086Zm0 0"/><path fill="#b7bbc4" d="m160.113 85.938-9.605 6.78-4.403-20.613Zm0 0"/><path fill="#fefefc" d="m150.508 92.719-3.969 9.836-5.05-4.809Zm0 0"/><path fill="#b8bcc5" d="m150.508 92.719-22.223-17.36 17.82-3.254Zm0 0"/><path fill="#b8bcc4" d="m128.285 75.36 22.223 17.359-9.02 5.027ZM137.344 99.055l3.133 4.965-32.012 1.671Zm0 0"/><path fill="#b8bcc4" d="m137.344 99.055-9.059-23.696 13.203 22.387Zm0 0"/><path fill="#b9bcc1" d="m140.477 104.02-3.133-4.965 4.144-1.309Zm0 0"/><path fill="#b8bcc4" d="m128.285 75.36 9.059 23.695-28.88 6.636ZM148.469 184.734l-17.27 3.364 13.977-13.93Zm0 0"/><path fill="#fee8a0" d="m148.469 184.734-3.293-10.566 17.816 6.59Zm0 0"/><path fill="#f7be02" d="m215.07 221.879 17.04-3.61-4.442 9.551Zm0 0"/><path fill="#fbdb70" d="m168.836 211.5 8.258-23.984 9.52 20.394Zm0 0"/><path fill="#e3b20d" d="m205.871 244.703-18.8.418 9.218-19.21Zm0 0"/><path fill="#b8bcc4" d="m150.656 200.219-17.625 14.508-1.832-26.63Zm0 0"/><path fill="#b8bcc4" d="m148.469 184.734 2.187 15.485-19.457-12.121Zm0 0"/><path fill="#b9bcc4" d="m212.445 69.18-8.879.207 2.012-13.258Zm0 0"/><path fill="#b8bcc4" d="m212.445 69.18-7.32 8.097-1.559-7.89Zm0 0"/><path fill="#fcefc2" d="m194.934 187.934-8.32 19.976-9.52-20.394Zm0 0"/><path fill="#deb010" d="m194.934 187.934 10.21 17.16-18.53 2.816Zm0 0"/><path fill="#deae07" d="m215.793 182.86-20.86 5.074 14.47-12.727Zm0 0"/><path fill="#ecb806" d="m224.848 202.996 14.242 4.356-6.98 10.918Zm0 0"/><path fill="#b7bbc2" d="m232.11 218.27 6.98-10.918 4.195 13.312Zm0 0"/><path fill="#f1ba03" d="m224.848 202.996 16.023-12.484-1.781 16.84Zm0 0"/><path fill="#e0af07" d="m194.934 187.934 11.046-18.332 3.422 5.605Zm0 0"/><path fill="#e2b107" d="m189.527 161.805 16.453 7.797-20.664 1.562Zm0 0"/><path fill="#e5b40c" d="m156.848 164.344 10.957 1.945.222 6.875Zm0 0"/><path fill="#30415a" d="m164.102 143.285-4.137-7.875 13.523-2.707Zm0 0"/><path fill="#deaf10" d="m251.234 163.855-8.418 9.81-7.496-14.044Zm0 0"/><path fill="#3d4d64" d="m244.113 145.129 7.121 18.726-15.914-4.234Zm0 0"/><path fill="#0b203e" d="m251.234 163.855-7.12-18.726 15.046 5.336Zm0 0"/><path fill="#b7bbc4" d="m281.633 172.152-30.399-8.297 7.926-13.39Zm0 0"/><path fill="#081d3c" d="m255.152 120.617-2.277 10.988-6.293-6.898Zm0 0"/><path fill="#081d3b" d="m246.582 124.707 6.293 6.898-7.98 3.52Zm0 0"/><path fill="#b3b8c1" d="m252.875 131.605 2.277-10.988 14.676 16.664Zm0 0"/><path fill="#b5b9c2" d="m251.16 139.738 1.715-8.133 16.953 5.676Zm0 0"/><path fill="#081d3b" d="m244.895 135.125 7.98-3.52-1.715 8.133Zm0 0"/><path fill="#edb804" d="m233.762 229.043-7.926 19.113 1.832-20.336Zm0 0"/><path fill="#e7b406" d="m205.871 244.703 19.965 3.453-10.711 13.422Zm0 0"/><path fill="#b8babd" d="m225.836 248.156 7.926-19.113-2.942 17.48Zm0 0"/><path fill="#b8bbc4" d="m242.816 173.664 10.29 4.797-12.235 12.05Zm0 0"/><path fill="#b7bbc4" d="m253.105 178.46 3.348 14.95-15.582-2.898Zm0 0"/><path fill="#b8bbc4" d="m251.234 163.855 1.871 14.606-10.289-4.797Zm0 0"/><path fill="#b7bbc4" d="m253.105 178.46-1.87-14.605 30.398 8.297ZM253.105 178.46l28.528-6.308-25.18 21.258ZM384 324.547l-38.867 18.012.402-36.079Zm0 0"/><path fill="#b7bbc4" d="m303.586 384 41.547-41.441L384 384ZM150.563 325.293l24.87-17.281 5.25 18.144Zm0 0"/><path fill="#fac001" d="m223.086 263.473-7.961-1.895 10.71-13.422Zm0 0"/><path fill="#b6bac3" d="m223.086 263.473 15.113-9.13 5.715 25.512Zm0 0"/><path fill="#b6bac3" d="m223.086 263.473 2.75-15.317 12.363 6.188Zm0 0"/><path fill="#feeeb6" d="m179.145 269.29-11.801 3.753-4.727-24.168Zm0 0"/><path fill="#fee79c" d="m190.727 283.98-11.582-14.69 19.37-5.274Zm0 0"/><path fill="#b8bcc5" d="m172.79 290.07-18.946 2.356 13.5-19.383Zm0 0"/><path fill="#feecb0" d="m179.145 269.29-6.356 20.78-5.445-17.027Zm0 0"/><path fill="#feda63" d="m172.79 290.07 6.355-20.78 11.582 14.69Zm0 0"/><path fill="#b7bbc4" d="m207.488 325.11 4.973-11.005 3.805 12.243Zm0 0"/><path fill="#b7bbc4" d="m212.46 314.105 24.438-.367-20.632 12.61Zm0 0"/><path fill="#b6bac3" d="m212.46 314.105 4.43-23.46 20.008 23.093Zm0 0"/><path fill="#fbc101" d="m216.89 290.645-1.765-29.067 7.96 1.895Zm0 0"/><path fill="#fbc202" d="m215.125 261.578 1.766 29.067-7.09-.375Zm0 0"/><path fill="#f7bf03" d="m216.89 290.645-4.43 23.46-2.66-23.835Zm0 0"/><path fill="#b6bac3" d="m243.914 279.855-27.023 10.79 6.195-27.172Zm0 0"/><path fill="#b7bbc4" d="m236.898 313.738-20.007-23.093 27.023-10.79Zm0 0"/><path fill="#fefefc" d="m175.477 39.91 4.757 6.766-22.882 16.05Zm0 0"/><path fill="#fefdfa" d="M180.234 46.676 170.043 66.89l-12.691-4.164Zm0 0"/><path fill="#b8bcc4" d="m112.29 169.246-36.985 9.582 17.613-39.027Zm0 0"/><path fill="#fefdf9" d="m198.875 45.14-10.418-7.1 12.43-2.767Zm0 0"/><path fill="#b7bbc4" d="m188.457 38.04-1.004-13.497 13.434 10.73Zm0 0"/><path fill="#fdfaf2" d="m180.234 46.676 8.223-8.637 10.418 7.102Zm0 0"/><path fill="#fefdfa" d="m188.457 38.04-8.223 8.636-4.757-6.766Zm0 0"/><path fill="#b7bbc3" d="m187.453 24.543 1.004 13.496-12.98 1.871Zm0 0"/><path fill="#545f69" d="m223.008 57.637-7.496-4.086 6.843-6.852Zm0 0"/><path fill="#ede9dc" d="m215.512 53.55-2.91-9.487 9.753 2.636Zm0 0"/><path fill="#c6c7c7" d="m212.602 44.063 2.91 9.488-9.934 2.578Zm0 0"/><path fill="#b7bac3" d="m215.512 53.55-3.067 15.63-6.867-13.051Zm0 0"/><path fill="#9fa5b0" d="m212.445 69.18 3.067-15.63 7.496 4.087Zm0 0"/><path fill="#fcfaf1" d="m157.352 62.727 12.691 4.164-9.93 19.046Zm0 0"/><path fill="#eae9e3" d="m170.043 66.89 20.805-3.062-11.59 18.426Zm0 0"/><path fill="#f4f3f0" d="m173.488 132.703-1.453-14.215 12.426 1.883Zm0 0"/><path fill="#fdfcf9" d="m146.54 102.555-6.063 1.465 1.011-6.274Zm0 0"/><path fill="#fefefd" d="m140.477 104.02 6.062-1.465-8.984 20.015Zm0 0"/><path fill="#b7babd" d="m194.113 79.227-8.086 8.64-6.77-5.613Zm0 0"/><path fill="#c2c3c0" d="m190.848 63.828 3.265 15.399-14.855 3.027Zm0 0"/><path fill="#adb2b9" d="m194.113 79.227 8.883 7.394-8.434 3.332Zm0 0"/><path fill="#b4b7bb" d="m186.027 87.867 8.086-8.64.45 10.726Zm0 0"/><path fill="#a8adb7" d="m194.113 79.227 11.012-1.95-2.129 9.344Zm0 0"/><path fill="#b9bcc1" d="m205.125 77.277-11.012 1.95 9.453-9.84Zm0 0"/><path fill="#bbbdc1" d="m194.113 79.227-3.265-15.399 12.718 5.559Zm0 0"/><path fill="#f9f9f8" d="m201.574 106.027 10.188-4.765-3.965 11.824Zm0 0"/><path fill="#efefed" d="m211.762 101.262-10.188 4.765-2.101-9.933Zm0 0"/><path fill="#fbfbf9" d="m199.473 96.094-12.801-.137 7.89-6.004Zm0 0"/><path fill="#f6f5f3" d="m199.473 96.094-8.774 9.984-4.027-10.121Zm0 0"/><path fill="#eeeeec" d="m199.473 96.094 2.101 9.933-10.875.051Zm0 0"/><path fill="#fbfbf8" d="m209.016 84.777 2.68 5.664-8.7-3.82Zm0 0"/><path fill="#576271" d="m205.125 77.277 3.89 7.5-6.019 1.844Zm0 0"/><path fill="#0a1f3e" d="m236.23 126.977-11.62 6.98 2.59-11.945Zm0 0"/><path fill="#fcfcfc" d="m224.61 133.957-6.891-7.121 9.48-4.824Zm0 0"/><path fill="#d0d2d3" d="m203.504 122.2-6.715 16.1-12.328-17.929Zm0 0"/><path fill="#828c9b" d="m212.3 122.328-8.796-.129 4.293-9.113Zm0 0"/><path fill="#c6c9cf" d="m189.527 161.805 5.696-4.961 10.757 12.758Zm0 0"/><path fill="#081d3c" d="m220.445 150.98 11.832-11.289-.91 10.696Zm0 0"/><path fill="#b0b5be" d="m226.234 158.852-5.789-7.872 10.922-.593Zm0 0"/><path fill="#172a46" d="m228.016 109.117 7.132-8.62 6.348 12.25Zm0 0"/><path fill="#0d213f" d="m235.148 100.496 8.067-1.066-1.719 13.316Zm0 0"/><path fill="#172942" d="m235.148 100.496 2.18-8.316 5.887 7.25Zm0 0"/><path fill="#888f98" d="m235.148 100.496-9.195-3.57 11.375-4.746Zm0 0"/><path fill="#37475f" d="m225.953 96.926 9.195 3.57-7.132 8.621Zm0 0"/><path fill="#87909f" d="m220.852 119.023-8.551 3.305-4.504-9.242Zm0 0"/><path fill="#556378" d="m212.3 122.328 8.552-3.305-3.133 7.813Zm0 0"/><path fill="#fbfbfb" d="m217.719 126.836 3.133-7.813 6.347 2.989Zm0 0"/><path fill="#f9f9f9" d="m220.852 119.023 7.164-9.906-.817 12.895Zm0 0"/><path fill="#bdc0c7" d="m211.762 101.262 14.191-4.336 2.063 12.191Zm0 0"/><path fill="#c6c6c1" d="m144.02 163.008 13.94-9.383-1.112 10.719Zm0 0"/><path fill="#fdc301" d="m145.176 174.168-1.156-11.16 12.828 1.336Zm0 0"/><path fill="#babcbd" d="m135.34 167.563 8.68-4.555 1.156 11.16Zm0 0"/><path fill="#838c9a" d="m162.008 128.277-2.043 7.133-9.363-4.433Zm0 0"/><path fill="#7a8494" d="m159.965 135.41 2.043-7.133 11.48 4.426Zm0 0"/><path fill="#8e96a3" d="m162.008 128.277 10.027-9.789 1.453 14.215Zm0 0"/><path fill="#c5c8cb" d="m162.008 128.277-8.492-9.593 18.52-.196Zm0 0"/><path fill="#d9aa09" d="m215.07 221.879 9.778-18.883 7.261 15.274Zm0 0"/><path fill="#fac001" d="m215.07 221.879-9.199 22.824-9.582-18.793Zm0 0"/><path fill="#f6be02" d="M225.836 248.156 215.07 221.88l12.598 5.941Zm0 0"/><path fill="#d9aa09" d="m215.07 221.879 10.766 26.277-19.965-3.453Zm0 0"/><path fill="#feebac" d="m187.07 245.121-8.41-17.55 17.63-1.66Zm0 0"/><path fill="#ebebe8" d="m157.96 153.625 9.845 12.664-10.957-1.945Zm0 0"/><path fill="#fafafa" d="m164.102 143.285 9.386-10.582-1.386 15.961Zm0 0"/><path fill="#8a929d" d="m189.945 149.36-16.457-16.657 23.301 5.598Zm0 0"/><path fill="#e4e4e4" d="m173.488 132.703 16.457 16.656-17.843-.695Zm0 0"/><path fill="#efb903" d="m185.316 171.164 20.664-1.562-11.046 18.332Zm0 0"/><path fill="#e7b40a" d="m177.094 187.516 8.222-16.352 9.618 16.77Zm0 0"/><path fill="#fec301" d="m207.488 325.11-5.879 7.445-6.183-9.149Zm0 0"/><path fill="#f6e5ad" d="m196.29 225.91-9.677-18 18.532-2.816Zm0 0"/><path fill="#fdf0c3" d="m168.836 211.5 17.777-3.59-7.953 19.66Zm0 0"/><path fill="#f4ce4e" d="m186.613 207.91 9.676 18-17.629 1.66Zm0 0"/><path fill="#b7bbc4" d="M345.133 342.559 303.586 384l2.785-60.262Zm0 0"/><path fill="#b7bbc4" d="m345.133 342.559-38.762-18.82 39.164-17.259ZM150.563 325.293l30.12.863 4.454 24.16Zm0 0"/><path fill="#feebad" d="m184.426 305.04-11.637-14.97 17.938-6.09Zm0 0"/><path fill="#b7bbc4" d="m172.79 290.07 2.644 17.942-21.59-15.586Zm0 0"/><path fill="#feebac" d="m172.79 290.07 11.636 14.97-8.992 2.972Zm0 0"/><path fill="#fec300" d="m202.008 312.29 10.453 1.815-4.973 11.004Zm0 0"/><path fill="#fec402" d="m202.008 312.29 5.48 12.82-12.062-1.704Zm0 0"/><path fill="#fed85a" d="m184.426 305.04 17.582 7.25-6.582 11.116Zm0 0"/><path fill="#fac617" d="m202.008 312.29-17.582-7.25 25.375-14.77Zm0 0"/><path fill="#f7be02" d="m212.46 314.105-10.452-1.816 7.793-22.02Zm0 0"/><path fill="#b8bcc5" d="m100.867 208.129-25.562-29.3 36.984-9.583Zm0 0"/><path fill="#e5e3dc" d="m160.113 85.938 9.93-19.047 9.215 15.363Zm0 0"/><path fill="#c3c3c1" d="m160.113 85.938 19.145-3.684-2.067 12.633Zm0 0"/><path fill="#697381" d="m212.445 69.18 4.082 12.742-11.402-4.645Zm0 0"/><path fill="#415064" d="m216.527 81.922-7.511 2.855-3.891-7.5Zm0 0"/><path fill="#273851" d="m221.879 76.156-5.352 5.766-4.082-12.742Zm0 0"/><path fill="#fcfcfa" d="m209.016 84.777 7.511-2.855-4.832 8.52Zm0 0"/><path fill="#fcfcfc" d="m224.61 133.957-7.395-1.3.504-5.821Zm0 0"/><path fill="#0b203e" d="m211.535 141.3-14.746-3 12.856-5.769Zm0 0"/><path fill="#d4d5d7" d="m196.79 138.3-23.302-5.597 10.973-12.332Zm0 0"/><path fill="#f7f6f5" d="m198.371 113.605 3.203-7.578 6.223 7.059Zm0 0"/><path fill="#fafafa" d="m203.504 122.2-5.133-8.595 9.426-.52Zm0 0"/><path fill="#f2f2f0" d="m201.574 106.027-3.203 7.578-7.672-7.527Zm0 0"/><path fill="#f0f0f0" d="m198.371 113.605 5.133 8.594-19.043-1.828Zm0 0"/><path fill="#34445e" d="m209.645 132.531-6.141-10.332 8.797.13Zm0 0"/><path fill="#636f83" d="m209.645 132.531 2.656-10.203 5.418 4.508Zm0 0"/><path fill="#f4f5f6" d="m217.215 132.656-7.57-.125 8.074-5.695Zm0 0"/><path fill="#929aa6" d="m211.762 101.262 4.687 7.879-8.652 3.945Zm0 0"/><path fill="#a5abb6" d="m216.45 109.14 4.402 9.883-13.055-5.937Zm0 0"/><path fill="#bdc1c9" d="m216.45 109.14-4.688-7.878 16.254 7.855Zm0 0"/><path fill="#bec2c9" d="m220.852 119.023-4.403-9.882 11.567-.024Zm0 0"/><path fill="#f3f3f3" d="m221.766 90.18-10.004 11.082-.067-10.82Zm0 0"/><path fill="#edeeee" d="m211.762 101.262 10.004-11.082 4.187 6.746Zm0 0"/><path fill="#c1c2c1" d="m225.953 96.926-4.187-6.746 7.949-2.055Zm0 0"/><path fill="#f9f8f6" d="m216.527 81.922 5.239 8.258-10.07.261Zm0 0"/><path fill="#d0ccbc" d="m144.02 163.008-9.844-7.793 23.785-1.59Zm0 0"/><path fill="#fefefc" d="m135.34 167.563-1.164-12.348 9.844 7.793Zm0 0"/><path fill="#e4e1d5" d="m157.96 153.625-23.784 1.59 17.988-10.692Zm0 0"/><path fill="#fefefe" d="m152.164 144.523-17.988 10.692 3.328-17.617ZM134.176 155.215l-6.918-7.305 10.246-10.312Zm0 0"/><path fill="#c7c8c5" d="m153.516 118.684 8.492 9.593-11.406 2.7Zm0 0"/><path fill="#f9f7f1" d="m153.516 118.684-2.914 12.293-13.047-8.407Zm0 0"/><path fill="#fefefc" d="m146.54 102.555 6.976 16.129-15.961 3.886Zm0 0"/><path fill="#fac102" d="m177.094 187.516-9.067-14.352 17.29-2Zm0 0"/><path fill="#e8ba1c" d="m205.145 205.094 19.703-2.098-9.778 18.883Zm0 0"/><path fill="#d9aa09" d="m205.145 205.094 9.925 16.785-18.78 4.031Zm0 0"/><path fill="#bd9811" d="m205.145 205.094 10.648-22.235 9.055 20.137Zm0 0"/><path fill="#f7c211" d="m194.934 187.934 20.859-5.075-10.648 22.235Zm0 0"/><path fill="#fef2cb" d="m164.113 226.64-1.496 22.235-6.773-22.816Zm0 0"/><path fill="#fef8e4" d="m158.129 213.043-4.848 1.254-2.625-14.078Zm0 0"/><path fill="#fef4d2" d="m153.281 214.297 4.848-1.254-2.285 13.016Zm0 0"/><path fill="#babec5" d="m153.281 214.297 2.563 11.762-8.114-3.149Zm0 0"/><path fill="#b7bbc4" d="m153.281 214.297-5.55 8.613-14.7-8.183Zm0 0"/><path fill="#b8bcc4" d="m153.281 214.297-20.25.43 17.625-14.508Zm0 0"/><path fill="#feeaa6" d="m148.469 184.734 11.601 9.45-9.414 6.035Zm0 0"/><path fill="#fef8e4" d="m160.07 194.184-1.941 18.859-7.473-12.824Zm0 0"/><path fill="#fef7e0" d="m162.992 180.758-2.922 13.426-11.601-9.45Zm0 0"/><path fill="#fde79b" d="m158.129 213.043 1.941-18.86 8.766 17.317Zm0 0"/><path fill="#fef3cc" d="m164.113 226.64-5.984-13.597 10.707-1.543Zm0 0"/><path fill="#fee38b" d="m164.113 226.64 4.723-15.14 9.824 16.07Zm0 0"/><path fill="#fef2cb" d="m158.129 213.043 5.984 13.598-8.27-.582Zm0 0"/><path fill="#677284" d="m227.031 68.785-14.586.395 10.563-11.543Zm0 0"/><path fill="#39495f" d="m227.031 68.785-5.152 7.371-9.434-6.976Zm0 0"/><path fill="#0f2341" d="m235.707 69.957-8.676-1.172 2.996-13.77Zm0 0"/><path fill="#0e2240" d="m227.031 68.785-4.023-11.148 7.02-2.621Zm0 0"/><path fill="#fafafa" d="m189.945 149.36 5.278 7.484-5.696 4.96Zm0 0"/><path fill="#fbfbfb" d="m157.96 153.625 6.142-10.34 8 5.38Zm0 0"/><path fill="#fbfbfb" d="m170.188 155.02-12.227-1.395 14.14-4.96Zm0 0"/><path fill="#f0f0f1" d="m157.96 153.625 12.227 1.395-2.382 11.27Zm0 0"/><path fill="#b7bbc4" d="m208.543 333.59-1.055-8.48 8.778 1.238Zm0 0"/><path fill="#fcc200" d="m208.543 333.59-6.934-1.035 5.88-7.446Zm0 0"/><path fill="#b7bbc4" d="m222.941 340.016-14.398-6.426 7.723-7.242Zm0 0"/><path fill="#f6f7f8" d="m217.215 132.656-.293 4.586-7.277-4.71Zm0 0"/><path fill="#d2d5da" d="m216.922 137.242-5.387 4.059-1.89-8.77Zm0 0"/><path fill="#cdd0d6" d="m211.535 141.3 5.387-4.058 3.523 13.738Zm0 0"/><path fill="#ebebe9" d="m198.371 113.605-13.91 6.766 6.238-14.293Zm0 0"/><path fill="#fcfbf7" d="m190.7 106.078-6.24 14.293-5.608-16.203Zm0 0"/><path fill="#1c2f4b" d="m209.645 132.531-12.856 5.77 6.715-16.102Zm0 0"/><path fill="#747f90" d="m202.113 153.129 9.422-11.828 8.91 9.68Zm0 0"/><path fill="#fbfcfc" d="m189.945 149.36 12.168 3.769-6.89 3.715Zm0 0"/><path fill="#526075" d="m211.535 141.3-9.422 11.829-5.324-14.828Zm0 0"/><path fill="#fdfdfd" d="m202.113 153.129-12.168-3.77 6.844-11.058Zm0 0"/><path fill="#e0b110" d="m205.98 169.602 11.989-2.301-8.567 7.906Zm0 0"/><path fill="#f2bb03" d="m215.793 182.86 2.176-15.56 9.68 1.641Zm0 0"/><path fill="#efb903" d="m217.969 167.3-2.176 15.56-6.39-7.653Zm0 0"/><path fill="#b2b7c1" d="m226.234 158.852-8.265 8.449 2.476-16.32Zm0 0"/><path fill="#b8bcc5" d="m217.969 167.3 8.265-8.448 1.414 10.09Zm0 0"/><path fill="#e4b208" d="m181.406 158.734 8.121 3.07-4.21 9.36Zm0 0"/><path fill="#e0af07" d="m168.027 173.164 13.38-14.43 3.91 12.43Zm0 0"/><path fill="#dcac09" d="m167.805 166.29 13.601-7.556-13.379 14.43Zm0 0"/><path fill="#dcddde" d="m181.406 158.734-13.601 7.555 2.382-11.27Zm0 0"/><path fill="#f6f6f5" d="m181.406 158.734 8.54-9.375-.419 12.446Zm0 0"/><path fill="#c9ccd0" d="m189.945 149.36-8.539 9.374-9.304-10.07Zm0 0"/><path fill="#f5f6f5" d="m181.406 158.734-11.219-3.714 1.915-6.356Zm0 0"/><path fill="#fee590" d="m187.07 245.121-22.957-18.48 14.547.93Zm0 0"/><path fill="#fedf75" d="m187.07 245.121-24.453 3.754 1.496-22.234Zm0 0"/><path fill="#fedf79" d="m177.094 187.516-17.024 6.668 2.922-13.426Zm0 0"/><path fill="#f9c30d" d="m177.094 187.516-14.102-6.758 5.035-7.594Zm0 0"/><path fill="#11243d" d="m227.031 68.785 2.38 7.848-7.532-.477Zm0 0"/><path fill="#0d203c" d="m229.41 76.633-2.379-7.848 8.676 1.172Zm0 0"/><path fill="#0b1f3b" d="m229.41 76.633 6.297-6.676.156 11.461Zm0 0"/><path fill="#b7bbc4" d="m204.504 350.379 7.004 14.262-26.371-14.325Zm0 0"/><path fill="#fdc300" d="m208.543 333.59-4.04 16.789-2.894-17.824Zm0 0"/><path fill="#b8bbc4" d="m204.504 350.379 4.039-16.79 14.398 6.427Zm0 0"/><path fill="#b7bbc4" d="m211.508 364.64-7.004-14.261 18.437-10.363Zm0 0"/><path fill="#e8e9ec" d="m216.922 137.242 7.687-3.285-4.164 17.023Zm0 0"/><path fill="#0a1f3e" d="m220.445 150.98 4.164-17.023 7.668 5.734Zm0 0"/><path fill="#fafbfa" d="m224.61 133.957-7.688 3.285.293-4.586Zm0 0"/><path fill="#c1c5cc" d="m202.113 153.129 3.867 16.473-10.757-12.758Zm0 0"/><path fill="#1e304c" d="m205.98 169.602-3.867-16.473 18.332-2.149Zm0 0"/><path fill="#b7bbc4" d="m217.969 167.3-11.989 2.302 14.465-18.622Zm0 0"/><path fill="#fef5d6" d="m160.07 194.184 17.024-6.668-8.258 23.984Zm0 0"/><path fill="#081d3b" d="m229.715 88.125-4.262-4.102 10.41-2.605Zm0 0"/><path fill="#091e3b" d="m225.453 84.023 3.957-7.39 6.453 4.785Zm0 0"/><path fill="#bfbeb3" d="m221.766 90.18 3.687-6.157 4.262 4.102Zm0 0"/><path fill="#0c203b" d="m229.41 76.633-3.957 7.39-3.574-7.867Zm0 0"/><path fill="#132641" d="m225.453 84.023-8.926-2.101 5.352-5.766Zm0 0"/><path fill="#e2e0d5" d="m225.453 84.023-3.687 6.157-5.239-8.258Zm0 0"/><path fill="#fec917" d="m191.996 335.438 12.508 14.94-19.367-.062Zm0 0"/><path fill="#fec404" d="m204.504 350.379-12.508-14.942 9.613-2.882Zm0 0"/><path fill="#fec60b" d="m201.61 332.555-9.614 2.882 3.43-12.03Zm0 0"/><path fill="#fee283" d="m180.684 326.156 11.312 9.281-6.86 14.88Zm0 0"/><path fill="#fee181" d="m191.996 335.438-11.312-9.282 14.742-2.75Zm0 0"/><path fill="#081d3c" d="m232.277 139.691 3.953-12.714 8.665 8.148ZM232.277 139.691l-7.668-5.734 11.621-6.98Zm0 0"/><path fill="#fee48e" d="m162.617 248.875 24.453-3.754-7.925 24.168Zm0 0"/></svg>