<svg xmlns="http://www.w3.org/2000/svg" width="512" height="512" viewBox="0 0 384 384"><path fill="#5e566b" d="M29.457 193.293 0 172.957l42.715-26.844Zm0 0"/><path fill="#5b5369" d="m129.86 256.715 10.714-19.844 20.313 9.492Zm0 0"/><path fill="#5c546a" d="M342.16 229.125 384 207.656v51.805Zm0 0"/><path fill="#5d556b" d="m303.945 243.523-1.261-42.835 39.476 28.437Zm0 0"/><path fill="#5e566c" d="m303.945 243.523-31.687 43.102-4.36-57.07ZM303.945 243.523l-36.047-13.968 34.786-28.868Zm0 0"/><path fill="#5d556b" d="m303.945 243.523 30.383 34.793-62.07 8.309Zm0 0"/><path fill="#5c546a" d="m334.328 278.316-30.383-34.793 38.215-14.398Zm0 0"/><path fill="#5f576d" d="m279.074 62.14 23.516 40.337-36.563-8.704Zm0 0"/><path fill="#5e566c" d="m346.203 108.695-11.02-64.367 48.82 43.336Zm0 0"/><path fill="#60586d" d="m335.184 44.328 48.82-2.46v45.796Zm0 0"/><path fill="#5b5369" d="m83.89 258.504 45.97-1.79-11.165 46.38Zm0 0"/><path fill="#5c546a" d="m140.574 236.871 18.367-4.426 1.946 13.918Zm0 0"/><path fill="#5d556b" d="M39 238.172 0 267.215V213.09Zm0 0"/><path fill="#5c556a" d="M29.457 193.293 39 238.172 0 213.09Zm0 0"/><path fill="#5c546a" d="m112.496 221.797-28.605 36.707-10.348-59.86ZM83.89 258.504l-8.16 49.707-34.378-17.117Zm0 0"/><path fill="#5b5369" d="m75.73 308.21 8.16-49.706 34.805 44.59Zm0 0"/><path fill="#5b5269" d="m91.473 346.426 27.222-43.332 17.235 47.918Zm0 0"/><path fill="#5c546a" d="M91.473 346.426 75.73 308.21l42.965-5.117Zm0 0"/><path fill="#5d556b" d="M.004 321.531 0 267.215l41.352 23.879Zm0 0"/><path fill="#5c546a" d="M46.613 341.96.003 321.532l41.349-30.437ZM75.73 308.21l15.743 38.216-44.86-4.465Zm0 0"/><path fill="#5e566b" d="M345.953 189.648 384 207.656l-41.84 21.469ZM384 153.281l-38.047 36.367-24.043-36.191Zm0 0"/><path fill="#5b5269" d="M323.125 330.063 384 326.066l-34.012 29.16Zm0 0"/><path fill="#5c546a" d="m233.664 384-6.039-40.125 42.613-4.312Zm0 0"/><path fill="#5d556b" d="m231.484 316.527-15.214-26.656 55.988-3.246Zm0 0"/><path fill="#5c546a" d="m334.328 278.316-11.203 51.747-50.867-43.438Zm0 0"/><path fill="#5d556a" d="m272.258 286.625 50.867 43.438-52.887 9.5Zm0 0"/><path fill="#5c546a" d="m170.723 31.54 3.3-31.54 8.618 27.555Zm0 0"/><path fill="#5d556a" d="M69.852 34.371 42.293 84.88l-8.211-52.043Zm0 0"/><path fill="#5c546a" d="M0 118.71V85.564l42.293-.684Zm0 0"/><path fill="#5e566c" d="M0 172.957v-54.246l42.715 27.402Zm0 0"/><path fill="#5e566c" d="M0 118.71 42.293 84.88l.422 61.234Zm0 0"/><path fill="#5c546a" d="m0 172.957 29.457 20.336L0 213.09ZM42.715 146.113l-.422-61.234 42.406 20.996Zm0 0"/><path fill="#5d556b" d="m89.395 150.563-46.68-4.45 41.984-40.238Zm0 0"/><path fill="#5b5369" d="m265.012.004-60.844 16.039L174.023 0Zm0 0"/><path fill="#5f576d" d="m249.383 74.941-3.25-21.808 32.941 9.008Zm0 0"/><path fill="#5e566c" d="m246.133 53.133-18.488-.758 5.03-11.832Zm0 0"/><path fill="#5e576c" d="m265.012.004-18.88 53.129-13.456-12.59Zm0 0"/><path fill="#5f586d" d="M246.133 53.133 265.012.003l14.062 62.138Zm0 0"/><path fill="#5f576c" d="M265.012.004 331.836 0l3.348 44.328Zm0 0"/><path fill="#5f576d" d="m335.184 44.328-32.594 58.149-23.516-40.336Zm0 0"/><path fill="#60586d" d="m265.012.004 70.172 44.324-56.11 17.813Zm0 0"/><path fill="#615a6f" d="m384.004 41.867-48.82 2.461L384 .004Zm0 0"/><path fill="#615a6f" d="M335.184 44.328 331.836 0 384 .004Zm0 0"/><path fill="#61596e" d="m346.203 108.695-43.613-6.218 32.594-58.149Zm0 0"/><path fill="#5c546a" d="m110.672 176.809 1.824 44.988-38.953-23.152Zm0 0"/><path fill="#5c5469" d="m141.61 219.559 17.331 12.886-18.367 4.426Zm0 0"/><path fill="#5d556b" d="m227.645 52.375-5.282-6.02 10.313-5.812Zm0 0"/><path fill="#5e566c" d="m233.309 67.758 12.824-14.625 3.25 21.808Zm0 0"/><path fill="#5e566c" d="m246.133 53.133-12.824 14.625-5.664-15.383Zm0 0"/><path fill="#5e566b" d="m265.012.004-47.02 30.883-13.824-14.844Zm0 0"/><path fill="#5d556b" d="m217.992 30.887-21.097 3.543 7.273-18.387Zm0 0"/><path fill="#5f576c" d="M217.992 30.887 265.012.004l-32.336 40.539Zm0 0"/><path fill="#5e566b" d="m222.363 46.355-4.37-15.468 14.683 9.656Zm0 0"/><path fill="#5c546a" d="m105.742 53.5 35.59 14.465-13.492 15.812Zm0 0"/><path fill="#5d556b" d="M105.742 53.5 110.051 0l35.91 30.207ZM69.852 34.371l35.89 19.129-63.449 31.379Zm0 0"/><path fill="#5b5369" d="m105.742 53.5 22.098 30.277-43.14 22.098Zm0 0"/><path fill="#5b5369" d="M105.742 53.5 84.7 105.875 42.293 84.879Zm0 0"/><path fill="#5d556b" d="m174.023 0-28.062 30.207L110.05 0ZM170.723 31.54l-24.762-1.333L174.023 0ZM69.852 34.371 110.05 0l-4.309 53.5ZM34.082 32.836 52.613 0l17.239 34.371Zm0 0"/><path fill="#5b5369" d="M34.082 32.836 0 0h52.613Zm0 0"/><path fill="#e6e5e8" d="m184.398 182.047 14.207.406-2.34 9.356Zm0 0"/><path fill="#201533" d="m243.016 182.738-21.688-1.617L228.602 168ZM221.328 181.121l21.688 1.617-5.516 26.703Zm0 0"/><path fill="#5f576d" d="M302.59 102.477 271.62 123.52l-5.594-29.747Zm0 0"/><path fill="#5b5369" d="m0 267.215 39-29.043 2.352 52.922Zm0 0"/><path fill="#5c546a" d="m112.496 221.797 17.363 34.918-45.968 1.789Zm0 0"/><path fill="#5b5369" d="m129.86 256.715-17.364-34.918 28.078 15.074Zm0 0"/><path fill="#5c546a" d="m112.496 221.797 29.113-2.238-1.035 17.312Zm0 0"/><path fill="#5c546a" d="m141.61 219.559-29.114 2.238 21.152-25.66Zm0 0"/><path fill="#5b5369" d="m133.648 196.137-21.152 25.66-1.824-44.988Zm0 0"/><path fill="#e8e7ea" d="m178.559 323.863 8.132-9.015 13.586 6.011Zm0 0"/><path fill="#5b5369" d="m107.34 384-15.867-37.574 44.457 4.586ZM62.672 383.996l28.8-37.57L107.34 384Zm0 0"/><path fill="#5b5369" d="m46.613 341.96 44.86 4.466-28.801 37.57Zm0 0"/><path fill="#5a5268" d="M135.93 351.012 165.422 384H107.34ZM46.613 341.96l16.059 42.036-62.656.02Zm0 0"/><path fill="#5c546a" d="M41.352 291.094 75.73 308.21l-29.117 33.75Zm0 0"/><path fill="#5d556a" d="m384 259.46-49.672 18.856 7.832-49.191Zm0 0"/><path fill="#5e566c" d="M267.898 229.555 237.5 209.44l26.398-18.914Zm0 0"/><path fill="#5e566b" d="m222.86 265.176 45.038-35.621 4.36 57.07Zm0 0"/><path fill="#5e566c" d="m287.168 142.043-7.043 27.031-19.145-19.312Zm0 0"/><path fill="#5f576d" d="m287.168 142.043-15.547-18.523 30.969-21.043Zm0 0"/><path fill="#5e566c" d="m271.621 123.52 15.547 18.523-26.188 7.719Zm0 0"/><path fill="#5d556b" d="m263.898 190.527 16.227-21.453 22.559 31.613Zm0 0"/><path fill="#5f576c" d="m263.898 190.527 38.786 10.16-34.786 28.868Zm0 0"/><path fill="#5c556a" d="M384 153.281v54.375l-38.047-18.008Zm0 0"/><path fill="#5e566b" d="m302.684 200.688 43.27-11.04-3.794 39.477Zm0 0"/><path fill="#5c546a" d="m270.238 339.563 52.887-9.5L316.141 384Zm0 0"/><path fill="#5c546a" d="m233.664 384 36.574-44.437L316.141 384Zm0 0"/><path fill="#b3afb9" d="m181.906 261.266 17.301.37-8.273 12.77Zm0 0"/><path fill="#5c5369" d="m227.625 343.875 3.86-27.348 38.753 23.036Zm0 0"/><path fill="#5d556b" d="m231.484 316.527 40.774-29.902-2.02 52.938Zm0 0"/><path fill="#5c546a" d="M42.293 84.879 0 50.679l34.082-17.843Zm0 0"/><path fill="#5c546a" d="m0 50.68 42.293 34.199L0 85.562Zm0 0"/><path fill="#5b5369" d="M0 50.68V0l34.082 32.836Zm0 0"/><path fill="#5d556b" d="m39 238.172 44.89 20.332-42.538 32.59Zm0 0"/><path fill="#5c546a" d="m114.469 150.55-25.074.012 23.132-22.804Zm0 0"/><path fill="#5d556a" d="m112.527 127.758-23.132 22.805-4.696-44.688Zm0 0"/><path fill="#5d556b" d="m42.715 146.113 30.828 52.532-44.086-5.352Zm0 0"/><path fill="#5c546a" d="m89.395 150.563-15.852 48.082-30.828-52.532Zm0 0"/><path fill="#5d556b" d="m196.895 34.43-6.133-12.746 13.406-5.641ZM174.023 0l16.739 21.684-8.121 5.87Zm0 0"/><path fill="#5c546a" d="m204.168 16.043-13.406 5.64L174.023 0Zm0 0"/><path fill="#5f576c" d="m266.027 93.773-16.644-18.832 29.691-12.8Zm0 0"/><path fill="#5d556b" d="m266.027 93.773-26.273-1.222 9.629-17.61Zm0 0"/><path fill="#5e566c" d="m266.027 93.773 5.594 29.747-21.062-13.805Zm0 0"/><path fill="#5e566b" d="M346.203 108.695 384 153.281l-62.09.176Zm0 0"/><path fill="#5e566c" d="m346.203 108.695-24.293 44.762-19.32-50.98Zm0 0"/><path fill="#f3f3f4" d="m186.203 51.61 9.223-7.641 9.426 11.433Zm0 0"/><path fill="#5c546a" d="m146.086 52.965-40.344.535 40.219-23.293Zm0 0"/><path fill="#5c546a" d="m105.742 53.5 40.344-.535-4.754 15Zm0 0"/><path fill="#c5c2c9" d="m184.152 96.945-10.765 16.23 1.875-18.421Zm0 0"/><path fill="#5f576c" d="m271.621 123.52-18.566 8.16-2.496-21.965Zm0 0"/><path fill="#5e576c" d="m253.055 131.68 18.566-8.16-10.64 26.242Zm0 0"/><path fill="#9e99a6" d="m241 128.027-15.102-13.207 11.942-6.593Zm0 0"/><path fill="#5d566b" d="m239.754 92.55 26.273 1.223-15.468 15.942Zm0 0"/><path fill="#696276" d="M250.559 109.715 241 128.027l-3.16-19.8Zm0 0"/><path fill="#dbdade" d="m239.754 92.55 10.805 17.165-12.72-1.488Zm0 0"/><path fill="#433a53" d="m250.559 109.715 2.496 21.965L241 128.027Zm0 0"/><path fill="#afabb6" d="m239.754 92.55-9.965-4.96 3.973-5.324Zm0 0"/><path fill="#574f65" d="m129.215 146.355 3.37 17.786-18.116-13.59Zm0 0"/><path fill="#5b5369" d="m124.945 136.11 4.27 10.245-14.746 4.196Zm0 0"/><path fill="#5c546a" d="m124.945 136.11-10.476 14.44-1.942-22.792Zm0 0"/><path fill="#5c5469" d="m124.945 136.11 11.653-14.598 2.343 13.761Zm0 0"/><path fill="#5c5469" d="m129.215 146.355-4.27-10.246 13.996-.836Zm0 0"/><path fill="#5b5369" d="m127.84 83.777 13.492-15.812 17.723 18.8Zm0 0"/><path fill="#5c546a" d="m136.598 121.512-11.653 14.597-12.418-8.351Zm0 0"/><path fill="#5a5268" d="m110.672 176.809-37.129 21.836 15.852-48.083Zm0 0"/><path fill="#7f798a" d="m180.367 191.758 4.031-9.711 11.868 9.762Zm0 0"/><path fill="#fbfbfb" d="m180.367 191.758-4.879-3.07 8.91-6.641Zm0 0"/><path fill="#514960" d="m157.309 172.582-10.235-12.434 14.633 7.153Zm0 0"/><path fill="#b4b1bb" d="m170.473 175.563-13.164-2.981 4.398-5.281Zm0 0"/><path fill="#5a5268" d="m143.422 167.563-9.082 10.828-1.754-14.25Zm0 0"/><path fill="#60586d" d="m146.156 182.988-11.816-4.597 9.082-10.828Zm0 0"/><path fill="#5c5469" d="m134.34 178.39-.692 17.747-22.976-19.328Zm0 0"/><path fill="#5e566c" d="m133.648 196.137.692-17.746 11.816 4.597Zm0 0"/><path fill="#5d556b" d="m239.754 92.55-5.992-10.284 15.62-7.325Zm0 0"/><path fill="#5e566b" d="m233.762 82.266-.453-14.508 16.074 7.183Zm0 0"/><path fill="#cccad1" d="m221.695 55.29.668-8.935 5.282 6.02Zm0 0"/><path fill="#5d556a" d="M52.613 0h57.438l-40.2 34.371Zm0 0"/><path fill="#241937" d="m221.328 181.121-10.558 9.992-5.415-13.097Zm0 0"/><path fill="#5e566c" d="M263.898 190.527 237.5 209.441l5.516-26.703Zm0 0"/><path fill="#473e56" d="m186.133 176.156 12.472 6.297-14.207-.406Zm0 0"/><path fill="#fafafb" d="m224.305 159.887 12.562-.75-8.265 8.863Zm0 0"/><path fill="#fefefe" d="m224.305 159.887 8.785-12.305 3.777 11.555Zm0 0"/><path fill="#534b62" d="m260.98 149.762-16.136 3.12.066-6.859Zm0 0"/><path fill="#faf9fa" d="m244.844 152.883-11.754-5.301 11.82-1.559Zm0 0"/><path fill="#fefefe" d="m233.09 147.582 11.754 5.3-7.977 6.255Zm0 0"/><path fill="#322843" d="m245.602 141.586 15.378 8.176-16.07-3.739Zm0 0"/><path fill="#b8b5be" d="m233.09 147.582 12.512-5.996-.692 4.437Zm0 0"/><path fill="#221835" d="m238.73 167.848 11.012-2.934-6.726 17.824Zm0 0"/><path fill="#201533" d="m238.73 167.848 4.286 14.89L228.602 168Zm0 0"/><path fill="#211634" d="m236.867 159.137 1.863 8.71-10.128.153Zm0 0"/><path fill="#231836" d="m249.742 164.914-11.012 2.934-1.863-8.711Zm0 0"/><path fill="#5b5369" d="m165.422 384 22.375-16.164L233.664 384Zm0 0"/><path fill="#5a5268" d="M187.797 367.836 165.422 384l3.297-23.766Zm0 0"/><path fill="#5b5369" d="m165.422 384-29.492-32.988 32.789 9.222ZM184.813 350.535l2.984 17.3-19.078-7.6Zm0 0"/><path fill="#5e566c" d="m.004 321.531 46.61 20.43L.015 384.016Zm0 0"/><path fill="#5a5269" d="m384 326.066-49.672-47.75L384 259.461Zm0 0"/><path fill="#5b5369" d="M334.328 278.316 384 326.066l-60.875 3.997Zm0 0"/><path fill="#5e566c" d="m222.86 265.176 14.64-55.735 30.398 20.114ZM280.125 169.074l-30.383-4.16 11.238-15.152Zm0 0"/><path fill="#5e566c" d="m263.898 190.527-14.156-25.613 30.383 4.16Zm0 0"/><path fill="#5d556b" d="m280.125 169.074 41.785-15.617-19.226 47.23Zm0 0"/><path fill="#5d556b" d="m321.91 153.457 24.043 36.191-43.27 11.04Zm0 0"/><path fill="#5f576d" d="m321.91 153.457-34.742-11.414 15.422-39.566Zm0 0"/><path fill="#5e566c" d="m287.168 142.043 34.742 11.414-41.785 15.617Zm0 0"/><path fill="#5b5369" d="M349.988 355.227 384 326.067V384ZM176.898 307.73l-21.992 16.836 2.586-20.218Zm0 0"/><path fill="#f9f8f9" d="m176.898 307.73 9.793 7.118-8.132 9.015Zm0 0"/><path fill="#5a5168" d="m165.086 343.113 19.726 7.422-16.093 9.7Zm0 0"/><path fill="#5b5369" d="m165.086 343.113 3.633 17.121-32.79-9.222Zm0 0"/><path fill="#5b5369" d="m154.906 324.566 10.18 18.547-29.156 7.899ZM154.906 324.566l-36.21-21.472 38.796 1.254Zm0 0"/><path fill="#5b5369" d="m118.695 303.094 37.907-14.903.89 16.157Zm0 0"/><path fill="#5c5469" d="m118.695 303.094 36.211 21.472-18.976 26.446Zm0 0"/><path fill="#5b5369" d="m156.602 288.191-7.645-19.183 17.863 5.328Zm0 0"/><path fill="#5b5369" d="m118.695 303.094 30.262-34.086 7.645 19.183Zm0 0"/><path fill="#5b5369" d="m148.957 269.008-30.262 34.086 11.164-46.38Zm0 0"/><path fill="#5b5369" d="m148.957 269.008-19.098-12.293 31.028-10.352ZM166.82 274.336l-17.863-5.328 15.973-8.211ZM148.957 269.008l11.93-22.645 4.043 14.434Zm0 0"/><path fill="#5c546a" d="m187.691 245.629 5.18-9.758 11.262 9.777Zm0 0"/><path fill="#9e9aa7" d="m199.207 261.637-11.516-16.008 16.442.02Zm0 0"/><path fill="#d8d6db" d="m187.691 245.629 11.516 16.008-17.3-.371Zm0 0"/><path fill="#3d334d" d="m222.86 265.176-23.653-3.54 4.926-15.988Zm0 0"/><path fill="#d9d7dc" d="m186.691 314.848 4.805-9.914 8.781 15.925Zm0 0"/><path fill="#bfbcc4" d="m191.496 304.934-7.871-13.372 17.34 1.762Zm0 0"/><path fill="#5c556a" d="m208.48 335.754 23.004-19.227-3.859 27.348Zm0 0"/><path fill="#6b6377" d="m199.207 261.637 6.531 11.492-14.804 1.277Zm0 0"/><path fill="#211634" d="m222.86 265.176-17.122 7.953-6.531-11.492Zm0 0"/><path fill="#372d48" d="m194.582 282.5 21.688 7.371-15.305 3.453Zm0 0"/><path fill="#e6e5e8" d="m183.625 291.563 10.957-9.063 6.383 10.824Zm0 0"/><path fill="#eeedf0" d="m182.371 282.137 12.211.363-10.957 9.063Zm0 0"/><path fill="#e5e4e7" d="m194.582 282.5-12.21-.363 8.562-7.73Zm0 0"/><path fill="#615a6f" d="m205.738 273.129-11.156 9.371-3.648-8.094Zm0 0"/><path fill="#5d556b" d="m194.582 282.5 11.156-9.371 10.532 16.742Zm0 0"/><path fill="#f3f2f4" d="m176.898 307.73 4.403-4.16 5.39 11.278Zm0 0"/><path fill="#fcfcfc" d="m181.3 303.57 10.196 1.364-4.805 9.914Zm0 0"/><path fill="#f5f4f6" d="m191.496 304.934-10.195-1.364 2.324-12.007Zm0 0"/><path fill="#5b5369" d="m167.383 50.148 3.34-18.609 9.414 7.398Zm0 0"/><path fill="#5c546a" d="m170.723 31.54-3.34 18.608-21.422-19.941ZM167.383 50.148l-21.297 2.817-.125-22.758Zm0 0"/><path fill="#5d556b" d="m146.086 52.965 21.297-2.817-10.184 14.024ZM73.543 198.645 39 238.172l-9.543-44.879Zm0 0"/><path fill="#5c546a" d="M83.89 258.504 39 238.172l34.543-39.527Zm0 0"/><path fill="#5d556a" d="m182.64 27.555 8.122-5.871 6.133 12.746Zm0 0"/><path fill="#5b5369" d="m170.723 31.54 11.918-3.985-2.504 11.383Zm0 0"/><path fill="#5c556a" d="m346.203 108.695 37.8-21.03L384 153.28Zm0 0"/><path fill="#5e566b" d="m217.992 30.887-7.066 10.343-14.031-6.8Zm0 0"/><path fill="#f5f4f6" d="m210.926 41.23-15.5 2.739 1.469-9.54Zm0 0"/><path fill="#5e566c" d="m210.926 41.23 7.066-10.343 4.371 15.468Zm0 0"/><path fill="#efeef0" d="m195.426 43.969 15.5-2.739-6.074 14.172Zm0 0"/><path fill="#f2f1f3" d="m182.55 61.809 3.653-10.2 18.649 3.793Zm0 0"/><path fill="#5b5369" d="m141.332 67.965 15.867-3.793 1.856 22.594Zm0 0"/><path fill="#5c546a" d="m146.086 52.965 11.113 11.207-15.867 3.793Zm0 0"/><path fill="#c1bec6" d="m178.066 82.492 6.086 14.453-8.89-2.191Zm0 0"/><path fill="#d1ced5" d="m239.754 92.55-15.133 3.47 5.168-8.43Zm0 0"/><path fill="#fcfcfc" d="m211.098 103.027-14.2-13.086 17.883 1.278Zm0 0"/><path fill="#c4c1c9" d="m167.945 139.164-7.265 9.129-21.739-13.02Zm0 0"/><path fill="#fefefe" d="m142.098 99.094 16.957-12.328 16.207 7.988Zm0 0"/><path fill="#f9f9fa" d="m173.387 113.176-31.29-14.082 33.165-4.34Zm0 0"/><path fill="#5a5268" d="M142.098 99.094 127.84 83.777l31.215 2.989Zm0 0"/><path fill="#5d556a" d="m122.813 106.195 13.785 15.317-24.07 6.246Zm0 0"/><path fill="#5a5269" d="m122.813 106.195 5.027-22.418 14.258 15.317Zm0 0"/><path fill="#5c546a" d="m136.598 121.512-13.786-15.317 19.286-7.101Zm0 0"/><path fill="#5c546a" d="m122.813 106.195-10.286 21.563L84.7 105.875Zm0 0"/><path fill="#5c5469" d="m127.84 83.777-5.028 22.418-38.113-.32Zm0 0"/><path fill="#f6f6f7" d="m175.488 188.688-3.367-8.176 12.277 1.535Zm0 0"/><path fill="#e7e6e9" d="m172.121 180.512 14.012-4.356-1.735 5.89Zm0 0"/><path fill="#f6f5f6" d="m170.473 175.563-7.133 5.609-6.031-8.59Zm0 0"/><path fill="#f8f8f9" d="m163.34 181.172 8.781-.66-6.129 8.62Zm0 0"/><path fill="#f1f0f2" d="m163.34 181.172-8.438 6.52 2.407-15.11Zm0 0"/><path fill="#fbfbfb" d="m154.902 187.691 8.438-6.52 2.652 7.962Zm0 0"/><path fill="#f8f7f8" d="m157.309 172.582-11.153 10.406-2.734-15.425Zm0 0"/><path fill="#888292" d="m147.074 160.148 10.235 12.434-13.887-5.02Zm0 0"/><path fill="#fafafb" d="m146.156 182.988 11.153-10.406-2.407 15.11Zm0 0"/><path fill="#f2f1f3" d="m190.438 204.57-3.125 12.48-6.825-2.28Zm0 0"/><path fill="#f4f3f5" d="m190.438 204.57-10.07-12.812 15.898.05Zm0 0"/><path fill="#5b5369" d="m141.61 219.559 12.585-3.664 4.746 16.55Zm0 0"/><path fill="#4c435b" d="m211.668 227.309-18.797 8.562 3.707-10.3Zm0 0"/><path fill="#2f2541" d="m211.668 227.309 11.191 37.867-18.726-19.528Zm0 0"/><path fill="#564e65" d="m192.871 235.871 18.797-8.562-7.535 18.34Zm0 0"/><path fill="#f7f6f7" d="m187.313 217.05-4.16 4.966-2.665-7.246Zm0 0"/><path fill="#5d556b" d="m149.57 197.402-15.922-1.265 12.508-13.149Zm0 0"/><path fill="#f8f8f9" d="m154.902 187.691-5.332 9.711-3.414-14.414Zm0 0"/><path fill="#d7d6db" d="m217.938 65.05-12.02 1.544-1.066-11.192Zm0 0"/><path fill="#9a95a2" d="m217.938 65.05-7.7 18.27-4.32-16.726Zm0 0"/><path fill="#c0bdc5" d="m210.77 191.113-5.532 12.094-8.972-11.398Zm0 0"/><path fill="#302541" d="m198.605 182.453 12.165 8.66-14.504.696Zm0 0"/><path fill="#271d3a" d="m210.77 191.113-12.165-8.66 6.75-4.437Zm0 0"/><path fill="#201533" d="m210.77 191.113 10.558-9.992 16.172 28.32Zm0 0"/><path fill="#6b6478" d="m193.57 161.242 5.961 6.578-10.07-2.972Zm0 0"/><path fill="#f6f6f7" d="m147.074 160.148 17.106-.793-2.473 7.946Zm0 0"/><path fill="#2e2340" d="m186.133 176.156 10.207-2.351 2.265 8.648Zm0 0"/><path fill="#281e3a" d="m196.34 173.805-10.207 2.351 3.328-11.308Zm0 0"/><path fill="#231936" d="m199.531 167.82-3.191 5.985-6.88-8.957Zm0 0"/><path fill="#483f58" d="m169.617 166.895.856 8.667-8.766-8.261Zm0 0"/><path fill="#fdfdfd" d="m164.18 159.355 5.437 7.54-7.91.406Zm0 0"/><path fill="#9b96a3" d="m244.844 152.883 4.898 12.031-12.875-5.777Zm0 0"/><path fill="#f7f7f8" d="m249.742 164.914-4.898-12.031 16.136-3.121Zm0 0"/><path fill="#534b62" d="m241 128.027 12.055 3.653-7.453 9.906Zm0 0"/><path fill="#5f576c" d="m245.602 141.586 7.453-9.906 7.925 18.082Zm0 0"/><path fill="#e6e5e8" d="m193.84 332.605-15.281-8.742 21.718-3.004Zm0 0"/><path fill="#5b5369" d="m187.797 367.836 15.875-16.816L233.664 384Zm0 0"/><path fill="#5b5369" d="m184.813 350.535 18.859.485-15.875 16.816Zm0 0"/><path fill="#dad8dd" d="m187.313 217.05 13.843-2.679-4.578 11.2Zm0 0"/><path fill="#5d556b" d="m249.742 164.914 14.156 25.613-20.882-7.789Zm0 0"/><path fill="#5c546a" d="m316.14 384 33.848-28.773L384 384Zm0 0"/><path fill="#5a5268" d="m169.027 327.434 7.871-19.704 1.66 16.133Zm0 0"/><path fill="#5a5268" d="m176.898 307.73-7.87 19.704-14.122-2.868Zm0 0"/><path fill="#5a5168" d="m169.027 327.434-3.941 15.68-10.18-18.548Zm0 0"/><path fill="#251a37" d="m216.27 289.871-10.532-16.742 17.121-7.953Zm0 0"/><path fill="#5d556b" d="m216.27 289.871 6.59-24.695 49.398 21.449Zm0 0"/><path fill="#f8f8f9" d="m175.95 272.941-9.13 1.395-1.89-13.54Zm0 0"/><path fill="#fbfbfc" d="m181.906 261.266-5.957 11.675-11.02-12.144Zm0 0"/><path fill="#e6e5e8" d="m175.95 272.941 5.956-11.675 9.028 13.14Zm0 0"/><path fill="#eae9ec" d="m182.371 282.137-6.422-9.196 14.985 1.465Zm0 0"/><path fill="#595168" d="m170.29 283.035-13.688 5.156 10.218-13.855Zm0 0"/><path fill="#fafafb" d="m175.95 272.941-5.66 10.094-3.47-8.7Zm0 0"/><path fill="#f5f4f6" d="m170.29 283.035 5.66-10.094 6.421 9.196Zm0 0"/><path fill="#f4f4f5" d="m170.29 283.035 12.081-.898 1.254 9.426Zm0 0"/><path fill="#5d556b" d="m211.59 310.617 19.894 5.91-23.004 19.227Zm0 0"/><path fill="#5d556b" d="m211.59 310.617 4.68-20.746 15.214 26.656Zm0 0"/><path fill="#fbfbfc" d="m186.203 51.61-18.82-1.462 12.754-11.21Zm0 0"/><path fill="#f9f9f9" d="m167.383 50.148 15.168 11.66-25.352 2.364Zm0 0"/><path fill="#faf9fa" d="m182.55 61.809-15.167-11.66 18.82 1.46Zm0 0"/><path fill="#5b5369" d="m132.586 164.14-21.914 12.669 3.797-26.258Zm0 0"/><path fill="#5d556b" d="m110.672 176.809-21.277-26.246 25.074-.012Zm0 0"/><path fill="#fcfbfc" d="m195.426 43.969-15.29-5.032 16.759-4.507Zm0 0"/><path fill="#5c546a" d="m180.137 38.938 2.504-11.383 14.254 6.875Zm0 0"/><path fill="#fefefe" d="m186.203 51.61-6.066-12.672 15.289 5.03Zm0 0"/><path fill="#f2f1f3" d="m221.695 55.29-6.582-2.212 7.25-6.723Zm0 0"/><path fill="#f0eff1" d="m215.113 53.078-4.187-11.848 11.437 5.125Zm0 0"/><path fill="#eeeef0" d="m210.926 41.23 4.187 11.848-10.261 2.324Zm0 0"/><path fill="#f6f5f6" d="m215.113 53.078 2.825 11.973-13.086-9.649Zm0 0"/><path fill="#ecebee" d="m217.938 65.05-2.825-11.972 6.582 2.211Zm0 0"/><path fill="#eae9ec" d="m205.918 66.594-23.367-4.785 22.3-6.407Zm0 0"/><path fill="#fefefe" d="m182.55 61.809-15.222 11.05-10.129-8.687Zm0 0"/><path fill="#fbfbfb" d="m157.2 64.172 10.128 8.687-8.273 13.907Zm0 0"/><path fill="#f9f8f9" d="m167.328 72.86 15.223-11.051-4.485 20.683Zm0 0"/><path fill="#fefefe" d="m173.332 129.086 7.934 10.101-13.32-.023Zm0 0"/><path fill="#fcfcfd" d="m173.332 129.086.055-15.91 10.031 11.152Zm0 0"/><path fill="#dad8dd" d="m181.266 139.188-7.934-10.102 10.086-4.758Zm0 0"/><path fill="#fdfdfe" d="m148.977 120.219-12.38 1.293 5.5-22.418Zm0 0"/><path fill="#f5f4f6" d="m173.387 113.176-24.41 7.043-6.88-21.125Zm0 0"/><path fill="#a39fab" d="m192.934 78.207-8.782 18.738-6.086-14.453Zm0 0"/><path fill="#e6e5e8" d="m182.55 61.809 10.384 16.398-14.868 4.285Zm0 0"/><path fill="#a5a1ad" d="m192.934 78.207 3.964 11.734-12.746 7.004Zm0 0"/><path fill="#b1adb8" d="m192.934 78.207 17.304 5.113-13.34 6.621Zm0 0"/><path fill="#e9e8eb" d="m210.238 83.32-17.304-5.113 12.984-11.613Zm0 0"/><path fill="#dad8dd" d="M192.934 78.207 182.55 61.809l23.367 4.785Zm0 0"/><path fill="#f8f7f8" d="m211.098 103.027-14.809.391.61-13.477Zm0 0"/><path fill="#fdfdfd" d="m196.29 103.418-12.138-6.473 12.746-7.004Zm0 0"/><path fill="#fcfcfc" d="m196.898 89.941 13.34-6.62 4.543 7.898Zm0 0"/><path fill="#50475f" d="m241 128.027-16.285.891 1.183-14.098Zm0 0"/><path fill="#fafafb" d="m224.715 128.918-7.3-4.05 8.483-10.048Zm0 0"/><path fill="#9792a0" d="m202.477 119.602-7.801 10.761-11.258-6.035Zm0 0"/><path fill="#d3d1d7" d="m211.64 118.332-9.163 1.27 8.62-16.575Zm0 0"/><path fill="#e2e0e4" d="m193.57 161.242 8.961-1.094-3 7.672Zm0 0"/><path fill="#fcfcfc" d="m224.305 159.887-6.832-10.348 15.617-1.957Zm0 0"/><path fill="#c1bec6" d="m225.898 114.82-.152-12.543 12.094 5.95Zm0 0"/><path fill="#bdbac3" d="m225.746 102.277 14.008-9.726-1.914 15.676Zm0 0"/><path fill="#bfbcc4" d="m225.746 102.277-1.125-6.257 15.133-3.47Zm0 0"/><path fill="#d7d5da" d="m225.898 114.82-14.257 3.512-.543-15.305Zm0 0"/><path fill="#3e354e" d="m211.64 118.332 14.258-3.512-8.484 10.047Zm0 0"/><path fill="#f3f3f4" d="m224.621 96.02-13.523 7.007 3.683-11.808Zm0 0"/><path fill="#9e99a6" d="m132.586 164.14 14.488-3.992-3.652 7.415Zm0 0"/><path fill="#b8b5be" d="m173.332 129.086-5.387 10.078-29.004-3.89Zm0 0"/><path fill="#6f687b" d="m172.121 180.512-1.648-4.95 15.66.594Zm0 0"/><path fill="#efeef0" d="m163.34 181.172 7.133-5.61 1.648 4.95Zm0 0"/><path fill="#2c213e" d="m201.156 214.371 10.512 12.938-15.09-1.739Zm0 0"/><path fill="#211634" d="m211.668 227.309 4.898-17.68 20.934-.188Zm0 0"/><path fill="#4c435b" d="m216.566 209.629-4.898 17.68-10.512-12.938Zm0 0"/><path fill="#231835" d="m222.86 265.176-11.192-37.867L237.5 209.44Zm0 0"/><path fill="#928d9b" d="m189.543 226.922-2.23-9.871 9.265 8.52Zm0 0"/><path fill="#4e455d" d="m189.543 226.922-6.39-4.906 4.16-4.965Zm0 0"/><path fill="#f0eff1" d="m192.871 235.871-3.328-8.95 7.035-1.35Zm0 0"/><path fill="#f5f4f5" d="m183.152 222.016-7.05-.055 4.386-7.191Zm0 0"/><path fill="#efeef0" d="m174.59 202.836 15.847 1.734-9.949 10.2Zm0 0"/><path fill="#a9a5b1" d="m169.66 214.48 4.93-11.644 5.898 11.934Zm0 0"/><path fill="#fdfdfd" d="m174.59 202.836.898-14.149 4.88 3.07Zm0 0"/><path fill="#898393" d="m190.438 204.57-15.848-1.734 5.777-11.078Zm0 0"/><path fill="#fefefe" d="m160.68 148.293 3.5 11.062-17.106.793ZM167.945 139.164l13.32.024-8.148 10.847Zm0 0"/><path fill="#e7e5e9" d="m185.285 154.824-4.02-15.637 9.786 7.09Zm0 0"/><path fill="#ebeaec" d="m181.266 139.188 4.02 15.636-12.169-4.789Zm0 0"/><path fill="#271c39" d="m196.34 173.805 3.191-5.985 5.824 10.196Zm0 0"/><path fill="#2e2340" d="m198.605 182.453-2.265-8.648 9.015 4.21Zm0 0"/><path fill="#595167" d="m208.48 335.754-14.64-3.149 6.437-11.746Zm0 0"/><path fill="#5c5469" d="m203.672 351.02 23.953-7.145 6.04 40.125Zm0 0"/><path fill="#453c55" d="m205.238 203.207-14.8 1.363 5.828-12.761Zm0 0"/><path fill="#e2e0e4" d="m201.156 214.371-10.719-9.8 14.801-1.364Zm0 0"/><path fill="#3d344e" d="m190.438 204.57 10.718 9.801-13.844 2.68Zm0 0"/><path fill="#5b5269" d="m316.14 384 6.985-53.937 26.863 25.164Zm0 0"/><path fill="#595168" d="m169.027 327.434 12.356 8.535-16.297 7.144Zm0 0"/><path fill="#5a5268" d="m165.086 343.113 16.297-7.144 3.43 14.566Zm0 0"/><path fill="#fbfbfb" d="m193.84 332.605-12.457 3.364-2.824-12.106Zm0 0"/><path fill="#5a5269" d="m181.383 335.969-12.356-8.535 9.532-3.57Zm0 0"/><path fill="#f0eff1" d="m181.3 303.57-8.421-6.14 10.746-5.868Zm0 0"/><path fill="#f8f7f8" d="m172.879 297.43-2.59-14.395 13.336 8.527Zm0 0"/><path fill="#595167" d="m172.879 297.43 4.02 10.3-19.407-3.382Zm0 0"/><path fill="#f1f0f2" d="m172.879 297.43 8.422 6.14-4.403 4.16Zm0 0"/><path fill="#5a5268" d="m156.602 288.191 16.277 9.239-15.387 6.918Zm0 0"/><path fill="#595167" d="m170.29 283.035 2.589 14.395-16.277-9.239Zm0 0"/><path fill="#281e3b" d="m211.59 310.617-3.11 25.137-8.203-14.895Zm0 0"/><path fill="#291e3b" d="m191.496 304.934 20.094 5.683-11.313 10.242Zm0 0"/><path fill="#6f687b" d="m211.59 310.617-20.094-5.683 9.469-11.61Zm0 0"/><path fill="#261c39" d="m216.27 289.871-4.68 20.746-10.625-17.293Zm0 0"/><path fill="#5a5268" d="m134.34 178.39-23.668-1.581 21.914-12.668Zm0 0"/><path fill="#f0eff1" d="m159.055 86.766 8.273-13.907 10.738 9.633Zm0 0"/><path fill="#b3b0ba" d="m159.055 86.766 19.011-4.274-2.804 12.262Zm0 0"/><path fill="#797284" d="m217.938 65.05.859 17.735-8.559.535Zm0 0"/><path fill="#645c71" d="m226.8 77.578-8.003 5.207-.86-17.734Zm0 0"/><path fill="#fbfbfb" d="m210.238 83.32 8.559-.535-4.016 8.434Zm0 0"/><path fill="#f9f9f9" d="m224.715 128.918-9.059 1.215 1.758-5.266Zm0 0"/><path fill="#332944" d="m207.531 141.262-7.34-4.703 9.282-1.594Zm0 0"/><path fill="#261b38" d="m200.191 136.559 7.34 4.703-9.398 3.14Zm0 0"/><path fill="#e2e1e5" d="m200.191 136.559-8.12 1.91 2.605-8.106Zm0 0"/><path fill="#96919f" d="m181.266 139.188 10.804-.72-1.02 7.81Zm0 0"/><path fill="#bcb9c2" d="m191.05 146.277 1.02-7.808 6.063 5.933Zm0 0"/><path fill="#7f788a" d="m192.07 138.469 8.121-1.91-2.058 7.843Zm0 0"/><path fill="#c8c6cd" d="m194.676 130.363-2.606 8.106-8.652-14.14Zm0 0"/><path fill="#898493" d="m192.07 138.469-10.804.719 2.152-14.86Zm0 0"/><path fill="#f1f1f2" d="m202.477 119.602-6.188-16.184 14.809-.39Zm0 0"/><path fill="#fafafa" d="m196.29 103.418 6.187 16.184-19.059 4.726Zm0 0"/><path fill="#302641" d="m209.285 126.133-6.808-6.531 9.164-1.27Zm0 0"/><path fill="#342a45" d="m209.285 126.133 6.371 4-6.183 4.832Zm0 0"/><path fill="#3c324c" d="m209.285 126.133 2.356-7.801 5.773 6.535Zm0 0"/><path fill="#5e566b" d="m215.656 130.133-6.37-4 8.128-1.266Zm0 0"/><path fill="#eae9ec" d="m211.098 103.027 13.523-7.007 1.125 6.257Zm0 0"/><path fill="#edecee" d="m225.898 114.82-14.8-11.793 14.648-.75Zm0 0"/><path fill="#f6f5f6" d="m223.902 88.117.72 7.903-9.84-4.801Zm0 0"/><path fill="#d4d2d7" d="m224.621 96.02-.719-7.903 5.887-.527Zm0 0"/><path fill="#f8f8f8" d="m218.797 82.785 5.105 5.332-9.12 3.102Zm0 0"/><path fill="#fefefe" d="m147.074 160.148-6.683-11.617 20.289-.238Zm0 0"/><path fill="#f1f0f2" d="m160.68 148.293-20.29.238-1.449-13.258Zm0 0"/><path fill="#fefefe" d="m140.39 148.531 6.684 11.617-14.488 3.993Zm0 0"/><path fill="#fdfdfd" d="m140.39 148.531-11.175-2.176 9.726-11.082Zm0 0"/><path fill="#fefefe" d="m140.39 148.531-7.804 15.61-3.371-17.786Zm0 0"/><path fill="#e1dfe3" d="m148.977 120.219 24.355 8.867-34.39 6.187Zm0 0"/><path fill="#f9f9fa" d="m148.977 120.219-10.036 15.054-2.343-13.761Zm0 0"/><path fill="#c4c1c9" d="m173.332 129.086-24.355-8.867 24.41-7.043Zm0 0"/><path fill="#261c39" d="m179.344 166.633-8.871 8.93-.856-8.668Zm0 0"/><path fill="#271d3a" d="m186.133 176.156-6.79-9.523 10.118-1.785Zm0 0"/><path fill="#2a203d" d="m170.473 175.563 8.87-8.93 6.79 9.523Zm0 0"/><path fill="#211634" d="m216.566 209.629-5.796-18.516 26.73 18.328Zm0 0"/><path fill="#241937" d="m216.566 209.629-15.41 4.742 4.082-11.164Zm0 0"/><path fill="#221734" d="m210.77 191.113 5.796 18.516-11.328-6.422Zm0 0"/><path fill="#fbfbfb" d="m154.195 215.895 12.461 10.59-7.715 5.96Zm0 0"/><path fill="#f9f8f9" d="m158.941 232.445 13.555 6.5-11.61 7.418Zm0 0"/><path fill="#e5e4e7" d="m166.656 226.484 5.84 12.461-13.555-6.5Zm0 0"/><path fill="#5c5469" d="m149.57 197.402 4.625 18.493-12.586 3.664Zm0 0"/><path fill="#5b5369" d="m149.57 197.402-7.96 22.157-7.962-23.422Zm0 0"/><path fill="#eeeef0" d="m154.902 187.691 6.145 12.418-11.477-2.707Zm0 0"/><path fill="#f8f7f8" d="m161.047 200.11-6.852 15.785-4.625-18.493Zm0 0"/><path fill="#fcfcfc" d="m165.992 189.133-4.945 10.976-6.145-12.418Zm0 0"/><path fill="#eeeef0" d="m154.195 215.895 6.852-15.786 8.613 14.371Zm0 0"/><path fill="#f1f0f2" d="m176.102 221.96-6.442-7.48 10.828.29Zm0 0"/><path fill="#f1f1f2" d="m169.66 214.48-3.004 12.004-12.46-10.59Zm0 0"/><path fill="#c6c3cb" d="m166.656 226.484 3.004-12.004 6.442 7.48Zm0 0"/><path fill="#c9c7ce" d="m233.309 67.758-15.371-2.707 3.757-9.762Zm0 0"/><path fill="#847e8f" d="m233.309 67.758-6.508 9.82-8.863-12.527Zm0 0"/><path fill="#c9c7ce" d="m233.309 67.758-11.614-12.469 5.95-2.914Zm0 0"/><path fill="#fefefe" d="m195.95 153.867 6.581 6.281-8.96 1.094ZM185.285 154.824l10.664-.957-2.379 7.375Zm0 0"/><path fill="#fcfcfc" d="m195.95 153.867-10.665.957 5.766-8.547Zm0 0"/><path fill="#d6d4d9" d="m195.95 153.867-4.9-7.59 7.083-1.875Zm0 0"/><path fill="#fdfdfd" d="m160.68 148.293 7.265-9.129 5.172 10.871Zm0 0"/><path fill="#fefefe" d="m160.68 148.293 12.437 1.742-8.937 9.32Zm0 0"/><path fill="#f6f6f7" d="m215.656 130.133-.133 9.613-6.05-4.781Zm0 0"/><path fill="#e1dfe3" d="m215.523 139.746-7.992 1.516 1.942-6.297Zm0 0"/><path fill="#4f475e" d="m207.531 141.262 7.992-1.516 1.95 9.793Zm0 0"/><path fill="#fefefe" d="m173.387 113.176 10.765-16.23-.734 27.382Zm0 0"/><path fill="#fefefe" d="m184.152 96.945 12.137 6.473-12.871 20.91Zm0 0"/><path fill="#f6f5f6" d="m202.477 119.602-.586 10.183-7.215.578Zm0 0"/><path fill="#423852" d="m209.285 126.133-7.394 3.652.586-10.183Zm0 0"/><path fill="#e2e1e4" d="m201.89 129.785-1.699 6.774-5.515-6.196Zm0 0"/><path fill="#514960" d="m200.191 136.559 1.7-6.774 7.582 5.18Zm0 0"/><path fill="#4b425a" d="m201.89 129.785 7.395-3.652.188 8.832Zm0 0"/><path fill="#f9f8f9" d="m211.574 158.262-6.129-7.145 12.028-1.578Zm0 0"/><path fill="#6a6377" d="m205.445 151.117 2.086-9.855 9.942 8.277Zm0 0"/><path fill="#fefefe" d="m195.95 153.867 9.495-2.75-2.914 9.031Zm0 0"/><path fill="#413851" d="m207.531 141.262-2.086 9.855-7.312-6.715Zm0 0"/><path fill="#f4f3f5" d="m205.445 151.117-9.496 2.75 2.184-9.465Zm0 0"/><path fill="#211634" d="m199.531 167.82 13.008 1.153-7.184 9.043Zm0 0"/><path fill="#201533" d="m221.328 181.121-8.789-12.148 16.063-.973Zm0 0"/><path fill="#211634" d="m212.54 168.973 8.788 12.148-15.973-3.105Zm0 0"/><path fill="#fefefe" d="m224.305 159.887-12.73-1.625 5.898-8.723Zm0 0"/><path fill="#fdfdfd" d="m224.305 159.887-11.766 9.086-.965-10.711Zm0 0"/><path fill="#a29eaa" d="m212.54 168.973 11.765-9.086 4.297 8.113Zm0 0"/><path fill="#534b62" d="m173.941 160.59 5.403 6.043-9.727.262Zm0 0"/><path fill="#fdfdfd" d="m173.941 160.59-4.324 6.305-5.437-7.54Zm0 0"/><path fill="#fefefe" d="m173.117 150.035.824 10.555-9.761-1.235Zm0 0"/><path fill="#e8e7ea" d="m185.285 154.824 8.285 6.418-4.11 3.606Zm0 0"/><path fill="#7d7788" d="m179.344 166.633 5.941-11.809 4.176 10.024Zm0 0"/><path fill="#5f586d" d="m173.941 160.59 11.344-5.766-5.941 11.809Zm0 0"/><path fill="#fefefe" d="m185.285 154.824-11.344 5.766-.824-10.555Zm0 0"/><path fill="#f8f8f8" d="m179.898 233.754-3.796-11.793 7.05.055Zm0 0"/><path fill="#403750" d="m189.543 226.922-9.645 6.832 3.254-11.738Zm0 0"/><path fill="#fbfbfc" d="m179.898 233.754-13.242-7.27 9.446-4.523Zm0 0"/><path fill="#fcfcfc" d="m179.898 233.754-7.402 5.191-5.84-12.46Zm0 0"/><path fill="#f3f3f4" d="m179.898 233.754 9.645-6.832 3.328 8.95Zm0 0"/><path fill="#b5b1bb" d="m165.992 189.133 6.13-8.621 3.366 8.176Zm0 0"/><path fill="#6d6579" d="m233.762 82.266-6.961-4.688 6.508-9.82Zm0 0"/><path fill="#5c546a" d="m203.672 351.02 4.808-15.266 19.145 8.121Zm0 0"/><path fill="#a5a1ad" d="m215.523 139.746 8.133 1.64-6.183 8.153Zm0 0"/><path fill="#261b38" d="m217.473 149.54 6.183-8.153 9.434 6.195Zm0 0"/><path fill="#fbfbfc" d="m222.809 135.86-7.153-5.727 9.059-1.215Zm0 0"/><path fill="#fafafb" d="m222.809 135.86-7.286 3.886.133-9.613Zm0 0"/><path fill="#c8c5cc" d="m222.809 135.86.847 5.527-8.133-1.64Zm0 0"/><path fill="#fefefe" d="m202.531 160.148 2.914-9.03 6.13 7.144Zm0 0"/><path fill="#a6a1ad" d="m202.531 160.148 10.008 8.825-13.008-1.153Zm0 0"/><path fill="#fefefe" d="m212.54 168.973-10.009-8.825 9.043-1.886Zm0 0"/><path fill="#7a7385" d="m187.691 245.629-3.632-4.516 8.812-5.242Zm0 0"/><path fill="#b3afb9" d="m184.059 241.113-4.16-7.36 12.972 2.118Zm0 0"/><path fill="#dbd9de" d="m179.898 233.754 4.16 7.36-11.562-2.169Zm0 0"/><path fill="#f8f7f8" d="m174.59 202.836-8.598-13.703 9.496-.446Zm0 0"/><path fill="#f7f6f7" d="m161.047 200.11 13.543 2.726-4.93 11.644Zm0 0"/><path fill="#dddce0" d="m165.992 189.133 8.598 13.703-13.543-2.727Zm0 0"/><path fill="#463d56" d="m229.79 87.59-3.243-3.781 7.215-1.543Zm0 0"/><path fill="#5f576c" d="m226.547 83.809.254-6.23 6.96 4.687Zm0 0"/><path fill="#d0ced4" d="m223.902 88.117 2.645-4.308 3.242 3.78Zm0 0"/><path fill="#463d56" d="m226.547 83.809-7.75-1.024 8.004-5.207Zm0 0"/><path fill="#e2e0e4" d="m226.547 83.809-2.645 4.308-5.105-5.332Zm0 0"/><path fill="#4a425a" d="m203.672 351.02-10.035-11.543 14.843-3.723Zm0 0"/><path fill="#251a37" d="m208.48 335.754-14.843 3.723.203-6.872Zm0 0"/><path fill="#d1cfd5" d="m193.637 339.477 10.035 11.543-18.86-.485Zm0 0"/><path fill="#fcfbfc" d="m181.383 335.969 12.254 3.508-8.824 11.058Zm0 0"/><path fill="#f9f9f9" d="m193.637 339.477-12.254-3.508 12.457-3.364Zm0 0"/><path fill="#3b324c" d="m231.758 137.246 9.242-9.219 4.602 13.559Zm0 0"/><path fill="#362c47" d="m233.09 147.582-1.332-10.336 13.844 4.34Zm0 0"/><path fill="#554d64" d="m231.758 137.246-7.043-8.328 16.285-.89Zm0 0"/><path fill="#676074" d="m231.758 137.246-8.95-1.387 1.907-6.941Zm0 0"/><path fill="#2f2541" d="m223.656 141.387 8.102-4.14 1.332 10.335Zm0 0"/><path fill="#261b38" d="m222.809 135.86 8.949 1.386-8.102 4.14Zm0 0"/><path fill="#e7e6e9" d="m173.223 249.45 10.836-8.337 3.632 4.516Zm0 0"/><path fill="#f1f0f2" d="m173.223 249.45 8.683 11.816-16.976-.47Zm0 0"/><path fill="#e7e6e9" d="m173.223 249.45 14.468-3.821-5.785 15.637Zm0 0"/><path fill="#fafafb" d="m160.887 246.363 12.336 3.086-8.293 11.348Zm0 0"/><path fill="#fbfbfc" d="m172.496 238.945.727 10.504-12.336-3.086Zm0 0"/><path fill="#e4e2e6" d="m184.059 241.113-10.836 8.336-.727-10.504Zm0 0"/></svg>