<svg xmlns="http://www.w3.org/2000/svg" width="512" height="512" viewBox="0 0 384 384"><path fill="#dfd785" d="m110.52 95.063-19.954 11.68 2.336-21.294Zm0 0"/><path fill="#ded684" d="m198.36 362.809-5.926 21.183-4.782-18.781Zm0 0"/><path fill="#202215" d="m.004 85.348 15.89 1.254-11.816 4.433Zm0 0"/><path fill="#ded684" d="m165.684 163.758 26.12 6.68-12.695 15.937ZM110.52 95.063l-.899 13.644-19.055-1.965Zm0 0"/><path fill="#202215" d="m192.434 383.992-7.43.012 2.648-18.793Zm0 0"/><path fill="#ded684" d="m198.36 362.809-10.407-10.864 45.192-14.297Zm0 0"/><path fill="#dfd785" d="m91.605 47.71-12.44-30.366L83.542.012Zm0 0"/><path fill="#fc7631" d="m39.387-.004 6.789 15.828L9.352 22.56Zm0 0"/><path fill="#ddd584" d="m165.684 163.758-11.489 13.36-6.668-12.669Zm0 0"/><path fill="#ded684" d="m154.195 177.117 11.489-13.36 13.425 22.618ZM.027 106.652.004 85.348l4.074 5.687Zm0 0"/><path fill="#dfd684" d="m317.117-.004 21.903 17.27-25.32 4.972Zm0 0"/><path fill="#ded684" d="m254.133 70.867 13.586-12.215 15.176 10.54Zm0 0"/><path fill="#d66135" d="m211.953 13.188-14.07 2.082 6.879-15.274Zm0 0"/><path fill="#202215" d="m344.973 51.477 39.03 2.636L384 99.88ZM124.836 161.004l9.105 7.746-2.539 10.313Zm0 0"/><path fill="#ded684" d="m109.496 365.863-.312 18.117-38.153.02ZM0 384l44.547-54.492L71.03 384Zm0 0"/><path fill="#dfd785" d="m98.75 316.21-12.738 22.2-11.192-34.105Zm0 0"/><path fill="#ded684" d="m187.953 351.945-.82-27.41 46.012 13.113Zm0 0"/><path fill="#ded684" d="m187.133 324.535 10.719-27.402 35.293 40.515ZM187.652 365.21l.301-13.265 10.406 10.864Zm0 0"/><path fill="#202215" d="m129.332 361.043-20.148 22.937.312-18.117Zm0 0"/><path fill="#ded684" d="m198.36 362.809 33.753 4.5-39.68 16.683Zm0 0"/><path fill="#ded684" d="m232.113 367.309-33.754-4.5 34.786-25.16Zm0 0"/><path fill="#ded684" d="m256.164 362.383-24.05 4.926 1.03-29.66Zm0 0"/><path fill="#ded684" d="m232.113 367.309 24.051-4.926-14.305 21.62Zm0 0"/><path fill="#202215" d="m209.766 205.113 25.687-5.808-.074 19.058Zm0 0"/><path fill="#202215" d="m235.453 199.305 25.305 8.172-25.38 10.886Zm0 0"/><path fill="#e56933" d="m102.594 19.406 3.004-19.414h50.804Zm0 0"/><path fill="#f06f32" d="M102.594 19.406 156.402-.008l-2.222 21.11Zm0 0"/><path fill="#ded684" d="m126.715 51.285-24.121-31.879 51.586 1.696Zm0 0"/><path fill="#af4a39" d="m105.598-.008-3.004 19.414L83.543.012Zm0 0"/><path fill="#dfd684" d="M102.594 19.406 91.605 47.711 83.543.01Zm0 0"/><path fill="#dfd684" d="m102.594 19.406 24.12 31.88-35.109-3.575Zm0 0"/><path fill="#dc6434" d="M197.883 15.27 156.403-.008l48.359.004Zm0 0"/><path fill="#2e2519" d="m203.645 47.996 35.57 12.047-45.672.289Zm0 0"/><path fill="#dfd785" d="m211.953 13.188-8.308 34.808-5.762-32.726Zm0 0"/><path fill="#202215" d="m131.164 52.227 33.129.691-36.133 4.555Zm0 0"/><path fill="#dfd684" d="m131.164 52.227-4.45-.942 27.466-30.183Zm0 0"/><path fill="#202215" d="m160.715 104.934 9.101 13.277-16.027 14.164Zm0 0"/><path fill="#202215" d="m136.793 107.297 23.922-2.363-6.926 27.441Zm0 0"/><path fill="#ded684" d="m136.793 107.297 2.316-20.899 21.606 18.536Zm0 0"/><path fill="#f67331" d="M46.176 15.824 83.543.012l-4.379 17.332Zm0 0"/><path fill="#f17032" d="M83.543.012 46.176 15.824 39.386-.004Zm0 0"/><path fill="#dfd684" d="m46.176 15.824-8.91 16.446-27.914-9.711Zm0 0"/><path fill="#943b3b" d="M31.742 60.191 17.641 48.832l14.066-4.793Zm0 0"/><path fill="#dfd684" d="M17.64 48.832 9.353 22.559l22.355 21.48Zm0 0"/><path fill="#ded684" d="M77.137 107.738 74.668 92.29l15.898 14.453Zm0 0"/><path fill="#dfd785" d="M90.566 106.742 74.668 92.29l18.234-6.84Zm0 0"/><path fill="#ded684" d="m74.668 92.29 1.25-17.395 16.984 10.554ZM75.918 74.895l18.559-11.157-1.575 21.711ZM30.504 196.453 0 235.453v-50.86Zm0 0"/><path fill="#ded684" d="m0 184.594 31.465-15.48-.961 27.34ZM15.09 136.363 0 151.18l.008-22.32Zm0 0"/><path fill="#202215" d="m267.719 58.652 22.445-10.937-7.27 21.476ZM226.094 98.574l-30.781 3.977 27.664-13.664ZM169.816 118.21l25.496-15.66-3.515 12.696ZM258.973 90.637l-4.84-19.77 28.762-1.676Zm0 0"/><path fill="#dfd684" d="M277.504 27.938 266.969 0l50.148-.004Zm0 0"/><path fill="#ded684" d="M277.504 27.938 317.117-.005 313.7 22.238Zm0 0"/><path fill="#953b3b" d="m290.164 47.715-12.66-19.778 36.195-5.699Zm0 0"/><path fill="#953b3b" d="m277.504 27.938 12.66 19.777-22.445 10.937Zm0 0"/><path fill="#d35f35" d="M211.953 13.188 204.762-.005 255.727 0Zm0 0"/><path fill="#e0d17f" d="M355.95 6.863 317.116-.004h66.88Zm0 0"/><path fill="#9a3e3b" d="m362.348 33.54 21.66-10.981-.004 31.554Zm0 0"/><path fill="#202215" d="m384.004 158.836-46.856-35.012L384 99.88Zm0 0"/><path fill="#202215" d="m337.148 123.824 46.856 35.012-45.871 36.648Zm0 0"/><path fill="#202215" d="m384.008 221.086-45.875-25.602 45.87-36.648Zm0 0"/><path fill="#202215" d="m315.918 238.234-22.188-23.093 44.403-19.657Zm0 0"/><path fill="#202215" d="m293.73 215.14 22.188 23.094-36.184 5.825Zm0 0"/><path fill="#b1aa69" d="m114.02 171.2-25.137 4.683 10.887-18.278Zm0 0"/><path fill="#202215" d="m114.02 171.2 10.816-10.196 6.566 18.059ZM154.195 177.117l-22.793 1.946 16.125-14.614Zm0 0"/><path fill="#202215" d="m131.402 179.063 2.54-10.313 13.585-4.3Zm0 0"/><path fill="#6c643f" d="m58.09 149.809 1.566-20.137 29.227 46.21Zm0 0"/><path fill="#202215" d="m109.621 108.707-30.133 36.781 11.078-38.746ZM99.77 157.605l-20.282-12.117 30.133-36.781Zm0 0"/><path fill="#202215" d="m79.488 145.488-2.351-37.75 13.43-.996Zm0 0"/><path fill="#ded684" d="m56.8 167.363 22.528 28.758-28.39 21.914Zm0 0"/><path fill="#ded684" d="m79.328 196.121 2.094 26.883-30.484-4.969Zm0 0"/><path fill="#7e7b4c" d="m79.328 196.121-22.527-28.758 32.082 8.52Zm0 0"/><path fill="#ded684" d="m165.684 163.758 12.152-18.598 13.969 25.278ZM191.805 170.438l14.273 36.558-26.969-20.621Zm0 0"/><path fill="#ded684" d="m191.805 170.438 17.96 34.675-3.687 1.883ZM100.918 358.348 71.031 384l14.98-45.59Zm0 0"/><path fill="#ded684" d="m71.031 384 29.887-25.652 8.578 7.515ZM71.031 384l-26.484-54.492 41.465 8.902ZM111.555 351.578l-10.637 6.77-14.906-19.938Zm0 0"/><path fill="#202215" d="m111.555 351.578 4.004-15.445 13.773 24.91Zm0 0"/><path fill="#ded684" d="m74.82 304.305-30.273 25.203-1.406-57.7ZM86.012 338.41l-41.465-8.902 30.273-25.203ZM43.14 271.809 0 303.008v-67.555Zm0 0"/><path fill="#202215" d="m175.762 333.324 11.37-8.789.821 27.41ZM166.254 384l21.398-18.79-2.648 18.794ZM109.496 365.863l2.059-14.285 17.777 9.465Zm0 0"/><path fill="#ded684" d="m111.555 351.578-2.059 14.285-8.578-7.515Zm0 0"/><path fill="#202215" d="M129.332 361.043 140.695 384l-31.511-.02Zm0 0"/><path fill="#ded684" d="m111.555 351.578-3.586-18.262 7.59 2.817ZM256.164 362.383l18.524 21.613-32.829.008ZM232.113 367.309l9.746 16.695-49.425-.012ZM366.453 310.918l17.547 12.3-24.207 7.438Zm0 0"/><path fill="#202215" d="m273.738 228.676 19.992-13.535-13.996 28.918ZM315.918 238.234l-21.816 15.657-14.368-9.832Zm0 0"/><path fill="#dfd684" d="m154.18 21.102 49.465 26.894-39.352 4.922Zm0 0"/><path fill="#dfd785" d="M203.645 47.996 154.18 21.102l43.703-5.832Zm0 0"/><path fill="#dfd684" d="m131.164 52.227 23.016-31.125 10.113 31.816Zm0 0"/><path fill="#202215" d="m195.313 102.55-.305-1.331 27.969-12.332Zm0 0"/><path fill="#943b3b" d="M126.715 51.285 90.77 49.594l.835-1.883Zm0 0"/><path fill="#ded684" d="m171.273 135.543-1.457-17.332 21.98-2.965Zm0 0"/><path fill="#ded684" d="m169.816 118.21 1.457 17.333-17.484-3.168Zm0 0"/><path fill="#202215" d="m136.793 107.297-6.566 31.66-20.606-30.25ZM109.621 108.707l20.606 30.25-30.457 18.648ZM130.227 138.957l6.566-31.66 16.996 25.078Zm0 0"/><path fill="#ded684" d="m110.52 95.063 26.273 12.234-27.172 1.41Zm0 0"/><path fill="#ded684" d="m110.52 95.063 28.59-8.665-2.317 20.899Zm0 0"/><path fill="#e2ca7a" d="m.016.016 9.336 22.543-9.364 32.078Zm0 0"/><path fill="#f06f32" d="M9.352 22.559.016.016l39.37-.02Zm0 0"/><path fill="#dbd383" d="m11.664 116.05 9.34-2.652-5.914 22.965Zm0 0"/><path fill="#b7b16d" d="m.027 106.652 11.637 9.399L.008 128.859Zm0 0"/><path fill="#ded684" d="m.008 128.86 11.656-12.81 3.426 20.313Zm0 0"/><path fill="#202215" d="m15.895 86.602 24.867.941-23.36 8.793Zm0 0"/><path fill="#202215" d="m40.762 87.543-24.867-.941L29.05 68.488ZM36.754 103.59l-15.75 9.808-3.602-17.062Zm0 0"/><path fill="#202215" d="m40.762 87.543-4.008 16.047-19.352-7.254Zm0 0"/><path fill="#ded684" d="m36.754 103.59 4.008-16.047 5.843 14.785ZM15.895 86.602 12.28 61.406l16.77 7.082Zm0 0"/><path fill="#202215" d="M.004 85.348 12.28 61.406l3.614 25.196Zm0 0"/><path fill="#dfd684" d="M17.64 48.832-.011 54.637l9.364-32.078Zm0 0"/><path fill="#242517" d="m117.852 246.996-15.258-17.816 15.82 17.773Zm0 0"/><path fill="#ded684" d="m102.594 229.18 15.258 17.816-21.2 10.652Zm0 0"/><path fill="#202215" d="m162.547 201.04-31.145-21.977 22.793-1.946ZM162.547 201.04l-.824 22.23-17.496-15.083Zm0 0"/><path fill="#45442a" d="m105.36 191.945 3.523 25.403-14.684-1.133Zm0 0"/><path fill="#d4cc7e" d="m105.36 191.945 23.062 21.239-19.54 4.164Zm0 0"/><path fill="#9a965c" d="m105.36 191.945 8.66-20.746 17.382 7.863Zm0 0"/><path fill="#212316" d="m114.02 171.2-8.66 20.745-16.477-16.062Zm0 0"/><path fill="#ded684" d="m233.332 242.242-13.43-6.926 15.477-16.953Zm0 0"/><path fill="#ded684" d="m219.902 235.316-10.136-30.203 25.613 13.25Zm0 0"/><path fill="#202215" d="m219.902 235.316-13.824-28.32 3.688-1.883Zm0 0"/><path fill="#ded684" d="m206.078 206.996 13.824 28.32-9.168 11.875ZM206.078 206.996l-8.547.488-18.422-21.109ZM162.547 201.04l-8.352-23.923 24.914 9.258ZM102.594 229.18l-21.172-6.176 12.777-6.79ZM81.422 223.004l-5.035 22.762-25.45-27.73ZM76.387 245.766l26.207-16.586-5.942 28.468Zm0 0"/><path fill="#ded684" d="m76.387 245.766 5.035-22.762 21.172 6.176ZM0 235.453l50.938-17.418-7.797 53.774Zm0 0"/><path fill="#ded684" d="M50.938 218.035 0 235.453l30.504-39Zm0 0"/><path fill="#ded684" d="m30.504 196.453 26.297-29.09-5.864 50.672Zm0 0"/><path fill="#ddd584" d="m36.543 139.465 23.113-9.793-1.566 20.137Zm0 0"/><path fill="#a9a365" d="m36.543 139.465.867-27.965 22.246 18.172Zm0 0"/><path fill="#202215" d="m36.543 139.465-5.078 29.648-16.375-32.75ZM312.234 74.277l-22.07-26.562 31.137-3.102ZM260.758 207.477l29.086-38.622 3.886 46.286Zm0 0"/><path fill="#202215" d="m273.738 228.676-12.98-21.2 32.972 7.665ZM284.578 113.855l-25.605-23.218 23.922-21.446ZM239.168 87.086l19.805 3.55-16.645 20.532Zm0 0"/><path fill="#202215" d="m258.973 90.637-19.805-3.551 14.965-16.219Zm0 0"/><path fill="#202215" d="m239.168 87.086.758-16.957 14.207.738Zm0 0"/><path fill="#dfd684" d="M247.355 36.316 255.727 0h11.242Zm0 0"/><path fill="#dfd684" d="m247.355 36.316-35.402-23.129L255.727 0Zm0 0"/><path fill="#dfd785" d="m277.504 27.938-30.149 8.378L266.97 0Zm0 0"/><path fill="#963c3b" d="m247.355 36.316 30.149-8.379-9.785 30.715Zm0 0"/><path fill="#dfd785" d="m247.355 36.316-43.71 11.68 8.308-34.808Zm0 0"/><path fill="#803735" d="m203.645 47.996 43.71-11.68-8.14 23.727Zm0 0"/><path fill="#dfd684" d="m384.008 22.559-23.918-5.97L383.996-.003Zm0 0"/><path fill="#dfd583" d="m360.09 16.59-4.14-9.727 28.046-6.867Zm0 0"/><path fill="#963c3b" d="m362.348 33.54-2.258-16.95 23.918 5.969Zm0 0"/><path fill="#202215" d="M344.973 51.477 384 99.879l-46.852 23.945ZM352.867 245.691l31.14-24.605-.007 53.789Zm0 0"/><path fill="#202215" d="m384.008 221.086-31.14 24.605-14.735-50.207ZM352.867 245.691l-36.949-7.457 22.215-42.75ZM99.77 157.605l30.457-18.648-5.391 22.047Zm0 0"/><path fill="#202215" d="m114.02 171.2-14.25-13.595 25.066 3.399Zm0 0"/><path fill="#cec57a" d="m79.488 145.488 20.282 12.117-10.887 18.278Zm0 0"/><path fill="#d9d181" d="m59.656 129.672 19.832 15.816 9.395 30.395Zm0 0"/><path fill="#202215" d="m147.527 164.45-13.586 4.3-9.105-7.746ZM130.227 138.957l17.3 25.492-22.691-3.445Zm0 0"/><path fill="#ded684" d="m199.484 142.379 12.75 13.723-20.43 14.335Zm0 0"/><path fill="#ded684" d="m212.234 156.102-12.75-13.723 26.235-12.149Zm0 0"/><path fill="#dcd583" d="m199.484 142.379 9.47-23.336 16.765 11.187Zm0 0"/><path fill="#202215" d="m208.953 119.043 17.14-20.469 16.235 12.594Zm0 0"/><path fill="#202215" d="m225.719 130.23-16.766-11.187 33.375-7.875Zm0 0"/><path fill="#ded684" d="m208.953 119.043-9.469 23.336-7.687-27.133Zm0 0"/><path fill="#202215" d="m195.313 102.55 13.64 16.493-17.156-3.797Zm0 0"/><path fill="#202215" d="m208.953 119.043-13.64-16.492 30.78-3.977Zm0 0"/><path fill="#ded684" d="M44.547 329.508 0 384v-80.992Zm0 0"/><path fill="#202215" d="m111.184 266.395 6.668-19.399.562-.043Zm0 0"/><path fill="#ded684" d="m117.852 246.996-6.668 19.399-14.532-8.747ZM111.184 266.395l-8.192 14.902-6.34-23.649ZM44.547 329.508 0 303.008l43.14-31.2Zm0 0"/><path fill="#ded684" d="M76.387 245.766 43.14 271.809l7.797-53.774Zm0 0"/><path fill="#202215" d="m175.762 333.324-14.547-26.52 25.918 17.731Zm0 0"/><path fill="#202215" d="m197.852 297.133-36.637 9.672 32.3-29.543ZM161.215 306.805l36.637-9.672-10.72 27.402ZM140.695 384l13.86-21.633L166.254 384Zm0 0"/><path fill="#202215" d="M154.555 362.367 140.695 384l-11.363-22.957Zm0 0"/><path fill="#ddd584" d="m107.969 333.316 18.949-25.855-11.36 28.672Zm0 0"/><path fill="#ded684" d="m98.75 316.21 28.168-8.75-18.95 25.856Zm0 0"/><path fill="#dfd685" d="m86.012 338.41 21.957-5.094 3.586 18.262Zm0 0"/><path fill="#ded684" d="m86.012 338.41 12.738-22.2 9.219 17.106Zm0 0"/><path fill="#202215" d="m275.559 361.297-.872 22.7-18.523-21.614ZM265.969 338.953l-9.805 23.43-23.02-24.735ZM265.969 338.953l9.59 22.344-19.395 1.086ZM275.559 361.297l-9.59-22.344 17.902 13.926Zm0 0"/><path fill="#ded684" d="m384 323.219.004 19.676-24.211-12.239Zm0 0"/><path fill="#202215" d="m352.953 339.691-9.765 11.524-9.493-14.649ZM343.188 351.215l9.765-11.524 3.68 14.809Zm0 0"/><path fill="#ded684" d="m366.453 310.918 17.52-3.188.027 15.489Zm0 0"/><path fill="#202215" d="m263.48 235.719 10.258-7.043 5.996 15.383Zm0 0"/><path fill="#202215" d="m273.738 228.676-10.258 7.043-2.722-28.242ZM366.297 289.355l-9.125-10.386L384 274.875Zm0 0"/><path fill="#202215" d="m357.172 278.969-4.305-33.278L384 274.875ZM371.105 299.184l-4.808-9.829L384 274.875ZM383.973 307.73l-12.868-8.546L384 274.875Zm0 0"/><path fill="#ded684" d="m371.105 299.184 12.868 8.546-17.52 3.188Zm0 0"/><path fill="#ea6c33" d="m154.18 21.102 2.222-21.11 41.48 15.278Zm0 0"/><path fill="#472a21" d="m203.645 47.996-10.102 12.336-29.25-7.414Zm0 0"/><path fill="#3c281e" d="m164.293 52.918 29.25 7.414-31.145 2.79Zm0 0"/><path fill="#30251a" d="m164.293 52.918-1.895 10.203-34.238-5.648Zm0 0"/><path fill="#ded684" d="m193.543 60.332-4.34 9.914-26.805-7.125ZM239.215 60.043l-10.98 10.168-34.692-9.879Zm0 0"/><path fill="#ded684" d="m228.234 70.21-39.03.036 4.339-9.914Zm0 0"/><path fill="#202215" d="m189.203 70.246 39.031-.035-5.257 18.676Zm0 0"/><path fill="#ded684" d="m239.926 70.129-11.692.082 10.98-10.168Zm0 0"/><path fill="#202215" d="m228.234 70.21 11.692-.081-.758 16.957ZM239.168 87.086l-13.074 11.488-3.117-9.687ZM228.234 70.21l10.934 16.876-16.191 1.8ZM160.715 104.934l34.598-2.383-25.497 15.66ZM160.715 104.934l34.293-3.715.304 1.332ZM131.164 52.227l-3.004 5.246-1.445-6.188Zm0 0"/><path fill="#202215" d="m128.16 57.473-37.39-7.88 35.945 1.692ZM90.77 49.594l37.39 7.879-33.683 6.265Zm0 0"/><path fill="#212215" d="m128.16 57.473-.578 6.004-33.105.261Zm0 0"/><path fill="#ded684" d="m199.484 142.379-21.648 2.781 13.96-29.914Zm0 0"/><path fill="#ded684" d="m177.836 145.16-6.563-9.617 20.524-20.297ZM177.836 145.16l21.648-2.781-7.68 28.059ZM165.684 163.758l-15.637-17.43 27.789-1.168ZM150.047 146.328l21.226-10.785 6.563 9.617Zm0 0"/><path fill="#ded684" d="m147.527 164.45 2.52-18.122 15.637 17.43Zm0 0"/><path fill="#ded684" d="m171.273 135.543-21.226 10.785 3.742-13.953Zm0 0"/><path fill="#202215" d="m150.047 146.328-19.82-7.371 23.562-6.582ZM150.047 146.328l-2.52 18.121-17.3-25.492Zm0 0"/><path fill="#ded684" d="m127.582 63.477-16.14 16.12-16.965-15.859ZM111.441 79.598l16.141-16.121 11.527 22.921ZM111.441 79.598l-.921 15.465-17.618-9.614Zm0 0"/><path fill="#ded684" d="m94.477 63.738 16.964 15.86-18.539 5.851ZM110.52 95.063l.921-15.465 27.668 6.8Zm0 0"/><path fill="#dfd684" d="m9.352 22.559 27.914 9.71-5.559 11.77Zm0 0"/><path fill="#dfd785" d="M58.957 42.941 37.266 32.27l8.91-16.446Zm0 0"/><path fill="#ded684" d="m91.605 47.71-32.648-4.769 20.207-25.597Zm0 0"/><path fill="#dfd785" d="M58.957 42.941 46.176 15.824l32.988 1.52ZM75.633 62.61l18.844 1.128-18.559 11.157Zm0 0"/><path fill="#202215" d="M17.402 96.336.027 106.652l4.051-15.617ZM17.402 96.336l-5.738 19.715-11.637-9.399Zm0 0"/><path fill="#ddd584" d="m11.664 116.05 5.738-19.714 3.602 17.062Zm0 0"/><path fill="#202215" d="m15.895 86.602 1.507 9.734-13.324-5.3ZM36.754 103.59l.656 7.91-16.406 1.898ZM21.004 113.398 37.41 111.5l-22.32 24.863ZM37.41 111.5l-.867 27.965-21.453-3.102Zm0 0"/><path fill="#202215" d="m37.41 111.5-.656-7.91 9.851-1.262Zm0 0"/><path fill="#ded684" d="M12.281 61.406.004 85.348l-.016-30.711ZM47.855 104.152 74.668 92.29l2.469 15.45Zm0 0"/><path fill="#ded684" d="m74.668 92.29-26.813 11.862-1.25-1.824Zm0 0"/><path fill="#202215" d="m37.41 111.5 10.445-7.348 11.801 25.52Zm0 0"/><path fill="#202215" d="M47.855 104.152 37.41 111.5l9.195-9.172Zm0 0"/><path fill="#ded684" d="m173.137 214.5-11.414 8.77.824-22.23Zm0 0"/><path fill="#262618" d="m121.207 230.05-15.652-3.347 3.328-9.355Zm0 0"/><path fill="#212315" d="m102.594 229.18 2.96-2.477 12.86 20.25Zm0 0"/><path fill="#212215" d="m105.555 226.703-2.961 2.477-8.395-12.965Zm0 0"/><path fill="#202215" d="m108.883 217.348-3.328 9.355-11.356-10.488ZM161.723 223.27 140 221.898l4.227-13.71Zm0 0"/><path fill="#ddd583" d="m81.422 223.004-2.094-26.883L94.2 216.215Zm0 0"/><path fill="#907f52" d="m79.328 196.121 26.031-4.176-11.16 24.27Zm0 0"/><path fill="#c4bd75" d="m105.36 191.945-26.032 4.176 9.555-20.238Zm0 0"/><path fill="#202215" d="m140 221.898-11.578-8.714 15.805-4.996Zm0 0"/><path fill="#202215" d="M128.422 213.184 140 221.898l-18.793 8.153Zm0 0"/><path fill="#ded584" d="m128.422 213.184-7.215 16.867-12.324-12.703Zm0 0"/><path fill="#202215" d="m208.848 285.914-15.332-8.652 39.406-9.973Zm0 0"/><path fill="#202215" d="m228.043 297.984-19.195-12.07 24.074-18.625Zm0 0"/><path fill="#202215" d="m208.848 285.914 19.195 12.07-30.191-.851ZM210.734 247.191l-3.554 9.907-18.438-20.094ZM232.426 264.07l30.8 1.243-30.304 1.976ZM193.516 277.262l38.91-13.192.496 3.22Zm0 0"/><path fill="#ded684" d="m197.531 207.484 8.547-.488 4.656 40.195Zm0 0"/><path fill="#202215" d="m197.531 207.484 13.203 39.707-21.992-10.187Zm0 0"/><path fill="#ded684" d="m197.531 207.484-24.394 7.016 5.972-28.125Zm0 0"/><path fill="#ded684" d="m173.137 214.5-10.59-13.46 16.562-14.665ZM56.8 167.363l-25.335 1.75 5.078-29.648Zm0 0"/><path fill="#ded684" d="m56.8 167.363-26.296 29.09.96-27.34Zm0 0"/><path fill="#dbd282" d="m58.09 149.809-1.29 17.554-20.257-27.898Zm0 0"/><path fill="#ded684" d="m88.883 175.883-32.082-8.52 1.289-17.554ZM15.09 136.363l16.375 32.75L0 151.18Zm0 0"/><path fill="#202215" d="m312.234 74.277 24.914 49.547-52.57-9.969ZM290.164 47.715l22.07 26.562-29.34-5.086Zm0 0"/><path fill="#202215" d="m312.234 74.277-27.656 39.578-1.683-44.664Zm0 0"/><path fill="#202215" d="m258.973 90.637 25.605 23.218-42.25-2.687Zm0 0"/><path fill="#202215" d="m254.605 143.914 29.973-30.059 5.266 55Zm0 0"/><path fill="#202215" d="m338.133 195.484-48.29-26.629 47.305-45.03Zm0 0"/><path fill="#202215" d="m289.844 168.855-5.266-55 52.57 9.97ZM289.844 168.855l48.289 26.63-44.403 19.656Zm0 0"/><path fill="#ded684" d="m254.133 70.867-14.918-10.824 28.504-1.39Zm0 0"/><path fill="#933b3b" d="m239.215 60.043 8.14-23.727 20.364 22.336Zm0 0"/><path fill="#ded684" d="m239.215 60.043 14.918 10.824-14.207-.738Zm0 0"/><path fill="#dfd684" d="M339.02 17.266 317.117-.004l38.832 6.867ZM360.09 16.59l-21.07.676 16.93-10.403Zm0 0"/><path fill="#953b3b" d="m313.7 22.238 7.6 22.375-31.136 3.102Zm0 0"/><path fill="#202215" d="m65.824 123.418 13.664 22.07-19.832-15.816Zm0 0"/><path fill="#202215" d="m79.488 145.488-13.664-22.07 11.313-15.68Zm0 0"/><path fill="#202215" d="m47.855 104.152 17.97 19.266-6.169 6.254Zm0 0"/><path fill="#202215" d="m65.824 123.418-17.969-19.266 29.282 3.586Zm0 0"/><path fill="#ded684" d="m102.992 281.297-22.644-10.274 16.304-13.375ZM80.348 271.023l-3.961-25.257 20.265 11.882Zm0 0"/><path fill="#ded684" d="m80.348 271.023-37.207.786 33.246-26.043Zm0 0"/><path fill="#202215" d="m296.922 367.715-21.363-6.418 8.312-8.418ZM197.852 297.133l51.046 20.16-15.753 20.355ZM248.898 317.293l17.07 21.66-32.823-1.305Zm0 0"/><path fill="#202215" d="m248.898 317.293-51.046-20.16 30.191.851Zm0 0"/><path fill="#ded684" d="m265.969 338.953 25.316-23.875-7.414 37.8Zm0 0"/><path fill="#ded684" d="m248.898 317.293 42.387-2.215-25.316 23.875Zm0 0"/><path fill="#202215" d="m383.992 383.988-32.586-22.625 5.227-6.863Zm0 0"/><path fill="#202215" d="m351.406 361.363-8.219-10.148 13.446 3.285ZM352.867 245.691l-20.191 30.164-16.758-37.62Zm0 0"/><path fill="#ded684" d="m325.074 291.098 7.602-15.243 16.363 12.235Zm0 0"/><path fill="#202215" d="m332.676 275.855 24.496 3.114-8.133 9.12ZM357.172 278.969l-24.496-3.114 20.191-30.164Zm0 0"/><path fill="#ded684" d="m291.285 315.078 26.988 20.621-34.402 17.18Zm0 0"/><path fill="#202215" d="m318.273 335.7-26.988-20.622 5.52-5.715Zm0 0"/><path fill="#ded684" d="m294.102 253.89-22.504 1.02 8.136-10.851Zm0 0"/><path fill="#ded684" d="m271.598 254.91-8.118-19.191 16.254 8.34Zm0 0"/><path fill="#202215" d="m263.48 235.719-13.812-8.266 11.09-19.976Zm0 0"/><path fill="#ded684" d="m249.668 227.453-16.336 14.79 2.047-23.88Zm0 0"/><path fill="#202215" d="m260.758 207.477-11.09 19.976-14.29-9.09Zm0 0"/><path fill="#ded684" d="m310.39 262.785-24.042 17.766 7.754-26.66ZM310.39 262.785l22.286 13.07-7.602 15.243Zm0 0"/><path fill="#202215" d="m310.39 262.785-16.288-8.894 21.816-15.657ZM332.676 275.855l-22.285-13.07 5.527-24.55Zm0 0"/><path fill="#212215" d="m162.398 63.121-34.816.356.578-6.004Zm0 0"/><path fill="#ded684" d="M162.398 63.121 139.11 86.398l-11.527-22.921Zm0 0"/><path fill="#202215" d="m239.168 87.086 3.16 24.082-16.234-12.594Zm0 0"/><path fill="#ded684" d="M74.668 92.29 57.891 80.612l18.027-5.718ZM40.762 87.543l17.129-6.93-11.286 21.715Zm0 0"/><path fill="#ded684" d="M57.89 80.613 74.669 92.29l-28.063 10.04ZM57.89 80.613l-17.128 6.93L29.05 68.488Zm0 0"/><path fill="#ded684" d="m61.758 64.219-32.707 4.27 2.691-8.298Zm0 0"/><path fill="#ded684" d="M61.758 64.219 57.89 80.613 29.05 68.488ZM57.89 80.613l3.868-16.394 14.16 10.676Zm0 0"/><path fill="#dfd684" d="m58.957 42.941-27.25 1.098 5.559-11.77Zm0 0"/><path fill="#953c3c" d="M90.77 49.594 58.957 42.94l32.648 4.77ZM58.957 42.941l31.813 6.653-28 2.031Zm0 0"/><path fill="#482a22" d="M90.77 49.594 75.633 62.609 62.77 51.625Zm0 0"/><path fill="#202215" d="M75.633 62.61 90.77 49.593l3.707 14.144Zm0 0"/><path fill="#5e2f29" d="m12.281 61.406-12.293-6.77 17.653-5.804Zm0 0"/><path fill="#ded684" d="m173.137 214.5 24.394-7.016-8.789 29.52ZM176.61 236.418l-3.473-21.918 15.605 22.504Zm0 0"/><path fill="#202215" d="m173.137 214.5 3.472 21.918-14.886-13.148Zm0 0"/><path fill="#aba265" d="m118.414 246.953-12.86-20.25 15.653 3.348Zm0 0"/><path fill="#373722" d="m128.422 213.184 10.223-12.192 5.582 7.196Zm0 0"/><path fill="#d1c87c" d="m138.645 200.992 23.902.047-18.32 7.149Zm0 0"/><path fill="#d9d281" d="m162.547 201.04-23.902-.048-7.243-21.93Zm0 0"/><path fill="#202215" d="m193.516 277.262 15.332 8.652-10.996 11.219ZM207.18 257.098l25.246 6.972-38.91 13.192Zm0 0"/><path fill="#ded684" d="M31.465 169.113 0 184.593V151.18Zm0 0"/><path fill="#212215" d="m344.973 51.477-32.739 22.8 9.067-29.664Zm0 0"/><path fill="#202215" d="m312.234 74.277 32.739-22.8-7.825 72.347ZM242.328 111.168l42.25 2.687-29.973 30.06ZM260.758 207.477l-12.48-30.512 41.566-8.11ZM248.277 176.965l6.328-33.05 35.239 24.94ZM209.766 205.113l8.12-20.965 17.567 15.157Zm0 0"/><path fill="#ded684" d="m191.805 170.438 26.082 13.71-8.121 20.965Zm0 0"/><path fill="#ded684" d="m212.234 156.102 5.653 28.046-26.082-13.71Zm0 0"/><path fill="#953b3b" d="m384.004 54.113-39.031-2.636 17.375-17.938Zm0 0"/><path fill="#ded684" d="m111.105 305.902 15.813 1.559-28.168 8.75Zm0 0"/><path fill="#202215" d="m126.918 307.46-15.813-1.558 23.258-11.527Zm0 0"/><path fill="#dcd383" d="m102.992 281.297 8.113 24.605-12.355 10.309Zm0 0"/><path fill="#202215" d="m123.516 278.418-12.41 27.484-8.114-24.605Zm0 0"/><path fill="#202215" d="m111.105 305.902 12.41-27.484 10.848 15.957Zm0 0"/><path fill="#ded684" d="m74.82 304.305 5.528-33.282 22.644 10.274ZM74.82 304.305l28.172-23.008-4.242 34.914ZM74.82 304.305l-31.68-32.496 37.208-.786Zm0 0"/><path fill="#202215" d="m115.559 336.133 28.816 3.86-15.043 21.05Zm0 0"/><path fill="#202215" d="m144.375 339.992 10.18 22.375-25.223-1.324ZM187.652 365.21l-23.71-20.894 24.011 7.63Zm0 0"/><path fill="#202215" d="m163.941 344.316 11.82-10.992 12.192 18.621Zm0 0"/><path fill="#202215" d="m163.941 344.316-2.726-37.511 14.547 26.52ZM148.469 271.617l12.746 35.188-26.852-12.43Zm0 0"/><path fill="#202215" d="m123.516 278.418 24.953-6.8-14.106 22.757ZM296.922 367.715l-22.235 16.281.872-22.7Zm0 0"/><path fill="#ded684" d="m321.176 351.281-24.254 16.434-13.05-14.836Zm0 0"/><path fill="#202215" d="m321.176 351.281-2.903-15.582 15.422.867Zm0 0"/><path fill="#ded684" d="m318.273 335.7 2.903 15.581-37.305 1.598Zm0 0"/><path fill="#202215" d="m343.188 351.215-22.012.066 12.52-14.715Zm0 0"/><path fill="#ded684" d="m261.934 290.148-33.891 7.836 4.879-30.695Zm0 0"/><path fill="#ded684" d="m261.934 290.148-13.036 27.145-20.855-19.309Zm0 0"/><path fill="#202215" d="m263.227 265.313-1.293 24.835-29.012-22.859Zm0 0"/><path fill="#ded684" d="m261.934 290.148 29.351 24.93-42.387 2.215Zm0 0"/><path fill="#202215" d="m286.348 280.55-24.414 9.598 1.293-24.836ZM261.934 290.148l24.414-9.597 10.457 28.812Zm0 0"/><path fill="#202215" d="m291.285 315.078-29.351-24.93 34.87 19.215Zm0 0"/><path fill="#ded684" d="m384.004 342.895-.016 6.293-24.195-18.532Zm0 0"/><path fill="#202215" d="m383.988 349.188-31.035-9.497 6.84-9.035ZM352.953 339.691l31.035 9.497-27.355 5.312Zm0 0"/><path fill="#202215" d="m383.988 349.188.004 34.8-27.36-29.488Zm0 0"/><path fill="#ded684" d="M351.406 361.363 353.973 384h-15.856Zm0 0"/><path fill="#ded684" d="m353.973 384-2.567-22.637 32.586 22.625Zm0 0"/><path fill="#202215" d="m342.145 320.578 10.808 19.113-19.258-3.125ZM342.145 320.578l17.648 10.078-6.84 9.035Zm0 0"/><path fill="#ded684" d="m271.598 254.91 14.75 25.64-23.121-15.238Zm0 0"/><path fill="#ded684" d="m286.348 280.55-14.75-25.64 22.504-1.02Zm0 0"/><path fill="#202215" d="m232.426 264.07 13.117-12.246 17.684 13.488Zm0 0"/><path fill="#dcd483" d="m245.543 251.824 26.055 3.086-8.371 10.403Zm0 0"/><path fill="#ded684" d="m271.598 254.91-26.055-3.086 17.937-16.105Zm0 0"/><path fill="#ded684" d="m245.543 251.824 4.125-24.37 13.812 8.265ZM306.977 295.625l3.414-32.84 14.683 28.313ZM306.977 295.625l18.097-4.527-6.293 15.906Zm0 0"/><path fill="#202215" d="m286.348 280.55 20.629 15.075-10.172 13.738Zm0 0"/><path fill="#ded684" d="m310.39 262.785-3.413 32.84-20.63-15.074Zm0 0"/><path fill="#202215" d="m296.805 309.363 10.172-13.738 11.804 11.379Zm0 0"/><path fill="#ded684" d="m168.73 85.16 54.247 3.727-27.97 12.332ZM189.203 70.246 168.73 85.16l-6.332-22.039Zm0 0"/><path fill="#202215" d="M222.977 88.887 168.73 85.16l20.473-14.914Zm0 0"/><path fill="#963e3d" d="m31.742 60.191 27.215-17.25 3.813 8.684Zm0 0"/><path fill="#4b3526" d="M61.758 64.219 31.742 60.19l31.028-8.566Zm0 0"/><path fill="#953b3b" d="m31.742 60.191-.035-16.152 27.25-1.098Zm0 0"/><path fill="#dfd785" d="m61.758 64.219 13.875-1.61.285 12.286Zm0 0"/><path fill="#553b2b" d="m75.633 62.61-13.875 1.609 1.012-12.594Zm0 0"/><path fill="#ded684" d="m12.281 61.406 19.461-1.215-2.691 8.297Zm0 0"/><path fill="#33261b" d="m12.281 61.406 5.36-12.574 14.101 11.36Zm0 0"/><path fill="#202215" d="m181.559 256.79-4.95-20.372 12.133.586ZM140 221.898l7.008 15.606-25.801-7.453Zm0 0"/><path fill="#202215" d="m147.008 237.504-28.594 9.45 2.793-16.903ZM207.18 257.098l-13.664 20.164-11.957-20.473Zm0 0"/><path fill="#202215" d="m207.18 257.098-25.621-.309 7.183-19.785ZM219.328 249.992l.574-14.676 13.43 6.926Zm0 0"/><path fill="#202215" d="m232.426 264.07-13.098-14.078 14.004-7.75Zm0 0"/><path fill="#202215" d="m219.328 249.992 13.098 14.078-25.246-6.972ZM219.902 235.316l-.574 14.676-8.594-2.8Zm0 0"/><path fill="#202215" d="m219.328 249.992-12.148 7.106 3.554-9.907ZM254.605 143.914 225.72 130.23l16.61-19.062ZM136.43 312.367l7.945 27.625-28.816-3.86Zm0 0"/><path fill="#202215" d="m126.918 307.46 9.512 4.907-20.871 23.766Zm0 0"/><path fill="#202215" d="m136.43 312.367-9.512-4.906 7.445-13.086ZM166.254 384l-11.7-21.633 33.098 2.844ZM154.555 362.367l9.386-18.05 23.711 20.894ZM163.941 344.316l-19.566-4.324 16.84-33.187ZM154.555 362.367l-10.18-22.375 19.566 4.324ZM193.516 277.262l-45.047-5.645 33.09-14.828Zm0 0"/><path fill="#202215" d="m148.469 271.617 45.047 5.645-32.301 29.543ZM123.516 278.418l-12.332-12.023 7.23-19.442ZM111.184 266.395l12.332 12.023-20.524 2.879ZM314.113 384.047l-39.425-.05 22.234-16.282ZM328.64 366.238l-7.464-14.957 22.012-.066Zm0 0"/><path fill="#ded684" d="m328.64 366.238 22.766-4.875L338.117 384Zm0 0"/><path fill="#202215" d="m351.406 361.363-22.765 4.875 14.546-15.023Zm0 0"/><path fill="#ded684" d="m314.113 384.047 14.528-17.809L338.117 384Zm0 0"/><path fill="#dbd382" d="m321.176 351.281 7.465 14.957-31.72 1.477Zm0 0"/><path fill="#ded684" d="m328.64 366.238-14.527 17.809-17.191-16.332Zm0 0"/><path fill="#202215" d="m357.172 278.969 2.812 15.234-10.945-6.113Zm0 0"/><path fill="#202215" d="m359.984 294.203-2.812-15.234 9.125 10.386ZM371.105 299.184l-11.12-4.98 6.312-4.849Zm0 0"/><path fill="#ded684" d="m366.453 310.918-6.469-16.715 11.121 4.98Zm0 0"/><path fill="#202215" d="m324.328 322.164 17.817-1.586-8.45 15.988Zm0 0"/><path fill="#202215" d="m318.273 335.7 6.055-13.536 9.367 14.402ZM324.328 322.164l-27.523-12.8 21.976-2.36Zm0 0"/><path fill="#202215" d="m324.328 322.164-6.055 13.535-21.468-26.336Zm0 0"/><path fill="#ded684" d="m350.508 309.703 15.945 1.215-6.66 19.738Zm0 0"/><path fill="#ded684" d="m342.145 320.578 8.363-10.875 9.285 20.953ZM359.984 294.203l-9.476 15.5-1.469-21.613ZM350.508 309.703l9.476-15.5 6.47 16.715ZM245.543 251.824l-12.211-9.582 16.336-14.789Zm0 0"/><path fill="#202215" d="m233.332 242.242 12.211 9.582-13.117 12.246Zm0 0"/><path fill="#ded684" d="m165.281 87.66 3.45-2.5 26.277 16.059Zm0 0"/><path fill="#ded684" d="m160.715 104.934 4.566-17.274 29.727 13.559Zm0 0"/><path fill="#ddd584" d="m162.398 63.121 2.883 24.54-26.172-1.263Zm0 0"/><path fill="#ded684" d="m168.73 85.16-3.449 2.5-2.883-24.539Zm0 0"/><path fill="#dfd685" d="m139.11 86.398 26.171 1.262-4.566 17.274Zm0 0"/><path fill="#202215" d="M147.008 237.504 140 221.898l21.723 1.372ZM147.008 237.504l1.46 34.113-30.054-24.664Zm0 0"/><path fill="#cac278" d="m127.852 192.637 3.55-13.574 7.243 21.93Zm0 0"/><path fill="#202215" d="m105.36 191.945 22.492.692.57 20.547Zm0 0"/><path fill="#706d43" d="m127.852 192.637-22.493-.692 26.043-12.882Zm0 0"/><path fill="#252517" d="m127.852 192.637 10.793 8.355-10.223 12.192Zm0 0"/><path fill="#202215" d="m260.758 207.477-25.305-8.172 12.824-22.34Zm0 0"/><path fill="#963c3b" d="m313.7 22.238 25.738-.43L321.3 44.614Zm0 0"/><path fill="#dfd583" d="m339.438 21.809-25.739.43 25.32-4.973Zm0 0"/><path fill="#963c3b" d="m362.348 33.54-22.91-11.731 20.652-5.22Zm0 0"/><path fill="#dfd684" d="m339.438 21.809-.418-4.543 21.07-.676Zm0 0"/><path fill="#953b3b" d="m339.438 21.809 22.91 11.73-17.375 17.938ZM321.3 44.613l18.137-22.804 5.536 29.668Zm0 0"/><path fill="#202215" d="m161.215 306.805-24.785 5.562-2.067-17.992ZM136.43 312.367l24.785-5.562-16.84 33.187ZM148.469 271.617l-24.953 6.801-5.102-31.465Zm0 0"/><path fill="#ded684" d="m350.508 309.703-18.738.45 17.27-22.063ZM331.77 310.152l-6.696-19.054 23.965-3.008Zm0 0"/><path fill="#ded684" d="m325.074 291.098 6.696 19.054-12.989-3.148Zm0 0"/><path fill="#202215" d="m331.77 310.152-7.442 12.012-5.547-15.16ZM324.328 322.164l7.442-12.012 10.375 10.426Zm0 0"/><path fill="#ddd584" d="m331.77 310.152 18.738-.449-8.363 10.875Zm0 0"/><path fill="#ded684" d="m157.77 251.04-10.762-13.536 14.715-14.234Zm0 0"/><path fill="#202215" d="m157.77 251.04-9.301 20.577-1.461-34.113ZM176.61 236.418l-18.84 14.621 3.953-27.77Zm0 0"/><path fill="#202215" d="m157.77 251.04 23.789 5.75-33.09 14.827Zm0 0"/><path fill="#202215" d="m181.559 256.79-23.79-5.75 18.84-14.622ZM231.957 160.031l-6.238-29.8 28.886 13.683Zm0 0"/><path fill="#ded684" d="m225.719 130.23 6.238 29.801-19.723-3.93ZM231.957 160.031l-14.07 24.117-5.653-28.046Zm0 0"/><path fill="#202215" d="m217.887 184.148 30.39-7.183-12.824 22.34Zm0 0"/><path fill="#202215" d="m231.957 160.031 16.32 16.934-30.39 7.183Zm0 0"/><path fill="#202215" d="m248.277 176.965-16.32-16.934 22.648-16.117Zm0 0"/></svg>