<svg xmlns="http://www.w3.org/2000/svg" width="512" height="512" viewBox="0 0 384 384"><path fill="#fed13a" d="m119.258 104.438-17.418.687L111.87 86.48Zm0 0"/><path fill="#081d3b" d="m188.2 363.496 4.175 20.516-14.602-18.074Zm0 0"/><path fill="#fecc26" d="m254.504-.074 129.559.18-73.34-.102Zm0 0"/><path fill="#091d3b" d="m303.926 138.637 8.36-24.102 13.628 16.395Zm0 0"/><path fill="#081d3b" d="m119.258 104.438-2.988 18.894-14.43-18.207ZM192.375 384.012l-15.312-.008.71-18.067Zm0 0"/><path fill="#fec300" d="m188.2 363.496-3.196-26.926 44.793-3.687Zm0 0"/><path fill="#fec405" d="m0 191.395 27.813-36.54 6.226 17.329Zm0 0"/><path fill="#ddbf58" d="m261.918 68.219-15.406-9.492 24.238 3.277Zm0 0"/><path fill="#081d3c" d="m246.512 58.727 10.398-23.875 13.84 27.152Zm0 0"/><path fill="#eec848" d="m247.383 71.336-.871-12.61 15.406 9.493Zm0 0"/><path fill="#565229" d="m316.406 154.906-12.48-16.27 21.988-7.706Zm0 0"/><path fill="#d6a80a" d="m112.2 154.012 33.878 18.039-24.922 13.539Zm0 0"/><path fill="#081d3c" d="m87.688 134.926 28.582-11.594-4.07 30.68Zm0 0"/><path fill="#e8b507" d="m44.29 198.023 35.01-.925-23.308 24.43Zm0 0"/><path fill="#72756c" d="m93.121 160.71-15.887 21.067-12.25-9.722Zm0 0"/><path fill="#fdf0c6" d="m180.145 167.84-9.762-26.988 27.137.402Zm0 0"/><path fill="#081d3b" d="m225.742 295.73-2.87 3.57-27.477-20.288Zm0 0"/><path fill="#081d3b" d="m222.871 299.3-24.121-1.8-3.355-18.488Zm0 0"/><path fill="#fdc301" d="m185.004 336.57 13.746-39.07 31.047 35.383Zm0 0"/><path fill="#081d3b" d="m198.75 297.5 24.121 1.8 6.926 33.583ZM177.773 365.938l7.23-29.368 3.196 26.926Zm0 0"/><path fill="#fcc407" d="m115.383 364.926-17.473 19.07 8.309-21.469Zm0 0"/><path fill="#f1bb05" d="m188.2 363.496 27.34 9.192-23.165 11.324Zm0 0"/><path fill="#fac101" d="m215.54 372.688-27.34-9.192 41.597-30.613Zm0 0"/><path fill="#daab08" d="m252.586 360.227-37.047 12.46 14.258-39.804Zm0 0"/><path fill="#fec300" d="m215.54 372.688 37.046-12.461-4.664 23.765Zm0 0"/><path fill="#091d3b" d="m211.008 188.172 2.734 18.16-11.02-14.394Zm0 0"/><path fill="#081d3b" d="m213.742 206.332 24.36-5.45 2.894 17.9Zm0 0"/><path fill="#081d3b" d="m213.742 206.332-2.734-18.16 27.094 12.71Zm0 0"/><path fill="#f2bb03" d="m238.102 200.883 15.164 15.484-12.27 2.414Zm0 0"/><path fill="#fed13c" d="M136.02 32.305 155.137.027l1.785 34.41Zm0 0"/><path fill="#feca1c" d="M155.137.027 136.02 32.305 96.426 22.19Zm0 0"/><path fill="#fec506" d="m198.21 25.785 29.638 17.137-31.547 6.012Zm0 0"/><path fill="#fec401" d="m178.793 48.898 19.418-23.113-1.91 23.149Zm0 0"/><path fill="#081d3b" d="m153.988 49.98 13.012.84-11.727 10.864Zm0 0"/><path fill="#fec710" d="M153.988 49.98 136.02 32.305l20.902 2.133Zm0 0"/><path fill="#081d3c" d="m167.55 102.586 7.825 13.531-19.562 8.492Zm0 0"/><path fill="#081d3c" d="m136.672 104.777 30.879-2.191-11.738 22.023Zm0 0"/><path fill="#fecb1f" d="m136.672 104.777-.45-13.445 31.329 11.254Zm0 0"/><path fill="#fec401" d="M61.484 9.46 155.137.028 96.426 22.191Zm0 0"/><path fill="#b49112" d="M155.137.027 61.484 9.461.004.016Zm0 0"/><path fill="#fec710" d="m15.977 32.645-15.98-.422L.003.016Zm0 0"/><path fill="#081d3b" d="m35.344 47.047-16.899-4.149 14.133-4.347Zm0 0"/><path fill="#fec402" d="m18.445 42.898-2.468-10.253 16.601 5.906Zm0 0"/><path fill="#fbdf83" d="m80.309 104.664-.48-15.125 22.01 15.586Zm0 0"/><path fill="#fece2e" d="M101.84 105.125 79.828 89.539l32.043-3.059Zm0 0"/><path fill="#fef4d5" d="m79.828 89.54 1.742-11.282 30.301 8.222Zm0 0"/><path fill="#fdd960" d="m81.57 78.258 24.305-14.735 5.996 22.957Zm0 0"/><path fill="#fec60a" d="m.008 142.129 27.805 12.726L0 191.395Zm0 0"/><path fill="#fec300" d="M44.29 198.023 0 191.395l34.04-19.211Zm0 0"/><path fill="#081d3b" d="m256.91 34.852 35.953-9.414-22.113 36.566Zm0 0"/><path fill="#081d3c" d="m292.863 25.438 14.989 23.582-37.102 12.984ZM259.992 82.453l18.676-10.906-1.523 30.078ZM223.598 112.96l-23.274-5.534 6.715-9.555Zm0 0"/><path fill="#081d3c" d="m175.375 116.117 24.95-8.691-7.731 10.617Zm0 0"/><path fill="#12243b" d="m284.098 125.035 28.187-10.5-8.36 24.102Zm0 0"/><path fill="#081d3b" d="m277.145 101.625 6.953 23.41-34.86 20.383ZM312.285 114.535l-28.187 10.5-6.953-23.41Zm0 0"/><path fill="#081d3c" d="m259.992 82.453-12.61-11.117 14.536-3.117Zm0 0"/><path fill="#fece2e" d="M292.863 25.438 254.503-.075l56.22.078Zm0 0"/><path fill="#fec711" d="m254.504-.074 38.36 25.512-35.954 9.414Zm0 0"/><path fill="#081d3c" d="m227.848 42.922 7.386-3.734 11.278 19.539Zm0 0"/><path fill="#081d3b" d="m361.594 47.18 22.414-25.41v38.035Zm0 0"/><path fill="#363f3b" d="m348.848 108.523 15.25 13.332-38.184 9.075Zm0 0"/><path fill="#ad8e1b" d="m356.266 191.672-6.907-48.664 34.664-1.031Zm0 0"/><path fill="#7a6a20" d="m349.36 143.008 6.906 48.664-20.746-16.59Zm0 0"/><path fill="#0a1e3b" d="m316.406 154.906 32.953-11.898-13.84 32.074Zm0 0"/><path fill="#132439" d="m364.098 121.855-14.739 21.153-23.445-12.078Zm0 0"/><path fill="#1d2b36" d="m349.36 143.008-32.954 11.898 9.508-23.976Zm0 0"/><path fill="#0e213a" d="m312.016 254.422-9.914-31.086 32.503 4.262Zm0 0"/><path fill="#303832" d="m302.102 223.336 9.914 31.086-27.77-8.469Zm0 0"/><path fill="#b89517" d="m356.266 191.672-23.727 9.508 2.98-26.098Zm0 0"/><path fill="#ac8d18" d="m332.54 201.18 23.726-9.508-21.66 35.926Zm0 0"/><path fill="#122339" d="m302.102 223.336 30.437-22.156 2.066 26.418Zm0 0"/><path fill="#091e3b" d="m332.54 201.18-30.438 22.156.527-21.164Zm0 0"/><path fill="#fdc817" d="m384.04 202.59-27.774-10.918 27.757-49.695Zm0 0"/><path fill="#0a1e3b" d="m93.121 160.71 19.078-6.698 8.957 31.578Zm0 0"/><path fill="#747770" d="m87.688 134.926 5.433 25.785-28.137 11.344Zm0 0"/><path fill="#081d3c" d="m116.27 123.332-28.582 11.594 14.152-29.801Zm0 0"/><path fill="#081d3c" d="m87.688 134.926-7.38-30.262 21.532.461Zm0 0"/><path fill="#e6b50b" d="m64.984 172.055 12.25 9.722-32.945 16.246Zm0 0"/><path fill="#e7b409" d="m77.234 181.777 2.067 15.32-35.012.926Zm0 0"/><path fill="#fdf7e1" d="m173.762 201.148-19.637-35.332 26.02 2.024Zm0 0"/><path fill="#fee286" d="m154.125 165.816 16.258-24.964 9.762 26.988Zm0 0"/><path fill="#deb219" d="m154.125 165.816 19.637 35.332-27.684-29.097Zm0 0"/><path fill="#fde698" d="m210.078 162.379-29.933 5.46 17.375-26.585Zm0 0"/><path fill="#fef1c6" d="m210.078 162.379-7.355 29.559-22.578-24.098Zm0 0"/><path fill="#fec404" d="m97.91 383.996-8.41-29.414 16.719 7.945Zm0 0"/><path fill="#fec301" d="M41.738 383.996 89.5 354.582l8.41 29.414Zm0 0"/><path fill="#fec508" d="M112.953 352.496 89.5 354.582l12.887-21.363Zm0 0"/><path fill="#091e3b" d="m112.953 352.496 4.164-17.605 5.926 18.379Zm0 0"/><path fill="#fec60b" d="m79.316 277.398 13.555 27.684-31.812 19.281Zm0 0"/><path fill="#fec300" d="m0 326.09 61.059-1.727-19.32 59.633Zm0 0"/><path fill="#fdc301" d="M61.059 324.363 89.5 354.582l-47.762 29.414Zm0 0"/><path fill="#fec403" d="m89.5 354.582-28.441-30.219 41.328 8.856Zm0 0"/><path fill="#fec300" d="m39.586 275.633 39.73 1.765-18.257 46.965Zm0 0"/><path fill="#fec400" d="m0 326.09 39.586-50.457 21.473 48.73Zm0 0"/><path fill="#fec300" d="M0 254.625v-63.23l32.43 41.87Zm0 0"/><path fill="#fec402" d="M39.586 275.633 0 326.09v-71.465Zm0 0"/><path fill="#081d3b" d="m166.469 335.59 32.281-38.09-13.746 39.07ZM153.008 384l24.765-18.062-.71 18.066Zm0 0"/><path fill="#fcc202" d="m112.953 352.496 2.43 12.43-9.164-2.399Zm0 0"/><path fill="#081d3b" d="m115.383 364.926-2.43-12.43 10.09.774Zm0 0"/><path fill="#fcc201" d="m89.5 354.582 23.453-2.086-6.734 10.031Zm0 0"/><path fill="#fcc202" d="M115.383 364.926 118.55 384l-20.64-.004Zm0 0"/><path fill="#fec400" d="m112.953 352.496-10.566-19.277 14.73 1.672Zm0 0"/><path fill="#fcc202" d="m215.54 372.688.972 11.312-24.137.012Zm0 0"/><path fill="#fbc101" d="m216.512 384-.973-11.312 32.383 11.304Zm0 0"/><path fill="#2a3434" d="m278.8 216.05 23.302 7.286-17.856 22.617Zm0 0"/><path fill="#655c26" d="M302.102 223.336 278.8 216.05l23.828-13.88Zm0 0"/><path fill="#5a5428" d="M302.629 202.172 278.8 216.05l5.972-29.953Zm0 0"/><path fill="#0d203a" d="m312.016 254.422-4.95 7.871-22.82-16.34Zm0 0"/><path fill="#fed034" d="m155.137.027 14.3 36.567-12.515-2.157Zm0 0"/><path fill="#fec506" d="m169.438 36.594-15.45 13.386 2.934-15.542Zm0 0"/><path fill="#fec401" d="m153.988 49.98 15.45-13.386L167 50.82Zm0 0"/><path fill="#fecc26" d="m198.21 25.785-28.773 10.809-14.3-36.567Zm0 0"/><path fill="#fec400" d="m167 50.82 2.438-14.226 9.355 12.304Zm0 0"/><path fill="#fec507" d="m169.438 36.594 28.773-10.809-19.418 23.113Zm0 0"/><path fill="#081d3c" d="M178.453 57.918 167 50.82l11.793-1.922Zm0 0"/><path fill="#fec404" d="M136.02 32.305 110.332 44.68 96.426 22.19Zm0 0"/><path fill="#fdf0c3" d="m170.383 140.852 4.992-24.735 17.219 1.926Zm0 0"/><path fill="#fef5d5" d="m175.375 116.117-4.992 24.735-14.57-16.243Zm0 0"/><path fill="#081d3b" d="m136.672 104.777-3.324 27.91-17.078-9.355Zm0 0"/><path fill="#081d3c" d="m116.27 123.332 17.078 9.356-21.149 21.324ZM133.348 132.688l2.328 16.085-23.477 5.239ZM133.348 132.688l3.324-27.91 19.14 19.831Zm0 0"/><path fill="#081d3b" d="m119.258 104.438 17.414.34-20.402 18.554Zm0 0"/><path fill="#fec918" d="m119.258 104.438 16.965-13.106.449 13.445Zm0 0"/><path fill="#fecb1f" d="m.004.016 38.492 26.328-22.52 6.3Zm0 0"/><path fill="#fec300" d="M61.484 9.46 38.496 26.345.004.016Zm0 0"/><path fill="#fed240" d="M30.043 71.293 19.32 82.598.008 62.023Zm0 0"/><path fill="#feca1b" d="m.008 142.129 21.16-32.457-.633 27.312Zm0 0"/><path fill="#081d3b" d="M40.953 87.156 19.32 82.598l10.723-11.305Zm0 0"/><path fill="#081d3c" d="m36.488 99.07-15.32 10.602-1.848-27.074Zm0 0"/><path fill="#081d3c" d="M40.953 87.156 36.488 99.07 19.32 82.598Zm0 0"/><path fill="#fed755" d="m36.488 99.07 4.465-11.914 4.305 13.442Zm0 0"/><path fill="#fec400" d="M15.977 32.645.03 46.715l-.035-14.492Zm0 0"/><path fill="#fcc201" d="m112.23 242.469-.171 19.07-18.325-2.863Zm0 0"/><path fill="#10223b" d="m112.23 242.469-9.558-12.516 16.406 7.742Zm0 0"/><path fill="#fdc200" d="m102.672 229.953 9.558 12.516-18.496 16.207Zm0 0"/><path fill="#091d3b" d="m146.152 192.11 13.016 5.94-15.508 7.99Zm0 0"/><path fill="#081d3b" d="m159.168 198.05-2.36 12.016-13.148-4.027Zm0 0"/><path fill="#0b1f3b" d="m90.676 193.734 20.383 27.258-18.93-9.898Zm0 0"/><path fill="#fbc203" d="m90.676 193.734 31.855 23.512-11.472 3.746Zm0 0"/><path fill="#313932" d="m121.156 185.59 1.375 31.656-31.855-23.512Zm0 0"/><path fill="#424532" d="m121.156 185.59-30.48 8.144-13.442-11.957Zm0 0"/><path fill="#c1ac5e" d="m93.121 160.71 28.035 24.88-43.922-3.813Zm0 0"/><path fill="#f8c10b" d="m221.352 235.605-7.61-29.273 27.254 12.45Zm0 0"/><path fill="#0b1f3b" d="m213.742 206.332-6.34 5.684-4.68-20.078Zm0 0"/><path fill="#081d3b" d="m221.352 235.605-13.95-23.59 6.34-5.683Zm0 0"/><path fill="#fed95e" d="m207.402 212.016 13.95 23.59-19.215-10.106Zm0 0"/><path fill="#fed13a" d="m202.723 191.938-28.961 9.21 6.383-33.308Zm0 0"/><path fill="#091e3b" d="m159.168 198.05-13.016-5.94-.074-20.06Zm0 0"/><path fill="#f3bd05" d="m159.168 198.05-13.09-26 27.684 29.098Zm0 0"/><path fill="#f7bf06" d="m77.14 223.477 2.16-26.38 12.829 13.997Zm0 0"/><path fill="#ecb80a" d="m102.672 229.953-25.531-6.476 14.988-12.383Zm0 0"/><path fill="#e7b508" d="m79.3 197.098-2.16 26.379-21.148-1.95Zm0 0"/><path fill="#e5b206" d="m77.14 223.477-9.64 25.832-11.508-27.782Zm0 0"/><path fill="#f4bd03" d="m67.5 249.309 35.172-19.356-8.938 28.723Zm0 0"/><path fill="#e7b407" d="m67.5 249.309 9.64-25.832 25.532 6.476Zm0 0"/><path fill="#fdc301" d="m32.43 233.266 11.86-35.243 11.702 23.504Zm0 0"/><path fill="#fdc300" d="m44.29 198.023-11.86 35.243L0 191.395Zm0 0"/><path fill="#fec300" d="m67.5 249.309-35.07-16.043 23.562-11.739Zm0 0"/><path fill="#f0ba03" d="m34.04 172.184 30.944-.13-20.695 25.97Zm0 0"/><path fill="#af9531" d="m44.758 145.344 24.012-24.121-3.786 50.832Zm0 0"/><path fill="#f8c51b" d="m44.758 145.344-9.746-23.18 10.672.422Zm0 0"/><path fill="#ecc029" d="m68.77 121.223-24.012 24.12.926-22.757Zm0 0"/><path fill="#10233c" d="m44.758 145.344-11.707-6.356 1.96-16.824Zm0 0"/><path fill="#f5bd03" d="m34.04 172.184-6.227-17.329 16.945-9.511Zm0 0"/><path fill="#d1a50f" d="m27.813 154.855 5.238-15.867 11.707 6.356Zm0 0"/><path fill="#132439" d="m33.05 138.988-5.237 15.867-7.278-17.87Zm0 0"/><path fill="#2e3732" d="m278.8 216.05-16.808-34.534 22.781 4.582Zm0 0"/><path fill="#091d3b" d="m261.992 181.516 16.809 34.535-25.535.316Zm0 0"/><path fill="#192838" d="m277.863 147.64 6.235-22.605 19.828 13.602Zm0 0"/><path fill="#343a31" d="m284.098 125.035-6.235 22.606-28.625-2.223Zm0 0"/><path fill="#081d3c" d="m242.973 81.035 17.02 1.418-11.75 17.996Zm0 0"/><path fill="#081d3c" d="m259.992 82.453-17.02-1.418 4.41-9.7Zm0 0"/><path fill="#545d63" d="m220.426 68.715 7.422-25.793 18.664 15.805Zm0 0"/><path fill="#f7c728" d="m247.383 71.336-26.957-2.621 26.086-9.988Zm0 0"/><path fill="#081d3c" d="m242.973 81.035-22.547-12.32 26.957 2.62Zm0 0"/><path fill="#fec919" d="m254.504-.074-56.293 25.86L155.137.026Zm0 0"/><path fill="#fec402" d="m198.21 25.785 37.024 13.403-7.386 3.734Zm0 0"/><path fill="#fec507" d="m384.008 21.77-21.66-5.676L384.062.105Zm0 0"/><path fill="#fec404" d="M362.348 16.094 347.66 6.012 384.062.105Zm0 0"/><path fill="#fec70f" d="m347.66 6.012 14.688 10.082-16.407 3.36Zm0 0"/><path fill="#081d3b" d="m362.348 16.094-.754 31.086-15.653-27.727ZM361.594 47.18l.754-31.086 21.66 5.676Zm0 0"/><path fill="#fbd75e" d="m383.996 110.566-12.226-9.312 12.242-9.55Zm0 0"/><path fill="#081d3b" d="m312.285 114.535-35.14-12.91 35.199-24.715Zm0 0"/><path fill="#363d34" d="m312.285 114.535 36.563-6.012-22.934 22.407Zm0 0"/><path fill="#bda85a" d="m349.36 143.008 14.738-21.153 19.925 20.122Zm0 0"/><path fill="#081d3b" d="M348.848 108.523 312.344 76.91l47.472-1.43Zm0 0"/><path fill="#091e3c" d="m359.816 75.48 24.196 16.223-12.242 9.55Zm0 0"/><path fill="#091d3b" d="m348.848 108.523 10.968-33.043 11.954 25.774Zm0 0"/><path fill="#fbd34f" d="m384.023 141.977-19.925-20.122 19.898-11.289Zm0 0"/><path fill="#fcc305" d="m384 260.156-23.121-19.172 23.16-38.394Zm0 0"/><path fill="#fac61a" d="m384.04 202.59-23.161 38.394-4.613-49.312Zm0 0"/><path fill="#aa8e23" d="m356.266 191.672 4.613 49.312-26.274-13.386Zm0 0"/><path fill="#0c1f3a" d="m338.219 255.629-26.203-1.207 22.59-26.824Zm0 0"/><path fill="#837121" d="m360.879 240.984-22.66 14.645-3.614-28.031Zm0 0"/><path fill="#091d3b" d="m309.738 179.352 22.801 21.828-29.91.992Zm0 0"/><path fill="#746621" d="m309.738 179.352-7.11 22.82-17.855-16.074Zm0 0"/><path fill="#0a1e3b" d="m309.738 179.352 6.668-24.446 19.114 20.176ZM332.54 201.18l-22.802-21.828 25.782-4.27Zm0 0"/><path fill="#dcb738" d="m87.688 134.926 24.511 19.086-19.078 6.699Zm0 0"/><path fill="#b5a770" d="m68.77 121.223 18.918 13.703-22.704 37.129Zm0 0"/><path fill="#081d3b" d="m135.676 148.773 10.402 23.278-33.879-18.04Zm0 0"/><path fill="#feeebb" d="m197.52 141.254 6.597-19.082 11.52 14.914Zm0 0"/><path fill="#081d3b" d="m215.637 137.086-11.52-14.914 19.48-9.211Zm0 0"/><path fill="#feeebb" d="m204.117 122.172-6.597 19.082-4.926-23.211Zm0 0"/><path fill="#081d3c" d="m200.324 107.426 3.793 14.746-11.523-4.129Zm0 0"/><path fill="#081d3b" d="m204.117 122.172-3.793-14.746 23.274 5.535Zm0 0"/><path fill="#fdc300" d="m0 326.09 41.738 57.906L0 384Zm0 0"/><path fill="#f0ba04" d="m112.059 261.54-10.082 18.562-8.243-21.426Zm0 0"/><path fill="#fec300" d="M39.586 275.633 0 254.625l32.43-21.36Zm0 0"/><path fill="#fdc303" d="m67.5 249.309-27.914 26.324-7.156-42.367Zm0 0"/><path fill="#fec300" d="M39.586 275.633 67.5 249.309l11.816 28.09Zm0 0"/><path fill="#081d3b" d="m166.469 335.59-8.93-32.016 41.211-6.074Zm0 0"/><path fill="#081d3b" d="m157.54 303.574 37.855-24.562 3.355 18.488Zm0 0"/><path fill="#0e213a" d="m118.55 384 12.345-17.855L153.008 384Zm0 0"/><path fill="#081d3b" d="M130.895 366.145 118.55 384l-3.168-19.074Zm0 0"/><path fill="#fec402" d="m102.387 333.219 11.52-22.188 3.21 23.86Zm0 0"/><path fill="#fec300" d="m92.871 305.082 21.035 5.95-11.52 22.187Zm0 0"/><path fill="#fec60c" d="m102.387 333.219-41.328-8.856 31.812-19.281Zm0 0"/><path fill="#e2b107" d="m247.922 383.992 18.805-10.863 4.207 10.89Zm0 0"/><path fill="#c79e0d" d="m266.727 373.129-18.805 10.863 4.664-23.765Zm0 0"/><path fill="#081d3b" d="m266.43 338.582-13.844 21.645-22.79-27.344ZM266.43 338.582l.297 34.547-14.141-12.902Zm0 0"/><path fill="#081d3b" d="m266.727 373.129-.297-34.547 23.066 20.918Zm0 0"/><path fill="#fec400" d="m383.984 310.887.02 15.043-15.899-1.45Zm0 0"/><path fill="#081d3b" d="m358.168 337.758-10.68 27.625-28.222-23.719ZM347.488 365.383l10.68-27.625 7.043 22.535Zm0 0"/><path fill="#0b1f3b" d="m263.672 233.98 15.129-17.93 5.445 29.903Zm0 0"/><path fill="#0c1f3b" d="m278.8 216.05-15.128 17.93-10.406-17.613Zm0 0"/><path fill="#fac209" d="m360.902 271.133-.023-30.149L384 260.156Zm0 0"/><path fill="#8a751e" d="m360.902 271.133-22.683-15.504 22.66-14.645Zm0 0"/><path fill="#44452d" d="m347.34 287.656 13.562-16.523 23.07 36.289Zm0 0"/><path fill="#fec404" d="m347.34 287.656 36.633 19.766.011 3.465Zm0 0"/><path fill="#fac309" d="M360.902 271.133 384 260.156l-.027 47.266Zm0 0"/><path fill="#081d3c" d="m178.453 57.918.34-9.02 17.508.036Zm0 0"/><path fill="#081d3b" d="m178.453 57.918-23.18 3.766L167 50.82Zm0 0"/><path fill="#14263d" d="m155.273 61.684 23.18-3.766-3.793 7.742Zm0 0"/><path fill="#091e3c" d="m190.746 69.54-12.293-11.622 17.848-8.984Zm0 0"/><path fill="#fedd6f" d="m178.453 57.918 12.293 11.621-16.086-3.879Zm0 0"/><path fill="#081d3c" d="m227.848 42.922-7.422 25.793L196.3 48.934Zm0 0"/><path fill="#7b754a" d="m220.426 68.715-29.68.824 5.555-20.605Zm0 0"/><path fill="#081d3c" d="m190.746 69.54 29.68-.825L207.172 83.5Zm0 0"/><path fill="#081d3b" d="m231.61 87.547-8.012 25.414-16.559-15.09Zm0 0"/><path fill="#fbc511" d="m207.172 83.5 24.437 4.047-24.57 10.324Zm0 0"/><path fill="#081d3c" d="m220.426 68.715 11.183 18.832-24.437-4.047ZM167.55 102.586l32.774 4.84-24.949 8.691ZM167.55 102.586l39.49-4.715-6.716 9.555Zm0 0"/><path fill="#fec504" d="m153.988 49.98-18.175-.234.207-17.441Zm0 0"/><path fill="#fec300" d="m135.813 49.746-25.481-5.066 25.688-12.375Zm0 0"/><path fill="#081d3b" d="m135.813 49.746 18.175.234 1.285 11.704Zm0 0"/><path fill="#081d3c" d="m110.332 44.68 25.48 5.066-29.937 13.777Zm0 0"/><path fill="#081d3b" d="m136.613 63.285-.8-13.539 19.46 11.938ZM135.813 49.746l.8 13.54-30.738.237Zm0 0"/><path fill="#fdf4d4" d="m197.52 141.254-27.137-.402 22.21-22.809Zm0 0"/><path fill="#fee8a0" d="m154.125 165.816-8.379-20.593 24.637-4.371Zm0 0"/><path fill="#f3bd09" d="m146.078 172.05-.332-26.827 8.379 20.593Zm0 0"/><path fill="#fef4d5" d="m170.383 140.852-24.637 4.37 10.066-20.613Zm0 0"/><path fill="#081d3c" d="m145.746 145.223-12.398-12.536 22.464-8.078Zm0 0"/><path fill="#081d3c" d="m133.348 132.688 12.398 12.535-10.07 3.55Zm0 0"/><path fill="#081d3b" d="m145.746 145.223.332 26.828-10.402-23.278Zm0 0"/><path fill="#fed038" d="M136.613 63.285 111.871 86.48l-5.996-22.957Zm0 0"/><path fill="#fee591" d="m111.871 86.48 24.742-23.195-.39 28.047Zm0 0"/><path fill="#fed034" d="M119.258 104.438 111.87 86.48l24.352 4.852Zm0 0"/><path fill="#fec402" d="m15.977 32.645 22.52-6.301-5.919 12.207Zm0 0"/><path fill="#fec60c" d="M55.973 37.375 38.496 26.344 61.484 9.46Zm0 0"/><path fill="#fed037" d="m55.973 37.375 5.511-27.914 34.942 12.73Zm0 0"/><path fill="#fed344" d="m79.066 61.734 26.809 1.79L81.57 78.257Zm0 0"/><path fill="#fecb24" d="M21.168 109.672.008 142.129V62.023Zm0 0"/><path fill="#fbd145" d="m19.32 82.598 1.848 27.074L.008 62.023Zm0 0"/><path fill="#081d3b" d="m36.488 99.07-1.476 23.094-13.844-12.492ZM21.168 109.672l13.844 12.492-14.477 14.82ZM35.012 122.164l-1.961 16.824-12.516-2.004Zm0 0"/><path fill="#fdc407" d="m35.012 122.164 10.246-21.566.426 21.988Zm0 0"/><path fill="#52502e" d="m45.258 100.598-10.246 21.566 1.476-23.094Zm0 0"/><path fill="#fed755" d="m45.336 100.645 34.492-11.106.48 15.125Zm0 0"/><path fill="#fed139" d="m79.828 89.54-34.492 11.105-.078-.047Zm0 0"/><path fill="#263237" d="m45.258 100.598.078.047.348 21.94Zm0 0"/><path fill="#f4c424" d="m173.762 201.148-16.953 8.918 2.359-12.015Zm0 0"/><path fill="#091d3c" d="m102.672 229.953 8.387-8.96 8.02 16.702ZM111.059 220.992l-8.387 8.961-10.543-18.86Zm0 0"/><path fill="#081d3b" d="m156.809 210.066-19.82 23.625 6.671-27.652Zm0 0"/><path fill="#0e223b" d="m77.234 181.777 13.442 11.957-11.375 3.364Zm0 0"/><path fill="#0f223b" d="m79.3 197.098 11.376-3.364 1.453 17.36Zm0 0"/><path fill="#081d3b" d="m136.988 233.691-14.457-16.445 21.13-11.207ZM225.742 295.73l-12.91-28.906 20.914 5.387Zm0 0"/><path fill="#081d3b" d="m212.832 266.824 12.91 28.906-30.347-16.718ZM202.137 225.5l8.273 24.988-29.847-12.695ZM234.621 260.172l25.426 5.898-26.3 6.14Zm0 0"/><path fill="#081d3b" d="m212.832 266.824 21.79-6.652-.876 12.039Zm0 0"/><path fill="#fece2d" d="m207.402 212.016-11.68.78 7-20.858Zm0 0"/><path fill="#fde38c" d="m195.723 212.797-21.961-11.649 28.96-9.21Zm0 0"/><path fill="#fecd2b" d="m195.723 212.797 11.68-.781-5.266 13.484Zm0 0"/><path fill="#081d3b" d="m195.723 212.797 6.414 12.703-21.574 12.293Zm0 0"/><path fill="#f2bc04" d="m34.04 172.184 10.718-26.84 20.226 26.71Zm0 0"/><path fill="#fdc819" d="m20.535 136.984 7.278 17.871L.008 142.13Zm0 0"/><path fill="#081d3c" d="m312.344 76.91-35.2 24.715 1.524-30.078Zm0 0"/><path fill="#ab9f6c" d="m307.852 49.02-29.184 22.527-7.918-9.543Zm0 0"/><path fill="#57532d" d="m312.344 76.91-33.676-5.363 29.184-22.527Zm0 0"/><path fill="#b39423" d="m278.668 71.547-16.75-3.328 8.832-6.215Zm0 0"/><path fill="#081d3c" d="m278.668 71.547-18.676 10.906 1.926-14.234Zm0 0"/><path fill="#081d3b" d="m249.238 145.418-33.601-8.332 7.96-24.125ZM248.242 100.45l.996 44.968-25.64-32.457Zm0 0"/><path fill="#343b31" d="m249.238 145.418 28.625 2.223-15.87 33.875Zm0 0"/><path fill="#927b1c" d="m316.406 154.906-25.648 7.82 13.168-24.09Zm0 0"/><path fill="#0e213a" d="m290.758 162.727-12.895-15.086 26.063-9.004Zm0 0"/><path fill="#524f29" d="m309.738 179.352-18.98-16.625 25.648-7.82Zm0 0"/><path fill="#0d203a" d="m277.863 147.64 12.895 15.087-28.766 18.789Zm0 0"/><path fill="#202d36" d="m261.992 181.516 28.766-18.79-5.985 23.372Zm0 0"/><path fill="#997f18" d="m290.758 162.727 18.98 16.625-24.965 6.746Zm0 0"/><path fill="#081d3b" d="m246.512 58.727-11.278-19.54 21.676-4.335Zm0 0"/><path fill="#fec609" d="m235.234 39.188 19.27-39.262 2.406 34.926Zm0 0"/><path fill="#fecb21" d="m235.234 39.188-37.023-13.403 56.293-25.86Zm0 0"/><path fill="#c2ae61" d="m364.098 121.855 7.672-20.601 12.226 9.312Zm0 0"/><path fill="#5b5c45" d="m348.848 108.523 22.922-7.27-7.672 20.602Zm0 0"/><path fill="#081d3b" d="m312.285 114.535.059-37.625 36.504 31.613Zm0 0"/><path fill="#e1af07" d="m359.816 75.48-47.472 1.43 21.433-27.125Zm0 0"/><path fill="#3b3f30" d="m359.816 75.48-26.039-25.695 27.817-2.605Zm0 0"/><path fill="#081d3b" d="m333.777 49.785 12.164-30.332 15.653 27.727Zm0 0"/><path fill="#10223a" d="m359.816 75.48 1.778-28.3 22.414 12.625Zm0 0"/><path fill="#2c3533" d="m307.852 49.02 25.925.765-21.433 27.125Zm0 0"/><path fill="#081d3c" d="M87.688 134.926 68.77 121.223l11.539-16.559Zm0 0"/><path fill="#474a39" d="m45.336 100.645 23.434 20.578-23.086 1.363Zm0 0"/><path fill="#081d3c" d="m68.77 121.223-23.434-20.578 34.973 4.02Zm0 0"/><path fill="#f1bb04" d="m101.977 280.102-22.66-2.704 14.417-18.722Zm0 0"/><path fill="#f0ba05" d="M79.316 277.398 67.5 249.308l26.234 9.368Zm0 0"/><path fill="#081d3b" d="m130.895 366.145-15.512-1.22 7.66-11.655Zm0 0"/><path fill="#0b1f3b" d="m298.39 383.98-31.663-10.851 22.77-13.629Zm0 0"/><path fill="#081d3b" d="m222.871 299.3 25.356 18.16-18.43 15.423Zm0 0"/><path fill="#081d3b" d="m248.227 317.46 18.203 21.122-36.633-5.7ZM248.227 317.46 222.87 299.3l2.871-3.57Zm0 0"/><path fill="#f6be02" d="m266.43 338.582 18.043-20.992 5.023 41.91Zm0 0"/><path fill="#f9c002" d="m248.227 317.46 36.246.13-18.043 20.992Zm0 0"/><path fill="#081d3b" d="m372.902 383.988-25.414-18.605 17.723-5.09Zm0 0"/><path fill="#0a1e3b" d="m338.219 255.629-5.2 21.223-21.003-22.43Zm0 0"/><path fill="#fec711" d="m329.816 282.422 3.204-5.57 14.32 10.804Zm0 0"/><path fill="#182738" d="m333.02 276.852 27.882-5.72-13.562 16.524Zm0 0"/><path fill="#202e39" d="m360.902 271.133-27.882 5.719 5.199-21.223Zm0 0"/><path fill="#fcc303" d="m284.473 317.59 14.152 8.351-9.129 33.559Zm0 0"/><path fill="#081d3b" d="m298.625 325.941-14.152-8.351 13.902-14.875Zm0 0"/><path fill="#fdc304" d="m307.066 262.293-35.222-6.477 12.402-9.863Zm0 0"/><path fill="#fdc60c" d="m271.844 255.816-8.172-21.836 20.574 11.973Zm0 0"/><path fill="#0c203a" d="m263.672 233.98-15.344-7.917 4.938-9.696Zm0 0"/><path fill="#fdc302" d="m248.328 226.063-26.976 9.542 19.644-16.824Zm0 0"/><path fill="#353b31" d="m253.266 216.367-4.938 9.696-7.332-7.282Zm0 0"/><path fill="#fbc718" d="m307.066 262.293 25.954 14.559-3.204 5.57Zm0 0"/><path fill="#0c203a" d="m333.02 276.852-25.954-14.559 4.95-7.871Zm0 0"/><path fill="#fed857" d="m154.348 70.555-17.735-7.27 18.66-1.601Zm0 0"/><path fill="#fed95b" d="m154.348 70.555-18.125 20.777.39-28.047Zm0 0"/><path fill="#081d3b" d="m231.61 87.547 16.632 12.902-24.644 12.512Zm0 0"/><path fill="#fedb67" d="m154.348 70.555.925-8.871 19.387 3.976Zm0 0"/><path fill="#fbf2d4" d="M79.828 89.54 53.7 79.616l27.871-1.36Zm0 0"/><path fill="#fed85a" d="M40.953 87.156 53.7 79.617l-8.441 20.98Zm0 0"/><path fill="#fedb67" d="m53.7 79.617 26.128 9.922-34.57 11.059Zm0 0"/><path fill="#fee389" d="m53.7 79.617-12.747 7.54-10.91-15.864Zm0 0"/><path fill="#f7e29a" d="m55.43 62.984-25.387 8.309 1.875-11.836Zm0 0"/><path fill="#fed037" d="M55.43 62.984 53.7 79.617l-23.657-8.324Zm0 0"/><path fill="#fed54c" d="m53.7 79.617 1.73-16.633 26.14 15.274Zm0 0"/><path fill="#fec401" d="M55.973 37.375 42.762 39.34l-4.266-12.996Zm0 0"/><path fill="#081d3b" d="m42.762 39.34-7.418 7.707-2.766-8.496Zm0 0"/><path fill="#fec403" d="m38.496 26.344 4.266 12.996-10.184-.79Zm0 0"/><path fill="#fec400" d="m86.195 41.918-30.222-4.543 40.453-15.184Zm0 0"/><path fill="#fec402" d="m110.332 44.68-24.137-2.762 10.23-19.727Zm0 0"/><path fill="#081d3b" d="m55.973 37.375 30.222 4.543-31.906 8.246Zm0 0"/><path fill="#081d3c" d="m86.195 41.918-7.129 19.816-24.777-11.57Zm0 0"/><path fill="#081d3b" d="m86.195 41.918 24.137 2.762-4.457 18.843Zm0 0"/><path fill="#081d3c" d="m79.066 61.734 7.13-19.816 19.679 21.605Zm0 0"/><path fill="#fec402" d="m15.977 32.645 2.468 10.253L.031 46.715Zm0 0"/><path fill="#0a1e3b" d="M18.445 42.898.008 62.023.03 46.715Zm0 0"/><path fill="#ecbd1f" d="m167.8 213.938-10.991-3.872 16.953-8.918Zm0 0"/><path fill="#fed54a" d="m167.8 213.938 27.923-1.141-15.16 24.996Zm0 0"/><path fill="#fef0c3" d="m195.723 212.797-27.922 1.14 5.96-12.789Zm0 0"/><path fill="#f4be0a" d="m119.078 237.695-8.02-16.703 11.473-3.746Zm0 0"/><path fill="#081d3b" d="m210.41 250.488 12.27.946-9.848 15.39ZM222.68 251.434l11.941 8.738-21.789 6.652Zm0 0"/><path fill="#081d3c" d="m248.242 100.45 11.75-17.997 17.153 19.172Zm0 0"/><path fill="#081d3b" d="m248.242 100.45 28.903 1.175-27.907 43.793Zm0 0"/><path fill="#fdc611" d="m210.078 162.379.93 25.793-8.285 3.766Zm0 0"/><path fill="#fed341" d="M347.66 6.012 310.723.004l73.34.101Zm0 0"/><path fill="#0f223b" d="M384.012 91.703 359.816 75.48l24.192-15.675Zm0 0"/><path fill="#f7bf02" d="m108.223 295.957 5.683 15.074-21.035-5.949Zm0 0"/><path fill="#081d3b" d="m113.906 311.031-5.683-15.074 20.734 4.8Zm0 0"/><path fill="#fac001" d="m101.977 280.102 6.246 15.855-15.352 9.125Zm0 0"/><path fill="#081d3b" d="m121.613 278.477-13.39 17.48-6.246-15.855Zm0 0"/><path fill="#081d3b" d="m128.957 300.758-20.734-4.801 13.39-17.48Zm0 0"/><path fill="#f3bc02" d="m79.316 277.398 22.66 2.704-9.105 24.98Zm0 0"/><path fill="#081d3b" d="m117.117 334.89 27.328 3.415-21.402 14.965Zm0 0"/><path fill="#081d3b" d="m144.445 338.305-13.55 27.84-7.852-12.875ZM177.773 365.938 166.47 335.59l18.535.98Zm0 0"/><path fill="#091e3b" d="m266.727 373.129 31.664 10.851-27.457.04Zm0 0"/><path fill="#deaf0d" d="M312.102 359.574 298.39 383.98l-8.895-24.48Zm0 0"/><path fill="#e7b405" d="m312.102 359.574-13.477-33.633 20.64 15.723Zm0 0"/><path fill="#d3a60a" d="m298.625 325.941 13.477 33.633-22.606-.074Zm0 0"/><path fill="#deae07" d="m347.488 365.383-35.386-5.809 7.164-17.91Zm0 0"/><path fill="#fec300" d="m261.555 295.098-35.813.632 8.004-23.52Zm0 0"/><path fill="#f8bf01" d="m261.555 295.098-13.328 22.363-22.485-21.73Zm0 0"/><path fill="#081d3b" d="m260.047 266.07 1.508 29.028-27.809-22.887Zm0 0"/><path fill="#f6be02" d="m261.555 295.098 22.918 22.492-36.246-.13Zm0 0"/><path fill="#081d3b" d="m292.39 286.953-30.835 8.145-1.508-29.028ZM261.555 295.098l30.836-8.145 5.984 15.762Zm0 0"/><path fill="#081d3b" d="m284.473 317.59-22.918-22.492 36.82 7.617Zm0 0"/><path fill="#fec403" d="m384.004 325.93.008 29-15.907-30.45Zm0 0"/><path fill="#fec300" d="m384.012 354.93-25.844-17.172 9.937-13.278Zm0 0"/><path fill="#0a1e3b" d="m358.168 337.758 25.844 17.172-18.801 5.363Zm0 0"/><path fill="#0a1e3b" d="m384.012 354.93-11.11 29.058-7.691-23.695Zm0 0"/><path fill="#fdc304" d="m347.488 365.383.117 18.625-20.562-.008Zm0 0"/><path fill="#f5bd03" d="m347.605 384.008-.117-18.625 25.414 18.605Zm0 0"/><path fill="#fec400" d="m339.52 301.695 7.82-14.039 36.644 23.23Zm0 0"/><path fill="#fec400" d="m368.105 324.48-28.585-22.785 44.464 9.192Zm0 0"/><path fill="#091d3b" d="m338.102 321.273 20.066 16.485-38.902 3.906Zm0 0"/><path fill="#fec300" d="m338.102 321.273 30.003 3.207-9.937 13.278Zm0 0"/><path fill="#f2c017" d="m271.844 255.816 20.547 31.137-32.344-20.883Zm0 0"/><path fill="#fcc408" d="m292.39 286.953-20.546-31.137 35.222 6.477Zm0 0"/><path fill="#081d3b" d="m234.621 260.172 10.047-8.672 15.379 14.57Zm0 0"/><path fill="#f8bf02" d="m244.668 251.5 27.176 4.316-11.797 10.254Zm0 0"/><path fill="#fec505" d="m271.844 255.816-27.176-4.316 19.004-17.52Zm0 0"/><path fill="#fdc407" d="m244.668 251.5 3.66-25.437 15.344 7.917Zm0 0"/><path fill="#fec404" d="m316.074 291.871-9.008-29.578 22.75 20.129Zm0 0"/><path fill="#ebb80a" d="m292.39 286.953 23.684 4.918-17.699 10.844Zm0 0"/><path fill="#f9c104" d="m307.066 262.293 9.008 29.578-23.683-4.918Zm0 0"/><path fill="#081d3c" d="m242.973 81.035 5.27 19.414-16.634-12.902ZM242.973 81.035l-11.364 6.512-11.183-18.832Zm0 0"/><path fill="#feecad" d="m171.105 82.813 36.067.687-.133 14.371Zm0 0"/><path fill="#fed13b" d="m171.105 82.813-16.757-12.258 20.312-4.895Zm0 0"/><path fill="#feca1e" d="m190.746 69.54-19.64 13.272 3.554-17.152Zm0 0"/><path fill="#091e3c" d="m207.172 83.5-36.067-.687 19.641-13.274Zm0 0"/><path fill="#081d3b" d="M54.29 50.164 42.761 39.34l13.21-1.965Zm0 0"/><path fill="#081d3c" d="m54.29 50.164 1.14 12.82-23.512-3.527Zm0 0"/><path fill="#081d3c" d="m54.29 50.164-22.372 9.293 3.426-12.41Zm0 0"/><path fill="#081d3b" d="m42.762 39.34 11.527 10.824-18.945-3.117Zm0 0"/><path fill="#0b1f3e" d="m79.066 61.734-23.636 1.25-1.14-12.82Zm0 0"/><path fill="#fedf78" d="m55.43 62.984 23.636-1.25 2.504 16.524Zm0 0"/><path fill="#081d3b" d="m18.445 42.898 13.473 16.559-31.91 2.566Zm0 0"/><path fill="#fdd85e" d="m.008 62.023 31.91-2.566-1.875 11.836Zm0 0"/><path fill="#081d3b" d="M31.918 59.457 18.445 42.898l16.899 4.149ZM180.563 237.793l14.832 41.219-32.09-22.149ZM131.73 259.133l-19.671 2.406 7.02-23.844Zm0 0"/><path fill="#b39013" d="m119.078 237.695-7.02 23.844.172-19.07Zm0 0"/><path fill="#081d3b" d="m136.988 233.691-5.258 25.442-12.652-21.438Zm0 0"/><path fill="#081d3b" d="m136.988 233.691-17.91 4.004 3.453-20.449Zm0 0"/><path fill="#0c203a" d="m143.66 206.04-22.504-20.45 24.996 6.52Zm0 0"/><path fill="#40432e" d="m146.152 192.11-24.996-6.52 24.922-13.54Zm0 0"/><path fill="#081d3b" d="m210.41 250.488 2.422 16.336-32.27-29.031Zm0 0"/><path fill="#081d3b" d="m180.563 237.793 32.269 29.031-17.437 12.188ZM221.352 235.605l1.328 15.829-12.27-.946Zm0 0"/><path fill="#fed756" d="m221.352 235.605-10.942 14.883-8.273-24.988Zm0 0"/><path fill="#fcedbb" d="m215.637 137.086-5.559 25.293-12.558-21.125Zm0 0"/><path fill="#3f422e" d="m261.992 181.516-8.726 34.851-15.164-15.484Zm0 0"/><path fill="#273234" d="m261.992 181.516-30.883-4.078 18.13-32.02Zm0 0"/><path fill="#081d3b" d="m128.957 300.758 15.488 37.547-27.328-3.414Zm0 0"/><path fill="#fec300" d="m113.906 311.031 15.051-10.273-11.84 34.133Zm0 0"/><path fill="#081d3b" d="m153.008 384 13.46-48.41 11.305 30.348Zm0 0"/><path fill="#081d3b" d="m166.469 335.59-22.024 2.715 13.094-34.73ZM144.445 338.305 153.008 384l-22.113-17.855ZM153.008 384l-8.563-45.695 22.024-2.715Zm0 0"/><path fill="#0f223a" d="m121.613 278.477 24.746-2.329-17.402 24.61Zm0 0"/><path fill="#0a1e3b" d="m121.613 278.477-9.554-16.938 19.671-2.406Zm0 0"/><path fill="#091d3b" d="m112.059 261.54 9.554 16.937-19.636 1.625Zm0 0"/><path fill="#081d3b" d="m157.54 303.574-11.18-27.426 49.035 2.864Zm0 0"/><path fill="#081d3b" d="m146.36 276.148 11.18 27.426-28.583-2.816Zm0 0"/><path fill="#fdc303" d="m327.043 384-14.941-24.426 35.386 5.809Zm0 0"/><path fill="#bf9910" d="M312.102 359.574 327.043 384l-28.652-.02Zm0 0"/><path fill="#081d3b" d="m317.426 309.531 20.676 11.742-18.836 20.391Zm0 0"/><path fill="#2e3733" d="m298.625 325.941 18.8-16.41 1.84 32.133Zm0 0"/><path fill="#c39c10" d="m317.426 309.531-19.051-6.816 17.7-10.844Zm0 0"/><path fill="#b08f18" d="m317.426 309.531-18.801 16.41-.25-23.226Zm0 0"/><path fill="#fec402" d="m338.102 321.273 1.418-19.578 28.585 22.785Zm0 0"/><path fill="#fbc40d" d="m248.328 226.063-15.726 17.949-11.25-8.407Zm0 0"/><path fill="#fdc303" d="m244.668 251.5-12.066-7.488 15.726-17.95Zm0 0"/><path fill="#081d3b" d="m232.602 244.012-9.922 7.422-1.328-15.829ZM222.68 251.434l9.922-7.422 2.02 16.16Zm0 0"/><path fill="#0c1f3a" d="m232.602 244.012 12.066 7.488-10.047 8.672Zm0 0"/><path fill="#fed650" d="m167.55 102.586 3.555-19.773L207.04 97.87Zm0 0"/><path fill="#fee07c" d="m154.348 70.555 16.757 12.257-34.882 8.52Zm0 0"/><path fill="#fed858" d="m136.223 91.332 34.882-8.52-3.554 19.774Zm0 0"/><path fill="#081d3b" d="m142.508 232.918-5.52.773 19.82-23.625Zm0 0"/><path fill="#0a1e3b" d="m136.988 233.691 9.895 21.325-15.153 4.117Zm0 0"/><path fill="#e9b607" d="m142.508 232.918 4.375 22.098-9.895-21.325Zm0 0"/><path fill="#f8bf01" d="m122.531 217.246-1.375-31.656 22.504 20.45Zm0 0"/><path fill="#081d3b" d="m211.008 188.172 20.101-10.734 6.993 23.445Zm0 0"/><path fill="#3b3f2f" d="m231.11 177.438 30.882 4.078-23.89 19.367Zm0 0"/><path fill="#081d3b" d="m292.863 25.438 24.196-4.2-9.207 27.782Zm0 0"/><path fill="#fecc23" d="m317.059 21.238-24.196 4.2L310.723.003Zm0 0"/><path fill="#081d3b" d="M333.777 49.785 317.06 21.238l28.882-1.785Zm0 0"/><path fill="#fec916" d="M317.059 21.238 347.66 6.012l-1.719 13.441Zm0 0"/><path fill="#fec815" d="M317.059 21.238 310.723.004l36.937 6.008Zm0 0"/><path fill="#081d3c" d="m307.852 49.02 9.207-27.782 16.718 28.547Zm0 0"/><path fill="#081d3b" d="m128.957 300.758 28.582 2.816-13.094 34.73ZM146.36 276.148l-24.747 2.329 10.117-19.344Zm0 0"/><path fill="#fec404" d="m339.52 301.695-9.704-19.273 17.524 5.234Zm0 0"/><path fill="#fec401" d="m329.816 282.422 9.704 19.273-23.446-9.824Zm0 0"/><path fill="#f7be03" d="m339.52 301.695-22.094 7.836-1.352-17.66Zm0 0"/><path fill="#fdc303" d="m317.426 309.531 22.094-7.836-1.418 19.578Zm0 0"/><path fill="#fef6da" d="m157.902 233.703-15.394-.785 14.3-22.852Zm0 0"/><path fill="#fdcb24" d="m157.902 233.703-11.02 21.313-4.374-22.098Zm0 0"/><path fill="#fed13e" d="m167.8 213.938-9.898 19.765-1.093-23.637Zm0 0"/><path fill="#081d3b" d="m146.883 255.016 11.02-21.313 5.402 23.16Zm0 0"/><path fill="#091d3b" d="m157.902 233.703 22.66 4.09-17.257 19.07Zm0 0"/><path fill="#081d3b" d="m180.563 237.793-22.66-4.09 9.898-19.766Zm0 0"/><path fill="#f8c313" d="m219.852 164.207-8.844 23.965-.93-25.793Zm0 0"/><path fill="#081d3b" d="m219.852 164.207 11.257 13.23-20.101 10.735ZM219.852 164.207l-4.215-27.121 33.601 8.332Zm0 0"/><path fill="#f9c30e" d="m215.637 137.086 4.215 27.121-9.774-1.828Zm0 0"/><path fill="#081d3b" d="m195.395 279.012-49.036-2.864 16.946-19.285Zm0 0"/><path fill="#081d3b" d="m146.36 276.148.523-21.132 16.422 1.847Zm0 0"/><path fill="#091d3b" d="m146.883 255.016-.524 21.132-14.629-17.015Zm0 0"/><path fill="#081d3b" d="m231.11 177.438-11.258-13.231 29.386-18.789Zm0 0"/></svg>