<svg xmlns="http://www.w3.org/2000/svg" width="512" height="512" viewBox="0 0 384 384"><path fill="#201533" d="m177.418 200.488 6.207-29.117 6.621 30.688Zm0 0"/><path fill="#fefefe" d="m206.926 351.375-15.621 32.613-3.707-24.281ZM0 65l36.57 20.098-22.488 9.218ZM384 0v82.902l-16.664-15.84Zm0 0"/><path fill="#201533" d="m311.484 143.215.54-36.805 25.925 19.082Zm0 0"/><path fill="#fefefe" d="m158.031 168.766 25.594 2.605-6.207 29.117Zm0 0"/><path fill="#201533" d="m191.305 383.988-20.61.012 16.903-24.293Zm0 0"/><path fill="#ecebed" d="m150.145 176.863 7.886-8.097 19.387 31.722Zm0 0"/><path fill="#fefefe" d="m35.523 167.898 9.778 33.145L0 162.238ZM0 106.465V65l14.082 29.316ZM301.73 24.602 272.543 0h47.68Zm0 0"/><path fill="#322e4d" d="m240.371 37.195 36.754-6.445-7.562 27.3Zm0 0"/><path fill="#63627a" d="m237.098 64.625 3.273-27.43 29.191 20.856Zm0 0"/><path fill="#6f6a7f" d="m365.86 169.2.777 45.097-29.465-44.207Zm0 0"/><path fill="#201533" d="m118.504 149.559 17.777 22.328-8.312 5.972ZM89.805 138.04l21.21-16.263 7.489 27.782Zm0 0"/><path fill="#fafafb" d="m93.148 156.082-13.91 9.973-.355-17.89Zm0 0"/><path fill="#fefefe" d="m83.375 183.66-4.137-17.605 14.969 15.52Zm0 0"/><path fill="#4e465d" d="m79.238 166.055 13.91-9.973 1.059 25.492Zm0 0"/><path fill="#fdfdfd" d="m183.625 171.371-10.926-16.305 21.563-1.562Zm0 0"/><path fill="#fefefe" d="m206.926 351.375-4.848-25.262 35.692 9.657ZM202.078 326.113l9.156-21.93 26.536 31.587ZM110.828 357.09l7.45 26.91H71.956ZM206.926 351.375l19.847 12.73-35.468 19.883Zm0 0"/><path fill="#fefefe" d="m226.773 364.105-19.847-12.73 30.844-15.605ZM257.129 359.73l-30.356 4.375 10.997-28.335Zm0 0"/><path fill="#fefefe" d="m226.773 364.105 30.356-4.375L235.137 384Zm0 0"/><path fill="#201533" d="m231.133 189.645-16.113 17.98-5.215-1.852Zm0 0"/><path fill="#201533" d="m215.02 207.625 16.113-17.98 5.566 27.855Zm0 0"/><path fill="#201533" d="m231.133 189.645 21.87 27.52-16.304.335Zm0 0"/><path fill="#fefefe" d="M82.246 0h75.16l-19.855 55.441ZM82.246 0 58.04 41.453 0 0Zm0 0"/><path fill="#fefefe" d="M58.04 41.453 82.245 0l55.305 55.441Zm0 0"/><path fill="#201533" d="m158.074 105.012 13.797 12.336-16.789 10.91Zm0 0"/><path fill="#201533" d="m137.246 116.914 20.828-11.902-2.992 23.246Zm0 0"/><path fill="#201533" d="m137.246 116.914-.586-15.59 21.414 3.688Zm0 0"/><path fill="#fefefe" d="M16.164 53.137 0 65V0Zm0 0"/><path fill="#fff" d="M58.04 41.453 16.163 53.137 0 0Zm0 0"/><path fill="#fefefe" d="m76.633 103.133 1.117-34.875 31.09 35.605Zm0 0"/><path fill="#fefefe" d="M108.84 103.863 77.75 68.258l43.828 20.472Zm0 0"/><path fill="#fefefe" d="m77.75 68.258 59.8-12.817-15.972 33.29ZM93.148 156.082l8.043 15.887-6.984 9.605ZM45.3 201.043 0 227.683v-65.445ZM25.086 150.621 0 162.238l25.043-32.386Zm0 0"/><path fill="#5e5d76" d="m277.125 30.75 28.129 13.52-35.692 13.78Zm0 0"/><path fill="#837f91" d="m208.79 107.988-26.614-5.925 27.875-4.887Zm0 0"/><path fill="#201533" d="m171.871 117.348 10.305-15.285 2.82 13.84Zm0 0"/><path fill="#312a48" d="m276 127.535 36.023-21.125-.539 36.805Zm0 0"/><path fill="#201533" d="M312.023 106.41 276 127.535l4.32-25.953Zm0 0"/><path fill="#fbfbfc" d="m265.816 74.059-28.718-9.434 32.464-6.574Zm0 0"/><path fill="#fefefe" d="M277.125 30.75 272.543 0l29.187 24.602ZM369.578 16.586 320.223 0H384Zm0 0"/><path fill="#fefefe" d="M369.578 16.586 384 0l-16.664 67.063Zm0 0"/><path fill="#201533" d="m347.004 104.148 14.965 23.54-24.02-2.196Zm0 0"/><path fill="#a29fac" d="m365.86 169.2-16.587-23.235 34.735 3.074Zm0 0"/><path fill="#403a54" d="m349.273 145.965 16.586 23.234-28.687.89Zm0 0"/><path fill="#201533" d="m311.484 143.215 37.79 2.75-12.102 24.125Zm0 0"/><path fill="#201533" d="m361.969 127.688-12.696 18.277-11.324-20.473Zm0 0"/><path fill="#201533" d="m349.273 145.965-37.789-2.75 26.465-17.723ZM311.438 261.559l-1.399-40.508 27.07 8.383Zm0 0"/><path fill="#201533" d="m310.04 221.05 1.397 40.509-21.296-13.028Zm0 0"/><path fill="#3c344e" d="m366.637 214.297-30.996-13.102 1.53-31.105Zm0 0"/><path fill="#6f6b80" d="m335.64 201.195 30.997 13.102-29.528 15.137Zm0 0"/><path fill="#201533" d="m310.04 221.05 25.6-19.855 1.47 28.239Zm0 0"/><path fill="#211634" d="m335.64 201.195-25.6 19.856-12.15-40.73Zm0 0"/><path fill="#fdfdfd" d="m383.996 178.25-18.137-9.05 18.149-20.16Zm0 0"/><path fill="#201533" d="m93.148 156.082 25.356-6.523 9.465 28.3Zm0 0"/><path fill="#fefefe" d="m101.191 171.969-8.043-15.887 34.82 21.777Zm0 0"/><path fill="#201533" d="m139.137 184.023-2.856-12.136 13.864 4.976ZM89.805 138.04l3.343 18.042-14.265-7.918Zm0 0"/><path fill="#fefefe" d="m60.223 151.742 8.789-12.148 9.87 8.57Zm0 0"/><path fill="#201533" d="m111.016 121.777-34.383-18.644 32.207.73Zm0 0"/><path fill="#fefefe" d="m84.43 205.71-39.13-4.667 38.075-17.383ZM158.031 168.766l14.668-13.7 10.926 16.305ZM183.625 171.371l24.836 2.617-18.215 28.07Zm0 0"/><path fill="#fefefe" d="m208.46 173.988-24.835-2.617 10.637-17.867Zm0 0"/><path fill="#f6f5f6" d="m208.46 173.988 5.286 13.422-23.5 14.649Zm0 0"/><path fill="#fefefe" d="m213.746 187.41-3.941 18.363-19.559-3.714Zm0 0"/><path fill="#201533" d="m213.746 187.41 17.387 2.235-21.328 16.128Zm0 0"/><path fill="#fefefe" d="m83.598 283.543 1.328 42.887-30.742-26.965Zm0 0"/><path fill="#fefefe" d="M84.926 326.43 43.52 336.555l10.664-37.09ZM84.926 326.43 71.957 384 43.52 336.555ZM0 227.684l51.793 24.59L0 297.64ZM51.793 252.273 0 227.683l45.3-26.64Zm0 0"/><path fill="#fff" d="m54.184 299.465-10.664 37.09L0 297.64Zm0 0"/><path fill="#fefefe" d="m202.078 326.113-10.82-18.781 19.976-3.148ZM185.535 339.945l16.543-13.832 4.848 25.262Zm0 0"/><path fill="#201533" d="M158.547 359.316 170.695 384l-30.195.02ZM158.547 359.316l29.05.391L170.696 384Zm0 0"/><path fill="#fefefe" d="m110.828 357.09-25.902-30.66 33.215 8.765ZM257.129 359.73l-3.856 24.172-18.136.098ZM191.305 383.988l35.468-19.883L235.137 384Zm0 0"/><path fill="#fbfbfb" d="m384 277.496-23.004-29.047 23.008-24.445Zm0 0"/><path fill="#201533" d="m275.094 212.379 34.945 8.672-19.898 27.48Zm0 0"/><path fill="#201533" d="m310.04 221.05-34.946-8.671 22.797-32.059Zm0 0"/><path fill="#fefefe" d="m311.438 261.559-21.801 1.695.504-14.723ZM185.996 47.734l-48.445 7.707L157.406 0ZM182.176 102.063 171 72.027l39.05 25.149ZM175.996 135.016l-4.125-17.668 13.125-1.446ZM171.871 117.348l4.125 17.668-20.914-6.758Zm0 0"/><path fill="#201533" d="m137.246 116.914-.941 18.77-25.29-13.907Zm0 0"/><path fill="#201533" d="m111.016 121.777 25.289 13.907-17.801 13.875ZM136.305 135.684l.941-18.77 17.836 11.344Zm0 0"/><path fill="#201533" d="m125.668 105.598-14.652 16.18-2.176-17.915Zm0 0"/><path fill="#201533" d="m125.668 105.598 11.578 11.316-26.23 4.863Zm0 0"/><path fill="#201533" d="m125.668 105.598 10.992-4.274.586 15.59Zm0 0"/><path fill="#fefefe" d="m36.57 85.098-11.246 16.96-11.242-7.742ZM13.316 118.34l11.52-4.89.207 16.402ZM0 106.465l13.316 11.875L0 162.238Zm0 0"/><path fill="#fefefe" d="m0 162.238 13.316-43.898 11.727 11.512Zm0 0"/><path fill="#201533" d="m41.746 107.223-16.91 6.226.488-11.39Zm0 0"/><path fill="#201533" d="m36.57 85.098 5.176 22.125-16.422-5.164Zm0 0"/><path fill="#fefefe" d="M41.746 107.223 36.57 85.098l21.157 16.398ZM0 65l16.164-11.863 20.406 31.96Zm0 0"/><path fill="#fefefe" d="M57.727 101.496 77.75 68.258l-1.117 34.875Zm0 0"/><path fill="#fefefe" d="m77.75 68.258-20.023 33.238-5.2-37.508Zm0 0"/><path fill="#201533" d="m158.742 198.988-19.605-14.965 11.008-7.16Zm0 0"/><path fill="#211634" d="m158.742 198.988-8.082 17.305-6.637-8.074Zm0 0"/><path fill="#fdfdfd" d="m98.46 202.563 9.497-4.922 2.027 18.507Zm0 0"/><path fill="#fefefe" d="M116.59 184.73 101.19 171.97l26.778 5.89Zm0 0"/><path fill="#211634" d="m116.59 184.73-8.633 12.91-13.75-16.066Zm0 0"/><path fill="#261b38" d="m101.191 171.969 15.399 12.761-22.383-3.156Zm0 0"/><path fill="#fefefe" d="m227.941 236.41-8.902-6.144L236.7 217.5Zm0 0"/><path fill="#fefefe" d="m219.04 230.266-4.02-22.641 21.68 9.875Zm0 0"/><path fill="#201533" d="m215.02 207.625 4.02 22.64-9.235-24.492Zm0 0"/><path fill="#fefefe" d="m158.742 198.988-8.597-22.125 27.273 23.625Zm0 0"/><path fill="#fdfdfd" d="M90.457 221.133 84.43 205.71l14.03-3.149Zm0 0"/><path fill="#fefefe" d="m84.43 205.71-32.637 46.563-6.492-51.23Zm0 0"/><path fill="#fefefe" d="m51.793 252.273 38.664-31.14 4.621 31.469Zm0 0"/><path fill="#fefefe" d="m51.793 252.273 32.637-46.562 6.027 15.422Zm0 0"/><path fill="#c7c5cc" d="m79.238 166.055-19.015-14.313 18.66-3.578Zm0 0"/><path fill="#fefefe" d="m45.3 201.043 14.923-49.3 23.152 31.917ZM60.223 151.742l19.015 14.313 4.137 17.605ZM51.621 127.941l8.602 23.801-20.532-10.77Zm0 0"/><path fill="#eeedf0" d="m51.621 127.941 17.39 11.653-8.788 12.148Zm0 0"/><path fill="#211634" d="m69.012 139.594-17.39-11.653 10.323-4.918Zm0 0"/><path fill="#201533" d="m39.691 140.973-14.605 9.648-.043-20.77Zm0 0"/><path fill="#201533" d="m35.523 167.898-10.437-17.277 14.605-9.648Zm0 0"/><path fill="#fcfcfd" d="m281.41 88.598 30.55 9.46-31.64 3.524Zm0 0"/><path fill="#464461" d="m311.96 98.059.063 8.351-31.703-4.828Zm0 0"/><path fill="#201533" d="m275.094 212.379-37.27-41.992 60.067 9.933Zm0 0"/><path fill="#2a203d" d="m237.824 170.387 37.27 41.992-22.09 4.785Zm0 0"/><path fill="#fbfbfb" d="m305.527 68.21-39.71 5.849 3.745-16.008Zm0 0"/><path fill="#fcfcfd" d="m265.816 74.059 39.711-5.848-24.117 20.387Zm0 0"/><path fill="#fefefe" d="m238.207 82.848 27.61-8.79-6.633 19.637Zm0 0"/><path fill="#fefefe" d="m265.816 74.059-27.609 8.789-1.11-18.223Zm0 0"/><path fill="#504e69" d="M237.098 64.625 215.93 42.969l24.441-5.774Zm0 0"/><path fill="#aeadb9" d="m259.04 105.79-16.782-6.114 16.926-5.98Zm0 0"/><path fill="#201533" d="m242.258 99.676 16.781 6.113-13.934 12.672Zm0 0"/><path fill="#fefefe" d="M240.371 37.195 211.621 0h60.922ZM240.371 37.195 215.93 42.97 211.62 0ZM277.125 30.75l-36.754 6.445L272.543 0ZM369.578 16.586l-44.242 5.762L320.223 0ZM363.402 84.8 384 82.903l-12.68 19.957Zm0 0"/><path fill="#201533" d="m312.023 106.41 34.98-2.262-9.054 21.344ZM361.969 127.688l-14.965-23.54 24.316-1.289Zm0 0"/><path fill="#d2d2d8" d="m349.273 145.965 12.696-18.278 22.039 21.352Zm0 0"/><path fill="#fcfcfc" d="m337.102 77.602 26.3 7.199-16.117 12.586Zm0 0"/><path fill="#2a2646" d="m277.125 30.75 24.605-6.148 3.524 19.668Zm0 0"/><path fill="#fdfdfe" d="m384 82.902.008 66.137-12.688-46.18Zm0 0"/><path fill="#fcfcfd" d="m384.008 149.04-22.04-21.352 9.352-24.829Zm0 0"/><path fill="#fcfcfc" d="m360.996 248.45 5.64-34.153 17.368 9.707Zm0 0"/><path fill="#453e59" d="m366.637 214.297-5.64 34.152-23.888-19.015Zm0 0"/><path fill="#201533" d="m338.3 258.941-26.863 2.618 25.672-32.125Zm0 0"/><path fill="#221735" d="m360.996 248.45-22.695 10.491-1.192-29.507Zm0 0"/><path fill="#201533" d="m297.89 180.32 13.594-37.105 25.688 26.875ZM335.64 201.195l-37.75-20.875 39.282-10.23Zm0 0"/><path fill="#fdfdfd" d="m366.637 214.297 17.36-36.047.007 45.754Zm0 0"/><path fill="#fefefe" d="m365.86 169.2 18.136 9.05-17.36 36.047Zm0 0"/><path fill="#201533" d="m89.805 138.04 28.699 11.519-25.356 6.523ZM69.012 139.594l20.793-1.555-10.922 10.125Zm0 0"/><path fill="#211634" d="m136.281 171.887 6.031-11.75 7.833 16.726Zm0 0"/><path fill="#fcfcfd" d="m142.313 160.137 15.718 8.629-7.886 8.097Zm0 0"/><path fill="#201533" d="m142.313 160.137-6.032 11.75-17.777-22.328Zm0 0"/><path fill="#201533" d="m136.305 135.684 6.007 24.453-23.808-10.578Zm0 0"/><path fill="#fefefe" d="m193.934 131.863 18.386 6.098-18.058 15.543ZM212.32 137.96l-18.386-6.097 8.796-11.504Zm0 0"/><path fill="#201533" d="m202.73 120.36 6.06-12.372 13.96 14.739Zm0 0"/><path fill="#fefefe" d="m202.73 120.36-8.796 11.503-8.938-15.96Zm0 0"/><path fill="#201533" d="m182.176 102.063 20.554 18.296-17.734-4.457Zm0 0"/><path fill="#201533" d="m202.73 120.36-20.554-18.297 26.613 5.925Zm0 0"/><path fill="#fff" d="M0 384v-86.36l43.52 38.915Zm0 0"/><path fill="#fefefe" d="M43.52 336.555 71.957 384H0ZM51.793 252.273l2.39 47.192L0 297.64ZM185.535 339.945l-.824-17.597 17.367 3.765Zm0 0"/><path fill="#201533" d="m191.258 307.332-6.547 15.016-6.95-7.575Zm0 0"/><path fill="#fefefe" d="m184.71 322.348 6.548-15.016 10.82 18.781Zm0 0"/><path fill="#201533" d="m134.77 364.336 23.777-5.02L140.5 384.02Zm0 0"/><path fill="#fefefe" d="m118.277 384 16.493-19.664 5.73 19.684Zm0 0"/><path fill="#fefefe" d="M134.77 364.336 118.277 384l-7.449-26.91ZM84.926 326.43l33.797-8.72-.582 17.485ZM71.957 384l12.969-57.57 25.902 30.66ZM274.457 383.973l-21.184-.07 3.856-24.173Zm0 0"/><path fill="#201533" d="m274.863 335.07-17.734 24.66-19.36-23.96ZM274.863 335.07l-.406 48.903-17.328-24.243ZM274.457 383.973l.406-48.903 12.348 8.77Zm0 0"/><path fill="#fff" d="M384 310.54v30.581l-17.988-17.453Zm0 0"/><path fill="#201533" d="m355.117 334.305-11.46 22.824-23.5-19.477Zm0 0"/><path fill="#201533" d="m343.656 357.129 11.461-22.824 14.406 26.363Zm0 0"/><path fill="#211635" d="m268.508 236.809 6.586-24.43 15.047 36.152Zm0 0"/><path fill="#201533" d="m275.094 212.379-6.586 24.43-15.504-19.645ZM368.5 279.156l-15.793-4.808 8.29-25.899ZM352.707 274.348l-14.406-15.407 22.695-10.492Zm0 0"/><path fill="#fdfdfd" d="m370.867 297.492-2.367-18.336 15.5-1.66Zm0 0"/><path fill="#fefefe" d="m384 310.54-13.133-13.048L384 277.496Zm0 0"/><path fill="#fdfdfd" d="m384 277.496-15.5 1.66-7.504-30.707Zm0 0"/><path fill="#fefefe" d="M185.996 47.734 211.621 0l4.309 42.969Zm0 0"/><path fill="#fefefe" d="m211.621 0-25.625 47.734L157.406 0Zm0 0"/><path fill="#746f83" d="m137.55 55.441 48.446-7.707L171 72.027Zm0 0"/><path fill="#747389" d="m215.93 42.969-6.809 24.043-23.125-19.278Zm0 0"/><path fill="#b2b1bc" d="M209.121 67.012 171 72.027l14.996-24.293Zm0 0"/><path fill="#6f6d83" d="m237.098 64.625-27.977 2.387 6.809-24.043Zm0 0"/><path fill="#fefefe" d="m209.121 67.012 27.977-2.387 1.109 18.223ZM209.121 67.012l.93 30.164L171 72.027ZM136.66 101.324l9.832-14.363 11.582 18.05Zm0 0"/><path fill="#fefefe" d="m135.629 86.469 10.863.492-9.832 14.363Zm0 0"/><path fill="#201533" d="m182.176 102.063-10.305 15.285-13.797-12.336Zm0 0"/><path fill="#fefefe" d="m193.934 131.863-17.938 3.153 9-19.114ZM172.7 155.066l3.296-20.05 18.266 18.488ZM175.996 135.016l17.938-3.153.328 21.64Zm0 0"/><path fill="#fdfdfd" d="m158.031 168.766-4.71-28.832 19.378 15.132Zm0 0"/><path fill="#fefefe" d="m153.32 139.934 22.676-4.918-3.297 20.05Zm0 0"/><path fill="#e8e8eb" d="m142.313 160.137 11.007-20.203 4.711 28.832Zm0 0"/><path fill="#fafafb" d="m175.996 135.016-22.676 4.918 1.762-11.676Zm0 0"/><path fill="#201533" d="m153.32 139.934-17.015-4.25 18.777-7.426ZM153.32 139.934l-11.007 20.203-6.008-24.453Zm0 0"/><path fill="#fefefe" d="m135.629 86.469-14.05 2.261 15.972-33.289Zm0 0"/><path fill="#fefefe" d="m121.578 88.73 14.05-2.261 1.032 14.855ZM121.578 88.73l4.09 16.868-16.828-1.735Zm0 0"/><path fill="#fcfcfd" d="m125.668 105.598-4.09-16.868 15.082 12.594Zm0 0"/><path fill="#fefefe" d="M18.355 105.098 0 106.465l14.082-12.149ZM18.355 105.098l-5.039 13.242L0 106.465ZM13.316 118.34l5.04-13.242 6.48 8.351Zm0 0"/><path fill="#fefefe" d="m25.324 102.059-6.969 3.039-4.273-10.782Zm0 0"/><path fill="#211634" d="m24.836 113.45-6.48-8.352 6.968-3.04Zm0 0"/><path fill="#201533" d="m41.746 107.223-.363 13.363-16.547-7.137ZM24.836 113.45l16.547 7.136-16.34 9.266ZM41.383 120.586l-1.692 20.387-14.648-11.121Zm0 0"/><path fill="#e9e8eb" d="m39.691 140.973 1.692-20.387 10.238 7.355Zm0 0"/><path fill="#201533" d="m51.316 116.406-9.57-9.183 15.98-5.727ZM51.621 127.941l-.305-11.535 10.63 6.617Zm0 0"/><path fill="#201533" d="m41.383 120.586 9.933-4.18.305 11.535Zm0 0"/><path fill="#d9d8dd" d="m51.316 116.406-9.933 4.18.363-13.363Zm0 0"/><path fill="#251a37" d="m64.297 113.484-6.57-11.988 18.906 1.637Zm0 0"/><path fill="#201533" d="m51.316 116.406 12.98-2.922-2.35 9.54Zm0 0"/><path fill="#201533" d="m64.297 113.484-12.98 2.922 6.41-14.91Zm0 0"/><path fill="#fefefe" d="m166.102 215.164-15.442 1.129 8.082-17.305Zm0 0"/><path fill="#271c39" d="m120.953 232.602-20.039-10.067 9.07-6.387Zm0 0"/><path fill="#fcfcfc" d="m100.914 222.535-5.836 30.067-4.621-31.47Zm0 0"/><path fill="#fefefe" d="m100.914 222.535-10.457-1.402 8.004-18.57Zm0 0"/><path fill="#251b38" d="m109.984 216.148-9.07 6.387-2.453-19.972Zm0 0"/><path fill="#201533" d="m150.66 216.293-17.258 11.289 10.621-19.363Zm0 0"/><path fill="#362c47" d="m84.43 205.71-1.055-22.05 15.086 18.903Zm0 0"/><path fill="#fefefe" d="m107.957 197.64-24.582-13.98 10.832-2.086Zm0 0"/><path fill="#fefefe" d="M98.46 202.563 83.376 183.66l24.582 13.98Zm0 0"/><path fill="#201533" d="m133.402 227.582-8.34-9.3 18.961-10.063Zm0 0"/><path fill="#201533" d="m125.063 218.281 8.34 9.301-12.45 5.02Zm0 0"/><path fill="#fefefe" d="m107.957 197.64 17.106 20.641-15.079-2.133ZM125.063 218.281l-4.11 14.32-10.969-16.453Zm0 0"/><path fill="#201533" d="m220.684 283.55-2.852-14.94 20.004 3.648ZM232.234 292.61l-11.55-9.06 17.152-11.292Zm0 0"/><path fill="#201533" d="m220.684 283.55 11.55 9.06-21 11.574ZM209.66 245.566 199.773 260l-20.57-26.102ZM235.691 261.86l27.211 6.132-25.066 4.266Zm0 0"/><path fill="#201533" d="m217.832 268.61 17.86-6.75 2.144 10.398Zm0 0"/><path fill="#fefefe" d="m219.04 230.266-20.626-18.489 11.39-6.004Zm0 0"/><path fill="#fefefe" d="m198.414 211.777-8.168-9.718 19.559 3.714ZM198.414 211.777l20.625 18.489-9.379 15.3Zm0 0"/><path fill="#201533" d="m198.414 211.777 11.246 33.79-30.457-11.669Zm0 0"/><path fill="#fefefe" d="m158.742 198.988 18.676 1.5-11.316 14.676ZM60.223 151.742l-24.7 16.156 4.168-26.925ZM35.523 167.898l24.7-16.156L45.3 201.043ZM25.086 150.621l10.437 17.277L0 162.238Zm0 0"/><path fill="#fcfcfd" d="m305.527 68.21 6.434 29.849-30.55-9.461Zm0 0"/><path fill="#a1a1af" d="m305.254 44.27.273 23.94-35.964-10.16Zm0 0"/><path fill="#fdfdfd" d="m280.32 101.582-21.136-7.887 22.226-5.097Zm0 0"/><path fill="#fefefe" d="m259.184 93.695 6.632-19.636 15.594 14.539ZM220.742 177.68l-6.996 9.73-5.285-13.422Zm0 0"/><path fill="#211735" d="M297.89 180.32 276 127.535l35.484 15.68Zm0 0"/><path fill="#2d2440" d="m276 127.535 21.89 52.785-60.066-9.933Zm0 0"/><path fill="#fefefe" d="m242.258 99.676-4.051-16.828 20.977 10.847Zm0 0"/><path fill="#686277" d="m347.004 104.148.281-6.761 24.035 5.472Zm0 0"/><path fill="#fdfdfd" d="M347.285 97.387 363.402 84.8l7.918 18.058Zm0 0"/><path fill="#494662" d="m347.285 97.387-35.262 9.023-.062-8.351Zm0 0"/><path fill="#55546e" d="m312.023 106.41 35.262-9.023-.281 6.761Zm0 0"/><path fill="#fdfdfd" d="m337.102 77.602 10.183 19.785-35.324.672Zm0 0"/><path fill="#fbfbfc" d="m337.102 77.602 30.234-10.54-3.934 17.739Zm0 0"/><path fill="#88879a" d="m367.336 67.063-30.234 10.539 5.32-28.016Zm0 0"/><path fill="#211735" d="m342.422 49.586-17.086-27.238 44.242-5.762Zm0 0"/><path fill="#64637a" d="m367.336 67.063-24.914-17.477 27.156-33Zm0 0"/><path fill="#e4e4e8" d="m305.254 44.27 37.168 5.316-36.895 18.625Zm0 0"/><path fill="#211634" d="m77.137 121.89-8.125 17.704-7.067-16.57Zm0 0"/><path fill="#201533" d="m77.137 121.89 12.668 16.15-20.793 1.554ZM89.805 138.04l-12.668-16.15 33.879-.113Zm0 0"/><path fill="#201533" d="m111.016 121.777-33.88.114-.503-18.758Zm0 0"/><path fill="#201533" d="m64.297 113.484 12.84 8.407-15.192 1.132ZM77.137 121.89l-12.84-8.406 12.336-10.351Zm0 0"/><path fill="#fefefe" d="m83.598 283.543-31.805-31.27 43.285.329Zm0 0"/><path fill="#201533" d="m184.71 322.348-17.89 2.73 10.942-10.305ZM166.82 325.078l-6.879-24.812 17.82 14.507Zm0 0"/><path fill="#fefefe" d="m131.215 347.508 3.555 16.828-23.942-7.246Zm0 0"/><path fill="#201533" d="m297.695 360.34-23.238 23.633 12.754-40.133ZM211.234 304.184l43.328 9.511-16.792 22.075Zm0 0"/><path fill="#201533" d="m254.563 313.695 20.3 21.375-37.093.7ZM254.563 313.695l-43.329-9.511 21-11.575Zm0 0"/><path fill="#fdfdfd" d="m274.863 335.07 8.664-24.187 3.684 32.957Zm0 0"/><path fill="#201533" d="m299.285 305.328-15.758 5.555 13.61-15.899Zm0 0"/><path fill="#fefefe" d="m254.563 313.695 28.964-2.812-8.664 24.187Zm0 0"/><path fill="#fcfcfc" d="m384 384-25.004-12.21 10.527-11.122Zm0 0"/><path fill="#201533" d="m358.996 371.79-15.34-14.661 25.867 3.539ZM338.3 258.941l-4.663 15.899-22.2-13.281Zm0 0"/><path fill="#fefefe" d="m329.648 285.133 3.989-10.293 13.91 11.656Zm0 0"/><path fill="#201533" d="m333.637 274.84 19.07-.492-5.16 12.148Zm0 0"/><path fill="#201533" d="m352.707 274.348-19.07.492 4.664-15.899Zm0 0"/><path fill="#fefefe" d="m283.527 310.883 15.309 13.46-11.625 19.497Zm0 0"/><path fill="#201533" d="m298.836 324.344-15.309-13.461 15.758-5.555Zm0 0"/><path fill="#fefefe" d="m289.637 263.254-15.602-8.309 16.106-6.414ZM274.035 254.945l-5.527-18.136 21.633 11.722Zm0 0"/><path fill="#201533" d="m268.508 236.809-19.11-10.602 3.606-9.043Zm0 0"/><path fill="#fefefe" d="m249.398 226.207-21.457 10.203 8.758-18.91Zm0 0"/><path fill="#201533" d="m253.004 217.164-3.606 9.043L236.7 217.5Zm0 0"/><path fill="#fefefe" d="m309.36 275.5-19.446 10.203-.277-22.45ZM309.36 275.5l24.277-.66-3.989 10.293Zm0 0"/><path fill="#fefefe" d="m309.36 275.5-19.723-12.246 21.8-1.695Zm0 0"/><path fill="#fefefe" d="m333.637 274.84-24.278.66 2.079-13.941ZM137.55 55.441l8.942 31.52-10.863-.492Zm0 0"/><path fill="#201533" d="m210.05 97.176 15.962 10.62-17.223.192ZM226.012 107.797l16.246-8.121 2.847 18.785ZM208.79 107.988l17.222-.191-3.262 14.93ZM226.012 107.797l19.093 10.664-22.355 4.266Zm0 0"/><path fill="#fefefe" d="M137.55 55.441 171 72.027l-24.508 14.934ZM36.57 85.098l15.957-21.11 5.2 37.508Zm0 0"/><path fill="#fefefe" d="m16.164 53.137 36.363 10.851-15.957 21.11Zm0 0"/><path fill="#818194" d="m58.04 41.453-5.513 22.535-36.363-10.851Zm0 0"/><path fill="#8d8d9e" d="m58.04 41.453 79.51 13.988-59.8 12.817Zm0 0"/><path fill="#fefefe" d="m166.102 215.164 32.312-3.387-19.21 22.121Zm0 0"/><path fill="#645c71" d="m198.414 211.777-32.312 3.387 24.144-13.105Zm0 0"/><path fill="#eae9ec" d="m166.102 215.164 11.316-14.676 12.828 1.57Zm0 0"/><path fill="#fefefe" d="m100.914 222.535 16.195 26.125-22.03 3.942Zm0 0"/><path fill="#281e3b" d="m117.11 248.66-16.196-26.125 20.04 10.067Zm0 0"/><path fill="#9a95a3" d="m125.063 218.281 6.687-24.285 12.273 14.223Zm0 0"/><path fill="#fefefe" d="m131.75 193.996 26.992 4.992-14.719 9.23Zm0 0"/><path fill="#fefefe" d="m158.742 198.988-26.992-4.992 7.387-9.973Zm0 0"/><path fill="#201533" d="m220.684 283.55-20.051-1.655 17.199-13.286ZM171.11 272.79l29.523 9.105-19.43 8.484Zm0 0"/><path fill="#201533" d="m200.633 281.895-9.375 25.437-10.055-16.953Zm0 0"/><path fill="#fefefe" d="m191.258 307.332 9.375-25.437 10.601 22.289Zm0 0"/><path fill="#201533" d="m200.633 281.895 20.05 1.656-9.449 20.633ZM199.773 260l18.122-10.457-.063 19.066ZM217.895 249.543l17.796 12.316-17.859 6.75Zm0 0"/><path fill="#a9a9b6" d="m342.422 49.586-5.32 28.016-31.575-9.391Zm0 0"/><path fill="#fbfbfc" d="m305.527 68.21 31.575 9.392-25.141 20.457Zm0 0"/><path fill="#4e465f" d="m259.04 105.79.144-12.095 21.136 7.887Zm0 0"/><path fill="#201533" d="m259.04 105.79 21.28-4.208-4.32 25.953Zm0 0"/><path fill="#201533" d="m245.105 118.46 13.934-12.67L276 127.534ZM245.96 144.832l-23.21-22.105 22.355-4.266ZM220.742 177.68l10.39 11.965-17.386-2.235Zm0 0"/><path fill="#fefefe" d="m214.969 164.957 5.773 12.723-12.281-3.692Zm0 0"/><path fill="#fefefe" d="m214.969 164.957-6.508 9.031-14.2-20.484ZM212.32 137.96l2.649 26.997-20.707-11.453ZM325.336 22.348l-23.606 2.254L320.223 0ZM367.336 67.063 384 82.903 363.402 84.8ZM107.508 294.8l11.215 22.91-33.797 8.72ZM107.508 294.8l-22.582 31.63-1.328-42.887Zm0 0"/><path fill="#201533" d="m118.723 317.71-11.215-22.91 30.984 4.188Zm0 0"/><path fill="#fefefe" d="m107.754 275.27-.246 19.53-23.91-11.257Zm0 0"/><path fill="#201533" d="m107.508 294.8 30.937-3.6.047 7.788Zm0 0"/><path fill="#201533" d="m138.445 291.2-30.937 3.6.246-19.53Zm0 0"/><path fill="#fefefe" d="m83.598 283.543-29.414 15.922-2.391-47.192ZM118.14 335.195l13.075 12.313-20.387 9.582ZM187.598 359.707l-2.063-19.762 21.39 11.43Zm0 0"/><path fill="#201533" d="m185.535 339.945-18.715-14.867 17.89-2.73Zm0 0"/><path fill="#221734" d="m138.445 291.2 21.496 9.066-21.449-1.278Zm0 0"/><path fill="#2d2340" d="m274.457 383.973 21.227.066-42.41-.137Zm0 0"/><path fill="#211634" d="m297.695 360.34-2.011 23.7-21.227-.067Zm0 0"/><path fill="#fdfdfd" d="m311.34 348.684-13.645 11.656-10.484-16.5Zm0 0"/><path fill="#fefefe" d="m311.34 348.684-12.504-24.34 21.32 13.308Zm0 0"/><path fill="#fefefe" d="m298.836 324.344 12.504 24.34-24.13-4.844ZM343.656 357.129l-32.316-8.445 8.816-11.032ZM264.23 293.047l-31.996-.438 5.602-20.351ZM264.23 293.047l-9.668 20.648-22.328-21.086Zm0 0"/><path fill="#201533" d="m262.902 267.992 1.328 25.055-26.394-20.79Zm0 0"/><path fill="#fefefe" d="m264.23 293.047 19.297 17.836-28.964 2.812Zm0 0"/><path fill="#201533" d="m289.914 285.703-25.684 7.344-1.328-25.055ZM264.23 293.047l25.684-7.344 7.223 9.281Zm0 0"/><path fill="#201533" d="m283.527 310.883-19.297-17.836 32.907 1.937Zm0 0"/><path fill="#fefefe" d="m370.45 341.727 13.55-.606-14.477 19.547Zm0 0"/><path fill="#fefefe" d="m384 341.121-13.55.606-4.438-18.059ZM370.45 341.727l-15.333-7.422 10.895-10.637Zm0 0"/><path fill="#201533" d="m355.117 334.305 15.332 7.422-.926 18.941Zm0 0"/><path fill="#fdfdfd" d="M384 341.121V384l-14.477-23.332Zm0 0"/><path fill="#fdfdfe" d="M358.996 371.79 384 384l-60.324.004Zm0 0"/><path fill="#fefefe" d="m356.719 306.824 14.148-9.332L384 310.54ZM366.012 323.668l-9.293-16.844L384 310.54Zm0 0"/><path fill="#201533" d="m345.465 324.473 9.652 9.832-34.96 3.347Zm0 0"/><path fill="#fefefe" d="m345.465 324.473 20.547-.805-10.895 10.637ZM278.34 266.762l11.574 18.941-27.012-17.71Zm0 0"/><path fill="#fefefe" d="m274.035 254.945 4.305 11.817-15.438 1.23Zm0 0"/><path fill="#fefefe" d="m289.914 285.703-11.574-18.941 11.297-3.508ZM278.34 266.762l-4.305-11.817 15.602 8.309Zm0 0"/><path fill="#201533" d="m235.691 261.86 10.895-7.75 16.316 13.882Zm0 0"/><path fill="#fdfdfd" d="m246.586 254.11 27.45.835-11.134 13.047Zm0 0"/><path fill="#fefefe" d="m274.035 254.945-27.45-.836 21.923-17.3Zm0 0"/><path fill="#fefefe" d="m246.586 254.11 2.812-27.903 19.11 10.602ZM312.05 292.012l-2.69-16.512 20.288 9.633Zm0 0"/><path fill="#fefefe" d="m289.914 285.703 22.137 6.309-14.914 2.972Zm0 0"/><path fill="#fefefe" d="m309.36 275.5 2.69 16.512-22.136-6.309ZM312.05 292.012l-12.765 13.316-2.148-10.344ZM227.84 97.523l10.367-14.675 4.05 16.828Zm0 0"/><path fill="#35304e" d="m226.012 107.797 1.828-10.274 14.418 2.153Zm0 0"/><path fill="#201533" d="m227.84 97.523-1.828 10.274-15.961-10.621Zm0 0"/><path fill="#fefefe" d="M227.84 97.523 209.12 67.012l29.086 15.836Zm0 0"/><path fill="#fefefe" d="m227.84 97.523-17.79-.347-.929-30.164Zm0 0"/><path fill="#e1e1e6" d="m58.04 41.453 19.71 26.805-25.223-4.27Zm0 0"/><path fill="#201533" d="m128.477 258.457-12.555-1.988 1.187-7.809Zm0 0"/><path fill="#fefefe" d="m117.11 248.66-1.188 7.809-20.844-3.867Zm0 0"/><path fill="#201533" d="m130.629 240.734-2.152 17.723-11.368-9.797ZM133.402 227.582l-2.773 13.152-9.676-8.132ZM130.629 240.734l-13.52 7.926 3.844-16.058Zm0 0"/><path fill="#fdfdfd" d="m131.75 193.996-3.781-16.137 11.168 6.164Zm0 0"/><path fill="#201533" d="m139.137 184.023-11.168-6.164 8.312-5.972ZM199.773 260l.86 21.895-29.524-9.106Zm0 0"/><path fill="#201533" d="m200.633 281.895-.86-21.895 18.059 8.61ZM199.773 260l-28.113-9.121 7.543-16.98Zm0 0"/><path fill="#201533" d="M171.66 250.879 199.773 260l-28.664 12.79ZM217.895 249.543l1.144-19.277 8.902 6.144Zm0 0"/><path fill="#201533" d="m219.04 230.266-1.145 19.277-8.235-3.977Zm0 0"/><path fill="#201533" d="M217.895 249.543 199.773 260l9.887-14.434Zm0 0"/><path fill="#fefefe" d="m216.3 136.11-3.98 1.85-9.59-17.6Zm0 0"/><path fill="#201533" d="m222.75 122.727-6.45 13.382-13.57-15.75Zm0 0"/><path fill="#201533" d="m245.96 144.832-29.66-8.723 6.45-13.382Zm0 0"/><path fill="#221836" d="m216.3 136.11-1.331 28.847-2.649-26.996Zm0 0"/><path fill="#bab8c2" d="m237.824 170.387 15.18 46.777-21.871-27.52Zm0 0"/><path fill="#d6d5db" d="m237.824 170.387 8.137-25.555L276 127.535Zm0 0"/><path fill="#201533" d="m276 127.535-30.04 17.297-.855-26.371Zm0 0"/><path fill="#fefefe" d="m135.625 325.516-4.41 21.992-13.074-12.313Zm0 0"/><path fill="#fefefe" d="m118.723 317.71 16.902 7.806-17.484 9.68Zm0 0"/><path fill="#fefefe" d="m135.625 325.516-16.902-7.805 19.77-18.723Zm0 0"/><path fill="#201533" d="m158.547 359.316 26.988-19.37 2.063 19.761ZM131.215 347.508l27.332 11.808-23.777 5.02ZM185.535 339.945l-28.504 1.22 9.79-16.087Zm0 0"/><path fill="#201533" d="m157.031 341.164 1.516 18.152-27.332-11.808Zm0 0"/><path fill="#201532" d="m158.547 359.316-1.516-18.152 28.504-1.219Zm0 0"/><path fill="#201533" d="m159.941 300.266 11.168-27.477 10.094 17.59ZM159.941 300.266l31.317 7.066-13.496 7.441Zm0 0"/><path fill="#201533" d="m191.258 307.332-31.317-7.066 21.262-9.887ZM107.754 275.27l36.332 2.195-5.64 13.734Zm0 0"/><path fill="#fefefe" d="m107.754 275.27-12.676-22.668 20.844 3.867ZM95.078 252.602l12.676 22.668-24.156 8.273Zm0 0"/><path fill="#201533" d="m159.941 300.266-15.855-22.801 27.023-4.676Zm0 0"/><path fill="#261c39" d="m144.086 277.465 15.855 22.8-21.496-9.066Zm0 0"/><path fill="#fefefe" d="m319.863 372.152-8.523-23.468 32.316 8.445ZM319.863 372.152l39.133-.363-35.32 12.215Zm0 0"/><path fill="#fefefe" d="m358.996 371.79-39.133.362 23.793-15.023ZM295.684 384.04l24.18-11.888 3.812 11.852ZM311.34 348.684l8.523 23.468-22.168-11.812Zm0 0"/><path fill="#fefefe" d="m319.863 372.152-24.18 11.887 2.012-23.7Zm0 0"/><path fill="#201533" d="m352.707 274.348 5.305 15.972-10.465-3.824Zm0 0"/><path fill="#201533" d="m358.012 290.32-5.305-15.972 15.793 4.808ZM370.867 297.492l-12.855-7.172 10.488-11.164Zm0 0"/><path fill="#fefefe" d="m356.719 306.824 1.293-16.504 12.855 7.172Zm0 0"/><path fill="#201533" d="m322.184 310.074 23.28 14.399-25.308 13.18Zm0 0"/><path fill="#fefefe" d="m298.836 324.344 23.348-14.27-2.028 27.578ZM322.184 310.074l-22.899-4.746 12.766-13.316Zm0 0"/><path fill="#fefefe" d="m322.184 310.074-23.348 14.27.45-19.016ZM345.465 324.473l11.254-17.649 9.293 16.844ZM358.012 290.32l-1.293 16.504-9.172-20.328ZM249.398 226.207l-19.64 18.82-1.817-8.617ZM246.586 254.11l-16.828-9.083 19.64-18.82Zm0 0"/><path fill="#201533" d="m229.758 245.027-11.863 4.516 10.046-13.133ZM217.895 249.543l11.863-4.516 5.933 16.832ZM229.758 245.027l16.828 9.082-10.895 7.75Zm0 0"/><path fill="#fefefe" d="M146.492 86.96 171 72.028l-12.926 32.985Zm0 0"/><path fill="#fefefe" d="m171 72.027 11.176 30.036-24.102 2.949Zm0 0"/><path fill="#201533" d="m139.238 233.8-5.836-6.218 17.258-11.289Zm0 0"/><path fill="#201533" d="m139.238 233.8-8.61 6.934 2.774-13.152ZM130.629 240.734l18.285 12.578-20.437 5.145Zm0 0"/><path fill="#201533" d="m139.238 233.8 9.676 19.512-18.285-12.578Zm0 0"/><path fill="#fefefe" d="m123.023 191.82 4.946-13.96 3.781 16.136Zm0 0"/><path fill="#201533" d="m116.59 184.73 6.433 7.09-15.066 5.82Zm0 0"/><path fill="#fefefe" d="m123.023 191.82-6.433-7.09 11.379-6.87Zm0 0"/><path fill="#201533" d="m123.023 191.82 2.04 26.461-17.106-20.64Zm0 0"/><path fill="#fefefe" d="m123.023 191.82 8.727 2.176-6.687 24.285Zm0 0"/><path fill="#312d4b" d="m301.73 24.602 23.606-2.254-20.082 21.922Zm0 0"/><path fill="#272241" d="m305.254 44.27 20.082-21.922 17.086 27.238Zm0 0"/><path fill="#201533" d="m159.941 300.266-24.316 25.25 2.867-26.528Zm0 0"/><path fill="#201533" d="m166.82 325.078-31.195.438 24.316-25.25ZM157.031 341.164l-21.406-15.648 31.195-.438ZM135.625 325.516l21.406 15.648-25.816 6.344ZM128.477 258.457l-20.723 16.813 8.168-18.801Zm0 0"/><path fill="#201533" d="m107.754 275.27 20.723-16.813 15.609 19.008Zm0 0"/><path fill="#fefefe" d="m356.719 306.824-22.84-6.5 13.668-13.828Zm0 0"/><path fill="#fefefe" d="m333.879 300.324-4.23-15.191 17.898 1.363ZM329.648 285.133l4.23 15.191-21.827-8.312Zm0 0"/><path fill="#fefefe" d="m333.879 300.324-11.695 9.75-10.133-18.062ZM322.184 310.074l11.695-9.75 11.586 24.149Zm0 0"/><path fill="#fefefe" d="m333.879 300.324 22.84 6.5-11.254 17.649ZM166.102 215.164l-8.614 20.574-6.828-19.445Zm0 0"/><path fill="#fcfbfc" d="m157.488 235.738-18.25-1.937 11.422-17.508Zm0 0"/><path fill="#fefefe" d="m157.488 235.738-8.574 17.575-9.676-19.512Zm0 0"/><path fill="#201533" d="m179.203 233.898-21.715 1.84 8.614-20.574ZM148.914 253.313l8.574-17.575 14.172 15.14Zm0 0"/><path fill="#201533" d="m171.66 250.879-14.172-15.14 21.715-1.84ZM237.824 170.387l-6.691 19.258-10.39-11.965ZM225.871 159.238l-9.57-23.129 29.66 8.723Zm0 0"/><path fill="#fefefe" d="m216.3 136.11 9.571 23.128-10.902 5.719Zm0 0"/><path fill="#fdfdfe" d="m214.969 164.957 10.902-5.719-5.129 18.442Zm0 0"/><path fill="#201533" d="m225.871 159.238 11.953 11.149-17.082 7.293ZM144.086 277.465l4.828-24.152 22.195 19.476Zm0 0"/><path fill="#201533" d="m171.11 272.79-22.196-19.478 22.746-2.433ZM148.914 253.313l-4.828 24.152-15.61-19.008ZM237.824 170.387l-11.953-11.149 20.09-14.406Zm0 0"/></svg>