<svg xmlns="http://www.w3.org/2000/svg" width="512" height="512" viewBox="0 0 384 384"><path fill="#eb5659" d="m107.293 109.367-15.184 1.653 3.153-18.692Zm0 0"/><path fill="#f04e52" d="m174.746 192.387 8.05-26.45 6.216 36.622Zm0 0"/><path fill="#ec5356" d="m216.035 360.129-21.73 23.875-6.918-25.45Zm0 0"/><path fill="#da575a" d="m-.008 96.516 15.832-10.692 5.457 9.918Zm0 0"/><path fill="#9ad7c4" d="m165.668 180.395 17.129-14.458-8.05 26.45Zm0 0"/><path fill="#1c2537" d="m107.293 109.367-3.59 18.106L92.11 111.02Zm0 0"/><path fill="#1c2638" d="M194.305 384.004 169.89 384l17.496-25.445Zm0 0"/><path fill="#f04e52" d="m216.035 360.129-30.234-30.817 46.797 7.38Zm0 0"/><path fill="#95dfcb" d="m165.668 180.395-7.152 14.425-8.485-24.285Zm0 0"/><path fill="#95dfcb" d="m158.516 194.82 7.152-14.425 9.078 11.992Zm0 0"/><path fill="#f04d51" d="M34.586 217.773 0 192.914l40.043-8.309Zm0 0"/><path fill="#1c2638" d="m279.656 76.043-26.156-11.5 32.336.55Zm0 0"/><path fill="#1c2638" d="m253.5 64.543 11.188-19.07 21.148 19.62ZM251.75 77.988l1.75-13.445 26.156 11.5Zm0 0"/><path fill="#f04e52" d="m207.066 22.555-26.418 30.617L192.254 0Zm0 0"/><path fill="#e04b50" d="m126.336 170.73 12.258 7.668-14.098 9.348Zm0 0"/><path fill="#1d2537" d="m82.887 139.063 20.816-11.59-3.726 24.054Zm0 0"/><path fill="#ef4f52" d="m68.984 199.93 12.82 19.675-18.386 19.23Zm0 0"/><path fill="#9b232c" d="m99.977 151.527-23.504 23.836 6.414-36.3Zm0 0"/><path fill="#9a222b" d="m94.008 196-17.535-20.637 23.504-23.836Zm0 0"/><path fill="#95dfcb" d="m182.797 165.938-11.219-22.075 22.883-1.136Zm0 0"/><path fill="#f04d51" d="M107.895 369.527 111.352 384h-34.45ZM83.742 299.875l-5.082 27.934L44.39 303.3ZM78.66 327.809l-27.715 20.484-6.554-44.992Zm0 0"/><path fill="#f04e52" d="m185.8 329.313 15.118-9.043 31.68 16.421Zm0 0"/><path fill="#f04e52" d="m200.918 320.27-1.383-22.567 33.063 38.988Zm0 0"/><path fill="#eb5155" d="m187.387 358.555-1.586-29.243 30.234 30.817Zm0 0"/><path fill="#1c2637" d="M127.977 362.543 111.352 384l-3.457-14.473Zm0 0"/><path fill="#ef4d51" d="m250.95 358.29-34.915 1.839 16.563-23.438Zm0 0"/><path fill="#f04d51" d="m216.035 360.129 34.914-1.84-.804 25.645Zm0 0"/><path fill="#1c2638" d="m219.555 197.129.566 11.504-14.039-5.852Zm0 0"/><path fill="#1c2637" d="m220.121 208.633 27.5-6.899-13.676 16.375Zm0 0"/><path fill="#1c2638" d="m220.121 208.633-.566-11.504 28.066 4.605Zm0 0"/><path fill="#f04e52" d="M133.656 0 64.54 19.238 53.58 0Zm0 0"/><path fill="#f04e52" d="M64.54 19.238 133.655 0l-15.969 27.73ZM192.254 0l-29.79 27.617L133.657 0Zm0 0"/><path fill="#1c2638" d="m193.852 54.441 30.265-4.004-16.84 18.657Zm0 0"/><path fill="#f04e52" d="M207.066 22.555 193.852 54.44l-13.204-1.27ZM145.95 34.496l19.945 21.535-18.34-1.617ZM145.95 34.496l-28.262-6.766L133.656 0Zm0 0"/><path fill="#b6aa9f" d="m170.355 108.71-1.636 5.743-20.348 19.758Zm0 0"/><path fill="#1c2638" d="m126.313 111.656 44.042-2.945-21.984 25.5Zm0 0"/><path fill="#e75558" d="m126.313 111.656-1.731-17.386 45.773 14.44Zm0 0"/><path fill="#f04e52" d="M40.035 19.184 53.578 0 64.54 19.238ZM19.5 29.422-.043 39.41 0 0Zm0 0"/><path fill="#ee5154" d="m32.242 78.793-16.418 7.031L13.61 71.29Zm0 0"/><path fill="#3c2f3e" d="m.219 81.375 15.605 4.45-15.832 10.69Zm0 0"/><path fill="#1c2638" d="m38.758 55.637-17.59-7.774 8.719-5.52Zm0 0"/><path fill="#f04e52" d="m21.168 47.863-4.082-9.441 12.8 3.922Zm0 0"/><path fill="#ee5154" d="m73.305 109.246-1.59-16.996 20.394 18.77Zm0 0"/><path fill="#ea585a" d="M92.11 111.02 71.714 92.25l23.547.078Zm0 0"/><path fill="#cb8882" d="m71.715 92.25 6.52-18.89 17.027 18.968Zm0 0"/><path fill="#9fcebd" d="m78.234 73.36 29.235-5.805-12.207 24.773Zm0 0"/><path fill="#f04e52" d="M34.586 217.773 0 237.843v-44.929Zm0 0"/><path fill="#f04d51" d="m68.984 199.93-34.398 17.843 5.457-33.168Zm0 0"/><path fill="#f04d51" d="m0 192.914 29.855-34.14 10.188 25.831Zm0 0"/><path fill="#ef4f53" d="M16.684 136.746 0 152.055v-25.582Zm0 0"/><path fill="#1c2638" d="m264.688 45.473 45.359-17.723-24.211 37.344ZM310.047 27.75l-8.371 53.777-15.84-16.433ZM215.453 112.102l-23.215-6.993 17.32-3.98Zm0 0"/><path fill="#1c2638" d="m168.719 114.453 23.52-9.344-4.805 6.754Zm0 0"/><path fill="#1c2537" d="m264.172 129.227 47.008-10.18-13.192 38.562Zm0 0"/><path fill="#1c2638" d="m260.348 102.664-8.598-24.676 27.906-1.945Zm0 0"/><path fill="#f04e52" d="M246.414 9.672 192.254 0h132.738Zm0 0"/><path fill="#ef4f53" d="M310.047 27.75 246.414 9.672 324.992 0Zm0 0"/><path fill="#f04e52" d="m246.414 9.672 63.633 18.078-45.36 17.723Zm0 0"/><path fill="#f04d51" d="M355.918 12.027 324.992 0H384Zm0 0"/><path fill="#1c2638" d="M368.656 35.148 384 19.668v38.316Zm0 0"/><path fill="#1c2638" d="m356.172 45.547 12.484-10.399L384 57.984Zm0 0"/><path fill="#1c2638" d="m368.656 35.148-12.484 10.399-2.399-28.332ZM326.992 185.496l-29.004-27.887 43.746-16.91Zm0 0"/><path fill="#1c2638" d="m341.734 140.7-43.746 16.91 13.192-38.563ZM384 233.887l-37.586-14.54 37.59-39.64ZM320.574 242.535l-8.215-24.265 34.055 1.078Zm0 0"/><path fill="#1c2638" d="m312.36 218.27 8.214 24.265-39.512 2.219Zm0 0"/><path fill="#1c2638" d="m346.414 219.348-34.055-1.078 14.633-32.774ZM384 115.563l.004 64.144-42.27-39.008Zm0 0"/><path fill="#1c2638" d="m384.004 179.707-57.012 5.79 14.742-44.798Zm0 0"/><path fill="#98222b" d="M124.496 187.746 94.008 196l5.969-44.473Zm0 0"/><path fill="#1c2638" d="m158.516 194.82-19.922-16.422 11.437-7.863Zm0 0"/><path fill="#9b222b" d="m54.371 154.691 11.156-23.28 17.36 7.651Zm0 0"/><path fill="#1c2537" d="m103.703 127.473-19.516-4.79 7.922-11.663Zm0 0"/><path fill="#1d2537" d="m82.887 139.063 1.3-16.38 19.516 4.79Zm0 0"/><path fill="#1c2637" d="m84.188 122.684-10.883-13.438 18.804 1.774Zm0 0"/><path fill="#232537" d="M70.617 178.242 94.007 196l-25.023 3.93Zm0 0"/><path fill="#9b222b" d="m94.008 196-12.203 23.605-12.82-19.675Zm0 0"/><path fill="#1c2637" d="m94.008 196-23.39-17.758 5.855-2.879Zm0 0"/><path fill="#96ddca" d="m165.668 180.395-11.176-20.122 28.305 5.665Zm0 0"/><path fill="#a1ccbb" d="m154.492 160.273 17.086-16.41 11.219 22.075Zm0 0"/><path fill="#9ed0be" d="m154.492 160.273 11.176 20.122-15.637-9.86Zm0 0"/><path fill="#95dfcb" d="m182.797 165.938 24.707.359-18.492 36.262Zm0 0"/><path fill="#a5c5b6" d="m207.504 166.297-24.707-.36 11.664-23.21Zm0 0"/><path fill="#a3c8b8" d="m207.504 166.297-.117 22.516-18.375 13.746Zm0 0"/><path fill="#99d8c6" d="m207.387 188.813-1.305 13.968-17.07-.222Zm0 0"/><path fill="#1c2638" d="m207.387 188.813 12.168 8.316-13.473 5.652Zm0 0"/><path fill="#f04d51" d="m89.18 355.254 18.715 14.273L76.902 384ZM76.902 384l-25.957-35.707 38.235 6.96ZM102.781 340.895l12.559-5.56-.738 10.095Zm0 0"/><path fill="#f04d51" d="m50.945 348.293 27.715-20.484 10.52 27.445ZM50.945 348.293 0 328.586 44.39 303.3Zm0 0"/><path fill="#1c2637" d="M156.316 360.227 169.891 384h-28.63Zm0 0"/><path fill="#1c2638" d="m156.316 360.227 31.07-1.672L169.892 384Zm0 0"/><path fill="#1c2537" d="m110.234 353.766 17.743 8.777-20.082 6.984Zm0 0"/><path fill="#1c2638" d="m127.977 362.543-17.743-8.777 4.368-8.336Zm0 0"/><path fill="#ef4d51" d="m89.18 355.254 21.054-1.488-2.34 15.761Zm0 0"/><path fill="#f04d51" d="m110.234 353.766-7.453-12.871 11.82 4.535Zm0 0"/><path fill="#f04d51" d="m102.781 340.895 7.453 12.87-21.054 1.489Zm0 0"/><path fill="#1c2537" d="M127.977 362.543 141.262 384h-29.91Zm0 0"/><path fill="#f04d51" d="m102.781 340.895-2.629-23.399 15.188 17.84Zm0 0"/><path fill="#ef4d51" d="m194.305 384.004 21.73-23.875 34.11 23.805ZM362.04 313.824l21.952 13.778-28.797 5.285Zm0 0"/><path fill="#1c2638" d="m384 274.238-29.422-20.496L384 233.887Zm0 0"/><path fill="#1c2537" d="m285.684 199.023 26.675 19.247-31.296 26.484Zm0 0"/><path fill="#1c2638" d="m320.574 242.535-23.488 13.778-16.024-11.56Zm0 0"/><path fill="#f04e52" d="m162.465 27.617-16.516 6.88L133.656 0Zm0 0"/><path fill="#f04e52" d="m145.95 34.496 16.515-6.879 3.43 28.414ZM165.895 56.031l-3.43-28.414 18.183 25.555Zm0 0"/><path fill="#db6f6e" d="m192.238 105.11-13.726-17.973 31.047 13.992Zm0 0"/><path fill="#9fc9b9" d="m172.953 120.578-4.234-6.125 18.715-2.59Zm0 0"/><path fill="#a6c4b4" d="m168.719 114.453 4.234 6.125-24.582 13.633Zm0 0"/><path fill="#1c2537" d="m126.313 111.656-.383 30.168-22.227-14.351Zm0 0"/><path fill="#1c2537" d="m103.703 127.473 22.227 14.351-25.953 9.703ZM125.93 141.824l.382-30.168 22.06 22.555Zm0 0"/><path fill="#1c2537" d="m107.293 109.367 19.02 2.29-22.61 15.816Zm0 0"/><path fill="#e95659" d="m107.293 109.367 17.289-15.097 1.73 17.386Zm0 0"/><path fill="#f04e52" d="m19.5 29.422-2.414 9-17.129.988ZM0 0l40.035 19.184L19.5 29.422Zm0 0"/><path fill="#f14e52" d="M40.035 19.184 0 0h53.578Zm0 0"/><path fill="#1c2638" d="m32.242 78.793-10.96 16.95-5.458-9.919Zm0 0"/><path fill="#f04e52" d="m0 126.473 21.281-30.73-4.597 41.003Zm0 0"/><path fill="#1c2638" d="m39.617 92.91-18.336 2.832 10.961-16.949ZM.219 81.375l13.39-10.086 2.215 14.535Zm0 0"/><path fill="#f04e52" d="M17.086 38.422 4.848 48.09l-4.891-8.68Zm0 0"/><path fill="#f04e52" d="m21.168 47.863-16.32.227 12.238-9.668Zm0 0"/><path fill="#1c2638" d="M4.848 48.09-.016 66.496-.043 39.41Zm0 0"/><path fill="#ed4c50" d="m90.477 239.992 21.296 21.375-25.722-3.004Zm0 0"/><path fill="#1c2537" d="m151.23 200.582 3.942 4.273-8.098 1.622Zm0 0"/><path fill="#ec5457" d="m151.23 200.582-12.636-22.184 19.922 16.422Zm0 0"/><path fill="#1c2637" d="m155.172 204.855-13.918 20.504 5.82-18.882Zm0 0"/><path fill="#9a222b" d="m94.008 196 24.039 32.82-23.168-6.875Zm0 0"/><path fill="#f04f52" d="m224.984 237.453-7.129-14.316 16.09-5.028Zm0 0"/><path fill="#f04f53" d="m217.855 223.137 2.266-14.504 13.824 9.476Zm0 0"/><path fill="#e8575a" d="m220.121 208.633-9.52 6.207-4.519-12.059Zm0 0"/><path fill="#ef5154" d="m217.855 223.137-7.253-8.297 9.52-6.207Zm0 0"/><path fill="#96deca" d="m210.602 214.84 7.253 8.297-14.296 14.406Zm0 0"/><path fill="#95ddc9" d="m158.516 194.82 12.523 12.004-15.867-1.969Zm0 0"/><path fill="#202637" d="m151.23 200.582 7.286-5.762-3.344 10.035Zm0 0"/><path fill="#9d232c" d="m90.477 239.992-8.672-20.387 13.074 2.34Zm0 0"/><path fill="#ef4d51" d="m81.805 219.605 8.672 20.387-27.059-1.156Zm0 0"/><path fill="#f04d51" d="m63.418 238.836 27.059 1.156-4.426 18.371ZM34.586 217.773l34.398-17.843-5.566 38.906Zm0 0"/><path fill="#c6383f" d="m40.043 184.605 30.574-6.363-1.633 21.688Zm0 0"/><path fill="#9b222b" d="m70.617 178.242-16.246-23.55 28.516-15.63Zm0 0"/><path fill="#9a232c" d="m76.473 175.363-5.856 2.88 12.27-39.18Zm0 0"/><path fill="#9b222b" d="m40.516 137.09 25.011-5.68-11.156 23.281Zm0 0"/><path fill="#ae3b43" d="m29.855 158.773 6.43-22.257 4.23.574Zm0 0"/><path fill="#1c2638" d="m36.285 136.516-6.43 22.257-13.171-22.027Zm0 0"/><path fill="#1c2537" d="m301.676 81.527 9.504 37.52-47.008 10.18Zm0 0"/><path fill="#1c2637" d="m301.676 81.527-41.328 21.137 19.308-26.621Zm0 0"/><path fill="#1c2638" d="m260.348 102.664 41.328-21.137-37.504 47.7ZM260.348 102.664l-13.891-17.621 5.293-7.055ZM231.492 71.504l-7.375-21.067L253.5 64.543ZM231.492 71.504l14.965 13.539-3.805 4.05Zm0 0"/><path fill="#1c2638" d="m251.75 77.988-20.258-6.484 22.008-6.961Zm0 0"/><path fill="#1c2638" d="m246.457 85.043-14.965-13.54 20.258 6.485Zm0 0"/><path fill="#f04e52" d="m246.414 9.672-39.348 12.883L192.254 0ZM221.531 35.129l-27.68 19.312 13.215-31.886Zm0 0"/><path fill="#f04e52" d="m246.414 9.672-24.883 25.457-14.465-12.574ZM193.852 54.441l27.68-19.312 2.585 15.309ZM384 19.668l-28.082-7.64L384 0Zm0 0"/><path fill="#f04f52" d="M355.918 12.027 384 19.668l-30.227-2.453Zm0 0"/><path fill="#1c2638" d="m384 19.668-15.344 15.48-14.883-17.933ZM341.734 140.7l-30.554-21.653 33.058-31.813Zm0 0"/><path fill="#1c2537" d="m311.18 119.047-9.504-37.52 42.562 5.707Zm0 0"/><path fill="#1c2638" d="M384 57.984v57.579l-39.762-28.329Zm0 0"/><path fill="#1c2638" d="m384 115.563-42.266 25.136 2.504-53.465ZM354.578 253.742l-8.164-34.394L384 233.887ZM354.578 253.742l-34.004-11.207 25.84-23.187ZM326.992 185.496l57.012-5.789-37.59 39.64ZM99.977 151.527l25.953-9.703.406 28.906Zm0 0"/><path fill="#eb5457" d="m124.496 187.746-24.52-36.219 26.36 19.203Zm0 0"/><path fill="#1c2638" d="m138.594 178.398 6.285-18.66 5.152 10.797Zm0 0"/><path fill="#95dfcb" d="m144.879 159.738 9.613.535-4.46 10.262Zm0 0"/><path fill="#1c2638" d="m144.879 159.738-6.285 18.66-12.258-7.668Zm0 0"/><path fill="#1c2638" d="m125.93 141.824 18.949 17.914-18.543 10.992ZM208.758 120.914l6.695-8.812 14.492 14.363Zm0 0"/><path fill="#95decb" d="m208.758 120.914-14.297 21.813-7.027-30.864Zm0 0"/><path fill="#1c2638" d="m192.238 105.11 16.52 15.804-21.324-9.05ZM208.758 120.914l-16.52-15.805 23.215 6.993Zm0 0"/><path fill="#f04d51" d="m0 384 50.945-35.707L76.902 384Zm0 0"/><path fill="#f04d51" d="M50.945 348.293 0 384v-55.414ZM111.773 261.367l-10.488 18.418-15.234-21.422Zm0 0"/><path fill="#f04e52" d="M34.523 258.652 0 281.656v-43.812ZM0 281.656l34.523-23.004 9.868 44.649Zm0 0"/><path fill="#f04e52" d="m34.586 217.773-.063 40.88L0 237.842Zm0 0"/><path fill="#f04d51" d="m0 281.656 44.39 21.645L0 328.586Zm0 0"/><path fill="#f04e52" d="m63.418 238.836-28.895 19.816.063-40.879Zm0 0"/><path fill="#1d2637" d="m199.535 297.703-13.734 31.61-16.844-16.497Zm0 0"/><path fill="#f04e52" d="m185.8 329.313 13.735-31.61 1.383 22.567Zm0 0"/><path fill="#1c2638" d="m127.977 362.543 28.34-2.316L141.261 384Zm0 0"/><path fill="#f04d51" d="m100.152 317.496 16.305-4.832-1.117 22.672ZM78.66 327.809l24.121 13.086-13.601 14.359ZM78.66 327.809l21.492-10.313 2.63 23.399Zm0 0"/><path fill="#f04d51" d="M100.152 317.496 78.66 327.81l5.082-27.934ZM265.684 379.133l-15.54 4.8.805-25.644Zm0 0"/><path fill="#1c2537" d="m267.684 340.867-16.735 17.422-18.351-21.598Zm0 0"/><path fill="#1c2637" d="m267.684 340.867-2 38.266-14.735-20.844Zm0 0"/><path fill="#1c2537" d="m265.684 379.133 2-38.266 20.363 20.77Zm0 0"/><path fill="#f04d51" d="m383.992 327.602.082 27.414-28.879-22.13Zm0 0"/><path fill="#1c2537" d="m347.367 343.488-9.441 16.094-19.656-16.676Zm0 0"/><path fill="#1c2537" d="m337.926 359.582 9.441-16.094 18.52 24.336Zm0 0"/><path fill="#f04e52" d="m362.04 313.824 21.956-5.008-.004 18.786Zm0 0"/><path fill="#1c2638" d="m263.89 235.965 21.794-36.942-4.622 45.73Zm0 0"/><path fill="#1c2637" d="m285.684 199.023-21.793 36.942-16.27-34.23Zm0 0"/><path fill="#1c2638" d="m366.46 298.184-9.097-19.282L384 274.238ZM383.996 308.816l-17.535-10.632L384 274.238Zm0 0"/><path fill="#f04e52" d="m366.46 298.184 17.536 10.632-21.957 5.008Zm0 0"/><path fill="#1c2638" d="m384 274.238-26.637 4.664-2.785-25.16Zm0 0"/><path fill="#f04e52" d="m180.648 53.172-18.183-25.555L192.254 0Zm0 0"/><path fill="#1c2638" d="m193.852 54.441-12.903 11.793-.3-13.062Zm0 0"/><path fill="#1c2638" d="m180.95 66.234-15.055-10.203 14.753-2.86ZM180.95 66.234l12.902-11.793 13.425 14.653Zm0 0"/><path fill="#cd8681" d="m182.207 82.32-1.258-16.086 26.328 2.86Zm0 0"/><path fill="#1c2638" d="M224.117 50.438 216.613 82.3l-9.336-13.207ZM216.613 82.3l-34.406.02 25.07-13.226Zm0 0"/><path fill="#1c2638" d="M231.492 71.504 216.613 82.3l7.504-31.864ZM216.613 82.3l14.88-10.796 11.16 17.59ZM226.16 98.777l-10.707 13.325-5.894-10.973Zm0 0"/><path fill="#e85b5d" d="m216.613 82.3 9.547 16.477-16.601 2.352Zm0 0"/><path fill="#baa59a" d="m124.582 94.27 35.672-6.418 10.101 20.859Zm0 0"/><path fill="#e26464" d="m151.188 68.18 9.066 19.672-35.672 6.418Zm0 0"/><path fill="#1c2638" d="m170.355 108.71 21.883-3.6-23.52 9.343Zm0 0"/><path fill="#e75c5e" d="m170.355 108.71 8.157-21.573 13.726 17.972Zm0 0"/><path fill="#f04e52" d="m145.95 34.496-22.837 17.758-5.425-24.524Zm0 0"/><path fill="#f04e52" d="m123.113 52.254 22.836-17.758 1.606 19.918Zm0 0"/><path fill="#1c2638" d="m151.188 68.18-28.075-15.926 24.442 2.16Zm0 0"/><path fill="#1c2638" d="m123.113 52.254 28.075 15.926-43.72-.625Zm0 0"/><path fill="#99d8c5" d="m194.46 142.727-21.507-22.149 14.48-8.715Zm0 0"/><path fill="#9ad7c4" d="m171.578 143.863 1.375-23.285 21.508 22.149Zm0 0"/><path fill="#afb5a8" d="m154.492 160.273-4.715-22.875 21.801 6.465Zm0 0"/><path fill="#96ddc9" d="m149.777 137.398 23.176-16.82-1.375 23.285Zm0 0"/><path fill="#97d9c6" d="m144.879 159.738 4.898-22.34 4.715 22.875Zm0 0"/><path fill="#96dcc9" d="m172.953 120.578-23.176 16.82-1.406-3.187Zm0 0"/><path fill="#1c2537" d="m149.777 137.398-23.847 4.426 22.441-7.613Zm0 0"/><path fill="#1c2537" d="m149.777 137.398-4.898 22.34-18.95-17.914Zm0 0"/><path fill="#c4948d" d="m151.188 68.18-26.606 26.09-17.113-26.715Zm0 0"/><path fill="#d67774" d="m124.582 94.27-17.289 15.097-12.031-17.039Zm0 0"/><path fill="#b4ada1" d="m107.469 67.555 17.113 26.715-29.32-1.942Zm0 0"/><path fill="#f04e52" d="m17.086 38.422 2.414-9 10.387 12.922Zm0 0"/><path fill="#f04e52" d="m19.5 29.422 13.762 5.05-3.375 7.872Zm0 0"/><path fill="#f04e52" d="m19.5 29.422 20.535-10.238-6.773 15.289Zm0 0"/><path fill="#1c2638" d="m38.621 67.426-6.379 11.367-18.633-7.504Zm0 0"/><path fill="#f04e52" d="m44.836 41.824-11.574-7.351 6.773-15.29Zm0 0"/><path fill="#ef4f53" d="m44.836 41.824-4.8-22.64 24.503.054Zm0 0"/><path fill="#9bd5c3" d="m78.465 67.172 29.004.383-29.235 5.804Zm0 0"/><path fill="#e84c50" d="M21.281 95.742 0 126.472l-.008-29.956Zm0 0"/><path fill="#1c2638" d="m39.617 92.91-4.422 12.598-13.914-9.766ZM21.281 95.742l13.914 9.766-18.511 31.238Zm0 0"/><path fill="#1c2637" d="m35.195 105.508 1.09 31.008-19.601.23Zm0 0"/><path fill="#da4248" d="m36.285 136.516-1.09-31.008 5.32 31.582Zm0 0"/><path fill="#e65f60" d="m40.957 105.68-1.34-12.77 32.098-.66Zm0 0"/><path fill="#9d232c" d="m40.516 137.09.441-31.41 24.57 25.73Zm0 0"/><path fill="#9f2730" d="m35.195 105.508 5.762.172-.441 31.41Zm0 0"/><path fill="#222638" d="m40.957 105.68-5.762-.172 4.422-12.598Zm0 0"/><path fill="#ed5255" d="M-.016 66.496 13.61 71.29.22 81.375Zm0 0"/><path fill="#df5c5e" d="m40.957 105.68 30.758-13.43 1.59 16.996Zm0 0"/><path fill="#95deca" d="m171.04 206.824-4.47 8.086-11.398-10.055Zm0 0"/><path fill="#96dbc8" d="m166.57 214.91-25.316 10.45 13.918-20.505Zm0 0"/><path fill="#1c2638" d="m111.773 261.367 6.274-32.547 6.379 27.637Zm0 0"/><path fill="#a82931" d="m118.047 228.82-6.274 32.547-21.296-21.375Zm0 0"/><path fill="#9a222b" d="m118.047 228.82-27.57 11.172 4.402-18.047Zm0 0"/><path fill="#1c2537" d="m141.254 225.36-6.64-2.258 12.46-16.625Zm0 0"/><path fill="#9b222b" d="M81.805 219.605 94.008 196l.87 25.945Zm0 0"/><path fill="#1c2537" d="m134.613 223.102-6.972-9.88 19.433-6.745ZM127.64 213.223l6.973 9.879-16.566 5.718Zm0 0"/><path fill="#bf353c" d="m94.008 196 33.633 17.223-9.594 15.597Zm0 0"/><path fill="#1c2638" d="m227.625 297.23-21.7-15.699 29.286-9.5Zm0 0"/><path fill="#1c2638" d="m205.926 281.531 21.699 15.7-28.09.472ZM203.559 237.543l-5.926 21.184-18.762-24.48Zm0 0"/><path fill="#95dfcb" d="m210.602 214.84-13.551-.824 9.031-11.235Zm0 0"/><path fill="#98d9c6" d="m197.05 214.016-8.038-11.457 17.07.222Zm0 0"/><path fill="#95dfcb" d="m197.05 214.016 13.552.824-7.043 22.703Zm0 0"/><path fill="#1c2638" d="m197.05 214.016 6.509 23.527-24.688-3.297Zm0 0"/><path fill="#ed5256" d="m171.04 206.824 3.706-14.437 14.266 10.172Zm0 0"/><path fill="#93d4c2" d="m171.04 206.824-12.524-12.004 16.23-2.433Zm0 0"/><path fill="#dc4349" d="m54.371 154.691-24.516 4.082 10.66-21.683Zm0 0"/><path fill="#e7494d" d="m54.371 154.691-14.328 29.914-10.188-25.832Zm0 0"/><path fill="#ca3e44" d="m40.043 184.605 14.328-29.914 16.246 23.551Zm0 0"/><path fill="#f04e52" d="m16.684 136.746 13.171 22.027L0 152.055Zm0 0"/><path fill="#1c2637" d="m285.836 65.094 15.84 16.433-22.02-5.484Zm0 0"/><path fill="#1c2638" d="m264.172 129.227-26.527-19 22.703-7.563ZM229.945 126.465l7.7-16.238 26.527 19Zm0 0"/><path fill="#9bd5c3" d="m215.063 172.098-7.676 16.714.117-22.515Zm0 0"/><path fill="#1c2637" d="m326.992 185.496-41.308 13.527 12.304-41.414Zm0 0"/><path fill="#1c2638" d="m285.684 199.023 41.308-13.527-14.633 32.774ZM246.457 85.043l13.89 17.621-17.695-13.57ZM224.117 50.438l40.57-4.965-11.187 19.07Zm0 0"/><path fill="#f04e52" d="m221.531 35.129 43.156 10.344-40.57 4.965Zm0 0"/><path fill="#f04e52" d="M264.688 45.473 221.53 35.129l24.883-25.457ZM353.773 17.215 324.993 0l30.925 12.027Zm0 0"/><path fill="#1c2638" d="m344.238 87.234-42.562-5.707 32.554-38.535Zm0 0"/><path fill="#1c2638" d="M344.238 87.234 334.23 42.992l21.942 2.555Zm0 0"/><path fill="#1c2638" d="m334.23 42.992 19.543-25.777 2.399 28.332ZM310.047 27.75l24.183 15.242-32.554 38.535Zm0 0"/><path fill="#ce3c42" d="m68.746 127.34 14.14 11.722-17.359-7.652Zm0 0"/><path fill="#1d2537" d="m82.887 139.063-14.14-11.723 15.44-4.656Zm0 0"/><path fill="#1c2537" d="m84.188 122.684-15.442 4.656 4.559-18.094Zm0 0"/><path fill="#c3383e" d="m40.957 105.68 27.79 21.66-3.22 4.07Zm0 0"/><path fill="#1c2637" d="m68.746 127.34-27.789-21.66 32.348 3.566Zm0 0"/><path fill="#f04d51" d="m101.285 279.785-32.305-6.734 17.07-14.688Zm0 0"/><path fill="#f04e52" d="m68.98 273.05-5.562-34.214 22.633 19.527Zm0 0"/><path fill="#f04e52" d="m68.98 273.05-34.457-14.398 28.895-19.816Zm0 0"/><path fill="#f04d51" d="M68.98 273.05 44.39 303.3l-9.867-44.648Zm0 0"/><path fill="#1c2537" d="m290.04 384.012-24.356-4.88 22.363-17.495Zm0 0"/><path fill="#1c2638" d="m199.535 297.703 47.23 18.703-14.167 20.285Zm0 0"/><path fill="#1d2537" d="m246.766 316.406 20.918 24.461-35.086-4.176Zm0 0"/><path fill="#1c2537" d="m246.766 316.406-47.23-18.703 28.089-.473Zm0 0"/><path fill="#ea4a4f" d="m267.684 340.867 19.605-18.898.758 39.668Zm0 0"/><path fill="#eb4b4f" d="m246.766 316.406 40.523 5.563-19.605 18.898Zm0 0"/><path fill="#1c2638" d="m365.832 383.984-10.168-7.515 10.223-8.645Zm0 0"/><path fill="#1c2637" d="m355.664 376.469-17.738-16.887 27.96 8.242Zm0 0"/><path fill="#1c2638" d="m354.578 253.742-21.348 22.742-12.656-33.949Zm0 0"/><path fill="#f04e52" d="m323.64 292.52 9.59-16.036 16.278 14.297Zm0 0"/><path fill="#1c2638" d="m333.23 276.484 24.133 2.418-7.855 11.88Zm0 0"/><path fill="#1c2638" d="m357.363 278.902-24.133-2.418 21.348-22.742Zm0 0"/><path fill="#9b222b" d="m287.29 321.969 15.616 15.52-14.86 24.148Zm0 0"/><path fill="#97222b" d="m302.906 337.488-15.617-15.52 6.234-8.777Zm0 0"/><path fill="#eb5356" d="m297.086 256.313-25.309 1.882 9.286-13.441Zm0 0"/><path fill="#ef5054" d="m271.777 258.195-7.886-22.23 17.171 8.789Zm0 0"/><path fill="#1c2537" d="m263.89 235.965-19.05-10.434 2.781-23.797Zm0 0"/><path fill="#f04e52" d="m244.84 225.531-19.856 11.922 8.961-19.344Zm0 0"/><path fill="#1c2537" d="m247.621 201.734-2.781 23.797-10.895-7.422Zm0 0"/><path fill="#f04f53" d="m310.828 264.313-25.2 19.718 11.458-27.719Zm0 0"/><path fill="#ef4f53" d="m310.828 264.313 22.402 12.171-9.59 16.036Zm0 0"/><path fill="#1c2638" d="m310.828 264.313-13.742-8 23.488-13.778ZM333.23 276.484l-22.402-12.171 9.746-21.778ZM165.895 56.031 151.187 68.18l-3.632-13.766Zm0 0"/><path fill="#afb5a8" d="m182.207 82.32 34.406-.02-7.054 18.829Zm0 0"/><path fill="#e36263" d="m178.512 87.137 3.695-4.817 27.352 18.809Zm0 0"/><path fill="#1c2638" d="m226.16 98.777 11.485 11.45-22.192 1.875ZM215.453 112.102l22.192-1.875-7.7 16.238ZM168.79 68.918l-2.895-12.887 15.054 10.203Zm0 0"/><path fill="#1c2638" d="m168.79 68.918-17.602-.738 14.707-12.149Zm0 0"/><path fill="#d87572" d="m151.188 68.18 17.601.738-8.535 18.934Zm0 0"/><path fill="#afb5a8" d="m71.715 92.25-25.61-11.371 32.13-7.52Zm0 0"/><path fill="#ca8781" d="m39.617 92.91 6.488-12.031 25.61 11.371Zm0 0"/><path fill="#d57875" d="M46.105 80.879 39.617 92.91l-7.375-14.117Zm0 0"/><path fill="#e85c5d" d="m38.621 67.426 7.484 13.453-13.863-2.086Zm0 0"/><path fill="#98d9c6" d="m46.105 80.879-7.484-13.453 39.613 5.933Zm0 0"/><path fill="#f04e52" d="m44.836 41.824-14.95.52 3.376-7.871ZM82.52 45.473 64.54 19.238l53.147 8.492ZM82.52 45.473l-37.684-3.649 19.703-22.586Zm0 0"/><path fill="#ed5356" d="M123.113 52.254 82.52 45.473l35.168-17.743Zm0 0"/><path fill="#1c2638" d="m44.836 41.824 37.684 3.649-43.762 10.164ZM82.52 45.473l-4.055 21.699-39.707-11.535Zm0 0"/><path fill="#1c2637" d="m82.52 45.473 40.593 6.78-15.644 15.302Zm0 0"/><path fill="#1c2638" d="m78.465 67.172 4.055-21.7 24.949 22.083ZM4.848 48.09l4.59 7.347-9.454 11.06Zm0 0"/><path fill="#1c2638" d="m9.438 55.438-4.59-7.348 16.32-.227Zm0 0"/><path fill="#f04e52" d="m197.05 214.016-30.48.894 4.47-8.086Zm0 0"/><path fill="#ed5255" d="m197.05 214.016-26.01-7.192 17.972-4.265Zm0 0"/><path fill="#95dfcb" d="m197.05 214.016-18.179 20.23-12.3-19.336Zm0 0"/><path fill="#1c2638" d="m118.047 228.82 16.484 12.887-10.105 14.75Zm0 0"/><path fill="#1e2537" d="m127.64 213.223-3.144-25.477 22.578 18.73Zm0 0"/><path fill="#eb4b4f" d="m124.496 187.746 26.734 12.836-4.156 5.895Zm0 0"/><path fill="#f04e52" d="m151.23 200.582-26.734-12.836 14.098-9.348Zm0 0"/><path fill="#1c2637" d="m205.926 281.531-6.39 16.172-19.153-15.293Zm0 0"/><path fill="#1c2638" d="m197.633 258.727 17.96-13.637 19.618 26.941Zm0 0"/><path fill="#ef4f53" d="M29.855 158.773 0 192.914v-40.86Zm0 0"/><path fill="#1c2537" d="m236.066 144.36-6.12-17.895 34.226 2.762Zm0 0"/><path fill="#1c2638" d="m254.875 167.371 43.113-9.762-12.304 41.414ZM219.555 197.129l6.824-16.387 21.242 20.992Zm0 0"/><path fill="#1c2638" d="m207.387 188.813 18.992-8.07-6.824 16.386ZM215.063 172.098l11.316 8.644-18.992 8.07ZM384 57.984l-39.762 29.25 11.934-41.687Zm0 0"/><path fill="#ef4d51" d="m108.984 297.043 7.473 15.621-16.305 4.832Zm0 0"/><path fill="#f04d51" d="m108.984 297.043-8.832 20.453-16.41-17.621Zm0 0"/><path fill="#1c2638" d="m116.457 312.664-7.473-15.621 18.317 9.086Zm0 0"/><path fill="#f04d51" d="m101.285 279.785 7.7 17.258-25.243 2.832Zm0 0"/><path fill="#1c2638" d="m122.996 273.91-14.012 23.133-7.699-17.258ZM108.984 297.043l35.454-7.492-17.137 16.578Zm0 0"/><path fill="#1c2638" d="m144.438 289.55-35.454 7.493 14.012-23.133Zm0 0"/><path fill="#f04d51" d="m68.98 273.05 32.305 6.735-17.543 20.09Zm0 0"/><path fill="#f04d51" d="m68.98 273.05 14.762 26.825-39.351 3.426Zm0 0"/><path fill="#1c2638" d="m115.34 335.336 28.8-2.531-29.538 12.625Zm0 0"/><path fill="#1c2638" d="m144.14 332.805-16.163 29.738-13.375-17.113ZM187.387 358.555l-19.028-20.493 17.442-8.75Zm0 0"/><path fill="#1c2638" d="m168.36 338.063.597-25.247 16.844 16.497Zm0 0"/><path fill="#922d36" d="m265.684 379.133 24.355 4.879-39.894-.078Zm0 0"/><path fill="#9b222b" d="m307.957 359.582-17.918 24.43-1.992-22.375Zm0 0"/><path fill="#ae2c34" d="m307.957 359.582-5.05-22.094 15.363 5.418Zm0 0"/><path fill="#9b222b" d="m302.906 337.488 5.051 22.094-19.91 2.055Zm0 0"/><path fill="#ec4b4f" d="M337.926 359.582h-29.969l10.313-16.676Zm0 0"/><path fill="#f04d51" d="m259.094 293.95-31.469 3.28 7.586-25.199ZM259.094 293.95l-12.328 22.456-19.141-19.176Zm0 0"/><path fill="#1c2537" d="m262.305 269.32-3.211 24.63-23.883-21.919Zm0 0"/><path fill="#ed4c50" d="m259.094 293.95 28.195 28.019-40.523-5.563Zm0 0"/><path fill="#1c2637" d="m285.629 284.031-26.535 9.918 3.21-24.629Zm0 0"/><path fill="#1c2537" d="m259.094 293.95 26.535-9.919 7.894 29.16Zm0 0"/><path fill="#1c2537" d="m287.29 321.969-28.196-28.02 34.43 19.242Zm0 0"/><path fill="#1c2638" d="m384.074 355.016-.156-.118-28.723-22.011Zm0 0"/><path fill="#1c2637" d="m383.918 354.898-36.55-11.41 7.827-10.601Zm0 0"/><path fill="#1c2638" d="m347.367 343.488 36.551 11.41-18.031 12.926Zm0 0"/><path fill="#1c2638" d="m384 384-18.168-.016.055-16.16Zm0 0"/><path fill="#1c2638" d="M383.918 354.898 384 384l-18.113-16.176Zm0 0"/><path fill="#f04d51" d="M355.664 376.469 354.641 384l-34.278-.02Zm0 0"/><path fill="#ed4d51" d="m354.64 384 1.024-7.531 10.168 7.515Zm0 0"/><path fill="#1c2637" d="m340.418 325.734 6.95 17.754-29.098-.582Zm0 0"/><path fill="#1c2537" d="m340.418 325.734 14.777 7.153-7.828 10.601Zm0 0"/><path fill="#ef5053" d="m271.777 258.195 13.852 25.836-23.324-14.71Zm0 0"/><path fill="#f04e52" d="m285.629 284.031-13.852-25.836 25.309-1.882Zm0 0"/><path fill="#1c2637" d="m235.21 272.031 9.692-16.922 17.403 14.211Zm0 0"/><path fill="#ef4f53" d="m244.902 255.11 26.875 3.085-9.472 11.125Zm0 0"/><path fill="#ed4f53" d="m271.777 258.195-26.875-3.086 18.989-19.144Zm0 0"/><path fill="#f04e52" d="m244.902 255.11-.062-29.579 19.05 10.434Zm0 0"/><path fill="#f04d51" d="m303.832 297.063 6.996-32.75 12.813 28.207Zm0 0"/><path fill="#ed4b50" d="m303.832 297.063 19.809-4.543-8.711 14.687Zm0 0"/><path fill="#9b222b" d="m285.629 284.031 18.203 13.031-10.309 16.13Zm0 0"/><path fill="#da4449" d="m310.828 264.313-6.996 32.75-18.203-13.032Zm0 0"/><path fill="#c3363d" d="m293.523 313.191 10.309-16.128 11.098 10.144Zm0 0"/><path fill="#1c2638" d="m242.652 89.094 17.696 13.57-22.703 7.563ZM242.652 89.094l-5.007 21.133-11.485-11.45Zm0 0"/><path fill="#ec5356" d="m242.652 89.094-16.492 9.683-9.547-16.476Zm0 0"/><path fill="#e9585a" d="m168.79 68.918 13.417 13.402-3.695 4.817Zm0 0"/><path fill="#d27d79" d="m182.207 82.32-13.418-13.402 12.16-2.684Zm0 0"/><path fill="#1c2638" d="m38.758 55.637-8.871-13.293 14.949-.52Zm0 0"/><path fill="#a1ccbb" d="m38.621 67.426 39.844-.254-.23 6.187Zm0 0"/><path fill="#1c2638" d="m78.465 67.172-39.844.254.137-11.79ZM9.438 55.438l6.48 9.257-15.934 1.801Zm0 0"/><path fill="#f04e52" d="m-.016 66.496 15.934-1.8-2.309 6.593Zm0 0"/><path fill="#f04e52" d="m15.918 64.695 22.703 2.73L13.61 71.29Zm0 0"/><path fill="#1c2638" d="m38.621 67.426-22.703-2.73 22.84-9.06Zm0 0"/><path fill="#1c2638" d="m15.918 64.695 5.25-16.832 17.59 7.774Zm0 0"/><path fill="#1c2638" d="m15.918 64.695-6.48-9.257 11.73-7.575Zm0 0"/><path fill="#1c2537" d="m134.613 223.102-.082 18.605-16.484-12.887Zm0 0"/><path fill="#1c2637" d="m197.633 258.727 8.293 22.804-25.543.88Zm0 0"/><path fill="#1c2638" d="m205.926 281.531-8.293-22.804 37.578 13.304ZM197.633 258.727l-34.012 1.945 15.25-26.426Zm0 0"/><path fill="#1c2638" d="m163.621 260.672 34.012-1.945-17.25 23.683ZM215.594 245.09l2.261-21.953 7.13 14.316Zm0 0"/><path fill="#1d2739" d="m217.855 223.137-2.261 21.953-12.035-7.547Zm0 0"/><path fill="#1c2638" d="m215.594 245.09-17.961 13.637 5.926-21.184Zm0 0"/><path fill="#9ad7c4" d="m217.883 139.07-23.422 3.657 14.297-21.813Zm0 0"/><path fill="#1c2638" d="m229.945 126.465-12.062 12.605-9.125-18.156ZM236.066 144.36l-18.183-5.29 12.062-12.605Zm0 0"/><path fill="#99d9c6" d="m217.883 139.07-10.38 27.227-13.042-23.57Zm0 0"/><path fill="#1c2638" d="m254.875 167.371 30.809 31.652-38.063 2.711ZM254.875 167.371l9.297-38.144 33.816 28.382ZM330.41 23.246l3.82 19.746-24.183-15.242Zm0 0"/><path fill="#f04e52" d="m330.41 23.246-20.363 4.504L324.992 0Zm0 0"/><path fill="#1c2637" d="m127.3 306.129 16.84 26.676-28.8 2.53Zm0 0"/><path fill="#f04d51" d="m116.457 312.664 10.844-6.535-11.961 29.207Zm0 0"/><path fill="#1c2638" d="m156.316 360.227 12.043-22.164 19.028 20.492ZM168.36 338.063l-24.22-5.258 24.817-19.989ZM144.14 332.805l12.176 27.422-28.34 2.316Zm0 0"/><path fill="#1c2638" d="m156.316 360.227-12.175-27.422 24.218 5.257ZM168.957 312.816l-24.52-23.265 35.946-7.14Zm0 0"/><path fill="#1c2537" d="m199.535 297.703-30.578 15.113 11.426-30.406Zm0 0"/><path fill="#1c2638" d="m180.383 282.41-35.946 7.14 19.184-28.878Zm0 0"/><path fill="#1c2638" d="m122.996 273.91 16.61-12.828 4.832 28.469ZM122.996 273.91l-11.223-12.543 12.653-4.91Zm0 0"/><path fill="#1c2638" d="m111.773 261.367 11.223 12.543-21.71 5.875ZM139.605 261.082l-15.18-4.625 10.106-14.75Zm0 0"/><path fill="#ef4d51" d="m320.363 383.98-12.406-24.398h29.969Zm0 0"/><path fill="#f04d51" d="m355.664 376.469-35.3 7.511 17.562-24.398Zm0 0"/><path fill="#c6383f" d="m307.957 359.582 12.406 24.398-30.324.032Zm0 0"/><path fill="#1c2638" d="m366.46 298.184-16.952-7.403 7.855-11.879Zm0 0"/><path fill="#f04e52" d="m362.04 313.824-12.532-23.043 16.953 7.403Zm0 0"/><path fill="#1c2637" d="m314.738 325.93 25.68-.196-22.148 17.172Zm0 0"/><path fill="#ab2b33" d="m302.906 337.488 11.832-11.558 3.532 16.976Zm0 0"/><path fill="#bb3239" d="m314.738 325.93-21.215-12.739 21.407-5.984Zm0 0"/><path fill="#ae2c34" d="m314.738 325.93-11.832 11.558-9.383-24.297Zm0 0"/><path fill="#f04e52" d="m347.707 316.18 14.332-2.356-6.844 19.063Zm0 0"/><path fill="#f04e52" d="m340.418 325.734 7.289-9.554 7.488 16.707ZM347.707 316.18l1.8-25.399 12.532 23.043ZM244.84 225.531l-16.434 19.422-3.422-7.5Zm0 0"/><path fill="#f04d51" d="m244.902 255.11-16.496-10.157 16.434-19.422Zm0 0"/><path fill="#1c2638" d="m228.406 244.953-12.812.137 9.39-7.637Zm0 0"/><path fill="#1c2638" d="m215.594 245.09 12.812-.137 6.805 27.078Zm0 0"/><path fill="#1c2637" d="m228.406 244.953 16.496 10.156-9.691 16.922Zm0 0"/><path fill="#e9595b" d="m168.79 68.918 9.722 18.219-18.258.715Zm0 0"/><path fill="#ef5054" d="m160.254 87.852 18.258-.715-8.157 21.574Zm0 0"/><path fill="#1c2637" d="m141.254 225.36-6.723 16.347.082-18.605ZM141.254 225.36l6.875 19.648-13.598-3.301Zm0 0"/><path fill="#b22e36" d="m124.496 187.746 3.145 25.477L94.008 196Zm0 0"/><path fill="#1c2638" d="m226.379 180.742 28.496-13.37-7.254 34.362ZM334.23 42.992l-3.82-19.746 23.363-6.031Zm0 0"/><path fill="#f04e52" d="M330.41 23.246 324.992 0l28.781 17.215Zm0 0"/><path fill="#1c2537" d="m144.14 332.805.298-43.254 24.519 23.265Zm0 0"/><path fill="#1c2637" d="m127.3 306.129 17.138-16.578-.297 43.254Zm0 0"/><path fill="#1c2638" d="m139.605 261.082-16.609 12.828 1.43-17.453Zm0 0"/><path fill="#f04d51" d="m347.707 316.18-18.715-1.887 20.516-23.512Zm0 0"/><path fill="#f04d51" d="m328.992 314.293-5.351-21.773 25.867-1.739Zm0 0"/><path fill="#e3474b" d="m323.64 292.52 5.352 21.773-14.062-7.086Zm0 0"/><path fill="#1c2637" d="m328.992 314.293-14.254 11.637.192-18.723Zm0 0"/><path fill="#1c2637" d="m314.738 325.93 14.254-11.637 11.426 11.441Zm0 0"/><path fill="#ef4e52" d="m328.992 314.293 18.715 1.887-7.289 9.554Zm0 0"/><path fill="#95deca" d="m166.57 214.91-12.48 26.805-12.836-16.356Zm0 0"/><path fill="#1c2637" d="m154.09 241.715-5.961 3.293-6.875-19.649Zm0 0"/><path fill="#1c2638" d="m178.871 234.246-24.781 7.469 12.48-26.805ZM148.129 245.008l5.96-3.293 9.532 18.957ZM163.621 260.672l-9.531-18.957 24.781-7.469ZM220.531 164.504l-2.648-25.434 18.183 5.29Zm0 0"/><path fill="#a7c2b3" d="m217.883 139.07 2.648 25.434-13.027 1.793Zm0 0"/><path fill="#9ad7c4" d="m207.504 166.297 13.027-1.793-5.469 7.594Zm0 0"/><path fill="#1c2638" d="m220.531 164.504 5.848 16.238-11.316-8.644ZM144.438 289.55l-4.833-28.468 24.016-.41Zm0 0"/><path fill="#1c2638" d="m139.605 261.082 8.524-16.074 15.492 15.664Zm0 0"/><path fill="#1c2638" d="m148.129 245.008-8.524 16.074-5.074-19.375ZM220.531 164.504l34.344 2.867-28.496 13.371ZM264.172 129.227l-9.297 38.144-18.809-23.012Zm0 0"/><path fill="#1c2638" d="m254.875 167.371-34.344-2.867 15.535-20.145Zm0 0"/></svg>