<svg xmlns="http://www.w3.org/2000/svg" width="512" height="512" viewBox="0 0 384 384"><path fill="#5b0a90" d="M59.332 65.582 36.129 88.426l4.355-46.211ZM83.738 45.285 59.332 65.582 40.484 42.215Zm0 0"/><path fill="#5c0b8f" d="M0 274.762v-84.356l43.703 39.399Zm0 0"/><path fill="#5b0a90" d="M35.21 279.047 0 274.762l43.703-44.957ZM251.73 8.969 307.695 0l-23.683 19.05Zm0 0"/><path fill="#b1afc1" d="m261.645 263.55 20.988-6.929-3.242 40.973Zm0 0"/><path fill="#5b0a91" d="m282.633 256.621 5.246 38.621-8.488 2.352Zm0 0"/><path fill="#5b0a90" d="m305.09 290.73-17.211 4.512-5.246-38.62ZM242.328 207.04l21.348-5.794-2.403 11.66Zm0 0"/><path fill="#865292" d="m243.125 192.922-.797 14.117-21.726-4.46Zm0 0"/><path fill="#b6b8c3" d="m243.125 192.922-22.523 9.656 20.605-42.437Zm0 0"/><path fill="#5b0a90" d="m243.125 192.922 20.55 8.324-21.347 5.793ZM305.09 290.73l1.77-68.593L384 245.652ZM319.563 313.918 305.09 290.73 384 245.652ZM90.418 77.145 59.332 65.582l24.406-20.297ZM40.484 42.215 0 0h80Zm0 0"/><path fill="#5b0a90" d="m83.738 45.285-43.254-3.07L80 0Zm0 0"/><path fill="#5b0a90" d="M114.531 26.793 83.738 45.285 80 0Zm0 0"/><path fill="#5b0a91" d="M23.074 117.02 0 90.98l36.129-2.554Zm0 0"/><path fill="#5b0a90" d="m126.055 0-9.64 12.637L80 0ZM116.414 12.637l-1.883 14.156L80 0Zm0 0"/><path fill="#b7bac4" d="m114.531 26.793 1.883-14.156 8.973 3.25Zm0 0"/><path fill="#5b0a90" d="M116.414 12.637 126.054 0l-.667 15.887Zm0 0"/><path fill="#5b0a91" d="m104.715 50.508-20.977-5.223 30.793-18.492Zm0 0"/><path fill="#5b0a90" d="m59.332 65.582-3.023 19.727-20.18 3.117Zm0 0"/><path fill="#b7bbc4" d="m117.188 151.332-13.473 28.91-5.64-16.027Zm0 0"/><path fill="#5b0a91" d="M0 190.406V90.98l10.977 39.657Zm0 0"/><path fill="#5b0a90" d="m189.344 384 15.144-66.047 35.442 34.102Zm0 0"/><path fill="#5c0b8f" d="M28.96 340.14 61.349 384H0Zm0 0"/><path fill="#5b0a90" d="m183.348 0 68.382 8.969-31.128 22.808Zm0 0"/><path fill="#5b0a90" d="M183.348 0h124.347L251.73 8.969Zm0 0"/><path fill="#5b0b90" d="M384 54.7 355.512 32.28 384 0Zm0 0"/><path fill="#5b0a90" d="m384 245.652-77.14-23.515 35.12-56.723Zm0 0"/><path fill="#b3b4c2" d="m241.207 160.14 39.066-23.105-9.082 38.903Zm0 0"/><path fill="#b7bbc4" d="m262.16 229.082 20.473 27.54-20.988 6.929Zm0 0"/><path fill="#5b0b91" d="m282.633 256.621-20.473-27.539 44.7-6.945Zm0 0"/><path fill="#5b0a90" d="m305.09 290.73-22.457-34.109 24.226-34.484Zm0 0"/><path fill="#b7bbc4" d="m250.934 232.797 11.226-3.715-.515 34.469Zm0 0"/><path fill="#b2b1c1" d="m240.914 243.254 10.02-10.457 10.71 30.754Zm0 0"/><path fill="#5b0a90" d="m244.648 267.469 4.172 31.789-19.515-28.66ZM295.16 356.488l31.567-4.976L299.734 384ZM350.969 338.766l-31.406-24.848 64.437.465Zm0 0"/><path fill="#5b0a90" d="M326.727 351.512 384 384h-84.266Zm0 0"/><path fill="#5b0a90" d="M350.969 338.766 384 384l-57.273-32.488ZM384 314.383l-64.437-.465L384 245.652Zm0 0"/><path fill="#7b3d8b" d="m242.328 207.04-9.445 23.69-12.281-28.152Zm0 0"/><path fill="#aea8bd" d="m232.883 230.73 18.05 2.067-10.019 10.457Zm0 0"/><path fill="#5b0a90" d="M132.383 16.156 126.055 0h57.293Zm0 0"/><path fill="#5b0a90" d="m126.055 0 6.328 16.156-6.996-.27Zm0 0"/><path fill="#b4b5c2" d="m220.602 202.578-18.707-47.125 39.312 4.688Zm0 0"/><path fill="#b7bbc4" d="m201.895 155.453 18.707 47.125-30.282 7.633ZM190.32 210.21l-49.265-15.155-3.957-23.285ZM280.273 137.035 253.148 125.7l17.743-7.367ZM253.148 125.7l7.922-17.555 9.82 10.187Zm0 0"/><path fill="#b7bbc4" d="m241.207 160.14 11.941-34.44 27.125 11.335Zm0 0"/><path fill="#b7bbc4" d="m253.148 125.7-11.941 34.44-18.898-39.18Zm0 0"/><path fill="#5b0a90" d="M36.129 88.426 0 90.98l40.484-48.765Zm0 0"/><path fill="#5b0a91" d="m104.46 72.895.255-22.387 11.144 10.629Zm0 0"/><path fill="#5b0a90" d="m104.46 72.895-14.042 4.25-6.68-31.86Zm0 0"/><path fill="#5b0a90" d="m104.715 50.508-.254 22.387-20.723-27.61ZM78.234 85.848l12.184-8.703 2.441 18.105ZM141.16 247.645l4.125 20.714-19.75-11.625Zm0 0"/><path fill="#5b0a90" d="m145.285 268.36-4.125-20.715 17.887 5.664Zm0 0"/><path fill="#b7bbc4" d="m138.508 225.918-24.145 2.578 9.399-10.207ZM114.363 228.496l-.68-14.703 10.079 4.496Zm0 0"/><path fill="#5b0a90" d="m25.262 180.45 38.926 10.413-20.485 38.942Zm0 0"/><path fill="#5b0a90" d="m0 190.406 25.262-9.957 18.441 49.356ZM146.29 343.844l26.288-26.012L189.344 384Zm0 0"/><path fill="#5b0a90" d="m172.578 317.832 31.91.121L189.344 384ZM229.305 270.598l-31.864 16.906 18.707-31.774ZM0 274.762l28.96 65.379L0 384Zm0 0"/><path fill="#5b0a90" d="M28.96 340.14 0 274.763l35.21 4.285ZM43.703 229.805l23.012 33.156-31.504 16.086ZM66.715 262.96l-23.012-33.155L78.81 252.98Zm0 0"/><path fill="#621895" d="m112.137 355.25 6.898-17.488 7.445 2.574Zm0 0"/><path fill="#5c0d91" d="m131.473 359.832-19.336-4.582 14.343-14.914Zm0 0"/><path fill="#5b0a91" d="m111.086 384.004 1.05-28.754 19.337 4.582Zm0 0"/><path fill="#a394b9" d="m112.137 355.25-22.832 12.492 8-18.387Zm0 0"/><path fill="#5b0a90" d="m131.473 359.832 14.816-15.988L189.344 384ZM111.086 384.004l20.387-24.172L189.343 384Zm0 0"/><path fill="#b8bbc4" d="m189.008 119.184 17.937-19.766 15.364 21.543Zm0 0"/><path fill="#b4b5c3" d="m121.488 80.621-17.027-7.726 11.398-11.758Zm0 0"/><path fill="#b7bac4" d="m121.488 80.621 18.188 4.266-15.934 21.453Zm0 0"/><path fill="#5b0a90" d="m384 54.7-.012 92.476-24.953-33.977ZM356.207 58.23l2.828 54.97-22.676-7.579Zm0 0"/><path fill="#5b0a90" d="m338.082 134.828 20.953-21.629-1.363 20.352Zm0 0"/><path fill="#b7bac4" d="m338.082 134.828 19.59-1.277-23.11 13.199Zm0 0"/><path fill="#5b0b91" d="m338.082 134.828-11.828-12.168 10.105-17.039Zm0 0"/><path fill="#5b0a90" d="m359.035 113.2-20.953 21.628-1.723-29.207Zm0 0"/><path fill="#b4b4c2" d="m326.254 122.66-11.031-17.37 21.136.331Zm0 0"/><path fill="#5b0a91" d="m296.684 81.797.714 20.816-5.253 1.57Zm0 0"/><path fill="#b7bbc4" d="m297.398 102.613 1.23 20.032-6.483-18.461Zm0 0"/><path fill="#ada8bf" d="m297.398 102.613 17.825 2.676-16.594 17.356Zm0 0"/><path fill="#5c0b8f" d="M355.512 32.281 307.695 0H384Zm0 0"/><path fill="#5b0a90" d="m307.695 0-18.394 22.813-5.29-3.762Zm0 0"/><path fill="#b3b2c2" d="m258.176 40.105 25.836-21.054-4.719 17.273Zm0 0"/><path fill="#5b0a90" d="m251.73 8.969 6.446 31.136-37.574-8.328Zm0 0"/><path fill="#5b0a90" d="m284.012 19.05-25.836 21.055L251.73 8.97Zm0 0"/><path fill="#5b0a90" d="m258.176 40.105-37.34 17.891-.234-26.219Zm0 0"/><path fill="#5b0b90" d="m341.98 165.414 42.008-18.238.012 98.476Zm0 0"/><path fill="#b4b5c2" d="m334.563 146.75 7.417 18.664-23.125-1.492Zm0 0"/><path fill="#5b0a90" d="m294.082 180.875 47.898-15.46-35.12 56.722Zm0 0"/><path fill="#7740a0" d="m297.555 157.871 37.007-11.121-15.707 17.172Zm0 0"/><path fill="#5b0a90" d="m244.648 267.469 13.286-2.89-9.114 34.679ZM257.934 264.578l-13.286 2.89-3.734-24.214Zm0 0"/><path fill="#5c0d91" d="m257.934 264.578 3.71-1.027-12.824 35.707Zm0 0"/><path fill="#5e0f92" d="m257.934 264.578-17.02-21.324 20.73 20.297Zm0 0"/><path fill="#b7bbc4" d="m261.645 263.55.437 36.684-13.262-.976Zm0 0"/><path fill="#5b0a90" d="m233.996 313.531 5.934 38.524-35.442-34.102Zm0 0"/><path fill="#5b0a90" d="m239.977 305.95-5.98 7.581-29.509 4.422ZM248.82 299.258l-8.843 6.691-10.672-35.351ZM197.441 287.504l42.536 18.445-35.489 12.004Zm0 0"/><path fill="#5b0a90" d="m239.977 305.95-42.536-18.446 31.864-16.906Zm0 0"/><path fill="#b7bbc4" d="m254.902 309.996-6.082-10.738 13.262.976ZM254.902 309.996l-14.925-4.047 8.843-6.691Zm0 0"/><path fill="#b7bbc4" d="m239.977 305.95 14.925 4.046-20.906 3.535Zm0 0"/><path fill="#5b0a90" d="m262.16 229.082-10.355-9.543 9.468-6.633Zm0 0"/><path fill="#b6b7c2" d="m250.934 232.797.87-13.258 10.356 9.543Zm0 0"/><path fill="#5b0b90" d="m251.805 219.54-9.477-12.5 18.945 5.866Zm0 0"/><path fill="#9d7d9c" d="m251.805 219.54-18.922 11.19 9.445-23.69Zm0 0"/><path fill="#b7b9c2" d="m232.883 230.73 18.922-11.19-.871 13.257Zm0 0"/><path fill="#b6b9c3" d="m271.191 175.938-28.066 16.984-1.918-32.781Zm0 0"/><path fill="#5b0b90" d="M384 314.383V384l-33.031-45.234Zm0 0"/><path fill="#b4b6c3" d="m319.027 335.434.536-21.516 31.406 24.848Zm0 0"/><path fill="#5b0a90" d="m90.418 77.145 15.45 16.539-13.009 1.566Zm0 0"/><path fill="#5b0a90" d="m105.867 93.684 15.621-13.063 2.254 25.719ZM104.46 72.895l1.407 20.789-15.449-16.54Zm0 0"/><path fill="#5b0a90" d="m121.488 80.621-15.62 13.063-1.407-20.79Zm0 0"/><path fill="#b7bbc4" d="m83.781 161.18 15.656-24.871 17.75 15.023ZM99.438 136.309l29.238-8.07-11.488 23.093ZM128.676 128.238l-29.238 8.07 7.972-21.515Zm0 0"/><path fill="#a08eb7" d="m99.438 136.309-7.329-18.086 15.301-3.43Zm0 0"/><path fill="#b7bbc4" d="m103.715 180.242 33.383-8.472-16.825 15.968Zm0 0"/><path fill="#b8bbc4" d="m137.098 171.77-33.383 8.472 13.472-28.91Zm0 0"/><path fill="#b8bbc3" d="m137.098 171.77 3.957 23.285-20.782-7.317Zm0 0"/><path fill="#5b0a90" d="m141.055 195.055-21.133 15.472.351-22.789Zm0 0"/><path fill="#b7bbc4" d="m119.922 210.527 21.133-15.472-17.293 23.234ZM113.684 213.793l6.238-3.266 3.84 7.762Zm0 0"/><path fill="#5c0b8f" d="M40.484 42.215 0 90.98V0Zm0 0"/><path fill="#5b0a90" d="m0 90.98 23.074 26.04-12.097 13.617ZM42.965 115.543l-19.89 1.477 13.054-28.594Zm0 0"/><path fill="#5b0a91" d="m86.938 101.383-8.704-15.535L92.86 95.25Zm0 0"/><path fill="#a191b8" d="m101.785 342.004 10.352 13.246-14.832-5.895Zm0 0"/><path fill="#71359d" d="m112.137 355.25-10.352-13.246 17.25-4.242Zm0 0"/><path fill="#b7bbc4" d="m98.074 164.215-14.293-3.035 33.406-9.848Zm0 0"/><path fill="#5b0a90" d="m98.059 219.379 4.191-20.836 11.434 15.25Zm0 0"/><path fill="#b7bbc4" d="m98.059 219.379 16.304 9.117-20.617-3.047Zm0 0"/><path fill="#b7bbc4" d="M114.363 228.496 98.06 219.38l15.625-5.586Zm0 0"/><path fill="#aca6be" d="m121.363 236.844-7-8.348 24.145-2.578Zm0 0"/><path fill="#5b0a90" d="m121.363 236.844 19.797 10.8-15.625 9.09Zm0 0"/><path fill="#5c0b8f" d="m141.16 247.645-19.797-10.801 17.145-10.926Zm0 0"/><path fill="#5b0a90" d="m10.977 130.637 14.285 49.812L0 190.406ZM43.703 229.805l39.176 3.078-4.07 20.097Zm0 0"/><path fill="#b7bbc4" d="m95.223 244.68-12.344-11.797 10.867-7.434ZM87.348 254.191l-8.383 10.86-.156-12.07Zm0 0"/><path fill="#b7bbc4" d="m82.879 232.883 4.469 21.308-8.54-1.21Zm0 0"/><path fill="#b7bbc4" d="m87.348 254.191-4.47-21.308 12.345 11.797Zm0 0"/><path fill="#b6b9c4" d="m101.102 258.191 4.668 25.75-5.36 2.329Zm0 0"/><path fill="#5b0a90" d="m116.48 273.363-5.109-16.035 14.164-.594Zm0 0"/><path fill="#5b0a90" d="m116.48 273.363-15.378-15.172 10.27-.863ZM101.102 258.191l15.378 15.172-10.71 10.578Zm0 0"/><path fill="#a79cbb" d="m119.035 337.762 11.156-20.977-3.71 23.55Zm0 0"/><path fill="#a89fbc" d="m130.191 316.785 16.098 27.059-19.809-3.508Zm0 0"/><path fill="#5b0a90" d="m64.379 342.25 24.926 25.492L61.348 384ZM28.96 340.14l35.419 2.11L61.348 384Zm0 0"/><path fill="#b3b3c2" d="m89.305 367.742-4.07-26.91 12.07 8.523Zm0 0"/><path fill="#b5b7c3" d="m85.234 340.832 16.551 1.172-4.48 7.351Zm0 0"/><path fill="#5b0a90" d="m64.379 342.25 20.855-1.418 4.07 26.91ZM89.305 367.742l21.78 16.262L61.349 384ZM89.305 367.742l22.832-12.492-1.051 28.754Zm0 0"/><path fill="#5c0b8f" d="m131.473 359.832-4.993-19.496 19.81 3.508Zm0 0"/><path fill="#5b0a90" d="M186.578 44.156 183.348 0l37.254 31.777Zm0 0"/><path fill="#5b0a90" d="m183.348 0 3.23 44.156-27.894-19.34ZM186.578 44.156l34.024-12.379.234 26.22Zm0 0"/><path fill="#5b0a90" d="m192.293 71.613 28.543-13.617-12.988 29.918Zm0 0"/><path fill="#5b0a90" d="m192.293 71.613-5.715-27.457 34.258 13.84Zm0 0"/><path fill="#a89ebc" d="m138.316 50.46-9.648 18.634-12.809-7.957Zm0 0"/><path fill="#aaa1bd" d="m128.668 69.094-7.18 11.527-5.629-19.484Zm0 0"/><path fill="#b7bbc4" d="m121.488 80.621 7.18-11.527 11.008 15.793Zm0 0"/><path fill="#5b0a90" d="m139.676 84.887 11.422-4.114-.891 12.551ZM186.578 44.156l-30 10.524 2.106-29.864Zm0 0"/><path fill="#b6b9c4" d="m121.367 36.168 16.95 14.293-22.458 10.676ZM121.367 36.168l-6.836-9.375 10.856-10.906Zm0 0"/><path fill="#5b0a90" d="m121.367 36.168-16.652 14.34 9.816-23.715Zm0 0"/><path fill="#5b0a91" d="m121.367 36.168-5.508 24.969-11.144-10.63Zm0 0"/><path fill="#5c0b8f" d="m142.293 96.898-2.617-12.011 10.531 8.437Zm0 0"/><path fill="#967ab1" d="m139.676 84.887 2.617 12.011-18.55 9.442Zm0 0"/><path fill="#b7bbc4" d="m92.11 118.223 3.59-10.348 11.71 6.918Zm0 0"/><path fill="#5b0a91" d="m95.7 107.875 10.167-14.191 1.543 21.109Zm0 0"/><path fill="#b7bbc4" d="m86.938 101.383 8.761 6.492-3.59 10.348Zm0 0"/><path fill="#5b0a90" d="M105.867 93.684 95.7 107.875 92.86 95.25Zm0 0"/><path fill="#5b0b91" d="m95.7 107.875-8.763-6.492 5.922-6.133Zm0 0"/><path fill="#5b0a90" d="M356.207 58.23 384 54.7l-24.965 58.5Zm0 0"/><path fill="#5b0a90" d="m384 54.7-27.793 3.53-.695-25.949Zm0 0"/><path fill="#967bb2" d="m357.672 133.55-8.262 18.7-14.848-5.5Zm0 0"/><path fill="#5b0a90" d="m312.95 42.574-17.18-.094-6.47-19.667ZM313.414 76.516l-16.73 5.28 16.265-39.222Zm0 0"/><path fill="#5b0a91" d="m311.46 88.938-14.062 13.675-.714-20.816Zm0 0"/><path fill="#5b0a90" d="m313.414 76.516-1.953 12.421-14.777-7.14Zm0 0"/><path fill="#b7bbc4" d="m295.77 42.48-16.477-6.156 10.008-13.511Zm0 0"/><path fill="#b7bac4" d="m289.3 22.813-10.007 13.511 4.719-17.273Zm0 0"/><path fill="#b7bbc4" d="m264.11 47.754-5.934-7.649 21.117-3.78Zm0 0"/><path fill="#5d0e92" d="m318.855 163.922 23.125 1.492-47.898 15.461Zm0 0"/><path fill="#8154a6" d="m334.563 146.75 14.847 5.5-7.43 13.164Zm0 0"/><path fill="#aaa1bd" d="m316.438 128.344-1.215-23.055 11.03 17.371Zm0 0"/><path fill="#9e8bb6" d="m280.273 137.035-9.382-18.703 27.738 4.313Zm0 0"/><path fill="#5b0a91" d="m300.746 130.105-20.473 6.93 18.356-14.39Zm0 0"/><path fill="#b7bbc4" d="m241.207 160.14-39.312-4.687 20.414-34.492Zm0 0"/><path fill="#5b0a91" d="m262.254 333.758-13.934-8.324 6.582-15.438Zm0 0"/><path fill="#5b0a90" d="m248.32 325.434 13.934 8.324-22.324 18.297Zm0 0"/><path fill="#b7bbc4" d="m279.39 297.594-17.308 2.64-.437-36.683Zm0 0"/><path fill="#aca5be" d="m319.027 335.434 31.942 3.332-24.242 12.746Zm0 0"/><path fill="#5b0a90" d="m294.898 342.629 31.829 8.883-31.567 4.976Zm0 0"/><path fill="#5c0d91" d="m326.727 351.512-31.829-8.883 24.13-7.195Zm0 0"/><path fill="#5b0a90" d="m239.93 352.055 22.324-18.297 32.644 8.87ZM239.93 352.055l54.968-9.426.262 13.86ZM189.344 384l50.586-31.945L299.734 384Zm0 0"/><path fill="#5b0a90" d="m299.734 384-59.804-31.945 55.23 4.433Zm0 0"/><path fill="#5d0e8f" d="m155.637 240.809 33.586 15.351-30.176-2.851Zm0 0"/><path fill="#5b0a90" d="m197.441 287.504-8.218-31.344 26.925-.43Zm0 0"/><path fill="#5c0c90" d="m155.637 240.809-14.477 6.836-2.652-21.727Zm0 0"/><path fill="#5b0a90" d="m141.16 247.645 14.477-6.836 3.41 12.5Zm0 0"/><path fill="#a99fba" d="m190.32 210.21-1.097 45.95-33.586-15.351Zm0 0"/><path fill="#9a82b3" d="m190.32 210.21 25.828 45.52-26.925.43Zm0 0"/><path fill="#5e0e8e" d="m216.148 255.73 16.735-25 8.031 12.524Zm0 0"/><path fill="#85467c" d="m232.883 230.73-16.735 25 4.454-53.152Zm0 0"/><path fill="#8d5988" d="m216.148 255.73-25.828-45.52 30.282-7.632Zm0 0"/><path fill="#b8bbc4" d="m201.895 155.453-12.887-36.27 33.3 1.778Zm0 0"/><path fill="#b7bbc4" d="m157.895 150.926-40.708.406 11.489-23.094ZM117.188 151.332l40.707-.406-20.797 20.844Zm0 0"/><path fill="#b2b1c0" d="m141.055 195.055-2.547 30.863-14.746-7.629Zm0 0"/><path fill="#5b0a90" d="m102.25 198.543 17.672 11.984-6.238 3.266Zm0 0"/><path fill="#5b0b91" d="m102.25 198.543 1.465-18.3 16.558 7.495Zm0 0"/><path fill="#5b0a90" d="m119.922 210.527-17.672-11.984 18.023-10.805Zm0 0"/><path fill="#b7bbc4" d="m220.934 91.723-13.989 7.695.903-11.504Zm0 0"/><path fill="#5b0a90" d="m56.309 85.309 3.918 18.425-24.098-15.308Zm0 0"/><path fill="#b7bbc4" d="M60.227 103.734 56.309 85.31l15.648 10.617Zm0 0"/><path fill="#5b0a90" d="m60.227 103.734-17.262 11.809-6.836-27.117Zm0 0"/><path fill="#b7bac4" d="m56.309 85.309 17.359 7.53-1.711 3.087Zm0 0"/><path fill="#b7bbc4" d="m86.938 101.383-13.27-8.543 4.566-6.992Zm0 0"/><path fill="#5b0a90" d="m90.418 77.145-12.184 8.703-18.902-20.266Zm0 0"/><path fill="#b7bac4" d="m78.234 85.848-4.566 6.992-17.36-7.531Zm0 0"/><path fill="#b7bbc4" d="m78.234 85.848-21.925-.54 3.023-19.726Zm0 0"/><path fill="#5b0a91" d="m69.527 125.742 16.375-1.625-10.77 9.528Zm0 0"/><path fill="#b6b9c4" d="m99.438 136.309-13.536-12.192 6.207-5.894Zm0 0"/><path fill="#b1afc1" d="m117.254 303.246-17.774-6.48.93-10.496Zm0 0"/><path fill="#b6b8c3" d="m99.48 296.766-16.808-4.914 17.738-5.582Zm0 0"/><path fill="#5c0c91" d="m101.77 306.664 3.949 16.422-18.508.793Zm0 0"/><path fill="#5b0a90" d="m111.371 257.328-3.902-12.824 18.066 12.23Zm0 0"/><path fill="#5b0a90" d="m107.469 244.504 13.894-7.66 4.172 19.89Zm0 0"/><path fill="#aba4be" d="m121.363 236.844-13.894 7.66 6.894-16.008Zm0 0"/><path fill="#b7bbc4" d="m114.363 228.496-6.894 16.008-13.723-19.055Zm0 0"/><path fill="#b7bbc4" d="m107.469 244.504-12.246.176-1.477-19.23Zm0 0"/><path fill="#5b0b91" d="m10.977 130.637 16.968 8.304-2.683 41.508Zm0 0"/><path fill="#5b0a90" d="m63.934 135.688 5.593-9.946 5.606 7.903Zm0 0"/><path fill="#9880b3" d="m83.781 161.18-14.207 15.73-10.066-25.52Zm0 0"/><path fill="#5b0a91" d="m64.188 190.863 39.527-10.62-1.465 18.3Zm0 0"/><path fill="#5b0a90" d="m64.188 190.863 18.078 24.418-38.563 14.524ZM82.266 215.281l.613 17.602-39.176-3.078Zm0 0"/><path fill="#5b0b91" d="m82.266 215.281 15.793 4.098-4.313 6.07Zm0 0"/><path fill="#5c0b91" d="m82.879 232.883-.613-17.602 11.48 10.168Zm0 0"/><path fill="#5b0a90" d="m82.266 215.281-18.079-24.418 38.063 7.68Zm0 0"/><path fill="#5b0a90" d="m98.059 219.379-15.793-4.098 19.984-16.738Zm0 0"/><path fill="#5b0a91" d="m78.965 265.05-12.25-2.09 12.094-9.98Zm0 0"/><path fill="#5b0a90" d="m101.102 258.191 6.367-13.687 3.902 12.824Zm0 0"/><path fill="#b0aec1" d="m107.469 244.504-6.367 13.687-5.88-13.511Zm0 0"/><path fill="#b4b4c2" d="m101.102 258.191-13.754-4 7.875-9.511Zm0 0"/><path fill="#b7bbc4" d="m89.953 268.672-10.988-3.621 8.383-10.86Zm0 0"/><path fill="#b7bac4" d="m101.102 258.191-11.149 10.48-2.605-14.48Zm0 0"/><path fill="#a99fbc" d="m89.953 268.672 11.149-10.48-.692 28.078Zm0 0"/><path fill="#b7bbc4" d="m105.77 283.941 11.484 19.305-16.844-16.976Zm0 0"/><path fill="#5b0a90" d="m145.605 319.61 26.973-1.778-26.289 26.012ZM64.379 342.25 53.05 327.074l17.031-13.527Zm0 0"/><path fill="#5c0b90" d="M53.05 327.074 64.38 342.25l-35.418-2.11Zm0 0"/><path fill="#5b0b90" d="m64.379 342.25 15.43-18.34 5.425 16.922Zm0 0"/><path fill="#5d0e92" d="m105.719 323.086-20.485 17.746 1.977-16.953Zm0 0"/><path fill="#aba4be" d="m85.234 340.832 20.485-17.746-3.934 18.918Zm0 0"/><path fill="#b7bbc4" d="m206.945 99.418-12.93-10.566 13.833-.938Zm0 0"/><path fill="#5b0a90" d="m194.016 88.852-1.723-17.239 15.555 16.301Zm0 0"/><path fill="#b8bcc5" d="m194.016 88.852 12.93 10.566-17.938 19.766Zm0 0"/><path fill="#5b0a90" d="m165.047 68.813 21.531-24.657 5.715 27.457Zm0 0"/><path fill="#5b0a90" d="m165.047 68.813-8.469-14.133 30-10.524Zm0 0"/><path fill="#b6b8c4" d="m132.383 16.156.5 3.719-7.496-3.988Zm0 0"/><path fill="#b0adc0" d="m132.883 19.875-11.516 16.293 4.02-20.281Zm0 0"/><path fill="#5b0a90" d="m158.684 24.816-25.801-4.941L183.348 0Zm0 0"/><path fill="#5b0a90" d="m132.883 19.875-.5-3.719L183.348 0Zm0 0"/><path fill="#5b0a91" d="m105.867 93.684 17.875 12.656-16.332 8.453Zm0 0"/><path fill="#b7bac4" d="m148.781 105.578-6.488-8.68 7.914-3.574Zm0 0"/><path fill="#b7bbc4" d="m148.781 105.578-25.039.762 18.551-9.442Zm0 0"/><path fill="#5b0a90" d="m383.988 147.176-26.316-13.625 1.363-20.352Zm0 0"/><path fill="#aaa2bd" d="m383.988 147.176-34.578 5.074 8.262-18.7Zm0 0"/><path fill="#5b0a91" d="m349.41 152.25 34.578-5.074-42.008 18.238Zm0 0"/><path fill="#5b0a90" d="m356.207 58.23-43.258-15.656 42.563-10.293Zm0 0"/><path fill="#5e0e8f" d="M312.95 42.574 307.694 0l47.817 32.281Zm0 0"/><path fill="#5b0a90" d="M312.95 42.574 289.3 22.813 307.696 0ZM324.957 75.352l-11.543 1.164-.465-33.942Zm0 0"/><path fill="#5b0a90" d="m356.207 58.23-31.25 17.122-12.008-32.778Zm0 0"/><path fill="#b7bbc4" d="m311.46 88.938 3.763 16.351-17.825-2.676Zm0 0"/><path fill="#5b0a90" d="m319.89 81.906-8.43 7.031 1.954-12.421Zm0 0"/><path fill="#b6bac4" d="m319.89 81.906 5.067-6.554 2.418 6.804Zm0 0"/><path fill="#5b0a90" d="m324.957 75.352-5.066 6.554-6.477-5.39ZM253.602 63.52l-32.766-5.524 37.34-17.89Zm0 0"/><path fill="#9e8bb6" d="M264.11 47.754 253.601 63.52l4.574-23.415Zm0 0"/><path fill="#7e4da4" d="M295.77 42.48 271.03 60.094l8.262-23.77Zm0 0"/><path fill="#b7bbc4" d="m271.031 60.094-6.922-12.34 15.184-11.43Zm0 0"/><path fill="#5b0a90" d="m220.836 57.996 4.945 20.938-17.933 8.98Zm0 0"/><path fill="#5b0a90" d="m225.781 78.934-4.847 12.789-13.086-3.809ZM306.86 222.137l-44.7 6.945-.887-16.176Zm0 0"/><path fill="#70339d" d="m280.273 137.035 17.282 20.836-26.364 18.066Zm0 0"/><path fill="#afabc0" d="m297.555 157.871 21.3 6.05-24.773 16.954Zm0 0"/><path fill="#8a64aa" d="m271.191 175.938 26.364-18.067-3.473 23.004Zm0 0"/><path fill="#5b0a90" d="m326.45 136.559-10.012-8.215 9.816-5.684Zm0 0"/><path fill="#5b0a90" d="m338.082 134.828-11.633 1.73-.195-13.898Zm0 0"/><path fill="#b7bac4" d="m334.563 146.75-8.114-10.191 11.633-1.73Zm0 0"/><path fill="#5b0b91" d="m305.336 139.477-25.063-2.442 20.473-6.93Zm0 0"/><path fill="#b7bbc4" d="m305.336 139.477-7.781 18.394-17.282-20.836Zm0 0"/><path fill="#641c96" d="m316.438 128.344-17.81-5.7 16.595-17.355Zm0 0"/><path fill="#5b0a91" d="m298.629 122.645 17.808 5.699-15.69 1.761Zm0 0"/><path fill="#5b0b91" d="m254.902 309.996-6.582 15.438-14.324-11.903Zm0 0"/><path fill="#5b0a90" d="m248.32 325.434-8.39 26.62-5.934-38.523Zm0 0"/><path fill="#b4b6c3" d="m285.152 317.613 7.844-5.675 11.692 17.347Zm0 0"/><path fill="#b7bbc4" d="m292.996 311.938-7.844 5.675-5.761-20.02Zm0 0"/><path fill="#5e1193" d="m287.879 295.242 5.117 16.695-13.605-14.343Zm0 0"/><path fill="#b8bcc5" d="m262.082 300.234 7.367 15.375-14.547-5.613Zm0 0"/><path fill="#5d0f92" d="m294.898 342.629-9.746-25.016 19.536 11.672Zm0 0"/><path fill="#b7bbc4" d="m285.152 317.613 9.746 25.016-25.449-27.02Zm0 0"/><path fill="#5b0b91" d="m262.254 333.758 7.195-18.149 25.45 27.02Zm0 0"/><path fill="#b7bbc5" d="m269.45 315.61-7.196 18.148-7.352-23.762Zm0 0"/><path fill="#5c0c91" d="m294.898 342.629 9.79-13.344 14.34 6.149Zm0 0"/><path fill="#5e1092" d="m304.688 329.285 14.875-15.367-.536 21.516Zm0 0"/><path fill="#611794" d="m292.996 311.938 26.567 1.98-14.875 15.367Zm0 0"/><path fill="#b2b1c1" d="m153.574 273.547-8.289-5.188 13.762-15.05Zm0 0"/><path fill="#5b0a90" d="m229.305 270.598 11.61-27.344 3.733 24.215Zm0 0"/><path fill="#5c0b8f" d="m240.914 243.254-11.61 27.344-13.156-14.868Zm0 0"/><path fill="#b7bbc4" d="m190.32 210.21-32.425-59.284 44 4.527Zm0 0"/><path fill="#b7bbc4" d="m157.895 150.926 31.113-31.742 12.887 36.27Zm0 0"/><path fill="#b8bbc4" d="m157.895 150.926 32.425 59.285-53.222-38.441Zm0 0"/><path fill="#b8a18b" d="m155.637 240.809-17.13-14.891 2.548-30.863Zm0 0"/><path fill="#b0a4af" d="m190.32 210.21-34.683 30.599-14.582-45.754Zm0 0"/><path fill="#b8bcc5" d="m220.934 91.723 1.375 29.238-15.364-21.543Zm0 0"/><path fill="#b7bbc4" d="m60.227 103.734 19.523 10.067-10.223 11.941Zm0 0"/><path fill="#5d0e92" d="m79.75 113.8 6.152 10.317-16.375 1.625Zm0 0"/><path fill="#b7bbc4" d="m79.75 113.8 7.188-12.417 5.171 16.84Zm0 0"/><path fill="#b7bac4" d="m85.902 124.117-6.152-10.316 12.36 4.422Zm0 0"/><path fill="#a08fb8" d="m130.191 316.785-11.156 20.977-13.316-14.676Zm0 0"/><path fill="#a69bbb" d="m105.719 323.086 13.316 14.676-17.25 4.242Zm0 0"/><path fill="#5b0a90" d="m105.719 323.086-3.95-16.422 15.485-3.418Zm0 0"/><path fill="#5b0a91" d="m117.254 303.246-15.484 3.418-2.29-9.898Zm0 0"/><path fill="#b2b0c1" d="m26.762 123.848 1.183 15.093-16.968-8.304Zm0 0"/><path fill="#b7bbc4" d="m23.074 117.02 3.688 6.828-15.785 6.789Zm0 0"/><path fill="#5b0a90" d="m42.965 115.543-16.203 8.305-3.688-6.828Zm0 0"/><path fill="#5b0b91" d="m73.98 141.14-10.046-5.452 11.199-2.043Zm0 0"/><path fill="#b7bbc4" d="m63.934 135.688 10.046 5.453-14.472 10.25Zm0 0"/><path fill="#b7bbc4" d="m73.98 141.14 9.801 20.04-24.273-9.79Zm0 0"/><path fill="#5b0b91" d="m69.574 176.91 34.14 3.332-39.526 10.621Zm0 0"/><path fill="#6c2b9a" d="M103.715 180.242 83.78 161.18l14.293 3.035Zm0 0"/><path fill="#b5b7c3" d="m69.574 176.91 14.207-15.73 19.934 19.062Zm0 0"/><path fill="#5b0a90" d="m74.242 280.086-7.527-17.125 12.25 2.09Zm0 0"/><path fill="#5b0a90" d="m74.242 280.086-39.031-1.04 31.504-16.085Zm0 0"/><path fill="#b7bbc4" d="m60.512 295.402 13.73-15.316 6.606 2.89Zm0 0"/><path fill="#b7bbc4" d="m89.953 268.672-9.105 14.305-1.883-17.926Zm0 0"/><path fill="#b7bbc4" d="m82.672 291.852-1.824-8.875 19.562 3.293Zm0 0"/><path fill="#b7bbc4" d="m80.848 282.977 9.105-14.305 10.457 17.598ZM80.848 282.977l-6.606-2.891 4.723-15.035Zm0 0"/><path fill="#5b0a90" d="m197.441 287.504 7.047 30.45-31.91-.122Zm0 0"/><path fill="#5b0a90" d="m145.605 319.61-.316-12.723 27.29 10.945Zm0 0"/><path fill="#a191b8" d="m142.61 288.703 2.68 18.184-17.24-11.653Zm0 0"/><path fill="#b0aec1" d="m136.633 280.11 5.976 8.593-14.558 6.531Zm0 0"/><path fill="#5b0a90" d="m79.809 323.91 7.402-.031-1.977 16.953Zm0 0"/><path fill="#5b0a91" d="m82.906 301.574 4.305 22.305-7.402.031Zm0 0"/><path fill="#5b0a90" d="m35.21 279.047 7.602 36.07-13.851 25.024ZM42.813 315.117l10.238 11.957-24.09 13.067ZM141.645 69.746l23.402-.933-13.95 11.96Zm0 0"/><path fill="#5b0a90" d="m165.047 68.813-23.402.933 14.933-15.066Zm0 0"/><path fill="#5b0b90" d="m141.645 69.746 9.453 11.027-11.422 4.114Zm0 0"/><path fill="#b5b7c3" d="m128.668 69.094 12.977.652-1.97 15.14Zm0 0"/><path fill="#b6b9c4" d="m141.645 69.746-12.977-.652 9.648-18.633Zm0 0"/><path fill="#7d4ca4" d="m156.578 54.68-14.933 15.066-3.329-19.285Zm0 0"/><path fill="#5b0a90" d="m165.047 68.813-4.992 16.328-8.957-4.368Zm0 0"/><path fill="#9982b4" d="m147.66 29.074 8.918 25.606-18.262-4.22Zm0 0"/><path fill="#b6b9c4" d="m121.367 36.168 26.293-7.094-9.344 21.387Zm0 0"/><path fill="#b6b9c4" d="m132.883 19.875 14.777 9.2-26.293 7.093Zm0 0"/><path fill="#5b0a90" d="m156.578 54.68-8.918-25.606 11.024-4.258Zm0 0"/><path fill="#5b0a91" d="m147.66 29.074-14.777-9.199 25.8 4.941Zm0 0"/><path fill="#b8bbc4" d="m128.676 128.238 20.105-22.66 12.621 9.172Zm0 0"/><path fill="#b8bcc4" d="m157.895 150.926-29.22-22.688 32.727-13.488Zm0 0"/><path fill="#b7bbc5" d="m148.781 105.578-20.105 22.66-4.934-21.898Zm0 0"/><path fill="#b7bbc4" d="m123.742 106.34 4.934 21.898-21.266-13.445ZM327.375 82.156l-2.418-6.804 31.25-17.122Zm0 0"/><path fill="#70329c" d="m327.375 82.156 28.832-23.926-19.848 47.391Zm0 0"/><path fill="#753b9f" d="m315.223 105.29 12.152-23.134 8.984 23.465Zm0 0"/><path fill="#b7bbc4" d="m315.223 105.29 4.668-23.384 7.484.25ZM319.89 81.906l-4.667 23.383-3.762-16.352ZM271.031 60.094l-17.43 3.426 10.508-15.766Zm0 0"/><path fill="#5b0b90" d="m263.676 201.246 43.183 20.89-45.586-9.23Zm0 0"/><path fill="#5b0a91" d="m263.676 201.246-20.551-8.324 28.066-16.984Zm0 0"/><path fill="#5b0a91" d="m281.465 191.535-17.79 9.711 7.516-25.309Zm0 0"/><path fill="#5b0a90" d="m263.676 201.246 17.789-9.71 25.394 30.6ZM306.86 222.137l-25.395-30.602 12.617-10.66ZM281.465 191.535l-10.274-15.597 22.891 4.937Zm0 0"/><path fill="#b7bbc4" d="m305.336 139.477 21.113-2.918 8.113 10.191Zm0 0"/><path fill="#5b0a91" d="m326.45 136.559-21.114 2.918 11.101-11.133Zm0 0"/><path fill="#b6b9c4" d="m297.555 157.871 7.78-18.394 29.228 7.273Zm0 0"/><path fill="#5b0a90" d="m316.438 128.344-11.102 11.133-4.59-9.372Zm0 0"/><path fill="#b7bbc4" d="m285.152 317.613-15.703-2.004 9.942-18.015Zm0 0"/><path fill="#b8bcc5" d="m269.45 315.61-7.368-15.376 17.309-2.64Zm0 0"/><path fill="#6f319c" d="m305.09 290.73-12.094 21.207-5.117-16.695Zm0 0"/><path fill="#7f4fa4" d="m189.223 256.16-19.664 14.203-10.512-17.054Zm0 0"/><path fill="#a79dbb" d="m169.559 270.363-15.985 3.184 5.473-20.238Zm0 0"/><path fill="#5b0a90" d="m197.441 287.504-27.882-17.14 19.664-14.204Zm0 0"/><path fill="#b7bbc4" d="m161.402 114.75 27.606 4.434-31.113 31.742Zm0 0"/><path fill="#611694" d="M71.957 95.926 79.75 113.8l-19.523-10.067Zm0 0"/><path fill="#b7bbc4" d="m71.957 95.926 1.711-3.086 13.27 8.543ZM79.75 113.8l-7.793-17.874 14.98 5.457Zm0 0"/><path fill="#5b0a90" d="m39.8 127.629-13.038-3.781 16.203-8.305Zm0 0"/><path fill="#b7bac4" d="m26.762 123.848 13.039 3.78-11.856 11.313Zm0 0"/><path fill="#b7bbc4" d="m39.8 127.629 24.134 8.058-4.426 15.704ZM69.574 176.91l-21.476-15.629 11.41-9.89Zm0 0"/><path fill="#b6b9c4" d="M48.098 161.281 39.8 127.63l19.707 23.762Zm0 0"/><path fill="#5b0a90" d="m25.262 180.45 22.836-19.169 16.09 29.582Zm0 0"/><path fill="#5c0c91" d="m48.098 161.281 21.476 15.63-5.386 13.952Zm0 0"/><path fill="#5b0a90" d="m27.945 138.941 20.153 22.34-22.836 19.168Zm0 0"/><path fill="#9273af" d="m39.8 127.629 8.298 33.652-20.153-22.34Zm0 0"/><path fill="#b7bac4" d="m73.98 141.14 9.817-1.1-.016 21.14Zm0 0"/><path fill="#5c0c91" d="m83.797 140.04-9.817 1.1 1.153-7.495Zm0 0"/><path fill="#b7bbc4" d="m83.797 140.04 15.64-3.731-15.656 24.87Zm0 0"/><path fill="#5b0a91" d="m85.902 124.117-2.105 15.922-8.664-6.394Zm0 0"/><path fill="#5b0b91" d="m83.797 140.04 2.105-15.923 13.535 12.192Zm0 0"/><path fill="#a89fbc" d="m130.191 316.785-24.472 6.3 11.535-19.839Zm0 0"/><path fill="#b4b4c2" d="m130.191 316.785 15.414 2.824.684 24.235Zm0 0"/><path fill="#8a65ab" d="m157.11 286.137-11.82 20.75-2.68-18.184Zm0 0"/><path fill="#5b0a90" d="m157.11 286.137 40.331 1.367-24.863 30.328ZM145.29 306.887l11.82-20.75 15.468 31.695Zm0 0"/><path fill="#9376b0" d="m169.559 270.363-12.45 15.774-3.535-12.59Zm0 0"/><path fill="#5b0a90" d="m157.11 286.137 12.449-15.774 27.882 17.14Zm0 0"/><path fill="#5b0b90" d="m145.285 268.36-8.652 11.75-11.098-23.376Zm0 0"/><path fill="#5b0a90" d="m136.633 280.11-20.153-6.747 9.055-16.629Zm0 0"/><path fill="#5c0d91" d="m119.066 288.8 17.567-8.69-8.582 15.124Zm0 0"/><path fill="#5f1293" d="m117.254 303.246 1.812-14.445 8.985 6.433Zm0 0"/><path fill="#b5b7c3" d="m105.77 283.941 13.296 4.86-1.812 14.445Zm0 0"/><path fill="#b7bbc4" d="m82.672 291.852-22.16 3.55 20.336-12.425ZM82.672 291.852l-16.27 12.011-5.89-8.46ZM66.402 303.863l16.27-12.011.234 9.722Zm0 0"/><path fill="#5b0a90" d="m101.77 306.664-6.028-2.785 3.738-7.113Zm0 0"/><path fill="#5c0c91" d="m95.742 303.879 6.028 2.785-14.56 17.215Zm0 0"/><path fill="#5b0a91" d="m35.21 279.047 39.032 1.039-13.73 15.316Zm0 0"/><path fill="#b7bbc4" d="m148.781 105.578 13.13-13.848-.509 23.02Zm0 0"/><path fill="#5b0a90" d="m248.613 74.383-22.832 4.55-4.945-20.937Zm0 0"/><path fill="#8358a7" d="m319.563 313.918-26.567-1.98 12.094-21.208Zm0 0"/><path fill="#5b0b91" d="m42.965 115.543 17.262-11.809 9.3 22.008Zm0 0"/><path fill="#5b0a90" d="m63.934 135.688-20.97-20.145 26.563 10.2Zm0 0"/><path fill="#5b0b91" d="m39.8 127.629 3.165-12.086 20.969 20.144Zm0 0"/><path fill="#b0adc0" d="m130.191 316.785 15.098-9.898.316 12.722Zm0 0"/><path fill="#aca5be" d="m145.29 306.887-15.099 9.898-2.14-21.55Zm0 0"/><path fill="#aca6be" d="m130.191 316.785-12.937-13.539 10.797-8.012Zm0 0"/><path fill="#b5b6c3" d="m153.574 273.547-6.898 5.926-1.39-11.114Zm0 0"/><path fill="#a9a0bc" d="m146.676 279.473-10.043.636 8.652-11.75Zm0 0"/><path fill="#ada8bf" d="m136.633 280.11 10.043-.637-4.067 9.23Zm0 0"/><path fill="#b4b5c3" d="m146.676 279.473 10.433 6.664-14.5 2.566Zm0 0"/><path fill="#b3b2c2" d="m157.11 286.137-10.434-6.664 6.898-5.926Zm0 0"/><path fill="#5b0a91" d="m116.48 273.363 2.586 15.438-13.296-4.86Zm0 0"/><path fill="#5b0a90" d="m119.066 288.8-2.586-15.437 20.153 6.746Zm0 0"/><path fill="#b7bac4" d="m95.742 303.879-13.07-12.027 16.808 4.914Zm0 0"/><path fill="#5b0a90" d="m70.082 313.547 9.727 10.363-15.43 18.34Zm0 0"/><path fill="#5b0a90" d="m70.082 313.547 12.824-11.973-3.097 22.336Zm0 0"/><path fill="#b7bbc4" d="m70.082 313.547-3.68-9.684 16.504-2.289Zm0 0"/><path fill="#5b0a90" d="m60.512 295.402-17.7 19.715-7.601-36.07Zm0 0"/><path fill="#b7bbc4" d="m161.91 91.73 14.805 8.11-15.313 14.91Zm0 0"/><path fill="#b8bbc4" d="m176.715 99.84 17.3-10.988-5.007 30.332Zm0 0"/><path fill="#b7bbc4" d="m176.715 99.84 12.293 19.344-27.606-4.434Zm0 0"/><path fill="#5b0a90" d="m176.41 86.758-14.5 4.972-1.855-6.59ZM194.016 88.852l-17.606-2.094 15.883-15.145Zm0 0"/><path fill="#b7bbc4" d="m176.715 99.84-.305-13.082 17.606 2.094Zm0 0"/><path fill="#b7bbc4" d="m176.41 86.758.305 13.082-14.805-8.11Zm0 0"/><path fill="#5b0a90" d="m176.41 86.758-11.363-17.945 27.246 2.8Zm0 0"/><path fill="#5b0a90" d="m176.41 86.758-16.355-1.617 4.992-16.329Zm0 0"/><path fill="#b7bbc4" d="m150.207 93.324 11.703-1.594-13.129 13.848Zm0 0"/><path fill="#5b0a90" d="m161.91 91.73-11.703 1.594 9.848-8.183ZM160.055 85.14l-9.848 8.184.89-12.55ZM264.055 78.66l17.957 2.2-20.942 27.285ZM225.781 78.934l18.2 9.898-23.047 2.89Zm0 0"/><path fill="#5b0a90" d="m248.613 74.383-4.633 14.449-18.199-9.898Zm0 0"/><path fill="#b7bbc4" d="m243.98 88.832 20.075-10.172-2.985 29.485Zm0 0"/><path fill="#b7bbc4" d="M264.055 78.66 243.98 88.832l4.633-14.45Zm0 0"/><path fill="#5b0a90" d="m296.684 81.797-14.672-.938 30.937-38.285Zm0 0"/><path fill="#5b0a91" d="m282.012 80.86 13.758-38.38 17.18.094Zm0 0"/><path fill="#5b0b91" d="m282.012 80.86-10.98-20.766L295.77 42.48Zm0 0"/><path fill="#b7bbc4" d="m298.629 122.645-16.832-11.79 10.348-6.671ZM270.89 118.332l10.907-7.477 16.832 11.79ZM60.512 295.402l5.89 8.461-23.59 11.254ZM53.05 327.074l13.352-23.21 3.68 9.683Zm0 0"/><path fill="#5b0a91" d="m42.813 315.117 23.59-11.254-13.352 23.211Zm0 0"/><path fill="#b7bbc4" d="m264.055 78.66-10.453-15.14 17.43-3.426ZM253.602 63.52l10.453 15.14-15.442-4.277Zm0 0"/><path fill="#5b0a90" d="m253.602 63.52-4.989 10.863-27.777-16.387ZM282.012 80.86l-17.957-2.2 6.976-18.566ZM243.98 88.832l-2.808 9.332-20.238-6.441Zm0 0"/><path fill="#b7bbc4" d="m222.309 120.96 18.863-22.796 11.976 27.535Zm0 0"/><path fill="#b7bbc4" d="m241.172 98.164-18.863 22.797-1.375-29.238ZM241.172 98.164l2.808-9.332 17.09 19.313Zm0 0"/><path fill="#b7bbc4" d="m253.148 125.7-11.976-27.536 19.898 9.98Zm0 0"/><path fill="#5b0a90" d="m282.012 80.86 14.672.937-4.54 22.387Zm0 0"/><path fill="#5b0a90" d="m281.797 110.855.215-29.996 10.133 23.325Zm0 0"/><path fill="#b7bbc4" d="m271.195 113.34 10.602-2.485-10.906 7.477Zm0 0"/><path fill="#b7bbc4" d="m261.07 108.145 10.125 5.195-.304 4.992Zm0 0"/><path fill="#5b0a90" d="m281.797 110.855-10.602 2.485 10.817-32.48Zm0 0"/><path fill="#b7bbc4" d="m82.672 291.852 13.07 12.027-12.836-2.305ZM95.742 303.879l-8.531 20-4.305-22.305Zm0 0"/><path fill="#5b0b91" d="m268.18 107.176 3.015 6.164-10.125-5.195Zm0 0"/><path fill="#5b0a91" d="m282.012 80.86-13.832 26.316-7.11.969Zm0 0"/><path fill="#5b0a91" d="m271.195 113.34-3.015-6.164 13.832-26.317Zm0 0"/></svg>