<svg xmlns="http://www.w3.org/2000/svg" width="512" height="512" viewBox="0 0 384 384"><path fill="#081d3c" d="M39.773 85.973 0 86.593l40.355-42.402Zm0 0"/><path fill="#081d3c" d="m60.227 64.742-20.454 21.23.582-41.78Zm0 0"/><path fill="#081d3b" d="m81.406 45.973-21.18 18.77-19.87-20.552ZM0 286.238v-96.37l46.29 46.831Zm0 0"/><path fill="#081d3c" d="M35.191 289.652 0 286.238 46.29 236.7ZM79.395 384H0l77.64-34.656Zm0 0"/><path fill="#081d3b" d="M212.531 60.855 189.082 0l52.477 32.438ZM268.95 20.867 266.16 0l21.238 20.258ZM286.96 270.645l14.25-41.184 25.532 29.726ZM244.824 211.168l20.766-11.02-2.035 15.672Zm0 0"/><path fill="#f4f3ef" d="m239.727 194.066 5.097 17.102-22.3-6.813Zm0 0"/><path fill="#555b51" d="m239.727 194.066-17.204 10.29 6.27-15.915Zm0 0"/><path fill="#081d3b" d="m239.727 194.066 25.863 6.082-20.766 11.02ZM345.496 299.914l-18.754-40.726L384 272.934ZM201.086 334.008 251.527 384l-128.062.004Zm0 0"/><path fill="#081d3b" d="M259.125 359.285 251.527 384l-50.441-49.992ZM88.898 74.684l-28.671-9.942 21.18-18.77Zm0 0"/><path fill="#081d3c" d="M40.355 44.191 0 0h73.746Zm0 0"/><path fill="#081d3c" d="m81.406 45.973-41.05-1.782L73.745 0Zm0 0"/><path fill="#081d3b" d="M115.715 27.867 81.406 45.973 73.746 0ZM23.266 113.25 0 86.594l39.773-.621ZM126.93-.02l-10.11 12.188L73.746 0Zm0 0"/><path fill="#081d3b" d="m116.82 12.168-1.105 15.7L73.746 0Zm0 0"/><path fill="#f7f8f9" d="m115.715 27.867 1.105-15.699 10.395 2.898Zm0 0"/><path fill="#081d3b" d="M116.82 12.168 126.93-.02l.285 15.086Zm0 0"/><path fill="#081d3c" d="m104.105 54.645-22.699-8.672 34.309-18.106Zm0 0"/><path fill="#081d3b" d="m60.227 64.742-4.36 12.578-16.094 8.653Zm0 0"/><path fill="#081d3c" d="M0 189.867V86.594l10.223 40.875ZM0 189.867l57.836 7.168L46.289 236.7ZM0 384l29.254-52.816 48.387 18.16ZM0 286.238l35.191 3.414-5.937 41.532Zm0 0"/><path fill="#f3f3ef" d="m212.719 158.691-17.602-50.398 29.184 5.484Zm0 0"/><path fill="#081d3b" d="M189.082 0h77.078L241.56 32.438Zm0 0"/><path fill="#081d3b" d="m266.16 0 2.79 20.867-27.391 11.57Zm0 0"/><path fill="#091e3c" d="m270.7 29.004-1.75-8.137 18.448-.61Zm0 0"/><path fill="#081d3b" d="m301.21 229.46 35.509-23.753-9.977 53.48Zm0 0"/><path fill="#fefefe" d="m259.863 226.984 22.66 28.239-14.445 5.886Zm0 0"/><path fill="#081d3b" d="m282.523 255.223-22.66-28.239 41.348 2.477Zm0 0"/><path fill="#081d3b" d="m286.96 270.645-4.437-15.422 18.688-25.762Zm0 0"/><path fill="#fdfcfb" d="m253.133 230.418 6.73-3.434 8.215 34.125Zm0 0"/><path fill="#fdfcf9" d="m259.54 261.46-6.407-31.042 14.945 30.691Zm0 0"/><path fill="#081d3b" d="m251.527 384 65.899-17.687L384 384Zm0 0"/><path fill="#081d3b" d="m317.426 366.313 29.406-11.168L384 384ZM345.496 299.914l18.184 38.762-13.032-1.344Zm0 0"/><path fill="#081d3b" d="m363.68 338.676-18.184-38.762L384 272.934Zm0 0"/><path fill="#d7d8d7" d="m244.824 211.168-14.804 19.14-7.497-25.953Zm0 0"/><path fill="#fbf5e1" d="m230.02 230.309 23.113.109 6.406 31.043Zm0 0"/><path fill="#081d3b" d="M133.176 15.266 126.93-.02l62.152.02Zm0 0"/><path fill="#081d3c" d="m126.93-.02 6.246 15.286-5.961-.2Zm0 0"/><path fill="#9f976e" d="m144.86 189.688 83.933-1.247-46.559 20.207Zm0 0"/><path fill="#3f463f" d="m228.793 188.441-6.27 15.914-40.289 4.293Zm0 0"/><path fill="#f1f0ee" d="m252.52 153.578-21.352-8.414 15.414-9.504Zm0 0"/><path fill="#081d3c" d="m231.168 145.164 1.566-23.695 13.848 14.191Zm0 0"/><path fill="#f4f5f6" d="m231.168 145.164-18.45 13.527 11.583-44.914Zm0 0"/><path fill="#f5f4f1" d="m212.719 158.691 18.449-13.527 21.352 8.414Zm0 0"/><path fill="#d2d4da" d="m277.828 136.332-21.496-18.172 12.715-2.96Zm0 0"/><path fill="#d0d2d8" d="m256.332 118.16 4.137-10.832 8.578 7.871Zm0 0"/><path fill="#f3f3f2" d="m252.52 153.578 3.812-35.418 21.496 18.172Zm0 0"/><path fill="#f1f1f2" d="m232.734 121.469 23.598-3.309-9.75 17.5Zm0 0"/><path fill="#f8f6ee" d="m256.332 118.16-3.812 35.418-5.938-17.918Zm0 0"/><path fill="#081d3b" d="m101.77 70.191 2.335-15.546 10.336 9.667ZM101.77 70.191l-12.872 4.493-7.492-28.711Zm0 0"/><path fill="#081d3b" d="M104.105 54.645 101.77 70.19 81.406 45.973Zm0 0"/><path fill="#081d3c" d="m81.023 88.715 7.875-14.031 5.282 20.23Zm0 0"/><path fill="#0b1f3c" d="m145.082 266.176 8.063-12.535 4.07 2.73Zm0 0"/><path fill="#fefdfa" d="m119.457 173.629-22.02-9.324 17.172-17.524Zm0 0"/><path fill="#fdf4d3" d="m107.754 182.828-10.317-18.523 22.02 9.324Zm0 0"/><path fill="#081d3b" d="m138.938 246.934 6.144 19.242-21.762-.703Zm0 0"/><path fill="#081d3b" d="m145.082 266.176-6.144-19.242 14.207 6.707Zm0 0"/><path fill="#fdf9ee" d="m139.648 227.215-29.41 4.543 16.91-16.516Zm0 0"/><path fill="#fefefd" d="m110.238 231.758-.718-17.637 17.628 1.121Zm0 0"/><path fill="#081d3c" d="m28.238 169.781 29.598 27.254L0 189.867Zm0 0"/><path fill="#fefefe" d="m88.469 296.898 15.914-15.207-5.348 13.118Zm0 0"/><path fill="#081d3b" d="m144.016 331.492 57.07 2.516-54.23 9.27ZM46.29 236.7l20.257 37.03-31.356 15.922Zm0 0"/><path fill="#091e3c" d="M66.547 273.73 46.289 236.7l31.5 33.027Zm0 0"/><path fill="#eeeff1" d="m123.531 350.047-15.336-1.652 11.977-10.938Zm0 0"/><path fill="#081d3b" d="m123.465 384.004-16.875-25.805 15.242 6.426Zm0 0"/><path fill="#dfe0e3" d="m106.59 358.2 16.941-8.153-1.699 14.578Zm0 0"/><path fill="#e9eaed" d="m106.59 358.2 1.605-9.805 15.336 1.652Zm0 0"/><path fill="#eaebed" d="m106.59 358.2-9.934-6.602 11.54-3.203Zm0 0"/><path fill="#081d3b" d="m136.402 363.71 10.453-20.433 54.23-9.27Zm0 0"/><path fill="#0f233e" d="m123.531 350.047 12.871 13.664-14.57.914Zm0 0"/><path fill="#081d3b" d="m123.465 384.004 12.937-20.293 64.684-29.703ZM136.402 363.71l-12.937 20.294-1.633-19.379Zm0 0"/><path fill="#fbfcfc" d="m195.117 108.293 16.832-9.738 12.352 15.222Zm0 0"/><path fill="#091e3c" d="m122.371 77.613-20.601-7.422 12.671-5.879Zm0 0"/><path fill="#fdfdfd" d="m122.371 77.613 16.762 2.43-14.211 25.184Zm0 0"/><path fill="#081d3c" d="m376 49.625-5.336 52.055-13.652-42.125Zm0 0"/><path fill="#081d3b" d="m344.55 121.848 26.114-20.168-15.258 32.437Zm0 0"/><path fill="#081d3b" d="m370.664 101.68-26.113 20.168-10.504-10.22Zm0 0"/><path fill="#081d3c" d="M318.25 0H384l-44.266 29.473Zm0 0"/><path fill="#081d3b" d="M266.16 0h52.09l-30.852 20.258ZM318.25 0l-23.152 42.484-7.7-22.226Zm0 0"/><path fill="#c3c8d0" d="m295.098 42.484-22.426 14.641 6.785-22.434Zm0 0"/><path fill="#081d3b" d="m268.95 20.867 1.75 8.137-29.141 3.433Zm0 0"/><path fill="#081d3c" d="M384 174.176v98.758l-47.281-67.227Zm0 0"/><path fill="#081d3b" d="M336.719 205.707 384 272.934l-57.258-13.747ZM293.703 182.04l21.336-20 21.68 43.667Zm0 0"/><path fill="#091e3b" d="m315.04 162.04 20.233-1.974 1.446 45.641Zm0 0"/><path fill="#c5c9ce" d="m327.75 146.598 7.523 13.468-20.234 1.973Zm0 0"/><path fill="#555641" d="m230.113 255.793 29.426 5.668-2.336 16.86Zm0 0"/><path fill="#fcfcfc" d="m259.54 261.46 8.538-.35-10.875 17.21Zm0 0"/><path fill="#fdfdfd" d="m268.078 261.11 3.969 39.285-14.844-22.075Zm0 0"/><path fill="#081d3b" d="m231.566 313.977 27.559 45.308-58.04-25.277ZM230.113 255.793l1.453 58.184-30.48 20.03Zm0 0"/><path fill="#081d3c" d="m200.633 256.828 29.48-1.035-29.027 78.215Zm0 0"/><path fill="#fefefe" d="m248.371 302.324 8.832-24.004 14.844 22.075Zm0 0"/><path fill="#fdfdfe" d="m254.738 310.512-6.367-8.188 23.676-1.93Zm0 0"/><path fill="#fefefe" d="m248.371 302.324 6.367 8.188-23.172 3.465Zm0 0"/><path fill="#081d3b" d="m248.371 302.324-18.258-46.531 27.09 22.527Zm0 0"/><path fill="#081d3b" d="m230.113 255.793 18.258 46.531-16.805 11.653Zm0 0"/><path fill="#0e2340" d="m259.863 226.984-15.039-15.816 18.73 4.652Zm0 0"/><path fill="#fefdfd" d="m253.133 230.418-8.309-19.25 15.04 15.816Zm0 0"/><path fill="#f9f5e9" d="m230.02 230.309 14.804-19.141 8.309 19.25Zm0 0"/><path fill="#c3bc9c" d="m255.012 185.324-15.285 8.742-10.934-5.625Zm0 0"/><path fill="#081d3b" d="m259.125 359.285 35.852-11.926 22.449 18.954ZM363.68 338.676l-16.848 16.469 3.816-17.813ZM384 384l-20.32-45.324L384 272.934Zm0 0"/><path fill="#081d3b" d="M363.68 338.676 384 384l-37.168-28.855Zm0 0"/><path fill="#081d3c" d="m327.695 322.762 17.801-22.848 5.152 37.418Zm0 0"/><path fill="#081d3b" d="m153.145 253.64 9-8.492-4.93 11.223ZM88.898 74.684l17.528 18.472-12.246 1.758Zm0 0"/><path fill="#081d3c" d="m106.426 93.156 15.945-15.543 2.55 27.614Zm0 0"/><path fill="#081d3b" d="m101.77 70.191 4.656 22.965-17.528-18.472Zm0 0"/><path fill="#081d3c" d="m122.371 77.613-15.945 15.543-4.656-22.965Zm0 0"/><path fill="#fdfdfd" d="m114.61 146.781-16.184-13.215 10.824-19.218Zm0 0"/><path fill="#b0b6c0" d="m98.426 133.566-5.301-14.664 16.125-4.554Zm0 0"/><path fill="#726a38" d="m178.543 226.484-33.684-36.797 37.375 18.961Zm0 0"/><path fill="#746b39" d="m144.86 189.688 33.683 36.796-39.25-31.273Zm0 0"/><path fill="#f6e4a8" d="m144.86 189.688-5.567 5.523-19.836-21.582Zm0 0"/><path fill="#081d3b" d="m107.754 182.828 31.539 12.383-19.953 2.969Zm0 0"/><path fill="#efdc9b" d="m139.293 195.21-31.54-12.382 11.704-9.2Zm0 0"/><path fill="#081d3b" d="m139.293 195.21-15.543 13.735-4.41-10.765Zm0 0"/><path fill="#fdfdfb" d="m123.75 208.945 15.543-13.734-12.145 20.031Zm0 0"/><path fill="#fefefe" d="m109.52 214.121 14.23-5.176 3.398 6.297Zm0 0"/><path fill="#081d3c" d="m314.563 57.91 4.07 23.653-27.617 2.593ZM40.355 44.191 0 86.594V0Zm0 0"/><path fill="#081d3b" d="m0 86.594 23.266 26.656-13.043 14.219Zm0 0"/><path fill="#081d3c" d="m87.867 102.934-6.844-14.22 13.157 6.2ZM55.867 77.32l2.817 14.532-18.91-5.88Zm0 0"/><path fill="#081d3b" d="m98.457 218.805.238-17.758 10.825 13.074Zm0 0"/><path fill="#fefcf5" d="m98.457 218.805 11.781 12.953-25.25.71Zm0 0"/><path fill="#fefefc" d="m110.238 231.758-11.781-12.953 11.063-4.684Zm0 0"/><path fill="#c5b36f" d="m116.348 239.07-6.11-7.312 29.41-4.543Zm0 0"/><path fill="#081d3b" d="m116.348 239.07 22.59 7.864-15.618 18.539Zm0 0"/><path fill="#081d3b" d="m138.938 246.934-22.59-7.864 23.3-11.855ZM16.86 133.922l11.378 35.86L0 189.866Zm0 0"/><path fill="#081d3b" d="M16.86 133.922 0 189.867l10.223-62.398ZM46.29 236.7l35.69-3.798-4.19 36.825Zm0 0"/><path fill="#fefefe" d="m85.98 269.219-4-36.317 3.008-.433ZM80.64 285.516l-7.37-2.301 4.52-13.488Zm0 0"/><path fill="#fefefe" d="m80.273 269.629.368 15.887-2.852-15.79Zm0 0"/><path fill="#fefdfa" d="m81.98 232.902-1.707 36.727-2.484.098Zm0 0"/><path fill="#fefefd" d="m80.273 269.629 1.707-36.727 4 36.317Zm0 0"/><path fill="#081d3b" d="m123.32 265.473-18.937 16.218-2.434-30.546ZM0 384v-97.762l29.254 44.946Zm0 0"/><path fill="#e6e8ea" d="m96.656 351.598 2.453-20.036 9.086 16.833Zm0 0"/><path fill="#cfd3d7" d="m77.64 349.344 21.47-17.781-2.454 20.035Zm0 0"/><path fill="#081d3c" d="m93.184 367.184 30.28 16.82-44.07-.004ZM93.184 367.184l13.406-8.985 16.875 25.805Zm0 0"/><path fill="#f9f9fa" d="m106.59 358.2-13.406 8.984 3.472-15.586Zm0 0"/><path fill="#081d3c" d="m77.64 349.344 15.544 17.84L79.394 384Zm0 0"/><path fill="#eeeff1" d="m93.184 367.184-15.543-17.84 19.015 2.254Zm0 0"/><path fill="#0b1f3c" d="m136.402 363.71-12.87-13.663 23.323-6.77Zm0 0"/><path fill="#e1e3e7" d="m144.016 331.492-20.485 18.555-3.36-12.59Zm0 0"/><path fill="#f5f6f7" d="m123.531 350.047 20.485-18.555 2.84 11.785Zm0 0"/><path fill="#081d3b" d="M173.586 56.254 189.082 0l23.45 60.855ZM189.082 0l-15.496 56.254-23.066-27.465Zm0 0"/><path fill="#081d3c" d="m186.371 79.828-12.785-23.574 38.945 4.601Zm0 0"/><path fill="#fcfcfc" d="m206.77 89.16 5.18 9.395-16.833 9.738Zm0 0"/><path fill="#081d3b" d="m206.77 89.16 5.761-28.305 8.082 29.11Zm0 0"/><path fill="#fbfbfc" d="m211.95 98.555-5.18-9.395 13.843.805Zm0 0"/><path fill="#f2f2f4" d="m131.766 39.879-2.868 23.875-14.457.559Zm0 0"/><path fill="#e2e4e4" d="m128.898 63.754-6.527 13.86-7.93-13.302Zm0 0"/><path fill="#f9f9fa" d="m122.371 77.613 6.527-13.86 10.235 16.29Zm0 0"/><path fill="#081d3b" d="m139.133 80.043 18.566-5.45 1.028 16.977ZM173.586 56.254l-31.137 1.207 8.07-28.672Zm0 0"/><path fill="#f2f3f4" d="m121.438 33.754 10.328 6.125-17.325 24.434Zm0 0"/><path fill="#ecedef" d="m121.438 33.754-5.723-5.887 11.5-12.8Zm0 0"/><path fill="#081d3b" d="m121.438 33.754-17.333 20.89 11.61-26.777ZM121.438 33.754l-6.997 30.559-10.336-9.668Zm0 0"/><path fill="#081d3c" d="m142.074 97.055-2.941-17.012 19.594 11.527Zm0 0"/><path fill="#e2e4e8" d="m139.133 80.043 2.941 17.012-17.152 8.172Zm0 0"/><path fill="#fefefe" d="m93.125 118.902 4.309-10.203 11.816 5.649Zm0 0"/><path fill="#081d3c" d="m97.434 108.7 8.992-15.544 2.824 21.192Zm0 0"/><path fill="#fefefe" d="m87.867 102.934 9.567 5.765-4.309 10.203Zm0 0"/><path fill="#081d3b" d="M106.426 93.156 97.434 108.7 94.18 94.914Zm0 0"/><path fill="#081d3c" d="m97.434 108.7-9.567-5.766 6.313-8.02Zm0 0"/><path fill="#081d3b" d="m384 174.176-13.336-72.496L376 49.625ZM376 49.625l-18.988 9.93-17.278-30.082Zm0 0"/><path fill="#081d3c" d="M376 49.625 384 0v174.176Zm0 0"/><path fill="#081d3c" d="m376 49.625-36.266-20.152L384 0ZM342.797 88.066l27.867 13.614-36.617 9.949Zm0 0"/><path fill="#081d3b" d="m318.633 81.563-21.367 23.558-6.25-20.965Zm0 0"/><path fill="#fcfdfd" d="m279.457 34.691-8.758-5.687 16.7-8.746Zm0 0"/><path fill="#f3f4f5" d="m295.098 42.484-15.641-7.793 7.941-14.433Zm0 0"/><path fill="#f3f4f5" d="m262.48 51.582 8.22-22.578 8.757 5.687Zm0 0"/><path fill="#081d3b" d="m270.7 29.004-8.22 22.578-20.921-19.144Zm0 0"/><path fill="#dfded6" d="m265.648 180.215-10.636 5.11-.84-11.805Zm0 0"/><path fill="#081d3b" d="M335.273 160.066 384 174.176l-47.281 31.531Zm0 0"/><path fill="#6e7884" d="m335.273 160.066-7.523-13.468 27.656-12.48Zm0 0"/><path fill="#818b99" d="m357.031 150.043-21.758 10.023 20.133-25.949Zm0 0"/><path fill="#081d3b" d="m335.273 160.066 21.758-10.023L384 174.176Zm0 0"/><path fill="#e6e8eb" d="m317.164 130.145-3.816-19.372 20.699.856Zm0 0"/><path fill="#f7f7f8" d="m277.828 136.332-8.781-21.133 28.219-10.078Zm0 0"/><path fill="#fbfbfc" d="m299.734 121.965-21.906 14.367 19.438-31.21Zm0 0"/><path fill="#dcd6bd" d="m254.172 173.52.84 11.804-26.219 3.117Zm0 0"/><path fill="#eeeeed" d="m252.52 153.578 1.652 19.942-25.379 14.921Zm0 0"/><path fill="#fdfdfd" d="m280.371 297.29-12.293-36.18 14.445-5.887Zm0 0"/><path fill="#fefefe" d="m280.371 297.29-8.324 3.105-3.969-39.286ZM254.738 310.512l13.828 5.875-6.168 16.59Zm0 0"/><path fill="#081d3c" d="m340.27 345.36 6.562 9.785-24.633-5.528Zm0 0"/><path fill="#fdfdfd" d="m340.27 345.36-12.575-22.598 22.953 14.57Zm0 0"/><path fill="#f1f3f4" d="m327.695 322.762 12.575 22.597-18.07 4.258Zm0 0"/><path fill="#081d3b" d="m346.832 355.145-6.562-9.786 10.378-8.027Zm0 0"/><path fill="#081d3c" d="m346.832 355.145-29.406 11.168 4.773-16.696Zm0 0"/><path fill="#e4e7ea" d="m317.426 366.313-22.45-18.954 27.223 2.258Zm0 0"/><path fill="#dde0e4" d="m304.625 328.434 23.07-5.672-5.496 26.855Zm0 0"/><path fill="#081d3b" d="m251.527 384 7.598-24.715 58.3 7.027Zm0 0"/><path fill="#293437" d="m200.633 256.828-25.512 4.106-12.976-15.786Zm0 0"/><path fill="#6c7477" d="m162.145 245.148 12.976 15.786-17.906-4.563Zm0 0"/><path fill="#091d3b" d="m162.145 245.148-23.208 1.786.711-19.72Zm0 0"/><path fill="#081d3b" d="m138.938 246.934 23.207-1.786-9 8.493Zm0 0"/><path fill="#b6b090" d="m178.543 226.484 22.09 30.344-38.488-11.68Zm0 0"/><path fill="#c2c1b3" d="m222.523 204.355-43.98 22.13 3.691-17.837Zm0 0"/><path fill="#373f3a" d="m228.402 230.055 1.618.254 29.52 31.152Zm0 0"/><path fill="#5f5c38" d="m178.543 226.484 49.86 3.57-27.77 26.774Zm0 0"/><path fill="#c5c8cc" d="m230.02 230.309-1.618-.254-5.879-25.7Zm0 0"/><path fill="#c6c8cc" d="m228.402 230.055-49.859-3.57 43.98-22.13Zm0 0"/><path fill="#efeeeb" d="m252.52 153.578-23.727 34.863-16.074-29.75Zm0 0"/><path fill="#fefbf0" d="m139.293 195.21 4.285 29.247-16.43-9.215Zm0 0"/><path fill="#fdf9ec" d="m127.148 215.242 16.43 9.215-3.93 2.758Zm0 0"/><path fill="#081d3b" d="m98.695 201.047 25.055 7.898-14.23 5.176ZM98.695 201.047l9.059-18.219 11.586 15.352Zm0 0"/><path fill="#081d3c" d="m123.75 208.945-25.055-7.898 20.645-2.867Zm0 0"/><path fill="#f2f3f4" d="m232.734 121.469-1.566 23.695-6.867-31.387Zm0 0"/><path fill="#081d3b" d="m23.266 113.25 16.507-27.277 1.008 29.14Zm0 0"/><path fill="#fefefe" d="M87.867 102.934 70.973 92.172l10.05-3.457Zm0 0"/><path fill="#081d3c" d="m81.023 88.715-11.988-11.66 19.863-2.371ZM88.898 74.684l-19.863 2.37-8.808-12.312Zm0 0"/><path fill="#fefefe" d="m70.973 92.172-1.938-15.117 11.988 11.66Zm0 0"/><path fill="#dbdee2" d="m69.035 77.055 1.938 15.117-12.29-.32Zm0 0"/><path fill="#fdfefe" d="m69.035 77.055-13.168.265 4.36-12.578Zm0 0"/><path fill="#f7f8f8" d="M69.035 77.055 58.684 91.852 55.867 77.32Zm0 0"/><path fill="#081d3c" d="M39.773 85.973 69.7 124.23l-28.918-9.117Zm0 0"/><path fill="#0e2240" d="M69.7 124.23 39.772 85.973l18.91 5.879Zm0 0"/><path fill="#2c3d57" d="m69.7 124.23 16.945.915-8.465 6.328Zm0 0"/><path fill="#f5f6f7" d="m98.426 133.566-11.781-8.421 6.48-6.243Zm0 0"/><path fill="#fdfdfd" d="m112.477 293.754-1.774 5.926-11.668-4.871Zm0 0"/><path fill="#081d3c" d="m110.703 299.68-17.848 13.082 6.18-17.953Zm0 0"/><path fill="#fefefe" d="m110.703 299.68 1.774-5.926 8.57 8.96Zm0 0"/><path fill="#fdfdfd" d="m92.855 312.762-4.386-15.864 10.566-2.09Zm0 0"/><path fill="#091d3b" d="m101.95 251.145 14.398-12.075 6.972 26.403Zm0 0"/><path fill="#f3e4b1" d="m116.348 239.07-14.399 12.075 8.29-19.387Zm0 0"/><path fill="#ceb96d" d="m110.238 231.758-8.289 19.387-16.96-18.676Zm0 0"/><path fill="#fefdfa" d="m101.95 251.145-15.97 18.074-.992-36.75Zm0 0"/><path fill="#081d3b" d="m16.86 133.922 9.886 1.348 1.492 34.511ZM67.922 137.77l1.777-13.54 8.48 7.243Zm0 0"/><path fill="#081d3c" d="m57.836 197.035 34.094-15.722 6.765 19.734Zm0 0"/><path fill="#081d3b" d="m91.93 181.313 15.824 1.515-9.059 18.219Zm0 0"/><path fill="#485565" d="m91.93 181.313 5.507-17.008 10.317 18.523Zm0 0"/><path fill="#081d3c" d="m57.836 197.035 21.562 20.918L46.29 236.7Zm0 0"/><path fill="#081d3c" d="m79.398 217.953 2.582 14.95-35.69 3.796Zm0 0"/><path fill="#0a1f3d" d="m79.398 217.953 19.059.852-13.469 13.664Zm0 0"/><path fill="#081d3b" d="m81.98 232.902-2.582-14.949 5.59 14.516Zm0 0"/><path fill="#081d3c" d="m79.398 217.953-21.562-20.918 40.86 4.012Zm0 0"/><path fill="#081d3b" d="m98.457 218.805-19.059-.852 19.297-16.906Zm0 0"/><path fill="#091d3b" d="m73.27 283.215-6.723-9.485 11.242-4.003Zm0 0"/><path fill="#ebe0b9" d="M104.383 281.691 85.98 269.22l15.97-18.074Zm0 0"/><path fill="#fcfcfd" d="m85.98 269.219 18.403 12.472-23.742 3.825Zm0 0"/><path fill="#fefefe" d="m80.273 269.629 5.707-.41-5.34 16.297ZM80.64 285.516l23.743-3.825-15.914 15.207Zm0 0"/><path fill="#fefefe" d="m104.383 281.691 8.094 12.063-13.442 1.055Zm0 0"/><path fill="#081d3b" d="m145.07 308.559 56.016 25.449-57.07-2.516ZM53.863 327.227l23.778 22.117-48.387-18.16Zm0 0"/><path fill="#091d3c" d="m70.52 325.61-16.657 1.617 10.403-9.72Zm0 0"/><path fill="#081d3b" d="m53.863 327.227 16.657-1.618 7.12 23.735Zm0 0"/><path fill="#0a1f3c" d="m99.11 331.563-21.47 17.78 7.66-22.902Zm0 0"/><path fill="#081d3b" d="m206.77 89.16-12.786-1.992 18.547-26.313Zm0 0"/><path fill="#081d3b" d="m193.984 87.168-7.613-7.34 26.16-18.973Zm0 0"/><path fill="#fefefe" d="m193.984 87.168 12.786 1.992-11.653 19.133Zm0 0"/><path fill="#fdfdfe" d="m185.809 88.813 8.175-1.645 1.133 21.125Zm0 0"/><path fill="#081d3b" d="m186.371 79.828 7.613 7.34-8.175 1.644Zm0 0"/><path fill="#f7f8f9" d="m133.176 15.266-.14 4.89-5.821-5.09Zm0 0"/><path fill="#edeef0" d="m133.035 20.156-11.597 13.598 5.777-18.688Zm0 0"/><path fill="#081d3c" d="m150.52 28.79-17.485-8.634L189.082 0Zm0 0"/><path fill="#081d3c" d="m133.035 20.156.14-4.89L189.083 0ZM106.426 93.156l18.496 12.07-15.672 9.122ZM372.305 144.676l-1.64-42.996L384 174.176Zm0 0"/><path fill="#081d3b" d="m372.305 144.676-16.899-10.559 15.258-32.437Zm0 0"/><path fill="#fdfefe" d="m372.305 144.676-15.274 5.367-1.625-15.926Zm0 0"/><path fill="#081d3b" d="m357.031 150.043 15.274-5.367 11.695 29.5Zm0 0"/><path fill="#081d3c" d="m357.012 59.555-42.45-1.645 25.172-28.437Zm0 0"/><path fill="#081d3c" d="m295.098 42.484 44.636-13.011-25.171 28.437ZM339.734 29.473l-44.636 13.011L318.25 0Zm0 0"/><path fill="#081d3c" d="m341.098 66.527-22.465 15.035-4.07-23.652Zm0 0"/><path fill="#081d3c" d="m357.012 59.555-15.914 6.972-26.536-8.617Zm0 0"/><path fill="#fdfdfd" d="m323.367 89.879-26.101 15.242 21.367-23.558Zm0 0"/><path fill="#737e90" d="m323.367 89.879 17.73-23.352 1.7 21.54Zm0 0"/><path fill="#fefefe" d="m341.098 66.527-17.73 23.352-4.735-8.317Zm0 0"/><path fill="#081d3c" d="m251.621 65.055-39.09-4.2 29.028-28.417ZM262.48 51.582l-10.859 13.473-10.062-32.618Zm0 0"/><path fill="#fdfdfd" d="m272.672 57.125-10.192-5.543 16.977-16.89Zm0 0"/><path fill="#081d3c" d="m301.21 229.46-7.507-47.42 43.016 23.667Zm0 0"/><path fill="#081d3b" d="m301.21 229.46-41.347-2.476 3.692-11.164Zm0 0"/><path fill="#b3b8c0" d="m293.703 182.04-15.875-22.958 37.211 2.957Zm0 0"/><path fill="#536070" d="m265.648 180.215 12.18-21.133 15.875 22.957Zm0 0"/><path fill="#081d3b" d="m325.273 136.39-8.109-6.245 16.883-18.516ZM344.55 121.848l-19.277 14.543 8.774-24.762ZM355.406 134.117l-30.133 2.274 19.278-14.543Zm0 0"/><path fill="#fefefe" d="m325.273 136.39 30.133-2.273-27.656 12.48Zm0 0"/><path fill="#505c69" d="M277.828 159.082v-22.75l37.211 25.707Zm0 0"/><path fill="#283951" d="m317.164 130.145-17.43-8.18 13.614-11.192Zm0 0"/><path fill="#fdfdfd" d="m313.348 110.773-13.614 11.192-2.468-16.844Zm0 0"/><path fill="#081d3b" d="m259.125 359.285-4.395-26.648 7.668.34Zm0 0"/><path fill="#081d3c" d="m254.73 332.637.008-22.125 7.66 22.465Zm0 0"/><path fill="#081d3c" d="m254.738 310.512-.008 22.125-23.164-18.66Zm0 0"/><path fill="#081d3b" d="m254.73 332.637 4.395 26.648-27.559-45.308Zm0 0"/><path fill="#fdfdfd" d="m285.168 319.469-4.797-22.18 24.254 31.145Zm0 0"/><path fill="#fbfbfc" d="m280.371 297.29 4.797 22.179-13.121-19.074Zm0 0"/><path fill="#102442" d="m286.96 270.645-6.589 26.644 2.152-42.066Zm0 0"/><path fill="#fdfdfd" d="m272.047 300.395-3.48 15.992-13.829-5.875Zm0 0"/><path fill="#091e3c" d="m294.977 347.36-9.809-27.891 19.457 8.965Zm0 0"/><path fill="#fdfdfe" d="m285.168 319.469 9.809 27.89-17.727-24.09Zm0 0"/><path fill="#081d3b" d="m277.25 323.27 17.727 24.09-35.852 11.925Zm0 0"/><path fill="#081d3b" d="m262.398 332.977 14.852-9.707-18.125 36.015Zm0 0"/><path fill="#7a8594" d="m294.977 347.36 9.648-18.926 17.574 21.183Zm0 0"/><path fill="#f6f6f3" d="m153.453 271.309-8.371-5.133 12.133-9.805Zm0 0"/><path fill="#837b4a" d="m228.402 230.055 1.711 25.738-29.48 1.035Zm0 0"/><path fill="#4c4d36" d="m230.113 255.793-1.71-25.738 31.136 31.406Zm0 0"/><path fill="#fefefe" d="m128.684 137.355 12.34 7.192-26.415 2.234Zm0 0"/><path fill="#fefefe" d="m114.61 146.781 26.413-2.234 15.387 16.805Zm0 0"/><path fill="#f2eddb" d="m144.86 189.688 11.55-28.336 72.383 27.09Zm0 0"/><path fill="#e8e5d7" d="m156.41 161.352 56.309-2.66 16.074 29.75Zm0 0"/><path fill="#fdf9ea" d="m156.41 161.352-11.55 28.335-25.403-16.058Zm0 0"/><path fill="#fefdfb" d="m114.61 146.781 41.8 14.57-36.953 12.278Zm0 0"/><path fill="#fefefe" d="m156.297 106.266-14.223-9.211 16.653-5.485Zm0 0"/><path fill="#fefefe" d="m142.074 97.055 14.223 9.21-16.246 13.485Zm0 0"/><path fill="#efdd9f" d="m143.578 224.457 18.567 20.691-22.497-17.933Zm0 0"/><path fill="#faf5e6" d="m178.543 226.484-34.965-2.027-4.285-29.246Zm0 0"/><path fill="#aaa27b" d="m162.145 245.148-18.567-20.691 34.965 2.027Zm0 0"/><path fill="#f8f8f9" d="m220.613 89.965 3.688 23.812-12.352-15.222Zm0 0"/><path fill="#f5f5f7" d="m232.734 121.469-8.433-7.692 32.031 4.383Zm0 0"/><path fill="#bbc0c9" d="m78.96 113.094 7.685 12.05-16.946-.914Zm0 0"/><path fill="#fdfdfd" d="m78.96 113.094 8.907-10.16 5.258 15.968Zm0 0"/><path fill="#fdfdfd" d="m86.645 125.145-7.684-12.051 14.164 5.808Zm0 0"/><path fill="#e4e6e9" d="m99.11 331.563 21.062 5.894-11.977 10.938Zm0 0"/><path fill="#081d3b" d="m85.3 326.441 11.317-4.507 2.492 9.628Zm0 0"/><path fill="#081d3c" d="m99.11 331.563-2.493-9.63 24.43-19.218Zm0 0"/><path fill="#091e3c" d="m96.617 321.934 14.086-22.254 10.344 3.035Zm0 0"/><path fill="#081d3c" d="m110.703 299.68-14.086 22.254-3.762-9.172Zm0 0"/><path fill="#fdfdfd" d="m22.27 120.688-5.41 13.234-6.637-6.453Zm0 0"/><path fill="#e9ebed" d="m22.27 120.688 4.476 14.582-9.887-1.348Zm0 0"/><path fill="#091e3d" d="m23.266 113.25-.996 7.438-12.047 6.78Zm0 0"/><path fill="#081d3b" d="m68.66 174.902 23.27 6.41-34.094 15.723Zm0 0"/><path fill="#081d3c" d="m49.352 162.695 19.308 12.207-10.824 22.133Zm0 0"/><path fill="#f6f5f3" d="m62.594 153.11 6.066 21.792-19.308-12.207Zm0 0"/><path fill="#5a677a" d="M97.438 164.305 68.66 174.902l-6.066-21.793Zm0 0"/><path fill="#f5f5f5" d="m68.66 174.902 28.778-10.597-5.508 17.007Zm0 0"/><path fill="#fafafa" d="m140.52 292.168 4.55 16.39-16.68-10.894Zm0 0"/><path fill="#f2f3f4" d="m131.758 286.727 8.762 5.441-12.13 5.496Zm0 0"/><path fill="#081d3b" d="m70.52 325.61 14.78.831-7.66 22.903ZM70.29 311.363l15.01 15.078-14.78-.832ZM43.32 315.406l-14.066 15.778 5.937-41.532Zm0 0"/><path fill="#081d3b" d="m43.32 315.406 10.543 11.82-24.61 3.958ZM142.45 57.46l31.136-1.206-15.887 18.34Zm0 0"/><path fill="#081d3b" d="m142.45 57.46 15.25 17.134-18.567 5.449Zm0 0"/><path fill="#fcfcfc" d="m128.898 63.754 13.551-6.293-3.316 22.582Zm0 0"/><path fill="#fbfbfc" d="m142.45 57.46-13.552 6.294 2.868-23.875Zm0 0"/><path fill="#bcc1ca" d="m147.426 29.598-4.977 27.863-10.683-17.582Zm0 0"/><path fill="#fbfcfc" d="m121.438 33.754 25.988-4.156-15.66 10.28Zm0 0"/><path fill="#fcfcfd" d="m133.035 20.156 14.39 9.442-25.988 4.156Zm0 0"/><path fill="#081d3c" d="m142.45 57.46 4.976-27.862 3.094-.809Zm0 0"/><path fill="#081d3b" d="m147.426 29.598-14.39-9.442 17.484 8.633Zm0 0"/><path fill="#081d3c" d="m140.05 119.75.973 24.797-12.34-7.192Zm0 0"/><path fill="#fdfdfd" d="m140.05 119.75-11.366 17.605-14.075 9.426Zm0 0"/><path fill="#fefefe" d="m142.074 97.055-2.023 22.695-15.13-14.523Zm0 0"/><path fill="#fdfefe" d="m140.05 119.75-25.44 27.031-5.36-32.433Zm0 0"/><path fill="#fefefe" d="m124.922 105.227 15.129 14.523-30.801-5.402Zm0 0"/><path fill="#081d3b" d="m357.012 59.555 13.652 42.125-27.867-13.614Zm0 0"/><path fill="#f6f7f8" d="m341.098 66.527 15.914-6.972-14.215 28.511Zm0 0"/><path fill="#233551" d="m313.348 110.773 10.02-20.894 10.679 21.75Zm0 0"/><path fill="#e3e6e9" d="m323.367 89.879 19.43-1.813-8.75 23.563Zm0 0"/><path fill="#f4f5f6" d="m323.367 89.879-10.02 20.894-16.081-5.652Zm0 0"/><path fill="#fbfbfb" d="m265.582 72.883-13.96-7.828 10.858-13.473Zm0 0"/><path fill="#fafafb" d="m272.672 57.125-7.09 15.758-3.102-21.301Zm0 0"/><path fill="#081d3b" d="m265.59 200.148 35.62 29.313-37.655-13.64Zm0 0"/><path fill="#081d3c" d="m265.648 180.215-.058 19.933-10.578-14.824ZM265.59 200.148l-25.863-6.082 15.285-8.742Zm0 0"/><path fill="#081d3c" d="m301.21 229.46-35.62-29.312 28.113-18.109Zm0 0"/><path fill="#081d3b" d="m265.59 200.148.058-19.933 28.055 1.824Zm0 0"/><path fill="#ecebe5" d="m277.828 159.082-12.18 21.133-11.476-6.695Zm0 0"/><path fill="#ededea" d="m277.828 159.082-25.308-5.504 25.308-17.246Zm0 0"/><path fill="#eeeeed" d="m252.52 153.578 25.308 5.504-23.656 14.438Zm0 0"/><path fill="#fefefe" d="m310.16 139.543 15.113-3.152 2.477 10.207Zm0 0"/><path fill="#081d3b" d="m325.273 136.39-15.113 3.153 7.004-9.398Zm0 0"/><path fill="#fafafb" d="m315.04 162.04-4.88-22.497 17.59 7.055Zm0 0"/><path fill="#fcfcfb" d="m277.828 136.332 32.332 3.211 4.88 22.496Zm0 0"/><path fill="#081d3b" d="m317.164 130.145-7.004 9.398-10.426-17.578Zm0 0"/><path fill="#081d3b" d="m310.16 139.543-32.332-3.211 21.906-14.367Zm0 0"/><path fill="#fefefe" d="m285.168 319.469-7.918 3.8-5.203-22.874ZM272.047 300.395l5.203 22.875-8.684-6.883Zm0 0"/><path fill="#091e3d" d="m277.25 323.27-14.852 9.707 6.168-16.59Zm0 0"/><path fill="#caced5" d="m303.992 289.367-23.62 7.922 6.589-26.644Zm0 0"/><path fill="#081d3b" d="m326.742 259.188-22.75 30.18-17.031-18.723Zm0 0"/><path fill="#081d3b" d="m303.992 289.367 22.75-30.18 18.754 40.727Zm0 0"/><path fill="#666a62" d="m175.121 260.934-1.937 6.996-15.97-11.559Zm0 0"/><path fill="#808583" d="m173.184 267.93-19.73 3.379 3.76-14.938Zm0 0"/><path fill="#0a1e3b" d="m200.633 256.828-27.45 11.102 1.938-6.996Zm0 0"/><path fill="#fefdf9" d="m168.824 128.195 43.895 30.496-56.309 2.66Zm0 0"/><path fill="#fefefe" d="m141.023 144.547 27.801-16.352-12.414 33.157Zm0 0"/><path fill="#fcfcfc" d="m168.824 128.195-27.8 16.352-.973-24.797Zm0 0"/><path fill="#fbfbfb" d="m156.297 106.266 12.527 21.93-28.773-8.446Zm0 0"/><path fill="#fcfcfc" d="m168.824 128.195-12.527-21.93 15.281-3.738Zm0 0"/><path fill="#fdfdfd" d="m195.117 108.293-26.293 19.902 2.754-25.668Zm0 0"/><path fill="#fefefd" d="m168.824 128.195 26.293-19.902 17.602 50.398Zm0 0"/><path fill="#f8f9fa" d="M78.96 113.094 69.7 124.23 58.683 91.852Zm0 0"/><path fill="#43536a" d="m70.973 92.172 7.988 20.922-20.277-21.242Zm0 0"/><path fill="#fefefe" d="m78.96 113.094-7.987-20.922 16.894 10.762Zm0 0"/><path fill="#081d3b" d="M34.602 127.969 23.266 113.25l17.515 1.863Zm0 0"/><path fill="#081d3c" d="m34.602 127.969-12.332-7.281.996-7.438Zm0 0"/><path fill="#fdfdfd" d="m22.27 120.688 12.332 7.28-7.856 7.302Zm0 0"/><path fill="#fefefe" d="m34.602 127.969 33.32 9.8-5.328 15.34Zm0 0"/><path fill="#172a47" d="m49.352 162.695-14.75-34.726 27.992 25.14Zm0 0"/><path fill="#081d3c" d="m28.238 169.781 21.114-7.086 8.484 34.34Zm0 0"/><path fill="#081d3c" d="m26.746 135.27 22.606 27.425-21.114 7.086Zm0 0"/><path fill="#9ba3af" d="m34.602 127.969 14.75 34.726-22.606-27.425Zm0 0"/><path fill="#fdfefe" d="m67.922 137.77 25.16 3.433-30.488 11.906Zm0 0"/><path fill="#ebecec" d="m93.082 141.203 4.356 23.102-34.844-11.196Zm0 0"/><path fill="#fefbf3" d="m97.438 164.305-4.356-23.102 21.527 5.578Zm0 0"/><path fill="#0a1f3d" d="m93.082 141.203-25.16-3.433 10.258-6.297Zm0 0"/><path fill="#fefefc" d="m93.082 141.203 5.344-7.637 16.183 13.215Zm0 0"/><path fill="#081d3c" d="m86.645 125.145 6.437 16.058-14.902-9.73Zm0 0"/><path fill="#081d3c" d="m93.082 141.203-6.437-16.058 11.78 8.421Zm0 0"/><path fill="#eff0f2" d="m99.11 331.563 28.714-17.739-7.652 23.633Zm0 0"/><path fill="#ebedef" d="M127.824 313.824 99.11 331.562l21.938-28.847Zm0 0"/><path fill="#ecedef" d="m120.172 337.457 7.652-23.633 16.192 17.668Zm0 0"/><path fill="#f9f9fa" d="m127.824 313.824 17.246-5.265-1.054 22.933Zm0 0"/><path fill="#e5e7ea" d="m158.227 285.352-13.157 23.207-4.55-16.391Zm0 0"/><path fill="#081d3b" d="m158.227 285.352 42.406-28.524.453 77.18ZM145.07 308.559l13.157-23.207 42.859 48.656Zm0 0"/><path fill="#646e74" d="m173.184 267.93-14.957 17.422-4.774-14.043Zm0 0"/><path fill="#091d3b" d="m158.227 285.352 14.957-17.422 27.449-11.102Zm0 0"/><path fill="#081d3b" d="m145.082 266.176-8.496 8.953-13.266-9.656Zm0 0"/><path fill="#0d213e" d="m120.281 289.785 11.477-3.058-3.367 10.937Zm0 0"/><path fill="#192c49" d="m120.281 289.785.766 12.93-8.57-8.961Zm0 0"/><path fill="#102441" d="m121.047 302.715-.766-12.93 8.11 7.88Zm0 0"/><path fill="#fcfcfc" d="m104.383 281.691 15.898 8.094-7.804 3.969Zm0 0"/><path fill="#fefefe" d="m80.64 285.516-19.843 21.773 12.473-24.074ZM60.797 307.29l19.844-21.774-10.352 25.847Zm0 0"/><path fill="#091e3c" d="m96.617 321.934-10.207-.657 6.445-8.515Zm0 0"/><path fill="#081d3c" d="m86.41 321.277 10.207.657-11.316 4.507Zm0 0"/><path fill="#081d3b" d="m35.191 289.652 31.356-15.922 6.723 9.485Zm0 0"/><path fill="#fbfbfc" d="m156.297 106.266 2.43-14.696 12.851 10.957Zm0 0"/><path fill="#46556b" d="m303.992 289.367.633 39.067-24.254-31.145Zm0 0"/><path fill="#091d3c" d="m327.695 322.762-23.703-33.395 41.504 10.547Zm0 0"/><path fill="#c9cdd3" d="m304.625 328.434-.633-39.067 23.703 33.395Zm0 0"/><path fill="#081d3b" d="m67.922 137.77-27.14-22.657 28.917 9.117Zm0 0"/><path fill="#081d3c" d="m34.602 127.969 6.18-12.856 27.14 22.657Zm0 0"/><path fill="#f5f5f7" d="m145.07 308.559-17.246 5.265.567-16.16Zm0 0"/><path fill="#f0f1f3" d="m127.824 313.824-6.777-11.11 7.344-5.05Zm0 0"/><path fill="#f0f0f0" d="m153.453 271.309-12.367 6.824 3.996-11.957Zm0 0"/><path fill="#0a1e3c" d="m141.086 278.133-4.5-3.004 8.496-8.953Zm0 0"/><path fill="#0b1f3c" d="m136.586 275.129 4.5 3.004-9.328 8.594Zm0 0"/><path fill="#eff1f2" d="m131.758 286.727 9.328-8.594-.566 14.035Zm0 0"/><path fill="#f6f7f8" d="m141.086 278.133 17.14 7.219-17.706 6.816Zm0 0"/><path fill="#f2f3f4" d="m158.227 285.352-17.141-7.22 12.367-6.823Zm0 0"/><path fill="#081d3b" d="m123.32 265.473-3.039 24.312-15.898-8.094ZM120.281 289.785l3.04-24.312 8.437 21.254Zm0 0"/><path fill="#081d3b" d="m123.32 265.473 13.266 9.656-4.828 11.598Zm0 0"/><path fill="#fefefe" d="m86.41 321.277 2.059-24.379 4.386 15.864Zm0 0"/><path fill="#0a1f3e" d="m64.266 317.508 6.023-6.145.23 14.246Zm0 0"/><path fill="#fefefe" d="m64.266 317.508-3.47-10.219 9.493 4.074Zm0 0"/><path fill="#081d3b" d="M54.234 301.11 43.32 315.405l-8.129-25.754Zm0 0"/><path fill="#081d3c" d="m54.234 301.11-19.043-11.458 38.079-6.437Zm0 0"/><path fill="#fefefe" d="m60.797 307.29-6.563-6.18 19.036-17.895Zm0 0"/><path fill="#fdfdfe" d="m171.578 102.527 14.23-13.715 9.31 19.481Zm0 0"/><path fill="#081d3b" d="m173.406 87.691-14.68 3.88-1.027-16.977Zm0 0"/><path fill="#081d3c" d="m185.809 88.813-12.403-1.122 12.965-7.863Zm0 0"/><path fill="#fdfdfe" d="m171.578 102.527 1.828-14.836 12.403 1.121Zm0 0"/><path fill="#fbfcfc" d="m173.406 87.691-1.828 14.836-12.851-10.957Zm0 0"/><path fill="#081d3b" d="m173.406 87.691.18-31.437 12.785 23.574Zm0 0"/><path fill="#081d3b" d="M173.406 87.691 157.7 74.594l15.887-18.34Zm0 0"/><path fill="#081d3c" d="m265.582 72.883 12.852 9.597-17.965 24.848Zm0 0"/><path fill="#081d3b" d="m212.531 60.855 33.739 22.97-25.657 6.14Zm0 0"/><path fill="#081d3c" d="m251.621 65.055-5.351 18.77-33.739-22.97Zm0 0"/><path fill="#fefefe" d="m246.27 83.824 19.312-10.941-5.113 34.445Zm0 0"/><path fill="#f7f7f8" d="M265.582 72.883 246.27 83.824l5.351-18.77Zm0 0"/><path fill="#081d3c" d="m284.094 69.074-18.512 3.809 7.09-15.758Zm0 0"/><path fill="#081d3b" d="m314.563 57.91-30.47 11.164 11.005-26.59Zm0 0"/><path fill="#081d3c" d="m284.094 69.074-11.422-11.949 22.426-14.64Zm0 0"/><path fill="#081d3b" d="m269.047 115.2 21.969-31.044 6.25 20.965Zm0 0"/><path fill="#fdfdfd" d="m80.64 285.516 3.391 13.058-13.742 12.79Zm0 0"/><path fill="#fefefe" d="m84.031 298.574-3.39-13.058 7.828 11.382ZM54.234 301.11l6.563 6.18-17.477 8.116Zm0 0"/><path fill="#fefefe" d="m53.863 327.227 6.934-19.938 3.469 10.219Zm0 0"/><path fill="#0a1f3d" d="m43.32 315.406 17.477-8.117-6.934 19.938Zm0 0"/><path fill="#081d3c" d="m265.582 72.883 18.512-3.809-5.66 13.406ZM246.27 83.824l-5.66 15.016-19.997-8.875Zm0 0"/><path fill="#fcfcfc" d="m224.3 113.777 16.31-14.937 15.722 19.32Zm0 0"/><path fill="#f8f8f9" d="m240.61 98.84-16.31 14.937-3.687-23.812Zm0 0"/><path fill="#fdfdfd" d="m240.61 98.84 5.66-15.016 14.199 23.504Zm0 0"/><path fill="#d4d6dc" d="m256.332 118.16-15.723-19.32 19.86 8.488Zm0 0"/><path fill="#081d3b" d="m291.016 84.156-6.922-15.082 30.469-11.164Zm0 0"/><path fill="#081d3c" d="m284.094 69.074 6.922 15.082-12.582-1.676Zm0 0"/><path fill="#081d3b" d="m278.434 82.48 12.582 1.676-21.97 31.043Zm0 0"/><path fill="#081d3c" d="m260.469 107.328 17.965-24.848-9.387 32.72Zm0 0"/><path fill="#2e3f59" d="m84.031 298.574 2.38 22.703-16.122-9.914Zm0 0"/><path fill="#fefefe" d="m86.41 321.277-2.379-22.703 4.438-1.676Zm0 0"/><path fill="#081d3b" d="m86.41 321.277-1.11 5.164-15.01-15.078Zm0 0"/></svg>