<svg xmlns="http://www.w3.org/2000/svg" width="512" height="512" viewBox="0 0 384 384"><path fill="#4a2d2c" d="m60.29 64.23-23.286 13.2 4.785-36.254Zm0 0"/><path fill="#4a2d2c" d="M89.848 44.152 60.289 64.23l-18.5-23.054ZM0 277.691V195.06l45.258 41.406Zm0 0"/><path fill="#4a2d2c" d="M36.5 283.043 0 277.691l45.258-41.226ZM159.027 357.855l45.07-29.699L220.903 384ZM274.477 14.484 293.832 0l-7.629 19.7ZM237.633 194.336l26.453 14.851-14.04 8.18Zm0 0"/><path fill="#4a2d2c" d="M316.754 384h-95.852l48.797-26.648ZM362.664 312.418l-24.633-53.723L384 298.665Zm0 0"/><path fill="#4a2d2c" d="M241.773 337.93 220.903 384l-16.805-55.844ZM83.918 73.082 60.289 64.23l29.559-20.078ZM41.79 41.176 0 0h73.012Zm0 0"/><path fill="#4a2d2c" d="m89.848 44.152-48.059-2.976L73.012 0ZM115.05 12.07 89.849 44.152 73.012 0ZM18.664 102.316 0 75.91l37.004 1.52Zm0 0"/><path fill="#4a2d2c" d="M125.086 0 115.05 12.07 73.01 0ZM115.05 12.07 125.087 0l3.484 15.2ZM60.29 64.23 54.3 76.254 37.005 77.43ZM0 195.059V75.91l8.012 54.797ZM0 195.059l57.395 1.097-12.137 40.309ZM29.488 337.07 58.723 384H0Zm0 0"/><path fill="#4a2d2c" d="m58.723 384-29.235-46.93 36.79 5.375ZM0 277.691l36.5 5.352-7.012 54.027ZM293.832 0l-19.355 14.484-57.43 9.184Zm0 0"/><path fill="#4a2d2c" d="m270.703 28.336 3.774-13.852 11.726 5.215ZM338.031 258.695l-38.43-48.988 47.415-26.734Zm0 0"/><path fill="#4a2d2c" d="m287.86 238.184 11.742-28.477 38.43 48.988Zm0 0"/><path fill="#f6c5b4" d="m263.555 163.484 14.683-27.425 7.871 24.355Zm0 0"/><path fill="#f6c5b5" d="m263.555 163.484-28.633 14.313 11.879-52.488Zm0 0"/><path fill="#4a2d2c" d="m258.973 271.734-10.051 28.496-20.234-6.75Zm0 0"/><path fill="#f6c5b5" d="m264.945 232.617 16.114 18.274-14.016 7.504Zm0 0"/><path fill="#4a2d2c" d="m281.059 250.89-16.114-18.273 22.914 5.567ZM338.031 258.695l-56.972-7.804 6.8-12.707Zm0 0"/><path fill="#f6c5b5" d="m252.406 238.969 12.54-6.352 2.097 25.778Zm0 0"/><path fill="#dabeb6" d="m247.383 249.379 5.023-10.41 14.637 19.426Zm0 0"/><path fill="#4a2d2c" d="m228.742 271.152 30.23.582-30.284 21.746ZM304.89 347.879l24.208-1.625L316.754 384Zm0 0"/><path fill="#4a2d2c" d="M304.89 347.879 316.755 384l-47.055-26.648Zm0 0"/><path fill="#4a2d2c" d="M348.566 350.297 316.754 384l12.344-37.746Zm0 0"/><path fill="#f6c5b4" d="m250.047 217.367-20.375 12.094 7.96-35.125Zm0 0"/><path fill="#e0bfb5" d="m229.672 229.46 22.734 9.509-5.023 10.41Zm0 0"/><path fill="#4a2d2c" d="M133.094 13.973 125.086 0h46.855Zm0 0"/><path fill="#4a2d2c" d="m125.086 0 8.008 13.973-4.524 1.226Zm0 0"/><path fill="#d7bfa4" d="m161.234 181.766 17.95-13.078-8.711 29.835Zm0 0"/><path fill="#b7b792" d="m234.922 177.797 2.71 16.539-67.16 4.187Zm0 0"/><path fill="#d7bfa3" d="m179.184 168.688 55.738 9.109-64.45 20.726Zm0 0"/><path fill="#d9bfa4" d="m161.234 181.766-27.488 8.504 21.32-27.993Zm0 0"/><path fill="#f6c5b5" d="m246.8 125.309-11.878 52.488-15.281-62.766Zm0 0"/><path fill="#f6c5b4" d="m278.238 136.059-31.437-10.75 17.105-9.887Zm0 0"/><path fill="#f6c5b4" d="m246.8 125.309 13.72-17.332 3.386 7.445Zm0 0"/><path fill="#f6c5b5" d="M263.555 163.484 246.8 125.31l31.437 10.75Zm0 0"/><path fill="#4a2d2c" d="M37.004 77.43 0 75.91l41.79-34.734ZM79.691 87.078l4.227-13.996 6.969 16.055ZM148.098 262.156l10.87-16.5 4.34 4.41Zm0 0"/><path fill="#4a2d2c" d="m148.098 262.156-13.594-12.777 24.465-3.723Zm0 0"/><path fill="#ebc3b5" d="m140.266 225.813-26.235.613 6.723-11.063Zm0 0"/><path fill="#f4c5b5" d="m114.031 226.426-4.37-12.422 11.093 1.36Zm0 0"/><path fill="#4a2d2c" d="m26.246 168.59 31.149 27.566L0 195.06ZM83.508 216.926l-26.113-20.77 44.808 1.88Zm0 0"/><path fill="#f6c5b5" d="m89.027 283.227 16.57-1.18-5.519 11.594Zm0 0"/><path fill="#4a2d2c" d="m148.05 343.633 22.333-24.531-11.356 38.753ZM170.383 319.102l33.715 9.054-45.07 29.7Zm0 0"/><path fill="#4a2d2c" d="m144.207 325.848 26.176-6.746-22.332 24.53ZM228.742 271.152l-33.144 15.25 19.945-29.988ZM45.258 236.465l16.574 33.23L36.5 283.043Zm0 0"/><path fill="#4a2d2c" d="m61.832 269.695-16.574-33.23 34.605 15.5ZM105.453 361.582l23.211-11.36L119.98 384Zm0 0"/><path fill="#cbbab7" d="m128.664 350.223-23.21 11.359 7.167-24.043Zm0 0"/><path fill="#ecc3b5" d="m105.453 361.582-11.418-6.129 18.586-17.914Zm0 0"/><path fill="#4a2d2c" d="m128.664 350.223 30.363 7.632L119.98 384Zm0 0"/><path fill="#4a2d2c" d="M159.027 357.855 220.902 384H119.98ZM120.105 69.496 89.848 44.152l29.277 6.032Zm0 0"/><path fill="#f6c5b5" d="m120.105 69.496 21.446 5.723L124 103.926Zm0 0"/><path fill="#4a2d2c" d="m354.273 132.969 10.192-16.371 19.515 29.828ZM364.465 116.598l-10.192 16.37-21.66-21.284ZM306.21 83.828l-7.554 18.52-5.238-17.817ZM293.832 0H384l-17.555 26.758ZM293.832 0l7.137 39.84-14.766-20.14ZM270.703 28.336l-19.039 25.016-34.617-29.684Zm0 0"/><path fill="#4a2d2c" d="m274.477 14.484-3.774 13.852-53.656-4.668Zm0 0"/><path fill="#4a2d2c" d="m217.047 23.668 25.047 37.73-17.992 7.239Zm0 0"/><path fill="#4a2d2c" d="m251.664 53.352-9.57 8.046-25.047-37.73ZM338.031 258.695l45.95-112.27.019 152.24Zm0 0"/><path fill="#4a2d2c" d="m347.016 182.973 36.964-36.547-45.949 112.27ZM292.137 183.2l19.683-16.055-12.218 42.562ZM299.602 209.707l12.218-42.562 35.196 15.828Zm0 0"/><path fill="#4a2d2c" d="m311.82 167.145 27.657-7.243 7.539 23.07Zm0 0"/><path fill="#edc1b2" d="m321.188 151.09 18.289 8.812-27.657 7.243Zm0 0"/><path fill="#795954" d="m308.586 154.371 12.601-3.281-9.367 16.055Zm0 0"/><path fill="#4a2d2c" d="m282.906 267-1.847-16.11 56.972 7.805Zm0 0"/><path fill="#f6c5b5" d="m281.059 250.89 1.847 16.11-15.863-8.605Zm0 0"/><path fill="#4a2d2c" d="m228.742 271.152 31.012-9.707-.781 10.29Zm0 0"/><path fill="#4a2d2c" d="m259.754 261.445-31.012 9.707 18.64-21.773Zm0 0"/><path fill="#f1c4b5" d="m259.754 261.445 7.289-3.05-8.07 13.34Zm0 0"/><path fill="#ddbfb6" d="m259.754 261.445-12.371-12.066 19.66 9.016Zm0 0"/><path fill="#f6c5b5" d="m271.324 278.855-22.402 21.375 10.05-28.496Zm0 0"/><path fill="#f6c5b5" d="m248.922 300.23 22.402-21.375-8.203 22.934ZM267.043 258.395l4.281 20.46-12.351-7.12Zm0 0"/><path fill="#4a2d2c" d="m228.688 293.48 4.93 19.715-29.52 14.961ZM195.598 286.402l33.09 7.078-24.59 34.676Zm0 0"/><path fill="#4a2d2c" d="m228.688 293.48-33.09-7.078 33.144-15.25Zm0 0"/><path fill="#f6c5b5" d="m254.992 310.066-6.07-9.836 14.2 1.56ZM248.922 300.23l6.07 9.836-21.375 3.13Zm0 0"/><path fill="#4a2d2c" d="m228.688 293.48 20.234 6.75-15.305 12.965ZM264.945 232.617l-14.898-15.25 14.039-8.18Zm0 0"/><path fill="#f6c5b4" d="m252.406 238.969-2.36-21.602 14.9 15.25Zm0 0"/><path fill="#f3c4b3" d="m229.672 229.46 20.375-12.093 2.36 21.602Zm0 0"/><path fill="#b8b793" d="m262.074 182.824-24.441 11.512-2.711-16.54Zm0 0"/><path fill="#4a2d2c" d="m362.664 312.418-14.098 37.879-2.953-14.004ZM384 384l-21.336-71.582L384 298.664Zm0 0"/><path fill="#4a2d2c" d="M362.664 312.418 384 384l-35.434-33.703Zm0 0"/><path fill="#4a2d2c" d="M384 384h-67.246l31.812-33.703ZM335.484 325.813l27.18-13.395-17.05 23.875Zm0 0"/><path fill="#89a9b9" d="m182.102 252.66-17.2-8.113 11.801-16.309Zm0 0"/><path fill="#4c3231" d="m158.969 245.656 5.933-1.11-1.593 5.52Zm0 0"/><path fill="#8aa1ae" d="m215.543 256.414-29.629 3.18-3.812-6.934Zm0 0"/><path fill="#4a2d2c" d="m83.918 73.082 20.414 10.125-13.445 5.93Zm0 0"/><path fill="#4a2d2c" d="m104.332 83.207 15.773-13.71L124 103.925ZM89.848 44.152l14.484 39.055-20.414-10.125Zm0 0"/><path fill="#4a2d2c" d="m120.105 69.496-15.773 13.711-14.484-39.055Zm0 0"/><path fill="#f6c5b5" d="m95.875 164.266 2.418-28.22 20.68 6.778Zm0 0"/><path fill="#f6c5b5" d="m118.973 142.824-20.68-6.777 13.16-21.984ZM98.293 136.047l-5.867-21.176 19.027-.808Zm0 0"/><path fill="#868277" d="m133.746 190.27 36.727 8.253-34.352 1.942Zm0 0"/><path fill="#cbbc9d" d="m170.473 198.523-36.727-8.253 27.488-8.504Zm0 0"/><path fill="#f6c5b5" d="m118.973 142.824 36.093 19.453-32.746 9.004ZM155.066 162.277l-36.093-19.453 15.972-22.07Zm0 0"/><path fill="#d7bfa2" d="m155.066 162.277-21.32 27.993-11.426-18.989Zm0 0"/><path fill="#4a2d2c" d="m110.02 184.969 23.726 5.3-14.488 7.79Zm0 0"/><path fill="#cfbda0" d="m133.746 190.27-23.726-5.301 12.3-13.688Zm0 0"/><path fill="#4a2d2c" d="m133.746 190.27 2.375 10.195-16.863-2.406Zm0 0"/><path fill="#4a2d2c" d="m136.121 200.465-17.781 9.285.918-11.691Zm0 0"/><path fill="#f6c5b5" d="m118.34 209.75 17.781-9.285-15.367 14.898Zm0 0"/><path fill="#f1c4b5" d="m109.66 214.004 8.68-4.254 2.414 5.613Zm0 0"/><path fill="#4a2d2c" d="m308.406 55.313 8.715 25.542-10.91 2.973ZM41.79 41.176 0 75.91V0ZM0 75.91l18.664 26.406-10.652 28.391ZM37.215 108.484l-18.55-6.168L37.003 77.43ZM84.395 98.32 79.69 87.078l11.196 2.059ZM54.3 76.254l3.723 23.605-21.02-22.43Zm0 0"/><path fill="#dec0a6" d="m110.02 184.969-14.145-20.703 26.445 7.015Zm0 0"/><path fill="#f6c5b4" d="m95.875 164.266 23.098-21.442 3.347 28.457Zm0 0"/><path fill="#4a2d2c" d="m92.148 224.563-8.64-7.637 26.152-2.922Zm0 0"/><path fill="#f5c5b5" d="m114.031 226.426-21.883-1.863 17.512-10.56Zm0 0"/><path fill="#c0b7b6" d="m113.305 241.195.726-14.77 26.235-.613Zm0 0"/><path fill="#4a2d2c" d="m134.504 249.379-21.2-8.184 26.962-15.382ZM8.012 130.707l18.234 37.883L0 195.059ZM45.258 236.465l37.48-1.453-2.875 16.953Zm0 0"/><path fill="#f5c5b5" d="m96.54 241.941-13.802-6.93 9.41-10.448Zm0 0"/><path fill="#efc4b5" d="m89.793 251.906-14.461 27.516 4.531-27.457Zm0 0"/><path fill="#f1c4b5" d="m82.738 235.012 7.055 16.894-9.93.059Zm0 0"/><path fill="#f2c4b5" d="m89.793 251.906-7.055-16.894 13.801 6.93Zm0 0"/><path fill="#f6c5b5" d="m101.832 251.207 3.766 30.84-16.57 1.18Zm0 0"/><path fill="#4a2d2c" d="m101.832 251.207 14.492 5.523-10.726 25.317Zm0 0"/><path fill="#cbbbb7" d="m112.621 337.54 31.586-11.692-15.543 24.375Zm0 0"/><path fill="#4a2d2c" d="M0 384V277.691l29.488 59.38ZM81.625 356.254 58.723 384l7.554-41.555Zm0 0"/><path fill="#4a2d2c" d="m81.625 356.254 10.547 13.344L58.722 384Zm0 0"/><path fill="#4a2d2c" d="m92.172 369.598-10.547-13.344 12.41-.8Zm0 0"/><path fill="#dcbfb6" d="m94.035 355.453-4.914-15.363 23.5-2.55Zm0 0"/><path fill="#4a2d2c" d="m81.625 356.254 7.496-16.164 4.914 15.363ZM89.121 340.09l-7.496 16.164-15.348-13.809ZM92.172 369.598 119.98 384H58.723Zm0 0"/><path fill="#4a2d2c" d="m92.172 369.598 13.281-8.016L119.98 384Zm0 0"/><path fill="#f5c5b4" d="m105.453 361.582-13.281 8.016 1.863-14.145Zm0 0"/><path fill="#4a2d2c" d="m159.027 357.855-30.363-7.632 19.387-6.59Zm0 0"/><path fill="#dcbfb6" d="m128.664 350.223 15.543-24.375 3.844 17.785Zm0 0"/><path fill="#4a2d2c" d="M217.047 23.668 171.94 0h121.891Zm0 0"/><path fill="#4a2d2c" d="m171.941 0 45.106 23.668-47.156-2.879Zm0 0"/><path fill="#492d2c" d="M217.047 23.668 187.3 52.707l-17.41-31.918Zm0 0"/><path fill="#4a2d2c" d="m187.3 52.707 29.747-29.039 7.055 44.969Zm0 0"/><path fill="#f6c5b5" d="m135.66 43.8-4.488 16.434-12.047-10.05Zm0 0"/><path fill="#f3c5b5" d="m131.172 60.234-11.067 9.262-.98-19.312Zm0 0"/><path fill="#f6c5b5" d="m120.105 69.496 11.067-9.262L141.55 75.22Zm0 0"/><path fill="#4a2d2c" d="m141.55 75.219 20.438-7.606-1.781 23.367ZM187.3 52.707l-36.35-8.879 18.94-23.039Zm0 0"/><path fill="#f5c5b5" d="m118.383 31.375 17.277 12.426-16.535 6.383Zm0 0"/><path fill="#ebc3b5" d="M118.383 31.375 115.05 12.07l13.52 3.13Zm0 0"/><path fill="#4a2d2c" d="M118.383 31.375 89.848 44.152 115.05 12.07ZM118.383 31.375l.742 18.809-29.277-6.032ZM141.05 97.152l.5-21.933 18.657 15.761Zm0 0"/><path fill="#ddbfb6" d="m141.55 75.219-.5 21.933-17.05 6.774Zm0 0"/><path fill="#f6c5b4" d="m92.426 114.871 3.433-6.805 15.594 5.996Zm0 0"/><path fill="#4a2d2c" d="m95.86 108.066 8.472-24.859 7.121 30.856Zm0 0"/><path fill="#f6c5b4" d="m84.395 98.32 11.464 9.746-3.433 6.805Zm0 0"/><path fill="#4a2d2c" d="m104.332 83.207-8.473 24.86-4.972-18.93Zm0 0"/><path fill="#4a2d2c" d="M95.86 108.066 84.394 98.32l6.492-9.183ZM383.98 146.426l-19.515-29.828 1.98-89.84Zm0 0"/><path fill="#4a2d2c" d="M383.98 146.426 366.445 26.758 384 0Zm0 0"/><path fill="#f4c5b5" d="m354.273 132.969 3 17.074-8.746-7.797Zm0 0"/><path fill="#f2c4b5" d="m321.188 151.09 33.085-18.121-5.746 9.277Zm0 0"/><path fill="#4a2d2c" d="m311.75 88.855-13.094 13.493 7.555-18.52Zm0 0"/><path fill="#4a2d2c" d="m317.121 80.855-5.371 8-5.54-5.027Zm0 0"/><path fill="#f6c5b4" d="m279.09 36.164-8.387-7.828 15.5-8.637Zm0 0"/><path fill="#4a2d2c" d="m300.969 39.84-21.88-3.676 7.114-16.465Zm0 0"/><path fill="#f6c5b5" d="m259.21 56.813 11.493-28.477 8.387 7.828Zm0 0"/><path fill="#c3b8b7" d="m270.703 28.336-11.492 28.477-7.547-3.461Zm0 0"/><path fill="#60413f" d="m339.477 159.902-18.29-8.812 27.34-8.844Zm0 0"/><path fill="#dcbcb2" d="m357.273 150.043-17.796 9.86 9.05-17.657Zm0 0"/><path fill="#4a2d2c" d="m339.477 159.902 17.796-9.859-10.257 32.93Zm0 0"/><path fill="#f6c5b4" d="m312.875 137.563.086-24.297 19.652-1.582ZM269.34 114.363l8.898 21.696-14.332-20.637Zm0 0"/><path fill="#f6c5b4" d="m278.238 136.059-8.898-21.696 29.316-12.015Zm0 0"/><path fill="#e7c2ac" d="m263.555 163.484-1.48 19.34-27.153-5.027Zm0 0"/><path fill="#4a2d2c" d="m261.594 333.57-19.82 4.36 13.218-27.864Zm0 0"/><path fill="#f6c5b4" d="m271.324 278.855-4.281-20.46L282.906 267Zm0 0"/><path fill="#e4c1b5" d="m336.883 339.41-7.785 6.844-5.008-13.297Zm0 0"/><path fill="#dabcb3" d="m336.883 339.41-1.399-13.598 10.13 10.481Zm0 0"/><path fill="#eac2b5" d="m335.484 325.813 1.399 13.597-12.793-6.453Zm0 0"/><path fill="#4a2d2c" d="m348.566 350.297-11.683-10.887 8.73-3.117Zm0 0"/><path fill="#4a2d2c" d="m336.883 339.41 11.683 10.887-19.468-4.043Zm0 0"/><path fill="#4a2d2c" d="m329.098 346.254-24.207 1.625 19.199-14.922Zm0 0"/><path fill="#e9c1b4" d="m314.172 303.418 21.312 22.394-11.394 7.145Zm0 0"/><path fill="#4a2d2c" d="m335.484 325.813-21.312-22.395 48.492 9ZM314.172 303.418l23.86-44.723 24.632 53.723ZM241.773 337.93l19.82-4.36 8.106 23.782ZM220.902 384l20.871-46.07 27.926 19.422Zm0 0"/><path fill="#dcbfb5" d="m164.902 244.547 17.2 8.113-18.793-2.594Zm0 0"/><path fill="#4a2d2c" d="m195.598 286.402-9.684-26.808 29.629-3.18ZM158.969 245.656l-24.465 3.723 5.762-23.566Zm0 0"/><path fill="#89a9ba" d="m176.703 228.238 38.84 28.176-33.441-3.754Zm0 0"/><path fill="#798590" d="m237.633 194.336-60.93 33.902-6.23-29.715Zm0 0"/><path fill="#89a9ba" d="m176.703 228.238 52.969 1.223-14.129 26.953Zm0 0"/><path fill="#d6bcaf" d="m229.672 229.46-52.969-1.222 60.93-33.902Zm0 0"/><path fill="#4a2d2c" d="m108.695 210.965 9.645-1.215-8.68 4.254ZM108.695 210.965l-25.187 5.96 18.695-18.89Zm0 0"/><path fill="#4a2d2c" d="m83.508 216.926 25.187-5.961.965 3.039ZM102.203 198.035l7.817-13.066 9.238 13.09ZM118.34 209.75l-16.137-11.715 17.055.024Zm0 0"/><path fill="#4a2d2c" d="m108.695 210.965-6.492-12.93 16.137 11.715Zm0 0"/><path fill="#f6c5b5" d="m233.168 94.777-13.527 20.254-.485-24.77Zm0 0"/><path fill="#f6c5b4" d="m84.395 98.32-12.582-6.832 7.878-4.41Zm0 0"/><path fill="#4a2d2c" d="m79.691 87.078-9.37-8.527 13.597-5.469ZM83.918 73.082 70.32 78.551 60.29 64.23Zm0 0"/><path fill="#f6c5b5" d="M71.813 91.488 70.32 78.551l9.371 8.527Zm0 0"/><path fill="#f6c5b5" d="m70.32 78.55 1.493 12.938-13.79 8.371Zm0 0"/><path fill="#f6c5b4" d="M70.32 78.55 54.3 76.255l5.99-12.024Zm0 0"/><path fill="#f6c5b5" d="M70.32 78.55 58.023 99.86l-3.722-23.606Zm0 0"/><path fill="#4a2d2c" d="m37.004 77.43 21.02 22.43-20.81 8.624ZM67.664 121.27l18.242 1.386-22.601 13.211Zm0 0"/><path fill="#f6c5b4" d="m98.293 136.047-12.387-13.39 6.52-7.786Zm0 0"/><path fill="#f5c5b5" d="m113.063 293.23-3.239 6.536-9.746-6.125Zm0 0"/><path fill="#4a2d2c" d="m109.824 299.766-14.086 7.359 4.34-13.484Zm0 0"/><path fill="#f5c5b5" d="m109.824 299.766 3.239-6.536 7.898 10.118Zm0 0"/><path fill="#f6c5b5" d="m87.355 299.027 1.672-15.8 11.051 10.414ZM95.738 307.125l-8.383-8.098 12.723-5.386Zm0 0"/><path fill="#4a2d2c" d="m89.121 340.09-3.45-12.2 20.044-6.452ZM116.324 256.73l-3.02-15.535 21.2 8.184Zm0 0"/><path fill="#d0bcb7" d="m114.031 226.426-.726 14.77-21.157-16.633Zm0 0"/><path fill="#d9beb6" d="m113.305 241.195-16.766.746-4.39-17.379Zm0 0"/><path fill="#4a2d2c" d="m8.012 130.707 21.508 8.973-3.274 28.91Zm0 0"/><path fill="#5d5054" d="m68.676 155.96-20.047 5.84 4.703-15.038Zm0 0"/><path fill="#4a2d2c" d="m57.395 196.156 35.195-14.484 9.613 16.363Zm0 0"/><path fill="#4a2d2c" d="m92.59 181.672 17.43 3.297-7.817 13.066ZM57.395 196.156l26.113 20.77-38.25 19.539Zm0 0"/><path fill="#4a2d2c" d="m83.508 216.926-.77 18.086-37.48 1.453Zm0 0"/><path fill="#4a2d2c" d="m82.738 235.012.77-18.086 8.64 7.637ZM75.332 279.422l-13.5-9.727 18.031-17.73ZM101.832 251.207l11.473-10.012 3.02 15.535Zm0 0"/><path fill="#edc3b5" d="m113.305 241.195-11.473 10.012-5.293-9.266Zm0 0"/><path fill="#f5c5b5" d="m101.832 251.207-12.039.7 6.746-9.966Zm0 0"/><path fill="#f6c5b5" d="m89.027 283.227-13.695-3.805 14.461-27.516Zm0 0"/><path fill="#f2c4b5" d="m101.832 251.207-12.805 32.02.766-31.32Zm0 0"/><path fill="#f6c5b5" d="m105.598 282.047 7.465 11.183-12.985.41Zm0 0"/><path fill="#4a2d2c" d="m146.535 308.371 23.848 10.73-26.176 6.747ZM55.129 325.691l11.148 16.754-36.789-5.375ZM68.91 323.547 55.13 325.69l10.156-9.16Zm0 0"/><path fill="#4a2d2c" d="m55.129 325.691 13.781-2.144-2.633 18.898Zm0 0"/><path fill="#4a2d2c" d="m89.121 340.09-22.844 2.355 19.395-14.554ZM224.102 68.637l-19.993 10.062-16.808-25.992Zm0 0"/><path fill="#4a2d2c" d="m204.11 78.7-16.981 8.382.172-34.375ZM204.11 78.7l19.992-10.063-4.946 21.625Zm0 0"/><path fill="#f6c5b5" d="m219.64 115.031-17.148-25.976 16.664 1.207Zm0 0"/><path fill="#4a2d2c" d="m202.492 89.055 1.617-10.356 15.047 11.563Zm0 0"/><path fill="#f6c5b5" d="m202.492 89.055 17.149 25.976-30.203 8.149ZM187.129 87.082l15.363 1.973-13.054 34.125Zm0 0"/><path fill="#4a2d2c" d="m204.11 78.7-1.618 10.355-15.363-1.973ZM161.988 67.613 150.95 43.828l36.352 8.879Zm0 0"/><path fill="#f3c5b4" d="m133.094 13.973-.242 5.242-4.282-4.016Zm0 0"/><path fill="#f6c5b5" d="m132.852 19.215-14.47 12.16 10.188-16.176Zm0 0"/><path fill="#4a2d2c" d="m169.89 20.79-37.038-1.575L171.942 0Zm0 0"/><path fill="#4a2d2c" d="m132.852 19.215.242-5.242L171.94 0ZM104.332 83.207 124 103.926l-12.547 10.136Zm0 0"/><path fill="#f6c5b5" d="m383.98 146.426-26.707 3.617-3-17.074Zm0 0"/><path fill="#4a2d2c" d="m357.273 150.043 26.707-3.617-36.964 36.547ZM366.445 26.758l-58.039 28.555-7.437-15.473Zm0 0"/><path fill="#4a2d2c" d="M366.445 26.758 300.97 39.84 293.832 0ZM366.445 26.758l-10.36 31.375-47.679-2.82Zm0 0"/><path fill="#4a2d2c" d="M356.086 58.133 317.12 80.855l-8.715-25.543Zm0 0"/><path fill="#4a2d2c" d="m364.465 116.598-8.38-58.465 10.36-31.375Zm0 0"/><path fill="#f6c5b4" d="m311.75 88.855 1.21 24.41-14.304-10.917Zm0 0"/><path fill="#f5c5b5" d="m321.156 90.59-9.406-1.735 5.371-8Zm0 0"/><path fill="#a1b0b9" d="m321.156 90.59 34.93-32.457-23.473 53.55Zm0 0"/><path fill="#f6c5b5" d="m356.086 58.133-34.93 32.457-4.035-9.735Zm0 0"/><path fill="#4a2d2c" d="m254.227 66.926-12.133-5.528 9.57-8.046Zm0 0"/><path fill="#bdb7b8" d="m259.21 56.813-4.983 10.113-2.563-13.574Zm0 0"/><path fill="#4a2d2c" d="m300.969 39.84-34.274 32.289 12.395-35.965Zm0 0"/><path fill="#f6c5b5" d="m266.695 72.129-7.484-15.317 19.879-20.648Zm0 0"/><path fill="#4a2d2c" d="m224.102 68.637 9.73 16.304-14.676 5.32ZM233.832 84.941l-.664 9.836-14.012-4.515ZM299.602 209.707l-34.657 22.91-.86-23.43ZM264.945 232.617l34.657-22.91-11.743 28.477Zm0 0"/><path fill="#efc4b1" d="m272.188 171.09-10.114 11.734 1.48-19.34Zm0 0"/><path fill="#4a2d2c" d="m311.82 167.145-25.71-6.73 22.476-6.044Zm0 0"/><path fill="#ecc2b4" d="m286.11 160.414 25.71 6.73-19.683 16.055Zm0 0"/><path fill="#716567" d="m272.188 171.09 13.921-10.676 6.028 22.785Zm0 0"/><path fill="#4a2d2c" d="m354.273 132.969-41.398 4.594 19.738-25.88Zm0 0"/><path fill="#f6c5b5" d="m321.188 151.09-8.313-13.528 41.398-4.593Zm0 0"/><path fill="#f6c5b5" d="m312.875 137.563 8.313 13.527-12.602 3.281Zm0 0"/><path fill="#f2c2b2" d="m286.11 160.414-7.872-24.355 30.348 18.312Zm0 0"/><path fill="#4e3130" d="m312.96 113.266-.085 24.296-34.637-1.503Zm0 0"/><path fill="#f6c5b4" d="m312.96 113.266-34.722 22.793 20.418-33.711Zm0 0"/><path fill="#4a2d2c" d="m254.992 310.066-13.219 27.864-8.156-24.735Zm0 0"/><path fill="#4a2d2c" d="m241.773 337.93-37.675-9.774 29.52-14.96Zm0 0"/><path fill="#f6c5b5" d="m270.137 316.07 10.75-19.097 20.703 26.898Zm0 0"/><path fill="#f6c5b4" d="m280.887 296.973-10.75 19.097-7.016-14.28Zm0 0"/><path fill="#f6c5b5" d="m271.324 278.855 9.563 18.118-17.766 4.816ZM263.121 301.79l7.016 14.28-15.145-6.004Zm0 0"/><path fill="#f1c4b5" d="m287.797 337.86-17.66-21.79 31.453 7.801Zm0 0"/><path fill="#4a2d2c" d="m270.137 316.07 17.66 21.79-16.524-3.102ZM287.797 337.86l17.094 10.019-35.192 9.473Zm0 0"/><path fill="#4a2d2c" d="m271.273 334.758 16.524 3.101-18.098 19.493Zm0 0"/><path fill="#4a2d2c" d="m261.594 333.57 9.68 1.188-1.575 22.594Zm0 0"/><path fill="#f6c5b5" d="m270.137 316.07-8.543 17.5-6.602-23.504Zm0 0"/><path fill="#4a2d2c" d="m304.89 347.879-3.3-24.008 22.5 9.086ZM301.59 323.871l12.582-20.453 9.918 29.539Zm0 0"/><path fill="#4a2d2c" d="m287.797 337.86 13.793-13.989 3.3 24.008ZM280.887 296.973l33.285 6.445-12.582 20.453Zm0 0"/><path fill="#e2c0b5" d="m156.035 268.285-7.937-6.129 15.21-12.09Zm0 0"/><path fill="#4a2d2c" d="m247.383 249.379-18.64 21.773-13.2-14.738Zm0 0"/><path fill="#8aaaba" d="m229.672 229.46 17.71 19.919-31.839 7.035Zm0 0"/><path fill="#d9bfa3" d="m161.234 181.766-6.168-19.489 24.118 6.41Zm0 0"/><path fill="#f6c5b5" d="m158.191 114.695-17.14-17.543 19.156-6.172ZM141.05 97.152l17.141 17.543-23.246 6.059Zm0 0"/><path fill="#e6c1b5" d="m140.266 225.813-19.512-10.45 15.367-14.898Zm0 0"/><path fill="#a1aea8" d="m140.266 225.813 30.207-27.29 6.23 29.715Zm0 0"/><path fill="#9d9a97" d="m170.473 198.523-30.207 27.29-4.145-25.348Zm0 0"/><path fill="#8aa9b9" d="m164.902 244.547-24.636-18.734 36.437 2.425Zm0 0"/><path fill="#8eaab8" d="m158.969 245.656-18.703-19.844 24.636 18.735Zm0 0"/><path fill="#4a2d2c" d="m58.023 99.86 20.547 9.523-10.906 11.887Zm0 0"/><path fill="#4a2d2c" d="m78.57 109.383 7.336 13.273-18.242-1.386Zm0 0"/><path fill="#f6c5b4" d="m78.57 109.383 5.825-11.063 8.03 16.551Zm0 0"/><path fill="#f6c5b4" d="m85.906 122.656-7.336-13.273 13.856 5.488Zm0 0"/><path fill="#ebc3b5" d="m112.621 337.54-23.5 2.55 16.594-18.652Zm0 0"/><path fill="#4a2d2c" d="m85.672 327.89 17.719-10.402 2.324 3.95ZM105.715 321.438l-2.324-3.95 17.57-14.14ZM103.39 317.488l6.434-17.722 11.137 3.582Zm0 0"/><path fill="#4a2d2c" d="m109.824 299.766-6.433 17.722-7.653-10.363Zm0 0"/><path fill="#f6c5b4" d="m22.207 119.32 7.313 20.36-21.508-8.973Zm0 0"/><path fill="#4a2d2c" d="m18.664 102.316 3.543 17.004-14.195 11.387ZM37.215 108.484 22.207 119.32l-3.543-17.004Zm0 0"/><path fill="#f6c5b5" d="m63.305 135.867 2.48 8.762-12.453 2.133Zm0 0"/><path fill="#f5c5b4" d="m65.785 144.629 2.89 11.332-15.343-9.2Zm0 0"/><path fill="#4a2d2c" d="m67.895 175.91 24.695 5.762-35.195 14.484Zm0 0"/><path fill="#4a2d2c" d="m48.629 161.8 19.266 14.11-10.5 20.246Zm0 0"/><path fill="#f1c3b3" d="m68.676 155.96-.781 19.95-19.266-14.11Zm0 0"/><path fill="#4a2d2c" d="m92.59 181.672 3.285-17.406 14.145 20.703Zm0 0"/><path fill="#7f8d98" d="m95.875 164.266-27.98 11.644.78-19.95Zm0 0"/><path fill="#eac2ae" d="m67.895 175.91 27.98-11.644-3.285 17.406Zm0 0"/><path fill="#4a2d2c" d="m68.844 285.957-7.012-16.262 13.5 9.727Zm0 0"/><path fill="#f6c5b4" d="m61.074 295.316 7.77-9.359 8.281 6.047Zm0 0"/><path fill="#f6c5b5" d="m89.027 283.227-11.902 8.777-1.793-12.582ZM87.355 299.027l-10.23-7.023 11.902-8.777ZM77.125 292.004l-8.281-6.047 6.488-6.535Zm0 0"/><path fill="#4a2d2c" d="m195.598 286.402 8.5 41.754-33.715-9.054Zm0 0"/><path fill="#ecc3b5" d="m140.168 294.121 6.367 14.25-14.578 1.473Zm0 0"/><path fill="#debfb6" d="m126.703 291.918 13.465 2.203-8.211 15.723Zm0 0"/><path fill="#4a2d2c" d="m68.91 323.547 16.762 4.344-19.395 14.554ZM70.648 313.164l15.024 14.727-16.762-4.344ZM44.902 312.746 29.488 337.07l7.012-54.027ZM54.563 300.82l-9.66 11.926-8.403-29.703ZM44.902 312.746l10.227 12.945-25.64 11.38ZM161.988 67.613l-19.687-8.078 8.648-15.707ZM142.3 59.535l19.688 8.078-20.437 7.606Zm0 0"/><path fill="#f5c5b4" d="m131.172 60.234 11.129-.699-.75 15.684Zm0 0"/><path fill="#f6c5b5" d="m142.3 59.535-11.128.7L135.66 43.8Zm0 0"/><path fill="#a38179" d="m150.95 43.828-8.65 15.707-6.64-15.734Zm0 0"/><path fill="#f4c5b5" d="m145.95 27.785 5 16.043-15.29-.027Zm0 0"/><path fill="#f6c5b5" d="m118.383 31.375 27.566-3.59-10.289 16.016Zm0 0"/><path fill="#f6c5b5" d="m132.852 19.215 13.097 8.57-27.566 3.59Zm0 0"/><path fill="#492d2c" d="m150.95 43.828-5-16.043 23.94-6.996Zm0 0"/><path fill="#4a2d2c" d="m145.95 27.785-13.098-8.57 37.039 1.574Zm0 0"/><path fill="#f6c5b5" d="m141.05 97.152-6.105 23.602L124 103.926ZM134.945 120.754l-15.972 22.07-7.52-28.762Zm0 0"/><path fill="#f6c5b5" d="m124 103.926 10.945 16.828-23.492-6.692Zm0 0"/><path fill="#4a2d2c" d="m356.086 58.133 8.379 58.465-31.852-4.914Zm0 0"/><path fill="#513331" d="m312.96 113.266 8.196-22.676 11.457 21.094Zm0 0"/><path fill="#f6c5b4" d="m321.156 90.59-8.195 22.676-1.211-24.41Zm0 0"/><path fill="#f6c5b5" d="m266.695 72.129-12.468-5.203 4.984-10.114Zm0 0"/><path fill="#4a2d2c" d="m270.543 192.387 29.059 17.32-35.516-.52Zm0 0"/><path fill="#4a2d2c" d="m237.633 194.336 32.91-1.95-6.457 16.802Zm0 0"/><path fill="#4a2d2c" d="m270.543 192.387-32.91 1.949 24.441-11.512Zm0 0"/><path fill="#4a2d2c" d="m272.188 171.09-1.645 21.297-8.469-9.563Zm0 0"/><path fill="#4a2d2c" d="m299.602 209.707-29.059-17.32 21.594-9.188Zm0 0"/><path fill="#4a2d2c" d="m270.543 192.387 1.644-21.297 19.95 12.11Zm0 0"/><path fill="#f5c5b4" d="m286.11 160.414-13.923 10.676-8.632-7.606Zm0 0"/><path fill="#f6c5b4" d="m278.238 136.059 34.637 1.504-4.29 16.808Zm0 0"/><path fill="#4a2d2c" d="m261.594 333.57 8.543-17.5 1.136 18.688Zm0 0"/><path fill="#f5c5b5" d="m300.746 283.992-29.422-5.137L282.906 267Zm0 0"/><path fill="#4a2d2c" d="m338.031 258.695-37.285 25.297L282.906 267Zm0 0"/><path fill="#aeb3b8" d="m182.102 252.66-6.598 15.406-12.195-18Zm0 0"/><path fill="#97acb9" d="m175.504 268.066-19.469.22 7.274-18.22Zm0 0"/><path fill="#86a4b4" d="m185.914 259.594-10.41 8.472 6.598-15.406Zm0 0"/><path fill="#4a2d2c" d="m195.598 286.402-20.094-18.336 10.41-8.472Zm0 0"/><path fill="#f6c5b5" d="m158.191 114.695-3.125 47.582-20.12-41.523Zm0 0"/><path fill="#f6c5b4" d="m179.184 168.688 10.254-45.508 45.484 54.617Zm0 0"/><path fill="#f6c5b5" d="m189.438 123.18 30.203-8.149 15.28 62.766Zm0 0"/><path fill="#f6c5b4" d="m189.438 123.18-34.372 39.097 3.125-47.582Zm0 0"/><path fill="#f6c5b5" d="m155.066 162.277 34.372-39.097-10.254 45.507Zm0 0"/><path fill="#4a2d2c" d="m71.813 91.488 6.757 17.895-20.547-9.524Zm0 0"/><path fill="#f6c5b4" d="m78.57 109.383-6.757-17.895 12.582 6.832Zm0 0"/><path fill="#4a2d2c" d="m37.426 128.66-15.219-9.34 15.008-10.836Zm0 0"/><path fill="#f6c5b5" d="m22.207 119.32 15.219 9.34-7.906 11.02ZM37.426 128.66l25.879 7.207-9.973 10.895Zm0 0"/><path fill="#4a2d2c" d="m26.246 168.59 22.383-6.79 8.766 34.356Zm0 0"/><path fill="#4a2d2c" d="m29.52 139.68 19.109 22.12-22.383 6.79Zm0 0"/><path fill="#9dacb5" d="M53.332 146.762 48.629 161.8l-19.11-22.121Zm0 0"/><path fill="#f6c5b5" d="m65.785 144.629 13.528-3.68-10.637 15.012Zm0 0"/><path fill="#f6c5b4" d="m79.313 140.95 16.562 23.316-27.2-8.305ZM79.313 140.95l-13.528 3.679-2.48-8.762Zm0 0"/><path fill="#f6c5b5" d="m79.313 140.95 18.98-4.903-2.418 28.219Zm0 0"/><path fill="#4a2d2c" d="m85.906 122.656-6.594 18.293-16.007-5.082Zm0 0"/><path fill="#4a2d2c" d="m79.313 140.95 6.593-18.294 12.387 13.39Zm0 0"/><path fill="#efc4b5" d="m105.715 321.438 26.242-11.594-19.336 27.695Zm0 0"/><path fill="#e6c1b5" d="m131.957 309.844-26.242 11.594 15.246-18.09Zm0 0"/><path fill="#dbbfb6" d="m112.621 337.54 19.336-27.696 12.25 16.004Zm0 0"/><path fill="#e3c0b5" d="m131.957 309.844 14.578-1.473-2.328 17.477Zm0 0"/><path fill="#d4bdb6" d="m158.078 284.582-11.543 23.79-6.367-14.25Zm0 0"/><path fill="#4a2d2c" d="m158.078 284.582 37.52 1.82-25.215 32.7Zm0 0"/><path fill="#4a2d2c" d="m146.535 308.371 11.543-23.789 12.305 34.52Zm0 0"/><path fill="#e8bfb1" d="m175.504 268.066-17.426 16.516-2.043-16.297Zm0 0"/><path fill="#4a2d2c" d="m158.078 284.582 17.426-16.516 20.094 18.336ZM148.098 262.156l-19.141 6.274 5.547-19.051ZM128.957 268.43l-12.633-11.7 18.18-7.351ZM126.703 291.918l-5.742 11.43-7.898-10.118Zm0 0"/><path fill="#e6c1b5" d="m120.96 303.348 5.743-11.43 5.254 17.926Zm0 0"/><path fill="#f2c4b5" d="m105.598 282.047 21.105 9.871-13.64 1.312Zm0 0"/><path fill="#f6c5b5" d="m66.043 305.613-4.969-10.297 16.051-3.312Zm0 0"/><path fill="#4a2d2c" d="m103.39 317.488-16.343 4.223 8.691-14.586Zm0 0"/><path fill="#4a2d2c" d="m87.047 321.71 16.344-4.222-17.72 10.403ZM54.563 300.82 36.5 283.043l24.574 12.273Zm0 0"/><path fill="#4a2d2c" d="m36.5 283.043 32.344 2.914-7.77 9.36Zm0 0"/><path fill="#4a2d2c" d="M68.844 285.957 36.5 283.043l25.332-13.348ZM247.277 76.645l-13.445 8.296-9.73-16.304Zm0 0"/><path fill="#4a2d2c" d="m247.277 76.645-23.175-8.008 17.992-7.239Zm0 0"/><path fill="#f4c4b3" d="m300.746 283.992 13.426 19.426-33.285-6.445Zm0 0"/><path fill="#f6c5b5" d="m271.324 278.855 29.422 5.137-19.86 12.98Zm0 0"/><path fill="#4a2d2c" d="m314.172 303.418-13.426-19.426 37.285-25.297ZM58.023 99.86l-6.191 19.269-14.617-10.645Zm0 0"/><path fill="#4a2d2c" d="m51.832 119.129 6.191-19.27 9.641 21.41ZM63.305 135.867 51.832 119.13l15.832 2.14Zm0 0"/><path fill="#4a2d2c" d="m37.426 128.66 14.406-9.531 11.473 16.738Zm0 0"/><path fill="#9badb8" d="m37.426 128.66 15.906 18.102-23.812-7.082Zm0 0"/><path fill="#4a2d2c" d="m51.832 119.129-14.406 9.531-.211-20.176Zm0 0"/><path fill="#e4bfb3" d="m156.035 268.285-15.426 8.184 7.489-14.313Zm0 0"/><path fill="#4a2d2c" d="m140.61 276.469-11.653-8.04 19.14-6.273ZM128.957 268.43l11.652 8.039-13.906 15.449Zm0 0"/><path fill="#dbbeb6" d="m126.703 291.918 13.906-15.45-.441 17.653Zm0 0"/><path fill="#c4b9b7" d="m140.61 276.469 17.468 8.113-17.91 9.54Zm0 0"/><path fill="#f5c5b4" d="m158.078 284.582-17.469-8.113 15.426-8.184Zm0 0"/><path fill="#4a2d2c" d="m128.957 268.43-2.254 23.488-21.105-9.871ZM128.957 268.43l-23.36 13.617 10.727-25.317Zm0 0"/><path fill="#f6c5b5" d="m87.047 321.71.308-22.683 8.383 8.098Zm0 0"/><path fill="#4a2d2c" d="m65.285 316.531 5.363-3.367-1.738 10.383Zm0 0"/><path fill="#f6c5b4" d="m65.285 316.531.758-10.918 4.605 7.551Zm0 0"/><path fill="#f6c5b5" d="m57.684 303.79-12.782 8.956 9.66-11.926ZM57.684 303.79l-3.121-2.97 6.511-5.504Zm0 0"/><path fill="#f6c5b5" d="m66.043 305.613-8.36-1.824 3.391-8.473ZM160.207 90.98l12.418 12.348-14.434 11.367Zm0 0"/><path fill="#f6c6b5" d="m172.625 103.328 14.504-16.246 2.309 36.098Zm0 0"/><path fill="#f6c5b5" d="m172.625 103.328 16.813 19.852-31.247-8.485Zm0 0"/><path fill="#4a2d2c" d="m187.129 87.082-26.922 3.898 1.781-23.367Zm0 0"/><path fill="#f6c5b5" d="m187.129 87.082-14.504 16.246-12.418-12.348Zm0 0"/><path fill="#4a2d2c" d="m187.129 87.082-25.14-19.469L187.3 52.707ZM263.066 82.73l12.582-1.156-15.128 26.403ZM233.832 84.941l9.04 6.332-9.704 3.504Zm0 0"/><path fill="#4a2d2c" d="m247.277 76.645-4.406 14.628-9.039-6.332Zm0 0"/><path fill="#f6c5b5" d="m242.871 91.273 20.195-8.543-2.546 25.247ZM263.066 82.73l-20.195 8.543 4.406-14.628Zm0 0"/><path fill="#4a2d2c" d="m275.648 81.574 25.32-41.734 7.438 15.472Zm0 0"/><path fill="#4a2d2c" d="m275.648 81.574-8.953-9.445 34.274-32.29ZM298.656 102.348l-13.472-7.825 8.234-9.992ZM269.34 114.363l15.844-19.84 13.472 7.825Zm0 0"/><path fill="#f6c5b4" d="m66.043 305.613 16.937-4.578-12.332 12.13Zm0 0"/><path fill="#f6c5b4" d="m82.98 301.035-16.937 4.578 11.082-13.61Zm0 0"/><path fill="#f6c5b5" d="m82.98 301.035-5.855-9.031 10.23 7.023ZM57.684 303.79l2.343 6.401-15.125 2.555Zm0 0"/><path fill="#f6c5b4" d="m55.129 325.691 4.898-15.5 5.258 6.34Zm0 0"/><path fill="#4a2d2c" d="m44.902 312.746 15.125-2.555-4.898 15.5Zm0 0"/><path fill="#f6c5b5" d="m60.027 310.191-2.343-6.402 8.359 1.824ZM65.285 316.531l-5.258-6.34 6.016-4.578Zm0 0"/><path fill="#f6c5b4" d="m263.066 82.73-8.84-15.804 12.47 5.203Zm0 0"/><path fill="#f6c5b4" d="m254.227 66.926 8.84 15.804-15.79-6.085Zm0 0"/><path fill="#4a2d2c" d="m254.227 66.926-6.95 9.719-5.183-15.247ZM275.648 81.574l-12.582 1.156 3.63-10.601ZM242.871 91.273l-2.594 7.954-7.109-4.45Zm0 0"/><path fill="#f6c5b5" d="m219.64 115.031 20.637-15.804 6.524 26.082Zm0 0"/><path fill="#f6c5b5" d="m240.277 99.227-20.636 15.804 13.527-20.254ZM240.277 99.227l2.594-7.954 17.649 16.704Zm0 0"/><path fill="#f6c5b4" d="m246.8 125.309-6.523-26.082 20.243 8.75Zm0 0"/><path fill="#4a2d2c" d="m293.418 84.531-17.77-2.957 32.758-26.261Zm0 0"/><path fill="#4a2d2c" d="m293.418 84.531-8.234 9.992-9.536-12.949ZM293.418 84.531l14.988-29.219-2.195 28.516ZM266.05 110.168l19.134-15.645-15.844 19.84Zm0 0"/><path fill="#f5c4b3" d="m260.52 107.977 5.53 2.191-2.144 5.254Zm0 0"/><path fill="#f6c5b4" d="m266.05 110.168 3.29 4.195-5.434 1.059Zm0 0"/><path fill="#4a2d2c" d="m285.184 94.523-19.133 15.645 9.597-28.594ZM82.98 301.035l4.067 20.676-16.399-8.547Zm0 0"/><path fill="#f6c5b4" d="m87.047 321.71-4.067-20.675 4.375-2.008Zm0 0"/><path fill="#4a2d2c" d="m87.047 321.71-1.375 6.18-15.024-14.726ZM275.648 81.574l-9.597 28.594-5.531-2.191Zm0 0"/></svg>