<svg xmlns="http://www.w3.org/2000/svg" width="512" height="512" viewBox="0 0 384 384"><path fill="#352a55" d="M58.02 67.773 43.742 83.898 39.855 47.16Zm0 0"/><path fill="#352a55" d="M82.426 47.742 58.02 67.773 39.855 47.16ZM0 194.285l53.445 4.625-11.96 44.906ZM0 299.918l41.484-56.102 5.309 40.504Zm0 0"/><path fill="#372b55" d="M0 299.918V194.285l41.484 49.531Zm0 0"/><path fill="#fef9fc" d="m270.746 265.906 11.211 3.953-2.328 26.547Zm0 0"/><path fill="#f58e9f" d="m281.957 269.86 7.2 1.66-9.528 24.886Zm0 0"/><path fill="#dcc1bf" d="m237.582 195.672 9.492 17.996-15.539 16.598Zm0 0"/><path fill="#352a55" d="m237.582 195.672 33.262 4.824-23.77 13.172ZM349.332 271.043l-26.844-44.434L384 235.77ZM383.996 384l-34.664-112.957L384 235.77ZM185.059 350.652l87.824 33.356-130.031-.004ZM229.824 336.402l43.059 47.606-87.824-33.356ZM91.473 79.2 58.02 67.772l24.406-20.03Zm0 0"/><path fill="#fef8fb" d="m210.555 158.121-12.403-36.094 23.266.563Zm0 0"/><path fill="#fefcfe" d="m198.152 122.027 12.403 36.094-45.785-.84Zm0 0"/><path fill="#352a55" d="m82.426 47.742-42.57-.582L73.526 0ZM115.953 27.988 82.426 47.742 73.527 0ZM125.344 0l-8.18 11.824L73.527 0Zm0 0"/><path fill="#352a55" d="m117.164 11.824-1.21 16.164L73.526 0Zm0 0"/><path fill="#fefbfe" d="m115.953 27.988 1.211-16.164 10.621 4.696Zm0 0"/><path fill="#352a55" d="M117.164 11.824 125.344 0l2.441 16.52ZM105.078 53.043l-22.652-5.3 33.527-19.755ZM58.02 67.773l13.753 22.813-28.03-6.688ZM0 194.285V87.175l11.371 44.434ZM53.445 198.91l16.852 24.613-28.813 20.293ZM0 299.918l42.844 15.406-.856 30.098ZM187.25 0l80.691 13.21-42.105 32.138ZM305.305 0H384l-37.496 36.04ZM322.488 226.61l-11.355-57.75 47.18 21.964Zm0 0"/><path fill="#fde8e9" d="m261.27 132.71 17.835 1.868-1.312 24.137Zm0 0"/><path fill="#fefafc" d="M266.043 233.027 282.75 256.2l-12.004 9.707Zm0 0"/><path fill="#352a55" d="m282.75 256.2-16.707-23.173 56.445-6.418ZM289.156 271.52l-6.406-15.32 39.738-29.59Zm0 0"/><path fill="#fefafc" d="m256.867 237.215 9.176-4.188 4.703 32.88Zm0 0"/><path fill="#fdf5f3" d="m259.316 261.57-2.449-24.355 13.88 28.691Zm0 0"/><path fill="#352a55" d="m231.879 254.469 24.969 27.496-33.797 10.598Zm0 0"/><path fill="#362b55" d="m383.996 384-111.113.008 42.406-22.055Zm0 0"/><path fill="#352a55" d="m383.996 384-32.672-46.758-1.992-66.199Zm0 0"/><path fill="#f4cfaf" d="m231.535 230.266 25.332 6.949 2.45 24.355Zm0 0"/><path fill="#352a55" d="M132.297 15.035 125.344 0h61.906Zm0 0"/><path fill="#352a55" d="m125.344 0 6.953 15.035-4.512 1.485Zm0 0"/><path fill="#cdae7e" d="m243.992 176.586-6.41 19.086-56.133-5.207Zm0 0"/><path fill="#f8c6af" d="m210.555 158.121 33.437 18.465-62.543 13.879Zm0 0"/><path fill="#e3ccb3" d="m181.45 190.465-44.387 4.27-7.825-19.372Zm0 0"/><path fill="#fddfdd" d="m210.555 158.121 18.035-22.02 15.93 8.837Zm0 0"/><path fill="#352a55" d="m228.59 136.102 13.578-11.551 2.352 20.386Zm0 0"/><path fill="#fce1dc" d="m228.59 136.102-18.035 22.02 10.863-35.532Zm0 0"/><path fill="#fef5f8" d="m279.105 134.578-17.835-1.867 9.312-13.531Zm0 0"/><path fill="#fee7e5" d="m242.168 124.55 19.102 8.16-16.75 12.227Zm0 0"/><path fill="#352a55" d="M43.742 83.898 0 87.176 39.855 47.16ZM73.527 0 39.855 47.16 0 0ZM105.723 73.098l-.645-20.055 11.305 6.738ZM105.723 73.098l-14.25 6.101-9.047-31.457Zm0 0"/><path fill="#352a55" d="m105.078 53.043.645 20.055-23.297-25.356Zm0 0"/><path fill="#362c55" d="m144.516 266.035 6.543-16.027 7.543 5.828Zm0 0"/><path fill="#fef9fa" d="m129.238 175.363-31.105-10.566 18.515-16.934Zm0 0"/><path fill="#feefeb" d="m108.469 182.68-10.336-17.883 31.105 10.566Zm0 0"/><path fill="#352a55" d="m136.938 246.59 7.578 19.445h-23.078Zm0 0"/><path fill="#352a55" d="m144.516 266.035-7.578-19.445 14.12 3.418Zm0 0"/><path fill="#fef8f9" d="m139.66 226.047-29.222 2.82 24.511-14.808Zm0 0"/><path fill="#fefbfc" d="m110.438 228.867 3.312-15.863 21.2 1.055Zm0 0"/><path fill="#352a55" d="m0 194.285 26.922-27.707 26.523 32.332Zm0 0"/><path fill="#fef4f9" d="m91.785 278.238 14.25 4.38-8.512 9.933Zm0 0"/><path fill="#352a55" d="m146.906 347.7 17.883-26.532 20.27 29.484ZM145.105 326.277l19.684-5.109-17.883 26.531ZM223.05 292.563l-27.448 10.398 4.152-45.332ZM0 299.918l41.988 45.504-41.98 38.586ZM42.844 315.324 0 299.918l46.793-15.598Zm0 0"/><path fill="#362a55" d="m41.484 243.816 28.813-20.293 7.902 32.743Zm0 0"/><path fill="#352a55" d="m125.3 355.336-13.347-17.547 18.711.016ZM142.852 384.004 86.3 366.457l39-11.121Zm0 0"/><path fill="#352a55" d="m86.3 366.457 25.653-28.668 13.348 17.547ZM142.852 384.004l4.054-36.305 38.153 2.953ZM225.836 45.348l-48.254 6.992L187.25 0Zm0 0"/><path fill="#fef9fb" d="m198.152 122.027 22.5-16.441.766 17.004Zm0 0"/><path fill="#feeff5" d="m122.105 79.82-16.382-6.722 10.66-13.317Zm0 0"/><path fill="#fefcfe" d="m122.105 79.82 17.403.547-14.305 23.832Zm0 0"/><path fill="#352a55" d="M346.504 36.04 384 55.366 356.418 60.5ZM355.945 115.43 384 55.367v85.117Zm0 0"/><path fill="#352a55" d="m355.727 132.488.218-17.058L384 140.484Zm0 0"/><path fill="#352a55" d="m338.195 130.309 17.75-14.88-.218 17.06Zm0 0"/><path fill="#352a55" d="m338.195 130.309 17.532 2.18-16.641 3.827Zm0 0"/><path fill="#362a55" d="m355.945 115.43-17.75 14.879-11.894-7.422Zm0 0"/><path fill="#352a55" d="m305.516 95.227-10.672 10.835.804-19.593Zm0 0"/><path fill="#fefafd" d="m305.516 95.227 7.625 15.207-18.297-4.371Zm0 0"/><path fill="#352a55" d="M187.25 0h118.055L267.94 13.21ZM305.305 0l-18.582 20.488-18.782-7.277ZM270.996 28.656 255.082 60.56l-29.246-15.211Zm0 0"/><path fill="#352a55" d="m267.941 13.21 3.055 15.446-45.16 16.692ZM358.313 190.824 384 235.77l-61.512-9.16Zm0 0"/><path fill="#897067" d="m309.922 152.957 19.527-5.465-18.316 21.367Zm0 0"/><path fill="#362c55" d="m281.957 269.86.793-13.66 6.406 15.32Zm0 0"/><path fill="#fef6f8" d="m282.75 256.2-.793 13.66-11.21-3.954Zm0 0"/><path fill="#91786b" d="m231.879 254.469 27.437 7.101-2.468 20.395Zm0 0"/><path fill="#fef6f5" d="m259.316 261.57 11.43 4.336-13.898 16.059Zm0 0"/><path fill="#fef1f4" d="m256.848 281.965 13.898-16.059-3.789 27.887Zm0 0"/><path fill="#fef9fc" d="m270.746 265.906 8.883 30.5-12.672-2.613Zm0 0"/><path fill="#352a55" d="m223.05 292.563 6.774 43.84-34.222-33.442Zm0 0"/><path fill="#352a55" d="m229.824 336.402-44.765 14.25 10.543-47.691Zm0 0"/><path fill="#fef8fb" d="m241.691 309.082 15.157-27.117 10.109 11.828Zm0 0"/><path fill="#352a55" d="m241.691 309.082-18.64-16.52 33.797-10.597ZM349.332 271.043l-60.176.477 33.332-44.91ZM266.043 233.027l-18.969-19.359 23.77-13.172Zm0 0"/><path fill="#fefbfd" d="m256.867 237.215-9.793-23.547 18.969 19.36Zm0 0"/><path fill="#fce9e3" d="m231.535 230.266 15.54-16.598 9.792 23.547Zm0 0"/><path fill="#352a55" d="m237.582 195.672 28.031-12.887 5.23 17.711Zm0 0"/><path fill="#ddbb86" d="m265.613 182.785-28.031 12.887 6.41-19.086Zm0 0"/><path fill="#352a55" d="m274.102 351.07 30.503-3.351-31.722 36.289Zm0 0"/><path fill="#bf9f88" d="m186.672 254.906-23.293-10.719 14.078-14.542Zm0 0"/><path fill="#362b55" d="m151.059 250.008 12.32-5.82-4.777 11.648Zm0 0"/><path fill="#352a55" d="m199.754 257.629-10.008 7.203-3.074-9.926ZM108.516 89.738l13.59-9.918 3.097 24.38ZM105.723 73.098l2.793 16.64L91.473 79.2Zm0 0"/><path fill="#352a55" d="m122.105 79.82-13.59 9.918-2.792-16.64Zm0 0"/><path fill="#fefbfd" d="m93.813 140.29 3.761-4.563 19.074 12.136Zm0 0"/><path fill="#fefbfd" d="m97.574 135.727 20.942-5.336-1.868 17.472Zm0 0"/><path fill="#fefcfe" d="m118.516 130.39-20.942 5.337 14.668-22.504Zm0 0"/><path fill="#fce7f2" d="m97.574 135.727-4.851-27.575 19.52 5.07Zm0 0"/><path fill="#876d66" d="m177.457 229.645-16.332-22.083 20.324-17.097Zm0 0"/><path fill="#9a7f6c" d="m161.125 207.563-24.062-12.829 44.386-4.27Zm0 0"/><path fill="#fefbfd" d="m129.238 175.363-12.59-27.5 19.493-2.789Zm0 0"/><path fill="#352a55" d="m108.469 182.68 28.594 12.054-10.797 4.164Zm0 0"/><path fill="#ecdbc4" d="m137.063 194.734-28.594-12.054 20.77-7.317Zm0 0"/><path fill="#352a55" d="m137.063 194.734-7.938 10.868-2.86-6.704Zm0 0"/><path fill="#fefcfe" d="m129.125 205.602 7.938-10.868-2.114 19.325Zm0 0"/><path fill="#fefcfe" d="m113.75 213.004 15.375-7.402 5.824 8.457Zm0 0"/><path fill="#fef3f6" d="m245.418 115.445 15.852 17.266-19.102-8.16Zm0 0"/><path fill="#fef1f4" d="m261.27 132.71-15.852-17.265 25.164 3.735Zm0 0"/><path fill="#352a55" d="M39.855 47.16 0 87.176V0ZM0 87.176l21.996 30.328-10.625 14.105Zm0 0"/><path fill="#352a55" d="M35.984 110.3 0 87.177l43.742-3.278Zm0 0"/><path fill="#352a55" d="m35.984 110.3-13.988 7.204L0 87.176Zm0 0"/><path fill="#fefbfd" d="m98.133 164.797-4.32-24.508 22.835 7.574Zm0 0"/><path fill="#352a55" d="m99.988 217.598-.8-17.782 14.562 13.188Zm0 0"/><path fill="#fefcfe" d="m99.988 217.598 10.45 11.27-27.348 4.218ZM110.438 228.867l-10.45-11.27 13.762-4.593Zm0 0"/><path fill="#fea283" d="m117.973 238.633-7.535-9.766 29.222-2.82Zm0 0"/><path fill="#352a55" d="m117.973 238.633 18.965 7.957-15.5 19.445Zm0 0"/><path fill="#352a55" d="m136.938 246.59-18.965-7.957 21.687-12.586ZM11.371 131.61l15.55 34.968L0 194.285ZM70.297 223.523l12.793 9.563-4.89 23.18Zm0 0"/><path fill="#fefcfe" d="m90.55 261.594-13.042 11.824.691-17.152ZM83.09 233.086l7.46 28.508-12.35-5.328Zm0 0"/><path fill="#fef0f5" d="m103.914 267.734 2.121 14.883-14.25-4.379Zm0 0"/><path fill="#352a55" d="m103.914 267.734 17.524-1.699-15.403 16.582Zm0 0"/><path fill="#382f57" d="m111.953 337.79 14.64-7.333 4.071 7.348Zm0 0"/><path fill="#efa2c8" d="m126.594 330.457 18.511-4.18-14.44 11.528Zm0 0"/><path fill="#352a55" d="m86.3 366.457 56.552 17.547-142.844.004Zm0 0"/><path fill="#352a55" d="m41.988 345.422 44.313 21.035-86.293 17.55Zm0 0"/><path fill="#352a55" d="m86.3 366.457-44.312-21.035 30.282-9.371Zm0 0"/><path fill="#fbe4ef" d="m145.105 326.277 1.801 21.422-16.242-9.894Zm0 0"/><path fill="#352a55" d="m146.906 347.7-21.605 7.636 5.363-17.531ZM146.906 347.7l-4.054 36.304-17.551-28.668ZM187.25 0l-9.668 52.34-22.047-25.781ZM204.594 73.113 177.582 52.34l48.254-6.992Zm0 0"/><path fill="#fef8fc" d="m135.742 41.984-4.816 21.899-14.543-4.102Zm0 0"/><path fill="#fdf3f9" d="m130.926 63.883-8.82 15.937-5.723-20.039Zm0 0"/><path fill="#fef8fb" d="m122.105 79.82 8.82-15.937 8.583 16.484Zm0 0"/><path fill="#352a55" d="m139.508 80.367 17.39-3.719-3.421 15.618ZM177.582 52.34l-29.105-9.106 7.058-16.675Zm0 0"/><path fill="#fef5f9" d="m120.61 33.719 15.132 8.265-19.36 17.797Zm0 0"/><path fill="#fceaf3" d="m120.61 33.719-4.657-5.73 11.832-11.47Zm0 0"/><path fill="#352a55" d="m120.61 33.719-15.532 19.324 10.875-25.055ZM120.61 33.719l-4.227 26.062-11.305-6.738ZM142.047 96.316l-2.54-15.949 13.97 11.899Zm0 0"/><path fill="#fad9ea" d="m139.508 80.367 2.539 15.95-16.844 7.882Zm0 0"/><path fill="#352a55" d="m92.723 108.152 5.543-11.902 13.976 16.973Zm0 0"/><path fill="#352a55" d="m98.266 96.25 10.25-6.512 3.726 23.485ZM80.71 89.457l17.556 6.793-5.543 11.902Zm0 0"/><path fill="#352a55" d="m108.516 89.738-10.25 6.512-6.793-17.05ZM98.266 96.25 80.71 89.457l10.762-10.258ZM358.313 190.824 384 140.484v95.286ZM384 0v55.367L346.504 36.04Zm0 0"/><path fill="#fdf2f7" d="m355.727 132.488-7.887 20.77-8.754-16.942Zm0 0"/><path fill="#352a55" d="m318.586 136.86 19.61-6.551.89 6.007Zm0 0"/><path fill="#fefcfe" d="m329.45 147.492-10.864-10.633 20.5-.543Zm0 0"/><path fill="#352a55" d="m308.676 41.555-14.113.351-7.84-21.418ZM356.418 60.5l-.473 54.93-29.644 7.457Zm0 0"/><path fill="#352a55" d="M356.418 60.5 384 55.367l-28.055 60.063ZM326.941 74.508l-18.265-32.953 37.828-5.516ZM308.676 41.555l18.265 32.953-31.293 11.96ZM328.328 77.656l-22.812 17.57-9.868-8.757Zm0 0"/><path fill="#fefafd" d="m270.996 28.656 15.727-8.168-6.446 15.012Zm0 0"/><path fill="#fcbdcb" d="m286.723 20.488 7.84 21.418-14.286-6.406Zm0 0"/><path fill="#352a55" d="m286.723 20.488-15.727 8.168-3.055-15.445Zm0 0"/><path fill="#fdf2f8" d="m263.102 57.863 7.894-29.207 9.281 6.844Zm0 0"/><path fill="#fbe7f0" d="m270.996 28.656-7.894 29.207-8.02 2.696Zm0 0"/><path fill="#b39270" d="m329.45 147.492 18.39 5.766-36.707 15.601Zm0 0"/><path fill="#362b55" d="m311.133 168.86 36.707-15.602 10.473 37.566Zm0 0"/><path fill="#f6adb5" d="m347.84 153.258-18.39-5.766 9.636-11.176Zm0 0"/><path fill="#fb9eac" d="m286.36 121.285-7.255 13.293-8.523-15.398Zm0 0"/><path fill="#fefafc" d="m273.332 113.313 13.027 7.972-15.777-2.105Zm0 0"/><path fill="#fef9fc" d="m286.36 121.285-13.028-7.972 21.512-7.25Zm0 0"/><path fill="#fef6f9" d="m296.18 124.648-9.82-3.363 8.484-15.222Zm0 0"/><path fill="#fed3db" d="m279.105 134.578 7.254-13.293 9.82 3.363Zm0 0"/><path fill="#f8e7dd" d="m243.992 176.586-33.437-18.465 33.965-13.184Zm0 0"/><path fill="#352a55" d="m262.5 333.21-32.676 3.192 25.285-24.507Zm0 0"/><path fill="#fbe6ec" d="m241.691 309.082 26.723 5.602-13.305-2.79Zm0 0"/><path fill="#fadbea" d="m324.11 342.727 1.046-22.137 26.168 16.652Zm0 0"/><path fill="#352a55" d="m383.996 384-59.887-41.273 27.215-5.485Zm0 0"/><path fill="#352a55" d="M324.11 342.727 383.995 384l-68.707-22.047Zm0 0"/><path fill="#352a55" d="m304.605 347.719 10.684 14.234-42.406 22.055Zm0 0"/><path fill="#cba18e" d="m315.29 361.953-10.685-14.234 19.504-4.992Zm0 0"/><path fill="#ed97c0" d="m314.14 321.371 11.016-.781-1.047 22.137Zm0 0"/><path fill="#352a55" d="m351.324 337.242-26.367-20.258 24.375-45.941Zm0 0"/><path fill="#352a55" d="m325.156 320.59-.199-3.606 26.367 20.258Zm0 0"/><path fill="#f0aecc" d="m314.14 321.371 10.817-4.387.2 3.606Zm0 0"/><path fill="#352a55" d="m324.957 316.984-21-26.757 45.375-19.184ZM274.102 351.07l-1.22 32.938-43.058-47.606ZM262.5 333.21l11.602 17.86-44.278-14.668Zm0 0"/><path fill="#f9edee" d="m163.379 244.188 23.293 10.718-28.07.93Zm0 0"/><path fill="#352a55" d="m195.602 302.96-5.856-38.128 10.008-7.203ZM149.535 238.523l13.844 5.665-12.32 5.82ZM149.535 238.523l-12.597 8.067 2.722-20.543Zm0 0"/><path fill="#352a55" d="m136.938 246.59 12.597-8.067 1.524 11.485Zm0 0"/><path fill="#826a65" d="m192.793 229.188-15.336.457 3.992-39.18Zm0 0"/><path fill="#b99872" d="m192.793 229.188-6.121 25.718-9.215-25.261Zm0 0"/><path fill="#ac8e70" d="m192.793 229.188 6.96 28.44-13.081-2.722Zm0 0"/><path fill="#a28972" d="m237.582 195.672-44.789 33.516-11.344-38.723Zm0 0"/><path fill="#6c5861" d="m192.793 229.188 44.789-33.516-6.047 34.594Zm0 0"/><path fill="#756264" d="m231.879 254.469-.344-24.203 27.781 31.304Zm0 0"/><path fill="#d7b078" d="m192.793 229.188 39.086 25.28-32.125 3.16Zm0 0"/><path fill="#dab278" d="m231.879 254.469-39.086-25.281 38.742 1.078Zm0 0"/><path fill="#fefcfe" d="m130.762 136.344-14.114 11.52 1.868-17.473Zm0 0"/><path fill="#fefbfe" d="m116.648 147.863 14.114-11.52 5.379 8.731Zm0 0"/><path fill="#fefbfc" d="m164.77 157.281-35.532 18.082 6.903-30.289Zm0 0"/><path fill="#352a55" d="m99.188 199.816 29.937 5.786-15.375 7.402ZM99.188 199.816l9.28-17.136 17.798 16.218Zm0 0"/><path fill="#352a55" d="m129.125 205.602-29.937-5.786 27.078-.918Zm0 0"/><path fill="#fd617b" d="m242.168 124.55-13.578 11.552-7.172-13.512Zm0 0"/><path fill="#fef4f8" d="m241.34 97.781-20.688 7.805.41-14.89Zm0 0"/><path fill="#352a55" d="M71.773 90.586 57.758 105.03 43.742 83.898Zm0 0"/><path fill="#352a55" d="m57.758 105.031-21.774 5.27 7.758-26.403Zm0 0"/><path fill="#352a55" d="m35.984 110.3 21.774-5.269-7.598 16.196ZM91.473 79.2 80.71 89.456 58.02 67.773Zm0 0"/><path fill="#fefbfe" d="m80.71 89.457-8.937 1.129L58.02 67.773Zm0 0"/><path fill="#352a55" d="m66.219 119.32 16.297-.152L72.25 130.34Zm0 0"/><path fill="#fdfafd" d="m97.574 135.727-15.058-16.559 10.207-11.016Zm0 0"/><path fill="#fef7fb" d="m113.293 292.012-13.508 3.62-2.262-3.081Zm0 0"/><path fill="#fef9fc" d="m99.785 295.633 13.508-3.621 7.195 10.543Zm0 0"/><path fill="#352a55" d="m92.54 338.074-6.7-11.8 22.52-5.344ZM103.398 249.727l14.575-11.094 3.465 27.402Zm0 0"/><path fill="#fba381" d="m117.973 238.633-14.575 11.094 7.04-20.86Zm0 0"/><path fill="#fda9b4" d="m110.438 228.867-7.04 20.86-20.308-16.641Zm0 0"/><path fill="#fef9fb" d="m103.398 249.727-12.847 11.867-7.461-28.508Zm0 0"/><path fill="#352a55" d="m11.371 131.61 19.7 7.84-4.15 27.128ZM56.918 133.598l9.3-14.278 6.032 11.02Zm0 0"/><path fill="#5f5161" d="m70.695 155.902-22.789 4.973 3.387-17.18Zm0 0"/><path fill="#352a55" d="m53.445 198.91 38.41-18.031 7.332 18.937ZM91.855 180.879l16.614 1.8-9.281 17.137Zm0 0"/><path fill="#3e4f6c" d="m91.855 180.879 6.278-16.082 10.336 17.883Zm0 0"/><path fill="#352a55" d="m70.297 223.523 29.691-5.925-16.898 15.488ZM70.297 223.523 53.445 198.91l45.743.906Zm0 0"/><path fill="#352a55" d="m99.988 217.598-29.691 5.925 28.89-23.707ZM65.512 269.973l-24.028-26.157 36.715 12.45Zm0 0"/><path fill="#352a55" d="m77.508 273.418-11.996-3.445 12.687-13.707ZM103.914 267.734l-.516-18.007 18.04 16.308Zm0 0"/><path fill="#fccad2" d="m103.398 249.727.516 18.007-13.363-6.14Zm0 0"/><path fill="#fefcfe" d="m91.785 278.238-14.277-4.82 13.043-11.824Zm0 0"/><path fill="#fee3e9" d="m103.914 267.734-12.129 10.504-1.234-16.644Zm0 0"/><path fill="#fef9fc" d="m106.035 282.617 7.258 9.395-15.77.539Zm0 0"/><path fill="#352a55" d="m41.988 345.422 14.719-17.64 15.563 8.269ZM56.707 327.781l-2.883-3.187 4.614.363Zm0 0"/><path fill="#352a55" d="m53.824 324.594 2.883 3.187-14.719 17.64ZM92.54 338.074l-6.24 28.383-14.03-30.406Zm0 0"/><path fill="#352a55" d="m92.54 338.074-20.27-2.023 13.57-9.778ZM65.512 269.973 46.793 284.32l-5.309-40.504Zm0 0"/><path fill="#fef6f9" d="M220.652 105.586 201.06 88.68l20.004 2.015Zm0 0"/><path fill="#352a55" d="m201.059 88.68 3.535-15.567 16.469 17.582Zm0 0"/><path fill="#fefcfe" d="m201.059 88.68-2.907 33.347-14.937-22.468ZM201.059 88.68l19.593 16.906-22.5 16.441Zm0 0"/><path fill="#fefcfe" d="m183.719 87.043 17.34 1.637-17.844 10.879Zm0 0"/><path fill="#352a55" d="m204.594 73.113-3.535 15.567-17.34-1.637Zm0 0"/><path fill="#fefafd" d="m132.297 15.035.137 4.445-4.649-2.96Zm0 0"/><path fill="#fdf0f7" d="M132.434 19.48 120.609 33.72l7.176-17.2Zm0 0"/><path fill="#352a55" d="m155.535 26.559-23.101-7.079L187.25 0Zm0 0"/><path fill="#352a55" d="m132.434 19.48-.137-4.445L187.25 0ZM108.516 89.738l16.687 14.461-12.96 9.024ZM374.664 145.473l-18.937-12.985L384 140.484Zm0 0"/><path fill="#fdc6d1" d="m374.664 145.473-26.824 7.785 7.887-20.77Zm0 0"/><path fill="#352a55" d="m374.664 145.473 9.336-4.989-25.687 50.34Zm0 0"/><path fill="#352a55" d="m347.84 153.258 26.824-7.785-16.351 45.351Zm0 0"/><path fill="#362a55" d="M308.676 41.555 305.305 0l41.199 36.04Zm0 0"/><path fill="#352a55" d="m308.676 41.555-21.953-21.067L305.305 0Zm0 0"/><path fill="#362a55" d="m356.418 60.5-29.477 14.008 19.563-38.469Zm0 0"/><path fill="#fefcfe" d="m328.328 77.656-15.187 32.778-7.625-15.207Zm0 0"/><path fill="#352a55" d="m326.941 74.508 1.387 3.148-32.68 8.813Zm0 0"/><path fill="#fefbfd" d="m356.418 60.5-28.09 17.156-1.387-3.148Zm0 0"/><path fill="#f96a85" d="M294.563 41.906 267.44 66.914 280.277 35.5Zm0 0"/><path fill="#fef9fc" d="m267.441 66.914-4.34-9.05L280.278 35.5Zm0 0"/><path fill="#352a55" d="m204.594 73.113 24.656 5.719-8.187 11.863Zm0 0"/><path fill="#352a55" d="m225.836 45.348 3.414 33.484-24.656-5.719ZM229.25 78.832l12.09 18.95-20.278-7.087ZM322.488 226.61l-56.445 6.417 4.8-32.53Zm0 0"/><path fill="#715d63" d="m311.133 168.86-20.453-8.176 19.242-7.727Zm0 0"/><path fill="#aa7a6f" d="m279.105 134.578 11.575 26.106-12.887-1.97Zm0 0"/><path fill="#b2916f" d="m265.613 182.785 25.067-22.101 20.453 8.175Zm0 0"/><path fill="#362b55" d="m338.195 130.309-19.61 6.55 7.716-13.972Zm0 0"/><path fill="#58475c" d="m297.266 139.832-18.16-5.254 17.074-9.93Zm0 0"/><path fill="#fef3f6" d="m290.68 160.684 6.586-20.852 12.656 13.125Zm0 0"/><path fill="#fef0f4" d="m297.266 139.832-6.586 20.852-11.575-26.106Zm0 0"/><path fill="#856c66" d="m313.14 110.434 13.16 12.453-30.12 1.761Zm0 0"/><path fill="#fef9fc" d="m313.14 110.434-16.96 14.214-1.336-18.585Zm0 0"/><path fill="#352a55" d="m229.824 336.402 11.867-27.32 13.418 2.813Zm0 0"/><path fill="#352a55" d="m241.691 309.082-11.867 27.32-6.773-43.84Zm0 0"/><path fill="#fbe7f1" d="m287.105 319.75 7.532-5.066 8.472 12.863Zm0 0"/><path fill="#fdeff5" d="m294.637 314.684-7.532 5.066-7.476-23.344Zm0 0"/><path fill="#6a5a64" d="m303.957 290.227-9.32 24.457-15.008-18.278Zm0 0"/><path fill="#f69bb3" d="m289.156 271.52 14.801 18.707-24.328 6.18Zm0 0"/><path fill="#fef7fa" d="m279.629 296.406-11.215 18.278-1.457-20.891Zm0 0"/><path fill="#fee2e8" d="m268.414 314.684-26.723-5.602 25.266-15.289Zm0 0"/><path fill="#392d56" d="m291.316 339.777-4.21-20.027 16.003 7.797Zm0 0"/><path fill="#fefbfe" d="m287.105 319.75 4.211 20.027-14.632-16.632Zm0 0"/><path fill="#372b55" d="m291.316 339.777 13.29 7.942-30.504 3.351Zm0 0"/><path fill="#352a55" d="m276.684 323.145 14.632 16.632-17.214 11.293Zm0 0"/><path fill="#352a55" d="m262.5 333.21 14.184-10.065-2.582 27.925Zm0 0"/><path fill="#fefcfe" d="M268.414 314.684 262.5 333.21l-7.39-21.316Zm0 0"/><path fill="#aa6b85" d="m314.14 321.371-9.535 26.348-1.496-20.172Zm0 0"/><path fill="#b17090" d="m304.605 347.719 9.536-26.348 9.968 21.356Zm0 0"/><path fill="#372c55" d="m304.605 347.719-13.289-7.942 11.793-12.23Zm0 0"/><path fill="#ad7281" d="m294.637 314.684 19.504 6.687-11.032 6.176Zm0 0"/><path fill="#f9f5f8" d="m155.137 272.168-10.621-6.133 14.086-10.2Zm0 0"/><path fill="#352a55" d="m231.879 254.469-8.828 38.094-23.297-34.934Zm0 0"/><path fill="#d30c71" d="m130.762 136.344 14.144-.156-8.765 8.886Zm0 0"/><path fill="#fef9fb" d="m144.906 136.188 19.864 21.093-28.63-12.207Zm0 0"/><path fill="#fefafb" d="m164.77 157.281-19.864-21.094 19.668-16.246Zm0 0"/><path fill="#fefcfe" d="m198.152 122.027-33.382 35.254-.196-37.34Zm0 0"/><path fill="#fcceb7" d="m181.45 190.465-16.68-33.184 45.785.84Zm0 0"/><path fill="#fee7dc" d="m164.77 157.281 16.68 33.184-52.212-15.102Zm0 0"/><path fill="#fefcfe" d="m164.574 119.941-22.527-23.625 11.43-4.05ZM142.047 96.316l22.527 23.625-30.363 2.313Zm0 0"/><path fill="#fef8f8" d="m158.59 211.695-23.64 2.364 2.113-19.325Zm0 0"/><path fill="#f6dac6" d="m158.59 211.695-9.055 26.828-9.875-12.476Zm0 0"/><path fill="#fef8f9" d="m134.95 214.059 23.64-2.364-18.93 14.352Zm0 0"/><path fill="#7b6565" d="m158.59 211.695 2.535-4.132 16.332 22.082Zm0 0"/><path fill="#8b776d" d="m161.125 207.563-2.535 4.132-21.528-16.96Zm0 0"/><path fill="#e0c9b4" d="m163.379 244.188-4.79-32.493 18.868 17.95Zm0 0"/><path fill="#f9deca" d="m149.535 238.523 9.055-26.828 4.789 32.493Zm0 0"/><path fill="#fef3f7" d="m241.34 97.781 4.078 17.664-24.766-9.86Zm0 0"/><path fill="#fef8fb" d="m220.652 105.586 24.766 9.86-24 7.144Zm0 0"/><path fill="#fef5f8" d="m245.418 115.445-3.25 9.106-20.75-1.961Zm0 0"/><path fill="#352a55" d="m57.758 105.031 19.304 1.438L66.22 119.32Zm0 0"/><path fill="#352a55" d="m77.063 106.469 5.453 12.699-16.297.152Zm0 0"/><path fill="#fefcfe" d="m77.063 106.469 3.648-17.012 12.012 18.695Zm0 0"/><path fill="#fefcfe" d="m82.516 119.168-5.454-12.7 15.66 1.684Zm0 0"/><path fill="#f8a7bc" d="m111.953 337.79-19.414.284 15.82-17.144Zm0 0"/><path fill="#facfdc" d="m126.594 330.457-14.64 7.332-3.595-16.86Zm0 0"/><path fill="#352a55" d="m92.54 338.074 19.413-.285-25.652 28.668ZM85.84 326.273l19.082-10.511 3.437 5.168ZM108.36 320.93l-3.438-5.168 15.566-13.207Zm0 0"/><path fill="#352a55" d="m104.922 315.762-5.137-20.13 20.703 6.923Zm0 0"/><path fill="#fbe6ed" d="m28.387 126.422 2.683 13.027-19.699-7.84Zm0 0"/><path fill="#fefcfe" d="m21.996 117.504 6.39 8.918-17.015 5.187Zm0 0"/><path fill="#352a55" d="m35.984 110.3-7.597 16.122-6.39-8.918ZM69.79 139.602l-12.872-6.004 15.332-3.258Zm0 0"/><path fill="#fefbfe" d="m56.918 133.598 12.871 6.004-18.496 4.093Zm0 0"/><path fill="#fefcfe" d="m69.79 139.602.905 16.3-19.402-12.207Zm0 0"/><path fill="#352a55" d="m67.52 175.691 24.335 5.188-38.41 18.031Zm0 0"/><path fill="#352a55" d="m47.906 160.875 19.614 14.816-14.075 23.22Zm0 0"/><path fill="#f3f5f7" d="m70.695 155.902-3.175 19.79-19.614-14.817Zm0 0"/><path fill="#649097" d="M98.133 164.797 67.52 175.69l3.175-19.789Zm0 0"/><path fill="#b8dbdd" d="m67.52 175.691 30.613-10.894-6.278 16.082Zm0 0"/><path fill="#352a55" d="m71.855 283.418-6.343-13.445 11.996 3.445Zm0 0"/><path fill="#352a55" d="m71.855 283.418-25.062.902 18.719-14.347Zm0 0"/><path fill="#fef9fc" d="m58.516 297.563 13.34-14.145 7.855 5.84Zm0 0"/><path fill="#fefbfe" d="m91.785 278.238-12.074 11.02-2.203-15.84Zm0 0"/><path fill="#fef8fc" d="m97.523 292.55-17.812-3.292 12.074-11.02Zm0 0"/><path fill="#fefbfd" d="m79.71 289.258-7.855-5.84 5.653-10Zm0 0"/><path fill="#352a55" d="m195.602 302.96-10.543 47.692-20.27-29.484ZM145.105 326.277l1.204-16.922 18.48 11.813Zm0 0"/><path fill="#fce9f3" d="m139.855 291.063 6.454 18.292-18.079-12.539Zm0 0"/><path fill="#fdf4f9" d="m132.266 284.527 7.59 6.536-11.626 5.753Zm0 0"/><path fill="#352a55" d="m69.578 312.422 16.262 13.851-13.57 9.778ZM42.844 315.324l10.98 9.27-11.836 20.828ZM142.031 61.344l35.551-9.004-20.684 24.308Zm0 0"/><path fill="#352a55" d="m177.582 52.34-35.55 9.004 6.445-18.11ZM142.031 61.344l14.867 15.304-17.39 3.72Zm0 0"/><path fill="#fef9fc" d="m130.926 63.883 11.105-2.54-2.523 19.024Zm0 0"/><path fill="#fdeff6" d="m142.031 61.344-11.105 2.539 4.816-21.899Zm0 0"/><path fill="#d5729d" d="m148.477 43.234-6.446 18.11-6.289-19.36Zm0 0"/><path fill="#352a55" d="m177.582 52.34-7.355 27.113-13.329-2.805Zm0 0"/><path fill="#f1a1c7" d="m146 29.563 2.477 13.671-12.735-1.25Zm0 0"/><path fill="#fdf3f8" d="M120.61 33.719 146 29.562l-10.258 12.422Zm0 0"/><path fill="#fdeef6" d="M132.434 19.48 146 29.563l-25.39 4.156Zm0 0"/><path fill="#352a55" d="M148.477 43.234 146 29.562l9.535-3.003Zm0 0"/><path fill="#352a55" d="M146 29.563 132.434 19.48l23.101 7.079Zm0 0"/><path fill="#5f2a66" d="m134.21 122.254 10.696 13.933-14.144.157Zm0 0"/><path fill="#fefafd" d="m134.21 122.254-3.448 14.09-12.246-5.953ZM142.047 96.316l-7.836 25.938-9.008-18.055Zm0 0"/><path fill="#fefcfe" d="m134.21 122.254-15.694 8.137-6.274-17.168ZM125.203 104.2l9.008 18.054-21.969-9.031Zm0 0"/><path fill="#d08f81" d="m313.14 110.434 15.188-32.778-2.027 45.23Zm0 0"/><path fill="#bc867b" d="m328.328 77.656 28.09-17.156-30.117 62.387Zm0 0"/><path fill="#fef9fc" d="m267.441 66.914-12.359-6.355 8.02-2.696Zm0 0"/><path fill="#372b55" d="m311.133 168.86-40.29 31.636-5.23-17.71Zm0 0"/><path fill="#352a55" d="m270.844 200.496 40.289-31.637 11.355 57.75Zm0 0"/><path fill="#61505f" d="m277.793 158.715 12.887 1.969-25.067 22.101Zm0 0"/><path fill="#f9d9c6" d="m277.793 158.715-12.18 24.07-21.62-6.2Zm0 0"/><path fill="#fae7e0" d="m244.52 144.938 33.273 13.777-33.8 17.87Zm0 0"/><path fill="#fee7e6" d="m277.793 158.715-33.273-13.778 16.75-12.226Zm0 0"/><path fill="#fefafd" d="m309.922 152.957 8.664-16.098 10.863 10.633Zm0 0"/><path fill="#fefbfe" d="m297.266 139.832 21.32-2.973-8.664 16.098Zm0 0"/><path fill="#876d66" d="m326.3 122.887-7.714 13.972-22.406-12.21Zm0 0"/><path fill="#51415b" d="m318.586 136.86-21.32 2.972-1.086-15.184Zm0 0"/><path fill="#fefafd" d="m287.105 319.75-10.421 3.395 2.945-26.739Zm0 0"/><path fill="#fefafc" d="m276.684 323.145-8.27-8.461 11.215-18.278Zm0 0"/><path fill="#352a55" d="M276.684 323.145 262.5 333.21l5.914-18.527Zm0 0"/><path fill="#362b55" d="m349.332 271.043-45.375 19.184-14.8-18.707Zm0 0"/><path fill="#7c5c6f" d="m186.672 254.906-17.344 18.203-10.726-17.273Zm0 0"/><path fill="#9f6f7c" d="m169.328 273.11-14.191-.942 3.465-16.332Zm0 0"/><path fill="#352a55" d="m189.746 264.832-20.418 8.277 17.344-18.203Zm0 0"/><path fill="#352a55" d="m195.602 302.96-26.274-29.85 20.418-8.278Zm0 0"/><path fill="#fde7f0" d="m164.574 119.941-19.668 16.246-10.695-13.933Zm0 0"/><path fill="#352a55" d="m71.773 90.586 5.29 15.883-19.305-1.438Zm0 0"/><path fill="#fefcfe" d="m77.063 106.469-5.29-15.883 8.938-1.129Zm0 0"/><path fill="#352a55" d="M39.492 127.383 35.984 110.3l14.176 10.926ZM39.492 127.383l-11.105-.961 7.597-16.121Zm0 0"/><path fill="#fef6fa" d="m28.387 126.422 11.105.96-8.422 12.067Zm0 0"/><path fill="#fefafd" d="m45.54 131.352 11.378 2.246-5.625 10.097Zm0 0"/><path fill="#352a55" d="m26.922 166.578 20.984-5.703 5.54 38.035ZM31.07 139.45l16.836 21.425-20.984 5.703Zm0 0"/><path fill="#abafb7" d="m51.293 143.695-3.387 17.18-16.836-21.426Zm0 0"/><path fill="#fefcfe" d="m69.79 139.602 24.022.687-23.117 15.613Zm0 0"/><path fill="#b7bec5" d="m93.813 140.29 4.32 24.507-27.438-8.895Zm0 0"/><path fill="#352a55" d="m93.813 140.29-24.024-.688 2.461-9.262ZM82.516 119.168l11.296 21.121-21.562-9.95ZM93.813 140.29l-11.297-21.122 15.058 16.559Zm0 0"/><path fill="#fae4ef" d="m108.36 320.93 23.28-7.063-5.046 16.59Zm0 0"/><path fill="#fbdfec" d="m131.64 313.867-23.28 7.063 12.128-18.375Zm0 0"/><path fill="#f9d5e7" d="m126.594 330.457 5.047-16.59 13.464 12.41Zm0 0"/><path fill="#e78ba2" d="m157.508 286.375-11.2 22.98-6.453-18.293Zm0 0"/><path fill="#352a55" d="m157.508 286.375 38.094 16.586-30.813 18.207Zm0 0"/><path fill="#352a55" d="m146.309 309.355 11.199-22.98 7.281 34.793Zm0 0"/><path fill="#a8798f" d="m169.328 273.11-11.82 13.265-2.371-14.207Zm0 0"/><path fill="#352a55" d="m157.508 286.375 11.82-13.266 26.274 29.852ZM144.516 266.035l-8.836 9.48-14.243-9.48ZM120.121 288.156l12.145-3.629-4.036 12.29ZM120.121 288.156l.367 14.399-7.195-10.543Zm0 0"/><path fill="#352a55" d="m120.488 302.555-.367-14.399 8.11 8.66Zm0 0"/><path fill="#fef6fa" d="m106.035 282.617 14.086 5.54-6.828 3.855Zm0 0"/><path fill="#fefbfd" d="m64.133 305.36-5.617-7.798 21.195-8.304Zm0 0"/><path fill="#352a55" d="m104.922 315.762-19.008 9.836 13.871-29.965Zm0 0"/><path fill="#352a55" d="m85.914 325.598 19.008-9.836-19.082 10.511ZM46.793 284.32l25.062-.902-13.34 14.144ZM248.469 76.598l-19.219 2.234-3.414-33.484Zm0 0"/><path fill="#db6ea0" d="m303.957 290.227 10.184 31.144-19.504-6.687Zm0 0"/><path fill="#f1b3d0" d="m314.14 321.371-10.183-31.144 21 26.757Zm0 0"/><path fill="#352a55" d="m50.16 121.227 7.598-16.196 8.46 14.29Zm0 0"/><path fill="#352a55" d="m56.918 133.598-6.758-12.371 16.059-1.907Zm0 0"/><path fill="#352a55" d="m45.54 131.352 4.62-10.125 6.758 12.37Zm0 0"/><path fill="#f1dbe5" d="m45.54 131.352 5.753 12.343-20.223-4.246Zm0 0"/><path fill="#fdeff6" d="m39.492 127.383 6.047 3.969-14.469 8.097Zm0 0"/><path fill="#352a55" d="m45.54 131.352-6.048-3.97 10.668-6.155Zm0 0"/><path fill="#f9d6e7" d="m131.64 313.867 14.669-4.512-1.204 16.922Zm0 0"/><path fill="#fce8f2" d="m146.309 309.355-14.668 4.512-3.41-17.05Zm0 0"/><path fill="#fce4ef" d="m131.64 313.867-11.152-11.312 7.742-5.739Zm0 0"/><path fill="#fbf6fa" d="m155.137 272.168-15.383 5.992 4.762-12.125Zm0 0"/><path fill="#352b55" d="m139.754 278.16-4.074-2.644 8.836-9.48Zm0 0"/><path fill="#352b55" d="m135.68 275.516 4.074 2.644-7.488 6.367Zm0 0"/><path fill="#fdf4f9" d="m132.266 284.527 7.488-6.367.101 12.902Zm0 0"/><path fill="#fcf1f6" d="m139.754 278.16 17.754 8.215-17.653 4.688Zm0 0"/><path fill="#fbf1f6" d="m157.508 286.375-17.754-8.215 15.383-5.992Zm0 0"/><path fill="#352a55" d="m121.438 266.035-1.317 22.121-14.086-5.539Zm0 0"/><path fill="#352a55" d="m120.121 288.156 1.317-22.12 10.828 18.491Zm0 0"/><path fill="#352a55" d="m121.438 266.035 14.242 9.48-3.414 9.012Zm0 0"/><path fill="#fef8fa" d="m85.914 325.598 11.61-33.047 2.261 3.082Zm0 0"/><path fill="#352a55" d="m58.438 324.957 13.832 11.094-15.563-8.27Zm0 0"/><path fill="#352a55" d="m58.438 324.957 11.14-12.535 2.692 23.629Zm0 0"/><path fill="#fefcfe" d="m58.438 324.957 5.695-19.598 5.445 7.063Zm0 0"/><path fill="#352a55" d="m58.516 297.563-15.672 17.761 3.949-31.004Zm0 0"/><path fill="#fefcfe" d="m166.691 89.383 16.524 10.176-18.64 20.382Zm0 0"/><path fill="#fefcfe" d="m183.215 99.559 14.937 22.468-33.578-2.086Zm0 0"/><path fill="#352a55" d="m183.719 87.043-17.028 2.34 3.536-9.93Zm0 0"/><path fill="#fefcfe" d="m183.719 87.043-.504 12.516-16.524-10.176Zm0 0"/><path fill="#352a55" d="m183.719 87.043-6.137-34.703 27.012 20.773Zm0 0"/><path fill="#352a55" d="m183.719 87.043-13.492-7.59 7.355-27.113Zm0 0"/><path fill="#fefcfe" d="m166.691 89.383-2.117 30.558-11.097-27.675Zm0 0"/><path fill="#352a55" d="m156.898 76.648 9.793 12.735-13.214 2.883Zm0 0"/><path fill="#352a55" d="m170.227 79.453-3.536 9.93-9.793-12.735Zm0 0"/><path fill="#feeff3" d="m255.398 79.54 8.122 17.636-5.977 8.418Zm0 0"/><path fill="#352a55" d="m248.469 76.598-7.13 21.183-12.089-18.949Zm0 0"/><path fill="#fef9fb" d="m241.34 97.781 14.058-18.242 2.145 26.055Zm0 0"/><path fill="#fef7fb" d="M255.398 79.54 241.34 97.78l7.129-21.183Zm0 0"/><path fill="#352a55" d="m295.648 86.469-15.437-5.07 28.465-39.844ZM280.21 81.398l14.353-39.492 14.113-.351Zm0 0"/><path fill="#362b55" d="m280.21 81.398-12.769-14.484 27.122-25.008Zm0 0"/><path fill="#352a55" d="m294.844 106.063-13.137-9.258 13.941-10.336Zm0 0"/><path fill="#352a55" d="m273.332 113.313 8.375-16.508 13.137 9.257Zm0 0"/><path fill="#fefcfe" d="m64.133 305.36 19.07-5.673-13.625 12.735Zm0 0"/><path fill="#fefcfe" d="m83.203 299.688-19.07 5.671 15.578-16.101Zm0 0"/><path fill="#fefafd" d="m83.203 299.688-3.492-10.43 17.812 3.293Zm0 0"/><path fill="#fefbfd" d="m58.516 297.563 5.617 7.796-21.29 9.965Zm0 0"/><path fill="#fefcfe" d="m53.824 324.594 10.309-19.235-5.695 19.598Zm0 0"/><path fill="#352a55" d="m42.844 315.324 21.289-9.965-10.309 19.235Zm0 0"/><path fill="#fef7fa" d="m255.398 79.54-.316-18.981 12.36 6.355Zm0 0"/><path fill="#fef6f9" d="m255.082 60.559.316 18.98-6.93-2.941Zm0 0"/><path fill="#352a55" d="m255.082 60.559-6.613 16.039-22.633-31.25Zm0 0"/><path fill="#fef8fb" d="m264.672 80.754-9.274-1.215 12.043-12.625Zm0 0"/><path fill="#feeaee" d="m255.398 79.54 9.274 1.214-1.152 16.422Zm0 0"/><path fill="#362a55" d="m280.21 81.398-15.538-.644 2.77-13.84Zm0 0"/><path fill="#feebef" d="m257.543 105.594-12.125 9.851-4.078-17.664Zm0 0"/><path fill="#fee7ec" d="m245.418 115.445 12.125-9.851 13.039 13.586Zm0 0"/><path fill="#362b55" d="m280.21 81.398 1.497 15.407-18.187.37Zm0 0"/><path fill="#352a55" d="m264.672 80.754 15.539.644-16.691 15.778ZM281.707 96.805l-1.496-15.407 15.437 5.07Zm0 0"/><path fill="#352a55" d="m281.707 96.805-8.375 16.507-9.812-16.136ZM83.203 299.688l2.711 25.91-16.336-13.176Zm0 0"/><path fill="#fefcfe" d="m85.914 325.598-2.71-25.91 14.32-7.137Zm0 0"/><path fill="#352a55" d="m85.914 325.598-.074.675-16.262-13.851Zm0 0"/><path fill="#fdeaef" d="m257.543 105.594 15.789 7.719-2.75 5.867Zm0 0"/><path fill="#352a55" d="m263.52 97.176 9.812 16.136-15.789-7.718Zm0 0"/></svg>