<svg xmlns="http://www.w3.org/2000/svg" width="512" height="512" viewBox="0 0 384 384"><path fill="#0ce5f1" d="M306.75 339.715 252.922 304.5l43.84-27.527Zm0 0"/><path fill="#fefefe" d="m215.625 40.95-11.43 67.034-29.992-12.214ZM222.75 129.988l10.703-17.324.723 18.492Zm0 0"/><path fill="#fcfbfc" d="m50.36 76.227 78.515 5.816-32.488 23.738Zm0 0"/><path fill="#0ce5f1" d="m74.39 225.16-10.093 47.692-26-34.106Zm0 0"/><path fill="#201533" d="m112.156 172.941-17.691 19.211-12.399-13.418Zm0 0"/><path fill="#fefefe" d="M384.004 198.836 384 241.098l-19.36-17.77Zm0 0"/><path fill="#0ce5f1" d="m336.965 284.785-30.215 54.93-9.988-62.742Zm0 0"/><path fill="#1f1533" d="m244.156 142.637 14.633-10.457.113 12.183Zm0 0"/><path fill="#fefefe" d="m204.195 107.984 29.258 4.68-10.703 17.324ZM233.453 112.664l10.82 17.856-10.097.636Zm0 0"/><path fill="#1f1533" d="m244.156 142.637.117-12.117 14.516 1.66Zm0 0"/><path fill="#fefefe" d="m233.453 112.664-29.258-4.68 11.43-67.035Zm0 0"/><path fill="#0ce5f1" d="m64.297 272.852 29.656 4.964 8.66 14.047Zm0 0"/><path fill="#0ce4f0" d="m64.297 272.852 32.605-13.043-2.949 18.007Zm0 0"/><path fill="#0ce5f1" d="m96.902 259.809-32.605 13.043L74.39 225.16ZM98.293 157.57l13.863 15.371-30.09 5.793Zm0 0"/><path fill="#0ce5f1" d="m112.156 172.941-13.863-15.37 20.055-4.966Zm0 0"/><path fill="#fefefe" d="m12.371 226.824-.422-16.613 19.485 3.316Zm0 0"/><path fill="#0fe4f0" d="m-.02 218.613 12.391 8.211L0 242.742Zm0 0"/><path fill="#fcfdfe" d="m-.02 218.613 11.97-8.402.421 16.613Zm0 0"/><path fill="#0ce5f1" d="m63.398 306.824 29.184 45.856-51.254-17.243ZM92.582 352.68 0 384.016l41.328-48.579Zm0 0"/><path fill="#fefefe" d="m323.863 144.398-25.172-28.957 41.29 1.418Zm0 0"/><path fill="#dfdde2" d="m247.832 238.871-5.84-16.008 17.121 11.559Zm0 0"/><path fill="#201533" d="m93.953 277.816 19.692-.761-11.032 14.808Zm0 0"/><path fill="#201533" d="m96.902 259.809 16.743 17.246-19.692.761Zm0 0"/><path fill="#fcfcfc" d="m184.117 213.422-7.86-18.234 10.52-1.34Zm0 0"/><path fill="#fefefe" d="m176.258 195.188.676-12.176 9.843 10.836Zm0 0"/><path fill="#fefefe" d="m176.934 183.012-.676 12.176-8.723-9.297Zm0 0"/><path fill="#0ce0ed" d="m265.133 384.02-39.012-38.278 80.629-6.027Zm0 0"/><path fill="#0ce5f1" d="m384 290.36-77.25 49.355 30.215-54.93Zm0 0"/><path fill="#158b9f" d="m265.133 384.02 41.617-44.305 77.238 44.308Zm0 0"/><path fill="#f3fdfe" d="m384 241.098-28.8 13.593 9.44-31.363Zm0 0"/><path fill="#ddfbfc" d="m355.2 254.691-22.845-28.925 32.286-2.438Zm0 0"/><path fill="#0ed0de" d="M355.2 254.691 384 290.36l-47.035-5.574Zm0 0"/><path fill="#746d80" d="M39.332 31.035 28.051-.043l46.96.04Zm0 0"/><path fill="#e3e2e6" d="M-.012 61.688 0 25.254l11.688.144Zm0 0"/><path fill="#8a8494" d="m50.36 76.227-25.231-8.243 14.203-36.949Zm0 0"/><path fill="#201533" d="m225.184 140.855-2.434-10.867 11.426 1.168Zm0 0"/><path fill="#1f1533" d="m258.395 157.914-14.239-15.277 14.746 1.726Zm0 0"/><path fill="#1f1533" d="m244.156 142.637 14.239 15.277-21.63-1.172ZM258.395 157.914l-14.45 8.508-7.18-9.68ZM244.273 130.52l-.117 12.117-9.98-11.48Zm0 0"/><path fill="#f6f5f6" d="m261.992 106.91-46.367-65.96 97.023 22.48Zm0 0"/><path fill="#fefefe" d="m261.992 106.91-28.539 5.754-17.828-71.715Zm0 0"/><path fill="#fcfcfc" d="m50.36 76.227 50.058-33.88 28.457 39.696Zm0 0"/><path fill="#201533" d="m176.375 162.504-9.043 10.168-7.887-20.817Zm0 0"/><path fill="#0ce5f1" d="M38.297 238.746.016 284.805 0 242.742ZM96.676 304.719l.73 18.812-34.008-16.707ZM63.398 306.824l.899-33.972 38.316 19.011Zm0 0"/><path fill="#0ce5f1" d="m96.676 304.719-33.278 2.105 39.215-14.96ZM73.094 193.902l21.37-1.75-20.073 33.008Zm0 0"/><path fill="#f8f8f9" d="m11.95 210.21 15.808-16.054 3.676 19.371Zm0 0"/><path fill="#fefefe" d="m27.758 194.156-15.809 16.055 3.11-27.504Zm0 0"/><path fill="#201533" d="m27.758 194.156-12.7-11.449 28.403-20.344Zm0 0"/><path fill="#1f1a37" d="m115.852 215.871-18.95 43.938 12.016-48.93Zm0 0"/><path fill="#fafafb" d="m111.105 252.453 2.54 24.602-16.743-17.246Zm0 0"/><path fill="#0ce5f1" d="m94.465 192.152 6.824 10.352-26.898 22.656ZM101.29 202.504l7.628 8.375-34.527 14.281ZM96.902 259.809 74.391 225.16l34.527-14.281Zm0 0"/><path fill="#e4e2e6" d="m.004 180.832 11.945 29.379-11.969 8.402Zm0 0"/><path fill="#fefefe" d="M11.95 210.21.003 180.833l15.055 1.875Zm0 0"/><path fill="#f9f9f9" d="M20.75 150.043.004 180.832l-.02-42.348Zm0 0"/><path fill="#fefefe" d="m15.059 182.707 5.691-32.664 22.71 12.32Zm0 0"/><path fill="#fbfbfb" d="m.004 180.832 20.746-30.789-5.691 32.664Zm0 0"/><path fill="#0ce4f0" d="m12.371 226.824 25.926 11.922L0 242.742Zm0 0"/><path fill="#fefefe" d="M38.297 238.746 12.37 226.824l19.063-13.297Zm0 0"/><path fill="#0ce0ec" d="M64.297 272.852.016 284.805l38.28-46.059Zm0 0"/><path fill="#0ce5f1" d="m.016 284.805 64.28-11.953-.898 33.972ZM226.121 345.742 169.863 384l-5.574-47.848Zm0 0"/><path fill="#0ce4f0" d="M41.328 335.438.016 284.805l63.382 22.02Zm0 0"/><path fill="#0ce5f1" d="m110.156 384-17.574-31.32 45.297-19.711Zm0 0"/><path fill="#0ce4f0" d="M92.582 352.68 110.156 384 0 384.016Zm0 0"/><path fill="#0ce5f1" d="m112.754 325.25-20.172 27.43 4.824-29.149Zm0 0"/><path fill="#0ce5f1" d="m97.406 323.531-4.824 29.149-29.184-45.856Zm0 0"/><path fill="#fefefe" d="m384.004 198.836-15.586-26L384 136.37Zm0 0"/><path fill="#fefefe" d="m368.418 172.836-2.383-22.16L384 136.37Zm0 0"/><path fill="#1f1533" d="m331.625 211.367.73 14.399-6.226 2.074Zm0 0"/><path fill="#fefefe" d="m323.863 144.398-17.21-5.113-7.962-23.844Zm0 0"/><path fill="#eae9ec" d="m187.844.012 65.09.035-37.309 40.902Zm0 0"/><path fill="#fafafb" d="m252.934.047 59.714 63.383-97.023-22.48Zm0 0"/><path fill="#fbfbfb" d="m312.648 63.43 71.344 9.258-44.012 44.171Zm0 0"/><path fill="#fefefe" d="m241.992 222.863 25.504-2.101-8.383 13.66Zm0 0"/><path fill="#1f1533" d="m241.992 222.863 5.84 16.008-11.684 5.492Zm0 0"/><path fill="#fefefe" d="m241.992 222.863-10.027-9.968 8.785-7.489Zm0 0"/><path fill="#0ce5f1" d="m169.863 384-31.984-51.031 26.41 3.183Zm0 0"/><path fill="#0ce5f1" d="M137.879 332.969 169.863 384h-59.707Zm0 0"/><path fill="#d6d4d9" d="m170.715 209.953 5.543-14.766 7.86 18.235Zm0 0"/><path fill="#0ce5f1" d="m306.75 339.715-80.629 6.027 26.8-41.242ZM252.922 304.5l13.871-44.488 29.969 16.96Zm0 0"/><path fill="#0ce5f1" d="M266.793 260.012 252.922 304.5l-13.34-34.918Zm0 0"/><path fill="#0fd6e4" d="M306.75 339.715 384 290.359l-.012 93.664Zm0 0"/><path fill="#eafcfd" d="m355.2 254.691 28.8-13.593v49.261Zm0 0"/><path fill="#0ce4f0" d="m332.355 225.766-3.75 8.515-2.476-6.441Zm0 0"/><path fill="#0ce5f1" d="m355.2 254.691-26.595-20.41 3.75-8.515Zm0 0"/><path fill="#1f1533" d="m252.133 252.36 14.66 7.652-27.211 9.57Zm0 0"/><path fill="#f2f2f3" d="m252.133 252.36-4.301-13.489 11.281-4.45Zm0 0"/><path fill="#1f1533" d="m236.148 244.363 15.985 7.996-12.551 17.223Zm0 0"/><path fill="#1f1533" d="m252.133 252.36-15.985-7.997 11.684-5.492ZM266.297 247.031l-14.164 5.328 6.98-17.937Zm0 0"/><path fill="#1f1835" d="m252.133 252.36 14.164-5.329.496 12.98Zm0 0"/><path fill="#312742" d="M28.05-.043 11.689 25.398.02.008Zm0 0"/><path fill="#f8f7f8" d="M11.688 25.398 0 25.254.02.008Zm0 0"/><path fill="#fefefe" d="m-.012 61.688 39.344-30.653-14.203 36.95ZM39.332 31.035-.012 61.688l11.7-36.29Zm0 0"/><path fill="#1f1533" d="m118.348 152.605 5.699 21.66-11.89-1.324Zm0 0"/><path fill="#fcfcfc" d="m136.543 134.195-11.797-17.246 23-5.265Zm0 0"/><path fill="#201533" d="m124.047 174.266 15.527 11.28-13.433 4.821Zm0 0"/><path fill="#524960" d="m139.574 185.547-7.957 14.172-5.476-9.352Zm0 0"/><path fill="#201533" d="m167.535 185.89-.203-13.218 9.602 10.34ZM176.934 183.012l13.234-8.168-3.39 19.004Zm0 0"/><path fill="#201533" d="m167.332 172.672 22.836 2.172-13.234 8.168Zm0 0"/><path fill="#fefefe" d="m193.613 174.281-3.445.563 1.266-10.469Zm0 0"/><path fill="#fefefe" d="m190.168 174.844-13.793-12.34 15.059 1.871Zm0 0"/><path fill="#201533" d="m176.375 162.504 13.793 12.34-22.836-2.172Zm0 0"/><path fill="#f7f6f7" d="m249.031 188.703-14.562-14.789 13.832.031Zm0 0"/><path fill="#201533" d="m248.3 173.945-13.831-.03 9.476-7.493Zm0 0"/><path fill="#201533" d="m234.469 173.914 2.297-17.172 7.18 9.68ZM248.3 173.945l10.095-16.03 1.804 17.741Zm0 0"/><path fill="#201533" d="M258.395 157.914 248.3 173.945l-4.356-7.523Zm0 0"/><path fill="#fcfcfc" d="m298.691 115.441 13.957-52.011 27.332 53.43Zm0 0"/><path fill="#fefefe" d="m244.273 130.52 17.72-23.61-3.204 25.27ZM233.453 112.664l28.54-5.754-17.72 23.61Zm0 0"/><path fill="#fefefe" d="m258.79 132.18 3.202-25.27 36.7 8.531Zm0 0"/><path fill="#fdfdfe" d="m298.691 115.441-36.699-8.53 50.656-43.481Zm0 0"/><path fill="#96919f" d="m75.012-.004-24.653 76.23-11.027-45.19Zm0 0"/><path fill="#b3b0ba" d="m75.012-.004 25.406 42.352-50.059 33.879Zm0 0"/><path fill="#ada9b4" d="m100.418 42.348 49.71 16.035-21.253 23.66Zm0 0"/><path fill="#d6d4da" d="m150.129 58.383 24.074 37.387-45.328-13.727Zm0 0"/><path fill="#fefefe" d="m174.203 95.77 29.992 12.214-22.754 9.907Zm0 0"/><path fill="#c6c3ca" d="m174.203 95.77-15.238 21.359-11.219-5.445Zm0 0"/><path fill="#fdfdfd" d="m158.965 117.129 15.238-21.36 7.238 22.122Zm0 0"/><path fill="#fefefe" d="m204.195 107.984-6.55 23.27-16.204-13.363ZM197.645 131.254l6.55-23.27 18.555 22.004Zm0 0"/><path fill="#fcfbfc" d="m124.746 116.95 4.129-34.907 18.871 29.64Zm0 0"/><path fill="#d9d8dd" d="m128.875 82.043 45.328 13.727-26.457 15.914Zm0 0"/><path fill="#0ce5f1" d="m98.293 157.57.508-12.425 19.547 7.46ZM98.8 145.145l-.718-2.239 27.559-5.469Zm0 0"/><path fill="#f9fefe" d="m.016 284.805 41.312 50.632L0 384.017Zm0 0"/><path fill="#f7f6f7" d="m20.75 150.043 31.871-4.41-9.16 16.73Zm0 0"/><path fill="#fdfefe" d="m48.895 210.965 24.199-17.063 1.297 31.258Zm0 0"/><path fill="#0cddea" d="M48.895 210.965 74.39 225.16l-36.094 13.586Zm0 0"/><path fill="#27b1c1" d="m73.094 193.902-24.2 17.063 2.387-20.031Zm0 0"/><path fill="#221836" d="m73.094 193.902 8.972-15.168 12.399 13.418Zm0 0"/><path fill="#0ce3ef" d="m101.29 202.504 14.546-12.36-6.918 20.735Zm0 0"/><path fill="#6f687b" d="m139.77 214.754-8.153-15.035 9.965-1.5Zm0 0"/><path fill="#2b203d" d="m13.063 90.074 18.273 37.696-31.36-28.922Zm0 0"/><path fill="#f8f8f8" d="m-.012 61.688 13.075 28.386-13.086 8.774Zm0 0"/><path fill="#fefefe" d="M13.063 90.074-.012 61.688l25.14 6.296ZM-.016 138.484l31.352-10.714-10.586 22.273Zm0 0"/><path fill="#201533" d="m31.336 127.77 21.285 17.863-31.871 4.41Zm0 0"/><path fill="#5c546a" d="m-.016 138.484-.007-39.636 31.359 28.922Zm0 0"/><path fill="#fafafa" d="M35.941 97.082 50.36 76.227l12.137 29.746Zm0 0"/><path fill="#1f1533" d="m191.246 317.36-14.945.097 8.676-12.125Zm0 0"/><path fill="#0ce5f1" d="m112.754 325.25 25.125 7.719-45.297 19.71Zm0 0"/><path fill="#f8f8f9" d="m384 136.371-44.02-19.512 44.012-44.171Zm0 0"/><path fill="#fefefe" d="m369.078 198.348 14.926.488-19.363 24.492Zm0 0"/><path fill="#fefefe" d="m369.078 198.348-.66-25.512 15.586 26ZM270.305 169.754l.52 6.324-10.626-.422Zm0 0"/><path fill="#201533" d="m258.395 157.914 11.91 11.84-10.106 5.902ZM328.543 158.266l-4.68-13.868 19.711 7.575ZM328.543 158.266l7.074 11.64-11.992-2.902Zm0 0"/><path fill="#fcfcfc" d="M312.648 63.43 252.934.047 315.133 0Zm0 0"/><path fill="#201533" d="m231.965 212.895-6.352 16.421-9.707-19.175ZM225.613 229.316l16.38-6.453-5.845 21.5ZM241.992 222.863l-16.379 6.453 6.352-16.421Zm0 0"/><path fill="#fbfbfb" d="m199.844 210.707-15.727 2.715 2.66-19.574Zm0 0"/><path fill="#fdfdfd" d="m231.965 212.895-6.992-10.622 15.777 3.133Zm0 0"/><path fill="#201533" d="m224.973 202.273 6.992 10.622-16.059-2.754Zm0 0"/><path fill="#fefefe" d="m209.77 167.957 17.722 19.309-16.586 2.175Zm0 0"/><path fill="#fefefe" d="m227.492 187.266-11.445 8.441-5.14-6.266Zm0 0"/><path fill="#dedde1" d="m263.152 206.5 7.442-20.25 12.722 11.664Zm0 0"/><path fill="#fefefe" d="m279.86 174.453-9.266 11.797.23-10.172Zm0 0"/><path fill="#201533" d="m155.457 323.957-9.125-9.824 9.488-5.504Zm0 0"/><path fill="#1f1533" d="m155.457 323.957-17.578 9.012-5.89-12.594Zm0 0"/><path fill="#201533" d="m146.332 314.133 9.125 9.824-23.469-3.582Zm0 0"/><path fill="#0ce5f1" d="m226.121 345.742-61.832-9.59 26.957-18.793Zm0 0"/><path fill="#0ce5f1" d="m164.29 336.152 12.01-18.695 14.946-.098Zm0 0"/><path fill="#1ce4f0" d="m328.605 234.281-5.625-.742 3.149-5.7Zm0 0"/><path fill="#0ce2ee" d="m323.688 254.785 31.511-.094-18.234 30.094Zm0 0"/><path fill="#0ce5f1" d="m323.688 254.785 4.917-20.504 26.594 20.41ZM323.688 254.785l-.708-21.246 5.625.742Zm0 0"/><path fill="#fefefe" d="m267.496 220.762 7.426 15.172-15.809-1.512Zm0 0"/><path fill="#1f1533" d="m274.922 235.934-8.625 11.097-7.184-12.61Zm0 0"/><path fill="#fefefe" d="m300.695 181.14-5.324-13.476 17.969 4.102Zm0 0"/><path fill="#c1bec6" d="m299.29 212.488-15.974-14.574 13.254-4.773Zm0 0"/><path fill="#f4f3f5" d="m39.332 31.035-27.644-5.637L28.05-.043Zm0 0"/><path fill="#1f1533" d="M135.152 163.238 149.906 167l-10.332 18.547ZM149.906 167l-14.754-3.762 8.891-13.953ZM118.348 152.605l16.804 10.633-11.105 11.028Zm0 0"/><path fill="#201533" d="m135.152 163.238 4.422 22.309-15.527-11.281Zm0 0"/><path fill="#fefefe" d="m136.543 134.195-10.902 3.243-.895-20.489Zm0 0"/><path fill="#1f1533" d="m139.574 185.547 15.281 1.656-13.273 11.016Zm0 0"/><path fill="#201533" d="m167.578 195.867 3.137 14.086-15.856-4.926ZM167.578 195.867l-12.723-8.664 12.68-1.312Zm0 0"/><path fill="#746d80" d="m176.258 195.188-8.68.68-.043-9.977Zm0 0"/><path fill="#908a99" d="m170.715 209.953-3.137-14.086 8.68-.68Zm0 0"/><path fill="#201533" d="m210.844 153.363 14.34-12.508 11.582 15.887ZM244.156 142.637l-18.972-1.782 8.992-9.699ZM225.184 140.855l18.972 1.782-7.39 14.105Zm0 0"/><path fill="#fefefe" d="m209.77 167.957-16.157 6.324-2.18-9.906ZM193.613 174.281l16.157-6.324 1.136 21.484ZM249.031 188.703l-.73-14.758 11.898 1.711Zm0 0"/><path fill="#e8e7ea" d="m135.215-.012 52.629.024-37.715 58.37Zm0 0"/><path fill="#f8f7f8" d="m187.844.012 27.781 40.937-65.496 17.434Zm0 0"/><path fill="#eeeef0" d="m135.215-.012-34.797 42.36L75.012-.004Zm0 0"/><path fill="#e9e8eb" d="m100.418 42.348 34.797-42.36 14.914 58.395Zm0 0"/><path fill="#201533" d="m150.668 137.082-14.125-2.887 11.203-22.511Zm0 0"/><path fill="#201533" d="m158.965 117.129-8.297 19.953-2.922-25.398ZM176.375 162.504l8.645-12.984 6.414 14.855Zm0 0"/><path fill="#1f1533" d="m225.184 140.855-27.54-9.601 25.106-1.266Zm0 0"/><path fill="#9c97a5" d="M93.266 124.07 50.359 76.227l46.028 29.554Zm0 0"/><path fill="#fbfbfc" d="m50.36 76.227 42.906 47.843-30.77-18.097Zm0 0"/><path fill="#0ce5f1" d="m98.082 142.906-4.816-18.836 32.375 13.368Zm0 0"/><path fill="#fefefe" d="M125.64 137.438 93.267 124.07l31.48-7.12ZM93.266 124.07l35.609-42.027-4.129 34.906Zm0 0"/><path fill="#f2f1f3" d="m128.875 82.043-35.61 42.027 3.122-18.289Zm0 0"/><path fill="#f6f5f7" d="m98.082 142.906-25.066 1.856 20.25-20.692Zm0 0"/><path fill="#4d5168" d="m73.016 144.762 25.066-1.856.719 2.239Zm0 0"/><path fill="#fbfbfb" d="m98.293 157.57-25.277-12.808 25.785.383Zm0 0"/><path fill="#f8f7f8" d="m62.496 105.973-9.875 39.66-21.285-17.863Zm0 0"/><path fill="#201d3a" d="m48.895 210.965-10.598 27.781-6.863-25.219Zm0 0"/><path fill="#211936" d="m27.758 194.156 21.137 16.809-17.461 2.562Zm0 0"/><path fill="#f5f4f6" d="m48.895 210.965-21.137-16.809 23.523-3.222Zm0 0"/><path fill="#fbfbfb" d="m61.723 178.766 11.37 15.136-21.812-2.968Zm0 0"/><path fill="#f8f8f9" d="m61.723 178.766 20.343-.032-8.972 15.168Zm0 0"/><path fill="#201533" d="m115.852 215.871-4.747 36.582-14.203 7.356Zm0 0"/><path fill="#291e3b" d="m111.105 252.453 4.747-36.582 11.52 3.793Zm0 0"/><path fill="#201533" d="m176.3 317.457-11.402-15.219 20.079 3.094Zm0 0"/><path fill="#342a45" d="m123.5 195.48-7.664-5.335 10.305.222Zm0 0"/><path fill="#3a304b" d="m131.617 199.719-8.117-4.239 2.64-5.113Zm0 0"/><path fill="#201533" d="m115.836 190.145 8.21-15.88 2.095 16.102Zm0 0"/><path fill="#1f1533" d="m124.047 174.266-8.211 15.879-3.68-17.204Zm0 0"/><path fill="#1f1937" d="m112.156 172.941 3.68 17.204-21.371 2.007Zm0 0"/><path fill="#0ce5f1" d="m115.836 190.145-14.547 12.359-6.824-10.352Zm0 0"/><path fill="#201533" d="m154.855 187.203.004 17.824-13.277-6.808Zm0 0"/><path fill="#1f1634" d="m154.86 205.027-15.09 9.727 1.812-16.535Zm0 0"/><path fill="#201533" d="m167.578 195.867-12.719 9.16-.004-17.824ZM35.941 97.082l-4.605 30.688-18.273-37.696Zm0 0"/><path fill="#534a62" d="M35.941 97.082 25.13 67.984l25.23 8.243Zm0 0"/><path fill="#5d556b" d="m35.941 97.082-22.879-7.008 12.067-22.09Zm0 0"/><path fill="#2a1f3c" d="m35.941 97.082 26.555 8.89-31.16 21.798Zm0 0"/><path fill="#0ce5f1" d="m96.676 304.719 6.023.597-5.293 18.215ZM102.7 305.316l-6.024-.597 5.937-12.856Zm0 0"/><path fill="#fbfbfc" d="m117.727 292.738-4.082-15.683 18.582 10.027Zm0 0"/><path fill="#f6f6f7" d="m121.758 301.473-4.031-8.735 14.5-5.656Zm0 0"/><path fill="#1f1533" d="m102.7 305.316 15.027-12.578 4.03 8.735Zm0 0"/><path fill="#201533" d="m113.645 277.055 4.082 15.683-15.114-.875Zm0 0"/><path fill="#1f1533" d="m117.727 292.738-15.028 12.578-.086-13.453Zm0 0"/><path fill="#0ce5f1" d="m131.988 320.375 5.89 12.594-25.124-7.719Zm0 0"/><path fill="#fefefe" d="M348.656 143.523 384 136.371l-17.965 14.305ZM348.656 143.523l19.762 29.313-24.844-20.863Zm0 0"/><path fill="#fefefe" d="m368.418 172.836-19.762-29.313 17.38 7.153ZM323.863 144.398l24.793-.875-5.082 8.45ZM384 136.371l-35.344 7.152-8.676-26.664Zm0 0"/><path fill="#fefefe" d="m348.656 143.523-24.793.875 16.117-27.539Zm0 0"/><path fill="#201533" d="m368.418 172.836-20.09-4.711-4.754-16.152ZM331.625 211.367l21.133-.941-20.403 15.34Zm0 0"/><path fill="#fefefe" d="m332.355 225.766 20.403-15.34 11.883 12.902Zm0 0"/><path fill="#fefefe" d="m352.758 210.426 16.32-12.078-4.437 24.98Zm0 0"/><path fill="#201533" d="m316.105 155.824 12.438 2.442-4.918 8.738ZM328.543 158.266l-12.438-2.442 7.758-11.426Zm0 0"/><path fill="#fefefe" d="m286.25 136.375-27.46-4.195 39.901-16.739Zm0 0"/><path fill="#fefefe" d="m306.652 139.285-20.402-2.91 12.441-20.934Zm0 0"/><path fill="#201533" d="m258.79 132.18 16.683 14.132-16.57-1.949Zm0 0"/><path fill="#201533" d="m286.25 136.375-10.777 9.938-16.684-14.133Zm0 0"/><path fill="#fdfdfd" d="m275.473 146.313 10.777-9.938 1.973 16.746Zm0 0"/><path fill="#fefefe" d="m270.305 169.754 9.554 4.7-9.035 1.624Zm0 0"/><path fill="#fbfbfb" d="M312.648 63.43 315.133 0l68.87.012Zm0 0"/><path fill="#fefefe" d="m383.992 72.688-71.344-9.258L384.004.012ZM215.043 257.855l10.582 12.723-11.36 2.238Zm0 0"/><path fill="#fdfcfd" d="m215.043 257.855-21.898-.117 11.324-11.687Zm0 0"/><path fill="#201533" d="m205.934 294.238 3.996-6.527 10.988 3.285Zm0 0"/><path fill="#fefefe" d="m209.93 287.71-16.243-7.823 20.579-7.07Zm0 0"/><path fill="#201533" d="m209.93 287.71-3.996 6.528-12.246-14.351Zm0 0"/><path fill="#1f1533" d="m225.625 270.578-4.707 20.418-6.652-18.18Zm0 0"/><path fill="#211634" d="m220.918 290.996-10.988-3.285 4.336-14.895Zm0 0"/><path fill="#fefefe" d="m205.84 196.676-5.996 14.031-13.067-16.86Zm0 0"/><path fill="#201533" d="m216.047 195.707-10.207.969 5.066-7.235Zm0 0"/><path fill="#201533" d="m205.84 196.676-12.227-22.395 17.293 15.16Zm0 0"/><path fill="#f5f4f6" d="m190.168 174.844 15.672 21.832-19.063-2.828Zm0 0"/><path fill="#201533" d="m205.84 196.676-15.672-21.832 3.445-.563Zm0 0"/><path fill="#fefefe" d="m227.492 187.266 21.54 1.437-8.282 16.703Zm0 0"/><path fill="#201533" d="m234.469 173.914-23.625-20.55 25.922 3.378Zm0 0"/><path fill="#fefefe" d="m227.492 187.266 6.977-13.352 14.562 14.79Zm0 0"/><path fill="#201533" d="m210.844 153.363 23.625 20.551-24.7-5.957Zm0 0"/><path fill="#fefefe" d="m234.469 173.914-6.977 13.352-17.722-19.309ZM263.152 206.5l4.344 14.262-25.504 2.101Zm0 0"/><path fill="#fefefe" d="m263.152 206.5-21.16 16.363-1.242-17.457Zm0 0"/><path fill="#1f1634" d="m274.922 235.934 4.36-18.196 16.382 8.73Zm0 0"/><path fill="#d6d4da" d="m279.281 217.738-4.36 18.196-7.425-15.172Zm0 0"/><path fill="#201533" d="m146.332 314.133-6.687-9.82 16.175 4.316Zm0 0"/><path fill="#0ce4f0" d="m169.863 384 56.258-38.258 39.012 38.278Zm0 0"/><path fill="#0ce5f1" d="m155.457 323.957 8.832 12.195-26.41-3.183Zm0 0"/><path fill="#201533" d="m205.934 294.238-16.801-.855 4.554-13.496ZM213.852 306.52l-7.918-12.282 14.984-3.242Zm0 0"/><path fill="#0ce5f1" d="m213.852 306.52 12.27 39.222-34.876-28.383Zm0 0"/><path fill="#0ce5f1" d="m226.121 345.742-12.27-39.222 39.07-2.02Zm0 0"/><path fill="#0ce5f1" d="m213.852 306.52 7.066-15.524 32.004 13.504Zm0 0"/><path fill="#0ce4f0" d="m296.762 276.973 26.926-22.188 13.277 30Zm0 0"/><path fill="#fefefe" d="m287.367 183.352 13.328-2.211-4.125 12Zm0 0"/><path fill="#fefefe" d="m287.367 183.352 9.203 9.789-13.254 4.773ZM287.367 183.352l-7.508-8.899 15.512-6.789Zm0 0"/><path fill="#fefefe" d="m300.695 181.14-13.328 2.212 8.004-15.688ZM270.594 186.25l16.773-2.898-4.05 14.562Zm0 0"/><path fill="#fefefe" d="m287.367 183.352-16.773 2.898 9.265-11.797ZM300.695 181.14l8.403 7.805-12.528 4.196Zm0 0"/><path fill="#b7b3bd" d="m309.098 188.945-9.809 23.543-2.719-19.347Zm0 0"/><path fill="#201533" d="m316.953 210.492 14.672.875-5.496 16.473Zm0 0"/><path fill="#1f1533" d="m309.098 188.945 7.855 21.547-17.664 1.996Zm0 0"/><path fill="#1f1836" d="m98.8 145.145 26.84-7.708-7.292 15.168Zm0 0"/><path fill="#1f1533" d="m154.855 187.203-15.28-1.656L149.905 167Zm0 0"/><path fill="#201533" d="m167.332 172.672-12.477 14.531L149.906 167ZM154.855 187.203l12.477-14.531.203 13.219Zm0 0"/><path fill="#d8d6dc" d="M174.203 95.77 150.13 58.383l65.496-17.434Zm0 0"/><path fill="#1f1533" d="m136.543 134.195 14.125 2.887-6.625 12.203Zm0 0"/><path fill="#201533" d="m159.445 151.855 25.575-2.335-8.645 12.984Zm0 0"/><path fill="#fefefe" d="m160.875 138.129-1.91-21 22.476.762Zm0 0"/><path fill="#1f1533" d="m160.875 138.129-10.207-1.047 8.297-19.953ZM160.875 138.129l-1.43 13.726-8.777-14.773Zm0 0"/><path fill="#fefefe" d="m197.645 131.254-36.77 6.875 20.566-20.238Zm0 0"/><path fill="#201533" d="m185.02 149.52-24.145-11.391 36.77-6.875Zm0 0"/><path fill="#201533" d="m159.445 151.855 1.43-13.726 24.145 11.39Zm0 0"/><path fill="#1f1533" d="m210.844 153.363-25.824-3.843 12.625-18.266Zm0 0"/><path fill="#201533" d="m225.184 140.855-14.34 12.508-13.2-22.11Zm0 0"/><path fill="#1f1533" d="m185.02 149.52 25.824 3.843-19.41 11.012Zm0 0"/><path fill="#1f1533" d="m210.844 153.363-1.074 14.594-18.336-3.582Zm0 0"/><path fill="#fefefe" d="m73.016 144.762 25.277 12.808-16.227 21.164Zm0 0"/><path fill="#0ce5f1" d="m61.723 178.766 11.293-34.004 9.05 33.972Zm0 0"/><path fill="#fefefe" d="m52.621 145.633 16.918-9.746 3.477 8.875Zm0 0"/><path fill="#fefefe" d="m62.496 105.973 7.043 29.914-16.918 9.746ZM73.016 144.762l-3.477-8.875 23.727-11.817Zm0 0"/><path fill="#fefefe" d="m69.54 135.887-7.044-29.914 30.77 18.097Zm0 0"/><path fill="#281d3a" d="m48.191 184.547-20.433 9.61 15.703-31.794Zm0 0"/><path fill="#fcfcfc" d="m27.758 194.156 20.433-9.61 3.09 6.388Zm0 0"/><path fill="#fdfdfd" d="m48.191 184.547 13.532-5.781-10.442 12.168Zm0 0"/><path fill="#201533" d="m164.898 302.238 11.403 15.219-20.48-8.828ZM176.3 317.457l-20.843 6.5.363-15.328ZM176.3 317.457l-12.01 18.695-8.833-12.195Zm0 0"/><path fill="#b3b0ba" d="m174.703 227.398-3.988-17.445 13.402 3.469Zm0 0"/><path fill="#fafafa" d="m139.77 214.754-12.399 4.91 4.246-19.945Zm0 0"/><path fill="#201533" d="m123.5 195.48-3.184 9.786-4.48-15.121Zm0 0"/><path fill="#1f1634" d="m115.836 190.145 4.48 15.12-11.398 5.614Zm0 0"/><path fill="#60596e" d="m120.316 205.266-4.464 10.605-6.934-4.992Zm0 0"/><path fill="#392f4a" d="m120.316 205.266 3.184-9.786 8.117 4.239Zm0 0"/><path fill="#f6f5f6" d="m127.371 219.664-7.055-14.398 11.301-5.547Zm0 0"/><path fill="#dfdee2" d="m120.316 205.266 7.055 14.398-11.52-3.793Zm0 0"/><path fill="#201533" d="m112.914 315.027 19.074 5.348-19.234 4.875Zm0 0"/><path fill="#1f1533" d="m131.988 320.375-19.074-5.348 8.844-13.554Zm0 0"/><path fill="#1f1533" d="m112.914 315.027-10.215-9.71 19.059-3.844ZM112.914 315.027l-.16 10.223-15.348-1.719Zm0 0"/><path fill="#1f1533" d="m102.7 305.316 10.214 9.711-15.508 8.504ZM335.617 169.906l-7.074-11.64 15.031-6.293Zm0 0"/><path fill="#8a8494" d="m348.328 168.125-12.71 1.781 7.956-17.933Zm0 0"/><path fill="#fefefe" d="m335.617 169.906 14.88 13.668-14.032 1.266Zm0 0"/><path fill="#fdfdfd" d="m350.496 183.574-14.879-13.668 12.711-1.781Zm0 0"/><path fill="#201533" d="m350.496 183.574-2.168-15.449 20.09 4.71ZM316.105 155.824l-9.453-16.539 17.211 5.113Zm0 0"/><path fill="#fefefe" d="m280.418 160.785-4.945-14.472 12.75 6.808ZM280.418 160.785l-.559 13.668-9.554-4.7ZM295.371 167.664l-14.953-6.879 7.805-7.664ZM280.418 160.785l14.953 6.88-15.512 6.788Zm0 0"/><path fill="#e8e7ea" d="m190.355 231.266 18.637-.297-4.523 15.082Zm0 0"/><path fill="#d1cfd5" d="m193.145 257.738-2.79-26.472 14.114 14.785Zm0 0"/><path fill="#0ce5f1" d="m234.02 286.055 5.562-16.473 13.34 34.918Zm0 0"/><path fill="#0ce5f1" d="m220.918 290.996 13.102-4.941 18.902 18.445Zm0 0"/><path fill="#1f1533" d="m239.582 269.582-5.562 16.473-8.395-15.477Zm0 0"/><path fill="#1f1533" d="m234.02 286.055-13.102 4.941 4.707-20.418Zm0 0"/><path fill="#fefefe" d="m193.145 257.738 21.898.117-.777 14.961ZM193.688 279.887l-.543-22.149 21.12 15.078ZM178.004 273.574l15.14-15.836.543 22.149ZM220.719 243.34l-5.676 14.515-10.574-11.804Zm0 0"/><path fill="#fefdfe" d="m208.992 230.969 11.727 12.37-16.25 2.712Zm0 0"/><path fill="#fefefe" d="m220.719 243.34 4.894-14.024 10.535 15.047Zm0 0"/><path fill="#f4f3f5" d="m220.719 243.34-11.727-12.371 16.621-1.653Zm0 0"/><path fill="#201533" d="m228.004 255.2 11.578 14.382-13.957.996Zm0 0"/><path fill="#fefefe" d="m215.043 257.855 12.96-2.656-2.378 15.38Zm0 0"/><path fill="#1f1533" d="m239.582 269.582-11.578-14.383 8.144-10.836Zm0 0"/><path fill="#e7e6e9" d="m228.004 255.2-7.285-11.86 15.43 1.023Zm0 0"/><path fill="#fdfdfe" d="m220.719 243.34 7.285 11.86-12.961 2.655Zm0 0"/><path fill="#201533" d="m215.906 210.14.14-14.433 8.927 6.566Zm0 0"/><path fill="#fefefe" d="m216.047 195.707 11.445-8.441-2.52 15.007Zm0 0"/><path fill="#201533" d="m215.906 210.14-7.851 10.602-8.211-10.035ZM225.613 229.316l-17.558-8.574 7.851-10.601Zm0 0"/><path fill="#1f1533" d="m208.992 230.969-.937-10.227 17.558 8.574Zm0 0"/><path fill="#201533" d="m205.84 196.676 10.066 13.465-16.062.566ZM205.84 196.676l10.207-.969-.14 14.434Zm0 0"/><path fill="#fefefe" d="m227.492 187.266 13.258 18.14-15.777-3.133Zm0 0"/><path fill="#201533" d="m139.645 304.313-17.887-2.84 10.469-14.391Zm0 0"/><path fill="#fdfdfd" d="m140.441 284.68-.796 19.632-7.418-17.23Zm0 0"/><path fill="#201533" d="m139.645 304.313-7.657 16.062-10.23-18.902ZM131.988 320.375l7.657-16.062 6.687 9.82Zm0 0"/><path fill="#fefefe" d="m131.469 268.996 8.972 15.684-8.214 2.402Zm0 0"/><path fill="#1ae6f1" d="m198.582 303.79 15.27 2.73-22.606 10.84Zm0 0"/><path fill="#1f1533" d="m213.852 306.52-15.27-2.73 7.352-9.552Zm0 0"/><path fill="#201533" d="m198.582 303.79-7.336 13.57-6.27-12.028Zm0 0"/><path fill="#201533" d="m189.133 293.383 9.449 10.406-13.605 1.543Zm0 0"/><path fill="#201533" d="m198.582 303.79-9.45-10.407 16.802.855Zm0 0"/><path fill="#1f1533" d="m316.055 227.402-12.38 13.848-8.01-14.781Zm0 0"/><path fill="#0ce5f1" d="m303.676 241.25 12.379-13.848 6.925 6.137ZM323.688 254.785l-20.012-13.535 19.304-7.71Zm0 0"/><path fill="#0ce5f1" d="m296.762 276.973 6.914-35.723 20.012 13.535Zm0 0"/><path fill="#f9f9fa" d="m279.281 217.738 20.008-5.25-3.625 13.98Zm0 0"/><path fill="#201533" d="m299.29 212.488 16.765 14.914-20.39-.933Zm0 0"/><path fill="#fefefe" d="m299.29 212.488-20.009 5.25 4.035-19.824Zm0 0"/><path fill="#201533" d="m316.953 210.492-.898 16.91-16.766-14.914Zm0 0"/><path fill="#1f1533" d="m316.055 227.402.898-16.91 9.176 17.348Zm0 0"/><path fill="#1e223e" d="m322.98 233.54-6.925-6.138 10.074.438Zm0 0"/><path fill="#1f1533" d="m284.219 249.504-9.297-13.57 20.742-9.465Zm0 0"/><path fill="#1f1533" d="m274.922 235.934 9.297 13.57-17.922-2.473Zm0 0"/><path fill="#1f1533" d="m303.676 241.25-19.457 8.254 11.445-23.035Zm0 0"/><path fill="#0ce4f1" d="m284.219 249.504 19.457-8.254-6.914 35.723Zm0 0"/><path fill="#1f1735" d="m266.297 247.031 17.922 2.473-17.426 10.508Zm0 0"/><path fill="#0ce4f0" d="m284.219 249.504 12.543 27.469-29.969-16.961Zm0 0"/><path fill="#fefefe" d="m313.34 171.766-4.242 17.18-8.403-7.805Zm0 0"/><path fill="#201533" d="m316.953 210.492 11.149-12.847 3.523 13.722Zm0 0"/><path fill="#f5f4f5" d="m328.102 197.645-11.149 12.847-7.855-21.547Zm0 0"/><path fill="#1f1533" d="m132.602 147.273 3.941-13.078 7.5 15.09Zm0 0"/><path fill="#201533" d="m132.602 147.273-6.961-9.835 10.902-3.243Zm0 0"/><path fill="#1f1533" d="m135.152 163.238-2.55-15.965 11.441 2.012Zm0 0"/><path fill="#1f1533" d="m132.602 147.273 2.55 15.965-16.804-10.633ZM125.64 137.438l6.962 9.835-14.254 5.332Zm0 0"/><path fill="#7d7788" d="m131.617 199.719 7.957-14.172 2.008 12.672Zm0 0"/><path fill="#fefefe" d="m270.594 186.25-21.563 2.453 11.168-13.047ZM270.594 186.25l-7.442 20.25-14.12-17.797Zm0 0"/><path fill="#fefefe" d="m270.824 176.078-.23 10.172-10.395-10.594Zm0 0"/><path fill="#dfdde1" d="m240.75 205.406 8.281-16.703 14.121 17.797Zm0 0"/><path fill="#201533" d="m159.445 151.855 7.887 20.817L149.906 167Zm0 0"/><path fill="#0ce5f1" d="m52.621 145.633 9.102 33.133-18.262-16.403Zm0 0"/><path fill="#201533" d="m61.723 178.766-13.532 5.78-4.73-22.183Zm0 0"/><path fill="#0ce5f1" d="m73.016 144.762-11.293 34.004-9.102-33.133Zm0 0"/><path fill="#fdfdfd" d="m166.707 283.023-7.977-21.21 19.274 11.761Zm0 0"/><path fill="#201533" d="m139.645 304.313 14.546-9.657 1.63 13.973Zm0 0"/><path fill="#fefefe" d="m154.191 294.656-14.546 9.656.796-19.632Zm0 0"/><path fill="#201533" d="m154.191 294.656 10.707 7.582-9.078 6.39Zm0 0"/><path fill="#fefefe" d="m154.191 294.656 12.516-11.633-1.809 19.215Zm0 0"/><path fill="#fefefe" d="m166.707 283.023 12.45 7.442-14.259 11.773Zm0 0"/><path fill="#201533" d="m164.898 302.238 14.258-11.773 5.82 14.867Zm0 0"/><path fill="#fefefe" d="m179.156 290.465 9.977 2.918-4.156 11.949Zm0 0"/><path fill="#fefefe" d="m189.133 293.383-9.977-2.918 14.531-10.578Zm0 0"/><path fill="#d9d7dc" d="m139.79 228.117-6.032 23.778-6.387-32.23Zm0 0"/><path fill="#d3d1d7" d="m133.758 251.895-22.653.558 16.266-32.789Zm0 0"/><path fill="#1f1533" d="m352.758 210.426 4.324-16.883 11.996 4.805Zm0 0"/><path fill="#201533" d="m369.078 198.348-11.996-4.805 11.336-20.707Zm0 0"/><path fill="#201533" d="m357.082 193.543-6.586-9.969 17.922-10.738ZM303.297 156.102l12.808-.278-2.765 15.942Zm0 0"/><path fill="#fefefe" d="m303.297 156.102-7.926 11.562-7.148-14.543Zm0 0"/><path fill="#201533" d="m295.371 167.664 7.926-11.562 10.043 15.664Zm0 0"/><path fill="#f7f6f7" d="m286.25 136.375 17.047 19.727-15.074-2.98Zm0 0"/><path fill="#201533" d="m303.297 156.102-17.047-19.727 20.402 2.91ZM316.105 155.824l-12.808.278 3.355-16.817ZM316.105 155.824l7.52 11.18-10.285 4.762ZM275.473 146.313l-17.078 11.601.507-13.55Zm0 0"/><path fill="#201533" d="m280.418 160.785-22.023-2.87 17.078-11.602Zm0 0"/><path fill="#201533" d="m258.395 157.914 22.023 2.871-10.113 8.969Zm0 0"/><path fill="#fefefe" d="m199.844 210.707-5.074 9.445-10.653-6.73Zm0 0"/><path fill="#bdbac3" d="m263.152 206.5 16.13 11.238-11.786 3.024Zm0 0"/><path fill="#e9e8eb" d="M279.281 217.738 263.152 206.5l20.164-8.586Zm0 0"/><path fill="#f8f7f8" d="m133.758 251.895-2.29 17.101-20.363-16.543Zm0 0"/><path fill="#edecee" d="m113.645 277.055 17.824-8.059.758 18.086Zm0 0"/><path fill="#fefefe" d="m111.105 252.453 20.364 16.543-17.824 8.059ZM328.102 197.645l-2.77-18.75 11.133 5.945Zm0 0"/><path fill="#211634" d="m325.332 178.895 10.285-8.989.848 14.934ZM313.34 171.766l11.992 7.129-16.234 10.05Zm0 0"/><path fill="#201533" d="m325.332 178.895 2.77 18.75-19.004-8.7ZM335.617 169.906l-10.285 8.989-1.707-11.891Zm0 0"/><path fill="#201533" d="m325.332 178.895-11.992-7.13 10.285-4.761Zm0 0"/><path fill="#1f1533" d="m159.445 151.855-15.402-2.57 6.625-12.203ZM144.043 149.285l15.402 2.57L149.906 167Zm0 0"/><path fill="#fcfcfd" d="m150.355 269.957-18.886-.96 2.289-17.102Zm0 0"/><path fill="#fefefe" d="m178.004 273.574 1.152 16.89-12.449-7.44Zm0 0"/><path fill="#fefefe" d="m179.156 290.465-1.152-16.89 15.684 6.312Zm0 0"/><path fill="#dedce1" d="m139.79 228.117 6.315 21.692-12.347 2.086Zm0 0"/><path fill="#e4e2e6" d="m139.77 214.754.02 13.363-12.419-8.453Zm0 0"/><path fill="#fdfdfd" d="m181.637 239.305 8.718-8.04 2.79 26.473Zm0 0"/><path fill="#ccc9d0" d="m169.355 238.168 6.555 15.195-14.347-4.789Zm0 0"/><path fill="#1f1533" d="m342.7 198.215 10.058 12.21-21.133.942Zm0 0"/><path fill="#201533" d="m342.7 198.215 14.382-4.672-4.324 16.883Zm0 0"/><path fill="#1f1533" d="m328.102 197.645 14.597.57-11.074 13.152Zm0 0"/><path fill="#fdfcfd" d="m342.7 198.215-14.598-.57 8.363-12.805Zm0 0"/><path fill="#645c71" d="m350.496 183.574-7.797 14.64-6.234-13.374Zm0 0"/><path fill="#201533" d="m357.082 193.543-14.383 4.672 7.797-14.64ZM190.355 231.266l10.575-7.778 8.062 7.48Zm0 0"/><path fill="#a29daa" d="m200.93 223.488 7.125-2.746.937 10.227Zm0 0"/><path fill="#716a7d" d="m208.055 220.742-7.125 2.746-1.086-12.781Zm0 0"/><path fill="#fefefe" d="m200.93 223.488-6.16-3.336 5.074-9.445ZM131.469 268.996l18.886.961-9.914 14.723ZM150.355 269.957l3.836 24.7-13.75-9.977Zm0 0"/><path fill="#fbfbfc" d="m150.355 269.957 8.375-8.144 7.977 21.21Zm0 0"/><path fill="#fefefe" d="m154.191 294.656-3.836-24.699 16.352 13.066Zm0 0"/><path fill="#201533" d="m156.14 227.215-10.035 22.594-6.316-21.692Zm0 0"/><path fill="#201533" d="m139.77 214.754 16.37 12.46-16.35.903Zm0 0"/><path fill="#201533" d="m156.14 227.215-16.37-12.461 15.09-9.727Zm0 0"/><path fill="#201533" d="m170.715 209.953-14.574 17.262-1.282-22.188ZM174.703 227.398l-18.562-.183 14.574-17.262ZM169.355 238.168l-13.214-10.953 18.562.183ZM156.14 227.215l13.215 10.953-7.792 10.406Zm0 0"/><path fill="#201533" d="m146.105 249.809 10.036-22.594 5.422 21.36Zm0 0"/><path fill="#211634" d="m150.355 269.957-4.25-20.148 12.625 12.004Zm0 0"/><path fill="#f4f4f5" d="m146.105 249.809 4.25 20.148-16.597-18.062Zm0 0"/><path fill="#f8f7f8" d="m181.637 239.305-12.282-1.137 5.348-10.77Zm0 0"/><path fill="#f9f9f9" d="m181.637 239.305-5.727 14.058-6.555-15.195Zm0 0"/><path fill="#ceccd2" d="m190.355 231.266-15.652-3.868 9.414-13.976Zm0 0"/><path fill="#fdfdfd" d="m194.77 220.152-4.415 11.114-6.238-17.844Zm0 0"/><path fill="#f9f9fa" d="m190.355 231.266-8.718 8.039-6.934-11.907Zm0 0"/><path fill="#fefefe" d="m200.93 223.488-10.575 7.778 4.415-11.114Zm0 0"/><path fill="#eeedef" d="m158.73 261.813 17.18-8.45 2.094 20.211Zm0 0"/><path fill="#d4d2d8" d="m175.91 253.363-17.18 8.45 2.833-13.239Zm0 0"/><path fill="#201533" d="m158.73 261.813-12.625-12.004 15.458-1.235Zm0 0"/><path fill="#f5f5f6" d="m175.91 253.363 5.727-14.058 11.508 18.433Zm0 0"/><path fill="#fdfdfd" d="m178.004 273.574-2.094-20.21 17.235 4.374Zm0 0"/></svg>