<svg xmlns="http://www.w3.org/2000/svg" width="512" height="512" viewBox="0 0 384 384"><path fill="#fec400" d="m334.984 329.484-67.148 20.246 28.492-53.628ZM221.64 128.965l18.016-13.035-4.433 11.941Zm0 0"/><path fill="#fec300" d="m183.371 81.531 22.344-30.14 2.328 45.902Zm0 0"/><path fill="#fcc303" d="m205.715 51.39 14.52-13.32-12.192 59.223Zm0 0"/><path fill="#1b2b3a" d="m82.574 254.227-15.957 20.011-10.562-31.16Zm0 0"/><path fill="#0d203a" d="m111.965 170.867-24.211 20.996-6.434-12.37Zm0 0"/><path fill="#adaea6" d="m66.617 274.238-29.129-16.172 18.567-14.988Zm0 0"/><path fill="#fcc200" d="m173.332 384-49.414-.004 13.156-24.922Zm0 0"/><path fill="#fec300" d="m342.129 284.395-7.145 45.09-38.656-33.383Zm0 0"/><path fill="#f4f4f4" d="M100.14-.012 70.798 27.863 55.687.003Zm0 0"/><path fill="#081d3b" d="m239.488 146.406 14.352-17.066 2.086 18.066Zm0 0"/><path fill="#f9c310" d="M220.234 38.07 247.16 0l25.692 54.203Zm0 0"/><path fill="#fec400" d="m232.992 95.156 6.664 20.774-18.015 13.035ZM239.656 115.93l14.184 13.41-18.617-1.469Zm0 0"/><path fill="#fdc404" d="m220.234 38.07 12.758 57.086-24.949 2.137Zm0 0"/><path fill="#fcc409" d="m100.14-.012 64.395.016-37.945 50.723Zm0 0"/><path fill="#504e2b" d="m82.574 254.227 10.606 18.761-26.563 1.25Zm0 0"/><path fill="#f6be04" d="m93.18 272.988 4.328-14.883 2.137 9.606Zm0 0"/><path fill="#222e35" d="m97.508 258.105-4.328 14.883-10.606-18.761Zm0 0"/><path fill="#fec300" d="m97.508 258.105 1.879-12.566 20.535 5.707Zm0 0"/><path fill="#122339" d="m99.387 245.54-1.88 12.565-14.933-3.878Zm0 0"/><path fill="#c29b10" d="m91.832 162.45 20.133 8.417-30.645 8.625Zm0 0"/><path fill="#c69e11" d="m111.965 170.867-20.133-8.418 5.563-17.683Zm0 0"/><path fill="#fcc200" d="m-.016 220.27 13.477-17.028 19.77 21.422Zm0 0"/><path fill="#fcc303" d="M13.46 203.242-.015 220.27l.028-28.88Zm0 0"/><path fill="#585945" d="m37.488 258.066.32-24.253 18.247 9.265Zm0 0"/><path fill="#fcf8ed" d="m51.066 289.566-13.578-31.5 29.13 16.172Zm0 0"/><path fill="#f4d775" d="m95.063 384.008-32.16-.02 34.07-33.8Zm0 0"/><path fill="#fef8e5" d="m76.406 332.11-13.504 51.878-9.074-62.156Zm0 0"/><path fill="#fec400" d="m321.71 142.969-15.96-38.75 37.367 5.96Zm0 0"/><path fill="#fbc100" d="m243.621 225.293 21.957.621-2.16 14.348Zm0 0"/><path fill="#fec300" d="m99.645 267.71 14.238 5.997-20.703-.719Zm0 0"/><path fill="#fec300" d="m97.508 258.105 16.375 15.602-14.238-5.996Zm0 0"/><path fill="#e6cf7e" d="m189.695 221-7.355-20.082 14.23-1.277Zm0 0"/><path fill="#303832" d="m182.34 200.918.226-16.793 14.004 15.516Zm0 0"/><path fill="#323931" d="m182.566 184.125-.226 16.793-14.528-10.207Zm0 0"/><path fill="#fec300" d="M384 238.262v69.93l-41.871-23.797Zm0 0"/><path fill="#fec300" d="m384 308.191-49.016 21.293 7.145-45.09ZM384 238.262l-46.59 10.73 20.211-25.262Zm0 0"/><path fill="#fec300" d="m337.41 248.992 2.309-27.496 17.902 2.234ZM337.41 248.992l46.59-10.73-41.871 46.133Zm0 0"/><path fill="#fec301" d="M39.867 23.89 28.277.005h27.41Zm0 0"/><path fill="#f8f7f3" d="m70.797 27.863-30.93-3.972L55.687.004Zm0 0"/><path fill="#fec300" d="m13.832 34.809 8.203 36.054L0 53.125Zm0 0"/><path fill="#081d3b" d="m223.918 138.621-2.277-9.656 13.582-1.094ZM255.914 160.652l-16.426-14.246 16.438 1ZM239.488 146.406l16.426 14.246-19.02-2.78Zm0 0"/><path fill="#081d3b" d="m255.914 160.652-22.766 12.078 3.747-14.859Zm0 0"/><path fill="#fcc40a" d="m203.926 0-1.297 46.883L164.535.003Zm0 0"/><path fill="#fdc304" d="m305.75 104.219-32.898-50.016 59.472 5.992Zm0 0"/><path fill="#081d3b" d="m253.84 129.34-14.352 17.066-4.265-18.535Zm0 0"/><path fill="#fdc305" d="m272.852 54.203-39.86 40.953-12.758-57.086Zm0 0"/><path fill="#e7cc73" d="m78.016 61.258 48.574-10.531-23.711 41.25Zm0 0"/><path fill="#f6be04" d="m147.2 85.957 17.273 26.547-11.762-1.875Zm0 0"/><path fill="#e7b406" d="m164.473 112.504-17.274-26.547 36.172-4.426Zm0 0"/><path fill="#fec401" d="m208.043 97.293 24.95-2.137-11.352 33.809Zm0 0"/><path fill="#081d3b" d="m181.102 163.016 1.464 21.109-13.586-8.559Zm0 0"/><path fill="#fdfcf5" d="M37.488 258.066 0 279.546l.004-47.23Zm0 0"/><path fill="#f9f7f0" d="m83.992 306.828 14 13.79-21.586 11.491Zm0 0"/><path fill="#fefbf0" d="m83.992 306.828-7.586 25.281-22.578-10.277Zm0 0"/><path fill="#0c1f3b" d="m93.18 272.988-9.188 33.84-17.375-32.59Zm0 0"/><path fill="#eee3be" d="m83.992 306.828-32.926-17.262 15.551-15.328Zm0 0"/><path fill="#fef3d0" d="m51.066 289.566 32.926 17.262-30.164 15.004Zm0 0"/><path fill="#f8bf01" d="m13.46 203.242 14.032-6.469 5.738 27.891Zm0 0"/><path fill="#fec300" d="m27.492 196.773-14.031 6.47-.238-22.055Zm0 0"/><path fill="#091e3b" d="m27.492 196.773-14.27-15.585 20.946-9.211Zm0 0"/><path fill="#fec300" d="m99.387 245.54 10.922-7.392 9.613 13.098Zm0 0"/><path fill="#fdc300" d="m110.309 238.148-10.922 7.391 5.695-14.332Zm0 0"/><path fill="#f4bc02" d="m113.883 273.707-16.375-15.602 22.414-6.859Zm0 0"/><path fill="#091d3b" d="m108.18 203.523-2.188 12.313-18.238-23.973Zm0 0"/><path fill="#112339" d="m105.992 215.836 2.188-12.313 2.687 1.473Zm0 0"/><path fill="#102239" d="m99.387 245.54-19.5-23.993 25.195 9.66Zm0 0"/><path fill="#081d3b" d="m105.992 215.836-26.105 5.71 7.867-29.683Zm0 0"/><path fill="#10233b" d="m79.887 221.547 26.105-5.711-.91 15.371Zm0 0"/><path fill="#1e2c36" d="m79.887 221.547 19.5 23.992-16.813 8.688Zm0 0"/><path fill="#0d203a" d="m79.887 221.547 2.687 32.68-26.52-11.149Zm0 0"/><path fill="#fdc305" d="M22.035 70.863 17.09 90.645l-3.32-2.774Zm0 0"/><path fill="#3c402f" d="M13.46 203.242.013 191.391l13.21-10.203Zm0 0"/><path fill="#152638" d="M13.223 181.188.012 191.39l.015-49.153Zm0 0"/><path fill="#fec300" d="m19.809 149.934-6.586 31.254-13.196-38.95Zm0 0"/><path fill="#fcc200" d="m13.223 181.188 6.586-31.254 14.359 22.043Zm0 0"/><path fill="#0a1e3b" d="m27.969 235.934 9.52 22.132-37.485-25.75Zm0 0"/><path fill="#13253a" d="m27.969 235.934 9.84-2.121-.32 24.253Zm0 0"/><path fill="#081d3c" d="m-.016 220.27 27.985 15.664-27.965-3.618Zm0 0"/><path fill="#081d3c" d="M27.969 235.934-.016 220.27l33.246 4.394Zm0 0"/><path fill="#091d3b" d="m37.809 233.813-9.84 2.12 5.261-11.269Zm0 0"/><path fill="#f2c016" d="M51.066 289.566 32 293.602l5.488-35.536Zm0 0"/><path fill="#fef9e8" d="M32 293.602 0 279.547l37.488-21.48Zm0 0"/><path fill="#fed342" d="m32 293.602-9.934 22.187L0 279.547Zm0 0"/><path fill="#fdd54f" d="m32 293.602 19.066-4.036 2.762 32.266Zm0 0"/><path fill="#fec400" d="M22.066 315.79 32 293.601l21.828 28.23Zm0 0"/><path fill="#fbc100" d="m172.676 354.566.656 29.434-36.258-24.926Zm0 0"/><path fill="#fee799" d="m27.41 348.281-5.344-32.492 31.762 6.043Zm0 0"/><path fill="#fece2b" d="M27.41 348.281-.004 384v-60.727Zm0 0"/><path fill="#feca1f" d="m27.41 348.281 35.492 35.707L-.004 384Zm0 0"/><path fill="#fdd962" d="M62.902 383.988 27.41 348.281l26.418-26.449Zm0 0"/><path fill="#fdfcf7" d="m119.633 325.21-22.66 24.978 1.02-29.57Zm0 0"/><path fill="#fcfaf4" d="m97.992 320.617-1.02 29.57-20.566-18.078Zm0 0"/><path fill="#fef7e1" d="m96.973 350.188-34.07 33.8 13.503-51.879Zm0 0"/><path fill="#fec301" d="m384 238.262-12.477-61.028L384 138.754Zm0 0"/><path fill="#081d3b" d="m338.703 207.973 1.016 13.523-11.473-5.332Zm0 0"/><path fill="#fec400" d="m306.707 139.246-29.879-5.867 28.922-29.16ZM321.71 142.969l-15.003-3.723-.957-35.027Zm0 0"/><path fill="#fec302" d="M332.324 60.195 384 81.625l-40.883 28.555Zm0 0"/><path fill="#081d3b" d="m243.621 225.293-5.996 24.379-11.96-24.715Zm0 0"/><path fill="#f9c001" d="m243.621 225.293-15.05-17.746 4.972-4.418Zm0 0"/><path fill="#fbc101" d="m137.074 359.074-13.156 24.922-26.945-33.808Zm0 0"/><path fill="#f2d984" d="m123.918 383.996-28.856.012 1.91-33.82Zm0 0"/><path fill="#fdc300" d="m155.031 344.594-17.957 14.48 3.797-25.953Zm0 0"/><path fill="#fec300" d="m137.074 359.074 17.957-14.48 17.645 9.972Zm0 0"/><path fill="#c6ad53" d="m176.184 238.887-4.829-22.824 18.34 4.937Zm0 0"/><path fill="#eec22d" d="m171.355 216.063 10.985-15.145L189.695 221Zm0 0"/><path fill="#fec300" d="m217.113 354.77 50.723-5.04L232.949 384Zm0 0"/><path fill="#fec300" d="m231.52 313.89 36.316 35.84-50.723 5.04Zm0 0"/><path fill="#fec60b" d="M267.836 349.73 299.777 384H232.95Zm0 0"/><path fill="#fed653" d="m299.777 384-31.941-34.27 67.148-20.246Zm0 0"/><path fill="#fec300" d="m267.836 349.73-13.024-56.367 41.516 2.739Zm0 0"/><path fill="#fec400" d="m231.52 313.89 23.292-20.527 13.024 56.367Zm0 0"/><path fill="#fdc300" d="m254.813 293.363 1.886-28.402 39.63 31.14Zm0 0"/><path fill="#fdc300" d="m256.7 264.96-1.887 28.403-17.106-22.453Zm0 0"/><path fill="#fec919" d="m334.984 329.484 49.02 54.52-84.227-.004Zm0 0"/><path fill="#fec300" d="M334.984 329.484 384 308.191l.004 75.813Zm0 0"/><path fill="#fdc300" d="m255.7 263.336 1 1.625-18.993 5.95Zm0 0"/><path fill="#fbc100" d="m255.7 263.336-12.079-38.043 19.797 14.969Zm0 0"/><path fill="#081d3b" d="m237.625 249.672 18.074 13.664-17.992 7.574Zm0 0"/><path fill="#081d3c" d="m255.7 263.336-18.075-13.664 5.996-24.379Zm0 0"/><path fill="#081d3b" d="M270.785 245.613 255.7 263.336l7.719-23.074Zm0 0"/><path fill="#081d3b" d="m255.7 263.336 15.085-17.723-14.086 19.348Zm0 0"/><path fill="#faf9f7" d="m39.867 23.89 30.93 3.973-33.984 27.594Zm0 0"/><path fill="#fefefd" d="m.035.004 13.797 34.805L0 53.125Zm0 0"/><path fill="#fec300" d="m13.832 34.809 22.98 20.648-14.777 15.406ZM-.004 77.746l22.04-6.883-8.266 17.008Zm0 0"/><path fill="#fec400" d="M22.035 70.863-.004 77.746 0 53.125Zm0 0"/><path fill="#49492c" d="m119.922 155.895-7.957 14.972-14.57-26.101Zm0 0"/><path fill="#091d3b" d="m119.922 155.895 14.98 19.02-22.937-4.048Zm0 0"/><path fill="#081d3b" d="m182.566 184.125 16.516-5.11-2.512 20.626Zm0 0"/><path fill="#fec300" d="m218.25 182.047-19.168-3.031 8.57-10.703Zm0 0"/><path fill="#f9c001" d="m199.082 179.016-17.98-16 26.55 5.297Zm0 0"/><path fill="#081d3b" d="m181.102 163.016 17.98 16-16.516 5.109ZM219.063 152.953l17.832 4.918-3.747 14.86Zm0 0"/><path fill="#081d3b" d="m233.148 172.73 22.766-12.078 3.254 15.977Zm0 0"/><path fill="#fac30c" d="M203.926 0h43.234l-26.926 38.07Zm0 0"/><path fill="#fec400" d="m239.656 115.93 23.38-9.957-9.196 23.367Zm0 0"/><path fill="#fec300" d="m253.84 129.34 9.195-23.367 13.793 27.406Zm0 0"/><path fill="#fec400" d="m263.035 105.973-23.379 9.957-6.664-20.774Zm0 0"/><path fill="#fec301" d="m272.852 54.203-9.817 51.77-30.043-10.817Zm0 0"/><path fill="#fec302" d="m263.035 105.973 9.817-51.77 32.898 50.016Zm0 0"/><path fill="#fec300" d="m276.828 133.379-13.793-27.406 42.715-1.754Zm0 0"/><path fill="#e6ca6f" d="m70.797 27.863 7.219 33.395-41.204-5.801Zm0 0"/><path fill="#eee9d6" d="m70.797 27.863 55.793 22.864-48.574 10.53Zm0 0"/><path fill="#fec301" d="m202.629 46.883-76.04 3.844L164.536.004Zm0 0"/><path fill="#ebc442" d="m126.59 50.727 20.61 35.23-44.321 6.02Zm0 0"/><path fill="#fbc206" d="m147.2 85.957-20.61-35.23L183.37 81.53Zm0 0"/><path fill="#fec301" d="m208.043 97.293-43.57 15.21 18.898-30.972Zm0 0"/><path fill="#fdc303" d="M208.043 97.293 192 131.563l-27.527-19.06Zm0 0"/><path fill="#fec400" d="m192 131.563 16.043-34.27 13.598 31.672Zm0 0"/><path fill="#f5c422" d="m147.2 85.957-19.31 29.398-25.011-23.378Zm0 0"/><path fill="#f0c32e" d="m127.89 115.355 19.31-29.398 5.51 24.672Zm0 0"/><path fill="#f4c423" d="m68.031 104.27 34.848-12.293-6.371 30.89Zm0 0"/><path fill="#fed139" d="m22.066 315.79-22.07 7.483L0 279.547Zm0 0"/><path fill="#feedb5" d="M27.41 348.281-.004 323.273l22.07-7.484Zm0 0"/><path fill="#fec300" d="m19.809 149.934 28.492 4.992-14.133 17.05Zm0 0"/><path fill="#e2b20e" d="m60.844 207.684 9.39-13.864 17.52-1.957Zm0 0"/><path fill="#88772e" d="m60.844 207.684 19.043 13.863-23.832 21.531Zm0 0"/><path fill="#4c4b2b" d="m79.887 221.547-19.043-13.863 26.91-15.82Zm0 0"/><path fill="#fbfaf7" d="m70.234 193.82-9.39 13.864-10.63-16.207Zm0 0"/><path fill="#091e3b" d="m70.234 193.82 11.086-14.328 6.434 12.371Zm0 0"/><path fill="#fdc300" d="m105.992 215.836 15.848 13.152-16.758 2.219Zm0 0"/><path fill="#fec300" d="m121.84 228.988-11.531 9.16-5.227-6.941Zm0 0"/><path fill="#e4b106" d="m110.309 238.148 11.53-9.16-1.917 22.258Zm0 0"/><path fill="#0d213a" d="m108.18 203.523 9.336-14.074-6.649 15.547Zm0 0"/><path fill="#46472c" d="m134.902 174.914-2.582 32.36-3.976-1.868Zm0 0"/><path fill="#fefefd" d="m13.77 87.871 3.32 2.774L-.012 99.37Zm0 0"/><path fill="#fec300" d="M-.004 77.746 13.77 87.871l-13.782 11.5Zm0 0"/><path fill="#fefefe" d="m17.09 90.645 5.832 26.414L-.012 99.37Zm0 0"/><path fill="#fefefc" d="M22.922 117.059.027 142.239-.012 99.37Zm0 0"/><path fill="#fdc200" d="m.027 142.238 31.582-14.504-11.8 22.2Zm0 0"/><path fill="#fec609" d="m31.61 127.734-8.688-10.675 17.004 1.285Zm0 0"/><path fill="#0b1f3b" d="m22.922 117.059 8.687 10.675L.027 142.238Zm0 0"/><path fill="#081d3b" d="m31.61 127.734 16.69 27.192-28.491-4.992ZM190.57 320.398l-13.925-1.918 8.207-13.054Zm0 0"/><path fill="#f9c003" d="m119.633 325.21 17.441 33.864-40.101-8.887Zm0 0"/><path fill="#fec300" d="m137.074 359.074-17.441-33.863 21.238 7.91Zm0 0"/><path fill="#fec301" d="m384 138.754-40.883-28.574L384 81.625Zm0 0"/><path fill="#fec400" d="M371.523 177.234 353 156.945l31-18.191Zm0 0"/><path fill="#fec300" d="M368.07 202.977 384 238.262l-26.379-14.532Zm0 0"/><path fill="#fec300" d="m368.07 202.977 3.453-25.743L384 238.262Zm0 0"/><path fill="#081d3b" d="m255.914 160.652 17.707 9.274-14.453 6.703ZM324.254 160.508l-2.543-17.54 14.824 6.044Zm0 0"/><path fill="#fdc406" d="M272.852 54.203 247.16 0h59.567Zm0 0"/><path fill="#081d3b" d="m228.57 207.547-2.906 17.41-7.867-12.398ZM243.621 225.293l-17.957-.336 2.906-17.41Zm0 0"/><path fill="#f5c937" d="m196.57 199.64 10.618 12.133L189.695 221Zm0 0"/><path fill="#fec300" d="m233.148 172.73-4.675 15.672-10.223-6.355Zm0 0"/><path fill="#fcc200" d="m228.473 188.402-11.996 6.453 1.773-12.808Zm0 0"/><path fill="#fec300" d="m216.477 194.855 11.996-6.453 5.07 14.727Zm0 0"/><path fill="#091d3b" d="m274.586 198.926 1.172-13.996 11.21 11.351Zm0 0"/><path fill="#ecb704" d="m282.516 170.125-6.758 14.805-2.137-15.004Zm0 0"/><path fill="#10233b" d="m283.188 210.758-8.602-11.832 12.383-2.645Zm0 0"/><path fill="#081d3b" d="m140.871 333.121.453-13.023h13.485Zm0 0"/><path fill="#fac001" d="M217.113 354.77 173.332 384l-.656-29.434Zm0 0"/><path fill="#f5bd02" d="m190.57 320.398 26.543 34.372-44.437-.204Zm0 0"/><path fill="#fec300" d="m217.113 354.77-26.543-34.372 40.95-6.507Zm0 0"/><path fill="#081d3b" d="m339.719 221.496-14.614 8.402 3.141-13.734Zm0 0"/><path fill="#fec300" d="m337.41 248.992-12.305-19.094 14.614-8.402Zm0 0"/><path fill="#726522" d="m265.578 225.914 8.719 10.98-10.879 3.368Zm0 0"/><path fill="#081d3b" d="m274.297 236.895-3.512 8.718-7.367-5.351Zm0 0"/><path fill="#fdfdfd" d="m299.883 191.29-4.598 12.612-8.316-7.62Zm0 0"/><path fill="#fcfcfc" d="m295.285 203.902-12.098 6.856 3.782-14.477Zm0 0"/><path fill="#f2f2f4" d="m283.188 210.758 12.097-6.856 4.145 11.196Zm0 0"/><path fill="#081d3b" d="m308.832 173.297-9.984-6.973 11.761-10.832Zm0 0"/><path fill="#f6f7f8" d="m295.285 203.902 12.914.668-8.77 10.528Zm0 0"/><path fill="#fdfdfd" d="m308.2 204.57-12.915-.668 4.598-12.613Zm0 0"/><path fill="#fec815" d="M.035.004h28.242L13.832 34.809Zm0 0"/><path fill="#fcc201" d="M13.832 34.809 39.867 23.89l-3.054 31.566Zm0 0"/><path fill="#081d3b" d="m159.828 157.445-24.926 17.47 8.489-33.845Zm0 0"/><path fill="#fec300" d="m133.668 136.61-7.277-1.067 1.5-20.188Zm0 0"/><path fill="#f6c319" d="m152.71 110.629-19.042 25.98-5.777-21.254Zm0 0"/><path fill="#0b1f3b" d="m150.695 185.234.848 26.864-19.223-4.825Zm0 0"/><path fill="#333a32" d="m171.355 216.063-19.812-3.965 16.27-21.387Zm0 0"/><path fill="#ae8d13" d="m182.34 200.918-10.985 15.144-3.542-25.351Zm0 0"/><path fill="#081d3b" d="m159.828 157.445 9.152 18.121-18.285 9.668Zm0 0"/><path fill="#84711d" d="m167.813 190.71 1.167-15.144 13.586 8.559Zm0 0"/><path fill="#081d3b" d="m239.488 146.406-20.425 6.547 4.855-14.332ZM239.488 146.406l-15.57-7.785 11.305-10.75Zm0 0"/><path fill="#081d3b" d="m239.488 146.406-2.593 11.465-17.833-4.918Zm0 0"/><path fill="#fec300" d="m233.148 172.73-14.898 9.317-10.598-13.734Zm0 0"/><path fill="#f9c001" d="m247.027 193.184-13.879-20.454 26.02 3.899Zm0 0"/><path fill="#fec300" d="m247.027 193.184-18.554-4.782 4.675-15.672Zm0 0"/><path fill="#fdc408" d="m228.473 188.402 18.554 4.782-13.484 9.945Zm0 0"/><path fill="#0a1e3b" d="m202.629 46.883 17.605-8.813-14.52 13.32Zm0 0"/><path fill="#fcc307" d="M202.629 46.883 203.926 0l16.308 38.07Zm0 0"/><path fill="#081d3b" d="m161.922 137.445-18.531 3.625 9.32-30.441Zm0 0"/><path fill="#091d3b" d="m181.102 163.016 4.117-14.243 22.433 19.54Zm0 0"/><path fill="#081d3c" d="M223.918 138.621 192 131.562l29.64-2.597Zm0 0"/><path fill="#fcc612" d="m51.828 100.227 15.977-4.93.226 8.973Zm0 0"/><path fill="#f4c52b" d="m67.805 95.297 10.21-34.04 24.864 30.72Zm0 0"/><path fill="#f8c621" d="M78.016 61.258 67.805 95.297l-15.977 4.93Zm0 0"/><path fill="#f6c41e" d="m68.031 104.27-.226-8.973 35.074-3.32Zm0 0"/><path fill="#081d3b" d="m97.395 144.766-.887-21.899 29.883 12.676Zm0 0"/><path fill="#fbc40e" d="m126.39 135.543-29.882-12.676 31.383-7.512Zm0 0"/><path fill="#f2bc07" d="m127.89 115.355-31.382 7.512 6.37-30.89Zm0 0"/><path fill="#f7f5f0" d="m97.395 144.766-23.43-.836 22.543-21.063Zm0 0"/><path fill="#f3bd09" d="m91.832 162.45-17.867-18.52 23.43.836Zm0 0"/><path fill="#081d3b" d="m49.809 143.59 24.156.34L48.3 154.926Zm0 0"/><path fill="#091d3b" d="m31.61 127.734 18.199 15.856-1.508 11.336Zm0 0"/><path fill="#fec300" d="m49.809 143.59-18.2-15.856 8.317-9.39Zm0 0"/><path fill="#fec401" d="M61.621 118.113 49.81 143.59l-9.883-25.246Zm0 0"/><path fill="#fdc200" d="m37.809 233.813 11.097-23.375 7.149 32.64Zm0 0"/><path fill="#f1bc08" d="m48.906 210.438 11.938-2.754-4.79 35.394Zm0 0"/><path fill="#faf9f5" d="m60.844 207.684-11.938 2.754 1.309-18.961Zm0 0"/><path fill="#0c1f3a" d="M48.906 210.438 37.81 233.813l-4.579-9.149Zm0 0"/><path fill="#091d3b" d="m27.492 196.773 21.414 13.665-15.676 14.226Zm0 0"/><path fill="#212e35" d="m48.906 210.438-21.414-13.665 22.723-5.296Zm0 0"/><path fill="#fec401" d="m62.223 177.488 8.011 16.332-20.02-2.343Zm0 0"/><path fill="#fdfaef" d="m62.223 177.488 19.097 2.004-11.086 14.328Zm0 0"/><path fill="#081d3b" d="m176.645 318.48-10.887-16.75 19.094 3.696Zm0 0"/><path fill="#f7bf07" d="m121.84 228.988-15.848-13.152 4.875-10.84Zm0 0"/><path fill="#997f19" d="m117.516 189.45 17.386-14.536-6.558 30.492Zm0 0"/><path fill="#091e3b" d="m134.902 174.914-17.386 14.535-5.551-18.582Zm0 0"/><path fill="#d2a60a" d="m111.965 170.867 5.55 18.582-29.761 2.414Zm0 0"/><path fill="#081d3b" d="m117.516 189.45-9.336 14.073-20.426-11.66Zm0 0"/><path fill="#fed754" d="M22.922 117.059 36.18 99.035l3.746 19.309Zm0 0"/><path fill="#fefefe" d="M36.18 99.035 22.922 117.06 17.09 90.645Zm0 0"/><path fill="#e8b405" d="M43.027 86.742 22.035 70.863l14.778-15.406Zm0 0"/><path fill="#faf4df" d="M78.016 61.258 43.027 86.742l-6.215-31.285Zm0 0"/><path fill="#fec401" d="m51.828 100.227-8.8-13.485 34.988-25.484Zm0 0"/><path fill="#fec400" d="m36.18 99.035 6.847-12.293 8.801 13.485Zm0 0"/><path fill="#f0ba06" d="M43.027 86.742 17.09 90.645l4.945-19.782Zm0 0"/><path fill="#fefdfb" d="M43.027 86.742 36.18 99.035l-19.09-8.39Zm0 0"/><path fill="#fefdf8" d="m36.18 99.035 14.707 8.094-10.961 11.215Zm0 0"/><path fill="#fefdfa" d="M50.887 107.129 36.18 99.035l15.648 1.192Zm0 0"/><path fill="#fefefc" d="m50.887 107.129.941-6.902 16.203 4.043Zm0 0"/><path fill="#fefefc" d="M61.621 118.113 50.887 107.13l17.144-2.86Zm0 0"/><path fill="#fefdfa" d="m50.887 107.129 10.734 10.984-21.695.23Zm0 0"/><path fill="#f0eee5" d="m83.992 306.828 19.848-9.789-5.848 23.578Zm0 0"/><path fill="#0d203a" d="m103.84 297.04-19.848 9.788 9.188-33.84Zm0 0"/><path fill="#efb903" d="m103.84 297.04 10.043-23.333 15.547 18.926Zm0 0"/><path fill="#b89411" d="m119.023 310.879-15.183-13.84 25.59-4.406Zm0 0"/><path fill="#fac105" d="m113.883 273.707-10.043 23.332-10.66-24.05Zm0 0"/><path fill="#081d3b" d="m132.723 320.703 8.601-.605-.453 13.023Zm0 0"/><path fill="#fbc100" d="m119.633 325.21 13.09-4.507 8.148 12.418Zm0 0"/><path fill="#fec300" d="M344.965 137.93 353 156.945l-16.465-7.933Zm0 0"/><path fill="#fec400" d="m353 156.945-8.035-19.015 39.035.824Zm0 0"/><path fill="#fec300" d="m321.71 142.969 23.255-5.04-8.43 11.083Zm0 0"/><path fill="#fec400" d="m384 138.754-39.035-.824-1.848-27.75Zm0 0"/><path fill="#fec400" d="m344.965 137.93-23.254 5.039 21.406-32.79Zm0 0"/><path fill="#081d3b" d="m338.703 207.973 14.117 2.93-13.101 10.593Zm0 0"/><path fill="#fec300" d="m339.719 221.496 13.101-10.594 4.801 12.828Zm0 0"/><path fill="#fcc200" d="m352.82 210.902 15.25-7.925-10.449 20.753Zm0 0"/><path fill="#081d3c" d="m298.848 166.324 2.113-13.89 9.648 3.058Zm0 0"/><path fill="#081d3b" d="m253.84 129.34 21.055 21.37-18.97-3.304Zm0 0"/><path fill="#081d3c" d="m276.828 133.379-1.933 17.332-21.055-21.371Zm0 0"/><path fill="#fefefe" d="m274.895 150.71 1.933-17.331 7.02 18.633Zm0 0"/><path fill="#fbc30c" d="m332.324 60.195-59.472-5.992L306.727 0Zm0 0"/><path fill="#fec302" d="M384 0v81.625l-51.676-21.43Zm0 0"/><path fill="#fbc40c" d="M306.727 0H384l-51.676 60.195Zm0 0"/><path fill="#fec300" d="m204.992 261.09-9.746-15.957 10.816.488Zm0 0"/><path fill="#081d3b" d="m206.96 293.078-8.526-13.57 18.078-2.414Zm0 0"/><path fill="#fec300" d="m216.8 299.707 4.137-8.797 10.583 22.98Zm0 0"/><path fill="#081d3b" d="m206.96 293.078 13.977-2.168-4.136 8.797Zm0 0"/><path fill="#081d3b" d="m220.938 290.91-13.977 2.168 9.55-15.984Zm0 0"/><path fill="#fec300" d="m216.477 194.855-17.395-15.84 19.168 3.032ZM247.027 193.184l5.008 18.617-18.492-8.672Zm0 0"/><path fill="#fec300" d="m252.035 211.8-8.414 13.493-10.078-22.164Zm0 0"/><path fill="#eab604" d="m243.621 225.293 8.414-13.492 13.543 14.113Zm0 0"/><path fill="#081d3c" d="m274.297 236.895 3.914-14.31 18.344 7.731Zm0 0"/><path fill="#091e3c" d="m278.21 222.586-3.913 14.309-8.719-10.98Zm0 0"/><path fill="#081d3b" d="m141.324 320.098-1.855-12.028 15.34 12.028Zm0 0"/><path fill="#fbc100" d="m173.332 384 43.781-29.23L232.95 384Zm0 0"/><path fill="#fcc200" d="m155.031 344.594 8.531-9.012 9.114 18.984Zm0 0"/><path fill="#fec300" d="m163.563 335.582 27.007-15.184-17.894 34.168ZM140.871 333.121l22.691 2.461-8.53 9.012Zm0 0"/><path fill="#fdc200" d="m190.57 320.398-27.007 15.184 13.082-17.102Zm0 0"/><path fill="#081d3b" d="m206.96 293.078-14.898 2.766 6.372-16.336ZM212.918 306.137l-5.957-13.059 9.84 6.629Zm0 0"/><path fill="#fdc300" d="m212.918 306.137 18.602 7.754-40.95 6.507Zm0 0"/><path fill="#fec300" d="m212.918 306.137 3.883-6.43 14.719 14.184ZM304.18 266.984l37.949 17.41-45.8 11.708Zm0 0"/><path fill="#fec300" d="m304.18 266.984 33.23-17.992 4.719 35.403ZM256.7 264.96l47.48 2.024-7.852 29.118Zm0 0"/><path fill="#081d3b" d="m292.195 182.113 16.637-8.816-8.95 17.992Zm0 0"/><path fill="#fefefe" d="m292.195 182.113 7.688 9.176-12.914 4.992Zm0 0"/><path fill="#fcfcfd" d="m292.195 182.113-9.68-11.988 16.333-3.8Zm0 0"/><path fill="#091e3b" d="m308.832 173.297-16.637 8.816 6.653-15.789Zm0 0"/><path fill="#e4c764" d="m275.758 184.93 16.437-2.817-5.226 14.168Zm0 0"/><path fill="#efd26f" d="m292.195 182.113-16.437 2.817 6.758-14.805Zm0 0"/><path fill="#081d3c" d="m308.832 173.297 12.504 11.129-21.453 6.863Zm0 0"/><path fill="#fdfdfd" d="m321.336 184.426-13.137 20.144-8.316-13.28Zm0 0"/><path fill="#081d3c" d="m324.316 205.852 14.387 2.12-10.457 8.192Zm0 0"/><path fill="#faeab6" d="m321.336 184.426 2.98 21.426-16.117-1.282Zm0 0"/><path fill="#fefdfc" d="M39.867 23.89 13.832 34.81 28.277.004Zm0 0"/><path fill="#081d3b" d="m159.828 157.445-9.133 27.79-15.793-10.32Zm0 0"/><path fill="#081d3b" d="m150.695 185.234 17.118 5.477-16.27 21.387Zm0 0"/><path fill="#102239" d="m168.98 175.566-1.167 15.145-17.118-5.477Zm0 0"/><path fill="#091d3b" d="m261.445 192.96 14.313-8.03-1.172 13.996Zm0 0"/><path fill="#fec302" d="m332.324 60.195 10.793 49.985-37.367-5.961Zm0 0"/><path fill="#f0dc96" d="m100.14-.012 26.45 50.739-55.793-22.864Zm0 0"/><path fill="#091d3b" d="m183.371 81.531 19.258-34.648 3.086 4.508Zm0 0"/><path fill="#fbc205" d="M183.371 81.531 126.59 50.727l76.039-3.844Zm0 0"/><path fill="#081d3b" d="m143.39 141.07-9.722-4.46 19.043-25.981Zm0 0"/><path fill="#112339" d="m159.828 157.445 21.274 5.57-12.122 12.551Zm0 0"/><path fill="#1b2a37" d="m159.828 157.445 25.39-8.672-4.116 14.243Zm0 0"/><path fill="#7d6c21" d="m161.922 137.445-9.211-26.816 11.762 1.875Zm0 0"/><path fill="#fec300" d="m192 131.563-30.078 5.882 2.55-24.941Zm0 0"/><path fill="#081d3c" d="m185.219 148.773-23.297-11.328L192 131.563Zm0 0"/><path fill="#0b1f3b" d="m159.828 157.445 2.094-20 23.297 11.328Zm0 0"/><path fill="#081d3c" d="m219.063 152.953-33.844-4.18 6.781-17.21Zm0 0"/><path fill="#081d3c" d="m223.918 138.621-4.856 14.332L192 131.563Zm0 0"/><path fill="#081d3b" d="m185.219 148.773 33.844 4.18-11.41 15.36Zm0 0"/><path fill="#081d3b" d="m219.063 152.953 14.085 19.777-25.496-4.417Zm0 0"/><path fill="#fec301" d="m91.832 162.45-17.32-1.212-.547-17.308Zm0 0"/><path fill="#fdc300" d="m74.512 161.238 17.32 1.211-10.512 17.043Zm0 0"/><path fill="#091e3b" d="m62.223 177.488 12.289-16.25 6.808 18.254Zm0 0"/><path fill="#081d3b" d="m73.965 143.93.547 17.308-26.211-6.312Zm0 0"/><path fill="#fec404" d="m49.809 143.59 11.812-25.477 12.344 25.817Zm0 0"/><path fill="#fec70f" d="M73.965 143.93 61.62 118.113l34.887 4.754Zm0 0"/><path fill="#fefefe" d="m61.621 118.113 6.41-13.843 28.477 18.597Zm0 0"/><path fill="#967d19" d="m50.215 191.477-22.723 5.296 6.676-24.796Zm0 0"/><path fill="#081d3b" d="m154.809 320.098 10.949-18.368 10.887 16.75Zm0 0"/><path fill="#091d3b" d="m163.563 335.582-8.754-15.484 21.836-1.618Zm0 0"/><path fill="#fec300" d="m154.809 320.098 8.754 15.484-22.692-2.46Zm0 0"/><path fill="#776820" d="m130.992 236.816-11.07 14.43 1.918-22.258Zm0 0"/><path fill="#f2be10" d="m117.516 189.45 10.828 15.956-17.477-.41Zm0 0"/><path fill="#be9915" d="m128.344 205.406-6.504 23.582-10.973-23.992Zm0 0"/><path fill="#86721d" d="m121.84 228.988 6.504-23.582 3.976 1.867Zm0 0"/><path fill="#081d3b" d="m119.023 310.879 13.7 9.824-13.09 4.508Zm0 0"/><path fill="#081d3c" d="m119.023 310.879.61 14.332-21.64-4.594Zm0 0"/><path fill="#081d3b" d="m103.84 297.04 15.183 13.839-21.03 9.738ZM339.672 165.27l-15.418-4.762 12.281-11.496ZM353 156.945l-13.328 8.325-3.137-16.258Zm0 0"/><path fill="#fdc200" d="m339.672 165.27 13.23 16.917-14.574 9.395Zm0 0"/><path fill="#091e3b" d="m352.902 182.188-13.23-16.918L353 156.945Zm0 0"/><path fill="#081d3b" d="m352.902 182.188.098-25.243 18.523 20.29Zm0 0"/><path fill="#081d3c" d="m310.61 155.492-3.903-16.246 15.004 3.723Zm0 0"/><path fill="#081d3b" d="m324.254 160.508-13.645-5.016 11.102-12.523Zm0 0"/><path fill="#fefefe" d="m276.734 160.797-1.84-10.086 8.954 1.3Zm0 0"/><path fill="#fdfdfd" d="m276.734 160.797 5.782 9.328-8.895-.2Zm0 0"/><path fill="#fefefe" d="m288.352 160.324-11.618.473 7.114-8.785Zm0 0"/><path fill="#fdfdfd" d="m276.734 160.797 11.618-.473-5.836 9.801Zm0 0"/><path fill="#f9f9fa" d="m288.352 160.324 12.609-7.89-2.113 13.89Zm0 0"/><path fill="#fdfefe" d="m282.516 170.125 5.836-9.8 10.496 6Zm0 0"/><path fill="#fec300" d="m195.246 245.133 10.664-9.852.153 10.34ZM234.582 287.61l20.23 5.753-23.292 20.528Zm0 0"/><path fill="#fdc300" d="m234.582 287.61 3.125-16.7 17.106 22.453Zm0 0"/><path fill="#fec300" d="m220.938 290.91 13.644-3.3-3.062 26.28Zm0 0"/><path fill="#091d3b" d="m237.707 270.91-3.125 16.7-18.07-10.516Zm0 0"/><path fill="#081d3b" d="m234.582 287.61-13.644 3.3-4.426-13.816Zm0 0"/><path fill="#ebb704" d="m204.992 261.09-22.906 3.969 13.16-19.926Zm0 0"/><path fill="#f4bc02" d="m198.434 279.508 6.558-18.418 11.52 16.004Zm0 0"/><path fill="#fec300" d="m182.086 265.059 22.906-3.97-6.558 18.419Zm0 0"/><path fill="#081d3b" d="m237.625 249.672-3.8.945-8.16-25.66Zm0 0"/><path fill="#f3bc02" d="m233.824 250.617-28.832 10.473 1.07-15.469Zm0 0"/><path fill="#fac001" d="m205.91 235.281 27.914 15.336-27.762-4.996Zm0 0"/><path fill="#081d3b" d="m233.824 250.617-27.914-15.336 19.754-10.324Zm0 0"/><path fill="#081d3c" d="m233.824 250.617 3.883 20.293-21.195 6.184Zm0 0"/><path fill="#fdc200" d="m204.992 261.09 28.832-10.473-17.312 26.477Zm0 0"/><path fill="#081d3c" d="m237.707 270.91-3.883-20.293 3.801-.945Zm0 0"/><path fill="#fec401" d="m228.57 207.547-12.093-12.692 17.066 8.274Zm0 0"/><path fill="#081d3b" d="m217.797 212.559-3.598 6.336-7.012-7.122Zm0 0"/><path fill="#081d3b" d="m225.664 224.957-11.465-6.062 3.598-6.336Zm0 0"/><path fill="#081d3b" d="m205.91 235.281 8.29-16.386 11.464 6.062ZM199.082 179.016l12.988 21.105-15.5-.48Zm0 0"/><path fill="#081d3b" d="m212.07 200.121-12.988-21.105 17.395 15.84Zm0 0"/><path fill="#081d3b" d="m196.57 199.64 15.5.481-4.882 11.652Zm0 0"/><path fill="#081d3b" d="m212.07 200.121 5.727 12.438-10.61-.786Zm0 0"/><path fill="#0a1e3b" d="m228.57 207.547-16.5-7.426 4.407-5.266Zm0 0"/><path fill="#081d3b" d="m212.07 200.121 16.5 7.426-10.773 5.012Zm0 0"/><path fill="#fec300" d="m261.504 207.05-9.469 4.75-5.008-18.616Zm0 0"/><path fill="#091d3b" d="m261.504 207.05-.059-14.09 13.14 5.966Zm0 0"/><path fill="#091e3b" d="m139.469 308.07-20.446 2.809 10.407-18.246Zm0 0"/><path fill="#081d3b" d="m139.469 308.07-6.746 12.633-13.7-9.824ZM132.723 320.703l6.746-12.633 1.855 12.028Zm0 0"/><path fill="#b08e13" d="m119.922 251.246 19.762 27.61-25.801-5.149Zm0 0"/><path fill="#fbc100" d="m198.52 304.406 14.398 1.73-22.348 14.262Zm0 0"/><path fill="#081d3b" d="m212.918 306.137-14.398-1.73 8.44-11.329ZM198.52 304.406l-7.95 15.992-5.718-14.972ZM192.063 295.844l6.457 8.562-13.668 1.02Zm0 0"/><path fill="#081d3b" d="m198.52 304.406-6.458-8.562 14.899-2.766ZM311.148 220.734l-3.097 16.418-11.496-6.836Zm0 0"/><path fill="#081d3c" d="m308.05 237.152 3.098-16.418 13.957 9.164Zm0 0"/><path fill="#fcc200" d="m337.41 248.992-29.36-11.84 17.055-7.254Zm0 0"/><path fill="#fec300" d="m304.18 266.984 3.87-29.832 29.36 11.84Zm0 0"/><path fill="#0c203d" d="m278.21 222.586 18.25 1.187.095 6.543Zm0 0"/><path fill="#081d3b" d="m296.46 223.773 14.688-3.039-14.593 9.582Zm0 0"/><path fill="#081d3b" d="m311.148 220.734-14.687 3.04 2.969-8.676Zm0 0"/><path fill="#f2f2ee" d="m296.46 223.773-13.272-13.015 16.242 4.34Zm0 0"/><path fill="#f0ecdc" d="m296.46 223.773-18.25-1.187 4.978-11.828Zm0 0"/><path fill="#081d3c" d="m308.2 204.57 2.948 16.164-11.718-5.636Zm0 0"/><path fill="#081d3c" d="m324.316 205.852-13.168 14.882-2.949-16.164Zm0 0"/><path fill="#081d3b" d="m311.148 220.734 13.168-14.882 3.93 10.312ZM325.105 229.898l-13.957-9.164 17.098-4.57ZM286.367 249.02l-12.07-12.125 22.258-6.579Zm0 0"/><path fill="#081d3b" d="m274.297 236.895 12.07 12.125-15.582-3.407Zm0 0"/><path fill="#081d3c" d="m308.05 237.152-21.683 11.868 10.188-18.704Zm0 0"/><path fill="#fec300" d="m286.367 249.02 21.684-11.868-3.871 29.832Zm0 0"/><path fill="#081d3b" d="m270.785 245.613 15.582 3.407-29.668 15.94Zm0 0"/><path fill="#fdc300" d="m286.367 249.02 17.813 17.964-47.48-2.023Zm0 0"/><path fill="#081d3b" d="m324.254 160.508-15.422 12.789 1.777-17.805Zm0 0"/><path fill="#081d3b" d="m324.254 160.508-2.918 23.918-12.504-11.13Zm0 0"/><path fill="#0a1f3c" d="m324.316 205.852 14.012-14.27.375 16.39Zm0 0"/><path fill="#fdf8e8" d="m338.328 191.582-14.012 14.27-2.98-21.426Zm0 0"/><path fill="#081d3b" d="m119.922 155.895 13.746-19.286 9.723 4.461ZM119.922 155.895l6.469-20.352 7.277 1.066Zm0 0"/><path fill="#263238" d="m134.902 174.914-14.98-19.02 23.469-14.824Zm0 0"/><path fill="#a98a15" d="m126.39 135.543-6.468 20.352-22.527-11.13Zm0 0"/><path fill="#0d203a" d="m150.695 185.234-18.375 22.04 2.582-32.36Zm0 0"/><path fill="#a08417" d="m259.168 176.629 2.277 16.332-14.418.223Zm0 0"/><path fill="#e7b305" d="m275.758 184.93-16.59-8.301 14.453-6.703Zm0 0"/><path fill="#081d3b" d="m261.445 192.96-2.277-16.331 16.59 8.3Zm0 0"/><path fill="#b08e13" d="m261.504 207.05-14.477-13.866 14.418-.223Zm0 0"/><path fill="#081d3b" d="m48.3 154.926 5.087 15.765-19.219 1.286Zm0 0"/><path fill="#112339" d="m53.387 170.691-3.172 20.786-16.047-19.5Zm0 0"/><path fill="#0c1f3a" d="m74.512 161.238-21.125 9.453-5.086-15.765Zm0 0"/><path fill="#0a1f3b" d="m53.387 170.691 21.125-9.453-12.29 16.25Zm0 0"/><path fill="#efb903" d="m50.215 191.477 3.172-20.786 8.836 6.797Zm0 0"/><path fill="#49492c" d="m162.371 281.996-22.687-3.14 20.265-21.38Zm0 0"/><path fill="#081d3b" d="m139.469 308.07 8.773-11.754 6.567 23.782Zm0 0"/><path fill="#e2b006" d="m148.242 296.316-8.773 11.754-10.04-15.437Zm0 0"/><path fill="#081d3b" d="m148.242 296.316 17.516 5.414-10.95 18.368Zm0 0"/><path fill="#f7be01" d="m148.242 296.316 14.13-14.32 3.386 19.734Zm0 0"/><path fill="#fdc300" d="m162.371 281.996 20.29 7.61-16.903 12.124Zm0 0"/><path fill="#081d3b" d="m165.758 301.73 16.902-12.125 2.192 15.82Zm0 0"/><path fill="#eab604" d="m182.66 289.605 9.403 6.239-7.211 9.582Zm0 0"/><path fill="#f4bc02" d="m192.063 295.844-9.403-6.239 15.774-10.097Zm0 0"/><path fill="#89741c" d="m137.113 230.09-6.12 6.726-9.153-7.828Zm0 0"/><path fill="#091e3b" d="m352.82 210.902 6.012-14.59 9.238 6.665Zm0 0"/><path fill="#081d3b" d="m368.07 202.977-9.238-6.665 12.691-19.078Zm0 0"/><path fill="#081d3b" d="m358.832 196.313-5.93-14.125 18.621-4.954Zm0 0"/><path fill="#fefefe" d="m300.96 152.434-12.608 7.89-4.504-8.312Zm0 0"/><path fill="#fefefe" d="m276.828 133.379 24.133 19.055-17.113-.422Zm0 0"/><path fill="#081d3c" d="m300.96 152.434-24.132-19.055 29.879 5.867Zm0 0"/><path fill="#081d3b" d="m310.61 155.492-9.65-3.058 5.747-13.188ZM274.895 150.71l-18.98 9.942.01-13.246Zm0 0"/><path fill="#081d3c" d="m276.734 160.797-20.82-.145 18.98-9.941Zm0 0"/><path fill="#081d3b" d="m255.914 160.652 20.82.145-3.113 9.129ZM261.504 207.05l16.707 15.536-12.633 3.328Zm0 0"/><path fill="#eab605" d="m252.035 211.8 9.469-4.75 4.074 18.864Zm0 0"/><path fill="#091e3b" d="m278.21 222.586-16.706-15.535 21.683 3.707Zm0 0"/><path fill="#132439" d="m283.188 210.758-21.684-3.707 13.082-8.125Zm0 0"/><path fill="#f8f7f5" d="m321.336 184.426 18.336-19.156-1.344 26.312Zm0 0"/><path fill="#091d3b" d="m339.672 165.27-18.336 19.156 2.918-23.918Zm0 0"/><path fill="#081d3b" d="m159.828 157.445-16.437-16.375 18.53-3.625Zm0 0"/><path fill="#d8aa09" d="m182.086 265.059-19.715 16.937-2.422-24.52Zm0 0"/><path fill="#eeb804" d="m182.086 265.059.574 24.546-20.289-7.609Zm0 0"/><path fill="#fec300" d="m182.66 289.605-.574-24.546 16.348 14.449Zm0 0"/><path fill="#504e2a" d="m137.113 230.09 2.918 16.93-9.039-10.204Zm0 0"/><path fill="#3e412e" d="m137.113 230.09-15.273-1.102 10.48-21.715Zm0 0"/><path fill="#45462d" d="m137.113 230.09-4.793-22.817 19.223 4.825Zm0 0"/><path fill="#504d2a" d="m140.031 247.02-20.11 4.226 11.071-14.43Zm0 0"/><path fill="#edb804" d="m176.184 238.887 5.902 26.172-22.137-7.582Zm0 0"/><path fill="#081d3b" d="m347.969 197.297 4.851 13.605-14.117-2.93Zm0 0"/><path fill="#081d3b" d="m347.969 197.297 10.863-.984-6.012 14.59ZM338.328 191.582l9.64 5.715-9.265 10.676Zm0 0"/><path fill="#091e3b" d="m352.902 182.188-4.933 15.109-9.64-5.715Zm0 0"/><path fill="#081d3b" d="m358.832 196.313-10.863.984 4.933-15.11Zm0 0"/><path fill="#091d3b" d="m214.2 218.895-8.29 16.386 1.278-23.508Zm0 0"/><path fill="#af8f19" d="M205.91 235.281 189.695 221l17.493-9.227Zm0 0"/><path fill="#f0ba03" d="m113.883 273.707 25.8 5.148-10.253 13.778Zm0 0"/><path fill="#e4b206" d="m139.684 278.855 8.558 17.461-18.812-3.683Zm0 0"/><path fill="#cba10c" d="m148.242 296.316-8.558-17.46 22.687 3.14Zm0 0"/><path fill="#0e213a" d="M157.383 234.535 140.03 247.02l-2.918-16.93Zm0 0"/><path fill="#081d3b" d="m157.383 234.535-20.27-4.445 14.43-17.992Zm0 0"/><path fill="#0e213a" d="m171.355 216.063-13.972 18.472-5.84-22.437Zm0 0"/><path fill="#b49213" d="m176.184 238.887-18.801-4.352 13.972-18.472Zm0 0"/><path fill="#cea30b" d="m140.031 247.02-.347 31.835-19.762-27.609Zm0 0"/><path fill="#f8bf01" d="m189.695 221 5.551 24.133-19.062-6.246Zm0 0"/><path fill="#f4bc02" d="m189.695 221 16.215 14.281-10.664 9.852Zm0 0"/><path fill="#d2a60c" d="m176.184 238.887-16.235 18.59-2.566-22.942Zm0 0"/><path fill="#091e3b" d="M159.95 257.477 140.03 247.02l17.352-12.485Zm0 0"/><path fill="#243034" d="m159.95 257.477-20.266 21.378.347-31.835Zm0 0"/><path fill="#f9c001" d="m176.184 238.887 19.062 6.246-13.16 19.926Zm0 0"/></svg>