<svg xmlns="http://www.w3.org/2000/svg" width="512" height="512" viewBox="0 0 384 384"><path fill="#e2d58b" d="m312.129 335.172-68.125-17.192 26.27-30.015Zm0 0"/><path fill="#fea37d" d="m56.195 53.719-18.851 37.05 5.484-45.507Zm0 0"/><path fill="#ecd387" d="m214.824 129.742 14.68-10.156 1.117 11.41Zm0 0"/><path fill="#f9d082" d="m172.023 96.836 36.93-50.531 7.61 53.418Zm0 0"/><path fill="#f9d081" d="m208.953 46.305 59.543-12.403-51.933 65.82Zm0 0"/><path fill="#1afbdf" d="m67.45 248.625-29.196-11.266 11.562-25.437Zm0 0"/><path fill="#1bfbdf" d="m44.137 287.543 24.508 27.41-29.508 28.535Zm0 0"/><path fill="#352a55" d="m244.516 143.762 11.488-12.668 5.855 14.308Zm0 0"/><path fill="#e5d48a" d="m216.563 99.723 12.94 19.863-14.679 10.156Zm0 0"/><path fill="#f9d182" d="m229.504 119.586 13.988 10.43-12.87.98Zm0 0"/><path fill="#352a55" d="m244.516 143.762-1.024-13.746 12.512 1.078Zm0 0"/><path fill="#fecf7f" d="m268.496 33.902-21.305 68.664-30.629-2.843Zm0 0"/><path fill="#fcd080" d="m216.563 99.723 30.628 2.843-17.687 17.02Zm0 0"/><path fill="#bcbd8e" d="M137.523 43.84 100.027.027l52.684-.03Zm0 0"/><path fill="#fea47d" d="m93.273 271.816 6.977-25.492 12.059 4.492Zm0 0"/><path fill="#18fce0" d="m100.25 246.324-6.977 25.492-25.824-23.191Zm0 0"/><path fill="#22f8db" d="m99.668 155.945 9.168 15.852-26.824 15.61Zm0 0"/><path fill="#1dfbde" d="m108.836 171.797-9.168-15.852 12.02 4.442Zm0 0"/><path fill="#ffcf7f" d="M28.215 208.094.008 220.68 0 196.625Zm0 0"/><path fill="#1afcdf" d="m44.137 287.543-5.883-50.184 29.195 11.266Zm0 0"/><path fill="#28f9d9" d="m68.645 314.953 28.632 34.86-58.14-6.325Zm0 0"/><path fill="#2af8d8" d="M97.277 349.813 70.523 384l-31.386-40.512Zm0 0"/><path fill="#feb37e" d="M268.496 33.902 285.063 0l48.32 35.246Zm0 0"/><path fill="#feb67e" d="m247.57 239.086 6.621-9.582 5.899 9.746Zm0 0"/><path fill="#352b55" d="m93.273 271.816 17.2 5.286-7.34 15.668Zm0 0"/><path fill="#fea07d" d="m191.45 184.957-8.188 14.828-12.086-12.015Zm0 0"/><path fill="#fcd080" d="m384 214.895-31.672 38.386 7.977-35.062Zm0 0"/><path fill="#fed080" d="m352.328 253.281-8.527-33.71 16.504-1.352Zm0 0"/><path fill="#fcd080" d="M352.328 253.281 384 214.895v68.652Zm0 0"/><path fill="#fcd080" d="m312.129 335.172 40.2-81.89L384 283.546Zm0 0"/><path fill="#ff9e7d" d="M42.828 45.262 37.344 90.77.016 55.21Zm0 0"/><path fill="#352a55" d="m215.418 136.93-.594-7.188 15.797 1.254ZM255.75 159.66l-11.234-15.898 17.343 1.64Zm0 0"/><path fill="#352a55" d="m244.516 143.762 11.234 15.898-17.398 3.742ZM255.75 159.66l-1.012 15.934-16.386-12.192Zm0 0"/><path fill="#f9cd80" d="m268.496 33.902-59.543 12.403L242.54.012Zm0 0"/><path fill="#3f999d" d="m242.54.012-33.587 46.293L185.313.004Zm0 0"/><path fill="#62a399" d="m185.313.004-14.7 39.476L152.711-.004Zm0 0"/><path fill="#352a55" d="m243.492 130.016 1.024 13.746-13.895-12.766Zm0 0"/><path fill="#fed080" d="m247.191 102.566-3.699 27.45-13.988-10.43Zm0 0"/><path fill="#fecf7f" d="m302.434 76.152-55.243 26.414 21.305-68.664Zm0 0"/><path fill="#4bf2ca" d="m150.707 86.402 21.316 10.434-15.765 15.52Zm0 0"/><path fill="#d1d893" d="m216.563 99.723-20.239 18.011-24.3-20.898Zm0 0"/><path fill="#e9d488" d="m196.324 117.734 20.238-18.011-1.738 30.02Zm0 0"/><path fill="#31f7d6" d="m86.328 304.016 11.84 15.996-29.523-5.059Zm0 0"/><path fill="#22fadc" d="m75.879 286.738-7.234 28.215-24.508-27.41Zm0 0"/><path fill="#25f9da" d="M93.273 271.816 75.88 286.738l-8.43-38.113Zm0 0"/><path fill="#26f9da" d="m75.879 286.738 10.45 17.278-17.684 10.937Zm0 0"/><path fill="#20fadc" d="m75.879 286.738-31.742.805 23.312-38.918Zm0 0"/><path fill="#2df7d7" d="m75.879 286.738 17.394-14.922 9.86 20.954ZM86.328 304.016l-10.45-17.278 27.255 6.032Zm0 0"/><path fill="#42f0cd" d="m77.18 189.207 4.832-1.8 3.922 27.148Zm0 0"/><path fill="#fea97d" d="m112.309 250.816-12.059-4.492 6.89-24.008Zm0 0"/><path fill="#fea17d" d="m110.473 277.102-17.2-5.286 19.036-21Zm0 0"/><path fill="#21f6da" d="m82.012 187.406 32.945 4.285-29.023 22.864Zm0 0"/><path fill="#15fae0" d="m114.957 191.691-7.816 30.625-21.207-7.761Zm0 0"/><path fill="#19fadf" d="m100.25 246.324-14.316-31.77 21.207 7.762Zm0 0"/><path fill="#1dfbde" d="m85.934 214.555 14.316 31.77-32.8 2.3Zm0 0"/><path fill="#1ffadc" d="m85.934 214.555-18.485 34.07-17.633-36.703Zm0 0"/><path fill="#ffcf7f" d="M28.215 208.094 0 196.625l27.055-4.488Zm0 0"/><path fill="#fecf7f" d="m0 196.625.016-53.242L47.39 157.66Zm0 0"/><path fill="#fe9e7d" d="M27.055 192.137 0 196.625l47.39-38.965Zm0 0"/><path fill="#0ffee4" d="m.008 220.68 38.246 16.68L0 261.245Zm0 0"/><path fill="#fecf7f" d="M38.254 237.36.008 220.68l28.207-12.586Zm0 0"/><path fill="#12fde2" d="m0 261.246 44.137 26.297L0 308.086Zm0 0"/><path fill="#11fde3" d="M44.137 287.543 0 261.246l38.254-23.887Zm0 0"/><path fill="#6debbc" d="m178.082 384.004-56.2-.004 14.829-26.918Zm0 0"/><path fill="#6deabb" d="m169.902 347.125 8.18 36.879-41.371-26.922Zm0 0"/><path fill="#12fde3" d="m0 344.113 39.137-.625L-.003 384Zm0 0"/><path fill="#13fde2" d="M39.137 343.488 0 308.086l44.137-20.543Zm0 0"/><path fill="#1ffbdd" d="m-.004 384 39.14-40.512L70.524 384Zm0 0"/><path fill="#42f4ce" d="m112.613 320.762-15.336 29.05.891-29.8Zm0 0"/><path fill="#38f6d3" d="m98.168 320.012-.89 29.8-28.633-34.859Zm0 0"/><path fill="#ffc17f" d="m384 102.055.004 53.879-29.582-30.25Zm0 0"/><path fill="#352a55" d="m256.004 131.094 13.933 2.629-8.078 11.68Zm0 0"/><path fill="#fecf7f" d="m384 214.895-13.121-34.88 13.125-24.081Zm0 0"/><path fill="#ffcb7f" d="m328.227 145.277-10.891-3.023 13.059-30.672Zm0 0"/><path fill="#362b55" d="m334.688 203.582 9.113 15.988-13.73 6.551Zm0 0"/><path fill="#ffce7f" d="m304.707 138.71-15.176-19.554 40.864-7.574Zm0 0"/><path fill="#ffce7f" d="m317.336 142.254-12.629-3.543 25.688-27.129Zm0 0"/><path fill="#fcb47f" d="m268.496 33.902 64.887 1.344-30.95 40.906Zm0 0"/><path fill="#feb47e" d="m383.996.004-50.613 35.242L333.477 0Zm0 0"/><path fill="#f8b581" d="m285.063 0-16.567 33.902L242.54.012Zm0 0"/><path fill="#feb77e" d="m333.383 35.246 50.613 19.59-33.355 29.82Zm0 0"/><path fill="#febd7e" d="m350.64 84.656 33.356-29.82.004 47.219Zm0 0"/><path fill="#ffc07f" d="M350.64 84.656 384 102.055l-29.578 23.629Zm0 0"/><path fill="#febc7e" d="m254.191 229.504 8.852-3.91-2.953 13.656Zm0 0"/><path fill="#352a55" d="m241.469 225.305 6.101 13.78-8.246 4.298Zm0 0"/><path fill="#ff9f7d" d="m241.469 225.305 12.722 4.199-6.62 9.582Zm0 0"/><path fill="#fe9b7c" d="m241.469 225.305-7.54-9.223 7.083-4.508Zm0 0"/><path fill="#63edc1" d="m121.883 384-24.606-34.187 39.434 7.269Zm0 0"/><path fill="#53f1c7" d="M97.277 349.813 121.883 384h-51.36Zm0 0"/><path fill="#77e8b7" d="m155.012 338.453-18.301 18.629 2.047-26.117Zm0 0"/><path fill="#71eaba" d="m136.71 357.082 18.302-18.629 14.89 8.672Zm0 0"/><path fill="#b3de9f" d="m244.004 317.98-42.371 21.282 10.828-28.047Zm0 0"/><path fill="#b3de9f" d="m201.633 339.262 42.37-21.282 3.935 66.012Zm0 0"/><path fill="#c6da97" d="m244.004 317.98 68.125 17.192-64.192 48.82Zm0 0"/><path fill="#e2d58b" d="m244.004 317.98 7.441-34.87 18.828 4.855Zm0 0"/><path fill="#e9d388" d="m251.445 283.11 10.563-21.587 8.265 26.442Zm0 0"/><path fill="#e6d489" d="m262.008 261.523-10.563 21.586-12.703-13.468Zm0 0"/><path fill="#ded68d" d="m214.332 304.285 29.672 13.695-31.543-6.765Zm0 0"/><path fill="#ead388" d="M312.129 335.172 384 384l-70.867.004Zm0 0"/><path fill="#f8d182" d="m384 384-71.871-48.828L384 283.547Zm0 0"/><path fill="#e4d58b" d="m312.129 335.172 1.004 48.832-65.195-.012Zm0 0"/><path fill="#fecf80" d="m343.8 219.57-10.769 15.207-2.96-8.656Zm0 0"/><path fill="#fdd080" d="m352.328 253.281-19.297-18.504 10.77-15.207Zm0 0"/><path fill="#352c56" d="m251.547 251.121 10.46 10.402-23.265 8.118Zm0 0"/><path fill="#fec87f" d="m251.547 251.121-3.977-12.035 12.52.164Zm0 0"/><path fill="#342a55" d="m239.324 243.383 12.223 7.738-12.805 18.52Zm0 0"/><path fill="#352a55" d="m251.547 251.121-12.223-7.738 8.246-4.297Zm0 0"/><path fill="#362b55" d="m264.762 247.254-13.215 3.867 8.543-11.871Zm0 0"/><path fill="#352a55" d="m251.547 251.121 13.215-3.867-2.754 14.27Zm0 0"/><path fill="#fecf7f" d="M28.129.008.016 55.21 0 0Zm0 0"/><path fill="#1cfade" d="m114.695 171.02-5.86.777 2.853-11.41Zm0 0"/><path fill="#4ddcbc" d="m139.113 121.879-16.738-8.582 33.883-.942Zm0 0"/><path fill="#362b55" d="m114.695 171.02 13.914 5.148-9.105 12.328Zm0 0"/><path fill="#ffa07d" d="m128.61 176.168 11.23 6.352-20.336 5.976Zm0 0"/><path fill="#352a55" d="m139.84 182.52-11.23-6.352 7.421-9.203Zm0 0"/><path fill="#fea07d" d="m169.676 172.363 21.773 12.594-20.273 2.813Zm0 0"/><path fill="#352a55" d="m169.676 172.363 24.394 2.14-2.62 10.454Zm0 0"/><path fill="#fd546f" d="m218.672 181.84-24.602-7.336 6.18-9.027Zm0 0"/><path fill="#fd546e" d="m194.07 174.504-23.906-15.531 30.086 6.504Zm0 0"/><path fill="#352a55" d="m170.164 158.973 23.906 15.53-24.394-2.14ZM237.246 174.238l1.106-10.836 16.386 12.192Zm0 0"/><path fill="#372c55" d="m254.738 175.594 1.012-15.934 9.16 13.653Zm0 0"/><path fill="#3a989c" d="m208.953 46.305-38.34-6.825 14.7-39.476Zm0 0"/><path fill="#febf7e" d="m302.434 76.152 48.207 8.504-20.246 26.926Zm0 0"/><path fill="#fecf7f" d="m243.492 130.016 18.703-15.57-6.191 16.648Zm0 0"/><path fill="#fecf7f" d="m247.191 102.566 15.004 11.88-18.703 15.57Zm0 0"/><path fill="#fecf80" d="m262.195 114.445 7.743 19.278-13.934-2.63Zm0 0"/><path fill="#fecf7f" d="m269.938 133.723-7.743-19.278 27.336 4.711ZM302.434 76.152l-40.239 38.293-15.004-11.879Zm0 0"/><path fill="#fece7f" d="m289.531 119.156 12.903-43.004 27.96 35.43Zm0 0"/><path fill="#fecf7f" d="m262.195 114.445 40.239-38.293-12.903 43.004Zm0 0"/><path fill="#fece7f" d="M65.875 31.445 42.828 45.262 28.128.008Zm0 0"/><path fill="#feca7f" d="m65.875 31.445-9.68 22.274-13.367-8.457Zm0 0"/><path fill="#fdca7f" d="m65.875 31.445 13.418 28.332-23.098-6.058Zm0 0"/><path fill="#cdbf88" d="M79.293 59.777 65.875 31.445l71.648 12.395Zm0 0"/><path fill="#8cae92" d="m170.613 39.48-33.09 4.36L152.711-.004Zm0 0"/><path fill="#a7bca0" d="m137.523 43.84 13.184 42.562-71.414-26.625Zm0 0"/><path fill="#c8da96" d="m172.023 96.836 24.301 20.898-14.785 4.375Zm0 0"/><path fill="#fecf80" d="m172.023 96.836-11.265 23.535-4.5-8.016Zm0 0"/><path fill="#c3db98" d="m160.758 120.371 11.265-23.535 9.516 25.273Zm0 0"/><path fill="#c8da96" d="m196.324 117.734-3.84 13.868-10.945-9.493Zm0 0"/><path fill="#e8d489" d="m192.484 131.602 3.84-13.868 18.5 12.008Zm0 0"/><path fill="#edd186" d="m79.293 59.777 35.723 34.16L77.84 111.25Zm0 0"/><path fill="#e2d28a" d="m150.707 86.402-35.691 7.535-35.723-34.16Zm0 0"/><path fill="#4df2c9" d="m122.375 113.297-7.36-19.36 41.243 18.418Zm0 0"/><path fill="#9ee2a8" d="m115.016 93.938 35.691-7.536 5.55 25.953Zm0 0"/><path fill="#18fbe0" d="m99.668 155.945 14.953-5.894-2.933 10.336Zm0 0"/><path fill="#feba7e" d="m114.621 150.05-14.953 5.895-.262-12.922Zm0 0"/><path fill="#11fde3" d="m0 308.086 39.137 35.402L0 344.113Zm0 0"/><path fill="#25f8d9" d="m77.18 189.207 8.754 25.348-36.118-2.633Zm0 0"/><path fill="#fea07d" d="m77.18 189.207-4.067-40.691 8.899 38.89Zm0 0"/><path fill="#352a55" d="m153.094 202.484-13.043-7.57 9.5-12.273Zm0 0"/><path fill="#feb07e" d="m139.84 182.52.21 12.394-20.546-6.418Zm0 0"/><path fill="#ff9e7d" d="m.004 92.04.012-36.83 37.328 35.56Zm0 0"/><path fill="#ffcf7f" d="M37.344 90.77.016 143.383.004 92.039Zm0 0"/><path fill="#ffa57d" d="m77.84 111.25-36.774 12.926-3.722-33.406Zm0 0"/><path fill="#fea57d" d="m37.344 90.77 3.722 33.406-41.05 19.207Zm0 0"/><path fill="#fe9e7d" d="m41.066 124.176 6.325 33.484L.016 143.383Zm0 0"/><path fill="#fea27d" d="M79.293 59.777 37.343 90.77l18.852-37.051Zm0 0"/><path fill="#342a55" d="m190.7 315.746-16.43-4.23 11.238-12.348Zm0 0"/><path fill="#5cefc4" d="m118.07 327.879 18.64 29.203-39.433-7.27Zm0 0"/><path fill="#42f4ce" d="m112.613 320.762 5.457 7.117-20.793 21.933Zm0 0"/><path fill="#60edc1" d="m136.71 357.082-18.64-29.203 20.688 3.086Zm0 0"/><path fill="#fecf7f" d="m370.879 180.016-12.563-18.676 25.688-5.406ZM366.676 201.445 384 214.895l-23.695 3.324Zm0 0"/><path fill="#fecf7f" d="m366.676 201.445 4.203-21.43L384 214.896Zm0 0"/><path fill="#372b55" d="m269.215 157.992 12.394 11.54-16.699 3.78Zm0 0"/><path fill="#352a55" d="m255.75 159.66 13.465-1.668-4.305 15.32ZM329.246 157.559l-1.02-12.282 12.504 6.028ZM233.93 216.082l-2.883 10.191-9.93-12.406ZM231.047 226.273l10.422-.968-2.145 18.078Zm0 0"/><path fill="#392b55" d="m241.469 225.305-10.422.968 2.883-10.191Zm0 0"/><path fill="#fe566f" d="m198.879 200.473-15.617-.688 8.187-14.828Zm0 0"/><path fill="#f9cb7f" d="m198.879 200.473-1.516 15.285-14.101-15.973Zm0 0"/><path fill="#fe977b" d="m233.93 216.082-3.774-8.828 10.856 4.32Zm0 0"/><path fill="#352a55" d="m230.156 207.254 3.774 8.828-12.813-2.215Zm0 0"/><path fill="#fd546f" d="m209.285 188.84 9.387-7 .973 7.414Zm0 0"/><path fill="#352a55" d="m267.68 192.621 7.418-7.625 8.964 8.856Zm0 0"/><path fill="#fefcfe" d="m290.262 179.258-15.164 5.738 6.511-15.465Zm0 0"/><path fill="#352a55" d="m283.86 208.941-16.18-16.32 16.382 1.23Zm0 0"/><path fill="#342a55" d="m154.352 323.969-11.598-7.27 11.68-11.91Zm0 0"/><path fill="#7de8b5" d="m154.352 323.969.66 14.484-16.254-7.488Zm0 0"/><path fill="#333059" d="m142.754 316.7 11.598 7.269-15.594 6.996Zm0 0"/><path fill="#88e6b1" d="m201.633 339.262-23.551 44.742-8.18-36.879Zm0 0"/><path fill="#89e6b0" d="m201.633 339.262-24.543-21.317 13.61-2.199Zm0 0"/><path fill="#342a55" d="m177.09 317.945-2.82-6.43 16.43 4.231Zm0 0"/><path fill="#87e6b1" d="m177.09 317.945 24.543 21.317-31.73 7.863Zm0 0"/><path fill="#fcce7f" d="m333.031 234.777-14.043-3.808 11.082-4.848Zm0 0"/><path fill="#f2d285" d="m321.016 254.672 31.312-1.39-40.2 81.89Zm0 0"/><path fill="#f3d284" d="m321.016 254.672 12.015-19.895 19.297 18.504Zm0 0"/><path fill="#f6d183" d="m321.016 254.672-2.028-23.703 14.043 3.808Zm0 0"/><path fill="#fecb7f" d="m263.043 225.594 8.852 11.886-11.805 1.77Zm0 0"/><path fill="#433558" d="m271.895 237.48-7.133 9.774-4.672-8.004Zm0 0"/><path fill="#fefcfe" d="m299.34 189.988-6.293 12.93-8.985-9.066Zm0 0"/><path fill="#392d56" d="m293.047 202.918-9.188 6.023.204-15.09Zm0 0"/><path fill="#feca82" d="m283.86 208.941 9.187-6.023 4.61 9.613Zm0 0"/><path fill="#352a55" d="m304.281 177.477-11.61-11.88 14.22-.82Zm0 0"/><path fill="#fec680" d="m293.047 202.918 15.121-1.16-10.512 10.773Zm0 0"/><path fill="#fefbfc" d="m308.168 201.758-15.121 1.16 6.293-12.93Zm0 0"/><path fill="#ffa07d" d="M42.828 45.262.016 55.21 28.129.008Zm0 0"/><path fill="#342a55" d="m153.848 163.676-17.817 3.289 4.864-30.012Zm0 0"/><path fill="#352a55" d="m136.031 166.965-7.422 9.203-13.914-5.148Zm0 0"/><path fill="#20f9db" d="m129.852 135.46-30.446 7.563 22.969-29.726Zm0 0"/><path fill="#38f6d3" d="m139.113 121.879-9.261 13.582-7.477-22.164Zm0 0"/><path fill="#362b55" d="m158.559 181.23 1.074 20.368-10.082-18.957Zm0 0"/><path fill="#fec07f" d="m183.262 199.785-23.63 1.813 11.544-13.828Zm0 0"/><path fill="#feb77e" d="m175.305 217.309-15.672-15.711 23.629-1.813Zm0 0"/><path fill="#352a55" d="m169.676 172.363-15.828-8.687 16.316-4.703ZM227.14 145.344l-19.87 6.039 8.148-14.453Zm0 0"/><path fill="#352a55" d="m227.14 145.344-11.722-8.414 15.203-5.934Zm0 0"/><path fill="#352a55" d="m207.27 151.383 19.87-6.04 11.212 18.06ZM244.516 143.762l-17.375 1.582 3.48-14.348Zm0 0"/><path fill="#352a55" d="m227.14 145.344 17.376-1.582-6.164 19.64Zm0 0"/><path fill="#f2516d" d="m237.246 174.238 17.492 1.356-3.113 14.957Zm0 0"/><path fill="#ffc17f" d="m350.64 84.656 3.782 41.028-24.027-14.102Zm0 0"/><path fill="#cfc087" d="M65.875 31.445 100.027.027l37.496 43.813Zm0 0"/><path fill="#353159" d="m151.875 123.828-12.762-1.95 17.145-9.523Zm0 0"/><path fill="#41e6c6" d="m160.758 120.371-8.883 3.457 4.383-11.473Zm0 0"/><path fill="#373158" d="m159.473 140.54-7.598-16.712 8.883-3.457Zm0 0"/><path fill="#352a55" d="m170.164 158.973 10.95-12.465 19.136 18.969ZM215.418 136.93l-22.934-5.328 22.34-1.86Zm0 0"/><path fill="#5feec2" d="m99.406 143.023-7.617-18.039 30.586-11.687Zm0 0"/><path fill="#55f0c6" d="m91.79 124.984 23.226-31.046 7.359 19.359Zm0 0"/><path fill="#dbd68e" d="m115.016 93.938-23.227 31.046-13.95-13.734Zm0 0"/><path fill="#ffae7e" d="m99.406 143.023-26.293 5.493 18.676-23.532Zm0 0"/><path fill="#ebb386" d="m93.445 154.18 6.223 1.765-17.656 31.461Zm0 0"/><path fill="#fea37d" d="m73.113 148.516 20.332 5.664-11.433 33.226Zm0 0"/><path fill="#fda87e" d="m99.668 155.945-6.223-1.765 5.961-11.157Zm0 0"/><path fill="#ffa17d" d="m93.445 154.18-20.332-5.664 26.293-5.493Zm0 0"/><path fill="#ff9e7d" d="m47.39 157.66-6.324-33.484L77.84 111.25Zm0 0"/><path fill="#fdc17f" d="m77.18 189.207-27.364 22.715 8.98-37.828Zm0 0"/><path fill="#fea27d" d="m49.816 211.922-11.562 25.437-10.04-29.265Zm0 0"/><path fill="#ff9e7d" d="m27.055 192.137 22.761 19.785-21.601-3.828Zm0 0"/><path fill="#ff9f7d" d="m49.816 211.922-22.761-19.785 31.742-18.043Zm0 0"/><path fill="#5feec2" d="m58.797 174.094 14.316-25.578 4.067 40.691Zm0 0"/><path fill="#fecf7f" d="m135.105 270.43-24.632 6.672 1.836-26.286Zm0 0"/><path fill="#ffcd7f" d="m135.105 270.43-22.796-19.614 18.921-7.859Zm0 0"/><path fill="#352a55" d="m174.27 311.516-5.407-18.668 16.645 6.32Zm0 0"/><path fill="#fecd7f" d="m112.309 250.816-5.168-28.5 24.09 20.641Zm0 0"/><path fill="#feaf7e" d="m124.938 204.145-9.981-12.454 4.547-3.195Zm0 0"/><path fill="#feae7d" d="m140.05 194.914-15.113 9.23-5.433-15.648Zm0 0"/><path fill="#4bedc9" d="m114.957 191.691-.262-20.671 4.809 17.476Zm0 0"/><path fill="#8be3af" d="m114.695 171.02.262 20.671-6.121-19.894Zm0 0"/><path fill="#faa57f" d="m108.836 171.797 6.121 19.894-32.945-4.285Zm0 0"/><path fill="#362b55" d="m153.094 202.484-3.543-19.843 10.082 18.957Zm0 0"/><path fill="#fecf7f" d="M77.84 111.25 37.344 90.77l41.949-30.993Zm0 0"/><path fill="#2ff7d6" d="m86.328 304.016 16.805-11.246-4.965 27.242Zm0 0"/><path fill="#fea17d" d="m103.133 292.77 7.34-15.668 12.02 15.066Zm0 0"/><path fill="#fe9f7d" d="m120.25 304.328-17.117-11.558 19.36-.602Zm0 0"/><path fill="#342b55" d="m128.781 318.281 13.973-1.582-3.996 14.266Zm0 0"/><path fill="#5dedc2" d="m118.07 327.879 10.711-9.598 9.977 12.684Zm0 0"/><path fill="#343059" d="m128.781 318.281-10.71 9.598-5.458-7.117Zm0 0"/><path fill="#ffcd7f" d="m354.422 125.684 3.894 35.656-17.586-10.035Zm0 0"/><path fill="#fecd7f" d="m358.316 161.34-3.894-35.656 29.582 30.25Zm0 0"/><path fill="#ffcf7f" d="m328.227 145.277 26.195-19.593-13.692 25.62Zm0 0"/><path fill="#ffce7f" d="m354.422 125.684-26.195 19.593 2.168-33.695Zm0 0"/><path fill="#352a55" d="m358.316 161.34-6.246 7.074-11.34-17.11Zm0 0"/><path fill="#352a55" d="m352.07 168.414 6.246-7.074 12.563 18.676Zm0 0"/><path fill="#4a3b59" d="m334.688 203.582 18.308 6.035-9.195 9.953Zm0 0"/><path fill="#fecf80" d="m343.8 219.57 9.196-9.953 7.309 8.602Zm0 0"/><path fill="#fecf7f" d="m352.996 209.617 13.68-8.172-6.371 16.774Zm0 0"/><path fill="#352a55" d="m315.395 154.09 13.851 3.469-7.61 14.898ZM328.227 145.277l-12.832 8.813 1.94-11.836Zm0 0"/><path fill="#352a55" d="m329.246 157.559-13.851-3.47 12.832-8.812Zm0 0"/><path fill="#fecf7f" d="m285.293 135.668-15.356-1.945 19.594-14.567Zm0 0"/><path fill="#fecf7f" d="m304.707 138.71-19.414-3.042 4.238-16.512Zm0 0"/><path fill="#352d57" d="m292.672 165.598 9.012-10.461 5.207 9.64Zm0 0"/><path fill="#352a55" d="m269.938 133.723 5.53 13.047-13.609-1.368ZM285.293 135.668l-9.824 11.102-5.531-13.047Zm0 0"/><path fill="#fece80" d="m275.469 146.77 9.824-11.102-1.2 14.934Zm0 0"/><path fill="#352a55" d="m290.262 179.258-8.653-9.727 11.063-3.933Zm0 0"/><path fill="#feb67e" d="m333.477 0-.094 35.246L285.063 0Zm0 0"/><path fill="#feb77e" d="m383.996 54.836-50.613-19.59L383.996.004Zm0 0"/><path fill="#fecf7f" d="m207.824 257.883 18.207 10.625-12.699 6.383Zm0 0"/><path fill="#352a55" d="m199.66 296.867 10.653-7.449 4.019 14.867Zm0 0"/><path fill="#fecf7f" d="m210.313 289.418-15.844-10.582 18.863-3.945Zm0 0"/><path fill="#352a55" d="m210.313 289.418-10.653 7.45-5.191-18.032Zm0 0"/><path fill="#d9d78f" d="m214.332 304.285 9.012-16.148 20.66 29.843Zm0 0"/><path fill="#342b56" d="m210.313 289.418 13.03-1.281-9.011 16.148Zm0 0"/><path fill="#342c56" d="m226.031 268.508-2.687 19.629-10.012-13.246Zm0 0"/><path fill="#342b56" d="m223.344 288.137-13.031 1.281 3.019-14.527Zm0 0"/><path fill="#fe546f" d="m209.285 188.84-10.406 11.633-7.43-15.516Zm0 0"/><path fill="#352a55" d="m194.07 174.504 15.215 14.336-17.836-3.883Zm0 0"/><path fill="#fd546f" d="m209.285 188.84-15.215-14.336 24.602 7.336Zm0 0"/><path fill="#fd546e" d="m241.52 191.082-21.875-1.828-.973-7.414Zm0 0"/><path fill="#fe546f" d="m237.246 174.238 4.274 16.844-22.848-9.242Zm0 0"/><path fill="#72375d" d="m241.52 191.082-4.274-16.844 14.379 16.313Zm0 0"/><path fill="#352a55" d="m237.246 174.238-36.996-8.761 38.102-2.075Zm0 0"/><path fill="#352a55" d="m200.25 165.477 7.02-14.094 31.082 12.02Zm0 0"/><path fill="#fe546f" d="m200.25 165.477 36.996 8.761-18.574 7.602Zm0 0"/><path fill="#fe9d7c" d="m254.172 210.867 8.871 14.727-8.852 3.91Zm0 0"/><path fill="#fe9e7d" d="m245.758 198.379 8.414 12.488-13.16.707Zm0 0"/><path fill="#fe9e7c" d="m254.172 210.867-12.703 14.438-.457-13.73ZM241.469 225.305l12.703-14.438.02 18.637Zm0 0"/><path fill="#feb67e" d="m271.895 237.48 4.527-19.199 9.926 9.742Zm0 0"/><path fill="#fea17d" d="m276.422 218.281-4.527 19.2-8.852-11.887Zm0 0"/><path fill="#342a55" d="m142.754 316.7-5.2-10.868 16.88-1.043Zm0 0"/><path fill="#b5dd9e" d="m178.082 384.004 23.55-44.742 46.305 44.73Zm0 0"/><path fill="#7de8b5" d="m155.012 338.453 10.015-5.547 4.875 14.219Zm0 0"/><path fill="#8de5af" d="m165.027 332.906 12.063-14.96-7.188 29.179Zm0 0"/><path fill="#78e9b8" d="m154.352 323.969 10.675 8.937-10.015 5.547Zm0 0"/><path fill="#342a55" d="m177.09 317.945-12.063 14.961 9.243-21.39Zm0 0"/><path fill="#352a55" d="m199.66 296.867-14.152 2.301 8.96-20.332Zm0 0"/><path fill="#342a55" d="m200.414 305.29-.754-8.423 14.672 7.418Zm0 0"/><path fill="#93e4ac" d="m200.414 305.29 1.219 33.972-10.934-23.516Zm0 0"/><path fill="#91e4ad" d="m201.633 339.262-1.219-33.973 12.047 5.926Zm0 0"/><path fill="#a0e1a6" d="m200.414 305.29 13.918-1.005-1.871 6.93Zm0 0"/><path fill="#ead388" d="m292.328 268.102 19.8 67.07-41.855-47.207Zm0 0"/><path fill="#e7d489" d="m292.328 268.102 28.688-13.43-8.887 80.5Zm0 0"/><path fill="#e5d48a" d="m262.008 261.523 30.32 6.579-22.055 19.863Zm0 0"/><path fill="#352a55" d="m290.262 179.258 14.02-1.781-4.942 12.511Zm0 0"/><path fill="#fefcfe" d="m290.262 179.258 9.078 10.73-15.277 3.864Zm0 0"/><path fill="#352a55" d="m304.281 177.477-14.02 1.78 2.41-13.66Zm0 0"/><path fill="#fefcfe" d="m275.098 184.996 15.164-5.738-6.2 14.594Zm0 0"/><path fill="#352a55" d="m304.281 177.477 12.496 14.316-17.437-1.805Zm0 0"/><path fill="#382c55" d="m316.777 191.793-8.609 9.965-8.828-11.77Zm0 0"/><path fill="#4b3c59" d="m323.797 206.113 10.89-2.531-4.617 22.54Zm0 0"/><path fill="#fec27f" d="m316.777 191.793 7.02 14.32-15.629-4.355Zm0 0"/><path fill="#fea37d" d="m129.852 135.46-15.23 14.59-15.216-7.027Zm0 0"/><path fill="#352a55" d="m149.55 182.64-9.71-.12-3.809-15.555Zm0 0"/><path fill="#352a55" d="m153.848 163.676-4.297 18.965-13.52-15.676Zm0 0"/><path fill="#352a55" d="m149.55 182.64 4.298-18.964 4.71 17.554Zm0 0"/><path fill="#fec17f" d="m159.633 201.598-1.074-20.368 12.617 6.54Zm0 0"/><path fill="#fea17d" d="m158.559 181.23 11.117-8.867 1.5 15.407Zm0 0"/><path fill="#352a55" d="m158.559 181.23-4.711-17.554 15.828 8.687Zm0 0"/><path fill="#feb67e" d="m333.383 35.246 17.258 49.41-48.207-8.504Zm0 0"/><path fill="#fecd80" d="M100.027.027 65.875 31.445 28.129.008Zm0 0"/><path fill="#2e95a1" d="m172.023 96.836-1.41-57.356 38.34 6.825Zm0 0"/><path fill="#4d9e9d" d="m150.707 86.402 19.906-46.922 1.41 57.356Zm0 0"/><path fill="#3d999d" d="m137.523 43.84 33.09-4.36-19.906 46.922Zm0 0"/><path fill="#31f2d2" d="m140.895 136.953-11.043-1.492 9.261-13.582Zm0 0"/><path fill="#352b55" d="m151.875 123.828-10.98 13.125-1.782-15.074Zm0 0"/><path fill="#342a55" d="m159.473 140.54 21.64 5.968-10.949 12.465Zm0 0"/><path fill="#c6da97" d="m176.387 134.477-15.63-14.106 20.782 1.738Zm0 0"/><path fill="#bedc9b" d="m176.387 134.477-16.914 6.062 1.285-20.168Zm0 0"/><path fill="#cada95" d="m192.484 131.602-16.097 2.875 5.152-12.368Zm0 0"/><path fill="#352a55" d="m181.113 146.508-4.726-12.031 16.097-2.875Zm0 0"/><path fill="#352a55" d="m159.473 140.54 16.914-6.063 4.726 12.03ZM207.27 151.383l-26.157-4.875 11.371-14.906Zm0 0"/><path fill="#352a55" d="m215.418 136.93-8.148 14.453-14.786-19.781ZM181.113 146.508l26.157 4.875-7.02 14.094Zm0 0"/><path fill="#ffa17d" d="m47.39 157.66 44.4-32.676-18.677 23.532Zm0 0"/><path fill="#ff9e7d" d="m77.84 111.25 13.95 13.734-44.4 32.676ZM58.797 174.094l-31.742 18.043L47.39 157.66Zm0 0"/><path fill="#fea27d" d="m168.863 292.848-7.386 17.343-7.043-5.402Zm0 0"/><path fill="#362b55" d="m161.477 310.191 7.386-17.343 5.407 18.668Zm0 0"/><path fill="#342a55" d="m165.027 332.906-3.55-22.715 12.793 1.325Zm0 0"/><path fill="#342a55" d="m161.477 310.191-7.125 13.778.082-19.18Zm0 0"/><path fill="#342d57" d="m161.477 310.191 3.55 22.715-10.675-8.937Zm0 0"/><path fill="#ffcf7f" d="m107.14 222.316 30.856 5.172-6.766 15.469Zm0 0"/><path fill="#352a55" d="m153.094 202.484-15.098 25.004 2.055-32.574Zm0 0"/><path fill="#fe9f7d" d="m124.938 204.145-17.797 18.171 7.816-30.625Zm0 0"/><path fill="#fea57d" d="m137.996 227.488-13.059-23.343 15.114-9.23Zm0 0"/><path fill="#ffcb7f" d="m124.938 204.145 13.058 23.343-30.855-5.172Zm0 0"/><path fill="#352a55" d="m112.367 312.543 16.414 5.738-16.168 2.48Zm0 0"/><path fill="#352a55" d="m128.781 318.281-16.414-5.738 7.883-8.215ZM112.367 312.543l-9.234-19.773 17.117 11.558ZM112.367 312.543l.246 8.219-14.445-.75Zm0 0"/><path fill="#342a55" d="m103.133 292.77 9.234 19.773-14.199 7.469Zm0 0"/><path fill="#352a55" d="m338.652 166.781-9.406-9.222 11.484-6.254Zm0 0"/><path fill="#52425b" d="m352.07 168.414-13.418-1.633 2.078-15.476Zm0 0"/><path fill="#382c55" d="m329.246 157.559 9.406 9.222-17.015 5.676Zm0 0"/><path fill="#352a55" d="m321.637 172.457 17.015-5.676-1.918 13.04Zm0 0"/><path fill="#fecf7f" d="m338.652 166.781 12.305 14.38-14.223-1.34Zm0 0"/><path fill="#fece7f" d="m350.957 181.16-12.305-14.379 13.418 1.633Zm0 0"/><path fill="#352a55" d="m350.957 181.16 1.113-12.746 18.809 11.602ZM315.395 154.09l-10.688-15.38 12.629 3.544Zm0 0"/><path fill="#fefcfe" d="m278.484 156.043-3.015-9.273 8.625 3.832Zm0 0"/><path fill="#352a55" d="m278.484 156.043 3.125 13.488-12.394-11.539Zm0 0"/><path fill="#fefcfe" d="m287.21 159.04-8.726-2.997 5.61-5.441Zm0 0"/><path fill="#fefcfe" d="m278.484 156.043 8.727 2.996-5.602 10.492Zm0 0"/><path fill="#fefcfe" d="m287.21 159.04 14.474-3.903-9.012 10.46Zm0 0"/><path fill="#fefcfe" d="m281.61 169.531 5.6-10.492 5.462 6.559Zm0 0"/><path fill="#ddd68e" d="m234.715 286.902 16.73-3.793-7.441 34.871Zm0 0"/><path fill="#d3d892" d="m234.715 286.902 4.027-17.261 12.703 13.468Zm0 0"/><path fill="#d8d78f" d="m223.344 288.137 11.37-1.235 9.29 31.078Zm0 0"/><path fill="#352b55" d="m238.742 269.64-4.027 17.262-8.684-18.394Zm0 0"/><path fill="#352b55" d="m234.715 286.902-11.371 1.235 2.687-19.63Zm0 0"/><path fill="#ffcf7f" d="m194.469 278.836 13.355-20.953 5.508 17.008Zm0 0"/><path fill="#fece7f" d="m228.367 245.492-20.543 12.39 5.742-25.163Zm0 0"/><path fill="#fe9e7d" d="m228.367 245.492 2.68-19.219 8.277 17.11Zm0 0"/><path fill="#fea17d" d="m228.367 245.492-14.8-12.773 17.48-6.446Zm0 0"/><path fill="#352a55" d="m229.887 257.531 8.855 12.11-12.71-1.133Zm0 0"/><path fill="#fece7f" d="m207.824 257.883 22.063-.352-3.856 10.977Zm0 0"/><path fill="#342a55" d="m238.742 269.64-8.855-12.109 9.437-14.148Zm0 0"/><path fill="#352a55" d="m229.887 257.531-1.52-12.039 10.957-2.11Zm0 0"/><path fill="#ffbd7e" d="m228.367 245.492 1.52 12.04-22.063.35Zm0 0"/><path fill="#3a2d56" d="m221.117 213.867-1.676-15.23 10.715 8.617Zm0 0"/><path fill="#fe546f" d="m241.52 191.082-22.079 7.555.204-9.383Zm0 0"/><path fill="#fe556f" d="m219.441 198.637 22.079-7.555-11.364 16.172Zm0 0"/><path fill="#fe5f71" d="m219.441 198.637-10.156-9.797 10.36.414Zm0 0"/><path fill="#ffcc7f" d="m221.117 213.867-7.55 18.852-16.204-16.961Zm0 0"/><path fill="#fec67f" d="m231.047 226.273-17.48 6.446 7.55-18.852Zm0 0"/><path fill="#352a55" d="m209.285 188.84-1.812 15.484-8.594-3.851Zm0 0"/><path fill="#feca7f" d="m198.879 200.473 8.594 3.851-10.11 11.434Zm0 0"/><path fill="#fec97f" d="m207.473 204.324 13.644 9.543-23.754 1.89Zm0 0"/><path fill="#352a55" d="m219.441 198.637-11.968 5.687 1.812-15.484Zm0 0"/><path fill="#352c56" d="m207.473 204.324 11.968-5.687 1.676 15.23Zm0 0"/><path fill="#4b3859" d="m245.758 198.379-4.238-7.297 10.105-.531Zm0 0"/><path fill="#fd536e" d="m241.52 191.082 4.238 7.297-15.602 8.875Zm0 0"/><path fill="#fe9d7c" d="m230.156 207.254 15.602-8.875-4.746 13.195Zm0 0"/><path fill="#352a55" d="m251.625 190.55 2.547 20.317-8.414-12.488ZM137.555 305.832l-17.305-1.504 2.242-12.16Zm0 0"/><path fill="#fec27f" d="m135.855 289.82 1.7 16.012-15.063-13.664Zm0 0"/><path fill="#352a55" d="m137.555 305.832-8.774 12.45-8.531-13.954Zm0 0"/><path fill="#352a55" d="m128.781 318.281 8.774-12.449 5.199 10.867Zm0 0"/><path fill="#ffce7f" d="m135.105 270.43-12.613 21.738-12.02-15.066Zm0 0"/><path fill="#342a55" d="m195.379 303.457 5.035 1.832-9.715 10.457Zm0 0"/><path fill="#342a55" d="m200.414 305.29-5.035-1.833 4.281-6.59Zm0 0"/><path fill="#352b55" d="m195.379 303.457-4.68 12.29-5.191-16.579Zm0 0"/><path fill="#352a55" d="m195.379 303.457-9.871-4.289 14.152-2.3ZM298.969 225.273l.781 15.227-13.402-12.477Zm0 0"/><path fill="#372c55" d="m299.75 240.5-.781-15.227 20.02 5.696Zm0 0"/><path fill="#f5d183" d="M321.016 254.672 299.75 240.5l19.238-9.531Zm0 0"/><path fill="#ecd387" d="m292.328 268.102 7.422-27.602 21.266 14.172Zm0 0"/><path fill="#fec780" d="m276.422 218.281 12.023.235-2.097 9.507Zm0 0"/><path fill="#fec77f" d="m288.445 218.516 10.524 6.757-12.621 2.75Zm0 0"/><path fill="#fecb7f" d="m298.969 225.273-10.524-6.757 9.211-5.985Zm0 0"/><path fill="#fecd7f" d="m288.445 218.516-4.586-9.575 13.797 3.59Zm0 0"/><path fill="#fecc7f" d="m288.445 218.516-12.023-.235 7.437-9.34Zm0 0"/><path fill="#f8c27e" d="m308.168 201.758 6.691 12.129-17.203-1.356Zm0 0"/><path fill="#3a2e56" d="m314.86 213.887-15.891 11.386-1.313-12.742Zm0 0"/><path fill="#fec57f" d="m323.797 206.113-8.938 7.774-6.691-12.13Zm0 0"/><path fill="#8a6e67" d="m314.86 213.887 8.937-7.774 6.273 20.008Zm0 0"/><path fill="#372c55" d="m318.988 230.969-4.129-17.082 15.211 12.234Zm0 0"/><path fill="#352a55" d="m298.969 225.273 15.89-11.386 4.13 17.082ZM281.031 252.176l-9.136-14.696 14.453-9.457Zm0 0"/><path fill="#352a55" d="m271.895 237.48 9.136 14.696-16.27-4.922ZM299.75 240.5l-18.719 11.676 5.317-24.153Zm0 0"/><path fill="#f4d184" d="M281.031 252.176 299.75 240.5l-7.422 27.602Zm0 0"/><path fill="#352a55" d="m264.762 247.254 16.27 4.922-19.024 9.347Zm0 0"/><path fill="#e8d389" d="m281.031 252.176 11.297 15.926-30.32-6.579Zm0 0"/><path fill="#352a55" d="m321.637 172.457-17.356 5.02 2.61-12.7ZM321.637 172.457l-4.86 19.336-12.496-14.316Zm0 0"/><path fill="#febc7e" d="m323.797 206.113 2.941-15.918 7.95 13.387Zm0 0"/><path fill="#fec07f" d="m326.738 190.195-2.941 15.918-7.02-14.32Zm0 0"/><path fill="#fea37d" d="m122.117 156.95 7.735-21.49 11.043 1.493Zm0 0"/><path fill="#fea27d" d="m122.117 156.95-7.496-6.9 15.23-14.59Zm0 0"/><path fill="#352a55" d="m136.031 166.965-13.914-10.016 18.778-19.996Zm0 0"/><path fill="#fca47e" d="m122.117 156.95 13.914 10.015-21.336 4.055Zm0 0"/><path fill="#15fce1" d="m122.117 156.95-7.422 14.07-3.007-10.633Zm0 0"/><path fill="#18fce0" d="m114.621 150.05 7.496 6.9-10.43 3.437Zm0 0"/><path fill="#352a55" d="m149.55 182.64-9.5 12.274-.21-12.394Zm0 0"/><path fill="#fc556f" d="m265.3 175.852-10.562-.258 10.172-2.281Zm0 0"/><path fill="#442e57" d="m265.3 175.852 2.38 16.77-12.942-17.028Zm0 0"/><path fill="#fefcfe" d="m281.61 169.531-16.31 6.32-.39-2.538ZM275.098 184.996l-9.797-9.144 16.308-6.32Zm0 0"/><path fill="#352a55" d="m267.68 192.621-2.38-16.77 9.798 9.145ZM267.68 192.621l-16.055-2.07 3.113-14.957ZM153.848 163.676l5.625-23.137 10.691 18.434Zm0 0"/><path fill="#32f6d5" d="m73.113 148.516-14.316 25.578L47.39 157.66Zm0 0"/><path fill="#382b55" d="m137.555 305.832 11.507-17.207 5.372 16.164Zm0 0"/><path fill="#fe9f7d" d="m149.063 288.625-11.508 17.207-1.7-16.012Zm0 0"/><path fill="#feab7d" d="m149.063 288.625 19.8 4.223-14.43 11.941Zm0 0"/><path fill="#fecc7f" d="m149.063 288.625 10.414-15.148 9.386 19.37Zm0 0"/><path fill="#ffcf7f" d="m159.477 273.477 19.648 9.066-10.262 10.305Zm0 0"/><path fill="#fecf7f" d="m168.863 292.848 10.262-10.305 6.383 16.625Zm0 0"/><path fill="#fecb7f" d="m185.508 299.168-6.383-16.625 15.344-3.707Zm0 0"/><path fill="#362a55" d="m352.996 209.617 1.559-18.894 12.12 10.722Zm0 0"/><path fill="#352a55" d="m366.676 201.445-12.121-10.722 16.324-10.707Zm0 0"/><path fill="#352a55" d="m354.555 190.723-3.598-9.563 19.922-1.144Zm0 0"/><path fill="#fefcfe" d="m301.684 155.137-14.473 3.902-3.117-8.437Zm0 0"/><path fill="#fecf80" d="m285.293 135.668 16.39 19.469-17.59-4.535Zm0 0"/><path fill="#352a55" d="m301.684 155.137-16.391-19.469 19.414 3.043Zm0 0"/><path fill="#352a55" d="m315.395 154.09-13.711 1.047 3.023-16.426ZM315.395 154.09l-8.504 10.687-5.207-9.64Zm0 0"/><path fill="#352a55" d="m306.89 164.777 8.505-10.687 6.242 18.367ZM275.469 146.77l-6.254 11.222-7.356-12.59Zm0 0"/><path fill="#352a55" d="m278.484 156.043-9.27 1.95 6.255-11.223Zm0 0"/><path fill="#352a55" d="m269.215 157.992-13.465 1.668 6.11-14.258Zm0 0"/><path fill="#fece7f" d="m197.363 215.758-22.058 1.55 7.957-17.523Zm0 0"/><path fill="#392d55" d="m265.145 207.797 11.277 10.484-13.379 7.313Zm0 0"/><path fill="#352a55" d="m254.172 210.867 10.973-3.07-2.102 17.797Zm0 0"/><path fill="#362b55" d="m251.625 190.55 13.52 17.247-10.973 3.07Zm0 0"/><path fill="#3a2e56" d="m276.422 218.281-11.277-10.484 18.714 1.144Zm0 0"/><path fill="#352a55" d="m283.86 208.941-18.715-1.144 2.535-15.176ZM265.145 207.797l-13.52-17.246 16.055 2.07Zm0 0"/><path fill="#3a2e56" d="m326.738 190.195-5.101-17.738 15.097 7.363Zm0 0"/><path fill="#362a55" d="m321.637 172.457 5.101 17.738-9.96 1.598Zm0 0"/><path fill="#352a55" d="m159.473 140.54-18.578-3.587 10.98-13.125Zm0 0"/><path fill="#352a55" d="m159.473 140.54-5.625 23.136-12.953-26.723Zm0 0"/><path fill="#ffce7f" d="m181.5 263.441-2.375 19.102-19.648-9.066Zm0 0"/><path fill="#fecf7f" d="m181.5 263.441 26.324-5.558-13.355 20.953Zm0 0"/><path fill="#ffcf7f" d="m179.125 282.543 2.375-19.102 12.969 15.395Zm0 0"/><path fill="#fea07d" d="m137.996 227.488 15.629 21.614-22.395-6.145Zm0 0"/><path fill="#ff9f7d" d="m153.625 249.102-18.52 21.328-3.875-27.473Zm0 0"/><path fill="#fecf7f" d="M187.293 240.809 181.5 263.44l-27.875-14.34Zm0 0"/><path fill="#6c5560" d="m339.82 190.895 13.176 18.722-18.308-6.035Zm0 0"/><path fill="#fecb7f" d="m339.82 190.895 14.735-.172-1.559 18.894ZM326.738 190.195l13.082.7-5.132 12.687Zm0 0"/><path fill="#fece7f" d="m339.82 190.895-13.082-.7 9.996-10.375Zm0 0"/><path fill="#fecc7f" d="m350.957 181.16-11.137 9.735-3.086-11.075Zm0 0"/><path fill="#fec57f" d="m354.555 190.723-14.735.172 11.137-9.735Zm0 0"/><path fill="#ffcc7f" d="m122.492 292.168 12.613-21.738.75 19.39Zm0 0"/><path fill="#fea27d" d="m135.105 270.43 13.958 18.195-13.208 1.195Zm0 0"/><path fill="#fe9f7d" d="m149.063 288.625-13.958-18.195 24.372 3.047ZM154.723 244.258l-1.098 4.844-15.629-21.614Zm0 0"/><path fill="#352a55" d="m153.094 202.484 1.629 41.774-16.727-16.77Zm0 0"/><path fill="#352a55" d="m154.723 244.258-1.63-41.774 6.54-.886Zm0 0"/><path fill="#feb67e" d="m175.305 217.309-20.582 26.949 4.91-42.66Zm0 0"/><path fill="#fecd7f" d="m187.293 240.809-32.57 3.449 20.582-26.95Zm0 0"/><path fill="#fecd7f" d="m154.723 244.258 32.57-3.45-33.668 8.294Zm0 0"/><path fill="#fece80" d="m197.363 215.758-10.07 25.05-11.988-23.5Zm0 0"/><path fill="#fecf7f" d="m187.293 240.809 10.07-25.051 16.203 16.96Zm0 0"/><path fill="#fece7f" d="m153.625 249.102 27.875 14.34-22.023 10.035Zm0 0"/><path fill="#ff9e7d" d="m135.105 270.43 18.52-21.328 5.852 24.375Zm0 0"/><path fill="#fecf7f" d="m207.824 257.883-20.531-17.074 26.273-8.09Zm0 0"/><path fill="#fecf7f" d="m181.5 263.441 5.793-22.632 20.531 17.074Zm0 0"/></svg>