<svg xmlns="http://www.w3.org/2000/svg" width="512" height="512" viewBox="0 0 384 384"><path fill="#dfd785" d="m267.7 339.668-31.837-31.258 42.907-16.07Zm0 0"/><path fill="#eac275" d="M72.234 61.79 33.61 55.304l8.543-24.395Zm0 0"/><path fill="#ded684" d="m202.938 53.11-24.43-22.696 45.441 2.281ZM212.938 130.813l17.68-10.434-1.88 10.754Zm0 0"/><path fill="#202215" d="m229.504 59.3-26.566-6.19 21.011-20.415Zm0 0"/><path fill="#202215" d="m202.938 53.11 26.566 6.19-40.059 18.048Zm0 0"/><path fill="#ded684" d="m112.266 175.258-13.45 15.406-9.574-13.832ZM67.348 252.242l-31.125-14.957 19.882-22.453Zm0 0"/><path fill="#dfd785" d="M328.617 313.523 267.7 339.668l11.07-47.328Zm0 0"/><path fill="#eac275" d="M88.402-.008 42.152 30.91 54.09.004Zm0 0"/><path fill="#202215" d="m250.32 142.605 11.36-10.097-3.207 15.293Zm0 0"/><path fill="#ded684" d="m222.523 97.95 8.094 22.429-17.68 10.433ZM230.617 120.379l14.098 10.27-15.977.484Zm0 0"/><path fill="#202215" d="m250.32 142.605-5.605-11.957 16.965 1.86Zm0 0"/><path fill="#ded684" d="m229.504 59.3-6.98 38.65-33.079-20.602ZM111.656 46.191 88.402-.008 153.988 0Zm0 0"/><path fill="#ebc174" d="m33.406 93.043.203-37.738 38.625 6.484Zm0 0"/><path fill="#ded684" d="m86.652 277.586 9.637-.41 5.566 19.324Zm0 0"/><path fill="#ded684" d="m86.652 277.586 8.082-11.793 1.555 11.383ZM94.734 265.793l-8.082 11.793-19.304-25.344Zm0 0"/><path fill="#ded684" d="m101.012 248.195-6.278 17.598-27.386-13.55Zm0 0"/><path fill="#202215" d="m96.781 163.098 15.485 12.16-23.024 1.574Zm0 0"/><path fill="#ddd584" d="m112.266 175.258-15.485-12.16 21.762-19.93Zm0 0"/><path fill="#ded684" d="m.008 217.703 22.984 13.45L0 261.308Zm0 0"/><path fill="#fe7b34" d="m.008 217.703 30.422 3.23-7.438 10.22Zm0 0"/><path fill="#fd7d35" d="m36.223 237.285-5.793-16.351 25.675-6.102Zm0 0"/><path fill="#dfd785" d="m37.324 282.844-1.101-45.559 31.125 14.957Zm0 0"/><path fill="#ded684" d="M167.992 384H95.72l18.105-27.344Zm0 0"/><path fill="#dfd785" d="M95.719 384 55.8 335.785l58.023 20.871Zm0 0"/><path fill="#ded684" d="m317.133 141.23-5.399-24.68 23.579-1.597Zm0 0"/><path fill="#f39949" d="m245.578 237.664 6.3-6.672 5.575 9.363Zm0 0"/><path fill="#202215" d="m96.29 277.176 14.312-.38-8.747 19.704Zm0 0"/><path fill="#202215" d="m94.734 265.793 15.868 11.004-14.313.379Zm0 0"/><path fill="#f39848" d="m178.797 209.95-11.848-24.88 17.196 11.22Zm0 0"/><path fill="#dfd785" d="m302.574 384 26.043-70.477L384 384Zm0 0"/><path fill="#ded684" d="M384.004 215.355 352.27 248.11l8.37-30.84Zm0 0"/><path fill="#ded684" d="m352.27 248.11-9.997-29.083 18.368-1.757Zm0 0"/><path fill="#dfd785" d="m328.617 313.523 23.653-65.414L384 276.742Zm0 0"/><path fill="#202215" d="m209.906 140.703 3.031-9.89 15.801.32ZM250.32 142.605l8.153 5.196-9.797 6.383Zm0 0"/><path fill="#ded684" d="m260.441 40.29-36.492-7.595L244.082 0Zm0 0"/><path fill="#ddd584" d="M260.441 40.29 229.504 59.3l-5.555-26.605Zm0 0"/><path fill="#ded684" d="m199.7 0 24.25 32.695-45.442-2.28Zm0 0"/><path fill="#ded684" d="M223.95 32.695 199.7 0h44.382Zm0 0"/><path fill="#202215" d="m233.39 156.496 7.368-11.289 7.918 8.977ZM240.758 145.207l9.562-2.602-1.644 11.579ZM240.758 145.207l3.957-14.559 5.605 11.957Zm0 0"/><path fill="#202215" d="m244.715 130.648-3.957 14.559-12.02-14.074Zm0 0"/><path fill="#ded684" d="m247.84 110.152-3.125 20.496-14.098-10.27Zm0 0"/><path fill="#dfd684" d="m222.523 97.95 25.317 12.202-17.223 10.227ZM258.027 78.86 229.504 59.3l30.937-19.01Zm0 0"/><path fill="#ded684" d="m258.027 78.86-35.504 19.09 6.98-38.65Zm0 0"/><path fill="#dfd684" d="m315.598 64.652-57.57 14.207 2.413-38.57Zm0 0"/><path fill="#ded684" d="m258.027 78.86 57.57-14.208-33.12 44.965Zm0 0"/><path fill="#d7cf80" d="m169.426 102.746-2.703-29.324 22.722 3.926Zm0 0"/><path fill="#b0aa69" d="m152.266 84.867 17.16 17.88-13.149 7.132Zm0 0"/><path fill="#c3bc74" d="m169.426 102.746-17.16-17.879 14.457-11.445Zm0 0"/><path fill="#ded684" d="m222.523 97.95-22.695 10.632-10.383-31.234Zm0 0"/><path fill="#ded684" d="m199.828 108.582 22.695-10.633-9.585 32.864Zm0 0"/><path fill="#fe7731" d="m185.598 160.055 5.566 13.82-14.488-12.82Zm0 0"/><path fill="#ded684" d="M36.223 237.285 0 261.31l22.992-30.157Zm0 0"/><path fill="#dfd785" d="M72.145 294.742 55.8 335.785l-18.477-52.941Zm0 0"/><path fill="#ded684" d="m86.652 277.586-14.507 17.156-4.797-42.5Zm0 0"/><path fill="#dfd785" d="m72.145 294.742 27.507 27.418-43.851 13.625Zm0 0"/><path fill="#ded684" d="m72.145 294.742-34.82-11.898 30.023-30.602ZM72.145 294.742l14.507-17.156 15.203 18.914Zm0 0"/><path fill="#dfd785" d="m99.652 322.16-27.507-27.418 29.71 1.758Zm0 0"/><path fill="#ded684" d="m78.02 188.625 20.796 2.04-8.687 16.206Zm0 0"/><path fill="#f39848" d="M48.047 184.84 30.43 220.934l-30.422-3.23ZM48.047 184.84.007 217.703l40.348-55.61Zm0 0"/><path fill="#f29949" d="m113.664 264.488-18.93 1.305 6.278-17.598Zm0 0"/><path fill="#f39949" d="m113.664 264.488-3.062 12.309-15.868-11.004Zm0 0"/><path fill="#ded684" d="m98.816 190.664 10.696 17.992-19.383-1.785ZM109.512 208.656l-4.84 20.403-14.543-22.188Zm0 0"/><path fill="#dfd785" d="m104.672 229.059-3.66 19.136-33.664 4.047Zm0 0"/><path fill="#ded684" d="m104.672 229.059-37.324 23.183-11.243-37.41Zm0 0"/><path fill="#fe7831" d="M36.441 122.797 22.88 146.28 0 124.613Zm0 0"/><path fill="#ff7831" d="M22.879 146.281.008 217.703 0 124.613Zm0 0"/><path fill="#fe7831" d="m.008 217.703 22.87-71.422 17.477 15.813Zm0 0"/><path fill="#f39848" d="m22.992 231.152 7.438-10.218 5.793 16.351Zm0 0"/><path fill="#ded684" d="m0 261.309 37.324 21.535L0 312.883ZM37.324 282.844 0 261.309l36.223-24.024ZM163.977 358.852 167.992 384l-54.168-27.344ZM0 312.883l55.8 22.902L0 384Zm0 0"/><path fill="#dfd785" d="M55.8 335.785 95.72 384H0ZM116.676 328.547l-2.852 28.11-14.172-34.497Zm0 0"/><path fill="#dfd785" d="m99.652 322.16 14.172 34.496-58.023-20.87Zm0 0"/><path fill="#ded684" d="m384.004 215.355-12.434-36.582 12.434-23.218Zm0 0"/><path fill="#202215" d="m335.14 206.922 7.133 12.105-19.34.868Zm0 0"/><path fill="#ded684" d="m301.965 137.984-19.488-28.367 29.257 6.934Zm0 0"/><path fill="#ded684" d="m317.133 141.23-15.168-3.246 9.77-21.433ZM315.598 64.652 384 94.09l-48.687 20.863Zm0 0"/><path fill="#202215" d="m245.578 237.664-11.785 13.066-7.711-23.445Zm0 0"/><path fill="#f39949" d="m251.879 230.992 10.219-.332-4.645 9.695Zm0 0"/><path fill="#202215" d="m240.871 224.129 4.707 13.535-19.496-10.379Zm0 0"/><path fill="#f39949" d="m240.871 224.129 11.008 6.863-6.3 6.672Zm0 0"/><path fill="#f49345" d="m240.871 224.129-8.883-10.328 9.696-4.988Zm0 0"/><path fill="#ded684" d="m148.152 340.91-34.328 15.746 25.836-24.863ZM113.824 356.656l34.328-15.746 15.825 17.942Zm0 0"/><path fill="#dfd785" d="M267.7 339.668 241.27 384l-21.758-38.254Zm0 0"/><path fill="#ded684" d="m267.7 339.668-48.188 6.078 16.351-37.336ZM266.852 259.957l11.918 32.383-27.68-25.442Zm0 0"/><path fill="#ded684" d="m213.293 306.281 22.57 2.13-16.351 37.335Zm0 0"/><path fill="#dfd785" d="M328.617 313.523 384 276.743V384Zm0 0"/><path fill="#ded684" d="M267.7 339.668 302.573 384H241.27Zm0 0"/><path fill="#dfd785" d="M328.617 313.523 302.574 384 267.7 339.668ZM352.27 248.11l31.734-32.755-.004 61.387Zm0 0"/><path fill="#202215" d="m342.273 219.027-14.93 11.164-4.41-10.296Zm0 0"/><path fill="#ded684" d="m352.27 248.11-24.926-17.919 14.93-11.164Zm0 0"/><path fill="#202215" d="m251.73 252.395 15.122 7.562-15.762 6.941Zm0 0"/><path fill="#f39949" d="m251.73 252.395-6.152-14.73 11.875 2.69Zm0 0"/><path fill="#202215" d="m233.793 250.73 17.937 1.665-.64 14.503Zm0 0"/><path fill="#202215" d="m251.73 252.395-17.937-1.665 11.785-13.066ZM267.504 256.285l-15.774-3.89 5.723-12.04Zm0 0"/><path fill="#202215" d="m251.73 252.395 15.774 3.89-.652 3.672Zm0 0"/><path fill="#ebc073" d="M33.61 55.305 26.171-.047l1.45.024Zm0 0"/><path fill="#ebc174" d="M26.172-.047-.043 64.238.004 0Zm0 0"/><path fill="#fe7831" d="m-.043 64.238 33.652-8.933-.203 37.738Zm0 0"/><path fill="#202215" d="m125.219 147.578-12.953 27.68 6.277-32.09Zm0 0"/><path fill="#202215" d="m125.219 147.578 7.015 27.266-19.968.414Zm0 0"/><path fill="#ded684" d="m140.984 121.809-16.793-6.86 32.086-5.07Zm0 0"/><path fill="#953c3c" d="m132.234 174.844 16.985 8.75-13.89 7.886Zm0 0"/><path fill="#a55a4a" d="m166.95 185.07 24.214-11.195-7.02 22.414Zm0 0"/><path fill="#fe7731" d="m220.57 174.145-29.406-.27 4.77-15.691Zm0 0"/><path fill="#fe7731" d="m191.164 173.875-5.566-13.82 10.336-1.871ZM246.984 173.105l-4.285 9.356-18.504-11.625Zm0 0"/><path fill="#202215" d="m246.984 173.105-13.593-16.609 15.285-2.312ZM246.984 173.105l14.067-13.183 4.953 15.223ZM261.05 159.922l-14.066 13.183 1.692-18.921Zm0 0"/><path fill="#202215" d="m258.473 147.8 2.578 12.122-12.375-5.738Zm0 0"/><path fill="#dfd684" d="m311.734 116.55 3.864-51.898 19.714 50.301Zm0 0"/><path fill="#ded684" d="m315.598 64.652-3.864 51.899-29.257-6.934ZM244.715 130.648l12.222-8.09 4.743 9.95Zm0 0"/><path fill="#ded684" d="m247.84 110.152 9.097 12.407-12.222 8.09ZM261.68 132.508l-4.743-9.95 25.54-12.94ZM258.027 78.86l-10.187 31.292-25.317-12.203Zm0 0"/><path fill="#ded684" d="m247.84 110.152 10.187-31.293 24.45 30.758Zm0 0"/><path fill="#ded684" d="m256.938 122.559-9.098-12.407 34.637-.535Zm0 0"/><path fill="#eac275" d="m42.152 30.91 69.504 15.281L72.234 61.79Zm0 0"/><path fill="#ded684" d="m152.266 84.867-40.61-38.676 55.067 27.23ZM199.828 108.582l-30.402-5.836 20.02-25.398Zm0 0"/><path fill="#ded684" d="m199.828 108.582-4.766 24.23-25.636-30.066Zm0 0"/><path fill="#ded684" d="m195.063 132.813 4.765-24.231 13.11 22.23ZM120.75 98.29l-42.687 11.374 33.593-63.473Zm0 0"/><path fill="#ded684" d="M152.266 84.867 120.75 98.29l-9.094-52.098ZM124.191 114.95l-3.441-16.66 35.527 11.589Zm0 0"/><path fill="#ded684" d="m120.75 98.29 31.516-13.423 4.011 25.012Zm0 0"/><path fill="#212316" d="m96.977 142.457 21.566.711-21.762 19.93Zm0 0"/><path fill="#ded684" d="m118.543 143.168-21.566-.711 13.359-13.957Zm0 0"/><path fill="#dfd785" d="M55.8 335.785 0 312.883l37.324-30.04Zm0 0"/><path fill="#ded684" d="m56.105 214.832 21.915-26.207 12.109 18.246ZM104.672 229.059l-48.567-14.227 34.024-7.96Zm0 0"/><path fill="#fe7831" d="m78.02 188.625-21.915 26.207-8.058-29.992Zm0 0"/><path fill="#ded684" d="m98.816 190.664-20.796-2.039 11.222-11.793Zm0 0"/><path fill="#f29848" d="m110.602 276.797 14.53 21.89-23.277-2.187Zm0 0"/><path fill="#f39848" d="m109.512 208.656 9.511 21.95-14.351-1.547Zm0 0"/><path fill="#f29949" d="m119.023 230.605-18.011 17.59 3.66-19.136ZM142.125 211.5l-6.797-20.02 19.059 9.192Zm0 0"/><path fill="#fe7831" d="m0 124.613-.043-60.375 33.45 28.805Zm0 0"/><path fill="#fe7831" d="m33.406 93.043 3.035 29.754L0 124.613Zm0 0"/><path fill="#202215" d="m190.629 315.656-15.719 4.52 8.39-18.696Zm0 0"/><path fill="#ded684" d="m113.824 356.656 2.852-28.11 22.984 3.247ZM371.57 178.773l-14.77-19.097 27.204-4.121ZM368.262 201.035l15.742 14.32-23.363 1.915Zm0 0"/><path fill="#ded684" d="m368.262 201.035 3.308-22.262 12.434 36.582Zm0 0"/><path fill="#222215" d="m273.531 162.5 7.477 12.656-15.004-.011Zm0 0"/><path fill="#202215" d="m261.05 159.922 12.481 2.578-7.527 12.645ZM322.598 159.324l-5.465-18.094 22.449 10.075Zm0 0"/><path fill="#31251a" d="m322.598 159.324 2.37 11.836-11.347-3.527Zm0 0"/><path fill="#dfd684" d="m295.695 0 19.903 64.652L260.44 40.29Zm0 0"/><path fill="#ded684" d="M244.082 0h51.613l-35.254 40.29Zm0 0"/><path fill="#202215" d="m231.988 213.8-5.906 13.485-6.41-15.14ZM240.871 224.129l-14.789 3.156 5.906-13.484Zm0 0"/><path fill="#f39949" d="m194.11 199.656-15.313 10.293 5.348-13.66ZM194.11 199.656l6.019 22.309-21.332-12.016Zm0 0"/><path fill="#f39848" d="m231.988 213.8-4.058-7.933 13.754 2.946Zm0 0"/><path fill="#202215" d="m227.93 205.867 4.058 7.934-12.316-1.656ZM268.777 201.559l9.305-11.223 7.715 10.559Zm0 0"/><path fill="#3b281e" d="m282.207 219.313-13.43-17.754 17.02-.664Zm0 0"/><path fill="#202215" d="m155.727 324.379-10.989-5.434 9.602-8.222Zm0 0"/><path fill="#ded684" d="m155.727 324.379-7.575 16.531-8.492-9.117Zm0 0"/><path fill="#202215" d="m144.738 318.945 10.989 5.434-16.067 7.414Zm0 0"/><path fill="#ded684" d="m163.977 358.852 32.675-28.91 22.86 15.804ZM196.652 329.941l-21.742-9.765 15.719-4.52Zm0 0"/><path fill="#202215" d="m327.344 230.191-12.297 1.668 7.887-11.964Zm0 0"/><path fill="#dfd785" d="m320.777 251.281 31.493-3.172-23.653 65.414Zm0 0"/><path fill="#dfd785" d="m320.777 251.281 6.567-21.09 24.926 17.918Zm0 0"/><path fill="#ded684" d="m320.777 251.281-5.73-19.422 12.297-1.668Zm0 0"/><path fill="#f39949" d="m262.098 230.66 7.797 7.352-12.442 2.343Zm0 0"/><path fill="#202215" d="m269.895 238.012-2.391 18.273-10.05-15.93Zm0 0"/><path fill="#ded584" d="M301.309 193.625 299.5 212.32l-13.703-11.425Zm0 0"/><path fill="#c49e6a" d="m299.5 212.32-17.293 6.993 3.59-18.418Zm0 0"/><path fill="#202215" d="m305.957 183.734-10.625-14.382 18.29-1.72Zm0 0"/><path fill="#a55d4b" d="M315.793 207.648 299.5 212.32l1.809-18.695Zm0 0"/><path fill="#f49647" d="M33.61 55.305-.044 64.238 26.172-.047Zm0 0"/><path fill="#963c3c" d="m132.234 174.844 15.825-8.594 1.16 17.344Zm0 0"/><path fill="#202215" d="m148.059 166.25-15.825 8.594 4.25-24.809Zm0 0"/><path fill="#232516" d="m131.828 136.375-21.492-7.875 13.855-13.55Zm0 0"/><path fill="#202215" d="m140.984 121.809-9.156 14.566-7.637-21.426Zm0 0"/><path fill="#f39848" d="m178.797 209.95-24.41-9.278 12.562-15.602Zm0 0"/><path fill="#963c3c" d="m148.059 166.25 20.101 3.84-1.21 14.98Zm0 0"/><path fill="#202215" d="m191.164 173.875-23.004-3.785 8.516-9.035Zm0 0"/><path fill="#9f4a41" d="m166.95 185.07 1.21-14.98 23.004 3.785Zm0 0"/><path fill="#fe7731" d="m226.328 146.36-16.02 7.327-.402-12.984Zm0 0"/><path fill="#202215" d="m226.328 146.36-16.422-5.657 18.832-9.57Zm0 0"/><path fill="#ff7831" d="m224.504 156.125 1.824-9.766 7.063 10.137Zm0 0"/><path fill="#fe7731" d="m226.328 146.36-1.824 9.765-14.195-2.437Zm0 0"/><path fill="#202215" d="m240.758 145.207-14.43 1.152 2.41-15.226Zm0 0"/><path fill="#fe7731" d="m226.328 146.36 14.43-1.153-7.367 11.29ZM210.309 153.688l10.261 20.457-24.636-15.961Zm0 0"/><path fill="#963c3b" d="m257.23 186.832-10.246-13.727 19.02 2.04Zm0 0"/><path fill="#fe7731" d="m257.23 186.832-14.53-4.371 4.284-9.356Zm0 0"/><path fill="#f29949" d="m242.7 182.46 14.53 4.372-18.648 5.953Zm0 0"/><path fill="#ded684" d="m199.7 0-21.192 30.414L153.988 0Zm0 0"/><path fill="#ded684" d="m178.508 30.414-66.852 15.777L153.988 0Zm0 0"/><path fill="#202215" d="m153.074 141.852-12.09-20.043 15.293-11.93Zm0 0"/><path fill="#fe7731" d="m185.598 160.055-4.012-10.696 14.348 8.825Zm0 0"/><path fill="#202215" d="m209.906 140.703-14.844-7.89 17.875-2Zm0 0"/><path fill="#dfd684" d="M78.063 109.664 72.234 61.79l39.422-15.598ZM72.234 61.79l5.829 47.874L53.645 97.13Zm0 0"/><path fill="#ded684" d="m96.977 142.457-8.899-18.742 22.258 4.785Zm0 0"/><path fill="#ded684" d="m110.336 128.5-22.258-4.785 36.113-8.766Zm0 0"/><path fill="#fe7831" d="m78.063 109.664 10.015 14.05L71 138.099Zm0 0"/><path fill="#fe7831" d="m88.078 123.715 8.899 18.742L71 138.097Zm0 0"/><path fill="#ded684" d="m88.078 123.715 32.672-25.426 3.441 16.66Zm0 0"/><path fill="#ded684" d="m120.75 98.29-32.672 25.425-10.016-14.05Zm0 0"/><path fill="#fb8138" d="m96.977 142.457-21.004 12.95L71 138.096Zm0 0"/><path fill="#fe7831" d="m75.973 155.406 21.004-12.949-.196 20.64ZM75.973 155.406l20.808 7.692-7.539 13.734Zm0 0"/><path fill="#fe7831" d="m78.02 188.625-2.047-33.219 13.27 21.426Zm0 0"/><path fill="#f39848" d="m22.879 146.281 27.941.985-10.465 14.828Zm0 0"/><path fill="#f49345" d="m50.82 147.266-27.941-.985 13.562-23.484Zm0 0"/><path fill="#f39647" d="m48.047 184.84 8.058 29.992-25.675 6.102Zm0 0"/><path fill="#fe7831" d="m59.387 174.148 18.633 14.477-29.973-3.785Zm0 0"/><path fill="#202215" d="m174.91 320.176-7.183-23.461 15.574 4.765Zm0 0"/><path fill="#f39848" d="m118.422 214.148.601 16.457-9.511-21.949Zm0 0"/><path fill="#f39949" d="m142.125 211.5-16.812-1.734 10.015-18.286Zm0 0"/><path fill="#f29949" d="m125.313 209.766-7.38-23.703 17.395 5.417Zm0 0"/><path fill="#963e3c" d="m117.934 186.063 14.3-11.22 3.094 16.637Zm0 0"/><path fill="#202215" d="m132.234 174.844-14.3 11.219-5.668-10.805Zm0 0"/><path fill="#f39949" d="m117.934 186.063 7.379 23.703-15.801-1.11Zm0 0"/><path fill="#ded684" d="m112.266 175.258 5.668 10.804-19.118 4.602Zm0 0"/><path fill="#ded684" d="m117.934 186.063-8.422 22.593-10.696-17.992Zm0 0"/><path fill="#eac275" d="m53.645 97.129-20.239-4.086 38.828-31.254Zm0 0"/><path fill="#fe7831" d="m33.406 93.043 18.836 8.312-15.8 21.442Zm0 0"/><path fill="#dfd684" d="m52.242 101.355-18.836-8.312 20.239 4.086ZM52.242 101.355l1.403-4.226 24.417 12.535Zm0 0"/><path fill="#f98e45" d="m36.441 122.797 15.801-21.442 25.82 8.31Zm0 0"/><path fill="#202215" d="m114.723 319.773-15.07 2.387 2.202-25.66ZM125.133 298.688l-1.992 9.882-21.286-12.07Zm0 0"/><path fill="#202215" d="m123.14 308.57-8.417 11.203-12.868-23.273ZM132.398 320.098l12.34-1.153-5.078 12.848Zm0 0"/><path fill="#ded684" d="m116.676 328.547 15.722-8.45 7.262 11.696ZM351.629 135.191 384 94.09l.004 61.465ZM351.629 135.191l5.172 24.485-17.219-8.371Zm0 0"/><path fill="#ded684" d="m356.8 159.676-5.171-24.485 32.375 20.364ZM317.133 141.23l34.496-6.039-12.047 16.114Zm0 0"/><path fill="#ded684" d="m384 94.09-32.371 41.101-16.317-20.238Zm0 0"/><path fill="#ded684" d="m351.629 135.191-34.496 6.04 18.18-26.278Zm0 0"/><path fill="#202215" d="m356.8 159.676-4.01 4.652-13.208-13.023ZM352.79 164.328l4.01-4.652 14.77 19.097Zm0 0"/><path fill="#212215" d="m335.14 206.922 19.813 2.625-12.68 9.48Zm0 0"/><path fill="#ded684" d="m342.273 219.027 12.68-9.48 5.688 7.723Zm0 0"/><path fill="#ded684" d="m354.953 209.547 13.309-8.512-7.621 16.235Zm0 0"/><path fill="#202215" d="m307.727 150.762 14.87 8.562-8.976 8.309ZM322.598 159.324l-14.871-8.562 9.406-9.532Zm0 0"/><path fill="#ded684" d="m283.25 134.883-21.57-2.375 20.797-22.89ZM301.965 137.984l-18.715-3.101-.773-25.266Zm0 0"/><path fill="#202215" d="m295.332 169.352 4.918-12.082 13.371 10.363ZM261.68 132.508l9.988 15.586-13.195-.293ZM283.25 134.883l-11.582 13.21-9.988-15.585Zm0 0"/><path fill="#202215" d="m271.668 148.094 11.582-13.211 1.324 13.469ZM281.008 175.156l3-11.832 11.324 6.028Zm0 0"/><path fill="#202215" d="m273.531 162.5 10.477.824-3 11.832Zm0 0"/><path fill="#ded684" d="M315.598 64.652 295.695 0H384ZM384 94.09l-68.402-29.438L384 0Zm0 0"/><path fill="#202215" d="m238.71 271.39-4.917-20.66 17.297 16.168Zm0 0"/><path fill="#ded684" d="m278.77 292.34-40.06-20.95 12.38-4.492Zm0 0"/><path fill="#f39949" d="m200.398 263.93 18.426 7.992-10.566 10.95Zm0 0"/><path fill="#202215" d="m199.965 305.305 7.375-10.82 5.953 11.796ZM207.34 294.484l-17.703-9.277 18.62-2.336Zm0 0"/><path fill="#202215" d="m207.34 294.484-7.375 10.82-10.328-20.097Zm0 0"/><path fill="#ded684" d="m213.293 306.281 9.582-16.91 12.988 19.04Zm0 0"/><path fill="#202215" d="m207.34 294.484 15.535-5.113-9.582 16.91Zm0 0"/><path fill="#202215" d="m218.824 271.922 4.051 17.45-14.617-6.5Zm0 0"/><path fill="#202215" d="m222.875 289.371-15.535 5.113.918-11.613ZM203.813 184.082l-9.704 15.574-9.964-3.367ZM191.164 173.875l12.649 10.207-19.668 12.207Zm0 0"/><path fill="#fe7731" d="m203.813 184.082-12.649-10.207 29.406.27ZM238.582 192.785l-18.012-18.64 3.625-3.31Zm0 0"/><path fill="#fe7831" d="m242.7 182.46-4.118 10.325-14.387-21.95Zm0 0"/><path fill="#202215" d="m246.984 173.105-22.789-2.27 9.196-14.339Zm0 0"/><path fill="#fe7731" d="m224.195 170.836.309-14.711 8.887.371ZM224.504 156.125l-.309 14.71-13.886-17.148ZM224.195 170.836l-3.625 3.309-10.261-20.458Zm0 0"/><path fill="#f29949" d="m252.422 220.328 9.676 10.332-10.22.332Zm0 0"/><path fill="#f39949" d="m252.422 220.328-11.55 3.8.812-15.315Zm0 0"/><path fill="#f29949" d="m240.871 224.129 11.55-3.8-.542 10.663Zm0 0"/><path fill="#202215" d="m269.895 238.012 2.515-7.078 16.274 13.183Zm0 0"/><path fill="#f39949" d="m272.41 230.934-2.515 7.078-7.797-7.352Zm0 0"/><path fill="#ded684" d="m167.992 384-4.015-25.148 55.535-13.106ZM241.27 384h-73.278l51.52-38.254ZM148.152 340.91l16.172-6.195-.347 24.137Zm0 0"/><path fill="#ded684" d="m164.324 334.715 32.328-4.774-32.675 28.91Zm0 0"/><path fill="#ded684" d="m155.727 324.379 8.597 10.336-16.172 6.195ZM196.652 329.941l-32.328 4.774 10.586-14.54Zm0 0"/><path fill="#202215" d="M199.965 305.305 183.3 301.48l6.336-16.273Zm0 0"/><path fill="#ded684" d="m196.652 329.941 3.313-24.636 13.328.976ZM196.652 329.941l16.641-23.66 6.219 39.465Zm0 0"/><path fill="#dfd785" d="m278.77 292.34 42.007-41.059 7.84 62.242Zm0 0"/><path fill="#212215" d="m291.207 186.344 14.75-2.61-4.648 9.891Zm0 0"/><path fill="#ded684" d="m291.207 186.344 10.102 7.281-15.512 7.27Zm0 0"/><path fill="#212215" d="m291.207 186.344-10.2-11.188 14.325-5.804Zm0 0"/><path fill="#242316" d="m305.957 183.734-14.75 2.61 4.125-16.992Zm0 0"/><path fill="#94413d" d="m278.082 190.336 13.125-3.992-5.41 14.55Zm0 0"/><path fill="#933d3b" d="m291.207 186.344-13.125 3.992 2.926-15.18Zm0 0"/><path fill="#212215" d="m305.957 183.734 8.29 7.559-12.938 2.332Zm0 0"/><path fill="#9c4942" d="m314.246 191.293 1.547 16.355-14.484-14.023Zm0 0"/><path fill="#222215" d="m315.793 207.648 19.348-.726-12.207 12.973Zm0 0"/><path fill="#dfd684" d="M54.09.004 42.152 30.91 27.622-.023Zm0 0"/><path fill="#f0a657" d="M42.152 30.91 33.61 55.305 27.621-.023Zm0 0"/><path fill="#ded684" d="m121.113 140.68-2.57 2.488-8.207-14.668Zm0 0"/><path fill="#ded684" d="m131.828 136.375-10.715 4.305-10.777-12.18Zm0 0"/><path fill="#d8ca7e" d="m154.387 200.672-5.168-17.078 17.73 1.476Zm0 0"/><path fill="#d7c77d" d="m149.219 183.594-1.16-17.344 18.89 18.82Zm0 0"/><path fill="#eac275" d="m111.656 46.191-69.504-15.28L88.402-.009Zm0 0"/><path fill="#ded684" d="m166.723 73.422 11.785-43.008 24.43 22.695Zm0 0"/><path fill="#ded684" d="m178.508 30.414-11.785 43.008-55.067-27.23Zm0 0"/><path fill="#ded684" d="m189.445 77.348-22.722-3.926 36.214-20.313Zm0 0"/><path fill="#202215" d="m131.828 136.375 21.246 5.477-16.59 8.183Zm0 0"/><path fill="#232516" d="m153.074 141.852-21.246-5.477 9.156-14.566Zm0 0"/><path fill="#fe7731" d="m181.586 149.36 4.012 10.695-8.922 1Zm0 0"/><path fill="#ded684" d="m160.441 137.95-4.164-28.071 13.149-7.133Zm0 0"/><path fill="#202215" d="m160.441 137.95-7.367 3.902 3.203-31.973Zm0 0"/><path fill="#202215" d="m160.441 137.95 21.145 11.41-28.512-7.508Zm0 0"/><path fill="#ded684" d="m195.063 132.813-34.622 5.136 8.985-35.203Zm0 0"/><path fill="#202215" d="m181.586 149.36-21.145-11.41 34.622-5.137Zm0 0"/><path fill="#202215" d="m197.113 144.14-15.527 5.22 13.476-16.548Zm0 0"/><path fill="#202215" d="m209.906 140.703-12.793 3.438-2.05-11.328Zm0 0"/><path fill="#fe7731" d="m181.586 149.36 15.527-5.22-1.18 14.044Zm0 0"/><path fill="#fe7731" d="m197.113 144.14 13.196 9.548-14.375 4.496Zm0 0"/><path fill="#fc7730" d="m197.113 144.14 12.793-3.437.403 12.984Zm0 0"/><path fill="#fd7831" d="m59.387 174.148 16.586-18.742 2.047 33.219Zm0 0"/><path fill="#fe7831" d="m75.973 155.406-16.586 18.742-8.567-26.882Zm0 0"/><path fill="#fe7831" d="M50.82 147.266 71 138.098l4.973 17.308Zm0 0"/><path fill="#f1ab60" d="M36.441 122.797 71 138.097l-20.18 9.169Zm0 0"/><path fill="#fe7831" d="m71 138.098-34.559-15.301 41.622-13.133Zm0 0"/><path fill="#f39848" d="m59.387 174.148-11.34 10.692-7.692-22.746Zm0 0"/><path fill="#202215" d="m167.727 296.715-3.086 21.812-10.301-7.804Zm0 0"/><path fill="#202215" d="m164.64 318.527 3.087-21.812 7.183 23.46Zm0 0"/><path fill="#202215" d="m164.324 334.715.317-16.188 10.27 1.649ZM164.64 318.527l-8.913 5.852-1.387-13.656ZM164.64 318.527l-.316 16.188-8.597-10.336Zm0 0"/><path fill="#f29949" d="m118.422 214.148 6.89-4.382-6.289 20.84Zm0 0"/><path fill="#f39848" d="m125.313 209.766-6.891 4.382-8.91-5.492Zm0 0"/><path fill="#222316" d="m114.723 319.773 17.675.325-15.722 8.449Zm0 0"/><path fill="#202215" d="m132.398 320.098-17.675-.325 8.418-11.203Zm0 0"/><path fill="#ded684" d="m114.723 319.773 1.953 8.774-17.024-6.387Zm0 0"/><path fill="#202215" d="m340.46 164.773-17.862-5.449 16.984-8.02Zm0 0"/><path fill="#202215" d="m352.79 164.328-12.33.445-.878-13.468Zm0 0"/><path fill="#8d3b39" d="m322.598 159.324 17.863 5.45-15.492 6.386Zm0 0"/><path fill="#96403d" d="m324.969 171.16 15.492-6.387-8.078 14.137Zm0 0"/><path fill="#b17657" d="m340.46 164.773 9.52 14.282-17.597-.145Zm0 0"/><path fill="#202215" d="m349.98 179.055-9.52-14.282 12.33-.445ZM349.98 179.055l2.81-14.727 18.78 14.445ZM307.727 150.762l-5.762-12.778 15.168 3.246ZM281.148 155.793l-9.48-7.7 12.906.259ZM281.148 155.793l2.86 7.531-10.477-.824Zm0 0"/><path fill="#202215" d="m290.102 156.2-8.954-.407 3.426-7.441Zm0 0"/><path fill="#202215" d="m281.148 155.793 8.954.406-6.094 7.125ZM290.102 156.2l10.148 1.07-4.918 12.082Zm0 0"/><path fill="#202215" d="m284.008 163.324 6.094-7.125 5.23 13.153Zm0 0"/><path fill="#f39949" d="m179.457 247.113 29.3-3.633-8.359 20.45Zm0 0"/><path fill="#ded684" d="m233.879 286.664 44.89 5.676-42.906 16.07ZM233.879 286.664l4.832-15.273 40.059 20.949Zm0 0"/><path fill="#ded684" d="m222.875 289.371 11.004-2.707 1.984 21.746Zm0 0"/><path fill="#202215" d="m238.71 271.39-4.831 15.274-15.055-14.742Zm0 0"/><path fill="#202215" d="m233.879 286.664-11.004 2.707-4.05-17.45Zm0 0"/><path fill="#f39949" d="m189.637 285.207 10.761-21.277 7.86 18.941Zm0 0"/><path fill="#f39949" d="m176.953 270.621 23.445-6.691-10.761 21.277Zm0 0"/><path fill="#202215" d="m233.793 250.73-25.035-7.25 17.324-16.195ZM224.27 260.5l14.44 10.89-19.886.532Zm0 0"/><path fill="#f39949" d="m200.398 263.93 23.872-3.43-5.446 11.422Zm0 0"/><path fill="#202215" d="m238.71 271.39-14.44-10.89 9.523-9.77Zm0 0"/><path fill="#f29848" d="m224.27 260.5-15.512-17.02 25.035 7.25Zm0 0"/><path fill="#f39949" d="m208.758 243.48 15.512 17.02-23.872 3.43Zm0 0"/><path fill="#202215" d="m219.672 212.145-3.75-19.868 12.008 13.59ZM238.582 192.785l-22.66-.508 4.648-18.132Zm0 0"/><path fill="#f39848" d="m215.922 192.277 22.66.508-10.652 13.082Zm0 0"/><path fill="#fe7731" d="m215.922 192.277-12.11-8.195 16.758-9.937Zm0 0"/><path fill="#212215" d="m226.082 227.285-25.953-5.32 19.543-9.82Zm0 0"/><path fill="#f39949" d="m208.758 243.48-8.63-21.515 25.954 5.32Zm0 0"/><path fill="#212215" d="m203.813 184.082 3.542 18.594-13.246-3.02Zm0 0"/><path fill="#cda56b" d="m194.11 199.656 13.245 3.02-7.226 19.289Zm0 0"/><path fill="#202215" d="m207.355 202.676 12.317 9.469-19.543 9.82ZM215.922 192.277l-8.567 10.399-3.542-18.594Zm0 0"/><path fill="#202215" d="m207.355 202.676 8.567-10.399 3.75 19.868Zm0 0"/><path fill="#f39949" d="m238.582 192.785 3.102 16.028-13.754-2.946Zm0 0"/><path fill="#f39848" d="m253.96 205.82-1.538 14.508-10.738-11.516Zm0 0"/><path fill="#202215" d="m154.34 310.723-15.383-3.215 10.672-18.801ZM138.957 307.508l-15.816 1.062 1.992-9.882Zm0 0"/><path fill="#f39949" d="m149.629 288.707-10.672 18.8-13.824-8.82Zm0 0"/><path fill="#202215" d="m138.957 307.508-6.559 12.59-9.257-11.528ZM132.398 320.098l6.559-12.59 5.781 11.437ZM138.957 307.508l15.383 3.215-9.602 8.222Zm0 0"/><path fill="#f39949" d="m126.59 275.527 23.039 13.18-24.496 9.98Zm0 0"/><path fill="#ded684" d="m196.652 329.941-6.023-14.285 9.336-10.351Zm0 0"/><path fill="#202215" d="M190.629 315.656 183.3 301.48l16.664 3.825ZM298.813 227.445l4.167 14.645-14.296 2.027Zm0 0"/><path fill="#202215" d="m302.98 242.09-4.168-14.645 16.235 4.414Zm0 0"/><path fill="#ded684" d="m320.777 251.281-17.797-9.191 12.067-10.23Zm0 0"/><path fill="#ded684" d="m278.77 292.34 24.21-50.25 17.797 9.191Zm0 0"/><path fill="#202215" d="m272.41 230.934 9.797-11.621 6.477 24.804Zm0 0"/><path fill="#202215" d="m282.207 219.313 16.606 8.132-10.13 16.672Zm0 0"/><path fill="#d8c97e" d="m298.813 227.445-16.606-8.132 17.293-6.993Zm0 0"/><path fill="#202215" d="m315.793 207.648-5.168 12.13-11.125-7.458Zm0 0"/><path fill="#212215" d="m310.625 219.777-11.812 7.668.687-15.125Zm0 0"/><path fill="#202215" d="m310.625 219.777 5.168-12.129 7.14 12.247Zm0 0"/><path fill="#202215" d="m315.047 231.86-4.422-12.083 12.309.118Zm0 0"/><path fill="#202215" d="m298.813 227.445 11.812-7.668 4.422 12.082ZM282.3 255.152l-12.405-17.14 18.789 6.105Zm0 0"/><path fill="#202215" d="m269.895 238.012 12.406 17.14-14.797 1.133Zm0 0"/><path fill="#ded684" d="m302.98 242.09-20.68 13.062 6.384-11.035Zm0 0"/><path fill="#dfd785" d="m282.3 255.152 20.68-13.062-24.21 50.25Zm0 0"/><path fill="#ded684" d="m267.504 256.285 14.797-1.133-15.45 4.805Zm0 0"/><path fill="#ded684" d="m282.3 255.152-3.53 37.188-11.918-32.383Zm0 0"/><path fill="#202215" d="m320.277 183.031-14.32.703 7.664-16.101Zm0 0"/><path fill="#9f5145" d="m320.277 183.031-6.03 8.262-8.29-7.559Zm0 0"/><path fill="#202215" d="m315.793 207.648 12.789-11.796 6.559 11.07Zm0 0"/><path fill="#ceb474" d="m328.582 195.852-12.789 11.796-1.547-16.355Zm0 0"/><path fill="#202215" d="m125.219 147.578 6.61-11.203 4.655 13.66ZM125.219 147.578l-4.106-6.898 10.715-4.305Zm0 0"/><path fill="#202215" d="m132.234 174.844-7.015-27.266 11.265 2.457ZM121.113 140.68l4.106 6.898-6.676-4.41Zm0 0"/><path fill="#973f3d" d="m149.219 183.594 5.168 17.078-19.059-9.192Zm0 0"/><path fill="#202215" d="m270.77 185.246-13.54 1.586 8.774-11.687Zm0 0"/><path fill="#202215" d="m270.77 185.246-1.993 16.313-11.547-14.727Zm0 0"/><path fill="#963d3c" d="m281.008 175.156-10.238 10.09-4.766-10.101Zm0 0"/><path fill="#893938" d="m278.082 190.336-7.312-5.09 10.238-10.09Zm0 0"/><path fill="#202215" d="m268.777 201.559 1.993-16.313 7.312 5.09Zm0 0"/><path fill="#f39949" d="m253.96 205.82-12.276 2.993-3.102-16.028Zm0 0"/><path fill="#f29849" d="m257.23 186.832-3.27 18.988-15.378-13.035Zm0 0"/><path fill="#f09748" d="m268.777 201.559-14.816 4.261 3.27-18.988Zm0 0"/><path fill="#fe7831" d="m163.496 155.234 18.09-5.875-4.91 11.696Zm0 0"/><path fill="#fe7731" d="m168.16 170.09-4.664-14.856 13.18 5.82Zm0 0"/><path fill="#202215" d="m163.496 155.234 4.664 14.856-20.101-3.84Zm0 0"/><path fill="#212215" d="m181.586 149.36-18.09 5.874-10.422-13.382Zm0 0"/><path fill="#fe7831" d="m50.82 147.266 8.567 26.882-19.032-12.054Zm0 0"/><path fill="#f39949" d="m164.46 281.473-23.124-28.743 35.617 17.891ZM149.629 288.707l18.098 8.008-13.387 14.008Zm0 0"/><path fill="#f39949" d="m149.629 288.707 14.832-7.234 3.266 15.242Zm0 0"/><path fill="#f39949" d="m164.46 281.473 12.142 5.828-8.875 9.414Zm0 0"/><path fill="#f29948" d="m167.727 296.715 8.875-9.414 6.699 14.18Zm0 0"/><path fill="#f39949" d="m183.3 301.48-6.698-14.18 13.035-2.093ZM125.313 209.766l11.273 15.62-17.563 5.22Zm0 0"/><path fill="#f39949" d="m141.336 252.73-40.324-4.535 18.011-17.59Zm0 0"/><path fill="#f39949" d="m136.586 225.387 4.75 27.343-22.313-22.125Zm0 0"/><path fill="#202215" d="m354.953 209.547 1.934-16.629 11.375 8.117Zm0 0"/><path fill="#202215" d="m368.262 201.035-11.375-8.117 14.683-14.145Zm0 0"/><path fill="#202215" d="m356.887 192.918-6.907-13.863 21.59-.282ZM295.59 146.676l12.137 4.086-7.477 6.508ZM295.59 146.676l-5.488 9.523-5.528-7.847Zm0 0"/><path fill="#202215" d="m290.102 156.2 5.488-9.524 4.66 10.594Zm0 0"/><path fill="#202215" d="m283.25 134.883 12.34 11.793-11.016 1.676ZM295.59 146.676l-12.34-11.793 18.715 3.101ZM307.727 150.762l-12.137-4.086 6.375-8.692ZM307.727 150.762l5.894 16.87-13.371-10.362ZM271.668 148.094l-10.617 11.828-2.578-12.121ZM271.668 148.094l1.863 14.406-12.48-2.578Zm0 0"/><path fill="#202215" d="m271.668 148.094 9.48 7.699-7.617 6.707Zm0 0"/><path fill="#f39949" d="m190.54 229.852-12.817-1.274 1.074-18.629Zm0 0"/><path fill="#edb466" d="m200.129 221.965-9.59 7.887-11.742-19.903Zm0 0"/><path fill="#ded684" d="m264.46 218.695 7.95 12.239-10.312-.274Zm0 0"/><path fill="#ded584" d="m252.422 220.328 12.039-1.633-2.363 11.965Zm0 0"/><path fill="#f1994b" d="m253.96 205.82 10.5 12.875-12.038 1.633Zm0 0"/><path fill="#d2bb77" d="m272.41 230.934-7.95-12.239 17.747.618Zm0 0"/><path fill="#953c3c" d="m282.207 219.313-17.746-.618 4.316-17.136Zm0 0"/><path fill="#f29949" d="m264.46 218.695-10.5-12.875 14.817-4.261Zm0 0"/><path fill="#f39949" d="m113.664 264.488 12.926 11.04-15.988 1.269Zm0 0"/><path fill="#f39949" d="m126.59 275.527-1.457 23.16-14.531-21.89Zm0 0"/><path fill="#ded584" d="m328.582 195.852-8.305-12.82 12.106-4.122Zm0 0"/><path fill="#9a4841" d="m320.277 183.031 4.692-11.87 7.414 7.75Zm0 0"/><path fill="#96403d" d="m320.277 183.031 8.305 12.82-14.336-4.558Zm0 0"/><path fill="#a96650" d="m324.969 171.16-4.692 11.871-6.656-15.398Zm0 0"/><path fill="#202215" d="M163.496 155.234 148.06 166.25l5.015-24.398ZM153.074 141.852l-5.015 24.398-11.575-16.215Zm0 0"/><path fill="#f39949" d="m176.953 270.621-.351 16.68-12.141-5.828Zm0 0"/><path fill="#f39949" d="m176.602 287.3.351-16.679 12.684 14.586Zm0 0"/><path fill="#f29849" d="m142.125 211.5-5.54 13.887-11.273-15.621Zm0 0"/><path fill="#f39949" d="m141.336 252.73-4.75-27.343 20.871.672Zm0 0"/><path fill="#202215" d="m341.875 194.227 13.078 15.32-19.812-2.625Zm0 0"/><path fill="#202215" d="m341.875 194.227 15.012-1.309-1.934 16.629ZM328.582 195.852l13.293-1.625-6.734 12.695Zm0 0"/><path fill="#ded684" d="m341.875 194.227-13.293 1.625 3.8-16.942Zm0 0"/><path fill="#cfb575" d="m349.98 179.055-8.105 15.172-9.492-15.317Zm0 0"/><path fill="#222215" d="m356.887 192.918-15.012 1.309 8.105-15.172Zm0 0"/><path fill="#f39949" d="m179.457 247.113 11.082-17.261 18.219 13.628Zm0 0"/><path fill="#f29949" d="m190.54 229.852 9.589-7.887 8.629 21.515Zm0 0"/><path fill="#f39949" d="m126.59 275.527 14.746-22.797 8.293 35.977Zm0 0"/><path fill="#f39949" d="m113.664 264.488 27.672-11.758-14.746 22.797Zm0 0"/><path fill="#f39949" d="m149.629 288.707-8.293-35.977 23.125 28.743Zm0 0"/><path fill="#f29949" d="m142.125 211.5 15.332 14.559-20.871-.672Zm0 0"/><path fill="#dacd80" d="M157.457 226.059 142.125 211.5l12.262-10.828Zm0 0"/><path fill="#f39848" d="m178.797 209.95-21.34 16.109-3.07-25.387Zm0 0"/><path fill="#f39949" d="m177.723 228.578-20.266-2.52 21.34-16.109ZM141.336 252.73l-27.672 11.758-12.652-16.293Zm0 0"/><path fill="#f29949" d="m179.457 247.113-22-21.054 20.266 2.52Zm0 0"/><path fill="#f39949" d="m190.54 229.852-11.083 17.261-1.734-18.535ZM141.336 252.73l38.121-5.617-2.504 23.508ZM179.457 247.113l-38.121 5.617 16.121-26.671Zm0 0"/><path fill="#f39949" d="m176.953 270.621 2.504-23.508 20.941 16.817Zm0 0"/></svg>