<svg xmlns="http://www.w3.org/2000/svg" width="512" height="512" viewBox="0 0 384 384"><path fill="#f2ec8b" d="m268.379 337.09-20.805-35.113 32.25-6.809Zm0 0"/><path fill="#f2eb8a" d="M75.273 59.809 36.738 55.78l26.496-23.824Zm0 0"/><path fill="#f1eb8a" d="m219.887 129.941 7.55-8.246 1.352 10.278Zm0 0"/><path fill="#7a3045" d="m212.71 38.383 16.86 2.613-41.652 35.996Zm0 0"/><path fill="#f1eb8b" d="M80.242 231.281 72.168 273.5l-28.02-22.8Zm0 0"/><path fill="#f1eb8a" d="m106.918 175.09-19.785 28.066 9.215-38.582ZM0 261.156l18.816-32.68L44.148 250.7ZM269.71 0h52.25l-1.48 52.926ZM329.953 307.531 268.38 337.09l11.445-41.922ZM384 202.578v55.078l-18.344-38.574Zm0 0"/><path fill="#2e222f" d="m242.617 146.23 12.02-14.226 6.832 13.539Zm0 0"/><path fill="#f2ec8b" d="m200.887 108.066 26.55 13.63-7.55 8.245Zm0 0"/><path fill="#f1eb8a" d="m227.438 121.695 15.859 7.535-14.508 2.743Zm0 0"/><path fill="#2e222f" d="m242.617 146.23.68-17 11.34 2.774Zm0 0"/><path fill="#f1eb8a" d="m229.57 40.996 7.192 55.211-48.844-19.215ZM236.762 96.207l-35.875 11.86-12.969-31.075Zm0 0"/><path fill="#f2ec8b" d="m200.887 108.066 35.875-11.859-9.324 25.488Zm0 0"/><path fill="#f1eb8a" d="M97.672.023 172.055 0l-13.399 27.387ZM72.168 273.5l18.734-.2 7.203 9.942ZM72.168 273.5l22.746-7.32-4.012 7.12Zm0 0"/><path fill="#f1eb8a" d="m94.914 266.18-22.746 7.32 8.074-42.219Zm0 0"/><path fill="#cd683d" d="m94.914 266.18 9.953-33.004 25.348 12.27Zm0 0"/><path fill="#f1eb8a" d="m104.867 233.176-9.953 33.004-14.672-34.899ZM106.918 175.09l-10.57-10.516 20.664.86Zm0 0"/><path fill="#cf6c3e" d="m18.816 228.477-1.296-41.989 21.066 50.086Zm0 0"/><path fill="#f1eb8a" d="m-.016 219.242 18.832 9.235L0 261.157Zm0 0"/><path fill="#cf6c3e" d="m-.016 219.242 17.536-32.754 1.296 41.989Zm0 0"/><path fill="#f2ec8b" d="m37.152 310.043 6.996-59.344 28.02 22.801Zm0 0"/><path fill="#f1eb8a" d="M221.86 384h-84.376l44.211-32.492Zm0 0"/><path fill="#f2ec8b" d="M103.45 345.113 63.933 384l14.82-53.3Zm0 0"/><path fill="#f1eb8a" d="M316.055 141.773 291 96.945l50.629 16.293Zm0 0"/><path fill="#fab853" d="m244.527 235.52 8.22-8 3.534 8.554Zm0 0"/><path fill="#f1eb8a" d="m94.914 266.18 3.191 17.062-7.203-9.941ZM139.629 351.043l22.152-15.133 19.914 15.598Zm0 0"/><path fill="#2e222f" d="m191.781 191.762-16.902 12.601-6.723-17.082Zm0 0"/><path fill="#f1eb8a" d="m300.922 384 29.031-76.469L384 384ZM384 257.656l-37.21-13.933 18.866-24.641ZM346.79 243.723l-5-23.93 23.866-.711Zm0 0"/><path fill="#f1eb8a" d="M346.79 243.723 384 257.656l-54.047 49.875Zm0 0"/><path fill="#d87c43" d="M.008 66.59.004 27.53l13.21 1.817Zm0 0"/><path fill="#fab753" d="m.008 66.59 13.207-37.242L36.738 55.78Zm0 0"/><path fill="#2e222f" d="m221.023 140.441-1.136-10.5 8.902 2.032ZM234.355 167.02l-7.855-9.579 16.031 5.293ZM259.21 161.707l-16.593-15.477 18.852-.687Zm0 0"/><path fill="#2e222f" d="m242.617 146.23 16.594 15.477-16.68 1.027Zm0 0"/><path fill="#f1eb8a" d="M341.629 113.238 291 96.945l29.48-44.02Zm0 0"/><path fill="#2e222f" d="m226.5 157.441 16.117-11.21-.086 16.503ZM243.297 129.23l-.68 17-13.828-14.257Zm0 0"/><path fill="#f1eb8a" d="m236.762 96.207 6.535 33.023-15.86-7.535ZM291 96.945l-54.238-.738-7.192-55.21Zm0 0"/><path fill="#b9be88" d="m170.555 102.324-7.426-36.765 24.789 11.433Zm0 0"/><path fill="#a2ab88" d="m147.5 81.902 23.055 20.422-12.809 9.938Zm0 0"/><path fill="#ece78a" d="M170.555 102.324 147.5 81.902l15.629-16.343Zm0 0"/><path fill="#f2ec8b" d="m81.25 302.297 17.777 18.734-20.273 9.668Zm0 0"/><path fill="#f2ec8b" d="m81.25 302.297-2.496 28.402-41.602-20.656ZM81.25 302.297l-44.098 7.746L72.168 273.5Zm0 0"/><path fill="#f1eb8a" d="M81.25 302.297 72.168 273.5l25.937 9.742Zm0 0"/><path fill="#fab853" d="m17.52 186.488 6.285 2.606 14.78 47.48Zm0 0"/><path fill="#cd683d" d="m23.805 189.094-6.285-2.606 24.625-28.531Zm0 0"/><path fill="#e99a4b" d="m125.215 269.715-30.3-3.535 35.3-20.735Zm0 0"/><path fill="#cd683d" d="m125.215 269.715-27.11 13.527-3.19-17.062Zm0 0"/><path fill="#f1eb8a" d="m106.73 219.426-19.597-16.27 23.695.469Zm0 0"/><path fill="#f1eb8a" d="M106.73 219.426 80.242 231.28l6.89-28.125ZM80.242 231.281l26.488-11.855-1.863 13.75Zm0 0"/><path fill="#fab853" d="m.023 140.195 42.122 17.762-42.16 13.234Zm0 0"/><path fill="#ce693d" d="M-.016 219.242v-48.05l17.536 15.296Zm0 0"/><path fill="#fab853" d="M17.52 186.488-.016 171.191l42.16-13.234Zm0 0"/><path fill="#f1eb8a" d="m18.816 228.477 19.77 8.097 5.562 14.125Zm0 0"/><path fill="#f1eb8b" d="M37.152 310.043 0 261.156 44.148 250.7Zm0 0"/><path fill="#f1eb8a" d="m0 261.156 37.152 48.887L0 311.758Zm0 0"/><path fill="#f2ec8b" d="m0 311.758 37.152-1.715L0 384ZM37.152 310.043 63.934 384H0Zm0 0"/><path fill="#f2ec8b" d="m63.934 384-26.782-73.957 41.602 20.656ZM63.934 384l39.515-38.887L137.484 384Zm0 0"/><path fill="#f1eb8a" d="m113.555 322.531-10.106 22.582-4.422-24.082Zm0 0"/><path fill="#f2ec8b" d="m99.027 321.031 4.422 24.082L78.754 330.7Zm0 0"/><path fill="#2e222f" d="m254.637 132.004 14.586.816-7.754 12.723Zm0 0"/><path fill="#f2eb8a" d="m384 202.578-13.531-27.754L384 164.414Zm0 0"/><path fill="#f1eb8a" d="m370.469 174.824-5.711-29.02L384 164.415Zm0 0"/><path fill="#2e222f" d="m335.95 207.176 5.84 12.617-17.06-1.695Zm0 0"/><path fill="#f1eb8a" d="m316.055 141.773-17.59-3.738L291 96.945ZM222.719 0l6.851 40.996-16.86-2.613Zm0 0"/><path fill="#2e222f" d="m244.527 235.52-10.074 14.171-10.383-9.316Zm0 0"/><path fill="#fab853" d="m252.746 227.52 10.102.972-6.567 7.582Zm0 0"/><path fill="#2e222f" d="m236.91 217.691 7.617 17.829-20.457 4.855Zm0 0"/><path fill="#f8b552" d="m236.91 217.691 15.836 9.829-8.219 8Zm0 0"/><path fill="#f1eb8a" d="m137.484 384 2.145-32.957 42.066.465ZM139.629 351.043 137.484 384l-34.035-38.887ZM139.629 351.043l1.266-19.777 20.886 4.644Zm0 0"/><path fill="#d77b42" d="m174.71 230.54-14.624-25.06 14.793-1.117Zm0 0"/><path fill="#f2ec8b" d="M268.379 337.09 221.859 384l-4.558-52.707ZM268.379 337.09l-51.078-5.797 30.273-29.316Zm0 0"/><path fill="#f1eb8a" d="m247.574 301.977 16.906-41.493 15.344 34.684Zm0 0"/><path fill="#f1eb8a" d="m264.48 260.484-16.906 41.493-10.289-29.926ZM213.969 304.703l33.605-2.726-30.273 29.316Zm0 0"/><path fill="#f2ec8b" d="M329.953 307.531 384 257.656V384Zm0 0"/><path fill="#f1eb8b" d="M268.379 337.09 300.922 384h-79.063Zm0 0"/><path fill="#f2ec8b" d="M329.953 307.531 300.922 384l-32.543-46.91Zm0 0"/><path fill="#312530" d="m341.79 219.793-13.54 9.363-3.52-11.058Zm0 0"/><path fill="#f0ea8a" d="m346.79 243.723-18.54-14.567 13.54-9.363Zm0 0"/><path fill="#2e222f" d="m251.305 250.578 13.175 9.906-27.195 11.567Zm0 0"/><path fill="#fab853" d="m251.305 250.578-6.778-15.058 11.754.554Zm0 0"/><path fill="#2e222f" d="m234.453 249.691 16.852.887-14.02 21.473Zm0 0"/><path fill="#2e222f" d="m251.305 250.578-16.852-.887 10.074-14.171Zm0 0"/><path fill="#fab853" d="m270.059 241.398-18.754 9.18 4.976-14.504Zm0 0"/><path fill="#2e222f" d="m251.305 250.578 18.754-9.18-5.579 19.086Zm0 0"/><path fill="#f2ea89" d="M40.332 26.105 27.445.015 57.32.005Zm0 0"/><path fill="#cf6c3e" d="m27.445.016-14.23 29.332L.023.004Zm0 0"/><path fill="#f1eb8a" d="M13.215 29.348.004 27.53.024.004Zm0 0"/><path fill="#e38f48" d="m13.215 29.348 27.117-3.243-3.594 29.676Zm0 0"/><path fill="#fab955" d="m36.738 55.781 3.594-29.676 22.902 5.852Zm0 0"/><path fill="#2e222f" d="m121.09 182.488-14.172-7.398 10.094-9.656ZM140.531 133.574l-4.933-11.633 22.148-9.68Zm0 0"/><path fill="#886658" d="m121.09 182.488 17-7.156.851 20.836Zm0 0"/><path fill="#2e222f" d="m171.445 177.836 20.336 13.926-23.625-4.48Zm0 0"/><path fill="#2e222f" d="m171.445 177.836 22.465-3.672-2.129 17.598Zm0 0"/><path fill="#fab853" d="m219.34 183.145-25.43-8.98 7.887-8.282Zm0 0"/><path fill="#fab853" d="m193.91 174.164-23.11-13.707 30.997 5.426Zm0 0"/><path fill="#2e222f" d="m170.8 160.457 23.11 13.707-22.465 3.672Zm0 0"/><path fill="#fab853" d="m239.336 174.223 6.117 12.68-13.516-3.442ZM245.453 186.902l-6.117-12.68 15.215-.324Zm0 0"/><path fill="#2e222f" d="m254.55 173.898-15.214.325 3.195-11.489Zm0 0"/><path fill="#2e222f" d="m239.336 174.223-4.98-7.203 8.175-4.286ZM254.55 173.898l4.66-12.191 10.403 14.23Zm0 0"/><path fill="#2e222f" d="m259.21 161.707-4.66 12.191-12.019-11.164Zm0 0"/><path fill="#f1eb8a" d="m229.57 40.996 90.91 11.93L291 96.946ZM243.297 129.23l13.52-8.71-2.18 11.484ZM236.762 96.207l20.054 24.313-13.52 8.71Zm0 0"/><path fill="#f1eb8a" d="m256.816 120.52 12.407 12.3-14.586-.816ZM269.223 132.82l-12.407-12.3L291 96.945Zm0 0"/><path fill="#f1eb8a" d="m291 96.945-34.184 23.575-20.054-24.313ZM63.234 31.957l51.11 12.578-39.07 15.274ZM158.656 27.387l4.473 38.172-48.785-21.024ZM163.129 65.559 147.5 81.902l-33.156-37.367ZM200.887 108.066l-30.332-5.742 17.363-25.332ZM170.555 102.324l30.332 5.742-26.598 9.145Zm0 0"/><path fill="#f1eb8a" d="m157.746 112.262 12.809-9.938 3.734 14.887Zm0 0"/><path fill="#f1eb8b" d="m200.887 108.066-5.793 22.641-20.805-13.496Zm0 0"/><path fill="#f2ec8b" d="m195.094 130.707 5.793-22.64 19 21.874Zm0 0"/><path fill="#f1eb8a" d="m124.86 92.965-26.587 21.523-23-54.68Zm0 0"/><path fill="#f1eb8a" d="m114.344 44.535 10.515 48.43-49.586-33.156Zm0 0"/><path fill="#f1eb8a" d="m147.5 81.902-22.64 11.063-10.516-48.43Zm0 0"/><path fill="#f0ea8a" d="m135.598 121.941-10.739-28.976 32.887 19.297Zm0 0"/><path fill="#f1eb8a" d="m124.86 92.965 22.64-11.063 10.246 30.36ZM76.64 109.652l21.633 4.836-8.515 10.395ZM97.215 142.402l19.797 23.032-20.664-.86Zm0 0"/><path fill="#f1eb8a" d="m117.012 165.434-19.797-23.032 21.203-2.738Zm0 0"/><path fill="#d47540" d="m74.922 133.703-1.442 12.285-17.796-1.746Zm0 0"/><path fill="#cf6b3e" d="m45.176 145.82 10.508-1.578-13.54 13.715Zm0 0"/><path fill="#f1eb8a" d="m61.23 208.059 14.184-14.676 11.719 9.773ZM61.23 208.059l19.012 23.222L44.148 250.7Zm0 0"/><path fill="#f1eb8a" d="M80.242 231.281 61.23 208.06l25.903-4.903Zm0 0"/><path fill="#fab753" d="M75.414 193.383 61.23 208.059l-10.613-22.676Zm0 0"/><path fill="#f1eb8a" d="m87.133 203.156-11.719-9.773 20.934-28.809Zm0 0"/><path fill="#cd683d" d="m106.73 219.426 18.832 1.351-20.695 12.399Zm0 0"/><path fill="#e08a46" d="m130.215 245.445-4.653-24.668 24.376 4.176Zm0 0"/><path fill="#ce6a3d" d="m125.563 220.777 4.652 24.668-25.348-12.27Zm0 0"/><path fill="#cd683d" d="m.023 140.195 31.11-11.968 11.012 29.73Zm0 0"/><path fill="#fab853" d="m48.402 118.125-17.27 10.102 13.77-15.008Zm0 0"/><path fill="#cd693d" d="m31.133 128.227-5.746-17.645 19.515 2.637Zm0 0"/><path fill="#d47440" d="m25.387 110.582 5.746 17.645-31.11 11.968Zm0 0"/><path fill="#cd683d" d="m31.133 128.227 14.043 17.593-3.031 12.137Zm0 0"/><path fill="#fab853" d="M.023 140.195.008 66.59l25.379 43.992Zm0 0"/><path fill="#2e222f" d="m190.277 315.633-17.347-3.238 8.875-12.141Zm0 0"/><path fill="#f1eb8a" d="m118.95 327.934 20.679 23.109-36.18-5.93Zm0 0"/><path fill="#f1eb8a" d="m113.555 322.531 5.394 5.403-15.5 17.18ZM139.629 351.043l-20.68-23.11 21.946 3.333Zm0 0"/><path fill="#f2eb8a" d="M364.758 145.805 384 97.582v66.832Zm0 0"/><path fill="#f2eb8a" d="m384 97.582-19.242 48.223-23.13-32.567Zm0 0"/><path fill="#f1eb8a" d="m370.469 174.824-16.25-15.758 10.539-13.261ZM368.96 199.07l15.04 3.508-18.344 16.504Zm0 0"/><path fill="#f1eb8a" d="m368.96 199.07 1.509-24.246L384 202.578Zm0 0"/><path fill="#2e222f" d="m273.656 166.523 5.723 6.688-9.766 2.726Zm0 0"/><path fill="#2e222f" d="m259.21 161.707 14.446 4.816-4.043 9.415ZM324.977 161.27l-8.922-19.497 23.91 9.11Zm0 0"/><path fill="#f1eb8a" d="m269.71 0 50.77 52.926-90.91-11.93Zm0 0"/><path fill="#f1eb8a" d="M222.719 0h46.992l-40.14 40.996Zm0 0"/><path fill="#2e222f" d="m236.91 217.691-21.617 16.27 1.586-22.066Zm0 0"/><path fill="#2e222f" d="m215.293 233.96 21.617-16.269-12.84 22.684Zm0 0"/><path fill="#d16f3f" d="m191.781 191.762 3.414 21.218-20.316-8.617Zm0 0"/><path fill="#fab753" d="m236.91 217.691-8.765-12.668 11.933 3.73Zm0 0"/><path fill="#2e222f" d="m228.145 205.023 8.765 12.668-20.031-5.796Zm0 0"/><path fill="#fab853" d="m230.2 192.453-10.86-9.308 12.597.316Zm0 0"/><path fill="#fab853" d="m213.793 193.21 5.547-10.065 10.86 9.308Zm0 0"/><path fill="#f1eb8a" d="m282.074 198.566-.781-11.48 10.152 8.875ZM284.293 173.488l-3 13.598-1.914-13.875ZM287.547 208.328l-5.473-9.762 9.371-2.605Zm0 0"/><path fill="#2e222f" d="m147.578 316.594-11.219-3.91 9.957-7.887Zm0 0"/><path fill="#2e222f" d="m136.36 312.684 11.218 3.91-6.683 14.672Zm0 0"/><path fill="#f1eb8a" d="m181.695 351.508 12.297-28.18 23.309 7.965ZM193.992 323.328l-18.504-3.918 14.79-3.777Zm0 0"/><path fill="#2f232f" d="m175.488 319.41-2.558-7.015 17.347 3.238Zm0 0"/><path fill="#f1eb8a" d="m175.488 319.41 6.207 32.098-19.914-15.598ZM181.695 351.508l-6.207-32.098 18.504 3.918Zm0 0"/><path fill="#2e222f" d="m328.25 229.156-13.379 2.824 9.86-13.882Zm0 0"/><path fill="#f1eb8a" d="m321.328 250.727 25.461-7.004-16.836 63.808Zm0 0"/><path fill="#f1eb8a" d="m321.328 250.727 6.922-21.57 18.54 14.566ZM321.328 250.727l-6.457-18.747 13.379-2.824Zm0 0"/><path fill="#fab853" d="m262.848 228.492 7.21 12.906-13.777-5.324Zm0 0"/><path fill="#f1eb8a" d="m287.547 208.328 3.898-12.367 11.364 10.074Zm0 0"/><path fill="#2e222f" d="m302.809 206.035-11.364-10.074 11.98-6.824Zm0 0"/><path fill="#efa44e" d="m40.332 26.105-27.117 3.243L27.445.016Zm0 0"/><path fill="#fab954" d="M40.332 26.105 57.32.004l5.914 31.953Zm0 0"/><path fill="#2e222f" d="m152.555 177.055-14.465-1.723 9.562-15.36Zm0 0"/><path fill="#efe989" d="m140.531 133.574-22.113 6.09 17.18-17.723Zm0 0"/><path fill="#ce6a3d" d="m160.086 205.48-7.39-10.742 15.46-7.457Zm0 0"/><path fill="#d37440" d="m174.879 204.363-14.793 1.117 8.07-18.199Zm0 0"/><path fill="#2e222f" d="m242.617 146.23-21.594-5.789 7.766-8.468ZM221.023 140.441l21.594 5.79-16.117 11.21ZM201.797 165.883l24.703-8.442.39 14.227Zm0 0"/><path fill="#fab853" d="m201.797 165.883 25.094 5.785-7.551 11.477Zm0 0"/><path fill="#2e222f" d="m258.488 186.34-3.937-12.442 15.062 2.04Zm0 0"/><path fill="#2e222f" d="m258.488 186.34-13.035.562 9.098-13.004Zm0 0"/><path fill="#f1eb8a" d="M212.71 38.383 172.056 0h50.664Zm0 0"/><path fill="#f1eb8a" d="m172.055 0 40.656 38.383-54.055-10.996ZM114.344 44.535 97.672.023l60.984 27.364ZM63.234 31.957 97.672.023l16.672 44.512Zm0 0"/><path fill="#2e222f" d="m158.34 140.277-17.809-6.703 17.215-21.312ZM170.8 160.457l8.54-9.375 22.457 14.8ZM221.023 140.441l-25.93-9.734 24.794-.766Zm0 0"/><path fill="#f2eb8a" d="m75.273 59.809 1.368 49.843-38.766-12.238Zm0 0"/><path fill="#f1eb8a" d="m98.273 114.488-21.632-4.836-1.368-49.843Zm0 0"/><path fill="#2e222f" d="m97.215 142.402 1.058-27.914 20.145 25.176Zm0 0"/><path fill="#f1eb8a" d="m118.418 139.664-20.145-25.176 37.325 7.453ZM98.273 114.488l-1.058 27.914-7.457-17.52Zm0 0"/><path fill="#f1eb8a" d="m98.273 114.488 26.586-21.523 10.739 28.976Zm0 0"/><path fill="#cd683d" d="m84.313 144.45-10.833 1.538 1.442-12.285Zm0 0"/><path fill="#cd683d" d="m97.215 142.402-12.903 2.047 5.446-19.566ZM84.313 144.45l12.902-2.048-.867 22.172ZM75.414 193.383l8.898-48.934 12.036 20.125ZM31.133 128.227l24.55 16.015-10.507 1.578Zm0 0"/><path fill="#fab853" d="m55.684 144.242-24.551-16.015 17.27-10.102Zm0 0"/><path fill="#f1eb8a" d="m38.586 236.574 10.957-30.027-5.395 44.152Zm0 0"/><path fill="#f1eb8a" d="m49.543 206.547 11.687 1.512-17.082 42.64Zm0 0"/><path fill="#fab853" d="m61.23 208.059-11.687-1.512 1.074-21.164Zm0 0"/><path fill="#cd693d" d="m23.805 189.094 25.738 17.453-10.957 30.027Zm0 0"/><path fill="#cd683d" d="m49.543 206.547-25.738-17.453 26.812-3.711Zm0 0"/><path fill="#f1eb8a" d="m62.652 178.262 12.762 15.12-24.797-8Zm0 0"/><path fill="#2e222f" d="m172.93 312.395-9.086-12.075 17.96-.066Zm0 0"/><path fill="#cd693d" d="m125.563 220.777-18.833-1.351 4.098-15.801Zm0 0"/><path fill="#cd683d" d="m110.828 203.625 10.262-21.137 17.851 13.68Zm0 0"/><path fill="#f1eb8a" d="m121.09 182.488-10.262 21.137-3.91-28.535Zm0 0"/><path fill="#f1eb8a" d="m106.918 175.09 3.91 28.535-23.695-.469Zm0 0"/><path fill="#cd683d" d="m160.086 205.48-14 .192 6.61-10.934Zm0 0"/><path fill="#cf6c3e" d="m25.387 110.582 12.488-13.168 7.027 15.805Zm0 0"/><path fill="#fab853" d="m37.875 97.414-12.488 13.168L.007 66.59Zm0 0"/><path fill="#fab854" d="M37.875 97.414.008 66.59l36.73-10.809Zm0 0"/><path fill="#fab854" d="M75.273 59.809 37.875 97.414l-1.137-41.633Zm0 0"/><path fill="#cf6b3e" d="m44.902 113.219-7.027-15.805 38.766 12.238Zm0 0"/><path fill="#ce6a3d" d="m48.402 118.125-3.5-4.906 31.739-3.567Zm0 0"/><path fill="#f1eb8a" d="m81.25 302.297 19.305-1.45-1.528 20.184Zm0 0"/><path fill="#f1eb8a" d="m100.555 300.848-19.305 1.449 16.855-19.055Zm0 0"/><path fill="#d16f3f" d="m115.648 292.14 7.38-10.91 12.921 16.766Zm0 0"/><path fill="#d77a42" d="m120.008 307.758-4.36-15.617 20.301 5.855Zm0 0"/><path fill="#2e222f" d="m100.555 300.848 15.093-8.707 4.36 15.617Zm0 0"/><path fill="#cd683d" d="m123.027 281.23-7.379 10.91-17.543-8.898Zm0 0"/><path fill="#2e222f" d="m115.648 292.14-15.093 8.708-2.45-17.606ZM129.332 318.91l7.027-6.226 4.536 18.582Zm0 0"/><path fill="#f1eb8a" d="m118.95 327.934 10.382-9.024 11.563 12.356Zm0 0"/><path fill="#302430" d="m129.332 318.91-10.383 9.024-5.394-5.403Zm0 0"/><path fill="#f1eb8a" d="m344.207 143.066 10.012 16-14.254-8.183Zm0 0"/><path fill="#f1eb8a" d="m354.219 159.066-10.012-16 20.55 2.739ZM316.055 141.773l28.152 1.293-4.242 7.817ZM364.758 145.805l-20.551-2.739-2.578-29.828Zm0 0"/><path fill="#f1eb8a" d="m344.207 143.066-28.152-1.293 25.574-28.535Zm0 0"/><path fill="#2e222f" d="m354.219 159.066-3.871 5.493-10.383-13.676Zm0 0"/><path fill="#2e222f" d="m350.348 164.559 3.87-5.493 16.25 15.758ZM335.95 207.176l21.972.804-16.133 11.813Zm0 0"/><path fill="#f1eb8a" d="m341.79 219.793 16.132-11.813 7.734 11.102ZM357.922 207.98l11.039-8.91-3.305 20.012Zm0 0"/><path fill="#f2eb8a" d="m281.855 134.707-12.632-1.887L291 96.945Zm0 0"/><path fill="#f1eb8a" d="m298.465 138.035-16.61-3.328L291 96.945Zm0 0"/><path fill="#2e222f" d="m297 167.563 5.234-11.856 8.61 16.11ZM269.223 132.82l4.652 11.024-12.406 1.699Zm0 0"/><path fill="#2e222f" d="m281.855 134.707-7.98 9.137-4.652-11.024ZM273.875 143.844l7.98-9.137 4.844 12.82Zm0 0"/><path fill="#f1eb8a" d="m284.293 173.488-1.242-11.27L297 167.564ZM283.05 162.219l1.243 11.27-4.914-.278Zm0 0"/><path fill="#f1eb8a" d="m273.656 166.523 9.395-4.304-3.672 10.992ZM384 0v97.582l-63.52-44.656Zm0 0"/><path fill="#f1eb8a" d="M321.96 0H384l-63.52 52.926ZM320.48 52.926 384 97.582l-42.371 15.656Zm0 0"/><path fill="#2e222f" d="m209.84 265.535 12.367 9.453-15.246 4.723ZM196.18 299.844l8.761-8.766 9.028 13.625Zm0 0"/><path fill="#f2aa4f" d="m204.941 291.078-16.734-9.023 18.754-2.344Zm0 0"/><path fill="#2e222f" d="m204.941 291.078-8.761 8.766-7.973-17.79Zm0 0"/><path fill="#f1eb8a" d="m213.969 304.703 6.914-13.805 26.691 11.079Zm0 0"/><path fill="#2e222f" d="m204.941 291.078 15.942-.18-6.914 13.805Zm0 0"/><path fill="#2e222f" d="m222.207 274.988-1.324 15.91-13.922-11.187Zm0 0"/><path fill="#2e222f" d="m220.883 290.898-15.942.18 2.02-11.367Zm0 0"/><path fill="#fab853" d="m213.793 193.21-19.883-19.046 25.43 8.98ZM245.453 186.902l-15.254 5.551 1.738-8.992Zm0 0"/><path fill="#2e222f" d="m239.336 174.223-12.445-2.555 7.464-4.648ZM226.89 171.668l-.39-14.227 7.855 9.579Zm0 0"/><path fill="#fab853" d="m226.89 171.668 12.446 2.555-7.399 9.238Zm0 0"/><path fill="#fab853" d="m219.34 183.145 7.55-11.477 5.048 11.793Zm0 0"/><path fill="#2e222f" d="m260.098 212.79 2.75 15.702-10.102-.972Zm0 0"/><path fill="#f9b753" d="m254.988 196.594 5.11 16.195-20.02-4.035Zm0 0"/><path fill="#2e222f" d="m260.098 212.79-23.188 4.901 3.168-8.937Zm0 0"/><path fill="#2e222f" d="m236.91 217.691 23.188-4.902-7.352 14.73ZM270.059 241.398l9.476-17.03 10.473 18.007Zm0 0"/><path fill="#576068" d="m279.535 224.367-9.476 17.031-7.211-12.906Zm0 0"/><path fill="#f1eb8a" d="m221.86 384-40.165-32.492 35.606-20.215ZM140.895 331.266l17.074-7.356 3.812 12Zm0 0"/><path fill="#2e222f" d="m157.969 323.91 17.52-4.5-13.708 16.5ZM147.578 316.594l10.39 7.316-17.073 7.356ZM175.488 319.41l-17.52 4.5 14.962-11.515ZM196.18 299.844l-14.375.41 6.402-18.2ZM199.184 305.508l-3.004-5.664 17.789 4.86Zm0 0"/><path fill="#f1eb8a" d="m199.184 305.508-5.192 17.82-3.715-7.695ZM193.992 323.328l5.192-17.82 18.117 25.785ZM199.184 305.508l14.785-.805 3.332 26.59ZM295.805 269.316l34.148 38.215-50.129-12.363Zm0 0"/><path fill="#f1eb8a" d="m295.805 269.316 25.523-18.59 8.625 56.805ZM264.48 260.484l31.325 8.832-15.98 25.852Zm0 0"/><path fill="#2e222f" d="m295.21 183.703 15.634-11.887-7.418 17.32ZM295.21 183.703l8.216 5.434-11.98 6.824ZM295.21 183.703l-10.917-10.215L297 167.563Zm0 0"/><path fill="#2e222f" d="m310.844 171.816-15.633 11.887 1.789-16.14Zm0 0"/><path fill="#4e433e" d="m281.293 187.086 13.918-3.383-3.766 12.258Zm0 0"/><path fill="#f1eb8a" d="m295.21 183.703-13.917 3.383 3-13.598Zm0 0"/><path fill="#2e222f" d="m310.844 171.816 4.761 17.801-12.18-.48Zm0 0"/><path fill="#2e222f" d="m315.605 189.617-12.796 16.418.617-16.898ZM319.934 202.645l16.015 4.53-11.219 10.923Zm0 0"/><path fill="#2e222f" d="m315.605 189.617 4.329 13.028-17.125 3.39Zm0 0"/><path fill="#cd683d" d="m168.156 187.281-15.46 7.457-.141-17.683Zm0 0"/><path fill="#ce6b3d" d="m171.445 177.836-3.289 9.445-15.601-10.226Zm0 0"/><path fill="#2e222f" d="m268.121 195.305 13.172-8.22.781 11.481Zm0 0"/><path fill="#f9ba56" d="M97.672.023 63.234 31.957 57.32.004Zm0 0"/><path fill="#f1eb8a" d="M212.71 38.383 163.13 65.559l-4.473-38.172Zm0 0"/><path fill="#f1eb8a" d="m187.918 76.992-24.79-11.433 49.583-27.176Zm0 0"/><path fill="#2e222f" d="m140.531 133.574 17.809 6.703-10.688 19.696Zm0 0"/><path fill="#f1eb8a" d="m161.129 138.29-3.383-26.028 16.543 4.949Zm0 0"/><path fill="#2e222f" d="m161.129 138.29-2.79 1.987-.593-28.015Zm0 0"/><path fill="#2e222f" d="m161.129 138.29 18.21 12.792-21-10.805Zm0 0"/><path fill="#f1eb8a" d="m195.094 130.707-33.965 7.582 13.16-21.078Zm0 0"/><path fill="#2e222f" d="m179.34 151.082-18.211-12.793 33.965-7.582Zm0 0"/><path fill="#2e222f" d="m204.797 150.563-25.457.519 15.754-20.375Zm0 0"/><path fill="#2e222f" d="m221.023 140.441-16.226 10.121-9.703-19.855Zm0 0"/><path fill="#2e222f" d="m179.34 151.082 25.457-.52-3 15.32ZM201.797 165.883l3-15.32 21.703 6.878ZM204.797 150.563l16.226-10.122 5.477 17Zm0 0"/><path fill="#cd683d" d="m73.48 145.988 10.832-1.539-8.898 48.934Zm0 0"/><path fill="#f1eb8a" d="m62.652 178.262 10.828-32.274 1.934 47.395Zm0 0"/><path fill="#fab753" d="m48.402 118.125 26.52 15.578-19.238 10.54Zm0 0"/><path fill="#cd693d" d="m84.313 144.45-9.391-10.747 14.836-8.82Zm0 0"/><path fill="#d87c42" d="m74.922 133.703 1.719-24.05 13.117 15.23Zm0 0"/><path fill="#f9b653" d="m74.922 133.703-26.52-15.578 28.239-8.473Zm0 0"/><path fill="#cd683d" d="m50.617 185.383-26.812 3.71 18.34-31.136Zm0 0"/><path fill="#db8144" d="m163.844 300.32-7.926 12.02-9.602-7.543Zm0 0"/><path fill="#2e222f" d="m155.918 312.34 7.926-12.02 9.086 12.075ZM157.969 323.91l-2.051-11.57 17.012.055ZM155.918 312.34l-8.34 4.254-1.262-11.797Zm0 0"/><path fill="#2e222f" d="m155.918 312.34 2.05 11.57-10.39-7.316Zm0 0"/><path fill="#cd683d" d="m125.563 220.777 20.523-15.105 3.851 19.281Zm0 0"/><path fill="#d87d43" d="m138.941 196.168-13.379 24.61-14.734-17.153Zm0 0"/><path fill="#cd693d" d="m138.941 196.168 7.145 9.504-20.524 15.105Zm0 0"/><path fill="#2e222f" d="m113.32 314.91 16.012 4-15.777 3.621Zm0 0"/><path fill="#2e222f" d="m129.332 318.91-16.012-4 6.688-7.152Zm0 0"/><path fill="#2e222f" d="m113.32 314.91-12.765-14.062 19.453 6.91ZM113.32 314.91l.235 7.621-14.528-1.5Zm0 0"/><path fill="#2e222f" d="m100.555 300.848 12.765 14.062-14.293 6.121ZM338.781 167.578l-13.804-6.308 14.988-10.387ZM350.348 164.559l-11.567 3.02 1.184-16.696ZM324.977 161.27l13.804 6.308-11.117 12.531ZM327.664 180.11l11.117-12.532-.246 16.176Zm0 0"/><path fill="#fab753" d="m338.781 167.578 14.418 14.727-14.664 1.449Zm0 0"/><path fill="#2f232f" d="m353.2 182.305-14.419-14.727 11.567-3.02Zm0 0"/><path fill="#2e222f" d="m353.2 182.305-2.852-17.746 20.12 10.265ZM308.906 151.3l-10.441-13.265 17.59 3.738ZM324.977 161.27l-16.07-9.97 7.148-9.527Zm0 0"/><path fill="#f1eb8a" d="m283.05 162.219-9.175-18.375 12.824 3.683ZM296.402 154.324l-13.351 7.895 3.648-14.692Zm0 0"/><path fill="#2e222f" d="m296.402 154.324 5.832 1.383L297 167.563Zm0 0"/><path fill="#2e222f" d="m283.05 162.219 13.352-7.895.598 13.238Zm0 0"/><path fill="#f1eb8a" d="m233.922 285.664 3.363-13.613 10.29 29.926ZM220.883 290.898l13.039-5.234 13.652 16.313Zm0 0"/><path fill="#2e222f" d="m237.285 272.05-3.363 13.614-11.715-10.676Zm0 0"/><path fill="#2e222f" d="m233.922 285.664-13.04 5.234 1.325-15.91Zm0 0"/><path fill="#fab753" d="m199.285 271.473 10.555-5.938-2.88 14.176Zm0 0"/><path fill="#fab753" d="m209.84 265.535-10.555 5.938-12.207-16.575Zm0 0"/><path fill="#f9b653" d="m188.207 282.055 11.078-10.582 7.676 8.238Zm0 0"/><path fill="#f9b653" d="m187.078 254.898 12.207 16.575-11.078 10.582Zm0 0"/><path fill="#f8b452" d="m234.453 249.691-21.39.153 11.007-9.469Zm0 0"/><path fill="#f9b653" d="m213.063 249.844-3.223 15.691-22.762-10.637Zm0 0"/><path fill="#f8b552" d="m197.406 233.773 15.656 16.07-25.984 5.055Zm0 0"/><path fill="#fab853" d="m213.063 249.844 2.23-15.883 8.777 6.414Zm0 0"/><path fill="#f9b653" d="m213.063 249.844-15.657-16.07 17.887.187Zm0 0"/><path fill="#2e222f" d="m225.773 264.55 11.512 7.5-15.078 2.938Zm0 0"/><path fill="#f9b553" d="m209.84 265.535 15.933-.984-3.566 10.437Zm0 0"/><path fill="#2e222f" d="m237.285 272.05-11.512-7.5 8.68-14.859Zm0 0"/><path fill="#f2aa4f" d="m225.773 264.55-12.71-14.706 21.39-.153Zm0 0"/><path fill="#fab853" d="m213.063 249.844 12.71 14.707-15.933.984Zm0 0"/><path fill="#2e222f" d="m216.879 211.895-3.086-18.684 14.352 11.812Zm0 0"/><path fill="#fab853" d="m213.793 193.21 16.406-.757-2.054 12.57Zm0 0"/><path fill="#e49148" d="m216.879 211.895-11.492 12.238-10.192-11.153Zm0 0"/><path fill="#db8144" d="m215.293 233.96-9.906-9.827 11.492-12.238Zm0 0"/><path fill="#f8b452" d="m197.406 233.773 7.98-9.64 9.907 9.828Zm0 0"/><path fill="#2e222f" d="m191.781 191.762 2.13-17.598 19.882 19.047Zm0 0"/><path fill="#dec679" d="m191.781 191.762 25.098 20.133-21.684 1.085Zm0 0"/><path fill="#2e222f" d="m191.781 191.762 22.012 1.449 3.086 18.684Zm0 0"/><path fill="#fab853" d="m238.457 199.613-8.258-7.16 15.254-5.55Zm0 0"/><path fill="#fab853" d="m230.2 192.453 8.257 7.16-10.312 5.41Zm0 0"/><path fill="#fab753" d="m228.145 205.023 10.312-5.41 1.621 9.14Zm0 0"/><path fill="#fab753" d="m238.457 199.613 16.531-3.02-14.91 12.16Zm0 0"/><path fill="#2e222f" d="m268.121 195.305-8.023 17.484-5.11-16.195ZM136.36 312.684l-16.352-4.926 15.941-9.762Zm0 0"/><path fill="#2e222f" d="m146.316 304.797-9.957 7.887-.41-14.688Zm0 0"/><path fill="#2e222f" d="m136.36 312.684-7.028 6.226-9.324-11.152Zm0 0"/><path fill="#e28e47" d="m148.414 286.156-2.098 18.64-10.367-6.8Zm0 0"/><path fill="#dc8344" d="m130.215 245.445 31.246 23.602-36.246.668Zm0 0"/><path fill="#eb9e4c" d="m161.46 269.047-13.046 17.11-23.2-16.442Zm0 0"/><path fill="#2e222f" d="m196.18 299.844 3.004 5.664-8.907 10.125Zm0 0"/><path fill="#2e222f" d="m196.18 299.844-5.903 15.789-8.472-15.38Zm0 0"/><path fill="#596169" d="m302.672 225.355-1.031 17.262-11.633-.242Zm0 0"/><path fill="#4f535c" d="m301.64 242.617 1.032-17.262 12.2 6.625Zm0 0"/><path fill="#f1eb8a" d="m321.328 250.727-19.687-8.11 13.23-10.637Zm0 0"/><path fill="#f1eb8a" d="m295.805 269.316 5.836-26.699 19.687 8.11Zm0 0"/><path fill="#2e222f" d="m279.535 224.367 18.399-.316-7.926 18.324Zm0 0"/><path fill="#565f68" d="m297.934 224.05 4.738 1.305-12.664 17.02Zm0 0"/><path fill="#302430" d="m302.672 225.355-4.738-1.304 4.875-18.016Zm0 0"/><path fill="#2e222f" d="m297.934 224.05-10.387-15.722 15.262-2.293Zm0 0"/><path fill="#f1eb8a" d="m297.934 224.05-18.399.317 8.012-16.039Zm0 0"/><path fill="#2e222f" d="m315.488 217.648-12.816 7.707.137-19.32Zm0 0"/><path fill="#fab753" d="m319.934 202.645-4.446 15.003-12.68-11.613Zm0 0"/><path fill="#2e222f" d="m315.488 217.648 4.446-15.003 4.796 15.453Zm0 0"/><path fill="#2e222f" d="m314.871 231.98.617-14.332 9.242.45Zm0 0"/><path fill="#2e222f" d="m302.672 225.355 12.816-7.707-.617 14.332Zm0 0"/><path fill="#302430" d="m283.617 252.23-13.558-10.832 19.949.977Zm0 0"/><path fill="#f1eb8a" d="m301.64 242.617-18.023 9.613 6.39-9.855ZM283.617 252.23l18.024-9.613-5.836 26.7Zm0 0"/><path fill="#576069" d="m270.059 241.398 13.558 10.832-19.137 8.254Zm0 0"/><path fill="#f1eb8a" d="m283.617 252.23 12.188 17.086-31.325-8.832Zm0 0"/><path fill="#2e222f" d="m327.664 180.11-12.059 9.507-4.761-17.8Zm0 0"/><path fill="#fab853" d="m319.934 202.645 9.68-8.903 6.335 13.434ZM329.613 193.742l-9.68 8.903-4.328-13.028Zm0 0"/><path fill="#2e222f" d="m131.441 161.625 9.09-28.05 7.121 26.398Zm0 0"/><path fill="#2e222f" d="m131.441 161.625-13.023-21.96 22.113-6.09ZM138.09 175.332l-6.649-13.707 16.211-1.652Zm0 0"/><path fill="#2e222f" d="m131.441 161.625 6.649 13.707-17 7.156Zm0 0"/><path fill="#2e222f" d="m131.441 161.625-10.351 20.863-4.078-17.054ZM118.418 139.664l13.023 21.961-14.43 3.809Zm0 0"/><path fill="#72625f" d="m152.555 177.055-13.614 19.113-.851-20.836Zm0 0"/><path fill="#cd683d" d="m138.941 196.168 13.614-19.113.14 17.683ZM138.941 196.168l13.754-1.43-6.61 10.934Zm0 0"/><path fill="#2e222f" d="m269.613 175.938-1.492 19.367-9.633-8.965Zm0 0"/><path fill="#f1eb8a" d="m281.293 187.086-11.68-11.149 9.766-2.726Zm0 0"/><path fill="#2e222f" d="m268.121 195.305 1.492-19.368 11.68 11.149Zm0 0"/><path fill="#f0a64e" d="m254.988 196.594-16.531 3.02 6.996-12.712Zm0 0"/><path fill="#2e222f" d="m258.488 186.34-3.5 10.254-9.535-9.692Zm0 0"/><path fill="#2e222f" d="m268.121 195.305-13.133 1.289 3.5-10.254ZM170.8 160.457l.645 17.379-18.89-.781ZM179.34 151.082l-8.54 9.375-12.46-20.18Zm0 0"/><path fill="#f2eb8a" d="m55.684 144.242.66 27.32-14.2-13.605Zm0 0"/><path fill="#cf6c3e" d="m56.344 171.563-5.727 13.82-8.472-27.426Zm0 0"/><path fill="#f1eb8a" d="m73.48 145.988-17.136 25.575-.66-27.32Zm0 0"/><path fill="#f1eb8b" d="m56.344 171.563 17.136-25.575-10.828 32.274Zm0 0"/><path fill="#ce693d" d="m50.617 185.383 5.727-13.82 6.308 6.699Zm0 0"/><path fill="#e8974a" d="m146.316 304.797 2.098-18.64 15.43 14.163Zm0 0"/><path fill="#f7b352" d="m148.414 286.156 21.246 2.824-5.816 11.34Zm0 0"/><path fill="#ea9c4b" d="m163.844 300.32 5.816-11.34 12.145 11.274Zm0 0"/><path fill="#dd8545" d="M181.805 300.254 169.66 288.98l18.547-6.925Zm0 0"/><path fill="#2e222f" d="m357.922 207.98 1.789-14.59 9.25 5.68Zm0 0"/><path fill="#2e222f" d="m368.96 199.07-9.25-5.68 10.759-18.566Zm0 0"/><path fill="#2e222f" d="m359.71 193.39-6.51-11.085 17.269-7.48ZM295.813 144.285l13.093 7.016-6.672 4.406ZM295.813 144.285l.59 10.04-9.704-6.798Zm0 0"/><path fill="#2e222f" d="m296.402 154.324-.59-10.039 6.422 11.422ZM281.855 134.707l13.957 9.578-9.113 3.242Zm0 0"/><path fill="#2e222f" d="m295.813 144.285-13.958-9.578 16.61 3.328Zm0 0"/><path fill="#2e222f" d="m308.906 151.3-13.094-7.015 2.653-6.25ZM308.906 151.3l1.938 20.516-8.61-16.109ZM310.844 171.816l14.133-10.546 2.687 18.84Zm0 0"/><path fill="#2e222f" d="m310.844 171.816-1.938-20.515 16.07 9.969ZM273.875 143.844l-3.957 12.652-8.45-10.953Zm0 0"/><path fill="#f1eb8a" d="m283.05 162.219-13.132-5.723 3.957-12.652Zm0 0"/><path fill="#2e222f" d="m269.918 156.496-10.707 5.211 2.258-16.164Zm0 0"/><path fill="#2e222f" d="m269.918 156.496 3.738 10.027-14.445-4.816Zm0 0"/><path fill="#f1eb8a" d="m269.918 156.496 13.133 5.723-9.395 4.304Zm0 0"/><path fill="#ec9e4c" d="m195.195 212.98-20.484 17.56.168-26.177Zm0 0"/><path fill="#d87d43" d="m271.977 211.832 7.558 12.535-16.687 4.125Zm0 0"/><path fill="#dd9855" d="m260.098 212.79 11.879-.958-9.13 16.66Zm0 0"/><path fill="#2e222f" d="m268.121 195.305 3.856 16.527-11.88.957Zm0 0"/><path fill="#f1eb8a" d="m279.535 224.367-7.558-12.535 15.57-3.504Zm0 0"/><path fill="#2e222f" d="m287.547 208.328-15.57 3.504 10.097-13.266ZM271.977 211.832l-3.856-16.527 13.953 3.261Zm0 0"/><path fill="#efa44e" d="m148.414 286.156-25.387-4.926 2.188-11.515Zm0 0"/><path fill="#d87c42" d="m123.027 281.23 25.387 4.926-12.465 11.84Zm0 0"/><path fill="#d06e3e" d="m125.215 269.715-2.188 11.515-24.922 2.012Zm0 0"/><path fill="#fab853" d="m329.613 193.742-1.949-13.633 10.871 3.645Zm0 0"/><path fill="#2e222f" d="m327.664 180.11 1.95 13.632-14.009-4.125ZM170.8 160.457l-23.148-.484 10.688-19.696Zm0 0"/><path fill="#2e222f" d="m147.652 159.973 23.149.484-18.246 16.598Zm0 0"/><path fill="#f7b252" d="m161.46 269.047 8.2 19.933-21.246-2.824Zm0 0"/><path fill="#f5ae51" d="m161.46 269.047 25.618-14.149 1.129 27.157Zm0 0"/><path fill="#f9b653" d="m169.66 288.98-8.2-19.933 26.747 13.008Zm0 0"/><path fill="#cf6c3e" d="m130.215 245.445 19.722-20.492 11.77 24.188Zm0 0"/><path fill="#eea24d" d="m161.46 269.047.247-19.906 25.371 5.757Zm0 0"/><path fill="#2e222f" d="m347.957 194.648 9.965 13.332-21.973-.804Zm0 0"/><path fill="#2e222f" d="m347.957 194.648 11.754-1.257-1.79 14.59ZM329.613 193.742l18.344.906-12.008 12.528Zm0 0"/><path fill="#f9b753" d="m347.957 194.648-18.344-.906 8.922-9.988Zm0 0"/><path fill="#2e222f" d="m353.2 182.305-5.243 12.343-9.422-10.894Zm0 0"/><path fill="#2e222f" d="m359.71 193.39-11.753 1.258 5.242-12.343Zm0 0"/><path fill="#f8b452" d="m205.387 224.133-7.98 9.64-2.212-20.793Zm0 0"/><path fill="#f6b151" d="m197.406 233.773-22.695-3.234 20.484-17.559Zm0 0"/><path fill="#ce6a3d" d="m160.086 205.48-10.149 19.473-3.851-19.281Zm0 0"/><path fill="#d67841" d="m174.71 230.54-24.773-5.587 10.149-19.473Zm0 0"/><path fill="#e18c47" d="m161.707 249.14-11.77-24.187 24.774 5.586Zm0 0"/><path fill="#f5af51" d="m174.71 230.54 22.696 3.233-10.328 21.125Zm0 0"/><path fill="#e99a4b" d="m161.46 269.047-31.245-23.602 31.492 3.696Zm0 0"/><path fill="#f1a84f" d="m174.71 230.54 12.368 24.358-25.371-5.757Zm0 0"/></svg>