<svg xmlns="http://www.w3.org/2000/svg" width="512" height="512" viewBox="0 0 384 384"><path fill="#4a714a" d="m258.855 346.543-11-39.594 43.043.84Zm0 0"/><path fill="#9eb380" d="m181.203 51.395 7.879-24.301 14.715 23.57ZM205.703 73.965l-10.668 22.137-13.113-11.852Zm0 0"/><path fill="#9db380" d="m219.023 129.793 14.278-17.469 7.406 18.48Zm0 0"/><path fill="#4a3100" d="m191.484 69.379 14.22 4.586-23.782 10.285Zm0 0"/><path fill="#9eb380" d="M203.797 50.664 191.484 69.38l-10.28-17.984Zm0 0"/><path fill="#4a3201" d="m191.484 69.379 12.313-18.715 1.906 23.3Zm0 0"/><path fill="#a1b07e" d="m203.797 50.664 33.328 3.008-31.422 20.293Zm0 0"/><path fill="#4a7049" d="m79.21 255.54-32.503 23.116 12.68-38.738Zm0 0"/><path fill="#497049" d="m98.848 176.14-8.953 16.118-2.293-15.66Zm0 0"/><path fill="#4a714a" d="m0 258.95 21.04-26.81 12.429 14.227Zm0 0"/><path fill="#4a7049" d="m46.707 278.656-13.238-32.289 25.918-6.449ZM384 246.309l-30.46-34.09 30.456-8.004Zm0 0"/><path fill="#9fb280" d="m189.082 27.094 31.387 4.96-16.672 18.61Zm0 0"/><path fill="#9eb380" d="m214.117 101.488-19.082-5.386 10.668-22.137Zm0 0"/><path fill="#9db380" d="m214.117 101.488 19.184 10.836-14.278 17.469Zm0 0"/><path fill="#9eb380" d="m237.125 53.672.547 35.094-31.969-14.801ZM237.672 88.766l-23.555 12.722-8.414-27.523ZM214.117 101.488l23.555-12.722-4.371 23.558ZM121.777 0h46.778l-19.09 35.09Zm0 0"/><path fill="#9db380" d="m165.379 69.945 26.105-.566-9.562 14.871Zm0 0"/><path fill="#4a7049" d="m79.21 255.54 4.392 20.874-36.895 2.242ZM83.602 276.414l10.601-1.098 7.508 12.926Zm0 0"/><path fill="#497049" d="m83.602 276.414 13.343-12.285-2.742 11.187Zm0 0"/><path fill="#4a7049" d="m96.945 264.129-13.343 12.285-4.391-20.875Zm0 0"/><path fill="#f6c5b4" d="m96.945 264.129 2.739-15.387 8.03 2.98Zm0 0"/><path fill="#4a7049" d="m99.684 248.742-2.739 15.387-17.734-8.59ZM97.508 158.852l1.34 17.289-11.246.457Zm0 0"/><path fill="#b75422" d="m21.04 232.14-6.59-25.171 19.429 12.902Zm0 0"/><path fill="#4a714a" d="m-.012 218.68 21.051 13.46L0 258.95Zm0 0"/><path fill="#dd7a51" d="m14.45 206.969-14.462 11.71L0 194.938Zm0 0"/><path fill="#d9774d" d="m-.012 218.68 14.461-11.711 6.59 25.172Zm0 0"/><path fill="#4a7049" d="m33.469 246.367 6.047-13.176 19.87 6.727Zm0 0"/><path fill="#4a714a" d="M106.098 349.512 77.746 384 52.63 335.441Zm0 0"/><path fill="#9eb380" d="m314.027 113.89-26.234 5.43-6.106-36.199ZM317.406 141.844l-3.379-27.953 16.102 18.257ZM257.977.012 317.918 0l-23.82 42.57Zm0 0"/><path fill="#f6c5b4" d="m94.203 275.316 14.438.809-6.93 12.117Zm0 0"/><path fill="#f6c5b5" d="m96.945 264.129 11.696 11.996-14.438-.809Zm0 0"/><path fill="#497049" d="m212.938 384-64.055-27.172 60.18-13.594Zm0 0"/><path fill="#4a714a" d="m290.898 307.79 4.477 44.12-36.52-5.367Zm0 0"/><path fill="#4a714a" d="m335.91 333.098-40.535 18.812-4.477-44.12Zm0 0"/><path fill="#4a7049" d="m274.648 384 20.727-32.09 24.71 32.09Zm0 0"/><path fill="#4a714a" d="m384 246.309-44.656 23.097 14.195-57.187ZM339.344 269.406 384 306.066l-48.09 27.032Zm0 0"/><path fill="#4a7049" d="m290.898 307.79 48.446-38.384-3.434 63.692Zm0 0"/><path fill="#dd7b52" d="M0 55.254.004 23.68l13.59 8.203Zm0 0"/><path fill="#4a2d2c" d="m229.133 145.773-10.11-15.98 21.684 1.012ZM251.168 146.7l.16 15.257-17.402-3.746ZM251.328 161.957l-14.52 12.008-2.882-15.754Zm0 0"/><path fill="#d1865b" d="m220.469 32.055 16.656 21.617-33.328-3.008Zm0 0"/><path fill="#9fb27f" d="M189.082 27.094 206.074 0l14.395 32.055Zm0 0"/><path fill="#4a2d2c" d="m229.133 145.773 22.035.926-17.242 11.512Zm0 0"/><path fill="#4a2d2c" d="m229.133 145.773 11.574-14.968 10.461 15.894Zm0 0"/><path fill="#9eb380" d="m281.688 83.121-44.016 5.645-.547-35.094Zm0 0"/><path fill="#9eb381" d="m189.082 27.094-39.617 7.996L168.555 0Zm0 0"/><path fill="#9eb380" d="m155.867 112.332 9.512-42.387 16.543 14.305Zm0 0"/><path fill="#9eb380" d="M155.867 112.332 119.684 76.34l45.695-6.395Zm0 0"/><path fill="#9db380" d="m214.117 101.488-18.656 10.922-.426-16.308Zm0 0"/><path fill="#9db380" d="m195.46 112.41 18.657-10.922 4.906 28.305Zm0 0"/><path fill="#4a714a" d="m81.066 298.887 15.082 24.035-43.52 12.52Zm0 0"/><path fill="#4a7049" d="m83.602 276.414-2.536 22.473-34.359-20.23Zm0 0"/><path fill="#4a7049" d="m46.707 278.656 34.36 20.23-28.438 36.555Zm0 0"/><path fill="#4a7049" d="m81.066 298.887 2.536-22.473 18.109 11.828ZM69.773 194.098l20.122-1.84-2.743 16.074Zm0 0"/><path fill="#dc7950" d="m14.45 206.969 12.527-9.547 6.902 22.45Zm0 0"/><path fill="#dd7a51" d="m26.977 197.422-12.528 9.547 1.5-24.36Zm0 0"/><path fill="#9c3900" d="m26.977 197.422-11.028-14.813 25.352-14.945Zm0 0"/><path fill="#f6c5b4" d="m99.684 248.742 4.953-11.972 3.078 14.953Zm0 0"/><path fill="#f6c5b4" d="m113.8 267.066-16.855-2.937 10.77-12.406ZM113.8 267.066l-5.16 9.059-11.695-11.996Zm0 0"/><path fill="#4a7049" d="m89.895 192.258 13.171 8.957-15.914 7.117Zm0 0"/><path fill="#4a704a" d="m103.066 201.215 4.227 15.922-20.14-8.805Zm0 0"/><path fill="#4a7049" d="m107.293 217.137-4.227-15.922 7.653 2.726ZM99.684 248.742l-15.196-17.77 20.149 5.798Zm0 0"/><path fill="#4a7049" d="m107.293 217.137-22.805 13.836 2.664-22.641Zm0 0"/><path fill="#497049" d="m84.488 230.973 22.805-13.836-2.656 19.633Zm0 0"/><path fill="#4a7049" d="m84.488 230.973 15.196 17.77-20.473 6.796Zm0 0"/><path fill="#4a7049" d="m84.488 230.973-5.277 24.566-19.824-15.621Zm0 0"/><path fill="#9c3900" d="m26.176 120.266-3.883 31.171L.012 136.267Zm0 0"/><path fill="#dd7a51" d="M0 194.938v-23.614l15.95 11.285ZM14.45 206.969 0 194.938l15.95-12.329Zm0 0"/><path fill="#dd7a51" d="M14.55 163.234 0 171.324l.012-35.058Zm0 0"/><path fill="#dd7a51" d="m22.293 151.438-7.742 11.796L.01 136.266Zm0 0"/><path fill="#c05d2d" d="m14.55 163.234 7.743-11.797 19.008 16.227Zm0 0"/><path fill="#d9764c" d="m15.95 182.61-1.4-19.376 26.75 4.43Zm0 0"/><path fill="#dd7a51" d="m0 171.324 14.55-8.09 1.4 19.375Zm0 0"/><path fill="#497049" d="m32.371 233.371 7.145-.18-6.047 13.176ZM21.04 232.14l11.331 1.231 1.098 12.996Zm0 0"/><path fill="#dd7a51" d="m32.371 233.371-11.332-1.23 12.84-12.27Zm0 0"/><path fill="#d67348" d="m39.516 233.191-7.145.18 1.508-13.5Zm0 0"/><path fill="#4a714a" d="m0 258.95 46.707 19.706L0 304.398Zm0 0"/><path fill="#4a714a" d="M46.707 278.656 0 258.95l33.469-12.582Zm0 0"/><path fill="#4a704a" d="m46.707 278.656 5.922 56.785L0 304.398Zm0 0"/><path fill="#4a714a" d="m0 338.258 52.629-2.817L0 384ZM52.629 335.441 77.746 384H0Zm0 0"/><path fill="#497049" d="m133.602 384-27.504-34.488 42.785 7.316Zm0 0"/><path fill="#4a714a" d="M106.098 349.512 133.602 384H77.746Zm0 0"/><path fill="#497049" d="m130.656 321.313-24.558 28.199-9.95-26.59Zm0 0"/><path fill="#4a714a" d="m96.148 322.922 9.95 26.59-53.47-14.07Zm0 0"/><path fill="#4a2d2c" d="m240.707 130.805 21.04.867-10.579 15.027Zm0 0"/><path fill="#9eb380" d="m383.996 204.215-16.992-34.043L384 135.996Zm0 0"/><path fill="#9eb380" d="M367.004 170.172 345.43 139.27l38.57-3.274ZM328.82 146.453l-11.414-4.61 12.723-9.695Zm0 0"/><path fill="#4a2d2c" d="m332.21 209.23 21.33 2.989-26.313 16.152Zm0 0"/><path fill="#9eb380" d="m305.586 139.45-17.793-20.13 26.234-5.43Zm0 0"/><path fill="#9eb380" d="m317.406 141.844-11.82-2.395 8.441-25.558ZM294.098 42.57l-12.41 40.551-44.563-29.45ZM294.098 42.57l44.8-3.738-12.738 38.367Zm0 0"/><path fill="#9eb380" d="m257.977.012-20.852 53.66-16.656-21.617ZM237.125 53.672 257.977.012l36.12 42.558ZM326.16 77.2 384 73.276l-37.523 38.75ZM346.477 112.027 384 73.277v62.72Zm0 0"/><path fill="#4a2d2c" d="m241.238 227.828 4.922 11.086-10.437 4.879Zm0 0"/><path fill="#dd7a51" d="m241.238 227.828 15.032 6.363-10.11 4.723ZM241.238 227.828l-9.84-13.246 8.086-6.941Zm0 0"/><path fill="#4a7049" d="m161.754 334.195-12.871 22.633-8.184-24.453Zm0 0"/><path fill="#9c3900" d="m183.477 221.21-16.063-13.265 13.195-8.078Zm0 0"/><path fill="#4a714a" d="M258.855 346.543 212.937 384l-3.875-40.766Zm0 0"/><path fill="#4a7049" d="m133.602 384 15.28-27.172L212.938 384Zm0 0"/><path fill="#4a714a" d="m258.855 346.543-49.793-3.309 38.793-36.285Zm0 0"/><path fill="#4a714a" d="m247.855 306.95 19.38-44.598 23.663 45.437Zm0 0"/><path fill="#4a7049" d="m267.234 262.352-19.379 44.597-6.367-39.547ZM213.914 304.375l33.941 2.574-38.792 36.285Zm0 0"/><path fill="#4a704a" d="M335.91 333.098 384 306.066V384Zm0 0"/><path fill="#4a7049" d="M335.91 333.098 384 384h-63.914Zm0 0"/><path fill="#4a714a" d="m295.375 351.91 40.535-18.812L320.086 384Zm0 0"/><path fill="#4a7049" d="M258.855 346.543 274.648 384h-61.71Zm0 0"/><path fill="#4a7049" d="M295.375 351.91 274.648 384l-15.793-37.457Zm0 0"/><path fill="#497049" d="M339.344 269.406 384 246.31v59.757Zm0 0"/><path fill="#4a704a" d="m353.54 212.219-14.196 57.187-12.117-41.035Zm0 0"/><path fill="#4a2d2c" d="m249.934 250.828 17.3 11.524-25.746 5.05Zm0 0"/><path fill="#dc7a51" d="m249.934 250.828-3.774-11.914 10.11-4.723Zm0 0"/><path fill="#4a2d2c" d="m235.723 243.793 14.21 7.035-8.445 16.574Zm0 0"/><path fill="#4a2d2c" d="m249.934 250.828-14.211-7.035 10.437-4.879Zm0 0"/><path fill="#c8724c" d="m267.445 244.316-17.511 6.512 6.336-16.637Zm0 0"/><path fill="#4a2d2c" d="m249.934 250.828 17.511-6.512-.21 18.036Zm0 0"/><path fill="#f6c5b4" d="M.004 23.68 0-.023l9.258 17.53ZM.004 23.68l9.254-6.172 4.336 14.375Zm0 0"/><path fill="#d67348" d="M0 94.61V55.253l32.938.324Zm0 0"/><path fill="#9c3900" d="M32.938 55.578 0 55.254l13.594-23.371Zm0 0"/><path fill="#4a714a" d="m114.223 168.488-15.375 7.653-1.34-17.29Zm0 0"/><path fill="#9db380" d="m139.605 124.715-16.144-10.66 32.406-1.723Zm0 0"/><path fill="#4a2d2c" d="m114.223 168.488 17.55-1.527-3.738 16.387Zm0 0"/><path fill="#4a2d2c" d="m131.773 166.96 14.723.548-18.46 15.84Zm0 0"/><path fill="#9c3900" d="m180.61 199.867 23.652-18.234 1.261 5.93Zm0 0"/><path fill="#4a2d2c" d="m173.492 169.059 30.77 12.574-23.653 18.234Zm0 0"/><path fill="#dd7a51" d="m204.262 181.633-30.77-12.574 29.14.363Zm0 0"/><path fill="#4a2d2c" d="m251.328 161.957 8.422 11.277-22.941.73Zm0 0"/><path fill="#9db380" d="m233.3 112.324 23.262-1.258-15.855 19.739Zm0 0"/><path fill="#9db380" d="m256.563 111.066 5.183 20.606-21.039-.867Zm0 0"/><path fill="#9eb380" d="m261.746 131.672-5.183-20.606 31.23 8.254ZM256.563 111.066l-23.262 1.258 4.37-23.558ZM281.688 83.121l-25.125 27.945-18.891-22.3Zm0 0"/><path fill="#9eb380" d="m287.793 119.32-31.23-8.254 25.125-27.945ZM70.82 0l22.137 44.824-31.715-3.972Zm0 0"/><path fill="#9eb380" d="M92.957 44.824 70.82 0h50.957ZM149.465 35.09l-29.781 41.25-26.727-31.516Zm0 0"/><path fill="#9eb380" d="m119.684 76.34 29.78-41.25 15.915 34.855Zm0 0"/><path fill="#4a3100" d="m174.074 97.727-18.207 14.605 26.055-28.082Zm0 0"/><path fill="#9eb380" d="m195.035 96.102-20.96 1.625 7.847-13.477Zm0 0"/><path fill="#9db380" d="m195.46 112.41-21.386-14.683 20.961-1.625Zm0 0"/><path fill="#9db380" d="m174.074 97.727 21.387 14.683-16.3 6.988ZM155.867 112.332l18.207-14.605 5.086 21.671Zm0 0"/><path fill="#9db380" d="m195.46 112.41-1.503 19.895-14.797-12.907Zm0 0"/><path fill="#9db380" d="m193.957 132.305 1.504-19.895 23.562 17.383Zm0 0"/><path fill="#dc7c52" d="m119.684 76.34-8.496 9.144-18.231-40.66Zm0 0"/><path fill="#9eb380" d="m123.46 114.055-12.272-28.57 44.68 26.847Zm0 0"/><path fill="#9eb380" d="m111.188 85.484 8.496-9.144 36.183 35.992Zm0 0"/><path fill="#4a714a" d="m97.508 158.852-2.18-28.086 13.969 1.738ZM52.629 335.441 0 338.258v-33.86Zm0 0"/><path fill="#9eb380" d="m51.078 139 21.598 7.64-20.906 6.735Zm0 0"/><path fill="#d37045" d="m38.98 151.816 12.79 1.559-10.47 14.29Zm0 0"/><path fill="#dd7a51" d="m22.293 151.438 16.687.378 2.32 15.848Zm0 0"/><path fill="#4a7049" d="m62.258 206.836 7.515-12.738 17.38 14.234ZM62.258 206.836l22.23 24.137-25.101 8.945Zm0 0"/><path fill="#4a7049" d="m84.488 230.973-22.23-24.137 24.894 1.496Zm0 0"/><path fill="#9db380" d="m69.773 194.098-7.515 12.738-11.098-12.047Zm0 0"/><path fill="#4a2d2c" d="m89.895 192.258-11.06-13.578 8.767-2.082Zm0 0"/><path fill="#4a2d2c" d="m69.773 194.098 9.063-15.418 11.059 13.578Zm0 0"/><path fill="#dd7a51" d="m108.64 276.125 12.38 7.063-19.31 5.054Zm0 0"/><path fill="#f6c5b4" d="m107.293 217.137 12.547 2.07-15.203 17.563Zm0 0"/><path fill="#ae4b16" d="m124.016 246.93-4.176-27.723 15.851 10.617Zm0 0"/><path fill="#dd7a51" d="m104.637 236.77 15.203-17.563 4.176 27.723Zm0 0"/><path fill="#4a7049" d="m103.066 201.215 11.356-7.11-3.703 9.836Zm0 0"/><path fill="#9eb380" d="M36.227 91.012 0 94.609l32.938-39.03Zm0 0"/><path fill="#dd7a51" d="m36.227 91.012-9.45 28.718L0 94.61Zm0 0"/><path fill="#dd7a51" d="m26.777 119.73-.601.536L0 94.609Zm0 0"/><path fill="#9eb380" d="m51.078 139-24.902-18.734.601-.536Zm0 0"/><path fill="#9db380" d="m26.176 120.266 12.804 31.55-16.687-.379Zm0 0"/><path fill="#dd7a51" d="m26.176 120.266-26.164 16L0 94.609Zm0 0"/><path fill="#9eb380" d="m66.23 69.504-4.988-28.652 31.715 3.972ZM66.23 69.504 32.937 55.578l28.305-14.726Zm0 0"/><path fill="#4a2d2c" d="m187.223 314.617-29.766 7.305 25.07-20.363Zm0 0"/><path fill="#4a7049" d="m133.469 336.3 15.414 20.528-42.785-7.316Zm0 0"/><path fill="#4a7049" d="m130.656 321.313 2.813 14.988-27.371 13.21ZM148.883 356.828l-15.414-20.527 7.23-3.926Zm0 0"/><path fill="#9eb481" d="m384 135.996-38.57 3.274 1.047-27.243Zm0 0"/><path fill="#9db381" d="m367.004 170.172-26.492-19.902 4.918-11Zm0 0"/><path fill="#9eb380" d="m370.488 197.984-3.484-27.812 16.992 34.043Zm0 0"/><path fill="#4a2d2c" d="m333.133 161.344-4.313-14.89 11.692 3.816Zm0 0"/><path fill="#9eb380" d="m206.074 0 51.903.012-37.508 32.043Zm0 0"/><path fill="#4a2d2b" d="m231.398 214.582-6.976 13.031-4.633-13.574Zm0 0"/><path fill="#4a2d2c" d="m224.422 227.613 16.816.215-5.515 15.965Zm0 0"/><path fill="#4a2d2c" d="m241.238 227.828-16.816-.215 6.976-13.031Zm0 0"/><path fill="#9c3900" d="m205.523 187.563.559 15.3-25.473-2.996Zm0 0"/><path fill="#dd7a51" d="m231.398 214.582-7.058-10.562 15.144 3.62Zm0 0"/><path fill="#4a2d2b" d="m224.34 204.02 7.058 10.562-11.609-.543Zm0 0"/><path fill="#4a2d2c" d="m270.746 209.95 3.496-23.403 10.512 8.406Zm0 0"/><path fill="#f6c5b5" d="m284.156 176.727-9.914 9.82 2.742-15.082Zm0 0"/><path fill="#4a2d2c" d="m293.277 203.793-22.53 6.156 14.007-14.996ZM157.457 321.922l-14.836-8.5 16.582-17.633Zm0 0"/><path fill="#4a7049" d="m157.457 321.922 4.297 12.273-21.055-1.82Zm0 0"/><path fill="#4a2d2c" d="m142.621 313.422 14.836 8.5-16.758 10.453Zm0 0"/><path fill="#4a7049" d="m209.063 343.234-60.18 13.594 12.87-22.633Zm0 0"/><path fill="#4a7049" d="m209.063 343.234-47.31-9.039 25.47-19.578Zm0 0"/><path fill="#4a2d2c" d="m161.754 334.195-4.297-12.273 29.766-7.305Zm0 0"/><path fill="#4a7049" d="m339.344 269.406-30.711-30.922 18.594-10.113Zm0 0"/><path fill="#4a2d2c" d="m271.36 229.629-3.915 14.687-11.175-10.125Zm0 0"/><path fill="#f6c5b4" d="m302.906 192.031-9.629 11.762-8.523-8.84ZM302.906 192.031l-7.523-17.648 21.418 6.12Zm0 0"/><path fill="#d9764c" d="m0-.023 21.406 10.48-12.148 7.05Zm0 0"/><path fill="#9eb380" d="M21.406 10.457 0-.023l28.684.015Zm0 0"/><path fill="#db784f" d="m9.258 17.508 12.148-7.051-7.812 21.426Zm0 0"/><path fill="#9eb380" d="M39.191 26.938 70.821 0l-9.579 40.852ZM32.938 55.578l6.253-28.64 22.051 13.914Zm0 0"/><path fill="#4a2d2c" d="m146.496 167.508-14.723-.547 6.497-19.305Zm0 0"/><path fill="#4b3302" d="m120.613 138.078-11.316-5.574 14.164-18.45Zm0 0"/><path fill="#4a3100" d="m139.605 124.715-18.992 13.363 2.848-24.023Zm0 0"/><path fill="#4a2d2b" d="m180.61 199.867-20.43-21.023 13.312-9.785Zm0 0"/><path fill="#4a2d2c" d="m214.277 163.523 14.856-17.75 4.793 12.438Zm0 0"/><path fill="#dd7a51" d="m202.633 169.422 11.644-5.899 1.508 13.73Zm0 0"/><path fill="#dd7b52" d="m214.277 163.523 8.446 6.38-6.938 7.35Zm0 0"/><path fill="#dd7a51" d="m248.602 193.574-11.793-19.61 22.941-.73Zm0 0"/><path fill="#9eb380" d="m314.027 113.89 32.45-1.863-16.348 20.121ZM281.688 83.121l12.41-40.55 32.062 34.628ZM92.957 44.824 121.777 0l27.688 35.09ZM189.082 27.094 168.555 0h37.52Zm0 0"/><path fill="#4a3100" d="m158.895 139.543-19.29-14.828 16.262-12.383Zm0 0"/><path fill="#dd7a51" d="m173.492 169.059 10.008-14.547 19.133 14.91Zm0 0"/><path fill="#4a2d2c" d="m229.133 145.773-13.309-1.816 3.2-14.164Zm0 0"/><path fill="#4a2d2b" d="m215.824 143.957-21.867-11.652 25.066-2.512Zm0 0"/><path fill="#4a2d2c" d="m214.277 163.523 1.547-19.566 13.309 1.816Zm0 0"/><path fill="#a5ad7b" d="M111.188 85.484 66.23 69.504l26.727-24.68Zm0 0"/><path fill="#9eb380" d="m66.23 69.504 44.957 15.98-34.332 26.63Zm0 0"/><path fill="#4a714a" d="m95.328 130.766 4.246-14.922 9.723 16.66Zm0 0"/><path fill="#9db380" d="m109.297 132.504-9.723-16.66 23.887-1.79Zm0 0"/><path fill="#9eb380" d="m111.188 85.484-11.614 30.36-22.719-3.73Zm0 0"/><path fill="#9eb481" d="m99.574 115.844-4.246 14.922-18.473-18.653Zm0 0"/><path fill="#9eb380" d="m99.574 115.844 11.614-30.36 12.273 28.57Zm0 0"/><path fill="#4a714a" d="M95.328 130.766 72.676 146.64l4.18-34.528Zm0 0"/><path fill="#9eb380" d="m83.328 157.61 14.18 1.242-9.906 17.746Zm0 0"/><path fill="#9eb380" d="m78.836 178.68 4.492-21.07 4.274 18.988ZM97.508 158.852l-14.18-1.243 12-26.843Zm0 0"/><path fill="#9eb380" d="m83.328 157.61-10.652-10.97 22.652-15.874ZM38.98 151.816 51.078 139l.692 14.375Zm0 0"/><path fill="#9db380" d="M26.176 120.266 51.078 139 38.98 151.816Zm0 0"/><path fill="#4a7049" d="m39.516 233.191 7.574-15.558 12.297 22.285ZM47.09 217.633l15.168-10.797-2.871 33.082Zm0 0"/><path fill="#9db380" d="M62.258 206.836 47.09 217.633l4.07-22.844Zm0 0"/><path fill="#9c3900" d="m47.09 217.633-7.574 15.558-5.637-13.32Zm0 0"/><path fill="#9c3900" d="m26.977 197.422 20.113 20.21-13.211 2.24Zm0 0"/><path fill="#9c3900" d="m47.09 217.633-20.113-20.211 24.183-2.633Zm0 0"/><path fill="#9eb380" d="m62.93 179.992 6.843 14.106-18.613.691Zm0 0"/><path fill="#9db380" d="m62.93 179.992 15.906-1.312-9.063 15.418Zm0 0"/><path fill="#dd7a51" d="M124.016 246.93 113.8 267.066l-6.086-15.343Zm0 0"/><path fill="#dd7a51" d="m104.637 236.77 19.379 10.16-16.301 4.793Zm0 0"/><path fill="#4a2d2c" d="m157.457 321.922 1.746-26.133 23.324 5.77Zm0 0"/><path fill="#f6c5b4" d="m119.84 219.207-12.547-2.07 3.426-13.196Zm0 0"/><path fill="#e1845f" d="m127.031 202.277-12.61-8.172 13.614-10.757Zm0 0"/><path fill="#4a2d2c" d="m127.031 202.277 1.004-18.93 20.653 16.782Zm0 0"/><path fill="#f6c5b3" d="m114.422 194.105-2.145-4.093 15.758-6.664Zm0 0"/><path fill="#4a2d2c" d="m112.277 190.012 1.946-21.524 13.812 14.86Zm0 0"/><path fill="#4a312d" d="m114.223 168.488-1.946 21.524-13.43-13.871Zm0 0"/><path fill="#4a7049" d="m112.277 190.012 2.145 4.093-11.356 7.11Zm0 0"/><path fill="#497049" d="m98.848 176.14 13.43 13.872-22.383 2.246Zm0 0"/><path fill="#4a7049" d="m112.277 190.012-9.21 11.203-13.172-8.957Zm0 0"/><path fill="#9c3900" d="m148.688 200.129 18.726 7.816-14.582 16.39Zm0 0"/><path fill="#9eb380" d="M66.23 69.504 36.227 91.012l-3.29-35.434ZM76.855 112.113 36.227 91.012 66.23 69.504Zm0 0"/><path fill="#9eb481" d="M76.855 112.113 51.078 139l-24.3-19.27Zm0 0"/><path fill="#9c3900" d="m36.227 91.012 40.628 21.101-50.078 7.617Zm0 0"/><path fill="#4a714a" d="m81.066 298.887 22.274-1.067-7.192 25.102Zm0 0"/><path fill="#4a7049" d="m103.34 297.82-22.274 1.067 20.645-10.645Zm0 0"/><path fill="#dd7b52" d="m121.02 283.188-17.68 14.632-1.63-9.578Zm0 0"/><path fill="#4a2d2c" d="m130.656 321.313 11.965-7.891-1.922 18.953Zm0 0"/><path fill="#4a7049" d="m133.469 336.3-2.813-14.988 10.043 11.063Zm0 0"/><path fill="#9eb380" d="m328.82 146.453 16.61-7.183-4.918 11Zm0 0"/><path fill="#9eb380" d="m345.43 139.27-16.61 7.183 1.309-14.305Zm0 0"/><path fill="#9eb380" d="m346.477 112.027-1.047 27.243-15.301-7.122Zm0 0"/><path fill="#4a2d2c" d="m333.133 161.344 7.379-11.074 26.492 19.902Zm0 0"/><path fill="#9cb280" d="m353.54 212.219 16.948-14.235 13.508 6.23Zm0 0"/><path fill="#4a2d2c" d="m314.754 154.781 18.379 6.563-16.332 19.16ZM328.82 146.453l-14.066 8.328 2.652-12.937Zm0 0"/><path fill="#492d2c" d="m333.133 161.344-18.38-6.563 14.067-8.328Zm0 0"/><path fill="#9eb380" d="m286.918 136.934-25.172-5.262 26.047-12.352ZM305.586 139.45l-18.668-2.516.875-17.614Zm0 0"/><path fill="#f6c5b5" d="m295.383 174.383 8.906-11.586 12.512 17.707Zm0 0"/><path fill="#4a2d2c" d="m261.746 131.672 3.156 10.66-13.734 4.367Zm0 0"/><path fill="#4a2d2c" d="m286.918 136.934-22.016 5.398-3.156-10.66Zm0 0"/><path fill="#f6c5b4" d="m264.902 142.332 22.016-5.398-.875 15.496Zm0 0"/><path fill="#f6c5b5" d="m284.156 176.727 1.52-7.551 9.707 5.207ZM285.676 169.176l-1.52 7.55-7.172-5.261Zm0 0"/><path fill="#9eb380" d="M384 73.277 326.16 77.2l12.738-38.367ZM338.898 38.832 317.918 0H384ZM384 73.277l-45.102-34.445L384 0Zm0 0"/><path fill="#4c2e2c" d="m218.219 265.242 8.508 8.918-12.36 3.567Zm0 0"/><path fill="#4a2d2b" d="m182.527 301.559 25.786-10.262 5.601 13.078Zm0 0"/><path fill="#c36031" d="m208.313 291.297-17.352-13.594 23.406.024Zm0 0"/><path fill="#4a2d2b" d="m208.313 291.297-25.786 10.262 8.434-23.856Zm0 0"/><path fill="#4a7049" d="m213.914 304.375 8.281-13.777 25.66 16.351Zm0 0"/><path fill="#4a2d2c" d="m208.313 291.297 13.882-.7-8.28 13.778Zm0 0"/><path fill="#4a2d2c" d="m226.727 274.16-4.532 16.438-7.828-12.871Zm0 0"/><path fill="#4a2d2c" d="m222.195 290.598-13.882.699 6.054-13.57Zm0 0"/><path fill="#4a2d2b" d="m206.082 202.863 18.258 1.157-4.55 10.02Zm0 0"/><path fill="#d16e42" d="m209.14 186.824-4.878-5.191 11.523-4.38Zm0 0"/><path fill="#dd7a51" d="m204.262 181.633-1.63-12.211 13.153 7.832ZM236.809 173.965l-3.09 19.351-17.934-16.062ZM233.719 193.316l3.09-19.351 11.793 19.61Zm0 0"/><path fill="#4a2d2c" d="m236.809 173.965-14.086-4.063 11.203-11.691Zm0 0"/><path fill="#4a2d2c" d="m222.723 169.902-8.446-6.379 19.649-5.312Zm0 0"/><path fill="#dd7a51" d="m222.723 169.902 14.086 4.063-21.024 3.289Zm0 0"/><path fill="#4a2d2c" d="m257.063 218.922 14.296 10.707-15.09 4.562Zm0 0"/><path fill="#db784e" d="m248.602 193.574 8.46 25.348-17.578-11.281Zm0 0"/><path fill="#dd7a51" d="m257.063 218.922-15.825 8.906-1.754-20.187ZM241.238 227.828l15.825-8.906-.793 15.27ZM142.621 313.422l-7.168-17.785 23.75.152Zm0 0"/><path fill="#497049" d="m213.914 304.375-4.851 38.86-21.84-28.618Zm0 0"/><path fill="#4a7049" d="m295.79 264.512 43.554 4.894-48.446 38.383Zm0 0"/><path fill="#497049" d="m267.234 262.352 28.555 2.16-4.89 43.277Zm0 0"/><path fill="#f6c5b5" d="m287.852 184.223 15.054 7.808-18.152 2.922ZM287.852 184.223l-3.696-7.496 11.227-2.344Zm0 0"/><path fill="#f6c5b4" d="m302.906 192.031-15.054-7.808 7.53-9.84ZM274.242 186.547l13.61-2.324-3.098 10.73Zm0 0"/><path fill="#f6c5b4" d="m287.852 184.223-13.61 2.324 9.914-9.82Zm0 0"/><path fill="#4a2d2c" d="m315.45 204.387-22.173-.594 9.63-11.762ZM315.45 204.387l16.76 4.843-4.983 19.141Zm0 0"/><path fill="#9c3900" d="m21.406 10.457 17.785 16.48-25.597 4.946Zm0 0"/><path fill="#db794f" d="m39.191 26.938-6.254 28.64-19.343-23.695Zm0 0"/><path fill="#dd7b52" d="M28.684-.008 39.19 26.938 21.406 10.456Zm0 0"/><path fill="#9eb380" d="M70.82 0 39.191 26.938 28.684-.009Zm0 0"/><path fill="#9c3900" d="m148.688 200.129-2.192-32.621 13.684 11.336ZM148.688 200.129l11.492-21.285 7.234 29.101ZM160.18 178.844l20.43 21.023-13.196 8.078Zm0 0"/><path fill="#9eb380" d="m346.477 112.027-32.45 1.864 12.133-36.692Zm0 0"/><path fill="#9eb380" d="m314.027 113.89-32.34-30.769L326.16 77.2ZM165.379 69.945l15.824-18.55 10.281 17.984Zm0 0"/><path fill="#9eb380" d="m149.465 35.09 31.738 16.305-15.824 18.55Zm0 0"/><path fill="#9eb381" d="M181.203 51.395 149.465 35.09l39.617-7.996Zm0 0"/><path fill="#4a2d2c" d="m138.27 147.656-17.657-9.578 18.992-13.363Zm0 0"/><path fill="#dc7950" d="m167.46 151.73 16.04 2.782-10.008 14.547Zm0 0"/><path fill="#9db380" d="m173.004 136.266-17.137-23.934 23.293 7.066Zm0 0"/><path fill="#9db380" d="m173.004 136.266-14.11 3.277-3.027-27.211Zm0 0"/><path fill="#9b3900" d="m173.004 136.266-5.543 15.464-8.566-12.187Zm0 0"/><path fill="#9db380" d="m193.957 132.305-20.953 3.96 6.156-16.867Zm0 0"/><path fill="#9c3900" d="m183.5 154.512-10.496-18.246 20.953-3.961Zm0 0"/><path fill="#9c3900" d="m167.46 151.73 5.544-15.464 10.496 18.246Zm0 0"/><path fill="#9c3900" d="m201.914 156.973-18.414-2.461 10.457-22.207Zm0 0"/><path fill="#9b3800" d="m215.824 143.957-13.91 13.016-7.957-24.668Zm0 0"/><path fill="#dd7a51" d="m183.5 154.512 18.414 2.46.719 12.45Zm0 0"/><path fill="#dc7950" d="m201.914 156.973 12.363 6.55-11.644 5.899Zm0 0"/><path fill="#4a2d2c" d="m201.914 156.973 13.91-13.016-1.547 19.566Zm0 0"/><path fill="#9eb380" d="m83.328 157.61-9.058 2.878-1.594-13.847Zm0 0"/><path fill="#9db380" d="m74.27 160.488 9.058-2.879-4.492 21.07Zm0 0"/><path fill="#4a714a" d="m62.93 179.992 11.34-19.504 4.566 18.192ZM72.676 146.64l1.594 13.848-22.5-7.113Zm0 0"/><path fill="#9db380" d="m76.855 112.113-4.18 34.528L51.079 139Zm0 0"/><path fill="#9c3900" d="m47.555 182.828-20.578 14.594L41.3 167.664ZM26.977 197.422l20.578-14.594 3.605 11.961Zm0 0"/><path fill="#9db380" d="m47.555 182.828 15.375-2.836-11.77 14.797Zm0 0"/><path fill="#9d3a02" d="m147.176 246.79-23.16.14 11.675-17.106Zm0 0"/><path fill="#9c3900" d="m171.242 226.754-3.828-18.809 16.063 13.266ZM119.84 219.207l16.164-3.848-.313 14.465Zm0 0"/><path fill="#9c3900" d="m152.832 224.336-16.828-8.977 12.684-15.23Zm0 0"/><path fill="#efae95" d="m114.422 194.105 12.61 8.172-16.313 1.664Zm0 0"/><path fill="#db794f" d="m127.031 202.277-7.191 16.93-9.121-15.266Zm0 0"/><path fill="#973802" d="m136.004 215.36-8.973-13.083 21.656-2.148Zm0 0"/><path fill="#9c3901" d="m127.031 202.277 8.973 13.082-16.164 3.848Zm0 0"/><path fill="#4a2e2c" d="m103.34 297.82 27.316 23.493-34.508 1.609Zm0 0"/><path fill="#4a2d2c" d="m333.133 161.344 6.52 17.703-22.852 1.457Zm0 0"/><path fill="#4a2d2c" d="m339.652 179.047-6.52-17.703 33.872 8.828ZM314.754 154.781l-9.168-15.332 11.82 2.395Zm0 0"/><path fill="#f6c5b5" d="m281.43 161.625-16.528-19.293 21.141 10.098ZM281.43 161.625l4.246 7.55-8.692 2.29ZM291.555 161.906l-10.125-.281 4.613-9.195Zm0 0"/><path fill="#f6c5b5" d="m281.43 161.625 10.125.281-5.88 7.27ZM291.555 161.906l12.734.89-8.906 11.587Zm0 0"/><path fill="#f6c5b5" d="m285.676 169.176 5.879-7.27 3.828 12.477Zm0 0"/><path fill="#9eb380" d="m338.898 38.832-44.8 3.738L317.918 0Zm0 0"/><path fill="#4a7049" d="m233.45 286.219 8.038-18.817 6.367 39.547ZM222.195 290.598l11.254-4.38 14.406 20.731Zm0 0"/><path fill="#4a2d2c" d="m241.488 267.402-8.039 18.817-6.722-12.059Zm0 0"/><path fill="#4a2d2c" d="m233.45 286.219-11.255 4.379 4.532-16.438Zm0 0"/><path fill="#db784e" d="m200.195 263.465 18.024 1.777-3.852 12.485Zm0 0"/><path fill="#b65320" d="m218.219 265.242-18.024-1.777 5.36-16.16Zm0 0"/><path fill="#d8754b" d="m200.195 263.465-17.566-9.25 22.926-6.91Zm0 0"/><path fill="#da774e" d="m190.96 277.703 9.235-14.238 14.172 14.262Zm0 0"/><path fill="#dc7950" d="m182.629 254.215 17.566 9.25-9.234 14.238Zm0 0"/><path fill="#a03d05" d="m220.508 241.953-2.29 23.29-12.663-17.938Zm0 0"/><path fill="#9c3900" d="m209.168 232.262 11.34 9.691-14.953 5.352Zm0 0"/><path fill="#4a2d2b" d="m220.508 241.953 3.914-14.34 11.3 16.18Zm0 0"/><path fill="#4a2d2c" d="m220.508 241.953-11.34-9.691 15.254-4.649ZM228.504 261.832l12.984 5.57-14.761 6.758Zm0 0"/><path fill="#a13e06" d="m218.219 265.242 10.285-3.41-1.777 12.328Zm0 0"/><path fill="#4a2d2c" d="m241.488 267.402-12.984-5.57 7.219-18.039Zm0 0"/><path fill="#9c3900" d="m228.504 261.832-7.996-19.879 15.215 1.84Zm0 0"/><path fill="#9c3900" d="m220.508 241.953 7.996 19.879-10.285 3.41Zm0 0"/><path fill="#4a2d2c" d="m206.082 202.863 3.059-16.039 15.199 17.196Zm0 0"/><path fill="#dd7a51" d="m233.719 193.316-24.578-6.492 6.644-9.57Zm0 0"/><path fill="#f6c5b4" d="m209.14 186.824 24.579 6.492-9.38 10.704Zm0 0"/><path fill="#4a2d2c" d="m210.438 220.41-4.356-17.547 13.707 11.176Zm0 0"/><path fill="#4a2d2b" d="m224.422 227.613-13.984-7.203 9.351-6.37Zm0 0"/><path fill="#4a2d2b" d="m209.168 232.262 1.27-11.852 13.984 7.203Zm0 0"/><path fill="#dd7a51" d="m205.523 187.563-1.261-5.93 4.879 5.191Zm0 0"/><path fill="#9c3900" d="m205.523 187.563 3.618-.739-3.059 16.04Zm0 0"/><path fill="#dd7a51" d="m239.484 207.64-5.765-14.324 14.883.258ZM233.719 193.316l5.765 14.325-15.144-3.621Zm0 0"/><path fill="#dd7a51" d="m270.746 209.95-13.683 8.972-8.461-25.348ZM135.453 295.637l-32.113 2.183 17.68-14.632Zm0 0"/><path fill="#4a2d2c" d="m135.453 295.637-4.797 25.676-27.316-23.493ZM130.656 321.313l4.797-25.676 7.168 17.785Zm0 0"/><path fill="#dd7a51" d="m139.668 274.746-4.215 20.89-14.433-12.449Zm0 0"/><path fill="#a6430d" d="m124.016 246.93 15.652 27.816-25.867-7.68Zm0 0"/><path fill="#4a2d2c" d="m182.527 301.559 31.387 2.816-26.691 10.242Zm0 0"/><path fill="#492e2c" d="m305.836 219.332 2.797 19.152-20.184-13.863Zm0 0"/><path fill="#4a7049" d="m295.79 264.512 12.843-26.028 30.71 30.922Zm0 0"/><path fill="#4a2d2c" d="m305.836 219.332-17.387 5.29 4.828-20.829Zm0 0"/><path fill="#4a2d2c" d="m315.45 204.387-9.614 14.945-12.559-15.539Zm0 0"/><path fill="#4a2d2c" d="m305.836 219.332 9.613-14.945 11.778 23.984Zm0 0"/><path fill="#4a3d33" d="m308.633 238.484-2.797-19.152 21.39 9.04Zm0 0"/><path fill="#4a2d2c" d="m284.629 249.29-13.27-19.661 17.09-5.008Zm0 0"/><path fill="#492d2c" d="m271.36 229.629 13.269 19.66-17.184-4.973Zm0 0"/><path fill="#4a352f" d="m308.633 238.484-24.004 10.805 3.82-24.668Zm0 0"/><path fill="#497049" d="m284.629 249.29 24.004-10.806-12.844 26.028Zm0 0"/><path fill="#492d2c" d="m267.445 244.316 17.184 4.973-17.395 13.063Zm0 0"/><path fill="#4a7049" d="m284.629 249.29 11.16 15.222-28.555-2.16Zm0 0"/><path fill="#4a2d2c" d="m316.8 180.504-1.35 23.883-12.544-12.356ZM315.45 204.387l19.222-7.977-2.461 12.82ZM114.223 168.488l6.39-30.41 17.657 9.578Zm0 0"/><path fill="#4a714a" d="m114.223 168.488-4.926-35.984 11.316 5.574Zm0 0"/><path fill="#4a2d2c" d="m131.773 166.96-17.55 1.528 24.047-20.832Zm0 0"/><path fill="#4a714a" d="m109.297 132.504 4.926 35.984-16.715-9.636Zm0 0"/><path fill="#4a2d2c" d="m148.688 200.129-20.653-16.781 18.461-15.84Zm0 0"/><path fill="#c39164" d="m259.75 173.234 10.996 36.715-22.144-16.375Zm0 0"/><path fill="#f6c5b5" d="m274.242 186.547-14.492-13.313 17.234-1.77Zm0 0"/><path fill="#4a2d2c" d="m270.746 209.95-10.996-36.716 14.492 13.313Zm0 0"/><path fill="#a23f08" d="m155.488 160.293 11.973-8.563 6.031 17.329Zm0 0"/><path fill="#4a2d2b" d="m160.18 178.844-4.692-18.551 18.004 8.766Zm0 0"/><path fill="#4a2d2c" d="m155.488 160.293 4.692 18.55-13.684-11.335Zm0 0"/><path fill="#9c3900" d="m167.46 151.73-11.972 8.563 3.407-20.75Zm0 0"/><path fill="#4a714a" d="m51.77 153.375.437 15.844-10.906-1.555Zm0 0"/><path fill="#9c3900" d="m52.207 169.219-4.652 13.61-6.254-15.165Zm0 0"/><path fill="#4a714a" d="m74.27 160.488-22.063 8.73-.437-15.843ZM52.207 169.219l22.063-8.73-11.34 19.503Zm0 0"/><path fill="#9c3900" d="m47.555 182.828 4.652-13.61 10.723 10.774ZM166.355 274.898l-26.687-.152 22.441-16.332ZM166.355 274.898l24.606 2.805-31.758 18.086ZM159.203 295.79l31.758-18.087-8.434 23.856ZM152.832 224.336l-5.656 22.453-11.485-16.965Zm0 0"/><path fill="#9c3900" d="m136.004 215.36 16.828 8.976-17.14 5.488ZM147.176 246.79l-7.508 27.956-15.652-27.816Zm0 0"/><path fill="#4a2d2c" d="m353.54 212.219-1.106-20.906 18.054 6.671Zm0 0"/><path fill="#4a2d2c" d="m370.488 197.984-18.054-6.672 14.57-21.14Zm0 0"/><path fill="#4a2d2c" d="m352.434 191.313-12.782-12.266 27.352-8.875Zm0 0"/><path fill="#492d2c" d="m298.355 152.23 16.399 2.551-10.465 8.016Zm0 0"/><path fill="#f6c5b5" d="m298.355 152.23-6.8 9.676-5.512-9.476Zm0 0"/><path fill="#f6c5b4" d="m291.555 161.906 6.8-9.676 5.934 10.567Zm0 0"/><path fill="#f6c5b5" d="m286.918 136.934 11.437 15.296-12.312.2Zm0 0"/><path fill="#4a2d2c" d="m298.355 152.23-11.437-15.296 18.668 2.515Zm0 0"/><path fill="#4a2d2c" d="m314.754 154.781-16.399-2.55 7.23-12.782ZM314.754 154.781l2.047 25.723-12.512-17.707ZM264.902 142.332l7.094 21.41-20.828-17.043Zm0 0"/><path fill="#4a2d2c" d="m281.43 161.625-9.434 2.117-7.094-21.41ZM271.996 163.742l-20.668-1.785-.16-15.258Zm0 0"/><path fill="#4a2d2c" d="m271.996 163.742-12.246 9.492-8.422-11.277Zm0 0"/><path fill="#f6c5b5" d="m271.996 163.742 4.988 7.723-17.234 1.77Zm0 0"/><path fill="#f6c5b5" d="m271.996 163.742 9.434-2.117-4.446 9.84Zm0 0"/><path fill="#4a2d2c" d="m206.082 202.863-22.605 18.348-2.868-21.344ZM270.746 209.95l17.703 14.671-17.09 5.008Zm0 0"/><path fill="#4a2d2c" d="m257.063 218.922 13.683-8.973.613 19.68Zm0 0"/><path fill="#4a2d2c" d="m288.45 224.621-17.704-14.672 22.531-6.156Zm0 0"/><path fill="#d67348" d="m139.668 274.746-18.648 8.442-7.22-16.122Zm0 0"/><path fill="#de7b52" d="m113.8 267.066 7.22 16.122-12.38-7.063Zm0 0"/><path fill="#4a2d2c" d="m316.8 180.504 17.872 15.906-19.223 7.977Zm0 0"/><path fill="#9c3900" d="m155.488 160.293-17.218-12.637 20.625-8.113Zm0 0"/><path fill="#4a2d2b" d="m158.895 139.543-20.625 8.113 1.335-22.941Zm0 0"/><path fill="#4a2d2c" d="m138.27 147.656 17.218 12.637-8.992 7.215Zm0 0"/><path fill="#9c3900" d="m173.832 266.383-7.477 8.515-4.246-16.484Zm0 0"/><path fill="#9c3900" d="m173.832 266.383 17.129 11.32-24.606-2.805Zm0 0"/><path fill="#9c3900" d="m173.832 266.383 8.797-12.168 8.332 23.488Zm0 0"/><path fill="#9d3a02" d="m152.832 224.336 13.711 16.484-19.367 5.97Zm0 0"/><path fill="#dc7950" d="m184.313 236.98 24.855-4.718-3.613 15.043Zm0 0"/><path fill="#9c3900" d="m182.629 254.215-8.797 12.168-11.723-7.969Zm0 0"/><path fill="#4a2d2c" d="m334.672 196.41 18.867 15.809-21.328-2.989Zm0 0"/><path fill="#492d2c" d="m334.672 196.41 17.762-5.097 1.105 20.906Zm0 0"/><path fill="#4a2d2c" d="m339.652 179.047-4.98 17.363-17.871-15.906ZM352.434 191.313l-17.762 5.097 4.98-17.363ZM210.438 220.41l-26.961.8 22.605-18.347Zm0 0"/><path fill="#ce6c3f" d="m139.668 274.746 19.535 21.043-23.75-.152Zm0 0"/><path fill="#a7440d" d="m159.203 295.79-19.535-21.044 26.687.152Zm0 0"/><path fill="#9c3900" d="m171.242 226.754-18.41-2.418 14.582-16.39ZM166.543 240.82l-13.711-16.484 18.41 2.418Zm0 0"/><path fill="#9f3c04" d="m147.176 246.79 14.933 11.624-22.441 16.332Zm0 0"/><path fill="#9c3900" d="m166.543 240.82-4.434 17.594-14.933-11.625ZM184.313 236.98l-17.77 3.84 4.7-14.066Zm0 0"/><path fill="#9c3900" d="m184.313 236.98-1.684 17.235-16.086-13.395ZM183.477 221.21l.835 15.77-13.07-10.226Zm0 0"/><path fill="#ca6739" d="m184.313 236.98-.836-15.77 25.691 11.052Zm0 0"/><path fill="#4a2d2c" d="m183.477 221.21 26.96-.8-1.269 11.852Zm0 0"/><path fill="#9c3900" d="m182.629 254.215-20.52 4.2 4.434-17.595Zm0 0"/><path fill="#db784e" d="m182.629 254.215 1.684-17.235 21.242 10.325Zm0 0"/></svg>