<svg xmlns="http://www.w3.org/2000/svg" viewBox="0 0 15 15" width="15" height="15" shape-rendering="geometricPrecision" role="img" aria-label="ALPS — mountain mark">
  <!-- White rounded background plate -->
  <rect x="0.25" y="0.25" width="14.5" height="14.5" rx="2.5" ry="2.5" fill="#ffffff"/>
  <!-- Mountain body, with the snow cap cut out (even-odd) so the white path below shows through -->
  <path fill="#213562" fill-rule="evenodd"
        d="M7.5,2C7.2,2,7.1,2.2,6.9,2.4l-5.8,9.5C1,12,1,12.2,1,12.3C1,12.8,1.4,13,1.7,13h11.6c0.4,0,0.7-0.2,0.7-0.7c0-0.2,0-0.2-0.1-0.4L8.2,2.4C8,2.2,7.8,2,7.5,2z M7.5,3.5L10.8,9H10L8.5,7.5L7.5,9l-1-1.5L5,9H4.1L7.5,3.5z"/>
  <!-- Snow cap (explicit white so it reads on any background) -->
  <path fill="#ffffff"
        d="M7.5,3.5L10.8,9H10L8.5,7.5L7.5,9l-1-1.5L5,9H4.1L7.5,3.5z"/>
</svg>
