<svg xmlns="http://www.w3.org/2000/svg" width="512" height="512" viewBox="0 0 384 384"><path fill="#fefefe" d="m178.535 188.898 13.88-22.703 24.401 29.414Zm0 0"/><path fill="#dad8dd" d="m219.695 214.258-30.437-2.086 27.558-16.563Zm0 0"/><path fill="#201533" d="m203.746 229.785-14.488-17.613 30.437 2.086Zm0 0"/><path fill="#fefefe" d="m109.047 57.512 10.324 13.21-17.715 27.571Zm0 0"/><path fill="#201533" d="m259.504 68.645-12.781-26.63 24.625 14.223ZM245.598 92.102l-7.692-12.665 21.598-10.792Zm0 0"/><path fill="#201533" d="m246.723 42.016 18.886-10.2 5.739 24.422ZM.016 30.027 0 0l73.828.008ZM.016 30.027l65.054 2.88-43.343 12.988Zm0 0"/><path fill="#201533" d="M65.07 32.906.016 30.027 73.828.007Zm0 0"/><path fill="#fff" d="M65.07 32.906 37.797 63.625l-16.07-17.73Zm0 0"/><path fill="#fefefe" d="m65.07 32.906 13.77 25.805-41.043 4.914Zm0 0"/><path fill="#201533" d="m36.71 228.402-4.862 29.403-15.73 1.437ZM31.848 257.805l4.863-29.403 15.227 20.133Zm0 0"/><path fill="#fefefe" d="m147.414 184.36-28.668 11.187 13.035-23.442Zm0 0"/><path fill="#fefefe" d="m118.746 195.547 28.668-11.188-18.031 22.317ZM147.02 156.488l.394 27.871-15.633-12.254Zm0 0"/><path fill="#201533" d="m106.996 168.723 11.75 26.824-28.074-5.516Zm0 0"/><path fill="#fefefe" d="m118.746 195.547-11.75-26.824 24.785 3.382ZM0 103.5l26.445 6.293-26.43 34.652Zm0 0"/><path fill="#201533" d="m300.012 26.164 42.64-26.172-20.054 34.836Zm0 0"/><path fill="#fefefe" d="m189.258 212.172-10.723-23.274 38.281 6.711Zm0 0"/><path fill="#201533" d="m245.656 262.98 22.754 2.957-15.746 16.997Zm0 0"/><path fill="#201533" d="m268.41 265.938 7.184 25.53-22.93-8.534ZM278.664 166.746l39.86-13.277-13.66 35.422ZM303.234 119.23l11.106 27.184-19.957-25.953Zm0 0"/><path fill="#fefefe" d="m109.023 296.738-25.77-12.668 8.716-18.68ZM255.969 384H99.379l53.746-30.785Zm0 0"/><path fill="#fefefe" d="M229.836 335.156 255.969 384l-102.844-30.785ZM123.234 242.441l-1.695-15.3 19.16 10.039ZM154.61 17.215 73.827.008l118.453-.07Zm0 0"/><path fill="#201533" d="m73.828.008 80.781 17.207-59.558 7.426ZM154.61 17.215 192.28-.062l-34.894 19.671Zm0 0"/><path fill="#fefefe" d="M232.766 17.29 249.789 0l1.703 5.148Zm0 0"/><path fill="#201533" d="m106.059 45.855 2.988 11.657L78.84 58.71ZM214.203 103.02l-21.652-13 34.62-20.098Zm0 0"/><path fill="#fefefe" d="m214.203 103.02 23.703-23.582 7.692 12.664Zm0 0"/><path fill="#fefefe" d="m237.906 79.438-23.703 23.582 12.969-33.098ZM287.598 46.988l-1.239 29.121-15.011-19.87ZM286.36 76.11 301.456 100l-20.902-2.984Zm0 0"/><path fill="#201533" d="m261.93 142.477 16.734 24.27-5.867 6.554Zm0 0"/><path fill="#f6f5f6" d="m259.2 143.777 2.73-1.3 10.867 30.824Zm0 0"/><path fill="#fefefe" d="m286.36 76.11-26.856-7.465 11.844-12.407ZM259.504 68.645l-21.598 10.793-10.734-9.516Zm0 0"/><path fill="#201533" d="m285.863 27.012 14.149-.848-12.414 20.824ZM254.637 22.598l10.972 9.218-18.886 10.2Zm0 0"/><path fill="#fefefe" d="m86.418 75.05 22.629-17.538-7.39 40.781ZM0 103.5l.016-73.473-.008 25.485Zm0 0"/><path fill="#fefefe" d="m.016 30.027 21.71 15.868L.009 55.512ZM74.297 196.887l11.766 27.758-20.583.343ZM86.063 224.645l-.684 21.808-19.899-21.465Zm0 0"/><path fill="#201533" d="m98.625 214.39-12.562 10.255-11.766-27.758Zm0 0"/><path fill="#fefefe" d="m.004 262.707 9.426-34.613 6.687 31.148Zm0 0"/><path fill="#201533" d="m9.43 228.094 27.28.308-20.593 30.84Zm0 0"/><path fill="#fefefe" d="m147.02 156.488 18.449 9.414-18.055 18.457Zm0 0"/><path fill="#201533" d="m167.371 106.883 13.754 9.23-24.18 4.852Zm0 0"/><path fill="#fcfcfc" d="m73.715 175.813 33.281-7.09-16.324 21.308Zm0 0"/><path fill="#201533" d="m106.996 168.723-33.281 7.09 28.34-18.458ZM73.715 175.813l-.992-10.93 29.332-7.528ZM119.371 70.723l-7.016 33.37-10.699-5.8Zm0 0"/><path fill="#fefefe" d="m112.355 104.094 7.016-33.371 2.215 27.582ZM130.543 151.738l16.477 4.75-15.239 15.617Zm0 0"/><path fill="#201533" d="m111.438 130.898 19.105 20.84-28.488 5.617Zm0 0"/><path fill="#fefefe" d="m106.996 168.723 23.547-16.985 1.238 20.367Zm0 0"/><path fill="#201533" d="m130.543 151.738-23.547 16.985-4.941-11.368ZM91.914 146.656l19.524-15.758-9.383 26.457ZM91.914 146.656l-19.191 18.227 6.652-30.84ZM72.723 164.883l19.191-18.227 10.14 10.7ZM342.652-.008l9.047 42.285-29.101-7.449Zm0 0"/><path fill="#fefefe" d="m342.652-.008-52.96 17.54L277.394-.005Zm0 0"/><path fill="#fefefe" d="m300.012 26.164-10.32-8.633 52.96-17.539ZM285.863 27.012l3.828-9.48 10.32 8.632ZM300.012 26.164l22.586 8.664-35 12.16ZM322.598 34.828 286.359 76.11l1.239-29.12ZM353.414 45.645l-21.914 8.94 20.2-12.308Zm0 0"/><path fill="#fdfdfd" d="m383.988 30.988-30.574 14.657-1.715-3.368Zm0 0"/><path fill="#fefefe" d="m383.992.004-.004 30.984-32.289 11.29Zm0 0"/><path fill="#201533" d="m348.54 63.117 4.874-17.472 3.063 18.894ZM348.54 63.117l-17.04-8.531 21.914-8.941Zm0 0"/><path fill="#201533" d="m348.54 63.117-17.837 30.84.797-39.371Zm0 0"/><path fill="#fefefe" d="m143.977 267.621-20.743-25.18 17.465-5.261ZM173.828 287.375l56.008 47.781-76.711 18.059Zm0 0"/><path fill="#201533" d="m235.555 300.426.035-25.047 17.074 7.555Zm0 0"/><path fill="#fefefe" d="m235.59 275.379-.035 25.047-7.95-30.453Zm0 0"/><path fill="#201533" d="m235.59 275.379 10.066-12.399 7.008 19.954Zm0 0"/><path fill="#fdfdfd" d="m222.86 241.844-3.165-27.586 17.664 27.12Zm0 0"/><path fill="#fefefe" d="m219.695 214.258 3.164 27.586-19.113-12.059ZM384.004 233.145l-10.168-11.153 10.168-24.539Zm0 0"/><path fill="#fcfcfd" d="m370.21 233.781 3.626-11.789 10.168 11.153Zm0 0"/><path fill="#fefefe" d="m304.863 188.89 22.992 14.176-27.53 13.496Zm0 0"/><path fill="#201533" d="m373.836 221.992-39.887 11.871 27.766-29.797ZM254.191 246.223l31.301-5.528-17.082 25.243Zm0 0"/><path fill="#fefefe" d="m254.191 246.223-8.535 16.757-8.297-21.601Zm0 0"/><path fill="#201533" d="m254.191 246.223 14.22 19.714-22.755-2.957ZM254.191 246.223l23.407-31.543 7.894 26.015Zm0 0"/><path fill="#201533" d="m277.598 214.68 22.726 1.882-14.832 24.133ZM335.543 245.453l-16.805 2.594 15.211-14.184Zm0 0"/><path fill="#fefefe" d="m241.05 178 31.747-4.7-16.43 22.075Zm0 0"/><path fill="#201533" d="m327.855 203.066-9.332-49.597 14.965 48.02Zm0 0"/><path fill="#201533" d="m318.523 153.469 9.332 49.597-22.992-14.175Zm0 0"/><path fill="#fefefe" d="m83.254 284.07 8.512 26.325-17.758 5.351Zm0 0"/><path fill="#fefefe" d="m109.023 296.738-17.257 13.657-8.512-26.325Zm0 0"/><path fill="#201533" d="m51.938 248.535 3.886 41.758-26.469.734ZM91.969 265.39l-6.59-18.937 20.004-13.457ZM123.234 242.441l-17.851-9.445 16.156-5.855Zm0 0"/><path fill="#fefefe" d="m98.625 214.39 6.758 18.606-19.32-8.351Zm0 0"/><path fill="#201533" d="m91.969 265.39 13.414-32.394 17.851 9.445Zm0 0"/><path fill="#fefefe" d="m154.61 17.215-48.551 28.64L95.05 24.641ZM232.766 17.29 192.28-.063 249.79 0Zm0 0"/><path fill="#201533" d="m227.172 69.922-15.817-29.074 48.149 27.797Zm0 0"/><path fill="#fefefe" d="m211.355 40.848 35.368 1.168 12.78 26.629Zm0 0"/><path fill="#201533" d="m191.781 16.402-34.394 3.207L192.28-.062ZM191.781 16.402l.5-16.464 40.485 17.351Zm0 0"/><path fill="#fefefe" d="m138.89 79.93-9.242 33.41-8.062-15.035ZM129.648 113.34l-17.293-9.246 9.23-5.79Zm0 0"/><path fill="#201533" d="m112.355 104.094 17.293 9.246-18.21 17.558ZM138.89 79.93l18.352-28.063 8.2 32.59Zm0 0"/><path fill="#201533" d="m181.39 59.508 11.16 30.512-27.109-5.563ZM167.371 106.883l25.18-16.863-11.426 26.093Zm0 0"/><path fill="#201533" d="m192.55 90.02-25.179 16.863-1.93-22.426Zm0 0"/><path fill="#fefefe" d="m65.07 32.906 29.98-8.265-16.21 34.07Zm0 0"/><path fill="#fefefe" d="m95.05 24.64 11.009 21.215-27.22 12.856Zm0 0"/><path fill="#201533" d="M73.828.008 95.051 24.64l-29.98 8.265ZM314.34 146.414l4.183 7.055-39.859 13.277Zm0 0"/><path fill="#fefefe" d="m232.68 110.34-18.477-7.32 31.395-10.918Zm0 0"/><path fill="#201533" d="m251.297 109.902-18.617.438 12.918-18.238ZM232.68 110.34l18.617-.438-6.25 7.102Zm0 0"/><path fill="#201533" d="m245.047 117.004 6.25-7.102 10.633 32.575Zm0 0"/><path fill="#fefefe" d="m259.2 143.777-14.153-26.773 16.883 25.473ZM266.8 95.215l19.56-19.106-5.805 20.907Zm0 0"/><path fill="#201533" d="M286.36 76.11 266.8 95.214l-7.296-26.57Zm0 0"/><path fill="#fefefe" d="m266.8 95.215-21.202-3.113 13.906-23.457Zm0 0"/><path fill="#201533" d="m285.863 27.012 1.735 19.976-21.989-15.172Zm0 0"/><path fill="#fefefe" d="m265.61 31.816 21.988 15.172-16.25 9.25Zm0 0"/><path fill="#201533" d="m85.621 97.469.797-22.418 15.238 23.242Zm0 0"/><path fill="#f9f9fa" d="m86.418 75.05-7.695-14.62 30.324-2.918Zm0 0"/><path fill="#fdfcfd" d="m78.84 58.71-.117 1.72-40.926 3.195Zm0 0"/><path fill="#fefefe" d="M78.723 60.43 45.672 78.355l-7.875-14.73Zm0 0"/><path fill="#221735" d="M109.047 57.512 78.723 60.43l.117-1.72Zm0 0"/><path fill="#fefefe" d="M11.543 95.27 0 103.5l.008-47.988ZM8.113 272.043l8.254 40.559L0 319.586ZM8.113 272.043l21.242 18.984-12.988 21.575Zm0 0"/><path fill="#201533" d="m31.848 257.805-2.493 33.222-13.238-31.785ZM51.938 248.535l-22.583 42.492 2.493-33.222Zm0 0"/><path fill="#fefefe" d="m.012 211.61 9.418 16.484-9.426 34.613ZM36.71 228.402l14.9-5.21.328 25.343Zm0 0"/><path fill="#fefefe" d="m51.938 248.535-.329-25.344 13.871 1.797Zm0 0"/><path fill="#201533" d="m51.61 223.191 22.687-26.304-8.817 28.101Zm0 0"/><path fill="#fefefe" d="m165.469 165.902 13.066 22.996-31.12-4.539Zm0 0"/><path fill="#fdfdfd" d="m165.469 165.902 26.945.293-13.879 22.703Zm0 0"/><path fill="#fefefe" d="m73.715 175.813 16.957 14.218-16.375 6.856Zm0 0"/><path fill="#201533" d="m90.672 190.031 7.953 24.36-24.328-17.504ZM91.914 146.656l-12.539-12.613 32.063-3.145Zm0 0"/><path fill="#fefefe" d="m130.543 151.738 26.758-13.66-10.281 18.41Zm0 0"/><path fill="#201533" d="m157.3 138.078 8.169 27.824-18.45-9.414ZM30.625 179.8l43.09-3.988.582 21.075Zm0 0"/><path fill="#201533" d="m73.715 175.813-43.09 3.988 42.098-14.918Zm0 0"/><path fill="#201533" d="M30.625 179.8.015 144.446l72.708 20.438Zm0 0"/><path fill="#fefefe" d="m72.723 164.883-13.317-38.09 19.969 7.25Zm0 0"/><path fill="#fbfbfb" d="M383.992.004 351.7 42.277 342.652-.008Zm0 0"/><path fill="#fefefe" d="m289.691 17.531-16.777-11.12 4.48-6.415Zm0 0"/><path fill="#201533" d="m272.914 6.41 16.777 11.121-3.828 9.48Zm0 0"/><path fill="#201533" d="m272.914 6.41 12.95 20.602-20.255 4.804Zm0 0"/><path fill="#fefefe" d="M272.914 6.41 249.79 0l27.606-.004Zm0 0"/><path fill="#fefefe" d="m249.79 0 23.124 6.41-21.422-1.262Zm0 0"/><path fill="#201533" d="m272.914 6.41-18.277 16.188-3.145-17.45ZM254.637 22.598 272.914 6.41l-7.305 25.406Zm0 0"/><path fill="#fff" d="m331.5 54.586-8.902-19.758 29.101 7.45Zm0 0"/><path fill="#201533" d="m286.36 76.11 44.343 17.847L301.457 100Zm0 0"/><path fill="#fefefe" d="m384.004 62.012-13.387-9.899 13.371-21.125Zm0 0"/><path fill="#201533" d="m383.988 30.988-13.37 21.125-17.204-6.468ZM353.414 45.645l17.203 6.468-14.14 12.426Zm0 0"/><path fill="#fefefe" d="m172.09 237.352 17.168-25.18 14.488 17.613Zm0 0"/><path fill="#201533" d="m199.516 259.379-27.426-22.027 31.656-7.567Zm0 0"/><path fill="#fefefe" d="m172.09 237.352-28.113 30.27-3.278-30.442Zm0 0"/><path fill="#fefefe" d="m116.11 298.059 27.867-30.438 29.851 19.754ZM235.555 300.426l-17.817-12.414 9.867-18.04Zm0 0"/><path fill="#b4b2bc" d="m217.738 288.012 12.098 47.144-56.008-47.781Zm0 0"/><path fill="#fefefe" d="m235.59 275.379-7.985-5.406 18.051-6.993Zm0 0"/><path fill="#fefefe" d="m245.656 262.98-18.05 6.993 9.753-28.594Zm0 0"/><path fill="#fdfdfd" d="m227.605 269.973-4.746-28.13 14.5-.464Zm0 0"/><path fill="#fefefe" d="m361.715 204.066 22.289-6.613-10.168 24.54Zm0 0"/><path fill="#f9f9fa" d="m327.855 203.066 5.633-1.578.461 32.375Zm0 0"/><path fill="#f6f6f7" d="m333.95 233.863-.462-32.375 28.227 2.578Zm0 0"/><path fill="#201533" d="m327.855 203.066-9.921 22.41-17.61-8.913ZM317.934 225.477l9.921-22.41 6.094 30.796Zm0 0"/><path fill="#201533" d="m318.738 248.047-.804-22.57 16.015 8.386ZM300.016 273.559l-3.086 30.718-21.336-12.808Zm0 0"/><path fill="#fefefe" d="m292.582 194.215-13.918-27.469 26.2 22.145Zm0 0"/><path fill="#201533" d="m278.664 166.746 13.918 27.469-19.785-20.914ZM263.645 213.246l13.953 1.434-23.407 31.543Zm0 0"/><path fill="#fefefe" d="m263.645 213.246-46.829-17.637 39.551-.234ZM216.816 195.61l46.829 17.636-43.95 1.012Zm0 0"/><path fill="#fefefe" d="m219.695 214.258 43.95-1.012-26.286 28.133ZM263.645 213.246l-9.454 32.977-16.832-4.844Zm0 0"/><path fill="#201533" d="m285.492 240.695 14.524 32.864-31.606-7.622Zm0 0"/><path fill="#201533" d="m268.41 265.938 31.606 7.62-24.422 17.91Zm0 0"/><path fill="#fefefe" d="m370.21 233.781-2.91 50.262-10.417-2.703ZM367.3 284.043l2.91-50.262 13.794-.636Zm0 0"/><path fill="#201533" d="m322.234 303.445-25.304.832 3.086-30.718Zm0 0"/><path fill="#fefefe" d="m318.738 248.047 16.805-2.594 4.727 13.875Zm0 0"/><path fill="#201533" d="m318.738 248.047 10.528 27.71-29.25-2.198Zm0 0"/><path fill="#201533" d="m329.266 275.758-10.528-27.711 21.532 11.281Zm0 0"/><path fill="#fefefe" d="M216.816 195.61 241.051 178l15.316 17.375ZM211.79 146.238l-3.138-20.34 16.301 2.997Zm0 0"/><path fill="#fefefe" d="m226.352 150.297-14.563-4.059 13.164-17.343Zm0 0"/><path fill="#fefefe" d="m211.79 146.238-12.216-5.136 9.078-15.204Zm0 0"/><path fill="#3e3853" d="m218.871 167.883 7.48-17.586 5.036 13.531Zm0 0"/><path fill="#d7d6db" d="M218.871 167.883 241.051 178l-24.235 17.61Zm0 0"/><path fill="#201533" d="m241.05 178-22.179-10.117 12.516-4.055Zm0 0"/><path fill="#fefefe" d="m192.414 166.195 26.457 1.688-2.055 27.726Zm0 0"/><path fill="#fefefe" d="m211.79 146.238 7.081 21.645-26.457-1.688Zm0 0"/><path fill="#fefefe" d="m226.352 150.297-7.48 17.586-7.083-21.645Zm0 0"/><path fill="#201533" d="m335.793 105.36-5.09-11.403 17.836-30.84Zm0 0"/><path fill="#201533" d="m356.477 64.54-20.684 40.82 12.746-42.243ZM251.297 109.902l23.293 23.086-12.66 9.489ZM294.383 120.46l7.074-20.46 1.777 19.23ZM314.34 146.414l-39.75-13.426 19.793-12.527Zm0 0"/><path fill="#201533" d="m261.93 142.477 12.66-9.489 4.074 33.758Zm0 0"/><path fill="#201533" d="m274.59 132.988 39.75 13.426-35.676 20.332Zm0 0"/><path fill="#fdfdfd" d="m384.004 197.453-20.567-24.164 20.575-28.617Zm0 0"/><path fill="#fefefe" d="m384.012 144.672-20.574 28.617-11.375-24.562ZM29.355 291.027l5.274 29.536-18.262-7.961Zm0 0"/><path fill="#201533" d="m55.105 311.191 5.094 20.832-25.57-11.46Zm0 0"/><path fill="#201533" d="m60.2 332.023-5.095-20.832 18.903 4.555Zm0 0"/><path fill="#fefefe" d="m153.125 353.215-44.328-.223 15.316-17.101ZM108.797 352.992l44.328.223L99.379 384Zm0 0"/><path fill="#fefefe" d="m131.934 321.496 41.894-34.121-20.703 65.84Zm0 0"/><path fill="#fefefe" d="m131.934 321.496-15.825-23.437 57.72-10.684ZM131.934 321.496l21.191 31.719-29.012-17.324Zm0 0"/><path fill="#201533" d="m70.95 267.227-15.126 23.066-3.886-41.758Zm0 0"/><path fill="#201533" d="m85.379 246.453-14.43 20.774-19.011-18.692Zm0 0"/><path fill="#fefefe" d="m70.95 267.227 21.019-1.836-8.715 18.68Zm0 0"/><path fill="#201532" d="m70.95 267.227 14.429-20.774 6.59 18.938Zm0 0"/><path fill="#201533" d="m85.379 246.453-33.442 2.082 13.543-23.547Zm0 0"/><path fill="#201533" d="m105.383 232.996-20.004 13.457.683-21.808Zm0 0"/><path fill="#fefefe" d="m121.54 227.14-3.903-18.253 11.746-2.211Zm0 0"/><path fill="#201533" d="m105.383 232.996 12.254-24.11 3.902 18.255ZM118.746 195.547l-1.11 13.34-26.964-18.856Zm0 0"/><path fill="#fefefe" d="m117.637 208.887 1.11-13.34 10.636 11.129Zm0 0"/><path fill="#201533" d="m117.637 208.887-19.012 5.504-7.953-24.36ZM117.637 208.887l-12.254 24.11-6.758-18.606Zm0 0"/><path fill="#fefefe" d="m255.969 384-26.133-48.844 48.812 10.535Zm0 0"/><path fill="#201533" d="m275.594 291.469-24.883 17.133 1.953-25.668Zm0 0"/><path fill="#fefefe" d="M318.438 363.355 255.968 384l22.68-38.309Zm0 0"/><path fill="#fff" d="m255.969 384 62.469-20.645L384.012 384Zm0 0"/><path fill="#fefefe" d="m210.016 37.922-18.235-21.52 40.985.887ZM191.973 39.277l3.933 12.664-14.515 7.567Zm0 0"/><path fill="#201533" d="m191.781 16.402-21.883 30.766-12.511-27.559ZM169.898 47.168l21.883-30.766.192 22.875ZM191.781 16.402l18.235 21.52-18.043 1.355ZM157.3 138.078l-18.76-10.473 18.405-6.64ZM138.54 127.605l18.76 10.473-26.757 13.66Zm0 0"/><path fill="#201533" d="m138.54 127.605-7.997 24.133-19.106-20.84Zm0 0"/><path fill="#201533" d="m129.648 113.34 8.891 14.265-27.101 3.293Zm0 0"/><path fill="#fefefe" d="m155.234 97.25-16.343-17.32 26.55 4.527Zm0 0"/><path fill="#201533" d="m167.371 106.883-12.137-9.633 10.207-12.793ZM169.898 47.168l11.493 12.34-15.95 24.949Zm0 0"/><path fill="#201533" d="m157.242 51.867 12.656-4.699-4.457 37.289ZM169.898 47.168l22.075-7.89-10.582 20.23Zm0 0"/><path fill="#fefefe" d="M211.355 40.848 195.906 51.94l-3.933-12.664Zm0 0"/><path fill="#d9d7dc" d="m210.016 37.922 1.34 2.926-19.383-1.57Zm0 0"/><path fill="#fefefe" d="m201.262 72.71 10.093-31.862 15.817 29.074Zm0 0"/><path fill="#fefefe" d="M211.355 40.848 201.262 72.71l-5.356-20.77Zm0 0"/><path fill="#f1f1f3" d="m192.55 90.02 8.712-17.31 25.91-2.788Zm0 0"/><path fill="#201533" d="m201.262 72.71-8.711 17.31-11.16-30.512Zm0 0"/><path fill="#fefefe" d="m195.906 51.941 5.356 20.77-19.871-13.203Zm0 0"/><path fill="#878292" d="m226.352 150.297 17.695 7.578-12.66 5.953Zm0 0"/><path fill="#201533" d="M244.047 157.875 241.05 178l-9.664-14.172Zm0 0"/><path fill="#fefefe" d="m244.047 157.875 15.152-14.098 13.598 29.524Zm0 0"/><path fill="#201533" d="m241.05 178 2.997-20.125 28.75 15.426ZM192.55 90.02l21.653 13-33.078 13.093ZM65.758 94.46 85.62 97.47l-21.129 14.367ZM78.723 60.43 65.758 94.46 45.672 78.356Zm0 0"/><path fill="#fcfcfc" d="m65.758 94.46 12.965-34.03 7.695 14.62Zm0 0"/><path fill="#fefefe" d="M85.621 97.469 65.758 94.46l20.66-19.41ZM11.543 95.27l14.902 14.523L0 103.5Zm0 0"/><path fill="#201533" d="m11.543 95.27 9.973-30.18 16.32 24.742ZM21.516 65.09l.21-19.195 16.07 17.73Zm0 0"/><path fill="#201533" d="M45.672 78.355 21.516 65.09l16.28-1.465ZM21.516 65.09l24.156 13.265-7.836 11.477Zm0 0"/><path fill="#201533" d="m21.727 45.895-.211 19.195L.008 55.512Zm0 0"/><path fill="#fefefe" d="m21.516 65.09-9.973 30.18L.008 55.512ZM.004 262.707l8.11 9.336L0 319.586Zm0 0"/><path fill="#fefefe" d="m8.113 272.043-8.11-9.336 16.114-3.465Zm0 0"/><path fill="#201533" d="M29.355 291.027 8.113 272.043l8.004-12.8Zm0 0"/><path fill="#fefefe" d="m147.414 184.36 5.723 29.488-23.754-7.172ZM178.535 188.898l-25.398 24.95-5.723-29.489Zm0 0"/><path fill="#fefefe" d="m153.137 213.848-31.598 13.293 7.844-20.465Zm0 0"/><path fill="#fefefe" d="m121.54 227.14 31.597-13.292-12.438 23.332ZM153.137 213.848l18.953 23.504-31.39-.172Zm0 0"/><path fill="#fcfcfd" d="m153.137 213.848 25.398-24.95 10.723 23.274Zm0 0"/><path fill="#fefefe" d="m172.09 237.352-18.953-23.504 36.12-1.676ZM85.621 97.469l12.734 20.32-33.863-5.953Zm0 0"/><path fill="#fdfdfd" d="m98.355 117.79-18.98 16.253-14.883-22.207Zm0 0"/><path fill="#fefefe" d="M98.355 117.79 85.621 97.468l16.035.824Zm0 0"/><path fill="#fefefe" d="m112.355 104.094-14 13.695 3.301-19.496Zm0 0"/><path fill="#201533" d="m98.355 117.79 14-13.696-.918 26.804Zm0 0"/><path fill="#201533" d="m79.375 134.043 18.98-16.254 13.082 13.11ZM181.125 116.113l-12.367 13.328-11.813-8.476Zm0 0"/><path fill="#201533" d="m168.758 129.441-11.457 8.637-.356-17.113ZM157.3 138.078l35.114 28.117-26.945-.293Zm0 0"/><path fill="#696176" d="m168.758 129.441 23.656 36.754-35.113-28.117Zm0 0"/><path fill="#fefefe" d="M30.625 179.8.012 211.61l.004-67.165Zm0 0"/><path fill="#f3f3f4" d="m22.113 209.762 8.512-29.961 43.672 17.086Zm0 0"/><path fill="#fefefe" d="M22.113 209.762 9.43 228.094.012 211.609Zm0 0"/><path fill="#201533" d="M22.113 209.762.012 211.609l30.613-31.808Zm0 0"/><path fill="#fefefe" d="m51.61 223.191-29.497-13.43 52.184-12.874Zm0 0"/><path fill="#201533" d="m9.43 228.094 12.683-18.332 14.598 18.64Zm0 0"/><path fill="#fefefe" d="m22.113 209.762 29.496 13.43-14.898 5.21Zm0 0"/><path fill="#201533" d="m79.375 134.043-19.969-7.25 5.086-14.957Zm0 0"/><path fill="#fefefe" d="M72.723 164.883 38.145 127.55l21.261-.758Zm0 0"/><path fill="#fefefe" d="m38.145 127.55 26.347-15.714-5.086 14.957Zm0 0"/><path fill="#201533" d="m286.36 76.11 36.238-41.282 8.902 19.758Zm0 0"/><path fill="#fefefe" d="M330.703 93.957 286.36 76.109 331.5 54.586ZM372.34 65.383l.535 25.902-16.398-26.746Zm0 0"/><path fill="#201533" d="m343.285 108.367-7.492-3.008 20.684-40.82Zm0 0"/><path fill="#fcfcfd" d="m121.547 246.672 22.43 20.95-27.868 30.437Zm0 0"/><path fill="#201533" d="m121.547 246.672-12.524 50.066-17.054-31.347ZM121.547 246.672l-5.438 51.387-7.086-1.32Zm0 0"/><path fill="#fefefe" d="m217.738 288.012-43.91-.637 25.688-27.996Zm0 0"/><path fill="#fefefe" d="m199.516 259.379-25.688 27.996-1.738-50.023Zm0 0"/><path fill="#fefefe" d="m173.828 287.375-29.851-19.754 28.113-30.27ZM199.516 259.379l28.09 10.594-9.868 18.039Zm0 0"/><path fill="#fdfdfe" d="m227.605 269.973-28.09-10.594 23.344-17.535Zm0 0"/><path fill="#201533" d="m222.86 241.844-23.344 17.535 4.23-29.594Zm0 0"/><path fill="#fefefe" d="m363.438 173.29 20.566 24.163-22.29 6.613ZM370.21 233.781l-36.26.082 39.886-11.87Zm0 0"/><path fill="#201533" d="m340.27 259.328 29.94-25.547-13.327 47.559Zm0 0"/><path fill="#201533" d="m335.543 245.453 34.668-11.672-29.941 25.547Zm0 0"/><path fill="#fefefe" d="m370.21 233.781-34.667 11.672-1.594-11.59Zm0 0"/><path fill="#201533" d="m292.582 194.215 12.281-5.324-4.539 27.672Zm0 0"/><path fill="#fefefe" d="m277.598 214.68 14.984-20.465 7.742 22.347Zm0 0"/><path fill="#201533" d="m268.973 198.688 23.609-4.473-14.984 20.465Zm0 0"/><path fill="#201533" d="m263.645 213.246 5.328-14.559 8.625 15.993ZM292.582 194.215l-23.61 4.472 3.825-25.386Zm0 0"/><path fill="#fefefe" d="m272.797 173.3-3.824 25.387-12.606-3.312Zm0 0"/><path fill="#fefefe" d="m268.973 198.688-5.328 14.558-7.278-17.871Zm0 0"/><path fill="#201533" d="m300.324 216.563 2.02 24.238-16.852-.106Zm0 0"/><path fill="#201533" d="m302.344 240.8-2.328 32.759-14.524-32.864ZM302.344 240.8l15.59-15.323.804 22.57Zm0 0"/><path fill="#fefefe" d="m317.934 225.477-15.59 15.324-2.02-24.238Zm0 0"/><path fill="#201533" d="m356.883 281.34-27.617-5.582 11.004-16.43Zm0 0"/><path fill="#201533" d="m329.266 275.758-7.032 27.687-22.218-29.886Zm0 0"/><path fill="#fefefe" d="m208.652 125.898-9.078 15.204-18.449-24.989Zm0 0"/><path fill="#201533" d="m214.203 103.02-5.55 22.878-27.528-9.785Zm0 0"/><path fill="#fdfdfe" d="m384.012 144.672-7.766-52.692 7.758-29.968Zm0 0"/><path fill="#f4f3f5" d="m372.875 91.285-13.73 30.711-15.86-13.629Zm0 0"/><path fill="#fefefe" d="m363.438 173.29-25.16 2.41 13.784-26.973Zm0 0"/><path fill="#fefefe" d="m338.277 175.7-19.754-22.231 33.54-4.742Zm0 0"/><path fill="#201533" d="m338.277 175.7 23.438 28.366-28.227-2.578Zm0 0"/><path fill="#fefefe" d="m338.277 175.7 25.16-2.41-1.722 30.776Zm0 0"/><path fill="#201533" d="m318.523 153.469 19.754 22.23-4.789 25.79Zm0 0"/><path fill="#fdfdfe" d="m303.234 119.23 13.993-3.472-2.887 30.656Zm0 0"/><path fill="#201533" d="m266.8 95.215-15.503 14.687-5.7-17.8ZM266.8 95.215l7.79 37.773-23.293-23.086Zm0 0"/><path fill="#201533" d="m274.59 132.988 1.406-22.183 18.387 9.656Zm0 0"/><path fill="#fefefe" d="M275.996 110.805 301.457 100l-7.074 20.46Zm0 0"/><path fill="#201533" d="m266.8 95.215 9.196 15.59-1.406 22.183Zm0 0"/><path fill="#fcfcfc" d="m275.996 110.805-9.195-15.59 13.754 1.8Zm0 0"/><path fill="#fefefe" d="m301.457 100-25.46 10.805 4.558-13.79ZM20.05 332.246l-7.437 51.746-12.61.004ZM20.05 332.246l-3.683-19.644 18.262 7.96Zm0 0"/><path fill="#fefefe" d="M20.05 332.246.005 383.996 0 319.586ZM16.367 312.602l3.684 19.644L0 319.586ZM58.668 371.734 99.378 384l-58.671.219ZM99.379 384l-40.711-12.266 11.516-9.382Zm0 0"/><path fill="#201533" d="m55.824 290.293-.719 20.898-25.75-20.164Zm0 0"/><path fill="#fefefe" d="m55.105 311.191.72-20.898 18.183 25.453Zm0 0"/><path fill="#201533" d="m55.105 311.191-20.476 9.372-5.274-29.536ZM58.668 371.734l-2.664-20.132 14.18 10.75Zm0 0"/><path fill="#201533" d="m56.004 351.602 26.21-.922-12.03 11.672Zm0 0"/><path fill="#201533" d="m82.215 350.68-26.211.922 4.195-19.579ZM91.766 310.395 84.43 330.82l-10.422-15.074Zm0 0"/><path fill="#201533" d="m84.43 330.82-24.23 1.203 13.808-16.277ZM116.11 298.059l-4.325 27.796-2.762-29.117Zm0 0"/><path fill="#fefefe" d="m131.934 321.496-20.149 4.36 4.324-27.797Zm0 0"/><path fill="#201533" d="m111.785 325.855-20.02-15.46 17.258-13.657Zm0 0"/><path fill="#fefefe" d="m111.785 325.855 20.149-4.359-7.82 14.395Zm0 0"/><path fill="#201533" d="m55.824 290.293 27.43-6.223-9.246 31.676Zm0 0"/><path fill="#f8f8f8" d="m70.95 267.227 12.304 16.843-27.43 6.223Zm0 0"/><path fill="#201533" d="m290.14 324.594 6.79-20.317 13.406 16.262Zm0 0"/><path fill="#fefefe" d="m384.016 342.7-6.72-42.454 6.708-67.101Zm0 0"/><path fill="#201533" d="m277.629 309.55-26.918-.948 24.883-17.133ZM277.629 309.55l-2.035-18.081 21.336 12.808Zm0 0"/><path fill="#201533" d="M290.14 324.594 277.63 309.55l19.3-5.274Zm0 0"/><path fill="#211634" d="m384.012 384-16.516-31.129 16.52-10.172Zm0 0"/><path fill="#fefefe" d="m310.254 338.332 8.183 25.023-39.789-17.664Zm0 0"/><path fill="#201533" d="m119.371 70.723-10.324-13.211 48.195-5.645Zm0 0"/><path fill="#fdfdfe" d="m234.445 23.012-24.43 14.91 22.75-20.633Zm0 0"/><path fill="#201533" d="m210.016 37.922 24.43-14.91-23.09 17.836ZM234.445 23.012l-1.68-5.723 18.727-12.14Zm0 0"/><path fill="#201533" d="m254.637 22.598-20.192.414 17.047-17.864ZM234.445 23.012l20.192-.414-7.914 19.418ZM211.355 40.848l23.09-17.836 12.278 19.004ZM138.54 127.605l3.765-14.921 14.64 8.28Zm0 0"/><path fill="#201533" d="m142.305 112.684-3.766 14.921-8.89-14.265Zm0 0"/><path fill="#fefefe" d="m142.305 112.684 25.066-5.801-10.426 14.082Zm0 0"/><path fill="#fefefe" d="m142.305 112.684 12.93-15.434 12.136 9.633Zm0 0"/><path fill="#f7f7f8" d="m142.305 112.684-12.657.656 9.243-33.41Zm0 0"/><path fill="#fefefe" d="m155.234 97.25-12.93 15.434-3.413-32.754Zm0 0"/><path fill="#201533" d="m109.047 57.512 48.34-37.903-.145 32.258ZM157.387 19.61l12.511 27.558-12.656 4.7Zm0 0"/><path fill="#201533" d="m157.387 19.61-48.34 37.902-2.988-11.657Zm0 0"/><path fill="#201533" d="m157.387 19.61-51.328 26.245 48.55-28.64ZM214.203 103.02l10.75 25.875-16.3-2.997Zm0 0"/><path fill="#201533" d="m224.953 128.895-10.75-25.875 18.477 7.32ZM224.953 128.895l7.727-18.555 12.367 6.664Zm0 0"/><path fill="#fdfdfd" d="m241.77 136.71-15.418 13.587-1.399-21.402Zm0 0"/><path fill="#201533" d="m241.77 136.71 2.277 21.165-17.695-7.578ZM241.77 136.71l-16.817-7.815 20.094-11.891Zm0 0"/><path fill="#fefefe" d="m259.2 143.777-17.43-7.066 3.277-19.707Zm0 0"/><path fill="#201533" d="m244.047 157.875-2.277-21.164 17.43 7.066ZM37.836 89.832l27.922 4.629-1.266 17.375ZM65.758 94.46l-27.922-4.628 7.836-11.477ZM199.574 141.102l-30.816-11.66 12.367-13.329Zm0 0"/><path fill="#efeef0" d="m199.574 141.102-7.16 25.093-23.656-36.754Zm0 0"/><path fill="#fefefe" d="m199.574 141.102 12.215 5.136-19.375 19.957Zm0 0"/><path fill="#201533" d="M26.445 109.793 11.543 95.27l26.293-5.438Zm0 0"/><path fill="#fefefe" d="m38.145 127.55 34.578 37.333L.016 144.445Zm0 0"/><path fill="#201533" d="m26.445 109.793 11.7 17.758-38.13 16.894Zm0 0"/><path fill="#fefefe" d="m376.246 91.98-3.906-26.597 11.664-3.371Zm0 0"/><path fill="#fefefe" d="m372.34 65.383 3.906 26.597-3.371-.695Zm0 0"/><path fill="#201533" d="m372.875 91.285-29.59 17.082 13.192-43.828Zm0 0"/><path fill="#2a213e" d="m143.977 267.621-22.43-20.95 1.687-4.23Zm0 0"/><path fill="#201533" d="M121.547 246.672 91.969 265.39l31.265-22.95Zm0 0"/><path fill="#201532" d="m300.016 273.559 2.328-32.758 16.394 7.246Zm0 0"/><path fill="#201533" d="m329.266 275.758 14.668 20.222-21.7 7.465Zm0 0"/><path fill="#201533" d="m356.883 281.34-12.95 14.64-14.667-20.222Zm0 0"/><path fill="#fefefe" d="m359.145 121.996 24.867 22.676-31.95 4.055Zm0 0"/><path fill="#fefefe" d="m384.012 144.672-24.867-22.676 17.101-30.016Zm0 0"/><path fill="#fefefe" d="m376.246 91.98-17.101 30.016 13.73-30.71Zm0 0"/><path fill="#fdfdfd" d="m352.063 148.727-9.247-19.61 16.329-7.12Zm0 0"/><path fill="#201533" d="m342.816 129.117.47-20.75 15.859 13.63Zm0 0"/><path fill="#fefefe" d="m318.523 153.469 24.293-24.352 9.247 19.61Zm0 0"/><path fill="#201533" d="m332.813 123.781-14.29 29.688-4.183-7.055ZM317.227 115.758l15.586 8.023-18.473 22.633ZM332.813 123.781l10.003 5.336-24.293 24.352ZM342.816 129.117l-10.003-5.336 10.472-15.414Zm0 0"/><path fill="#201533" d="m343.285 108.367-10.473 15.414 2.981-18.422Zm0 0"/><path fill="#201533" d="m332.813 123.781-15.586-8.023 18.566-10.399Zm0 0"/><path fill="#fefefe" d="m301.457 100 10.938 11.2-9.16 8.03Zm0 0"/><path fill="#fefefe" d="m312.395 111.2 4.832 4.558-13.993 3.472Zm0 0"/><path fill="#201533" d="m56.004 351.602-16.637-11.04 20.832-8.539Zm0 0"/><path fill="#201533" d="m60.2 332.023-20.833 8.54-4.738-20Zm0 0"/><path fill="#fefefe" d="m90.176 357.91 18.62-4.918L99.38 384ZM90.176 357.91 99.379 384l-29.195-21.648Zm0 0"/><path fill="#fefefe" d="m82.215 350.68 7.96 7.23-19.991 4.442Zm0 0"/><path fill="#201533" d="m84.43 330.82-2.215 19.86-22.016-18.657Zm0 0"/><path fill="#fefefe" d="m108.797 352.992 2.988-27.137 12.328 10.036Zm0 0"/><path fill="#201533" d="M111.785 325.855 84.43 330.82l7.336-20.425ZM229.836 335.156l-12.098-47.144 17.817 12.414Zm0 0"/><path fill="#fefefe" d="m361.227 339.164 16.07-38.918 6.719 42.453ZM377.297 300.246l-9.996-16.203 16.703-50.898ZM273.406 317.98l-43.57 17.176 20.875-26.554Zm0 0"/><path fill="#201533" d="m277.629 309.55-4.223 8.43-22.695-9.378Zm0 0"/><path fill="#fff" d="m229.836 335.156 43.57-17.176 5.242 27.711Zm0 0"/><path fill="#fefefe" d="m273.406 317.98 16.735 6.614-11.493 21.097Zm0 0"/><path fill="#201533" d="m273.406 317.98 4.223-8.43 12.512 15.044Zm0 0"/><path fill="#fefefe" d="m366.648 349.227-5.421-10.063 22.789 3.535Zm0 0"/><path fill="#fefefe" d="m367.496 352.871-.848-3.644 17.368-6.528ZM310.254 338.332l-31.606 7.36 11.493-21.098Zm0 0"/><path fill="#fff" d="m119.371 70.723.262.215 1.953 27.367Zm0 0"/><path fill="#fefefe" d="m119.633 70.938 19.258 8.992-17.305 18.375Zm0 0"/><path fill="#fefefe" d="m119.633 70.938 37.61-19.07L138.89 79.93Zm0 0"/><path fill="#201634" d="m119.633 70.938-.262-.215 37.871-18.856Zm0 0"/><path fill="#201533" d="m30.809 108.582-4.364 1.211 11.39-19.961Zm0 0"/><path fill="#fefefe" d="m30.809 108.582 7.027-18.75 26.656 22.004Zm0 0"/><path fill="#fefefe" d="m38.145 127.55-7.336-18.968 33.683 3.254Zm0 0"/><path fill="#fafafb" d="m26.445 109.793 4.364-1.211 7.336 18.969Zm0 0"/><path fill="#fefefe" d="m372.34 65.383-1.723-13.27 13.387 9.899Zm0 0"/><path fill="#fefefe" d="m370.617 52.113 1.723 13.27-15.863-.844Zm0 0"/><path fill="#201533" d="m322.234 303.445 21.7-7.465 2.824 21.497Zm0 0"/><path fill="#fefefe" d="m318.441 102.29-6.046 8.91-10.938-11.2Zm0 0"/><path fill="#201533" d="m330.703 93.957-12.262 8.332L301.457 100ZM317.227 115.758l1.214-13.469 17.352 3.07Zm0 0"/><path fill="#fefefe" d="m312.395 111.2 6.046-8.91-1.214 13.468Zm0 0"/><path fill="#9c98a5" d="m12.613 383.992 28.66-.168-.566.395Zm0 0"/><path fill="#201533" d="m41.273 383.824-1.906-43.262 16.637 11.04Zm0 0"/><path fill="#201533" d="m58.668 371.734-17.395 12.09 14.73-32.222Zm0 0"/><path fill="#e7e6e9" d="m40.707 384.219.566-.395 17.395-12.09Zm0 0"/><path fill="#fefefe" d="m93.605 343.738 18.18-17.883-2.988 27.137Zm0 0"/><path fill="#201533" d="m111.785 325.855-18.18 17.883-9.175-12.918ZM250.71 308.602l-15.155-8.176 17.11-17.492Zm0 0"/><path fill="#fefefe" d="m229.836 335.156 5.719-34.73 15.156 8.176ZM361.227 339.164l.558-37.809 15.512-1.109Zm0 0"/><path fill="#fefefe" d="m346.758 317.477 15.027-16.122-.558 37.81ZM377.297 300.246l-15.512 1.11 5.516-17.313ZM330.313 335.84l36.335 13.387.848 3.644ZM318.438 363.355l49.058-10.484L384.012 384Zm0 0"/><path fill="#fefefe" d="m318.438 363.355 11.875-27.515 37.183 17.031ZM318.438 363.355l-8.184-25.023 20.058-2.492Zm0 0"/><path fill="#201533" d="m310.254 338.332.082-17.793 19.976 15.3Zm0 0"/><path fill="#201533" d="m310.336 320.54 11.898-17.095 8.079 32.395ZM310.336 320.54l-.082 17.792-20.113-13.738ZM296.93 304.277l25.304-.832-11.898 17.094ZM335.793 105.36l-17.352-3.07 12.262-8.333ZM39.367 340.563l1.906 43.261-28.66.168Zm0 0"/><path fill="#fefefe" d="m39.367 340.563-19.316-8.317 14.578-11.683Zm0 0"/><path fill="#201533" d="m20.05 332.246 19.317 8.317-26.754 43.43ZM84.43 330.82l9.175 12.918-11.39 6.942Zm0 0"/><path fill="#fff" d="m93.605 343.738-3.43 14.172-7.96-7.23ZM90.176 357.91l3.43-14.172 15.19 9.254Zm0 0"/><path fill="#fefefe" d="m361.785 301.355-4.902-20.015 10.418 2.703Zm0 0"/><path fill="#201533" d="m361.785 301.355-17.851-5.375 12.949-14.64ZM343.934 295.98l17.851 5.375-15.027 16.122Zm0 0"/><path fill="#fefefe" d="m330.313 335.84 16.445-18.363 14.469 21.687Zm0 0"/><path fill="#201533" d="m330.313 335.84-8.079-32.395 24.524 14.032Zm0 0"/><path fill="#201533" d="m361.188 339.219-30.875-3.38 30.914 3.325ZM330.313 335.84l30.875 3.379 5.46 10.008Zm0 0"/><path fill="#fbfafb" d="m366.648 349.227-5.46-10.008.039-.055Zm0 0"/></svg>