<svg xmlns="http://www.w3.org/2000/svg" width="512" height="512" viewBox="0 0 384 384"><path fill="#fed600" d="m172.844 0-67.832 23.422L93.895 0ZM52.203 61.613 21.25 47.484l32.61-10.933Zm0 0"/><path fill="#fefae2" d="m221.453 213.406-29.715.489 22.996-24.68Zm0 0"/><path fill="#810322" d="m201.84 228.383-10.102-14.488 29.715-.489Zm0 0"/><path fill="#fdf2b6" d="m191.738 213.895 10.102 14.488-31.75 12Zm0 0"/><path fill="#fed90f" d="m244.684 179.152-23.23 34.254-6.72-24.191Zm0 0"/><path fill="#b8bcc5" d="m105.012 23.422 53.242-6.152-43.5 27.226Zm0 0"/><path fill="#fed600" d="m158.254 17.27-53.242 6.152L172.844 0Zm0 0"/><path fill="#5b0990" d="m102.074 77.305 9.547 9.418-16.746 9.812ZM111.621 86.723l-9.547-9.418 17.184-6.22Zm0 0"/><path fill="#fed600" d="m242.754 41.668 15.371 25.953-38.055-18.414ZM233.64 74.883l16.934 17.469-11.804 11.925Zm0 0"/><path fill="#5c0b8f" d="m250.574 92.352-16.933-17.47 24.484-7.26Zm0 0"/><path fill="#5b0a90" d="m242.754 41.668 17.64-15.074-2.269 41.027Zm0 0"/><path fill="#b8bcc4" d="M50.418.004 20.945 46.492 0 0Zm0 0"/><path fill="#b8bcc4" d="M20.945 46.492 0 55.11V0Zm0 0"/><path fill="#cac292" d="m21.25 47.484-.305-.992 32.914-9.941Zm0 0"/><path fill="#b8bcc4" d="m53.86 36.55-32.915 9.942L50.418.004Zm0 0"/><path fill="#fed600" d="m69.762 55.227 8.05-25.852 9.36 21.656Zm0 0"/><path fill="#fed601" d="M69.762 55.227 53.859 36.55l23.954-7.176Zm0 0"/><path fill="#fed600" d="m53.86 36.55 15.902 18.677-17.559 6.386ZM52.203 61.613 47.996 77.25 21.25 47.484Zm0 0"/><path fill="#5c0a8e" d="m32.457 221.09 11.758 31.226-33.461 16.766Zm0 0"/><path fill="#fed80f" d="M44.215 252.316 32.457 221.09l22.902 23.086Zm0 0"/><path fill="#fedd26" d="m146.762 190.555-26.75 10.285 8.285-25.774Zm0 0"/><path fill="#fee143" d="m120.012 200.84 26.75-10.285-21.028 17.656Zm0 0"/><path fill="#fee977" d="m142.414 156.273 4.348 34.282-18.465-15.489Zm0 0"/><path fill="#5b0a90" d="m108.191 171.465 11.82 29.375-24.89-21.074Zm0 0"/><path fill="#feee97" d="m120.012 200.84-11.82-29.375 20.105 3.601Zm0 0"/><path fill="#5c0b8f" d="m71.426 186.027-1.88 31.95-37.089 3.113Zm0 0"/><path fill="#fed600" d="M290.598 26.313 323.008 0l-.656 33.684Zm0 0"/><path fill="#fefefc" d="m179.203 201.008 12.633-30.547 22.898 18.754Zm0 0"/><path fill="#fef9db" d="m191.738 213.895-12.535-12.887 35.531-11.793Zm0 0"/><path fill="#5b0a90" d="m236.047 276.176 38.058-15.922-18.585 29.77Zm0 0"/><path fill="#5b0a90" d="m274.105 260.254 1.114 32.773-19.7-3.004ZM275.219 293.027l-1.114-32.773L307.7 283.25ZM315.066 149.395l-8.21 41.808-28.067-24.902Zm0 0"/><path fill="#5b0990" d="m302.652 118.121 12.414 31.274-27.164-23Zm0 0"/><path fill="#fed701" d="M219.578 354.691 133.766 384l12.652-51.977Zm0 0"/><path fill="#feeb84" d="m122.645 240.152-2.606-23.851 23.926 5.949Zm0 0"/><path fill="#fed600" d="M202.906 16.371 250.371-.004l.25 3.836Zm0 0"/><path fill="#5b0a90" d="m99.074 45.484 3.547 14.442-15.45-8.895Zm0 0"/><path fill="#b8bcc4" d="m99.074 45.484 5.938-22.062 9.742 21.074Zm0 0"/><path fill="#5b0a90" d="m102.621 59.926-3.547-14.442 15.68-.988Zm0 0"/><path fill="#5b0990" d="m102.074 77.305.547-17.38 16.637 11.16Zm0 0"/><path fill="#fed600" d="m216.73 106.32 16.91-31.437 5.13 29.394Zm0 0"/><path fill="#5b0a90" d="m233.64 74.883-16.91 31.437-7.921-18.648Zm0 0"/><path fill="#fed600" d="m284.457 73.84 14.719 27.125-23.524 12ZM258.125 67.621l-24.484 7.262-13.57-25.676Zm0 0"/><path fill="#5b0990" d="m77.117 72.324 24.957 4.98-7.199 19.231Zm0 0"/><path fill="#fed600" d="M50.418.004 93.895 0 77.813 29.375Zm0 0"/><path fill="#b8bcc3" d="M53.86 36.55 50.417.005l27.395 29.371Zm0 0"/><path fill="#5b0990" d="m69.547 217.977 20.793 24.578-34.98 1.62Zm0 0"/><path fill="#5b0990" d="m88.258 209.266 2.082 33.289-20.793-24.578Zm0 0"/><path fill="#fed600" d="m0 269.203.008-44.21 10.746 44.089Zm0 0"/><path fill="#5b0a8f" d="m.008 224.992 32.449-3.902-21.703 47.992Zm0 0"/><path fill="#fef7d0" d="m142.414 156.273 27.602 10.243-23.254 24.039Zm0 0"/><path fill="#5b0990" d="m168.027 106.746 9.618 11.73-23.524 3.208Zm0 0"/><path fill="#5b0a90" d="m177.645 118.477-9.618-11.73 21.223-10.833ZM108.191 171.465l-13.07 8.3 3.309-26.605Zm0 0"/><path fill="#5b0a90" d="m95.121 179.766-18.988-27.45 22.297.844Zm0 0"/><path fill="#5c0b8f" d="m111.621 86.723 1.734 19.14-18.48-9.328Zm0 0"/><path fill="#fcd506" d="m113.355 105.863-1.734-19.14 14.715 11.515Zm0 0"/><path fill="#fef2af" d="m126.836 153.535 15.578 2.738-14.117 18.793Zm0 0"/><path fill="#5b0990" d="m111.613 129.36 15.223 24.175-28.406-.375Zm0 0"/><path fill="#fee974" d="m108.191 171.465 18.645-17.93 1.46 21.531Zm0 0"/><path fill="#5b0990" d="m126.836 153.535-18.645 17.93-9.761-18.305ZM81.434 136.668l30.18-7.309L98.43 153.16Zm0 0"/><path fill="#5b0a90" d="m76.133 152.316 5.3-15.648L98.43 153.16Zm0 0"/><path fill="#fed600" d="M16.512 147.992.004 183.094v-68.82Zm0 0"/><path fill="#fed701" d="m76.133 152.316-4.707 33.711-22.762-33.062Zm0 0"/><path fill="#5b0a90" d="m95.121 179.766-23.695 6.261 4.707-33.71Zm0 0"/><path fill="#fed600" d="m323.008 0 25.105 23.031-25.761 10.653ZM290.598 26.313 275.77.008 323.008 0Zm0 0"/><path fill="#5b0a90" d="m299.168 48.172-8.57-21.86 31.754 7.372ZM355.121 45.613l-23.61 7.075 6.93-14.094Zm0 0"/><path fill="#fed600" d="m355.121 45.613-7.008-22.582 35.914 6.93Zm0 0"/><path fill="#fed600" d="m348.113 23.031 7.008 22.582-16.68-7.02Zm0 0"/><path fill="#5b0a90" d="m353.445 66.113-21.933-13.425 23.61-7.075Zm0 0"/><path fill="#5b0a90" d="m331.512 52.688 21.933 13.425-22.375 9.532Zm0 0"/><path fill="#fbe777" d="m170.09 240.383 9.113-39.375 12.535 12.887Zm0 0"/><path fill="#fef4bc" d="m137.426 261.344-14.781-21.192 21.32-17.902Zm0 0"/><path fill="#fedc23" d="m158.504 278.527 35.2 17.98-47.286 35.516Zm0 0"/><path fill="#fed703" d="m193.703 296.508 25.875 58.183-73.16-22.668Zm0 0"/><path fill="#5b0a90" d="m235.016 303.973 1.03-27.797 19.474 13.847Zm0 0"/><path fill="#fed705" d="m236.047 276.176-1.031 27.797-10.282-14.051Zm0 0"/><path fill="#fee767" d="m225.29 241.664-3.837-28.258 23.484 25.602Zm0 0"/><path fill="#fee975" d="m221.453 213.406 3.836 28.258-23.45-13.281Zm0 0"/><path fill="#fed600" d="m384.023 232.992-15.3-20.101L384 191.53Zm0 0"/><path fill="#5b0a90" d="m369.945 239.887-1.222-26.996 15.3 20.101Zm0 0"/><path fill="#fed700" d="m306.855 191.203 19.418 9.016-16.87 19.597Zm0 0"/><path fill="#5b0a90" d="m351.234 221.875-18.8 7.887 4.796-30.688Zm0 0"/><path fill="#5b0a90" d="m355.27 193.945-4.036 27.93-14.004-22.8ZM351.234 221.875l4.036-27.93 13.453 18.946ZM369.945 239.887l-18.71-18.012 17.488-8.984Zm0 0"/><path fill="#fce98a" d="m255.176 242.531-19.13 33.645 8.892-37.168Zm0 0"/><path fill="#5b0a90" d="m255.176 242.531 18.93 17.723-38.06 15.922Zm0 0"/><path fill="#5b0990" d="m255.176 242.531 26.762-29.035-7.833 46.758ZM305.895 245.07l-23.957-31.574 27.464 6.32ZM281.938 213.496l23.957 31.574-31.79 15.184Zm0 0"/><path fill="#fed601" d="m315.066 149.395 10.22 26.105-18.43 15.703Zm0 0"/><path fill="#5b0a90" d="m326.273 200.219-.988-24.719 11.945 23.574Zm0 0"/><path fill="#fed602" d="m325.285 175.5.988 24.719-19.418-9.016Zm0 0"/><path fill="#fed601" d="m0 314.621 14.41 11.45L0 384Zm0 0"/><path fill="#5b0a90" d="m73.574 296.96 15.656 17.798-23.882-.34Zm0 0"/><path fill="#5b0a90" d="M89.23 314.758 73.574 296.96l32.918-5.137Zm0 0"/><path fill="#5b0990" d="m112.238 316.504-23.008-1.746 17.262-22.934Zm0 0"/><path fill="#5c0b8f" d="m51.992 276.543-7.777-24.227 11.144-8.14Zm0 0"/><path fill="#fed601" d="M246.332 384H133.766l85.812-29.309Zm0 0"/><path fill="#5d0a8a" d="m122.645 240.152-14.352-18.828 11.746-5.023Zm0 0"/><path fill="#5b0990" d="m88.258 209.266 20.035 12.058-17.953 21.23Zm0 0"/><path fill="#fed600" d="M202.906 16.371 172.844 0l77.527-.004Zm0 0"/><path fill="#fed601" d="m172.844 0 5.48 17.895-20.07-.625Zm0 0"/><path fill="#fbd50a" d="m202.906 16.371-24.582 1.524L172.844 0Zm0 0"/><path fill="#b8bcc5" d="m178.324 17.895-10.262 21.261-9.808-21.886Zm0 0"/><path fill="#5b0a90" d="m168.063 39.156 10.101 1.996-9.91 11.328Zm0 0"/><path fill="#b8bcc4" d="m178.164 41.152-10.101-1.996 10.261-21.261Zm0 0"/><path fill="#fed601" d="m137.691 92.469-6.496 20.285-4.86-14.516Zm0 0"/><path fill="#fed702" d="m131.195 112.754-17.84-6.89 12.98-7.626Zm0 0"/><path fill="#5b0990" d="m113.355 105.863 17.84 6.89-19.582 16.606Zm0 0"/><path fill="#5e0c89" d="m137.691 92.469 12.793-38.211 15.18 28.637Zm0 0"/><path fill="#5b0a90" d="m183.969 63.863 5.281 32.051-23.586-13.02ZM189.25 95.914l-21.223 10.832-2.363-23.851Zm0 0"/><path fill="#fad50c" d="m77.813 29.375 21.261 16.11-11.902 5.546Zm0 0"/><path fill="#b8bcc4" d="M99.074 45.484 77.813 29.375l27.199-5.953Zm0 0"/><path fill="#fed600" d="m105.012 23.422-27.2 5.953L93.896 0Zm0 0"/><path fill="#5b0a90" d="m287.902 126.395 27.164 23L278.79 166.3Zm0 0"/><path fill="#5c0c8f" d="m244.516 115.66-27.786-9.34 22.04-2.043Zm0 0"/><path fill="#5b0a90" d="m250.574 92.352.047 16.703-11.851-4.778ZM250.621 109.055l-6.105 6.605-5.746-11.383Zm0 0"/><path fill="#5c0b8f" d="m264.727 87.066 19.73-13.226-8.805 39.125Zm0 0"/><path fill="#f5cb08" d="m284.457 73.84-19.73 13.226-6.602-19.445Zm0 0"/><path fill="#fed600" d="m264.727 87.066-14.153 5.286 7.551-24.73Zm0 0"/><path fill="#5b0990" d="m260.395 26.594 30.203-.282-32.473 41.31Zm0 0"/><path fill="#5b0a90" d="m258.125 67.621 32.473-41.308 8.57 21.859Zm0 0"/><path fill="#5b0990" d="m77.117 72.324 25.504-12.398-.547 17.379Zm0 0"/><path fill="#5b0a90" d="m69.762 55.227 7.355 17.097-24.914-10.71Zm0 0"/><path fill="#5b0a90" d="m77.117 72.324-29.12 4.926 4.206-15.637ZM102.621 59.926 77.117 72.324l10.055-21.293Zm0 0"/><path fill="#5b0a90" d="m77.117 72.324-7.355-17.097 17.41-4.196Zm0 0"/><path fill="#fed600" d="m0 55.11 21.25-7.626-21.246 66.79ZM10.754 269.082l5.91 38.785L0 314.621Zm0 0"/><path fill="#fed601" d="m10.754 269.082 19.45 24.422-13.54 14.363Zm0 0"/><path fill="#5c0b8f" d="m51.992 276.543-41.238-7.461 33.46-16.766Zm0 0"/><path fill="#5d0989" d="m10.754 269.082 41.238 7.461-7.676 13.273Zm0 0"/><path fill="#5c0a8e" d="m30.203 293.504-19.45-24.422 33.563 20.734Zm0 0"/><path fill="#5d0b8c" d="m32.457 221.09 37.09-3.113-14.188 26.199Zm0 0"/><path fill="#feee98" d="m170.016 166.516 9.187 34.492-32.441-10.453Zm0 0"/><path fill="#feec87" d="m179.203 201.008-9.187-34.492 21.82 3.945Zm0 0"/><path fill="#5d0c91" d="m170.016 166.516 8.87-4.645 12.95 8.59Zm0 0"/><path fill="#feeb81" d="m71.426 186.027 16.832 23.239-18.711 8.71Zm0 0"/><path fill="#9e4b52" d="m88.258 209.266-16.832-23.239 23.695-6.261Zm0 0"/><path fill="#fdf1b0" d="m126.836 153.535 19.41-9.094-3.832 11.832Zm0 0"/><path fill="#5b0a90" d="m146.246 144.441 23.77 22.075-27.602-10.243ZM71.426 186.027l-54.914-38.035 32.152 4.973Zm0 0"/><path fill="#5b0990" d="M71.426 186.027.004 183.094l16.508-35.102Zm0 0"/><path fill="#68137a" d="m76.133 152.316-3.688-9.03 8.989-6.618Zm0 0"/><path fill="#fed603" d="m72.445 143.285 3.688 9.031-27.469.649Zm0 0"/><path fill="#fdd604" d="m72.445 143.285-23.78 9.68 12.21-24.738Zm0 0"/><path fill="#fed600" d="m384 0-35.887 23.031L323.008 0Zm0 0"/><path fill="#5b0a90" d="M273.781 5.582 275.77.008l14.828 26.305Zm0 0"/><path fill="#5b0a90" d="m273.781 5.582 16.817 20.73-30.203.282Zm0 0"/><path fill="#fed600" d="m273.781 5.582-23.41-5.586 25.399.012ZM250.371-.004l23.41 5.586-23.16-1.75Zm0 0"/><path fill="#5b0a90" d="m273.781 5.582-13.386 21.012-9.774-22.762Zm0 0"/><path fill="#fcd302" d="m331.512 52.688-9.16-19.004 16.09 4.91Zm0 0"/><path fill="#5b0a90" d="m331.512 52.688-32.344-4.516 23.184-14.488Zm0 0"/><path fill="#fed600" d="m311.75 68.203-12.574 32.762-14.719-27.125Zm0 0"/><path fill="#5b0a90" d="m258.125 67.621 41.043-19.45-14.711 25.669ZM299.168 48.172l12.582 20.031-27.293 5.637Zm0 0"/><path fill="#fed601" d="M348.113 23.031 384 0l.027 29.96Zm0 0"/><path fill="#fed600" d="m322.352 33.684 25.761-10.653-9.672 15.563ZM384.004 73.29l-15.36-16.56 15.383-26.77Zm0 0"/><path fill="#5b0a90" d="m384.027 29.96-15.382 26.77-13.524-11.117Zm0 0"/><path fill="#5b0a90" d="m355.121 45.613 13.524 11.117-15.2 9.383Zm0 0"/><path fill="#fed600" d="m371.781 103.29-9.676 15.85-5.511-11.468ZM362.105 119.14l9.676-15.85 12.223 31.847Zm0 0"/><path fill="#5b0990" d="m353.445 66.113-2.914 24.078-19.46-14.546Zm0 0"/><path fill="#fef0a7" d="m137.426 261.344 6.539-39.094 26.125 18.133Zm0 0"/><path fill="#fee661" d="m116.867 293.277 20.559-31.933 21.078 17.183Zm0 0"/><path fill="#fed709" d="m235.016 303.973-41.313-7.465 31.031-6.586Zm0 0"/><path fill="#782f85" d="m228.89 274.16 7.157 2.016-11.313 13.746Zm0 0"/><path fill="#fdeea1" d="m236.047 276.176-7.156-2.016 16.047-35.152Zm0 0"/><path fill="#feee94" d="m228.89 274.16-3.6-32.496 19.648-2.656Zm0 0"/><path fill="#b8bcc4" d="m193.703 296.508 35.188-22.348-4.157 15.762Zm0 0"/><path fill="#fed601" d="m355.27 193.945 28.73-2.414-15.277 21.36Zm0 0"/><path fill="#5c0b8f" d="m326.273 200.219 10.957-1.145-4.796 30.688Zm0 0"/><path fill="#fed701" d="m326.273 200.219 6.16 29.543-23.03-9.946Zm0 0"/><path fill="#5b0990" d="m332.434 229.762-26.54 15.308 3.508-25.254Zm0 0"/><path fill="#5b0a90" d="m351.234 221.875-12.671 32.379-6.13-24.492ZM278.79 166.3l1.624 30.829-7.723-28.23ZM267.836 200.8l14.101 12.696-26.761 29.035Zm0 0"/><path fill="#feee95" d="m244.684 179.152 23.152 21.649-46.383 12.605Zm0 0"/><path fill="#fed704" d="m221.453 213.406 46.383-12.605-22.899 38.207Zm0 0"/><path fill="#fbe36c" d="m267.836 200.8-12.66 41.731-10.238-3.523Zm0 0"/><path fill="#fed600" d="m384 313.883-11.094-15.266 11.117-65.625Zm0 0"/><path fill="#fed601" d="m369.945 239.887 2.961 58.73-14.742-17.043ZM372.906 298.617l-2.96-58.73 14.077-6.895Zm0 0"/><path fill="#5b0a90" d="m307.7 283.25 30.863-28.996 2.773 36.129Zm0 0"/><path fill="#5b0a91" d="m244.684 179.152-26.692-11.168 24.477-8.629Zm0 0"/><path fill="#fdd70a" d="m204.148 145.957.938-21.3 19.36 5.316Zm0 0"/><path fill="#fed604" d="m217.992 167.984-13.844-22.027 20.297-15.984Zm0 0"/><path fill="#fedf35" d="m217.992 167.984 26.692 11.168-29.95 10.063Zm0 0"/><path fill="#fefdf6" d="m191.836 170.46 26.156-2.476-3.258 21.23Zm0 0"/><path fill="#fdf2b7" d="m204.148 145.957 13.844 22.027-26.156 2.477Zm0 0"/><path fill="#fed600" d="m356.402 145.68 6.996 24.46-29.863.462Zm0 0"/><path fill="#5b0a90" d="m334.004 94.957-4.695-17.96 1.761-1.352Zm0 0"/><path fill="#5b0a90" d="m350.531 90.191-16.527 4.766-2.934-19.312ZM329.02 116.863l4.984-21.906 10.41 15.957ZM250.621 109.055l18.832 22.793-24.937-16.188ZM299.176 100.965l9.18 4.172-5.704 12.984Zm0 0"/><path fill="#5b0990" d="m287.902 126.395 11.274-25.43 3.476 17.156Zm0 0"/><path fill="#5b0a90" d="m272.691 168.898-3.238-37.05 9.336 34.453Zm0 0"/><path fill="#5b0990" d="m269.453 131.848 18.45-5.453-9.114 39.906Zm0 0"/><path fill="#fed600" d="m384.004 135.137-20.606 35.004-6.996-24.461ZM16.664 307.867 14.41 326.07 0 314.621Zm0 0"/><path fill="#5b0a8f" d="m37.89 334.61-4.85-26.22 25.429 26.22Zm0 0"/><path fill="#5b0990" d="m33.04 308.39-2.837-14.886 14.113-3.688Zm0 0"/><path fill="#fed600" d="m30.203 293.504 2.836 14.887-16.375-.524ZM0 384l14.41-57.93 13.805 32.504Zm0 0"/><path fill="#5b0990" d="m33.04 308.39 32.308 6.028-6.88 20.191Zm0 0"/><path fill="#5b0a90" d="m65.348 314.418 12.394 18.973-19.273 1.218Zm0 0"/><path fill="#fed600" d="m16.664 307.867 7.848 9.863-10.102 8.34ZM24.512 317.73l13.379 16.88-23.48-8.54ZM33.04 308.39l-8.528 9.34-7.848-9.863Zm0 0"/><path fill="#fed600" d="m37.89 334.61-13.378-16.88 8.527-9.34Zm0 0"/><path fill="#fed700" d="M133.766 384h-53.43l10.098-19.418Zm0 0"/><path fill="#fed702" d="M108.645 349.805 133.765 384l-43.331-19.418Zm0 0"/><path fill="#fed700" d="m133.766 384-25.121-34.195 37.773-17.782Zm0 0"/><path fill="#fedd2c" d="m146.418 332.023-29.55-38.746 41.636-14.75Zm0 0"/><path fill="#fed700" d="m146.418 332.023-37.773 17.782.378-16.618Zm0 0"/><path fill="#5b0a90" d="m68.469 259.574 8.55 11.363-25.027 5.606Zm0 0"/><path fill="#5b0990" d="m77.02 270.938 13.32-28.383 16.152 49.27ZM77.02 270.938l-8.551-11.364 21.87-17.02Zm0 0"/><path fill="#5b0a90" d="m68.469 259.574-16.477 16.969 3.367-32.367Zm0 0"/><path fill="#5b0a90" d="m90.34 242.555-21.871 17.02-13.11-15.4Zm0 0"/><path fill="#fee459" d="m120.04 216.3-2.9-7.335 8.594-.754Zm0 0"/><path fill="#5b098e" d="m108.293 221.324 8.848-12.36 2.898 7.337Zm0 0"/><path fill="#5c098d" d="m120.012 200.84-2.871 8.125-22.02-29.2Zm0 0"/><path fill="#fedf35" d="m117.14 208.965 2.872-8.125 5.722 7.37Zm0 0"/><path fill="#5c098d" d="m117.14 208.965-28.882.3 6.863-29.5Zm0 0"/><path fill="#5b0990" d="m117.14 208.965-8.847 12.36-20.035-12.06Zm0 0"/><path fill="#fed701" d="M256.281 335.348 246.332 384l-26.754-29.309ZM246.332 384l9.95-48.652 28.202 21.672Zm0 0"/><path fill="#fedf3a" d="m256.281 335.348 24.29.539 3.913 21.133Zm0 0"/><path fill="#5b0a90" d="m275.219 293.027-13.512 19.918-6.187-22.922ZM275.219 293.027l32.48-9.777-23.265 24.21Zm0 0"/><path fill="#fed600" d="M317.754 384.004 246.332 384l38.152-26.98Zm0 0"/><path fill="#fed701" d="m314.57 352.79 3.184 31.214-33.27-26.984Zm0 0"/><path fill="#5b0a90" d="m119.793 54.715-17.172 5.21 12.133-15.429ZM178.164 41.152l3.734 8.828-13.644 2.5Zm0 0"/><path fill="#5d0c8f" d="m181.898 49.98-3.734-8.828 17.535-2.617Zm0 0"/><path fill="#fdd603" d="m197.887 54.137-15.989-4.157L195.7 38.535Zm0 0"/><path fill="#671985" d="m181.898 49.98 15.989 4.157-13.918 9.726Zm0 0"/><path fill="#b8bcc5" d="m202.906 16.371-7.761 19.45-16.82-17.926Zm0 0"/><path fill="#b8bcc4" d="m195.145 35.82-16.98 5.332.16-23.257Zm0 0"/><path fill="#61138c" d="m178.164 41.152 16.98-5.332.555 2.715Zm0 0"/><path fill="#bbbcba" d="m195.145 35.82 17.05-.5-16.496 3.215Zm0 0"/><path fill="#b8bcc4" d="m212.195 35.32-17.05.5 7.761-19.449Zm0 0"/><path fill="#5b0a90" d="m146.246 144.441-10.617-14.796 18.492-7.961Zm0 0"/><path fill="#5c098d" d="m135.629 129.645 10.617 14.796-19.41 9.094Zm0 0"/><path fill="#5b0a8f" d="m135.629 129.645-8.793 23.89-15.223-24.176Zm0 0"/><path fill="#5b098f" d="m131.195 112.754 4.434 16.89-24.016-.285Zm0 0"/><path fill="#fed808" d="m155.027 99.328-17.336-6.86 27.973-9.573Zm0 0"/><path fill="#621389" d="m168.027 106.746-13-7.418 10.637-16.433Zm0 0"/><path fill="#5b0a90" d="m168.254 52.48 15.715 11.383-18.305 19.032Zm0 0"/><path fill="#5c0b90" d="m150.484 54.258 17.77-1.778-2.59 30.415Zm0 0"/><path fill="#5c0b8f" d="m168.254 52.48 13.644-2.5 2.07 13.883Zm0 0"/><path fill="#cac390" d="m220.07 49.207-22.183 4.93-2.188-15.602Zm0 0"/><path fill="#60108c" d="m212.195 35.32 7.875 13.887-24.37-10.672Zm0 0"/><path fill="#5c0b8f" d="m200.707 72.309 32.934 2.574-24.832 12.789Zm0 0"/><path fill="#5e0b8a" d="m200.707 72.309 19.363-23.102 13.57 25.676Zm0 0"/><path fill="#fed600" d="m220.07 49.207-19.363 23.102-2.82-18.172Zm0 0"/><path fill="#5b0a90" d="m189.25 95.914 11.457-23.605 8.102 15.363Zm0 0"/><path fill="#5c0c8e" d="M200.707 72.309 189.25 95.914l-5.281-32.05Zm0 0"/><path fill="#fed600" d="m197.887 54.137 2.82 18.172-16.738-8.446Zm0 0"/><path fill="#5b0a90" d="m244.684 179.152-2.215-19.797 30.222 9.543ZM208.809 87.672l7.921 18.648-27.48-10.406Zm0 0"/><path fill="#82429d" d="m238.879 131.57 3.59 27.785-24.477 8.63Zm0 0"/><path fill="#5e0e8d" d="M77.117 72.324 66.184 93.2 47.996 77.25Zm0 0"/><path fill="#5b0a90" d="M94.875 96.535 66.184 93.2l10.933-20.875Zm0 0"/><path fill="#fed500" d="M68.395 108.328 66.184 93.2l28.691 3.336Zm0 0"/><path fill="#fed600" d="M.004 114.273 21.25 47.484l-5.395 51.063Zm0 0"/><path fill="#5c0b8f" d="m15.855 98.547 5.395-51.063L47.996 77.25Zm0 0"/><path fill="#f9d40f" d="m20.945 46.492.305.992L0 55.11Zm0 0"/><path fill="#fed600" d="m0 269.203 10.754-.121L0 314.622Zm0 0"/><path fill="#fee55e" d="m146.762 190.555-2.797 31.695-18.23-14.04Zm0 0"/><path fill="#fef6c9" d="m179.203 201.008-35.238 21.242 2.797-31.695Zm0 0"/><path fill="#fee143" d="m143.965 222.25-23.926-5.95 5.695-8.09Zm0 0"/><path fill="#feefa0" d="m143.965 222.25 35.238-21.242-9.113 39.375Zm0 0"/><path fill="#5b0a90" d="m94.875 96.535.164 18.293-26.644-6.5Zm0 0"/><path fill="#5b0990" d="m95.04 114.828-13.606 21.84-13.04-28.34Zm0 0"/><path fill="#5b0a90" d="m113.355 105.863-18.316 8.965-.164-18.293Zm0 0"/><path fill="#5b0990" d="m95.04 114.828 18.315-8.965-1.742 23.496ZM81.434 136.668l13.605-21.84 16.574 14.531ZM177.645 118.477l-11.172 13.128-12.352-9.921Zm0 0"/><path fill="#5b0a8f" d="m166.473 131.605-20.227 12.836 7.875-22.757Zm0 0"/><path fill="#5b0a91" d="m177.898 150.266.989 11.605-8.871 4.645Zm0 0"/><path fill="#5b0a91" d="m146.246 144.441 31.652 5.825-7.882 16.25Zm0 0"/><path fill="#fbec9e" d="m166.473 131.605 11.425 18.66-31.652-5.824Zm0 0"/><path fill="#5b0b91" d="m178.887 161.871-.989-11.605 13.938 20.195Zm0 0"/><path fill="#fdec9d" d="m17.766 207.063 53.66-21.036-38.969 35.063Zm0 0"/><path fill="#fcd607" d="m.004 183.094 17.762 23.969-17.758 17.93Zm0 0"/><path fill="#5d0c8f" d="M17.766 207.063.004 183.093l71.422 2.934Zm0 0"/><path fill="#5b0a90" d="m.008 224.992 17.758-17.93 14.691 14.028Zm0 0"/><path fill="#fed601" d="m81.434 136.668-8.989 6.617-11.57-15.058Zm0 0"/><path fill="#5b0a90" d="m81.434 136.668-20.559-8.441 7.52-19.899Zm0 0"/><path fill="#5d0c8e" d="m48.664 152.965-15.422-31.172 27.633 6.434Zm0 0"/><path fill="#fed600" d="m329.309 76.996-17.559-8.793 19.32 7.442Zm0 0"/><path fill="#edc00f" d="m311.75 68.203 19.762-15.516-.442 22.958Zm0 0"/><path fill="#5b0b90" d="M331.512 52.688 311.75 68.203l-12.582-20.031Zm0 0"/><path fill="#fed600" d="m371.781 103.29 12.223-30v61.847Zm0 0"/><path fill="#5b0a90" d="M368.797 75.988 350.53 90.191l2.914-24.078Zm0 0"/><path fill="#fed600" d="m350.531 90.191 18.266-14.203-7.05 19.875Zm0 0"/><path fill="#5b0a90" d="m334.004 94.957 16.527-4.766-6.117 20.723Zm0 0"/><path fill="#fcf3be" d="m170.09 240.383 23.613 56.125-35.2-17.98Zm0 0"/><path fill="#fef7d1" d="m137.426 261.344 32.664-20.961-11.586 38.144Zm0 0"/><path fill="#fefcec" d="m203.012 256.305-9.309 40.203-23.613-56.125Zm0 0"/><path fill="#fefae0" d="m203.012 256.305 25.879 17.855-35.188 22.348Zm0 0"/><path fill="#fcea8d" d="m228.89 274.16-25.878-17.855 22.277-14.64Zm0 0"/><path fill="#5b098e" d="m201.84 228.383 1.172 27.922-32.922-15.922Zm0 0"/><path fill="#5c098b" d="m225.29 241.664-22.278 14.64-1.172-27.921Zm0 0"/><path fill="#fcd606" d="M363.398 170.14 384 191.532l-28.73 2.414Zm0 0"/><path fill="#fed600" d="m384 191.531-20.602-21.39 20.606-35.004Zm0 0"/><path fill="#5b0a90" d="m338.563 254.254 12.671-32.379 18.711 18.012Zm0 0"/><path fill="#5b098e" d="m338.563 254.254 31.382-14.367-11.78 41.687Zm0 0"/><path fill="#5c0b90" d="m341.336 290.383-2.774-36.13 19.602 27.321Zm0 0"/><path fill="#fed705" d="m306.855 191.203-14.32 6.227-13.746-31.13Zm0 0"/><path fill="#5b0a90" d="m292.535 197.43-12.12-.301-1.626-30.828ZM292.535 197.43l14.32-6.227 2.547 28.613Zm0 0"/><path fill="#fed600" d="m281.938 213.496 10.597-16.066 16.867 22.386Zm0 0"/><path fill="#5b0a90" d="m280.414 197.129 12.121.3-10.598 16.067Zm0 0"/><path fill="#5c0b8f" d="m267.836 200.8 12.578-3.671 1.524 16.367Zm0 0"/><path fill="#5b0a90" d="m280.414 197.129-12.578 3.672 4.855-31.903Zm0 0"/><path fill="#fef1ae" d="m272.691 168.898-4.855 31.903-23.152-21.649Zm0 0"/><path fill="#5b0a90" d="m305.895 245.07 1.804 38.18-33.594-22.996Zm0 0"/><path fill="#5b0990" d="m305.895 245.07 26.539-15.308 6.128 24.492Zm0 0"/><path fill="#fed600" d="m384 313.883-19.23-.653 8.136-14.613Zm0 0"/><path fill="#5b0a90" d="m361.148 301.45-19.812-11.067 16.828-8.809Zm0 0"/><path fill="#fed600" d="m372.906 298.617-11.758 2.832-2.984-19.875Zm0 0"/><path fill="#5b0990" d="m205.086 124.656-27.441-6.18 11.605-22.562Zm0 0"/><path fill="#feda15" d="m205.086 124.656-.938 21.301-26.503-27.48Zm0 0"/><path fill="#5b0a90" d="m216.73 106.32-11.644 18.336-15.836-28.742Zm0 0"/><path fill="#fed600" d="m356.402 145.68 5.703-26.54 21.899 15.997Zm0 0"/><path fill="#5b0a90" d="m356.594 107.672-3.336 8.914-8.844-5.672ZM350.531 90.191l6.063 17.48-12.18 3.243ZM333.535 170.602l21.735 23.343-18.04 5.13Zm0 0"/><path fill="#fed600" d="m333.535 170.602 29.863-.461-8.128 23.804Zm0 0"/><path fill="#5b0a90" d="m325.285 175.5 8.25-4.898 3.695 28.472Zm0 0"/><path fill="#fed600" d="m315.066 149.395 18.47 21.207-8.25 4.898ZM302.652 118.121l13.883-.492-1.469 31.766ZM316.82 90.262l-5.07-22.059 17.559 8.793Zm0 0"/><path fill="#5b0a90" d="m316.82 90.262-8.465 14.875-9.18-4.172Zm0 0"/><path fill="#5b0b90" d="m311.75 68.203 5.07 22.059-17.644 10.703Zm0 0"/><path fill="#fed600" d="m264.727 87.066 10.925 25.899-25.078-20.613Zm0 0"/><path fill="#5b0a90" d="m275.652 112.965-25.03-3.91-.048-16.703ZM275.652 112.965l-6.199 18.883-18.832-22.793Zm0 0"/><path fill="#5b0990" d="m269.453 131.848 6.2-18.883 12.25 13.43Zm0 0"/><path fill="#5b0990" d="m275.652 112.965 23.524-12-11.274 25.43Zm0 0"/><path fill="#5b0a90" d="m269.453 131.848-8.941 8.254-15.996-24.442ZM260.512 140.102l8.941-8.254 3.238 37.05Zm0 0"/><path fill="#fef1b0" d="m260.512 140.102 12.18 28.796-30.223-9.543Zm0 0"/><path fill="#feda19" d="m260.512 140.102-21.633-8.532 5.637-15.91Zm0 0"/><path fill="#bbbec2" d="m238.879 131.57 21.633 8.532-18.043 19.253Zm0 0"/><path fill="#fed700" d="m68.059 364.336 22.375.246L80.336 384Zm0 0"/><path fill="#5b0a8f" d="m68.059 364.336-28.137 19.672 13.926-31.961Zm0 0"/><path fill="#fed701" d="m39.922 384.008 28.137-19.672L80.336 384Zm0 0"/><path fill="#600d86" d="M53.848 352.047 37.89 334.609h20.578Zm0 0"/><path fill="#fed601" d="m28.215 358.574 9.676-23.965 15.957 17.438Zm0 0"/><path fill="#fed600" d="m37.89 334.61-9.675 23.964L14.41 326.07Zm0 0"/><path fill="#fed700" d="m44.316 289.816 7.676-13.273 21.582 20.418Zm0 0"/><path fill="#5b0a90" d="m44.316 289.816 21.032 24.602-32.309-6.027Zm0 0"/><path fill="#5b0a90" d="m44.316 289.816 29.258 7.145-8.226 17.457ZM77.555 354.105l-9.496 10.23-14.211-12.288Zm0 0"/><path fill="#5b0990" d="M89.23 314.758 77.742 333.39l-12.394-18.973ZM116.867 293.277l-4.629 23.227-5.746-24.68Zm0 0"/><path fill="#fed700" d="m146.418 332.023-34.18-15.52 4.63-23.226ZM112.238 316.504l34.18 15.52-37.395 1.163Zm0 0"/><path fill="#fed600" d="m51.992 276.543 25.028-5.606-3.446 26.024Zm0 0"/><path fill="#fed600" d="m73.574 296.96 3.446-26.022 29.472 20.886Zm0 0"/><path fill="#5b0990" d="m90.34 242.555 17.953-21.23 14.352 18.827Zm0 0"/><path fill="#5b0a90" d="m284.434 307.46-22.727 5.485 13.512-19.918Zm0 0"/><path fill="#b8bcc4" d="m354.637 384-36.883.004 24.73-22.754Zm0 0"/><path fill="#fed706" d="m301.719 333.895 12.851 18.894-30.086 4.23Zm0 0"/><path fill="#5b0a90" d="m119.258 71.086.535-16.371 30.691-.457Zm0 0"/><path fill="#5b0990" d="m119.793 54.715-.535 16.37-16.637-11.16Zm0 0"/><path fill="#b8bcc5" d="m234.668 18.441-22.473 16.88-9.289-18.95Zm0 0"/><path fill="#5c0c90" d="m212.195 35.32 22.473-16.879-14.598 30.766Zm0 0"/><path fill="#fed600" d="m234.668 18.441-31.762-2.07 47.715-12.539Zm0 0"/><path fill="#5b0a90" d="m260.395 26.594-25.727-8.153 15.953-14.609Zm0 0"/><path fill="#5b0a90" d="m234.668 18.441 25.727 8.153-17.641 15.074Zm0 0"/><path fill="#5c0b90" d="m220.07 49.207 14.598-30.766 8.086 23.227Zm0 0"/><path fill="#5c0c8f" d="m135.629 129.645 8.89-15.708 9.602 7.747Zm0 0"/><path fill="#600d88" d="m144.52 113.938-8.891 15.707-4.434-16.891Zm0 0"/><path fill="#fedd28" d="m144.52 113.938 23.507-7.192-13.906 14.938Zm0 0"/><path fill="#fed90e" d="m144.52 113.938 10.507-14.61 13 7.418Zm0 0"/><path fill="#fed910" d="m144.52 113.938-13.325-1.184 6.496-20.285Zm0 0"/><path fill="#fed701" d="m155.027 99.328-10.507 14.61-6.829-21.47Zm0 0"/><path fill="#5b0a90" d="m119.793 54.715 33.273-12.844-2.582 12.387Zm0 0"/><path fill="#5b0a90" d="m153.066 41.871 15.188 10.61-17.77 1.777ZM153.066 41.871l14.996-2.715.192 13.324ZM153.066 41.871l-33.273 12.844-5.04-10.219Zm0 0"/><path fill="#b8bcc4" d="m153.066 41.871-38.312 2.625 43.5-27.226Zm0 0"/><path fill="#b8bcc4" d="m168.063 39.156-14.997 2.715 5.188-24.601Zm0 0"/><path fill="#5b0a90" d="m216.73 106.32 8.98 16.098-20.624 2.238Zm0 0"/><path fill="#5e0e8e" d="m225.71 122.418-8.98-16.098 27.786 9.34Zm0 0"/><path fill="#5c0b8f" d="m205.086 124.656 20.625-2.238-1.266 7.555Zm0 0"/><path fill="#fbd50a" d="m238.879 131.57-20.887 36.414 6.453-38.011Zm0 0"/><path fill="#5b0a90" d="m225.71 122.418 13.169 9.152-14.434-1.597Zm0 0"/><path fill="#5b0a90" d="m238.879 131.57-13.168-9.152 18.805-6.758ZM50.3 112.777 66.185 93.2l2.21 15.13Zm0 0"/><path fill="#f4c90e" d="m50.3 112.777 18.095-4.449-7.52 19.899Zm0 0"/><path fill="#5b0a90" d="M66.184 93.2 50.3 112.776 47.996 77.25Zm0 0"/><path fill="#621490" d="m204.148 145.957-37.675-14.352 11.172-13.128Zm0 0"/><path fill="#bbbdbc" d="m204.148 145.957-26.25 4.309-11.425-18.66Zm0 0"/><path fill="#fefbed" d="m177.898 150.266 26.25-4.309-12.312 24.504Zm0 0"/><path fill="#fed600" d="m33.242 121.793 15.422 31.172-32.152-4.973Zm0 0"/><path fill="#60118b" d="m33.242 121.793-16.73 26.2-16.508-33.72Zm0 0"/><path fill="#fed601" d="m15.855 98.547 17.387 23.246-33.238-7.52Zm0 0"/><path fill="#fed600" d="m371.781 103.29-2.984-27.302 15.207-2.699Zm0 0"/><path fill="#fed600" d="m361.746 95.863 10.035 7.426-15.187 4.383Zm0 0"/><path fill="#fed600" d="m371.781 103.29-10.035-7.427 7.05-19.875ZM350.531 90.191l11.215 5.672-5.152 11.809Zm0 0"/><path fill="#fee55a" d="m116.867 293.277 5.778-53.125 14.78 21.192Zm0 0"/><path fill="#5c0b8f" d="m122.645 240.152-5.778 53.125-10.375-1.453Zm0 0"/><path fill="#5b0990" d="m90.34 242.555 32.305-2.403-16.153 51.672Zm0 0"/><path fill="#5b098f" d="m307.7 283.25-1.805-38.18 32.668 9.184Zm0 0"/><path fill="#5b0a90" d="m356.594 107.672 5.511 11.469-8.847-2.555Zm0 0"/><path fill="#fed600" d="m347.996 140.637 14.11-21.496-5.704 26.539Zm0 0"/><path fill="#5b0a90" d="m362.105 119.14-14.109 21.497 5.262-24.051ZM347.996 140.637l-3.582-29.723 8.844 5.672Zm0 0"/><path fill="#fdd501" d="m347.996 140.637 8.406 5.043-22.867 24.922Zm0 0"/><path fill="#5b0a90" d="m315.066 149.395 32.93-8.758-14.46 29.965Zm0 0"/><path fill="#5c0b8f" d="m316.535 117.629 12.485-.766-13.954 32.532Zm0 0"/><path fill="#5b0a90" d="m329.02 116.863 18.976 23.774-32.93 8.758Zm0 0"/><path fill="#5b0a90" d="m347.996 140.637-18.976-23.774 15.394-5.949Zm0 0"/><path fill="#fed600" d="m308.355 105.137 3.649 6.41-9.352 6.574Zm0 0"/><path fill="#fed600" d="m312.004 111.547 4.531 6.082-13.883.492Zm0 0"/><path fill="#5b098f" d="m77.555 354.105-23.707-2.058 4.62-17.438Zm0 0"/><path fill="#fcd71a" d="m77.742 333.39-.187 20.715-19.086-19.496Zm0 0"/><path fill="#fdd603" d="m77.555 354.105 12.879 10.477-22.375-.246Zm0 0"/><path fill="#5b0990" d="m102.031 333.832 10.207-17.328-3.215 16.683Zm0 0"/><path fill="#fed701" d="m108.645 349.805-6.614-15.973 6.992-.644Zm0 0"/><path fill="#5b0990" d="m112.238 316.504-10.207 17.328-12.8-19.074ZM102.031 333.832l-24.289-.441 11.488-18.633Zm0 0"/><path fill="#fed702" d="m193.703 296.508 37.723 32.172-11.848 26.011Zm0 0"/><path fill="#fed603" d="m231.426 328.68-37.723-32.172 41.313 7.465Zm0 0"/><path fill="#fefae0" d="m231.426 328.68 24.855 6.668-36.703 19.343Zm0 0"/><path fill="#fed600" d="M359.957 342.465 384 313.883v36.937Zm0 0"/><path fill="#fed600" d="m359.957 342.465 4.813-29.235 19.23.653Zm0 0"/><path fill="#fefbed" d="m275.906 320.406-19.625 14.942 5.426-22.403Zm0 0"/><path fill="#5b0a90" d="m284.434 307.46-8.528 12.946-14.199-7.46Zm0 0"/><path fill="#fefae4" d="m256.281 335.348 19.625-14.942 4.664 15.48Zm0 0"/><path fill="#fef3b3" d="m275.906 320.406 12.36 3.336-7.696 12.145Zm0 0"/><path fill="#5b0a91" d="m275.906 320.406 8.528-12.945 3.832 16.281Zm0 0"/><path fill="#fed601" d="M370.555 360.46 384 350.82l-.008 33.172Zm0 0"/><path fill="#b8bcc4" d="m354.637 384 15.918-23.54 13.437 23.532Zm0 0"/><path fill="#fef6cb" d="m301.719 333.895-21.149 1.992 7.696-12.145Zm0 0"/><path fill="#fedc22" d="m280.57 335.887 21.149-1.992-17.235 23.125Zm0 0"/><path fill="#f8d82b" d="m301.719 333.895 15.781 2.03-2.93 16.864Zm0 0"/><path fill="#fdd603" d="m111.621 86.723 16.906-.602-2.191 12.117Zm0 0"/><path fill="#b8bcc3" d="m128.527 86.121-16.906.602 7.637-15.637Zm0 0"/><path fill="#fed605" d="m128.527 86.121 9.164 6.348-11.355 5.77Zm0 0"/><path fill="#fed912" d="m128.527 86.121 21.957-31.863-12.793 38.21Zm0 0"/><path fill="#fdd709" d="m128.527 86.121-9.27-15.035 31.227-16.828Zm0 0"/><path fill="#5c0b8f" d="m50.3 112.777-34.445-14.23L47.996 77.25Zm0 0"/><path fill="#fed601" d="m33.242 121.793 17.059-9.016 10.574 15.45Zm0 0"/><path fill="#5b0a90" d="m15.855 98.547 34.446 14.23-17.059 9.016Zm0 0"/><path fill="#fed600" d="m368.797 75.988-.152-19.258 15.359 16.56ZM368.645 56.73l.152 19.258-15.352-9.875Zm0 0"/><path fill="#5b0990" d="M326.195 312.434 307.7 283.25l33.637 7.133Zm0 0"/><path fill="#fed600" d="m318.223 107.11-6.22 4.437-3.648-6.41Zm0 0"/><path fill="#fed600" d="m316.82 90.262 1.403 16.847-9.868-1.972Zm0 0"/><path fill="#5b0a90" d="m316.535 117.629 1.688-10.52 10.797 9.754Zm0 0"/><path fill="#fed600" d="m312.004 111.547 6.219-4.438-1.688 10.52Zm0 0"/><path fill="#fed700" d="m39.922 384.008-11.707-25.434 25.633-6.527ZM90.805 346.05l11.226-12.218 6.614 15.973Zm0 0"/><path fill="#5b0990" d="m102.031 333.832-11.226 12.219-13.063-12.66Zm0 0"/><path fill="#fefcee" d="m231.426 328.68 3.59-24.707 21.265 31.375Zm0 0"/><path fill="#5b0a90" d="m261.707 312.945-26.691-8.972 20.504-13.95Zm0 0"/><path fill="#fefbec" d="m256.281 335.348-21.265-31.375 26.691 8.972Zm0 0"/><path fill="#fed600" d="m364.77 313.23-4.813 29.235-24.219-10.277Zm0 0"/><path fill="#fed600" d="m370.555 360.46-10.598-17.995L384 350.82Zm0 0"/><path fill="#b8bcc4" d="M370.555 360.46 354.637 384l-12.153-22.75ZM314.57 352.79l27.914 8.46-24.73 22.754Zm0 0"/><path fill="#b8bcc4" d="m314.57 352.79 20.008-12.603 7.906 21.063Zm0 0"/><path fill="#b8bcc3" d="m334.578 340.188-20.008 12.601 2.93-16.863Zm0 0"/><path fill="#5b0b90" d="m305.406 316.36 20.79-3.926-8.696 23.492Zm0 0"/><path fill="#5b0a90" d="m305.406 316.36 2.293-33.11 18.496 29.184ZM305.406 316.36l-3.687 17.535-13.453-10.153Zm0 0"/><path fill="#5b0990" d="m305.406 316.36 12.094 19.566-15.781-2.031Zm0 0"/><path fill="#5b0a90" d="m284.434 307.46 20.972 8.9-17.14 7.382Zm0 0"/><path fill="#5b0990" d="m307.7 283.25-2.294 33.11-20.972-8.9Zm0 0"/><path fill="#5b0a90" d="m318.223 107.11 15.78-12.153-4.983 21.906Zm0 0"/><path fill="#fed600" d="m334.004 94.957-17.184-4.695 12.489-13.266Zm0 0"/><path fill="#5b0a90" d="m334.004 94.957-15.781 12.152-1.403-16.847Zm0 0"/><path fill="#fcd609" d="m28.215 358.574 11.707 25.434L25.957 384Zm0 0"/><path fill="#fed602" d="M28.215 358.574 25.957 384H0Zm0 0"/><path fill="#5e0988" d="m77.742 333.39 13.063 12.66-13.25 8.055Zm0 0"/><path fill="#fed700" d="m90.805 346.05-.371 18.532-12.88-10.477ZM90.805 346.05l17.84 3.755-18.211 14.777Zm0 0"/><path fill="#fed600" d="m364.77 313.23-3.622-11.78 11.758-2.833Zm0 0"/><path fill="#fed600" d="m364.77 313.23-9.844-4.035 6.222-7.746Zm0 0"/><path fill="#5b0a90" d="m361.148 301.45-6.222 7.745-13.59-18.812ZM354.926 309.195l-28.73 3.239 15.14-22.051Zm0 0"/><path fill="#5b0a90" d="m326.195 312.434 28.73-3.239-19.187 22.993Zm0 0"/><path fill="#fed600" d="m354.926 309.195 9.844 4.035-29.032 18.957Zm0 0"/><path fill="#b8bcc4" d="m342.484 361.25 17.473-18.785 10.598 17.996Zm0 0"/><path fill="#5b0a90" d="m335.738 332.188-1.16 8-17.078-4.262ZM326.195 312.434l9.543 19.753-18.238 3.739ZM359.957 342.465l-25.379-2.277 1.16-8Zm0 0"/><path fill="#b8bcc4" d="m334.578 340.188 25.379 2.277-17.473 18.785Zm0 0"/></svg>