<svg xmlns="http://www.w3.org/2000/svg" width="512" height="512" viewBox="0 0 384 384"><path fill="#ded684" d="m54.402 52.715-18.96 8.453 5.382-20.293Zm0 0"/><path fill="#96403d" d="m219.465 215.488-14.504 14.274-19.899-22.29Zm0 0"/><path fill="#dcd282" d="m217.629 200.887 1.836 14.601-34.402-8.015Zm0 0"/><path fill="#202215" d="m116.398 28.219-16.882-3.477L103.043 0Zm0 0"/><path fill="#953b3b" d="m86.86 69.316 25.93 16.426-22.31 11.856Zm0 0"/><path fill="#202215" d="M112.79 85.742 86.86 69.316l29.738-2.457Zm0 0"/><path fill="#ded684" d="M258.953 69.305 246.051 41.53l29.687 12.953Zm0 0"/><path fill="#98403e" d="m246.05 41.531 15.13-12.105 14.558 25.058Zm0 0"/><path fill="#202215" d="M36.7 26.602 0 0h53.953Zm0 0"/><path fill="#ded684" d="m35.441 61.168-13.925-15.77 19.308-4.523Zm0 0"/><path fill="#202215" d="m21.516 45.398 15.183-18.796 4.125 14.273ZM36.7 26.602l20.823 8.043-16.699 6.23Zm0 0"/><path fill="#202215" d="M57.523 34.645 36.7 26.602 53.953 0Zm0 0"/><path fill="#ddd583" d="m57.523 34.645-3.12 18.07-13.579-11.84Zm0 0"/><path fill="#ded684" d="m68.082 44.887 4.094-13.371 12.785 12.75ZM68.082 44.887 57.523 34.645l14.653-3.13Zm0 0"/><path fill="#ded684" d="m57.523 34.645 10.559 10.242-13.68 7.828ZM54.402 52.715 47.551 76.41 35.44 61.168Zm0 0"/><path fill="#ded584" d="m145.918 188.766-26.121 9.328 9.82-21.516Zm0 0"/><path fill="#ded684" d="m119.797 198.094 26.121-9.328-21.004 16.21Zm0 0"/><path fill="#ded584" d="m148.05 156.691-2.132 32.075-16.3-12.188Zm0 0"/><path fill="#202215" d="m108.969 172.21 10.828 25.884L97.37 187.71Zm0 0"/><path fill="#c8a86e" d="m119.797 198.094-10.828-25.883 20.648 4.367Zm0 0"/><path fill="#202215" d="M24.73 151.988 0 149.528l24.531-28.555ZM299.328 25.945 317.543 0l11.867 18.84ZM261.3 282.941l.462-18.78 26.117 8.655Zm0 0"/><path fill="#953c3b" d="m311.594 164.54-2.457 27.98-20.621-13.024Zm0 0"/><path fill="#202215" d="m271.781 174.152 39.813-9.613-23.078 14.957ZM303.363 120.688l11.785 27.835-24.691-17.238ZM104.61 290.418l-23.204.637 14.102-24.953Zm0 0"/><path fill="#ded584" d="M227.402 341.473 161.168 384l-19.574-35.824Zm0 0"/><path fill="#ded684" d="m123.977 242.957-4.555-27.2 20.738 20.638Zm0 0"/><path fill="#202215" d="M147.102 10.855 103.043 0l142.164-.004Zm0 0"/><path fill="#202215" d="m103.043 0 44.059 10.855-30.704 17.364ZM147.102 10.855 245.207-.004l-76.766 23.637ZM229.145 18.262 245.207-.004l3.465 5.664Zm0 0"/><path fill="#202215" d="m95.715 48.281 3.8-23.539 16.883 3.477ZM114.887 54.613l-19.172-6.332 20.683-20.062ZM86.86 69.316l28.027-14.703 1.71 12.246Zm0 0"/><path fill="#202215" d="m95.715 48.281 19.172 6.332-28.028 14.703ZM222.742 88.41l-18.34-1.387 19.926-15.89Zm0 0"/><path fill="#c49f6a" d="m222.742 88.41 36.211-19.105 5.016 22.476Zm0 0"/><path fill="#963d3c" d="m258.953 69.305-36.21 19.105 1.585-17.277Zm0 0"/><path fill="#ded684" d="m263.969 91.781 18.312-19.504 22.477 32.22Zm0 0"/><path fill="#963c3c" d="m282.281 72.277-23.328-2.972 16.785-14.82Zm0 0"/><path fill="#202215" d="m288.656 21.047 10.672 4.898-4.73 19.418ZM69.91 83.383l16.95-14.067 3.62 28.282ZM0 0l36.7 26.602-15.184 18.796ZM53.953 0h49.09L72.176 31.516Zm0 0"/><path fill="#202215" d="M57.523 34.645 53.953 0l18.223 31.516ZM84.621 243.883l-14.578-30.676 28.894 7.125ZM92.105 202.05l6.832 18.282-28.894-7.125ZM0 237.574l52.797 9.285-15.961 21.664Zm0 0"/><path fill="#dbce81" d="m148.05 156.691 18.884 9.38-21.016 22.695Zm0 0"/><path fill="#202215" d="m167.508 109.703 11.941 18.79-20.492 1.26Zm0 0"/><path fill="#202215" d="m179.45 128.492-11.942-18.789 23.746-4.027ZM91.645 169.066l17.324 3.145-11.598 15.5ZM108.969 172.21l-17.324-3.144 10.937-17.656Zm0 0"/><path fill="#202215" d="m91.645 169.066-15.653-13.789 26.59-3.867ZM112.79 85.742l.823 20.418-23.133-8.562Zm0 0"/><path fill="#ded684" d="m113.613 106.16-.824-20.418 14.191 2.102Zm0 0"/><path fill="#d8ca7e" d="m135.164 150.805 12.887 5.886-18.434 19.887Zm0 0"/><path fill="#202215" d="m121.86 128.867 13.304 21.938-32.582.605Zm0 0"/><path fill="#9d4c43" d="m108.969 172.21 26.195-21.405-5.547 25.773Zm0 0"/><path fill="#202215" d="M135.164 150.805 108.97 172.21l-6.387-20.8ZM88.258 128.934l33.601-.067-19.277 22.543ZM88.258 128.934l-12.266 26.343 2.496-23.191Zm0 0"/><path fill="#202215" d="m75.992 155.277 12.266-26.343 14.324 22.476ZM24.73 151.988l.868 26.864L0 149.527ZM75.992 155.277l-2.734 32.059-27.043-22.543ZM73.258 187.336l-26.63 5.992-.413-28.535Zm0 0"/><path fill="#953b3b" d="m91.645 169.066-18.387 18.27 2.734-32.059Zm0 0"/><path fill="#202215" d="M317.543 0 293.66 14.355 279.355-.004Zm0 0"/><path fill="#202215" d="m299.328 25.945-5.668-11.59L317.543 0Zm0 0"/><path fill="#212315" d="m288.656 21.047 5.004-6.692 5.668 11.59Zm0 0"/><path fill="#ded684" d="m299.328 25.945 22.375 9.528-27.105 9.89Zm0 0"/><path fill="#ded584" d="m321.703 35.473-11.09 18.175-16.015-8.285Zm0 0"/><path fill="#202215" d="m321.703 35.473-22.375-9.528 30.082-7.105Zm0 0"/><path fill="#ded684" d="M357.652 45.395 330.543 59.55l-8.84-24.078Zm0 0"/><path fill="#202215" d="M357.723 45.46 384 0v81.574ZM357.723 45.46l-27.18 14.09 27.11-14.155ZM357.723 45.46l-5.528 34.282-21.652-20.191ZM352.195 79.742l-20.148 12.992-1.504-33.183Zm0 0"/><path fill="#ded584" d="m177.383 235.05 7.68-27.577 19.898 22.289Zm0 0"/><path fill="#ded684" d="m138.668 264.281-14.691-21.324 16.183-6.562Zm0 0"/><path fill="#c6a26c" d="m175.176 289.867 52.226 51.606-85.808 6.703Zm0 0"/><path fill="#202215" d="m235.895 275.734 25.406 7.207-16.317 10.372Zm0 0"/><path fill="#202215" d="m261.3 282.941-25.405-7.207 25.867-11.574ZM234.129 299.328l1.766-23.594 9.09 17.579Zm0 0"/><path fill="#a65e4c" d="m235.895 275.734-1.766 23.594-2.184-24.039Zm0 0"/><path fill="#202215" d="m235.895 275.734 13.332-20.347 12.535 8.773Zm0 0"/><path fill="#ded684" d="m309.137 192.52 17.133 14.601-20.817 10.004Zm0 0"/><path fill="#202215" d="m350.805 224.918-14.055-5.574 11.781-14.899Zm0 0"/><path fill="#202215" d="m384 214.66-33.195 10.258-2.274-20.473ZM252.293 249.113l22.816 1.285-13.347 13.762Zm0 0"/><path fill="#ceb374" d="m252.293 249.113-3.066 6.274-6.762-8.95Zm0 0"/><path fill="#202215" d="m252.293 249.113 9.469 15.047-12.535-8.773ZM252.293 249.113l28.125-28.437-5.309 29.722ZM300.547 241.371l-20.129-20.695 25.035-3.551Zm0 0"/><path fill="#202215" d="m280.418 220.676 20.129 20.695-25.438 9.027ZM335.813 252.203l-18.196-2.047 19.914-15.851ZM271.781 174.152l-26.754 3.989 4.844-16.707Zm0 0"/><path fill="#b27e5a" d="m245.027 178.14 26.754-3.988-26.676 16.27Zm0 0"/><path fill="#d4c07a" d="m311.594 164.54 14.48 19.327-16.937 8.653Zm0 0"/><path fill="#202215" d="m326.27 207.121-.196-23.254 11.781 3.305Zm0 0"/><path fill="#a49f62" d="m326.074 183.867.196 23.254-17.133-14.601Zm0 0"/><path fill="#202215" d="m278.621 114.86 24.742 5.828-12.906 10.597ZM42.852 289.098l-4.18 29.976L0 292.894ZM104.61 290.418l-7.434 24-15.77-23.363ZM70.422 269.492l-33.586-.969 15.96-21.664ZM95.508 266.102l-25.086 3.39 14.2-25.61Zm0 0"/><path fill="#ddd483" d="m161.168 384 66.234-42.527L275.375 384Zm0 0"/><path fill="#202215" d="m123.977 242.957-25.04-22.625 20.485-4.574Zm0 0"/><path fill="#202215" d="m95.508 266.102-10.887-22.22 39.356-.925Zm0 0"/><path fill="#ded584" d="m224.328 71.133-8.305-27.403 42.93 25.575Zm0 0"/><path fill="#973e3d" d="m216.023 43.73 30.028-2.199 12.902 27.774Zm0 0"/><path fill="#202215" d="m245.207-.004-41.934 23.988-34.832-.351Zm0 0"/><path fill="#202215" d="M203.273 23.984 245.207-.004l-16.062 18.266Zm0 0"/><path fill="#d6c57c" d="m140.02 80.164-5.618 32.117-7.422-24.437Zm0 0"/><path fill="#ded684" d="m134.402 112.281-20.789-6.12 13.367-18.317Zm0 0"/><path fill="#953b3b" d="m113.613 106.16 20.79 6.121-12.544 16.586Zm0 0"/><path fill="#202215" d="m140.02 80.164 10.054-25.445 15.66 29.726Zm0 0"/><path fill="#202215" d="m180.855 59.203 2.934 27.484-18.055-2.242ZM167.508 109.703l16.281-23.016 7.465 18.989Zm0 0"/><path fill="#202215" d="m183.79 86.688-16.282 23.015-1.774-25.258ZM183.79 86.688l20.612.335-13.148 18.653Zm0 0"/><path fill="#ded684" d="m72.176 31.516 27.34-6.774L84.96 44.266Zm0 0"/><path fill="#202215" d="m99.516 24.742-3.801 23.54-10.754-4.016ZM103.043 0l-3.527 24.742-27.34 6.774ZM315.148 148.523l-3.554 16.016-39.813 9.613Zm0 0"/><path fill="#dbcf81" d="m229.82 108.879-7.078-20.469 41.227 3.371Zm0 0"/><path fill="#9d4b43" d="m257.316 114.516-27.496-5.637L263.97 91.78Zm0 0"/><path fill="#963d3c" d="m229.82 108.879 27.496 5.637-9.82 8.28Zm0 0"/><path fill="#963c3c" d="m247.496 122.797 9.82-8.281 6.782 28.394Zm0 0"/><path fill="#dcd282" d="m244.227 141.68 3.27-18.883 16.6 20.113Zm0 0"/><path fill="#dacd80" d="m258.953 69.305 23.328 2.972-18.312 19.504Zm0 0"/><path fill="#ded584" d="m261.18 29.426 27.476-8.38-12.918 33.438Zm0 0"/><path fill="#9a4b42" d="m275.738 54.484 12.918-33.437 5.942 24.316Zm0 0"/><path fill="#202215" d="m73.438 64.25 22.277-15.969-8.856 21.035Zm0 0"/><path fill="#202215" d="m69.91 83.383 3.528-19.133 13.421 5.066Zm0 0"/><path fill="#ded684" d="m68.082 44.887 5.356 19.363-19.036-11.535Zm0 0"/><path fill="#ded684" d="M73.438 64.25 47.55 76.41l6.851-23.695Zm0 0"/><path fill="#202215" d="M95.715 48.281 73.437 64.25l11.524-19.984Zm0 0"/><path fill="#ded684" d="m73.438 64.25-5.356-19.363 16.879-.621Zm0 0"/><path fill="#202215" d="m0 0 4.8 87.203L0 149.527Zm0 0"/><path fill="#202215" d="M4.8 87.203 0 0l21.516 45.398ZM0 237.574l36.836 30.95L0 292.893Zm0 0"/><path fill="#202215" d="m36.836 268.523 6.016 20.575L0 292.895Zm0 0"/><path fill="#202215" d="m42.852 289.098-6.016-20.575 33.586.97Zm0 0"/><path fill="#953b3b" d="m70.043 213.207-21.715 1.723-1.7-21.602Zm0 0"/><path fill="#212215" d="m52.797 246.86-4.469-31.93 21.715-1.723Zm0 0"/><path fill="#ded584" d="m166.934 166.07 18.129 41.403-39.145-18.707Zm0 0"/><path fill="#ddd483" d="m185.063 207.473-5.708-41.133 11.403.597Zm0 0"/><path fill="#ddd383" d="m166.934 166.07 12.421.27 5.708 41.133Zm0 0"/><path fill="#953b3b" d="m46.629 193.328 26.629-5.992-3.215 25.871Zm0 0"/><path fill="#202215" d="m73.258 187.336 18.387-18.27 5.726 18.645Zm0 0"/><path fill="#202215" d="m92.105 202.05-18.847-14.714 24.113.375ZM73.258 187.336l18.847 14.715-22.062 11.156Zm0 0"/><path fill="#b37b5a" d="m135.164 150.805 13.695-6.762-.808 12.648Zm0 0"/><path fill="#202215" d="m148.86 144.043 18.074 22.027-18.883-9.379ZM25.598 178.852 0 194.699v-45.172ZM46.629 193.328l-21.031-14.476 20.617-14.059Zm0 0"/><path fill="#923b3a" d="m25.598 178.852-.868-26.864 21.485 12.805Zm0 0"/><path fill="#ded684" d="m75.992 155.277-19.43-15.574 21.926-7.617Zm0 0"/><path fill="#ded684" d="m56.563 139.703 19.43 15.574-29.778 9.516ZM56.563 139.703l-15.38 9.172L56.7 128.559Zm0 0"/><path fill="#953b3b" d="m24.73 151.988 16.454-3.113 5.03 15.918Zm0 0"/><path fill="#202215" d="m41.184 148.875 15.379-9.172-10.348 25.09ZM384 0l-54.59 18.84L317.543 0ZM293.66 14.355 276.38 5.652l2.976-5.656ZM276.379 5.652l17.281 8.703-5.004 6.692Zm0 0"/><path fill="#ded684" d="m276.379 5.652 12.277 15.395-27.476 8.379Zm0 0"/><path fill="#202215" d="M276.379 5.652 245.207-.004h34.148Zm0 0"/><path fill="#202215" d="m245.207-.004 31.172 5.656-27.707.008Zm0 0"/><path fill="#dbd081" d="m276.379 5.652-15.2 23.774L248.673 5.66Zm0 0"/><path fill="#994540" d="m330.543 59.55-19.93-5.902 11.09-18.175Zm0 0"/><path fill="#963c3c" d="m282.281 72.277 33.77 19.7-11.293 12.52Zm0 0"/><path fill="#ded684" d="m310.613 53.648-13.57 14.555-2.445-22.84ZM297.043 68.203l-21.305-13.719 18.86-9.12Zm0 0"/><path fill="#ded684" d="m314.852 69.66-17.809-1.457 13.57-14.555Zm0 0"/><path fill="#973e3d" d="m297.043 68.203 17.809 1.457 1.199 22.317Zm0 0"/><path fill="#ded684" d="m275.738 54.484 21.305 13.72-14.762 4.073Zm0 0"/><path fill="#9c4a42" d="m297.043 68.203 19.008 23.774-33.77-19.7Zm0 0"/><path fill="#202215" d="M329.41 18.84 384 0l-26.277 45.46Zm0 0"/><path fill="#202215" d="M357.652 45.395 329.41 18.84l28.313 26.62Zm0 0"/><path fill="#202215" d="m329.41 18.84 28.242 26.555-35.949-9.922ZM384 81.574l-37.281 34.16 5.476-35.992ZM384 148.441l-37.281-32.707L384 81.574Zm0 0"/><path fill="#ded684" d="m177.383 235.05-38.715 29.231 1.492-27.886Zm0 0"/><path fill="#bc8d62" d="m119.984 290.5 18.684-26.219 36.508 25.586Zm0 0"/><path fill="#ac6c52" d="m175.176 289.867 39.031 3.25 13.195 48.356Zm0 0"/><path fill="#9c4942" d="m234.129 299.328-19.922-6.21 17.738-17.829Zm0 0"/><path fill="#dbcf81" d="m235.895 275.734-3.95-.445 17.282-19.902Zm0 0"/><path fill="#ccb072" d="m249.227 255.387-17.282 19.902 10.52-28.851Zm0 0"/><path fill="#ded684" d="m231.945 275.29-12.48-59.802 23 30.95Zm0 0"/><path fill="#202215" d="m348.531 204.445-22.261 2.676 11.585-19.95ZM326.27 207.121l22.261-2.676-11.781 14.899Zm0 0"/><path fill="#202215" d="m357.21 178.102-8.679 26.343-10.676-17.273ZM326.27 207.121l-4.961 17.324-15.856-7.32Zm0 0"/><path fill="#202215" d="m321.309 224.445 4.96-17.324 10.481 12.223Zm0 0"/><path fill="#953b3b" d="m321.309 224.445-20.762 16.926 4.906-24.246Zm0 0"/><path fill="#202215" d="m321.309 224.445 15.441-5.101.781 14.96Zm0 0"/><path fill="#ded684" d="m317.617 250.156 3.692-25.71 16.222 9.859Zm0 0"/><path fill="#202215" d="m336.75 219.344 14.055 5.574-13.274 9.387ZM287.879 272.816l-1.516 23.122-25.062-12.997ZM280.375 199.313l-8.594-25.16 16.735 5.343ZM262.5 215.102l17.918 5.574-28.125 28.437Zm0 0"/><path fill="#ded684" d="m262.5 215.102-44.871-14.215 27.476-10.465ZM217.629 200.887l44.871 14.215-43.035.386Zm0 0"/><path fill="#ded684" d="m219.465 215.488 43.035-.386-20.035 31.335Zm0 0"/><path fill="#d1bb77" d="m262.5 215.102-10.207 34.011-9.828-2.675Zm0 0"/><path fill="#202215" d="m275.11 250.398 12.769 22.418-26.117-8.656ZM356.035 250.223 384 214.66v67.36ZM329.21 289.125l6.603-36.922 20.222-1.98Zm0 0"/><path fill="#202215" d="m335.813 252.203-6.602 36.922-11.594-38.969Zm0 0"/><path fill="#cbad71" d="m231.824 175.613 13.203 2.528.078 12.28Zm0 0"/><path fill="#dbce81" d="m217.629 200.887 14.195-25.274 13.281 14.809Zm0 0"/><path fill="#202215" d="m245.027 178.14-13.203-2.527 3.504-14.144Zm0 0"/><path fill="#ded684" d="m224.29 150.027-20.505-3.925 17.32-17.461Zm0 0"/><path fill="#9a4741" d="m217.672 170.977 6.617-20.95 11.04 11.442Zm0 0"/><path fill="#a45c4b" d="m217.672 170.977 14.152 4.636-14.195 25.274Zm0 0"/><path fill="#202215" d="m231.824 175.613-14.152-4.636 17.656-9.508Zm0 0"/><path fill="#ded684" d="m217.672 170.977-.043 29.91-32.566 6.586Zm0 0"/><path fill="#ded584" d="m190.758 166.938 26.914 4.039-32.61 36.496Zm0 0"/><path fill="#ded584" d="m203.785 146.102 13.887 24.875-26.914-4.04ZM224.29 150.027l-6.618 20.95-13.887-24.875Zm0 0"/><path fill="#202215" d="m350.082 151.422 7.129 26.68-24.555-8.782Zm0 0"/><path fill="#ded584" d="m315.148 148.523 17.508 20.797-21.062-4.78Zm0 0"/><path fill="#202215" d="m332.656 169.32-6.582 14.547-14.48-19.328Zm0 0"/><path fill="#ded684" d="m304.758 104.496 5.949 11.137-7.344 5.055Zm0 0"/><path fill="#953c3c" d="m278.621 114.86 26.137-10.364-1.395 16.192Zm0 0"/><path fill="#963c3c" d="m264.098 142.91 14.523-28.05 11.836 16.425Zm0 0"/><path fill="#202215" d="m315.148 148.523-51.05-5.613 26.359-11.625Zm0 0"/><path fill="#963c3c" d="m264.098 142.91-6.782-28.394 21.305.343Zm0 0"/><path fill="#d6c47c" d="m249.871 161.434 14.227-18.524 7.683 31.242Zm0 0"/><path fill="#202215" d="m264.098 142.91 51.05 5.613-43.367 25.63ZM384 214.66l-26.79-36.558 26.79-29.66ZM38.672 319.074 0 344.707v-51.812ZM20.336 384l21.434-10.164 2.632 10.156ZM39.23 352.883 0 344.707l38.672-25.633Zm0 0"/><path fill="#202215" d="m42.852 289.098 38.554 1.957-42.734 28.02ZM81.406 291.055l-17.691 43.39-25.043-15.37Zm0 0"/><path fill="#ded684" d="m93.281 384 48.313-35.824L161.168 384ZM100.973 354.32 93.28 384l-7.066-24.562ZM93.281 384l7.692-29.68 40.62-6.144Zm0 0"/><path fill="#ded684" d="m141.594 348.176-40.621 6.144 4.87-18.554Zm0 0"/><path fill="#d9cb7f" d="m129.5 320.852 45.676-30.985-33.582 58.309Zm0 0"/><path fill="#caab70" d="m129.5 320.852-9.516-30.352 55.192-.633Zm0 0"/><path fill="#ddd483" d="m129.5 320.852 12.094 27.324-35.75-12.41Zm0 0"/><path fill="#202215" d="m81.406 291.055-10.984-21.563 25.086-3.39ZM84.621 243.883l-14.2 25.61-17.624-22.634Zm0 0"/><path fill="#202215" d="m84.621 243.883-31.824 2.976 17.246-33.652Zm0 0"/><path fill="#ded684" d="m119.422 215.758-2.598-11.66 8.09.879Zm0 0"/><path fill="#202215" d="m98.938 220.332 17.886-16.234 2.598 11.66ZM119.797 198.094l-2.973 6.004-19.453-16.387Zm0 0"/><path fill="#ded684" d="m116.824 204.098 2.973-6.004 5.117 6.883Zm0 0"/><path fill="#202215" d="m116.824 204.098-24.719-2.047 5.266-14.34Zm0 0"/><path fill="#202215" d="m116.824 204.098-17.886 16.234-6.833-18.281Zm0 0"/><path fill="#ded684" d="m227.402 341.473 45.336 2.425L275.375 384Zm0 0"/><path fill="#ded684" d="m275.375 384-2.637-40.102 23.188 6.97Zm0 0"/><path fill="#202215" d="m261.3 282.941-3.937 18.598-12.379-8.226ZM286.363 295.938l-29 5.601 3.938-18.598Zm0 0"/><path fill="#ded684" d="M323.254 358.656 275.375 384l20.55-33.133Zm0 0"/><path fill="#202215" d="m216.023 43.73-12.75-19.746 25.872-5.722ZM203.273 23.984l-12.195 16.188-22.637-16.54Zm0 0"/><path fill="#202215" d="m191.078 40.172 12.195-16.188.582 17.215Zm0 0"/><path fill="#ded584" d="m198.188 55.766-7.11-15.594 12.777 1.027Zm0 0"/><path fill="#a05246" d="m191.078 40.172 7.11 15.594-17.333 3.437Zm0 0"/><path fill="#202215" d="m203.273 23.984 12.75 19.746-12.168-2.53ZM148.86 144.043l-9.028-18.895 19.125 4.606ZM139.832 125.148l9.027 18.895-13.695 6.762Zm0 0"/><path fill="#202215" d="m139.832 125.148-4.668 25.657-13.305-21.938Zm0 0"/><path fill="#963d3c" d="m134.402 112.281 5.43 12.867-17.973 3.72Zm0 0"/><path fill="#ded584" d="M153.793 96.602 140.02 80.164l25.714 4.281Zm0 0"/><path fill="#202215" d="m167.508 109.703-13.715-13.101 11.941-12.157ZM166.29 48.445l14.565 10.758-15.12 25.242ZM150.074 54.719l16.215-6.274-.555 36ZM191.078 40.172l-24.789 8.273 2.152-24.812ZM166.29 48.445l24.788-8.273-10.223 19.031Zm0 0"/><path fill="#994440" d="m213.973 60.79 2.05-17.06 8.305 27.403Zm0 0"/><path fill="#ddd383" d="m213.973 60.79-15.786-5.024 5.668-14.567Zm0 0"/><path fill="#9d4b43" d="m216.023 43.73-2.05 17.06-10.118-19.59Zm0 0"/><path fill="#202215" d="m198.45 72.582 15.523-11.793 10.355 10.344Zm0 0"/><path fill="#ded684" d="m213.973 60.79-15.524 11.792-.262-16.816Zm0 0"/><path fill="#202215" d="m204.402 87.023-5.953-14.441 25.88-1.45Zm0 0"/><path fill="#202215" d="m183.79 86.688 14.66-14.106 5.952 14.441ZM198.45 72.582l-14.66 14.106-2.935-27.485Zm0 0"/><path fill="#ded584" d="m198.188 55.766.261 16.816-17.594-13.379Zm0 0"/><path fill="#202215" d="m245.027 178.14-9.699-16.671 14.543-.035ZM204.402 87.023l7.141 15.317-20.29 3.336ZM222.742 88.41l-11.199 13.93-7.14-15.317Zm0 0"/><path fill="#202215" d="m229.82 108.879-18.277-6.54 11.2-13.929Zm0 0"/><path fill="#b37a59" d="m235.328 161.469 8.899-19.79 5.644 19.755Zm0 0"/><path fill="#2d2519" d="m244.227 141.68-8.899 19.789-11.039-11.442Zm0 0"/><path fill="#9b4841" d="m68.047 95.379 22.433 2.219-24.296 14.539Zm0 0"/><path fill="#202215" d="M73.438 64.25 69.91 83.383 47.55 76.41ZM68.047 95.379l1.863-11.996 20.57 14.215ZM4.8 87.203l19.731 33.77L0 149.527ZM4.8 87.203l22.743-17.348 4.96 17.282ZM27.543 69.855l-6.027-24.457 13.925 15.77Zm0 0"/><path fill="#202215" d="m47.55 76.41-20.007-6.555 7.898-8.687Zm0 0"/><path fill="#202215" d="m27.543 69.855 20.008 6.555-15.047 10.727ZM27.543 69.855 4.801 87.203l16.715-41.805Zm0 0"/><path fill="#ded684" d="m145.918 188.766 1.352 27.48-22.356-11.27Zm0 0"/><path fill="#ded684" d="m185.063 207.473-37.793 8.773-1.352-27.48Zm0 0"/><path fill="#ded684" d="m147.27 216.246-27.848-.488 5.492-10.781ZM119.422 215.758l27.848.488-7.11 20.149Zm0 0"/><path fill="#ded584" d="m147.27 216.246 30.113 18.805-37.223 1.344Zm0 0"/><path fill="#ded684" d="m147.27 216.246 37.792-8.773-7.68 27.578ZM90.48 97.598l23.133 8.562-47.43 5.977Zm0 0"/><path fill="#963d3c" d="m113.613 106.16-25.355 22.774-22.074-16.797Zm0 0"/><path fill="#202215" d="m88.258 128.934 25.355-22.774 8.246 22.707ZM179.797 148.727l-.442 17.613-12.421-.27Zm0 0"/><path fill="#202215" d="m148.86 144.043 30.937 4.684-12.863 17.343Zm0 0"/><path fill="#d8ca7e" d="m158.957 129.754 20.84 18.973-30.938-4.684Zm0 0"/><path fill="#202215" d="m179.355 166.34.442-17.613 10.96 18.21ZM23.398 209.879l2.2-31.027 21.03 14.476ZM0 194.7l23.398 15.179L0 237.574Zm0 0"/><path fill="#202215" d="M23.398 209.879 0 194.699l25.598-15.847Zm0 0"/><path fill="#953b3b" d="m48.328 214.93-24.93-5.051 23.23-16.55Zm0 0"/><path fill="#202215" d="m0 237.574 23.398-27.695 29.399 36.98Zm0 0"/><path fill="#37271c" d="m23.398 209.879 24.93 5.05 4.469 31.93Zm0 0"/><path fill="#98413e" d="m78.488 132.086-21.925 7.617.136-11.144Zm0 0"/><path fill="#ded684" d="M78.488 132.086 56.7 128.559l9.485-16.422Zm0 0"/><path fill="#963c3c" d="m88.258 128.934-9.77 3.152-12.304-19.95Zm0 0"/><path fill="#ded684" d="m41.184 148.875-3.102-31.469 18.617 11.153Zm0 0"/><path fill="#943c3b" d="m38.082 117.406 28.102-5.27-9.485 16.423Zm0 0"/><path fill="#ded684" d="M332.047 92.734 314.852 69.66l15.691-10.11Zm0 0"/><path fill="#ded684" d="m314.852 69.66-4.239-16.012 19.93 5.903Zm0 0"/><path fill="#c6a26c" d="m117.566 267.816 21.102-3.535-18.684 26.219Zm0 0"/><path fill="#202215" d="m117.566 267.816-12.957 22.602-9.101-24.316ZM117.566 267.816l2.418 22.684-15.375-.082Zm0 0"/><path fill="#ded584" d="m177.383 235.05 36.824 58.067-39.031-3.25Zm0 0"/><path fill="#ded484" d="m138.668 264.281 38.715-29.23-2.207 54.816Zm0 0"/><path fill="#a55d4b" d="m204.96 229.762 9.247 63.355-36.824-58.066Zm0 0"/><path fill="#d8c97e" d="m204.96 229.762 26.985 45.527-17.738 17.828Zm0 0"/><path fill="#dcd182" d="m231.945 275.29-26.984-45.528 14.504-14.274Zm0 0"/><path fill="#202215" d="m384 214.66-35.469-10.215 8.68-26.343ZM356.035 250.223l-5.23-25.305L384 214.66ZM356.035 250.223l-20.223 1.98 1.72-17.898Zm0 0"/><path fill="#202215" d="m350.805 224.918 5.23 25.305-18.504-15.918Zm0 0"/><path fill="#ded684" d="m309.137 192.52-14.793 8.507-5.828-21.53Zm0 0"/><path fill="#202215" d="m294.344 201.027-13.969-1.714 8.14-19.817Zm0 0"/><path fill="#953c3c" d="m294.344 201.027 14.793-8.507-3.684 24.605Zm0 0"/><path fill="#202215" d="m280.418 220.676 13.926-19.649 11.11 16.098Zm0 0"/><path fill="#202215" d="m280.375 199.313 13.969 1.714-13.926 19.649Zm0 0"/><path fill="#202215" d="m267.078 206.813 13.297-7.5.043 21.363Zm0 0"/><path fill="#202215" d="m262.5 215.102 4.578-8.29 13.34 13.864Zm0 0"/><path fill="#202215" d="m280.375 199.313-13.297 7.5 4.703-32.66Zm0 0"/><path fill="#ded684" d="m271.781 174.152-4.703 32.66-21.973-16.39ZM267.078 206.813l-4.578 8.289-17.395-24.68Zm0 0"/><path fill="#202215" d="m300.547 241.371-12.668 31.445-12.77-22.418ZM300.547 241.371l20.762-16.926-3.692 25.711ZM199.797 123.883l-20.348 4.61 11.805-22.817Zm0 0"/><path fill="#ded684" d="m199.797 123.883 3.988 22.219-24.336-17.61ZM203.785 146.102l-3.988-22.22 21.308 4.759Zm0 0"/><path fill="#202215" d="m211.543 102.34-11.746 21.543-8.543-18.207Zm0 0"/><path fill="#202215" d="m199.797 123.883 11.746-21.543 9.562 26.3ZM330.906 143.566l1.75 25.754-17.508-20.797ZM357.21 178.102l-19.355 9.07-5.199-17.852Zm0 0"/><path fill="#202215" d="m332.656 169.32 5.2 17.852-11.782-3.305Zm0 0"/><path fill="#ded684" d="m303.363 120.688 13.715 7.171-1.93 20.664Zm0 0"/><path fill="#dbcf81" d="m316.05 91.977-1.198-22.317 17.195 23.074Zm0 0"/><path fill="#963c3c" d="m263.969 91.781 14.652 23.078-21.305-.343Zm0 0"/><path fill="#d4bf7a" d="M278.621 114.86 263.97 91.78l40.789 12.715Zm0 0"/><path fill="#963d3c" d="m244.227 141.68 19.87 1.23-14.226 18.524Zm0 0"/><path fill="#202215" d="m350.082 151.422-3.363-35.688L384 148.441ZM357.21 178.102l-7.128-26.68 33.918-2.98ZM0 344.707 20.336 384H0Zm0 0"/><path fill="#ded684" d="m60.781 370.29 32.5 13.71-48.879-.008ZM93.281 384l-32.5-13.71 10.426-8.583Zm0 0"/><path fill="#202215" d="m60.781 370.29-19.011 3.546-2.54-20.953Zm0 0"/><path fill="#202215" d="m41.77 373.836 19.011-3.547-16.379 13.703Zm0 0"/><path fill="#953b3b" d="m42.852 289.098 27.57-19.606 10.984 21.563Zm0 0"/><path fill="#202215" d="m64.445 354.8-3.664 15.49-21.55-17.407ZM60.781 370.29l3.664-15.49 6.762 6.907Zm0 0"/><path fill="#202215" d="m64.445 354.8 15.63-1.01-8.868 7.917ZM80.074 353.79l-15.629 1.01-.73-20.355ZM97.176 314.418l-16.114 17.527.344-40.89ZM119.984 290.5l-6.625 24.871-8.75-24.953Zm0 0"/><path fill="#d9cc7f" d="m129.5 320.852-16.14-5.48 6.624-24.872Zm0 0"/><path fill="#202215" d="m113.36 315.371-16.184-.953 7.433-24Zm0 0"/><path fill="#ddd483" d="m113.36 315.371 16.14 5.48-23.656 14.915Zm0 0"/><path fill="#202215" d="m84.621 243.883 14.317-23.551 25.039 22.625Zm0 0"/><path fill="#ded684" d="m253.133 311.406 19.605 32.492-45.336-2.425Zm0 0"/><path fill="#202215" d="m281.645 321.09 22.472-7.504-5.805 15.758Zm0 0"/><path fill="#202215" d="m281.645 321.09 4.718-25.152 17.754 17.648ZM281.645 321.09l-24.282-19.55 29-5.603Zm0 0"/><path fill="#ded684" d="M345.547 384h-70.172l47.879-25.344ZM310.527 338.273l12.727 20.383-27.328-7.789Zm0 0"/><path fill="#202215" d="m116.598 66.86-1.711-12.247 35.187.106ZM232.598 21.078 216.023 43.73l13.122-25.468ZM232.598 21.078l-3.453-2.816L248.672 5.66Zm0 0"/><path fill="#ded684" d="m261.18 29.426-28.582-8.348L248.672 5.66Zm0 0"/><path fill="#bc8e62" d="m232.598 21.078 28.582 8.348-15.13 12.105Zm0 0"/><path fill="#202215" d="m216.023 43.73 16.575-22.652 13.453 20.453ZM139.832 125.148l8.371-8.07 10.754 12.676Zm0 0"/><path fill="#212215" d="m148.203 117.078-8.371 8.07-5.43-12.867Zm0 0"/><path fill="#202215" d="m148.203 117.078 19.305-7.375-8.551 20.05Zm0 0"/><path fill="#ded684" d="m148.203 117.078 5.59-20.476 13.715 13.101Zm0 0"/><path fill="#ddd383" d="m148.203 117.078-13.8-4.797 5.617-32.117Zm0 0"/><path fill="#d9cc7f" d="m153.793 96.602-5.59 20.476-8.183-36.914Zm0 0"/><path fill="#202215" d="m114.887 54.613 32.531-17.785 2.656 17.89Zm0 0"/><path fill="#202215" d="m147.418 36.828 18.871 11.617-16.215 6.274ZM166.29 48.445l-18.872-11.617 21.023-13.195ZM147.418 36.828l-32.531 17.785 1.511-26.394ZM147.418 36.828l-31.02-8.61 30.704-17.363Zm0 0"/><path fill="#202215" d="m168.441 23.633-21.023 13.195-.316-25.973Zm0 0"/><path fill="#ded484" d="m221.105 128.64-9.562-26.3 18.277 6.539Zm0 0"/><path fill="#d4c07a" d="m221.105 128.64 8.715-19.761 17.676 13.918Zm0 0"/><path fill="#ddd483" d="m247.496 122.797-23.207 27.23-3.184-21.386Zm0 0"/><path fill="#ded684" d="m247.496 122.797-3.27 18.883-19.937 8.347Zm0 0"/><path fill="#202215" d="m40.531 92.45 29.38-9.067-1.864 11.996Zm0 0"/><path fill="#202215" d="m40.531 92.45 27.516 2.929-1.863 16.758ZM47.55 76.41l-7.019 16.04-8.027-5.313Zm0 0"/><path fill="#202215" d="m69.91 83.383-29.379 9.066 7.02-16.039Zm0 0"/><path fill="#222215" d="m203.785 146.102-23.988 2.625-.348-20.235Zm0 0"/><path fill="#c9a96f" d="m179.797 148.727-20.84-18.973 20.492-1.262Zm0 0"/><path fill="#d3bf79" d="m179.797 148.727 23.988-2.625-13.027 20.835Zm0 0"/><path fill="#202215" d="m24.531 120.973 16.653 27.902-16.454 3.113Zm0 0"/><path fill="#202215" d="m24.531 120.973 13.551-3.567 3.102 31.469ZM352.195 79.742l5.528-34.281L384 81.574Zm0 0"/><path fill="#9c4942" d="m138.668 264.281-21.102 3.535 6.41-24.859Zm0 0"/><path fill="#202215" d="m117.566 267.816-22.058-1.714 28.469-23.145ZM287.879 272.816l12.668-31.445 17.07 8.785Zm0 0"/><path fill="#202215" d="m329.21 289.125-41.331-16.309 29.738-22.66Zm0 0"/><path fill="#202215" d="m286.363 295.938 1.516-23.122 41.332 16.309Zm0 0"/><path fill="#202215" d="m304.117 313.586-17.754-17.649 42.848-6.812ZM330.906 143.566l19.176 7.856-17.426 17.898ZM317.078 127.86l13.828 15.706-15.758 4.957Zm0 0"/><path fill="#202215" d="m350.082 151.422-19.176-7.856 15.813-27.832ZM330.906 143.566l-13.828-15.707 29.64-12.125Zm0 0"/><path fill="#ded684" d="m310.707 115.633 6.371 12.226-13.715-7.171Zm0 0"/><path fill="#202215" d="M39.23 352.883 20.336 384 0 344.707ZM64.445 354.8l-25.215-1.917 24.485-18.438ZM63.715 334.445 39.23 352.883l-.558-33.809Zm0 0"/><path fill="#ded684" d="M86.215 359.438 93.28 384l-22.074-22.293Zm0 0"/><path fill="#ddd483" d="m80.074 353.79 6.14 5.647-15.007 2.27Zm0 0"/><path fill="#202215" d="m81.063 331.945-17.348 2.5 17.691-43.39Zm0 0"/><path fill="#202215" d="m81.063 331.945-.989 21.844-16.36-19.344ZM100.938 334.285l12.421-18.914-7.515 20.395Zm0 0"/><path fill="#202215" d="m113.36 315.371-12.422 18.914-3.762-19.867Zm0 0"/><path fill="#ded684" d="m100.973 354.32-.035-20.035 4.906 1.48Zm0 0"/><path fill="#202215" d="m100.938 334.285-19.876-2.34 16.114-17.527Zm0 0"/><path fill="#a9664f" d="m214.207 293.117 19.473 16.047-6.278 32.309Zm0 0"/><path fill="#a8624e" d="m233.68 309.164-19.473-16.047 19.922 6.211Zm0 0"/><path fill="#ddd383" d="m233.68 309.164 19.453 2.242-25.73 30.067Zm0 0"/><path fill="#202215" d="M361.586 319.676 384 337.262l-17.586 1.054Zm0 0"/><path fill="#202215" d="M361.586 319.676 384 282.02v55.242ZM281.645 321.09l-28.512-9.684 4.23-9.867Zm0 0"/><path fill="#ddd483" d="m253.133 311.406 28.512 9.684-8.907 22.808Zm0 0"/><path fill="#202215" d="M366.934 353.5 384 337.262v46.703Zm0 0"/><path fill="#ded684" d="m345.547 384 21.387-30.5L384 383.965ZM349.414 353.117 345.547 384l-22.293-25.344ZM310.527 338.273l-16.972-.316 4.757-8.613Zm0 0"/><path fill="#ded684" d="m293.555 337.957-11.91-16.867 16.668 8.254Zm0 0"/><path fill="#ded684" d="m281.645 321.09 11.91 16.867-20.817 5.941ZM272.738 343.898l20.817-5.941 2.37 12.91Zm0 0"/><path fill="#dcd282" d="m293.555 337.957 16.972.316-14.601 12.594Zm0 0"/><path fill="#9c4a42" d="m112.79 85.742 8.272-14.55 5.918 16.652Zm0 0"/><path fill="#202215" d="m121.063 71.191-8.274 14.551 3.809-18.883Zm0 0"/><path fill="#ded684" d="m121.063 71.191 18.957 8.973-13.04 7.68Zm0 0"/><path fill="#963c3c" d="m121.063 71.191 29.011-16.472-10.054 25.445Zm0 0"/><path fill="#202215" d="m121.063 71.191-4.465-4.332 33.476-12.14ZM34.445 100.18 4.801 87.203l27.703-.066ZM34.445 100.18l-9.914 20.793-19.73-33.77Zm0 0"/><path fill="#202215" d="m40.531 92.45-6.086 7.73-1.941-13.043Zm0 0"/><path fill="#dbd483" d="m34.445 100.18 6.086-7.73 25.653 19.687Zm0 0"/><path fill="#ded684" d="m38.082 117.406-3.637-17.226 31.739 11.957Zm0 0"/><path fill="#ded684" d="m24.531 120.973 9.914-20.793 3.637 17.226Zm0 0"/><path fill="#202215" d="m304.117 313.586 25.094-24.461-6.738 31.54Zm0 0"/><path fill="#202215" d="m312.816 328.25-8.699-14.664 18.356 7.078Zm0 0"/><path fill="#ded684" d="m304.758 104.496 13.191 5.965-7.242 5.172Zm0 0"/><path fill="#ded684" d="m316.05 91.977 1.9 18.484-13.192-5.965Zm0 0"/><path fill="#202215" d="m317.078 127.86.871-17.4 28.77 5.274Zm0 0"/><path fill="#ded684" d="m310.707 115.633 7.242-5.172-.87 17.398Zm0 0"/><path fill="#202215" d="M41.77 373.836 20.336 384l18.894-31.117Zm0 0"/><path fill="#ded684" d="m89.195 347.3 11.743-13.015.035 20.035Zm0 0"/><path fill="#202215" d="m100.938 334.285-11.743 13.016-8.132-15.356ZM239.469 303.824l-5.34-4.496 10.855-6.015Zm0 0"/><path fill="#cfb575" d="m239.469 303.824-5.79 5.34.45-9.836Zm0 0"/><path fill="#dcd282" d="m233.68 309.164 5.789-5.34 13.664 7.582Zm0 0"/><path fill="#202215" d="m257.363 301.54-17.894 2.284 5.515-10.512Zm0 0"/><path fill="#202215" d="m253.133 311.406-13.664-7.582 17.894-2.285ZM361.586 319.676l-32.375-30.551L384 282.02Zm0 0"/><path fill="#202215" d="m329.21 289.125 32.376 30.55-19.082 6.43ZM329.21 289.125l26.825-38.902L384 282.02ZM366.414 338.316l.52 15.184-10.348-13.652ZM366.934 353.5l-.52-15.184L384 337.262Zm0 0"/><path fill="#ded684" d="m349.414 353.117 17.52.383-21.387 30.5ZM366.934 353.5l-17.52-.383 7.172-13.27ZM343.43 342.031l5.984 11.086-26.16 5.54ZM323.254 358.656l-12.727-20.383 15.153-.16Zm0 0"/><path fill="#ded684" d="m343.43 342.031-20.176 16.625 2.426-20.543Zm0 0"/><path fill="#202215" d="m310.527 338.273 2.29-10.023 12.863 9.863Zm0 0"/><path fill="#202215" d="m312.816 328.25 9.657-7.586 3.207 17.45ZM312.816 328.25l-2.289 10.023-12.214-8.93Zm0 0"/><path fill="#202215" d="m304.117 313.586 8.7 14.664-14.505 1.094ZM352.195 79.742l-5.476 35.992-14.672-23Zm0 0"/><path fill="#202215" d="M346.719 115.734 316.05 91.977l15.996.757Zm0 0"/><path fill="#202215" d="m346.719 115.734-28.77-5.273-1.898-18.484ZM81.063 331.945l8.132 15.356-9.12 6.488Zm0 0"/><path fill="#ded684" d="m89.195 347.3-2.98 12.137-6.14-5.648ZM89.195 347.3l11.778 7.02-14.758 5.118Zm0 0"/><path fill="#202215" d="m342.504 326.105.926 15.926-17.75-3.918ZM322.473 320.664l20.03 5.441-16.823 12.008Zm0 0"/><path fill="#202215" d="m342.504 326.105-20.031-5.44 6.738-31.54ZM356.586 339.848l-13.156 2.183-.926-15.926Zm0 0"/><path fill="#ded684" d="m343.43 342.031 13.156-2.183-7.172 13.27Zm0 0"/><path fill="#202215" d="m361.586 319.676-5 20.172-14.082-13.743Zm0 0"/><path fill="#202215" d="m366.414 338.316-9.828 1.532 5-20.172Zm0 0"/></svg>