<svg xmlns="http://www.w3.org/2000/svg" width="512" height="512" viewBox="0 0 384 384"><path fill="#a9b1a1" d="m291.734 69.297-23.879 28.398-16.418-59.062Zm0 0"/><path fill="#a9b2a1" d="m300.043 137.695 11.25-40.691 23.988 26.555Zm0 0"/><path fill="#a9b1a1" d="m311.293 97.004-11.25 40.691-32.188-40Zm0 0"/><path fill="#aab2a0" d="m291.734 69.297 19.559 27.707-43.438.691Zm0 0"/><path fill="#a9b1a1" d="m311.293 97.004-19.559-27.707 31.606-7.813Zm0 0"/><path fill="#565e68" d="M22.695 146.691-.004 215.88l-.023-95.566Zm0 0"/><path fill="#aeae99" d="m33.488 111.23-33.515 9.082.07-30.445Zm0 0"/><path fill="#a9b2a1" d="M338.648 169.09 384 136.527v86.73Zm0 0"/><path fill="#a9b1a1" d="m328.816 221.934 9.832-52.844L384 223.258Zm0 0"/><path fill="#acb29e" d="m156.113 69.227-37.008 18.691 17.875-41.313Zm0 0"/><path fill="#a9b1a0" d="m267.855 97.695-32.91-42.918 16.493-16.144Zm0 0"/><path fill="#a9b1a1" d="m349.3 89.695-38.007 7.309 12.047-35.52Zm0 0"/><path fill="#a8b1a1" d="m300.39 33.016-8.656 36.28-40.296-30.663Zm0 0"/><path fill="#a9b2a1" d="m163.184 183.754 9.414-19.527-1.825 20.75Zm0 0"/><path fill="#be8666" d="M108.004 46.848 97.223.02l35.32 27.394Zm0 0"/><path fill="#afb29b" d="m154.285 126.758 22.863-1.192-2.78 14.454Zm0 0"/><path fill="#a9b2a1" d="m252.64 157.656 41.387 30.063-41.832 14.351ZM300.043 137.695l-47.402 19.961 15.214-59.96Zm0 0"/><path fill="#aab2a0" d="m252.64 157.656 47.403-19.96-6.016 50.023Zm0 0"/><path fill="#a9b2a1" d="m-.008 282.598 60.02-33.766-.492 37.797Zm0 0"/><path fill="#778986" d="m185.355 364.7 23.122 19.3h-37.832Zm0 0"/><path fill="#cd683d" d="m-.027 120.313 33.515-9.083-10.793 35.461Zm0 0"/><path fill="#c27e5b" d="M52.39-.004 97.224.02 67.227 39.227Zm0 0"/><path fill="#bf8463" d="m97.223.02 10.78 46.828-40.776-7.621Zm0 0"/><path fill="#cc683d" d="m52.39-.004-9.265 46.34L-.004 0Zm0 0"/><path fill="#cc683e" d="m43.125 46.336 9.266-46.34 14.836 39.23Zm0 0"/><path fill="#aab2a1" d="m300.043 137.695 35.238-14.136 3.367 45.53Zm0 0"/><path fill="#b1b299" d="m362.035 255.422-33.219-33.488L384 223.258Zm0 0"/><path fill="#778986" d="m299.86 0-48.423 38.633-28.57-38.645Zm0 0"/><path fill="#a8b1a1" d="m222.867-.012-32.215 16.36L165.797-.016Zm0 0"/><path fill="#a9b1a1" d="m177.68 32.016 12.972-15.668-.199 15.672Zm0 0"/><path fill="#e3b569" d="m187.59 39.36-9.91-7.344 12.773.004Zm0 0"/><path fill="#a9b1a1" d="M177.68 32.016 165.797-.016l24.855 16.364Zm0 0"/><path fill="#2e222f" d="m200.094 61.16 1.87 19.23-20.651-16.66Zm0 0"/><path fill="#abaf9d" d="m176.191 44.137-20.078 25.09-19.133-22.622Zm0 0"/><path fill="#abb19e" d="m156.113 69.227 20.078-25.09 5.121 19.593Zm0 0"/><path fill="#a9b1a0" d="m177.68 32.016-1.489 12.12-39.21 2.47Zm0 0"/><path fill="#f2b156" d="m176.191 44.137 1.489-12.121 9.91 7.343Zm0 0"/><path fill="#aab2a0" d="m162.012 101.805-7.727 24.953-35.18-38.84Zm0 0"/><path fill="#abb29f" d="m156.113 69.227 5.899 32.578-42.907-13.887Zm0 0"/><path fill="#ebb059" d="m197.297 39.648-9.707-.289 2.863-7.34Zm0 0"/><path fill="#2e222f" d="m200.094 61.16-8.992-11.426 15.441.856Zm0 0"/><path fill="#2e222f" d="m191.102 49.734 6.195-10.086 9.246 10.942Zm0 0"/><path fill="#2e222f" d="m197.297 39.648-6.195 10.086-3.512-10.375ZM191.102 49.734l8.992 11.426-18.781 2.57ZM176.191 44.137l14.91 5.597-9.788 13.996Zm0 0"/><path fill="#2e222f" d="m191.102 49.734-14.91-5.597 11.398-4.778Zm0 0"/><path fill="#a9b2a1" d="m252.64 157.656-25.964-22.488 41.18-37.473ZM226.676 135.168l-3.946-58.656 45.125 21.183Zm0 0"/><path fill="#778986" d="M384 47.707v29.2L355.191 50Zm0 0"/><path fill="#a9b1a1" d="m355.191 50-5.89 39.695-25.961-28.21Zm0 0"/><path fill="#a9b1a1" d="M333.172 26.063 355.192 50 323.34 61.484ZM311.293 97.004l38.008-7.309-14.02 33.864Zm0 0"/><path fill="#778986" d="m299.86 0 .53 33.016-48.952 5.617Zm0 0"/><path fill="#aeb29d" d="m72.457 114.676 46.648-26.758-6.992 34.113Zm0 0"/><path fill="#b5b396" d="m72.457 114.676.785-37.48 45.863 10.722Zm0 0"/><path fill="#f9b854" d="m33.488 111.23 38.969 3.446-4.812 36.074Zm0 0"/><path fill="#b9b291" d="m72.457 114.676-38.969-3.446 11.563-29.468Zm0 0"/><path fill="#f3b85b" d="m157.523 153.906-3.238-27.148 20.082 13.262Zm0 0"/><path fill="#aab2a0" d="m154.453 166.148 18.145-1.921-9.414 19.527Zm0 0"/><path fill="#a9b2a1" d="m24.746 217.703-24.75-1.824 22.7-69.188Zm0 0"/><path fill="#f6b857" d="m22.695 146.691 10.793-35.46 34.157 39.519Zm0 0"/><path fill="#a9b2a1" d="m168.32 202.727-5.136-18.973 7.59 1.223Zm0 0"/><path fill="#cc683d" d="m67.227 39.227 6.015 37.968-30.117-30.86Zm0 0"/><path fill="#aeaa96" d="m119.105 87.918-11.101-41.07 28.976-.243Zm0 0"/><path fill="#2e222f" d="m177.148 125.566 7 13.649-9.78.805ZM184.148 139.215l5.477-12.39 7.36 11.257ZM189.625 126.824l-5.477 12.39-7-13.648Zm0 0"/><path fill="#fab854" d="m100.64 287.004-5.296 29.012-35.824-29.387Zm0 0"/><path fill="#f9b855" d="m95.344 316.016 5.297-29.012 19.457 14.976Zm0 0"/><path fill="#fab854" d="m113.559 318.457-18.215-2.441 24.754-14.036Zm0 0"/><path fill="#778986" d="m150.648 374.59 19.997 9.41-22.083.031Zm0 0"/><path fill="#2e222f" d="M363.066 370.18 384 365.277V384ZM384 365.277l-19.469-8.445L384 353.301Zm0 0"/><path fill="#2e222f" d="M364.531 356.832 384 365.277l-20.934 4.903ZM337.852 384.004l25.214-13.824L384 384Zm0 0"/><path fill="#c8b484" d="m362.5 344.203-19.996-23.914 18.031-31.434Zm0 0"/><path fill="#2f232f" d="m-.031 327.871.035-.07Zm0 0"/><path fill="#778986" d="m208.477 384 27.214-11.746 7.196 11.672ZM205.738 348.074l6.235 1.008-7.743 9.715Zm0 0"/><path fill="#cc683d" d="M43.125 46.336-.012 58.75-.004 0Zm0 0"/><path fill="#c96e46" d="m43.125 46.336 30.117 30.86-28.191 4.566Zm0 0"/><path fill="#cc683d" d="m43.125 46.336 1.926 35.426L-.012 58.75Zm0 0"/><path fill="#a9b2a1" d="m252.195 202.07 41.832-14.351-5.07 50.219Zm0 0"/><path fill="#a9b1a1" d="M384 76.906v59.621l-34.7-46.832Zm0 0"/><path fill="#a9b1a1" d="m384 136.527-48.719-12.968 14.02-33.864Zm0 0"/><path fill="#a9b2a1" d="M335.281 123.559 384 136.527l-45.352 32.563Zm0 0"/><path fill="#a8b0a1" d="M205.344 31.41 222.867-.012l28.57 38.645Zm0 0"/><path fill="#a8b1a1" d="m205.344 31.41-14.692-15.062 32.215-16.36Zm0 0"/><path fill="#a9b1a1" d="M234.945 54.777 205.344 31.41l46.094 7.223Zm0 0"/><path fill="#b8987b" d="m190.652 16.348 14.692 15.062-14.89.61Zm0 0"/><path fill="#e3b165" d="m205.344 31.41-8.047 8.238-6.844-7.628Zm0 0"/><path fill="#a9b1a0" d="m205.344 31.41 29.601 23.367-28.402-4.187Zm0 0"/><path fill="#f6b555" d="m197.297 39.648 8.047-8.238 1.199 19.18Zm0 0"/><path fill="#8b5f66" d="m165.797-.016-33.254 27.43L97.223.02Zm0 0"/><path fill="#a9b1a1" d="m177.68 32.016-45.137-4.602 33.254-27.43Zm0 0"/><path fill="#a9b0a0" d="m132.543 27.414 45.137 4.602-40.7 14.59Zm0 0"/><path fill="#aea994" d="m108.004 46.848 24.539-19.434 4.437 19.191Zm0 0"/><path fill="#aab1a0" d="m179.668 89.168-17.656 12.637-5.899-32.578Zm0 0"/><path fill="#acb19e" d="m179.668 89.168-23.555-19.941 25.2-5.497Zm0 0"/><path fill="#2e222f" d="m179.668 89.168 22.297-8.777-12.153 17.898ZM201.965 80.39l-22.297 8.778 1.644-25.438ZM191.43 113.883l-12.121-5.852 10.504-9.742Zm0 0"/><path fill="#2e222f" d="m179.309 108.031.359-18.863 10.144 9.121Zm0 0"/><path fill="#aeb29d" d="m179.668 89.168-.36 18.863-17.296-6.226Zm0 0"/><path fill="#abb29f" d="m162.012 101.805 13.484 14.125-21.21 10.828Zm0 0"/><path fill="#abb2a0" d="m179.309 108.031-3.813 7.899-13.484-14.125Zm0 0"/><path fill="#acb29e" d="m175.496 115.93 1.652 9.636-22.863 1.192Zm0 0"/><path fill="#b1b299" d="M222.73 76.512 200.094 61.16l6.449-10.57Zm0 0"/><path fill="#aab1a0" d="M234.945 54.777 222.73 76.512 206.543 50.59Zm0 0"/><path fill="#afb29b" d="m222.73 76.512-20.765 3.879-1.871-19.23Zm0 0"/><path fill="#a9b1a1" d="m222.73 76.512 12.215-21.735 32.91 42.918ZM384 76.906l-34.7 12.79L355.192 50Zm0 0"/><path fill="#778986" d="M355.191 50 384 0v47.707ZM333.172 26.063l-32.781 6.953L299.859 0Zm0 0"/><path fill="#778986" d="M333.172 26.063 299.859 0H384Zm0 0"/><path fill="#778986" d="m355.191 50-22.02-23.937L384 0Zm0 0"/><path fill="#a8b1a1" d="m300.39 33.016 32.782-6.953-9.832 35.421Zm0 0"/><path fill="#a8b1a1" d="m291.734 69.297 8.657-36.281 22.949 28.468Zm0 0"/><path fill="#bcb38f" d="m73.242 77.195-.785 37.48-27.406-32.913Zm0 0"/><path fill="#2e222f" d="m172.598 164.227 11.57 6.101-13.395 14.649Zm0 0"/><path fill="#2e222f" d="m183.98 159.691.188 10.637-11.57-6.101Zm0 0"/><path fill="#fab854" d="m218.797 150.098 7.879-14.93 25.965 22.488Zm0 0"/><path fill="#f9b855" d="m157.523 153.906-34.058.739 30.82-27.887Zm0 0"/><path fill="#adb29d" d="m123.465 154.645 34.058-.739-3.07 12.242Zm0 0"/><path fill="#f7b857" d="m154.453 166.148 3.07-12.242 15.075 10.32Zm0 0"/><path fill="#acb29e" d="m150.871 222.23 14.656-8.496-3.226 17.344Zm0 0"/><path fill="#2e222f" d="m177.184 199.523-6.41-14.546 21.43 9.386ZM177.184 199.523l-8.864 3.204 2.453-17.75Zm0 0"/><path fill="#b9a384" d="m73.242 77.195 34.762-30.347 11.101 41.07Zm0 0"/><path fill="#cb6c42" d="m67.227 39.227 40.777 7.62-34.762 30.348Zm0 0"/><path fill="#2e222f" d="m190.668 150.176-6.52-10.961 12.836-1.133Zm0 0"/><path fill="#fab854" d="m175.203 149.277-17.68 4.63 16.844-13.887Zm0 0"/><path fill="#2e222f" d="m184.148 139.215-8.945 10.062-.836-9.257Zm0 0"/><path fill="#2e222f" d="m175.203 149.277 8.777 10.414-11.382 4.536Zm0 0"/><path fill="#f9b855" d="m157.523 153.906 17.68-4.629-2.605 14.95Zm0 0"/><path fill="#2e222f" d="m175.203 149.277 15.465.899-6.688 9.515Zm0 0"/><path fill="#2e222f" d="m190.668 150.176-15.465-.899 8.945-10.062ZM189.625 126.824l15.598-2.23-8.239 13.488Zm0 0"/><path fill="#302531" d="m189.625 126.824 1.805-12.941 13.793 10.71Zm0 0"/><path fill="#2e222f" d="m191.43 113.883 12.746-11.45 1.047 22.16ZM216.016 272.77l-11.485-6.598 6.961-15.152Zm0 0"/><path fill="#a9b2a1" d="m252.64 157.656-.445 44.414-22.812-25.113Zm0 0"/><path fill="#2e222f" d="m120.32 368.414-16.695-.633 10.969-18.441ZM103.625 367.781l16.695.633-8.12 15.59ZM52.734 353.402l7.196-3.425-1.367 12.128Zm0 0"/><path fill="#fab854" d="m62.887 343.45-2.957 6.527-9.684-4.422Zm0 0"/><path fill="#2e222f" d="m59.93 349.977-7.196 3.425-2.488-7.847Zm0 0"/><path fill="#fab853" d="m59.52 286.629-7.66 41.394-25.755-13.16Zm0 0"/><path fill="#2e222f" d="m47.348 384.004-5.586-25.848 16.8 3.95ZM41.762 358.156l10.972-4.754 5.828 8.703Zm0 0"/><path fill="#2e222f" d="m18.074 364.313 23.688-6.157 5.586 25.848Zm0 0"/><path fill="#fab854" d="m59.93 349.977 10.84 7.574-12.207 4.554Zm0 0"/><path fill="#2e2330" d="m103.625 367.781-8.45-9.66 19.419-8.781Zm0 0"/><path fill="#2e222f" d="m95.176 358.121 10.078-14.64 9.34 5.859Zm0 0"/><path fill="#788a87" d="m170.645 384-19.997-9.41 12.086-10.817Zm0 0"/><path fill="#2e222f" d="m112.2 384.004 19.034-10.344 17.328 10.371Zm0 0"/><path fill="#778986" d="m131.234 373.66 19.414.93-2.085 9.441Zm0 0"/><path fill="#2e222f" d="m120.32 368.414 10.914 5.246-19.035 10.344Zm0 0"/><path fill="#f9b855" d="m113.559 318.457 7.87 2.309L112 334.71Zm0 0"/><path fill="#2e222f" d="m121.43 320.766 10.047 11.445-19.477 2.5Zm0 0"/><path fill="#778986" d="m185.355 364.7-14.71 19.3-7.91-20.227Zm0 0"/><path fill="#b0b29a" d="m180.797 290.195 8.695-8.91 4.899 9.29Zm0 0"/><path fill="#2e222f" d="m347.54 344.117 16.991 12.715-19.933 3.863Zm0 0"/><path fill="#2e222f" d="m364.531 356.832-16.992-12.715 14.961.086Zm0 0"/><path fill="#cfb57c" d="m347.54 344.117-5.036-23.828 19.996 23.914Zm0 0"/><path fill="#2e222f" d="m364.531 356.832 10.617-11.223 8.852 7.692Zm0 0"/><path fill="#2e222f" d="m375.148 345.61-10.617 11.222-2.031-12.629ZM384 353.3l-8.852-7.69 8.852-4.25ZM364.531 356.832l-1.465 13.348-18.468-9.485ZM376.488 335.438l7.528-1.22-.016 7.141Zm0 0"/><path fill="#2e222f" d="m375.148 345.61 1.34-10.173L384 341.36Zm0 0"/><path fill="#2e222f" d="m376.488 335.438-1.34 10.171-12.648-1.406Zm0 0"/><path fill="#d4b578" d="m376.488 335.438-13.988 8.765-1.965-55.348Zm0 0"/><path fill="#dbb672" d="m384.016 334.219-7.528 1.219-15.953-46.583Zm0 0"/><path fill="#2e222f" d="m-.031 327.871 13.742 21.754L0 357.235Zm0 0"/><path fill="#fab854" d="M26.105 314.863-.008 282.598l59.528 4.03Zm0 0"/><path fill="#fab853" d="M26.105 314.863.004 327.801l-.012-45.203Zm0 0"/><path fill="#b2b298" d="m130.598 270.973 18.816-4.774-2.906 13.332Zm0 0"/><path fill="#f7b856" d="m149.414 266.2-18.816 4.773 10.488-20.18Zm0 0"/><path fill="#f8b856" d="m130.598 270.973-16.07-41.73 26.558 21.55Zm0 0"/><path fill="#f2b85b" d="m114.527 229.242 16.07 41.73-29.956 16.032Zm0 0"/><path fill="#afb29b" d="M24.746 217.703-.008 282.598l.004-66.72Zm0 0"/><path fill="#bcaf8b" d="m-.008 282.598 24.754-64.895 35.266 31.129Zm0 0"/><path fill="#2e222f" d="m0 357.234 18.074 7.079-18.07 19.69Zm0 0"/><path fill="#2e222f" d="m18.074 364.313 29.274 19.69H.004ZM18.074 364.313 0 357.234l13.71-7.609ZM212.45 343.477l11.062 6.832-11.54-1.227Zm0 0"/><path fill="#788a87" d="m235.691 372.254-16.02-10.942 20.052-2.554Zm0 0"/><path fill="#788a87" d="m219.672 361.313 16.02 10.94L208.476 384ZM211.973 349.082l7.699 12.23-15.442-2.515Zm0 0"/><path fill="#778986" d="m219.672 361.313 3.84-11.004 16.21 8.449Zm0 0"/><path fill="#778986" d="m223.512 350.309-3.84 11.003-7.7-12.23ZM252.59 373.77l-16.899-1.516 4.032-13.496Zm0 0"/><path fill="#312633" d="m252.379 357.488.21 16.282-12.866-15.012Zm0 0"/><path fill="#2e222f" d="M225.738 329.527 203.36 319.38l21.383-11.719Zm0 0"/><path fill="#778986" d="m208.477 384-23.122-19.3 18.875-5.903Zm0 0"/><path fill="#788a87" d="M219.672 361.313 208.477 384l-4.247-25.203Zm0 0"/><path fill="#a9b2a1" d="m294.027 187.719 6.016-50.024 38.605 31.395Zm0 0"/><path fill="#aeb29c" d="m360.535 288.855 1.5-33.433 21.98 78.797Zm0 0"/><path fill="#b0b29b" d="M362.035 255.422 384 223.258l.016 110.96Zm0 0"/><path fill="#adb29d" d="m222.73 76.512-18.554 25.922-2.211-22.043Zm0 0"/><path fill="#2e222f" d="m201.965 80.39 2.21 22.044-14.363-4.145Zm0 0"/><path fill="#2e222f" d="m204.176 102.434-12.746 11.449-1.618-15.594Zm0 0"/><path fill="#a9b2a1" d="m226.676 135.168-22.5-32.734 18.554-25.922Zm0 0"/><path fill="#adb29e" d="m204.176 102.434 22.5 32.734-21.453-10.574Zm0 0"/><path fill="#2e222f" d="m170.773 184.977 23.946-4.114-2.516 13.5Zm0 0"/><path fill="#2e222f" d="m184.168 170.328 10.55 10.535-23.945 4.114ZM194.719 180.863l17.054 11.024-19.57 2.476Zm0 0"/><path fill="#a9b2a1" d="m229.383 176.957-8.363-15.082 31.62-4.219Zm0 0"/><path fill="#f8b856" d="m221.02 161.875-2.223-11.777 33.844 7.558Zm0 0"/><path fill="#f9b855" d="m123.465 154.645-11.352-32.614 42.172 4.727Zm0 0"/><path fill="#abb29f" d="m154.285 126.758-42.172-4.727 6.992-34.113Zm0 0"/><path fill="#fab854" d="M112.113 122.031 67.645 150.75l4.812-36.074ZM67.645 150.75l44.468-28.719 11.352 32.614Zm0 0"/><path fill="#2e222f" d="m160.672 237.922 1.629-6.844 14.105 9.68ZM181.32 215.863l-4.136-16.34 15.02-5.16Zm0 0"/><path fill="#2e222f" d="m201.168 204.707-19.848 11.156 10.883-21.5Zm0 0"/><path fill="#f9b855" d="m218.797 150.098-12.313-12.883 20.192-2.047Zm0 0"/><path fill="#2e222f" d="m205.223 124.594 1.261 12.62-9.5.868ZM182.496 117.559l-3.187-9.528 12.12 5.852ZM182.496 117.559l-7-1.63 3.813-7.898ZM175.496 115.93l7 1.629-5.348 8.007Zm0 0"/><path fill="#2e222f" d="m182.496 117.559 7.129 9.265-12.477-1.258Zm0 0"/><path fill="#2e222f" d="m182.496 117.559 8.934-3.676-1.805 12.941ZM225.125 265.227l-9.11 7.543-4.523-21.75Zm0 0"/><path fill="#bbb390" d="m189.492 281.285 15.867-5.094-10.968 14.383Zm0 0"/><path fill="#2e232f" d="m216.016 272.77-10.657 3.421-.828-10.02Zm0 0"/><path fill="#2e222f" d="m211.492 251.02-18.215 1.828 5.196-24.602ZM193.277 252.848l18.215-1.828-6.96 15.152Zm0 0"/><path fill="#2e222f" d="m193.277 252.848-16.87-12.09 22.066-12.512Zm0 0"/><path fill="#2e222f" d="m176.406 240.758 16.871 12.09-17.074 12.03Zm0 0"/><path fill="#b2b298" d="m313.598 287.809-24.641-49.872 39.86-16.003Zm0 0"/><path fill="#cab481" d="m267.383 292.262-5.832-43.594 27.406-10.73Zm0 0"/><path fill="#b7b394" d="m313.598 287.809-46.215 4.453 21.574-54.324Zm0 0"/><path fill="#aab2a0" d="m252.195 202.07 9.356 46.598-23.567-18.215Zm0 0"/><path fill="#a9b2a1" d="m252.195 202.07-30.082-12.21 7.27-12.903Zm0 0"/><path fill="#2e222f" d="m147.906 294.527 11.051-9.945 1.106 13.695ZM160.063 298.277l3.765 21.88-18.46-4.923ZM22.66 352.223l-4.586 12.09-4.363-14.688Zm0 0"/><path fill="#fab854" d="m95.176 358.121-24.406-.57 8.171-24.168Zm0 0"/><path fill="#fab854" d="m105.254 343.48-10.078 14.641-16.235-24.738Zm0 0"/><path fill="#31222f" d="m70.77 357.55 1.867 13.821-14.074-9.266Zm0 0"/><path fill="#2e222f" d="m72.637 371.371 22.539-13.25 8.449 9.66ZM95.176 358.121l-22.54 13.25-1.866-13.82Zm0 0"/><path fill="#fab854" d="m62.887 343.45 7.883 14.1-10.84-7.573Zm0 0"/><path fill="#fab854" d="m70.77 357.55-7.883-14.1 16.054-10.067Zm0 0"/><path fill="#fab854" d="m62.887 343.45-11.028-15.427 27.082 5.36Zm0 0"/><path fill="#2e222f" d="m72.637 371.371 39.562 12.633H47.348ZM72.637 371.371l-25.29 12.633 11.215-21.899ZM112.2 384.004 72.636 371.37l30.988-3.59Zm0 0"/><path fill="#acb29e" d="m130.598 270.973 15.91 8.558-7.696 10.696Zm0 0"/><path fill="#2e222f" d="m146.508 279.531 1.398 14.996-9.094-4.3Zm0 0"/><path fill="#2e222f" d="m147.906 294.527-1.398-14.996 12.449 5.051Zm0 0"/><path fill="#2e222f" d="m158.957 284.582 12.645 4.293-11.54 9.402ZM159.469 269.77l-.512 14.812-12.45-5.05ZM149.414 266.2l10.055 3.57-12.961 9.761Zm0 0"/><path fill="#778986" d="m150.648 374.59-9.48-13.246 21.566 2.43ZM131.234 373.66l9.934-12.316 9.48 13.246Zm0 0"/><path fill="#2e222f" d="m344.598 360.695 18.468 9.485-25.214 13.824Zm0 0"/><path fill="#2e222f" d="m344.598 360.695-6.746 23.309-11.125-20.84ZM292.395 372.625l34.332-9.46 11.125 20.839Zm0 0"/><path fill="#2e222f" d="m292.395 372.625 25.453-15.89 8.879 6.43ZM267.867 384.004l24.528-11.379 45.457 11.379ZM292.395 372.625l-24.528 11.379.242-14.192Zm0 0"/><path fill="#fab854" d="m327.82 351.5-9.972 5.234.035-19.511ZM317.848 356.734l9.972-5.234-1.093 11.664Zm0 0"/><path fill="#2e222f" d="m327.82 351.5 16.778 9.195-17.871 2.47Zm0 0"/><path fill="#c8b484" d="m342.504 320.29-28.906-32.481 46.937 1.046Zm0 0"/><path fill="#5f676a" d="m268.11 369.813-15.52 3.957-.211-16.282Zm0 0"/><path fill="#2e222f" d="m252.59 373.77 15.277 10.234-24.98-.078Zm0 0"/><path fill="#778986" d="m235.691 372.254 16.899 1.516-9.703 10.156Zm0 0"/><path fill="#2e222f" d="M267.867 384.004 252.59 373.77l15.52-3.957ZM223.512 350.309l18.543-4.547-2.332 12.996Zm0 0"/><path fill="#44424a" d="m242.055 345.762 10.324 11.726-12.656 1.27Zm0 0"/><path fill="#2e222f" d="m224.742 307.66 12.668-7.094 5.871 14.118Zm0 0"/><path fill="#fab854" d="m51.86 328.023 11.027 15.426-12.64 2.106Zm0 0"/><path fill="#a9b2a1" d="m130.598 270.973-4.543 19.03-25.414-3Zm0 0"/><path fill="#f9b855" d="m126.055 290.004-5.957 11.976-19.457-14.976Zm0 0"/><path fill="#2e222f" d="m276.742 342.828 11.64 16.004-20.273 10.98ZM205.738 348.074l6.711-4.597-.476 5.605Zm0 0"/><path fill="#b8b393" d="m205.36 276.191 3.28 12.957-14.25 1.426Zm0 0"/><path fill="#cc683d" d="M45.05 81.762.044 89.867-.012 58.75Zm0 0"/><path fill="#e4a95d" d="M45.05 81.762 33.489 111.23.043 89.867Zm0 0"/><path fill="#a9b2a1" d="m294.027 187.719 44.621-18.63-9.832 52.845Zm0 0"/><path fill="#a9b1a1" d="m294.027 187.719 34.79 34.215-39.86 16.004Zm0 0"/><path fill="#b0b29a" d="m226.676 135.168-20.192 2.047-1.261-12.621Zm0 0"/><path fill="#f8b856" d="m221.02 161.875-12.125.078 9.902-11.855Zm0 0"/><path fill="#b1b29a" d="m123.465 154.645-51.356 32.199-4.464-36.094Zm0 0"/><path fill="#aab2a0" d="m144.656 196.414 6.215 25.816-36.344 7.012Zm0 0"/><path fill="#f3b75a" d="m60.012 248.832-35.266-31.129 49.426 7.356Zm0 0"/><path fill="#f1b85c" d="m157.313 247.785-7.899 18.414-8.328-15.406Zm0 0"/><path fill="#2e222f" d="m157.313 247.785 19.093-7.027-.203 24.12Zm0 0"/><path fill="#2e222f" d="m157.313 247.785 3.359-9.863 15.734 2.836Zm0 0"/><path fill="#b1b29a" d="m162.3 231.078-11.85 3.25.421-12.098Zm0 0"/><path fill="#2e222f" d="m160.672 237.922-10.223-3.594 11.852-3.25Zm0 0"/><path fill="#f6b858" d="m114.527 229.242 35.922 5.086-9.363 16.465Zm0 0"/><path fill="#acb29e" d="m150.45 234.328-35.923-5.086 36.344-7.012Zm0 0"/><path fill="#f0b85d" d="m150.45 234.328 6.863 13.457-16.227 3.008Zm0 0"/><path fill="#2e222f" d="m157.313 247.785-6.864-13.457 10.223 3.594ZM165.527 213.734l15.793 2.13-19.02 15.214ZM181.32 215.863l-15.793-2.129 2.793-11.007Zm0 0"/><path fill="#2e222f" d="m177.184 199.523 4.136 16.34-13-13.136ZM181.32 215.863l-4.914 24.895-14.105-9.68Zm0 0"/><path fill="#f5b859" d="m205.36 276.191-14.208-9.187 13.38-.832Zm0 0"/><path fill="#edb75f" d="m191.152 267.004 14.207 9.187-15.867 5.094Zm0 0"/><path fill="#2e222f" d="m191.152 267.004 2.125-14.156 11.254 13.324Zm0 0"/><path fill="#2e222f" d="m193.277 252.848-2.125 14.156-14.949-2.125Zm0 0"/><path fill="#b7b294" d="m261.55 248.668-24.605-5.723 1.04-12.492Zm0 0"/><path fill="#aab2a0" d="m236.945 242.945-5.53-6.746 6.57-5.746Zm0 0"/><path fill="#d5b577" d="m313.598 287.809-38.582 24.472-7.633-20.02Zm0 0"/><path fill="#2e222f" d="m253.781 318.594 7.278-14.266-1.055 17.106Zm0 0"/><path fill="#2e222f" d="m261.059 304.328-7.278 14.266-10.5-3.91Zm0 0"/><path fill="#fab854" d="m261.059 304.328 13.957 7.953-15.012 9.153Zm0 0"/><path fill="#fab854" d="m275.016 312.281-13.957-7.953 6.324-12.066Zm0 0"/><path fill="#bab391" d="m267.383 292.262-16.68-3.227.73-10.71Zm0 0"/><path fill="#b4b297" d="m362.035 255.422-48.437 32.387 15.218-65.875Zm0 0"/><path fill="#b0b29a" d="m313.598 287.809 48.437-32.387-1.5 33.433Zm0 0"/><path fill="#abb29f" d="m261.55 248.668-9.355-46.598 36.762 35.868Zm0 0"/><path fill="#2e222f" d="m211.773 191.887-10.605 12.82-8.965-10.344ZM147.906 294.527l-15.293 9.07 6.2-13.37ZM147.906 294.527l12.156 3.75-14.695 16.957Zm0 0"/><path fill="#2e222f" d="m132.613 303.598 15.293-9.07-2.539 20.706Zm0 0"/><path fill="#abb29f" d="m126.055 290.004 4.543-19.031 8.214 19.254Zm0 0"/><path fill="#fab854" d="m132.613 303.598-6.558-13.594 12.757.223Zm0 0"/><path fill="#fab854" d="m126.055 290.004 6.558 13.594-12.515-1.618Zm0 0"/><path fill="#2e222f" d="m132.613 303.598-2.87 12.226-9.645-13.844ZM150.082 334.68l-18.605-2.47 13.89-16.976Zm0 0"/><path fill="#2e222f" d="m163.828 320.156-13.746 14.524-4.715-19.446ZM163.828 320.156l19.035-5.054 1.188 15.457ZM52.734 353.402l-10.972 4.754 8.484-12.601ZM22.66 352.223l19.102 5.933-23.688 6.156Zm0 0"/><path fill="#f7b857" d="m95.344 316.016 18.215 2.441L112 334.711Zm0 0"/><path fill="#fab854" d="m105.254 343.48-9.91-27.464L112 334.71Zm0 0"/><path fill="#2e222f" d="m168.055 276.762 3.547 12.113-12.645-4.293Zm0 0"/><path fill="#2e232f" d="m159.469 269.77 8.586 6.992-9.098 7.82Zm0 0"/><path fill="#2e222f" d="m166.223 336.855 9.886 10.434-19.086 4.559ZM327.82 351.5l19.72-7.383-2.942 16.578Zm0 0"/><path fill="#fab854" d="m317.883 337.223 29.656 6.894-19.719 7.383Zm0 0"/><path fill="#cfb57d" d="m347.54 344.117-29.657-6.894 24.62-16.934Zm0 0"/><path fill="#2e222f" d="m259.813 344.602-7.434 12.886-10.324-11.726Zm0 0"/><path fill="#2e222f" d="m259.813 344.602 8.296 25.21-15.73-12.324Zm0 0"/><path fill="#2e222f" d="m259.813 344.602 16.93-1.774-8.634 26.985ZM276.742 342.828l-16.93 1.774 7.067-14.743Zm0 0"/><path fill="#2e222f" d="m250.105 330.258 9.708 14.344-17.758 1.16Zm0 0"/><path fill="#2e222f" d="m259.813 344.602-9.708-14.344 16.774-.399ZM212.45 343.477l13.288-13.95-2.226 20.782ZM225.738 329.527l16.317 16.235-18.543 4.547ZM250.105 330.258l9.899-8.824 6.875 8.425Zm0 0"/><path fill="#2e222f" d="m260.004 321.434-9.899 8.824 3.676-11.664ZM241.129 286.453l8.559 15.54-12.278-1.427Zm0 0"/><path fill="#fab854" d="m261.059 304.328-11.372-2.336 17.696-9.73Zm0 0"/><path fill="#fab854" d="m249.688 301.992 1.015-12.957 16.68 3.227Zm0 0"/><path fill="#f9b855" d="m250.703 289.035-1.016 12.957-8.558-15.539Zm0 0"/><path fill="#2e222f" d="m237.41 300.566 12.278 1.426-6.407 12.692ZM249.688 301.992l11.37 2.336-17.777 10.356Zm0 0"/><path fill="#fab854" d="m26.105 314.863-1.394 24.63L.004 327.8Zm0 0"/><path fill="#2e222f" d="m.004 327.8 24.707 11.692ZM24.71 339.492-.03 327.872l.035-.071Zm0 0"/><path fill="#2e222f" d="m-.031 327.871 24.742 11.621-11 10.133Zm0 0"/><path fill="#fab854" d="m317.848 356.734-29.465 2.098 29.5-21.61ZM288.383 358.832l-.969-22.39 30.469.78Zm0 0"/><path fill="#2e222f" d="m288.383 358.832 4.012 13.793-24.286-2.812Zm0 0"/><path fill="#2e222f" d="m292.395 372.625-4.012-13.793 29.465-2.098Zm0 0"/><path fill="#c3b488" d="m287.414 336.441 26.184-48.632 4.285 49.414Zm0 0"/><path fill="#c7b484" d="m317.883 337.223-4.285-49.414 28.906 32.48Zm0 0"/><path fill="#2e222f" d="m203.676 336.266 8.773 7.21-6.71 4.598Zm0 0"/><path fill="#2e222f" d="m212.45 343.477-8.774-7.211 22.062-6.739ZM171.602 288.875l.265 5.047-11.804 4.355Zm0 0"/><path fill="#ecb65f" d="m171.867 293.922-.265-5.047 9.195 1.32Zm0 0"/><path fill="#d1b57b" d="m208.64 289.148-10.554 7.454-3.695-6.028Zm0 0"/><path fill="#2e222f" d="m216.016 272.77-7.375 16.378-3.282-12.957ZM216.016 272.77l9.109-7.543 3.5 25.109Zm0 0"/><path fill="#2e222f" d="m218.73 292.988-2.714-20.218 12.609 17.566Zm0 0"/><path fill="#2e222f" d="m216.016 272.77 2.714 20.218-10.09-3.84ZM228.625 290.336l12.504-3.883-3.719 14.113Zm0 0"/><path fill="#2e222f" d="m224.742 307.66 3.883-17.324 8.785 10.23Zm0 0"/><path fill="#2e222f" d="m218.73 292.988 9.895-2.652-3.883 17.324ZM194.719 180.863l16.12-6.617.934 17.64Zm0 0"/><path fill="#aab2a0" d="m210.84 174.246 11.273 15.613-10.34 2.028Zm0 0"/><path fill="#aab2a0" d="m222.113 189.86-11.273-15.614 18.543 2.711Zm0 0"/><path fill="#aab2a1" d="m210.84 174.246 10.18-12.371 8.363 15.082Zm0 0"/><path fill="#aab2a0" d="m210.84 174.246-1.945-12.293 12.125-.078Zm0 0"/><path fill="#2e222f" d="m197.129 164.023-2.41 16.84-10.551-10.535ZM197.129 164.023l13.71 10.223-16.12 6.617ZM210.84 174.246l-13.711-10.223 11.766-2.07Zm0 0"/><path fill="#fab854" d="m207.527 151.047-1.043-13.832 12.313 12.883Zm0 0"/><path fill="#f8b856" d="m208.895 161.953-1.368-10.906 11.27-.95Zm0 0"/><path fill="#2e222f" d="m207.527 151.047-16.859-.871 6.316-12.094ZM206.484 137.215l1.043 13.832-10.543-12.965Zm0 0"/><path fill="#aab2a0" d="m144.656 196.414 9.797-30.266 8.73 17.606ZM22.695 146.691l49.414 40.153-47.363 30.86Zm0 0"/><path fill="#aeb29c" d="M72.11 186.844 22.694 146.69l44.95 4.059Zm0 0"/><path fill="#2e222f" d="m198.473 228.246-17.153-12.383 19.848-11.156ZM198.473 228.246l-22.067 12.512 4.914-24.895Zm0 0"/><path fill="#c5b487" d="m250.703 289.035-9.574-2.582 10.305-8.129Zm0 0"/><path fill="#ceb57e" d="m241.129 286.453-9.91-24.351 20.215 16.222Zm0 0"/><path fill="#2e222f" d="m241.129 286.453-16.004-21.226 6.094-3.125ZM225.125 265.227l16.004 21.226-12.504 3.883ZM198.473 228.246l20.277.414-7.258 22.36Zm0 0"/><path fill="#c1b38a" d="m231.414 236.2-12.664-7.54 19.234 1.793Zm0 0"/><path fill="#cdb57f" d="m231.219 262.102 30.332-13.434-10.117 29.656Zm0 0"/><path fill="#d8b674" d="m236.945 242.945 24.606 5.723-30.332 13.434Zm0 0"/><path fill="#c1b48a" d="m261.55 248.668 5.833 43.594-15.95-13.938Zm0 0"/><path fill="#eab763" d="m236.945 242.945-11.976 3.711 6.445-10.457Zm0 0"/><path fill="#2e222f" d="m224.969 246.656.156 18.57-13.633-14.206Zm0 0"/><path fill="#2e222f" d="m218.75 228.66 6.219 17.996-13.477 4.364Zm0 0"/><path fill="#2e222f" d="m224.969 246.656-6.219-17.996 12.664 7.54ZM225.125 265.227l-.156-18.57 6.25 15.445Zm0 0"/><path fill="#f4b859" d="m224.969 246.656 11.976-3.71-5.726 19.156Zm0 0"/><path fill="#c8b484" d="m275.016 312.281 38.582-24.472-26.184 48.632Zm0 0"/><path fill="#2e222f" d="m215.387 208.574-16.914 19.672 2.695-23.539Zm0 0"/><path fill="#2f2330" d="m211.773 191.887 3.614 16.687-14.219-3.867Zm0 0"/><path fill="#2e232f" d="m215.387 208.574 3.363 20.086-20.277-.414Zm0 0"/><path fill="#a9b2a1" d="m215.387 208.574-3.614-16.687 10.34-2.028Zm0 0"/><path fill="#2e222f" d="m129.742 315.824-8.312 4.942-1.332-18.786Zm0 0"/><path fill="#fab854" d="m121.43 320.766-7.871-2.309 6.539-16.477Zm0 0"/><path fill="#2e222f" d="m166.223 336.855-2.395-16.699 20.223 10.403ZM163.828 320.156l2.395 16.7-16.141-2.176ZM41.762 358.156 24.71 339.492l25.535 6.063Zm0 0"/><path fill="#fab854" d="m24.71 339.492 27.15-11.469-1.614 17.532Zm0 0"/><path fill="#fab854" d="m51.86 328.023-27.15 11.47 1.395-24.63Zm0 0"/><path fill="#2e222f" d="m24.71 339.492 17.052 18.664-19.102-5.933Zm0 0"/><path fill="#fab854" d="m78.941 333.383 16.403-17.367 9.91 27.464Zm0 0"/><path fill="#fab854" d="M95.344 316.016 78.94 333.383 59.52 286.629Zm0 0"/><path fill="#fab854" d="m78.941 333.383-27.082-5.36 7.66-41.394Zm0 0"/><path fill="#372e39" d="m168.055 276.762 7.48 1.238-3.933 10.875Zm0 0"/><path fill="#aeb29c" d="m175.535 278 13.957 3.285-8.695 8.91Zm0 0"/><path fill="#b3b296" d="M171.602 288.875 175.535 278l5.262 12.195Zm0 0"/><path fill="#e3b66a" d="m175.535 278 15.617-10.996-1.66 14.281Zm0 0"/><path fill="#f1b75c" d="M191.152 267.004 175.535 278l.668-13.121Zm0 0"/><path fill="#39323c" d="m175.535 278-7.48-1.238 8.148-11.883Zm0 0"/><path fill="#2e222f" d="m159.469 269.77-2.156-21.985 18.89 17.094Zm0 0"/><path fill="#2e2330" d="m168.055 276.762-8.586-6.992 16.734-4.891Zm0 0"/><path fill="#2e222f" d="m157.313 247.785 2.156 21.985-10.055-3.57Zm0 0"/><path fill="#3f3b44" d="m128.14 365.41 3.094 8.25-10.914-5.246Zm0 0"/><path fill="#2e222f" d="m128.14 365.41 13.028-4.066-9.934 12.316Zm0 0"/><path fill="#778986" d="m193.684 346.285 12.054 1.79-1.508 10.722Zm0 0"/><path fill="#788a87" d="m185.355 364.7 8.329-18.415 10.546 12.512Zm0 0"/><path fill="#778986" d="m193.684 346.285-8.329 18.414-9.246-17.41Zm0 0"/><path fill="#2e222f" d="m184.05 330.559-7.94 16.73-9.887-10.434Zm0 0"/><path fill="#2e222f" d="m184.05 330.559 9.634 15.726-17.575 1.004ZM225.738 329.527l24.367.73-8.05 15.505ZM211.027 301.723l13.715 5.937-21.383 11.719Zm0 0"/><path fill="#2e222f" d="m211.027 301.723 7.703-8.735 6.012 14.672Zm0 0"/><path fill="#fab854" d="m211.027 301.723-12.941-5.121 10.555-7.454Zm0 0"/><path fill="#2e222f" d="m218.73 292.988-7.703 8.735-2.386-12.575ZM203.676 336.266l-.317-16.887 22.38 10.148Zm0 0"/><path fill="#f4b85a" d="m185.148 302.375-4.351-12.18 13.594.38Zm0 0"/><path fill="#f9b854" d="m198.086 296.602-12.938 5.773 9.243-11.8Zm0 0"/><path fill="#2e222f" d="m197.129 164.023-12.961 6.305-.188-10.637Zm0 0"/><path fill="#2e222f" d="m190.668 150.176 6.46 13.847-13.148-4.332Zm0 0"/><path fill="#2e222f" d="m207.527 151.047-10.398 12.976-6.461-13.847ZM197.129 164.023l10.398-12.976 1.368 10.906Zm0 0"/><path fill="#abb29f" d="m144.656 196.414-21.191-41.77 30.988 11.504Zm0 0"/><path fill="#aab2a0" d="m60.012 248.832 40.629 38.172-41.121-.375Zm0 0"/><path fill="#f0b85d" d="m100.64 287.004-40.628-38.172 14.16-23.773Zm0 0"/><path fill="#aab2a0" d="m168.32 202.727-23.664-6.313 18.528-12.66Zm0 0"/><path fill="#aab2a0" d="m165.527 213.734-20.87-17.32 23.663 6.313Zm0 0"/><path fill="#aab2a0" d="m150.871 222.23-6.215-25.816 20.871 17.32Zm0 0"/><path fill="#aeb29d" d="m24.746 217.703 47.363-30.86 2.063 38.216Zm0 0"/><path fill="#abb29f" d="m218.75 228.66 10.676-9.367 8.558 11.16Zm0 0"/><path fill="#abb29f" d="m215.387 208.574 14.039 10.719-10.676 9.367Zm0 0"/><path fill="#fab854" d="m260.004 321.434 15.012-9.153-8.137 17.578Zm0 0"/><path fill="#2e222f" d="m129.742 315.824 2.871-12.226 12.754 11.636Zm0 0"/><path fill="#2e222f" d="m131.477 332.21-1.735-16.386 15.625-.59Zm0 0"/><path fill="#2e222f" d="m121.43 320.766 8.312-4.942 1.735 16.387ZM171.867 293.922l-2.406 8.898-9.399-4.543ZM163.828 320.156l5.633-17.336 13.402 12.282Zm0 0"/><path fill="#2e222f" d="m160.063 298.277 9.398 4.543-5.633 17.336ZM24.71 339.492l-2.05 12.73-8.95-2.597ZM150.082 334.68l16.14 2.175-9.199 14.993Zm0 0"/><path fill="#788a87" d="m157.023 351.848 5.711 11.925-21.566-2.43Zm0 0"/><path fill="#778986" d="m176.11 347.29-13.376 16.483-5.71-11.925Zm0 0"/><path fill="#788a87" d="m162.734 363.773 13.375-16.484 9.246 17.41Zm0 0"/><path fill="#2e222f" d="m131.477 332.21-16.883 17.13L112 334.71ZM114.594 349.34l-9.34-5.86 6.746-8.77ZM136.227 351.281l-21.633-1.941 16.883-17.13ZM182.863 315.102l20.496 4.277-19.308 11.18ZM253.781 318.594l-3.676 11.664-6.824-15.574ZM169.46 302.82l15.688-.445-2.285 12.727Zm0 0"/><path fill="#f7b857" d="m185.148 302.375-13.28-8.453 8.929-3.727Zm0 0"/><path fill="#f8b856" d="m185.148 302.375-15.687.445 2.406-8.898Zm0 0"/><path fill="#f7b857" d="m211.027 301.723-13.418 1.976.477-7.097Zm0 0"/><path fill="#f9b854" d="m197.61 303.7-12.462-1.325 12.938-5.773Zm0 0"/><path fill="#2e222f" d="m197.61 303.7 13.417-1.977-7.668 17.656Zm0 0"/><path fill="#abb29f" d="m114.527 229.242 8.938-74.597 21.191 41.77Zm0 0"/><path fill="#aab2a0" d="m114.527 229.242-40.355-4.183-2.063-38.215Zm0 0"/><path fill="#f1b85d" d="m114.527 229.242-13.886 57.762-26.47-61.945Zm0 0"/><path fill="#a9b1a1" d="m252.195 202.07-22.77 17.223-14.038-10.719ZM252.195 202.07l-36.808 6.504 6.726-18.715ZM229.426 219.293l22.77-17.223-14.212 28.383Zm0 0"/><path fill="#fab854" d="m287.414 336.441-10.672 6.387-9.863-12.969Zm0 0"/><path fill="#f2b85c" d="m275.016 312.281 12.398 24.16-20.535-6.582Zm0 0"/><path fill="#fab854" d="m287.414 336.441.969 22.391-11.64-16.004Zm0 0"/><path fill="#2e222f" d="m150.082 334.68-13.855 16.601-4.75-19.07ZM128.14 365.41l8.087-14.129 4.941 10.063ZM136.227 351.281l20.796.567-15.855 9.496Zm0 0"/><path fill="#2e222f" d="m136.227 351.281 13.855-16.601 6.941 17.168ZM136.227 351.281l-15.907 17.133-5.726-19.074Zm0 0"/><path fill="#6b7878" d="m120.32 368.414 15.907-17.133-8.086 14.13Zm0 0"/><path fill="#2e222f" d="m193.684 346.285 9.992-10.02 2.062 11.81Zm0 0"/><path fill="#2e222f" d="m184.05 330.559 19.626 5.707-9.992 10.02ZM203.36 319.379l.316 16.887-19.625-5.707ZM225.738 329.527l-.996-21.867 18.54 7.024Zm0 0"/><path fill="#2e222f" d="m250.105 330.258-24.367-.73 17.543-14.844ZM191.488 309.36l6.121-5.66 5.75 15.679Zm0 0"/><path fill="#2e222f" d="m197.61 303.7-6.122 5.66-6.34-6.985ZM191.488 309.36l11.871 10.019-20.496-4.277Zm0 0"/><path fill="#2e222f" d="m185.148 302.375 6.34 6.984-8.625 5.743Zm0 0"/><path fill="#aab2a0" d="m72.11 186.844 51.355-32.2-8.938 74.598Zm0 0"/></svg>