<svg xmlns="http://www.w3.org/2000/svg" width="512" height="512" viewBox="0 0 384 384"><path fill="#ded684" d="m340.031 205.316 43.985-24.714-.004 49.609Zm0 0"/><path fill="#dfd684" d="m384.016 180.602-43.985 24.714-10.922-32.261Zm0 0"/><path fill="#ebc073" d="m236.617 32.422 34.145 5.832L236.566 56Zm0 0"/><path fill="#ebc174" d="m249.254 103.734 31.23-38.527 18.387 34.582Zm0 0"/><path fill="#ebc174" d="m280.484 65.207-31.23 38.527L236.566 56Zm0 0"/><path fill="#ebbf72" d="m337.012 114.652-40.344 24.118 2.203-38.98Zm0 0"/><path fill="#ebc174" d="m298.871 99.79-18.387-34.583 47.301 9.094Zm0 0"/><path fill="#963c3b" d="M23.363 115.816.027 143.625l-.011-55.59Zm0 0"/><path fill="#ebc174" d="M161.617 75.02 119.04 99.383l30.133-39.344ZM296.668 138.77l-47.414-35.036 49.617-3.945Zm0 0"/><path fill="#ebc073" d="m298.871 99.79 28.914-25.49 9.227 40.352ZM270.762 38.254l9.722 26.953L236.566 56Zm0 0"/><path fill="#dfd684" d="m155.84 182.168 16.097-13.293-.12 15.938Zm0 0"/><path fill="#933b3b" d="m211.457 193.438-14.805 14.992-.59-25.313Zm0 0"/><path fill="#e9b96f" d="m122.242.012-47.324 48.02L55.953-.013Zm0 0"/><path fill="#ecbc6f" d="M74.918 48.031 122.242.011l-10.414 53.505Zm0 0"/><path fill="#ecbd70" d="m165.285 131.203 11.024-.969-1.875 8.996Zm0 0"/><path fill="#eac275" d="m257.5 157.95 39.168-19.18-8.703 33.988Zm0 0"/><path fill="#dfd684" d="M32.04 286.215 0 254.555l43.73-15.606Zm0 0"/><path fill="#ded684" d="m215.137 384 12.824-15.355 12.305 15.37Zm0 0"/><path fill="#dfd684" d="m180.45 384 25.241-19.172L215.137 384Zm0 0"/><path fill="#fe7831" d="m.027 143.625 23.336-27.809 19.91 31.348Zm0 0"/><path fill="#dd6534" d="m0 0 55.953-.012-15.848 26.106Zm0 0"/><path fill="#ab5845" d="M40.105 26.094 55.953-.012l18.965 48.043Zm0 0"/><path fill="#ebc174" d="m384.016 180.602-54.907-7.547L384 137.949Zm0 0"/><path fill="#ded684" d="m323.75 237.473 16.281-32.157 43.98 24.895Zm0 0"/><path fill="#a25548" d="m254.797.004-18.18 32.418L212.48 0Zm0 0"/><path fill="#b7845e" d="M236.617 32.422 254.797.004l15.965 38.25Zm0 0"/><path fill="#b07456" d="m212.48 0-21.066 16.043L188.32-.004Zm0 0"/><path fill="#cdb072" d="m156.395 27.926 35.02-11.883-2.411 14.102Zm0 0"/><path fill="#ebbe72" d="m180.832 40.102-24.437-12.176 32.609 2.219Zm0 0"/><path fill="#cfb574" d="M156.395 27.926 188.32-.004l3.094 16.047Zm0 0"/><path fill="#202215" d="m200.004 61.945 1.367 16.895-19.484-8.563Zm0 0"/><path fill="#ebc174" d="M176.754 47.488 161.617 75.02l-12.445-14.98ZM161.617 75.02l15.137-27.532 5.133 22.79Zm0 0"/><path fill="#ebc073" d="m156.395 27.926 20.359 19.562-27.582 12.551Zm0 0"/><path fill="#ebc073" d="m176.754 47.488-20.36-19.562 24.438 12.176ZM161.277 100.473l-8.816 19.882-33.422-20.972Zm0 0"/><path fill="#ebbf73" d="m161.617 75.02-.34 25.453-42.238-1.09Zm0 0"/><path fill="#f18442" d="m201.313 41.09-20.481-.988 8.172-9.957Zm0 0"/><path fill="#ebbe71" d="m200.004 61.945-1.176-1.574 7.332-8.453Zm0 0"/><path fill="#202215" d="m198.828 60.371 2.484-19.281 4.848 10.828Zm0 0"/><path fill="#202215" d="m201.313 41.09-2.485 19.281-17.996-20.27Zm0 0"/><path fill="#212215" d="m198.828 60.371 1.176 1.574-18.117 8.332Zm0 0"/><path fill="#202215" d="m176.754 47.488 22.074 12.883-16.941 9.906Zm0 0"/><path fill="#202215" d="m198.828 60.371-22.074-12.883 4.078-7.386Zm0 0"/><path fill="#ebc174" d="m249.254 103.734 8.246 54.215-32.621-19.836Zm0 0"/><path fill="#ebc174" d="m257.5 157.95-8.246-54.216 47.414 35.036ZM314.863 42.523l69.153 5.36-56.23 26.418ZM384.004 93.719l-46.992 20.933-9.227-40.351Zm0 0"/><path fill="#b57e5b" d="m299.21.004-28.448 38.25L254.797.004Zm0 0"/><path fill="#fe7932" d="m23.363 115.816 45.696 2.485-25.786 28.863Zm0 0"/><path fill="#fd7d36" d="m152.426 154.387 12.86-23.184 9.148 8.027Zm0 0"/><path fill="#dfd684" d="m152.426 154.387 3.414 27.781-48.715-29.711Zm0 0"/><path fill="#ebbf72" d="M43.273 147.164-.004 201.277l.031-57.652Zm0 0"/><path fill="#f1a65a" d="m-.004 201.277 43.277-54.113-7.558 46.367Zm0 0"/><path fill="#ded684" d="m169.137 200.027-13.297-17.859 15.976 2.644Zm0 0"/><path fill="#efb266" d="M40.105 26.094 74.918 48.03l-26.89 32.801Zm0 0"/><path fill="#ebc174" d="m74.918 48.031 11.777 28.164-38.668 4.637ZM119.04 99.383l-7.212-45.867 37.344 6.523Zm0 0"/><path fill="#202215" d="m176.309 130.234 9.312 10.594-11.187-1.598ZM185.621 140.828l7.375-12.625 4.066 15.555Zm0 0"/><path fill="#202215" d="m192.996 128.203-7.375 12.625-9.312-10.594Zm0 0"/><path fill="#ded684" d="m323.75 237.473-44.203 6.98 24.531-39.031Zm0 0"/><path fill="#e3ce7e" d="M224.879 138.113 257.5 157.95l-36.129 2.766Zm0 0"/><path fill="#ebc174" d="m329.11 173.055-32.442-34.285 40.344-24.118Zm0 0"/><path fill="#eac174" d="M73.71 326.402 75.126 288l20.176 16.188Zm0 0"/><path fill="#fd7c34" d="M95.3 304.188 75.126 288l32.46.023Zm0 0"/><path fill="#ded584" d="M154.23 372.973 180.45 384l-29.555-.012Zm0 0"/><path fill="#202215" d="m384 384-19.227-28.105L384 352.367Zm0 0"/><path fill="#f1a95e" d="m-.031 324.664.035-37.77 18.902 26.532Zm0 0"/><path fill="#fd7d35" d="M18.906 313.426.004 286.895l32.035-.68Zm0 0"/><path fill="#dfd684" d="M.004 286.895 0 254.555l32.04 31.66ZM200.637 345.3l13.922 2.622-8.868 16.906ZM183.527 359.781l22.164 5.047L180.45 384Zm0 0"/><path fill="#edb76b" d="m.008 61.813 40.097-35.72 7.922 54.739Zm0 0"/><path fill="#f49c52" d="M.008 61.813 0 0l40.105 26.094Zm0 0"/><path fill="#ebc174" d="m384.004 93.719-.004 44.23-46.988-23.297ZM337.012 114.652 384 137.95l-54.89 35.106Zm0 0"/><path fill="#ad6f53" d="M212.648 32.324 212.48 0l24.137 32.422Zm0 0"/><path fill="#b07556" d="m212.648 32.324-21.234-16.281L212.48 0Zm0 0"/><path fill="#ebc174" d="m236.566 56-23.918-23.676 23.97.098Zm0 0"/><path fill="#bd5e40" d="m191.414 16.043 21.234 16.281-23.644-2.18Zm0 0"/><path fill="#edb368" d="m212.648 32.324-11.335 8.766-12.31-10.945Zm0 0"/><path fill="#ebc174" d="M212.648 32.324 236.566 56l-30.406-4.082Zm0 0"/><path fill="#ebbf72" d="m201.313 41.09 11.335-8.766-6.488 19.594Zm0 0"/><path fill="#caab70" d="m188.32-.004-31.925 27.93L122.242.012Zm0 0"/><path fill="#ebc174" d="m111.828 53.516 44.567-25.59-7.223 32.113Zm0 0"/><path fill="#ebbb70" d="m122.242.012 34.153 27.914-44.567 25.59Zm0 0"/><path fill="#ebc174" d="m179.832 88.316-18.555 12.157.34-25.453Zm0 0"/><path fill="#ebc174" d="M179.832 88.316 161.617 75.02l20.27-4.743Zm0 0"/><path fill="#202215" d="m179.832 88.316 21.54-9.476-10.692 17.605ZM201.371 78.84l-21.539 9.476 2.055-18.039ZM192.098 111.43l-12.746-3.66 11.328-11.325Zm0 0"/><path fill="#202215" d="m179.352 107.77.48-19.454 10.848 8.13Zm0 0"/><path fill="#ebc073" d="m179.832 88.316-.48 19.454-18.075-7.297Zm0 0"/><path fill="#ebc174" d="m152.46 120.355 21.673-4.097-8.848 14.945Zm0 0"/><path fill="#ebc174" d="m161.277 100.473 12.856 15.785-21.672 4.097Zm0 0"/><path fill="#ebc174" d="m179.352 107.77-5.22 8.488-12.855-15.785Zm0 0"/><path fill="#ebc073" d="m174.133 116.258 2.176 13.976-11.024.97Zm0 0"/><path fill="#ebc174" d="m217.813 73.852-17.81-11.907 6.157-10.027Zm0 0"/><path fill="#ebc174" d="m236.566 56-18.754 17.852-11.652-21.934Zm0 0"/><path fill="#ebc073" d="M217.813 73.852 201.37 78.84l-1.367-16.895Zm0 0"/><path fill="#ebc174" d="M217.813 73.852 236.566 56l12.688 47.734ZM327.785 74.3l56.23-26.417-.011 45.836Zm0 0"/><path fill="#b7835d" d="m352.656.004 31.36 47.879-69.153-5.36Zm0 0"/><path fill="#b57f5b" d="M299.21.004h53.446l-37.793 42.52Zm0 0"/><path fill="#9c4a42" d="m384 0 .016 47.883-31.36-47.88Zm0 0"/><path fill="#b17657" d="m314.863 42.523-44.101-4.27L299.21.004Zm0 0"/><path fill="#ebc174" d="m280.484 65.207 34.38-22.684 12.921 31.778Zm0 0"/><path fill="#ebc174" d="m270.762 38.254 44.101 4.27-34.379 22.683Zm0 0"/><path fill="#fb843c" d="M119.04 99.383 69.058 118.3l17.636-42.106Zm0 0"/><path fill="#fe7831" d="M86.695 76.195 69.06 118.301 48.027 80.832Zm0 0"/><path fill="#f0ad62" d="m69.059 118.3-45.696-2.484 24.664-34.984Zm0 0"/><path fill="#8c3938" d="m171.938 168.875 12.69 3.422-12.812 12.516Zm0 0"/><path fill="#923b3a" d="m184.066 163.55.563 8.747-12.691-3.422Zm0 0"/><path fill="#fd7c34" d="m211.227 153.25 13.652-15.137-3.508 22.602Zm0 0"/><path fill="#fc7f37" d="m152.426 154.387.035-34.032 12.824 10.848Zm0 0"/><path fill="#dfd684" d="m155.84 182.168-3.414-27.781 19.512 14.488Zm0 0"/><path fill="#ded684" d="m135.758 209.52 29.933 5.554-5.535 17.77Zm0 0"/><path fill="#202215" d="m179.492 247.488.07-15.41 24.993 13.277Zm0 0"/><path fill="#ded684" d="m135.758 209.52 24.398 23.324-8.047-.492Zm0 0"/><path fill="#863837" d="m183.582 196.363-11.766-11.55 24.246-1.696Zm0 0"/><path fill="#8f3a39" d="m183.582 196.363-14.445 3.664 2.68-15.214Zm0 0"/><path fill="#3e281f" d="m196.652 208.43-13.07-12.067 12.48-13.246Zm0 0"/><path fill="#ebc073" d="m86.695 76.195 25.133-22.68 7.211 45.868Zm0 0"/><path fill="#ebbe72" d="m74.918 48.031 36.91 5.485-25.133 22.68Zm0 0"/><path fill="#202215" d="m190.645 152.39-5.024-11.562 11.441 2.93Zm0 0"/><path fill="#f5984f" d="m175.645 148.297-23.22 6.09 22.009-15.157Zm0 0"/><path fill="#202215" d="m185.621 140.828-9.976 7.469-1.211-9.067Zm0 0"/><path fill="#873837" d="m175.645 148.297 8.421 15.254-12.129 5.324Zm0 0"/><path fill="#f3a156" d="m152.426 154.387 23.219-6.09-3.708 20.578Zm0 0"/><path fill="#8b3938" d="m175.645 148.297 15 4.094-6.579 11.16Zm0 0"/><path fill="#292418" d="m190.645 152.39-15-4.093 9.976-7.469Zm0 0"/><path fill="#202215" d="m205.598 137.504-12.602-9.3 11.57-7.638Zm0 0"/><path fill="#202215" d="m192.996 128.203 12.602 9.3-8.536 6.255ZM192.996 128.203l-.898-16.773 12.468 9.136Zm0 0"/><path fill="#212215" d="m216.84 275.61-11.824-11.153 8.195-3.406Zm0 0"/><path fill="#793532" d="m205.016 264.457-.461-19.102 8.656 15.696Zm0 0"/><path fill="#ebc174" d="m233.344 182.293-11.973-21.578 36.129-2.766Zm0 0"/><path fill="#212215" d="m120.598 368.719-13.414-3.137 11.257-19.746Zm0 0"/><path fill="#5d2f29" d="m107.184 365.582 13.414 3.137-10.22 15.285Zm0 0"/><path fill="#ebc174" d="m95.3 304.188 25.59-2.024-13.452 18.281Zm0 0"/><path fill="#ecbb6f" d="m120.89 302.164-25.59 2.024 12.286-16.165Zm0 0"/><path fill="#202215" d="m47.688 350.594 9.238-4.75 2.539 15.652Zm0 0"/><path fill="#fe7831" d="m48.121 333.54 8.805 12.304-20.996-5.953Zm0 0"/><path fill="#fe7b34" d="m56.926 345.844-9.239 4.75L35.93 339.89Zm0 0"/><path fill="#e3cb7b" d="m75.125 288-1.414 38.402-33.723-2.254Zm0 0"/><path fill="#202215" d="m45.105 384-2.785-27.406 17.145 4.902ZM42.32 356.594l5.368-6 11.777 10.902Zm0 0"/><path fill="#202215" d="m23.426 352.64 18.894 3.954L45.105 384Zm0 0"/><path fill="#fd7b34" d="m56.926 345.844 15.683 9.32-13.144 6.332Zm0 0"/><path fill="#202215" d="m107.184 365.582-13.641-9.094 24.898-10.652Zm0 0"/><path fill="#232216" d="m110.379 384.004 20.121-10.516 20.395 10.5Zm0 0"/><path fill="#ddd483" d="m130.5 373.488 23.73-.515-3.335 11.015Zm0 0"/><path fill="#262317" d="m120.598 368.719 9.902 4.77-20.121 10.515Zm0 0"/><path fill="#edb165" d="m107.438 320.445 15.062.606-13.219 17.656Zm0 0"/><path fill="#202215" d="m122.5 321.05-4.059 24.786-9.16-7.129ZM122.5 321.05l15.633 5.93-19.692 18.856Zm0 0"/><path fill="#ded684" d="M168.871 364.438 180.45 384l-26.219-11.027Zm0 0"/><path fill="#ecba6e" d="m179.559 290.34 9.66-9.574 5.754 11.586Zm0 0"/><path fill="#202215" d="m354.86 343.07 9.913 12.825-13.41-1.883Zm0 0"/><path fill="#fe7831" d="m364.773 355.895-9.914-12.825 9.274-2.972Zm0 0"/><path fill="#fe7831" d="m354.86 343.07-4.977-23.726 14.25 20.754Zm0 0"/><path fill="#202215" d="m364.773 355.895 9.372-12.282 9.855 8.754ZM374.145 343.613l-9.372 12.282-.64-15.797Zm0 0"/><path fill="#202215" d="m384 352.367-9.855-8.754 9.855-6.867ZM331.434 384.004l18.171-18.508L384 384ZM364.773 355.895l-15.168 9.601 1.758-11.484Zm0 0"/><path fill="#202215" d="m349.605 365.496 15.168-9.601L384 384Zm0 0"/><path fill="#fe7831" d="m372.773 335.895 11.223-43.512.004 44.363Zm0 0"/><path fill="#202215" d="m374.145 343.613-1.372-7.718 11.227.851Zm0 0"/><path fill="#202215" d="m372.773 335.895 1.372 7.718-10.012-3.515Zm0 0"/><path fill="#fe7831" d="m372.773 335.895-8.64 4.203-14.25-20.754Zm0 0"/><path fill="#fe7831" d="m383.996 292.383-11.223 43.512-22.89-16.551Zm0 0"/><path fill="#202215" d="m-.031 324.664 11.058 11.957L0 347.367Zm0 0"/><path fill="#f79249" d="m21.324 331.27-2.418-17.844 21.082 10.722Zm0 0"/><path fill="#fc823a" d="m18.906 313.426 13.133-27.211 7.95 37.933Zm0 0"/><path fill="#eeb66a" d="M32.04 286.215 75.124 288l-35.137 36.148Zm0 0"/><path fill="#e0d483" d="m131.66 268.664 19.684-6.766-8.239 20.997Zm0 0"/><path fill="#dfd684" d="m151.344 261.898-19.684 6.766 13.688-17.254ZM131.66 268.664l-4.914-26.766 18.602 9.512Zm0 0"/><path fill="#dfd684" d="m126.746 241.898 4.914 26.766-24.074 19.36Zm0 0"/><path fill="#202215" d="m0 347.367 23.426 5.274L0 384Zm0 0"/><path fill="#202215" d="M23.426 352.64 45.106 384H0ZM23.426 352.64 0 347.368l11.027-10.746Zm0 0"/><path fill="#222215" d="m216.273 331.82 8.207 18.328-9.921-2.226Zm0 0"/><path fill="#ded684" d="m227.96 368.645-5.784-12.086 14.242-.028Zm0 0"/><path fill="#dfd684" d="m214.559 347.922 7.617 8.637-16.485 8.27Zm0 0"/><path fill="#ded684" d="m222.176 356.559 2.304-6.41 11.938 6.382ZM224.48 350.148l-2.304 6.41-7.617-8.636ZM252.68 374.77l-24.72-6.125 8.458-12.114Zm0 0"/><path fill="#492b22" d="m263.621 369.746-10.941 5.024-16.262-18.239Zm0 0"/><path fill="#202215" d="m200.547 319.469 6.316-10.29 17.758 5.434Zm0 0"/><path fill="#ded684" d="m205.691 364.828 16.485-8.27 5.785 12.087Zm0 0"/><path fill="#ded684" d="m205.691 364.828 22.27 3.817L215.137 384Zm0 0"/><path fill="#ebc174" d="m296.668 138.77 32.441 34.285-41.144-.297Zm0 0"/><path fill="#fe7831" d="m349.883 319.344-29.89-33.426 64.003 6.465Zm0 0"/><path fill="#ebc174" d="m319.992 285.918 64.02-55.707-.016 62.172Zm0 0"/><path fill="#ebc174" d="m319.992 285.918 3.758-48.445 60.262-7.262ZM217.813 73.852l-14.731 24.054-1.71-19.066Zm0 0"/><path fill="#ebc174" d="m203.082 97.906 14.73-24.054 31.442 29.882Zm0 0"/><path fill="#202215" d="m201.371 78.84 1.711 19.066-12.402-1.46Zm0 0"/><path fill="#ebc174" d="m204.566 120.566-1.484-22.66 46.172 5.828Zm0 0"/><path fill="#202215" d="m203.082 97.906-10.984 13.524-1.418-14.985ZM203.082 97.906l1.484 22.66-12.468-9.136Zm0 0"/><path fill="#8d3a39" d="m184.629 172.297 11.434 10.82-24.247 1.696Zm0 0"/><path fill="#fc8038" d="m152.426 154.387-30.996-22.098 31.03-11.934Zm0 0"/><path fill="#fc8038" d="m152.46 120.355-31.03 11.934-2.39-32.906Zm0 0"/><path fill="#fe7831" d="m152.426 154.387-45.301-1.93 14.305-20.168Zm0 0"/><path fill="#fd7d35" d="m107.125 152.457-38.066-34.156 52.37 13.988Zm0 0"/><path fill="#953e3c" d="m69.059 118.3 49.98-18.917 2.39 32.906Zm0 0"/><path fill="#ded684" d="m35.715 193.531 8.015 45.418-43.734-37.672Zm0 0"/><path fill="#dfd684" d="M43.73 238.95 0 254.554l-.004-53.278Zm0 0"/><path fill="#202215" d="m179.492 247.488-16.851-7.289 16.922-8.12Zm0 0"/><path fill="#202215" d="m162.64 240.2-2.484-7.356 19.406-.766Zm0 0"/><path fill="#70332f" d="m182.422 219.715 1.16-23.352 13.07 12.067Zm0 0"/><path fill="#fd7c34" d="m211.227 153.25-3.352-4.437 17.004-10.7Zm0 0"/><path fill="#202215" d="m205.598 137.504 2.277 11.309-10.812-5.055ZM182.805 117.836l-3.453-10.066 12.746 3.66Zm0 0"/><path fill="#202215" d="m182.805 117.836-8.672-1.578 5.219-8.488ZM174.133 116.258l8.672 1.578-6.496 12.398Zm0 0"/><path fill="#212215" d="m182.805 117.836 10.191 10.367-16.687 2.031Zm0 0"/><path fill="#202215" d="m182.805 117.836 9.293-6.406.898 16.773ZM225.387 270.043l-8.547 5.566-3.63-14.558Zm0 0"/><path fill="#f49f55" d="m189.219 280.766 16.68-4.04-10.926 15.626Zm0 0"/><path fill="#202215" d="m216.84 275.61-10.942 1.117-.882-12.27ZM179.492 247.488l25.063-2.133.46 19.102Zm0 0"/><path fill="#ebc174" d="m319.992 285.918-40.445-41.465 44.203-6.98Zm0 0"/><path fill="#fe7932" d="m319.992 285.918-36.187 24.7-15.461-30.227Zm0 0"/><path fill="#ebc174" d="m319.992 285.918-51.648-5.527 11.203-35.938Zm0 0"/><path fill="#ded684" d="m263.234 198.355 16.313 46.098-35.363-19.871Zm0 0"/><path fill="#dfd684" d="M263.234 198.355 257.5 157.95l30.465 14.809Zm0 0"/><path fill="#dfd684" d="m263.234 198.355-29.89-16.062 24.156-24.344Zm0 0"/><path fill="#202215" d="m148.96 294.188 9.153-9.688 2.024 13.16ZM160.137 297.66l-2.266 20.735-12.2-8.07Zm0 0"/><path fill="#fc8139" d="m93.543 356.488-20.934-1.324 22.457-25.238Zm0 0"/><path fill="#202215" d="m72.61 355.164 4.523 15.957-17.668-9.625ZM77.133 371.121l16.41-14.633 13.64 9.094Zm0 0"/><path fill="#202215" d="m93.543 356.488-16.41 14.633-4.524-15.957Zm0 0"/><path fill="#fe7831" d="m73.71 326.402-16.784 19.442-8.805-12.305ZM73.71 326.402l-1.1 28.762-15.684-9.32ZM72.61 355.164l1.1-28.762 21.356 3.524Zm0 0"/><path fill="#202215" d="m77.133 371.121 33.246 12.883L45.105 384Zm0 0"/><path fill="#202215" d="M77.133 371.121 45.105 384l14.36-22.504ZM110.379 384.004 77.133 371.12l30.05-5.539ZM93.543 356.488l15.738-17.781 9.16 7.129ZM148.96 294.188l-5.855-11.293 15.008 1.605Zm0 0"/><path fill="#202215" d="m158.113 284.5 12.637 4.117-10.613 9.043ZM158.887 267.484l-.774 17.016-15.008-1.605Zm0 0"/><path fill="#202215" d="m151.344 261.898 7.543 5.586-15.782 15.41ZM349.605 365.496l-18.171 18.508-4.817-19.024Zm0 0"/><path fill="#202215" d="m291.04 370.852 35.577-5.872 4.817 19.024Zm0 0"/><path fill="#202215" d="m291.04 370.852 27.452-15.125 8.125 9.253ZM274.352 384.012l16.687-13.16 40.395 13.152Zm0 0"/><path fill="#202215" d="m291.04 370.852-16.688 13.16 2.746-19.055Zm0 0"/><path fill="#fe7932" d="m327.082 351.082-8.59 4.645.281-14.79Zm0 0"/><path fill="#202215" d="m349.605 365.496-22.523-14.414 24.281 2.93Zm0 0"/><path fill="#f89047" d="m318.492 355.727 8.59-4.645-.465 13.898Zm0 0"/><path fill="#202215" d="m327.082 351.082 22.523 14.414-22.988-.516Zm0 0"/><path fill="#65312c" d="m263.621 369.746 13.477-4.789-2.746 19.055Zm0 0"/><path fill="#212215" d="m252.68 374.77 21.672 9.242-34.086.004Zm0 0"/><path fill="#ded684" d="m227.96 368.645 24.72 6.125-12.414 9.246Zm0 0"/><path fill="#202215" d="m274.352 384.012-21.672-9.242 10.941-5.024Zm0 0"/><path fill="#2d2519" d="m224.48 350.148 17.067-3.644-5.129 10.027Zm0 0"/><path fill="#522d25" d="m241.547 346.504 22.074 23.242-27.203-13.215Zm0 0"/><path fill="#202215" d="m224.621 314.613 3.246-24.246 17.54 19.645Zm0 0"/><path fill="#fe7831" d="m39.988 324.148 33.723 2.254-25.59 7.137Zm0 0"/><path fill="#fe7831" d="m39.988 324.148 8.133 9.391-12.191 6.352Zm0 0"/><path fill="#f5994f" d="m127.965 292.063-7.074 10.101-13.305-14.14Zm0 0"/><path fill="#dfd684" d="m127.965 292.063 3.695-23.399 11.445 14.23Zm0 0"/><path fill="#dfd684" d="m131.66 268.664-3.695 23.399-20.38-4.04Zm0 0"/><path fill="#202215" d="m273.953 339.29 8.817 11.98-5.672 13.687ZM200.637 345.3l15.636-13.48-1.714 16.102ZM216.273 331.82l-15.726-12.351 24.074-4.856Zm0 0"/><path fill="#f59b51" d="m205.898 276.727 2.418 9.882-13.343 5.743Zm0 0"/><path fill="#ecbc70" d="m.008 61.813 48.02 19.019L.015 88.035Zm0 0"/><path fill="#963c3b" d="m48.027 80.832-24.664 34.984L.016 88.036Zm0 0"/><path fill="#dfd684" d="m329.11 173.055-25.032 32.367-16.113-32.664Zm0 0"/><path fill="#ded684" d="m304.078 205.422 25.031-32.367 10.922 32.261ZM323.75 237.473l-19.672-32.051 35.953-.106Zm0 0"/><path fill="#fd7b34" d="m224.879 138.113-17.004 10.7-2.277-11.31Zm0 0"/><path fill="#ebc073" d="m224.879 138.113-19.281-.61-1.032-16.937Zm0 0"/><path fill="#ebc174" d="m249.254 103.734-24.375 34.38-20.313-17.548Zm0 0"/><path fill="#efaf63" d="m221.371 160.715-12.191-1.985 2.047-5.48Zm0 0"/><path fill="#eac174" d="m107.125 152.457-30.695 34.64-33.157-39.933Zm0 0"/><path fill="#fe7831" d="m69.059 118.3 38.066 34.157-63.852-5.293Zm0 0"/><path fill="#ded684" d="m126.746 241.898 9.012-32.378 16.351 22.832Zm0 0"/><path fill="#dfd684" d="M43.73 238.95 75.125 288l-43.086-1.785Zm0 0"/><path fill="#dfd583" d="m158.45 248.32-7.106 13.578-5.996-10.488Zm0 0"/><path fill="#63302b" d="m158.45 248.32 21.042-.832-5.164 16.75Zm0 0"/><path fill="#202215" d="m158.45 248.32 4.19-8.12 16.852 7.288Zm0 0"/><path fill="#262417" d="m160.156 232.844-7.261 7.226-.786-7.718Zm0 0"/><path fill="#202215" d="m162.64 240.2-9.745-.13 7.261-7.226Zm0 0"/><path fill="#dfd684" d="m126.746 241.898 26.149-1.828-7.547 11.34Zm0 0"/><path fill="#dfd684" d="m152.895 240.07-26.149 1.828 25.363-9.546Zm0 0"/><path fill="#e0d382" d="m152.895 240.07 5.554 8.25-13.101 3.09Zm0 0"/><path fill="#202215" d="m158.45 248.32-5.555-8.25 9.746.13Zm0 0"/><path fill="#9b4941" d="m165.691 215.074 16.73 4.64-22.265 13.13Zm0 0"/><path fill="#943c3b" d="m182.422 219.715-16.73-4.64 3.445-15.048Zm0 0"/><path fill="#9a4640" d="m183.582 196.363-1.16 23.352-13.285-19.688Zm0 0"/><path fill="#963d3c" d="m182.422 219.715-2.86 12.363-19.406.766Zm0 0"/><path fill="#eac275" d="m205.898 276.727-17.625-10.258 16.743-2.012Zm0 0"/><path fill="#ebc174" d="m188.273 266.469 17.625 10.258-16.68 4.039Zm0 0"/><path fill="#202215" d="m188.273 266.469-8.78-18.98 25.523 16.968Zm0 0"/><path fill="#202215" d="m179.492 247.488 8.781 18.98-13.945-2.23Zm0 0"/><path fill="#ded684" d="m279.547 244.453-36.129 5.406.766-25.277Zm0 0"/><path fill="#dfd684" d="m243.418 249.86-12.512-12.473 13.278-12.805Zm0 0"/><path fill="#fd7d35" d="m283.805 310.617-17.504-6.199 2.043-24.027Zm0 0"/><path fill="#202215" d="m256.96 318.594 1.54-15.114 4.777 11.98Zm0 0"/><path fill="#202215" d="m258.5 303.48-1.54 15.114-11.554-8.582Zm0 0"/><path fill="#f59c52" d="m258.5 303.48 7.8.938-3.023 11.043Zm0 0"/><path fill="#fc8139" d="m266.3 304.418-7.8-.938 9.844-23.09Zm0 0"/><path fill="#ded684" d="m304.078 205.422-40.844-7.067 24.73-25.597ZM263.234 198.355l40.844 7.067-24.531 39.031Zm0 0"/><path fill="#202215" d="m148.96 294.188-16.46 9.019 10.605-20.312ZM148.96 294.188l11.177 3.472-14.465 12.664Zm0 0"/><path fill="#202215" d="m132.5 303.207 16.46-9.02-3.288 16.137Zm0 0"/><path fill="#e1d07f" d="m132.5 303.207-4.535-11.144 15.14-9.168Zm0 0"/><path fill="#e4cb7c" d="m127.965 292.063 4.535 11.144-11.61-1.043Zm0 0"/><path fill="#eac275" d="m120.89 302.164-.91 11.809-12.543 6.472Zm0 0"/><path fill="#202215" d="m132.5 303.207-12.52 10.766.91-11.809ZM157.871 318.395l-19.738 8.585 7.539-16.656ZM157.871 318.395l22.414-2.934-11.637 15.816ZM47.688 350.594l-5.368 6-6.39-16.703Zm0 0"/><path fill="#fc8039" d="m95.066 329.926 12.371-9.48 1.844 18.261Zm0 0"/><path fill="#202215" d="m167.871 277.555 2.879 11.062-12.637-4.117ZM158.887 267.484l8.984 10.07-9.758 6.946Zm0 0"/><path fill="#212215" d="m160.746 341.09 10.016 6.894-14.992 3.246Zm0 0"/><path fill="#202215" d="m327.082 351.082 27.777-8.012-3.496 10.942Zm0 0"/><path fill="#fe7932" d="m318.773 340.938 36.086 2.132-27.777 8.012Zm0 0"/><path fill="#fe7831" d="m354.86 343.07-36.087-2.132 31.11-21.594Zm0 0"/><path fill="#212215" d="m261.941 342.64 1.68 27.106-22.074-23.242Zm0 0"/><path fill="#212215" d="m263.621 369.746-1.68-27.105 15.157 22.316Zm0 0"/><path fill="#202215" d="m261.941 342.64 12.012-3.35 3.145 25.667Zm0 0"/><path fill="#202215" d="m273.953 339.29-12.012 3.35 4.262-14.683ZM254.328 331.797l7.613 10.844-20.394 3.863ZM261.941 342.64l-7.613-10.843 11.875-3.84ZM216.273 331.82l14.844 1.864-6.637 16.464Zm0 0"/><path fill="#39271d" d="m231.117 333.684 10.43 12.82-17.067 3.644Zm0 0"/><path fill="#202215" d="m231.117 333.684-14.844-1.864 8.348-17.207Zm0 0"/><path fill="#fb833b" d="m266.203 327.957-9.242-9.363 6.316-3.133Zm0 0"/><path fill="#202215" d="m266.203 327.957-11.875 3.84 2.633-13.203ZM237.969 280.64l10.535 21.266-20.637-11.539Zm0 0"/><path fill="#fa853c" d="m258.5 303.48-9.996-1.574 19.84-21.515Zm0 0"/><path fill="#f39a4f" d="m248.504 301.906-2.832-24.015 22.672 2.5Zm0 0"/><path fill="#f3a157" d="m245.672 277.89 2.832 24.016-10.535-21.265Zm0 0"/><path fill="#202215" d="m227.867 290.367 20.637 11.54-3.098 8.105Zm0 0"/><path fill="#202215" d="m248.504 301.906 9.996 1.574-13.094 6.532Zm0 0"/><path fill="#f98b43" d="M21.324 331.27-.03 324.664l18.937-11.238Zm0 0"/><path fill="#fe7831" d="m-.031 324.664 21.355 6.606-10.297 5.351Zm0 0"/><path fill="#202215" d="m282.77 351.27 5.468 7.355-11.14 6.332Zm0 0"/><path fill="#fe7932" d="m318.492 355.727-30.254 2.898 30.535-17.687Zm0 0"/><path fill="#fe7831" d="m288.238 358.625 20.399-29.969 10.136 12.281Zm0 0"/><path fill="#fe7831" d="m308.637 328.656-20.399 29.969-5.468-7.355Zm0 0"/><path fill="#202215" d="m288.238 358.625 2.801 12.227-13.941-5.895ZM291.04 370.852l-2.802-12.227 30.254-2.898Zm0 0"/><path fill="#fe7831" d="m318.773 340.938-10.136-12.282 41.246-9.312ZM308.637 328.656l11.355-42.738 29.89 33.426Zm0 0"/><path fill="#fe7831" d="m319.992 285.918-11.355 42.738-24.832-18.039Zm0 0"/><path fill="#202215" d="m196.973 334.762 19.3-2.942-15.636 13.48ZM185.316 344.207l11.657-9.445 3.664 10.539ZM216.273 331.82l-19.3 2.942 3.574-15.293ZM170.75 288.617l.445 6.95-11.058 2.093Zm0 0"/><path fill="#fe7831" d="m171.195 295.566-.445-6.949 8.809 1.723Zm0 0"/><path fill="#202215" d="m186.492 329.148 14.055-9.68-3.574 15.294ZM216.84 275.61l-8.524 11-2.418-9.883ZM216.84 275.61l8.547-5.567 2.48 20.324ZM219.031 292.512l8.836-2.145-3.246 24.246Zm0 0"/><path fill="#202215" d="m219.031 292.512-2.191-16.903 11.027 14.758ZM216.84 275.61l2.191 16.902-10.715-5.903Zm0 0"/><path fill="#933b3b" d="m196.063 183.117 14.402-5.351.992 15.672Zm0 0"/><path fill="#dfd482" d="m210.465 177.766 9.367 14.937-8.375.734Zm0 0"/><path fill="#dfd483" d="m219.832 192.703-9.367-14.937 22.879 4.527Zm0 0"/><path fill="#ecbb6f" d="m210.465 177.766 10.906-17.051 11.973 21.578Zm0 0"/><path fill="#ecbb6f" d="m210.465 177.766-1.285-19.036 12.191 1.985Zm0 0"/><path fill="#522d25" d="m197.398 165.984-1.335 17.133-11.434-10.82Zm0 0"/><path fill="#913b3a" d="m197.398 165.984 13.067 11.782-14.403 5.351Zm0 0"/><path fill="#8e3a39" d="m210.465 177.766-13.067-11.782 11.782-7.254Zm0 0"/><path fill="#f2a257" d="m205.527 153.957 2.348-5.144 3.352 4.437Zm0 0"/><path fill="#e8be71" d="m209.18 158.73-3.653-4.773 5.7-.707Zm0 0"/><path fill="#2e2519" d="m205.527 153.957-14.882-1.566 6.417-8.633Zm0 0"/><path fill="#30251a" d="m207.875 148.813-2.348 5.144-8.464-10.2Zm0 0"/><path fill="#dfd684" d="m92.563 237.71 34.183 4.188-19.16 46.125ZM75.125 288l17.438-50.29 15.023 50.313Zm0 0"/><path fill="#f0a85c" d="m43.273 147.164 33.157 39.934-40.715 6.433Zm0 0"/><path fill="#462a21" d="m204.555 245.355-22.133-25.64 14.23-11.285Zm0 0"/><path fill="#222215" d="m204.555 245.355-24.993-13.277 2.86-12.363Zm0 0"/><path fill="#ebc174" d="m237.969 280.64-5.465-14.85 13.168 12.1Zm0 0"/><path fill="#202215" d="m237.969 280.64-12.582-10.597 7.117-4.254ZM225.387 270.043l12.582 10.598-10.102 9.726Zm0 0"/><path fill="#933b3b" d="m218.898 229.8-14.343 15.555-7.903-36.925Zm0 0"/><path fill="#ded684" d="m230.906 237.387-12.008-7.586 25.286-5.219Zm0 0"/><path fill="#ebc174" d="m232.504 265.79 18.508-1.036-5.34 13.137Zm0 0"/><path fill="#eac275" d="m243.418 249.86 7.594 14.894-18.508 1.035Zm0 0"/><path fill="#e8c778" d="m251.012 264.754-7.594-14.895 36.129-5.406Zm0 0"/><path fill="#e9c476" d="m251.012 264.754 17.332 15.637-22.672-2.5Zm0 0"/><path fill="#eac275" d="m268.344 280.39-17.332-15.636 28.535-20.3Zm0 0"/><path fill="#e5ca7b" d="m243.418 249.86-19.164-2.067 6.652-10.406Zm0 0"/><path fill="#512c25" d="m204.555 245.355 19.699 2.438-11.043 13.258Zm0 0"/><path fill="#212215" d="m224.254 247.793 1.133 22.25-12.176-8.992Zm0 0"/><path fill="#232216" d="m218.898 229.8 5.356 17.993-19.7-2.438Zm0 0"/><path fill="#242216" d="m224.254 247.793-5.356-17.992 12.008 7.586Zm0 0"/><path fill="#212215" d="m225.387 270.043-1.133-22.25 8.25 17.996Zm0 0"/><path fill="#e7c87a" d="m224.254 247.793 19.164 2.066-10.914 15.93Zm0 0"/><path fill="#fc8038" d="m266.3 304.418 17.505 6.2-20.528 4.843Zm0 0"/><path fill="#923c3b" d="m211.457 193.438 2.879 8.878-17.684 6.114Zm0 0"/><path fill="#913b3a" d="m214.336 202.316 4.562 27.485-22.246-21.371Zm0 0"/><path fill="#dfd583" d="m214.336 202.316-2.879-8.879 8.375-.734Zm0 0"/><path fill="#ebbe72" d="m119.98 313.973 2.52 7.078-15.062-.606Zm0 0"/><path fill="#202215" d="m160.746 341.09-10.219-5.79 18.121-4.023Zm0 0"/><path fill="#202215" d="m150.527 335.3 10.22 5.79-4.977 10.14ZM150.527 335.3l7.344-16.905 10.777 12.882Zm0 0"/><path fill="#fe7831" d="m39.988 324.148-4.058 15.743-14.606-8.621Zm0 0"/><path fill="#202215" d="m35.93 339.89 6.39 16.704-18.894-3.953Zm0 0"/><path fill="#fe7a33" d="m95.066 329.926 14.215 8.781-15.738 17.781Zm0 0"/><path fill="#ebc073" d="m107.438 320.445-12.372 9.48.235-25.738Zm0 0"/><path fill="#edb76b" d="m95.066 329.926-21.355-3.524 21.59-22.214Zm0 0"/><path fill="#202215" d="m167.871 277.555 5.98 1.476-3.101 9.586Zm0 0"/><path fill="#ebc174" d="m173.852 279.031 15.367 1.735-9.66 9.574Zm0 0"/><path fill="#fe7a33" d="m170.75 288.617 3.102-9.586 5.707 11.309Zm0 0"/><path fill="#ebc174" d="m173.852 279.031 14.421-12.562.946 14.297Zm0 0"/><path fill="#eac174" d="m188.273 266.469-14.421 12.562.476-14.793Zm0 0"/><path fill="#202215" d="m173.852 279.031-5.98-1.476 6.456-13.317Zm0 0"/><path fill="#242216" d="m158.887 267.484-.438-19.164 15.88 15.918Zm0 0"/><path fill="#202215" d="m167.871 277.555-8.984-10.07 15.441-3.247Zm0 0"/><path fill="#2c2a1b" d="m158.45 248.32.437 19.164-7.543-5.586Zm0 0"/><path fill="#dfd684" d="m193.027 352.695-7.71-8.488 15.32 1.094ZM193.027 352.695l7.61-7.394 5.054 19.527ZM183.527 359.781l9.5-7.086 12.664 12.133ZM170.762 347.984l12.765 11.797-14.656 4.656Zm0 0"/><path fill="#ded684" d="m168.871 364.438 14.656-4.657L180.45 384Zm0 0"/><path fill="#dfd684" d="m183.527 359.781 1.79-15.574 7.71 8.488Zm0 0"/><path fill="#dfd684" d="m185.316 344.207-1.789 15.574-12.765-11.797Zm0 0"/><path fill="#202215" d="m168.648 331.277 2.114 16.707-10.016-6.894Zm0 0"/><path fill="#212215" d="m168.648 331.277 16.668 12.93-14.554 3.777Zm0 0"/><path fill="#202215" d="m242.793 326.164 11.535 5.633-12.781 14.707ZM231.117 333.684l11.676-7.52-1.246 20.34Zm0 0"/><path fill="#202215" d="m254.328 331.797-11.535-5.633 14.168-7.57ZM210.707 301.293l13.914 13.32-17.758-5.433ZM210.707 301.293l8.324-8.781 5.59 22.101Zm0 0"/><path fill="#fe7831" d="m210.707 301.293-15.734-8.941 13.343-5.743Zm0 0"/><path fill="#202215" d="m219.031 292.512-8.324 8.781-2.39-14.684Zm0 0"/><path fill="#fe7831" d="m181.172 301.672-1.613-11.332 15.414 2.012Zm0 0"/><path fill="#63302b" d="m197.398 165.984-12.77 6.313-.562-8.746Zm0 0"/><path fill="#542d26" d="m190.645 152.39 6.753 13.594-13.332-2.433Zm0 0"/><path fill="#512c25" d="m205.527 153.957-8.129 12.027-6.753-13.593Zm0 0"/><path fill="#893937" d="m197.398 165.984 8.13-12.027 3.652 4.773Zm0 0"/><path fill="#dfd684" d="m43.73 238.95 48.833-1.24L75.125 288ZM147.75 197.117l-40.625-44.66 48.715 29.711Zm0 0"/><path fill="#ded684" d="m169.137 200.027-21.387-2.91 8.09-14.949ZM165.691 215.074l-17.941-17.957 21.387 2.91ZM107.125 152.457l40.625 44.66-11.992 12.403Zm0 0"/><path fill="#ded684" d="m135.758 209.52 11.992-12.403 17.941 17.957ZM76.43 187.098l-32.7 51.851-8.015-45.418Zm0 0"/><path fill="#ded684" d="m43.73 238.95 32.7-51.852 16.132 50.613ZM218.898 229.8l12.844-25.452 12.442 20.234Zm0 0"/><path fill="#ded684" d="m214.336 202.316 17.406 2.032-12.844 25.453Zm0 0"/><path fill="#fd7c34" d="m283.805 310.617-17.602 17.34-2.926-12.496Zm0 0"/><path fill="#202215" d="m131.668 314.766.832-11.559 13.172 7.117Zm0 0"/><path fill="#202215" d="m131.668 314.766-11.688-.793 12.52-10.766ZM138.133 326.98l-6.465-12.214 14.004-4.442Zm0 0"/><path fill="#202215" d="m122.5 321.05 9.168-6.284 6.465 12.214Zm0 0"/><path fill="#202215" d="m119.98 313.973 11.688.793-9.168 6.285ZM171.195 295.566l-3.05 7.961-8.008-5.867ZM157.871 318.395l10.274-14.868 12.14 11.934Zm0 0"/><path fill="#202215" d="m160.137 297.66 8.008 5.867-10.274 14.868Zm0 0"/><path fill="#fe7831" d="m35.93 339.89-12.504 12.75-2.102-21.37Zm0 0"/><path fill="#202215" d="m21.324 331.27 2.102 21.37-12.399-16.019Zm0 0"/><path fill="#212215" d="m157.871 318.395-7.344 16.906-12.394-8.32Zm0 0"/><path fill="#ded684" d="m170.762 347.984-12.059 11.032-2.933-7.786ZM158.703 359.016l10.168 5.421-14.64 8.536Zm0 0"/><path fill="#ded684" d="m158.703 359.016 12.059-11.032-1.89 16.454Zm0 0"/><path fill="#202215" d="m180.285 315.46 6.207 13.688-17.844 2.13ZM242.793 326.164l-11.676 7.52-6.496-19.07Zm0 0"/><path fill="#202215" d="m256.96 318.594-14.167 7.57 2.613-16.152ZM168.145 303.527l13.027-1.855-.887 13.789Zm0 0"/><path fill="#fe7831" d="m181.172 301.672-9.977-6.106 8.364-5.226Zm0 0"/><path fill="#fd7c35" d="m181.172 301.672-13.027 1.855 3.05-7.96Zm0 0"/><path fill="#fe7b34" d="m210.707 301.293-16.016 2.273.282-11.214Zm0 0"/><path fill="#fd7b34" d="m194.691 303.566-13.52-1.894 13.802-9.32Zm0 0"/><path fill="#202215" d="m194.691 303.566 16.016-2.273-3.844 7.887Zm0 0"/><path fill="#202215" d="m200.547 319.469-5.856-15.903 12.172 5.614Zm0 0"/><path fill="#ded684" d="m135.758 209.52-43.196 28.19-16.132-50.612Zm0 0"/><path fill="#ded684" d="m126.746 241.898-34.183-4.187 43.195-28.191Zm0 0"/><path fill="#dfd684" d="m231.742 204.348-11.91-11.645 13.512-10.41Zm0 0"/><path fill="#dfd684" d="m231.742 204.348-17.406-2.032 5.496-9.613ZM263.234 198.355l-31.492 5.993 1.602-22.055Zm0 0"/><path fill="#ded684" d="m231.742 204.348 31.492-5.993-19.05 26.227Zm0 0"/><path fill="#fb7832" d="m281.86 332.785-7.907 6.504-7.75-11.332Zm0 0"/><path fill="#fe7932" d="m283.805 310.617-1.946 22.168-15.656-4.828Zm0 0"/><path fill="#fd7731" d="m281.86 332.785.91 18.485-8.817-11.98Zm0 0"/><path fill="#fe7831" d="m281.86 332.785 26.777-4.129-25.867 22.614Zm0 0"/><path fill="#fe7831" d="m281.86 332.785 1.945-22.168 24.832 18.04Zm0 0"/><path fill="#33261b" d="m138.234 346.473 12.293-11.172 5.243 15.93Zm0 0"/><path fill="#202215" d="m138.133 326.98.101 19.493-19.793-.637Zm0 0"/><path fill="#212215" d="m150.527 335.3-12.293 11.173-.101-19.493Zm0 0"/><path fill="#ded684" d="m143.129 360.242 15.574-1.226-4.473 13.957Zm0 0"/><path fill="#ded684" d="m130.5 373.488 12.629-13.246 11.101 12.73ZM143.129 360.242l12.64-9.012 2.934 7.786Zm0 0"/><path fill="#2b2418" d="m143.129 360.242-4.895-13.77 17.536 4.758Zm0 0"/><path fill="#202215" d="m138.234 346.473-17.636 22.246-2.157-22.883Zm0 0"/><path fill="#4a2b22" d="m120.598 368.719 22.53-8.477-12.628 13.246Zm0 0"/><path fill="#65312b" d="m143.129 360.242-22.531 8.477 17.636-22.246Zm0 0"/><path fill="#202215" d="m185.316 344.207 1.176-15.059 10.48 5.614Zm0 0"/><path fill="#202215" d="m168.648 331.277 17.844-2.129-1.176 15.059ZM242.793 326.164l-18.172-11.55 20.785-4.602ZM180.285 315.46l14.406-11.894 5.856 15.903Zm0 0"/><path fill="#202215" d="m194.691 303.566-14.406 11.895.887-13.79Zm0 0"/><path fill="#202215" d="m180.285 315.46 20.262 4.009-14.055 9.68Zm0 0"/><path fill="#dfd684" d="m76.43 187.098 30.695-34.641 28.633 57.063Zm0 0"/></svg>