<svg xmlns="http://www.w3.org/2000/svg" width="512" height="512" viewBox="0 0 384 384"><path fill="#dbdade" d="m369.32 225.25 14.684-32.54-.012 46.161Zm0 0"/><path fill="#c8c5cc" d="m384.004 192.71-14.684 32.54-25.78-31.965Zm0 0"/><path fill="#6d667a" d="m258.281-.016 34.98 34.727-45.808 16.602Zm0 0"/><path fill="#fefefe" d="m276.57 76.035-44.48 6.645 15.363-31.368Zm0 0"/><path fill="#fcfcfc" d="m333.977 121.73-39.114 27.922-18.293-73.617Zm0 0"/><path fill="#2f2541" d="m333.383 70.238.594 51.492-57.407-45.695Zm0 0"/><path fill="#201533" d="m192.352 384.016-13.653-.008-.05-7.363Zm0 0"/><path fill="#d9d7dc" d="m194.094 364.047-1.742 19.969-13.704-7.371Zm0 0"/><path fill="#443b54" d="m18.973 129.902 13.363 37.91-32.352-2.43Zm0 0"/><path fill="#f3f3f4" d="M19.117 112.855-.027 117.32l.03-27.914Zm0 0"/><path fill="#7e7889" d="m19.117 112.855 12.774 1.61-12.918 15.437Zm0 0"/><path fill="#fcfcfc" d="m38.008 97.5-6.117 16.965-12.774-1.61Zm0 0"/><path fill="#fdfdfd" d="m159.273 75.328-40.378 19.633 17.293-47.031Zm0 0"/><path fill="#fefefe" d="m294.863 149.652-46.867-20.754 28.574-52.863Zm0 0"/><path fill="#fefefe" d="M247.996 128.898 232.09 82.68l44.48-6.645Zm0 0"/><path fill="#8e8897" d="M293.262 34.71 276.57 76.036l-29.117-24.722Zm0 0"/><path fill="#f1f0f2" d="M70.328 47.977 103.641.007l32.546 47.923Zm0 0"/><path fill="#fefefe" d="m170.195 125.691 7.778-.445-1.903 9.438ZM258.043 162.105l-10.047-33.207 46.867 20.754Zm0 0"/><path fill="#9a95a3" d="m194.094 364.047 30.527 20.012-32.27-.043Zm0 0"/><path fill="#878191" d="m-.027 117.32 19 12.582-18.989 35.48Zm0 0"/><path fill="#676074" d="m-.027 117.32 19.144-4.465-.144 17.047Zm0 0"/><path fill="#dedce1" d="M70.328 47.977.016-.008 103.64.008Zm0 0"/><path fill="#e4e2e6" d="m37.422 80.102 32.906-32.125-4.047 33.867Zm0 0"/><path fill="#fefefe" d="m343.54 193.285-3.11-28.12 43.574 27.546Zm0 0"/><path fill="#e5e4e7" d="m334.34 215.266 9.2-21.98 25.78 31.964Zm0 0"/><path fill="#d2d0d6" d="m365.656 249.547 3.664-24.297 14.672 13.621Zm0 0"/><path fill="#ecebee" d="m365.656 249.547-31.316-34.281 34.98 9.984Zm0 0"/><path fill="#fdfdfd" d="m181.215 32.668 7.43-32.652 1.234 28.683Zm0 0"/><path fill="#fafafa" d="m188.508 36.871-7.293-4.203 8.664-3.969Zm0 0"/><path fill="#201533" d="m200.414 60.785 1.074 23.809-19.504-19.649Zm0 0"/><path fill="#fefefe" d="m177.094 48.066-17.82 27.262-23.086-27.398Zm0 0"/><path fill="#fcfcfc" d="m159.273 75.328 17.82-27.262 4.891 16.88Zm0 0"/><path fill="#fafafb" d="m181.215 32.668-4.121 15.398-40.906-.136Zm0 0"/><path fill="#201533" d="m177.094 48.066 4.12-15.398 7.294 4.203Zm0 0"/><path fill="#fefefe" d="m162.453 101.617-6.144 15.504-37.414-22.16Zm0 0"/><path fill="#fefefe" d="m159.273 75.328 3.18 26.29-43.558-6.657Zm0 0"/><path fill="#201533" d="m200.996 37.89-12.488-1.019 1.37-8.172ZM200.414 60.785l-7.531-11.222 12.976-1.067Zm0 0"/><path fill="#201533" d="m192.883 49.563 8.113-11.672 4.863 10.605ZM200.996 37.89l-8.113 11.673-4.375-12.692ZM192.883 49.563l7.531 11.222-18.43 4.16Zm0 0"/><path fill="#201533" d="m177.094 48.066 15.789 1.496-10.899 15.383Zm0 0"/><path fill="#201533" d="m192.883 49.563-15.79-1.497 11.415-11.195Zm0 0"/><path fill="#fefefe" d="m247.996 128.898-29.164-8.8L232.09 82.68Zm0 0"/><path fill="#dbdade" d="m363.922 39.465 20.094 25.094-50.633 5.68Zm0 0"/><path fill="#d4d2d8" d="m293.262 34.71 42.293-9.347-2.172 44.875Zm0 0"/><path fill="#cfccd3" d="m335.555 25.363 28.367 14.102-30.54 30.773Zm0 0"/><path fill="#413851" d="m333.977 121.73-.594-51.492 50.633-5.68Zm0 0"/><path fill="#7d7688" d="M293.262 34.71 258.282-.015l47.956-.004Zm0 0"/><path fill="#908a99" d="m50.152 110.98 29.715 5.262-32.191 17.387Zm0 0"/><path fill="#5e566c" d="m31.89 114.465 18.262-3.485-2.476 22.649Zm0 0"/><path fill="#fdfdfd" d="M50.152 110.98 38.008 97.5 66.28 81.844Zm0 0"/><path fill="#fafafb" d="m50.152 110.98-18.261 3.485L38.008 97.5Zm0 0"/><path fill="#fefefe" d="m159.469 135.371 10.726-9.68 5.875 8.993Zm0 0"/><path fill="#fefefe" d="m167.828 145.426-8.36-10.055 16.602-.687Zm0 0"/><path fill="#f8f7f8" d="m37.113 204.012-37.129-38.63 32.352 2.43Zm0 0"/><path fill="#f7f7f8" d="M37.113 204.012-.004 227.21l-.012-61.828Zm0 0"/><path fill="#bcb8c1" d="m31.89 114.465 15.786 19.164-28.703-3.727Zm0 0"/><path fill="#948f9d" d="m18.973 129.902 28.703 3.727-15.34 34.184Zm0 0"/><path fill="#837d8e" d="m169.934 193.805 3.761-32.368 11.676 10.293Zm0 0"/><path fill="#f6f5f6" d="M118.895 94.96 70.328 47.978l65.86-.047Zm0 0"/><path fill="#201533" d="m177.973 125.246 5.68 9.766-7.583-.328Zm0 0"/><path fill="#201533" d="m183.652 135.012 4.762-10.715 7.242 9.316Zm0 0"/><path fill="#342a45" d="m188.414 124.297-4.762 10.715-5.68-9.766Zm0 0"/><path fill="#524a61" d="m258.043 162.105-33.156 19.817 2.683-21.25Zm0 0"/><path fill="#fefefe" d="m247.996 128.898 10.047 33.207-30.473-1.433Zm0 0"/><path fill="#fff" d="m86.59 310.54-2.754-51.673 28.07 29.102Zm0 0"/><path fill="#201533" d="m114.035 372.46 3.922 11.54h-54.82Zm0 0"/><path fill="#898393" d="m94.848 359.715 12.547.277 6.64 12.469Zm0 0"/><path fill="#c5c2ca" d="m151.86 374.844 16.023 9.16-19.309.012Zm0 0"/><path fill="#201533" d="m362.602 369.184 21.402-11.485L384 384ZM361.453 356.008l22.55 1.691-21.401 11.485Zm0 0"/><path fill="#fefefe" d="m366.086 337.992-27.219-8.543 17.383-17.652Zm0 0"/><path fill="#fff" d="M-.012 325.473 0 286.8l26.395 23.285ZM0 286.8l-.004-59.59 35.723 42.634Zm0 0"/><path fill="#fefefe" d="M26.395 310.086 0 286.8l35.719-16.957Zm0 0"/><path fill="#fff" d="m55.418 307.816 28.418-48.949 2.754 51.672Zm0 0"/><path fill="#fdfdfe" d="m224.621 384.059 11.332-10.954 4.262 10.903Zm0 0"/><path fill="#eeedf0" d="m.004 54.887 70.324-6.91-32.906 32.125Zm0 0"/><path fill="#fafafb" d="M66.281 81.844 38.008 97.5l-.586-17.398Zm0 0"/><path fill="#fdfdfd" d="m340.43 165.164 43.55-14.984.024 42.53Zm0 0"/><path fill="#f8f8f9" d="m384.016 64.559-.036 85.62-50.003-28.449Zm0 0"/><path fill="#fdfdfd" d="m333.977 121.73 50.003 28.45-43.55 14.984Zm0 0"/><path fill="#2f2541" d="m365.656 249.547-78.215-.277 46.899-34.004Zm0 0"/><path fill="#676074" d="M215.344 24.379 188.644.016l69.637-.032Zm0 0"/><path fill="#4e465d" d="m247.453 51.313-32.11-26.934L258.282-.016Zm0 0"/><path fill="#f1f0f2" d="m188.645.016 26.699 24.363-25.465 4.32Zm0 0"/><path fill="#f3f2f4" d="M215.344 24.379 200.996 37.89l-11.117-9.192Zm0 0"/><path fill="#fdfdfe" d="m215.344 24.379 32.11 26.934-41.595-2.817Zm0 0"/><path fill="#fefefe" d="m200.996 37.89 14.348-13.511-9.485 24.117Zm0 0"/><path fill="#f4f3f5" d="M188.645.016 136.187 47.93 103.642.008Zm0 0"/><path fill="#f7f6f7" d="M181.215 32.668 136.188 47.93 188.645.016Zm0 0"/><path fill="#fefefe" d="m179.504 89.98-17.05 11.637-3.18-26.289ZM179.504 89.98l-20.23-14.652 22.71-10.383Zm0 0"/><path fill="#201533" d="m179.504 89.98 21.984-5.386-10.851 16.625ZM201.488 84.594l-21.984 5.386 2.48-25.035ZM191.172 113.047l-11.836-4.063 11.3-7.765Zm0 0"/><path fill="#201533" d="m179.336 108.984.168-19.004 11.133 11.239Zm0 0"/><path fill="#fefefe" d="m179.504 89.98-.168 19.004-16.883-7.367ZM156.309 117.121l19.699-.797-5.813 9.367Zm0 0"/><path fill="#fefefe" d="m162.453 101.617 13.555 14.707-19.7.797ZM179.336 108.984l-3.328 7.34-13.555-14.707Zm0 0"/><path fill="#fefefe" d="m176.008 116.324 1.965 8.922-7.778.445ZM232.09 82.68l-31.676-21.895 5.445-12.289ZM247.453 51.313 232.09 82.68l-26.23-34.184ZM232.09 82.68l-30.602 1.914-1.074-23.809Zm0 0"/><path fill="#827c8d" d="m363.922 39.465 20.07-39.48.024 64.574Zm0 0"/><path fill="#c5c3ca" d="m335.555 25.363-42.293 9.348L306.238-.02Zm0 0"/><path fill="#a49fac" d="m357.734-.008-22.18 25.371L306.239-.02Zm0 0"/><path fill="#bfbcc4" d="m335.555 25.363 22.18-25.37 6.187 39.472Zm0 0"/><path fill="#a29eaa" d="M363.922 39.465 357.734-.008l26.258-.008Zm0 0"/><path fill="#e7e6e9" d="m276.57 76.035 16.692-41.324 40.12 35.527Zm0 0"/><path fill="#f9f9f9" d="m66.281 81.844 52.614 13.117-39.028 21.281Zm0 0"/><path fill="#fefdfe" d="m50.152 110.98 16.13-29.136 13.585 34.398Zm0 0"/><path fill="#2f2440" d="m185.863 154.496-.492 17.234-11.676-10.292Zm0 0"/><path fill="#fefefe" d="m217.426 141.5 30.57-12.602-20.426 31.774Zm0 0"/><path fill="#fefefe" d="m247.996 128.898-30.57 12.602 1.406-21.402ZM159.469 135.371l-3.16-18.25 13.886 8.57ZM167.828 145.426l-16.254 11.586 7.895-21.64ZM151.574 157.012l16.254-11.586 5.867 16.012ZM79.867 116.242l5.86 34.742-38.051-17.355Zm0 0"/><path fill="#6a6276" d="M85.727 150.984 61.02 168.691 47.676 133.63Zm0 0"/><path fill="#d6d4d9" d="m32.336 167.813 15.34-34.184L61.02 168.69Zm0 0"/><path fill="#362c47" d="m180.578 231.742-19.289 1.645 3.57-14.489Zm0 0"/><path fill="#fefefe" d="m164.86 218.898-3.57 14.489-8.509-2.621Zm0 0"/><path fill="#201533" d="m184.3 195.375 1.071-23.645 12.102 18.426Zm0 0"/><path fill="#7d7788" d="m184.3 195.375-14.366-1.57 15.437-22.075Zm0 0"/><path fill="#201533" d="m196.984 205.953-12.683-10.578 13.172-5.219Zm0 0"/><path fill="#f3f2f4" d="m70.328 47.977 48.567 46.984L66.28 81.844Zm0 0"/><path fill="#201533" d="m188.45 145.828-4.798-10.816 12.004-1.399Zm0 0"/><path fill="#fefefe" d="m177.04 145.84-9.212-.414 8.242-10.742Zm0 0"/><path fill="#201533" d="m183.652 135.012-6.613 10.828-.969-11.156Zm0 0"/><path fill="#8f8a99" d="m177.04 145.84 8.823 8.656-12.168 6.941Zm0 0"/><path fill="#fefefe" d="m167.828 145.426 9.211.414-3.344 15.597Zm0 0"/><path fill="#7b7486" d="m177.04 145.84 11.41-.012-2.587 8.668Zm0 0"/><path fill="#201533" d="m188.45 145.828-11.41.012 6.612-10.828ZM188.414 124.297l15.277-3.203-8.035 12.52Zm0 0"/><path fill="#201533" d="m203.691 121.094-15.277 3.203 2.758-11.25ZM217.32 280.559l-12.953-16.399 8.863-2.805Zm0 0"/><path fill="#201533" d="m204.367 264.16-.722-21.098 9.585 18.293Zm0 0"/><path fill="#fcfcfd" d="m231.125 197.156 26.918-35.05 8.547 31.792Zm0 0"/><path fill="#fbfbfc" d="m258.043 162.105-26.918 35.051-6.238-15.234Zm0 0"/><path fill="#3a324c" d="m114.035 372.46 19.778-19.94L117.957 384Zm0 0"/><path fill="#fff" d="m86.59 310.54 33.848-8.263-17.461 23.32ZM120.438 302.277 86.59 310.54l25.316-22.57Zm0 0"/><path fill="#201533" d="m46.523 350.707 9.922-3.937 3.762 18.699Zm0 0"/><path fill="#fefefe" d="m55.34 334.766 1.105 12.004-18.48-8.075Zm0 0"/><path fill="#fdfdfd" d="m56.445 346.77-9.922 3.937-8.558-12.012Zm0 0"/><path fill="#fff" d="m69.188 335.277-13.77-27.46 31.172 2.722ZM83.836 258.867l-28.418 48.95-19.7-37.973Zm0 0"/><path fill="#201533" d="M20.746 362.781 63.136 384H0ZM63.137 384l-42.39-21.219 39.46 2.688Zm0 0"/><path fill="#201533" d="m20.746 362.781 25.777-12.074 13.684 14.762Zm0 0"/><path fill="#fefefe" d="m56.445 346.77 12.72 11.25-8.958 7.449Zm0 0"/><path fill="#fdfdfe" d="m151.86 374.844 18.921-4.766-2.898 13.926Zm0 0"/><path fill="#fefefe" d="m170.781 370.078-18.922 4.766-.379-8.64Zm0 0"/><path fill="#201533" d="m117.957 384 14.32-10.738 16.297 10.754Zm0 0"/><path fill="#f9f9fa" d="m132.277 373.262 19.582 1.582-3.285 9.172Zm0 0"/><path fill="#201634" d="m133.813 352.52-1.536 20.742L117.957 384Zm0 0"/><path fill="#221836" d="m178.648 376.645.051 7.363-10.816-.004Zm0 0"/><path fill="#fbfbfb" d="m170.781 370.078 7.867 6.567-10.765 7.359Zm0 0"/><path fill="#fefdfe" d="m170.797 359.742-.016 10.336-19.3-3.875Zm0 0"/><path fill="#fefefe" d="m183.91 290.68 6.461-8.336 5.496 10.36Zm0 0"/><path fill="#1f1533" d="m352.305 344.75 9.148 11.258-13.137 5.242Zm0 0"/><path fill="#fefefe" d="m361.453 356.008-9.148-11.258 13.78-6.758Zm0 0"/><path fill="#fefefe" d="m352.305 344.75-13.438-15.3 27.219 8.542Zm0 0"/><path fill="#201533" d="m361.453 356.008 12.063-14.778 10.488 16.47Zm0 0"/><path fill="#201533" d="m373.516 341.23-12.063 14.778 4.633-18.016ZM384.004 357.7l-10.488-16.47 10.492-5.125ZM362.602 369.184 384 384l-63.64.004ZM361.453 356.008l1.149 13.176-14.286-7.934Zm0 0"/><path fill="#fefefe" d="M373.234 331.957 384 310l.008 26.105Zm0 0"/><path fill="#fdfdfe" d="m373.516 341.23-.282-9.273 10.774 4.148Zm0 0"/><path fill="#fefdfe" d="m373.234 331.957.282 9.273-7.43-3.238Zm0 0"/><path fill="#fefefe" d="m373.234 331.957-7.148 6.035-9.836-26.195ZM384 310l-10.766 21.957-16.984-20.16Zm0 0"/><path fill="#201533" d="M-.012 325.473 11.86 337.19 0 346.855Zm0 0"/><path fill="#fefefe" d="m26.395 310.086 9.324-40.242 19.699 37.972ZM126.367 267.348l23.278 1.543-9.778 23.379ZM149.645 268.89l-23.278-1.542 16.953-20.657Zm0 0"/><path fill="#201533" d="m0 346.855 20.746 15.926L0 384Zm0 0"/><path fill="#1f1533" d="M20.746 362.781 0 346.855l11.86-9.664Zm0 0"/><path fill="#201533" d="m230.797 333.73-3.426 17.52-18.781-4.887Zm0 0"/><path fill="#fefefe" d="m235.953 373.105-14.594-8.847 18.168-5.113Zm0 0"/><path fill="#fefdfe" d="m221.36 364.258 14.593 8.847-11.332 10.954Zm0 0"/><path fill="#fdfdfd" d="m221.36 364.258 6.011-13.008 12.156 7.895ZM227.371 351.25l-6.012 13.008-12.77-17.895Zm0 0"/><path fill="#fefefe" d="m252.555 374.262-16.602-1.157 3.574-13.96Zm0 0"/><path fill="#201533" d="m261.379 367.813-8.824 6.449-13.028-15.117Zm0 0"/><path fill="#fefefe" d="m224.621 384.059-30.527-20.012 27.265.21Zm0 0"/><path fill="#ecebed" d="M70.328 47.977.004 54.887.016-.008Zm0 0"/><path fill="#fefefe" d="m343.54 193.285-38.36.035 35.25-28.156ZM258.043 162.105l36.82-12.453-28.273 44.246ZM294.863 149.652l10.317 43.668-38.59.578Zm0 0"/><path fill="#fdfdfd" d="m294.863 149.652 39.114-27.922 6.453 43.434Zm0 0"/><path fill="#fefefe" d="m305.18 193.32-10.317-43.668 45.567 15.512ZM356.25 311.797l9.406-62.25L384 310ZM365.656 249.547l18.336-10.676L384 310ZM232.09 82.68l-28.832 23.332-1.77-21.418ZM203.258 106.012 232.09 82.68l-13.258 37.418Zm0 0"/><path fill="#201533" d="m201.488 84.594 1.77 21.418-12.621-4.793Zm0 0"/><path fill="#fefefe" d="m203.691 121.094-.433-15.082 15.574 14.086Zm0 0"/><path fill="#201533" d="m203.258 106.012-12.086 7.035-.535-11.828Zm0 0"/><path fill="#201533" d="m203.258 106.012.433 15.082-12.52-8.047Zm0 0"/><path fill="#443b54" d="m224.887 181.922-15.98-18.594 18.663-2.656Zm0 0"/><path fill="#fefefe" d="m208.906 163.328 8.52-21.828 10.144 19.172ZM159.469 135.371l-33.582-.902 30.422-17.348ZM156.309 117.121l-30.422 17.348-6.992-39.508Zm0 0"/><path fill="#fefefe" d="m118.895 94.96 6.992 39.509-46.02-18.227Zm0 0"/><path fill="#fefefe" d="m125.887 134.469-40.16 16.515-5.86-34.742ZM37.113 204.012l-1.394 65.832L-.004 227.21Zm0 0"/><path fill="#201533" d="m165.922 243.023-4.633-9.636 19.29-1.645Zm0 0"/><path fill="#201634" d="m183.18 213.059 1.12-17.684 12.684 10.578Zm0 0"/><path fill="#fefefe" d="m217.426 141.5-11.121-9.129 12.527-12.273Zm0 0"/><path fill="#201533" d="m203.691 121.094 2.614 11.277-10.649 1.242ZM182.262 117.61l-2.926-8.626 11.836 4.063Zm0 0"/><path fill="#201533" d="m188.414 124.297-6.152-6.688 8.91-4.562ZM182.262 117.61l-6.254-1.286 3.328-7.34Zm0 0"/><path fill="#201533" d="m176.008 116.324 6.254 1.285-4.29 7.637Zm0 0"/><path fill="#291f3c" d="m182.262 117.61 6.152 6.687-10.441.95Zm0 0"/><path fill="#201533" d="m224.668 267.168-7.348 13.39-4.09-19.203Zm0 0"/><path fill="#fefefe" d="m190.371 282.344 16.766-.086-11.27 10.445Zm0 0"/><path fill="#201533" d="m217.32 280.559-10.183 1.699-2.77-18.098ZM203.645 243.063l-15.657 9.171-7.41-20.492Zm0 0"/><path fill="#201533" d="m187.988 252.234 15.657-9.172.722 21.098ZM187.988 252.234l-22.066-9.21 14.656-11.282Zm0 0"/><path fill="#201533" d="m165.922 243.023 22.066 9.211-12.683 11.817Zm0 0"/><path fill="#fff" d="m287.441 249.27 25.88 45.128-45.825-12.363Zm0 0"/><path fill="#fefefe" d="m249.938 266.785-6.243-16.254 43.746-1.261ZM249.938 266.785l37.503-17.515-19.945 32.765Zm0 0"/><path fill="#b9b5bf" d="m256.781 229.258-25.656-32.102 35.465-3.258Zm0 0"/><path fill="#fefefe" d="m231.125 197.156-18.863-4.969 12.625-10.265Zm0 0"/><path fill="#201533" d="m164.754 314.188-16.863-10.692 19.07-2.008ZM24.77 350.316l-4.024 12.465-8.887-25.59ZM69.164 358.02l25.684 1.695-23.059 10.558Zm0 0"/><path fill="#fefefe" d="m69.164 358.02 17.082-17.317 8.602 19.012Zm0 0"/><path fill="#201533" d="m69.164 358.02 2.625 12.253-11.582-4.804Zm0 0"/><path fill="#fefefe" d="M69.188 335.277 56.445 346.77l-1.105-12.004ZM69.188 335.277l-.024 22.743-12.719-11.25Zm0 0"/><path fill="#fefefe" d="m69.164 358.02.023-22.743 17.06 5.426Zm0 0"/><path fill="#201533" d="m71.79 370.273 42.245 2.188L63.137 384ZM71.79 370.273l23.058-10.558 19.187 12.746Zm0 0"/><path fill="#1f1533" d="M71.79 370.273 63.136 384l-2.93-18.531Zm0 0"/><path fill="#201533" d="m103.902 346.117 3.493 13.875-12.547-.277Zm0 0"/><path fill="#fdfdfd" d="m86.246 340.703 17.656 5.414-9.054 13.598Zm0 0"/><path fill="#201533" d="m147.89 303.496-14.867-.426 6.844-10.8ZM147.89 303.496l22.024-11.957-2.953 9.95Zm0 0"/><path fill="#201533" d="m158.75 273.777-10.86 29.72-8.023-11.227Zm0 0"/><path fill="#201533" d="m149.645 268.89 9.105 4.887-18.883 18.493Zm0 0"/><path fill="#fefefe" d="m132.277 373.262 19.203-7.059.38 8.64Zm0 0"/><path fill="#201533" d="m362.602 369.184-42.243 14.82 27.957-22.754Zm0 0"/><path fill="#201533" d="m320.36 384.004-55.337.023 13.207-18.863ZM326.168 363.566l-8.656 1.137.793-7.492ZM320.36 384.004l5.808-20.438 22.148-2.316Zm0 0"/><path fill="#201533" d="m317.512 364.703 8.656-1.137-5.809 20.438Zm0 0"/><path fill="#fefefe" d="m327.965 350.375-1.797 13.191-7.863-6.355ZM338.867 329.45l-25.547-35.052 42.93 17.399Zm0 0"/><path fill="#423953" d="m261.379 367.813 16.851-2.649-13.207 18.863Zm0 0"/><path fill="#201533" d="m252.555 374.262 12.468 9.765-24.808-.02Zm0 0"/><path fill="#fefefe" d="m235.953 373.105 16.602 1.157-12.34 9.746Zm0 0"/><path fill="#201633" d="m265.023 384.027-12.468-9.765 8.824-6.45Zm0 0"/><path fill="#201533" d="m227.371 351.25 16.625-2.621-4.469 10.516ZM243.996 348.629l17.383 19.183-21.852-8.667ZM224.664 312.621l3.09-30.144 18.062 27.71Zm0 0"/><path fill="#fefefe" d="m55.418 307.816 13.77 27.461-13.848-.511ZM55.418 307.816l-.078 26.95-17.375 3.93Zm0 0"/><path fill="#fff" d="m111.906 287.969-28.07-29.102 42.531 8.48Zm0 0"/><path fill="#fefefe" d="m127.176 292.445-15.27-4.476 14.461-20.621Zm0 0"/><path fill="#fefefe" d="m127.176 292.445-.809-25.097 13.5 24.922Zm0 0"/><path fill="#fefefe" d="m133.023 303.07-5.847-10.625 12.691-.175Zm0 0"/><path fill="#201533" d="m279.246 348.953 8.004 9.203-9.02 7.008Zm0 0"/><path fill="#fefefe" d="m190.629 299.262-6.719-8.582 11.957 2.023Zm0 0"/><path fill="#eeedef" d="M19.441 86.086.004 89.406v-34.52Zm0 0"/><path fill="#f7f7f8" d="M38.008 97.5 19.44 86.086l17.98-5.984Zm0 0"/><path fill="#e6e5e9" d="M19.441 86.086.004 54.886l37.418 25.216Zm0 0"/><path fill="#3d334d" d="m19.441 86.086-.324 26.77L.004 89.405Zm0 0"/><path fill="#f9f9f9" d="M19.441 86.086 38.008 97.5l-18.89 15.355Zm0 0"/><path fill="#e6e4e8" d="m343.54 193.285-9.2 21.98-29.16-21.945Zm0 0"/><path fill="#403650" d="M334.34 215.266 287.44 249.27l17.739-55.95Zm0 0"/><path fill="#fefefe" d="m218.832 120.098-12.527 12.273-2.614-11.277ZM208.906 163.328l-1.636-.27 10.156-21.558Zm0 0"/><path fill="#f2f2f3" d="m85.727 150.984 6.543 43.536-31.25-25.829Zm0 0"/><path fill="#fcfcfd" d="m137.625 207.371 27.234 11.527-12.078 11.868Zm0 0"/><path fill="#fefefe" d="m143.32 246.691-18.129-12.546 27.59-3.38Zm0 0"/><path fill="#fefefe" d="m125.191 234.145 12.434-26.774 15.156 23.395Zm0 0"/><path fill="#fcfcfc" d="m137.625 207.371-12.434 26.774L92.27 194.52Zm0 0"/><path fill="#fefefe" d="m125.191 234.145 18.13 12.546-16.954 20.657Zm0 0"/><path fill="#fdfdfd" d="m129.309 171.023 8.316 36.348L92.27 194.52Zm0 0"/><path fill="#fefefe" d="m37.113 204.012 46.723 54.855-48.117 10.977Zm0 0"/><path fill="#fdfdfd" d="m83.836 258.867-46.723-54.855 55.157-9.492Zm0 0"/><path fill="#fefefe" d="m158.434 248.25-8.79 20.64-6.324-22.199Zm0 0"/><path fill="#201533" d="m158.434 248.25 7.488-5.227 9.383 21.028ZM161.29 233.387l-6.602 7.101-1.907-9.722Zm0 0"/><path fill="#201533" d="m165.922 243.023-11.234-2.535 6.601-7.101Zm0 0"/><path fill="#fefefe" d="m154.688 240.488-11.368 6.203 9.461-15.925ZM154.688 240.488l3.746 7.762-15.114-1.559Zm0 0"/><path fill="#201533" d="m158.434 248.25-3.746-7.762 11.234 2.535Zm0 0"/><path fill="#b1adb7" d="m184.3 195.375-1.12 17.684-13.246-19.254Zm0 0"/><path fill="#696276" d="m183.18 213.059-2.602 18.683-15.719-12.844Zm0 0"/><path fill="#fefefe" d="m207.137 282.258-16.727-15.98 13.957-2.118Zm0 0"/><path fill="#fefefe" d="m190.41 266.277 16.727 15.98-16.766.087Zm0 0"/><path fill="#201533" d="m190.41 266.277-2.422-14.043 16.38 11.926ZM187.988 252.234l2.422 14.043-15.105-2.226Zm0 0"/><path fill="#fefefe" d="m243.695 250.531-12.097-14.68 25.183-6.593Zm0 0"/><path fill="#fff" d="m313.32 294.398-35.41 10.977-10.414-23.34Zm0 0"/><path fill="#fefefe" d="m259.383 321.965.082-18.106 9.957 14.38Zm0 0"/><path fill="#201533" d="m259.465 303.86-.082 18.105-13.567-11.777Zm0 0"/><path fill="#fefefe" d="m259.465 303.86 18.445 1.515-8.488 12.863ZM277.91 305.375l-18.445-1.516 8.031-21.824ZM249.602 280.32l.335-13.535 17.56 15.25ZM365.656 249.547l-52.336 44.851-25.879-45.128ZM313.32 294.398l52.336-44.851-9.406 62.25Zm0 0"/><path fill="#c9c6ce" d="m256.781 229.258 9.809-35.36 38.59-.578Zm0 0"/><path fill="#777183" d="m287.441 249.27-30.66-20.012 48.399-35.938Zm0 0"/><path fill="#b0acb7" d="m243.695 250.531 13.086-21.273 30.66 20.012Zm0 0"/><path fill="#fefefe" d="m127.176 292.445 5.847 10.625-12.585-.793ZM111.906 287.969l15.27 4.476-6.739 9.832Zm0 0"/><path fill="#fefefe" d="m120.438 302.277 1.93 19.082-19.391 4.239Zm0 0"/><path fill="#201533" d="m133.023 303.07-10.656 18.29-1.93-19.083ZM164.754 314.188l-15.899 17.187-.964-27.879ZM24.77 350.316l21.753.391-25.777 12.074Zm0 0"/><path fill="#fefefe" d="m103.902 346.117-.925-20.52 9.945 8.93Zm0 0"/><path fill="#201533" d="m165.152 279.352 4.762 12.187-22.023 11.957Zm0 0"/><path fill="#201533" d="m158.75 273.777 6.402 5.575-17.261 24.144ZM171.898 331.582l-11.32 16.484-11.723-16.691Zm0 0"/><path fill="#fefefe" d="m160.578 348.066 21.121-2.511-10.902 14.187Zm0 0"/><path fill="#201533" d="m181.7 345.555-21.122 2.511 11.32-16.484ZM337.504 350.492l14.8-5.742-3.988 16.5Zm0 0"/><path fill="#201533" d="m326.168 363.566 11.336-13.074 10.812 10.758ZM327.965 350.375l9.539.117-11.336 13.074Zm0 0"/><path fill="#fefefe" d="m352.305 344.75-14.801 5.742 1.363-21.043Zm0 0"/><path fill="#fefefe" d="m337.504 350.492-9.54-.117 10.903-20.926Zm0 0"/><path fill="#201533" d="m266.191 351.234-4.812 16.579-17.383-19.184ZM261.379 367.813l4.812-16.579 12.04 13.93Zm0 0"/><path fill="#201533" d="m266.191 351.234 13.055-2.28-1.016 16.21ZM279.246 348.953l-13.055 2.281 7.418-11.71ZM258.566 335.984l7.625 15.25-22.195-2.605Zm0 0"/><path fill="#201533" d="m266.191 351.234-7.625-15.25 15.043 3.54Zm0 0"/><path fill="#251b38" d="m230.797 333.73 13.2 14.899-16.626 2.621Zm0 0"/><path fill="#201533" d="m258.566 335.984 7.36-5.8 7.683 9.34Zm0 0"/><path fill="#fefefe" d="m265.926 330.184-6.543-8.22 10.039-3.726Zm0 0"/><path fill="#201533" d="m265.926 330.184-7.36 5.8.817-14.02ZM235.273 277.094l12.989 26.004-20.508-20.621Zm0 0"/><path fill="#fefefe" d="m259.465 303.86-11.203-.762 19.234-21.063ZM248.262 303.098l1.34-22.778 17.894 1.715Zm0 0"/><path fill="#fefefe" d="m249.602 280.32-1.34 22.778-12.989-26.004Zm0 0"/><path fill="#201533" d="m227.754 282.477 20.508 20.62-2.446 7.09ZM248.262 303.098l11.203.761-13.649 6.329Zm0 0"/><path fill="#fefefe" d="m20.176 332.938-20.188-7.465 26.407-15.387Zm0 0"/><path fill="#fefefe" d="m-.012 325.473 20.188 7.464-8.317 4.254Zm0 0"/><path fill="#b3afb9" d="m287.25 358.156 10.05 1.719-19.07 5.29Zm0 0"/><path fill="#201533" d="m317.512 364.703-20.211-4.828 21.004-2.664Zm0 0"/><path fill="#fefefe" d="m297.3 359.875.352-13.754 20.653 11.09Zm0 0"/><path fill="#fdfdfd" d="m297.652 346.121-.351 13.754-10.051-1.719Zm0 0"/><path fill="#201533" d="m297.3 359.875 23.06 24.129-42.13-18.84Zm0 0"/><path fill="#201533" d="m320.36 384.004-23.06-24.129 20.212 4.828Zm0 0"/><path fill="#fefefe" d="m313.238 334.277 14.727 16.098-9.66 6.836Zm0 0"/><path fill="#fefefe" d="m297.652 346.121 15.586-11.844 5.067 22.934ZM327.965 350.375l-14.727-16.098 25.63-4.828ZM313.238 334.277l.082-39.879 25.547 35.051Zm0 0"/><path fill="#201533" d="m204.281 328.988 26.516 4.742-22.207 12.633ZM197.938 344.809l6.343-15.82 4.309 17.374Zm0 0"/><path fill="#201533" d="m230.797 333.73-26.516-4.742 20.383-16.367Zm0 0"/><path fill="#fefefe" d="m190.629 299.262-18.695.925 11.976-9.507Zm0 0"/><path fill="#201533" d="m169.914 291.54 2.02 8.647-4.973 1.301Zm0 0"/><path fill="#fefefe" d="m171.934 300.188-2.02-8.649 13.996-.86ZM207.137 282.258l-2.414 14.87-8.856-4.425Zm0 0"/><path fill="#201533" d="m185.555 319.152 15.812-6.136 2.914 15.972ZM217.32 280.559l7.348-13.391 3.086 15.309ZM217.32 280.559l10.434 1.918-3.09 30.144Zm0 0"/><path fill="#4e455d" d="m209.633 182.988 2.629 9.2-14.79-2.032Zm0 0"/><path fill="#fefefe" d="m212.262 192.188-2.63-9.2 15.255-1.066Zm0 0"/><path fill="#f8f8f9" d="m209.633 182.988-.727-19.66 15.98 18.594Zm0 0"/><path fill="#221735" d="m209.633 182.988-2.363-19.93 1.636.27Zm0 0"/><path fill="#453c55" d="m207.27 163.059-9.797 27.097-12.102-18.426Zm0 0"/><path fill="#675f74" d="m207.27 163.059 2.363 19.93-12.16 7.167Zm0 0"/><path fill="#fdfdfd" d="m205.914 143.617.39-11.246 11.122 9.129Zm0 0"/><path fill="#fefefe" d="m207.27 163.059-1.356-19.442 11.512-2.117Zm0 0"/><path fill="#201533" d="m205.914 143.617-17.465 2.211 7.207-12.215Zm0 0"/><path fill="#201533" d="m206.305 132.371-.39 11.246-10.259-10.004Zm0 0"/><path fill="#fefefe" d="m83.836 258.867 41.355-24.722 1.176 33.203Zm0 0"/><path fill="#f8f8f8" d="m37.113 204.012-4.777-36.2 28.684.88Zm0 0"/><path fill="#f8f7f8" d="m92.27 194.52-55.157 9.492 23.907-35.32Zm0 0"/><path fill="#201533" d="m198.602 219.992-15.422-6.933 13.804-7.106Zm0 0"/><path fill="#201533" d="m198.602 219.992-18.024 11.75 2.602-18.683Zm0 0"/><path fill="#fefefe" d="m249.602 280.32-14.329-3.226 14.665-10.309Zm0 0"/><path fill="#fefefe" d="m235.273 277.094-4.12-13.512 18.785 3.203Zm0 0"/><path fill="#201533" d="m235.273 277.094-10.605-9.926 6.484-3.586ZM224.668 267.168l10.605 9.926-7.52 5.383ZM198.602 219.992l5.043 23.07-23.067-11.32Zm0 0"/><path fill="#201533" d="m198.602 219.992 19.859 9.313-14.816 13.757Zm0 0"/><path fill="#fefefe" d="m231.598 235.852-13.137-6.547 38.32-.047ZM243.695 250.531l6.243 16.254-18.786-3.203Zm0 0"/><path fill="#fdfdfd" d="m243.695 250.531-19.953-3.011 7.856-11.668Zm0 0"/><path fill="#201533" d="m203.645 243.063 20.097 4.457-10.512 13.835ZM223.742 247.52l.926 19.648-11.438-5.813Zm0 0"/><path fill="#201533" d="m218.46 229.305 5.282 18.215-20.097-4.458Zm0 0"/><path fill="#201533" d="m223.742 247.52-5.281-18.215 13.137 6.547ZM224.668 267.168l-.926-19.648 7.41 16.062Zm0 0"/><path fill="#fefefe" d="m223.742 247.52 19.953 3.011-12.543 13.051Zm0 0"/><path fill="#fff" d="m288.117 325.906-10.207-20.531 35.41-10.977Zm0 0"/><path fill="#fefefe" d="m313.238 334.277-25.12-8.37 25.202-31.509Zm0 0"/><path fill="#fefefe" d="m288.117 325.906 25.121 8.371-15.586 11.844Zm0 0"/><path fill="#fff" d="m277.91 305.375 10.207 20.531-18.695-7.668Zm0 0"/><path fill="#95909e" d="m214.023 207.523-15.421 12.47-1.618-14.04Zm0 0"/><path fill="#868090" d="m197.473 190.156 16.55 17.367-17.039-1.57Zm0 0"/><path fill="#5a5268" d="m214.023 207.523 4.438 21.782-19.86-9.313Zm0 0"/><path fill="#716a7d" d="m214.023 207.523-16.55-17.367 14.789 2.031Zm0 0"/><path fill="#fefefe" d="m122.367 321.36-9.445 13.167-9.945-8.93Zm0 0"/><path fill="#201533" d="m122.367 321.36 7.598 10.78-17.043 2.387ZM171.898 331.582l-7.144-17.394 20.8 4.964Zm0 0"/><path fill="#fefefe" d="m55.418 307.816-17.453 30.88-11.57-28.61Zm0 0"/><path fill="#201533" d="m37.965 338.695 8.558 12.012-21.753-.39Zm0 0"/><path fill="#fefefe" d="m86.246 340.703 16.73-15.105.926 20.52Zm0 0"/><path fill="#fff" d="m102.977 325.598-16.73 15.105.343-30.164Zm0 0"/><path fill="#fff" d="m86.246 340.703-17.058-5.426L86.59 310.54Zm0 0"/><path fill="#201533" d="m165.152 279.352 10.196.39-5.434 11.797Zm0 0"/><path fill="#fefefe" d="m175.348 279.742 15.023 2.602-6.46 8.336ZM169.914 291.54l5.434-11.798 8.562 10.938Zm0 0"/><path fill="#fefefe" d="m175.348 279.742 15.062-13.465-.039 16.067ZM190.41 266.277l-15.062 13.465-.043-15.691Zm0 0"/><path fill="#201533" d="m175.348 279.742-10.196-.39 10.153-15.301ZM158.75 273.777l-.316-25.527 16.87 15.8ZM165.152 279.352l-6.402-5.575 16.555-9.726Zm0 0"/><path fill="#201533" d="m158.434 248.25.316 25.527-9.105-4.886Zm0 0"/><path fill="#fefefe" d="m198.957 354.344-1.02-9.535 10.653 1.554ZM198.957 354.344l9.633-7.98 12.77 17.894ZM194.094 364.047l4.863-9.703 22.402 9.914ZM181.7 345.555l12.394 18.492-23.297-4.305Zm0 0"/><path fill="#f9f9fa" d="m170.797 359.742 23.297 4.305-23.313 6.031Zm0 0"/><path fill="#fcfcfc" d="m194.094 364.047-15.446 12.598-7.867-6.567Zm0 0"/><path fill="#fefefe" d="m181.7 345.555 16.238-.746 1.019 9.535Zm0 0"/><path fill="#fefefe" d="m194.094 364.047-12.395-18.492 17.258 8.789Zm0 0"/><path fill="#201533" d="m188.41 334.012-16.512-2.43 13.657-12.43ZM188.41 334.012l-6.71 11.543-9.802-13.973ZM243.559 327.504l15.007 8.48-14.57 12.645Zm0 0"/><path fill="#201533" d="m230.797 333.73 12.762-6.226.437 21.125ZM258.566 335.984l-15.007-8.48 15.824-5.54ZM212.07 298.219l5.25-17.66 7.344 32.062Zm0 0"/><path fill="#fefefe" d="m212.07 298.219-7.347-1.09 2.414-14.871Zm0 0"/><path fill="#201533" d="m217.32 280.559-5.25 17.66-4.933-15.961ZM204.281 328.988l-2.914-15.972 23.297-.395Zm0 0"/><path fill="#fefefe" d="m199.227 302.559-8.598-3.297 5.238-6.559Zm0 0"/><path fill="#fefefe" d="m204.723 297.129-5.496 5.43-3.36-9.856Zm0 0"/><path fill="#201533" d="m192.996 154.04 14.274 9.019-21.899 8.671Zm0 0"/><path fill="#201533" d="m192.996 154.04-7.625 17.69.492-17.234Zm0 0"/><path fill="#201533" d="m188.45 145.828 4.546 8.211-7.133.457Zm0 0"/><path fill="#201533" d="m205.914 143.617-12.918 10.422-4.547-8.21Zm0 0"/><path fill="#4f465e" d="m192.996 154.04 12.918-10.423 1.356 19.442Zm0 0"/><path fill="#fefefe" d="m151.574 157.012-25.687-22.543 33.582.902ZM169.934 193.805l-18.36-36.793 22.121 4.426Zm0 0"/><path fill="#fdfdfe" d="m151.574 157.012 18.36 36.793-40.625-22.782Zm0 0"/><path fill="#4d455d" d="m164.86 218.898 5.074-25.093 13.246 19.254Zm0 0"/><path fill="#fcfcfc" d="m137.625 207.371 32.309-13.566-5.075 25.093Zm0 0"/><path fill="#fefefe" d="m129.309 171.023 40.625 22.782-32.309 13.566Zm0 0"/><path fill="#fdfdfe" d="m218.46 229.305 8.79-14.188 29.531 14.14Zm0 0"/><path fill="#fdfdfd" d="m214.023 207.523 13.227 7.594-8.79 14.188Zm0 0"/><path fill="#fefefe" d="m288.117 325.906-22.191 4.278 3.496-11.946Zm0 0"/><path fill="#fefefe" d="m265.926 330.184 22.191-4.278-14.508 13.617Zm0 0"/><path fill="#201533" d="m147.89 303.496-25.523 17.863 10.656-18.289ZM129.965 332.14l17.926-28.644.964 27.879Zm0 0"/><path fill="#201533" d="m122.367 321.36 25.524-17.864-17.926 28.645ZM171.934 300.188l-.395 3.882-4.578-2.582Zm0 0"/><path fill="#201533" d="m171.54 304.07-6.786 10.118 2.207-12.7Zm0 0"/><path fill="#201533" d="m164.754 314.188 6.785-10.118 14.016 15.082Zm0 0"/><path fill="#fefefe" d="m37.965 338.695-17.79-5.757 6.22-22.852Zm0 0"/><path fill="#201533" d="m20.176 332.938 4.594 17.378-12.91-13.125Zm0 0"/><path fill="#fefefe" d="m20.176 332.938 17.789 5.757-13.195 11.621Zm0 0"/><path fill="#201533" d="m171.898 331.582-23.043-.207 15.899-17.187Zm0 0"/><path fill="#291e3b" d="m160.578 348.066-26.766 4.454 15.043-21.145Zm0 0"/><path fill="#fefefe" d="m160.578 348.066 10.219 11.676-19.317 6.461Zm0 0"/><path fill="#201533" d="m107.395 359.992 11.953-10.941-5.313 23.41ZM129.965 332.14l-10.617 16.91-6.426-14.523ZM119.348 349.05l-15.446-2.933 9.02-11.59Zm0 0"/><path fill="#201533" d="m103.902 346.117 15.446 2.934-11.953 10.941ZM133.813 352.52l-14.465-3.47 10.617-16.91ZM243.559 327.504l-12.762 6.226-6.133-21.109ZM259.383 321.965l-15.824 5.539 2.257-17.317Zm0 0"/><path fill="#fefefe" d="m199.227 302.559-8.372 1.867-.226-5.164Zm0 0"/><path fill="#201533" d="m171.54 304.07 19.315.356-5.3 14.726Zm0 0"/><path fill="#fefefe" d="m190.855 304.426-18.921-4.238 18.695-.926Zm0 0"/><path fill="#fefefe" d="m190.855 304.426-19.316-.356.395-3.882ZM212.07 298.219l-3.879 6.039-3.468-7.13Zm0 0"/><path fill="#fefefe" d="m208.191 304.258-8.964-1.7 5.496-5.43Zm0 0"/><path fill="#201533" d="m208.191 304.258 3.88-6.04 12.593 14.403ZM201.367 313.016l6.824-8.758 16.473 8.363Zm0 0"/><path fill="#fefefe" d="m129.309 171.023-3.422-36.554 25.687 22.543Zm0 0"/><path fill="#fdfdfd" d="m83.836 258.867 8.434-64.347 32.921 39.625Zm0 0"/><path fill="#fcfcfc" d="m231.125 197.156-3.875 17.961-13.227-7.594Zm0 0"/><path fill="#fdfdfd" d="m231.125 197.156-17.102 10.367-1.761-15.335Zm0 0"/><path fill="#fcfcfc" d="m227.25 215.117 3.875-17.96 25.656 32.1Zm0 0"/><path fill="#fefefe" d="m285.273 344.441-6.027 4.512-5.637-9.43Zm0 0"/><path fill="#fefefe" d="m288.117 325.906-2.844 18.535-11.664-4.918Zm0 0"/><path fill="#fefefe" d="m285.273 344.441 1.977 13.715-8.004-9.203Zm0 0"/><path fill="#fefefe" d="m285.273 344.441 12.38 1.68-10.403 12.035Zm0 0"/><path fill="#fefefe" d="m285.273 344.441 2.844-18.535 9.535 20.215Zm0 0"/><path fill="#201533" d="m148.855 331.375-15.042 21.145-3.848-20.38Zm0 0"/><path fill="#fdfdfd" d="m143.086 359.418 17.492-11.352-9.098 18.137Zm0 0"/><path fill="#fdfcfd" d="m132.277 373.262 10.809-13.844 8.394 6.785Zm0 0"/><path fill="#201533" d="m143.086 359.418-9.274-6.898 26.766-4.454Zm0 0"/><path fill="#201533" d="m119.348 349.05 14.465 3.47-19.778 19.94Zm0 0"/><path fill="#201635" d="m133.813 352.52 9.273 6.898-10.809 13.844Zm0 0"/><path fill="#201533" d="m188.41 334.012-2.855-14.86 18.726 9.836ZM197.938 344.809l-9.528-10.797 15.871-5.024Zm0 0"/><path fill="#201533" d="m181.7 345.555 6.71-11.543 9.528 10.797ZM243.559 327.504l-18.895-14.883 21.152-2.433ZM201.367 313.016l-10.512-8.59 8.372-1.867ZM208.191 304.258l-6.824 8.758-2.14-10.457Zm0 0"/><path fill="#201533" d="m190.855 304.426 10.512 8.59-15.812 6.136Zm0 0"/><path fill="#fefefe" d="m129.309 171.023-43.582-20.039 40.16-16.515Zm0 0"/><path fill="#fcfcfc" d="m85.727 150.984 43.582 20.04-37.04 23.496Zm0 0"/></svg>