<svg xmlns="http://www.w3.org/2000/svg" width="512" height="512" viewBox="0 0 384 384"><path fill="#cdc67a" d="M117.29 114.648 69.077 101.18l32.809-30.739Zm0 0"/><path fill="#cbc479" d="m140.238 86.895-22.949 27.753-15.402-44.207Zm0 0"/><path fill="#ccc57a" d="m117.29 114.648 22.948-27.753 5.262 22.03Zm0 0"/><path fill="#cac379" d="m210.387 49.469-45.645-6.918L215.977 0Zm0 0"/><path fill="#202215" d="m204.387 196.434-3.45 7.699-9.449-17.227Zm0 0"/><path fill="#202215" d="m200.938 204.133 3.449-7.7 3.875 3.434Zm0 0"/><path fill="#d0c97c" d="m69.078 101.18 30.082 38.879-35.476 28.613Zm0 0"/><path fill="#cec77b" d="m99.16 140.059-30.082-38.88 48.211 13.47Zm0 0"/><path fill="#d3cc7e" d="m0 300.371 32.61-23.933 6.808 16.59Zm0 0"/><path fill="#cec77b" d="M99.023 0 58.996 54.824.008 0Zm0 0"/><path fill="#d0c97c" d="m69.078 101.18-69.086 3.203 59.004-49.559Zm0 0"/><path fill="#d1ca7d" d="m-.008 104.383 69.086-3.203-5.394 67.492Zm0 0"/><path fill="#cbc479" d="m99.023 0 65.72 42.55-62.856 27.891Zm0 0"/><path fill="#c7c177" d="M58.996 54.824 99.023 0l2.864 70.441Zm0 0"/><path fill="#d1ca7d" d="m229.531 245.953-21.058-13.894 22.691-14.883Zm0 0"/><path fill="#cec77b" d="m265.133 244.492-35.602 1.461 1.633-28.777Zm0 0"/><path fill="#cfc87b" d="m229.531 245.953 35.602-1.46-20.195 16.144Zm0 0"/><path fill="#202215" d="m204.89 207.813-3.952-3.68 7.324-4.266Zm0 0"/><path fill="#cfc87b" d="m231.164 217.176-26.273-9.363 3.37-7.946Zm0 0"/><path fill="#cec77b" d="m204.89 207.813 26.274 9.363-22.691 14.883Zm0 0"/><path fill="#202215" d="m148.797 190.223 29.508 19.328-26.82 18.77Zm0 0"/><path fill="#d1ca7d" d="m58.824 370.715-20.226-13.488 22.62-2.973Zm0 0"/><path fill="#d1ca7d" d="m38.598 357.227 6.027-6.856 16.594 3.883Zm0 0"/><path fill="#d2ca7d" d="m115.238 157.453-14.183 22.188-37.371-10.97Zm0 0"/><path fill="#202215" d="m112.082 230.895-7.684-26.282 44.399-14.39Zm0 0"/><path fill="#c7c076" d="m325.105 52.332-39.007 3.05L285.78.005Zm0 0"/><path fill="#cbc479" d="m215.977 0 22.496 71.05-28.086-21.581Zm0 0"/><path fill="#c6bf76" d="m299.777 89.195-13.68-33.812 39.008-3.051Zm0 0"/><path fill="#cfc77b" d="m348.05 243.3-6.445-14.616 21.082 14.671Zm0 0"/><path fill="#cec77b" d="m280.492 198.422-49.328 18.754.469-26.813Zm0 0"/><path fill="#cec77b" d="m280.492 198.422-15.36 46.07-33.968-27.316Zm0 0"/><path fill="#cfc87b" d="m280.492 198.422 61.555 7.933-37.2 31.993Zm0 0"/><path fill="#c7c077" d="m323.629 338.8 60.363 45.184-84.773.032Zm0 0"/><path fill="#ccc57a" d="m384 265.79.012 49.237-24.746-39.75Zm0 0"/><path fill="#ccc57a" d="m384.012 315.027-45.055-15.18 20.309-24.57Zm0 0"/><path fill="#cdc67a" d="m338.957 299.848 45.055 15.18-60.383 23.773Zm0 0"/><path fill="#cac378" d="M-.008 104.383.008 0l58.988 54.824Zm0 0"/><path fill="#cfc77b" d="M69.078 101.18 58.996 54.824l42.89 15.617Zm0 0"/><path fill="#ccc57a" d="M99.023 0h116.954l-51.235 42.55ZM164.742 42.55l-24.504 44.345-38.351-16.454Zm0 0"/><path fill="#d0c97c" d="m233.352 267.313-3.82-21.36 15.405 14.684Zm0 0"/><path fill="#ccc579" d="m204.89 207.813-13.07 11.453 9.118-15.133Zm0 0"/><path fill="#ccc57a" d="m208.473 232.059-16.653-12.793 13.07-11.453Zm0 0"/><path fill="#202215" d="m164.5 152.402 22.27 11.98-37.973 25.84Zm0 0"/><path fill="#202215" d="m186.77 164.383-22.27-11.98 21.98-8.38ZM101.055 179.64l33.687-18.827 14.055 29.41Zm0 0"/><path fill="#202215" d="m134.742 160.813-33.687 18.828 14.183-22.188ZM178.305 209.55l-29.508-19.327 42.691-3.317Zm0 0"/><path fill="#202215" d="m200.938 204.133-22.633 5.418 13.183-22.645Zm0 0"/><path fill="#202215" d="m191.82 219.266-13.515-9.715 22.632-5.418Zm0 0"/><path fill="#d1c97c" d="m99.16 140.059 14.95 1.52 1.128 15.874Zm0 0"/><path fill="#d1c97c" d="m99.16 140.059 16.078 17.394-51.554 11.219Zm0 0"/><path fill="#cfc87c" d="m114.11 141.578-14.95-1.52 18.13-25.41Zm0 0"/><path fill="#d0c97c" d="M58.824 370.715 0 383.996l38.598-26.77Zm0 0"/><path fill="#202215" d="m44.625 350.371 24.012-7.66-7.418 11.543ZM97.152 276.672l13.184 6.047-4.398 11.984ZM104.398 204.613l-3.343-24.972 47.742 10.582Zm0 0"/><path fill="#202215" d="m101.055 179.64 3.343 24.973-17.265-5.36Zm0 0"/><path fill="#d2ca7d" d="m101.055 179.64-13.922 19.614-23.45-30.582Zm0 0"/><path fill="#202215" d="m41.863 241.715-13.87 4.594-6.802-20.637Zm0 0"/><path fill="#d0c97c" d="m76.95 360.773 13.683-1.355-1.156 24.578Zm0 0"/><path fill="#d1ca7c" d="m90.633 359.418-13.684 1.355 8.473-7.484Zm0 0"/><path fill="#d0c97c" d="m89.477 383.996 1.156-24.578 31.262-8.992Zm0 0"/><path fill="#cfc87b" d="m210.531 335.98 17.664 22.047-50.011 25.977Zm0 0"/><path fill="#d0c97c" d="m127.535 292.613 35.238 24.606-41.988-3Zm0 0"/><path fill="#d1ca7d" d="m36.46 336.465 8.165 13.906-6.027 6.856Zm0 0"/><path fill="#d0c87c" d="m98.188 328.488 22.597-14.27 1.11 36.208Zm0 0"/><path fill="#cfc87c" d="m351.523 118.941-9.527 25.266-9.77-13.527Zm0 0"/><path fill="#cec77b" d="m341.996 144.207 9.527-25.266L384 164.821Zm0 0"/><path fill="#ccc579" d="M351.523 118.941 384 76.511v88.31Zm0 0"/><path fill="#cbc479" d="m384 76.512-32.477 42.43-20.074-29.215Zm0 0"/><path fill="#cdc67a" d="m251.121 159.98 29.371 38.442-48.86-8.059Zm0 0"/><path fill="#cdc67a" d="m223.7 176.91 27.421-16.93-19.488 30.383Zm0 0"/><path fill="#cbc479" d="m331.45 89.727-6.345-37.395L384 76.512Zm0 0"/><path fill="#cac479" d="m331.45 89.727-31.673-.532 25.328-36.863Zm0 0"/><path fill="#cdc67a" d="m305.703 278.863 2.125-13.629L317 273.73Zm0 0"/><path fill="#cec77b" d="m280.492 198.422 24.356 39.926-39.715 6.144Zm0 0"/><path fill="#cec77b" d="m304.848 238.348-16.692 30.402-23.023-24.258ZM304.848 238.348l2.98 26.886-19.672 3.516Zm0 0"/><path fill="#202215" d="m310.52 285.328-4.817-6.465L317 273.73Zm0 0"/><path fill="#cec77b" d="m383.996 213.863-41.95-7.508L384 164.82Zm0 0"/><path fill="#202215" d="m322.45 290.465-11.93-5.137L317 273.73ZM332.008 261.305l-2.301-13.735 10.856-3.035ZM338.02 262.152l-6.012-.847 8.555-16.77ZM348.05 243.3l3.16 12.946-10.647-11.71Zm0 0"/><path fill="#202215" d="m351.21 256.246-13.19 5.906 2.543-17.617ZM351.21 256.246l-3.16-12.945 14.637.054Zm0 0"/><path fill="#cfc77b" d="m342.047 206.355-.442 22.329-36.757 9.664Zm0 0"/><path fill="#d0c87c" d="m341.605 228.684 6.446 14.617-7.488 1.234Zm0 0"/><path fill="#cfc87b" d="m341.605 228.684-11.898 18.886-24.86-9.222Zm0 0"/><path fill="#d0c97c" d="m329.707 247.57 11.898-18.886-1.043 15.851Zm0 0"/><path fill="#cfc87c" d="m263.598 288.148-30.246-20.836 11.585-6.675Zm0 0"/><path fill="#202215" d="m254.758 299.273 8.84-11.125 6.824 15.622Zm0 0"/><path fill="#d0c97c" d="m265.133 244.492-1.535 43.656-18.66-27.511Zm0 0"/><path fill="#cfc87c" d="m265.133 244.492 23.023 24.258-24.558 19.398Zm0 0"/><path fill="#cec77b" d="m384.012 315.027-.02 68.957-60.363-45.183Zm0 0"/><path fill="#202215" d="m196.625 67.23 12.398-1.98-13.21 3.586Zm0 0"/><path fill="#ccc57a" d="M210.387 49.469 196.625 67.23l-31.883-24.68ZM209.023 65.25l-12.398 1.98 13.762-17.761Zm0 0"/><path fill="#cac378" d="M238.473 71.05 215.977 0l69.804.004Zm0 0"/><path fill="#c6c076" d="M238.473 71.05 285.78.005l.317 55.379Zm0 0"/><path fill="#202215" d="m215.809 184.492-5.93-15 13.82 7.418Zm0 0"/><path fill="#cbc479" d="m231.633 190.363-15.824-5.87 7.89-7.583Zm0 0"/><path fill="#cec77b" d="M160.328 98.223 145.5 108.926l-5.262-22.031Zm0 0"/><path fill="#cfc77b" d="m155.234 114.504-9.734-5.578 14.828-10.703Zm0 0"/><path fill="#d0c97c" d="m145.5 108.926 9.734 5.578-7.847 14.172Zm0 0"/><path fill="#202215" d="m186.77 164.383 4.718 22.523-42.691 3.317Zm0 0"/><path fill="#cfc87b" d="m114.11 141.578 9.492 1.969-8.364 13.906Zm0 0"/><path fill="#202215" d="m123.602 143.547 11.14 17.266-19.504-3.36Zm0 0"/><path fill="#202215" d="m134.742 160.813 29.758-8.41-15.703 37.82Zm0 0"/><path fill="#d3cb7d" d="m0 383.996 20.758-44.875 17.84 18.106Zm0 0"/><path fill="#d3cb7d" d="m20.758 339.121 15.703-2.656 2.137 20.762Zm0 0"/><path fill="#d3cc7e" d="m36.46 336.465-15.702 2.656L31.41 316.18ZM20.758 339.121 0 300.371l31.41 15.809Zm0 0"/><path fill="#d2cb7d" d="M20.758 339.121 0 383.996v-83.625Zm0 0"/><path fill="#202215" d="m76.95 360.773-8.313-18.062 16.785 10.578ZM68.637 342.71l15.496-2.003 1.289 12.582Zm0 0"/><path fill="#202215" d="m84.133 340.707-15.496 2.004 9.687-18.043Zm0 0"/><path fill="#d2ca7d" d="m-.008 104.383 63.692 64.289L0 184.387Zm0 0"/><path fill="#d3cc7e" d="m49.078 215.785 14.606-47.113 5.289 49.77Zm0 0"/><path fill="#d4cc7e" d="m63.402 237.043-14.324-21.258 19.895 2.656Zm0 0"/><path fill="#d1ca7d" d="m63.684 168.672-14.606 47.113L0 184.387Zm0 0"/><path fill="#d3cc7e" d="m47.508 236.074-5.645 5.64-20.672-16.042Zm0 0"/><path fill="#d3cb7e" d="m49.078 215.785-1.57 20.29-26.317-10.403Zm0 0"/><path fill="#d4cd7e" d="m47.508 236.074 1.57-20.289 14.324 21.258Zm0 0"/><path fill="#202215" d="m13.883 247.164-13.86 1.508-.027-21.164Zm0 0"/><path fill="#d4cd7e" d="m.023 248.672 17.344 15.75L0 300.372Zm0 0"/><path fill="#d3cb7e" d="m0 300.371 17.367-35.95 15.242 12.017ZM0 184.387l21.191 41.285-21.195 1.836Zm0 0"/><path fill="#202215" d="m21.191 225.672-7.308 21.492-13.887-19.656Zm0 0"/><path fill="#d2ca7d" d="m49.078 215.785-27.887 9.887L0 184.387Zm0 0"/><path fill="#202215" d="m21.191 225.672 6.801 20.637-14.11.855ZM32.629 256.223l-4.637-9.914 13.871-4.594Zm0 0"/><path fill="#cfc87b" d="m90.633 359.418 1.262-9.828 30 .836Zm0 0"/><path fill="#d0c97c" d="m91.895 349.59-1.262 9.828-5.211-6.129Zm0 0"/><path fill="#cfc87b" d="m91.895 349.59 6.293-21.102 23.707 21.938Zm0 0"/><path fill="#202215" d="m84.133 340.707 7.762 8.883-6.473 3.7Zm0 0"/><path fill="#202215" d="m91.895 349.59-7.762-8.883 14.055-12.219Zm0 0"/><path fill="#cfc87c" d="m121.895 350.426-1.11-36.207 41.988 3Zm0 0"/><path fill="#cfc87b" d="m178.184 384.004-56.29-33.578 40.88-33.207Zm0 0"/><path fill="#cdc57a" d="m121.895 350.426 56.289 33.578-88.707-.008Zm0 0"/><path fill="#202215" d="m76.14 294.434 2.184 30.234-19.39-.203Zm0 0"/><path fill="#202215" d="m76.14 294.434 17.098 6.875-14.914 23.359ZM160.59 270.078l.394 10.219-19.109 2.476Zm0 0"/><path fill="#cec77b" d="m160.984 280.297 1.79 36.922-20.899-34.446Zm0 0"/><path fill="#cfc87c" d="m162.773 317.219-35.238-24.606 14.34-9.84Zm0 0"/><path fill="#202215" d="m68.723 272.488-16.184-1.605 11.445-10.25Zm0 0"/><path fill="#d4cc7e" d="m39.418 293.027 13.121-22.144 8.902 15.676Zm0 0"/><path fill="#d5cd7f" d="m52.54 270.883 16.183 1.605-7.282 14.07Zm0 0"/><path fill="#202215" d="m79.043 267.973-10.32 4.515-4.739-11.855Zm0 0"/><path fill="#d4cc7e" d="M31.41 316.18 0 300.37l39.418-7.344Zm0 0"/><path fill="#d4cd7e" d="m46.7 314.367-15.29 1.813 8.008-23.153Zm0 0"/><path fill="#202215" d="m68.637 342.71-9.703-18.245 19.39.203ZM58.934 324.465l9.703 18.246-24.012 7.66Zm0 0"/><path fill="#202215" d="m36.46 336.465 22.474-12-14.309 25.906Zm0 0"/><path fill="#202215" d="m42.746 321.32 3.953-6.953 12.235 10.098Zm0 0"/><path fill="#d2cb7d" d="m42.746 321.32-11.336-5.14 15.29-1.813Zm0 0"/><path fill="#d4cc7e" d="m42.746 321.32-6.285 15.145-5.05-20.285Zm0 0"/><path fill="#202215" d="m42.746 321.32 16.188 3.145-22.473 12ZM84.133 340.707l-5.809-16.039 19.864 3.82Zm0 0"/><path fill="#202215" d="m98.188 328.488-19.864-3.82 14.914-23.36Zm0 0"/><path fill="#cdc67a" d="m342.047 206.355-18.473-38.19L384 164.82Zm0 0"/><path fill="#cfc77b" d="m323.574 168.164 18.422-23.957L384 164.82Zm0 0"/><path fill="#cec77b" d="m320.973 106.95 30.55 11.991-19.296 11.739Zm0 0"/><path fill="#ccc57a" d="m320.973 106.95 10.476-17.223 20.074 29.214Zm0 0"/><path fill="#202215" d="m292.055 129.11 5.715-12.82 5.957 1.155Zm0 0"/><path fill="#cdc57a" d="m286.004 152.05-13.875-26.152 19.926 3.211Zm0 0"/><path fill="#ccc57a" d="m258.66 137.594 13.469-11.696 13.875 26.153Zm0 0"/><path fill="#202215" d="m272.129 125.898-16.8-1.992 12.944-14.504Zm0 0"/><path fill="#cbc479" d="m272.129 125.898-13.469 11.696-3.332-13.688Zm0 0"/><path fill="#cdc67a" d="m292.055 129.11 20.617 4.702-26.668 18.239Zm0 0"/><path fill="#cdc67a" d="m312.672 133.813 10.902 34.351-37.57-16.113Zm0 0"/><path fill="#202215" d="m255.328 123.906-18.633.828 1.078-7.629Zm0 0"/><path fill="#cec77b" d="m258.66 137.594-21.965-12.86 18.633-.828Zm0 0"/><path fill="#c8c177" d="M325.105 52.332 285.781.004 384.004 0Zm0 0"/><path fill="#cec77b" d="m307.828 265.234 15.637-6.046L317 273.73Zm0 0"/><path fill="#cfc87c" d="m304.848 238.348 18.617 20.84-15.637 6.046Zm0 0"/><path fill="#d1c97c" d="m329.707 247.57-6.242 11.618-18.617-20.84Zm0 0"/><path fill="#cdc67a" d="m307.828 265.234-2.125 13.63-17.547-10.114Zm0 0"/><path fill="#202215" d="M384.004 243.871 373 236.906l10.996-23.043Zm0 0"/><path fill="#cfc77b" d="M341.605 228.684 373 236.906l-10.312 6.45Zm0 0"/><path fill="#cec77b" d="M342.047 206.355 373 236.906l-31.395-8.222Zm0 0"/><path fill="#cec77b" d="M383.996 213.863 373 236.906l-30.953-30.55Zm0 0"/><path fill="#ccc57a" d="m322.45 290.465 11.073-10.867 5.434 20.25Zm0 0"/><path fill="#cdc67a" d="m333.523 279.598 25.743-4.32-20.309 24.57Zm0 0"/><path fill="#202215" d="m333.523 279.598-11.074 10.867L317 273.73Zm0 0"/><path fill="#ccc57a" d="m280.492 198.422 43.082-30.258 18.473 38.191Zm0 0"/><path fill="#cdc67b" d="m323.574 168.164-43.082 30.258 5.512-46.371Zm0 0"/><path fill="#202215" d="m254.758 299.273-21.406-31.96 30.246 20.835Zm0 0"/><path fill="#202215" d="m233.352 267.313 21.406 31.96-29.918-24.96ZM249.664 319.29l5.094-20.017 4.906 28.489ZM246.293 367.152 259.113 384l-24.71.004Zm0 0"/><path fill="#c9c378" d="m287.578 349.977 36.05-11.176-24.41 45.215Zm0 0"/><path fill="#cac378" d="m258.664 361.254 28.914-11.277 11.64 34.039Zm0 0"/><path fill="#cec77b" d="m338.957 299.848-20.785 2.82 4.277-12.203Zm0 0"/><path fill="#cdc67a" d="m281.355 293.398-17.757-5.25 24.558-19.398Zm0 0"/><path fill="#d2ca7d" d="m263.598 288.148 17.757 5.25-10.933 10.372Zm0 0"/><path fill="#202215" d="m281.355 293.398 7.137 16.57-18.07-6.198ZM288.492 309.969l-15.441 15.789-2.63-21.988ZM171.652 103.328l-16.418 11.176 5.094-16.281ZM182.36 113.922l-10.708-10.594 13.7-.871ZM155.234 114.504l16.418-11.176 10.707 10.594Zm0 0"/><path fill="#cec77b" d="m170.758 84.152-11.078-1.207 5.062-40.394Zm0 0"/><path fill="#ccc57a" d="m164.742 42.55-5.062 40.395-19.442 3.95Zm0 0"/><path fill="#cac378" d="m159.68 82.945.648 15.278-20.09-11.328Zm0 0"/><path fill="#202215" d="m219.977 96.527 7.859 10.664-4.059 2.008ZM245.656 106.379l9.672 17.527-17.555-6.8ZM227.836 107.191l17.82-.812-7.883 10.726Zm0 0"/><path fill="#202215" d="m255.328 123.906-9.672-17.527 22.617 3.023Zm0 0"/><path fill="#ded684" d="m245.656 106.379 26.774-28.262-4.157 31.285Zm0 0"/><path fill="#dfd785" d="m272.43 78.117-26.774 28.262-8.629-12.766Zm0 0"/><path fill="#202215" d="m229.957 120.875-2.121-13.684 9.937 9.914Zm0 0"/><path fill="#202215" d="m227.836 107.191 2.121 13.684-6.18-11.676Zm0 0"/><path fill="#202215" d="m236.695 124.734-6.738-3.859 7.816-3.77ZM289.805 114.344l-17.676 11.554-3.856-16.496ZM297.77 116.29l-7.965-1.946 9.972-25.149Zm0 0"/><path fill="#202215" d="m289.805 114.344 7.965 1.945-5.715 12.82Zm0 0"/><path fill="#202215" d="m272.129 125.898 17.676-11.554 2.25 14.765ZM170.758 84.152l22.023 5.141-7.43 13.164Zm0 0"/><path fill="#dfd785" d="m192.781 89.293 1.242 16.305-8.671-3.141Zm0 0"/><path fill="#202215" d="M207.434 77.426 192.78 89.293l3.031-20.457Zm0 0"/><path fill="#d3cb7d" d="m187.871 70.05 8.754-2.82-.812 1.606Zm0 0"/><path fill="#202215" d="m192.781 89.293-4.91-19.242 7.941-1.215Zm0 0"/><path fill="#202215" d="m187.871 70.05 4.91 19.243-22.023-5.14Zm0 0"/><path fill="#d0c87c" d="m187.871 70.05-17.113 14.102-6.016-41.601Zm0 0"/><path fill="#cfc87b" d="m196.625 67.23-8.754 2.82-23.129-27.5Zm0 0"/><path fill="#d8d181" d="m200.781 257.68-14.437 13.187 3.23-9.738Zm0 0"/><path fill="#cfc87b" d="m233.352 267.313-12.407-8.461 8.586-12.899Zm0 0"/><path fill="#cfc87c" d="m195.621 250.445-5.121-15.793 17.973-2.593Zm0 0"/><path fill="#d9d181" d="m195.621 250.445 5.16 7.235-11.207 3.449Zm0 0"/><path fill="#d1c97c" d="m190.5 234.652 5.121 15.793-16.531-9.316Zm0 0"/><path fill="#cfc87b" d="m181.3 229.64 9.2 5.012-11.41 6.477Zm0 0"/><path fill="#202215" d="m178.305 209.55 2.996 20.09-29.817-1.32ZM112.082 230.895l.5 29.113-18.574-4.77Zm0 0"/><path fill="#cec77b" d="m228.5 157.832 22.621 2.148-27.422 16.93Zm0 0"/><path fill="#202215" d="m209.879 169.492 18.621-11.66-4.8 19.078ZM191.488 186.906l18.39-17.414 5.93 15ZM191.488 186.906l24.32-2.414-11.421 11.942Zm0 0"/><path fill="#cec77b" d="m208.262 199.867 23.37-9.504-.468 26.813Zm0 0"/><path fill="#c9c278" d="m231.633 190.363-23.371 9.504 7.547-15.375Zm0 0"/><path fill="#202215" d="m215.809 184.492-7.547 15.375-3.875-3.433Zm0 0"/><path fill="#dfd785" d="m209.3 122.344-12.253-3.602 11.125-10.183ZM197.047 118.742l-8.777 10.266-5.91-15.086Zm0 0"/><path fill="#202215" d="m171.563 131.035-16.329-16.531 27.125-.582Zm0 0"/><path fill="#202215" d="m188.27 129.008-16.708 2.027 10.797-17.113Zm0 0"/><path fill="#202215" d="m171.563 131.035 16.707-2.027-1.79 15.015ZM155.234 114.504l16.328 16.531-24.175-2.36Zm0 0"/><path fill="#202215" d="m171.563 131.035 14.917 12.988-21.98 8.38Zm0 0"/><path fill="#d0c97c" d="m117.29 114.648 6.312 28.899-9.493-1.969ZM58.824 370.715l2.395-16.461 15.73 6.52Zm0 0"/><path fill="#202215" d="m61.219 354.254 7.418-11.543 8.312 18.062Zm0 0"/><path fill="#d0c97c" d="m0 383.996 58.824-13.281 30.653 13.281Zm0 0"/><path fill="#d0c97c" d="m58.824 370.715 18.125-9.942 12.528 23.223Zm0 0"/><path fill="#cec77b" d="m119.762 272.914 7.773 19.7-17.2-9.895Zm0 0"/><path fill="#d3cb7e" d="m87.133 199.254-18.16 19.187-5.29-49.77Zm0 0"/><path fill="#202215" d="m13.883 247.164-.715.988-13.145.52Zm0 0"/><path fill="#d3cc7e" d="m17.367 264.422-4.199-16.27.715-.988Zm0 0"/><path fill="#d3cc7e" d="m13.168 248.152 4.2 16.27-17.345-15.75Zm0 0"/><path fill="#202215" d="m27.992 246.309-2.914 7.289-11.195-6.434Zm0 0"/><path fill="#202215" d="m32.629 256.223-7.55-2.625 2.913-7.29Zm0 0"/><path fill="#d3cc7e" d="m25.078 253.598-7.71 10.824-3.485-17.258Zm0 0"/><path fill="#202215" d="m41.441 256.742-8.812-.52 9.234-14.507ZM32.629 256.223l8.812.52-4.41 6.152Zm0 0"/><path fill="#d6ce7f" d="m32.61 276.438-4.04-14.188 8.461.645Zm0 0"/><path fill="#d4cd7e" d="m28.57 262.25 4.059-6.027 4.402 6.672Zm0 0"/><path fill="#d1ca7d" d="m28.57 262.25-3.492-8.652 7.55 2.625Zm0 0"/><path fill="#d3cb7d" d="m17.367 264.422 11.203-2.172 4.04 14.188Zm0 0"/><path fill="#d0c97c" d="m25.078 253.598 3.492 8.652-11.203 2.172Zm0 0"/><path fill="#cdc67a" d="m110.336 282.719 2.394 14.383-6.793-2.399Zm0 0"/><path fill="#ccc57a" d="m127.535 292.613-14.805 4.489-2.394-14.383Zm0 0"/><path fill="#d0c97c" d="m120.785 314.219-8.055-17.117 14.805-4.489Zm0 0"/><path fill="#ded684" d="m206.262 300.645 22.285 14.617-18.016 20.718Zm0 0"/><path fill="#d0c87c" d="m184.703 277.656-21.93 39.563-1.789-36.922Zm0 0"/><path fill="#d5ce7f" d="m184.703 277.656 1.64-6.789 6.262 6.145Zm0 0"/><path fill="#202215" d="m68.723 272.488 7.418 21.946-14.7-7.875ZM79.043 267.973l-2.902 26.46-7.418-21.945Zm0 0"/><path fill="#202215" d="m76.14 294.434 2.903-26.461 18.11 8.699ZM136.805 261.117l23.785 8.961-18.715 12.695Zm0 0"/><path fill="#d4cd7e" d="m32.61 276.438 19.93-5.555-13.122 22.144Zm0 0"/><path fill="#d3cc7e" d="m53.617 301.313-14.199-8.286 22.023-6.468Zm0 0"/><path fill="#d5cd7f" d="m39.418 293.027 14.2 8.286-6.919 13.054Zm0 0"/><path fill="#202215" d="m46.7 314.367 6.917-13.055 5.317 23.153Zm0 0"/><path fill="#202215" d="m53.617 301.313 22.524-6.88-17.207 30.032Zm0 0"/><path fill="#cdc67a" d="m299.777 89.195 31.672.532Zm0 0"/><path fill="#cfc87c" d="m320.973 106.95-21.196-17.755 31.672.532Zm0 0"/><path fill="#202215" d="m299.777 89.195 21.196 17.754-17.246 10.496ZM297.77 116.29l2.007-27.095 3.95 28.25Zm0 0"/><path fill="#dfd785" d="m299.777 89.195-2.007 27.094Zm0 0"/><path fill="#cfc87b" d="m323.574 168.164 6.84-24.867 11.582.91Zm0 0"/><path fill="#ccc57a" d="m312.672 133.813 17.742 9.484-6.84 24.867Zm0 0"/><path fill="#cdc67a" d="m341.996 144.207-11.582-.91 1.813-12.617Zm0 0"/><path fill="#ccc57a" d="m236.695 124.734 14.426 35.246-26.867-24.578Zm0 0"/><path fill="#cec77b" d="m251.121 159.98-14.426-35.246 21.965 12.86Zm0 0"/><path fill="#cdc67a" d="m251.121 159.98 7.54-22.386 27.343 14.457Zm0 0"/><path fill="#cec77b" d="m251.121 159.98 34.883-7.93-5.512 46.372Zm0 0"/><path fill="#ccc57a" d="m384 76.512-58.895-24.18L384.004 0Zm0 0"/><path fill="#202215" d="m332.008 261.305-8.543-2.118 6.242-11.617ZM323.465 259.188l8.543 2.117L317 273.73ZM332.008 261.305l1.515 18.293L317 273.73Zm0 0"/><path fill="#cec77b" d="m296.879 285.52-15.524 7.878 6.801-24.648Zm0 0"/><path fill="#202215" d="m373 236.906-.406 18.399-9.906-11.95Zm0 0"/><path fill="#cec77b" d="m333.523 279.598 4.497-17.446 21.246 13.125Zm0 0"/><path fill="#202215" d="m332.008 261.305 6.012.847-4.497 17.446Zm0 0"/><path fill="#d4cc7e" d="m221.535 284.121 7.012 31.14-22.285-14.616Zm0 0"/><path fill="#202215" d="m249.664 319.29-4.812-17.364 9.906-2.653Zm0 0"/><path fill="#d1ca7d" d="m244.852 301.926 4.812 17.363-21.117-4.027Zm0 0"/><path fill="#d1ca7d" d="m239.32 335.734-28.789.246 18.016-20.718Zm0 0"/><path fill="#d2cb7d" d="m249.664 319.29-10.344 16.444-10.773-20.472Zm0 0"/><path fill="#202215" d="m239.32 335.734 20.344-7.972-9.836 23.133Zm0 0"/><path fill="#202215" d="m239.32 335.734 10.344-16.445 10 8.473Zm0 0"/><path fill="#ccc57a" d="m239.32 335.734-11.125 22.293-17.664-22.047Zm0 0"/><path fill="#202215" d="m228.195 358.027 11.125-22.293 10.508 15.16Zm0 0"/><path fill="#cac379" d="m259.113 384-.449-22.746 40.555 22.762Zm0 0"/><path fill="#cdc67a" d="m310.406 294.93 7.766 7.738-15.086-.637Zm0 0"/><path fill="#202215" d="m310.406 294.93.114-9.602 11.93 5.137Zm0 0"/><path fill="#ccc579" d="m318.172 302.668-7.766-7.738 12.043-4.465Zm0 0"/><path fill="#cdc67a" d="m323.629 338.8-5.457-36.132 20.785-2.82ZM318.172 302.668l5.457 36.133-20.543-36.77Zm0 0"/><path fill="#ccc57a" d="m323.629 338.8-28.57-13.905 8.027-22.864Zm0 0"/><path fill="#202215" d="m273.05 325.758-13.386 2.004 10.758-23.992Zm0 0"/><path fill="#202215" d="m259.664 327.762-4.906-28.489 15.664 4.497ZM170.758 84.152l.894 19.176-11.324-5.105Zm0 0"/><path fill="#c9c278" d="m159.68 82.945 11.078 1.207-10.43 14.07Zm0 0"/><path fill="#202215" d="m171.652 103.328-.894-19.176 14.594 18.305Zm0 0"/><path fill="#dfd785" d="m219.977 96.527 17.05-2.914-9.191 13.578ZM238.473 71.05l-1.446 22.563-16.906-3.457ZM237.027 93.613l-17.05 2.914.144-6.37Zm0 0"/><path fill="#ded684" d="m237.027 93.613 8.63 12.766-17.821.812Zm0 0"/><path fill="#202215" d="m216.934 113.223 3.043-16.696 3.8 12.672Zm0 0"/><path fill="#202215" d="m229.957 120.875-13.023-7.652 6.843-4.024Zm0 0"/><path fill="#ded684" d="m219.977 96.527-3.043 16.696-8.762-4.664ZM216.934 113.223l-7.633 9.12-1.13-13.784Zm0 0"/><path fill="#ccc57a" d="m225.723 127.383 10.972-2.649-12.441 10.668Zm0 0"/><path fill="#d3cc7e" d="m225.723 127.383 4.234-6.508 6.738 3.86Zm0 0"/><path fill="#ded684" d="m216.934 113.223 8.789 14.16-16.422-5.04Zm0 0"/><path fill="#202215" d="m225.723 127.383-8.79-14.16 13.024 7.652Zm0 0"/><path fill="#cec77b" d="m227.398 71.594-18.375-6.344 1.364-15.781Zm0 0"/><path fill="#c8c177" d="m238.473 71.05-11.075.544-17.011-22.125Zm0 0"/><path fill="#202215" d="m209.023 65.25 18.375 6.344-8.449 5.261ZM227.398 71.594l-7.277 18.562-1.172-13.3Zm0 0"/><path fill="#ded684" d="m220.121 90.156 7.277-18.562 11.075-.543Zm0 0"/><path fill="#dfd785" d="M289.805 114.344 272.43 78.117l27.347 11.078Zm0 0"/><path fill="#ded684" d="m272.43 78.117 17.375 36.227-21.532-4.942Zm0 0"/><path fill="#c6c076" d="M286.098 55.383 272.43 78.117l-33.957-7.066Zm0 0"/><path fill="#c6bf76" d="m272.43 78.117 13.668-22.734 13.68 33.812Zm0 0"/><path fill="#202215" d="m186.344 270.867-17.211-12.16 20.441 2.422Zm0 0"/><path fill="#cfc87c" d="m211.465 279.477 10.07 4.644-15.273 16.524ZM229.531 245.953l-18.219 3.68-2.84-17.574Zm0 0"/><path fill="#d2ca7d" d="m220.945 258.852-9.632-9.22 18.218-3.679Zm0 0"/><path fill="#d0c97c" d="m211.313 249.633-15.692.812 12.852-18.386Zm0 0"/><path fill="#d2ca7d" d="m195.621 250.445 15.691-.812-10.53 8.047Zm0 0"/><path fill="#202215" d="m181.3 229.64-15.687 13.118-14.129-14.438ZM165.613 242.758l15.688-13.117-2.211 11.488Zm0 0"/><path fill="#d0c87c" d="m190.5 234.652 1.32-15.386 16.653 12.793Zm0 0"/><path fill="#ccc57a" d="m181.3 229.64 10.52-10.374-1.32 15.386Zm0 0"/><path fill="#202215" d="M191.82 219.266 181.3 229.64l-2.995-20.09ZM165.613 242.758l-9.015 5.96-5.114-20.398Zm0 0"/><path fill="#d0c97c" d="m119.762 272.914 22.113 9.86-14.34 9.84Zm0 0"/><path fill="#202215" d="m141.875 282.773-22.113-9.859 12.968-1.504ZM209.95 146.16l18.55 11.672-18.621 11.66ZM209.95 146.16l-23.47-2.137 12.493-9.742Zm0 0"/><path fill="#ccc57a" d="m228.5 157.832-4.246-22.43 26.867 24.578Zm0 0"/><path fill="#ded684" d="m224.254 135.402-14.305 10.758-10.976-11.879ZM209.95 146.16l14.304-10.758 4.246 22.43Zm0 0"/><path fill="#dfd785" d="m209.3 122.344 14.954 13.058-25.281-1.12Zm0 0"/><path fill="#dfd785" d="m225.723 127.383-1.47 8.02-14.952-13.06Zm0 0"/><path fill="#202215" d="m198.973 134.281-12.493 9.742 1.79-15.015Zm0 0"/><path fill="#dfd785" d="m197.047 118.742 1.926 15.54-10.703-5.274ZM198.973 134.281l-1.926-15.539 12.254 3.602Zm0 0"/><path fill="#202215" d="m209.95 146.16-23.18 18.223-.29-20.36ZM191.488 186.906l-4.718-22.523 23.109 5.11ZM186.77 164.383l23.18-18.223-.071 23.332Zm0 0"/><path fill="#dfd785" d="m194.023 105.598-11.664 8.324 2.993-11.465ZM194.023 105.598l3.024 13.144-14.688-4.82Zm0 0"/><path fill="#202215" d="m171.563 131.035-7.063 21.367-17.113-23.726ZM112.582 260.008l-15.43 16.664-3.144-21.434ZM97.152 276.672l22.61-3.758-9.426 9.805ZM119.762 272.914l-22.61 3.758 15.43-16.664Zm0 0"/><path fill="#202215" d="m94.008 255.238 3.144 21.434-18.109-8.7Zm0 0"/><path fill="#d1c97c" d="m87.133 199.254-7.485 22.762-10.675-3.575Zm0 0"/><path fill="#202215" d="m85.797 237.059 26.285-6.164-18.074 24.343ZM79.648 222.016l32.434 8.879-26.285 6.164ZM76.016 254.172l3.027 13.8-15.059-7.34ZM53.148 249.715l-11.707 7.027.422-15.027Zm0 0"/><path fill="#d3cc7e" d="m47.508 236.074 5.64 13.64-11.285-8Zm0 0"/><path fill="#d4cc7e" d="m63.402 237.043-10.254 12.672-5.64-13.64Zm0 0"/><path fill="#d0c97c" d="m112.73 297.102-8.273 7.824 1.48-10.223Zm0 0"/><path fill="#d0c97c" d="m104.457 304.926 8.273-7.824 8.055 17.117Zm0 0"/><path fill="#d1ca7c" d="m98.188 328.488 6.269-23.562 16.328 9.293Zm0 0"/><path fill="#cec67b" d="m228.195 358.027 6.207 25.977h-56.218Zm0 0"/><path fill="#cdc67a" d="m162.773 317.219 43.489-16.574 4.27 35.335Zm0 0"/><path fill="#cfc87b" d="m162.773 317.219 47.758 18.761-32.347 48.024Zm0 0"/><path fill="#d0c87c" d="m193.465 290.11 12.797 10.535-43.489 16.574Zm0 0"/><path fill="#202215" d="m193.465 290.11-8.762-12.454 7.902-.644Zm0 0"/><path fill="#cfc87b" d="m184.703 277.656 8.762 12.453-30.692 27.11Zm0 0"/><path fill="#202215" d="m93.238 301.309 3.914-24.637 8.785 18.031ZM93.238 301.309l-17.097-6.875 21.011-17.762Zm0 0"/><path fill="#202215" d="m104.457 304.926-11.219-3.617 12.7-6.606ZM93.238 301.309l11.219 3.617-6.27 23.562ZM132.73 271.41l4.075-10.293 5.07 21.656Zm0 0"/><path fill="#d4cd7f" d="m32.61 276.438 14.769-9.946 5.16 4.39Zm0 0"/><path fill="#202215" d="m52.54 270.883-5.161-4.39 16.605-5.86ZM41.441 256.742l5.938 9.75-10.348-3.597Zm0 0"/><path fill="#d3cc7e" d="m47.379 266.492-14.77 9.945 4.422-13.542Zm0 0"/><path fill="#202215" d="m47.379 266.492 5.77-16.777 10.835 10.918ZM53.148 249.715l-5.77 16.777-5.937-9.75ZM76.14 294.434l-22.523 6.878 7.824-14.753ZM330.414 143.297l-15.863-14.188 17.676 1.57ZM314.55 129.11l15.864 14.187-17.742-9.484Zm0 0"/><path fill="#202215" d="m314.55 129.11 6.423-22.16 11.254 23.73Zm0 0"/><path fill="#202215" d="m320.973 106.95-6.422 22.16-10.824-11.665Zm0 0"/><path fill="#202215" d="M314.55 129.11h-22.495l11.672-11.665Zm0 0"/><path fill="#202215" d="m314.55 129.11-1.878 4.702-20.617-4.703Zm0 0"/><path fill="#cec77b" d="m295.059 324.895-6.567-14.926 14.594-7.938Zm0 0"/><path fill="#202215" d="m288.492 309.969 8.387-24.45 6.207 16.512Zm0 0"/><path fill="#202215" d="m296.879 285.52-8.387 24.449-7.137-16.57Zm0 0"/><path fill="#cec77b" d="m305.703 278.863-8.824 6.657-8.723-16.77Zm0 0"/><path fill="#222416" d="m296.879 285.52 8.824-6.657 4.817 6.465Zm0 0"/><path fill="#202215" d="m310.406 294.93-13.527-9.41 13.64-.192Zm0 0"/><path fill="#202215" d="m296.879 285.52 13.527 9.41-7.32 7.101ZM372.594 255.305l.406-18.399 11.004 6.965ZM244.852 301.926l-23.317-17.805 3.305-9.808Zm0 0"/><path fill="#202215" d="m254.758 299.273-9.906 2.653-20.012-27.613ZM246.293 367.152l3.535-16.257 8.836 10.359Zm0 0"/><path fill="#202215" d="m249.828 350.895-3.535 16.257-18.098-9.125Zm0 0"/><path fill="#202215" d="m246.293 367.152-11.89 16.852-6.208-25.977ZM259.113 384l-12.82-16.848 12.371-5.898Zm0 0"/><path fill="#cac379" d="m262.027 350.273 25.551-.296-28.914 11.277Zm0 0"/><path fill="#202215" d="m249.828 350.895 12.2-.622-3.364 10.98Zm0 0"/><path fill="#202215" d="m259.664 327.762 2.363 22.511-12.199.622Zm0 0"/><path fill="#c8c177" d="m295.059 324.895-22.008.863 15.441-15.79Zm0 0"/><path fill="#dfd785" d="m208.172 108.559-11.125 10.183-3.024-13.144Zm0 0"/><path fill="#dfd785" d="m204.402 97.113 3.77 11.446-14.149-2.961Zm0 0"/><path fill="#dfd785" d="m192.781 89.293 11.621 7.82-10.379 8.485Zm0 0"/><path fill="#dfd785" d="m207.434 77.426-3.032 19.687-11.62-7.82ZM238.473 71.05l33.957 7.067-35.403 15.496ZM220.121 90.156l-12.687-12.73 11.515-.57Zm0 0"/><path fill="#202215" d="m209.023 65.25-1.59 12.176-11.62-8.59ZM207.434 77.426l1.59-12.176 9.925 11.605ZM160.59 270.078l24.113 7.578-23.719 2.64Zm0 0"/><path fill="#202215" d="m184.703 277.656-24.113-7.578 25.754.79ZM160.59 270.078l8.543-11.371 17.21 12.16Zm0 0"/><path fill="#d1ca7d" d="m195.621 250.445-22.336 4.07 5.805-13.386Zm0 0"/><path fill="#202215" d="m173.285 254.516-7.672-11.758 13.477-1.63ZM173.285 254.516l22.336-4.07-6.047 10.683Zm0 0"/><path fill="#202215" d="m169.133 258.707 4.152-4.191 16.29 6.613ZM211.465 279.477l13.375-5.164-3.305 9.808ZM224.84 274.313l-3.895-15.461 12.407 8.46Zm0 0"/><path fill="#d5ce7f" d="m186.344 270.867 14.41-1.449-8.149 7.594Zm0 0"/><path fill="#d8d181" d="m200.754 269.418-14.41 1.45 14.437-13.188Zm0 0"/><path fill="#202215" d="m136.805 261.117 21.918-.875 1.867 9.836Zm0 0"/><path fill="#202215" d="m158.723 260.242-21.918.875.422-.547Zm0 0"/><path fill="#d4cd7e" d="m156.598 248.719 2.125 11.523-21.496.328Zm0 0"/><path fill="#202215" d="m119.762 272.914 17.043-11.797-4.075 10.293Zm0 0"/><path fill="#202215" d="m136.805 261.117-17.043 11.797-7.18-12.906ZM112.082 230.895l24.723 30.222-24.223-1.11ZM136.805 261.117l-24.723-30.222 25.145 29.675ZM151.484 228.32l5.114 20.399-19.371 11.851Zm0 0"/><path fill="#202215" d="m112.082 230.895 39.402-2.575-14.257 32.25Zm0 0"/><path fill="#202215" d="m148.797 190.223 2.687 38.097-39.402 2.575Zm0 0"/><path fill="#cfc87c" d="m147.387 128.676-30.098-14.028 28.211-5.722Zm0 0"/><path fill="#d2cb7d" d="m147.387 128.676-23.785 14.87-6.313-28.898Zm0 0"/><path fill="#202215" d="m147.387 128.676-12.645 32.137-11.14-17.266Zm0 0"/><path fill="#202215" d="m147.387 128.676 17.113 23.726-29.758 8.41Zm0 0"/><path fill="#d3cb7e" d="m79.648 222.016-2.53 12.992-8.145-16.567Zm0 0"/><path fill="#d4cd7e" d="m68.973 218.441 8.144 16.567-13.715 2.035Zm0 0"/><path fill="#202215" d="m77.117 235.008 2.531-12.992 6.149 15.043ZM104.398 204.613l7.684 26.282-32.434-8.88Zm0 0"/><path fill="#202215" d="m104.398 204.613-24.75 17.403 7.485-22.762Zm0 0"/><path fill="#d3cb7e" d="m64.598 251.473-11.45-1.758 10.254-12.672Zm0 0"/><path fill="#202215" d="m64.598 251.473 11.418 2.699-12.032 6.46Zm0 0"/><path fill="#202215" d="m53.148 249.715 11.45 1.758-.614 9.16Zm0 0"/><path fill="#d0c97c" d="m200.504 279.121 10.96.356-5.202 21.168Zm0 0"/><path fill="#cec77b" d="m193.465 290.11 7.039-10.989 5.758 21.524Zm0 0"/><path fill="#202215" d="m200.504 279.121-7.04 10.988-.859-13.097Zm0 0"/><path fill="#d1ca7d" d="m200.754 269.418-.25 9.703-7.899-2.11Zm0 0"/><path fill="#202215" d="m200.504 279.121.25-9.703 10.71 10.059Zm0 0"/><path fill="#cfc87b" d="m372.594 255.305 11.41-11.434L384 265.79Zm0 0"/><path fill="#d2cb7d" d="m244.852 301.926-16.305 13.336-7.012-31.14Zm0 0"/><path fill="#ccc579" d="m273.05 325.758 22.009-.863-7.48 25.082Zm0 0"/><path fill="#c9c278" d="m287.578 349.977 7.48-25.082 28.57 13.906Zm0 0"/><path fill="#202215" d="m273.05 325.758-.85 14.59-12.536-12.586Zm0 0"/><path fill="#cbc479" d="m272.2 340.348.85-14.59 14.528 24.219Zm0 0"/><path fill="#202215" d="m272.2 340.348-10.173 9.925-2.363-22.511Zm0 0"/><path fill="#cdc67a" d="m262.027 350.273 10.172-9.925 15.38 9.629Zm0 0"/><path fill="#dfd785" d="m204.402 97.113 8.067-2.23-4.297 13.676ZM220.121 90.156l-7.652 4.727-5.035-17.457Zm0 0"/><path fill="#202215" d="m212.469 94.883-8.067 2.23 3.032-19.687Zm0 0"/><path fill="#ded684" d="m219.977 96.527-7.508-1.644 7.652-4.727Zm0 0"/><path fill="#dfd785" d="m212.469 94.883 7.508 1.644-11.805 12.032Zm0 0"/><path fill="#202215" d="m169.133 258.707-12.535-9.988 9.015-5.961ZM173.285 254.516l-4.152 4.191-3.52-15.95ZM169.133 258.707l-10.41 1.535-2.125-11.523Zm0 0"/><path fill="#202215" d="m158.723 260.242 10.41-1.535-8.543 11.371ZM210.266 260.277l-9.512 9.141.027-11.738Zm0 0"/><path fill="#d2ca7d" d="m211.313 249.633-1.047 10.644-9.485-2.597Zm0 0"/><path fill="#d1c97c" d="m210.266 260.277 1.047-10.644 9.632 9.219Zm0 0"/><path fill="#202215" d="m200.754 269.418 9.512-9.14 1.199 19.199ZM224.84 274.313l-14.574-14.036 10.68-1.425ZM210.266 260.277l14.574 14.036-13.375 5.164Zm0 0"/><path fill="#d3cc7e" d="m77.117 235.008-1.101 19.164-12.614-17.129Zm0 0"/><path fill="#d4cc7e" d="m76.016 254.172-11.418-2.7-1.196-14.429Zm0 0"/><path fill="#202215" d="m79.043 267.973-3.027-13.801 17.992 1.066Zm0 0"/><path fill="#202215" d="m76.016 254.172 9.78-17.113 8.212 18.18Zm0 0"/><path fill="#202215" d="m85.797 237.059-9.781 17.113 1.101-19.164Zm0 0"/><path fill="#cec67b" d="m359.266 275.277 13.328-19.972L384 265.789Zm0 0"/><path fill="#cec77b" d="m351.21 256.246 8.056 19.031-21.246-13.125Zm0 0"/><path fill="#cfc77b" d="m359.266 275.277 2.308-20.027 11.02.055Zm0 0"/><path fill="#202215" d="m372.594 255.305-11.02-.055 1.113-11.895Zm0 0"/><path fill="#202215" d="m361.574 255.25-10.363.996 11.476-12.89Zm0 0"/><path fill="#cfc87b" d="m361.574 255.25-2.308 20.027-8.055-19.03Zm0 0"/></svg>