<svg xmlns="http://www.w3.org/2000/svg" width="512" height="512" viewBox="0 0 384 384"><path fill="#93decb" d="M103.082 111.098 52.972 85.75l21.266-42.832Zm0 0"/><path fill="#91dcc9" d="m151.508 39.54-18.774 42.495-58.496-39.117Zm0 0"/><path fill="#93deca" d="m132.734 82.035-29.652 29.063-28.844-68.18Zm0 0"/><path fill="#94dfcb" d="m103.082 111.098 29.652-29.063 1.336 38.707Zm0 0"/><path fill="#23495d" d="m199.52 184.719-.72 21.824-16.034-15.05ZM198.8 206.543l.72-21.824 10.082 9.246Zm0 0"/><path fill="#93deca" d="M70.797 144.738 52.973 85.75l50.109 25.348Zm0 0"/><path fill="#90dac8" d="m384 145.355.008 67.633-30.188-23.597Zm0 0"/><path fill="#8fd9c7" d="m322.977.016-33.063 66.507L244.875.008Zm0 0"/><path fill="#8bd4c3" d="m341.781 320.52-36.383 63.5-7.746-51.239Zm0 0"/><path fill="#67a8a3" d="M102 .04 74.238 42.917.043-.012Zm0 0"/><path fill="#93deca" d="m.043-.012 52.93 85.762L0 133.637Zm0 0"/><path fill="#7bc0b5" d="M52.973 85.75.043-.012l74.195 42.93Zm0 0"/><path fill="#91dbc8" d="M0 133.637 52.973 85.75l17.824 58.988Zm0 0"/><path fill="#8ed7c5" d="M74.238 42.918 102 .039l49.508 39.5Zm0 0"/><path fill="#91dbc8" d="m161.434 71.684-28.7 10.351 18.774-42.496Zm0 0"/><path fill="#8ed8c6" d="m230.21 61.39-27.925-20.062 42.59-41.32Zm0 0"/><path fill="#91dbc9" d="m238.426 234.504 49.199 15.09-28.398 15.562Zm0 0"/><path fill="#88d0c0" d="m212.953 217.582-14.152-11.039 10.8-12.578Zm0 0"/><path fill="#8bd4c3" d="m232.188 196.64-19.235 20.942-3.351-23.617Zm0 0"/><path fill="#8cd5c4" d="m212.953 217.582 19.234-20.941 6.239 37.863Zm0 0"/><path fill="#23495d" d="m145.582 186.707 15.367 34.957-30.36 8.953Zm0 0"/><path fill="#23495d" d="m145.582 186.707 31.594 22.84-16.227 12.117Zm0 0"/><path fill="#8dd7c5" d="m74.309 365.293-54.829-.152 56.06-2.641Zm0 0"/><path fill="#91dbc8" d="m19.48 365.14 22.618-17.613L75.539 362.5Zm0 0"/><path fill="#94dfcb" d="m108.328 166.348-9.691 17.082-14.559-7.184Zm0 0"/><path fill="#8fd9c7" d="m353.82 189.39-2.918-44.163 33.098.128Zm0 0"/><path fill="#8ed8c6" d="m348.145 55.434-58.23 11.09L322.976.015Zm0 0"/><path fill="#90dac8" d="m384.008 212.988-32.992 10.903 2.804-34.5Zm0 0"/><path fill="#91dbc8" d="m344.46 244.438 6.556-20.547 6.539 20.18Zm0 0"/><path fill="#90dac8" d="m232.188 196.64 44.71-4.124-38.472 41.988Zm0 0"/><path fill="#91dbc9" d="m276.898 192.516 10.727 57.078-49.2-15.09Zm0 0"/><path fill="#92ddca" d="m287.625 249.594 31.555-33.93 1.715 31.04ZM341.781 320.52l-20.898-31.575 27.879 3.098Zm0 0"/><path fill="#80c7ba" d="M384.008 383.977 341.78 320.52l42.23-16.094Zm0 0"/><path fill="#90dac7" d="m384 265.719.012 38.707-18.645-32.79ZM384.012 304.426l-35.25-12.383 16.605-20.406Zm0 0"/><path fill="#92ddca" d="m348.762 292.043 35.25 12.383-42.23 16.094Zm0 0"/><path fill="#8fd9c7" d="m102 .04 73.066-.036-23.558 39.535Zm0 0"/><path fill="#8fd9c7" d="M151.508 39.54 175.066.003l27.22 41.324Zm0 0"/><path fill="#8fd9c7" d="M202.285 41.328 175.066.004l69.809.004Zm0 0"/><path fill="#92ddc9" d="m230.21 61.39-22.155 4.86-5.77-24.922Zm0 0"/><path fill="#93ddca" d="m233.473 266.46 4.953-31.956 20.8 30.652Zm0 0"/><path fill="#8ed7c6" d="m199.777 237.77 13.176-20.188 25.473 16.922Zm0 0"/><path fill="#8ad2c2" d="m212.953 217.582-22.89 1.77 8.738-12.809Zm0 0"/><path fill="#8fd9c6" d="m199.777 237.77-9.714-18.418 22.89-1.77Zm0 0"/><path fill="#91dbc8" d="m161.434 71.684-1.286 26.336-27.414-15.985Zm0 0"/><path fill="#23495d" d="m151.066 146.75 30.723 17.504-36.207 22.453ZM181.79 164.254l-30.724-17.504 17.809-11.754ZM98.637 183.43l19.144-6.852-6.25 25.192Zm0 0"/><path fill="#23495d" d="m117.781 176.578-19.144 6.852 9.691-17.082ZM111.531 201.77l34.051-15.063-14.992 43.91ZM177.176 209.547l-31.594-22.84 37.184 4.785ZM198.8 206.543l-21.624 3.004 5.59-18.055Zm0 0"/><path fill="#23495d" d="m190.063 219.352-12.887-9.805 21.625-3.004Zm0 0"/><path fill="#94dfcb" d="m129.61 137.113-26.528-26.015 30.988 9.644Zm0 0"/><path fill="#94dfcb" d="m129.61 137.113-20.344 4.535-6.184-30.55ZM70.797 144.738l38.469-3.09-.938 24.7ZM70.797 144.738l37.531 21.61-24.25 9.898Zm0 0"/><path fill="#94dfcb" d="m109.266 141.648-38.47 3.09 32.286-33.64Zm0 0"/><path fill="#91dcc9" d="M.008 295.852 19.48 365.14.004 384.004Zm0 0"/><path fill="#8ed7c5" d="m19.48 365.14 54.829.153L96.258 384Zm0 0"/><path fill="#23495d" d="m42.098 347.527 30.261-22.699 3.18 37.672ZM98.438 279.305l11.078 4.605-4.16 9.402Zm0 0"/><path fill="#91dbc9" d="M42.977 197 0 133.637l70.797 11.101Zm0 0"/><path fill="#23495d" d="M111.531 201.77 81.95 213.637l11.817-24.61Zm0 0"/><path fill="#94dfcb" d="m93.766 189.027-22.891 20.059 13.203-32.84Zm0 0"/><path fill="#94dfcb" d="m81.95 213.637-11.075-4.551 22.89-20.059Zm0 0"/><path fill="#23495d" d="m98.637 183.43 12.894 18.34-17.765-12.743Zm0 0"/><path fill="#94dfcb" d="m98.637 183.43-4.871 5.597-9.688-12.78Zm0 0"/><path fill="#93deca" d="m19.441 227.215 1.97-6.903 10.726 13.485Zm0 0"/><path fill="#23495d" d="m41.71 242.516-13.386 1.968 3.813-10.687Zm0 0"/><path fill="#8ed8c6" d="m75.54 362.5 18.73-1.363L96.258 384Zm0 0"/><path fill="#91dbc8" d="M94.27 361.137 75.54 362.5l15.952-13.25Zm0 0"/><path fill="#8fd9c7" d="m96.258 384-1.988-22.863 33.351-10.035Zm0 0"/><path fill="#92dcc9" d="m181.27 384.004-9.485-59.129 39.05 12.418ZM19.121 304.16.008 295.852l29.445-18.836Zm0 0"/><path fill="#90dac8" d="m36.867 331.36 5.23 16.167-22.617 17.614Zm0 0"/><path fill="#90dac7" d="m91.492 349.25 15.871-25.633 20.258 27.485Zm0 0"/><path fill="#92ddca" d="m351.047 103.453-.145 41.774-19.941-18.844Zm0 0"/><path fill="#90dac8" d="m384 145.355-32.953-41.902L384 77.512Zm0 0"/><path fill="#90dbc8" d="M351.047 103.453 384 145.355l-33.098-.128Zm0 0"/><path fill="#8fd9c7" d="m384 77.512-32.953 25.941-2.902-48.02Zm0 0"/><path fill="#91dcc9" d="m351.047 103.453-30.067-16.43 27.165-31.59Zm0 0"/><path fill="#91dbc8" d="m320.98 87.023-31.066-20.5 58.23-11.09Zm0 0"/><path fill="#90dac8" d="m241.18 166.465 35.718 26.05-44.71 4.126Zm0 0"/><path fill="#90dac7" d="m220.063 177.363 21.117-10.898-8.993 30.176Zm0 0"/><path fill="#8cd6c4" d="m230.21 61.39 59.704 5.133-55.305 3.235Zm0 0"/><path fill="#8bd4c3" d="m284.66 82.8-5.187-2.894 10.441-13.383Zm0 0"/><path fill="#91dbc8" d="m320.98 87.023-36.32-4.222 5.254-16.278Zm0 0"/><path fill="#95e0cc" d="m284.66 82.8-1.238 24.388-3.95-27.282Zm0 0"/><path fill="#94dfcb" d="m302.906 281.469 7.266-12.27 6.469 5.54Zm0 0"/><path fill="#254b5e" d="m308.266 286.785-5.36-5.316 13.735-6.73Zm0 0"/><path fill="#23495d" d="m320.883 288.945-12.617-2.16 8.375-12.047ZM329.375 263.246l-1.512-10.418 8.946 1.281ZM337.004 264.125l-7.629-.879 7.434-9.137Zm0 0"/><path fill="#92dcc9" d="m348.762 292.043.738-21.89 15.867 1.484Zm0 0"/><path fill="#23495d" d="m344.46 244.438 3.462 11.73-11.113-2.059Zm0 0"/><path fill="#23495d" d="m347.922 256.168-10.918 7.957-.195-10.016ZM347.922 256.168l-3.461-11.73 13.094-.368Zm0 0"/><path fill="#92ddca" d="m344.46 244.438-8.698-1.301 15.254-19.246Zm0 0"/><path fill="#91dcc9" d="m335.762 243.137-16.582-27.473 31.836 8.227Zm0 0"/><path fill="#92dcc9" d="m319.18 215.664 16.582 27.473-14.867 3.566Zm0 0"/><path fill="#23495d" d="m335.762 243.137 8.699 1.3-7.652 9.672Zm0 0"/><path fill="#92ddca" d="m335.762 243.137-7.899 9.691-6.968-6.125Zm0 0"/><path fill="#23495d" d="m327.863 252.828 7.899-9.691 1.047 10.972Zm0 0"/><path fill="#92dcc9" d="M262.383 286.957 247 277.945l12.227-12.789Zm0 0"/><path fill="#23495d" d="m257.008 321.344 12.64-18.633-4.148 20.156Zm0 0"/><path fill="#92dcc9" d="m276.84 282.781-7.192 19.93-7.265-15.754Zm0 0"/><path fill="#92ddca" d="M287.625 249.594 276.84 282.78l-17.613-17.625Zm0 0"/><path fill="#91dbc9" d="m276.84 282.781-14.457 4.176-3.156-21.8Zm0 0"/><path fill="#92dcc9" d="m276.84 282.781 10.785-33.187 4.684 36.258ZM285.504 292.332l-8.664-9.55 15.469 3.07Zm0 0"/><path fill="#62a29e" d="m384.008 383.977-78.61.043 36.383-63.5Zm0 0"/><path fill="#8dd7c5" d="m224.266 71.574-16.211-5.324 22.156-4.86Zm0 0"/><path fill="#23495d" d="m208.055 66.25 16.21 5.324-6.484 2.719ZM189.855 69.473l18.2-3.223-16.493 6.914Zm0 0"/><path fill="#90dac7" d="m189.855 69.473-28.421 2.21-9.926-32.144Zm0 0"/><path fill="#91dbc8" d="m202.285 41.328-12.43 28.145-38.347-29.934Zm0 0"/><path fill="#92ddc9" d="m208.055 66.25-18.2 3.223 12.43-28.145Zm0 0"/><path fill="#23495d" d="m130.59 230.617-33.211 23.578-.61-24.402Zm0 0"/><path fill="#94decb" d="m132.734 82.035 12.028 33.395-10.692 5.312Zm0 0"/><path fill="#93deca" d="m160.148 98.02-15.386 17.41-12.028-33.395Zm0 0"/><path fill="#93decb" d="m144.762 115.43 3.73 12.41-14.422-7.098Zm0 0"/><path fill="#94decb" d="m152.926 118.871-8.164-3.441 15.386-17.41Zm0 0"/><path fill="#93ddca" d="m144.762 115.43 8.164 3.441-4.434 8.969Zm0 0"/><path fill="#23495d" d="m181.79 164.254.976 27.238-37.184-4.785ZM117.781 176.578l27.801 10.129-34.05 15.063Zm0 0"/><path fill="#8fd8c6" d="M19.48 365.14 96.258 384l-96.254.004Zm0 0"/><path fill="#91dbc8" d="m19.121 304.16.36 60.98L.007 295.853Zm0 0"/><path fill="#90dac7" d="m19.121 304.16 17.746 27.2-17.387 33.78Zm0 0"/><path fill="#23495d" d="m75.54 362.5-3.18-37.672 19.132 24.422ZM97.379 254.195l33.21-23.578-17.753 31.332Zm0 0"/><path fill="#91dbc8" d="M0 133.637 42.977 197 0 199.25Zm0 0"/><path fill="#92dcc9" d="M21.41 220.313 42.977 197l-10.84 36.797Zm0 0"/><path fill="#93deca" d="M62.734 234.984 42.977 197l27.898 12.086Zm0 0"/><path fill="#93deca" d="M70.875 209.086 42.977 197l41.101-20.754Zm0 0"/><path fill="#93decb" d="m42.977 197 27.82-52.262 13.281 31.508Zm0 0"/><path fill="#91dbc8" d="M42.977 197 21.41 220.313 0 199.25Zm0 0"/><path fill="#94dfcb" d="m46.992 235.383-5.281 7.133-9.574-8.72Zm0 0"/><path fill="#93deca" d="m42.977 197 4.015 38.383-14.855-1.586Zm0 0"/><path fill="#94dfcb" d="M46.992 235.383 42.977 197l19.757 37.984Zm0 0"/><path fill="#23495d" d="M9.477 237.793.012 248.207 0 227.535ZM9.477 237.793l9.964-10.578-1.402 20.074Zm0 0"/><path fill="#92ddc9" d="m.012 248.207 16.265 14.102-16.27 33.543Zm0 0"/><path fill="#92ddca" d="m.008 295.852 16.27-33.543 13.175 14.707Zm0 0"/><path fill="#23495d" d="M9.477 237.793 0 227.535l19.441-.32Zm0 0"/><path fill="#93deca" d="M19.441 227.215 0 227.535l21.41-7.222Zm0 0"/><path fill="#90dbc8" d="M21.41 220.313 0 227.535V199.25Zm0 0"/><path fill="#23495d" d="m19.441 227.215 8.883 17.27-10.285 2.804ZM28.324 244.484l-8.883-17.27 12.696 6.583Zm0 0"/><path fill="#23495d" d="m33.297 255.96-4.973-11.476 13.387-1.968Zm0 0"/><path fill="#90dac8" d="m94.27 361.137-2.778-11.887 36.13 1.852Zm0 0"/><path fill="#90dac8" d="m107.363 323.617 18.39-7.883 1.868 35.368Zm0 0"/><path fill="#8fd9c7" d="m127.621 351.102 53.649 32.902L96.258 384Zm0 0"/><path fill="#91dbc8" d="m127.621 351.102-1.867-35.368 46.031 9.141ZM127.621 351.102l44.164-26.227 9.485 59.129Zm0 0"/><path fill="#23495d" d="m79.828 284.73-7.469 40.098-9.113-5.871ZM79.828 284.73l12.09 16.082-19.559 24.016Zm0 0"/><path fill="#8ed7c5" d="m98.918 320.922 8.445 2.695-15.87 25.633Zm0 0"/><path fill="#23495d" d="m166.465 270.457 2.676 9.121-26.633 3.836Zm0 0"/><path fill="#93ddca" d="m169.14 279.578-28.66 18.32 2.028-14.484Zm0 0"/><path fill="#93deca" d="m171.785 324.875-31.305-26.977 28.66-18.32Zm0 0"/><path fill="#92ddc9" d="m125.754 315.734 14.726-17.836 31.305 26.977Zm0 0"/><path fill="#94dfcb" d="m63.758 281.5-13.106-11.027 18.286.515Zm0 0"/><path fill="#93deca" d="m42.75 292.988 7.902-22.515L63.758 281.5Zm0 0"/><path fill="#23495d" d="m68.938 270.988 10.89 13.742-16.07-3.23Zm0 0"/><path fill="#92ddca" d="M42.75 292.988 19.121 304.16l10.332-27.144Zm0 0"/><path fill="#23495d" d="m63.246 318.957 9.113 5.871-30.261 22.7Zm0 0"/><path fill="#23495d" d="m36.867 331.36 26.38-12.403-21.15 28.57Zm0 0"/><path fill="#92dcc9" d="m42.75 292.988-5.883 38.371-17.746-27.199Zm0 0"/><path fill="#23495d" d="m72.36 324.828 26.558-3.906-7.426 28.328Zm0 0"/><path fill="#23495d" d="m98.918 320.922-26.559 3.906 19.559-24.015Zm0 0"/><path fill="#92dcc9" d="m320.02 170.555 30.882-25.328 2.918 44.164Zm0 0"/><path fill="#92ddca" d="m322.313 109.195 28.734-5.742-20.086 22.93Zm0 0"/><path fill="#91dbc9" d="m322.313 109.195-1.333-22.172 30.067 16.43Zm0 0"/><path fill="#23495d" d="m291 129.32-6.914-18.398 20.23 4.578Zm0 0"/><path fill="#91dbc8" d="m287.293 148.734-18.148-23.129L291 129.32Zm0 0"/><path fill="#8dd7c5" d="m253.91 146.148 15.235-20.543 18.148 23.13Zm0 0"/><path fill="#23495d" d="m269.145 125.605-37.422-2.14 18.464-12.938Zm0 0"/><path fill="#90dac7" d="m269.145 125.605-15.235 20.543-22.187-22.683Zm0 0"/><path fill="#91dbc8" d="m291 129.32 16.379 3.739-20.086 15.675Zm0 0"/><path fill="#93deca" d="m307.379 133.059 12.64 37.496-32.726-21.82Zm0 0"/><path fill="#8fd9c7" d="m253.91 146.148-29.754-14.585 7.567-8.098Zm0 0"/><path fill="#8dd7c5" d="M348.145 55.434 384.008.008 384 77.512ZM289.914 66.523l-59.703-5.132L244.875.008Zm0 0"/><path fill="#93decb" d="m310.172 269.2 11.793-8.86-5.324 14.398Zm0 0"/><path fill="#92ddca" d="m287.625 249.594 34.34 10.746-11.793 8.86Zm0 0"/><path fill="#92ddca" d="m327.863 252.828-5.898 7.512-1.07-13.637Zm0 0"/><path fill="#92ddc9" d="m321.965 260.34-34.34-10.746 33.27-2.89Zm0 0"/><path fill="#91dcc9" d="m287.625 249.594 15.281 31.875-10.597 4.383Zm0 0"/><path fill="#92dcc9" d="m310.172 269.2-7.266 12.269-15.281-31.875Zm0 0"/><path fill="#91dbc8" d="m351.016 223.89 22.347 12.88-15.808 7.3Zm0 0"/><path fill="#23495d" d="m373.363 236.77 10.645-23.782-.016 27.903Zm0 0"/><path fill="#91dbc8" d="m384.008 212.988-10.645 23.782-22.347-12.88Zm0 0"/><path fill="#92ddca" d="m320.883 288.945 13.05-9.543 14.829 12.641Zm0 0"/><path fill="#93deca" d="m333.934 279.402 15.566-9.25-.738 21.891Zm0 0"/><path fill="#23495d" d="m333.934 279.402-13.051 9.543-4.242-14.207Zm0 0"/><path fill="#93ddca" d="m276.898 192.516 42.282 23.148-31.555 33.93Zm0 0"/><path fill="#93ddca" d="m276.898 192.516 43.122-21.961-.84 45.11Zm0 0"/><path fill="#92ddca" d="m320.02 170.555-43.122 21.96 10.395-43.78Zm0 0"/><path fill="#92ddca" d="m319.18 215.664.84-45.11 33.8 18.837Zm0 0"/><path fill="#92dcc9" d="m351.016 223.89-31.836-8.226 34.64-26.273Zm0 0"/><path fill="#93ddca" d="m247 277.945-13.527-11.484 25.754-1.305Zm0 0"/><path fill="#23495d" d="M249.191 298.266 247 277.946l15.383 9.011Zm0 0"/><path fill="#23495d" d="m269.648 302.71-20.457-4.444 13.192-11.309ZM249.191 298.266l20.457 4.445-12.64 18.633ZM247 277.945l-22.332-.562 8.805-10.922Zm0 0"/><path fill="#23495d" d="m219.676 282.152 4.992-4.77 24.523 20.884Zm0 0"/><path fill="#23495d" d="m224.668 277.383 22.332.562 2.191 20.32ZM248.516 365.496 259.03 384l-24.492-.008Zm0 0"/><path fill="#8ad3c2" d="m277.95 354.453 19.702-21.672 7.746 51.239Zm0 0"/><path fill="#8cd5c4" d="m277.95 354.453 27.448 29.567-28.418-22.829Zm0 0"/><path fill="#8bd4c3" d="m259.531 366.625 18.418-12.172-.969 6.738Zm0 0"/><path fill="#92dcc9" d="m341.781 320.52-22.758-23.34 1.86-8.235Zm0 0"/><path fill="#94decb" d="m285.504 292.332-15.856 10.379 7.192-19.93Zm0 0"/><path fill="#23495d" d="m269.648 302.71 15.57 8.661-19.718 11.496Zm0 0"/><path fill="#23495d" d="m269.648 302.71 15.856-10.378-.285 19.04ZM171.418 102.086l-18.492 16.785 7.222-20.851ZM179.031 112.809l-7.613-10.723 11.078-5.258Zm0 0"/><path fill="#23495d" d="m152.926 118.871 18.492-16.785 7.613 10.723ZM229.676 116.188l20.512-5.66-18.465 12.937Zm0 0"/><path fill="#23495d" d="m224.75 122.922 4.926-6.734 2.047 7.277Zm0 0"/><path fill="#8bd4c3" d="m224.156 131.563.594-8.641 6.973.543Zm0 0"/><path fill="#23495d" d="m284.086 110.922-14.941 14.683-18.957-15.078Zm0 0"/><path fill="#23495d" d="m269.145 125.605 14.94-14.683L291 129.32ZM181.313 76.277l9.265 3.621-8.082 16.93ZM190.578 79.898l-6.621 16.645-1.46.285ZM207.727 77.973l-17.149 1.925.984-6.734Zm0 0"/><path fill="#23495d" d="m181.313 76.277 8.542-6.804 1.708 3.691Zm0 0"/><path fill="#23495d" d="m190.578 79.898-9.266-3.62 10.25-3.114Zm0 0"/><path fill="#8ed8c6" d="m189.855 69.473-8.542 6.804-19.88-4.593Zm0 0"/><path fill="#91dbc8" d="m233.473 266.46-12.852-7.312 17.805-24.644Zm0 0"/><path fill="#23495d" d="m177.176 209.547 1.488 19.918-17.715-7.8Zm0 0"/><path fill="#8fd9c6" d="m227.3 161.992 13.88 4.473-21.118 10.898Zm0 0"/><path fill="#23495d" d="m208.984 166.969 18.317-4.977-7.238 15.371ZM199.52 184.719l-16.754 6.773-.977-27.238ZM199.52 184.719l9.464-17.75 11.078 10.394Zm0 0"/><path fill="#89d2c1" d="m232.188 196.64-22.586-2.675 10.46-16.602Zm0 0"/><path fill="#23495d" d="m220.063 177.363-10.461 16.602-10.082-9.246ZM189.785 144.523l-7.996 19.73-12.914-29.257Zm0 0"/><path fill="#23495d" d="m188.86 129.3.925 15.223-20.91-9.527Zm0 0"/><path fill="#95e0cc" d="m191.656 112.684 11.309 11.554-14.106 5.063Zm0 0"/><path fill="#95e0cc" d="m202.965 124.238-11.309-11.554 16.305 1.546Zm0 0"/><path fill="#95e0cc" d="m224.156 131.563-21.191-7.325 4.996-10.008ZM191.656 112.684 188.86 129.3l-9.828-16.492Zm0 0"/><path fill="#23495d" d="m168.875 134.996-15.95-16.125 26.106-6.062ZM188.86 129.3l-19.985 5.696 10.156-22.187Zm0 0"/><path fill="#23495d" d="m152.926 118.871 15.949 16.125-20.383-7.156ZM108.328 166.348l12.89-17.57-3.437 27.8ZM121.219 148.777l24.363 37.93-27.8-10.129Zm0 0"/><path fill="#94dfcb" d="m129.61 137.113-8.391 11.664-11.953-7.129Zm0 0"/><path fill="#94dfcb" d="m121.219 148.777-12.89 17.57.937-24.699Zm0 0"/><path fill="#23495d" d="m145.582 186.707-10.598-36.84 16.082-3.117Zm0 0"/><path fill="#23495d" d="m121.219 148.777 13.765 1.09 10.598 36.84Zm0 0"/><path fill="#8ed7c5" d="m74.309 365.293 1.23-2.793L96.258 384Zm0 0"/><path fill="#91dcc9" d="m112.02 274.574 12.808 10.555-15.312-1.219Zm0 0"/><path fill="#23495d" d="m.012 248.207 9.465-10.414 8.562 9.496Zm0 0"/><path fill="#92dcc9" d="M16.277 262.309.012 248.207l18.027-.918Zm0 0"/><path fill="#23495d" d="m28.324 244.484-2.508 9.551-7.777-6.746ZM33.297 255.96l-7.48-1.925 2.507-9.55Zm0 0"/><path fill="#92dcc9" d="m25.816 254.035-9.539 8.274 1.762-15.02Zm0 0"/><path fill="#23495d" d="m43.184 256.543-9.887-.582 8.414-13.445Zm0 0"/><path fill="#23495d" d="m33.297 255.96 9.887.583-5.34 6.555Zm0 0"/><path fill="#93deca" d="M29.453 277.016 28.813 262l9.03 1.098Zm0 0"/><path fill="#94dfcb" d="m28.813 262 4.484-6.04 4.547 7.138ZM28.813 262l-2.997-7.965 7.48 1.926Zm0 0"/><path fill="#93ddca" d="M16.277 262.309 28.812 262l.641 15.016Zm0 0"/><path fill="#92ddc9" d="M25.816 254.035 28.813 262l-12.536.309Zm0 0"/><path fill="#90dbc8" d="m109.516 283.91 9.757 13.633-13.918-4.23Zm0 0"/><path fill="#92dcc9" d="m124.828 285.129-5.555 12.414-9.757-13.633Zm0 0"/><path fill="#93ddca" d="m119.273 297.543 5.555-12.414 15.652 12.77Zm0 0"/><path fill="#93ddca" d="m125.754 315.734-6.48-18.191 21.206.355Zm0 0"/><path fill="#8dd6c5" d="m181.27 384.004 47.921-24.649 5.348 24.637Zm0 0"/><path fill="#23495d" d="m229.191 359.355 19.325 6.141-13.977 18.496Zm0 0"/><path fill="#93deca" d="m194.82 290.547-23.035 34.328-2.644-45.297Zm0 0"/><path fill="#23495d" d="m194.82 290.547-9.695-13.89 9.684 1.788ZM142.969 272.64l23.496-2.183-23.957 12.957Zm0 0"/><path fill="#93deca" d="m29.453 277.016 21.2-6.543-7.903 22.515Zm0 0"/><path fill="#94dfcb" d="m52.836 301.285-10.086-8.297L63.758 281.5Zm0 0"/><path fill="#91dcc9" d="m42.75 292.988 10.086 8.297-15.969 30.074Zm0 0"/><path fill="#23495d" d="m36.867 331.36 15.969-30.075 10.41 17.672ZM52.836 301.285l26.992-16.555-16.582 34.227Zm0 0"/><path fill="#94dfcb" d="M312.3 97.547 284.66 82.8l36.32 4.222Zm0 0"/><path fill="#93deca" d="M322.313 109.195 312.3 97.547l8.68-10.524Zm0 0"/><path fill="#23495d" d="m284.66 82.8 27.64 14.747-28.878 9.64ZM312.3 97.547l10.012 11.648-17.996 6.305ZM284.086 110.922 312.3 97.547l-7.985 17.953Zm0 0"/><path fill="#23495d" d="m312.3 97.547-28.214 13.375-.664-3.734Zm0 0"/><path fill="#92dcc9" d="m320.02 170.555 10.074-28.11 20.808 2.782Zm0 0"/><path fill="#93ddca" d="m307.379 133.059 22.715 9.386-10.074 28.11Zm0 0"/><path fill="#92ddca" d="m350.902 145.227-20.808-2.782.867-16.062Zm0 0"/><path fill="#8ed7c6" d="m224.156 131.563 29.754 14.585-27.222-.496Zm0 0"/><path fill="#90dac7" d="m253.91 146.148-12.73 20.317-14.493-20.813Zm0 0"/><path fill="#90dac8" d="m241.18 166.465 12.73-20.317 22.988 46.368Zm0 0"/><path fill="#91dbc8" d="m253.91 146.148 33.383 2.586-10.395 43.782Zm0 0"/><path fill="#8cd6c4" d="m384.008.008-35.863 55.426L322.977.016Zm0 0"/><path fill="#95e0cc" d="m222.387 96.21 12.222-26.452 16.063 28.238Zm0 0"/><path fill="#23495d" d="m329.375 263.246-7.41-2.906 5.898-7.512Zm0 0"/><path fill="#23495d" d="m321.965 260.34 7.41 2.906-12.734 11.492ZM329.375 263.246l4.559 16.156-17.293-4.664ZM297.902 292.41l-12.398-.078 6.805-6.48ZM373.363 236.77l-4.183 17.324-11.625-10.024Zm0 0"/><path fill="#23495d" d="m383.992 240.89-14.812 13.204 4.183-17.324Zm0 0"/><path fill="#94dfcb" d="m333.934 279.402 3.07-15.277 12.496 6.027Zm0 0"/><path fill="#23495d" d="m329.375 263.246 7.629.879-3.07 15.277ZM245.11 301.96l4.081-3.694 7.817 23.078ZM249.887 320.094l-4.778-18.133 11.899 19.383Zm0 0"/><path fill="#90dac8" d="m245.11 301.96 4.777 18.134-18.035-.535Zm0 0"/><path fill="#91dcc9" d="m238.465 338.262-27.63-.969 21.017-17.734Zm0 0"/><path fill="#91dcc9" d="m249.887 320.094-11.422 18.168-6.613-18.703Zm0 0"/><path fill="#23495d" d="m238.465 338.262 18.543-16.918-9.45 27.219ZM238.465 338.262l11.422-18.168 7.12 1.25Zm0 0"/><path fill="#23495d" d="m238.465 338.262 9.094 10.3-18.368 10.793Zm0 0"/><path fill="#92dcc9" d="m210.836 337.293 27.629.969-9.274 21.093Zm0 0"/><path fill="#23495d" d="m248.516 365.496 11.015 1.129-.5 17.375Zm0 0"/><path fill="#8bd4c3" d="m305.398 384.02-45.867-17.395 17.45-5.434Zm0 0"/><path fill="#89d2c1" d="m259.031 384 .5-17.375 45.867 17.395Zm0 0"/><path fill="#23495d" d="m308.27 296.988-.004-10.203 12.617 2.16Zm0 0"/><path fill="#94dfcb" d="m319.023 297.18-10.753-.192 12.613-8.043Zm0 0"/><path fill="#92ddca" d="m319.023 297.18 22.758 23.34-33.511-23.532Zm0 0"/><path fill="#90dac8" d="m308.27 296.988 33.511 23.532-44.129 12.261Zm0 0"/><path fill="#23495d" d="m170.828 84.672.59 17.414-11.27-4.066Zm0 0"/><path fill="#91dbc8" d="m161.434 71.684 9.394 12.988-10.68 13.348Zm0 0"/><path fill="#8fd8c6" d="m170.828 84.672-9.394-12.988 19.879 4.593Zm0 0"/><path fill="#23495d" d="m170.828 84.672 10.484-8.395 1.184 20.551ZM171.418 102.086l-.59-17.414 11.668 12.156ZM229.95 106.5l-7.563-10.29 28.285 1.786Zm0 0"/><path fill="#23495d" d="m250.188 110.527-20.239-4.027 20.723-8.504Zm0 0"/><path fill="#23495d" d="m229.95 106.5 20.238 4.027-20.512 5.66ZM224.75 122.922l-4.805-12.926 9.73 6.192Zm0 0"/><path fill="#94dfcb" d="m219.945 109.996 4.805 12.926-16.79-8.692Zm0 0"/><path fill="#95e0cc" d="m224.75 122.922-.594 8.64-16.195-17.332Zm0 0"/><path fill="#8fd8c6" d="m234.61 69.758-10.344 1.816 5.945-10.183Zm0 0"/><path fill="#23495d" d="m224.266 71.574-3.47 19.793-3.015-17.074Zm0 0"/><path fill="#95e0cc" d="m220.797 91.367 3.469-19.793-1.88 24.637Zm0 0"/><path fill="#95e0cc" d="m224.266 71.574 10.343-1.816-12.222 26.453ZM283.422 107.188l-32.75-9.192 28.8-18.09Zm0 0"/><path fill="#23495d" d="m284.086 110.922-33.414-12.926 32.75 9.192ZM250.672 97.996l33.414 12.926-33.899-.395Zm0 0"/><path fill="#7ec4b7" d="m234.61 69.758 55.304-3.235-10.441 13.383Zm0 0"/><path fill="#23495d" d="m185.125 276.656-11.785-21.242 24.805-3.559Zm0 0"/><path fill="#90dac7" d="m220.621 259.148-10.578-9.867 28.383-14.777Zm0 0"/><path fill="#90dac8" d="m210.043 249.281-10.266-11.511 38.649-3.266Zm0 0"/><path fill="#92dcc9" d="m199.777 237.77 10.266 11.511-11.898 2.574Zm0 0"/><path fill="#23495d" d="m178.664 229.465-16.18 14.586-1.535-22.387Zm0 0"/><path fill="#8fd9c6" d="m178.664 229.465 11.399-10.113 9.714 18.418Zm0 0"/><path fill="#23495d" d="m190.063 219.352-11.399 10.113-1.488-19.918Zm0 0"/><path fill="#93decb" d="m158.703 253.59-3.555 7.98-1.265-11.238ZM124.828 285.129l17.68-1.715-2.028 14.484ZM127.988 275.973l14.52 7.441-17.68 1.715Zm0 0"/><path fill="#23495d" d="m142.508 283.414-14.52-7.441 14.98-3.332Zm0 0"/><path fill="#93ddca" d="m112.02 274.574 15.968 1.399-3.16 9.156Zm0 0"/><path fill="#23495d" d="m127.988 275.973-15.968-1.399.816-12.625ZM208.652 149l18.649 12.992-18.317 4.977ZM208.652 149l-18.867-4.477 15.535-4.433Zm0 0"/><path fill="#8fd9c6" d="m227.3 161.992-.613-16.34 14.493 20.813Zm0 0"/><path fill="#95e0cc" d="M226.688 145.652 208.652 149l-3.332-8.91Zm0 0"/><path fill="#94dfcb" d="m208.652 149 18.036-3.348.613 16.34Zm0 0"/><path fill="#95e0cc" d="m224.156 131.563 2.531 14.09-21.367-5.563Zm0 0"/><path fill="#23495d" d="m205.32 140.09-15.535 4.433-.926-15.222Zm0 0"/><path fill="#95e0cc" d="m202.965 124.238 2.355 15.852-16.46-10.79Zm0 0"/><path fill="#95e0cc" d="m205.32 140.09-2.355-15.852 21.191 7.325Zm0 0"/><path fill="#23495d" d="m208.652 149-26.863 15.254 7.996-19.73ZM199.52 184.719l-17.73-20.465 27.194 2.715Zm0 0"/><path fill="#23495d" d="M181.79 164.254 208.651 149l.332 17.969Zm0 0"/><path fill="#95e0cc" d="m191.656 112.684-7.699-16.141 13.324-.05Zm0 0"/><path fill="#95e0cc" d="m183.957 96.543 7.7 16.14-9.16-15.855Zm0 0"/><path fill="#94dfcb" d="m191.656 112.684-12.625.125 3.465-15.98Zm0 0"/><path fill="#23495d" d="m168.875 134.996-17.809 11.754-2.574-18.91ZM97.379 254.195l1.058 25.11-18.609 5.425ZM98.438 279.305l13.582-4.73-2.504 9.335Zm0 0"/><path fill="#23495d" d="m98.438 279.305-1.06-25.11 15.458 7.754Zm0 0"/><path fill="#23495d" d="m112.02 274.574-13.582 4.73 14.398-17.355ZM96.77 229.793l14.761-28.023 19.059 28.847ZM56.395 251.574l-13.211 4.969-1.473-14.027Zm0 0"/><path fill="#94dfcb" d="m46.992 235.383 9.403 16.191-14.684-9.058Zm0 0"/><path fill="#94dfcb" d="m62.734 234.984-6.34 16.59-9.402-16.191Zm0 0"/><path fill="#90dac7" d="m107.363 323.617-3.746-15.879 22.137 7.996Zm0 0"/><path fill="#8fd8c6" d="m119.273 297.543-15.656 10.195 1.738-14.425Zm0 0"/><path fill="#90dac7" d="m103.617 307.738 15.656-10.195 6.48 18.191Zm0 0"/><path fill="#89d1c1" d="m98.918 320.922 4.7-13.184 3.745 15.88Zm0 0"/><path fill="#92dcc9" d="m229.191 359.355-47.921 24.649 29.566-46.711ZM171.785 324.875l38.36-24.074.69 36.492Zm0 0"/><path fill="#92ddca" d="m194.82 290.547 15.325 10.254-38.36 24.074Zm0 0"/><path fill="#23495d" d="m91.918 300.813 6.52-21.508 6.917 14.007Zm0 0"/><path fill="#23495d" d="m91.918 300.813-12.09-16.083 18.61-5.425ZM103.617 307.738l-11.699-6.925 13.437-7.5Zm0 0"/><path fill="#23495d" d="m91.918 300.813 11.7 6.925-4.7 13.184Zm0 0"/><path fill="#94decb" d="m29.453 277.016 20.797-8.883.402 2.34Zm0 0"/><path fill="#23495d" d="m50.652 270.473-.402-2.34 18.688 2.855ZM43.184 256.543l7.066 11.59-12.406-5.035Zm0 0"/><path fill="#93deca" d="m50.25 268.133-20.797 8.883 8.39-13.918Zm0 0"/><path fill="#23495d" d="m50.25 268.133 6.145-16.559 12.542 19.414Zm0 0"/><path fill="#23495d" d="m56.395 251.574-6.145 16.559-7.066-11.59ZM79.828 284.73l-26.992 16.555L63.758 281.5ZM77.582 255.277l2.246 29.453-10.89-13.742ZM330.094 142.445l-19.477-16.773 20.344.71Zm0 0"/><path fill="#23495d" d="m310.617 125.672 19.477 16.773-22.715-9.386ZM310.617 125.672l11.695-16.477 8.649 17.188Zm0 0"/><path fill="#23495d" d="m322.313 109.195-11.696 16.477-6.3-10.172Zm0 0"/><path fill="#23495d" d="M310.617 125.672 291 129.32l13.316-13.82ZM310.617 125.672l-3.238 7.387L291 129.32ZM297.902 292.41l10.368 4.578-23.051 14.383Zm0 0"/><path fill="#23495d" d="m285.504 292.332 12.398.078-12.683 18.961Zm0 0"/><path fill="#23495d" d="m302.906 281.469-5.004 10.941-5.593-6.558ZM297.902 292.41l5.004-10.941 5.36 5.316Zm0 0"/><path fill="#23495d" d="m308.27 296.988-10.368-4.578 10.364-5.625ZM371.906 255.68l12.086-14.79v4.36Zm0 0"/><path fill="#23495d" d="m371.906 255.68-2.726-1.586 14.812-13.203ZM245.11 301.96l-25.434-19.808 29.515 16.114ZM247.559 348.563l.957 16.933-19.325-6.14Zm0 0"/><path fill="#8ad3c2" d="m261.05 352.715 14.262-11.344 2.637 13.082Zm0 0"/><path fill="#23495d" d="m265.5 322.867-4.45 29.848-4.042-31.371Zm0 0"/><path fill="#8ad3c2" d="m261.05 352.715 16.9 1.738-18.419 12.172Zm0 0"/><path fill="#23495d" d="m248.516 365.496 12.535-12.781-1.52 13.91ZM257.008 321.344l4.043 31.37-13.492-4.151Zm0 0"/><path fill="#23495d" d="m261.05 352.715-12.534 12.781-.957-16.933Zm0 0"/><path fill="#8cd5c4" d="m308.27 296.988-10.618 35.793-12.433-21.41Zm0 0"/><path fill="#23495d" d="m272.895 325.137-7.395-2.27 19.719-11.496Zm0 0"/><path fill="#89d1c1" d="m297.652 332.781-24.757-7.644 12.324-13.766Zm0 0"/><path fill="#95e0cc" d="m214.45 96.57-6.49 17.66-10.679-17.738Zm0 0"/><path fill="#95e0cc" d="m207.96 114.23-16.304-1.546 5.625-16.192ZM190.578 79.898l6.703 16.594-13.324.051Zm0 0"/><path fill="#95e0cc" d="m207.727 77.973-10.446 18.52-6.703-16.595ZM220.797 91.367l-13.07-13.394 10.054-3.68Zm0 0"/><path fill="#23495d" d="m208.055 66.25-.328 11.723-16.165-4.809ZM207.727 77.973l.328-11.723 9.726 8.043ZM173.34 255.414l11.785 21.242-18.66-6.199ZM166.465 270.457l18.66 6.2-15.984 2.921Zm0 0"/><path fill="#92ddca" d="m185.125 276.656 9.695 13.89-25.68-10.968Zm0 0"/><path fill="#92dcc9" d="m199.777 237.77-26.437 17.644 5.324-25.95Zm0 0"/><path fill="#23495d" d="m173.34 255.414-10.856-11.363 16.18-14.586Zm0 0"/><path fill="#91dbc8" d="m173.34 255.414 26.437-17.644-1.632 14.085Zm0 0"/><path fill="#23495d" d="m224.668 277.383-4.047-18.235 12.852 7.313ZM185.125 276.656l15.578-16.047-5.894 17.836Zm0 0"/><path fill="#23495d" d="m200.703 260.61-15.578 16.046 13.02-24.8ZM142.969 272.64l12.18-11.07 11.316 8.887ZM127.988 275.973l7.64-15.184 7.34 11.852Zm0 0"/><path fill="#23495d" d="m135.629 260.79-7.64 15.183-15.153-14.024ZM130.59 230.617l5.039 30.172-22.793 1.16Zm0 0"/><path fill="#23495d" d="m135.629 260.79-5.04-30.173 23.294 19.715Zm0 0"/><path fill="#94dfcb" d="m155.148 261.57-19.52-.78 18.255-10.458Zm0 0"/><path fill="#23495d" d="m142.969 272.64-7.34-11.85 19.52.78ZM162.484 244.05l-3.78 9.54-4.821-3.258Zm0 0"/><path fill="#23495d" d="m130.59 230.617 31.894 13.434-8.601 6.281Zm0 0"/><path fill="#23495d" d="m160.95 221.664 1.534 22.387-31.894-13.434Zm0 0"/><path fill="#94dfcb" d="m148.492 127.84-15.597 10.086 1.175-17.184Zm0 0"/><path fill="#23495d" d="m151.066 146.75-18.171-8.824 15.597-10.086Zm0 0"/><path fill="#93deca" d="m132.895 137.926-3.286-.813 4.461-16.37Zm0 0"/><path fill="#23495d" d="m132.895 137.926-11.676 10.851 8.39-11.664ZM132.895 137.926l2.09 11.941-13.766-1.09Zm0 0"/><path fill="#23495d" d="m132.895 137.926 18.171 8.824-16.082 3.117Zm0 0"/><path fill="#94dfcb" d="m81.95 213.637-5.575 19.914-5.5-24.465ZM70.875 209.086l5.5 24.465-13.64 1.433Zm0 0"/><path fill="#23495d" d="m86.895 243.523-10.52-9.972 20.395-3.758ZM76.375 233.55l5.574-19.913 14.82 16.156ZM97.379 254.195l-10.484-10.672 9.875-13.73Zm0 0"/><path fill="#23495d" d="m94.387 217.125 2.383 12.668-14.82-16.156Zm0 0"/><path fill="#23495d" d="m94.387 217.125-12.438-3.488 29.582-11.867Zm0 0"/><path fill="#23495d" d="m96.77 229.793-2.383-12.668 17.144-15.355Zm0 0"/><path fill="#94dfcb" d="m64.887 251.887-8.492-.313 6.34-16.59Zm0 0"/><path fill="#23495d" d="m64.887 251.887 12.695 3.39-8.644 15.711ZM56.395 251.574l8.492.313 4.05 19.101Zm0 0"/><path fill="#8fd9c7" d="m200.988 280.047 18.688 2.105-9.531 18.649Zm0 0"/><path fill="#92dcc9" d="m194.82 290.547 6.168-10.5 9.157 20.754Zm0 0"/><path fill="#23495d" d="m200.988 280.047-6.168 10.5-.011-12.102Zm0 0"/><path fill="#23495d" d="m200.703 260.61.285 19.437-6.18-1.602ZM200.988 280.047l-.285-19.438 18.973 21.543Zm0 0"/><path fill="#91dbc8" d="m371.906 255.68 12.086-10.43.008 20.469Zm0 0"/><path fill="#93ddca" d="m210.145 300.8 34.964 1.16-13.257 17.599Zm0 0"/><path fill="#92ddc9" d="m210.145 300.8 21.707 18.759-21.016 17.734Zm0 0"/><path fill="#93ddca" d="m245.11 301.96-34.965-1.16 9.53-18.648Zm0 0"/><path fill="#89d2c2" d="m272.895 325.137 24.757 7.644-22.34 8.59Zm0 0"/><path fill="#8dd6c4" d="m275.313 341.371 22.34-8.59-19.704 21.672Zm0 0"/><path fill="#23495d" d="m272.895 325.137-.61 14.75-6.785-17.02Zm0 0"/><path fill="#83cabc" d="m272.285 339.887.61-14.75 2.418 16.234Zm0 0"/><path fill="#23495d" d="m272.285 339.887-11.234 12.828 4.449-29.848Zm0 0"/><path fill="#84cbbc" d="m261.05 352.715 11.235-12.828 3.027 1.484Zm0 0"/><path fill="#95e0cc" d="m219.945 109.996-11.984 4.234 6.488-17.66Zm0 0"/><path fill="#23495d" d="m219.945 109.996 10.004-3.496-.273 9.688Zm0 0"/><path fill="#23495d" d="m229.95 106.5-10.005 3.496 2.442-13.785Zm0 0"/><path fill="#95e0cc" d="m214.45 96.57 6.347-5.203 1.59 4.844Zm0 0"/><path fill="#95e0cc" d="m220.797 91.367-6.348 5.203-6.722-18.597Zm0 0"/><path fill="#23495d" d="m214.45 96.57-17.169-.078 10.446-18.52Zm0 0"/><path fill="#94dfcb" d="M219.945 109.996 214.45 96.57l7.938-.36Zm0 0"/><path fill="#95e0cc" d="m234.61 69.758 44.863 10.148-28.801 18.09Zm0 0"/><path fill="#23495d" d="m163.266 256.906-4.563-3.316 3.781-9.54Zm0 0"/><path fill="#23495d" d="m173.34 255.414-10.074 1.492-.782-12.855Zm0 0"/><path fill="#93deca" d="m163.266 256.906-8.118 4.664 3.555-7.98Zm0 0"/><path fill="#23495d" d="m163.266 256.906 10.074-1.492-6.875 15.043Zm0 0"/><path fill="#23495d" d="m155.148 261.57 8.118-4.664 3.199 13.551Zm0 0"/><path fill="#92dcc9" d="m207.371 257.836-6.668 2.773-2.558-8.754Zm0 0"/><path fill="#91dbc8" d="m210.043 249.281-2.672 8.555-9.226-5.98Zm0 0"/><path fill="#91dbc9" d="m207.371 257.836 2.672-8.555 10.578 9.867Zm0 0"/><path fill="#23495d" d="m200.703 260.61 6.668-2.774 12.305 24.316ZM224.668 277.383l-17.297-19.547 13.25 1.312Zm0 0"/><path fill="#23495d" d="m207.371 257.836 17.297 19.547-4.992 4.77Zm0 0"/><path fill="#94dfcb" d="m76.375 233.55 1.207 21.727-14.848-20.293Zm0 0"/><path fill="#94dfcb" d="m77.582 255.277-12.695-3.39-2.153-16.903Zm0 0"/><path fill="#23495d" d="m79.828 284.73-2.246-29.453 19.797-1.082ZM77.582 255.277l9.313-11.754 10.484 10.672Zm0 0"/><path fill="#23495d" d="m86.895 243.523-9.313 11.754-1.207-21.726Zm0 0"/><path fill="#8fd9c7" d="m365.367 271.637 6.54-15.957L384 265.719Zm0 0"/><path fill="#91dcc9" d="m371.906 255.68-6.539 15.957 3.813-17.543Zm0 0"/><path fill="#94dfcb" d="m347.922 256.168 1.578 13.984-12.496-6.027Zm0 0"/><path fill="#92dcc9" d="m365.367 271.637-7.46-15.582 11.273-1.961Zm0 0"/><path fill="#91dbc8" d="m349.5 270.152 8.406-14.097 7.461 15.582Zm0 0"/><path fill="#23495d" d="m369.18 254.094-11.274 1.96-.351-11.984ZM357.906 256.055l-9.984.113 9.633-12.098Zm0 0"/><path fill="#92ddc9" d="m357.906 256.055-8.406 14.097-1.578-13.984Zm0 0"/></svg>