<svg xmlns="http://www.w3.org/2000/svg" width="512" height="512" viewBox="0 0 384 384"><path fill="#b8bcc4" d="m123.813 49.96 16.64 36.411-35.965 21.074Zm0 0"/><path fill="#b8bcc4" d="m104.488 107.445 35.965-21.074 2.277 25.692Zm0 0"/><path fill="#792f76" d="m193.95 191.21 5.195 14.786-14.946 1.652Zm0 0"/><path fill="#762c78" d="m199.145 205.996-5.196-14.785 13.832 10.078Zm0 0"/><path fill="#b8bcc5" d="m0 302.934 25.195-33.02 12.594 11.637Zm0 0"/><path fill="#b8bcc4" d="M384 142.148v47.957l-46.848-10.32Zm0 0"/><path fill="#b8bbc4" d="M330.355 330.742 302.06 384l-15.875-41.723Zm0 0"/><path fill="#b8bcc5" d="M104.488 107.445 51.648 124l10.567-61.562Zm0 0"/><path fill="#b8bcc4" d="M0 90.36 51.648 124 0 163.977Zm0 0"/><path fill="#b8bcc4" d="M51.648 124 0 90.36l62.215-27.922ZM51.648 124l52.84-16.555-16.168 41.407ZM57.41 174.324 51.648 124l36.672 24.852Zm0 0"/><path fill="#b8bcc4" d="M0 163.977 51.648 124l5.762 50.324ZM158 70.867l-17.547 15.504-16.64-36.41Zm0 0"/><path fill="#b8bcc5" d="m265.047 39.762-50.48-4.64L236.421 0Zm0 0"/><path fill="#b8bcc4" d="m230.973 246.543-20.664-14.29 35.464-19.858Zm0 0"/><path fill="#b8bcc4" d="m260.027 246.484-29.054.059 14.8-34.148ZM230.973 246.543l29.054-.059-24.062 21.696ZM207.031 212.906l-7.886-6.91 8.636-4.707ZM245.773 212.395l-38.742.511.75-11.617ZM207.031 212.906l38.742-.511-35.464 19.859Zm0 0"/><path fill="#8d4864" d="m136.855 172.484 11.504 41.473-36.859-28.34Zm0 0"/><path fill="#8a4467" d="m148.36 213.957-35.727 8.941-1.133-37.28Zm0 0"/><path fill="#b7bbc4" d="m42.508 357.453 2.285-3.953 7.152-1.621ZM110.875 163.645l-7.496 13.406-11.211-6.59Zm0 0"/><path fill="#b8bcc4" d="m143.066 344.719 55.493-4.04L192.938 384Zm0 0"/><path fill="#b8bcc5" d="m286.082 82.578 36.48-35.219 8.188 42.7Zm0 0"/><path fill="#b8bcc4" d="m384 190.105-18.52 22.32-28.328-32.64Zm0 0"/><path fill="#b8bbc4" d="m337.973 243.887 2.597-18.715 16.926 18.133Zm0 0"/><path fill="#b8bcc4" d="m260.027 246.484-14.254-34.09 56.024 8.09Zm0 0"/><path fill="#b8bcc4" d="m245.773 212.395 44.157-38.399 11.867 46.488Zm0 0"/><path fill="#b8bcc4" d="m289.93 173.996-44.157 38.399 4.887-45.825Zm0 0"/><path fill="#b8bcc5" d="m301.797 220.484 38.773 4.688-8.304 17.941ZM330.355 330.742l-16.097-36.273 19.203-.188Zm0 0"/><path fill="#b8bcc4" d="M330.355 330.742 384 384h-81.941ZM351.809 288.113 384 303.762l-53.645 26.98Zm0 0"/><path fill="#b8bcc5" d="m351.809 288.113-21.454 42.63 3.106-36.462Zm0 0"/><path fill="#b8bcc4" d="M0 0h90.637L62.215 62.438Zm0 0"/><path fill="#b8bcc4" d="M0 90.36V0l62.215 62.438ZM90.637 0l33.176 49.96-61.598 12.478Zm0 0"/><path fill="#b8bbc4" d="m123.813 49.96-19.325 57.485-42.273-45.007Zm0 0"/><path fill="#b8bcc4" d="M90.637 0h75.004l-41.828 49.96Zm0 0"/><path fill="#b8bcc4" d="m170.445 48.676-46.632 1.285L165.64 0ZM170.445 48.676 158 70.867l-34.187-20.906ZM170.445 48.676l44.121-13.555-26.808 24.496ZM170.445 48.676 165.641 0l48.925 35.121Zm0 0"/><path fill="#b8bcc4" d="m177.516 74.871-7.07-26.195 17.312 10.941ZM170.445 48.676l7.07 26.195L158 70.867ZM214.566 35.121 165.641 0h70.78ZM214.566 35.121l-7.16 30.207-19.648-5.71Zm0 0"/><path fill="#b8bcc5" d="M236.422 0h61.187l-32.562 39.762Zm0 0"/><path fill="#b8bcc4" d="m222.398 261.934 8.575-15.391 4.992 21.637ZM207.031 212.906l-15.469 4.79 7.583-11.7Zm0 0"/><path fill="#b8bcc4" d="m210.309 232.254-18.746-14.559 15.468-4.789ZM158 70.867l8.973 18.297-26.52-2.793Zm0 0"/><path fill="#752b79" d="m146.266 141.137 25.59-4.211-35 35.558Zm0 0"/><path fill="#6a1d83" d="m103.379 177.05 15.058-7.062-6.937 15.63Zm0 0"/><path fill="#661787" d="m118.438 169.988-15.06 7.063 7.497-13.406Zm0 0"/><path fill="#7f3770" d="m184.2 207.648-35.84 6.309-11.505-41.473Zm0 0"/><path fill="#651787" d="m191.563 217.695-7.364-10.047 14.946-1.652Zm0 0"/><path fill="#b8bcc4" d="m88.32 148.852 19.489-4.028 3.066 18.82ZM88.32 148.852l22.555 14.793-18.707 6.816Zm0 0"/><path fill="#b8bcc4" d="m107.809 144.824-19.489 4.028 16.168-41.407Zm0 0"/><path fill="#6b1e82" d="m44.793 353.5 8.43-20.98-1.278 19.359Zm0 0"/><path fill="#b8bcc4" d="M30.79 207.094 0 163.977l57.41 10.347ZM87.176 199.219 57.41 174.324l34.758-3.863Zm0 0"/><path fill="#651688" d="m103.379 177.05 8.121 8.567-24.324 13.602Zm0 0"/><path fill="#b7bbc4" d="M103.379 177.05 87.176 199.22l4.992-28.758Zm0 0"/><path fill="#5b0a90" d="m42.293 242.266-16.48.535 6.015-9.664Zm0 0"/><path fill="#b8bcc4" d="M95.793 362.371 118.113 384H73.97Zm0 0"/><path fill="#b8bcc4" d="m74.465 360.797 21.328 1.574L73.969 384Zm0 0"/><path fill="#b7bbc4" d="m95.793 362.371-21.328-1.574 13.754-10.004Zm0 0"/><path fill="#b8bcc4" d="m118.113 384-22.32-21.629 47.273-17.652ZM149.86 303.29l-28.294 9.644 3.7-20.118Zm0 0"/><path fill="#62128a" d="m103.855 263.566-23.203 1.63 9.883-17.067Zm0 0"/><path fill="#b7bbc4" d="m36.777 332.91 8.016 20.59-2.285 3.953Zm0 0"/><path fill="#b8bcc4" d="m94.3 347.152 18.731-18.91 30.035 16.477ZM337.152 179.785l16.73-54.812L384 142.148ZM384 142.148l-30.117-17.175L384 78.605Zm0 0"/><path fill="#b8bcc5" d="M353.883 124.973 330.75 90.059 384 78.605Zm0 0"/><path fill="#b8bcc4" d="m303.531 131.2-34.87 11.386 8.542-16.758Zm0 0"/><path fill="#b8bcc4" d="m268.66 142.586 34.871-11.387-13.601 42.797Zm0 0"/><path fill="#b8bcc5" d="M384 78.605 330.75 90.06l-8.187-42.7Zm0 0"/><path fill="#b8bbc4" d="m302.426 280.465-3.18-23.66 17.106 17.343Zm0 0"/><path fill="#b8bcc4" d="m301.797 220.484-2.55 36.32-39.22-10.32Zm0 0"/><path fill="#5b0a90" d="m312.941 285.031-10.515-4.566 13.926-6.317Zm0 0"/><path fill="#b8bcc4" d="m383.988 214.645-18.508-2.22 18.52-22.32Zm0 0"/><path fill="#5b0a90" d="m332.383 282.54-19.442 2.491 3.41-10.883Zm0 0"/><path fill="#b8bcc5" d="m314.258 294.469 18.125-11.93 1.078 11.742Zm0 0"/><path fill="#5b0a90" d="m312.941 285.031 19.442-2.492-18.125 11.93ZM337.973 243.887l10.125 10.656-5.618 5.008Zm0 0"/><path fill="#b8bcc5" d="m348.098 254.543-4.043 11.598-1.575-6.59Zm0 0"/><path fill="#5b0a90" d="m348.098 254.543-10.125-10.656 19.523-.582Zm0 0"/><path fill="#b7bbc4" d="m340.57 225.172-2.597 18.715-5.707-.774Zm0 0"/><path fill="#5b0a90" d="m337.973 243.887-4.575 5.414-1.132-6.188Zm0 0"/><path fill="#5b0a90" d="m333.398 249.3 4.575-5.413 4.507 15.664Zm0 0"/><path fill="#b8bcc4" d="m337.152 179.785 3.418 45.387-38.773-4.688Zm0 0"/><path fill="#5b0a90" d="m253.527 282.48-22.32-6.546 4.758-7.754Zm0 0"/><path fill="#5c0b90" d="m254.355 321.645 3.997-16.243 9.105 13.86Zm0 0"/><path fill="#5b0a90" d="m263.867 286.879-5.515 18.523-4.825-22.922Zm0 0"/><path fill="#b8bcc4" d="m260.027 246.484 3.82 24.114-27.882-2.418Zm0 0"/><path fill="#b8bcc5" d="m299.246 256.805-35.398 13.793-3.82-24.114Zm0 0"/><path fill="#b7bbc4" d="m263.848 270.598-10.32 11.882-17.563-14.3Zm0 0"/><path fill="#b7bbc4" d="m263.848 270.598.02 16.28-10.34-4.398Zm0 0"/><path fill="#b8bcc4" d="m263.848 270.598 35.398-13.793 3.18 23.66ZM263.867 286.879l-.02-16.281 38.579 9.867Zm0 0"/><path fill="#b8bbc4" d="m286.875 290.934-23.008-4.055 38.559-6.414Zm0 0"/><path fill="#b8bcc4" d="M384 303.762V384l-53.645-53.258ZM223.363 71.895l-8.797-36.774 23.813 21.883Zm0 0"/><path fill="#b8bcc4" d="m223.363 71.895-15.957-6.567 7.16-30.207Zm0 0"/><path fill="#5b0a90" d="m207.406 65.328 15.957 6.567-9.746 5.613ZM189.98 70.973l17.426-5.645-11.383 14.223Zm0 0"/><path fill="#b8bcc4" d="m189.98 70.973-12.464 3.898 10.242-15.254ZM207.406 65.328l-17.426 5.645-2.222-11.356Zm0 0"/><path fill="#70257d" d="m140.535 238.098-27.902-15.2 35.726-8.941Zm0 0"/><path fill="#94525e" d="m214.887 185.914-4.305-17.734 19.367-1.149Zm0 0"/><path fill="#b8bcc4" d="m229.477 190.742.472-23.71 20.711-.462ZM229.477 190.742l-14.59-4.828 15.062-18.883ZM245.773 212.395l-16.296-21.653 21.183-24.172ZM166.973 89.164l-24.243 22.899-2.277-25.692Zm0 0"/><path fill="#b8bcc4" d="m154.18 115.031-11.45-2.969 24.243-22.898ZM142.73 112.063l11.45 2.968-4.024 12.574Zm0 0"/><path fill="#6b1e82" d="m136.855 172.484 57.094 18.727-9.75 16.437Zm0 0"/><path fill="#b8bcc4" d="m107.809 144.824 15.136-.601-12.07 19.422Zm0 0"/><path fill="#661886" d="m122.945 144.223-4.507 25.765-7.563-6.343Zm0 0"/><path fill="#7c3373" d="m118.438 169.988 18.417 2.496-25.355 13.133Zm0 0"/><path fill="#b8bcc4" d="m0 384 21.445-47.762 21.063 21.215Zm0 0"/><path fill="#b8bcc4" d="M21.445 336.238 0 384v-81.066Zm0 0"/><path fill="#b8bbc4" d="m21.445 336.238 15.332-3.328 5.73 24.543Zm0 0"/><path fill="#b8bcc4" d="m36.777 332.91-15.332 3.328 8.727-21.965Zm0 0"/><path fill="#b8bcc4" d="M21.445 336.238 0 302.934l30.172 11.34Zm0 0"/><path fill="#b8bbc4" d="m52.102 366.68-9.594-9.227 9.437-5.574Zm0 0"/><path fill="#b8bcc4" d="M52.102 366.68 0 384l42.508-26.547Zm0 0"/><path fill="#5e0e8e" d="m74.465 360.797.422-14.942 13.332 4.938Zm0 0"/><path fill="#5f108c" d="m74.887 345.855 12.863-.82.469 5.758Zm0 0"/><path fill="#5e0d8e" d="M74.887 345.855 53.223 332.52l29.414-11.61Zm0 0"/><path fill="#6a1d83" d="m87.75 345.035-12.863.82 7.75-24.945Zm0 0"/><path fill="#b8bcc4" d="m53.262 230.77-22.473-23.676 30.852 8.761Zm0 0"/><path fill="#b8bcc5" d="m30.79 207.094 26.62-32.77 4.23 41.531Zm0 0"/><path fill="#b8bcc4" d="m57.41 174.324 30.91-25.472 3.848 21.609ZM30.79 207.094 0 226.914v-62.937ZM30.79 207.094l22.472 23.676-21.434 2.367Zm0 0"/><path fill="#b7bbc4" d="m53.262 230.77-10.969 11.496-10.465-9.13Zm0 0"/><path fill="#5b0a90" d="m10.742 246.738-10.746 1.703.004-11.52Zm0 0"/><path fill="#b8bbc4" d="M-.004 248.441 15.25 260.63 0 302.934Zm0 0"/><path fill="#b8bcc4" d="m0 302.934 15.25-42.305 9.945 9.285Zm0 0"/><path fill="#5b0a90" d="m0 226.914 18.758-.59L0 236.922ZM18.758 226.324l-8.016 20.414L0 236.922ZM10.742 246.738l8.016-20.414 7.055 16.477Zm0 0"/><path fill="#5b0a90" d="m25.813 242.8-7.055-16.476 13.07 6.813Zm0 0"/><path fill="#b8bcc4" d="m18.758 226.324 12.031-19.23 1.04 26.043Zm0 0"/><path fill="#b8bcc4" d="m30.79 207.094-12.032 19.23-18.758.59Zm0 0"/><path fill="#5b0a90" d="m29.574 254.273-3.762-11.472 16.481-.535Zm0 0"/><path fill="#b8bcc4" d="m95.793 362.371-1.492-15.219 48.765-2.433Zm0 0"/><path fill="#b7bbc4" d="m94.3 347.152 1.493 15.22-7.574-11.579Zm0 0"/><path fill="#61118b" d="m87.75 345.035 6.55 2.117-6.081 3.641Zm0 0"/><path fill="#b8bcc4" d="m143.066 344.719-30.035-16.477 8.535-15.308ZM143.066 344.719l-21.5-31.785 28.293-9.645ZM198.559 340.68l19.867 18.238L192.938 384Zm0 0"/><path fill="#b8bcc3" d="m118.113 384 24.953-39.281L192.938 384Zm0 0"/><path fill="#62138a" d="m74.86 286.797 7.777 34.113-24.117-6Zm0 0"/><path fill="#5e0e8d" d="m74.86 286.797 18.894 6.734-11.117 27.38Zm0 0"/><path fill="#b8bcc4" d="m100.008 317.863 13.023 10.38-18.73 18.91ZM171.168 277.309l-1.008 11.605-9.691-6.969Zm0 0"/><path fill="#b8bcc4" d="m170.16 288.914-20.3 14.375 10.609-21.344Zm0 0"/><path fill="#b8bcc4" d="m179.785 308.863-29.926-5.574 20.301-14.375Zm0 0"/><path fill="#b8bcc4" d="m149.86 303.29-7.57-20.243 18.179-1.102Zm0 0"/><path fill="#5b0a90" d="m69.328 272.11-14.945-1.012 11.16-9.922Zm0 0"/><path fill="#b8bcc5" d="m52.45 283.383 1.933-12.285 9.527 12.199Zm0 0"/><path fill="#b7bbc4" d="m54.383 271.098 14.945 1.011-5.418 11.188Zm0 0"/><path fill="#5c0c8f" d="m80.652 265.195-11.324 6.914-3.785-10.933Zm0 0"/><path fill="#b8bcc4" d="M30.172 314.273 0 302.933l37.79-21.382Zm0 0"/><path fill="#b7bbc4" d="m50.676 306.113-20.504 8.16 7.617-32.722Zm0 0"/><path fill="#60108c" d="m82.637 320.91-29.414 11.61 5.297-17.61Zm0 0"/><path fill="#5c0b8f" d="m36.777 332.91 16.446-.39-8.43 20.98Zm0 0"/><path fill="#5b0a90" d="m42.895 321.172 7.78-15.059 7.845 8.797Zm0 0"/><path fill="#5b0a90" d="m53.223 332.52-10.328-11.348 15.625-6.262Zm0 0"/><path fill="#b7bbc4" d="m42.895 321.172-12.723-6.899 20.504-8.16Zm0 0"/><path fill="#b8bbc4" d="m42.895 321.172-6.118 11.738-6.605-18.637Zm0 0"/><path fill="#5b0a90" d="m42.895 321.172 10.328 11.348-16.446.39Zm0 0"/><path fill="#6a1c83" d="m87.75 345.035-5.113-24.125L94.3 347.152Zm0 0"/><path fill="#671985" d="m82.637 320.91 17.37-3.047-5.706 29.29Zm0 0"/><path fill="#6c1f81" d="m100.008 317.863-17.371 3.047 11.117-27.379Zm0 0"/><path fill="#b8bcc4" d="m322.941 110.836 30.942 14.137-23.711 2.62Zm0 0"/><path fill="#b8bcc4" d="m322.941 110.836 7.809-20.777 23.133 34.914Zm0 0"/><path fill="#5b0a90" d="M312.516 117.441 303.53 131.2l-26.328-5.37Zm0 0"/><path fill="#b7bbc4" d="m268.66 142.586-1.441-17.477 9.984.72Zm0 0"/><path fill="#5b0a90" d="m267.219 125.11-17.559-2.153 19.278-14.625Zm0 0"/><path fill="#b7bbc4" d="m267.219 125.11 1.441 17.476-19-19.629Zm0 0"/><path fill="#b8bcc4" d="m303.531 131.2 14.274 4.62-27.875 38.176ZM317.805 135.82l19.347 43.965-47.222-5.789ZM268.66 142.586l-26.12-3.922 7.12-15.707Zm0 0"/><path fill="#b8bcc5" d="M322.563 47.36 384 0v78.605Zm0 0"/><path fill="#b8bcc5" d="M322.563 47.36 297.609 0H384Zm0 0"/><path fill="#b8bcc5" d="m297.61 0 24.952 47.36-57.515-7.598ZM214.566 35.121l50.48 4.64-26.667 17.243Zm0 0"/><path fill="#b7bbc4" d="m299.246 256.805 28.215-6.461-11.11 23.804Zm0 0"/><path fill="#b8bcc4" d="m301.797 220.484 25.664 29.86-28.215 6.46Zm0 0"/><path fill="#b6b8c3" d="m333.398 249.3-5.937 1.044 4.805-7.23Zm0 0"/><path fill="#b8bcc5" d="m327.46 250.344-25.663-29.86 30.469 22.63Zm0 0"/><path fill="#b7bbc4" d="m340.57 225.172 19.485 6.578-2.559 11.555ZM360.055 231.75l12.902 6.191-15.46 5.364Zm0 0"/><path fill="#b8bcc4" d="m365.48 212.426-5.425 19.324-19.485-6.578Zm0 0"/><path fill="#5b0a90" d="m372.957 237.941 11.031-23.296-.004 27.761Zm0 0"/><path fill="#b8bbc4" d="m383.988 214.645-11.031 23.296-7.477-25.515Zm0 0"/><path fill="#b8bcc4" d="m372.957 237.941-12.902-6.191 5.425-19.324Zm0 0"/><path fill="#b8bcc5" d="m332.383 282.54 19.426 5.573-18.348 6.168Zm0 0"/><path fill="#b8bcc4" d="m289.93 173.996 47.222 5.79-35.355 40.698ZM337.152 179.785l28.328 32.64-24.91 12.747Zm0 0"/><path fill="#5b0a90" d="m231.207 275.934-8.809-14 13.567 6.246ZM248.504 305.809l-17.297-29.875 22.32 6.546Zm0 0"/><path fill="#5b0a90" d="m258.352 305.402-9.848.407 5.023-23.329ZM248.504 305.809l9.848-.407-3.997 16.243ZM231.207 275.934l17.297 29.875-26.89-25.817ZM231.207 275.934l-9.594 4.058.785-18.058ZM245.355 372.848l13.301 11.16-23.133-.02Zm0 0"/><path fill="#b8bbc4" d="m273.516 355.953 12.668-13.676L302.059 384Zm0 0"/><path fill="#5c0b8f" d="m269.473 303.836-11.121 1.566 5.515-18.523Zm0 0"/><path fill="#b7bbc4" d="m286.875 290.934-17.402 12.902-5.606-16.957Zm0 0"/><path fill="#5c0b8f" d="m258.352 305.402 11.12-1.566-2.015 15.426Zm0 0"/><path fill="#5b0b90" d="m269.473 303.836 17.496 7.926-19.512 7.5Zm0 0"/><path fill="#5d0d8e" d="m269.473 303.836 17.402-12.902.094 20.828ZM286.969 311.762l-13.946 11.617-5.566-4.117Zm0 0"/><path fill="#5b0a90" d="M175.137 96.387 154.18 115.03l12.793-25.867Zm0 0"/><path fill="#5c0b8f" d="m180.559 106.402-5.422-10.015 15.105-2.672Zm0 0"/><path fill="#61128b" d="m154.18 115.031 20.957-18.644 5.422 10.015Zm0 0"/><path fill="#b8bcc4" d="m177.516 74.871-10.543 14.293L158 70.867Zm0 0"/><path fill="#5b0a90" d="m228.375 107.016 40.563 1.316-19.278 14.625Zm0 0"/><path fill="#5b0a90" d="m224.055 122.148 4.32-15.132 21.285 15.941Zm0 0"/><path fill="#b8bbc4" d="m242.54 138.664-18.485-16.516 25.605.809Zm0 0"/><path fill="#5b0a90" d="m312.516 117.441-43.579-9.109.91-3.652Zm0 0"/><path fill="#5b0a90" d="m268.938 108.332 43.578 9.11-35.313 8.386Zm0 0"/><path fill="#5b0a90" d="m267.219 125.11 1.719-16.778 8.265 17.496ZM198.996 83.516l-8.754 10.199 5.781-14.164ZM183.066 82.883l6.914-11.91 6.043 8.578ZM190.242 93.715l-7.176-10.832 12.957-3.332Zm0 0"/><path fill="#5b0a90" d="m189.98 70.973-6.914 11.91-5.55-8.012Zm0 0"/><path fill="#b8bcc4" d="m197.887 250.594-6.457-17.606 18.879-.734Zm0 0"/><path fill="#b8bcc4" d="m191.43 232.988 6.457 17.606-21.082-10.406Zm0 0"/><path fill="#b8bcc4" d="m182.434 225.79 8.996 7.198-14.625 7.2Zm0 0"/><path fill="#72277c" d="m184.2 207.648-1.766 18.141-34.075-11.832Zm0 0"/><path fill="#762c78" d="m191.32 167.477-54.465 5.007 35-35.558Zm0 0"/><path fill="#a06053" d="m191.32 167.477 19.262.703 4.305 17.734Zm0 0"/><path fill="#97545b" d="m191.32 167.477 23.567 18.437-20.938 5.297Zm0 0"/><path fill="#bb823a" d="m136.855 172.484 54.465-5.007 2.63 23.734Zm0 0"/><path fill="#b8bcc4" d="m207.781 201.29 21.696-10.548 16.296 21.653ZM229.477 190.742 207.78 201.29l7.106-15.375Zm0 0"/><path fill="#9b5a59" d="m214.887 185.914-7.106 15.375-13.832-10.078Zm0 0"/><path fill="#833c6d" d="m189.668 129.188 9.57 23.39-27.383-15.652Zm0 0"/><path fill="#fed600" d="m196.523 109.207-6.855 19.98-9.11-22.785ZM189.668 129.188l6.855-19.981 8.665 12.387Zm0 0"/><path fill="#6d2081" d="M171.855 136.926 154.18 115.03l26.379-8.629Zm0 0"/><path fill="#6e227f" d="m189.668 129.188-17.813 7.738 8.704-30.524Zm0 0"/><path fill="#6f237e" d="m154.18 115.031 17.675 21.895-21.699-9.32Zm0 0"/><path fill="#752b79" d="m122.945 144.223 13.91 28.261-18.417-2.496Zm0 0"/><path fill="#b8bcc4" d="m104.488 107.445 18.457 36.778-15.136.601Zm0 0"/><path fill="#71257d" d="m122.945 144.223 23.32-3.086-9.41 31.347Zm0 0"/><path fill="#60118b" d="m74.887 345.855-22.942 6.024 1.278-19.36Zm0 0"/><path fill="#b7bbc4" d="m52.102 366.68-.157-14.801 22.52 8.918Zm0 0"/><path fill="#5e0d8e" d="m51.945 351.879 22.942-6.024-.422 14.942Zm0 0"/><path fill="#b8bcc4" d="m0 384 52.102-17.32L73.969 384Zm0 0"/><path fill="#b8bbc4" d="m52.102 366.68 22.363-5.883L73.969 384ZM120.668 273.227l4.598 19.59-16.258-12.965Zm0 0"/><path fill="#b8bcc5" d="M87.176 199.219 61.64 215.855l-4.23-41.53Zm0 0"/><path fill="#772d78" d="m84.168 234.031 28.465-11.133-22.098 25.23Zm0 0"/><path fill="#5b0a90" d="m10.742 246.738-.906 1.457-9.84.246Zm0 0"/><path fill="#b8bcc4" d="m15.25 260.629-5.414-12.434.906-1.457Zm0 0"/><path fill="#b8bcc4" d="m9.836 248.195 5.414 12.434L-.004 248.44Zm0 0"/><path fill="#5b0a90" d="m25.813 242.8-3.657 9.227-11.414-5.289Zm0 0"/><path fill="#5b0a90" d="m29.574 254.273-7.418-2.246 3.657-9.226Zm0 0"/><path fill="#b8bcc4" d="m22.156 252.027-6.906 8.602-4.508-13.89Zm0 0"/><path fill="#5b0a90" d="m43.285 256.262-13.71-1.989 12.718-12.007Zm0 0"/><path fill="#5b0a90" d="m29.574 254.273 13.711 1.989-4.922 7.812Zm0 0"/><path fill="#b7bbc4" d="m25.195 269.914.563-10.27 12.605 4.43Zm0 0"/><path fill="#b7bbc4" d="m25.758 259.645 3.816-5.372 8.79 9.801Zm0 0"/><path fill="#b7bbc4" d="m25.758 259.645-3.602-7.618 7.418 2.246Zm0 0"/><path fill="#b8bbc4" d="m15.25 260.629 10.508-.984-.563 10.27Zm0 0"/><path fill="#b8bcc4" d="m22.156 252.027 3.602 7.618-10.508.984ZM192.938 384l35.683-16.734 6.902 16.722ZM218.426 358.918l10.195 8.348L192.937 384Zm0 0"/><path fill="#5b0a90" d="m228.621 367.266 16.734 5.582-9.832 11.14Zm0 0"/><path fill="#b8bcc4" d="m179.785 308.863 36.328 6.45-17.554 25.367Zm0 0"/><path fill="#b8bcc4" d="m216.113 315.313-36.328-6.45 15.106-20.09ZM185.945 280.703l-6.16 28.16-9.625-19.949Zm0 0"/><path fill="#5b0a90" d="m69.328 272.11 5.531 14.687-10.949-3.5ZM80.652 265.195l-5.793 21.602-5.53-14.688Zm0 0"/><path fill="#5e0e8d" d="m74.86 286.797 5.792-21.602 23.203-1.629Zm0 0"/><path fill="#b8bcc4" d="m100.008 317.863 21.558-4.93-8.535 15.31Zm0 0"/><path fill="#5c0c8f" d="m152.844 268.637 18.324 8.672-10.7 4.636Zm0 0"/><path fill="#b8bcc4" d="m37.79 281.55-12.595-11.636 13.168-5.84ZM37.79 281.55l16.593-10.452-1.934 12.285Zm0 0"/><path fill="#b7bbc4" d="m50.676 306.113 1.773-22.73 11.461-.086Zm0 0"/><path fill="#b8bcc5" d="m50.676 306.113-12.887-24.562 14.66 1.832Zm0 0"/><path fill="#5c0b90" d="m50.676 306.113 24.183-19.316-16.34 28.113Zm0 0"/><path fill="#b8bcc5" d="m315.285 101.707-29.203-19.129 44.668 7.48Zm0 0"/><path fill="#b8bcc4" d="m322.941 110.836-7.656-9.129 15.465-11.648Zm0 0"/><path fill="gold" d="m286.082 82.578 29.203 19.129-45.437 2.973Zm0 0"/><path fill="#5f108c" d="m315.285 101.707 7.656 9.129-10.425 6.605Zm0 0"/><path fill="#fed600" d="m315.285 101.707-2.77 15.734-42.667-12.761Zm0 0"/><path fill="#b8bbc4" d="m337.152 179.785-7.293-36.86 24.024-17.952Zm0 0"/><path fill="#b8bcc4" d="m317.805 135.82 12.054 7.106 7.293 36.86ZM353.883 124.973l-24.024 17.953.313-15.332ZM268.66 142.586l-18 23.984-8.12-27.906Zm0 0"/><path fill="#b8bcc4" d="m250.66 166.57 18-23.984 21.27 31.41Zm0 0"/><path fill="gold" d="m222.871 92.438 27.188-20.57 19.789 32.812Zm0 0"/><path fill="#b8bcc4" d="m265.047 39.762-14.988 32.105-11.68-14.863Zm0 0"/><path fill="#5b0a90" d="m342.48 259.55-6.078 4.313-3.004-14.562ZM336.402 263.863l-8.941-13.52 5.937-1.042ZM327.46 250.344l8.942 13.52-20.05 10.284Zm0 0"/><path fill="#5b0a90" d="m336.402 263.863-4.02 18.676-16.03-8.39Zm0 0"/><path fill="#5c0b8f" d="m303.98 289.844-17.105 1.09 15.55-10.47Zm0 0"/><path fill="#5b0a90" d="m372.957 237.941 1.816 15.395-17.277-10.031ZM383.984 242.406l-9.21 10.93-1.817-15.395Zm0 0"/><path fill="#b8bcc5" d="m332.383 282.54 11.672-16.4 7.754 21.973Zm0 0"/><path fill="#b8bcc4" d="m344.055 266.14-7.653-2.277 6.078-4.312Zm0 0"/><path fill="#b7bbc4" d="m336.402 263.863 7.653 2.278-11.672 16.398Zm0 0"/><path fill="#b8bcc4" d="m220.473 282.21-4.36 33.103-21.222-26.54Zm0 0"/><path fill="#5b0a90" d="m247.164 306.836 1.34-1.027 5.851 15.836Zm0 0"/><path fill="#5b0a90" d="m248.387 320.84-1.223-14.004 7.191 14.809Zm0 0"/><path fill="#b8bcc4" d="m247.164 306.836 1.223 14.004-32.274-5.527Zm0 0"/><path fill="#b8bcc4" d="m233.277 348.262-34.718-7.582 17.554-25.368ZM248.387 320.84l-15.11 27.422-17.164-32.95Zm0 0"/><path fill="#5b0a90" d="m233.277 348.262 21.078-26.617-.746 22.918Zm0 0"/><path fill="#5b0a90" d="m233.277 348.262 15.11-27.422 5.968.805ZM245.355 372.848l14.395-2.762-1.094 13.922Zm0 0"/><path fill="#b7bbc4" d="m259.75 370.086.074-17.684 13.692 3.551Zm0 0"/><path fill="#b8bcc5" d="m258.656 384.008 1.094-13.922L302.059 384Zm0 0"/><path fill="#b8bcc4" d="m259.75 370.086 13.766-14.133L302.059 384Zm0 0"/><path fill="#5b0a90" d="m183.066 82.883-7.93 13.504-8.163-7.223Zm0 0"/><path fill="#5b0a90" d="m177.516 74.871 5.55 8.012-16.093 6.281ZM175.137 96.387l7.93-13.504 7.175 10.832Zm0 0"/><path fill="#fed600" d="m227.777 100.828-4.906-8.39 46.977 12.242Zm0 0"/><path fill="#5d0c8e" d="m268.938 108.332-41.16-7.504 42.07 3.852Zm0 0"/><path fill="#60108c" d="m227.777 100.828 41.16 7.504-40.562-1.316Zm0 0"/><path fill="#b8bcc4" d="m250.059 71.867-26.696.028 15.016-14.891Zm0 0"/><path fill="#5b0a90" d="m223.363 71.895-.492 20.543-9.254-14.93Zm0 0"/><path fill="#fed600" d="m223.363 71.895 26.696-.028-27.188 20.57Zm0 0"/><path fill="#b8bcc5" d="m322.563 47.36-36.481 35.218-21.035-42.816Zm0 0"/><path fill="#b8bcc4" d="m222.871 92.438-11.984-3.575 2.73-11.355Zm0 0"/><path fill="#9e5e55" d="m187.188 264.453-21.797-5.371 30.539.39Zm0 0"/><path fill="#b8bcc4" d="m196.129 278.477 24.344 3.734-25.582 6.562ZM230.973 246.543l-16.23 10.375-4.434-24.664Zm0 0"/><path fill="#b7bbc4" d="m222.398 261.934-7.656-5.016 16.23-10.375Zm0 0"/><path fill="#b8bcc4" d="m214.742 256.918-16.855-6.324 12.422-18.34Zm0 0"/><path fill="#b8bcc4" d="m197.887 250.594 16.855 6.324-18.812 2.555Zm0 0"/><path fill="#73287b" d="m164.902 239.34-24.367-1.242 7.824-24.141Zm0 0"/><path fill="#752b79" d="m182.434 225.79-17.532 13.55-16.543-25.383Zm0 0"/><path fill="#5c0c8f" d="m164.902 239.34 17.532-13.55-5.63 14.398Zm0 0"/><path fill="#b8bcc4" d="m191.43 232.988.132-15.293 18.747 14.559Zm0 0"/><path fill="#b9bcbf" d="m182.434 225.79 9.129-8.095-.133 15.293Zm0 0"/><path fill="#671985" d="m191.563 217.695-9.13 8.094 1.766-18.14Zm0 0"/><path fill="#70257d" d="M164.902 239.34 153 249.73l-12.465-11.632Zm0 0"/><path fill="#71267c" d="m140.535 238.098-36.68 25.468 8.778-40.668Zm0 0"/><path fill="#762c78" d="m216.027 152.93 13.922 14.101-19.367 1.149Zm0 0"/><path fill="#7f3870" d="m216.027 152.93-16.789-.352 8.965-11.516Zm0 0"/><path fill="#b8bcc4" d="m225.73 145.633-1.675-23.485 18.484 16.516Zm0 0"/><path fill="#b8bcc4" d="m250.66 166.57-24.93-20.937 16.81-6.969ZM229.95 167.031l-4.22-21.398 24.93 20.937Zm0 0"/><path fill="#fed600" d="m225.73 145.633-9.703 7.297-7.824-11.868ZM216.027 152.93l9.703-7.297 4.22 21.398Zm0 0"/><path fill="#fed600" d="m224.055 122.148 1.675 23.485-17.527-4.57Zm0 0"/><path fill="#7d3572" d="m208.203 141.063-8.965 11.515-9.57-23.39Zm0 0"/><path fill="#fed600" d="m205.188 121.594 3.015 19.469-18.535-11.875Zm0 0"/><path fill="#fed600" d="m208.203 141.063-3.016-19.47 18.868.555Zm0 0"/><path fill="#793076" d="m199.238 152.578-7.918 14.899-19.465-30.551Zm0 0"/><path fill="#782e77" d="m191.32 167.477 7.918-14.899 11.344 15.602Zm0 0"/><path fill="#71267c" d="m199.238 152.578 16.79.352-5.446 15.25Zm0 0"/><path fill="#fed600" d="m196.523 109.207-15.964-2.805 9.683-12.687Zm0 0"/><path fill="#7a3174" d="m171.855 136.926-25.59 4.21 3.891-13.53Zm0 0"/><path fill="#762b79" d="m112.633 222.898-8.778 40.668-13.32-15.437Zm0 0"/><path fill="#7a3174" d="m103.855 263.566 16.813 9.66-11.66 6.626Zm0 0"/><path fill="#b7bbc4" d="m87.176 199.219-7.598 29.52-17.937-12.884Zm0 0"/><path fill="#762b78" d="m79.578 228.738 33.055-5.84-28.465 11.133Zm0 0"/><path fill="#5c0c8f" d="m75.746 254.262 4.906 10.933-15.109-4.02Zm0 0"/><path fill="#5b0a90" d="m57.676 251.602-14.39 4.66-.993-13.996Zm0 0"/><path fill="#b8bbc4" d="m53.262 230.77 4.414 20.832-15.383-9.336Zm0 0"/><path fill="#b8bcc4" d="m121.566 312.934-16.472-15.614 20.172-4.504Zm0 0"/><path fill="#b8bbc4" d="m125.266 292.816-20.172 4.504 3.914-17.468Zm0 0"/><path fill="#b8bcc4" d="m100.008 317.863 5.086-20.543 16.472 15.614Zm0 0"/><path fill="#b8bbc4" d="m233.277 348.262-4.656 19.004-10.195-8.348Zm0 0"/><path fill="#b8bcc4" d="m233.277 348.262-14.851 10.656-19.867-18.238ZM179.785 308.863l-36.719 35.856 6.793-41.43ZM143.066 344.719l36.72-35.856 18.773 31.817ZM185.945 280.703l8.946 8.07-15.106 20.09Zm0 0"/><path fill="#691b84" d="m93.754 293.531 10.101-29.965 5.153 16.286Zm0 0"/><path fill="#5d0d8e" d="m93.754 293.531-18.895-6.734 28.996-23.23Zm0 0"/><path fill="#691c84" d="m105.094 297.32-11.34-3.789 15.254-13.68Zm0 0"/><path fill="#691b84" d="m93.754 293.531 11.34 3.79-5.086 20.542Zm0 0"/><path fill="#5b0b90" d="m142.29 283.047 1.784-8.266 16.395 7.164Zm0 0"/><path fill="#5b0a90" d="m144.074 274.781 8.77-6.144 7.625 13.308ZM120.668 273.227l23.406 1.554-1.785 8.266Zm0 0"/><path fill="#b8bbc4" d="m37.79 281.55 11.858-14.706 4.735 4.254Zm0 0"/><path fill="#5b0a90" d="m54.383 271.098-4.735-4.254 15.895-5.668ZM43.285 256.262l6.363 10.582-11.285-2.77Zm0 0"/><path fill="#b7bbc4" d="M49.648 266.844 37.79 281.55l.574-17.477Zm0 0"/><path fill="#5b0a90" d="m49.648 266.844 8.028-15.242 7.867 9.574Zm0 0"/><path fill="#5b0b90" d="m57.676 251.602-8.028 15.242-6.363-10.582Zm0 0"/><path fill="#5b0a90" d="m74.86 286.797-24.184 19.316 13.234-22.816Zm0 0"/><path fill="#5c0c8f" d="m75.746 254.262 14.79-6.133-9.884 17.066ZM329.86 142.926l-8.669-14.805 8.98-.527Zm0 0"/><path fill="#5b0b90" d="m321.191 128.121 8.668 14.805-12.054-7.106Zm0 0"/><path fill="#60118b" d="m321.191 128.121 1.75-17.285 7.23 16.758Zm0 0"/><path fill="#651787" d="m322.941 110.836-1.75 17.285-8.675-10.68Zm0 0"/><path fill="#5c0b8f" d="m321.191 128.121-17.66 3.078 8.985-13.758ZM321.191 128.121l-3.386 7.7-14.274-4.622Zm0 0"/><path fill="#b8bcc4" d="m330.355 330.742-30.55-29.484 14.453-6.79Zm0 0"/><path fill="#5d0c8f" d="m299.805 301.258 4.175-11.414 10.278 4.625Zm0 0"/><path fill="#b8bcc4" d="m299.805 301.258 30.55 29.484-43.386-18.98Zm0 0"/><path fill="#5d0d8e" d="m286.875 290.934 12.93 10.324-12.836 10.504Zm0 0"/><path fill="#5c0b90" d="m303.98 289.844-4.175 11.414-12.93-10.324Zm0 0"/><path fill="#5b0a90" d="m312.941 285.031-8.96 4.813-1.555-9.38Zm0 0"/><path fill="#5c0b90" d="m303.98 289.844 8.961-4.813 1.317 9.438Zm0 0"/><path fill="#b8bcc4" d="m374.773 253.336 9.211-10.93.02 18.989Zm0 0"/><path fill="#5b0a90" d="m247.164 306.836-26.691-24.625 1.14-2.219ZM248.504 305.809l-1.34 1.027-25.55-26.844Zm0 0"/><path fill="#5d0d8e" d="m247.148 360.39 6.461-15.827 6.215 7.84Zm0 0"/><path fill="#5b0a90" d="m253.61 344.563-6.462 15.828-13.87-12.13ZM228.621 367.266l18.527-6.875-1.793 12.457Zm0 0"/><path fill="#5c0c8f" d="m233.277 348.262 13.871 12.129-18.527 6.875Zm0 0"/><path fill="#5b0a90" d="m259.75 370.086-12.602-9.695 12.676-7.989Zm0 0"/><path fill="#5b0a90" d="m247.148 360.39 12.602 9.696-14.395 2.762Zm0 0"/><path fill="#b8bcc4" d="m271.102 341.023 15.082 1.254-12.668 13.676Zm0 0"/><path fill="#5e0d8e" d="m267.457 319.262 3.645 21.761-16.747-19.378Zm0 0"/><path fill="#b7bbc4" d="m271.102 341.023 2.414 14.93-13.692-3.55Zm0 0"/><path fill="#61118b" d="m253.61 344.563 17.492-3.54-11.278 11.38Zm0 0"/><path fill="#5f0f8d" d="m254.355 321.645 16.747 19.378-17.493 3.54Zm0 0"/><path fill="#b8bcc4" d="m287.965 324.984-14.942-1.605 13.946-11.617ZM330.355 330.742l-42.39-5.758-.996-13.222Zm0 0"/><path fill="#fed700" d="m205.188 121.594 4.226-11.504 14.64 12.058Zm0 0"/><path fill="#fed600" d="m209.414 110.09-4.226 11.504-8.665-12.387ZM206.09 96.672l3.324 13.418-12.89-.883Zm0 0"/><path fill="gold" d="m190.242 93.715 15.848 2.957-9.567 12.535Zm0 0"/><path fill="#fed600" d="m198.996 83.516 7.094 13.156-15.848-2.957Zm0 0"/><path fill="#b8bcc5" d="m286.082 82.578-36.023-10.71 14.988-32.106Zm0 0"/><path fill="#fed600" d="m213.617 77.508-2.73 11.355-11.89-5.347Zm0 0"/><path fill="#5b0a90" d="m213.617 77.508-14.62 6.008-2.974-3.965Zm0 0"/><path fill="#5b0a90" d="m207.406 65.328 6.211 12.18-17.594 2.043Zm0 0"/><path fill="#b8bcc4" d="m171.168 277.309 14.777 3.394-15.785 8.211Zm0 0"/><path fill="#5e0e8d" d="m185.945 280.703-14.777-3.394 16.02-12.856Zm0 0"/><path fill="#5f0f8d" d="m171.168 277.309-5.777-18.227 21.797 5.371Zm0 0"/><path fill="#b8bcc3" d="m197.887 250.594-23.211-1.223 2.129-9.184Zm0 0"/><path fill="#5f0f8d" d="m174.676 249.371-9.774-10.031 11.903.847Zm0 0"/><path fill="#fdd500" d="m174.676 249.371 23.21 1.223-1.956 8.879Zm0 0"/><path fill="#fdd501" d="m165.39 259.082 9.286-9.71 21.254 10.1Zm0 0"/><path fill="#5b0a90" d="m196.129 278.477 25.484 1.515-1.14 2.219Zm0 0"/><path fill="#efc30d" d="m187.188 264.453 8.94 14.024-10.183 2.226Zm0 0"/><path fill="#fad103" d="m196.129 278.477-8.941-14.024 8.742-4.98Zm0 0"/><path fill="#5e0e8d" d="m152.844 268.637 2.75-5.457 15.574 14.129Zm0 0"/><path fill="#5d0d8e" d="m155.594 263.18-2.75 5.457-14.223-8.996Zm0 0"/><path fill="#b8bcc4" d="m153 249.73 2.594 13.45-16.973-3.54Zm0 0"/><path fill="#5b0a90" d="m138.621 259.64 14.223 8.997-8.77 6.144Zm0 0"/><path fill="#5c0b8f" d="m120.668 273.227 17.953-13.586 5.453 15.14Zm0 0"/><path fill="#772d78" d="m138.621 259.64-17.953 13.587-16.813-9.66Zm0 0"/><path fill="#70257d" d="m140.535 238.098-1.914 21.543-34.766 3.925Zm0 0"/><path fill="#b8bcc4" d="m125.266 292.816-4.598-19.59 21.621 9.82ZM125.266 292.816l17.023-9.77 7.57 20.243Zm0 0"/><path fill="#6c1f81" d="M140.535 238.098 153 249.73l-14.379 9.91Zm0 0"/><path fill="#b8bcc4" d="m150.156 127.605-10.039 5.207 2.613-20.75Zm0 0"/><path fill="#691b84" d="m146.266 141.137-6.149-8.324 10.04-5.208Zm0 0"/><path fill="#b8bcc4" d="m140.117 132.813-35.629-25.368 38.242 4.618Zm0 0"/><path fill="#b8bcc4" d="m140.117 132.813-17.172 11.41-18.457-36.778Zm0 0"/><path fill="#6a1d83" d="m140.117 132.813 6.149 8.324-23.32 3.086Zm0 0"/><path fill="#b8bcc4" d="m79.578 228.738-2.527 8.395-15.41-21.278ZM61.64 215.855l15.41 21.278-23.788-6.363Zm0 0"/><path fill="#5c0b90" d="m77.05 237.133 2.528-8.395 4.59 5.293Zm0 0"/><path fill="#853e6b" d="m98.895 210.25 13.738 12.648-33.055 5.84Zm0 0"/><path fill="#5d0d8e" d="m98.895 210.25-19.317 18.488 7.598-29.52Zm0 0"/><path fill="#5f0f8d" d="m98.895 210.25-11.72-11.031 24.325-13.602Zm0 0"/><path fill="#823a6e" d="M112.633 222.898 98.895 210.25l12.605-24.633Zm0 0"/><path fill="#b8bbc4" d="m66.938 251.14-9.262.462-4.414-20.832Zm0 0"/><path fill="#5b0a90" d="m66.938 251.14 8.808 3.122-10.203 6.914ZM57.676 251.602l9.261-.461-1.394 10.035Zm0 0"/><path fill="#f3c80a" d="m196.129 278.477-1.238 10.296-8.946-8.07Zm0 0"/><path fill="#b8bcc4" d="m368.273 267.469 15.73-6.074-.003 42.367Zm0 0"/><path fill="#b8bcc4" d="m368.273 267.469 6.5-14.133 9.23 8.059ZM247.164 306.836l-31.05 8.476 4.359-33.101ZM286.184 342.277l1.78-17.293 42.391 5.758Zm0 0"/><path fill="#b8bcc4" d="m286.184 342.277-13.16-18.898 14.94 1.605Zm0 0"/><path fill="#5d0d8e" d="m273.023 323.379-1.921 17.644-3.645-21.761Zm0 0"/><path fill="#b8bcc4" d="m271.102 341.023 1.921-17.644 13.16 18.898Zm0 0"/><path fill="#fed600" d="m209.414 110.09 7.418-5.813 7.223 17.871Zm0 0"/><path fill="#5d0c8f" d="m224.055 122.148-7.223-17.87 11.543 2.738Zm0 0"/><path fill="#5c0b8f" d="m216.832 104.277 10.945-3.449.598 6.188Zm0 0"/><path fill="#5b0a90" d="m227.777 100.828-10.945 3.45 6.04-11.84Zm0 0"/><path fill="#b8bcc5" d="m206.09 96.672 4.797-7.809 11.984 3.575Zm0 0"/><path fill="#b8bcc4" d="m210.887 88.863-4.797 7.809-7.094-13.156ZM216.832 104.277l-10.742-7.605 16.781-4.234Zm0 0"/><path fill="#fed600" d="m206.09 96.672 10.742 7.605-7.418 5.813ZM250.059 71.867l36.023 10.711-16.234 22.102Zm0 0"/><path fill="#61128b" d="M165.39 259.082 153 249.73l11.902-10.39Zm0 0"/><path fill="#62138a" d="m174.676 249.371-9.285 9.711-.489-19.742Zm0 0"/><path fill="#b8bcc4" d="m165.39 259.082-9.796 4.098L153 249.73Zm0 0"/><path fill="#5e0e8d" d="m155.594 263.18 9.797-4.098 5.777 18.227Zm0 0"/><path fill="#5d0c8f" d="m211.68 266.84-15.551 11.637-.2-19.004Zm0 0"/><path fill="#5d0d8e" d="m214.742 256.918-3.062 9.922-15.75-7.367Zm0 0"/><path fill="#5d0c8f" d="m211.68 266.84 3.062-9.922 7.656 5.016Zm0 0"/><path fill="#5b0a90" d="m221.613 279.992-9.933-13.152 10.718-4.906Zm0 0"/><path fill="#5d0d8e" d="m211.68 266.84 9.933 13.152-25.484-1.515Zm0 0"/><path fill="#b8bcc4" d="M77.05 237.133 66.939 251.14 53.262 230.77Zm0 0"/><path fill="#b7bbc4" d="m66.938 251.14 10.113-14.007-1.305 17.129Zm0 0"/><path fill="#5e0e8d" d="m90.535 248.129-13.484-10.996 7.117-3.102Zm0 0"/><path fill="#5d0d8e" d="m77.05 237.133 13.485 10.996-14.789 6.133Zm0 0"/><path fill="#b8bcc5" d="M368.273 267.469 384 303.762l-32.191-15.649Zm0 0"/><path fill="#b8bcc5" d="m353.797 265.102 14.476 2.367-16.464 20.644Zm0 0"/><path fill="#b8bcc5" d="m348.098 254.543 5.699 10.559-9.742 1.039Zm0 0"/><path fill="#b8bcc5" d="m353.797 265.102-1.988 23.011-7.754-21.972ZM368.273 267.469l-11.054-15.614 17.554 1.48Zm0 0"/><path fill="#b8bcc5" d="m353.797 265.102 3.422-13.247 11.054 15.614Zm0 0"/><path fill="#5b0a90" d="m374.773 253.336-17.554-1.48.277-8.551ZM357.219 251.855l-9.121 2.688 9.398-11.238Zm0 0"/><path fill="#b8bbc4" d="m357.219 251.855-3.422 13.247-5.7-10.559Zm0 0"/></svg>