<svg xmlns="http://www.w3.org/2000/svg" width="512" height="512" viewBox="0 0 384 384"><path fill="#fbfaf8" d="m107.098 122.93-52.465-1.547 65.336-60.5Zm0 0"/><path fill="#fbfaf8" d="m107.098 122.93 12.87-62.047 21.493 45.113Zm0 0"/><path fill="#f0e7c8" d="m206.309 45.918-36.204 9.383-1.5-55.293Zm0 0"/><path fill="#081d3c" d="m195.117 196.41-1.758 17.645-13.78-8.395ZM193.36 214.055l1.757-17.645 11.551 5.465Zm0 0"/><path fill="#efe5c3" d="m-.008 293.512 30.508-16.91-1.84 24.57Zm0 0"/><path fill="#f2efe2" d="m216.535 238.785 20.695-28.246 26.81 34.965Zm0 0"/><path fill="#eceae0" d="m310.121 223.25-46.082 22.254 17.274-73.602Zm0 0"/><path fill="#f5ebcb" d="M54.633 121.383.012 76.71 72.442-.012Zm0 0"/><path fill="#f1eddd" d="m226.813 253.238-10.278-14.453 47.504 6.719Zm0 0"/><path fill="#f8f3e4" d="m207.29 220.027-13.93-5.972 13.308-12.18Zm0 0"/><path fill="#f5f2e7" d="m237.23 210.54-29.94 9.487-.622-18.152Zm0 0"/><path fill="#f5f2e7" d="m207.29 220.027 29.94-9.488-20.695 28.246Zm0 0"/><path fill="#081d3b" d="m139.809 174.512 14.754 33.758-39.32-6.188Zm0 0"/><path fill="#081d3c" d="m176.586 173.633-22.024 34.637-14.753-33.758Zm0 0"/><path fill="#f3e6bb" d="M.031 167.883.011 76.71l54.622 44.672Zm0 0"/><path fill="#ede5c8" d="m19.988 354.348 22.969-3.157-.39 3.286Zm0 0"/><path fill="#efead6" d="m384.004 54.164-93.8 5.77-6.38-59.938Zm0 0"/><path fill="#e9e8e1" d="m341.504 244.96.84-11.187 18.148 9.836Zm0 0"/><path fill="#f1eee3" d="m237.23 210.54 44.083-38.638-17.274 73.602Zm0 0"/><path fill="#f3f1e9" d="M281.313 171.902 237.23 210.54l7.293-41.465Zm0 0"/><path fill="#e9e5d6" d="m332.277 318.66-11.191-27.418 26.523-6.285Zm0 0"/><path fill="#ece6cf" d="m384 297.676-51.723 20.984 15.332-33.703Zm0 0"/><path fill="#f3e7bd" d="M.012 76.71 0 0l72.441-.012Zm0 0"/><path fill="#f6f0da" d="M54.633 121.383 72.44-.012l47.528 60.895Zm0 0"/><path fill="#f2e7bf" d="m72.441-.012 96.164.02-48.636 60.875Zm0 0"/><path fill="#f5eed8" d="m170.105 55.3-50.136 5.583L168.605.008Zm0 0"/><path fill="#f8f4e4" d="m170.105 55.3-4.886 20.505-45.25-14.922Zm0 0"/><path fill="#f7f1dc" d="m170.105 55.3 16.485 14.446-21.371 6.059Zm0 0"/><path fill="#f4edd4" d="m217.785 62.313-8.414 3.855-3.062-20.25Zm0 0"/><path fill="#eee5c5" d="M283.824-.004 206.31 45.918 168.605.008Zm0 0"/><path fill="#f2eee0" d="m230.488 264.45-3.675-11.212 37.226-7.734Zm0 0"/><path fill="#f6f2e2" d="m192.613 236.625 14.676-16.598 9.246 18.758Zm0 0"/><path fill="#f7f3e3" d="m192.613 236.625.746-22.57 13.93 5.972Zm0 0"/><path fill="#f9f8f2" d="m165.219 75.805-5.211 22.254-40.04-37.176Zm0 0"/><path fill="#081d3c" d="m176.586 173.633-7.09-38.942 22.625 13.254ZM139.809 174.512l-24.567 27.57 3.711-30.406ZM179.578 205.66l-25.016 2.61 22.024-34.637Zm0 0"/><path fill="#fbfaf6" d="m85.633 160.398 20.969-11.597 4.12 15.437Zm0 0"/><path fill="#fbfbfa" d="m85.633 160.398-31-39.015 52.465 1.547Zm0 0"/><path fill="#fafaf9" d="m106.602 148.8-20.97 11.598 21.466-37.468Zm0 0"/><path fill="#eee2b7" d="m-.008 293.512 19.996 60.836L0 384Zm0 0"/><path fill="#ede4c2" d="m19.988 354.348 22.578.129 24.809 29.527Zm0 0"/><path fill="#081d3b" d="m93.54 277.578 14.89 8.879-3.41 10.656Zm0 0"/><path fill="#f5f1e2" d="m30.191 192.363-30.16-24.48 54.602-46.5Zm0 0"/><path fill="#081d3b" d="m115.242 202.082-29.105 3.262 7.426-16.606Zm0 0"/><path fill="#f9f6ec" d="M93.563 188.738 72.53 192.43l13.102-32.032Zm0 0"/><path fill="#f6f5ee" d="M86.137 205.344 72.53 192.43l21.031-3.692Zm0 0"/><path fill="#081d3b" d="m100.293 180.082 10.43-15.844 8.23 7.438Zm0 0"/><path fill="#081d3b" d="m115.242 202.082-14.949-22 18.66-8.406Zm0 0"/><path fill="#081d3b" d="m100.293 180.082 14.95 22-21.68-13.344Zm0 0"/><path fill="#fbfaf6" d="m100.293 180.082-6.73 8.656-7.93-28.34Zm0 0"/><path fill="#f8f6f1" d="m110.723 164.238-10.43 15.844-14.66-19.684Zm0 0"/><path fill="#081d3b" d="m35.828 237.645-12.91 4.37.09-15.683Zm0 0"/><path fill="#ede4c5" d="m119.645 359.852 73.609 24.164-125.879-.012Zm0 0"/><path fill="#ece3c2" d="m78.613 360.242 41.032-.39-52.27 24.152Zm0 0"/><path fill="#ece3c1" d="m119.645 359.852-41.032.39 13.043-12.562Zm0 0"/><path fill="#f2ebd3" d="m166.074 325.887-43.77-9.782 6.739-22.238Zm0 0"/><path fill="#081d3b" d="m93.54 277.578-19.88 22.375 14.512-26.805Zm0 0"/><path fill="#eee6cb" d="m36.98 332.477 5.977 18.714-22.969 3.157Zm0 0"/><path fill="#eee6c9" d="m122.305 316.105-2.66 43.747-10.254-24.993Zm0 0"/><path fill="#ebe9dd" d="m383.996 179.828-27.25-45.055 27.258-80.609Zm0 0"/><path fill="#eceade" d="m334.828 94.23 21.918 40.543-26.707-11.425Zm0 0"/><path fill="#ebe8dd" d="M356.746 134.773 334.828 94.23l49.176-40.066Zm0 0"/><path fill="#ece8da" d="M384.004 54.164 334.828 94.23l-44.625-34.296Zm0 0"/><path fill="#f1f1ef" d="m301.965 131.137-20.652 40.765-7.778-46.828Zm0 0"/><path fill="#f6f4ed" d="m247.945 57.281-30.16 5.032-11.476-16.395Zm0 0"/><path fill="#eaebe8" d="m290.203 59.934 2.77 26.23-15.786-5.574Zm0 0"/><path fill="#ebeae4" d="m292.973 86.164-2.77-26.23 44.625 34.296Zm0 0"/><path fill="#ffc400" d="m292.973 86.164-6.356 9.2-9.43-14.774Zm0 0"/><path fill="#ece8d7" d="m308.86 278.316 4.995-10.406 4.993 3.465Zm0 0"/><path fill="#ebe9df" d="m310.121 223.25-11.195 37.242-34.887-14.988Zm0 0"/><path fill="#0a1e3b" d="m316.305 283.46-7.446-5.144 9.989-6.941Zm0 0"/><path fill="#ece9da" d="m383.988 214.426-27.074-3.817 27.082-30.78Zm0 0"/><path fill="#081d3b" d="m333.172 278.668-16.867 4.793 2.543-12.086Zm0 0"/><path fill="#eae6d4" d="m321.086 291.242 12.086-12.574 14.437 6.289Zm0 0"/><path fill="#081d3b" d="m316.305 283.46 16.867-4.792-12.086 12.574ZM331.656 262.352l2.477-17.243 7.37-.148ZM337.18 263.469l-5.524-1.117 9.848-17.391Zm0 0"/><path fill="#091e3b" d="m349.805 255.582-12.625 7.887 4.324-18.508Zm0 0"/><path fill="#081d3b" d="m349.805 255.582-8.301-10.621 18.988-1.352Zm0 0"/><path fill="#eeebe0" d="m342.344 233.773-8.211 11.336-24.012-21.859Zm0 0"/><path fill="#eae9e3" d="m334.133 245.11 8.21-11.337-.84 11.188Zm0 0"/><path fill="#f0eee7" d="m262.656 286.336-16.207-9.371 17.59-31.461Zm0 0"/><path fill="#081d3b" d="m250.926 320.23 19.605-16.816-4.691 19.223Zm0 0"/><path fill="#efece0" d="m282.586 278.672-12.055 24.742-7.875-17.078Zm0 0"/><path fill="#eee9d8" d="m298.926 260.492-16.34 18.18-18.547-33.168Zm0 0"/><path fill="#efebdd" d="m282.586 278.672-19.93 7.664 1.383-40.832Zm0 0"/><path fill="#eeeada" d="m282.586 278.672 16.34-18.18.047 21.594Zm0 0"/><path fill="#e6ddbb" d="m332.277 318.66 51.727 65.336-85.742-48.652Zm0 0"/><path fill="#e5dec1" d="m384.004 383.996-51.727-65.336L384 297.676Zm0 0"/><path fill="#edebe1" d="m288.95 289.559-6.364-10.887 16.387 3.414Zm0 0"/><path fill="#f4f2e8" d="m209.371 66.168 8.414-3.856 1.348 8.422Zm0 0"/><path fill="#081d3b" d="m186.59 69.746 22.781-3.578-18.379 11.133Zm0 0"/><path fill="#f6f1dd" d="m206.309 45.918-19.72 23.828-16.484-14.445Zm0 0"/><path fill="#f6f1df" d="m209.371 66.168-22.781 3.578 19.719-23.828Zm0 0"/><path fill="#f1ebd5" d="M206.309 45.918 283.824-.004l-35.879 57.285Zm0 0"/><path fill="#081d3c" d="m119.395 238.855-27.063 4.93 3.336-17.539Zm0 0"/><path fill="#081d3b" d="m214.371 185.219-5.559-19.52 15.38 8.856Zm0 0"/><path fill="#f6f4ec" d="m225.594 189.43-1.403-14.875 20.332-5.48Zm0 0"/><path fill="#f8f7f0" d="m225.594 189.43-11.223-4.211 9.82-10.664Zm0 0"/><path fill="#f5f3eb" d="m237.23 210.54-11.636-21.11 18.93-20.356Zm0 0"/><path fill="#f9f7f1" d="m160.008 98.059-18.547 7.937-21.492-45.113Zm0 0"/><path fill="#fbfaf8" d="m154.566 114.945-13.105-8.949 18.547-7.937Zm0 0"/><path fill="#fafaf7" d="m141.46 105.996 13.106 8.95-5.296 12.284Zm0 0"/><path fill="#081d3b" d="m176.586 173.633 18.531 22.777-15.539 9.25Zm0 0"/><path fill="#081d3c" d="m169.496 134.691 20.254-6.007 2.371 19.261Zm0 0"/><path fill="#fbf9f4" d="m106.602 148.8 17.027-4.777-12.906 20.215Zm0 0"/><path fill="#081d3c" d="m123.629 144.023-4.676 27.653-8.23-7.438Zm0 0"/><path fill="#eee3c0" d="m19.988 354.348 47.387 29.656L0 384Zm0 0"/><path fill="#efe5c2" d="m28.66 301.172-8.672 53.176-19.996-60.836Zm0 0"/><path fill="#f0e8cd" d="m28.66 301.172 8.32 31.305-16.992 21.87Zm0 0"/><path fill="#081d3b" d="m78.613 360.242-3.5-26.133 16.543 13.57ZM88.172 273.148l31.223-34.293-25.856 38.723ZM119.395 238.855l-31.223 34.293 4.16-29.363Zm0 0"/><path fill="#f4efe0" d="m.031 167.883 30.16 24.48-30.183 34.59Zm0 0"/><path fill="#f7f5eb" d="m41.914 220.223-11.723-27.86 28.188 14.575Zm0 0"/><path fill="#f7f5ef" d="m62.066 235.586-20.152-15.363 16.465-13.286Zm0 0"/><path fill="#f8f5e9" d="m30.191 192.363 24.442-70.98 3.746 85.555Zm0 0"/><path fill="#f8f5ea" d="M54.633 121.383 72.53 192.43 58.38 206.937Zm0 0"/><path fill="#f8f6ed" d="m72.531 192.43-17.898-71.047 31 39.015Zm0 0"/><path fill="#f7f6ef" d="m22.457 221.777 19.457-1.554-18.906 6.109Zm0 0"/><path fill="#f4efdd" d="m30.191 192.363-7.734 29.414-22.45 5.176Zm0 0"/><path fill="#f7f5ed" d="m41.914 220.223-19.457 1.554 7.734-29.414Zm0 0"/><path fill="#bab8a8" d="m39.734 232.945-3.906 4.7-12.82-11.313Zm0 0"/><path fill="#f7f5f0" d="m41.914 220.223-2.18 12.722-16.726-6.613Zm0 0"/><path fill="#f7f5ef" d="m39.734 232.945 2.18-12.722 20.152 15.363Zm0 0"/><path fill="#081d3b" d="m0 234.676 22.918 7.34-7.563 5.683Zm0 0"/><path fill="#eee4c1" d="m-.008 248.492 15.184 14.856-15.184 30.164Zm0 0"/><path fill="#eee5c5" d="m-.008 293.512 15.184-30.164L30.5 276.602Zm0 0"/><path fill="#081d3b" d="m.008 226.953 23-.621L0 234.676ZM0 234.676l23.008-8.344-.09 15.684Zm0 0"/><path fill="#d3cbaa" d="m22.457 221.777.55 4.555-23 .621Zm0 0"/><path fill="#081d3b" d="m30.484 254.945-7.566-12.93 12.91-4.37Zm0 0"/><path fill="#efead6" d="m122.305 316.105-9.168-16.492 15.906-5.746Zm0 0"/><path fill="#ede3be" d="m166.074 325.887 27.18 58.129-73.61-24.164Zm0 0"/><path fill="#eee7cc" d="m166.074 325.887-46.43 33.965 2.66-43.747Zm0 0"/><path fill="#ebe4cc" d="m213.98 349.426 2.403 14.976-23.13 19.614Zm0 0"/><path fill="#081d3c" d="m73.66 299.953 1.453 34.156-15.652-8.75Zm0 0"/><path fill="#081d3c" d="M73.66 299.953 90 304.82l-14.887 29.29Zm0 0"/><path fill="#ede4c3" d="m119.645 359.852-23.29-26.582 13.036 1.59Zm0 0"/><path fill="#ede5c7" d="m96.355 333.27 23.29 26.582-27.989-12.172Zm0 0"/><path fill="#f3ebcd" d="m169.68 278.266 7.793 13.527-34.246-8.648Zm0 0"/><path fill="#f3ebd0" d="m177.473 291.793-11.399 34.094-22.847-42.742Zm0 0"/><path fill="#f2ebd0" d="m166.074 325.887-37.031-32.02 14.184-10.722Zm0 0"/><path fill="#f3f1e6" d="m64.492 281.777-12.652-9.773 17.879-2.512Zm0 0"/><path fill="#f4f0df" d="m45.379 289.313 6.46-17.31 6.88 18.438Zm0 0"/><path fill="#f3f0e2" d="m51.84 272.004 12.652 9.773-5.773 8.664Zm0 0"/><path fill="#081d3b" d="m88.172 273.148-23.68 8.63 5.227-12.286Zm0 0"/><path fill="#081d3b" d="M88.172 273.148 73.66 299.953l-9.168-18.176Zm0 0"/><path fill="#081d3c" d="m42.957 351.191 16.504-25.832 15.652 8.75Zm0 0"/><path fill="#081d3b" d="m36.98 332.477 22.48-7.118-16.503 25.832ZM75.113 334.11l21.242-.84-4.699 14.41Zm0 0"/><path fill="#081d3c" d="m96.355 333.27-21.242.84L90 304.82Zm0 0"/><path fill="#eeeada" d="m336.688 179.57 20.058-44.797 27.25 45.055Zm0 0"/><path fill="#e9e9e7" d="m317.68 103.305 17.148-9.075-4.789 29.118Zm0 0"/><path fill="#081d3b" d="m283.934 112.617 18.03 18.52-28.429-6.063Zm0 0"/><path fill="#081d3b" d="m301.965 131.137-18.031-18.52 23.851 9.11Zm0 0"/><path fill="#f3f2ed" d="m261.883 135.027 11.652-9.953 7.777 46.828Zm0 0"/><path fill="#081d3b" d="m273.535 125.074-18.66-.437 11.07-15.934Zm0 0"/><path fill="#f3f3f0" d="m273.535 125.074-11.652 9.953-7.008-10.39Zm0 0"/><path fill="#eeece4" d="m301.965 131.137 13.594 20.11-34.247 20.655Zm0 0"/><path fill="#edebe2" d="m315.559 151.246 21.128 28.324-55.375-7.668Zm0 0"/><path fill="#f8f8f7" d="m254.875 124.637-5.8 15.168L231.5 121.69Zm0 0"/><path fill="#f6f5f3" d="m261.883 135.027-12.809 4.778 5.801-15.168Zm0 0"/><path fill="#efead8" d="m283.824-.004 6.38 59.938-42.259-2.653Zm0 0"/><path fill="#efead4" d="m219.133 70.734-1.348-8.421 30.16-5.032Zm0 0"/><path fill="#eeeadb" d="m313.855 267.91 9.504-9.258-4.511 12.723Zm0 0"/><path fill="#ebe8dc" d="m298.926 260.492 24.433-1.84-9.504 9.258Zm0 0"/><path fill="#edebe2" d="m334.133 245.11-10.774 13.542-13.238-35.402Zm0 0"/><path fill="#ebe9e0" d="m323.36 258.652-24.434 1.84 11.195-37.242Zm0 0"/><path fill="#ebe8dc" d="m298.926 260.492 9.933 17.824-9.886 3.77Zm0 0"/><path fill="#e9e6d9" d="m313.855 267.91-4.996 10.406-9.933-17.824Zm0 0"/><path fill="#ebe9e0" d="m342.344 233.773 20.648-.144-2.5 9.98Zm0 0"/><path fill="#eeece2" d="m362.992 233.629 8.528 5.297-11.028 4.683Zm0 0"/><path fill="#edebe0" d="m356.914 210.61 6.078 23.019-20.648.144Zm0 0"/><path fill="#0a1e3b" d="m374.254 232.715 9.734-18.29.016 28Zm0 0"/><path fill="#081d3b" d="m374.254 232.715 9.75 9.71-12.484-3.5Zm0 0"/><path fill="#eceae0" d="m383.988 214.426-9.734 18.289-17.34-22.106Zm0 0"/><path fill="#eeebe1" d="m374.254 232.715-11.262.914-6.078-23.02Zm0 0"/><path fill="#ebe9de" d="m362.992 233.629 11.262-.914-2.734 6.21Zm0 0"/><path fill="#eceadd" d="m281.313 171.902 55.375 7.668-26.567 43.68Zm0 0"/><path fill="#ece9db" d="m356.914 210.61-20.226-31.04 47.308.258Zm0 0"/><path fill="#eeebdf" d="m336.688 179.57 20.226 31.04-46.793 12.64Zm0 0"/><path fill="#edebdf" d="m310.121 223.25 46.793-12.64-14.57 23.163Zm0 0"/><path fill="#f1efe7" d="m246.45 276.965-15.962-12.516 33.551-18.945Zm0 0"/><path fill="#081d3b" d="m251.84 297.078-5.39-20.113 16.206 9.37ZM270.531 303.414l-18.691-6.336 10.816-10.742Zm0 0"/><path fill="#081d3c" d="m251.84 297.078 18.691 6.336-19.605 16.816Zm0 0"/><path fill="#091e3b" d="m246.45 276.965 5.39 20.113-28.149-22.055Zm0 0"/><path fill="#081d3b" d="m246.45 276.965-22.759-1.942 6.797-10.574ZM246.363 371.176 259.243 384l-22.587.016Zm0 0"/><path fill="#e6debe" d="m280.75 359.633 103.254 24.363-105.442.004Zm0 0"/><path fill="#eae7db" d="m332.277 318.66-16.047-23.062 4.856-4.356Zm0 0"/><path fill="#eeece2" d="m288.95 289.559-18.419 13.855 12.055-24.742Zm0 0"/><path fill="#081d3b" d="m270.531 303.414 15.211 8.246-19.902 10.977Zm0 0"/><path fill="#0c203a" d="m270.531 303.414 18.418-13.855-3.207 22.101Zm0 0"/><path fill="#081d3b" d="m285.742 311.66-12.965 14.313-6.937-3.336ZM171.61 102.094l-17.044 12.851 5.442-16.886Zm0 0"/><path fill="#081d3b" d="m181.035 112.809-9.426-10.715 13.153-5.32Zm0 0"/><path fill="#081d3c" d="m154.566 114.945 17.043-12.851 9.426 10.715Zm0 0"/><path fill="#faf8f0" d="m171.598 83.59-1.582-1.727 16.574-12.117Zm0 0"/><path fill="#f8f5e8" d="m186.59 69.746-16.574 12.117-4.797-6.058Zm0 0"/><path fill="#f9f6ed" d="M170.016 81.863 160.008 98.06l5.21-22.254Zm0 0"/><path fill="#081d3b" d="m243.465 106.07 11.41 18.567-23.375-2.946ZM224.254 106.629l19.21-.559-11.964 15.621Zm0 0"/><path fill="#081d3b" d="m254.875 124.637-11.41-18.567 22.48 2.633Zm0 0"/><path fill="#fec300" d="m243.465 106.07 24.629-11.183-2.149 13.816ZM268.094 94.887l-24.63 11.183 6.266-23.53Zm0 0"/><path fill="#081d3b" d="m283.934 112.617-10.399 12.457-7.59-16.37Zm0 0"/><path fill="#0a1e3b" d="m203.578 80.543-18.816 16.23 6.23-19.472Zm0 0"/><path fill="#081d3b" d="m190.992 77.3-6.23 19.473-13.164-13.183ZM190.992 77.3l-19.394 6.29 14.992-13.844Zm0 0"/><path fill="#f2eede" d="m230.488 264.45-14.425-6.325 10.75-4.887Zm0 0"/><path fill="#f8f4e5" d="m192.613 236.625 23.922 2.16-24.422 17.395Zm0 0"/><path fill="#081d3c" d="m179.578 205.66.723 25.254-25.738-22.644ZM115.242 202.082l4.153 36.773-23.727-12.609Zm0 0"/><path fill="#f5f3ec" d="m227.77 161.152 16.753 7.922-20.332 5.48Zm0 0"/><path fill="#081d3c" d="m208.813 165.7 18.957-4.548-3.579 13.403ZM176.586 173.633l32.226-7.934 5.56 19.52ZM176.586 173.633l37.785 11.586-19.254 11.191Zm0 0"/><path fill="#f5f1e4" d="m206.668 201.875 18.926-12.445 11.636 21.11Zm0 0"/><path fill="#f9f7f0" d="m225.594 189.43-18.926 12.445 7.703-16.656Zm0 0"/><path fill="#081d3c" d="m214.371 185.219-7.703 16.656-11.55-5.465ZM169.496 134.691l14.059-19.98 6.195 13.973Zm0 0"/><path fill="#fef4d4" d="m197.102 100.09-13.547 14.62-2.52-1.901Zm0 0"/><path fill="#fef1c3" d="m183.555 114.71 13.433.497-7.238 13.477Zm0 0"/><path fill="#fef6dc" d="m183.555 114.71 13.547-14.62-.114 15.117Zm0 0"/><path fill="#081d3c" d="m169.496 134.691-14.93-19.746 26.47-2.136Zm0 0"/><path fill="#081d3c" d="m183.555 114.71-14.059 19.981 11.54-21.882ZM154.566 114.945l14.93 19.746-20.226-7.46ZM123.629 144.023l16.18 30.489-20.856-2.836Zm0 0"/><path fill="#fbfbfa" d="m107.098 122.93 16.53 21.093-17.026 4.778Zm0 0"/><path fill="#081d3c" d="m151.848 148.684 17.648-13.993 7.09 38.942ZM139.809 174.512l12.039-25.828 24.738 24.949ZM123.629 144.023l28.219 4.66-12.04 25.829Zm0 0"/><path fill="#efe5c2" d="m42.566 354.477.391-3.286 35.656 9.051Zm0 0"/><path fill="#081d3c" d="m42.957 351.191 32.156-17.082 3.5 26.133Zm0 0"/><path fill="#eee4c0" d="m42.566 354.477 36.047 5.765-11.238 23.762Zm0 0"/><path fill="#f3ecd1" d="m113.734 269.992 15.309 23.875-20.613-7.41Zm0 0"/><path fill="#f6f4ed" d="m82.352 211.086-9.82-18.656 13.605 12.914Zm0 0"/><path fill="#f7f6ef" d="m82.352 211.086-23.973-4.149L72.53 192.43Zm0 0"/><path fill="#081d3b" d="M-.008 248.492 0 234.676l15.355 13.023Zm0 0"/><path fill="#efebdb" d="M15.176 263.348-.008 248.492l15.363-.793Zm0 0"/><path fill="#081d3b" d="m22.918 242.016 1.117 11.136-8.68-5.453ZM30.484 254.945l-6.449-1.793-1.117-11.136Zm0 0"/><path fill="#efebda" d="m24.035 253.152-8.86 10.196.18-15.649Zm0 0"/><path fill="#081d3b" d="m40.184 255.059-9.7-.114 5.344-17.3Zm0 0"/><path fill="#081d3b" d="m30.484 254.945 9.7.114-4.157 6.84Zm0 0"/><path fill="#f0ebd7" d="m30.5 276.602-3.547-15.262 9.074.558Zm0 0"/><path fill="#f2efe2" d="m26.953 261.34 3.531-6.395 5.543 6.953Zm0 0"/><path fill="#efecdf" d="m26.953 261.34-2.918-8.188 6.45 1.793Zm0 0"/><path fill="#ede4c6" d="m15.176 263.348 11.777-2.008 3.547 15.262Zm0 0"/><path fill="#ede7d1" d="m24.035 253.152 2.918 8.188-11.777 2.008Zm0 0"/><path fill="#f1ebd3" d="m108.43 286.457 4.707 13.156-8.117-2.5Zm0 0"/><path fill="#f2ebd3" d="m129.043 293.867-15.906 5.746-4.707-13.156Zm0 0"/><path fill="#eae4cb" d="m193.254 384.016 36.117-16.98 7.285 16.98Zm0 0"/><path fill="#ebe5cc" d="m216.383 364.402 12.988 2.633-36.117 16.98Zm0 0"/><path fill="#081d3b" d="m229.371 367.035 16.992 4.14-9.707 12.84Zm0 0"/><path fill="#f0e9ce" d="m177.473 291.793 19.257 8.434-30.656 25.66Zm0 0"/><path fill="#eee7ce" d="m196.73 300.227 15.579-5.75 2.437 30.746Zm0 0"/><path fill="#8f781b" d="m185.309 277.422 2.324-7.145 4.336 6.207Zm0 0"/><path fill="#081d3b" d="m64.492 281.777 9.168 18.176-14.941-9.512Zm0 0"/><path fill="#efe8cc" d="m96.355 333.27 25.95-17.165-12.914 18.754Zm0 0"/><path fill="#081d3b" d="m155.508 262.969 14.172 15.297-26.453 4.879Zm0 0"/><path fill="#f0e8c9" d="m28.66 301.172 1.84-24.57 14.879 12.71Zm0 0"/><path fill="#f1ecd6" d="m30.5 276.602 21.34-4.598-6.461 17.308Zm0 0"/><path fill="#f4eed8" d="m50.215 306.23-4.836-16.918 13.34 1.13Zm0 0"/><path fill="#efe7c9" d="m50.215 306.23-21.555-5.058 16.719-11.86Zm0 0"/><path fill="#eee5c7" d="m28.66 301.172 21.555 5.058-13.235 26.247Zm0 0"/><path fill="#081d3b" d="m36.98 332.477 13.235-26.247 9.246 19.13Zm0 0"/><path fill="#081d3c" d="m50.215 306.23 23.445-6.277-14.2 25.406Zm0 0"/><path fill="#eeece4" d="m317.68 103.305-24.707-17.14 41.855 8.065Zm0 0"/><path fill="#fec400" d="m292.973 86.164 24.707 17.14-31.063-7.94Zm0 0"/><path fill="#dcac08" d="m283.934 112.617 33.746-9.312-9.895 18.422Zm0 0"/><path fill="#fec400" d="m317.68 103.305-33.746 9.312 2.683-17.254Zm0 0"/><path fill="#eeebde" d="m336.688 179.57-6.75-33.8 26.808-10.997Zm0 0"/><path fill="#eeebe0" d="m315.559 151.246 14.378-5.476 6.75 33.8Zm0 0"/><path fill="#eceae0" d="m356.746 134.773-26.808 10.997.101-22.422Zm0 0"/><path fill="#f5f4ef" d="m249.074 139.805-4.55 29.27-19.586-30.657Zm0 0"/><path fill="#f4f3ee" d="m244.523 169.074 4.551-29.27 32.238 32.098Zm0 0"/><path fill="#f4f3ee" d="m249.074 139.805 12.809-4.778 19.43 36.875Zm0 0"/><path fill="#e8e0c5" d="m384 0 .004 54.164L283.824-.004Zm0 0"/><path fill="#081d3b" d="m331.656 262.352-8.297-3.7 10.774-13.543Zm0 0"/><path fill="#081d3b" d="m323.36 258.652 8.296 3.7-12.808 9.023Zm0 0"/><path fill="#081d3b" d="m331.656 262.352 1.516 16.316-14.324-7.293ZM305.332 289.266l-16.383.293 10.024-7.473Zm0 0"/><path fill="#0b1f3b" d="m371.52 238.926.722 16.262-11.75-11.579Zm0 0"/><path fill="#081d3b" d="m384.004 242.426-11.762 12.762-.722-16.262Zm0 0"/><path fill="#eae4ce" d="m333.172 278.668 4.008-15.2 10.43 21.489Zm0 0"/><path fill="#0a1e3b" d="m331.656 262.352 5.524 1.117-4.008 15.199Zm0 0"/><path fill="#081d3b" d="m244.105 302.172 7.735-5.094-.914 23.152Zm0 0"/><path fill="#122439" d="m248.844 320.055-4.739-17.883 6.82 18.058Zm0 0"/><path fill="#f0e9d0" d="m244.105 302.172 4.739 17.883-15.36-2.692Zm0 0"/><path fill="#efe8cf" d="m234.84 340.645-20.094-15.422 18.738-7.86Zm0 0"/><path fill="#f0ead4" d="m248.844 320.055-14.004 20.59-1.356-23.282Zm0 0"/><path fill="#081d3b" d="m234.84 340.645 16.086-20.415-4.067 34.918Zm0 0"/><path fill="#0b1f3b" d="m234.84 340.645 14.004-20.59 2.082.175Zm0 0"/><path fill="#091d3b" d="m234.84 340.645 12.02 14.503-15.41-2.238Zm0 0"/><path fill="#ede6cf" d="m213.98 349.426 20.86-8.781-3.39 12.265Zm0 0"/><path fill="#eee6cb" d="m214.746 325.223 20.094 15.422-20.86 8.78Zm0 0"/><path fill="#091d3b" d="m246.363 371.176 12.887-4.621-.008 17.445Zm0 0"/><path fill="#eae7d8" d="m259.242 384 .008-17.445L278.563 384Zm0 0"/><path fill="#ece7d3" d="m259.25 366.555 21.5-6.922L278.563 384Zm0 0"/><path fill="#d8d5c5" d="m314.508 292.414 1.722 3.184-6.015 1.777Zm0 0"/><path fill="#0a1e3b" d="m314.508 292.414 1.797-8.953 4.78 7.781Zm0 0"/><path fill="#e0dcca" d="m316.23 295.598-1.722-3.184 6.578-1.172Zm0 0"/><path fill="#ebe7d7" d="m316.23 295.598 16.047 23.062-22.062-21.285Zm0 0"/><path fill="#eae5d2" d="m304.496 311.102 27.781 7.558-34.015 16.684Zm0 0"/><path fill="#eae5d1" d="m332.277 318.66-27.78-7.558 5.718-13.727Zm0 0"/><path fill="#081d3b" d="m171.598 83.59.011 18.504-11.601-4.035Zm0 0"/><path fill="#f9f7f1" d="m170.016 81.863 1.582 1.727-11.59 14.469Zm0 0"/><path fill="#081d3b" d="m171.61 102.094-.012-18.504 13.164 13.183Zm0 0"/><path fill="#fec300" d="m243.465 106.07-22.863-18.832 29.128-4.699Zm0 0"/><path fill="#fdc300" d="m220.602 87.238 22.863 18.832-19.211.559Zm0 0"/><path fill="#081d3b" d="m231.5 121.691-13.316-13.136 6.07-1.926Zm0 0"/><path fill="#f7f7f5" d="m227.27 125.395 21.804 14.41-24.137-1.387Zm0 0"/><path fill="#f6f6f4" d="m227.27 125.395 4.23-3.704 17.574 18.114Zm0 0"/><path fill="#918240" d="m218.184 108.555 9.086 16.84-16.368-3.31Zm0 0"/><path fill="#081d3b" d="m227.27 125.395-9.086-16.84L231.5 121.69ZM218.75 75.316l-9.379-9.148 9.762 4.566Zm0 0"/><path fill="#fece2e" d="m249.73 82.54-30.98-7.224.383-4.582Zm0 0"/><path fill="#ffc401" d="m220.602 87.238-1.852-11.922 30.98 7.223Zm0 0"/><path fill="#fec400" d="m286.617 95.363-18.523-.476 9.094-14.297Zm0 0"/><path fill="#fec400" d="m283.934 112.617-15.84-17.73 18.523.476Zm0 0"/><path fill="#fec300" d="m268.094 94.887 15.84 17.73-17.989-3.914Zm0 0"/><path fill="#eceae1" d="M277.188 80.59 260.93 68.473l29.273-8.54Zm0 0"/><path fill="#eeeadd" d="M260.93 68.473 247.945 57.28l42.258 2.653Zm0 0"/><path fill="#fefcf5" d="m220.602 87.238-7.672-3.668 5.82-8.254Zm0 0"/><path fill="#081d3b" d="m187.633 270.277-17.805-12.77 22.285-1.327Zm0 0"/><path fill="#eeead9" d="m210.559 278.855 10.464 4.102-8.714 11.52Zm0 0"/><path fill="#f3f0e4" d="m226.813 253.238-10.75 4.887.472-19.34Zm0 0"/><path fill="#f8f2df" d="m216.535 238.785-.472 19.34-23.95-1.945Zm0 0"/><path fill="#081d3c" d="m159.547 234.559-40.152 4.296 35.168-30.585ZM180.3 230.914l-20.753 3.645-4.984-26.29Zm0 0"/><path fill="#f9f6e8" d="m180.3 230.914 13.06-16.86-.747 22.571Zm0 0"/><path fill="#081d3b" d="m193.36 214.055-13.06 16.86-.722-25.255Zm0 0"/><path fill="#081d3c" d="m159.547 234.559-2.625 13.535-37.527-9.239Zm0 0"/><path fill="#f4eed7" d="m113.734 269.992 29.493 13.153-14.184 10.722Zm0 0"/><path fill="#081d3b" d="m143.227 283.145-29.493-13.153 24.079-1.164Zm0 0"/><path fill="#081d3c" d="m119.395 238.855-5.66 31.137-20.196 7.586Zm0 0"/><path fill="#081d3b" d="m119.395 238.855-4.153-36.773 39.32 6.188Zm0 0"/><path fill="#081d3c" d="m211.637 147.738 16.133 13.414-18.958 4.547Zm0 0"/><path fill="#081d3b" d="m211.637 147.738-19.516.207 8.602-14.25Zm0 0"/><path fill="#f5f4ef" d="m227.77 161.152-2.833-22.734 19.586 30.656Zm0 0"/><path fill="#feecb2" d="m224.938 138.418-13.301 9.32-10.914-14.043Zm0 0"/><path fill="#fbe9ad" d="m211.637 147.738 13.3-9.32 2.833 22.734Zm0 0"/><path fill="#fdeebd" d="m210.902 122.086 14.036 16.332-24.215-4.723Zm0 0"/><path fill="#f4e3a9" d="m227.27 125.395-2.333 13.023-14.035-16.332Zm0 0"/><path fill="#091d3b" d="m200.723 133.695-8.602 14.25-2.371-19.261Zm0 0"/><path fill="#fef3cd" d="m196.988 115.207 3.735 18.488-10.973-5.011Zm0 0"/><path fill="#feedb4" d="m200.723 133.695-3.735-18.488 13.914 6.879Zm0 0"/><path fill="#081d3c" d="m192.121 147.945 16.691 17.754-32.226 7.934Zm0 0"/><path fill="#081d3c" d="m211.637 147.738-2.825 17.961-16.69-17.754Zm0 0"/><path fill="#fef6d8" d="m197.102 100.09-16.067 12.719 3.727-16.036Zm0 0"/><path fill="#081d3b" d="m93.54 277.578 20.194-7.586-5.304 16.465Zm0 0"/><path fill="#f6f5ee" d="m82.352 211.086-2.286 12.871-21.687-17.02Zm0 0"/><path fill="#081d3b" d="m92.332 243.785-4.16 29.363-6.07-21.738Zm0 0"/><path fill="#081d3c" d="m80.066 223.957 15.602 2.29-11.758 6.882ZM75.531 254.023l12.64 19.125-18.452-3.656Zm0 0"/><path fill="#0a1e3b" d="m52.473 250.383-12.29 4.676-4.355-17.414Zm0 0"/><path fill="#f3f2eb" d="m39.734 232.945 12.739 17.438-16.645-12.738Zm0 0"/><path fill="#f7f6f1" d="m62.066 235.586-9.593 14.797-12.739-17.438Zm0 0"/><path fill="#efead5" d="m122.305 316.105-18.77-8.168 9.602-8.324Zm0 0"/><path fill="#efead7" d="m113.137 299.613-9.602 8.325 1.485-10.825Zm0 0"/><path fill="#f0e9ce" d="m96.355 333.27 7.18-25.332 18.77 8.167Zm0 0"/><path fill="#ebe7d5" d="m231.45 352.91-2.079 14.125-15.39-17.61Zm0 0"/><path fill="#ebe6d2" d="m229.371 367.035-12.988-2.633-2.403-14.976Zm0 0"/><path fill="#efe7c8" d="m166.074 325.887 30.656-25.66 18.016 24.996Zm0 0"/><path fill="#ebe2c1" d="m166.074 325.887 47.906 23.539-20.726 34.59Zm0 0"/><path fill="#eee5c3" d="m213.98 349.426-47.906-23.54 48.672-.663Zm0 0"/><path fill="#f1e9ce" d="m191.008 286.21 5.722 14.017-19.257-8.434Zm0 0"/><path fill="#625a26" d="m191.008 286.21-5.7-8.788 6.66-.938Zm0 0"/><path fill="#f4ebcd" d="m185.309 277.422 5.699 8.789-13.535 5.582Zm0 0"/><path fill="#081d3b" d="m90 304.82 3.54-27.242 11.48 19.535ZM90 304.82l-16.34-4.867 19.88-22.375Zm0 0"/><path fill="#081d3b" d="M103.535 307.938 90 304.82l15.02-7.707Zm0 0"/><path fill="#081d3b" d="m90 304.82 13.535 3.118-7.18 25.332ZM137.813 268.828l17.695-5.86-12.281 20.177Zm0 0"/><path fill="#f3efdd" d="m30.5 276.602 18.813-9.5 2.527 4.902Zm0 0"/><path fill="#081d3b" d="m51.84 272.004-2.528-4.902 20.407 2.39ZM40.184 255.059l9.129 12.043-13.286-5.204Zm0 0"/><path fill="#f0ede1" d="m49.313 267.102-18.813 9.5 5.527-14.704Zm0 0"/><path fill="#081d3b" d="m49.313 267.102 3.16-16.72 17.246 19.11Zm0 0"/><path fill="#081d3b" d="m52.473 250.383-3.16 16.719-9.13-12.043ZM73.66 299.953l-23.445 6.277 8.504-15.789Zm0 0"/><path fill="#081d3c" d="m75.531 254.023 6.57-2.613 6.07 21.738Zm0 0"/><path fill="#081d3b" d="m329.938 145.77-9.981-9.98 10.082-12.442Zm0 0"/><path fill="#ebecec" d="m319.957 135.79 9.98 9.98-14.378 5.476Zm0 0"/><path fill="#0a1e3b" d="m319.957 135.79-2.277-32.485 12.36 20.043Zm0 0"/><path fill="#1d2b36" d="m317.68 103.305 2.277 32.484-12.172-14.062Zm0 0"/><path fill="#081d3b" d="m319.957 135.79-17.992-4.653 5.82-9.41Zm0 0"/><path fill="#ececea" d="m319.957 135.79-4.398 15.456-13.594-20.11Zm0 0"/><path fill="#e8e4d5" d="m304.496 311.102-3.078-10.528 8.797-3.199Zm0 0"/><path fill="#081d3b" d="m301.418 300.574 3.914-11.308 4.883 8.109Zm0 0"/><path fill="#ece5cb" d="m301.418 300.574 3.078 10.528-18.754.558Zm0 0"/><path fill="#081d3b" d="m288.95 289.559 12.468 11.015-15.676 11.086Zm0 0"/><path fill="#081d3b" d="m305.332 289.266-3.914 11.308-12.469-11.015ZM308.86 278.316l-3.528 10.95-6.36-7.18Zm0 0"/><path fill="#081d3b" d="m305.332 289.266 3.527-10.95 7.446 5.145Zm0 0"/><path fill="#081d3b" d="m314.508 292.414-9.176-3.148 10.973-5.805Zm0 0"/><path fill="#091d3b" d="m305.332 289.266 9.176 3.148-4.293 4.961Zm0 0"/><path fill="#ece7d2" d="m384.004 263.57-11.762-8.382 11.762-12.762Zm0 0"/><path fill="#081d3b" d="m244.105 302.172-23.082-19.215 2.668-7.934Zm0 0"/><path fill="#091e3b" d="m251.84 297.078-7.735 5.094-20.414-27.149Zm0 0"/><path fill="#081d3b" d="m246.86 355.148 9.265 2.356 3.125 9.05ZM246.86 355.148l-17.489 11.887 2.078-14.125Zm0 0"/><path fill="#081d3b" d="m229.371 367.035 17.488-11.887-.496 16.028Zm0 0"/><path fill="#081d3b" d="m246.86 355.148 12.39 11.407-12.887 4.62Zm0 0"/><path fill="#ebe6d2" d="m260.645 352.617 15.476-10.258 4.629 17.274Zm0 0"/><path fill="#081d3b" d="m265.84 322.637-5.195 29.98-9.72-32.387Zm0 0"/><path fill="#ece7d4" d="m260.645 352.617 20.105 7.016-21.5 6.922Zm0 0"/><path fill="#081d3b" d="m256.125 357.504 4.52-4.887-1.395 13.938Zm0 0"/><path fill="#081d3c" d="m250.926 320.23 9.719 32.387-13.786 2.531Zm0 0"/><path fill="#081d3b" d="m260.645 352.617-4.52 4.887-9.266-2.356Zm0 0"/><path fill="#ece5cb" d="m298.262 335.344-25.485-9.371 12.965-14.313ZM304.496 311.102l-6.234 24.242-12.52-23.684Zm0 0"/><path fill="#fed448" d="m206.797 108.223 11.387.332-7.282 13.53Zm0 0"/><path fill="#feda60" d="m196.988 115.207 9.809-6.984 4.105 13.863Zm0 0"/><path fill="#fefbee" d="m206.797 108.223-9.809 6.984.114-15.117Zm0 0"/><path fill="#fefdf7" d="m203.578 80.543-6.476 19.547-12.34-3.317Zm0 0"/><path fill="#edebe4" d="m260.93 68.473-5.7 5.097-7.285-16.289Zm0 0"/><path fill="#f3f2f0" d="m255.23 73.57-36.097-2.836 28.812-13.453Zm0 0"/><path fill="#fec402" d="m255.23 73.57-5.5 8.97-30.597-11.806Zm0 0"/><path fill="#fefdf6" d="m212.93 83.57-9.352-3.027 15.172-5.227Zm0 0"/><path fill="#081d3b" d="m209.371 66.168-5.793 14.375-12.586-3.242Zm0 0"/><path fill="#081d3b" d="m203.578 80.543 5.793-14.375 9.379 9.148ZM169.828 257.508l15.48 19.914-15.628.844Zm0 0"/><path fill="#f4ebcd" d="m169.68 278.266 15.629-.844-7.836 14.371Zm0 0"/><path fill="#081d3b" d="m185.309 277.422-15.48-19.914 17.804 12.77Zm0 0"/><path fill="#faf5e6" d="m192.613 236.625-15.941 7.676 3.629-13.387Zm0 0"/><path fill="#081d3c" d="m176.672 244.3-17.125-9.741 20.754-3.645Zm0 0"/><path fill="#faf6e6" d="m176.672 244.3 15.941-7.675-.5 19.555Zm0 0"/><path fill="#fcf6e3" d="m169.828 257.508 6.844-13.207 15.441 11.879Zm0 0"/><path fill="#0a1e3b" d="m210.559 278.855 13.132-3.832-2.668 7.934Zm0 0"/><path fill="#081d3b" d="m223.691 275.023-7.629-16.898 14.426 6.324Zm0 0"/><path fill="#7c6b1f" d="m187.633 270.277 7.258 1.051-2.922 5.156Zm0 0"/><path fill="#e8b406" d="m194.89 271.328-7.257-1.05 4.48-14.098Zm0 0"/><path fill="#081d3b" d="m155.508 262.969 1.414-14.875 12.758 30.172ZM135.84 260.664l19.668 2.305-17.696 5.86Zm0 0"/><path fill="#081d3b" d="m113.734 269.992 22.106-9.328 1.972 8.164ZM135.84 260.664l-22.106 9.328 5.66-31.137Zm0 0"/><path fill="#081d3c" d="m135.84 260.664-16.445-21.809 37.527 9.239Zm0 0"/><path fill="#fcfbf9" d="m155.508 262.969-19.668-2.305 21.082-12.57Zm0 0"/><path fill="#fafaf9" d="m149.27 127.23-42.172-4.3 34.363-16.934Zm0 0"/><path fill="#fcfcfb" d="m149.27 127.23-25.641 16.793-16.531-21.093Zm0 0"/><path fill="#081d3c" d="m149.27 127.23 2.578 21.454-28.22-4.66Zm0 0"/><path fill="#081d3c" d="m149.27 127.23 20.226 7.461-17.648 13.993Zm0 0"/><path fill="#f6f5f0" d="m80.066 223.957-3.898 7.223-17.79-24.243Zm0 0"/><path fill="#f7f6ef" d="m58.379 206.938 17.789 24.242-14.102 4.406Zm0 0"/><path fill="#081d3b" d="m76.168 231.18 3.898-7.223 3.844 9.172Zm0 0"/><path fill="#f6f5f0" d="m76.168 231.18 1.332 12.406-15.434-8Zm0 0"/><path fill="#081d3b" d="m77.5 243.586-1.332-12.406 7.742 1.949Zm0 0"/><path fill="#081d3c" d="M92.332 243.785 83.91 233.13l11.758-6.883ZM89.344 213.797l6.324 12.45-15.602-2.29Zm0 0"/><path fill="#081d3b" d="m89.344 213.797-6.992-2.711 3.785-5.742Zm0 0"/><path fill="#081d3b" d="m89.344 213.797-9.278 10.16 2.286-12.871Zm0 0"/><path fill="#081d3c" d="m89.344 213.797-3.207-8.453 29.105-3.262Zm0 0"/><path fill="#081d3c" d="m95.668 226.246-6.324-12.45 25.898-11.714Zm0 0"/><path fill="#f7f5ed" d="m68.352 251.855-15.88-1.472 9.594-14.797Zm0 0"/><path fill="#081d3b" d="m68.352 251.855 7.18 2.168-5.813 15.47Zm0 0"/><path fill="#081d3b" d="m52.473 250.383 15.879 1.472 1.367 17.637Zm0 0"/><path fill="#efe9d2" d="m198.91 280.16 11.649-1.305 1.75 15.622Zm0 0"/><path fill="#f0ead6" d="m196.73 300.227 2.18-20.067 13.399 14.317Zm0 0"/><path fill="#f6ecca" d="m191.008 286.21 7.902-6.05-2.18 20.067Zm0 0"/><path fill="#545029" d="m198.91 280.16-7.902 6.05.96-9.726Zm0 0"/><path fill="#081d3b" d="m194.89 271.328 4.02 8.832-6.941-3.676Zm0 0"/><path fill="#081d3b" d="m198.91 280.16-4.02-8.832 15.669 7.527Zm0 0"/><path fill="#ece9d9" d="m212.309 294.477 31.796 7.695-10.62 15.191Zm0 0"/><path fill="#eee8d1" d="m212.309 294.477 21.175 22.886-18.738 7.86Zm0 0"/><path fill="#eee8d3" d="m244.105 302.172-31.796-7.695 8.714-11.52Zm0 0"/><path fill="#eae4cc" d="m272.777 325.973 25.485 9.37-22.14 7.016Zm0 0"/><path fill="#e7debc" d="m280.75 359.633 17.512-24.29 85.742 48.653Zm0 0"/><path fill="#e8ddb5" d="m276.121 342.36 22.14-7.016-17.511 24.289Zm0 0"/><path fill="#081d3b" d="m272.777 325.973-.277 14.75-6.66-18.086Zm0 0"/><path fill="#eae8de" d="m272.5 340.723.277-14.75 3.344 16.386Zm0 0"/><path fill="#081d3b" d="m272.5 340.723-11.855 11.894 5.195-29.98Zm0 0"/><path fill="#ebe8da" d="m260.645 352.617 11.855-11.894 3.621 1.636Zm0 0"/><path fill="#091d3b" d="m224.254 106.629-6.07 1.926 2.418-21.317Zm0 0"/><path fill="#fefdfa" d="m197.102 100.09 12.972-6.887-3.277 15.02Zm0 0"/><path fill="#fefbf2" d="m210.074 93.203 2.856-9.633 7.672 3.668Zm0 0"/><path fill="#112339" d="m212.93 83.57-2.856 9.633-6.496-12.66Zm0 0"/><path fill="#fec60a" d="m210.074 93.203-12.972 6.887 6.476-19.547Zm0 0"/><path fill="#fdfcfa" d="m218.184 108.555-8.11-15.352 10.528-5.965Zm0 0"/><path fill="#fefcf7" d="m210.074 93.203 8.11 15.352-11.387-.332Zm0 0"/><path fill="#fec400" d="m255.23 73.57 12.864 21.317-18.364-12.348ZM255.23 73.57l21.958 7.02-9.094 14.297Zm0 0"/><path fill="#eeeeea" d="m255.23 73.57 5.7-5.097 16.257 12.117Zm0 0"/><path fill="#081d3c" d="m176.672 244.3-19.75 3.794 2.625-13.535Zm0 0"/><path fill="#081d3b" d="m156.922 248.094 19.75-3.793-6.844 13.207Zm0 0"/><path fill="#081d3b" d="m156.922 248.094 12.906 9.414-.148 20.758ZM210.074 268.422l-15.183 2.906-2.778-15.148Zm0 0"/><path fill="#081d3b" d="m216.063 258.125-5.989 10.297-17.96-12.242Zm0 0"/><path fill="#081d3b" d="m194.89 271.328 15.184-2.906.485 10.433ZM223.691 275.023l-13.617-6.601 5.988-10.297ZM210.074 268.422l13.617 6.601-13.132 3.832ZM92.332 243.785l-14.832-.2 6.41-10.456Zm0 0"/><path fill="#f6f4ee" d="m77.5 243.586-9.148 8.27-6.286-16.27Zm0 0"/><path fill="#f8f7f2" d="m68.352 251.855 9.148-8.27-1.969 10.438Zm0 0"/><path fill="#081d3b" d="m77.5 243.586 4.602 7.824-6.57 2.613ZM77.5 243.586l14.832.2-10.23 7.624Zm0 0"/><path fill="#ede6cc" d="m347.61 284.957 19.05-15.855L384 297.676Zm0 0"/><path fill="#ece6ce" d="m384.004 263.57-17.344 5.532 5.582-13.914Zm0 0"/><path fill="#eee7cd" d="m384 297.676-17.34-28.574 17.344-5.532Zm0 0"/><path fill="#ece6cf" d="m352.695 264.703 13.965 4.399-19.05 15.855Zm0 0"/><path fill="#eae4cd" d="m349.805 255.582 2.89 9.121-15.515-1.234Zm0 0"/><path fill="#ebe4ca" d="m352.695 264.703-5.086 20.254-10.43-21.488Zm0 0"/><path fill="#ede4c3" d="m366.66 269.102-6.535-12.446 12.117-1.469Zm0 0"/><path fill="#ebe6d1" d="m352.695 264.703 7.43-8.047 6.535 12.446Zm0 0"/><path fill="#091e3b" d="m372.242 255.188-12.117 1.468.367-13.047Zm0 0"/><path fill="#0a1e3b" d="m360.125 256.656-10.32-1.074 10.687-11.973Zm0 0"/><path fill="#e9e5d4" d="m360.125 256.656-7.43 8.047-2.89-9.121Zm0 0"/></svg>