<svg xmlns="http://www.w3.org/2000/svg" width="512" height="512" viewBox="0 0 384 384"><path fill="#24a4b5" d="m117.3 114.023-50.956-13.898 40.039-33.54Zm0 0"/><path fill="#1fa4b5" d="m140.656 88.734-23.355 25.29-10.918-47.438Zm0 0"/><path fill="#19a7b8" d="m117.3 114.023 23.356-25.289 4.254 22.528Zm0 0"/><path fill="#1da5b6" d="m234.145 41.04-28.188 6.042-8.059-47.086Zm0 0"/><path fill="#1f1936" d="m200.61 191.121 3.386 10.59-25.043 7.887Zm0 0"/><path fill="#1fa8b9" d="m86.637 140.91-20.293-40.785 50.957 13.898Zm0 0"/><path fill="#229bad" d="m41.797 157.734-41.8 22.457L0 83.973Zm0 0"/><path fill="#2c9cae" d="m.004 0 55.238 46.508L0 83.973Zm0 0"/><path fill="#259daf" d="M100.98-.008 55.242 46.508.004 0Zm0 0"/><path fill="#1ba1b3" d="m41.797 157.734 24.547-57.609 20.293 40.785Zm0 0"/><path fill="#249eb0" d="m0 83.973 66.344 16.152-24.547 57.61Zm0 0"/><path fill="#21a6b7" d="m100.98-.008 63.29 47.465-57.887 19.129Zm0 0"/><path fill="#28a2b3" d="M55.242 46.508 100.98-.008l5.403 66.594Zm0 0"/><path fill="#19a4b5" d="M234.145 41.04 214.82 56.913l-8.863-9.832Zm0 0"/><path fill="#18a7b8" d="m248.883 245.137-36.48-12.078 23.718-22.45Zm0 0"/><path fill="#1bacbd" d="m236.121 210.61-27.594 5.515-4.53-14.414Zm0 0"/><path fill="#14aebf" d="m208.527 216.125 27.594-5.516-23.719 22.45Zm0 0"/><path fill="#179eb0" d="m168.707 164.238 14.387 14.66-77.492-3.07Zm0 0"/><path fill="#1f1d3a" d="m158.57 193.61 20.383 15.988-32.25 12.078Zm0 0"/><path fill="#17a0b2" d="M183.094 178.898 158.57 193.61l-52.968-17.78Zm0 0"/><path fill="#209cae" d="m49.113 365.3-6.601-11.859 10.183-.5Zm0 0"/><path fill="#201533" d="m42.512 353.441 7.082-9.59 3.101 9.09Zm0 0"/><path fill="#18a7b8" d="m117.035 154.117-11.433 21.711-21.676-7.308Zm0 0"/><path fill="#1f9dae" d="m167.953 336.941 43.235 1.258-17.41 45.797Zm0 0"/><path fill="#229cae" d="m133.355 384 34.598-47.059 25.824 47.055Zm0 0"/><path fill="#199cae" d="m30.523 273.398 7.395 17.711L0 291.961Zm0 0"/><path fill="#1b9eb0" d="m383.996 188.984-31.394-13.586L384 101.086Zm0 0"/><path fill="#17a6b7" d="m285.367 140.012 22.293 22.578-43.308 6.418Zm0 0"/><path fill="#16a1b3" d="m279.125 68.012-14.602-14.078 37.125-8.188Zm0 0"/><path fill="#1ca5b6" d="m337.621 244.254 15.692-27.688 9.367 27.426Zm0 0"/><path fill="#19a4b6" d="m248.883 245.137-12.762-34.528 64.695 3.868Zm0 0"/><path fill="#19a4b5" d="m236.121 210.61 28.23-41.602 36.465 45.469Zm0 0"/><path fill="#17a9ba" d="m264.352 169.008-28.23 41.601-5.72-26.96Zm0 0"/><path fill="#2194a6" d="M340.672 299.727 384 290.266l-40.422 48.761Zm0 0"/><path fill="#27a3b3" d="M66.344 100.125 55.242 46.508l51.14 20.078Zm0 0"/><path fill="#28a0b1" d="m55.242 46.508 11.102 53.617L0 83.973Zm0 0"/><path fill="#1fa4b6" d="m100.98-.008 96.918.004-33.628 47.461Zm0 0"/><path fill="#1ca6b7" d="m164.27 47.457-23.614 41.277-34.273-22.148Zm0 0"/><path fill="#1aa5b6" d="m164.27 47.457 33.628-47.46 8.059 47.085Zm0 0"/><path fill="#17a7b8" d="m224.277 62.082-10.183 5.016.726-10.184Zm0 0"/><path fill="#16a9ba" d="m239.652 272.18 9.23-27.043-1.245 33.05Zm0 0"/><path fill="#1cacbd" d="m208.527 216.125-18.28 3.184 13.75-17.598Zm0 0"/><path fill="#16acbc" d="m212.402 233.059-22.156-13.75 18.281-3.184Zm0 0"/><path fill="#18647b" d="m168.707 164.238 17.719-13.113-3.332 27.773Zm0 0"/><path fill="#195b73" d="m167.8 140.027 18.626 11.098-17.719 13.113Zm0 0"/><path fill="#1f1a38" d="m122.723 157.066-17.121 18.762 11.433-21.71Zm0 0"/><path fill="#16788e" d="m104.348 203.496 1.254-27.668 52.968 17.781Zm0 0"/><path fill="#1c3651" d="m104.348 203.496 54.222-9.887-11.867 28.067Zm0 0"/><path fill="#1e223f" d="m178.953 209.598-20.383-15.989 24.524-14.71Zm0 0"/><path fill="#1f1533" d="m190.246 219.309-11.293-9.711 25.043-7.887Zm0 0"/><path fill="#17a7b8" d="m86.637 140.91 28.87 1.149 1.528 12.058Zm0 0"/><path fill="#19a6b7" d="m86.637 140.91 30.398 13.207-33.11 14.403Zm0 0"/><path fill="#1aaaba" d="m115.508 142.059-28.871-1.149 30.664-26.887Zm0 0"/><path fill="#1e9aac" d="m49.113 365.3-49.12 18.692 42.519-30.55Zm0 0"/><path fill="#2199ab" d="M49.113 365.3 67.961 384l-67.969-.008Zm0 0"/><path fill="#201533" d="m49.594 343.852 9.078 1.66-5.977 7.43Zm0 0"/><path fill="#1f1533" d="m83.453 302.836 26.402-27.36-9.289 42.641Zm0 0"/><path fill="#1e2743" d="m104.348 203.496-14.176-7.476 15.43-20.192Zm0 0"/><path fill="#19a5b6" d="m90.172 196.02-6.246-27.5 21.676 7.308Zm0 0"/><path fill="#fbfbfb" d="m39.668 243.05-14.176 1.571-5.347-18.523Zm0 0"/><path fill="#239daf" d="M119.129 358.406 133.355 384H67.961Zm0 0"/><path fill="#219fb0" d="m76.191 361.36 42.938-2.954L67.96 384Zm0 0"/><path fill="#1fa0b1" d="M119.129 358.406 76.19 361.36l15.938-11.89Zm0 0"/><path fill="#19a4b5" d="m167.953 336.941-47.883-19.367 19.227-21.379Zm0 0"/><path fill="#1aa4b5" d="m163.04 291.453 4.913 45.488-28.656-40.746Zm0 0"/><path fill="#1f1533" d="m83.453 302.836-9.988-1.879 9.941-35.125Zm0 0"/><path fill="#201533" d="m37.27 330.934 12.324 12.918-7.082 9.59Zm0 0"/><path fill="#1e9fb1" d="m120.07 317.574-.941 40.832-11.688-29.781Zm0 0"/><path fill="#1aa1b3" d="m356.492 105.117-3.89 70.281-21.52-34.023Zm0 0"/><path fill="#1ea0b2" d="m352.602 175.398 3.89-70.28L384 101.085Zm0 0"/><path fill="#1e9daf" d="m323.094 81.832 24.629-34.496 8.77 57.781Zm0 0"/><path fill="#1da0b1" d="m347.723 47.336-24.63 34.496-21.445-36.086Zm0 0"/><path fill="#12b1c1" d="m297.063 129.172-11.696 10.84.813-11.492Zm0 0"/><path fill="#17a6b7" d="m285.367 140.012 11.695-10.84 10.598 33.418Zm0 0"/><path fill="#18aabb" d="m228.746 165.645 35.606 3.363-33.95 14.64ZM218.05 180.3l10.696-14.655 1.656 18.003Zm0 0"/><path fill="#1f9cae" d="m356.492 105.117-8.77-57.781L384 101.086Zm0 0"/><path fill="#239fb0" d="m325.703 0 22.02 47.336-46.075-1.59Zm0 0"/><path fill="#18a3b4" d="m264.523 53.934-30.378-12.895L265.582 0Zm0 0"/><path fill="#17a5b6" d="m224.277 62.082 9.868-21.043 2.308 30.426Zm0 0"/><path fill="#17a5b7" d="m234.145 41.04-9.868 21.042-9.457-5.168Zm0 0"/><path fill="#1da2b4" d="m279.125 68.012 9.203 16.508-19.672-6.676Zm0 0"/><path fill="#17a4b6" d="m288.328 84.52-9.203-16.508 22.523-22.266Zm0 0"/><path fill="#1aa1b2" d="m323.094 81.832-34.766 2.688 13.32-38.774Zm0 0"/><path fill="#fefefe" d="m288.328 84.52-4.457 9.808-15.215-16.484Zm0 0"/><path fill="#19a4b5" d="m300.816 214.477-15.183 43.046-36.75-12.386Zm0 0"/><path fill="#2f2c47" d="m313 292.496 2.602-.187.816 1.976Zm0 0"/><path fill="#e0dee3" d="m315.602 292.309-2.602.187 1.984-17.883Zm0 0"/><path fill="#f5f4f6" d="m330.758 280.422-15.156 11.887-.618-17.696Zm0 0"/><path fill="#1d97a9" d="m316.418 294.285 14.34-13.863 9.914 19.305Zm0 0"/><path fill="#48415a" d="m315.602 292.309 15.156-11.887-14.34 13.863Zm0 0"/><path fill="#f7f7f8" d="m339.863 258.984-2.242-14.73 13.281 9.27Zm0 0"/><path fill="#948f9d" d="m352.68 255.598-12.817 3.386 11.04-5.46Zm0 0"/><path fill="#fefefe" d="m350.902 253.523-13.28-9.27 25.058-.26Zm0 0"/><path fill="#1ca4b5" d="m337.621 244.254-36.805-29.777 52.497 2.09Zm0 0"/><path fill="#fdfdfe" d="m259.8 286.074-15.183-4.918 3.02-2.969Zm0 0"/><path fill="#fcfcfc" d="m260.754 315 9.52-14.047 3.44 15.711Zm0 0"/><path fill="#19a6b7" d="m248.883 245.137 36.75 12.386-37.996 20.664Zm0 0"/><path fill="#16a7b8" d="M285.633 257.523 259.8 286.074l-12.164-7.887Zm0 0"/><path fill="#17a2b3" d="m285.633 257.523-15.36 43.43-10.472-14.879Zm0 0"/><path fill="#17a4b6" d="m270.273 300.953 15.36-43.43 29.351 17.09Zm0 0"/><path fill="#1c98aa" d="m317.785 314.914 22.887-15.187 2.906 39.3Zm0 0"/><path fill="#2492a4" d="m384 290.266.008 93.738-40.43-44.977Zm0 0"/><path fill="#2192a4" d="m384.008 384.004-74.93-.004 34.5-44.973Zm0 0"/><path fill="#16a9ba" d="m222.82 71.34 1.457-9.258 12.176 9.383ZM222.82 71.34l-8.726-4.242 10.183-5.016Zm0 0"/><path fill="#15a9ba" d="m214.094 67.098 8.726 4.242-6.082 1.68Zm0 0"/><path fill="#1e9eaf" d="m204.75 65.656 9.344 1.442-8.676 8.879Zm0 0"/><path fill="#17a4b6" d="m204.75 65.656-40.48-18.199 41.687-.375Zm0 0"/><path fill="#16a4b5" d="m214.82 56.914-10.07 8.742 1.207-18.574Zm0 0"/><path fill="#17a4b6" d="m214.094 67.098-9.344-1.442 10.07-8.742Zm0 0"/><path fill="#1da1b3" d="M234.145 41.04 197.898-.005 265.582 0Zm0 0"/><path fill="#201533" d="m136.992 260.96-35.785-2.452 6.395-29.121Zm0 0"/><path fill="#17acbd" d="m222.785 189.719-4.734-9.418 12.351 3.347Zm0 0"/><path fill="#16aabb" d="m236.121 210.61-13.336-20.891 7.617-6.07Zm0 0"/><path fill="#201533" d="m191.059 128.691 9.058 8.145-13.691 14.289Zm0 0"/><path fill="#1ca8b9" d="m158.965 100.512-14.055 10.75-4.254-22.528Zm0 0"/><path fill="#15aabb" d="m156.781 113.89-11.87-2.628 14.054-10.75Zm0 0"/><path fill="#15adbe" d="m144.91 111.262 11.871 2.629-4.781 8.343Zm0 0"/><path fill="#1e213e" d="m183.094 178.898 17.515 12.223-21.656 18.477Zm0 0"/><path fill="#1f1533" d="m167.8 140.027 23.259-11.336-4.633 22.434Zm0 0"/><path fill="#18a8b9" d="m115.508 142.059 11.176 2.109-9.649 9.95Zm0 0"/><path fill="#1e213e" d="m126.684 144.168-3.961 12.898-5.688-2.949Zm0 0"/><path fill="#1f1533" d="m135.695 158.613 33.012 5.625-63.105 11.59Zm0 0"/><path fill="#1f1a38" d="m122.723 157.066 12.972 1.547-30.093 17.215Zm0 0"/><path fill="#1c99ab" d="m-.008 383.992 23.371-50.887 19.149 20.336Zm0 0"/><path fill="#1c9aac" d="m23.363 333.105 13.907-2.171 5.242 22.507Zm0 0"/><path fill="#1c98ab" d="m23.363 333.105-23.37 50.887L0 291.961Zm0 0"/><path fill="#1f9daf" d="m60.23 362.54-11.117 2.76 3.582-12.359Zm0 0"/><path fill="#209cae" d="M60.23 362.54 67.96 384l-18.847-18.7Zm0 0"/><path fill="#201533" d="m76.191 361.36-.957-22.645 16.895 10.754Zm0 0"/><path fill="#453b54" d="m101.207 258.508 35.785 2.453-19.695 8.57Zm0 0"/><path fill="#209fb0" d="m26.613 203.703 15.184-45.969 19.933 43.77Zm0 0"/><path fill="#1ba1b3" d="m41.797 157.734 42.129 10.786-22.196 32.984ZM41.797 157.734l44.84-16.824-2.711 27.61Zm0 0"/><path fill="#209bad" d="M26.613 203.703 0 226.29l-.004-46.098Zm0 0"/><path fill="#219cae" d="m41.797 157.734-15.184 45.97L-.004 180.19Zm0 0"/><path fill="#1ea3b4" d="m55.547 232.242-15.879 10.809-19.523-16.953Zm0 0"/><path fill="#1ea2b3" d="m26.613 203.703 28.934 28.54-35.402-6.145ZM55.547 232.242l-28.934-28.539 35.117-2.2Zm0 0"/><path fill="#1c99ab" d="m-.012 245.516 17.785 17.402L0 291.961Zm0 0"/><path fill="#1f9bad" d="m0 291.96 17.773-29.042 12.75 10.48Zm0 0"/><path fill="#fcfcfc" d="m0 226.29 20.145-.192-20.157 19.418Zm0 0"/><path fill="#e7e6e9" d="m20.145 226.098.886 21.14-21.043-1.722Zm0 0"/><path fill="#fbfbfc" d="m21.031 247.238-.886-21.14 5.347 18.523Zm0 0"/><path fill="#1f9bad" d="m26.613 203.703-6.468 22.395L0 226.289Zm0 0"/><path fill="#d0cdd4" d="m33.172 258.695-7.68-14.074 14.176-1.57Zm0 0"/><path fill="#17a4b5" d="m120.07 317.574-3.379-39.64 22.606 18.261Zm0 0"/><path fill="#1e9fb1" d="m119.129 358.406.941-40.832 47.883 19.367Zm0 0"/><path fill="#1d9cae" d="m211.188 338.2 17.89 20.081-35.3 25.715Zm0 0"/><path fill="#21a0b1" d="m119.129 358.406 48.824-21.465L133.355 384Zm0 0"/><path fill="#1f1533" d="m73.465 300.957 1.77 37.758-18.184-8.399Zm0 0"/><path fill="#201533" d="m73.465 300.957 9.988 1.879-8.219 35.879Zm0 0"/><path fill="#219fb0" d="m119.129 358.406-23.41-25.105 11.722-4.676Zm0 0"/><path fill="#219fb1" d="m95.719 333.3 23.41 25.106-27-8.937Zm0 0"/><path fill="#bab7c0" d="m171.61 271.559 4.023 7.507-13.446.028Zm0 0"/><path fill="#19aabb" d="m175.633 279.066-12.594 12.387-.851-12.36Zm0 0"/><path fill="#1aa6b7" d="m181.371 294.79-18.332-3.337 12.594-12.387Zm0 0"/><path fill="#1aa2b4" d="m163.04 291.453 18.331 3.336-13.418 42.152Zm0 0"/><path fill="#1ea4b5" d="m163.04 291.453-19.688-9.012 18.835-3.347Zm0 0"/><path fill="#219fb0" d="m61.23 287.355-9.285-16.714 12.47-3.914Zm0 0"/><path fill="#1b9fb1" d="m37.918 291.11 14.027-20.47 9.285 16.715Zm0 0"/><path fill="#26a1b3" d="M71.504 269.2 61.23 287.354l3.184-20.628Zm0 0"/><path fill="#201533" d="m71.504 269.2 1.96 31.757-12.234-13.602ZM73.465 300.957l-1.961-31.758 11.902-3.367Zm0 0"/><path fill="#1c9cae" d="m37.918 291.11-14.555 41.995L0 291.961Zm0 0"/><path fill="#179bad" d="m37.27 330.934-13.907 2.171 14.555-41.996Zm0 0"/><path fill="#201533" d="m58.672 345.512-1.621-15.196 18.183 8.399ZM57.05 330.316l1.622 15.196-9.078-1.66Zm0 0"/><path fill="#211634" d="m37.27 330.934 19.78-.618-7.456 13.536Zm0 0"/><path fill="#201533" d="M75.234 338.715 95.72 333.3l-3.59 16.168Zm0 0"/><path fill="#1f1533" d="m95.719 333.3-20.485 5.415 8.22-35.88Zm0 0"/><path fill="#1ca1b2" d="m326.379 115.848 30.113-10.73-25.41 36.257Zm0 0"/><path fill="#1f9fb1" d="m326.379 115.848-3.285-34.016 33.398 23.285Zm0 0"/><path fill="#201533" d="m291.914 116.477 5.149 12.695-10.883-.652Zm0 0"/><path fill="#201533" d="m297.063 129.172-5.149-12.695 16.61 4.753Zm0 0"/><path fill="#13afc0" d="m285.367 140.012-14.445-15.563 15.258 4.07Zm0 0"/><path fill="#16a5b7" d="m264.352 169.008 6.57-44.559 14.445 15.563Zm0 0"/><path fill="#201533" d="m270.922 124.45-17.98-1.263 12.124-14.097Zm0 0"/><path fill="#15a6b7" d="m270.922 124.45-6.57 44.558-11.41-45.82Zm0 0"/><path fill="#18a3b4" d="m297.063 129.172 34.019 12.203-23.422 21.215Zm0 0"/><path fill="#1ca2b3" d="m331.082 141.375 21.52 34.023-44.942-12.808Zm0 0"/><path fill="#13afbf" d="m252.941 123.188-14.777 13.734-3.965-14.828Zm0 0"/><path fill="#15a9ba" d="m264.352 169.008-26.188-32.086 14.777-13.734Zm0 0"/><path fill="#219dae" d="M347.723 47.336 325.703 0H384Zm0 0"/><path fill="#209fb1" d="m325.703 0-24.055 45.746L265.582 0Zm0 0"/><path fill="#19a1b2" d="m301.648 45.746-37.125 8.188L265.582 0Zm0 0"/><path fill="#18a3b4" d="m234.145 41.04 12.906 22.292-10.598 8.133Zm0 0"/><path fill="#17a3b5" d="m247.05 63.332-12.905-22.293 30.378 12.895Zm0 0"/><path fill="#18a3b5" d="m285.633 257.523 40.023-.894-10.672 17.984Zm0 0"/><path fill="#17a5b6" d="m337.621 244.254-11.965 12.375-24.84-42.152Zm0 0"/><path fill="#1aa3b4" d="m325.656 256.629-40.023.894 15.183-43.046Zm0 0"/><path fill="#1f9cae" d="m384 290.266-8.652-34.618 8.691-31.562Zm0 0"/><path fill="#1fa4b5" d="m353.313 216.566 30.726 7.52-21.36 19.906Zm0 0"/><path fill="#1ca0b2" d="m383.996 188.984.043 35.102-30.726-7.52Zm0 0"/><path fill="#1c98ab" d="m330.758 280.422 23.738-6.613-13.824 25.918Zm0 0"/><path fill="#1da2b3" d="m300.816 214.477 51.786-39.079.71 41.168Zm0 0"/><path fill="#1aa4b5" d="m307.66 162.59-6.844 51.887-36.464-45.47Zm0 0"/><path fill="#1ca4b5" d="m352.602 175.398-51.786 39.079 6.844-51.887Zm0 0"/><path fill="#1a9daf" d="m353.313 216.566-.711-41.168 31.394 13.586Zm0 0"/><path fill="#f9f9fa" d="m244.617 281.156-4.965-8.976 7.985 6.007Zm0 0"/><path fill="#fefefe" d="m246.148 301.176-1.53-20.02 15.183 4.918Zm0 0"/><path fill="#f4f4f5" d="m270.273 300.953-24.125.223 13.653-15.102Zm0 0"/><path fill="#fcfcfc" d="m246.148 301.176 24.125-.223-9.52 14.047Zm0 0"/><path fill="#b3afb9" d="m244.617 281.156 1.531 20.02-13.054-20.227Zm0 0"/><path fill="#fbfbfb" d="m244.617 281.156-11.523-.207 6.558-8.77ZM250.129 320.305 260.754 315l3.398 20.469Zm0 0"/><path fill="#f5f5f6" d="m244.29 368.203 13.179 15.781-22.07.028Zm0 0"/><path fill="#1d97a9" d="m340.672 299.727-22.887 15.187-1.367-20.629Zm0 0"/><path fill="#fbfbfc" d="m273.715 316.664-3.442-15.71 20.141 7.25Zm0 0"/><path fill="#dfdee2" d="m290.414 308.203-12.172 11.746-4.527-3.285Zm0 0"/><path fill="#231937" d="m169.262 103.715-12.48 10.176 2.183-13.38Zm0 0"/><path fill="#1f1533" d="m182.34 111.375-13.078-7.66 13.086-5.383ZM156.781 113.89l12.48-10.175 13.079 7.66Zm0 0"/><path fill="#1ca6b7" d="M176.727 77.785 159.78 84.56l4.489-37.102Zm0 0"/><path fill="#19a8b9" d="m164.27 47.457-4.489 37.102-19.125 4.175Zm0 0"/><path fill="#16aabb" d="m159.781 84.559-.816 15.953-18.309-11.778Zm0 0"/><path fill="#201533" d="m246.172 108.148 6.77 15.04-18.743-1.094Zm0 0"/><path fill="#211634" d="m224.797 105.672 21.375 2.476-11.973 13.946Zm0 0"/><path fill="#201533" d="m252.941 123.188-6.77-15.04 18.895.942Zm0 0"/><path fill="#f4f4f5" d="m246.172 108.148 13.945-20.464 4.95 21.406Zm0 0"/><path fill="#eeedef" d="m260.117 87.684-13.945 20.464-2.285-23.722Zm0 0"/><path fill="#211634" d="m224.797 105.672 9.402 16.422-12.242-12.563Zm0 0"/><path fill="#201634" d="m279.52 113.27-8.598 11.18-5.856-15.36Zm0 0"/><path fill="#f9f9fa" d="m291.914 116.477-12.394-3.207 4.351-18.942Zm0 0"/><path fill="#201533" d="m279.52 113.27 12.394 3.207-5.734 12.043Zm0 0"/><path fill="#211634" d="m270.922 124.45 8.598-11.18 6.66 15.25Zm0 0"/><path fill="#201533" d="m176.727 77.785 18.804 8.336-13.183 12.211Zm0 0"/><path fill="#fefefe" d="m195.531 86.121-1.863 16.317-11.32-4.106ZM210.066 83.277l-14.535 2.844 9.887-10.144Zm0 0"/><path fill="#201533" d="m192.105 71.555 12.645-5.899.668 10.32Zm0 0"/><path fill="#201533" d="m195.531 86.121-3.426-14.566 13.313 4.422ZM192.105 71.555l3.426 14.566-18.804-8.336Zm0 0"/><path fill="#17a6b7" d="m192.105 71.555-15.378 6.23-12.457-30.328Zm0 0"/><path fill="#16a3b4" d="m204.75 65.656-12.645 5.899-27.835-24.098Zm0 0"/><path fill="#c1bec6" d="m197.973 258.09-11.871 7.566-.907-10.234Zm0 0"/><path fill="#1aa6b7" d="m239.652 272.18-18.664-12.758 27.895-14.285Zm0 0"/><path fill="#16aabb" d="m198.098 250.645-8.989-13.016 23.293-4.57Zm0 0"/><path fill="#f9f9fa" d="m198.098 250.645-.125 7.445-12.778-2.668Zm0 0"/><path fill="#1cabbb" d="m189.11 237.629-4.364 12.176-8.703-4.918Zm0 0"/><path fill="#f3f2f4" d="m184.746 249.805 13.352.84-12.903 4.777Zm0 0"/><path fill="#1da8b9" d="m198.098 250.645-13.352-.84 4.363-12.176Zm0 0"/><path fill="#1badbd" d="m177.664 232.457 11.445 5.172-13.066 7.258Zm0 0"/><path fill="#1f1a38" d="m178.953 209.598-1.289 22.859-30.96-10.781Zm0 0"/><path fill="#1f1836" d="m146.703 221.676-9.71 39.285-29.391-31.574Zm0 0"/><path fill="#1f1633" d="m214.348 150.465 14.398 15.18-10.695 14.656Zm0 0"/><path fill="#1f1533" d="m204.195 152.309 10.153-1.844 3.703 29.836Zm0 0"/><path fill="#16768c" d="m198.441 174.84-15.347 4.058 3.332-27.773Zm0 0"/><path fill="#195971" d="m198.441 174.84 5.754-22.531 13.856 27.992Zm0 0"/><path fill="#1f1533" d="m198.441 174.84 19.61 5.46-17.442 10.821Zm0 0"/><path fill="#1f1533" d="m183.094 178.898 15.347-4.058 2.168 16.281Zm0 0"/><path fill="#1ca8b9" d="m209.629 195.555 26.492 15.054-32.125-8.898Zm0 0"/><path fill="#1aa9ba" d="m209.629 195.555 13.156-5.836 13.336 20.89Zm0 0"/><path fill="#20aabb" d="m222.785 189.719-13.156 5.836 8.422-15.254Zm0 0"/><path fill="#1f1936" d="m200.61 191.121 9.019 4.434-5.633 6.156Zm0 0"/><path fill="#1f1533" d="m218.05 180.3-8.421 15.255-9.02-4.434ZM200.117 136.836l4.078 15.473-17.77-1.184Zm0 0"/><path fill="#fefefe" d="m204.41 127.031-4.293 9.805-9.058-8.145Zm0 0"/><path fill="#fefefe" d="m193.852 117.477 10.558 9.554-13.351 1.66Zm0 0"/><path fill="#fefefe" d="m204.41 127.031-10.558-9.554 15.414-11.27ZM214.594 127.313l-10.184-.282 4.856-20.824Zm0 0"/><path fill="#201533" d="m167.8 140.027 17.313-17.261 5.946 5.925Zm0 0"/><path fill="#fefefe" d="m193.852 117.477-8.739 5.289-2.773-11.391Zm0 0"/><path fill="#fefefe" d="m185.113 122.766 8.739-5.29-2.793 11.215Zm0 0"/><path fill="#201533" d="m162.516 124.57-5.735-10.68 25.559-2.515ZM185.113 122.766l-22.597 1.804 19.824-13.195Zm0 0"/><path fill="#1f1533" d="m162.516 124.57 22.597-1.804-17.312 17.261Zm0 0"/><path fill="#201533" d="m156.781 113.89 5.735 10.68L152 122.234Zm0 0"/><path fill="#1f1b38" d="m126.684 144.168 9.011 14.445-12.972-1.547Zm0 0"/><path fill="#1babbb" d="m117.3 114.023 9.384 30.145-11.176-2.11Zm0 0"/><path fill="#1c3551" d="m148.176 141.637 19.625-1.61.906 24.211Zm0 0"/><path fill="#1a6178" d="m135.695 158.613 12.48-16.976 20.532 22.601Zm0 0"/><path fill="#1e213e" d="m126.684 144.168 21.492-2.531-12.48 16.976Zm0 0"/><path fill="#201533" d="m58.672 345.512 4.555 10.254-10.532-2.825Zm0 0"/><path fill="#1e9eaf" d="m63.227 355.766-2.997 6.773-7.535-9.598Zm0 0"/><path fill="#201533" d="m75.234 338.715-12.007 17.05-4.555-10.253Zm0 0"/><path fill="#1ea0b2" d="m60.23 362.54 2.997-6.774 12.964 5.593Zm0 0"/><path fill="#201533" d="m63.227 355.766 12.007-17.051.957 22.644Zm0 0"/><path fill="#1e9fb0" d="m60.23 362.54 15.961-1.18-8.23 22.64Zm0 0"/><path fill="#1aa3b4" d="m90.172 196.02-28.442 5.484 22.196-32.984Zm0 0"/><path fill="#199bad" d="m21.031 247.238-3.258 15.68-17.785-17.402Zm0 0"/><path fill="#6d667a" d="m25.492 244.621 7.68 14.074-12.14-11.457Zm0 0"/><path fill="#189cae" d="m33.172 258.695-15.399 4.223 3.258-15.68Zm0 0"/><path fill="#f9f9f9" d="m39.828 259.676-6.656-.98 6.496-15.645Zm0 0"/><path fill="#443e56" d="m33.172 258.695 6.656.98-1.578 3.192Zm0 0"/><path fill="#189eb0" d="m30.523 273.398 2.649-14.703 5.078 4.172Zm0 0"/><path fill="#169cae" d="m33.172 258.695-2.649 14.703-12.75-10.48Zm0 0"/><path fill="#1ca4b5" d="m109.855 275.477 10.215 42.097-19.504.543Zm0 0"/><path fill="#1ba3b5" d="m116.691 277.934 3.38 39.64-10.216-42.097Zm0 0"/><path fill="#1d9cae" d="m193.777 383.996 35.301-25.715 6.32 25.73Zm0 0"/><path fill="#f5f5f6" d="m229.078 358.281 15.211 9.922-8.89 15.809Zm0 0"/><path fill="#1aa3b5" d="m181.371 294.79 20.617 4.89-34.035 37.261Zm0 0"/><path fill="#16a1b3" d="m201.988 299.68 26.262 18.894-17.062 19.625Zm0 0"/><path fill="#1da6b7" d="m185.742 277.953-4.37 16.836-5.74-15.723Zm0 0"/><path fill="#201533" d="m100.566 318.117-4.847 15.184-12.266-30.465Zm0 0"/><path fill="#1c9fb1" d="m95.719 333.3 4.847-15.183 6.875 10.508Zm0 0"/><path fill="#20a2b3" d="m100.566 318.117 19.504-.543-12.629 11.051Zm0 0"/><path fill="#189fb1" d="m30.523 273.398 21.422-2.757-14.027 20.468Zm0 0"/><path fill="#18a0b2" d="m53.855 301.52-15.937-10.41 23.312-3.755Zm0 0"/><path fill="#179eb0" d="m37.918 291.11 15.937 10.41-16.585 29.414Zm0 0"/><path fill="#201533" d="m37.27 330.934 16.585-29.414 3.196 28.796Zm0 0"/><path fill="#211634" d="m53.855 301.52 19.61-.563-16.414 29.36Zm0 0"/><path fill="#201533" d="m101.207 258.508-17.8 7.324.163-15.11Zm0 0"/><path fill="#1ea1b2" d="M308.61 98.074 288.327 84.52l34.766-2.688Zm0 0"/><path fill="#1ca0b2" d="m326.379 115.848-17.77-17.774 14.485-16.242Zm0 0"/><path fill="#fefefe" d="m288.328 84.52 20.281 13.554-24.738-3.746Zm0 0"/><path fill="#fcfcfc" d="m308.61 98.074 17.769 17.774-17.856 5.382Zm0 0"/><path fill="#f9f8f9" d="m291.914 116.477 16.695-18.403-.086 23.156Zm0 0"/><path fill="#f9f9fa" d="m308.61 98.074-16.696 18.403-8.043-22.149Zm0 0"/><path fill="#14aabb" d="m264.352 169.008-35.606-3.363 9.418-28.723Zm0 0"/><path fill="#269dae" d="m384 101.086-36.277-53.75L384 0Zm0 0"/><path fill="#fefefe" d="m222.48 85.047 13.973-13.582 7.434 12.96Zm0 0"/><path fill="#fdfdfd" d="m339.863 258.984-14.207-2.355 11.965-12.375Zm0 0"/><path fill="#fefefe" d="m325.656 256.629 5.102 23.793-15.774-5.809Zm0 0"/><path fill="#fefefe" d="m313 292.496-42.727 8.457 44.711-26.34ZM384.04 224.086l-8.692 31.562-12.668-11.656Zm0 0"/><path fill="#2099ab" d="m330.758 280.422 9.105-21.438 14.633 14.825Zm0 0"/><path fill="#1d9bad" d="m354.496 273.809-14.633-14.825 12.817-3.386Zm0 0"/><path fill="#f2f1f3" d="m325.656 256.629 14.207 2.355-9.105 21.438Zm0 0"/><path fill="#15a4b6" d="m224.168 284.219 4.082 34.355-26.262-18.894Zm0 0"/><path fill="#f9f8f9" d="m250.129 320.305-3.98-19.13L260.753 315Zm0 0"/><path fill="#199cae" d="m239.242 336.14-28.054 2.06 17.062-19.626Zm0 0"/><path fill="#199daf" d="m250.129 320.305-10.887 15.836-10.992-17.567Zm0 0"/><path fill="#dcdadf" d="m239.242 336.14 24.91-.671-16.597 14.308Zm0 0"/><path fill="#fdfdfd" d="m239.242 336.14 10.887-15.835 14.023 15.164Zm0 0"/><path fill="#f3f3f4" d="m239.242 336.14 8.313 13.637-18.477 8.504Zm0 0"/><path fill="#1a9cae" d="m211.188 338.2 28.054-2.06-10.164 22.141Zm0 0"/><path fill="#d8d6db" d="m244.29 368.203 15.308-9.812-2.13 25.593Zm0 0"/><path fill="#1f95a7" d="m257.469 383.984 2.129-25.593L309.078 384Zm0 0"/><path fill="#199daf" d="m317.785 314.914-27.37-6.71 26.003-13.919Zm0 0"/><path fill="#f7f7f8" d="m260.754 315 12.96 1.664-9.562 18.805Zm0 0"/><path fill="#f6f5f7" d="m273.715 316.664-1.277 21.98-8.286-3.175Zm0 0"/><path fill="#201533" d="m166.188 90.434 3.074 13.28-10.297-3.202Zm0 0"/><path fill="#14acbd" d="m159.781 84.559 6.406 5.875-7.222 10.078Zm0 0"/><path fill="#17a6b7" d="m166.188 90.434-6.407-5.875 16.946-6.774Zm0 0"/><path fill="#201533" d="m166.188 90.434 10.539-12.649 5.62 20.547Zm0 0"/><path fill="#1f1533" d="m169.262 103.715-3.075-13.281 16.16 7.898Zm0 0"/><path fill="#f3f3f4" d="m232.117 94.059-9.637-9.012 21.407-.621Zm0 0"/><path fill="#f3f3f4" d="m222.48 85.047 9.637 9.012-10.719-.688Zm0 0"/><path fill="#f4f4f5" d="m232.117 94.059-7.32 11.613-3.399-12.3ZM246.172 108.148l-14.055-14.09 11.77-9.632Zm0 0"/><path fill="#f4f3f4" d="m232.117 94.059 14.055 14.09-21.375-2.477Zm0 0"/><path fill="#201533" d="m234.2 122.094-15.055-9.98 2.812-2.583Zm0 0"/><path fill="#dedde1" d="m219.145 112.113-4.551 15.2-5.328-21.106Zm0 0"/><path fill="#12b2c3" d="m227.48 124.77 6.72-2.676 3.964 14.828Zm0 0"/><path fill="#f2f2f3" d="m219.145 112.113 8.335 12.657-12.886 2.543Zm0 0"/><path fill="#231936" d="m227.48 124.77-8.335-12.657 15.054 9.98Zm0 0"/><path fill="#fefefe" d="m222.48 85.047.34-13.707 13.633.125Zm0 0"/><path fill="#221735" d="m222.82 71.34-.34 13.707-5.742-12.027Zm0 0"/><path fill="#fefefe" d="m268.656 77.844 15.215 16.484-23.754-6.644Zm0 0"/><path fill="#f1f0f2" d="m260.117 87.684 23.754 6.644-18.805 14.762Zm0 0"/><path fill="#fefefe" d="m283.871 94.328-4.351 18.942-14.454-4.18Zm0 0"/><path fill="#16a6b7" d="m268.656 77.844-4.133-23.91 14.602 14.078Zm0 0"/><path fill="#d6d4d9" d="m186.102 265.656-10.465-3.71 9.558-6.524Zm0 0"/><path fill="#1ba0b2" d="m206.547 277.879 17.621 6.34-22.18 15.46Zm0 0"/><path fill="#16a8b9" d="m248.883 245.137-29.461 9.203-7.02-21.281Zm0 0"/><path fill="#1ba6b7" d="m220.988 259.422-1.566-5.082 29.46-9.203Zm0 0"/><path fill="#18abbc" d="m219.422 254.34-21.324-3.695 14.304-17.586Zm0 0"/><path fill="#21a6b7" d="m198.098 250.645 21.324 3.695-21.45 3.75Zm0 0"/><path fill="#1f1533" d="m177.664 232.457-11.644 11.492-19.317-22.273ZM166.02 243.95l11.644-11.493-1.621 12.43Zm0 0"/><path fill="#16acbd" d="m189.11 237.629 1.136-18.32 22.156 13.75Zm0 0"/><path fill="#1baabb" d="m177.664 232.457 12.582-13.148-1.137 18.32Zm0 0"/><path fill="#201533" d="m190.246 219.309-12.582 13.148 1.29-22.86ZM166.02 243.95l-11.586 5.382-7.73-27.656Zm0 0"/><path fill="#efeef0" d="m109.855 275.477 7.442-5.946-.606 8.403Zm0 0"/><path fill="#201533" d="m214.348 150.465-10.153 1.844 3.383-11.082Zm0 0"/><path fill="#11b3c4" d="m226.453 139.004 1.027-14.234 10.684 12.152Zm0 0"/><path fill="#15a8b9" d="m228.746 165.645-2.293-26.641 11.711-2.082Zm0 0"/><path fill="#fefefe" d="m214.348 150.465 12.105-11.461 2.293 26.64ZM226.453 139.004l-12.105 11.46-6.77-9.237ZM214.594 127.313l11.86 11.69-18.876 2.224Zm0 0"/><path fill="#fefefe" d="m227.48 124.77-1.027 14.234-11.86-11.691Zm0 0"/><path fill="#201533" d="m207.578 141.227-3.383 11.082-4.078-15.473Zm0 0"/><path fill="#fefefe" d="m204.41 127.031 3.168 14.196-7.46-4.391Zm0 0"/><path fill="#fefefe" d="m207.578 141.227-3.168-14.196 10.184.281Zm0 0"/><path fill="#148ca0" d="m204.195 152.309-5.754 22.53-12.015-23.714Zm0 0"/><path fill="#fefefe" d="m193.668 102.438-11.328 8.937.008-13.043ZM193.668 102.438l.184 15.039-11.512-6.102Zm0 0"/><path fill="#1f1634" d="m148.176 141.637 4.59-10.84 15.035 9.23Zm0 0"/><path fill="#1f1533" d="m162.516 124.57-9.75 6.227-.766-8.563Zm0 0"/><path fill="#1e223f" d="m152.766 130.797 9.75-6.227 5.285 15.457Zm0 0"/><path fill="#3b324c" d="m109.855 275.477-8.648-16.97 16.09 11.024Zm0 0"/><path fill="#1f1533" d="m101.207 258.508 8.648 16.969-26.402 27.359Zm0 0"/><path fill="#1f1533" d="m101.207 258.508-17.754 44.328-.047-37.004Zm0 0"/><path fill="#18a6b8" d="m90.172 196.02-7.684 22.652-20.758-17.168Zm0 0"/><path fill="#655e73" d="m89.332 242.055 11.875 16.453-17.637-7.785Zm0 0"/><path fill="#19546d" d="m107.602 229.387-3.254-25.89 42.355 18.179Zm0 0"/><path fill="#1b4862" d="m82.488 218.672 25.114 10.715-20.344 1.758Zm0 0"/><path fill="#e9e8eb" d="m72.852 261.586-1.348 7.613-7.09-2.472Zm0 0"/><path fill="#fbfafb" d="m50.469 250.36-10.64 9.316-.161-16.625Zm0 0"/><path fill="#21a1b2" d="m55.547 232.242-5.078 18.117-10.801-7.308Zm0 0"/><path fill="#1e9daf" d="m167.953 336.941 34.035-37.261 9.2 38.52Zm0 0"/><path fill="#21a1b3" d="m192.148 286.875 9.84 12.805-20.617-4.89Zm0 0"/><path fill="#1ca8b9" d="m185.742 277.953 6.406 8.922-10.777 7.914Zm0 0"/><path fill="#e3e2e5" d="m143.352 282.441 10.273-17.914 8.563 14.567Zm0 0"/><path fill="#fbfbfb" d="m153.625 264.527-10.273 17.914-6.36-21.48Zm0 0"/><path fill="#f9f9fa" d="m143.352 282.441-26.055-12.91 19.695-8.57Zm0 0"/><path fill="#3d3e57" d="m39.828 259.676 12.117 10.965-13.695-7.774Zm0 0"/><path fill="#1aa0b2" d="m51.945 270.64-21.422 2.758 7.727-10.53Zm0 0"/><path fill="#f0f0f2" d="m51.945 270.64-1.476-20.28 13.945 16.367Zm0 0"/><path fill="#e6e4e8" d="m50.469 250.36 1.476 20.28-12.117-10.964Zm0 0"/><path fill="#201633" d="m73.465 300.957-19.61.563 7.375-14.165Zm0 0"/><path fill="#201533" d="m72.852 261.586 10.554 4.246-11.902 3.367Zm0 0"/><path fill="#f9f9fa" d="m326.379 115.848 4.703 25.527-22.559-20.145Zm0 0"/><path fill="#201533" d="m331.082 141.375-34.02-12.203 11.461-7.942Zm0 0"/><path fill="#199cae" d="M290.414 308.203 313 292.496l3.418 1.79Zm0 0"/><path fill="#857f90" d="m313 292.496-22.586 15.707-20.14-7.25Zm0 0"/><path fill="#dedde1" d="m246.148 301.176-21.98-16.957 8.926-3.27Zm0 0"/><path fill="#1da0b1" d="m250.129 320.305-25.961-36.086 21.98 16.957Zm0 0"/><path fill="#888292" d="m259.598 358.39-15.309 9.813 3.266-18.426Zm0 0"/><path fill="#bab7c0" d="m247.555 349.777-3.266 18.426-15.21-9.922Zm0 0"/><path fill="#342a45" d="m272.438 338.645-12.84 19.746 4.554-22.922Zm0 0"/><path fill="#534b62" d="m264.152 335.469-4.554 22.922-12.043-8.614Zm0 0"/><path fill="#1999ab" d="m300.02 339.95-9.606-31.747 27.371 6.711Zm0 0"/><path fill="#1c97a9" d="m300.02 339.95-21.778-20 12.172-11.747Zm0 0"/><path fill="#6a6377" d="m272.438 338.645 1.277-21.98 4.527 3.284Zm0 0"/><path fill="#2090a3" d="m300.02 339.95-27.582-1.305 5.804-18.696Zm0 0"/><path fill="#fefefe" d="m209.266 106.207-15.414 11.27-.184-15.04Zm0 0"/><path fill="#f4f3f5" d="m203.54 92.367 5.726 13.84-15.598-3.77Zm0 0"/><path fill="#fefefe" d="m195.531 86.121 8.008 6.246-9.871 10.07Zm0 0"/><path fill="#e0dfe3" d="m210.066 83.277-6.527 9.09-8.008-6.246Zm0 0"/><path fill="#fefefe" d="m236.453 71.465 16.031 2.36-8.597 10.6Zm0 0"/><path fill="#16a5b6" d="m252.484 73.824-5.433-10.492 17.472-9.398Zm0 0"/><path fill="#17a7b8" d="m252.484 73.824-16.03-2.36 10.597-8.132Zm0 0"/><path fill="#271c39" d="m222.48 85.047-8.32-9.383 2.578-2.644Zm0 0"/><path fill="#fefefe" d="m214.16 75.664 8.32 9.383-12.414-1.77Zm0 0"/><path fill="#fefefe" d="m214.16 75.664-4.094 7.613-4.648-7.3Zm0 0"/><path fill="#231936" d="m214.094 67.098.066 8.566-8.742.313Zm0 0"/><path fill="#14a9ba" d="m214.16 75.664-.066-8.566 2.644 5.922Zm0 0"/><path fill="#cac7ce" d="m175.637 261.945 3.02 10.664-7.048-1.05Zm0 0"/><path fill="#5b5369" d="m171.61 271.559 7.046 1.05-3.023 6.457Zm0 0"/><path fill="#2a203c" d="m178.656 272.61 7.086 5.343-10.11 1.113Zm0 0"/><path fill="#332945" d="m185.742 277.953-7.086-5.344 7.446-6.953Zm0 0"/><path fill="#dddce0" d="m178.656 272.61-3.02-10.665 10.466 3.711Zm0 0"/><path fill="#d9d7dc" d="m184.746 249.805-10.879 2 2.176-6.918Zm0 0"/><path fill="#201533" d="m173.867 251.805-7.847-7.856 10.023.938Zm0 0"/><path fill="#f2f1f3" d="m173.867 251.805 10.88-2 .448 5.617Zm0 0"/><path fill="#ebebed" d="m175.637 261.945-1.77-10.14 11.328 3.617Zm0 0"/><path fill="#fefefe" d="m224.168 284.219-3.18-24.797 12.106 21.527Zm0 0"/><path fill="#e6e4e8" d="m206.547 277.879 14.441-18.457 3.18 24.797Zm0 0"/><path fill="#fefefe" d="m233.094 280.95-12.106-21.528 18.664 12.758Zm0 0"/><path fill="#f4f4f5" d="m186.102 265.656 10.386 6.285-10.746 6.012Zm0 0"/><path fill="#fdfdfd" d="m196.488 271.941-10.386-6.285 11.87-7.566Zm0 0"/><path fill="#aaa5b1" d="m162.188 279.094.46-19.696 8.961 12.16Zm0 0"/><path fill="#9f9aa7" d="m162.648 259.398-.46 19.696-8.563-14.567Zm0 0"/><path fill="#1eb8c7" d="m154.434 249.332 8.214 10.066-9.023 5.13Zm0 0"/><path fill="#1fb7c6" d="m153.625 264.527-16.633-3.566 17.442-11.629Zm0 0"/><path fill="#18a5b6" d="m117.297 269.531 22 26.664-22.606-18.261Zm0 0"/><path fill="#18a6b7" d="m139.297 296.195-22-26.664 26.055 12.91Zm0 0"/><path fill="#1ba2b4" d="m139.297 296.195 4.055-13.754 19.687 9.012Zm0 0"/><path fill="#201533" d="m136.992 260.96 9.711-39.284 7.73 27.656Zm0 0"/><path fill="#15aebf" d="m152 122.234-7.004 8.024-.086-18.996Zm0 0"/><path fill="#14b1c1" d="m152.766 130.797-7.77-.54 7.004-8.023Zm0 0"/><path fill="#14aebf" d="m144.996 130.258-27.695-16.235 27.61-2.761Zm0 0"/><path fill="#13aebf" d="m144.996 130.258-18.312 13.91-9.383-30.145Zm0 0"/><path fill="#1f1533" d="m144.996 130.258 3.18 11.379-21.492 2.531Zm0 0"/><path fill="#1f1735" d="m144.996 130.258 7.77.539-4.59 10.84Zm0 0"/><path fill="#18a3b4" d="m77.441 233.527-21.894-1.285 6.183-30.738Zm0 0"/><path fill="#18a4b5" d="m82.488 218.672-5.047 14.855-15.71-32.023Zm0 0"/><path fill="#1f1533" d="m89.332 242.055-11.89-8.528 9.816-2.382Zm0 0"/><path fill="#20223f" d="m77.441 233.527 5.047-14.855 4.77 12.473Zm0 0"/><path fill="#1f1634" d="m89.332 242.055-2.074-10.91 20.344-1.758Zm0 0"/><path fill="#201533" d="m101.207 258.508-11.875-16.453 18.27-12.668Zm0 0"/><path fill="#1a4c65" d="m104.348 203.496 3.254 25.89-25.114-10.714Zm0 0"/><path fill="#1f1e3b" d="m104.348 203.496-21.86 15.176 7.684-22.652Zm0 0"/><path fill="#1ea4b5" d="m67.977 254.094-17.508-3.735 5.078-18.117Zm0 0"/><path fill="#fdfcfd" d="m67.977 254.094 4.875 7.492-8.438 5.14Zm0 0"/><path fill="#fdfdfe" d="m50.469 250.36 17.508 3.734-3.563 12.633Zm0 0"/><path fill="#756e81" d="m196.676 283.168 9.87-5.29-4.558 21.802Zm0 0"/><path fill="#548294" d="m192.148 286.875 4.528-3.707 5.312 16.512Zm0 0"/><path fill="#f1f0f2" d="m196.676 283.168-4.528 3.707-6.406-8.922Zm0 0"/><path fill="#f5f5f6" d="m196.488 271.941.188 11.227-10.934-5.215Zm0 0"/><path fill="#3a304b" d="m196.676 283.168-.188-11.227 10.059 5.938Zm0 0"/><path fill="#1a9fb1" d="m228.25 318.574-4.082-34.355 25.96 36.086Zm0 0"/><path fill="#1c97a9" d="m343.578 339.027-43.558.922 17.765-25.035Zm0 0"/><path fill="#1f94a7" d="m272.438 338.645 27.582 1.304-40.422 18.442Zm0 0"/><path fill="#1e95a8" d="m309.078 384-9.058-44.05 43.558-.923Zm0 0"/><path fill="#1e94a7" d="m259.598 358.39 40.422-18.44 9.058 44.05Zm0 0"/><path fill="#fbfafb" d="m209.266 106.207 7.492-1.644 2.387 7.55Zm0 0"/><path fill="#201533" d="m219.145 112.113-2.387-7.55 5.199 4.968Zm0 0"/><path fill="#201533" d="m216.758 104.563 8.039 1.109-2.84 3.86ZM224.797 105.672l-8.04-1.11 4.641-11.19Zm0 0"/><path fill="#dfdde2" d="m203.54 92.367 11.401.344-5.675 13.496Zm0 0"/><path fill="#231836" d="m214.941 92.71 7.54-7.663-1.083 8.324Zm0 0"/><path fill="#cbc9d0" d="m222.48 85.047-7.539 7.664-4.875-9.434Zm0 0"/><path fill="#3d334d" d="m214.941 92.71-11.402-.343 6.527-9.09Zm0 0"/><path fill="#edecef" d="M216.758 104.563 214.94 92.71l6.457.66Zm0 0"/><path fill="#fafafb" d="m214.941 92.71 1.817 11.853-7.492 1.644Zm0 0"/><path fill="#fefefe" d="m252.484 73.824 7.633 13.86-16.23-3.258Zm0 0"/><path fill="#fefefe" d="m252.484 73.824 16.172 4.02-8.539 9.84Zm0 0"/><path fill="#17a6b7" d="m252.484 73.824 12.04-19.89 4.132 23.91Zm0 0"/><path fill="#291e3b" d="m162.648 259.398-8.214-10.066 11.586-5.383Zm0 0"/><path fill="#201533" d="m173.867 251.805-11.219 7.593 3.372-15.449Zm0 0"/><path fill="#cccbd1" d="m162.648 259.398 11.22-7.593 1.769 10.14Zm0 0"/><path fill="#e9e8eb" d="m162.648 259.398 12.989 2.547-4.028 9.614Zm0 0"/><path fill="#fdfdfd" d="m220.988 259.422-24.5 12.52 1.485-13.852Zm0 0"/><path fill="#1ca8b9" d="m219.422 254.34 1.566 5.082-23.015-1.332Zm0 0"/><path fill="#f7f6f7" d="m196.488 271.941 24.5-12.52-14.441 18.458Zm0 0"/><path fill="#1f1533" d="m83.57 250.723-6.129-17.196 11.891 8.528Zm0 0"/><path fill="#17a6b7" d="m77.441 233.527-.605 18.72-21.29-20.005Zm0 0"/><path fill="#1aa5b6" d="m76.836 252.246-8.86 1.848-12.43-21.852Zm0 0"/><path fill="#fdfdfd" d="m67.977 254.094 8.859-1.848-3.984 9.34Zm0 0"/><path fill="#201533" d="m83.406 265.832-6.57-13.586 6.734-1.523ZM76.836 252.246l6.57 13.586-10.554-4.246Zm0 0"/><path fill="#201533" d="m83.57 250.723-6.734 1.523.605-18.719Zm0 0"/><path fill="#1f97a9" d="M354.496 273.809 384 290.266l-43.328 9.46Zm0 0"/><path fill="#1c9bad" d="m354.496 273.809 20.852-18.16L384 290.265Zm0 0"/><path fill="#1b9eaf" d="m354.496 273.809-1.816-18.211 22.668.05Zm0 0"/><path fill="#f0eff1" d="m375.348 255.648-22.668-.05 10-11.606Zm0 0"/><path fill="#fafafa" d="m352.68 255.598-1.778-2.075 11.778-9.53Zm0 0"/></svg>