<svg xmlns="http://www.w3.org/2000/svg" width="512" height="512" viewBox="0 0 384 384"><path fill="#788a87" d="m104.531 40.613 20.305 46.051-44.254-.445Zm0 0"/><path fill="#788a87" d="m124.836 86.664-24.527 37.883-19.727-38.328Zm0 0"/><path fill="#788a87" d="m100.309 124.547 24.527-37.883 9.953 30.84Zm0 0"/><path fill="#2e222f" d="m185.992 190.645 18.137-7.29 6.191 12.247Zm0 0"/><path fill="#788a87" d="m50.586 129.34 29.996-43.121 19.727 38.328ZM0 308.863l25.105-29.16 3.06 25.875ZM222.16 227.855l3.508-24.152 36.086 9.285ZM308.078 239.27l-50.996 10.851 4.672-37.133ZM104.531 40.613 69.371 0h36.727ZM80.582 86.219l-32.27.683 2.977-37.785Zm0 0"/><path fill="#788a87" d="M48.313 86.902 0 86.422l51.29-37.305ZM48.313 86.902l32.269-.683-29.996 43.12Zm0 0"/><path fill="#788a87" d="m0 86.422 48.313.48 2.273 42.438ZM150.93 53.875l-26.094 32.79-20.305-46.052ZM235.297 31.535l-42.586 3.672L212.246 0ZM257.082 250.121l-34.922-22.266 39.594-14.867Zm0 0"/><path fill="#2e222f" d="m202.195 205.117-16.203-14.472 24.328 4.957Zm0 0"/><path fill="#788a87" d="m225.668 203.703-23.473 1.414 8.125-9.515ZM202.195 205.117l23.473-1.414-3.508 24.152Zm0 0"/><path fill="#2e222f" d="m177.762 155.203 8.23 35.442-36.3.617Zm0 0"/><path fill="#2e222f" d="m185.992 190.645-16.277 21.949-20.024-21.332Zm0 0"/><path fill="#2e222f" d="m169.715 212.594-20.8 12.945.776-34.277Zm0 0"/><path fill="#788a87" d="M0 166.992v-80.57l50.586 42.918ZM43.559 360.719l-22.059-7.13 23.164-1.8Zm0 0"/><path fill="#788a87" d="m21.5 353.59 18.2-10.797 4.964 8.996ZM113.016 160.355l-10.621 17.266-20.434-13.289Zm0 0"/><path fill="#2e222f" d="m118.387 221.84-17.75-18.625 18.695-10.649Zm0 0"/><path fill="#788a87" d="m165.652 346.898 44.926-2.261L194.808 384ZM322.844 165.574l23.062-29.125L384 172.516ZM294.063 136.453l28.78 29.121-45.964 4.719ZM261.754 212.988l-36.086-9.285 16.164-19.394ZM276.879 170.293l-15.125 42.695-19.922-28.68ZM345.414 346.75l-46.234.57 36.543-36.98Zm0 0"/><path fill="#788a87" d="m335.723 310.34 48.277-.45-38.586 36.86ZM345.414 346.75 384 384h-58.898Zm0 0"/><path fill="#788a87" d="M384 237.805v72.086l-37.777-39.817Zm0 0"/><path fill="#788a87" d="m384 309.89-48.277.45 10.5-40.266ZM0 0h69.371L51.29 49.117Zm0 0"/><path fill="#788a87" d="M0 86.422V0l51.29 49.117Zm0 0"/><path fill="#788a87" d="m69.371 0 35.16 40.613-53.242 8.504ZM104.531 40.613 80.582 86.22 51.289 49.117ZM106.098 0h46.558l-48.125 40.613Zm0 0"/><path fill="#788a87" d="M150.93 53.875 104.53 40.613 152.656 0ZM150.93 53.875 152.656 0l40.055 35.207Zm0 0"/><path fill="#788a87" d="m175.309 65.598-24.38-11.723 41.782-18.668ZM192.71 35.207 152.657 0h59.59ZM260.254 0h56.344l-30.043 40.531ZM260.254 0l-24.957 31.535L212.247 0Zm0 0"/><path fill="#778986" d="m235.46 269.602 21.622-19.48-10.496 27.1ZM198.93 224.855l3.265-19.738 19.965 22.738Zm0 0"/><path fill="#2e222f" d="m202.195 205.117-11.164 13.309-5.039-27.781Zm0 0"/><path fill="#778986" d="m198.93 224.855-7.899-6.43 11.164-13.308Zm0 0"/><path fill="#788a87" d="m150.93 53.875 12.156 38.531-38.25-5.742Zm0 0"/><path fill="#2e222f" d="m125.773 169.863 23.918 21.399-30.359 1.304Zm0 0"/><path fill="#2e222f" d="m102.395 177.621 23.378-7.758-6.441 22.703Zm0 0"/><path fill="#2e222f" d="m125.773 169.863-23.378 7.758 10.62-17.266ZM149.691 191.262l-.777 34.277-30.527-3.7Zm0 0"/><path fill="#2e222f" d="m149.691 191.262-31.304 30.578.945-29.274ZM191.031 218.426l-21.316-5.832 16.277-21.95Zm0 0"/><path fill="#788a87" d="m100.309 124.547 12.707 35.808-31.055 3.977Zm0 0"/><path fill="#788a87" d="m50.586 129.34 49.723-4.793-18.348 39.785ZM0 308.863l21.5 44.727L0 384ZM21.5 353.59l22.059 7.129L51.23 384Zm0 0"/><path fill="#2e222f" d="m39.7 342.793 14.347-3.727-9.383 12.723Zm0 0"/><path fill="#788a87" d="M48.102 180.105 0 166.992l50.586-37.652ZM90.375 193.418l-15.594-.68 7.18-28.406Zm0 0"/><path fill="#2e222f" d="m100.637 203.215 1.758-25.594 16.937 14.945Zm0 0"/><path fill="#2e222f" d="m102.395 177.621-1.758 25.594-10.262-9.797Zm0 0"/><path fill="#788a87" d="m102.395 177.621-12.02 15.797-8.414-29.086Zm0 0"/><path fill="#83373d" d="m41.64 243.762-19.081-1.36 8.195-9.976Zm0 0"/><path fill="#778986" d="M89.832 367.574 116.938 384H51.23Zm0 0"/><path fill="#788a87" d="m73.133 360.805 16.699 6.77L51.23 384ZM89.832 367.574l-16.7-6.77 8.231-4.456ZM116.938 384l-27.106-16.426 22.992-16.133ZM163.828 312.586l-38.96 8.98 13.007-22.164Zm0 0"/><path fill="#788986" d="m160.863 293.55 2.965 19.036-25.953-13.184Zm0 0"/><path fill="#788a87" d="M24.723 322.613 0 308.863l28.164-3.285ZM38.133 330.074l1.566 12.719L21.5 353.59ZM124.867 321.566l-12.043 29.875-6.992-19.843ZM322.844 165.574 384 172.516l-43.031 35.332ZM384 172.516l-38.094-36.067L384 105.652Zm0 0"/><path fill="#788a87" d="m345.906 136.45-10.52-24.262L384 105.652ZM245.973 158.54l30.906 11.753-35.047 14.016Zm0 0"/><path fill="#778986" d="m226.066 170.707 19.907-12.168-4.141 25.77Zm0 0"/><path fill="#788a87" d="m384 105.652-48.613 6.535-4.723-37ZM235.297 31.535l-16.531 23.649-26.055-19.977ZM330.664 75.188l-23.906 32.699-24.434-26.188Zm0 0"/><path fill="#75343b" d="m261.898 286.61-17.363-6.372 2.05-3.015Zm0 0"/><path fill="#788a87" d="m257.082 250.121 4.816 36.488-15.312-9.386Zm0 0"/><path fill="#788a87" d="m257.082 250.121 32.914 21.129-28.098 15.36Zm0 0"/><path fill="#788a87" d="m257.082 250.121 50.996-10.851-18.082 31.98ZM299.18 347.32 325.102 384h-46.305Zm0 0"/><path fill="#788a87" d="m325.102 384-25.922-36.68 46.234-.57ZM384 309.89V384l-38.586-37.25Zm0 0"/><path fill="#2e222f" d="m205.594 65.98 2.554 1.801-2.46.86Zm0 0"/><path fill="#788a87" d="m205.594 65.98-30.285-.382 17.402-30.391Zm0 0"/><path fill="#778986" d="M218.766 55.184 205.594 65.98 192.71 35.207Zm0 0"/><path fill="#788a87" d="m208.148 67.781-2.554-1.8 13.172-10.797ZM235.297 31.535 260.254 0l26.3 40.531Zm0 0"/><path fill="#2e222f" d="m212.785 179.844 2.32-14.895 10.961 5.758Zm0 0"/><path fill="#788a87" d="m217.492 182.91 8.574-12.203 15.766 13.602Zm0 0"/><path fill="#2e222f" d="m217.492 182.91-4.707-3.066 13.281-9.137Zm0 0"/><path fill="#788a87" d="m225.668 203.703-8.176-20.793 24.34 1.399Zm0 0"/><path fill="#2e222f" d="m187.27 127.14 18.375 9.024-27.883 19.04Zm0 0"/><path fill="#788a87" d="m124.836 86.664 22.441 20.406-12.488 10.434Zm0 0"/><path fill="#788a87" d="m163.086 92.406-15.809 14.664-22.441-20.406ZM147.277 107.07l4.118 12.715-16.606-2.281Zm0 0"/><path fill="#778986" d="m157.176 110.566-9.899-3.496 15.809-14.664Zm0 0"/><path fill="#788a87" d="m147.277 107.07 9.899 3.496-5.781 9.22Zm0 0"/><path fill="#2e222f" d="m173.043 127.71 14.227-.57-9.508 28.063ZM161.98 132.582l11.063-4.871 4.719 27.492Zm0 0"/><path fill="#788a87" d="m100.309 124.547 29.601 14.078-16.894 21.73Zm0 0"/><path fill="#2e222f" d="m129.91 138.625-4.137 31.238-12.757-9.508ZM146.246 158.441l31.516-3.238-28.07 36.059ZM125.773 169.863l20.473-11.422 3.445 32.82Zm0 0"/><path fill="#788a87" d="M21.5 353.59 51.23 384H0ZM24.723 322.613 21.5 353.59 0 308.863ZM24.723 322.613l13.41 7.461L21.5 353.59ZM52.418 359.586l-8.86 1.133 1.106-8.93ZM52.418 359.586 51.23 384l-7.671-23.281Zm0 0"/><path fill="#2e222f" d="m73.133 360.805-.328-13.703 8.558 9.246ZM72.805 347.102l-18.758-8.036 21.61-5.703Zm0 0"/><path fill="#788a87" d="m48.102 180.105 26.68 12.633-17.356 25.008Zm0 0"/><path fill="#788a87" d="m74.781 192.738-26.68-12.633 33.86-15.773Zm0 0"/><path fill="#788a87" d="m48.102 180.105 2.484-50.765 31.375 34.992ZM24.957 207.434 0 226.699v-59.707ZM24.957 207.434l32.469 10.312-26.672 14.68ZM48.102 180.105l-23.145 27.329L0 166.992Zm0 0"/><path fill="#788a87" d="m57.426 217.746-32.469-10.312 23.145-27.329Zm0 0"/><path fill="#778986" d="m48.035 237.605-6.394 6.157-10.887-11.336Zm0 0"/><path fill="#788a87" d="m57.426 217.746-9.39 19.86-17.282-5.18Zm0 0"/><path fill="#778986" d="m48.035 237.605 9.39-19.859 5.493 33.113Zm0 0"/><path fill="#2e222f" d="M10.762 240.176.02 248.168l-.016-13.152Zm0 0"/><path fill="#2f222f" d="m10.762 240.176 11.797 2.226-8.989 5.63Zm0 0"/><path fill="#788a87" d="m.02 248.168 11.945 11.258L0 308.863ZM0 308.863l11.965-49.437 13.14 20.277Zm0 0"/><path fill="#452732" d="m0 226.7 16.828-.614-16.824 8.93Zm0 0"/><path fill="#2e222f" d="m16.828 226.086-6.066 14.09-10.758-5.16Zm0 0"/><path fill="#2f222f" d="m10.762 240.176 6.066-14.09 5.73 16.316Zm0 0"/><path fill="#7b353c" d="m22.559 242.402-5.73-16.316 13.925 6.34Zm0 0"/><path fill="#788a87" d="m16.828 226.086 8.129-18.652 5.797 24.992Zm0 0"/><path fill="#788a87" d="m24.957 207.434-8.129 18.652L0 226.699Zm0 0"/><path fill="#352330" d="m27.75 253.93-5.191-11.528 19.082 1.36Zm0 0"/><path fill="#788a87" d="m89.832 367.574 1.703-17.367 21.29 1.234Zm0 0"/><path fill="#788a87" d="m91.535 350.207-1.703 17.367-8.469-11.226Zm0 0"/><path fill="#2e222f" d="m72.805 347.102 18.73 3.105-10.172 6.14Zm0 0"/><path fill="#788a87" d="m117.816 297.04 4.512-12.067 15.547 14.43Zm0 0"/><path fill="#788a87" d="m124.867 321.566-7.05-24.527 20.058 2.363ZM165.652 346.898l-52.828 4.543 12.043-29.875Zm0 0"/><path fill="#788a87" d="m165.652 346.898-40.785-25.332 38.961-8.98ZM210.578 344.637l9.606 18.62L194.809 384Zm0 0"/><path fill="#788a87" d="m116.938 384 48.714-37.102L194.81 384ZM112.824 351.441l52.828-4.543L116.938 384ZM229.121 320.969l-18.543 23.668-14.336-28.067Zm0 0"/><path fill="#2e222f" d="m70.23 313.063 5.426 20.3-18.93-12.113Zm0 0"/><path fill="#2e222f" d="m70.23 313.063 15.278 9.324-9.852 10.976Zm0 0"/><path fill="#788a87" d="m112.824 351.441-16.703-16.273 9.711-3.57ZM96.121 335.168l16.703 16.273-21.289-1.234Zm0 0"/><path fill="#788986" d="m166.652 277.895-5.789 15.656-5.965-12.29Zm0 0"/><path fill="#788986" d="m160.863 293.55-18.61-9.398 12.645-2.89Zm0 0"/><path fill="#788a87" d="M25.105 279.703 41.04 293.45l-12.875 12.13Zm0 0"/><path fill="#788a87" d="m41.04 293.45 4.519 20.355-17.395-8.227Zm0 0"/><path fill="#778986" d="m52.277 283.828 3.141-10.355 7.68 9.644Zm0 0"/><path fill="#778986" d="m55.418 273.473 14.82-4.668-7.14 14.312Zm0 0"/><path fill="#788a87" d="m33.926 318.457-9.203 4.156 3.441-17.035Zm0 0"/><path fill="#788a87" d="m45.559 313.805-11.633 4.652-5.762-12.879Zm0 0"/><path fill="#2e222f" d="m75.656 333.363-21.61 5.703 2.68-17.816Zm0 0"/><path fill="#2e222f" d="m38.133 330.074 15.914 8.992-14.348 3.727ZM38.133 330.074l7.426-16.27 11.168 7.446Zm0 0"/><path fill="#2e222f" d="m54.047 339.066-15.914-8.992 18.594-8.824Zm0 0"/><path fill="#788a87" d="m33.926 318.457 4.207 11.617-13.41-7.46Zm0 0"/><path fill="#788a87" d="m38.133 330.074-4.207-11.617 11.633-4.652Zm0 0"/><path fill="#2e222f" d="m72.805 347.102 2.851-13.739 15.88 16.844Zm0 0"/><path fill="#2e222f" d="m75.656 333.363 20.465 1.805-4.586 15.039Zm0 0"/><path fill="#2e222f" d="m96.121 335.168-20.465-1.805 9.852-10.976Zm0 0"/><path fill="#788a87" d="m335.387 112.188 10.52 24.261-24.735-5.656ZM294.063 136.453l-32.606-4.098 16.648-20.703ZM294.063 136.453l27.109-5.66 1.672 34.781ZM330.664 75.188 384 56.246v49.406ZM337.77 35.066 316.598 0H384ZM384 56.246l-46.23-21.18L384 0Zm0 0"/><path fill="#788a87" d="m316.598 0 21.172 35.066-51.215 5.465ZM235.297 31.535l10.781 30.508-27.312-6.86Zm0 0"/><path fill="#788a87" d="m246.078 62.043-10.781-30.508 51.258 8.996ZM308.078 239.27l14.781 39.375-32.863-7.395ZM276.879 170.293l25.473 28.8-40.598 13.895Zm0 0"/><path fill="#788a87" d="m302.352 199.094 5.726 40.176-46.324-26.282Zm0 0"/><path fill="#788a87" d="m322.844 165.574-20.492 33.52-25.473-28.801Zm0 0"/><path fill="#788a87" d="m302.352 199.094 20.492-33.52 18.125 42.274ZM302.352 199.094l38.617 8.754-32.89 31.422Zm0 0"/><path fill="#562c35" d="m244.535 280.238-9.074-10.636 11.125 7.62Zm0 0"/><path fill="#5c2d36" d="m248.277 294.684-3.742-14.446 17.363 6.371Zm0 0"/><path fill="#85383d" d="m248.277 294.684 13.621-8.075 6.372 21.082Zm0 0"/><path fill="#32232f" d="m244.535 280.238 3.742 14.446-15.617-11.508Zm0 0"/><path fill="#7b353b" d="m244.535 280.238-11.875 2.938 2.8-13.574Zm0 0"/><path fill="#6f3239" d="m249.625 322.215 18.645-14.524-9.637 27.114Zm0 0"/><path fill="#372430" d="m243.55 375.016 14.915 8.972-21.348.012Zm0 0"/><path fill="#788a87" d="m270.184 365.625 28.996-18.305L278.797 384Zm0 0"/><path fill="#788986" d="m286.445 289.895-24.547-3.286 28.098-15.359Zm0 0"/><path fill="#778986" d="m261.898 286.61 24.547 3.285-18.175 17.796Zm0 0"/><path fill="#8b393e" d="m286.445 289.895-.496 19.93-17.68-2.134Zm0 0"/><path fill="#2e222f" d="m285.95 309.824-13.528 16.59-4.152-18.723ZM176.375 100.664l-19.2 9.902 5.91-18.16ZM181.523 107.172l-5.148-6.508 5.293-.363Zm0 0"/><path fill="#2e222f" d="m157.176 110.566 19.199-9.902 5.148 6.508Zm0 0"/><path fill="#788a87" d="m175.309 65.598-12.223 26.808-12.156-38.531ZM282.324 81.7l-4.219 29.952-35.261-14.492ZM261.457 132.355 231.73 116.43l11.114-19.27ZM205.98 90.816l36.864 6.344-39.461 3.094ZM278.105 111.652l28.653-3.765-12.695 28.566Zm0 0"/><path fill="#2e222f" d="m182.203 74.16 7.926 16.578-8.461 9.563Zm0 0"/><path fill="#788a87" d="m190.129 90.738-1.969 13.407-6.492-3.844ZM201.86 90.371l-11.731.367 15.559-22.097Zm0 0"/><path fill="#2e222f" d="m182.203 74.16 23.39-8.18.095 2.66Zm0 0"/><path fill="#2e222f" d="m190.129 90.738-7.926-16.578 23.484-5.52Zm0 0"/><path fill="#778986" d="m205.594 65.98-23.39 8.18-6.895-8.562Zm0 0"/><path fill="#973c40" d="m200.293 259.941-11.246 10.997 8.754-20.09Zm0 0"/><path fill="#788986" d="m235.46 269.602-17.538-11.024 39.16-8.457Zm0 0"/><path fill="#778986" d="m197.8 250.848 1.13-25.993 23.23 3Zm0 0"/><path fill="#788986" d="m198.93 224.855-1.13 25.993-18.335-14.196Zm0 0"/><path fill="#788986" d="m191.031 218.426 7.899 6.43-19.465 11.796Zm0 0"/><path fill="#2e222f" d="m132.832 245.805-32.3 10.87 17.855-34.835Zm0 0"/><path fill="#2f222f" d="m132.832 245.805-21.781 25.933-10.52-15.062Zm0 0"/><path fill="#778986" d="m228.95 150.535 17.023 8.004-19.907 12.168Zm0 0"/><path fill="#2e222f" d="m215.105 164.95 13.844-14.415-2.883 20.172ZM201.309 171.43l-15.317 19.215-8.23-35.442ZM201.309 171.43l13.796-6.48-2.32 14.894Zm0 0"/><path fill="#2e222f" d="m201.309 171.43 11.476 8.414-8.656 3.511ZM185.992 190.645l15.317-19.215 2.82 11.925Zm0 0"/><path fill="#788a87" d="m210.32 195.602 7.172-12.692 8.176 20.793Zm0 0"/><path fill="#2e222f" d="m217.492 182.91-7.172 12.692 2.465-15.758Zm0 0"/><path fill="#2e222f" d="m212.785 179.844-2.465 15.758-6.191-12.247ZM205.645 136.164l3.472 6.348-31.355 12.691Zm0 0"/><path fill="#788a87" d="m205.809 118.918-.164 17.246-18.375-9.023ZM192.352 111.582l13.457 7.336-18.54 8.223Zm0 0"/><path fill="#788a87" d="m205.809 118.918-13.457-7.336 11.03-11.328ZM231.73 116.43l-25.921 2.488-2.426-18.664Zm0 0"/><path fill="#2e222f" d="m173.043 127.71 9.91-17.85 4.317 17.28Zm0 0"/><path fill="#788a87" d="m188.16 104.145-5.207 5.714-1.43-2.687ZM182.953 109.86l9.399 1.722-5.082 15.559Zm0 0"/><path fill="#788a87" d="m182.953 109.86 5.207-5.715 4.192 7.437Zm0 0"/><path fill="#2e222f" d="m162.176 120.957-5-10.39 24.347-3.395ZM182.953 109.86l-20.777 11.097 19.347-13.785Zm0 0"/><path fill="#2e222f" d="m162.176 120.957 20.777-11.098-9.91 17.852ZM157.176 110.566l5 10.391-10.781-1.172Zm0 0"/><path fill="#2e222f" d="m162.176 120.957 10.867 6.754-11.063 4.871ZM129.91 138.625l16.336 19.816-20.473 11.422Zm0 0"/><path fill="#788a87" d="m134.79 117.504-4.88 21.121-29.601-14.078Zm0 0"/><path fill="#2e222f" d="m151.746 139.941 10.234-7.359 15.782 22.621ZM146.246 158.441l5.5-18.5 26.016 15.262ZM129.91 138.625l21.836 1.316-5.5 18.5ZM54.047 339.066l1.496 13.555-10.879-.832Zm0 0"/><path fill="#778986" d="m55.543 352.621-3.125 6.965-7.754-7.797Zm0 0"/><path fill="#2e222f" d="m72.805 347.102-17.262 5.52-1.496-13.556Zm0 0"/><path fill="#778986" d="m52.418 359.586 3.125-6.965 17.59 8.184Zm0 0"/><path fill="#2e222f" d="m55.543 352.621 17.262-5.52.328 13.704Zm0 0"/><path fill="#788a87" d="m52.418 359.586 20.715 1.219L51.23 384ZM111.05 271.738l11.278 13.235-14.777 2.82ZM84.43 203.965l-9.649-11.227 15.594.68Zm0 0"/><path fill="#788a87" d="m84.43 203.965-27.004 13.781 17.355-25.008Zm0 0"/><path fill="#2e222f" d="m10.762 240.176 2.808 7.855-13.55.137Zm0 0"/><path fill="#778986" d="m13.57 248.031-1.605 11.395L.02 248.168Zm0 0"/><path fill="#2e222f" d="m22.559 242.402-2.036 8.922-6.953-3.293Zm0 0"/><path fill="#382430" d="m27.75 253.93-7.227-2.606 2.036-8.922Zm0 0"/><path fill="#778986" d="m20.523 251.324-8.558 8.102 1.605-11.395Zm0 0"/><path fill="#352430" d="M43.555 258.324 27.75 253.93l13.89-10.168Zm0 0"/><path fill="#2f222f" d="m27.75 253.93 15.805 4.394-2.614 6.258Zm0 0"/><path fill="#788a87" d="m25.105 279.703-1.73-19.777 17.566 4.656Zm0 0"/><path fill="#778986" d="m23.375 259.926 4.375-5.996 13.191 10.652Zm0 0"/><path fill="#778986" d="m23.375 259.926-2.852-8.602 7.227 2.606Zm0 0"/><path fill="#788a87" d="m11.965 259.426 11.41.5 1.73 19.777Zm0 0"/><path fill="#778986" d="m20.523 251.324 2.852 8.602-11.41-.5Zm0 0"/><path fill="#788a87" d="m122.328 284.973-4.512 12.066-10.265-9.246ZM194.809 384l35.156-11.496L237.117 384Zm0 0"/><path fill="#788a87" d="m220.184 363.258 9.78 9.246L194.81 384Zm0 0"/><path fill="#2f222f" d="m229.965 372.504 13.586 2.512-6.434 8.984Zm0 0"/><path fill="#788a87" d="m188.375 284.887-24.547 27.699-2.965-19.035Zm0 0"/><path fill="#983c40" d="m188.375 284.887.672-13.95 11.105 7.668Zm0 0"/><path fill="#2e222f" d="m70.238 268.805 10.348 15.023-17.488-.71ZM84.727 266.262l-4.141 17.566-10.348-15.023Zm0 0"/><path fill="#2e222f" d="m80.586 283.828 4.14-17.566 11.583 10.664ZM99.844 321.406l-3.723 13.762-10.613-12.781Zm0 0"/><path fill="#778986" d="m96.121 335.168 3.723-13.762 5.988 10.192Zm0 0"/><path fill="#788a87" d="m99.844 321.406 25.023.16-19.035 10.032Zm0 0"/><path fill="#3b2531" d="m152.156 270.578 14.496 7.317-11.754 3.367Zm0 0"/><path fill="#788a87" d="m44.574 276.3-3.535 17.15-15.934-13.747ZM41.04 293.45l3.534-17.15 7.703 7.528Zm0 0"/><path fill="#788a87" d="m44.574 276.3-19.469 3.403 15.836-15.121ZM44.574 276.3l10.844-2.827-3.14 10.355Zm0 0"/><path fill="#778986" d="m54.758 299.121-2.48-15.293 10.82-.71Zm0 0"/><path fill="#788a87" d="m54.758 299.121-13.719-5.672 11.238-9.62ZM41.04 293.45l13.718 5.671-9.2 14.684Zm0 0"/><path fill="#2e222f" d="m45.559 313.805 9.199-14.684 1.969 22.129ZM54.758 299.121l15.472 13.942-13.503 8.187Zm0 0"/><path fill="#788a87" d="m306.758 107.887 23.906-32.7 4.723 37ZM322.844 165.574l-1.672-34.781 24.734 5.656ZM276.879 170.293l-30.906-11.754 15.484-26.184Zm0 0"/><path fill="#788a87" d="m276.879 170.293-15.422-37.938 32.606 4.098ZM330.664 75.188l7.106-40.122L384 56.246ZM246.078 62.043 221.77 72.23l-3.004-17.046ZM313.8 292.68l-27.355-2.785 3.551-18.645ZM322.86 278.645l23.363-8.57-10.5 40.265ZM346.223 270.074l-38.145-30.804 35.965-.676ZM308.078 239.27l38.145 30.804-23.364 8.57Zm0 0"/><path fill="#2e222f" d="m219.383 282.14 13.277 1.036-5.894 5.957Zm0 0"/><path fill="#788a87" d="m213.82 292.945 5.563-10.804 7.383 6.992Zm0 0"/><path fill="#5d2d36" d="m247.266 306.172 1.011-11.488 19.993 13.007Zm0 0"/><path fill="#562c35" d="m249.625 322.215-2.36-16.043 21.005 1.52Zm0 0"/><path fill="#778986" d="m247.266 306.172 2.359 16.043-20.504-1.246Zm0 0"/><path fill="#778986" d="m249.625 322.215-11.918 17.629-8.586-18.875Zm0 0"/><path fill="#552b35" d="m237.707 339.844 20.926-5.04-12.918 16.11Zm0 0"/><path fill="#622f37" d="m237.707 339.844 11.918-17.63 9.008 12.59Zm0 0"/><path fill="#6c3139" d="m237.707 339.844 8.008 11.07-15.645 6.375Zm0 0"/><path fill="#788a87" d="m210.578 344.637 27.129-4.793-7.637 17.445Zm0 0"/><path fill="#778986" d="m229.121 320.969 8.586 18.875-27.129 4.793Zm0 0"/><path fill="#342330" d="m243.55 375.016 16.028-4.059-1.113 13.031Zm0 0"/><path fill="#788a87" d="m258.465 383.988 1.113-13.031L278.797 384Zm0 0"/><path fill="#788a87" d="m259.578 370.957 10.606-5.332L278.797 384Zm0 0"/><path fill="#5a2d36" d="m268.27 307.691 4.152 18.723-13.79 8.39Zm0 0"/><path fill="#2e222f" d="m272.422 326.414-.785 13.293-13.004-4.902ZM177.867 76.125l-1.492 24.54-13.29-8.259Zm0 0"/><path fill="#788a87" d="m175.309 65.598 2.558 10.527-14.781 16.281Zm0 0"/><path fill="#788986" d="m177.867 76.125-2.558-10.527 6.894 8.562Zm0 0"/><path fill="#2e222f" d="m177.867 76.125 4.336-1.965-.535 26.14ZM176.375 100.664l1.492-24.539 3.801 24.176Zm0 0"/><path fill="#788a87" d="m242.844 97.16 35.261 14.492-16.648 20.703ZM231.73 116.43l-28.347-16.176 39.46-3.094ZM231.73 116.43l29.727 15.925-23.7 6.418Zm0 0"/><path fill="#778986" d="m221.77 72.23-13.622-4.449 10.618-12.597Zm0 0"/><path fill="#2e222f" d="m221.77 72.23-15.79 18.586 2.168-23.035Zm0 0"/><path fill="#788a87" d="m205.98 90.816 15.79-18.586 21.074 24.93ZM306.758 107.887l-28.653 3.765 4.22-29.953Zm0 0"/><path fill="#788a87" d="m282.324 81.7 4.23-41.169 44.11 34.657Zm0 0"/><path fill="#788a87" d="m286.555 40.531 51.215-5.465-7.106 40.122Zm0 0"/><path fill="#983d41" d="m189.047 270.938-15.32-18.813 24.074-1.277Zm0 0"/><path fill="#778986" d="m200.152 278.605 19.23 3.536-5.562 10.804Zm0 0"/><path fill="#788a87" d="m257.082 250.121-39.16 8.457 4.238-30.723Zm0 0"/><path fill="#788986" d="m217.922 258.578-20.121-7.73 24.36-22.993ZM197.8 250.848l20.122 7.73-17.629 1.363Zm0 0"/><path fill="#2e222f" d="m172.316 234.492-23.402-8.953 20.8-12.945ZM191.031 218.426l-18.715 16.066-2.601-21.898Zm0 0"/><path fill="#983d41" d="m172.316 234.492 18.715-16.066-11.566 18.226Zm0 0"/><path fill="#2e222f" d="m172.316 234.492-14.058 11.922-9.344-20.875Zm0 0"/><path fill="#788986" d="m158.258 246.414-.414 15.613-8.965-9.265Zm0 0"/><path fill="#788a87" d="m125.441 274.867 16.813 9.285-19.926.82Zm0 0"/><path fill="#372430" d="m142.254 284.152-16.813-9.285 16.887-1.52Zm0 0"/><path fill="#788a87" d="m111.05 271.738 14.391 3.13-3.113 10.105Zm0 0"/><path fill="#2e222f" d="m148.914 225.54-16.082 20.265-14.445-23.965ZM226.336 148.008l2.613 2.527-13.844 14.414Zm0 0"/><path fill="#788a87" d="m245.973 158.54-8.215-19.767 23.699-6.418Zm0 0"/><path fill="#788a87" d="m228.95 150.535 8.808-11.762 8.215 19.766Zm0 0"/><path fill="#788a87" d="m226.336 148.008 11.422-9.235-8.809 11.762ZM223.168 129.07l14.59 9.703-11.422 9.235Zm0 0"/><path fill="#788a87" d="m223.168 129.07 8.562-12.64 6.028 22.343Zm0 0"/><path fill="#2e222f" d="m209.117 142.512 14.051-13.442 3.168 18.938Zm0 0"/><path fill="#2e222f" d="m223.168 129.07-14.05 13.442-3.473-6.348Zm0 0"/><path fill="#788a87" d="m205.809 118.918 17.359 10.152-17.523 7.094Zm0 0"/><path fill="#788a87" d="m223.168 129.07-17.36-10.152 25.922-2.488Zm0 0"/><path fill="#2e222f" d="m207.938 156.559-6.63 14.87-23.546-16.226Zm0 0"/><path fill="#2e222f" d="m209.117 142.512-1.18 14.047-30.175-1.356Zm0 0"/><path fill="#2e222f" d="m226.336 148.008-18.399 8.55 1.18-14.046ZM201.309 171.43l6.629-14.871 7.167 8.39Zm0 0"/><path fill="#2e222f" d="m207.938 156.559 18.398-8.551-11.23 16.941Zm0 0"/><path fill="#778986" d="m188.16 104.145-6.637 3.027.145-6.871Zm0 0"/><path fill="#2e222f" d="m151.746 139.941.668-12.312 9.566 4.953ZM162.176 120.957l-9.762 6.672-1.02-7.844Zm0 0"/><path fill="#2e222f" d="m152.414 127.629 9.762-6.672-.196 11.625ZM96.309 276.926l14.742-5.188-3.5 16.055ZM96.309 276.926l4.222-20.25 10.52 15.062Zm0 0"/><path fill="#2e222f" d="m100.531 256.676-4.222 20.25-11.582-10.664Zm0 0"/><path fill="#788a87" d="m84.43 203.965-4.438 20.12-22.566-6.339Zm0 0"/><path fill="#2e222f" d="m86.238 254.883 14.293 1.793-15.804 9.586ZM89.633 243.297l28.754-21.457-17.856 34.836Zm0 0"/><path fill="#2e222f" d="m79.992 224.086 38.395-2.246-28.754 21.457ZM75.855 255.34l8.872 10.922-14.489 2.543Zm0 0"/><path fill="#803a3f" d="m55.773 253.676-12.218 4.648-1.914-14.562Zm0 0"/><path fill="#788986" d="m48.035 237.605 7.738 16.07-14.132-9.913Zm0 0"/><path fill="#788986" d="m62.918 250.86-7.145 2.816-7.738-16.07Zm0 0"/><path fill="#788a87" d="m124.867 321.566-19.86-20.964 12.81-3.563Zm0 0"/><path fill="#788a87" d="m117.816 297.04-12.808 3.562 2.543-12.809ZM99.844 321.406l5.164-20.804 19.86 20.964ZM230.07 357.29l-.105 15.214-9.781-9.246Zm0 0"/><path fill="#788a87" d="m230.07 357.29-9.886 5.968-9.606-18.621ZM163.828 312.586l32.414 3.984-30.59 30.328Zm0 0"/><path fill="#788986" d="m196.242 316.57 14.336 28.067-44.926 2.261Zm0 0"/><path fill="#788a87" d="m188.375 284.887 7.867 31.683-32.414-3.984Zm0 0"/><path fill="#2e222f" d="m94.71 295.781 1.599-18.855 11.242 10.867Zm0 0"/><path fill="#2e222f" d="m94.71 295.781-14.124-11.953 15.723-6.902ZM105.008 300.602l-10.297-4.82 12.84-7.989Zm0 0"/><path fill="#2e222f" d="m94.71 295.781 10.298 4.82-5.164 20.805Zm0 0"/><path fill="#31222f" d="m142.254 284.152 5.488-6.789 7.156 3.899Zm0 0"/><path fill="#2e222f" d="m147.742 277.363 4.414-6.785 2.742 10.684Zm0 0"/><path fill="#2e222f" d="m152.156 270.578-4.414 6.785-5.414-4.015ZM147.742 277.363l-5.488 6.79.074-10.805Zm0 0"/><path fill="#778986" d="m44.574 276.3 6.012-10.046 4.832 7.219Zm0 0"/><path fill="#2e222f" d="m55.418 273.473-4.832-7.22 19.652 2.552Zm0 0"/><path fill="#3c2732" d="m43.555 258.324 7.03 7.93-9.644-1.672Zm0 0"/><path fill="#778986" d="M50.586 266.254 44.574 276.3l-3.633-11.719Zm0 0"/><path fill="#31232f" d="m50.586 266.254 5.187-12.578 14.465 15.129Zm0 0"/><path fill="#4d2b35" d="m55.773 253.676-5.187 12.578-7.031-7.93Zm0 0"/><path fill="#2e222f" d="m70.281 296.332-15.523 2.79 8.34-16.005Zm0 0"/><path fill="#2e222f" d="m54.758 299.121 15.523-2.789-.05 16.73ZM80.586 283.828 70.28 296.332l-7.183-13.215Zm0 0"/><path fill="#788a87" d="m335.387 112.188-14.215 18.605-14.414-22.906Zm0 0"/><path fill="#788a87" d="m321.172 130.793-27.11 5.66 12.696-28.566Zm0 0"/><path fill="#31222f" d="m286.445 289.895 27.356 2.785-27.852 17.144Zm0 0"/><path fill="#788a87" d="m322.86 278.645-9.06 14.035-23.804-21.43ZM322.86 278.645l12.863 31.695-21.922-17.66Zm0 0"/><path fill="#2e222f" d="m236.23 295.547-9.464-6.414 5.894-5.957Zm0 0"/><path fill="#2e222f" d="m248.277 294.684-12.047.863-3.57-12.371Zm0 0"/><path fill="#33232f" d="m247.266 306.172-11.036-10.625 12.047-.863Zm0 0"/><path fill="#492933" d="m253.922 363.164-11.168 4.879 2.96-17.129Zm0 0"/><path fill="#31222f" d="m242.754 368.043 11.168-4.879 5.656 7.793Zm0 0"/><path fill="#362430" d="m245.715 350.914-2.961 17.129-12.684-10.754Zm0 0"/><path fill="#2f222f" d="m229.965 372.504 12.789-4.461.797 6.973Zm0 0"/><path fill="#342330" d="m230.07 357.29 12.684 10.753-12.79 4.46Zm0 0"/><path fill="#352330" d="m242.754 368.043 16.824 2.914-16.027 4.059Zm0 0"/><path fill="#788a87" d="m260.238 354.594 38.942-7.274-28.996 18.305Zm0 0"/><path fill="#2e222f" d="m271.637 339.707-11.399 14.887-1.605-19.79Zm0 0"/><path fill="#778986" d="m260.238 354.594 9.946 11.031-10.606 5.332Zm0 0"/><path fill="#372430" d="m253.922 363.164 6.316-8.57-.66 16.363Zm0 0"/><path fill="#2f222f" d="m258.633 334.805 1.605 19.789-14.523-3.68Zm0 0"/><path fill="#4b2933" d="m260.238 354.594-6.316 8.57-8.207-12.25Zm0 0"/><path fill="#788a87" d="m296.781 320.941 17.02-28.261 21.922 17.66Zm0 0"/><path fill="#778986" d="m296.781 320.941-24.36 5.473 13.528-16.59Zm0 0"/><path fill="#788a87" d="m313.8 292.68-17.019 28.261-10.832-11.117Zm0 0"/><path fill="#788a87" d="m296.781 320.941 2.399 26.38-26.758-20.907Zm0 0"/><path fill="#778986" d="m272.422 326.414 26.758 20.906-27.543-7.613Zm0 0"/><path fill="#788a87" d="m203.383 100.254-11.031 11.328-4.192-7.437ZM190.129 90.738l13.254 9.516-15.223 3.89ZM201.86 90.371l1.523 9.883-13.254-9.516ZM221.77 72.23l24.308-10.187-3.234 35.117Zm0 0"/><path fill="#2e222f" d="m205.98 90.816-.292-22.175 2.46-.86Zm0 0"/><path fill="#788a87" d="m205.688 68.64.292 22.176-4.12-.445Zm0 0"/><path fill="#983c40" d="m173.727 252.125 8.054 25.027-15.129.743Zm0 0"/><path fill="#788a87" d="m166.652 277.895 15.13-.743-20.919 16.399Zm0 0"/><path fill="#788a87" d="m181.781 277.152 6.594 7.735-27.512 8.664Zm0 0"/><path fill="#983c40" d="m188.375 284.887-6.594-7.735 7.266-6.214Zm0 0"/><path fill="#983c40" d="m181.781 277.152-8.054-25.027 15.32 18.813Zm0 0"/><path fill="#788986" d="m173.727 252.125 5.738-15.473 18.336 14.196Zm0 0"/><path fill="#2f222f" d="m219.383 282.14 1.347-7.574 11.93 8.61Zm0 0"/><path fill="#3a2531" d="m200.152 278.605 20.578-4.039-1.347 7.575Zm0 0"/><path fill="#2f222f" d="m232.66 283.176-11.93-8.61 14.73-4.964Zm0 0"/><path fill="#372430" d="m220.73 274.566-2.808-15.988 17.539 11.024Zm0 0"/><path fill="#983c40" d="m200.152 278.605-11.105-7.668 11.246-10.996Zm0 0"/><path fill="#32232f" d="m152.156 270.578 5.688-8.55 8.808 15.867Zm0 0"/><path fill="#2e222f" d="m139.414 259.969 12.742 10.61-9.828 2.769Zm0 0"/><path fill="#2e222f" d="m125.441 274.867 13.973-14.898 2.914 13.379Zm0 0"/><path fill="#81373d" d="m139.414 259.969-13.973 14.898-14.39-3.129Zm0 0"/><path fill="#2e222f" d="m132.832 245.805 6.582 14.164-28.363 11.77Zm0 0"/><path fill="#2e222f" d="m139.414 259.969-6.582-14.164 16.047 6.957Zm0 0"/><path fill="#788986" d="m157.844 262.027-18.43-2.058 9.465-7.207Zm0 0"/><path fill="#30222f" d="m152.156 270.578-12.742-10.61 18.43 2.06Zm0 0"/><path fill="#788a87" d="m142.254 284.152-4.379 15.25-15.547-14.43Zm0 0"/><path fill="#788986" d="m137.875 299.402 4.379-15.25 18.61 9.399Zm0 0"/><path fill="#2e222f" d="m148.36 244.598-15.528 1.207 16.082-20.266ZM148.36 244.598l9.898 1.816-9.38 6.348Zm0 0"/><path fill="#2e222f" d="m158.258 246.414-9.899-1.816.555-19.059ZM132.832 245.805l15.527-1.207.52 8.164Zm0 0"/><path fill="#788a87" d="m151.395 119.785-4.493 8.39-12.113-10.671ZM152.414 127.629l-5.512.547 4.493-8.39Zm0 0"/><path fill="#788a87" d="m146.902 128.176-16.992 10.449 4.88-21.121Zm0 0"/><path fill="#2e222f" d="m146.902 128.176 4.844 11.765-21.836-1.316Zm0 0"/><path fill="#2e222f" d="m146.902 128.176 5.512-.547-.668 12.312Zm0 0"/><path fill="#788a87" d="m79.992 224.086-3.383 20.223-19.183-26.563Zm0 0"/><path fill="#788a87" d="m57.426 217.746 19.183 26.563-13.691 6.55Zm0 0"/><path fill="#2e222f" d="m82.05 249.918-5.44-5.61 13.023-1.011Zm0 0"/><path fill="#2e222f" d="m76.61 244.309 3.382-20.223 9.64 19.21Zm0 0"/><path fill="#788986" d="m76.61 244.309-.755 11.03-12.937-4.48Zm0 0"/><path fill="#2e222f" d="m75.855 255.34.754-11.031 5.442 5.609Zm0 0"/><path fill="#2f222f" d="m86.238 254.883-4.187-4.965 7.582-6.621ZM86.238 254.883l3.395-11.586 10.898 13.379Zm0 0"/><path fill="#2e222f" d="m100.637 203.215 17.75 18.625-38.395 2.246ZM100.637 203.215l-16.207.75 5.945-10.547Zm0 0"/><path fill="#2e222f" d="m100.637 203.215-20.645 20.87 4.438-20.12Zm0 0"/><path fill="#7a3f45" d="m62.918 250.86 12.937 4.48-5.617 13.465Zm0 0"/><path fill="#76393f" d="m55.773 253.676 7.145-2.817 7.32 17.946Zm0 0"/><path fill="#788a87" d="m197.379 290.844 2.773-12.239 13.668 14.34Zm0 0"/><path fill="#788a87" d="m196.242 316.57 1.137-25.726 16.441 2.101Zm0 0"/><path fill="#788986" d="m188.375 284.887 9.004 5.957-1.137 25.726Zm0 0"/><path fill="#983c40" d="m197.379 290.844-9.004-5.957 11.777-6.282Zm0 0"/><path fill="#2e222f" d="m94.71 295.781-10.8 7.196-3.324-19.149Zm0 0"/><path fill="#2e222f" d="m83.91 302.977-13.629-6.645 10.305-12.504ZM83.91 302.977l15.934 18.43-14.336.98ZM83.91 302.977l10.8-7.196 5.134 25.625Zm0 0"/><path fill="#2e222f" d="m70.23 313.063 13.68-10.086 1.598 19.41Zm0 0"/><path fill="#2e222f" d="m70.281 296.332 13.63 6.645-13.68 10.086Zm0 0"/><path fill="#788a87" d="M340.969 207.848 384 172.516v65.289ZM225.86 304.148l21.406 2.024-18.145 14.797Zm0 0"/><path fill="#778986" d="m225.86 304.148 10.37-8.601 11.036 10.625Zm0 0"/><path fill="#788a87" d="m225.86 304.148 3.261 16.82-32.879-4.398ZM213.82 292.945l12.04 11.203-29.618 12.422Zm0 0"/><path fill="#788a87" d="m225.86 304.148-12.04-11.203 12.946-3.812Zm0 0"/><path fill="#778986" d="m236.23 295.547-10.37 8.601.906-15.015Zm0 0"/><path fill="#788a87" d="m299.18 347.32-2.399-26.379 38.942-10.601Zm0 0"/><path fill="#778986" d="m260.238 354.594 11.399-14.887 27.543 7.613Zm0 0"/><path fill="#788a87" d="m205.98 90.816-2.597 9.438-1.524-9.883ZM246.078 62.043l36.246 19.656-39.48 15.461Zm0 0"/><path fill="#788a87" d="m282.324 81.7-36.246-19.657 40.477-21.512Zm0 0"/><path fill="#983c40" d="m173.727 252.125-15.47-5.71 14.06-11.923Zm0 0"/><path fill="#983d41" d="m179.465 236.652-5.738 15.473-1.41-17.633ZM173.727 252.125l-15.883 9.902.414-15.613Zm0 0"/><path fill="#983c40" d="m157.844 262.027 15.883-9.902-7.075 25.77Zm0 0"/><path fill="#382430" d="m210.148 267.922-9.996 10.683.141-18.664Zm0 0"/><path fill="#412632" d="m217.922 258.578-7.774 9.344-9.855-7.98Zm0 0"/><path fill="#612f37" d="m220.73 274.566-10.582-6.644 7.774-9.344Zm0 0"/><path fill="#352330" d="m210.148 267.922 10.582 6.644-20.578 4.04Zm0 0"/><path fill="#33232f" d="m86.238 254.883-10.383.457 6.196-5.422Zm0 0"/><path fill="#2e222f" d="m75.855 255.34 10.383-.457-1.511 11.379Zm0 0"/><path fill="#788a87" d="m344.043 238.594 39.957-.79-37.777 32.27Zm0 0"/><path fill="#788a87" d="m344.043 238.594-3.074-30.746L384 237.805ZM340.969 207.848l3.074 30.746-35.965.676Zm0 0"/></svg>