<svg xmlns="http://www.w3.org/2000/svg" width="512" height="512" viewBox="0 0 384 384"><path fill="#21b7b2" d="m101.645 112.21-51.813-10.155 50.156-48.559Zm0 0"/><path fill="#24b5b1" d="m131.008 98.86-29.363 13.35-1.657-58.714Zm0 0"/><path fill="#1db9b5" d="m101.645 112.21 29.363-13.35.894 24.343Zm0 0"/><path fill="#2b5b76" d="m205.469 187.184-6.137 18.277-17.91-33.707Zm0 0"/><path fill="#342a55" d="m199.332 205.46 6.137-18.276 1.719 15.906Zm0 0"/><path fill="#1fb3b1" d="m49.832 102.055 35.106 40.414-41.883 14.906Zm0 0"/><path fill="#23b6b2" d="m84.938 142.469-35.106-40.414 51.813 10.156Zm0 0"/><path fill="#30a9a6" d="M43.055 157.375 0 188.453v-55.719Zm0 0"/><path fill="#28a0a2" d="m0 311.195 16.824-35.793 9.567 33.723Zm0 0"/><path fill="#2aa8a7" d="m326.371 0-34.004 36.496L272.695 0Zm0 0"/><path fill="#2eaaa7" d="M99.988 53.496 65.434 0h59.703Zm0 0"/><path fill="#30a9a5" d="m0 63.21 49.832 38.845L0 132.735Zm0 0"/><path fill="#32a9a5" d="M49.832 102.055 0 63.21l41.531-23.242Zm0 0"/><path fill="#2daba8" d="m0 132.734 49.832-30.68-6.777 55.321Zm0 0"/><path fill="#26afac" d="m125.137 0 28.847 34.188-53.996 19.308Zm0 0"/><path fill="#26b4af" d="m147.262 70.762-16.254 28.097-31.02-45.363Zm0 0"/><path fill="#1eb2b0" d="m230.797 240.922-22.594-12.992 20.688-17.11Zm0 0"/><path fill="#1eb0af" d="m264.879 228.676-34.082 12.246-1.906-30.102Zm0 0"/><path fill="#1dacad" d="m230.797 240.922 34.082-12.246-20.996 47.258Zm0 0"/><path fill="#20b1b0" d="m205.727 212.008-6.395-6.547 7.856-2.371Zm0 0"/><path fill="#20b2b0" d="m228.89 210.82-23.163 1.188 1.46-8.918Zm0 0"/><path fill="#1fb3b1" d="m205.727 212.008 23.164-1.188-20.688 17.11Zm0 0"/><path fill="#286980" d="m181.422 171.754.976 40.71-20.289.032Zm0 0"/><path fill="#257d8d" d="m181.422 171.754-19.313 40.742-36.898-40.129Zm0 0"/><path fill="#22a1a5" d="m38.137 359.078-15.75-21.43 21.66 15.036Zm0 0"/><path fill="#1cb6b4" d="m115.246 158.324-10.398 16.262-9.887-6.2Zm0 0"/><path fill="#249fa2" d="m141.031 384.008 57.668-34.403L208.437 384Zm0 0"/><path fill="#23a1a4" d="m16.824 275.402 25.121 10.868-15.554 22.855Zm0 0"/><path fill="#22a2a5" d="m41.945 286.27-25.12-10.868 24.019-11.964Zm0 0"/><path fill="#20aaab" d="M336.09 173.664 359.098 121 384 133.07Zm0 0"/><path fill="#21b0af" d="m251.473 186.8 36.914 8.462-23.508 33.414Zm0 0"/><path fill="#1eafaf" d="m328.715 74.445-50.383 5.434 14.035-43.383Zm0 0"/><path fill="#1db3b2" d="m278.332 79.879-18.191-17.531 32.226-25.852Zm0 0"/><path fill="#20abac" d="m384 192.992-35.84 25.11-12.07-44.438Zm0 0"/><path fill="#1fabac" d="m335.383 243.363 12.777-25.261 9.754 26.39Zm0 0"/><path fill="#22b0ae" d="m228.89 210.82 22.583-24.02 13.406 41.876Zm0 0"/><path fill="#219aa1" d="m347.906 345.879-45.586-7.504 45.864-28.457Zm0 0"/><path fill="#249da2" d="M348.184 309.918 384 327.355l-36.094 18.524Zm0 0"/><path fill="#299da0" d="M347.906 345.879 384 383.996l-74.23.004Zm0 0"/><path fill="#259da2" d="m383.984 270.121.016 57.234-35.816-17.437Zm0 0"/><path fill="#34a4a1" d="M-.004.004 65.434 0 41.53 39.969Zm0 0"/><path fill="#31a7a4" d="M0 63.21-.004.005l41.535 39.965Zm0 0"/><path fill="#2ba9a7" d="M41.531 39.969 65.434 0l34.554 53.496Zm0 0"/><path fill="#2fada8" d="m49.832 102.055-8.3-62.086 58.456 13.527Zm0 0"/><path fill="#27adab" d="m125.137 0 50.117-.004-21.27 34.192Zm0 0"/><path fill="#21b1b0" d="m153.984 34.188-6.722 36.574-47.274-17.266Zm0 0"/><path fill="#27acab" d="m153.984 34.188 21.27-34.192 20.601 36.516Zm0 0"/><path fill="#21b1b0" d="m172.602 58.11-18.618-23.922 41.871 2.324Zm0 0"/><path fill="#1eb1b0" d="m153.984 34.188 18.618 23.921-25.34 12.653Zm0 0"/><path fill="#28aaa9" d="M195.855 36.512 175.254-.004 223.19 0Zm0 0"/><path fill="#1ab8b5" d="m222.84 58.086-12.95 9.336-2.788-6.66Zm0 0"/><path fill="#21acac" d="M223.191 0h49.504l-29.418 40.168Zm0 0"/><path fill="#1cb1b1" d="m232.828 267.137-2.031-26.215 13.086 35.012Zm0 0"/><path fill="#23b1af" d="m205.727 212.008-13.204 5.117 6.809-11.664Zm0 0"/><path fill="#22b1af" d="m208.203 227.93-15.68-10.805 13.204-5.117Zm0 0"/><path fill="#1db6b3" d="m147.262 70.762 11.527 28.656-27.781-.559Zm0 0"/><path fill="#342e57" d="m125.21 172.367-20.362 2.219 10.398-16.262Zm0 0"/><path fill="#1cb1b0" d="m108.895 192.77 16.316-20.403 36.898 40.13Zm0 0"/><path fill="#2a627b" d="m108.895 192.77 53.214 19.726-35.683 19.754Zm0 0"/><path fill="#286980" d="m181.422 171.754 8.02 36.266-7.044 4.445Zm0 0"/><path fill="#342c56" d="m189.441 208.02 3.082 9.105-10.125-4.66Zm0 0"/><path fill="#267588" d="m199.332 205.46-9.89 2.56-8.02-36.266Zm0 0"/><path fill="#342b55" d="m192.523 217.125-3.082-9.105 9.891-2.56Zm0 0"/><path fill="#1fb6b3" d="m122.676 144.617-21.031-32.406 30.257 10.992Zm0 0"/><path fill="#1bbbb7" d="m84.938 142.469 37.738 2.148-7.43 13.707Zm0 0"/><path fill="#1db8b4" d="m84.938 142.469 30.308 15.855-20.285 10.063Zm0 0"/><path fill="#1eb6b3" d="m122.676 144.617-37.738-2.148 16.707-30.258Zm0 0"/><path fill="#24a1a4" d="m0 311.195 22.387 26.453-22.39 46.348Zm0 0"/><path fill="#23a0a3" d="m22.387 337.648 15.75 21.43-38.14 24.918Zm0 0"/><path fill="#2baca8" d="M45.207 203.691 0 188.453l43.055-31.078Zm0 0"/><path fill="#267b8c" d="m108.895 192.77-19.31 3.914 6.345-11.325Zm0 0"/><path fill="#1eb7b3" d="m95.93 185.36-23.903-4.13 22.934-12.843Zm0 0"/><path fill="#1eb6b3" d="M89.586 196.684 72.027 181.23l23.903 4.13Zm0 0"/><path fill="#286e83" d="m108.895 192.77-4.047-18.184 20.363-2.219Zm0 0"/><path fill="#277588" d="m104.848 174.586 4.047 18.184-12.965-7.41Zm0 0"/><path fill="#1cb8b4" d="m104.848 174.586-8.918 10.773-.97-16.972Zm0 0"/><path fill="#fecf7f" d="m38.082 240.723-21.281-1.7 3.312-13.289Zm0 0"/><path fill="#21a6a8" d="m77.34 361.164 19.039 3.25L79.055 384Zm0 0"/><path fill="#1fa5a8" d="m96.379 364.414-19.04-3.25L91.75 349.73Zm0 0"/><path fill="#24a6a7" d="M141.031 384.008 96.38 364.414l16.414-16.969Zm0 0"/><path fill="#23a6a7" d="m79.055 384 17.324-19.586 44.652 19.594Zm0 0"/><path fill="#20a9aa" d="m144.992 334.629-27.969-13.55 12.754-18.712Zm0 0"/><path fill="#21a0a4" d="m141.031 384.008 3.961-49.38 53.707 14.977Zm0 0"/><path fill="#342a55" d="m93.281 292.266-18.668-5.164 13.692-15.235Zm0 0"/><path fill="#21a1a5" d="m37.613 331.7 6.434 20.984-21.66-15.036Zm0 0"/><path fill="#1fabac" d="m117.023 321.078-4.23 26.367-7.04-18.515Zm0 0"/><path fill="#28a6a7" d="M359.098 121 384 68.406v64.664Zm0 0"/><path fill="#23abab" d="m384 192.992-47.91-19.328L384 133.07Zm0 0"/><path fill="#1dacad" d="m359.098 121-23.008 52.664-3.633-30.234Zm0 0"/><path fill="#1fa9ab" d="m359.098 121-30.383-46.555L384 68.406Zm0 0"/><path fill="#22acac" d="m328.715 74.445-36.348-37.949 49.031 4.344Zm0 0"/><path fill="#1ab8b5" d="m228.602 170.348 13.968-10.871 8.903 27.324Zm0 0"/><path fill="#24a8a9" d="m384 68.406-55.285 6.04 12.683-33.606Zm0 0"/><path fill="#26a8a9" d="m341.398 40.84-49.03-4.344L326.37 0Zm0 0"/><path fill="#1cb2b2" d="m243.277 40.168 16.864 22.18-15.774 8.77Zm0 0"/><path fill="#1cb6b4" d="m222.84 58.086 20.437-17.918 1.09 30.95Zm0 0"/><path fill="#1db5b3" d="M243.277 40.168 222.84 58.086l-26.985-21.574Zm0 0"/><path fill="#1cb6b4" d="m222.84 58.086-15.738 2.676-11.247-24.25Zm0 0"/><path fill="#1fadad" d="m307.93 222.676-24.48 31.047-18.571-25.047Zm0 0"/><path fill="#fec07d" d="m335.25 281.313-17.625 1.937-1.535-9.656Zm0 0"/><path fill="#fece7f" d="m335.383 243.363 2.91 13.696-7.813 3.34Zm0 0"/><path fill="#feca7f" d="m338.293 257.059.293 2.37-8.106.97Zm0 0"/><path fill="#fecf7f" d="m338.293 257.059-2.91-13.696 22.531 1.13Zm0 0"/><path fill="#1eabac" d="m348.16 218.102-12.777 25.261-27.453-20.687Zm0 0"/><path fill="#1dacad" d="m335.383 243.363-9.68 14.551-17.773-35.238Zm0 0"/><path fill="#fecf7f" d="m325.703 257.914 9.68-14.55-4.903 17.034Zm0 0"/><path fill="#1eadae" d="m336.09 173.664 12.07 44.438-40.23 4.574Zm0 0"/><path fill="#fecf7f" d="m261.613 287.012-17.726-11.074-.004-.004Zm0 0"/><path fill="#20a5a8" d="m285.77 290.152-15.27 14.059-8.887-17.2Zm0 0"/><path fill="#1dadae" d="m264.879 228.676 18.57 25.047-39.566 22.21Zm0 0"/><path fill="#1eadae" d="m283.45 253.723-21.837 33.289-17.73-11.078Zm0 0"/><path fill="#20a9ab" d="m283.45 253.723 2.32 36.43-24.157-3.141Zm0 0"/><path fill="#259ca1" d="m309.77 384-7.45-45.625 45.586 7.504Zm0 0"/><path fill="#289b9f" d="M384 327.355v56.641l-36.094-38.117Zm0 0"/><path fill="#19bbb8" d="m220.688 70.672 2.152-12.586 2.437 12.871Zm0 0"/><path fill="#1ab9b6" d="m220.688 70.672-10.797-3.25 12.949-9.336Zm0 0"/><path fill="#352a55" d="m209.89 67.422 10.798 3.25-4.262 7.617Zm0 0"/><path fill="#352a55" d="m198.258 67.273 11.633.149-7.055 13.18Zm0 0"/><path fill="#1eb2b1" d="m198.258 67.273-25.656-9.164 23.253-21.597Zm0 0"/><path fill="#1cb5b3" d="m207.102 60.762-8.844 6.511-2.403-30.761Zm0 0"/><path fill="#1bb7b5" d="m209.89 67.422-11.632-.149 8.844-6.511Zm0 0"/><path fill="#20aeae" d="M195.855 36.512 223.191 0l20.086 40.168Zm0 0"/><path fill="#277d8d" d="m126.426 232.25-33.059 20.297-7.199-24.844Zm0 0"/><path fill="#342a55" d="m217.324 182.172-.031-17.86 11.309 6.036Zm0 0"/><path fill="#1ab8b5" d="m225.852 188.14 2.75-17.792 22.87 16.453Zm0 0"/><path fill="#1cb6b4" d="m225.852 188.14-8.528-5.968 11.278-11.824Zm0 0"/><path fill="#1db6b3" d="m228.89 210.82-3.038-22.68 25.62-1.34Zm0 0"/><path fill="#352a55" d="m195.59 132.758 9.887 9.422-9.059 7.476Zm0 0"/><path fill="#1db6b3" d="m131.008 98.86 13.933 17.35-13.039 6.993Zm0 0"/><path fill="#1bb7b4" d="m158.79 99.418-13.849 16.793-13.933-17.352Zm0 0"/><path fill="#1bb6b4" d="m144.941 116.21 3.282 12.458-16.32-5.465Zm0 0"/><path fill="#1ab8b5" d="m153.453 119.516-8.512-3.305 13.848-16.793Zm0 0"/><path fill="#1ab7b4" d="m144.941 116.21 8.512 3.306-5.23 9.152Zm0 0"/><path fill="#352a55" d="m183.344 141.941 12.246-9.183.828 16.898Zm0 0"/><path fill="#303f63" d="m181.422 171.754 1.922-29.813 13.074 7.715Zm0 0"/><path fill="#304164" d="m122.676 144.617 3.183 11.547-10.613 2.16Zm0 0"/><path fill="#342d57" d="m125.86 156.164-.65 16.203-9.964-14.043Zm0 0"/><path fill="#23a1a4" d="m26.39 309.125-4.003 28.523L0 311.195Zm0 0"/><path fill="#22a1a5" d="m26.39 309.125 11.223 22.574-15.226 5.95Zm0 0"/><path fill="#22a5a7" d="m52.008 367.309-13.871-8.23 5.91-6.395Zm0 0"/><path fill="#23a4a6" d="M52.008 367.309-.004 383.996l38.14-24.918Zm0 0"/><path fill="#352a55" d="m77.34 361.164-5.09-18.289 19.5 6.855Zm0 0"/><path fill="#30516e" d="m93.367 252.547 33.059-20.297-16.559 40.598Zm0 0"/><path fill="#27b1ad" d="m72.027 181.23-26.82 22.461-2.152-46.316Zm0 0"/><path fill="#23b6b1" d="m72.027 181.23 12.91-38.761 10.024 25.918Zm0 0"/><path fill="#20b3b0" d="m84.938 142.469-12.91 38.761-28.973-23.855Zm0 0"/><path fill="#2aaba8" d="m20.113 225.734-20.117 2.407L0 188.453Zm0 0"/><path fill="#2caaa7" d="m45.207 203.691-25.094 22.043L0 188.454Zm0 0"/><path fill="#24aeac" d="m52.418 232.82-14.336 7.903-17.969-14.989Zm0 0"/><path fill="#25aeab" d="m45.207 203.691 7.211 29.13-32.305-7.087Zm0 0"/><path fill="#fecf7f" d="m-.004 246.906 16.805-7.883-2.668 8.899Zm0 0"/><path fill="#23a2a5" d="m-.004 246.906 16.828 28.496L0 311.195Zm0 0"/><path fill="#fdcf7f" d="m-.004 228.14 16.805 10.883-16.805 7.883Zm0 0"/><path fill="#fecf7f" d="m20.113 225.734-3.312 13.29L-.004 228.14ZM24.117 251.324l-7.316-12.3 21.281 1.699Zm0 0"/><path fill="#20a6a8" d="M96.379 364.414 91.75 349.73l21.043-2.285Zm0 0"/><path fill="#20a4a7" d="m144.992 334.629-3.96 49.379-28.239-36.563Zm0 0"/><path fill="#20a9aa" d="m144.992 334.629-32.199 12.816 4.23-26.367Zm0 0"/><path fill="#352a55" d="m62.121 316.672 22.598 12.95-12.469 13.253Zm0 0"/><path fill="#20a5a7" d="m112.793 347.445-15.652-15.242 8.613-3.273Zm0 0"/><path fill="#20a4a7" d="m97.14 332.203 15.653 15.242-21.043 2.285Zm0 0"/><path fill="#fbcd7f" d="m166.504 262.953 17.879 14.504-38.762 5.879Zm0 0"/><path fill="#1ea6a9" d="m184.383 277.457-13.793 32.387-24.969-26.508Zm0 0"/><path fill="#20a6a8" d="m170.59 309.844-40.813-7.477 15.844-19.031Zm0 0"/><path fill="#20a3a7" d="m197.258 292.934-26.668 16.91 13.793-32.387Zm0 0"/><path fill="#20a6a8" d="m129.777 302.367 40.813 7.477-25.598 24.785Zm0 0"/><path fill="#22a1a4" d="m41.945 286.27 2.266 17.988-17.82 4.867Zm0 0"/><path fill="#22a1a5" d="m44.21 304.258 2.74 8.582-20.56-3.715Zm0 0"/><path fill="#fcce7f" d="m67.441 272.063-11.015.296 6.328-9.793Zm0 0"/><path fill="#20a8aa" d="m41.945 286.27 14.48-13.91 5.141 15.882Zm0 0"/><path fill="#20a8a9" d="m56.426 272.36 11.015-.298-5.875 16.18Zm0 0"/><path fill="#fecf7f" d="m74.383 267.102-6.942 4.96-4.687-9.496Zm0 0"/><path fill="#352e57" d="m74.383 267.102.23 20-7.172-15.04Zm0 0"/><path fill="#342f58" d="m74.613 287.102-.23-20 13.922 4.765Zm0 0"/><path fill="#352a55" d="m72.25 342.875-19.164-3.05 9.035-23.153Zm0 0"/><path fill="#59495d" d="m37.613 331.7 15.473 8.124-9.04 12.86Zm0 0"/><path fill="#3d3258" d="m37.613 331.7 9.336-18.86 15.172 3.832Zm0 0"/><path fill="#3c3056" d="M53.086 339.824 37.613 331.7l24.508-15.027Zm0 0"/><path fill="#21a3a6" d="m37.613 331.7-11.222-22.575 20.558 3.715Zm0 0"/><path fill="#352a55" d="m72.25 342.875 12.469-13.254 7.031 20.11Zm0 0"/><path fill="#352c56" d="m84.719 329.621 12.422 2.582-5.391 17.527Zm0 0"/><path fill="#2aa" d="m326.727 115.621 32.37 5.379-26.64 22.43Zm0 0"/><path fill="#22a9ab" d="m326.727 115.621 1.988-41.176L359.098 121Zm0 0"/><path fill="#1db0b0" d="M281.902 156.227 256.16 124.59l35.758 3.933Zm0 0"/><path fill="#1eb1b0" d="m291.918 128.523 15.484 3.895-25.5 23.809Zm0 0"/><path fill="#1dafaf" d="m307.402 132.418 28.688 41.246-54.188-17.437Zm0 0"/><path fill="#1bb9b6" d="m256.16 124.59-13.289 13.441 1.121-15.523Zm0 0"/><path fill="#1ab8b6" d="m281.902 156.227-39.03-18.196 13.288-13.441Zm0 0"/><path fill="#2ba9a7" d="M341.398 40.84 383.992-.008 384 68.406Zm0 0"/><path fill="#1db3b2" d="m243.277 40.168 49.09-3.672-32.226 25.852Zm0 0"/><path fill="#25abab" d="m272.695 0 19.672 36.496-49.09 3.672Zm0 0"/><path fill="#1ab8b6" d="m222.84 58.086 21.527 13.031-19.09-.16Zm0 0"/><path fill="#1fa7a9" d="m283.45 253.723 42.253 4.191-9.613 15.68Zm0 0"/><path fill="#1fabac" d="m307.93 222.676 17.773 35.238-42.254-4.191Zm0 0"/><path fill="#1fa9ab" d="m283.45 253.723 32.64 19.87-30.32 16.56Zm0 0"/><path fill="#29a8a7" d="m384 192.992-.02 33.82-35.82-8.71Zm0 0"/><path fill="#22a7a9" d="m348.16 218.102 35.82 8.71-26.066 17.68Zm0 0"/><path fill="#249ba0" d="m335.25 281.313 30.867-27.489-17.933 56.094Zm0 0"/><path fill="#21adad" d="m288.387 195.262 19.543 27.414-43.051 6Zm0 0"/><path fill="#20adae" d="m288.387 195.262 47.703-21.598-28.16 49.012Zm0 0"/><path fill="#1dafaf" d="m336.09 173.664-47.703 21.598-6.485-39.035Zm0 0"/><path fill="#fecf7f" d="m243.887 275.938-11.059-8.801 11.055 8.797ZM243.227 300.613l.66-24.675 17.726 11.074ZM270.5 304.21l-27.273-3.597 18.386-13.601Zm0 0"/><path fill="#feca7f" d="m243.227 300.613 27.273 3.598-20.992 15.574Zm0 0"/><path fill="#fecf7f" d="m243.887 275.938-.66 24.675-15.176-24.27Zm0 0"/><path fill="#fdcf7f" d="m243.887 275.938-15.836.406 4.777-9.207Zm0 0"/><path fill="#fec37e" d="m248.035 363.688 10.223 20.316-23.078.012Zm0 0"/><path fill="#239ca2" d="m258.246 360.063 44.074-21.688L309.77 384Zm0 0"/><path fill="#239ba1" d="m348.184 309.918-47.97-7.84 35.036-20.765Zm0 0"/><path fill="#229ca2" d="m302.32 338.375-2.105-36.297 47.969 7.84Zm0 0"/><path fill="#febd7d" d="m270.5 304.21 11.355 14.095-32.347 1.48Zm0 0"/><path fill="#fecd7f" d="m281.855 318.305-8.433 8.68-23.914-7.2Zm0 0"/><path fill="#342a55" d="m171.563 103.086-18.11 16.43 5.336-20.098Zm0 0"/><path fill="#342a55" d="m180.965 113.313-9.403-10.227 15.165-7.871Zm0 0"/><path fill="#342a55" d="m153.453 119.516 18.11-16.43 9.402 10.227Zm0 0"/><path fill="#1bb4b4" d="m177.113 77.973-11.539 1.117 7.028-20.98Zm0 0"/><path fill="#1bb4b3" d="m172.602 58.11-7.028 20.98-18.312-8.328Zm0 0"/><path fill="#1cb6b4" d="m165.574 79.09-6.785 20.328-11.527-28.656Zm0 0"/><path fill="#ffd080" d="m237.285 105.031 6.707 17.477-17.195-7.305Zm0 0"/><path fill="#fecf7f" d="m258.535 108.281-2.375 16.309-12.168-2.082Zm0 0"/><path fill="#ffd080" d="m269.785 92.54-11.25 15.741-14.808-21.707Zm0 0"/><path fill="#fecf7f" d="m243.992 122.508-14.285-.266-2.91-7.039Zm0 0"/><path fill="#1cb4b2" d="m242.871 138.031-13.164-15.789 14.285.266Zm0 0"/><path fill="#ffd080" d="m222.16 79.355 21.567 7.22-20.516 5.234ZM299.535 112.664l-41-4.383 11.25-15.742ZM258.535 108.281l41 4.383-7.617 15.86Zm0 0"/><path fill="#fecf7f" d="m256.16 124.59 2.375-16.309 33.383 20.242Zm0 0"/><path fill="#352a55" d="m177.113 77.973 17.989 10.476-8.375 6.766Zm0 0"/><path fill="#ffd080" d="m195.102 88.45-.18 7.968-8.195-1.203ZM205.832 88.84l-10.73-.39 7.734-7.848Zm0 0"/><path fill="#352a55" d="m187.195 71.621 11.063-4.348 4.578 13.329Zm0 0"/><path fill="#352b55" d="m195.102 88.45-7.907-16.829 15.64 8.98Zm0 0"/><path fill="#342b55" d="m187.195 71.621 7.907 16.828-17.989-10.476Zm0 0"/><path fill="#1bafb0" d="m187.195 71.621-10.082 6.352-4.511-19.864Zm0 0"/><path fill="#1bb4b3" d="m198.258 67.273-11.063 4.348-14.593-13.512Zm0 0"/><path fill="#d0aa76" d="m198.504 258.797-2.23 18.324-9.438-25.469Zm0 0"/><path fill="#1cb1b1" d="m232.828 267.137-16.723-9.035 14.692-17.18Zm0 0"/><path fill="#21afae" d="m200.563 248.504-10.024-11.867 17.664-8.707Zm0 0"/><path fill="#facd7f" d="m200.563 248.504-2.06 10.293-11.667-7.145Zm0 0"/><path fill="#1bb4b2" d="m190.54 236.637-3.704 15.015-10.367-3.636Zm0 0"/><path fill="#1dafaf" d="m200.563 248.504-13.727 3.148 3.703-15.015Zm0 0"/><path fill="#1cb4b3" d="m180.27 228.586 10.27 8.05-14.071 11.38Zm0 0"/><path fill="#333059" d="m182.398 212.465-2.128 16.12-18.16-16.089Zm0 0"/><path fill="#352a55" d="m126.426 232.25 8.851 27.145-25.41 13.453Zm0 0"/><path fill="#19bcb8" d="m228.426 160.086 14.144-.61-13.968 10.872Zm0 0"/><path fill="#342a55" d="m217.293 164.313 11.133-4.227.176 10.262Zm0 0"/><path fill="#342e57" d="m206.152 167.309-24.73 4.445 14.996-22.098Zm0 0"/><path fill="#342a55" d="m206.152 167.309 11.141-2.996.031 17.859Zm0 0"/><path fill="#342a55" d="m206.152 167.309 11.172 14.863-11.855 5.012Zm0 0"/><path fill="#2d506f" d="m181.422 171.754 24.73-4.445-.683 19.875Zm0 0"/><path fill="#1fb2b1" d="m212.598 192.758 16.293 18.062-21.703-7.73Zm0 0"/><path fill="#1fb2b1" d="m212.598 192.758 13.254-4.617 3.039 22.68Zm0 0"/><path fill="#1cb5b3" d="m225.852 188.14-13.254 4.618 4.726-10.586Zm0 0"/><path fill="#342a55" d="m205.469 187.184 7.129 5.574-5.41 10.332Zm0 0"/><path fill="#342a55" d="m217.324 182.172-4.726 10.586-7.13-5.574ZM205.477 142.18l3.48 11.468-12.539-3.992Zm0 0"/><path fill="#ffd080" d="m208.61 129.98-3.133 12.2-9.887-9.422ZM199.945 120.59l8.664 9.39-13.02 2.778ZM208.61 129.98l-8.665-9.39 15.555-.344Zm0 0"/><path fill="#fecf7f" d="m219.012 123.738-10.403 6.242 6.891-9.734Zm0 0"/><path fill="#ffd080" d="m199.945 120.59-9.824-4.176 5.145-9.512Zm0 0"/><path fill="#352a55" d="m183.344 141.941 3.043-18.254 9.203 9.07Zm0 0"/><path fill="#ffd080" d="m190.121 116.414-3.734 7.273-5.422-10.374ZM186.387 123.688l13.558-3.098-4.355 12.168Zm0 0"/><path fill="#ffd080" d="m186.387 123.688 3.734-7.274 9.824 4.176Zm0 0"/><path fill="#342a55" d="m164.23 134.508-10.777-14.992 27.512-6.204Zm0 0"/><path fill="#342a55" d="m186.387 123.688-22.157 10.82 16.735-21.196ZM164.23 134.508l22.157-10.82-3.043 18.253Zm0 0"/><path fill="#342b56" d="m153.453 119.516 10.777 14.992-16.007-5.84Zm0 0"/><path fill="#342b55" d="m164.23 134.508 19.114 7.433-1.922 29.813Zm0 0"/><path fill="#342c56" d="m125.86 156.164 22.6-10.355-23.25 26.558Zm0 0"/><path fill="#304265" d="m148.46 145.809-22.6 10.355-3.184-11.547Zm0 0"/><path fill="#303e63" d="m125.21 172.367 23.25-26.558 32.962 25.945Zm0 0"/><path fill="#392d55" d="m53.086 339.824 3.305 13.504-12.344-.644Zm0 0"/><path fill="#22a5a7" d="m56.39 353.328-4.382 13.98-7.961-14.624Zm0 0"/><path fill="#413457" d="m72.25 342.875-15.86 10.453-3.304-13.504Zm0 0"/><path fill="#20a4a7" d="m52.008 367.309 4.383-13.98 20.949 7.835Zm0 0"/><path fill="#352a55" d="m56.39 353.328 15.86-10.453 5.09 18.29Zm0 0"/><path fill="#24a4a6" d="m-.004 383.996 52.012-16.687L79.055 384Zm0 0"/><path fill="#20a4a7" d="m52.008 367.309 25.332-6.145L79.055 384Zm0 0"/><path fill="#23b0ad" d="m125.598 273.02 1.02 11.8-16.583-1.547Zm0 0"/><path fill="#1fb6b2" d="m79.574 224.223-7.547-42.993 17.559 15.454Zm0 0"/><path fill="#1fb5b2" d="M79.574 224.223 45.207 203.69l26.82-22.46Zm0 0"/><path fill="#289fa1" d="M16.824 275.402-.004 246.906l14.137 1.016Zm0 0"/><path fill="#fecf7f" d="m24.117 251.324-9.984-3.402 2.668-8.899ZM37.582 251.715l-13.465-.39 13.965-10.602Zm0 0"/><path fill="#fecf7f" d="m24.117 251.324 13.465.39 3.262 11.724Zm0 0"/><path fill="#25a0a3" d="m16.824 275.402 7.293-24.078 16.727 12.113Zm0 0"/><path fill="#279fa2" d="m16.824 275.402-2.691-27.48 9.984 3.402Zm0 0"/><path fill="#20afae" d="m126.617 284.82 3.16 17.547-19.742-19.094Zm0 0"/><path fill="#229fa3" d="m208.438 384 20.55-24.156 6.192 24.172Zm0 0"/><path fill="#fecd7f" d="m228.988 359.844 19.047 3.844-12.855 20.328Zm0 0"/><path fill="#f8ca7e" d="m196.273 277.121.985 15.813-12.875-15.477Zm0 0"/><path fill="#372c55" d="m67.441 272.063 7.172 15.039-13.047 1.14Zm0 0"/><path fill="#352a55" d="m100.203 319.465-3.062 12.738-12.422-2.582Zm0 0"/><path fill="#1ea7a9" d="m97.14 332.203 3.063-12.738 5.55 9.465Zm0 0"/><path fill="#1ea9ab" d="m100.203 319.465 16.82 1.613-11.27 7.852Zm0 0"/><path fill="#c0a175" d="m143.563 269.836 22.94-6.883-20.882 20.383Zm0 0"/><path fill="#1fa6a9" d="m51.996 303.523-10.05-17.253 19.62 1.972Zm0 0"/><path fill="#21a3a6" d="m51.996 303.523-7.785.735-2.266-17.988Zm0 0"/><path fill="#20a3a6" d="m44.21 304.258 7.786-.735-5.047 9.317Zm0 0"/><path fill="#3c3056" d="m46.95 312.84 5.046-9.317 10.125 13.149Zm0 0"/><path fill="#352a55" d="m81.559 259.043 11.808-6.496-5.062 19.32Zm0 0"/><path fill="#1faead" d="m307.336 94.836-29.004-14.957 50.383-5.434Zm0 0"/><path fill="#21abab" d="m326.727 115.621-19.391-20.785 21.379-20.39Zm0 0"/><path fill="#ffd080" d="m278.332 79.879 29.004 14.957-37.55-2.297Zm0 0"/><path fill="#fecf7f" d="m307.336 94.836 19.39 20.785-27.19-2.957Zm0 0"/><path fill="#ffd080" d="m307.336 94.836-7.8 17.828-29.75-20.125Zm0 0"/><path fill="#1dacae" d="m307.402 132.418 25.055 11.012 3.633 30.234Zm0 0"/><path fill="#1ab5b3" d="m281.902 156.227-39.332 3.25.301-21.446Zm0 0"/><path fill="#1bb8b6" d="m242.57 159.477 39.332-3.25-30.43 30.574Zm0 0"/><path fill="#1eb1b0" d="m251.473 186.8 30.43-30.573 6.484 39.035Zm0 0"/><path fill="#30a5a4" d="M383.992-.008 341.398 40.84 326.371 0Zm0 0"/><path fill="#fed080" d="m244.367 71.117-.64 15.457-18.45-15.617Zm0 0"/><path fill="#fece7f" d="m325.703 257.914 4.777 2.484-14.39 13.196Zm0 0"/><path fill="#fecc7f" d="m330.48 260.398 4.77 20.914-19.16-7.718Zm0 0"/><path fill="#fecf7f" d="m289 295.828-18.5 8.383 15.27-14.059Zm0 0"/><path fill="#fe7974" d="m335.25 281.313 3.336-21.883 27.531-5.606Zm0 0"/><path fill="#fecd7f" d="m330.48 260.398 8.106-.968-3.336 21.882Zm0 0"/><path fill="#1fa3a7" d="m249.508 319.785-12.934 21.832-20.07-26.793Zm0 0"/><path fill="#fecf7f" d="m236.574 341.617 12.934-21.832-.672 28.246Zm0 0"/><path fill="#feca7f" d="m236.574 341.617 12.262 6.414-19.848 11.813Zm0 0"/><path fill="#20a1a5" d="m198.7 349.605 37.874-7.988-7.586 18.227Zm0 0"/><path fill="#20a2a6" d="m216.504 314.824 20.07 26.793-37.875 7.988Zm0 0"/><path fill="#fec87e" d="m248.035 363.688 10.211-3.625.012 23.94Zm0 0"/><path fill="#269da1" d="m258.258 384.004-.012-23.942L309.77 384Zm0 0"/><path fill="#fea87a" d="m300.215 302.078 17.41-18.828 17.625-1.937Zm0 0"/><path fill="#342b56" d="m170.82 85.742.743 17.344-12.774-3.668Zm0 0"/><path fill="#19bbb7" d="m165.574 79.09 5.246 6.652-12.03 13.676Zm0 0"/><path fill="#19bab7" d="m170.82 85.742-5.246-6.652 11.54-1.117Zm0 0"/><path fill="#333059" d="m170.82 85.742 6.293-7.77 9.614 17.243Zm0 0"/><path fill="#342b55" d="m171.563 103.086-.743-17.344 15.907 9.473Zm0 0"/><path fill="#ffd080" d="m243.727 86.574-6.442 18.457-14.074-13.222ZM258.535 108.281l-21.25-3.25 6.442-18.457ZM237.285 105.031l21.25 3.25-14.543 14.227Zm0 0"/><path fill="#342a55" d="m222.992 119.633-3.148-5.078 6.953.648Zm0 0"/><path fill="#342a55" d="m229.707 122.242-6.715-2.61 3.805-4.429ZM219.844 114.555l3.148 5.078-7.492.613Zm0 0"/><path fill="#342a55" d="m222.992 119.633-3.98 4.105-3.512-3.492Zm0 0"/><path fill="#1ab8b5" d="m224.598 123.582 5.109-1.34 13.164 15.79Zm0 0"/><path fill="#352a55" d="m222.992 119.633 1.606 3.949-5.586.156Zm0 0"/><path fill="#342a55" d="m224.598 123.582-1.606-3.95 6.715 2.61ZM222.16 79.355l-1.472-8.683 4.59.285Zm0 0"/><path fill="#fed080" d="m243.727 86.574-21.567-7.219 3.117-8.398Zm0 0"/><path fill="#342a55" d="m220.688 70.672 1.472 8.683-5.734-1.066ZM215.844 85.55l6.316-6.195 1.05 12.454Zm0 0"/><path fill="#342a55" d="m222.16 79.355-6.316 6.196.582-7.262Zm0 0"/><path fill="#1db1b1" d="m230.797 240.922-30.234 7.582 7.64-20.574Zm0 0"/><path fill="#1cb1b1" d="m216.105 258.102-15.542-9.598 30.234-7.582Zm0 0"/><path fill="#2d5270" d="m167.875 237.684-13.574 9.824 7.808-35.012Zm0 0"/><path fill="#313d62" d="m180.27 228.586-12.395 9.098-5.766-25.188Zm0 0"/><path fill="#342d57" d="m167.875 237.684 12.395-9.098-3.801 19.43Zm0 0"/><path fill="#22afae" d="m190.54 236.637 1.983-19.512 15.68 10.805Zm0 0"/><path fill="#1eb4b2" d="m180.27 228.586 12.253-11.461-1.984 19.512Zm0 0"/><path fill="#304064" d="m192.523 217.125-12.253 11.46 2.128-16.12Zm0 0"/><path fill="#21aaaa" d="m125.598 273.02 20.023 10.316-19.004 1.484Zm0 0"/><path fill="#fecf7f" d="m145.621 283.336-20.023-10.316 17.965-3.184Zm0 0"/><path fill="#fdce7f" d="m135.277 259.395-9.68 13.625-15.73-.172Zm0 0"/><path fill="#2c5572" d="m162.11 212.496-7.81 35.012-27.874-15.258Zm0 0"/><path fill="#342c56" d="m138.238 257.527-2.96 1.868-8.852-27.145Zm0 0"/><path fill="#342a55" d="m217.922 153.04 10.504 7.046-11.133 4.226ZM217.922 153.04l-8.965.608 3.984-6.8Zm0 0"/><path fill="#19b9b6" d="m226.555 144.984-1.957-21.402 18.273 14.45Zm0 0"/><path fill="#19b9b6" d="m242.57 159.477-16.015-14.493 16.316-6.953Zm0 0"/><path fill="#19bbb8" d="m228.426 160.086-1.871-15.102 16.015 14.493Zm0 0"/><path fill="#fecf7f" d="m226.555 144.984-8.633 8.055-4.98-6.191Zm0 0"/><path fill="#fed080" d="m217.922 153.04 8.633-8.056 1.87 15.102Zm0 0"/><path fill="#fed080" d="m219.012 123.738 7.543 21.246-13.614 1.864Zm0 0"/><path fill="#fecf7f" d="m224.598 123.582 1.957 21.402-7.543-21.246Zm0 0"/><path fill="#342a55" d="m212.941 146.848-3.984 6.8-3.48-11.468Zm0 0"/><path fill="#ffd080" d="m208.61 129.98 4.331 16.868-7.464-4.668Zm0 0"/><path fill="#ffd080" d="m212.941 146.848-4.332-16.868 10.403-6.242Zm0 0"/><path fill="#342a55" d="m208.957 153.648-2.805 13.66-9.734-17.652ZM206.152 167.309l2.805-13.66 8.336 10.664ZM208.957 153.648l8.965-.609-.629 11.274Zm0 0"/><path fill="#ffd080" d="m194.922 96.418.344 10.484-8.54-11.687Zm0 0"/><path fill="#ffd080" d="m195.266 106.902-14.301 6.41 5.762-18.097Zm0 0"/><path fill="#ffd080" d="m195.266 106.902-5.145 9.512-9.156-3.102Zm0 0"/><path fill="#342c56" d="m164.23 134.508-15.77 11.3-.237-17.14Zm0 0"/><path fill="#342a55" d="m148.46 145.809 15.77-11.301 17.192 37.246Zm0 0"/><path fill="#f4c87e" d="m109.867 272.848 15.73.172-15.562 10.253Zm0 0"/><path fill="#34345b" d="m109.867 272.848.168 10.425-16.754 8.993Zm0 0"/><path fill="#352a55" d="m109.867 272.848-16.586 19.418-4.976-20.399Zm0 0"/><path fill="#362b55" d="m93.367 252.547 16.5 20.3-21.562-.98Zm0 0"/><path fill="#1da3a7" d="m86.168 227.703 22.727-34.933 17.53 39.48Zm0 0"/><path fill="#32365d" d="m79.574 224.223 6.594 3.48-5.469 1.027Zm0 0"/><path fill="#fecf7f" d="m73.71 259.184.673 7.918-11.63-4.536Zm0 0"/><path fill="#facc7f" d="m49.227 249.21-11.645 2.505.5-10.992Zm0 0"/><path fill="#1db0af" d="m52.418 232.82-3.191 16.39-11.145-8.487Zm0 0"/><path fill="#1facac" d="m117.023 321.078-11.648-21.469 24.402 2.758Zm0 0"/><path fill="#23b0ae" d="m129.777 302.367-24.402-2.758 4.66-16.336Zm0 0"/><path fill="#1dacad" d="m100.203 319.465 5.172-19.856 11.648 21.47Zm0 0"/><path fill="#219fa3" d="M228.988 359.844 208.438 384l-9.739-34.395Zm0 0"/><path fill="#21a1a5" d="m170.59 309.844 26.668-16.91 19.246 21.89Zm0 0"/><path fill="#21a2a6" d="m144.992 334.629 25.598-24.785 28.11 39.761Zm0 0"/><path fill="#22a1a5" d="m198.7 349.605-28.11-39.761 45.914 4.98Zm0 0"/><path fill="#332f58" d="m105.375 299.61-12.094-7.344 16.754-8.993Zm0 0"/><path fill="#342a55" d="m93.281 292.266 12.094 7.343-5.172 19.856Zm0 0"/><path fill="#21a6a8" d="m41.945 286.27-1.101-22.832 15.582 8.921Zm0 0"/><path fill="#fecf7f" d="m56.426 272.36-15.582-8.923 21.91-.87Zm0 0"/><path fill="#fecf7f" d="m40.844 263.438 8.383-14.227 13.527 13.355ZM49.227 249.21l-8.383 14.227-3.262-11.722Zm0 0"/><path fill="#3a2e56" d="m62.121 316.672-10.125-13.149 9.57-15.28Zm0 0"/><path fill="#4b3c59" d="m74.613 287.102-12.492 29.57-.555-28.43Zm0 0"/><path fill="#352a55" d="m74.383 267.102 7.176-8.059 6.746 12.824Zm0 0"/><path fill="#352a55" d="m73.71 259.184 7.849-.141-7.176 8.059Zm0 0"/><path fill="#fecf7f" d="m308.57 126.36 23.887 17.07-25.055-11.012Zm0 0"/><path fill="#fecf7f" d="m308.57 126.36 18.157-10.739 5.73 27.809Zm0 0"/><path fill="#fecf7f" d="M326.727 115.621 308.57 126.36l-9.035-13.695Zm0 0"/><path fill="#fecf7f" d="m308.57 126.36-16.652 2.163 7.617-15.859ZM308.57 126.36l-1.168 6.058-15.484-3.895Zm0 0"/><path fill="#fe9978" d="m289 295.828 11.215 6.25-18.36 16.227Zm0 0"/><path fill="#fecd7f" d="m270.5 304.21 18.5-8.382-7.145 22.477Zm0 0"/><path fill="#ffd080" d="M316.09 273.594 289 295.828l-3.23-5.676Zm0 0"/><path fill="#feca7f" d="m289 295.828 27.09-22.234 1.535 9.656Zm0 0"/><path fill="#fecf7f" d="M300.215 302.078 289 295.828l28.625-12.578Zm0 0"/><path fill="#f6c97e" d="m243.227 300.613-25.72-19.011 10.544-5.258Zm0 0"/><path fill="#fe5a6f" d="m248.035 363.688.8-15.657 9.411 12.031Zm0 0"/><path fill="#feb47c" d="m248.836 348.031-.8 15.656-19.048-3.843Zm0 0"/><path fill="#fece7f" d="m249.508 319.785 21.863 18.07-22.535 10.176Zm0 0"/><path fill="#249da1" d="m271.371 337.855 30.95.52-44.075 21.688Zm0 0"/><path fill="#fe6371" d="m248.836 348.031 22.535-10.176-13.125 22.207Zm0 0"/><path fill="#219ba2" d="m302.32 338.375-28.898-11.39 8.433-8.68Zm0 0"/><path fill="#229da3" d="m300.215 302.078 2.105 36.297-20.465-20.07Zm0 0"/><path fill="#ffd080" d="m206.535 104.055-.61 8.02-10.66-5.173Zm0 0"/><path fill="#342a55" d="m205.926 112.074 13.918 2.48-4.344 5.692Zm0 0"/><path fill="#ffd080" d="m199.945 120.59 5.98-8.516 9.575 8.172Zm0 0"/><path fill="#ffd080" d="m205.926 112.074-5.98 8.516-4.68-13.688ZM194.922 96.418l7.14.262-6.796 10.222Zm0 0"/><path fill="#ffd080" d="m202.063 96.68 4.472 7.375-11.27 2.847ZM195.102 88.45l6.96 8.23-7.14-.262Zm0 0"/><path fill="#ffd080" d="m205.832 88.84-3.77 7.84-6.96-8.23Zm0 0"/><path fill="#342a55" d="m215.844 85.55-3.352-4.972 3.934-2.289ZM212.492 80.578l3.352 4.973-10.012 3.289Zm0 0"/><path fill="#fed080" d="m212.492 80.578-6.66 8.262-2.996-8.238Zm0 0"/><path fill="#352a55" d="m209.89 67.422 2.602 13.156-9.656.024ZM212.492 80.578l-2.601-13.156 6.535 10.867Zm0 0"/><path fill="#f4c77d" d="m186.836 251.652 9.437 25.47-29.77-14.169Zm0 0"/><path fill="#f2c57d" d="m166.504 262.953 29.77 14.168-11.891.336Zm0 0"/><path fill="#fecf7f" d="m228.05 276.344-11.945-18.242 16.723 9.035Zm0 0"/><path fill="#facc7f" d="m143.563 269.836-4.086-9.344 27.027 2.461Zm0 0"/><path fill="#f4c77d" d="m125.598 273.02 13.879-12.528 4.085 9.344Zm0 0"/><path fill="#facc7e" d="m139.477 260.492-13.88 12.528 9.68-13.625Zm0 0"/><path fill="#352a55" d="m138.238 257.527 1.239 2.965-4.2-1.097Zm0 0"/><path fill="#342c56" d="m139.477 260.492-1.239-2.965 16.063-10.02Zm0 0"/><path fill="#23abab" d="m145.621 283.336-15.844 19.031-3.16-17.547Zm0 0"/><path fill="#342b55" d="m154.3 247.508-16.062 10.02-11.812-25.278Zm0 0"/><path fill="#1ab9b6" d="m148.223 128.668-9.614 5.805-6.707-11.27Zm0 0"/><path fill="#303e63" d="m148.46 145.809-9.85-11.336 9.613-5.805Zm0 0"/><path fill="#1cb7b4" d="m138.61 134.473-15.934 10.144 9.226-21.414Zm0 0"/><path fill="#333159" d="m138.61 134.473 9.85 11.336-25.784-1.192Zm0 0"/><path fill="#1cb7b4" d="m79.574 224.223-2.18 4.363-32.187-24.895Zm0 0"/><path fill="#1eb4b1" d="m45.207 203.691 32.188 24.895-24.977 4.234Zm0 0"/><path fill="#313b61" d="m77.395 228.586 2.18-4.363 1.124 4.507Zm0 0"/><path fill="#2f4869" d="m86.168 227.703-6.594-3.48 10.012-27.54Zm0 0"/><path fill="#2f4869" d="m86.168 227.703 3.418-31.02 19.309-3.913Zm0 0"/><path fill="#1db2b1" d="m68.105 253.41-18.878-4.2 3.191-16.39Zm0 0"/><path fill="#fecf7f" d="m68.105 253.41 5.606 5.774-10.957 3.382ZM49.227 249.21l18.878 4.2-5.351 9.156Zm0 0"/><path fill="#20a5a7" d="m196.273 277.121 21.235 4.48-20.25 11.333Zm0 0"/><path fill="#352a55" d="m93.281 292.266-11.453 18.656-7.215-23.82Zm0 0"/><path fill="#352a55" d="m81.828 310.922-19.707 5.75 12.492-29.57Zm0 0"/><path fill="#342d57" d="m81.828 310.922 18.375 8.543L84.72 329.62Zm0 0"/><path fill="#342a55" d="m81.828 310.922 11.453-18.656 6.922 27.199Zm0 0"/><path fill="#352a55" d="m62.121 316.672 19.707-5.75 2.89 18.7Zm0 0"/><path fill="#1fa2a6" d="m216.504 314.824 26.723-14.21 6.28 19.171Zm0 0"/><path fill="#20a5a8" d="m216.504 314.824-19.246-21.89 20.25-11.332Zm0 0"/><path fill="#1fa2a6" d="m243.227 300.613-26.723 14.211 1.004-33.222Zm0 0"/><path fill="#feca7f" d="m273.422 326.984-2.05 10.871-21.864-18.07Zm0 0"/><path fill="#219ca2" d="m271.371 337.855 2.05-10.87 28.9 11.39Zm0 0"/><path fill="#342a55" d="m205.926 112.074 16.824-5.93-2.906 8.41Zm0 0"/><path fill="#342a55" d="m222.75 106.145-16.824 5.93.61-8.02ZM219.844 114.555l2.906-8.41 4.047 9.058Zm0 0"/><path fill="#fcd080" d="m222.75 106.145 14.535-1.114-10.488 10.172Zm0 0"/><path fill="#ffd080" d="m237.285 105.031-14.535 1.114.46-14.336ZM202.063 96.68l11.582-2.664-7.11 10.039Zm0 0"/><path fill="#342a55" d="m213.645 94.016 2.199-8.465 7.367 6.258ZM215.844 85.55l-2.2 8.466-7.812-5.176Zm0 0"/><path fill="#fecf7f" d="m213.645 94.016-11.583 2.664 3.77-7.84Zm0 0"/><path fill="#342a55" d="m222.75 106.145-9.105-12.13 9.566-2.206ZM213.645 94.016l9.105 12.129-16.215-2.09Zm0 0"/><path fill="#ffd080" d="m256.805 74.145 12.98 18.394-26.058-5.965Zm0 0"/><path fill="#fed080" d="m244.367 71.117 12.438 3.028-13.078 12.43ZM256.805 74.145l21.527 5.734-8.547 12.66Zm0 0"/><path fill="#1ab6b5" d="m256.805 74.145 3.336-11.797 18.191 17.53Zm0 0"/><path fill="#1ab5b4" d="m256.805 74.145-12.438-3.028 15.774-8.77Zm0 0"/><path fill="#342b55" d="M164.762 258.496 154.3 247.508l13.574-9.824Zm0 0"/><path fill="#342a55" d="m176.469 248.016-11.707 10.48 3.113-20.812Zm0 0"/><path fill="#1eaeae" d="m164.762 258.496-25.285 1.996 14.824-12.984Zm0 0"/><path fill="#fecf7f" d="m164.762 258.496 11.707-10.48 10.367 3.636ZM164.762 258.496l22.074-6.844-20.332 11.301Zm0 0"/><path fill="#24acab" d="m139.477 260.492 25.285-1.996 1.742 4.457Zm0 0"/><path fill="#fbcd7f" d="m216.105 258.102-19.832 19.02 2.23-18.325Zm0 0"/><path fill="#1cafb0" d="m200.563 248.504 15.542 9.598-17.601.695Zm0 0"/><path fill="#fbcd7f" d="m196.273 277.121 19.832-19.02 1.403 23.5Zm0 0"/><path fill="#fecf7f" d="m216.105 258.102 11.946 18.242-10.543 5.258Zm0 0"/><path fill="#342b55" d="m83.105 249.844-5.71-21.258 3.304.144Zm0 0"/><path fill="#342d57" d="m86.168 227.703-3.063 22.14L80.7 228.73Zm0 0"/><path fill="#342a55" d="m83.105 249.844 10.262 2.703-11.808 6.496ZM83.105 249.844l3.063-22.14 7.2 24.843Zm0 0"/><path fill="#1bb6b4" d="m77.395 228.586-1.38 23.367-23.597-19.133Zm0 0"/><path fill="#1bb5b3" d="m76.016 251.953-7.91 1.457-15.688-20.59Zm0 0"/><path fill="#fecf7f" d="m68.105 253.41 7.91-1.457-2.304 7.23Zm0 0"/><path fill="#352a55" d="m76.016 251.953 5.543 7.09-7.848.14Zm0 0"/><path fill="#352a55" d="m76.016 251.953 7.09-2.11-1.547 9.2Zm0 0"/><path fill="#342a55" d="m83.105 249.844-7.09 2.11 1.38-23.368Zm0 0"/><path fill="#239da2" d="m366.117 253.824 17.867 16.297-35.8 39.797Zm0 0"/><path fill="#e8bc7b" d="m366.117 253.824 17.863-27.012.004 43.31Zm0 0"/><path fill="#fecf7f" d="m383.98 226.813-17.863 27.011-8.203-9.332Zm0 0"/><path fill="#fea279" d="m338.293 257.059 27.824-3.235-27.531 5.606Zm0 0"/><path fill="#fecc7f" d="m357.914 244.492 8.203 9.332-27.824 3.235Zm0 0"/></svg>