<svg xmlns="http://www.w3.org/2000/svg" width="512" height="512" viewBox="0 0 384 384"><path fill="#21adc0" d="m177.746 47.34 59.98.21-18.835 41.192Zm0 0"/><path fill="#2fa2bb" d="m126.418 57.934-73.36 1.898L114.356 0Zm0 0"/><path fill="#342d57" d="M10.594 304.46.008 288l23.55-4.39Zm0 0"/><path fill="#10bdc8" d="M18.738 78.7 0 57.546l53.059 2.285Zm0 0"/><path fill="#fdfcfe" d="m121.465 140.945 6.574-8.957-1.617 15.774Zm0 0"/><path fill="#08c8cd" d="m160.36 99.992 9.417 17.985-41.738 14.011Zm0 0"/><path fill="#fefcfe" d="m270.664 284.527-11.59 8.07-11.453-17.663Zm0 0"/><path fill="#2ca4bc" d="m114.355 0 63.391 47.34-51.328 10.594Zm0 0"/><path fill="#352b55" d="M10.594 304.46 0 304.114.008 288Zm0 0"/><path fill="#fdfcfe" d="m0 304.113 10.594.348-10.59 29.652Zm0 0"/><path fill="#fefcfe" d="m.008 288-.012-26.195 23.563 21.804Zm0 0"/><path fill="#352a55" d="m259.074 292.598-10.273 15.836L244.398 292Zm0 0"/><path fill="#352a55" d="m248.8 308.434 10.274-15.836 3.735 15.054Zm0 0"/><path fill="#352b55" d="m248.8 308.434-22.863-1.594L244.399 292Zm0 0"/><path fill="#f9f8f8" d="m225.938 306.84 22.863 1.594-6.09 15.46Zm0 0"/><path fill="#fd9d7c" d="m18.371 131.004 19.953-12.027 5.024 30.949Zm0 0"/><path fill="#16b8c6" d="m18.738 78.7 34.32-18.868-12.921 22.79Zm0 0"/><path fill="#0ebfc9" d="m53.059 59.832 20.03 59.824-32.952-37.035Zm0 0"/><path fill="#11bbc7" d="m53.059 59.832 52.824 33.36-32.793 26.464Zm0 0"/><path fill="#1bb3c3" d="M105.883 93.191 53.059 59.832l73.359-1.898Zm0 0"/><path fill="#fdfcfe" d="m119.355 327.86 17.582-31.606 1.473 29.082Zm0 0"/><path fill="#2ba5bd" d="m384 0-47.133 39.25L293.605 0Zm0 0"/><path fill="#29a7be" d="m384 0 .035 77.594-47.168-38.344Zm0 0"/><path fill="#2ba5bd" d="M295.656 47.34 293.606 0l43.261 39.25Zm0 0"/><path fill="#2ea2bb" d="M204.895 0h88.71l-55.878 47.55Zm0 0"/><path fill="#fe9d7c" d="m93.766 142.36-16.329 12.046 13.735-36.367Zm0 0"/><path fill="#362a55" d="m77.438 154.406 16.328-12.047-6.352 20.532Zm0 0"/><path fill="#3a2e5d" d="m258.766 206.89-8.371-5.699 6.406-2.101Zm0 0"/><path fill="#352a55" d="m284.719 229.453-20.903 20.734 11.82-25.777Zm0 0"/><path fill="#352a55" d="m263.816 250.188 20.903-20.735-14.2 23.277Zm0 0"/><path fill="#352a55" d="m259.348 263.914 4.468-13.726.825 16.8Zm0 0"/><path fill="#fdfcfe" d="m263.816 250.188-4.468 13.726-23.809-31.918Zm0 0"/><path fill="#fefcfe" d="m270.664 284.527 19.277-1.898-3.832 15.207Zm0 0"/><path fill="#fcfcfe" d="m247.621 274.934 11.453 17.664-14.676-.598Zm0 0"/><path fill="#352a55" d="m264.64 266.988-17.019 7.946 11.727-11.02Zm0 0"/><path fill="#3a2e5d" d="m250.395 201.191 1.277-10.351 5.129 8.25Zm0 0"/><path fill="#352a55" d="m258.766 206.89 24.023-3.32-7.152 20.84Zm0 0"/><path fill="#f7fbfd" d="m366.402 263.941 17.594 40.52-23.703-13.16Zm0 0"/><path fill="#fbf9fa" d="m383.996 304.46-34.09 24.224 10.387-37.383Zm0 0"/><path fill="#fcfbfd" d="m270.508 302.266.156-17.739 15.445 13.309Zm0 0"/><path fill="#352c57" d="m259.074 292.598 11.434 9.668-7.7 5.386Zm0 0"/><path fill="#fdfcfe" d="m270.508 302.266-11.434-9.668 11.59-8.07Zm0 0"/><path fill="#352b55" d="M261.727 318.777 248.8 308.434l14.008-.782Zm0 0"/><path fill="#faf9f9" d="m248.8 308.434 12.927 10.343-19.016 5.118Zm0 0"/><path fill="#fdf8fa" d="m242.71 323.895 19.017-5.118-2.04 23.664Zm0 0"/><path fill="#fcf8fa" d="m261.727 318.777 12.988 4.028-15.027 19.636Zm0 0"/><path fill="#08c6cc" d="m160.36 99.992-32.32 31.996-22.157-38.797Zm0 0"/><path fill="#1ab4c4" d="m160.36 99.992 17.386-52.652 41.145 41.402Zm0 0"/><path fill="#30a0ba" d="M53.059 59.832 0 0h114.355Zm0 0"/><path fill="#2ea3bc" d="M0 57.547V0l53.059 59.832Zm0 0"/><path fill="#342b56" d="m29.309 297.262-18.715 7.199 12.965-20.852Zm0 0"/><path fill="#fefcfe" d="m42.555 261.871 14.867-1.262-26.969 12.383Zm0 0"/><path fill="#fefcfe" d="m57.422 260.61-14.867 1.261 6.734-19.086ZM38.16 227.934 23.523 223.3l25.102-17.32Zm0 0"/><path fill="#fdf4f2" d="m209.512 345.465 67.914 38.527-106.09.004Zm0 0"/><path fill="#fcf8f6" d="m209.512 345.465 33.199-21.57 16.976 18.546Zm0 0"/><path fill="#fcf7f7" d="m209.512 345.465 16.426-38.625 16.773 17.055Zm0 0"/><path fill="#fcf7f6" d="m209.512 345.465 1.566-46.418 14.86 7.793Zm0 0"/><path fill="#fdf8f8" d="m211.078 299.047-1.566 46.418-13.61-40.485Zm0 0"/><path fill="#f8e1e6" d="m0 383.984 45.238-43.336 40.715 43.348Zm0 0"/><path fill="#fefafc" d="m45.238 340.648 20.715-3.765 20 47.113Zm0 0"/><path fill="#fcf9fb" d="m65.953 336.883 46.64.387-26.64 46.726Zm0 0"/><path fill="#fefcfe" d="m112.594 337.27-1.805-8.57 8.566-.84Zm0 0"/><path fill="#fefcfd" d="m112.594 337.27-3.367-7.86 1.562-.71Zm0 0"/><path fill="#fcfafb" d="m109.227 329.41 3.367 7.86-46.64-.387Zm0 0"/><path fill="#825764" d="m110.79 328.7-13.974-32.305 22.54 31.464Zm0 0"/><path fill="#473458" d="m110.79 328.7-24.5-29.723 10.526-2.582Zm0 0"/><path fill="#fefcfe" d="m22.676 189.387-22.68 72.418L0 168.863Zm0 0"/><path fill="#362b55" d="m64.895 146.23-.98 11.36-20.567-7.664Zm0 0"/><path fill="#fefcfe" d="m22.676 189.387 32.722-8.172-6.773 24.765ZM36.004 163.39l-13.328 25.997L0 168.863Zm0 0"/><path fill="#fefcfe" d="m18.371 131.004 17.633 32.387L0 168.863Zm0 0"/><path fill="#fefcfe" d="m36.004 163.39 19.394 17.825-32.722 8.172Zm0 0"/><path fill="#fefcfe" d="M55.398 181.215 36.004 163.39l27.91-5.801ZM36.004 163.39 18.37 131.005l24.977 18.922Zm0 0"/><path fill="#fefcfe" d="m63.914 157.59-27.91 5.8 7.344-13.464ZM63.914 157.59l15.012 11.957-23.528 11.668Zm0 0"/><path fill="#362a55" d="m108.7 167.559-8.235 8.816-13.05-13.484Zm0 0"/><path fill="#352a55" d="M73.098 234.324 57.422 260.61l-8.133-17.824Zm0 0"/><path fill="#d7f1f0" d="m357.523 154.953 8.75-22.687 17.735 7.496Zm0 0"/><path fill="#fcfcfe" d="m367.113 186.203-30.293-10.969 20.703-20.28Zm0 0"/><path fill="#eaf6f6" d="m367.113 186.203 16.895-46.441-.04 109.86Zm0 0"/><path fill="#f3f7f7" d="m384.008 139.762-16.895 46.441-9.59-31.25Zm0 0"/><path fill="#fe9d7c" d="m366.617 77.527-23.125 38.36 8.742-37.59ZM343.492 115.887l-6.656 33.793-23.688-28.254ZM336.836 149.68l6.656-33.793 22.781 16.379ZM313.148 121.426l-32.484 9.937 13.691-17.226ZM107.234 132.64l-13.468 9.72-2.594-24.32Zm0 0"/><path fill="#fefcfe" d="m115.234 149.594 6.23-8.649 4.958 6.817Zm0 0"/><path fill="#372b55" d="m115.234 149.594-6.535 17.965-21.285-4.668Zm0 0"/><path fill="#805563" d="m93.766 142.36 21.468 7.234-27.82 13.297Zm0 0"/><path fill="#20afc2" d="m273.973 88.734-55.082.008 18.836-41.191Zm0 0"/><path fill="#0cc2ca" d="m273.973 88.734-20.739 39.899-34.343-39.89Zm0 0"/><path fill="#ac6e6d" d="m227.84 199.344-13.469-14.278 9.809-.879Zm0 0"/><path fill="#352a55" d="m284.719 229.453-8.903 25.895-5.296-2.618Zm0 0"/><path fill="#fefcfe" d="m278.57 269.71-2.754-14.362 16.696 3.402Zm0 0"/><path fill="#fefcfe" d="m289.941 282.629-11.37-12.918 13.94-10.961Zm0 0"/><path fill="#fefcfe" d="m278.57 269.71 11.371 12.919-19.277 1.898ZM264.64 266.988l6.024 17.54-23.043-9.594Zm0 0"/><path fill="#fefcfe" d="m264.64 266.988 13.93 2.723-7.906 14.816ZM278.57 269.71l-13.93-2.722 11.176-11.64ZM364.3 246.633l-20.796-44.68 25.848 43.41ZM357.762 290.617l8.64-26.676-6.109 27.36Zm0 0"/><path fill="#3b2d56" d="m366.402 263.941-8.64 26.676-.332-27.883Zm0 0"/><path fill="#fcfbfd" d="m349.906 328.684 7.856-38.067 2.531.684Zm0 0"/><path fill="#fefcfe" d="m357.762 290.617-7.856 38.067-5.02-24.348Zm0 0"/><path fill="#fcfcfe" d="m319.96 164.156 16.876-14.476-.016 25.554Zm0 0"/><path fill="#362a56" d="m272.527 145.055 27.11-2.223-5.543 19.516Zm0 0"/><path fill="#fdfcfe" d="m328.242 184.844 8.578-9.61 6.684 26.72Zm0 0"/><path fill="#fefcfe" d="m328.242 184.844-22.168-10.492 30.746.882Zm0 0"/><path fill="#fdfcfe" d="m306.074 174.352 13.887-10.196 16.86 11.078Zm0 0"/><path fill="#382c5a" d="m280.125 187.34-21.36 19.55-1.964-7.8Zm0 0"/><path fill="#3c3162" d="m280.125 187.34 2.664 16.23-24.023 3.32Zm0 0"/><path fill="#fcfcfe" d="m343.504 201.953 23.61-15.75 2.238 59.16Zm0 0"/><path fill="#fafcfe" d="m336.82 175.234 30.293 10.97-23.61 15.75Zm0 0"/><path fill="#f4d39e" d="m384.004 384-106.578-.008 72.48-55.308Zm0 0"/><path fill="#f3d4a9" d="m384.004 384-34.098-55.316 34.09-24.223Zm0 0"/><path fill="#fcfcfe" d="m344.156 285.32.73 19.016-21.3-13.215Zm0 0"/><path fill="#faf8f8" d="m289.715 340.344 15.969-20.98 44.222 9.32Zm0 0"/><path fill="#fbf5f0" d="m277.426 383.992 12.289-43.648 60.191-11.66Zm0 0"/><path fill="#fbf5f4" d="m289.715 340.344-12.29 43.648-17.738-41.55Zm0 0"/><path fill="#faf8f9" d="m274.715 322.805 15 17.539-30.027 2.097Zm0 0"/><path fill="#2ea3bc" d="M114.355 0h90.54l-27.149 47.34Zm0 0"/><path fill="#2da3bc" d="m204.895 0 32.832 47.55-59.98-.21Zm0 0"/><path fill="#18b5c4" d="m126.418 57.934 33.941 42.058-54.476-6.8Zm0 0"/><path fill="#19b5c4" d="m126.418 57.934 51.328-10.594-17.387 52.652Zm0 0"/><path fill="#fdfcfe" d="m-.004 261.805 13.242-.309 10.32 22.113Zm0 0"/><path fill="#3c2e56" d="m24.406 262.469 18.149-.598-12.102 11.121Zm0 0"/><path fill="#fbfcfe" d="m13.238 261.496 11.168.973 6.047 10.523Zm0 0"/><path fill="#fefcfe" d="m23.559 283.61-10.32-22.114 17.214 11.496Zm0 0"/><path fill="#f6dace" d="m0 383.984.004-49.87 45.234 6.534Zm0 0"/><path fill="#372b55" d="m73.098 234.324-23.809 8.461 16.82-34.832Zm0 0"/><path fill="#362a55" d="m42.555 261.871-13.97-16.289 20.704-2.797Zm0 0"/><path fill="#483558" d="m24.406 262.469 4.18-16.887 13.969 16.29Zm0 0"/><path fill="#fcf3f2" d="m136.445 346.406 34.89 37.59H85.954Zm0 0"/><path fill="#fcf8f8" d="m136.445 346.406-17.09-18.547 19.055-2.523Zm0 0"/><path fill="#fcf9f9" d="m136.445 346.406-23.851-9.136 6.761-9.41Zm0 0"/><path fill="#fbf9f8" d="m112.594 337.27 23.851 9.136-50.492 37.59Zm0 0"/><path fill="#fdf5f1" d="m277.426 383.992-67.914-38.527 50.176-3.024Zm0 0"/><path fill="#fefcfe" d="M18.371 131.004 0 168.864l-.008-43.774Zm0 0"/><path fill="#16b8c5" d="m18.371 131.004.367-52.305 19.586 40.278Zm0 0"/><path fill="#fe9d7c" d="M38.324 118.977 18.738 78.699l21.399 3.922Zm0 0"/><path fill="#fefcfe" d="M23.523 223.3-.004 261.806l22.68-72.418ZM23.523 223.3l-.847-33.913 25.949 16.593ZM55.398 181.215l6.41 10.648-13.183 14.117ZM83.574 183.047l-21.765 8.816-6.41-10.648Zm0 0"/><path fill="#fefcfe" d="m78.926 169.547 4.648 13.5-28.176-1.832ZM78.926 169.547l-1.489-15.14 9.977 8.484Zm0 0"/><path fill="#fefcfe" d="m100.465 176.375-21.54-6.828 8.49-6.656Zm0 0"/><path fill="#3f3057" d="m64.895 146.23 12.543 8.176-13.524 3.184Zm0 0"/><path fill="#fefcfe" d="m77.438 154.406 1.488 15.14-15.012-11.956Zm0 0"/><path fill="#fe9d7c" d="m77.438 154.406-12.543-8.176 26.277-28.19Zm0 0"/><path fill="#fefcfe" d="m120.504 295.2 16.433 1.054-17.582 31.605Zm0 0"/><path fill="#342f59" d="m120.504 295.2 15.656-11.794.778 12.848Zm0 0"/><path fill="#fefcfe" d="m96.816 296.395 23.688-1.196-1.149 32.66Zm0 0"/><path fill="#352a55" d="m115.105 283.129 5.399 12.07-23.688 1.196Zm0 0"/><path fill="#34345c" d="m136.938 296.254-.778-12.848 20.492 10.145Zm0 0"/><path fill="#fefcfe" d="m83.574 183.047 16.89-6.672.313 12.836Zm0 0"/><path fill="#fefcfe" d="m83.574 183.047-4.648-13.5 21.539 6.828Zm0 0"/><path fill="#372b55" d="m106.918 232.816 10.117-4.367-3.105 8.035Zm0 0"/><path fill="#fefcfe" d="m86.125 213.5-13.027 20.824-6.989-26.37Zm0 0"/><path fill="#493559" d="M73.098 234.324 86.125 213.5l1.371 23.633Zm0 0"/><path fill="#fefcfe" d="m117.695 259.895-12.773-16.485 6.2-2.02Zm0 0"/><path fill="#352a55" d="m123.629 256.563-5.934 3.332-6.574-18.504Zm0 0"/><path fill="#352a55" d="m117.695 259.895 5.934-3.332 1.476 8.675Zm0 0"/><path fill="#0fbec9" d="m366.273 132.266 17.762-54.672-.027 62.168Zm0 0"/><path fill="#0dc0c9" d="m384.035 77.594-17.762 54.672.954-2.934Zm0 0"/><path fill="#fe9d7c" d="m343.492 115.887-.805-37.082 9.547-.508Zm0 0"/><path fill="#23b7c0" d="m357.188 115.512-13.696.375 23.125-38.36Zm0 0"/><path fill="#0ebfc9" d="m357.188 115.512 26.847-37.918-16.808 51.738Zm0 0"/><path fill="#18bdc6" d="m357.188 115.512 9.43-37.985 17.417.067Zm0 0"/><path fill="#24acc0" d="M328.633 92.066 295.656 47.34l41.211-8.09Zm0 0"/><path fill="#fcfcfe" d="m336.836 149.68 29.437-17.414-8.75 22.687Zm0 0"/><path fill="#2ca4bc" d="m295.656 47.34-57.93.21L293.607 0Zm0 0"/><path fill="#fe9d7c" d="m313.148 121.426-13.511 21.406-18.973-11.469Zm0 0"/><path fill="#07c5cb" d="m105.883 93.191 1.351 39.45-16.062-14.602Zm0 0"/><path fill="#fefcfe" d="m115.234 149.594-8-16.953 14.23 8.304Zm0 0"/><path fill="#bc776f" d="m107.234 132.64 8 16.954-21.468-7.235Zm0 0"/><path fill="#05c6cd" d="m128.04 131.988-20.806.653-1.351-39.45Zm0 0"/><path fill="#05cace" d="m121.465 140.945-14.23-8.304 20.804-.653Zm0 0"/><path fill="#fc9c7c" d="m215.04 172.91-42.9 1.73 4.407-39.624Zm0 0"/><path fill="#9b6569" d="m176.547 135.016-4.406 39.625-31.7-14.235Zm0 0"/><path fill="#64455e" d="m176.547 135.016-48.508-3.028 41.738-14.011Zm0 0"/><path fill="#cd8173" d="m128.04 131.988 48.507 3.028-36.106 25.39Zm0 0"/><path fill="#06c6cc" d="m261.605 135.574-8.37-6.941 41.12-14.496Zm0 0"/><path fill="#07c5cc" d="m253.234 128.633 20.739-39.899 20.382 25.403Zm0 0"/><path fill="#fbfcfe" d="m261.605 135.574 19.06-4.21-8.138 13.69Zm0 0"/><path fill="#362a55" d="m280.664 131.363 18.973 11.469-27.11 2.223Zm0 0"/><path fill="#04c9cd" d="m280.664 131.363-19.059 4.211 32.75-21.437Zm0 0"/><path fill="#fcfcfe" d="m264.3 156.172-2.695-20.598 10.922 9.48Zm0 0"/><path fill="#08c4cb" d="m169.777 117.977-9.418-17.985 58.532-11.25Zm0 0"/><path fill="#62445e" d="m215.04 172.91-.669 12.156-42.23-10.425Zm0 0"/><path fill="#3f3057" d="m214.371 185.066-46.473 2.227 4.243-12.652Zm0 0"/><path fill="#352a55" d="m251.04 221.598 7.726-14.707 16.87 17.52Zm0 0"/><path fill="#fefcfe" d="m263.816 250.188-12.777-28.59 24.598 2.812Zm0 0"/><path fill="#fefcfe" d="m251.04 221.598 12.776 28.59-28.277-18.192Zm0 0"/><path fill="#352a55" d="m250.395 201.191-11.551 15.692-11.004-17.54ZM238.844 216.883l-15.73-14.754 4.726-2.785Zm0 0"/><path fill="#fefcfe" d="m238.844 216.883 12.195 4.715-15.5 10.398Zm0 0"/><path fill="#fdfcfe" d="m238.844 216.883-3.305 15.113-13.46-14.203Zm0 0"/><path fill="#372b55" d="m223.113 202.129 15.73 14.754-16.765.91Zm0 0"/><path fill="#c67d72" d="m223.113 202.129-8.742-17.063 13.469 14.278Zm0 0"/><path fill="#352a55" d="m270.52 252.73 5.296 2.618-11.175 11.64ZM263.816 250.188l6.704 2.542-5.88 14.258Zm0 0"/><path fill="#2e4468" d="m211.078 299.047 9.734-25.965 5.125 33.758Zm0 0"/><path fill="#fdfbfd" d="m235.54 231.996-30.9 9.336 17.438-23.539Zm0 0"/><path fill="#fcfcfe" d="m259.348 263.914-54.707-22.582 30.898-9.336Zm0 0"/><path fill="#fbfcfe" d="m247.621 274.934-42.98-33.602 54.707 22.582Zm0 0"/><path fill="#2c476b" d="m177.234 271.527 5.07 22.274-25.652-.25Zm0 0"/><path fill="#f4f9fb" d="m198.145 291.453 12.933 7.594-15.176 5.933Zm0 0"/><path fill="#fbfafc" d="m182.305 293.8 15.84-2.347-2.243 13.527Zm0 0"/><path fill="#2e4065" d="m220.813 273.082-22.668 18.371-.747-15.457Zm0 0"/><path fill="#2f3e64" d="m198.145 291.453 22.667-18.371-9.734 25.965Zm0 0"/><path fill="#2a5072" d="m198.145 291.453-20.91-19.926 20.163 4.47Zm0 0"/><path fill="#295575" d="m177.234 271.527 20.91 19.926-15.84 2.348Zm0 0"/><path fill="#352a55" d="m222.078 217.793-23.672 1.633 24.707-17.297Zm0 0"/><path fill="#fdfcfd" d="m202.867 250.2 17.946 22.882-23.415 2.914Zm0 0"/><path fill="#fcfcfd" d="m220.813 273.082-17.946-22.883 44.754 24.735Zm0 0"/><path fill="#fbfcfe" d="m336.82 175.234.016-25.554 20.687 5.273Zm0 0"/><path fill="#362a55" d="m282.79 203.57 25.401-14.484-4.511 18.95Zm0 0"/><path fill="#503a5a" d="m280.125 187.34 28.066 1.746-25.402 14.484Zm0 0"/><path fill="#352a55" d="m306.074 174.352 2.117 14.734-28.066-1.746Zm0 0"/><path fill="#f9fcfd" d="m369.352 245.363-2.239-59.16 16.856 63.418Zm0 0"/><path fill="#fafcfd" d="m383.996 304.46-17.594-40.519 17.567-14.32Zm0 0"/><path fill="#fbfbfc" d="m383.969 249.621-17.567 14.32 2.95-18.578Zm0 0"/><path fill="#473458" d="m295.89 302.445-13.695 5.926 3.914-10.535Zm0 0"/><path fill="#fdfcfe" d="m282.195 308.371-11.687-6.105 15.601-4.43Zm0 0"/><path fill="#553c5b" d="m273.45 314.648 13.636-.636-12.371 8.793Zm0 0"/><path fill="#352a55" d="m273.45 314.648-11.723 4.13 1.082-11.126Zm0 0"/><path fill="#352a55" d="m261.727 318.777 11.722-4.129 1.266 8.157Zm0 0"/><path fill="#352a55" d="m270.508 302.266 2.941 12.382-10.64-6.996ZM282.195 308.371l-8.746 6.277-2.941-12.382Zm0 0"/><path fill="#67475f" d="m273.45 314.648 8.745-6.277 4.89 5.64Zm0 0"/><path fill="#423157" d="m357.762 290.617-7.852-3.586 7.52-24.297Zm0 0"/><path fill="#3b2d56" d="m349.91 287.031 7.852 3.586-12.875 13.719Zm0 0"/><path fill="#fcfcfe" d="m344.156 285.32 5.754 1.711-5.023 17.305Zm0 0"/><path fill="#fdf9fc" d="m289.52 323.035.195 17.309-15-17.54Zm0 0"/><path fill="#fdfbfe" d="m289.715 340.344-.195-17.309 16.164-3.672Zm0 0"/><path fill="#fefcfe" d="m287.086 314.012 2.434 9.023-14.805-.23ZM302.098 306.742l-15.012 7.27 8.805-11.567Zm0 0"/><path fill="#5b405c" d="m287.086 314.012-4.89-5.64 13.695-5.927Zm0 0"/><path fill="#fefcfe" d="m287.086 314.012 15.012-7.27 3.586 12.621ZM289.52 323.035l-2.434-9.023 18.598 5.351ZM57.422 260.61l1.851 7.906-28.82 4.476Zm0 0"/><path fill="#fe9d7c" d="m44.457 310.422-10.941-14.293 7.597-1.383Zm0 0"/><path fill="#fefcfe" d="m28.586 245.582-15.348 15.914 10.285-38.195Zm0 0"/><path fill="#fdfcfe" d="m13.238 261.496 15.348-15.914-4.18 16.887Zm0 0"/><path fill="#825664" d="m36.29 280.8-12.731 2.81 6.894-10.618Zm0 0"/><path fill="#352a55" d="m36.29 280.8-6.981 16.462-5.75-13.653Zm0 0"/><path fill="#372b55" d="m29.309 297.262 6.98-16.461-2.773 15.328Zm0 0"/><path fill="#342a55" d="m29.309 297.262-3.34 12.836-15.375-5.637Zm0 0"/><path fill="#fdfcfe" d="M25.969 310.098.004 334.113l10.59-29.652Zm0 0"/><path fill="#fefcfe" d="m110.79 328.7-1.563.71-22.938-30.433Zm0 0"/><path fill="#352a55" d="m73.746 291.29-3.008 15.562-29.625-12.106Zm0 0"/><path fill="#352a55" d="m70.738 306.852-26.281 3.57-3.344-15.676Zm0 0"/><path fill="#fdf5f0" d="m171.336 383.996-5.793-58.973 43.969 20.442Zm0 0"/><path fill="#fdf6f2" d="m136.445 346.406 29.098-21.383 5.793 58.973Zm0 0"/><path fill="#fdf8f6" d="m165.543 325.023-29.098 21.383 1.965-21.07Zm0 0"/><path fill="#fef7f5" d="m209.512 345.465-43.969-20.442 30.36-20.043Zm0 0"/><path fill="#fdfbfd" d="m136.938 296.254 28.605 28.77-27.133.312Zm0 0"/><path fill="#fdfbfc" d="m165.543 325.023-28.606-28.77 19.715-2.702Zm0 0"/><path fill="#fdfafb" d="m165.543 325.023 16.762-31.222 13.597 11.18Zm0 0"/><path fill="#fcf9fb" d="m182.305 293.8-16.762 31.223-8.89-31.472Zm0 0"/><path fill="#14b8c5" d="M18.738 78.7-.008 125.09 0 57.547Zm0 0"/><path fill="#13bac7" d="m18.738 78.7-.367 52.304-18.379-5.914Zm0 0"/><path fill="#fe9d7c" d="m38.324 118.977 6.688.476-1.664 30.473ZM45.012 119.453l19.883 26.777-21.547 3.696ZM73.09 119.656l-28.078-.203-4.875-36.832Zm0 0"/><path fill="#3d2e56" d="m45.012 119.453-6.688-.476 1.813-36.356Zm0 0"/><path fill="#3c2e56" d="m60.883 208.234-22.723 19.7 10.465-21.954Zm0 0"/><path fill="#352a55" d="m61.809 191.863-.926 16.371-12.258-2.254Zm0 0"/><path fill="#3b2d56" d="m60.883 208.234.926-16.37 4.3 16.09Zm0 0"/><path fill="#583e5b" d="m49.29 242.785 11.593-34.55 5.226-.282Zm0 0"/><path fill="#362a55" d="m60.883 208.234-11.594 34.551-11.129-14.851Zm0 0"/><path fill="#332f59" d="m120.504 295.2-5.399-12.071 21.055.277Zm0 0"/><path fill="#342d57" d="m115.105 283.129 18.707-9.344 2.348 9.621Zm0 0"/><path fill="#352b55" d="m133.813 273.785 10.312-.816-7.965 10.437Zm0 0"/><path fill="#d08374" d="m79.46 197.008-17.651-5.145 21.765-8.816Zm0 0"/><path fill="#352a55" d="m79.46 197.008 6.665 16.492-20.016-5.547Zm0 0"/><path fill="#372b55" d="m61.809 191.863 17.652 5.145-13.352 10.945Zm0 0"/><path fill="#fefcfe" d="m117.035 228.45 18.25-4.528 7.371 14.351Zm0 0"/><path fill="#352a55" d="m117.035 228.45 11.922 21.07-15.027-13.036ZM113.93 236.484l15.027 13.036-17.836-8.13ZM128.957 249.52l-5.328 7.042-12.508-15.171Zm0 0"/><path fill="#fefcfe" d="m128.957 249.52-11.922-21.07 25.621 9.823ZM147.207 253.848l-18.25-4.328 13.7-11.247ZM87.496 237.133l10.8-4.469 6.626 10.746Zm0 0"/><path fill="#3b2f5e" d="m132.938 200.46 1.656-7.144 12.004 5.805Zm0 0"/><path fill="#fb9c7c" d="m132.938 200.46 2.347 23.462-25.094-16.652Zm0 0"/><path fill="#382d5a" d="m100.777 189.21 32.16 11.25-22.746 6.81Zm0 0"/><path fill="#fefcfe" d="m132.938 200.46-32.16-11.25 33.816 4.106Zm0 0"/><path fill="#362a55" d="m167.898 187.293-36.418-13.758 8.961-13.129Zm0 0"/><path fill="#3d2e56" d="m115.234 149.594 16.246 23.941-22.78-5.976Zm0 0"/><path fill="#fefcfe" d="M76.094 250.105 57.422 260.61l15.676-26.285Zm0 0"/><path fill="#352a55" d="m87.496 237.133-11.402 12.972-2.996-15.78Zm0 0"/><path fill="#fb9b7c" d="m86.125 213.5 12.172 19.164-10.8 4.469Zm0 0"/><path fill="#754e61" d="m99.648 260.828-9.546 2.793-2.606-26.488Zm0 0"/><path fill="#fefcfe" d="m104.922 243.41-5.274 17.418-12.152-23.695Zm0 0"/><path fill="#fefcfe" d="m117.695 259.895-18.047.933 5.274-17.418Zm0 0"/><path fill="#c67d71" d="m313.148 121.426 15.485-29.36 14.86 23.82Zm0 0"/><path fill="#e08c77" d="m328.633 92.066 14.055-13.261.804 37.082Zm0 0"/><path fill="#16bdc7" d="m366.273 132.266-9.086-16.754 10.04 13.82Zm0 0"/><path fill="#15b9c6" d="m343.492 115.887 13.695-.375 9.086 16.754Zm0 0"/><path fill="#25aabf" d="m295.656 47.34-21.683 41.394-36.246-41.183Zm0 0"/><path fill="#23acc0" d="m295.656 47.34 32.977 44.726-54.66-3.332Zm0 0"/><path fill="#885965" d="m307.875 155.867-8.238-13.035 37.199 6.848Zm0 0"/><path fill="#fdfcfe" d="m319.96 164.156-12.085-8.289 28.96-6.187Zm0 0"/><path fill="#09c4ca" d="m328.633 92.066-15.485 29.36-18.793-7.29Zm0 0"/><path fill="#10bdc8" d="m273.973 88.734 54.66 3.332-34.278 22.07Zm0 0"/><path fill="#fe9d7c" d="m64.895 146.23 8.195-26.574 18.082-1.617Zm0 0"/><path fill="#09c1c7" d="m73.09 119.656 32.793-26.465-14.711 24.848Zm0 0"/><path fill="#fe9d7c" d="m45.012 119.453 28.078.203-8.195 26.574Zm0 0"/><path fill="#352a55" d="m172.14 174.64-4.242 12.653-27.457-26.887Zm0 0"/><path fill="#3a2d57" d="m128.04 131.988 12.401 28.418-14.02-12.644Zm0 0"/><path fill="#07c6cc" d="m253.234 128.633-37.324-10.95 2.98-28.94Zm0 0"/><path fill="#fe9d7c" d="m210.305 135.207 5.605-17.523 37.324 10.949Zm0 0"/><path fill="#da8976" d="m214.371 185.066.668-12.156 9.14 11.278Zm0 0"/><path fill="#fe9d7c" d="M253.234 128.633 215.04 172.91l-4.734-37.703Zm0 0"/><path fill="#fe9d7c" d="m215.04 172.91 38.194-44.277-4.46 32.996Zm0 0"/><path fill="#3b2e57" d="m215.04 172.91 39.132-.015-29.992 11.292Zm0 0"/><path fill="#372b55" d="m254.172 172.895-39.133.015 33.734-11.281Zm0 0"/><path fill="#362a55" d="m254.172 172.895-5.399-11.266 9.52 2.152Zm0 0"/><path fill="#fcfcfe" d="m264.3 156.172 2.137 2.644-8.144 4.965Zm0 0"/><path fill="#362a55" d="m266.438 158.816 8.062 8.993-16.207-4.028Zm0 0"/><path fill="#352a56" d="m266.438 158.816-2.137-2.644 8.226-11.117Zm0 0"/><path fill="#8f5d66" d="m215.04 172.91-38.493-37.894 33.758.191Zm0 0"/><path fill="#3b2e57" d="m258.766 206.89-19.922 9.993 11.55-15.692Zm0 0"/><path fill="#352a55" d="m238.844 216.883 19.922-9.992-7.727 14.707Zm0 0"/><path fill="#362a55" d="m214.371 185.066 8.742 17.063-55.215-14.836Zm0 0"/><path fill="#323860" d="m220.813 273.082 14.777 9.836-9.653 23.922Zm0 0"/><path fill="#fdfcfe" d="m235.59 282.918 12.031-7.984L244.398 292Zm0 0"/><path fill="#353c62" d="m225.938 306.84 9.652-23.922 8.808 9.082Zm0 0"/><path fill="#38335b" d="m235.59 282.918-14.778-9.836 26.81 1.852Zm0 0"/><path fill="#34345c" d="m136.16 283.406 7.965-10.437 12.527 20.582Zm0 0"/><path fill="#2c486c" d="m144.125 272.969 33.11-1.442-20.583 22.024Zm0 0"/><path fill="#fefcfe" d="m177.234 271.527 25.633-21.328-5.469 25.797Zm0 0"/><path fill="#fbfcfe" d="m202.867 250.2 1.774-8.868 42.98 33.602Zm0 0"/><path fill="#fdfcfd" d="m222.078 217.793-17.437 23.539-6.235-21.906Zm0 0"/><path fill="#fe9d7c" d="m299.637 142.832 13.511-21.406 23.688 28.254Zm0 0"/><path fill="#f5987b" d="m308.191 189.086-2.117-14.734 22.168 10.492Zm0 0"/><path fill="#fefcfe" d="m307.875 155.867-1.8 18.485-11.981-12.004Zm0 0"/><path fill="#fefcfe" d="m306.074 174.352 1.801-18.485 12.086 8.29Zm0 0"/><path fill="#352a55" d="m299.637 142.832 8.238 13.035-13.781 6.48Zm0 0"/><path fill="#fefcfe" d="m306.074 174.352-24.144 1.96 12.164-13.964Zm0 0"/><path fill="#fefcfe" d="m281.93 176.313 24.144-1.961-25.949 12.988ZM273.676 179.152l8.254-2.84-1.805 11.028Zm0 0"/><path fill="#b9766f" d="m364.3 246.633 2.102 17.308-8.972-1.207Zm0 0"/><path fill="#fdfcfe" d="m366.402 263.941-2.101-17.308 5.05-1.27Zm0 0"/><path fill="#362a55" d="m331.55 245.41 16.49 2.555-7.231 12.574Zm0 0"/><path fill="#fb9b7c" d="m327.613 200.93.63-16.086 15.26 17.11Zm0 0"/><path fill="#fefcfe" d="m327.613 200.93-13.793 19.91-10.14-12.805Zm0 0"/><path fill="#392d58" d="m308.191 189.086 19.422 11.844-23.933 7.105Zm0 0"/><path fill="#382c55" d="m327.613 200.93-19.422-11.844 20.051-4.242Zm0 0"/><path fill="#fefcfe" d="m328.277 267.36-17.8 2.808 4.609-20.27ZM305.441 293.273l-3.343 13.47-6.207-4.298Zm0 0"/><path fill="#3f3057" d="m310.477 270.168-20.536 12.46 2.57-23.878Zm0 0"/><path fill="#905e67" d="m315.086 249.898-4.61 20.27-17.964-11.418Zm0 0"/><path fill="#382b55" d="m295.57 289.574.32 12.871-9.78-4.61Zm0 0"/><path fill="#fefcfe" d="m289.941 282.629 5.63 6.945-9.462 8.262Zm0 0"/><path fill="#352a55" d="m295.57 289.574 9.871 3.7-9.55 9.171Zm0 0"/><path fill="#a46a6b" d="m305.441 293.273-9.87-3.699 14.906-19.406Zm0 0"/><path fill="#413157" d="m310.477 270.168-14.907 19.406-5.629-6.945Zm0 0"/><path fill="#392c56" d="m340.809 260.54-17.223 30.581 4.691-23.762Zm0 0"/><path fill="#fefcfe" d="m349.91 287.031-5.754-1.71 13.274-22.587Zm0 0"/><path fill="#fbfcfe" d="m340.809 260.54 3.347 24.78-20.57 5.801Zm0 0"/><path fill="#fefcfe" d="m302.098 306.742 16.312-4.703-12.726 17.324Zm0 0"/><path fill="#fcfafb" d="m318.41 302.04 31.496 26.644-44.222-9.32Zm0 0"/><path fill="#362a55" d="m344.887 304.336-26.477-2.297 5.176-10.918Zm0 0"/><path fill="#fcfcfd" d="m349.906 328.684-31.496-26.645 26.477 2.297Zm0 0"/><path fill="#352a55" d="m66.777 265.707-7.504 2.809-1.851-7.907Zm0 0"/><path fill="#fe9d7c" d="m33.516 296.129 2.773-15.328 4.824 13.945Zm0 0"/><path fill="#fefcfe" d="M59.273 268.516 36.29 280.8l-5.836-7.809Zm0 0"/><path fill="#fdfcfe" d="m23.523 223.3-10.285 38.196-13.242.309Zm0 0"/><path fill="#fdfbfd" d="m.004 334.113 42.203-17.984 3.031 24.52Zm0 0"/><path fill="#fcfbfd" d="m25.969 310.098 16.238 6.03L.004 334.114Zm0 0"/><path fill="#fefcfe" d="m42.207 316.129 23.746 20.754-20.715 3.765Zm0 0"/><path fill="#fe9d7c" d="m90.102 263.621-8.215 20.738.43-17.609Zm0 0"/><path fill="#352a55" d="m81.887 284.36-9.895-2.036 10.324-15.574ZM66.777 265.707l5.215 16.617-12.719-13.808Zm0 0"/><path fill="#333059" d="m36.29 280.8 35.702 1.524-30.879 12.422Zm0 0"/><path fill="#fefcfe" d="m71.992 282.324-35.703-1.523 22.984-12.285Zm0 0"/><path fill="#342a55" d="m71.992 282.324 1.754 8.965-32.633 3.457Zm0 0"/><path fill="#352a55" d="m71.992 282.324 9.895 2.035-8.14 6.93Zm0 0"/><path fill="#fefcfe" d="m38.16 227.934-9.574 17.648-5.063-22.281Zm0 0"/><path fill="#4c3759" d="m49.29 242.785-20.704 2.797 9.574-17.648Zm0 0"/><path fill="#fefcfe" d="m65.953 336.883 2.988-14.785 40.286 7.312Zm0 0"/><path fill="#fdfbfc" d="m42.207 316.129 26.734 5.969-2.988 14.785Zm0 0"/><path fill="#352a55" d="m68.941 322.098-26.734-5.97 2.25-5.706ZM70.738 306.852l-1.797 15.246-24.484-11.676ZM68.941 322.098l1.797-15.246 38.489 22.558ZM132.32 262.254l11.805 10.715-10.312.816ZM132.32 262.254l1.493 11.531-8.708-8.547Zm0 0"/><path fill="#362a55" d="m132.32 262.254-8.691-5.692 5.328-7.042Zm0 0"/><path fill="#352a55" d="m123.629 256.563 8.691 5.69-7.215 2.985Zm0 0"/><path fill="#392d5a" d="m91.441 197.816-11.98-.808 4.113-13.961Zm0 0"/><path fill="#362b56" d="m91.441 197.816-7.867-14.77 17.203 6.165Zm0 0"/><path fill="#352a55" d="m79.46 197.008 11.981.808-5.316 15.684Zm0 0"/><path fill="#362b57" d="m110.191 207.27-18.75-9.454 9.336-8.605Zm0 0"/><path fill="#fefcfe" d="m98.297 232.664 8.621.152-1.996 10.594Zm0 0"/><path fill="#352a55" d="m106.918 232.816 7.012 3.668-2.809 4.907Zm0 0"/><path fill="#fefcfe" d="m104.922 243.41 1.996-10.594 4.203 8.575ZM100.777 189.21l9.512-9.589 24.305 13.695Zm0 0"/><path fill="#352a55" d="m110.29 179.621-9.825-3.246 8.234-8.816Zm0 0"/><path fill="#fefcfe" d="m100.465 176.375 9.824 3.246-9.512 9.59Zm0 0"/><path fill="#382b55" d="m134.594 193.316-3.114-19.78 15.118 25.585Zm0 0"/><path fill="#352a55" d="m131.48 173.535-21.19 6.086-1.59-12.062Zm0 0"/><path fill="#362b55" d="m110.29 179.621 21.19-6.086 3.114 19.781Zm0 0"/><path fill="#fdfcfe" d="m131.48 173.535-16.246-23.941 11.188-1.832Zm0 0"/><path fill="#382b56" d="m140.441 160.406-8.96 13.13-5.06-25.774Zm0 0"/><path fill="#fefcfe" d="m71.992 282.324 3.586-19.629 6.738 4.055Zm0 0"/><path fill="#fefcfe" d="m75.578 262.695-3.586 19.63-5.215-16.618Zm0 0"/><path fill="#fefcfe" d="m57.422 260.61 18.156 2.085-8.8 3.012Zm0 0"/><path fill="#fefcfe" d="m76.094 250.105-.516 12.59-18.156-2.086Zm0 0"/><path fill="#e28d77" d="m98.297 232.664 8.844-12.754-.223 12.906Zm0 0"/><path fill="#e48f77" d="m106.918 232.816.223-12.906 9.894 8.54Zm0 0"/><path fill="#e28d77" d="m107.14 219.91 28.145 4.012-18.25 4.527Zm0 0"/><path fill="#fb9c7c" d="m135.285 223.922-28.144-4.012 3.05-12.64Zm0 0"/><path fill="#fefcfe" d="m114.926 273.29-15.278-12.462 18.047-.933ZM114.926 273.29l2.77-13.395 7.41 5.343Zm0 0"/><path fill="#fbfbfd" d="m133.813 273.785-18.887-.496 10.18-8.05Zm0 0"/><path fill="#33315a" d="m115.105 283.129-.18-9.84 18.888.496Zm0 0"/><path fill="#563d5b" d="m248.773 161.629 12.832-26.055-3.312 28.207Zm0 0"/><path fill="#fe9d7c" d="m253.234 128.633 8.371 6.941-12.832 26.055Zm0 0"/><path fill="#fefcfe" d="m261.605 135.574 2.696 20.598-6.008 7.61Zm0 0"/><path fill="#f5987b" d="m254.172 172.895-2.5 17.945-27.492-6.653Zm0 0"/><path fill="#573e5e" d="m251.672 190.84-23.832 8.504-3.66-15.156Zm0 0"/><path fill="#3c305f" d="m251.672 190.84-1.277 10.351-22.555-1.847Zm0 0"/><path fill="#433257" d="m274.5 167.809-20.328 5.086 4.121-9.114Zm0 0"/><path fill="#3b2d56" d="m273.676 179.152-19.504-6.257 20.328-5.086Zm0 0"/><path fill="#e58f78" d="m176.547 135.016 39.363-17.332-5.605 17.523Zm0 0"/><path fill="#fb9b7c" d="m215.91 117.684-39.363 17.332-6.77-17.04Zm0 0"/><path fill="#06c6cc" d="m215.91 117.684-46.133.293 49.114-29.235Zm0 0"/><path fill="#352a55" d="m274.5 167.809 7.43 8.504-8.254 2.84Zm0 0"/><path fill="#352a55" d="m281.93 176.313-7.43-8.504 19.594-5.461Zm0 0"/><path fill="#352a55" d="m274.5 167.809-1.973-22.754 21.567 17.293Zm0 0"/><path fill="#352a55" d="m274.5 167.809-8.062-8.993 6.09-13.761Zm0 0"/><path fill="#f6987b" d="m364.3 246.633-20.898-16.512.102-28.168Zm0 0"/><path fill="#ae6f6c" d="m343.402 230.121 20.899 16.512-16.262 1.332Zm0 0"/><path fill="#362a55" d="m331.55 245.41 11.852-15.289 4.637 17.844Zm0 0"/><path fill="#372b55" d="m302.344 229.488 12.742 20.41-22.574 8.852Zm0 0"/><path fill="#fefcfe" d="m302.344 229.488-26.528 25.86 8.903-25.895ZM302.344 229.488l-9.832 29.262-16.696-3.402Zm0 0"/><path fill="#b8756e" d="m302.344 229.488 11.476-8.648 1.266 29.058Zm0 0"/><path fill="#fefcfe" d="m344.156 285.32 6.063-25.28 7.21 2.694Zm0 0"/><path fill="#3f2f57" d="m350.219 260.04 14.082-13.407-6.871 16.101Zm0 0"/><path fill="#3a2c56" d="m364.3 246.633-14.081 13.406-2.18-12.074Zm0 0"/><path fill="#fbfcfe" d="m305.441 293.273 12.97 8.766-16.313 4.703Zm0 0"/><path fill="#352a55" d="m318.41 302.04-12.969-8.767 18.145-2.152Zm0 0"/><path fill="#fefcfe" d="m305.441 293.273 22.836-25.914-4.691 23.762ZM305.441 293.273l5.036-23.105 17.8-2.809Zm0 0"/><path fill="#352c56" d="m44.457 310.422-2.25 5.707-16.238-6.031Zm0 0"/><path fill="#382b55" d="m44.457 310.422-15.148-13.16 4.207-1.133Zm0 0"/><path fill="#352a55" d="m44.457 310.422-18.488-.324 3.34-12.836Zm0 0"/><path fill="#fb9b7c" d="m99.648 260.828-.992 14.48-8.554-11.687Zm0 0"/><path fill="#fe9d7c" d="m98.656 275.309-16.77 9.05 8.216-20.738Zm0 0"/><path fill="#352a55" d="m98.656 275.309 16.27-2.02.18 9.84Zm0 0"/><path fill="#fefcfe" d="m114.926 273.29-16.27 2.019.992-14.48Zm0 0"/><path fill="#362a55" d="m98.656 275.309 16.45 7.82-18.29 13.266Zm0 0"/><path fill="#fe9d7c" d="m81.887 284.36 16.77-9.051-1.84 21.086Zm0 0"/><path fill="#352a55" d="m81.887 284.36 4.402 14.617-12.543-7.688Zm0 0"/><path fill="#fe9d7c" d="m96.816 296.395-10.527 2.582-4.402-14.618Zm0 0"/><path fill="#352a55" d="m86.29 298.977-15.552 7.875 3.008-15.563Zm0 0"/><path fill="#fefcfe" d="m70.738 306.852 15.551-7.875 22.938 30.433Zm0 0"/><path fill="#3b2f5f" d="m155.613 218.86-9.015-19.739 21.3-11.828Zm0 0"/><path fill="#fefcfe" d="m155.613 218.86-12.957 19.413-7.37-14.351Zm0 0"/><path fill="#3b2d56" d="m146.598 199.121 9.015 19.738-20.328 5.063Zm0 0"/><path fill="#f2977a" d="m132.938 200.46 13.66-1.339-11.313 24.8Zm0 0"/><path fill="#62445e" d="m146.598 199.121-15.118-25.586 36.418 13.758Zm0 0"/><path fill="#352a55" d="m83.965 260.195-8.387 2.5.516-12.59Zm0 0"/><path fill="#352a55" d="m83.965 260.195-7.871-10.09 11.402-12.972Zm0 0"/><path fill="#3c2e56" d="m75.578 262.695 8.387-2.5-1.649 6.555Zm0 0"/><path fill="#fc9c7c" d="m83.965 260.195 6.137 3.426-7.786 3.129Zm0 0"/><path fill="#fa9b7c" d="m90.102 263.621-6.137-3.426 3.531-23.062Zm0 0"/><path fill="#fe9d7c" d="m107.14 219.91-21.015-6.41 24.066-6.23Zm0 0"/><path fill="#fc9c7c" d="m86.125 213.5 21.016 6.41-8.844 12.754Zm0 0"/><path fill="#352a55" d="m86.125 213.5 5.316-15.684 18.75 9.454Zm0 0"/><path fill="#fd9d7c" d="m342.688 78.805 23.93-1.278-14.384.77Zm0 0"/><path fill="#29a7bd" d="m366.617 77.527-29.75-38.277 47.168 38.344Zm0 0"/><path fill="#fefcfe" d="m251.672 190.84 11.848-3.996-6.72 12.246Zm0 0"/><path fill="#362a55" d="m254.172 172.895 9.348 13.949-11.848 3.996Zm0 0"/><path fill="#352a55" d="m263.52 186.844-9.348-13.95 19.504 6.258Zm0 0"/><path fill="#fefcfe" d="m263.52 186.844 16.605.496-23.324 11.75ZM263.52 186.844l10.156-7.692 6.449 8.188ZM144.125 272.969l3.082-19.121 30.027 17.68Zm0 0"/><path fill="#fdfcfe" d="m147.207 253.848 55.66-3.649-25.633 21.328Zm0 0"/><path fill="#fefcfe" d="m204.64 241.332-61.984-3.059 12.957-19.414Zm0 0"/><path fill="#fefcfe" d="m204.64 241.332-57.433 12.516-4.55-15.575ZM147.207 253.848l57.434-12.516-1.774 8.867ZM302.344 229.488l-17.625-.035-9.082-5.043Zm0 0"/><path fill="#ed9479" d="m313.82 220.84-11.476 8.648 1.336-21.453Zm0 0"/><path fill="#352a55" d="m282.79 203.57 19.554 25.918-26.707-5.078Zm0 0"/><path fill="#a86c6b" d="m302.344 229.488-19.555-25.918 20.89 4.465Zm0 0"/><path fill="#fefcfe" d="m326.215 248.016 5.336-2.606 9.258 15.13Zm0 0"/><path fill="#fefcfe" d="m328.277 267.36-2.062-19.344 14.594 12.523Zm0 0"/><path fill="#fefcfe" d="m315.086 249.898 11.129-1.882 2.062 19.343Zm0 0"/><path fill="#382b55" d="m322.355 219.96 21.047 10.161-11.851 15.29Zm0 0"/><path fill="#fefcfe" d="m350.219 260.04-9.41.5 7.23-12.575ZM340.809 260.54l9.41-.5-6.063 25.28Zm0 0"/><path fill="#23acc0" d="m328.633 92.066 8.234-52.816 5.82 39.555Zm0 0"/><path fill="#28a8be" d="m336.867 39.25 29.75 38.277-23.93 1.278Zm0 0"/><path fill="#fefcfe" d="m132.32 262.254 14.887-8.406-3.082 19.12Zm0 0"/><path fill="#fefcfe" d="m147.207 253.848-14.887 8.406-3.363-12.734Zm0 0"/><path fill="#fcfcfe" d="m198.406 219.426 6.235 21.906-49.028-22.473Zm0 0"/><path fill="#352a55" d="m198.406 219.426-30.508-32.133 55.215 14.836ZM167.898 187.293l30.508 32.133-42.793-.567Zm0 0"/><path fill="#fefcfe" d="m326.215 248.016-3.86-28.055 9.196 25.45Zm0 0"/><path fill="#fefcfe" d="m322.355 219.96 3.86 28.056-12.395-27.176ZM313.82 220.84l12.395 27.176-11.13 1.882ZM313.82 220.84l13.793-19.91-5.258 19.03Zm0 0"/><path fill="#f3977a" d="m343.402 230.121-15.789-29.191 15.89 1.023Zm0 0"/><path fill="#362a55" d="m322.355 219.96 5.258-19.03 15.79 29.191Zm0 0"/></svg>