<svg xmlns="http://www.w3.org/2000/svg" width="512" height="512" viewBox="0 0 384 384"><path fill="#3a4a63" d="m186.93 53.363 36.222 26.211-12.789 14.68Zm0 0"/><path fill="#384962" d="m69.887 16.27 8.547 44.449-36.454-3.032Zm0 0"/><path fill="#273954" d="m78.434 60.719-8.547-44.45 66.64-16.285Zm0 0"/><path fill="#4e5d73" d="M.004 57.426.02 0l41.96 57.688Zm0 0"/><path fill="#42526a" d="m.02 0 69.867 16.27L41.98 57.688Zm0 0"/><path fill="#112543" d="m10.477 304.465-10.5-17.578 27.878-4.86Zm0 0"/><path fill="#cbcfd6" d="M21.914 76.648.004 57.426l41.976.261Zm0 0"/><path fill="#b1b5bf" d="M277.758 70.012 292.523-.004l37.946 61.606Zm0 0"/><path fill="#fefefe" d="m131.336 127.629-11.543-15.344 37.352 9.43ZM118.863 129.453l12.473-1.824-5.352 9.848Zm0 0"/><path fill="#fefefe" d="m131.336 127.629-12.473 1.824.93-17.168Zm0 0"/><path fill="#081d3c" d="m156.582 103.582 13.356 14.543-12.793 3.59Zm0 0"/><path fill="#fdfdfd" d="m271.496 304.754-3.902-18.09 23.09 1.367Zm0 0"/><path fill="#f9f9fa" d="m271.496 304.754-22.914-12.145 19.012-5.945Zm0 0"/><path fill="#fafbfa" d="m-.023 286.887 10.5 17.578L.004 326.988Zm0 0"/><path fill="#fdfdfd" d="m-.023 286.887 2.808-19.54 25.07 14.68Zm0 0"/><path fill="#0d213f" d="m244.738 303.36 3.844-10.75 12.95 20.43Zm0 0"/><path fill="#0b1f3c" d="m244.738 303.36-18.074-7.977 21.918-2.774Zm0 0"/><path fill="#fdfdfd" d="m226.664 295.383 18.074 7.976-2.746 22.215Zm0 0"/><path fill="#fdd653" d="m67.266 344.363 40.507 3.399-25.933 36.265Zm0 0"/><path fill="#fefefd" d="m6.895 180.41-4.11 86.938L-.03 118.03Zm0 0"/><path fill="#081d3b" d="m18.523 130.746 28.985 1.117-5.68 18.473Zm0 0"/><path fill="#abb0bb" d="M87.438 102.445 78.434 60.72l32.691 39.672Zm0 0"/><path fill="#fefefe" d="m92.148 116.867-4.71-14.422 23.687-2.054Zm0 0"/><path fill="#c9ced4" d="m44.031 86.543-22.117-9.895 20.066-18.96Zm0 0"/><path fill="#d4d7dd" d="M78.434 60.719 44.03 86.543l-2.05-28.856Zm0 0"/><path fill="#9098a6" d="M87.438 102.445 44.03 86.543l34.403-25.824Zm0 0"/><path fill="#364660" d="m292.523-.004 91.504.008-53.558 61.598Zm0 0"/><path fill="#081d3b" d="m89.89 143.246-10.577 12.918-17.454-14.3Zm0 0"/><path fill="#303832" d="m79.313 156.164 10.578-12.918-2.602 18.93Zm0 0"/><path fill="#adb2bc" d="m230.883 102.863-20.52-8.61 12.79-14.679Zm0 0"/><path fill="#a8aeb9" d="m247.094 56.848-16.211 46.015-7.73-23.289Zm0 0"/><path fill="#a4aab6" d="m230.883 102.863 16.21-46.015 30.665 13.164Zm0 0"/><path fill="#fefefe" d="m216.582 118.14-6.219-23.886 20.52 8.61Zm0 0"/><path fill="#081d3c" d="m214.766 185-32.016 8.988 10.75-39.558Zm0 0"/><path fill="#343b31" d="M253.04 198.453 214.765 185l38.199 12.055Zm0 0"/><path fill="#081d3c" d="m272.703 225.523 10.5 2.38-4.812 4.488Zm0 0"/><path fill="#fefefe" d="m245.734 253.762 26.97-28.239-13.161 34.282ZM272.703 225.523l-26.969 28.239-1.293-23.102Zm0 0"/><path fill="#fbfbfc" d="m248.582 292.61 7.52-11.544 11.492 5.598Zm0 0"/><path fill="#fefefe" d="m259.543 259.805-12.816 16.71-.993-22.753Zm0 0"/><path fill="#081d3b" d="m253.04 198.453 50.812 8.59-20.649 20.86Zm0 0"/><path fill="#fefefe" d="m367.996 262.945 16.008 52.075-21.184-8.239Zm0 0"/><path fill="#15263b" d="m357.559 255.191 10.437 7.754-14.187-.117Zm0 0"/><path fill="#fefefd" d="m384.004 315.02-36.863 14.132 15.68-22.37ZM337.762 307.648l9.379 21.504-31.625-12.777Zm0 0"/><path fill="#0b203e" d="m248.582 292.61 22.914 12.144-9.965 8.285Zm0 0"/><path fill="#fcfcfb" d="m241.992 325.574 2.746-22.215 16.793 9.68Zm0 0"/><path fill="#fefefd" d="m241.992 325.574 28.223-.148 16.437 31.808Zm0 0"/><path fill="#7b8696" d="m136.527-.016 80.594 21.797-30.191 31.582Zm0 0"/><path fill="#172b48" d="M247.094 56.848 217.12 21.78 292.523-.004Zm0 0"/><path fill="#8f97a5" d="m186.93 53.363 30.191-31.582 6.031 57.793Zm0 0"/><path fill="#606d81" d="m217.121 21.781 29.973 35.067-23.942 22.726Zm0 0"/><path fill="#30415b" d="m292.523-.004-75.402 21.785L136.527-.016Zm0 0"/><path fill="#fcfdfd" d="m124.277 103.129-4.484 9.156-8.668-11.894Zm0 0"/><path fill="#fefefe" d="m124.277 103.129 32.305.453.563 18.133Zm0 0"/><path fill="#fefefe" d="m119.793 112.285 4.484-9.156 32.868 18.586Zm0 0"/><path fill="#969eab" d="m124.277 103.129 62.653-49.766-30.348 50.219Zm0 0"/><path fill="#b2b7c1" d="m156.582 103.582 30.348-50.219 23.433 40.89Zm0 0"/><path fill="#32445d" d="M69.887 16.27.02 0l136.507-.016Zm0 0"/><path fill="#132745" d="m28.96 296.582-18.483 7.883 17.378-22.438Zm0 0"/><path fill="#fefefe" d="m46.71 255.488 4.794.762-21.082 17.383ZM51.504 256.25l-4.793-.762 5.535-20.308ZM39.484 223.14l-20.226-7.222 28.164-8.066ZM19.258 215.918l3.02 25.36-19.493 26.07Zm0 0"/><path fill="#fcf3d5" d="m185.133 384-47.485-32.352 45.247-27.601Zm0 0"/><path fill="#fdf4d5" d="M222.441 334.555 185.133 384l-2.238-59.953Zm0 0"/><path fill="#fefefd" d="m222.441 334.555 19.551-8.98 44.66 31.66Zm0 0"/><path fill="#fdfdfc" d="m222.441 334.555 4.223-39.172 15.328 30.191Zm0 0"/><path fill="#fcfbfa" d="m222.441 334.555-13.523-36.68 17.746-2.492Zm0 0"/><path fill="#fefdf7" d="m208.918 297.875 13.523 36.68-39.546-10.508Zm0 0"/><path fill="#fdd85a" d="m37.586 342.04 29.68 2.323 14.574 39.664Zm0 0"/><path fill="#fedb66" d="m-.004 383.996 37.59-41.957 44.254 41.988Zm0 0"/><path fill="#f9f9f9" d="m107.773 347.762 6.075-18.059 7.922.602Zm0 0"/><path fill="#fdfdfc" d="m107.773 347.762-23.066-22.77 29.14 4.711Zm0 0"/><path fill="#fbfaf6" d="m84.707 324.992 23.066 22.77-40.507-3.399Zm0 0"/><path fill="#fac101" d="m113.848 329.703-9.395-32.582 17.317 33.184Zm0 0"/><path fill="#fefefe" d="m121.77 330.305-17.317-33.184 49.05 24.14Zm0 0"/><path fill="#ede4c4" d="m81.84 384.027 55.808-32.379L185.133 384Zm0 0"/><path fill="#091d3b" d="m61.86 141.863-3.54 15.938-16.492-7.465Zm0 0"/><path fill="#fefefe" d="m6.895 180.41 46.19.637-5.663 26.805ZM18.523 130.746l18.829 30.047L6.895 180.41Zm0 0"/><path fill="#fefefe" d="m37.352 160.793 15.734 20.254-46.191-.637Zm0 0"/><path fill="#fefefe" d="m53.086 181.047-15.734-20.254 20.968-2.992ZM37.352 160.793l-18.829-30.047 23.305 19.59Zm0 0"/><path fill="#fefefe" d="m58.32 157.8-20.968 2.993 4.476-10.457ZM58.32 157.8l19.957 11.91-25.191 11.337Zm0 0"/><path fill="#081d3b" d="m113.39 166.438-17.617 5.558-8.484-9.82ZM72.633 236.223l-21.13 20.027.743-21.07Zm0 0"/><path fill="#0c1f3b" d="m51.504 256.25 21.129-20.027-12.258 23.359Zm0 0"/><path fill="#758192" d="M384.027.004v58.45l-53.558 3.148Zm0 0"/><path fill="#fefefe" d="m360.754 165.137 23.242-38.48.027 92.734ZM347.219 184.09l-21.364-2.63 6.59-13.214Zm0 0"/><path fill="#fefefe" d="m384.023 219.39-36.804-35.3 13.535-18.953Zm0 0"/><path fill="#fcc200" d="m365.36 129.07-43.958-12.937 28.786-11.934Zm0 0"/><path fill="#0e213a" d="m321.402 116.133 43.957 12.937-40.285 7.657Zm0 0"/><path fill="#fefefe" d="m113.602 142.39 5.261-12.937 7.121 8.024Zm0 0"/><path fill="#081d3b" d="m113.602 142.39-.211 24.048-26.102-4.262Zm0 0"/><path fill="#091d3b" d="m89.89 143.246 23.712-.855-26.313 19.785Zm0 0"/><path fill="#b0b5be" d="m264.094 105.031-33.211-2.168 46.875-32.851Zm0 0"/><path fill="#b6bac3" d="m294.64 108.824-30.546-3.793 13.664-35.02Zm0 0"/><path fill="#fefefe" d="m264.094 105.031-18.18 17.91-15.031-20.078ZM264.094 105.031l30.547 3.793-22.86 22.934ZM271.566 262.117l12.598-27.629 6.738 33.282Zm0 0"/><path fill="#081d3c" d="m283.203 227.902.961 6.586-5.773-2.097Zm0 0"/><path fill="#fefefe" d="m275.04 275.836-3.474-13.719 19.336 5.653Zm0 0"/><path fill="#fefefe" d="m290.684 288.031-15.645-12.195 15.863-8.066Zm0 0"/><path fill="#fcfdfd" d="m275.04 275.836 15.644 12.195-23.09-1.367Zm0 0"/><path fill="#a38616" d="m271.566 262.117-10.582 8.93-1.441-11.242Zm0 0"/><path fill="#fdfdfd" d="m260.984 271.047 14.055 4.789-7.445 10.828Zm0 0"/><path fill="#fefefe" d="m275.04 275.836-14.056-4.79 10.582-8.929Zm0 0"/><path fill="#fefefd" d="m347.59 302.988 20.406-40.043-5.176 43.836Zm0 0"/><path fill="#f4bd03" d="m367.996 262.945-20.406 40.043 6.219-40.16Zm0 0"/><path fill="#fefefc" d="m347.14 329.152.45-26.164 15.23 3.793Zm0 0"/><path fill="#fefefd" d="m347.59 302.988-.45 26.164-9.378-21.504Zm0 0"/><path fill="#fefefe" d="m246.727 276.516-16.497-4.801 15.504-17.953Zm0 0"/><path fill="#081d3b" d="M214.766 185 201.5 217.953l-18.75-23.965Zm0 0"/><path fill="#fdfdfd" d="m246.727 276.516 9.375 4.55-7.52 11.543Zm0 0"/><path fill="#fefefe" d="m347.219 184.09-14.774-15.844 28.309-3.11ZM302.254 159.41l20.613-4.883 9.578 13.72Zm0 0"/><path fill="#081d3b" d="m273.719 146.168 20.422-3.813-1.383 23.766Zm0 0"/><path fill="#fefefe" d="M347.219 184.09 337 193.246l-11.145-11.785ZM325.855 181.46l-23.601-22.05 30.191 8.836Zm0 0"/><path fill="#091e3b" d="m276.398 189.324-23.359 9.13-.074-1.4Zm0 0"/><path fill="#081d3b" d="m276.398 189.324 27.454 17.719-50.813-8.59Zm0 0"/><path fill="#fdfdfd" d="m351.41 217.418-4.191-33.328 25.215 38.34Zm0 0"/><path fill="#fefefe" d="m347.219 184.09 4.191 33.328L337 193.246Zm0 0"/><path fill="#f8f1d9" d="M383.988 384.012 286.805 384l-.153-26.766Zm0 0"/><path fill="#fefdfb" d="m347.14 329.152-60.488 28.082 28.864-40.859Zm0 0"/><path fill="#fefdfa" d="m347.14 329.152 36.848 54.86-97.336-26.778Zm0 0"/><path fill="#081d3b" d="m347.59 302.988-9.828 4.66-16.45-18.976Zm0 0"/><path fill="#4a596f" d="m118.188 49.059 6.09 54.07-13.153-2.738Zm0 0"/><path fill="#6f7b8d" d="m118.188 49.059 68.742 4.304-62.653 49.766Zm0 0"/><path fill="#3d4d66" d="m78.434 60.719 39.754-11.66-7.063 51.332Zm0 0"/><path fill="#818a9a" d="m118.188 49.059-39.754 11.66L136.527-.016Zm0 0"/><path fill="#dee0e4" d="m186.93 53.363-68.742-4.304 18.34-49.075Zm0 0"/><path fill="#0a1e3b" d="m23.875 260.453 22.836-4.965-16.29 18.145Zm0 0"/><path fill="#fefefe" d="m2.785 267.348 21.09-6.895 6.547 13.18Zm0 0"/><path fill="#fdfefd" d="m27.855 282.027-25.07-14.68 27.637 6.286Zm0 0"/><path fill="#fdd652" d="m-.004 383.996.008-57.008 37.582 15.051Zm0 0"/><path fill="#091e3b" d="m62.05 213.258 11.345-.89-.762 23.855Zm0 0"/><path fill="#0a1e3b" d="m46.71 255.488-16.812-11.254 22.348-9.054Zm0 0"/><path fill="#081d3b" d="m23.875 260.453 6.023-16.219 16.813 11.254Zm0 0"/><path fill="#fcfbf7" d="m137.648 351.648-15.878-21.343 31.734-9.043Zm0 0"/><path fill="#fdfbf6" d="m137.648 351.648-29.875-3.886 13.997-17.457Zm0 0"/><path fill="#fcd655" d="m107.773 347.762 29.875 3.886-55.808 32.38Zm0 0"/><path fill="#fbf0c9" d="m222.441 334.555 64.211 22.68L185.132 384Zm0 0"/><path fill="#faeec3" d="m185.133 384 101.52-26.766.152 26.766Zm0 0"/><path fill="#efcf64" d="M-.031 118.031 44.03 86.543l-25.508 44.203Zm0 0"/><path fill="#fefefd" d="m-.031 118.031 18.554 12.715L6.895 180.41Zm0 0"/><path fill="#0a1e3b" d="m44.39 124.137 3.118 7.726-28.985-1.117Zm0 0"/><path fill="#fcc200" d="m44.031 86.543.36 37.594-25.868 6.61Zm0 0"/><path fill="#fefefe" d="m87.438 102.445 4.71 14.422-48.117-30.324ZM19.258 215.918l-16.473 51.43 4.11-86.938Zm0 0"/><path fill="#fefefd" d="M19.258 215.918 6.895 180.41l40.527 27.442Zm0 0"/><path fill="#fefefe" d="m53.086 181.047 7.84 10.754-13.504 16.05Zm0 0"/><path fill="#fff" d="m83.57 183.867-22.644 7.934-7.84-10.754Zm0 0"/><path fill="#fefefe" d="m78.277 169.71 5.293 14.157-30.484-2.82ZM78.277 169.71l1.035-13.546 7.977 6.012Zm0 0"/><path fill="#fefefe" d="m95.773 171.996-17.496-2.285 9.012-7.535Zm0 0"/><path fill="#091e3b" d="m61.86 141.863 17.453 14.301-20.993 1.637Zm0 0"/><path fill="#fefefe" d="m79.313 156.164-1.036 13.547L58.32 157.8Zm0 0"/><path fill="#fefefb" d="m104.453 297.121 49.465-3.219-.414 27.36Zm0 0"/><path fill="#2c3d57" d="m104.453 297.121 38.027-17.394 11.438 14.175Zm0 0"/><path fill="#132644" d="m108.723 286.582-4.27 10.54-6.887-4.286Zm0 0"/><path fill="#fefefe" d="m83.57 183.867 12.203-11.87 1.653 15.273ZM83.57 183.867l-5.293-14.156 17.496 2.285Zm0 0"/><path fill="#081d3b" d="m114.64 229.887 7.438 6.172-5.035 3.308Zm0 0"/><path fill="#fefefe" d="m110.316 180.176 3.641 14.203-16.531-7.11Zm0 0"/><path fill="#fefefe" d="m95.773 171.996 14.543 8.18-12.89 7.094Zm0 0"/><path fill="#081d3b" d="m110.316 180.176-14.543-8.18 17.618-5.559Zm0 0"/><path fill="#fefefe" d="m72.633 236.223.762-23.856 3.812 17.09Zm0 0"/><path fill="#5d5b3b" d="m87.809 235.715-15.176.508 4.574-6.766Zm0 0"/><path fill="#fefefe" d="m116.8 261.715-11.542-12.649 8.508-2.144Zm0 0"/><path fill="#081d3c" d="m122.367 254.992-5.566 6.723-3.035-14.793Zm0 0"/><path fill="#0b203e" d="m116.8 261.715 5.567-6.723 8.945 8.168Zm0 0"/><path fill="#2a3c56" d="m384.027 58.453-30.066 15.879-23.492-12.73Zm0 0"/><path fill="#fefefe" d="m383.996 126.656-.016-50.988.043 143.723Zm0 0"/><path fill="#fdc300" d="m350.188 104.2 3.773-29.868 11.004 8.277Zm0 0"/><path fill="#c5c9d0" d="m364.965 82.61 19.015-6.942.016 50.988Zm0 0"/><path fill="#e0e1e3" d="m364.965 82.61-11.004-8.278 30.02 1.336Zm0 0"/><path fill="#fefefe" d="m366.363 129.016 17.633-2.36-23.242 38.48ZM365.36 129.07l1.003-.054-5.61 36.12Zm0 0"/><path fill="#637083" d="m277.758 70.012-30.664-13.164 45.43-56.852Zm0 0"/><path fill="#3b3f2f" d="m321.402 116.133-12.21-8.336 22.84-17Zm0 0"/><path fill="#e4e5e9" d="m332.031 90.797-22.84 17 15.899-23.633Zm0 0"/><path fill="#364660" d="m353.96 74.332-28.87 9.832 5.379-22.562Zm0 0"/><path fill="#081d3b" d="m69.242 124.8 20.649 18.446-28.032-1.383Zm0 0"/><path fill="#f2be10" d="m69.242 124.8-4.531-8.03 27.437.097Zm0 0"/><path fill="#fefefe" d="m119.793 112.285-27.645 4.582 18.977-16.476Zm0 0"/><path fill="#091e3b" d="m92.148 116.867 21.454 25.524-23.711.855Zm0 0"/><path fill="#6c6123" d="m69.242 124.8 22.906-7.933-2.257 26.38Zm0 0"/><path fill="#fefefe" d="m118.863 129.453-26.715-12.586 27.645-4.582Zm0 0"/><path fill="#fefefe" d="m113.602 142.39-21.454-25.523 26.715 12.586Zm0 0"/><path fill="#081d3b" d="M159.902 132.371 193.5 154.43l-46.02 1.468Zm0 0"/><path fill="#091d3b" d="m169.938 118.125-10.036 14.246-2.757-10.656Zm0 0"/><path fill="#081d3b" d="m159.902 132.371-28.566-4.742 25.809-5.914ZM193.5 154.43l-10.75 39.558-11.691-7.453Zm0 0"/><path fill="#fefefe" d="m261.164 134.605 2.93-29.574 7.687 26.727Zm0 0"/><path fill="#fefefe" d="m264.094 105.031-2.93 29.574-15.25-11.664Zm0 0"/><path fill="#081d3b" d="m261.164 134.605-24.562 10.73 9.312-22.394Zm0 0"/><path fill="#fefefe" d="m271.781 131.758 4.043 1.781-2.105 12.629Zm0 0"/><path fill="#081d3b" d="m294.14 142.355-18.316-8.816 17.992-18.484Zm0 0"/><path fill="#081d3b" d="m275.824 133.54 18.317 8.815-20.422 3.813Zm0 0"/><path fill="#fefefe" d="m275.824 133.54 18.817-24.716-.825 6.23ZM294.64 108.824l-18.816 24.715-4.043-1.781ZM271.781 131.758l-1.18 14.426-9.437-11.579Zm0 0"/><path fill="#fefefe" d="m270.602 146.184 1.18-14.426 1.937 14.41ZM169.938 118.125l-13.356-14.543 53.781-9.328Zm0 0"/><path fill="#081d3b" d="m248.957 220.11 4.082-21.657 30.164 29.45Zm0 0"/><path fill="#fefefe" d="m272.703 225.523-23.746-5.414 34.246 7.793ZM248.957 220.11l23.746 5.413-28.262 5.137Zm0 0"/><path fill="#fefefe" d="m232.012 216.25 16.945 3.86-4.516 10.55Zm0 0"/><path fill="#fefefe" d="m232.012 216.25 12.43 14.41-13.493-12.36Zm0 0"/><path fill="#081d3b" d="m278.39 232.39 5.774 2.098-12.598 27.63Zm0 0"/><path fill="#091d3b" d="m278.39 232.39-6.824 29.727-12.023-2.312Zm0 0"/><path fill="#081d3b" d="m272.703 225.523 5.688 6.868-18.848 27.414Zm0 0"/><path fill="#a68815" d="m260.984 271.047-14.257 5.469 12.816-16.711Zm0 0"/><path fill="#fdfdfe" d="m256.102 281.066 4.882-10.02 6.61 15.618Zm0 0"/><path fill="#fafbfb" d="m246.727 276.516 14.257-5.47-4.882 10.02Zm0 0"/><path fill="#162946" d="m208.918 297.875 1.312-23.012 16.434 20.52Zm0 0"/><path fill="#fefefe" d="m244.441 230.66-24.832 11.48 11.34-23.84ZM245.734 253.762 219.61 242.14l24.832-11.48Zm0 0"/><path fill="#fefefe" d="m230.23 271.715-10.62-29.574 26.124 11.62Zm0 0"/><path fill="#20324e" d="m171.96 271.691-.401 23.622-17.641-1.41Zm0 0"/><path fill="#fefefe" d="m194.496 290.191 14.422 7.684-26.023 26.172Zm0 0"/><path fill="#fdfdfe" d="m171.559 295.313 22.937-5.122-11.601 33.856Zm0 0"/><path fill="#21344f" d="m210.23 274.863-15.734 15.328-.73-15.64Zm0 0"/><path fill="#21334f" d="m194.496 290.191 15.734-15.328-1.312 23.012Zm0 0"/><path fill="#33445e" d="m194.496 290.191-22.535-18.5 21.805 2.86Zm0 0"/><path fill="#374761" d="m171.96 271.691 22.536 18.5-22.937 5.122Zm0 0"/><path fill="#081d3c" d="m201.5 217.953 30.512-1.703-1.063 2.05Zm0 0"/><path fill="#081d3b" d="m232.012 216.25-30.512 1.703L214.766 185Zm0 0"/><path fill="#fefefe" d="m204.477 259.266 5.753 15.597-16.464-.312Zm0 0"/><path fill="#fefefe" d="m210.23 274.863-5.753-15.597 25.753 12.449Zm0 0"/><path fill="#fdfdfd" d="m155.074 218.008 10.246 10.582-20.027 14.793Zm0 0"/><path fill="#0b1f3b" d="m365.36 129.07-27.133 22.059-13.153-14.402Zm0 0"/><path fill="#fefefe" d="m338.227 151.129-5.782 17.117-9.578-13.719ZM338.227 151.129l27.132-22.059-4.605 36.067ZM332.445 168.246l5.782-17.117 22.527 14.008Zm0 0"/><path fill="#091e3b" d="m303.852 207.043 7.714-16.008 8.145 11.793Zm0 0"/><path fill="#0a1e3b" d="m311.566 191.035-35.168-1.71 26.18-14.055Zm0 0"/><path fill="#091d3b" d="m276.398 189.324 35.168 1.711-7.714 16.008Zm0 0"/><path fill="#fefefe" d="m325.855 181.46-23.277-6.19-.324-15.86Zm0 0"/><path fill="#122439" d="m311.566 191.035-8.988-15.765 23.277 6.19Zm0 0"/><path fill="#fdfdfd" d="m372.434 222.43-25.215-38.34 36.804 35.3Zm0 0"/><path fill="#fefefe" d="m384.004 315.02-16.008-52.075 16.027-43.554ZM384.023 219.39l-16.027 43.555 4.438-40.515Zm0 0"/><path fill="#fefdfb" d="m347.14 329.152 36.864-14.132-.016 68.992Zm0 0"/><path fill="#f4bc02" d="m302.605 294.844-25.8 22.258 13.879-29.07Zm0 0"/><path fill="#fdfdfd" d="m276.805 317.102-5.309-12.348 19.188-16.723Zm0 0"/><path fill="#212f3c" d="m261.531 313.04 15.274 4.062-6.59 8.324Zm0 0"/><path fill="#fcfcfa" d="m241.992 325.574 19.54-12.535 8.683 12.387Zm0 0"/><path fill="#0e2240" d="m276.805 317.102-15.274-4.063 9.965-8.285Zm0 0"/><path fill="#fefefe" d="m284.164 234.488 13.652 3.196-6.914 30.086Zm0 0"/><path fill="#081d3c" d="m297.816 237.684 13.567 30.972-20.48-.886Zm0 0"/><path fill="#fefefe" d="m339.926 264.781 7.664 38.207-26.277-14.316Zm0 0"/><path fill="#4f4d2b" d="m330.426 263.125 9.5 1.656-18.613 23.89Zm0 0"/><path fill="#fefefe" d="m276.805 317.102 9.847 40.132-16.437-31.808ZM315.516 316.375l-32.989 2.844 20.078-24.375Zm0 0"/><path fill="#e8b405" d="m282.527 319.219-5.722-2.117 25.8-22.258Zm0 0"/><path fill="#fefefe" d="m282.527 319.219 4.125 38.015-9.847-40.132Zm0 0"/><path fill="#fefefd" d="m286.652 357.234-4.125-38.015 32.989-2.844Zm0 0"/><path fill="#fefefe" d="m51.504 256.25.437 9.55-21.52 7.833ZM23.84 260.387l.035.066-21.09 6.895ZM29.898 244.234l-6.058 16.153-1.563-19.11Zm0 0"/><path fill="#fefefe" d="m23.84 260.387 6.058-16.153-6.023 16.22Zm0 0"/><path fill="#0c203c" d="m27.855 282.027 5.215 12.555-4.11 2Zm0 0"/><path fill="#f7be01" d="m38.637 279.938-10.782 2.09 2.567-8.395Zm0 0"/><path fill="#f7be01" d="m38.637 279.938-5.567 14.644-5.215-12.555Zm0 0"/><path fill="#102340" d="m28.96 296.582 13.774 17.95-32.257-10.067Zm0 0"/><path fill="#fdfdfb" d="M42.734 314.531.004 326.988l10.473-22.523Zm0 0"/><path fill="#14253b" d="m33.07 294.582 9.664 19.95-13.773-17.95Zm0 0"/><path fill="#fefefe" d="m78.89 281.781-18.515-22.199 16.879 2.883Zm0 0"/><path fill="#0e223f" d="m84.707 324.992 12.758-10.781 16.383 15.492Zm0 0"/><path fill="#fcc202" d="m97.465 314.21 6.988-17.089 9.395 32.582Zm0 0"/><path fill="#081d3b" d="m62.05 213.258 10.583 22.965-20.387-1.043Zm0 0"/><path fill="#fef4d5" d="m137.648 351.648 15.856-30.386 29.39 2.785Zm0 0"/><path fill="#fefdfb" d="m153.504 321.262 18.055-25.95 11.336 28.735Zm0 0"/><path fill="#fdfdfd" d="m171.559 295.313-18.055 25.949.414-27.36Zm0 0"/><path fill="#fac101" d="m42.734 314.531-9.664-19.949 8.082.102Zm0 0"/><path fill="#9ea5af" d="M21.914 76.648-.03 118.031l.035-60.605Zm0 0"/><path fill="#fbc81c" d="m-.031 118.031 21.945-41.383 22.117 9.895Zm0 0"/><path fill="#081d3b" d="m47.508 131.863 14.351 10-20.03 8.473ZM64.71 116.77l-17.202 15.093-3.117-7.726Zm0 0"/><path fill="#987e18" d="m92.148 116.867-27.437-.097-20.68-30.227Zm0 0"/><path fill="#fcc200" d="m64.71 116.77-20.32 7.367-.359-37.594Zm0 0"/><path fill="#081d3b" d="m62.05 213.258-22.566 9.883 7.938-15.29Zm0 0"/><path fill="#112339" d="m60.926 191.8 1.125 21.458-14.63-5.406Zm0 0"/><path fill="#0c213f" d="m104.453 297.121 4.27-10.539 33.757-6.855Zm0 0"/><path fill="#0a1e3c" d="m108.723 286.582 18.402-12.48 15.355 5.625Zm0 0"/><path fill="#eab605" d="m127.125 274.102 18.543-.797-3.188 6.422Zm0 0"/><path fill="#081d3b" d="M71.398 207.477 60.926 191.8l22.644-7.934Zm0 0"/><path fill="#fefefe" d="m71.398 207.477 1.997 4.89-11.344.89Zm0 0"/><path fill="#081d3b" d="m60.926 191.8 10.472 15.677-9.347 5.78Zm0 0"/><path fill="#fefefe" d="m131.863 226.398 23.211-8.39-9.781 25.375ZM122.078 236.059l9.785-9.66 13.43 16.984Zm0 0"/><path fill="#fcfcfc" d="m131.863 226.398-9.785 9.66-7.437-6.171Zm0 0"/><path fill="#081d3b" d="m135.125 204.324-3.262 22.074-17.222 3.489Zm0 0"/><path fill="#091d3b" d="m131.863 226.398 3.262-22.074 19.95 13.684Zm0 0"/><path fill="#081d3b" d="m122.078 236.059 5.77 12.238-10.805-8.93Zm0 0"/><path fill="#081d3b" d="m117.043 239.367 10.805 8.93-14.082-1.375ZM127.848 248.297l-5.48 6.695-8.602-8.07Zm0 0"/><path fill="#fcfcfd" d="m127.848 248.297-5.77-12.238 23.215 7.324Zm0 0"/><path fill="#081d3b" d="m122.367 254.992 5.48-6.695 3.466 14.863Zm0 0"/><path fill="#fefefe" d="m127.848 248.297 17.445-4.914-13.98 19.777Zm0 0"/><path fill="#081d3b" d="m99.184 208.773 14.773-14.394 12.332 9.918Zm0 0"/><path fill="#fefefe" d="m129.473 199.129-7.547-12.98 13.176 9.617Zm0 0"/><path fill="#091e3b" d="m129.473 199.129 5.652 5.195-8.836-.027Zm0 0"/><path fill="#081d3c" d="m113.957 194.379 15.516 4.75-3.184 5.168Zm0 0"/><path fill="#fefefe" d="m129.473 199.129-15.516-4.75 7.969-8.23Zm0 0"/><path fill="#081d3b" d="m171.059 186.535-42.153-12.555 18.574-18.082Zm0 0"/><path fill="#081d3c" d="m113.602 142.39 12.43 20.137-12.641 3.91Zm0 0"/><path fill="#fefefe" d="m73.395 212.367 8.394 4.98-4.582 12.11Zm0 0"/><path fill="#091e3b" d="m81.79 217.348 6.019 18.367-10.602-6.258Zm0 0"/><path fill="#081d3b" d="m87.809 235.715-6.02-18.367 32.852 12.539Zm0 0"/><path fill="#0d213a" d="M98.094 258.453 84.69 262.82l3.118-27.105Zm0 0"/><path fill="#fefefe" d="m105.258 249.066-7.164 9.387-10.285-22.738Zm0 0"/><path fill="#fefefe" d="m116.8 261.715-18.706-3.262 7.164-9.387Zm0 0"/><path fill="#f2bb02" d="m321.402 116.133 10.63-25.336 18.156 13.402Zm0 0"/><path fill="#fec300" d="m332.031 90.797 21.93-16.465-3.774 29.867Zm0 0"/><path fill="#fbfbfc" d="m332.031 90.797-6.941-6.633 28.87-9.832Zm0 0"/><path fill="#fbfbfb" d="m366.363 129.016-16.175-24.817 33.808 22.457Zm0 0"/><path fill="#f9f9f7" d="m350.188 104.2 14.777-21.59 19.031 44.046Zm0 0"/><path fill="#fdfdfd" d="m365.36 129.07-15.173-24.87 16.176 24.816Zm0 0"/><path fill="#747f90" d="m277.758 70.012 47.332 14.152-30.45 24.66Zm0 0"/><path fill="#122439" d="m303.777 153.152-9.636-10.797 28.726 12.172Zm0 0"/><path fill="#fefefe" d="m302.254 159.41 1.523-6.258 19.09 1.375Zm0 0"/><path fill="#2a3433" d="m311.945 121.773-17.804 20.582-.325-27.3Zm0 0"/><path fill="#665d28" d="m311.945 121.773-2.754-13.976 12.211 8.336Zm0 0"/><path fill="#fefefe" d="m294.64 108.824 17.305 12.95-18.129-6.72ZM311.945 121.773l-17.304-12.949 14.55-1.027Zm0 0"/><path fill="#f8f8f9" d="m309.191 107.797-14.55 1.027 30.449-24.66Zm0 0"/><path fill="#081d3b" d="m47.508 131.863 21.734-7.062-7.383 17.062ZM69.242 124.8l-21.734 7.063L64.71 116.77Zm0 0"/><path fill="#081d3c" d="m193.5 154.43-22.441 32.105-23.579-30.637Zm0 0"/><path fill="#081d3b" d="m131.336 127.629 16.144 28.27-21.496-18.422ZM159.902 132.371l-12.422 23.527-16.144-28.27Zm0 0"/><path fill="#081d3c" d="m147.48 155.898-18.574 18.082-15.515-7.542Zm0 0"/><path fill="#081d3b" d="M236.602 145.336 193.5 154.43l34.59-31.774Zm0 0"/><path fill="#fefefe" d="m245.914 122.941-17.824-.285 2.793-19.793Zm0 0"/><path fill="#081d3b" d="m236.602 145.336-8.512-22.68 17.824.285ZM228.09 122.656l-11.508-4.515 14.3-15.278ZM214.766 185 193.5 154.43l43.102-9.094Zm0 0"/><path fill="#081d3b" d="m214.766 185 21.836-39.664 21.203 27.281Zm0 0"/><path fill="#fefefe" d="m276.398 189.324-4.3-8.64 30.48-5.414Zm0 0"/><path fill="#081d3b" d="M169.938 118.125 193.5 154.43l-33.598-22.059Zm0 0"/><path fill="#635a25" d="m253.04 198.453-21.028 17.797L214.766 185Zm0 0"/><path fill="#081d3b" d="m232.012 216.25 21.027-17.797-4.082 21.656Zm0 0"/><path fill="#21334e" d="m210.23 274.863 20.52 7.403-4.086 13.117Zm0 0"/><path fill="#fbfbfc" d="m230.75 282.266 15.977-5.75 1.855 16.093Zm0 0"/><path fill="#30415a" d="m226.664 295.383 4.086-13.117 17.832 10.343Zm0 0"/><path fill="#0d213c" d="m230.75 282.266-.52-10.551 16.497 4.8Zm0 0"/><path fill="#172a44" d="m230.75 282.266-20.52-7.403 20-3.148Zm0 0"/><path fill="#162943" d="m142.48 279.727 3.188-6.422 8.25 20.597Zm0 0"/><path fill="#20324c" d="m145.668 273.305 26.293-1.614-18.043 22.211Zm0 0"/><path fill="#fefefe" d="m173.324 259.035 31.153.23-10.711 15.286Zm0 0"/><path fill="#fdfdfe" d="m171.96 271.691 1.364-12.656 20.442 15.516Zm0 0"/><path fill="#fefefe" d="m204.477 259.266 15.132-17.125 10.621 29.574ZM219.61 242.14l-18.11-24.187 29.45.348Zm0 0"/><path fill="#0b1f3b" d="m294.14 142.355 30.934-5.628-2.207 17.8Zm0 0"/><path fill="#091d3b" d="m325.074 136.727 13.153 14.402-15.36 3.398Zm0 0"/><path fill="#0c1f3a" d="m311.945 121.773 13.13 14.954-30.934 5.628Zm0 0"/><path fill="#10223a" d="m325.074 136.727-13.129-14.954 9.457-5.64Zm0 0"/><path fill="#142539" d="m311.566 191.035 17.664 7.93-9.52 3.863Zm0 0"/><path fill="#172738" d="m329.23 198.965-17.664-7.93 14.29-9.574Zm0 0"/><path fill="#766721" d="m337 193.246-7.77 5.719-3.375-17.504Zm0 0"/><path fill="#fefefe" d="m302.254 159.41.324 15.86-9.82-9.149Zm0 0"/><path fill="#081d3b" d="m294.14 142.355 8.114 17.055-9.496 6.711ZM303.777 153.152l-1.523 6.258-8.113-17.055Zm0 0"/><path fill="#fefefe" d="m302.578 175.27-30.48 5.414 20.66-14.563Zm0 0"/><path fill="#47482f" d="m360.52 235.523 7.476 27.422-10.437-7.754Zm0 0"/><path fill="#fefefe" d="m360.52 235.523-9.11-18.105 21.024 5.012Zm0 0"/><path fill="#fdfdfd" d="m367.996 262.945-7.476-27.422 11.914-13.093Zm0 0"/><path fill="#091d3b" d="m324.215 225.406 18.328 2.5-6.746 25.051Zm0 0"/><path fill="#fefefe" d="m316.516 276.867 13.91-13.742-9.113 25.547ZM330.426 263.125l-13.91 13.742-5.133-8.21Zm0 0"/><path fill="#081d3c" d="m308.512 281.957-17.828 6.074.218-20.261Zm0 0"/><path fill="#081d3b" d="m311.383 268.656-2.871 13.301-17.61-14.187Zm0 0"/><path fill="#fefefe" d="m316.516 276.867-8.004 5.09 2.87-13.3Zm0 0"/><path fill="#081d3c" d="m308.512 281.957-5.907 12.887-11.921-6.813Zm0 0"/><path fill="#7e7954" d="m335.797 252.957 4.129 11.824-9.5-1.656Zm0 0"/><path fill="#fefefe" d="m347.59 302.988-7.664-38.207 13.883-1.953ZM315.516 316.375l5.796-27.703 16.45 18.976ZM60.375 259.582l-8.434 6.219-.437-9.551Zm0 0"/><path fill="#fbc100" d="m33.07 294.582 5.567-14.644 2.515 14.746Zm0 0"/><path fill="#fefefe" d="m51.941 265.8-13.304 14.137-8.215-6.304ZM22.277 241.277l1.563 19.11-21.055 6.96Zm0 0"/><path fill="#fefefd" d="m.004 326.988 43.793-7.039-6.211 22.09Zm0 0"/><path fill="#fefefd" d="m42.734 314.531 1.063 5.418-43.793 7.04Zm0 0"/><path fill="#fefefb" d="m43.797 319.95 23.469 24.413-29.68-2.324Zm0 0"/><path fill="#081d3b" d="m84.691 262.82-5.8 18.961-1.637-19.316Zm0 0"/><path fill="#fec300" d="m97.465 314.21.101-21.374 6.887 4.285Zm0 0"/><path fill="#081d3c" d="m84.691 262.82 12.875 30.016-18.675-11.055Zm0 0"/><path fill="#cfa30b" d="m78.89 281.781-18.581-3.148.066-19.051Zm0 0"/><path fill="#fefefe" d="m60.375 259.582-.066 19.05-8.368-12.831Zm0 0"/><path fill="#26374e" d="m38.637 279.938 21.672-1.305-19.157 16.05Zm0 0"/><path fill="#fefefe" d="m60.309 278.633-21.672 1.305L51.94 265.8Zm0 0"/><path fill="#1c2f4b" d="m60.309 278.633 10.293 19.66-29.45-3.61Zm0 0"/><path fill="#404f66" d="m60.309 278.633 18.582 3.148-8.29 16.512Zm0 0"/><path fill="#fefefe" d="m39.484 223.14-9.586 21.094-7.62-2.957ZM39.484 223.14l-17.207 18.137-3.02-25.359Zm0 0"/><path fill="#081d3b" d="m29.898 244.234 9.586-21.093 12.762 12.039Zm0 0"/><path fill="#0c1f3a" d="m39.484 223.14 22.567-9.882-9.805 21.922Zm0 0"/><path fill="#fefdf9" d="m67.266 344.363-18.024-30.59 35.465 11.22Zm0 0"/><path fill="#fefdf9" d="m43.797 319.95 5.445-6.177 18.024 30.59Zm0 0"/><path fill="#f7f0d9" d="m49.242 313.773-5.445 6.176-1.063-5.418Zm0 0"/><path fill="#22303b" d="m70.602 298.293-21.36 15.48-8.09-19.09Zm0 0"/><path fill="#fac208" d="m49.242 313.773-6.508.758-1.582-19.847Zm0 0"/><path fill="#293a54" d="m49.242 313.773 21.36-15.48 14.105 26.7Zm0 0"/><path fill="#786821" d="m131.313 263.16 14.355 10.145-18.543.797Zm0 0"/><path fill="#081d3b" d="m93.695 197.578-22.297 9.899 12.172-23.61Zm0 0"/><path fill="#081d3b" d="m93.695 197.578-10.125-13.71 13.856 3.402Zm0 0"/><path fill="#091d3b" d="m71.398 207.477 22.297-9.899-20.3 14.79Zm0 0"/><path fill="#081d3b" d="m113.957 194.379-20.262 3.2 3.73-10.31Zm0 0"/><path fill="#081d3b" d="m99.184 208.773-5.489-11.195 20.262-3.2Zm0 0"/><path fill="#fefefe" d="m87.809 235.715 20.457 2.117-3.008 11.234Zm0 0"/><path fill="#081d3b" d="m108.266 237.832 8.777 1.535-3.277 7.555Zm0 0"/><path fill="#fefefe" d="m105.258 249.066 3.008-11.234 5.5 9.09Zm0 0"/><path fill="#081d3b" d="m108.266 237.832 6.375-7.945 2.402 9.48Zm0 0"/><path fill="#fefefe" d="m108.266 237.832-20.457-2.117 26.832-5.828ZM113.957 194.379l-3.64-14.203 11.609 5.972Zm0 0"/><path fill="#0b1f3b" d="m121.926 186.148 6.98-12.168 6.196 21.786Zm0 0"/><path fill="#081d3b" d="m128.906 173.98-18.59 6.196 3.075-13.738ZM110.316 180.176l18.59-6.196-6.98 12.168Zm0 0"/><path fill="#fefefe" d="m126.031 162.527-12.43-20.136 12.383-4.914Zm0 0"/><path fill="#081d3b" d="m147.48 155.898-21.449 6.63-.047-25.051Zm0 0"/><path fill="#091e3d" d="m126.031 162.527 21.45-6.629-34.09 10.54Zm0 0"/><path fill="#fefefe" d="m72.633 236.223 4.62 26.242-16.878-2.883Zm0 0"/><path fill="#081d3b" d="m81.79 217.348 17.394-8.575 15.457 21.114Zm0 0"/><path fill="#0a1e3b" d="m99.184 208.773 35.941-4.449-20.484 25.563Zm0 0"/><path fill="#847b4b" d="m135.125 204.324-35.941 4.45 27.105-4.477Zm0 0"/><path fill="#fefefe" d="m113.41 273.719-15.316-15.266 18.707 3.262Zm0 0"/><path fill="#fefefe" d="m113.41 273.719 3.39-12.004 14.513 1.445Zm0 0"/><path fill="#f3f4f5" d="m127.125 274.102-13.715-.383 17.903-10.559Zm0 0"/><path fill="#081d3c" d="m108.723 286.582 4.687-12.863 13.715.383Zm0 0"/><path fill="#828b9b" d="m277.758 70.012 52.71-8.41-5.378 22.562Zm0 0"/><path fill="#fefefe" d="m270.602 146.184-12.797 26.433 3.36-38.012Zm0 0"/><path fill="#081d3b" d="m257.805 172.617-21.203-27.281 24.562-10.73Zm0 0"/><path fill="#c69d0d" d="m214.766 185 43.039-12.383-4.84 24.438Zm0 0"/><path fill="#081d3b" d="m193.5 154.43 23.082-36.29 11.508 4.516ZM216.582 118.14 193.5 154.43l-23.562-36.305Zm0 0"/><path fill="#fefefe" d="m216.582 118.14-46.644-.015 40.425-23.871ZM165.32 228.59l16.942 10.676-36.969 4.117Zm0 0"/><path fill="#fefefe" d="m173.324 259.035 8.938-19.77 22.215 20Zm0 0"/><path fill="#fefefe" d="m182.262 239.266 37.347 2.875-15.132 17.125ZM219.61 242.14l-37.348-2.874 19.238-21.313Zm0 0"/><path fill="#0e213a" d="m272.633 167.2-.535 13.484-14.293-8.067Zm0 0"/><path fill="#091d3b" d="m270.602 146.184 2.03 21.015-14.827 5.418ZM272.098 180.684l.535-13.485 20.125-1.078Zm0 0"/><path fill="#0a1e3b" d="m272.633 167.2 1.086-21.032 19.039 19.953Zm0 0"/><path fill="#0d203a" d="m272.633 167.2-2.031-21.016 3.117-.016Zm0 0"/><path fill="#53502a" d="m360.52 235.523-17.977-7.617 8.867-10.488Zm0 0"/><path fill="#081d3b" d="m314.3 224.523 1.087 20.274-17.57-7.113Zm0 0"/><path fill="#fefefe" d="m314.3 224.523-30.136 9.965-.96-6.586ZM314.3 224.523l-16.484 13.16-13.652-3.195Zm0 0"/><path fill="#0b1f3b" d="m315.387 244.797-4.004 23.86-13.567-30.973Zm0 0"/><path fill="#fefefe" d="m339.926 264.781 7.21-13.941 6.673 11.988Zm0 0"/><path fill="#0e213a" d="m347.137 250.84 10.422 4.351-3.75 7.637Zm0 0"/><path fill="#42442d" d="m347.137 250.84 13.383-15.317-2.961 19.668Zm0 0"/><path fill="#504e2c" d="m360.52 235.523-13.383 15.317-4.594-22.934Zm0 0"/><path fill="#fefefe" d="m302.605 294.844 18.707-6.172-5.796 27.703Zm0 0"/><path fill="#edeef0" d="m316.516 276.867 4.796 11.805-12.8-6.715Zm0 0"/><path fill="#727d8e" d="m321.313 288.672-18.708 6.172 5.907-12.887Zm0 0"/><path fill="#081d3b" d="m98.094 258.453 1.734 17.223-15.137-12.856Zm0 0"/><path fill="#102441" d="m99.828 275.676 13.582-1.957-4.687 12.863Zm0 0"/><path fill="#fbfcfc" d="m113.41 273.719-13.582 1.957-1.734-17.223Zm0 0"/><path fill="#253547" d="m99.828 275.676 8.895 10.906-11.157 6.254Zm0 0"/><path fill="#091e3c" d="m84.691 262.82 15.137 12.856-2.262 17.16Zm0 0"/><path fill="#243652" d="m78.89 281.781 8.122 16.813-16.41-.301Zm0 0"/><path fill="#091e3c" d="m97.566 292.836-10.554 5.758-8.121-16.813Zm0 0"/><path fill="#d7d9dd" d="m70.602 298.293 16.41.3-2.305 26.4Zm0 0"/><path fill="#eee" d="m84.707 324.992 2.305-26.398 10.453 15.617Zm0 0"/><path fill="#fcc200" d="m87.012 298.594 10.554-5.758-.101 21.375Zm0 0"/><path fill="#575228" d="m155.074 218.008-19.949-13.684 35.934-17.789Zm0 0"/><path fill="#081d3b" d="m155.074 218.008 27.676-24.02-7.34 25.559Zm0 0"/><path fill="#081d3b" d="m155.074 218.008 15.985-31.473 11.691 7.453Zm0 0"/><path fill="#fefefe" d="m165.32 228.59-10.246-10.582 20.336 1.539Zm0 0"/><path fill="#0c203a" d="m129.473 199.129 5.629-3.363.023 8.558Zm0 0"/><path fill="#3b3f2f" d="m135.125 204.324-.023-8.558 35.957-9.23Zm0 0"/><path fill="#9d8217" d="m128.906 173.98 42.153 12.555-35.957 9.23Zm0 0"/><path fill="#091e3b" d="m84.691 262.82-7.437-.355-4.621-26.242Zm0 0"/><path fill="#0b1f3b" d="m84.691 262.82-12.058-26.597 15.176-.508Zm0 0"/><path fill="#fefefe" d="m73.395 212.367 25.789-3.594-17.395 8.575Zm0 0"/><path fill="#081d3b" d="m73.395 212.367 20.3-14.789 5.489 11.195Zm0 0"/><path fill="#979eab" d="m353.96 74.332 30.067-15.879-.047 17.215Zm0 0"/><path fill="#0c203a" d="m257.805 172.617 14.293 8.067-19.133 16.37Zm0 0"/><path fill="#fefefe" d="m272.098 180.684 4.3 8.64-23.433 7.73ZM182.262 239.266l-8.938 19.77-28.031-15.653Zm0 0"/><path fill="#fefefe" d="m145.668 273.305 27.656-14.27-1.363 12.656ZM182.262 239.266 165.32 228.59l10.09-9.043Zm0 0"/><path fill="#081d3b" d="m303.852 207.043 10.449 17.48-31.098 3.38Zm0 0"/><path fill="#fefefe" d="m314.3 224.523-10.448-17.48 15.859-4.215ZM316.262 244.813l7.953-19.407 11.582 27.551ZM316.262 244.813l-4.88 23.843 4.005-23.86ZM330.426 263.125l-14.164-18.312 19.535 8.144Zm0 0"/><path fill="#fff" d="m311.383 268.656 4.879-23.844 14.164 18.313Zm0 0"/><path fill="#0a1e3b" d="m347.137 250.84-11.34 2.117 6.746-25.05Zm0 0"/><path fill="#766721" d="m347.137 250.84-7.211 13.941-4.13-11.824Zm0 0"/><path fill="#fefefe" d="m173.324 259.035-26.894 1.746-1.137-17.398ZM131.313 263.16l15.117-2.379-.762 12.524Zm0 0"/><path fill="#fefefe" d="m146.43 260.781 26.894-1.746-27.656 14.27ZM145.293 243.383l1.137 17.398-15.118 2.38ZM182.262 239.266l-6.852-19.72 26.09-1.593Zm0 0"/><path fill="#081d3b" d="m201.5 217.953-26.09 1.594 7.34-25.559Zm0 0"/><path fill="#fefefe" d="m324.215 225.406-7.953 19.406-1.961-20.289Zm0 0"/><path fill="#0a1e3d" d="m314.3 224.523 1.962 20.29-.875-.016Zm0 0"/><path fill="#fefefe" d="m319.71 202.828 4.505 22.578-9.914-.883Zm0 0"/><path fill="#081d3b" d="m319.71 202.828 9.52-3.863-5.015 26.441Zm0 0"/><path fill="#89741c" d="m342.543 227.906-13.313-28.941 22.18 18.453Zm0 0"/><path fill="#091d3b" d="m324.215 225.406 5.015-26.441 13.313 28.941Zm0 0"/><path fill="#41432e" d="m351.41 217.418-22.18-18.453 7.77-5.719Zm0 0"/></svg>