<svg xmlns="http://www.w3.org/2000/svg" width="512" height="512" viewBox="0 0 384 384"><path fill="#788a87" d="M131.18 0 93.543 34.824 67.493 0ZM44.164 34.102l24.844 29.066-36.723 1.672ZM93.543 34.824l-49.379-.722L67.492 0Zm0 0"/><path fill="#788a87" d="M69.008 63.168 44.164 34.102l49.379.722Zm0 0"/><path fill="#a8b1a1" d="M15.473 306.898-.004 288.61l13.957-.601ZM107.043 130.645l24.914-.81-8.137 11.106Zm0 0"/><path fill="#a9b2a2" d="m240.71 254.691-6.175-22.687 17.332 4.883Zm0 0"/><path fill="#46293f" d="m279.418 285.621-22.766 8.25 7.34-15.953Zm0 0"/><path fill="#788a87" d="M151.82 38.547 131.18 0h94.855Zm0 0"/><path fill="#788a87" d="m131.18 0 20.64 38.547-58.277-3.723ZM0 0h67.492L44.164 34.102Zm0 0"/><path fill="#45293f" d="m256.652 293.871-10.648 9.16-2.438-15.078ZM246.004 303.031l10.648-9.16-.894 14.094ZM246.004 303.031l-16.383-6.078 13.945-9Zm0 0"/><path fill="#a8b1a1" d="m229.621 296.953 16.383 6.078-1.422 16.09Zm0 0"/><path fill="#a9b2a2" d="m85.25 384 27.008-34.156L144.968 384Zm0 0"/><path fill="#a9b2a2" d="m85.098 345.598 27.16 4.246L85.25 384ZM24.332 136.594 0 190.934l.016-69.43Zm0 0"/><path fill="#a8b1a1" d="m69.008 63.168-8.18 37.934-23.965-20.618Zm0 0"/><path fill="#788a87" d="M69.008 63.168 36.863 80.484 32.285 64.84Zm0 0"/><path fill="#a8b1a1" d="m69.008 63.168 21.394 33.605-29.574 4.329ZM113.5 318.09l22.738-20.473-12.234 31.445Zm0 0"/><path fill="#453846" d="m223.68 87.535-29.25 8.39 8.011-27.445Zm0 0"/><path fill="#a8b1a1" d="m194.43 95.926 29.25-8.39-3.535 30.05Zm0 0"/><path fill="#788a87" d="m253.57 53.004-29.89 34.531L202.44 68.48Zm0 0"/><path fill="#a8b1a1" d="m223.68 87.535 29.89-34.531 11.754 43.785Zm0 0"/><path fill="#46293f" d="m256.785 199.262-9.594.363 4.094-7.723Zm0 0"/><path fill="#cd683d" d="m272.926 225.395 12.676 1.292-10.485 14.754Zm0 0"/><path fill="#a9b1a1" d="m262.738 250.23-22.027 4.461 11.156-17.804Zm0 0"/><path fill="#a9b1a1" d="m272.926 225.395-10.188 24.835-10.87-13.343Zm0 0"/><path fill="#cd683d" d="m262.738 250.23 10.188-24.835 2.191 16.046Zm0 0"/><path fill="#45293e" d="m253.598 281.203 3.054 12.668-13.086-5.918Zm0 0"/><path fill="#45293f" d="m256.652 293.871-3.054-12.668 10.394-3.285Zm0 0"/><path fill="#a8b1a1" d="m254.688 270.895-12.594 3.187-1.383-19.39ZM254.688 270.895 240.71 254.69l22.027-4.46Zm0 0"/><path fill="#fab853" d="m256.785 199.262 48.98 8.394-20.163 19.031Zm0 0"/><path fill="#a9b2a2" d="m384 328.926-41.352-23.121 41.336-36.79ZM268.566 301.219l10.852-15.598 10.906 5.902Zm0 0"/><path fill="#462a40" d="m256.652 293.871 11.914 7.348-12.808 6.746Zm0 0"/><path fill="#a8b1a1" d="m268.566 301.219-11.914-7.348 22.766-8.25ZM244.582 319.121l1.422-16.09 9.754 4.934Zm0 0"/><path fill="#a9b2a2" d="m244.582 319.121 28.902 6.207-37.738 22.59Zm0 0"/><path fill="#788a87" d="m151.82 38.547 81.532-17.121-30.91 47.054ZM253.57 53.004l-20.218-31.578L286 34.555Zm0 0"/><path fill="#788a87" d="m233.352 21.426 20.218 31.578-51.129 15.476ZM233.352 21.426 295.382 0 286 34.555Zm0 0"/><path fill="#a9b2a2" d="m126.605 104.426-19.562 26.219-16.64-33.872ZM126.605 104.426l41.149 11.543-35.797 13.867Zm0 0"/><path fill="#a9b2a2" d="m107.043 130.645 19.562-26.22 5.352 25.41Zm0 0"/><path fill="#788a87" d="m157.523 79.32-5.703-40.773 50.621 29.933Zm0 0"/><path fill="#a8b1a1" d="m126.605 104.426 30.918-25.106 10.23 36.649ZM157.523 79.32l44.918-10.84-8.011 27.446Zm0 0"/><path fill="#a8b1a1" d="m167.754 115.969-10.23-36.649 36.906 16.606Zm0 0"/><path fill="#788a87" d="m0 55.2 44.164-21.098L32.285 64.84ZM0 55.2V0l44.164 34.102Zm0 0"/><path fill="#a9b1a1" d="m49.387 247.684 4.504 14.566-18.004 10.79ZM37.832 227.059l-13.535 27.847L0 246.816Zm0 0"/><path fill="#a9b2a2" d="m144.969 384-.66-36.902 45.629.48Zm0 0"/><path fill="#a9b2a2" d="M189.938 347.578 212.058 384h-67.09ZM217.227 320.02l27.355-.899-8.836 28.797Zm0 0"/><path fill="#a8b1a1" d="m217.227 320.02 12.394-23.067 14.961 22.168Zm0 0"/><path fill="#a8b1a1" d="m217.227 320.02-7.778-23.59 20.172.523ZM217.227 320.02l-27.29 27.558 1.727-35.672Zm0 0"/><path fill="#a9b2a2" d="m209.45 296.43 7.777 23.59-25.563-8.114Zm0 0"/><path fill="#a8b1a1" d="M0 384v-38.152L35.492 384Zm0 0"/><path fill="#a9b2a2" d="m54.898 348.293 30.2-2.695L85.25 384Zm0 0"/><path fill="#a9b2a2" d="m35.492 384 19.406-35.707L85.25 384Zm0 0"/><path fill="#a9b2a2" d="m0 345.848 54.898 2.445L35.492 384Zm0 0"/><path fill="#a8b1a1" d="m112.258 349.844-5.293-27.184 17.039 6.402ZM98.344 327.34l-13.246 18.258-11.192-20.305ZM112.258 349.844 98.344 327.34l8.62-4.68Zm0 0"/><path fill="#a9b2a2" d="m98.344 327.34 13.914 22.504-27.16-4.246Zm0 0"/><path fill="#fab854" d="m124.004 329.063-17.04-6.403 6.536-4.57Zm0 0"/><path fill="#fab853" d="m106.965 322.66-5.883-23.914L113.5 318.09Zm0 0"/><path fill="#fab853" d="m106.965 322.66-14-16.844 8.117-7.07Zm0 0"/><path fill="#a9b2a2" d="m144.309 347.098.66 36.902-32.711-34.156ZM42.879 176.527l11.207-20.367 15.71 16.188ZM0 190.934l42.879-14.407 3.129 30.082Zm0 0"/><path fill="#a8b1a1" d="m24.332 136.594 18.547 39.933L0 190.934Zm0 0"/><path fill="#a8b1a1" d="m42.879 176.527-18.547-39.933 29.754 19.566Zm0 0"/><path fill="#cd683d" d="m194.008 203.453-30.617-2.508 13.082-19.218Zm0 0"/><path fill="#fab853" d="m119.445 155.64-28.152 13.473-8.145-13.84Zm0 0"/><path fill="#cc683d" d="m73.145 231.059-10.637 24.988-13.121-8.363Zm0 0"/><path fill="#ce6a3d" d="m62.508 256.047-8.617 6.203-4.504-14.566Zm0 0"/><path fill="#a9b2a2" d="m384 187.11-31.883-13.391 11.453-41.848Zm0 0"/><path fill="#a8b1a1" d="M384 124.938v62.171l-20.43-55.238Zm0 0"/><path fill="#788a87" d="M324.32 30.867 295.383 0H384Zm0 0"/><path fill="#788a87" d="m295.383 0 28.937 30.867L286 34.555ZM324.32 30.867 384 0l-20.25 40.863Zm0 0"/><path fill="#a9b1a1" d="m116.89 148.066-9.847-17.421 16.777 10.296Zm0 0"/><path fill="#fab853" d="m116.89 148.066 2.555 7.575-36.297-.368Zm0 0"/><path fill="#a8b1a1" d="m223.68 87.535 11.582 34.805-15.117-4.754Zm0 0"/><path fill="#a9b2a2" d="m274.027 127.344-8.703-30.555 28.176 19.266Zm0 0"/><path fill="#a9b2a2" d="m280.441 132.023-6.414-4.68 19.473-11.288ZM265.324 96.79l-30.062 25.55-11.582-34.805ZM265.324 96.79l8.703 30.554-13.972 2.933ZM234.535 232.004l15.094-11.3 2.238 16.183Zm0 0"/><path fill="#7d645b" d="m225.047 200.059-14.395-13.621 16.465-4.524Zm0 0"/><path fill="#5c6066" d="m210.652 186.438 11.301-11.895 5.164 7.371Zm0 0"/><path fill="#c36840" d="m221.953 174.543-11.3 11.894 4.14-17.18Zm0 0"/><path fill="#cd683d" d="m285.602 226.688-5.797 22.171-4.688-7.418Zm0 0"/><path fill="#a9b2a2" d="m291.129 262.55-.805 28.973-10.906-5.902Zm0 0"/><path fill="#a9b1a1" d="m270.707 263.934 8.711 21.687-15.426-7.703Zm0 0"/><path fill="#cd693d" d="m279.805 248.86-9.098 15.074-7.969-13.704Zm0 0"/><path fill="#a9b2a2" d="m270.707 263.934 20.422-1.383-11.711 23.07Zm0 0"/><path fill="#a9b2a1" d="m291.129 262.55-20.422 1.384 9.098-15.075Zm0 0"/><path fill="#f8b352" d="m342.648 305.805 13.664-39.887 27.672 3.098Zm0 0"/><path fill="#a8b1a1" d="m242.094 274.082-14.707-4.281 13.324-15.11Zm0 0"/><path fill="#cb673d" d="m254.688 270.895-5.899 7.328-6.695-4.141Zm0 0"/><path fill="#4a2b3e" d="m242.094 274.082 6.695 4.14-5.223 9.731Zm0 0"/><path fill="#45293e" d="m248.79 278.223 4.808 2.98-10.032 6.75Zm0 0"/><path fill="#a9b2a2" d="m352.117 173.719-17.484-19.742 28.937-22.106ZM334.633 153.977l17.484 19.742-23.316 10.586Zm0 0"/><path fill="#fab853" d="m268.219 150.113 12.222-18.09 14.778 33.653Zm0 0"/><path fill="#a8b1a1" d="m328.8 184.305 23.317-10.586-7.12 28.68Zm0 0"/><path fill="#a9b1a2" d="m279.824 187.137-23.039 12.125-5.5-7.36Zm0 0"/><path fill="#cc683d" d="m279.824 187.137 25.942 20.52-48.98-8.395Zm0 0"/><path fill="#a8b1a1" d="M344.996 202.398 384 187.11l-15.227 68.895Zm0 0"/><path fill="#a8b1a1" d="M352.117 173.719 384 187.109l-39.004 15.29Zm0 0"/><path fill="#a9b2a2" d="M329.91 349.207 329.8 384h-55.55ZM329.91 349.207 384 328.926V384Zm0 0"/><path fill="#a9b2a2" d="m329.8 384 .11-34.793L384 384ZM329.91 349.207l12.738-43.402L384 328.925ZM212.059 384l23.687-36.082L274.25 384Zm0 0"/><path fill="#a8b1a1" d="m273.484 325.328 42.188-9.637 14.238 33.516Zm0 0"/><path fill="#a9b2a2" d="m235.746 347.918 37.738-22.59.766 58.672Zm0 0"/><path fill="#a9b2a2" d="m273.484 325.328 56.426 23.879L274.25 384Zm0 0"/><path fill="#788a87" d="M233.352 21.426 226.035 0h69.348Zm0 0"/><path fill="#788a87" d="m226.035 0 7.317 21.426-81.532 17.12Zm0 0"/><path fill="#a8b1a1" d="m112.473 71.086 14.132 33.34-36.203-7.653Zm0 0"/><path fill="#a8b1a1" d="m112.473 71.086 45.05 8.234-30.918 25.106ZM69.008 63.168l43.465 7.918-22.07 25.687Zm0 0"/><path fill="#788a87" d="m112.473 71.086-43.465-7.918 24.535-28.344Zm0 0"/><path fill="#788a87" d="m151.82 38.547-39.347 32.539-18.93-36.262Zm0 0"/><path fill="#788a87" d="m157.523 79.32-45.05-8.234 39.347-32.54Zm0 0"/><path fill="#fab853" d="M32.324 297.82 28.2 281.688l7.688-8.649Zm0 0"/><path fill="#a9b2a2" d="m-.004 288.61 14.438-19.356-.48 18.754Zm0 0"/><path fill="#d06e3e" d="m25.84 266.504 23.547-18.82-13.5 25.355Zm0 0"/><path fill="#fab853" d="m28.2 281.688-2.36-15.184 10.047 6.535Zm0 0"/><path fill="#a9b1a1" d="m14.434 269.254 11.406-2.75 2.36 15.183ZM13.953 288.008l.48-18.754L28.2 281.687Zm0 0"/><path fill="#a9b2a2" d="M15.473 306.898 0 345.848l-.004-57.239Zm0 0"/><path fill="#cd683d" d="m73.145 231.059-11.692-11.825 12.168-8.73Zm0 0"/><path fill="#fab753" d="m25.84 266.504-1.543-11.598 25.09-7.222Zm0 0"/><path fill="#a9b2a2" d="m124.004 329.063 20.305 18.035-32.051 2.746ZM217.227 320.02l18.52 27.898-45.81-.34Zm0 0"/><path fill="#a9b2a2" d="M235.746 347.918 212.06 384l-22.121-36.422ZM85.098 345.598l-30.2 2.695 19.008-23Zm0 0"/><path fill="#fab853" d="m36.863 80.484 11.77 37.293-24.301 18.817Zm0 0"/><path fill="#a8b1a1" d="m90.402 96.773-16.605 19.575-12.969-15.246Zm0 0"/><path fill="#a9b1a1" d="M37.832 227.059 0 190.934l46.008 15.675Zm0 0"/><path fill="#a8b1a1" d="M0 246.816v-55.882l37.832 36.125Zm0 0"/><path fill="#a9b2a2" d="m42.879 176.527 19.496 15.536-16.367 14.546Zm0 0"/><path fill="#a8b1a1" d="m82.477 184.258-20.102 7.804 7.422-19.714Zm0 0"/><path fill="#a9b2a2" d="m62.375 192.063-19.496-15.536 26.918-4.18Zm0 0"/><path fill="#a9b1a1" d="m91.293 169.113-21.496 3.235 13.351-17.075Zm0 0"/><path fill="#a8b1a1" d="m83.148 155.273-13.351 17.075-15.711-16.188ZM114.172 296.504l22.066 1.113L113.5 318.09Zm0 0"/><path fill="#45293f" d="m114.172 296.504 21.266-10.09.8 11.203Zm0 0"/><path fill="#a9b2a1" d="m101.082 298.746 13.09-2.242-.672 21.586Zm0 0"/><path fill="#45293f" d="m114.172 296.504-13.09 2.242 1.063-10.324Zm0 0"/><path fill="#45293f" d="m112.637 282.781 1.535 13.723-12.027-8.082Zm0 0"/><path fill="#452a3f" d="m136.238 297.617-.8-11.203 20.5 8.668Zm0 0"/><path fill="#a8b1a1" d="m82.477 184.258 8.816-15.145 2.59 16.047Zm0 0"/><path fill="#a9b2a2" d="m82.477 184.258-12.68-11.91 21.496-3.235Zm0 0"/><path fill="#c7673d" d="m119.898 233.738-12.91 1.028 10.336-7.446Zm0 0"/><path fill="#fab853" d="m133.262 175.465-25.903 3.855 12.086-23.68Zm0 0"/><path fill="#a8b1a1" d="m107.36 179.32-6.583 10.246-6.894-4.406Zm0 0"/><path fill="#a8b1a1" d="m91.293 169.113 16.066 10.207-13.476 5.84Zm0 0"/><path fill="#fab853" d="m107.36 179.32-16.067-10.207 28.152-13.472Zm0 0"/><path fill="#cd683d" d="m81.148 198.75 3.028 15.578-10.555-3.824Zm0 0"/><path fill="#a9b1a1" d="m84.176 214.328-11.031 16.73.476-20.554ZM89.52 240.848l13.945 4.984-5.254 14.64ZM115.059 256.922l-11.594-11.09 9.523-1.445Zm0 0"/><path fill="#cb673d" d="m127.785 251.441-12.726 5.48-2.07-12.534Zm0 0"/><path fill="#cd683d" d="m115.059 256.922 12.726-5.48-4.73 12.093Zm0 0"/><path fill="#788a87" d="M357.988 59.852 324.32 30.867l39.43 9.996ZM357.988 59.852 384 77.722l-29.465-5.593Zm0 0"/><path fill="#a9b2a2" d="m384 124.938-29.465-52.81L384 77.724Zm0 0"/><path fill="#788a87" d="M311.414 61.234 286 34.554l38.32-3.687Zm0 0"/><path fill="#788a87" d="m357.988 59.852-46.574 1.382 12.906-30.367ZM311.414 61.234l46.574-1.382-3.453 12.277ZM281.918 58.926l-28.348-5.922L286 34.554Zm0 0"/><path fill="#a8b1a1" d="m253.57 53.004 28.348 5.922-16.594 37.863Zm0 0"/><path fill="#d97e43" d="M293.5 116.055 306 131.96l-25.559.062Zm0 0"/><path fill="#fab854" d="m107.043 130.645 9.848 17.421-33.743 7.207Zm0 0"/><path fill="#a9b1a1" d="m107.043 130.645-33.246-14.297 16.605-19.575Zm0 0"/><path fill="#ce6a3d" d="m73.797 116.348 33.246 14.297-23.895 24.628Zm0 0"/><path fill="#fab853" d="m194.066 143.512-17.593 38.215-1.196-43.688Zm0 0"/><path fill="#cc683d" d="m175.277 138.04 1.196 43.687-9.57-6.196Zm0 0"/><path fill="#e49248" d="m167.754 115.969-20.79 23.383-15.007-9.516Zm0 0"/><path fill="#d06e3e" d="m175.277 138.04-28.312 1.312 20.789-23.383Zm0 0"/><path fill="#fab753" d="m146.965 139.352 28.312-1.313-8.375 37.492Zm0 0"/><path fill="#806359" d="m166.902 175.531-3.511 25.414-2.97-18.183Zm0 0"/><path fill="#5b6067" d="m163.39 200.945 3.512-25.414 9.57 6.196Zm0 0"/><path fill="#a9b2a2" d="m265.324 96.79-5.27 33.487-24.792-7.937ZM274.027 127.344l6.414 4.68-12.222 18.09Zm0 0"/><path fill="#a9b2a2" d="m274.027 127.344-5.808 22.77-8.164-19.837Zm0 0"/><path fill="#a9b1a1" d="m268.219 150.113-7.996-.414-.168-19.422Zm0 0"/><path fill="#fab853" d="m214.793 169.258-20.727-25.746 17.52-3.317ZM193.914 116.129l-18.637 21.91-7.523-22.07Zm0 0"/><path fill="#a9b2a2" d="m193.914 116.129-26.16-.16 26.676-20.043Zm0 0"/><path fill="#fab853" d="m194.066 143.512 3.121 28.691-20.714 9.524ZM214.793 169.258l-17.606 2.945-3.12-28.691ZM272.926 225.395l-16.14-26.133 28.816 27.426Zm0 0"/><path fill="#a8b1a1" d="m249.629 220.703 23.297 4.692-21.059 11.492Zm0 0"/><path fill="#46293e" d="m247.191 199.625-11.863 17.54-10.281-17.106Zm0 0"/><path fill="#c7653d" d="m235.328 217.164-17.59.29 7.309-17.395Zm0 0"/><path fill="#a9b2a2" d="m235.328 217.164 14.3 3.54-15.093 11.3Zm0 0"/><path fill="#a8b1a1" d="m217.738 217.453 17.59-.289-.793 14.84Zm0 0"/><path fill="#ca683e" d="m217.738 217.453-7.086-31.016 14.395 13.622Zm0 0"/><path fill="#ce693d" d="m275.117 241.441 4.688 7.418-17.067 1.371Zm0 0"/><path fill="#a9b1a1" d="m254.688 270.895 16.019-6.961-6.715 13.984Zm0 0"/><path fill="#cd693d" d="m270.707 263.934-16.02 6.96 8.051-20.664Zm0 0"/><path fill="#462b40" d="m253.598 281.203 1.09-10.308 9.304 7.023Zm0 0"/><path fill="#522f3e" d="m248.79 278.223 5.898-7.328-1.09 10.308Zm0 0"/><path fill="#45293f" d="m209.45 296.43.132-21.254 20.04 21.777ZM173.55 272.844l2 23.734-19.613-1.496Zm0 0"/><path fill="#a8b1a1" d="m194.14 290.512 15.31 5.918-17.786 15.476Zm0 0"/><path fill="#a9b2a2" d="m175.55 296.578 18.59-6.066-2.476 21.394Zm0 0"/><path fill="#462a3f" d="m209.582 275.176-15.441 15.336-1.118-16.153Zm0 0"/><path fill="#45293f" d="m194.14 290.512 15.442-15.336-.133 21.254Zm0 0"/><path fill="#472a3f" d="m194.14 290.512-20.59-17.668 19.473 1.515Zm0 0"/><path fill="#45293f" d="m173.55 272.844 20.59 17.668-18.59 6.066Zm0 0"/><path fill="#cc683d" d="m217.738 217.453-27.18 1.41 3.45-15.41Zm0 0"/><path fill="#a9b2a2" d="m201.82 256.734 7.762 18.442-16.559-.817Zm0 0"/><path fill="#a9b1a1" d="m209.582 275.176-7.762-18.442 25.567 13.067Zm0 0"/><path fill="#fab854" d="m309.047 190.805-29.223-3.668 24.485-12.133Zm0 0"/><path fill="#cd683d" d="m279.824 187.137 29.223 3.668-3.281 16.851Zm0 0"/><path fill="#fab853" d="m309.047 190.805-4.738-15.801 24.492 9.3Zm0 0"/><path fill="#a8b1a1" d="m383.984 269.016-15.21-13.012L384 187.109Zm0 0"/><path fill="#a9b2a1" d="m383.984 269.016-27.671-3.098 12.46-9.914Zm0 0"/><path fill="#fab853" d="m304.453 294.363-23.887 14.895 9.758-17.735Zm0 0"/><path fill="#a9b2a1" d="m280.566 309.258-12-8.04 21.758-9.695Zm0 0"/><path fill="#f8b553" d="m273.64 314.738 9.235.012-9.39 10.578Zm0 0"/><path fill="#a9b2a2" d="m273.64 314.738-29.058 4.383 11.176-11.156ZM244.582 319.121l29.059-4.383-.157 10.59Zm0 0"/><path fill="#45293f" d="m268.566 301.219 5.075 13.52-17.883-6.774Zm0 0"/><path fill="#46293e" d="m280.566 309.258-6.925 5.48-5.075-13.52Zm0 0"/><path fill="#f9b653" d="m273.64 314.738 6.926-5.48 2.309 5.492Zm0 0"/><path fill="#a9b2a2" d="m273.484 325.328 9.391-10.578 32.797.941Zm0 0"/><path fill="#a9b1a1" d="m315.672 315.691-32.797-.941 21.578-20.387Zm0 0"/><path fill="#fab853" d="m282.875 314.75-2.309-5.492 23.887-14.895Zm0 0"/><path fill="#a9b2a2" d="m315.672 315.691 26.976-9.886-12.738 43.402ZM53.89 262.25l.579 8.379-18.582 2.41Zm0 0"/><path fill="#462a40" d="m54.063 306.387-12.907-10.598 16.09-2.793Zm0 0"/><path fill="#a8b1a1" d="m24.297 254.906 1.543 11.598-11.406 2.75Zm0 0"/><path fill="#492b3f" d="m32.324 297.82-18.37-9.812 14.245-6.32Zm0 0"/><path fill="#a8b1a1" d="m32.324 297.82-16.851 9.078-1.52-18.89Zm0 0"/><path fill="#a9b1a1" d="M79.129 284.11 67.504 268.28l9.043-8.734ZM98.344 327.34l-5.38-21.524 14 16.844Zm0 0"/><path fill="#4b3144" d="m75.492 314.387 22.852 12.953-24.438-2.047Zm0 0"/><path fill="#a9b1a1" d="m75.492 314.387 17.473-8.57 5.379 21.523Zm0 0"/><path fill="#45293f" d="m70.695 292-3.238 16.46-10.21-15.464ZM67.457 308.46l-13.394-2.073 3.183-13.39Zm0 0"/><path fill="#cd683d" d="m61.453 219.234 11.692 11.825-23.758 16.625Zm0 0"/><path fill="#a9b2a2" d="m144.309 347.098 13.945-27.582 31.684 28.062Zm0 0"/><path fill="#a8b1a1" d="m124.004 329.063 34.25-9.547-13.945 27.582Zm0 0"/><path fill="#a9b2a2" d="m189.938 347.578-31.684-28.062 33.41-7.61ZM136.238 297.617l22.016 21.899-34.25 9.546Zm0 0"/><path fill="#a8b1a1" d="m158.254 319.516-22.016-21.899 19.7-2.535ZM158.254 319.516l17.297-22.938 16.113 15.328ZM175.55 296.578l-17.296 22.938-2.316-24.434Zm0 0"/><path fill="#fab853" d="m41.156 295.79 5.313 16.827-14.145-14.797Zm0 0"/><path fill="#462a3f" d="m46.469 312.617-5.313-16.828 12.907 10.598Zm0 0"/><path fill="#788a87" d="m21.215 79.473-21.2 42.03L0 55.2Zm0 0"/><path fill="#a8b1a1" d="m21.215 79.473 3.117 57.12-24.316-15.09Zm0 0"/><path fill="#fab854" d="m24.332 136.594-3.117-57.121 15.648 1.011Zm0 0"/><path fill="#788a87" d="m36.863 80.484-15.648-1.011 11.07-14.633ZM21.215 79.473 0 55.199l32.285 9.64Zm0 0"/><path fill="#fab853" d="m48.633 117.777 5.453 38.383-29.754-19.566Zm0 0"/><path fill="#fab753" d="m48.633 117.777 12.195-16.675 12.969 15.246Zm0 0"/><path fill="#fab853" d="m60.828 101.102-12.195 16.675-11.77-37.293Zm0 0"/><path fill="#fab854" d="m61.453 219.234-23.621 7.825 8.176-20.45Zm0 0"/><path fill="#fab853" d="m62.375 192.063-.922 27.171-15.445-12.625Zm0 0"/><path fill="#cd683d" d="m61.453 219.234.922-27.172 11.246 18.442Zm0 0"/><path fill="#45293f" d="m114.172 296.504-1.535-13.723 22.8 3.633ZM112.637 282.781l20.695-8.851 2.106 12.484Zm0 0"/><path fill="#4a2b3e" d="m133.332 273.93 12.191 1.054-10.085 11.43Zm0 0"/><path fill="#cc683d" d="m81.148 198.75-18.773-6.687 20.102-7.805Zm0 0"/><path fill="#cc673d" d="m62.375 192.063 18.773 6.687-7.527 11.754Zm0 0"/><path fill="#a9b1a1" d="m135.633 225.14-15.735 8.598-2.574-6.418Zm0 0"/><path fill="#fab853" d="m118.977 217.36 16.656 7.78-18.309 2.18Zm0 0"/><path fill="#c7663d" d="m119.898 233.738 6.02 7.227-12.93 3.422Zm0 0"/><path fill="#cb683d" d="m125.918 240.965 1.867 10.476-14.797-7.054Zm0 0"/><path fill="#a9b2a2" d="m125.918 240.965-6.02-7.227 15.735-8.597Zm0 0"/><path fill="#a9b1a1" d="m127.785 251.441-1.867-10.476 14.227 4.89Zm0 0"/><path fill="#a8b1a1" d="m140.145 245.855-14.227-4.89 9.715-15.824Zm0 0"/><path fill="#d06e3e" d="m91.77 233.691-2.25 7.157-16.375-9.79Zm0 0"/><path fill="#a9b2a1" d="m89.52 240.848 2.25-7.157 11.695 12.141Zm0 0"/><path fill="#512e3e" d="m115.285 194.77-5.797 12.359-8.71-17.563Zm0 0"/><path fill="#a8b1a1" d="m132.578 202.73-4.71-12.726 11.097 4.25Zm0 0"/><path fill="#fab854" d="m132.578 202.73-13.601 14.63-9.489-10.231Zm0 0"/><path fill="#4b2c3e" d="m115.285 194.77 17.293 7.96-23.09 4.399Zm0 0"/><path fill="#a8b1a1" d="m132.578 202.73-17.293-7.96 12.582-4.766Zm0 0"/><path fill="#46293f" d="m160.422 182.762-27.16-7.297 33.64.066Zm0 0"/><path fill="#a9b1a1" d="m116.89 148.066 11.72 3.215-9.165 4.36Zm0 0"/><path fill="#a9b1a1" d="m128.61 151.281 4.652 24.184-13.817-19.824ZM76.547 259.547l-14.04-3.5 10.638-24.988Zm0 0"/><path fill="#fab753" d="m89.52 240.848-12.973 18.699-3.402-28.488Zm0 0"/><path fill="#fab853" d="m84.176 214.328 7.594 19.363-18.625-2.632Zm0 0"/><path fill="#a9b2a2" d="m115.059 256.922-16.848 3.55 5.254-14.64Zm0 0"/><path fill="#fab853" d="m310.496 116.816 44.04-44.687 9.034 59.742Zm0 0"/><path fill="#a8b1a1" d="m384 124.938-20.43 6.933-9.035-59.742ZM299.496 82.793l11.918-21.559 43.121 10.895ZM281.918 58.926l17.578 23.867-34.172 13.996Zm0 0"/><path fill="#fab853" d="M306.445 155.07 306 131.96l28.633 22.017Zm0 0"/><path fill="#cd683d" d="m306 131.96.445 23.11-26.004-23.047Zm0 0"/><path fill="#a9b2a2" d="m328.8 184.305-22.355-29.235 28.188-1.093Zm0 0"/><path fill="#fab853" d="M310.496 116.816 306 131.961l-12.5-15.906Zm0 0"/><path fill="#a9b2a2" d="m301.633 100.594 8.863 16.222-16.996-.761Zm0 0"/><path fill="#a9b2a1" d="m301.633 100.594-2.137-17.801 55.04-10.664Zm0 0"/><path fill="#a9b2a2" d="m310.496 116.816-8.863-16.222 52.902-28.465Zm0 0"/><path fill="#a9b2a2" d="m265.324 96.79 36.309 3.804-8.133 15.46Zm0 0"/><path fill="#a8b1a1" d="m299.496 82.793 2.137 17.8-36.309-3.804Zm0 0"/><path fill="#fab853" d="m54.086 156.16 19.71-39.812 9.352 38.925Zm0 0"/><path fill="#fab853" d="m48.633 117.777 25.164-1.43-19.711 39.813Zm0 0"/><path fill="#f9b653" d="m131.957 129.836-3.348 21.445-4.789-10.34Zm0 0"/><path fill="#f8b352" d="m146.965 139.352-18.356 11.93 3.348-21.446Zm0 0"/><path fill="#e08a46" d="m128.61 151.281 18.355-11.93 19.937 36.18Zm0 0"/><path fill="#45293e" d="m133.262 175.465-4.653-24.184 38.293 24.25Zm0 0"/><path fill="#d06f3f" d="m211.586 140.195 23.676-17.855 6.004 16.457Zm0 0"/><path fill="#d17240" d="m211.586 140.195 8.559-22.61 15.117 4.755Zm0 0"/><path fill="#fab853" d="m227.934 170.086-16.348-29.89 29.68-1.4Zm0 0"/><path fill="#4c2c3e" d="m221.953 174.543 5.98-4.457-.816 11.828Zm0 0"/><path fill="#dd8445" d="m227.934 170.086-13.141-.828-3.207-29.063Zm0 0"/><path fill="#ce6b3d" d="m227.934 170.086-5.98 4.457-7.161-5.285Zm0 0"/><path fill="#eca04c" d="m241.266 138.797-6.004-16.457 24.793 7.937Zm0 0"/><path fill="#de8745" d="m227.934 170.086 13.332-31.29 18.957 10.903Zm0 0"/><path fill="#45293e" d="m227.934 170.086 26.218 3.328-27.035 8.5ZM254.152 173.414l-26.218-3.328 32.289-20.387Zm0 0"/><path fill="#a9b2a2" d="m279.824 187.137-2.5-8.067 26.985-4.066Zm0 0"/><path fill="#a9b1a1" d="m260.223 149.7 7.996.413-14.067 23.301Zm0 0"/><path fill="#fab853" d="m268.219 150.113 9.105 28.957-23.172-5.656Zm0 0"/><path fill="#f2a94f" d="m194.066 143.512-.152-27.383 17.672 24.066Zm0 0"/><path fill="#fab853" d="m193.914 116.129.152 27.383-18.789-5.473Zm0 0"/><path fill="#c6653d" d="m249.629 220.703-14.3-3.539 11.862-17.539Zm0 0"/><path fill="#f8b452" d="m249.629 220.703-2.438-21.078 9.594-.363Zm0 0"/><path fill="#fab853" d="m272.926 225.395-23.297-4.692 7.156-21.441Zm0 0"/><path fill="#ca683d" d="m210.652 186.438-16.644 17.015-17.535-21.726Zm0 0"/><path fill="#bc6340" d="m210.652 186.438 7.086 31.015-23.73-14Zm0 0"/><path fill="#a9b2a1" d="m197.188 172.203 13.464 14.234-34.18-4.71Zm0 0"/><path fill="#fab753" d="m210.652 186.438-13.464-14.235 17.605-2.945Zm0 0"/><path fill="#45293f" d="m209.582 275.176 21.863 7.023-1.824 14.754Zm0 0"/><path fill="#46293e" d="m231.445 282.2 10.649-8.118 1.472 13.871Zm0 0"/><path fill="#45293f" d="m229.621 296.953 1.824-14.754 12.121 5.754Zm0 0"/><path fill="#45293e" d="m231.445 282.2-4.058-12.4 14.707 4.282Zm0 0"/><path fill="#472a3f" d="m231.445 282.2-21.863-7.024 17.805-5.375Zm0 0"/><path fill="#45293f" d="m135.438 286.414 10.085-11.43 10.415 20.098Zm0 0"/><path fill="#45293f" d="m145.523 274.984 28.028-2.14-17.613 22.238Zm0 0"/><path fill="#a9b2a2" d="m178.363 260.996 23.457-4.262-8.797 17.625Zm0 0"/><path fill="#a9b1a1" d="m173.55 272.844 4.813-11.848 14.66 13.363Zm0 0"/><path fill="#a9b2a2" d="m210.91 242.793 29.8 11.898-13.323 15.11Zm0 0"/><path fill="#a9b1a1" d="m201.82 256.734 9.09-13.941 16.477 27.008Zm0 0"/><path fill="#a9b2a2" d="m240.71 254.691-29.8-11.898 23.625-10.79Zm0 0"/><path fill="#a8b1a1" d="m210.91 242.793 6.828-25.34 16.797 14.55Zm0 0"/><path fill="#a8b1a1" d="m217.738 217.453-6.828 25.34-20.351-23.93Zm0 0"/><path fill="#fab853" d="m306 131.96 4.496-15.144 24.137 37.16Zm0 0"/><path fill="#fab853" d="m310.496 116.816 53.074 15.055-28.937 22.106Zm0 0"/><path fill="#a9b1a1" d="m306.445 155.07-2.136 19.934-9.09-9.328Zm0 0"/><path fill="#a9b2a2" d="m304.309 175.004 2.136-19.934 22.356 29.235Zm0 0"/><path fill="#fab853" d="m280.441 132.023 26.004 23.047-11.226 10.606Zm0 0"/><path fill="#fab854" d="m322.012 201.39 6.789-17.085 16.195 18.093Zm0 0"/><path fill="#a9b1a1" d="m322.012 201.39-6.524 24.848-9.722-18.582Zm0 0"/><path fill="#cd683d" d="m309.047 190.805 12.965 10.586-16.246 6.265Zm0 0"/><path fill="#ce6a3d" d="m322.012 201.39-12.965-10.585 19.754-6.5Zm0 0"/><path fill="#a9b1a1" d="m324.09 286.418-19.637 7.945 9.258-30.191Zm0 0"/><path fill="#f9b653" d="m304.453 294.363-14.129-2.84.805-28.972Zm0 0"/><path fill="#fab853" d="m313.71 264.172-9.257 30.191-13.324-31.812Zm0 0"/><path fill="#cd693d" d="m346.246 254.133-22.156 32.285 11.156-33.215Zm0 0"/><path fill="#a9b2a2" d="m346.246 254.133 10.067 11.785-32.223 20.5Zm0 0"/><path fill="#a9b1a1" d="m324.09 286.418 32.223-20.5-13.665 39.887Zm0 0"/><path fill="#cc673d" d="m67.504 268.281-7.402-.402 2.406-11.832ZM60.102 267.879l-6.211-5.629 8.617-6.203Zm0 0"/><path fill="#a9b2a2" d="m60.102 267.879-5.633 2.75-.578-8.379Zm0 0"/><path fill="#45293f" d="m41.156 295.79-1.687-14.657 17.777 11.863Zm0 0"/><path fill="#fab853" d="m39.469 281.133 1.687 14.656-8.832 2.031Zm0 0"/><path fill="#fab853" d="m39.469 281.133-7.145 16.687 3.563-24.78Zm0 0"/><path fill="#a9b1a1" d="m54.469 270.629-15 10.504-3.582-8.094Zm0 0"/><path fill="#a8b1a1" d="M14.434 269.254-.004 288.609 0 246.816Zm0 0"/><path fill="#a9b2a2" d="m24.297 254.906-9.863 14.348L0 246.816ZM0 345.848l41.281-19.024 13.617 21.469Zm0 0"/><path fill="#a9b2a2" d="m15.473 306.898 25.808 19.926L0 345.848Zm0 0"/><path fill="#fab853" d="M91.246 278.273 79.13 284.11l-2.582-24.562Zm0 0"/><path fill="#472a3f" d="m101.082 298.746-7.129-4.25 8.192-6.074Zm0 0"/><path fill="#fab853" d="m92.965 305.816.988-11.32 7.129 4.25Zm0 0"/><path fill="#f8b552" d="m93.953 294.496-2.707-16.223 10.899 10.149Zm0 0"/><path fill="#fab853" d="m91.246 278.273 2.707 16.223L79.13 284.11Zm0 0"/><path fill="#cd683d" d="m79.129 284.11-16.555-6.848 4.93-8.98Zm0 0"/><path fill="#cb673d" d="m62.574 277.262-2.472-9.383 7.402.402Zm0 0"/><path fill="#a9b1a1" d="m60.102 267.879 2.472 9.383-8.105-6.633Zm0 0"/><path fill="#8a8884" d="m39.469 281.133 23.105-3.871-5.328 15.734Zm0 0"/><path fill="#a9b2a2" d="m62.574 277.262-23.105 3.87 15-10.503Zm0 0"/><path fill="#45293f" d="M62.574 277.262 70.695 292l-13.449.996Zm0 0"/><path fill="#46293e" d="m62.574 277.262 16.555 6.847L70.695 292Zm0 0"/><path fill="#fab853" d="m24.297 254.906 13.535-27.847 11.555 20.625Zm0 0"/><path fill="#fab853" d="m37.832 227.059 23.621-7.825-12.066 28.45Zm0 0"/><path fill="#a9b2a2" d="m54.898 348.293 5.137-29.328 13.871 6.328Zm0 0"/><path fill="#a8b1a1" d="m41.281 326.824 18.754-7.86-5.137 29.329Zm0 0"/><path fill="#a9b2a2" d="m60.035 318.965-18.754 7.86 5.188-14.208Zm0 0"/><path fill="#45293f" d="m67.457 308.46-7.422 10.505-5.972-12.578Zm0 0"/><path fill="#472c41" d="m60.035 318.965-13.566-6.348 7.593-6.23Zm0 0"/><path fill="#45293f" d="m60.035 318.965 15.457-4.578-1.586 10.906ZM60.035 318.965l7.422-10.504 8.035 5.926Zm0 0"/><path fill="#cc673d" d="m134.637 264.16 10.886 10.824-12.191-1.054Zm0 0"/><path fill="#cc683d" d="m134.637 264.16-1.305 9.77-10.277-10.395Zm0 0"/><path fill="#a8b1a1" d="m134.637 264.16-6.852-12.719 12.36-5.586Zm0 0"/><path fill="#cc683d" d="m127.785 251.441 6.852 12.72-11.582-.626Zm0 0"/><path fill="#fab853" d="m118.977 217.36 13.601-14.63 3.055 22.41Zm0 0"/><path fill="#fab753" d="m163.39 200.945-24.425-6.691 21.457-11.492Zm0 0"/><path fill="#45293f" d="m141.234 200.938-2.27-6.684 24.427 6.691Zm0 0"/><path fill="#cc673d" d="m91.219 194.188-10.07 4.562 1.328-14.492Zm0 0"/><path fill="#cd683d" d="m91.219 194.188-8.742-9.93 11.406.902Zm0 0"/><path fill="#cc683d" d="m100.777 189.566-9.558 4.621 2.664-9.027Zm0 0"/><path fill="#846357" d="m109.488 207.129-18.27-12.941 9.56-4.622Zm0 0"/><path fill="#a9b1a1" d="m91.77 233.691 15.218 1.075-3.523 11.066Zm0 0"/><path fill="#c9663d" d="m106.988 234.766 12.91-1.028-6.91 10.649Zm0 0"/><path fill="#a8b1a1" d="m103.465 245.832 3.523-11.066 6 9.62ZM115.285 194.77l-7.926-15.45 20.508 10.684Zm0 0"/><path fill="#a8b1a1" d="m107.36 179.32 7.925 15.45-14.508-5.204Zm0 0"/><path fill="#fab753" d="M127.867 190.004 107.36 179.32l25.903-3.855Zm0 0"/><path fill="#a9b1a1" d="m128.61 151.281-11.72-3.215 6.93-7.125ZM76.547 259.547l-9.043 8.734-4.996-12.234Zm0 0"/><path fill="#fab853" d="m91.77 233.691 15.48-12.699-.262 13.774Zm0 0"/><path fill="#fab753" d="m106.988 234.766.262-13.774 10.074 6.328Zm0 0"/><path fill="#fab853" d="m107.25 220.992 11.727-3.633-1.653 9.961Zm0 0"/><path fill="#fab853" d="m118.977 217.36-11.727 3.632 2.238-13.863Zm0 0"/><path fill="#a9b1a1" d="M111.516 272.73 98.21 260.473l16.848-3.551Zm0 0"/><path fill="#a9b2a1" d="m111.516 272.73 3.543-15.808 7.996 6.613Zm0 0"/><path fill="#a9b1a1" d="m133.332 273.93-21.816-1.2 11.539-9.195Zm0 0"/><path fill="#4a2e42" d="m112.637 282.781-1.121-10.05 21.816 1.199Zm0 0"/><path fill="#a8b1a1" d="m311.414 61.234-11.918 21.559-17.578-23.867Zm0 0"/><path fill="#788a87" d="m311.414 61.234-29.496-2.308L286 34.555Zm0 0"/><path fill="#fab853" d="m260.223 149.7-18.957-10.903 18.789-8.52Zm0 0"/><path fill="#fab854" d="m254.152 173.414-2.867 18.488-24.168-9.988Zm0 0"/><path fill="#e2944a" d="m251.285 191.902-26.238 8.157 2.07-18.145Zm0 0"/><path fill="#45293e" d="m251.285 191.902-4.094 7.723-22.144.434Zm0 0"/><path fill="#fab853" d="m211.586 140.195-17.672-24.066 26.23 1.457Zm0 0"/><path fill="#a8b1a1" d="m220.145 117.586-26.23-1.457.515-20.203Zm0 0"/><path fill="#a9b2a2" d="m166.457 237.43-26.312 8.425-4.512-20.714ZM178.363 260.996l-11.906-23.566 35.363 19.304Zm0 0"/><path fill="#a8b1a1" d="m166.457 237.43 44.453 5.363-9.09 13.941Zm0 0"/><path fill="#a8b1a1" d="m210.91 242.793-44.453-5.363 24.102-18.567Zm0 0"/><path fill="#a9b2a2" d="m304.309 175.004-26.985 4.066 17.895-13.394Zm0 0"/><path fill="#fab853" d="m277.324 179.07-9.105-28.957 27 15.563ZM368.773 256.004l-22.808-11.543-.969-42.063Zm0 0"/><path fill="#fab753" d="m345.965 244.46 22.808 11.544-22.527-1.871Zm0 0"/><path fill="#cd683d" d="m335.246 253.203 10.719-8.742.281 9.672Zm0 0"/><path fill="#f9b653" d="m301.14 230.004 14.348-3.766-24.36 36.313Zm0 0"/><path fill="#a9b2a2" d="m301.14 230.004-21.335 18.855 5.797-22.172Zm0 0"/><path fill="#a9b2a2" d="M301.14 230.004 291.13 262.55l-11.324-13.692Zm0 0"/><path fill="#fab853" d="m315.488 226.238-1.777 37.934-22.582-1.621Zm0 0"/><path fill="#d37240" d="m368.773 256.004-12.46 9.914-10.067-11.785Zm0 0"/><path fill="#a9b1a1" d="m342.648 305.805-26.976 9.886 8.418-29.273Zm0 0"/><path fill="#a9b2a2" d="m315.672 315.691-11.219-21.328 19.637-7.945Zm0 0"/><path fill="#a8b1a1" d="m46.469 312.617-5.188 14.207-25.808-19.926Zm0 0"/><path fill="#472a3f" d="m46.469 312.617-30.996-5.719 16.851-9.078Zm0 0"/><path fill="#fab854" d="m98.21 260.473 1.356 15.824-8.32 1.976Zm0 0"/><path fill="#462a3f" d="m99.566 276.297 11.95-3.567 1.12 10.051Zm0 0"/><path fill="#a9b2a1" d="m111.516 272.73-11.95 3.567-1.355-15.824Zm0 0"/><path fill="#45293f" d="m99.566 276.297 13.07 6.484-10.491 5.64Zm0 0"/><path fill="#fab853" d="m91.246 278.273 8.32-1.976 2.579 12.125Zm0 0"/><path fill="#45293f" d="m79.129 284.11 7.898 16.644L70.695 292Zm0 0"/><path fill="#fab753" d="m93.953 294.496-6.926 6.258-7.898-16.645Zm0 0"/><path fill="#45293f" d="m87.027 300.754-19.57 7.707L70.695 292Zm0 0"/><path fill="#a8b1a1" d="m67.457 308.46 19.57-7.706-11.535 13.633Zm0 0"/><path fill="#a9b1a1" d="m75.492 314.387 11.535-13.633 5.938 5.062Zm0 0"/><path fill="#fab853" d="m87.027 300.754 6.926-6.258-.988 11.32Zm0 0"/><path fill="#e8974a" d="m150.512 218.047-17.934-15.317 8.656-1.792Zm0 0"/><path fill="#ac583d" d="m150.512 218.047 12.879-17.102 2.605 17.082Zm0 0"/><path fill="#472a3e" d="m150.512 218.047-9.278-17.11 22.157.008Zm0 0"/><path fill="#a8b1a1" d="m166.457 237.43-15.945-19.383 15.484-.02Zm0 0"/><path fill="#a9b2a2" d="m150.512 218.047 15.945 19.383-30.824-12.29Zm0 0"/><path fill="#f9b653" d="m132.578 202.73 17.934 15.317-14.88 7.094Zm0 0"/><path fill="#472a3f" d="m141.234 200.938-8.656 1.792 6.387-8.476Zm0 0"/><path fill="#fab853" d="m137.824 188.008-4.562-12.543 27.16 7.297Zm0 0"/><path fill="#ec9f4c" d="m138.965 194.254-1.14-6.246 22.597-5.246Zm0 0"/><path fill="#fab853" d="m137.824 188.008-9.957 1.996 5.395-14.54Zm0 0"/><path fill="#f9b553" d="m127.867 190.004 9.957-1.996 1.14 6.246Zm0 0"/><path fill="#fab853" d="m76.547 259.547 12.973-18.7 8.69 19.626Zm0 0"/><path fill="#fab853" d="m91.246 278.273-14.7-18.726 21.665.926ZM107.25 220.992l-16.77-9.222 19.008-4.641ZM90.48 211.77l16.77 9.222-15.48 12.7Zm0 0"/><path fill="#cc673d" d="m91.219 194.188-.739 17.582-9.332-13.02Zm0 0"/><path fill="#a3654c" d="m90.48 211.77.739-17.583 18.27 12.942Zm0 0"/><path fill="#cd683d" d="m90.48 211.77-6.304 2.558-3.028-15.578Zm0 0"/><path fill="#fab753" d="m90.48 211.77 1.29 21.921-7.594-19.363Zm0 0"/><path fill="#788a87" d="M384 0v52.2l-20.25-11.337Zm0 0"/><path fill="#f9b753" d="m254.152 173.414 23.172 5.656-26.039 12.832Zm0 0"/><path fill="#a9b2a1" d="m277.324 179.07 2.5 8.067-28.539 4.765Zm0 0"/><path fill="#a9b2a2" d="m166.457 237.43-12.629 21.312-13.683-12.887Zm0 0"/><path fill="#a9b1a1" d="m153.828 258.742 12.629-21.312 11.906 23.566Zm0 0"/><path fill="#a8b1a1" d="m145.523 274.984 8.305-16.242 19.723 14.102Zm0 0"/><path fill="#a9b1a1" d="m153.828 258.742 24.535 2.254-4.812 11.848Zm0 0"/><path fill="#fab853" d="m315.488 226.238-14.347 3.766 4.625-22.348Zm0 0"/><path fill="#fab853" d="m305.766 207.656-4.625 22.348-15.54-3.316Zm0 0"/><path fill="#a9b1a1" d="m324.09 286.418-10.38-22.246 21.536-10.969Zm0 0"/><path fill="#cd683d" d="m323.125 223.05 22.84 21.41-10.719 8.743Zm0 0"/><path fill="#788a87" d="m384 52.2-26.012 7.652 5.762-18.989Zm0 0"/><path fill="#788a87" d="M357.988 59.852 384 52.199v25.524Zm0 0"/><path fill="#a9b2a2" d="m134.637 264.16 19.191-5.418-8.305 16.242Zm0 0"/><path fill="#a9b2a2" d="m153.828 258.742-19.191 5.418 5.508-18.305Zm0 0"/><path fill="#a8b1a1" d="m190.559 218.863-24.102 18.567-.46-19.403Zm0 0"/><path fill="#cb673d" d="m190.559 218.863-27.168-17.918 30.617 2.508Zm0 0"/><path fill="#cc673d" d="m163.39 200.945 27.169 17.918-24.563-.836Zm0 0"/><path fill="#a9b2a2" d="m313.71 264.172 1.778-37.934 19.758 26.965Zm0 0"/><path fill="#a9b1a1" d="m315.488 226.238 7.637-3.187 12.121 30.152ZM322.012 201.39l1.113 21.66-7.637 3.188Zm0 0"/><path fill="#fab853" d="m345.965 244.46-12.102-31.804 11.133-10.258Zm0 0"/><path fill="#cd683d" d="m323.125 223.05 10.738-10.394 12.102 31.805Zm0 0"/><path fill="#fab853" d="m333.863 212.656-11.851-11.265 22.984 1.007Zm0 0"/><path fill="#cd693d" d="m333.863 212.656-10.738 10.395-1.113-21.66Zm0 0"/></svg>