<svg xmlns="http://www.w3.org/2000/svg" width="512" height="512" viewBox="0 0 384 384"><path fill="#b9b36f" d="m154.828 60.824 59.18 30.946-50.555 12.421Zm0 0"/><path fill="#202215" d="M7.063 303.02 0 287.863l11.832-1.86Zm0 0"/><path fill="#b7b16e" d="M19.613 77.934 0 56.204l74.387 4.304Zm0 0"/><path fill="#ded684" d="m108.023 133.297 24.415-5.211-5.458 9.473Zm0 0"/><path fill="#dfd685" d="m132.438 128.086-24.415 5.21 15.325-28.839Zm0 0"/><path fill="#ded684" d="m163.453 104.191 2.895 14.641-33.91 9.254Zm0 0"/><path fill="#dfd785" d="m243.547 253.91-8.027-22.293 14.82 3.766ZM384 185.73v92.04l-16.527-70.727Zm0 0"/><path fill="#202215" d="m267.656 299.285 5.614-21.824 11.144 24.96Zm0 0"/><path fill="#202215" d="m267.656 299.285-11.058-12.617 16.672-9.207Zm0 0"/><path fill="#585736" d="M154.828 60.824 106.618.008h81.937Zm0 0"/><path fill="#505031" d="M106.617.008 0 56.203V0Zm0 0"/><path fill="#3e3e26" d="M0 56.203 106.617.008l-32.23 60.5Zm0 0"/><path fill="#202215" d="m0 287.863 7.063 15.157-7.067 1.949Zm0 0"/><path fill="#dfd785" d="M0 287.863V264.22l11.832 21.785Zm0 0"/><path fill="#202215" d="m236.828 297.7 19.77-11.032-5.633 21.066Zm0 0"/><path fill="#ded684" d="m217.832 299.996 18.996-2.297 2.106 24.074Zm0 0"/><path fill="#dfd785" d="M157.316 341.512 207.121 384h-77.86Zm0 0"/><path fill="#dfd684" d="m122.543 330.402 1.047-26.472 33.726 37.582Zm0 0"/><path fill="#dfd785" d="m59.98 384 50.297-26.988L129.262 384Zm0 0"/><path fill="#dfd785" d="M110.277 357.012 59.98 384l3.637-38.184ZM19.3 166.32 0 188.848l-.008-59.008Zm0 0"/><path fill="#ca5a2e" d="m18.059 128.797 20.683-8.91 2.32 29.718Zm0 0"/><path fill="#aba566" d="m61.262 92.668 13.125-32.16 22.781 30.18Zm0 0"/><path fill="#ded684" d="M82.18 109.863 61.262 92.668l35.906-1.98Zm0 0"/><path fill="#dbd483" d="m19.613 77.934 41.649 14.734-1.477 1.18Zm0 0"/><path fill="#c9c278" d="M61.262 92.668 19.613 77.934l54.774-17.426Zm0 0"/><path fill="#ded684" d="m123.59 303.93 10.722-4.91 23.004 42.492Zm0 0"/><path fill="#69673f" d="M384.004.008v74.129l-40.676-50.301Zm0 0"/><path fill="#dfd785" d="m377.82 136.91 6.18 48.82-29.547-16.632Zm0 0"/><path fill="#dfd785" d="m384 185.73-6.18-48.82 6.184-62.773Zm0 0"/><path fill="#68663f" d="m286.64 43.469 56.688-19.633-19.75 50.93Zm0 0"/><path fill="#5b5a38" d="M188.555.008h100.957l-74.2 38.043Zm0 0"/><path fill="#575635" d="m289.512.008-2.871 43.46-71.329-5.417Zm0 0"/><path fill="#ded684" d="m214.008 91.77 42.476-1.31-23.023 16.849Zm0 0"/><path fill="#b3ad6b" d="m241.527 70.25 14.957 20.21-42.476 1.31Zm0 0"/><path fill="#ded684" d="m220.414 118.25-6.406-26.48 19.453 15.539Zm0 0"/><path fill="#953c3b" d="m266.43 237.125 16.703-12.36-4.723 21.09Zm0 0"/><path fill="#ded684" d="m243.547 253.91 22.883-16.785-4.844 20.805Zm0 0"/><path fill="#ded684" d="m266.43 237.125-22.883 16.785 6.793-18.527Zm0 0"/><path fill="#202215" d="m273.27 277.46 20.64 8.985-9.496 15.977Zm0 0"/><path fill="#ded684" d="m254.059 270.617-10.45 4.055-.062-20.762Zm0 0"/><path fill="#ded684" d="m254.059 270.617-10.512-16.707 18.039 4.02Zm0 0"/><path fill="#c8592d" d="m253.078 197.602 34.383 4.109-4.328 23.055Zm0 0"/><path fill="#dfd785" d="m384 384-21.496-70.262L384 277.77Zm0 0"/><path fill="#202215" d="m256.598 286.668 11.058 12.617-16.691 8.45Zm0 0"/><path fill="#ded684" d="m238.934 321.773-2.106-24.074 14.137 10.035Zm0 0"/><path fill="#dfd685" d="m238.934 321.773 32.078 2.543-9.29 29.692Zm0 0"/><path fill="#6b6941" d="m154.828 60.824 60.485-22.773-1.305 53.719Zm0 0"/><path fill="#97935b" d="m215.313 38.05 26.214 32.2-27.52 21.52Zm0 0"/><path fill="#ded684" d="m123.348 104.457 40.105-.266-31.016 23.895Zm0 0"/><path fill="#bdb771" d="m123.348 104.457 31.48-43.633 8.625 43.367Zm0 0"/><path fill="#202215" d="M22.527 296.441 7.062 303.02l4.77-17.016Zm0 0"/><path fill="#ded684" d="M51.656 257.988 40.16 266.04l13.215-29.18ZM40.793 220.844l-16.14-10.965 26.367-8.191ZM210.176 335.531 207.12 384l-49.805-42.488Zm0 0"/><path fill="#dfd785" d="m210.176 335.531 28.758-13.758 22.789 32.235Zm0 0"/><path fill="#ded684" d="m210.176 335.531 7.656-35.535 21.102 21.777Zm0 0"/><path fill="#ded684" d="m210.176 335.531-.723-37.554 8.379 2.02Zm0 0"/><path fill="#dfd785" d="m210.176 335.531-52.86 5.98 30.442-29.35ZM209.453 297.977l.723 37.554-22.418-23.37ZM0 384l26.984-38.262L59.98 384Zm0 0"/><path fill="#dfd785" d="m0 384-.004-79.031 26.988 40.77ZM26.984 345.738l36.633.078L59.98 384Zm0 0"/><path fill="#ded684" d="M110.277 357.012 85.012 327.64l37.531 2.761ZM85.012 327.64l-21.395 18.176-3.265-25.457Zm0 0"/><path fill="#ded684" d="m85.012 327.64 25.265 29.372-46.66-11.196Zm0 0"/><path fill="#212215" d="m122.543 330.402-26.672-36.007 27.719 9.535Zm0 0"/><path fill="#c9592d" d="m122.543 330.402-33.695-26.07 7.023-9.937Zm0 0"/><path fill="#dfd785" d="M157.316 341.512 129.262 384l-18.985-26.988ZM31.344 184.828 0 188.848l19.3-22.528Zm0 0"/><path fill="#c9592e" d="m62.59 141.996-1.23 15.945-20.297-8.336Zm0 0"/><path fill="#dfd785" d="m31.344 184.828 24.379-5.27-4.703 22.13ZM36.2 162.598l-4.856 22.23L19.3 166.32Zm0 0"/><path fill="#dfd785" d="m18.059 128.797 18.14 33.8-16.898 3.723ZM36.2 162.598l19.523 16.96-24.38 5.27Zm0 0"/><path fill="#dfd785" d="m55.723 179.559-19.524-16.961 25.16-4.657Zm0 0"/><path fill="#dfd785" d="m36.2 162.598-18.141-33.801 23.004 20.808Zm0 0"/><path fill="#ded684" d="m61.36 157.941-25.16 4.657 4.862-12.993Zm0 0"/><path fill="#dfd785" d="m61.36 157.941 17.078 9.707-22.715 11.91Zm0 0"/><path fill="#c9592e" d="m110.477 165.934-8.395 11.609-17.574-14.172Zm0 0"/><path fill="#953b3b" d="m75.637 229.871-14.262 26.992-8-20.004Zm0 0"/><path fill="#913b3a" d="m61.375 256.863-9.719 1.125 1.719-21.129Zm0 0"/><path fill="#66643e" d="m384.004 74.137-19.934-.153-20.742-50.148Zm0 0"/><path fill="#ded684" d="m377.82 136.91-10.203-29.36 16.387-33.413Zm0 0"/><path fill="#dfd785" d="m354.957 192.336-27.64-8.774 27.136-14.464Zm0 0"/><path fill="#dfd785" d="m384 185.73-29.043 6.606-.504-23.238Zm0 0"/><path fill="#ca5a2e" d="m345.422 119.555 9.582 19.539-25.324-7.836ZM355.004 139.094l-9.582-19.54 18.262 6.805Zm0 0"/><path fill="#65633d" d="M343.328 23.836 289.512.008h94.492Zm0 0"/><path fill="#6b6941" d="m289.512.008 53.816 23.828-56.687 19.633Zm0 0"/><path fill="#69673f" d="m323.578 74.766 19.75-50.93 20.742 50.148Zm0 0"/><path fill="#ded684" d="m308.64 117.266-24.605 6.566-5.781-13.664Zm0 0"/><path fill="#c95a2e" d="m328.418 112.73 17.004 6.825-15.742 11.703Zm0 0"/><path fill="#ded684" d="m113.262 144.742-5.239-11.445 18.957 4.262Zm0 0"/><path fill="#c7592d" d="m113.262 144.742-2.785 21.192-25.97-2.563Zm0 0"/><path fill="#c95a2e" d="m80.04 155.402 33.222-10.66-28.754 18.63Zm0 0"/><path fill="#ded684" d="m256.484 90.46-6.586 34.485-16.437-17.636ZM301.594 86.984l-23.34 23.184-21.77-19.707ZM278.254 110.168l-28.356 14.777 6.586-34.484Zm0 0"/><path fill="#dfd785" d="m235.52 231.617 18.539-9.125-3.72 12.89Zm0 0"/><path fill="#ca5a2e" d="m222.934 199.965-9.184-18.336 31.531-3.953Zm0 0"/><path fill="#dfd785" d="m274.336 255.953 11.445-6.676 5.172 16.883Zm0 0"/><path fill="#ded684" d="m283.133 224.766 2.648 24.511-7.37-3.422Zm0 0"/><path fill="#dfd785" d="m278.355 270.54-4.02-14.587 16.618 10.207Zm0 0"/><path fill="#ded684" d="m293.91 286.445-15.555-15.906 12.598-4.379ZM278.355 270.54l15.555 15.905-20.64-8.984Zm0 0"/><path fill="#282317" d="m274.336 255.953-9.121 9.399-3.63-7.422Zm0 0"/><path fill="#ded684" d="m265.215 265.352 13.14 5.187-5.085 6.922Zm0 0"/><path fill="#ded684" d="m278.355 270.54-13.14-5.188 9.12-9.399ZM348.05 210.691l6.907-18.355 12.516 14.707Zm0 0"/><path fill="#ded684" d="m348.05 210.691-6.663-10.09 13.57-8.265Zm0 0"/><path fill="#dfd785" d="m384 277.77-25.105 8.257 4.753-14.855Zm0 0"/><path fill="#ded684" d="m362.504 313.738-3.61-27.71L384 277.77Zm0 0"/><path fill="#ded684" d="m358.895 286.027 3.609 27.711-17.102-8.968ZM243.61 274.672l-21.11-3.77 21.047-16.992Zm0 0"/><path fill="#202215" d="m222.934 199.965-7.079 18.394-52.136-17.574Zm0 0"/><path fill="#903a3a" d="m254.059 270.617-5.918 8.028-4.532-3.973Zm0 0"/><path fill="#202215" d="m243.61 274.672 4.53 3.973-11.312 19.054Zm0 0"/><path fill="#202215" d="m248.14 278.645 8.458 8.023-19.77 11.031Zm0 0"/><path fill="#dfd785" d="m326.355 169.875 7.344-15.406 20.754 14.629Zm0 0"/><path fill="#c05530" d="m284.035 123.832 24.063 16.797L292.605 164Zm0 0"/><path fill="#ded684" d="m327.316 183.563 27.641 8.773-13.57 8.266Zm0 0"/><path fill="#dfd785" d="m327.316 183.563-.96-13.688 28.097-.777Zm0 0"/><path fill="#ded684" d="m282.254 187.234-29.176 10.368 3.27-6.938Zm0 0"/><path fill="#432b1d" d="m282.254 187.234 5.207 14.477-34.383-4.11Zm0 0"/><path fill="#dfd785" d="m295.152 384 35.723-50.602L384 384ZM362.504 313.738l-31.629 19.66 14.527-28.628Zm0 0"/><path fill="#ded684" d="m350.605 280.563-5.203 24.207-19.617-23.184Zm0 0"/><path fill="#dfd785" d="m261.723 354.008 26.297-39.63L295.152 384Zm0 0"/><path fill="#5a5937" d="m188.555.008 26.757 38.043-60.484 22.773Zm0 0"/><path fill="#7b784a" d="m154.828 60.824-31.48 43.633-26.18-13.77Zm0 0"/><path fill="#9e995e" d="m74.387 60.508 80.441.316-57.66 29.864Zm0 0"/><path fill="#545333" d="m154.828 60.824-80.441-.316 32.23-60.5Zm0 0"/><path fill="#ded684" d="m40.54 276.07-13.388-6.523 13.008-3.508Zm0 0"/><path fill="#973c3b" d="m27.152 269.547-1.793-17.04L40.16 266.04Zm0 0"/><path fill="#ded684" d="m0 264.219 25.36-11.711 1.792 17.039Zm0 0"/><path fill="#202215" d="m28.98 282.547-6.453 13.894-10.695-10.437Zm0 0"/><path fill="#dfd785" d="m0 264.219 28.98 18.328-17.148 3.457Zm0 0"/><path fill="#ded684" d="M28.98 282.547 0 264.219l27.152 5.328Zm0 0"/><path fill="#dfd785" d="m7.063 303.02 19.921 42.718-26.988-40.77Zm0 0"/><path fill="#ded684" d="m75.637 229.871-9.668-20.23 22.379 3.363Zm0 0"/><path fill="#c9592e" d="m40.16 266.04-14.8-13.532 28.015-15.649Zm0 0"/><path fill="#dfd785" d="m157.316 341.512-47.039 15.5 12.266-26.61ZM207.121 384l3.055-48.469 51.547 18.477Zm0 0"/><path fill="#dfd785" d="M295.152 384h-88.03l54.6-29.992ZM18.059 128.797 19.3 166.32-.008 129.84Zm0 0"/><path fill="#ca5a2e" d="M38.742 119.887 19.613 77.934l40.172 15.914Zm0 0"/><path fill="#ded684" d="M76.66 120.71 61.262 92.669l20.918 17.195ZM24.652 209.879 0 188.848l31.344-4.02ZM24.652 209.879l6.692-25.05 19.676 16.858ZM55.723 179.559l6.507 11.78-11.21 10.349Zm0 0"/><path fill="#dfd785" d="m84.09 182.984-21.86 8.356-6.507-11.781Zm0 0"/><path fill="#dfd785" d="m78.438 167.648 5.652 15.336-28.367-3.425Zm0 0"/><path fill="#ded684" d="m78.438 167.648 1.601-12.246 4.469 7.97Zm0 0"/><path fill="#dfd785" d="m102.082 177.543-23.644-9.895 6.07-4.277Zm0 0"/><path fill="#ca5a2e" d="m62.59 141.996 17.45 13.406-18.68 2.54Zm0 0"/><path fill="#ded684" d="m80.04 155.402-1.603 12.246-17.078-9.707Zm0 0"/><path fill="#202215" d="m123.352 294.918 10.96 4.102-10.722 4.91Zm0 0"/><path fill="#202215" d="m123.352 294.918 10.156-6.926.804 11.028ZM95.871 294.395l27.48.523.239 9.012ZM123.352 294.918l-27.48-.523 5.921-7.942Zm0 0"/><path fill="#202215" d="m119.328 279.195 4.024 15.723-21.559-8.465ZM134.313 299.02l-.805-11.028 30.582 6.93Zm0 0"/><path fill="#dfd785" d="m84.09 182.984-5.653-15.336 23.645 9.895Zm0 0"/><path fill="#c9592e" d="m120.957 177.262-18.875.281 8.395-11.61Zm0 0"/><path fill="#ded684" d="m102.082 177.543 4.281 14.375-22.273-8.934Zm0 0"/><path fill="#c9592e" d="m105.523 222.863-29.886 7.008 12.71-16.867Zm0 0"/><path fill="#ded684" d="m118.953 261.508-18.266-26.996 6.54 1.64Zm0 0"/><path fill="#953b3b" d="m124.008 258.246-5.055 3.262-11.726-25.356Zm0 0"/><path fill="#963c3b" d="m118.953 261.508 5.055-3.262 3.414 7.445Zm0 0"/><path fill="#c9592e" d="m349.875 104.965-6.734-2.106 20.93-28.875Zm0 0"/><path fill="#ded684" d="m367.617 107.55-17.742-2.585 14.195-30.98ZM367.617 107.55l-3.547-33.566 19.934.153Zm0 0"/><path fill="#dfd785" d="m367.617 107.55 10.203 29.36-14.136-10.55Zm0 0"/><path fill="#dfd785" d="m377.82 136.91-22.816 2.184 8.68-12.735Zm0 0"/><path fill="#ded684" d="m355.004 139.094 22.816-2.184-23.367 32.188Zm0 0"/><path fill="#65643e" d="M286.64 43.469 241.528 70.25l-26.214-32.2Zm0 0"/><path fill="#c9592e" d="m308.64 117.266-.542 23.363-24.063-16.797Zm0 0"/><path fill="#3e281f" d="m328.418 112.73-19.777 4.536 23.054-29.059Zm0 0"/><path fill="#ded684" d="m331.695 88.207-23.054 29.059-7.047-30.282ZM364.07 73.984l-32.375 14.223-8.117-13.441Zm0 0"/><path fill="#ddd584" d="m331.695 88.207-30.101-1.223 21.984-12.218Zm0 0"/><path fill="#ca5a2e" d="m76.66 120.71 18.363 17.704-14.984 16.988Zm0 0"/><path fill="#e1ab65" d="m113.262 144.742-18.239-6.328 13-5.117Zm0 0"/><path fill="#e8bf73" d="m95.023 138.414 18.239 6.328-33.223 10.66Zm0 0"/><path fill="#dbd382" d="m123.348 104.457-32.95 13.191 6.77-26.96Zm0 0"/><path fill="#ded684" d="m90.398 117.648-8.218-7.785 14.988-19.175Zm0 0"/><path fill="#ded684" d="m90.398 117.648-13.738 3.063 5.52-10.848Zm0 0"/><path fill="#ca5a2e" d="m76.66 120.71 13.738-3.062 4.625 20.766Zm0 0"/><path fill="#ded684" d="m108.023 133.297-17.625-15.649 32.95-13.191Zm0 0"/><path fill="#ca5a2e" d="m95.023 138.414-4.625-20.766 17.625 15.649Zm0 0"/><path fill="#933b3b" d="m166.348 118.832-24.598 19.465-9.312-10.211Zm0 0"/><path fill="#202215" d="m179.238 135.656-37.488 2.64 24.598-19.464Zm0 0"/><path fill="#d6834a" d="m141.75 138.297 37.488-2.64-7.074 46.464Zm0 0"/><path fill="#c7592d" d="m172.164 182.121-8.445 18.664-21.692-21.418Zm0 0"/><path fill="#dfd785" d="m278.254 110.168-18.64 22.613-9.716-7.836Zm0 0"/><path fill="#c95a2e" d="m244.883 138.215 14.73-5.434.645 30.547Zm0 0"/><path fill="#c8592e" d="m259.613 132.781-14.73 5.434 5.015-13.27Zm0 0"/><path fill="#ded684" d="m278.254 110.168 5.781 13.664-24.422 8.95Zm0 0"/><path fill="#ded684" d="m260.258 163.328-.645-30.547 24.422-8.949Zm0 0"/><path fill="#ca5c2f" d="m179.238 135.656 31.489.735 3.023 45.238Zm0 0"/><path fill="#8d3a39" d="m254.059 222.492-.98-24.89 30.054 27.164Zm0 0"/><path fill="#ded684" d="m266.43 237.125-12.371-14.633 29.074 2.274ZM254.059 222.492l12.37 14.633-16.09-1.742Zm0 0"/><path fill="#222215" d="m253.078 197.602-17.062 19.535-13.082-17.172Zm0 0"/><path fill="#dfd785" d="m236.016 217.137 18.043 5.355-18.54 9.125Zm0 0"/><path fill="#ded684" d="m236.016 217.137-.496 14.48-19.665-13.258ZM278.41 245.855l7.371 3.422-11.445 6.676Zm0 0"/><path fill="#202215" d="m278.41 245.855-4.074 10.098-12.75 1.977Zm0 0"/><path fill="#422920" d="m266.43 237.125 11.98 8.73-16.824 12.075Zm0 0"/><path fill="#ded684" d="m254.059 270.617 11.156-5.265 8.055 12.109Zm0 0"/><path fill="#963c3c" d="m265.215 265.352-11.156 5.265 7.527-12.687Zm0 0"/><path fill="#202215" d="m256.598 286.668-2.54-16.05 19.212 6.843Zm0 0"/><path fill="#202215" d="m248.14 278.645 5.919-8.028 2.539 16.051ZM209.453 297.977l5.399-20.852 2.98 22.871Zm0 0"/><path fill="#dfd785" d="m235.52 231.617-18.918 17.168-.747-30.426ZM243.547 253.91l-26.945-5.125 18.918-17.168Zm0 0"/><path fill="#ded684" d="m222.5 270.902-5.898-22.117 26.945 5.125Zm0 0"/><path fill="#202215" d="m175.137 271.762 2.855 23.523-13.902-.363Zm0 0"/><path fill="#ded684" d="m197.355 290.902 12.098 7.075-21.695 14.183Zm0 0"/><path fill="#ded684" d="m177.992 295.285 19.363-4.383-9.597 21.258Zm0 0"/><path fill="#202215" d="m214.852 277.125-17.497 13.777 4.618-17.097Zm0 0"/><path fill="#202215" d="m197.355 290.902 17.497-13.777-5.399 20.852ZM197.355 290.902l-22.218-19.14 26.836 2.043Zm0 0"/><path fill="#202215" d="m175.137 271.762 22.218 19.14-19.363 4.383Zm0 0"/><path fill="#222215" d="m236.016 217.137-20.16 1.222 7.078-18.394Zm0 0"/><path fill="#ded684" d="m214.852 277.125-12.88-3.32 20.528-2.903ZM140.266 224.824l16.422 14.914-19.727-3.61Zm0 0"/><path fill="#ca5a2e" d="m355.004 139.094-21.305 15.375-4.02-23.211Zm0 0"/><path fill="#dfd785" d="m333.7 154.469 21.304-15.375-.55 30.004Zm0 0"/><path fill="#74362e" d="m287.46 201.71 12.583-12.136 3.762 17.793Zm0 0"/><path fill="#973c3b" d="m300.043 189.574-17.79-2.34 16.645-13.894Zm0 0"/><path fill="#953b3b" d="m282.254 187.234 17.789 2.34-12.582 12.137Zm0 0"/><path fill="#dfd785" d="m327.316 183.563-28.418-10.223 27.457-3.465Zm0 0"/><path fill="#c9592e" d="m300.043 189.574-1.145-16.234 28.418 10.222Zm0 0"/><path fill="#dfd785" d="M354.957 192.336 384 185.73l-16.527 21.313Zm0 0"/><path fill="#ded684" d="m384 384-53.125-50.602 31.629-19.66Zm0 0"/><path fill="#262317" d="m270.508 321.668 17.512-7.29-17.008 9.938Zm0 0"/><path fill="#ded684" d="m270.508 321.668-31.574.105 12.03-14.039ZM238.934 321.773l31.574-.105.504 2.648Zm0 0"/><path fill="#202215" d="m267.656 299.285 2.852 22.383-19.543-13.934Zm0 0"/><path fill="#202215" d="m284.414 302.422-13.906 19.246-2.852-22.383Zm0 0"/><path fill="#c9592d" d="m270.508 321.668 13.906-19.246 3.606 11.957Zm0 0"/><path fill="#dfd785" d="m285.781 249.277 8.04 2.758-2.868 14.125Zm0 0"/><path fill="#c9592e" d="m293.82 252.035 16.817 22.113-19.684-7.988Zm0 0"/><path fill="#ded684" d="m327.578 276.684 23.027 3.878-24.82 1.024Zm0 0"/><path fill="#c9592e" d="m350.605 280.563 8.29 5.464-13.493 18.743Zm0 0"/><path fill="#ded684" d="m288.02 314.379-26.297 39.629 9.289-29.692Zm0 0"/><path fill="#c9592d" d="m284.414 302.422 14.254-3.867-10.648 15.824Zm0 0"/><path fill="#ded684" d="m288.02 314.379 42.855 19.02L295.152 384Zm0 0"/><path fill="#dfd785" d="m51.656 257.988-1.535 10.899-9.96-2.848Zm0 0"/><path fill="#ded684" d="m20.71 249.68 4.65 2.828L0 264.218Zm0 0"/><path fill="#ded684" d="m25.36 252.508-4.65-2.828 3.942-39.801Zm0 0"/><path fill="#202215" d="m28.98 282.547 6.25 16.758-12.703-2.864Zm0 0"/><path fill="#c9592e" d="m40.54 276.07-11.56 6.477-1.828-13Zm0 0"/><path fill="#c9592d" d="m37.793 285.563-8.813-3.016 11.56-6.477Zm0 0"/><path fill="#202215" d="m22.527 296.441 7.082 15.508-22.546-8.93Zm0 0"/><path fill="#ded684" d="m29.61 311.95-2.626 33.788L7.063 303.02Zm0 0"/><path fill="#202215" d="m35.23 299.305-5.62 12.644-7.083-15.508ZM87.898 314.832l34.645 15.57-37.531-2.761Zm0 0"/><path fill="#212215" d="m122.543 330.402-34.645-15.57.95-10.5Zm0 0"/><path fill="#202215" d="m87.898 314.832-2.886 12.809-24.66-7.282ZM78.93 300.102l-18.578 20.257-1.372-24.398Zm0 0"/><path fill="#953c3b" d="m65.969 209.64 9.668 20.231-22.262 6.988Zm0 0"/><path fill="#dfd785" d="m157.316 341.512 9.512-34.23 20.93 4.878Zm0 0"/><path fill="#ded684" d="m134.313 299.02 32.515 8.261-9.512 34.23Zm0 0"/><path fill="#ded684" d="m166.828 307.281-32.516-8.261 29.778-4.098ZM166.828 307.281l11.164-11.996 9.766 16.875Zm0 0"/><path fill="#ded684" d="m177.992 295.285-11.164 11.996-2.738-12.36Zm0 0"/><path fill="#c9592d" d="m37.793 285.563 9.215 25.878-18.028-28.894Zm0 0"/><path fill="#202215" d="m47.008 311.441-9.215-25.878L58.98 295.96Zm0 0"/><path fill="#b7b26e" d="M19.613 77.934-.007 129.84 0 56.203Zm0 0"/><path fill="#ded684" d="m19.613 77.934-1.554 50.863-18.067 1.043Zm0 0"/><path fill="#ded684" d="m18.059 128.797 1.554-50.863 19.13 41.953Zm0 0"/><path fill="#ca5a2e" d="m38.742 119.887 15.11 5.629-12.79 24.09ZM53.852 125.516l8.738 16.48-21.528 7.61Zm0 0"/><path fill="#ded684" d="m59.785 93.848 1.477-1.18 15.398 28.043Zm0 0"/><path fill="#c95a2e" d="m53.852 125.516 5.933-31.668L76.66 120.71Zm0 0"/><path fill="#ca5a2e" d="m59.785 93.848-5.933 31.668-15.11-5.63Zm0 0"/><path fill="#8b3938" d="m65.969 209.64-25.176 11.204 10.227-19.156Zm0 0"/><path fill="#8a3938" d="m62.23 191.34 3.739 18.3-14.95-7.952Zm0 0"/><path fill="#4c2b23" d="m65.969 209.64-3.739-18.3 26.118 21.664Zm0 0"/><path fill="#202215" d="m123.352 294.918-4.024-15.723 14.18 8.797Zm0 0"/><path fill="#202215" d="m119.328 279.195 18.106-4.902-3.926 13.7Zm0 0"/><path fill="#3f291f" d="M88.348 213.004 62.23 191.34l21.86-8.356Zm0 0"/><path fill="#ded684" d="m115.64 227.73 24.626-2.906-3.305 11.305Zm0 0"/><path fill="#973c3b" d="m115.64 227.73 21.852-17.109 2.774 14.203Zm0 0"/><path fill="#943b3b" d="m115.64 227.73 15.891 28.329-24.304-19.907Zm0 0"/><path fill="#953b3b" d="m131.531 256.059-7.523 2.187-16.781-22.094Zm0 0"/><path fill="#ded684" d="m131.531 256.059-15.89-28.329 21.32 8.399Zm0 0"/><path fill="#ded684" d="m156.688 239.738-25.157 16.32 5.43-19.93Zm0 0"/><path fill="#973c3b" d="m100.688 234.512-13.836 3.27-11.215-7.91Zm0 0"/><path fill="#62302a" d="m134.906 198.566 2.586 12.055-27.863-4.3Zm0 0"/><path fill="#282317" d="m106.363 191.918 28.543 6.648-25.277 7.754Zm0 0"/><path fill="#ded584" d="m134.906 198.566-28.543-6.648 10.684-7.86Zm0 0"/><path fill="#cb6032" d="m113.262 144.742 13.183 21.953-15.968-.761Zm0 0"/><path fill="#ca5a2e" d="m126.445 166.695-5.488 10.567-10.48-11.328Zm0 0"/><path fill="#ded684" d="m75.293 257.188-13.918-.325 14.262-26.992Zm0 0"/><path fill="#41291f" d="m86.852 237.781-11.559 19.406.344-27.316Zm0 0"/><path fill="#953c3b" d="m105.523 222.863-4.835 11.649-25.051-4.64Zm0 0"/><path fill="#953b3b" d="m100.688 234.512 4.835-11.649 10.118 4.867Zm0 0"/><path fill="#bf5430" d="m98.203 257.8-13.012 3.973 1.66-23.992Zm0 0"/><path fill="#dfd785" d="M100.688 234.512 98.203 257.8l-11.351-20.02Zm0 0"/><path fill="#ded684" d="m118.953 261.508-20.75-3.707 2.484-23.29Zm0 0"/><path fill="#c9592e" d="m328.418 112.73 14.723-9.87 2.28 16.695ZM343.14 102.86l-14.722 9.87 3.277-24.523Zm0 0"/><path fill="#ca5a2e" d="m343.14 102.86 6.735 2.105-4.453 14.59Zm0 0"/><path fill="#c9592e" d="m343.14 102.86-11.445-14.653 32.375-14.223Zm0 0"/><path fill="#dfd785" d="m363.684 126.36-7.809-11.837 11.742-6.972ZM367.617 107.55l-11.742 6.973-6-9.558Zm0 0"/><path fill="#ded684" d="m345.422 119.555 10.453-5.032 7.809 11.836ZM349.875 104.965l6 9.558-10.453 5.032Zm0 0"/><path fill="#a19c60" d="M301.594 86.984 286.64 43.47l36.937 31.297Zm0 0"/><path fill="#96915a" d="m286.64 43.469 14.954 43.515-45.11 3.477Zm0 0"/><path fill="#7c794a" d="m241.527 70.25 45.114-26.781-30.157 46.992Zm0 0"/><path fill="#c95a2e" d="m311.375 156.71-3.277-16.081 25.601 13.84Zm0 0"/><path fill="#ded684" d="m326.355 169.875-14.98-13.164 22.324-2.242ZM301.594 86.984l7.047 30.282-30.387-7.098Zm0 0"/><path fill="#ca5a2e" d="m62.59 141.996 14.07-21.285 3.38 34.691ZM53.852 125.516l22.808-4.805-14.07 21.285Zm0 0"/><path fill="#953b3b" d="m132.438 128.086 9.312 10.21-14.77-.737Zm0 0"/><path fill="#202215" d="m142.027 179.367-.277-41.07 30.414 43.824Zm0 0"/><path fill="#202215" d="m141.75 138.297.277 41.07-15.582-12.672Zm0 0"/><path fill="#ded684" d="m249.898 124.945-29.484-6.695 13.047-10.941Zm0 0"/><path fill="#c9592e" d="m244.883 138.215-24.469-19.965 29.484 6.695Zm0 0"/><path fill="#202215" d="m210.727 136.39 9.687-18.14 24.469 19.965Zm0 0"/><path fill="#eabf73" d="m230.504 158.406-19.777-22.015 34.156 1.824Zm0 0"/><path fill="#202215" d="m213.75 181.629 16.754-23.223 14.777 19.27Zm0 0"/><path fill="#eac174" d="M230.504 158.406 213.75 181.63l-3.023-45.238Zm0 0"/><path fill="#202215" d="m245.281 177.676-14.777-19.27 31.348 7.45Zm0 0"/><path fill="#ded684" d="m282.254 187.234-5.34-9.375 21.984-4.52Zm0 0"/><path fill="#522d25" d="m236.016 217.137 17.062-19.535.98 24.89Zm0 0"/><path fill="#212215" d="m213.75 181.629 9.184 18.336-59.215.82Zm0 0"/><path fill="#202215" d="m172.164 182.121 41.586-.492-50.031 19.156Zm0 0"/><path fill="#b9552c" d="m179.238 135.656 34.512 45.973-41.586.492Zm0 0"/><path fill="#202215" d="m214.852 277.125 11.601 6.023-8.621 16.848ZM226.453 283.148l17.156-8.476-6.78 23.027Zm0 0"/><path fill="#202215" d="m217.832 299.996 8.621-16.848 10.375 14.551Zm0 0"/><path fill="#202215" d="m226.453 283.148-3.953-12.246 21.11 3.77Zm0 0"/><path fill="#202215" d="m226.453 283.148-11.601-6.023 7.648-6.223ZM133.508 287.992l3.926-13.699 26.656 20.629Zm0 0"/><path fill="#202215" d="m137.434 274.293 37.703-2.531-11.047 23.16Zm0 0"/><path fill="#dfd785" d="m175.137 271.762.62-11.266 26.216 13.309Zm0 0"/><path fill="#ded684" d="m201.973 273.805 14.629-25.02 5.898 22.117Zm0 0"/><path fill="#ca5a2e" d="m308.098 140.629 21.582-9.371 4.02 23.21Zm0 0"/><path fill="#c9592e" d="m308.64 117.266 21.04 13.992-21.582 9.37Zm0 0"/><path fill="#c9592e" d="m329.68 131.258-21.04-13.992 19.778-4.536Zm0 0"/><path fill="#954034" d="m300.043 189.574 15.281 6.707-11.52 11.086Zm0 0"/><path fill="#933c3a" d="m315.324 196.281-15.281-6.707 27.273-6.012Zm0 0"/><path fill="#ded684" d="m311.375 156.71-12.477 16.63-6.293-9.34ZM298.898 173.34l12.477-16.63 14.98 13.165Zm0 0"/><path fill="#ca5a2e" d="m308.098 140.629 3.277 16.082-18.77 7.289Zm0 0"/><path fill="#dfd785" d="M365.824 253.676 384 277.77l-20.352-6.598ZM365.824 253.676l-17.773-42.985 19.422-3.648Zm0 0"/><path fill="#dfd785" d="m384 277.77-18.176-24.094 1.649-46.633Zm0 0"/><path fill="#c9592e" d="m322.05 201.93 5.266-18.368 14.07 17.04Zm0 0"/><path fill="#ded684" d="m322.05 201.93-10.956 13.078-7.29-7.64Zm0 0"/><path fill="#2c2418" d="m315.324 196.281 6.727 5.649-18.246 5.437Zm0 0"/><path fill="#953e3c" d="m322.05 201.93-6.726-5.649 11.992-12.719Zm0 0"/><path fill="#ca5a2e" d="m310.637 274.148 16.941 2.536-1.793 4.902Zm0 0"/><path fill="#c9592e" d="m310.637 274.148-16.727 12.297-2.957-20.285Zm0 0"/><path fill="#c9592d" d="m293.91 286.445 16.727-12.297-3.184 15.09ZM293.91 286.445l4.758 12.11-14.254 3.867Zm0 0"/><path fill="#c9592d" d="m298.668 298.555-4.758-12.11 13.543 2.793Zm0 0"/><path fill="#c9592e" d="m339.984 264.969-12.406 11.715 7.063-23.2ZM345.695 252.98l-5.71 11.989-5.344-11.485ZM358.895 286.027l-8.29-5.464 13.043-9.391Zm0 0"/><path fill="#ded684" d="m339.984 264.969 10.621 15.594-23.027-3.88ZM298.668 298.555l19.508 3.504-30.156 12.32ZM318.176 302.059l12.699 31.34-42.855-19.02Zm0 0"/><path fill="#202215" d="m345.402 304.77-27.226-2.711 7.61-20.473Zm0 0"/><path fill="#dfd785" d="m330.875 333.398-12.7-31.34 27.227 2.712Zm0 0"/><path fill="#963c3c" d="m67.648 265.613-10.898.016 4.625-8.766Zm0 0"/><path fill="#ded684" d="m56.75 265.629-5.094-7.64 9.719-1.126Zm0 0"/><path fill="#dfd785" d="m56.75 265.629-6.629 3.258 1.535-10.899Zm0 0"/><path fill="#202215" d="m37.793 285.563 2.746-9.493 18.441 19.89Zm0 0"/><path fill="#dfd785" d="m50.121 268.887-9.582 7.183-.379-10.03ZM24.652 209.879 0 264.219v-75.371Zm0 0"/><path fill="#ded684" d="m24.652 209.879-3.941 39.8L0 264.22Zm0 0"/><path fill="#dfd785" d="m26.984 345.738 18.204-19.625 18.43 19.703Zm0 0"/><path fill="#dfd785" d="m29.61 311.95 15.578 14.163-18.204 19.625ZM45.188 326.113l15.164-5.754 3.265 25.457Zm0 0"/><path fill="#c9592d" d="m78.082 273.316 13.578 6.989-8.062 16.543Zm0 0"/><path fill="#c9592e" d="m85.191 261.773 6.47 18.532-13.579-6.989Zm0 0"/><path fill="#c9592d" d="m95.871 294.395-4.21-14.09 10.132 6.148ZM91.66 280.305l4.211 14.09-12.273 2.453Zm0 0"/><path fill="#ded684" d="m78.082 273.316-10.547 5.54.113-13.243Zm0 0"/><path fill="#963c3b" d="M67.535 278.855 56.75 265.63l10.898-.016Zm0 0"/><path fill="#ded684" d="m56.75 265.629 10.785 13.226-17.414-9.968Zm0 0"/><path fill="#202215" d="m40.54 276.07 26.995 2.785-8.555 17.106Zm0 0"/><path fill="#ded684" d="M67.535 278.855 40.54 276.07l9.582-7.183Zm0 0"/><path fill="#202215" d="m67.535 278.855 11.395 21.247-19.95-4.141Zm0 0"/><path fill="#202215" d="m67.535 278.855 16.063 17.993-4.668 3.254Zm0 0"/><path fill="#202215" d="m67.535 278.855 10.547-5.539 5.516 23.532Zm0 0"/><path fill="#ded684" d="m40.793 220.844-15.434 31.664-.707-42.63Zm0 0"/><path fill="#c95a2e" d="m25.36 252.508 15.433-31.664 12.582 16.015Zm0 0"/><path fill="#c9592e" d="m40.793 220.844 25.176-11.203-12.594 27.218Zm0 0"/><path fill="#ded684" d="m60.352 320.36-15.164 5.753 1.82-14.672Zm0 0"/><path fill="#202215" d="m60.352 320.36-13.344-8.919 11.972-15.48Zm0 0"/><path fill="#963c3c" d="m127.422 265.691-3.414-7.445 7.523-2.187Zm0 0"/><path fill="#933b3b" d="m137.492 210.621 14.899 7.277-12.125 6.926Zm0 0"/><path fill="#b5532b" d="m163.719 200.785-18.86-2.37-2.832-19.048Zm0 0"/><path fill="#38271d" d="m106.363 191.918-18.015 21.086-4.258-30.02Zm0 0"/><path fill="#212215" d="m109.629 206.32-21.281 6.684 18.015-21.086Zm0 0"/><path fill="#ded684" d="m100.688 234.512 14.953-6.782-8.414 8.422Zm0 0"/><path fill="#bd5231" d="m117.047 184.059-14.965-6.516 18.875-.281Zm0 0"/><path fill="#ded684" d="m102.082 177.543 14.965 6.516-10.684 7.859Zm0 0"/><path fill="#c95a2e" d="m142.027 179.367-21.07-2.105 5.488-10.567Zm0 0"/><path fill="#ca5a2e" d="m117.047 184.059 3.91-6.797 13.95 21.304Zm0 0"/><path fill="#ded684" d="m126.445 166.695-13.183-21.953 13.718-7.183Zm0 0"/><path fill="#5e2f29" d="m141.75 138.297-15.305 28.398.535-29.136Zm0 0"/><path fill="#ded684" d="m75.293 257.188-7.645 8.425-6.273-8.75Zm0 0"/><path fill="#c6582f" d="m105.523 222.863 31.97-12.242-21.852 17.11Zm0 0"/><path fill="#ded684" d="M119.254 274.598 98.204 257.8l20.75 3.707Zm0 0"/><path fill="#ded684" d="m119.254 274.598-.3-13.09 8.468 4.183Zm0 0"/><path fill="#ded684" d="m137.434 274.293-18.18.305 8.168-8.907Zm0 0"/><path fill="#202215" d="m119.328 279.195-.074-4.597 18.18-.305Zm0 0"/><path fill="#212215" d="m230.504 158.406 29.754 4.922 1.594 2.527Zm0 0"/><path fill="#232315" d="m230.504 158.406 14.379-20.191 15.375 25.113Zm0 0"/><path fill="#ca5a2e" d="m245.281 177.676 7.797 19.926-30.144 2.363Zm0 0"/><path fill="#c9592e" d="m245.281 177.676 11.067 12.988-3.27 6.938Zm0 0"/><path fill="#c9592e" d="m276.914 177.86-31.633-.184 16.57-11.82Zm0 0"/><path fill="#66312c" d="m179.238 135.656 16.344-17.035 15.145 17.77Zm0 0"/><path fill="#933b3b" d="m195.582 118.621-16.344 17.035-12.89-16.824Zm0 0"/><path fill="#943b3b" d="m210.727 136.39-15.145-17.769 24.832-.371Zm0 0"/><path fill="#ded684" d="m195.582 118.621-29.234.211-2.895-14.64ZM214.008 91.77l-18.426 26.851-32.129-14.43Zm0 0"/><path fill="#ded684" d="m220.414 118.25-24.832.371 18.426-26.851ZM175.758 260.496l12.504-16.848 13.71 30.157Zm0 0"/><path fill="#dfd785" d="m188.262 243.648 28.34 5.137-14.63 25.02Zm0 0"/><path fill="#dfd785" d="m216.602 248.785-28.34-5.137 27.593-25.289Zm0 0"/><path fill="#c9592d" d="m261.852 165.855 37.046 7.485-21.984 4.52Zm0 0"/><path fill="#c9592e" d="m298.898 173.34-37.046-7.485L292.605 164Zm0 0"/><path fill="#c9592d" d="m261.852 165.855 22.183-42.023 8.57 40.168Zm0 0"/><path fill="#272416" d="m261.852 165.855-1.594-2.527 23.777-39.496Zm0 0"/><path fill="#c9592e" d="m365.824 253.676-27.789-37.227 10.016-5.758Zm0 0"/><path fill="#c9592e" d="m348.05 210.691-10.015 5.758 3.352-15.847Zm0 0"/><path fill="#993d3b" d="m338.035 216.45 27.79 37.226-20.13-.696Zm0 0"/><path fill="#963c3b" d="m334.64 253.484 3.395-37.035 7.66 36.531Zm0 0"/><path fill="#963c3c" d="m302.762 231.918 12.636 14.71-21.578 5.407Zm0 0"/><path fill="#dfd785" d="m302.762 231.918-16.98 17.36-2.65-24.512Zm0 0"/><path fill="#ded684" d="m302.762 231.918-8.942 20.117-8.039-2.758Zm0 0"/><path fill="#8c3938" d="m302.762 231.918 11.488-4.195 1.148 18.906Zm0 0"/><path fill="#c9592e" d="m293.82 252.035 18.973 9.328-2.156 12.785Zm0 0"/><path fill="#bb5131" d="m315.398 246.629-2.605 14.734-18.973-9.328Zm0 0"/><path fill="#ded684" d="m312.793 261.363 14.785 15.32-16.941-2.535Zm0 0"/><path fill="#c9592e" d="m350.605 280.563 4.102-15.907 8.941 6.516ZM354.707 264.656l11.117-10.98-2.176 17.496ZM365.824 253.676l-11.117 10.98-9.012-11.676Zm0 0"/><path fill="#202215" d="m307.453 289.238 10.723 12.82-19.508-3.503Zm0 0"/><path fill="#202215" d="m318.176 302.059-10.723-12.82 18.332-7.653Zm0 0"/><path fill="#202215" d="m307.453 289.238 3.184-15.09 15.148 7.438Zm0 0"/><path fill="#ded684" d="m47.008 311.441-1.82 14.672-15.579-14.164Zm0 0"/><path fill="#c9592d" d="M47.008 311.441 35.23 299.305l-6.25-16.758Zm0 0"/><path fill="#202215" d="m47.008 311.441-17.399.508 5.621-12.644Zm0 0"/><path fill="#ca5a2e" d="m98.203 257.8.54 17.153-13.552-13.18Zm0 0"/><path fill="#ca5a2e" d="m98.742 274.953-7.082 5.352-6.469-18.532Zm0 0"/><path fill="#202215" d="m98.742 274.953 20.512-.355.074 4.597Zm0 0"/><path fill="#dfd785" d="m119.254 274.598-20.512.355-.539-17.152Zm0 0"/><path fill="#202215" d="m98.742 274.953 20.586 4.242-17.535 7.258Zm0 0"/><path fill="#d6a562" d="m91.66 280.305 7.082-5.352 3.051 11.5Zm0 0"/><path fill="#202215" d="m83.598 296.848 5.25 7.484-9.918-4.23Zm0 0"/><path fill="#202215" d="m95.871 294.395-7.023 9.937-5.25-7.484ZM88.848 304.332l-28.496 16.027 18.578-20.257ZM60.352 320.36l28.496-16.028-.95 10.5ZM152.39 217.898l-7.53-19.484 18.859 2.371Zm0 0"/><path fill="#ded684" d="m152.39 217.898 4.298 21.84-16.422-14.914Zm0 0"/><path fill="#592e28" d="m134.906 198.566 9.953-.152-7.367 12.207Zm0 0"/><path fill="#272317" d="m144.86 198.414 7.53 19.484-14.898-7.277Zm0 0"/><path fill="#994829" d="m144.86 198.414-9.954.152 7.121-19.199Zm0 0"/><path fill="#ca5a2e" d="m134.906 198.566-13.949-21.304 21.07 2.105Zm0 0"/><path fill="#ded684" d="m67.648 265.613 7.645-8.425 2.789 16.128Zm0 0"/><path fill="#c25530" d="m75.293 257.188 9.898 4.585-7.109 11.543Zm0 0"/><path fill="#6c332d" d="m85.191 261.773-9.898-4.586 11.559-19.406Zm0 0"/><path fill="#c95a2e" d="m137.492 210.621-31.969 12.242 4.106-16.543ZM105.523 222.863l-17.175-9.86 21.28-6.683ZM256.348 190.664l-11.067-12.988 31.633.183Zm0 0"/><path fill="#ded684" d="m256.348 190.664 20.566-12.805 5.34 9.375ZM139.895 266.246l16.792-26.508 19.07 20.758ZM137.434 274.293l2.46-8.047 35.243 5.516ZM139.895 266.246l35.863-5.75-.621 11.266ZM156.688 239.738l31.574 3.91-12.504 16.848Zm0 0"/><path fill="#953b3b" d="m300.266 219.023 2.496 12.895-19.63-7.152Zm0 0"/><path fill="#a44437" d="m314.25 227.723-13.984-8.7 10.828-4.015Zm0 0"/><path fill="#963c3b" d="m300.266 219.023 13.984 8.7-11.488 4.195Zm0 0"/><path fill="#943c39" d="m311.094 215.008-10.828 4.015 3.539-11.656Zm0 0"/><path fill="#ca5a2e" d="m287.46 201.71 12.806 17.313-17.133 5.743Zm0 0"/><path fill="#c9592d" d="m300.266 219.023-12.805-17.312 16.344 5.656Zm0 0"/><path fill="#ded684" d="m326.316 252.41-13.523 8.953 2.605-14.734ZM327.578 276.684l-1.262-24.274 8.325 1.074Zm0 0"/><path fill="#ded684" d="m312.793 261.363 13.523-8.953 1.262 24.274Zm0 0"/><path fill="#be5331" d="m323.59 221.168 14.445-4.719-3.394 37.035Zm0 0"/><path fill="#dfd684" d="m348.473 265.332-8.489-.363 5.711-11.989Zm0 0"/><path fill="#dfd684" d="m354.707 264.656-6.234.676-2.778-12.352Zm0 0"/><path fill="#dfd785" d="m348.473 265.332 2.132 15.23-10.62-15.593Zm0 0"/><path fill="#ded684" d="m348.473 265.332 6.234-.676-4.102 15.906Zm0 0"/><path fill="#953c3b" d="m127.422 265.691 12.473.555-2.461 8.047Zm0 0"/><path fill="#dfd785" d="m156.688 239.738-16.793 26.508-8.364-10.187Zm0 0"/><path fill="#ded684" d="m139.895 266.246-12.473-.555 4.11-9.632ZM188.262 243.648l-17.504-23.878 45.097-1.41ZM156.688 239.738l14.07-19.968 17.504 23.878Zm0 0"/><path fill="#202215" d="m215.855 218.36-45.097 1.41-7.04-18.985Zm0 0"/><path fill="#ded684" d="m170.758 219.77-14.07 19.968-4.297-21.84Zm0 0"/><path fill="#222215" d="m163.719 200.785 7.039 18.985-18.367-1.872Zm0 0"/><path fill="#ded684" d="m326.316 252.41-2.726-31.242 11.05 32.316Zm0 0"/><path fill="#ded684" d="m323.59 221.168 2.726 31.242-12.066-24.687ZM314.25 227.723l12.066 24.687-10.918-5.781ZM322.05 201.93l1.54 19.238-12.496-6.16Zm0 0"/><path fill="#ded684" d="m323.59 221.168-9.34 6.555-3.156-12.715Zm0 0"/><path fill="#c9592e" d="m338.035 216.45-15.984-14.52 19.336-1.328ZM338.035 216.45l-14.445 4.718-1.54-19.238Zm0 0"/></svg>