<svg xmlns="http://www.w3.org/2000/svg" width="512" height="512" viewBox="0 0 384 384"><path fill="#23495d" d="m-.004 57.887 90.746-23.774-11.285 23.953Zm0 0"/><path fill="#2d5969" d="M11.672 305.527.012 290.95l17.023-6.902Zm0 0"/><path fill="#b0cecb" d="M32.273 77.332-.004 57.887l79.461.18Zm0 0"/><path fill="#d9f1e8" d="m124.887 134.79-10.32-18.946 25.62 7.996ZM124.887 134.79l-15.48-.099 5.16-18.847ZM155.121 104.457l4.406 18.64-19.34.743Zm0 0"/><path fill="#689599" d="m204.41 64.605 8.195 27.301-29.726 7.266Zm0 0"/><path fill="#daf1e8" d="m348.129 342.633-37.969-8.77 34.195-28Zm0 0"/><path fill="#396f79" d="m286.836 280.355.168 16.989-20.383-20.012ZM287.004 297.344l-34.645-5.914 14.262-14.098Zm0 0"/><path fill="#23495d" d="m115.098 0 30.78 38.496-55.136-4.383Zm0 0"/><path fill="#23495d" d="M115.098 0 90.742 34.113 0 0Zm0 0"/><path fill="#d9f1e8" d="m.012 290.95 11.66 14.577L0 327.332Zm0 0"/><path fill="#daf1e8" d="m.012 290.95-.012-39 17.035 32.097ZM.004 129.863l18.539 87.442L0 251.949Zm0 0"/><path fill="#386d78" d="m252.36 291.43-15.778 8.695-4.379-14.445Zm0 0"/><path fill="#386c77" d="m236.582 300.125-19.437-3.828 15.058-10.617Zm0 0"/><path fill="#daf1e8" d="m217.145 296.297 19.437 3.828-5.05 21.34ZM105.41 355.8l1.942 28.2-59.075-35.035Zm0 0"/><path fill="#f04d51" d="m18.543 130.777 31.402-1.02-10.164 19.817Zm0 0"/><path fill="#bddad5" d="m79.457 58.066-18.89 37.645-28.294-18.379Zm0 0"/><path fill="#56878e" d="M79.457 58.066 95.684 88.54l-35.118 7.172Zm0 0"/><path fill="#daf1e8" d="m120.398 327.742 16.567-31.297 29.265 43.707ZM364.25 128.664l19.75 7.34-30.035 20.105Zm0 0"/><path fill="#23495d" d="m279.324 24.613 67.274 7.102-56.953 29.652ZM384 0 279.324 24.613 222.535 0Zm0 0"/><path fill="#89b0b1" d="m234.957 89.223-22.352 2.683-8.195-27.3Zm0 0"/><path fill="#d8f0e7" d="m212.605 91.906 22.352-2.683-5.703 15.156Zm0 0"/><path fill="#244a5e" d="m250.777 50.305-15.82 38.918-30.547-24.618Zm0 0"/><path fill="#23495d" d="m234.957 89.223 15.82-38.918 13.149 24.297Zm0 0"/><path fill="#daf1e8" d="m216.777 118.383-4.172-26.477 16.649 12.473Zm0 0"/><path fill="#9b222b" d="m195.813 194.68-16.45 10.343-11.64-13.992ZM267.438 235.809l16.222-8.496-7.656 24.3Zm0 0"/><path fill="#daf1e8" d="m240.852 252.887 26.585-17.078-6.62 24.011Zm0 0"/><path fill="#daf1e8" d="m267.438 235.809-26.586 17.078-4.918-21.317Zm0 0"/><path fill="#386e79" d="m243.988 276.633 8.371 14.797-20.156-5.75Zm0 0"/><path fill="#386d78" d="m252.36 291.43-8.372-14.797 22.633.699Zm0 0"/><path fill="#d9f1e8" d="m243.988 276.633-3.136-23.746 19.964 6.933Zm0 0"/><path fill="#9b222b" d="m252.648 209.574-3.37-16.867 7.48 5.703Zm0 0"/><path fill="#a1252d" d="m252.648 209.574 35.286-4.976-4.274 22.714Zm0 0"/><path fill="#d9f1e8" d="M357.484 289.477 384 306.699l-39.645-.836Zm0 0"/><path fill="#daf1e8" d="M273.371 303.941 252.36 291.43l34.645 5.914Zm0 0"/><path fill="#f04e52" d="m343.086 302.246 14.398-12.77-13.129 16.387Zm0 0"/><path fill="#396f79" d="m254.012 321.086-17.43-20.961 15.777-8.695Zm0 0"/><path fill="#daf1e8" d="m236.582 300.125 17.43 20.96-22.48.38Zm0 0"/><path fill="#daf1e8" d="m231.531 321.465 22.48-.38 3.005 27.356Zm0 0"/><path fill="#d9f1e8" d="m254.012 321.086 18.629-.957-15.625 28.312Zm0 0"/><path fill="#23495d" d="M145.879 38.496 222.535 0 204.41 64.605ZM222.535 0l28.242 50.305-46.367 14.3Zm0 0"/><path fill="#d9f1e8" d="m121.7 104.672-7.134 11.172-18.882-27.305ZM121.7 104.672l33.421-.215-14.934 19.383Zm0 0"/><path fill="#daf1e8" d="m114.566 115.844 7.133-11.172 18.489 19.168Zm0 0"/><path fill="#23495d" d="m160.832 78.152-14.953-39.656 58.531 26.11Zm0 0"/><path fill="#c6e0da" d="m121.7 104.672 39.132-26.52-5.71 26.305Zm0 0"/><path fill="#d3ede4" d="m160.832 78.152 43.578-13.547-21.531 34.567Zm0 0"/><path fill="#a0c2c0" d="m155.121 104.457 5.711-26.305 22.047 21.02Zm0 0"/><path fill="#9b222b" d="m169.926 117.977-10.399 5.12-4.406-18.64Zm0 0"/><path fill="#23495d" d="M-.004 57.887 0 0l90.742 34.113Zm0 0"/><path fill="#386e78" d="m31.902 292.098-20.23 13.43 5.363-21.481Zm0 0"/><path fill="#daf1e8" d="m39.738 225.293-21.195-7.988 27.004-8.235ZM18.543 217.305l-5.508 35.191L0 251.95ZM214.91 332.512l16.621-11.047 25.485 26.976Zm0 0"/><path fill="#daf1e8" d="m214.91 332.512 2.235-36.215 14.386 25.168Zm0 0"/><path fill="#daf1e8" d="m217.145 296.297-2.235 36.215-15.933-27.547ZM0 384l48.277-35.035L107.352 384Zm0 0"/><path fill="#d9f1e8" d="M93.582 327.887 105.41 355.8l-35.543-31.028Zm0 0"/><path fill="#daf1e8" d="m105.41 355.8-11.828-27.913 20.11.957Zm0 0"/><path fill="#daf1e8" d="m113.691 328.844 6.707-1.102-14.988 28.059Zm0 0"/><path fill="#f04e52" d="M113.691 328.844 95.555 295.71l24.843 32.031ZM113.691 328.844 87.312 301.77l8.243-6.06Zm0 0"/><path fill="#f04d51" d="M73.441 139.176 55.7 155.89l-15.918-6.317Zm0 0"/><path fill="#daf1e8" d="m51.742 180.277 3.957-24.386 16.309 16.5Zm0 0"/><path fill="#daf1e8" d="m30.395 173.375 21.347 6.902-6.195 28.793ZM18.543 130.777l11.852 42.598L.004 129.863Zm0 0"/><path fill="#daf1e8" d="m51.742 180.277-21.347-6.902 25.304-17.484Zm0 0"/><path fill="#daf1e8" d="m30.395 173.375-11.852-42.598 21.238 18.797ZM55.7 155.89l-25.305 17.485 9.386-23.8ZM55.7 155.89l23.577.352-7.27 16.149Zm0 0"/><path fill="#f04d51" d="m99.414 151.262-8.531 17.968-11.606-12.988Zm0 0"/><path fill="#9b222b" d="M73.918 230.305 48.77 249.934l.464-6.766Zm0 0"/><path fill="#9b222b" d="m48.77 249.934 25.148-19.63-13.766 31.844Zm0 0"/><path fill="#daf1e8" d="m356.484 180.465-27.785 2.887 4.574-15ZM384 136.004l-27.516 44.46-2.52-24.355ZM356.484 180.465 384 136.004l.004 105.805Zm0 0"/><path fill="#d9f1e8" d="m335.559 61.996 3.25 3.16-36.762 18.574Zm0 0"/><path fill="#f14e52" d="m344.371 113.695 4.04 29.215-15.938-13.097Zm0 0"/><path fill="#f04d51" d="m348.41 142.91-4.039-29.215 19.879 14.97Zm0 0"/><path fill="#23495d" d="m384 0-37.402 31.715-67.274-7.102ZM384 38.188l-37.402-6.473L384 0Zm0 0"/><path fill="#23495d" d="M346.598 31.715 384 38.188 359.898 48.44ZM346.598 31.715l-11.04 30.281-45.913-.629Zm0 0"/><path fill="#9c222b" d="m323.957 110.664 20.414 3.031-11.898 16.118Zm0 0"/><path fill="#d9f1e8" d="m346.852 76.11-8.043-10.954 27.445 12.25ZM109.121 135.531l.285-.84 15.48.098ZM109.121 135.531l-9.707 15.73-20.137 4.981Zm0 0"/><path fill="#9b222b" d="m73.441 139.176 35.68-3.645-29.844 20.711Zm0 0"/><path fill="#daf1e8" d="m234.957 89.223 6.938 32.629-12.641-17.473Zm0 0"/><path fill="#bad5d0" d="m260.352 98.836-25.395-9.613 28.969-14.621Zm0 0"/><path fill="#d9e6de" d="m282.238 88.953-21.886 9.883 3.574-24.234Zm0 0"/><path fill="#daf1e8" d="m260.352 98.836-18.457 23.016-6.938-32.63ZM260.352 98.836l20.355 9.848-16.57 20.789Zm0 0"/><path fill="#daf1e8" d="m280.707 108.684-20.355-9.848 21.886-9.883Zm0 0"/><path fill="#9a222b" d="m231.344 196.867 3.586-33.437 14.347 29.277Zm0 0"/><path fill="#9a222b" d="m234.93 163.43-3.586 33.437-35.778-26.27Zm0 0"/><path fill="#d9f1e8" d="m274.184 256.781 2.836-4.722 14.378 22.222ZM283.66 227.313l-6.64 24.746-1.016-.446ZM286.547 275.152l-12.363-18.37 17.214 17.5Zm0 0"/><path fill="#d9f1e8" d="m286.836 280.355-.29-5.203 4.852-.87Zm0 0"/><path fill="#d9f1e8" d="m264.844 266.313 21.992 14.042-20.215-3.023Zm0 0"/><path fill="#9b222b" d="m274.184 256.781-9.34 9.531-4.028-6.492Zm0 0"/><path fill="#d9f1e8" d="m264.844 266.313 21.703 8.84.289 5.202ZM286.547 275.152l-21.703-8.84 9.34-9.53Zm0 0"/><path fill="#daf1e8" d="m365.223 245.262-24.118-45.782 42.899 42.329Zm0 0"/><path fill="#daf1e8" d="m384 306.7-18.617-37.86 18.62-27.031Zm0 0"/><path fill="#daf1e8" d="M365.383 268.84 384 306.7l-26.516-17.223Zm0 0"/><path fill="#d9f1e8" d="m243.988 276.633-14.035-5.211 10.899-18.535Zm0 0"/><path fill="#9b222b" d="m195.813 194.68.683 25.504-17.133-15.16Zm0 0"/><path fill="#daf1e8" d="m356.484 180.465-23.21-12.113 20.69-12.243Zm0 0"/><path fill="#ee4c51" d="m276.691 134.95 29.747 20.874-8.528 6.461Zm0 0"/><path fill="#daf1e8" d="m328.7 183.352 27.784-2.887-15.379 19.015Zm0 0"/><path fill="#9b222b" d="m280.469 186.598-27.82 22.976 4.109-11.164Zm0 0"/><path fill="#9b222b" d="m280.469 186.598 7.465 18-35.286 4.976Zm0 0"/><path fill="#daf1e8" d="m341.105 199.48 15.38-19.015 27.519 61.344ZM384 384l-75.879-.004 40.008-41.363Zm0 0"/><path fill="#daf1e8" d="m308.121 383.996 2.04-50.133 37.968 8.77ZM348.129 342.633 384 306.699V384Zm0 0"/><path fill="#daf1e8" d="m384 306.7-35.871 35.933-3.774-36.77Zm0 0"/><path fill="#d9f1e8" d="m351.895 281.676-8.81 20.57-20.882-12.285Zm0 0"/><path fill="#f04d51" d="m343.086 302.246 8.809-20.57 5.59 7.8Zm0 0"/><path fill="#daf1e8" d="m272.64 320.129 37.52 13.734-53.144 14.578ZM257.016 348.441l53.144-14.578-2.039 50.133Zm0 0"/><path fill="#23495d" d="M115.098 0h107.437L145.88 38.496Zm0 0"/><path fill="#3d737d" d="m118.559 69.547 3.14 35.125-26.015-16.133Zm0 0"/><path fill="#437680" d="m118.559 69.547 42.273 8.605-39.133 26.52Zm0 0"/><path fill="#457982" d="m79.457 58.066 39.102 11.48L95.684 88.54Zm0 0"/><path fill="#23495d" d="m118.559 69.547-39.102-11.48 11.285-23.954Zm0 0"/><path fill="#23495d" d="m145.879 38.496-27.32 31.05-27.817-35.433ZM160.832 78.152l-42.273-8.605 27.32-31.05Zm0 0"/><path fill="#d9f1e8" d="M38.793 281.34 25.949 270.87l13.848-2.48Zm0 0"/><path fill="#daf1e8" d="m0 251.95 13.035.546 4 31.55Zm0 0"/><path fill="#9b222b" d="m25.234 254.457 23.536-4.523-8.973 18.457ZM25.95 270.871l-.716-16.414 14.563 13.934Zm0 0"/><path fill="#d9f1e8" d="m13.035 252.496 12.2 1.961.714 16.414Zm0 0"/><path fill="#daf1e8" d="m17.035 284.047-4-31.55L25.95 270.87ZM0 384v-56.668l48.277 21.633Zm0 0"/><path fill="#9b222b" d="m48.77 249.934-23.536 4.523 24-11.289Zm0 0"/><path fill="#daefe6" d="M166.23 340.152 212.172 384h-104.82Zm0 0"/><path fill="#d9f1e8" d="m120.398 327.742 45.832 12.41-60.82 15.649Zm0 0"/><path fill="#daf1e8" d="m105.41 355.8 60.82-15.648L107.352 384Zm0 0"/><path fill="#daf0e7" d="M257.016 348.441 212.172 384l2.738-51.488Zm0 0"/><path fill="#daefe6" d="m257.016 348.441 51.105 35.555-95.95.004Zm0 0"/><path fill="#daf1e8" d="m105.41 355.8-57.133-6.835 21.59-24.192Zm0 0"/><path fill="#d9f1e8" d="M.004 129.863 16.98 81.945l1.563 48.832Zm0 0"/><path fill="#f14e52" d="M38.129 116.414 16.98 81.945l15.293-4.613Zm0 0"/><path fill="#9b222b" d="m38.129 116.414 11.816 13.344-31.402 1.02Zm0 0"/><path fill="#d9f1e8" d="m16.98 81.945 21.149 34.47-19.586 14.362Zm0 0"/><path fill="#d3ece4" d="M95.684 88.54 73.02 109.534 60.566 95.711Zm0 0"/><path fill="#d9f1e8" d="m18.543 217.305 11.852-43.93 15.152 35.695Zm0 0"/><path fill="#daf1e8" d="m.004 129.863 30.39 43.512-11.851 43.93Zm0 0"/><path fill="#d9f1e8" d="m51.742 180.277 10.043 11.657-16.238 17.136Zm0 0"/><path fill="#daf2e9" d="m83.82 183.39-22.035 8.544 10.223-19.543Zm0 0"/><path fill="#daf1e8" d="m61.785 191.934-10.043-11.657 20.266-7.886ZM90.883 169.23l-18.875 3.16 7.27-16.148Zm0 0"/><path fill="#f04d51" d="m73.441 139.176 5.836 17.066-23.578-.351Zm0 0"/><path fill="#daf1e8" d="m95.555 295.71 41.41.735-16.567 31.297Zm0 0"/><path fill="#396f79" d="m95.555 295.71 41.117-3.515.293 4.25Zm0 0"/><path fill="#376d78" d="m136.965 296.445-.293-4.25 25.754 1.203Zm0 0"/><path fill="#9b222b" d="m167.723 191.031 11.64 13.992-23.09 10.54Zm0 0"/><path fill="#daf2e9" d="m83.82 183.39 7.063-14.16 8.012 19.708Zm0 0"/><path fill="#daf2e9" d="m83.82 183.39-11.812-11 18.875-3.16Zm0 0"/><path fill="#9b222b" d="m105.922 232.816 11.101-5.652-2.585 9.988Zm0 0"/><path fill="#9d232c" d="m127.676 169.066-22.852 6.918-5.41-24.722Zm0 0"/><path fill="#daf1e8" d="m90.883 169.23 13.941 6.754-5.93 12.953Zm0 0"/><path fill="#f04e52" d="m104.824 175.984-13.941-6.754 8.531-17.968Zm0 0"/><path fill="#d9f1e8" d="m82.023 216.496-8.105 13.809 2.262-17.801Zm0 0"/><path fill="#9b222b" d="m73.918 230.305 8.105-13.809 4.028 20.137Zm0 0"/><path fill="#d9f1e8" d="m113.54 253.71-9.68-8.612 7.546-2.453Zm0 0"/><path fill="#9a222b" d="m122.563 251.215-9.024 2.496-2.133-11.066Zm0 0"/><path fill="#9b222b" d="m113.54 253.71 9.022-2.495-2.757 10.351Zm0 0"/><path fill="#23495d" d="m335.559 61.996 11.039-30.281 13.3 16.726Zm0 0"/><path fill="#f04d51" d="m344.371 113.695 2.48-37.586 19.403 1.297Zm0 0"/><path fill="#daf1e8" d="m367.516 121.508-23.145-7.813 21.883-36.289ZM367.516 121.508 384 136.004l-19.75-7.34Zm0 0"/><path fill="#daf1e8" d="m367.516 121.508-1.262-44.102L384 136.004Zm0 0"/><path fill="#c2ded8" d="m289.645 61.367 45.914.63-33.512 21.733Zm0 0"/><path fill="#daf1e8" d="m348.41 142.91 15.84-14.246-10.285 27.445Zm0 0"/><path fill="#23495d" d="m279.324 24.613-28.547 25.692L222.535 0Zm0 0"/><path fill="#d9f1e8" d="m338.809 65.156-13.825 22.246-22.937-3.672Zm0 0"/><path fill="#d9f1e8" d="m346.852 76.11-21.868 11.292 13.825-22.246Zm0 0"/><path fill="#daf1e8" d="m324.984 87.402-24.836 13.368 1.899-17.04ZM324.984 87.402l-12.398 16.57-12.438-3.202Zm0 0"/><path fill="#9b222b" d="m71.66 123.66 37.461 11.871-35.68 3.645Zm0 0"/><path fill="#daf1e8" d="m114.566 115.844-24.375.785 5.493-28.09Zm0 0"/><path fill="#daf1e8" d="m90.191 116.629-17.171-7.094L95.684 88.54ZM90.191 116.629l-18.53 7.031 1.359-14.125Zm0 0"/><path fill="#9b222b" d="m71.66 123.66 18.531-7.031 18.93 18.902Zm0 0"/><path fill="#d9f1e8" d="M109.406 134.691 90.191 116.63l24.375-.785Zm0 0"/><path fill="#9b222b" d="m109.121 135.531-18.93-18.902 19.215 18.062ZM173.59 145.191l21.976 25.407-31.543-4.34ZM159.527 123.098l-11.117 22.847-8.222-22.105Zm0 0"/><path fill="#9b222b" d="m173.59 145.191-25.18.754 11.117-22.847ZM148.41 145.945l-23.523-11.156 15.3-10.95Zm0 0"/><path fill="#9a222b" d="m148.41 145.945 25.18-.754-9.567 21.067Zm0 0"/><path fill="#daf1e8" d="m259.297 129.664 1.055-30.828 3.785 30.637ZM260.352 98.836l-1.055 30.828-17.402-7.812Zm0 0"/><path fill="#9b222b" d="M259.297 129.664 234.93 163.43l6.965-41.578ZM306.438 155.824 276.69 134.95l16.063-18.906Zm0 0"/><path fill="#d9f1e8" d="m276.691 134.95 4.016-26.266 12.047 7.359ZM280.707 108.684l-4.016 26.265-12.554-5.476ZM264.137 129.473l-3.067 34.875-1.773-34.684Zm0 0"/><path fill="#daf1e8" d="m261.07 164.348 3.067-34.875 12.554 5.476Zm0 0"/><path fill="#9b222b" d="m169.926 117.977 3.664 27.214-14.063-22.093Zm0 0"/><path fill="#daf1e8" d="m169.926 117.977-14.805-13.52 27.758-5.285Zm0 0"/><path fill="#9b222b" d="m248.86 221.902 3.788-12.328 31.012 17.738Zm0 0"/><path fill="#d9f1e8" d="m267.438 235.809-18.579-13.907 34.801 5.41Zm0 0"/><path fill="#daf1e8" d="m248.86 221.902 18.577 13.907-31.503-4.239Zm0 0"/><path fill="#9a222b" d="m252.648 209.574-18.07 6.176-3.234-18.883ZM234.578 215.75l-11.644-6.102 8.41-12.78Zm0 0"/><path fill="#d9f1e8" d="m234.578 215.75 14.281 6.152-12.925 9.668Zm0 0"/><path fill="#d9f1e8" d="m234.578 215.75 1.356 15.82-11.512-13.527Zm0 0"/><path fill="#9b222b" d="m222.934 209.648 11.644 6.102-10.156 2.293Zm0 0"/><path fill="#9a222b" d="m231.344 196.867-8.41 12.781-27.121-14.968Zm0 0"/><path fill="#9b222b" d="m276.004 251.613 1.016.446-2.836 4.722Zm0 0"/><path fill="#9b222b" d="m276.004 251.613-1.82 5.168-13.368 3.04Zm0 0"/><path fill="#9c222b" d="m267.438 235.809 8.566 15.804-15.188 8.207Zm0 0"/><path fill="#d9f1e8" d="m243.988 276.633 20.856-10.32 1.777 11.019Zm0 0"/><path fill="#9b222b" d="m264.844 266.313-20.856 10.32 16.828-16.813Zm0 0"/><path fill="#d9f1e8" d="m235.934 231.57-33.68 11.555 22.168-25.082ZM240.852 252.887l-38.598-9.762 33.68-11.555Zm0 0"/><path fill="#daf2e9" d="m229.953 271.422-27.7-28.297 38.599 9.762Zm0 0"/><path fill="#386f79" d="m184.684 272.977 2.035 21.93-24.293-1.509Zm0 0"/><path fill="#daf1e8" d="m200.832 289.207 16.313 7.09-18.168 8.668Zm0 0"/><path fill="#daf1e8" d="m186.719 294.906 14.113-5.699-1.855 15.758Zm0 0"/><path fill="#386f79" d="m200.832 289.207 7.746-12.781 8.567 19.87ZM184.684 272.977l16.148 16.23-14.113 5.7Zm0 0"/><path fill="#9b222b" d="m196.496 220.184 26.438-10.536 1.488 8.395Zm0 0"/><path fill="#9a222b" d="m222.934 209.648-26.438 10.536-.684-25.504Zm0 0"/><path fill="#d9f1e8" d="m195.727 264.64 12.851 11.786-7.746 12.781Zm0 0"/><path fill="#d9f1e8" d="m208.578 276.426-12.851-11.785 34.226 6.78Zm0 0"/><path fill="#f04d51" d="m348.41 142.91-13.86 10.715-2.077-23.812Zm0 0"/><path fill="#daf1e8" d="m334.55 153.625 13.86-10.715 5.555 13.2Zm0 0"/><path fill="#daf1e8" d="m333.273 168.352 1.278-14.727 19.414 2.484Zm0 0"/><path fill="#9b222b" d="m287.934 204.598 14.89-14.22.453 17.196Zm0 0"/><path fill="#9b222b" d="m302.824 190.379-22.355-3.781 23.816-12.215Zm0 0"/><path fill="#9b222b" d="m280.469 186.598 22.355 3.78-14.89 14.22Zm0 0"/><path fill="#daf1e8" d="m328.7 183.352-24.415-8.97 28.988-6.03Zm0 0"/><path fill="#bd333a" d="m302.824 190.379 1.461-15.996 24.414 8.969Zm0 0"/><path fill="#396f79" d="m272.64 320.129-18.628.957-1.653-29.656Zm0 0"/><path fill="#d9f1e8" d="m273.371 303.941-.73 16.188-20.282-28.7Zm0 0"/><path fill="#daf1e8" d="m287.004 297.344-14.363 22.785.73-16.188Zm0 0"/><path fill="#d9f1e8" d="m277.02 252.059 15.648 2.605-1.27 19.617Zm0 0"/><path fill="#ec4b4f" d="m292.668 254.664 17.094 23.867-18.364-4.25Zm0 0"/><path fill="#daf1e8" d="m324.223 282.945 27.672-1.27-29.692 8.286Zm0 0"/><path fill="#f04e52" d="m351.895 281.676 13.488-12.836-7.899 20.637Zm0 0"/><path fill="#daf1e8" d="m306.574 306.207-13.77 1.64 11.59-14.113Zm0 0"/><path fill="#f04e52" d="m292.805 307.848-5.801-10.504 17.39-3.61ZM287.004 297.344l5.8 10.504-20.163 12.28Zm0 0"/><path fill="#daf1e8" d="m292.805 307.848 17.355 26.015-37.52-13.734Zm0 0"/><path fill="#daf1e8" d="m292.805 307.848 13.77-1.641 3.585 27.656ZM48.77 249.934l3.195 22.754-12.168-4.297Zm0 0"/><path fill="#f04d51" d="m38.793 281.34-6.863 10.695-5.98-21.164Zm0 0"/><path fill="#d9f1e8" d="m31.93 292.035-14.895-7.988 8.914-13.176Zm0 0"/><path fill="#386f79" d="m31.93 292.035-.028.063-14.867-8.051Zm0 0"/><path fill="#f04d51" d="m31.902 292.098.028-.063 14.785 20.867Zm0 0"/><path fill="#d9f1e8" d="m79.313 280.04-19.16-17.892 12.968-2.414Zm0 0"/><path fill="#396f79" d="m113.691 328.844-20.109-.957-6.27-26.117Zm0 0"/><path fill="#386f79" d="m74.016 312.602 19.566 15.285-23.715-3.114Zm0 0"/><path fill="#396f79" d="m87.313 301.77-13.297 10.832-32.72-18.907Zm0 0"/><path fill="#daf0e7" d="m212.172 384-45.942-43.848 48.68-7.64Zm0 0"/><path fill="#d9f1e8" d="m214.91 332.512-48.68 7.64 32.747-35.187Zm0 0"/><path fill="#daf1e8" d="m166.23 340.152-29.265-43.707 25.46-3.047ZM166.23 340.152l20.489-45.246 12.258 10.059Zm0 0"/><path fill="#daf1e8" d="m186.719 294.906-20.489 45.246-3.804-46.754Zm0 0"/><path fill="#f04d51" d="M46.715 312.902 31.93 292.035l9.367 1.66Zm0 0"/><path fill="#82aaac" d="M16.98 81.945.004 129.863l.004-46.789Zm0 0"/><path fill="#c4e0d9" d="M-.004 57.887 16.98 81.945.008 83.075Zm0 0"/><path fill="#a4c6c3" d="M32.273 77.332 16.98 81.945-.004 57.887Zm0 0"/><path fill="#f04e52" d="m49.945 129.758 23.496 9.418-33.66 10.398Zm0 0"/><path fill="#f04d51" d="m54.797 112.742 18.223-3.207-1.36 14.125Zm0 0"/><path fill="#9b222b" d="m49.945 129.758 4.852-17.016L71.66 123.66ZM54.797 112.742l-4.852 17.016-11.816-13.344Zm0 0"/><path fill="#f04d51" d="m73.02 109.535-18.223 3.207 5.77-17.031Zm0 0"/><path fill="#f14e52" d="m60.566 95.71-5.77 17.032-22.523-35.41Zm0 0"/><path fill="#f14e52" d="m54.797 112.742-16.668 3.672-5.856-39.082Zm0 0"/><path fill="#9f242d" d="m61.094 219.46-21.356 5.833 5.809-16.223Zm0 0"/><path fill="#ea4a4e" d="m61.785 191.934-.691 27.527-15.547-10.39Zm0 0"/><path fill="#9b222b" d="m61.094 219.46.691-27.526 14.395 20.57Zm0 0"/><path fill="#9b222b" d="M73.918 230.305 61.094 219.46l15.086-6.957Zm0 0"/><path fill="#ef4d51" d="m61.094 219.46-11.86 23.708-9.496-17.875Zm0 0"/><path fill="#9b222b" d="m49.234 243.168 11.86-23.707 12.824 10.844Zm0 0"/><path fill="#386f79" d="m95.555 295.71 5.722-11.003 35.395 7.488Zm0 0"/><path fill="#386f79" d="m101.277 284.707 37.836-8.937-2.441 16.425Zm0 0"/><path fill="#9b222b" d="m84.805 196.855-23.02-4.921 22.035-8.543ZM61.785 191.934l23.02 4.921-8.625 15.649Zm0 0"/><path fill="#d9f1e8" d="m140.938 223.973 15.335-8.41-10.078 18.355Zm0 0"/><path fill="#d9f1e8" d="m117.023 227.164 23.915-3.191 5.257 9.945Zm0 0"/><path fill="#9b222b" d="m136.777 214.773 4.16 9.2-23.914 3.191ZM140.938 223.973l-4.16-9.2 19.495.79Zm0 0"/><path fill="#9a222b" d="m117.023 227.164 9.579 19.356-12.165-9.368Zm0 0"/><path fill="#99232c" d="m114.438 237.152 12.164 9.368-15.196-3.875Zm0 0"/><path fill="#99222b" d="m126.602 246.52-4.04 4.695-11.156-8.57Zm0 0"/><path fill="#d9f1e8" d="m126.602 246.52-9.579-19.356 29.172 6.754Zm0 0"/><path fill="#d9f1e8" d="m151.29 250.621-24.688-4.101 19.593-12.602ZM131.797 200.89l-18.36-17.488 25.801 10.883Zm0 0"/><path fill="#f04d51" d="m131.797 200.89 4.98 13.883-31.886-5.921Zm0 0"/><path fill="#6a4851" d="m98.895 188.938 32.902 11.953-26.906 7.96Zm0 0"/><path fill="#d9f1e8" d="m131.797 200.89-32.902-11.952 14.543-5.536Zm0 0"/><path fill="#9b222b" d="m150.02 178.352-1.41-12.192 15.413.098Zm0 0"/><path fill="#9c222b" d="m109.121 135.531 18.555 33.535-28.262-17.804Zm0 0"/><path fill="#f04d51" d="m82.023 216.496 23.899 16.32-19.871 3.817Zm0 0"/><path fill="#d9f1e8" d="m105.922 232.816-2.063 12.282-17.808-8.465Zm0 0"/><path fill="#f04d51" d="M97.504 256.516 76.16 259.55l9.89-22.918Zm0 0"/><path fill="#daf1e8" d="m103.86 245.098-6.356 11.418-11.453-19.883Zm0 0"/><path fill="#d9f1e8" d="m113.54 253.71-16.036 2.806 6.355-11.418Zm0 0"/><path fill="#daf1e8" d="M366.254 77.406 384 75.223v60.78Zm0 0"/><path fill="#f04d51" d="m323.957 110.664 7.45-17.09 12.964 20.121Zm0 0"/><path fill="#9b222b" d="m331.406 93.574-7.449 17.09-11.371-6.691Zm0 0"/><path fill="#f04d51" d="m331.406 93.574 15.446-17.465-2.48 37.586Zm0 0"/><path fill="#d9f1e8" d="m324.984 87.402 6.422 6.172-18.82 10.399Zm0 0"/><path fill="#9f242d" d="m331.406 93.574-6.422-6.172 21.868-11.293Zm0 0"/><path fill="#daf1e8" d="m344.371 113.695 23.145 7.813-3.266 7.156ZM282.238 88.953l19.809-5.223-1.899 17.04Zm0 0"/><path fill="#23495d" d="m289.645 61.367-38.868-11.062 28.547-25.692Zm0 0"/><path fill="#d8f0e7" d="m289.645 61.367-7.407 27.586-18.312-14.351Zm0 0"/><path fill="#23495d" d="m250.777 50.305 38.868 11.062-25.72 13.235Zm0 0"/><path fill="#bad8d3" d="m289.645 61.367 12.402 22.363-19.809 5.223Zm0 0"/><path fill="#daf1e8" d="m307.055 159.375-.618-3.55 28.114-2.2ZM333.273 168.352l-26.218-8.977 27.496-5.75Zm0 0"/><path fill="#9b222b" d="m311.773 120.285-5.336 35.54-13.683-39.782Zm0 0"/><path fill="#a0242d" d="m311.773 120.285.813-16.312 11.371 6.691Zm0 0"/><path fill="#daf1e8" d="m300.148 100.77-7.394 15.273-12.047-7.36Zm0 0"/><path fill="#daf1e8" d="m300.148 100.77 11.625 19.515-19.02-4.242Zm0 0"/><path fill="#daf1e8" d="m311.773 120.285-11.625-19.515 12.438 3.203ZM282.238 88.953l17.91 11.817-19.441 7.914Zm0 0"/><path fill="#f04d51" d="m49.945 129.758 21.715-6.098 1.781 15.516Zm0 0"/><path fill="#9a222b" d="m164.023 166.258 3.7 24.773-17.703-12.68ZM167.723 191.031l-3.7-24.773 31.543 4.34ZM148.61 166.16l-.2-20.215 15.613 20.313Zm0 0"/><path fill="#9a222b" d="m195.566 170.598 7.344-31.625 32.02 24.457Zm0 0"/><path fill="#d9f1e8" d="m241.895 121.852-15 .66 2.359-18.133Zm0 0"/><path fill="#9b222b" d="m234.93 163.43-8.035-40.918 15-.66ZM226.895 122.512l-10.118-4.13 12.477-14.003Zm0 0"/><path fill="#9a222b" d="m202.91 138.973 23.985-16.461 8.035 40.918Zm0 0"/><path fill="#9b222b" d="m226.895 122.512-23.985 16.46 13.867-20.59Zm0 0"/><path fill="#9a222b" d="m234.93 163.43 26.937 10.554-12.59 18.723Zm0 0"/><path fill="#d9f1e8" d="m280.469 186.598-.977-10.094 24.793-2.121Zm0 0"/><path fill="#9b222b" d="m169.926 117.977 32.984 20.996-29.32 6.218ZM202.91 138.973l-7.344 31.625-21.976-25.407ZM234.578 215.75l18.07-6.176-3.789 12.328Zm0 0"/><path fill="#9a222b" d="m195.566 170.598.246 24.082-28.09-3.649ZM195.566 170.598l35.778 26.27-35.531-2.188Zm0 0"/><path fill="#386e79" d="m208.578 276.426 23.625 9.254-15.058 10.617Zm0 0"/><path fill="#386d78" d="m232.203 285.68-2.25-14.258 14.035 5.21Zm0 0"/><path fill="#376d78" d="m232.203 285.68-23.625-9.254 21.375-5.004Zm0 0"/><path fill="#386e78" d="m136.672 292.195 2.441-16.425 23.313 17.628Zm0 0"/><path fill="#386f79" d="m139.113 275.77 45.57-2.793-22.257 20.421Zm0 0"/><path fill="#d9f1e8" d="m184.684 272.977 11.043-8.336 5.105 24.566Zm0 0"/><path fill="#daf1e8" d="m195.727 264.64 6.527-21.515 27.7 28.297Zm0 0"/><path fill="#d9f1e8" d="m202.254 243.125-5.758-22.941 27.926-2.141Zm0 0"/><path fill="#f04d51" d="m306.438 155.824 26.035-26.012 2.078 23.813Zm0 0"/><path fill="#f04d51" d="m311.773 120.285 20.7 9.528-26.036 26.011Zm0 0"/><path fill="#9b222b" d="m332.473 129.813-20.7-9.528 12.184-9.62ZM302.824 190.379l10.817 6.027-10.364 11.168Zm0 0"/><path fill="#9b222b" d="m313.64 196.406-10.816-6.027 25.875-7.027Zm0 0"/><path fill="#daf1e8" d="m307.055 159.375-2.77 15.008-6.375-12.098ZM304.285 174.383l2.77-15.008 26.218 8.977Zm0 0"/><path fill="#daded6" d="m306.438 155.824.617 3.551-9.145 2.91Zm0 0"/><path fill="#daf1e8" d="m304.285 174.383-24.793 2.12 18.418-14.218ZM365.223 245.262l18.78-3.453-18.62 27.03Zm0 0"/><path fill="#e4474c" d="m332.012 242.918 11.66-7.52 4.902 16.895Zm0 0"/><path fill="#9e232c" d="m321.488 201.629 7.211-18.277 12.406 16.128Zm0 0"/><path fill="#daf1e8" d="m321.488 201.629-7.75 19.867-10.46-13.922Zm0 0"/><path fill="#9a222b" d="m313.64 196.406 7.848 5.223-18.21 5.945Zm0 0"/><path fill="#9b222b" d="m321.488 201.629-7.847-5.223 15.058-13.054Zm0 0"/><path fill="#d8f0e7" d="m309.762 278.531 14.46 4.414-2.019 7.016Zm0 0"/><path fill="#f04e52" d="m296.957 287.434-10.121-7.079 4.562-6.074Zm0 0"/><path fill="#f04d51" d="m309.762 278.531-12.805 8.903-5.559-13.153ZM296.957 287.434l12.805-8.903-5.367 15.203ZM296.957 287.434l7.438 6.3-17.391 3.61Zm0 0"/><path fill="#396f79" d="m286.836 280.355 10.121 7.079-9.953 9.91Zm0 0"/><path fill="#daf1e8" d="m348.574 252.293 3.32 29.383-27.671 1.27ZM306.574 306.207l12.406-4.05-8.82 31.706Zm0 0"/><path fill="#d9f1e8" d="m318.98 302.156 25.375 3.707-34.195 28Zm0 0"/><path fill="#396f79" d="m343.086 302.246-24.106-.09 3.223-12.195Zm0 0"/><path fill="#3b717b" d="m344.355 305.863-25.375-3.707 24.106.09Zm0 0"/><path fill="#d9f1e8" d="m60.152 262.148-8.187 10.54-3.195-22.754Zm0 0"/><path fill="#f04e52" d="m31.93 292.035 6.863-10.695 2.504 12.355Zm0 0"/><path fill="#d9f1e8" d="m51.965 272.688-13.172 8.652 1.004-12.95ZM76.16 259.55l3.153 20.49-6.192-20.306Zm0 0"/><path fill="#f04e52" d="m95.555 295.71-16.243-15.67 21.965 4.667Zm0 0"/><path fill="#f04e52" d="m79.313 280.04 16.242 15.67-8.243 6.06Zm0 0"/><path fill="#e4474c" d="m79.313 280.04-10.278 3.108-8.883-21Zm0 0"/><path fill="#d9f1e8" d="m60.152 262.148 8.883 21-17.07-10.46Zm0 0"/><path fill="#386e79" d="m38.793 281.34 30.242 1.808-27.738 10.547Zm0 0"/><path fill="#396f79" d="m69.035 283.148-30.242-1.808 13.172-8.652ZM69.035 283.148l18.278 18.622-46.016-8.075ZM69.035 283.148l10.278-3.109 8 21.73Zm0 0"/><path fill="#d9f1e8" d="m33.7 234.816-8.466 19.641-12.199-1.96ZM33.7 234.816l-20.665 17.68 5.508-35.191Zm0 0"/><path fill="#9b222b" d="m25.234 254.457 8.465-19.64 15.535 8.351Zm0 0"/><path fill="#daf1e8" d="m39.738 225.293-6.039 9.523-15.156-17.511Zm0 0"/><path fill="#9e232c" d="M49.234 243.168 33.7 234.816l6.04-9.523Zm0 0"/><path fill="#daf1e8" d="m48.277 348.965-1.562-36.063 23.152 11.871Zm0 0"/><path fill="#daf1e8" d="m0 327.332 46.715-14.43 1.562 36.063Zm0 0"/><path fill="#386f79" d="m74.016 312.602-27.301.3-5.418-19.207Zm0 0"/><path fill="#396f79" d="m46.715 312.902 27.3-.3-4.148 12.171Zm0 0"/><path fill="#9b222b" d="m139.113 275.77-16.55-24.555 4.039-4.695Zm0 0"/><path fill="#99232c" d="m122.563 251.215 16.55 24.555-19.308-14.204Zm0 0"/><path fill="#b02c34" d="m136.777 214.773 7.418-11.21 12.078 12Zm0 0"/><path fill="#9b222b" d="m167.723 191.031-28.485 3.254 10.782-15.933Zm0 0"/><path fill="#9a222b" d="m144.195 203.563-4.957-9.278 28.485-3.254Zm0 0"/><path fill="#9b222b" d="m84.805 196.855-.985-13.464 15.075 5.547ZM104.89 208.852l-20.085-11.997 14.09-7.917Zm0 0"/><path fill="#9b242c" d="m105.922 232.816 8.516 4.336-3.032 5.493Zm0 0"/><path fill="#d9f1e8" d="m103.86 245.098 2.062-12.282 5.484 9.829Zm0 0"/><path fill="#daf2e9" d="m98.895 188.938 5.93-12.954 8.612 7.418Zm0 0"/><path fill="#9b222b" d="m113.438 183.402 14.238-14.336 11.562 25.22Zm0 0"/><path fill="#9b222b" d="m104.824 175.984 22.852-6.918-14.239 14.336Zm0 0"/><path fill="#daf1e8" d="m127.676 169.066-18.555-33.535 15.766-.742Zm0 0"/><path fill="#9b222b" d="m148.41 145.945-20.734 23.121-2.79-34.277ZM127.676 169.066l20.734-23.12.2 20.214Zm0 0"/><path fill="#daf2e9" d="m73.918 230.305-.797 29.43-12.969 2.413Zm0 0"/><path fill="#f04d51" d="m136.777 214.773-19.754 12.391-12.132-18.312Zm0 0"/><path fill="#d9f1e8" d="m106.469 272.39-8.965-15.874 16.035-2.805Zm0 0"/><path fill="#d9f1e8" d="m106.469 272.39 7.07-18.68 6.266 7.856Zm0 0"/><path fill="#d9f1e8" d="m139.113 275.77-32.644-3.38 13.336-10.824Zm0 0"/><path fill="#396f79" d="m101.277 284.707 5.192-12.316 32.644 3.379Zm0 0"/><path fill="#9b222b" d="m234.93 163.43 26.14.918.797 9.636Zm0 0"/><path fill="#9b222b" d="m261.07 164.348-26.14-.918 24.367-33.766ZM249.277 192.707l3.371 16.867-21.304-12.707ZM198.863 117.457l4.047 21.516-32.984-20.996Zm0 0"/><path fill="#9b222b" d="m202.91 138.973-4.047-21.516 17.914.926Zm0 0"/><path fill="#d9f1e8" d="m198.863 117.457-28.937.52 12.953-18.805Zm0 0"/><path fill="#d9f1e8" d="m212.605 91.906-13.742 25.551-15.984-18.285Zm0 0"/><path fill="#d9f1e8" d="m216.777 118.383-17.914-.926 13.742-25.55Zm0 0"/><path fill="#9b222b" d="m275.059 164.004 4.433 12.5-17.625-2.52ZM261.07 164.348l13.989-.344-13.192 9.98Zm0 0"/><path fill="#9b222b" d="m279.492 176.504-4.433-12.5 22.851-1.719Zm0 0"/><path fill="#9b222b" d="m275.059 164.004 1.632-29.055 21.22 27.336Zm0 0"/><path fill="#9c222b" d="m275.059 164.004-13.989.344 15.621-29.399Zm0 0"/><path fill="#f04d51" d="m365.223 245.262-21.551-9.864-2.567-35.918Zm0 0"/><path fill="#9b222b" d="m304.176 230.719 11.55 13.015-23.058 10.93Zm0 0"/><path fill="#d9f1e8" d="m304.176 230.719-27.156 21.34 6.64-24.746Zm0 0"/><path fill="#daf1e8" d="m304.176 230.719-11.508 23.945-15.648-2.605Zm0 0"/><path fill="#e4474c" d="m292.668 254.664 18.457 15.871-1.363 7.996Zm0 0"/><path fill="#f04d51" d="m315.727 243.734-4.602 26.801-18.457-15.87Zm0 0"/><path fill="#d9f1e8" d="m311.125 270.535 13.098 12.41-14.461-4.414Zm0 0"/><path fill="#f04d51" d="m351.895 281.676-3.32-29.383 16.808 16.547Zm0 0"/><path fill="#f14e52" d="m348.574 252.293 16.649-7.031.16 23.578Zm0 0"/><path fill="#f04d51" d="m365.223 245.262-16.649 7.031-4.902-16.895Zm0 0"/><path fill="#d9f1e8" d="m304.395 293.734 14.585 8.422-12.406 4.051Zm0 0"/><path fill="#3a717a" d="m318.98 302.156-14.585-8.422 17.808-3.773Zm0 0"/><path fill="#386d78" d="m304.395 293.734 5.367-15.203 12.441 11.43Zm0 0"/><path fill="#daf1e8" d="M46.715 312.902 0 327.332l11.672-21.805Zm0 0"/><path fill="#39707a" d="m46.715 312.902-35.043-7.375 20.23-13.43Zm0 0"/><path fill="#f04d51" d="m97.504 256.516-.02 17.164-21.324-14.13Zm0 0"/><path fill="#ee4c50" d="m97.484 273.68-18.171 6.36-3.153-20.49Zm0 0"/><path fill="#396f79" d="m97.484 273.68 8.985-1.29-5.192 12.317Zm0 0"/><path fill="#daf1e8" d="m106.469 272.39-8.985 1.29.02-17.164Zm0 0"/><path fill="#f04e52" d="m79.313 280.04 18.171-6.36 3.793 11.027Zm0 0"/><path fill="#396f79" d="m74.016 312.602 13.296-10.832 6.27 26.117Zm0 0"/><path fill="#9b222b" d="m156.273 215.563-12.078-12 23.528-12.532ZM131.797 200.89l12.398 2.673-7.418 11.21Zm0 0"/><path fill="#9a222b" d="m144.195 203.563-12.398-2.672 7.441-6.606ZM127.676 169.066l20.933-2.906 1.41 12.192Zm0 0"/><path fill="#9b222b" d="m139.238 194.285-11.562-25.219 22.344 9.286Zm0 0"/><path fill="#daf2e9" d="m76.16 259.55-3.039.184.797-29.43Zm0 0"/><path fill="#9b222b" d="m76.16 259.55-2.242-29.245 12.133 6.328Zm0 0"/><path fill="#f04d51" d="m117.023 227.164-40.843-14.66 28.71-3.652Zm0 0"/><path fill="#f04d51" d="m76.18 212.504 40.843 14.66-11.101 5.652Zm0 0"/><path fill="#9b222b" d="m76.18 212.504 8.625-15.649 20.086 11.997Zm0 0"/><path fill="#f04d51" d="m76.18 212.504 29.742 20.312-23.899-16.32Zm0 0"/><path fill="#d9f1e8" d="m384 75.223-13.777-11.684L384 62.371Zm0 0"/><path fill="#d9f1e8" d="m366.254 77.406 3.969-13.867L384 75.223Zm0 0"/><path fill="#23495d" d="m384 38.188-13.777 25.351-10.325-15.098ZM384 62.371l-13.777 1.168L384 38.188Zm0 0"/><path fill="#d9f1e8" d="m249.277 192.707 21.52-8.695-14.04 14.398Zm0 0"/><path fill="#9b222b" d="m261.867 173.984 8.93 10.028-21.52 8.695Zm0 0"/><path fill="#9b222b" d="m270.797 184.012-8.93-10.028 17.625 2.52Zm0 0"/><path fill="#d9f1e8" d="m270.797 184.012 9.672 2.586-23.711 11.812ZM270.797 184.012l8.695-7.508.977 10.094Zm0 0"/><path fill="#daf1e8" d="m139.113 275.77 12.176-25.149 33.395 22.356Zm0 0"/><path fill="#daf1e8" d="m151.29 250.621 44.437 14.02-11.043 8.336ZM202.254 243.125l-56.059-9.207 10.078-18.356Zm0 0"/><path fill="#d9f1e8" d="m202.254 243.125-50.965 7.496-5.094-16.703Zm0 0"/><path fill="#daf2e9" d="m151.29 250.621 50.964-7.496-6.527 21.516Zm0 0"/><path fill="#9d232c" d="m298.64 217.195 5.536 13.524-20.516-3.406Zm0 0"/><path fill="#e94a4e" d="m304.176 230.719-5.535-13.524 15.097 4.301Zm0 0"/><path fill="#f04d51" d="m313.738 221.496-15.097-4.3 4.636-9.622Zm0 0"/><path fill="#9b222b" d="m287.934 204.598 10.707 12.597-14.98 10.118Zm0 0"/><path fill="#f04d51" d="m298.64 217.195-10.706-12.597 15.343 2.976Zm0 0"/><path fill="#ec4b4f" d="m334.777 254.547-2.765-11.629 16.562 9.375Zm0 0"/><path fill="#daf2e9" d="m334.777 254.547-23.652 15.988 4.602-26.8Zm0 0"/><path fill="#f04d51" d="m324.223 282.945 10.554-28.398 13.797-2.254Zm0 0"/><path fill="#daf2e9" d="m311.125 270.535 23.652-15.988-10.554 28.398Zm0 0"/><path fill="#9b222b" d="m322.027 223.305 21.645 12.093-11.66 7.52Zm0 0"/><path fill="#23495d" d="m370.223 63.54-34.664-1.544 24.34-13.555Zm0 0"/><path fill="#daf1e8" d="m335.559 61.996 34.664 1.543-31.414 1.617Zm0 0"/><path fill="#d9f1e8" d="m370.223 63.54-3.97 13.866-27.444-12.25Zm0 0"/><path fill="#daf1e8" d="m151.29 250.621-12.177 25.149-12.511-29.25ZM196.496 220.184l5.758 22.941-45.98-27.562Zm0 0"/><path fill="#9a222b" d="m179.363 205.023 17.133 15.16-40.223-4.62Zm0 0"/><path fill="#daf2e9" d="m322.027 223.305 9.985 19.613-27.836-12.2Zm0 0"/><path fill="#d9f1e8" d="m304.176 230.719 27.836 12.199-16.285.816Zm0 0"/><path fill="#d9f1e8" d="m332.012 242.918 2.765 11.629-19.05-10.813Zm0 0"/><path fill="#daf1e8" d="m321.488 201.629.54 21.676-8.29-1.809Zm0 0"/><path fill="#ef5155" d="m322.027 223.305-17.851 7.414 9.562-9.223Zm0 0"/><path fill="#f04d51" d="m343.672 235.398-10.91-25.894 8.343-10.024Zm0 0"/><path fill="#9c222b" d="m322.027 223.305 10.735-13.801 10.91 25.894Zm0 0"/><path fill="#f04d51" d="m332.762 209.504-11.274-7.875 19.617-2.149Zm0 0"/><path fill="#be343b" d="m332.762 209.504-10.735 13.8-.539-21.675Zm0 0"/></svg>