<svg xmlns="http://www.w3.org/2000/svg" width="512" height="512" viewBox="0 0 384 384"><path fill="#262a4c" d="M81.531 250.996 44.937 269.98l-1.757-42.738Zm0 0"/><path fill="#242a4b" d="M44.938 269.98-.008 265.56l43.188-38.317Zm0 0"/><path fill="#292f4f" d="m51.27 189.871 31-1.617-39.09 38.988Zm0 0"/><path fill="#252445" d="m174.875 266.488-30.2-20.98 17.645-8.258Zm0 0"/><path fill="#fefefe" d="m281.484 145.516-60.84 3.539 38.086-32.176ZM281.484 145.516l-10.55 65.226-50.29-61.687ZM162.777 197.031l1.391-43.992 20.852 42.93Zm0 0"/><path fill="#343f5d" d="m54.488 304.992 18.246 22.813-27.62 5.27Zm0 0"/><path fill="#29294a" d="m118.852 229.563-9.325 36.273-27.996-14.84Zm0 0"/><path fill="#282849" d="m109.527 265.836 9.325-36.274 25.824 15.946Zm0 0"/><path fill="#52536c" d="m384.004 252.273-.008 71.63-19.973-56.29Zm0 0"/><path fill="#575066" d="m308.844 341.14 20.12 42.856-40.023-24.285Zm0 0"/><path fill="#514960" d="m328.965 383.996-63.406.016 23.382-24.301Zm0 0"/><path fill="#a19eac" d="m294.414 241.8-23.48-31.058 24.976 14.238Zm0 0"/><path fill="#242849" d="m-.008 265.559.016-63.243 43.172 24.926Zm0 0"/><path fill="#262b4c" d="m60.508 283.402-15.57-13.422 36.593-18.984Zm0 0"/><path fill="#313151" d="M38.793 171.918 58.391 178l-7.121 11.871Zm0 0"/><path fill="#fefefe" d="m196.89 100-14.234-3.371 11.485-4.969ZM195.898 47.09l14.97-15.738-10.7 20.117Zm0 0"/><path fill="#3b3855" d="M325.04 215.426 294.413 241.8l1.496-16.82Zm0 0"/><path fill="#fbfbfc" d="m317.207 185.77-21.297 39.21-24.976-14.238Zm0 0"/><path fill="#fafafb" d="m317.207 185.77 7.832 29.656-29.129 9.554Zm0 0"/><path fill="#fbfafb" d="m325.04 215.426-7.833-29.656 39.223 17.265Zm0 0"/><path fill="#fefefe" d="m222.098 281.637-23.864-14.578 38.121-3.317ZM218.813 197.973l1.832-48.918 50.289 61.687Zm0 0"/><path fill="#fbfbfc" d="m220.645 149.055-1.833 48.918-33.792-2.004Zm0 0"/><path fill="#fefefe" d="m122.953 165.23 41.215-12.19-24.8 43.03Zm0 0"/><path fill="#201533" d="m90.395 138.05-14.063-6.991 16.738-.871Zm0 0"/><path fill="#95909e" d="m107.04 139.215-16.645-1.164 2.675-7.863Zm0 0"/><path fill="#8398a9" d="m54.488 304.992 6.02-21.59 20.281 9.047Zm0 0"/><path fill="#4a5e77" d="M31.16 348.453.012 327.75l24.87-16.258Zm0 0"/><path fill="#35516d" d="m45.113 333.074-20.23-21.582 29.605-6.5Zm0 0"/><path fill="#272749" d="m109.527 265.836-23.879 9.945-4.117-24.785Zm0 0"/><path fill="#c2cbd2" d="m60.508 283.402 25.14-7.62-4.859 16.667Zm0 0"/><path fill="#2e3252" d="m85.648 275.781-25.14 7.621 21.023-32.406Zm0 0"/><path fill="#29294a" d="m85.68 220.965 33.172 8.597-37.32 21.434Zm0 0"/><path fill="#282b4c" d="m85.68 220.965-4.149 30.031-38.351-23.754Zm0 0"/><path fill="#272a4b" d="m82.27 188.254 3.41 32.71-42.5 6.278Zm0 0"/><path fill="#252446" d="m384.004 252.273-19.98 15.34-11.961-26.808Zm0 0"/><path fill="#888697" d="m355.152 328.195-25.027-32.261 33.898-28.32Zm0 0"/><path fill="#3d3b59" d="m383.996 323.902-28.844 4.293 8.871-60.582Zm0 0"/><path fill="#ada9b4" d="m309.96 288.625.997 23.594-27.152-22.793Zm0 0"/><path fill="#aaa6b2" d="m310.957 312.219-.996-23.594 20.164 7.309Zm0 0"/><path fill="#a29eaa" d="m288.941 359.71-1.636-27.241 21.539 8.672Zm0 0"/><path fill="#a39eab" d="m287.305 332.469 23.652-20.25-2.113 28.922Zm0 0"/><path fill="#bfbcc4" d="m310.957 312.219-23.652 20.25-3.5-43.043Zm0 0"/><path fill="#c2c0c8" d="m287.305 332.469-24.332-4.715 20.832-38.328Zm0 0"/><path fill="#ececef" d="M.008-.008 93.906 0 70.422 29.203Zm0 0"/><path fill="#f4f4f5" d="M70.422 29.203 93.906 0l20.469 47.246Zm0 0"/><path fill="#fbfbfc" d="m53.926 57.328 16.496-28.125 43.953 18.043Zm0 0"/><path fill="#fefefe" d="M80.523 85.063 53.926 57.328l60.449-10.082Zm0 0"/><path fill="#fcfcfc" d="m46 153.176-26.934 5.945L0 133.891Zm0 0"/><path fill="#fcfcfd" d="M19.066 159.121 46 153.176l-7.207 18.742Zm0 0"/><path fill="#2b2b4b" d="m16.352 173.156 2.714-14.035 19.727 12.797Zm0 0"/><path fill="#fcfcfc" d="m19.066 159.121-19.07-1.457L0 133.891Zm0 0"/><path fill="#2a2a4a" d="m19.066 159.121-2.714 14.035-16.356-15.492Zm0 0"/><path fill="#fbfbfc" d="m0 105.617 54.098 28.074-54.098.2Zm0 0"/><path fill="#fcfcfd" d="M54.098 133.691 46 153.176 0 133.89Zm0 0"/><path fill="#262647" d="M16.352 173.156.008 202.316l-.012-44.652Zm0 0"/><path fill="#2b2e4f" d="m30.332 190.738-13.98-17.582 22.441-1.238Zm0 0"/><path fill="#272c4d" d="m16.352 173.156 13.98 17.582L.008 202.316Zm0 0"/><path fill="#262f50" d="m.008 202.316 30.324-11.578 12.848 36.504Zm0 0"/><path fill="#272c4d" d="m30.332 190.738 20.938-.867-8.09 37.371Zm0 0"/><path fill="#2e3150" d="m30.332 190.738 8.461-18.82 12.477 17.953Zm0 0"/><path fill="#fcfcfd" d="M38.793 171.918 46 153.176 58.39 178Zm0 0"/><path fill="#f6f5f6" d="m242.305-.012 81.183.016-49.191 42.351Zm0 0"/><path fill="#fcfcfc" d="m159.926 39.313-9.09 12.05-36.461-4.117ZM281.25 93.574l-3.203 14.446-7.438-18.278Zm0 0"/><path fill="#fefefe" d="m210.867 31.352-2.074 22.691-8.625-2.574ZM255.793 57.504l-18.055-18.05 36.559 2.901Zm0 0"/><path fill="#fefefe" d="m237.738 39.453 18.055 18.05-21.766-2.214Zm0 0"/><path fill="#201533" d="m255.793 57.504-8.844 18.871-12.922-21.086ZM234.027 55.29l-5.425 12.019-6.864-8.301Zm0 0"/><path fill="#201533" d="m246.95 76.375-18.348-9.066 5.425-12.02Zm0 0"/><path fill="#858192" d="m294.414 241.8-44.129-.234 20.649-30.824Zm0 0"/><path fill="#ecebed" d="m310.617 155.207 6.59 30.563-46.273 24.972Zm0 0"/><path fill="#fefefe" d="m281.484 145.516 29.133 9.691-39.683 55.535Zm0 0"/><path fill="#e8e7ea" d="m198.234 267.059-11.52 20.238-11.839-20.809Zm0 0"/><path fill="#fefefe" d="m197.098 342.258-9.477 5.558-8.91-12.437Zm0 0"/><path fill="#fbfbfb" d="m232.75 302.508 30.223 25.246-31.22 8.027Zm0 0"/><path fill="#f7f6f7" d="m247.984 287.55 14.989 40.204-30.223-25.246Zm0 0"/><path fill="#fefefe" d="m171.195 212.11-8.418-15.079 22.243-1.062Zm0 0"/><path fill="#41405d" d="m162.32 237.25 27.239-9.074-14.684 38.312Zm0 0"/><path fill="#393653" d="m201.5 247.344-3.266 19.715-23.359-.57Zm0 0"/><path fill="#2b2b4b" d="m189.559 228.176 11.941 19.168-26.625 19.144Zm0 0"/><path fill="#5e5c73" d="m198.234 267.059 3.266-19.715 34.855 16.398Zm0 0"/><path fill="#fefefe" d="m258.73 116.879 23.688 4.187-.934 24.45Zm0 0"/><path fill="#fcfcfd" d="m218.813 197.973-22.708 19.222-11.085-21.226Zm0 0"/><path fill="#fdfdfe" d="m84.715 173.785 17.191-3.765-8.41 20.703Zm0 0"/><path fill="#fdfdfd" d="m82.27 188.254 2.445-14.469 8.781 16.938Zm0 0"/><path fill="#333251" d="m151.371 212.043 19.824.066-8.875 25.141Zm0 0"/><path fill="#fefefe" d="m171.195 212.11-19.824-.067 11.406-15.012Zm0 0"/><path fill="#fdfdfd" d="m46 153.176 23.23 3.484L58.39 178Zm0 0"/><path fill="#fefefe" d="M69.23 156.66 46 153.176l8.098-19.485Zm0 0"/><path fill="#fefefe" d="M71.617 142.906 69.23 156.66l-15.132-22.969Zm0 0"/><path fill="#383a58" d="m58.39 178 23.88 10.254-31 1.617Zm0 0"/><path fill="#fdfdfd" d="M84.715 173.785 58.39 178l10.84-21.34Zm0 0"/><path fill="#fcfcfd" d="m58.39 178 26.325-4.215-2.445 14.469Zm0 0"/><path fill="#201533" d="m101.21 119.648 5.423-21.191 11.617 5.008Zm0 0"/><path fill="#4a4159" d="m101.21 119.648 5.83 19.567-13.97-9.028Zm0 0"/><path fill="#201533" d="m92.086 116.527.957-20.375 13.59 2.305ZM92.086 116.527l9.125 3.121-8.14 10.54Zm0 0"/><path fill="#201533" d="m101.21 119.648-9.124-3.12 14.547-18.071Zm0 0"/><path fill="#918c9b" d="m133.762 354.242 22.867 29.793-42.938-.027Zm0 0"/><path fill="#6f7286" d="m116.887 328.906-20.012-9.375 14.496-15.36Zm0 0"/><path fill="#a5a1ad" d="m96.875 319.531 20.012 9.375-18.774 22.09Zm0 0"/><path fill="#799eae" d="m54.488 304.992-8.98-12.414 15-9.176Zm0 0"/><path fill="#5a8197" d="m24.883 311.492 20.625-18.914 8.98 12.414Zm0 0"/><path fill="#8b99a8" d="m84.574 299.078-30.086 5.914L80.79 292.45Zm0 0"/><path fill="#637288" d="m96.875 319.531-12.3-20.453 26.796 5.094Zm0 0"/><path fill="#49526d" d="m31.16 348.453 30.856 35.524-61.98.027Zm0 0"/><path fill="#7d7d90" d="m72.734 327.805 24.141-8.274 1.238 31.465Zm0 0"/><path fill="#bcbac3" d="m70.43 348.766 2.304-20.961 25.38 23.191Zm0 0"/><path fill="#4d506a" d="m72.734 327.805 11.84-28.727 12.301 20.453Zm0 0"/><path fill="#3f5b75" d="m84.574 299.078-11.84 28.727-18.246-22.813Zm0 0"/><path fill="#6b7085" d="m50.848 346.402-19.688 2.051 13.953-15.379Zm0 0"/><path fill="#a6a6b3" d="m72.734 327.805-21.886 18.597-5.735-13.328Zm0 0"/><path fill="#a9a9b5" d="m70.43 348.766-19.582-2.364 21.886-18.597Zm0 0"/><path fill="#5d6c84" d="m31.16 348.453-6.277-36.96 20.23 21.581Zm0 0"/><path fill="#334f6b" d="M24.883 311.492.012 327.75l-.02-62.191Zm0 0"/><path fill="#e5e3e7" d="m184.746 361.371 31.652 22.66-59.77.004Zm0 0"/><path fill="#817d8e" d="m133.762 354.242-20.07 29.766-15.579-33.012Zm0 0"/><path fill="#bfbdc6" d="m116.887 328.906 16.875 25.336-35.649-3.246Zm0 0"/><path fill="#fbfbfc" d="m167.402 286.316 4.836 18.957-33.652 4.723Zm0 0"/><path fill="#fcfcfd" d="m167.402 286.316 7.473-19.828 11.84 20.809Zm0 0"/><path fill="#d1cfd5" d="m184.746 361.371 21.59-3.707 10.062 26.367Zm0 0"/><path fill="#b9c8d1" d="M97.176 288.016 85.648 275.78l23.88-9.945Zm0 0"/><path fill="#ccd0d7" d="m84.574 299.078 12.602-11.062 14.195 16.156Zm0 0"/><path fill="#c1c0c9" d="m85.648 275.781 11.528 12.235-16.387 4.433Zm0 0"/><path fill="#c9c9d1" d="m97.176 288.016-12.602 11.062-3.785-6.629Zm0 0"/><path fill="#342a46" d="m91.145 195.363-8.875-7.11 11.226 2.47Zm0 0"/><path fill="#322a46" d="m91.145 195.363-5.465 25.602-3.41-32.711Zm0 0"/><path fill="#c1bfc8" d="m362.469 216.156 3.914-12.558L384 213.625Zm0 0"/><path fill="#252446" d="M362.469 216.156 384 213.625l.004 38.648Zm0 0"/><path fill="#252446" d="m362.469 216.156 21.535 36.117-31.942-11.468Zm0 0"/><path fill="#262547" d="m325.04 215.426 37.429.73-10.406 24.649Zm0 0"/><path fill="#908e9f" d="m362.469 216.156-37.43-.73 31.39-12.39Zm0 0"/><path fill="#b1b0bc" d="m366.383 203.598-3.914 12.558-6.04-13.12Zm0 0"/><path fill="#36324f" d="m328.965 383.996 26.187-55.8L384.016 384Zm0 0"/><path fill="#9b97a4" d="m355.152 328.195-24.941 5.442-.086-37.703Zm0 0"/><path fill="#494059" d="m308.844 341.14 21.367-7.503-1.246 50.36Zm0 0"/><path fill="#8e8999" d="m330.21 333.637-19.253-21.418 19.168-16.285Zm0 0"/><path fill="#948f9d" d="m310.957 312.219 19.254 21.418-21.367 7.504Zm0 0"/><path fill="#898393" d="m288.402 260.14 21.559 28.485-26.156.8Zm0 0"/><path fill="#2c2a4a" d="m288.402 260.14-38.117-18.574 44.13.235Zm0 0"/><path fill="#4d455c" d="m288.941 359.71-23.382 24.302 1.882-28.02Zm0 0"/><path fill="#a5a1ad" d="m287.305 332.469-19.864 23.523-4.468-28.238Zm0 0"/><path fill="#b2afba" d="m267.441 355.992 19.864-23.523 1.636 27.242Zm0 0"/><path fill="#f9f9fa" d="M93.906 0h68.895l-48.426 47.246Zm0 0"/><path fill="#fcfcfd" d="m162.8 0-2.874 39.313-45.551 7.933Zm0 0"/><path fill="#fdfdfd" d="m105.766 83.145-25.243 1.918 33.852-37.817Zm0 0"/><path fill="#f3f5f6" d="m0 50.219 53.926 7.11L0 105.616Zm0 0"/><path fill="#dad9de" d="m0 50.219 25.27-20.88 28.656 27.99Zm0 0"/><path fill="#e5e5e8" d="M0 50.219.008-.008 25.27 29.34Zm0 0"/><path fill="#f7f7f8" d="M25.27 29.34.008-.008l70.414 29.211Zm0 0"/><path fill="#201533" d="m228.602 67.309-12.637-.348 5.773-7.953Zm0 0"/><path fill="#382f49" d="m215.965 66.96 12.637.349-1.02 14.425Zm0 0"/><path fill="#201533" d="m215.965 66.96-7.172-12.917 12.945 4.965ZM208.793 54.043l7.172 12.918-11.84.355Zm0 0"/><path fill="#fefefe" d="M208.68 86.152 196.89 100l-2.75-8.34Zm0 0"/><path fill="#201533" d="m175.781 53.305 13.336 15.043-23.91 4.496Zm0 0"/><path fill="#f1f1f2" d="m259.914 91.398.203-8.742 10.492 7.086Zm0 0"/><path fill="#221735" d="m260.117 82.656 13.582-.867-3.09 7.953Zm0 0"/><path fill="#201533" d="m208.793 54.043 13.004-1.008-.059 5.973Zm0 0"/><path fill="#fefefe" d="m221.797 53.035-13.004 1.008 2.074-22.691Zm0 0"/><path fill="#201533" d="m221.797 53.035 12.23 2.254-12.289 3.719Zm0 0"/><path fill="#fefefe" d="m221.797 53.035 15.941-13.582-3.71 15.836Zm0 0"/><path fill="#201533" d="m208.793 54.043-9.59 3.89.965-6.464ZM199.203 57.934l4.922 9.382-15.008 1.032Zm0 0"/><path fill="#201533" d="m199.203 57.934 9.59-3.891-4.668 13.273Zm0 0"/><path fill="#fefefe" d="M210.867 31.352 195.898 47.09l-14.101-9.414ZM246.95 76.375l13.167 6.281-13.258 8.567ZM260.117 82.656l-.203 8.742-13.055-.175Zm0 0"/><path fill="#201533" d="m263.363 72.758-16.414 3.617 8.844-18.871Zm0 0"/><path fill="#211634" d="m263.363 72.758-3.246 9.898-13.168-6.281Zm0 0"/><path fill="#221b3b" d="m273.7 81.79-10.337-9.032 14.34-.45Zm0 0"/><path fill="#211836" d="m263.363 72.758 10.336 9.031-13.582.867Zm0 0"/><path fill="#fefefe" d="m227.582 81.734 19.367-5.359-.09 14.848Zm0 0"/><path fill="#241a37" d="m227.582 81.734 1.02-14.425 18.347 9.066Zm0 0"/><path fill="#f1f1f2" d="m384 77.04-34.172-21.036L383.996 0Zm0 0"/><path fill="#e5e4e7" d="m349.828 56.004-26.34-56L383.996 0Zm0 0"/><path fill="#f6f6f7" d="m351.86 79.43-2.032-23.426L384 77.039Zm0 0"/><path fill="#fdfdfd" d="m287.91 101.195 8.535 11.012-18.398-4.187Zm0 0"/><path fill="#271c39" d="m287.91 101.195-6.66-7.62 11.664 3.437Zm0 0"/><path fill="#fafafa" d="m287.91 101.195-9.863 6.825 3.203-14.446Zm0 0"/><path fill="#f9f9fa" d="m298.313 112.254-1.688 12.832-.18-12.879Zm0 0"/><path fill="#fefefe" d="m250.285 241.566-19.562-24.37 40.21-6.454Zm0 0"/><path fill="#fefefe" d="m230.723 217.195-11.91-19.222 52.12 12.77ZM218.813 197.973l11.91 19.222-13.215-1.386Zm0 0"/><path fill="#fefefe" d="M230.723 217.195 218.62 229.36l-1.113-13.55ZM218.621 229.36l12.102-12.165 19.562 24.371Zm0 0"/><path fill="#302f4e" d="m288.402 260.14-29.03 4.286-9.087-22.86Zm0 0"/><path fill="#d0cdd4" d="m259.371 264.426 29.031-4.285-4.597 29.285Zm0 0"/><path fill="#2f2a49" d="m239.895 255.387-21.274-26.028 31.664 12.207Zm0 0"/><path fill="#7e7a8c" d="m201.5 247.344 38.395 8.043-3.54 8.355Zm0 0"/><path fill="#262547" d="m239.895 255.387-38.395-8.043 17.121-17.985Zm0 0"/><path fill="#f6f7f8" d="m366.383 203.598 17.625-45.036-.008 55.063Zm0 0"/><path fill="#f6f6f7" d="m384.008 158.563-17.625 45.035-2.801-45.446Zm0 0"/><path fill="#f3f4f5" d="m363.582 158.152 2.8 45.446-9.952-.563Zm0 0"/><path fill="#fefefe" d="m281.484 145.516.934-24.45 14.207 4.02Zm0 0"/><path fill="#fbfbfb" d="m222.098 281.637-22.133 9.43-1.73-24.008Zm0 0"/><path fill="#fcfcfc" d="m199.965 291.066-13.25-3.77 11.52-20.237Zm0 0"/><path fill="#fdfdfd" d="m217.871 315.215 14.879-12.707-.996 33.273Zm0 0"/><path fill="#b7b4be" d="m247.984 287.55 11.387-23.124 24.434 25Zm0 0"/><path fill="#d2d0d6" d="m259.371 264.426-11.387 23.125-11.629-23.809Zm0 0"/><path fill="#ededef" d="m262.973 327.754-14.989-40.203 35.82 1.875Zm0 0"/><path fill="#f1f0f2" d="m222.098 281.637 25.886 5.914-15.234 14.957Zm0 0"/><path fill="#bab6c0" d="m247.984 287.55-25.886-5.913 14.257-17.895Zm0 0"/><path fill="#343352" d="M218.621 229.36 201.5 247.343l-11.941-19.168Zm0 0"/><path fill="#fefefe" d="m196.105 217.195 22.708-19.222-1.305 17.836ZM218.621 229.36l-22.516-12.165 21.403-1.386Zm0 0"/><path fill="#2e2d4d" d="m196.105 217.195 22.516 12.164-29.062-1.183Zm0 0"/><path fill="#fefefe" d="m182.398 216.305-11.203-4.196 13.825-16.14ZM196.105 217.195l-13.707-.89 2.622-20.336Zm0 0"/><path fill="#2e2d4d" d="M182.398 216.305 162.32 237.25l8.875-25.14Zm0 0"/><path fill="#343251" d="m162.32 237.25 20.078-20.945 7.16 11.87Zm0 0"/><path fill="#302f4f" d="m182.398 216.305 13.707.89-6.546 10.98Zm0 0"/><path fill="#f4f4f5" d="m361.887 116.313 22.12 42.25-20.425-.41Zm0 0"/><path fill="#f3f2f4" d="M361.887 116.313 351.859 79.43 384 77.04Zm0 0"/><path fill="#efeff1" d="m384.008 158.563-22.121-42.25L384 77.039Zm0 0"/><path fill="#201533" d="m311.945 89.824 18.989 23.14-23.047-9.808Zm0 0"/><path fill="#211634" d="m330.934 112.965 8.113-12.903 12.008 26.657Zm0 0"/><path fill="#fefefe" d="m105.738 158.418 17.215 6.812-21.047 4.79ZM122.953 165.23l-17.215-6.812 3.754-7.387Zm0 0"/><path fill="#fdfdfd" d="m88.773 156.242 16.965 2.176-3.832 11.602Zm0 0"/><path fill="#fefefe" d="m88.773 156.242-4.058 17.543L69.23 156.66ZM84.715 173.785l4.058-17.543 13.133 13.778ZM162.777 197.031l-11.406 15.012-12.004-15.973Zm0 0"/><path fill="#fefefe" d="m164.168 153.04-1.39 43.991-23.41-.96Zm0 0"/><path fill="#2d2b4b" d="m118.852 229.563 30-15.079-4.176 31.024Zm0 0"/><path fill="#312743" d="m144.676 245.508 4.176-31.024 13.468 22.766Zm0 0"/><path fill="#f7f7f8" d="m148.852 214.484 2.52-2.441 10.948 25.207Zm0 0"/><path fill="#efeff1" d="m139.367 196.07-24.5-12.875 8.086-17.965Zm0 0"/><path fill="#fcfcfc" d="m101.906 170.02 12.961 13.175-21.37 7.528Zm0 0"/><path fill="#fdfdfd" d="m114.867 183.195-12.96-13.175 21.046-4.79ZM118.719 201.086l-3.852-17.89 24.5 12.874Zm0 0"/><path fill="#fefefe" d="m126.422 146.773-3.469 18.457-13.46-14.199Zm0 0"/><path fill="#fefefe" d="m122.953 165.23 3.469-18.457 37.746 6.266ZM164.168 153.04l23.578-35.716 32.899 31.73ZM164.168 153.04l56.477-3.985-35.625 46.914Zm0 0"/><path fill="#201533" d="m90.395 138.05-8.692 8.845-5.371-15.836Zm0 0"/><path fill="#fefefe" d="m81.703 146.895-10.086-3.989 4.715-11.847Zm0 0"/><path fill="#201533" d="m107.04 139.215-9.56 10.191-7.085-11.355Zm0 0"/><path fill="#201533" d="m88.773 156.242 8.707-6.836 8.258 9.012Zm0 0"/><path fill="#201533" d="m105.738 158.418-8.258-9.012 12.012 1.625Zm0 0"/><path fill="#221735" d="m97.48 149.406 9.56-10.191 2.452 11.816Zm0 0"/><path fill="#f8f8f9" d="m53.926 57.328 6.586 45.031L0 105.617Zm0 0"/><path fill="#fefefe" d="m71.617 142.906-17.52-9.215 22.235-2.632ZM80.523 85.063l25.243-1.918-12.723 13.007Zm0 0"/><path fill="#9996a4" d="m62.016 383.977 36.097-32.98 15.578 33.01Zm0 0"/><path fill="#6d687b" d="m98.113 350.996-36.097 32.98 8.414-35.21Zm0 0"/><path fill="#5a556c" d="m138.586 309.996-21.7 18.91-5.515-24.734Zm0 0"/><path fill="#dad8dd" d="m133.762 354.242 4.824-44.246 20.578 23.492Zm0 0"/><path fill="#d4d2d8" d="m138.586 309.996-4.824 44.246-16.875-25.336Zm0 0"/><path fill="#457b91" d="m60.508 283.402-15 9.176-.57-22.598Zm0 0"/><path fill="#34607a" d="m45.508 292.578-45.516-27.02 44.946 4.422Zm0 0"/><path fill="#31526d" d="m45.508 292.578-20.625 18.914-24.89-45.933Zm0 0"/><path fill="#262749" d="m.012 327.75 31.148 20.703-31.125 35.55Zm0 0"/><path fill="#a9a5b0" d="m133.762 354.242 28.273 2.434-5.406 27.36Zm0 0"/><path fill="#bdbac3" d="m162.035 356.676 22.711 4.695-28.117 22.664Zm0 0"/><path fill="#f3f2f4" d="m162.035 356.676-28.273-2.434 25.402-20.754Zm0 0"/><path fill="#292748" d="m174.875 266.488-28.8 1.575-1.4-22.555Zm0 0"/><path fill="#fdfdfd" d="m167.402 286.316-21.328-18.253 28.801-1.575Zm0 0"/><path fill="#272648" d="m146.074 268.063-36.547-2.227 35.149-20.328Zm0 0"/><path fill="#f4f3f5" d="m146.074 268.063 21.328 18.253-28.816 23.68Zm0 0"/><path fill="#fbfbfb" d="m206.336 357.664-21.59 3.707 2.875-13.555Zm0 0"/><path fill="#fcfcfc" d="m197.098 342.258 9.238 15.406-18.715-9.848Zm0 0"/><path fill="#413751" d="m265.559 384.012-26.079-25.684 27.961-2.336Zm0 0"/><path fill="#f1f1f3" d="m120.898 289.172 17.688 20.824-27.215-5.824Zm0 0"/><path fill="#d3d2d8" d="m97.176 288.016 23.722 1.156-9.527 15Zm0 0"/><path fill="#ecebee" d="m120.898 289.172 25.176-21.11-7.488 41.934Zm0 0"/><path fill="#dddee3" d="m120.898 289.172-23.722-1.156 12.351-22.18Zm0 0"/><path fill="#e6e8eb" d="m146.074 268.063-25.176 21.109-11.37-23.336Zm0 0"/><path fill="#2c2a4b" d="m355.152 328.195 28.844-4.293.02 60.098Zm0 0"/><path fill="#494058" d="m330.21 333.637 24.942-5.442-26.187 55.801Zm0 0"/><path fill="#a8a5b1" d="m288.402 260.14 37.934 4.516-16.375 23.969Zm0 0"/><path fill="#7d7789" d="m309.96 288.625 16.376-23.969 3.789 31.278Zm0 0"/><path fill="#2c2a4b" d="m325.04 215.426 1.296 49.23-31.922-22.855Zm0 0"/><path fill="#272648" d="m326.336 264.656-37.934-4.515 6.012-18.34Zm0 0"/><path fill="#9b99a8" d="m330.125 295.934-3.79-31.278 37.688 2.957Zm0 0"/><path fill="#252446" d="m364.023 267.613-37.687-2.957 25.726-23.851Zm0 0"/><path fill="#272647" d="m326.336 264.656-1.297-49.23 27.024 25.379Zm0 0"/><path fill="#362c47" d="m166.23 92.75 16.985-13.668-.559 17.547Zm0 0"/><path fill="#261b38" d="m182.656 96.629.559-17.547L194.14 91.66Zm0 0"/><path fill="#bbb8c2" d="m189.117 68.348-5.902 10.734-18.008-6.238Zm0 0"/><path fill="#201533" d="m158.512 56.184 17.27-2.88-10.575 19.54Zm0 0"/><path fill="#fdfcfd" d="m175.781 53.305-17.27 2.879 1.415-16.871Zm0 0"/><path fill="#fcfcfc" d="m159.926 39.313-1.414 16.87-7.676-4.82Zm0 0"/><path fill="#95909e" d="m165.207 72.844 1.023 19.906-24.144-5.887Zm0 0"/><path fill="#342c47" d="m165.207 72.844 18.008 6.238L166.23 92.75Zm0 0"/><path fill="#fdfdfd" d="m150.836 51.363-2.277 7.512-34.184-11.629Zm0 0"/><path fill="#fefefe" d="m158.512 56.184-9.953 2.691 2.277-7.512Zm0 0"/><path fill="#211634" d="m148.559 58.875 16.648 13.969-23.121 14.02Zm0 0"/><path fill="#201533" d="m165.207 72.844-16.648-13.969 9.953-2.691Zm0 0"/><path fill="#f9f8f9" d="M53.926 57.328 25.27 29.34l45.152-.137Zm0 0"/><path fill="#fefefe" d="m208.68 86.152 18.902-4.418-8.668 12.47Zm0 0"/><path fill="#211734" d="m208.68 86.152 7.285-19.191 11.617 14.773Zm0 0"/><path fill="#403751" d="m215.965 66.96-7.285 19.192-4.555-18.836Zm0 0"/><path fill="#201533" d="m195.238 79.582 13.442 6.57-14.54 5.508Zm0 0"/><path fill="#655d72" d="m204.125 67.316-8.887 12.266-6.12-11.234Zm0 0"/><path fill="#665e73" d="m208.68 86.152-13.442-6.57 8.887-12.266Zm0 0"/><path fill="#201533" d="m183.215 79.082 12.023.5-1.097 12.078Zm0 0"/><path fill="#a39fab" d="m195.238 79.582-12.023-.5 5.902-10.734Zm0 0"/><path fill="#fdfdfd" d="m181.797 37.676-6.016 15.629-15.855-13.992Zm0 0"/><path fill="#fefefe" d="m278.047 108.02-19.317 8.859 11.88-27.137Zm0 0"/><path fill="#fefefe" d="m258.73 116.879 1.184-25.48 10.695-1.657ZM259.914 91.398l-1.184 25.48-11.87-25.655Zm0 0"/><path fill="#231938" d="m293.398 68.48-1.543 17.157-14.152-13.328Zm0 0"/><path fill="#211634" d="m281.25 93.574 10.605-7.937 1.06 11.375Zm0 0"/><path fill="#fefefe" d="m271.969 61.355-16.176-3.851 18.504-15.149Zm0 0"/><path fill="#201634" d="m263.363 72.758 8.606-11.403 5.734 10.954Zm0 0"/><path fill="#201533" d="m271.969 61.355-8.606 11.403-7.57-15.254ZM273.7 81.79l7.55 11.784-10.64-3.832ZM273.7 81.79l18.155 3.847-10.605 7.937Zm0 0"/><path fill="#201534" d="M291.855 85.637 273.7 81.789l4.004-9.48Zm0 0"/><path fill="#fefdfe" d="m282.7 62.887-10.731-1.532 2.328-19Zm0 0"/><path fill="#201533" d="m282.7 62.887 10.698 5.593-15.695 3.829Zm0 0"/><path fill="#201533" d="m271.969 61.355 10.73 1.532-4.996 9.422ZM175.781 53.305l16.637-.856-3.3 15.899Zm0 0"/><path fill="#201533" d="m192.418 52.45 6.785 5.484-10.086 10.414ZM199.203 57.934l-6.785-5.485 7.75-.98Zm0 0"/><path fill="#fefefe" d="m181.797 37.676 10.621 14.773-16.637.856ZM192.418 52.45l3.48-5.36 4.27 4.379Zm0 0"/><path fill="#fefefe" d="m192.418 52.45-10.621-14.774 14.101 9.414Zm0 0"/><path fill="#fafafb" d="M210.867 31.352 162.801 0l79.504-.012Zm0 0"/><path fill="#fefefe" d="m162.8 0 48.067 31.352-29.07 6.324Zm0 0"/><path fill="#fdfdfd" d="m237.738 39.453 4.567-39.465 31.992 42.367Zm0 0"/><path fill="#fdfdfe" d="m282.7 62.887 15.687-8.254-4.989 13.847Zm0 0"/><path fill="#f3f2f4" d="m349.828 56.004-25.996 6.312-.344-62.312Zm0 0"/><path fill="#fdfdfd" d="m304.582 118.328-7.957 6.758 1.688-12.832Zm0 0"/><path fill="#201533" d="m307.887 103.156-3.305 15.172-6.27-6.074Zm0 0"/><path fill="#3c334d" d="m259.371 264.426-19.476-9.04 10.39-13.82Zm0 0"/><path fill="#423953" d="m239.895 255.387 19.476 9.039-23.016-.684Zm0 0"/><path fill="#fefefe" d="m199.965 291.066-8.465 5.38-4.785-9.15Zm0 0"/><path fill="#fefefe" d="m190.176 310.855-17.938-5.582 19.262-8.828Zm0 0"/><path fill="#fbfafb" d="m191.5 296.445-19.262 8.828 14.477-17.976Zm0 0"/><path fill="#fefefe" d="m181.824 318.57-9.586-13.297 17.938 5.582Zm0 0"/><path fill="#fbfbfb" d="m172.238 305.273-4.836-18.957 19.313.98Zm0 0"/><path fill="#fbfbfc" d="m199.965 291.066 3.168 12.41-11.633-7.03Zm0 0"/><path fill="#201533" d="m193.715 310.871-3.54-.016 1.325-14.41Zm0 0"/><path fill="#fefefe" d="m203.133 303.477-9.418 7.394-2.215-14.426Zm0 0"/><path fill="#201533" d="m193.715 310.871 9.418-7.394-1.653 10.293Zm0 0"/><path fill="#201533" d="m201.48 313.77 10.73-5.508-8.062 12.765ZM212.21 308.262l5.661 6.953-13.723 5.812Zm0 0"/><path fill="#201533" d="m203.133 303.477 9.078 4.785-10.73 5.508Zm0 0"/><path fill="#fefefe" d="m217.871 315.215-5.66-6.953 20.539-5.754Zm0 0"/><path fill="#201533" d="m195.91 331.07 1.188 11.188-18.387-6.88Zm0 0"/><path fill="#fefefe" d="m282.418 121.066-23.688-4.187 19.317-8.86Zm0 0"/><path fill="#fefefe" d="m296.445 112.207-14.027 8.86-4.371-13.047Zm0 0"/><path fill="#fefefe" d="m296.625 125.086-14.207-4.02 14.027-8.859ZM209.234 106.871l-.554-20.719 10.234 8.051ZM209.234 106.871l-21.488 10.453L196.891 100Zm0 0"/><path fill="#fefefe" d="m208.68 86.152.554 20.72L196.891 100Zm0 0"/><path fill="#201533" d="m330.934 112.965-8.641 11.41-14.406-21.219Zm0 0"/><path fill="#201533" d="m322.293 124.375-17.711-6.047 3.305-15.172Zm0 0"/><path fill="#e4e2e6" d="m322.957 145.473 8.16 15.539-20.5-5.805Zm0 0"/><path fill="#fefefe" d="m310.617 155.207 20.5 5.805-13.91 24.758Zm0 0"/><path fill="#fafafb" d="m351.055 126.719 12.527 31.433-15.512-9.93Zm0 0"/><path fill="#201533" d="m336.547 134.879-14.254-10.504 8.64-11.41ZM322.293 124.375l14.254 10.504-13.59 10.594Zm0 0"/><path fill="#201634" d="m351.055 126.719-14.508 8.16-5.613-21.914Zm0 0"/><path fill="#221735" d="m336.547 134.879 14.508-8.16-2.985 21.504Zm0 0"/><path fill="#fafafb" d="m347.86 163.527.21-15.304 15.512 9.93Zm0 0"/><path fill="#fafafa" d="m339.047 100.063 22.84 16.25-10.832 10.406Zm0 0"/><path fill="#fbfbfb" d="m351.86 79.43 10.027 36.882-22.84-16.25Zm0 0"/><path fill="#f1f1f3" d="m351.055 126.719 10.832-10.406 1.695 41.84Zm0 0"/><path fill="#211736" d="m339.047 100.063-27.102-10.239 8.543-8.785Zm0 0"/><path fill="#201533" d="m330.934 112.965-18.989-23.14 27.102 10.237Zm0 0"/><path fill="#c8c7cf" d="m148.852 214.484-8.645-6.793 11.164 4.352Zm0 0"/><path fill="#dedde1" d="m140.207 207.691-.84-11.62 12.004 15.972Zm0 0"/><path fill="#fcfcfd" d="m140.207 207.691-21.488-6.605 20.648-5.016Zm0 0"/><path fill="#2f2e4d" d="m140.207 207.691 8.645 6.793-30 15.078Zm0 0"/><path fill="#3c405d" d="m118.719 201.086 21.488 6.605-21.355 21.871Zm0 0"/><path fill="#fdfcfd" d="m118.719 201.086-15.106-3.629 11.254-14.262Zm0 0"/><path fill="#382e49" d="m103.613 197.457-12.468-2.094 2.351-4.64Zm0 0"/><path fill="#fcfcfc" d="m114.867 183.195-11.254 14.262-10.117-6.734Zm0 0"/><path fill="#333351" d="m91.145 195.363 12.468 2.094-17.933 23.508Zm0 0"/><path fill="#384260" d="m85.68 220.965 17.933-23.508 15.239 32.106Zm0 0"/><path fill="#3f4965" d="m103.613 197.457 15.106 3.629.133 28.476Zm0 0"/><path fill="#201533" d="m101.21 119.648 17.415 17.422-11.586 2.145Zm0 0"/><path fill="#211634" d="m107.04 139.215 11.585-2.145-9.133 13.961Zm0 0"/><path fill="#fefefe" d="m118.625 137.07 7.797 9.703-16.93 4.258Zm0 0"/><path fill="#fbfbfc" d="m60.512 102.36-6.414 31.331L0 105.617Zm0 0"/><path fill="#201533" d="m92.086 116.527-10.047-4.582 11.004-15.793ZM76.332 131.059l4.367-9.61 12.371 8.739Zm0 0"/><path fill="#201533" d="m80.7 121.45 11.386-4.923.984 13.66Zm0 0"/><path fill="#8a8a9a" d="m62.016 383.977-11.168-37.575 19.582 2.364Zm0 0"/><path fill="#595b73" d="m50.848 346.402 11.168 37.575-30.856-35.524Zm0 0"/><path fill="#fbfbfc" d="m162.035 356.676 9.332-6.86 13.38 11.555Zm0 0"/><path fill="#fdfdfd" d="m184.746 361.371-13.379-11.555 16.254-2Zm0 0"/><path fill="#fcfcfd" d="m171.367 349.816-9.332 6.86-2.87-23.188Zm0 0"/><path fill="#211634" d="m187.621 347.816-16.254 2 7.344-14.437Zm0 0"/><path fill="#fefefe" d="m171.367 349.816-12.203-16.328 19.547 1.89Zm0 0"/><path fill="#fdfdfd" d="m209.336 341.012-3 16.652-9.238-15.406Zm0 0"/><path fill="#554c63" d="m216.398 384.031 23.082-25.703 26.079 25.684Zm0 0"/><path fill="#a9a4b0" d="m239.48 358.328-23.082 25.703-10.062-26.367Zm0 0"/><path fill="#221735" d="m171.348 102.21-5.118-9.46 16.426 3.879Zm0 0"/><path fill="#fefefe" d="m164.168 153.04.703-35.712 22.875-.004ZM127.063 68.18l-21.297 14.965 8.609-35.899Zm0 0"/><path fill="#fefefe" d="m148.559 58.875-21.496 9.305-12.688-20.934Zm0 0"/><path fill="#201533" d="m127.063 68.18-1.649 26.953-19.648-11.988Zm0 0"/><path fill="#221b3a" d="m127.063 68.18 21.496-9.305-6.473 27.988Zm0 0"/><path fill="#201533" d="m125.414 95.133 1.648-26.953 15.024 18.683ZM106.633 98.457l18.781-3.324-7.164 8.332Zm0 0"/><path fill="#201533" d="m105.766 83.145.867 15.312-13.59-2.305Zm0 0"/><path fill="#201533" d="m125.414 95.133-18.781 3.324-.867-15.312Zm0 0"/><path fill="#fdfdfd" d="m181.797 37.676-21.871 1.636L162.8 0Zm0 0"/><path fill="#fcfcfc" d="m298.387 54.633-15.688 8.254-8.402-20.532Zm0 0"/><path fill="#f6f5f7" d="m323.488.004-25.101 54.629-24.09-12.278Zm0 0"/><path fill="#f9f9f9" d="m323.832 62.316-25.445-7.683L323.488.003Zm0 0"/><path fill="#fefefe" d="m237.738 39.453-15.941 13.582-10.93-21.683ZM237.738 39.453l-26.87-8.101L242.304-.012Zm0 0"/><path fill="#f8f8f9" d="m323.832 62.316 28.027 17.114-31.37 1.61Zm0 0"/><path fill="#fafafa" d="m323.832 62.316 25.996-6.312 2.031 23.426Zm0 0"/><path fill="#fcfcfc" d="m351.86 79.43-12.813 20.632-18.559-19.023Zm0 0"/><path fill="#201533" d="m292.914 97.012-1.059-11.375 16.032 17.52Zm0 0"/><path fill="#211633" d="m287.91 101.195 5.004-4.183 3.531 15.195Zm0 0"/><path fill="#201533" d="m298.313 112.254-5.399-15.242 14.973 6.144Zm0 0"/><path fill="#201533" d="m292.914 97.012 5.399 15.242-1.868-.047Zm0 0"/><path fill="#fefefe" d="m313.23 132.254-31.746 13.262 15.141-20.43Zm0 0"/><path fill="#fefefe" d="m304.582 118.328 8.648 13.926-16.605-7.168ZM281.484 145.516l31.746-13.262-2.613 22.953Zm0 0"/><path fill="#201533" d="m322.293 124.375-9.063 7.879-8.648-13.926Zm0 0"/><path fill="#fdfdfe" d="m313.23 132.254 9.727 13.219-12.34 9.734Zm0 0"/><path fill="#201533" d="m313.23 132.254 9.063-7.879.664 21.098Zm0 0"/><path fill="#fdfdfd" d="m138.586 309.996 33.652-4.723-13.074 28.215Zm0 0"/><path fill="#f3f3f4" d="m216.445 298.02 5.653-16.383 10.652 20.87Zm0 0"/><path fill="#fefefe" d="m212.21 308.262 4.235-10.242 16.305 4.488Zm0 0"/><path fill="#201533" d="m216.445 298.02-4.234 10.242-9.078-4.785Zm0 0"/><path fill="#201533" d="m199.965 291.066 16.48 6.954-13.312 5.457Zm0 0"/><path fill="#fdfcfd" d="m216.445 298.02-16.48-6.954 22.133-9.43Zm0 0"/><path fill="#201533" d="m187.54 326.563 8.37 4.507-17.2 4.309Zm0 0"/><path fill="#fefefe" d="m187.54 326.563-5.716-7.993 8.352-7.715Zm0 0"/><path fill="#4b435b" d="m193.715 310.871-6.176 15.692 2.637-15.708Zm0 0"/><path fill="#201533" d="m195.91 331.07.61-10.664 7.628.621Zm0 0"/><path fill="#fdfdfe" d="m196.52 320.406-8.98 6.156 6.175-15.69Zm0 0"/><path fill="#201533" d="m187.54 326.563 8.98-6.157-.61 10.664ZM196.52 320.406l4.96-6.636 2.668 7.257ZM196.52 320.406l-2.805-9.535 7.765 2.899Zm0 0"/><path fill="#fefefe" d="m209.234 106.871 11.41 42.184-32.898-31.73ZM231.281 104.223l-22.047 2.648 9.68-12.668Zm0 0"/><path fill="#fefefe" d="m227.582 81.734 3.7 22.489-12.368-10.02Zm0 0"/><path fill="#fefefe" d="m246.86 91.223-15.579 13-3.699-22.489Zm0 0"/><path fill="#f8f8f9" d="m347.86 163.527 15.722-5.375-7.152 44.883Zm0 0"/><path fill="#fbfbfb" d="m317.207 185.77 30.652-22.243 8.57 39.508Zm0 0"/><path fill="#fefefe" d="m331.117 161.012 16.742 2.515-30.652 22.243Zm0 0"/><path fill="#231836" d="m337.824 151.008-1.277-16.13 11.523 13.345Zm0 0"/><path fill="#201533" d="m347.86 163.527-10.036-12.52 10.246-2.784ZM336.547 134.879l1.277 16.129-14.867-5.535Zm0 0"/><path fill="#201533" d="m337.824 151.008-6.707 10.004-8.16-15.54ZM337.824 151.008l10.035 12.52-16.742-2.516Zm0 0"/><path fill="#655e72" d="m97.48 149.406-15.777-2.511 8.692-8.844Zm0 0"/><path fill="#211634" d="m81.703 146.895 15.777 2.511-8.707 6.836Zm0 0"/><path fill="#fefefe" d="m81.703 146.895 7.07 9.347-19.543.418Zm0 0"/><path fill="#fefefe" d="m71.617 142.906 10.086 3.989-12.473 9.765ZM60.512 102.36l11.926 17.738-18.34 13.593ZM54.098 133.691l18.34-13.593 3.894 10.96Zm0 0"/><path fill="#fefefe" d="m72.438 120.098 8.261 1.351-4.367 9.61Zm0 0"/><path fill="#fdfdfe" d="m82.04 111.945-9.603 8.153-11.925-17.739Zm0 0"/><path fill="#fefefe" d="m72.438 120.098 9.601-8.153-1.34 9.504Zm0 0"/><path fill="#201533" d="m80.7 121.45 1.34-9.505 10.046 4.582Zm0 0"/><path fill="#898393" d="m267.441 355.992-27.96 2.336 23.492-30.574Zm0 0"/><path fill="#f0eff1" d="m231.754 335.781 7.726 22.547-33.144-.664Zm0 0"/><path fill="#fdfdfd" d="m209.336 341.012 22.418-5.23-25.418 21.882Zm0 0"/><path fill="#fefefe" d="m171.348 102.21 16.398 15.114-22.875.004Zm0 0"/><path fill="#fefefe" d="m196.89 100-9.144 17.324-5.09-20.695Zm0 0"/><path fill="#fbfbfb" d="m187.746 117.324-16.398-15.113 11.308-5.582Zm0 0"/><path fill="#fefefe" d="m118.625 137.07 11.719-7.707-3.922 17.41Zm0 0"/><path fill="#423852" d="m166.23 92.75-8.921 16.547-15.223-22.434Zm0 0"/><path fill="#2b213d" d="m171.348 102.21-14.04 7.087 8.922-16.547Zm0 0"/><path fill="#fefefe" d="m157.309 109.297 14.039-7.086-6.477 15.117ZM150.828 116.535l6.48-7.238 7.563 8.031Zm0 0"/><path fill="#fefefe" d="m164.168 153.04-13.34-36.505 14.043.793Zm0 0"/><path fill="#221a3a" d="m311.945 89.824-20.09-4.187 1.543-17.157Zm0 0"/><path fill="#201534" d="m291.855 85.637 20.09 4.187-4.058 13.332Zm0 0"/><path fill="#201634" d="m175.996 324.617 11.543 1.945-8.828 8.817Zm0 0"/><path fill="#fefefe" d="m187.54 326.563-11.544-1.946 5.828-6.047ZM159.164 333.488l16.832-8.87 2.715 10.76Zm0 0"/><path fill="#fefefe" d="m172.238 305.273 3.758 19.344-16.832 8.871Zm0 0"/><path fill="#fefefe" d="m175.996 324.617-3.758-19.344 9.586 13.297ZM220.645 149.055l10.636-44.832 27.45 12.656ZM231.281 104.223l-10.636 44.832-11.41-42.184Zm0 0"/><path fill="#fefefe" d="m258.73 116.879-27.449-12.656 15.578-13ZM82.04 111.945l-1.517-26.882 12.52 11.09Zm0 0"/><path fill="#fdfdfd" d="m60.512 102.36 20.011-17.297 1.516 26.882ZM80.523 85.063l-20.011 17.296-6.586-45.03Zm0 0"/><path fill="#201533" d="m217.871 315.215-13.238 18.055-.485-12.243ZM204.633 333.27l13.238-18.055-8.535 25.797Zm0 0"/><path fill="#201533" d="m204.633 333.27 4.703 7.742-12.238 1.246Zm0 0"/><path fill="#201533" d="m195.91 331.07 8.723 2.2-7.535 8.988Zm0 0"/><path fill="#201533" d="m204.633 333.27-8.723-2.2 8.238-10.043Zm0 0"/><path fill="#fefefe" d="m217.871 315.215 13.883 20.566-22.418 5.23ZM164.168 153.04l-22.777-32.524 9.437-3.98Zm0 0"/><path fill="#fefefe" d="m130.344 129.363 33.824 23.676-37.746-6.266Zm0 0"/><path fill="#fefefe" d="m141.39 120.516 22.778 32.523-33.824-23.676Zm0 0"/><path fill="#fdfdfd" d="m298.387 54.633 10.281 18.219-15.27-4.372Zm0 0"/><path fill="#221937" d="m308.668 72.852 3.277 16.972-18.547-21.344Zm0 0"/><path fill="#fcfcfd" d="m323.832 62.316-15.164 10.536-10.281-18.22Zm0 0"/><path fill="#f9f9fa" d="m308.668 72.852 15.164-10.536-3.344 18.723Zm0 0"/><path fill="#201736" d="m311.945 89.824-3.277-16.972 11.82 8.187Zm0 0"/><path fill="#dfdee2" d="m239.48 358.328-7.726-22.547 31.219-8.027Zm0 0"/><path fill="#201533" d="m141.39 120.516-19.874 1.754-3.266-18.805Zm0 0"/><path fill="#322844" d="m121.516 122.27 19.875-1.754-11.047 8.847Zm0 0"/><path fill="#201533" d="m121.516 122.27 8.828 7.093-11.719 7.707Zm0 0"/><path fill="#bfbcc4" d="m121.516 122.27-20.305-2.622 17.039-16.183Zm0 0"/><path fill="#585066" d="m121.516 122.27-2.891 14.8-17.414-17.422Zm0 0"/><path fill="#211634" d="m141.887 106.113 15.422 3.184-6.48 7.238Zm0 0"/><path fill="#201533" d="m141.39 120.516.497-14.403 8.941 10.422Zm0 0"/><path fill="#dddbe0" d="m141.887 106.113-16.473-10.98 16.672-8.27Zm0 0"/><path fill="#676074" d="m157.309 109.297-15.422-3.184.199-19.25Zm0 0"/><path fill="#ada9b4" d="m125.414 95.133 16.473 10.98-23.637-2.648Zm0 0"/><path fill="#221735" d="m141.887 106.113-.496 14.403-23.141-17.051Zm0 0"/></svg>