<svg xmlns="http://www.w3.org/2000/svg" width="512" height="512" viewBox="0 0 384 384"><path fill="#c9844f" d="m343.566 294.422 14.04-30.465 26.374 29.191Zm0 0"/><path fill="#576068" d="m82.527 250.504-46.836-1.848 36.34-31ZM59.637 189.684l26.992.039-14.598 27.933Zm0 0"/><path fill="#eda851" d="m314.184 223.555-46.317-8.344 36.817-48.793Zm0 0"/><path fill="#596068" d="m174.457 262.184-37.293-11.547 12.965-36.989Zm0 0"/><path fill="#fab854" d="m304.684 166.418-36.817 48.793-9.949-69.414Zm0 0"/><path fill="#fab853" d="m156.36 201.105-3.692-25.937 34.516 15.227Zm0 0"/><path fill="#5a6066" d="m108.95 224.695 5.042 39.645-31.465-13.836Zm0 0"/><path fill="#5b6167" d="m113.992 264.34-5.043-39.645 28.215 25.942Zm0 0"/><path fill="#d58d4e" d="m309.281 344.195 6.227 19.735-27.77-1.477Zm0 0"/><path fill="#b07050" d="m299.7 384.008 15.808-20.078 20.676 20.078Zm0 0"/><path fill="#bb704b" d="m315.508 363.93-15.809 20.078-11.96-21.555Zm0 0"/><path fill="#a06b55" d="m315.508 363.93 32.949.84-12.273 19.238Zm0 0"/><path fill="#a7876e" d="m282.3 255.59-14.433-40.38 46.317 8.345Zm0 0"/><path fill="#f4b456" d="m70.293 83.977-28.418-18.09 31.059-25.352Zm0 0"/><path fill="#edb058" d="M72.934 40.535 53.992 0l60.977.008Zm0 0"/><path fill="#575f68" d="m35.691 248.656.66-52.261 35.68 21.261Zm0 0"/><path fill="#565f68" d="m53.816 283.719-18.125-35.063 46.836 1.848ZM16.887 177.828l19.465 18.567L0 205.735Zm0 0"/><path fill="#576068" d="m49.867 175.352 13.684 3.289-3.914 11.043Zm0 0"/><path fill="#f4b556" d="m201.98 29.102 11.5 16.086-16.085 7.476Zm0 0"/><path fill="#f9b753" d="m334.09 183.86-19.906 39.695-9.5-57.137Zm0 0"/><path fill="#d18a4f" d="m220.527 288.27-7.425-29.528 19.418-2.144Zm0 0"/><path fill="#fab854" d="m257.918 145.797 33.43-8.317 13.336 28.938Zm0 0"/><path fill="#fab853" d="m206.406 151.676 16.899 50.988-36.121-12.27Zm0 0"/><path fill="#fab853" d="m223.305 202.664-16.899-50.988 61.461 63.535ZM127.129 184.125l.605-21.066 24.934 12.109Zm0 0"/><path fill="#2e222f" d="m91.828 139.168-15.18-8.195 17.465-1.73Zm0 0"/><path fill="#a34b43" d="m102.203 133.914-10.375 5.254 2.285-9.926Zm0 0"/><path fill="#726763" d="m50.34 303.336 3.476-19.617 29.664 12.058Zm0 0"/><path fill="#555d66" d="M38.11 332.906.007 384 0 322.52Zm0 0"/><path fill="#596067" d="m113.992 264.34-21.945 9.035-9.52-22.871Zm0 0"/><path fill="#b2825c" d="m53.816 283.719 38.23-10.344-8.566 22.402Zm0 0"/><path fill="#585f67" d="m92.047 273.375-38.23 10.344 28.71-33.215Zm0 0"/><path fill="#596068" d="m72.031 217.656 36.918 7.04-26.422 25.808Zm0 0"/><path fill="#b38257" d="m383.984 228.496-.004 64.652-26.375-29.191Zm0 0"/><path fill="#bf724b" d="m341.441 329.145 2.125-34.723 40.414-1.274Zm0 0"/><path fill="#da9450" d="m287.738 362.453-2.648-19.23 24.191.972Zm0 0"/><path fill="#e2a759" d="m285.09 343.223 26.375-42.75-2.184 43.722Zm0 0"/><path fill="#f4b556" d="m273.984 304.852 11.106 38.37-31.613 11.731Zm0 0"/><path fill="#e7ad5a" d="m311.465 300.473-26.375 42.75-11.106-38.371Zm0 0"/><path fill="#f3b455" d="m105.043 74.254-2.266 10.758-8.136-12.477Zm0 0"/><path fill="#f6b655" d="M70.293 83.977 32.09 108.059l9.785-42.172Zm0 0"/><path fill="#f3b456" d="m34.293 34.262 38.64 6.273-31.058 25.352Zm0 0"/><path fill="#f0b257" d="M72.934 40.535 114.969.008l4.36 42Zm0 0"/><path fill="#f3b456" d="m94.64 72.535-21.706-32 46.394 1.473ZM105.043 74.254l-10.402-1.719 24.687-30.527Zm0 0"/><path fill="#565f68" d="M0 270.145v-64.41l35.691 42.921ZM0 205.734l36.352-9.34-.66 52.262Zm0 0"/><path fill="#f7b655" d="m0 104.742.004-45.254 32.086 48.57Zm0 0"/><path fill="#f9b854" d="m0 126.984 32.09-18.925-9.637 33.87Zm0 0"/><path fill="#f9b854" d="M0 126.984v-22.242l32.09 3.317Zm0 0"/><path fill="#fab854" d="M-.02 155.191 0 126.984l22.453 14.946ZM28.492 165.262-.02 155.192l22.473-13.262Zm0 0"/><path fill="#565f68" d="m28.492 165.262-11.605 12.566L-.02 155.191Zm0 0"/><path fill="#565f68" d="M16.887 177.828 0 205.734l-.02-50.543Zm0 0"/><path fill="#575f68" d="m36.352 196.395-19.465-18.567 11.605-12.566Zm0 0"/><path fill="#576068" d="m49.867 175.352-13.515 21.043-7.86-31.133ZM36.352 196.395l23.285-6.711 12.394 27.972Zm0 0"/><path fill="#576068" d="m36.352 196.395 13.515-21.043 9.77 14.332Zm0 0"/><path fill="#fab854" d="m22.453 141.93 28.34 7.746-22.3 15.586Zm0 0"/><path fill="#fab853" d="m50.793 149.676-.926 25.676-21.375-10.09Zm0 0"/><path fill="#fab854" d="m32.09 108.059 18.703 41.617-28.34-7.746Zm0 0"/><path fill="#fab853" d="m49.867 175.352.926-25.676 12.758 28.965Zm0 0"/><path fill="#f1b356" d="M252.43 36.434 279.094 0l-3.23 40.14Zm0 0"/><path fill="#f1b357" d="m165.188 29.762-16.47 19.062-29.39-6.816Zm0 0"/><path fill="#fab854" d="m282.281 95.613-5.23 7.489-4.098-12Zm0 0"/><path fill="#f3b456" d="m213.48 45.188-.148 9.667-15.937-2.19Zm0 0"/><path fill="#f2b356" d="m248.824 57.316-9.855-9.28 13.46-11.602Zm0 0"/><path fill="#efb257" d="m238.969 48.035 9.855 9.281-10.914-.21Zm0 0"/><path fill="#403d49" d="m248.824 57.316-1.558 19.016-9.356-19.227Zm0 0"/><path fill="#312734" d="m237.91 57.105-5.144 13.84-6.188-8.507Zm0 0"/><path fill="#2f2431" d="m247.266 76.332-14.5-5.387 5.144-13.84Zm0 0"/><path fill="#f3b456" d="m384 46.691-33.8-2.285L384 0Zm0 0"/><path fill="#a5866f" d="m282.3 255.59-16.136-2.395 1.703-37.984Zm0 0"/><path fill="#eaa651" d="m213.102 258.742-28.91 17.363-9.735-13.921Zm0 0"/><path fill="#efae54" d="m191.008 343.219-18.508 7.726 4.89-24.078Zm0 0"/><path fill="#fab854" d="m237.492 307.148 36.492-2.296-20.507 50.101Zm0 0"/><path fill="#fab854" d="m237.492 307.148 16.336-27.98 20.156 25.684Zm0 0"/><path fill="#e8a250" d="m239.473 258.11-18.946 30.16 11.993-31.672Zm0 0"/><path fill="#fab853" d="m167.984 212.473-11.625-11.368 30.825-10.71Zm0 0"/><path fill="#ecab53" d="m164.563 237.828 9.894 24.356-24.328-48.536Zm0 0"/><path fill="#806f60" d="m164.563 237.828 31.761-19.152-21.867 43.508Zm0 0"/><path fill="#5a6168" d="m167.984 212.473-3.422 25.355-14.433-24.18Zm0 0"/><path fill="#746a63" d="m212.992 252.215.11 6.527-38.645 3.442Zm0 0"/><path fill="#6a6664" d="m196.324 218.676 16.668 33.539-38.535 9.969Zm0 0"/><path fill="#6f6965" d="m213.102 258.742-.11-6.527 19.528 4.383Zm0 0"/><path fill="#fab854" d="m223.305 202.664-24.614 8.848-11.507-21.117Zm0 0"/><path fill="#fbb954" d="m206.406 151.676 51.512-5.88 9.95 69.415Zm0 0"/><path fill="#f8b754" d="m344.977 111.824-14.95-22.32 21.707-3.578Zm0 0"/><path fill="#fab853" d="m92.602 176.734 19.878-.699-10.402 17.711Zm0 0"/><path fill="#f8b653" d="m86.629 189.723 5.973-12.989 9.476 17.012Zm0 0"/><path fill="#f8b553" d="m167.984 212.473-17.855 1.175 6.23-12.543Zm0 0"/><path fill="#fab853" d="m142.266 207.344-15.137-23.219 25.539-8.957Zm0 0"/><path fill="#fab854" d="m50.793 149.676 20.625 7.543-7.867 21.422ZM50.793 149.676 32.09 108.059l30.047 20.609Zm0 0"/><path fill="#fab854" d="m70.52 144.992-19.727 4.684 11.344-21.008ZM50.793 149.676l19.727-4.684.898 12.227Zm0 0"/><path fill="#576068" d="m63.55 178.64 23.079 11.083-26.992-.04Zm0 0"/><path fill="#fab853" d="m63.55 178.64 7.868-21.421 13.422 6.379Zm0 0"/><path fill="#fab753" d="m92.602 176.734-29.051 1.907 21.289-15.043Zm0 0"/><path fill="#f8b653" d="m63.55 178.64 29.052-1.906-5.973 12.989Zm0 0"/><path fill="#a85043" d="m102.203 133.914 1.137 11.219-11.512-5.965Zm0 0"/><path fill="#2e222f" d="m104.86 117.992.199-13.347 21.609-7.825Zm0 0"/><path fill="#ad5845" d="m104.86 117.992-2.657 15.922-8.09-4.672Zm0 0"/><path fill="#2e222f" d="m92.047 115.926 2.738-22.137 10.274 10.856ZM92.047 115.926l12.812 2.066-10.746 11.25Zm0 0"/><path fill="#3a343f" d="m104.86 117.992-12.813-2.066 13.012-11.281Zm0 0"/><path fill="#f5b555" d="M94.64 72.535 70.294 83.977l2.64-43.442Zm0 0"/><path fill="#a4745b" d="m103.918 383.996 25.41-21.348 15.742 21.348Zm0 0"/><path fill="#a2755c" d="m129.328 362.648-25.41 21.348 1.375-27.703Zm0 0"/><path fill="#826960" d="m120.652 329.988-22.105-8.617 14.078-17.504Zm0 0"/><path fill="#816761" d="m98.547 321.371 22.105 8.617-15.359 26.305Zm0 0"/><path fill="#6d6664" d="M98.547 321.371 83.48 295.777l29.145 8.09Zm0 0"/><path fill="#515660" d="m38.11 332.906-5.59 51.09L.008 384Zm0 0"/><path fill="#776363" d="m71.047 328.93 27.5-7.559 6.746 34.922Zm0 0"/><path fill="#8a6d61" d="m57.25 364.941 13.797-36.011 34.246 27.363Zm0 0"/><path fill="#7a6663" d="M71.047 328.93 57.25 364.94l-19.14-32.035Zm0 0"/><path fill="#646066" d="m50.34 303.336 20.707 25.594-32.938 3.976Zm0 0"/><path fill="#7f6a63" d="m71.047 328.93 12.433-33.153 15.067 25.594Zm0 0"/><path fill="#7f6f65" d="M83.48 295.777 71.047 328.93 50.34 303.336Zm0 0"/><path fill="#555d66" d="m35.691 248.656-3.82 49.914L0 270.145Zm0 0"/><path fill="#a8775b" d="m120.652 329.988 8.676 32.66-24.035-6.355Zm0 0"/><path fill="#a6795c" d="m129.328 362.648-8.676-32.66 32.528 23.504Zm0 0"/><path fill="#e79f50" d="m163.79 290.598 10.667-28.414 9.734 13.921Zm0 0"/><path fill="#bc865b" d="m83.48 295.777 8.567-22.402 20.578 30.492Zm0 0"/><path fill="#586067" d="m97.836 203.781-11.207-14.058 15.45 4.023Zm0 0"/><path fill="#586068" d="M97.836 203.781 72.03 217.656l14.598-27.933Zm0 0"/><path fill="#bb8655" d="m314.184 223.555 69.8 4.941-26.379 35.461Zm0 0"/><path fill="#f9b754" d="m383.984 228.496-69.8-4.941 19.906-39.696Zm0 0"/><path fill="#fab853" d="m352.148 170.906 31.836 57.59-49.894-44.637Zm0 0"/><path fill="#8f695b" d="m336.184 384.008 12.273-19.238 35.535 19.226Zm0 0"/><path fill="#ad7252" d="m383.996 341.957-42.555-12.812 42.54-35.997Zm0 0"/><path fill="#c37d4f" d="m309.281 344.195 32.16-15.05-25.933 34.785Zm0 0"/><path fill="#d1854c" d="m341.441 329.145-29.976-28.672 32.101-6.051Zm0 0"/><path fill="#d78e4e" d="m311.465 300.473 29.976 28.672-32.16 15.05Zm0 0"/><path fill="#fab854" d="m282.3 255.59 29.165 44.883-37.48 4.379Zm0 0"/><path fill="#eca851" d="m267.113 383.977-41.379.011 27.743-29.035Zm0 0"/><path fill="#e49d50" d="m287.738 362.453-20.625 21.524-13.636-29.024Zm0 0"/><path fill="#f1ae53" d="m253.477 354.953 31.613-11.73 2.648 19.23Zm0 0"/><path fill="#f0b256" d="M165.188 29.762 114.968.008l65.598-.004Zm0 0"/><path fill="#f0b257" d="m114.969.008 50.219 29.754-45.86 12.246Zm0 0"/><path fill="#f2b356" d="m159.84 56.219-11.121-7.395 16.469-19.062Zm0 0"/><path fill="#f3b456" d="m111.996 77.379-6.953-3.125 14.285-32.246Zm0 0"/><path fill="#f8b754" d="m105.043 74.254 6.953 3.125-9.219 7.633Zm0 0"/><path fill="#efb257" d="M34.293 34.262 53.993 0l18.94 40.535Zm0 0"/><path fill="#f3b456" d="M228.965-.004 201.98 29.102 180.566.004Zm0 0"/><path fill="#f3b456" d="m201.98 29.102-36.792.66L180.566.004Zm0 0"/><path fill="#2f2431" d="m232.766 70.945-12.973 1.68 6.785-10.187Zm0 0"/><path fill="#2e222f" d="m219.793 72.625 12.973-1.68-3.723 9.84Zm0 0"/><path fill="#2f2431" d="m219.793 72.625-6.461-17.77 13.246 7.583Zm0 0"/><path fill="#2f2330" d="m213.332 54.855 6.461 17.77-17.04.223Zm0 0"/><path fill="#fab854" d="m195.836 92.484-2.965 7.696-6.719-5.192ZM260.906 92.566l.508-8.699 11.54 7.235ZM260.906 92.566l-.699 15.38-15.82-16.41Zm0 0"/><path fill="#993d41" d="m261.414 83.867 15.777.117-4.238 7.118Zm0 0"/><path fill="#3d3944" d="m213.332 54.855 13.676-1.511-.43 9.093Zm0 0"/><path fill="#f3b456" d="m227.008 53.344-13.676 1.511.148-9.667Zm0 0"/><path fill="#44444e" d="m227.008 53.344 10.902 3.761-11.332 5.333Zm0 0"/><path fill="#f0b256" d="m227.008 53.344 11.96-5.309-1.058 9.07Zm0 0"/><path fill="#403e49" d="m213.332 54.855-13.437 7.114-2.5-9.305Zm0 0"/><path fill="#473b47" d="m199.895 61.969 2.859 10.879-13.402-6.575Zm0 0"/><path fill="#362e3a" d="m199.895 61.969 13.437-7.114-10.578 17.993Zm0 0"/><path fill="#f6b655" d="m226.68 35.613-13.2 9.575-11.5-16.086Zm0 0"/><path fill="#f1b356" d="M252.43 36.434 228.965-.004 279.094 0Zm0 0"/><path fill="#fab854" d="m247.266 76.332 14.148 7.535-17.027 7.668Zm0 0"/><path fill="#fab854" d="m261.414 83.867-.508 8.7-16.52-1.032Zm0 0"/><path fill="#43424d" d="m269.05 71.281-21.784 5.051 1.558-19.016Zm0 0"/><path fill="#2e222f" d="m269.05 71.281-7.636 12.586-14.148-7.535Zm0 0"/><path fill="#655863" d="m277.191 83.984-8.14-12.703 14.375 1.254Zm0 0"/><path fill="#655863" d="m269.05 71.281 8.141 12.703-15.777-.117Zm0 0"/><path fill="#fab854" d="m236.566 79.512 10.7-3.18-2.88 15.203Zm0 0"/><path fill="#2e222f" d="m236.566 79.512-3.8-8.567 14.5 5.387Zm0 0"/><path fill="#2e222f" d="m232.766 70.945 3.8 8.567-7.523 1.273Zm0 0"/><path fill="#f9b854" d="m236.566 79.512 7.82 12.023-15.343-10.75Zm0 0"/><path fill="#f2b356" d="M305.234 39.566 279.094 0h50.543Zm0 0"/><path fill="#914146" d="m290.695 105.234-8.414-9.62 17.547 3.562Zm0 0"/><path fill="#f9b854" d="m290.695 105.234-13.644-2.132 5.23-7.489Zm0 0"/><path fill="#f7b655" d="m278.336 119.371 12.36-14.137 3.32 14.82Zm0 0"/><path fill="#f8b754" d="m290.695 105.234-12.36 14.137-1.284-16.27Zm0 0"/><path fill="#963e42" d="m299.828 99.176 12.254-11.703 7.234 31.882Zm0 0"/><path fill="#a3856f" d="m257.73 230.281 8.434 22.914-16.898-11.457Zm0 0"/><path fill="#a3856f" d="m266.164 253.195-8.434-22.914 10.137-15.07Zm0 0"/><path fill="#fab854" d="m257.73 230.281-34.425-27.617 44.562 12.547Zm0 0"/><path fill="#f9b854" d="m257.73 230.281-19.433 7.672-14.992-35.289Zm0 0"/><path fill="#bc9467" d="m238.297 237.953 19.433-7.672-8.464 11.457Zm0 0"/><path fill="#f4b455" d="m282.3 255.59-28.472 23.578 12.336-25.973Zm0 0"/><path fill="#fab854" d="m253.828 279.168 28.473-23.578-8.317 49.262Zm0 0"/><path fill="#7a6759" d="m232.52 256.598 5.777-18.645 10.969 3.785Zm0 0"/><path fill="#606062" d="m232.52 256.598-19.528-4.383 25.305-14.262Zm0 0"/><path fill="#fab853" d="M352.148 170.906 384 132.922l-.016 95.574Zm0 0"/><path fill="#fab854" d="m384 132.922-31.852 37.984 8.563-40.715ZM304.684 166.418l-13.336-28.938 19.68 7.653Zm0 0"/><path fill="#f1ad52" d="m220.527 288.27-36.336-12.165 28.91-17.363Zm0 0"/><path fill="#fab854" d="m216.172 312.516 21.32-5.368-15.687 8.883ZM239.473 258.11l14.355 21.058-33.3 9.102Zm0 0"/><path fill="#806e60" d="m214.223 227.379-1.23 24.836-16.669-33.54Zm0 0"/><path fill="#74665f" d="m212.992 252.215 1.23-24.836 24.075 10.574Zm0 0"/><path fill="#f8b754" d="m238.297 237.953-24.074-10.574 9.082-24.715Zm0 0"/><path fill="#fab854" d="m278.336 119.371 13.012 18.11-33.43 8.316ZM214.223 227.379l-15.532-15.867 24.614-8.848Zm0 0"/><path fill="#fab854" d="m198.691 211.512 15.532 15.867-17.899-8.703ZM198.691 211.512l-30.707.96 19.2-22.077Zm0 0"/><path fill="#6c6864" d="m164.563 237.828 3.421-25.355 28.34 6.203Zm0 0"/><path fill="#fab854" d="m167.984 212.473 30.707-.961-2.367 7.164Zm0 0"/><path fill="#f9b754" d="m365.324 108.844-13.59-22.918L384 85.21Zm0 0"/><path fill="#f8b754" d="m384 132.922-18.676-24.078L384 85.21Zm0 0"/><path fill="#fab854" d="m360.71 130.191 4.614-21.347L384 132.922Zm0 0"/><path fill="#f9b854" d="m365.324 108.844-20.347 2.98 6.757-25.898Zm0 0"/><path fill="#993d41" d="m344.977 111.824-13.196 3.903-1.754-26.223Zm0 0"/><path fill="#993d41" d="m312.082 87.473 19.7 28.254-12.466 3.628Zm0 0"/><path fill="#993d41" d="m331.781 115.727 13.196-3.903 4.656 19.57Zm0 0"/><path fill="#f9b753" d="m112.48 176.035 15.254-12.976-.605 21.066Zm0 0"/><path fill="#fab854" d="m104.773 159.863 22.961 3.196-15.254 12.976ZM127.734 163.059l-22.96-3.196 6.324-11.039Zm0 0"/><path fill="#fab853" d="m104.773 159.863-12.171 16.871-7.762-13.136ZM92.602 176.734l12.171-16.87 7.707 16.171Zm0 0"/><path fill="#f7b553" d="m156.36 201.105-6.231 12.543-7.863-6.304Zm0 0"/><path fill="#fab853" d="m156.36 201.105-14.094 6.239 10.402-32.176Zm0 0"/><path fill="#596067" d="m150.129 213.648-16.805 3.551 8.942-9.855Zm0 0"/><path fill="#5c6268" d="m108.95 224.695 24.374-7.496 3.84 33.438Zm0 0"/><path fill="#5a6168" d="m137.164 250.637-3.84-33.438 16.805-3.55Zm0 0"/><path fill="#fab853" d="m102.078 193.746 10.402-17.71 14.649 8.089Zm0 0"/><path fill="#f9b753" d="m111.273 199.063-9.195-5.317 25.05-9.621Zm0 0"/><path fill="#fab854" d="m124.754 144.758 2.98 18.3-16.636-14.234Zm0 0"/><path fill="#fbb954" d="m152.668 175.168 53.738-23.492-19.222 38.719Zm0 0"/><path fill="#2e222f" d="m91.828 139.168-8.742 8.234-6.438-16.43Zm0 0"/><path fill="#fab854" d="m83.086 147.402-12.566-2.41 6.128-14.02Zm0 0"/><path fill="#993d41" d="m104.773 159.863-1.433-14.73 7.758 3.691Zm0 0"/><path fill="#fab854" d="m32.09 108.059 34.363 3.664-4.316 16.945Zm0 0"/><path fill="#f9b854" d="m70.52 144.992-8.383-16.324 14.511 2.305Zm0 0"/><path fill="#f8b754" d="m93.102 84.715 9.675.297-7.992 8.777Zm0 0"/><path fill="#f3b455" d="m102.777 85.012-9.675-.297 1.539-12.18Zm0 0"/><path fill="#826962" d="m105.293 356.293-1.375 27.703-46.668-19.055Zm0 0"/><path fill="#c28455" d="m135.883 298.973-3.547 12.168-19.711-7.274Zm0 0"/><path fill="#84695f" d="m132.336 311.14-11.684 18.848-8.027-26.12Zm0 0"/><path fill="#af7b59" d="m120.652 329.988 11.684-18.847 20.844 42.351Zm0 0"/><path fill="#565e67" d="M53.816 283.719 31.871 298.57l3.82-49.914Zm0 0"/><path fill="#515761" d="m31.871 298.57 21.945-14.851-3.476 19.617Zm0 0"/><path fill="#555d66" d="m0 270.145 31.871 28.425L0 322.52Zm0 0"/><path fill="#4c505a" d="m31.871 298.57 6.238 34.336L0 322.52Zm0 0"/><path fill="#a8775a" d="m129.328 362.648 23.852-9.156-8.11 30.504Zm0 0"/><path fill="#b97551" d="m153.18 353.492 28.222 30.461-36.332.043Zm0 0"/><path fill="#5c6268" d="m174.457 262.184-34.906 7.425-2.387-18.972Zm0 0"/><path fill="#eca651" d="m163.79 290.598-24.24-20.989 34.907-7.425Zm0 0"/><path fill="#5b6167" d="m139.55 269.61-25.558-5.27 23.172-13.703Zm0 0"/><path fill="#e1994f" d="m139.55 269.61 24.24 20.988-27.907 8.375Zm0 0"/><path fill="#c67e4f" d="m218.992 366.598 6.742 17.39-44.332-.035Zm0 0"/><path fill="#d98f4e" d="m194.738 357.14 24.254 9.458-37.59 17.355Zm0 0"/><path fill="#d0834c" d="m194.738 357.14-13.336 26.813-8.902-33.008Zm0 0"/><path fill="#eaa450" d="m191.008 343.219 3.73 13.922-22.238-6.196Zm0 0"/><path fill="#eaa551" d="m225.734 383.988-6.742-17.39 34.485-11.645Zm0 0"/><path fill="#c38757" d="m118.89 284.273 16.993 14.7-23.258 4.894Zm0 0"/><path fill="#bd865b" d="m92.047 273.375 26.844 10.898-6.266 19.594Zm0 0"/><path fill="#ca8a55" d="m118.89 284.273 20.66-14.664-3.667 29.364Zm0 0"/><path fill="#b58259" d="m118.89 284.273-26.843-10.898 21.945-9.035Zm0 0"/><path fill="#c28858" d="m139.55 269.61-20.66 14.663-4.898-19.933Zm0 0"/><path fill="#85655c" d="m383.992 383.996-35.535-19.226 35.54-22.813Zm0 0"/><path fill="#b17452" d="m341.441 329.145 7.016 35.625-32.95-.84Zm0 0"/><path fill="#b17653" d="m383.996 341.957-35.539 22.813-7.016-35.625Zm0 0"/><path fill="#f1af54" d="m282.3 255.59 40.403 9.191-11.238 35.692Zm0 0"/><path fill="#e29b50" d="m311.465 300.473 11.238-35.692 20.863 29.64Zm0 0"/><path fill="#bc9367" d="m314.184 223.555 8.52 41.226-40.403-9.191Zm0 0"/><path fill="#da924e" d="m343.566 294.422-20.863-29.64 34.902-.825Zm0 0"/><path fill="#b08459" d="m322.703 264.781-8.52-41.226 43.422 40.402Zm0 0"/><path fill="#ce824d" d="m267.113 383.977 20.625-21.524 11.961 21.555Zm0 0"/><path fill="#993d41" d="m170.887 91.82 17.793-11.136-2.528 14.304Zm0 0"/><path fill="#3a3541" d="m175.234 55.32 8.528-2.433 5.59 13.386Zm0 0"/><path fill="#f2b356" d="m183.762 52.887-8.528 2.433-10.047-25.558Zm0 0"/><path fill="#f3b456" d="m175.234 55.32-15.394.899 5.347-26.457Zm0 0"/><path fill="#af5a45" d="m167.043 73.328 3.844 18.492-23.25-7.457Zm0 0"/><path fill="#645762" d="m188.68 80.684-21.637-7.356 22.309-7.055Zm0 0"/><path fill="#8a484c" d="m167.043 73.328 21.637 7.356-17.793 11.136Zm0 0"/><path fill="#2e2330" d="m167.043 73.328 8.191-18.008 14.118 10.953Zm0 0"/><path fill="#342c38" d="m175.234 55.32-8.191 18.008-7.203-17.11Zm0 0"/><path fill="#f4b555" d="m148.719 48.824-4.473 12.008-24.918-18.824Zm0 0"/><path fill="#f2b356" d="m159.84 56.219-15.594 4.613 4.473-12.008Zm0 0"/><path fill="#2e222f" d="m144.246 60.832 22.797 12.496-19.406 11.035Zm0 0"/><path fill="#342c38" d="m167.043 73.328-22.797-12.496 15.594-4.613Zm0 0"/><path fill="#f0b257" d="M53.992 0 34.293 34.262 0 0Zm0 0"/><path fill="#f8b754" d="m205.691 86.371 23.352-5.586-20.934 16.797Zm0 0"/><path fill="#2e222f" d="m205.691 86.371 14.102-13.746 9.25 8.16Zm0 0"/><path fill="#2e222f" d="m219.793 72.625-14.102 13.746-2.937-13.523Zm0 0"/><path fill="#fab854" d="m195.836 92.484 9.855-6.113 2.418 11.211Zm0 0"/><path fill="#993d41" d="m188.68 80.684 7.156 11.8-9.684 2.504Zm0 0"/><path fill="#665863" d="m202.754 72.848-14.074 7.836.672-14.41ZM205.691 86.371l-17.011-5.687 14.074-7.836Zm0 0"/><path fill="#983d41" d="m188.68 80.684 17.011 5.687-9.855 6.113Zm0 0"/><path fill="#f2b356" d="m188.457 44.656-4.695 8.23-18.574-23.124Zm0 0"/><path fill="#fab854" d="m277.05 103.102-16.843 4.843 12.746-16.843ZM260.207 107.945l.7-15.379 12.046-1.464Zm0 0"/><path fill="#f9b854" d="m278.336 119.371-18.129-11.426 16.844-4.843Zm0 0"/><path fill="#675862" d="m312.082 87.473 1.356-10.735 5.652 5.11Zm0 0"/><path fill="#f6b655" d="M350.2 44.406 318.983 60.06l-13.75-20.493Zm0 0"/><path fill="#f5b555" d="M329.836 71.82 318.984 60.06 350.2 44.406Zm0 0"/><path fill="#645762" d="m298.996 71.465-7.605 13.273-7.965-12.203Zm0 0"/><path fill="#953f43" d="m282.281 95.613 9.11-10.875 8.437 14.438Zm0 0"/><path fill="#f4b555" d="m272.383 61.188-23.559-3.872 3.606-20.882Zm0 0"/><path fill="#f4b556" d="m275.863 40.14-3.48 21.048-19.953-24.754Zm0 0"/><path fill="#f0b257" d="m283.09 53.563-10.707 7.624 3.48-21.046Zm0 0"/><path fill="#655863" d="m269.05 71.281 3.333-10.094 11.043 11.348Zm0 0"/><path fill="#575862" d="M272.383 61.188 269.05 71.28l-20.227-13.965Zm0 0"/><path fill="#635661" d="m272.383 61.188 14.46 3.492-3.417 7.855Zm0 0"/><path fill="#eeb157" d="m272.383 61.188 10.707-7.626 3.754 11.118Zm0 0"/><path fill="#993d41" d="m277.191 83.984 5.09 11.63-9.328-4.512Zm0 0"/><path fill="#983d41" d="m277.191 83.984 14.2.754-9.11 10.875Zm0 0"/><path fill="#665863" d="m291.39 84.738-14.199-.754 6.235-11.449Zm0 0"/><path fill="#645762" d="m286.844 64.68 12.152 6.785-15.57 1.07Zm0 0"/><path fill="#342b38" d="m183.762 52.887 13.633-.223-8.043 13.61Zm0 0"/><path fill="#302633" d="m197.395 52.664 2.5 9.305-10.543 4.304Zm0 0"/><path fill="#f4b556" d="m188.457 44.656 8.938 8.008-13.633.223Zm0 0"/><path fill="#f1b356" d="m197.395 52.664-8.938-8.008 13.523-15.554Zm0 0"/><path fill="#f2b456" d="m226.68 35.613 2.285-35.617 23.465 36.438Zm0 0"/><path fill="#f4b456" d="m226.68 35.613-24.7-6.511L228.965-.004Zm0 0"/><path fill="#f2b356" d="M275.863 40.14 279.093 0l26.141 39.566ZM384 0l-33.8 44.406L329.636 0Zm0 0"/><path fill="#f4b455" d="m286.844 64.68 17.219-2.102-5.067 8.887Zm0 0"/><path fill="#f5b655" d="m318.984 60.059-14.921 2.52 1.171-23.013Zm0 0"/><path fill="#f5b555" d="m384 85.21-33.8-40.804 33.8 2.285Zm0 0"/><path fill="#f7b655" d="m330.027 89.504-.191-17.684 21.898 14.106Zm0 0"/><path fill="#f6b655" d="m329.836 71.82 20.363-27.414 1.535 41.52Zm0 0"/><path fill="#f9b854" d="m300.555 114.148-6.54 5.907-3.32-14.82Zm0 0"/><path fill="#8d4549" d="m299.828 99.176.727 14.972-9.86-8.914Zm0 0"/><path fill="#993d41" d="m300.555 114.148-.727-14.972 19.488 20.18Zm0 0"/><path fill="#9d8171" d="m266.164 253.195-26.691 4.914 9.793-16.37Zm0 0"/><path fill="#f9b854" d="m253.828 279.168-14.355-21.059 26.691-4.914Zm0 0"/><path fill="#d2a05a" d="m239.473 258.11-6.953-1.512 16.746-14.86Zm0 0"/><path fill="#f2ae52" d="m190.203 291.117 30.324-2.847-3.054 11.84Zm0 0"/><path fill="#eea951" d="m220.527 288.27-30.324 2.847-6.012-15.012Zm0 0"/><path fill="#f4b052" d="m188.625 311.39-1.746-19.202 3.324-1.07Zm0 0"/><path fill="#9e4342" d="m190.203 291.117-3.324 1.07-2.688-16.082Zm0 0"/><path fill="#e9a350" d="m186.879 292.188-14.441 17.289-8.649-18.88Zm0 0"/><path fill="#e9a350" d="m172.438 309.477 14.44-17.29 1.747 19.204Zm0 0"/><path fill="#eba450" d="m186.879 292.188-23.09-1.59 20.402-14.493Zm0 0"/><path fill="#2e222f" d="m206.578 302.242-16.375-11.125 27.27 8.992ZM193.844 312.785l-5.219-1.394 1.578-20.274Zm0 0"/><path fill="#e8a250" d="m206.578 302.242-12.734 10.543-3.64-21.668Zm0 0"/><path fill="#2e222f" d="m193.844 312.785 12.734-10.543 3.692 6.383Zm0 0"/><path fill="#2e222f" d="m216.172 312.516-17.543 6.761 11.64-10.652ZM217.473 300.11l-1.301 12.406-5.902-3.891Zm0 0"/><path fill="#f6b453" d="m206.578 302.242 10.895-2.133-7.203 8.516Zm0 0"/><path fill="#fab854" d="m216.172 312.516 1.3-12.407 20.02 7.04Zm0 0"/><path fill="#2e222f" d="m191.29 328.324-.282 14.895-13.617-16.352Zm0 0"/><path fill="#fab854" d="m278.336 119.371 15.68.684-2.668 17.425Zm0 0"/><path fill="#f8b754" d="m202.934 106.8-7.098-14.316 12.273 5.098Zm0 0"/><path fill="#fab854" d="m202.934 106.8-15.512 3.079 5.45-9.7Zm0 0"/><path fill="#f9b854" d="m195.836 92.484 7.098 14.317-10.063-6.621Zm0 0"/><path fill="#fab854" d="m257.918 145.797 2.289-37.852 18.129 11.426Zm0 0"/><path fill="#f6b655" d="m351.734 85.926-1.535-41.52L384 85.211Zm0 0"/><path fill="#fab853" d="m318.95 139.96 12.597 20.935-20.52-15.762ZM304.684 166.418l26.863-5.523 2.543 22.964Zm0 0"/><path fill="#fab854" d="m331.547 160.895-26.863 5.523 6.343-21.285Zm0 0"/><path fill="#993d41" d="m330.457 129.816-11.14-10.46 12.464-3.63Zm0 0"/><path fill="#993d41" d="m319.316 119.355 11.141 10.461-11.508 10.145ZM349.633 131.395l-19.176-1.579 1.324-14.09Zm0 0"/><path fill="#fab854" d="m352.148 170.906-5.64-9.015 14.203-31.7ZM346.508 161.89l3.125-30.495 11.078-1.204Zm0 0"/><path fill="#fab854" d="m344.977 111.824 15.734 18.367-11.078 1.204ZM365.324 108.844l-4.613 21.347-15.734-18.367Zm0 0"/><path fill="#675863" d="m330.027 89.504-17.945-2.031 7.008-5.625Zm0 0"/><path fill="#924145" d="m331.781 115.727-19.699-28.254 17.945 2.03Zm0 0"/><path fill="#586068" d="m133.324 217.2-7.191-13.294 16.133 3.438Zm0 0"/><path fill="#f3b153" d="m126.133 203.906.996-19.781 15.137 23.219Zm0 0"/><path fill="#f7b453" d="m126.133 203.906-14.86-4.844 15.856-14.937Zm0 0"/><path fill="#5c6267" d="m126.133 203.906 7.191 13.293-24.375 7.496Zm0 0"/><path fill="#586068" d="m111.273 199.063 14.86 4.843-17.184 20.79Zm0 0"/><path fill="#596067" d="m111.273 199.063-13.437 4.718 4.242-10.035Zm0 0"/><path fill="#586068" d="m72.031 217.656 25.805-13.875 11.113 20.914Zm0 0"/><path fill="#586068" d="m97.836 203.781 13.437-4.719-2.324 25.633Zm0 0"/><path fill="#af5a45" d="m104.86 117.992 12.43 20.516-15.087-4.594Zm0 0"/><path fill="#9b4041" d="m117.29 138.508-13.95 6.625-1.137-11.219Zm0 0"/><path fill="#993d41" d="m103.34 145.133 13.95-6.625-6.192 10.316Zm0 0"/><path fill="#fab853" d="m117.29 138.508 7.464 6.25-13.656 4.066Zm0 0"/><path fill="#fab854" d="m71.418 157.219 10.86-5.723 2.562 12.102ZM70.52 144.992l11.757 6.504-10.859 5.723Zm0 0"/><path fill="#fab854" d="m83.086 147.402-.809 4.094-11.757-6.504Zm0 0"/><path fill="#f7b655" d="m66.453 111.723-34.363-3.664 38.203-24.082Zm0 0"/><path fill="#2e222f" d="m92.047 115.926-10.399-3.461 13.137-18.676ZM76.648 130.973l3.5-8.004 13.965 6.273Zm0 0"/><path fill="#2e222f" d="m80.148 122.969 11.899-7.043 2.066 13.316Zm0 0"/><path fill="#6c5f64" d="m57.25 364.941 46.668 19.055H32.52Zm0 0"/><path fill="#736264" d="m57.25 364.941-24.73 19.055 5.59-51.09Zm0 0"/><path fill="#555d66" d="m31.871 298.57 18.469 4.766-12.23 29.57Zm0 0"/><path fill="#c97e4d" d="m153.18 353.492 19.32-2.547 8.902 33.008Zm0 0"/><path fill="#eea952" d="m209.813 340.594-15.075 16.547-3.73-13.922Zm0 0"/><path fill="#993d41" d="m174.555 101.086-3.668-9.266 15.265 3.168Zm0 0"/><path fill="#f4b456" d="m130.867 66.598-18.87 10.78 7.331-35.37Zm0 0"/><path fill="#f4b555" d="m144.246 60.832-13.379 5.766-11.539-24.59Zm0 0"/><path fill="#2e222f" d="m130.867 66.598-4.199 30.222-14.672-19.441Zm0 0"/><path fill="#2f2431" d="m130.867 66.598 13.38-5.766 3.39 23.531Zm0 0"/><path fill="#2e222f" d="m126.668 96.82 4.2-30.222 16.769 17.765ZM107.664 90.926l-2.605 13.719-10.274-10.856Zm0 0"/><path fill="#2e222f" d="m105.059 104.645 2.605-13.72 19.004 5.895Zm0 0"/><path fill="#2e2330" d="m102.777 85.012 4.887 5.914-12.879 2.863Zm0 0"/><path fill="#2e222f" d="m111.996 77.379-4.332 13.547-4.887-5.914Zm0 0"/><path fill="#2e222f" d="m126.668 96.82-19.004-5.894 4.332-13.547Zm0 0"/><path fill="#f6b655" d="m.004 59.488 41.871 6.399-9.785 42.172Zm0 0"/><path fill="#efb257" d="M34.293 34.262.003 59.488 0 0Zm0 0"/><path fill="#f2b456" d="m.004 59.488 34.289-25.226 7.582 31.625Zm0 0"/><path fill="#f2b356" d="m188.457 44.656-23.27-14.894 36.793-.66Zm0 0"/><path fill="#f5b555" d="m305.234 39.566-18.39 25.114-3.754-11.118Zm0 0"/><path fill="#f4b555" d="M305.234 39.566 283.09 53.562l-7.227-13.421Zm0 0"/><path fill="#f5b555" d="m305.234 39.566-1.171 23.012-17.22 2.102Zm0 0"/><path fill="#f3b456" d="m226.68 35.613.328 17.73-13.528-8.156Zm0 0"/><path fill="#f1b356" d="m227.008 53.344-.328-17.73 12.289 12.421Zm0 0"/><path fill="#f3b456" d="m226.68 35.613 25.75.82-13.461 11.602ZM350.2 44.406l-44.966-4.84L329.637 0Zm0 0"/><path fill="#f6b655" d="m318.984 60.059 10.852 11.761-16.399 4.918Zm0 0"/><path fill="#f1b355" d="m313.438 76.738 16.398-4.918-10.746 10.028Zm0 0"/><path fill="#f2b355" d="m329.836 71.82.191 17.684-10.937-7.656Zm0 0"/><path fill="#665863" d="m312.082 87.473-20.691-2.735 7.605-13.273Zm0 0"/><path fill="#8a464b" d="m291.39 84.738 20.692 2.735-12.254 11.703Zm0 0"/><path fill="#fab854" d="m309.664 127.945-18.316 9.535 2.668-17.425Zm0 0"/><path fill="#f9b854" d="m300.555 114.148 9.11 13.797-15.65-7.89Zm0 0"/><path fill="#fab854" d="m291.348 137.48 18.316-9.535 1.363 17.188Zm0 0"/><path fill="#983d41" d="m319.316 119.355-9.652 8.59-9.11-13.797Zm0 0"/><path fill="#fab853" d="m309.664 127.945 9.285 12.016-7.922 5.172Zm0 0"/><path fill="#993d41" d="m309.664 127.945 9.652-8.59-.367 20.606Zm0 0"/><path fill="#c77d4d" d="m155.32 318.695 17.18 32.25-19.32 2.547Zm0 0"/><path fill="#dc934e" d="m172.438 309.477-17.118 9.218 8.47-28.097Zm0 0"/><path fill="#c27d50" d="m132.336 311.14 22.984 7.555-2.14 34.797Zm0 0"/><path fill="#de964f" d="m163.79 290.598-8.47 28.097-19.437-19.722Zm0 0"/><path fill="#db9550" d="m155.32 318.695-22.984-7.554 3.547-12.168Zm0 0"/><path fill="#fab854" d="m220.527 288.27 33.301-9.102-16.336 27.98Zm0 0"/><path fill="#fab854" d="m217.473 300.11 3.054-11.84 16.965 18.878Zm0 0"/><path fill="#e8a150" d="m177.39 326.867-4.952-17.39 16.187 1.914Zm0 0"/><path fill="#e69f50" d="m193.844 312.785-16.453 14.082 11.234-15.476Zm0 0"/><path fill="#e09950" d="m191.29 328.324 2.554-15.539 4.785 6.492Zm0 0"/><path fill="#2e222f" d="m198.629 319.277-4.785-6.492 16.426-4.16Zm0 0"/><path fill="#e8a351" d="m177.39 326.867 16.454-14.082-2.555 15.54Zm0 0"/><path fill="#fab854" d="m202.934 106.8 3.472 44.876-18.984-41.797Zm0 0"/><path fill="#fab854" d="m229.754 111.066-26.82-4.265 5.175-9.219Zm0 0"/><path fill="#f9b854" d="m229.043 80.785.71 30.281-21.644-13.484Zm0 0"/><path fill="#fab854" d="m244.387 91.535-14.633 19.531-.711-30.28Zm0 0"/><path fill="#fab853" d="m331.547 160.895 14.96.996 5.641 9.015ZM331.547 160.895l20.601 10.011-18.058 12.953Zm0 0"/><path fill="#993d41" d="m335.355 143.426-4.898-13.61 19.176 1.579Zm0 0"/><path fill="#993d41" d="m346.508 161.89-11.153-18.464 14.278-12.031Zm0 0"/><path fill="#993d41" d="m330.457 129.816 4.898 13.61-16.406-3.465Zm0 0"/><path fill="#993d41" d="m331.547 160.895 3.808-17.47 11.153 18.466Zm0 0"/><path fill="#993d41" d="m335.355 143.426-3.808 17.469-12.598-20.934Zm0 0"/><path fill="#9c4242" d="m103.34 145.133-13.219 8.926 1.707-14.891Zm0 0"/><path fill="#2e222f" d="m90.121 154.059-7.035-6.657 8.742-8.234ZM90.121 154.059l-7.844-2.563.809-4.094Zm0 0"/><path fill="#993e41" d="m90.121 154.059 13.219-8.926 1.433 14.73Zm0 0"/><path fill="#fab853" d="m90.121 154.059 14.652 5.804-19.933 3.735Zm0 0"/><path fill="#fab854" d="m82.277 151.496 7.844 2.563-5.281 9.539Zm0 0"/><path fill="#f8b754" d="m72.621 107.23-6.168 4.493 3.84-27.746Zm0 0"/><path fill="#f9b854" d="m73.57 121.465-11.433 7.203 4.316-16.945ZM62.137 128.668l11.433-7.203 3.078 9.508Zm0 0"/><path fill="#f9b754" d="m73.57 121.465 6.578 1.504-3.5 8.004ZM72.621 107.23l9.027 5.235-15.195-.742ZM81.648 112.465l-8.078 9-7.117-9.742Zm0 0"/><path fill="#f9b854" d="m73.57 121.465 8.078-9-1.5 10.504Zm0 0"/><path fill="#2e222f" d="m80.148 122.969 1.5-10.504 10.399 3.46ZM216.172 312.516l-2.113 15.453-15.43-8.692Zm0 0"/><path fill="#f4b153" d="m223.102 332.195 30.375 22.758-34.485 11.645Zm0 0"/><path fill="#eba752" d="m209.813 340.594 9.18 26.004-24.255-9.457Zm0 0"/><path fill="#fab854" d="m174.555 101.086 12.867 8.793-15.887 9.531ZM171.535 119.41l15.887-9.531 18.984 41.797Zm0 0"/><path fill="#f8b754" d="m192.871 100.18-5.45 9.699-1.269-14.89Zm0 0"/><path fill="#fab854" d="m187.422 109.879-12.867-8.793 11.597-6.098Zm0 0"/><path fill="#fab853" d="m117.29 138.508 9.331-5.664-1.867 11.914Zm0 0"/><path fill="#9a3e41" d="m170.887 91.82-7.711 13.985-15.54-21.442Zm0 0"/><path fill="#993d41" d="m174.555 101.086-11.38 4.719 7.712-13.985Zm0 0"/><path fill="#fab854" d="m163.176 105.805 11.379-4.72-3.02 18.325Zm0 0"/><path fill="#fab854" d="m152.934 114.887 10.242-9.082 8.36 13.605ZM206.406 151.676l-55.918-8.067 21.047-24.199Zm0 0"/><path fill="#fab854" d="m150.488 143.61 2.446-28.723 18.601 4.523Zm0 0"/><path fill="#fab854" d="m152.668 175.168-2.18-31.559 55.918 8.067Zm0 0"/><path fill="#e1994f" d="m177.39 326.867-4.105-.293-.847-17.097Zm0 0"/><path fill="#cb7d4b" d="m172.5 350.945.785-24.37 4.106.292Zm0 0"/><path fill="#c6774a" d="m155.32 318.695 17.965 7.88-.785 24.37Zm0 0"/><path fill="#de954f" d="m173.285 326.574-17.965-7.879 17.118-9.218Zm0 0"/><path fill="#fab854" d="m206.406 151.676 23.348-40.61 28.164 34.73ZM229.754 111.066l-23.348 40.61-3.472-44.875Zm0 0"/><path fill="#fab854" d="m257.918 145.797-28.164-34.73 30.453-3.122Zm0 0"/><path fill="#fab854" d="m229.754 111.066 14.633-19.53 15.82 16.41Zm0 0"/><path fill="#f5b555" d="m70.293 83.977 22.809.738 1.683 9.074Zm0 0"/><path fill="#f9b854" d="M81.648 112.465 70.293 83.977l24.492 9.812Zm0 0"/><path fill="#f8b754" d="m72.621 107.23-2.328-23.253 11.355 28.488Zm0 0"/><path fill="#f6b655" d="m93.102 84.715-22.809-.738 24.348-11.442Zm0 0"/><path fill="#2e222f" d="m214.059 327.969-12.754 3.851-2.676-12.543ZM201.305 331.82l12.754-3.851-4.246 12.625ZM201.305 331.82l8.507 8.774-18.804 2.625Zm0 0"/><path fill="#2e222f" d="m191.29 328.324 10.015 3.496-10.297 11.399Zm0 0"/><path fill="#2f2431" d="m201.305 331.82-10.016-3.496 7.34-9.047Zm0 0"/><path fill="#e8a452" d="m214.059 327.969 9.043 4.226-13.29 8.399Zm0 0"/><path fill="#e9a552" d="m223.102 332.195-4.11 34.403-9.18-26.004Zm0 0"/><path fill="#fab853" d="m150.488 143.61-14.402-19.77 16.848-8.953Zm0 0"/><path fill="#fab854" d="m150.488 143.61 2.18 31.558-24.934-12.11Zm0 0"/><path fill="#fab854" d="m124.754 144.758 25.734-1.149-22.754 19.45ZM126.621 132.844l23.867 10.765-25.734 1.149Zm0 0"/><path fill="#fab854" d="m136.086 123.84 14.402 19.77-23.867-10.766Zm0 0"/><path fill="#f4b555" d="m304.063 62.578 9.375 14.16-14.442-5.273Zm0 0"/><path fill="#564955" d="m313.438 76.738-1.356 10.735-13.086-16.008Zm0 0"/><path fill="#f5b555" d="m318.984 60.059-5.546 16.68-9.375-14.16Zm0 0"/><path fill="#f7b453" d="m237.492 307.148-14.39 25.047-1.297-16.164Zm0 0"/><path fill="#f7b453" d="m253.477 354.953-30.375-22.758 14.39-25.047Zm0 0"/><path fill="#e29b4f" d="m223.102 332.195-6.93-19.68 5.633 3.516Zm0 0"/><path fill="#d1864d" d="m223.102 332.195-9.043-4.226 2.113-15.453Zm0 0"/><path fill="#9e4442" d="m136.086 123.84-14.637-1.09 5.219-25.93Zm0 0"/><path fill="#9e4341" d="m121.45 122.75 14.636 1.09-9.465 9.004Zm0 0"/><path fill="#9a3e41" d="m121.45 122.75 5.171 10.094-9.332 5.664Zm0 0"/><path fill="#975c50" d="m121.45 122.75-16.59-4.758 21.808-21.172Zm0 0"/><path fill="#9a3e41" d="m121.45 122.75-4.16 15.758-12.43-20.516Zm0 0"/><path fill="#993d41" d="m144.684 105.152 18.492.653-10.242 9.082Zm0 0"/><path fill="#9a3e41" d="m136.086 123.84 8.598-18.688 8.25 9.735Zm0 0"/><path fill="#bf6f49" d="m144.684 105.152-18.016-8.332 20.969-12.457Zm0 0"/><path fill="#a95244" d="m163.176 105.805-18.492-.653 2.953-20.789Zm0 0"/><path fill="#9f4542" d="m144.684 105.152-8.598 18.688-9.418-27.02Zm0 0"/></svg>