<svg xmlns="http://www.w3.org/2000/svg" width="512" height="512" viewBox="0 0 384 384"><path fill="#7f3770" d="m81.195 252.238-34.851 12.457 18.129-49.789Zm0 0"/><path fill="#762c78" d="m46.344 264.695-24.973-1.703 43.102-48.086Zm0 0"/><path fill="#874269" d="m68.512 184.18 17.863 8.097-21.902 22.63Zm0 0"/><path fill="#73277a" d="m177.57 267.445-36.855-20.816 17.207-16.305Zm0 0"/><path fill="#ffe663" d="m277.605 153.164.457 46.453-34.917-44.762Zm0 0"/><path fill="#fedb1b" d="m148.336 198.402-13.559-11.164 49.883.989Zm0 0"/><path fill="#803870" d="m114.363 227.73-7.93 38.48-25.238-13.972Zm0 0"/><path fill="#843e6c" d="m106.434 266.21 7.93-38.48 26.35 18.899Zm0 0"/><path fill="#dba91f" d="m384 260.504-.004 73.039-18.414-66.941Zm0 0"/><path fill="#f2c610" d="M323.844 351.844 317.516 384l-46.989-21.898Zm0 0"/><path fill="#f8c42a" d="M72.508 41.238 42.563 86.137l-7.399-51.965Zm0 0"/><path fill="#782e76" d="m21.371 262.992 18.613-64.816 24.489 16.73Zm0 0"/><path fill="#8b4666" d="m61.984 282.777-15.64-18.082 34.851-12.457Zm0 0"/><path fill="#752b79" d="m19.5 176.3 20.484 21.876L0 198.438Zm0 0"/><path fill="#fede31" d="m47.379 174.086 1.223-17.016 19.91 27.11Zm0 0"/><path fill="#fdda4c" d="m204.422 27.68 10.25 15.183-19.067 8.598Zm0 0"/><path fill="#fedb1d" d="m323.559 184.453-28.957 37.625-16.54-22.46Zm0 0"/><path fill="#fedc26" d="m323.559 184.453 7.89 24.692-36.847 12.933Zm0 0"/><path fill="#feda18" d="m331.45 209.145-7.891-24.692 30.914.445Zm0 0"/><path fill="#fede30" d="m206.371 159.508 10.504 36.46-32.215-7.741Zm0 0"/><path fill="#fee247" d="m216.875 195.969-10.504-36.461 71.691 40.11Zm0 0"/><path fill="#5b0a90" d="m85.172 138.332-9.2-5.46 13.77-3.333Zm0 0"/><path fill="#c20922" d="m98.54 143.055-13.368-4.723 4.57-8.793Zm0 0"/><path fill="#ad7147" d="m70.95 309.688 2.616 31.804-25.902-12.027Zm0 0"/><path fill="#c48e33" d="m70.95 309.688-8.966-26.91 16.48 11.82Zm0 0"/><path fill="#95535d" d="M36.066 355.871-.03 308.805l29.285 14.5Zm0 0"/><path fill="#ba813c" d="m29.254 323.305 11.129-12.953 7.281 19.113Zm0 0"/><path fill="#daa327" d="m158.078 358.488 22.356 25.504-68.25.008Zm0 0"/><path fill="#803870" d="m106.434 266.21-20.739 7.368-4.5-21.34Zm0 0"/><path fill="#d8a721" d="m61.984 282.777 23.711-9.199-7.23 21.02Zm0 0"/><path fill="#894368" d="m85.695 273.578-23.71 9.2 19.21-30.54Zm0 0"/><path fill="#813a6e" d="m89.578 217.352 24.785 10.378-33.168 24.508Zm0 0"/><path fill="#7f3870" d="m89.578 217.352-8.383 34.886-16.722-37.332Zm0 0"/><path fill="#80396f" d="m86.375 192.277 3.203 25.075-25.105-2.446Zm0 0"/><path fill="#8d4661" d="m383.996 216.973.004 43.53-27.273-19.3Zm0 0"/><path fill="#97545a" d="m384 260.504-18.418 6.098-8.855-25.399Zm0 0"/><path fill="#e0aa16" d="m383.996 333.543-60.152 18.3 41.738-85.241Zm0 0"/><path fill="#f2c612" d="m317.516 384-50.832.023 3.843-21.921Zm0 0"/><path fill="#fcd511" d="m270.527 362.102.399-54.008 52.918 43.75Zm0 0"/><path fill="#f7cd0e" d="m270.926 308.094 47.586-16.723 5.332 60.473Zm0 0"/><path fill="#f8d01b" d="m100.547 73.504-1.742 13.633-15.293-14.961Zm0 0"/><path fill="#e7ba14" d="m0 60.387 42.563 25.75L0 96.18Zm0 0"/><path fill="#f3c546" d="M111.332.004 72.508 41.238 54.375 0Zm0 0"/><path fill="#f8cb3b" d="M72.508 41.238 111.332.004l-.648 48.266Zm0 0"/><path fill="#f9ce38" d="M83.512 72.176 72.508 41.238l38.176 7.032Zm0 0"/><path fill="#f8cc33" d="m100.547 73.504-17.035-1.328 27.172-23.906Zm0 0"/><path fill="#f6c635" d="m72.508 41.238 11.004 30.938-40.95 13.96Zm0 0"/><path fill="#752a79" d="M-.031 308.805 0 198.438l21.371 64.554Zm0 0"/><path fill="#71267c" d="m0 198.438 39.984-.262-18.613 64.816Zm0 0"/><path fill="#fedf44" d="m0 96.18 25.91 33.703-25.906-.672Zm0 0"/><path fill="#fbd833" d="M25.91 129.883 0 96.18l42.563-10.043Zm0 0"/><path fill="#fede3c" d="m0 156.441.004-27.23 25.906.672Zm0 0"/><path fill="#fede2e" d="m48.602 157.07-24.692 3.594 2-30.781Zm0 0"/><path fill="#fedd29" d="m23.91 160.664 24.692-3.594L35.96 170.7Zm0 0"/><path fill="#793178" d="m19.5 176.3 4.41-15.636L35.96 170.7Zm0 0"/><path fill="#fedf39" d="M23.91 160.664 0 156.441l25.91-26.558Zm0 0"/><path fill="#803971" d="m23.91 160.664-4.41 15.637L0 156.44Zm0 0"/><path fill="#fede2e" d="m55.781 127.195-7.18 29.875-22.69-27.187Zm0 0"/><path fill="#782f76" d="M19.5 176.3 0 198.438v-41.996Zm0 0"/><path fill="#7a3176" d="M39.984 198.176 19.5 176.3l16.46-5.602Zm0 0"/><path fill="#823b6f" d="m47.379 174.086-7.395 24.09-4.023-27.477Zm0 0"/><path fill="#7f3771" d="m39.984 198.176 28.528-13.996-4.04 30.726Zm0 0"/><path fill="#884268" d="m39.984 198.176 7.395-24.09 21.133 10.094Zm0 0"/><path fill="#fede2d" d="m48.602 157.07-1.223 17.016-11.418-3.387Zm0 0"/><path fill="#fbd64b" d="M234.04 27.043 270.315.003l-4.812 35.298Zm0 0"/><path fill="#fbd941" d="m270.316.004 31.457 39.723-36.27-4.426Zm0 0"/><path fill="#fcd73c" d="m234.04 27.043 31.464 8.258-17.652 9.324Zm0 0"/><path fill="#fef4c2" d="m278.305 92.52-4.977 6.753-8.637-11.835Zm0 0"/><path fill="#fcda56" d="m214.672 42.863-3.934 10.907-15.133-2.31Zm0 0"/><path fill="#fdda37" d="m247.852 44.625 2.078 11.406-10.895.547Zm0 0"/><path fill="#feec89" d="m250.578 108.57-14.113-14.86 14.222-6.003Zm0 0"/><path fill="#5b0a90" d="m249.93 56.031-3.407 19.88-7.488-19.333ZM239.035 56.578l-6.144 14.649-6.528-9.883Zm0 0"/><path fill="#5b0a90" d="m246.523 75.91-13.632-4.683 6.144-14.649Zm0 0"/><path fill="#fdda38" d="m321.324 62.54 23.13-19.356 4.878 29.293Zm0 0"/><path fill="#fed80b" d="m294.602 222.078-40.239 8.777 23.7-31.238Zm0 0"/><path fill="#fedb1d" d="m311.77 155.367 11.789 29.086-45.497 15.164Zm0 0"/><path fill="#feef9f" d="m277.605 153.164 34.165 2.203-33.707 44.25Zm0 0"/><path fill="#efc413" d="m231.54 263.441-49.27 12.895-4.7-8.89Zm0 0"/><path fill="#fed707" d="m198.023 343.582-14.695 6.773.18-17.882Zm0 0"/><path fill="#feda14" d="m233.18 314.621 1.328-17.484 36.418 10.957Zm0 0"/><path fill="#fedc23" d="m149.785 212.598-1.45-14.196 36.325-10.175Zm0 0"/><path fill="#aa6a46" d="m157.922 230.324 36.07 5.637-16.422 31.484Zm0 0"/><path fill="#924e5d" d="m216.695 246.895 14.844 16.546-53.969 4.004Zm0 0"/><path fill="#9c5a56" d="m193.992 235.96 22.703 10.935-39.125 20.55Zm0 0"/><path fill="#fedf37" d="m216.875 195.969-17.723 20.93-14.492-28.672Zm0 0"/><path fill="#ffe144" d="m278.063 199.617-71.692-40.11 36.774-4.652Zm0 0"/><path fill="#fddd3d" d="M342.875 106.137 330.539 90.82l20.645 4.368Zm0 0"/><path fill="#fee03b" d="m87.328 174.348 16.52-3.082-7.723 20.285Zm0 0"/><path fill="#fde149" d="m86.375 192.277.953-17.93 8.797 17.204Zm0 0"/><path fill="#fede32" d="m68.215 144.316 6.48 16.008-26.093-3.254Zm0 0"/><path fill="#fede33" d="M68.215 144.316 48.602 157.07l7.18-29.875Zm0 0"/><path fill="#fede30" d="m74.695 160.324-2.61 19.485-23.483-22.739Zm0 0"/><path fill="#813a73" d="m72.086 179.809 14.289 12.468-17.863-8.097Zm0 0"/><path fill="#fedd2d" d="m48.602 157.07 23.484 22.739-3.574 4.37Zm0 0"/><path fill="#fede2f" d="m87.328 174.348-15.242 5.46 2.61-19.484Zm0 0"/><path fill="#fede37" d="m72.086 179.809 15.242-5.461-.953 17.93Zm0 0"/><path fill="#5c098e" d="m100.797 120.395 6.504-18.899 9.187 5.637Zm0 0"/><path fill="#c7061e" d="m100.797 120.395-2.258 22.66-8.797-13.516Zm0 0"/><path fill="#5b0a90" d="m91.441 115.27-.332-17.18 16.192 3.406ZM91.441 115.27l9.356 5.125-11.055 9.144Zm0 0"/><path fill="#5b0a90" d="m100.797 120.395-9.356-5.125 15.86-13.774Zm0 0"/><path fill="#a96c4b" d="m52.672 305.098 18.277 4.59-23.285 19.777Zm0 0"/><path fill="#c9942f" d="m70.95 309.688-18.278-4.59 9.312-22.32Zm0 0"/><path fill="#b37842" d="m40.383 310.352 12.289-5.254-5.008 24.367Zm0 0"/><path fill="#b07545" d="m100.547 301.324-29.598 8.363 7.516-15.09Zm0 0"/><path fill="#823b6e" d="m36.066 355.871-6.246 28.125L-.008 384Zm0 0"/><path fill="#be8539" d="m90.902 330.992 26.336-.394L112.184 384Zm0 0"/><path fill="#be8638" d="m73.566 341.492 17.336-10.5L112.184 384Zm0 0"/><path fill="#a5674f" d="m70.95 309.688 19.952 21.304-17.336 10.5Zm0 0"/><path fill="#bc843a" d="m90.902 330.992 9.645-29.668 16.691 29.274Zm0 0"/><path fill="#9f5f54" d="m100.547 301.324-9.645 29.668-19.953-21.305Zm0 0"/><path fill="#a96c4b" d="m73.566 341.492-37.5 14.38 11.598-26.407Zm0 0"/><path fill="#94515e" d="m29.254 323.305 18.41 6.16-11.598 26.406Zm0 0"/><path fill="#853f6b" d="m21.371 262.992 7.64 39.86-29.042 5.953Zm0 0"/><path fill="#dba925" d="m117.238 330.598 40.84 27.89L112.184 384Zm0 0"/><path fill="#fdd50e" d="m162.188 288.715 2.03 27.183-35.07-8.445Zm0 0"/><path fill="#f9cf0a" d="m162.188 288.715 15.382-21.27 4.7 8.89Zm0 0"/><path fill="#efc01a" d="m178.66 360.242 28.223 5.418-26.45 18.332Zm0 0"/><path fill="#d9a821" d="m100.547 301.324-14.852-27.746 20.739-7.367Zm0 0"/><path fill="#d5a324" d="m85.695 273.578 14.852 27.746-22.082-6.726Zm0 0"/><path fill="#965568" d="m94.477 197.05-8.102-4.773 9.75-.726Zm0 0"/><path fill="#833d6d" d="m94.477 197.05-4.899 20.302-3.203-25.075Zm0 0"/><path fill="#feda28" d="m362.465 210.523 21.543-32.23-.012 38.68Zm0 0"/><path fill="#995357" d="m362.465 210.523 21.531 6.45-27.27 24.23Zm0 0"/><path fill="#ae653e" d="m331.45 209.145 31.015 1.378-5.738 30.68Zm0 0"/><path fill="#fedb24" d="m362.465 210.523-31.016-1.378 23.024-24.247Zm0 0"/><path fill="#fedb27" d="m384.008 178.293-21.543 32.23-7.992-25.625Zm0 0"/><path fill="#d59f20" d="m317.516 384 6.328-32.156 60.148 32.16Zm0 0"/><path fill="#f0c212" d="m323.844 351.844-5.332-60.473 47.07-24.77Zm0 0"/><path fill="#fed913" d="m280.602 259.57 37.91 31.801-47.586 16.723Zm0 0"/><path fill="#b97f3f" d="m280.602 259.57-26.239-28.715 40.239-8.777Zm0 0"/><path fill="#f7d867" d="M154.297 35.68 111.332.004l65.477-.016Zm0 0"/><path fill="#f7cb43" d="m111.332.004 42.965 35.676-43.613 12.59Zm0 0"/><path fill="#f8ca41" d="m153.39 57.152-42.706-8.882 43.613-12.59Zm0 0"/><path fill="#f5cd34" d="m114.676 76.02-14.13-2.516 10.138-25.234Zm0 0"/><path fill="#f6ce23" d="m100.547 73.504 14.129 2.516-15.871 11.117Zm0 0"/><path fill="#f2be3d" d="m0 60.387 35.164-26.215 7.398 51.965Zm0 0"/><path fill="#f7c43f" d="M35.164 34.172 54.375 0l18.133 41.238Zm0 0"/><path fill="#fad55f" d="m183.281 34.656-28.984 1.024L176.809-.012Zm0 0"/><path fill="#600982" d="m232.89 71.227-17.21 1.718 10.683-11.601Zm0 0"/><path fill="#7e0025" d="m215.68 72.945 17.21-1.718-11.417 12.503Zm0 0"/><path fill="#5b0a90" d="m215.68 72.945-4.942-19.175 15.625 7.574Zm0 0"/><path fill="#5d0a8a" d="m210.738 53.77 4.942 19.175-13.106.258Zm0 0"/><path fill="#feef9d" d="m196.004 92.781-7.086 22.293-8.938-17.105Zm0 0"/><path fill="#fef3bb" d="m250.688 87.707 6.574-6.562 7.43 6.293Zm0 0"/><path fill="#830221" d="m257.262 81.145 12.547-.805-5.118 7.097Zm0 0"/><path fill="#60118d" d="m210.738 53.77 17.164-2.012-1.539 9.586Zm0 0"/><path fill="#fcd94f" d="m227.902 51.758-17.164 2.012 3.934-10.907Zm0 0"/><path fill="#5f0f8e" d="m227.902 51.758 11.133 4.82-12.672 4.766Zm0 0"/><path fill="#fdd837" d="m227.902 51.758 19.95-7.133-8.817 11.953Zm0 0"/><path fill="#5b0a90" d="m210.738 53.77-18.633 10.41 3.5-12.72Zm0 0"/><path fill="#5d0988" d="m192.105 64.18 18.633-10.41-8.164 19.433Zm0 0"/><path fill="#f9d84c" d="M234.04 27.043 220.495-.007l49.82.01Zm0 0"/><path fill="#f9d760" d="m176.809-.012 43.687.004-16.074 27.688Zm0 0"/><path fill="#fef4c0" d="m246.523 75.91 10.739 5.235-6.574 6.562Zm0 0"/><path fill="#5b0a90" d="m261.648 71.027-15.125 4.883 3.407-19.879Zm0 0"/><path fill="#7f0020" d="m261.648 71.027-4.386 10.118-10.739-5.235Zm0 0"/><path fill="#7e0026" d="m269.809 80.34-8.16-9.313 15.933.989Zm0 0"/><path fill="#800020" d="m261.648 71.027 8.16 9.313-12.546.805Zm0 0"/><path fill="#feefa4" d="m237.61 80.23 8.913-4.32 4.165 11.797Zm0 0"/><path fill="#7d0129" d="m237.61 80.23-4.72-9.003 13.633 4.683Zm0 0"/><path fill="#77033a" d="m232.89 71.227 4.72 9.003-16.137 3.5Zm0 0"/><path fill="#feef9a" d="m236.465 93.71 1.144-13.48 13.078 7.477Zm0 0"/><path fill="#feef9e" d="m237.61 80.23-1.145 13.48-14.992-9.98Zm0 0"/><path fill="#f8d138" d="M301.773 39.727 270.316.004 325.414 0Zm0 0"/><path fill="#fef7d2" d="m284.816 99.695 11.594 10.684-12.289 1.367Zm0 0"/><path fill="#830221" d="m284.816 99.695-6.511-7.175 10.382.94Zm0 0"/><path fill="#fef3b5" d="m284.816 99.695-11.488-.422 4.977-6.753Zm0 0"/><path fill="#fef8d3" d="m275.648 107.316 9.168-7.62-.695 12.05Zm0 0"/><path fill="#fef6ca" d="m284.816 99.695-9.168 7.621-2.32-8.043Zm0 0"/><path fill="#fde567" d="m303.688 117.695-6.028 12.09-1.25-19.406Zm0 0"/><path fill="#810020" d="m309.148 126.246-5.46-8.55L317 115.882Zm0 0"/><path fill="#fddd32" d="m245.043 218.492 9.32 12.363-14.605 6.875Zm0 0"/><path fill="#fee979" d="m254.363 230.855-9.32-12.363 33.02-18.875Zm0 0"/><path fill="#fee457" d="m245.043 218.492-28.168-22.523 61.188 3.648Zm0 0"/><path fill="#fee249" d="m216.875 195.969 28.168 22.523-27.055.371Zm0 0"/><path fill="#fee34d" d="m245.043 218.492-5.285 19.238-21.77-18.867Zm0 0"/><path fill="#a26459" d="m280.602 259.57-34.036 4.543 7.797-33.258Zm0 0"/><path fill="#fed914" d="m246.566 264.113 34.036-4.543-9.676 48.524Zm0 0"/><path fill="#a7674a" d="m231.54 263.441-14.845-16.546 23.063-9.165Zm0 0"/><path fill="#fedb20" d="m366.992 163.094 17.016 15.199-29.535 6.605Zm0 0"/><path fill="#fede2d" d="m311.77 155.367-34.165-2.203 20.055-23.379Zm0 0"/><path fill="#71267e" d="m220.777 288.21-3.25-2.093 14.012-22.676Zm0 0"/><path fill="#f2c814" d="m217.527 286.117-35.257-9.781 49.27-12.895Zm0 0"/><path fill="#fbd514" d="m218.273 301.8 16.235-4.663-1.328 17.484Zm0 0"/><path fill="#fed913" d="m234.508 297.137 12.058-33.024 24.36 43.98Zm0 0"/><path fill="#fdd918" d="m246.566 264.113-12.058 33.024-13.73-8.926Zm0 0"/><path fill="#995456" d="m213.598 227.219 3.097 19.676-22.703-10.934Zm0 0"/><path fill="#9d5855" d="m216.695 246.895-3.097-19.676 26.16 10.511Zm0 0"/><path fill="#fee047" d="m239.758 237.73-26.16-10.511 4.39-8.356Zm0 0"/><path fill="#fff7d1" d="m276.09 119.508 1.515 33.656-27.027-44.594Zm0 0"/><path fill="#fef9d8" d="m275.648 107.316.442 12.192-25.512-10.938Zm0 0"/><path fill="#fef8d5" d="m276.09 119.508-.442-12.192 8.473 4.43Zm0 0"/><path fill="#fee03a" d="m199.152 216.898 17.723-20.93 1.113 22.895Zm0 0"/><path fill="#fee041" d="m213.598 227.219-14.446-10.32 18.836 1.964Zm0 0"/><path fill="#9b5457" d="m199.152 216.898 14.446 10.32-19.606 8.743Zm0 0"/><path fill="#fedc20" d="m177.93 215.031-28.145-2.433 34.875-24.371Zm0 0"/><path fill="#fede32" d="m199.152 216.898-21.222-1.867 6.73-26.804Zm0 0"/><path fill="#a55142" d="m177.93 215.031-20.008 15.293-8.137-17.726Zm0 0"/><path fill="#944c59" d="m157.922 230.324 20.008-15.293 16.062 20.93Zm0 0"/><path fill="#8f3c56" d="m177.93 215.031 21.222 1.867-5.16 19.063Zm0 0"/><path fill="#fee143" d="m384 103.328.008 74.965-17.016-15.2Zm0 0"/><path fill="#fee24b" d="M355.395 108.535 384 103.328l-23.953 18.387Zm0 0"/><path fill="#fedf38" d="m384 103.328-28.605 5.207-4.211-13.347Zm0 0"/><path fill="#fedf35" d="m355.395 108.535-12.52-2.398 8.309-10.95Zm0 0"/><path fill="#800020" d="m342.875 106.137-13.71 4.136 1.374-19.453Zm0 0"/><path fill="#800020" d="m329.164 110.273 13.711-4.136 4.691 12.27ZM329.164 110.273l2.387 17.88L317 115.882Zm0 0"/><path fill="#800020" d="m331.55 128.152-2.386-17.879 18.402 8.133Zm0 0"/><path fill="#feea7c" d="m106.027 159.16 15.391 5.04-17.57 7.066Zm0 0"/><path fill="#feed94" d="m121.418 164.2-15.39-5.04 6.085-12.031Zm0 0"/><path fill="#feea83" d="m90.332 156.48 15.695 2.68-2.18 12.106Zm0 0"/><path fill="#fedc24" d="m90.332 156.48-3.004 17.868-12.633-14.024Zm0 0"/><path fill="#fedf35" d="m87.328 174.348 3.004-17.868 13.516 14.786Zm0 0"/><path fill="#fee145" d="m149.785 212.598-6.98-11.66 5.53-2.536Zm0 0"/><path fill="#fef1b0" d="m142.805 200.938 6.98 11.66-16.2-5.739Zm0 0"/><path fill="#feee98" d="m142.805 200.938-9.22 5.921 1.192-19.62Zm0 0"/><path fill="#fedd28" d="m142.805 200.938-8.028-13.7 13.559 11.164Zm0 0"/><path fill="#81356b" d="m149.785 212.598-11.289 12.691-4.91-18.43Zm0 0"/><path fill="#863f6a" d="m114.363 227.73 24.133-2.44 2.219 21.339Zm0 0"/><path fill="#792e73" d="m140.715 246.629-2.219-21.34 19.426 5.035Zm0 0"/><path fill="#7f336b" d="m138.496 225.29 11.29-12.692 8.136 17.726Zm0 0"/><path fill="#feed92" d="m134.777 187.238-19.004-2.578 5.645-20.46Zm0 0"/><path fill="#fee249" d="m103.848 171.266 11.925 13.394-19.648 6.89Zm0 0"/><path fill="#feed90" d="m115.773 184.66-11.925-13.394 17.57-7.067Zm0 0"/><path fill="#feeb87" d="m120.164 200.883-4.39-16.223 19.003 2.578Zm0 0"/><path fill="#fedb1a" d="m123.457 145.59-2.039 18.61-9.305-17.071Zm0 0"/><path fill="#fedb1b" d="m134.777 187.238 46.95-32.886 2.933 33.875Zm0 0"/><path fill="#fede2f" d="m181.727 154.352 24.644 5.156-21.71 28.719Zm0 0"/><path fill="#5c0b90" d="m85.172 138.332-3.594 7.164-5.605-12.625Zm0 0"/><path fill="#fedf39" d="m81.578 145.496-13.363-1.18 7.758-11.445Zm0 0"/><path fill="#5f0982" d="m90.332 156.48 8.207-13.425 7.488 16.105Zm0 0"/><path fill="#78033a" d="m106.027 159.16-7.488-16.105 13.574 4.074Zm0 0"/><path fill="#fede35" d="m68.215 144.316-12.434-17.12 20.192 5.675Zm0 0"/><path fill="#f7ca07" d="m88.445 88.91 10.36-1.773-7.696 10.953Zm0 0"/><path fill="#f8ce1c" d="m98.805 87.137-10.36 1.773-4.933-16.734Zm0 0"/><path fill="#b57b41" d="m112.184 384-46.516.012 7.898-42.52Zm0 0"/><path fill="#a26351" d="m129.148 307.453-11.91 23.145-16.691-29.274Zm0 0"/><path fill="#96535c" d="m61.984 282.777-20.14 13.211 4.5-31.293Zm0 0"/><path fill="#c08936" d="m52.672 305.098-10.828-9.11 20.14-13.21Zm0 0"/><path fill="#803870" d="M41.844 295.988 21.37 262.992l24.973 1.703Zm0 0"/><path fill="#7e3671" d="m41.844 295.988-12.832 6.864-7.64-39.86Zm0 0"/><path fill="#bf8738" d="m41.844 295.988 10.828 9.11-12.29 5.254Zm0 0"/><path fill="#be8638" d="m29.012 302.852 12.832-6.864-1.461 14.364Zm0 0"/><path fill="#924f60" d="m-.031 308.805 36.097 47.066L-.008 384Zm0 0"/><path fill="#ba813c" d="m-.031 308.805 29.043-5.953.242 20.453Zm0 0"/><path fill="#e2ad1e" d="m158.078 358.488 20.582 1.754 1.774 23.75Zm0 0"/><path fill="#f2c518" d="m173.258 348.738 5.402 11.504-20.582-1.754Zm0 0"/><path fill="#874069" d="m177.57 267.445-32.734 3.121-4.121-23.937Zm0 0"/><path fill="#f9cf09" d="m162.188 288.715-17.352-18.149 32.734-3.12Zm0 0"/><path fill="#813a6e" d="m144.836 270.566-38.402-4.355 34.28-19.582Zm0 0"/><path fill="#f5ca12" d="m144.836 270.566 17.351 18.149-33.039 18.738Zm0 0"/><path fill="#fdd60b" d="m183.328 350.355 23.555 15.305-28.223-5.418Zm0 0"/><path fill="#eabb1c" d="m180.434 383.992 26.449-18.332 59.8 18.363Zm0 0"/><path fill="#fad311" d="m206.883 365.66 63.644-3.558-3.843 21.921Zm0 0"/><path fill="#ebbe11" d="m119.867 287.504 9.281 19.95-28.601-6.13Zm0 0"/><path fill="#eabd14" d="m119.867 287.504 24.969-16.938-15.688 36.887Zm0 0"/><path fill="#e5b616" d="m119.867 287.504-19.32 13.82 5.887-35.113Zm0 0"/><path fill="#e4b517" d="m144.836 270.566-24.969 16.938-13.433-21.293Zm0 0"/><path fill="#cf9826" d="m323.844 351.844 60.152-18.301-.004 50.46Zm0 0"/><path fill="#fcd71a" d="m280.602 259.57 38.039.934-.13 30.867Zm0 0"/><path fill="#f6cc14" d="m318.512 291.371.129-30.867 46.941 6.098Zm0 0"/><path fill="#be8138" d="m331.45 209.145-12.81 51.359-24.038-38.426Zm0 0"/><path fill="#b27442" d="m318.64 260.504-38.038-.934 14-37.492Zm0 0"/><path fill="#ab6a45" d="m365.582 266.602-46.941-6.098 38.086-19.3Zm0 0"/><path fill="#b37341" d="m318.64 260.504 12.81-51.36 25.277 32.06Zm0 0"/><path fill="#800020" d="m171.64 87.55 18.008-6.277-9.668 16.696Zm0 0"/><path fill="#f9d157" d="M183.281 34.656 179.72 53.09l-25.422-17.41Zm0 0"/><path fill="#fad150" d="m179.719 53.09-26.328 4.062.906-21.472Zm0 0"/><path fill="#80001f" d="m173.738 70.094-2.097 17.457-21.871-7.406Zm0 0"/><path fill="#7f0020" d="m189.648 81.273-15.91-11.18 18.367-5.913Zm0 0"/><path fill="#80001f" d="m173.738 70.094 15.91 11.18-18.007 6.277Zm0 0"/><path fill="#5b0a90" d="m173.738 70.094 5.98-17.004 12.387 11.09Zm0 0"/><path fill="#5c0b90" d="m179.719 53.09-5.98 17.004-20.348-12.942Zm0 0"/><path fill="#5b0a90" d="m153.39 57.152 20.348 12.942-23.968 10.05Zm0 0"/><path fill="#f6bf42" d="m54.375 0-19.21 34.172L0 0Zm0 0"/><path fill="#fee66c" d="m206.066 86.652 15.407-2.922-12.793 11.864Zm0 0"/><path fill="#7f0022" d="m206.066 86.652 9.614-13.707 5.793 10.785Zm0 0"/><path fill="#7f0020" d="m215.68 72.945-9.614 13.707-3.492-13.449Zm0 0"/><path fill="#fdea97" d="m196.004 92.781 10.062-6.129 2.614 8.942Zm0 0"/><path fill="#800020" d="m189.648 81.273 6.356 11.508-16.024 5.188Zm0 0"/><path fill="#7f0020" d="m202.574 73.203-12.926 8.07 2.457-17.093Zm0 0"/><path fill="#7f0020" d="m206.066 86.652-16.418-5.379 12.926-8.07Zm0 0"/><path fill="#800020" d="m189.648 81.273 16.418 5.38-10.062 6.128Zm0 0"/><path fill="#fef0a1" d="m273.328 99.273-22.75 9.297 14.113-21.132Zm0 0"/><path fill="#fef4b9" d="m250.578 108.57.11-20.863 14.003-.27Zm0 0"/><path fill="#fef7d0" d="m275.648 107.316-25.07 1.254 22.75-9.297Zm0 0"/><path fill="#fedd34" d="m321.324 62.54-3.265 12.663-17.25-5.828Zm0 0"/><path fill="#fcd632" d="m321.324 62.54-19.55-22.813 42.68 3.457Zm0 0"/><path fill="#76023d" d="m295.238 74.11-8.922 9.972-8.734-12.066Zm0 0"/><path fill="#810020" d="m278.305 92.52 8.011-8.438 2.372 9.379Zm0 0"/><path fill="#fdd837" d="m268.82 60.195-18.89-4.164-2.078-11.406Zm0 0"/><path fill="#fdd731" d="m265.504 35.3 3.316 24.895-20.968-15.57Zm0 0"/><path fill="#feda2e" d="m278.39 52.184-9.57 8.011-3.316-24.894Zm0 0"/><path fill="#5b0a90" d="m261.648 71.027 7.172-10.832 8.762 11.82Zm0 0"/><path fill="#5c0b90" d="m268.82 60.195-7.172 10.832-11.718-14.996Zm0 0"/><path fill="#5b0b90" d="m268.82 60.195 14.567 3.477-5.805 8.344Zm0 0"/><path fill="#fdda32" d="m268.82 60.195 9.57-8.011 4.997 11.488Zm0 0"/><path fill="#820221" d="m269.809 80.34 8.496 12.18-13.614-5.082Zm0 0"/><path fill="#820120" d="m269.809 80.34 16.507 3.742-8.011 8.438Zm0 0"/><path fill="#790233" d="M286.316 84.082 269.81 80.34l7.773-8.324Zm0 0"/><path fill="#5b0a8f" d="m283.387 63.672 11.851 10.437-17.656-2.093Zm0 0"/><path fill="#5b0b90" d="m179.719 53.09 15.886-1.63-3.5 12.72Zm0 0"/><path fill="#fddc4f" d="m183.281 34.656 12.324 16.805-15.886 1.629Zm0 0"/><path fill="#fad751" d="m195.605 51.46-12.324-16.804 21.14-6.976Zm0 0"/><path fill="#f7d65e" d="m176.809-.012 27.613 27.692-21.14 6.976Zm0 0"/><path fill="#fbd75a" d="m220.496-.008 13.543 27.051-29.617.637Zm0 0"/><path fill="#f7d145" d="m383.996-.004-39.543 43.188L325.414 0Zm0 0"/><path fill="#f8d446" d="M344.453 43.184 383.996-.004 384 56.031Zm0 0"/><path fill="#5d0c8d" d="m283.387 63.672 13.707 4.113-1.856 6.324Zm0 0"/><path fill="#fede39" d="m351.184 95.188-1.852-22.711L384 103.328Zm0 0"/><path fill="#fcd840" d="m384 103.328-34.668-30.851L384 56.03Zm0 0"/><path fill="#fcd941" d="m349.332 72.477-4.879-29.293L384 56.03Zm0 0"/><path fill="#fede33" d="m330.54 90.82 18.792-18.343 1.852 22.71Zm0 0"/><path fill="#fee56a" d="m309.148 126.246-11.488 3.54 6.027-12.09Zm0 0"/><path fill="#62128a" d="m254.363 230.855-22.824 32.586 8.219-25.71Zm0 0"/><path fill="#a76950" d="m246.566 264.113-15.027-.672 22.824-32.586Zm0 0"/><path fill="#fdd91d" d="m231.54 263.441 15.026.672-25.789 24.098Zm0 0"/><path fill="#f6cf1c" d="m195.355 292.633 22.172-6.516-2.441 8.016Zm0 0"/><path fill="#681a87" d="m195.355 292.633-5.527 6.133-7.558-22.43Zm0 0"/><path fill="#fbd30b" d="m217.527 286.117-22.172 6.516-13.085-16.297Zm0 0"/><path fill="#fdd815" d="m189.828 298.766-27.64-10.051 20.082-12.38Zm0 0"/><path fill="#fed80a" d="m164.219 315.898-2.031-27.183 27.64 10.05Zm0 0"/><path fill="#5f0f8d" d="m200.172 304.332-4.817-11.7 19.73 1.5Zm0 0"/><path fill="#fdd812" d="m195.355 292.633 4.817 11.699-10.344-5.566Zm0 0"/><path fill="#fed913" d="m215.75 323.45 2.523-21.65 14.907 12.821Zm0 0"/><path fill="#5c0b90" d="m218.273 301.8-2.523 21.65-8.465-7.45Zm0 0"/><path fill="#5c0b90" d="m215.75 323.45-15.031 5.097L207.285 316Zm0 0"/><path fill="#5b0a90" d="m204.988 309.137 13.285-7.336L207.285 316Zm0 0"/><path fill="#8f4d6f" d="m218.273 301.8-18.101 2.532 14.914-10.2Zm0 0"/><path fill="#5f0f8d" d="m200.172 304.332 18.101-2.531-13.285 7.336Zm0 0"/><path fill="#5b0a90" d="m191.988 328.793 6.035 14.789-14.515-11.11Zm0 0"/><path fill="#fef7d1" d="m289.145 125.488-13.055-5.98 8.031-7.762Zm0 0"/><path fill="#fef8d7" d="m296.41 110.379-7.265 15.11-5.024-13.743Zm0 0"/><path fill="#fee247" d="m277.605 153.164 11.54-27.676 8.515 4.297Zm0 0"/><path fill="#fef4bc" d="m276.09 119.508 13.055 5.98-11.54 27.676Zm0 0"/><path fill="#fee34e" d="m297.66 129.785-8.515-4.297 7.265-15.11Zm0 0"/><path fill="#feee94" d="m207.125 116.152-11.121-23.37 12.676 2.812Zm0 0"/><path fill="#fef0a1" d="m196.004 92.781 11.121 23.371-18.207-1.078Zm0 0"/><path fill="#fff8d7" d="m250.578 108.57 27.027 44.594-34.46 1.691Zm0 0"/><path fill="#800020" d="m331.55 128.152-13.222 1.41-1.328-13.68ZM318.328 129.563l-9.18-3.317L317 115.883Zm0 0"/><path fill="#fce266" d="m322.2 145.684 8.624 14.718-11.625-12.828Zm0 0"/><path fill="#fedb1b" d="m311.77 155.367 19.054 5.035-7.265 24.051Zm0 0"/><path fill="#fee03e" d="m330.824 160.402-19.054-5.035 7.43-7.793ZM360.047 121.715 384 103.328l-17.008 59.766Zm0 0"/><path fill="#fee03e" d="m350.61 133.656 9.437-11.941 6.945 41.379Zm0 0"/><path fill="#fee146" d="m347.566 118.406 12.48 3.309-9.437 11.941Zm0 0"/><path fill="#800020" d="m318.328 129.563 13.223-1.41-9.352 17.53ZM331.55 128.152l16.016-9.746 3.043 15.25Zm0 0"/><path fill="#fee663" d="m346.941 164.277 3.668-30.62 16.383 29.437Zm0 0"/><path fill="#fee044" d="m342.875 106.137 8.414 7.746-3.723 4.523Zm0 0"/><path fill="#fee146" d="m355.395 108.535-4.106 5.348-8.414-7.746Zm0 0"/><path fill="#fee145" d="m347.566 118.406 3.723-4.523 8.758 7.832Zm0 0"/><path fill="#fee146" d="m351.29 113.883 4.105-5.348 4.652 13.18Zm0 0"/><path fill="#7f0021" d="m330.54 90.82-24.763 2.145 12.282-17.762Zm0 0"/><path fill="#800020" d="m329.164 110.273-23.387-17.308 24.762-2.145Zm0 0"/><path fill="#800020" d="m305.777 92.965 23.387 17.308-12.164 5.61Zm0 0"/><path fill="#feed8f" d="m133.586 206.86-13.422-5.977 14.613-13.645Zm0 0"/><path fill="#874168" d="m133.586 206.86 4.91 18.43-24.133 2.44Zm0 0"/><path fill="#8d4864" d="m120.164 200.883 13.422 5.976-19.223 20.871Zm0 0"/><path fill="#fee042" d="m120.164 200.883-16.453-3.016 12.062-13.207Zm0 0"/><path fill="#904d63" d="m103.71 197.867-9.233-.816 1.648-5.5Zm0 0"/><path fill="#fedf39" d="m115.773 184.66-12.062 13.207-7.586-6.316Zm0 0"/><path fill="#81396f" d="m94.477 197.05 9.234.817-14.133 19.485Zm0 0"/><path fill="#843d6c" d="m89.578 217.352 14.133-19.485 10.652 29.863Zm0 0"/><path fill="#914d60" d="m103.71 197.867 16.454 3.016-5.8 26.847Zm0 0"/><path fill="#b3061f" d="m100.797 120.395 14.535 20.273-16.793 2.387Zm0 0"/><path fill="#810333" d="m98.54 143.055 16.792-2.387-3.219 6.46Zm0 0"/><path fill="#fede31" d="m115.332 140.668 8.125 4.922-11.344 1.539Zm0 0"/><path fill="#fede32" d="m68.215 144.316 6.719 4.61-.239 11.398Zm0 0"/><path fill="#fedf37" d="m81.578 145.496-6.644 3.43-6.72-4.61Zm0 0"/><path fill="#fedf36" d="m42.563 86.137 13.218 41.058-29.87 2.688Zm0 0"/><path fill="#5b0a90" d="m91.441 115.27-10.437-3.11 10.105-14.07Zm0 0"/><path fill="#fede33" d="m67.39 110.828-11.609 16.367-13.218-41.058Zm0 0"/><path fill="#5b0b90" d="m75.973 132.871 4.004-10.922 9.765 7.59Zm0 0"/><path fill="#5b0a90" d="m79.977 121.95 11.464-6.68-1.699 14.27Zm0 0"/><path fill="#a7694d" d="m36.066 355.871 29.602 28.14-35.848-.015Zm0 0"/><path fill="#b67b40" d="m65.668 384.012-29.602-28.14 37.5-14.38Zm0 0"/><path fill="#b97f3d" d="m29.012 302.852 11.37 7.5-11.128 12.953Zm0 0"/><path fill="#fcd613" d="m178.66 360.242.14-10.531 4.528.644Zm0 0"/><path fill="#fbd313" d="m178.8 349.71-.14 10.532-5.402-11.504Zm0 0"/><path fill="#5c0b90" d="m183.328 350.355-4.527-.644 4.707-17.238ZM178.8 349.71l-5.542-.972 10.25-16.265Zm0 0"/><path fill="#f7cb3c" d="M132.227 65.906 114.676 76.02l-3.992-27.75Zm0 0"/><path fill="#f8ca42" d="m153.39 57.152-21.163 8.754-21.543-17.636Zm0 0"/><path fill="#5b0a90" d="m132.227 65.906-.598 25.278-16.953-15.164ZM132.227 65.906l21.164-8.754-3.621 22.993Zm0 0"/><path fill="#5b0a8f" d="m131.629 91.184.598-25.278 17.543 14.239Zm0 0"/><path fill="#8d0845" d="m107.3 101.496 24.329-10.312-15.14 15.949Zm0 0"/><path fill="#5b0a90" d="m98.805 87.137 8.496 14.36-16.192-3.407ZM114.676 76.02l-7.375 25.476-8.496-14.36Zm0 0"/><path fill="#5b0a90" d="M131.629 91.184 107.3 101.496l7.375-25.476Zm0 0"/><path fill="#f4c248" d="M35.164 34.172 0 60.387V0Zm0 0"/><path fill="#feda28" d="m301.773 39.727-18.386 23.945-4.996-11.488Zm0 0"/><path fill="#fdd72e" d="m301.773 39.727-23.382 12.457L265.504 35.3Zm0 0"/><path fill="#fcd42b" d="m301.773 39.727-4.68 28.058-13.706-4.113Zm0 0"/><path fill="#fbd854" d="m204.422 27.68 29.617-.637-19.367 15.82Zm0 0"/><path fill="#fbd44a" d="m234.04 27.043-6.138 24.715-13.23-8.895Zm0 0"/><path fill="#fcd53d" d="m227.902 51.758 6.137-24.715 13.813 17.582Zm0 0"/><path fill="#f7d03c" d="m344.453 43.184-42.68-3.457L325.414 0Zm0 0"/><path fill="#fcd633" d="m301.773 39.727 19.551 22.812-20.515 6.836Zm0 0"/><path fill="#fedc2c" d="m349.332 72.477-31.273 2.726 3.265-12.664Zm0 0"/><path fill="#fede35" d="M349.332 72.477 330.539 90.82l-12.48-15.617Zm0 0"/><path fill="#800020" d="m305.777 92.965-19.46-8.883 8.921-9.973Zm0 0"/><path fill="#800020" d="m286.316 84.082 19.461 8.883-17.09.496Zm0 0"/><path fill="#82001f" d="m300.871 105.75 4.906-12.785L317 115.883Zm0 0"/><path fill="#82001f" d="m305.777 92.965-4.906 12.785-12.183-12.29Zm0 0"/><path fill="#81001f" d="m300.871 105.75-16.055-6.055 3.872-6.234Zm0 0"/><path fill="#82001f" d="m284.816 99.695 16.055 6.055-4.46 4.629Zm0 0"/><path fill="#80001f" d="m303.688 117.695-2.817-11.945L317 115.883Zm0 0"/><path fill="#820020" d="m300.871 105.75 2.817 11.945-7.278-7.316Zm0 0"/><path fill="#fee352" d="m313.023 134.09-1.253 21.277-14.11-25.582Zm0 0"/><path fill="#fee668" d="m309.148 126.246 3.875 7.844-15.363-4.305Zm0 0"/><path fill="#fef4c1" d="m311.77 155.367 1.253-21.277 6.176 13.484Zm0 0"/><path fill="#800020" d="m318.328 129.563-5.305 4.527-3.875-7.844Zm0 0"/><path fill="#fceeb2" d="m313.023 134.09 9.176 11.594-3 1.89Zm0 0"/><path fill="#800020" d="m313.023 134.09 5.305-4.528 3.871 16.122Zm0 0"/><path fill="#fdd715" d="m164.219 315.898 9.039 32.84-15.18 9.75Zm0 0"/><path fill="#e8b824" d="m117.238 330.598 46.98-14.7-6.14 42.59Zm0 0"/><path fill="#cf9a3b" d="m164.219 315.898-46.98 14.7 11.91-23.145Zm0 0"/><path fill="#fdd716" d="m218.273 301.8 2.504-13.59 13.73 8.927Zm0 0"/><path fill="#5c0b8f" d="m220.777 288.21-2.504 13.59-3.187-7.667Zm0 0"/><path fill="#9a5b62" d="m217.527 286.117 3.25 2.094-5.691 5.922Zm0 0"/><path fill="#5b0a90" d="m188.578 321.148 3.41 7.645-8.48 3.68Zm0 0"/><path fill="#fed80e" d="m188.578 321.148-24.36-5.25 25.61-17.132Zm0 0"/><path fill="#5b0b90" d="m200.172 304.332-11.594 16.816 1.25-22.382Zm0 0"/><path fill="#5b0a90" d="m191.988 328.793 1.063-7.672 7.668 7.426Zm0 0"/><path fill="#651787" d="m200.719 328.547-7.668-7.426L207.285 316Zm0 0"/><path fill="#f9d10f" d="m193.05 321.121-4.472.027 11.594-16.816Zm0 0"/><path fill="#72277d" d="m188.578 321.148 4.473-.027-1.063 7.672Zm0 0"/><path fill="#5c0b90" d="m193.05 321.121 11.938-11.984 2.297 6.863Zm0 0"/><path fill="#5b0a90" d="m193.05 321.121 7.122-16.789 4.816 4.805Zm0 0"/><path fill="#ffde30" d="m207.125 116.152 36.02 38.703-36.774 4.653Zm0 0"/><path fill="#fef2b1" d="m181.727 154.352 25.398-38.2-.754 43.356Zm0 0"/><path fill="#feef9e" d="m188.918 115.074 18.207 1.078-25.398 38.2Zm0 0"/><path fill="#fee142" d="m224.492 107.563-17.367 8.59 1.555-20.56Zm0 0"/><path fill="#fee768" d="m221.473 83.73 3.02 23.832-15.813-11.968Zm0 0"/><path fill="#fee768" d="m236.465 93.71-11.973 13.853-3.02-23.833Zm0 0"/><path fill="#fedd2a" d="m346.941 164.277 20.051-1.183-12.52 21.804Zm0 0"/><path fill="#fedc25" d="m323.559 184.453 23.382-20.176 7.532 20.621Zm0 0"/><path fill="#fedc24" d="m330.824 160.402 16.117 3.875-23.382 20.176Zm0 0"/><path fill="#800020" d="m336.18 146.91-4.63-18.758 19.06 5.504ZM346.941 164.277 336.18 146.91l14.43-13.254Zm0 0"/><path fill="#800020" d="m331.55 128.152 4.63 18.758-13.98-1.226Zm0 0"/><path fill="#810220" d="m336.18 146.91-5.356 13.492-8.625-14.718Zm0 0"/><path fill="#800020" d="m336.18 146.91 10.761 17.367-16.117-3.875Zm0 0"/><path fill="#5b0a90" d="m98.54 143.055-16.962 2.441 3.594-7.164Zm0 0"/><path fill="#5b0a90" d="m81.578 145.496 16.961-2.441-8.207 13.425Zm0 0"/><path fill="#fedf33" d="m81.578 145.496 8.754 10.984-15.637 3.844Zm0 0"/><path fill="#fedf35" d="m74.934 148.926 6.644-3.43-6.883 14.828Zm0 0"/><path fill="#fedf36" d="m67.39 110.828 5.551 9.34-17.16 7.027Zm0 0"/><path fill="#fedf34" d="m55.781 127.195 17.16-7.027 3.032 12.703Zm0 0"/><path fill="#fee03c" d="m72.941 120.168 7.036 1.781-4.004 10.922Zm0 0"/><path fill="#fee144" d="m81.004 112.16-8.063 8.008-5.55-9.34Zm0 0"/><path fill="#fee350" d="m72.941 120.168 8.063-8.008-1.027 9.79Zm0 0"/><path fill="#5b0a90" d="m79.977 121.95 1.027-9.79 10.437 3.11ZM215.75 323.45l-5.45 15.5-9.581-10.403Zm0 0"/><path fill="#fdd610" d="m270.527 362.102-34.718-24.317 35.117-29.691Zm0 0"/><path fill="#fed808" d="m235.809 337.785-2.63-23.164 37.747-6.527Zm0 0"/><path fill="#fcd511" d="m206.883 365.66 28.926-27.875 34.718 24.317Zm0 0"/><path fill="#fdd70f" d="m198.023 343.582 8.86 22.078-23.555-15.305Zm0 0"/><path fill="#fee977" d="m179.98 97.969 8.938 17.105-20.75 7.864Zm0 0"/><path fill="#ffe871" d="m168.168 122.938 20.75-7.864-7.191 39.278Zm0 0"/><path fill="#fedd29" d="m121.418 164.2 20.984-13.282-7.625 36.32Zm0 0"/><path fill="#fedb1b" d="m142.402 150.918 39.325 3.434-46.95 32.886Zm0 0"/><path fill="#fede32" d="m115.332 140.668 10.73-7.934-2.605 12.856Zm0 0"/><path fill="#c9071d" d="m171.64 87.55-10.55 20.923-11.32-28.328Zm0 0"/><path fill="#83001f" d="m179.98 97.969-18.89 10.504 10.55-20.922Zm0 0"/><path fill="#fee86e" d="m161.09 108.473 18.89-10.504-11.812 24.969Zm0 0"/><path fill="#fee660" d="m141.996 120.379 19.094-11.906 7.078 14.465Zm0 0"/><path fill="#fee03e" d="m142.402 150.918 25.766-27.98 13.559 31.414Zm0 0"/><path fill="#7a0132" d="m301.527 75.012 4.25 17.953-10.539-18.856Zm0 0"/><path fill="#5c0b90" d="m177.703 324.707 10.875-3.559-5.07 11.325Zm0 0"/><path fill="#fed708" d="m188.578 321.148-10.875 3.559-13.484-8.809Zm0 0"/><path fill="#5b0a90" d="m173.258 348.738 4.445-24.031 5.805 7.766Zm0 0"/><path fill="#fed814" d="m164.219 315.898 13.484 8.809-4.445 24.031Zm0 0"/><path fill="#ffde2d" d="m207.125 116.152 17.367-8.59 18.653 47.293Zm0 0"/><path fill="#ffe247" d="m224.492 107.563 26.086 1.007-7.433 46.285Zm0 0"/><path fill="#fee974" d="m224.492 107.563 11.973-13.852 14.113 14.86Zm0 0"/><path fill="#facc1a" d="m76.438 94.383 12.007-5.473 2.664 9.18Zm0 0"/><path fill="#fddf51" d="m81.004 112.16-4.567-17.777L91.11 98.09Zm0 0"/><path fill="#fee147" d="m67.39 110.828 9.048-16.445 4.566 17.777Zm0 0"/><path fill="#fddb32" d="m76.438 94.383-9.047 16.445-24.829-24.691Zm0 0"/><path fill="#f9d00c" d="m76.438 94.383-33.875-8.246 40.949-13.961Zm0 0"/><path fill="#f6cb12" d="m88.445 88.91-12.007 5.473 7.074-22.207Zm0 0"/><path fill="#5b0a90" d="m200.719 328.547 9.582 10.402-12.278 4.633Zm0 0"/><path fill="#5b0a90" d="m191.988 328.793 8.73-.246-2.695 15.035Zm0 0"/><path fill="#fed70b" d="m210.3 338.95-3.417 26.71-8.86-22.078Zm0 0"/><path fill="#fedc20" d="m123.457 145.59 18.945 5.328-20.984 13.281Zm0 0"/><path fill="#fedc22" d="m126.063 132.734 16.34 18.184-18.946-5.328Zm0 0"/><path fill="#fee03a" d="m141.996 120.379.406 30.539-16.34-18.184Zm0 0"/><path fill="#fedd27" d="m142.402 150.918-.406-30.54 26.172 2.56Zm0 0"/><path fill="#5f0c8a" d="m297.094 67.785 3.715 1.59-5.57 4.734Zm0 0"/><path fill="#610a81" d="m300.809 69.375.718 5.637-6.289-.903Zm0 0"/><path fill="#fbd12d" d="m301.773 39.727-.964 29.648-3.715-1.59Zm0 0"/><path fill="#630e82" d="m318.059 75.203-16.532-.191-.718-5.637Zm0 0"/><path fill="#7f0022" d="m301.527 75.012 16.532.191-12.282 17.762Zm0 0"/><path fill="#fed80d" d="M235.809 337.785 215.75 323.45l17.43-8.828Zm0 0"/><path fill="#fed90f" d="M235.809 337.785 210.3 338.95l5.449-15.5Zm0 0"/><path fill="#fed70c" d="m235.809 337.785-28.926 27.875 3.418-26.71Zm0 0"/><path fill="#b6051e" d="m141.996 120.379-22.062 5.2-3.446-18.446Zm0 0"/><path fill="#bd071e" d="m119.934 125.578 22.062-5.2-15.934 12.356Zm0 0"/><path fill="#bb071e" d="m119.934 125.578 6.129 7.156-10.731 7.934Zm0 0"/><path fill="#9e021f" d="m119.934 125.578-19.137-5.183 15.691-13.262Zm0 0"/><path fill="#cb061e" d="m119.934 125.578-4.602 15.09-14.535-20.273Zm0 0"/><path fill="#80001f" d="m142.07 105.027 19.02 3.446-19.094 11.906Zm0 0"/><path fill="#cd071d" d="M142.07 105.027 131.63 91.184l18.14-11.04Zm0 0"/><path fill="#cc081d" d="m161.09 108.473-19.02-3.446 7.7-24.882Zm0 0"/><path fill="#cc071d" d="m131.629 91.184 10.441 13.843-25.582 2.106Zm0 0"/><path fill="#8c011f" d="m142.07 105.027-.074 15.352-25.508-13.246Zm0 0"/></svg>