<svg xmlns="http://www.w3.org/2000/svg" width="512" height="512" viewBox="0 0 384 384"><path fill="#dc7a51" d="M104.992.008 100.5 38.03l-33.508-9.699Zm0 0"/><path fill="#584a4d" d="M75.855 237.547 26.13 262.469l31.32-48.922Zm0 0"/><path fill="#544244" d="m61.785 179.328 19.418 6.848-23.754 27.37Zm0 0"/><path fill="#594a4d" d="m173.336 258.813-27.516 7.105 3.407-53.633Zm0 0"/><path fill="#dd7b52" d="m272.129 207.625-35.813-14.176 37.012-33.414Zm0 0"/><path fill="#635b5e" d="m106.207 223.344 13.871 46.761-44.223-32.558Zm0 0"/><path fill="#5f575a" d="m120.078 270.105-13.871-46.761 39.613 42.574Zm0 0"/><path fill="#9fb27f" d="m320.16 384-5.851-46.41 35.14 12.758Zm0 0"/><path fill="#a4ae7c" d="m291.766 224.367-19.637-16.742 19.457-24.418Zm0 0"/><path fill="#9eb380" d="m284.742 356.703 29.567-19.113L320.16 384Zm0 0"/><path fill="#533f40" d="m26.129 262.469 6.32-69.973 25 21.05Zm0 0"/><path fill="#5c5256" d="M48.41 298.871 26.13 262.47l49.726-24.922Zm0 0"/><path fill="#dc7c53" d="m15.883 145.5 6.992 11.375-10.156 2.79Zm0 0"/><path fill="#523d3e" d="m23.328 174.156 9.121 18.34-32.453-8.75Zm0 0"/><path fill="#dd7b52" d="m33.633 168.074 34.523-.578-6.37 11.832ZM191.992 105.578l-11.855-5.86 8.054-5.538ZM201.758 26.207l10.8 16.566-18.023 8.825Zm0 0"/><path fill="#da7e54" d="M267.027 0h50.52l-21.32 28.215Zm0 0"/><path fill="#a4ae7c" d="m325.066 194.082-33.3 30.285-.18-41.16Zm0 0"/><path fill="#9eac7d" d="m173.336 258.813 8.937 18.625-36.453-11.52Zm0 0"/><path fill="#dd7b52" d="m272.129 207.625 1.2-47.59 18.257 23.172Zm0 0"/><path fill="#4a2d2c" d="m89.758 142.21-13.184-11.968 17.324-1.324Zm0 0"/><path fill="#625c5f" d="m120.078 270.105-28.426 5.23-15.797-37.788Zm0 0"/><path fill="#717b85" d="m48.41 298.871 43.242-23.535-6.218 24.234Zm0 0"/><path fill="#60595e" d="M91.652 275.336 48.41 298.87l27.445-61.324Zm0 0"/><path fill="#5c5155" d="m81.77 214.973 24.437 8.37-30.352 14.204Zm0 0"/><path fill="#5a4c4f" d="m81.77 214.973-5.915 22.574-18.406-24Zm0 0"/><path fill="#574749" d="m81.203 186.176.567 28.797-24.32-1.426Zm0 0"/><path fill="#a9a877" d="M384.004 243.059 348.25 267.98l6.348-49.82Zm0 0"/><path fill="#a8a978" d="M384.004 243.059 384 292.313l-35.75-24.333Zm0 0"/><path fill="#a3af7c" d="m384 292.313-37.27 23.125 1.52-47.458Zm0 0"/><path fill="#9eb380" d="m284.742 356.703-6.789-28.926 36.356 9.813Zm0 0"/><path fill="#9fb280" d="m277.953 327.777 29.152-32.18 7.204 41.993Zm0 0"/><path fill="#9fb27f" d="m307.105 295.598-29.152 32.18-8.48-28.067Zm0 0"/><path fill="#9eb380" d="m277.953 327.777-34.07-7.789 25.59-20.277Zm0 0"/><path fill="#dd7b52" d="m143.047 30.73-20.07 24.583L100.5 38.03Zm0 0"/><path fill="#dd7a51" d="M122.977 55.313 98.512 65.758 100.5 38.03Zm0 0"/><path fill="#dd7b52" d="m98.512 65.758 4.98 18.238-23.922-3.82ZM72.656 57.375l-5.664-29.043 33.508 9.7Zm0 0"/><path fill="#d87951" d="M100.5 38.031 104.992.008l38.055 30.722Zm0 0"/><path fill="#dd7a51" d="m98.512 65.758-25.856-8.383L100.5 38.031Zm0 0"/><path fill="#dd7a51" d="m72.656 57.375 25.856 8.383L79.57 80.176Zm0 0"/><path fill="#dd7b52" d="m45.844 49.223 21.148-20.891 5.664 29.043Zm0 0"/><path fill="#533f40" d="m0 266.828-.004-83.082L26.13 262.47Zm0 0"/><path fill="#523e3f" d="m-.004 183.746 32.453 8.75-6.32 69.973Zm0 0"/><path fill="#dd7a51" d="M0 100.98V54.89l43.715 31.712Zm0 0"/><path fill="#dd7b52" d="m0 132.758 25.484-9.524-9.601 22.266Zm0 0"/><path fill="#dd7b52" d="m0 100.98 25.484 22.254L0 132.758ZM25.484 123.234 0 100.98l43.715-14.378Zm0 0"/><path fill="#dd7b51" d="m.004 155.84 15.879-10.34-3.164 14.164Zm0 0"/><path fill="#dd7b51" d="M.004 155.84 0 132.758 15.883 145.5Zm0 0"/><path fill="#503a3b" d="m-.004 183.746.008-27.906 12.715 3.824Zm0 0"/><path fill="#d97f55" d="m22.875 156.875-2.828 7.023-7.328-4.234Zm0 0"/><path fill="#da7d54" d="m20.047 163.898 2.828-7.023 10.758 11.2Zm0 0"/><path fill="#4f3737" d="m23.328 174.156-3.281-10.258 13.586 4.176Zm0 0"/><path fill="#523d3e" d="m20.047 163.898-20.05 19.848 12.722-24.082Zm0 0"/><path fill="#503a3b" d="m20.047 163.898 3.281 10.258-23.332 9.59Zm0 0"/><path fill="#dc7c53" d="m25.484 123.234 13.844 24.02-23.445-1.754Zm0 0"/><path fill="#dd7b52" d="m39.328 147.254-16.453 9.621-6.992-11.375Zm0 0"/><path fill="#513c3d" d="m32.45 192.496-9.122-18.34 10.305-6.082ZM32.45 192.496l29.335-13.168-4.336 34.219Zm0 0"/><path fill="#503a3a" d="m32.45 192.496 1.183-24.422 28.152 11.254Zm0 0"/><path fill="#dd7b52" d="m22.875 156.875 16.453-9.621-5.695 20.82ZM33.633 168.074l5.695-20.82 28.828 20.242Zm0 0"/><path fill="#da7e54" d="M267.79 35.11 267.026 0l29.2 28.215Zm0 0"/><path fill="#de7f58" d="m275.309 91.508-3.727 5.55-5.918-9.175Zm0 0"/><path fill="#dd7b52" d="m212.559 42.773-1.352 11.813-16.672-2.988ZM253.426 57.766l-11.86-9.141 14.168-3.422Zm0 0"/><path fill="#dd7b52" d="m241.566 48.625 11.86 9.14-13.957-1.933Zm0 0"/><path fill="#4b2f2f" d="m253.426 57.766-7.176 17.992-6.781-19.926Zm0 0"/><path fill="#4b3030" d="M239.469 55.832 228.12 71.945l-4.164-10.777Zm0 0"/><path fill="#4a2e2d" d="m246.25 75.758-18.129-3.813 11.348-16.113Zm0 0"/><path fill="#db7d53" d="M340.195 39.883 317.547 0H384Zm0 0"/><path fill="#a4ae7c" d="m291.766 224.367-45.696 20.028 26.059-36.77Zm0 0"/><path fill="#a3af7d" d="m306.484 164.2 18.582 29.882-33.48-10.875Zm0 0"/><path fill="#dd7b52" d="m273.328 160.035 33.156 4.164-14.898 19.008Zm0 0"/><path fill="#c09265" d="m194.766 268.832-12.493 8.606-8.937-18.625Zm0 0"/><path fill="#9eb380" d="m194.602 340.766-6.938 7.148-7.617-14.219Zm0 0"/><path fill="#91705f" d="m149.227 212.285 48.668 32.219-24.56 14.309Zm0 0"/><path fill="#b59267" d="m197.895 244.504-3.13 24.328-21.43-10.02Zm0 0"/><path fill="#a1af7d" d="m194.766 268.832 3.129-24.328 28.199 27.836Zm0 0"/><path fill="#de7c54" d="m241.828 147.965 45.973-17.621-14.473 29.691Zm0 0"/><path fill="#de7b52" d="m236.316 193.45-39.925 25.722 1.086-46.723Zm0 0"/><path fill="#dd7b52" d="m236.316 193.45 5.512-45.485 31.5 12.07Zm0 0"/><path fill="#dd7b52" d="m241.828 147.965-44.351 24.484-.27-36.887Zm0 0"/><path fill="#dd7b52" d="m236.316 193.45-38.84-21 44.352-24.485Zm0 0"/><path fill="#dc7b52" d="m81.203 186.176 14.48-8.285-2.933 14.113Zm0 0"/><path fill="#dd7b52" d="m39.328 147.254 30.024 2.008-1.196 18.234Zm0 0"/><path fill="#dc7b52" d="m68.156 167.496 13.047 18.68-19.418-6.848Zm0 0"/><path fill="#dd7b52" d="m68.156 167.496 1.196-18.234 13.503 11.32Zm0 0"/><path fill="#dd7b52" d="m95.684 177.89-27.528-10.394 14.7-6.914ZM68.156 167.496l27.528 10.395-14.48 8.285Zm0 0"/><path fill="#9c3900" d="m93.898 128.918 6.957 17.047-11.097-3.754Zm0 0"/><path fill="#4b2f2f" d="m89.656 115.02-.86-12.977 15.384 12.242Zm0 0"/><path fill="#4a2d2c" d="m89.656 115.02 14.524-.735-10.282 14.633Zm0 0"/><path fill="#dd7b52" d="M72.656 57.375 43.715 86.602l2.129-37.38Zm0 0"/><path fill="#dd7a51" d="m43.715 86.602 28.941-29.227 6.914 22.8Zm0 0"/><path fill="#98ad85" d="m113.59 383.996 29.55-28.824L170.837 384Zm0 0"/><path fill="#99ae85" d="m143.14 355.172-29.55 28.824-10.61-22.719Zm0 0"/><path fill="#89a19e" d="m102.98 361.277 10.61 22.72-80.09-.013Zm0 0"/><path fill="#869b96" d="M120.723 330.516 95.156 320.25l34.418-11.871Zm0 0"/><path fill="#899d96" d="m95.156 320.25 25.567 10.266-17.743 30.761Zm0 0"/><path fill="#75838e" d="m95.156 320.25-9.722-20.68 44.14 8.809Zm0 0"/><path fill="#7d929d" d="M.016 336.457 33.5 383.984l-33.496.02Zm0 0"/><path fill="#8ba097" d="m69.762 325.793 25.394-5.543 7.824 41.027Zm0 0"/><path fill="#90a593" d="m48.395 358.902 21.367-33.109 33.218 35.484Zm0 0"/><path fill="#7e949f" d="m69.762 325.793-21.367 33.11-7.122-29.243Zm0 0"/><path fill="#737f8a" d="m48.41 298.871 21.352 26.922-28.489 3.867Zm0 0"/><path fill="#768590" d="m69.762 325.793 15.672-26.223 9.722 20.68Zm0 0"/><path fill="#7d93a0" d="m85.434 299.57-15.672 26.223-21.352-26.922Zm0 0"/><path fill="#7f949c" d="M48.395 358.902.015 336.457l41.258-6.797Zm0 0"/><path fill="#5b4f53" d="m22.645 303.094-22.649.562L0 266.828Zm0 0"/><path fill="#625d62" d="m26.129 262.469-3.484 40.625L0 266.828Zm0 0"/><path fill="#99ad85" d="m120.723 330.516 22.418 24.656-40.16 6.105Zm0 0"/><path fill="#9fb380" d="M212.535 364.957 170.835 384l14.013-22.957Zm0 0"/><path fill="#809293" d="m85.434 299.57 6.218-24.234 37.922 33.043Zm0 0"/><path fill="#523d3e" d="m87.582 193.469-6.379-7.293 11.547 5.828Zm0 0"/><path fill="#564548" d="m87.582 193.469-5.812 21.504-.567-28.797Zm0 0"/><path fill="#ada575" d="m354.598 218.16 5.746-40.332 23.644 20.508Zm0 0"/><path fill="#aba475" d="m354.598 218.16 29.39-19.824.016 44.723Zm0 0"/><path fill="#aba675" d="m354.598 218.16-29.532-24.078 35.278-16.254Zm0 0"/><path fill="#9fb17f" d="m320.16 384 29.29-33.652L384 384Zm0 0"/><path fill="#a0b07e" d="m384 333.988-37.27-18.55L384 292.313Zm0 0"/><path fill="#a0b17e" d="m314.309 337.59 32.421-22.152 2.72 34.91Zm0 0"/><path fill="#a4ad7b" d="m346.73 315.438-39.625-19.84 41.145-27.618Zm0 0"/><path fill="#a0b27f" d="m307.105 295.598 39.625 19.84-32.421 22.152Zm0 0"/><path fill="#a1b17e" d="m276.785 265.594 30.32 30.004-37.632 4.113Zm0 0"/><path fill="#a5ad7b" d="m276.785 265.594-30.715-21.2 45.696-20.027Zm0 0"/><path fill="#9fb27f" d="M268.355 384h-45.093l25.625-29.082Zm0 0"/><path fill="#a0b27f" d="M284.742 356.703 268.355 384l-19.468-29.082Zm0 0"/><path fill="#9eb380" d="m277.953 327.777-29.066 27.141-5.004-34.93ZM248.887 354.918l29.066-27.14 6.79 28.925Zm0 0"/><path fill="#dd7b52" d="m157.902 56.781-14.855-26.05 21.91 15.456Zm0 0"/><path fill="#dc7a51" d="m112.078 77.867-13.566-12.11 24.465-10.445Zm0 0"/><path fill="#dd7a51" d="m98.512 65.758 13.566 12.11-8.586 6.128Zm0 0"/><path fill="#d47952" d="m104.992.008-38 28.324L51.754 0Zm0 0"/><path fill="#d77a52" d="M171.7-.004 143.046 30.73 104.992.008Zm0 0"/><path fill="#dd7b52" d="m176.578 35.035-33.531-4.305L171.699-.004Zm0 0"/><path fill="#4a2d2c" d="m228.121 71.945-12.996-1.027 8.832-9.75Zm0 0"/><path fill="#9b3800" d="m215.125 70.918 12.996 1.027-2.14 10.614Zm0 0"/><path fill="#4f3738" d="m215.125 70.918-3.918-16.332 12.75 6.582Zm0 0"/><path fill="#4c302f" d="m211.207 54.586 3.918 16.332-12.152-.98Zm0 0"/><path fill="#dd7b52" d="m200.379 90.836-8.387 14.742-3.8-11.398ZM143.047 30.73l33.531 4.305-11.621 11.153ZM250.75 91.992l8.473-9.222 6.441 5.113Zm0 0"/><path fill="#da7d54" d="M282.742 47.465 267.79 35.109l28.438-6.894Zm0 0"/><path fill="#4a2d2b" d="m259.223 82.77 11.355-1.75-4.914 6.863Zm0 0"/><path fill="#4b2f2f" d="m211.207 54.586 13.645-2.55-.895 9.132Zm0 0"/><path fill="#dd7b52" d="m224.852 52.035-13.645 2.55 1.352-11.812Zm0 0"/><path fill="#4b2f2e" d="m224.852 52.035 14.617 3.797-15.512 5.336Zm0 0"/><path fill="#dd7b52" d="m224.852 52.035 16.714-3.41-2.097 7.207Zm0 0"/><path fill="#4c3130" d="m211.207 54.586-14.23 4.039-2.442-7.027Zm0 0"/><path fill="#9b3800" d="m196.977 58.625 5.996 11.313-16.438-3.11Zm0 0"/><path fill="#4f3839" d="m196.977 58.625 14.23-4.04-8.234 15.353Zm0 0"/><path fill="#dd7b52" d="M218.824 0h48.203l-31.234 26.707ZM246.25 75.758l12.973 7.012-8.473 9.222Zm0 0"/><path fill="#4b2f2e" d="m263.152 71.207-16.902 4.55 7.176-17.991Zm0 0"/><path fill="#4a2d2c" d="m263.152 71.207-3.93 11.563-12.972-7.012ZM270.578 81.02l-7.426-9.813 14.239.941Zm0 0"/><path fill="#4a2d2c" d="m263.152 71.207 7.426 9.813-11.355 1.75Zm0 0"/><path fill="#dd7b52" d="m225.98 82.559 20.27-6.801 4.5 16.234Zm0 0"/><path fill="#9c3900" d="m225.98 82.559 2.141-10.614 18.129 3.813Zm0 0"/><path fill="#d97f55" d="m384 57.71-43.805-17.827L384 0Zm0 0"/><path fill="#f6c5b4" d="M282.926 98.484 295.8 110.93l-14.031 1.406Zm0 0"/><path fill="#4b3030" d="m282.926 98.484-7.617-6.976 10.945.187Zm0 0"/><path fill="#e49270" d="m282.926 98.484-11.344-1.425 3.727-5.551Zm0 0"/><path fill="#efb8a1" d="m273.719 104.57 9.207-6.086-1.156 13.852Zm0 0"/><path fill="#e08660" d="m282.926 98.484-9.207 6.086-2.137-7.511Zm0 0"/><path fill="#e79a7b" d="m305.633 121.367-8.969 7.488-.863-17.925Zm0 0"/><path fill="#dd7b52" d="m246.07 244.395-9.754-50.946 35.813 14.176Zm0 0"/><path fill="#dc7b52" d="m236.316 193.45 9.754 50.945-49.68-25.223Zm0 0"/><path fill="#979b72" d="m197.895 244.504 48.175-.11-19.976 27.946Zm0 0"/><path fill="#b69d6e" d="m360.344 177.828 23.648-19.312-.004 39.82Zm0 0"/><path fill="#a9aa78" d="m383.992 158.516-23.648 19.312 1.18-23.379Zm0 0"/><path fill="#a7ab79" d="m360.344 177.828-5.922-13.777 7.101-9.602Zm0 0"/><path fill="#dd7c53" d="m296.148 144.031 10.336 20.168-33.156-4.164Zm0 0"/><path fill="#de7b53" d="m296.148 144.031-8.347-13.687 8.863-1.489Zm0 0"/><path fill="#df825c" d="m287.8 130.344 8.348 13.687-22.82 16.004Zm0 0"/><path fill="#dd7c54" d="m306.484 164.2-10.336-20.169 19.993 4.985Zm0 0"/><path fill="#a0b17e" d="m222.691 307.465 5.793-7.434 15.399 19.957Zm0 0"/><path fill="#a0b17f" d="m245.355 284.418 31.43-18.824-7.312 34.117Zm0 0"/><path fill="#9eb380" d="m243.883 319.988 1.472-35.57 24.118 15.293Zm0 0"/><path fill="#9fb27f" d="m245.355 284.418-1.472 35.57-15.399-19.957Zm0 0"/><path fill="#635a5c" d="m197.895 244.504-1.504-25.332 49.68 25.223Zm0 0"/><path fill="#dd7b52" d="m271.79 112.875 16.01 17.469-45.972 17.62Zm0 0"/><path fill="#ebaf96" d="m271.79 112.875 1.929-8.305 8.05 7.766Zm0 0"/><path fill="#dd7b52" d="m196.39 219.172-47.163-6.887 4.605-23.847ZM196.39 219.172l-42.558-30.734 43.645-15.989Zm0 0"/><path fill="#5a403c" d="m149.227 212.285 47.164 6.887 1.504 25.332Zm0 0"/><path fill="#b89c6d" d="m364.543 129.633 19.445-24.274.004 53.157Zm0 0"/><path fill="#b1a272" d="m361.523 154.45 3.02-24.817 19.45 28.883Zm0 0"/><path fill="#c49164" d="m364.543 129.633-7.07-27.156 26.515 2.882Zm0 0"/><path fill="#c78f62" d="m357.48 76.844-.007 25.633-13.457-13.98Zm0 0"/><path fill="#9c3900" d="m318.855 102.73 10.485 13.766-14.414-2.086Zm0 0"/><path fill="#dd7b52" d="m105.684 159.977 18.285 9.546-28.285 8.368Zm0 0"/><path fill="#dd7b52" d="m123.969 169.523-18.285-9.546 4.566-7.903ZM105.684 159.977l-10 17.914-12.829-17.309Zm0 0"/><path fill="#594c4f" d="m106.207 223.344 43.02-11.059-3.407 53.633Zm0 0"/><path fill="#dd7b52" d="m153.832 188.438-37.254 11.367 7.39-30.282Zm0 0"/><path fill="#dc7c53" d="m95.684 177.89 20.894 21.915-23.828-7.801Zm0 0"/><path fill="#dd7b52" d="M116.578 199.805 95.684 177.89l28.285-8.368Zm0 0"/><path fill="#dd7b52" d="m126.23 148.16-2.261 21.363-13.719-17.449Zm0 0"/><path fill="#4a2d2c" d="m89.758 142.21-7.922 4.813-5.262-16.78Zm0 0"/><path fill="#dd7b51" d="m81.836 147.023-12.484 2.239 7.222-19.02Zm0 0"/><path fill="#9c3900" d="m105.684 159.977-4.829-14.012 9.395 6.11Zm0 0"/><path fill="#dd7b52" d="m55.379 125.363 13.973 23.899-30.024-2.008ZM69.352 149.262l-13.973-23.899 21.195 4.88Zm0 0"/><path fill="#dd7a51" d="m85.59 92.457 17.902-8.46-14.695 18.046ZM103.492 83.996 85.59 92.457l-6.02-12.281Zm0 0"/><path fill="#8ba299" d="M102.98 361.277 33.5 383.984l14.895-25.082Zm0 0"/><path fill="#99ad82" d="m151.488 324.902-30.765 5.614 8.851-22.137Zm0 0"/><path fill="#9bad7e" d="m151.488 324.902-8.347 30.27-22.418-24.656Zm0 0"/><path fill="#5e555a" d="m48.41 298.871-25.765 4.223 3.484-40.625Zm0 0"/><path fill="#7c8f9b" d="m.016 336.457 48.379 22.445L33.5 383.984Zm0 0"/><path fill="#9fb280" d="m143.14 355.172 22.946 1.68 4.75 27.148Zm0 0"/><path fill="#9fb27f" d="m166.086 356.852 18.762 4.191L170.836 384Zm0 0"/><path fill="#9eb380" d="m164.023 343.629 2.063 13.223-22.945-1.68Zm0 0"/><path fill="#9eb07e" d="m159.96 297.004-14.14-31.086 36.453 11.52Zm0 0"/><path fill="#98ad87" d="m145.82 265.918 14.14 31.086-30.386 11.375Zm0 0"/><path fill="#9fb27f" d="m196.383 350.547 16.152 14.41-27.687-3.914Zm0 0"/><path fill="#9fb380" d="m196.383 350.547-11.535 10.496 2.816-13.129Zm0 0"/><path fill="#9fb27f" d="m194.602 340.766 1.78 9.78-8.718-2.632Zm0 0"/><path fill="#899f96" d="m129.574 308.379-37.922-33.043 28.426-5.23Zm0 0"/><path fill="#81918b" d="m145.82 265.918-16.246 42.46-9.496-38.273Zm0 0"/><path fill="#9fb17f" d="m349.45 350.348 34.55-16.36V384Zm0 0"/><path fill="#9fb280" d="m384 333.988-34.55 16.36-2.72-34.91Zm0 0"/><path fill="#a5ad7b" d="m276.785 265.594 40.2-20.824-9.88 50.828Zm0 0"/><path fill="#a6ac7a" d="m307.105 295.598 9.88-50.828 31.265 23.21Zm0 0"/><path fill="#aca776" d="m325.066 194.082-8.082 50.688-25.218-20.403Zm0 0"/><path fill="#a5ad7b" d="m316.984 244.77-40.199 20.824 14.98-41.227Zm0 0"/><path fill="#a8aa78" d="m348.25 267.98-31.266-23.21 37.614-26.61Zm0 0"/><path fill="#aaa877" d="m316.984 244.77 8.082-50.688 29.532 24.078Zm0 0"/><path fill="#9fb280" d="m268.355 384 16.387-27.297L320.16 384Zm0 0"/><path fill="#9c3900" d="m180.137 99.719-4.89-11.844 12.944 6.305Zm0 0"/><path fill="#dd7b52" d="m176.578 35.035-1.734 19.567-9.887-8.414Zm0 0"/><path fill="#dd7b52" d="m174.844 54.602-16.942 2.18 7.055-10.594Zm0 0"/><path fill="#9c3900" d="m163.746 70.91 11.5 16.965-28.93-6.445Zm0 0"/><path fill="#9c3900" d="m175.246 87.875-11.5-16.965 22.79-4.082Zm0 0"/><path fill="#4a2e2d" d="m163.746 70.91 11.098-16.308 11.691 12.226Zm0 0"/><path fill="#4d3333" d="M174.844 54.602 163.746 70.91l-5.844-14.129Zm0 0"/><path fill="#dd7b52" d="m143.047 30.73 5.379 28.297-25.45-3.715Zm0 0"/><path fill="#dd7b52" d="m157.902 56.781-9.476 2.246-5.38-28.297Zm0 0"/><path fill="#4a2d2c" d="m148.426 59.027 15.32 11.883-17.43 10.52Zm0 0"/><path fill="#4c3131" d="m163.746 70.91-15.32-11.883 9.476-2.246Zm0 0"/><path fill="#dd7b52" d="M51.754 0 36.488 26.438 0 0Zm0 0"/><path fill="#dd7b52" d="m66.992 28.332-30.504-1.895L51.754 0ZM211.621 84.672l14.36-2.113-11.329 11.66Zm0 0"/><path fill="#9c3900" d="m211.621 84.672 3.504-13.754 10.855 11.64Zm0 0"/><path fill="#9c3900" d="m215.125 70.918-3.504 13.754-8.648-14.734Zm0 0"/><path fill="#dd7b52" d="m200.379 90.836 11.242-6.164 3.031 9.547Zm0 0"/><path fill="#9c3900" d="m194.344 80.781 6.035 10.055-12.188 3.344ZM202.973 69.938l-8.63 10.843-7.808-13.953Zm0 0"/><path fill="#9c3900" d="m211.621 84.672-17.277-3.89 8.629-10.844Zm0 0"/><path fill="#9c3900" d="m194.344 80.781 17.277 3.89-11.242 6.165ZM175.246 87.875l19.098-7.094-6.153 13.399ZM194.344 80.781l-19.098 7.094 11.29-21.047Zm0 0"/><path fill="#dd7b52" d="m271.582 97.059-9.691 4.964 3.773-14.14ZM261.89 102.023l-11.14-10.03 14.914-4.11Zm0 0"/><path fill="#e0906c" d="m261.89 102.023 11.829 2.547-1.93 8.305Zm0 0"/><path fill="#dd7b52" d="m273.719 104.57-11.828-2.547 9.691-4.964Zm0 0"/><path fill="#de7b52" d="m234.992 114.582 26.899-12.559 9.898 10.852Zm0 0"/><path fill="#dd7b52" d="m250.75 91.992 11.14 10.031-26.898 12.559Zm0 0"/><path fill="#db7d54" d="m330.39 68.457-5.843 15.879-10.602-7.973Zm0 0"/><path fill="#4a2d2b" d="m318.855 102.73 5.692-18.394 15.672 17.562Zm0 0"/><path fill="#4b3030" d="m295.055 68.07-11.063 13.828-6.601-9.75Zm0 0"/><path fill="#4a2d2c" d="m275.309 91.508 8.683-9.61 2.262 9.797Zm0 0"/><path fill="#dc7c52" d="m269.16 61.059-15.734-3.293 2.308-12.563ZM267.79 35.11l1.37 25.949-13.426-15.856Zm0 0"/><path fill="#da7d54" d="M282.742 47.465 269.16 61.059l-1.37-25.95Zm0 0"/><path fill="#4a2d2c" d="m263.152 71.207 6.008-10.148 8.23 11.09Zm0 0"/><path fill="#4b2f2f" d="m269.16 61.059-6.008 10.148-9.726-13.441Zm0 0"/><path fill="#4a2d2d" d="m269.16 61.059 14.067 1.91-5.836 9.18Zm0 0"/><path fill="#d78157" d="m269.16 61.059 13.582-13.594.485 15.504Zm0 0"/><path fill="#4a2d2c" d="m270.578 81.02 4.73 10.488-9.644-3.625ZM270.578 81.02l13.414.878-8.683 9.61ZM283.992 81.898l-13.414-.878 6.813-8.872Zm0 0"/><path fill="#4a2d2c" d="m283.227 62.969 11.828 5.101-17.664 4.078Zm0 0"/><path fill="#4d3434" d="m174.844 54.602 19.691-3.004-8 15.23Zm0 0"/><path fill="#503a3b" d="m194.535 51.598 2.442 7.027-10.442 8.203Zm0 0"/><path fill="#dd7b52" d="m176.578 35.035 17.957 16.563-19.691 3.004Zm0 0"/><path fill="#dd7b52" d="m194.535 51.598-17.957-16.563 25.18-8.828Zm0 0"/><path fill="#dd7b52" d="m218.824 0-17.066 26.207-30.059-26.21ZM201.758 26.207 218.824 0l16.969 26.707Zm0 0"/><path fill="#dd7b52" d="m201.758 26.207-25.18 8.828L171.7-.004ZM241.566 48.625l-5.773-21.918 19.941 18.496Zm0 0"/><path fill="#dd7b52" d="m235.793 26.707 31.996 8.402-12.055 10.094Zm0 0"/><path fill="#dd7b52" d="M235.793 26.707 267.027 0l.762 35.11Zm0 0"/><path fill="#d88258" d="m283.227 62.969 18.628-9.235-6.8 14.336Zm0 0"/><path fill="#dc7c53" d="m340.195 39.883-38.34 13.851-5.628-25.52Zm0 0"/><path fill="#cc8a5e" d="M383.988 105.36 357.48 76.843 384 57.71Zm0 0"/><path fill="#ca8c60" d="m357.48 76.844-17.285-36.961L384 57.71Zm0 0"/><path fill="#ca8c60" d="m357.48 76.844-27.09-8.387 9.805-28.574Zm0 0"/><path fill="#a7ab79" d="m246.07 244.395 30.715 21.199-31.43 18.824Zm0 0"/><path fill="#a8aa79" d="m226.094 272.34 19.976-27.945-.715 40.023Zm0 0"/><path fill="#a0b17f" d="m190.98 292.988 5.551-.14-4.82 8.218Zm0 0"/><path fill="#9fb27f" d="m196.531 292.848-1.765-24.016 19.656 27.77Zm0 0"/><path fill="#4c312f" d="m196.531 292.848-5.55.14-8.708-15.55Zm0 0"/><path fill="#a6ab79" d="m194.766 268.832 1.765 24.016-14.258-15.41Zm0 0"/><path fill="#4a2d2c" d="m187.438 294.906 3.542-1.918.73 8.078Zm0 0"/><path fill="#8c966e" d="m190.98 292.988-3.542 1.918-5.165-17.469Zm0 0"/><path fill="#9eb380" d="m187.438 294.906-13.243 16.973-14.234-14.875Zm0 0"/><path fill="#9fb280" d="m174.195 311.879 13.243-16.973 4.273 6.16Zm0 0"/><path fill="#9eb380" d="m187.438 294.906-27.477 2.098 22.312-19.567Zm0 0"/><path fill="#4a2d2c" d="m202.031 302.152-5.5-9.304 17.89 3.754Zm0 0"/><path fill="#9fb27f" d="m196.531 292.848 5.5 9.304-10.32-1.086Zm0 0"/><path fill="#9fb280" d="m202.031 302.152-6.75 9.575-3.57-10.66Zm0 0"/><path fill="#4a2d2c" d="m195.281 311.727 6.75-9.575 2.758 6.114Zm0 0"/><path fill="#9eb380" d="m217.625 314.945 5.066-7.48 21.192 12.523Zm0 0"/><path fill="#a7ab7a" d="m222.691 307.465-5.066 7.48-6.293-3.027Zm0 0"/><path fill="#4a2d2c" d="m217.625 314.945-13.629 17.727 7.336-20.754Zm0 0"/><path fill="#4a2d2c" d="m204.79 308.266 12.429-6.309-5.887 9.961Zm0 0"/><path fill="#b69d6e" d="m217.219 301.957 5.472 5.508-11.359 4.453Zm0 0"/><path fill="#a4ad7b" d="m217.219 301.957-15.188.195 12.39-5.55Zm0 0"/><path fill="#4a2d2c" d="m202.031 302.152 15.188-.195-12.43 6.309Zm0 0"/><path fill="#a4ae7c" d="m222.691 307.465-5.472-5.508 11.265-1.926Zm0 0"/><path fill="#4b2f2e" d="m193.195 329.031 1.407 11.735-14.555-7.07Zm0 0"/><path fill="#e08964" d="m287.8 130.344-16.01-17.469 9.98-.54Zm0 0"/><path fill="#f4bfac" d="m295.8 110.93-8 19.414-6.03-18.008Zm0 0"/><path fill="#df7f58" d="m296.664 128.855-8.863 1.489 8-19.414Zm0 0"/><path fill="#de7b52" d="m206.79 106.016-6.411-15.18 14.273 3.383Zm0 0"/><path fill="#dd7b52" d="m200.379 90.836 6.41 15.18-14.797-.438ZM241.828 147.965l-6.836-33.383 36.797-1.707Zm0 0"/><path fill="#d2855a" d="m357.473 102.477.007-25.633 26.508 28.515Zm0 0"/><path fill="#9c3900" d="m329.34 116.496-10.824 9.606-3.59-11.692Zm0 0"/><path fill="#9c3900" d="m318.516 126.102-12.883-4.735 9.293-6.957Zm0 0"/><path fill="#a5ae7d" d="m321.71 145.297 9.696 15.254-15.265-11.535Zm0 0"/><path fill="#a2b07e" d="m306.484 164.2 24.922-3.65-6.34 33.532Zm0 0"/><path fill="#a0b17f" d="m331.406 160.55-24.922 3.65 9.657-15.184Zm0 0"/><path fill="#9c3900" d="m348.414 123.105-19.074-6.609 10.879-14.598Zm0 0"/><path fill="#a6ac7a" d="m350.086 143.934 14.457-14.301-3.02 24.816Zm0 0"/><path fill="#afa474" d="m348.414 123.105 16.129 6.528-14.457 14.3Zm0 0"/><path fill="#9c3900" d="m334.547 134.008-16.031-7.906 10.824-9.606ZM318.516 126.102l16.03 7.906-12.835 11.289Zm0 0"/><path fill="#9c3900" d="m348.414 123.105-13.867 10.903-5.207-17.512ZM334.547 134.008l13.867-10.903 1.672 20.829Zm0 0"/><path fill="#a9aa78" d="m354.422 164.05-8.246-1.234 15.347-8.367Zm0 0"/><path fill="#aaa877" d="m346.176 162.816 3.91-18.882 11.437 10.515Zm0 0"/><path fill="#ce8d62" d="m344.016 88.496 13.457 13.98-17.254-.578Zm0 0"/><path fill="#ca8c60" d="m348.414 123.105 9.059-20.628 7.07 27.156Zm0 0"/><path fill="#cd8a5e" d="m357.473 102.477-9.059 20.628-8.195-21.207Zm0 0"/><path fill="#9b3900" d="m329.34 116.496-10.485-13.766 21.364-.832Zm0 0"/><path fill="#dd7b52" d="m149.227 212.285-32.649-12.48 37.254-11.368Zm0 0"/><path fill="#584a4d" d="m116.578 199.805 32.649 12.48-43.02 11.059Zm0 0"/><path fill="#564447" d="m87.582 193.469 5.168-1.465-10.98 22.969Zm0 0"/><path fill="#58484b" d="m81.77 214.973 10.98-22.97 13.457 31.34Zm0 0"/><path fill="#594b4f" d="m92.75 192.004 23.828 7.8-10.371 23.54Zm0 0"/><path fill="#9c3900" d="m104.18 114.285 14.312 24.848-24.594-10.215ZM118.492 139.133l-17.637 6.832-6.957-17.047Zm0 0"/><path fill="#9c3900" d="m100.855 145.965 17.637-6.832-8.242 12.941Zm0 0"/><path fill="#dd7b52" d="m118.492 139.133 7.738 9.027-15.98 3.914ZM69.352 149.262l12.007 1.687 1.496 9.633ZM81.836 147.023l-.477 3.926-12.007-1.687Zm0 0"/><path fill="#dc7b52" d="m55.379 125.363-16.05 21.89-13.845-24.019Zm0 0"/><path fill="#dd7b52" d="m43.715 86.602 11.664 38.761-29.895-2.129Zm0 0"/><path fill="#dd7b52" d="M55.379 125.363 43.715 86.602l25.058 22.8Zm0 0"/><path fill="#4a2e2d" d="m89.656 115.02-8.14-2.918 7.28-10.059Zm0 0"/><path fill="#4b2f2e" d="m76.574 130.242 4.375-9.566 12.95 8.242Zm0 0"/><path fill="#4b2f2e" d="m80.95 120.676 8.706-5.656 4.242 13.898Zm0 0"/><path fill="#6b6e77" d="m-.004 303.656 22.649-.562-22.63 33.363Zm0 0"/><path fill="#737f8a" d="m22.645 303.094 25.765-4.223-7.137 30.79Zm0 0"/><path fill="#788894" d="m.016 336.457 22.629-33.363 18.628 26.566Zm0 0"/><path fill="#9eb380" d="m166.086 356.852 6.05-6.84 12.712 11.031Zm0 0"/><path fill="#9fb27f" d="m184.848 361.043-12.711-11.031 15.527-2.098Zm0 0"/><path fill="#9eb380" d="m172.137 350.012-6.051 6.84-2.063-13.223Zm0 0"/><path fill="#4a2d2c" d="m187.664 347.914-15.527 2.098 7.91-16.317Zm0 0"/><path fill="#9eb380" d="m172.137 350.012-8.114-6.383 16.024-9.934Zm0 0"/><path fill="#9fb27f" d="m205.512 342.902-9.13 7.645-1.78-9.781Zm0 0"/><path fill="#9eb380" d="m170.836 384 41.7-19.043L223.261 384Zm0 0"/><path fill="#9fb27f" d="m212.535 364.957 36.352-10.039L223.262 384Zm0 0"/><path fill="#da7a51" d="m130.73 67.441-18.652 10.426 10.899-22.555Zm0 0"/><path fill="#db7950" d="m148.426 59.027-17.696 8.414-7.753-12.129Zm0 0"/><path fill="#4a2e2e" d="m130.73 67.441-3.902 24.676-14.75-14.25Zm0 0"/><path fill="#4b2f2f" d="m130.73 67.441 17.696-8.414-2.11 22.403Zm0 0"/><path fill="#4a2d2c" d="m126.828 92.117 3.902-24.676 15.586 13.989ZM111.227 94.031l15.601-1.914-7.043 10.168Zm0 0"/><path fill="#4a2e2d" d="m111.227 94.031-7.047 20.254-15.383-12.242Zm0 0"/><path fill="#4a2d2b" d="m104.18 114.285 7.047-20.254 8.558 8.254Zm0 0"/><path fill="#4a2e2d" d="m103.492 83.996 7.735 10.035-22.43 8.012Zm0 0"/><path fill="#4a2e2e" d="m112.078 77.867-.851 16.164-7.735-10.035ZM126.828 92.117l-15.601 1.914.851-16.164Zm0 0"/><path fill="#dc7a51" d="m0 54.89 45.844-5.667-2.13 37.379Zm0 0"/><path fill="#dd7b52" d="M36.488 26.438 0 54.89V0ZM0 54.89l36.488-28.452 9.356 22.785ZM36.488 26.438l30.504 1.894-21.148 20.89Zm0 0"/><path fill="#dc7c53" d="m282.742 47.465 19.113 6.27-18.628 9.234ZM301.855 53.734l-19.113-6.27 13.485-19.25Zm0 0"/><path fill="#dd7b52" d="m201.758 26.207 34.035.5-23.234 16.066ZM235.793 26.707l-10.941 25.328-12.293-9.262Zm0 0"/><path fill="#dd7b52" d="m224.852 52.035 10.941-25.328 5.773 21.918Zm0 0"/><path fill="#db7c53" d="m317.547 0 22.648 39.883-43.968-11.668Zm0 0"/><path fill="#da7d54" d="m340.195 39.883-9.804 28.574-28.536-14.723Zm0 0"/><path fill="#d3865b" d="m344.016 88.496-19.47-4.16 5.845-15.879Zm0 0"/><path fill="#cd895e" d="m357.48 76.844-13.464 11.652-13.625-20.039Zm0 0"/><path fill="#dfaf91" d="m324.547 84.336 19.469 4.16-3.797 13.402Zm0 0"/><path fill="#4a2e2d" d="m302.836 86.496-18.844-4.598 11.063-13.828Zm0 0"/><path fill="#4e3534" d="m283.992 81.898 18.844 4.598-16.582 5.2Zm0 0"/><path fill="#9b3800" d="m302.684 104.96 16.171-2.23-3.93 11.68Zm0 0"/><path fill="#4a2d2c" d="m302.836 86.496-.152 18.465-16.43-13.266Zm0 0"/><path fill="#4a2d2b" d="m302.684 104.96.152-18.464 16.02 16.234Zm0 0"/><path fill="#4a2d2c" d="m302.684 104.96-19.758-6.476 3.328-6.789ZM282.926 98.484l19.758 6.477-6.883 5.969Zm0 0"/><path fill="#9c3900" d="m305.633 121.367-2.95-16.406 12.243 9.45Zm0 0"/><path fill="#9c3900" d="m302.684 104.96 2.949 16.407-9.832-10.437Zm0 0"/><path fill="#df815a" d="m310.957 131.027-14.809 13.004.516-15.176Zm0 0"/><path fill="#e9a083" d="m305.633 121.367 5.324 9.66-14.293-2.172Zm0 0"/><path fill="#f1b7a1" d="m296.148 144.031 14.809-13.004 5.184 17.989Zm0 0"/><path fill="#9c3900" d="m318.516 126.102-7.559 4.925-5.324-9.66Zm0 0"/><path fill="#f4c1ae" d="m310.957 131.027 10.754 14.27-5.57 3.719Zm0 0"/><path fill="#9c3900" d="m310.957 131.027 7.559-4.925 3.195 19.195Zm0 0"/><path fill="#9fb27f" d="m151.488 324.902 12.535 18.727-20.882 11.543Zm0 0"/><path fill="#9eb380" d="m174.195 311.879-22.707 13.023 8.473-27.898ZM159.96 297.004l-8.472 27.898-21.914-16.523Zm0 0"/><path fill="#a1b17e" d="m221.68 282.602 23.675 1.816-16.87 15.613Zm0 0"/><path fill="#a2ae7c" d="m217.219 301.957 4.46-19.355 6.805 17.43Zm0 0"/><path fill="#4b2f2e" d="m221.68 282.602-4.461 19.355-2.797-5.355Zm0 0"/><path fill="#c29365" d="m245.355 284.418-23.675-1.816 4.414-10.262Zm0 0"/><path fill="#9fb27f" d="m194.766 268.832 26.914 13.77-7.258 14Zm0 0"/><path fill="#a1b17e" d="m221.68 282.602-26.914-13.77 31.328 3.508Zm0 0"/><path fill="#4a2d2c" d="m185.855 321.23 7.34 7.801-13.148 4.664Zm0 0"/><path fill="#9eb380" d="m185.855 321.23-11.66-9.351 17.516-10.813Zm0 0"/><path fill="#4a2d2c" d="m195.281 311.727-9.426 9.503 5.856-20.164ZM193.195 329.031l4.868-7.05 5.933 10.69Zm0 0"/><path fill="#4a2d2c" d="m203.996 332.672-5.934-10.692 13.27-10.062Zm0 0"/><path fill="#9eb380" d="m198.063 321.98-12.208-.75 9.426-9.503Zm0 0"/><path fill="#4a2d2c" d="m185.855 321.23 12.208.75-4.868 7.051ZM198.063 321.98l6.726-13.714 6.543 3.652Zm0 0"/><path fill="#4a2d2c" d="m198.063 321.98-2.782-10.253 9.508-3.461Zm0 0"/><path fill="#dd7b52" d="m197.207 135.563 37.785-20.981 6.836 33.383ZM206.79 106.016l-9.583 29.546-5.215-29.984Zm0 0"/><path fill="#de7b52" d="m234.992 114.582-28.203-8.566 7.863-11.797Zm0 0"/><path fill="#dd7a51" d="m225.98 82.559 9.012 32.023-20.34-20.363Zm0 0"/><path fill="#dd7b52" d="m250.75 91.992-15.758 22.59-9.012-32.023Zm0 0"/><path fill="#a4ad7b" d="m346.176 162.816 8.246 1.235 5.922 13.777Zm0 0"/><path fill="#a5ad7b" d="m325.066 194.082 21.11-31.266 14.168 15.012Zm0 0"/><path fill="#a6ac7a" d="m331.406 160.55 14.77 2.266-21.11 31.266Zm0 0"/><path fill="#9c3900" d="m337.273 149.805-2.726-15.797 15.539 9.926Zm0 0"/><path fill="#9c3900" d="m346.176 162.816-8.903-13.011 12.813-5.871Zm0 0"/><path fill="#9c3900" d="m334.547 134.008 2.726 15.797-15.562-4.508ZM337.273 149.805l-5.867 10.746-9.695-15.254ZM337.273 149.805l8.903 13.011-14.77-2.265ZM100.855 145.965l-12.25 7.719 1.153-11.473Zm0 0"/><path fill="#4b2f2f" d="m88.605 153.684-6.77-6.66 7.923-4.813Zm0 0"/><path fill="#4b302f" d="m88.605 153.684-7.246-2.735.477-3.926Zm0 0"/><path fill="#9c3900" d="m88.605 153.684 12.25-7.72 4.829 14.013Zm0 0"/><path fill="#dd7a51" d="m88.605 153.684 17.079 6.293-22.829.605Zm0 0"/><path fill="#dc7b52" d="m81.36 150.95 7.245 2.734-5.75 6.898Zm0 0"/><path fill="#dd7b52" d="m73.73 118.906-18.351 6.457 13.394-15.96Zm0 0"/><path fill="#dd7b52" d="m55.379 125.363 18.351-6.457 2.844 11.336Zm0 0"/><path fill="#dc7b52" d="m73.73 118.906 7.22 1.77-4.376 9.566Zm0 0"/><path fill="#dd7b52" d="m81.516 112.102-7.786 6.804-4.957-9.504Zm0 0"/><path fill="#dc7b52" d="m73.73 118.906 7.786-6.804-.567 8.574Zm0 0"/><path fill="#4a2e2d" d="m80.95 120.676.566-8.574 8.14 2.918Zm0 0"/><path fill="#4b2f2e" d="m217.625 314.945-6.605 22.172-7.024-4.445Zm0 0"/><path fill="#9eb380" d="m248.887 354.918-26.621-11.973 21.617-22.957ZM212.535 364.957l9.73-22.012 26.622 11.973Zm0 0"/><path fill="#9fb380" d="m205.512 342.902 7.023 22.055-16.152-14.41Zm0 0"/><path fill="#dd7b52" d="m176.594 113.219 15.398-7.64 5.215 29.984ZM191.992 105.578l-15.398 7.64 3.543-13.5ZM123.969 169.523l30.715-17.68-.852 36.595Zm0 0"/><path fill="#dd7b52" d="m126.23 148.16 28.454 3.684-30.715 17.68ZM154.684 151.844l42.793 20.605-43.645 15.988Zm0 0"/><path fill="#dd7b52" d="m154.684 151.844 42.523-16.281.27 36.886ZM118.492 139.133l10.438-5.98-2.7 15.007Zm0 0"/><path fill="#9c3900" d="m175.246 87.875-5.172 14.95-23.758-21.395Zm0 0"/><path fill="#9c3900" d="m180.137 99.719-10.063 3.105 5.172-14.949Zm0 0"/><path fill="#dd7b52" d="m170.074 102.824 10.063-3.105-3.543 13.5ZM155.777 113.402l14.297-10.578 6.52 10.395ZM197.207 135.563l-34.547-7.137 13.934-15.207Zm0 0"/><path fill="#dd7b52" d="m162.66 128.426-6.883-15.024 20.817-.183ZM154.684 151.844l7.976-23.418 34.547 7.137Zm0 0"/><path fill="#4a2d2c" d="m173.883 326.379 11.972-5.149-5.808 12.465Zm0 0"/><path fill="#9eb380" d="m185.855 321.23-11.972 5.149.312-14.5ZM164.023 343.629l9.86-17.25 6.164 7.316Zm0 0"/><path fill="#9eb380" d="m151.488 324.902 22.395 1.477-9.86 17.25Zm0 0"/><path fill="#9eb380" d="m173.883 326.379-22.395-1.477 22.707-13.023Zm0 0"/><path fill="#dd7b52" d="m234.992 114.582-37.785 20.98 9.582-29.546Zm0 0"/><path fill="#d67750" d="m75.719 97.617 9.87-5.16 3.208 9.586Zm0 0"/><path fill="#dd7a52" d="m81.516 112.102-5.797-14.485 13.078 4.426Zm0 0"/><path fill="#dd7b52" d="m68.773 109.402 6.946-11.785 5.797 14.485Zm0 0"/><path fill="#dd7b52" d="m75.719 97.617-6.946 11.785-25.058-22.8ZM75.719 97.617 43.715 86.602l35.855-6.426Zm0 0"/><path fill="#dd7a51" d="m85.59 92.457-9.871 5.16 3.851-17.441Zm0 0"/><path fill="#4a2d2d" d="m203.996 332.672 7.024 4.445-5.508 5.785Zm0 0"/><path fill="#4a2e2d" d="m203.996 332.672 1.516 10.23-10.91-2.136Zm0 0"/><path fill="#4b2f2e" d="m193.195 329.031 10.801 3.64-9.394 8.095Zm0 0"/><path fill="#9eb380" d="m211.02 337.117 11.246 5.828-16.754-.043ZM222.266 342.945l-9.73 22.012-7.024-22.055Zm0 0"/><path fill="#dd7b52" d="m162.66 128.426-22.87-5.035 15.987-9.989ZM128.93 133.152l25.754 18.692-28.454-3.684Zm0 0"/><path fill="#dd7b52" d="m139.79 123.39 14.894 28.454-25.754-18.692Zm0 0"/><path fill="#dd7b52" d="m154.684 151.844-14.895-28.453 22.871 5.035Zm0 0"/><path fill="#d88056" d="m301.855 53.734 12.09 22.63-18.89-8.294Zm0 0"/><path fill="#4a2d2c" d="m313.945 76.363-11.11 10.133-7.78-18.426Zm0 0"/><path fill="#da7e54" d="m330.39 68.457-16.445 7.906-12.09-22.629Zm0 0"/><path fill="#4a2d2c" d="m324.547 84.336-9.367 1.703-1.235-9.676Zm0 0"/><path fill="#4a2d2c" d="m315.18 86.04-12.344.456 11.11-10.133ZM315.18 86.04l9.367-1.704-5.692 18.394Zm0 0"/><path fill="#4a2d2c" d="m302.836 86.496 12.344-.457 3.675 16.691Zm0 0"/><path fill="#9eb380" d="m222.266 342.945-4.641-28 26.258 5.043ZM222.266 342.945l-11.246-5.828 6.605-22.172Zm0 0"/><path fill="#9c3900" d="m139.79 123.39-16.2 1.739-3.805-22.844ZM123.59 125.129l16.2-1.738-10.86 9.761Zm0 0"/><path fill="#9c3900" d="m123.59 125.129 5.34 8.023-10.438 5.98ZM123.59 125.129l-19.41-10.844 15.605-12Zm0 0"/><path fill="#9c3900" d="m123.59 125.129-5.098 14.004-14.312-24.848ZM142.258 101.418l27.816 1.406-14.297 10.578Zm0 0"/><path fill="#9c3900" d="m139.79 123.39 2.468-21.972 13.52 11.984ZM142.258 101.418l-15.43-9.3 19.488-10.688Zm0 0"/><path fill="#9c3900" d="m170.074 102.824-27.816-1.406 4.058-19.988Zm0 0"/><path fill="#9b3800" d="m126.828 92.117 15.43 9.301-22.473.867Zm0 0"/><path fill="#9c3900" d="m142.258 101.418-2.469 21.973-20.004-21.106Zm0 0"/></svg>