<svg xmlns="http://www.w3.org/2000/svg" width="512" height="512" viewBox="0 0 384 384"><path fill="#fecf7f" d="m318.074 285.035 29.918-42.156 36.024 71.254Zm0 0"/><path fill="#fac87e" d="M71.34.016 99.418 34.48 64.352 46.125Zm0 0"/><path fill="#5a5866" d="m76.816 239.434-42.48 27.16 5.473-48.684Zm0 0"/><path fill="#3f4663" d="m34.336 266.594-23.793-2.25 29.266-46.434Zm0 0"/><path fill="#54465d" d="m56.41 177.992 18.246 5.758-34.847 34.16Zm0 0"/><path fill="#fecf7f" d="m309.758 219.871-37.227 3.79 10.977-32.634Zm0 0"/><path fill="#654f5f" d="m178.824 266.453-39.426-16.883 15.93-25.46Zm0 0"/><path fill="#ffd080" d="M283.508 191.027 272.53 223.66l-30.476-20.367Zm0 0"/><path fill="#fecf7f" d="m242.738 162.414 40.77 28.613-41.453 12.266Zm0 0"/><path fill="#ffd080" d="m283.508 191.027-40.77-28.613 32.575-21.055Zm0 0"/><path fill="#fecf7f" d="m160.54 191.258-.688-37.621 39.492 28.879Zm0 0"/><path fill="#7b6d6a" d="m110.516 233.3-6.653 37.72-27.047-31.586Zm0 0"/><path fill="#7b6a68" d="m103.863 271.02 6.653-37.72 28.882 16.27Zm0 0"/><path fill="#fece7f" d="M347.992 242.879 384 225.336l.016 88.797Zm0 0"/><path fill="#af886e" d="m324.902 336.355-2.918 27.512-20.718-13.226Zm0 0"/><path fill="#b78f70" d="m321.984 363.867 2.918-27.512 26.18 23.25Zm0 0"/><path fill="#745861" d="m305.094 384 16.89-20.133 14.782 20.145Zm0 0"/><path fill="#9f796a" d="M321.984 363.867 305.094 384l-3.828-33.36Zm0 0"/><path fill="#806264" d="m321.984 363.867 29.098-4.262-14.316 24.407Zm0 0"/><path fill="#fece7f" d="m-.004 99.926 42.438-19.762-6.137 42.973Zm0 0"/><path fill="#424d66" d="M10.543 264.344.003 194.25l39.806 23.66Zm0 0"/><path fill="#4c4f65" d="m60.457 283.55-26.121-16.956 42.48-27.16Zm0 0"/><path fill="#fece7f" d="m40.969 171.273 10.636-16.02 4.805 22.74ZM204.043 30.336l9.215 15.055-15.047 6.714Zm0 0"/><path fill="#feaf7b" d="m307.29 165.941 2.468 53.93-26.25-28.844Zm0 0"/><path fill="#fdcc7f" d="m309.758 219.871-2.469-53.93 36.176 37.477Zm0 0"/><path fill="#ea7671" d="m223.777 278.61-4.047-14.208 16.176.172Zm0 0"/><path fill="#ffcf7f" d="m242.738 162.414-.683 40.879-42.711-20.777Zm0 0"/><path fill="#ffd080" d="m122.594 161.363 37.258-7.726-26.528 29.785Zm0 0"/><path fill="#b7ae80" d="m67.207 311.293-.871 22.785-21.629-2.96Zm0 0"/><path fill="#978f76" d="m67.207 311.293-6.75-27.742 32.895 17.676Zm0 0"/><path fill="#3a6679" d="M24.602 348.61.004 326.495l24.234.18Zm0 0"/><path fill="#4a6774" d="m24.602 348.61-.364-21.934 20.469 4.441Zm0 0"/><path fill="#578180" d="M17.066 305.203.004 326.496l.016-57.715Zm0 0"/><path fill="#93a686" d="m24.238 326.676 8.727-14.078 11.742 18.52Zm0 0"/><path fill="#646068" d="m103.863 271.02-43.406 12.53 16.36-44.116Zm0 0"/><path fill="#796967" d="m85.566 219.363 24.95 13.938-33.7 6.133Zm0 0"/><path fill="#4d4a62" d="m85.566 219.363-8.75 20.07L39.81 217.91Zm0 0"/><path fill="#4d435d" d="m74.656 183.75 10.91 35.613-45.757-1.453Zm0 0"/><path fill="#fccd7f" d="m357.895 340.164-39.82-55.129 65.94 29.098Zm0 0"/><path fill="#795d63" d="m305.094 384-48.813-.016 44.985-33.343Zm0 0"/><path fill="#fece7f" d="m301.266 350.64 16.808-65.605 6.828 51.32Zm0 0"/><path fill="#fecf7f" d="m318.074 285.035-16.808 65.606-25.59-50.012Zm0 0"/><path fill="#fecf7f" d="m301.266 350.64-46.125-11.054 20.535-38.957Zm0 0"/><path fill="#fece7f" d="m145.262 39.988-24.387 17.559L99.418 34.48Zm0 0"/><path fill="#fecf7f" d="m120.875 57.547-16.18 3.598-5.277-26.665Zm0 0"/><path fill="#fecd7f" d="m104.695 61.145 5.29 18.011-26.567-10.125Zm0 0"/><path fill="#fecc7f" d="m99.418 34.48-16 34.551-19.066-22.906Zm0 0"/><path fill="#fecc7f" d="m64.352 46.125 19.066 22.906-40.984 11.133Zm0 0"/><path fill="#fece7f" d="M104.695 61.145 83.418 69.03l16-34.55Zm0 0"/><path fill="#fecd7f" d="m42.434 80.164 40.984-11.133-7.05 28.781Zm0 0"/><path fill="#373b5f" d="M.02 268.781.004 194.25l10.539 70.094Zm0 0"/><path fill="#fecf7f" d="m0 136.043-.004-36.117 36.3 23.21ZM0 136.043l36.297-12.906-13.613 25.957Zm0 0"/><path fill="#fecf7f" d="m0 136.043 22.684 13.05L10.8 155.27Zm0 0"/><path fill="#fecf7f" d="M-.035 163.293 0 136.043l10.8 19.227ZM22.684 149.094l-8.97 9.902-2.913-3.726ZM13.715 158.996l8.969-9.902 2.558 15.304Zm0 0"/><path fill="#3e3659" d="m12.328 173.07 1.387-14.074 11.527 5.402Zm0 0"/><path fill="#463c5b" d="m13.715 158.996-13.75 4.297L10.8 155.27Zm0 0"/><path fill="#3d3b5d" d="m13.715 158.996-1.387 14.074-12.363-9.777Zm0 0"/><path fill="#3b3d5e" d="M12.328 173.07.004 194.25l-.04-30.957Zm0 0"/><path fill="#413b5c" d="M33.82 184.102 12.328 173.07l12.914-8.672Zm0 0"/><path fill="#3b365b" d="m12.328 173.07 21.492 11.032L.004 194.25Zm0 0"/><path fill="#4f415c" d="m40.969 171.273-7.149 12.829-8.578-19.704Zm0 0"/><path fill="#3b3b5d" d="m.004 194.25 33.816-10.148 5.989 33.808Zm0 0"/><path fill="#433c5c" d="m33.82 184.102 22.59-6.11L39.81 217.91Zm0 0"/><path fill="#57495e" d="m33.82 184.102 7.149-12.829 15.441 6.72Zm0 0"/><path fill="#fecf7f" d="m22.684 149.094 28.921 6.16-26.363 9.144Zm0 0"/><path fill="#fecf7f" d="m51.605 155.254-10.636 16.02-15.727-6.876ZM36.297 123.137l15.308 32.117-28.921-6.16Zm0 0"/><path fill="#fccd7f" d="m235.945 0 35.72 34.074-30.376 5.477Zm0 0"/><path fill="#fecf7f" d="m241.29 39.55 30.374-5.476-14.559 14.672ZM145.262 39.988 164.16 0l8.098 42.152Zm0 0"/><path fill="#fdcd7f" d="m164.16 0-18.898 39.988-45.844-5.508Zm0 0"/><path fill="#fecf7f" d="m213.258 45.39-.211 8.715-14.836-2ZM250.82 56.887l-9.53-17.336 15.815 9.195Zm0 0"/><path fill="#fecf7f" d="m241.29 39.55 9.53 17.337-14.976-1.383Zm0 0"/><path fill="#352a55" d="m250.82 56.887-5.093 18.988-9.883-20.371ZM235.844 55.504l-6.375 13.137-5.04-8.817Zm0 0"/><path fill="#352a55" d="m245.727 75.875-16.258-7.234 6.375-13.137Zm0 0"/><path fill="#fcc27f" d="m384 52.047-46.762-13.352L384 0Zm0 0"/><path fill="#f8c67e" d="M337.238 38.695 305.855 0H384Zm0 0"/><path fill="#ffd080" d="m275.313 141.36 31.976 24.581-23.781 25.086Zm0 0"/><path fill="#885763" d="m178.824 266.453 8.82 15.777-3.476 2.133Zm0 0"/><path fill="#fecd7f" d="m219.73 264.402-32.085 17.828-8.82-15.777Zm0 0"/><path fill="#fece7f" d="m192.3 339.27-6.421 6.02-6.856-8.74Zm0 0"/><path fill="#ffd080" d="m229.855 331.34 12.239-26.41 13.047 34.656Zm0 0"/><path fill="#fecf7f" d="m167.875 212.91-7.336-21.652 38.805-8.742Zm0 0"/><path fill="#e36f70" d="m167.875 212.91 10.95 53.543-23.497-42.344Zm0 0"/><path fill="#905263" d="m167.875 212.91 36.617 8.25-25.668 45.293Zm0 0"/><path fill="#7e6464" d="m204.492 221.16 15.238 43.242-40.906 2.051Zm0 0"/><path fill="#c18d70" d="m219.73 264.402-15.238-43.242 31.414 43.414Zm0 0"/><path fill="#ffd080" d="m275.313 141.36-32.575 21.054 4.325-39.129ZM242.738 162.414l-35.027-25.574 39.351-13.555ZM207.71 136.84l35.028 25.574-43.394 20.102Zm0 0"/><path fill="#fccd7f" d="m342.664 107.309-12.848-17.825 25.477 11.961Zm0 0"/><path fill="#fecf7f" d="m89.957 174.438 22.145 2.73-13.215 16.629Zm0 0"/><path fill="#fece7f" d="m74.656 183.75 15.301-9.312 8.93 19.359Zm0 0"/><path fill="#f37071" d="m150.793 213.152 17.082-.242-12.547 11.2Zm0 0"/><path fill="#fec87e" d="m167.875 212.91-17.082.242 9.746-21.894Zm0 0"/><path fill="#f8bd7c" d="m150.793 213.152-26.703-10.285 9.234-19.445Zm0 0"/><path fill="#fecf80" d="m62.621 143.875 18.375 16.613-29.39-5.234Zm0 0"/><path fill="#fecf7f" d="m62.621 143.875-26.324-20.738 32.242-.172Zm0 0"/><path fill="#fecf7f" d="m62.621 143.875-11.016 11.379-15.308-32.117ZM80.996 160.488 73.09 170.73l-21.485-15.476ZM73.09 170.73l1.566 13.02-18.246-5.758ZM51.605 155.254 73.09 170.73l-16.68 7.262ZM89.957 174.438 73.09 170.73l7.906-10.242Zm0 0"/><path fill="#fecf7f" d="m73.09 170.73 16.867 3.708-15.3 9.312Zm0 0"/><path fill="#944061" d="m92.672 130.195 18.562 18.711-22.418-3.77Zm0 0"/><path fill="#352a55" d="m101.8 117.969 3.516-16.922 10.29 8.933ZM91.82 114.383l.239-18.371 13.257 5.035ZM91.82 114.383l9.98 3.586-9.128 12.226Zm0 0"/><path fill="#352a55" d="m101.8 117.969-9.98-3.586 13.496-13.336Zm0 0"/><path fill="#677172" d="m91.855 384-16.832-20.68 28.434-3.722Zm0 0"/><path fill="#867d71" d="M142.824 384H91.855l11.602-24.402Zm0 0"/><path fill="#b8ad7f" d="m46.938 306.207 20.269 5.086-22.5 19.824Zm0 0"/><path fill="#a79e7b" d="m67.207 311.293-20.27-5.086 13.52-22.656Zm0 0"/><path fill="#8b9e83" d="m32.965 312.598 13.972-6.391-2.23 24.91Zm0 0"/><path fill="#3c5970" d="M47.563 359.25 55.734 384H0Zm0 0"/><path fill="#737571" d="m83.836 338.71 29.793-.651-10.172 21.539Zm0 0"/><path fill="#646e71" d="m75.023 363.32 8.813-24.61 19.621 20.888Zm0 0"/><path fill="#717874" d="m83.836 338.71-8.813 24.61-8.687-29.242Zm0 0"/><path fill="#b4a97e" d="m67.207 311.293 16.629 27.418-17.5-4.633Zm0 0"/><path fill="#b9a379" d="m83.836 338.71 9.516-37.483 20.277 36.832Zm0 0"/><path fill="#9e987a" d="m93.352 301.227-9.516 37.484-16.629-27.418Zm0 0"/><path fill="#5a6e74" d="m47.563 359.25-22.961-10.64 20.105-17.493Zm0 0"/><path fill="#637676" d="M66.336 334.078 47.563 359.25l-2.856-28.133Zm0 0"/><path fill="#687373" d="m75.023 363.32-27.46-4.07 18.773-25.172Zm0 0"/><path fill="#5c7779" d="m34.559 298.273-17.493 6.93L.02 268.781Zm0 0"/><path fill="#617476" d="m10.543 264.344 24.016 33.93L.019 268.78Zm0 0"/><path fill="#d6ac77" d="m167.648 361.285 21.653-2.05-.66 24.769Zm0 0"/><path fill="#bc9a73" d="m142.824 384-29.195-45.941 37.926 14.261Zm0 0"/><path fill="#9c9076" d="M113.629 338.059 142.824 384l-39.367-24.402Zm0 0"/><path fill="#fbcd7f" d="m156.855 288.86 9.829 24.105-34.653-3.215Zm0 0"/><path fill="#f8c87e" d="m156.855 288.86 21.97-22.407 5.343 17.91Zm0 0"/><path fill="#e7ba7a" d="m189.3 359.234 29.391 1.961-30.05 22.809Zm0 0"/><path fill="#cfb07a" d="M93.352 301.227 60.457 283.55l43.406-12.531Zm0 0"/><path fill="#57475d" d="M93.645 202.129 74.656 183.75l24.23 10.047Zm0 0"/><path fill="#57465d" d="m93.645 202.129-8.079 17.234-10.91-35.613Zm0 0"/><path fill="#fecf7f" d="m343.465 203.418 7.715-35.844 32.828-4.222ZM343.465 203.418l40.543-40.066-.008 61.984Zm0 0"/><path fill="#fecf7f" d="M343.465 203.418 384 225.336l-36.008 17.543Zm0 0"/><path fill="#fecf7f" d="m309.758 219.871 33.707-16.453 4.527 39.46Zm0 0"/><path fill="#68525f" d="m336.766 384.012 14.316-24.407 32.914 24.399Zm0 0"/><path fill="#ac846d" d="m384.008 360.254-26.113-20.09 26.12-26.031Zm0 0"/><path fill="#c29772" d="m324.902 336.355 32.993 3.81-6.813 19.44Zm0 0"/><path fill="#fdcd7f" d="m318.074 285.035 39.82 55.13-32.992-3.81Zm0 0"/><path fill="#fecf7f" d="m279.813 257.91 38.261 27.125-42.398 15.594Zm0 0"/><path fill="#ffcf80" d="m279.813 257.91-31.106-14.004 23.824-20.246Zm0 0"/><path fill="#fecf7f" d="m301.266 350.64-44.985 33.344-1.14-44.398Zm0 0"/><path fill="#facb7f" d="M71.34.016 164.16 0 99.418 34.48Zm0 0"/><path fill="#fecf7f" d="m160.965 55.707-15.703-15.719 26.996 2.164ZM109.984 79.156l-5.289-18.011 16.18-3.598Zm0 0"/><path fill="#fbc77e" d="M42.434 80.164-.004 99.926V54.258Zm0 0"/><path fill="#fcc57f" d="M32.281 38.14 71.34.017l-6.988 46.109Zm0 0"/><path fill="#fecd7f" d="m235.945 0-31.902 30.336L164.16 0Zm0 0"/><path fill="#352a55" d="m229.469 68.64-11.133-1.644 6.094-7.172Zm0 0"/><path fill="#4b2e57" d="m218.336 66.996 11.133 1.645-3.043 14.289Zm0 0"/><path fill="#352a55" d="m218.336 66.996-5.29-12.89 11.384 5.718Zm0 0"/><path fill="#352a55" d="m213.047 54.105 5.289 12.891-11.516-1.355Zm0 0"/><path fill="#fecf7f" d="m203.313 89.316-4.13 7.13-6.413-4.579ZM255.473 94.55l5.511-11.605 5.61 4.782Zm0 0"/><path fill="#352a55" d="M260.984 82.945 274.394 80l-7.8 7.727ZM213.047 54.105l11.996-1.472-.613 7.191Zm0 0"/><path fill="#fecf7f" d="m225.043 52.633-11.996 1.472.21-8.714Zm0 0"/><path fill="#352a55" d="m225.043 52.633 10.8 2.87-11.413 4.321Zm0 0"/><path fill="#fecf7f" d="m225.043 52.633 16.246-13.082-5.445 15.953Zm0 0"/><path fill="#352a55" d="m213.047 54.105-11.442 4.336-3.394-6.336ZM201.605 58.441l5.215 7.2-19.754-2.61Zm0 0"/><path fill="#352a55" d="m201.605 58.441 11.442-4.336-6.227 11.536Zm0 0"/><path fill="#fecf7f" d="m245.727 75.875 6.937 4.969-8.398 5.816Zm0 0"/><path fill="#fecf80" d="m252.664 80.844 2.809 13.707-11.207-7.89Zm0 0"/><path fill="#fecf7f" d="m255.473 94.55-2.809-13.706 8.32 2.101Zm0 0"/><path fill="#352a55" d="m260.309 71.105-14.582 4.77 5.093-18.988ZM260.309 71.105l-7.645 9.739-6.937-4.969Zm0 0"/><path fill="#352a55" d="m252.664 80.844 7.645-9.739.675 11.84Zm0 0"/><path fill="#352a55" d="m274.395 80-14.086-8.895 17.652 1.633Zm0 0"/><path fill="#352a55" d="M260.309 71.105 274.395 80l-13.41 2.945Zm0 0"/><path fill="#fecf7f" d="m226.426 82.93 19.3-7.055-1.46 10.785Zm0 0"/><path fill="#502f58" d="m226.426 82.93 3.043-14.29 16.258 7.235Zm0 0"/><path fill="#ffcf80" d="m274.441 91.18 11.645 9.23-16.774 3.66Zm0 0"/><path fill="#352a55" d="m274.441 91.18-7.847-3.453 7.8-7.727Zm0 0"/><path fill="#fecf7f" d="m274.441 91.18-7.507 2.449-.34-5.902Zm0 0"/><path fill="#ffd080" d="m266.934 93.629 7.507-2.45-5.128 12.891ZM301.344 114.39l-7.383 11.352-7.875-25.332Zm0 0"/><path fill="#352a55" d="m318.793 123.14-17.45-8.75 9.09-9.992Zm0 0"/><path fill="#fecf7f" d="m272.531 223.66-23.824 20.246-6.652-40.613Zm0 0"/><path fill="#fecf7f" d="m242.055 203.293 6.652 40.613-44.215-22.746Zm0 0"/><path fill="#ffd080" d="m279.813 257.91-29.52 14.563-1.586-28.567ZM250.293 272.473l29.52-14.563-4.137 42.719Zm0 0"/><path fill="#954e63" d="m235.906 264.574-31.414-43.414 44.215 22.746Zm0 0"/><path fill="#fecf7f" d="m384.008 163.352-32.828 4.222 8.722-20.844Zm0 0"/><path fill="#ffd080" d="m299.64 141.145 7.65 24.796-31.978-24.582Zm0 0"/><path fill="#ffd080" d="m299.64 141.145-24.327.214 18.648-15.617ZM307.29 165.941l-7.65-24.796 12.895 3.792Zm0 0"/><path fill="#fecd7f" d="m223.777 278.61-36.132 3.62 32.085-17.828Zm0 0"/><path fill="#fecf7f" d="m219.523 314.922 22.57-9.992-12.238 26.41Zm0 0"/><path fill="#ffd080" d="m242.094 304.93 8.199-32.457 25.383 28.156ZM255.14 339.586l-13.046-34.656 33.582-4.301Zm0 0"/><path fill="#fecf7f" d="m204.492 221.16-36.617-8.25 31.469-30.394ZM242.055 203.293l-37.563 17.867-5.148-38.644Zm0 0"/><path fill="#ffd080" d="m275.313 141.36-28.25-18.075 22.25-19.215Zm0 0"/><path fill="#fecf7f" d="M384.008 97.375v65.977l-17.469-36.918Zm0 0"/><path fill="#fecf7f" d="m346.074 70.574 37.934 26.801-28.715 4.07Zm0 0"/><path fill="#352a55" d="m342.664 107.309-11.793 5.605-1.055-23.43Zm0 0"/><path fill="#352a55" d="m310.434 104.398 20.437 8.516-12.078 10.227Zm0 0"/><path fill="#fec17e" d="m112.102 177.168 10.492-15.805 10.73 22.059Zm0 0"/><path fill="#fecf7f" d="m104.02 160.383 18.574.98-10.492 15.805ZM104.02 160.383l-14.063 14.054-8.96-13.949Zm0 0"/><path fill="#fecf7f" d="m89.957 174.438 14.063-14.055 8.082 16.785Zm0 0"/><path fill="#fece7f" d="m160.54 191.258-9.747 21.894-17.469-29.73Zm0 0"/><path fill="#fecf7f" d="m159.852 153.637.687 37.62-27.215-7.835Zm0 0"/><path fill="#6f5660" d="m110.516 233.3 26.535-8.265 2.347 24.535Zm0 0"/><path fill="#6c5260" d="m139.398 249.57-2.347-24.535 18.277-.926Zm0 0"/><path fill="#634d5e" d="m137.05 225.035 13.743-11.883 4.535 10.957Zm0 0"/><path fill="#f9c17d" d="m124.09 202.867-12.309-5.14 21.543-14.305Zm0 0"/><path fill="#fac87e" d="m112.102 177.168-.32 20.559-12.895-3.93Zm0 0"/><path fill="#fecc7f" d="m111.781 197.727.32-20.559 21.223 6.254Zm0 0"/><path fill="#6c5660" d="m104.918 206.855 6.863-9.128 12.309 5.14Zm0 0"/><path fill="#fecf80" d="m130.29 144.797-7.696 16.566-1.473-14.258Zm0 0"/><path fill="#ffd080" d="m159.852 153.637 47.859-16.797-8.367 45.676Zm0 0"/><path fill="#352a55" d="m80.793 145.566 11.879-15.37-3.856 14.94ZM92.672 130.195l-11.879 15.371-4.012-14.765Zm0 0"/><path fill="#fecf7f" d="m80.793 145.566-18.172-1.691 14.16-13.074ZM104.02 160.383l7.214-11.477 11.36 12.457Zm0 0"/><path fill="#fecf80" d="m122.594 161.363-11.36-12.457 9.887-1.8Zm0 0"/><path fill="#fecf7f" d="m62.621 143.875 5.918-20.91 8.242 7.836Zm0 0"/><path fill="#f5c27d" d="m83.418 69.031 26.566 10.125L92.06 96.012Zm0 0"/><path fill="#fecf7f" d="m42.434 80.164 33.933 17.649-9.523 12.378Zm0 0"/><path fill="#606e72" d="M91.855 384h-36.12l19.288-20.68Zm0 0"/><path fill="#838173" d="m132.031 309.75-18.402 28.309-20.277-36.832Zm0 0"/><path fill="#d1a877" d="m113.629 338.059 18.402-28.309 19.524 42.57Zm0 0"/><path fill="#677373" d="m60.457 283.55-25.898 14.723-.223-31.68Zm0 0"/><path fill="#919b80" d="m46.938 306.207-12.38-7.934 25.899-14.722Zm0 0"/><path fill="#6e7d77" d="m34.559 298.273-24.016-33.93 23.793 2.25Zm0 0"/><path fill="#bab282" d="m34.559 298.273 12.379 7.934-13.973 6.39Zm0 0"/><path fill="#31536f" d="m0 384 .004-57.504 24.598 22.113Zm0 0"/><path fill="#385870" d="M47.563 359.25 0 384l24.602-35.39Zm0 0"/><path fill="#9aac87" d="m.004 326.496 17.062-21.293 7.172 21.473Zm0 0"/><path fill="#c39d73" d="m142.824 384 24.824-22.715 20.993 22.719Zm0 0"/><path fill="#c8a074" d="M167.648 361.285 142.824 384l8.73-31.68Zm0 0"/><path fill="#fbcc7f" d="m167.852 347.316-.204 13.97-16.093-8.966Zm0 0"/><path fill="#cba575" d="m178.824 266.453-40.281 3.988.855-20.87Zm0 0"/><path fill="#facb7e" d="m156.855 288.86-18.312-18.419 40.281-3.988Zm0 0"/><path fill="#ac8e70" d="m138.543 270.441-34.68.579 35.535-21.45Zm0 0"/><path fill="#f6c87e" d="m138.543 270.441 18.312 18.418-24.824 20.891Zm0 0"/><path fill="#fecf7f" d="m195.914 349.21 22.777 11.985-29.39-1.96ZM195.914 349.21l-6.613 10.024-3.422-13.945Zm0 0"/><path fill="#fecf7f" d="m192.3 339.27 3.614 9.94-10.035-3.92Zm0 0"/><path fill="#e1bb7c" d="m103.863 271.02 28.168 38.73-38.68-8.523Zm0 0"/><path fill="#dbb278" d="m103.863 271.02 34.68-.579-6.512 39.309Zm0 0"/><path fill="#654f5f" d="m351.082 359.605 32.926.649-.012 23.75Zm0 0"/><path fill="#9e7b6a" d="m384.008 360.254-32.926-.649 6.813-19.44Zm0 0"/><path fill="#fecf7f" d="m279.813 257.91 29.945-38.039 8.316 65.164Zm0 0"/><path fill="#fecf7f" d="m309.758 219.871-29.945 38.04-7.282-34.25ZM318.074 285.035l-8.316-65.164 38.234 23.008Zm0 0"/><path fill="#62335a" d="m172.215 89.648 10.914-11.48 9.64 13.7Zm0 0"/><path fill="#352a55" d="m176.152 54.777 7.41-2 3.504 10.254Zm0 0"/><path fill="#fecf7f" d="m183.563 52.777-7.41 2-3.895-12.625ZM176.152 54.777l-15.187.93 11.293-13.555Zm0 0"/><path fill="#a84364" d="m167.547 70.922 4.668 18.726-26.664-4.761Zm0 0"/><path fill="#5f335a" d="m183.129 78.168-15.582-7.246 19.52-7.89Zm0 0"/><path fill="#873c5f" d="m167.547 70.922 15.582 7.246-10.914 11.48Zm0 0"/><path fill="#352a55" d="m167.547 70.922 8.605-16.145 10.914 8.254Zm0 0"/><path fill="#352a55" d="m176.152 54.777-8.605 16.145-6.582-15.215Zm0 0"/><path fill="#fecf7f" d="m145.262 39.988.746 20.309-25.133-2.75Zm0 0"/><path fill="#fdcb7f" d="m160.965 55.707-14.957 4.59-.746-20.309Zm0 0"/><path fill="#372a55" d="m146.008 60.297 21.539 10.625-21.996 13.965Zm0 0"/><path fill="#352a55" d="m167.547 70.922-21.54-10.625 14.958-4.59Zm0 0"/><path fill="#fdc47f" d="m32.281 38.14 32.07 7.985-21.917 34.04Zm0 0"/><path fill="#fab67e" d="M71.34.016 32.28 38.14-.004.004Zm0 0"/><path fill="#fecf7f" d="m212.96 84.504 13.466-1.574-9.649 10.629Zm0 0"/><path fill="#442d57" d="m212.96 84.504 5.376-17.508 8.09 15.934Zm0 0"/><path fill="#442d57" d="m218.336 66.996-5.375 17.508-6.14-18.863Zm0 0"/><path fill="#fecf7f" d="m203.313 89.316 9.648-4.812 3.816 9.055Zm0 0"/><path fill="#402c56" d="m198.172 79.063 5.14 10.253-10.542 2.551Zm0 0"/><path fill="#4a2e57" d="m206.82 65.64-8.648 13.423-11.106-16.032Zm0 0"/><path fill="#64345b" d="m212.96 84.504-14.788-5.442 8.648-13.421Zm0 0"/><path fill="#3c2b56" d="m198.172 79.063 14.789 5.44-9.649 4.813Zm0 0"/><path fill="#4b2e57" d="m183.129 78.168 15.043.894-5.402 12.805Zm0 0"/><path fill="#5e335a" d="m198.172 79.063-15.043-.895 3.937-15.137Zm0 0"/><path fill="#fecf7f" d="m186.926 38.996-3.363 13.781-11.305-10.625Zm0 0"/><path fill="#fecf7f" d="m164.16 0 22.766 38.996-14.668 3.156Zm0 0"/><path fill="#ffd080" d="m266.934 93.629-11.461.922 11.12-6.824Zm0 0"/><path fill="#ffd080" d="m255.473 94.55 11.46-.921 2.38 10.441Zm0 0"/><path fill="#fdce7f" d="m346.074 70.574-16.258 18.91-16.996-13.882Zm0 0"/><path fill="#fece7f" d="m314.32 60.8-14.062-15.19 36.98-6.915Zm0 0"/><path fill="#fecf7f" d="m346.074 70.574-31.754-9.773 22.918-22.106ZM267.027 59.523l-16.207-2.636 6.285-8.14Zm0 0"/><path fill="#fecf7f" d="m271.664 34.074-4.637 25.45-9.922-10.778Zm0 0"/><path fill="#fecf7f" d="m283.047 54.672-16.02 4.851 4.637-25.449Zm0 0"/><path fill="#352a55" d="m260.309 71.105 6.718-11.582 10.934 13.215ZM267.027 59.523l-6.718 11.582-9.489-14.218Zm0 0"/><path fill="#352a55" d="m267.027 59.523 13.442 3.914-2.508 9.301Zm0 0"/><path fill="#fecf7f" d="m267.027 59.523 16.02-4.851-2.578 8.766Zm0 0"/><path fill="#fecf7f" d="m293.852 67.09-13.383-3.653 2.578-8.765Zm0 0"/><path fill="#352a55" d="m280.469 63.438 13.383 3.652-15.891 5.648ZM183.563 52.777l14.648-.672-11.145 10.926Zm0 0"/><path fill="#352a55" d="m198.21 52.105 3.395 6.336-14.539 4.59Zm0 0"/><path fill="#fecf7f" d="m186.926 38.996 11.285 13.11-14.649.671Zm0 0"/><path fill="#fece7f" d="m198.21 52.105-11.284-13.109 17.117-8.66Zm0 0"/><path fill="#fecd7f" d="M204.043 30.336 235.945 0 222.81 36.3Zm0 0"/><path fill="#fecd7f" d="m235.945 0 5.344 39.55-18.48-3.25Zm0 0"/><path fill="#f8ca7e" d="m305.855 0-34.19 34.074L235.944 0Zm0 0"/><path fill="#f9ca7e" d="m300.258 45.61-28.594-11.536L305.855 0Zm0 0"/><path fill="#fac77e" d="m337.238 38.695-36.98 6.914L305.855 0Zm0 0"/><path fill="#fecf7f" d="m346.074 70.574-8.836-31.879L384 52.047ZM329.816 89.484l16.258-18.91 9.219 30.871Zm0 0"/><path fill="#352a55" d="m295.629 86.016 20.844 8.89-6.04 9.492Zm0 0"/><path fill="#fecf7f" d="m310.094 129.27-16.133-3.528 7.383-11.351Zm0 0"/><path fill="#352a55" d="m318.793 123.14-8.7 6.13-8.75-14.88Zm0 0"/><path fill="#fecf7f" d="m250.293 272.473-14.387-7.899 12.801-20.668Zm0 0"/><path fill="#fecf7f" d="m223.777 278.61 12.13-14.036 14.386 7.899Zm0 0"/><path fill="#fece7f" d="m188.273 288.809 35.504-10.2-6.996 19.27Zm0 0"/><path fill="#b4886e" d="m188.273 288.809-4.105-4.446 3.477-2.133Zm0 0"/><path fill="#fecd7f" d="m223.777 278.61-35.504 10.199-.628-6.579Zm0 0"/><path fill="#f1c37c" d="m166.684 312.965 17.484-28.602 4.105 4.446Zm0 0"/><path fill="#fbcb7f" d="m156.855 288.86 27.313-4.497-17.484 28.602Zm0 0"/><path fill="#352a55" d="m204.816 302.516-16.543-13.707 28.508 9.07Zm0 0"/><path fill="#fdcd7f" d="m204.816 302.516-10.82 8.472-5.723-22.18Zm0 0"/><path fill="#352a55" d="m193.996 310.988 10.82-8.472 1.055 7.554Zm0 0"/><path fill="#fecf7f" d="m213.809 325.063 5.714-10.141 10.332 16.418Zm0 0"/><path fill="#352a55" d="m219.523 314.922-5.714 10.14-1.098-11.437ZM213.809 325.063l-9.032.867 7.934-12.305ZM205.871 310.07l12.406-7.457-5.566 11.012Zm0 0"/><path fill="#fdcf7f" d="m218.277 302.613 1.246 12.309-6.812-1.297Zm0 0"/><path fill="#403357" d="m218.277 302.613-13.46-.097 11.964-4.637Zm0 0"/><path fill="#352a55" d="m204.816 302.516 13.461.097-12.406 7.457Zm0 0"/><path fill="#fecf7f" d="m219.523 314.922-1.246-12.309 23.817 2.317Zm0 0"/><path fill="#352a55" d="m194.488 328.566-2.187 10.704-13.278-2.72Zm0 0"/><path fill="#ffd080" d="m286.086 100.41-10.774 40.95-6-37.29ZM293.96 125.742l-18.647 15.617 10.773-40.949Zm0 0"/><path fill="#fecf7f" d="m209.543 104.07-6.23-14.754 13.464 4.243Zm0 0"/><path fill="#ffcf80" d="m209.543 104.07-19.477 4.368 9.118-11.993Zm0 0"/><path fill="#fecf7f" d="m203.313 89.316 6.23 14.754-10.36-7.625Zm0 0"/><path fill="#ffd080" d="m247.063 123.285 8.41-28.734 13.84 9.52Zm0 0"/><path fill="#fecf7f" d="m384.008 97.375-37.934-26.8L384 52.046ZM319.695 140.727l4.594 10.64-11.754-6.43Zm0 0"/><path fill="#ffd080" d="m324.29 151.367-17 14.574 5.245-21.004Zm0 0"/><path fill="#352a55" d="m351.074 128.785-20.203-15.87 11.793-5.606Zm0 0"/><path fill="#fecf7f" d="m384.008 163.352-24.106-16.622 6.637-20.296Zm0 0"/><path fill="#fecf80" d="m359.902 146.73-8.828-17.945 15.465-2.351Zm0 0"/><path fill="#fecf7f" d="m351.074 128.785 8.828 17.945-11.84-2.988Zm0 0"/><path fill="#352a55" d="m334.953 133.492-16.16-10.351 12.078-10.227Zm0 0"/><path fill="#352a55" d="m318.793 123.14 16.16 10.352-15.258 7.235ZM351.074 128.785l-16.12 4.707-4.083-20.578Zm0 0"/><path fill="#352a55" d="m334.953 133.492 16.121-4.707-3.012 14.957Zm0 0"/><path fill="#fecf7f" d="m351.18 167.574-4.375-6.781 13.097-14.063ZM346.805 160.793l1.257-17.05 11.84 2.987ZM351.074 128.785l4.219-27.34 11.246 24.989Zm0 0"/><path fill="#fecf7f" d="m355.293 101.445-4.219 27.34-8.41-21.476ZM355.293 101.445l28.715-4.07-17.469 29.059Zm0 0"/><path fill="#352a55" d="m330.871 112.914-14.398-18.008 13.343-5.422Zm0 0"/><path fill="#352a55" d="m316.473 94.906 14.398 18.008-20.437-8.516Zm0 0"/><path fill="#6a525f" d="m137.05 225.035-12.96-22.168 26.703 10.285Zm0 0"/><path fill="#644f5f" d="m124.09 202.867 12.96 22.168-26.534 8.266Zm0 0"/><path fill="#5d4a5d" d="m104.918 206.855 19.172-3.988-13.574 30.434Zm0 0"/><path fill="#5d4b5d" d="m104.918 206.855-11.273-4.726 5.242-8.332Zm0 0"/><path fill="#6b5660" d="m111.781 197.727-6.863 9.128-6.031-13.058Zm0 0"/><path fill="#51425b" d="m93.645 202.129 11.273 4.726-19.352 12.508Zm0 0"/><path fill="#55465d" d="m85.566 219.363 19.352-12.508 5.598 26.446Zm0 0"/><path fill="#973e61" d="m101.8 117.969 18.876 19.058-28.004-6.832Zm0 0"/><path fill="#462d57" d="m120.676 137.027-9.442 11.88-18.562-18.712Zm0 0"/><path fill="#fecf7f" d="m111.234 148.906 9.442-11.879.445 10.078Zm0 0"/><path fill="#ffcf80" d="m120.676 137.027 9.613 7.77-9.168 2.308Zm0 0"/><path fill="#fecf7f" d="m62.621 143.875 18.457 8.883-.082 7.73Zm0 0"/><path fill="#fecf7f" d="m80.793 145.566.285 7.192-18.457-8.883ZM36.297 123.137l6.137-42.973 24.41 30.027Zm0 0"/><path fill="#352a55" d="m91.82 114.383-7.289-5.95 7.528-12.421ZM76.781 130.8l2.899-8.37 12.992 7.765Zm0 0"/><path fill="#352a55" d="m79.68 122.43 12.14-8.047.852 15.812Zm0 0"/><path fill="#636e71" d="m55.734 384-8.172-24.75 27.461 4.07Zm0 0"/><path fill="#b8b987" d="m17.066 305.203 15.899 7.395-8.727 14.078Zm0 0"/><path fill="#abab82" d="m17.066 305.203 17.493-6.93-1.594 14.325Zm0 0"/><path fill="#fccd7f" d="m167.648 361.285 7.79-11.047 13.863 8.996Zm0 0"/><path fill="#fecf7f" d="m189.3 359.234-13.863-8.996 10.442-4.949Zm0 0"/><path fill="#f9cb7e" d="m175.438 350.238-7.79 11.047.204-13.969Zm0 0"/><path fill="#352a55" d="m185.879 345.29-10.441 4.948 3.585-13.687Zm0 0"/><path fill="#392d55" d="m175.438 350.238-7.586-2.922 11.171-10.765Zm0 0"/><path fill="#fecf7f" d="m202.008 344.14-6.094 5.07-3.613-9.94Zm0 0"/><path fill="#e2b679" d="m188.64 384.004 30.051-22.809 37.59 22.79Zm0 0"/><path fill="#472e57" d="m176.105 99.504-3.89-9.856 20.555 2.22Zm0 0"/><path fill="#ffd080" d="m159.852 153.637 13.507-32.196 34.352 15.399Zm0 0"/><path fill="#fecf7f" d="m127.094 68.652-17.11 10.504 10.891-21.61Zm0 0"/><path fill="#fecf7f" d="m146.008 60.297-18.914 8.355-6.219-11.105Zm0 0"/><path fill="#352a55" d="m127.094 68.652-.031 26.57-17.079-16.066ZM127.094 68.652l18.914-8.355-.457 24.59Zm0 0"/><path fill="#352a55" d="m127.063 95.223.03-26.57 18.458 16.234ZM105.316 101.047l21.746-5.824-11.457 14.757ZM109.984 79.156l-4.668 21.89-13.257-5.034Zm0 0"/><path fill="#352a55" d="m127.063 95.223-21.747 5.824 4.668-21.89Zm0 0"/><path fill="#fbc57e" d="M-.004 54.258 32.281 38.14l10.153 42.023Zm0 0"/><path fill="#fcc57e" d="M32.281 38.14-.004 54.259V.004Zm0 0"/><path fill="#fecc7f" d="M186.926 38.996 164.16 0l39.883 30.336Zm0 0"/><path fill="#fecf7f" d="m300.258 45.61-6.406 21.48-10.805-12.418ZM300.258 45.61l-17.211 9.062-11.383-20.598ZM293.852 67.09l6.406-21.48L314.32 60.8Zm0 0"/><path fill="#fecd7f" d="m204.043 30.336 18.766 5.965-9.551 9.09Zm0 0"/><path fill="#fecf7f" d="m222.809 36.3 2.234 16.333-11.785-7.242Zm0 0"/><path fill="#fecf7f" d="M225.043 52.633 222.809 36.3l18.48 3.25ZM312.82 75.602l-18.968-8.512 20.468-6.29ZM312.82 75.602l1.5-14.801 31.754 9.773Zm0 0"/><path fill="#352a55" d="M295.629 86.016 274.395 80l3.566-7.262ZM290.766 93.516l4.863-7.5 14.805 18.382Zm0 0"/><path fill="#352a55" d="m295.629 86.016-4.863 7.5L274.395 80Zm0 0"/><path fill="#352a55" d="M290.766 93.516 274.44 91.18 274.395 80Zm0 0"/><path fill="#352a55" d="m274.441 91.18 16.325 2.336-4.68 6.894ZM301.344 114.39l-10.578-20.874 19.668 10.882ZM290.766 93.516l10.578 20.875-15.258-13.98Zm0 0"/><path fill="#ffd080" d="m310.094 129.27-10.453 11.875-5.68-15.403Zm0 0"/><path fill="#ffd080" d="m299.64 141.145 10.454-11.875 2.441 15.667Zm0 0"/><path fill="#fecf7f" d="m310.094 129.27 9.601 11.457-7.16 4.21Zm0 0"/><path fill="#352a55" d="m310.094 129.27 8.699-6.13.902 17.587Zm0 0"/><path fill="#f7c87e" d="m166.684 312.965 1.168 34.351-16.297 5.004Zm0 0"/><path fill="#e3b779" d="m132.031 309.75 34.653 3.215-15.13 39.355Zm0 0"/><path fill="#fecf7f" d="m225.04 279.906 25.253-7.433-8.2 32.457Zm0 0"/><path fill="#f8c57d" d="m218.277 302.613 6.762-22.707 17.055 25.024Zm0 0"/><path fill="#352a55" d="m225.04 279.906-6.763 22.707-1.496-4.734Zm0 0"/><path fill="#fecd7f" d="m250.293 272.473-25.254 7.433-1.262-1.297Zm0 0"/><path fill="#3c2f56" d="m223.777 278.61 1.262 1.296-8.258 17.973Zm0 0"/><path fill="#352a55" d="m189.363 323.016 5.125 5.55-15.465 7.985Zm0 0"/><path fill="#fece7f" d="m189.363 323.016-22.68-10.051 21.59-24.156Zm0 0"/><path fill="#352a55" d="m193.996 310.988-4.633 12.028-1.09-34.207ZM194.488 328.566l3.555-9.14 6.734 6.504Zm0 0"/><path fill="#352a55" d="m204.777 325.93-6.734-6.504 14.668-5.801Zm0 0"/><path fill="#fdce7f" d="m198.043 319.426-8.68 3.59 4.633-12.028Zm0 0"/><path fill="#352a55" d="m189.363 323.016 8.68-3.59-3.555 9.14ZM198.043 319.426l7.828-9.356 6.84 3.555Zm0 0"/><path fill="#352a55" d="m198.043 319.426-4.047-8.438 11.875-.918Zm0 0"/><path fill="#ffd080" d="m209.543 104.07-1.832 32.77-17.645-28.403ZM231.46 104.91l-21.917-.84 7.234-10.511Zm0 0"/><path fill="#ffd080" d="m226.426 82.93 5.035 21.98-14.684-11.351ZM244.266 86.66l-12.805 18.25-5.035-21.98Zm0 0"/><path fill="#fecf7f" d="m335.074 163.977 11.73-3.184 4.376 6.781Zm0 0"/><path fill="#fecf7f" d="m335.074 163.977 16.106 3.597-7.715 35.844ZM307.29 165.941l27.784-1.964 8.39 39.441ZM324.29 151.367l10.784 12.61-27.785 1.964Zm0 0"/><path fill="#352a55" d="m335.082 147.645-.129-14.153 13.11 10.25Zm0 0"/><path fill="#352a55" d="m346.805 160.793-11.723-13.148 12.98-3.903ZM334.953 133.492l.129 14.153-15.387-6.918Zm0 0"/><path fill="#352a55" d="m335.074 163.977.008-16.332 11.723 13.148ZM335.082 147.645l-10.793 3.722-4.594-10.64Zm0 0"/><path fill="#352a55" d="m335.082 147.645-.008 16.332-10.785-12.61ZM111.234 148.906l-24.601 3.383 2.183-7.152Zm0 0"/><path fill="#352a55" d="m86.633 152.29-5.84-6.724 8.023-.43Zm0 0"/><path fill="#352a55" d="m86.633 152.29-5.555.468-.285-7.192ZM86.633 152.29l24.601-3.384-7.214 11.477Zm0 0"/><path fill="#fecf7f" d="m86.633 152.29 17.387 8.093-23.024.105Zm0 0"/><path fill="#fecf7f" d="m81.078 152.758 5.555-.469-5.637 8.2ZM76.367 97.813l1.363 11.085-10.886 1.293ZM68.54 122.965l-32.243.172 30.547-12.946ZM68.54 122.965l11.14-.535-2.899 8.37Zm0 0"/><path fill="#fecf80" d="m77.73 108.898 1.641 7.41-12.527-6.117Zm0 0"/><path fill="#fecf7f" d="m79.371 116.309-1.64-7.41 6.8-.465ZM79.371 116.309l-10.832 6.656-1.695-12.774ZM68.54 122.965l10.831-6.656.309 6.12Zm0 0"/><path fill="#352a55" d="m79.371 116.309 5.16-7.875 7.29 5.949ZM79.68 122.43l-.309-6.121 12.45-1.926ZM213.809 325.063l-2.723 12.578-6.309-11.711Zm0 0"/><path fill="#fecf7f" d="m256.281 383.984-37.59-22.789 36.45-21.61Zm0 0"/><path fill="#fecf7f" d="m218.691 361.195 11.164-29.855 25.286 8.246ZM202.008 344.14l16.683 17.055-22.777-11.984Zm0 0"/><path fill="#fecf80" d="m176.105 99.504 13.961 8.933-16.707 13.004Zm0 0"/><path fill="#ffd080" d="m173.36 121.441 16.706-13.004 17.645 28.403Zm0 0"/><path fill="#fecf7f" d="m199.184 96.445-9.118 11.993 2.704-16.57Zm0 0"/><path fill="#fecf7f" d="m190.066 108.438-13.96-8.934 16.664-7.637Zm0 0"/><path fill="#7b395e" d="m172.215 89.648-10.738 17.77-15.926-22.531Zm0 0"/><path fill="#3e2c56" d="m176.105 99.504-14.628 7.914 10.738-17.77Zm0 0"/><path fill="#ffd080" d="m161.477 107.418 14.628-7.914-2.746 21.937Zm0 0"/><path fill="#ffd080" d="m148.332 116.191 13.145-8.773 11.882 14.023ZM159.852 153.637l-11.52-37.446 25.027 5.25Zm0 0"/><path fill="#352a55" d="m174.516 325.582 14.847-2.566-10.34 13.535Zm0 0"/><path fill="#fecf7f" d="m189.363 323.016-14.847 2.566-7.832-12.617Zm0 0"/><path fill="#fccd7f" d="m167.852 347.316 6.664-21.734 4.507 10.969Zm0 0"/><path fill="#f4c67d" d="m166.684 312.965 7.832 12.617-6.664 21.734Zm0 0"/><path fill="#ffd080" d="m207.71 136.84 23.75-31.93 15.602 18.375Zm0 0"/><path fill="#ffd080" d="m231.46 104.91-23.75 31.93 1.833-32.77ZM247.063 123.285 231.46 104.91l24.012-10.36Zm0 0"/><path fill="#ffd080" d="m231.46 104.91 12.806-18.25 11.207 7.89Zm0 0"/><path fill="#fbc97e" d="m76.367 97.813 7.051-28.782 8.64 26.98Zm0 0"/><path fill="#fecf7f" d="m84.531 108.434-8.164-10.621 15.692-1.801Zm0 0"/><path fill="#fecf7f" d="m77.73 108.898-1.363-11.085 8.164 10.62Zm0 0"/><path fill="#352a55" d="m211.086 337.64-10.227-2.55 3.918-9.16Zm0 0"/><path fill="#352a55" d="m200.86 335.09 10.226 2.55-9.078 6.5Zm0 0"/><path fill="#352a55" d="m200.86 335.09 1.148 9.05-9.707-4.87ZM194.488 328.566l6.371 6.524-8.558 4.18ZM200.86 335.09l-6.372-6.524 10.29-2.636Zm0 0"/><path fill="#fdce7f" d="m211.086 337.64 3.355 2.301-12.433 4.2Zm0 0"/><path fill="#fecf7f" d="m214.441 339.941 4.25 21.254-16.683-17.054Zm0 0"/><path fill="#ffd080" d="m159.852 153.637-21.012-28.965 9.492-8.48ZM130.29 144.797l29.562 8.84-37.258 7.726Zm0 0"/><path fill="#fecf7f" d="m138.84 124.672-8.55 20.125-9.614-7.77Zm0 0"/><path fill="#ffd080" d="m130.29 144.797 8.55-20.125 21.012 28.965Zm0 0"/><path fill="#352a55" d="m293.852 67.09.59 8.101-16.481-2.453ZM294.441 75.191l1.188 10.825-17.668-13.278Zm0 0"/><path fill="#362a55" d="m312.82 75.602-18.379-.41-.59-8.102Zm0 0"/><path fill="#362a55" d="M295.629 86.016 294.44 75.19l18.38.41Zm0 0"/><path fill="#352a55" d="m329.816 89.484-13.343 5.422-3.653-19.304Zm0 0"/><path fill="#352a55" d="m316.473 94.906-20.844-8.89 17.191-10.414Zm0 0"/><path fill="#fecf7f" d="m218.691 361.195-4.25-21.254 15.414-8.601Zm0 0"/><path fill="#fecf7f" d="m214.441 339.941-.632-14.878 16.046 6.277Zm0 0"/><path fill="#fecf7f" d="m214.441 339.941-3.355-2.3 2.723-12.579Zm0 0"/><path fill="#6a355b" d="m138.84 124.672-18.164 12.355-5.07-27.047Zm0 0"/><path fill="#573159" d="M120.676 137.027 101.8 117.97l13.804-7.989Zm0 0"/><path fill="#352a55" d="m138.98 108.746 22.497-1.328-13.145 8.773Zm0 0"/><path fill="#352a55" d="m138.84 124.672.14-15.926 9.352 7.445Zm0 0"/><path fill="#973f61" d="m138.98 108.746-11.917-13.523 18.488-10.336Zm0 0"/><path fill="#4d2f58" d="m161.477 107.418-22.497 1.328 6.57-23.86Zm0 0"/><path fill="#63335b" d="m127.063 95.223 11.917 13.523-23.375 1.234Zm0 0"/><path fill="#352a55" d="m138.98 108.746-.14 15.926-23.235-14.692Zm0 0"/></svg>