<svg xmlns="http://www.w3.org/2000/svg" width="512" height="512" viewBox="0 0 384 384"><path fill="#fecf7f" d="m214.441 232.2 42.754-.157-42.523 6.77Zm0 0"/><path fill="#7a6263" d="m240.98 275.066 25.223 38.04-48.512-10.239Zm0 0"/><path fill="#352b55" d="m-.012 201.219.008-14.051 18.164-.012Zm0 0"/><path fill="#21fadc" d="m166.64 358.188 32.813.515L165.582 384Zm0 0"/><path fill="#5e4c5d" d="m199.453 358.703-32.812-.515 20.586-28.735Zm0 0"/><path fill="#d0ad78" d="m166.64 358.188-4.355-48.782 24.942 20.047Zm0 0"/><path fill="#fecf7f" d="m257.195 232.043-17.554 21-24.97-14.23Zm0 0"/><path fill="#362a55" d="m230.672 207.191 26.523 24.852-42.754.156Zm0 0"/><path fill="#d1aa76" d="m266.203 313.105-31.77 33.739-16.742-43.977Zm0 0"/><path fill="#382c55" d="m200.387 284.223 40.593-9.157-23.289 27.801Zm0 0"/><path fill="#352a55" d="m200.387 284.223-38.102 25.183 17.324-51.332ZM200.387 284.223l39.254-31.18 1.34 22.023Zm0 0"/><path fill="#977b69" d="m240.98 275.066 19.528-1.472 5.695 39.511Zm0 0"/><path fill="#362b55" d="m194.512 200.766 2.73 32.832-21.828 2.18Zm0 0"/><path fill="#fecf7f" d="m197.242 233.598-17.633 24.476-4.195-22.297ZM197.242 233.598l17.2-1.399.23 6.613Zm0 0"/><path fill="#372c55" d="m197.242 233.598-2.73-32.832 19.93 31.433Zm0 0"/><path fill="#1cfbde" d="m172.563 0-52.875 41.57L113.246 0Zm0 0"/><path fill="#6aeabc" d="M85.563 25.2 63.16-.017 113.246 0Zm0 0"/><path fill="#6ed5ae" d="M85.563 25.2 65.02 32.468 63.16-.016Zm0 0"/><path fill="#2bf8d8" d="m266.203 313.105 10.906-36.726 15.329 20.902Zm0 0"/><path fill="#f6cf82" d="m260.508 273.594 16.601 2.785-10.906 36.726Zm0 0"/><path fill="#1ff8db" d="m261.805 111.383 13.968 10.25-30.804 9.512Zm0 0"/><path fill="#f0d286" d="m199.074 37.914 6.598 18.293-37.91-9.39Zm0 0"/><path fill="#fdd080" d="m205.672 56.207-6.598-18.293 40.828 10.469Zm0 0"/><path fill="#a5866d" d="m179.61 258.074-9.348-1.316 5.152-20.98Zm0 0"/><path fill="#fecf7f" d="m170.262 256.758-16.106-18.453 21.258-2.528Zm0 0"/><path fill="#fecf7f" d="M154.156 238.305 169.2 208.68l6.215 27.097Zm0 0"/><path fill="#352a55" d="m169.2 208.68 25.312-7.914-19.098 35.011Zm0 0"/><path fill="#24f9db" d="m165.582 384 33.871-25.297.48 25.297Zm0 0"/><path fill="#e8c37f" d="m199.453 358.703-12.226-29.25 30.464-26.586Zm0 0"/><path fill="#382c55" d="m187.227 329.453 13.16-45.23 17.304 18.644Zm0 0"/><path fill="#352a55" d="m200.387 284.223-13.16 45.23-24.942-20.047ZM49.758 383.992 0 384l38.586-19.297Zm0 0"/><path fill="#d5d791" d="M16.941 363.438-.043 348.46l23.824-10.285Zm0 0"/><path fill="#ead388" d="m-.043 348.46 12.18-21.468 11.644 11.184Zm0 0"/><path fill="#28f8d9" d="m103.117 357.832-20.87-23.527 23.073-8.125Zm0 0"/><path fill="#352a55" d="m267.172 249.406 9.937 26.973-16.601-2.785Zm0 0"/><path fill="#362a55" d="m239.64 253.043 27.532-3.637-6.664 24.188Zm0 0"/><path fill="#fccd7f" d="m267.172 249.406-27.531 3.637 17.554-21Zm0 0"/><path fill="#392d55" d="m230.672 207.191-16.23 25.008-19.93-31.433Zm0 0"/><path fill="#b2916f" d="m234.434 346.844-34.98 11.86 18.237-55.837Zm0 0"/><path fill="#fecf80" d="m197.242 233.598 7.735 24.953-25.368-.477Zm0 0"/><path fill="#fecf80" d="m239.64 253.043-34.663 5.508 9.695-19.738Zm0 0"/><path fill="#fecf7f" d="m204.977 258.55-7.735-24.952 17.43 5.214Zm0 0"/><path fill="#372b55" d="m240.98 275.066-1.34-22.023 20.868 20.55Zm0 0"/><path fill="#352a55" d="m384 384.004-22.016-40.195L384 331.91Zm0 0"/><path fill="#352b55" d="m384 331.91-18.797-20.797 18.793-10.574Zm0 0"/><path fill="#42eecb" d="M119.688 41.57 85.563 25.2 113.246 0Zm0 0"/><path fill="#372b55" d="m361.793 25.852 22.219 31.972-14.13 7.078Zm0 0"/><path fill="#362b55" d="m255.918 88.414 5.887 22.969L232.53 95.07Zm0 0"/><path fill="#c6da97" d="m354.086 261.102 10.582 32.144-18.504 7.715Zm0 0"/><path fill="#bfdc9a" d="m364.668 293.246-10.582-32.144 29.918-7.989Zm0 0"/><path fill="#fecf7f" d="m286.496 220.715-12.332 22.972-16.969-11.644Zm0 0"/><path fill="#362b55" d="m274.164 243.688-6.992 5.718-9.977-17.363Zm0 0"/><path fill="#352a55" d="m267.172 249.406 6.992-5.719 2.945 32.692Zm0 0"/><path fill="#352b55" d="m-.004 187.168.024-21.402 18.14 21.39Zm0 0"/><path fill="#dad68f" d="m.02 165.766-.036-25.446 23.27 19.938Zm0 0"/><path fill="#13fce1" d="m275.773 121.633-19.261 23.297-11.543-13.785Zm0 0"/><path fill="#327484" d="m310.672 111.145 7.879 40.558-24.14-28.832Zm0 0"/><path fill="#e0b679" d="m146.355 117.145 1.418 15.851-14.109-12.668Zm0 0"/><path fill="#bf9b72" d="m218.32 158.867 12.352 48.324-36.16-6.425Zm0 0"/><path fill="#362f58" d="m44.129 146.375 12.887 19.805-22.207-4.47Zm0 0"/><path fill="#352a55" d="m222.848 84.363 22.566-8.672-12.883 19.38Zm0 0"/><path fill="#382d55" d="m245.414 75.691 10.504 12.723-23.387 6.656Zm0 0"/><path fill="#fdcf7f" d="m255.918 88.414-10.504-12.723 6.852-6.586Zm0 0"/><path fill="#fcce7f" d="m261.805 111.383-31.188 1.246 1.914-17.559Zm0 0"/><path fill="#dcb478" d="m230.617 112.629 31.188-1.246-16.836 19.762Zm0 0"/><path fill="#f9d182" d="m182.969 81.688 21.398-2.157-15.336 9.73Zm0 0"/><path fill="#fecf80" d="m205.672 56.207-1.305 23.324-36.605-32.715ZM204.367 79.531l-21.398 2.156-15.207-34.87Zm0 0"/><path fill="#352a55" d="m173.652 164.902-25.879-31.906 31.137 12.906ZM218.32 158.867l-44.668 6.035 5.258-19ZM-.031 252.766l.043-19.274 19.57 12.207Zm0 0"/><path fill="#87cba0" d="M31.45 262.316.011 317.606l-.043-64.84Zm0 0"/><path fill="#352a55" d="m86.625 269.734-48.594-17.757 44.633-3.278Zm0 0"/><path fill="#fecf7f" d="m69.457 225.172 18.91 2.754-5.703 20.773ZM169.2 208.68l-28.075 4.91 17.434-19.727Zm0 0"/><path fill="#fecf7f" d="m141.125 213.59 28.074-4.91-15.043 29.625Zm0 0"/><path fill="#fecf7f" d="m170.262 256.758-15.93 5.59-.176-24.043Zm0 0"/><path fill="#ded58d" d="m.012 317.605 12.125 9.387-12.18 21.469Zm0 0"/><path fill="#352b55" d="m16.941 363.438 18.993-12.536 2.652 13.801Zm0 0"/><path fill="#bfdc9a" d="M35.934 350.902 16.94 363.438l6.84-25.262Zm0 0"/><path fill="#97a182" d="m35.934 350.902 30.949 5.075-28.297 8.726Zm0 0"/><path fill="#e2d58b" d="m66.883 355.977-30.95-5.075 19.247-15.039Zm0 0"/><path fill="#352a55" d="m-.043 348.46 16.984 14.978L0 384Zm0 0"/><path fill="#352a55" d="m0 384 16.941-20.562 21.645 1.265Zm0 0"/><path fill="#16fce0" d="m132.629 365.691 6.035-10.308 27.977 2.805Zm0 0"/><path fill="#0dfde4" d="M132.629 365.691 165.582 384l-45.437.02Zm0 0"/><path fill="#15fce1" d="m165.582 384-32.953-18.309 34.012-7.503Zm0 0"/><path fill="#16fbe0" d="m103.117 357.832 29.512 7.86-12.484 18.328Zm0 0"/><path fill="#8b7368" d="m138.664 355.383 5.738-16.574 22.239 19.378Zm0 0"/><path fill="#735d62" d="m166.64 358.188-22.238-19.38 17.883-29.402Zm0 0"/><path fill="#8b7167" d="m144.402 338.809-25.254-24.649 43.137-4.754Zm0 0"/><path fill="#a3856c" d="m200.387 284.223 4.59-25.672 34.664-5.508Zm0 0"/><path fill="#695560" d="m204.977 258.55-4.59 25.673-20.778-26.149Zm0 0"/><path fill="#352a55" d="m384 331.91-38.309-13.187 19.512-7.61Zm0 0"/><path fill="#d3d38f" d="m345.691 318.723 8.762-12.395 10.75 4.785Zm0 0"/><path fill="#352a55" d="m361.984 343.809-16.293-25.086L384 331.91Zm0 0"/><path fill="#b6d699" d="m384.004 253.113-.008 47.426-19.328-7.293Zm0 0"/><path fill="#d9d58e" d="m383.996 300.54-18.793 10.573-.535-17.867Zm0 0"/><path fill="#d5d48f" d="m365.203 311.113-10.75-4.785 10.215-13.082Zm0 0"/><path fill="#5d7678" d="m345.805 357.14-50.203 26.864 25.832-31.395Zm0 0"/><path fill="#9dd19e" d="m321.434 352.61-25.832 31.394-5.149-8.32Zm0 0"/><path fill="#45f1cc" d="m294.504 315.031-28.3-1.926 26.233-15.824Zm0 0"/><path fill="#1ffbdd" d="m266.203 313.105 1.39 48.512-33.16-14.773Zm0 0"/><path fill="#3e5f73" d="m293.754 354.535 27.68-1.926-30.98 23.075Zm0 0"/><path fill="#26f9da" d="m199.934 384-.48-25.297L266.065 384Zm0 0"/><path fill="#abdca0" d="m199.453 358.703 68.14 2.914L266.067 384Zm0 0"/><path fill="#1afbdf" d="m267.594 361.617-68.14-2.914 34.98-11.86Zm0 0"/><path fill="#cfd591" d="M9.602 38.863.004 52.07l.02-30.191Zm0 0"/><path fill="#b7c48d" d="M9.602 38.863.023 21.88l10.575 17.027Zm0 0"/><path fill="#352a55" d="m.023 21.879 20.997-2.211-10.422 19.238Zm0 0"/><path fill="#362c56" d="M31.89-.004 21.02 19.668.004 0ZM21.02 19.668.023 21.878.003 0Zm0 0"/><path fill="#352a55" d="m42.887 19.277-21.867.391L31.89-.004Zm0 0"/><path fill="#352a55" d="M63.16-.016 42.887 19.277 31.89-.003ZM42.887 19.277 63.16-.016l1.86 32.485ZM21.02 19.668l14.734 27.27-25.156-8.032Zm0 0"/><path fill="#352a55" d="m42.887 19.277-7.133 27.66L21.02 19.669Zm0 0"/><path fill="#4b4f65" d="m70.082 91.957-28.648 16.824L58.09 63.465Zm0 0"/><path fill="#e4d58a" d="m70.082 91.957 20.156-23.16 17.617 38.883Zm0 0"/><path fill="#b2dea0" d="M107.855 107.68 90.238 68.797l29.45-27.227Zm0 0"/><path fill="#352a55" d="M384 120.902v28.715l-18.187-12.582ZM384 182.605l-22.648-20.34L384 149.618Zm0 0"/><path fill="#342a55" d="M361.352 162.266 384 182.606l-42.875-1.739Zm0 0"/><path fill="#352b55" d="m362.07 142.137 3.743-5.102L384 149.617Zm0 0"/><path fill="#352a55" d="m361.352 162.266.718-20.13 21.93 7.481Zm0 0"/><path fill="#fdcf7f" d="m304.723 205.555 3.086 21.058-21.313-5.898Zm0 0"/><path fill="#352a55" d="M344.957 47.629 326.766 18.25l35.027 7.602Zm0 0"/><path fill="#d5d590" d="m383.953 83.258-25.965 13.586-7.605-25.32Zm0 0"/><path fill="#fecf7f" d="m260.852 88.5-4.934-.086-3.652-19.309Zm0 0"/><path fill="#17fce0" d="m172.563 0 61.386.02-34.875 37.894Zm0 0"/><path fill="#1afbdf" d="m233.95.02 5.952 48.363-40.828-10.469Zm0 0"/><path fill="#28ccbd" d="m303.777 77.652-22.363-13.011 2.313-38.016Zm0 0"/><path fill="#352a55" d="M354.086 261.102 384 246.738l.004 6.375Zm0 0"/><path fill="#27f9da" d="m277.11 276.379 26.492 4.504-11.164 16.398Zm0 0"/><path fill="#1efbdd" d="m303.602 280.883 8.8 20.222-19.964-3.824Zm0 0"/><path fill="#2ef6d6" d="M303.602 280.883 319.91 292.8l-7.508 8.304Zm0 0"/><path fill="#433859" d="m319.91 292.8-16.308-11.917 13.609-14.703Zm0 0"/><path fill="#362b55" d="m336.055 277.023 18.03-15.921-7.92 39.859Zm0 0"/><path fill="#76d4ab" d="m319.91 292.8 16.145-15.777 10.11 23.938Zm0 0"/><path fill="#392e56" d="m336.055 277.023-16.145 15.778-2.7-26.621Zm0 0"/><path fill="#d8d68f" d="M11.898 89.125.016 98.793l-.032-19.95Zm0 0"/><path fill="#362d56" d="m.016 98.793 11.882-9.668 29.536 19.656Zm0 0"/><path fill="#2e677d" d="m44.129 146.375 30.5-25.687-17.613 45.492Zm0 0"/><path fill="#35345b" d="m74.629 120.688-30.5 25.687-2.695-37.594Zm0 0"/><path fill="#d5d791" d="m.02 165.766 32.832 9.316-14.692 12.074Zm0 0"/><path fill="#d9d78f" d="M32.852 175.082.02 165.766l23.234-5.508Zm0 0"/><path fill="#e3d58b" d="m32.852 175.082-9.598-14.824 11.555 1.453Zm0 0"/><path fill="#e5d48a" d="m57.016 166.18-24.164 8.902 1.957-13.371Zm0 0"/><path fill="#62e0b9" d="m23.254 160.258 5.035-12.375 6.52 13.828Zm0 0"/><path fill="#5dedc2" d="m-.016 140.32 28.305 7.563-5.035 12.375Zm0 0"/><path fill="#35325a" d="m28.29 147.883 15.839-1.508-9.32 15.336Zm0 0"/><path fill="#352a55" d="m41.434 108.781-13.145 39.102L.016 98.793Zm0 0"/><path fill="#352a55" d="M28.29 147.883-.017 140.32l.032-41.527Zm0 0"/><path fill="#3c4b67" d="m44.129 146.375-15.84 1.508 13.145-39.102Zm0 0"/><path fill="#342e57" d="m38.094 219.379 12.011-11.91 19.352 17.703Zm0 0"/><path fill="#fecf80" d="m43.89 242.29-5.796-22.911 31.363 5.793Zm0 0"/><path fill="#352a55" d="m38.031 251.977 5.86-9.688 38.773 6.41Zm0 0"/><path fill="#fecf7f" d="m43.89 242.29 25.567-17.118 13.207 23.527Zm0 0"/><path fill="#382d55" d="m33.371 239.305 10.52 2.984-5.86 9.688Zm0 0"/><path fill="#fecf7f" d="m43.89 242.29-10.519-2.985 4.723-19.926Zm0 0"/><path fill="#352e57" d="m334.242 114.555-15.691 37.148-7.88-40.558Zm0 0"/><path fill="#2da0a1" d="m318.797 77.652 4.09 22.32-19.11-22.32Zm0 0"/><path fill="#352b55" d="m322.887 99.973 11.355 14.582-23.57-3.41Zm0 0"/><path fill="#fccd7f" d="m141.676 162.648-19.781-20.289 25.878-9.363Zm0 0"/><path fill="#e7bd7b" d="m147.773 132.996-25.878 9.363 11.77-22.03Zm0 0"/><path fill="#8b7167" d="m126.61 185.246-4.715-42.887 19.78 20.29Zm0 0"/><path fill="#fece80" d="m121.895 142.36 4.296-28.395 7.473 6.363Zm0 0"/><path fill="#1cfade" d="M85.117 171.77 74.63 120.687l33.226-13.007Zm0 0"/><path fill="#34315a" d="m74.629 120.688 10.488 51.082-28.101-5.59Zm0 0"/><path fill="#a0826b" d="m88.367 227.926-10.64-23.406 26.23-8.915Zm0 0"/><path fill="#d0a976" d="m77.727 204.52 10.64 23.406-18.91-2.754Zm0 0"/><path fill="#18fce0" d="m126.191 113.965-16.062 27.96-2.274-34.245Zm0 0"/><path fill="#10fce3" d="M110.129 141.926 85.117 171.77l22.738-64.09Zm0 0"/><path fill="#f6c97e" d="m110.129 141.926 11.766.433 4.714 42.887Zm0 0"/><path fill="#fdcf80" d="m121.895 142.36-11.766-.434 16.062-27.961Zm0 0"/><path fill="#fdd080" d="m222.398 97.285.45-12.922 9.683 10.707Zm0 0"/><path fill="#facc7f" d="m230.617 112.629-8.219-15.344 10.133-2.215Zm0 0"/><path fill="#443658" d="m222.398 97.285 8.22 15.344-8.95 10.61Zm0 0"/><path fill="#d8bf81" d="m147.773 132.996 27.872-10.875 3.265 23.781Zm0 0"/><path fill="#fecf80" d="m222.398 97.285-18.03-17.754 18.48 4.832Zm0 0"/><path fill="#a1826c" d="m194.512 200.766-25.313 7.914-10.64-14.817Zm0 0"/><path fill="#483959" d="m194.512 200.766-20.86-35.864 44.668-6.035Zm0 0"/><path fill="#352a55" d="m218.555 146.656-.235 12.211-39.41-12.965Zm0 0"/><path fill="#362a55" d="m168.797 290.113 1.465-33.355 9.347 1.316Zm0 0"/><path fill="#3a2e56" d="m168.797 290.113 10.812-32.039-17.324 51.332Zm0 0"/><path fill="#fccd7f" d="m154.332 262.348 14.465 27.765-21.856-19.324Zm0 0"/><path fill="#fecf7f" d="m168.797 290.113-14.465-27.765 15.93-5.59Zm0 0"/><path fill="#362b55" d="m119.148 314.16 49.649-24.047-6.512 19.293Zm0 0"/><path fill="#352b56" d="m31.45 262.316-1.227 42.512L.012 317.605Zm0 0"/><path fill="#352a55" d="m86.625 269.734-55.176-7.418 6.582-10.34Zm0 0"/><path fill="#352a55" d="m-.031 252.766 19.613-7.067 11.867 16.617Zm0 0"/><path fill="#fecf7f" d="m111.582 220.25 15.027-35.004 14.516 28.344Zm0 0"/><path fill="#fecf7f" d="m131.613 237.277 9.512-23.687 13.031 24.715Zm0 0"/><path fill="#d6ae77" d="m131.613 237.277-7.867 8.641-12.164-25.668Zm0 0"/><path fill="#453758" d="m111.582 220.25 12.164 25.668-5.586 4.516Zm0 0"/><path fill="#fecf7f" d="m88.367 227.926 29.793 22.508-35.496-1.735Zm0 0"/><path fill="#352b55" d="m30.223 304.828-3.559 18.031-26.652-5.254Zm0 0"/><path fill="#372f57" d="m26.664 322.86-14.527 4.132-12.125-9.387Zm0 0"/><path fill="#b1d69b" d="m12.137 326.992 14.527-4.133-2.883 15.317Zm0 0"/><path fill="#edd387" d="M35.934 350.902 23.78 338.176l31.399-2.313Zm0 0"/><path fill="#49edc8" d="m80.898 384 22.22-26.168 17.027 26.188Zm0 0"/><path fill="#13fde2" d="m122.664 345.047 9.965 20.644-29.512-7.859Zm0 0"/><path fill="#0dfee4" d="m132.629 365.691-9.965-20.644 16 10.336Zm0 0"/><path fill="#23f9db" d="m122.664 345.047-19.547 12.785 2.203-31.652Zm0 0"/><path fill="#907769" d="m119.148 314.16 3.516 30.887-17.344-18.867Zm0 0"/><path fill="#705b61" d="m122.664 345.047 21.738-6.238-5.738 16.574Zm0 0"/><path fill="#886e66" d="m122.664 345.047-3.516-30.887 25.254 24.649Zm0 0"/><path fill="#8cbe97" d="m345.691 318.723.114 38.418-24.371-4.532Zm0 0"/><path fill="#352a55" d="m345.805 357.14 16.18-13.331L384 384.004Zm0 0"/><path fill="#352d57" d="m345.805 357.14-.114-38.417 16.293 25.086Zm0 0"/><path fill="#352b56" d="m295.602 384.004 50.203-26.863L384 384.004Zm0 0"/><path fill="#52f0c7" d="m284.191 335.215-16.597 26.402-1.39-48.512Zm0 0"/><path fill="#62eabf" d="m294.504 315.031-10.313 20.184-17.988-22.11Zm0 0"/><path fill="#4fcbb1" d="m284.191 335.215 9.563 19.32-26.16 7.082Zm0 0"/><path fill="#99e3aa" d="m266.066 384 24.387-8.316 5.149 8.32Zm0 0"/><path fill="#a1e1a6" d="M290.453 375.684 266.066 384l1.528-22.383Zm0 0"/><path fill="#53a498" d="m293.754 354.535-3.3 21.149-22.86-14.067Zm0 0"/><path fill="#0ffee3" d="m167.762 46.816-48.074-5.246 79.386-3.656Zm0 0"/><path fill="#10fde3" d="m119.688 41.57 48.074 5.246-20.79 21.41Zm0 0"/><path fill="#e3d58b" d="m167.762 46.816-3.965 23.61-16.824-2.2Zm0 0"/><path fill="#352a55" d="M65.02 32.469 35.754 46.937l7.133-27.66Zm0 0"/><path fill="#372e56" d="M58.191 62.855 35.754 46.938l29.266-14.47Zm0 0"/><path fill="#26f8d9" d="m74.629 120.688-4.547-28.731 37.773 15.723Zm0 0"/><path fill="#35375d" d="m70.082 91.957 4.547 28.73-33.195-11.906Zm0 0"/><path fill="#342a55" d="M360.473 199.293 384 182.605l-.004 23.532Zm0 0"/><path fill="#342d57" d="m344.684 153.816-3.559 27.051-19.203 1.082Zm0 0"/><path fill="#352a55" d="M361.793 25.852 351.433.023 384 .003Zm0 0"/><path fill="#352a55" d="m384.012 57.824-22.219-31.972L384 .004Zm0 0"/><path fill="#ced793" d="m361.793 25.852 8.09 39.05-24.926-17.273Zm0 0"/><path fill="#bddb9a" d="m344.957 47.629 24.926 17.273-19.5 6.621Zm0 0"/><path fill="#352a55" d="m362.07 142.137-8.879-9.977 12.622 4.875Zm0 0"/><path fill="#bdd496" d="m353.191 132.16-18.949-17.605 23.746-17.711Zm0 0"/><path fill="#352a55" d="m353.191 132.16 30.762-48.902.047 37.644ZM353.191 132.16 384 120.902l-18.187 16.133Zm0 0"/><path fill="#cfd792" d="m383.953 83.258-30.762 48.902 4.797-35.316Zm0 0"/><path fill="#f1d285" d="m369.883 64.902 14.129-7.078-.059 25.434Zm0 0"/><path fill="#f7d183" d="m369.883 64.902 14.07 18.356-33.57-11.735Zm0 0"/><path fill="#17fbe0" d="M281.414 64.64 260.852 88.5l-8.586-19.395Zm0 0"/><path fill="#2ac7ba" d="m322.887 99.973-12.215 11.172-6.895-33.493Zm0 0"/><path fill="#27a4a5" d="m284.832 95.703 9.578 27.168-18.637-1.238Zm0 0"/><path fill="#23d3c3" d="m284.832 95.703 25.84 15.442-16.262 11.726Zm0 0"/><path fill="#1bf3da" d="m281.414 64.64 3.418 31.063-23.98-7.203Zm0 0"/><path fill="#343b5f" d="m284.832 95.703-3.418-31.062 22.363 13.011Zm0 0"/><path fill="#19fcdf" d="m310.672 111.145-25.84-15.442 18.945-18.05Zm0 0"/><path fill="#fecf7f" d="m239.902 48.383-7.789 9.574-26.441-1.75Zm0 0"/><path fill="#352a55" d="M384.004 228.77 384 246.738l-27.375-10.656Zm0 0"/><path fill="#352a55" d="M356.625 236.082 384 246.738l-29.914 14.364Zm0 0"/><path fill="#33bfb2" d="m320.297 218.832-12.488 7.781-3.086-21.058Zm0 0"/><path fill="#fecf80" d="m299.367 246.68-25.203-2.993 12.332-22.972Zm0 0"/><path fill="#fecf7f" d="m299.367 246.68-22.258 29.699-2.945-32.692Zm0 0"/><path fill="#fccd7f" d="m299.367 246.68-12.87-25.965 21.312 5.898Zm0 0"/><path fill="#3f3357" d="m336.055 277.023-9.38-25.562 27.41 9.64Zm0 0"/><path fill="#eccc83" d="m326.676 251.46 9.379 25.563-18.844-10.843Zm0 0"/><path fill="#fecf7f" d="m326.676 251.46-27.309-4.78 8.442-20.067Zm0 0"/><path fill="#896f67" d="m299.367 246.68 27.309 4.78-9.465 14.72Zm0 0"/><path fill="#352a55" d="m6.867 75.582 5.031 13.543L-.016 78.844Zm0 0"/><path fill="#342f58" d="m36.93 205.04 13.175 2.429-12.011 11.91Zm0 0"/><path fill="#362b55" d="m19.582 245.7 13.79-6.395 4.66 12.672Zm0 0"/><path fill="#352a55" d="M31.45 262.316 19.581 245.7l18.45 6.278Zm0 0"/><path fill="#362b55" d="m.012 233.492 17.101-3.668 2.469 15.875Zm0 0"/><path fill="#382c55" d="m17.113 229.824 16.258 9.48-13.789 6.395Zm0 0"/><path fill="#26a5a5" d="m286.988 152.938-11.215-31.305 18.637 1.238Zm0 0"/><path fill="#fccf80" d="m235.938 162.297 9.03-31.152 11.544 13.785Zm0 0"/><path fill="#b79570" d="m250.988 196.996 6.207 35.047-26.523-24.852Zm0 0"/><path fill="#17fce0" d="m119.688 41.57 6.503 72.395-18.336-6.285Zm0 0"/><path fill="#facc7f" d="m158.559 193.863-16.883-31.215 6.097-29.652Zm0 0"/><path fill="#9b7e6a" d="m173.652 164.902-15.093 28.961-10.786-60.867Zm0 0"/><path fill="#8d7267" d="m194.512 200.766-35.953-6.903 15.093-28.96Zm0 0"/><path fill="#1bfbde" d="m58.387 180.152 26.73-8.382-7.39 32.75Zm0 0"/><path fill="#2cedd0" d="m85.117 171.77-26.73 8.382-1.371-13.972Zm0 0"/><path fill="#2b5e78" d="m50.105 207.469 27.622-2.95-8.27 20.653Zm0 0"/><path fill="#fecf80" d="m204.367 79.531-7.512 21.906-7.824-12.175Zm0 0"/><path fill="#f6cf82" d="m180.688 106.11 16.167-4.672-4.632 25.226Zm0 0"/><path fill="#fbce80" d="m175.645 122.121 5.042-16.012 11.536 20.555Zm0 0"/><path fill="#fecf7f" d="m196.855 101.438-16.167 4.671 8.343-16.847Zm0 0"/><path fill="#463858" d="m172.027 97.313 10.942-15.626 6.062 7.575Zm0 0"/><path fill="#352a55" d="m172.027 97.313-13.039-10.215 23.98-5.41Zm0 0"/><path fill="#f3cc81" d="m221.668 123.238 23.3 7.907-26.413 15.511Zm0 0"/><path fill="#cac085" d="m192.223 126.664 29.445-3.426-3.113 23.418Zm0 0"/><path fill="#e7c27e" d="m221.668 123.238 8.95-10.61 14.35 18.517Zm0 0"/><path fill="#382c55" d="m196.855 101.438 11.54 4.078-16.172 21.148Zm0 0"/><path fill="#382d55" d="m192.223 126.664 16.172-21.148 13.273 17.722Zm0 0"/><path fill="#fecf80" d="m222.398 97.285-14.003 8.23-4.028-25.984Zm0 0"/><path fill="#382c55" d="m208.395 105.516 14.003-8.23-.73 25.952Zm0 0"/><path fill="#fed080" d="m204.367 79.531 4.028 25.985-11.54-4.079Zm0 0"/><path fill="#cac086" d="m192.223 126.664 26.332 19.992-39.645-.754Zm0 0"/><path fill="#e7c17d" d="m175.645 122.121 16.578 4.543-13.313 19.238Zm0 0"/><path fill="#352a55" d="m53.758 296.563-23.535 8.265 1.226-42.512Zm0 0"/><path fill="#23f9db" d="m82.246 334.305 9.504-22.102 13.57 13.977Zm0 0"/><path fill="#886e66" d="m88.367 227.926 23.215-7.676 6.578 30.184Zm0 0"/><path fill="#fdce7f" d="m111.582 220.25-23.215 7.676 15.59-32.32Zm0 0"/><path fill="#fecf7f" d="m141.125 213.59-14.516-28.344 31.95 8.617Zm0 0"/><path fill="#6b5660" d="m126.61 185.246 15.066-22.598 16.883 31.215Zm0 0"/><path fill="#382d55" d="m123.746 245.918 1.352 9.691-6.938-5.175Zm0 0"/><path fill="#fccd7f" d="m132.73 250.86 21.602 11.488-7.39 8.441Zm0 0"/><path fill="#392d55" d="m125.098 255.61 7.632-4.75 14.211 19.93Zm0 0"/><path fill="#3d3056" d="m132.73 250.86-7.632 4.75-1.352-9.692Zm0 0"/><path fill="#caa474" d="m132.73 250.86-8.984-4.942 7.867-8.64Zm0 0"/><path fill="#fecf7f" d="m154.332 262.348-21.602-11.489 21.426-12.554Zm0 0"/><path fill="#fecf7f" d="m132.73 250.86-1.117-13.583 22.543 1.028Zm0 0"/><path fill="#352a55" d="m107.648 274.176-21.023-4.442-3.96-21.035Zm0 0"/><path fill="#352a55" d="m118.16 250.434-10.512 23.742-24.984-25.477ZM71.535 364.434l-32.95.27 28.298-8.727Zm0 0"/><path fill="#352a55" d="m71.535 364.434-21.777 19.558-11.172-19.289Zm0 0"/><path fill="#49eac6" d="m103.117 357.832-31.582 6.602 10.711-30.13Zm0 0"/><path fill="#354666" d="m71.535 364.434-4.652-8.457 15.363-21.672Zm0 0"/><path fill="#364e6b" d="M66.883 355.977 55.18 335.863l27.066-1.558Zm0 0"/><path fill="#dbd68e" d="m346.164 300.96-.473 17.763-30.355-2.254Zm0 0"/><path fill="#d2d892" d="m312.402 301.105 33.762-.144-30.828 15.508Zm0 0"/><path fill="#527c7f" d="m321.434 352.61-18.61-16.473 42.867-17.414Zm0 0"/><path fill="#356076" d="m293.754 354.535 9.07-18.398 18.61 16.472Zm0 0"/><path fill="#3db6a9" d="m302.824 336.137-9.07 18.398-9.563-19.32Zm0 0"/><path fill="#46aba0" d="m294.504 315.031 8.32 21.106-18.633-.922Zm0 0"/><path fill="#84e7b3" d="m90.238 68.797-4.675-43.598 34.125 16.371Zm0 0"/><path fill="#bfdc9a" d="M90.238 68.797 65.02 32.469l20.543-7.27Zm0 0"/><path fill="#352a55" d="m41.434 108.781-11.2-37.066 27.856-8.25Zm0 0"/><path fill="#352c56" d="m30.234 71.715 11.2 37.066-29.536-19.656Zm0 0"/><path fill="#383158" d="m59.309 63.152 10.773 28.805L58.09 63.465Zm0 0"/><path fill="#49586b" d="m58.191 62.855 1.118.297-1.22.313Zm0 0"/><path fill="#6dcba8" d="m59.309 63.152 30.93 5.645-20.157 23.16Zm0 0"/><path fill="#8ce3ae" d="m59.309 63.152 5.71-30.683 25.22 36.328Zm0 0"/><path fill="#a8dea2" d="m59.309 63.152-1.118-.297L65.02 32.47Zm0 0"/><path fill="#0efee4" d="M146.973 68.227 137.94 86.73l-18.254-45.16Zm0 0"/><path fill="#fecf80" d="m384.004 228.77-18.75-16.747 18.742-5.886Zm0 0"/><path fill="#352a55" d="m365.254 212.023-4.781-12.73 23.523 6.844Zm0 0"/><path fill="#fecf7f" d="m365.254 212.023 18.75 16.747-27.379 7.312Zm0 0"/><path fill="#342a55" d="m384 182.605-23.527 16.688-19.348-18.426Zm0 0"/><path fill="#352b55" d="m344.684 153.816 16.668 8.45-20.227 18.601Zm0 0"/><path fill="#b3db9d" d="m344.684 153.816 17.386-11.68-.718 20.13Zm0 0"/><path fill="#3f4e68" d="m325.055.008-41.328 26.617-7.508-26.61Zm0 0"/><path fill="#307786" d="m303.777 77.652-20.05-51.027 35.808 25.883Zm0 0"/><path fill="#ddd68e" d="m353.191 132.16-8.507 21.656-26.133-2.113Zm0 0"/><path fill="#352b55" d="m334.242 114.555 18.95 17.605-34.641 19.543Zm0 0"/><path fill="#c4d997" d="m344.684 153.816 8.507-21.656 8.88 9.977Zm0 0"/><path fill="#20fadc" d="m239.902 48.383 41.512 16.258-29.148 4.464Zm0 0"/><path fill="#14fbe1" d="m260.852 88.5 23.98 7.203-9.059 25.93Zm0 0"/><path fill="#19fbdf" d="m260.852 88.5 14.921 33.133-13.968-10.25Zm0 0"/><path fill="#facd7f" d="m255.918 88.414 4.934.086.953 22.883Zm0 0"/><path fill="#33f6d4" d="m233.95.02 42.269-.004-12.942 27.886Zm0 0"/><path fill="#37eece" d="m233.95.02 29.327 27.882-23.375 20.48Zm0 0"/><path fill="#4b3c59" d="m236.332 66.184 9.082 9.507-22.566 8.672Zm0 0"/><path fill="#fecf7f" d="m236.332 66.184 15.934 2.921-6.852 6.586Zm0 0"/><path fill="#fcd080" d="m204.367 79.531 31.965-13.347-13.484 18.18Zm0 0"/><path fill="#fbd081" d="M236.332 66.184 204.367 79.53l1.305-23.324Zm0 0"/><path fill="#fecf7f" d="m232.113 57.957 4.219 8.227-30.66-9.977Zm0 0"/><path fill="#fecf80" d="m252.266 69.105-15.934-2.921 3.57-17.801Zm0 0"/><path fill="#fecf7f" d="m236.332 66.184-4.219-8.227 7.79-9.574Zm0 0"/><path fill="#342d57" d="m310.945 199.031 9.352 19.801-15.574-13.277Zm0 0"/><path fill="#2b6f82" d="m310.945 199.031-14.554-14.636 25.53-2.446Zm0 0"/><path fill="#26e2cb" d="m296.39 184.395 14.555 14.636-6.222 6.524Zm0 0"/><path fill="#362b55" d="m299.367 246.68 17.844 19.5-40.102 10.199Zm0 0"/><path fill="#82e7b3" d="m317.21 266.18-13.608 14.703-26.493-4.504Zm0 0"/><path fill="#403357" d="m329.762 233.668 26.863 2.414-2.54 25.02Zm0 0"/><path fill="#fcce7f" d="m326.676 251.46 3.086-17.792 24.324 27.434Zm0 0"/><path fill="#fecf7f" d="m356.625 236.082-26.863-2.414 9.851-13.074ZM329.762 233.668l-3.086 17.793-18.867-24.848Zm0 0"/><path fill="#fecf80" d="m320.297 218.832 9.465 14.836-21.953-7.055Zm0 0"/><path fill="#fed080" d="m329.762 233.668-9.465-14.836 19.316 1.762Zm0 0"/><path fill="#352a55" d="m6.867 75.582 11.406-8.988-6.375 22.531ZM18.273 66.594l11.961 5.12-18.336 17.411Zm0 0"/><path fill="#352b55" d="m36.93 205.04-8.555-9.79 18.176-2.832Zm0 0"/><path fill="#352a55" d="m32.852 175.082-4.477 20.168-10.215-8.094Zm0 0"/><path fill="#352c56" d="m28.375 195.25 4.477-20.168 13.699 17.336Zm0 0"/><path fill="#fecf7f" d="m0 217.926 17.113 11.898-17.101 3.668Zm0 0"/><path fill="#1bcac0" d="m318.55 151.703-31.562 1.234 7.422-30.066Zm0 0"/><path fill="#34365d" d="m318.55 151.703 26.134 2.113-22.762 28.133Zm0 0"/><path fill="#2a7184" d="m296.39 184.395 22.16-32.692 3.372 30.246Zm0 0"/><path fill="#2f4c6c" d="m318.55 151.703-22.16 32.692-9.402-31.458Zm0 0"/><path fill="#d9b178" d="m235.938 162.297 15.05 34.7-32.668-38.13Zm0 0"/><path fill="#a9896d" d="m250.988 196.996-15.05-34.7 36.484 20.235Zm0 0"/><path fill="#886e66" d="m250.988 196.996-20.316 10.195-12.352-48.324Zm0 0"/><path fill="#f8ca7e" d="m235.938 162.297 20.574-17.367 15.91 37.601Zm0 0"/><path fill="#16f5dc" d="m256.512 144.93 30.476 8.007-14.566 29.594Zm0 0"/><path fill="#13fce1" d="m286.988 152.938-30.476-8.008 19.261-23.297Zm0 0"/><path fill="#9b7e6a" d="m235.938 162.297-17.618-3.43 26.649-27.722Zm0 0"/><path fill="#382c55" d="m244.969 131.145-26.649 27.722.235-12.21Zm0 0"/><path fill="#fdce7f" d="m250.988 196.996 20.2 6.16-13.993 28.887Zm0 0"/><path fill="#fecf7f" d="m271.188 203.156 15.308 17.559-29.3 11.328Zm0 0"/><path fill="#e1b779" d="m146.355 117.145-12.69 3.183.948-8.742Zm0 0"/><path fill="#fecf7f" d="m134.613 111.586-.949 8.742-7.473-6.363ZM157.8 103.484 146.88 99.36l12.11-12.261Zm0 0"/><path fill="#fccd7f" d="m146.355 117.145.524-17.786 10.922 4.125Zm0 0"/><path fill="#deb579" d="m146.879 99.36-.524 17.785-11.742-5.56Zm0 0"/><path fill="#fbd081" d="m126.191 113.965 11.75-27.235-3.328 24.856Zm0 0"/><path fill="#10fde3" d="m137.941 86.73-11.75 27.235-6.504-72.395Zm0 0"/><path fill="#fecf7f" d="m137.941 86.73 8.938 12.63-12.266 12.226Zm0 0"/><path fill="#342a55" d="m36.93 205.04 9.62-12.622 3.555 15.05Zm0 0"/><path fill="#342b56" d="m46.55 192.418 31.177 12.102-27.622 2.949Zm0 0"/><path fill="#343159" d="m46.55 192.418 11.837-12.266 19.34 24.368Zm0 0"/><path fill="#fecf80" d="m92.164 174.77 11.793 20.835-26.23 8.915Zm0 0"/><path fill="#25f9da" d="m85.117 171.77 7.047 3-14.437 29.75Zm0 0"/><path fill="#19fbdf" d="m92.164 174.77-7.047-3 25.012-29.844Zm0 0"/><path fill="#facc7f" d="m92.164 174.77 34.445 10.476-22.652 10.36Zm0 0"/><path fill="#f6c97e" d="M126.61 185.246 92.163 174.77l17.965-32.844Zm0 0"/><path fill="#fecf80" d="m168.828 115.063 11.86-8.954-5.043 16.012Zm0 0"/><path fill="#3e3156" d="m157.8 103.484 11.028 11.579-22.473 2.082Zm0 0"/><path fill="#403357" d="m168.828 115.063-21.055 17.933-1.418-15.851Zm0 0"/><path fill="#fccf80" d="m168.828 115.063 6.817 7.058-27.872 10.875Zm0 0"/><path fill="#352a55" d="m180.688 106.11-8.66-8.797 17.003-8.051Zm0 0"/><path fill="#52425b" d="m172.027 97.313-3.199 17.75-11.027-11.579Zm0 0"/><path fill="#382d55" d="m168.828 115.063 3.2-17.75 8.66 8.796ZM172.027 97.313l-14.226 6.171 1.187-16.386Zm0 0"/><path fill="#fecf7f" d="m158.988 87.098 4.809-16.672 19.172 11.261Zm0 0"/><path fill="#fbcc7f" d="m146.973 68.227 16.824 2.199-4.809 16.672Zm0 0"/><path fill="#fecf80" d="m182.969 81.688-19.172-11.262 3.965-23.61Zm0 0"/><path fill="#64e6bc" d="m62.04 286.324-30.59-24.008 55.175 7.418Zm0 0"/><path fill="#393359" d="m62.04 286.324-8.282 10.238-22.309-34.246Zm0 0"/><path fill="#fecf7f" d="m111.582 220.25-7.625-24.645 22.652-10.359ZM131.613 237.277l-20.031-17.027 29.543-6.66Zm0 0"/><path fill="#352a55" d="m125.098 255.61-17.45 18.566 10.512-23.742Zm0 0"/><path fill="#362a55" d="m107.648 274.176 17.45-18.567 21.843 15.18Zm0 0"/><path fill="#342a55" d="M71.535 364.434 80.898 384l-31.14-.008Zm0 0"/><path fill="#47f0ca" d="m80.898 384-9.363-19.566 31.582-6.602Zm0 0"/><path fill="#c8d996" d="m354.453 306.328-8.289-5.367 18.504-7.715Zm0 0"/><path fill="#352b55" d="m345.691 318.723.473-17.762 8.29 5.367Zm0 0"/><path fill="#edd387" d="m302.824 336.137 12.512-19.668 30.355 2.254Zm0 0"/><path fill="#4af0c9" d="m312.402 301.105-17.898 13.926-2.067-17.75Zm0 0"/><path fill="#ccd995" d="m312.402 301.105 7.508-8.304 26.254 8.16Zm0 0"/><path fill="#1cfbde" d="M119.688 41.57 172.563 0l26.511 37.914Zm0 0"/><path fill="#efd286" d="m35.621 58.348.133-11.41L58.19 62.855Zm0 0"/><path fill="#adb487" d="m35.621 58.348 22.57 4.507-.101.61Zm0 0"/><path fill="#352a55" d="m30.234 71.715 5.387-13.367 22.469 5.117Zm0 0"/><path fill="#f0c37c" d="m137.941 86.73 9.032-18.503 12.015 18.87Zm0 0"/><path fill="#fccd7f" d="m146.879 99.36-8.938-12.63 21.047.368Zm0 0"/><path fill="#fecf80" d="m351.668 214.066 4.957 22.016-17.012-15.488Zm0 0"/><path fill="#342a55" d="m365.254 212.023-13.586 2.043 8.805-14.773Zm0 0"/><path fill="#fdd080" d="m351.668 214.066 13.586-2.043-8.629 24.059Zm0 0"/><path fill="#352a55" d="m337.863 58.59-8.027 8.39-10.3-14.472ZM326.766 18.25 351.434.023l10.359 25.829Zm0 0"/><path fill="#352c56" d="M283.727 26.625 325.055.008l-5.938 19.91Zm0 0"/><path fill="#352a55" d="m325.055.008 1.71 18.242-7.648 1.668Zm0 0"/><path fill="#ded48c" d="M326.766 18.25 325.055.008l26.379.015Zm0 0"/><path fill="#383057" d="m357.988 96.844-12.87-5.934 5.265-19.387Zm0 0"/><path fill="#44f1cc" d="m281.414 64.64-18.137-36.738 20.45-1.277Zm0 0"/><path fill="#2cf8d7" d="m239.902 48.383 23.375-20.48 18.137 36.738Zm0 0"/><path fill="#6be1b7" d="m276.219.016 7.508 26.609-20.45 1.277Zm0 0"/><path fill="#5eeec3" d="m338.844 209.184 12.824 4.882-12.055 6.528Zm0 0"/><path fill="#342a55" d="m351.668 214.066-12.824-4.882 21.629-9.891Zm0 0"/><path fill="#3eedcb" d="m320.297 218.832 18.547-9.648.77 11.41Zm0 0"/><path fill="#342f58" d="m310.945 199.031 27.899 10.153-18.547 9.648Zm0 0"/><path fill="#342a55" d="m360.473 199.293-21.63 9.89 2.282-28.316Zm0 0"/><path fill="#334063" d="m341.125 180.867-2.281 28.317-16.922-27.235Zm0 0"/><path fill="#342e57" d="m338.844 209.184-27.899-10.153 10.977-17.082Zm0 0"/><path fill="#352a55" d="m.004 52.07 18.27 14.524-11.407 8.988Zm0 0"/><path fill="#352a55" d="m-.016 78.844.02-26.774 6.863 23.512Zm0 0"/><path fill="#e1d58c" d="m.004 52.07 9.598-13.207.996.043Zm0 0"/><path fill="#352b56" d="m21.668 213.738 6.707-18.488 8.555 9.79Zm0 0"/><path fill="#fecf80" d="m271.188 203.156-20.2-6.16 21.434-14.465Zm0 0"/><path fill="#342c56" d="m32.852 175.082 25.535 5.07-11.836 12.266Zm0 0"/><path fill="#e7d389" d="m58.387 180.152-25.535-5.07 24.164-8.902Zm0 0"/><path fill="#b9d295" d="m23.781 338.176 2.883-15.317 28.516 13.004Zm0 0"/><path fill="#fdcf80" d="M107.648 274.176 91.75 312.203l-5.125-42.469Zm0 0"/><path fill="#41f4cf" d="m91.75 312.203-29.71-25.879 24.585-16.59Zm0 0"/><path fill="#6b5660" d="m119.148 314.16-11.5-39.984 39.293-3.387Zm0 0"/><path fill="#3a2e56" d="m168.797 290.113-49.649 24.047 27.793-43.37Zm0 0"/><path fill="#afdfa1" d="m18.273 66.594 6.637-10.149 5.324 15.27Zm0 0"/><path fill="#362b55" d="m24.91 56.445 10.711 1.903-5.387 13.367Zm0 0"/><path fill="#f2d284" d="M35.754 46.938 24.91 56.445 10.598 38.906Zm0 0"/><path fill="#f2d285" d="m35.621 58.348-10.71-1.903 10.843-9.507Zm0 0"/><path fill="#ebd287" d="M24.91 56.445.004 52.07l10.594-13.164Zm0 0"/><path fill="#dcd68e" d="m.004 52.07 24.906 4.375-6.637 10.149Zm0 0"/><path fill="#362d56" d="m345.117 90.91-.105 5.867-22.125 3.196Zm0 0"/><path fill="#363159" d="m334.242 114.555 10.77-17.778 12.976.067Zm0 0"/><path fill="#352a55" d="m322.887 99.973 22.125-3.196-10.77 17.778Zm0 0"/><path fill="#36355c" d="m318.797 77.652 10.129 4.535-6.04 17.786Zm0 0"/><path fill="#f6d183" d="m337.68 77.734-8.754 4.454.91-15.208Zm0 0"/><path fill="#f2d285" d="m328.926 82.188 8.754-4.454 7.437 13.176Zm0 0"/><path fill="#efd386" d="m328.926 82.188 16.191 8.722-22.23 9.063Zm0 0"/><path fill="#352a55" d="m319.535 52.508-.418-32.59 7.649-1.668Zm0 0"/><path fill="#352d56" d="m319.535 52.508-35.808-25.883 35.39-6.707Zm0 0"/><path fill="#352a55" d="m344.957 47.629-25.422 4.879 7.23-34.258Zm0 0"/><path fill="#352a55" d="m337.863 58.59-18.328-6.082 25.422-4.88Zm0 0"/><path fill="#e0d58c" d="m350.383 71.523-12.703 6.211-7.844-10.754Zm0 0"/><path fill="#b4dd9e" d="m350.383 71.523-12.52-12.933 7.094-10.961Zm0 0"/><path fill="#352a55" d="m337.863 58.59 12.52 12.933-20.547-4.543Zm0 0"/><path fill="#f8d182" d="m337.68 77.734 12.703-6.21-5.266 19.386Zm0 0"/><path fill="#fdd080" d="M12.617 207.25 0 217.926l-.012-16.707Zm0 0"/><path fill="#352c56" d="m12.617 207.25-12.629-6.031 18.172-14.063Zm0 0"/><path fill="#352d56" d="m28.375 195.25-15.758 12 5.543-20.094Zm0 0"/><path fill="#352c56" d="m21.668 213.738-9.05-6.488 15.757-12Zm0 0"/><path fill="#352a55" d="m38.094 219.379-16.426-5.64 15.262-8.7Zm0 0"/><path fill="#fecf7f" d="m17.113 229.824 20.98-10.445-4.722 19.926Zm0 0"/><path fill="#fecf7f" d="m21.668 213.738 16.426 5.64-20.98 10.446Zm0 0"/><path fill="#fdd080" d="m290.523 187.246 5.868-2.851 8.332 21.16Zm0 0"/><path fill="#fdcf7f" d="m290.523 187.246 14.2 18.309-18.227 15.16Zm0 0"/><path fill="#fecf7f" d="m271.188 203.156 19.335-15.91-4.027 33.469Zm0 0"/><path fill="#352a55" d="m52.504 323.602-22.281-18.774 23.535-8.265ZM52.504 323.602l-25.84-.743 3.559-18.03Zm0 0"/><path fill="#354666" d="m91.75 312.203-39.246 11.399 1.254-27.04Zm0 0"/><path fill="#352c56" d="m26.664 322.86 25.84.742 2.676 12.261Zm0 0"/><path fill="#353d60" d="m52.504 323.602 39.246-11.399-9.504 22.102Zm0 0"/><path fill="#3b6f7e" d="m55.18 335.863-2.676-12.261 29.742 10.703Zm0 0"/><path fill="#314164" d="m62.04 286.324 29.71 25.88-37.992-15.642Zm0 0"/><path fill="#9be1a8" d="m315.336 316.469-12.512 19.668-8.32-21.106Zm0 0"/><path fill="#a6e0a4" d="m315.336 316.469-20.832-1.438 17.898-13.926Zm0 0"/><path fill="#362f58" d="m345.012 96.777.105-5.867 12.871 5.934Zm0 0"/><path fill="#352a55" d="m329.836 66.98-11.04 10.672.74-25.144Zm0 0"/><path fill="#f7d183" d="m328.926 82.188-10.13-4.536 11.04-10.672Zm0 0"/><path fill="#342e57" d="M318.797 77.652h-15.02l15.758-25.144Zm0 0"/><path fill="#fecf7f" d="m12.617 207.25.848 8.996L0 217.926Zm0 0"/><path fill="#fbce80" d="m13.465 216.246-.848-8.996 9.051 6.488Zm0 0"/><path fill="#fecf7f" d="m0 217.926 13.465-1.68 3.648 13.578Zm0 0"/><path fill="#fecf7f" d="m13.465 216.246 8.203-2.508-4.555 16.086Zm0 0"/><path fill="#1dedd5" d="m296.39 184.395-5.867 2.851-3.535-34.309Zm0 0"/><path fill="#1febd3" d="m286.988 152.938 3.535 34.308-18.101-4.715Zm0 0"/><path fill="#fecf80" d="m290.523 187.246-19.336 15.91 1.235-20.625Zm0 0"/><path fill="#8c7268" d="m91.75 312.203 27.398 1.957-13.828 12.02Zm0 0"/><path fill="#edc27c" d="m119.148 314.16-27.398-1.957 15.898-38.027Zm0 0"/></svg>