<svg xmlns="http://www.w3.org/2000/svg" width="512" height="512" viewBox="0 0 384 384"><path fill="#f6d316" d="m194.363 384.027-54.23-27.386 54.953 11.671Zm0 0"/><path fill="#fed600" d="m218.2 232.484 30.8-1.066-29.043 10.45Zm0 0"/><path fill="#5b0a90" d="m248.344 286.137 10.21 34.879-39.14-16.985Zm0 0"/><path fill="#5d0d8e" d="m-.02 200.707.083-36.937 20.593 24.386Zm0 0"/><path fill="#f3d220" d="m134.64 384.008 5.493-27.367 54.23 27.386Zm0 0"/><path fill="#5d0c8e" d="m216.102 351.258-18.368 7.379-4.898-29.883Zm0 0"/><path fill="#f5d319" d="m140.133 356.64 57.601 1.997-2.648 9.676Zm0 0"/><path fill="#5c0b8e" d="m197.734 358.637-27.047-40.992 22.149 11.109Zm0 0"/><path fill="#fed600" d="m249 231.418-14.844 20.695-14.199-10.246Zm0 0"/><path fill="#5c0b8f" d="M235.82 201.754 249 231.418l-30.8 1.066Zm0 0"/><path fill="#5b0a90" d="m258.555 321.016-11.817 11.996-27.324-28.98ZM203.738 281.195l44.606 4.942-28.93 17.894Zm0 0"/><path fill="#5b0a8f" d="m203.738 281.195-33.05 36.45-1.145-24.938Zm0 0"/><path fill="#5c0b8f" d="m203.738 281.195 30.418-29.082 14.188 34.024Zm0 0"/><path fill="#5b0a90" d="m248.344 286.137 23.625 18.304-13.414 16.575Zm0 0"/><path fill="#5e0d8c" d="m192.938 201.715-1.485 32.617-16.55.598Zm0 0"/><path fill="#782f76" d="m191.453 234.332-22.5 23.008 5.95-22.41Zm0 0"/><path fill="#fed600" d="m191.453 234.332 26.746-1.848 1.758 9.383Zm0 0"/><path fill="#5e0d8e" d="m191.453 234.332 1.484-32.617 25.262 30.77Zm0 0"/><path fill="#f3d21f" d="M111.8 47.18 81.14 63.61 65.21 34.206Zm0 0"/><path fill="#d8bb4f" d="M111.8 47.18 65.21 34.207 87.427.004Zm0 0"/><path fill="#fed601" d="m197.363 24.594-31.215 9.87-.793-34.468Zm0 0"/><path fill="#f4d31c" d="m271.969 304.441 3.238-26.343 25.992 27Zm0 0"/><path fill="#5b0a90" d="m275.207 278.098-26.863 8.039 19.945-11.285Zm0 0"/><path fill="#5b0a90" d="m248.344 286.137 26.863-8.04-3.238 26.344Zm0 0"/><path fill="#f4d21d" d="m263.352 111.469 2.527.644-18.363 17.07Zm0 0"/><path fill="#f1d126" d="m229.684 45.531-29.825-8.433-2.496-12.504Zm0 0"/><path fill="#62138a" d="m199.86 37.098 7.28 19.5-21.035.625Zm0 0"/><path fill="#5c0b90" d="m207.14 56.598 22.544-11.067 6.796 6.926Zm0 0"/><path fill="#671a89" d="m207.14 56.598-7.28-19.5 29.824 8.433Zm0 0"/><path fill="#fed601" d="m173.016 44.484-6.868-10.02 31.215-9.87Zm0 0"/><path fill="#f4d219" d="m199.86 37.098-26.844 7.386 24.347-19.89Zm0 0"/><path fill="#61128b" d="m173.016 44.484 26.843-7.386-13.754 20.125Zm0 0"/><path fill="#fed600" d="m168.953 257.34-16.96-20.95 22.91-1.46Zm0 0"/><path fill="#fed601" d="m151.992 236.39 16.399-30.18 6.511 28.72Zm0 0"/><path fill="#5c0b8f" d="m168.39 206.21 24.548-4.495-18.036 33.215Zm0 0"/><path fill="#f3d21e" d="m213.047 370.79-18.684 13.237.723-15.714Zm0 0"/><path fill="#f6d316" d="m197.734 358.637 15.313 12.152-17.961-2.476Zm0 0"/><path fill="#d1c57e" d="m194.363 384.027 18.684-13.238 54.129 13.227Zm0 0"/><path fill="#7a337a" d="m216.102 351.258-23.266-22.504 26.578-24.723Zm0 0"/><path fill="#5b0a90" d="m192.836 328.754 10.902-47.559 15.676 22.836Zm0 0"/><path fill="#5b0a8f" d="m203.738 281.195-10.902 47.559-22.149-11.11Zm0 0"/><path fill="#8c4968" d="m43.398 384.004-43.414.004 34.47-24.063Zm0 0"/><path fill="#fbd305" d="m0 355.488.004-34.914L25.94 336.29Zm0 0"/><path fill="#f2d11f" d="M104.55 353.344 81.669 334.71l17.355-14.027Zm0 0"/><path fill="#5b0b90" d="m265.895 248.64 2.394 26.212-19.945 11.285Zm0 0"/><path fill="#5d0c8f" d="m234.156 252.113 31.739-3.472-17.551 37.496Zm0 0"/><path fill="#fdd501" d="m265.895 248.64-31.739 3.473L249 231.418Zm0 0"/><path fill="#5e0e8d" d="m265.055 230.895.84 17.746L249 231.418Zm0 0"/><path fill="#742a7a" d="m192.938 201.715 42.882.039-17.62 30.73Zm0 0"/><path fill="#a26351" d="m257.734 211.668 7.32 19.227-16.054.523Zm0 0"/><path fill="#cd992b" d="m235.82 201.754 21.914 9.914-8.734 19.75Zm0 0"/><path fill="#fed600" d="m265.055 230.895-7.32-19.227 22.195 5.465Zm0 0"/><path fill="#f2d221" d="m233.492 347.242 13.246-14.23-7.816 23.07Zm0 0"/><path fill="#5c0c8e" d="m233.492 347.242-17.39 4.016 3.312-47.227Zm0 0"/><path fill="#5b098e" d="m246.738 333.012-13.246 14.23-14.078-43.21Zm0 0"/><path fill="#dcac20" d="m191.453 234.332 12.2 27.125-34.7-4.117Zm0 0"/><path fill="#f1c70f" d="m234.156 252.113-30.504 9.344 16.305-19.59Zm0 0"/><path fill="#fed601" d="m203.652 261.457-12.199-27.125 28.504 7.535Zm0 0"/><path fill="#f5d31a" d="m216.102 351.258-3.055 19.531-15.313-12.152Zm0 0"/><path fill="#eed02e" d="m216.102 351.258 17.39-4.016 5.43 8.84Zm0 0"/><path fill="#eace38" d="M133.305-.012 111.8 47.18 87.426.004Zm0 0"/><path fill="#eabf15" d="M65.21 34.207 63.396-.008l24.03.012Zm0 0"/><path fill="#fed600" d="m166.148 34.465-21.046-1.156L165.355-.004Zm0 0"/><path fill="#5d0c8e" d="m248.602 70.969 14.75 40.5-30.372-15.364Zm0 0"/><path fill="#fad50b" d="m210.746.02-13.383 24.574L165.355-.004Zm0 0"/><path fill="#e8ce3e" d="M243.8 35.395 229.685 45.53l-32.32-20.937Zm0 0"/><path fill="#e2b620" d="m352.328 263.191.305 50.907-2.352-34.75Zm0 0"/><path fill="#fed601" d="m278.273 242.117-13.218-11.222 14.875-13.762Zm0 0"/><path fill="#fdd603" d="m304.82 227.297-26.547 14.82 1.657-24.984Zm0 0"/><path fill="#5c0c8f" d="m278.273 242.117-12.378 6.524-.84-17.746Zm0 0"/><path fill="#5b0a90" d="m265.895 248.64 12.378-6.523-9.984 32.735Zm0 0"/><path fill="#6b1e82" d="m-.012 76.531.098 64.067-.168.03Zm0 0"/><path fill="#ab6f4a" d="M.086 140.598.063 163.77l-.145-23.141Zm0 0"/><path fill="#fed600" d="m.063 163.77.023-23.172 27.3 20.449Zm0 0"/><path fill="#e9ce3a" d="m306.676 116.633 15.972 33.156-22.406 2.29Zm0 0"/><path fill="#5b0a90" d="m147.754 129.414 1.969 13.54-33.762-11.634Zm0 0"/><path fill="#5c0b8f" d="m173.828 160.477 48.34-12.098-10.11 21.195Zm0 0"/><path fill="#5c0c8f" d="m192.938 201.715-19.11-41.238 38.23 9.097Zm0 0"/><path fill="#61128a" d="m27.387 161.047 27.949-19.117 2.61 34.207Zm0 0"/><path fill="#631589" d="m99.746 164.906 20.973 8.754-11.922 9.922Zm0 0"/><path fill="#681a85" d="m99.746 164.906 15.8-8.289 5.173 17.043Zm0 0"/><path fill="#e1cb4f" d="m263.352 111.469-39.563 6.39 9.191-21.754Zm0 0"/><path fill="#bcbab0" d="m223.79 117.86 39.562-6.391-15.836 17.715Zm0 0"/><path fill="#fdd602" d="m220.027 81.64-12.886-25.042 29.34-4.141Zm0 0"/><path fill="#fed600" d="m188.895 80.184 14.609 7.375-8.875 3.468ZM207.14 56.598l-5.882 16.808-15.153-16.183Zm0 0"/><path fill="#fdd501" d="m201.258 73.406-12.363 6.778-2.79-22.961Zm0 0"/><path fill="#fed600" d="m188.895 80.184 12.363-6.778 2.246 14.153Zm0 0"/><path fill="#5b0a90" d="m173.828 160.477-35.488-3.317 11.383-14.207Zm0 0"/><path fill="#5d0c8e" d="m175.633 145.148-1.805 15.329-24.105-17.524Zm0 0"/><path fill="#5b0a90" d="m.04 252.254-.044-19.418 14.774 9.941Zm0 0"/><path fill="#f7ce06" d="m-.016 304.117 11.403 2.207-11.383 14.25Zm0 0"/><path fill="#5b0a90" d="M58.586 266.684 48.53 252.629l26.024-2.848Zm0 0"/><path fill="#8d4864" d="M11.387 306.324.039 252.254l53.524 26.156Zm0 0"/><path fill="#fdd501" d="m71.242 236.621 15.914-7.27-12.601 20.43Zm0 0"/><path fill="#fed600" d="m87.156 229.352-15.914 7.27-2.254-12.134Zm0 0"/><path fill="#5d0c8f" d="m87.156 229.352 2.012-11.606 12.703 15.559Zm0 0"/><path fill="#5b0b90" d="m89.168 217.746-2.012 11.606-18.168-4.864Zm0 0"/><path fill="#924e60" d="m168.39 206.21-26.124-18.995 13.23-10.098Zm0 0"/><path fill="#fed600" d="m145.824 211.809 22.567-5.598-16.399 30.18Zm0 0"/><path fill="#fcd508" d="m168.953 257.34-16.863 3.027-.098-23.976Zm0 0"/><path fill="#f8d410" d="m98.258 256.246-11.102-26.894 14.715 3.953Zm0 0"/><path fill="#b67e44" d="m0 355.488 25.941-19.199 8.512 23.656Zm0 0"/><path fill="#fcd507" d="m34.453 359.945-8.512-23.656 31.989 3.98Zm0 0"/><path fill="#8f4e67" d="M-.016 384.008 0 355.488l34.453 4.457Zm0 0"/><path fill="#edcd2a" d="m71.023 363.82 10.645-29.11 22.883 18.634Zm0 0"/><path fill="#f0cf25" d="m120.664 365.266 2.977-19 16.492 10.375Zm0 0"/><path fill="#ecd032" d="m134.64 384.008-13.976-18.742 19.469-8.625Zm0 0"/><path fill="#eed02e" d="m81.004 384 39.66-18.734 13.977 18.742Zm0 0"/><path fill="#e8c934" d="m71.023 363.82 33.528-10.476L81.004 384Zm0 0"/><path fill="#eed02c" d="m104.55 353.344 16.114 11.922L81.004 384Zm0 0"/><path fill="#eecf2c" d="m120.664 365.266-16.113-11.922 19.09-7.078Zm0 0"/><path fill="#5d0c8e" d="m148.16 336.734 49.574 21.903-57.601-1.996Zm0 0"/><path fill="#5d0c8e" d="m123.64 346.266 24.52-9.532-8.027 19.907Zm0 0"/><path fill="#62138a" d="m197.734 358.637-49.574-21.903 22.528-19.09Zm0 0"/><path fill="#5b0a90" d="m148.16 336.734-19.414-30.418 41.941 11.329Zm0 0"/><path fill="#c89230" d="m203.738 281.195-.086-19.738 30.504-9.344Zm0 0"/><path fill="#5b0a90" d="m168.953 257.34 34.785 23.855-34.195 11.512Zm0 0"/><path fill="#5f0f8c" d="m203.652 261.457.086 19.738-34.785-23.855Zm0 0"/><path fill="#63148a" d="m330.86 369.64 14.066-29.222 5.195 13.125Zm0 0"/><path fill="#a56853" d="m352.633 314.098 31.562 9.476-39.27 16.844Zm0 0"/><path fill="#6c1f81" d="m384.195 323.574-31.562-9.476 31.453-10.207Zm0 0"/><path fill="#d2a12b" d="m384.086 303.89-31.453 10.208-.305-50.907Zm0 0"/><path fill="#a16355" d="m384.086 303.89-.164-49.906.168 50.649Zm0 0"/><path fill="#bc843d" d="m383.922 253.984.164 49.907-31.758-40.7Zm0 0"/><path fill="#d1c57c" d="m351.473 384.008-23.32.012 9.913-10.157Zm0 0"/><path fill="#d3c679" d="m328.152 384.02 2.707-14.38 7.207 4.223Zm0 0"/><path fill="#d0c37c" d="m330.86 369.64-2.708 14.38-28.175-12.184Zm0 0"/><path fill="#5e0e8e" d="m317.188 358.348 13.671 11.293-30.882 2.195Zm0 0"/><path fill="#eed02d" d="m282.484 328.21-10.515-23.769 29.23.657Zm0 0"/><path fill="#eccf32" d="m264.547 326.527-17.809 6.485 11.817-11.996Zm0 0"/><path fill="#d9c868" d="m264.152 346.344 3.024 37.672-28.254-27.934Zm0 0"/><path fill="#f1d023" d="m246.738 333.012 17.414 13.332-25.23 9.738Zm0 0"/><path fill="#ecce31" d="m264.547 326.527-.395 19.817-17.414-13.332Zm0 0"/><path fill="#dcc556" d="m290.324 354.395 26.863 3.953-17.21 13.488Zm0 0"/><path fill="#f1d126" d="m213.047 370.79 3.055-19.532 22.82 4.824Zm0 0"/><path fill="#d2c67b" d="m267.176 384.016-54.13-13.227 25.876-14.707Zm0 0"/><path fill="#fed600" d="m145.102 33.309 13.996 20.367-23.395 6.781Zm0 0"/><path fill="#782f77" d="m33.09-.004 6.777 19.156L.004 34.887Zm0 0"/><path fill="#af754a" d="M33.09-.004.004 34.886 0 .009Zm0 0"/><path fill="#631589" d="m33.09-.004 30.305-.004-23.528 19.16Zm0 0"/><path fill="#62128a" d="M39.867 19.152 63.395-.008l1.816 34.215Zm0 0"/><path fill="#7b3275" d="m39.867 19.152-6.047 27.75L.004 34.887Zm0 0"/><path fill="#681b84" d="m47.879 95.762 25.351-4.586-19.27 10.863Zm0 0"/><path fill="#fed600" d="M145.102 33.309 133.305-.011l32.05.007Zm0 0"/><path fill="#f1cb18" d="m73.23 91.176 7.91-27.567 15.051 19.899Zm0 0"/><path fill="#efd02c" d="m96.191 83.508-15.05-19.899 30.66-16.43Zm0 0"/><path fill="#fdd501" d="M159.098 53.676 148.102 67.96l-12.399-7.504Zm0 0"/><path fill="#671883" d="m383.996 178.512-20.11-13.192 20.102-66.78Zm0 0"/><path fill="#edc71d" d="m363.887 165.32 1.96 29.043-17.167-35.937Zm0 0"/><path fill="#6a1d83" d="m348.68 158.426 21.554-61.031 13.754 1.144Zm0 0"/><path fill="#691b84" d="m363.887 165.32-15.207-6.894 35.308-59.887Zm0 0"/><path fill="#fdd603" d="m299.242 193.492 5.578 33.805-24.89-10.164Zm0 0"/><path fill="#661886" d="M363.742 34.363 383.996.003v59.114Zm0 0"/><path fill="#65188c" d="m363.742 34.363-21.191 22.844-10.121-16.77Zm0 0"/><path fill="#f9d108" d="m350.848 101.223 19.386-3.828-17.718 7.128Zm0 0"/><path fill="#6b1c7f" d="m370.234 97.395-19.386 3.828-.473-15.922Zm0 0"/><path fill="#deca5a" d="m269.547 54.352 30.75.18-11.93 27.452Zm0 0"/><path fill="#5b0a90" d="m354.098 243.195 29.824 10.79-31.594 9.206Zm0 0"/><path fill="#70257d" d="m290.734 261.93-15.527 16.168-6.918-3.246Zm0 0"/><path fill="#fdd503" d="m278.273 242.117 12.461 19.813-22.445 12.922Zm0 0"/><path fill="#f4d21d" d="m275.207 278.098 26.95 3.187-.958 23.813Zm0 0"/><path fill="#efca1d" d="m302.156 281.285 18.434 9.809-19.39 14.004Zm0 0"/><path fill="#5d0c8f" d="m320.59 291.094-18.434-9.809 15.047-14.07Zm0 0"/><path fill="#f7d211" d="m320.59 291.094 31.738-27.903-2.047 16.157Zm0 0"/><path fill="#f2cd18" d="m352.328 263.191-31.738 27.903-3.387-23.88Zm0 0"/><path fill="#f0c50d" d="m55.336 141.93 16.922-5.332-14.313 39.539Zm0 0"/><path fill="#f6cc07" d="m72.258 136.598-16.922 5.332-1.375-39.89Zm0 0"/><path fill="#fdd603" d="m.063 163.77 27.656 13.585-7.063 10.801Zm0 0"/><path fill="#fed600" d="M27.719 177.355.063 163.77l27.324-2.723Zm0 0"/><path fill="#fed600" d="m.086 140.598 29.176 7.691-1.875 12.758Zm0 0"/><path fill="#641688" d="m29.262 148.29 26.074-6.36-27.95 19.117Zm0 0"/><path fill="#5c0b8f" d="m47.879 95.762-18.617 52.527L-.012 76.531Zm0 0"/><path fill="#6f237e" d="M29.262 148.29.086 140.597-.012 76.53ZM29.262 148.29l18.617-52.528 6.082 6.277Zm0 0"/><path fill="#691b84" d="m55.336 141.93-26.074 6.36 24.699-46.25Zm0 0"/><path fill="#5c0c8f" d="m40.594 220.922 8.98-12.602 19.414 16.168Zm0 0"/><path fill="#fed600" d="m50.547 244.469-9.953-23.547 28.394 3.566ZM71.242 236.621l-20.695 7.848 18.441-19.98Zm0 0"/><path fill="#5b0b90" d="m48.531 252.629 2.016-8.16 24.008 5.312Zm0 0"/><path fill="#b87e3e" d="m50.547 244.469 20.695-7.848 3.313 13.16Zm0 0"/><path fill="#5b0a90" d="m34.328 242.004 16.219 2.465-2.016 8.16Zm0 0"/><path fill="#deaf1d" d="m50.547 244.469-16.219-2.465 6.266-21.082Zm0 0"/><path fill="#f8d411" d="m285.168 151.754-37.652-22.57 18.363-17.07Zm0 0"/><path fill="#eed02d" d="m285.168 151.754 21.508-35.121-6.434 35.445Zm0 0"/><path fill="#eed02d" d="m306.676 116.633-21.508 35.12-19.29-39.64Zm0 0"/><path fill="#d1b356" d="m335.488 115.984-12.84 33.805-15.972-33.156Zm0 0"/><path fill="#fed601" d="m322.203 83.11 12.703 11.609-28.23 21.914Zm0 0"/><path fill="#5e0d8e" d="m334.906 94.719.582 21.265-28.812.649Zm0 0"/><path fill="#61128b" d="m138.34 157.16-22.38-25.84 33.763 11.633Zm0 0"/><path fill="#c49037" d="m115.96 131.32 22.38 25.84-22.793-.543Zm0 0"/><path fill="#5b0a90" d="m157.305 135.012 18.328 10.136-25.91-2.195Zm0 0"/><path fill="#5c0c90" d="m147.754 129.414 9.55 5.598-7.581 7.941Zm0 0"/><path fill="#f9d40e" d="m85.594 154.664-13.336-18.066 23.406-16.102Zm0 0"/><path fill="#fad104" d="m72.258 136.598 13.336 18.066-27.649 21.473Zm0 0"/><path fill="#5c0b8f" d="M89.168 217.746 78.75 202.707l19.54 4.54Zm0 0"/><path fill="#5b0a90" d="m78.75 202.707 10.418 15.04-20.18 6.741Zm0 0"/><path fill="#fad50b" d="m105.293 121.988-2.64 31.285-6.989-32.777Zm0 0"/><path fill="#f7d312" d="m102.652 153.273-17.058 1.391 10.07-34.168Zm0 0"/><path fill="#f3cf1b" d="m85.594 154.664 17.058-1.39-7.21 9.398Zm0 0"/><path fill="#6a1c83" d="m99.746 164.906 2.906-11.633 12.895 3.344Zm0 0"/><path fill="#fcd506" d="m102.652 153.273-2.906 11.633-4.305-2.234Zm0 0"/><path fill="#681a84" d="m102.652 153.273 13.309-21.953-.414 25.297Zm0 0"/><path fill="#fad50b" d="m115.96 131.32-13.308 21.953 2.641-31.285Zm0 0"/><path fill="#f3cf1a" d="m223.79 117.86-.669-18.645 9.86-3.11Zm0 0"/><path fill="#5c0b8f" d="m199.734 102.918 23.387-3.703.668 18.644Zm0 0"/><path fill="#bebdaf" d="m157.305 135.012 19.535-9.696-1.207 19.832Zm0 0"/><path fill="#fed601" d="m223.121 99.215-23.387 3.703 3.77-15.36Zm0 0"/><path fill="#fbd406" d="m223.121 99.215-3.094-17.574 12.953 14.464Zm0 0"/><path fill="#fed600" d="m220.027 81.64-18.77-8.234 5.884-16.808Zm0 0"/><path fill="#fed601" d="m220.027 81.64 3.094 17.575-19.617-11.656Zm0 0"/><path fill="#fed600" d="m201.258 73.406 18.77 8.235-16.524 5.918Zm0 0"/><path fill="#5d0c8e" d="m155.496 177.117 37.441 24.598-24.546 4.496Zm0 0"/><path fill="#651787" d="m155.496 177.117 18.332-16.64 19.11 41.238Zm0 0"/><path fill="#5d0c8f" d="m222.168 148.379-48.34 12.098 1.805-15.329Zm0 0"/><path fill="#fed602" d="m152.09 260.367 17.453 32.34-25.906-25.656Zm0 0"/><path fill="#fed600" d="m169.543 292.707-17.453-32.34 16.863-3.027Zm0 0"/><path fill="#5b0990" d="m128.746 306.316 40.797-13.609 1.144 24.938Zm0 0"/><path fill="#5b0a90" d="m58.586 266.684-27.61-4.176 17.555-9.88Zm0 0"/><path fill="#5c0b8f" d="m.04 252.254 30.937 10.254 22.586 15.902Zm0 0"/><path fill="#6f237f" d="m.04 252.254 11.347 54.07-11.403-2.207Zm0 0"/><path fill="#fdd603" d="m145.824 211.809-3.558-24.594 26.125 18.996Zm0 0"/><path fill="#f7d212" d="m151.992 236.39-16.008 23.137-21.41-38.39Zm0 0"/><path fill="#661887" d="m114.574 221.137 21.41 38.39-34.113-26.222Zm0 0"/><path fill="#d5ab35" d="m135.984 259.527-37.726-3.28 3.613-22.942Zm0 0"/><path fill="#ddae20" d="m87.156 229.352 11.102 26.894-23.703-6.465Zm0 0"/><path fill="#f9d309" d="m71.023 363.82-36.57-3.875L57.93 340.27Zm0 0"/><path fill="#99595a" d="m.004 320.574 11.383-14.25 15.824 17.582Zm0 0"/><path fill="#fdd604" d="M25.941 336.29.004 320.573l27.207 3.332Zm0 0"/><path fill="#f0cf24" d="m123.64 346.266-19.09 7.078-5.527-32.66Zm0 0"/><path fill="#5b0a90" d="m128.746 306.316-5.105 39.95-24.618-25.582Zm0 0"/><path fill="#5b0a90" d="m123.64 346.266 5.106-39.95 19.414 30.418Zm0 0"/><path fill="#d5b244" d="m344.926 340.418-27.738 17.93-12.301-18.907Zm0 0"/><path fill="#5e0e8e" d="m344.926 340.418-14.067 29.223-13.671-11.293Zm0 0"/><path fill="#d4c574" d="m338.066 373.863-7.207-4.222 19.262-16.098Zm0 0"/><path fill="#98585e" d="m350.121 353.543-5.195-13.125 39.27-16.844Zm0 0"/><path fill="#d5c673" d="m351.473 384.008-13.407-10.145 12.055-20.32Zm0 0"/><path fill="#e7cd3e" d="m271.969 304.441-7.422 22.086-5.992-5.511Zm0 0"/><path fill="#ecd032" d="m282.484 328.21-17.937-1.683 7.422-22.086Zm0 0"/><path fill="#f0d126" d="m282.484 328.21-18.332 18.134.395-19.817Zm0 0"/><path fill="#ddc85b" d="m282.484 328.21 7.84 26.185-26.172-8.051Zm0 0"/><path fill="#d5c772" d="m267.176 384.016 32.8-12.18 28.176 12.184Zm0 0"/><path fill="#dcc85d" d="m267.176 384.016 23.148-29.621 9.653 17.44Zm0 0"/><path fill="#ddca5c" d="m290.324 354.395-23.148 29.62-3.024-37.671Zm0 0"/><path fill="#fed600" d="m145.102 33.309 21.046 1.156-7.05 19.21Zm0 0"/><path fill="#fdd605" d="m166.148 34.465 6.868 10.02-13.918 9.19Zm0 0"/><path fill="#fed600" d="M145.102 33.309 111.8 47.179 133.305-.01Zm0 0"/><path fill="#5f108c" d="M65.21 34.207 33.82 46.902l6.047-27.75Zm0 0"/><path fill="#5b0a90" d="M59.832 63.168 33.82 46.902l31.39-12.695Zm0 0"/><path fill="#f0c510" d="m82.035 110.746-8.805-19.57 22.961-7.668Zm0 0"/><path fill="#fbd406" d="m95.664 120.496-13.629-9.75 14.156-27.238Zm0 0"/><path fill="#f8d310" d="m72.258 136.598 9.777-25.852 13.63 9.75Zm0 0"/><path fill="#f4ca09" d="m73.23 91.176 8.805 19.57-28.074-8.707Zm0 0"/><path fill="#f4c909" d="m82.035 110.746-9.777 25.852-18.297-34.559Zm0 0"/><path fill="#fed600" d="M115.184 84.93 111.8 47.18l23.902 13.277Zm0 0"/><path fill="#fed601" d="M115.184 84.93 96.19 83.508l15.61-36.328Zm0 0"/><path fill="#651787" d="m365.848 194.363 18.148-15.851.04 26.816Zm0 0"/><path fill="#671986" d="m383.996 178.512-18.148 15.851-1.961-29.043Zm0 0"/><path fill="#671884" d="m383.996 59.117-14.262 8.895-5.992-33.649Zm0 0"/><path fill="#d8c769" d="M300.297 54.531 322.43.008l10 40.43Zm0 0"/><path fill="#f5ce0f" d="m363.742 34.363 5.992 33.649-27.183-10.805Zm0 0"/><path fill="#f0c510" d="m348.68 158.426 8.867-25.117 12.687-35.914Zm0 0"/><path fill="#fbd204" d="m370.234 97.395-12.687 35.914-5.031-28.786Zm0 0"/><path fill="#fbd204" d="m357.547 133.309-22.059-17.325 17.028-11.46Zm0 0"/><path fill="#691a81" d="m369.734 68.012 14.262-8.895-.008 39.422Zm0 0"/><path fill="#6d1d7b" d="m370.234 97.395-.5-29.383 14.254 30.527Zm0 0"/><path fill="#6d1f7e" d="m369.734 68.012.5 29.383L350.375 85.3Zm0 0"/><path fill="#dfcb56" d="m322.203 83.11-15.527 33.523-18.309-34.649Zm0 0"/><path fill="#ebcf36" d="m288.367 81.984 18.309 34.649-40.797-4.52Zm0 0"/><path fill="#5d0c8e" d="m365.875 232.438 18.145-4.614-.098 26.16Zm0 0"/><path fill="#5b0a90" d="m354.098 243.195 11.777-10.757 18.047 21.546Zm0 0"/><path fill="#b87e3f" d="m365.875 232.438-11.777 10.757-2.332-17.742Zm0 0"/><path fill="#f9d10a" d="m310.863 218.96-6.043 8.337-5.578-33.805Zm0 0"/><path fill="#fcd505" d="m297.758 245.8-19.485-3.683 26.547-14.82Zm0 0"/><path fill="#fbd508" d="m297.758 245.8-7.024 16.13-12.46-19.813Zm0 0"/><path fill="#651787" d="m352.328 263.191-26.285-19.222 28.055-.774Zm0 0"/><path fill="#5d0d8e" d="m326.043 243.969 26.285 19.222-35.125 4.024Zm0 0"/><path fill="#a06154" d="m326.043 243.969-28.285 1.832 7.062-18.504Zm0 0"/><path fill="#5b0a90" d="m297.758 245.8 28.285-1.831-8.84 23.246Zm0 0"/><path fill="#671985" d="M73.23 91.176 47.88 95.762l11.953-32.594Zm0 0"/><path fill="#5b0a90" d="m34.328 242.004-3.351 20.504-16.207-19.73Zm0 0"/><path fill="#5b0a90" d="m30.977 262.508 3.351-20.504 14.203 10.625ZM30.977 262.508.039 252.254l14.73-9.477Zm0 0"/><path fill="#631489" d="m-.004 232.836 16.711-4.707-1.937 14.648Zm0 0"/><path fill="#5d0c8e" d="m16.707 228.129 17.621 13.875-19.558.773Zm0 0"/><path fill="#5b0a8f" d="m239.516 160.914-17.348-12.535 25.348-19.195Zm0 0"/><path fill="#e1ca4f" d="m300.297 54.531 21.906 28.578-33.836-1.125Zm0 0"/><path fill="#fcd505" d="m115.184 84.93 12.57 23.316-22.461 13.742Zm0 0"/><path fill="#fcd606" d="m115.184 84.93-19.52 35.566.527-36.988Zm0 0"/><path fill="#fdd605" d="m95.664 120.496 19.52-35.566-9.891 37.058Zm0 0"/><path fill="#5b0a90" d="m173.828 160.477-18.332 16.64-17.156-19.957Zm0 0"/><path fill="#8f4b62" d="m138.34 157.16-17.621 16.5-5.172-17.043Zm0 0"/><path fill="#99575a" d="m120.719 173.66 17.62-16.5 17.157 19.957Zm0 0"/><path fill="#fad103" d="m49.574 208.32 29.176-5.613-9.762 21.781Zm0 0"/><path fill="#5d0d8e" d="m78.75 202.707 35.512-13.473-15.973 18.012Zm0 0"/><path fill="#6d2282" d="m108.797 183.582 5.465 5.652-35.512 13.473Zm0 0"/><path fill="#5c0b8f" d="m165.828 83.668 9.266 13.023-16.602 3.559Zm0 0"/><path fill="#651787" d="m175.094 96.691 13.8-16.507 5.735 10.843Zm0 0"/><path fill="#5b0a90" d="m175.094 96.691-9.266-13.023 23.067-3.484Zm0 0"/><path fill="#60108c" d="m169.723 63.242-21.621 4.719 10.996-14.285Zm0 0"/><path fill="#c9c292" d="m223.79 117.86-1.622 30.519-18.234-23.879Zm0 0"/><path fill="#c2bfa7" d="m222.168 148.379 1.621-30.52 23.727 11.325Zm0 0"/><path fill="#f5d216" d="m199.734 102.918 4.2 21.582-21.262-18.36Zm0 0"/><path fill="#5d0d8e" d="m203.934 124.5-4.2-21.582 24.055 14.941Zm0 0"/><path fill="#fed601" d="m199.734 102.918-5.105-11.89 8.875-3.47Zm0 0"/><path fill="#fdd603" d="m194.629 91.027 5.105 11.891-17.062 3.223Zm0 0"/><path fill="#c9c08f" d="m203.934 124.5 18.234 23.879-46.535-3.23Zm0 0"/><path fill="#c5c09f" d="m176.84 125.316 27.094-.816-28.301 20.648Zm0 0"/><path fill="#dbc960" d="m203.934 124.5-27.094.816 5.832-19.175Zm0 0"/><path fill="#f8d20e" d="m81.668 334.71-1.023-21.17 18.378 7.144Zm0 0"/><path fill="#691c84" d="m89.168 217.746 25.406 3.39-12.703 12.169Zm0 0"/><path fill="#b07649" d="m114.574 221.137-25.406-3.39 9.121-10.5Zm0 0"/><path fill="#fed601" d="m145.824 211.809-31.25 9.328 27.692-33.922Zm0 0"/><path fill="#8d4964" d="m142.266 187.215-21.547-13.555 34.777 3.457Zm0 0"/><path fill="#e1b31d" d="m135.984 259.527 16.106.84-8.453 6.684Zm0 0"/><path fill="#60108c" d="m98.258 256.246 37.726 3.281 7.653 7.524Zm0 0"/><path fill="#f8d30f" d="m152.09 260.367-16.106-.84 16.008-23.136Zm0 0"/><path fill="#5b0a90" d="m84.555 271.078-25.97-4.394 15.97-16.903Zm0 0"/><path fill="#5b0a90" d="m98.258 256.246-13.703 14.832-10-21.297Zm0 0"/><path fill="#5d0d8e" d="m71.023 363.82-27.625 20.184-8.945-24.059Zm0 0"/><path fill="#5d0c8e" d="m71.023 363.82-9.957-24.797 20.602-4.312Zm0 0"/><path fill="#5d0c8f" d="m61.066 339.023 9.957 24.797-13.093-23.55Zm0 0"/><path fill="#995a5f" d="m384.008 383.953-33.887-30.41 34.074-29.969Zm0 0"/><path fill="#742c7d" d="m350.121 353.543 33.887 30.41-32.535.055Zm0 0"/><path fill="#5e0e8e" d="m343.836 302.691 8.797 11.407-10.61 1.8Zm0 0"/><path fill="#fad205" d="m352.633 314.098-7.707 26.32-2.903-24.52Zm0 0"/><path fill="#d9c35a" d="m290.324 354.395 14.563-14.954 12.3 18.907Zm0 0"/><path fill="#ddc95a" d="m304.887 339.441-14.563 14.954-7.84-26.184Zm0 0"/><path fill="#5b0a90" d="M47.879 95.762 30.777 71.523l29.055-8.355Zm0 0"/><path fill="#5c0b8f" d="M30.777 71.523 47.88 95.762l-47.89-19.23Zm0 0"/><path fill="#f9d107" d="m81.14 63.61-7.91 27.566-13.398-28.008Zm0 0"/><path fill="#f5d219" d="m81.14 63.61-21.308-.442 5.379-28.961Zm0 0"/><path fill="#fed600" d="m148.102 67.96-7.27 10.294-5.129-17.797Zm0 0"/><path fill="#fed600" d="m140.832 78.254-25.648 6.676 20.52-24.473ZM384.02 227.824l-16.672-15.594 16.687-6.902Zm0 0"/><path fill="#60108c" d="m367.348 212.23-1.5-17.867 18.187 10.965Zm0 0"/><path fill="#fed600" d="m367.348 212.23-1.473 20.208-14.11-6.985ZM365.875 232.438l1.473-20.208 16.672 15.594Zm0 0"/><path fill="#661b8d" d="m339.113 58.336-6.683-17.898 10.12 16.769Zm0 0"/><path fill="#d8c86b" d="m282.059-.008 40.37.016-22.132 54.523Zm0 0"/><path fill="#7a3b89" d="M322.203 83.11 300.297 54.53 327.199 65.5Zm0 0"/><path fill="#5f0f8c" d="m335.488 115.984 22.059 17.325-34.899 16.48Zm0 0"/><path fill="#fed600" d="m357.547 133.309-8.867 25.117-26.032-8.637Zm0 0"/><path fill="#f0d127" d="m269.547 54.352-10.149 24.66-12.68-23.563Zm0 0"/><path fill="#efd02b" d="m269.547 54.352 18.82 27.632-28.969-2.972Zm0 0"/><path fill="#eccf33" d="m288.367 81.984-22.488 30.13-6.48-33.102Zm0 0"/><path fill="#edc111" d="m259.398 79.012 6.48 33.101-17.276-41.144Zm0 0"/><path fill="#ebc827" d="m248.602 70.969 17.277 41.144-2.527-.644Zm0 0"/><path fill="#f1d124" d="M197.363 24.594 210.746.02l33.055 35.375Zm0 0"/><path fill="#c4c0a2" d="m210.746.02 71.313-.028L243.8 35.395Zm0 0"/><path fill="#5b0a90" d="m220.027 81.64 28.575-10.671-15.622 25.136Zm0 0"/><path fill="#fed600" d="M248.602 70.969 220.027 81.64l16.453-29.184Zm0 0"/><path fill="#6e2280" d="m259.398 79.012-10.796-8.043-1.883-15.52Zm0 0"/><path fill="#5b0a90" d="M248.602 70.969 236.48 52.457l10.239 2.992Zm0 0"/><path fill="#e7c835" d="m243.8 35.395-7.32 17.062-6.796-6.926Zm0 0"/><path fill="#e4c943" d="m236.48 52.457 7.32-17.062 2.919 20.054Zm0 0"/><path fill="#762c79" d="m316.227 202.57-5.364 16.39-11.62-25.468Zm0 0"/><path fill="#edcc29" d="m316.227 202.57-16.985-9.078 23.406-43.703Zm0 0"/><path fill="#5b0b90" d="m297.758 245.8 19.445 21.415-26.469-5.285Zm0 0"/><path fill="#5f0f8d" d="m290.734 261.93 26.47 5.285-41.997 10.883Zm0 0"/><path fill="#fad40b" d="m317.203 267.215-15.047 14.07-26.949-3.187Zm0 0"/><path fill="#ecc012" d="m339.164 232.047 12.602-6.594 2.332 17.742Zm0 0"/><path fill="#bb833c" d="m326.043 243.969 13.121-11.922 14.934 11.148Zm0 0"/><path fill="#fed601" d="m351.766 225.453-12.602 6.594.961-9.246Zm0 0"/><path fill="#ebbe13" d="m339.164 232.047-13.121 11.922-21.223-16.672Zm0 0"/><path fill="#fed600" d="m310.863 218.96 28.301 13.087-34.344-4.75Zm0 0"/><path fill="#fed600" d="m339.164 232.047-28.3-13.086 29.261 3.84Zm0 0"/><path fill="#5b0a90" d="m49.574 208.32-28.918-20.164 28.633 2.63Zm0 0"/><path fill="#5c0b8f" d="m20.656 188.156 7.063-10.8 21.57 13.43Zm0 0"/><path fill="#fdd501" d="m0 217.273 16.707 10.856-16.71 4.707Zm0 0"/><path fill="#efce27" d="m299.242 193.492 1-41.414 22.406-2.289Zm0 0"/><path fill="#ecce2f" d="m300.242 152.078-1 41.414-14.074-41.738Zm0 0"/><path fill="#8b4666" d="m239.516 160.914-3.696 40.84-23.761-32.18Zm0 0"/><path fill="#9c5b57" d="m235.82 201.754 3.696-40.84 27.78 10.117Zm0 0"/><path fill="#a36450" d="m235.82 201.754-42.882-.04 19.12-32.14Zm0 0"/><path fill="#742a7b" d="m267.297 171.031-27.781-10.117 8-31.73Zm0 0"/><path fill="#f7d312" d="m285.168 151.754-17.871 19.277-19.781-41.847Zm0 0"/><path fill="#9b5b58" d="m222.168 148.379 17.348 12.535-27.457 8.66Zm0 0"/><path fill="#5b0a90" d="m127.754 108.246 20 21.168-31.793 1.906Zm0 0"/><path fill="#fcd405" d="m105.293 121.988 22.46-13.742-11.792 23.074Zm0 0"/><path fill="#e7ca3b" d="m147.754 129.414 1.684-30.351 9.054 1.187Zm0 0"/><path fill="#5d0c8e" d="m149.438 99.063-1.684 30.351-20-21.168Zm0 0"/><path fill="#fdd502" d="m115.184 84.93 21.18 5.07-8.61 18.246Zm0 0"/><path fill="#5d0d8e" d="m136.363 90 13.075 9.063-21.684 9.183Zm0 0"/><path fill="#fed600" d="M140.832 78.254 136.363 90l-21.18-5.07Zm0 0"/><path fill="#60118b" d="m49.29 190.785 29.46 11.922-29.176 5.613Zm0 0"/><path fill="#651687" d="m49.29 190.785 8.655-14.648 20.805 26.57Zm0 0"/><path fill="#5c0b8f" d="m91.527 175.945 17.27 7.637-30.047 19.125Zm0 0"/><path fill="#fed600" d="m57.945 176.137 33.582-.192-12.777 26.762Zm0 0"/><path fill="#fad50d" d="m91.527 175.945-5.933-21.28 9.847 8.007Zm0 0"/><path fill="#fdd501" d="m91.527 175.945-33.582.192 27.649-21.473Zm0 0"/><path fill="#60108c" d="m91.527 175.945 8.22-11.039 9.05 18.676Zm0 0"/><path fill="#f4d21a" d="m99.746 164.906-8.219 11.04 3.914-13.274Zm0 0"/><path fill="#762c78" d="m120.719 173.66-6.457 15.574-5.465-5.652Zm0 0"/><path fill="#dac861" d="m168.566 116.676 14.106-10.535-5.832 19.175Zm0 0"/><path fill="#5e0f8e" d="m158.492 100.25 10.074 16.426-20.812 12.738Zm0 0"/><path fill="#c3bfa3" d="m168.566 116.676-11.261 18.336-9.551-5.598Zm0 0"/><path fill="#c7c098" d="m168.566 116.676 8.274 8.64-19.535 9.696Zm0 0"/><path fill="#661786" d="m182.672 106.14-7.578-9.449 19.535-5.664Zm0 0"/><path fill="#5c0c8f" d="m175.094 96.691-6.528 19.985-10.074-16.426Zm0 0"/><path fill="#6b1f82" d="m168.566 116.676 6.528-19.985 7.578 9.45Zm0 0"/><path fill="#fed600" d="m165.828 83.668 3.895-20.426 19.172 16.942Zm0 0"/><path fill="#fed501" d="m188.895 80.184-19.172-16.942 16.382-6.02Zm0 0"/><path fill="#87416a" d="m169.723 63.242 3.293-18.758 13.09 12.739Zm0 0"/><path fill="#61118b" d="m173.016 44.484-3.293 18.758-10.625-9.566Zm0 0"/><path fill="#5b0a90" d="m11.387 306.324 42.398 2.363-26.574 15.22Zm0 0"/><path fill="#5f0f8d" d="m53.563 278.41.222 30.277-42.398-2.363Zm0 0"/><path fill="#6e2180" d="m53.563 278.41-22.586-15.902 27.609 4.176Zm0 0"/><path fill="#c89535" d="m114.262 189.234.312 31.903-16.285-13.89Zm0 0"/><path fill="#fdd603" d="m151.992 236.39-37.418-15.253 31.25-9.328Zm0 0"/><path fill="#80386f" d="m142.266 187.215-28.004 2.02 6.457-15.575Zm0 0"/><path fill="#fad409" d="m114.262 189.234 28.004-2.02-27.692 33.923Zm0 0"/><path fill="#5b0a90" d="m104.719 282.668-20.164-11.59 13.703-14.832Zm0 0"/><path fill="#5c0b90" d="m104.719 282.668-6.461-26.422 45.379 10.805Zm0 0"/><path fill="#661887" d="m71.023 363.82 9.98 20.18-37.605.004Zm0 0"/><path fill="#661886" d="m352.633 314.098-8.797-11.407 6.445-23.343Zm0 0"/><path fill="#5e0d8e" d="m344.926 340.418-38.344-11.633 35.441-12.887Zm0 0"/><path fill="#71267e" d="m306.582 328.785 38.344 11.633-40.04-.977Zm0 0"/><path fill="#e4cc49" d="m306.582 328.785-1.695 10.656-22.403-11.23Zm0 0"/><path fill="#e6cd44" d="m306.582 328.785-24.098-.574 18.715-23.113Zm0 0"/><path fill="#e6cc41" d="m301.2 305.098 19.39-14.004 21.433 24.804Zm0 0"/><path fill="#5c0c8f" d="m343.836 302.691-23.246-11.597 29.691-11.746Zm0 0"/><path fill="#e0c84d" d="m320.59 291.094 23.246 11.597-1.813 13.207Zm0 0"/><path fill="#fed601" d="m111.8 47.18 33.302-13.871-9.399 27.148Zm0 0"/><path fill="#fbd203" d="m154.152 81.41 11.676 2.258-7.336 16.582Zm0 0"/><path fill="#e5b716" d="m154.152 81.41 15.57-18.168-3.894 20.426Zm0 0"/><path fill="#f4ca0c" d="m149.438 99.063 4.714-17.653 4.34 18.84Zm0 0"/><path fill="#8e4a63" d="m169.723 63.242-15.57 18.168-6.051-13.45Zm0 0"/><path fill="#5d0d8e" d="m154.152 81.41-13.32-3.156 7.27-10.293Zm0 0"/><path fill="#fed600" d="m343.617 212.297 8.149 13.156-11.641-2.652Zm0 0"/><path fill="#d9a823" d="m367.348 212.23-23.73.067 22.23-17.934Zm0 0"/><path fill="#fed600" d="m343.617 212.297 23.73-.067-15.581 13.223Zm0 0"/><path fill="#ebc826" d="m360.434.016 3.308 34.347-31.312 6.075Zm0 0"/><path fill="#905f8b" d="m322.43.008 38.004.008-28.004 40.422Zm0 0"/><path fill="#eacf37" d="m243.8 35.395 25.747 18.957-22.828 1.097Zm0 0"/><path fill="#e1cb53" d="M269.547 54.352 243.8 35.395 282.059-.008Zm0 0"/><path fill="#fed600" d="m310.863 218.96 32.754-6.663-3.492 10.504Zm0 0"/><path fill="#641588" d="m316.227 202.57 27.39 9.727-32.754 6.664Zm0 0"/><path fill="#dbaf28" d="m365.848 194.363-22.23 17.934 5.062-53.871Zm0 0"/><path fill="#d6b84f" d="m348.68 158.426-5.063 53.87-20.969-62.507Zm0 0"/><path fill="#d4b855" d="m343.617 212.297-27.39-9.727 6.421-52.78Zm0 0"/><path fill="#5e0d8e" d="m13.215 63.45 17.562 8.073-30.789 5.008Zm0 0"/><path fill="#914e61" d="M13.215 63.45-.012 76.53l.016-41.644Zm0 0"/><path fill="#5b0a90" d="m21.367 212.691-.71-24.535 28.917 20.164Zm0 0"/><path fill="#6b1e82" d="m277.824 183.484-42.004 18.27 31.477-30.723Zm0 0"/><path fill="#f4c909" d="m277.824 183.484-20.09 28.184-21.914-9.914Zm0 0"/><path fill="#5c0b8f" d="m27.719 177.355 30.226-1.218-8.656 14.648Zm0 0"/><path fill="#fed602" d="m57.945 176.137-30.226 1.218-.332-16.308Zm0 0"/><path fill="#5d0c8e" d="m25.941 336.29 28.383-8.353 3.606 12.333Zm0 0"/><path fill="#5c0b8f" d="m54.324 327.938 6.742 11.085-3.136 1.247Zm0 0"/><path fill="#f4cf16" d="m54.324 327.938-28.383 8.351 1.27-12.383Zm0 0"/><path fill="#5b0a90" d="m53.785 308.688.54 19.25-27.114-4.032Zm0 0"/><path fill="#fdd502" d="m84.555 271.078-14.59 19.91-11.38-24.304Zm0 0"/><path fill="#f5cb08" d="M69.965 290.988 53.562 278.41l5.024-11.726Zm0 0"/><path fill="#5b0a90" d="m128.746 306.316-24.027-23.648 38.918-15.617Zm0 0"/><path fill="#5b0a90" d="m169.543 292.707-40.797 13.61 14.89-39.266ZM26.852 56.234l32.98 6.934-29.055 8.355Zm0 0"/><path fill="#fdd603" d="m33.82 46.902-6.968 9.332L.004 34.887Zm0 0"/><path fill="#fed601" d="m59.832 63.168-32.98-6.934 6.968-9.332ZM26.852 56.234 13.215 63.45.004 34.887ZM13.215 63.45l13.637-7.216 3.925 15.29Zm0 0"/><path fill="#5f0f8d" d="m154.152 81.41-9.132 5.457-4.188-8.613Zm0 0"/><path fill="#6d2180" d="m145.02 86.867 9.132-5.457-4.714 17.653Zm0 0"/><path fill="#641589" d="M145.02 86.867 136.363 90l4.469-11.746Zm0 0"/><path fill="#5f0f8d" d="m136.363 90 8.657-3.133 4.417 12.195Zm0 0"/><path fill="#631589" d="m335.488 115.984 15.36-14.761 1.668 3.3Zm0 0"/><path fill="#5d0c8e" d="m334.906 94.719 15.942 6.504-15.36 14.761Zm0 0"/><path fill="#fed600" d="m336.52 80.645-14.317 2.464L327.2 65.5ZM322.203 83.11l14.317-2.465-1.614 14.074Zm0 0"/><path fill="#a5828b" d="m327.2 65.5-26.903-10.969 32.133-14.093Zm0 0"/><path fill="#63188f" d="M339.113 58.336 327.2 65.5l5.23-25.062Zm0 0"/><path fill="#681a85" d="M363.742 34.363 360.434.016l23.562-.012Zm0 0"/><path fill="#fdd602" d="m344.766 72.906-8.246 7.739L327.2 65.5Zm0 0"/><path fill="#5e0d8d" d="m344.766 72.906-5.653-14.57 3.438-1.129Zm0 0"/><path fill="#5e0d8d" d="m339.113 58.336 5.653 14.57-17.567-7.406Zm0 0"/><path fill="#631489" d="m369.734 68.012-24.968 4.894-2.215-15.699Zm0 0"/><path fill="#fed600" d="m350.375 85.3-5.61-12.394 24.97-4.894Zm0 0"/><path fill="#fed602" d="m336.52 80.645 8.246-7.739 5.609 12.395Zm0 0"/><path fill="#d8c86b" d="m282.059-.008 18.238 54.54-30.75-.18Zm0 0"/><path fill="#fed600" d="M10 206.86 0 217.272l-.02-16.566Zm0 0"/><path fill="#5f0f8d" d="m10 206.86-10.02-6.153 20.676-12.55Zm0 0"/><path fill="#60108c" d="M21.367 212.691 10 206.86l10.656-18.703Zm0 0"/><path fill="#5b0a90" d="m40.594 220.922-19.227-8.23 28.207-4.372Zm0 0"/><path fill="#fcd403" d="m16.707 228.129 23.887-7.207-6.266 21.082Zm0 0"/><path fill="#fed600" d="m21.367 212.691 19.227 8.23-23.887 7.208Zm0 0"/><path fill="#fed602" d="m277.824 183.484 21.418 10.008-19.312 23.64Zm0 0"/><path fill="#fed601" d="m257.734 211.668 20.09-28.184 2.106 33.649Zm0 0"/><path fill="#f0c50f" d="m80.645 313.54-26.32 14.397-.54-19.25Zm0 0"/><path fill="#ecc317" d="m54.324 327.938 26.32-14.399 1.024 21.172Zm0 0"/><path fill="#5e0e8d" d="m61.066 339.023-6.742-11.086 27.344 6.774Zm0 0"/><path fill="#691b84" d="m53.563 278.41 16.402 12.578-16.18 17.7Zm0 0"/><path fill="#6a1d83" d="m69.965 290.988 10.68 22.551-26.86-4.851Zm0 0"/><path fill="#e9cd38" d="m306.582 328.785-5.383-23.687 40.824 10.8Zm0 0"/><path fill="#61118a" d="m350.375 85.3.473 15.923-15.942-6.504Zm0 0"/><path fill="#fed601" d="m336.52 80.645 13.855 4.656-15.469 9.418Zm0 0"/><path fill="#fed600" d="m10 206.86 2.121 8.722L0 217.273ZM12.121 215.582 10 206.859l11.367 5.832Zm0 0"/><path fill="#fed600" d="m0 217.273 12.121-1.691 4.586 12.547Zm0 0"/><path fill="#fed600" d="m12.121 215.582 9.246-2.89-4.66 15.437Zm0 0"/><path fill="#e3c945" d="m299.242 193.492-21.418-10.008 7.344-31.73Zm0 0"/><path fill="#f1d123" d="m285.168 151.754-7.344 31.73-10.527-12.453Zm0 0"/><path fill="#f5ce0e" d="m69.965 290.988 19.066 15.094-8.386 7.457Zm0 0"/><path fill="#f1d123" d="m80.645 313.54 8.386-7.458 9.992 14.602Zm0 0"/><path fill="#5b0a90" d="m89.031 306.082 39.715.234-29.723 14.368Zm0 0"/><path fill="#5c0b8f" d="m128.746 306.316-39.715-.234 15.688-23.414Zm0 0"/><path fill="#5b0a90" d="m89.031 306.082-.808-18.187 16.496-5.227Zm0 0"/><path fill="#f8d10b" d="m88.223 287.895.808 18.187-19.066-15.094Zm0 0"/><path fill="#5b0a90" d="m104.719 282.668-16.496 5.227-3.668-16.817Zm0 0"/><path fill="#f8cf08" d="m88.223 287.895-18.258 3.093 14.59-19.91Zm0 0"/></svg>