<svg xmlns="http://www.w3.org/2000/svg" width="512" height="512" viewBox="0 0 384 384"><path fill="#ded684" d="m137.566 384-2.316-28.75 33.2 3.484Zm0 0"/><path fill="#232216" d="m213.945 233.46-27.77-16.57 10.02-16.167Zm0 0"/><path fill="#dcd483" d="m213.945 233.46 39.532-1.026-36.098 17.668Zm0 0"/><path fill="#ded684" d="m165.578 0 43.242 22.3-40.566 8.63Zm0 0"/><path fill="#202215" d="m-.016 202.3-.004-36.827 19.711 22.093Zm0 0"/><path fill="#ded684" d="M221.066 384h-83.5l30.883-25.266Zm0 0"/><path fill="#30261a" d="m206.797 336.418-3.734 20.012-18.684-23.516Zm0 0"/><path fill="#252417" d="m135.25 355.25 33.418.555-.219 2.93Zm0 0"/><path fill="#60302a" d="m168.668 355.805 34.394.625-34.613 2.304Zm0 0"/><path fill="#67312c" d="m203.063 356.43-34.395-.625 15.71-22.89Zm0 0"/><path fill="#ded684" d="m253.477 232.434-16.188 21.558-19.91-3.89Zm0 0"/><path fill="#242216" d="m234.46 207.316 19.017 25.118-39.532 1.027Zm0 0"/><path fill="#61302a" d="m260.46 318.664-14.952 17.52-23.078-37.282Zm0 0"/><path fill="#b6b06d" d="m237.29 253.992-22.317 20.14 2.406-24.03Zm0 0"/><path fill="#2c2419" d="m198.281 283.336-13.902 49.578-16.305-40.07Zm0 0"/><path fill="#202215" d="m198.281 283.336 16.692-9.203 7.457 24.77Zm0 0"/><path fill="#64312b" d="m222.43 298.902 38.492-14.629-.461 34.391Zm0 0"/><path fill="#262317" d="m260.922 284.273 9.535 20.493-9.996 13.898ZM272.805 268.969l-11.883 15.304-12.906-11.203Zm0 0"/><path fill="#212215" d="m186.176 216.89 4.672 17.708-16.266-.149Zm0 0"/><path fill="#ddd584" d="m190.848 234.598-19.809 20.375 3.543-20.524Zm0 0"/><path fill="#ded584" d="m190.848 234.598 23.097-1.137 3.434 16.64Zm0 0"/><path fill="#222215" d="m190.848 234.598-4.672-17.707 27.77 16.57Zm0 0"/><path fill="#ded684" d="M78.309 21.316 65.329-.004 110.675 0ZM78.309 21.316l-14.059-1.87 1.078-19.45Zm0 0"/><path fill="#d8ca7e" d="m290.078 207.754 14.617 17.969-36.922-.41Zm0 0"/><path fill="#dbd282" d="m270.457 304.766 6.129-29.215 16.781 30.379Zm0 0"/><path fill="#8e3a39" d="m276.586 275.55-15.664 8.723 11.883-15.304Zm0 0"/><path fill="#222215" d="m260.922 284.273 15.664-8.722-6.129 29.215Zm0 0"/><path fill="#ded684" d="m262.098 110.266 15.414 12.367-29.492 7.555ZM200.906 38.309l-32.652-7.38 40.566-8.628Zm0 0"/><path fill="#ded684" d="m231.625 46.867-30.719-8.558L208.82 22.3Zm0 0"/><path fill="#98403e" d="m199.734 56.793 1.172-18.484 30.719 8.558Zm0 0"/><path fill="#ded684" d="m200.906 38.309-27.43 6.57-5.222-13.95Zm0 0"/><path fill="#a25648" d="m173.477 44.879 27.43-6.57-1.173 18.484Zm0 0"/><path fill="#943e3c" d="m171.04 254.973-8.962-24.79 12.504 4.266Zm0 0"/><path fill="#9d5145" d="m162.078 230.184 6.742-13.364 5.762 17.63Zm0 0"/><path fill="#232216" d="m186.176 216.89-17.356-.07-1.836-12.36Zm0 0"/><path fill="#212215" d="m168.82 216.82 17.356.07-11.594 17.56Zm0 0"/><path fill="#ded684" d="m213.707 367.313 7.36 16.687-52.618-25.266Zm0 0"/><path fill="#ded684" d="m203.063 356.43 10.644 10.882-45.258-8.578Zm0 0"/><path fill="#cfbb77" d="m206.797 336.418-22.418-3.504 38.05-34.012Zm0 0"/><path fill="#212215" d="m184.379 332.914 13.902-49.578 24.149 15.566Zm0 0"/><path fill="#dcd483" d="M18.434 364.652-.06 350.051l22.086-13.89Zm0 0"/><path fill="#ded684" d="m-.059 350.05 13.997-19.113 8.09 5.223ZM101.672 357.477l-20.723-15.493L99.7 320.72Zm0 0"/><path fill="#202215" d="m270.656 246.5 2.149 22.469-24.79 4.101Zm0 0"/><path fill="#4a482d" d="m237.29 253.992 33.366-7.492-22.64 26.57Zm0 0"/><path fill="#ded584" d="m270.656 246.5-33.367 7.492 16.188-21.558Zm0 0"/><path fill="#943e3c" d="m267.773 225.313 2.883 21.187-17.18-14.066Zm0 0"/><path fill="#232216" d="m196.195 200.723 38.266 6.593-20.516 26.145Zm0 0"/><path fill="#8f443d" d="m254.305 198.32 13.468 26.993-14.296 7.12Zm0 0"/><path fill="#843836" d="m234.46 207.316 19.845-8.996-.828 34.114Zm0 0"/><path fill="#ded684" d="m233.984 346.426 11.524-10.242-8.649 19.953Zm0 0"/><path fill="#94684b" d="m233.984 346.426-27.187-10.008 15.633-37.516Zm0 0"/><path fill="#5b2f28" d="m245.508 336.184-11.524 10.242-11.554-47.524Zm0 0"/><path fill="#d4cb7e" d="m190.848 234.598 12.73 28.398-32.539-8.023Zm0 0"/><path fill="#97935b" d="m214.973 274.133-11.395-11.137 13.8-12.894Zm0 0"/><path fill="#ded684" d="m203.578 262.996-12.73-28.398 26.53 15.504Zm0 0"/><path fill="#432920" d="m248.016 273.07-33.043 1.063 22.316-20.14Zm0 0"/><path fill="#202215" d="m214.973 274.133 33.043-1.063-25.586 25.832Zm0 0"/><path fill="#66312c" d="m248.016 273.07 12.906 11.203-38.492 14.63Zm0 0"/><path fill="#dad282" d="M284.258 370.328 301.789 384h-30.11Zm0 0"/><path fill="#222215" d="m206.797 336.418 11.46 13.195-15.195 6.817Zm0 0"/><path fill="#ded684" d="m218.258 349.613-4.551 17.7-10.644-10.883ZM218.258 349.613l15.726-3.187 2.875 9.71Zm0 0"/><path fill="#202215" d="m233.984 346.426-15.726 3.187-11.461-13.195Zm0 0"/><path fill="#ded684" d="M105.547 48.16 78.309 21.316 110.676 0Zm0 0"/><path fill="#343521" d="M64.25 19.445 52.387.004l12.941-.008Zm0 0"/><path fill="#ded684" d="m168.254 30.93-29.625 2.308L165.579 0Zm0 0"/><path fill="#ded684" d="M224.594 0 208.82 22.3 165.578 0ZM243.676 25.547l-12.051 21.32-22.805-24.566Zm0 0"/><path fill="#b6845d" d="m304.695 225.723-27.007 16.472-9.915-16.882Zm0 0"/><path fill="#9d4d44" d="m277.688 242.195-7.032 4.305-2.883-21.187Zm0 0"/><path fill="#292417" d="m270.656 246.5 7.031-4.305-4.882 26.774Zm0 0"/><path fill="#212215" d="m-.02 145.625.024-39.773 15.441 32.863Zm0 0"/><path fill="#202215" d="m.004 105.852 43.953 3.945-28.512 28.918Zm0 0"/><path fill="#252718" d="M29.594 161.883-.02 145.625l15.465-6.91Zm0 0"/><path fill="#dcd483" d="m29.594 161.883-29.614 3.59v-19.848Zm0 0"/><path fill="#31251a" d="m144.91 164.676 1.2-33.613 9.917 14.667Zm0 0"/><path fill="#963f3d" d="m150.816 111.71-4.707 19.353-16.722-21.282Zm0 0"/><path fill="#202215" d="m45.64 145.207 2.497 22.207-18.543-5.531Zm0 0"/><path fill="#424229" d="m48.137 167.414-2.496-22.207 25.843 22.277Zm0 0"/><path fill="#ded684" d="m113.777 135.645-.742-26.008 16.352.144Zm0 0"/><path fill="#ded684" d="m93.906 109.414 19.871 26.23-25.418 4.47Zm0 0"/><path fill="#ded684" d="m113.777 135.645-19.87-26.23 19.128.222Zm0 0"/><path fill="#562d26" d="m228.207 92.633 15.938-25.278-9.844 39.989Zm0 0"/><path fill="#723430" d="m244.145 67.355 17.953 42.91-27.797-2.921Zm0 0"/><path fill="#95443e" d="m262.098 110.266-17.953-42.91 14.75 12.332Zm0 0"/><path fill="#272317" d="m234.3 107.344 27.798 2.922-14.078 19.921Zm0 0"/><path fill="#ded684" d="m212.95 72.926-13.216-16.133 31.891-9.926Zm0 0"/><path fill="#ddd483" d="m197.746 77.965-10.137.14 12.125-21.312Zm0 0"/><path fill="#5c332a" d="m187.61 78.105 10.136-.14-8.371 19.34Zm0 0"/><path fill="#2b2418" d="m177.48 146.016-32.57 18.66 11.117-18.946Zm0 0"/><path fill="#202215" d="m66.664 267.766-23.355-5.024 30.07-13.64ZM0 298.133l.004-45.23 49.71 32.261Zm0 0"/><path fill="#ded684" d="m72.363 227.098 26.438 5.71-25.422 16.294Zm0 0"/><path fill="#dbd082" d="m98.8 232.809-26.437-5.711.575-1.934Zm0 0"/><path fill="#202215" d="m72.938 225.164-.575 1.934-15.351-4.403Zm0 0"/><path fill="#592f28" d="m98.8 232.809-1.148-23.653 16.418 19.989Zm0 0"/><path fill="#763732" d="m97.652 209.156 1.149 23.653-25.864-7.645Zm0 0"/><path fill="#ded684" d="m.031 321.75 13.907 9.188L-.06 350.05Zm0 0"/><path fill="#212315" d="M.031 321.75 0 298.133l22.164 24.492Zm0 0"/><path fill="#ddd583" d="M13.938 330.938.03 321.75l22.133.875Zm0 0"/><path fill="#202215" d="m-.059 350.05 18.493 14.602L0 384Zm0 0"/><path fill="#ded684" d="M101.672 357.477 137.566 384l-56.8.004Zm0 0"/><path fill="#ded684" d="m137.566 384-35.894-26.523 33.578-2.227Zm0 0"/><path fill="#212215" d="m142.516 341.008 26.152 14.797-33.418-.555Zm0 0"/><path fill="#272317" d="m168.668 355.805-26.152-14.797 41.863-8.094Zm0 0"/><path fill="#5e2f29" d="m142.516 341.008-21.512-32.64 63.375 24.546Zm0 0"/><path fill="#bdb771" d="m198.281 283.336 5.297-20.34 11.395 11.137Zm0 0"/><path fill="#222215" d="m171.04 254.973 27.241 28.363-30.207 9.508Zm0 0"/><path fill="#645e3b" d="m203.578 262.996-5.297 20.34-27.242-28.363Zm0 0"/><path fill="#202215" d="m384 351.414-29.336-12.176 12.836-21.883Zm0 0"/><path fill="#202215" d="m367.5 317.355 16.527-17.94-.027 52Zm0 0"/><path fill="#ded684" d="M384.027 299.414 367.5 317.355l-17.984-12.39Zm0 0"/><path fill="#212315" d="m383.984 247.34.024 20.765-29.301-14.558Zm0 0"/><path fill="#202215" d="m384.008 268.105-32.278 9.75 2.977-24.308ZM384.027 299.414l-34.511 5.55 2.214-27.109Zm0 0"/><path fill="#202215" d="m384.008 268.105.02 31.31-32.298-21.56ZM301.79 384l17.737-14.012L384 384Zm0 0"/><path fill="#202215" d="m384 384-64.473-14.012L384 351.414Zm0 0"/><path fill="#d9d181" d="M319.527 369.988 301.79 384l-17.531-13.672Zm0 0"/><path fill="#ddd583" d="m289.656 327.094-19.199-22.328 22.91 1.164Zm0 0"/><path fill="#ddd584" d="m270.773 331.156-25.265 5.028 14.953-17.52Zm0 0"/><path fill="#ded684" d="M261.395 360.457 221.066 384l15.793-27.863ZM221.066 384l40.329-23.543L271.68 384Zm0 0"/><path fill="#ddd583" d="m245.508 336.184 15.887 24.273-24.536-4.32Zm0 0"/><path fill="#dcd483" d="m270.773 331.156-9.378 29.301-15.887-24.273Zm0 0"/><path fill="#202215" d="m287.89 350.313 31.637 19.675-35.27.34Zm0 0"/><path fill="#ded684" d="m213.707 367.313 4.55-17.7 18.602 6.524Zm0 0"/><path fill="#ded684" d="m221.066 384-7.359-16.687 23.152-11.176ZM138.629 33.238l16.226 25.66-22.214 4.91Zm0 0"/><path fill="#ddd584" d="m.016 52.895-.02-14.56 9.598.25Zm0 0"/><path fill="#ddd584" d="m-.004 38.336.031-17.074 9.567 17.324Zm0 0"/><path fill="#202215" d="m.027 21.262 24.114-.336-14.547 17.66ZM52.387.004 24.14 20.926.004-.004Zm0 0"/><path fill="#202215" d="m24.14 20.926-24.113.336L.004-.004Zm0 0"/><path fill="#6f6d43" d="M55.652 22.129 52.387.004 64.25 19.445Zm0 0"/><path fill="#202215" d="m55.652 22.129-31.511-1.203L52.387.004ZM24.14 20.926l6.895 26.07-21.441-8.41Zm0 0"/><path fill="#202215" d="M55.652 22.129 31.035 46.996l-6.894-26.07Zm0 0"/><path fill="#ded684" d="M138.629 33.238 110.676 0h54.902ZM154.855 58.898l1.555 3.348-23.77 1.563Zm0 0"/><path fill="#202215" d="m384 170.965-24.094-10.785 24.098-35.793ZM359.906 160.18l-2.515 24.93-42.188-27.27ZM360.438 133.844l.851-9.27 22.715-.187Zm0 0"/><path fill="#202215" d="m359.906 160.18.531-26.336 23.567-9.457Zm0 0"/><path fill="#a45c4b" d="m305.008 205.578-.313 20.145-14.617-17.97Zm0 0"/><path fill="#202215" d="M361.848 28.8 384 0l.078 53.105Zm0 0"/><path fill="#dbd382" d="m359.414 96.648 2.172 15.098-13.328 1.047Zm0 0"/><path fill="#dcd583" d="m379.297 91.918-19.883 4.73L370.61 70.2Zm0 0"/><path fill="#ded684" d="m279.645 98.273-17.547 11.993-3.203-30.579ZM224.594 0l19.082 25.547L208.82 22.3Zm0 0"/><path fill="#595836" d="m276.586 275.55 25.46-.226-8.679 30.606Zm0 0"/><path fill="#202215" d="m302.047 275.324 16.176 15.153-24.856 15.453ZM318.223 290.477l-16.176-15.153 11.035-7.726Zm0 0"/><path fill="#202215" d="m351.73 277.855-33.507 12.622-5.141-22.88ZM.004 105.852 26.59 88.016l17.367 21.78Zm0 0"/><path fill="#a39e62" d="m45.64 145.207 21.657-19.371 4.187 41.648Zm0 0"/><path fill="#9c975d" d="M67.297 125.836 45.64 145.207l-1.684-35.41Zm0 0"/><path fill="#ded684" d="m67.297 125.836 26.61-16.422-5.548 30.7Zm0 0"/><path fill="#d8d181" d="m-.02 165.473 34.958 8.945-15.247 13.148Zm0 0"/><path fill="#d1ca7d" d="M34.938 174.418-.02 165.473l29.614-3.59Zm0 0"/><path fill="#ddd584" d="m48.137 167.414-13.2 7.004-5.343-12.535Zm0 0"/><path fill="#202215" d="m15.445 138.715 30.196 6.492-16.047 16.676Zm0 0"/><path fill="#202215" d="m45.64 145.207-30.195-6.492 28.512-28.918ZM40.277 220.559l6.82-17.063 9.915 19.2Zm0 0"/><path fill="#dad282" d="m49.012 242.29-8.735-21.731 16.735 2.136Zm0 0"/><path fill="#ded684" d="m72.363 227.098-23.351 15.191 8-19.594Zm0 0"/><path fill="#2c2e1c" d="m43.309 262.742 5.703-20.453 24.367 6.813Zm0 0"/><path fill="#ddd583" d="m49.012 242.29 23.351-15.192 1.016 22.004Zm0 0"/><path fill="#807d4d" d="m24.785 235.934 24.227 6.355-5.703 20.453Zm0 0"/><path fill="#dcd583" d="m49.012 242.29-24.227-6.356 15.492-15.375Zm0 0"/><path fill="#202215" d="m321.047 79.129-4.176 13.035-15.023-9.773ZM316.871 92.164l6.54 5.945-15.556 18.356Zm0 0"/><path fill="#202215" d="m323.41 98.11 11.95 17.624-27.505.73Zm0 0"/><path fill="#6a332d" d="m144.91 164.676-22.898-24.664 24.097-8.95Zm0 0"/><path fill="#98403e" d="m146.11 131.063-24.098 8.949 7.375-30.23Zm0 0"/><path fill="#cbaf71" d="m122.012 140.012 22.898 24.664-31.488 8.277Zm0 0"/><path fill="#9f4f45" d="m122.012 140.012-8.235-4.367 15.61-25.864Zm0 0"/><path fill="#262317" d="m146.11 131.063 31.37 14.953-21.453-.286Zm0 0"/><path fill="#ded684" d="m67.297 125.836 21.062 14.277-16.875 27.371Zm0 0"/><path fill="#953e3c" d="m79.668 201.676 17.984 7.48-24.714 16.008Zm0 0"/><path fill="#ded584" d="m113.777 135.645-14.504 27.183-10.914-22.715Zm0 0"/><path fill="#ae7054" d="m99.273 162.828 22.739-22.816-8.59 32.941Zm0 0"/><path fill="#9e4e44" d="m122.012 140.012-22.739 22.816 14.504-27.183Zm0 0"/><path fill="#202215" d="m228.207 92.633 6.094 14.71-23.113 9.462Zm0 0"/><path fill="#773531" d="m146.11 131.063 21.53-11.043 9.84 25.996Zm0 0"/><path fill="#ded684" d="m209.926 88.535 3.023-15.61 15.258 19.708Zm0 0"/><path fill="#ded684" d="m212.95 72.926-15.204 5.039 1.988-21.172Zm0 0"/><path fill="#ded584" d="m209.926 88.535-12.18-10.57 15.203-5.04Zm0 0"/><path fill="#ded584" d="m189.375 97.305 8.371-19.34 12.18 10.57Zm0 0"/><path fill="#242216" d="m196.195 200.723-10.02 16.168-19.19-12.43Zm0 0"/><path fill="#202215" d="m196.195 200.723-18.715-54.707 54.422-5.914Zm0 0"/><path fill="#953b3b" d="m171.04 254.973-2.966 37.87-21.558-18.773Zm0 0"/><path fill="#422920" d="m121.004 308.367 47.07-15.523 16.305 40.07Zm0 0"/><path fill="#202215" d="m0 298.133 30.621 12.203-8.457 12.289Zm0 0"/><path fill="#202215" d="M30.621 310.336 0 298.133l49.715-12.969ZM.004 252.902l43.305 9.84 6.406 22.422Zm0 0"/><path fill="#dcd182" d="m145.785 205.602-1.64-17.426 22.84 16.285Zm0 0"/><path fill="#c9a96f" d="m168.82 216.82-23.035-11.218 21.2-1.141Zm0 0"/><path fill="#bbb06e" d="M98.8 232.809 86.05 269.23 73.38 249.102Zm0 0"/><path fill="#202215" d="M38.281 384H0l18.434-19.348Zm0 0"/><path fill="#202215" d="M36.902 361.262 38.282 384l-19.848-19.348Zm0 0"/><path fill="#dcd583" d="m22.027 336.16.137-13.535 33.145 10.367Zm0 0"/><path fill="#202215" d="m22.164 322.625 8.457-12.29 24.688 22.657Zm0 0"/><path fill="#dcd483" d="m13.938 330.938 8.226-8.313-.137 13.535Zm0 0"/><path fill="#202215" d="m18.434 364.652 3.593-28.492 14.875 25.102Zm0 0"/><path fill="#242617" d="m58.895 342.086-36.868-5.926 33.282-3.168Zm0 0"/><path fill="#ded684" d="m22.027 336.16 36.868 5.926-21.993 19.176ZM101.672 357.477l17.844-17.137 15.734 14.91Zm0 0"/><path fill="#ded684" d="m119.516 340.34-17.844 17.137-1.973-36.758Zm0 0"/><path fill="#38281d" d="m121.004 308.367-1.488 31.973-19.817-19.621Zm0 0"/><path fill="#212215" d="m119.516 340.34 23 .668-7.266 14.242Zm0 0"/><path fill="#5c2f29" d="m119.516 340.34 1.488-31.973 21.512 32.64Zm0 0"/><path fill="#202215" d="m354.664 339.238-35.137 30.75 22.532-55.57Zm0 0"/><path fill="#202215" d="M354.664 339.238 384 351.414l-64.473 18.574Zm0 0"/><path fill="#ded684" d="m270.457 304.766.316 26.39-10.312-12.492ZM289.656 327.094l-18.883 4.062-.316-26.39Zm0 0"/><path fill="#dcd583" d="m287.89 350.313-17.117-19.157 18.883-4.062Zm0 0"/><path fill="#ded684" d="m270.773 331.156 17.118 19.156-26.496 10.145ZM261.395 360.457l22.863 9.871L271.68 384Zm0 0"/><path fill="#d8d080" d="m287.89 350.313-3.632 20.015-22.863-9.871Zm0 0"/><path fill="#ded684" d="m138.629 33.238 29.625-2.308-13.399 27.968ZM168.254 30.93l5.223 13.949-18.622 14.02Zm0 0"/><path fill="#67653f" d="M61.676 43.703 55.652 22.13l8.598-2.684Zm0 0"/><path fill="#ded684" d="M78.309 21.316 61.676 43.703l2.574-24.258Zm0 0"/><path fill="#202215" d="m61.676 43.703-30.64 3.293L55.651 22.13Zm0 0"/><path fill="#202215" d="m58.762 61.406-27.727-14.41 30.64-3.293Zm0 0"/><path fill="#ded684" d="M93.906 109.414 69.88 89.902l19.371-11.93ZM67.297 125.836l2.582-35.934 24.027 19.512Zm0 0"/><path fill="#3b2c1f" d="m50.715 82.543 19.164 7.36-25.922 19.894Zm0 0"/><path fill="#b7b16d" d="m69.879 89.902-2.582 35.934-23.34-16.04Zm0 0"/><path fill="#202215" d="M357.39 185.11 384 170.964l.008 35.21Zm0 0"/><path fill="#202215" d="m384 170.965-26.61 14.144 2.516-24.93ZM384.078 53.105 370.61 70.2l-8.761-41.398Zm0 0"/><path fill="#272919" d="m296.785 28.582 7.899 26.492-21.43 6.953Zm0 0"/><path fill="#202215" d="m304.684 55.074-7.899-26.492 28.02 2.047ZM324.805 30.629 384 0l-22.152 28.8Zm0 0"/><path fill="#ded684" d="m370.61 70.2-31.665-14.598L361.848 28.8Zm0 0"/><path fill="#202215" d="m360.438 133.844-15.375-7.852 16.226-1.418Zm0 0"/><path fill="#202215" d="m345.063 125.992 16.523-14.246-.297 12.828Zm0 0"/><path fill="#ded684" d="m361.586 111.746-16.524 14.246 3.196-13.199Zm0 0"/><path fill="#202215" d="m345.063 125.992-9.704-10.258 12.899-2.941ZM361.586 111.746l17.71-19.828 4.708 32.469Zm0 0"/><path fill="#202215" d="m361.586 111.746 22.418 12.64-22.715.188Zm0 0"/><path fill="#ddd584" d="m379.297 91.918-17.711 19.828-2.172-15.098Zm0 0"/><path fill="#202215" d="m379.297 91.918 4.762-20.32-.055 52.789Zm0 0"/><path fill="#222416" d="m384.059 71.598-4.762 20.32-8.688-21.719Zm0 0"/><path fill="#212215" d="m384.059 71.598-13.45-1.399 13.47-17.094Zm0 0"/><path fill="#ded684" d="m283.254 62.027-3.61 36.246-20.75-18.585Zm0 0"/><path fill="#202215" d="m301.848 82.39 15.023 9.774-9.016 24.3ZM295.977 119.652l5.87-37.261 6.008 34.074Zm0 0"/><path fill="#222416" d="m279.645 98.273 16.332 21.38-18.465 2.98Zm0 0"/><path fill="#2a2b1a" d="m279.645 98.273 22.203-15.882-5.871 37.261Zm0 0"/><path fill="#696740" d="m279.645 98.273 3.609-36.246 18.594 20.364Zm0 0"/><path fill="#8a6848" d="m367.703 231.266 16.293-5.887-.012 21.96Zm0 0"/><path fill="#5e3d2e" d="m354.707 253.547 12.996-22.281 16.281 16.074Zm0 0"/><path fill="#62332b" d="m367.703 231.266-12.996 22.28-1.113-24.57Zm0 0"/><path fill="#ded684" d="m304.695 225.723 14.934-9.368-8.793 14.973Zm0 0"/><path fill="#202215" d="m319.629 216.355-14.934 9.368.313-20.145Zm0 0"/><path fill="#a86c51" d="m300.824 247.375-23.137-5.18 27.008-16.472Zm0 0"/><path fill="#9a4841" d="m300.824 247.375-28.02 21.594 4.884-26.774Zm0 0"/><path fill="#232316" d="m300.824 247.375 3.871-21.652 6.14 5.605Zm0 0"/><path fill="#d8d080" d="m351.73 277.855-15.125-23.886 18.102-.422Zm0 0"/><path fill="#202215" d="m336.605 253.969 15.125 23.886-38.648-10.257Zm0 0"/><path fill="#cbc479" d="m336.605 253.969-35.78-6.594 10.01-16.047Zm0 0"/><path fill="#959159" d="m300.824 247.375 35.781 6.594-23.523 13.629Zm0 0"/><path fill="#212315" d="M.004 76.418 26.59 88.016.004 105.852Zm0 0"/><path fill="#202215" d="m26.59 88.016 24.125-5.473-6.758 27.254ZM24.785 235.934l18.524 26.808-43.305-9.84Zm0 0"/><path fill="#4a492d" d="m278.727 160.465-1.215-37.832 18.465-2.98Zm0 0"/><path fill="#61302a" d="m245.543 168.313-13.64-28.211 16.117-9.915Zm0 0"/><path fill="#202215" d="m322.855 60.738-1.808 18.39-19.2 3.263Zm0 0"/><path fill="#ded684" d="m114.074 83.36 15.313 26.421-16.352-.144ZM114.074 83.36l-20.168 26.054-4.656-31.441Zm0 0"/><path fill="#ded684" d="m93.906 109.414 20.168-26.055-1.039 26.278Zm0 0"/><path fill="#5b2f28" d="m144.91 164.676 14.75 17.101-15.515 6.399Zm0 0"/><path fill="#482a22" d="m144.145 188.176 15.515-6.399 7.324 22.684Zm0 0"/><path fill="#2c2419" d="m159.66 181.777 36.535 18.946-29.21 3.738Zm0 0"/><path fill="#33261b" d="m177.48 146.016-17.82 35.761-14.75-17.101Zm0 0"/><path fill="#202215" d="m196.195 200.723-36.535-18.946 17.82-35.761Zm0 0"/><path fill="#9a6b4d" d="m144.91 164.676-12.097 17.676-19.391-9.399Zm0 0"/><path fill="#5f302a" d="m132.813 182.352 12.097-17.676-.765 23.5Zm0 0"/><path fill="#bbb46f" d="m54.598 178.977 16.886-11.493 8.184 34.192Zm0 0"/><path fill="#202215" d="m47.098 203.496 24.98 4.43-15.066 14.77Zm0 0"/><path fill="#212315" d="m72.078 207.926.86 17.238-15.926-2.469Zm0 0"/><path fill="#c5b974" d="m72.078 207.926 7.59-6.25-6.73 23.488Zm0 0"/><path fill="#9a4640" d="m79.668 201.676 38.312-13.883-20.328 21.363Zm0 0"/><path fill="#bb8c61" d="m113.422 172.953 4.558 14.84-38.312 13.883Zm0 0"/><path fill="#d8cc7f" d="m179.777 107.61 9.598-10.305-1.328 16.504Zm0 0"/><path fill="#dacf81" d="m167.64 120.02 12.137-12.41 8.27 6.199Zm0 0"/><path fill="#ded584" d="m155.09 85.23 7.828 6.63-13.078 12.382Zm0 0"/><path fill="#262317" d="m162.918 91.86 24.691-13.755 1.766 19.2Zm0 0"/><path fill="#723430" d="m162.918 91.86-7.828-6.63 32.52-7.125Zm0 0"/><path fill="#61302a" d="m234.3 107.344-2.398 32.758-20.714-23.297Zm0 0"/><path fill="#2b2418" d="m231.902 140.102 2.399-32.758 13.719 22.844Zm0 0"/><path fill="#222215" d="m189.375 97.305 19.32 3.492-20.648 13.012Zm0 0"/><path fill="#212215" d="m208.695 100.797 2.493 16.008-23.141-2.996Zm0 0"/><path fill="#433c27" d="m228.207 92.633-19.512 8.164 1.23-12.262Zm0 0"/><path fill="#202215" d="m208.695 100.797 19.512-8.164-17.02 24.172Zm0 0"/><path fill="#3f3d26" d="m208.695 100.797-19.32-3.492 20.55-8.77Zm0 0"/><path fill="#7b3633" d="m211.188 116.805-33.708 29.21 10.567-32.206Zm0 0"/><path fill="#552d26" d="m231.902 140.102-54.422 5.914 33.708-29.211Zm0 0"/><path fill="#61302a" d="m177.48 146.016-9.84-25.996 20.407-6.211Zm0 0"/><path fill="#ded684" d="m80.95 341.984-5.61-15.832 24.36-5.433Zm0 0"/><path fill="#883e39" d="m97.652 209.156 27.817 11.203-11.399 8.786Zm0 0"/><path fill="#c5a16b" d="m145.785 205.602 23.035 11.218-6.742 13.364Zm0 0"/><path fill="#ded584" d="m132.234 187.879 13.551 17.723-22.64-4.25Zm0 0"/><path fill="#ded584" d="m117.98 187.793 14.254.086-9.09 13.473Zm0 0"/><path fill="#ded684" d="m145.785 205.602-13.55-17.723 11.91.297Zm0 0"/><path fill="#61312a" d="m132.234 187.879.578-5.527 11.333 5.824Zm0 0"/><path fill="#262317" d="m114.07 229.145 21.29 25.578-36.56-21.914Zm0 0"/><path fill="#b8af6d" d="M135.36 254.723 86.05 269.23 98.8 232.81Zm0 0"/><path fill="#97423e" d="m135.36 254.723 35.68.25-24.524 19.097Zm0 0"/><path fill="#7f3834" d="m135.36 254.723-21.29-25.578 11.399-8.786Zm0 0"/><path fill="#bb8d62" d="m171.04 254.973-35.68-.25 26.718-24.54Zm0 0"/><path fill="#b8855e" d="m135.36 254.723-9.891-34.364 36.61 9.825Zm0 0"/><path fill="#202215" d="m86.05 269.23-19.386-1.464 6.715-18.664ZM71.332 362.785 38.282 384l-1.38-22.738Zm0 0"/><path fill="#ddd583" d="m58.895 342.086 12.437 20.7-34.43-1.524Zm0 0"/><path fill="#ded684" d="m101.672 357.477-30.34 5.308 9.617-20.8Zm0 0"/><path fill="#202215" d="m71.332 362.785-12.437-20.7 22.054-.1ZM354.664 339.238l-5.148-34.273 17.984 12.39Zm0 0"/><path fill="#dcd483" d="m349.516 304.965 5.148 34.273-12.605-24.82Zm0 0"/><path fill="#202215" d="m319.527 369.988-15.918-30.14 38.45-25.43Zm0 0"/><path fill="#202215" d="m287.89 350.313 15.72-10.465 15.917 30.14ZM303.61 339.848l-15.72 10.464 1.766-23.218Zm0 0"/><path fill="#202215" d="m301.832 331.156 1.777 8.692-13.953-12.754Zm0 0"/><path fill="#ded684" d="m89.25 77.973 16.297-29.813 8.527 35.2ZM105.547 48.16l-43.871-4.457 16.633-22.387ZM61.676 43.703l43.87 4.457L89.25 77.973ZM138.629 33.238 105.547 48.16 110.676 0Zm0 0"/><path fill="#202215" d="m26.59 88.016 2.25-16.32 21.875 10.847Zm0 0"/><path fill="#222416" d="m58.762 61.406 11.117 28.496-19.164-7.359Zm0 0"/><path fill="#ded684" d="m69.879 89.902-8.203-46.199 27.574 34.27Zm0 0"/><path fill="#ddd583" d="M69.879 89.902 58.762 61.406l2.914-17.703Zm0 0"/><path fill="#ded684" d="M156.41 62.246 140.457 80.45l-7.816-16.64Zm0 0"/><path fill="#ded684" d="m140.457 80.45-26.383 2.91 18.567-19.551ZM383.996 225.379l-16.73-13.559 16.742-5.644Zm0 0"/><path fill="#202215" d="m367.266 211.82-9.875-26.71 26.617 21.066Zm0 0"/><path fill="#ded684" d="m367.266 211.82.437 19.446-14.11-2.29Zm0 0"/><path fill="#ddd584" d="m367.703 231.266-.437-19.446 16.73 13.559Zm0 0"/><path fill="#202215" d="m320.871 150.184 39.035 9.996-44.703-2.34ZM338.945 55.602l-14.14-24.973 37.043-1.828ZM316.121 0l-19.336 28.582-5.574-28.594Zm0 0"/><path fill="#404028" d="m304.684 55.074-2.836 27.317-18.594-20.364Zm0 0"/><path fill="#202215" d="m304.684 55.074 18.171 5.664-21.007 21.653ZM335.36 115.734l-14.489 34.45-13.016-33.72Zm0 0"/><path fill="#202215" d="m345.063 125.992-24.192 24.192 14.488-34.45Zm0 0"/><path fill="#202215" d="m320.871 150.184 24.192-24.192 15.375 7.852Zm0 0"/><path fill="#ded684" d="m359.906 160.18-39.035-9.996 39.567-16.34ZM279.645 98.273l-2.133 24.36-15.414-12.367ZM291.21-.012l-47.534 25.559L224.594 0Zm0 0"/><path fill="#412920" d="m212.95 72.926 31.195-5.57-15.938 25.277Zm0 0"/><path fill="#d9ca7f" d="m244.145 67.355-31.196 5.57 18.676-26.058Zm0 0"/><path fill="#ded684" d="m243.676 25.547 4.176 32.683-16.227-11.363Zm0 0"/><path fill="#953c3c" d="m231.625 46.867 16.227 11.363-3.707 9.125Zm0 0"/><path fill="#202215" d="m328.266 194.793-8.637 21.562-14.621-10.777ZM328.266 194.793l-26.524-13.383 13.461-23.57ZM301.742 181.41l26.524 13.383-23.258 10.785Zm0 0"/><path fill="#803735" d="m272.805 268.969 29.242 6.355-25.461.227Zm0 0"/><path fill="#232216" d="m302.047 275.324-29.242-6.355 40.277-1.371Zm0 0"/><path fill="#6c332e" d="m272.805 268.969 28.02-21.594 12.257 20.223Zm0 0"/><path fill="#6d623f" d="m335.719 233.164 17.875-4.187 1.113 24.57Zm0 0"/><path fill="#66633d" d="m336.605 253.969-.886-20.805 18.988 20.383Zm0 0"/><path fill="#aaa566" d="m353.594 228.977-17.875 4.187 3.957-17.832Zm0 0"/><path fill="#b5ae6c" d="m335.719 233.164.886 20.805-25.77-22.64Zm0 0"/><path fill="#ded684" d="m319.629 216.355 16.09 16.81-24.883-1.837ZM335.719 233.164l-16.09-16.809 20.047-1.023Zm0 0"/><path fill="#202215" d="m.004 76.418 28.836-4.723-2.25 16.32ZM47.098 203.496l-12.196-8.668 13.555-5.375ZM34.938 174.418l-.036 20.41-15.21-7.262Zm0 0"/><path fill="#202215" d="m34.902 194.828.035-20.41 13.52 15.035Zm0 0"/><path fill="#4f4e30" d="m.008 228.89 24.777 7.044L.004 252.902Zm0 0"/><path fill="#202215" d="m315.203 157.84-36.476 2.625 17.25-40.813ZM315.203 157.84l-13.46 23.57-23.016-20.945ZM307.855 116.465l7.348 41.375-19.226-38.188Zm0 0"/><path fill="#212215" d="m320.871 150.184-5.668 7.656-7.348-41.375Zm0 0"/><path fill="#884d3e" d="m254.305 198.32-8.762-30.007 19.844-2.41Zm0 0"/><path fill="#4f2c24" d="m245.543 168.313-49.348 32.41 35.707-60.621Zm0 0"/><path fill="#35261b" d="m196.195 200.723 49.348-32.41-11.082 39.003Zm0 0"/><path fill="#823735" d="m245.543 168.313 8.762 30.007-19.844 8.996Zm0 0"/><path fill="#5d3e2e" d="m245.543 168.313 2.477-38.125 17.367 35.714Zm0 0"/><path fill="#ded684" d="m248.02 130.188 30.707 30.277-13.34 5.437Zm0 0"/><path fill="#ded684" d="m278.727 160.465-30.707-30.278 29.492-7.554Zm0 0"/><path fill="#ccaf72" d="m275.79 199.836 14.288 7.918-22.305 17.559Zm0 0"/><path fill="#bb8c61" d="m254.305 198.32 21.484 1.516-8.016 25.476Zm0 0"/><path fill="#973f3d" d="m149.84 104.242.976 7.469-21.43-1.93Zm0 0"/><path fill="#ded684" d="m114.074 83.36 26.383-2.91-11.07 29.331Zm0 0"/><path fill="#953c3c" d="m140.457 80.45 9.383 23.792-20.453 5.54Zm0 0"/><path fill="#222316" d="m48.457 189.453 23.621 18.473-24.98-4.43Zm0 0"/><path fill="#373722" d="m48.457 189.453 6.14-10.476 25.071 22.699Zm0 0"/><path fill="#202215" d="m72.078 207.926-23.621-18.473 31.211 12.223Zm0 0"/><path fill="#9c4942" d="m99.273 162.828 14.149 10.125-33.754 28.723Zm0 0"/><path fill="#ded584" d="m71.484 167.484 27.79-4.656-19.606 38.848Zm0 0"/><path fill="#ded684" d="m99.273 162.828-27.789 4.656 16.875-27.37Zm0 0"/><path fill="#793632" d="m167.64 120.02-21.53 11.043 4.706-19.352Zm0 0"/><path fill="#6c322e" d="m179.777 107.61-13.62-4.88 23.218-5.425Zm0 0"/><path fill="#202215" d="m166.156 102.73-3.238-10.87 26.457 5.445Zm0 0"/><path fill="#723430" d="m166.156 102.73 1.485 17.29-16.825-8.31Zm0 0"/><path fill="#502c25" d="m167.64 120.02-1.484-17.29 13.621 4.88Zm0 0"/><path fill="#863937" d="m166.156 102.73-15.34 8.98-.976-7.468Zm0 0"/><path fill="#68322d" d="m162.918 91.86 3.238 10.87-16.316 1.512Zm0 0"/><path fill="#dcd282" d="m155.09 85.23 1.32-22.984 31.2 15.86Zm0 0"/><path fill="#ded684" d="m187.61 78.105-31.2-15.859 43.324-5.453Zm0 0"/><path fill="#963e3c" d="m156.41 62.246 17.067-17.367 26.257 11.914Zm0 0"/><path fill="#963d3c" d="M173.477 44.879 156.41 62.246l-1.555-3.348Zm0 0"/><path fill="#afa467" d="m49.715 285.164-6.406-22.422 23.355 5.024Zm0 0"/><path fill="#dbcf81" d="m117.98 187.793 5.165 13.559-25.493 7.804Zm0 0"/><path fill="#b8865f" d="m123.145 201.352 2.324 19.007-27.817-11.203Zm0 0"/><path fill="#d6c57c" d="m123.145 201.352 22.64 4.25-20.316 14.757Zm0 0"/><path fill="#c9aa6f" d="m125.469 220.36 20.316-14.758 16.293 24.582Zm0 0"/><path fill="#733631" d="m132.234 187.879-14.254-.086 14.832-5.441Zm0 0"/><path fill="#aa7455" d="m132.813 182.352-14.833 5.441-4.558-14.84Zm0 0"/><path fill="#202215" d="m135.36 254.723-29.493 19.007-19.816-4.5Zm0 0"/><path fill="#3b281e" d="m105.867 273.73 29.492-19.007 11.157 19.347Zm0 0"/><path fill="#202215" d="m71.332 362.785 9.434 21.219L38.28 384Zm0 0"/><path fill="#ded684" d="m80.766 384.004-9.434-21.219 30.34-5.308Zm0 0"/><path fill="#202215" d="m308.832 324.598-7 6.558-12.176-4.062ZM318.223 290.477l-9.391 34.12-15.465-18.667Zm0 0"/><path fill="#202215" d="m308.832 324.598-19.176 2.496 3.711-21.164Zm0 0"/><path fill="#dcd483" d="m349.516 304.965-31.293-14.488 33.507-12.622Zm0 0"/><path fill="#ded684" d="m114.074 83.36-8.527-35.2L132.64 63.81ZM105.547 48.16l33.082-14.922-5.988 30.57Zm0 0"/><path fill="#202215" d="m28.84 71.695 29.922-10.289-8.047 21.137Zm0 0"/><path fill="#97413e" d="m155.09 85.23-14.633-4.78 15.953-18.204Zm0 0"/><path fill="#ded684" d="m347.895 211.031 5.699 17.946-13.918-13.645Zm0 0"/><path fill="#202215" d="m367.266 211.82-19.371-.789 9.496-25.922Zm0 0"/><path fill="#ddd583" d="m347.895 211.031 19.37.79-13.671 17.156Zm0 0"/><path fill="#202215" d="m322.855 60.738 1.95-30.11 14.14 24.974Zm0 0"/><path fill="#202215" d="M296.785 28.582 316.121 0l8.684 30.629ZM359.414 96.648l-11.473-9.441 22.668-17.008Zm0 0"/><path fill="#ddd584" d="M258.895 79.688 247.852 58.23l35.402 3.797Zm0 0"/><path fill="#684132" d="m247.852 58.23 11.043 21.458-14.75-12.333Zm0 0"/><path fill="#3f4027" d="m296.785 28.582-21.226 3.574L291.21-.012Zm0 0"/><path fill="#ded684" d="M291.21-.012 275.56 32.156l-31.883-6.61Zm0 0"/><path fill="#202215" d="m328.266 194.793 19.629 16.238-8.22 4.301Zm0 0"/><path fill="#202215" d="m347.895 211.031-19.63-16.238 29.126-9.684Zm0 0"/><path fill="#202215" d="m319.629 216.355 8.637-21.562 11.41 20.539Zm0 0"/><path fill="#202215" d="m357.39 185.11-29.124 9.683-13.063-36.953ZM.016 52.895l28.824 18.8L.004 76.418ZM22.258 214.61l12.644-19.782 12.196 8.668Zm0 0"/><path fill="#98423e" d="m275.633 183.035-21.328 15.285 11.082-32.418Zm0 0"/><path fill="#d6c57c" d="m275.633 183.035.156 16.8-21.484-1.515Zm0 0"/><path fill="#202215" d="m34.938 174.418 19.66 4.559-6.141 10.476Zm0 0"/><path fill="#ded684" d="m54.598 178.977-19.66-4.559 13.199-7.004Zm0 0"/><path fill="#ddd584" d="m71.484 167.484-16.886 11.493-6.461-11.563Zm0 0"/><path fill="#ded684" d="m86.05 269.23-13.73 19.555-5.656-21.02Zm0 0"/><path fill="#6c6640" d="m72.32 288.785-22.605-3.62 16.95-17.4Zm0 0"/><path fill="#202215" d="m121.004 308.367-15.137-34.637 40.649.34Zm0 0"/><path fill="#2e2519" d="m168.074 292.844-47.07 15.523 25.512-34.297Zm0 0"/><path fill="#202215" d="m301.832 331.156 7-6.558-5.223 15.25Zm0 0"/><path fill="#dbd382" d="m308.832 324.598 33.227-10.18-38.45 25.43Zm0 0"/><path fill="#202215" d="m26.305 56.566 32.457 4.84-29.922 10.29Zm0 0"/><path fill="#ded684" d="m31.035 46.996-4.73 9.57-16.711-17.98Zm0 0"/><path fill="#ddd584" d="m58.762 61.406-32.457-4.84 4.73-9.57Zm0 0"/><path fill="#ded684" d="M26.305 56.566.015 52.895l9.579-14.31Zm0 0"/><path fill="#dbd483" d="m.016 52.895 26.289 3.671 2.535 15.13Zm0 0"/><path fill="#923b3b" d="m155.09 85.23-5.25 19.012-9.383-23.793Zm0 0"/><path fill="#d7d080" d="m335.36 115.734 24.054-19.086-11.156 16.145Zm0 0"/><path fill="#202215" d="m347.941 87.207-12.582 28.527L323.41 98.11ZM321.047 79.129l7.703 4.394-11.879 8.641Zm0 0"/><path fill="#dfd785" d="m335.648 75.7-6.898 7.823.16-14.48Zm0 0"/><path fill="#ded684" d="m328.75 83.523 6.898-7.824 12.293 11.508Zm0 0"/><path fill="#202215" d="m328.75 83.523-5.34 14.586-6.539-5.945Zm0 0"/><path fill="#ded684" d="m328.75 83.523 19.191 3.684-24.53 10.902Zm0 0"/><path fill="#202215" d="m304.684 55.074 20.12-24.445-1.949 30.11ZM384 0l-59.195 30.629L316.12 0Zm0 0"/><path fill="#ded684" d="m340.012 68.887-4.364 6.812-6.738-6.656Zm0 0"/><path fill="#202215" d="m340.012 68.887-17.157-8.149 16.09-5.136ZM322.855 60.738l17.157 8.149-11.102.156Zm0 0"/><path fill="#202215" d="m340.012 68.887-1.067-13.285 31.664 14.597Zm0 0"/><path fill="#ded684" d="m347.941 87.207-7.93-18.32 30.598 1.312Zm0 0"/><path fill="#ded684" d="m335.648 75.7 4.364-6.813 7.93 18.32Zm0 0"/><path fill="#6f6d43" d="m275.559 32.156 21.226-3.574-13.531 33.445Zm0 0"/><path fill="#ded684" d="m247.852 58.23 27.707-26.074 7.695 29.871Zm0 0"/><path fill="#ded684" d="M275.559 32.156 247.852 58.23l-4.176-32.683ZM17.672 207.922.008 228.89l-.024-26.59Zm0 0"/><path fill="#202215" d="M17.672 207.922-.016 202.3l19.707-14.735ZM34.902 194.828l-17.23 13.094 2.02-20.356ZM22.258 214.61l-4.586-6.688 17.23-13.094ZM22.258 214.61l24.84-11.114-6.82 17.063Zm0 0"/><path fill="#d6ce7f" d="m24.785 235.934-2.527-21.325 18.02 5.95Zm0 0"/><path fill="#cdb474" d="m275.633 183.035 19.433 6.852-19.277 9.949Zm0 0"/><path fill="#212215" d="m295.066 189.887 6.676-8.477 3.266 24.168Zm0 0"/><path fill="#c8aa6f" d="m295.066 189.887 9.942 15.691-14.93 2.176Zm0 0"/><path fill="#d5c27b" d="m275.79 199.836 19.276-9.95-4.988 17.868Zm0 0"/><path fill="#202215" d="M55.309 332.992 30.62 310.336l19.094-25.172Zm0 0"/><path fill="#716e44" d="m75.34 326.152-20.031 6.84-5.594-47.828Zm0 0"/><path fill="#29291a" d="m55.309 332.992 20.03-6.84 5.61 15.832Zm0 0"/><path fill="#2a2b1a" d="m58.895 342.086-3.586-9.094 25.64 8.992Zm0 0"/><path fill="#5b5a37" d="m72.32 288.785 3.02 37.367-25.625-40.988Zm0 0"/><path fill="#202215" d="m342.059 314.418-23.836-23.941 31.293 14.488ZM342.059 314.418l-33.227 10.18 9.39-34.121ZM335.36 115.734l12.581-28.527 11.473 9.441ZM322.855 60.738l6.055 8.305-7.863 10.086Zm0 0"/><path fill="#ded684" d="m328.91 69.043-.16 14.48-7.703-4.394Zm0 0"/><path fill="#ddd584" d="m.008 228.89 17.664-20.968 4.586 6.687Zm0 0"/><path fill="#dbd383" d="m.008 228.89 22.25-14.28 2.527 21.324Zm0 0"/><path fill="#212215" d="m295.066 189.887-19.433-6.852 26.11-1.625Zm0 0"/><path fill="#202215" d="m301.742 181.41-26.11 1.625 3.095-22.57Zm0 0"/><path fill="#ded684" d="m278.727 160.465-3.094 22.57-10.246-17.133ZM72.32 288.785l18.688 21.402-15.668 15.965ZM75.34 326.152l15.668-15.964 8.691 10.53Zm0 0"/><path fill="#202215" d="m91.008 310.188 29.996-1.82-21.305 12.35Zm0 0"/><path fill="#37271c" d="m121.004 308.367-29.996 1.82 14.86-36.457Zm0 0"/><path fill="#30251a" d="M91.008 310.188 86.05 269.23l19.816 4.5Zm0 0"/><path fill="#ded684" d="m86.05 269.23 4.958 40.957-18.688-21.402Zm0 0"/></svg>