<svg xmlns="http://www.w3.org/2000/svg" width="512" height="512" viewBox="0 0 384 384"><path fill="#f1eb8a" d="m169.023 384.004 1.645-24.16 3.91 1.797Zm0 0"/><path fill="#f1ea8a" d="m221.273 232.86 25-.446-19.855 18.36Zm0 0"/><path fill="#6c624c" d="m269.387 270.11-8.828 44.964-46.297-7.531Zm0 0"/><path fill="#2e222f" d="m-.023 200.8.035-29.859 18.129 15.223Zm0 0"/><path fill="#352932" d="m206.488 336.36-10.218 22.402-8.766-27.14Zm0 0"/><path fill="#f0ea8a" d="m170.668 359.844 2.926-2.125.984 3.922Zm0 0"/><path fill="#f1eb8a" d="m173.594 357.719 22.676 1.043-21.692 2.879Zm0 0"/><path fill="#3c3035" d="m196.27 358.762-22.676-1.043 13.91-26.098Zm0 0"/><path fill="#4a3e3c" d="m173.594 357.719-12.727-48.742 26.637 22.644Zm0 0"/><path fill="#f1eb8a" d="m246.273 232.414.024 20.887-19.879-2.528Zm0 0"/><path fill="#2e222f" d="m234.672 204.79 11.601 27.624-25 .445Zm0 0"/><path fill="#554941" d="m260.559 315.074-14.13 20.36-32.167-27.891Zm0 0"/><path fill="#eee789" d="m246.297 253.3-40.168 22.012 20.289-24.539Zm0 0"/><path fill="#2e222f" d="m214.262 307.543-53.395 1.434 10.856-26.16ZM214.262 307.543l-8.133-32.23 63.258-5.204Zm0 0"/><path fill="#3e3236" d="m269.387 270.11-2.82 41.68-6.008 3.284Zm0 0"/><path fill="#2e222f" d="m201.32 203.941-1.36 29.868-25.292.925Zm0 0"/><path fill="#ede387" d="m199.96 233.809-28.308 23.058 3.016-22.133Zm0 0"/><path fill="#f1eb8a" d="m199.96 233.809 21.313-.95 5.145 17.914Zm0 0"/><path fill="#2e222f" d="m199.96 233.809 1.36-29.868 19.953 28.918Zm0 0"/><path fill="#f1eb8a" d="M94.254 27.66 64.262-.02l59.82.02Zm0 0"/><path fill="#f0ea8a" d="M94.254 27.66 64.285 32.2 64.262-.02Zm0 0"/><path fill="#f1eb8a" d="m266.566 311.79 13.04-37.708 19.21 35.063Zm0 0"/><path fill="#302430" d="m269.387 270.11 10.218 3.972-13.039 37.707Zm0 0"/><path fill="#f1eb8a" d="m261.57 112.324 20.762 15.063-35.484 4.426ZM199.188 38.09 185.977 0l66.527 27.922Zm0 0"/><path fill="#f1eb8a" d="m236.773 47.648-37.585-9.558 53.316-10.168Zm0 0"/><path fill="#cfad70" d="m199.188 38.09 19.078 39.004-23.832-5.625Zm0 0"/><path fill="#ad7558" d="M218.266 77.094 199.188 38.09l37.585 9.558Zm0 0"/><path fill="#f1eb8a" d="m174.723 44.441-22.524-13.699L185.977 0Zm0 0"/><path fill="#f1eb8a" d="m199.188 38.09-24.465 6.351L185.977 0Zm0 0"/><path fill="#a36a53" d="m174.723 44.441 24.464-6.351-4.753 33.379Zm0 0"/><path fill="#9f4a46" d="m171.652 256.867-23.113-27.41 26.129 5.277Zm0 0"/><path fill="#cfa96e" d="m148.54 229.457 18.148-26.266 7.98 31.543Zm0 0"/><path fill="#30232f" d="m166.688 203.191 34.632.75-26.652 30.793Zm0 0"/><path fill="#f1eb8a" d="m174.578 361.64 24.305 6.684-29.86 15.68Zm0 0"/><path fill="#f1eb8a" d="m198.883 368.324-24.305-6.683 21.692-2.88Zm0 0"/><path fill="#d9d17f" d="m206.488 336.36-18.984-4.739 26.758-24.078Zm0 0"/><path fill="#2e222f" d="m214.262 307.543-26.758 24.078-26.637-22.644ZM51.492 383.98 0 384l33.98-20.574Zm0 0"/><path fill="#9f9664" d="M17.133 357.988.008 332.457l30.87 9.055Zm0 0"/><path fill="#3c3035" d="m0 356.46.008-24.003 17.125 25.531Zm0 0"/><path fill="#f0ea8a" d="m101.648 354.86-23.835-5.684 14.222-34.574Zm0 0"/><path fill="#6f4f45" d="m246.297 253.3 20.516-4.667 2.574 21.476Zm0 0"/><path fill="#f1ea8a" d="m266.813 248.633-20.516 4.668-.024-20.887Zm0 0"/><path fill="#f0e989" d="m261.875 228.867 4.938 19.766-20.54-16.219Zm0 0"/><path fill="#2e222f" d="m201.32 203.941 33.352.848-13.399 28.07Zm0 0"/><path fill="#7d363c" d="m234.672 204.79 27.203 24.077-15.602 3.547Zm0 0"/><path fill="#f1eb8a" d="m234.828 346.297 11.602-10.863-7.98 16.765Zm0 0"/><path fill="#584d42" d="m234.828 346.297-28.34-9.938 7.774-28.816Zm0 0"/><path fill="#554941" d="m246.43 335.434-11.602 10.863-20.566-38.754Zm0 0"/><path fill="#f0e989" d="m199.96 233.809 3.99 27.492-32.298-4.434Zm0 0"/><path fill="#483d3b" d="m206.129 275.313-2.18-14.012 22.469-10.528Zm0 0"/><path fill="#f1eb8a" d="m203.95 261.3-3.99-27.491 26.458 16.964Zm0 0"/><path fill="#9b9262" d="m269.387 270.11-63.258 5.202 40.168-22.011Zm0 0"/><path fill="#372b33" d="m384 322.91-29.5-5.793 29.523-16.73Zm0 0"/><path fill="#f1eb8a" d="M198.883 368.324 233.313 384l-64.29.004Zm0 0"/><path fill="#4a3739" d="m206.488 336.36 8.262 16.007-18.48 6.395Zm0 0"/><path fill="#f1eb8a" d="m214.75 352.367-15.867 15.957-2.613-9.562ZM214.75 352.367l20.078-6.07 3.621 5.902Zm0 0"/><path fill="#382c33" d="m234.828 346.297-20.078 6.07-8.262-16.008Zm0 0"/><path fill="#695f4a" d="M64.285 32.2 53.175-.005 64.263-.02Zm0 0"/><path fill="#2f232f" d="m354.992 263.852-5.258 34.324-14.004-12.93Zm0 0"/><path fill="#2e222f" d="m354.992 263.852-5.238-15.309 34.258 5.434Zm0 0"/><path fill="#ab6250" d="m289.258 226.195-12.207 14.75-15.176-12.078Zm0 0"/><path fill="#582e37" d="m277.05 240.945-10.238 7.688-4.937-19.766Zm0 0"/><path fill="#382932" d="m266.813 248.633 10.238-7.688-7.664 29.164Zm0 0"/><path fill="#2e222f" d="M.004 140.008.016 118.8l14.597 11.082Zm0 0"/><path fill="#2e222f" d="m.016 118.8 41.015-6.206-26.418 17.289Zm0 0"/><path fill="#867c58" d="m8.504 168.96-8.492 1.981-.008-30.933Zm0 0"/><path fill="#2e222f" d="m.012 170.941 8.492-1.98 9.637 17.203Zm0 0"/><path fill="#493e3c" d="m8.504 168.96-8.5-28.952 25.156 22.48Zm0 0"/><path fill="#efe889" d="m322.273 101.254-1.949 48.773-16.789 1.5Zm0 0"/><path fill="#f0e98a" d="m282.332 127.387 39.941-26.133-18.738 50.273Zm0 0"/><path fill="#2e222f" d="m185.125 175.637 36.082-28.32 13.422 14.132ZM201.32 203.941l-16.195-28.304 49.504-14.188Zm0 0"/><path fill="#302430" d="m44.078 165.156 10.832-23.222 2.38 26.105Zm0 0"/><path fill="#f1ea8a" d="m108.086 144.688-1.856-19.29 15.97-3.164Zm0 0"/><path fill="#993e41" d="m112.7 167.508 15.987.254-14.269 15.402Zm0 0"/><path fill="#f1ea8a" d="m108.086 144.688-18.148-15.032 16.292-4.258Zm0 0"/><path fill="#2e222f" d="m227.46 91.86 32.673-4.825 1.437 25.29Zm0 0"/><path fill="#f1eb8a" d="m191.707 81.887 7.473 14.8-9.637-1.527Zm0 0"/><path fill="#f1eb8a" d="m191.707 81.887 2.727-10.418 4.746 25.219Zm0 0"/><path fill="#30222f" d="m185.125 175.637-28.754 5.222-3.668-15.757Zm0 0"/><path fill="#2e222f" d="m176.477 145.512 8.648 30.125-32.422-10.535Zm0 0"/><path fill="#2f232f" d="m168.45 264.867 3.202-8 .07 25.95Zm0 0"/><path fill="#2e222f" d="m.008 253.91-.024-19.738 19.79 26.273ZM55.172 265.93l-9.453-1.887 24.406-15.383Zm0 0"/><path fill="#2f232f" d="m.004 299.469 19.77-39.024 12.773 26.578Zm0 0"/><path fill="#f0e98a" d="m69.566 235.465 17.973-6.3-17.414 19.495Zm0 0"/><path fill="#f1ea8a" d="m87.54 229.164-17.974 6.3-.187-10.769Zm0 0"/><path fill="#993d41" d="m89.336 215.273-1.797 13.891-18.16-4.469Zm0 0"/><path fill="#64343a" d="m166.688 203.191-21.758-11.683 11.441-10.649Zm0 0"/><path fill="#d5b573" d="m138.188 201.297 28.5 1.894-18.149 26.266Zm0 0"/><path fill="#9d4544" d="m171.652 256.867-23.566 5.258.453-32.668Zm0 0"/><path fill="#ece186" d="m168.45 264.867-20.364-2.742 23.566-5.258Zm0 0"/><path fill="#342330" d="m113.977 240.93-26.438-11.766 1.797-13.89Zm0 0"/><path fill="#ebe487" d="m-.004 320.504 30.883 21.008-30.871-9.055Zm0 0"/><path fill="#685e4a" d="m-.004 320.504.008-21.035 27.418 23.75Zm0 0"/><path fill="#ece688" d="M30.879 341.512-.004 320.504l27.426 2.715Zm0 0"/><path fill="#e8e286" d="m17.133 357.988 13.746-16.476 3.101 21.914Zm0 0"/><path fill="#322630" d="m30.879 341.512 36.031 14.945-32.93 6.969Zm0 0"/><path fill="#a9a169" d="M66.91 356.457 30.88 341.512l27.906-.875Zm0 0"/><path fill="#2e222f" d="M0 384v-27.54l17.133 1.528Zm0 0"/><path fill="#2e222f" d="m0 384 17.133-26.012 16.847 5.438Zm0 0"/><path fill="#f0ea8a" d="m78.781 384.246-.969-35.07 23.836 5.683Zm0 0"/><path fill="#f1ea8a" d="m128.871 364.75 1.375-11.496 40.422 6.59Zm0 0"/><path fill="#f1eb8a" d="m128.871 364.75 40.152 19.254-61.996-.004Zm0 0"/><path fill="#f1eb8a" d="m169.023 384.004-40.152-19.254 41.797-4.906ZM78.781 384.246l22.867-29.387 5.38 29.141Zm0 0"/><path fill="#f1eb8a" d="m101.648 354.86 27.223 9.89L107.027 384ZM128.871 364.75l-27.223-9.89 28.598-1.606Zm0 0"/><path fill="#372b33" d="m142.36 332.27 31.234 25.449-2.926 2.125Zm0 0"/><path fill="#3a2d34" d="m130.246 353.254 12.113-20.984 28.309 27.574Zm0 0"/><path fill="#3a2e34" d="m173.594 357.719-31.235-25.45 18.508-23.292Zm0 0"/><path fill="#2e222f" d="m142.36 332.27-17.173-28.54 35.68 5.247Zm0 0"/><path fill="#f1eb8a" d="m77.813 349.176-19.028-8.54 33.25-26.034Zm0 0"/><path fill="#2e222f" d="m206.129 275.313 8.133 32.23-42.54-24.727Zm0 0"/><path fill="#342832" d="m171.652 256.867 34.477 18.445-34.406 7.504Zm0 0"/><path fill="#3a2f34" d="m203.95 261.3 2.179 14.012-34.477-18.445Zm0 0"/><path fill="#2e222f" d="M353.602 335.113 384 322.91V384Zm0 0"/><path fill="#302430" d="m384 322.91-30.398 12.203.898-17.996Zm0 0"/><path fill="#999061" d="m384.012 253.977.011 46.41-29.03-36.535Zm0 0"/><path fill="#ded781" d="m353.617 298.277-3.883-.101 5.258-34.324Zm0 0"/><path fill="#cac378" d="m384.023 300.387-30.406-2.11 1.375-34.425Zm0 0"/><path fill="#f1eb8a" d="m354.5 317.117-.883-18.84 30.406 2.11Zm0 0"/><path fill="#f0ea8a" d="m349.734 298.176 3.883.101.883 18.84Zm0 0"/><path fill="#e8e186" d="m283.27 384 14.918-11.934 29.519 11.95Zm0 0"/><path fill="#e6e085" d="m298.188 372.066 38.625-3.347-9.106 15.297Zm0 0"/><path fill="#312530" d="m336.813 368.719-38.625 3.347 26.359-31.882Zm0 0"/><path fill="#4d423e" d="m263.738 318.941-17.308 16.493 14.129-20.36Zm0 0"/><path fill="#f1eb8a" d="M261.676 351.297 233.313 384l5.136-31.8Zm0 0"/><path fill="#f1ea8a" d="m246.43 335.434 15.246 15.863-23.227.902Zm0 0"/><path fill="#f1eb8a" d="m263.738 318.941-2.062 32.356-15.246-15.863ZM290.594 339.453l33.953.73-26.36 31.883ZM214.75 352.367 233.313 384l-34.43-15.676Zm0 0"/><path fill="#f1eb8a" d="m233.313 384-18.563-31.633 23.7-.168ZM124.07 42.512l30.121 17.52-29.472 10.296Zm0 0"/><path fill="#e6df85" d="M.004 45.07 0 22.14l10.93 18.106Zm0 0"/><path fill="#2e222f" d="m0 22.14 27.023-.3L10.93 40.246ZM53.176-.004 27.023 21.84 0 0Zm0 0"/><path fill="#2f232f" d="M27.023 21.84 0 22.14V0Zm0 0"/><path fill="#c8c177" d="M56.758 29.59 53.176-.004 64.286 32.2Zm0 0"/><path fill="#2f232f" d="m53.176-.004 3.582 29.594-29.735-7.75ZM27.023 21.84l10.243 26.687-26.336-8.28Zm0 0"/><path fill="#615646" d="M41.031 112.594 52.86 76.87l.743 38.418Zm0 0"/><path fill="#f1eb8a" d="M152.2 30.742 124.081 0h61.895Zm0 0"/><path fill="#efe989" d="m74.363 94.523 17.145-32.085 12.457 36.894Zm0 0"/><path fill="#f1eb8a" d="m154.191 60.031-11.379 16.282-18.093-5.985Zm0 0"/><path fill="#2e222f" d="m383.98 87.848.012 43.613-13.008-14.32ZM384 177.875l-19.781-11.5 19.773-34.914Zm0 0"/><path fill="#756b50" d="m364.219 166.375 3.574 24.914-26.727-13.918Zm0 0"/><path fill="#2e222f" d="m360.031 134.36 10.953-17.22 13.008 14.32Zm0 0"/><path fill="#3d3236" d="m364.219 166.375-4.188-32.016 23.961-2.898Zm0 0"/><path fill="#983e41" d="m306.18 208.7.101 21.417-17.023-3.922Zm0 0"/><path fill="#e3dd84" d="m362.105 34.621-9.55 10.113-3.293-12.222Zm0 0"/><path fill="#2f232f" d="m383.98 87.848-32.363 14.53 19.547-31.206Zm0 0"/><path fill="#f1ea8a" d="m279.316 89.973-19.183-2.938 7.535-9.992Zm0 0"/><path fill="#f1eb8a" d="M252.504 27.922 185.977 0h77.054Zm0 0"/><path fill="#f0ea8a" d="m282.078 57.664 16.152-8.059 6.106 39.293Zm0 0"/><path fill="#2e222f" d="m349.754 248.543 34.25-8.344.008 13.778Zm0 0"/><path fill="#8c835b" d="m287.508 265-7.903 9.082-10.218-3.973Zm0 0"/><path fill="#f1eb8a" d="M277.05 240.945 287.509 265l-18.121 5.11ZM279.605 274.082l23.926 6.55-4.715 28.513ZM303.531 280.633l15.778 11.129-20.493 17.383Zm0 0"/><path fill="#332731" d="m319.309 291.762-15.778-11.13 20.094-14.222Zm0 0"/><path fill="#4b403c" d="m323.625 266.41 31.367-2.558-19.262 21.394Zm0 0"/><path fill="#2e222f" d="m354.992 263.852-31.367 2.558 26.129-17.867Zm0 0"/><path fill="#352932" d="m319.309 291.762 4.316-25.352 12.105 18.836Zm0 0"/><path fill="#2e222f" d="M.016 118.8.004 67.497l41.027 45.098Zm0 0"/><path fill="#f0ea8a" d="m54.91 141.934 17.363-7.72L57.29 168.04Zm0 0"/><path fill="#f0ea8a" d="m72.273 134.215-17.363 7.719-1.308-26.645ZM8.504 168.96l26.918 5.688-17.281 11.516Zm0 0"/><path fill="#f1eb8a" d="m35.422 174.648-26.918-5.687 16.656-6.473Zm0 0"/><path fill="#ece688" d="m35.422 174.648-10.262-12.16 18.918 2.668Zm0 0"/><path fill="#302430" d="m25.16 162.488 5.79-12.605 13.128 15.273Zm0 0"/><path fill="#ece688" d="m.004 140.008 30.945 9.875-5.789 12.605Zm0 0"/><path fill="#302430" d="m30.95 149.883 23.96-7.95-10.832 23.223Zm0 0"/><path fill="#2e222f" d="M41.031 112.594 30.95 149.883l-16.336-20ZM30.95 149.883.003 140.008l14.61-10.125Zm0 0"/><path fill="#473c3b" d="m30.95 149.883 10.081-37.29 12.57 2.696Zm0 0"/><path fill="#413538" d="m54.91 141.934-23.96 7.949 22.652-34.594Zm0 0"/><path fill="#2e222f" d="m31.395 218.45 19.367-11.575 18.617 17.82Zm0 0"/><path fill="#f1eb8a" d="m48.613 243.926-17.218-25.477 37.984 6.246Zm0 0"/><path fill="#f1eb8a" d="m69.566 235.465-20.953 8.46 20.766-19.23Zm0 0"/><path fill="#2e222f" d="m45.719 264.043 2.894-20.117 21.512 4.734Zm0 0"/><path fill="#efe989" d="m48.613 243.926 20.953-8.461.559 13.195Zm0 0"/><path fill="#2e222f" d="m33.125 241.2 15.488 2.726-2.894 20.117Zm0 0"/><path fill="#ede788" d="m48.613 243.926-15.488-2.727-1.73-22.75Zm0 0"/><path fill="#2f242f" d="m335.625 115.273-15.3 34.754 1.948-48.773Zm0 0"/><path fill="#72684e" d="m326.934 69.414-4.66 31.84-17.938-12.356Zm0 0"/><path fill="#84383d" d="m152.703 165.102-25.539-25.86 15.93-15.594Zm0 0"/><path fill="#9a3f42" d="m143.094 123.648-15.93 15.594-4.965-17.008Zm0 0"/><path fill="#9b4343" d="m127.164 139.242 25.54 25.86-24.017 2.66Zm0 0"/><path fill="#9a4042" d="m127.164 139.242-19.078 5.446 14.113-22.454Zm0 0"/><path fill="#2e222f" d="m162.918 136.93 13.559 8.582-23.774 19.59Zm0 0"/><path fill="#30222f" d="m143.094 123.648 19.824 13.282-10.215 28.172Zm0 0"/><path fill="#a25249" d="m152.703 165.102-19.266 18.511-4.75-15.851Zm0 0"/><path fill="#934242" d="m133.438 183.613 19.265-18.511 3.668 15.757Zm0 0"/><path fill="#f1eb8a" d="m82.254 163.84-9.98-29.625 17.664-4.559ZM72.273 134.215l9.98 29.625-24.964 4.2Zm0 0"/><path fill="#9a4042" d="m89.336 215.273-11.14-11.644 33.898-10.262Zm0 0"/><path fill="#993d41" d="m78.195 203.629 11.14 11.644-19.956 9.422Zm0 0"/><path fill="#f0ea8a" d="M108.086 144.688 82.254 163.84l7.683-34.184Zm0 0"/><path fill="#f1ea8a" d="m82.254 163.84 25.832-19.153-12.762 25.434Zm0 0"/><path fill="#993d41" d="m112.7 167.508-4.614-22.82 20.602 23.074Zm0 0"/><path fill="#9a3f42" d="m108.086 144.688 4.613 22.82-17.375 2.613Zm0 0"/><path fill="#993d41" d="m108.086 144.688 19.078-5.446 1.523 28.52Zm0 0"/><path fill="#f0e889" d="m227.46 91.86 34.11 20.464-38.765 4.797Zm0 0"/><path fill="#91604e" d="m162.918 136.93 12.992-23.922.567 32.504Zm0 0"/><path fill="#f1eb8a" d="m194.434 71.469 23.832 5.625-19.086 19.594Zm0 0"/><path fill="#2e222f" d="m185.125 175.637-18.437 27.554-10.317-22.332ZM185.125 175.637l16.195 28.304-34.632-.75ZM221.207 147.316l-36.082 28.32-8.648-30.124Zm0 0"/><path fill="#f1eb8a" d="m156.625 285.086 11.824-20.219 3.274 17.95Zm0 0"/><path fill="#2e222f" d="m156.625 285.086 15.098-2.27-10.856 26.16ZM148.086 262.125l8.539 22.96-18.016-20.112Zm0 0"/><path fill="#f0e989" d="m156.625 285.086-8.54-22.961 20.364 2.742Zm0 0"/><path fill="#2e222f" d="m125.188 303.73 31.437-18.644 4.242 23.89Zm0 0"/><path fill="#2f232f" d="m.004 299.469 32.543-12.446-5.125 36.196Zm0 0"/><path fill="#403537" d="m19.773 260.445 25.946 3.598-13.172 22.98Zm0 0"/><path fill="#877e59" d="m.008 253.91 19.765 6.535L.003 299.47Zm0 0"/><path fill="#502f36" d="m144.93 191.508-11.493-7.895 22.934-2.754Zm0 0"/><path fill="#b97d5c" d="m122.719 220.258 15.469-18.961 10.351 28.16Zm0 0"/><path fill="#e7d782" d="m138.188 201.297 6.742-9.79 21.757 11.684Zm0 0"/><path fill="#633339" d="m122.719 220.258 1.41 14.242-34.793-19.227Zm0 0"/><path fill="#372631" d="m124.129 234.5-10.152 6.43-24.641-25.657Zm0 0"/><path fill="#e7d782" d="m87.54 229.164 9.655 28.281-27.07-8.785Zm0 0"/><path fill="#f1ea8a" d="m113.977 240.93-16.782 16.515-9.656-28.28Zm0 0"/><path fill="#2e222f" d="m55.184 371.469-3.692 12.511-17.512-20.554ZM66.91 356.457l-11.726 15.012-21.204-8.043Zm0 0"/><path fill="#f1eb8a" d="m101.648 354.86 12.657-18.626 15.941 17.02ZM114.305 336.234l-12.657 18.625-9.613-40.257Zm0 0"/><path fill="#2f232f" d="m125.188 303.73-10.883 32.504-22.27-21.632Zm0 0"/><path fill="#2f232f" d="m114.305 336.234 28.054-3.964-12.113 20.984Zm0 0"/><path fill="#2e222f" d="m114.305 336.234 10.882-32.504 17.172 28.54ZM353.602 335.113l-29.055 5.07 17.8-24.085Zm0 0"/><path fill="#2f232f" d="m353.602 335.113-16.79 33.606-12.265-28.535Zm0 0"/><path fill="#5d5345" d="m336.813 368.719 13.207 15.293-22.313.004Zm0 0"/><path fill="#2e222f" d="m350.02 384.012 3.582-48.899L384 384Zm0 0"/><path fill="#554a41" d="m350.02 384.012-13.207-15.293 16.789-33.606Zm0 0"/><path fill="#f1eb8a" d="m266.566 311.79.34 3.858-6.347-.574ZM298.816 309.145l-31.91 6.503-.34-3.859Zm0 0"/><path fill="#f1eb8a" d="m266.906 315.648-3.168 3.293-3.18-3.867ZM266.906 315.648l31.91-6.503-8.222 30.308Zm0 0"/><path fill="#f0ea8a" d="m290.594 339.453-28.918 11.844 2.062-32.356Zm0 0"/><path fill="#f1eb8a" d="m266.906 315.648 23.688 23.805-26.856-20.512Zm0 0"/><path fill="#f1eb8a" d="m283.27 384 7.324-44.547 7.594 32.613ZM261.676 351.297 283.27 384h-49.957Zm0 0"/><path fill="#f1eb8a" d="M290.594 339.453 283.27 384l-21.594-32.703Zm0 0"/><path fill="#f1ea8a" d="m124.07 42.512 28.13-11.77 1.991 29.29Zm0 0"/><path fill="#f0ea8a" d="m152.2 30.742 22.523 13.7-20.532 15.59Zm0 0"/><path fill="#f1eb8a" d="m124.082 0-.012 42.512L94.254 27.66Zm0 0"/><path fill="#2e222f" d="M56.758 29.59 37.266 48.527 27.023 21.84Zm0 0"/><path fill="#2e222f" d="m64.285 32.2-27.02 16.327L56.759 29.59Zm0 0"/><path fill="#312530" d="M59.96 62.27 37.267 48.527 64.286 32.2Zm0 0"/><path fill="#f1eb8a" d="M89.938 129.656 74.363 94.523l29.602 4.809Zm0 0"/><path fill="#f1eb8a" d="m72.273 134.215 2.09-39.692 15.575 35.133ZM52.86 76.871l21.503 17.652-20.761 20.766Zm0 0"/><path fill="#f1eb8a" d="m74.363 94.523-2.09 39.692-18.671-18.926ZM124.719 70.328l-20.754 29.004-12.457-36.894Zm0 0"/><path fill="#2e222f" d="M367.793 191.29 384 177.874l.047 27.523Zm0 0"/><path fill="#2e222f" d="m384 177.875-16.207 13.414-3.574-24.914Zm0 0"/><path fill="#2f232f" d="m320.324 150.027 20.742 27.344-23.914 9.676Zm0 0"/><path fill="#6f654d" d="m295.566 24.457 24.508 9.762-21.844 15.386Zm0 0"/><path fill="#665c49" d="m345.777.043-25.703 34.176-24.508-9.762Zm0 0"/><path fill="#e6df85" d="m352.555 44.734 9.55-10.113-7.554 33.805Zm0 0"/><path fill="#2e222f" d="m360.031 134.36 1.492-23.169 9.461 5.95Zm0 0"/><path fill="#efe889" d="m361.523 111.191-1.492 23.168-8.414-31.98Zm0 0"/><path fill="#ede789" d="m360.031 134.36-24.406-19.087 15.992-12.894Zm0 0"/><path fill="#2e232f" d="m361.523 111.191 22.457-23.343-12.996 29.293Zm0 0"/><path fill="#e9e286" d="m383.98 87.848-22.457 23.343-9.906-8.812Zm0 0"/><path fill="#2e222f" d="M371.164 71.172 384 43.75l-.02 44.098Zm0 0"/><path fill="#2e222f" d="m371.164 71.172-9.059-36.55L384 43.75Zm0 0"/><path fill="#3a2e34" d="m362.105 34.621 9.06 36.55-16.614-2.745Zm0 0"/><path fill="#f1eb8a" d="m279.316 89.973 2.762-32.309 22.258 31.234ZM282.332 127.387l22.004-38.489 17.937 12.356ZM295.566 24.457l-43.062 3.465L263.03 0Zm0 0"/><path fill="#342831" d="m356.281 235.477 27.754-7.106-.031 11.828Zm0 0"/><path fill="#2e222f" d="m349.754 248.543 6.527-13.066 27.723 4.722Zm0 0"/><path fill="#f1eb8a" d="m315.305 217.113-9.024 13.004-.101-21.418Zm0 0"/><path fill="#924041" d="m297.2 248.71-20.15-7.765 12.208-14.75Zm0 0"/><path fill="#f1eb8a" d="M297.2 248.71 287.507 265l-10.457-24.055Zm0 0"/><path fill="#452933" d="m297.2 248.71-7.942-22.515 17.023 3.922Zm0 0"/><path fill="#2e222f" d="m323.625 266.41.137-16.113 25.992-1.754Zm0 0"/><path fill="#b7af6f" d="m323.762 250.297-26.563-1.586 9.082-18.594Zm0 0"/><path fill="#2e222f" d="m297.2 248.71 26.562 1.587-.137 16.113ZM28.734 68.059 52.86 76.87l-11.828 35.723ZM.004 67.496l28.73.563 12.297 44.535ZM33.125 241.2l12.594 22.843-25.946-3.598ZM-.016 234.172l14.836-3.988 4.953 30.261Zm0 0"/><path fill="#2e222f" d="m14.82 230.184 18.305 11.015-13.352 19.246Zm0 0"/><path fill="#f0ea8a" d="m281.148 158.79 1.184-31.403 21.203 24.14Zm0 0"/><path fill="#30222f" d="m234.629 161.45-13.422-14.134 25.64-15.504Zm0 0"/><path fill="#eee889" d="m298.23 49.605 22.493 12.329-16.387 26.964Zm0 0"/><path fill="#493e3b" d="m320.723 61.934 6.21 7.48-22.597 19.484Zm0 0"/><path fill="#f1ea8a" d="m103.965 99.332 18.234 22.902-15.969 3.164Zm0 0"/><path fill="#f1eb8a" d="m89.938 129.656 14.027-30.324 2.265 26.066Zm0 0"/><path fill="#a14d47" d="m133.438 183.613-19.02-.449 14.27-15.402Zm0 0"/><path fill="#f1eb8a" d="m58.543 178.59 23.71-14.75-4.058 39.789Zm0 0"/><path fill="#f1eb8a" d="m82.254 163.84-23.711 14.75-1.254-10.55ZM50.762 206.875l27.433-3.246-8.816 21.066Zm0 0"/><path fill="#9a4042" d="m114.418 183.164-2.324 10.203-33.899 10.262Zm0 0"/><path fill="#efe889" d="m199.18 96.688-4.91 11.757-4.727-13.285Zm0 0"/><path fill="#f0e989" d="m175.91 113.008 18.36-4.563 9.937 13.395Zm0 0"/><path fill="#f1eb8a" d="m194.27 108.445-18.36 4.563 13.633-17.848Zm0 0"/><path fill="#3d3136" d="m169.664 96.77 22.043-14.883-2.164 13.273Zm0 0"/><path fill="#2f232f" d="m169.664 96.77-10.383-16.551 32.426 1.668Zm0 0"/><path fill="#913e40" d="m159.281 80.219-16.469-3.906 11.38-16.282Zm0 0"/><path fill="#b97d5c" d="m204.207 121.84 18.598-4.719-1.598 30.195Zm0 0"/><path fill="#984e47" d="m222.805 117.121 38.765-4.797-14.722 19.489Zm0 0"/><path fill="#a05c4d" d="m221.207 147.316 1.598-30.195 24.043 14.692Zm0 0"/><path fill="#2e222f" d="m194.27 108.445 14.73-2.547-4.793 15.942ZM204.207 121.84 209 105.898l13.805 11.223Zm0 0"/><path fill="#f1eb8a" d="M227.46 91.86 209 105.897l9.266-28.804Zm0 0"/><path fill="#2e222f" d="m209 105.898 18.46-14.039-4.655 25.262Zm0 0"/><path fill="#f1eb8a" d="m209 105.898-9.82-9.21 19.086-19.594Zm0 0"/><path fill="#342430" d="m199.18 96.688 9.82 9.21-14.73 2.547Zm0 0"/><path fill="#943c40" d="m176.477 145.512 27.73-23.672 17 25.476Zm0 0"/><path fill="#b3a86c" d="m176.477 145.512-.567-32.504 28.297 8.832Zm0 0"/><path fill="#332831" d="m45.719 264.043 6.652 36.223-19.824-13.243Zm0 0"/><path fill="#f1eb8a" d="m58.785 340.637 14.79-32.11 18.46 6.075Zm0 0"/><path fill="#d5b473" d="m122.719 220.258-33.383-4.985 22.758-21.906Zm0 0"/><path fill="#efe688" d="m131.77 187.82 13.16 3.688-6.743 9.789Zm0 0"/><path fill="#e9db84" d="m144.93 191.508-13.16-3.688 1.667-4.207Zm0 0"/><path fill="#9a4042" d="m131.77 187.82-17.352-4.656 19.02.45Zm0 0"/><path fill="#322430" d="m124.129 234.5 14.48 30.473-24.632-24.043Zm0 0"/><path fill="#e5df85" d="m138.61 264.973-41.415-7.528 16.782-16.515Zm0 0"/><path fill="#3c2b33" d="m124.129 234.5 23.957 27.625-9.477 2.848Zm0 0"/><path fill="#954343" d="M148.086 262.125 124.129 234.5l24.41-5.043Zm0 0"/><path fill="#994243" d="m124.129 234.5-1.41-14.242 25.82 9.199Zm0 0"/><path fill="#2e222f" d="m84.773 271.648-29.601-5.718 14.953-17.27ZM97.195 257.445l-12.422 14.203-14.648-22.988Zm0 0"/><path fill="#322631" d="M78.781 384.246 55.184 371.47l11.726-15.012Zm0 0"/><path fill="#e9e387" d="m78.781 384.246-27.289-.266 3.692-12.511Zm0 0"/><path fill="#f0ea8a" d="m78.781 384.246-11.87-27.789 10.901-7.281Zm0 0"/><path fill="#ede788" d="m66.91 356.457-8.125-15.82 19.028 8.539Zm0 0"/><path fill="#3c3035" d="m349.734 298.176 4.766 18.941-12.152-1.02Zm0 0"/><path fill="#9d9463" d="m298.816 309.145 20.942 17.02-29.164 13.288Zm0 0"/><path fill="#322631" d="m324.547 340.184-4.79-14.02 22.59-10.066Zm0 0"/><path fill="#2e222f" d="m319.758 326.164 4.789 14.02-33.953-.73Zm0 0"/><path fill="#f1eb8a" d="M124.07 42.512 91.508 62.438l2.746-34.778Zm0 0"/><path fill="#efe889" d="M91.508 62.438 64.285 32.198l29.969-4.539Zm0 0"/><path fill="#f1eb8a" d="m152.2 30.742-28.13 11.77L124.082 0Zm0 0"/><path fill="#2e222f" d="m59.96 62.27 14.403 32.253L52.86 76.871Zm0 0"/><path fill="#f1eb8a" d="m59.96 62.27 31.548.167-17.145 32.086Zm0 0"/><path fill="#eee889" d="m59.96 62.27 4.325-30.07 27.223 30.237Zm0 0"/><path fill="#f1eb8a" d="m384.035 228.371-15.36-17.172 15.372-5.8Zm0 0"/><path fill="#2e222f" d="m368.676 211.2-.883-19.91 16.254 14.108Zm0 0"/><path fill="#efe989" d="m356.281 235.477 12.395-24.278 15.36 17.172Zm0 0"/><path fill="#423738" d="m346.977 154.723 17.242 11.652-23.153 10.996Zm0 0"/><path fill="#2e222f" d="m320.324 150.027 26.653 4.696-5.91 22.648Zm0 0"/><path fill="#c5be76" d="m346.977 154.723 13.054-20.364 4.188 32.016Zm0 0"/><path fill="#a8a068" d="m300.684-.004 45.093.047-50.21 24.414Zm0 0"/><path fill="#ece688" d="m320.074 34.219.649 27.715-22.493-12.329Zm0 0"/><path fill="#2e222f" d="m335.625 115.273 24.406 19.086-39.707 15.668Zm0 0"/><path fill="#eee889" d="m360.031 134.36-13.054 20.363-26.653-4.696Zm0 0"/><path fill="#f1eb8a" d="m279.316 89.973-11.648-12.93 14.41-19.379Zm0 0"/><path fill="#f1eb8a" d="m267.668 77.043-7.535 9.992-10.512-23.722ZM279.316 89.973l25.02-1.075-22.004 38.489Zm0 0"/><path fill="#f1eb8a" d="m279.316 89.973 3.016 37.414-20.762-15.063Zm0 0"/><path fill="#f1eb8a" d="m260.133 87.035 19.183 2.938-17.746 22.351Zm0 0"/><path fill="#2f222f" d="m243.61 67.832 16.523 19.203-32.672 4.824Zm0 0"/><path fill="#423738" d="m218.266 77.094 25.343-9.262-16.148 24.027Zm0 0"/><path fill="#efe889" d="m243.61 67.832-25.344 9.262 18.507-29.446Zm0 0"/><path fill="#a04d47" d="m260.133 87.035-16.524-19.203 6.012-4.52Zm0 0"/><path fill="#993e41" d="m243.61 67.832-6.837-20.184 12.848 15.664Zm0 0"/><path fill="#f1ea8a" d="m236.773 47.648 15.73-19.726-2.882 35.39Zm0 0"/><path fill="#f1eb8a" d="m317.152 187.047-1.847 30.066-9.125-8.414Zm0 0"/><path fill="#efe789" d="m294.707 186.785 22.445.262-10.972 21.652Zm0 0"/><path fill="#2e222f" d="m297.2 248.71 3.222 22.567L287.508 265Zm0 0"/><path fill="#302430" d="m287.508 265 12.914 6.277-20.817 2.805Zm0 0"/><path fill="#f1eb8a" d="m300.422 271.277 3.11 9.356-23.927-6.551Zm0 0"/><path fill="#3b2f35" d="m303.531 280.633-3.11-9.356 23.204-4.867Zm0 0"/><path fill="#2e222f" d="m300.422 271.277-3.223-22.566 26.426 17.7Zm0 0"/><path fill="#4b403d" d="m332.496 232.64 23.785 2.837-6.527 13.066Zm0 0"/><path fill="#cfc87a" d="m323.762 250.297 8.734-17.656 17.258 15.902Zm0 0"/><path fill="#d7d17e" d="m356.281 235.477-23.785-2.836 13.574-12.754Zm0 0"/><path fill="#e5df85" d="m332.496 232.64-8.734 17.657-17.48-20.18Zm0 0"/><path fill="#f1eb8a" d="m315.305 217.113 17.191 15.528-26.215-2.524ZM332.496 232.64l-17.191-15.527 30.765 2.774ZM25.918 57.066l2.816 10.993-28.73-.563Zm0 0"/><path fill="#2e222f" d="m50.762 206.875-17.239-14.059 15.504-3.754Zm0 0"/><path fill="#2f232f" d="m35.422 174.648-1.899 18.168-15.382-6.652Zm0 0"/><path fill="#302430" d="m33.523 192.816 1.899-18.168 13.605 14.415Zm0 0"/><path fill="#d9d37f" d="m.008 218.379 14.812 11.805-14.836 3.988Zm0 0"/><path fill="#eee889" d="m303.535 151.527 16.79-1.5-3.173 37.02Zm0 0"/><path fill="#eee688" d="m294.707 186.785 8.828-35.258 13.617 35.52Zm0 0"/><path fill="#f0ea8a" d="m303.535 151.527-8.828 35.258-13.559-27.996Zm0 0"/><path fill="#63353a" d="m234.672 204.79-.043-43.34 29.617 5.675Zm0 0"/><path fill="#2e222f" d="m201.32 203.941 33.309-42.492.043 43.34Zm0 0"/><path fill="#523137" d="m257.46 147.254-22.831 14.195 12.219-29.637Zm0 0"/><path fill="#7b3c3e" d="m234.629 161.45 22.832-14.196 6.785 19.871Zm0 0"/><path fill="#f1eb8a" d="m257.46 147.254 23.688 11.535-16.902 8.336ZM282.332 127.387l-24.871 19.867-10.613-15.441Zm0 0"/><path fill="#f1eb8a" d="m281.148 158.79-23.687-11.536 24.871-19.867Zm0 0"/><path fill="#9c4745" d="m234.672 204.79 42.308-19.77-15.105 43.847Zm0 0"/><path fill="#b26f56" d="m276.98 185.02 12.278 41.175-27.383 2.672Zm0 0"/><path fill="#a04c47" d="m143.094 123.648-8.676-27.398 24.863-16.031Zm0 0"/><path fill="#993e41" d="m134.418 96.25 8.676 27.398-20.895-1.414Zm0 0"/><path fill="#f1eb8a" d="m103.965 99.332 30.453-3.082-12.219 25.984Zm0 0"/><path fill="#f1eb8a" d="m134.418 96.25-30.453 3.082 20.754-29.004Zm0 0"/><path fill="#f1eb8a" d="m142.813 76.313-8.395 19.937-9.7-25.922Zm0 0"/><path fill="#332731" d="m49.027 189.063 29.168 14.566-27.433 3.246Zm0 0"/><path fill="#413638" d="m49.027 189.063 9.516-10.473 19.652 25.039Zm0 0"/><path fill="#4d2d35" d="m95.324 170.121 19.094 13.043-36.223 20.465Zm0 0"/><path fill="#f1eb8a" d="m82.254 163.84 13.07 6.281-17.129 33.508Zm0 0"/><path fill="#993e41" d="m95.324 170.121 17.375-2.613 1.719 15.656Zm0 0"/><path fill="#9a3f41" d="m131.77 187.82-19.676 5.547 2.324-10.203Zm0 0"/><path fill="#994243" d="m169.066 114.527-6.148 22.403-19.824-13.282Zm0 0"/><path fill="#f1eb8a" d="m169.066 114.527 6.844-1.52-12.992 23.923Zm0 0"/><path fill="#2e222f" d="m175.91 113.008-6.246-16.238 19.879-1.61Zm0 0"/><path fill="#332430" d="m169.664 96.77-.598 17.757-25.972 9.121Zm0 0"/><path fill="#2e222f" d="m169.066 114.527.598-17.757 6.246 16.238Zm0 0"/><path fill="#412f35" d="m169.664 96.77-26.57 26.878 16.187-43.43Zm0 0"/><path fill="#f1eb8a" d="m191.707 81.887-32.426-1.668 35.153-8.75Zm0 0"/><path fill="#c69968" d="m159.281 80.219 15.442-35.778 19.71 27.028Zm0 0"/><path fill="#983e41" d="M174.723 44.441 159.28 80.22l-5.09-20.188Zm0 0"/><path fill="#302530" d="m32.547 287.023 19.824 13.243-24.95 22.953Zm0 0"/><path fill="#5f5446" d="m55.172 265.93-2.8 34.336-6.653-36.223Zm0 0"/><path fill="#e1ca7c" d="m131.77 187.82 6.417 13.477-26.093-7.93Zm0 0"/><path fill="#c79968" d="m138.188 201.297-15.47 18.96-10.624-26.89Zm0 0"/><path fill="#2e222f" d="m138.61 264.973-35.29 15.89-6.125-23.418ZM103.32 280.863l-18.547-9.215 12.422-14.203Zm0 0"/><path fill="#efe989" d="M78.781 384.246h.239l-27.528-.266Zm0 0"/><path fill="#a59c66" d="m353.602 335.113-11.254-19.015 12.152 1.02Zm0 0"/><path fill="#f1ea8a" d="m91.508 62.438 32.562-19.926.649 27.816Zm0 0"/><path fill="#efe98a" d="m35.863 60.016 1.403-11.489L59.96 62.27Zm0 0"/><path fill="#2e222f" d="m35.863 60.016 24.098 2.254-7.102 14.601Zm0 0"/><path fill="#2e222f" d="m28.734 68.059 7.13-8.043L52.858 76.87Zm0 0"/><path fill="#834341" d="M159.281 80.219 134.418 96.25l8.394-19.937Zm0 0"/><path fill="#f1eb8a" d="m368.676 211.2-12.395 24.277-10.21-15.59Zm0 0"/><path fill="#312530" d="m338.004 55.75 11.258-23.238 3.293 12.222Zm0 0"/><path fill="#2f232f" d="m383.992 0-21.887 34.621-12.843-2.11Zm0 0"/><path fill="#2e222f" d="M362.105 34.621 383.992 0 384 43.75Zm0 0"/><path fill="#2f232f" d="M345.777.043 383.992 0l-34.73 32.512Zm0 0"/><path fill="#f1eb8a" d="m282.078 57.664-14.41 19.379-18.047-13.73ZM252.504 27.922l29.574 29.742-32.457 5.648ZM300.684-.004l-5.118 24.461L263.031 0Zm0 0"/><path fill="#efe989" d="m345.152 211.727 23.524-.528-22.606 8.688Zm0 0"/><path fill="#5c5144" d="m368.676 211.2-23.524.527 22.641-20.438Zm0 0"/><path fill="#e9e386" d="m315.305 217.113 29.847-5.386.918 8.16Zm0 0"/><path fill="#2e222f" d="m317.152 187.047 28 24.68-29.847 5.386Zm0 0"/><path fill="#746b50" d="m367.793 191.29-22.64 20.437-4.087-34.356Zm0 0"/><path fill="#2e222f" d="m341.066 177.371 4.086 34.356-28-24.68Zm0 0"/><path fill="#efe989" d="m9.727 53.203 16.191 3.863L.004 67.496Zm0 0"/><path fill="#695f4a" d="M9.727 53.203.004 67.496 0 55.602Zm0 0"/><path fill="#efe889" d="M9.727 53.203.004 45.07l10.926-4.824Zm0 0"/><path fill="#ede789" d="m.004 45.07 9.723 8.133L0 55.602Zm0 0"/><path fill="#2e222f" d="m17.797 209.738 15.726-16.922 17.239 14.059Zm0 0"/><path fill="#3e2732" d="m276.98 185.02-42.308 19.77 29.574-37.665Zm0 0"/><path fill="#3e3236" d="m35.422 174.648 23.121 3.942-9.516 10.472Zm0 0"/><path fill="#efe989" d="m58.543 178.59-23.121-3.942 8.656-9.492Zm0 0"/><path fill="#ede788" d="m57.29 168.04 1.253 10.55-14.465-13.434Zm0 0"/><path fill="#f1eb8a" d="m30.879 341.512 21.035-9.219 6.871 8.344Zm0 0"/><path fill="#f0ea8a" d="m51.914 332.293-21.035 9.219-3.457-18.293Zm0 0"/><path fill="#302430" d="m52.371 300.266-.457 32.027-24.492-9.074Zm0 0"/><path fill="#f1eb8a" d="m84.773 271.648-11.77 18.41-17.831-24.128Zm0 0"/><path fill="#2e222f" d="m125.188 303.73-21.868-22.867 35.29-15.89Zm0 0"/><path fill="#2e222f" d="m156.625 285.086-31.437 18.644 13.421-38.757Zm0 0"/><path fill="#2f232f" d="m25.918 57.066 9.945 2.95-7.129 8.043Zm0 0"/><path fill="#f1eb8a" d="m37.266 48.527-11.348 8.54-14.988-16.82Zm0 0"/><path fill="#f1eb8a" d="m35.863 60.016-9.945-2.95 11.348-8.539ZM25.918 57.066 9.727 53.203l1.203-12.957Zm0 0"/><path fill="#2e222f" d="m340.012 90.746 2.742 5.64-20.48 4.868Zm0 0"/><path fill="#2f232f" d="m335.625 115.273 7.129-18.886 8.863 5.992Zm0 0"/><path fill="#2f232f" d="m322.273 101.254 20.48-4.867-7.128 18.886Zm0 0"/><path fill="#e3dc84" d="m340.012 90.746-13.078-21.332 27.617-.988Zm0 0"/><path fill="#ebe588" d="m326.934 69.414 13.078 21.332-17.739 10.508Zm0 0"/><path fill="#2f232f" d="m320.723 61.934-.649-27.715 17.93 21.531Zm0 0"/><path fill="#302530" d="m349.262 32.512-29.188 1.707L345.777.043Zm0 0"/><path fill="#2f232f" d="m338.004 55.75-17.93-21.531 29.188-1.707Zm0 0"/><path fill="#e5df85" d="M354.55 68.426 338.005 55.75l14.55-11.016Zm0 0"/><path fill="#f1eb8a" d="m340.012 90.746 14.539-22.32 16.613 2.746Zm0 0"/><path fill="#594e43" d="m282.078 57.664 13.488-33.207 2.664 25.148Zm0 0"/><path fill="#f1eb8a" d="m295.566 24.457-13.488 33.207-29.574-29.742ZM17.797 209.738l-17.79 8.64-.03-17.577Zm0 0"/><path fill="#2e222f" d="m17.797 209.738-17.82-8.937 18.164-14.637Zm0 0"/><path fill="#2f232f" d="m33.523 192.816-15.726 16.922.344-23.574Zm0 0"/><path fill="#2e222f" d="m31.395 218.45-13.598-8.712 32.965-2.863Zm0 0"/><path fill="#f0ea8a" d="m14.82 230.184 16.575-11.735 1.73 22.75Zm0 0"/><path fill="#f1eb8a" d="m17.797 209.738 13.598 8.711-16.575 11.735Zm0 0"/><path fill="#9f4a46" d="m276.98 185.02 17.727 1.765L306.18 208.7Zm0 0"/><path fill="#a95c4e" d="m276.98 185.02 29.2 23.68-16.922 17.495Zm0 0"/><path fill="#efe989" d="m73.574 308.527-21.66 23.766.457-32.027ZM51.914 332.293l21.66-23.766-14.789 32.11Zm0 0"/><path fill="#f0ea8a" d="m55.172 265.93 17.832 24.129-20.633 10.207ZM73.004 290.059l.57 18.468-21.203-8.261Zm0 0"/><path fill="#f1eb8a" d="m319.758 326.164 9.215-22.473 13.375 12.407Zm0 0"/><path fill="#d5ce7d" d="m328.973 303.691-9.215 22.473-20.942-17.02Zm0 0"/><path fill="#eae487" d="m328.973 303.691 20.761-5.515-7.386 17.922Zm0 0"/><path fill="#2e222f" d="m328.973 303.691 6.757-18.445 14.004 12.93Zm0 0"/><path fill="#2e222f" d="m335.73 285.246-6.757 18.445-9.664-11.93Zm0 0"/><path fill="#30242f" d="m328.973 303.691-30.157 5.454 20.493-17.383Zm0 0"/><path fill="#2f232f" d="m342.754 96.387 28.41-25.215-19.547 31.207Zm0 0"/><path fill="#312530" d="m342.754 96.387-2.742-5.64 31.152-19.575Zm0 0"/><path fill="#2f232f" d="m326.934 69.414 11.07-13.664 16.547 12.676Zm0 0"/><path fill="#302430" d="m320.723 61.934 17.28-6.184-11.07 13.664Zm0 0"/><path fill="#ede789" d="m17.797 209.738-7.926 9.707-9.863-1.066Zm0 0"/><path fill="#e8e286" d="m.008 218.379 9.863 1.066 4.95 10.739Zm0 0"/><path fill="#f1eb8a" d="m9.871 219.445 7.926-9.707-2.977 20.446ZM294.707 186.785l-17.727-1.765 4.168-26.23Zm0 0"/><path fill="#f0e989" d="m281.148 158.79-4.168 26.23-12.734-17.895Zm0 0"/><path fill="#f0ea8a" d="m73.004 290.059 17.305 8.09-16.735 10.378Zm0 0"/><path fill="#f0ea8a" d="m73.574 308.527 16.735-10.379 1.726 16.454Zm0 0"/><path fill="#30242f" d="m90.309 298.148 34.879 5.582-33.153 10.872Zm0 0"/><path fill="#302430" d="m125.188 303.73-34.88-5.582 13.012-17.285Zm0 0"/><path fill="#2e222f" d="m90.309 298.148-2.618-12.367 15.63-4.918Zm0 0"/><path fill="#f1eb8a" d="m87.691 285.781 2.618 12.367-17.305-8.09Zm0 0"/><path fill="#2f232f" d="m103.32 280.863-15.629 4.918-2.918-14.133Zm0 0"/><path fill="#f1eb8a" d="m87.691 285.781-14.687 4.278 11.77-18.41Zm0 0"/></svg>