<svg xmlns="http://www.w3.org/2000/svg" width="512" height="512" viewBox="0 0 384 384"><path fill="#a9b2a2" d="M169.438 0h43.347l-20.453 30.918ZM0 171.137v-28.032l22.7 16.946ZM116.074 352.637l-10.34-13.903 22.008-7.652ZM64.34 329.242 46.605 353.02l-6.48-29.426ZM87.336 36.035l18.914-11.504 1.512 20.11Zm0 0"/><path fill="#a9b2a2" d="M106.25 24.531 87.336 36.035 82.668 0ZM92.648 57.762l-5.312-21.727 20.426 8.606ZM165.45 36.457 169.437 0l22.894 30.918ZM194.36 124.723l-25.7-4.141 13.137-16.812ZM222.625 278.996l-3.613-25.082 21.718 8.668Zm0 0"/><path fill="#a9b2a2" d="m219.012 253.914 3.613 25.082-23.648-10.273Zm0 0"/><path fill="#a9b2a2" d="m222.625 278.996-21.148 16.746-2.5-27.02ZM332.594 118.41l27.136 12.55-21.472 15.724ZM230.11 77.809l-22.731 17.695-.465-35.293ZM168.66 120.582l-7.45-22.3 20.587 5.488ZM28.492 131.348 0 143.105v-41.214ZM31.441 76.656l4.282-26.597 20.05 12.492ZM43.203 0 28.496 27.156 0 0Zm0 0"/><path fill="#a9b2a2" d="M28.496 27.156 0 51.664V0ZM35.723 50.059 0 51.664l28.496-24.508ZM35.723 50.059 58.07 32.242l-2.297 30.309Zm0 0"/><path fill="#a9b2a2" d="M58.07 32.242 35.723 50.06l-7.227-22.903ZM147.004 215.117l-24.168-17.25 23.25-11.219Zm0 0"/><path fill="#a9b2a2" d="m164.082 196.883-17.078 18.234-.918-28.469ZM34.57 384l-14.238-22.223 26.273-8.757ZM105.734 338.734l-1.66-20.12 23.668 12.468Zm0 0"/><path fill="#a9b2a2" d="m104.074 318.613 1.66 20.121-18.496-4.68ZM64.34 329.242l9.101 20.797-26.836 2.98Zm0 0"/><path fill="#a9b2a2" d="m73.441 350.04-9.101-20.798 22.898 4.813ZM384 246.957l-19.473-10.664L384 223.743ZM336.766 200.465l-17.786 21.062-6.007-19.937Zm0 0"/><path fill="#a9b2a2" d="m318.98 221.527 17.786-21.062 5.75 27.433ZM295.145 213.7l3.132-22.829 14.696 10.719ZM241.48 359.438 254.38 384h-29.18ZM82.668 0h43.414L106.25 24.531ZM58.07 32.242 82.668 0l4.668 36.035ZM58.07 32.242 74.72 52.863l-18.946 9.688Zm0 0"/><path fill="#a9b2a2" d="M74.719 52.863 58.07 32.243l29.266 3.792Zm0 0"/><path fill="#a9b2a2" d="m92.648 57.762-17.93-4.899 12.618-16.828ZM145.875 24.832l-20.004 8.25L126.082 0Zm0 0"/><path fill="#a9b2a2" d="m169.438 0-23.563 24.832L126.082 0ZM165.45 36.457l-19.575-11.625L169.438 0ZM106.25 24.531l19.621 8.551-18.11 11.559ZM118.145 128.48l23.46-10.69-8.085 27.366ZM331.05 61.648l-2.734-20.289 20.536 2.782ZM332.926 88.137l-.332 30.273-21.528-17.312ZM318.305 139.242l14.289-20.832 5.664 28.274ZM281.04 76.05l-12.595-21.214 22.926.445ZM273.379 281.77l8.426-24.067 11.035 20.953Zm0 0"/><path fill="#a9b2a2" d="m281.805 257.703-8.426 24.067-13.04-14.899ZM251.738 314.508l24.278 5.91-17.305 18.77Zm0 0"/><path fill="#a9b2a2" d="M260.34 266.871 248.62 287.43l-7.89-24.848ZM273.379 281.77l-24.758 5.66 11.719-20.559ZM248.621 287.43l24.758-5.66-5.59 18.87ZM361.012 158.656l-22.164 13.54-.59-25.512Zm0 0"/><path fill="#a9b2a2" d="m359.73 130.96 1.282 27.696-22.754-11.972ZM281.805 257.703l-21.465 9.168-2.77-22.101ZM257.57 244.77l2.77 22.101-19.61-4.289ZM240.05 104.887l-9.94-27.078 25.019-.137ZM161.21 98.281l7.45 22.301-27.055-2.793ZM179.828 78.477l27.55 17.027-25.581 8.266ZM161.21 98.281l18.618-19.804 1.969 25.293Zm0 0"/><path fill="#a9b2a2" d="m156.129 78.625 23.7-.148L161.21 98.28ZM230.11 77.809l9.69-27.082 15.329 26.945Zm0 0"/><path fill="#a9b2a2" d="m239.8 50.727-9.69 27.082-23.196-17.598ZM0 51.664l35.723-1.605-4.282 26.597ZM36.633 104.059l-8.14 27.289L0 101.89Zm0 0"/><path fill="#a9b2a2" d="m31.441 76.656 5.192 27.403L0 101.89ZM58.07 32.242 43.203 0h39.465Zm0 0"/><path fill="#a9b2a2" d="M43.203 0 58.07 32.242l-29.574-5.086ZM64.34 329.242l17.031-17.875 5.867 22.688Zm0 0"/><path fill="#a9b2a2" d="m81.371 311.367 22.703 7.246-16.836 15.442ZM153.602 268.77l-12.473 21.933-19.965-17.605ZM163.887 240.395l-28.438 3.539 11.555-28.817Zm0 0"/><path fill="#a9b2a2" d="m153.602 268.77-18.153-24.836 28.438-3.54Zm0 0"/><path fill="#a9b2a2" d="m104.23 243.488 31.22.446-14.286 29.164Zm0 0"/><path fill="#a9b2a2" d="m135.45 243.934 18.152 24.836-32.438 4.328ZM147.004 215.117l-25.277 7.285 1.109-24.535ZM121.727 222.402l13.722 21.532-31.219-.446Zm0 0"/><path fill="#a9b2a2" d="m135.45 243.934-13.723-21.532 25.277-7.285ZM146.086 186.648l20.836-8.91-2.84 19.145ZM126.203 170.45l23.965-7.536-4.082 23.734ZM156.898 140.543l11.762-19.961 7.774 18.344ZM150.195 384l12.157-23.113L187.594 384Zm0 0"/><path fill="#a9b2a2" d="m162.352 360.887 21.16-15.532L187.594 384ZM0 351.762l20.332 10.015L0 384ZM20.332 361.777 34.57 384H0ZM46.605 353.02l-25.75-13.97 19.27-15.456Zm0 0"/><path fill="#a9b2a2" d="m20.332 361.777.523-22.726 25.75 13.969ZM20.855 339.05 0 351.763v-24.66Zm0 0"/><path fill="#a9b2a2" d="m0 351.762 20.855-12.711-.523 22.726ZM104.074 318.613l19.285-15.25 4.383 27.719ZM94.828 356.32l21.246-3.683L114.871 384ZM94.828 356.32l-21.387-6.28 13.797-15.985Zm0 0"/><path fill="#a9b2a2" d="M105.734 338.734 94.828 356.32l-7.59-22.265ZM116.074 352.637l-21.246 3.683 10.906-17.586ZM71.941 384h-37.37l12.034-30.98ZM114.871 384h-42.93l22.887-27.68Zm0 0"/><path fill="#a9b2a2" d="m73.441 350.04-1.5 33.96-25.336-30.98ZM71.941 384l1.5-33.96 21.387 6.28ZM177.988 283.379l23.489 12.363-25.254 17.645ZM384 198.523l-22.852-12.914L384 171.93ZM298.277 190.871l19.082-8.496-4.386 19.215ZM317.36 182.375l19.406 18.09-23.793 1.125ZM364.527 236.293 384 246.957l-17.16 9.09ZM347.68 251.262l7.941 21.676-23.61-3.81Zm0 0"/><path fill="#a9b2a2" d="m355.621 272.938-7.941-21.676 19.16 4.785ZM364.527 236.293l-16.847 14.969-5.164-23.364Zm0 0"/><path fill="#a9b2a2" d="m347.68 251.262 16.847-14.969 2.313 19.754ZM292.84 278.656l21.476 12.457-26.218 7.977ZM304.871 322.281l-28.855-1.863 12.082-21.328ZM299.387 170.527l17.972 11.848-19.082 8.496ZM295.145 213.7l-16.754 17.968-5.86-20.535ZM384 304.395v32.68l-17.926-23.247ZM384 275.262l-20.41 19.172-7.969-21.497Zm0 0"/><path fill="#a9b2a2" d="m384 304.395-20.41-9.961L384 275.262Zm0 0"/><path fill="#a9b2a2" d="m363.59 294.434 20.41 9.96-17.926 9.434ZM327.914 333.797l-14.734 18.965-8.309-30.48ZM314.316 291.113l-9.445 31.168-16.773-23.191ZM313.18 352.762 335.785 384h-44.66Zm0 0"/><path fill="#a9b2a2" d="m285.04 346.309 28.14 6.453L291.125 384ZM285.04 346.309l-19.65 15.535-6.68-22.656ZM258.71 339.188l-17.23 20.25-8.593-26.407ZM258.71 339.188l6.68 22.656-23.91-2.406Zm0 0"/><path fill="#a9b2a2" d="m241.48 359.438-28.738-4.645 20.145-21.762Zm0 0"/><path fill="#a9b2a2" d="m212.742 354.793 28.738 4.644L225.2 384ZM205.668 324.691l7.074 30.102-29.23-9.438ZM162.352 360.887l-6.579-24.2 27.739 8.668ZM138.07 357.84 150.195 384h-35.324Zm0 0"/><path fill="#a9b2a2" d="m150.195 384-12.125-26.16 24.282 3.047ZM116.074 352.637l21.996 5.203L114.871 384Zm0 0"/><path fill="#a9b2a2" d="m138.07 357.84 17.703-21.152 6.579 24.199ZM138.07 357.84l-21.996-5.203 11.668-21.555Zm0 0"/><path fill="#a9b2a2" d="M155.773 336.688 138.07 357.84l-10.328-26.758ZM201.477 295.742l25.683 9.992-21.492 18.957ZM126.082 0l-.21 33.082-19.622-8.55ZM77.46 73.129 74.72 52.863l17.93 4.899Zm0 0"/><path fill="#a9b2a2" d="m99.66 77.992-22.2-4.863 15.188-15.367ZM74.719 52.863 77.46 73.13 55.773 62.55Zm0 0"/><path fill="#a9b2a2" d="M77.46 73.129 57.798 89.336 55.773 62.55Zm0 0"/><path fill="#a9b2a2" d="M57.797 89.336 77.46 73.129l6.574 25.105ZM77.46 73.129l22.2 4.863-15.625 20.242ZM109.344 61.98 99.66 77.992l-7.012-20.23ZM212.785 0l5.07 33.23-25.523-2.312ZM359 22.535 348.191 0H384ZM384 45.469l-25-22.934L384 0ZM348.852 44.14 359 22.536l25 22.934ZM332.926 88.137l25.363 13.394-25.695 16.88ZM358.29 101.531l1.44 29.43-27.136-12.55Zm0 0"/><path fill="#a9b2a2" d="M358.29 101.531 384 115.723l-24.27 15.238ZM332.594 118.41l-26.715 5.004 5.187-22.316Zm0 0"/><path fill="#a9b2a2" d="m318.305 139.242-12.426-15.828 26.715-5.004ZM307.79 74.836l-26.75 1.215 10.331-20.77ZM331.05 61.648l-23.26 13.188 3.937-25.238Zm0 0"/><path fill="#a9b2a2" d="m311.727 49.598 16.59-8.239 2.734 20.29ZM268.445 54.836l13.14-14.828 9.786 15.273ZM307.79 74.836l25.136 13.3-21.86 12.962ZM267.79 300.64l8.226 19.778-24.278-5.91ZM227.16 305.734l-25.683-9.992 21.148-16.746ZM384 115.723V144.5l-24.27-13.54ZM361.012 158.656 384 144.5v27.43Zm0 0"/><path fill="#a9b2a2" d="m384 144.5-22.988 14.156-1.282-27.695ZM297.313 146.598l-14.52 15.996-9.86-16.512Zm0 0"/><path fill="#a9b2a2" d="m282.793 162.594 14.52-15.996 2.074 23.93ZM260.914 224.008l17.477 7.66-20.82 13.102Zm0 0"/><path fill="#a9b2a2" d="m278.39 231.668 3.415 26.035-24.235-12.933ZM236.34 243.34l21.23 1.43-16.84 17.812Zm0 0"/><path fill="#a9b2a2" d="m219.012 253.914 17.328-10.574 4.39 19.242ZM243.293 226.113l17.621-2.105-3.344 20.762Zm0 0"/><path fill="#a9b2a2" d="m236.34 243.34 6.953-17.227 14.277 18.657ZM272.531 211.133l5.86 20.535-17.477-7.66ZM252.953 208.035l19.578 3.098-11.617 12.875Zm0 0"/><path fill="#a9b2a2" d="m272.531 211.133-19.578-3.098 12.965-15.812ZM139.242 89.758l16.887-11.133 5.082 19.656ZM192.332 30.918l-11.738 22.113-15.145-16.574ZM180.594 53.031l11.738-22.113 14.582 29.293ZM281.04 76.05l-9.645 25.743-16.266-24.121ZM239.8 50.727l28.645 4.109-13.316 22.836Zm0 0"/><path fill="#a9b2a2" d="M268.445 54.836 281.04 76.05l-25.91 1.62ZM262.227 27.578l6.218 27.258-28.644-4.11ZM236.648 22.836l25.579 4.742L239.8 50.727ZM262.227 27.578l19.359 12.43-13.14 14.828ZM36.633 104.059l24.86 18.058-33 9.23ZM0 51.664l31.441 24.992L0 101.891Zm0 0"/><path fill="#a9b2a2" d="m57.797 89.336 3.695 32.781-24.86-18.058ZM55.773 62.55l2.024 26.786-26.356-12.68Zm0 0"/><path fill="#a9b2a2" d="m57.797 89.336-21.164 14.723-5.192-27.403ZM57.313 304.617l7.027 24.625-24.215-5.648Zm0 0"/><path fill="#a9b2a2" d="m57.313 304.617 24.058 6.75-17.031 17.875ZM32.145 298.938l25.167 5.68-17.187 18.976ZM57.313 304.617l-25.168-5.68 18.183-22.265Zm0 0"/><path fill="#a9b2a2" d="m50.328 276.672-18.183 22.265-8.403-23.304ZM79.09 151.55l17.402 28.72-31.242-2.82ZM177.86 260.387l.128 22.992-24.386-14.61Zm0 0"/><path fill="#a9b2a2" d="m177.86 260.387-24.258 8.383 10.285-28.375ZM121.727 222.402l-22.434-9.73 23.543-14.805Zm0 0"/><path fill="#a9b2a2" d="m99.293 212.672-2.8-32.402 26.343 17.597ZM96.492 180.27l2.801 32.402-24.352-10.5ZM182.8 192.055l-18.718 4.828 2.84-19.145ZM182.8 192.055l3.927-20.848 13.328 13Zm0 0"/><path fill="#a9b2a2" d="m186.727 171.207-3.926 20.848-15.88-14.317ZM150.168 162.914l-23.965 7.535 7.317-25.293ZM240.05 104.887l-32.671-9.383 22.73-17.695ZM240.05 104.887l-21.687 16.242-10.984-25.625ZM207.379 95.504l-13.02 29.219-12.562-20.953Zm0 0"/><path fill="#a9b2a2" d="m171.477 157.012 15.25 14.195-19.805 6.531ZM19.004 317.445l13.14-18.507 7.981 24.656ZM20.855 339.05l-1.851-21.605 21.121 6.149ZM146.992 311.512l8.781 25.176-28.03-5.606ZM123.36 303.363l23.632 8.149-19.25 19.57ZM362.184 212.117l-1.036-26.508L384 198.523ZM361.148 185.61l1.036 26.507-25.418-11.652Zm0 0"/><path fill="#a9b2a2" d="m336.766 200.465 25.418 11.652-19.668 15.781Zm0 0"/><path fill="#a9b2a2" d="m362.184 212.117 2.343 24.176-22.011-8.395ZM362.184 212.117 384 198.523v25.22Zm0 0"/><path fill="#a9b2a2" d="m364.527 236.293-2.343-24.176L384 223.742ZM361.148 185.61l-.136-26.954L384 171.93ZM366.84 256.047l17.16-9.09v28.305Zm0 0"/><path fill="#a9b2a2" d="m355.621 272.938 11.219-16.891L384 275.262ZM283.352 125.797l13.96 20.8-24.378-.515ZM317.36 182.375l.91-22.672 20.578 12.492Zm0 0"/><path fill="#a9b2a2" d="m338.848 172.195-20.578-12.492 19.988-13.02ZM318.27 159.703l-.91 22.672-17.973-11.848Zm0 0"/><path fill="#a9b2a2" d="m297.313 146.598 20.957 13.105-18.883 10.824ZM363.59 294.434l-22.207-3.086 14.238-18.41Zm0 0"/><path fill="#a9b2a2" d="m341.383 291.348-9.371-22.22 23.61 3.81ZM327.914 333.797l9.348 16.156-24.082 2.809Zm0 0"/><path fill="#a9b2a2" d="M337.262 349.953 335.785 384l-22.605-31.238ZM331.691 312.824l-3.777 20.973-23.043-11.516Zm0 0"/><path fill="#a9b2a2" d="m285.04 346.309 19.831-24.028 8.309 30.48Zm0 0"/><path fill="#a9b2a2" d="m285.04 346.309-9.024-25.891 28.855 1.863ZM276.016 320.418l9.023 25.89-26.328-7.12ZM254.379 384l11.012-22.156L291.125 384Zm0 0"/><path fill="#a9b2a2" d="m265.39 361.844 19.65-15.535L291.124 384ZM265.39 361.844 254.38 384l-12.899-24.562ZM212.742 354.793 225.2 384h-37.605ZM183.512 345.355l29.23 9.438L187.594 384ZM212.742 354.793l-7.074-30.102 27.219 8.34ZM155.773 336.688l20.45-23.301 7.289 31.968ZM176.223 313.387l29.445 11.304-22.156 20.664Zm0 0"/><path fill="#a9b2a2" d="m176.223 313.387 25.254-17.645 4.191 28.95ZM146.992 311.512l29.23 1.875-20.449 23.3ZM61.492 122.117l-3.695-32.781 26.238 8.898ZM94.012 125.48l-32.52-3.363 22.543-23.883ZM79.09 151.55l-17.598-29.433 32.52 3.363ZM109.344 61.98l-16.696-4.218 15.114-13.121ZM113.922 101.914l25.32-12.156 2.363 28.031ZM113.922 101.914l4.223 26.566-24.133-3Zm0 0"/><path fill="#a9b2a2" d="m118.145 128.48-4.223-26.566 27.683 15.875ZM113.922 101.914l-19.91 23.566-9.977-27.246ZM328.316 41.36l7.922-18.419 12.614 21.2ZM384 84.719l-27.543-13.446L384 45.47ZM356.457 71.273l-7.605-27.132L384 45.469ZM356.457 71.273l-25.406-9.625 17.8-17.507ZM358.29 101.531 384 84.72v31.004Zm0 0"/><path fill="#a9b2a2" d="m358.29 101.531-1.833-30.258L384 84.72Zm0 0"/><path fill="#a9b2a2" d="m358.29 101.531-25.364-13.394 23.531-16.864ZM305.879 123.414l-12.555-14.457 17.742-7.86ZM240.05 104.887l19.583 21.851-23.27 7.453ZM311.727 49.598l-3.938 25.238-16.418-19.555ZM307.79 74.836l-14.688 18-12.063-16.785Zm0 0"/><path fill="#a9b2a2" d="m293.102 92.836 14.687-18 3.277 26.262Zm0 0"/><path fill="#a9b2a2" d="m293.324 108.957-.222-16.121 17.964 8.262ZM281.04 76.05l12.062 16.786-21.707 8.957Zm0 0"/><path fill="#a9b2a2" d="m271.395 101.793 21.707-8.957.222 16.121ZM332.926 88.137l-1.875-26.489 25.406 9.625ZM331.05 61.648l1.876 26.489-25.137-13.301ZM267.79 300.64l20.308-1.55-12.082 21.328ZM273.379 281.77l14.719 17.32-20.309 1.55Zm0 0"/><path fill="#a9b2a2" d="m288.098 299.09-14.72-17.32 19.462-3.114ZM251.738 314.508l-3.117-27.078 19.168 13.21ZM259.633 126.738l23.719-.941-10.418 20.285ZM298.277 190.871l-16.367-10.488 17.477-9.856Zm0 0"/><path fill="#a9b2a2" d="m281.91 180.383.883-17.79 16.594 7.934ZM221.29 229.66l22.003-3.547-6.953 17.227ZM177.86 260.387l21.117 8.336-20.989 14.656ZM177.988 283.379l20.989-14.656 2.5 27.02ZM207.66 166.008l6.04-22.946 20.023 18.77Zm0 0"/><path fill="#a9b2a2" d="m213.7 143.063 22.663-8.872-2.64 27.641ZM244.21 187.387l8.743 20.648-21.96-.508Zm0 0"/><path fill="#a9b2a2" d="m236.363 134.191 16.754 12.957-19.394 14.684ZM220.238 185.836l-12.578-19.828 26.063-4.176ZM139.242 89.758l21.969 8.523-19.606 19.508ZM145.875 24.832l-1.797 21.254-18.207-13.004ZM144.078 46.086l1.797-21.254 19.574 11.625ZM161.125 59.813l-17.047-13.727 21.371-9.629ZM180.594 53.031l-19.469 6.782 4.324-23.356ZM161.125 59.813l18.703 18.664-23.7.148ZM212.785 0h36.352l-12.489 22.836Zm0 0"/><path fill="#a9b2a2" d="M217.855 33.23 212.785 0l23.863 22.836ZM28.492 131.348 22.7 160.05 0 143.105ZM49.465 153.688l-9.938 25.289L22.7 160.05ZM22.7 160.05l16.827 18.927-21.09 3.18Zm0 0"/><path fill="#a9b2a2" d="m18.438 182.156 21.09-3.18-10.59 23.102ZM57.313 304.617l18.363-17.07 5.695 23.82ZM75.676 287.547l-18.364 17.07-6.984-27.945ZM75.676 287.547l-25.348-10.875 21.973-9.363ZM104.23 243.488l-23.566 9.426-4.484-23.234ZM19.004 317.445 0 295.207l32.145 3.73Zm0 0"/><path fill="#a9b2a2" d="m0 295.207 19.004 22.238L0 327.102ZM59.277 214.91l-8.234 16.016-6.09-16.504ZM59.277 214.91l15.664-12.738 1.239 27.508Zm0 0"/><path fill="#a9b2a2" d="m51.043 230.926 8.234-16.016 16.903 14.77ZM51.043 230.926l-19.258-6.04 13.168-10.464ZM79.09 151.55l28.734-1.343-11.332 30.063ZM107.824 150.207l10.32-21.727 15.376 16.676Zm0 0"/><path fill="#a9b2a2" d="m107.824 150.207-28.734 1.344 14.922-26.07ZM118.145 128.48l-10.32 21.727-13.813-24.727ZM74.941 202.172l24.352 10.5L76.18 229.68ZM99.293 212.672l4.937 30.816-28.05-13.808Zm0 0"/><path fill="#a9b2a2" d="m104.23 243.488-4.937-30.816 22.434 9.73ZM203.742 208.21l-20.941-16.155 17.254-7.848ZM107.824 150.207l18.38 20.242-29.712 9.82Zm0 0"/><path fill="#a9b2a2" d="m126.203 170.45-18.379-20.243 25.696-5.05ZM240.05 104.887l-3.687 29.304-18-13.062ZM171.477 157.012l20.308-6.696-5.058 20.891ZM191.785 150.316l15.875 15.692-20.933 5.199ZM191.785 150.316l21.914-7.254-6.039 22.946Zm0 0"/><path fill="#a9b2a2" d="m213.7 143.063-21.915 7.253 2.574-25.593ZM191.785 150.316l-20.308 6.696 4.957-18.086Zm0 0"/><path fill="#a9b2a2" d="m218.363 121.129-24.004 3.594 13.02-29.22Zm0 0"/><path fill="#a9b2a2" d="m218.363 121.129-4.664 21.933-19.34-18.34ZM218.363 121.129l18 13.062-22.664 8.871ZM133.52 145.156l8.085-27.367 15.293 22.754Zm0 0"/><path fill="#a9b2a2" d="m141.605 117.79 27.055 2.792-11.762 19.961ZM19.004 317.445l1.851 21.606L0 327.1ZM146.992 311.512l11.828-18.02 17.403 19.895ZM158.82 293.492l19.168-10.113-1.765 30.008Zm0 0"/><path fill="#a9b2a2" d="m177.988 283.379-19.168 10.113-5.218-24.722ZM265.918 192.223l16.687 5.187-10.074 13.723Zm0 0"/><path fill="#a9b2a2" d="m282.605 197.41 12.54 16.29-22.614-2.567ZM282.605 197.41l15.672-6.539-3.132 22.828Zm0 0"/><path fill="#a9b2a2" d="m298.277 190.871-15.672 6.54-.695-17.028ZM297.313 146.598l8.566-23.184 12.426 15.828Zm0 0"/><path fill="#a9b2a2" d="m318.305 139.242-.035 20.461-20.957-13.105ZM318.27 159.703l.035-20.46 19.953 7.44ZM325.066 245.336l-6.086-23.809 23.536 6.371ZM347.68 251.262l-22.614-5.926 17.45-17.438ZM325.066 245.336l22.614 5.926-15.668 17.867ZM318.98 221.527l-23.835-7.828 17.828-12.11ZM292.84 278.656l15.168-15.324 6.308 27.781Zm0 0"/><path fill="#a9b2a2" d="m314.316 291.113-6.308-27.781 24.004 5.797ZM308.008 263.332l17.058-17.996 6.946 23.793ZM295.145 213.7l6.097 25.136-22.851-7.168ZM301.242 238.836l-19.437 18.867-3.414-26.035ZM318.98 221.527l-17.738 17.309-6.097-25.137Zm0 0"/><path fill="#a9b2a2" d="m301.242 238.836 17.738-17.309 6.086 23.809ZM350.902 308.352l-9.52-17.004 22.208 3.086Zm0 0"/><path fill="#a9b2a2" d="m350.902 308.352 12.688-13.918 2.484 19.394ZM350.902 308.352l-19.21 4.472 9.69-21.476ZM335.785 384l21.926-28.46L384 384Zm0 0"/><path fill="#a9b2a2" d="M357.71 355.54 384 337.073V384Zm0 0"/><path fill="#a9b2a2" d="m384 337.074-26.29 18.465-7.01-25.09ZM357.71 355.54 335.786 384l1.477-34.047Zm0 0"/><path fill="#a9b2a2" d="m357.71 355.54-20.448-5.587 13.437-19.504ZM384 337.074l-33.3-6.625 15.374-16.62Zm0 0"/><path fill="#a9b2a2" d="m350.7 330.45-13.438 19.503-9.348-16.156ZM350.7 330.45l.202-22.098 15.172 5.476Zm0 0"/><path fill="#a9b2a2" d="M331.691 312.824 350.7 330.45l-22.785 3.348ZM350.902 308.352l-.203 22.097-19.008-17.625ZM332.012 269.129l9.37 22.219-27.066-.235ZM232.887 333.031l-27.219-8.34 21.492-18.957Zm0 0"/><path fill="#a9b2a2" d="m258.71 339.188-25.823-6.157 18.851-18.523Zm0 0"/><path fill="#a9b2a2" d="m232.887 333.031-5.727-27.297 24.578 8.774ZM121.563 75.484 99.66 77.992l9.684-16.012ZM99.66 77.992l21.903-2.508-7.641 26.43ZM239.8 50.727 217.856 33.23l18.793-10.394ZM192.332 30.918l25.523 2.312-10.94 26.98Zm0 0"/><path fill="#a9b2a2" d="m217.855 33.23 21.946 17.497-32.887 9.484ZM336.238 22.941 316.934 0h31.257Zm0 0"/><path fill="#a9b2a2" d="m316.934 0 19.304 22.941-21.386 5.891ZM271.395 101.793l-31.344 3.094 15.078-27.215ZM314.852 28.832l21.386-5.89-7.922 18.417Zm0 0"/><path fill="#a9b2a2" d="m311.727 49.598 3.125-20.766 13.464 12.527ZM262.227 27.578 249.137 0h32.058Zm0 0"/><path fill="#a9b2a2" d="m249.137 0 13.09 27.578-25.579-4.742ZM316.934 0 299.02 19.734 281.195 0Zm0 0"/><path fill="#a9b2a2" d="m285.137 25.836-3.551 14.172-19.36-12.43ZM248.621 287.43l3.117 27.078-24.578-8.774ZM248.621 287.43l-25.996-8.434 18.105-16.414Zm0 0"/><path fill="#a9b2a2" d="m248.621 287.43-21.46 18.304-4.536-26.738ZM243.293 226.113l9.66-18.078 7.961 15.973Zm0 0"/><path fill="#a9b2a2" d="m252.953 208.035-9.66 18.078-12.3-18.586ZM243.293 226.113l-22.004 3.547 9.703-22.133Zm0 0"/><path fill="#a9b2a2" d="m221.29 229.66-17.548-21.45 27.25-.683ZM194.48 239.258l24.532 14.656-20.035 14.809ZM163.887 240.395l30.593-1.137-16.62 21.129Zm0 0"/><path fill="#a9b2a2" d="m194.48 239.258 4.497 29.465-21.118-8.336ZM200.055 184.207l-13.328-13 20.933-5.2ZM220.238 185.836l-20.183-1.629 7.605-18.2ZM252.953 208.035l-8.742-20.648 21.707 4.836ZM261.754 168.371l-17.543 19.016-10.488-25.555ZM282.605 197.41l-16.687-5.187 15.992-11.84Zm0 0"/><path fill="#a9b2a2" d="m265.918 192.223-21.707-4.836 17.543-19.016ZM253.117 147.148l8.637 21.223-28.031-6.539ZM244.21 187.387l-23.972-1.551 13.485-24.004ZM179.828 78.477l.766-25.446 26.32 7.18Zm0 0"/><path fill="#a9b2a2" d="m179.828 78.477-18.703-18.665 19.469-6.78ZM207.379 95.504l-27.55-17.027 27.085-18.266ZM28.492 131.348l20.973 22.34-26.766 6.363ZM61.492 122.117l-12.027 31.57-20.973-22.34ZM49.465 153.688l12.027-31.57L79.09 151.55ZM49.465 153.688l29.625-2.137-13.84 25.898Zm0 0"/><path fill="#a9b2a2" d="m39.527 178.977 9.938-25.29L65.25 177.45ZM60.64 251.188l20.024 1.726-8.363 14.395Zm0 0"/><path fill="#a9b2a2" d="m50.328 276.672 10.313-25.485L72.3 267.31ZM60.64 251.188l-9.597-20.262 25.137-1.246Zm0 0"/><path fill="#a9b2a2" d="m80.664 252.914-20.023-1.726L76.18 229.68ZM75.676 287.547l23.937 6.574-18.242 17.246Zm0 0"/><path fill="#a9b2a2" d="m99.613 294.121 4.461 24.492-22.703-7.246ZM0 256.484l23.742 19.149L0 295.207ZM0 295.207l23.742-19.574 8.403 23.305ZM23.742 275.633l10.031-25.281 16.555 26.32ZM59.277 214.91l-7.109-16.715 22.773 3.977ZM176.14 215.422l-12.253 24.973-16.883-25.278ZM203.742 208.21l-27.601 7.212 6.66-23.367Zm0 0"/><path fill="#a9b2a2" d="m164.082 196.883 12.059 18.539-29.137-.305Zm0 0"/><path fill="#a9b2a2" d="m182.8 192.055-6.66 23.367-12.058-18.54ZM126.203 170.45l-3.367 27.417-26.344-17.597Zm0 0"/><path fill="#a9b2a2" d="m122.836 197.867 3.367-27.418 19.883 16.2ZM171.477 157.012l-14.579-16.469 19.536-1.617ZM194.36 124.723l-2.575 25.593-15.351-11.39ZM168.66 120.582l25.7 4.14-17.926 14.204ZM158.82 293.492l-17.691-2.789 12.473-21.933ZM317.36 182.375l21.488-10.18-2.082 28.27Zm0 0"/><path fill="#a9b2a2" d="m338.848 172.195 22.3 13.414-24.382 14.856Zm0 0"/><path fill="#a9b2a2" d="m338.848 172.195 22.164-13.539.136 26.953ZM283.352 125.797l22.527-2.383-8.567 23.184ZM308.008 263.332l-6.766-24.496 23.824 6.5Zm0 0"/><path fill="#a9b2a2" d="m301.242 238.836 6.766 24.496-26.203-5.629ZM281.805 257.703l26.203 5.629-15.168 15.324ZM314.316 291.113l27.067.235-9.692 21.476Zm0 0"/><path fill="#a9b2a2" d="m314.316 291.113 17.375 21.711-26.82 9.457ZM121.563 75.484l17.68 14.274-25.321 12.156ZM125.871 33.082l-.82 21.684-17.29-10.125ZM99.66 77.992l14.262 23.922-29.887-3.68ZM359 22.535l-22.762.406L348.191 0ZM336.238 22.941 359 22.535l-10.148 21.606ZM314.852 28.832l-3.125 20.766-14.418-13.086ZM285.137 25.836l-22.91 1.742L281.195 0Zm0 0"/><path fill="#a9b2a2" d="m299.02 19.734-13.883 6.102L281.195 0ZM299.02 19.734l15.832 9.098-17.543 7.68Zm0 0"/><path fill="#a9b2a2" d="m314.852 28.832-15.832-9.098L316.934 0ZM297.309 36.512l14.418 13.086-20.356 5.683Zm0 0"/><path fill="#a9b2a2" d="m281.586 40.008 15.723-3.496-5.938 18.77Zm0 0"/><path fill="#a9b2a2" d="m285.137 25.836 12.172 10.676-15.723 3.496ZM259.633 126.738l-6.516 20.41-16.754-12.957ZM272.934 146.082l-19.817 1.066 6.516-20.41ZM219.012 253.914l2.277-24.254 15.05 13.68ZM203.742 208.21l16.496-22.374 10.754 21.691Zm0 0"/><path fill="#a9b2a2" d="m200.055 184.207 20.183 1.629-16.496 22.375ZM220.238 185.836l23.973 1.55-13.219 20.141ZM265.918 192.223l-4.164-23.852 20.156 12.012ZM261.754 168.371l11.18-22.289 9.859 16.512Zm0 0"/><path fill="#a9b2a2" d="m281.91 180.383-20.156-12.012 21.039-5.777ZM121.563 75.484l19.585-8.097-1.906 22.37ZM139.242 89.758l1.906-22.371 14.98 11.238ZM141.148 67.387l19.977-7.574-4.996 18.812ZM144.078 46.086l-19.027 8.68.82-21.684Zm0 0"/><path fill="#a9b2a2" d="m125.05 54.766 19.028-8.68-2.93 21.3ZM144.078 46.086l17.047 13.727-19.977 7.574ZM92.32 269.984l-11.656-17.07 23.566-9.426Zm0 0"/><path fill="#a9b2a2" d="m80.664 252.914 11.656 17.07-20.02-2.675Zm0 0"/><path fill="#a9b2a2" d="m92.32 269.984-16.644 17.563-3.375-20.238ZM92.32 269.984l7.293 24.137-23.937-6.574ZM141.129 290.703l-17.77 12.66-2.195-30.265ZM33.773 250.352l-10.03 25.28L0 256.485ZM33.773 250.352l26.868.835-10.313 25.485ZM33.773 250.352l-1.988-25.465 19.258 6.039Zm0 0"/><path fill="#a9b2a2" d="m60.64 251.188-26.867-.836 17.27-19.426ZM16.492 233.973l17.281 16.379L0 256.484ZM52.168 198.195 65.25 177.45l9.691 24.723ZM65.25 177.45l31.242 2.82-21.55 21.902Zm0 0"/><path fill="#a9b2a2" d="m65.25 177.45-13.082 20.745-12.64-19.218ZM52.168 198.195l7.11 16.715-14.325-.488Zm0 0"/><path fill="#a9b2a2" d="m28.938 202.078 23.23-3.883-7.215 16.227Zm0 0"/><path fill="#a9b2a2" d="m39.527 178.977 12.641 19.218-23.23 3.883ZM150.168 162.914l6.73-22.371 14.579 16.469ZM150.168 162.914l21.309-5.902-4.555 20.726Zm0 0"/><path fill="#a9b2a2" d="m150.168 162.914 16.754 14.824-20.836 8.91Zm0 0"/><path fill="#a9b2a2" d="m156.898 140.543-6.73 22.371-16.648-17.758ZM141.129 290.703l17.691 2.79-11.828 18.019Zm0 0"/><path fill="#a9b2a2" d="m141.129 290.703 5.863 20.809-23.633-8.149ZM305.879 123.414l-22.527 2.383 9.972-16.84ZM125.05 54.766l-3.487 20.718-12.22-13.504Zm0 0"/><path fill="#a9b2a2" d="m125.05 54.766-15.706 7.214-1.582-17.34ZM285.137 25.836l13.883-6.102-1.711 16.778ZM176.14 215.422l18.34 23.836-30.593 1.137Zm0 0"/><path fill="#a9b2a2" d="m194.48 239.258-18.34-23.836 27.602-7.211ZM221.29 229.66l-26.81 9.598 9.262-31.047ZM194.48 239.258l26.81-9.598-2.278 24.254ZM261.754 168.371l-8.637-21.223 19.817-1.066ZM104.074 318.613l-4.46-24.492 23.745 9.242ZM0 226.512l16.492 7.46L0 256.485ZM0 199.844l15.707 18.433L0 226.512Zm0 0"/><path fill="#a9b2a2" d="M15.707 218.277 0 199.844l28.938 2.234ZM18.438 182.156 0 171.136l22.7-11.085ZM31.785 224.887l-2.847-22.809 16.015 12.344Zm0 0"/><path fill="#a9b2a2" d="m15.707 218.277 13.23-16.199 2.848 22.809ZM15.707 218.277l.785 15.696L0 226.512ZM33.773 250.352l-17.28-16.38 15.292-9.085Zm0 0"/><path fill="#a9b2a2" d="m16.492 233.973-.785-15.696 16.078 6.61ZM259.633 126.738l11.762-24.945 11.957 24.004Zm0 0"/><path fill="#a9b2a2" d="m240.05 104.887 31.345-3.094-11.762 24.945ZM283.352 125.797l-11.957-24.004 21.93 7.164ZM121.164 273.098l-28.844-3.114 11.91-26.496Zm0 0"/><path fill="#a9b2a2" d="m121.164 273.098-21.55 21.023-7.294-24.137Zm0 0"/><path fill="#a9b2a2" d="m99.613 294.121 21.551-21.023 2.195 30.265ZM18.438 182.156 0 199.844v-28.707ZM0 199.844l18.438-17.688 10.5 19.922ZM121.563 75.484l3.488-20.718 16.097 12.62Zm0 0"/></svg>