<svg xmlns="http://www.w3.org/2000/svg" width="512" height="512" viewBox="0 0 384 384"><path fill="#ffd080" d="m183.617 187.094-16.683 43.824-24.582-27.813Zm0 0"/><path fill="#fefafc" d="m124.059 363.676-20.16-2.938 24.011-13.437Zm0 0"/><path fill="#0285a2" d="m60.633 349.633-7.14 18.472-15.93-27.753Zm0 0"/><path fill="#0188a5" d="m230.117 265.05 21.188-15.187 17.48 28.414ZM88.86 36.895l19.21-9.247 3.672 28.883ZM105.918 59.281 88.859 36.895l22.883 19.636ZM228.32 286.695l1.797-21.644 38.668 13.226ZM230.117 265.05l-1.797 21.645-12.683-7.777Zm0 0"/><path fill="#fefcfe" d="M20.836 108.129-.016 108 0 84.89Zm0 0"/><path fill="#0188a5" d="M17.629 119.836-.016 108l20.852.129ZM44.172 76.809l-9.887-34.313 20.906 11.742ZM0 50.965l34.285-8.469 9.887 34.313Zm0 0"/><path fill="#0188a5" d="m34.285 42.496 46.688-22.008-25.782 33.75Zm0 0"/><path fill="#0187a4" d="M80.973 20.488 34.285 42.496 0 0Zm0 0"/><path fill="#ffd080" d="m129.59 237.734-28.426-30.582 41.188-4.047ZM166.934 230.918l-37.344 6.816 12.762-34.629Zm0 0"/><path fill="#fdebe6" d="m110.793 384 13.266-20.324 12.457 20.316Zm0 0"/><path fill="#fef7f8" d="m60.563 384.047-33.985-.078 26.914-15.864Zm0 0"/><path fill="#fefcfe" d="m103.898 360.738 9.938-27.25 14.074 13.813Zm0 0"/><path fill="#fefcfe" d="m113.836 333.488-9.938 27.25L85.11 339.86Zm0 0"/><path fill="#fdf8f8" d="m110.793 384-6.895-23.262 20.16 2.938Zm0 0"/><path fill="#0384a1" d="m60.633 349.633 2.156 14.355-9.297 4.117Zm0 0"/><path fill="#fefcfd" d="m62.79 363.988-2.157-14.355 24.476-9.774Zm0 0"/><path fill="#fef3f2" d="m330.727 299.719-8.497-17.317 29.32-5.27Zm0 0"/><path fill="#fecf80" d="m307.781 196.809 8.297-18.672 26.914 25.707Zm0 0"/><path fill="#0188a5" d="m63.316 73.469-19.144 3.34 11.02-22.57Zm0 0"/><path fill="#0188a4" d="M80.973 20.488 106.172 0l1.898 27.648Zm0 0"/><path fill="#0188a5" d="M88.86 36.895 63.315 73.469l-8.125-19.23ZM80.973 20.488l7.886 16.407-33.668 17.343Zm0 0"/><path fill="#0188a5" d="m88.86 36.895-7.887-16.407 27.097 7.16ZM173.676 0l-29.11 24.027L106.172 0ZM108.07 27.648l19.973 18.868-16.3 10.015Zm0 0"/><path fill="#0188a5" d="m144.566 24.027-16.523 22.489-19.973-18.868ZM202.43 39.91 173.676 0h67.543ZM142.402 108.18l10.606 15.578-15.567 12.484Zm0 0"/><path fill="#0188a5" d="m120.871 125.164 16.57 11.078-8.343 6.95ZM120.871 125.164l21.531-16.984-4.96 28.062Zm0 0"/><path fill="#098ba7" d="m356.758 24.66 3.984 23.942-31.277-9.645Zm0 0"/><path fill="#deedf2" d="m322.43 76.664 14.882 15.887-22.847-2.278Zm0 0"/><path fill="#0188a5" d="m333.324 113.7 3.988-21.15 18.43 31.204Zm0 0"/><path fill="#37a0b7" d="m292.129 91.785 13.992-17.742 8.344 16.23Zm0 0"/><path fill="#fcfbfd" d="m306.121 74.043-29.226-19.77 14.32-2.308Zm0 0"/><path fill="#0188a5" d="m279.867 285.895-4.133-27.45 23.098 25.45Zm0 0"/><path fill="#0188a4" d="m275.734 258.445 4.133 27.45-11.082-7.618Zm0 0"/><path fill="#0188a5" d="m384 138.613-35.234 33.332 6.976-48.191Zm0 0"/><path fill="#f9f3f3" d="m251.305 249.863 24.43 8.582-6.95 19.832Zm0 0"/><path fill="#ffd080" d="m222.195 209.133 33.828 2.789-19.793 18.09Zm0 0"/><path fill="#0188a5" d="m267.402 91.254-15.683 22.469-26.836-24.184ZM153.008 123.758l10.765-13.445 1.762 9.757ZM163.773 110.313l-10.765 13.445-10.606-15.578Zm0 0"/><path fill="#0188a5" d="m163.773 110.313 15.508 8.324-13.746 1.433Zm0 0"/><path fill="#0188a5" d="m163.773 110.313 17.145-5.215-1.637 13.539ZM178.777 85.563l46.106 3.976-43.965 15.559Zm0 0"/><path fill="#fefcfe" d="M251.977 69.773 224.883 89.54l2.023-19.351Zm0 0"/><path fill="#0389a5" d="m277.559 42.395-30.739.421 30.739-15.43Zm0 0"/><path fill="#0188a5" d="M0 132.77-.016 108l17.645 11.836ZM34.285 42.496 0 50.965V0Zm0 0"/><path fill="#fefcfe" d="m30.922 80.145-10.086 27.984L0 84.89Zm0 0"/><path fill="#0188a5" d="m0 50.965 30.922 29.18L0 84.89Zm0 0"/><path fill="#0288a5" d="M30.922 80.145 0 50.965l44.172 25.844Zm0 0"/><path fill="#0188a5" d="M80.973 20.488 0 0h106.172Zm0 0"/><path fill="#0186a3" d="M60.633 349.633 72.8 320.609l12.308 19.25Zm0 0"/><path fill="#0187a4" d="m72.8 320.61 41.036 12.878-28.727 6.371ZM36.203 289.05l.93-14.34 17.633-1.812Zm0 0"/><path fill="#feece8" d="m36.203 289.05-15.46-3.195 16.39-11.144Zm0 0"/><path fill="#ffd080" d="m133.094 267.195 21.84-8.867 3.207 26.777ZM154.934 258.328l-25.344-20.594 37.344-6.816ZM171.324 254.844l-16.39 3.484 12-27.41Zm0 0"/><path fill="#ffd080" d="m129.59 237.734 25.344 20.594-21.84 8.867ZM143.094 172.516l40.523 14.578-41.265 16.011Zm0 0"/><path fill="#0188a5" d="m224.883 89.54 1.304 25.534-45.269-9.976Zm0 0"/><path fill="#ffd080" d="m165.281 149.762-22.187 22.754 4.176-25.153ZM165.281 149.762l7.317-15.598 7.066 10.098ZM179.281 118.637l-6.683 15.527-7.063-14.094Zm0 0"/><path fill="#fef4f3" d="m-.027 383.906 26.605.063 33.985.078Zm0 0"/><path fill="#0187a4" d="m26.578 383.969 10.985-43.617 15.93 27.753Zm0 0"/><path fill="#0384a1" d="m37.563 340.352-37.59 43.554-.004-49.605Zm0 0"/><path fill="#0186a4" d="m-.027 383.906 37.59-43.554-10.985 43.617Zm0 0"/><path fill="#0188a5" d="m113.836 333.488 5.437-8.558 8.637 22.37Zm0 0"/><path fill="#fefbfd" d="m103.898 360.738-41.109 3.25 22.32-24.129Zm0 0"/><path fill="#fef9fa" d="m110.793 384-50.23.047 43.335-23.309ZM62.79 363.988l-2.227 20.059-7.07-15.942Zm0 0"/><path fill="#fef9fa" d="m60.563 384.047 2.226-20.059 41.11-3.25Zm0 0"/><path fill="#fefafa" d="m174.719 282.148 40.918-3.23-31.645 17.105Zm0 0"/><path fill="#0188a5" d="m371.176 276.234-11.086-21.898 23.902-10.805Zm0 0"/><path fill="#0288a5" d="m383.988 278.344-12.812-2.11 12.816-32.703Zm0 0"/><path fill="#fef5f5" d="m371.176 276.234 12.812 2.11-13.324 8.535Zm0 0"/><path fill="#0388a5" d="m371.176 276.234-19.625.899 8.539-22.797Zm0 0"/><path fill="#fdf5f4" d="m351.55 277.133 19.626-.899-.512 10.645Zm0 0"/><path fill="#fef9f9" d="m325.355 329.71-26.074-23.23 31.446-6.761Zm0 0"/><path fill="#0589a6" d="m300.375 185.61 5.617-39.829 10.086 32.356Zm0 0"/><path fill="#0489a5" d="m305.992 145.781 42.774 26.164-32.688 6.192Zm0 0"/><path fill="#fefcfd" d="m348.766 171.945-5.774 31.899-26.914-25.707Zm0 0"/><path fill="#fefafb" d="m275.734 258.445 17.137-2.367 5.961 27.817Zm0 0"/><path fill="#0188a5" d="m307.781 196.809 10.656 20.812-23.687-3.039Zm0 0"/><path fill="#0187a4" d="m318.438 217.621-24.57 15.973.882-19.012Zm0 0"/><path fill="#0188a4" d="M318.438 217.621 307.78 196.81l35.211 7.035Zm0 0"/><path fill="#feeeeb" d="M384.008 298.941v56.747l-29.567-46.57Zm0 0"/><path fill="#feebe7" d="m291.23 347.61-31.43 36.363-10.792-22.371Zm0 0"/><path fill="#fef0ed" d="m202.98 383.996 46.028-22.394 10.793 22.37Zm0 0"/><path fill="#fef5f4" d="m209.656 351.504 39.352 10.098-46.106 5.847Zm0 0"/><path fill="#fdf1f0" d="m165.344 363.352 37.636 20.644h-44.425Zm0 0"/><path fill="#fcf2f0" d="m202.98 383.996-37.636-20.644 37.558 4.097Zm0 0"/><path fill="#fdf0ed" d="m148.535 367.969 10.02 16.027-22.04-.004Zm0 0"/><path fill="#fdf6f6" d="m124.059 363.676 24.476 4.293-12.02 16.023Zm0 0"/><path fill="#fef5f4" d="m148.535 367.969 16.809-4.617-6.79 20.644Zm0 0"/><path fill="#0287a4" d="m165.344 363.352-16.809 4.617 8.973-18.524Zm0 0"/><path fill="#0188a4" d="m148.535 367.969-24.476-4.293 3.851-16.375ZM157.508 349.445l-8.973 18.524L127.91 347.3ZM215.637 278.918l-7.235 27.332-24.41-10.227Zm0 0"/><path fill="#0188a5" d="m228.32 286.695-19.918 19.555 7.235-27.332ZM106.172 0l38.394 24.027-36.496 3.621Zm0 0"/><path fill="#fefcfe" d="m95 82.902-30.184 2.871-1.5-12.304Zm0 0"/><path fill="#0188a5" d="M102.188 61.672 88.858 36.895l17.059 22.386Zm0 0"/><path fill="#0187a4" d="m111.309 70.172-9.121-8.5 3.73-2.39Zm0 0"/><path fill="#ffcf7f" d="m88.86 36.895 13.328 24.777-38.872 11.797Zm0 0"/><path fill="#fecf7f" d="M102.188 61.672 95 82.902 63.316 73.47Zm0 0"/><path fill="#fecf7f" d="m102.188 61.672 9.12 8.5L95 82.902Zm0 0"/><path fill="#0287a4" d="m111.742 56.531-.433 13.64-5.391-10.89Zm0 0"/><path fill="#0188a5" d="M144.566 24.027 173.676 0l-6.461 42.297Zm0 0"/><path fill="#0188a5" d="m154.23 44.86-9.664-20.833 22.649 18.27Zm0 0"/><path fill="#0188a4" d="m154.23 44.86-26.187 1.656 16.523-22.489Zm0 0"/><path fill="#0188a5" d="M384.016 36.344 356.758 24.66 384 0ZM337.313 92.55l46.699 3.173-28.27 28.03ZM337.313 92.55l-12.688 9.368-10.16-11.645ZM333.324 113.7l-8.699-11.782 12.688-9.367ZM264.957 121.906l-13.238-8.183 15.683-22.47Zm0 0"/><path fill="#fdfcfe" d="m307.996 49.969-1.875 24.074-14.906-22.078Zm0 0"/><path fill="#fbfbfd" d="m307.996 49.969 21.469-11.012-7.035 37.707Zm0 0"/><path fill="#0188a4" d="m217.008 337.023 14.879-28.597 7.234 23.449ZM231.887 308.426l-23.485-2.176 19.918-19.555Zm0 0"/><path fill="#0187a4" d="m208.402 306.25 23.485 2.176-14.88 28.597Zm0 0"/><path fill="#fefafb" d="m231.887 308.426 28.09 18.922-20.856 4.527Zm0 0"/><path fill="#0188a5" d="m384.012 95.723-.012 42.89-28.258-14.86ZM251.305 249.863l25.988-6.394-1.559 14.976ZM277.293 243.469l15.578 12.61-17.137 2.366ZM292.871 256.078l-15.578-12.61 16.574-9.874Zm0 0"/><path fill="#0188a5" d="m277.293 243.469-25.988 6.394-1.473-2.289Zm0 0"/><path fill="#fecf80" d="m230.117 265.05 19.715-17.476 1.473 2.29Zm0 0"/><path fill="#ffd080" d="m211.46 251.887 18.657 13.164-14.48 13.867Zm0 0"/><path fill="#0187a4" d="M293.867 233.594 272.06 219.57l22.691-4.988Zm0 0"/><path fill="#0188a5" d="m272.059 219.57 5.234 23.899-27.461 4.105Zm0 0"/><path fill="#0188a5" d="m277.293 243.469-5.234-23.899 21.808 14.024ZM272.059 219.57l7.562-16.757 15.129 11.769Zm0 0"/><path fill="#ffd080" d="m257.438 157.953-30.82 15.14 18.234-26.105Zm0 0"/><path fill="#0188a4" d="m264.957 121.906-10.95 6.906-2.288-15.09Zm0 0"/><path fill="#0188a5" d="m162.371 94.3 16.406-8.737 2.141 19.535Zm0 0"/><path fill="#0188a5" d="M163.773 110.313 162.371 94.3l18.547 10.797Zm0 0"/><path fill="#fefcfe" d="m276.77 70.957 15.359 20.828-24.727-.531Zm0 0"/><path fill="#fefcfe" d="m292.129 91.785-15.36-20.828 29.352 3.086Zm0 0"/><path fill="#0f8ea9" d="m306.121 74.043-29.351-3.086.125-16.684Zm0 0"/><path fill="#0188a5" d="m276.895 54.273-24.918 15.5-5.157-26.957Zm0 0"/><path fill="#0188a5" d="m276.77 70.957-24.793-1.184 24.918-15.5Zm0 0"/><path fill="#fefcfe" d="m251.977 69.773 15.425 21.48-42.52-1.714Zm0 0"/><path fill="#fefcfe" d="m251.977 69.773 24.793 1.184-9.368 20.297Zm0 0"/><path fill="#0188a5" d="m277.559 42.395-.664 11.878-30.075-11.457ZM277.559 42.395l13.656 9.57-14.32 2.308Zm0 0"/><path fill="#0187a4" d="m291.215 51.965-13.656-9.57 12.796-6.622ZM.004 156.543l30.086 16.27-30.098 4.015Zm0 0"/><path fill="#0188a5" d="m30.09 172.813-17.156 9.171-12.942-5.156Zm0 0"/><path fill="#0288a5" d="m31.18 141.168-1.09 31.644L.004 156.544Zm0 0"/><path fill="#0188a5" d="m68.863 122.355-30.539-11.55L61.508 96.69ZM38.324 110.805l-20.695 9.03 3.207-11.706Zm0 0"/><path fill="#fefcfe" d="m30.922 80.145 7.402 30.66-17.488-2.676ZM57.137 175.23l-27.047-2.417 35.332-17.555ZM48.508 86.8l16.308-1.027-3.308 10.918Zm0 0"/><path fill="#fefcff" d="m64.816 85.773-16.308 1.028 14.808-13.332Zm0 0"/><path fill="#fefcfe" d="M38.324 110.805 48.508 86.8l13 9.89Zm0 0"/><path fill="#fefcfe" d="m48.508 86.8-10.184 24.005-7.402-30.66ZM63.316 73.469 48.508 86.8l-4.336-9.992Zm0 0"/><path fill="#fffdff" d="m48.508 86.8-17.586-6.655 13.25-3.336Zm0 0"/><path fill="#0187a4" d="m57.113 329.355 3.52 20.278-23.07-9.281Zm0 0"/><path fill="#0187a4" d="m57.113 329.355 15.688-8.746-12.168 29.024Zm0 0"/><path fill="#fefafb" d="m41.438 308.922 15.675 20.433-19.55 10.997Zm0 0"/><path fill="#fdebe6" d="m36.203 289.05-13.66 17.774-1.8-20.969Zm0 0"/><path fill="#0187a4" d="m22.543 306.824 13.66-17.773 5.234 19.87Zm0 0"/><path fill="#fecf7f" d="m24.93 199.762-11.996-17.778 20.804 4.653Zm0 0"/><path fill="#fefcfe" d="m57.137 175.23 8.285-19.972 32.039 25.957Zm0 0"/><path fill="#0188a5" d="m101.164 207.152-26.953-.425 23.25-25.512Zm0 0"/><path fill="#0188a5" d="M74.21 206.727 57.138 175.23l40.324 5.985Zm0 0"/><path fill="#0187a4" d="m57.137 175.23 17.074 31.497-17.152-15.598Zm0 0"/><path fill="#ffd080" d="m154.934 258.328 19.023 12.125-15.816 14.652Zm0 0"/><path fill="#fecf7f" d="m173.957 270.453.762 11.695-16.578 2.957Zm0 0"/><path fill="#fecf7f" d="m187.45 253.52-13.493 16.933-2.633-15.61Zm0 0"/><path fill="#fecf7f" d="m173.957 270.453-19.023-12.125 16.39-3.484Zm0 0"/><path fill="#fecf80" d="m129.59 237.734-40.535-3.39 12.11-27.192Zm0 0"/><path fill="#0188a5" d="M89.055 234.344 74.21 206.727l26.953.425Zm0 0"/><path fill="#ffd080" d="m86.559 257.844 43.03-20.11 3.505 29.461ZM95.027 280.184l-8.468-22.34 46.535 9.351ZM197.602 229.992l-13.985-42.898 38.578 22.039Zm0 0"/><path fill="#ffcf7f" d="m183.617 187.094 13.985 42.898-30.668.926Zm0 0"/><path fill="#0188a5" d="m137.441 136.242-2.136 15.336-6.207-8.387ZM135.305 151.578l2.136-15.336 9.829 11.121Zm0 0"/><path fill="#0187a4" d="m143.094 172.516-7.79-20.938 11.966-4.215Zm0 0"/><path fill="#0188a5" d="m251.719 113.723-25.531 1.351-1.305-25.535ZM221.895 127.234l-42.614-8.597 1.637-13.54Zm0 0"/><path fill="#0188a5" d="m226.188 115.074-4.293 12.16-40.977-22.136Zm0 0"/><path fill="#0188a5" d="M221.895 127.234 211.44 146l-32.16-27.363ZM153.008 123.758l-5.738 23.605-9.829-11.12Zm0 0"/><path fill="#0188a4" d="m157.027 326.23.48 23.215-29.597-2.144ZM119.273 324.93l37.754 1.3-29.117 21.07Zm0 0"/><path fill="#ffd080" d="m166.934 230.918 20.515 22.602-16.125 1.324Zm0 0"/><path fill="#ffd080" d="m166.934 230.918 30.668-.926-10.153 23.528Zm0 0"/><path fill="#fdfafc" d="m359.105 228.39 24.899-40.05-.012 55.191Zm0 0"/><path fill="#0188a5" d="m360.09 254.336-.985-25.945 24.887 15.14Zm0 0"/><path fill="#fef6f6" d="m383.988 278.344.02 20.597-13.344-12.062Zm0 0"/><path fill="#fef7f7" d="m370.664 286.879 13.344 12.062-29.567 10.176Zm0 0"/><path fill="#0187a4" d="m307.781 196.809-7.406-11.2 15.703-7.472Zm0 0"/><path fill="#fef6f6" d="m354.441 309.117-2.89-31.984 19.113 9.746Zm0 0"/><path fill="#feeeeb" d="m319.395 383.988 5.96-54.277 58.653 25.976Zm0 0"/><path fill="#fef1ef" d="m354.441 309.117 29.567 46.57-58.653-25.976Zm0 0"/><path fill="#fdded5" d="M319.395 383.988 291.23 347.61l34.125-17.898Zm0 0"/><path fill="#fefbfd" d="m291.23 347.61 8.051-41.13 26.074 23.23Zm0 0"/><path fill="#feede9" d="m291.23 347.61 28.165 36.378-59.594-.015Zm0 0"/><path fill="#fdeeeb" d="m202.902 367.45 46.106-5.848-46.028 22.394Zm0 0"/><path fill="#fefbfd" d="m239.121 331.875-29.465 19.629 7.352-14.48Zm0 0"/><path fill="#fef9f9" d="m239.121 331.875 9.887 29.727-39.352-10.098Zm0 0"/><path fill="#fef9fa" d="m165.344 363.352 28.496-11.153 9.062 15.25Zm0 0"/><path fill="#0188a5" d="m209.656 351.504-15.816.695 23.168-15.176Zm0 0"/><path fill="#fdf8f8" d="m193.84 352.2 15.816-.696-6.754 15.945Zm0 0"/><path fill="#0188a5" d="m193.84 352.2-28.496 11.152-7.836-13.907ZM193.84 352.2l14.562-45.95 8.606 30.773Zm0 0"/><path fill="#0188a5" d="m157.027 326.23 36.813 25.97-36.332-2.755ZM208.402 306.25 193.84 352.2l-9.848-56.177ZM193.84 352.2l-36.813-25.97 26.965-30.207Zm0 0"/><path fill="#fefcfe" d="m94.46 93.152-29.644-7.379L95 82.903Zm0 0"/><path fill="#0188a5" d="m68.863 122.355 25.598-29.203 7.133 24.5ZM94.46 93.152l-25.597 29.203-7.355-25.664Zm0 0"/><path fill="#fefcfe" d="m64.816 85.773 29.645 7.38-32.953 3.538Zm0 0"/><path fill="#0288a5" d="m120.7 94.543 19.359-5.508 2.343 19.145Zm0 0"/><path fill="#0188a5" d="m120.7 94.543.171 30.621-19.277-7.512Zm0 0"/><path fill="#0188a5" d="m120.871 125.164-.172-30.621 21.703 13.637Zm0 0"/><path fill="#0f8eaa" d="m120.7 94.543-19.106 23.11-7.133-24.5Zm0 0"/><path fill="#fefcfe" d="m118.887 85.762 1.812 8.781-26.238-1.39ZM120.7 94.543l-1.813-8.781 21.172 3.273Zm0 0"/><path fill="#0188a5" d="m384.008 75.566-23.266-26.964 23.274-12.258Zm0 0"/><path fill="#058aa6" d="m360.742 48.602-3.984-23.942 27.258 11.684Zm0 0"/><path fill="#0188a5" d="m360.973 77.184-.23-28.582 23.265 26.964ZM360.742 48.602l.23 28.582-18.761-19.516Zm0 0"/><path fill="#fefcfe" d="m360.973 77.184 23.035-1.618.004 20.157ZM337.313 92.55l23.66-15.366 23.039 18.539Zm0 0"/><path fill="#fefcfe" d="m360.973 77.184-23.66 15.367-14.883-15.887Zm0 0"/><path fill="#0288a5" d="m360.973 77.184-38.543-.52 19.78-18.996Zm0 0"/><path fill="#ffd080" d="m277.027 134.781-9.91.258-2.16-13.133Zm0 0"/><path fill="#088ba7" d="m307.996 49.969 14.434 26.695-16.309-2.621Zm0 0"/><path fill="#fefcfe" d="m306.121 74.043 16.309 2.621-7.965 13.61Zm0 0"/><path fill="#64b5c7" d="m329.465 38.957-.367-16.394 27.66 2.097Zm0 0"/><path fill="#0288a5" d="m360.742 48.602-18.531 9.066-12.746-18.711Zm0 0"/><path fill="#fefcfe" d="m329.465 38.957 12.746 18.711-19.781 18.996Zm0 0"/><path fill="#fefafb" d="m299.281 306.48 22.95-24.078 8.496 17.317Zm0 0"/><path fill="#fef9f9" d="m299.281 306.48-19.414-20.585 18.965-2Zm0 0"/><path fill="#fefbfc" d="m322.23 282.402-22.949 24.078-.449-22.585Zm0 0"/><path fill="#fef9fa" d="m259.977 327.348 39.304-20.868-8.05 41.13Zm0 0"/><path fill="#fefafb" d="m259.977 327.348 19.89-41.453 19.414 20.585Zm0 0"/><path fill="#0188a5" d="m276.852 144.96.175-10.179 28.965 11Zm0 0"/><path fill="#0188a4" d="m277.027 134.781-.175 10.18-9.735-9.922ZM300.375 185.61l-7.805-13.65 13.422-26.179Zm0 0"/><path fill="#0188a4" d="m292.57 171.96 7.805 13.65-16.086-3.43Zm0 0"/><path fill="#fecf80" d="m257.438 157.953 9.68-22.914-.813 17.11Zm0 0"/><path fill="#ffd080" d="m267.117 135.04-13.11-6.227 10.95-6.907ZM249.832 247.574l-23.05-.91 5.03-8.746Zm0 0"/><path fill="#fecf7f" d="m217.77 236.168 9.011 10.496-15.32 5.223Zm0 0"/><path fill="#ffd080" d="m226.781 246.664 23.051.91-19.715 17.477Zm0 0"/><path fill="#ffd080" d="m211.46 251.887 15.321-5.223 3.336 18.387Zm0 0"/><path fill="#fecf7f" d="m215.637 278.918-41.68-8.465 13.492-16.933Zm0 0"/><path fill="#fecf7f" d="m173.957 270.453 41.68 8.465-40.918 3.23Zm0 0"/><path fill="#0188a5" d="m162.371 94.3 1.402 16.013-21.37-2.133Zm0 0"/><path fill="#0e8ea9" d="m140.059 89.035 22.312 5.266-19.969 13.879Zm0 0"/><path fill="#0188a5" d="M167.215 42.297 173.675 0l28.755 39.91ZM172.297 57.785l-5.082-15.488 35.215-2.387ZM174.559 66.578l-2.262-8.793L202.43 39.91Zm0 0"/><path fill="#0188a4" d="M241.219 0h48.289l-4.383 8.688Zm0 0"/><path fill="#0188a5" d="m241.219 0 43.906 8.688-7.566 18.699ZM31.18 141.168.004 156.543 0 132.77Zm0 0"/><path fill="#0188a5" d="m17.629 119.836 13.55 21.332L0 132.77Zm0 0"/><path fill="#fecf80" d="m12.934 181.984 17.156-9.172 3.648 13.825Zm0 0"/><path fill="#fef7f7" d="m57.113 329.355-.168-21.199 15.856 12.453Zm0 0"/><path fill="#fef4f4" d="m56.945 308.156.168 21.2-15.675-20.434Zm0 0"/><path fill="#0187a4" d="m56.945 308.156-20.742-19.105 18.563-16.153Zm0 0"/><path fill="#0187a4" d="m36.203 289.05 20.742 19.106-15.507.766Zm0 0"/><path fill="#0188a5" d="M86.559 257.844 74.8 267.883l-6.266-22.863Zm0 0"/><path fill="#fefcfe" d="m74.8 267.883 11.759-10.04 8.468 22.34Zm0 0"/><path fill="#fef7f7" d="m37.563 340.352-15.02-33.528 18.895 2.098Zm0 0"/><path fill="#fef5f5" d="m-.004 296.754 22.547 10.07-22.574 27.477Zm0 0"/><path fill="#0188a4" d="m47.05 235.543 27.16-28.816-5.675 38.293Zm0 0"/><path fill="#feebf0" d="m65.422 155.258 35.523-6.524-3.484 32.48Zm0 0"/><path fill="#0188a5" d="m100.945 148.734 19.926-23.57 8.227 18.027ZM100.945 148.734l-35.523 6.524 3.441-32.903ZM100.945 148.734l-32.082-26.379 32.73-4.703ZM120.871 125.164l-19.926 23.57.649-31.082ZM74.21 206.727l14.845 27.617-20.52 10.676ZM89.055 234.344l-2.496 23.5-18.024-12.824Zm0 0"/><path fill="#ffd080" d="m86.559 257.844 2.496-23.5 40.535 3.39Zm0 0"/><path fill="#0188a5" d="m135.305 151.578-19.957 11.594 13.75-19.98Zm0 0"/><path fill="#fee0e6" d="m100.945 148.734 14.403 14.438-17.887 18.043Zm0 0"/><path fill="#fefcfe" d="m115.348 163.172-14.403-14.438 28.153-5.543Zm0 0"/><path fill="#0188a4" d="m211.441 146 10.454-18.766 22.957 19.754Zm0 0"/><path fill="#ffd080" d="M226.617 173.094 211.441 146l33.41.988Zm0 0"/><path fill="#0188a4" d="m254.008 128.813-4.285-.504 1.996-14.586Zm0 0"/><path fill="#0188a5" d="m249.723 128.309-23.536-13.235 25.532-1.351Zm0 0"/><path fill="#0188a5" d="m226.188 115.074 23.535 13.235-27.828-1.075Zm0 0"/><path fill="#0188a5" d="m221.895 127.234 27.828 1.075-4.871 18.68Zm0 0"/><path fill="#ffd080" d="m183.617 187.094 43-14-4.422 36.039ZM179.664 144.262l23.996 8.781-20.043 34.05ZM203.66 153.043l22.957 20.05-43 14Zm0 0"/><path fill="#ffd080" d="m226.617 173.094-22.957-20.051 7.781-7.043ZM158.938 140.14l-5.93-16.382 12.527-3.688Zm0 0"/><path fill="#0188a4" d="m158.938 140.14-11.668 7.223 5.738-23.605Zm0 0"/><path fill="#ffd080" d="m147.27 147.363 11.667-7.222 6.344 9.62ZM172.598 134.164l-13.66 5.977 6.597-20.07Zm0 0"/><path fill="#ffd080" d="m158.938 140.14 13.66-5.976-7.317 15.598Zm0 0"/><path fill="#feeae6" d="m22.543 306.824 15.02 33.528L-.032 334.3Zm0 0"/><path fill="#0187a4" d="m72.8 320.61 46.473 4.32-5.437 8.558Zm0 0"/><path fill="#0188a5" d="m157.027 326.23 3.465-26.183 23.5-4.024Zm0 0"/><path fill="#fefcfe" d="m160.492 300.047 14.227-17.899 9.273 13.875Zm0 0"/><path fill="#fefcfe" d="m174.719 282.148-14.227 17.899-2.351-14.942Zm0 0"/><path fill="#0188a5" d="m384.004 188.34-35.238-16.395L384 138.613ZM279.621 202.813l14.024 2.652 1.105 9.117Zm0 0"/><path fill="#0188a5" d="m293.645 205.465 14.136-8.656-13.031 17.773Zm0 0"/><path fill="#ffd080" d="m293.645 205.465 6.73-19.856 7.406 11.2Zm0 0"/><path fill="#ffd080" d="m300.375 185.61-6.73 19.855-9.356-23.285Zm0 0"/><path fill="#0188a5" d="m311.75 110.758 12.875-8.84 8.7 11.781Zm0 0"/><path fill="#fefcfd" d="m323.852 134.367-12.102-23.61 21.574 2.942Zm0 0"/><path fill="#078aa7" d="m311.75 110.758 2.715-20.485 10.16 11.645Zm0 0"/><path fill="#0188a5" d="m323.852 134.367 24.914 37.578-42.774-26.164ZM323.852 134.367l9.472-20.668 22.418 10.055ZM348.766 171.945l-24.914-37.578 31.89-10.613Zm0 0"/><path fill="#0288a5" d="m330.633 255.332 28.472-26.941.985 25.945Zm0 0"/><path fill="#0489a5" d="m351.55 277.133-20.917-21.801 29.457-.996Zm0 0"/><path fill="#fef5f4" d="m330.633 255.332 20.918 21.8-29.32 5.27Zm0 0"/><path fill="#fef9fa" d="m359.105 228.39-40.668-10.769 24.555-13.777Zm0 0"/><path fill="#0689a5" d="m330.633 255.332-12.195-37.71 40.667 10.769Zm0 0"/><path fill="#0188a5" d="m318.438 217.621-9.883 26.473-14.688-10.5ZM308.555 244.094l-15.684 11.984.996-22.484Zm0 0"/><path fill="#0188a5" d="m308.555 244.094 9.882-26.473 12.196 37.711Zm0 0"/><path fill="#feeeeb" d="M384.008 355.688v28.316l-64.613-.016Zm0 0"/><path fill="#fef9f9" d="m330.727 299.719 20.824-22.586 2.89 31.984Zm0 0"/><path fill="#fef1ef" d="m239.121 331.875 20.856-4.527-10.97 34.254Zm0 0"/><path fill="#fef5f4" d="m259.977 327.348 31.253 20.261-42.222 13.993Zm0 0"/><path fill="#fd546f" d="m127.828 61.43-16.52 8.742.434-13.64Zm0 0"/><path fill="#0188a5" d="m241.219 0 5.601 42.816-44.39-2.906Zm0 0"/><path fill="#0188a5" d="m277.559 27.387-30.739 15.43L241.22 0Zm0 0"/><path fill="#0188a5" d="m202.43 39.91 44.39 2.906-19.914 27.371Zm0 0"/><path fill="#0188a4" d="m246.82 42.816 5.157 26.957-25.07.415Zm0 0"/><path fill="#0188a5" d="m289.887 105.328-12.86 29.453-12.07-12.875Zm0 0"/><path fill="#0389a5" d="m292.129 91.785-2.242 13.543-22.485-14.074Zm0 0"/><path fill="#0188a5" d="m289.887 105.328-24.93 16.578 2.445-30.652Zm0 0"/><path fill="#0388a5" d="M296.547 10.219 289.507 0l18.06-.008Zm0 0"/><path fill="#0188a5" d="m289.508 0 7.039 10.219-11.422-1.531Zm0 0"/><path fill="#fef9fa" d="m259.977 327.348-28.09-18.922 47.98-22.531Zm0 0"/><path fill="#0188a4" d="m279.867 285.895-47.98 22.53 36.898-30.148Zm0 0"/><path fill="#0187a4" d="m231.887 308.426-3.567-21.73 40.465-8.419Zm0 0"/><path fill="#ffd080" d="m272.059 219.57-22.227 28.004 6.191-35.652Zm0 0"/><path fill="#ffd080" d="m256.023 211.922-6.191 35.652-13.602-17.562Zm0 0"/><path fill="#ffcf7f" d="m249.832 247.574-18.02-9.656 4.418-7.906Zm0 0"/><path fill="#ffd080" d="m231.813 237.918-4.247-5.313 8.664-2.593ZM227.566 232.605l-5.37-23.472 14.034 20.879Zm0 0"/><path fill="#fecf7f" d="m197.602 229.992 13.859 21.895-24.012 1.633Zm0 0"/><path fill="#ffd080" d="m211.46 251.887 4.177 27.031-28.188-25.398Zm0 0"/><path fill="#fccf80" d="m256.023 211.922 23.598-9.11-7.562 16.758Zm0 0"/><path fill="#ffcf80" d="m279.621 202.813-23.598 9.109-2.101-20.133Zm0 0"/><path fill="#ffd080" d="M293.645 205.465 278.96 186.3l5.328-4.121Zm0 0"/><path fill="#ffd080" d="m278.96 186.3 14.685 19.165-14.024-2.653Zm0 0"/><path fill="#ffd080" d="m278.96 186.3.661 16.512-25.7-11.023Zm0 0"/><path fill="#fecf80" d="m281.813 162.5-24.375-4.547 8.867-5.805Zm0 0"/><path fill="#ffd080" d="m226.617 173.094 30.82-15.14-3.515 33.835Zm0 0"/><path fill="#ffd080" d="m253.922 191.79-31.727 17.343 4.422-36.04Zm0 0"/><path fill="#fc546f" d="m172.297 57.785 2.262 8.793-12.188-6.191Zm0 0"/><path fill="#0188a4" d="m156.008 53.7-1.778-8.84 12.985-2.563Zm0 0"/><path fill="#0188a5" d="m201.824 67.078.606-27.168 24.476 30.278ZM201.824 67.078l-27.265-.5 27.87-26.668Zm0 0"/><path fill="#fefcfe" d="m224.883 89.54-23.059-22.462 25.082 3.11Zm0 0"/><path fill="#fefcfe" d="m178.777 85.563 23.047-18.485 23.059 22.461Zm0 0"/><path fill="#fefcfe" d="m174.559 66.578 27.265.5-23.047 18.484Zm0 0"/><path fill="#0188a5" d="m38.324 110.805-7.144 30.363-13.551-21.332ZM31.18 141.168l7.144-30.363 30.54 11.55Zm0 0"/><path fill="#0188a5" d="m31.18 141.168 37.683-18.813-3.441 32.903Zm0 0"/><path fill="#0288a5" d="m30.09 172.813 1.09-31.645 34.242 14.09Zm0 0"/><path fill="#0187a4" d="m39.898 181.246 17.16 9.883-23.32-4.492Zm0 0"/><path fill="#0188a5" d="m30.09 172.813 9.808 8.433-6.16 5.39Zm0 0"/><path fill="#0288a5" d="m57.059 191.129-17.16-9.883 17.238-6.016Zm0 0"/><path fill="#0188a5" d="m39.898 181.246-9.808-8.434 27.047 2.418ZM54.766 272.898l-7.715-37.355 21.484 9.477Zm0 0"/><path fill="#0188a4" d="m74.8 267.883-20.034 5.015 13.77-27.878Zm0 0"/><path fill="#0187a4" d="m56.945 308.156 22.778-1.86L72.8 320.61ZM79.723 306.297l39.55 18.633-46.472-4.32Zm0 0"/><path fill="#feebe7" d="m22.543 306.824-22.547-10.07 20.746-10.899Zm0 0"/><path fill="#fefcfe" d="m20.742 285.855-1.097-21.511 17.488 10.367Zm0 0"/><path fill="#0288a5" d="m47.05 235.543 2.114-27.484 25.047-1.332Zm0 0"/><path fill="#0187a4" d="m125.668 183.082 9.637-31.504 7.789 20.938Zm0 0"/><path fill="#0187a4" d="m125.668 183.082-10.32-19.91 19.957-11.594ZM115.348 163.172l10.32 19.91-28.207-1.867Zm0 0"/><path fill="#0188a5" d="m125.668 183.082-24.504 24.07-3.703-25.937Zm0 0"/><path fill="#ffd080" d="m101.164 207.152 24.504-24.07 16.684 20.023Zm0 0"/><path fill="#ffd080" d="m125.668 183.082 17.426-10.566-.742 30.59ZM249.723 128.309l4.285.504-9.156 18.175Zm0 0"/><path fill="#ffd080" d="m254.008 128.813 3.43 29.14-12.586-10.965Zm0 0"/><path fill="#ffd080" d="m254.008 128.813 13.11 6.226-9.68 22.914Zm0 0"/><path fill="#fecf80" d="m183.758 131.469 19.902 21.574-23.996-8.781Zm0 0"/><path fill="#fecf80" d="m203.66 153.043-19.902-21.574L211.44 146Zm0 0"/><path fill="#ffd080" d="m172.598 134.164 11.16-2.695-4.094 12.793Zm0 0"/><path fill="#0188a5" d="m211.441 146-27.683-14.531-4.477-12.832Zm0 0"/><path fill="#ffd080" d="m183.758 131.469-11.16 2.695 6.683-15.527Zm0 0"/><path fill="#fecf7f" d="m147.379 288.559-14.285-21.364 25.047 17.91Zm0 0"/><path fill="#ffd080" d="m147.379 288.559-19.738-.395 5.453-20.969Zm0 0"/><path fill="#fefcfe" d="m160.492 300.047-13.113-11.488 10.762-3.454Zm0 0"/><path fill="#fefafb" d="m342.992 203.844 5.774-31.899 35.238 16.395Zm0 0"/><path fill="#fef8f9" d="m342.992 203.844 41.012-15.504-24.899 40.05Zm0 0"/><path fill="#0689a5" d="m305.992 145.781 5.758-35.023 12.102 23.61Zm0 0"/><path fill="#fefbfc" d="m322.23 282.402-12.316-25.976 20.719-1.094Zm0 0"/><path fill="#0188a5" d="m309.914 256.426-1.36-12.332 22.079 11.238Zm0 0"/><path fill="#0188a5" d="m308.555 244.094 1.36 12.332-17.044-.348Zm0 0"/><path fill="#fefbfd" d="m292.871 256.078 17.043.348-11.082 27.469Zm0 0"/><path fill="#fefcfd" d="m309.914 256.426 12.316 25.976-23.398 1.493Zm0 0"/><path fill="#fef6f5" d="m325.355 329.71 5.372-29.991 23.714 9.398Zm0 0"/><path fill="#fefcfe" d="m118.887 85.762-7.578-15.59L126 76.754Zm0 0"/><path fill="#0188a4" d="m128.043 46.516 1.477 5.32-17.778 4.695Zm0 0"/><path fill="#ffcf80" d="m154.23 44.86-24.71 6.976-1.477-5.32Zm0 0"/><path fill="#fecf7f" d="m156.008 53.7-26.488-1.864 24.71-6.977Zm0 0"/><path fill="#fefcfe" d="m95 82.902 23.887 2.86-24.426 7.39Zm0 0"/><path fill="#fefcfe" d="m95 82.902 16.309-12.73 7.578 15.59Zm0 0"/><path fill="#0188a5" d="M356.758 24.66 336.016 0H384Zm0 0"/><path fill="#0589a5" d="m336.016 0 20.742 24.66-27.66-2.097Zm0 0"/><path fill="#309db5" d="m329.098 22.563.367 16.394-15.559-5.492Zm0 0"/><path fill="#2196b0" d="m313.945 12.125-17.398-1.906 11.02-10.227Zm0 0"/><path fill="#45a3b7" d="m285.125 8.688 5.23 27.085-12.796-8.386Zm0 0"/><path fill="#c1dfe8" d="m290.355 35.773-12.796 6.622V27.387Zm0 0"/><path fill="#47a6bb" d="m313.945 12.125 15.153 10.438-15.192 10.902Zm0 0"/><path fill="#0188a4" d="M313.945 12.125 307.566-.008l28.45.008Zm0 0"/><path fill="#0188a4" d="m329.098 22.563-15.153-10.438L336.015 0Zm0 0"/><path fill="#5dafc3" d="m307.996 49.969-17.64-14.196 23.55-2.308Zm0 0"/><path fill="#70bacb" d="m329.465 38.957-21.469 11.012 5.91-16.504Zm0 0"/><path fill="#0187a4" d="m290.355 35.773 17.641 14.196-16.781 1.996Zm0 0"/><path fill="#0188a4" d="m267.117 135.04 9.735 9.92-10.547 7.188Zm0 0"/><path fill="#fecf7f" d="m226.781 246.664-.176-8.773 5.208.027Zm0 0"/><path fill="#fecf7f" d="m226.605 237.89.176 8.774-9.011-10.496Zm0 0"/><path fill="#ffcf7f" d="m226.605 237.89.961-5.285 4.246 5.313Zm0 0"/><path fill="#ffd080" d="m222.195 209.133 31.727-17.344 2.101 20.133Zm0 0"/><path fill="#0188a5" d="m281.813 162.5-4.961-17.54 29.14.821Zm0 0"/><path fill="#0188a4" d="m292.57 171.96-10.757-9.46 24.18-16.719Zm0 0"/><path fill="#fd546f" d="m161.223 78.723-18.426-3.274 19.574-15.062Zm0 0"/><path fill="#f5f8fb" d="m140.059 89.035 21.164-10.312L162.37 94.3Zm0 0"/><path fill="#fefcfe" d="m140.059 89.035-21.172-3.273L126 76.754Zm0 0"/><path fill="#fffdff" d="m142.797 75.45-2.738 13.585L126 76.754Zm0 0"/><path fill="#fefcfe" d="m140.059 89.035 2.738-13.586 18.426 3.274Zm0 0"/><path fill="#fd546f" d="m174.559 66.578-13.336 12.145 1.148-18.336Zm0 0"/><path fill="#77becf" d="m162.371 94.3-1.148-15.577 17.554 6.84Zm0 0"/><path fill="#fefcfe" d="m161.223 78.723 13.336-12.145 4.218 18.984Zm0 0"/><path fill="#0188a4" d="m162.371 60.387-6.363-6.688 11.207-11.402Zm0 0"/><path fill="#0188a5" d="m172.297 57.785-9.926 2.602 4.844-18.09Zm0 0"/><path fill="#fefcfe" d="M77.477 284.457 74.8 267.883l20.226 12.3Zm0 0"/><path fill="#0188a5" d="m74.8 267.883 2.677 16.574-22.711-11.559Zm0 0"/><path fill="#0187a4" d="m77.477 284.457-20.532 23.7-2.18-35.259Zm0 0"/><path fill="#0187a4" d="m77.477 284.457 2.246 21.84-22.778 1.86Zm0 0"/><path fill="#fefcfe" d="m95.027 280.184 32.614 7.98-8.852 14.5Zm0 0"/><path fill="#fecf7f" d="m127.64 288.164-32.613-7.98 38.067-12.989Zm0 0"/><path fill="#fefbfc" d="M-.004 296.754v-32.348l20.746 21.45Zm0 0"/><path fill="#fefcfe" d="m-.004 264.406 19.649-.062 1.097 21.511Zm0 0"/><path fill="#0187a4" d="m30.52 251.969 24.246 20.93-17.633 1.812Zm0 0"/><path fill="#0188a5" d="m19.645 264.344 10.875-12.375 6.613 22.742ZM54.766 272.898l-24.246-20.93 16.53-16.425Zm0 0"/><path fill="#0188a4" d="m74.21 206.727-25.046 1.332 7.895-16.93Zm0 0"/><path fill="#0187a4" d="m49.164 208.059-2.113 27.484-20.774-16.336Zm0 0"/><path fill="#fb536e" d="m24.93 199.762 24.234 8.297-22.887 11.148Zm0 0"/><path fill="#fe586f" d="m49.164 208.059-24.234-8.297 8.808-13.125Zm0 0"/><path fill="#fd546f" d="m57.059 191.129-7.895 16.93-15.426-21.422Zm0 0"/><path fill="#ffd080" d="m165.281 149.762 18.336 37.332-40.523-14.578Zm0 0"/><path fill="#ffd080" d="m179.664 144.262 3.953 42.832-18.336-37.332Zm0 0"/><path fill="#0188a5" d="m140.371 304.547 20.121-4.5-3.465 26.183Zm0 0"/><path fill="#fefcfe" d="m140.371 304.547 7.008-15.988 13.113 11.488Zm0 0"/><path fill="#0188a5" d="m118.79 302.664 21.581 1.883-21.098 20.383Zm0 0"/><path fill="#0188a4" d="m140.371 304.547 16.656 21.683-37.754-1.3Zm0 0"/><path fill="#fefcfe" d="m127.64 288.164 12.731 16.383-21.582-1.883Zm0 0"/><path fill="#fefcfe" d="m147.379 288.559-7.008 15.988-12.73-16.383ZM311.75 110.758l-21.863-5.43 24.578-15.055Zm0 0"/><path fill="#0288a4" d="m305.992 145.781-16.105-40.453 21.863 5.43Zm0 0"/><path fill="#0188a5" d="m129.52 51.836-1.692 9.594-16.086-4.899Zm0 0"/><path fill="#fcfafc" d="m296.547 10.219 17.398 1.906-23.59 23.648Zm0 0"/><path fill="#fefcfe" d="m290.355 35.773 23.59-23.648-.039 21.34Zm0 0"/><path fill="#fdfbfd" d="m285.125 8.688 11.422 1.53-6.192 25.555Zm0 0"/><path fill="#ffd080" d="m211.46 251.887-13.858-21.895 20.168 6.176Zm0 0"/><path fill="#ffcf80" d="m226.605 237.89-8.835-1.722 9.796-3.563Zm0 0"/><path fill="#ffd080" d="m217.77 236.168 4.425-27.035 5.371 23.472ZM217.77 236.168l-20.168-6.176 24.593-20.86Zm0 0"/><path fill="#0187a4" d="m284.29 182.18-2.478-19.68 10.758 9.46Zm0 0"/><path fill="#0188a4" d="m276.852 144.96 4.96 17.54-15.507-10.352Zm0 0"/><path fill="#0187a4" d="m77.477 284.457 15.566 11.246-13.32 10.594ZM79.723 306.297l13.32-10.594 26.23 29.227Zm0 0"/><path fill="#0188a5" d="m119.273 324.93-26.23-29.227 25.746 6.961Zm0 0"/><path fill="#fefcfe" d="m93.043 295.703 1.984-15.52 23.762 22.481Zm0 0"/><path fill="#0188a5" d="m.004 244.98 19.64 19.364-19.648.062Zm0 0"/><path fill="#0188a4" d="m-.004 213.863 21.32 17.871L.004 244.98Zm0 0"/><path fill="#0187a4" d="m21.316 231.734-21.32-17.87 26.281 5.343Zm0 0"/><path fill="#fecf7f" d="M12.934 181.984-.004 200.477l-.004-23.649Zm0 0"/><path fill="#0188a4" d="m21.316 231.734 4.961-12.527 20.774 16.336Zm0 0"/><path fill="#0188a5" d="m.004 244.98 30.516 6.989-10.875 12.375Zm0 0"/><path fill="#0188a5" d="m21.316 231.734 9.204 20.235L.004 244.98Zm0 0"/><path fill="#0288a5" d="m30.52 251.969-9.204-20.235 25.735 3.809Zm0 0"/><path fill="#0188a5" d="m277.027 134.781 12.86-29.453 16.105 40.453Zm0 0"/><path fill="#e6f1f6" d="m289.887 105.328 2.242-13.543 22.336-1.512Zm0 0"/><path fill="#fd546f" d="m111.309 70.172 16.52-8.742L126 76.754Zm0 0"/><path fill="#ffd080" d="m284.29 182.18-26.853-24.227 24.375 4.547Zm0 0"/><path fill="#ffd080" d="m257.438 157.953 21.523 28.348-25.04 5.488ZM257.438 157.953l26.851 24.227-5.328 4.12Zm0 0"/><path fill="#fefcfe" d="m95.027 280.184-1.984 15.52-15.566-11.247Zm0 0"/><path fill="#fd546f" d="M24.93 199.762-.004 213.863v-13.386Zm0 0"/><path fill="#fecf7f" d="m12.934 181.984 11.996 17.778-24.934.715Zm0 0"/><path fill="#fd546f" d="m-.004 213.863 24.934-14.101 1.347 19.445ZM127.828 61.43l14.969 14.02L126 76.753Zm0 0"/><path fill="#fecf7f" d="m127.828 61.43 28.18-7.73 6.363 6.687Zm0 0"/><path fill="#fe546f" d="m142.797 75.45-14.969-14.02 34.543-1.043Zm0 0"/><path fill="#ffd080" d="m127.828 61.43 1.692-9.594 26.488 1.863Zm0 0"/></svg>