<svg xmlns="http://www.w3.org/2000/svg" width="512" height="512" viewBox="0 0 384 384"><path fill="#9eb480" d="m.004 210.375.008-30.64 14.902 3.48Zm0 0"/><path fill="#f6c5b4" d="m122.805 362.379-19.75-3.39 24.113-10.36Zm0 0"/><path fill="#9eb481" d="m58.445 349.969-7.351 18.719-22.774-21.25Zm0 0"/><path fill="#f7c6b5" d="m92.43 38.305 11.742-17.848 8.414 21.898Zm0 0"/><path fill="#f6c5b4" d="M104.172 20.457 92.43 38.305l-10.735-9.528ZM98.102 51.363 92.43 38.305l20.156 4.05ZM221.918 35.8 245.188 0l30.773 37.41Zm0 0"/><path fill="#f7c6b5" d="m182.836 133.82-6.645-16.015 31.95-8.184Zm0 0"/><path fill="#9eb481" d="m213.547 305.184 3.648-28.446 21.727-3.308Zm0 0"/><path fill="#9eb481" d="m213.547 305.184-14.238-16.707 17.886-11.739Zm0 0"/><path fill="#f7c6b5" d="m176.191 117.805 2.618-16.996 29.332 8.812ZM22.977 150.137 0 110.77l48.996 10.394ZM77.316 0l-31.05 38.441L0 0Zm0 0"/><path fill="#f7c6b5" d="M46.266 38.441 0 56.004V0Zm0 0"/><path fill="#dd7b52" d="m130.875 209.715-14.027-15.88 24.285-7.417ZM130.875 209.715l23.332-5.723 3.102 16.985Zm0 0"/><path fill="#dd7b52" d="m154.207 203.992-23.332 5.723 10.258-23.297Zm0 0"/><path fill="#f7c6b5" d="m64.363 384.105-41.695-.316 28.426-15.101ZM103.055 358.988l10.87-25.554 13.243 15.195Zm0 0"/><path fill="#f7c6b5" d="m113.926 333.434-10.871 25.554-16.594-19.105ZM119.926 384l-16.871-25.012 19.75 3.39Zm0 0"/><path fill="#9eb481" d="m58.445 349.969 5.239 13.582-12.59 5.137Zm0 0"/><path fill="#f6c5b5" d="m63.684 363.55-5.239-13.581 28.016-10.086Zm0 0"/><path fill="#9eb481" d="m350.25 218.238-8.86 24.176-16.644-16.496Zm0 0"/><path fill="#f6c5b4" d="m341.39 242.414 8.86-24.176 14.313 21.5Zm0 0"/><path fill="#9eb481" d="m321.594 298.336-.07-35.172 37.609 14.094ZM306.074 212.598l15.45-9.418 3.222 22.738Zm0 0"/><path fill="#f6c5b4" d="m77.316 0 26.856 20.457-22.477 8.32Zm0 0"/><path fill="#f7c6b5" d="m58.54 71.89-27.372 4.266 15.098-37.715Zm0 0"/><path fill="#f7c6b5" d="M73.383 59.074 58.539 71.891 46.266 38.44Zm0 0"/><path fill="#f6c6b4" d="m86.621 81.734 14.524-4.996 8.835 17.778Zm0 0"/><path fill="#f6c5b4" d="m79.96 43.676 1.735-14.899 10.735 9.528ZM79.96 43.676l-6.577 15.398-27.117-20.633Zm0 0"/><path fill="#f7c6b5" d="m81.695 28.777-1.734 14.899-33.695-5.235Zm0 0"/><path fill="#9c3900" d="M98.102 51.363 79.96 43.676l12.469-5.371Zm0 0"/><path fill="#f7c6b5" d="m245.188 0-23.27 35.8L162.058 0Zm0 0"/><path fill="#f6c5b5" d="m104.172 20.457 25.277 11.145-16.863 10.753Zm0 0"/><path fill="#f6c5b4" d="m162.059 0-32.61 31.602-25.277-11.145Zm0 0"/><path fill="#f7c6b5" d="m139.957 99.078 10.941 24.067-30.652 3.093Zm0 0"/><path fill="#f6c5b4" d="m348.191 69.32 1.297 31.028-35.27-16.391Zm0 0"/><path fill="#f2c5b2" d="m279.625 67.195-3.82-10.855 21.332-2.805Zm0 0"/><path fill="#9eb481" d="m257.156 262.3-1.793 20.84-16.441-9.71ZM277.23 283.32l-21.867-.18 1.793-20.84ZM255.363 283.14l21.867.18-13.37 12.918Zm0 0"/><path fill="#9db380" d="m257.156 262.3-4.23-21.452 19.847 13.125Zm0 0"/><path fill="#9eb481" d="m277.23 283.32-20.074-21.02 15.617-8.327Zm0 0"/><path fill="#f6c5b4" d="m150.898 123.145 11.59-14.31 1.137 13.677Zm0 0"/><path fill="#f7c6b5" d="m162.488 108.836-11.59 14.309-10.941-24.067Zm0 0"/><path fill="#f6c5b4" d="m162.488 108.836 13.703 8.969-12.566 4.707Zm0 0"/><path fill="#f7c6b5" d="m162.488 108.836 16.32-8.027-2.617 16.996ZM208.14 109.621l31.844-39.11 7.286 37.505Zm0 0"/><path fill="#f7c6b5" d="m239.984 70.512-31.843 39.11-11.176-37.942ZM275.805 56.34l-35.82 14.172L275.96 37.41Zm0 0"/><path fill="#f6c5b4" d="m87.3 147.559-39.945 19.398 1.641-45.793Zm0 0"/><path fill="#f7c6b5" d="M0 155.363V110.77l22.977 39.367ZM0 56.004 46.266 38.44 31.168 76.156ZM31.168 76.156l17.828 45.008L0 110.77ZM77.316 0l4.38 28.777-35.43 9.664Zm0 0"/><path fill="#9eb481" d="m58.445 349.969 19.13-33.82 8.886 23.734Zm0 0"/><path fill="#9eb481" d="m77.574 316.148 36.352 17.286-27.465 6.449Zm0 0"/><path fill="#9eb381" d="m24.754 306.352 15.008-28.106 17.164 4.258Zm0 0"/><path fill="#f6c5b5" d="m24.754 306.352 8.887-27.227 6.12-.879Zm0 0"/><path fill="#f6c5b4" d="m81.129 179.277-25.695 12.961-8.079-25.281Zm0 0"/><path fill="#9eb481" d="m55.434 192.238 25.695-12.96-19.684 22.85Zm0 0"/><path fill="#dd7b52" d="m120.535 241.23 10.34-31.515 26.434 11.262Zm0 0"/><path fill="#dd7a51" d="m157.14 244.867-36.605-3.637 36.774-20.253Zm0 0"/><path fill="#9c3900" d="m132.219 266.457-11.684-25.227 36.606 3.637Zm0 0"/><path fill="#9c3900" d="m105.176 256.684 15.36-15.454 11.683 25.227Zm0 0"/><path fill="#dd7b52" d="M130.875 209.715 90.578 234.28l26.27-40.445Zm0 0"/><path fill="#9c3900" d="m90.578 234.281 29.957 6.95-15.36 15.453Zm0 0"/><path fill="#dd7b52" d="m120.535 241.23-29.957-6.949 40.297-24.566Zm0 0"/><path fill="#dd7b51" d="m173.031 202.535-15.722 18.442-3.102-16.985Zm0 0"/><path fill="#9c3900" d="m173.031 202.535-13.738-7.14 17.535-2.02Zm0 0"/><path fill="#dd7b52" d="m141.133 186.418 18.16 8.977-5.086 8.597Zm0 0"/><path fill="#dd7a51" d="m159.293 195.395 13.738 7.14-18.824 1.457Zm0 0"/><path fill="#dd7b52" d="m131.824 179.207 11.004-6.742-1.695 13.953ZM150.172 161.367l-7.344 11.098 1.77-11.844Zm0 0"/><path fill="#9c3900" d="m171.617 135.148 4.574-17.343 6.645 16.015ZM165.184 150.121l6.433-14.973 11.121 13.391Zm0 0"/><path fill="#b6b78d" d="m176.191 117.805-4.574 17.343-7.992-12.636Zm0 0"/><path fill="#f7c6b5" d="m168.828 360.023 34.817-5.714L197.113 384ZM.008 372.656l22.66 11.133-22.633-.172Zm0 0"/><path fill="#f7c6b5" d="m.035 383.617 22.633.172 41.695.316Zm0 0"/><path fill="#9eb481" d="m22.668 383.79 5.652-36.353 22.774 21.25Zm0 0"/><path fill="#9eb481" d="M28.32 347.438.008 372.656 0 334.332Zm0 0"/><path fill="#9eb481" d="m.008 372.656 28.312-25.219-5.652 36.352Zm0 0"/><path fill="#f7c6b5" d="m103.055 358.988-39.371 4.563 22.777-23.668ZM119.926 384l-55.563.105 38.692-25.117Zm0 0"/><path fill="#f7c6b5" d="m63.684 363.55.68 20.555-13.27-15.418Zm0 0"/><path fill="#f7c6b5" d="m64.363 384.105-.68-20.554 39.372-4.563Zm0 0"/><path fill="#9eb481" d="m179.863 287.61 19.446.867-11.254 20.59Zm0 0"/><path fill="#f6c5b5" d="m359.133 277.258 5.43-37.52L384 251.875Zm0 0"/><path fill="#9eb481" d="m321.523 203.18 17.641 2.328-14.418 20.41Zm0 0"/><path fill="#9eb481" d="m339.164 205.508 11.086 12.73-25.504 7.68Zm0 0"/><path fill="#f7c6b5" d="m384 312.36-24.867-35.102L384 251.875Zm0 0"/><path fill="#f6c5b4" d="m298.723 285.45 22.87 12.886-29.808 4.383ZM296.68 353.39l14.965-28.636 30.128 23.543Zm0 0"/><path fill="#9eb380" d="m307.586 193.707 31.426-21.95-17.489 31.423Zm0 0"/><path fill="#9eb27f" d="m339.012 171.758.152 33.75-17.64-2.328Zm0 0"/><path fill="#9eb481" d="m277.23 283.32 18.88-30.851 2.613 32.98Zm0 0"/><path fill="#9eb481" d="m296.11 252.469-18.88 30.851-4.457-29.347ZM306.074 212.598l-27.832 21.906 15.551-27.14Zm0 0"/><path fill="#f7c6b5" d="M384 312.36v35.898l-42.227.039Zm0 0"/><path fill="#f7c6b5" d="m384 312.36-42.227 35.937-1.226-34.145Zm0 0"/><path fill="#f6c5b4" d="m321.594 298.336-9.95 26.418-19.859-22.035Zm0 0"/><path fill="#f7c6b5" d="M319.762 384h-57.215l34.133-30.61Zm0 0"/><path fill="#f7c6b5" d="m259.836 343.816 36.844 9.575L262.547 384ZM259.836 343.816l2.71 40.184-27.382-28.79Zm0 0"/><path fill="#f6c5b4" d="m147.914 367.832 49.2 16.168h-77.188Zm0 0"/><path fill="#f7c6b5" d="m197.113 384-49.199-16.168 20.914-7.809Zm0 0"/><path fill="#f7c6b5" d="m122.805 362.379 25.11 5.453L119.924 384Zm0 0"/><path fill="#9eb481" d="m168.828 360.023-20.914 7.809 12.399-21.102ZM147.914 367.832l-25.11-5.453 4.364-13.75Zm0 0"/><path fill="#9eb481" d="m160.313 346.73-12.399 21.102-20.746-19.203ZM199.309 288.477l14.238 16.707-25.492 3.882Zm0 0"/><path fill="#f7c6b5" d="M77.316 0h84.743l-57.887 20.457Zm0 0"/><path fill="#9c3900" d="M86.621 81.734 58.54 71.891l14.844-12.817ZM90.309 61.652 79.96 43.676l18.14 7.687ZM102.586 61.223l-12.277.43 7.793-10.29Zm0 0"/><path fill="#9c3900" d="M79.96 43.676 90.31 61.652l-16.926-2.578ZM90.309 61.652 86.62 81.734l-13.238-22.66Zm0 0"/><path fill="#9c3900" d="m86.621 81.734 3.688-20.082 10.836 15.086Zm0 0"/><path fill="#9c3900" d="m90.309 61.652 12.277-.43-1.441 15.516Zm0 0"/><path fill="#f6c5b4" d="m110.281 59-7.695 2.223-4.484-9.86Zm0 0"/><path fill="#f7c6b5" d="m162.059 0 16.62 46.121-23.78-2.5ZM221.918 35.8 178.68 46.122 162.059 0Zm0 0"/><path fill="#f7c6b5" d="M196.965 71.68 178.68 46.12l43.238-10.32Zm0 0"/><path fill="#f6c5b4" d="m154.898 43.621-25.449-12.02L162.06 0Zm0 0"/><path fill="#f7c6b5" d="m384 71.055-27.766-38.422L384 0ZM348.191 69.32 384 71.055l-34.512 29.293Zm0 0"/><path fill="#f7c6b5" d="M384 71.055v68.765l-34.512-39.472Zm0 0"/><path fill="#9eb481" d="m297.137 53.535 30.136-7.789-13.054 38.211ZM275.805 56.34l13.699-17.973 7.633 15.168Zm0 0"/><path fill="#f7c6b5" d="m348.191 69.32-20.918-23.574 28.961-13.113Zm0 0"/><path fill="#a7b586" d="m327.273 45.746 20.918 23.574-33.972 14.637Zm0 0"/><path fill="#9eb481" d="m224.219 332.012 5.57-24.828 6.711 18.515Zm0 0"/><path fill="#9eb481" d="m213.547 305.184 16.242 2-5.57 24.828Zm0 0"/><path fill="#f6c5b4" d="m229.79 307.184 23.831 10.878L236.5 325.7Zm0 0"/><path fill="#f7c6b5" d="m333.227 135.828-16.317 10.856-8.418-13.715ZM316.91 146.684l16.317-10.856 5.785 35.93Zm0 0"/><path fill="#9eb380" d="m252.926 240.848 25.316-6.344-5.469 19.469ZM278.242 234.504l17.867 17.965-23.336 1.504ZM278.242 234.504l-25.316 6.344 10.117-14.77Zm0 0"/><path fill="#9ea16e" d="m232.066 257.984 25.09 4.317-18.234 11.129Zm0 0"/><path fill="#f6c5b4" d="m217.195 276.738 14.871-18.754 6.856 15.446Zm0 0"/><path fill="#9da571" d="m243.809 241.953 9.117-1.105 4.23 21.453Zm0 0"/><path fill="#9c3900" d="m232.066 257.984 11.743-16.03 13.347 20.347ZM243.809 241.953l-11.743 16.031-5.89-12.98Zm0 0"/><path fill="#9eb380" d="m278.242 234.504-9.699-16.012 25.25-11.129Zm0 0"/><path fill="#9eb380" d="m268.543 218.492 9.7 16.012-15.2-8.426Zm0 0"/><path fill="#9c3900" d="m254.305 215.574 14.238 2.918-5.5 7.586Zm0 0"/><path fill="#9db380" d="m268.543 218.492 10.105-15.504 15.145 4.375Zm0 0"/><path fill="#9c3900" d="m278.648 202.988-10.105 15.504-14.238-2.918Zm0 0"/><path fill="#a03d05" d="m220.395 207.852 24.52-5.711-13.235 20.574Zm0 0"/><path fill="#f3c4b2" d="m264.645 124.262 6.597-7.594 3.57 15.059Zm0 0"/><path fill="#f6c5b4" d="m271.242 116.668-6.597 7.594-17.375-16.246Zm0 0"/><path fill="#f7c6b5" d="m162.488 108.836 3.653-19.473 12.668 11.446ZM239.984 70.512l30.38 18.77-23.094 18.734Zm0 0"/><path fill="#f6c5b4" d="m279.625 67.195-39.64 3.317 35.82-14.172Zm0 0"/><path fill="#f6c6b5" d="m239.984 70.512 39.641-3.317-9.262 22.086Zm0 0"/><path fill="#9eb481" d="m11.855 165.355 3.06 17.86-14.903-3.48Zm0 0"/><path fill="#9eb481" d="m14.914 183.215-3.059-17.86 13.465 7.079Zm0 0"/><path fill="#f7c6b5" d="m0 56.004 31.168 20.152L0 110.77ZM31.168 76.156l27.371-4.265-9.543 49.273Zm0 0"/><path fill="#9eb481" d="m49.066 319.578 9.38 30.39-30.126-2.53Zm0 0"/><path fill="#9eb481" d="m49.066 319.578 28.508-3.43-19.129 33.82ZM24.754 306.352l24.312 13.226-20.746 27.86ZM18.46 213.676l3.747-19.246 21.402 3.941Zm0 0"/><path fill="#f6c5b4" d="m87.3 147.559-6.171 31.718-33.774-12.32ZM81.129 179.277 87.3 147.56l18.496 28.796Zm0 0"/><path fill="#f7c6b5" d="m47.336 198.676 8.098-6.438 6.011 9.89Zm0 0"/><path fill="#9eb380" d="m116.848 193.836-18.606 15.3 7.555-32.78Zm0 0"/><path fill="#9eb380" d="m98.242 209.137-17.113-29.86 24.668-2.922Zm0 0"/><path fill="#9eb481" d="m81.129 179.277 17.113 29.86-36.797-7.008Zm0 0"/><path fill="#9c3900" d="m132.219 266.457 43.367 2.383-4.23 17.031Zm0 0"/><path fill="#9c3900" d="m175.586 268.84 4.277 18.77-8.508-1.739Zm0 0"/><path fill="#9c3900" d="m185.066 245.895-9.48 22.945-18.445-23.973Zm0 0"/><path fill="#9c3900" d="m175.586 268.84-43.367-2.383 24.922-21.59Zm0 0"/><path fill="#dd7a51" d="m90.578 234.281 7.664-25.144 18.606-15.301Zm0 0"/><path fill="#9c3900" d="m85.45 259.414 5.128-25.133 14.598 22.403Zm0 0"/><path fill="#9d3a01" d="m180.82 200.898-7.789 1.637 3.797-9.16Zm0 0"/><path fill="#f6c5b4" d="m142.828 172.465-17.46-14.125 19.23 2.281Zm0 0"/><path fill="#f6c5b4" d="m131.824 179.207-6.457-20.867 17.461 14.125Zm0 0"/><path fill="#f7c6b5" d="m247.27 108.016-14.547 21.77-24.582-20.165ZM208.14 109.621l-6.574 28.57-18.73-4.37ZM150.898 123.145l-4.16 25.535-26.492-22.442Zm0 0"/><path fill="#de7b52" d="m146.738 148.68 3.434 12.687-5.574-.746Zm0 0"/><path fill="#dd7b52" d="m150.172 161.367-3.434-12.687 18.446 1.441Zm0 0"/><path fill="#f6c5b4" d="m125.367 158.34 21.371-9.66-2.14 11.941Zm0 0"/><path fill="#f7c6b5" d="m146.738 148.68-21.37 9.66-5.122-32.102Zm0 0"/><path fill="#9eb481" d="m103.145 297.992 38.347 7.567-27.566 27.875ZM158.598 323.598l1.714 23.132-33.144 1.899ZM113.926 333.434l44.672-9.836-31.43 25.03Zm0 0"/><path fill="#dd7a51" d="m157.309 220.977 19.148 9.91-19.316 13.98Zm0 0"/><path fill="#9c3900" d="m176.457 230.887 8.61 15.008-27.926-1.028Zm0 0"/><path fill="#9c3900" d="m176.457 230.887 14.375-6.508-5.766 21.516Zm0 0"/><path fill="#f6c5b4" d="m364.563 239.738-14.313-21.5 33.766-19.246Zm0 0"/><path fill="#f6c6b4" d="m364.563 239.738 19.453-40.746-.016 52.883Zm0 0"/><path fill="#9eb27f" d="m350.25 218.238 18.93-39.156 14.836 19.91Zm0 0"/><path fill="#f7c6b5" d="m340.547 314.152 18.586-36.894L384 312.359Zm0 0"/><path fill="#f7c6b5" d="m340.547 314.152-18.953-15.816 37.539-21.078Zm0 0"/><path fill="#9eb380" d="m306.074 212.598 1.512-18.891 13.937 9.473Zm0 0"/><path fill="#9eb481" d="m299.145 120.066 21.476.414-12.129 12.489Zm0 0"/><path fill="#f5c5b4" d="m320.621 120.48 12.606 15.348-24.735-2.86Zm0 0"/><path fill="#f6c6b4" d="m339.012 171.758-5.785-35.93L384 139.82Zm0 0"/><path fill="#f6c5b4" d="M311.645 324.754 296.68 353.39l-17.606-30.094Zm0 0"/><path fill="#f7c6b5" d="M235.164 355.21 262.547 384h-65.434Zm0 0"/><path fill="#f7c6b5" d="m203.645 354.309 31.52.902L197.112 384Zm0 0"/><path fill="#f7c6b5" d="m235.164 355.21-31.52-.901 20.575-22.297ZM235.164 355.21l-10.945-23.198 12.281-6.313Zm0 0"/><path fill="#f6c5b4" d="m168.828 360.023 32.879-9.171 1.938 3.457Zm0 0"/><path fill="#9eb481" d="m203.645 354.309-1.938-3.457 22.512-18.84ZM201.707 350.852l-32.879 9.171-8.516-13.293ZM201.707 350.852l11.84-45.668 10.672 26.828Zm0 0"/><path fill="#9eb481" d="m158.598 323.598 43.109 27.254-41.394-4.122Zm0 0"/><path fill="#9eb481" d="m213.547 305.184-11.84 45.668-13.652-41.786Zm0 0"/><path fill="#9eb481" d="m201.707 350.852-43.11-27.254 29.458-14.532Zm0 0"/><path fill="#f6c6b4" d="m82.957 108.96 3.664-27.226 23.36 12.782Zm0 0"/><path fill="#f7c6b5" d="M82.957 108.96 58.539 71.89l28.082 9.844ZM120.246 126.238l-37.289-17.277 27.023-14.445Zm0 0"/><path fill="#f6c5b4" d="m87.3 147.559-4.343-38.598 37.29 17.277Zm0 0"/><path fill="#f6c6b5" d="m82.957 108.96 4.344 38.599-38.305-26.395Zm0 0"/><path fill="#f7c6b5" d="m58.54 71.89 24.417 37.07-33.96 12.204Zm0 0"/><path fill="#f6c5b4" d="m110.281 59-12.18-7.637 14.485-9.008Zm0 0"/><path fill="#f7c6b5" d="m124.566 76.309 15.391 22.77-29.977-4.563Zm0 0"/><path fill="#f7c6b5" d="m139.957 99.078-19.71 27.16-10.267-31.722ZM348.191 69.32l8.043-36.687L384 71.055Zm0 0"/><path fill="#9eb481" d="m271.242 116.668 13.848 3.668-10.277 11.39ZM297.137 53.535l13.89-18.957 16.246 11.168ZM297.137 53.535l17.082 30.422-34.594-16.762Zm0 0"/><path fill="#f6c5b4" d="m279.625 67.195 34.594 16.762-43.856 5.324Zm0 0"/><path fill="#9eb481" d="m333.098 23.438-5.825 22.308-16.246-11.168Zm0 0"/><path fill="#f6c5b4" d="m327.273 45.746 5.825-22.309 23.136 9.196ZM279.074 323.297l12.711-20.578 19.86 22.035ZM277.23 283.32l14.555 19.399-27.926-6.48Zm0 0"/><path fill="#f6c5b5" d="m291.785 302.719-12.71 20.578-15.216-27.059ZM291.785 302.719 277.23 283.32l21.493 2.13Zm0 0"/><path fill="#f7c6b5" d="m263.86 296.238-10.239 21.825-23.832-10.88Zm0 0"/><path fill="#f7c6b5" d="m253.621 318.063 10.238-21.825 15.215 27.059Zm0 0"/><path fill="#9eb481" d="m290.895 133.266 8.25-13.2 9.347 12.903Zm0 0"/><path fill="#9eb481" d="m290.895 133.266-5.805-12.93 14.055-.27Zm0 0"/><path fill="#9eb380" d="m285.09 120.336 5.805 12.93-16.082-1.54Zm0 0"/><path fill="#9eb481" d="m307.586 193.707-4.008-21.11 35.434-.84Zm0 0"/><path fill="#9eb481" d="m303.578 172.598 13.332-25.914 22.102 25.074Zm0 0"/><path fill="#9eb380" d="m303.578 172.598 4.008 21.109-9.668-4.613Zm0 0"/><path fill="#da784e" d="m261.406 172.57 6.274-25.863 9.246 11.148Zm0 0"/><path fill="#dd7a51" d="m267.68 146.707-3.035-22.445 10.168 7.465Zm0 0"/><path fill="#9c3900" d="m231.68 222.715 12.129 19.238-17.633 3.05ZM252.926 240.848l1.379-25.274 8.738 10.504Zm0 0"/><path fill="#9c3900" d="m243.809 241.953 10.496-26.379-1.38 25.274Zm0 0"/><path fill="#9c3900" d="m231.68 222.715 22.625-7.14-10.496 26.378ZM232.066 257.984l-15.41-1.304 9.52-11.676ZM216.656 256.68l15.41 1.304-14.87 18.754ZM195.836 273.727l-20.25-4.887 9.48-22.945ZM175.586 268.84l20.25 4.887-15.973 13.882Zm0 0"/><path fill="#9c3900" d="m195.836 273.727 20.82-17.047.54 20.058Zm0 0"/><path fill="#f6c5b4" d="m199.309 288.477-3.473-14.75 21.36 3.011Zm0 0"/><path fill="#f6c5b4" d="m179.863 287.61 15.973-13.883 3.473 14.75Zm0 0"/><path fill="#9c3900" d="m176.828 193.375 39.168-6.273-35.176 13.796Zm0 0"/><path fill="#9c3900" d="m215.996 187.102-39.168 6.273 17.164-17.055Zm0 0"/><path fill="#dd7b52" d="m215.996 187.102-34.133 24.039-1.043-10.243ZM215.996 187.102l9.145-22.149 10.613 8.777Zm0 0"/><path fill="#dd7b52" d="m225.14 164.953 18.493-16.183-7.88 24.96Zm0 0"/><path fill="#dd7a51" d="m243.633 148.77 17.773 23.8-25.652 1.16Zm0 0"/><path fill="#dd7b52" d="m218.746 190.945-2.75-3.843 19.758-13.372Zm0 0"/><path fill="#f7c6b5" d="m139.957 99.078 26.184-9.715-3.653 19.473ZM174.164 62.707l4.516-16.586 18.285 25.559ZM166.14 89.363l8.024-26.656 22.8 8.973Zm0 0"/><path fill="#f6c5b4" d="M11.855 165.355.012 179.735 0 155.362Zm0 0"/><path fill="#f6c5b4" d="m22.977 150.137-11.122 15.218L0 155.363Zm0 0"/><path fill="#9eb481" d="m30.934 182.11-16.02 1.105 10.406-10.781Zm0 0"/><path fill="#f6c5b4" d="m47.355 166.957-16.421 15.152-5.614-9.675Zm0 0"/><path fill="#9eb481" d="m14.914 183.215 16.02-1.106-8.727 12.32ZM22.207 194.43l8.727-12.32 12.675 16.261ZM49.066 319.578l7.86-37.074 20.648 33.644Zm0 0"/><path fill="#9eb481" d="m56.926 282.504-7.86 37.074-24.312-13.226Zm0 0"/><path fill="#f6c5b4" d="m85.45 259.414-4.524 27.047-7.313-18.516Zm0 0"/><path fill="#f7c6b5" d="M24.754 306.352 0 263.629l23.148-.785ZM0 263.629l24.754 42.723-24.758 6.496Zm0 0"/><path fill="#9eb481" d="m56.207 236.21 20.41-7.608-3.004 39.343Zm0 0"/><path fill="#f6c5b4" d="m87.3 147.559 38.067 10.78-19.57 18.016Zm0 0"/><path fill="#f6c5b4" d="m125.367 158.34-38.066-10.781 32.945-21.32Zm0 0"/><path fill="#9eb380" d="m98.242 209.137-7.664 25.144-13.96-5.68Zm0 0"/><path fill="#9db380" d="m76.617 228.602 13.961 5.68-16.965 33.663Zm0 0"/><path fill="#9db380" d="m90.578 234.281-5.129 25.133-11.836 8.531Zm0 0"/><path fill="#f7c6b5" d="m226.496 146.777 6.227-16.992 10.91 18.985Zm0 0"/><path fill="#dd7b52" d="m226.496 146.777-1.355 18.176-15.23-16.851Zm0 0"/><path fill="#dd7a51" d="m225.14 164.953 1.356-18.176 17.137 1.993Zm0 0"/><path fill="#f6c5b4" d="m264.645 124.262-14.243 5.867-3.132-22.113Zm0 0"/><path fill="#f6c6b4" d="m247.27 108.016 3.132 22.113-17.68-.344Zm0 0"/><path fill="#f7c6b5" d="m232.723 129.785 17.68.344-6.77 18.64Zm0 0"/><path fill="#dd7b52" d="m225.14 164.953-9.312 2.457-5.918-19.308Zm0 0"/><path fill="#9c3900" d="m215.828 167.41.168 19.692-22.004-10.782Zm0 0"/><path fill="#dd7b52" d="m215.828 167.41 9.313-2.457-9.145 22.149ZM209.91 148.102l-12.898 14.183 4.554-24.094Zm0 0"/><path fill="#dd7b51" d="m197.012 162.285-25.739 4.871 11.465-18.617Zm0 0"/><path fill="#9c3900" d="m171.273 167.156 25.739-4.87-3.02 14.034Zm0 0"/><path fill="#9c3900" d="m197.012 162.285 18.816 5.125-21.836 8.91Zm0 0"/><path fill="#9c3900" d="m215.828 167.41-18.816-5.125 12.898-14.183Zm0 0"/><path fill="#f7c6b5" d="m232.723 129.785-16.899 6.153-7.683-26.317ZM208.14 109.621l7.684 26.317-14.258 2.253Zm0 0"/><path fill="#f6c6b4" d="m215.824 135.938-5.914 12.164-8.344-9.91Zm0 0"/><path fill="#f6c5b4" d="m215.824 135.938 10.672 10.84-16.586 1.324Zm0 0"/><path fill="#f7c6b5" d="m226.496 146.777-10.672-10.84 16.899-6.152Zm0 0"/><path fill="#9c3900" d="m157.992 139.82-7.094-16.675 12.727-.633Zm0 0"/><path fill="#f7c6b5" d="m157.992 139.82-11.254 8.86 4.16-25.535Zm0 0"/><path fill="#dd7a51" d="m146.738 148.68 11.254-8.86 7.192 10.301Zm0 0"/><path fill="#9c3900" d="m171.617 135.148-13.625 4.672 5.633-17.308Zm0 0"/><path fill="#9c3901" d="m157.992 139.82 13.625-4.672-6.433 14.973Zm0 0"/><path fill="#9eb481" d="m-.004 312.848 24.758-6.496L0 334.332Zm0 0"/><path fill="#9eb481" d="m24.754 306.352 3.566 41.086L0 334.332ZM77.574 316.148l25.57-18.156 10.782 35.442ZM158.598 323.598l11.976-35.23 17.48 20.698Zm0 0"/><path fill="#9eb481" d="m170.574 288.367 9.29-.758 8.19 21.457Zm0 0"/><path fill="#f6c5b4" d="m179.863 287.61-9.289.757.781-2.496Zm0 0"/><path fill="#f6c6b4" d="M369.18 179.082 384 139.82l.016 59.172Zm0 0"/><path fill="#9c3900" d="m278.648 202.988 17.66-.96-2.515 5.335Zm0 0"/><path fill="#9eb380" d="m296.309 202.027 9.765 10.57-12.281-5.234Zm0 0"/><path fill="#9db07c" d="m296.309 202.027 11.277-8.32-1.512 18.89Zm0 0"/><path fill="#9c3900" d="m307.586 193.707-11.277 8.32 1.609-12.933Zm0 0"/><path fill="#f6c5b4" d="M333.227 135.828 320.62 120.48l28.867-20.132Zm0 0"/><path fill="#f7c6b5" d="m333.227 135.828 16.261-35.48L384 139.82Zm0 0"/><path fill="#9eb481" d="m324.746 225.918 16.645 16.496-19.868 20.75Zm0 0"/><path fill="#f6c5b4" d="m359.133 277.258-17.742-34.844 23.171-2.676Zm0 0"/><path fill="#9eb481" d="m341.39 242.414 17.743 34.844-37.61-14.094Zm0 0"/><path fill="#9eb481" d="m298.723 285.45 22.8-22.286.07 35.172ZM306.074 212.598l-9.965 39.87-17.867-17.964Zm0 0"/><path fill="#9eb481" d="m324.746 225.918-28.637 26.55 9.965-39.87Zm0 0"/><path fill="#f7c6b5" d="m319.762 384 22.011-35.703L384 384Zm0 0"/><path fill="#f7c6b5" d="m341.773 348.297 42.227-.04V384Zm0 0"/><path fill="#f6c5b4" d="M341.773 348.297 319.762 384l-23.082-30.61ZM340.547 314.152l-28.902 10.602 9.949-26.418Zm0 0"/><path fill="#f7c6b5" d="m259.836 343.816-24.672 11.395 1.336-29.512ZM296.68 353.39l-36.844-9.574 19.238-20.52Zm0 0"/><path fill="#f7c6b5" d="m253.621 318.063 6.215 25.753L236.5 325.7Zm0 0"/><path fill="#f7c6b5" d="m259.836 343.816-6.215-25.753 25.453 5.234Zm0 0"/><path fill="#9c3900" d="m102.586 61.223 10.55 15.011-11.991.504Zm0 0"/><path fill="#9d3a02" d="m110.281 59 2.856 17.234-10.551-15.011Zm0 0"/><path fill="#d16e42" d="m120.64 59.04-7.503 17.194L110.28 59Zm0 0"/><path fill="#9c3900" d="m113.137 76.234 7.504-17.195 3.925 17.27Zm0 0"/><path fill="#f7c6b5" d="m275.96 37.41-35.976 33.102L221.918 35.8Zm0 0"/><path fill="#f7c6b5" d="m221.918 35.8 18.066 34.712-43.02 1.168ZM356.234 32.633 342.105-.004 384 0ZM270.363 89.281l.88 27.387-23.973-8.652Zm0 0"/><path fill="#f6c6b4" d="m333.098 23.438 9.007-23.442 14.13 32.637Zm0 0"/><path fill="#f7c6b5" d="M286.063 9.512 245.188 0l42.699-.004Zm0 0"/><path fill="#f6c5b4" d="m245.188 0 40.875 9.512L275.96 37.41Zm0 0"/><path fill="#9eb481" d="m286.063 9.512 14.07 14.062-10.63 14.793ZM263.86 296.238l-34.07 10.946 25.573-24.043ZM255.363 283.14l-25.574 24.044 9.133-33.754Zm0 0"/><path fill="#9eb481" d="m229.79 307.184-16.243-2 25.375-31.754Zm0 0"/><path fill="#f6c5b4" d="m316.91 146.684-22.77-2.082 14.352-11.633Zm0 0"/><path fill="#f3c5b2" d="m294.14 144.602-3.245-11.336 17.597-.297Zm0 0"/><path fill="#9c3900" d="m244.914 202.14 9.39 13.434-22.624 7.14ZM195.836 273.727l8.91-33.86 11.91 16.813ZM190.832 224.379l13.914 15.488-19.68 6.028Zm0 0"/><path fill="#9c3900" d="m204.746 239.867-8.91 33.86-10.77-27.832Zm0 0"/><path fill="#dd7b51" d="m218.746 190.945 1.649 16.907-38.532 3.289Zm0 0"/><path fill="#dd7b52" d="m215.996 187.102 2.75 3.843-36.883 20.196Zm0 0"/><path fill="#9c3900" d="m244.914 202.14 24.7-9.183-15.31 22.617Zm0 0"/><path fill="#9c3900" d="m269.613 192.957 9.035 10.031-24.343 12.586ZM269.613 192.957l-24.699 9.184 16.492-29.57ZM277.074 175.3l-7.46 17.657-8.208-20.387ZM296.309 202.027l-10.09-19.386 11.699 6.453Zm0 0"/><path fill="#9c3900" d="m286.219 182.64 10.09 19.387-17.66.961Zm0 0"/><path fill="#9c3900" d="m269.613 192.957 16.606-10.316-7.57 20.347ZM286.219 182.64l-16.606 10.317 7.461-17.656ZM244.914 202.14l-6.582-7.542 23.074-22.028Zm0 0"/><path fill="#dc7950" d="m261.406 172.57-23.074 22.028-2.578-20.868Zm0 0"/><path fill="#dd7a51" d="m238.332 194.598-19.586-3.653 17.008-17.215Zm0 0"/><path fill="#f7c6b5" d="m174.164 62.707-8.023 26.656-5.903-16.992Zm0 0"/><path fill="#f7c6b5" d="M178.809 100.809 166.14 89.363l30.824-17.683ZM208.14 109.621l-29.331-8.812 18.156-29.13Zm0 0"/><path fill="#f6c5b4" d="m11.855 165.355 11.122-15.218 2.343 22.297Zm0 0"/><path fill="#f7c6b5" d="m22.977 150.137 26.02-28.973-1.642 45.793Zm0 0"/><path fill="#f6c5b4" d="m22.977 150.137 24.378 16.82-22.035 5.477Zm0 0"/><path fill="#f6c5b4" d="m47.355 166.957-.02 31.719-3.726-.305Zm0 0"/><path fill="#f6c5b4" d="m30.934 182.11 16.421-15.153-3.746 31.414ZM47.336 198.676l.02-31.719 8.078 25.281Zm0 0"/><path fill="#9eb481" d="m56.926 282.504-.719-46.293 17.406 31.734Zm0 0"/><path fill="#9eb481" d="m80.926 286.46-24-3.956 16.687-14.559Zm0 0"/><path fill="#f7c6b5" d="m24.754 306.352-1.606-43.508 10.493 16.281Zm0 0"/><path fill="#f7c6b5" d="m33.64 279.125-10.492-16.281 16.614 15.402Zm0 0"/><path fill="#9eb481" d="m56.207 236.21 5.238-34.081 15.172 26.473Zm0 0"/><path fill="#dd7b52" d="m176.457 230.887 5.406-19.746 8.969 13.238ZM181.863 211.14l-5.406 19.747-19.148-9.91Zm0 0"/><path fill="#dd7b51" d="m173.031 202.535 8.832 8.606-24.554 9.836Zm0 0"/><path fill="#dd7a51" d="m180.82 200.898 1.043 10.243-8.832-8.606Zm0 0"/><path fill="#f6c5b4" d="m125.367 158.34 6.457 20.867-26.027-2.852Zm0 0"/><path fill="#a1b280" d="m131.824 179.207-14.976 14.629-11.051-17.48Zm0 0"/><path fill="#dd7b52" d="m116.848 193.836 14.976-14.629 9.309 7.211Zm0 0"/><path fill="#9c3900" d="m267.68 146.707-8.543-.973 5.508-21.472Zm0 0"/><path fill="#9e3b03" d="m259.137 145.734-8.735-15.605 14.243-5.867Zm0 0"/><path fill="#9c3900" d="m250.402 130.129 8.735 15.605-15.504 3.036Zm0 0"/><path fill="#9c3900" d="m259.137 145.734 2.27 26.836-17.774-23.8Zm0 0"/><path fill="#9c3901" d="m259.137 145.734 8.543.973-6.274 25.863Zm0 0"/><path fill="#9d3a01" d="m171.273 167.156-6.09-17.035 17.555-1.582Zm0 0"/><path fill="#dd7a51" d="m171.273 167.156-21.101-5.789 15.012-11.246Zm0 0"/><path fill="#dd7b52" d="m197.012 162.285-14.274-13.746 18.828-10.348Zm0 0"/><path fill="#c76436" d="m201.566 138.191-18.828 10.348.098-14.719Zm0 0"/><path fill="#9c3900" d="m182.738 148.54-11.12-13.392 11.218-1.328ZM137.922 286.59l-20.293-1.797 14.59-18.336Zm0 0"/><path fill="#f7c6b5" d="m117.629 284.793 20.293 1.797 3.57 18.969ZM103.145 297.992l14.484-13.199 23.863 20.766Zm0 0"/><path fill="#9c3900" d="m170.574 288.367-38.355-21.91 39.136 19.414ZM170.574 288.367l-32.652-1.777-5.703-20.133Zm0 0"/><path fill="#f6c5b4" d="m369.18 179.082-30.168-7.324L384 139.82Zm0 0"/><path fill="#9eb380" d="m339.012 171.758 30.168 7.324-30.016 26.426Zm0 0"/><path fill="#9fb481" d="m339.164 205.508 30.016-26.426-18.93 39.156Zm0 0"/><path fill="#9eb481" d="m308.36 107.023 12.261 13.457-21.476-.414Zm0 0"/><path fill="#f6c5b4" d="m308.36 107.023 41.128-6.675-28.867 20.132Zm0 0"/><path fill="#9eb481" d="M321.523 263.164 296.11 252.47l28.637-26.551Zm0 0"/><path fill="#9eb481" d="m296.11 252.469 25.413 10.695-22.8 22.285Zm0 0"/><path fill="#f6c5b4" d="m340.547 314.152 1.226 34.145-30.128-23.543Zm0 0"/><path fill="#f7c6b5" d="m139.957 99.078-15.39-22.77 23.515-1.718Zm0 0"/><path fill="#f6c5b4" d="m129.45 31.602.5 14.296-17.364-3.543Zm0 0"/><path fill="#f6c5b4" d="m154.898 43.621-24.949 2.277-.5-14.296Zm0 0"/><path fill="#9c3900" d="m156.813 57.598-26.864-11.7 24.95-2.277Zm0 0"/><path fill="#f7c6b5" d="m113.137 76.234-3.157 18.282-8.835-17.778ZM109.98 94.516l3.157-18.282 11.43.075Zm0 0"/><path fill="#9eb481" d="m333.098 23.438-22.07 11.14 7.058-25.344ZM275.805 56.34l.156-18.93 13.543.957Zm0 0"/><path fill="#f7c6b5" d="m318.086 9.234-32.024.278 1.825-9.516Zm0 0"/><path fill="#f7c6b5" d="m318.086 9.234-30.2-9.238h54.22Zm0 0"/><path fill="#f6c5b4" d="M333.098 23.438 318.086 9.234l24.02-9.238Zm0 0"/><path fill="#9eb481" d="m311.027 34.578-10.894-11.004 17.953-14.34ZM289.504 38.367l21.523-3.789-13.89 18.957Zm0 0"/><path fill="#9eb481" d="m300.133 23.574 10.894 11.004-21.523 3.79Zm0 0"/><path fill="#9c3900" d="m267.68 146.707 14.992-3.16-5.746 14.308Zm0 0"/><path fill="#9c3900" d="m282.672 143.547-14.992 3.16 7.132-14.98Zm0 0"/><path fill="#f6c5b4" d="m290.895 133.266-8.223 10.28-7.86-11.82ZM294.14 144.602l-11.468-1.055 8.223-10.281Zm0 0"/><path fill="#9c3900" d="m226.176 245.004-9.52 11.676-11.91-16.813ZM220.395 207.852l17.937-13.254 6.582 7.543Zm0 0"/><path fill="#dd7b51" d="m218.746 190.945 19.586 3.653-17.937 13.254Zm0 0"/><path fill="#9d7640" d="m286.219 182.64 17.36-10.042-5.661 16.496Zm0 0"/><path fill="#a4b584" d="m286.25 156.824 7.89-12.222 22.77 2.082Zm0 0"/><path fill="#9eb481" d="m303.578 172.598-17.328-15.774 30.66-10.14Zm0 0"/><path fill="#f7c6b5" d="M166.14 89.363 148.083 74.59l12.156-2.219Zm0 0"/><path fill="#f7c6b5" d="m139.957 99.078 8.125-24.488 18.059 14.773ZM178.68 46.121l-21.868 11.477-1.914-13.977Zm0 0"/><path fill="#a13e07" d="m156.813 57.598 17.351 5.109-13.926 9.664Zm0 0"/><path fill="#f7c6b5" d="m174.164 62.707-17.351-5.11 21.867-11.476Zm0 0"/><path fill="#9eb481" d="m80.926 286.46-3.352 29.688-20.648-33.644ZM38.895 252.563l18.03 29.94-17.163-4.257ZM23.148 262.844l15.747-10.281.867 25.683Zm0 0"/><path fill="#f6c5b4" d="m38.895 252.563-4.563-19.829 21.875 3.477Zm0 0"/><path fill="#9eb481" d="m56.926 282.504-18.031-29.942 17.312-16.351Zm0 0"/><path fill="#f6c5b4" d="m18.746 242.516 20.149 10.047-15.747 10.28ZM18.746 242.516l4.402 20.328L0 263.629Zm0 0"/><path fill="#9eb380" d="m61.445 202.129 36.797 7.008-21.625 19.465Zm0 0"/><path fill="#f6c5b4" d="m41.566 215.441 14.641 20.77-21.875-3.477Zm0 0"/><path fill="#9eb481" d="m41.566 215.441 19.88-13.312-5.239 34.082Zm0 0"/><path fill="#f6c5b5" d="m18.46 213.676 23.106 1.765-7.234 17.293Zm0 0"/><path fill="#f6c5b4" d="m41.566 215.441-23.105-1.765 25.148-15.305Zm0 0"/><path fill="#f7c6b5" d="m47.336 198.676-5.77 16.765 2.043-17.07Zm0 0"/><path fill="#f6c5b4" d="M61.445 202.129 41.566 215.44l5.77-16.765Zm0 0"/><path fill="#9c3900" d="m164.113 179.922 7.16-12.766 22.72 9.164ZM159.293 195.395l4.82-15.473 12.715 13.453Zm0 0"/><path fill="#9c3900" d="m164.113 179.922 29.88-3.602-17.165 17.055ZM142.828 172.465l21.285 7.457-22.98 6.496ZM164.113 179.922l-4.82 15.473-18.16-8.977Zm0 0"/><path fill="#9c3900" d="m150.172 161.367 13.941 18.555-21.285-7.457Zm0 0"/><path fill="#9c3900" d="m171.273 167.156-7.16 12.766-13.941-18.555Zm0 0"/><path fill="#9eb481" d="m141.492 305.559 29.082-17.192-11.976 35.23ZM141.492 305.559l17.106 18.039-44.672 9.836Zm0 0"/><path fill="#f7c6b5" d="m170.574 288.367-29.082 17.192-3.57-18.97ZM308.36 107.023l5.859-23.066 35.27 16.39Zm0 0"/><path fill="#f6c5b4" d="M120.64 59.04 110.282 59l2.305-16.645Zm0 0"/><path fill="#f6c5b4" d="m129.95 45.898-9.31 13.141-8.054-16.684Zm0 0"/><path fill="#9eb481" d="m300.133 23.574-14.07-14.062 32.023-.278Zm0 0"/><path fill="#9eb481" d="m275.96 37.41 10.103-27.898 3.44 28.855Zm0 0"/><path fill="#dd7a51" d="m220.395 207.852-29.563 16.527-8.969-13.238Zm0 0"/><path fill="#9c3900" d="m226.176 245.004-21.43-5.137 26.934-17.152Zm0 0"/><path fill="#b35421" d="m204.746 239.867 15.649-32.015 11.285 14.863Zm0 0"/><path fill="#9e3b03" d="m204.746 239.867-13.914-15.488 29.563-16.527Zm0 0"/><path fill="#9da976" d="m286.219 182.64-.25-12.78 17.61 2.738Zm0 0"/><path fill="#9da976" d="m285.969 169.86.281-13.036 17.328 15.774Zm0 0"/><path fill="#9c3900" d="m282.672 143.547 3.578 13.277-9.324 1.031ZM286.25 156.824l-.281 13.035-9.043-12.004Zm0 0"/><path fill="#f6c5b4" d="m286.25 156.824-3.578-13.277 11.469 1.055Zm0 0"/><path fill="#9eb481" d="m80.926 286.46 22.219 11.532-25.57 18.156Zm0 0"/><path fill="#f7c6b5" d="m0 233.152 18.746 9.364L0 263.629Zm0 0"/><path fill="#9eb481" d="M22.207 194.43.004 210.375l14.91-27.16Zm0 0"/><path fill="#f7c6b5" d="m18.46 213.676.286 28.84L0 233.152Zm0 0"/><path fill="#f6c5b4" d="m38.895 252.563-20.149-10.047 15.586-9.782Zm0 0"/><path fill="#f6c5b5" d="m18.746 242.516-.285-28.84 15.871 19.058Zm0 0"/><path fill="#f6c6b4" d="m288.594 104.254 25.625-20.297-5.86 23.066Zm0 0"/><path fill="#9eb381" d="m285.09 120.336 3.504-16.082 10.55 15.812Zm0 0"/><path fill="#9eb481" d="m288.594 104.254 19.765 2.77-9.214 13.042ZM271.242 116.668l17.352-12.414-3.504 16.082Zm0 0"/><path fill="#f6c5b4" d="m314.219 83.957-25.625 20.297-18.23-14.973Zm0 0"/><path fill="#f7c6b5" d="m288.594 104.254-17.352 12.414-.879-27.387ZM129.43 60.883l-8.79-1.844 9.31-13.14Zm0 0"/><path fill="#9c3900" d="m124.566 76.309 4.864-15.426 18.652 13.707Zm0 0"/><path fill="#be5b2a" d="m129.43 60.883-4.864 15.426-3.925-17.27Zm0 0"/><path fill="#9c3900" d="m277.074 175.3-15.668-2.73 15.52-14.715Zm0 0"/><path fill="#9c3900" d="m285.969 169.86-8.895 5.44-.148-17.445ZM277.074 175.3l8.895-5.44.25 12.78Zm0 0"/><path fill="#f6c5b4" d="m98.234 281.496-17.308 4.965 4.523-27.047Zm0 0"/><path fill="#f6c5b5" d="m98.234 281.496 4.91 16.496-22.218-11.531Zm0 0"/><path fill="#f6c5b4" d="m103.145 297.992-4.91-16.496 19.394 3.297Zm0 0"/><path fill="#9c3900" d="M98.234 281.496 85.45 259.414l19.727-2.73Zm0 0"/><path fill="#9c3900" d="m98.234 281.496 6.942-24.812 27.043 9.773ZM117.629 284.793l-19.395-3.297 33.985-15.039Zm0 0"/><path fill="#f7c6b5" d="M18.46 213.676 0 233.152l.004-22.777Zm0 0"/><path fill="#9eb481" d="m22.207 194.43-3.746 19.246-18.457-3.301Zm0 0"/><path fill="#c76435" d="m129.43 60.883 21.582 3.015-2.93 10.692Zm0 0"/><path fill="#a5420c" d="m151.012 63.898 5.8-6.3 3.426 14.773Zm0 0"/><path fill="#9d3a01" d="m148.082 74.59 2.93-10.692 9.226 8.473Zm0 0"/><path fill="#9c3900" d="m151.012 63.898-21.063-18 26.863 11.7Zm0 0"/><path fill="#9c3900" d="m151.012 63.898-21.582-3.015.52-14.985Zm0 0"/></svg>