<svg xmlns="http://www.w3.org/2000/svg" width="512" height="512" viewBox="0 0 384 384"><path fill="#e95a5c" d="M.004 207.203.02 179.7l14.996 20.34Zm0 0"/><path fill="#e3ada9" d="m147.117 190.555-5.64 11.43-12.043-18.915Zm0 0"/><path fill="#d9f1e8" d="m122.836 362.61-21.035-4.774 26.703-10.266Zm0 0"/><path fill="#295163" d="m60.785 348.39-6.2 19.192-8.917-22.789Zm0 0"/><path fill="#23495d" d="m223.21 274.754 16.946-4.746-3.894 19.512Zm0 0"/><path fill="#daf1e8" d="m92.355 42.027-9.753-13.101 41.62-3.555ZM172.8 28.898 211.833 0 218 51.086Zm0 0"/><path fill="#23495d" d="m236.262 289.52-37.094-.672 24.043-14.094Zm0 0"/><path fill="#daf1e8" d="m243.477 92.969-41.48-1.567L218 51.086ZM176.05 119.344l25.946-27.942 10.3 31.97Zm0 0"/><path fill="#d9f1e8" d="M0 152.066V88.602l24.957 54.902Zm0 0"/><path fill="#daf1e8" d="M76.46 0 41.524 42.227 0 0ZM41.523 42.227 0 88.602V0Zm0 0"/><path fill="#dce0d8" d="m118.664 192.707 22.813 9.277 5.234 41.266Zm0 0"/><path fill="#e4a3a0" d="m141.477 201.984-22.813-9.277 10.77-9.637Zm0 0"/><path fill="#f04e52" d="m172.133 229.133 2.902 18.941-28.324-4.824Zm0 0"/><path fill="#dddad3" d="m141.477 201.984 30.656 27.149-25.422 14.117Zm0 0"/><path fill="#d9f1e8" d="m109.922 384 12.914-21.39L139.023 384ZM62.758 384.125l-41.367-.32 33.195-16.223ZM101.8 357.836l10.74-24.313 15.964 14.047Zm0 0"/><path fill="#d8f0e7" d="m112.54 333.523-10.74 24.313-17.081-17.602Zm0 0"/><path fill="#d9f1e8" d="m109.922 384-8.121-26.164 21.035 4.773Zm0 0"/><path fill="#274e60" d="m60.785 348.39-.582 18.505-5.617.687Zm0 0"/><path fill="#d9f1e8" d="m60.203 366.895.582-18.504 23.934-8.157Zm0 0"/><path fill="#264b5f" d="m312.79 214.488 12.054-22.05 18.523 13.484Zm0 0"/><path fill="#daf1e8" d="m76.46 0 47.763 25.371-41.621 3.555ZM83.23 79.074l10.614-.547-7.18 26.817ZM79.875 43.621l-6.734 15.852-31.618-17.246ZM82.602 28.926 79.875 43.62l-38.352-1.394Zm0 0"/><path fill="#daf0e8" d="m92.355 42.027-12.48 1.594 2.727-14.695Zm0 0"/><path fill="#daf1e8" d="m211.832 0-39.031 28.898L140.887 0Zm0 0"/><path fill="#d9f1e8" d="m301.191 63.906-10.043-11.183 9.985-2.758Zm0 0"/><path fill="#23495d" d="m276.422 285.3-8.414-9.925 28.25 7.71ZM268.008 275.375l-5.063 21.05-26.683-6.905Zm0 0"/><path fill="#23495d" d="m276.422 285.3-13.477 11.126 5.063-21.051Zm0 0"/><path fill="#d9f1e8" d="m262.945 296.426 13.477-11.125 8.758 20.37Zm0 0"/><path fill="#97dbc8" d="m247.531 250.2 10.793 15.167-18.168 4.64Zm0 0"/><path fill="#23495d" d="m240.156 270.008 18.168-4.64-22.062 24.152Zm0 0"/><path fill="#23495d" d="m258.324 265.367 9.684 10.008-31.746 14.145Zm0 0"/><path fill="#daf1e8" d="m151.438 124.273 10.125-18.128 1.976 15.687Zm0 0"/><path fill="#daf1e8" d="m161.563 106.145-10.125 18.128-26.91-3.035ZM161.563 106.145l14.488 13.199-12.512 2.488Zm0 0"/><path fill="#daf1e8" d="m161.563 106.145 40.433-14.743-25.945 27.942ZM0 88.602l41.523-46.375 1.645 56.722ZM43.168 98.95l-18.211 44.554L0 88.602ZM76.46 0l6.142 28.926-41.079 13.3Zm0 0"/><path fill="#23495d" d="m60.785 348.39 13.93-23.972 10.004 15.816Zm0 0"/><path fill="#23495d" d="m74.715 324.418 37.824 9.105-27.82 6.711Zm0 0"/><path fill="#f04e52" d="m148.934 266-2.223-22.75 28.324 4.824Zm0 0"/><path fill="#f04e52" d="m103.164 261.832 43.547-18.582 2.223 22.75Zm0 0"/><path fill="#ee5f61" d="m108.652 232.012 38.059 11.238-43.547 18.582Zm0 0"/><path fill="#ddd5cf" d="m146.71 243.25-38.058-11.238 10.012-39.305Zm0 0"/><path fill="#e1bdb8" d="m179.215 203.297-7.082 25.836-30.656-27.149Zm0 0"/><path fill="#f04e52" d="m179.215 203.297-32.098-12.742 29.942-4.657Zm0 0"/><path fill="#daf0e7" d="m147.117 190.555 32.098 12.742-37.738-1.313Zm0 0"/><path fill="#f04f53" d="m143.02 173.09 4.097 17.465-17.683-7.485Zm0 0"/><path fill="#daf1e8" d="m201.996 91.402 30.379 22.43-20.078 9.54ZM243.477 92.969l-11.102 20.863-30.379-22.43Zm0 0"/><path fill="#f04e52" d="m177.059 185.898 4.851-21.312 7.3 3.75ZM156.328 166.074l-13.308 7.016 2.898-22.856ZM176.05 119.344l-3.308 16.715-9.203-14.227Zm0 0"/><path fill="#d9f1e8" d="m182.723 369.246 14.41-1.09-12.055 15.848ZM.016 372.094l21.375 11.71L0 383.642Zm0 0"/><path fill="#d9f1e8" d="m0 383.64 21.39.165 41.368.32Zm0 0"/><path fill="#254c5f" d="m54.586 367.582-35-19.852 26.082-2.937Zm0 0"/><path fill="#315b6a" d="m21.39 383.805-1.804-36.075 35 19.852Zm0 0"/><path fill="#80c5b8" d="M19.586 347.73.016 372.094l-.02-40.504Zm0 0"/><path fill="#274e61" d="m.016 372.094 19.57-24.364 1.805 36.075Zm0 0"/><path fill="#23495d" d="m112.54 333.523 12.167-10.898 3.797 24.945Zm0 0"/><path fill="#d9f1e8" d="M101.8 357.836 109.923 384l-47.164.125ZM101.8 357.836l-41.597 9.059 24.516-26.66Zm0 0"/><path fill="#d9f1e8" d="m60.203 366.895 2.555 17.23-8.172-16.543Zm0 0"/><path fill="#d9f1e8" d="m62.758 384.125-2.555-17.23 41.598-9.06Zm0 0"/><path fill="#94dfcb" d="m181.09 284.5 18.078 4.348-15.477 9.41Zm0 0"/><path fill="#d9f1e8" d="m384 259.445-37.965 31.258 12.602-47.176Zm0 0"/><path fill="#d8f0e7" d="m308.418 179.8 13.18-15.632 3.246 28.27Zm0 0"/><path fill="#daf0e7" d="m321.598 164.168 29.183 11.703-25.937 16.566Zm0 0"/><path fill="#daf1e8" d="m350.781 175.871-7.414 30.05-18.523-13.483Zm0 0"/><path fill="#23495d" d="m268.008 275.375 7.699-16.34 20.55 24.05ZM275.707 259.035l-7.7 16.34-9.683-10.008Zm0 0"/><path fill="#cce5de" d="m312.79 214.488 1.976 9.227-27.114-5.656Zm0 0"/><path fill="#2a4f62" d="m314.766 223.715-37.895 16.43 10.781-22.086Zm0 0"/><path fill="#d1eae2" d="m314.766 223.715-1.977-9.227 30.578-8.566Zm0 0"/><path fill="#d9f1e8" d="m384 316.969-37.965-26.266L384 259.445Zm0 0"/><path fill="#d9f1e8" d="M346.035 290.703 384 316.97l-36.629 21.687ZM346.035 290.703l-40.523 40.098 13.441-44.88ZM255.758 354.133l49.754-23.332L306.594 384Zm0 0"/><path fill="#d9f1e8" d="M306.594 384h-80.856l30.02-29.867Zm0 0"/><path fill="#d9f1e8" d="M255.758 354.133 225.738 384l-2.972-20.648ZM208.977 349.438l13.789 13.914-25.633 4.804Zm0 0"/><path fill="#d9f1e8" d="m182.723 369.246.656-13.242 13.754 12.152ZM147.898 367.34l37.18 16.664-46.055-.004Zm0 0"/><path fill="#d9f1e8" d="m185.078 384.004-37.18-16.664 34.825 1.906ZM122.836 362.61l25.062 4.73-8.875 16.66Zm0 0"/><path fill="#d6eee6" d="m147.898 367.34 35.48-11.336-.655 13.242Zm0 0"/><path fill="#23495d" d="m183.379 356.004-35.48 11.336 11.695-26.25Zm0 0"/><path fill="#234a5d" d="m147.898 367.34-25.062-4.73 5.668-15.04Zm0 0"/><path fill="#244a5e" d="m159.594 341.09-11.696 26.25-19.394-19.77Zm0 0"/><path fill="#234a5d" d="m199.168 288.848 3.617 17.035-19.094-7.625Zm0 0"/><path fill="#23495d" d="m236.262 289.52-33.477 16.363-3.617-17.035Zm0 0"/><path fill="#daf1e8" d="M124.223 25.371 76.46 0h64.426ZM172.8 28.898l-48.577-3.527L140.887 0ZM61.645 73.758 41.523 42.227l31.618 17.246Zm0 0"/><path fill="#f04e52" d="m83.23 79.074-21.585-5.316L73.14 59.473ZM88.082 61.145 79.875 43.62l12.48-1.594Zm0 0"/><path fill="#f04e52" d="m104.586 63.102-16.504-1.957 4.273-19.118ZM79.875 43.621l8.207 17.524-14.941-1.672ZM88.082 61.145l-4.852 17.93-10.09-19.602Zm0 0"/><path fill="#f04e52" d="m83.23 79.074 4.852-17.93 5.762 17.383Zm0 0"/><path fill="#f04e52" d="m88.082 61.145 16.504 1.957-10.742 15.425Zm0 0"/><path fill="#daf1e8" d="m156.547 45.621-32.324-20.25 48.578 3.527ZM355.34 87.078l-5.79 46.953-21.741-24.191ZM384 152.258l-34.45-18.227 34.454-58.625ZM270.992 109.29l-27.515-16.321 29.671-4.914Zm0 0"/><path fill="#d9f0e7" d="m314.535 49.805-13.344 14.101-.058-13.941Zm0 0"/><path fill="#ec5457" d="m314.535 49.805 11.64-11.672 14.321 13.219Zm0 0"/><path fill="#24495d" d="m326.176 38.133-11.64 11.672-6.06-12.22Zm0 0"/><path fill="#23495d" d="m291.148 52.723-.242-14.805 10.227 12.047Zm0 0"/><path fill="#d9f1e8" d="m285.18 305.672 20.332 25.129L264.05 322Zm0 0"/><path fill="#23495d" d="m216.36 336.898 14.038-30.777 6.516 23.36ZM230.398 306.121l-27.613-.238 33.477-16.363Zm0 0"/><path fill="#23495d" d="m202.785 305.883 27.613.238-14.039 30.777Zm0 0"/><path fill="#d9f1e8" d="M230.398 306.121 264.051 322l-27.137 7.48ZM318.422 143.719l-18.8 7.027 3.468-13.836Zm0 0"/><path fill="#daf1e8" d="m299.621 150.746 18.8-7.027 3.177 20.449Zm0 0"/><path fill="#23495d" d="m247.531 250.2 29.34-10.055-18.547 25.222ZM276.871 240.145l-1.164 18.89-17.383 6.332Zm0 0"/><path fill="#94dfcb" d="m276.871 240.145-29.34 10.054 19.387-29.27Zm0 0"/><path fill="#97dbc8" d="m230.34 259.172 17.191-8.973-7.375 19.809Zm0 0"/><path fill="#95dfcb" d="m223.21 274.754 7.13-15.582 9.816 10.836Zm0 0"/><path fill="#f04e52" d="m247.531 250.2-17.191 8.972 4.183-20.828Zm0 0"/><path fill="#a0bcbc" d="m276.871 240.145-9.953-19.215 20.734-2.871Zm0 0"/><path fill="#f04e52" d="m266.918 220.93-20.887-15.235 21.98-11.047Zm0 0"/><path fill="#d9f1e8" d="m266.918 220.93 11.492-16.285 9.242 13.414Zm0 0"/><path fill="#f04e52" d="m278.41 204.645-11.492 16.285 1.094-26.282Zm0 0"/><path fill="#daf1e8" d="m270.992 109.29-7.582 14.741-19.933-31.062ZM161.563 106.145l11.687-23.34 28.746 8.597ZM218 51.086l-34.363 8.117L172.8 28.898ZM273.148 88.055l8.645-20.313 11.434 17.93ZM281.793 67.742l-8.395-17.52 17.75 2.5Zm0 0"/><path fill="#d9f1e8" d="m301.191 63.906-19.398 3.836 9.355-15.02Zm0 0"/><path fill="#daf1e8" d="m281.793 67.742 19.398-3.836-7.964 21.766ZM218 51.086l39.488 13.832-14.011 28.05ZM281.793 67.742l-24.305-2.824 15.91-14.695ZM257.488 64.918l15.66 23.137-29.671 4.914Zm0 0"/><path fill="#daf1e8" d="m257.488 64.918 24.305 2.824-8.645 20.313ZM252.766 30.512l20.632 19.71-15.91 14.696Zm0 0"/><path fill="#365666" d="m273.398 50.223 17.508-12.305.242 14.805Zm0 0"/><path fill="#daf1e8" d="m273.398 50.223-20.632-19.711 28.324-2.07Zm0 0"/><path fill="#23495d" d="m290.906 37.918-17.508 12.305 7.692-21.782Zm0 0"/><path fill="#daf1e8" d="M8.102 168.238.02 179.7 0 152.066Zm0 0"/><path fill="#e95a5c" d="m.02 179.7 15.585 1.905-.59 18.434Zm0 0"/><path fill="#ef5054" d="m15.605 181.605 11.407 12.192-11.996 6.242Zm0 0"/><path fill="#23495d" d="m8.102 168.238 7.503 13.367L.02 179.7Zm0 0"/><path fill="#23495d" d="m15.605 181.605-7.503-13.367 9.753-1.703Zm0 0"/><path fill="#daf1e8" d="m70.035 150.078-45.078-6.574 18.211-44.555Zm0 0"/><path fill="#daf1e8" d="M61.645 73.758 43.168 98.949l-1.645-56.722Zm0 0"/><path fill="#5f9998" d="m52.55 309.32 8.235 39.07-15.117-3.597Zm0 0"/><path fill="#45777e" d="m52.55 309.32 22.165 15.098-13.93 23.973Zm0 0"/><path fill="#44747d" d="m28.29 328.473 24.26-19.153-6.882 35.473Zm0 0"/><path fill="#23495d" d="m21.293 306.867 19.82-26.43 11.438 28.883Zm0 0"/><path fill="#94dfcb" d="m28.29 328.473-6.997-21.606 31.258 2.453Zm0 0"/><path fill="#dbe5dd" d="m31.613 204.566-4.601-10.77 11.668-5.026Zm0 0"/><path fill="#daf1e8" d="m70.035 150.078 54.492-28.84-9.015 42.04Zm0 0"/><path fill="#daf0e7" d="m118.664 192.707-30.21-6.598 27.058-22.832Zm0 0"/><path fill="#daf1e8" d="m88.453 186.11-18.418-36.032 45.477 13.2Zm0 0"/><path fill="#f04e52" d="m148.934 266 27.543 2.238-13.508 16.938ZM176.477 268.238l4.613 16.262-18.121.676ZM195.797 259.332l-19.32 8.906-1.442-20.164Zm0 0"/><path fill="#f04e52" d="M176.477 268.238 148.934 266l26.101-17.926Zm0 0"/><path fill="#f05054" d="m108.652 232.012-9.59-20.348 19.602-18.957Zm0 0"/><path fill="#daf0e7" d="m99.063 211.664-10.61-25.555 30.211 6.598Zm0 0"/><path fill="#d9f1e8" d="m88.453 186.11 10.61 25.554-28.622-3.293Zm0 0"/><path fill="#f04e52" d="m87.8 254.648 20.852-22.636-5.488 29.82Zm0 0"/><path fill="#f04e52" d="m90.242 270.836-2.441-16.188 15.363 7.184Zm0 0"/><path fill="#daf1e8" d="m115.512 163.277 9.015-42.039 21.391 28.996Zm0 0"/><path fill="#daf0e7" d="m143.02 173.09-27.508-9.813 30.406-13.043Zm0 0"/><path fill="#daf1e8" d="m212.297 123.371-28.508 8.64-7.738-12.667ZM151.438 124.273l-5.52 25.961-21.39-28.996Zm0 0"/><path fill="#e2b8b4" d="m156.328 166.074-10.41-15.84 16.992-1.261Zm0 0"/><path fill="#4c8085" d="m19.586 347.73 8.703-19.257 17.379 16.32Zm0 0"/><path fill="#23495d" d="m98.902 296.809 40.352 7.77-14.547 18.046ZM158.895 325.914l.699 15.176-31.09 6.48Zm0 0"/><path fill="#23495d" d="m124.707 322.625 34.188 3.29-30.391 21.655Zm0 0"/><path fill="#daf0e7" d="m358.637 243.527-15.27-37.605 40.633-.274Zm0 0"/><path fill="#d9f1e8" d="M358.637 243.527 384 205.648v53.797Zm0 0"/><path fill="#daf1e8" d="m343.367 205.922 7.414-30.05L384 205.647Zm0 0"/><path fill="#23495d" d="m312.79 214.488-6.325-19.004 18.379-3.047Zm0 0"/><path fill="#d7efe6" d="m306.465 195.484 1.953-15.683 16.426 12.637Zm0 0"/><path fill="#d8efe7" d="m308.418 179.8-1.953 15.684-11.555-10.043Zm0 0"/><path fill="#23495d" d="m297.887 123.043 21.949-2.438-16.746 16.305Zm0 0"/><path fill="#2f5466" d="m319.836 120.605-1.414 23.114-15.332-6.809Zm0 0"/><path fill="#daf1e8" d="m349.55 134.031 1.231 41.84-29.183-11.703Zm0 0"/><path fill="#daf1e8" d="m318.422 143.719 31.129-9.688-27.953 30.137Zm0 0"/><path fill="#d9f1e8" d="m305.512 330.8-49.754 23.333L264.05 322ZM197.133 368.156 225.738 384l-40.66.004Zm0 0"/><path fill="#d9f1e8" d="M222.766 363.352 225.738 384l-28.605-15.844Zm0 0"/><path fill="#d9f1e8" d="m225.563 348.012 30.195 6.12-32.992 9.22Zm0 0"/><path fill="#d9f1e8" d="m208.977 349.438 16.585-1.426-2.796 15.34Zm0 0"/><path fill="#d9f1e8" d="m225.563 348.012-16.586 1.425 7.382-12.539Zm0 0"/><path fill="#d8f0e7" d="m225.563 348.012-9.204-11.114 20.555-7.418Zm0 0"/><path fill="#d9f1e8" d="m183.379 356.004 6.66-2.856 7.094 15.008Zm0 0"/><path fill="#23495d" d="m208.977 349.438-18.938 3.71 26.32-16.25Zm0 0"/><path fill="#d9f1e8" d="m190.04 353.148 18.937-3.71-11.844 18.718Zm0 0"/><path fill="#23495d" d="m190.04 353.148-6.661 2.856-23.785-14.914ZM190.04 353.148l12.745-47.265 13.574 31.015Zm0 0"/><path fill="#23495d" d="m158.895 325.914 31.144 27.234-30.445-12.058Zm0 0"/><path fill="#23495d" d="m202.785 305.883-12.746 47.265-6.348-54.89Zm0 0"/><path fill="#23495d" d="m190.04 353.148-31.145-27.234 24.796-27.656Zm0 0"/><path fill="#daf1e8" d="m86.664 105.344-25.02-31.586 21.586 5.316Zm0 0"/><path fill="#d9f1e8" d="m70.035 150.078 16.63-44.734 37.862 15.894Zm0 0"/><path fill="#daf1e8" d="m86.664 105.344-16.629 44.734L43.168 98.95ZM61.645 73.758l25.02 31.586-43.497-6.395ZM110.82 53.055 92.355 42.027l31.868-16.656Zm0 0"/><path fill="#daefe6" d="m110.82 53.055-6.234 10.047-12.23-21.075Zm0 0"/><path fill="#daf1e8" d="m211.832 0 40.934 30.512L218 51.086ZM121.926 93.016l2.601 28.222-37.863-15.894Zm0 0"/><path fill="#daede4" d="M340.496 51.352 354 21.816l30.004 53.59Zm0 0"/><path fill="#daf1e8" d="m349.55 134.031 5.79-46.953 28.664-11.672Zm0 0"/><path fill="#daede5" d="m355.34 87.078-14.844-35.726 43.508 24.054Zm0 0"/><path fill="#daeee6" d="m327.809 109.84-10.48-17.68 38.01-5.082Zm0 0"/><path fill="#d9f1e8" d="m270.992 109.29 9.211 13.589-16.793 1.152Zm0 0"/><path fill="#daede5" d="m280.203 122.879-4.18 10.828-12.613-9.676Zm0 0"/><path fill="#25495d" d="m308.477 37.586 6.058 12.219-13.402.16Zm0 0"/><path fill="#d9f0e7" d="m314.535 49.805 4.781 26.011-18.125-11.91Zm0 0"/><path fill="#daece4" d="m355.34 87.078-36.024-11.262 21.18-24.464Zm0 0"/><path fill="#daede4" d="m319.316 75.816-4.78-26.011 25.96 1.547Zm0 0"/><path fill="#ec6e70" d="m317.328 92.16 1.988-16.344 36.024 11.262Zm0 0"/><path fill="#d9f1e8" d="m301.191 63.906 18.125 11.91-26.09 9.856Zm0 0"/><path fill="#4d6f7c" d="m319.316 75.816-1.988 16.344-24.101-6.488Zm0 0"/><path fill="#daece4" d="m326.176 38.133 7.976-12.875 6.344 26.094Zm0 0"/><path fill="#d9f1e8" d="m305.512 330.8-20.332-25.128 33.773-19.75ZM285.18 305.672l-8.758-20.371 19.836-2.215Zm0 0"/><path fill="#d9f1e8" d="m318.953 285.922-33.773 19.75 11.078-22.586ZM263.473 306.32l.578 15.68-33.653-15.879Zm0 0"/><path fill="#d9f1e8" d="m263.473 306.32 21.707-.648L264.05 322Zm0 0"/><path fill="#d9f1e8" d="m263.473 306.32-.528-9.894 22.235 9.246Zm0 0"/><path fill="#23495d" d="m289.809 136.625 8.078-13.582 5.203 13.867Zm0 0"/><path fill="#2a5062" d="m289.809 136.625-9.606-13.746 17.684.164Zm0 0"/><path fill="#355a6b" d="m280.203 122.879 9.606 13.746-13.786-2.918Zm0 0"/><path fill="#d8f0e8" d="m308.418 179.8-11.64-12.488 24.82-3.144Zm0 0"/><path fill="#d9f1e8" d="m296.777 167.313 2.844-16.567 21.977 13.422Zm0 0"/><path fill="#23495d" d="m296.777 167.313 11.641 12.488-13.508 5.64Zm0 0"/><path fill="#ed696a" d="m260.934 172.113 6.836-28.89 8.457 14.66Zm0 0"/><path fill="#ee6164" d="m276.023 133.707-8.253 9.516-4.36-19.192Zm0 0"/><path fill="#f04e52" d="m247.531 250.2-13.008-11.856 32.395-17.414ZM230.34 259.172l-11.262-4.863 15.445-15.965Zm0 0"/><path fill="#f04e52" d="m219.078 254.309 11.262 4.863-7.13 15.582Zm0 0"/><path fill="#f04e52" d="m195.797 259.332 23.281-5.023 4.133 20.445ZM194 273.098l-17.523-4.86 19.32-8.906Zm0 0"/><path fill="#f04e52" d="m176.477 268.238 17.523 4.86-12.91 11.402ZM194 273.098l1.797-13.766 27.414 15.422Zm0 0"/><path fill="#95dfcb" d="M199.168 288.848 194 273.098l29.21 1.656Zm0 0"/><path fill="#96ddc9" d="M181.09 284.5 194 273.098l5.168 15.75Zm0 0"/><path fill="#f04e52" d="m177.059 185.898 40.359-2.355-38.203 19.754ZM217.418 183.543l-40.36 2.355 12.153-17.562Zm0 0"/><path fill="#dbeae1" d="m217.418 183.543-14.09 26.937-24.113-7.183Zm0 0"/><path fill="#dbe4dc" d="m217.418 183.543-6.293-36.898 18.895 24.054Zm0 0"/><path fill="#e88a8a" d="m211.125 146.645 32.102.605-13.207 23.45Zm0 0"/><path fill="#dfcdc7" d="m243.227 147.25 17.707 24.863-30.914-1.414Zm0 0"/><path fill="#daf1e8" d="m226.625 190.05-9.207-6.507 12.602-12.844ZM150.867 93.848l22.383-11.043-11.687 23.34Zm0 0"/><path fill="#daf1e8" d="m150.867 93.848 10.696 12.297-37.036 15.093Zm0 0"/><path fill="#daf1e8" d="m121.926 93.016 28.941.832-26.34 27.39ZM172.8 28.898l10.837 30.305-27.09-13.582ZM173.25 82.805l-.2-20.254 10.587-3.348ZM266.746-.004l-13.98 30.516L211.832 0ZM266.746-.004l6.797 16.508-20.777 14.008Zm0 0"/><path fill="#d9f1e8" d="M8.102 168.238 0 152.066l17.855 14.47Zm0 0"/><path fill="#23495d" d="m28.883 175.645-13.278 5.96 2.25-15.07Zm0 0"/><path fill="#d6eee6" d="m32.008 165.863-3.125 9.782-11.028-9.11Zm0 0"/><path fill="#ee5154" d="m15.605 181.605 13.278-5.96-1.871 18.152Zm0 0"/><path fill="#f04e52" d="m27.012 193.797 1.87-18.152 9.798 13.125Zm0 0"/><path fill="#87cdbe" d="m52.55 309.32 2.071-1.656 20.094 16.754Zm0 0"/><path fill="#23495d" d="m54.621 307.664-13.508-27.226 19.649-1.27ZM41.113 280.438l13.508 27.226-2.07 1.656ZM87.8 254.648 73.942 268.02l12.532-27.075Zm0 0"/><path fill="#9fcebd" d="m73.941 268.02 13.86-13.372 2.441 16.188Zm0 0"/><path fill="#95dfcb" d="m0 295.55 21.293 11.317L-.004 331.59Zm0 0"/><path fill="#dbe5dd" d="m31.613 204.566-16.597-4.527 11.996-6.242Zm0 0"/><path fill="#d9f1e8" d="m56.18 220.027-9.317 15.508-10.09-20.512ZM56.18 220.027l14.261-11.656 16.032 32.574Zm0 0"/><path fill="#d9f1e8" d="m46.863 235.535 9.317-15.508 30.293 20.918ZM46.863 235.535l-24.453-.496 14.363-20.016ZM99.063 211.664l-12.59 29.281-16.032-32.574Zm0 0"/><path fill="#f04e52" d="m86.473 240.945 12.59-29.28 9.59 20.347Zm0 0"/><path fill="#f04e52" d="m87.8 254.648-1.327-13.703 22.18-8.933Zm0 0"/><path fill="#e0c6c0" d="m203.328 210.48-31.195 18.653 7.082-25.836Zm0 0"/><path fill="#daf1e8" d="m263.41 124.031-31.035-10.199 11.102-20.863Zm0 0"/><path fill="#dce3db" d="m181.91 164.586 12.445-4.172-5.144 7.922Zm0 0"/><path fill="#f04e52" d="m194.355 160.414 23.063 23.129-28.207-15.207ZM194.355 160.414l16.77-13.77 6.293 36.899Zm0 0"/><path fill="#e79493" d="m183.79 132.012 10.565 28.402-12.445 4.172Zm0 0"/><path fill="#e1bfba" d="m194.355 160.414-10.566-28.402 27.336 14.633Zm0 0"/><path fill="#daf1e8" d="m212.297 123.371-1.172 23.274-27.336-14.633ZM212.297 123.371l30.93 23.879-32.102-.605Zm0 0"/><path fill="#daf1e8" d="m243.227 147.25-30.93-23.879 20.078-9.539Zm0 0"/><path fill="#f04e52" d="m159.617 140.875-8.18-16.602 12.102-2.441Zm0 0"/><path fill="#daf1e8" d="m159.617 140.875-13.699 9.36 5.52-25.962Zm0 0"/><path fill="#ef5a5d" d="m145.918 150.234 13.7-9.359 3.292 8.098Zm0 0"/><path fill="#f04e52" d="m172.742 136.059-13.125 4.816 3.922-19.043ZM159.617 140.875l13.125-4.816-9.832 12.914Zm0 0"/><path fill="#85cabc" d="m28.29 328.473-8.704 19.257-19.59-16.14Zm0 0"/><path fill="#92dcc9" d="m21.293 306.867 6.996 21.606-28.293 3.117Zm0 0"/><path fill="#23495d" d="m74.715 324.418 12.96-16.246 24.864 25.351Zm0 0"/><path fill="#23495d" d="m87.676 308.172 37.031 14.453-12.168 10.898Zm0 0"/><path fill="#23495d" d="m87.676 308.172 11.226-11.363 25.805 25.816Zm0 0"/><path fill="#244a5e" d="m158.895 325.914 2.789-26.687 22.007-.97Zm0 0"/><path fill="#94dfcb" d="M161.684 299.227 181.09 284.5l2.601 13.758Zm0 0"/><path fill="#95dfcb" d="m181.09 284.5-19.406 14.727 1.285-14.051Zm0 0"/><path fill="#daf0e8" d="M350.781 175.871 384 152.258v53.39Zm0 0"/><path fill="#daf1e8" d="M349.55 134.031 384 152.258l-33.219 23.613Zm0 0"/><path fill="#d8f0e7" d="m278.41 204.645 15.918 1.3-6.676 12.114Zm0 0"/><path fill="#264b5f" d="m294.328 205.945 18.461 8.543-25.137 3.57Zm0 0"/><path fill="#244a5d" d="m294.328 205.945 12.137-10.46 6.324 19.003Zm0 0"/><path fill="#f04f52" d="m306.465 195.484-12.137 10.461.582-20.504Zm0 0"/><path fill="#d9f1e8" d="m319.836 120.605-10.43-13.671 18.403 2.906Zm0 0"/><path fill="#d9f1e8" d="m309.406 106.934 7.922-14.774 10.48 17.68Zm0 0"/><path fill="#d9f0e7" d="m319.836 120.605 29.715 13.426-31.13 9.688Zm0 0"/><path fill="#d9f1e8" d="m349.55 134.031-29.714-13.426 7.973-10.765Zm0 0"/><path fill="#d8f0e7" d="m358.637 243.527-19.258-.297 3.988-37.308Zm0 0"/><path fill="#d8f0e8" d="m339.379 243.23-24.613-19.515 28.601-17.793Zm0 0"/><path fill="#d5eee5" d="m318.953 285.922 20.426-42.692 6.656 47.473Zm0 0"/><path fill="#d9f1e8" d="m346.035 290.703-6.656-47.473 19.258.297Zm0 0"/><path fill="#264c5f" d="m314.766 223.715-10.813 17.539-27.082-1.11Zm0 0"/><path fill="#23495d" d="m303.953 241.254-28.246 17.781 1.164-18.89Zm0 0"/><path fill="#365b6c" d="m339.379 243.23-35.426-1.976 10.813-17.54Zm0 0"/><path fill="#daf1e8" d="m306.594 384 40.777-45.344L384 384Zm0 0"/><path fill="#d9f1e8" d="M347.371 338.656 384 316.97V384ZM347.371 338.656 306.594 384l-1.082-53.2ZM255.758 354.133l-30.196-6.121 11.352-18.532ZM264.05 322l-8.292 32.133-18.844-24.653Zm0 0"/><path fill="#f04e52" d="m104.586 63.102 1.402 16.773-12.144-1.348Zm0 0"/><path fill="#daefe7" d="m119.355 75.57-13.367 4.305-1.402-16.773Zm0 0"/><path fill="#daf1e8" d="m105.988 79.875 13.367-4.305 2.57 17.446ZM257.488 64.918 218 51.086l34.766-20.574Zm0 0"/><path fill="#daf0e7" d="M354 21.816 324.605 0H384Zm0 0"/><path fill="#daece3" d="M334.152 25.258 354 21.816l-13.504 29.536Zm0 0"/><path fill="#24495d" d="m317.277 27.047 8.899 11.086-17.7-.547Zm0 0"/><path fill="#315466" d="m317.277 27.047 16.875-1.79-7.976 12.876Zm0 0"/><path fill="#daf0e7" d="M321.816 10.844 324.606 0 354 21.816Zm0 0"/><path fill="#daeee5" d="m334.152 25.258-12.336-14.414L354 21.816Zm0 0"/><path fill="#4e6f7c" d="m300.754 23.664-9.848 14.254-9.816-9.477Zm0 0"/><path fill="#d8f0e7" d="m263.473 306.32-33.075-.199 32.547-9.695Zm0 0"/><path fill="#23495d" d="m262.945 296.426-32.547 9.695 5.864-16.601Zm0 0"/><path fill="#d9f1e8" d="m299.621 150.746-9.812-14.121 13.28.285Zm0 0"/><path fill="#f04e52" d="m234.523 238.344 11.508-32.649 20.887 15.235Zm0 0"/><path fill="#dbe8df" d="m226.625 190.05 3.445 5.098-26.742 15.332Zm0 0"/><path fill="#dcddd6" d="m217.418 183.543 9.207 6.508-23.297 20.43Zm0 0"/><path fill="#ec6264" d="m260.934 172.113 7.078 22.535-21.98 11.047Zm0 0"/><path fill="#f04e52" d="m294.328 205.945-11.578-14.863 12.16-5.64Zm0 0"/><path fill="#f04e52" d="m282.75 191.082 11.578 14.863-15.918-1.3Zm0 0"/><path fill="#f04e52" d="m268.012 194.648 14.738-3.566-4.34 13.563Zm0 0"/><path fill="#daede4" d="m260.934 172.113-34.309 17.938 3.395-19.352Zm0 0"/><path fill="#daf1e8" d="m150.867 93.848 6.137-19.332 16.246 8.289Zm0 0"/><path fill="#f04e52" d="m173.05 62.55-7.222 9.723-7.266-5.503Zm0 0"/><path fill="#daf0e7" d="m173.25 82.805-7.422-10.532 7.223-9.722Zm0 0"/><path fill="#daf1e8" d="m201.996 91.402-18.36-32.199L218 51.086Zm0 0"/><path fill="#daf1e8" d="m201.996 91.402-28.746-8.597 10.387-23.602Zm0 0"/><path fill="#d9f1e8" d="m0 152.066 24.957-8.562-7.102 23.031Zm0 0"/><path fill="#daf1e8" d="m24.957 143.504 7.05 22.36-14.152.671ZM32.008 165.863l-7.051-22.36 45.078 6.575Zm0 0"/><path fill="#daf0e7" d="m28.883 175.645 7.504-2.043 2.293 15.168Zm0 0"/><path fill="#d9f1e8" d="m38.68 188.77-2.293-15.168 33.648-23.524Zm0 0"/><path fill="#daf1e8" d="m36.387 173.602-4.38-7.739 38.028-15.785Zm0 0"/><path fill="#d8f0e7" d="m36.387 173.602-7.504 2.043 3.125-9.782Zm0 0"/><path fill="#23495d" d="M56.969 255.316 73.94 268.02l-13.18 11.148Zm0 0"/><path fill="#23495d" d="m41.113 280.438 15.856-25.122 3.793 23.852Zm0 0"/><path fill="#d7efe7" d="m56.969 255.316-10.106-19.78 39.61 5.41Zm0 0"/><path fill="#23495d" d="M73.941 268.02 56.97 255.316l29.504-14.37ZM54.621 307.664l33.055.508-12.961 16.246Zm0 0"/><path fill="#94decb" d="m21.293 306.867 2.09-43.039 17.73 16.61Zm0 0"/><path fill="#d9f1e8" d="m56.18 220.027-5.723-16.601 19.984 4.945Zm0 0"/><path fill="#daf1e8" d="m129.434 183.07-13.922-19.793 27.508 9.813Zm0 0"/><path fill="#daf1e8" d="m129.434 183.07-10.77 9.637-3.152-29.43Zm0 0"/><path fill="#f04e52" d="m267.77 143.223-17.13-12.48 12.77-6.712Zm0 0"/><path fill="#daf1e8" d="m250.64 130.742-18.265-16.91 31.035 10.2Zm0 0"/><path fill="#daf1e8" d="m232.375 113.832 18.266 16.91-7.414 16.508Zm0 0"/><path fill="#f04e52" d="m250.64 130.742 10.294 41.371-17.707-24.863ZM250.64 130.742l17.13 12.48-6.836 28.891ZM183.79 132.012l-1.88 32.574-9.168-28.527Zm0 0"/><path fill="#f04e52" d="m181.91 164.586-19-15.613 9.832-12.914Zm0 0"/><path fill="#dbe6de" d="m181.91 164.586-25.582 1.488 6.582-17.101Zm0 0"/><path fill="#f04e52" d="m183.79 132.012-11.048 4.047 3.309-16.715Zm0 0"/><path fill="#95dfcb" d="m98.902 296.809 43.805-8.297-3.453 16.066Zm0 0"/><path fill="#f04e52" d="M142.707 288.512 148.934 266l14.035 19.176Zm0 0"/><path fill="#95dfcb" d="m161.684 299.227-18.977-10.715 20.262-3.336Zm0 0"/><path fill="#2b5063" d="m302.586 115.45 17.25 5.155-21.95 2.438Zm0 0"/><path fill="#264c5f" d="m302.586 115.45 6.82-8.516 10.43 13.671Zm0 0"/><path fill="#b6d1cd" d="m308.395 254.664-4.442-13.41 35.426 1.976Zm0 0"/><path fill="#244a5e" d="m303.953 241.254 4.442 13.41-32.688 4.371Zm0 0"/><path fill="#d3ece4" d="m275.707 259.035 32.688-4.37-12.137 28.42Zm0 0"/><path fill="#d4ece4" d="m308.395 254.664 10.558 31.258-22.695-2.836Zm0 0"/><path fill="#d3ece4" d="m308.395 254.664 30.984-11.434-20.426 42.692Zm0 0"/><path fill="#d9f1e8" d="m346.035 290.703 1.336 47.953-41.86-7.855Zm0 0"/><path fill="#daf1e8" d="m121.926 93.016-2.57-17.446 20.496-.39ZM156.547 45.621l-25.91.34-6.414-20.59Zm0 0"/><path fill="#f04e52" d="m155.648 58.031-25.011-12.07 25.91-.34Zm0 0"/><path fill="#daf1e8" d="m93.844 78.527 12.144 1.348-19.324 25.469ZM105.988 79.875l15.938 13.14-35.262 12.329Zm0 0"/><path fill="#daeee5" d="M384.004 75.406 354 21.816 384 0Zm0 0"/><path fill="#23495d" d="m321.816 10.844-4.539 16.203-16.523-3.383Zm0 0"/><path fill="#24495d" d="m317.277 27.047 4.54-16.203 12.335 14.414Zm0 0"/><path fill="#daf1e8" d="m252.766 30.512 20.777-14.008 7.547 11.937Zm0 0"/><path fill="#23495d" d="m286.973 9.762 34.843 1.082-21.062 12.82Zm0 0"/><path fill="#daf1e8" d="M286.973 9.762 266.746-.004l57.86.004Zm0 0"/><path fill="#daf0e7" d="m321.816 10.844-34.843-1.082L324.605 0Zm0 0"/><path fill="#244a5e" d="m317.277 27.047-8.8 10.539-7.723-13.922Zm0 0"/><path fill="#23495d" d="m290.906 37.918 17.57-.332-7.343 12.379Zm0 0"/><path fill="#24495d" d="m300.754 23.664 7.723 13.922-17.57.332Zm0 0"/><path fill="#f04e52" d="m267.77 143.223 15.367.59-6.91 14.07ZM283.137 143.813l-15.367-.59 8.253-9.516Zm0 0"/><path fill="#d9f1e8" d="m289.809 136.625-6.672 7.188-7.114-10.106Zm0 0"/><path fill="#daf1e8" d="m299.621 150.746-16.484-6.934 6.672-7.187Zm0 0"/><path fill="#f04e52" d="m219.078 254.309-8.016-22.68 23.461 6.715Zm0 0"/><path fill="#f04e52" d="m211.063 231.629 8.015 22.68-23.281 5.023Zm0 0"/><path fill="#ee5155" d="m211.063 231.629 34.968-25.934-11.508 32.649Zm0 0"/><path fill="#f04e52" d="m230.07 195.148-19.007 36.48-7.735-21.148Zm0 0"/><path fill="#f04e52" d="m246.031 205.695-34.969 25.934 19.008-36.48Zm0 0"/><path fill="#f04e52" d="m211.063 231.629-38.93-2.496 31.195-18.653Zm0 0"/><path fill="#daece4" d="m260.934 172.113-30.864 23.035-3.445-5.097Zm0 0"/><path fill="#f04f53" d="m230.07 195.148 30.864-23.035-14.903 33.582Zm0 0"/><path fill="#23495d" d="m285.285 177.195 11.492-9.882-1.867 18.128Zm0 0"/><path fill="#ee5255" d="m282.75 191.082 2.535-13.887 9.625 8.246Zm0 0"/><path fill="#daf1e8" d="m296.777 167.313-9.355-10.063 12.2-6.504Zm0 0"/><path fill="#f04e52" d="m157.004 74.516-17.152.664 18.71-8.41Zm0 0"/><path fill="#daf1e8" d="m143.367 82.309 7.5 11.539-28.941-.832ZM143.367 82.309l13.637-7.793-6.137 19.332ZM143.367 82.309l-21.441 10.707 17.926-17.836Zm0 0"/><path fill="#daf1e8" d="m143.367 82.309-3.515-7.13 17.152-.663Zm0 0"/><path fill="#f04e52" d="m165.828 72.273-8.824 2.243 1.559-7.746Zm0 0"/><path fill="#daf1e8" d="m157.004 74.516 8.824-2.243 7.422 10.532ZM183.637 59.203l-10.586 3.348-16.504-16.93Zm0 0"/><path fill="#daf0e7" d="m173.05 62.55-17.402-4.519.899-12.41Zm0 0"/><path fill="#f04e52" d="m155.648 58.031 17.403 4.52-14.488 4.219Zm0 0"/><path fill="#94dfcb" d="m79.613 288.305-5.672-20.285 16.301 2.816Zm0 0"/><path fill="#23495d" d="m73.941 268.02 5.672 20.285-18.851-9.137ZM79.613 288.305l-24.992 19.36 6.14-28.497Zm0 0"/><path fill="#23495d" d="m79.613 288.305 8.063 19.867-33.055-.508Zm0 0"/><path fill="#95dfcb" d="m102.957 284.34 39.75 4.172-43.805 8.297Zm0 0"/><path fill="#f04e52" d="m142.707 288.512-39.75-4.172L148.934 266Zm0 0"/><path fill="#94dfcb" d="m0 295.55 23.383-31.722-2.09 43.04Zm0 0"/><path fill="#23495d" d="m23.383 263.828 33.586-8.512-15.856 25.121Zm0 0"/><path fill="#d9f1e8" d="m23.383 263.828-.973-28.789 24.453.496Zm0 0"/><path fill="#d9f1e8" d="m56.969 255.316-33.586 8.512 23.48-28.293Zm0 0"/><path fill="#daf1e8" d="m50.457 203.426 6.816-12.156 13.168 17.101Zm0 0"/><path fill="#d9f1e8" d="m88.453 186.11-31.18 5.16 12.762-41.192Zm0 0"/><path fill="#daf1e8" d="m57.273 191.27 31.18-5.16-18.012 22.261Zm0 0"/><path fill="#d9f1e8" d="m57.273 191.27-18.593-2.5 31.355-38.692Zm0 0"/><path fill="#f04e52" d="m57.273 191.27-6.816 12.156L38.68 188.77Zm0 0"/><path fill="#daf1e8" d="m50.457 203.426 5.723 16.601-19.407-5.004Zm0 0"/><path fill="#f04e52" d="m31.613 204.566 18.844-1.14-13.684 11.597Zm0 0"/><path fill="#e1b9b5" d="m50.457 203.426-18.844 1.14 7.067-15.796Zm0 0"/><path fill="#f04e52" d="m147.117 190.555 11.656-15.344 18.286 10.687ZM158.773 175.21l23.137-10.624-4.851 21.312Zm0 0"/><path fill="#f04e52" d="m143.02 173.09 15.753 2.12-11.656 15.345Zm0 0"/><path fill="#f04e52" d="m156.328 166.074 2.445 9.137-15.753-2.121Zm0 0"/><path fill="#f04e52" d="m181.91 164.586-23.137 10.625-2.445-9.137Zm0 0"/><path fill="#23495d" d="m139.254 304.578 22.43-5.351-2.79 26.687Zm0 0"/><path fill="#94dfcb" d="m139.254 304.578 3.453-16.066 18.977 10.715Zm0 0"/><path fill="#23495d" d="m139.254 304.578 19.64 21.336-34.187-3.289Zm0 0"/><path fill="#d9f0e8" d="m317.328 92.16-7.922 14.774-16.18-21.262Zm0 0"/><path fill="#dbe9e1" d="m110.82 53.055 5.532 4.367-11.766 5.68Zm0 0"/><path fill="#f04e52" d="m116.352 57.422 3.003 18.148-14.77-12.468Zm0 0"/><path fill="#daf1e8" d="m116.352 57.422-5.532-4.367 13.403-27.684Zm0 0"/><path fill="#daf1e8" d="m130.637 45.96-14.285 11.462 7.87-32.05ZM266.746-.004l20.227 9.766-13.43 6.742Zm0 0"/><path fill="#23495d" d="m286.973 9.762 13.78 13.902-19.663 4.777Zm0 0"/><path fill="#daf1e8" d="m273.543 16.504 13.43-6.742-5.883 18.68Zm0 0"/><path fill="#f04e52" d="m211.063 231.629-36.028 16.445-2.902-18.941ZM175.035 248.074l36.028-16.445-15.266 27.703Zm0 0"/><path fill="#24495d" d="m285.285 177.195-.664-12.336 12.156 2.453Zm0 0"/><path fill="#d9f0e7" d="m284.621 164.86 2.8-7.61 9.356 10.063Zm0 0"/><path fill="#daf0e7" d="m283.137 143.813 4.285 13.437-11.195.633Zm0 0"/><path fill="#ed6567" d="m287.422 157.25-2.8 7.61-8.395-6.977Zm0 0"/><path fill="#daf1e8" d="m287.422 157.25-4.285-13.437 16.484 6.933Zm0 0"/><path fill="#23495d" d="m79.613 288.305 19.29 8.504-11.227 11.363Zm0 0"/><path fill="#96dcc9" d="m0 260.887 23.383 2.941L0 295.551Zm0 0"/><path fill="#ef5154" d="m19.906 221.43 11.707-16.864 5.16 10.457Zm0 0"/><path fill="#d9f1e8" d="m22.41 235.04-2.504-13.61 16.867-6.407ZM.012 223.996l19.894-2.566 2.504 13.61Zm0 0"/><path fill="#f04e52" d="M31.613 204.566 19.906 221.43l-7.593-7.504ZM19.906 221.43.012 223.996l12.3-10.07Zm0 0"/><path fill="#d9f1e8" d="m0 260.887 22.41-25.848.973 28.79Zm0 0"/><path fill="#daf1e8" d="M.012 223.996 22.41 235.04 0 260.887Zm0 0"/><path fill="#23495d" d="m287.168 106.723 22.238.21-6.82 8.516Zm0 0"/><path fill="#2b5063" d="m280.203 122.879 6.965-16.156 10.719 16.32Zm0 0"/><path fill="#264b5f" d="m287.168 106.723 15.418 8.726-4.7 7.594Zm0 0"/><path fill="#d9f1e8" d="m270.992 109.29 16.176-2.567-6.965 16.156ZM309.406 106.934l-22.238-.211 6.059-21.051Zm0 0"/><path fill="#daf1e8" d="m287.168 106.723-14.02-18.668 20.079-2.383Zm0 0"/><path fill="#daf1e8" d="m287.168 106.723-16.176 2.566 2.156-21.234Zm0 0"/><path fill="#daf0e7" d="m128.645 60.668-12.293-3.246 14.285-11.461Zm0 0"/><path fill="#f04e52" d="m116.352 57.422 12.293 3.246-9.29 14.902Zm0 0"/><path fill="#f04e52" d="m119.355 75.57 9.29-14.902 11.207 14.512ZM274.832 177.137l-13.898-5.024 15.293-14.23ZM284.621 164.86l-9.789 12.277 1.395-19.254Zm0 0"/><path fill="#ef4f53" d="m260.934 172.113 13.898 5.024-6.82 17.511Zm0 0"/><path fill="#f04e52" d="m274.832 177.137 9.79-12.278.663 12.336ZM274.832 177.137l7.918 13.945-14.738 3.566Zm0 0"/><path fill="#f04e52" d="m274.832 177.137 10.453.058-2.535 13.887Zm0 0"/><path fill="#95dfcb" d="m102.957 284.34-23.344 3.965 10.63-17.47Zm0 0"/><path fill="#94dfcb" d="m102.957 284.34-4.055 12.469-19.289-8.504Zm0 0"/><path fill="#f04e52" d="m102.957 284.34-12.715-13.504 12.922-9.004ZM102.957 284.34l.207-22.508 45.77 4.168ZM12.313 213.926.011 223.996l-.008-16.793Zm0 0"/><path fill="#ef5154" d="m15.016 200.04-2.703 13.886-12.31-6.723Zm0 0"/><path fill="#ec5b5e" d="m12.313 213.926 2.703-13.887 16.597 4.527Zm0 0"/><path fill="#f14e52" d="m128.645 60.668 27.003-2.637-15.796 17.149Zm0 0"/><path fill="#f14e52" d="m139.852 75.18 15.796-17.149 2.915 8.739Zm0 0"/><path fill="#f04e52" d="m155.648 58.031-27.003 2.637 1.992-14.707Zm0 0"/></svg>