<svg xmlns="http://www.w3.org/2000/svg" width="512" height="512" viewBox="0 0 384 384"><path fill="#fdc301" d="M.008 209.105.004 177.48l18.074 11.938Zm0 0"/><path fill="#152946" d="m147.773 367.969-28.789-6.262 12.98-12.258Zm0 0"/><path fill="#172a48" d="m60.84 348.527-15.18 23.82-14.555-24.503Zm0 0"/><path fill="#b7bbc4" d="M87.559 37.258 99.469 0l11.414 46.145Zm0 0"/><path fill="#b8bcc4" d="M100.895 58.484 87.559 37.258l23.324 8.887Zm0 0"/><path fill="#081d3c" d="m220.586 296.621 6.55-26.469 22.747 8.52Zm0 0"/><path fill="#081d3c" d="m227.137 270.152-6.551 26.47-9.113-14.993Zm0 0"/><path fill="#081d3c" d="m220.586 296.621-23.047-8.297 13.934-6.695Zm0 0"/><path fill="#b8bcc4" d="M16.738 150.031 0 95.574l47.074 22.008Zm0 0"/><path fill="#b8bcc5" d="M44.387 67.504 0 95.574V0Zm0 0"/><path fill="#b7bbc4" d="M99.469 0 44.387 67.504 0 0Zm0 0"/><path fill="#fec400" d="m125.133 221.91-24.426-14.48L115.324 193ZM125.133 221.91l16.77-35.05 11.952 51.55Zm0 0"/><path fill="#fec400" d="m141.902 186.86-16.77 35.05-9.808-28.91Zm0 0"/><path fill="#f9f9fa" d="m118.984 361.707-8.238-28.5 21.219 16.242Zm0 0"/><path fill="#fdfdfd" d="m110.746 333.207 8.238 28.5-36.87-20.156Zm0 0"/><path fill="#d0d4d9" d="m116.945 383.98 2.04-22.273 28.788 6.262Zm0 0"/><path fill="#122644" d="m60.84 348.527.308 15.848-15.488 7.973Zm0 0"/><path fill="#f8f9fa" d="m61.148 364.375-.308-15.848 21.273-6.976Zm0 0"/><path fill="#acb2bc" d="m338.684 237.719 14.28-11.356-.32 21.95Zm0 0"/><path fill="#b0b5bf" d="m352.965 226.363-14.281 11.356-13.985-23.41Zm0 0"/><path fill="#c9ccd3" d="m334.395 290.32-2.106-16.52 16.14 13.56Zm0 0"/><path fill="#0d2240" d="m306.91 214.16 13.7-20.984 4.09 21.133Zm0 0"/><path fill="#d2d5da" d="m384 335.777-21.094-25.488L384 282.992Zm0 0"/><path fill="#b8bcc5" d="m87.473 100.605-40.399 16.977-2.687-50.078Zm0 0"/><path fill="#b8bcc5" d="m64.11 71.48 23.363 29.125-43.086-33.101Zm0 0"/><path fill="#b8bcc5" d="M64.11 71.48 92.351 81.7l-4.88 18.905Zm0 0"/><path fill="#b8bcc4" d="M87.559 37.258 64.109 71.48l-19.722-3.976Zm0 0"/><path fill="#b7bbc4" d="m99.469 0-11.91 37.258-43.172 30.246Zm0 0"/><path fill="#b8bcc5" d="M179.742 38.66 149.391 26.8 182.309 0ZM99.469 0l29.851 44.273-18.437 1.872ZM149.39 26.8l-20.07 17.473L99.47 0Zm0 0"/><path fill="#b7bbc4" d="m123.438 124.875 23.187 20.258-18.168-1.7Zm0 0"/><path fill="#b8bcc5" d="m123.438 124.875 28.57-2.508-5.383 22.766ZM327.156 113.25l31.004-26.09-8.281 46.965ZM293.281 88.188l14.836-13.829 9.992 16.668Zm0 0"/><path fill="#b8bcc5" d="m308.117 74.36-15.472-21.774 14.16-3.57Zm0 0"/><path fill="#0c213f" d="m277.375 285.742-5.578-10.14 27.156 8.992Zm0 0"/><path fill="#b9bec7" d="m274.688 332.715 22.343-4.84 6.89 17.523Zm0 0"/><path fill="#112543" d="m271.797 275.602-11.66 21.046-10.254-17.976Zm0 0"/><path fill="#132745" d="m277.375 285.742-17.238 10.906 11.66-21.046Zm0 0"/><path fill="#fdfdfd" d="m260.137 296.648 17.238-10.906.418 24.832Zm0 0"/><path fill="#b8bcc5" d="m384 89.82-9.383 94.438-24.738-50.133Zm0 0"/><path fill="#46556b" d="m271.797 275.602-21.914 3.07 10.863-24.727Zm0 0"/><path fill="#b8bcc5" d="m264.527 121.32-27.53-32.875 33.26 2.887Zm0 0"/><path fill="#b8bbc4" d="m152.008 122.367 30.93-13.582-3.696 10.953Zm0 0"/><path fill="#b8bcc5" d="m180.05 85.473 56.946 2.972-54.059 20.34Zm0 0"/><path fill="#fefefe" d="m236.996 88.445 13.164-19.043 20.098 21.93Zm0 0"/><path fill="#b8bcc5" d="M85.066 127.355 68.754 153.5l-21.68-35.918Zm0 0"/><path fill="#b8bcc4" d="M-.008 154.164 0 95.574l16.738 54.457Zm0 0"/><path fill="#b8bcc5" d="m0 95.574 44.387-28.07 2.687 50.078Zm0 0"/><path fill="#1e314e" d="m60.84 348.527 12.98-20.242 8.293 13.266Zm0 0"/><path fill="#263854" d="m73.82 328.285 36.926 4.922-28.633 8.344Zm0 0"/><path fill="#102442" d="m36.77 288.762 1.343-13.621 12.852 5.55Zm0 0"/><path fill="#e2e4e8" d="m36.77 288.762-11.485-4.723 12.828-8.898Zm0 0"/><path fill="#d5a70a" d="m152.262 265.61-7.946 11.359-23.949-18.864Zm0 0"/><path fill="#bc9710" d="m144.316 276.969 7.946-11.36 4.465 18.5Zm0 0"/><path fill="#fec300" d="m120.367 258.105 4.766-36.195 28.722 16.5Zm0 0"/><path fill="#eeb804" d="m152.262 265.61-31.895-7.505 33.488-19.695Zm0 0"/><path fill="#fec404" d="m125.133 221.91-22.758 13.29-1.668-27.77Zm0 0"/><path fill="#fec300" d="M120.367 258.105 102.375 235.2l22.758-13.289Zm0 0"/><path fill="#081d3b" d="m180.082 201.363 7.566-29.5 29.391 10.317Zm0 0"/><path fill="#0b1f3b" d="m169.492 155.813-1.187-20.075 14.48 11.79Zm0 0"/><path fill="#fec300" d="m179.242 119.738-10.937 16-16.297-13.37Zm0 0"/><path fill="#d5d8de" d="m182.238 383.984 24.16-33.043 16.836 33.043Zm0 0"/><path fill="#1a2e4a" d="m22.313 384 8.792-36.156 14.555 24.504Zm0 0"/><path fill="#4a5a70" d="m31.105 347.844-31.117 36.16-.004-35.211Zm0 0"/><path fill="#2e4059" d="m-.012 384.004 31.117-36.16L22.313 384Zm0 0"/><path fill="#0b203e" d="m110.746 333.207 14.48-11.262 6.739 27.504Zm0 0"/><path fill="#dfe1e5" d="m86.063 365.992 30.882 17.988-40.023.012Zm0 0"/><path fill="#f5f6f7" d="m86.063 365.992-24.915-1.617 20.965-22.824Zm0 0"/><path fill="#dee1e5" d="m61.148 364.375 24.914 1.617-9.14 18Zm0 0"/><path fill="#fcfcfd" d="m118.984 361.707-32.921 4.285-3.95-24.441Zm0 0"/><path fill="#f0f1f3" d="m116.945 383.98-30.882-17.988 32.921-4.285Zm0 0"/><path fill="#e1e3e7" d="M50.621 383.992 22.312 384l23.348-11.652Zm0 0"/><path fill="#f6f7f8" d="m61.148 364.375-10.527 19.617-4.96-11.644Zm0 0"/><path fill="#e0e3e6" d="m50.621 383.992 10.527-19.617 15.774 19.617Zm0 0"/><path fill="#ebedef" d="m183.25 283.59 14.29 4.734-12.376 8.801Zm0 0"/><path fill="#b4b9c2" d="m352.895 269.879-.25-21.567 31.37.043Zm0 0"/><path fill="#1a2d49" d="m320.61 193.176 22.656 9.152-18.567 11.98Zm0 0"/><path fill="#acb1bc" d="m343.266 202.328 9.699 24.035-28.266-12.054Zm0 0"/><path fill="#b1b6c0" d="m384 282.992-31.105-13.113 31.12-21.524Zm0 0"/><path fill="#d3d6dc" d="m332.29 273.8 20.605-3.921-4.465 17.48Zm0 0"/><path fill="#fafafb" d="m313.27 287.023 21.125 3.297-18.778 16.153Zm0 0"/><path fill="#eff0f2" d="m308.57 327.082-11.539.793 18.586-21.402Zm0 0"/><path fill="#102442" d="m303.313 188.09 11.68-10.2 5.616 15.286Zm0 0"/><path fill="#2c3d58" d="m314.992 177.89 29.02-6.046-23.403 21.332Zm0 0"/><path fill="#1f314e" d="m344.012 171.844-.746 30.484-22.657-9.152Zm0 0"/><path fill="#0d213f" d="m271.797 275.602 4.39-17.954 22.766 26.946Zm0 0"/><path fill="#637084" d="m276.188 257.648-4.391 17.954-11.05-21.657Zm0 0"/><path fill="#b1b6c0" d="m306.91 214.16-3.02 26.7-20.226-21.083Zm0 0"/><path fill="#7c8797" d="m303.89 240.86-26.019-.997 5.793-20.086Zm0 0"/><path fill="#b7bbc4" d="m303.89 240.86 3.02-26.7 17.79.149Zm0 0"/><path fill="#bac0c8" d="M262.156 355.984 263.254 384l-24.524-22.406Zm0 0"/><path fill="#979fac" d="m262.156 355.984 12.531-23.27 29.235 12.684Zm0 0"/><path fill="#b6bcc5" d="m223.234 383.984 15.496-22.39L263.254 384Zm0 0"/><path fill="#dadde2" d="m182.238 383.984-3.93-27.558 28.09-5.485Zm0 0"/><path fill="#8b95a3" d="m147.773 367.969 34.465 16.015-65.293-.004Zm0 0"/><path fill="#dddfe4" d="m147.773 367.969 30.536-11.543 3.93 27.558Zm0 0"/><path fill="#152846" d="m178.309 356.426-30.536 11.543-15.808-18.52Zm0 0"/><path fill="#1a2d4a" d="m205.766 320.816 28.007 3.43-27.375 26.695Zm0 0"/><path fill="#081d3c" d="m197.54 288.324 8.226 32.492-20.602-23.691Zm0 0"/><path fill="#081d3c" d="m220.586 296.621-14.82 24.195-8.227-32.492Zm0 0"/><path fill="#b8bcc5" d="M149.39 26.8 99.47 0h82.84Zm0 0"/><path fill="#fec300" d="m64.11 71.48 23.449-34.222 13.336 21.226Zm0 0"/><path fill="#fec400" d="m64.11 71.48 36.785-12.996L92.352 81.7Zm0 0"/><path fill="#b8bcc5" d="m149.39 26.8 30.352 11.86-27.949 6.531Zm0 0"/><path fill="#b7bbc4" d="m151.793 45.191-22.473-.918 20.07-17.472Zm0 0"/><path fill="#b8bcc5" d="m182.309 0 31.53 32.441-34.097 6.22Zm0 0"/><path fill="#b8bcc5" d="M213.84 32.441 195.78 67.055 179.742 38.66ZM356.16 38.156 384 0v89.82ZM340.414 16.605l-7.34-16.609L384 0Zm0 0"/><path fill="#b7bbc4" d="m356.16 38.156-15.746-21.55L384 0Zm0 0"/><path fill="#b8bcc5" d="M358.16 87.16 384 89.82l-34.121 44.305Zm0 0"/><path fill="#babec7" d="m358.16 87.16-31.004 26.09-9.047-22.223Zm0 0"/><path fill="#b8bcc5" d="m322.672 45.637-14.555 28.722-1.312-25.343ZM322.672 45.637l12.726 5.41-27.28 23.312Zm0 0"/><path fill="#b7bbc4" d="m335.398 51.047-1.261-22.137 22.023 9.246Zm0 0"/><path fill="#b1b6c0" d="m334.137 28.91 1.261 22.137-12.726-5.41Zm0 0"/><path fill="#0a1f3d" d="m292.645 52.586 6.207-17.637 7.953 14.067Zm0 0"/><path fill="#fbfbfc" d="m308.117 74.36 50.043 12.8-40.05 3.867Zm0 0"/><path fill="#f1f2f4" d="m277.793 310.574 19.238 17.301-22.344 4.84Zm0 0"/><path fill="#32435d" d="m230.586 305.93-24.82 14.886 14.82-24.195Zm0 0"/><path fill="#0c213f" d="m205.766 320.816 24.82-14.886 3.187 18.316Zm0 0"/><path fill="#f4f4f6" d="m230.586 305.93 24.492 11.437-21.305 6.88Zm0 0"/><path fill="#b7bbc4" d="m320.902 151.11-15.363 7.308.113-18.48Zm0 0"/><path fill="#b7bbc4" d="m305.54 158.418 15.362-7.309-5.91 26.782Zm0 0"/><path fill="#081d3c" d="m277.871 239.863-1.683 17.785-15.442-3.703Zm0 0"/><path fill="#0b203f" d="m277.871 239.863-17.125 14.082 4.024-29.988Zm0 0"/><path fill="#112542" d="m234.488 260.094 26.258-6.149-10.863 24.727Zm0 0"/><path fill="#0f2340" d="m227.137 270.152 7.351-10.058 15.395 18.578Zm0 0"/><path fill="#102440" d="m234.488 260.094 15.004-15.867 11.254 9.718Zm0 0"/><path fill="#eff0f2" d="m208.54 269.73 18.597.422-15.664 11.477Zm0 0"/><path fill="#0d213f" d="m277.871 239.863-13.101-15.906 18.894-4.18Zm0 0"/><path fill="#3e412e" d="m264.77 223.957 10.125-19.582 8.77 15.402Zm0 0"/><path fill="#b8bcc5" d="m154.895 97.27 25.156-11.797 2.887 23.312ZM152.008 122.367l2.887-25.097 28.042 11.515Zm0 0"/><path fill="#fefefe" d="m282.094 71.531 11.187 16.656-23.023 3.145Zm0 0"/><path fill="#fefefe" d="M293.281 88.188 282.094 71.53l26.023 2.828Zm0 0"/><path fill="#b8bcc5" d="m282.094 71.531-8.824-20.61 19.375 1.665Zm0 0"/><path fill="#b8bcc5" d="m308.117 74.36-26.023-2.829 10.55-18.945ZM273.27 50.922l-23.11 18.48 7.684-32.27ZM282.094 71.531l-31.934-2.129 23.11-18.48Zm0 0"/><path fill="#fefefe" d="m250.16 69.402 31.934 2.13-11.836 19.8Zm0 0"/><path fill="#b7bbc4" d="m277.559 38.367-4.29 12.555-15.425-13.79Zm0 0"/><path fill="#081d3c" d="m273.27 50.922 4.289-12.555 15.086 14.219ZM277.559 38.367l21.293-3.418-6.207 17.637Zm0 0"/><path fill="#b8bcc5" d="m277.559 38.367-19.715-1.234 29.89-28.961Zm0 0"/><path fill="#081d3c" d="m298.852 34.95-21.293 3.417 10.175-30.195Zm0 0"/><path fill="#b8bcc5" d="m9.547 165.691-9.543 11.79-.012-23.317Zm0 0"/><path fill="#fbc309" d="m.004 177.48 15.61 2.024 2.464 9.914Zm0 0"/><path fill="#091e3d" d="m9.547 165.691 6.066 13.813-15.61-2.024Zm0 0"/><path fill="#081d3c" d="M15.613 179.504 9.547 165.69l11.41 1.098Zm0 0"/><path fill="#fdfdfe" d="m62.445 183.559-26.39-14.293L68.754 153.5Zm0 0"/><path fill="#58667b" d="m49.652 324.676 11.188 23.851-29.735-.683Zm0 0"/><path fill="#4f5e74" d="m49.652 324.676 24.168 3.61-12.98 20.241Zm0 0"/><path fill="#d1d4da" d="m29.348 323.215 20.304 1.46-18.547 23.169Zm0 0"/><path fill="#c7ccd3" d="m49.652 324.676-20.304-1.461 10.062-14.883Zm0 0"/><path fill="#dfe1e5" d="m36.77 288.762-15.278 18.55 3.793-23.273Zm0 0"/><path fill="#122644" d="m21.492 307.313 15.278-18.551 2.64 19.57Zm0 0"/><path fill="#dfe1e5" d="m29.348 323.215-7.856-15.902 17.918 1.019Zm0 0"/><path fill="#fbc101" d="m30.383 204.309-12.305-14.891 19.418-2.98Zm0 0"/><path fill="#fdfdfd" d="m62.445 183.559 6.309-30.059 28.055 27.828Zm0 0"/><path fill="#243651" d="m100.707 207.43-17.14-5.477 13.242-20.625Zm0 0"/><path fill="#babec7" d="m83.566 201.953-21.12-18.394 34.363-2.23Zm0 0"/><path fill="#b5b9c3" d="m62.445 183.559 21.121 18.394-24.23-9.945Zm0 0"/><path fill="#bb9610" d="m152.262 265.61 8.836 5.285-4.371 13.214Zm0 0"/><path fill="#cca20e" d="m161.098 270.895 22.152 12.695-26.523.52Zm0 0"/><path fill="#deae07" d="m170.973 249.2-9.875 21.695-8.836-5.286Zm0 0"/><path fill="#fec817" d="m102.375 235.2-13.215-3.63 11.547-24.14Zm0 0"/><path fill="#979eab" d="m89.16 231.57-5.594-29.617 17.141 5.477Zm0 0"/><path fill="#939aa8" d="m83.566 201.953 5.594 29.617-22.027-8.75Zm0 0"/><path fill="#fec300" d="m86.777 253.883 15.598-18.684 17.992 22.906Zm0 0"/><path fill="#f3bc03" d="m89.945 269.61-3.168-15.727 33.59 4.222Zm0 0"/><path fill="#bbbfc7" d="m146.625 145.133-2.355 20.57-15.813-22.27Zm0 0"/><path fill="#b8bcc5" d="m264.527 121.32-15.261 9.024-12.27-41.899ZM182.938 108.785l29.832 37.848-33.528-26.895Zm0 0"/><path fill="#b7bbc4" d="m152.008 122.367 5.41 22.094-10.793.672Zm0 0"/><path fill="#fec300" d="m157.418 144.46-13.148 21.243 2.355-20.57ZM144.27 165.703l13.148-21.242 12.074 11.351Zm0 0"/><path fill="#bdc3cb" d="m-.012 331.785 29.36-8.57 1.757 24.629Zm0 0"/><path fill="#172a47" d="m157.813 330.41 20.496 26.016-46.344-6.977Zm0 0"/><path fill="#091e3d" d="m125.227 321.945 32.585 8.465-25.847 19.04Zm0 0"/><path fill="#e8b405" d="m153.855 238.41 17.118 10.79-18.711 16.41Zm0 0"/><path fill="#e7b406" d="m153.855 238.41 21.852-10.586-4.734 21.375Zm0 0"/><path fill="#adb2bc" d="m352.965 226.363 31.027-37.707.024 59.7Zm0 0"/><path fill="#a5abb6" d="m352.645 248.313.32-21.95 31.05 21.992Zm0 0"/><path fill="#d2d5da" d="m384 282.992-35.57 4.367 4.465-17.48Zm0 0"/><path fill="#dee0e4" d="m348.43 287.36 35.57-4.368-21.094 27.297Zm0 0"/><path fill="#233551" d="m306.91 214.16-3.598-26.07 17.297 5.086Zm0 0"/><path fill="#929aa8" d="m302.313 127.367 15.582 2.348-12.243 10.222Zm0 0"/><path fill="#979eab" d="m317.895 129.715 3.007 21.394-15.25-11.172Zm0 0"/><path fill="#b7bbc4" d="m374.617 184.258-30.605-12.414 5.867-37.719Zm0 0"/><path fill="#afb4be" d="m320.902 151.11 23.11 20.734-29.02 6.047Zm0 0"/><path fill="#b7bcc5" d="m263.254 384 40.668-38.602 53.191 10.559Zm0 0"/><path fill="#b5b9c3" d="m343.645 323.953 13.468 32.004-53.191-10.559Zm0 0"/><path fill="#c4c7cf" d="m303.922 345.398-6.89-17.523 11.538-.793Zm0 0"/><path fill="#cfd3d9" d="M303.922 345.398 263.254 384l-1.098-28.016Zm0 0"/><path fill="#d6d9de" d="m238.73 361.594-15.496 22.39-16.836-33.043Zm0 0"/><path fill="#c3c6cb" d="m233.773 324.246 4.957 37.348-32.332-10.653Zm0 0"/><path fill="#152946" d="m178.309 356.426 27.457-35.61.632 30.125Zm0 0"/><path fill="#081d3c" d="m205.766 320.816-27.457 35.61 6.855-59.301Zm0 0"/><path fill="#081d3c" d="m178.309 356.426-20.496-26.016 27.351-33.285Zm0 0"/><path fill="#b7bbc4" d="m85.066 127.355 2.407-26.75 35.965 24.27Zm0 0"/><path fill="#b7bbc4" d="m87.473 100.605-2.407 26.75-37.992-9.773Zm0 0"/><path fill="#b8bcc4" d="m110.656 59.59-9.761-1.106 9.988-12.34Zm0 0"/><path fill="#b8bcc5" d="M284.293 0 213.84 32.441 182.309 0ZM121.652 78.422l15.45 10.648-9.274 15.387ZM127.828 104.457l27.067-7.187-2.887 25.097Zm0 0"/><path fill="#b7bbc4" d="m123.438 124.875 4.39-20.418 24.18 17.91Zm0 0"/><path fill="#b8bcc5" d="m127.828 104.457-4.39 20.418-35.965-24.27ZM127.828 104.457l9.274-15.387 17.793 8.2ZM384 89.82l-25.84-2.66-2-49.004Zm0 0"/><path fill="#091e3d" d="m317.77 36 4.902 9.637-15.867 3.379Zm0 0"/><path fill="#b8bcc5" d="m358.16 87.16-22.762-36.113 20.762-12.89Zm0 0"/><path fill="#b8bcc5" d="M335.398 51.047 358.16 87.16l-50.043-12.8Zm0 0"/><path fill="#edeef0" d="m297.031 327.875-.41-26.535 18.996 5.133Zm0 0"/><path fill="#f7f8f9" d="m296.621 301.34 16.649-14.317 2.347 19.45Zm0 0"/><path fill="#fcfcfc" d="m277.375 285.742 19.246 15.598-18.828 9.234Zm0 0"/><path fill="#ecedf0" d="m296.621 301.34.41 26.535-19.238-17.3Zm0 0"/><path fill="#f9fafa" d="m296.621 301.34-19.246-15.598 21.578-1.148Zm0 0"/><path fill="#f7f8f9" d="M313.27 287.023 296.62 301.34l2.332-16.746Zm0 0"/><path fill="#fcfcfd" d="m255.078 317.367 22.715-6.793-3.106 22.14Zm0 0"/><path fill="#fcfcfc" d="m255.078 317.367 5.059-20.719 17.656 13.926Zm0 0"/><path fill="#b2b7c0" d="m285.602 140.895 16.71-13.528 3.34 12.57Zm0 0"/><path fill="#b6bac4" d="m285.602 140.895-15.57-11.043 32.28-2.485Zm0 0"/><path fill="#b6bbc4" d="m303.313 188.09-1.508-17.856 13.187 7.657Zm0 0"/><path fill="#b7bbc4" d="m301.805 170.234 3.734-11.816 9.453 19.473Zm0 0"/><path fill="#091d3c" d="m301.805 170.234 1.507 17.856-21.398-5.824Zm0 0"/><path fill="#f4bc02" d="m245.27 147.645 24.761-17.793-1.281 23.937Zm0 0"/><path fill="#e1b007" d="m245.078 238.516 4.414 5.71-15.004 15.868Zm0 0"/><path fill="#0c203e" d="m260.746 253.945-11.254-9.718 15.278-20.27Zm0 0"/><path fill="#a58715" d="m211.707 254.313 22.781 5.78-7.351 10.06Zm0 0"/><path fill="#c0990f" d="m208.54 269.73 3.167-15.418 15.43 15.84Zm0 0"/><path fill="#091e3b" d="m192.793 273.766-31.695-2.871 9.875-21.696Zm0 0"/><path fill="#0b203e" d="m161.098 270.895 31.695 2.87-9.543 9.825Zm0 0"/><path fill="#fdfcf9" d="m192.793 273.766 15.746-4.036 2.934 11.899Zm0 0"/><path fill="#f2f2f1" d="m197.54 288.324-4.747-14.558 18.68 7.863Zm0 0"/><path fill="#f0f0ef" d="m183.25 283.59 9.543-9.824 4.746 14.558Zm0 0"/><path fill="#d0be81" d="m217.04 182.18-11.048 33.656-25.91-14.473Zm0 0"/><path fill="#fec300" d="m217.04 182.18-4.977-26.922 23.109 21.226Zm0 0"/><path fill="#fec300" d="m212.063 155.258 33.207-7.613-10.098 28.84Zm0 0"/><path fill="#081d3b" d="m255.973 196.145 8.797 27.812-21.157-6.047Zm0 0"/><path fill="#fec300" d="m245.27 147.645 22.457 34.707-32.555-5.868Zm0 0"/><path fill="#b9bdc5" d="m195.781 67.055-21.797-.852 5.758-27.543Zm0 0"/><path fill="#b8bcc5" d="M213.84 32.441 284.293 0l-26.45 37.133ZM16.738 150.031l-7.191 15.66-9.555-11.527ZM9.547 165.691l7.191-15.66 4.219 16.758Zm0 0"/><path fill="#081d3c" d="m27.457 175.34-11.844 4.164 5.344-12.715Zm0 0"/><path fill="#c5c9d1" d="m36.055 169.266-8.598 6.074-6.5-8.55Zm0 0"/><path fill="#fdc304" d="m15.613 179.504 11.844-4.164-9.379 14.078Zm0 0"/><path fill="#fcc304" d="m18.078 189.418 9.379-14.078 10.04 11.097Zm0 0"/><path fill="#43536b" d="m49.652 324.676 10.258-16.309 13.91 19.918Zm0 0"/><path fill="#dbdee2" d="m59.91 308.367-10.258 16.309-10.242-16.344Zm0 0"/><path fill="#0f2442" d="m59.91 308.367-23.14-19.605 14.195-8.07Zm0 0"/><path fill="#122644" d="m36.77 288.762 23.14 19.605-20.5-.035Zm0 0"/><path fill="#2e405a" d="m86.777 253.883-12.793 14.394-6.105-23.175Zm0 0"/><path fill="#fefefe" d="m73.984 268.277 12.793-14.394 3.168 15.726Zm0 0"/><path fill="#b2b9c2" d="m-.012 331.785 21.504-24.473 7.856 15.903Zm0 0"/><path fill="#eeeff1" d="M21.492 307.313-.012 331.785l11.782-45.941Zm0 0"/><path fill="#f9bf01" d="M30.383 204.309.008 209.105l18.07-19.687Zm0 0"/><path fill="#b6bac3" d="m35.816 220.07 31.317 2.75.746 22.282Zm0 0"/><path fill="#fbfbfb" d="m68.754 153.5 27.238-4.582.817 32.41Zm0 0"/><path fill="#b8bcc5" d="m95.992 148.918 27.445-24.043 5.02 18.559ZM95.992 148.918 68.754 153.5l16.312-26.145Zm0 0"/><path fill="#b8bcc4" d="m95.992 148.918-10.926-21.563 38.372-2.48Zm0 0"/><path fill="#b0b4be" d="m67.133 222.82 22.027 8.75-21.281 13.532Zm0 0"/><path fill="#314157" d="m89.16 231.57-2.383 22.313-18.898-8.781Zm0 0"/><path fill="#fec509" d="m86.777 253.883 2.383-22.313 13.215 3.63Zm0 0"/><path fill="#fec300" d="m205.992 215.836-30.285 11.988 4.375-26.46Zm0 0"/><path fill="#bcc1c9" d="m144.27 165.703-47.461 15.625 31.648-37.894Zm0 0"/><path fill="#fdfdfd" d="m96.809 181.328-.817-32.41 32.465-5.484Zm0 0"/><path fill="#b8bcc4" d="m212.77 146.633 36.496-16.29-3.996 17.302Zm0 0"/><path fill="#fec300" d="m212.063 155.258.707-8.625 32.5 1.012Zm0 0"/><path fill="#081d3b" d="m187.648 171.863 24.415-16.605 4.976 26.922Zm0 0"/><path fill="#fec300" d="m182.785 147.527 29.278 7.73-24.415 16.606Zm0 0"/><path fill="#fec300" d="m212.063 155.258-29.278-7.73 29.985-.895Zm0 0"/><path fill="#b8bcc5" d="m249.266 130.344-66.328-21.559 54.058-20.34ZM212.77 146.633l-29.833-37.848 66.329 21.559Zm0 0"/><path fill="#0c203a" d="m168.305 135.738-10.887 8.723-5.41-22.094Zm0 0"/><path fill="#be980f" d="m157.418 144.46 10.887-8.722 1.187 20.075Zm0 0"/><path fill="#3d4d65" d="m-.012 331.785 31.117 16.059-31.12.949Zm0 0"/><path fill="#d4a70a" d="m144.316 276.969-13.144 9.457-10.805-28.32Zm0 0"/><path fill="#1a2e4a" d="m73.82 328.285 14.907-21.433 22.02 26.355Zm0 0"/><path fill="#081d3c" d="m88.727 306.852 36.5 15.093-14.48 11.262ZM88.727 306.852l43.148-2.11-6.648 17.203Zm0 0"/><path fill="#122644" d="m157.813 330.41.14-31.16 27.211-2.125Zm0 0"/><path fill="#eeeff1" d="m157.953 299.25 25.297-15.66 1.914 13.535Zm0 0"/><path fill="#faf9f6" d="m183.25 283.59-25.297 15.66-1.226-15.14Zm0 0"/><path fill="#b7bbc4" d="m383.992 188.656-9.375-4.398L384 89.82Zm0 0"/><path fill="#081d3c" d="m274.895 204.375 17.894.465-9.125 14.937Zm0 0"/><path fill="#091e3c" d="m292.79 204.84 14.12 9.32-23.246 5.617Zm0 0"/><path fill="#0c203c" d="m292.79 204.84 10.522-16.75 3.598 26.07Zm0 0"/><path fill="#fcc200" d="m303.313 188.09-10.524 16.75-10.875-22.574Zm0 0"/><path fill="#b7bbc4" d="m317.895 129.715 31.984 4.41-28.977 16.984Zm0 0"/><path fill="#b7bbc4" d="m349.879 134.125-5.867 37.719-23.11-20.735Zm0 0"/><path fill="#b8bcc5" d="m349.879 134.125-31.984-4.41 9.261-16.465Zm0 0"/><path fill="#e7e8eb" d="m321.805 253.688 15.617-1.149-5.133 21.262Zm0 0"/><path fill="#aab0ba" d="m337.422 252.54 1.262-14.821 13.96 10.594Zm0 0"/><path fill="#bec2cb" d="m352.895 269.879-15.473-17.34 15.223-4.226Zm0 0"/><path fill="#d6d9de" d="m337.422 252.54 15.473 17.339-20.606 3.922Zm0 0"/><path fill="#bcc1c9" d="m338.684 237.719-13.352 5.488-.633-28.898Zm0 0"/><path fill="#babec7" d="m325.332 243.207-21.441-2.348 20.808-26.55Zm0 0"/><path fill="#b2b7c1" d="m337.422 252.54-12.09-9.333 13.352-5.488Zm0 0"/><path fill="#cbced4" d="m325.332 243.207 12.09 9.332-15.617 1.149Zm0 0"/><path fill="#f3f4f5" d="m313.27 287.023 19.02-13.222 2.105 16.52Zm0 0"/><path fill="#405068" d="m303.89 240.86-27.702 16.788 1.683-17.785Zm0 0"/><path fill="#cbced4" d="m303.89 240.86 21.442 2.347-3.527 10.48Zm0 0"/><path fill="#d7d9de" d="m343.645 323.953 19.261-13.664L384 335.777Zm0 0"/><path fill="#b8bcc5" d="M357.113 355.957 384 335.777l.012 48.22Zm0 0"/><path fill="#b3b8c1" d="m357.113 355.957 26.899 28.04-120.758.003Zm0 0"/><path fill="#bcc0c8" d="m357.113 355.957-13.468-32.004L384 335.777Zm0 0"/><path fill="#d5d7dd" d="m343.645 323.953 4.785-36.594 14.476 22.93Zm0 0"/><path fill="#d9dbe0" d="m343.645 323.953-28.028-17.48 18.778-16.153Zm0 0"/><path fill="#dadce1" d="m348.43 287.36-4.785 36.593-9.25-33.633Zm0 0"/><path fill="#bbc0c6" d="m233.773 324.246 18.563 10.977-13.606 26.37Zm0 0"/><path fill="#b3b8c1" d="m252.336 335.223 9.82 20.761-23.426 5.61Zm0 0"/><path fill="#b3b9c2" d="m262.156 355.984-9.82-20.761 22.351-2.508Zm0 0"/><path fill="#f6f7f7" d="m255.078 317.367-2.742 17.856-18.563-10.977Zm0 0"/><path fill="#f6f6f7" d="m252.336 335.223 2.742-17.856 19.61 15.348Zm0 0"/><path fill="#fbc101" d="m100.895 58.484 10.293 14.157-18.836 9.058Zm0 0"/><path fill="#babcc1" d="m110.656 59.59.531 13.05-10.292-14.156Zm0 0"/><path fill="#091e3c" d="m123.035 70.98-11.847 1.66-.532-13.05Zm0 0"/><path fill="#081d3c" d="m111.188 72.64 11.847-1.66-1.383 7.442Zm0 0"/><path fill="#b8bcc5" d="M195.781 67.055 213.84 32.44l36.32 36.961Zm0 0"/><path fill="#b8bcc5" d="m250.16 69.402-36.32-36.96 44.004 4.69Zm0 0"/><path fill="#b7bbc4" d="m286.59 102.555-16.559 27.297-5.504-8.532Zm0 0"/><path fill="#c2c5cd" d="m293.281 88.188-6.691 14.367-16.332-11.223Zm0 0"/><path fill="#b8bcc5" d="m286.59 102.555-22.063 18.765 5.73-29.988Zm0 0"/><path fill="#b7bbc4" d="m334.137 28.91 6.277-12.305 15.746 21.551Zm0 0"/><path fill="#091e3c" d="m317.77 36 16.367-7.09-11.465 16.727Zm0 0"/><path fill="#b8bcc5" d="m284.293 0 3.441 8.172-29.89 28.96Zm0 0"/><path fill="#081d3c" d="m312.93 23.375-14.078 11.574-11.118-26.777Zm0 0"/><path fill="#fcfcfc" d="m255.078 317.367-24.492-11.437 29.55-9.282Zm0 0"/><path fill="#0a1f3e" d="m260.137 296.648-29.551 9.282 19.297-27.258Zm0 0"/><path fill="#081d3c" d="m230.586 305.93-10-9.309 29.297-17.95Zm0 0"/><path fill="#b7bbc4" d="m305.54 158.418-10.517-9.32 10.63-9.16ZM295.023 149.098l-9.421-8.203 20.05-.958Zm0 0"/><path fill="#dcac08" d="m249.492 244.227-4.414-5.711 19.692-14.559Zm0 0"/><path fill="#bd970f" d="m264.77 223.957-19.692 14.559-1.465-20.606Zm0 0"/><path fill="#efb903" d="m222.063 229.02 21.55-11.11 1.465 20.606Zm0 0"/><path fill="#c99f0c" d="m197.246 259 14.461-4.687-3.168 15.417Zm0 0"/><path fill="#c69d0d" d="M192.793 273.766 197.246 259l11.293 10.73Zm0 0"/><path fill="#eab604" d="M175.707 227.824 197.247 259l-26.274-9.8Zm0 0"/><path fill="#091e3c" d="m197.246 259-4.453 14.766-21.82-24.567Zm0 0"/><path fill="#fec300" d="m217.04 182.18 26.573 35.73-37.62-2.074Zm0 0"/><path fill="#081d3b" d="m255.973 196.145 18.922 8.23-10.125 19.582Zm0 0"/><path fill="#f1ba03" d="m274.895 204.375-18.922-8.23 11.754-13.793Zm0 0"/><path fill="#eeb903" d="m292.79 204.84-25.063-22.488 14.187-.086Zm0 0"/><path fill="#f8bf01" d="m267.727 182.352 25.062 22.488-17.894-.465Zm0 0"/><path fill="#f5bd02" d="m255.973 196.145-20.801-19.66 32.555 5.867Zm0 0"/><path fill="#fbfcfc" d="m173.984 66.203 21.797.852-15.73 18.418Zm0 0"/><path fill="#fefefe" d="m236.996 88.445-41.215-21.39 54.38 2.347Zm0 0"/><path fill="#fdfdfe" d="m180.05 85.473 15.731-18.418 41.215 21.39Zm0 0"/><path fill="#b7bbc4" d="m16.738 150.031 15.047 5.442-10.828 11.316Zm0 0"/><path fill="#b7bbc4" d="m47.074 117.582-15.289 37.89-15.047-5.44Zm0 0"/><path fill="#b8bcc4" d="m31.785 155.473 15.29-37.891L68.753 153.5Zm0 0"/><path fill="#b7bbc4" d="m31.785 155.473 4.27 13.793-15.098-2.477ZM36.055 169.266l-4.27-13.793 36.969-1.973Zm0 0"/><path fill="#b9bdc6" d="m59.336 192.008-21.84-5.57 24.95-2.88Zm0 0"/><path fill="#babec7" d="m37.496 186.438-1.441-17.172 26.39 14.293Zm0 0"/><path fill="#bbbec6" d="M37.496 186.438 27.457 175.34l8.598-6.074Zm0 0"/><path fill="#192d4a" d="m49.457 253.02 24.527 15.257-23.02 12.414Zm0 0"/><path fill="#112543" d="m38.113 275.14 11.344-22.12 1.508 27.671Zm0 0"/><path fill="#b6bbc4" d="m49.457 253.02-13.64-32.95 32.062 25.032Zm0 0"/><path fill="#1f324e" d="M73.984 268.277 49.457 253.02l18.422-7.918Zm0 0"/><path fill="#213450" d="m59.91 308.367 28.817-1.515-14.907 21.433Zm0 0"/><path fill="#eeeff1" d="m.008 262.926 11.762 22.918-11.782 45.941Zm0 0"/><path fill="#e3e5e8" d="m21.492 307.313-9.722-21.47 13.515-1.804Zm0 0"/><path fill="#f9f9f9" d="m25.285 284.04-4.379-20.036 17.207 11.137Zm0 0"/><path fill="#fec400" d="m141.902 186.86 33.805 40.964-21.852 10.586Zm0 0"/><path fill="#fec300" d="m180.082 201.363-4.375 26.461-33.805-40.965Zm0 0"/><path fill="#abb2bd" d="M115.324 193 96.81 181.328l47.46-15.625Zm0 0"/><path fill="#4e5d73" d="m115.324 193-14.617 14.43-3.898-26.102Zm0 0"/><path fill="#fec300" d="m270.031 129.852-20.765.492 15.261-9.024Zm0 0"/><path fill="#fec300" d="m249.266 130.344 20.765-.492-24.761 17.793Zm0 0"/><path fill="#f0ba03" d="m187.648 171.863-18.156-16.05 13.293-8.286Zm0 0"/><path fill="#fec300" d="m187.648 171.863-43.378-6.16 25.222-9.89ZM182.785 147.527l-1.078-16.46 31.063 15.566Zm0 0"/><path fill="#091d3b" d="m168.305 135.738 13.402-4.672 1.078 16.461Zm0 0"/><path fill="#b8bcc4" d="m212.77 146.633-31.063-15.567-2.465-11.328Zm0 0"/><path fill="#081d3b" d="m181.707 131.066-13.402 4.672 10.937-16Zm0 0"/><path fill="#cca10c" d="m131.172 286.426-28.875-4.196 18.07-24.125Zm0 0"/><path fill="#fbfbfa" d="m102.297 282.23 28.875 4.196.703 18.316Zm0 0"/><path fill="#c59d0e" d="m146.39 287.516-2.074-10.547 12.41 7.14Zm0 0"/><path fill="#dbac0c" d="m146.39 287.516-15.218-1.09 13.144-9.457Zm0 0"/><path fill="#fbf9f4" d="m157.953 299.25-11.562-11.734 10.336-3.407Zm0 0"/><path fill="#4a596f" d="m344.012 171.844 30.605 12.414-31.351 18.07Zm0 0"/><path fill="#abb0bb" d="m343.266 202.328 31.351-18.07-21.652 42.105Zm0 0"/><path fill="#b2b6c0" d="m374.617 184.258 9.375 4.398-31.027 37.707Zm0 0"/><path fill="#21344f" d="m312.566 118.797 5.329 10.918-15.582-2.348Zm0 0"/><path fill="#1e314d" d="m312.566 118.797 14.59-5.547-9.261 16.465Zm0 0"/><path fill="#f0f1f3" d="m332.29 273.8-24.567-18.695 14.082-1.417Zm0 0"/><path fill="#c5c9d0" d="m307.723 255.105-3.832-14.246 17.914 12.828Zm0 0"/><path fill="#b8bdc5" d="m303.89 240.86 3.833 14.245-31.536 2.543Zm0 0"/><path fill="#f9fafa" d="m276.188 257.648 31.535-2.543-8.77 29.489Zm0 0"/><path fill="#ecedef" d="m307.723 255.105 5.547 31.918-14.317-2.43Zm0 0"/><path fill="#f3f3f5" d="m307.723 255.105 24.566 18.696-19.02 13.222Zm0 0"/><path fill="#e0e2e6" d="m315.617 306.473 28.028 17.48-35.075 3.129Zm0 0"/><path fill="#c2c5cd" d="m308.57 327.082 35.075-3.129-39.723 21.445Zm0 0"/><path fill="#091e3d" d="m123.035 70.98 19.692 8.68-21.075-1.238Zm0 0"/><path fill="#b8bcc5" d="m142.727 79.66-5.625 9.41-15.45-10.648Zm0 0"/><path fill="#b8bcc4" d="m129.32 44.273-1.601 11.754-16.836-9.882Zm0 0"/><path fill="#fec300" d="m151.793 45.191-24.074 10.836 1.601-11.754Zm0 0"/><path fill="#b8bcc5" d="m92.352 81.7 16.41 6.706-21.29 12.2Zm0 0"/><path fill="#b9bcc5" d="m111.188 72.64-2.426 15.766-16.41-6.707Zm0 0"/><path fill="#b8bcc5" d="m108.762 88.406 19.066 16.051-40.355-3.852Zm0 0"/><path fill="#b8bcc5" d="m108.762 88.406 12.89-9.984 6.176 26.035Zm0 0"/><path fill="#b9bdc6" d="m108.762 88.406 2.425-15.765 10.465 5.78Zm0 0"/><path fill="#081d3c" d="M329.977 20.668 317.77 36l-4.84-12.625Zm0 0"/><path fill="#b4b8c2" d="m329.977 20.668 10.437-4.063-6.277 12.305Zm0 0"/><path fill="#091e3d" d="m317.77 36 12.207-15.332 4.16 8.242Zm0 0"/><path fill="#b7bbc4" d="m325.52 11.137-37.786-2.965L284.293 0Zm0 0"/><path fill="#081d3c" d="m325.52 11.137 4.457 9.531-17.047 2.707Zm0 0"/><path fill="#b5bac3" d="m329.977 20.668-4.457-9.531 14.894 5.468Zm0 0"/><path fill="#b7bbc4" d="M325.52 11.137 284.293 0l48.781-.004ZM340.414 16.605l-14.894-5.468 7.554-11.14Zm0 0"/><path fill="#081d3c" d="M298.852 34.95 317.77 36l-10.965 13.016Zm0 0"/><path fill="#081d3c" d="M312.93 23.375 317.77 36l-18.918-1.05ZM270.031 129.852l15.57 11.043-16.851 12.894ZM211.707 254.313l12.89-11.364 9.891 17.145Zm0 0"/><path fill="#0c203c" d="m224.598 242.95 20.48-4.434-10.59 21.578Zm0 0"/><path fill="#0b203e" d="m224.598 242.95-2.536-13.93 23.016 9.496Zm0 0"/><path fill="#f3bb02" d="m222.063 229.02-16.07-13.184 37.62 2.074Zm0 0"/><path fill="#fec300" d="m243.613 217.91-26.574-35.73 18.133-5.696ZM243.613 217.91l-8.441-41.426 20.8 19.66Zm0 0"/><path fill="#091e3c" d="m280.773 175.531 21.032-5.297-19.89 12.032Zm0 0"/><path fill="#f7be01" d="m267.727 182.352 13.046-6.82 1.141 6.734Zm0 0"/><path fill="#b8bcc5" d="m284.48 157.336 10.543-8.238 10.516 9.32Zm0 0"/><path fill="#b7bbc4" d="m301.805 170.234-17.325-12.898 21.06 1.082Zm0 0"/><path fill="#081d3c" d="m159.766 78.574-17.04 1.086 12.243-8.195Zm0 0"/><path fill="#b8bcc5" d="m154.895 97.27-17.793-8.2 5.625-9.41Zm0 0"/><path fill="#b8bcc5" d="m154.895 97.27-12.168-17.61 17.039-1.086Zm0 0"/><path fill="#081d3c" d="m173.984 66.203-14.218 12.371-4.797-7.11Zm0 0"/><path fill="#b8bcc5" d="m154.895 97.27 4.87-18.696 20.286 6.899Zm0 0"/><path fill="#f4f5f6" d="m159.766 78.574 14.218-12.37 6.067 19.269Zm0 0"/><path fill="#fec300" d="m151.793 45.191 22.191 21.012-19.015 5.262Zm0 0"/><path fill="#b8bcc5" d="m173.984 66.203-22.191-21.012 27.95-6.53Zm0 0"/><path fill="#fefefd" d="m77.273 283.719-3.289-15.442 15.961 1.332Zm0 0"/><path fill="#132744" d="m73.984 268.277 3.29 15.442-26.31-3.028Zm0 0"/><path fill="#273954" d="M77.273 283.719 59.91 308.367l-8.945-27.676Zm0 0"/><path fill="#152846" d="m77.273 283.719 11.454 23.133-28.817 1.515Zm0 0"/><path fill="#edeeef" d="m11.77 285.844 9.136-21.84 4.38 20.035Zm0 0"/><path fill="#f1f1f2" d="m20.906 264.004-9.136 21.84L.008 262.926Zm0 0"/><path fill="#102442" d="m33.11 255.559 16.347-2.54-11.344 22.122Zm0 0"/><path fill="#102542" d="m20.906 264.004 12.203-8.445 5.004 19.582Zm0 0"/><path fill="#b3b8c1" d="m49.457 253.02-16.348 2.539 2.707-35.489Zm0 0"/><path fill="#695e24" d="m8.328 216.445-8.32-7.34 30.375-4.796Zm0 0"/><path fill="#b3b8c1" d="m46.855 205.594 12.48-13.586 7.798 30.812Zm0 0"/><path fill="#b2b7c0" d="m59.336 192.008 24.23 9.945-16.433 20.867Zm0 0"/><path fill="#b2b7c1" d="m46.855 205.594 20.278 17.226-31.317-2.75Zm0 0"/><path fill="#0e213b" d="m30.383 204.309 16.472 1.285-11.039 14.476Zm0 0"/><path fill="#a28617" d="m46.855 205.594-16.472-1.285 7.113-17.871Zm0 0"/><path fill="#0a1e3d" d="m59.336 192.008-12.48 13.586-9.36-19.156Zm0 0"/><path fill="#081d3b" d="m141.902 186.86 45.746-14.997-7.566 29.5Zm0 0"/><path fill="#fdc405" d="m144.27 165.703-2.368 21.156L115.324 193Zm0 0"/><path fill="#081d3b" d="m187.648 171.863-45.746 14.996 2.368-21.156Zm0 0"/><path fill="#081d3c" d="m131.875 304.742 26.078-5.492-.14 31.16Zm0 0"/><path fill="#f9f9f9" d="m131.875 304.742 14.516-17.226 11.562 11.734Zm0 0"/><path fill="#081d3c" d="m131.875 304.742 25.938 25.668-32.586-8.465Zm0 0"/><path fill="#fcfcfb" d="m146.39 287.516-14.515 17.226-.703-18.316Zm0 0"/><path fill="#b6bac4" d="m327.156 113.25-23.336-8.355 14.29-13.868Zm0 0"/><path fill="#0e2341" d="m312.566 118.797-8.746-13.902 23.336 8.355Zm0 0"/><path fill="#fec300" d="m127.719 56.027-4.684 14.953-12.379-11.39Zm0 0"/><path fill="#b8bcc5" d="m127.719 56.027-17.063 3.563.227-13.445Zm0 0"/><path fill="#091e3d" d="m325.52 11.137-12.59 12.238-25.196-15.203Zm0 0"/><path fill="#e9b505" d="m205.992 215.836-3.11 25.789-27.175-13.8Zm0 0"/><path fill="#e6b305" d="M202.883 241.625 197.246 259l-21.539-31.176Zm0 0"/><path fill="#e2b006" d="m197.246 259 5.637-17.375 8.824 12.688Zm0 0"/><path fill="#081d3c" d="m224.598 242.95-10.094-2.391 7.559-11.54Zm0 0"/><path fill="#f6bf05" d="m214.504 240.559-8.512-24.723 16.07 13.184Zm0 0"/><path fill="#e7b405" d="m214.504 240.559-11.621 1.066 3.11-25.79Zm0 0"/><path fill="#091e3c" d="m214.504 240.559 10.094 2.39-12.891 11.363Zm0 0"/><path fill="#e2b007" d="m202.883 241.625 11.62-1.066-2.796 13.754Zm0 0"/><path fill="#081d3c" d="m280.773 175.531 3.004-11.945 18.028 6.648Zm0 0"/><path fill="#b7bac2" d="m283.777 163.586.703-6.25 17.325 12.898Zm0 0"/><path fill="#091e3c" d="m285.602 140.895-1.122 16.44-15.73-3.546Zm0 0"/><path fill="#fdc200" d="m284.48 157.336-.703 6.25-15.027-9.797Zm0 0"/><path fill="#b7bbc4" d="m284.48 157.336 1.122-16.441 9.421 8.203Zm0 0"/><path fill="#0d2140" d="m77.273 283.719 16.825 12.34-5.371 10.793Zm0 0"/><path fill="#0a1f3e" d="m88.727 306.852 5.37-10.793 37.778 8.683Zm0 0"/><path fill="#fafafb" d="m94.098 296.059 8.199-13.829 29.578 22.512Zm0 0"/><path fill="#0a1f3b" d="m14.047 223.836 16.336-19.527 5.433 15.761Zm0 0"/><path fill="#0c1f3a" d="m14.047 223.836-5.719-7.39 22.055-12.137Zm0 0"/><path fill="#0d203b" d="m8.328 216.445 5.719 7.39-14.05 2.458Zm0 0"/><path fill="#afb4be" d="M14.379 244.063.008 262.926l-.004-18.649Zm0 0"/><path fill="#adb3bc" d="m.008 262.926 14.37-18.863 6.528 19.94Zm0 0"/><path fill="#b0b5bf" d="m-.004 226.293 14.383 17.77-14.375.214Zm0 0"/><path fill="#afb4bd" d="m14.379 244.063-14.383-17.77 14.05-2.457Zm0 0"/><path fill="#aab0ba" d="m20.906 264.004-6.527-19.942 18.73 11.497Zm0 0"/><path fill="#b6bac3" d="m33.11 255.559-18.731-11.496 21.437-23.993Zm0 0"/><path fill="#aeb3bd" d="m14.379 244.063-.332-20.227 21.77-3.766Zm0 0"/><path fill="#20324e" d="m270.031 129.852 33.79-24.957-1.509 22.472Zm0 0"/><path fill="#132744" d="m303.82 104.895 8.746 13.902-10.253 8.57Zm0 0"/><path fill="#3e4d66" d="m286.59 102.555 17.23 2.34-33.789 24.957Zm0 0"/><path fill="#b8bcc5" d="m303.82 104.895-10.539-16.707 24.828 2.84Zm0 0"/><path fill="#b8bcc5" d="m303.82 104.895-17.23-2.34 6.691-14.368Zm0 0"/><path fill="#fec300" d="m271.535 169.09-26.265-21.445 23.48 6.144Zm0 0"/><path fill="#fec300" d="m283.777 163.586-12.242 5.504-2.785-15.3Zm0 0"/><path fill="#fec300" d="m245.27 147.645 26.265 21.445-3.808 13.262Zm0 0"/><path fill="#fdc200" d="m271.535 169.09 12.242-5.504-3.004 11.945Zm0 0"/><path fill="#fcc200" d="m271.535 169.09 9.238 6.441-13.046 6.82Zm0 0"/><path fill="#fefefe" d="m102.297 282.23-25.024 1.489 12.672-14.11Zm0 0"/><path fill="#fdfdfd" d="m102.297 282.23-8.2 13.829-16.824-12.34Zm0 0"/><path fill="#f2bb03" d="m102.297 282.23-12.352-12.62 30.422-11.505Zm0 0"/><path fill="#0b1f3b" d="m8.328 216.445-8.332 9.848.012-17.188Zm0 0"/><path fill="#081d3b" d="m123.035 70.98 19.281-1.558.41 10.238Zm0 0"/><path fill="#fec300" d="m142.316 69.422 9.477-24.23 3.176 26.273Zm0 0"/><path fill="#081d3c" d="m142.727 79.66-.41-10.238 12.652 2.043Zm0 0"/><path fill="#fec300" d="M142.316 69.422 127.72 56.027l24.074-10.836ZM142.316 69.422l-19.28 1.558 4.683-14.953Zm0 0"/></svg>