<svg xmlns="http://www.w3.org/2000/svg" width="1024" height="1024" viewBox="0 0 768 768"><path fill="#b8bcc5" d="m748.652 126.797-25.156 12.254-2.441-39.203Zm0 0"/><path fill="#b8bcc5" d="m767.227 89.71-18.575 37.087-27.597-26.95ZM767.227 89.71l.07 39.583-18.645-2.496ZM767.227 89.71l-46.223-26.847 46.324 26.79ZM721.004 62.863l-62.527 34.383-3.352-4.156Zm0 0"/><path fill="#b8bcc5" d="m658.477 97.246-4.801 36.742-34.719-12.015Zm0 0"/><path fill="#b8bcc5" d="m655.125 93.09-36.168 28.883-9.812-61.266ZM527.371.004l96.293.039-14.52 60.664ZM623.664.043l50.973 34.43-65.492 26.234Zm0 0"/><path fill="#b8bcc5" d="m609.145 60.707-100.07 14.375L527.37.004ZM433.941 93.102l.051-93.098 75.082 75.078Zm0 0"/><path fill="#b8bcc5" d="M433.992.004h93.38l-18.298 75.078ZM380.625 93.926 433.992.004l-.05 93.098ZM359.484 64.418l21.141 29.508-25.105 1.73Zm0 0"/><path fill="#b8bcc5" d="M355.52 95.656 302.996 70.22l56.488-5.801ZM433.992.004l-74.508 64.414L300.86.004ZM300.86.004l-33.223 99.094L179.648 0ZM0 .004 179.648 0 80.531 175.223Zm0 0"/><path fill="#b8bcc5" d="M80.531 175.223 0 148.898V.004ZM80.531 175.223 179.648 0l17.168 155.07ZM176.938 282.559l-98.641 76.457 2.234-183.793Zm0 0"/><path fill="#b8bcc5" d="m103.023 396.84-24.726-37.824 99.426-10.07ZM78.297 359.016l24.726 37.824-57.832-9.496ZM45.191 387.344l-9.39 28.441-35.805-14.402Zm0 0"/><path fill="#b8bcc5" d="m.012 302.785 45.18 84.559-45.196 14.039ZM0 148.898l80.531 26.325L.011 302.785ZM196.816 155.07l2.098 57.403-118.383-37.25ZM226.082 214.078l-1.715 9.219-25.453-10.824Zm0 0"/><path fill="#b8bcc5" d="m224.367 223.297 3.793 20-29.246-30.824ZM240.781 182.063l-14.699 32.015-27.168-1.605Zm0 0"/><path fill="#b8bcc5" d="m219.3 259.848-20.386-47.375 29.246 30.824Zm0 0"/><path fill="#b8bcc5" d="m198.914 212.473 20.387 47.375-42.363 22.71ZM176.938 282.559l46.613-4.38 7.738 35.864Zm0 0"/><path fill="#b8bcc5" d="m219.3 259.848 4.25 18.332-46.613 4.379Zm0 0"/><path fill="#b8bcc5" d="m198.914 212.473-21.976 70.086L80.53 175.223ZM196.816 155.07l43.965 26.993-41.867 30.41ZM231.77 157.094l-34.954-2.024 35.797-28.28Zm0 0"/><path fill="#b8bcc5" d="m240.781 182.063-43.965-26.993 34.954 2.024ZM179.648 0l87.989 99.098-70.82 55.972Zm0 0"/><path fill="#b8bcc5" d="m300.86.004 2.136 70.215-35.36 28.879Zm0 0"/><path fill="#b8bcc5" d="m359.484 64.418-56.488 5.8L300.86.005ZM380.625 93.926l-21.14-29.508L433.991.004ZM399.68 114.578l-19.055-20.652 53.316-.824Zm0 0"/><path fill="#b8bcc5" d="m399.68 114.578 34.261-21.476-5.617 51.714Zm0 0"/><path fill="#b8bcc5" d="m464.902 144.605-39.578 12.97 3-12.759Zm0 0"/><path fill="#b8bcc5" d="m428.324 144.816 5.617-51.714 30.961 51.503ZM509.074 75.082l39.43 71.23-83.602-1.707Zm0 0"/><path fill="#b8bcc5" d="m433.941 93.102 75.133-18.02-44.172 69.523Zm0 0"/><path fill="#b8bcc5" d="M548.504 146.313 464.89 178.69l.011-34.086ZM572.754 104.012l-24.25 42.3-39.43-71.23ZM572.754 104.012l-63.68-28.93 100.07-14.375ZM618.957 121.973l-46.203-17.961 36.39-43.305ZM658.477 97.246l-39.52 24.727 36.168-28.883ZM674.637 34.473l46.367 28.39-65.879 30.227ZM721.004 62.863l46.223 26.848-46.172 10.137ZM767.297 129.293l-.07-39.582.101-.059ZM753.762 150.71l13.535-21.417-.043 38.031ZM767.238 205.836l-30.77-19.676 30.786-18.836Zm0 0"/><path fill="#b8bcc5" d="m722.773 180.195 13.696 5.965-29.692 12.34Zm0 0"/><path fill="#b8bcc5" d="m694.371 151.047 28.402 29.148-15.996 18.305Zm0 0"/><path fill="#b8bcc5" d="m679.238 207.11 15.133-56.063 12.406 47.453ZM706.777 198.5l28.082 5.293-17.91 13.855ZM734.86 203.793l7.245 17.852-25.156-3.997Zm0 0"/><path fill="#b8bcc5" d="m736.469 186.16-1.61 17.633-28.082-5.293ZM736.469 186.16l13.246-24.055 17.539 5.22ZM749.715 162.105l4.047-11.394 13.492 16.613Zm0 0"/><path fill="#081d3c" d="m347.793 515.672-11.895 15.3-8.546-20.667ZM348.313 569.2l-12.415-38.227 29.625 8.054Zm0 0"/><path fill="#081d3c" d="m335.898 530.973 11.895-15.301 17.73 23.355Zm0 0"/><path fill="#081d3c" d="m364.691 507.41 11.77 31.399-10.938.218Zm0 0"/><path fill="#081d3c" d="m376.46 538.809-.12 37.605-10.817-37.387Zm0 0"/><path fill="#081d3c" d="m347.793 515.672 16.898-8.262.832 31.617Zm0 0"/><path fill="#081d3c" d="m376.34 576.414-28.027-7.215 17.21-30.172ZM348.313 569.2l28.027 7.214-22.246 10.504Zm0 0"/><path fill="#081d3c" d="m376.105 589.91-22.34 12.602.329-15.594ZM353.766 602.512l14.925 11.816-15.43-3.476Zm0 0"/><path fill="#081d3c" d="m368.691 614.328-14.925-11.816 22.34-12.602Zm0 0"/><path fill="#081d3c" d="m350.75 621.547 2.512-10.695 15.43 3.476ZM350.75 621.547l13.242 6.578-15.34 2.555ZM348.652 630.68l-4.714 4.3-5.336-14.718Zm0 0"/><path fill="#081d3c" d="m350.75 621.547-2.098 9.133-10.05-10.418ZM363.992 628.125l-13.242-6.578 17.941-7.219ZM363.992 628.125l-.746 10.828-14.594-8.273Zm0 0"/><path fill="#081d3c" d="m348.652 630.68 14.594 8.273-.398 10.035ZM343.938 634.98l18.91 14.008-20.844 4.219Zm0 0"/><path fill="#081d3c" d="m343.938 634.98 4.714-4.3 14.196 18.308ZM343.938 634.98l-1.934 18.227-16.652-3.289ZM324.734 627.68l19.204 7.3-18.586 14.938Zm0 0"/><path fill="#081d3c" d="m343.938 634.98-19.204-7.3 13.868-7.418ZM324.734 627.68l3.188-13.965 10.68 6.547Zm0 0"/><path fill="#081d3c" d="m327.922 613.715-16.942-1.719 17.665-19.16ZM310.98 611.996l.184 4.176-11.191-1.629Zm0 0"/><path fill="#081d3c" d="m303.559 597.426 7.421 14.57-11.007 2.547ZM310.98 611.996l-7.421-14.57 25.086-4.59ZM298.938 571.656l18.55-20.59 11.157 41.77Zm0 0"/><path fill="#081d3c" d="m317.488 551.066-18.55 20.59-33.305-21.218ZM308.648 518.328l8.84 32.738-51.855-.629ZM265.633 550.438l-80.301-39.168 75.895-26.891ZM185.332 511.27l-30.96-43.434 40.683 3.555ZM183.656 437.477l-29.285 30.359-51.348-70.996Zm0 0"/><path fill="#081d3c" d="m154.371 467.836 29.285-30.36 11.399 33.915Zm0 0"/><path fill="#081d3c" d="m183.656 437.477 32.274 7.648-20.875 26.266ZM261.227 484.379l-75.895 26.89 9.723-39.878ZM103.32 516.938l82.012-5.668-28.09 58.707ZM123.043 654.645l-22.586-24.973 56.785-59.695Zm0 0"/><path fill="#081d3c" d="m158.89 652.242-35.847 2.403 34.2-84.668ZM194.422 626.438 193.5 652.5l-34.61-.258ZM233.164 651.945l-38.742-25.508 37.832-40.71Zm0 0"/><path fill="#081d3c" d="m194.422 626.438 38.742 25.507-39.664.555ZM194.422 626.438l-35.531 25.804-1.649-82.265Zm0 0"/><path fill="#081d3c" d="m194.422 626.438-37.18-56.461 75.012 15.75ZM100.457 629.672 41.68 578.816l115.562-8.84Zm0 0"/><path fill="#081d3c" d="m41.68 578.816 58.777 50.856-14.023 23.668Zm0 0"/><path fill="#081d3c" d="m100.457 629.672 22.586 24.973-36.61-1.305Zm0 0"/><path fill="#081d3c" d="m66.121 650.957-24.441-72.14 44.754 74.523ZM47.34 680.371-.031 687l66.152-36.043Zm0 0"/><path fill="#081d3c" d="M-.031 687 0 614.625l66.121 36.332Zm0 0"/><path fill="#081d3c" d="m0 614.625 41.68-35.809 24.441 72.141Zm0 0"/><path fill="#081d3c" d="M41.68 578.816 0 614.625l-.02-38.215ZM41.68 578.816l61.64-61.879 53.922 53.04ZM157.242 569.977l28.09-58.707 46.922 74.457ZM276.09 598.875l-15.684 46.602-28.152-59.75ZM185.332 511.27l80.3 39.168-33.378 35.289ZM302.805 497.04l-37.172 53.397-4.406-66.058Zm0 0"/><path fill="#081d3c" d="m265.633 550.438 10.457 48.437-43.836-13.148Zm0 0"/><path fill="#081d3c" d="m260.406 645.477-27.242 6.468-.91-66.218ZM290.043 632.926l-5.434 12.472-24.203.079ZM290.043 632.926l7.898 14.336-13.332-1.864ZM276.09 598.875l23.883 15.668-9.93 18.383ZM276.09 598.875l22.848-27.219 4.62 25.77Zm0 0"/><path fill="#081d3c" d="m303.559 597.426-4.622-25.77 29.708 21.18Zm0 0"/><path fill="#081d3c" d="m276.09 598.875 27.469-1.45-3.586 17.118ZM276.09 598.875l13.953 34.05-29.637 12.552ZM298.938 571.656l-22.848 27.219-10.457-48.437ZM302.805 497.04l5.843 21.288-43.015 32.11ZM299.996 472.695l2.809 24.344-41.578-12.66ZM270.93 452.387l29.906 18.61-.84 1.698ZM300.836 470.996l20.691-7.039 3.88 22.121ZM348.14 490.973l-20.788 19.332-1.946-24.227ZM364.691 507.41l-16.898 8.262.348-24.7ZM376.46 538.809l-11.769-31.399 17.329 8.16Zm0 0"/><path fill="#081d3c" d="m380.168 481.734-15.477 25.676-16.55-16.437ZM347.793 515.672l-20.441-5.367 20.789-19.332ZM345.023 460.34l3.118 30.633-22.735-4.895ZM299.996 472.695l.84-1.699 24.57 15.082ZM321.527 463.957l23.496-3.617-19.617 25.738Zm0 0"/><path fill="#081d3c" d="m348.14 490.973-3.117-30.633 25.825 5.37ZM345.023 460.34l-23.496 3.617 6.489-47.36Zm0 0"/><path fill="#081d3c" d="m386.23 413.719-41.207 46.62-17.007-43.741ZM292.918 386.813l35.098 29.785-53.618 3.718ZM292.918 386.813l-29.734 5.44 14.988-20.108ZM259.941 387.055l-6.972-37.63 25.203 22.72Zm0 0"/><path fill="#081d3c" d="m263.184 392.254-3.243-5.2 18.23-14.91ZM263.184 392.254l29.734-5.442-18.52 33.504ZM259.941 387.055l3.243 5.199 11.214 28.062ZM328.016 416.598l-57.086 35.789 3.468-32.07Zm0 0"/><path fill="#081d3c" d="m321.527 463.957-20.691 7.04 27.18-54.4Zm0 0"/><path fill="#081d3c" d="m328.016 416.598-27.18 54.398-29.906-18.61ZM367.941 367.86l18.29 45.859-58.215 2.879Zm0 0"/><path fill="#081d3c" d="m335.29 358.262 32.651 9.597-39.925 48.739Zm0 0"/><path fill="#081d3c" d="m367.941 367.86-32.652-9.598 23.387-40.274ZM358.676 317.988l55.594 25.973-46.329 23.898Zm0 0"/><path fill="#081d3c" d="m414.27 343.96 42.41 67.974-70.45 1.785ZM456.68 411.934l-45.477 40.242-24.973-38.457ZM411.203 452.176l-31.035 29.558-9.32-16.023Zm0 0"/><path fill="#081d3c" d="m380.168 481.734-32.027 9.239 22.707-25.262Zm0 0"/><path fill="#081d3c" d="m345.023 460.34 41.207-46.621-15.382 51.992ZM367.941 367.86l46.329-23.9-28.04 69.759Zm0 0"/><path fill="#081d3c" d="m373.336 288.363 40.934 55.598-55.594-25.973Zm0 0"/><path fill="#081d3c" d="m373.336 288.363 44.234 2.485-3.3 53.113Zm0 0"/><path fill="#081d3c" d="m417.57 290.848-44.234-2.485 22.195-27.781Zm0 0"/><path fill="#081d3c" d="m395.531 260.582-22.195 27.781 13.844-28.246Zm0 0"/><path fill="#081d3c" d="m395.531 260.582-8.351-.465 1.34-36.476ZM423.848 207.871l16.664 26.047-51.992-10.277ZM402.023 191.574l29.11-2.933-7.285 19.23ZM407.688 169.063l-5.665 22.511-11.476-15.242Zm0 0"/><path fill="#081d3c" d="m402.023 191.574 21.825 16.297-35.328 15.77ZM402.023 191.574l-16.601 4.57 5.125-19.812Zm0 0"/><path fill="#081d3c" d="m385.422 196.145 16.601-4.57-13.503 32.066ZM385.422 196.145l-20.61-19.91 25.735.097ZM390.547 176.332l-25.735-.098 19.915-30.824ZM349.84 160.129l7.285-35.52 27.602 20.801Zm0 0"/><path fill="#081d3c" d="m412.418 148.879-4.73 20.184-22.961-23.653ZM384.727 145.41l-7.02-22.484 21.973-8.348Zm0 0"/><path fill="#081d3c" d="m399.68 114.578-28.692-7.207 9.637-13.445ZM412.418 148.879l-12.738-34.3 28.644 30.237ZM377.707 122.926l-6.719-15.555 28.692 7.207Zm0 0"/><path fill="#081d3c" d="m412.418 148.879-27.691-3.469 14.953-30.832ZM384.727 145.41l22.96 23.653-17.14 7.269ZM407.688 169.063l4.73-20.184 12.906 8.695Zm0 0"/><path fill="#081d3c" d="m402.023 191.574 5.664-22.512 23.446 19.579Zm0 0"/><path fill="#081d3c" d="m445.57 204.422-14.437-15.781 21.312 5.453ZM431.133 188.64l12.312-6.699 9 12.153ZM431.133 188.64l-23.445-19.577 17.636-11.489Zm0 0"/><path fill="#081d3c" d="m425.324 157.574-12.906-8.695 15.906-4.063ZM443.445 181.941l-12.312 6.7-5.809-31.067ZM423.848 207.871l7.285-19.23 14.437 15.78ZM440.512 233.918l5.058-29.496 24.813 18.89ZM440.512 233.918l-4.668 28.062-47.324-38.34ZM435.844 261.98l-40.313-1.398-7.011-36.941ZM450.742 306.984l-33.172-16.136 18.274-28.868Zm0 0"/><path fill="#081d3c" d="m435.844 261.98 40.926-9.91 2.918 23.996ZM476.77 252.07l-36.258-18.152 29.87-10.606ZM440.512 233.918l-16.664-26.047 21.722-3.45Zm0 0"/><path fill="#081d3c" d="m440.512 233.918 36.258 18.152-40.926 9.91ZM417.57 290.848l-22.039-30.266 40.313 1.398Zm0 0"/><path fill="#081d3c" d="m450.742 306.984-14.898-45.004 43.844 14.086ZM450.742 306.984l29.887-12.898 9.445 9.098ZM525.543 318.984l-43.969 20.325 8.5-36.125ZM450.742 306.984l30.832 32.325-67.304 4.652Zm0 0"/><path fill="#081d3c" d="m417.57 290.848 33.172 16.136-36.472 36.977ZM480.629 294.086l-29.887 12.898 28.945-30.918ZM481.574 339.309l-30.832-32.325 39.332-3.8ZM481.574 339.309l-24.894 72.625-42.41-67.973ZM456.68 411.934l24.894-72.625 56.89 34.53ZM538.57 446.398l-31.906-.558 31.8-72Zm0 0"/><path fill="#081d3c" d="m481.574 339.309 43.969-20.325 12.922 54.856ZM538.465 373.84l47.11 17-26.66 49.86ZM558.914 440.7l53.305 9.878-14.215 20.344ZM614.992 473.176l-1.12 25.418-15.868-27.672ZM613.871 498.594l-3.148 27.636-18.227-25.18ZM642.32 550.277l-31.597-24.047 19.601.934Zm0 0"/><path fill="#081d3c" d="m610.723 526.23 15.058-12.484 4.543 13.418ZM594.07 532.121l16.653-5.89 3.933 51.804ZM592.496 501.05l1.574 31.071-25.734-10.125ZM577.914 551.977l16.156-19.856 20.586 45.914Zm0 0"/><path fill="#081d3c" d="m610.723 526.23-16.653 5.891-1.574-31.07Zm0 0"/><path fill="#081d3c" d="m568.336 521.996-4.078-20.168 28.238-.777ZM594.07 532.121l-16.156 19.856-9.578-29.98ZM581.64 603.281l-3.726-51.304 36.742 26.058Zm0 0"/><path fill="#081d3c" d="M617.926 613.93 582.96 639.03l-1.32-35.75ZM582.96 639.031l34.966-25.101-20.313 29.008ZM597.613 642.938l11.852 7.363-16.918 2.75ZM609.465 650.3l22.765-11.46 14.536 13.043ZM701.613 644.855l-54.847 7.028 6.011-15.477Zm0 0"/><path fill="#081d3c" d="m632.23 638.84 20.547-2.434-6.011 15.477ZM609.465 650.3l8.46-36.37 14.305 24.91ZM617.926 613.93 581.64 603.28l33.015-25.246Zm0 0"/><path fill="#081d3c" d="m617.926 613.93-8.461 36.37-11.852-7.362ZM582.96 639.031l14.653 3.907-5.066 10.113Zm0 0"/><path fill="#081d3c" d="m555.203 660.77 27.758-21.739 9.586 14.02Zm0 0"/><path fill="#081d3c" d="m538.36 636.047 44.6 2.984-27.757 21.739Zm0 0"/><path fill="#081d3c" d="m514.738 654.832 23.621-18.785 16.844 24.723ZM514.738 654.832l-12.02-26.05 21.966-5.684Zm0 0"/><path fill="#081d3c" d="m514.738 654.832-25.496 1.89 13.477-27.94ZM470.324 625.852l12.504 2.105 6.414 28.766Zm0 0"/><path fill="#081d3c" d="m475.29 611.785 7.538 16.172-12.504-2.105ZM475.29 611.785l18.124-23.586-4.016 26.578ZM456.406 617.773l18.883-5.988-4.965 14.067Zm0 0"/><path fill="#081d3c" d="m456.406 617.773 13.918 8.079-9.14 4.546Zm0 0"/><path fill="#081d3c" d="m434.137 603.527 22.27 14.246-18.38 11.832Zm0 0"/><path fill="#081d3c" d="m456.406 617.773-6.886 19.063-11.493-7.23ZM456.406 617.773l4.778 12.625-11.664 6.438ZM475.29 611.785l-18.884 5.988 4.133-24.253Zm0 0"/><path fill="#081d3c" d="m482.828 627.957-7.539-16.172 14.11 2.992Zm0 0"/><path fill="#081d3c" d="m493.414 588.2-18.125 23.585-14.75-18.265Zm0 0"/><path fill="#081d3c" d="m460.54 593.52 2.66-29.149 28.222 9.215Zm0 0"/><path fill="#081d3c" d="m463.2 564.371 16.605-18.953 11.617 28.168ZM479.805 545.418l39.234 27.383-4.25 6.449ZM520.191 527.941l-1.152 44.86-25.547-48.79Zm0 0"/><path fill="#081d3c" d="m493.492 524.012 21.934-15.739 4.765 19.668ZM519.04 572.8l1.151-44.859 20.04 27.563ZM519.04 572.8l-39.235-27.382 13.687-21.406ZM514.79 579.25l4.25-6.45 12.612 28.227ZM510.797 604.055l20.855-3.028-6.968 22.07Zm0 0"/><path fill="#081d3c" d="m531.652 601.027-12.613-28.226 21.191-17.297ZM510.797 604.055l3.992-24.805 16.863 21.777ZM502.719 628.781l8.078-24.726 13.887 19.043ZM489.242 656.723l-6.414-28.766 19.89.824Zm0 0"/><path fill="#081d3c" d="m473.945 655.55-3.62-29.698 18.917 30.87ZM461.34 649.957l-.156-19.559 12.761 25.153ZM461.34 649.957l-19.906 7.613-5.524-9.965Zm0 0"/><path fill="#081d3c" d="m435.91 647.605 5.524 9.965-19.149-2.129ZM420.594 631.414l17.433-1.809-2.117 18Zm0 0"/><path fill="#081d3c" d="m416.707 638.496 19.203 9.11-13.625 7.835Zm0 0"/><path fill="#081d3c" d="m396.305 655 20.402-16.504 5.578 16.945ZM396.305 655l-19.957-7.34 1.8-8.906Zm0 0"/><path fill="#081d3c" d="m403.332 616.676 13.375 21.82L396.305 655ZM435.91 647.605l-19.203-9.109 3.887-7.082Zm0 0"/><path fill="#081d3c" d="m438.027 629.605-17.433 1.81-.07-14.43Zm0 0"/><path fill="#081d3c" d="m434.137 603.527 3.89 26.078-17.504-12.62Zm0 0"/><path fill="#081d3c" d="m456.406 617.773-22.27-14.246 26.403-10.007ZM493.414 588.2l-32.875 5.32 30.883-19.934Zm0 0"/><path fill="#081d3c" d="m463.2 564.371-2.66 29.149-31.306-7.2ZM429.234 586.32l-34.105-7.133 14.02-10.675ZM394.316 582.39l.813-3.202 19.504 20.902ZM420.523 616.984l-5.89-16.894 19.504 3.437Zm0 0"/><path fill="#081d3c" d="m396.266 605.293-1.95-22.902 20.317 17.699ZM414.633 600.09l5.89 16.894-17.191-.308ZM388.91 611.191l7.356-5.898 7.066 11.383Zm0 0"/><path fill="#081d3c" d="m396.266 605.293 18.367-5.203-11.301 16.586ZM395.129 579.188l34.105 7.132-14.601 13.77ZM429.234 586.32l31.305 7.2-26.402 10.007Zm0 0"/><path fill="#081d3c" d="m429.234 586.32 4.903 17.207-19.504-3.437ZM436.684 550.438l-7.45 35.882-20.086-17.808Zm0 0"/><path fill="#081d3c" d="m401.148 558.246 35.536-7.808-27.536 18.074Zm0 0"/><path fill="#081d3c" d="m395.129 579.188 6.02-20.942 8 10.266ZM436.992 528.96l-35.844 29.286-.902-30.285Zm0 0"/><path fill="#081d3c" d="m417.035 505.586 19.957 23.375-31.41-14.766ZM436.992 528.96l-19.957-23.374 28.59-13.582ZM445.625 492.004l34.465 11.437-17.242 20.176ZM493.492 524.012l-13.402-20.57 31.558-5.692Zm0 0"/><path fill="#081d3c" d="m481.074 488.05-.984 15.391-34.465-11.437ZM506.664 445.84l3.402 28.61-28.992 13.6Zm0 0"/><path fill="#081d3c" d="m511.648 497.75-31.558 5.691.984-15.39ZM480.09 503.441l13.402 20.57-30.644-.394ZM493.492 524.012l-13.687 21.406-16.957-21.8ZM515.426 508.273l-21.934 15.739 18.156-26.262Zm0 0"/><path fill="#081d3c" d="m510.066 474.45 1.582 23.3-30.574-9.7ZM456.68 411.934l24.394 76.117-37.176-2.32Zm0 0"/><path fill="#081d3c" d="m481.074 488.05-24.394-76.116 49.984 33.906ZM525.379 463.102l-18.715-17.262 31.906.558ZM506.664 445.84l-49.984-33.906 81.785-38.094ZM506.664 445.84l18.715 17.262-15.313 11.347ZM538.57 446.398l3.86 22.567-17.051-5.863Zm0 0"/><path fill="#081d3c" d="m554.64 473.242-10.753 11.453-1.457-15.73Zm0 0"/><path fill="#081d3c" d="m554.64 473.242-12.21-4.277 11.715-5.168Zm0 0"/><path fill="#081d3c" d="m543.887 484.695-10.715-9.125 9.258-6.605Zm0 0"/><path fill="#081d3c" d="m542.43 468.965-9.258 6.605-7.793-12.468ZM542.43 468.965l-3.86-22.567 15.575 17.399ZM558.914 440.7l5.094 26.042-9.863-2.945Zm0 0"/><path fill="#081d3c" d="m538.57 446.398-.105-72.558 20.45 66.86ZM525.543 318.984l29.629 10.688-16.707 44.168Zm0 0"/><path fill="#081d3c" d="m571.54 357.938-16.368-28.266 30.183-4.508Zm0 0"/><path fill="#081d3c" d="m555.172 329.672 13.34-15.86 16.843 11.352ZM571.54 357.938l13.815-32.774 18.918 33.07ZM555.172 329.672l16.367 28.265-33.074 15.903Zm0 0"/><path fill="#081d3c" d="m571.54 357.938 14.034 32.902-47.11-17Zm0 0"/><path fill="#081d3c" d="m585.574 390.84-14.035-32.902 32.734.296ZM585.574 390.84l23.469-15.348 1.324 21.79Zm0 0"/><path fill="#081d3c" d="m609.043 375.492-23.469 15.348 18.7-32.606Zm0 0"/><path fill="#081d3c" d="m585.574 390.84 28 48.515-54.66 1.344Zm0 0"/><path fill="#081d3c" d="m613.574 439.355-28-48.515 24.793 6.441ZM613.574 439.355l-1.355 11.223-53.305-9.879ZM612.219 450.578l2.773 22.598-16.988-2.254ZM564.008 466.742l-5.094-26.043 39.09 30.223Zm0 0"/><path fill="#081d3c" d="m592.496 501.05-28.488-34.308 33.996 4.18ZM554.64 473.242l37.856 27.809-28.238.777ZM564.008 466.742l-9.367 6.5-.496-9.445Zm0 0"/><path fill="#081d3c" d="m564.008 466.742 28.488 34.309-37.855-27.809Zm0 0"/><path fill="#081d3c" d="m613.871 498.594-21.375 2.457 5.508-30.13ZM625.781 513.746l-15.058 12.484 3.148-27.636ZM633.8 563.383l-23.077-37.153 31.597 24.047ZM654.156 563.168l-20.355.215 8.52-13.106ZM654.156 563.168l21.809 8.695-6.688 14.871Zm0 0"/><path fill="#081d3c" d="m633.8 563.383 20.356-.215-13.746 8.402Zm0 0"/><path fill="#081d3c" d="m654.156 563.168 15.121 23.566-28.867-15.164ZM669.277 586.734l6.688-14.87-.133 19.042Zm0 0"/><path fill="#081d3c" d="m675.832 590.906.133-19.043 15.73 14.989Zm0 0"/><path fill="#081d3c" d="m691.695 586.852-15.73-14.989-.738-2.808ZM691.695 586.852l-5.75-26.95 20.426 23.192Zm0 0"/><path fill="#081d3c" d="m706.371 583.094-20.426-23.192 11.16-4.52Zm0 0"/><path fill="#081d3c" d="m706.922 555.86-.55 27.234-9.267-27.711ZM706.922 555.86l18.258-10.4-4.766 31.7Zm0 0"/><path fill="#081d3c" d="m706.371 583.094.55-27.235 13.493 21.301Zm0 0"/><path fill="#081d3c" d="m703.82 544.93 3.102 10.93-9.817-.477Zm0 0"/><path fill="#081d3c" d="m706.922 555.86-3.102-10.93 21.36.53Zm0 0"/><path fill="#081d3c" d="m725.18 545.46 12.675 22.68-17.44 9.02ZM767.266 598.145l-29.41-30.004 29.488-29.07ZM721.992 597.55l45.274.595.007 43.18ZM436.992 528.96l-.308 21.477-35.536 7.81Zm0 0"/><path fill="#081d3c" d="m405.582 514.195 31.41 14.766-36.746-1Zm0 0"/><path fill="#081d3c" d="m404.766 495.3 12.27 10.286-11.454 8.61Zm0 0"/><path fill="#081d3c" d="m417.035 505.586-12.27-10.285 39.133-9.57ZM404.766 495.3l6.437-43.124 32.695 33.554Zm0 0"/><path fill="#081d3c" d="m445.625 492.004-28.59 13.582 26.863-19.856ZM443.898 485.73l-32.695-33.554 45.477-40.242ZM386.23 413.719l24.973 38.457-40.355 13.535ZM324.95 271.688l17.382.347-3.187 26.793Zm0 0"/><path fill="#081d3c" d="m342.332 272.035-17.383-.348 25.422-33.746ZM324.95 271.688l14.195 27.14-24.59-3.687Zm0 0"/><path fill="#081d3c" d="m314.555 295.14 24.59 3.688-.336 22.149ZM285 315.191l5.668-10.507 48.14 16.293ZM277.734 288.566l12.934 16.118-28.559-7.559Zm0 0"/><path fill="#081d3c" d="m290.668 304.684-12.934-16.118 21.188-7.347ZM262.11 297.125l28.558 7.559L285 315.19ZM335.29 358.262 285 315.192l53.809 5.785ZM290.668 304.684l23.887-9.543 24.254 25.836ZM298.922 281.219l26.027-9.531-10.394 23.453ZM298.922 281.219 275 274.355l5.129-11.132Zm0 0"/><path fill="#081d3c" d="m314.555 295.14-23.887 9.544 8.254-23.465ZM312.422 249.54l12.527 22.148-26.027 9.53Zm0 0"/><path fill="#081d3c" d="m298.922 281.219-18.793-17.996 32.293-13.684Zm0 0"/><path fill="#081d3c" d="m280.129 263.223-1.234-16.063 33.527 2.38ZM275 274.355l-18.867-16.386 23.996 5.254ZM256.133 257.969l7.21 11.078-16.245-5.367Zm0 0"/><path fill="#081d3c" d="M256.133 257.969 275 274.355l-11.656-5.308ZM246.5 250.512l9.633 7.457-11.719-.48Zm0 0"/><path fill="#081d3c" d="m236.45 264.793 7.964-7.305 2.684 6.192Zm0 0"/><path fill="#081d3c" d="m237.559 275.063-1.11-10.27 10.649-1.113ZM244.414 257.488l11.719.48-9.035 5.712ZM246.5 250.512l-2.086 6.976.582-6.52ZM240.785 239.453l7.238-1.144-1.523 12.203Zm0 0"/><path fill="#081d3c" d="m244.996 250.969-4.21-11.516 5.714 11.059ZM243.8 223.02l-3.015 16.433-16.418-16.156ZM243.8 223.02l4.223 15.289-7.238 1.144ZM243.8 223.02l17.434-2.266 4.348 10.836Zm0 0"/><path fill="#081d3c" d="m265.582 231.59-4.348-10.836 10.403-.899ZM276.395 232.98l-10.813-1.39 6.055-11.735ZM276.395 232.98l6.906-16.792 29.12 33.351Zm0 0"/><path fill="#081d3c" d="m282.496 188.598.805 27.59-12.79-14.555ZM283.3 216.188l-6.905 16.792-4.758-13.125ZM283.3 216.188l29.563 9.902-.441 23.45Zm0 0"/><path fill="#081d3c" d="m324.95 271.688-12.528-22.149 37.95-11.598ZM278.895 247.16l-2.5-14.18 36.027 16.56Zm0 0"/><path fill="#081d3c" d="m312.422 249.54 22.02-36.602 15.93 25.003ZM334.441 212.938l-16.078-3.426 11.594-30.844Zm0 0"/><path fill="#081d3c" d="m318.363 209.512 16.078 3.425-21.578 13.153ZM334.441 212.938l6.45-33.997 19.375 4.317ZM340.89 178.941l-6.488-12.578 12.961-4.91Zm0 0"/><path fill="#081d3c" d="m312.48 158.195 21.922 8.168-4.445 12.305Zm0 0"/><path fill="#081d3c" d="m334.402 166.363-12.441-33.726 25.402 28.816ZM321.96 132.637l-18.722-13.227 17.938-15.168Zm0 0"/><path fill="#081d3c" d="m297.86 112.375 5.136-42.156 18.18 34.023ZM297.86 112.375l-11.739 18.191-2.933-17.421ZM286.121 130.566l-13.101-6.347 10.168-11.074ZM286.121 130.566l-9.137 10.633-3.964-16.98ZM276.984 141.2l-19.992 12.238-.066-19.168ZM286.121 130.566l5.777 6.305-14.914 4.328Zm0 0"/><path fill="#081d3c" d="m297.86 112.375 5.378 7.035-17.117 11.156ZM291.898 136.871l-5.777-6.305 17.117-11.156Zm0 0"/><path fill="#081d3c" d="m303.238 119.41-5.379-7.035 23.317-8.133ZM291.898 136.871l11.34-17.46 18.723 13.226Zm0 0"/><path fill="#081d3c" d="m312.48 158.195 9.48-25.558 12.442 33.726ZM334.402 166.363l6.489 12.578-10.934-.273Zm0 0"/><path fill="#081d3c" d="m329.957 178.668-29.7 7.426-3.26-15.309ZM340.89 178.941l-6.449 33.997-4.484-34.27ZM360.266 183.258l-19.375-4.317 6.472-17.488Zm0 0"/><path fill="#081d3c" d="m361.535 209.387-27.094 3.55 25.825-29.68Zm0 0"/><path fill="#081d3c" d="m334.441 212.938 27.094-3.551-11.164 28.554ZM312.863 226.09l21.578-13.153-22.02 36.602Zm0 0"/><path fill="#081d3c" d="m283.3 216.188 7.66-17.372 21.903 27.274ZM282.496 188.598l7.719.472.746 9.746ZM300.258 186.094l-10.043 2.976 6.781-18.285ZM290.215 189.07l10.043-2.976-9.297 12.722Zm0 0"/><path fill="#081d3c" d="m283.3 216.188-.804-27.59 8.465 10.218Zm0 0"/><path fill="#081d3c" d="m270.512 201.633 12.789 14.554-11.664 3.668Zm0 0"/><path fill="#081d3c" d="m261.234 220.754 9.278-19.121 1.125 18.222ZM261.234 220.754l-17.433 2.266-19.434.277Zm0 0"/><path fill="#081d3c" d="m248.023 238.309-4.222-15.29 21.781 8.57ZM674.637 34.473 655.125 93.09l-45.98-32.383ZM674.637 34.473 623.664.043l53.707-.047ZM721.004 62.863l-46.367-28.39L727.176 0ZM767.246 36.395l-46.242 26.468L727.176 0Zm0 0"/><path fill="#081d3c" d="M674.637 34.473 677.37-.004 727.176 0ZM767.246 36.395 727.176 0l40.074-.004Zm0 0"/><path fill="#081d3c" d="m721.004 62.863 46.242-26.468.082 53.257Zm0 0"/><path fill="#081d3c" d="m658.477 97.246 62.527-34.383.05 36.985ZM694.371 151.047l-35.894-53.8 65.02 41.804Zm0 0"/><path fill="#081d3c" d="m723.496 139.05-65.02-41.804 62.579 2.602ZM753.762 150.71l-30.266-11.66 25.156-12.253Zm0 0"/><path fill="#081d3c" d="m767.297 129.293-13.535 21.418-5.11-23.914Zm0 0"/><path fill="#081d3c" d="m722.773 180.195 30.989-29.484-4.047 11.394ZM753.762 150.71l-30.989 29.485.723-41.144Zm0 0"/><path fill="#081d3c" d="m736.469 186.16-13.696-5.965 26.942-18.09ZM722.773 180.195l-28.402-29.148 29.125-11.996ZM694.371 151.047l-15.133 56.062-25.562-73.12ZM679.238 207.11l-2.718 9.5-62.926-4.887Zm0 0"/><path fill="#081d3c" d="m679.238 207.11 7.973 12.511-10.691-3.012ZM676.52 216.61l1.835 17.488-25.82-7.426ZM702.395 244.113l-24.04-10.015 8.856-14.477ZM687.21 219.621l-8.855 14.477-1.835-17.489Zm0 0"/><path fill="#081d3c" d="m613.594 211.723 62.926 4.886-23.985 10.063ZM603.207 155.79l50.469-21.802-40.082 77.735ZM618.957 121.973l-15.75 33.816-30.453-51.777Zm0 0"/><path fill="#081d3c" d="m603.207 155.79 10.387 55.933-54.496-10.641ZM653.676 133.988l-50.469 21.801 15.75-33.816ZM653.676 133.988l25.562 73.121-65.644 4.614ZM736.469 186.16l30.77 19.676-32.38-2.043ZM767.238 205.836l.008 54.617-25.14-38.808ZM752.746 267.457l-10.64-45.812 25.14 38.808ZM767.238 205.836l-25.133 15.809-7.246-17.852ZM731.004 276.336l11.101-54.691 10.641 45.812Zm0 0"/><path fill="#081d3c" d="m752.746 267.457-.652 9.14-21.09-.261ZM752.746 267.457l14.5-7.004.016 27.223ZM753.383 300.605l-6.422-14.226 20.3 1.297Zm0 0"/><path fill="#081d3c" d="m753.383 300.605 13.879-12.93.031 32.477Zm0 0"/><path fill="#081d3c" d="m752.094 276.598.652-9.141 14.516 20.219ZM749.809 430.184l-22.297-16.59 39.738 1.027Zm0 0"/><path fill="#081d3c" d="m767.258 445.078-17.45-14.894 17.442-15.563ZM767.25 414.621l-39.738-1.027 39.785-47.817ZM252.953 190.45l-12.172-8.387 18.953-4.375ZM240.781 182.063l8.395-9.016 10.558 4.64ZM679.613 303.996l6.547-44.617 23.05 24.203ZM486.828 736.5l-61.715 1.523 21.192-29.968Zm0 0"/><path fill="#fec300" d="m724.738 305.36-31.828 27.796-13.297-29.16ZM724.738 305.36l10.864 27.03-42.692.766Zm0 0"/><path fill="#fec300" d="m735.602 332.39 17.78-31.785 13.911 19.547ZM731.004 276.336l15.957 10.043 6.422 14.226Zm0 0"/><path fill="#fec300" d="m746.96 286.379 5.134-9.781 15.168 11.078Zm0 0"/><path fill="#fec300" d="m746.96 286.379-15.956-10.043 21.09.262ZM731.004 276.336l-6.266 29.023-45.125-1.363Zm0 0"/><path fill="#fec300" d="m731.004 276.336-51.39 27.66 29.597-20.414ZM731.004 276.336l22.379 24.27-28.645 4.753Zm0 0"/><path fill="#fec300" d="m753.383 300.605-17.781 31.786-10.864-27.032Zm0 0"/><path fill="#fec300" d="m767.297 365.777-31.695-33.386 31.691-12.239ZM692.91 333.156l42.692-.765-10.551 13.484ZM727.512 413.594l-2.461-67.719 42.246 19.902ZM725.05 345.875l-23.89 15.102-8.25-27.82Zm0 0"/><path fill="#fec300" d="m735.602 332.39 31.695 33.387-42.246-19.902ZM725.05 345.875l2.462 67.719-26.352-52.617ZM727.512 413.594l22.297 16.59-24.657-14.938Zm0 0"/><path fill="#fec300" d="m701.16 360.977 26.352 52.617-2.36 1.652ZM725.152 415.246l24.657 14.938-29.309 35.199ZM687.031 509.719l33.469-44.336 2.785 60.887Zm0 0"/><path fill="#fec300" d="m703.82 544.93-16.789-35.211 36.254 16.55ZM637.566 497.832l23.262-28.379 26.203 40.266Zm0 0"/><path fill="#fec300" d="m637.566 497.832-22.574-24.656 45.836-3.723ZM614.992 473.176l22.574 24.656-23.695.762ZM637.566 497.832l-11.785 15.914-11.91-15.152Zm0 0"/><path fill="#fec300" d="m625.781 513.746 11.785-15.914 33.461 38.988ZM685.945 559.902l-21.808-7.82 6.89-15.262Zm0 0"/><path fill="#fec300" d="m671.027 536.82-28.707 13.457-11.996-23.113ZM697.105 555.383l-11.16 4.52-14.918-23.083Zm0 0"/><path fill="#fec300" d="m685.945 559.902 5.75 26.95-16.468-17.797ZM654.156 563.168l9.98-11.086 11.09 16.973Zm0 0"/><path fill="#fec300" d="m675.965 571.863-21.809-8.695 21.07 5.887ZM664.137 552.082l21.808 7.82-10.718 9.153ZM664.137 552.082l-21.817-1.805 28.707-13.457ZM687.031 509.719l16.79 35.21-32.794-8.109Zm0 0"/><path fill="#fec300" d="m671.027 536.82-33.46-38.988 49.464 11.887ZM625.781 513.746l45.246 23.074-40.703-9.656Zm0 0"/><path fill="#fec300" d="m703.82 544.93-6.715 10.453-26.078-18.563Zm0 0"/><path fill="#fec300" d="m725.18 545.46-21.36-.53 19.465-18.66ZM767.344 539.07l-44.059-12.8-2.785-60.887ZM725.152 415.246l-4.652 50.137-51.223-43.98ZM646.152 436.781l-7.117-11.07 30.242-4.309ZM660.828 469.453l-33.336-19.457 18.66-13.215ZM627.492 449.996l-13.918-10.64 25.461-13.645Zm0 0"/><path fill="#fec300" d="m614.992 473.176 12.5-23.18 33.336 19.457Zm0 0"/><path fill="#fec300" d="m627.492 449.996-12.5 23.18-2.773-22.598Zm0 0"/><path fill="#fec300" d="m613.574 439.355 13.918 10.641-15.273.582ZM646.152 436.781l-18.66 13.215 11.543-24.285Zm0 0"/><path fill="#fec300" d="m660.828 469.453-14.676-32.672 23.125-15.379ZM720.5 465.383l-59.672 4.07 8.45-48.05ZM720.5 465.383l29.309-35.2 17.449 14.895ZM687.031 509.719l-26.203-40.266 59.672-4.07Zm0 0"/><path fill="#fec300" d="m767.258 445.078.086 93.992-46.844-73.687ZM725.18 545.46l-1.895-19.19 44.059 12.8ZM737.855 568.14l-12.675-22.68 42.164-6.39ZM721.992 597.55l15.863-29.41 29.41 30.005Zm0 0"/><path fill="#fec300" d="m737.855 568.14-15.863 29.41-1.578-20.39ZM701.613 644.855l20.38-47.304 45.28 43.773Zm0 0"/><path fill="#fec300" d="m721.992 597.55-15.62-14.456 14.042-5.934ZM706.371 583.094l15.621 14.457-30.297-10.7Zm0 0"/><path fill="#fec300" d="m691.695 586.852 30.297 10.699-20.379 47.304ZM675.832 590.906l25.781 53.95-48.836-8.45ZM736.45 667.125l-34.837-22.27 65.66-3.53ZM697 688.29l39.45-21.165 30.8 23.813Zm0 0"/><path fill="#fec300" d="m646.766 651.883 54.847-7.028L697 688.29ZM675.832 590.906l15.863-4.054 9.918 58.003Zm0 0"/><path fill="#fec300" d="m701.613 644.855 34.836 22.27L697 688.289ZM736.45 667.125l30.823-25.8-.023 49.612ZM767.254 767.25 697 688.29l70.25 2.648ZM767.254 767.25l-210.25-67.36 51.316-14.245ZM509.73 680.508l47.274 19.383-42.18 67.351ZM509.73 680.508l45.473-19.738 1.8 39.12ZM473.945 655.55l35.785 24.958-29.753 9.234Zm0 0"/><path fill="#fec300" d="m509.73 680.508-20.488-23.785 25.496-1.891Zm0 0"/><path fill="#fec300" d="m509.73 680.508 5.008-25.676 40.465 5.938ZM557.004 699.89l-1.8-39.12 37.343-7.72ZM557.004 699.89l35.543-46.84 15.773 32.595Zm0 0"/><path fill="#fec300" d="m609.465 650.3-1.145 35.345-15.773-32.594ZM608.32 685.645l1.145-35.344 37.3 1.582Zm0 0"/><path fill="#fec300" d="m697 688.29-88.68-2.645 38.446-33.762Zm0 0"/><path fill="#fec300" d="m608.32 685.645 88.68 2.644 70.254 78.961ZM557.004 699.89l210.25 67.36-252.43-.008ZM509.73 680.508l5.094 86.734-34.847-77.5ZM514.824 767.242 486.828 736.5l-6.851-46.758ZM442.305 685.633l17.27-18.352 20.402 22.461ZM459.574 667.281l1.766-17.324 12.605 5.594Zm0 0"/><path fill="#fec300" d="m459.574 667.281 14.371-11.73 6.032 34.191ZM473.945 655.55l15.297 1.173 20.488 23.785ZM470.324 625.852l3.621 29.699-12.761-25.153ZM461.184 630.398l.156 19.559-11.82-13.121ZM438.027 629.605l11.493 7.23-13.61 10.77ZM449.52 636.836l11.82 13.121-25.43-2.352ZM461.34 649.957l-1.766 17.324-18.14-9.71Zm0 0"/><path fill="#fec300" d="m415.938 676.195 25.496-18.625.87 28.063ZM415.938 676.195l-42.618 12.848L396.305 655ZM397.676 767.25l-24.356-78.207 40.586 16.875Zm0 0"/><path fill="#fec300" d="m373.32 689.043-10.472-40.055L396.305 655ZM309.285 691.543l32.719-38.336 31.316 35.836ZM309.285 691.543l-11.344-44.281 27.41 2.656ZM297.941 647.262l11.344 44.281-24.676-46.145Zm0 0"/><path fill="#fec300" d="m342.004 653.207-32.719 38.336 16.067-41.625ZM362.848 648.988l10.472 40.055-31.316-35.836ZM373.32 689.043l42.618-12.848-2.032 29.723ZM413.906 705.918l11.207 32.105-27.437 29.227ZM397.676 767.25l89.152-30.75 27.996 30.742ZM309.285 691.543l88.39 75.707-204.921.004ZM0 767.254l87.012-53.836 105.742 53.836ZM241.09 687.2l68.195 4.343-116.531 75.71ZM241.09 687.2l-7.926-35.255 27.242-6.468Zm0 0"/><path fill="#fec300" d="m193.5 652.5 39.664-.555 7.926 35.254ZM284.61 645.398 241.09 687.2l19.316-41.722ZM160.328 690.523l80.762-3.324-48.336 80.055ZM193.5 652.5l-33.172 38.023-1.437-38.28Zm0 0"/><path fill="#fec300" d="m87.012 713.418 73.316-22.895 32.426 76.73ZM123.043 654.645l37.285 35.878-45.887-20.265ZM114.441 670.258l-27.43 43.16-.577-60.078Zm0 0"/><path fill="#fec300" d="m47.34 680.371 18.781-29.414 20.313 2.383Zm0 0"/><path fill="#fec300" d="M87.012 713.418 47.34 680.371l39.094-27.031Zm0 0"/><path fill="#fec300" d="M87.012 713.418.066 721.48l47.274-41.109Zm0 0"/><path fill="#fec300" d="M.066 721.48-.03 687l47.37-6.629ZM-.031 687l.097 34.48-.199-39.699ZM.066 721.48l86.946-8.062L0 767.254ZM87.012 713.418l27.43-43.16 45.886 20.265ZM123.043 654.645l-8.602 15.613-28.007-16.918ZM160.328 690.523l-37.285-35.878 35.848-2.403ZM160.328 690.523 193.5 652.5l47.59 34.7ZM241.09 687.2l43.52-41.802 24.675 46.145ZM397.676 767.25l-88.39-75.707 64.034-2.5ZM397.676 767.25l27.437-29.227 61.715-1.523ZM425.113 738.023l-11.207-32.105 32.399 2.137ZM415.938 676.195l26.367 9.438-28.399 20.285Zm0 0"/><path fill="#fec300" d="m413.906 705.918 28.399-20.285 4 22.422Zm0 0"/><path fill="#fec300" d="m486.828 736.5-40.523-28.445 33.672-18.313Zm0 0"/><path fill="#fec300" d="m446.305 708.055-4-22.422 37.672 4.11ZM441.434 657.57l18.14 9.711-17.27 18.352ZM441.434 657.57l-25.497 18.625 6.348-20.754Zm0 0"/><path fill="#fec300" d="m422.285 655.441-6.348 20.754L396.306 655ZM403.332 616.676 396.305 655l-18.157-16.246ZM362.848 648.988l13.5-1.328 19.957 7.34ZM363.246 638.953l13.102 8.707-13.5 1.328ZM376.348 647.66l-13.102-8.707 14.902-.2Zm0 0"/><path fill="#fec300" d="m377.84 625.066 25.492-8.39-25.184 22.078ZM420.594 631.414l-17.262-14.738 17.191.308Zm0 0"/><path fill="#fec300" d="m416.707 638.496-13.375-21.82 17.262 14.738ZM377.84 625.066l11.07-13.875 14.422 5.485ZM388.91 611.191l-12.805-21.28 20.16 15.382Zm0 0"/><path fill="#fec300" d="m368.691 614.328 20.22-3.137-11.071 13.875Zm0 0"/><path fill="#fec300" d="m377.84 625.066-13.848 3.059 4.7-13.797ZM388.91 611.191l-20.219 3.137 7.414-24.418ZM396.266 605.293l-20.16-15.383 18.21-7.52Zm0 0"/><path fill="#fec300" d="m394.316 582.39-18.21 7.52-22.012-2.992Zm0 0"/><path fill="#fec300" d="m395.129 579.188-.813 3.203-40.222 4.527ZM376.34 576.414l.12-37.605 18.669 40.379ZM401.148 558.246l-24.687-19.437 23.785-10.848ZM382.02 515.57l23.562-1.375-5.336 13.766ZM404.766 495.3l.816 18.895-21.781-8.308ZM364.691 507.41l15.477-25.676 3.633 24.153ZM404.766 495.3l-24.598-13.566 31.035-29.558Zm0 0"/><path fill="#fec300" d="m380.168 481.734 24.598 13.567-20.965 10.586ZM382.02 515.57l-17.329-8.16 19.11-1.523Zm0 0"/><path fill="#fec300" d="m405.582 514.195-23.562 1.375 1.78-9.683Zm0 0"/><path fill="#fec300" d="m376.46 538.809 5.56-23.239 18.226 12.39Zm0 0"/><path fill="#fec300" d="m395.129 579.188-18.668-40.38 24.687 19.438ZM376.34 576.414l18.789 2.774-41.035 7.73ZM348.313 569.2l5.78 17.718-12.53-10.711ZM317.488 551.066l18.41-20.093 5.664 45.234ZM335.898 530.973l-18.41 20.093 9.864-40.761Zm0 0"/><path fill="#fec300" d="m327.352 510.305-24.547-13.266 22.601-10.96Zm0 0"/><path fill="#fec300" d="m302.805 497.04-2.809-24.345 25.41 13.383Zm0 0"/><path fill="#fec300" d="m308.648 518.328-5.843-21.289 24.547 13.266Zm0 0"/><path fill="#fec300" d="m317.488 551.066-8.84-32.738 18.704-8.023ZM328.645 592.836l-11.157-41.77 24.075 25.141Zm0 0"/><path fill="#fec300" d="m335.898 530.973 12.414 38.226-6.75 7.008ZM340.742 605.063l-12.097-12.227 12.918-16.629Zm0 0"/><path fill="#fec300" d="m353.766 602.512-13.024 2.55 13.352-18.144Zm0 0"/><path fill="#fec300" d="m354.094 586.918-13.352 18.144.82-28.855ZM340.742 605.063l-12.82 8.652.723-20.88ZM311.164 616.172l-.184-4.176 16.942 1.719ZM299.973 614.543l11.191 1.629-5.828 16.996Zm0 0"/><path fill="#fec300" d="m311.164 616.172 13.57 11.508-19.398 5.488Zm0 0"/><path fill="#fec300" d="m297.941 647.262 7.395-14.094 20.016 16.75Zm0 0"/><path fill="#fec300" d="m305.336 633.168 19.398-5.488.618 22.238Zm0 0"/><path fill="#fec300" d="m311.164 616.172 16.758-2.457-3.188 13.965ZM327.922 613.715l12.82-8.653-2.14 15.2ZM353.766 602.512l-.504 8.34-12.52-5.79Zm0 0"/><path fill="#fec300" d="m340.742 605.063 10.008 16.484-12.148-1.285ZM353.262 610.852l-2.512 10.695-10.008-16.485ZM.012 445.586l35.789-29.8 15.722 5.347ZM51.523 421.133l51.5-24.293-20.285 39.957Zm0 0"/><path fill="#fec300" d="m154.371 467.836-71.633-31.04 20.285-39.956ZM82.738 436.797l71.633 31.039-96.758 16.137ZM103.32 516.938l51.051-49.102 30.961 43.434ZM57.613 483.973l45.707 32.964-58.5 16.465Zm0 0"/><path fill="#fec300" d="m57.613 483.973-6.09-62.84 31.215 15.664Zm0 0"/><path fill="#fec300" d="M57.613 483.973.012 445.586l51.511-24.453ZM154.371 467.836l-51.05 49.101-45.708-32.964ZM-.027 482.625l57.64 1.348-12.793 49.43Zm0 0"/><path fill="#fec300" d="m103.32 516.938-61.64 61.878 3.14-45.414Zm0 0"/><path fill="#fec300" d="m44.82 533.402-3.14 45.414-41.7-2.406ZM-.027 482.625l44.847 50.777L-.02 576.41Zm0 0"/><path fill="#fec300" d="m.012 445.586 57.601 38.387-57.64-1.348ZM35.8 415.785l-35.788 29.8-.016-44.202ZM219.3 259.848l8.86-16.551 8.29 21.496ZM223.55 278.18l-4.25-18.332 17.15 4.945Zm0 0"/><path fill="#fec300" d="m241.39 292.832-17.84-14.652 14.009-3.118Zm0 0"/><path fill="#fec300" d="m237.559 275.063-14.008 3.117 12.898-13.387ZM223.55 278.18l17.84 14.652-10.1 21.211ZM252.969 349.426l-11.578-56.594 20.718 4.293ZM252.969 349.426l9.14-52.301L285 315.191ZM335.29 358.262l-47.013-6.207L285 315.19ZM252.969 349.426l35.308 2.629-10.105 20.09Zm0 0"/><path fill="#fec300" d="m241.39 292.832 11.579 56.594-21.68-35.383ZM288.277 352.055l-35.308-2.63L285 315.192ZM335.29 358.262l-41.712 17.375-5.3-23.582Zm0 0"/><path fill="#fec300" d="m292.918 386.813.66-11.176 41.711-17.375ZM288.277 352.055l5.301 23.582-15.406-3.492Zm0 0"/><path fill="#fec300" d="m293.578 375.637-.66 11.176-14.746-14.668ZM292.918 386.813l42.371-28.551-7.273 58.336ZM358.676 317.988l-23.387 40.274 3.52-37.285ZM339.145 298.828l19.53 19.16-19.866 2.989ZM342.332 272.035l31.004 16.328-34.191 10.465Zm0 0"/><path fill="#fec300" d="m339.145 298.828 34.19-10.465-14.66 29.625ZM373.336 288.363l-31.004-16.328 44.848-11.918ZM387.18 260.117l-12.258-37.582 13.598 1.106ZM374.922 222.535l10.5-26.39 3.098 27.496ZM350.371 237.941l11.164-28.554 13.387 13.148Zm0 0"/><path fill="#fec300" d="m342.332 272.035 8.04-34.094 36.808 22.176Zm0 0"/><path fill="#fec300" d="m350.371 237.941 24.55-15.406 12.259 37.582ZM361.535 209.387l19.399-12.918-6.012 26.066Zm0 0"/><path fill="#fec300" d="m380.934 196.469 4.488-.324-10.5 26.39Zm0 0"/><path fill="#fec300" d="m385.422 196.145-4.488.324-16.122-20.235ZM364.813 176.234 349.84 160.13l34.887-14.719ZM339.14 121.688l10.7 38.44-2.477 1.325ZM361.234 113.96l-4.109 10.65-17.984-2.922Zm0 0"/><path fill="#fec300" d="m361.234 113.96 16.473 8.966-20.582 1.683Zm0 0"/><path fill="#fec300" d="m370.988 107.371-9.754 6.59-5.714-18.305Zm0 0"/><path fill="#fec300" d="m380.625 93.926-9.637 13.445-15.468-11.715ZM302.996 70.219l52.524 25.437-34.344 8.586ZM339.14 121.688l-17.18 10.949-.784-28.395Zm0 0"/><path fill="#fec300" d="m355.52 95.656-16.38 26.031-17.964-17.445Zm0 0"/><path fill="#fec300" d="m361.234 113.96-22.093 7.728 16.379-26.032ZM370.988 107.371l6.719 15.555-16.473-8.965ZM377.707 122.926l7.02 22.484-27.602-20.8ZM349.84 160.129l-10.7-38.441 17.985 2.921ZM349.84 160.129l14.973 16.105-2.38 6.012ZM362.434 182.246l-.899 27.14-1.27-26.128Zm0 0"/><path fill="#fec300" d="m380.934 196.469-18.5-14.223 2.378-6.012ZM361.535 209.387l.899-27.14 18.5 14.222ZM347.363 161.453l2.477-1.324 12.594 22.117ZM360.266 183.258l-12.903-21.805 15.07 20.793ZM321.96 132.637l17.18-10.95 8.223 39.766ZM321.96 132.637l-26.374 16.508-3.688-12.274Zm0 0"/><path fill="#fec300" d="m297.04 163.453-21.454-6.258 20-8.05ZM256.992 153.438l18.594 3.757-13.625 9.512Zm0 0"/><path fill="#fec300" d="m261.96 166.707-12.784 6.34 7.816-19.61ZM261.96 166.707l9.645 4.547-11.87 6.434ZM271.605 171.254l10.891 17.344-11.984 13.035ZM270.512 201.633l-17.559-11.184 6.781-12.762ZM261.234 220.754l-35.152-6.676 26.871-23.629Zm0 0"/><path fill="#fec300" d="m270.512 201.633-9.278 19.12-8.28-30.304ZM271.605 171.254l-1.093 30.379-10.778-23.946ZM275.586 157.195l-3.98 14.059-9.645-4.547ZM276.984 141.2l-1.398 15.995-18.594-3.757ZM249.176 173.047l-17.406-15.953 25.222-3.656Zm0 0"/><path fill="#fec300" d="m249.176 173.047 12.785-6.34-2.227 10.98ZM249.176 173.047l-8.395 9.016-9.011-24.97Zm0 0"/><path fill="#fec300" d="m231.77 157.094 25.156-22.824.066 19.167Zm0 0"/><path fill="#fec300" d="m256.926 134.27-25.156 22.824.843-30.305ZM267.637 99.098l5.383 25.12-40.407 2.571ZM267.637 99.098l35.36-28.88-19.81 42.927Zm0 0"/><path fill="#fec300" d="m302.996 70.219-5.137 42.156-14.671.77ZM273.02 124.219l-5.383-25.121 15.55 14.047ZM273.02 124.219l-16.094 10.05-24.313-7.48Zm0 0"/><path fill="#fec300" d="m273.02 124.219 3.964 16.98-20.058-6.93ZM275.586 157.195l1.398-15.996 18.602 7.946Zm0 0"/><path fill="#fec300" d="m276.984 141.2 14.914-4.329 3.688 12.274ZM295.586 149.145l26.375-16.508-9.48 25.558ZM312.48 158.195l-15.44 5.258-1.454-14.308ZM297.04 163.453l32.917 15.215-32.96-7.883ZM271.605 171.254l3.98-14.059 21.454 6.258Zm0 0"/><path fill="#fec300" d="m282.496 188.598 14.543-25.145-.043 7.332Zm0 0"/><path fill="#fec300" d="m290.215 189.07-7.719-.472 14.5-17.813Zm0 0"/><path fill="#fec300" d="m282.496 188.598-10.89-17.344 25.433-7.8ZM297.04 163.453l15.44-5.258 17.477 20.473ZM329.957 178.668l-11.594 30.844-18.105-23.418ZM290.96 198.816l27.403 10.696-5.5 16.578Zm0 0"/><path fill="#fec300" d="m300.258 186.094 18.105 23.418-27.402-10.696ZM215.93 445.125l45.297 39.254-66.172-12.988ZM548.504 146.313l54.703 9.476-44.11 45.293Zm0 0"/><path fill="#fec300" d="m603.207 155.79-54.703-9.477 24.25-42.301ZM658.477 97.246l35.894 53.8-40.695-17.058ZM278.895 247.16l-10.899-5.289 8.399-8.89ZM267.996 241.871l-2.414-10.281 10.813 1.39ZM581.64 603.281l-43.28 32.766-6.708-35.02ZM531.652 601.027l6.707 35.02-13.675-12.95ZM482.828 627.957l14.813-4.64 5.078 5.464ZM502.719 628.781l7.46-24.601.618-.125Zm0 0"/><path fill="#fec300" d="m510.18 604.18-7.461 24.601-5.078-5.465ZM514.79 579.25l-4.61 24.93-16.766-15.98ZM510.18 604.18l4.61-24.93-3.993 24.805ZM510.18 604.18l-12.54 19.136-8.242-8.539ZM497.64 623.316l-14.812 4.641 6.57-13.18Zm0 0"/><path fill="#fec300" d="m493.414 588.2 16.766 15.98-20.782 10.597ZM514.79 579.25l-21.376 8.95-1.992-14.614Zm0 0"/><path fill="#fec300" d="m479.805 545.418 34.984 33.832-23.367-5.664ZM479.805 545.418l-16.606 18.953-10.234-31.77Zm0 0"/><path fill="#fec300" d="m479.805 545.418-26.84-12.816 9.883-8.985ZM452.965 532.602l-15.973-3.641 8.633-36.957ZM443.898 485.73l37.176 2.32-35.449 3.954Zm0 0"/><path fill="#fec300" d="m452.965 532.602-7.34-40.598 17.223 31.613Zm0 0"/><path fill="#fec300" d="m436.684 550.438.308-21.477 15.973 3.64ZM436.684 550.438l26.515 13.933-33.965 21.95Zm0 0"/><path fill="#fec300" d="m463.2 564.371-26.516-13.933 16.28-17.836ZM541.54 308.219l-15.997 10.765-35.469-15.8ZM525.543 318.984l17.316-3.492 12.313 14.18Zm0 0"/><path fill="#fec300" d="m568.512 313.813-25.653 1.68-1.32-7.274Zm0 0"/><path fill="#fec300" d="m555.172 329.672-12.313-14.18 25.653-1.68Zm0 0"/><path fill="#fec300" d="m542.86 315.492-17.317 3.492 15.996-10.765ZM633.8 563.383l2.81 10.082-21.954 4.57Zm0 0"/><path fill="#fec300" d="m610.723 526.23 23.078 37.153-19.145 14.652ZM538.57 446.398l20.344-5.699-4.77 23.098ZM539.563 505.773l24.695-3.945-22.43 20.727ZM533.172 475.57l10.715 9.125-7.907-.066Zm0 0"/><path fill="#fff" d="m260.844 287.406 16.89 1.16-15.625 8.559ZM277.734 288.566 275 274.356l23.922 6.863ZM263.344 269.047 275 274.355l-14.156 13.051Zm0 0"/><path fill="#fff" d="m275 274.355 2.734 14.211-16.89-1.16ZM241.39 292.832l19.454-5.426 1.265 9.719Zm0 0"/><path fill="#fff" d="m237.559 275.063 25.785-6.016-2.5 18.36Zm0 0"/><path fill="#fff" d="m241.39 292.832-3.831-17.77 23.285 12.344ZM263.344 269.047l-25.785 6.015 9.539-11.382ZM45.191 387.344l57.832 9.496-51.5 24.293ZM35.8 415.785l9.391-28.441 6.332 33.789ZM78.297 359.016 45.19 387.344.011 302.785Zm0 0"/><path fill="#fff" d="M78.297 359.016.012 302.786l80.52-127.563ZM78.297 359.016l98.64-76.457.786 66.386ZM213.465 368.285l-29.809 69.192-5.933-88.532Zm0 0"/><path fill="#fff" d="m176.938 282.559 54.351 31.484-53.566 34.902ZM252.969 349.426l-16.739-2.66-4.94-32.723ZM236.23 346.766l16.739 2.66-39.504 18.86Zm0 0"/><path fill="#fff" d="m215.93 445.125-32.274-7.648 29.809-69.192ZM270.93 452.387l-55-7.262 58.468-24.809ZM270.93 452.387l29.066 20.308-38.77 11.684Zm0 0"/><path fill="#fff" d="m215.93 445.125 55 7.262-9.703 31.992ZM215.93 445.125l44.011-58.07 14.457 33.261ZM259.941 387.055l-44.011 58.07-2.465-76.84Zm0 0"/><path fill="#fff" d="m231.29 314.043 4.94 32.723-22.765 21.52Zm0 0"/><path fill="#fff" d="m252.969 349.426 6.972 37.629-46.476-18.77Zm0 0"/><path fill="#fff" d="m231.29 314.043-17.825 54.242-35.742-19.34Zm0 0"/><path fill="#fff" d="m183.656 437.477-80.633-40.637 74.7-47.895ZM248.023 238.309l17.559-6.72 2.414 10.282ZM248.023 238.309l17.215 12.492-18.738-.29ZM278.895 247.16l1.234 16.063-14.89-12.422Zm0 0"/><path fill="#fff" d="m265.238 250.8-17.215-12.491 19.973 3.562Zm0 0"/><path fill="#fff" d="m278.895 247.16-13.657 3.64 2.758-8.929ZM280.129 263.223l-23.996-5.254 9.105-7.168ZM256.133 257.969l-9.633-7.457 18.738.289ZM240.785 239.453l4.211 11.516-16.836-7.672ZM244.414 257.488l-16.254-14.191 16.836 7.672Zm0 0"/><path fill="#fff" d="m228.16 243.297 16.254 14.191-7.965 7.305ZM224.367 223.297l16.418 16.156-12.625 3.844ZM226.082 214.078l35.152 6.676-36.867 2.543ZM226.082 214.078l14.7-32.016 12.171 8.387ZM686.16 259.379l22.637-4.715.414 28.918ZM678.355 234.098l7.805 25.28-26.457-11.202Zm0 0"/><path fill="#fff" d="m659.703 248.176 19.91 55.82 10.278 28.813ZM652.535 226.672l7.168 21.504-28.637 18.414Zm0 0"/><path fill="#fff" d="m597.863 239.54 15.73-27.817 38.942 14.949ZM597.863 239.54l-36.73 1.315-2.035-39.773Zm0 0"/><path fill="#fff" d="m561.133 240.855 36.73-1.316-8.086 60.95ZM543.43 291.563l-40.563-45.805 58.266-4.903Zm0 0"/><path fill="#fff" d="m543.43 291.563-49.059-3.32 8.496-42.485Zm0 0"/><path fill="#fff" d="m502.867 245.758-26.097 6.312-6.387-28.757ZM470.383 223.313l-3.899-21.97 20.094-.195ZM445.57 204.422l20.914-3.078 3.899 21.969Zm0 0"/><path fill="#fff" d="m466.484 201.344-20.914 3.078 6.875-10.328Zm0 0"/><path fill="#fff" d="m464.89 178.691 1.594 22.653-14.039-7.25Zm0 0"/><path fill="#fff" d="m443.445 181.941 21.446-3.25-12.446 15.403ZM443.445 181.941l-18.12-24.367 39.577-12.969ZM464.89 178.691l-21.445 3.25 21.457-37.336Zm0 0"/><path fill="#fff" d="m466.484 201.344-1.593-22.653 21.687 22.457ZM548.504 146.313l-28.27 64.492-33.656-9.657ZM520.234 210.805l-17.367 34.953-16.289-44.61ZM502.867 245.758l-8.496 42.484-14.683-12.176ZM476.77 252.07l26.097-6.312-23.18 30.308Zm0 0"/><path fill="#fff" d="m502.867 245.758-32.484-22.446 16.195-22.164ZM464.89 178.691l83.614-32.379-61.926 54.836ZM520.234 210.805l28.27-64.493 10.594 54.77Zm0 0"/><path fill="#fff" d="m561.133 240.855-58.266 4.903 17.367-34.953Zm0 0"/><path fill="#fff" d="m561.133 240.855-40.899-30.05 38.864-9.723ZM543.43 291.563l17.703-50.708 28.644 59.633ZM543.43 291.563l-1.89 16.656-47.169-19.977Zm0 0"/><path fill="#fff" d="m480.629 294.086 13.742-5.844-4.297 14.942ZM494.371 288.242l-13.742 5.844-.942-18.02Zm0 0"/><path fill="#fff" d="m541.54 308.219-51.466-5.035 4.297-14.942Zm0 0"/><path fill="#fff" d="m568.512 313.813-26.973-5.594 48.238-7.73ZM625.02 344.73l-35.243-44.242 100.114 32.32ZM625.02 344.73l-7.704 27.735-13.043-14.23Zm0 0"/><path fill="#fff" d="m617.316 372.465-8.273 3.027-4.77-17.258ZM617.316 372.465l11.325 16.633-18.274 8.183ZM610.367 397.281l18.274-8.183 10.394 36.613ZM613.574 439.355l-3.207-42.074 28.668 28.43Zm0 0"/><path fill="#fff" d="m609.043 375.492 8.273-3.027-6.949 24.816ZM628.64 389.098l-11.324-16.633 43.696-4.492Zm0 0"/><path fill="#fff" d="m639.035 425.71-10.394-36.612 32.37-21.125Zm0 0"/><path fill="#fff" d="m617.316 372.465 7.704-27.735 35.992 23.243ZM585.355 325.164l39.665 19.566-20.747 13.504ZM585.355 325.164l-16.843-11.351 21.265-13.325ZM689.89 332.809l-100.113-32.32 41.29-33.9Zm0 0"/><path fill="#fff" d="m625.02 344.73-39.665-19.566 4.422-24.676ZM541.54 308.219l1.89-16.656 46.347 8.925ZM589.777 300.488l8.086-60.949 33.203 27.05ZM613.594 211.723l-15.73 27.816-38.766-38.457Zm0 0"/><path fill="#fff" d="m597.863 239.54 54.672-12.868-21.469 39.918Zm0 0"/><path fill="#fff" d="m678.355 234.098-18.652 14.078-7.168-21.504Zm0 0"/><path fill="#fff" d="m659.703 248.176 30.188 84.633-58.825-66.22ZM661.012 367.973 625.02 344.73l64.87-11.921Zm0 0"/><path fill="#fff" d="m639.035 425.71 21.977-57.737 8.265 53.43Zm0 0"/><path fill="#fff" d="m661.012 367.973 64.14 47.273-55.875 6.156Zm0 0"/><path fill="#fff" d="m661.012 367.973 40.148-6.996 23.992 54.27ZM701.16 360.977l-40.148 6.996 31.898-34.817Zm0 0"/><path fill="#fff" d="m661.012 367.973 28.879-35.164 3.02.347Zm0 0"/><path fill="#fff" d="m692.91 333.156-3.02-.347-10.277-28.813ZM686.16 259.379l-6.547 44.617-19.91-55.82ZM686.16 259.379l-7.805-25.281 24.04 10.015ZM686.16 259.379l16.235-15.266 6.402 10.551ZM708.797 254.664l22.207 21.672-21.793 7.246Zm0 0"/><path fill="#fff" d="m702.395 244.113 14.554-26.465-8.152 37.016ZM742.105 221.645l-11.101 54.69-22.207-21.67ZM708.797 254.664l8.152-37.016 25.156 3.997Zm0 0"/><path fill="#fff" d="m702.395 244.113-15.184-24.492 29.738-1.973ZM687.21 219.621l19.567-21.121 10.172 19.148Zm0 0"/><path fill="#fff" d="m687.21 219.621-7.972-12.512 27.54-8.609ZM196.816 155.07l70.82-55.972-35.023 27.691ZM636.61 573.465l-2.81-10.082 6.61 8.187Zm0 0"/><path fill="#fff" d="m635.02 598.36 1.59-24.895 3.8-1.895ZM635.02 598.36l-17.094 15.57-3.27-35.895ZM669.277 586.734 635.02 598.36l5.39-26.789Zm0 0"/><path fill="#fff" d="m632.23 638.84 2.79-40.48 34.257-11.626ZM636.61 573.465l-1.59 24.894-20.364-20.324Zm0 0"/><path fill="#fff" d="m632.23 638.84-14.304-24.91 17.094-15.57ZM632.23 638.84l37.047-52.106 6.555 4.172ZM632.23 638.84l43.602-47.934-23.055 45.5ZM538.36 636.047l-23.622 18.785 9.946-31.734ZM582.96 639.031l-44.6-2.984 43.28-32.766ZM581.64 603.281l-49.988-2.254 8.578-45.523ZM577.914 551.977l3.727 51.304-41.41-47.777Zm0 0"/><path fill="#fff" d="m568.336 521.996 9.578 29.98-37.684 3.528ZM541.828 522.555l22.43-20.727 4.078 20.168ZM544.488 492.371l10.153-19.129 9.617 28.586ZM543.887 484.695l.601 7.676-8.508-7.742Zm0 0"/><path fill="#fff" d="m523.164 485.766 12.816-1.137-6.78 9.375ZM533.172 475.57l2.808 9.059-10.253-5.242Zm0 0"/><path fill="#fff" d="m533.172 475.57-7.445 3.817-.348-16.285ZM510.066 474.45l15.66 4.937-2.562 6.379Zm0 0"/><path fill="#fff" d="m525.379 463.102.348 16.285-15.66-4.938ZM511.648 497.75l-1.582-23.3 13.098 11.316ZM529.2 494.004l-13.774 14.27-3.778-10.524Zm0 0"/><path fill="#fff" d="m539.563 505.773-24.137 2.5 13.773-14.27Zm0 0"/><path fill="#fff" d="m523.164 485.766 6.035 8.238-17.55 3.746ZM525.727 479.387l10.253 5.242-12.816 1.137ZM535.98 484.629l8.508 7.742-15.289 1.633Zm0 0"/><path fill="#fff" d="m544.488 492.371-4.926 13.402-10.363-11.77Zm0 0"/><path fill="#fff" d="m543.887 484.695 10.754-11.453-10.153 19.13Zm0 0"/><path fill="#fff" d="m539.563 505.773 4.925-13.402 19.77 9.457ZM515.426 508.273l24.136-2.5 2.266 16.782Zm0 0"/><path fill="#fff" d="m520.191 527.941-4.765-19.668 26.402 14.282Zm0 0"/><path fill="#fff" d="m520.191 527.941 21.637-5.386-1.598 32.949Zm0 0"/><path fill="#fff" d="m541.828 522.555 26.508-.559-28.106 33.508ZM363.246 638.953l.746-10.828 14.156 10.629ZM363.992 628.125l13.848-3.059.308 13.688ZM297.941 647.262l-7.898-14.336 15.293.242Zm0 0"/><path fill="#fff" d="m290.043 632.926 9.93-18.383 5.363 18.625ZM654.156 563.168l-11.836-12.89 21.817 1.804Zm0 0"/></svg>