<svg xmlns="http://www.w3.org/2000/svg" width="1024" height="1024" viewBox="0 0 768 768"><path fill="#fff" d="M490.094 525.871 504.508 510l13.77 25.91Zm0 0"/><path fill="#fff" d="m532.438 513.895 24.218-10.7-38.379 32.715ZM556.656 503.195l-13.433-6.363 20.472-19.394ZM558.488 529.05l-1.832-25.855 44.317 32.825Zm0 0"/><path fill="#fff" d="m610.074 502.5 8.684 68.215-17.785-34.695ZM661.71 585.098 610.075 502.5l20.489-67.187ZM623.215 585.148l38.496-.05-69.95 58.609Zm0 0"/><path fill="#fff" d="m623.215 585.148-31.453 58.559 26.996-72.992ZM661.71 585.098l-79.386 105.609 9.438-47ZM582.324 690.707l-9.875 76.484-65.652-68.625Zm0 0"/><path fill="#fff" d="m458.422 709.984 20.851-25.89 27.524 14.472Zm0 0"/><path fill="#fff" d="m441.223 735.348 17.199-25.364 114.027 57.207Zm0 0"/><path fill="#fff" d="m433.863 714.316 9.356-1.293-1.996 22.325ZM436.813 698.758l-2.95 15.558-7.992-17.117ZM425.871 697.2l7.992 17.116-9.695 8.2Zm0 0"/><path fill="#fff" d="m433.863 714.316 7.36 21.032-17.055-12.832ZM436.813 698.758l6.406 14.265-9.356 1.293Zm0 0"/><path fill="#fff" d="m441.223 735.348 1.996-22.325 14.344-3.195Zm0 0"/><path fill="#fff" d="m449.23 684.43 9.192 25.554-.86-.156Zm0 0"/><path fill="#fff" d="m449.23 684.43 30.043-.336-20.851 25.89ZM458.422 709.984l-17.2 25.364 16.34-25.52ZM572.45 767.191l-114.028-57.207 48.375-11.418ZM366.973 737.84l205.476 29.351-268.59.055ZM366.973 737.84l-24.125-30.25 9.691-5.504Zm0 0"/><path fill="#fff" d="M399.195 735.063 572.45 767.19 366.973 737.84Zm0 0"/><path fill="#fff" d="m399.195 735.063 42.028.285 131.226 31.843ZM441.223 735.348l-29.286-14.418 12.231 1.586ZM402.695 697.652l9.243 23.278-13.86-2.047ZM425.871 697.2l-23.176.452-18.726-8.812ZM402.695 697.652l-4.617 21.23-12.672-.417Zm0 0"/><path fill="#fff" d="m398.078 718.883 13.86 2.047-12.743 14.133Zm0 0"/><path fill="#fff" d="m385.406 718.465 13.79 16.597-32.223 2.778Zm0 0"/><path fill="#fff" d="m411.938 720.93 29.285 14.418-42.028-.285ZM398.078 718.883l1.117 16.18-13.789-16.598ZM366.973 737.84l9.043-25.848 9.39 6.473ZM376.016 711.992l-9.043 25.848-14.434-35.754Zm0 0"/><path fill="#fff" d="m383.969 688.84-7.953 23.152-23.477-9.906ZM342.848 707.59l23.757-40.473-14.066 34.969ZM342.848 707.59l-16.309-19.278 13.602-11.484ZM342.848 707.59l-40.028 28.945 10.563-18.996ZM302.82 736.535l.172-21.21 10.39 2.214ZM302.992 715.324l8.938-9.972 1.453 12.187ZM311.93 705.352l-2.356-20.239 16.965 3.2Zm0 0"/><path fill="#fff" d="m326.54 688.313-16.966-3.2 15.852-11.765ZM335.918 665.5l-10.492 7.848 3.98-30.121Zm0 0"/><path fill="#fff" d="M363.035 644.586 335.918 665.5l-6.512-22.273ZM325.426 673.348l-13.414-1.344 17.394-28.777ZM325.426 673.348l10.492-7.848 4.223 11.328Zm0 0"/><path fill="#fff" d="m309.574 685.113 2.438-13.11 13.414 1.345ZM326.54 688.313l-1.114-14.965 14.715 3.48Zm0 0"/><path fill="#fff" d="m342.848 707.59-30.918-2.238 14.61-17.04ZM311.93 705.352l30.918 2.238-29.465 9.95ZM366.605 667.117l-23.757 40.473-2.707-30.762Zm0 0"/><path fill="#fff" d="m302.82 736.535 40.028-28.945-38.989 59.656ZM294.152 730.164l8.668 6.371-14.043 13.195ZM245.902 740.184l42.875 9.546 15.082 17.516Zm0 0"/><path fill="#fff" d="m219.18 685.105 49.3 23.09-22.578 31.989Zm0 0"/><path fill="#fff" d="m268.883 675.797-.403 32.398-49.3-23.09ZM268.48 708.195l20.297 41.535-42.875-9.546Zm0 0"/><path fill="#fff" d="m288.777 749.73 14.043-13.195 1.04 30.711Zm0 0"/><path fill="#fff" d="m342.848 707.59 24.125 30.25-63.114 29.406ZM-.031 767.246l245.933-27.062 57.957 27.062Zm0 0"/><path fill="#fff" d="m219.18 685.105 26.722 55.079L-.03 767.246ZM268.105 665.953l-48.925 19.152 37.93-42.226ZM268.883 675.797l-3.426-2.887 2.648-6.957ZM268.105 665.953l-2.648 6.957-46.277 12.195Zm0 0"/><path fill="#fff" d="m199.293 618.64 45.16 18.676-25.273 47.79ZM199.293 618.64l23.629-60.43 13.887 55.153Zm0 0"/><path fill="#fff" d="m203.074 510.063 19.848 48.148-30.215-21.184ZM167.77 513.32l35.304-3.258-10.367 26.965ZM167.77 513.32l31.523 105.32 19.887 66.465ZM167.77 513.32l9.25-66.992 15.378 13.922Zm0 0"/><path fill="#fff" d="m167.77 513.32 51.41 171.785L-.031 767.246ZM265.457 672.91l3.426 2.887-49.703 9.308Zm0 0"/><path fill="#fff" d="m219.18 685.105 25.273-47.789 12.656 5.563Zm0 0"/><path fill="#fff" d="m244.453 637.316 10.004-10.726 2.652 16.289ZM261.29 586.645l-6.833 39.945-17.648-13.227Zm0 0"/><path fill="#fff" d="m254.457 626.59-10.004 10.726-45.16-18.675ZM254.457 626.59l-55.164-7.95 37.516-5.277Zm0 0"/><path fill="#fff" d="m192.707 537.027 30.215 21.184-23.629 60.43Zm0 0"/><path fill="#fff" d="M199.293 618.64 167.77 513.32l24.937 23.707ZM-.031 767.246l.027-238.504L167.77 513.32ZM162.691 433.645l5.079 79.675L-.004 528.742ZM203.074 510.063l-35.304 3.257 24.628-53.07ZM177.02 446.328l8.171-10.351 7.207 24.273Zm0 0"/><path fill="#fff" d="m185.191 435.977-8.171 10.351-14.329-12.683Zm0 0"/><path fill="#fff" d="m162.691 433.645 14.329 12.683-9.25 66.992ZM-.004 528.742l.008-211.36L162.69 433.646ZM185.191 435.977l-22.5-2.332 20.38-22.254ZM162.43 364.191l24.082 5.551-3.442 41.649Zm0 0"/><path fill="#fff" d="m162.691 433.645-.261-69.454 20.64 47.2Zm0 0"/><path fill="#fff" d="M162.691 433.645.004 317.383 162.43 364.19ZM.004 317.383.008 126.23 154.27 302.13ZM.008 126.23V-.012l191.996 87.137ZM154.27 302.129.008 126.23l191.996-39.105Zm0 0"/><path fill="#fff" d="m195.988 206.68-41.718 95.449 37.734-215.004ZM216.027 119.98l-20.039 86.7-3.984-119.555ZM195.988 206.68l35.336 3.152-.304 35.707ZM226.934 253.11l-24.25 8.62-6.696-55.05ZM202.684 261.73l-6.774 35.907-14.265-19.297Zm0 0"/><path fill="#fff" d="m181.645 278.34 14.265 19.297-14.34.199Zm0 0"/><path fill="#fff" d="m195.91 297.637-10.074 21.722-4.266-21.523ZM186.512 369.742l-24.082-5.55 23.406-44.833ZM154.27 302.129l8.16 62.062L.004 317.383Zm0 0"/><path fill="#fff" d="m181.57 297.836 4.266 21.523-31.566-17.23Zm0 0"/><path fill="#fff" d="m162.43 364.191-8.16-62.062 31.566 17.23ZM181.645 278.34l-.075 19.496-27.3 4.293Zm0 0"/><path fill="#fff" d="m195.988 206.68-14.343 71.66-27.375 23.789ZM226.934 253.11l-30.946-46.43 35.032 38.86ZM226.934 253.11l-8.746 19.898-15.504-11.278Zm0 0"/><path fill="#fff" d="m225.754 300.195-7.566-27.187 17.937 10.137ZM225.754 300.195l20.039-10.523-5.648 11.254Zm0 0"/><path fill="#fff" d="m236.125 283.145 9.668 6.527-20.04 10.523ZM248.25 312l-22.496-11.805 14.39.73ZM240.145 300.926l5.648-11.254L248.25 312Zm0 0"/><path fill="#fff" d="m245.793 289.672-9.668-6.527 9.23-11.418ZM218.188 273.008l27.167-1.281-9.23 11.418ZM218.188 273.008l-22.278 24.629 6.774-35.907ZM195.988 206.68l6.696 55.05-21.04 16.61ZM229.184 173.125l2.14 36.707-35.336-3.152ZM236.473 144.7l-7.29 28.425-13.156-53.145Zm0 0"/><path fill="#fff" d="M253.676 115.613 236.473 144.7l-20.446-24.719Zm0 0"/><path fill="#fff" d="m216.027 119.98 13.157 53.145-33.196 33.555ZM253.676 115.613l-37.649 4.367 8.953-23.418ZM192.004 87.125l2.02-19.645 30.956 29.082ZM198.219 24.328l-6.215 62.797L.008-.012Zm0 0"/><path fill="#fff" d="m224.98 96.563-8.953 23.417-24.023-32.855ZM198.219 24.328l-4.196 43.152-2.02 19.645ZM256.32.004l-22.98 32.559-35.121-8.235Zm0 0"/><path fill="#fff" d="M198.219 24.328.008-.012 256.32.004ZM233.34 32.563l-19.574 9.585-15.547-17.82ZM233.133 46.293l.207-13.73 30.12 11.414Zm0 0"/><path fill="#fff" d="m263.46 43.977-30.12-11.414L256.32.002Zm0 0"/><path fill="#fff" d="m233.34 32.563-.207 13.73-19.367-4.145ZM252.383 62.715l-19.25-16.422 30.328-2.316ZM252.383 62.715l11.078-18.738 25.441 41.785ZM245.316 82.406l43.586 3.356-11.609 20.687ZM277.293 106.45l32.879-2.876-9.027 16.836ZM324.05 121.602l-14.468 9.351-8.437-10.543ZM309.582 130.953l14.469-9.351 7.672 27.785Zm0 0"/><path fill="#fff" d="m331.723 149.387-7.672-27.785 41.008 40.789ZM397.27 144.715l-24.829 30.738-7.382-13.062ZM420.988 117.316l-1.07 20.782-22.648 6.617Zm0 0"/><path fill="#fff" d="m399.703 116.188 21.285 1.128-23.718 27.399ZM401.102 159.105l-28.66 16.348 24.828-30.738ZM419.918 138.098l-18.816 21.007-3.832-14.39ZM419.918 138.098l1.07-20.782 8.715 6.801Zm0 0"/><path fill="#fff" d="m436.91 113.297-7.207 10.82-8.715-6.8ZM436.91 113.297l1.617-35.828 13.493 22.64Zm0 0"/><path fill="#fff" d="m438.527 77.469 35.047.242-21.554 22.398ZM438.527 77.469l15.887-37.719 10.668 10.918Zm0 0"/><path fill="#fff" d="m478.293.004 5.203 34.84-29.082 4.906ZM438.527 77.469l-28.55-27.93 44.437-9.789Zm0 0"/><path fill="#fff" d="m438.527 77.469-36.898-6.43 8.348-21.5ZM438.527 77.469l-1.617 35.828-18.926-10.524Zm0 0"/><path fill="#fff" d="m417.984 102.773 18.926 10.524-15.922 4.02Zm0 0"/><path fill="#fff" d="m417.984 102.773 3.004 14.543-21.285-1.129ZM397.27 144.715l-20.997-5.422 23.43-23.106Zm0 0"/><path fill="#fff" d="m399.703 116.188-23.43 23.105-.62-5.535ZM376.273 139.293l20.997 5.422-32.211 17.676Zm0 0"/><path fill="#fff" d="m324.05 121.602 7.54-6.797 44.683 24.488ZM310.172 103.574l21.418 11.23-7.54 6.798ZM324.05 121.602l52.223 17.691-11.214 23.098Zm0 0"/><path fill="#fff" d="m310.172 103.574 13.879 18.028-22.906-1.192ZM288.902 85.762l21.27 17.812-32.879 2.875ZM288.902 85.762l50.172-45.13-13.664 40.345Zm0 0"/><path fill="#fff" d="M256.32.004h221.973L339.074 40.633Zm0 0"/><path fill="#fff" d="M409.977 49.54 350.043 75.78l-10.969-35.148ZM339.074 40.633l10.969 35.148-10.594-8.43Zm0 0"/><path fill="#fff" d="m350.043 75.781 59.934-26.242-8.348 21.5ZM339.45 67.352l10.593 8.43-24.633 5.195ZM339.074 40.633l.375 26.719-14.039 13.625ZM263.46 43.977l75.614-3.344-50.172 45.129Zm0 0"/><path fill="#fff" d="m339.074 40.633-75.613 3.344L256.32.004Zm0 0"/><path fill="#fff" d="m409.977 49.54-70.903-8.907L478.293.003ZM541.441 23.285l-35.566 4.574L478.293.004Zm0 0"/><path fill="#fff" d="M541.441 23.285 478.293.004l288.934.07ZM478.293.004 454.414 39.75l-44.437 9.79ZM483.496 34.844l-18.414 15.824-10.668-10.918Zm0 0"/><path fill="#fff" d="m505.875 27.86-22.379 6.984-5.203-34.84ZM541.441 23.285l-28.03 32.832-7.536-28.258ZM492.309 91.05l21.101-34.933-4.379 48.29Zm0 0"/><path fill="#fff" d="m491.137 123.375 17.894-18.969-2.59 55.957ZM506.441 160.363l13.864 9.055-11.117 26.816ZM509.188 196.234l34.57-39.761 4.066 62.73ZM608.352 339.29l-60.528-120.087 96.5 46.55ZM767.309 400.125 644.324 265.754l122.926-62.637Zm0 0"/><path fill="#fff" d="m644.324 265.754-96.5-46.55-4.066-62.731ZM520.305 169.418l23.453-12.945-34.57 39.761Zm0 0"/><path fill="#fff" d="m506.441 160.363 37.317-3.89-23.453 12.945Zm0 0"/><path fill="#fff" d="m509.031 104.406 34.727 52.067-37.317 3.89ZM479.246 107.336l29.785-2.93-17.894 18.969Zm0 0"/><path fill="#fff" d="m509.031 104.406 47.461-23.773-12.734 75.84ZM509.031 104.406l-29.785 2.93L492.31 91.05Zm0 0"/><path fill="#fff" d="m513.41 56.117 43.082 24.516-47.46 23.773ZM556.492 80.633l93.922 50.476-106.656 25.364ZM556.492 80.633l-15.05-57.348L767.226.075Zm0 0"/><path fill="#fff" d="M556.492 80.633 513.41 56.117l28.031-32.832ZM650.414 131.11l-93.922-50.477L767.227.074ZM650.414 131.11l-6.09 134.644-100.566-109.281Zm0 0"/><path fill="#fff" d="m767.25 203.117-122.926 62.637 6.09-134.645ZM644.324 265.754 767.31 400.125l-158.957-60.836ZM562.621 336.664l-13.594-51.121 59.325 53.746ZM549.027 285.543l-33.539-37.996 32.336-28.344ZM510.57 223.395l-1.382-27.16 38.636 22.968Zm0 0"/><path fill="#fff" d="m515.488 247.547-4.918-24.152 37.254-4.192Zm0 0"/><path fill="#fff" d="m608.352 339.29-59.325-53.747-1.203-66.34ZM608.352 339.29 562.46 378.28l.16-41.617ZM553.297 443.984l9.164-65.703 68.101 57.031ZM553.297 443.984l10.398 33.454h-22.3Zm0 0"/><path fill="#fff" d="m563.695 477.438-10.398-33.454 77.265-8.671ZM630.563 435.313l136.746-35.188L661.71 585.098ZM562.46 378.281l45.892-38.992 22.21 96.024Zm0 0"/><path fill="#fff" d="m767.309 400.125-136.746 35.188-22.211-96.024ZM563.695 477.438l66.867-42.125-20.488 67.187ZM563.695 477.438l-20.472 19.394-1.828-19.394ZM543.223 496.832l-10.785 17.063.488-15.836Zm0 0"/><path fill="#fff" d="m532.438 513.895-12.29-6.79 12.778-9.046ZM541.395 477.438l1.828 19.394-10.297 1.227ZM543.223 496.832l13.433 6.363-24.218 10.7ZM610.074 502.5l-53.418.695 7.04-25.757ZM556.656 503.195l53.418-.695-9.101 33.52ZM600.973 536.02l17.785 34.695-19.969 6.09ZM623.215 585.148l-4.457-14.433 42.953 14.383Zm0 0"/><path fill="#fff" d="m661.71 585.098-42.952-14.383-8.684-68.215ZM582.324 690.707l79.387-105.61-89.262 182.094ZM591.762 643.707l-9.438 47-10.367-38.531ZM531.27 662.234l34.023-7.207 17.031 35.68Zm0 0"/><path fill="#fff" d="m565.293 655.027 6.664-2.851 10.367 38.531ZM574.078 634.496l-8.785 20.531-31.07-12.191ZM534.223 642.836l-1.149 14.976-1.804 4.422Zm0 0"/><path fill="#fff" d="m534.223 642.836-2.953 19.398-8.504-27.066Zm0 0"/><path fill="#fff" d="m531.27 662.234-17.227-8.984 8.723-18.082ZM531.27 662.234l51.054 28.473-70.156-17.344Zm0 0"/><path fill="#fff" d="m512.168 673.363 1.875-20.113 17.227 8.984ZM512.168 673.363l70.156 17.344-75.527 7.86ZM486.629 670.52l25.539 2.843-5.371 25.203Zm0 0"/><path fill="#fff" d="m493.473 655.824 18.695 17.54-25.54-2.844ZM473.082 652.426l20.39 3.398-10.378 11.457ZM473.082 652.426l7.715 21.91-18.496-17.95Zm0 0"/><path fill="#fff" d="m480.797 674.336 5.832-3.816 20.168 28.046Zm0 0"/><path fill="#fff" d="m479.273 684.094 1.524-9.758 26 24.23ZM480.797 674.336l-7.715-21.91 10.012 14.855ZM493.473 655.824l-6.844 14.696-3.535-3.239ZM514.043 653.25l-1.875 20.113-18.695-17.539ZM494.566 645.43l19.477 7.82-20.57 2.574Zm0 0"/><path fill="#fff" d="m494.527 639.988 13.196-2.648-13.157 8.09ZM498.266 624.617l-3.739 15.371-21.836-10.453Zm0 0"/><path fill="#fff" d="m507.723 637.34-13.196 2.648 3.739-15.37ZM410.348 335.879l-4.43-22.524 30.703 18.391ZM369.93 189.23l28.918-11.664 2.703 18.235Zm0 0"/><path fill="#fff" d="m401.55 195.8 30.977 12.177-8.699 22.652Zm0 0"/><path fill="#fff" d="m448.473 216.508-24.645 14.12 8.7-22.651ZM275.855 291.809l1.934-9.997 10.754 14.446ZM326.648 239.172l-13.691-22.996 27.395-17.008ZM292 197.555l20.957 18.62-27.016 4.259ZM374.777 605.719l23.797-19.278 3.613 9.418ZM398.574 586.441l-15.812-11.691 18.828-11.332ZM284.48 244.219l-8.886 16.386-10.75-23.597ZM315.094 243.063l-39.5 17.542 8.886-16.386ZM412.152 622.66l-21.554 19.715 7.367-25.04ZM412.152 622.66l11.332-8.726 11.645 27.34ZM467.012 240.836l5.437 17.23-21.844-16.023ZM288.383 318.676l41.84-30.403-19.133 48.422ZM364.855 320.637l-11.34 8.68-23.292-41.044ZM505.3 285.445l-33.32-17.507 20.098-7.704Zm0 0"/><path fill="#ac6b26" d="m558.488 529.05-10.261 28.829-29.95-21.969ZM558.488 529.05l26.07 23.075-36.331 5.754ZM567.29 587.828l17.269-35.703 6.468 27.383ZM584.559 552.125l16.414-16.105-2.184 40.785Zm0 0"/><path fill="#ac6b26" d="m584.559 552.125-17.27 35.703-19.062-29.95ZM548.227 557.879l-28.914 12.266-1.036-34.235ZM491.21 545.203l28.103 24.942-27.727 28.203ZM491.21 545.203l.376 53.145-27.426-22.16Zm0 0"/><path fill="#ac6b26" d="m491.586 598.348-41.418 14.59 21.86-14.981ZM491.586 598.348l21.941 19.793-15.261 6.476ZM507.723 637.34l-9.457-12.723 15.261-6.476Zm0 0"/><path fill="#ac6b26" d="m507.723 637.34 5.804-19.2 9.239 17.028Zm0 0"/><path fill="#ac6b26" d="m513.527 618.14 17.356 13.16-8.117 3.868Zm0 0"/><path fill="#ac6b26" d="m519.313 570.145-5.786 47.996-21.941-19.793ZM519.313 570.145l-28.102-24.942 27.066-9.293ZM572.45 767.191l89.26-182.093 105.54 182.148ZM767.309 400.125l-.055 170.813-105.543 14.16Zm0 0"/><path fill="#ac6b26" d="m767.254 570.938-.004 196.308-105.54-182.148ZM298.293 452.117l-40.555-75.148 58.5 11.3ZM767.227.074l.023 203.043-116.836-72.008ZM462.043 413.828l32.582 73.192-68.059-37.227ZM374.246 440.766l-16.64 76.109-16.454-91.684Zm0 0"/><path fill="#563226" d="m494.293 208.137 3.875-16.543 11.02 4.64ZM494.293 208.137l16.277 15.258-24.797 7.875Zm0 0"/><path fill="#563226" d="m510.57 223.395-16.277-15.258 14.894-11.903ZM498.168 191.594l8.273-31.23 2.747 35.87ZM489.508 150.863l1.629-27.488 15.304 36.988ZM479.246 107.336l11.89 16.039-30.667-16.082Zm0 0"/><path fill="#563226" d="m460.469 107.293-13.442 25.492-5.336-9.012ZM492.309 91.05l-31.84 16.243 13.105-29.582Zm0 0"/><path fill="#563226" d="m479.246 107.336-18.777-.043 31.84-16.242ZM513.41 56.117 492.31 91.051l-1.32-30.848ZM483.496 34.844l22.379-6.985-14.887 32.344Zm0 0"/><path fill="#563226" d="m513.41 56.117-22.422 4.086 14.887-32.344ZM490.988 60.203l1.32 30.848-18.734-13.34Zm0 0"/><path fill="#563226" d="m465.082 50.668 18.414-15.824 7.492 25.36ZM520 476.68l21.395.757-8.47 20.622ZM525.2 436.11l16.195 41.327L520 476.68ZM525.2 436.11l21.01-55.18 7.087 63.054ZM539.262 336.176l23.36.488-16.411 44.266ZM539.262 336.176l-7.664-50.313 17.43-.32Zm0 0"/><path fill="#563226" d="m531.598 285.863-16.11-38.316 33.54 37.996Zm0 0"/><path fill="#563226" d="m549.027 285.543 13.594 51.121-23.36-.488ZM562.621 336.664l-.16 41.617-16.25 2.649Zm0 0"/><path fill="#563226" d="m546.21 380.93 16.25-2.649-9.163 65.703ZM525.2 436.11l28.097 7.874-11.902 33.454ZM478.969 378.848l38.543-2.25 7.687 59.511ZM478.969 378.848l-16.926 34.98-29.898-40.543ZM399.637 402.95l-27.203-27.368 59.71-2.297ZM369.406 346.805l62.89 25.316-59.862 3.461ZM369.406 346.805l40.942-10.926 21.949 36.242ZM530.883 631.3l43.195 3.196-39.855 8.34ZM533.57 604.336l33.72-16.508 6.788 46.668Zm0 0"/><path fill="#563226" d="m574.078 634.496-6.789-46.668 23.738-8.32ZM598.79 576.805l-24.712 57.691 16.95-54.988ZM565.293 655.027l8.785-20.53 17.684 9.21ZM531.27 662.234l1.804-4.422 32.219-2.785Zm0 0"/><path fill="#563226" d="m565.293 655.027 26.469-11.32-19.805 8.469ZM565.293 655.027l-32.219 2.785 1.149-14.976ZM530.883 631.3l3.34 11.536-11.457-7.668ZM514.043 653.25l-6.32-15.91 15.043-2.172Zm0 0"/><path fill="#563226" d="m507.723 637.34 6.32 15.91-19.477-7.82ZM466.098 639.871l28.43.117.038 5.442ZM494.566 645.43l-1.093 10.394-20.391-3.398Zm0 0"/><path fill="#563226" d="m466.098 639.871 28.468 5.559-21.484 6.996ZM462.3 656.387l3.798-16.516 6.984 12.555ZM449.23 684.43l13.07-28.043 18.497 17.949ZM486.629 670.52l-5.832 3.816 2.297-7.055ZM479.273 684.094l-30.043.336 31.567-10.094ZM443.219 713.023l-.114-29.265 6.125.672ZM443.219 713.023l-6.406-14.265 6.292-15ZM443.219 713.023l6.011-28.593 8.332 25.398Zm0 0"/><path fill="#563226" d="m443.105 683.758 19.196-27.371-13.07 28.043ZM462.3 656.387l-53.023 12.773 31.278-27.246Zm0 0"/><path fill="#563226" d="m385.082 642.621 5.516-.246 18.68 26.785Zm0 0"/><path fill="#563226" d="m409.277 669.16 25.852-27.887 5.426.641ZM429.625 521.04l65-34.02-16.34 40.41Zm0 0"/><path fill="#563226" d="m357.605 516.875 137.02-29.855-65 34.02Zm0 0"/><path fill="#563226" d="m374.246 440.766 52.32 9.027-68.96 67.082Zm0 0"/><path fill="#563226" d="m426.566 449.793 68.059 37.227-137.02 29.855ZM298.293 452.117l42.86-26.926 16.452 91.684ZM213.898 340.61l3.59-38.56 8.79 38.637Zm0 0"/><path fill="#563226" d="m213.898 340.61-9.515-29.262 13.105-9.297ZM217.488 302.05l8.266-1.855.523 40.493ZM226.277 340.688l28.746-11.38 2.715 47.66Zm0 0"/><path fill="#563226" d="m288.383 318.676-33.36 10.633 33.52-33.051ZM288.383 318.676l3.687 35.402-34.332 22.89ZM292.07 354.078l24.168 34.192-58.5-11.301Zm0 0"/><path fill="#563226" d="m255.023 329.309 33.36-10.633-30.645 58.293ZM255.023 329.309l20.832-37.5 12.688 4.449ZM516.84 339.992l-23.93-.805-4.23-11.523Zm0 0"/><path fill="#563226" d="m516.84 339.992-28.16-12.328 26.941-18.004ZM482.41 307.695l22.89-22.25 10.321 24.215ZM507.098 251.05l-1.797 34.395-13.223-25.21ZM471.98 267.938l33.32 17.507-34.87-.043ZM451.715 308.234l-19.235-15.808 37.95-7.024ZM451.715 308.234l6.144 18.84-15.418-11.21ZM436.621 331.746l21.238-4.672 17.594 31.149Zm0 0"/><path fill="#563226" d="m405.918 313.355 36.523 2.508-5.82 15.883Zm0 0"/><path fill="#563226" d="m442.441 315.863-36.523-2.508 35.121-1.039Zm0 0"/><path fill="#563226" d="m432.48 292.426-26.562 20.93-10.777-22.372ZM360.54 279.402l4.315 41.235-34.632-32.364ZM376.016 711.992l26.68-14.34-17.29 20.813ZM376.016 711.992l7.953-23.152 18.726 8.812Zm0 0"/><path fill="#563226" d="m411.938 720.93-9.243-23.278 23.176-.453ZM417.984 102.773l-18.28 13.415 1.476-11.708Zm0 0"/><path fill="#383838" d="m465.082 50.668 25.906 9.535-17.414 17.508Zm0 0"/><path fill="#383838" d="m473.574 77.71-35.047-.241 26.555-26.801ZM438.527 77.469l-20.543 25.304L404.63 89Zm0 0"/><path fill="#383838" d="m401.629 71.04 36.898 6.429L404.63 89ZM365.344 98.973 350.043 75.78l51.586-4.742ZM365.344 98.973l5.96 14.582-39.714 1.25ZM365.344 98.973l-38.262-6.309 22.961-16.883Zm0 0"/><path fill="#383838" d="m350.043 75.781-22.961 16.883-1.672-11.687Zm0 0"/><path fill="#383838" d="m310.172 103.574-21.27-17.812 38.18 6.902Zm0 0"/><path fill="#383838" d="m327.082 92.664 4.508 22.14-21.418-11.23ZM376.273 139.293l-44.683-24.488 44.062 18.953Zm0 0"/><path fill="#383838" d="m331.59 114.805 39.715-1.25 4.347 20.203ZM371.305 113.555l28.398 2.632-24.05 17.57Zm0 0"/><path fill="#383838" d="m399.703 116.188-28.398-2.633 29.875-9.075ZM401.18 104.48l-35.836-5.507L404.629 89Zm0 0"/><path fill="#383838" d="m417.984 102.773-16.804 1.707L404.629 89ZM365.344 98.973l35.836 5.507-29.875 9.075ZM365.344 98.973l36.285-27.934 3 17.961ZM365.344 98.973l-33.754 15.832-4.508-22.14ZM327.082 92.664l-38.18-6.902 36.508-4.785Zm0 0"/><path fill="#383838" d="m245.316 82.406 7.067-19.691 36.52 23.047ZM245.316 82.406l11.754 30.09-23.91-24.965ZM245.316 82.406l-15.703-22.492 22.77 2.8Zm0 0"/><path fill="#383838" d="m229.613 59.914 3.52-13.621 19.25 16.422ZM229.613 59.914l-10.11 3.863-5.737-21.629Zm0 0"/><path fill="#383838" d="m219.504 63.777-25.48 3.703 19.742-25.332ZM224.98 96.563 194.023 67.48l39.137 20.051ZM194.023 67.48l4.196-43.152 15.547 17.82ZM233.133 46.293l-3.52 13.621-15.847-17.766Zm0 0"/><path fill="#383838" d="m219.504 63.777 10.11-3.863 3.546 27.617Zm0 0"/><path fill="#383838" d="m233.16 87.531-3.547-27.617 15.703 22.492ZM194.023 67.48l25.48-3.703 13.657 23.754ZM253.676 115.613l-28.696-19.05 8.18-9.032Zm0 0"/><path fill="#383838" d="m257.07 112.496-3.394 3.117-20.516-28.082ZM287.906 143.762l-51.433.937 17.203-29.086ZM287.906 143.762l-10.613-37.313 23.852 13.961ZM257.07 112.496l-11.754-30.09 31.977 24.043ZM287.906 143.762l-30.836-31.266 20.223-6.047Zm0 0"/><path fill="#383838" d="m257.07 112.496 30.836 31.266-34.23-28.149ZM309.582 130.953l-21.676 12.809 13.239-23.352ZM326.922 156.406l-17.34-25.453 22.14 18.434ZM356.297 218.719l-15.945-19.551-13.43-42.762ZM312.957 216.176l-21.465-42.594 48.86 25.586Zm0 0"/><path fill="#383838" d="m356.297 218.719-29.649 20.453 13.704-40.004ZM356.297 218.719l14.512-2.211.933 27.347ZM380.066 265.664l-28.73-10.05 20.406-11.759ZM380.066 265.664l8.09-19.523 15.469 14.793ZM406.023 240.297l-17.867 5.844 2.496-31.184Zm0 0"/><path fill="#383838" d="m403.625 260.934-15.469-14.793 17.867-5.844ZM423.828 230.629l-17.805 9.668-15.37-25.34ZM450.035 217.777l-26.207 12.852 24.645-14.121ZM423.828 230.629l6.922 10.039-24.727-.371Zm0 0"/><path fill="#383838" d="m430.75 240.668-6.922-10.04 26.207-12.85ZM450.605 242.043l-19.855-1.375 19.285-22.89ZM450.605 242.043l-.57-24.266 13.485 8.461Zm0 0"/><path fill="#383838" d="m430.75 240.668 19.855 1.375-34.496 30.95ZM450.605 242.043l21.375 25.894-29.437 4.75Zm0 0"/><path fill="#383838" d="m416.11 272.992 34.495-30.949-8.062 30.644ZM467.012 240.836l-16.407 1.207 12.915-15.805Zm0 0"/><path fill="#383838" d="m472.45 258.066-.47 9.872-21.375-25.895ZM471.98 267.938l-1.55 17.464-27.887-12.714ZM416.11 272.992l26.433-.305-10.063 19.739ZM430.75 240.668l-14.64 32.324-12.485-12.058Zm0 0"/><path fill="#383838" d="m406.023 240.297 24.727.371-27.125 20.266ZM395.14 290.984l-15.074-25.32 23.559-4.73Zm0 0"/><path fill="#383838" d="m395.14 290.984 8.485-30.05 12.484 12.058Zm0 0"/><path fill="#383838" d="m360.54 279.402 19.526-13.738 15.075 25.32ZM360.54 279.402l-29.169-12.097 19.965-11.692Zm0 0"/><path fill="#383838" d="m380.066 265.664-19.527 13.738-9.203-23.789ZM371.742 243.855l-20.406 11.758 4.96-36.894ZM331.371 267.305l-4.723-28.133 24.688 16.441Zm0 0"/><path fill="#383838" d="m351.336 255.613-24.688-16.441 29.649-20.453ZM369.93 189.23l-13.633 29.489-29.375-62.313Zm0 0"/><path fill="#383838" d="m369.93 189.23-43.008-32.824 45.52 19.047Zm0 0"/><path fill="#383838" d="m372.441 175.453-40.718-26.066 33.336 13.004ZM401.102 159.105l-2.254 18.461-26.407-2.113ZM401.55 195.8l-2.702-18.234 18.32-3.078ZM372.441 175.453l26.407 2.113-28.918 11.664Zm0 0"/><path fill="#383838" d="m398.848 177.566 2.254-18.46 16.066 15.382ZM401.102 159.105l27.761-13.343-11.695 28.726ZM428.863 145.762l.84-21.645 11.988-.344Zm0 0"/><path fill="#383838" d="m428.863 145.762-8.945-7.664 9.785-13.98ZM428.863 145.762l-27.761 13.343 18.816-21.007ZM439.875 157.555l-22.707 16.933 11.695-28.726ZM417.168 174.488l15.36 33.489L401.55 195.8Zm0 0"/><path fill="#383838" d="m459.008 191.617-26.48 16.36 7.347-50.422Zm0 0"/><path fill="#383838" d="m432.527 207.977-15.359-33.489 22.707-16.933ZM459.008 191.617l-19.133-34.062 7.152-24.77ZM447.027 132.785l-18.164 12.977 12.828-21.989ZM441.691 123.773l-4.78-10.476 15.109-13.188ZM429.703 124.117l7.207-10.82 4.781 10.476Zm0 0"/><path fill="#383838" d="m460.469 107.293-18.778 16.48 10.329-23.664Zm0 0"/><path fill="#383838" d="m447.027 132.785 13.442-25.492 8.183 44.559Zm0 0"/><path fill="#383838" d="m460.469 107.293 30.668 16.082-22.485 28.477ZM468.652 151.852l22.485-28.477-1.63 27.488ZM506.441 160.363l-30.156 14.223 13.223-23.723ZM476.285 174.586l30.156-14.223-8.273 31.23Zm0 0"/><path fill="#383838" d="m476.285 174.586-7.633-22.734 20.856-.989ZM470.645 202.168l5.64-27.582 21.883 17.008ZM470.645 202.168l23.648 5.969-8.52 23.133Zm0 0"/><path fill="#383838" d="m492.078 260.234-8.703-27.554 2.398-1.41ZM467.012 240.836l-3.492-14.598 19.855 6.442ZM450.035 217.777l20.61-15.609-7.125 24.07Zm0 0"/><path fill="#383838" d="m470.645 202.168 12.73 30.512-19.855-6.442ZM498.168 191.594l-3.875 16.543-23.648-5.969Zm0 0"/><path fill="#383838" d="m485.773 231.27-2.398 1.41-12.73-30.512ZM483.375 232.68l8.703 27.554-19.629-2.168Zm0 0"/><path fill="#383838" d="m492.078 260.234-20.098 7.704.47-9.872ZM507.098 251.05l-15.02 9.184-6.305-28.964ZM531.598 285.863l-26.297-.418 1.797-34.394ZM515.488 247.547l-8.39 3.504 3.472-27.656Zm0 0"/><path fill="#383838" d="m507.098 251.05-21.325-19.78 24.797-7.875ZM515.488 247.547l16.11 38.316-24.5-34.812ZM515.621 309.66l-10.32-24.215 26.297.418Zm0 0"/><path fill="#383838" d="m515.621 309.66 15.977-23.797 7.664 50.313ZM539.262 336.176l-21.75 40.422-.672-36.606Zm0 0"/><path fill="#383838" d="m515.621 309.66 23.64 26.516-22.421 3.816ZM517.512 376.598l21.75-40.422 6.949 44.754Zm0 0"/><path fill="#383838" d="m525.2 436.11-7.688-59.512 28.699 4.332ZM520 476.68l-57.957-62.852 63.156 22.281ZM520.148 507.105 520 476.68l12.926 21.379Zm0 0"/><path fill="#383838" d="M462.043 413.828 520 476.68l-25.375 10.34ZM520.148 507.105 504.508 510l-9.883-22.98Zm0 0"/><path fill="#383838" d="M494.625 487.02 520 476.68l.148 30.425ZM504.508 510l-26.223 17.43 16.34-40.41ZM504.508 510l15.64-2.895-1.87 28.805ZM490.094 525.871l-11.809 1.559L504.508 510ZM478.285 527.43l11.809-1.559 1.117 19.332ZM429.625 521.04l48.66 6.39-16.137 17.953ZM464.16 576.188l14.125-48.758 12.926 17.773Zm0 0"/><path fill="#383838" d="m491.586 598.348-19.559-.391-7.867-21.77ZM491.586 598.348l6.68 26.27-25.575 4.917Zm0 0"/><path fill="#383838" d="m450.168 612.938 41.418-14.59-18.895 31.187ZM450.168 612.938l-26.684.996 11.371-18.614ZM464.16 576.188l7.867 21.769-21.859 14.98Zm0 0"/><path fill="#383838" d="m462.148 545.383 16.137-17.953-14.125 48.758Zm0 0"/><path fill="#383838" d="m464.16 576.188-29.305 19.132 13.813-23.742ZM434.855 595.32l-36.28-8.879 3.015-23.023ZM398.574 586.441l-23.797 19.278-3.816-24.637Zm0 0"/><path fill="#383838" d="m339.637 619.09 11.422-29.106 23.718 15.735ZM360.344 576.402l-9.285 13.582-13.332-43.777Zm0 0"/><path fill="#383838" d="m351.059 589.984-11.422 29.106-5.285-3.102ZM316.043 612.23l16.777.325 1.532 3.433Zm0 0"/><path fill="#383838" d="m332.82 612.555 18.239-22.57-16.707 26.003ZM351.059 589.984l-18.239 22.57-16.777-.324ZM351.059 589.984l-35.016 22.246.195-51.476Zm0 0"/><path fill="#383838" d="m293.328 649.832 22.715-37.602 18.309 3.758ZM285.414 688.281l7.914-38.449 2.836 35.176Zm0 0"/><path fill="#383838" d="m275.055 620.887 18.273 28.945-36.219-6.953Zm0 0"/><path fill="#383838" d="m254.457 626.59 20.598-5.703-17.946 21.992ZM281.371 604.453l34.672 7.777-40.988 8.657ZM275.055 620.887l-20.598 5.703 6.832-39.945Zm0 0"/><path fill="#383838" d="m281.371 604.453-20.082-17.808 14.723-26.723Zm0 0"/><path fill="#383838" d="m261.29 586.645-20.864-34.25 35.586 7.527ZM203.074 510.063l36.762-30.102.59 72.434ZM239.836 479.96l17.902-102.991 40.555 75.148Zm0 0"/><path fill="#383838" d="m240.426 552.395-.59-72.434 41.285 23.672ZM222.922 558.21l17.504-5.815-3.617 60.968ZM240.426 552.395l20.863 34.25-24.48 26.718Zm0 0"/><path fill="#383838" d="m222.922 558.21-19.848-48.148 37.352 42.333Zm0 0"/><path fill="#383838" d="m276.012 559.922-35.586-7.527 40.695-48.762ZM276.012 559.922l5.11-56.29 2.636 56.118Zm0 0"/><path fill="#383838" d="m283.758 559.75-2.387 44.703-5.36-44.531ZM281.371 604.453l-6.316 16.434-13.766-34.242ZM316.043 612.23l-34.672-7.777 16.195-36.898ZM316.043 612.23l-22.715 37.602-18.273-28.945Zm0 0"/><path fill="#383838" d="m293.328 649.832 46.309-30.742-40.711 34.36ZM293.328 649.832l-7.914 38.45-16.531-12.485Zm0 0"/><path fill="#383838" d="m268.883 675.797 16.531 12.484-16.934 19.914ZM268.48 708.195l16.934-19.914 8.738 41.883ZM268.48 708.195l25.672 21.97-5.375 19.565Zm0 0"/><path fill="#383838" d="m285.414 688.281 17.578 27.043-8.84 14.84ZM302.992 715.324l-.172 21.211-8.668-6.37ZM311.93 705.352l-8.938 9.972-6.828-30.316Zm0 0"/><path fill="#383838" d="m302.992 715.324-17.578-27.043 10.75-3.273Zm0 0"/><path fill="#383838" d="m296.164 685.008 15.848-13.004-2.438 13.11Zm0 0"/><path fill="#383838" d="m309.574 685.113 2.356 20.239-15.766-20.344ZM298.926 653.45l-2.762 31.558-2.836-35.176ZM293.328 649.832l-25.223 16.121-10.996-23.074ZM293.328 649.832l-24.445 25.965-.778-9.844ZM339.637 619.09l-46.309 30.742 41.024-33.844Zm0 0"/><path fill="#383838" d="m298.926 653.45 40.71-34.36-10.23 24.137Zm0 0"/><path fill="#383838" d="m296.164 685.008 2.762-31.559 13.086 18.555Zm0 0"/><path fill="#383838" d="m329.406 643.227-17.394 28.777-13.086-18.555ZM339.637 619.09l23.398 25.496-33.629-1.36ZM339.637 619.09l35.14-13.371 1.036 5.793ZM397.965 617.336l-22.152-5.824 26.375-15.653Zm0 0"/><path fill="#383838" d="m397.965 617.336-12.883 25.285-9.27-31.11ZM369.777 664.984l15.305-22.363 24.195 26.54ZM409.277 669.16l53.024-12.773-19.196 27.37ZM409.277 669.16l-18.68-26.785 21.555-19.715Zm0 0"/><path fill="#383838" d="m390.598 642.375-5.516.246 12.883-25.285ZM363.035 644.586l22.047-1.965-15.305 22.363ZM363.035 644.586l6.742 20.398-3.172 2.133ZM385.082 642.621l-22.047 1.965 12.777-33.074Zm0 0"/><path fill="#383838" d="m335.918 665.5 27.117-20.914 3.57 22.531ZM335.918 665.5l30.687 1.617-26.464 9.711ZM366.605 667.117l17.364 21.723-31.43 13.246ZM409.277 669.16l16.594 28.04-41.902-8.36ZM411.938 720.93l13.933-23.73-1.703 25.316Zm0 0"/><path fill="#383838" d="m425.871 697.2-16.594-28.04 33.828 14.598ZM409.277 669.16l-25.308 19.68-14.192-23.856ZM409.277 669.16l2.875-46.5 22.977 18.613ZM423.484 613.934l-11.332 8.726-14.187-5.324ZM402.188 595.86l21.296 18.074-25.52 3.402ZM423.484 613.934l26.684-.996 15.93 26.933ZM466.098 639.871l-3.797 16.516-21.746-14.473ZM423.484 613.934l42.614 25.937-25.543 2.043ZM423.484 613.934l-21.296-18.075 32.667-.539Zm0 0"/><path fill="#383838" d="m434.855 595.32-4.16-24.476 17.973.734ZM412.465 543.086l18.23 27.758-29.105-7.426ZM357.605 516.875l54.86 26.21-29.969 13.29Zm0 0"/><path fill="#383838" d="m382.496 556.375 29.969-13.29-10.875 20.333ZM370.96 581.082l11.536-24.707.266 18.375Zm0 0"/><path fill="#383838" d="m382.762 574.75-.266-18.375 19.094 7.043ZM382.762 574.75l15.812 11.691-27.613-5.359ZM370.96 581.082l-19.901 8.902 9.285-13.582ZM370.96 581.082l-13.355-64.207 24.891 39.5Zm0 0"/><path fill="#383838" d="m357.605 516.875 13.356 64.207-10.617-4.68ZM281.121 503.633l76.484 13.242-53.21 8.27Zm0 0"/><path fill="#383838" d="m357.605 516.875 2.739 59.527-22.617-30.195Zm0 0"/><path fill="#383838" d="m412.465 543.086-54.86-26.211 72.02 4.164ZM298.293 452.117l59.312 64.758-76.484-13.242ZM337.727 546.207l-33.332-21.062 53.21-8.27ZM281.121 503.633l23.274 21.512-20.637 34.605ZM239.836 479.96l58.457-27.843-17.172 51.516ZM204.844 439.848l34.992 40.113-47.438-19.711Zm0 0"/><path fill="#383838" d="m239.836 479.96-36.762 30.103-10.676-49.813ZM185.191 435.977l19.653 3.87-12.446 20.403Zm0 0"/><path fill="#383838" d="m206.215 410.855-21.024 25.122-2.12-24.586ZM204.844 439.848l-19.653-3.871 21.024-25.122ZM225.293 376.195l14.543 103.766-33.621-69.106Zm0 0"/><path fill="#383838" d="m239.836 479.96-34.992-40.112 1.37-28.993Zm0 0"/><path fill="#383838" d="m186.512 369.742 19.703 41.113-23.145.536ZM186.512 369.742l27.386-29.133 11.395 35.586Zm0 0"/><path fill="#383838" d="m213.898 340.61 12.38.077-.985 35.508Zm0 0"/><path fill="#383838" d="m206.215 410.855-19.703-41.113 38.781 6.453ZM213.898 340.61l-27.386 29.132-.676-50.383ZM204.383 311.348l9.515 29.261-28.062-21.25Zm0 0"/><path fill="#383838" d="m185.836 319.36 10.074-21.723 8.473 13.71Zm0 0"/><path fill="#383838" d="m195.91 297.637 21.578 4.414-13.105 9.297Zm0 0"/><path fill="#383838" d="m195.91 297.637 22.278-24.63-.7 29.044ZM218.188 273.008l7.566 27.187-8.266 1.856ZM218.188 273.008l8.746-19.899 12.957 3.57Zm0 0"/><path fill="#383838" d="M252.383 227.637 239.89 256.68l-8.871-11.14Zm0 0"/><path fill="#383838" d="m239.89 256.68-12.956-3.57 4.086-7.57ZM239.89 256.68l5.465 15.047-27.167 1.28ZM275.855 291.809l-30.5-20.082 32.434 10.086ZM275.855 291.809l-20.832 37.5L248.25 312Zm0 0"/><path fill="#383838" d="m245.793 289.672 30.062 2.137L248.25 312Zm0 0"/><path fill="#383838" d="m275.855 291.809-30.062-2.137-.438-17.945ZM245.355 271.727l8.477-12 23.957 22.086Zm0 0"/><path fill="#383838" d="m239.89 256.68 13.942 3.047-8.477 12ZM252.383 227.637l1.449 32.09-13.941-3.047Zm0 0"/><path fill="#383838" d="m275.594 260.605-21.762-.878 11.012-22.72Zm0 0"/><path fill="#383838" d="m253.832 259.727 21.762.878 2.195 21.207ZM253.832 259.727l-1.45-32.09 12.462 9.37ZM255.055 186.195l-2.672 41.442-21.059-17.805ZM255.055 186.195l13.855-.066-16.527 41.508ZM231.324 209.832l-2.14-36.707 25.87 13.07Zm0 0"/><path fill="#383838" d="m255.055 186.195-25.871-13.07 38.867-3.637Zm0 0"/><path fill="#383838" d="m236.473 144.7 31.578 24.788-38.867 3.637Zm0 0"/><path fill="#383838" d="M268.05 169.488 236.474 144.7l51.433-.937ZM309.582 130.953l17.34 25.453-39.016-12.644Zm0 0"/><path fill="#383838" d="m326.922 156.406-35.43 17.176-3.586-29.82Zm0 0"/><path fill="#383838" d="m372.441 175.453-45.52-19.047 4.802-7.02Zm0 0"/><path fill="#383838" d="m291.492 173.582 35.43-17.176 13.43 42.762ZM268.91 186.129l22.582-12.547.508 23.973ZM255.055 186.195l12.996-16.707.86 16.64ZM268.91 186.129l-1.117 37-15.41 4.508ZM231.324 209.832l21.059 17.805-21.363 17.902Zm0 0"/><path fill="#383838" d="m267.793 223.129-2.95 13.879-12.46-9.371ZM268.91 186.129l17.031 34.305-18.148 2.695ZM282.02 230.422l-14.227-7.293 18.148-2.695Zm0 0"/><path fill="#383838" d="m282.02 230.422-17.176 6.586 2.949-13.88Zm0 0"/><path fill="#383838" d="m282.02 230.422 2.46 13.797-19.636-7.211ZM282.02 230.422l33.074 12.64-30.614 1.157Zm0 0"/><path fill="#383838" d="m315.094 243.063-33.074-12.641 3.921-9.988ZM312.957 216.176l2.137 26.887-29.153-22.63ZM291.492 173.582l21.465 42.594L292 197.555ZM312.957 216.176l13.691 22.996-11.554 3.89ZM331.371 267.305l-16.277-24.243 11.554-3.89ZM360.54 279.402l-30.317 8.871 1.148-20.968Zm0 0"/><path fill="#383838" d="m300.266 275.805 31.105-8.5-1.148 20.968ZM277.79 281.813l22.476-6.008-11.723 20.453ZM275.594 260.605l39.5-17.543-14.828 32.743Zm0 0"/><path fill="#383838" d="m300.266 275.805-22.477 6.007-2.195-21.207Zm0 0"/><path fill="#383838" d="m315.094 243.063 16.277 24.242-31.105 8.5ZM330.223 288.273l-41.68 7.985 11.723-20.453ZM330.223 288.273l23.293 41.043-7.18 20.809Zm0 0"/><path fill="#383838" d="m346.336 350.125-30.098 38.145-5.148-51.575ZM288.383 318.676l22.707 18.02-19.02 17.382ZM432.516 415.82l-5.95 33.973-26.93-46.844ZM426.566 449.793l-52.32-9.027 25.39-37.817ZM548.227 557.879l19.062 29.95-33.719 16.507ZM513.527 618.14l5.785-47.995 14.258 34.19ZM530.883 631.3l-17.356-13.16 20.043-13.804Zm0 0"/><path fill="#383838" d="m574.078 634.496-43.195-3.195 2.687-26.965Zm0 0"/><path fill="#383838" d="m519.313 570.145 28.914-12.266-14.657 46.457ZM457.86 327.074l30.82.59-13.227 30.559Zm0 0"/><path fill="gold" d="m388.156 246.14-8.09 19.524-8.324-21.809Zm0 0"/><path fill="gold" d="m370.809 216.508 17.347 29.633-16.414-2.286ZM401.55 195.8l-10.898 19.157-19.843 1.55Zm0 0"/><path fill="gold" d="m401.55 195.8-30.741 20.708-.88-27.278Zm0 0"/><path fill="gold" d="m369.93 189.23.879 27.278-14.512 2.21ZM390.652 214.957l-2.496 31.184-17.347-29.633ZM401.55 195.8l22.278 34.829-33.176-15.672ZM442.441 315.863l-1.402-3.547 10.676-4.082ZM436.621 331.746l5.82-15.883 15.418 11.211ZM436.621 331.746l-4.324 40.375-21.95-36.242ZM432.297 372.121l4.324-40.375 38.832 26.477ZM432.297 372.121l46.672 6.727-46.824-5.563Zm0 0"/><path fill="gold" d="m475.453 358.223 3.516 20.625-46.672-6.727ZM372.434 375.582l59.863-3.46-.152 1.163ZM372.434 375.582l-31.282 49.61-24.914-36.922Zm0 0"/><path fill="gold" d="m374.246 440.766-33.094-15.575 31.282-49.609ZM316.238 388.27l53.168-41.465 3.028 28.777ZM374.246 440.766l-1.812-65.184 27.203 27.367Zm0 0"/><path fill="gold" d="m432.516 415.82-32.88-12.87 32.509-29.665Zm0 0"/><path fill="gold" d="m462.043 413.828-29.527 1.992-.371-42.535Zm0 0"/><path fill="gold" d="m432.516 415.82 29.527-1.992-35.477 35.965ZM525.2 436.11l-63.157-22.282 16.926-34.98ZM516.84 339.992l-37.871 38.856-3.516-20.625Zm0 0"/><path fill="gold" d="m478.969 378.848 37.87-38.856.673 36.606Zm0 0"/><path fill="gold" d="m492.91 339.188 23.93.804-41.387 18.23Zm0 0"/><path fill="gold" d="m488.68 327.664 4.23 11.524-17.457 19.035ZM482.41 307.695l33.211 1.965-26.941 18.004ZM505.3 285.445l-22.89 22.25-11.98-22.293ZM457.86 327.074l-6.145-18.84 30.695-.539Zm0 0"/><path fill="gold" d="m488.68 327.664-30.82-.59 24.55-19.379ZM482.41 307.695l-30.695.54 18.715-22.833ZM442.543 272.688l27.887 12.714-37.95 7.024ZM432.48 292.426l19.235 15.808-10.676 4.082Zm0 0"/><path fill="gold" d="m441.04 312.316-35.122 1.04 26.562-20.93Zm0 0"/><path fill="gold" d="m416.11 272.992 16.37 19.434-37.34-1.442Zm0 0"/><path fill="gold" d="m364.855 320.637-4.316-41.235 34.602 11.582Zm0 0"/><path fill="gold" d="m395.14 290.984 10.778 22.371-41.063 7.282ZM405.918 313.355l-36.512 33.45-4.55-26.168ZM369.406 346.805l36.512-33.45 4.43 22.524ZM369.406 346.805l-23.07 3.32 7.18-20.809Zm0 0"/><path fill="gold" d="m364.855 320.637 4.551 26.168-15.89-17.489ZM369.406 346.805l-53.168 41.465 30.098-38.145ZM341.152 425.191l-42.859 26.926 17.945-63.847ZM316.238 388.27l-24.168-34.192 19.02-17.383ZM311.09 336.695l19.133-48.422 16.113 61.852ZM288.543 296.258l41.68-7.985-41.84 30.403ZM281.371 604.453l2.387-44.703 13.808 7.805Zm0 0"/><path fill="gold" d="m309.043 557.547-11.477 10.008-13.808-7.805ZM309.043 557.547l28.684-11.34-21.489 14.547ZM304.395 525.145l4.648 32.402-25.285 2.203ZM316.043 612.23l-7-54.683 7.195 3.207Zm0 0"/><path fill="gold" d="m316.043 612.23-18.477-44.675 11.477-10.008ZM309.043 557.547l-4.648-32.402 33.332 21.062ZM337.727 546.207l13.332 43.777-34.82-29.23ZM351.059 589.984l19.902-8.902 3.816 24.637ZM375.813 611.512l-1.036-5.793 27.41-9.86ZM363.035 644.586l-23.398-25.496 36.176-7.578ZM494.527 639.988l-28.43-.117 6.594-10.336Zm0 0"/><path fill="gold" d="m466.098 639.871-15.93-26.933 22.523 16.597ZM434.855 595.32l29.305-19.133-13.992 36.75ZM402.188 595.86l-3.614-9.419 36.281 8.88ZM430.695 570.844l4.16 24.476-33.265-31.902ZM448.668 571.578l-17.973-.734 7.528-21.117Zm0 0"/><path fill="gold" d="m438.223 549.727 23.925-4.344-13.48 26.195ZM412.465 543.086l17.16-22.047 8.598 28.688Zm0 0"/><path fill="gold" d="m430.695 570.844-18.23-27.758 25.758 6.64Zm0 0"/><path fill="gold" d="m429.625 521.04 32.523 24.343-23.925 4.344ZM448.668 571.578l13.48-26.195 2.012 30.804ZM225.293 376.195l32.445.774-17.902 102.992ZM225.293 376.195l.984-35.507 31.461 36.28ZM226.277 340.688 248.25 312l6.773 17.309Zm0 0"/><path fill="gold" d="m248.25 312-21.973 28.688-.523-40.493ZM366.605 667.117l3.172-2.133 14.192 23.856ZM491.21 545.203l-1.116-19.332 28.183 10.04ZM520.148 507.105l12.29 6.79-14.16 22.015ZM556.656 503.195l1.832 25.856-40.21 6.86ZM558.488 529.05l42.485 6.97-16.414 16.105ZM584.559 552.125l14.23 24.68-7.762 2.703ZM591.762 643.707l7.027-66.902 19.969-6.09Zm0 0"/><path fill="gold" d="m591.762 643.707-17.684-9.21 24.711-57.692ZM291.492 173.582l-23.441-4.094 19.855-25.726Zm0 0"/><path fill="gold" d="m268.91 186.129-.86-16.64 23.442 4.093ZM285.941 220.434l-17.03-34.305L292 197.555ZM439.875 157.555l-11.012-11.793 18.164-12.977ZM455.328 162.625l-8.3-29.84 21.624 19.067ZM476.285 174.586l-20.957-11.961 13.324-10.773Zm0 0"/><path fill="gold" d="m455.328 162.625 3.68 28.992-11.98-58.832ZM470.645 202.168l-20.61 15.61 8.973-26.16ZM459.008 191.617l-10.535 24.89-15.946-8.53ZM450.035 217.777l-1.562-1.27 10.535-24.89Zm0 0"/><path fill="gold" d="m459.008 191.617 17.277-17.031-5.64 27.582Zm0 0"/><path fill="gold" d="m476.285 174.586-17.277 17.031-3.68-28.992ZM467.012 240.836l16.363-8.156-10.926 25.386ZM435.129 641.273l-11.645-27.34 17.07 27.981ZM473.574 77.71l-13.105 29.583-8.45-7.184ZM443.105 683.758l-6.293 15-10.94-1.559Zm0 0"/></svg>