<svg xmlns="http://www.w3.org/2000/svg" width="512" height="512" viewBox="0 0 384 384"><path fill="#2e222f" d="m87.102 262.309-37.23 17.015 12.296-50.84Zm0 0"/><path fill="#753d3c" d="m175.148 203.066 15.57-30.453 32.9 11.899Zm0 0"/><path fill="#dea964" d="m190.719 172.613-15.57 30.453-8.626-24.289Zm0 0"/><path fill="#6a4d3b" d="m228.73 362.473-28.84 21.547-.976-12.582Zm0 0"/><path fill="#2f232f" d="M55.727 117.676 0 114.203l52.875-61.36Zm0 0"/><path fill="#2e222f" d="m100.875 312.012-13.773-49.703 22.386 6.84ZM100.875 312.012l-51.004-32.688 37.23-17.015ZM100.875 312.012l-43.672 25.547-7.332-58.235Zm0 0"/><path fill="#2e222f" d="m49.871 279.324 7.332 58.235L0 307.152ZM101.7 44.906 93.925 0l49.469 28.816Zm0 0"/><path fill="#30242f" d="M0 227.648V114.203l52.602 61.317Zm0 0"/><path fill="#f1ea8a" d="m101.98 109.926 1.301 1.492-6.785 8.492Zm0 0"/><path fill="#2e222f" d="M52.875 52.844 93.925 0l7.774 44.906ZM109.527 69.746 110 80.777l-27.043-1.172Zm0 0"/><path fill="#a9b2a1" d="m110 80.777 11.586 7.043-22.117 13.785Zm0 0"/><path fill="#2e222f" d="M82.957 79.605 110 80.777l-10.531 20.828Zm0 0"/><path fill="#2e222f" d="m101.7 44.906-18.743 34.7-30.082-26.762ZM341.48 247.352l18.997 31.113-12.805 10.992Zm0 0"/><path fill="#32252f" d="m302.922 140.324 32.965-28.148-4.348 30.972Zm0 0"/><path fill="#2e222f" d="M307.422.004 295.703 63.84l-22.637-39.434Zm0 0"/><path fill="#2f222f" d="m52.602 175.52 9.566 52.964L0 227.648Zm0 0"/><path fill="#2e222f" d="m80.828 203.848-18.66 24.636-9.566-52.964Zm0 0"/><path fill="#eee084" d="m147.258 186.172 5.094-18.824 14.171 11.43Zm0 0"/><path fill="#eddd82" d="m152.352 167.348-5.094 18.824-13.906-13.188Zm0 0"/><path fill="#ddab66" d="m173.648 162.336 17.07 10.277-24.195 6.164Zm0 0"/><path fill="#2f232f" d="m0 227.648 62.168.836-12.297 50.84Zm0 0"/><path fill="#2e222f" d="m57.203 337.559 45.473 22.976L79.289 384Zm0 0"/><path fill="#2e222f" d="M102.676 360.535 57.203 337.56l43.672-25.547ZM57.203 337.559 0 384v-76.848Zm0 0"/><path fill="#2e222f" d="M79.29 384H0l57.203-46.441ZM288.61 291.906l-21.587 6.02 16.985-41.73ZM243.957 304.645l3.098-25.735 19.968 19.016Zm0 0"/><path fill="#9c7f62" d="m161.766 221.871 33.847 23.977-42.394-8.567Zm0 0"/><path fill="#2e222f" d="m360.477 278.465 6.347 12.945-19.152-1.953Zm0 0"/><path fill="#75563c" d="m228.73 362.473 23.754 21.547h-52.593Zm0 0"/><path fill="#2e222f" d="m93.926 0 77.504-.008-28.035 28.824Zm0 0"/><path fill="#7a8b87" d="m113.664 102.902-11.684 7.024-2.511-8.32Zm0 0"/><path fill="#382e38" d="m101.98 109.926 11.684-7.024-10.383 8.516Zm0 0"/><path fill="#a9b2a1" d="m121.586 87.82-7.922 15.082-14.195-1.297Zm0 0"/><path fill="#a9b2a1" d="m143.625 113.133-29.96-10.23 7.92-15.083Zm0 0"/><path fill="#2e222f" d="M0 0h93.926L52.875 52.844Zm0 0"/><path fill="#2f222f" d="M0 114.203V0l52.875 52.844Zm0 0"/><path fill="#2e222f" d="m82.957 79.605 18.742-34.699 7.828 24.84ZM171.43-.008l57.32 8.356-25.477 6.668Zm0 0"/><path fill="#2f222f" d="m384.004 149.219-48.117-37.043L384 85.27Zm0 0"/><path fill="#30232f" d="m335.887 112.176 48.117 37.043-52.465-6.07Zm0 0"/><path fill="#2f232f" d="m260.762 191.004 20.652-1.645-.242 26.989Zm0 0"/><path fill="#2e222f" d="m259.543 93.867-9.219 49.938-19.847-8.88ZM250.324 143.805l9.219-49.938 18.863 51.942Zm0 0"/><path fill="#8f6a41" d="m286.16 103.605 16.762 36.72-24.516 5.484Zm0 0"/><path fill="#332530" d="m331.54 143.148-24.817 19.176-3.801-22Zm0 0"/><path fill="#2e222f" d="m384 0-49.68 68.617L307.422.004Zm0 0"/><path fill="#2e222f" d="m384 85.27-49.68-16.653L384 0ZM259.543 93.867l12.48 1.445 6.383 50.497Zm0 0"/><path fill="#edde83" d="m286.16 103.605-14.137-8.293 11.16-16.75Zm0 0"/><path fill="#f0e788" d="m272.023 95.313 14.137 8.292-7.754 42.204Zm0 0"/><path fill="#2e222f" d="m82.957 79.605-27.23 38.07-2.852-64.831Zm0 0"/><path fill="#30232f" d="m52.602 175.52 3.125-57.844 26.039 28.965Zm0 0"/><path fill="#2f232f" d="m55.727 117.676-3.125 57.844L0 114.203Zm0 0"/><path fill="#2e222f" d="m198.344 119.605 3.644-17.105 11.395 10.64ZM208.738 138.625l-11.582 17.02-17.058-15.211ZM208.738 138.625l-10.394-19.02 15.039-6.464ZM236.813 77.727l-14.352-2.383 2.687-11.29Zm0 0"/><path fill="#2e222f" d="m235.637 84.906 1.175-7.18 14.625 6.141Zm0 0"/><path fill="#2e2330" d="m213.383 113.14 22.254-28.234 15.8-1.039Zm0 0"/><path fill="#778986" d="m222.46 75.344 13.177 9.562-33.649 17.594Zm0 0"/><path fill="#322834" d="m235.637 84.906-13.176-9.562 14.351 2.383Zm0 0"/><path fill="#778986" d="m201.988 102.5 33.649-17.594-22.254 28.235Zm0 0"/><path fill="#2e222f" d="m230.477 134.926-21.739 3.699 4.645-25.484Zm0 0"/><path fill="#a68b73" d="m117.785 177.59 4.695-14.653 10.872 10.047Zm0 0"/><path fill="#dea762" d="m175.148 203.066-13.785-1.793 5.16-22.496Zm0 0"/><path fill="#efe386" d="m161.363 201.273-14.105-15.101 19.265-7.395Zm0 0"/><path fill="#2e222f" d="m223.617 184.512-26.46-28.867 11.581-17.02Zm0 0"/><path fill="#5c3c37" d="m197.156 155.645 26.461 28.867-32.898-11.899Zm0 0"/><path fill="#763c3d" d="m197.156 155.645-23.508 6.69 6.45-21.901Zm0 0"/><path fill="#773c3d" d="m173.648 162.336 23.508-6.691-6.437 16.968Zm0 0"/><path fill="#994243" d="m152.352 167.348 21.296-5.012-7.125 16.441Zm0 0"/><path fill="#392731" d="m173.648 162.336-21.296 5.012 1.71-18.899Zm0 0"/><path fill="#dca763" d="m122.48 162.938 30.16-21.008 1.423 6.52Zm0 0"/><path fill="#f0e888" d="m143.625 113.133 23.984 16.129-14.968 12.668Zm0 0"/><path fill="#778986" d="m167.61 129.262-23.985-16.13 22.438-13.64Zm0 0"/><path fill="#2e222f" d="M120.582 384.02 79.289 384l23.387-23.465Zm0 0"/><path fill="#2f232f" d="m0 227.648 49.871 51.676L0 307.152Zm0 0"/><path fill="#2e222f" d="m260.457 262.398 23.55-6.203-16.984 41.73ZM247.055 278.91l13.402-16.512 6.566 35.528ZM228.008 283.629l19.047-4.719-3.098 25.735ZM228.008 283.629l11.199-14.785 7.848 10.066ZM346.7 344.621l24.652-2.23-23.938 16.96Zm0 0"/><path fill="#2e222f" d="M371.352 342.39 384 384l-36.586-24.648Zm0 0"/><path fill="#2e222f" d="M371.352 342.39 384 268.728V384Zm0 0"/><path fill="#2e222f" d="m384 268.727-12.648 73.664-4.528-50.98Zm0 0"/><path fill="#302430" d="m347.672 289.457 8.047 6.816-3.551 7.485Zm0 0"/><path fill="#2e222f" d="m384 268.727-17.176 22.683-6.347-12.945ZM366.824 291.41l-11.105 4.863-8.047-6.816Zm0 0"/><path fill="#f1eb8b" d="m349.875 326.535-13.559-14.566 15.852-8.211Zm0 0"/><path fill="#2e222f" d="m371.352 342.39-6.864-5.898 2.336-45.082ZM364.488 336.492l6.864 5.899-24.653 2.23Zm0 0"/><path fill="#926844" d="m198.145 364.52 30.585-2.047-29.816 8.964Zm0 0"/><path fill="#b2784c" d="m198.145 364.52 25.308-14.23 5.277 12.183Zm0 0"/><path fill="#4b3834" d="m228.73 362.473 7.672-27.953 19.051 10.312Zm0 0"/><path fill="#463434" d="m236.402 334.52-7.672 27.953-5.277-12.184Zm0 0"/><path fill="#4c3c3a" d="m213.148 324.027 23.254 10.493-12.949 15.77Zm0 0"/><path fill="#2e222f" d="m236.402 334.52 7.555-29.875 11.496 40.187Zm0 0"/><path fill="#2e222f" d="m236.402 334.52-23.254-10.493 30.809-19.382Zm0 0"/><path fill="#c38157" d="m122.48 162.938 8.086-25.04 22.075 4.032Zm0 0"/><path fill="#f1e989" d="m130.566 137.898 13.059-24.765 9.016 28.797Zm0 0"/><path fill="#f1eb8a" d="m113.664 102.902 16.902 34.996-27.285-26.48ZM130.566 137.898l-16.902-34.996 29.961 10.23Zm0 0"/><path fill="#2e222f" d="M171.43-.008 254.004 0 228.75 8.348Zm0 0"/><path fill="#2e222f" d="M254.004 0 171.43-.008l135.992.012ZM254.004 0l53.418.004-34.356 24.402ZM254.004 0l-6.977 23.852L228.75 8.348Zm0 0"/><path fill="#694e3a" d="m266.598 35.813 29.105 28.027-22.91 6.957Zm0 0"/><path fill="#2f232f" d="m266.598 35.813 6.468-11.407 22.637 39.434Zm0 0"/><path fill="#2e222f" d="m171.43-.008 3.27 24.45-31.305 4.374Zm0 0"/><path fill="#788a87" d="m143.625 113.133 14.887-21.387 7.55 7.746Zm0 0"/><path fill="#788a87" d="m158.512 91.746 30.02-19.516-22.47 27.262Zm0 0"/><path fill="#a8b1a1" d="m158.512 91.746-14.887 21.387-22.04-25.313Zm0 0"/><path fill="#788a87" d="m167.059 46.102 20.675 1.8-15.82 15.743Zm0 0"/><path fill="#2e222f" d="m228.75 8.348-3.418 12.297-22.059-5.63Zm0 0"/><path fill="#f1eb8a" d="m206.793 20.836 18.539-.191-2.93 3.921Zm0 0"/><path fill="#2e222f" d="m225.332 20.645-18.539.19-3.52-5.82Zm0 0"/><path fill="#f1eb8a" d="m201.8 34.93 4.993-14.094 15.61 3.73Zm0 0"/><path fill="#2e222f" d="m384 85.27-48.113 26.906-1.567-43.559Zm0 0"/><path fill="#32252f" d="m300.715 98.008 35.172 14.168-32.965 28.148Zm0 0"/><path fill="#342630" d="m295.703 63.84 5.012 34.168-17.531-19.445Zm0 0"/><path fill="#31242f" d="m335.887 112.176-35.172-14.168 33.605-29.39Zm0 0"/><path fill="#30232f" d="m300.715 98.008-5.012-34.168 38.617 4.777Zm0 0"/><path fill="#855b44" d="m300.715 98.008-14.555 5.597-2.976-25.043Zm0 0"/><path fill="#ba8650" d="m300.715 98.008 2.207 42.316-16.762-36.719Zm0 0"/><path fill="#513c35" d="m295.703 63.84-12.52 14.722-10.39-7.765Zm0 0"/><path fill="#2e222f" d="M384.004 149.219 384 268.727l-31.426-88.141Zm0 0"/><path fill="#2e222f" d="m384 268.727-42.52-21.375 11.094-66.766ZM341.48 247.352 384 268.727l-23.523 9.738Zm0 0"/><path fill="#2e222f" d="m341.48 247.352-12.351-23.559 23.445-43.207Zm0 0"/><path fill="#31242f" d="m331.54 143.148 21.034 37.438-45.851-18.262Zm0 0"/><path fill="#efe386" d="m293.012 266.074 13.664-11.594.21.09Zm0 0"/><path fill="#778986" d="m321.379 276.754 20.101-29.402 6.192 42.105Zm0 0"/><path fill="#2e222f" d="m260.762 191.004-37.145-6.492 36.113-21.559ZM329.129 223.793l-6.625-35.89 30.07-7.317Zm0 0"/><path fill="#ebd880" d="m281.414 189.36-3.035-14.805 15.808-4.907Zm0 0"/><path fill="#eee084" d="m278.379 174.555 1.14-20.325 14.668 15.418Zm0 0"/><path fill="#2e222f" d="m259.73 162.953 18.649 11.602-17.617 16.449Zm0 0"/><path fill="#352730" d="m278.379 174.555 3.035 14.804-20.652 1.645Zm0 0"/><path fill="#2e222f" d="m278.379 174.555-18.649-11.602 19.79-8.723ZM259.73 162.953l18.676-17.144 1.114 8.421Zm0 0"/><path fill="#2e222f" d="m278.406 145.809-18.676 17.144-9.406-19.148Zm0 0"/><path fill="#2f232f" d="m334.32 68.617-38.617-4.777L307.422.004Zm0 0"/><path fill="#2e222f" d="m259.543 93.867-29.066 41.059-17.094-21.785Zm0 0"/><path fill="#2e222f" d="m259.543 93.867-46.16 19.274 38.054-29.274ZM86.945 111.695l-31.218 5.98 27.23-38.07Zm0 0"/><path fill="#2e222f" d="m86.945 111.695-3.988-32.09 16.512 22ZM101.98 109.926l-15.035 1.77 12.524-10.09Zm0 0"/><path fill="#2e222f" d="m86.945 111.695 15.035-1.77-5.484 9.985ZM90.105 131.902l-8.34 14.739-26.038-28.965Zm0 0"/><path fill="#2f222f" d="m90.105 131.902-3.16-20.207 9.551 8.215Zm0 0"/><path fill="#2e222f" d="m86.945 111.695 3.16 20.207-34.378-14.226Zm0 0"/><path fill="#efe285" d="m98.043 143.508-7.938-11.606 6.391-11.992Zm0 0"/><path fill="#2e222f" d="m81.766 146.64 16.277-3.132-3.945 8.668Zm0 0"/><path fill="#2e222f" d="m90.105 131.902 7.938 11.606-16.277 3.133Zm0 0"/><path fill="#778986" d="m209.32 73.16 13.14 2.184-20.472 27.156Zm0 0"/><path fill="#2e222f" d="m241.215 72.54-4.403 5.187-11.664-13.672Zm0 0"/><path fill="#2e222f" d="m236.813 77.727 4.402-5.188 10.222 11.328Zm0 0"/><path fill="#f1eb8a" d="m241.215 72.54 15.375 1.179-5.152 10.148ZM232.723 42.746l2.199-8.48 21.457 18.644Zm0 0"/><path fill="#e3bc70" d="m134.371 160.867-11.89 2.07 31.582-14.488Zm0 0"/><path fill="#997e72" d="m122.48 162.938 11.891-2.07-1.02 12.116Zm0 0"/><path fill="#f1ea8a" d="m152.352 167.348-17.98-6.48 19.69-12.419Zm0 0"/><path fill="#eddd82" d="m134.371 160.867 17.98 6.48-19 5.637Zm0 0"/><path fill="#f0e788" d="m154.063 148.45-1.422-6.52 27.457-1.496Zm0 0"/><path fill="#f1e989" d="m173.648 162.336-19.585-13.887 26.035-8.015Zm0 0"/><path fill="#2e222f" d="m198.344 119.605 10.394 19.02-28.64 1.809ZM167 277.262l-9.012 11.054-2.367-27.816ZM109.488 269.148l12.469-2.187 3.656 11.422Zm0 0"/><path fill="#eddc81" d="m161.363 201.273-20.37 15.118 6.265-30.22Zm0 0"/><path fill="#2e222f" d="m94.969 239.734-7.867 22.575-24.934-33.825ZM157.988 288.316l-16.781-12.796 14.414-15.02Zm0 0"/><path fill="#2e222f" d="m141.207 275.52 13.215-16.301 1.2 1.281ZM141.207 275.52l-6.281-12.66 19.496-3.641ZM134.926 262.86l6.281 12.66-15.594 2.863ZM121.957 266.96l12.969-4.1-9.313 15.523Zm0 0"/><path fill="#e3b96d" d="m137.117 229.902 3.875-13.511 12.227 20.89Zm0 0"/><path fill="#dda460" d="m140.992 216.39 20.774 5.481-8.547 15.41Zm0 0"/><path fill="#443334" d="m203.016 248.906 14.859 4.446-12.426 4.453Zm0 0"/><path fill="#2e222f" d="m239.207 268.844-17.355 3.922.14-5.043Zm0 0"/><path fill="#2f232f" d="m228.008 283.629-6.156-10.863 17.355-3.922Zm0 0"/><path fill="#d99b5d" d="M182.2 265.887 167 277.262 155.621 260.5Zm0 0"/><path fill="#4b3836" d="m182.2 265.887 20.816-16.98 2.433 8.898Zm0 0"/><path fill="#4e3836" d="m203.016 248.906-20.817 16.98 13.414-20.038Zm0 0"/><path fill="#f1eb8a" d="M197.148 278.398 182.2 265.887l23.25-8.082Zm0 0"/><path fill="#f1eb8a" d="m182.2 265.887 14.948 12.511L167 277.262ZM167 277.262l30.148 1.136-26.027 12.805Zm0 0"/><path fill="#d7c479" d="m154.422 259.219 41.191-13.371-39.992 14.652Zm0 0"/><path fill="#4e3837" d="M195.613 245.848 182.2 265.887l-26.578-5.387Zm0 0"/><path fill="#ab9870" d="m195.613 245.848-41.191 13.37-1.203-21.937Zm0 0"/><path fill="#594237" d="m252.484 384.02 45.63-.094-.016.156Zm0 0"/><path fill="#2e222f" d="m298.098 384.082 30.601-9.367L384 384Zm0 0"/><path fill="#2f222f" d="m298.113 383.926 30.586-9.211-30.601 9.367Zm0 0"/><path fill="#2e222f" d="m328.7 374.715 18.714-15.363L384 384Zm0 0"/><path fill="#2e222f" d="m328.7 374.715-2.305-12.656 21.02-2.707Zm0 0"/><path fill="#f1eb8b" d="m349.875 326.535-3.176 18.086-6.804-3.492ZM349.875 326.535l14.613 9.957-17.789 8.13ZM339.723 327.316l-3.407-15.347 13.559 14.566Zm0 0"/><path fill="#f1eb8b" d="m339.723 327.316 10.152-.78-9.98 14.593Zm0 0"/><path fill="#f1eb8a" d="m359.39 301.777-9.515 24.758 2.293-22.777Zm0 0"/><path fill="#efe98a" d="m355.719 296.273 3.672 5.504-7.223 1.98Zm0 0"/><path fill="#f1eb8a" d="m359.39 301.777 5.098 34.715-14.613-9.957Zm0 0"/><path fill="#2e222f" d="m359.39 301.777-3.671-5.504 11.105-4.863ZM364.488 336.492l-5.097-34.715 7.433-10.367Zm0 0"/><path fill="#778985" d="m325.805 289.922 21.867-.465-21.473 8.219Zm0 0"/><path fill="#efe486" d="m293.012 266.074-4.403 25.832-4.601-35.71Zm0 0"/><path fill="#a8b1a1" d="m336.316 311.969-22.16-11.086 12.043-3.207Zm0 0"/><path fill="#768785" d="m347.672 289.457-11.356 22.512-10.117-14.293Zm0 0"/><path fill="#c2c698" d="m336.316 311.969 11.356-22.512 4.496 14.3Zm0 0"/><path fill="#70523b" d="m171.2 368.598 28.69 15.422-36.562-.012Zm0 0"/><path fill="#da9a5a" d="m154.746 362.07 16.453 6.528-7.87 15.41Zm0 0"/><path fill="#70543c" d="m199.89 384.02-28.69-15.422 27.714 2.84Zm0 0"/><path fill="#7e5e3f" d="m171.2 368.598 26.945-4.078.77 6.918Zm0 0"/><path fill="#977044" d="m198.145 364.52-26.946 4.078-.347-16.672Zm0 0"/><path fill="#deaa64" d="m171.2 368.598-16.454-6.528 16.106-10.144Zm0 0"/><path fill="#db9a5b" d="m142.684 383.984 12.062-21.914 8.582 21.938Zm0 0"/><path fill="#2e222f" d="m243.957 304.645-30.809 19.382 14.86-40.398Zm0 0"/><path fill="#f1e889" d="m103.281 111.418 11.239 34.863-18.024-26.37Zm0 0"/><path fill="#ead07a" d="m114.52 146.281-16.477-2.773-1.547-23.598Zm0 0"/><path fill="#f1ea8a" d="m109.027 160.234 5.493-13.953 7.96 16.656Zm0 0"/><path fill="#f1ea8a" d="m114.52 146.281 16.046-8.383-8.086 25.04Zm0 0"/><path fill="#f1eb8a" d="m130.566 137.898-16.046 8.383-11.239-34.863Zm0 0"/><path fill="#30232f" d="m216.453 36.129-14.652-1.2 20.601-10.363Zm0 0"/><path fill="#e8c976" d="m201.8 34.93 14.653 1.199-.46 11.101Zm0 0"/><path fill="#f1eb8a" d="m216.176 57.398 14.988-3.07-6.016 9.727Zm0 0"/><path fill="#f1eb8a" d="m216.176 57.398-.184-10.168 15.172 7.098Zm0 0"/><path fill="#4b4a51" d="m216.176 57.398-9.356 5.395-9.07-11.566Zm0 0"/><path fill="#f1eb8a" d="m215.992 47.23.184 10.168-18.426-6.171Zm0 0"/><path fill="#674839" d="m256.59 73.719 3.14-10.008 13.063 7.086Zm0 0"/><path fill="#cf7142" d="m259.73 63.71 6.868-27.897 6.195 34.984Zm0 0"/><path fill="#cf7042" d="M266.598 35.813 259.73 63.71l-3.351-10.8Zm0 0"/><path fill="#ce6c3f" d="m259.73 63.71-27.007-20.964 23.656 10.164Zm0 0"/><path fill="#778986" d="m187.734 47.902.797 24.328-16.617-8.585Zm0 0"/><path fill="#788986" d="m158.512 91.746 13.402-28.101 16.617 8.585Zm0 0"/><path fill="#f1eb8a" d="m225.332 20.645 9.59 13.62-12.52-9.699Zm0 0"/><path fill="#f1eb8a" d="m234.922 34.266-18.469 1.863 5.95-11.563Zm0 0"/><path fill="#2e222f" d="m247.027 23.852-21.695-3.207 3.418-12.297Zm0 0"/><path fill="#f1eb8a" d="m225.332 20.645 21.695 3.207-12.105 10.414Zm0 0"/><path fill="#2e222f" d="M203.273 15.016 174.7 24.44 171.43-.008Zm0 0"/><path fill="#ece688" d="m186.832 37.29 19.961-16.454-4.992 14.094Zm0 0"/><path fill="#2e222f" d="m186.832 37.29 16.441-22.274 3.52 5.82ZM186.832 37.29 174.699 24.44l28.574-9.425Zm0 0"/><path fill="#778986" d="m188.531 72.23 9.219-21.003 9.07 11.566Zm0 0"/><path fill="#788a87" d="m197.75 51.227-9.219 21.003-.797-24.328Zm0 0"/><path fill="#f1eb8a" d="m201.8 34.93-14.066 12.972-.902-10.613Zm0 0"/><path fill="#f1ea8a" d="m201.8 34.93 14.192 12.3-18.242 3.997Zm0 0"/><path fill="#2f232f" d="m384.004 149.219-31.43 31.367-21.035-37.438Zm0 0"/><path fill="#e4d787" d="m292.691 251.309-8.683 4.886-.422-11.226Zm0 0"/><path fill="#788a87" d="m341.48 247.352-21.168-3.946 8.817-19.613Zm0 0"/><path fill="#2e222f" d="m283.586 244.969-19.93-21.13 17.516-7.491Zm0 0"/><path fill="#2f222f" d="m263.656 223.84-2.894-32.836 20.41 25.344Zm0 0"/><path fill="#73473e" d="m322.504 187.902-19.715-17.851 3.934-7.727Zm0 0"/><path fill="#2f232f" d="m352.574 180.586-30.07 7.316-15.781-25.578Zm0 0"/><path fill="#5c4437" d="m304.66 219.434-7.719-10.778 5.848-38.605Zm0 0"/><path fill="#85613f" d="m302.79 170.05-8.603-.402 12.536-7.324Zm0 0"/><path fill="#594137" d="m296.941 208.656-2.753-39.008 8.601.403Zm0 0"/><path fill="#f0e888" d="m294.188 169.648 2.753 39.008-15.527-19.297Zm0 0"/><path fill="#e1db8d" d="m281.414 189.36 15.527 19.296-15.77 7.692Zm0 0"/><path fill="#f1eb8a" d="m298.215 222.355-14.63 22.614-2.413-28.621Zm0 0"/><path fill="#f1eb8a" d="m296.941 208.656 1.274 13.7-17.043-6.008Zm0 0"/><path fill="#f0e687" d="m298.215 222.355-5.524 28.954-9.105-6.34Zm0 0"/><path fill="#ebd67e" d="m292.691 251.309 5.524-28.954 8.46 32.125Zm0 0"/><path fill="#4b3734" d="m298.215 222.355 6.445-2.921 2.016 35.046Zm0 0"/><path fill="#5b4337" d="m304.66 219.434-6.445 2.921-1.274-13.699Zm0 0"/><path fill="#2e222f" d="m223.617 184.512-14.879-45.887 21.739-3.7ZM250.324 143.805l-26.707 40.707 6.86-49.586ZM259.73 162.953l-36.113 21.559 26.707-40.707Zm0 0"/><path fill="#dca461" d="m278.406 145.809 24.516-5.485-23.402 13.906Zm0 0"/><path fill="#f1e989" d="m283.184 78.563-11.16 16.75.769-24.516Zm0 0"/><path fill="#2e222f" d="m81.766 146.64 9.07 20.13-38.234 8.75Zm0 0"/><path fill="#2e222f" d="m90.836 166.77-9.07-20.13 12.332 5.536Zm0 0"/><path fill="#f0e788" d="m98.043 143.508 10.984 16.726-14.93-8.058Zm0 0"/><path fill="#61363d" d="m114.52 146.281-5.493 13.953-10.984-16.726Zm0 0"/><path fill="#f1e989" d="m103.324 179.66 5.703-19.426 8.758 17.356Zm0 0"/><path fill="#f1e989" d="m90.836 166.77 18.191-6.536-5.703 19.426Zm0 0"/><path fill="#f1eb8a" d="m109.027 160.234 13.453 2.703-4.695 14.653Zm0 0"/><path fill="#778886" d="m215.727 66.277-6.407 6.883-2.5-10.367Zm0 0"/><path fill="#778986" d="m209.32 73.16 6.407-6.883 6.734 9.067Zm0 0"/><path fill="#2f2431" d="m222.46 75.344-6.733-9.067 9.421-2.222Zm0 0"/><path fill="#332935" d="m215.727 66.277.449-8.879 8.972 6.657Zm0 0"/><path fill="#45434b" d="m216.176 57.398-.45 8.88-8.906-3.485Zm0 0"/><path fill="#778986" d="m209.32 73.16-20.789-.93 18.29-9.437Zm0 0"/><path fill="#f1eb8a" d="m231.164 54.328 10.05 18.211-16.066-8.484Zm0 0"/><path fill="#dda15f" d="m259.73 63.71-28.566-9.382 1.559-11.582Zm0 0"/><path fill="#eee184" d="m241.215 72.54-10.05-18.212 25.425 19.39Zm0 0"/><path fill="#dea862" d="m231.164 54.328 28.566 9.383-3.14 10.008Zm0 0"/><path fill="#312632" d="m198.344 119.605-30.735 9.657-1.547-29.77Zm0 0"/><path fill="#f1ea8a" d="m152.64 141.93 14.97-12.668 12.488 11.172Zm0 0"/><path fill="#2e222f" d="m167.61 129.262 30.734-9.657-18.246 20.829ZM109.488 269.148l10.024-10.308 2.445 8.12Zm0 0"/><path fill="#30232f" d="m119.512 258.84 15.414 4.02-12.969 4.1Zm0 0"/><path fill="#e1b76c" d="m161.766 221.871-.403-20.598 13.785 1.793Zm0 0"/><path fill="#dfae67" d="m140.992 216.39 20.371-15.117.403 20.598Zm0 0"/><path fill="#f1e989" d="M147.258 186.172 131.84 189.5l1.512-16.516Zm0 0"/><path fill="#f0e788" d="m140.992 216.39-9.152-26.89 15.418-3.328Zm0 0"/><path fill="#997f72" d="m131.84 189.5-14.055-11.91 15.567-4.606Zm0 0"/><path fill="#ce6c3f" d="m117.973 220.129-11.313 11.629-4.238-6.48Zm0 0"/><path fill="#ab765f" d="m118.328 223.977-.355-3.848 19.144 9.773Zm0 0"/><path fill="#d17a48" d="m117.973 220.129.355 3.848-11.668 7.78Zm0 0"/><path fill="#f1eb8a" d="m119.512 258.84-10.446-9.637 17.2-1.7Zm0 0"/><path fill="#2f222f" d="m109.066 249.203 10.446 9.637-10.024 10.308Zm0 0"/><path fill="#2e222f" d="m109.066 249.203.422 19.945-22.386-6.84Zm0 0"/><path fill="#2e222f" d="m94.969 239.734 14.097 9.47-21.964 13.105Zm0 0"/><path fill="#2f232f" d="m106.66 231.758 2.406 17.445-14.097-9.469Zm0 0"/><path fill="#f1eb8a" d="m109.066 249.203-2.406-17.445 19.606 15.746Zm0 0"/><path fill="#2e222f" d="m62.168 228.484 18.66-24.636 21.594 21.43Zm0 0"/><path fill="#2f232f" d="m141.207 275.52-3.148 16.367-12.446-13.504Zm0 0"/><path fill="#2e222f" d="m138.059 291.887 3.148-16.367 16.781 12.796Zm0 0"/><path fill="#ede387" d="m119.512 258.84 6.754-11.336 8.66 15.355Zm0 0"/><path fill="#6e3d3b" d="m195.613 245.848-20.465-42.782 48.47-18.554Zm0 0"/><path fill="#845a4b" d="m195.613 245.848-33.847-23.977 13.382-18.805Zm0 0"/><path fill="#443133" d="m240.242 230.855-15.887-6.03.985-7.567Zm0 0"/><path fill="#f1eb8a" d="m217.875 253.352 4.117 14.37-16.543-9.917Zm0 0"/><path fill="#332731" d="m213.66 277.07 8.192-4.304 6.156 10.863Zm0 0"/><path fill="#423136" d="m213.148 324.027.512-46.957 14.348 6.559Zm0 0"/><path fill="#b2b99e" d="m314.156 300.883 11.649-10.961.394 7.754Zm0 0"/><path fill="#2e222f" d="m243.957 304.645 23.066-6.72-11.57 46.907ZM267.023 297.926l21.887 42.73-33.457 4.176ZM267.023 297.926l25.399 29.96-3.512 12.77Zm0 0"/><path fill="#433135" d="m213.23 271.074.43 5.996-16.512 1.328Zm0 0"/><path fill="#3d2d34" d="m213.66 277.07-.43-5.996 8.622 1.692Zm0 0"/><path fill="#766a4f" d="m213.23 271.074 8.762-3.351-.14 5.043Zm0 0"/><path fill="#f1eb8a" d="m213.23 271.074-16.082 7.324 8.301-20.593ZM221.992 267.723l-8.762 3.351-7.78-13.27Zm0 0"/><path fill="#a9b2a1" d="m326.168 342.836 13.555-15.52.172 13.813Zm0 0"/><path fill="#a9b2a1" d="m326.168 342.836-8.82-20.27 22.375 4.75Zm0 0"/><path fill="#2e222f" d="m347.414 359.352-9.266-10.059 8.551-4.672ZM326.395 362.059l11.753-12.766 9.266 10.059Zm0 0"/><path fill="#2e222f" d="m346.7 344.621-8.552 4.672 1.747-8.164Zm0 0"/><path fill="#2e222f" d="m338.148 349.293-11.98-6.457 13.727-1.707Zm0 0"/><path fill="#2e222f" d="m326.168 342.836 11.98 6.457-11.753 12.766Zm0 0"/><path fill="#2f222f" d="m298.113 383.926-22.965-25.008 15.594 5.074Zm0 0"/><path fill="#644a38" d="m252.484 384.02 22.664-25.102 22.965 25.008Zm0 0"/><path fill="#a0aa9c" d="m326.395 362.059-10.641 4.175 10.414-23.398Zm0 0"/><path fill="#2e222f" d="m328.7 374.715-12.946-8.48 10.64-4.176Zm0 0"/><path fill="#a9b2a1" d="m315.754 366.234 1.594-43.668 8.82 20.27Zm0 0"/><path fill="#a9b2a1" d="m315.754 366.234-13.043-26.82 14.637-16.848Zm0 0"/><path fill="#a8b1a1" d="m302.71 339.414 13.044 26.82-25.012-2.242Zm0 0"/><path fill="#2e222f" d="m315.754 366.234-17.64 17.692-7.372-19.934Zm0 0"/><path fill="#2e222f" d="m315.754 366.234 12.945 8.48-30.586 9.212Zm0 0"/><path fill="#a9b2a1" d="m302.71 339.414 2.728-15.77 11.91-1.078Zm0 0"/><path fill="#a9b2a1" d="m305.438 323.645-2.727 15.77-10.29-11.528Zm0 0"/><path fill="#a9b2a1" d="m292.422 327.887 10.289 11.527-13.8 1.242Zm0 0"/><path fill="#a9b2a1" d="m288.91 340.656 13.8-1.242-11.968 24.578Zm0 0"/><path fill="#738380" d="m325.805 289.922-4.426-13.168 26.293 12.703Zm0 0"/><path fill="#d37f4b" d="m293.012 266.074 2.3 26.356-6.703-.524Zm0 0"/><path fill="#ecd77e" d="m314.156 300.883-18.844-8.453 30.493-2.508Zm0 0"/><path fill="#e1c575" d="m142.684 383.984-11.723-24.636 23.785 2.722Zm0 0"/><path fill="#2e222f" d="m125.613 278.383-24.738 33.629 8.613-42.864Zm0 0"/><path fill="#2e222f" d="m100.875 312.012 24.738-33.63 12.446 13.505Zm0 0"/><path fill="#f1eb8a" d="m167 277.262 4.121 13.941-13.133-2.887Zm0 0"/><path fill="#624940" d="m197.148 278.398 16.512-1.328-.512 46.957Zm0 0"/><path fill="#e5c474" d="m197.223 347.695 15.925-23.668 10.305 26.262Zm0 0"/><path fill="#dba662" d="m198.145 364.52-.922-16.825 26.23 2.594Zm0 0"/><path fill="#a47e50" d="m197.223 347.695.922 16.825-27.293-12.594Zm0 0"/><path fill="#2e222f" d="m273.066 24.406-26.039-.554L254.004 0Zm0 0"/><path fill="#2e222f" d="m266.598 35.813-19.57-11.961 26.038.554Zm0 0"/><path fill="#eacf7a" d="m247.027 23.852 19.57 11.96L256.38 52.91Zm0 0"/><path fill="#f1eb8a" d="m234.922 34.266 12.105-10.414 9.352 29.058Zm0 0"/><path fill="#2e222f" d="m143.395 28.816 31.304-4.375-7.64 21.66ZM101.7 44.906l32.886 11.684-25.059 13.156Zm0 0"/><path fill="#e6c473" d="m216.453 36.129 16.27 6.617-16.73 4.484Zm0 0"/><path fill="#f1ea8a" d="m234.922 34.266-2.2 8.48-16.269-6.617Zm0 0"/><path fill="#e1b168" d="m215.992 47.23 16.73-4.484-1.558 11.582Zm0 0"/><path fill="#2e222f" d="m186.832 37.29-19.773 8.812 7.64-21.66Zm0 0"/><path fill="#f1eb8a" d="m167.059 46.102 19.773-8.813.902 10.613ZM197.75 51.227l-10.016-3.325 14.067-12.972Zm0 0"/><path fill="#30242f" d="m238.824 261.715.383 7.129-17.215-1.121Zm0 0"/><path fill="#f1e989" d="m292.691 251.309 13.985 3.171-13.664 11.594Zm0 0"/><path fill="#eede83" d="m284.008 256.195 8.683-4.886.32 14.765Zm0 0"/><path fill="#f1eb8a" d="m315.176 223.629-8.29 30.941-.21-.09Zm0 0"/><path fill="#3b2e34" d="m315.176 223.629-10.516-4.195 24.469 4.359Zm0 0"/><path fill="#f1eb8a" d="m304.66 219.434 10.516 4.195-8.5 30.851Zm0 0"/><path fill="#454148" d="m320.313 243.406-5.137-19.777 13.953.164Zm0 0"/><path fill="#f1eb8a" d="m306.887 254.57 8.289-30.941 5.137 19.777Zm0 0"/><path fill="#f1eb8a" d="m320.313 243.406 1.066 33.348-14.492-22.184Zm0 0"/><path fill="#758684" d="m320.313 243.406 21.167 3.946-20.101 29.402Zm0 0"/><path fill="#788a86" d="m329.129 223.793-11.89-6.68 5.265-29.21Zm0 0"/><path fill="#352730" d="m322.504 187.902-5.266 29.211-14.449-47.062Zm0 0"/><path fill="#392c33" d="m304.66 219.434 12.578-2.32 11.89 6.679Zm0 0"/><path fill="#f1eb8a" d="m317.238 217.113-12.578 2.32-1.87-49.382Zm0 0"/><path fill="#cb914a" d="m302.922 140.324 3.8 22-27.202-8.094Zm0 0"/><path fill="#ac7646" d="m279.52 154.23 27.203 8.094-12.536 7.324Zm0 0"/><path fill="#402f33" d="m262.84 84.309-6.25-10.59 16.203-2.922Zm0 0"/><path fill="#392a31" d="m272.023 95.313-9.183-11.004 9.953-13.512Zm0 0"/><path fill="#e8cc78" d="m256.59 73.719 6.25 10.59-11.402-.442Zm0 0"/><path fill="#322530" d="m262.84 84.309-3.297 9.558-8.106-10Zm0 0"/><path fill="#d59055" d="m262.84 84.309 9.183 11.004-12.48-1.446Zm0 0"/><path fill="#e6c272" d="m109.027 160.234-18.191 6.536 3.262-14.594Zm0 0"/><path fill="#f0e989" d="m91.313 185.762 7.214 6.98-4.789 1.91Zm0 0"/><path fill="#2e222f" d="m91.313 185.762 2.425 8.89-12.91 9.196Zm0 0"/><path fill="#f1eb8a" d="m91.313 185.762-.477-18.992 12.488 12.89Zm0 0"/><path fill="#f1eb8a" d="m98.527 192.742-7.215-6.98 12.012-6.102Zm0 0"/><path fill="#2e222f" d="m91.313 185.762-10.485 18.086-28.226-28.328Zm0 0"/><path fill="#2e222f" d="m90.836 166.77.477 18.992-38.711-10.242Zm0 0"/><path fill="#cd6a3e" d="m117.973 220.129-15.551 5.148 3.691-8.714Zm0 0"/><path fill="#f1e989" d="m95.969 205.371 10.144 11.191-3.691 8.715Zm0 0"/><path fill="#f1ea8a" d="m98.527 192.742-2.558 12.63-2.23-10.72Zm0 0"/><path fill="#2e222f" d="m95.969 205.371-15.14-1.523 12.91-9.196Zm0 0"/><path fill="#2e222f" d="m95.969 205.371 6.453 19.906-21.594-21.43Zm0 0"/><path fill="#997f72" d="m131.84 189.5-23.309 6.762 9.254-18.672Zm0 0"/><path fill="#f1e989" d="m117.785 177.59-9.254 18.672-5.207-16.602Zm0 0"/><path fill="#f1eb8a" d="m108.531 196.262-10.004-3.52 4.797-13.082Zm0 0"/><path fill="#2e222f" d="m102.422 225.277 4.238 6.48-11.691 7.977Zm0 0"/><path fill="#2e222f" d="m62.168 228.484 40.254-3.207-7.453 14.457Zm0 0"/><path fill="#2f222f" d="m151.371 296.703-13.312-4.816 19.93-3.57Zm0 0"/><path fill="#d99558" d="m106.66 231.758 11.668-7.781 18.79 5.925Zm0 0"/><path fill="#cd693d" d="m126.266 247.504-19.606-15.746 30.457-1.856Zm0 0"/><path fill="#b7956f" d="m144.922 250.836-18.656-3.332 10.851-17.602Zm0 0"/><path fill="#9f8472" d="m154.422 259.219-9.5-8.383 8.297-13.555Zm0 0"/><path fill="#e6c776" d="m144.922 250.836-7.805-20.934 16.102 7.38Zm0 0"/><path fill="#c0ad7c" d="m126.266 247.504 18.656 3.332-9.996 12.023Zm0 0"/><path fill="#a88f75" d="m134.926 262.86 9.996-12.024 9.5 8.383Zm0 0"/><path fill="#32252f" d="m225.34 217.258-16.824 12.469 52.246-38.723Zm0 0"/><path fill="#472c33" d="m260.762 191.004-52.246 38.723 15.101-45.215Zm0 0"/><path fill="#543d36" d="m208.516 229.727-12.903 16.12 28.004-61.335Zm0 0"/><path fill="#413134" d="m227.121 246.156 6.399 4.38-15.645 2.816Zm0 0"/><path fill="#3e2e32" d="m227.121 246.156-2.766-21.332 15.887 6.031Zm0 0"/><path fill="#f1eb8a" d="m233.52 250.535-11.528 17.188-4.117-14.371Zm0 0"/><path fill="#2e222f" d="m292.422 327.887-25.399-29.961 21.586-6.02Zm0 0"/><path fill="#ead27b" d="m295.313 292.43-2.891 35.457-3.813-35.98Zm0 0"/><path fill="#2e222f" d="m275.148 358.918 13.762-18.262 1.832 23.336Zm0 0"/><path fill="#2e222f" d="m288.91 340.656-13.762 18.262-19.695-14.086Zm0 0"/><path fill="#a9b2a1" d="m317.348 322.566-3.192-21.683 22.16 11.086Zm0 0"/><path fill="#f1eb8a" d="m317.348 322.566-11.91 1.079 8.718-22.762Zm0 0"/><path fill="#a9b2a1" d="m339.723 327.316-22.375-4.75 18.968-10.597Zm0 0"/><path fill="#f0e687" d="m309.969 283.129 11.41-6.375 4.426 13.168Zm0 0"/><path fill="#e3b86c" d="m295.313 292.43 14.656-9.301 15.836 6.793Zm0 0"/><path fill="#f1eb8a" d="m309.969 283.129-14.656 9.3-2.301-26.355Zm0 0"/><path fill="#efe184" d="m309.969 283.129-16.957-17.055 13.875-11.504Zm0 0"/><path fill="#d07847" d="m321.379 276.754-11.41 6.375-3.082-28.559Zm0 0"/><path fill="#e4bf71" d="m130.96 359.348 31.72-26.54-7.934 29.262Zm0 0"/><path fill="#e8cd79" d="m154.746 362.07 7.934-29.261 8.172 19.117Zm0 0"/><path fill="#2e222f" d="m130.96 359.348-10.378 24.672-17.906-23.485Zm0 0"/><path fill="#e3bf71" d="m120.582 384.02 10.379-24.672 11.723 24.636Zm0 0"/><path fill="#2e222f" d="m128.852 354.828-26.176 5.707-1.801-48.523ZM128.852 354.828l2.109 4.52-28.285 1.187Zm0 0"/><path fill="#2e222f" d="m138.059 291.887 9.09 22.031-46.274-1.906Zm0 0"/><path fill="#ddc174" d="m162.68 332.809-15.532-18.891 14.254-12.531Zm0 0"/><path fill="#f1eb8a" d="m147.148 313.918 4.223-17.215 10.031 4.684Zm0 0"/><path fill="#2e222f" d="m151.371 296.703-4.223 17.215-9.09-22.031Zm0 0"/><path fill="#778986" d="m201.988 102.5-13.457-30.27 20.79.93ZM201.988 102.5l-35.925-3.008L188.53 72.23Zm0 0"/><path fill="#778885" d="m201.988 102.5-3.644 17.105-32.281-20.113Zm0 0"/><path fill="#2e222f" d="m134.586 56.59-32.887-11.684 41.696-16.09Zm0 0"/><path fill="#4d3a35" d="m233.52 250.535-6.399-4.379 13.121-15.3Zm0 0"/><path fill="#f1eb8a" d="m233.52 250.535 5.304 11.18-16.832 6.008Zm0 0"/><path fill="#f1e989" d="m171.121 291.203-9.719 10.184-3.414-13.07Zm0 0"/><path fill="#f1eb8a" d="m161.402 301.387-10.03-4.684 6.616-8.387Zm0 0"/><path fill="#402f32" d="m208.516 229.727-5.5 19.18-7.403-3.06Zm0 0"/><path fill="#433035" d="m224.355 224.824-15.84 4.903 16.825-12.47Zm0 0"/><path fill="#f1eb8a" d="m305.438 323.645-10.125-31.215 18.843 8.453Zm0 0"/><path fill="#f1eb8b" d="m305.438 323.645-13.016 4.242 2.89-35.457Zm0 0"/><path fill="#6a4e3a" d="m275.148 358.918-22.664 25.102 2.97-39.188Zm0 0"/><path fill="#3b2c31" d="m252.484 384.02-23.754-21.547 26.723-17.641Zm0 0"/><path fill="#2e222f" d="m147.148 313.918-9.738 21.41-36.535-23.316Zm0 0"/><path fill="#cba466" d="m137.41 335.328 9.738-21.41 15.532 18.89Zm0 0"/><path fill="#2e222f" d="m137.41 335.328-8.558 19.5-27.977-42.816Zm0 0"/><path fill="#c0925e" d="m137.41 335.328 25.27-2.52-31.72 26.54Zm0 0"/><path fill="#cebe76" d="m128.852 354.828 8.558-19.5-6.45 24.02Zm0 0"/><path fill="#2e222f" d="m152.215 52.906-8.82-24.09 23.664 17.286Zm0 0"/><path fill="#2e222f" d="m152.215 52.906-17.63 3.684 8.81-27.774Zm0 0"/><path fill="#a8b1a1" d="m152.215 52.906 14.844-6.804 4.855 17.543Zm0 0"/><path fill="#a9b2a1" d="m110 80.777 5.555-6.882 6.03 13.925Zm0 0"/><path fill="#30232f" d="M115.555 73.895 110 80.777l-.473-11.03Zm0 0"/><path fill="#31242f" d="m134.586 56.59-19.031 17.305-6.028-4.149Zm0 0"/><path fill="#2f232f" d="m252.355 243.172 11.301-19.332 19.93 21.129Zm0 0"/><path fill="#abb39f" d="m255.8 257.559 27.786-12.59.422 11.226Zm0 0"/><path fill="#dddb8c" d="m255.8 257.559-3.445-14.387 31.23 1.797Zm0 0"/><path fill="#2f232f" d="m255.8 257.559 28.208-1.364-23.551 6.203Zm0 0"/><path fill="#f1eb8a" d="m108.531 196.262-12.562 9.11 2.558-12.63Zm0 0"/><path fill="#413033" d="m203.016 248.906 11.476-10.312 3.383 14.758Zm0 0"/><path fill="#423032" d="m208.516 229.727 5.976 8.867-11.476 10.312Zm0 0"/><path fill="#332630" d="m214.492 238.594-5.976-8.867 15.84-4.903Zm0 0"/><path fill="#403033" d="m214.492 238.594 12.63 7.562-9.247 7.196Zm0 0"/><path fill="#f1eb8a" d="m227.121 246.156-12.629-7.562 9.863-13.77Zm0 0"/><path fill="#dca360" d="m185.98 325.227-23.3 7.582-1.278-31.422Zm0 0"/><path fill="#a8b1a1" d="m143.715 71.012 28.2-7.367-13.403 28.101ZM143.715 71.012l8.5-18.106 19.7 10.739Zm0 0"/><path fill="#a8b1a1" d="m152.215 52.906-8.5 18.106-9.13-14.422Zm0 0"/><path fill="#30242f" d="m233.52 250.535 6.722-19.68 12.113 12.317Zm0 0"/><path fill="#2f232f" d="m240.242 230.855 23.414-7.015-11.3 19.332Zm0 0"/><path fill="#2e222f" d="m260.762 191.004-20.52 39.851-14.902-13.597ZM263.656 223.84l-23.414 7.015 20.52-39.851Zm0 0"/><path fill="#e5de85" d="m233.52 250.535 22.28 7.024-16.976 4.156Zm0 0"/><path fill="#ece589" d="m255.8 257.559-22.28-7.024 18.835-7.363Zm0 0"/><path fill="#2e222f" d="m238.824 261.715 16.977-4.156-16.594 11.285Zm0 0"/><path fill="#2e222f" d="m239.207 268.844 16.594-11.285-8.746 21.351Zm0 0"/><path fill="#2e222f" d="m255.8 257.559 4.657 4.84-13.402 16.511Zm0 0"/><path fill="#f0e888" d="M95.969 205.371 116 207.52l-9.887 9.042Zm0 0"/><path fill="#f0e889" d="M108.531 196.262 116 207.52l-20.031-2.149Zm0 0"/><path fill="#e7c674" d="m162.68 332.809 23.3-7.582-15.128 26.699Zm0 0"/><path fill="#e3ba6d" d="m185.98 325.227 11.243 22.468-26.371 4.23Zm0 0"/><path fill="#a8b1a1" d="m143.715 71.012 14.797 20.734-36.926-3.926Zm0 0"/><path fill="#a9b2a1" d="m115.555 73.895 28.16-2.883-22.13 16.808Zm0 0"/><path fill="#a8b1a1" d="m143.715 71.012-28.16 2.883 19.03-17.305Zm0 0"/><path fill="#f0e888" d="m116 207.52 1.973 12.609-11.86-3.566Zm0 0"/><path fill="#a67a65" d="m117.973 220.129 23.02-3.738-3.876 13.511Zm0 0"/><path fill="#997f72" d="m128.074 205.813 3.766-16.313 9.152 26.89Zm0 0"/><path fill="#997e72" d="m128.074 205.813-19.543-9.551 23.309-6.762Zm0 0"/><path fill="#e9d07b" d="m185.98 325.227 27.168-1.2-15.925 23.668Zm0 0"/><path fill="#9c8172" d="m117.973 220.129 10.101-14.316 12.918 10.578Zm0 0"/><path fill="#9d8473" d="m128.074 205.813-10.101 14.316-1.973-12.61Zm0 0"/><path fill="#c4915c" d="m185.98 325.227 11.168-46.829 16 45.63Zm0 0"/><path fill="#d89155" d="m185.98 325.227-14.859-34.024 26.027-12.805Zm0 0"/><path fill="#dc9e5d" d="m185.98 325.227-24.578-23.84 9.72-10.184Zm0 0"/><path fill="#312430" d="M128.074 205.813 116 207.52l-7.469-11.258Zm0 0"/></svg>