<svg xmlns="http://www.w3.org/2000/svg" width="512" height="512" viewBox="0 0 384 384"><path fill="#24213d" d="m178.152 197.098 13.844-23.957 11.461 23.28Zm0 0"/><path fill="#dddbe0" d="m191.996 173.14-13.844 23.958-14.117-22.082Zm0 0"/><path fill="#9b96a3" d="m231.777 367.645-45.539 16.363 11.328-41.403Zm0 0"/><path fill="#201533" d="m51.2 333.5 28.46-51.418 17.63 53.086ZM60.348 230.71l19.312 51.372-79.66.79Zm0 0"/><path fill="#201533" d="M79.66 282.082 51.2 333.5 0 282.871ZM0 188.813V98.055l46.004 34.156ZM108.965 63.809l-2.23 22.328-44.09-19.875Zm0 0"/><path fill="#ddfafc" d="m106.734 86.137 12.04 14.61-21.704 2.542Zm0 0"/><path fill="#201533" d="m62.645 66.262 44.09 19.875-9.665 17.152ZM274.21 42.258l-6.136-16.192 28.79 2.84ZM336.965 229.465l17.387-50.746L384 247.914Zm0 0"/><path fill="#201a37" d="m338.344 116.246-15.102 48.629-11-44.168Zm0 0"/><path fill="#201533" d="M60.566 188.496 0 188.812l46.004-56.601ZM60.566 188.496l-.218 42.215L0 188.812Zm0 0"/><path fill="#201533" d="M85.965 207.852 60.348 230.71l.218-42.215Zm0 0"/><path fill="#332a45" d="m221.004 172.52 2.832 40.714-20.379-16.812Zm0 0"/><path fill="#484059" d="m221.004 172.52 30.855 25.988-28.023 14.726Zm0 0"/><path fill="#f7f7f8" d="m148.984 184.883 2.77-18.297 12.281 8.43Zm0 0"/><path fill="#f9f9fa" d="m151.754 166.586-2.77 18.297-21.824-18.54Zm0 0"/><path fill="#b8b4be" d="m176.422 162.523 15.574 10.618-27.96 1.875Zm0 0"/><path fill="#201533" d="M92.793 237.934 79.66 282.082l-19.312-51.371ZM97.29 335.168l23.815 48.84L70.672 384ZM51.2 333.5 0 384V282.871ZM70.672 384H0l51.2-50.5ZM287.2 283.078l-23.087-6.117 20.59-13.05ZM243.16 299.48l-2.5-23.921 23.453 1.402Zm0 0"/><path fill="#b0acb7" d="m160.953 224.992 31.129 20.45-40.195-4.926Zm0 0"/><path fill="#201533" d="m308.512 365.414-6.617 18.602-10.832-20.075Zm0 0"/><path fill="#8892a1" d="m231.777 367.645.457 16.355-45.996.008Zm0 0"/><path fill="#504960" d="m232.234 384-.457-16.355 70.118 16.37Zm0 0"/><path fill="#4a8fa0" d="m118.773 100.746-18.554 11.54-3.149-8.997Zm0 0"/><path fill="#fefefe" d="m100.219 112.285 18.554-11.539-12.378 31.043Zm0 0"/><path fill="#201533" d="M0 0h84.566L62.645 66.262Zm0 0"/><path fill="#201533" d="M0 98.055V0l62.645 66.262ZM62.645 66.262l49.207-31.676-2.887 29.223ZM111.852 34.586 84.566 0h64.93Zm0 0"/><path fill="#201533" d="m84.566 0 27.286 34.586-49.207 31.676Zm0 0"/><path fill="#374e66" d="m262.125 69.707 3.43-7.61 6.562 7.66Zm0 0"/><path fill="#211634" d="m274.21 42.258-12.183-8.219 6.047-7.973Zm0 0"/><path fill="#201533" d="M151.012 35.477 149.496 0l31.738 16.79ZM219.07 6.727 149.496 0h110.766Zm0 0"/><path fill="#201634" d="m300.27 94.68-1.957-22.254 40.03 43.82Zm0 0"/><path fill="#939daa" d="m286.113 85.36 14.157 9.32-14.907 10.668Zm0 0"/><path fill="#201533" d="m336.965 229.465-6.684-40.703 24.07-10.043ZM354.352 178.719 384 102.859v145.055ZM251.86 198.508l29.234-5.746-.387 22.586Zm0 0"/><path fill="#139fb1" d="m257.469 118.316 19.43 15.27-33.833 21.754Zm0 0"/><path fill="#139cae" d="m276.898 133.586-19.43-15.27 16.391-2.601Zm0 0"/><path fill="#fcfdfd" d="m285.363 105.348 3.04 24.703-14.544-14.336Zm0 0"/><path fill="#8e93a1" d="m312.242 120.707-23.84 9.344-3.039-24.703Zm0 0"/><path fill="#345870" d="m323.242 164.875-21.73-29.086 10.73-15.082Zm0 0"/><path fill="#2e4962" d="m301.512 135.79 21.73 29.085-12.476 18.629Zm0 0"/><path fill="#fdfefe" d="m302.078 182.535-.566-46.746 9.254 47.715Zm0 0"/><path fill="#201533" d="M260.262 0H384l-87.137 28.906Zm0 0"/><path fill="#201533" d="M296.863 28.906 384 0l-85.687 72.426Zm0 0"/><path fill="#fafdfd" d="m272.316 96.43 13.797-11.07-.75 19.988Zm0 0"/><path fill="#139fb1" d="m257.469 118.316 14.847-21.886 1.543 19.285Zm0 0"/><path fill="#fcfefe" d="m272.316 96.43 13.047 8.918-11.504 10.367Zm0 0"/><path fill="#201533" d="M60.348 230.71 0 282.872v-94.058ZM60.566 188.496l-14.562-56.285 28.851 26.543Zm0 0"/><path fill="#201634" d="m84.55 111.793-38.546 20.418 16.64-65.95Zm0 0"/><path fill="#201634" d="M62.645 66.262 46.004 132.21 0 98.055Zm0 0"/><path fill="#201533" d="m46.004 132.21 44.457-.284-15.606 26.828Zm0 0"/><path fill="#d2f9fc" d="m200.75 96.992 16.324-.965.418 11.883Zm0 0"/><path fill="#168397" d="m181.656 130.438 17.578-11.09-.773 30.441Zm0 0"/><path fill="#12a3b4" d="m181.656 130.438 16.805 19.351-20.457-13.937Zm0 0"/><path fill="#4fdee8" d="m199.234 119.348 1.516-22.356 16.742 10.918Zm0 0"/><path fill="#6ab2bf" d="m227.773 94.11 6.426-24.758 8.16 20.957Zm0 0"/><path fill="#198599" d="M240.602 118.238 227.773 94.11l14.586-3.8Zm0 0"/><path fill="#8ff3f8" d="m216.953 82.578 10.82 11.531-10.699 1.918Zm0 0"/><path fill="#98f0f5" d="m227.773 94.11-10.82-11.532L234.2 69.352Zm0 0"/><path fill="#c8f9fb" d="m217.074 96.027 10.7-1.918-10.282 13.801Zm0 0"/><path fill="#1a869a" d="m227.773 94.11 12.829 24.128-23.11-10.328Zm0 0"/><path fill="#1398aa" d="m240.602 118.238-20.817 16.43-2.293-26.758Zm0 0"/><path fill="#1493a6" d="m219.785 134.668-20.55-15.32 18.257-11.438Zm0 0"/><path fill="#129fb2" d="m240.602 118.238 16.867.078-14.403 37.024Zm0 0"/><path fill="#12a1b3" d="m219.785 134.668 20.817-16.43 2.464 37.102Zm0 0"/><path fill="#fcfcfc" d="m178.152 197.098-29.168-12.215 15.051-9.867Zm0 0"/><path fill="#211836" d="m198.46 149.79 22.544 22.73-29.008.62Zm0 0"/><path fill="#3e354f" d="m191.996 173.14 29.008-.62-17.547 23.902Zm0 0"/><path fill="#28223e" d="m198.46 149.79-22.038 12.733 1.582-26.671Zm0 0"/><path fill="#2b2541" d="m176.422 162.523 22.039-12.734-6.465 23.352Zm0 0"/><path fill="#8f8a99" d="m151.754 166.586 11.77-2.05.511 10.48Zm0 0"/><path fill="#261d3a" d="m163.523 164.535 12.899-2.012-12.387 12.493Zm0 0"/><path fill="#211735" d="m163.523 164.535-11.77 2.05 2.774-18.597Zm0 0"/><path fill="#fefefe" d="m144.45 114.582 6.382 27.895-17.266-7.036Zm0 0"/><path fill="#201533" d="M97.29 335.168 70.671 384l-19.473-50.5Zm0 0"/><path fill="#201634" d="M268.746 318.969 243.16 299.48l20.953-22.52Zm0 0"/><path fill="#201533" d="m287.2 283.078-18.454 35.89-4.633-42.007ZM225.57 285.445l15.09-9.886 2.5 23.921ZM384 384l-9.3-40.766 9.3-95.32Zm0 0"/><path fill="#201533" d="m384 247.914-9.3 95.32-9.903-51.78ZM356.64 365.773l-3.82-22.043 21.88-.496ZM384 384l-27.36-18.227 18.06-22.539ZM326.25 363.371l-24.355 20.645 6.617-18.602ZM364.797 291.453l-19.77-16.933L384 247.914Zm0 0"/><path fill="#211836" d="m345.027 274.52 19.77 16.933-20.75.567Zm0 0"/><path fill="#fcfefe" d="m340.996 325.07-8.312-18.12 14.695-2.075Zm0 0"/><path fill="#201533" d="m374.7 343.234-10.595-9.406.692-42.375Zm0 0"/><path fill="#201533" d="m364.105 333.828 10.594 9.406-21.879.496Zm0 0"/><path fill="#f3f2f4" d="m197.566 342.605 24.875-5.652 9.336 30.692Zm0 0"/><path fill="#3f3650" d="m235.91 333.637-4.133 34.008-9.336-30.692Zm0 0"/><path fill="#3d334d" d="m210.855 321.906 25.055 11.73-13.469 3.317Zm0 0"/><path fill="#201533" d="m235.91 333.637-25.055-11.73 32.305-22.427Zm0 0"/><path fill="#fefefe" d="m118.773 100.746 14.793 34.695-27.171-3.652Zm0 0"/><path fill="#201533" d="m268.074 26.066-18.633-1.37L260.261 0Zm0 0"/><path fill="#201533" d="m249.441 24.695 18.633 1.371-6.047 7.973Zm0 0"/><path fill="#dfe7eb" d="m265.555 62.098 22.078-2.094-15.516 9.754Zm0 0"/><path fill="#211634" d="M287.633 60.004 274.21 42.258l22.652-13.352Zm0 0"/><path fill="#ccc9d0" d="m262.809 50.672-.782-16.633 12.184 8.219Zm0 0"/><path fill="#544e65" d="m287.633 60.004-24.824-9.332 11.402-8.414Zm0 0"/><path fill="#dce0e4" d="m262.809 50.672 24.824 9.332-22.078 2.094Zm0 0"/><path fill="#fafafa" d="m262.809 50.672 2.746 11.426-13.762-5.352Zm0 0"/><path fill="#40e7f1" d="m171.324 49.633 18.5-.95-17.965 14.965Zm0 0"/><path fill="#b0f3f7" d="m162.75 50.508 8.574-.875.535 14.015Zm0 0"/><path fill="#fdfdfd" d="m191.012 37.125-2.121-3.785 12.66-7.094Zm0 0"/><path fill="#fdfdfe" d="m215.09 19.742-4.047 15.715-9.492-9.21Zm0 0"/><path fill="#201634" d="m384 102.86-45.656 13.386-40.031-43.82ZM312.242 120.707 300.27 94.68l38.074 21.566Zm0 0"/><path fill="#94aeba" d="m300.27 94.68 11.972 26.027-26.879-15.36Zm0 0"/><path fill="#3d3c55" d="m298.313 72.426 1.957 22.254-14.157-9.32Zm0 0"/><path fill="#414059" d="m298.313 72.426-12.2 12.933-13.996-15.601Zm0 0"/><path fill="#201533" d="m298.313 72.426-10.68-12.422 9.23-31.098Zm0 0"/><path fill="#4f596f" d="m287.633 60.004 10.68 12.422-26.196-2.668Zm0 0"/><path fill="#201634" d="m384 247.914-45.14 10.512-1.895-28.961Zm0 0"/><path fill="#201533" d="M338.86 258.426 384 247.914l-38.973 26.606Zm0 0"/><path fill="#e5fbfd" d="m338.86 258.426-8.926-22.094 7.03-6.867Zm0 0"/><path fill="#fefefe" d="m284.703 263.91-.496-10.223 9.938 8.235ZM294.145 261.922l13.503-5.426 1.618 18.402Zm0 0"/><path fill="#e4f3f5" d="m307.648 256.496 14.922 11.477-13.304 6.925Zm0 0"/><path fill="#4a5369" d="m329.934 236.332-9.079 6.328 3.934-11.816Zm0 0"/><path fill="#f4f7f8" d="m298.523 196.957 3.555-14.422 8.688.969Zm0 0"/><path fill="#d8f9fb" d="m336.965 229.465-7.031 6.867-5.145-5.488Zm0 0"/><path fill="#fdfdfd" d="m281.094 192.762-1.59-9.39 15.855-.423Zm0 0"/><path fill="#fbfbfc" d="m279.504 183.371.473-13.594 15.382 13.172Zm0 0"/><path fill="#201533" d="m279.504 183.371 1.59 9.39-29.235 5.747Zm0 0"/><path fill="#1f1735" d="m272.574 177.563 6.93 5.808-27.645 15.137Zm0 0"/><path fill="#221d3b" d="m279.504 183.371-6.93-5.809 7.403-7.785Zm0 0"/><path fill="#1f2743" d="m272.574 177.563 4.324-43.977 3.079 36.191Zm0 0"/><path fill="#fefefe" d="m288.402 130.05-11.504 3.536-3.039-17.871Zm0 0"/><path fill="#201533" d="m260.262 0 36.601 28.906-28.789-2.84Zm0 0"/><path fill="#201634" d="M298.313 72.426 384 0v102.86Zm0 0"/><path fill="#189bad" d="m259.75 88.75 12.566 7.68-14.847 21.886Zm0 0"/><path fill="#167f94" d="M240.602 118.238 259.75 88.75l-2.281 29.566Zm0 0"/><path fill="#148da1" d="m259.75 88.75-19.148 29.488 1.757-27.93Zm0 0"/><path fill="#201533" d="M84.55 111.793 62.646 66.262l34.425 37.027Zm0 0"/><path fill="#201533" d="m100.219 112.285-15.668-.492 12.52-8.504ZM90.46 131.926l-5.91-20.133 15.669.492ZM84.55 111.793l5.91 20.133-44.456.285Zm0 0"/><path fill="#fdfdfe" d="m100.055 133.203-9.594-1.277 9.758-19.64Zm0 0"/><path fill="#f8f8f9" d="m90.46 131.926 9.595 1.277-2.938 10.707Zm0 0"/><path fill="#158095" d="m198.46 149.79 44.606 5.55-22.062 17.18Zm0 0"/><path fill="#1396a9" d="m198.46 149.79 21.325-15.122 23.281 20.672Zm0 0"/><path fill="#167f94" d="m219.785 134.668-21.324 15.121.773-30.441Zm0 0"/><path fill="#98f3f8" d="m216.953 82.578.121 13.45-16.324.964Zm0 0"/><path fill="#24667d" d="m234.2 69.352 13.898 6.578-5.739 14.379Zm0 0"/><path fill="#e3e2e6" d="m127.16 166.344 23.672-23.867 3.695 5.511Zm0 0"/><path fill="#fefefe" d="m151.754 166.586-24.594-.242 27.367-18.356Zm0 0"/><path fill="#231a37" d="m163.523 164.535-8.996-16.547 21.895 14.535Zm0 0"/><path fill="#fefefe" d="m154.527 147.988-3.695-5.511 27.172-6.625Zm0 0"/><path fill="#fbfbfb" d="m176.422 162.523-21.895-14.535 23.477-12.136Zm0 0"/><path fill="#fbfbfc" d="m173.574 267.676-6.566 9.246-13.52-16.402Zm0 0"/><path fill="#201634" d="m167.008 276.922-8.09 9.918-5.43-26.32Zm0 0"/><path fill="#9697a4" d="m176.746 271.52-9.738 5.402 6.566-9.246Zm0 0"/><path fill="#201533" d="M103.145 248.215 79.66 282.082l13.133-44.148ZM158.918 286.84l-13.703-.82 8.273-25.5Zm0 0"/><path fill="#201533" d="m153.488 260.52-8.273 25.5-16.59-9.27Zm0 0"/><path fill="#f8f8f9" d="m136.512 238.8 1.828-14.78 13.547 16.496Zm0 0"/><path fill="#f9f9fa" d="m138.34 224.02 22.613.972-9.066 15.524Zm0 0"/><path fill="#302642" d="m138.34 224.02-1.828 14.78-13.555-6.87Zm0 0"/><path fill="#2e2541" d="m203.367 251.367 23.625-1.097-20.64 6.539Zm0 0"/><path fill="#201533" d="m243.16 299.48 25.586 19.489-32.836 14.668Zm0 0"/><path fill="#211634" d="m222.816 268.848 17.844 6.71-15.09 9.887Zm0 0"/><path fill="#423952" d="m188.855 262.281-12.109 9.239-3.172-3.844Zm0 0"/><path fill="#372d48" d="m188.855 262.281 14.512-10.914 2.985 5.442Zm0 0"/><path fill="#393a54" d="m203.367 251.367-14.512 10.914 3.227-16.84Zm0 0"/><path fill="#fefefe" d="m192.078 268.133-3.223-5.852 17.497-5.472Zm0 0"/><path fill="#fefefe" d="m188.855 262.281 3.223 5.852-15.332 3.387ZM176.746 271.52l15.332-3.387-5.789 15.695Zm0 0"/><path fill="#39304b" d="m153.488 260.52 24.88-6.547-4.794 13.703Zm0 0"/><path fill="#403650" d="m178.367 253.973 10.488 8.308-15.28 5.395Zm0 0"/><path fill="#312843" d="m188.855 262.281-10.488-8.308 13.715-8.532Zm0 0"/><path fill="#cccad1" d="m192.082 245.441-13.715 8.532-26.48-13.457Zm0 0"/><path fill="#aca8b3" d="m178.367 253.973-24.879 6.547-1.601-20.004Zm0 0"/><path fill="#201533" d="M356.64 365.773 384 384l-82.105.016ZM326.25 363.371l30.39 2.402-54.745 18.243Zm0 0"/><path fill="#fbfefe" d="m340.996 325.07 11.824 18.66-11.78-.863Zm0 0"/><path fill="#fefefe" d="m340.996 325.07 23.11 8.758-11.286 9.902ZM306.855 347.73l1.657 17.684-17.45-1.473ZM357.691 298.578l-16.695 26.492 6.383-20.195Zm0 0"/><path fill="#61adba" d="m344.047 292.02 13.644 6.558-10.312 6.297Zm0 0"/><path fill="#fefefe" d="m357.691 298.578 6.414 35.25-23.109-8.758Zm0 0"/><path fill="#201937" d="m357.691 298.578-13.644-6.558 20.75-.567Zm0 0"/><path fill="#201533" d="m364.105 333.828-6.414-35.25 7.106-7.125Zm0 0"/><path fill="#fbfefe" d="m309.266 274.898 19.164 8.235-5.508 14.765Zm0 0"/><path fill="#24b2c1" d="m328.43 283.133 15.617 8.887-21.125 5.878Zm0 0"/><path fill="#c2f7fa" d="m344.047 292.02-15.617-8.887 16.597-8.613Zm0 0"/><path fill="#fcfcfc" d="m294.145 261.922-6.946 21.156-2.496-19.168Zm0 0"/><path fill="#f1fbfc" d="M332.684 306.95 317.23 318.5l5.692-20.602Zm0 0"/><path fill="#22b3c3" d="m344.047 292.02-11.363 14.93-9.762-9.052Zm0 0"/><path fill="#e3fbfd" d="m332.684 306.95 11.363-14.93 3.332 12.855Zm0 0"/><path fill="#dfdee2" d="m186.238 384.008-18.289-49.492 29.617 8.09Zm0 0"/><path fill="#837d8e" d="m167.95 334.516 18.288 49.492-35.328.008Zm0 0"/><path fill="#201533" d="m243.16 299.48-32.305 22.426 14.715-36.46Zm0 0"/><path fill="#fefefe" d="m106.395 131.79-6.34 1.413.164-20.918ZM106.395 131.79l27.171 3.651-24.8 7.34ZM252.848 42.64l-3.407-17.945 12.586 9.344ZM249.441 24.695l3.407 17.946-12.723 1.68Zm0 0"/><path fill="#fcfcfd" d="m212.14 55.27 25.063-5.372-3.004 19.454Zm0 0"/><path fill="#fefefe" d="m212.14 55.27-1.097-19.813 26.16 14.441Zm0 0"/><path fill="#1c4962" d="m212.14 55.27-8.242 12.27-14.074-18.856Zm0 0"/><path fill="#fefefe" d="m211.043 35.457 1.098 19.813-22.317-6.586Zm0 0"/><path fill="#e5e4e7" d="m248.098 75.93 3.695-19.184 10.332 12.961Zm0 0"/><path fill="#636478" d="m251.793 56.746 13.762 5.352-3.43 7.609Zm0 0"/><path fill="#d6f9fc" d="m203.898 67.54-32.039-3.892 17.965-14.964Zm0 0"/><path fill="#effdfe" d="m133.566 135.441 23.516-46.976-12.633 26.117Zm0 0"/><path fill="#201533" d="m151.012 35.477-39.16-.891L149.496 0ZM228.969 22.758l-13.88-3.016 3.981-13.015Zm0 0"/><path fill="#201533" d="M228.969 22.758 219.07 6.727 260.262 0ZM249.441 24.695l-20.472-1.937L260.262 0Zm0 0"/><path fill="#9a95a2" d="m228.969 22.758-17.926 12.699 4.047-15.715Zm0 0"/><path fill="#fefefe" d="m228.969 22.758 20.472 1.937-9.316 19.625Zm0 0"/><path fill="#fefefe" d="m211.043 35.457 17.926-12.7 11.156 21.563Zm0 0"/><path fill="#201533" d="m219.07 6.727-37.836 10.062L149.496 0ZM188.89 33.34l-7.656-16.55 20.317 9.456Zm0 0"/><path fill="#201533" d="m181.234 16.79 33.856 2.952-13.54 6.504ZM181.234 16.79 219.07 6.726l-3.98 13.015Zm0 0"/><path fill="#fefefe" d="m171.324 49.633 19.688-12.508-1.188 11.559Zm0 0"/><path fill="#fafafb" d="m211.043 35.457-20.031 1.668 10.539-10.879Zm0 0"/><path fill="#fefefe" d="m191.012 37.125 20.031-1.668-21.219 13.227Zm0 0"/><path fill="#1f1937" d="m323.242 164.875 31.11 13.844-24.07 10.043Zm0 0"/><path fill="#201633" d="m384 102.86-29.648 75.859-16.008-62.473Zm0 0"/><path fill="#201836" d="m354.352 178.719-31.11-13.844 15.102-48.629Zm0 0"/><path fill="#211634" d="m264.113 276.96 13.43-19.776 7.16 6.726Zm0 0"/><path fill="#251b38" d="m277.543 257.184 6.664-3.497.496 10.223Zm0 0"/><path fill="#fefefe" d="m305.133 231.332-20.926 22.356-3.5-38.34Zm0 0"/><path fill="#b0e1e7" d="m338.86 258.426-18.005-15.766 9.079-6.328Zm0 0"/><path fill="#201533" d="m251.86 198.508 2.898 25.293-30.922-10.567Zm0 0"/><path fill="#201533" d="m254.758 223.8-2.899-25.292 28.848 16.84Zm0 0"/><path fill="#9ecbd3" d="m319.406 189.668-20.883 7.289 12.243-13.453Zm0 0"/><path fill="#29455e" d="m323.242 164.875-3.836 24.793-8.64-6.164Zm0 0"/><path fill="#26455f" d="m319.406 189.668 3.836-24.793 7.04 23.887Zm0 0"/><path fill="#f5f4f6" d="m298.523 196.957-17.43-4.195 14.266-9.813Zm0 0"/><path fill="#35354f" d="m302.078 182.535-3.555 14.422-3.164-14.008Zm0 0"/><path fill="#f7f8f9" d="m281.094 192.762 17.43 4.195-17.817 18.39Zm0 0"/><path fill="#fdfdfd" d="m298.523 196.957-.625 15.488-17.191 2.903Zm0 0"/><path fill="#fdfdfd" d="m297.898 212.445 7.235 18.887-24.426-15.984Zm0 0"/><path fill="#ececef" d="m297.898 212.445 13.754-12.527-6.52 31.414Zm0 0"/><path fill="#b6b7c0" d="m311.652 199.918-13.754 12.527.625-15.488Zm0 0"/><path fill="#11a7b9" d="m243.066 155.34 29.508 22.222-20.715 20.946Zm0 0"/><path fill="#12a1b3" d="m243.066 155.34 8.793 43.168-30.855-25.988Zm0 0"/><path fill="#12a4b6" d="m272.574 177.563-29.508-22.223 33.832-21.754Zm0 0"/><path fill="#5e5f74" d="m301.512 135.79-13.11-5.74 23.84-9.343Zm0 0"/><path fill="#fefefe" d="m276.898 133.586 11.504-3.535-8.425 39.726ZM286.113 85.36l-13.797 11.07-.199-26.672Zm0 0"/><path fill="#302a45" d="m272.316 96.43-10.191-26.723 9.992.05Zm0 0"/><path fill="#201533" d="m60.566 188.496 32.09 5.836-6.691 13.52ZM95.059 153.254l-4.625 13.723-15.579-8.223ZM91.121 146.043l3.938 7.21-20.204 5.5ZM90.46 131.926l.661 14.117-16.266 12.71Zm0 0"/><path fill="#241936" d="m91.121 146.043-.66-14.117 6.656 11.984Zm0 0"/><path fill="#211633" d="m95.059 153.254-3.938-7.211 5.996-2.133Zm0 0"/><path fill="#c8c6ce" d="m100.055 133.203 8.71 9.578-11.648 1.13Zm0 0"/><path fill="#b2b5bf" d="m106.395 131.79 2.37 10.991-8.71-9.578Zm0 0"/><path fill="#f8f8f9" d="m117.574 156.621-27.14 10.356 4.625-13.723Zm0 0"/><path fill="#fefefe" d="m101.77 180.7 15.804-24.079 9.586 9.723Zm0 0"/><path fill="#fefefe" d="m90.434 166.977 27.14-10.356L101.77 180.7Zm0 0"/><path fill="#bdbac3" d="m117.574 156.621 33.258-14.144-23.672 23.867Zm0 0"/><path fill="#fefefe" d="m117.574 156.621-8.808-13.84 24.8-7.34Zm0 0"/><path fill="#c4c2ca" d="m150.832 142.477-33.258 14.144 15.992-21.18Zm0 0"/><path fill="#a2f2f7" d="M216.953 82.578 203.898 67.54l30.301 1.813Zm0 0"/><path fill="#39d4df" d="m203.898 67.54 8.243-12.27 22.058 14.082Zm0 0"/><path fill="#9cf3f8" d="m203.898 67.54 13.055 15.038-16.203 14.414Zm0 0"/><path fill="#858595" d="m251.793 56.746-14.59-6.848 2.922-5.578Zm0 0"/><path fill="#fefefe" d="m234.2 69.352 3.003-19.454 10.895 26.032Zm0 0"/><path fill="#f6f6f7" d="m237.203 49.898 14.59 6.848-3.695 19.184Zm0 0"/><path fill="#a0f2f7" d="m161.598 96.531 39.152.461-1.516 22.356Zm0 0"/><path fill="#1691a4" d="M181.656 130.438 161.598 96.53l37.636 22.817Zm0 0"/><path fill="#63ecf4" d="m161.598 96.531 1.18 27.864-18.329-9.813Zm0 0"/><path fill="#59ebf3" d="m181.656 130.438-18.879-6.043-1.18-27.864Zm0 0"/><path fill="#fefefe" d="m144.45 114.582 18.327 9.813-11.945 18.082ZM150.832 142.477l11.945-18.082 15.227 11.457Zm0 0"/><path fill="#199aac" d="m162.777 124.395 18.88 6.043-3.653 5.414Zm0 0"/><path fill="#201533" d="m132.746 263.125 20.742-2.605-24.863 16.23Zm0 0"/><path fill="#fefefe" d="m150.926 207.246-12.004-6.516 10.062-15.847Zm0 0"/><path fill="#e7e6e9" d="m160.953 224.992-10.027-17.746 27.226-10.148Zm0 0"/><path fill="#fdfdfd" d="m150.926 207.246-1.942-22.363 29.168 12.215Zm0 0"/><path fill="#f8f7f8" d="m138.34 224.02 12.586-16.774 10.027 17.746Zm0 0"/><path fill="#fcfcfd" d="m148.984 184.883-15.07 1.285-6.754-19.824Zm0 0"/><path fill="#fefefe" d="m138.922 200.73-5.008-14.562 15.07-1.285Zm0 0"/><path fill="#fcfcfc" d="m112.703 230.57-1.598 5.403-5.265-4.555Zm0 0"/><path fill="#2b213d" d="m136.512 238.8-17.403.286 3.848-7.156Zm0 0"/><path fill="#ecebee" d="m119.11 239.086-6.407-8.516 10.254 1.36Zm0 0"/><path fill="#e3e2e6" d="m112.703 230.57 6.406 8.516-8.004-3.113Zm0 0"/><path fill="#fefefe" d="m132.746 263.125-20.14-8.145 17.605-4.617Zm0 0"/><path fill="#201533" d="m112.605 254.98 20.141 8.145-4.121 13.625Zm0 0"/><path fill="#201533" d="m112.605 254.98 16.02 21.77-48.965 5.332ZM103.145 248.215l9.46 6.765-32.945 27.102ZM110.496 246.14l2.11 8.84-9.461-6.765Zm0 0"/><path fill="#fefefe" d="m112.605 254.98-2.109-8.84 19.715 4.223Zm0 0"/><path fill="#201533" d="M97.973 217.336 60.348 230.71l25.617-22.86Zm0 0"/><path fill="#201533" d="m92.793 237.934-32.445-7.223 37.625-13.375Zm0 0"/><path fill="#e6e8eb" d="m132.746 263.125-2.535-12.762 23.277 10.157Zm0 0"/><path fill="#2d233f" d="m201.39 220.781-23.238-23.683 25.305-.676Zm0 0"/><path fill="#5e566c" d="m201.39 220.781-40.437 4.211 17.2-27.894Zm0 0"/><path fill="#908a99" d="m201.39 220.781-9.308 24.66-31.129-20.449Zm0 0"/><path fill="#201633" d="m224.336 225.828-.5-12.594 16.285 19.36Zm0 0"/><path fill="#fefefe" d="m226.992 250.27-5.812 12.351-14.828-5.812Zm0 0"/><path fill="#45465e" d="m204.227 276.508 18.59-7.66 2.753 16.597Zm0 0"/><path fill="#615a6f" d="m210.855 321.906-6.628-45.398 21.343 8.937Zm0 0"/><path fill="#517e91" d="m317.23 318.5-7.964-43.602 13.656 23Zm0 0"/><path fill="#201533" d="m287.2 283.078 4.952 39.313-23.406-3.422Zm0 0"/><path fill="#201533" d="m292.152 322.39-2.547 14.438-20.859-17.86Zm0 0"/><path fill="#4f4961" d="m292.152 322.39 9.473 4.32-12.02 10.118Zm0 0"/><path fill="#fefefe" d="m192.078 268.133 11.106 4.472-16.895 11.223Zm0 0"/><path fill="#99a3af" d="m203.184 272.605 1.043 3.903-17.938 7.32Zm0 0"/><path fill="#dbd9de" d="m204.227 276.508-1.043-3.903 19.632-3.757Zm0 0"/><path fill="#fefefe" d="m203.184 272.605 17.996-9.984 1.636 6.227Zm0 0"/><path fill="#fff" d="m203.184 272.605-11.106-4.472 14.274-11.324Zm0 0"/><path fill="#fff" d="m221.18 262.621-17.996 9.984 3.168-15.796Zm0 0"/><path fill="#211836" d="m341.04 342.867-14.79 20.504.719-19.426Zm0 0"/><path fill="#29d5e1" d="m321.5 334.332 19.54 8.535-14.071 1.078Zm0 0"/><path fill="#1be5f1" d="m341.04 342.867-19.54-8.535 19.496-9.262Zm0 0"/><path fill="#201533" d="m356.64 365.773-11.808-14.628 7.988-7.415Zm0 0"/><path fill="#201634" d="m326.25 363.371 18.582-12.226 11.809 14.628Zm0 0"/><path fill="#211634" d="m352.82 343.73-7.988 7.415-3.793-8.278Zm0 0"/><path fill="#201634" d="m341.04 342.867 3.792 8.278-18.582 12.226Zm0 0"/><path fill="#201533" d="M301.895 384.016 269.12 352.05l21.942 11.89Zm0 0"/><path fill="#9aacb8" d="m326.25 363.371-5.809-15.172 6.528-4.254Zm0 0"/><path fill="#64bdc9" d="m320.441 348.2 1.059-13.868 5.469 9.613Zm0 0"/><path fill="#fbfefe" d="m320.441 348.2-13.586-.47 14.645-13.398Zm0 0"/><path fill="#fefefe" d="m306.855 347.73 13.586.47-11.93 17.214Zm0 0"/><path fill="#fcfefe" d="m320.441 348.2 5.809 15.171-17.738 2.043Zm0 0"/><path fill="#fefefe" d="m306.855 347.73-8.007-7.574 22.652-5.824Zm0 0"/><path fill="#fcfefe" d="m298.848 340.156 2.777-13.445 19.875 7.621Zm0 0"/><path fill="#f9fbfb" d="m301.625 326.71-2.777 13.446-9.243-3.328Zm0 0"/><path fill="#f6f6f7" d="m289.605 336.828 9.243 3.328-7.786 23.785Zm0 0"/><path fill="#fefefe" d="m298.848 340.156 8.007 7.574-15.793 16.211Zm0 0"/><path fill="#c2f5f8" d="m345.027 274.52-16.597 8.613 10.43-24.707Zm0 0"/><path fill="#40697e" d="m328.43 283.133-5.86-15.16 16.29-9.547Zm0 0"/><path fill="#fafefe" d="m322.57 267.973 5.86 15.16-19.164-8.235Zm0 0"/><path fill="#c0bec6" d="m294.145 261.922 9.39 15.945-16.336 5.211Zm0 0"/><path fill="#201533" d="m125.371 302.031 3.215 22.29-31.297 10.847ZM125.371 302.031l3.254-25.281 16.59 9.27Zm0 0"/><path fill="#201533" d="m125.371 302.031-45.71-19.949 48.964-5.332ZM79.66 282.082l45.711 19.95-28.082 33.136Zm0 0"/><path fill="#fefefe" d="m167.008 276.922 7.008 13.246-15.098-3.328Zm0 0"/><path fill="#fefefe" d="m174.016 290.168 2.73-18.648 9.543 12.308Zm0 0"/><path fill="#fefefe" d="m174.016 290.168-7.008-13.246 9.738-5.402ZM151.059 297.488l8.933-2.273.63 5.758Zm0 0"/><path fill="#bebbc3" d="m186.29 283.828 17.937-7.32 6.628 45.398Zm0 0"/><path fill="#f3f2f4" d="m197.566 342.605 13.29-20.699 11.585 15.047Zm0 0"/><path fill="#fefefe" d="m262.809 50.672-9.961-8.031 9.18-8.602Zm0 0"/><path fill="#fafafb" d="m252.848 42.64 9.96 8.032-11.015 6.074Zm0 0"/><path fill="#faf9fa" d="m240.125 44.32 12.723-1.68-1.055 14.106Zm0 0"/><path fill="#c2f8fb" d="m203.898 67.54-46.816 20.925 14.777-24.817Zm0 0"/><path fill="#201533" d="m111.852 34.586 16.804 25.555-19.691 3.668Zm0 0"/><path fill="#b8b5be" d="m211.043 35.457 29.082 8.863-2.922 5.578Zm0 0"/><path fill="#211a37" d="m191.012 37.125-22.809 5.855 20.688-9.64Zm0 0"/><path fill="#201533" d="m181.234 16.79-13.03 26.19-17.192-7.503Zm0 0"/><path fill="#201533" d="m168.203 42.98 13.031-26.19 7.657 16.55Zm0 0"/><path fill="#fefefe" d="m168.203 42.98 22.809-5.855-19.688 12.508Zm0 0"/><path fill="#201533" d="m168.203 42.98-5.453 7.528-11.738-15.031Zm0 0"/><path fill="#211937" d="m162.75 50.508 5.453-7.528 3.121 6.653Zm0 0"/><path fill="#fbfbfc" d="m294.145 261.922-9.938-8.235 20.926-22.355Zm0 0"/><path fill="#f2f3f5" d="m307.648 256.496-13.503 5.426 10.988-30.59Zm0 0"/><path fill="#fefefe" d="m316.828 231.246-9.18 25.25-2.515-25.164Zm0 0"/><path fill="#3e3953" d="m316.828 231.246-5.176-31.328 13.137 30.926Zm0 0"/><path fill="#fdfefe" d="m311.652 199.918 5.176 31.328-11.695.086Zm0 0"/><path fill="#50546a" d="m320.855 242.66-4.027-11.414 7.961-.402Zm0 0"/><path fill="#fcfefe" d="m307.648 256.496 9.18-25.25 4.027 11.414Zm0 0"/><path fill="#fefefe" d="m322.57 267.973-14.922-11.477 13.207-13.836Zm0 0"/><path fill="#8398a7" d="m338.86 258.426-16.29 9.547-1.715-25.313Zm0 0"/><path fill="#201533" d="m284.207 253.688-8.977-10.797 5.477-27.543Zm0 0"/><path fill="#bcb9c2" d="m275.23 242.89 8.977 10.798-6.664 3.496Zm0 0"/><path fill="#335068" d="m336.965 229.465-17.559-39.797 10.875-.906Zm0 0"/><path fill="#e6f5f7" d="m319.406 189.668 17.559 39.797-12.176 1.379Zm0 0"/><path fill="#2f2d48" d="m311.652 199.918 7.754-10.25 5.383 41.176Zm0 0"/><path fill="#cfe8ec" d="m319.406 189.668-7.754 10.25-13.129-2.961Zm0 0"/><path fill="#f0f0f2" d="m288.402 130.05 5.813 24.876-14.238 14.851Zm0 0"/><path fill="#313f58" d="m294.215 154.926-5.813-24.875 13.11 5.738Zm0 0"/><path fill="#7e7a8b" d="m294.215 154.926 7.297-19.137.566 46.746Zm0 0"/><path fill="#39344e" d="m294.215 154.926 7.863 27.61-6.719.413Zm0 0"/><path fill="#f8f8f9" d="m279.977 169.777 14.238-14.851 1.144 28.023Zm0 0"/><path fill="#f3f5f7" d="m259.75 88.75-11.652-12.82 14.027-6.223Zm0 0"/><path fill="#caccd3" d="m272.316 96.43-12.566-7.68 2.375-19.043Zm0 0"/><path fill="#167c91" d="m248.098 75.93 11.652 12.82-17.39 1.559Zm0 0"/><path fill="#221735" d="m95.059 153.254 13.707-10.473 8.808 13.84Zm0 0"/><path fill="#fdfdfd" d="m108.766 142.781-13.707 10.473 2.058-9.344ZM90.285 183.805l6.977 8.824-4.606 1.703Zm0 0"/><path fill="#201533" d="m90.285 183.805 2.371 10.527-32.09-5.836Zm0 0"/><path fill="#fefefe" d="m90.285 183.805.149-16.828 11.336 13.722Zm0 0"/><path fill="#fefefe" d="m97.262 192.629-6.977-8.824 11.485-3.106Zm0 0"/><path fill="#201533" d="m90.285 183.805-29.719 4.691 14.29-29.742Zm0 0"/><path fill="#211633" d="m90.434 166.977-.149 16.828-15.43-25.051Zm0 0"/><path fill="#fefefe" d="m104.32 215.29 1.52 16.128-7.867-14.082Zm0 0"/><path fill="#201533" d="m105.84 231.418-13.047 6.516 5.18-20.598Zm0 0"/><path fill="#fbfbfc" d="m112.703 230.57-6.863.848-1.52-16.129Zm0 0"/><path fill="#fefefe" d="m97.328 207.883 6.992 7.406-6.347 2.047ZM97.262 192.629l.066 15.254-4.672-13.551Zm0 0"/><path fill="#201533" d="m97.328 207.883-11.363-.031 6.691-13.52Zm0 0"/><path fill="#211633" d="m97.328 207.883.645 9.453-12.008-9.484Zm0 0"/><path fill="#fefefe" d="m138.922 200.73 12.004 6.516-12.586 16.774Zm0 0"/><path fill="#b5b2bc" d="m133.914 186.168-27.336 9.691 20.582-29.515Zm0 0"/><path fill="#fefefe" d="m127.16 166.344-20.582 29.515-4.808-15.16ZM106.578 195.86l-9.316-3.231 4.508-11.93Zm0 0"/><path fill="#fdfdfd" d="m111.105 235.973-4.793 2.578-.472-7.133Zm0 0"/><path fill="#fefefe" d="m110.496 246.14-4.183-7.59 4.792-2.577Zm0 0"/><path fill="#201533" d="m106.313 238.55 4.183 7.59-7.351 2.075ZM106.313 238.55l-13.52-.616 13.047-6.516Zm0 0"/><path fill="#201533" d="m92.793 237.934 13.52.617-3.168 9.664Zm0 0"/><path fill="#201634" d="m151.059 297.488-5.844-11.468 13.703.82Zm0 0"/><path fill="#e2e1e5" d="m130.21 250.363-11.1-11.277 17.402-.285Zm0 0"/><path fill="#fefefe" d="m110.496 246.14 8.613-7.054 11.102 11.277Zm0 0"/><path fill="#fefefe" d="m119.11 239.086-8.614 7.055.61-10.168Zm0 0"/><path fill="#d4d2d7" d="m142.652 246.043-12.441 4.32 6.3-11.562Zm0 0"/><path fill="#eaeaed" d="m153.488 260.52-10.836-14.477 9.235-5.527Zm0 0"/><path fill="#f9f9f9" d="m142.652 246.043-6.14-7.242 15.375 1.715Zm0 0"/><path fill="#e0ebee" d="m130.21 250.363 12.442-4.32 10.836 14.477Zm0 0"/><path fill="#312743" d="m223.836 213.234-22.445 7.547 2.066-24.36Zm0 0"/><path fill="#494058" d="m226.992 250.27-2.656-24.442 15.785 6.766Zm0 0"/><path fill="#fefefe" d="m236.809 262.246-15.63.375 5.813-12.351ZM221.18 262.621l15.629-.375-13.993 6.602Zm0 0"/><path fill="#211734" d="m236.809 262.246 3.851 13.313-17.844-6.711Zm0 0"/><path fill="#fefefe" d="m292.152 322.39 11.383-44.523-1.91 48.844Zm0 0"/><path fill="#eef1f3" d="m303.535 277.867-11.383 44.524-4.953-39.313Zm0 0"/><path fill="#201533" d="m269.121 352.05 20.484-15.222 1.457 27.113Zm0 0"/><path fill="#201633" d="m268.746 318.969.375 33.082-33.21-18.414Zm0 0"/><path fill="#201533" d="m289.605 336.828-20.484 15.223-.375-33.082Zm0 0"/><path fill="#22e2ed" d="m340.996 325.07-23.766-6.57 15.454-11.55Zm0 0"/><path fill="#fefefe" d="m309.266 274.898-5.73 2.97-9.391-15.946Zm0 0"/><path fill="#fdfefe" d="m140.234 347.5 10.676 36.516-29.805-.008Zm0 0"/><path fill="#fdfdfe" d="M150.91 384.016 140.234 347.5l27.715-12.984Zm0 0"/><path fill="#201533" d="m132.73 344.96-11.625 39.048-23.816-48.84Zm0 0"/><path fill="#d7d5da" d="m132.73 344.96 7.504 2.54-19.129 36.508Zm0 0"/><path fill="#201533" d="m128.586 324.32 4.144 20.64-35.44-9.792Zm0 0"/><path fill="#201633" d="m145.215 286.02 5.844 11.468-25.688 4.543Zm0 0"/><path fill="#201533" d="m125.371 302.031 21.969 12.196-18.754 10.093Zm0 0"/><path fill="#e1dfe3" d="m167.95 334.516-20.61-20.29 13.281-13.253Zm0 0"/><path fill="#fefefe" d="m147.34 314.227 3.719-16.739 9.562 3.485Zm0 0"/><path fill="#201533" d="m151.059 297.488-3.72 16.739-21.968-12.196Zm0 0"/><path fill="#b3f6fa" d="m161.598 96.531 42.3-28.992-3.148 29.453Zm0 0"/><path fill="#b5f7fb" d="m161.598 96.531-4.516-8.066 46.816-20.926Zm0 0"/><path fill="#e3fbfd" d="m157.082 88.465 4.516 8.066-17.149 18.051Zm0 0"/><path fill="#201533" d="m128.656 60.14-16.804-25.554 39.16.89Zm0 0"/><path fill="#fefefe" d="m174.016 290.168-14.024 5.047-1.074-8.375Zm0 0"/><path fill="#fefefe" d="m159.992 295.215-8.933 2.273 7.859-10.648Zm0 0"/><path fill="#231835" d="m223.836 213.234-10.11 19.84-12.335-12.293Zm0 0"/><path fill="#221835" d="m213.727 233.074-10.36 18.293-11.285-5.926Zm0 0"/><path fill="#6a6377" d="m201.39 220.781 12.337 12.293-21.645 12.367Zm0 0"/><path fill="#221735" d="m224.336 225.828-10.61 7.246 10.11-19.84Zm0 0"/><path fill="#fdfefe" d="m317.23 318.5-13.695-40.633 5.73-2.969Zm0 0"/><path fill="#fefefe" d="M303.535 277.867 317.23 318.5l-15.605 8.21Zm0 0"/><path fill="#5a5369" d="m269.121 352.05 32.774 31.966-65.985-50.38Zm0 0"/><path fill="#584f66" d="m301.895 384.016-70.118-16.371 4.133-34.008Zm0 0"/><path fill="#1fe5f0" d="m321.5 334.332-4.27-15.832 23.766 6.57Zm0 0"/><path fill="#bef8fb" d="m301.625 326.71 15.605-8.21 4.27 15.832Zm0 0"/><path fill="#201735" d="M147.34 314.227 139.074 331l-10.488-6.68Zm0 0"/><path fill="#f0eff1" d="m139.074 331 8.266-16.773 20.61 20.289Zm0 0"/><path fill="#201634" d="m139.074 331-6.344 13.96-4.144-20.64Zm0 0"/><path fill="#bebbc4" d="m139.074 331 28.875 3.516-27.715 12.984Zm0 0"/><path fill="#e0dfe3" d="m132.73 344.96 6.344-13.96 1.16 16.5Zm0 0"/><path fill="#fefefe" d="m159.992 295.215 14.024-5.047-13.395 10.805Zm0 0"/><path fill="#201533" d="m154.02 52.75-3.008-17.273 11.738 15.03Zm0 0"/><path fill="#201533" d="m154.02 52.75-25.364 7.39 22.356-24.663Zm0 0"/><path fill="#d5f9fb" d="m154.02 52.75 8.73-2.242 9.11 13.14Zm0 0"/><path fill="#d5fafc" d="M157.082 88.465 154.02 52.75l17.84 10.898Zm0 0"/><path fill="#e6fcfd" d="m106.734 86.137 10.383-12.496 1.656 27.105Zm0 0"/><path fill="#201533" d="m117.117 73.64-10.383 12.497 2.23-22.328Zm0 0"/><path fill="#201735" d="m128.656 60.14-11.539 13.5-8.152-9.831Zm0 0"/><path fill="#211735" d="m252.555 244.207-25.563 6.063 13.13-17.676Zm0 0"/><path fill="#fefefe" d="m226.992 250.27 25.563-6.063-15.746 18.04Zm0 0"/><path fill="#201533" d="m252.555 244.207 2.203-20.406 20.472 19.09ZM275.23 242.89l-20.472-19.09 25.949-8.452Zm0 0"/><path fill="#dbd9de" d="m261.281 256.734 13.95-13.843 2.312 14.293Zm0 0"/><path fill="#e5e4e7" d="m261.281 256.734-8.726-12.527 22.675-1.316Zm0 0"/><path fill="#201533" d="m261.281 256.734 16.262.45-13.43 19.777Zm0 0"/><path fill="#fefefe" d="m106.578 195.86-9.25 12.023-.066-15.254Zm0 0"/><path fill="#2b213d" d="m213.727 233.074 13.265 17.196-23.625 1.097Zm0 0"/><path fill="#fefefe" d="m226.992 250.27-13.265-17.196 10.609-7.246Zm0 0"/><path fill="#ebeaed" d="m174.016 290.168-6.067 44.348-7.328-33.543Zm0 0"/><path fill="#e2fcfd" d="m130.93 77.871 26.152 10.594-23.516 46.976Zm0 0"/><path fill="#e6fcfd" d="m130.93 77.871 23.09-25.121 3.062 35.715Zm0 0"/><path fill="#e9fcfd" d="m154.02 52.75-23.09 25.121-2.274-17.73Zm0 0"/><path fill="#201533" d="m240.121 232.594 14.637-8.793-2.203 20.406Zm0 0"/><path fill="#201533" d="m254.758 223.8-14.637 8.794-16.285-19.36Zm0 0"/><path fill="#f6f5f6" d="m261.281 256.734-10.383 2.7 1.657-15.227Zm0 0"/><path fill="#fdfefe" d="m252.555 244.207-1.657 15.227-14.09 2.812Zm0 0"/><path fill="#211634" d="m236.809 262.246 14.09-2.812-10.239 16.125Zm0 0"/><path fill="#201533" d="m250.898 259.434 13.215 17.527-23.453-1.402Zm0 0"/><path fill="#201634" d="m250.898 259.434 10.383-2.7 2.832 20.227Zm0 0"/><path fill="#fefefe" d="m97.328 207.883 18.563-1.278-11.57 8.684Zm0 0"/><path fill="#fefefe" d="m106.578 195.86 9.313 10.745-18.563 1.278Zm0 0"/><path fill="#edfcfd" d="m130.93 77.871 2.636 57.57-14.793-34.695Zm0 0"/><path fill="#ecfdfd" d="m117.117 73.64 13.813 4.231-12.157 22.875Zm0 0"/><path fill="#eafcfd" d="m130.93 77.871-13.813-4.23 11.54-13.5Zm0 0"/><path fill="#2f2541" d="m119.055 220.36-6.352 10.21-8.383-15.28Zm0 0"/><path fill="#fdfdfd" d="m115.89 206.605 3.165 13.754-14.735-5.07Zm0 0"/><path fill="#382e49" d="m112.703 230.57 6.352-10.21 3.902 11.57Zm0 0"/><path fill="#211634" d="m119.055 220.36 19.285 3.66-15.383 7.91Zm0 0"/><path fill="#f9f9fa" d="m132.953 198.004.961-11.836 5.008 14.562Zm0 0"/><path fill="#7f798a" d="m132.953 198.004-26.375-2.145 27.336-9.691Zm0 0"/><path fill="#483f58" d="m130.434 208.863 2.52-10.86 5.968 2.727Zm0 0"/><path fill="#eae9ec" d="m130.434 208.863 8.488-8.133-.582 23.29Zm0 0"/><path fill="#e8e7ea" d="m119.055 220.36 11.379-11.497 7.906 15.157Zm0 0"/><path fill="#847e8e" d="m130.434 208.863-11.38 11.496-3.163-13.754Zm0 0"/><path fill="#d5d3d9" d="m197.566 342.605-11.277-58.777 24.566 38.078Zm0 0"/><path fill="#f7f7f8" d="m197.566 342.605-23.55-52.437 12.273-6.34Zm0 0"/><path fill="#eae9eb" d="m197.566 342.605-29.617-8.09 6.067-44.347Zm0 0"/><path fill="#281d3a" d="m132.953 198.004-2.52 10.86-14.542-2.259Zm0 0"/><path fill="#271c39" d="m132.953 198.004-17.062 8.601-9.313-10.746Zm0 0"/></svg>