<svg xmlns="http://www.w3.org/2000/svg" width="512" height="512" viewBox="0 0 384 384"><path fill="#4a2d2b" d="m30.793 291.137 20.871 4.34-13.816 36.41Zm0 0"/><path fill="#4a3000" d="m78.492 319.316-26.828-23.84 29.035 2.946Zm0 0"/><path fill="#4a3004" d="m33.262 123.59 12.687 51.527L0 177.766Zm0 0"/><path fill="#4a3000" d="M44.992 39.75 73.032 0l22.843 44.41Zm0 0"/><path fill="#f6c5b4" d="m177.496 198.387 15.684-20.867-12.793 21.27Zm0 0"/><path fill="#f6c5b4" d="m177.496 198.387-.66-21.774 16.344.907Zm0 0"/><path fill="#9d9661" d="m384 281.293.027 17.418-15.593-12.176Zm0 0"/><path fill="#4a3100" d="M246.21 31.406 175.669 0h120.55Zm0 0"/><path fill="#4a2d2b" d="m-.012 267.512 30.805 23.625L0 313.59Zm0 0"/><path fill="#4a2d2b" d="M30.793 291.137-.012 267.512l69.961-22.88ZM51.664 295.477l-20.871-4.34 39.156-46.504Zm0 0"/><path fill="#4a3000" d="m79.86 282.098 17.144-13-1.488 23.593Zm0 0"/><path fill="#493000" d="m63.648 384-63.632.004L44.62 351.32Zm0 0"/><path fill="#4a3000" d="M77.691 364.34 118.617 384H63.648Zm0 0"/><path fill="#4a3002" d="m78.492 319.316-23.914 21.758-16.73-9.187Zm0 0"/><path fill="#9d7944" d="m54.578 341.074 23.914-21.758 5.106 10.207Zm0 0"/><path fill="#4a3001" d="m51.664 295.477 26.828 23.84-40.644 12.57Zm0 0"/><path fill="#9c440c" d="m87.098 345.055-32.52-3.98 29.02-11.552Zm0 0"/><path fill="#4a3000" d="m77.691 364.34 9.407-19.285 13.28 10.07ZM59.309 162.758l13.437 15.426-26.797-3.067Zm0 0"/><path fill="#4a3000" d="m59.309 162.758-13.36 12.36-12.687-51.528Zm0 0"/><path fill="#493000" d="M44.992 39.75 0 0h73.031Zm0 0"/><path fill="#493000" d="M0 75.852V0l44.992 39.75Zm0 0"/><path fill="#4a3100" d="m95.875 44.41 64.191.828-22.105 42.578Zm0 0"/><path fill="#4a3000" d="M160.066 45.238 175.668 0l15.656 38.516ZM170.574 100.23l5.805 26.457-18.336-23.07Zm0 0"/><path fill="#493000" d="m361.316 0-8.378 18.715L340.278.02Zm0 0"/><path fill="#4a2d2b" d="m384 242.75-25.29-28.93 25.204-6.433Zm0 0"/><path fill="#4a2d2b" d="M358.71 213.82 384 242.75l-33.426.246ZM307.625 172.148l10.156 34.532-23.203-27.801Zm0 0"/><path fill="#4a3100" d="M246.21 31.406 296.22 0 280.82 41.176Zm0 0"/><path fill="#4a3000" d="M306.895 21.668 280.82 41.176 296.22 0ZM175.668 0l18.789 37.148-3.133 1.368Zm0 0"/><path fill="#4a3100" d="m246.21 31.406-51.753 5.742L175.668 0Zm0 0"/><path fill="#4a3000" d="m194.457 37.148-1.426 2.907-1.707-1.54Zm0 0"/><path fill="#f6c5b4" d="m170.574 100.23 9.172-9.996 3.3 15.555Zm0 0"/><path fill="#4a3000" d="m79.86 282.098-28.196 13.379 18.285-50.844Zm0 0"/><path fill="#4a3000" d="m51.664 295.477 28.195-13.38.84 16.325ZM118.617 384l46.535-27.437 24.676 27.433ZM54.578 341.074l23.113 23.266-33.07-13.02Zm0 0"/><path fill="#4a3000" d="M77.691 364.34 63.648 384l-19.027-32.68Zm0 0"/><path fill="#9c3c03" d="M87.098 345.055 77.69 364.34l-23.113-23.266Zm0 0"/><path fill="#4a2d2b" d="m54.578 341.074-9.957 10.246-6.773-19.433Zm0 0"/><path fill="#492d2b" d="m37.848 331.887 6.773 19.433L.016 384.004Zm0 0"/><path fill="#4a2d2b" d="m0 313.59 37.848 18.297L.016 384.004Zm0 0"/><path fill="#4a2d2b" d="m0 313.59 30.793-22.453 7.055 40.75Zm0 0"/><path fill="#9c531b" d="m87.098 345.055-3.5-15.532 17.726 4.512Zm0 0"/><path fill="#4a3003" d="M0 177.766V75.852l33.262 47.738Zm0 0"/><path fill="#4a3000" d="m52.934 78.684 11.027 33.23-30.7 11.676Zm0 0"/><path fill="#4a3000" d="m63.96 111.914-11.026-33.23L92.3 87.566ZM117.727 120.902l-53.766-8.988L92.3 87.566ZM72.746 178.184l-2.797 66.449-24-69.516Zm0 0"/><path fill="#4a3000" d="m83.555 187.723-13.606 56.91 2.797-66.45Zm0 0"/><path fill="#4a3004" d="m0 177.766 69.95 66.867-69.962 22.879Zm0 0"/><path fill="#4a3003" d="M69.95 244.633 0 177.766l45.95-2.649Zm0 0"/><path fill="#4a3000" d="M52.934 78.684 0 75.852 44.992 39.75Zm0 0"/><path fill="#f6c5b4" d="M193.031 40.055 181.344 54.03l9.98-15.515Zm0 0"/><path fill="#4a3100" d="m181.344 54.031-21.278-8.793 31.258-6.722Zm0 0"/><path fill="#4a3000" d="m175.668 0-15.602 45.238-64.191-.828Zm0 0"/><path fill="#4a3100" d="M73.031 0h102.637L95.875 44.41Zm0 0"/><path fill="#4a3000" d="m176.379 126.688-41.477 12.57 23.141-35.64Zm0 0"/><path fill="#4a3100" d="m134.902 139.258 3.059-51.442 20.082 15.801Zm0 0"/><path fill="#493000" d="m294.797 318.734 28.539 23.996-32.734-.414Zm0 0"/><path fill="#4a3000" d="m323.336 342.73-28.54-23.996 18.833-9.23Zm0 0"/><path fill="#f6c5b4" d="m120.094 243.34 5.617-8.047 4.652 7.957Zm0 0"/><path fill="#4b2e2b" d="m87.504 193.988 14.332 46.575-31.887 4.07Zm0 0"/><path fill="#4a2d2b" d="m133.96 197.898 19.118 1.223-7.05 19.594ZM168.625 222.941l-15.547-23.82 24.418-.734Zm0 0"/><path fill="#4a2d2b" d="m153.078 199.121 15.547 23.82-22.598-4.226Zm0 0"/><path fill="#4a2d2c" d="m253.047 171.762-20.531-6.5 5.203-23.801ZM232.516 165.262l20.53 6.5-30.085 11.992Zm0 0"/><path fill="#4a2d2b" d="m346.855 152.031-12.527 18.024-2.492-14.028Zm0 0"/><path fill="#4a2d2c" d="m292.91 163.059-25.09-9.961 14.442-5.059Zm0 0"/><path fill="#4a2d2c" d="m267.82 153.098 25.09 9.96-30.672 3.551ZM307.625 172.148l-11.094-13.246 16.578.43Zm0 0"/><path fill="#f6c5b4" d="m296.531 158.902-3.62 4.157-10.65-15.02Zm0 0"/><path fill="#4a2d2c" d="m292.91 163.059 3.621-4.157 11.094 13.246Zm0 0"/><path fill="#4a3000" d="M340.594 355.379 384 384h-72.781Zm0 0"/><path fill="#4a2d2b" d="m384 242.75-17.3 29.246-16.126-29ZM366.7 271.996 384 242.75v38.543Zm0 0"/><path fill="#4a3000" d="m361.574 287.379 5.125-15.383 1.735 14.54ZM366.7 271.996l17.3 9.297-15.566 5.242Zm0 0"/><path fill="#aeb487" d="m332.523 195.781-2.367-.066 4.172-25.66Zm0 0"/><path fill="#4a2d2b" d="m265.027 302.8-25.757-32.706 23.195-14.012Zm0 0"/><path fill="#4a2d2b" d="m239.27 270.094-9.649-48.012 32.844 34Zm0 0"/><path fill="#9eb380" d="m311.242 82.973 4.055-22.157 38.2 14.79Zm0 0"/><path fill="#4a3000" d="m315.297 60.816-8.402-39.148 23.726 4.27Zm0 0"/><path fill="#9db380" d="m339.14 50.426-23.843 10.39 15.324-34.878Zm0 0"/><path fill="#4a3000" d="m224.395 57.379-29.938-20.23 51.754-5.743Zm0 0"/><path fill="#4a2d2c" d="m179.746 90.234 21.258 11.645-17.957 3.91Zm0 0"/><path fill="#4a2d2b" d="m201.004 101.879 30.918-19.297-14.75 37.488Zm0 0"/><path fill="#4a2d2c" d="m201.004 101.879-13.668 30.516-4.29-26.606ZM187.336 132.395l13.668-30.516 16.168 18.191Zm0 0"/><path fill="#4a3000" d="M128.133 358.133 118.617 384l-.21-25.066Zm0 0"/><path fill="#4a3000" d="m128.133 358.133 37.02-1.57L118.616 384Zm0 0"/><path fill="#4a3000" d="M100.379 355.125 118.617 384l-40.926-19.66Zm0 0"/><path fill="#4a3000" d="m118.617 384-18.238-28.875 18.027 3.809ZM100.379 355.125l19.203-3.059-1.176 6.868Zm0 0"/><path fill="#4a3001" d="m89.664 304.355-11.172 14.961 2.207-20.894Zm0 0"/><path fill="#4a3000" d="m79.86 282.098 15.656 10.593-14.817 5.73Zm0 0"/><path fill="#4a3000" d="m95.516 292.691-5.852 11.664-8.965-5.933Zm0 0"/><path fill="#9da672" d="m89.664 304.355 5.852-11.664 8.12 9.895Zm0 0"/><path fill="#4a3000" d="m0 75.852 52.934 2.832-19.672 44.906Zm0 0"/><path fill="#f6c5b4" d="m74.648 125.305-10.687-13.39 53.766 8.987Zm0 0"/><path fill="#4a2d2c" d="m83.555 187.723 50.406 10.175-46.457-3.91Zm0 0"/><path fill="#f6c5b4" d="m83.555 187.723 3.949 6.265-17.555 50.645Zm0 0"/><path fill="#4a3100" d="m160.066 45.238 6.942 41.899-29.047.68Zm0 0"/><path fill="#4a3000" d="m181.344 54.031-14.336 33.106-6.942-41.899Zm0 0"/><path fill="#f6c5b4" d="m167.008 87.137 14.336-33.106.953 18.985Zm0 0"/><path fill="#4a3000" d="m137.96 87.816 29.048-.68-8.965 16.481Zm0 0"/><path fill="#493000" d="m167.008 87.137 3.566 13.093-12.531 3.387Zm0 0"/><path fill="#f6c5b5" d="m179.746 90.234-12.738-3.097 15.289-14.121Zm0 0"/><path fill="#f6c5b4" d="m167.008 87.137 12.738 3.097-9.172 9.996ZM179.14 140.95l-2.761-14.262 10.957 5.707Zm0 0"/><path fill="#f6c5b4" d="m187.336 132.395-10.957-5.708 6.668-20.898Zm0 0"/><path fill="#f6c5b4" d="m176.379 126.688-5.805-26.458 12.473 5.56Zm0 0"/><path fill="#4a3100" d="m92.3 87.566 3.575-43.156 42.086 43.406Zm0 0"/><path fill="#4a3000" d="m95.875 44.41-3.574 43.156-39.367-8.882Zm0 0"/><path fill="#493000" d="m134.902 139.258-17.175-18.356 20.234-33.086Zm0 0"/><path fill="#4a3000" d="M117.727 120.902 92.3 87.566l45.66.25Zm0 0"/><path fill="#4a2d2c" d="m118.867 152.89-1.14-31.988 17.175 18.356ZM96.867 149.918l20.86-29.016 1.14 31.989Zm0 0"/><path fill="#4a2d2b" d="m292.91 163.059 1.668 15.82-32.34-12.27Zm0 0"/><path fill="#4a2d2c" d="m294.578 178.879-1.668-15.82 14.715 9.09Zm0 0"/><path fill="#4a2d2b" d="m294.578 178.879-41.531-7.117 9.191-5.153Zm0 0"/><path fill="#4a3000" d="m253.047 171.762 41.531 7.117-18.941 45.277Zm0 0"/><path fill="#4a2d2b" d="m168.625 222.941-13.602 12.97-8.996-17.196Zm0 0"/><path fill="#f5c5b4" d="m171.496 238.613 18.492 2.336-14.11 12.094Zm0 0"/><path fill="#4a2d2c" d="m171.496 238.613-16.473-2.703 13.602-12.969Zm0 0"/><path fill="#4a3100" d="M311.219 384h-65.117l9.421-19Zm0 0"/><path fill="#4a2d2b" d="m230.34 355.441-40.512 28.555 17.734-36.254Zm0 0"/><path fill="#4a3000" d="m225.723 340.871 4.617 14.57-22.778-7.699Zm0 0"/><path fill="#4a2d2b" d="m323.336 342.73-17.156 18.91-15.578-19.324Zm0 0"/><path fill="#4a3000" d="m306.18 361.64 5.039 22.36-55.696-19ZM323.336 342.73l21.21-27.796-3.952 40.445Zm0 0"/><path fill="#9c5119" d="m313.629 309.504 21.8-18.817 9.118 24.247Zm0 0"/><path fill="#4a2d2b" d="m323.336 342.73-9.707-33.226 30.918 5.43Zm0 0"/><path fill="#4a3001" d="m266.125 312.734-1.098-9.933 19.805 7.476Zm0 0"/><path fill="#4a3002" d="m265.027 302.8 1.098 9.934-23.062-3.386Zm0 0"/><path fill="#493000" d="m97.004 269.098-17.145 13-9.91-37.465Zm0 0"/><path fill="#4a3001" d="m101.836 240.563-4.832 28.535-27.055-24.465Zm0 0"/><path fill="#f4c4b3" d="m114.328 232.703 11.059-10.8.324 13.39Zm0 0"/><path fill="#4a2d29" d="m114.328 232.703-12.492 7.86-14.332-46.575Zm0 0"/><path fill="#4a2d2b" d="m125.387 221.902 8.574-24.004 12.066 20.817Zm0 0"/><path fill="#4a2d2c" d="m133.96 197.898-8.573 24.004-37.883-27.914Zm0 0"/><path fill="#f6c5b4" d="m125.387 221.902-11.059 10.801-26.824-38.715ZM125.71 235.293l14.86-.95-10.207 8.907Zm0 0"/><path fill="#f5c4b3" d="m125.387 221.902 15.183 12.442-14.86.949Zm0 0"/><path fill="#4a2d2c" d="m140.57 234.344 9.239 13.136-19.446-4.23Zm0 0"/><path fill="#4a2d2b" d="m155.023 235.91-14.453-1.566 5.457-15.63Zm0 0"/><path fill="#4a2d2c" d="m140.57 234.344 14.453 1.566-5.214 11.57ZM140.57 234.344l-15.183-12.442 20.64-3.187Zm0 0"/><path fill="#f6c5b4" d="m160.996 174.543 15.84 2.07.66 21.774Zm0 0"/><path fill="#4a2d2c" d="m153.078 199.121 7.918-24.578 16.5 23.844Zm0 0"/><path fill="#4a2d2b" d="m160.996 174.543-7.918 24.578-2.937-36.234Zm0 0"/><path fill="#493000" d="M369.648 17.512 361.316 0H384Zm0 0"/><path fill="#4a3000" d="m384 31.547-14.352-14.035L384 0Zm0 0"/><path fill="#493000" d="m361.316 0 8.332 17.512-16.71 1.203Zm0 0"/><path fill="#4a3100" d="M330.621 25.938 296.22 0l44.058.02Zm0 0"/><path fill="#9db380" d="m352.938 18.715-22.317 7.223L340.277.02Zm0 0"/><path fill="#4a3100" d="m330.621 25.938-23.726-4.27L296.219 0Zm0 0"/><path fill="#9eb380" d="m353.496 75.605-.121-32.085 30.637 14.242Zm0 0"/><path fill="#9db380" d="m363.418 113.77-9.922-38.165 30.508 40.856Zm0 0"/><path fill="#9eb380" d="m366.156 129.953-2.738-16.183 20.586 2.69ZM384.004 116.46l-30.508-40.855 30.516-17.843Zm0 0"/><path fill="#9eb481" d="m341.688 100.484 11.808-24.879 9.922 38.165Zm0 0"/><path fill="#9db380" d="m341.688 100.484-30.446-17.511 42.254-7.368ZM341.688 100.484l-12.485 10.844-14.98-14.75Zm0 0"/><path fill="#9db380" d="m311.242 82.973 30.445 17.511-27.464-3.906Zm0 0"/><path fill="#9eb380" d="m339.645 118.035 2.043-17.55 11.734 22.581Zm0 0"/><path fill="#4a2d2c" d="m253.215 144.203-.168 27.559-15.328-30.301Zm0 0"/><path fill="#f6c5b4" d="m267.82 153.098 7.684-23.004 6.758 17.945Zm0 0"/><path fill="#4a2d2b" d="m318.965 185.637-1.184 21.043-10.156-34.532Zm0 0"/><path fill="#9eb27f" d="m318.965 185.637 11.191 10.078-12.375 10.965Zm0 0"/><path fill="#9fb280" d="m330.156 195.715-11.191-10.078 15.363-15.582Zm0 0"/><path fill="#9eb381" d="m334.328 170.055-13.965-1.864 11.473-12.164Zm0 0"/><path fill="#9fb381" d="m320.363 168.191-12.738 3.957 5.484-12.816Zm0 0"/><path fill="#f6c5b4" d="m303.61 107.55-6.024-4.26 16.637-6.712Zm0 0"/><path fill="#f6c5b4" d="m303.61 107.55-7.442 7.524 1.418-11.785Zm0 0"/><path fill="#9eb481" d="m329.203 111.328-8.637 2.844-6.343-17.594Zm0 0"/><path fill="#4a2d2c" d="m320.566 114.172-16.957-6.621 10.614-10.973ZM318.055 147.355l-9.668-1.09 12.207-10.917ZM296.531 158.902l11.856-12.636 4.722 13.066Zm0 0"/><path fill="#4a2d2c" d="m308.387 146.266 9.668 1.09-4.946 11.976Zm0 0"/><path fill="#f6c5b4" d="m160.996 174.543 15.856-14.508-.016 16.578Zm0 0"/><path fill="#f6c5b4" d="m176.852 160.035-15.856 14.508 4.527-15.535ZM176.836 176.613l.016-16.578 16.328 17.485Zm0 0"/><path fill="#f6c5b4" d="m176.852 160.035 12.617-3.441 3.71 20.926Zm0 0"/><path fill="#9fb381" d="m384.004 158.941-.09 48.446-15.781-41.348Zm0 0"/><path fill="#9eb380" d="m384.004 158.941-15.871 7.098 5.539-14.594Zm0 0"/><path fill="#4a2d2b" d="m353.934 173.102 29.98 34.285-25.203 6.433Zm0 0"/><path fill="#4a2d2b" d="m383.914 207.387-29.98-34.285 14.199-7.063Zm0 0"/><path fill="#4a2d2b" d="m353.934 173.102-21.41 22.68 1.804-25.727Zm0 0"/><path fill="#4a2d2b" d="m332.523 195.781 21.41-22.68 4.778 40.72Zm0 0"/><path fill="#4a3003" d="m384.027 298.71-.023 38.614-39.457-22.39Zm0 0"/><path fill="#4a3000" d="m340.594 355.379 43.41-18.055L384 384Zm0 0"/><path fill="#4a3000" d="m384.004 337.324-43.41 18.055 3.953-40.445Zm0 0"/><path fill="#9c5119" d="m384.027 298.71-18.324-7.757 2.73-4.418Zm0 0"/><path fill="#9d8c57" d="m365.703 290.953-4.129-3.574 6.86-.844Zm0 0"/><path fill="#9da975" d="m365.703 290.953-21.156 23.98 17.027-27.554Zm0 0"/><path fill="#9c5019" d="m365.703 290.953 18.324 7.758-39.48 16.223Zm0 0"/><path fill="#4a2d2c" d="m332.852 219.156-.329-23.375 26.188 18.04Zm0 0"/><path fill="#4a2d2b" d="m332.852 219.156 25.859-5.336-8.137 29.176Zm0 0"/><path fill="#4a2d2b" d="m323.11 230.336 9.742-11.18 17.722 23.84ZM332.852 219.156l-9.743 11.18-5.328-23.656Zm0 0"/><path fill="#4a3000" d="m297.207 223.879 25.902 6.457-23.492 30.273Zm0 0"/><path fill="#4a2d2b" d="m166.34 293.129 33.566-25.277 16.051 39.023ZM199.906 267.852l39.364 2.242-23.313 36.781Zm0 0"/><path fill="#4a3002" d="m239.27 270.094 3.792 39.254-27.105-2.473Zm0 0"/><path fill="#493000" d="m243.063 309.348-3.793-39.254 25.757 32.707Zm0 0"/><path fill="#9eb481" d="m298.117 60.895-.023 11.312-7.301-11.168Zm0 0"/><path fill="#4a3100" d="m272.152 54.79 8.668-13.614 9.973 19.863Zm0 0"/><path fill="#9eb481" d="m353.496 75.605-14.355-25.18 14.234-6.905Zm0 0"/><path fill="#9eb380" d="m315.297 60.816 23.844-10.39 14.355 25.18Zm0 0"/><path fill="#f6c5b4" d="m208.555 171.332 10.293-4.215 4.113 16.637Zm0 0"/><path fill="#f6c5b4" d="m218.848 167.117-10.293 4.215 4.152-10.383Zm0 0"/><path fill="#4a2d2c" d="m218.848 167.117 13.668-1.855-9.555 18.492ZM201.906 148.398l-14.57-16.003 29.836-12.325Zm0 0"/><path fill="#a1b483" d="m287.996 71.934 2.797-10.895 7.3 11.168Zm0 0"/><path fill="#4a3000" d="m250.777 70.04-26.382-12.661 21.816-25.973Zm0 0"/><path fill="#4a2d2c" d="m203.031 76.805-23.285 13.43 2.55-17.22Zm0 0"/><path fill="#4a2d2b" d="m203.031 76.805 21.364-19.426 7.527 25.203Zm0 0"/><path fill="#4a2d2c" d="m201.004 101.879 2.027-25.074 28.89 5.777Zm0 0"/><path fill="#4a2d2c" d="m203.031 76.805-2.027 25.074-21.258-11.645Zm0 0"/><path fill="#f6c5b4" d="m125.504 252.281-5.41-8.941 10.27-.09Zm0 0"/><path fill="#4a3000" d="m97.004 269.098 11.988 18.738-13.476 4.855Zm0 0"/><path fill="#9da975" d="m108.992 287.836-5.355 14.75-8.121-9.895Zm0 0"/><path fill="#9d8a54" d="m136.828 334.238-14.98-3.925 11.707-13.614Zm0 0"/><path fill="#9e935f" d="m144.664 323.223-7.836 11.015-3.273-17.539Zm0 0"/><path fill="#4a3004" d="m87.098 345.055 14.226-11.02-.945 21.09Zm0 0"/><path fill="#4a3004" d="m101.324 334.035 18.258 18.031-19.203 3.059Zm0 0"/><path fill="#4a3001" d="m119.582 352.066-18.258-18.03 20.524-3.724Zm0 0"/><path fill="#4a3002" d="m119.582 352.066 8.55 6.067-9.726.8Zm0 0"/><path fill="#9d8954" d="m136.828 334.238-17.246 17.828 2.266-21.753Zm0 0"/><path fill="#4a3000" d="m119.582 352.066 17.246-17.828-8.695 23.895Zm0 0"/><path fill="#4a2d2b" d="M96.867 149.918 74.04 138.223l43.688-17.32Zm0 0"/><path fill="#4a2d2c" d="m74.04 138.223.608-12.918 43.079-4.403Zm0 0"/><path fill="#4a3000" d="m63.96 111.914-6.87 15.922-23.828-4.246Zm0 0"/><path fill="#f6c5b4" d="m74.648 125.305-17.558 2.53 6.87-15.92Zm0 0"/><path fill="#4a3000" d="m57.09 127.836 2.219 34.922-26.047-39.168Zm0 0"/><path fill="#f6c5b4" d="m74.04 138.223-16.95-10.387 17.558-2.531Zm0 0"/><path fill="#4a3000" d="M95.875 44.41 52.934 78.684 44.992 39.75Zm0 0"/><path fill="#4a2d2b" d="m150.14 162.887-31.273-9.996 16.035-13.633Zm0 0"/><path fill="#4a2d2c" d="m150.14 162.887-66.585 24.836 35.312-34.832ZM83.555 187.723l66.586-24.836-16.18 35.011Zm0 0"/><path fill="#4a2d2c" d="m150.14 162.887 2.938 36.234-19.117-1.223Zm0 0"/><path fill="#f6c5b4" d="m208.555 171.332 14.406 12.422-29.781-6.234ZM155.023 235.91l6.368 14.574-11.582-3.004Zm0 0"/><path fill="#f6c5b4" d="m161.39 250.484 10.106-11.87 4.383 14.429Zm0 0"/><path fill="#f6c5b4" d="m171.496 238.613-10.105 11.871-6.368-14.574Zm0 0"/><path fill="#f3c3b2" d="m181.547 227.16-12.922-4.219 8.871-24.554Zm0 0"/><path fill="#4a2d2c" d="m181.547 227.16-10.05 11.453-2.872-15.672Zm0 0"/><path fill="#4a2d2c" d="m171.496 238.613 10.05-11.453 8.442 13.79Zm0 0"/><path fill="#f6c5b4" d="m180.387 198.79 1.16 28.37-4.05-28.773Zm0 0"/><path fill="#4a2d2c" d="m181.547 227.16-1.16-28.37 49.234 23.292Zm0 0"/><path fill="#4a2d2b" d="m181.547 227.16 48.074-5.078-39.633 18.867Zm0 0"/><path fill="#4a3002" d="m136.828 334.238 28.324 22.325-37.02 1.57Zm0 0"/><path fill="#9dac79" d="m163.863 301.773 2.477-8.644 49.617 13.746Zm0 0"/><path fill="#9d8752" d="m151.574 286.484.051 26.758-10.797-9.52Zm0 0"/><path fill="#9daf7b" d="m151.625 313.242-.05-26.758 12.288 15.29Zm0 0"/><path fill="#9db380" d="m246.066 334.45 21.313 6.734-20.926 4.39Zm0 0"/><path fill="#9db380" d="m267.379 341.184-21.313-6.735 16.477-9.203Zm0 0"/><path fill="#4a3100" d="m237.54 371.512-7.2-16.07L255.523 365Zm0 0"/><path fill="#4a3100" d="m246.102 384-8.563-12.488L255.523 365Zm0 0"/><path fill="#9da571" d="m231.703 341.648 14.363-7.199.387 11.125Zm0 0"/><path fill="#4a3000" d="m340.594 355.379-34.414 6.262 17.156-18.91Zm0 0"/><path fill="#493000" d="m306.18 361.64 34.414-6.261L311.219 384Zm0 0"/><path fill="#4a3100" d="m255.523 365-25.183-9.559 16.113-9.867Zm0 0"/><path fill="#4a3001" d="M267.379 341.184 255.523 365l-9.07-19.426Zm0 0"/><path fill="#9db27f" d="m275.617 321.902-8.238 19.282-4.836-15.938Zm0 0"/><path fill="#9d935e" d="m275.617 321.902 19.18-3.168-4.195 23.582Zm0 0"/><path fill="#9dac78" d="m275.617 321.902 9.215-11.625 9.965 8.457Zm0 0"/><path fill="#4a2d27" d="m266.125 312.734 9.492 9.168-13.074 3.344Zm0 0"/><path fill="#4a2d28" d="m284.832 310.277-9.215 11.625-9.492-9.168Zm0 0"/><path fill="#9dab77" d="m335.43 290.688 7.84-.446 1.277 24.692Zm0 0"/><path fill="#9da976" d="m344.547 314.934-1.277-24.692 18.304-2.863Zm0 0"/><path fill="#4a3000" d="m338.75 273.55-15.64-43.214 27.464 12.66Zm0 0"/><path fill="#4a2d2b" d="m366.7 271.996-27.95 1.555 11.824-30.555Zm0 0"/><path fill="#4a2d29" d="m338.75 273.55 4.52 16.692-7.84.445Zm0 0"/><path fill="#4a3000" d="m338.75 273.55 27.95-1.554-5.126 15.383Zm0 0"/><path fill="#493000" d="m343.27 290.242-4.52-16.691 22.824 13.828Zm0 0"/><path fill="#4a3000" d="m265.027 302.8 36.996-6.51-17.191 13.987ZM120.094 243.34l-23.09 25.758 4.832-28.536Zm0 0"/><path fill="#4a3001" d="m114.328 232.703 5.766 10.637-18.258-2.778Zm0 0"/><path fill="#f6c5b4" d="m120.094 243.34-5.766-10.637 11.383 2.59Zm0 0"/><path fill="#4a3100" d="M365.863 35.05 384 31.548l.012 26.215Zm0 0"/><path fill="#4a3000" d="m384 31.547-18.137 3.504 3.785-17.54Zm0 0"/><path fill="#9db380" d="m353.375 43.52-22.754-17.583 22.317-7.222Zm0 0"/><path fill="#9db380" d="m353.375 43.52-14.234 6.906-8.52-24.489Zm0 0"/><path fill="#4a2d2a" d="m343.54 132.684-3.895-14.649 13.777 5.031Zm0 0"/><path fill="#9eb380" d="m341.688 100.484 21.73 13.286-9.996 9.296ZM353.422 123.066l9.996-9.296 2.738 16.183ZM329.203 111.328l12.485-10.844-2.043 17.551Zm0 0"/><path fill="#4a2d2b" d="m253.215 144.203 9.023 22.406-9.191 5.153Zm0 0"/><path fill="#9eb380" d="m262.238 166.61-9.023-22.407 14.605 8.895Zm0 0"/><path fill="#9db380" d="m262.672 101.664 16.976-7.55-8.73 16.156Zm0 0"/><path fill="#4a2d2b" d="m357.063 134.953-10.208 17.078-3.316-19.347Zm0 0"/><path fill="#9eb381" d="m384.004 158.941-10.332-7.496 10.332-34.984Zm0 0"/><path fill="#9eb380" d="m318.965 185.637 1.398-17.446 13.965 1.864Zm0 0"/><path fill="#9fb481" d="m320.363 168.191-1.398 17.446-11.34-13.489Zm0 0"/><path fill="#4a2d2c" d="m303.61 107.55 2.312 12.552-9.754-5.028ZM305.922 120.102l14.644-5.93.028 21.176Zm0 0"/><path fill="#4a2d2c" d="m320.566 114.172-14.644 5.93-2.313-12.551ZM189.469 156.594l19.086 14.738-15.375 6.188Zm0 0"/><path fill="#4a2d2b" d="m346.855 152.031 7.079 21.07-19.606-3.046Zm0 0"/><path fill="#9eb380" d="m368.133 166.04-4.543-14.704 10.082.11Zm0 0"/><path fill="#4a2d2b" d="m353.934 173.102 9.656-21.766 4.543 14.703Zm0 0"/><path fill="#4a2d2b" d="m346.855 152.031 16.735-.695-9.656 21.766Zm0 0"/><path fill="#a5af7e" d="m330.156 195.715 2.696 23.441-15.07-12.476Zm0 0"/><path fill="#b1b68b" d="m332.852 219.156-2.696-23.441 2.367.066Zm0 0"/><path fill="#4a2d2b" d="m317.781 206.68 5.328 23.656-25.902-6.457ZM297.207 223.879l-2.629-45 23.203 27.8Zm0 0"/><path fill="#f6c5b4" d="m189.988 240.95 9.918 26.902-24.027-14.809ZM229.621 222.082l9.649 48.012-49.282-29.145Zm0 0"/><path fill="#4d2f2e" d="m239.27 270.094-39.364-2.242-9.918-26.903Zm0 0"/><path fill="#9eb380" d="m297.586 103.29 13.656-20.317 2.98 13.605ZM295.945 52.242l2.172 8.653-7.324.144Zm0 0"/><path fill="#9eb380" d="m298.117 60.895-2.172-8.653 19.352 8.574Zm0 0"/><path fill="#4a3100" d="m280.82 41.176 15.125 11.066-5.152 8.797Zm0 0"/><path fill="#4a3000" d="m306.895 21.668-10.95 30.574-15.125-11.066Zm0 0"/><path fill="#9db380" d="m315.297 60.816-19.352-8.574 10.95-30.574Zm0 0"/><path fill="#4a3100" d="m280.82 41.176-8.668 13.613-25.941-23.383Zm0 0"/><path fill="#4a3100" d="m272.152 54.79-21.375 15.25-4.566-38.634Zm0 0"/><path fill="#4a3100" d="m272.152 54.79.555 16.108-21.93-.859ZM282.113 65.121l-9.96-10.332 18.64 6.25ZM282.113 65.121l5.883 6.813-15.289-1.036Zm0 0"/><path fill="#4a3100" d="m287.996 71.934-5.883-6.813 8.68-4.082ZM272.152 54.79l9.961 10.331-9.406 5.777Zm0 0"/><path fill="#4a3000" d="m365.863 35.05-12.925-16.335 16.71-1.203Zm0 0"/><path fill="#9eb381" d="m365.863 35.05-12.488 8.47-.437-24.805Zm0 0"/><path fill="#4a2d2c" d="m218.848 167.117 5.523-23.894 8.145 22.039Zm0 0"/><path fill="#4a2d2c" d="m232.516 165.262-8.145-22.04 13.348-1.761ZM201.906 148.398l22.465-5.175-11.664 17.726Zm0 0"/><path fill="#f6c5b4" d="m224.371 143.223-5.523 23.894-6.141-6.168Zm0 0"/><path fill="#4a2d2c" d="m217.172 120.07 7.2 23.153-22.466 5.175Zm0 0"/><path fill="#a0b382" d="m279.648 94.113 8.348-22.18 10.098.274Zm0 0"/><path fill="#9eb380" d="m311.242 82.973-31.594 11.14 18.446-21.906Zm0 0"/><path fill="#4a3000" d="m279.648 94.113-6.941-23.215 15.29 1.036Zm0 0"/><path fill="#9db380" d="m279.648 94.113 31.594-11.14-13.656 20.316Zm0 0"/><path fill="#4a3000" d="m242.465 107.621-10.543-25.039 18.855-12.543ZM262.672 101.664l-20.207 5.957 8.312-37.582Zm0 0"/><path fill="#9eb481" d="m275.504 130.094-7.684 23.004-14.605-8.895Zm0 0"/><path fill="#4a2d2c" d="m193.031 40.055 10 36.75-20.734-3.79Zm0 0"/><path fill="#4a2d2b" d="m203.031 76.805-10-36.75 31.364 17.324Zm0 0"/><path fill="#f6c5b4" d="m181.344 54.031 11.687-13.976-10.734 32.96Zm0 0"/><path fill="#4a3000" d="M224.395 57.379 193.03 40.055l1.426-2.907ZM250.777 70.04l-18.855 12.542-7.527-25.203Zm0 0"/><path fill="#9db380" d="m262.672 101.664 10.035-30.766 6.941 23.215Zm0 0"/><path fill="#4a3100" d="m272.707 70.898-10.035 30.766-11.895-31.625Zm0 0"/><path fill="#f6c5b4" d="m113.191 266.23 15.02 1.16-1.672 8.387Zm0 0"/><path fill="#f6c5b4" d="m128.21 267.39 5.5 8.048-7.17.34Zm0 0"/><path fill="#9c743d" d="m95.41 316.219-5.746-11.864 13.973-1.77Zm0 0"/><path fill="#9c4c14" d="M83.598 329.523 95.41 316.22l5.914 17.816Zm0 0"/><path fill="#9da874" d="m95.41 316.219-11.812 13.304-5.106-10.207Zm0 0"/><path fill="#9dab78" d="m89.664 304.355 5.746 11.864-16.918 3.097Zm0 0"/><path fill="#9c7039" d="m112.977 316.605-17.567-.386 8.227-13.633Zm0 0"/><path fill="#4a3000" d="m112.598 281.82-3.606 6.016-11.988-18.738Zm0 0"/><path fill="#4a3000" d="m113.191 266.23-.593 15.59-15.594-12.722ZM112.598 281.82l.593-15.59 13.348 9.547Zm0 0"/><path fill="#f6c5b4" d="m165.523 159.008.493-11.196 10.836 12.223Zm0 0"/><path fill="#f6c5b4" d="m166.016 147.813 13.125-6.864-2.29 19.086Zm0 0"/><path fill="#f6c5b4" d="m179.14 140.95-13.124 6.863 10.363-21.125Zm0 0"/><path fill="#4a3000" d="m166.016 147.813-31.114-8.555 41.477-12.57Zm0 0"/><path fill="#493000" d="m158.977 157.648 2.02 16.895-10.856-11.656Zm0 0"/><path fill="#f6c5b4" d="m160.996 174.543-2.02-16.895 6.547 1.36Zm0 0"/><path fill="#4a3000" d="m134.902 139.258 24.075 18.39-8.836 5.239Zm0 0"/><path fill="#4a3000" d="m166.016 147.813-7.04 9.835-24.074-18.39Zm0 0"/><path fill="#f6c5b4" d="m158.977 157.648 7.039-9.835-.493 11.195ZM222.96 183.754l6.661 38.328-36.441-44.562Zm0 0"/><path fill="#4a2d2b" d="m193.18 177.52 36.441 44.562-49.234-23.293ZM275.637 224.156l-52.676-40.402 30.086-11.992Zm0 0"/><path fill="#4a2d2c" d="m149.809 247.48-10.829 6.258-8.617-10.488Zm0 0"/><path fill="#4b2e2c" d="m138.98 253.738-13.476-1.457 4.86-9.031Zm0 0"/><path fill="#4a3000" d="m165.152 356.563 42.41-8.82-17.734 36.253Zm0 0"/><path fill="#4a3001" d="m153.125 328.023-16.297 6.215 7.836-11.015Zm0 0"/><path fill="#4a3000" d="m153.125 328.023 12.027 28.54-28.324-22.325Zm0 0"/><path fill="#9c5921" d="m163.863 301.773 52.094 5.102-25.422 16.547Zm0 0"/><path fill="#4a3000" d="m207.563 347.742 8.394-40.867 9.766 33.996Zm0 0"/><path fill="#4a2d2b" d="m243.063 309.348 23.062 3.386-3.582 12.512ZM246.066 334.45l-3.004-25.102 19.481 15.898Zm0 0"/><path fill="#4a3100" d="M237.54 371.512 246.101 384l-56.274-.004Zm0 0"/><path fill="#493000" d="m230.34 355.441 7.2 16.07-47.712 12.485Zm0 0"/><path fill="#4a3001" d="m225.723 340.871 5.98.777-1.363 13.793Zm0 0"/><path fill="#9d9d69" d="M283.738 348.828 255.523 365l11.856-23.816Zm0 0"/><path fill="#4a3100" d="m283.738 348.828 22.442 12.813L255.523 365Zm0 0"/><path fill="#9d824d" d="m283.738 348.828-8.12-26.926 14.984 20.414Zm0 0"/><path fill="#9c460d" d="m275.617 321.902 8.121 26.926-16.36-7.644Zm0 0"/><path fill="#4a3000" d="m306.18 361.64-22.442-12.812 6.864-6.512Zm0 0"/><path fill="#9d8e59" d="m302.023 296.29 1.622 8.733-18.813 5.254Zm0 0"/><path fill="#9daa77" d="m303.645 305.023-8.848 13.711-9.965-8.457Zm0 0"/><path fill="#9da470" d="m294.797 318.734 8.848-13.71 9.984 4.48Zm0 0"/><path fill="#9da26e" d="m313.629 309.504-4.832-12.07 26.633-6.747Zm0 0"/><path fill="#9da36f" d="m303.645 305.023 5.152-7.59 4.832 12.07Zm0 0"/><path fill="#9d9560" d="m308.797 297.434-5.152 7.59-1.622-8.735Zm0 0"/><path fill="#4a2d2b" d="m299.617 260.61-34.59 42.19-2.562-46.718Zm0 0"/><path fill="#4a3000" d="m299.617 260.61 2.406 35.68-36.996 6.51Zm0 0"/><path fill="#9db37f" d="m353.375 43.52 12.488-8.47 18.149 22.712Zm0 0"/><path fill="#9eb380" d="m373.672 151.445-7.516-21.492 17.848-13.492Zm0 0"/><path fill="#4a2d2c" d="m320.566 114.172 8.575 12.027-8.547 9.149Zm0 0"/><path fill="#9db380" d="m329.203 111.328-.062 14.871-8.575-12.027Zm0 0"/><path fill="#4a2d2b" d="m343.54 132.684-14.4-6.485 10.505-8.164Zm0 0"/><path fill="#9db380" d="m329.14 126.2.063-14.872 10.442 6.707Zm0 0"/><path fill="#9fb481" d="m318.055 147.355 13.78 8.672-18.726 3.305Zm0 0"/><path fill="#9fb481" d="m331.836 156.027-11.473 12.164-7.254-8.859Zm0 0"/><path fill="#9eb380" d="m357.063 134.953-3.641-11.887 12.734 6.887Zm0 0"/><path fill="#4a2d2a" d="m353.422 123.066 3.64 11.887-13.523-2.27Zm0 0"/><path fill="#9eb481" d="m282.566 110.684-7.062 19.41-4.586-19.824Zm0 0"/><path fill="#f6c5b4" d="m275.504 130.094 7.062-19.41 13.602 4.39Zm0 0"/><path fill="#9db380" d="m279.648 94.113 2.918 16.57-11.648-.413Zm0 0"/><path fill="#4a2d2c" d="m308.387 146.266-17.27-12.387 29.477 1.469ZM291.117 133.879l14.805-13.777 14.672 15.246Zm0 0"/><path fill="#4a2d2c" d="m291.117 133.879 17.27 12.387-11.856 12.636Zm0 0"/><path fill="#f6c5b4" d="m291.117 133.879-15.613-3.785 20.664-15.02Zm0 0"/><path fill="#4a2d2c" d="m305.922 120.102-14.805 13.777 5.051-18.805ZM291.117 133.879l5.414 25.023-14.27-10.863Zm0 0"/><path fill="#f6c5b4" d="m275.504 130.094 15.613 3.785-8.855 14.16Zm0 0"/><path fill="#4a2d2c" d="m201.906 148.398 6.649 22.934-19.086-14.738Zm0 0"/><path fill="#4a2d2c" d="m208.555 171.332-6.649-22.934 10.801 12.551Zm0 0"/><path fill="#4a2d2b" d="m356.398 146.73.664-11.777 6.528 16.383Zm0 0"/><path fill="#4a2d2b" d="m357.063 134.953-.665 11.777-9.543 5.301ZM275.637 224.156l-46.016-2.074-6.66-38.328Zm0 0"/><path fill="#9eb380" d="m311.242 82.973-13.148-10.766 17.203-11.39ZM298.094 72.207l.023-11.312 17.18-.079Zm0 0"/><path fill="#4a2d2b" d="m242.465 107.621-10.926 8.625.383-33.664Zm0 0"/><path fill="#4a2d2c" d="m231.922 82.582-.383 33.664-14.367 3.824Zm0 0"/><path fill="#493000" d="m249.953 131.14-7.488-23.519 20.207-5.957Zm0 0"/><path fill="#9eb380" d="m249.953 131.14 12.719-29.476 8.246 8.606Zm0 0"/><path fill="#9eb481" d="m275.504 130.094-25.55 1.047 20.964-20.871Zm0 0"/><path fill="#9eb481" d="m249.953 131.14 25.55-1.046-22.288 14.11Zm0 0"/><path fill="#4a2d2c" d="m249.953 131.14-18.414-14.894 10.926-8.625Zm0 0"/><path fill="#4a3000" d="m125.504 252.281-12.313 13.95 6.903-22.891Zm0 0"/><path fill="#f6c5b4" d="m128.21 267.39-15.019-1.16 12.313-13.949Zm0 0"/><path fill="#4a3000" d="m120.094 243.34-6.903 22.89-16.187 2.868Zm0 0"/><path fill="#9d8c58" d="m133.555 316.7-8.868-16.356 16.141 3.379Zm0 0"/><path fill="#9da975" d="m151.625 313.242-18.07 3.457 7.273-12.976Zm0 0"/><path fill="#9d9662" d="m133.555 316.7 18.07-3.458-6.96 9.98Zm0 0"/><path fill="#9d9f6b" d="m108.992 287.836 15.695 12.508-21.05 2.242Zm0 0"/><path fill="#9c6c35" d="m124.688 300.344-11.711 16.261-9.34-14.02Zm0 0"/><path fill="#9c713b" d="m121.848 330.313-8.871-13.708 20.578.094Zm0 0"/><path fill="#9c5922" d="m112.977 316.605 11.71-16.261 8.868 16.355Zm0 0"/><path fill="#4a2d2b" d="m59.309 162.758 14.73-24.535-1.293 39.96Zm0 0"/><path fill="#f6c5b4" d="m57.09 127.836 16.95 10.387-14.731 24.535Zm0 0"/><path fill="#4a3000" d="m151.625 313.242 1.5 14.781-8.46-4.8Zm0 0"/><path fill="#493001" d="m190.535 323.422 25.422-16.547-8.394 40.867Zm0 0"/><path fill="#9d9662" d="m124.688 300.344 13.035-11.332 3.105 14.71Zm0 0"/><path fill="#9eb17e" d="m137.723 289.012 13.851-2.528-10.746 17.239Zm0 0"/><path fill="#9db17e" d="m230.34 355.441 1.363-13.793 14.75 3.926Zm0 0"/><path fill="#9db17d" d="m231.703 341.648-.922-4.296 15.285-2.903Zm0 0"/><path fill="#4a3000" d="m225.723 340.871 5.058-3.52.922 4.297Zm0 0"/><path fill="#4a3004" d="m230.781 337.352-5.058 3.52-9.766-33.997Zm0 0"/><path fill="#4a2d2b" d="m230.781 337.352 12.281-28.004 3.004 25.101Zm0 0"/><path fill="#4a2d2b" d="m243.063 309.348-12.282 28.004-14.824-30.477ZM338.75 273.55l-29.953 23.884-6.774-1.145Zm0 0"/><path fill="#4a3000" d="m299.617 260.61 39.133 12.94-36.727 22.74Zm0 0"/><path fill="#4a2d2b" d="m308.797 297.434 29.953-23.883-3.32 17.137Zm0 0"/><path fill="#4a3000" d="m338.75 273.55-39.133-12.94 23.492-30.274Zm0 0"/><path fill="#9eb27f" d="m357.063 134.953 9.093-5-2.566 21.383Zm0 0"/><path fill="#9eb27f" d="m366.156 129.953 7.516 21.492-10.082-.11Zm0 0"/><path fill="#4a2d2b" d="m331.836 156.027 2.05-15.152 12.97 11.156ZM333.887 140.875l-4.746-14.676 14.398 6.485Zm0 0"/><path fill="#9eb380" d="m333.887 140.875-2.051 15.152-13.781-8.672Zm0 0"/><path fill="#9db380" d="m333.887 140.875-15.832 6.48 2.539-12.007Zm0 0"/><path fill="#9db380" d="m329.14 126.2 4.747 14.675-13.293-5.527Zm0 0"/><path fill="#9eb380" d="m282.566 110.684-2.918-16.57 17.938 9.175Zm0 0"/><path fill="#f6c5b4" d="m296.168 115.074-13.602-4.39 15.02-7.395Zm0 0"/><path fill="#4a2d2b" d="m356.398 146.73 7.192 4.606-16.735.695ZM201.906 148.398l-12.437 8.196-2.133-24.2Zm0 0"/><path fill="#634340" d="m179.14 140.95 10.329 15.644-12.617 3.441Zm0 0"/><path fill="#f6c5b4" d="m189.469 156.594-10.328-15.645 8.195-8.554Zm0 0"/><path fill="#4a2d2b" d="m229.621 222.082 46.016 2.074-13.172 31.926ZM262.465 256.082l13.172-31.926 23.98 36.453Zm0 0"/><path fill="#4a3000" d="m275.637 224.156 21.57-.277 2.41 36.73Zm0 0"/><path fill="#4a2d2b" d="m275.637 224.156 18.941-45.277 2.629 45Zm0 0"/><path fill="#4a2d2c" d="m237.719 141.46 12.234-10.32 3.262 13.063ZM237.719 141.46l-13.348 1.763-7.2-23.153Zm0 0"/><path fill="#4a2d2c" d="m231.54 116.246 6.179 25.215-20.547-21.39Zm0 0"/><path fill="#4a2d2c" d="m249.953 131.14-12.234 10.32-6.18-25.214Zm0 0"/><path fill="#9db07c" d="m112.598 281.82 14.234 5.121-17.84.895Zm0 0"/><path fill="#9dae7b" d="m126.832 286.941-2.144 13.403-15.696-12.508Zm0 0"/><path fill="#9eab77" d="m126.832 286.941 10.89 2.07-13.035 11.333Zm0 0"/><path fill="#9c4d15" d="m101.324 334.035 11.653-17.43 8.87 13.707Zm0 0"/><path fill="#4a3002" d="m95.41 316.219 17.567.386-11.653 17.43Zm0 0"/><path fill="#4a2d2b" d="m96.867 149.918 22 2.973-35.312 34.832Zm0 0"/><path fill="#4a2d2c" d="m96.867 149.918-13.312 37.805-10.809-9.54Zm0 0"/><path fill="#4a2d2c" d="m74.04 138.223 22.827 11.695-24.12 28.266Zm0 0"/><path fill="#f6c5b4" d="m161.39 250.484-12.925 10.528 1.344-13.532Zm0 0"/><path fill="#4b2d2c" d="m148.465 261.012-9.485-7.274 10.829-6.258Zm0 0"/><path fill="#9db27f" d="m151.574 286.484 14.766 6.645-2.477 8.644Zm0 0"/><path fill="#f6c5b4" d="m163.148 271.684 3.192 21.445-14.766-6.645ZM137.723 289.012l6.683-15.496 7.168 12.968Zm0 0"/><path fill="#f6c5b4" d="m144.406 273.516 18.742-1.832-11.574 14.8ZM144.406 273.516l-6.683 15.496-4.012-13.574Zm0 0"/><path fill="#f6c5b4" d="m144.406 273.516 4.059-12.504 14.683 10.672Zm0 0"/><path fill="#4a3000" d="m151.625 313.242 38.91 10.18-37.41 4.601ZM153.125 328.023l37.41-4.601-25.383 33.14Zm0 0"/><path fill="#9da36f" d="m190.535 323.422-38.91-10.18 12.238-11.469Zm0 0"/><path fill="#493002" d="m165.152 356.563 25.383-33.141 17.028 24.32Zm0 0"/><path fill="#4a2d2b" d="m333.887 140.875 9.652-8.191 3.316 19.347Zm0 0"/><path fill="#4a3000" d="m126.832 286.941-14.234-5.12 13.941-6.044Zm0 0"/><path fill="#f6c5b4" d="m133.71 275.438-6.878 11.503-.293-11.164ZM137.723 289.012l-10.891-2.07 6.879-11.505ZM199.906 267.852l-36.758 3.832 12.73-18.641Zm0 0"/><path fill="#f6c5b4" d="m163.148 271.684-1.757-21.2 14.488 2.559Zm0 0"/><path fill="#f6c5b4" d="m163.148 271.684-14.683-10.672 12.926-10.528ZM166.34 293.129l-3.192-21.445 36.758-3.832Zm0 0"/><path fill="#4a2d2c" d="m148.465 261.012-12.02 3.36 2.535-10.634Zm0 0"/><path fill="#f6c5b4" d="m128.21 267.39 8.235-3.019-2.734 11.067Zm0 0"/><path fill="#f5c4b3" d="m136.445 264.371 7.961 9.145-10.695 1.921Zm0 0"/><path fill="#4c2f2e" d="m144.406 273.516-7.96-9.145 12.019-3.36Zm0 0"/><path fill="#f6c5b4" d="m136.445 264.371-8.234 3.02-2.707-15.11Zm0 0"/><path fill="#4a2d2c" d="m138.98 253.738-2.535 10.633-10.941-12.09Zm0 0"/></svg>