<svg xmlns="http://www.w3.org/2000/svg" width="512" height="512" viewBox="0 0 384 384"><path fill="#dbaa1f" d="m181.734.012 60.883.008-49.484 19.64Zm0 0"/><path fill="#7a3075" d="m8.078 282.852 41.586 23.191-9.797 24.832Zm0 0"/><path fill="#5e0e8e" d="m79.848 318.137-30.184-12.094 27.281-1.156Zm0 0"/><path fill="#96545c" d="M27.938 173.531-.009 130.332l40.68 21.04Zm0 0"/><path fill="#73287b" d="m45.227 229.387 28.183 12.246-55.879 14.8Zm0 0"/><path fill="#c28b35" d="M68.902 32.953 61.035 0 97.73 16.984ZM190.91 39.035l-36.676-9.77 38.899-9.605Zm0 0"/><path fill="#d8a721" d="m131.086 0 50.648.012-27.5 29.254Zm0 0"/><path fill="#f8ce05" d="m180.934 225.484-2.262-21.793 9.848 1.97Zm0 0"/><path fill="#651687" d="m178.672 203.691 9.285-17.597.563 19.566Zm0 0"/><path fill="#fdd601" d="m178.672 203.691-9.25-17.87 18.535.273Zm0 0"/><path fill="#d3a026" d="m-.004 247.438 8.082 35.414-8.078.34Zm0 0"/><path fill="#ebbf10" d="m8.078 282.852-8.082-35.414 17.535 8.996Zm0 0"/><path fill="#691c83" d="m73.41 241.633-11.5 34.304-44.379-19.503Zm0 0"/><path fill="#74297a" d="m61.91 275.938-53.832 6.914 9.453-26.418Zm0 0"/><path fill="#752a79" d="m61.91 275.938-12.246 30.105-41.586-23.191Zm0 0"/><path fill="#5f0f8d" d="m49.664 306.043 12.246-30.106 15.035 28.95Zm0 0"/><path fill="#c69031" d="m41.516 383.977-41.5.046 31.332-18.246Zm0 0"/><path fill="#5e0d8e" d="m79.848 318.137-28.535 25.129-11.446-12.391Zm0 0"/><path fill="#5d0d8e" d="m49.664 306.043 30.184 12.094-39.98 12.738Zm0 0"/><path fill="#fed600" d="m60.086 353.094-8.773-9.828 28.535-25.13Zm0 0"/><path fill="#5b0a90" d="m89.668 383.992-29.582-30.898L92.3 345.25Zm0 0"/><path fill="#874169" d="M41.82 57.535.008.012l68.894 32.941Zm0 0"/><path fill="#f2c70a" d="m55.387 154.594 16.457 22.52-42.723-.34Zm0 0"/><path fill="#fbd202" d="m55.387 154.594-27.45 18.937 12.735-22.16Zm0 0"/><path fill="#fed600" d="m27.938 173.531 27.449-18.937-26.266 22.18Zm0 0"/><path fill="#5b0a90" d="m90.54 159.207-3.567 37.059-11.309-15.453Zm0 0"/><path fill="#94515e" d="m27.938 173.531-27.93 9.2-.016-52.399Zm0 0"/><path fill="#f9d004" d="m97.73 16.984 31.415 19.032-5.133 32.265Zm0 0"/><path fill="#7b3274" d="M129.145 36.016 131.085 0l23.15 29.266Zm0 0"/><path fill="#97555b" d="M68.902 32.953.008.012 61.035 0Zm0 0"/><path fill="#97565b" d="m166.188 88.031-6.532 38.301-9.234-7.144Zm0 0"/><path fill="#dfaf1b" d="m154.234 29.266 27.5-29.254 11.399 19.648Zm0 0"/><path fill="#5d0d8e" d="m217.938 218.57-37.004 6.914 7.586-19.824Zm0 0"/><path fill="#5d0d8e" d="m212.684 196.445 5.254 22.125-29.418-12.91Zm0 0"/><path fill="#f2c60b" d="M318.98-.016 296.785 34.79 242.617.02Zm0 0"/><path fill="#5b0a90" d="m309.027 168.59-20.804-12.25 25.808-3.05Zm0 0"/><path fill="#5b0a90" d="m288.223 156.34 20.804 12.25-9.136 6.465Zm0 0"/><path fill="#6a1d83" d="m187.957 186.094 7.938-2.02-7.375 21.586Zm0 0"/><path fill="#f7cd06" d="m195.895 184.074 16.789 12.371-24.164 9.215Zm0 0"/><path fill="#5e0d8d" d="m212.684 196.445-16.79-12.37 13.59-9.887Zm0 0"/><path fill="#5e0e8d" d="m192.234 178.54 3.66 5.534-7.937 2.02Zm0 0"/><path fill="#5b0a90" d="m195.895 184.074-3.66-5.535 17.25-4.351Zm0 0"/><path fill="#6a1d83" d="m361.535 192.063 22.426 10.425-35.375 46.782Zm0 0"/><path fill="#6a1d83" d="m383.96 202.488.036 48.934-35.41-2.152Zm0 0"/><path fill="#5c0b8f" d="m309.027 168.59 6.97 22.191-16.106-15.726Zm0 0"/><path fill="#c79230" d="M227.316 33.18 242.617.02l14.063 47.46Zm0 0"/><path fill="#f9d004" d="m242.617.02 54.168 34.77-40.105 12.69Zm0 0"/><path fill="#d19d28" d="m242.617.02-15.3 33.16-34.184-13.52Zm0 0"/><path fill="#dcab1e" d="m227.316 33.18-36.406 5.855 2.223-19.375Zm0 0"/><path fill="#fed600" d="m166.188 88.031 11.351 1.149 5.977 38.82Zm0 0"/><path fill="#5e0e8d" d="M101.504 253.309 61.91 275.938l11.5-34.305Zm0 0"/><path fill="#5f0f8d" d="m61.91 275.938 39.594-22.63.445 22.727Zm0 0"/><path fill="#fcd302" d="m51.313 343.266 8.773 9.828-28.738 12.683Zm0 0"/><path fill="#f8cf05" d="m60.086 353.094-18.57 30.883-10.168-18.2Zm0 0"/><path fill="#9d5d56" d="m.016 384.023 29.593-20.378 1.739 2.132Zm0 0"/><path fill="#5f0f8d" d="m51.313 343.266-21.704 20.379 10.258-32.77Zm0 0"/><path fill="#fad103" d="m29.61 363.645 21.703-20.38-19.965 22.512Zm0 0"/><path fill="#772d78" d="M29.61 363.645-.013 346.137l39.88-15.262Zm0 0"/><path fill="#6e227f" d="M29.61 363.645.015 384.023l-.028-37.886Zm0 0"/><path fill="#f7ce06" d="m0 283.191 8.078-.34-8.09 63.286Zm0 0"/><path fill="#762b79" d="m-.012 346.137 8.09-63.285 31.79 48.023Zm0 0"/><path fill="#5d0d8e" d="m123.52 350.727-33.852 33.265 2.633-38.742Zm0 0"/><path fill="#5c0b8f" d="m92.3 345.25-32.214 7.844 19.762-34.957Zm0 0"/><path fill="#5b0b90" d="m92.3 345.25-12.452-27.113 25.836 10Zm0 0"/><path fill="#70257d" d="m38.973 104.266 22.152 7.949-20.453 39.156Zm0 0"/><path fill="#9a5958" d="m-.008 130.332 38.98-26.066 1.7 47.105Zm0 0"/><path fill="#772d77" d="m64.398 95.207-25.425 9.059 2.847-46.73Zm0 0"/><path fill="#72277b" d="m61.125 112.215 3.273-17.008 22.286 20.23Zm0 0"/><path fill="#71257d" d="m61.125 112.215-22.152-7.95 25.425-9.058Zm0 0"/><path fill="#752a79" d="m76.398 64.11-12 31.097L41.82 57.535Zm0 0"/><path fill="#8a4566" d="M71.844 177.113 50.28 206.332l-21.16-29.559Zm0 0"/><path fill="#782e77" d="m75.664 180.813-25.383 25.519 21.563-29.219Zm0 0"/><path fill="#f7cd06" d="m50.281 206.332-39.59-.324 18.43-29.235Zm0 0"/><path fill="#eabd12" d="m10.691 206.008 39.59.324-5.054 23.055Zm0 0"/><path fill="#7a3175" d="m45.227 229.387 5.054-23.055 23.13 35.3Zm0 0"/><path fill="#98575a" d="m.008 182.73 27.93-9.199 1.183 3.242Zm0 0"/><path fill="#8b4665" d="m.008 182.73 10.683 23.278L.004 211.34Zm0 0"/><path fill="#8b4665" d="M10.691 206.008.008 182.73l29.113-5.957Zm0 0"/><path fill="#c69031" d="m190.91 39.035-17.234 30.262-19.442-40.031Zm0 0"/><path fill="#793075" d="m173.676 69.297-44.531-33.281 25.09-6.75Zm0 0"/><path fill="#f8ce06" d="m131.086 0-1.941 36.016L97.73 16.984Zm0 0"/><path fill="#c58e33" d="M61.035 0h70.05L97.73 16.984Zm0 0"/><path fill="#874169" d="m159.656 126.332-18.492 5.98 9.258-13.125Zm0 0"/><path fill="#9b5a57" d="m141.164 132.313-5.855-23.04 15.113 9.915Zm0 0"/><path fill="#c18936" d="M135.309 109.273 116 106.531l8.012-38.25Zm0 0"/><path fill="#fed500" d="m212.684 196.445 12.492-1.933-7.238 24.058Zm0 0"/><path fill="#884268" d="m263.25 198.953-.91-23.027 37.55-.871Zm0 0"/><path fill="#5b0a90" d="m187.617 350.18 11.852 24.836-11.461 9Zm0 0"/><path fill="#5b0a90" d="m199.469 375.016-11.852-24.836 18.918 1.48Zm0 0"/><path fill="#5c0b8f" d="m297.355 314.281 9.165 18.66-22.399 10.106Zm0 0"/><path fill="#5b0a90" d="m306.52 332.941-9.165-18.66 15.313-4.64ZM327.777 338.875l-21.257-5.934 6.148-23.3Zm0 0"/><path fill="#8b4666" d="m86.973 196.266 28.718 38.355-42.28 7.012Zm0 0"/><path fill="#5c0c8f" d="m158.785 217.848 19.887-14.157 2.262 21.793Zm0 0"/><path fill="#5b0a90" d="m133.43 180.55-1.055 29.348-45.402-13.632Zm0 0"/><path fill="#fed600" d="m338.309 37.734 8.91 38.004L312.8 64.414ZM221.188 162.691l24.414-6.41-24.582 17.344Zm0 0"/><path fill="#641588" d="m333.055 162.113 9.035-.601-7.672 13.48Zm0 0"/><path fill="#f9d004" d="m288.223 156.34-17.395-8.985L283 145.852Zm0 0"/><path fill="#641588" d="m270.828 147.355 17.395 8.985-26.078 9.844Zm0 0"/><path fill="#5b0a90" d="M357.324 339.297 384 384h-52.082Zm0 0"/><path fill="#5b0a90" d="m357.324 339.297 26.68-7.86L384 384Zm0 0"/><path fill="#fcd401" d="m348.586 249.27-24.777 3.128 13.546-25.812Zm0 0"/><path fill="#6a1d83" d="m383.996 251.422-22.746 19.074-12.664-21.226Zm0 0"/><path fill="#661887" d="m361.25 270.496 22.746-19.074v18.387Zm0 0"/><path fill="#f6cc07" d="m366.613 288.426-5.363-17.93 22.746-.687Zm0 0"/><path fill="#6a1c82" d="m347.215 190.156-17.184.781 4.387-15.945Zm0 0"/><path fill="#f5ca08" d="m280.18 287.738-29.934-5.226 15.676-21.93Zm0 0"/><path fill="#5e0e8e" d="m250.246 282.512-13.504-15.676 29.18-6.254Zm0 0"/><path fill="#5f0f8c" d="m236.742 266.836-1.27-12.758 30.45 6.504Zm0 0"/><path fill="#fed600" d="m235.473 254.078 1.27 12.758-12.395-8.316Zm0 0"/><path fill="#d6a324" d="m236.742 266.836-18.047 13.715 5.653-22.031Zm0 0"/><path fill="#e7ba15" d="m218.695 280.55 18.047-13.714 13.504 15.676Zm0 0"/><path fill="#efc30d" d="M287.133 70.332 256.68 47.48l40.105-12.69Zm0 0"/><path fill="#fad103" d="M312.8 64.414 296.786 34.79l41.524 2.945Zm0 0"/><path fill="#5c0b8f" d="m177.54 89.18 26.315 13.105L183.515 128Zm0 0"/><path fill="#5b0a90" d="m221.758 110.758-17.903-8.473 27.97-21.601ZM203.855 102.285l17.903 8.473-12.504 17.906Zm0 0"/><path fill="#5b0a90" d="m183.516 128 20.34-25.715 5.398 26.38ZM123.52 350.727l17.148 33.28-51-.015Zm0 0"/><path fill="#5b0a90" d="m156.953 359.625-16.285 24.383-17.148-33.281Zm0 0"/><path fill="#60118c" d="m84.563 311.445-4.715 6.692-2.903-13.25Zm0 0"/><path fill="#fed600" d="m104.887 303.598-13.172-6.059 15.027-8.914Zm0 0"/><path fill="#5f0f8c" d="m61.91 275.938 29.805 21.601-14.77 7.348Zm0 0"/><path fill="#5e0e8d" d="m91.715 297.54-7.153 13.905-7.617-6.558Zm0 0"/><path fill="#fed600" d="m84.563 311.445 7.152-13.906 13.172 6.059Zm0 0"/><path fill="#5c0b8f" d="m91.715 297.54 10.234-21.505 4.793 12.59Zm0 0"/><path fill="#5e0e8d" d="M91.715 297.54 61.91 275.936l40.04.098Zm0 0"/><path fill="#9b5a58" d="m-.012 74.93 38.985 29.336-38.98 26.066Zm0 0"/><path fill="#97555b" d="M38.973 104.266-.012 74.93 41.82 57.535Zm0 0"/><path fill="#a7694d" d="M-.012 74.93.008.012 41.82 57.535Zm0 0"/><path fill="#aa6c4a" d="m97.73 16.984-6.843 41.993-21.985-26.024Zm0 0"/><path fill="#fdd500" d="m90.887 58.977 6.843-41.993 26.282 51.297Zm0 0"/><path fill="#5b0a90" d="m118.691 162.328-31.718 33.938 3.566-37.059Zm0 0"/><path fill="#5c0b8f" d="m90.54 159.207-14.876 21.606-3.82-3.7Zm0 0"/><path fill="#99575a" d="m50.281 206.332 36.692-10.066-13.563 45.367Zm0 0"/><path fill="#86406a" d="M86.973 196.266 50.28 206.332l25.383-25.52Zm0 0"/><path fill="#f4c909" d="m-.004 247.438 10.695-41.43 34.536 23.379Zm0 0"/><path fill="#f7ce06" d="m-.004 247.438.008-36.098 10.687-5.332Zm0 0"/><path fill="#f1c60b" d="m-.004 247.438 45.23-18.051-27.695 27.047Zm0 0"/><path fill="#a16152" d="m166.188 88.031-30.88 21.242-11.296-40.992Zm0 0"/><path fill="#904c61" d="m129.145 36.016 37.042 52.015-42.175-19.75Zm0 0"/><path fill="#7f3770" d="m173.676 69.297-7.488 18.734-37.043-52.015Zm0 0"/><path fill="#fed600" d="m166.188 88.031 7.488-18.734 6.894 4.984Zm0 0"/><path fill="#9c5c56" d="m135.309 109.273 30.879-21.242-15.766 31.156Zm0 0"/><path fill="#fed600" d="m177.54 89.18-11.352-1.149 14.382-13.75ZM177.227 130.27l-11.04-42.239L183.517 128Zm0 0"/><path fill="#7a3174" d="m177.227 130.27-17.57-3.938 6.53-38.3Zm0 0"/><path fill="#e7b914" d="m141.164 132.313 4.527 22.43-13.777-16.434Zm0 0"/><path fill="#fcd402" d="m116 106.531-28.969-10.02 36.98-28.23Zm0 0"/><path fill="#fcd401" d="m87.031 96.512 3.856-37.535 33.125 9.304Zm0 0"/><path fill="#ba813c" d="M90.887 58.977 87.03 96.512 76.398 64.109Zm0 0"/><path fill="#fed500" d="M87.031 96.512 116 106.532l-29.316 8.906Zm0 0"/><path fill="#72277c" d="m64.398 95.207 22.633 1.305-.347 18.926Zm0 0"/><path fill="#792f76" d="m76.398 64.11 10.633 32.402-22.633-1.305Zm0 0"/><path fill="#5d0d8e" d="m121.824 121.922-16.89 18.95-18.25-25.435Zm0 0"/><path fill="#fad004" d="m116 106.531 5.824 15.39-35.14-6.484Zm0 0"/><path fill="#ce9a2a" d="m121.824 121.922 19.34 10.39-9.25 5.997Zm0 0"/><path fill="#c18a36" d="m141.164 132.313-19.34-10.391 13.485-12.649Zm0 0"/><path fill="#be863a" d="M121.824 121.922 116 106.532l19.309 2.741Zm0 0"/><path fill="#5b0a90" d="m104.934 140.871 16.89-18.95 10.09 16.388Zm0 0"/><path fill="#fed600" d="m221.02 173.625 4.156 20.887-12.492 1.933ZM221.02 173.625l-8.336 22.82-3.2-22.257Zm0 0"/><path fill="#fed600" d="m214.43 167.55 6.59 6.075-11.536.563Zm0 0"/><path fill="#fdd501" d="m262.34 175.926 25.883-19.586 11.668 18.715Zm0 0"/><path fill="#5e0d8e" d="m288.223 156.34-25.883 19.586-.195-9.742Zm0 0"/><path fill="#fed600" d="m167.512 236.266 25.562 8.066-21.062 14.203Zm0 0"/><path fill="#5b0a90" d="m167.512 236.266-28.242-1.973 19.515-16.445Zm0 0"/><path fill="#5f0f8d" d="M199.469 375.016 230.707 384l-42.7.016Zm0 0"/><path fill="#5b0a90" d="M282.535 384h-51.828l26.926-19.766Zm0 0"/><path fill="#fdd401" d="m227.54 357.918-28.071 17.098 7.066-23.356Zm0 0"/><path fill="#5b0a90" d="m306.52 332.941-3.368 25.055-19.03-14.95ZM280.813 359.871 282.535 384l-24.902-19.766ZM351.176 309.465l6.148 29.832-17.191-19.895Zm0 0"/><path fill="#5b0a90" d="m357.324 339.297-6.148-29.832 18.828 9.965Zm0 0"/><path fill="#fdd401" d="m351.176 309.465-11.043 9.937-14.281-15.234Zm0 0"/><path fill="#5d0d8e" d="m325.852 304.168 1.925 34.707-15.109-29.234Zm0 0"/><path fill="#f9d004" d="m325.852 304.168 14.28 15.234-12.355 19.473Zm0 0"/><path fill="#5e0d8e" d="m264.273 308.195 15.907-20.457 11.347 14.782Zm0 0"/><path fill="#ebbf10" d="m264.273 308.195-14.027-25.683 29.934 5.226Zm0 0"/><path fill="#6a1d83" d="m115.691 234.621-14.187 18.688-28.094-11.676Zm0 0"/><path fill="#5b0a90" d="m115.691 234.621-28.718-38.355 45.402 13.632Zm0 0"/><path fill="#fed600" d="m123.043 251.258 16.227-16.965-10.715 22.16Zm0 0"/><path fill="#5b0b90" d="m115.691 234.621 23.579-.328-16.227 16.965Zm0 0"/><path fill="#fed600" d="m139.27 234.293 9.734 16.117-20.45 6.043Zm0 0"/><path fill="#5b0a90" d="m139.27 234.293-6.895-24.395 26.41 7.95ZM139.27 234.293l-23.579.328 16.684-24.723ZM133.43 180.55l21.543 14.743-22.598 14.605Zm0 0"/><path fill="#5b0a90" d="m154.973 195.293 3.812 22.555-26.41-7.95Zm0 0"/><path fill="#5d0c8e" d="m154.973 195.293 14.449-9.473 9.25 17.871Zm0 0"/><path fill="#5b0a90" d="m158.785 217.848-3.812-22.555 23.699 8.398Zm0 0"/><path fill="#5c0b8f" d="m156.484 170.023-23.054 10.528 12.261-25.809Zm0 0"/><path fill="#5b0a90" d="m156.484 170.023-1.511 25.27-21.543-14.742Zm0 0"/><path fill="#5c0b8f" d="m154.973 195.293 1.511-25.27 12.938 15.797Zm0 0"/><path fill="#fcd302" d="M338.309 37.734 318.98-.016 384 0Zm0 0"/><path fill="#fed600" d="m384 53.89-45.691-16.156L384 0Zm0 0"/><path fill="#fcd302" d="M296.785 34.79 318.98-.017l19.329 37.75Zm0 0"/><path fill="#fed600" d="m384 101.066-36.781-25.328L384 53.891ZM347.219 75.738l-30.555 9.867-3.863-21.19ZM316.664 85.605l2.258 10.672-4.817-.129ZM332.633 100.23l-15.969-14.625 30.555-9.867Zm0 0"/><path fill="#fed600" d="m316.664 85.605 15.969 14.625-13.711-3.953Zm0 0"/><path fill="#fdd501" d="m324.086 173.012-8.09 17.77-6.969-22.192Zm0 0"/><path fill="#fed600" d="m324.086 173.012 5.945 17.926-14.035-.157ZM324.086 173.012l8.969-10.899 1.363 12.88Zm0 0"/><path fill="#fdd500" d="m330.031 190.938-5.945-17.926 10.332 1.98Zm0 0"/><path fill="#fed600" d="m322.297 156.895-13.27 11.695 5.004-15.3Zm0 0"/><path fill="#5c0b8e" d="m306.793 110.086-8.703-7.344 16.015-6.594Zm0 0"/><path fill="#fed600" d="m318.922 96.277-.473 11.774-4.344-11.903Zm0 0"/><path fill="#5b0a90" d="m318.45 108.05-11.657 2.036 7.312-13.938ZM320.113 137.656l-13.597.614 6.453-13.875ZM288.223 156.34l18.293-18.07 7.515 15.02ZM306.516 138.27l13.597-.614-6.082 15.633Zm0 0"/><path fill="#fed600" d="m174.371 152.805.613 16.976-15.375-11.101Zm0 0"/><path fill="#fdd501" d="m156.484 170.023 18.5-.242-5.562 16.04Zm0 0"/><path fill="#fed600" d="m174.984 169.781-18.5.242 3.125-11.343ZM169.422 185.82l5.562-16.039 12.973 16.313Zm0 0"/><path fill="#fed600" d="m174.984 169.781 17.25 8.758-4.277 7.555Zm0 0"/><path fill="#fed600" d="m174.984 169.781 13.176-11.148 4.074 19.906Zm0 0"/><path fill="#fed600" d="m188.16 158.633-13.176 11.148-.613-16.976Zm0 0"/><path fill="#6e2180" d="m361.535 192.063 9.297-14.684 13.129 25.11Zm0 0"/><path fill="#fed600" d="m370.832 177.379 13.172-12.5-.043 37.61Zm0 0"/><path fill="#fed600" d="m384.004 164.879-13.172 12.5-5.012-12.996Zm0 0"/><path fill="#fed600" d="m384.004 164.879-18.184-.496 5.848-5.082Zm0 0"/><path fill="#70257d" d="m354.54 173.082 16.292 4.297-9.297 14.684Zm0 0"/><path fill="#6f247e" d="m370.832 177.379-16.293-4.297 11.281-8.7Zm0 0"/><path fill="#752b78" d="m354.54 173.082-7.325 17.074-12.797-15.164Zm0 0"/><path fill="#73297a" d="m347.215 190.156 7.324-17.074 6.996 18.98Zm0 0"/><path fill="#5b0a90" d="M303.152 357.996 331.918 384h-49.383Zm0 0"/><path fill="#5b0a90" d="m280.813 359.871 22.34-1.875L282.534 384ZM384.016 305.047l-.012 26.39-14-12.007Zm0 0"/><path fill="#5b0a90" d="m384.004 331.438-26.68 7.859 12.68-19.867Zm0 0"/><path fill="gold" d="m384.016 305.047-5.856-3.934 5.844-1.117Zm0 0"/><path fill="#fed600" d="m384.004 299.996-5.844 1.117 5.836-31.304Zm0 0"/><path fill="#d9a820" d="m378.16 301.113-11.547-12.687 17.383-18.617Zm0 0"/><path fill="#fed600" d="m378.16 301.113-26.984 8.352 15.437-21.04Zm0 0"/><path fill="#5c0b8f" d="m378.16 301.113 5.856 3.934-14.012 14.383Zm0 0"/><path fill="#5b0a90" d="m351.176 309.465 26.984-8.352-8.156 18.317Zm0 0"/><path fill="#71267c" d="m347.215 190.156 14.32 1.906-12.95 57.208Zm0 0"/><path fill="#61118b" d="m347.215 190.156 1.37 59.114-11.23-22.684Zm0 0"/><path fill="#fed600" d="m295.574 223.992 28.235 28.406-33.84-9.843Zm0 0"/><path fill="#772c76" d="m327.027 226.434-10.859-21.602-.172-14.05Zm0 0"/><path fill="#f6cc06" d="m330.031 190.938-3.004 35.496-11.03-35.653Zm0 0"/><path fill="#a36451" d="m192.738 287.746 25.957-7.195.676 26.484Zm0 0"/><path fill="#641588" d="m219.371 307.035-.676-26.484 31.551 1.96Zm0 0"/><path fill="#fdd401" d="m312.8 64.414-13.679 18.082-11.988-12.164Zm0 0"/><path fill="#fed600" d="m214.43 167.55 6.757-4.859-.167 10.934Zm0 0"/><path fill="#fed600" d="m221.188 162.691-6.758 4.86-1.035-7.852Zm0 0"/><path fill="#dbab1f" d="m256.68 47.48-30.106 11.368.742-25.668Zm0 0"/><path fill="#5b0a90" d="m201.555 76.23-24.016 12.95 3.031-14.899ZM201.555 76.23l25.02-17.382 5.25 21.836Zm0 0"/><path fill="#5b0a90" d="m203.855 102.285-2.3-26.055 30.27 4.454Zm0 0"/><path fill="#5c0b8f" d="m201.555 76.23 2.3 26.055L177.54 89.18Zm0 0"/><path fill="#5b0a90" d="m209.254 128.664 13.973 15.719-11.891 1.094Zm0 0"/><path fill="#e5b716" d="m241.477 77.629 28.332 1.676-26.082 32.195Zm0 0"/><path fill="#d3a026" d="m269.809 79.305-28.332-1.676L256.68 47.48Zm0 0"/><path fill="#e3b517" d="m241.477 77.629-14.903-18.781L256.68 47.48Zm0 0"/><path fill="#5d0d8e" d="m115.156 264.137-13.207 11.898-.445-22.726Zm0 0"/><path fill="#5b0b90" d="m155.094 334.352-31.574 16.375 4.617-23.852ZM142.996 306.512l12.098 27.84-26.957-7.477Zm0 0"/><path fill="#5c0b8f" d="m60.086 353.094 29.582 30.898-48.152-.015Zm0 0"/><path fill="#5c0c8f" d="m105.684 328.137 17.836 22.59-31.22-5.477Zm0 0"/><path fill="#5d0d8e" d="m104.934 140.871-35.391-18.898 17.14-6.535Zm0 0"/><path fill="#fbd202" d="m69.543 121.973-8.418-9.758 25.559 3.222Zm0 0"/><path fill="#6e227f" d="m61.125 112.215-5.738 42.379-14.715-3.223Zm0 0"/><path fill="#fdd500" d="m69.543 121.973-14.156 32.62 5.738-42.378Zm0 0"/><path fill="#b27743" d="m90.887 58.977-14.489 5.132-7.496-31.156Zm0 0"/><path fill="#70247d" d="M76.398 64.11 41.82 57.534l27.082-24.582Zm0 0"/><path fill="#5b0a91" d="m133.43 180.55-46.457 15.716 31.718-33.938Zm0 0"/><path fill="#5b0a90" d="m133.43 180.55-14.739-18.222 27-7.586Zm0 0"/><path fill="#5b0a90" d="m104.934 140.871 26.98-2.562-13.223 24.02Zm0 0"/><path fill="#5d0c8e" d="m118.691 162.328 13.223-24.02 13.777 16.434Zm0 0"/><path fill="#60108c" d="m235.473 254.078 39.007-30.039-8.558 36.543Zm0 0"/><path fill="#fed601" d="m149.004 250.41 18.508-14.144 4.5 22.27Zm0 0"/><path fill="#fed601" d="m167.512 236.266-18.508 14.144-9.734-16.117Zm0 0"/><path fill="#5c0b8f" d="m180.934 225.484-13.422 10.782-8.727-18.418Zm0 0"/><path fill="#60108c" d="m167.512 236.266 13.422-10.782 12.14 18.848Zm0 0"/><path fill="#f0c50c" d="m228.277 230.855-47.343-5.37 37.004-6.915Zm0 0"/><path fill="#7e3671" d="m180.934 225.484 47.343 5.371-35.203 13.477Zm0 0"/><path fill="#5b0a90" d="m156.953 359.625 31.055 24.39-47.34-.007Zm0 0"/><path fill="#5b0a90" d="m188.008 384.016-31.055-24.391 30.664-9.445Zm0 0"/><path fill="#5c0b8f" d="m155.094 334.352 1.86 25.273-33.434-8.898Zm0 0"/><path fill="#fed600" d="m157.938 299.25 25.07 2.43-22.785 4.84Zm0 0"/><path fill="#5d0d8e" d="m183.008 301.68 9.73-13.934 26.633 19.29Zm0 0"/><path fill="#5b0a90" d="m183.008 301.68 3.594 22.824-26.38-17.984Zm0 0"/><path fill="#5c0b90" d="m158.39 285.887-.452 13.363-15.008-4.262Zm0 0"/><path fill="#5d0d8e" d="m157.938 299.25.453-13.363 24.617 15.793Zm0 0"/><path fill="#d19e28" d="m225.996 350.559 23.313-21.805 7.507 12.058Zm0 0"/><path fill="#5b0a90" d="m327.777 338.875-24.625 19.121 3.368-25.055ZM357.324 339.297l-29.547-.422 12.356-19.473ZM327.777 338.875l29.547.422L331.918 384Zm0 0"/><path fill="#5b0a90" d="m303.152 357.996 24.625-19.121L331.918 384Zm0 0"/><path fill="#dcab1e" d="m277.086 318.934-20.27 21.878-7.507-12.058Zm0 0"/><path fill="#fdd401" d="m277.086 318.934 20.27-4.653-13.235 28.766ZM277.086 318.934l14.441-16.414 5.828 11.761Zm0 0"/><path fill="#5b0a90" d="m264.273 308.195 12.813 10.739-27.777 9.82Zm0 0"/><path fill="#5c0c8f" d="m291.527 302.52-14.441 16.414-12.813-10.739Zm0 0"/><path fill="#fed600" d="m315.73 293.703 25.332-4.035-15.21 14.5ZM351.176 309.465l-10.113-19.797 25.55-1.242ZM341.063 289.668l10.113 19.797-25.324-5.297Zm0 0"/><path fill="#691b84" d="m348.586 249.27-8.805 32.015-15.972-28.887Zm0 0"/><path fill="#60108c" d="m361.25 270.496-21.469 10.79 8.805-32.016Zm0 0"/><path fill="#5f108c" d="m339.781 281.285 1.281 8.383-25.332 4.035Zm0 0"/><path fill="#e2b319" d="m339.781 281.285 21.469-10.789 5.363 17.93Zm0 0"/><path fill="#5d0d8e" d="m341.063 289.668-1.282-8.383 26.832 7.14Zm0 0"/><path fill="#5c0b8f" d="M280.18 287.738 299.95 286l-8.423 16.52Zm0 0"/><path fill="#62138e" d="m101.504 253.309 14.187-18.688 7.352 16.637Zm0 0"/><path fill="#fed600" d="m384 101.066-31.812 4.211-4.97-29.539ZM326.48 122.59l6.153-22.36 7.148 16.801Zm0 0"/><path fill="#641588" d="m334.762 148.094 5.02-31.063 14.777 28.27Zm0 0"/><path fill="#fed600" d="m332.633 100.23 19.555 5.047-12.407 11.754Zm0 0"/><path fill="#fed600" d="m352.188 105.277-19.555-5.047 14.586-24.492ZM332.633 100.23l-14.184 7.82.473-11.773Zm0 0"/><path fill="#5d0d8e" d="m254.11 148.648 8.035 17.536-16.543-9.903Zm0 0"/><path fill="#fdd401" d="m262.145 166.184-8.036-17.536 16.72-1.293Zm0 0"/><path fill="#fed600" d="M270.828 147.355 281.7 112.7 283 145.852Zm0 0"/><path fill="#e1b219" d="m281.7 112.7-10.872 34.655-8.418-38.312Zm0 0"/><path fill="#671985" d="m342.09 161.512-7.328-13.418 19.797-2.793Zm0 0"/><path fill="#6c1e81" d="m334.762 148.094 7.328 13.418-9.035.601Zm0 0"/><path fill="#fed600" d="m384.004 164.879-17.266-29.133L384 101.066ZM324.086 173.012l-1.79-16.117 10.759 5.218Zm0 0"/><path fill="#fed600" d="m322.297 156.895 1.789 16.117-15.059-4.422Zm0 0"/><path fill="#5b0a90" d="m306.793 110.086 11.656-2.035-5.48 16.344Zm0 0"/><path fill="#fed600" d="m214.43 167.55-7.149-.14 6.114-7.71Zm0 0"/><path fill="#5b0a90" d="m188.16 158.633 19.121 8.777-15.047 11.13ZM192.234 178.54l15.047-11.13 2.203 6.778Zm0 0"/><path fill="#fed600" d="m207.281 167.41 7.149.14-4.946 6.637Zm0 0"/><path fill="#6c1f81" d="m342.09 161.512 12.45 11.57-20.122 1.91Zm0 0"/><path fill="#5c0c8e" d="m337.355 226.586-7.324-35.649 17.184-.78Zm0 0"/><path fill="#5f0e8c" d="m337.355 226.586-10.328-.152 3.004-35.496Zm0 0"/><path fill="#fed600" d="m295.574 223.992 31.453 2.442-3.218 25.964Zm0 0"/><path fill="#5c0b8f" d="m327.027 226.434-31.453-2.442 20.594-19.16Zm0 0"/><path fill="#fdd501" d="m323.809 252.398 3.218-25.964 10.328.152ZM295.574 223.992l2.918-31.422 17.676 12.262Zm0 0"/><path fill="#6a1c83" d="m298.492 192.57-35.242 6.383 36.64-23.898Zm0 0"/><path fill="#5e0d8c" d="m315.996 190.781-17.504 1.79 1.399-17.516Zm0 0"/><path fill="#621389" d="m316.168 204.832-17.676-12.262 17.504-1.789Zm0 0"/><path fill="#651787" d="m193.074 244.332-13.43 23.602-7.632-9.399Zm0 0"/><path fill="#62128a" d="m228.277 230.855-27.34 34.055-7.863-20.578Zm0 0"/><path fill="#641688" d="m200.938 264.91-21.293 3.024 13.43-23.602Zm0 0"/><path fill="#641688" d="m179.645 267.934 21.292-3.024-8.199 22.836Zm0 0"/><path fill="#681b84" d="m200.938 264.91 27.34-34.055-3.93 27.665Zm0 0"/><path fill="#fed600" d="m218.695 280.55-17.757-15.64 23.41-6.39Zm0 0"/><path fill="#ebbf10" d="m192.738 287.746 8.2-22.836 17.757 15.64Zm0 0"/><path fill="#fed600" d="m316.664 85.605-18.574 17.137 1.031-20.246ZM298.09 102.742l18.574-17.137-2.559 10.543Zm0 0"/><path fill="#fdd501" d="m312.8 64.414-25.667 5.918 9.652-35.543Zm0 0"/><path fill="#f7cd06" d="m256.68 47.48 30.453 22.852-17.324 8.973Zm0 0"/><path fill="#fbd203" d="m221.188 162.691 2.039-18.308 22.375 11.898Zm0 0"/><path fill="#5b0a90" d="m211.336 145.477 11.89-1.094-9.831 15.316Zm0 0"/><path fill="#fed600" d="m223.227 144.383-2.04 18.308-7.792-2.992ZM299.121 82.496l-16.86 9.262 4.872-21.426Zm0 0"/><path fill="#f5cb08" d="m269.809 79.305 12.453 12.453-19.852 17.285Zm0 0"/><path fill="#eabd11" d="m282.262 91.758-12.453-12.453 17.324-8.973Zm0 0"/><path fill="#fed600" d="m282.262 91.758 16.86-9.262-1.032 20.246Zm0 0"/><path fill="#5c0b8f" d="m190.91 39.035 10.645 37.195-20.985-1.949Zm0 0"/><path fill="#5b0a90" d="M201.555 76.23 190.91 39.035l35.664 19.813Zm0 0"/><path fill="#fed600" d="m173.676 69.297 17.234-30.262-10.34 35.246Zm0 0"/><path fill="#deae1c" d="M226.574 58.848 190.91 39.035l36.406-5.855Zm0 0"/><path fill="#d8a621" d="m241.477 77.629-9.653 3.055-5.25-21.836Zm0 0"/><path fill="#5d0d8e" d="m221.758 110.758 10.066-30.074 11.903 30.816Zm0 0"/><path fill="#e5b716" d="m231.824 80.684 9.653-3.055 2.25 33.871Zm0 0"/><path fill="#d5a324" d="m269.809 79.305-7.399 29.738-18.683 2.457Zm0 0"/><path fill="#fbd509" d="m115.156 264.137 13.399-7.684.527 27.336Zm0 0"/><path fill="#5c0c8f" d="m128.555 256.453 19.968 17.695-19.441 9.641Zm0 0"/><path fill="#d5a324" d="m104.379 313.844-19.817-2.399 20.325-7.847Zm0 0"/><path fill="#5b0b90" d="m84.563 311.445 19.816 2.399 1.305 14.293Zm0 0"/><path fill="#5b0a90" d="m79.848 318.137 4.715-6.692 21.12 16.692Zm0 0"/><path fill="#fed600" d="m118.102 311.996-13.723 1.848.508-10.246Zm0 0"/><path fill="#5b0a90" d="m129.082 283.79-22.34 4.835-4.793-12.59ZM115.156 264.137l13.926 19.652-27.133-7.754Zm0 0"/><path fill="#fed600" d="m159.61 158.68 4.273-11.77 10.488 5.895ZM163.883 146.91l13.344-16.64-2.856 22.535Zm0 0"/><path fill="#73287b" d="m177.227 130.27-13.344 16.64-4.227-20.578Zm0 0"/><path fill="#86406a" d="m163.883 146.91-22.719-14.597 18.492-5.981Zm0 0"/><path fill="#823a6e" d="m163.883 146.91-18.192 7.832-4.527-22.43Zm0 0"/><path fill="#bf8738" d="m159.61 158.68-3.126 11.343-10.793-15.28Zm0 0"/><path fill="#6f237e" d="m163.883 146.91-4.274 11.77-13.918-3.938Zm0 0"/><path fill="#60108c" d="m228.277 230.855 46.203-6.816-39.007 30.04Zm0 0"/><path fill="#f9cf05" d="m228.277 230.855 7.196 23.223-11.125 4.442Zm0 0"/><path fill="#661886" d="m274.48 224.04-46.203 6.815 34.973-31.902Zm0 0"/><path fill="#631489" d="m228.277 230.855-3.101-36.343 38.074 4.441Zm0 0"/><path fill="#fed600" d="m225.176 194.512 3.101 36.343-10.34-12.285Zm0 0"/><path fill="#5e0e8d" d="m262.145 166.184.195 9.742-16.738-19.645Zm0 0"/><path fill="#5b0a90" d="m247.395 172.262-22.22 22.25-4.155-20.887Zm0 0"/><path fill="#5c0c8f" d="m247.395 172.262 15.855 26.691-38.074-4.441Zm0 0"/><path fill="#5e0e8d" d="m247.395 172.262 14.945 3.664.91 23.027Zm0 0"/><path fill="#fed600" d="m245.602 156.281 1.793 15.98-26.375 1.364Zm0 0"/><path fill="#aa6d4a" d="m262.34 175.926-14.945-3.664-1.793-15.98Zm0 0"/><path fill="#fed600" d="m149.004 250.41-.48 23.738-19.97-17.695ZM183.008 301.68l36.363 5.355-32.77 17.469Zm0 0"/><path fill="#5b0a90" d="m219.371 307.035 14.902 8.54-27.738 36.085Zm0 0"/><path fill="#5c0b8f" d="m187.617 350.18 31.754-43.145-12.836 44.625Zm0 0"/><path fill="#5b0a90" d="m234.273 315.574 30-7.379-14.964 20.559Zm0 0"/><path fill="#5e0e8d" d="m264.273 308.195-30 7.38 15.973-33.063Zm0 0"/><path fill="#60108c" d="m234.273 315.574-14.902-8.539 30.875-24.523Zm0 0"/><path fill="#5b0a90" d="m227.54 357.918 30.093 6.316L230.707 384Zm0 0"/><path fill="#5b0b90" d="M227.54 357.918 230.706 384l-31.238-8.984Zm0 0"/><path fill="#fdd500" d="m225.996 350.559 1.543 7.359-21.004-6.258Zm0 0"/><path fill="#5b0a90" d="m234.273 315.574-8.277 34.985-19.46 1.101Zm0 0"/><path fill="#f9d004" d="m275.758 354.477-21.024-.149 2.082-13.515Zm0 0"/><path fill="#5b0a90" d="m275.758 354.477 5.055 5.394-23.18 4.363Zm0 0"/><path fill="#ddac1d" d="m254.734 354.328 21.024.149-18.125 9.757Zm0 0"/><path fill="#fdd501" d="m277.086 318.934 7.035 24.113-27.305-2.235Zm0 0"/><path fill="#5e0d8e" d="m284.121 343.047-8.363 11.43-18.942-13.664Zm0 0"/><path fill="#5b0a90" d="m275.758 354.477 8.363-11.43-3.308 16.824Zm0 0"/><path fill="#5b0a90" d="m284.121 343.047 19.031 14.95-22.34 1.874Zm0 0"/><path fill="#5f0f8c" d="m299.95 286 3.788 12.898-12.21 3.622Zm0 0"/><path fill="#fed600" d="m303.738 298.898-6.383 15.383-5.828-11.761ZM297.355 314.281l6.383-15.383 8.93 10.743ZM315.73 293.703l10.122 10.465-13.184 5.473Zm0 0"/><path fill="#fed600" d="m303.738 298.898 11.992-5.195-3.062 15.938Zm0 0"/><path fill="#5d0d8e" d="m315.73 293.703-11.992 5.195L299.95 286Zm0 0"/><path fill="#fed600" d="m323.809 252.398-26.149 5.809-7.691-15.652Zm0 0"/><path fill="#e7ba14" d="m297.66 258.207-31.738 2.375 24.047-18.027Zm0 0"/><path fill="#c18936" d="m297.66 258.207-17.48 29.531-14.258-27.156Zm0 0"/><path fill="#6c1f81" d="M297.66 258.207 299.95 286l-19.77 1.738Zm0 0"/><path fill="#fed600" d="m347.219 75.738-8.91-38.004L384 53.891Zm0 0"/><path fill="gold" d="m352.188 105.277 31.812-4.21-17.262 34.68Zm0 0"/><path fill="#5d0c8e" d="m318.45 108.05 8.03 14.54-13.511 1.805Zm0 0"/><path fill="#fed600" d="m332.633 100.23-6.153 22.36-8.03-14.54ZM322.297 156.895l12.465-8.801-1.707 14.02ZM320.113 137.656l2.184 19.239-8.266-3.606Zm0 0"/><path fill="#fcd401" d="m354.559 145.3-14.778-28.269 26.957 18.715Zm0 0"/><path fill="#fed600" d="m339.781 117.031 12.406-11.754 14.551 30.47Zm0 0"/><path fill="gold" d="m366.738 135.746 17.266 29.133-12.336-5.578Zm0 0"/><path fill="#5b0a90" d="m306.516 138.27-12.922-14.141 19.375.266Zm0 0"/><path fill="#5d0c8e" d="m293.594 124.129 13.199-14.043 6.176 14.309Zm0 0"/><path fill="#5b0a90" d="m293.594 124.129 12.922 14.14-18.293 18.07Zm0 0"/><path fill="#fdd501" d="m293.594 124.129-11.895-11.43 16.39-9.957Zm0 0"/><path fill="#5f0e8d" d="m306.793 110.086-13.2 14.043 4.497-21.387Zm0 0"/><path fill="#5b0a90" d="m293.594 124.129-5.371 32.21L283 145.853Zm0 0"/><path fill="#fed600" d="m281.7 112.7 11.894 11.429L283 145.852Zm0 0"/><path fill="#5b0a90" d="m198.566 147.465 8.715 19.945-19.12-8.777Zm0 0"/><path fill="#5b0a90" d="m207.281 167.41-8.715-19.945 14.829 12.234Zm0 0"/><path fill="#5b0a90" d="m198.566 147.465 12.77-1.988 2.059 14.222ZM209.254 128.664l-10.688 18.8L183.516 128ZM198.566 147.465l10.688-18.8 2.082 16.812Zm0 0"/><path fill="#71257d" d="m354.559 145.3-.02 27.782-12.45-11.57Zm0 0"/><path fill="#fed600" d="m312.8 64.414 3.864 21.191-17.543-3.109Zm0 0"/><path fill="#5b0a90" d="m243.727 111.5-17.051 16.355-4.918-17.097Zm0 0"/><path fill="#5b0a90" d="m221.758 110.758 4.918 17.097-17.422.81Zm0 0"/><path fill="#5b0a90" d="m226.676 127.855-3.45 16.528-13.972-15.719Zm0 0"/><path fill="#e7b915" d="M270.828 147.355 243.727 111.5l18.683-2.457Zm0 0"/><path fill="#fed600" d="m243.727 111.5 27.101 35.855-16.719 1.293Zm0 0"/><path fill="#e2cb4d" d="m128.555 256.453-13.399 7.684 7.887-12.88Zm0 0"/><path fill="#5f1292" d="m123.043 251.258-7.887 12.879-13.652-10.828Zm0 0"/><path fill="#fed600" d="m142.996 306.512-24.894 5.484 3.988-13.59Zm0 0"/><path fill="#fed600" d="m142.996 306.512-20.906-8.106 20.84-3.418Zm0 0"/><path fill="#5d0c8f" d="m118.102 311.996 24.894-5.484-14.86 20.363Zm0 0"/><path fill="#fed600" d="m157.938 299.25-14.942 7.262-.066-11.524ZM106.742 288.625l15.348 9.781-17.203 5.192Zm0 0"/><path fill="#fed600" d="m122.09 298.406-3.988 13.59-13.215-8.398Zm0 0"/><path fill="#5b0b90" d="m123.52 350.727-17.836-22.59 22.453-1.262Zm0 0"/><path fill="#5b0a90" d="m105.684 328.137 12.418-16.14 10.035 14.878Zm0 0"/><path fill="#5d0c8e" d="m90.54 159.207-35.153-4.613 14.156-32.621Zm0 0"/><path fill="#5b0a90" d="m55.387 154.594 35.152 4.613-18.695 17.906ZM90.54 159.207l14.394-18.336 13.757 21.457ZM90.54 159.207l-20.997-37.234 35.39 18.898Zm0 0"/><path fill="#5b0b90" d="m160.223 306.52-5.13 27.832-12.097-27.84Zm0 0"/><path fill="#fed600" d="m157.938 299.25 2.285 7.27-17.227-.008Zm0 0"/><path fill="#681b84" d="m186.602 324.504 32.77-17.469-31.755 43.145Zm0 0"/><path fill="#fed600" d="m122.09 298.406 6.992-14.617 13.848 11.2Zm0 0"/><path fill="#5c0b90" d="m129.082 283.79 29.309 2.097-15.461 9.101Zm0 0"/><path fill="#5b0a90" d="m129.082 283.79 19.441-9.642 9.868 11.739Zm0 0"/><path fill="#fed600" d="m227.54 357.918 27.194-3.59 2.899 9.906ZM254.734 354.328l-28.738-3.77 30.82-9.745Zm0 0"/><path fill="#fed600" d="m225.996 350.559 28.738 3.77-27.195 3.589Zm0 0"/><path fill="#5c0b8f" d="m225.996 350.559 8.277-34.985 15.036 13.18Zm0 0"/><path fill="#5c0c8f" d="m314.195 278.871 1.535 14.832L299.95 286Zm0 0"/><path fill="#671a85" d="m297.66 258.207 16.535 20.664L299.95 286Zm0 0"/><path fill="#681a85" d="m314.195 278.871-16.535-20.664 26.149-5.809ZM339.781 281.285l-25.586-2.414 9.614-26.473Zm0 0"/><path fill="#5d0d8e" d="m314.195 278.871 25.586 2.414-24.05 12.418Zm0 0"/><path fill="#fed600" d="m322.297 156.895-2.184-19.239 14.649 10.438Zm0 0"/><path fill="#5b0a90" d="m326.48 122.59-6.367 15.066-7.144-13.261Zm0 0"/><path fill="#f3c80a" d="m282.262 91.758-.563 20.941-19.289-3.656Zm0 0"/><path fill="#fed600" d="m281.7 112.7.562-20.942 15.828 10.984Zm0 0"/><path fill="#fed500" d="m366.738 135.746-.918 28.637L354.56 145.3Zm0 0"/><path fill="#fed600" d="m365.82 164.383.918-28.637 4.93 23.555Zm0 0"/><path fill="#70247e" d="m354.559 145.3 11.261 19.083-11.28 8.699Zm0 0"/><path fill="#5b0a90" d="m198.566 147.465-13.023-.094L183.516 128Zm0 0"/><path fill="#5b0b90" d="m185.543 147.371 13.023.094-10.406 11.168Zm0 0"/><path fill="#fed600" d="m177.227 130.27 8.316 17.101-11.172 5.434Zm0 0"/><path fill="#d5a224" d="m185.543 147.371-8.316-17.101 6.289-2.27Zm0 0"/><path fill="#fed600" d="m185.543 147.371 2.617 11.262-13.789-5.828Zm0 0"/><path fill="#e6b716" d="m274.48 224.04 4.418-.974-12.976 37.516Zm0 0"/><path fill="#ac7048" d="m263.25 198.953 15.648 24.113-4.418.973Zm0 0"/><path fill="#e6b815" d="m265.922 260.582 12.976-37.516 11.07 19.489Zm0 0"/><path fill="#fed600" d="m278.898 223.066 16.676.926-5.605 18.563Zm0 0"/><path fill="#641588" d="m278.898 223.066 19.594-30.496-2.918 31.422Zm0 0"/><path fill="#651688" d="m278.898 223.066-15.648-24.113 35.242-6.383Zm0 0"/><path fill="#5d0d8e" d="m236.777 137.535 6.95-26.035 10.382 37.148Zm0 0"/><path fill="#5e0d8e" d="m236.777 137.535 17.332 11.113-8.507 7.633Zm0 0"/><path fill="#5b0a90" d="m223.227 144.383 13.55-6.848 8.825 18.746ZM226.676 127.855l10.101 9.68-13.55 6.848ZM243.727 111.5l-6.95 26.035-10.101-9.68Zm0 0"/><path fill="#fed600" d="m129.082 283.79-8.797 7.581-13.543-2.746Zm0 0"/><path fill="#fed600" d="m120.285 291.371 1.805 7.035-15.348-9.781Zm0 0"/><path fill="#fed600" d="m120.285 291.371 8.797-7.582-6.992 14.617Zm0 0"/><path fill="#5b0b90" d="m118.102 311.996-12.418 16.14-1.305-14.292Zm0 0"/><path fill="#5c0b8f" d="m158.39 285.887 21.255-17.953 13.093 19.812Zm0 0"/><path fill="#5c0b8f" d="m183.008 301.68-24.617-15.793 34.347 1.86Zm0 0"/><path fill="#5b0a90" d="m156.953 359.625-1.86-25.273 32.524 15.828ZM155.094 334.352l31.508-9.848 1.015 25.676Zm0 0"/><path fill="#5b0a90" d="m186.602 324.504-31.508 9.848 5.129-27.832Zm0 0"/><path fill="#fed600" d="m334.762 148.094-14.649-10.438 19.668-20.625Zm0 0"/><path fill="#fdd501" d="m339.781 117.031-19.668 20.625 6.367-15.066Zm0 0"/><path fill="#671986" d="m179.645 267.934-31.122 6.214 23.489-15.613Zm0 0"/><path fill="#fbd304" d="m148.523 274.148.48-23.738 23.009 8.125Zm0 0"/><path fill="#5e0e8d" d="m158.39 285.887-9.867-11.739 31.122-6.214Zm0 0"/></svg>