<svg xmlns="http://www.w3.org/2000/svg" width="512" height="512" viewBox="0 0 384 384"><path fill="#202215" d="m34.484 270.633 29.391 35.765-22.46 14.887Zm0 0"/><path fill="#202214" d="m78.809 320.629-14.934-14.23 14.355-1.11Zm0 0"/><path fill="#202215" d="M33.938 167.395.008 115.027l39.71 18.391Zm0 0"/><path fill="#202215" d="m.008 115.027 33.93 52.368L0 204.645ZM65.563.004 200.984 0 182.11 20.566ZM177.766 205.613l13.859-25.847 9.547 27.558Zm0 0"/><path fill="#ded684" d="m177.766 205.613-9.48-22.558 23.339-3.29Zm0 0"/><path fill="#202215" d="m383.977 205.797.023 48.258-35.922-7.434Zm0 0"/><path fill="#f29a4a" d="m384.004 283.457-.008 29.656-15.383-27.152Zm0 0"/><path fill="#c9592d" d="M307.988 19.395 297.402 0H384Zm0 0"/><path fill="#202215" d="M226.781 21.605 200.984 0l43.582.023Zm0 0"/><path fill="#202214" d="m69.77 325.832-14.54 14.211-13.816-18.758Zm0 0"/><path fill="#ecac5c" d="m55.23 340.043 14.54-14.211 15.347 11.316Zm0 0"/><path fill="#202215" d="m63.875 306.398 5.895 19.434-28.356-4.547Zm0 0"/><path fill="#202215" d="m78.809 320.629-9.04 5.203-5.894-19.434Zm0 0"/><path fill="#f29a4a" d="M83.887 362.121 55.23 340.043l29.887-2.895Zm0 0"/><path fill="#202214" d="m56.309 152.613 9.062 15.606-31.433-.824Zm0 0"/><path fill="#202215" d="m56.309 152.613-22.371 14.782 5.78-33.977Zm0 0"/><path fill="#953b3b" d="m97.434 187.738 30.046 24.067-31.425-3.61Zm0 0"/><path fill="#202215" d="M38.207 46.828-.003 0l65.566.004Zm0 0"/><path fill="#51300a" d="m77.691 40.797 53.645-23.871-10.84 68.863Zm0 0"/><path fill="#202215" d="M131.336 16.926 65.562.004 182.11 20.566Zm0 0"/><path fill="#202215" d="m77.691 40.797-39.484 6.031L65.563.004Zm0 0"/><path fill="#953b3b" d="m210.75 197.96 16.402 9.727-25.98-.363Zm0 0"/><path fill="#963c3c" d="m310.18 168.77-14.13-3.602 19.387-14.617Zm0 0"/><path fill="#953c3b" d="m296.05 165.168 14.13 3.602-10.832 24.648Zm0 0"/><path fill="#202215" d="m191.625 179.766 19.125 18.195-9.578 9.363Zm0 0"/><path fill="#ded684" d="m210.75 197.96-19.125-18.194 17.457-9.262Zm0 0"/><path fill="#202215" d="m356.555 195.914 27.422 9.883-35.899 40.824Zm0 0"/><path fill="#943b3b" d="m310.18 168.77 10.246 39.757-21.078-15.109Zm0 0"/><path fill="#c9592d" d="M244.566.023 297.402 0l-12.57 24.121ZM251.156 36.629l26.215 18.66-12.98 6.063Zm0 0"/><path fill="#202215" d="m232.855 50.844 18.301-14.215 13.235 24.723Zm0 0"/><path fill="#202215" d="m226.781 21.605 24.375 15.024-18.3 14.215Zm0 0"/><path fill="#864324" d="M251.156 36.629 244.566.023l40.266 24.098Zm0 0"/><path fill="#202215" d="m244.566.023 6.59 36.606-24.375-15.024Zm0 0"/><path fill="#c8592d" d="m307.988 19.395-23.156 4.726L297.402 0Zm0 0"/><path fill="#c9592d" d="m251.156 36.629 33.676-12.508-7.46 31.168Zm0 0"/><path fill="#f29949" d="m277.371 55.29 7.461-31.169 13.059 26.25Zm0 0"/><path fill="#f29848" d="m284.832 24.121 23.156-4.726-10.097 30.976Zm0 0"/><path fill="#202214" d="m200.984 0 3.75 28.457-22.625-7.89Zm0 0"/><path fill="#202214" d="m226.781 21.605-22.047 6.852L200.984 0Zm0 0"/><path fill="#202215" d="m204.734 28.457 22.047-6.852 6.074 29.239ZM204.734 28.457l-13.562 9.211-9.063-17.102Zm0 0"/><path fill="#ded684" d="m165.836 85.93 13.805-1.813 7.863 20.34Zm0 0"/><path fill="#202215" d="m75.61 283.441-11.735 22.957-29.39-35.765Zm0 0"/><path fill="#202215" d="m63.875 306.398 11.734-22.957 2.621 21.848Zm0 0"/><path fill="#202214" d="M97.605 277.082 84.77 247.664l23.793 14.371Zm0 0"/><path fill="#202215" d="m84.77 247.664-9.16 35.777-41.126-12.808Zm0 0"/><path fill="#202214" d="m75.61 283.441 9.16-35.777 12.835 29.418Zm0 0"/><path fill="#202215" d="M157.086 357.074 169.223 384h-36.387Zm0 0"/><path fill="#f29949" d="m55.23 340.043 28.657 22.078-37.04 21.883Zm0 0"/><path fill="#c9592d" d="m.008 384.02 28.695-19.864 18.145 19.848Zm0 0"/><path fill="#202214" d="m55.23 340.043-26.527 24.113 12.711-42.87Zm0 0"/><path fill="#f29949" d="m28.703 364.156 26.527-24.113-8.382 43.96Zm0 0"/><path fill="#202215" d="M28.703 364.156 0 322.352l41.414-1.067Zm0 0"/><path fill="#202215" d="m0 322.352 28.703 41.804L.008 384.02ZM34.484 270.633 0 322.352v-52.664Zm0 0"/><path fill="#202215" d="m0 322.352 34.484-51.72 6.93 50.653Zm0 0"/><path fill="#f19c4c" d="M109.61 346.504 83.886 362.12l1.23-24.973Zm0 0"/><path fill="#f29a4a" d="m83.887 362.121 25.722-15.617 1.368 20.82Zm0 0"/><path fill="#efa353" d="M85.117 337.148 69.77 325.832l9.039-5.203Zm0 0"/><path fill="#f29b4b" d="m109.61 346.504-24.493-9.356 20.797-7.449Zm0 0"/><path fill="#202215" d="m44.406 99.887 16.403 14.508-21.09 19.023Zm0 0"/><path fill="#202214" d="m.008 115.027 44.398-15.14-4.687 33.531ZM80.7 82.61 44.405 99.886l-6.199-53.059Zm0 0"/><path fill="#202214" d="m60.809 114.395 19.89-31.786 8.727 20.711Zm0 0"/><path fill="#202215" d="m86.82 113.348-26.011 1.047 28.617-11.075Zm0 0"/><path fill="#202214" d="M60.809 114.395 44.406 99.887 80.7 82.609Zm0 0"/><path fill="#202215" d="m65.371 168.219-12.656 44.027-18.778-44.851Zm0 0"/><path fill="#202215" d="m96.055 208.195-43.34 4.051L65.37 168.22Zm0 0"/><path fill="#202214" d="M52.715 212.246 0 204.645l33.938-37.25Zm0 0"/><path fill="#202215" d="m0 204.645 52.715 7.601-18.23 58.387Zm0 0"/><path fill="#202214" d="m34.484 270.633 18.23-58.387 32.056 35.418Zm0 0"/><path fill="#202215" d="M191.172 37.668 178.75 59.945l3.36-39.379ZM178.75 59.945l-47.414-43.02 50.773 3.641Zm0 0"/><path fill="#362707" d="m65.563.004 65.773 16.922-53.645 23.87Zm0 0"/><path fill="#512c25" d="m262.977 192.203 33.074-27.035 3.297 28.25Zm0 0"/><path fill="#ecab5b" d="m294.285 311.32 7.73 9.29-7.413 6.3Zm0 0"/><path fill="#ecac5b" d="m302.016 320.61-7.73-9.29 13.925-2.375Zm0 0"/><path fill="#202215" d="m322.105 320.93-20.09-.32 6.196-11.665Zm0 0"/><path fill="#8c3938" d="m127.48 211.805 30.665-9.133 7.816 23.703Zm0 0"/><path fill="#222215" d="m193.113 223.504-15.347-17.89 23.406 1.71Zm0 0"/><path fill="#522d25" d="m177.766 205.613 15.347 17.89-27.152 2.872Zm0 0"/><path fill="#883937" d="m158.145 202.672 19.62 2.941-11.804 20.762Zm0 0"/><path fill="#ded684" d="m281.73 147.75-10.562-5.719 15.547-6.226Zm0 0"/><path fill="#ded684" d="m271.168 142.031 10.562 5.719-23.476 22.93Zm0 0"/><path fill="#963c3c" d="m296.05 165.168 4.204-24.066 15.183 9.449ZM300.254 141.102l-18.524 6.648 4.985-11.945Zm0 0"/><path fill="#963c3c" d="m281.73 147.75 18.524-6.648-4.203 24.066Zm0 0"/><path fill="#202215" d="M358.328 353.758 384 342.523l-.008 41.497ZM309.102 384.07l49.226-30.312 25.664 30.262Zm0 0"/><path fill="#8e3a39" d="m348.078 246.621-26.75 4.477 9.594-34.52Zm0 0"/><path fill="#202215" d="m384 254.055-19.36 16.363-16.562-23.797ZM364.64 270.418 384 254.055l.004 29.402Zm0 0"/><path fill="#202215" d="m357.215 287.836 7.426-17.418 3.972 15.543Zm0 0"/><path fill="#202214" d="m364.64 270.418 19.364 13.039-15.39 2.504Zm0 0"/><path fill="#f29949" d="m335.156 179.25-3.254-.469 6.844-28.55Zm0 0"/><path fill="#943b3b" d="m278.875 288.504-27.867-1.41 47.37-30.2Zm0 0"/><path fill="#963c3c" d="m251.008 287.094-7.04-9.36 54.41-20.84Zm0 0"/><path fill="#202215" d="m243.969 277.734-5.317-11.18 59.727-9.66Zm0 0"/><path fill="#202215" d="m238.652 266.555 18.47-28.907 41.257 19.247ZM238.652 266.555l-7.804-30.332 26.273 1.425Zm0 0"/><path fill="#943c3b" d="m230.848 236.223 7.804 30.332-13.422-8.785Zm0 0"/><path fill="#252317" d="m238.652 266.555-10.035 7.422-3.387-16.207Zm0 0"/><path fill="#2b2418" d="m228.617 273.977 10.035-7.422 5.317 11.18Zm0 0"/><path fill="#f29b4b" d="m362.621 61.664-31.777 22.004-13.324-24.871Zm0 0"/><path fill="#c8592d" d="m317.52 58.797-9.532-39.402 48.137 13.539Zm0 0"/><path fill="#f29949" d="M317.52 58.797 301.55 76.84l-3.66-26.469Zm0 0"/><path fill="#202215" d="m223.137 56.84-18.403-28.383 28.121 22.387Zm0 0"/><path fill="#973f3d" d="m179.64 84.117 24.973 17.32-17.11 3.02Zm0 0"/><path fill="#963c3c" d="m204.613 101.438 20.426-1.024-5.254 24.406Zm0 0"/><path fill="#953b3b" d="m204.613 101.438-8.34 20.789-8.77-17.77Zm0 0"/><path fill="#953b3b" d="m196.273 122.227 8.34-20.79 15.172 23.383Zm0 0"/><path fill="#e1ce7c" d="m114.633 313.645-15.688-7.895 4.305-13.727Zm0 0"/><path fill="#202214" d="M135.047 357.383 132.836 384l-11.379-28.04Zm0 0"/><path fill="#202214" d="m135.047 357.383 22.039-.309L132.836 384ZM110.977 367.324 132.836 384l-37.086-.004Zm0 0"/><path fill="#202214" d="m132.836 384-21.86-16.676 10.481-11.363ZM84.879 310.098l-6.07 10.53-.579-15.339Zm0 0"/><path fill="#e0d180" d="m98.945 305.75-4.132-12.223 8.437-1.504Zm0 0"/><path fill="#202215" d="m75.61 283.441 19.203 10.086L78.23 305.29Zm0 0"/><path fill="#202214" d="m94.813 293.527-9.934 16.57-6.649-4.808Zm0 0"/><path fill="#dfd684" d="m84.879 310.098 9.933-16.57 4.133 12.222Zm0 0"/><path fill="#202214" d="m94.813 293.527 2.792-16.445 5.645 14.941Zm0 0"/><path fill="#202214" d="m94.813 293.527-19.204-10.086 21.996-6.359Zm0 0"/><path fill="#202215" d="M44.406 99.887.008 115.027l38.199-68.199Zm0 0"/><path fill="#202215" d="M.008 115.027-.004 0l38.211 46.828Zm0 0"/><path fill="#dcd282" d="m73.828 124.82-13.02-10.425 26.012-1.047Zm0 0"/><path fill="#953b3b" d="m120.852 166.914 6.628 44.89-30.046-24.066ZM120.852 166.914l-18.63-32.726 17.442-12.297Zm0 0"/><path fill="#ded684" d="m97.434 187.738-1.38 20.457-30.683-39.976Zm0 0"/><path fill="#202215" d="m52.715 212.246 43.34-4.05-11.285 39.468ZM0 269.688v-65.043l34.484 65.988ZM131.336 16.926l34.5 69.004-45.34-.14Zm0 0"/><path fill="#202215" d="M178.75 59.945 165.836 85.93l-34.5-69.004Zm0 0"/><path fill="#ded684" d="m165.836 85.93 12.914-25.985 5.375 5.211Zm0 0"/><path fill="#202215" d="m120.496 85.79 45.34.14-11.664 30.336Zm0 0"/><path fill="#ded684" d="m179.64 84.117-13.804 1.813 18.289-20.774ZM176.707 131.605l-3.016-16.792 22.582 7.414Zm0 0"/><path fill="#ded684" d="m196.273 122.227-22.582-7.415 13.813-10.355Zm0 0"/><path fill="#202215" d="m173.691 114.813 3.016 16.792-22.535-15.34Zm0 0"/><path fill="#ded684" d="m173.691 114.813-7.855-28.883 21.668 18.527Zm0 0"/><path fill="#202215" d="m173.691 114.813-19.52 1.453 11.665-30.336ZM154.172 116.266l-1.617 22.23-32.89-16.605Zm0 0"/><path fill="#3c2803" d="m89.426 103.32-8.727-20.71 39.797 3.18Zm0 0"/><path fill="#4e2f0a" d="M80.7 82.61 77.69 40.796l42.805 44.992Zm0 0"/><path fill="#953b3b" d="m119.664 121.89-17.441 12.298-15.403-20.84Zm0 0"/><path fill="#3a2802" d="m89.426 103.32 30.238 18.57-32.844-8.542Zm0 0"/><path fill="#202215" d="m154.172 116.266-34.508 5.625.832-36.102Zm0 0"/><path fill="#3a2802" d="m119.664 121.89-30.238-18.57 31.07-17.53Zm0 0"/><path fill="#953c3c" d="m220.441 178.031 6.711 29.656-16.402-9.726Zm0 0"/><path fill="#963d3c" d="m220.441 178.031-9.691 19.93-1.668-27.457Zm0 0"/><path fill="#202215" d="m220.441 178.031.875-14.215 12.551 3.832Zm0 0"/><path fill="#ded684" d="m221.316 163.816-.875 14.215-11.359-7.527ZM281.73 147.75l14.32 17.418-37.796 5.512Zm0 0"/><path fill="#b19462" d="m258.254 170.68 37.797-5.512-33.074 27.035Zm0 0"/><path fill="#202215" d="m193.113 223.504-25 12.8-2.152-9.929ZM189.906 241.188l-21.793-4.883 25-12.801Zm0 0"/><path fill="#c7592d" d="m208.668 370.305 6.117 13.707-19.969-.028Zm0 0"/><path fill="#202215" d="m208.047 344.918 21.473 10.719-20.852 14.668ZM302.016 320.61l4.175 38.226-11.59-31.926Zm0 0"/><path fill="#202214" d="m256.855 384.004 29.11-15.41 23.137 15.476Zm0 0"/><path fill="#202215" d="m358.328 353.758 6.692-38.867 7.707 25.293Zm0 0"/><path fill="#202215" d="m341.168 320.883 23.852-5.992-6.692 38.867Zm0 0"/><path fill="#f29949" d="m365.02 314.89-23.852 5.993 13.144-15.73Zm0 0"/><path fill="#202215" d="m331.578 308.96-9.473 11.97-13.894-11.985Zm0 0"/><path fill="#f29a4a" d="m331.578 308.96-.984-17.91 23.719 14.102Zm0 0"/><path fill="#202215" d="m341.168 320.883-9.59-11.922 22.735-3.809Zm0 0"/><path fill="#202215" d="m331.578 308.96 9.59 11.923-19.063.047Zm0 0"/><path fill="#212215" d="m264.652 305.61 14.223-17.106 11.277 14.5Zm0 0"/><path fill="#953b3b" d="m264.652 305.61-13.644-18.516 27.867 1.41Zm0 0"/><path fill="#dfd684" d="m294.285 311.32-16.558 5.723 12.425-14.04Zm0 0"/><path fill="#202214" d="m277.727 317.043-13.075-11.434 25.5-2.605ZM84.77 247.664l40.171 5.281-16.379 9.09Zm0 0"/><path fill="#98423e" d="m122.95 244.063 4.53-32.258 14.098 21.91Zm0 0"/><path fill="#202215" d="m122.95 244.063-38.18 3.601 11.285-39.469Zm0 0"/><path fill="#be9364" d="m127.48 211.805-4.53 32.257-26.895-35.867Zm0 0"/><path fill="#36271c" d="m168.113 236.305-26.535-2.59 24.383-7.34Zm0 0"/><path fill="#ddd383" d="m141.578 233.715 26.535 2.59-21.843 21.691Zm0 0"/><path fill="#723430" d="m141.578 233.715-14.098-21.91 38.48 14.57Zm0 0"/><path fill="#953c3b" d="m145.73 183.04 22.555.015-10.14 19.617Zm0 0"/><path fill="#963c3c" d="m168.285 183.055 9.48 22.558-19.62-2.941Zm0 0"/><path fill="#973e3d" d="m158.3 171.938-12.57 11.101.168-27.168Zm0 0"/><path fill="#963c3c" d="m158.3 171.938 9.985 11.117-22.555-.016Zm0 0"/><path fill="#c9592d" d="m356.125 32.934-48.137-13.54L384 0Zm0 0"/><path fill="#f29949" d="m384 106.418-21.379-44.754 21.39-12.715Zm0 0"/><path fill="#f29949" d="m358.375 105.16 4.246-43.496L384 106.418Zm0 0"/><path fill="#f29949" d="m358.375 105.16-27.531-21.492 31.777-22.004ZM337.984 112.29l-7.14-28.622 27.531 21.492Zm0 0"/><path fill="#ded684" d="m271.168 142.031 3.402-11.328 12.145 5.102Zm0 0"/><path fill="#f19e4e" d="m331.902 178.781-11.476 29.746-10.246-39.757Zm0 0"/><path fill="#f29949" d="m331.902 178.781-8.394-24.449 15.238-4.102Zm0 0"/><path fill="#f29b4b" d="M323.508 154.332 310.18 168.77l5.257-18.22Zm0 0"/><path fill="#963c3c" d="m300.879 113.125-4.762-9.242 17.735-6.653Zm0 0"/><path fill="#963c3c" d="m300.879 113.125-6.43-.375 1.668-8.867ZM300.254 141.102l10.445-14.918 4.738 24.367ZM310.7 126.184l16.257-.239-11.52 24.606Zm0 0"/><path fill="#b37a59" d="m188.8 159.063-20.515 23.992.774-26.207Zm0 0"/><path fill="#ded584" d="m168.285 183.055-9.984-11.118 10.758-15.09Zm0 0"/><path fill="#963c3c" d="m168.285 183.055 20.516-23.993 2.824 20.704Zm0 0"/><path fill="#202215" d="m356.555 195.914 12.02-31.535 15.402 41.418Zm0 0"/><path fill="#f29949" d="M368.574 164.379 384 150.219l-.023 55.578Zm0 0"/><path fill="#f29949" d="m384 150.219-15.426 14.16-3.297-11.73Zm0 0"/><path fill="#f29949" d="m384 150.219-18.723 2.43 2.485-7.376Zm0 0"/><path fill="#202215" d="m353.594 160.047 14.98 4.332-12.02 31.535Zm0 0"/><path fill="#202215" d="m368.574 164.379-14.98-4.332 11.683-7.399ZM353.594 160.047l-18.438 19.203 3.59-29.02ZM335.156 179.25l18.438-19.203 2.96 35.867Zm0 0"/><path fill="#202214" d="m285.965 368.594 20.226-9.758 2.91 25.234Zm0 0"/><path fill="#ce843f" d="m384 342.523-25.672 11.235 14.399-13.574Zm0 0"/><path fill="#202215" d="m384 342.523-18.98-27.632 18.976-1.778Zm0 0"/><path fill="#f29949" d="m383.996 313.113-18.976 1.778 3.593-28.93ZM365.02 314.89l-7.805-27.054 11.398-1.875Zm0 0"/><path fill="#202215" d="M365.02 314.89 384 342.524l-11.273-2.34Zm0 0"/><path fill="#202214" d="m330.922 216.578 4.234-37.328 21.399 16.664Zm0 0"/><path fill="#202215" d="m330.922 216.578 25.633-20.664-8.477 50.707Zm0 0"/><path fill="#8c3938" d="m278.613 222.387 42.715 28.71-22.95 5.798Zm0 0"/><path fill="#202215" d="m191.18 284.48 10.738-17.484 17.062 42.856ZM201.918 266.996l26.7 6.98-9.638 35.876Zm0 0"/><path fill="#202215" d="m228.617 273.977-5.781 37.914-3.856-2.04Zm0 0"/><path fill="#202215" d="m222.836 311.89 21.133-34.156 7.039 9.36Zm0 0"/><path fill="#202215" d="m222.836 311.89 5.781-37.913 15.352 3.757Zm0 0"/><path fill="#f29949" d="m362.621 61.664-45.101-2.867 38.605-25.863Zm0 0"/><path fill="#202215" d="m221.316 163.816 3.657-18.996 8.894 22.828Zm0 0"/><path fill="#ded684" d="m224.973 144.82-3.657 18.996-9.535-4.394Zm0 0"/><path fill="#953b3b" d="m215.395 140.563-19.122-18.336 23.512 2.593Zm0 0"/><path fill="#a45a4a" d="M205.633 73.516 179.64 84.117l4.484-18.96Zm0 0"/><path fill="#963c3c" d="m205.633 73.516 17.504-16.676 1.902 43.574Zm0 0"/><path fill="#953c3b" d="m204.613 101.438 1.02-27.922 19.406 26.898Zm0 0"/><path fill="#953c3c" d="m205.633 73.516-1.02 27.921-24.972-17.32Zm0 0"/><path fill="#202214" d="m261.371 88.21-11.715 5.853-16.8-43.22Zm0 0"/><path fill="#202215" d="m249.656 94.063-26.52-37.223 9.72-5.996Zm0 0"/><path fill="#ded684" d="m146.27 257.996-21.329-5.05 16.637-19.231Zm0 0"/><path fill="#202215" d="m113.082 266.54-15.477 10.542 10.957-15.047Zm0 0"/><path fill="#f29a4a" d="m135.18 339.535-25.57 6.969 17.085-18.512Zm0 0"/><path fill="#f29949" d="m153.523 317.332-18.343 22.203-8.485-11.543Zm0 0"/><path fill="#f29a4a" d="m83.887 362.121 11.863 21.875-48.902.008Zm0 0"/><path fill="#f19c4c" d="m95.75 383.996-11.863-21.875 27.09 5.203Zm0 0"/><path fill="#f19c4b" d="m109.61 346.504 11.847 9.457-10.48 11.363Zm0 0"/><path fill="#f29a4a" d="m135.18 339.535-13.723 16.426-11.848-9.457Zm0 0"/><path fill="#202214" d="m121.457 355.96 13.723-16.425-.133 17.848Zm0 0"/><path fill="#a9664f" d="m102.223 134.188-21.625-1.801 6.222-19.04Zm0 0"/><path fill="#ded684" d="m80.598 132.387-6.77-7.567 12.992-11.472Zm0 0"/><path fill="#202215" d="M60.809 114.395 58.105 139l-18.386-5.582Zm0 0"/><path fill="#ded684" d="M73.828 124.82 58.105 139l2.704-24.605Zm0 0"/><path fill="#202215" d="m58.105 139-1.796 13.613-16.59-19.195Zm0 0"/><path fill="#ded684" d="M80.598 132.387 58.105 139l15.723-14.18Zm0 0"/><path fill="#202214" d="M77.691 40.797 80.7 82.609 38.207 46.83Zm0 0"/><path fill="#963c3c" d="m145.73 183.04-18.25 28.765-6.628-44.89Zm0 0"/><path fill="#953b3b" d="m127.48 211.805 18.25-28.766 12.415 19.633Zm0 0"/><path fill="#963c3c" d="m145.73 183.04-24.878-16.126 25.046-11.043Zm0 0"/><path fill="#202215" d="m152.555 138.496-6.657 17.375-26.234-33.98Zm0 0"/><path fill="#953b3b" d="m145.898 155.871-25.046 11.043-1.188-45.023Zm0 0"/><path fill="#9f5045" d="m188.8 159.063-19.741-2.215 10.363-19.739Zm0 0"/><path fill="#202215" d="m220.441 178.031 25.723 22.621-19.012 7.036ZM230.848 236.223l15.316-35.57 10.957 36.995Zm0 0"/><path fill="#ded684" d="m168.113 236.305 21.793 4.882-20.875 16.926Zm0 0"/><path fill="#903a3a" d="m227.152 207.688-34.039 15.816 8.059-16.18Zm0 0"/><path fill="#953b3b" d="m230.848 236.223-37.735-12.72 34.04-15.815Zm0 0"/><path fill="#212215" d="m193.113 223.504 37.735 12.719-40.942 4.964Zm0 0"/><path fill="#202214" d="m135.18 339.535 21.906 17.54-22.04.308Zm0 0"/><path fill="#f0a151" d="m156.223 301.234 13.422-1.054-2.22 10.75Zm0 0"/><path fill="#202214" d="m183.934 304.27-14.29-4.09 21.536-15.7Zm0 0"/><path fill="#202215" d="m183.934 304.27 7.246-19.79 27.8 25.372ZM183.934 304.27l-10.371 29.644-6.137-22.984Zm0 0"/><path fill="#f0a151" d="m169.645 300.18 14.289 4.09-16.508 6.66Zm0 0"/><path fill="#202214" d="m157.785 288.133-1.562 13.101-10.54-5.648ZM156.223 301.234l1.562-13.101 11.86 12.047Zm0 0"/><path fill="#dfd684" d="m231.176 338.836 19.676-8.906-2.168 12.89Zm0 0"/><path fill="#e0d381" d="m250.852 329.93 8.8 8.898-10.968 3.992Zm0 0"/><path fill="#202214" d="m256.855 384.004.368-18.285 28.742 2.875ZM322.105 320.93l.602 19.336-20.691-19.657ZM322.707 340.266l-16.516 18.57-4.175-38.227Zm0 0"/><path fill="#f29949" d="m322.707 340.266 18.461-19.383 17.16 32.875Zm0 0"/><path fill="#202214" d="m341.168 320.883-18.461 19.383-.602-19.336Zm0 0"/><path fill="#c7592d" d="m322.707 340.266 35.621 13.492-49.226 30.312Zm0 0"/><path fill="#c9592d" d="m306.191 358.836 16.516-18.57-13.605 43.804Zm0 0"/><path fill="#f29b4b" d="m259.652 338.828-2.43 26.89-8.538-22.898Zm0 0"/><path fill="#dfd583" d="m277.727 317.043-18.075 21.785-8.8-8.898Zm0 0"/><path fill="#e9b766" d="m277.727 317.043 16.558-5.723.317 15.59Zm0 0"/><path fill="#202215" d="m264.652 305.61 13.075 11.433-26.875 12.887Zm0 0"/><path fill="#f29a4a" d="m330.594 291.05 26.62-3.214-2.901 17.316Zm0 0"/><path fill="#f29949" d="m357.215 287.836 7.805 27.055-10.707-9.739Zm0 0"/><path fill="#833735" d="m348.078 246.621-5.387 21.746-21.363-17.27Zm0 0"/><path fill="#202215" d="m364.64 270.418-21.949-2.05 5.387-21.747Zm0 0"/><path fill="#202215" d="m342.691 268.367 14.524 19.469-26.621 3.215Zm0 0"/><path fill="#202215" d="m342.691 268.367 21.95 2.051-7.426 17.418ZM278.875 288.504l22.371-2.125-11.094 16.625ZM84.77 247.664l38.18-3.601 1.991 8.882Zm0 0"/><path fill="#dfd684" d="m124.941 252.945-1.992-8.882 18.63-10.348Zm0 0"/><path fill="#c9592d" d="M356.125 32.934 384 0l.012 48.95Zm0 0"/><path fill="#f29949" d="m368.586 130.3-10.211-25.14L384 106.418Zm0 0"/><path fill="#f29848" d="m337.984 112.29 20.391-7.13-3.566 24.832Zm0 0"/><path fill="#f29949" d="m337.984 112.29-24.132-15.06 16.992-13.562Zm0 0"/><path fill="#963c3c" d="m252.254 142.02 6 28.66-16.836-17.551Zm0 0"/><path fill="#212215" d="m258.254 170.68-6-28.66 18.914.011Zm0 0"/><path fill="#ded684" d="m274.57 130.703 4.762-9.808 7.383 14.91Zm0 0"/><path fill="#202215" d="m279.332 120.895-4.762 9.808-8.175-16.219Zm0 0"/><path fill="#202214" d="m249.656 94.063 11.715-5.852 5.024 26.273Zm0 0"/><path fill="#202215" d="m349.832 148.426-11.086 1.804 9.192-8.39Zm0 0"/><path fill="#202215" d="m360.152 144.703-10.32 3.723-1.894-6.586Zm0 0"/><path fill="#f29949" d="M384 150.219 368.586 130.3 384 106.418ZM323.508 154.332l8.394 24.45-21.722-10.012Zm0 0"/><path fill="#953c3b" d="m300.879 113.125 12.973-15.895-3.153 28.954Zm0 0"/><path fill="#ded684" d="m221.316 163.816-12.234 6.688 2.7-11.082ZM188.8 159.063l20.282 11.44-17.457 9.263Zm0 0"/><path fill="#202215" d="m349.832 148.426 3.762 11.62-14.848-9.816Zm0 0"/><path fill="#f29949" d="m365.277 152.648-5.125-7.945 7.61.57Zm0 0"/><path fill="#202215" d="m353.594 160.047 6.558-15.344 5.125 7.945ZM349.832 148.426l10.32-3.723-6.558 15.344Zm0 0"/><path fill="#f29b4b" d="m330.922 216.578.98-37.797 3.254.469ZM320.426 208.527l11.476-29.746-.98 37.797Zm0 0"/><path fill="#953b3b" d="m278.613 222.387 38.075 3.715 4.64 24.996Zm0 0"/><path fill="#222215" d="m316.688 226.102-38.075-3.715 20.735-28.969Zm0 0"/><path fill="#202215" d="m321.328 251.098-4.64-24.996 14.234-9.524Zm0 0"/><path fill="#202215" d="m316.688 226.102 3.738-17.575 10.496 8.051ZM320.426 208.527l-3.738 17.575-17.34-32.684ZM187.984 272.445l13.934-5.449-10.738 17.484Zm0 0"/><path fill="#973f3d" d="m189.906 241.188-1.922 31.257-18.953-14.332Zm0 0"/><path fill="#30251a" d="m230.848 236.223-28.93 30.773-12.012-25.808Zm0 0"/><path fill="#903a3a" d="m201.918 266.996-13.934 5.45 1.922-31.259Zm0 0"/><path fill="#212215" d="m201.918 266.996 28.93-30.773-5.618 21.547Zm0 0"/><path fill="#242216" d="m228.617 273.977-26.699-6.98 23.312-9.227Zm0 0"/><path fill="#f29949" d="m301.55 76.84 29.294 6.828-16.992 13.562Zm0 0"/><path fill="#f29949" d="m296.117 103.883 5.434-27.043 12.3 20.39Zm0 0"/><path fill="#f29848" d="m317.52 58.797-19.63-8.426 10.098-30.976Zm0 0"/><path fill="#202214" d="m261.371 88.21 3.02-26.858 10.39 21.628Zm0 0"/><path fill="#202215" d="m264.39 61.352-3.019 26.859-28.516-37.367Zm0 0"/><path fill="#f29949" d="m301.55 76.84-24.179-21.55 20.52-4.919Zm0 0"/><path fill="#c7592d" d="m264.39 61.352 12.981-6.063-2.59 27.691Zm0 0"/><path fill="#202215" d="m233.867 167.648-8.894-22.828 16.445 8.309Zm0 0"/><path fill="#963c3c" d="m215.395 140.563 9.578 4.257-13.192 14.602Zm0 0"/><path fill="#963c3c" d="m219.785 124.82 5.188 20-9.578-4.257Zm0 0"/><path fill="#f29949" d="m285.145 83.637-7.774-28.348 24.18 21.55Zm0 0"/><path fill="#c2572c" d="m285.145 83.637-10.364-.657 2.59-27.69Zm0 0"/><path fill="#f29949" d="m285.145 83.637 16.406-6.797-5.434 27.043Zm0 0"/><path fill="#202215" d="m274.57 130.703-12.347.113 4.172-16.332ZM262.223 130.816l8.945 11.215-18.914-.011Zm0 0"/><path fill="#212215" d="m262.223 130.816 12.347-.113-3.402 11.328Zm0 0"/><path fill="#953c3c" d="m194.422 41.129 11.21 32.387-21.507-8.36Zm0 0"/><path fill="#963c3c" d="m205.633 73.516-11.211-32.387 28.715 15.71Zm0 0"/><path fill="#ded684" d="m178.75 59.945 15.672-18.816-10.297 24.027ZM194.422 41.129 178.75 59.945l12.422-22.277Zm0 0"/><path fill="#202215" d="m204.734 28.457-10.312 12.672-3.25-3.461ZM223.137 56.84l-28.715-15.711 10.312-12.672Zm0 0"/><path fill="#b9885f" d="m223.137 56.84 14.426 39.945-12.524 3.63Zm0 0"/><path fill="#202215" d="m249.656 94.063-12.094 2.722-14.425-39.945ZM113.082 266.54l13.754 9.5-5.934 2.82Zm0 0"/><path fill="#dfd684" d="m95.207 320.02-10.328-9.922 14.066-4.348Zm0 0"/><path fill="#e2cd7b" d="m114.633 313.645-19.426 6.375 3.738-14.27Zm0 0"/><path fill="#f29a49" d="m95.207 320.02 19.426-6.375-8.719 16.054Zm0 0"/><path fill="#f29b4b" d="m85.117 337.148 10.09-17.128 10.707 9.68Zm0 0"/><path fill="#eea656" d="m95.207 320.02-10.09 17.128-6.308-16.52Zm0 0"/><path fill="#e0d381" d="m84.879 310.098 10.328 9.922-16.398.609Zm0 0"/><path fill="#202215" d="m111.746 284.707-8.496 7.316-5.645-14.941ZM113.082 266.54l-1.336 18.167-14.14-7.625Zm0 0"/><path fill="#202215" d="m111.746 284.707 1.336-18.168 7.82 12.32Zm0 0"/><path fill="#953c3c" d="m88.36 155.89-7.762-23.503 21.625 1.8Zm0 0"/><path fill="#ded684" d="m169.059 156.848 7.648-25.243 2.715 5.504Zm0 0"/><path fill="#202215" d="m176.707 131.605-24.152 6.891 1.617-22.23ZM160.45 155.438l-2.15 16.5-12.402-16.067Zm0 0"/><path fill="#ded684" d="m158.3 171.938 2.15-16.5 8.609 1.41Zm0 0"/><path fill="#202215" d="m152.555 138.496 7.894 16.941-14.55.434Zm0 0"/><path fill="#202215" d="m176.707 131.605-16.258 23.833-7.894-16.942Zm0 0"/><path fill="#ded684" d="m160.45 155.438 16.257-23.833-7.648 25.243Zm0 0"/><path fill="#212215" d="m230.848 236.223-3.696-28.536 19.012-7.035ZM258.254 170.68l4.723 21.523-16.813 8.45Zm0 0"/><path fill="#202215" d="m233.867 167.648 12.297 33.004-25.723-22.62Zm0 0"/><path fill="#222215" d="m233.867 167.648 24.387 3.032-12.09 29.972Zm0 0"/><path fill="#202215" d="m258.254 170.68-24.387-3.032 7.551-14.52ZM157.086 357.074l29.172 2.324L169.223 384ZM169.223 384l17.035-24.602 8.558 24.586Zm0 0"/><path fill="#202214" d="m194.816 383.984-8.558-24.586 22.41 10.907Zm0 0"/><path fill="#202215" d="m186.258 359.398 21.789-14.48.621 25.387Zm0 0"/><path fill="#202214" d="m155.074 336.668-19.894 2.867 18.343-22.203ZM155.074 336.668l2.012 20.406-21.906-17.539Zm0 0"/><path fill="#202215" d="m222.836 311.89-25.168 24.883 21.312-26.921Zm0 0"/><path fill="#c6582d" d="m197.668 336.773-13.734-32.503 35.046 5.582Zm0 0"/><path fill="#202215" d="m183.934 304.27 13.734 32.503-24.106-2.859ZM197.668 336.773l25.168-24.882-14.79 33.027Zm0 0"/><path fill="#202215" d="m186.258 359.398 11.41-22.625 10.379 8.145ZM238.64 318.094l26.012-12.485-13.8 24.32Zm0 0"/><path fill="#202215" d="m264.652 305.61-26.011 12.484 12.367-31ZM238.64 318.094l-15.804-6.203 28.172-24.797ZM238.64 318.094l12.212 11.836-19.676 8.906Zm0 0"/><path fill="#3a2802" d="m234.852 368.727 22.37-3.008-.367 18.285Zm0 0"/><path fill="#392802" d="m214.785 384.012 20.067-15.285 22.003 15.277Zm0 0"/><path fill="#392702" d="m234.852 368.727-20.067 15.285-6.117-13.707Zm0 0"/><path fill="#efa252" d="m229.52 355.637 5.332 13.09-26.184 1.578Zm0 0"/><path fill="#202214" d="m225.547 337.453 3.973 18.184-21.473-10.719ZM225.547 337.453l5.629 1.383-1.656 16.8Zm0 0"/><path fill="#202215" d="m222.836 311.89 2.71 25.563-17.5 7.465Zm0 0"/><path fill="#f19d4d" d="m282 351.926-24.777 13.793 2.43-26.89Zm0 0"/><path fill="#202215" d="M257.223 365.719 282 351.926l3.965 16.668Zm0 0"/><path fill="#e3c977" d="m282 351.926-4.273-34.883 16.875 9.867Zm0 0"/><path fill="#e3ca78" d="M277.727 317.043 282 351.926l-22.348-13.098Zm0 0"/><path fill="#202215" d="M306.191 358.836 282 351.926l12.602-25.016Zm0 0"/><path fill="#202214" d="m282 351.926 24.191 6.91-20.226 9.758Zm0 0"/><path fill="#202215" d="m301.246 286.379 3.73 11.473-14.824 5.152Zm0 0"/><path fill="#dfd482" d="m304.977 297.852-10.692 13.468-4.133-8.316Zm0 0"/><path fill="#e1cf7d" d="m294.285 311.32 10.692-13.468 3.234 11.093Zm0 0"/><path fill="#f29949" d="m330.594 291.05.984 17.91-23.367-.015Zm0 0"/><path fill="#e4c775" d="m304.977 297.852 25.617-6.801-22.383 17.894Zm0 0"/><path fill="#202215" d="m330.594 291.05-25.617 6.802-3.73-11.473ZM298.379 256.895l2.867 29.484-22.371 2.125Zm0 0"/><path fill="#c9592d" d="m362.621 61.664-6.496-28.73 27.887 16.015Zm0 0"/><path fill="#953c3b" d="m313.852 97.23 13.105 28.715-16.258.239Zm0 0"/><path fill="#f29949" d="m337.984 112.29-11.027 13.655-13.105-28.715Zm0 0"/><path fill="#c8592d" d="m347.938 141.84-20.981-15.895 27.852 4.047ZM326.957 125.945l11.027-13.656 16.825 17.703Zm0 0"/><path fill="#f29949" d="m326.957 125.945-3.45 28.387-8.07-3.781Zm0 0"/><path fill="#f29849" d="m360.152 144.703-5.343-14.71 13.777.308Zm0 0"/><path fill="#202215" d="m354.809 129.992 5.343 14.711-12.214-2.863Zm0 0"/><path fill="#f29949" d="m354.809 129.992 3.566-24.832 10.21 25.14Zm0 0"/><path fill="#202215" d="m283.434 107.563-4.102 13.332-12.937-6.41Zm0 0"/><path fill="#e1ce7d" d="m279.332 120.895 4.102-13.332 11.015 5.187Zm0 0"/><path fill="#202215" d="m261.371 88.21 22.063 19.353-17.04 6.921Zm0 0"/><path fill="#f29949" d="m367.762 145.273.824-14.972L384 150.219Zm0 0"/><path fill="#963c3c" d="m292.563 125.332 8.316-12.207 9.82 13.059Zm0 0"/><path fill="#963c3c" d="m292.563 125.332 18.136.852-10.445 14.918Zm0 0"/><path fill="#ded684" d="m292.563 125.332-13.231-4.437 15.117-8.145Zm0 0"/><path fill="#963c3c" d="m300.879 113.125-8.317 12.207 1.887-12.582ZM292.563 125.332l7.69 15.77-13.538-5.297Zm0 0"/><path fill="#ded684" d="m279.332 120.895 13.23 4.437-5.847 10.473ZM211.781 159.422l-2.699 11.082-20.281-11.441Zm0 0"/><path fill="#963c3c" d="m215.395 140.563-3.614 18.859-15.508-37.195Zm0 0"/><path fill="#5e2f29" d="m299.348 193.418-20.735 28.969-15.636-30.184Zm0 0"/><path fill="#212215" d="m262.977 192.203 15.636 30.184-32.449-21.735Zm0 0"/><path fill="#f29949" d="m301.55 76.84 15.97-18.043 13.324 24.871Zm0 0"/><path fill="#202215" d="m243.922 116.71-6.36-19.925 12.094-2.722ZM243.922 116.71l5.734-22.647 16.739 20.421ZM262.223 130.816l-18.301-14.105 22.473-2.227Zm0 0"/><path fill="#202215" d="m243.922 116.71 18.3 14.106-9.968 11.204Zm0 0"/><path fill="#963d3c" d="m243.922 116.71-18.883-16.296 12.524-3.629Zm0 0"/><path fill="#ded684" d="m126.836 276.04-1.895-23.095 21.329 5.051Zm0 0"/><path fill="#dfd684" d="m124.941 252.945 1.895 23.094-13.754-9.5Zm0 0"/><path fill="#202215" d="m124.941 252.945-11.859 13.594-4.52-4.504Zm0 0"/><path fill="#f29949" d="m141.05 307.598 12.473 9.734-26.828 10.66Zm0 0"/><path fill="#f29949" d="m114.633 313.645 26.418-6.047-14.356 20.394Zm0 0"/><path fill="#f29a4a" d="m156.223 301.234-15.172 6.364 4.633-12.012Zm0 0"/><path fill="#f29a4a" d="m141.05 307.598 15.173-6.364-2.7 16.098Zm0 0"/><path fill="#f29949" d="m126.695 327.992-20.78 1.707 8.718-16.054Zm0 0"/><path fill="#ded684" d="M68.605 149.262 58.105 139l22.493-6.613Zm0 0"/><path fill="#ddd383" d="m88.36 155.89-19.755-6.628 11.993-16.875Zm0 0"/><path fill="#ded684" d="m56.309 152.613 12.296-3.351-3.234 18.957ZM58.105 139l10.5 10.262-12.296 3.351Zm0 0"/><path fill="#953b3b" d="m120.852 166.914-32.493-11.023 13.864-21.703Zm0 0"/><path fill="#f19d4d" d="m153.523 317.332 2.7-16.098 11.203 9.696Zm0 0"/><path fill="#202215" d="m173.563 333.914 24.105 2.86-11.41 22.624ZM145.684 295.586l.574-19.82 11.527 12.367Zm0 0"/><path fill="#f09f4f" d="m234.852 368.727 4.988-16.297 17.383 13.289Zm0 0"/><path fill="#f29b4b" d="m257.223 365.719-17.383-13.29 8.844-9.609Zm0 0"/><path fill="#e0d280" d="m239.84 352.43-8.664-13.594 17.508 3.984Zm0 0"/><path fill="#dfd482" d="m231.176 338.836 8.664 13.594-10.32 3.207Zm0 0"/><path fill="#f0a050" d="m239.84 352.43-4.988 16.297-5.332-13.09Zm0 0"/><path fill="#202215" d="m225.547 337.453 13.094-19.36-7.465 20.743Zm0 0"/><path fill="#202215" d="m238.64 318.094-13.093 19.36-2.711-25.563ZM318.328 271.09l12.266 19.96-29.348-4.671Zm0 0"/><path fill="#202215" d="m298.379 256.895 19.95 14.195-17.083 15.289Zm0 0"/><path fill="#202215" d="m318.328 271.09-19.95-14.195 22.95-5.797ZM342.691 268.367l-24.363 2.723 3-19.992Zm0 0"/><path fill="#202215" d="m318.328 271.09 24.363-2.723-12.097 22.684Zm0 0"/><path fill="#f29949" d="m360.152 144.703 8.434-14.402-.824 14.972Zm0 0"/><path fill="#f29848" d="m323.508 154.332 3.449-28.387 11.79 24.285Zm0 0"/><path fill="#212215" d="M283.434 107.563 261.37 88.21l13.41-5.23Zm0 0"/><path fill="#f29949" d="m283.434 107.563 1.71-23.926 10.973 20.246Zm0 0"/><path fill="#c76230" d="m285.145 83.637-1.711 23.926-8.653-24.583Zm0 0"/><path fill="#963c3c" d="m294.45 112.75-11.016-5.187 12.683-3.68Zm0 0"/><path fill="#ded684" d="m211.781 159.422-22.984-23.676 7.476-13.52Zm0 0"/><path fill="#ded684" d="m188.797 135.746 22.984 23.676-22.98-.36ZM176.707 131.605l12.09 4.141-9.375 1.363Zm0 0"/><path fill="#ded684" d="m188.797 135.746-12.09-4.14 19.566-9.38ZM188.797 135.746l.004 23.316-9.38-21.953Zm0 0"/><path fill="#212215" d="m246.164 200.652 32.45 21.735-21.493 15.261Zm0 0"/><path fill="#202215" d="m257.121 237.648 21.492-15.261 19.766 34.508Zm0 0"/><path fill="#96403d" d="m233.664 126.86 10.258-10.15 8.332 25.31Zm0 0"/><path fill="#9a4540" d="m233.664 126.86 18.59 15.16-10.836 11.109Zm0 0"/><path fill="#963c3c" d="m224.973 144.82 8.691-17.96 7.754 26.269ZM233.664 126.86l-8.691 17.96-5.188-20Zm0 0"/><path fill="#963c3c" d="m225.04 100.414 8.624 26.445-13.879-2.039Zm0 0"/><path fill="#b9875f" d="m243.922 116.71-10.258 10.15-8.625-26.446Zm0 0"/><path fill="#f19b4b" d="m111.746 284.707 9.219 15.156-17.715-7.84Zm0 0"/><path fill="#e0d17f" d="m120.965 299.863-6.332 13.782-11.383-21.622Zm0 0"/><path fill="#dfd583" d="m114.633 313.645 6.332-13.782 20.086 7.735Zm0 0"/><path fill="#f29949" d="m120.965 299.863 24.719-4.277-4.633 12.012Zm0 0"/><path fill="#f29b4b" d="m105.914 329.7 20.781-1.708-17.086 18.512Zm0 0"/><path fill="#953b3b" d="m88.36 155.89 32.492 11.024-23.418 20.824Zm0 0"/><path fill="#ded684" d="m88.36 155.89 9.074 31.848-32.063-19.52Zm0 0"/><path fill="#dacc80" d="m68.605 149.262 19.754 6.629-22.988 12.328Zm0 0"/><path fill="#202215" d="m182 278.816 5.984-6.37 3.196 12.034Zm0 0"/><path fill="#202215" d="M169.645 300.18 182 278.816l9.18 5.664ZM157.785 288.133 182 278.816l-12.355 21.364Zm0 0"/><path fill="#202215" d="m154.656 273.496 27.344 5.32-24.215 9.317Zm0 0"/><path fill="#202215" d="m146.258 275.766 8.398-2.27 3.13 14.637Zm0 0"/><path fill="#ded684" d="m146.258 275.766.012-17.77 8.386 15.5Zm0 0"/><path fill="#202214" d="m153.523 317.332 20.04 16.582-18.489 2.754Zm0 0"/><path fill="#202214" d="m155.074 336.668 18.488-2.754-16.476 23.16Zm0 0"/><path fill="#202215" d="m173.563 333.914-20.04-16.582 13.903-6.402ZM157.086 357.074l16.476-23.16 12.696 25.484Zm0 0"/><path fill="#c95a2e" d="m326.957 125.945 20.98 15.895-9.19 8.39Zm0 0"/><path fill="#202215" d="m127.656 286.648-15.91-1.941 9.156-5.848Zm0 0"/><path fill="#f29b4b" d="m127.656 286.648-6.691 13.215-9.219-15.156Zm0 0"/><path fill="#202215" d="m126.836 276.04.82 10.608-6.754-7.789Zm0 0"/><path fill="#dfd684" d="m146.258 275.766-18.602 10.882-.82-10.609ZM145.684 295.586l-18.028-8.938 18.602-10.882Zm0 0"/><path fill="#f29b4b" d="m120.965 299.863 6.691-13.215 18.028 8.938Zm0 0"/><path fill="#ded584" d="m146.27 257.996 22.761.117-14.375 15.383Zm0 0"/><path fill="#ded684" d="m169.031 258.113-22.761-.117 21.843-21.691Zm0 0"/><path fill="#953b3b" d="m182 278.816-12.969-20.703 18.953 14.332Zm0 0"/><path fill="#963c3c" d="M169.031 258.113 182 278.816l-27.344-5.32Zm0 0"/><path fill="#ded684" d="m146.27 257.996-.012 17.77-19.422.273Zm0 0"/></svg>