<svg xmlns="http://www.w3.org/2000/svg" width="512" height="512" viewBox="0 0 384 384"><path fill="#1e2738" d="m38.719 264.422 31.133 36.168-29.223 19.23Zm0 0"/><path fill="#1c2537" d="M93.168 39.414 65.766 0h69.398ZM190.238 40.559l-18.191-8.668 19.652 4.722ZM135.164 0h60.652l-23.77 31.89Zm0 0"/><path fill="#222537" d="m186.922 216.656-7.5-13.207 15.129-.258Zm0 0"/><path fill="#1d2537" d="m179.422 203.45 11.59-22.778 3.539 22.52Zm0 0"/><path fill="#ee5155" d="m179.422 203.45-1.578-25.036 13.168 2.258Zm0 0"/><path fill="#e06767" d="m384.012 270.926-.02 30.086-16.762-13.645Zm0 0"/><path fill="#96474b" d="m46.422 384.008-46.379-.024 33.914-21.527Zm0 0"/><path fill="#1d2637" d="M73.594 324.219 55.66 340.19l-15.031-20.37Zm0 0"/><path fill="#d95e5f" d="m55.66 340.191 17.934-15.972 1.535 17.586Zm0 0"/><path fill="#1c2637" d="m69.852 300.59 3.742 23.629-32.965-4.399Zm0 0"/><path fill="#e65e5f" d="m99.61 376.844-24.481-35.04 25.355 8.56Zm0 0"/><path fill="#1c2537" d="m42.563 132.465 15.566 22.68-22.547.605Zm0 0"/><path fill="#f04f53" d="m106.617 173.613 17.227 26.008-33.36-1.184Zm0 0"/><path fill="#1c2537" d="M43.707 50.004 0 0h65.766Zm0 0"/><path fill="#1c2637" d="M0 73.215V0l43.707 50.004Zm0 0"/><path fill="#1c2537" d="m93.168 39.414 49.672 8.809-24.395 24.265ZM142.84 48.223 135.164 0l36.883 31.89Zm0 0"/><path fill="#1c2637" d="m93.168 39.414-49.461 10.59L65.766 0Zm0 0"/><path fill="#1c2537" d="m171.64 107.508-1.03 15.39-11.81-13.156ZM172.047 31.89 195.817 0l-4.118 36.613Zm0 0"/><path fill="#222537" d="m215.805 220.758-28.883-4.102 7.629-13.465Zm0 0"/><path fill="#1f2537" d="m210.973 191.672 4.832 29.086-21.254-17.567Zm0 0"/><path fill="#f04e52" d="m355.059.008-17.364 40.367L327.085.012Zm0 0"/><path fill="#1d2537" d="m191.012 180.672 19.96 11-16.421 11.52Zm0 0"/><path fill="#e36464" d="m210.973 191.672-19.961-11 15.117-10.848Zm0 0"/><path fill="#ec5558" d="m191.012 180.672-5.16-13.57 20.277 2.722Zm0 0"/><path fill="#202537" d="m365.555 203.55 18.46 4.009-35.995 38.203Zm0 0"/><path fill="#ef4f52" d="m305.629 162.168 8.57 17.352-15.129-8.477Zm0 0"/><path fill="#1c2537" d="m237.766 42.617 14.98-5.851 8.684 17.808Zm0 0"/><path fill="#1c2537" d="m243.828.004 8.918 36.762-14.98 5.851Zm0 0"/><path fill="#eb4f53" d="m261.777.004-9.03 36.762L243.827.004Zm0 0"/><path fill="#99242d" d="m283.371 0 2.192 25.8L261.777.005Zm0 0"/><path fill="#272537" d="m300.168-.012-14.606 25.813L283.373 0Zm0 0"/><path fill="#992b33" d="m285.563 25.8-32.817 10.966L261.777.004Zm0 0"/><path fill="#992b33" d="M252.746 36.766 285.562 25.8 261.43 54.574Zm0 0"/><path fill="#9a262e" d="m261.43 54.574 24.132-28.773 4.22 36.101Zm0 0"/><path fill="#f04e52" d="m285.563 25.8 30.324 31.044-26.106 5.058Zm0 0"/><path fill="#f04e52" d="M315.887 56.844 285.563 25.8 300.168-.012Zm0 0"/><path fill="#1c2537" d="m195.816 0 3.836 43.008-7.953-6.395Zm0 0"/><path fill="#1c2537" d="m243.828.004-44.176 43.004L195.816 0ZM199.652 43.008 243.828.004l-6.062 42.613Zm0 0"/><path fill="#1c2637" d="m199.652 43.008-9.414-2.45 1.461-3.945Zm0 0"/><path fill="#1c2537" d="m249.969 64.82-12.203-22.203 23.664 11.957Zm0 0"/><path fill="#1c2638" d="m82.465 279.227-43.746-14.805 37.734-23.082Zm0 0"/><path fill="#1d2638" d="m38.719 264.422 43.746 14.805-12.613 21.363Zm0 0"/><path fill="#1c2637" d="m82.465 279.227-6.012-37.887 32.594 42.832Zm0 0"/><path fill="#1c2537" d="m93.875 221.645 2.527-12.72 7.887 8.25Zm0 0"/><path fill="#ef5054" d="m123.844 199.621-27.442 9.305-5.918-10.488Zm0 0"/><path fill="#ec5558" d="m96.402 208.926 27.442-9.305-19.555 17.555Zm0 0"/><path fill="#c5928b" d="m55.66 340.191 2.7 21.09-24.403 1.176Zm0 0"/><path fill="#986362" d="m58.36 361.281-11.938 22.727-12.465-21.551Zm0 0"/><path fill="#bc9991" d="m75.129 341.805-16.77 19.476-2.699-21.09Zm0 0"/><path fill="#e06363" d="m58.36 361.281 16.769-19.476 24.48 35.039Zm0 0"/><path fill="#905f60" d="m.043 383.984 33.043-22.789.871 1.262Zm0 0"/><path fill="#1c2537" d="m55.66 340.191-22.574 21.004 7.543-41.375Zm0 0"/><path fill="#cf7f7a" d="m33.086 361.195 22.574-21.004-21.703 22.266Zm0 0"/><path fill="#2f2d3c" d="M33.086 361.195.023 325.723l40.606-5.903Zm0 0"/><path fill="#2a2c3c" d="m.023 325.723 33.063 35.472-33.043 22.79Zm0 0"/><path fill="#95cebd" d="m38.719 264.422-38.696 61.3v-51.96Zm0 0"/><path fill="#676467" d="m.023 325.723 38.696-61.301 1.91 55.398Zm0 0"/><path fill="#e75d5f" d="m75.129 341.805 26.887-3.332-1.532 11.89Zm0 0"/><path fill="#d27d7a" d="m73.594 324.219 15.23 3.027-13.695 14.559Zm0 0"/><path fill="#e95a5c" d="m88.824 327.246 13.192 11.227-26.887 3.332Zm0 0"/><path fill="#1c2537" d="m35.41 97.145 25.961 19.109-18.809 16.21Zm0 0"/><path fill="#1c2537" d="m0 131.352 35.41-34.207 7.153 35.32ZM73.895 77.605 35.41 97.145l8.297-47.141Zm0 0"/><path fill="#1c2637" d="m61.371 116.254 12.524-38.649 18.343 20.31Zm0 0"/><path fill="#1c2637" d="m86.582 114.91-25.21 1.344 30.866-18.34Zm0 0"/><path fill="#1c2537" d="m61.371 116.254-25.96-19.11 38.484-19.539Zm0 0"/><path fill="#1e2537" d="m58.129 155.145-1.77 54.421-20.777-53.816Zm0 0"/><path fill="#1c2637" d="m81.602 188.273-25.243 21.293 1.77-54.421Zm0 0"/><path fill="#a56b6a" d="M56.36 209.566-.017 226.117l35.598-70.367Zm0 0"/><path fill="#8f8983" d="m-.016 226.117 56.375-16.55-17.64 54.855Zm0 0"/><path fill="#95beaf" d="m38.719 264.422 17.64-54.856 20.094 31.774Zm0 0"/><path fill="#1c2537" d="m0 131.352 42.563 1.113-6.981 23.285Zm0 0"/><path fill="#1c2537" d="M-.016 226.117 0 131.352l35.582 24.398ZM190.238 40.559l-10.37 16.14-7.821-24.808ZM179.867 56.7l-37.027-8.477 29.207-16.332ZM135.164 0l7.676 48.223-49.672-8.809ZM170.61 122.898l-22.04 4.207 10.23-17.363Zm0 0"/><path fill="#1c2537" d="m148.57 127.105-16.082-24.773 26.313 7.41ZM132.488 102.332l-40.25-4.418 26.207-25.426Zm0 0"/><path fill="#2e2536" d="m295.824 321.55 10.473 7.81-22.293 21.132Zm0 0"/><path fill="#292536" d="m306.297 329.36-10.473-7.81 19.723-23.566Zm0 0"/><path fill="#262537" d="m320.543 322.906-14.246 6.453 9.25-31.375Zm0 0"/><path fill="#bba399" d="m114.926 266.152 10.238-19.879 14.086-9.27Zm0 0"/><path fill="#e85a5c" d="m123.188 225.59.656-25.969 15.406 37.383Zm0 0"/><path fill="#2b2536" d="m160.531 236 18.89-32.55 7.5 13.206Zm0 0"/><path fill="#2d2536" d="M123.844 199.621 160.53 236l-21.281 1.004Zm0 0"/><path fill="#3e2434" d="m164.246 180.566-40.402 19.055-3.75-31.715Zm0 0"/><path fill="#43323f" d="m283.098 150.7-15.508 4.956 16.45-9.48Zm0 0"/><path fill="#ee5255" d="m283.098 150.7.941-4.524 21.59 15.992Zm0 0"/><path fill="#3b2534" d="m360.684 346.031 23.328 37.965-50.168.012Zm0 0"/><path fill="#97222b" d="m360.684 346.031-26.84 37.977-8.61-43.078Zm0 0"/><path fill="#94222b" d="m348.02 245.762-26.602 8.343 12.953-30.828Zm0 0"/><path fill="#1d2537" d="m384.016 207.559-40.422 64.875 4.426-26.672Zm0 0"/><path fill="#1d2537" d="m343.594 272.434 40.422-64.875-.004 63.367Zm0 0"/><path fill="#4b2533" d="m345.656 289.04-2.062-16.606 23.636 14.933Zm0 0"/><path fill="#8f2b33" d="m343.594 272.434 40.418-1.508-16.782 16.441Zm0 0"/><path fill="#812933" d="M279.145 285.887 261.94 306.12l5.172-41.164Zm0 0"/><path fill="#8b4147" d="m261.941 306.121-16.449-25.488 21.621-15.676Zm0 0"/><path fill="#2b2637" d="M245.492 280.633 233.91 253.28l33.203 11.676Zm0 0"/><path fill="#392635" d="m233.91 253.281 9.899-9.594 23.304 21.27Zm0 0"/><path fill="#e26464" d="m217.313 282.316 16.597-29.035 11.582 27.352Zm0 0"/><path fill="#99232c" d="m284.508 75.535-23.078-20.96 28.351 7.327Zm0 0"/><path fill="#f04e52" d="m315.887 56.844 13.937 20.668-28.414-.477ZM337.695 40.375l-21.808 16.469 8.183-20.172Zm0 0"/><path fill="#1c2638" d="m223.488 57.996-23.836-14.988 38.114-.39Zm0 0"/><path fill="#302535" d="m223.57 100.094-15.578 2.133 6.07-23.395Zm0 0"/><path fill="#312535" d="m207.992 102.227 15.578-2.133-5.445 20.582Zm0 0"/><path fill="#282536" d="m207.992 102.227-10.804 14.972-9.364-17.484Zm0 0"/><path fill="#252537" d="m197.188 117.2 10.804-14.973 10.133 18.449Zm0 0"/><path fill="#ed5356" d="m125.82 295.18-16.86 19.285.317-25.344Zm0 0"/><path fill="#1c2537" d="m98.219 384 1.39-7.156 36.278-14.32Zm0 0"/><path fill="#1c2537" d="M155.54 383.996 98.218 384l37.668-21.477Zm0 0"/><path fill="#df6364" d="m122.098 352.363-22.489 24.48.875-26.48Zm0 0"/><path fill="#1d2537" d="m99.61 376.844 22.488-24.48 13.789 10.16Zm0 0"/><path fill="#1d2637" d="M83.86 312.777 73.593 324.22l-3.742-23.63Zm0 0"/><path fill="#ea575a" d="m108.96 314.465-14.358-20.719 14.675-4.625Zm0 0"/><path fill="#1c2537" d="m82.465 279.227 12.137 14.52-24.75 6.843Zm0 0"/><path fill="#1c2537" d="m94.602 293.746-10.743 19.031-14.007-12.187Zm0 0"/><path fill="#da706f" d="m83.86 312.777 10.742-19.03 14.359 20.718Zm0 0"/><path fill="#1d2637" d="m94.602 293.746 14.445-9.574.23 4.95Zm0 0"/><path fill="#1c2637" d="m94.602 293.746-12.137-14.52 26.582 4.946Zm0 0"/><path fill="#1c2537" d="m0 73.215 35.41 23.93L0 131.352ZM35.41 97.145 0 73.215l43.707-23.211Zm0 0"/><path fill="#ea575a" d="m70.71 125.75-9.339-9.496 25.211-1.344Zm0 0"/><path fill="#ee4d51" d="m106.617 173.613 13.477-5.707 3.75 31.715Zm0 0"/><path fill="#f04e52" d="m87.04 182.965 19.577-9.352-16.133 24.825Zm0 0"/><path fill="#ed5255" d="m81.602 188.273 5.437-5.308 3.445 15.472Zm0 0"/><path fill="#f04e52" d="m87.04 182.965-5.438 5.308-23.473-33.128Zm0 0"/><path fill="#1d2638" d="m81.121 208.203 12.754 13.442-17.422 19.695Zm0 0"/><path fill="#8ca197" d="m56.36 209.566 24.761-1.363-4.668 33.137Zm0 0"/><path fill="#95b3a6" d="m81.121 208.203-24.762 1.363 25.243-21.293Zm0 0"/><path fill="#1e2637" d="m81.121 208.203 15.281.723-2.527 12.719Zm0 0"/><path fill="#222638" d="m81.121 208.203.48-19.93 8.883 10.165Zm0 0"/><path fill="#1c2537" d="m96.402 208.926-15.28-.723 9.362-9.766Zm0 0"/><path fill="#908a84" d="m-.016 226.117 38.735 38.305-38.696 9.34Zm0 0"/><path fill="#1c2537" d="m166.875 87.191-34.387 15.141-14.043-29.844Zm0 0"/><path fill="#1c2537" d="m142.84 48.223 24.035 38.968-48.43-14.703ZM179.867 56.7 166.875 87.19 142.84 48.223Zm0 0"/><path fill="#9ad7c4" d="M166.875 87.191 179.867 56.7l1.297 27.54Zm0 0"/><path fill="#1c2537" d="m132.488 102.332 34.387-15.14-8.074 22.55Zm0 0"/><path fill="#1c2537" d="m166.875 87.191 4.766 20.317-12.84 2.234Zm0 0"/><path fill="#e85a5c" d="M187.824 99.715 166.875 87.19l14.29-2.953Zm0 0"/><path fill="#e65d5f" d="m166.875 87.191 20.95 12.524-16.184 7.793Zm0 0"/><path fill="#ed5356" d="m176.43 121.316 20.757-4.117-9.48 18.676Zm0 0"/><path fill="#e55f60" d="m181.066 137.277-4.636-15.96 11.277 14.558Zm0 0"/><path fill="#ed5356" d="m197.188 117.2-20.758 4.116 11.394-21.601Zm0 0"/><path fill="#1c2637" d="m176.43 121.316 4.636 15.961-10.457-14.379Zm0 0"/><path fill="#e56061" d="m176.43 121.316-4.79-13.808 16.184-7.793Zm0 0"/><path fill="#1c2537" d="m176.43 121.316-5.82 1.582 1.03-15.39ZM148.57 127.105l4.5 16.625-13.39 3.836ZM92.238 97.914 73.895 77.605l44.55-5.117Zm0 0"/><path fill="#1c2537" d="m73.895 77.605 19.273-38.19 25.277 33.073Zm0 0"/><path fill="#d87471" d="m120.402 122.531-5.511 16.364-28.309-23.985Zm0 0"/><path fill="#1c2637" d="m92.238 97.914 28.164 24.617-33.82-7.62Zm0 0"/><path fill="#1c2537" d="m120.402 122.531 28.168 4.574-8.89 20.461Zm0 0"/><path fill="#1c2537" d="m148.57 127.105-28.168-4.574 12.086-20.199Zm0 0"/><path fill="#1c2537" d="M120.402 122.531 92.238 97.914l40.25 4.418Zm0 0"/><path fill="#e95457" d="m114.89 138.895 5.512-16.364 19.278 25.035Zm0 0"/><path fill="#ee4e52" d="m219.934 176.418-8.961 15.254-4.844-21.848Zm0 0"/><path fill="#89222c" d="m299.07 171.043-26.894 6.426-4.586-21.813Zm0 0"/><path fill="#562633" d="m283.098 150.7 15.972 20.343-31.48-15.387Zm0 0"/><path fill="#ef5053" d="m299.07 171.043-15.972-20.344 22.53 11.469Zm0 0"/><path fill="#e36363" d="m160.531 236 27.371 6.875-28.68 11.367Zm0 0"/><path fill="#392737" d="m195.129 384.027 5.922-9.504 15.66 9.45Zm0 0"/><path fill="#eb5558" d="m230.07 354.027-29.02 20.496 3.782-22.972Zm0 0"/><path fill="#392535" d="m306.297 329.36.234 29.269-22.527-8.137Zm0 0"/><path fill="#232637" d="m260.316 384.008 2.297-8.942 43.25 8.938Zm0 0"/><path fill="#e7494e" d="m351.2 313 9.484 33.031-35.45-5.101Zm0 0"/><path fill="#76232e" d="M360.684 346.031 351.199 313 384 335.688Zm0 0"/><path fill="#8e252f" d="M338.195 322.121 351.2 313l-25.965 27.93Zm0 0"/><path fill="#ed5255" d="m351.2 313-13.005 9.121.418-14.86Zm0 0"/><path fill="#262537" d="m327.309 311.719-6.766 11.187-4.996-24.922Zm0 0"/><path fill="#f04e52" d="m327.309 311.719 1.261-20.168 10.043 15.71Zm0 0"/><path fill="#ef4e52" d="M338.195 322.121 327.31 311.72l11.304-4.457Zm0 0"/><path fill="#372535" d="m327.309 311.719 10.886 10.402-17.652.785Zm0 0"/><path fill="#1d2537" d="m274.8 304.441 4.345-18.554 13.359 15.699Zm0 0"/><path fill="#1c2537" d="m274.8 304.441-2.59 14.079-10.269-12.399Zm0 0"/><path fill="#252537" d="m274.8 304.441-12.859 1.68 17.204-20.234Zm0 0"/><path fill="#1c2537" d="m274.8 304.441 17.704-2.855-20.293 16.934Zm0 0"/><path fill="#e36363" d="m115.793 234.035 8.504.64.867 11.598Zm0 0"/><path fill="#1e2637" d="m115.793 234.035-21.918-12.39 10.414-4.47Zm0 0"/><path fill="#eb5759" d="m115.793 234.035 7.394-8.445 1.11 9.086Zm0 0"/><path fill="#ea585b" d="m123.844 199.621-.656 25.969-18.899-8.414Zm0 0"/><path fill="#e85b5d" d="m123.188 225.59-7.395 8.445-11.504-16.86Zm0 0"/><path fill="#e65e5f" d="m124.297 234.676 14.953 2.328-14.086 9.27Zm0 0"/><path fill="#ea575a" d="m139.25 237.004-14.953-2.328-1.11-9.086Zm0 0"/><path fill="#2f2536" d="M164.246 180.566 160.531 236l-36.687-36.379Zm0 0"/><path fill="#eb5659" d="m164.246 180.566 13.598-2.152 1.578 25.035Zm0 0"/><path fill="#322636" d="m160.531 236 3.715-55.434 15.176 22.883Zm0 0"/><path fill="#e9595b" d="m170.184 166.18-5.938 14.386-8.601-13.129Zm0 0"/><path fill="#ef5053" d="m164.246 180.566 5.938-14.386 7.66 12.234Zm0 0"/><path fill="#f04e52" d="m355.059.008 5.546 32.844-22.91 7.523Zm0 0"/><path fill="#84232d" d="m355.059.008 28.945-.016-23.399 32.86Zm0 0"/><path fill="#242537" d="M315.887 56.844 300.168-.012l23.902 36.684Zm0 0"/><path fill="#712732" d="m300.168-.012 26.918.024-3.016 36.66Zm0 0"/><path fill="#f04e52" d="m384 115.09-26.969-22.024 26.973-38.492ZM329.824 77.512l27.207 15.554-26.582 20.618Zm0 0"/><path fill="#f04e52" d="m329.824 77.512.625 36.172L305.855 99ZM329.824 77.512l25.02-20.602 2.187 36.156Zm0 0"/><path fill="#432534" d="m267.59 155.656-10.164 11.895-17.985-23.832Zm0 0"/><path fill="#9fcebd" d="m267.59 155.656 5.855-16.363 10.594 6.883Zm0 0"/><path fill="#ee5255" d="m322.11 164.734-7.91 14.786-8.571-17.352Zm0 0"/><path fill="#ec5457" d="m322.11 164.734 4.53 14.555-12.44.23Zm0 0"/><path fill="#f04e52" d="m322.11 164.734 16.175-28.035-1.883 34.055Zm0 0"/><path fill="#ec5558" d="m326.64 179.29-4.53-14.556 14.292 6.02Zm0 0"/><path fill="#f04e52" d="m312.43 142.277-6.801 19.891-21.59-15.992Zm0 0"/><path fill="#ee5155" d="m170.184 166.18 15.668.922-8.008 11.312Zm0 0"/><path fill="#ec5457" d="m177.844 178.414 8.008-11.312 5.16 13.57Zm0 0"/><path fill="#202537" d="m365.555 203.55 5.484-29.804 12.977 33.813Zm0 0"/><path fill="#212537" d="m371.04 173.746-5.485 29.805-11.551-28.266Zm0 0"/><path fill="#f04e52" d="m371.04 173.746 12.964-19.687.012 53.5Zm0 0"/><path fill="#ef5154" d="m384.004 154.059-12.965 19.687-5.445-14.375Zm0 0"/><path fill="#f04f52" d="m384.004 154.059-18.41 5.312 3.48-11.516Zm0 0"/><path fill="#1f2537" d="m371.04 173.746-17.036 1.54 11.59-15.915Zm0 0"/><path fill="#202537" d="m306.531 358.629-.668 25.375-43.25-8.938Zm0 0"/><path fill="#2d2536" d="M360.684 346.031 384 335.687l.012 48.31Zm0 0"/><path fill="#ed5255" d="m383.992 301.012-20.496 3.894 3.734-17.539Zm0 0"/><path fill="#ee5155" d="m363.496 304.906-17.84-15.867 21.574-1.672Zm0 0"/><path fill="#ef5054" d="M363.496 304.906 351.2 313l-5.543-23.96Zm0 0"/><path fill="#5a2432" d="m363.496 304.906 20.496-3.894.008 34.676Zm0 0"/><path fill="#552532" d="m351.2 313 12.296-8.094L384 335.687Zm0 0"/><path fill="#202537" d="m365.555 203.55-31.184 19.727 19.633-47.992Zm0 0"/><path fill="#232537" d="m334.371 223.277 2.031-52.523 17.602 4.531Zm0 0"/><path fill="#202537" d="m334.371 223.277 31.184-19.726-17.535 42.21Zm0 0"/><path fill="#ec5356" d="m326.64 179.29-9.945 26.776-2.496-26.546Zm0 0"/><path fill="#9f494c" d="m198.285 290.004 19.028-7.688-3.043 23.172Zm0 0"/><path fill="#942e36" d="m217.313 282.316 1.996 26.645-5.04-3.473Zm0 0"/><path fill="#442534" d="m219.309 308.96 26.183-28.327 16.45 25.488Zm0 0"/><path fill="#772934" d="m219.309 308.96-1.996-26.644 28.18-1.683Zm0 0"/><path fill="#f04e52" d="m315.887 56.844 21.808-16.469-7.87 37.137Zm0 0"/><path fill="#f04e52" d="m329.824 77.512 7.871-37.137 17.149 16.535Zm0 0"/><path fill="#292536" d="m206.453 135.23-9.266-18.03 20.938 3.476Zm0 0"/><path fill="#f04f52" d="m197.188 117.2 9.265 18.03-18.746.645Zm0 0"/><path fill="#1c2537" d="m249.969 64.82-26.48-6.824 14.277-15.379Zm0 0"/><path fill="#262536" d="m214.063 78.832-26.239 20.883-6.66-15.477Zm0 0"/><path fill="#252537" d="m214.063 78.832-6.07 23.395-20.169-2.512Zm0 0"/><path fill="#1c2537" d="m247.27 90.73-23.782-32.734 26.48 6.824Zm0 0"/><path fill="#c5938c" d="m129.273 264.867-14.347 1.285 24.324-29.148Zm0 0"/><path fill="#1c2637" d="m114.926 266.152-5.88 18.02-32.593-42.832Zm0 0"/><path fill="#e26465" d="m138.324 335.379-16.71-4.02 14.784-22.52Zm0 0"/><path fill="#ec5558" d="m157.402 317.457-19.078 17.922-1.926-26.54Zm0 0"/><path fill="#934b4e" d="M58.36 361.281 98.218 384l-51.797.008Zm0 0"/><path fill="#8d4b4f" d="m98.219 384-39.86-22.719 41.25 15.563Zm0 0"/><path fill="#e36263" d="m102.016 338.473 20.082 13.89-21.614-2Zm0 0"/><path fill="#e75c5e" d="m122.098 352.363-20.082-13.89 19.597-7.114Zm0 0"/><path fill="#e06667" d="m138.324 335.379-16.226 16.984-.485-21.004Zm0 0"/><path fill="#1c2537" d="m122.098 352.363 16.226-16.984-2.437 27.144Zm0 0"/><path fill="#f04f53" d="M114.89 138.895 79.32 135l7.262-20.09Zm0 0"/><path fill="#e56061" d="m79.32 135-8.61-9.25 15.872-10.84Zm0 0"/><path fill="#1c2537" d="m61.371 116.254-1.39 18.488-17.418-2.277Zm0 0"/><path fill="#e85c5d" d="m70.71 125.75-10.73 8.992 1.391-18.488Zm0 0"/><path fill="#1c2537" d="m59.98 134.742-1.851 20.403-15.566-22.68Zm0 0"/><path fill="#ea575a" d="m79.32 135-19.34-.258 10.73-8.992Zm0 0"/><path fill="#1c2537" d="M93.168 39.414 73.895 77.605 43.707 50.004Zm0 0"/><path fill="#412534" d="m164.246 180.566-44.152-12.66 35.55-.469Zm0 0"/><path fill="#462534" d="m114.89 138.895 24.79 8.671-19.586 20.34Zm0 0"/><path fill="#402434" d="m120.094 167.906 19.586-20.34 15.965 19.871Zm0 0"/><path fill="#1c2537" d="m139.68 147.566 13.39-3.836 2.575 23.708Zm0 0"/><path fill="#ec5255" d="m219.934 176.418 3.425 4.914-12.386 10.34Zm0 0"/><path fill="#452433" d="m243.809 243.688 28.316-24.813-5.012 46.082Zm0 0"/><path fill="#ea585a" d="M139.25 237.004 160.531 236l-1.308 18.242Zm0 0"/><path fill="#2b2536" d="M188.348 224.797 160.53 236l26.39-19.344Zm0 0"/><path fill="#292536" d="m160.531 236 27.817-11.203-.446 18.078Zm0 0"/><path fill="#262536" d="m215.805 220.758-27.457 4.039-1.426-8.14Zm0 0"/><path fill="#924a4e" d="m188.348 224.797 27.457-4.04 14.347 15.47Zm0 0"/><path fill="#552533" d="m221.223 243.324-32.875-18.527 41.804 11.43Zm0 0"/><path fill="#562634" d="m188.348 224.797 32.875 18.527-33.32-.449Zm0 0"/><path fill="#1c2537" d="m155.54 383.996 27.042-19.75 12.547 19.781Zm0 0"/><path fill="#1c2537" d="m195.129 384.027-12.547-19.78 18.469 10.276Zm0 0"/><path fill="#1d2537" d="m135.887 362.523 21.101-8.636-1.449 30.11Zm0 0"/><path fill="#1c2537" d="m156.988 353.887 25.594 10.36-27.043 19.75Zm0 0"/><path fill="#212537" d="m138.324 335.379 18.664 18.508-21.101 8.636Zm0 0"/><path fill="#ef4f53" d="m159.383 302.68 14.328-1.504-2.945 10.597Zm0 0"/><path fill="#1c2537" d="m184.86 303.176-11.15-2 24.575-11.172Zm0 0"/><path fill="#1d2537" d="m184.86 303.176 13.425-13.172 15.985 15.484Zm0 0"/><path fill="#1e2537" d="m184.86 303.176-5.676 13.988-8.418-5.39Zm0 0"/><path fill="#eb5659" d="m173.71 301.176 11.15 2-14.094 8.597Zm0 0"/><path fill="#1c2637" d="m163.777 291.664-4.394 11.016-14.086-6.27Zm0 0"/><path fill="#1e2537" d="m159.383 302.68 4.394-11.016 9.934 9.512Zm0 0"/><path fill="#f04e52" d="m255.348 341.969-7.54-8.715 24.403-14.734Zm0 0"/><path fill="#e75b5d" d="m230.07 354.027 17.739-20.773 7.539 8.715Zm0 0"/><path fill="#2e2536" d="m320.543 322.906 4.691 18.024-18.937-11.57Zm0 0"/><path fill="#302535" d="m325.234 340.93-18.703 17.699-.234-29.27Zm0 0"/><path fill="#3d2434" d="m338.195 322.121-12.96 18.809-4.692-18.024Zm0 0"/><path fill="#93252e" d="m305.863 384.004 19.371-43.074 8.61 43.078Zm0 0"/><path fill="#99222b" d="m325.234 340.93-19.37 43.074.667-25.375Zm0 0"/><path fill="#292637" d="m275.398 321.273-20.05 20.696 16.863-23.45Zm0 0"/><path fill="#ee5154" d="m275.398 321.273 20.426.278-11.82 28.941Zm0 0"/><path fill="#ec5457" d="m275.398 321.273 17.106-19.687 3.32 19.965Zm0 0"/><path fill="#1f2537" d="m292.504 301.586-17.106 19.687-3.187-2.753Zm0 0"/><path fill="#f04f53" d="m328.57 291.55 17.086-2.51-7.043 18.222Zm0 0"/><path fill="#ee5154" d="M345.656 289.04 351.2 313l-12.586-5.738Zm0 0"/><path fill="#642330" d="m348.02 245.762-4.426 26.672-22.176-18.329Zm0 0"/><path fill="#1f2537" d="m343.594 272.434 2.062 16.605-17.086 2.512Zm0 0"/><path fill="#1c2537" d="m279.145 285.887 25.273-.985-11.914 16.684Zm0 0"/><path fill="#1d2537" d="m115.793 234.035-39.34 7.305 17.422-19.695Zm0 0"/><path fill="#1f2638" d="M114.926 266.152 76.453 241.34l48.711 4.933Zm0 0"/><path fill="#1e2638" d="m76.453 241.34 39.34-7.305 9.371 12.238Zm0 0"/><path fill="#89232d" d="m360.605 32.852 23.399-32.86v54.582Zm0 0"/><path fill="#ef4f53" d="m327.086.012 10.61 40.363-13.626-3.703Zm0 0"/><path fill="#f04f53" d="m384.004 154.059-13.395-15.473L384 115.09Zm0 0"/><path fill="#f04f53" d="m384 115.09-13.39 23.496-14.442-15.402Zm0 0"/><path fill="#f04e52" d="m338.285 136.7-7.836-23.016 25.719 9.5ZM356.168 123.184l.863-30.118L384 115.09Zm0 0"/><path fill="#9dd2c0" d="m273.445 139.293 17.473-13.734-6.879 20.617Zm0 0"/><path fill="#99d8c5" d="m290.918 125.559-17.473 13.734 4.66-15.59Zm0 0"/><path fill="#1e2537" d="m258.543 107.863 16.691 1.13 2.871 14.71Zm0 0"/><path fill="#262536" d="m350.887 157.969-14.485 12.785 1.883-34.055Zm0 0"/><path fill="#f04f52" d="m322.11 164.734-9.68-22.457 25.855-5.578Zm0 0"/><path fill="#f04f53" d="m312.43 142.277 9.68 22.457-16.481-2.566ZM290.918 125.559 305.855 99l-2.632 30.41Zm0 0"/><path fill="#ed5356" d="m219.934 176.418-13.805-6.594 2.898-2.574Zm0 0"/><path fill="#1d2537" d="m350.887 157.969 3.117 17.316-17.602-4.531Zm0 0"/><path fill="#ef5054" d="m334.371 223.277-7.73-43.988 9.761-8.535Zm0 0"/><path fill="#ee5053" d="m316.695 206.066 9.946-26.777 7.73 43.988Zm0 0"/><path fill="#7d232e" d="m287.559 227.184 46.812-3.907-12.953 30.828Zm0 0"/><path fill="#212537" d="m334.371 223.277-46.812 3.907 29.136-21.118Zm0 0"/><path fill="#2c2536" d="m287.559 227.184 9.64-35.137 19.496 14.02Zm0 0"/><path fill="#1d2537" d="m297.2 192.047-25.024-14.578 26.894-6.426Zm0 0"/><path fill="#8a222c" d="m314.2 179.52-17 12.527 1.87-21.004Zm0 0"/><path fill="#82232d" d="m316.695 206.066-19.496-14.02 17-12.526Zm0 0"/><path fill="#ea585a" d="m187.902 242.875-7.52 36.434-21.16-25.067Zm0 0"/><path fill="#382535" d="m221.223 243.324-19 23.852-14.32-24.301Zm0 0"/><path fill="#e55f60" d="m202.223 267.176-21.84 12.133 7.52-36.434Zm0 0"/><path fill="#1e2537" d="m180.383 279.309 21.84-12.133-3.938 22.828Zm0 0"/><path fill="#2a2536" d="m202.223 267.176 19-23.852 12.687 9.957Zm0 0"/><path fill="#d77674" d="m217.313 282.316-15.09-15.14 31.687-13.895Zm0 0"/><path fill="#96333a" d="m198.285 290.004 3.938-22.828 15.09 15.14Zm0 0"/><path fill="#f04e52" d="m301.41 77.035 28.414.477L305.855 99ZM301.41 77.035l-11.629-15.133 26.106-5.058Zm0 0"/><path fill="#f04e52" d="m284.508 75.535 5.273-13.633 11.63 15.133Zm0 0"/><path fill="#1c2537" d="m249.969 64.82 11.46-10.246 12.91 30.489Zm0 0"/><path fill="#99232c" d="m261.43 54.574 23.078 20.961-10.168 9.528Zm0 0"/><path fill="#f04e52" d="m337.695 40.375 22.91-7.523-5.761 24.058Zm0 0"/><path fill="#eb5659" d="M219.934 176.418 224.516 144l17.949 12.848Zm0 0"/><path fill="#252638" d="M242.465 156.848 224.515 144l32.91 23.55Zm0 0"/><path fill="#1c2637" d="m206.453 135.23 18.063 8.77-15.489 23.25Zm0 0"/><path fill="#9dd3c1" d="m224.516 144-4.582 32.418-10.907-9.168Zm0 0"/><path fill="#202537" d="m218.125 120.676 6.39 23.324-18.062-8.77Zm0 0"/><path fill="#f04e52" d="m287.082 87.66-2.574-12.125 16.902 1.5Zm0 0"/><path fill="#98222b" d="m287.082 87.66-12.742-2.597 10.168-9.528Zm0 0"/><path fill="#f04e52" d="m287.082 87.66 14.328-10.625L305.855 99Zm0 0"/><path fill="#1c2537" d="m240.77 107.543-4.657-13.52 11.157-3.293ZM258.543 107.863l-17.773-.32 6.5-16.813ZM273.445 139.293l-19.738 6.309 24.398-21.899Zm0 0"/><path fill="#1d2537" d="m253.707 145.602 13.883 10.054-28.149-11.937Zm0 0"/><path fill="#1c2537" d="m253.707 145.602 19.738-6.309-5.855 16.363Zm0 0"/><path fill="#b5373d" d="m187.465 59.176 26.597 19.656-32.898 5.406Zm0 0"/><path fill="#a53038" d="m214.063 78.832-26.598-19.656 36.023-1.18Zm0 0"/><path fill="#ca8b85" d="m179.867 56.7 7.598 2.476-6.3 25.062Zm0 0"/><path fill="#9dd2c1" d="m187.465 59.176-7.598-2.477 10.371-16.14Zm0 0"/><path fill="#ee5255" d="m199.652 43.008-12.187 16.168 2.773-18.617Zm0 0"/><path fill="#ed5255" d="m223.488 57.996-36.023 1.18 12.187-16.168Zm0 0"/><path fill="#ec5457" d="m223.488 57.996 12.625 36.027-22.05-15.191Zm0 0"/><path fill="#1c2537" d="m247.27 90.73-11.157 3.293-12.625-36.027Zm0 0"/><path fill="#d55457" d="m236.113 94.023-12.543 6.07-9.507-21.261Zm0 0"/><path fill="#1c2537" d="m274.34 85.063-15.797 22.8L247.27 90.73ZM249.969 64.82l24.37 20.243-27.07 5.667ZM274.34 85.063l.894 23.93-16.691-1.13Zm0 0"/><path fill="#bf958e" d="m114.926 266.152 14.347-1.285-3.746 10.84Zm0 0"/><path fill="#de6b6a" d="m129.273 264.867 9.754 3.211-13.5 7.629Zm0 0"/><path fill="#ce7e7a" d="m88.824 327.246-4.965-14.469 25.102 1.688Zm0 0"/><path fill="#e9585a" d="m88.824 327.246 20.137-12.781-6.945 24.008Zm0 0"/><path fill="#d67774" d="m83.86 312.777 4.964 14.47-15.23-3.028Zm0 0"/><path fill="#1c2637" d="m109.047 284.172 5.879-18.02 10.601 9.555Zm0 0"/><path fill="#ef4f53" d="M88.738 157.441 79.32 135l35.57 3.895Zm0 0"/><path fill="#eb5558" d="m171.324 134.672 9.742 2.605-10.882 28.903Zm0 0"/><path fill="#1c2637" d="m181.066 137.277-9.742-2.605-.715-11.774Zm0 0"/><path fill="#1c2537" d="m171.324 134.672-22.754-7.567 22.04-4.207ZM171.324 134.672l-18.254 9.058-4.5-16.625Zm0 0"/><path fill="#1c2537" d="m171.324 134.672-15.68 32.766-2.574-23.708Zm0 0"/><path fill="#da7170" d="m155.645 167.438 15.68-32.766-1.141 31.508Zm0 0"/><path fill="#4b2433" d="m230.152 236.227 41.973-17.352-28.316 24.813Zm0 0"/><path fill="#3c2534" d="m230.152 236.227 13.657 7.46-9.899 9.594Zm0 0"/><path fill="#ed5457" d="m221.223 243.324 8.93-7.097 3.757 17.054Zm0 0"/><path fill="#5f2a36" d="m272.125 218.875-44.926-8.71 35.098-18.083Zm0 0"/><path fill="#ee5255" d="m223.36 181.332 3.84 28.832-16.227-18.492Zm0 0"/><path fill="#372636" d="m227.2 210.164-3.84-28.832 38.937 10.75Zm0 0"/><path fill="#ee5154" d="m215.805 220.758 11.394-10.594 2.953 26.063Zm0 0"/><path fill="#e95759" d="m210.973 191.672 16.226 18.492-11.394 10.594Zm0 0"/><path fill="#512432" d="m230.152 236.227-2.953-26.063 44.926 8.711Zm0 0"/><path fill="#4f2836" d="m223.36 181.332 34.066-13.781 4.87 24.531Zm0 0"/><path fill="#ef4f53" d="m257.426 167.55 10.164-11.894 4.586 21.813Zm0 0"/><path fill="#e65b5d" d="m242.465 156.848-19.106 24.484-3.425-4.914Zm0 0"/><path fill="#ee5255" d="m257.426 167.55-34.067 13.782 19.106-24.484Zm0 0"/><path fill="#df6969" d="m139.027 268.078-9.754-3.21 9.977-27.864Zm0 0"/><path fill="#1c2537" d="m182.582 364.246-25.594-10.36 16.317-19.988ZM201.05 374.523l-18.468-10.277 22.25-12.695Zm0 0"/><path fill="#1c2537" d="m182.582 364.246-9.277-30.348 31.527 17.653Zm0 0"/><path fill="#252637" d="m155.828 335.75-17.504-.371 19.078-17.922Zm0 0"/><path fill="#1f2537" d="m155.828 335.75 1.16 18.137-18.664-18.508Zm0 0"/><path fill="#252537" d="m219.309 308.96-28.407 18.349 23.368-21.82Zm0 0"/><path fill="#f04e52" d="m190.902 327.309-6.043-24.133 29.41 2.312Zm0 0"/><path fill="#1d2537" d="m184.86 303.176 6.042 24.133-11.718-10.145Zm0 0"/><path fill="#232537" d="m190.902 327.309 28.407-18.348-14.477 42.59Zm0 0"/><path fill="#1c2537" d="m173.305 333.898 17.597-6.59 13.93 24.243ZM272.21 318.52l-28.542 5.812 18.273-18.21Zm0 0"/><path fill="#1c2537" d="m243.668 324.332-24.36-15.371 42.633-2.84Zm0 0"/><path fill="#1d2537" d="m247.809 333.254-4.141-8.922 28.543-5.812Zm0 0"/><path fill="#332636" d="m231.438 360.29 31.175 14.776-2.297 8.942Zm0 0"/><path fill="#352535" d="m216.71 383.973 14.727-23.684 28.88 23.719Zm0 0"/><path fill="#372636" d="m231.438 360.29-14.727 23.683-15.66-9.45Zm0 0"/><path fill="#e75a5c" d="m230.07 354.027 1.368 6.262-30.387 14.234Zm0 0"/><path fill="#1c2537" d="m222.668 341.309 7.402 12.718-25.238-2.476Zm0 0"/><path fill="#1e2537" d="m219.309 308.96 3.359 32.349-17.836 10.242Zm0 0"/><path fill="#ee5154" d="m275.398 321.273 8.606 29.22-28.656-8.524Zm0 0"/><path fill="#bb3a40" d="M284.004 350.492 261.82 364.57l-6.472-22.601Zm0 0"/><path fill="#202637" d="m261.82 364.57 22.184-14.078-21.39 24.574Zm0 0"/><path fill="#252537" d="m284.004 350.492 22.527 8.137-43.918 16.437Zm0 0"/><path fill="#1c2537" d="m304.418 284.902 11.129 13.082-23.043 3.602Zm0 0"/><path fill="#f04e52" d="m315.547 297.984-19.723 23.567-3.32-19.965Zm0 0"/><path fill="#ef5053" d="m327.309 311.719-11.762-13.735 13.023-6.433Zm0 0"/><path fill="#1d2537" d="m287.559 227.184-8.414 58.703-12.032-20.93Zm0 0"/><path fill="#1f2537" d="m287.559 227.184 16.859 57.718-25.273.985Zm0 0"/><path fill="#f04e52" d="m360.605 32.852 23.399 21.722-29.16 2.336ZM354.844 56.91l29.16-2.336-26.973 38.492Zm0 0"/><path fill="#ef5053" d="m369.074 147.855 1.535-9.27 13.395 15.474Zm0 0"/><path fill="#f04e52" d="m305.855 99 24.594 14.684-27.226 15.726ZM303.223 129.41l9.207 12.867-28.39 3.899ZM357.031 93.066l-.863 30.118-25.719-9.5Zm0 0"/><path fill="#262637" d="m338.285 136.7 21.324 7.417-8.722 13.852Zm0 0"/><path fill="#f04e52" d="m356.168 123.184 3.441 20.933-21.324-7.418Zm0 0"/><path fill="#ed5255" d="m365.594 159.371-5.985-15.254 9.465 3.738Zm0 0"/><path fill="#242537" d="m359.61 144.117 5.984 15.254-14.707-1.402Zm0 0"/><path fill="#f04e52" d="m359.61 144.117 11-5.531-1.536 9.27Zm0 0"/><path fill="#ef4f53" d="m359.61 144.117-3.442-20.933 14.441 15.402Zm0 0"/><path fill="#a3c9b9" d="m283.125 109.05 7.793 16.509-12.813-1.856Zm0 0"/><path fill="#1c2537" d="m275.234 108.992 7.891.059-5.02 14.652Zm0 0"/><path fill="#ef4f53" d="m290.918 125.559 12.305 3.851-19.184 16.766Zm0 0"/><path fill="#ed5356" d="m187.707 135.875 18.422 33.95-20.277-2.723Zm0 0"/><path fill="#eb5659" d="m206.129 169.824-18.422-33.949 21.32 31.375Zm0 0"/><path fill="#ed5356" d="m187.707 135.875 18.746-.645 2.574 32.02Zm0 0"/><path fill="#212537" d="m365.594 159.371-11.59 15.914-3.117-17.316Zm0 0"/><path fill="#1d2537" d="m297.2 192.047-34.903.035 9.879-14.613Zm0 0"/><path fill="#202537" d="m262.297 192.082-4.871-24.531 14.75 9.918Zm0 0"/><path fill="#e95558" d="m236.113 94.023-6.879 21.786-5.664-15.715Zm0 0"/><path fill="#ee5255" d="m240.77 107.543-11.536 8.266 6.88-21.786Zm0 0"/><path fill="#352536" d="m223.57 100.094 5.664 15.715-11.109 4.867Zm0 0"/><path fill="#1c2537" d="m246.64 124.242-5.87-16.699 17.773.32ZM246.64 124.242l11.903-16.379 19.562 15.84ZM253.707 145.602l-7.066-21.36 31.464-.539Zm0 0"/><path fill="#ed5457" d="m246.64 124.242 7.067 21.36-14.266-1.883Zm0 0"/><path fill="#f04e52" d="m246.64 124.242-17.406-8.433 11.536-8.266Zm0 0"/><path fill="#e06767" d="m159.383 302.68-22.985 6.16 8.899-12.43Zm0 0"/><path fill="#ec5457" d="m136.398 308.84 22.985-6.16-1.98 14.777Zm0 0"/><path fill="#ed5356" d="m108.96 314.465 16.86-19.285 10.578 13.66Zm0 0"/><path fill="#ec5457" d="m70.98 146.168-11-11.426 19.34.258Zm0 0"/><path fill="#ea5759" d="M88.738 157.441 70.98 146.168 79.32 135Zm0 0"/><path fill="#ed5256" d="m59.98 134.742 11 11.426-12.851 8.977Zm0 0"/><path fill="#e55b5d" d="m106.617 173.613 8.274-34.718 5.203 29.011Zm0 0"/><path fill="#ef4f53" d="m106.617 173.613-17.879-16.172 26.153-18.546Zm0 0"/><path fill="#ee5255" d="m157.402 317.457 1.98-14.777 11.384 9.093Zm0 0"/><path fill="#1c2537" d="m190.902 327.309-17.597 6.59 5.879-16.735ZM145.297 296.41l1.113-22.418 17.367 17.672Zm0 0"/><path fill="#342535" d="m262.613 375.066-28.441-17.484 27.648 6.988Zm0 0"/><path fill="#3b2535" d="m231.438 360.29 2.734-2.708 28.441 17.484Zm0 0"/><path fill="#e9585a" d="m261.82 364.57-27.648-6.988 21.176-15.613Zm0 0"/><path fill="#b3aea3" d="m234.172 357.582-4.102-3.555 25.278-12.058Zm0 0"/><path fill="#ca8b85" d="m234.172 357.582-2.734 2.707-1.368-6.262Zm0 0"/><path fill="#eb5658" d="m230.07 354.027-.84-14.996 18.579-5.777Zm0 0"/><path fill="#1c2637" d="m222.668 341.309 6.562-2.278.84 14.996Zm0 0"/><path fill="#1c2537" d="m229.23 339.031-6.562 2.278-3.36-32.348Zm0 0"/><path fill="#1c2638" d="m229.23 339.031 14.438-14.699 4.14 8.922Zm0 0"/><path fill="#1c2537" d="m243.668 324.332-14.438 14.7-9.921-30.071Zm0 0"/><path fill="#202537" d="m315.547 297.984-11.129-13.082 24.152 6.649Zm0 0"/><path fill="#77242f" d="m304.418 284.902-16.86-57.718 33.86 26.921Zm0 0"/><path fill="#572431" d="m343.594 272.434-39.176 12.468 17-30.797Zm0 0"/><path fill="#1e2537" d="m304.418 284.902 39.176-12.468-15.024 19.117Zm0 0"/><path fill="#f04e52" d="m330.45 113.684-18.02 28.593-9.207-12.867Zm0 0"/><path fill="#1e2537" d="m283.125 109.05-7.89-.058-.895-23.93Zm0 0"/><path fill="#f04e52" d="m283.125 109.05 3.957-21.39L305.855 99Zm0 0"/><path fill="#95232c" d="m287.082 87.66-3.957 21.39-8.785-23.987Zm0 0"/><path fill="#a1ccbb" d="m290.918 125.559-7.793-16.508L305.855 99Zm0 0"/><path fill="#ef5054" d="m181.066 137.277 4.786 29.825-15.668-.922Zm0 0"/><path fill="#e56061" d="m185.852 167.102-4.786-29.825 6.641-1.402Zm0 0"/><path fill="#1e2537" d="m267.113 264.957 5.012-46.082 15.434 8.309Zm0 0"/><path fill="#1d2537" d="m272.125 218.875 25.074-26.828-9.64 35.137Zm0 0"/><path fill="#1c2537" d="m272.125 218.875-9.828-26.793 34.902-.035ZM224.516 144l14.925-.281 17.985 23.832Zm0 0"/><path fill="#242638" d="m239.441 143.719-14.925.281-6.391-23.324Zm0 0"/><path fill="#212637" d="m229.234 115.809 10.207 27.91-21.316-23.043Zm0 0"/><path fill="#ef4f53" d="m246.64 124.242-7.199 19.477-10.207-27.91Zm0 0"/><path fill="#e65e5f" d="m109.047 284.172 16.773 11.008-16.543-6.059Zm0 0"/><path fill="#e85b5c" d="m125.82 295.18 19.477 1.23-8.899 12.43ZM102.016 338.473l6.945-24.008 12.652 16.894Zm0 0"/><path fill="#e46162" d="m108.96 314.465 27.438-5.625-14.785 22.52Zm0 0"/><path fill="#f04e52" d="m88.738 157.441 17.88 16.172-19.579 9.352Zm0 0"/><path fill="#f04e52" d="m88.738 157.441-1.699 25.524-28.91-27.82Zm0 0"/><path fill="#e26465" d="m70.98 146.168 17.758 11.273-30.61-2.296ZM159.223 254.242l-20.196 13.836.223-31.074Zm0 0"/><path fill="#1c2537" d="m173.71 301.176 6.673-21.867 17.902 10.695Zm0 0"/><path fill="#1d2637" d="m163.777 291.664 16.606-12.355-6.672 21.867Zm0 0"/><path fill="#572936" d="m146.41 273.992 33.973 5.317-16.606 12.355Zm0 0"/><path fill="#e55f60" d="m146.41 273.992 12.813-19.75 21.16 25.067Zm0 0"/><path fill="#232537" d="m157.402 317.457 15.903 16.441-17.477 1.852Zm0 0"/><path fill="#1e2537" d="m155.828 335.75 17.477-1.852-16.317 19.989Zm0 0"/><path fill="#232537" d="m173.305 333.898-15.903-16.441 13.364-5.684Zm0 0"/><path fill="#1e2537" d="m179.184 317.164-5.88 16.734-2.538-22.125Zm0 0"/><path fill="#f04e52" d="m338.285 136.7-25.855 5.577 18.02-28.593Zm0 0"/><path fill="#1c2537" d="m130.191 285.855-21.144-1.683 16.48-8.465Zm0 0"/><path fill="#e06767" d="m130.191 285.855-4.37 9.325-16.774-11.008Zm0 0"/><path fill="#d67775" d="m139.027 268.078-8.836 17.777-4.664-10.148Zm0 0"/><path fill="#ca8b85" d="m146.41 273.992-16.219 11.863 8.836-17.777Zm0 0"/><path fill="#a7c2b3" d="m145.297 296.41-15.106-10.555 16.22-11.863Zm0 0"/><path fill="#cc8782" d="m125.82 295.18 4.371-9.325 15.106 10.555Zm0 0"/><path fill="#e65f60" d="m146.41 273.992-7.383-5.914 20.196-13.836Zm0 0"/></svg>