<svg xmlns="http://www.w3.org/2000/svg" width="512" height="512" viewBox="0 0 384 384"><path fill="#ced0d4" d="m172.793 261.285 24.727 17.746-20.297 31.906Zm0 0"/><path fill="#c4c6cb" d="m197.52 279.031-21.754-29.082 37.879 4.54Zm0 0"/><path fill="#d2d3d7" d="m175.766 249.95 21.754 29.081-24.727-17.746Zm0 0"/><path fill="#b8bcc4" d="m110.082 51.605-30.723-.917 8.91-16.696Zm0 0"/><path fill="#b8bcc5" d="m79.36 50.688-7.407-18.872 16.317 2.176Zm0 0"/><path fill="#b8bbc4" d="M197.406 21.156 205 14.23l-1.543 18.489Zm0 0"/><path fill="#9575a7" d="m92.941 209.168-22.91-32.238 18.676-5Zm0 0"/><path fill="#bcbec1" d="m114.848 192.648-21.907 16.52-4.234-37.238Zm0 0"/><path fill="#cd9a36" d="m259.219 187.941 22.758-26.77-.934 61.993Zm0 0"/><path fill="#fefefe" d="m253.488 131.32 29.895-22.5 15.086 35.657Zm0 0"/><path fill="#f9f9f9" d="m175.766 249.95 38.632-16.997-.753 21.535Zm0 0"/><path fill="#5b0a90" d="M18.434 281.723-.004 238.582l21.871 2.516Zm0 0"/><path fill="#e7c836" d="m80.156 314.309-43.16-1.086 3.438-9.844Zm0 0"/><path fill="#814c98" d="m36.996 313.223 10.899 43.07-28.665-11.367Zm0 0"/><path fill="#b8bcc4" d="m153.86 189.23 21.906 60.72-41.903-45.606Zm0 0"/><path fill="#b9bdc5" d="m172.793 261.285-51.688 45.074 9.82-55.648Zm0 0"/><path fill="#bec0c5" d="m121.105 306.36 51.688-45.075 4.43 49.652Zm0 0"/><path fill="#f3f4f2" d="m172.793 261.285-41.867-10.574 44.84-.762Zm0 0"/><path fill="#b9bcc1" d="m175.766 249.95-44.84.76 2.937-46.366Zm0 0"/><path fill="#b8bbc2" d="m133.863 204.344-40.922 4.824 21.907-16.52Zm0 0"/><path fill="#bbbdbd" d="M130.926 250.71 92.94 209.169l40.922-4.824Zm0 0"/><path fill="#b9bcc0" d="m92.941 209.168 37.985 41.543-24.762-3.54Zm0 0"/><path fill="#b8bcc2" d="m235.344 345.29-20.867 14.003-3.575-12.469Zm0 0"/><path fill="#b8bcc5" d="m180.344-.004-46.188 10.027L59.176 0Zm0 0"/><path fill="#b8bcc4" d="m111.578 37.402-1.496 14.203L88.27 33.992Zm0 0"/><path fill="#b8bcc5" d="m117.844 27.875-6.266 9.527-23.308-3.41Zm0 0"/><path fill="#b7bbc4" d="M33.293 28.43 59.176 0l-.313 24.645Zm0 0"/><path fill="#d2ca94" d="M88.238 67.48 79.36 50.687l30.723.918Zm0 0"/><path fill="#cb071e" d="m88.238 67.48-26.14-3.953 17.261-12.84Zm0 0"/><path fill="#fefefe" d="m220.813 119.527-16.82-20.105 29.726-15.465Zm0 0"/><path fill="#b8bcc5" d="m134.156 10.023 4.98 26.2-21.292-8.348ZM162.563 28.02l17.78-28.024 4.927 16.047Zm0 0"/><path fill="#b8bcc5" d="M180.344-.004 162.563 28.02l-28.407-17.997Zm0 0"/><path fill="#cc071e" d="m197.406 21.156-14.582 9.973 2.446-15.086Zm0 0"/><path fill="#b8bcc5" d="m162.563 28.02 20.261 3.109-5.289 28.328ZM182.824 31.129l-20.262-3.11 22.708-11.976Zm0 0"/><path fill="#b8bcc4" d="M245.145 0 205 14.23 180.344-.004Zm0 0"/><path fill="#b8bbc4" d="m205 14.23-7.594 6.926-12.136-5.113Zm0 0"/><path fill="#b8bcc4" d="M180.344-.004 205 14.23l-19.73 1.813Zm0 0"/><path fill="#b8bcc5" d="M245.145 0h65.003l-55.695 12.316Zm0 0"/><path fill="#cd071d" d="m266.738 39-22.27-.91 9.985-25.774Zm0 0"/><path fill="#b8bcc4" d="m205 14.23 16.219 20.055-17.762-1.566ZM245.145 0l-23.926 34.285L205 14.23Zm0 0"/><path fill="#b8bcc5" d="m244.469 38.09-23.25-3.805 33.234-21.969ZM221.219 34.285 245.145 0l9.308 12.316Zm0 0"/><path fill="#cc071e" d="m193.563 38.098 3.843-16.942 6.051 11.563Zm0 0"/><path fill="#cc071e" d="m208.277 57.328-14.714-19.23 9.894-5.38Zm0 0"/><path fill="#cd071d" d="m182.824 31.129 10.738 6.969-16.027 21.359ZM193.563 38.098l-10.739-6.97 14.582-9.972Zm0 0"/><path fill="#d0141c" d="m193.563 38.098-7.766 26.074-8.262-4.715Zm0 0"/><path fill="#cc071d" d="m185.797 64.172 7.766-26.074 14.714 19.23Zm0 0"/><path fill="#cd071e" d="m243.5 59.05.969-20.96 22.27.91Zm0 0"/><path fill="#b8bbc4" d="M59.176 0 33.293 28.43 0 0Zm0 0"/><path fill="#cd071d" d="m79.36 50.688-17.262 12.84 9.855-31.712Zm0 0"/><path fill="#b8bcc5" d="m26.277 136.719-4.32 31.945L0 117.918ZM0 175.39l21.957-6.726-1.473 56.227Zm0 0"/><path fill="#bfb9a6" d="m20.484 224.89 1.473-56.226 15.121 69.293Zm0 0"/><path fill="#fefefe" d="m123.707 122.082-5.777 19.027-5.078-2.59ZM123.707 122.082l-17.035-4.02 22.648-17.074Zm0 0"/><path fill="#fefefe" d="m106.672 118.063 17.035 4.019-10.855 16.438Zm0 0"/><path fill="#fed600" d="m97.523 136.16 9.149-18.097 6.18 20.457Zm0 0"/><path fill="#fed502" d="m106.672 118.063-9.149 18.097-6.226-4.066Zm0 0"/><path fill="#fed600" d="m156.121 169.098-.082-28.184 18.715 8.848Zm0 0"/><path fill="#fed600" d="m180.266 178.855-24.145-9.757 18.633-19.336ZM156.121 169.098l24.145 9.757-26.407 10.375Zm0 0"/><path fill="#cc071d" d="m132.785 135.523-14.855 5.586 5.777-19.027ZM132.785 135.523l23.254 5.391-25.621 17.254Zm0 0"/><path fill="#85001f" d="m117.93 141.11 14.855-5.587-2.367 22.645Zm0 0"/><path fill="#b8bcc5" d="M21.957 168.664 0 175.391v-57.473Zm0 0"/><path fill="#b5b6c2" d="m92.941 209.168-29.66-.836 6.75-31.402Zm0 0"/><path fill="#a69ab8" d="m21.957 168.664 41.324 39.668-26.203 29.625Zm0 0"/><path fill="#babcbc" d="m63.281 208.332 42.883 38.84-69.086-9.215Zm0 0"/><path fill="#b8bcc4" d="m363.559 156.316-3.606-1.421L384 136.59Zm0 0"/><path fill="#b8bcc5" d="m384 136.59-24.047 18.305 1.711-23.903Zm0 0"/><path fill="#d29f26" d="m281.977 161.172 16.523 46.11-17.457 15.882Zm0 0"/><path fill="#b9bdc4" d="m281.977 161.172-28.489-29.852 44.98 13.157Zm0 0"/><path fill="#bdbdc5" d="m316.227 168.336-34.25-7.164 16.492-16.695Zm0 0"/><path fill="#f0c50d" d="M316.227 168.336 298.5 207.28l-16.523-46.11Zm0 0"/><path fill="#b8bcc5" d="m315.031 21.355 38.543 3.93-25.168 13.442ZM353.574 25.285 384 0v51.215Zm0 0"/><path fill="#fefefe" d="m298.469 144.477-15.086-35.657 31.297 3.223Zm0 0"/><path fill="#c9ccd2" d="m214.969 198.426-20.707 11.203-2.567-22.356Zm0 0"/><path fill="#fdd501" d="m214.398 232.953.57-34.527 19.571 8.02Zm0 0"/><path fill="#f7f8f8" d="m194.262 209.629 20.136 23.324-38.632 16.996Zm0 0"/><path fill="#fafafa" d="m214.398 232.953-20.136-23.324 20.707-11.203Zm0 0"/><path fill="#c3c5c9" d="m332.082 249.816-2.508 37.762-10.554-36.7Zm0 0"/><path fill="#f9f9f9" d="m214.398 232.953 19.407 9.254-20.16 12.281Zm0 0"/><path fill="#fed500" d="m253.875 246.54-20.07-4.333.734-35.762Zm0 0"/><path fill="#fed600" d="m233.805 242.207-19.407-9.254 20.141-26.508Zm0 0"/><path fill="#5f108f" d="m110.793 384-1.508-9.227 63.328 9.243Zm0 0"/><path fill="#63158b" d="M101.617 347.133 88.77 369.859l-27.036 4.657Zm0 0"/><path fill="#d8bb50" d="m101.617 347.133-21.46-32.824 40.948-7.95Zm0 0"/><path fill="#5e0e8d" d="m89.129 384.027-.36-14.168L99.274 384Zm0 0"/><path fill="#5d0d8e" d="m88.77 369.86.359 14.167-27.395-9.511Zm0 0"/><path fill="#d8c35f" d="m36.996 313.223-18.562-31.5 22 21.656Zm0 0"/><path fill="#b8babf" d="m50.371 277.11 29.785 37.199-39.722-10.93Zm0 0"/><path fill="#bbbcbb" d="m18.434 281.723 31.937-4.614-9.937 26.27Zm0 0"/><path fill="#5b0a90" d="m.004 295.188-.008-56.606 18.438 43.14Zm0 0"/><path fill="#5b0b90" d="m47.895 356.293-22.262 3.789-6.403-15.156Zm0 0"/><path fill="#651b92" d="m106.164 247.172-42.883-38.84 29.66.836Zm0 0"/><path fill="#b9babe" d="m235.344 345.29-24.121-27.614 40.457 13.722Zm0 0"/><path fill="#b8bcc4" d="m211.223 317.676 24.12 27.613-24.44 1.535Zm0 0"/><path fill="#f9f3d4" d="m121.105 306.36-14.94-59.188 24.76 3.539Zm0 0"/><path fill="#b8bcc5" d="M134.156 10.023 79.434 17.04 59.176 0Zm0 0"/><path fill="#b8bcc4" d="m79.434 17.04 54.722-7.017-16.312 17.852Zm0 0"/><path fill="#b8bcc5" d="m79.434 17.04 38.41 10.835-29.574 6.117Zm0 0"/><path fill="#b7bbc4" d="m71.953 31.816 7.48-14.777 8.837 16.953Zm0 0"/><path fill="#cd071d" d="m111.578 37.402 14.781 6.246-16.277 7.957Zm0 0"/><path fill="#b8bcc5" d="m126.36 43.648 12.777-7.425.531 26.16Zm0 0"/><path fill="#cd071d" d="m126.36 43.648-14.782-6.246 6.266-9.527Zm0 0"/><path fill="#b8bcc5" d="m139.137 36.223-12.778 7.425-8.515-15.773Zm0 0"/><path fill="#cd071d" d="m148.29 123.543-15.505 11.98-9.078-13.441Zm0 0"/><path fill="#cd071e" d="m132.785 135.523 15.504-11.98 7.75 17.371Zm0 0"/><path fill="#cd081e" d="m137.148 108.113-13.441 13.969 5.613-21.094Zm0 0"/><path fill="#fefefe" d="m142.066 97.156-4.918 10.957-7.828-7.125Zm0 0"/><path fill="#cd071e" d="m137.148 108.113 11.141 15.43-24.582-1.461Zm0 0"/><path fill="#fefefe" d="m137.148 108.113 4.918-10.957 12.778 15.692Zm0 0"/><path fill="#fefefe" d="m148.29 123.543-11.142-15.43 17.696 4.735Zm0 0"/><path fill="#fede32" d="m107.031 67.941-18.793-.46 21.844-15.876Zm0 0"/><path fill="#fefefe" d="m126.453 85.777 15.613 11.38-12.746 3.831ZM142.066 97.156l17.114-.484-4.336 16.176Zm0 0"/><path fill="#b7bbc4" d="m33.293 28.43 25.57-3.785L45.316 41.89Zm0 0"/><path fill="#ce0d1f" d="m182.574 106.14 15.45 6.876-8.614 7.925Zm0 0"/><path fill="#cfd1d6" d="m198.023 113.016 22.79 6.511-16.918 12.426Zm0 0"/><path fill="#fefefe" d="m220.813 119.527-22.79-6.511 5.97-13.594ZM198.023 113.016l-15.449-6.875 21.418-6.72Zm0 0"/><path fill="#fed600" d="m261.063 87.809 13.5-28.004 13.414 25.894Zm0 0"/><path fill="#fefefe" d="m220.813 119.527 27.171-14.41 5.504 26.203ZM253.488 131.32l-5.504-26.203 35.399 3.703Zm0 0"/><path fill="#b8bcc5" d="m162.563 28.02-23.426 8.203-4.98-26.2Zm0 0"/><path fill="#b7bbc4" d="m310.148 0-19.015 22.523-36.68-10.207Zm0 0"/><path fill="#b8bcc5" d="M291.133 22.523 266.738 39l-12.285-26.684Zm0 0"/><path fill="#85081e" d="m196.516 70.637-10.72-6.465 22.481-6.844Zm0 0"/><path fill="#fdfbf4" d="m229.527 54.3 10.493 24.247-6.301 5.41Zm0 0"/><path fill="#b8bcc4" d="m221.219 34.285-12.942 23.043-4.82-24.61Zm0 0"/><path fill="#cb061e" d="m332.965 73.965 21.004-7.16-14.59 17.261Zm0 0"/><path fill="#fed500" d="m294.598 58.133-6.621 27.566-13.414-25.894Zm0 0"/><path fill="#cd071d" d="m294.598 58.133 13.09-23.477-.637 27.602Zm0 0"/><path fill="#cc061e" d="m62.098 63.527-7.86-.722 17.715-30.989Zm0 0"/><path fill="#b8b9bf" d="m26.277 136.719 23.235 12.972-27.555 18.973Zm0 0"/><path fill="#fed700" d="M93.176 97.016 107.03 67.94l9.703 6.141Zm0 0"/><path fill="#ce0b1d" d="M88.238 67.48 82.75 89.371 62.098 63.527Zm0 0"/><path fill="#fed500" d="M107.031 67.941 82.75 89.371l5.488-21.89Zm0 0"/><path fill="#fed700" d="M93.176 97.016 82.75 89.37l24.281-21.43Zm0 0"/><path fill="#b8bcc5" d="m0 117.918 16.785-7.316 9.492 26.117ZM-.004 238.582 0 175.391l20.484 49.5Zm0 0"/><path fill="#5b0a90" d="m-.004 238.582 20.488-13.691 1.383 16.207Zm0 0"/><path fill="#cd091d" d="m189.41 120.941-10.164 11.13 3.328-25.93Zm0 0"/><path fill="#fefefe" d="m179.246 132.07-11.605-2.492 14.933-23.437ZM182.574 106.14l-14.933 23.438-12.797-16.73Zm0 0"/><path fill="#fdd204" d="m156.04 140.914 11.6-11.336 7.114 20.184Zm0 0"/><path fill="#fefefd" d="m167.64 129.578 11.606 2.492-4.492 17.692Zm0 0"/><path fill="#fefefe" d="m167.64 129.578-19.35-6.035 6.554-10.695Zm0 0"/><path fill="#fefefd" d="m148.29 123.543 19.35 6.035-11.6 11.336Zm0 0"/><path fill="#fed701" d="m112.852 138.52-.051 32.421-24.094.989Zm0 0"/><path fill="#fefefd" d="m112.8 170.941 2.048 21.707-26.141-20.718Zm0 0"/><path fill="#fbcd03" d="m117.93 141.11-5.13 29.831.052-32.421Zm0 0"/><path fill="#86011f" d="m130.418 158.168-17.617 12.773 5.129-29.832Zm0 0"/><path fill="#ebbe13" d="m136.512 174.383 19.61-5.285-2.263 20.132Zm0 0"/><path fill="#87001f" d="m156.04 140.914-19.528 33.469-6.094-16.215Zm0 0"/><path fill="#f4c909" d="m156.121 169.098-19.61 5.285 19.528-33.469Zm0 0"/><path fill="#b8bcc4" d="M372.324 112.734 384 136.59l-22.336-5.598Zm0 0"/><path fill="#b8bcc5" d="m362.52 110.332 9.804 2.402-10.66 18.258Zm0 0"/><path fill="#cc071e" d="m353.969 66.805 8.55 43.527-23.14-26.266Zm0 0"/><path fill="#b8bcc5" d="m366.145 201.871-6.192-46.976 3.606 1.421Zm0 0"/><path fill="#b7bbc4" d="m362.648 219.145 3.497-17.274 17.875 29.727ZM374.563 231.262l-11.915-12.117 21.372 12.453Zm0 0"/><path fill="#b8bcc5" d="M366.145 201.871 384 136.59l.02 95.008Zm0 0"/><path fill="#b7bbc4" d="m384 136.59-17.855 65.281-2.586-45.555Zm0 0"/><path fill="#fefefe" d="m359.953 154.895-12.922-6.551 14.633-17.352Zm0 0"/><path fill="#b8bcc5" d="m367 57.453-4.48 52.879-8.551-43.527ZM362.52 110.332 367 57.453l5.324 55.281Zm0 0"/><path fill="#bbbdc5" d="m314.68 112.043-31.297-3.223 14.031-16.828Zm0 0"/><path fill="#b6b8c3" d="m326.441 221.309-10.214-52.973 20.875 6.734Zm0 0"/><path fill="#e5b616" d="m316.227 168.336 10.214 52.973L298.5 207.28Zm0 0"/><path fill="#b8bcc5" d="M353.574 25.285 310.148 0H384Zm0 0"/><path fill="#b8bcc5" d="m310.148 0 43.426 25.285-38.543-3.93Zm0 0"/><path fill="#b7bbc4" d="M291.133 22.523 310.148 0l4.883 21.355Zm0 0"/><path fill="#cc081d" d="m214.969 198.426 3.125-8.656 16.445 16.675Zm0 0"/><path fill="#cd071d" d="m218.094 189.77 17.64 15.94-1.195.735Zm0 0"/><path fill="#d5d8dc" d="m153.86 189.23 40.402 20.399-18.496 40.32Zm0 0"/><path fill="#bbbec6" d="m194.262 209.629-40.403-20.399 37.836-1.957Zm0 0"/><path fill="#fefdfb" d="m153.86 189.23 26.406-10.375 11.43 8.418Zm0 0"/><path fill="#9981b4" d="m384.02 231.598-.024 60.707-15.61-47.465Zm0 0"/><path fill="#fdfdfc" d="m348.316 267.46-16.234-17.644 36.305-4.976Zm0 0"/><path fill="#fefefe" d="m332.082 249.816 16.234 17.645-18.742 20.117Zm0 0"/><path fill="#b7bbc4" d="m364.93 329.281 19.066-36.976.012 50.34Zm0 0"/><path fill="#b7bac4" d="m364.93 329.281 4.132-38.246 14.934 1.27Zm0 0"/><path fill="#6f319c" d="m374.563 231.262 9.457.336-15.633 13.242Zm0 0"/><path fill="#b5afbe" d="m326.441 221.309 5.641 28.507-13.062 1.063Zm0 0"/><path fill="#fcfcfc" d="m332.082 249.816-5.64-28.507 21.402 5.382Zm0 0"/><path fill="#d2ced0" d="m329.574 287.578-10.941.52.387-37.22Zm0 0"/><path fill="#edcd3d" d="m318.633 288.098-20.738-27.875 21.125-9.344Zm0 0"/><path fill="#61118b" d="m109.285 374.773 1.508 9.227h-11.52Zm0 0"/><path fill="#5e0d8e" d="m88.77 369.86 20.515 4.913L99.273 384Zm0 0"/><path fill="#7d489d" d="m101.617 347.133 7.668 27.64-20.515-4.914Zm0 0"/><path fill="#d8c563" d="m101.617 347.133-28.156-10.258 6.695-22.566Zm0 0"/><path fill="#60128f" d="m36.996 313.223 36.465 23.652-25.566 19.418Zm0 0"/><path fill="#e0c548" d="m73.46 336.875-36.464-23.652 43.16 1.086Zm0 0"/><path fill="#621894" d="m47.895 356.293 25.566-19.418-11.727 37.64Zm0 0"/><path fill="#6a228f" d="m73.46 336.875 28.157 10.258-39.883 27.383Zm0 0"/><path fill="#5b0a90" d="m61.734 374.516-36.101-14.434 22.262-3.789Zm0 0"/><path fill="#b7bac2" d="m61.734 374.516 27.395 9.511-31.223-.03Zm0 0"/><path fill="#b7bac3" d="M0 384v-36.824l24.148 14.3Zm0 0"/><path fill="#5c0c91" d="m0 347.176 36.996-33.953-17.766 31.703Zm0 0"/><path fill="#5c0c91" d="M36.996 313.223.004 295.187l18.43-13.464Zm0 0"/><path fill="#64188f" d="m0 347.176.004-51.988 36.992 18.035Zm0 0"/><path fill="#bdbdb4" d="m37.078 237.957-18.644 43.766 3.433-40.625Zm0 0"/><path fill="#bcbdb7" d="m37.078 237.957 13.293 39.152-31.937 4.614Zm0 0"/><path fill="#bebcb0" d="m20.484 224.89 16.594 13.067-15.21 3.14Zm0 0"/><path fill="#5b0a90" d="m19.23 344.926 6.403 15.156-1.485 1.395Zm0 0"/><path fill="#5c0c8f" d="m0 347.176 19.23-2.25 4.918 16.55Zm0 0"/><path fill="#fcfcfd" d="m211.223 317.676-11.102-5.754 11.512-16.024Zm0 0"/><path fill="#fefefd" d="m200.121 311.922 10.781 34.902-33.68-35.887Zm0 0"/><path fill="#fefefe" d="m200.121 311.922 11.102 5.754-.32 29.148Zm0 0"/><path fill="#ecddbe" d="m236.66 265.23 30.39-8.78 12.907 26.19Zm0 0"/><path fill="#800020" d="m267.05 256.45-30.39 8.78 17.215-18.69Zm0 0"/><path fill="#f8cf06" d="m258.246 311.016-10.723-16.957 32.434-11.418Zm0 0"/><path fill="#fbd202" d="M247.523 294.059 236.66 265.23l43.297 17.41Zm0 0"/><path fill="#7f0223" d="m233.805 242.207 2.855 23.023-23.015-10.742Zm0 0"/><path fill="#e9e9eb" d="m236.66 265.23-2.855-23.023 20.07 4.332Zm0 0"/><path fill="#ede9d7" d="m159.855 357.688-38.75-51.329 56.118 4.579Zm0 0"/><path fill="#b8bcc3" d="m80.156 314.309 26.008-67.137 14.941 59.187Zm0 0"/><path fill="#b9bbc0" d="m37.078 237.957 69.086 9.215-55.793 29.937Zm0 0"/><path fill="#b9bcc1" d="m50.371 277.11 55.793-29.938-26.008 67.137Zm0 0"/><path fill="#6e2381" d="m172.613 384.016 39.86-4.606 40.648 4.602Zm0 0"/><path fill="#b6b5bc" d="m235.344 345.29 10.129 25.448-30.996-11.445Zm0 0"/><path fill="#7b47a2" d="m245.473 370.738-33 8.672 2.004-20.117Zm0 0"/><path fill="#d5c679" d="m101.617 347.133 19.488-40.774 38.75 51.329Zm0 0"/><path fill="#6a2592" d="m101.617 347.133 58.238 10.555-50.57 17.085Zm0 0"/><path fill="#aea8be" d="m159.855 357.688 12.758 26.328-63.328-9.243Zm0 0"/><path fill="#f1e6a7" d="m210.902 346.824-30.699 12.32-2.98-48.207Zm0 0"/><path fill="#fef6cf" d="m180.203 359.145 30.7-12.32 3.574 12.468Zm0 0"/><path fill="#b2adc1" d="m212.473 379.41-32.27-20.265 34.274.148Zm0 0"/><path fill="#f5e698" d="m180.203 359.145-20.348-1.457 17.368-46.75Zm0 0"/><path fill="#c8091d" d="m126.453 85.777-9.719-11.695 11.36-1.805Zm0 0"/><path fill="#d01a1b" d="m128.094 72.277-6.797-10.816 18.371.922Zm0 0"/><path fill="#d3211a" d="m121.297 61.46 5.062-17.812 13.309 18.735Zm0 0"/><path fill="#ca071e" d="m116.734 74.082 4.563-12.621 6.797 10.816Zm0 0"/><path fill="#cd071d" d="m121.297 61.46-4.563 12.622-9.703-6.14Zm0 0"/><path fill="#ce0b1d" d="m126.36 43.648-5.063 17.813-11.215-9.856Zm0 0"/><path fill="#cd071d" d="m121.297 61.46-14.266 6.481 3.051-16.336Zm0 0"/><path fill="#fefefe" d="m126.453 85.777 20.66-3.011-5.047 14.39ZM147.113 82.766l12.067 13.906-17.114.484Zm0 0"/><path fill="#fefefe" d="m159.18 96.672 23.394 9.469-27.73 6.707ZM176.117 83.758l30.25-3.899-2.375 19.563Zm0 0"/><path fill="#fefefe" d="m176.117 83.758 6.457 22.383-23.394-9.47ZM182.574 106.14l-6.457-22.382 27.875 15.664Zm0 0"/><path fill="#b8bcc5" d="m79.434 17.04-20.57 7.605L59.175 0Zm0 0"/><path fill="#b8bcc5" d="m58.863 24.645 20.57-7.606-7.48 14.777Zm0 0"/><path fill="#bdc1c8" d="m244.367 144-23.554-24.473 32.675 11.793Zm0 0"/><path fill="#efefec" d="M220.813 119.527 244.367 144l-40.472-12.047Zm0 0"/><path fill="#bbbec2" d="m244.367 144 9.121-12.68 28.489 29.852Zm0 0"/><path fill="#83051f" d="m297.414 91.992-36.351-4.183 26.914-2.11Zm0 0"/><path fill="#c5c7cd" d="m297.414 91.992-14.031 16.828-22.32-21.011Zm0 0"/><path fill="#fde24c" d="m261.063 87.809-6.297-15.606 19.797-12.398Zm0 0"/><path fill="#81001f" d="m243.5 59.05 11.266 13.153-14.746 6.344Zm0 0"/><path fill="#cd071d" d="M254.766 72.203 266.738 39l7.825 20.805Zm0 0"/><path fill="#ca061e" d="m266.738 39-11.972 33.203L243.5 59.051Zm0 0"/><path fill="#fefefe" d="m247.984 105.117-27.172 14.41 12.907-35.57Zm0 0"/><path fill="#f7f7f8" d="m283.383 108.82-35.399-3.703 13.078-17.308Zm0 0"/><path fill="#fed300" d="m157.14 50.352-12.792 27.257-4.68-15.226Zm0 0"/><path fill="#b8bcc5" d="m139.137 36.223 18.004 14.129-17.473 12.03Zm0 0"/><path fill="#b8bcc5" d="m162.563 28.02-5.422 22.332-18.004-14.13Zm0 0"/><path fill="#fefefe" d="m203.992 99.422 2.375-19.563 27.352 4.098Zm0 0"/><path fill="#fed600" d="m206.367 79.86 23.16-25.56 4.192 29.657Zm0 0"/><path fill="#fdd400" d="m206.367 79.86-9.851-9.223 11.761-13.309Zm0 0"/><path fill="#fed600" d="M221.219 34.285 206.367 79.86l1.91-22.53ZM206.367 79.86l14.852-45.575 8.308 20.016Zm0 0"/><path fill="#b8bcc4" d="m229.527 54.3-8.308-20.015 23.25 3.805Zm0 0"/><path fill="#bebdb4" d="m229.527 54.3 13.973 4.75-3.48 19.497Zm0 0"/><path fill="#b8bcc4" d="m243.5 59.05-13.973-4.75 14.942-16.21Zm0 0"/><path fill="#b8bcc5" d="m291.133 22.523-2.195 17.887-22.2-1.41Zm0 0"/><path fill="#b8bcc5" d="m307.688 34.656-18.75 5.754 2.195-17.887ZM266.738 39l22.2 1.41-14.375 19.395Zm0 0"/><path fill="#fed600" d="m288.938 40.41 5.66 17.723-20.036 1.672Zm0 0"/><path fill="#b8bcc5" d="m294.598 58.133-5.66-17.723 18.75-5.754ZM384 51.215l-17 6.238-13.426-32.168Zm0 0"/><path fill="#b7bbc4" d="m38.113 47.57-4.82-19.14 12.023 13.46Zm0 0"/><path fill="#b8bcc5" d="m33.293 28.43 4.82 19.14-19.336 7.57ZM58.863 24.645l-4.625 38.16-8.922-20.914Zm0 0"/><path fill="#cc071d" d="m54.238 62.805 4.625-38.16 13.09 7.171Zm0 0"/><path fill="#b8bcc5" d="M54.238 62.805 38.113 47.57l7.203-5.68Zm0 0"/><path fill="#cc081f" d="m38.113 47.57 16.125 15.235-20.242.836Zm0 0"/><path fill="#fed702" d="m97.523 136.16 15.329 2.36-24.145 33.41Zm0 0"/><path fill="#82001f" d="m52.54 134.29 8.745-22.911 3.281 33.758Zm0 0"/><path fill="#80011f" d="m49.512 149.691 3.027-15.402 12.027 10.848Zm0 0"/><path fill="#fad30c" d="m52.54 134.29-26.263 2.429 17.094-17.906Zm0 0"/><path fill="#f2d121" d="m26.277 136.719 26.262-2.43-3.027 15.402Zm0 0"/><path fill="#80001f" d="m53.137 167.41-3.625-17.719 15.054-4.554Zm0 0"/><path fill="#b7bac1" d="m49.512 149.691 3.625 17.72-31.18 1.253Zm0 0"/><path fill="#b1aebf" d="m53.137 167.41 10.144 40.922-41.324-39.668Zm0 0"/><path fill="#6c2793" d="M63.281 208.332 53.137 167.41l16.894 9.52Zm0 0"/><path fill="#fefefe" d="m91.031 114.14 15.64 3.922-15.374 14.032ZM106.672 118.063l8.39-25.641 14.258 8.566Zm0 0"/><path fill="#fed808" d="m115.063 92.422-21.887 4.594 23.558-22.934Zm0 0"/><path fill="#fefefe" d="m91.031 114.14 24.031-21.718-8.39 25.64Zm0 0"/><path fill="#fefefe" d="M115.063 92.422 91.03 114.14l2.145-17.125ZM115.063 92.422l11.39-6.645 2.867 15.211Zm0 0"/><path fill="#fee251" d="m115.063 92.422 1.671-18.34 9.72 11.695Zm0 0"/><path fill="#cd071d" d="M82.75 89.371 57.246 68.06l4.852-4.532Zm0 0"/><path fill="#fdfdfd" d="m82.664 96.984.086-7.613 10.426 7.645Zm0 0"/><path fill="#b8bcc4" d="m10.793 99.79 5.992 10.812L0 117.918ZM0 0l10.793 99.79L0 117.917Zm0 0"/><path fill="#b8bcc4" d="M10.793 99.79 0 0l18.777 55.14Zm0 0"/><path fill="#b8bcc5" d="m34.54 96.887-23.747 2.902 7.984-44.648Zm0 0"/><path fill="#b8bcc5" d="m10.793 99.79 23.746-2.903-17.754 13.715Zm0 0"/><path fill="#eee9cb" d="M16.785 110.602 34.54 96.887l-8.262 39.832Zm0 0"/><path fill="#800120" d="m26.277 136.719 8.262-39.832 8.832 21.926Zm0 0"/><path fill="#83001f" d="m34.54 96.887 13.808 3.68-4.977 18.246Zm0 0"/><path fill="#cd091d" d="m54.238 62.805-6.597 12.52L33.996 63.64Zm0 0"/><path fill="#ce0b1d" d="m47.64 75.324 6.598-12.52 3.008 5.255Zm0 0"/><path fill="#cc071d" d="m197.063 168.637-16.797 10.218-5.512-29.093Zm0 0"/><path fill="#b8bcc4" d="m136.512 174.383-2.649 29.96-19.015-11.695Zm0 0"/><path fill="#c5c6c7" d="m112.8 170.941 23.712 3.442-21.664 18.265Zm0 0"/><path fill="#80001f" d="M136.512 174.383 112.8 170.94l17.617-12.773Zm0 0"/><path fill="#b8bcc5" d="m384 136.59-11.676-23.856L384 51.214ZM372.324 112.734 367 57.454l17-6.24Zm0 0"/><path fill="#fefefe" d="m362.52 110.332-17.051-6.46-6.09-19.806Zm0 0"/><path fill="#cd071d" d="m345.469 103.871-17.485-11.703 11.395-8.102Zm0 0"/><path fill="#fefefe" d="m362.648 219.145-11.421-16.297 14.918-.977ZM359.953 154.895l-8.726 47.953-14.125-27.778Zm0 0"/><path fill="#fcfdfd" d="m351.227 202.848 8.726-47.953 6.192 46.976Zm0 0"/><path fill="#fdfdfe" d="m351.227 202.848-24.786 18.46 10.66-46.238Zm0 0"/><path fill="#f9f9fa" d="m326.441 221.309 24.786-18.461-3.383 23.843Zm0 0"/><path fill="#fefefe" d="m351.227 202.848 11.421 16.297-14.804 7.546ZM342.504 129.809l8.402-9.48 10.758 10.663Zm0 0"/><path fill="#fefefe" d="m347.031 148.344-4.527-18.535 19.16 1.183Zm0 0"/><path fill="#fcd402" d="m281.977 161.172-22.758 26.77L244.367 144Zm0 0"/><path fill="#fed600" d="m323.695 64.941-3.816 23.586-22.465 3.465Zm0 0"/><path fill="#f1c913" d="m319.879 88.527-5.2 23.516-17.265-20.05Zm0 0"/><path fill="#cc0a1d" d="m314.68 112.043 5.199-23.516 8.105 3.641Zm0 0"/><path fill="#cc071d" d="m327.984 92.168 4.98-18.203 6.415 10.101Zm0 0"/><path fill="#cd081d" d="m319.879 88.527 13.086-14.562-4.98 18.203Zm0 0"/><path fill="#f7ca12" d="m327.984 92.168-1.718 15.727-11.586 4.148Zm0 0"/><path fill="#fed600" d="m235.734 205.71 18.141 40.83-19.336-40.095Zm0 0"/><path fill="#fdd500" d="m235.734 205.71 24.344 8.892-6.203 31.937Zm0 0"/><path fill="#c5c8cd" d="m212.383 190.813 2.586 7.613-23.274-11.153Zm0 0"/><path fill="#fefefd" d="m212.383 190.813 5.71-1.043-3.124 8.656Zm0 0"/><path fill="#fefefe" d="m212.77 177.297-.387 13.516-20.688-3.54Zm0 0"/><path fill="#b7bbc4" d="m384.008 342.645-37.156 6.152 18.078-19.516Zm0 0"/><path fill="#b8bcc5" d="m349.395 325.75 18.828-34.762-3.293 38.293Zm0 0"/><path fill="#b7bbc4" d="m368.223 290.988.84.047-4.133 38.246Zm0 0"/><path fill="#f5ca07" d="m258.246 311.016 21.711-28.375.23 36.582Zm0 0"/><path fill="#5b0a90" d="m332.309 384-3.832-14.445 26.054-9.727Zm0 0"/><path fill="#aaa2bd" d="m346.852 348.797-18.375 20.758-5.77-32.063Zm0 0"/><path fill="#641c95" d="m368.387 244.84-5.739-25.695 11.914 12.117Zm0 0"/><path fill="#fefefe" d="m368.387 244.84-36.305 4.976 15.762-23.125Zm0 0"/><path fill="#fefefe" d="m362.648 219.145 5.739 25.695-20.543-18.149Zm0 0"/><path fill="#800020" d="m326.441 221.309-19.77 12.214-8.171-26.242Zm0 0"/><path fill="#f7cf0b" d="m281.043 223.164 25.629 10.36-8.777 26.699Zm0 0"/><path fill="#f1cc1a" d="m297.895 260.223 8.777-26.7 12.348 17.356Zm0 0"/><path fill="#d5cebc" d="m306.672 233.523 19.77-12.214-7.422 29.57Zm0 0"/><path fill="#b6b9c3" d="m24.148 361.477 37.586 13.039-3.828 9.48Zm0 0"/><path fill="#5c0b90" d="m61.734 374.516-37.586-13.04 1.485-1.394Zm0 0"/><path fill="#b7bac3" d="m24.148 361.477 33.758 22.52L0 384Zm0 0"/><path fill="#fbfaf8" d="m197.52 279.031-.692 20.649-19.605 11.257Zm0 0"/><path fill="#fcfcf8" d="m196.828 299.68 3.293 12.242-22.898-.985Zm0 0"/><path fill="#fafafa" d="m200.121 311.922-3.293-12.242 14.805-3.782Zm0 0"/><path fill="#f8ce05" d="m247.523 294.059-6.097 15.296-29.793-13.457Zm0 0"/><path fill="#c69032" d="m211.223 317.676 30.203-8.32 10.254 22.042Zm0 0"/><path fill="#6a1e84" d="m241.426 309.355-30.203 8.32.41-21.777Zm0 0"/><path fill="#f8cf05" d="m241.426 309.355 6.097-15.296 10.723 16.957Zm0 0"/><path fill="#823e75" d="m251.68 331.398-10.254-22.043 16.82 1.66Zm0 0"/><path fill="#fbd202" d="m236.66 265.23-25.027 30.668 2.012-41.41Zm0 0"/><path fill="#fdfdfd" d="m211.633 295.898-14.113-16.867 16.125-24.543Zm0 0"/><path fill="#f9d10c" d="m211.633 295.898 25.027-30.668 10.863 28.829Zm0 0"/><path fill="#fafafa" d="m211.633 295.898-14.805 3.782.692-20.649Zm0 0"/><path fill="#601491" d="m245.473 370.738 7.648 13.274-40.648-4.602Zm0 0"/><path fill="#b8bbc4" d="m259.715 352-24.371-6.71 16.336-13.892Zm0 0"/><path fill="#b8bbc4" d="m259.715 352-14.242 18.738-10.13-25.449Zm0 0"/><path fill="#a5674f" d="m251.68 331.398 6.566-20.382 21.942 8.207Zm0 0"/><path fill="#9e89b4" d="m180.203 359.145 32.27 20.265-39.86 4.606Zm0 0"/><path fill="#aba1b9" d="m159.855 357.688 20.348 1.457-7.59 24.87Zm0 0"/><path fill="#fefefd" d="m147.113 82.766 29.004.992-16.937 12.914Zm0 0"/><path fill="#cd0b1d" d="m144.348 77.61-17.895 8.167 1.64-13.5Zm0 0"/><path fill="#d52c1b" d="m144.348 77.61 2.765 5.156-20.66 3.011Zm0 0"/><path fill="#cd071d" d="m144.348 77.61-16.254-5.333 11.574-9.894Zm0 0"/><path fill="#80011f" d="m183.555 76.875 12.96-6.238 9.852 9.222Zm0 0"/><path fill="#fcd200" d="m176.117 83.758 7.438-6.883 22.812 2.984Zm0 0"/><path fill="#84031f" d="m196.516 70.637-12.961 6.238 2.242-12.703Zm0 0"/><path fill="#80001f" d="m254.766 72.203 6.297 15.606-21.043-9.262Zm0 0"/><path fill="#bbbfc7" d="m240.02 78.547 21.042 9.262-27.343-3.852Zm0 0"/><path fill="#fdfdfd" d="m261.063 87.809-13.079 17.308-14.265-21.16Zm0 0"/><path fill="#b8bcc5" d="m344.535 49.355-20.84 15.586 4.711-26.214Zm0 0"/><path fill="#b8bcc5" d="m353.574 25.285-9.039 24.07-16.129-10.628Zm0 0"/><path fill="#b8bcc4" d="m367 57.453-22.465-8.098 9.04-24.07Zm0 0"/><path fill="#fed600" d="m323.695 64.941 9.27 9.024-13.086 14.562Zm0 0"/><path fill="#cc061e" d="m332.965 73.965 11.57-24.61 9.434 17.45Zm0 0"/><path fill="#cc081d" d="m344.535 49.355-11.57 24.61-9.27-9.024Zm0 0"/><path fill="#b8bcc5" d="m307.688 34.656 20.718 4.07-4.71 26.215Zm0 0"/><path fill="#8b011f" d="m307.05 62.258-19.073 23.441 6.62-27.566Zm0 0"/><path fill="#90011f" d="m307.05 62.258-9.636 29.734-9.437-6.293Zm0 0"/><path fill="#d62f18" d="m307.05 62.258.637-27.602 16.008 30.285Zm0 0"/><path fill="#cd071d" d="m297.414 91.992 9.637-29.734 16.644 2.683Zm0 0"/><path fill="#b8bcc5" d="m0 0 33.293 28.43-14.516 26.71ZM33.996 63.64l.543 33.247L18.777 55.14Zm0 0"/><path fill="#b8bbc4" d="m38.113 47.57-4.117 16.07-15.219-8.5Zm0 0"/><path fill="#85001f" d="m33.996 63.64 13.645 11.684-13.102 21.563Zm0 0"/><path fill="#cd071d" d="m57.246 68.059-3.008-5.254 7.86.722Zm0 0"/><path fill="#c2c3bf" d="m70.031 176.93.75-17.38 17.926 12.38Zm0 0"/><path fill="#ecbf11" d="m70.781 159.55 26.742-23.39-8.816 35.77Zm0 0"/><path fill="#babbbc" d="m53.137 167.41 17.644-7.86-.75 17.38Zm0 0"/><path fill="#80001f" d="m70.781 159.55-17.644 7.86 11.43-22.273Zm0 0"/><path fill="#81001f" d="M91.297 132.094 70.78 159.55l-6.215-14.414Zm0 0"/><path fill="#fcd309" d="m97.523 136.16-26.742 23.39 20.516-27.456Zm0 0"/><path fill="#fefefe" d="m91.031 114.14-5.383-1.148 7.528-15.976ZM85.648 112.992l-2.984-16.008 10.512.032Zm0 0"/><path fill="#cd071e" d="m85.648 112.992 5.383 1.149.266 17.953Zm0 0"/><path fill="#8a011f" d="m48.348 100.566 6.183 7.145-11.16 11.102Zm0 0"/><path fill="#feda16" d="m54.531 107.71-1.992 26.58-9.168-15.477Zm0 0"/><path fill="#fdda1d" d="m52.54 134.29 1.991-26.58 6.754 3.669Zm0 0"/><path fill="#cd071d" d="M85.648 112.992 67.43 93.004l15.234 3.98Zm0 0"/><path fill="#cc071e" d="m67.43 93.004 18.218 19.988-24.363-1.613Zm0 0"/><path fill="#fefbfb" d="M54.531 107.71 67.43 93.005l-6.145 18.375Zm0 0"/><path fill="#cd071d" d="M67.43 93.004 54.53 107.71l-6.183-7.145Zm0 0"/><path fill="#b6051e" d="m48.348 100.566-13.809-3.68 13.102-21.562Zm0 0"/><path fill="#cd071d" d="m197.203 133.488-7.793-12.547 8.613-7.925Zm0 0"/><path fill="#cd071e" d="m203.895 131.953-6.692 1.535.82-20.472Zm0 0"/><path fill="#cd071d" d="m189.41 120.941 7.793 12.547-17.957-1.418Zm0 0"/><path fill="#cd081e" d="m197.063 168.637 15.707 8.66-21.075 9.976Zm0 0"/><path fill="#cd071d" d="m180.266 178.855 16.797-10.218-5.368 18.636Zm0 0"/><path fill="#fefefe" d="m212.383 190.813.387-13.516 5.324 12.473Zm0 0"/><path fill="#cc071d" d="m212.617 168.133-15.554.504.14-35.149Zm0 0"/><path fill="#cd071d" d="m197.063 168.637 15.554-.504.153 9.164Zm0 0"/><path fill="#cd0a20" d="m218.094 189.77 12.37-10.672 5.27 26.613Zm0 0"/><path fill="#f2ebec" d="m230.465 179.098 28.754 8.843-23.485 17.77Zm0 0"/><path fill="#90557a" d="m212.77 177.297 17.695 1.8-12.371 10.673Zm0 0"/><path fill="#fdd402" d="m230.465 179.098-17.695-1.801-.153-9.164Zm0 0"/><path fill="#cd081d" d="m203.895 131.953 8.722 36.18-15.414-34.645Zm0 0"/><path fill="#b7bac4" d="m136.512 174.383 17.347 14.847-19.996 15.114Zm0 0"/><path fill="#fefefe" d="m345.469 103.871 17.05 6.461-11.613 9.996Zm0 0"/><path fill="#fdfdfd" d="m350.906 120.328 11.614-9.996-.856 20.66Zm0 0"/><path fill="#f2f2f1" d="m347.031 148.344-9.93 26.726-20.874-6.734Zm0 0"/><path fill="#fefefe" d="m347.031 148.344 12.922 6.55-22.851 20.176Zm0 0"/><path fill="#e8ba14" d="m326.266 107.895-7.825 27.57-3.761-23.422Zm0 0"/><path fill="#fed701" d="m347.031 148.344-28.59-12.88 24.063-5.655Zm0 0"/><path fill="#ecbf12" d="m318.441 135.465-19.972 9.012 16.21-32.434Zm0 0"/><path fill="#e6bb1d" d="m298.469 144.477 19.972-9.012-2.214 32.87Zm0 0"/><path fill="#f4cb0e" d="m318.441 135.465 28.59 12.879-30.804 19.992Zm0 0"/><path fill="#fdfdfb" d="m334.598 108.379-8.332-.484 1.718-15.727Zm0 0"/><path fill="#cd071e" d="m334.598 108.379 10.87-4.508 5.438 16.457Zm0 0"/><path fill="#cd081d" d="m345.469 103.871-10.871 4.508-6.614-16.211Zm0 0"/><path fill="#fefdfd" d="m342.504 129.809-7.906-21.43 16.308 11.95Zm0 0"/><path fill="#fed600" d="m318.441 135.465 16.157-27.086 7.906 21.43Zm0 0"/><path fill="#fdd604" d="m334.598 108.379-16.157 27.086 7.825-27.57Zm0 0"/><path fill="#cd071e" d="m235.734 205.71 23.485-17.769.86 26.66Zm0 0"/><path fill="#f6ca07" d="m281.043 223.164-13.992 33.285-13.176-9.91Zm0 0"/><path fill="#fed600" d="m260.078 214.602 20.965 8.562-27.168 23.375Zm0 0"/><path fill="#edc71d" d="m267.05 256.45 13.993-33.286 16.852 37.059Zm0 0"/><path fill="#5b0b90" d="m384 384-29.469-24.172 29.477-17.183Zm0 0"/><path fill="#5b0a90" d="m332.309 384 22.222-24.172L384 384Zm0 0"/><path fill="#fefefe" d="m384.008 342.645-29.477 17.183-7.68-11.031Zm0 0"/><path fill="#987fb3" d="m368.387 244.84 15.61 47.465-14.935-1.27Zm0 0"/><path fill="#aca3be" d="m368.223 290.988.164-46.148.675 46.195Zm0 0"/><path fill="#fefefe" d="m368.387 244.84-.164 46.148-19.907-23.527ZM329.574 287.578l38.649 3.41-18.828 34.762Zm0 0"/><path fill="#fdfdfd" d="m368.223 290.988-38.649-3.41 18.742-20.117Zm0 0"/><path fill="#f4ca08" d="m308.7 320.934-28.512-1.711-.231-36.582Zm0 0"/><path fill="#b0adc0" d="M328.477 369.555 317.8 340.508l4.906-3.016Zm0 0"/><path fill="#dedddf" d="m317.8 340.508-9.1-19.574 14.007 16.558Zm0 0"/><path fill="#ecebe8" d="m308.7 320.934 9.1 19.574-37.613-21.285Zm0 0"/><path fill="#800121" d="m318.633 288.098-29.559-17.207 8.82-10.668Zm0 0"/><path fill="#c6c6c1" d="m289.074 270.89-22.023-14.44 30.844 3.773Zm0 0"/><path fill="#85051f" d="m267.05 256.45 22.024 14.44-9.117 11.75Zm0 0"/><path fill="#bab6b3" d="m289.074 270.89 29.559 17.208-38.676-5.457Zm0 0"/><path fill="#ecbf10" d="m318.633 288.098-9.934 32.836-28.742-38.293Zm0 0"/><path fill="#b8bcc5" d="m349.395 325.75 15.535 3.531-18.078 19.516ZM349.395 325.75l-2.543 23.047-24.145-11.305Zm0 0"/><path fill="#86122f" d="m298.5 207.281 8.172 26.242-25.629-10.359Zm0 0"/><path fill="#681e8c" d="m262.418 373.453-9.297 10.559-7.648-13.274Zm0 0"/><path fill="#6c2997" d="m259.715 352 2.703 21.453-16.945-2.715Zm0 0"/><path fill="#732679" d="m332.309 384-79.188.012 9.297-10.559Zm0 0"/><path fill="#fed600" d="m147.113 82.766 30.422-23.309-1.418 24.3Zm0 0"/><path fill="#fed700" d="m177.535 59.457 6.02 17.418-7.438 6.883Zm0 0"/><path fill="#fed600" d="m177.535 59.457-30.422 23.309-2.765-5.157Zm0 0"/><path fill="#fed701" d="m183.555 76.875-6.02-17.418 8.262 4.715Zm0 0"/><path fill="#b8bbc4" d="M344.535 49.355 367 57.453l-13.031 9.352Zm0 0"/><path fill="#b8bcc5" d="m307.688 34.656 7.343-13.3 13.375 17.37ZM291.133 22.523l23.898-1.168-7.344 13.301Zm0 0"/><path fill="#cc071e" d="m75.012 123.918 10.636-10.926 5.649 19.102Zm0 0"/><path fill="#cc071e" d="m85.648 112.992-10.636 10.926-13.727-12.54Zm0 0"/><path fill="#82001f" d="m61.285 111.379 13.727 12.539-10.446 21.219Zm0 0"/><path fill="#cb071e" d="m75.012 123.918 16.285 8.176-26.73 13.043Zm0 0"/><path fill="#cd071d" d="M57.246 68.059 67.43 93.004l-19.79-17.68Zm0 0"/><path fill="#cc071d" d="m67.43 93.004-19.082 7.562-.707-25.242Zm0 0"/><path fill="#fefefe" d="M67.43 93.004 57.246 68.059 82.75 89.37Zm0 0"/><path fill="#cd081e" d="m82.664 96.984-15.234-3.98 15.32-3.633Zm0 0"/><path fill="#cc071d" d="m197.203 133.488-11.207 10.184-6.75-11.602Zm0 0"/><path fill="#cc071d" d="m179.246 132.07 6.75 11.602-11.242 6.09Zm0 0"/><path fill="#cc061e" d="m185.996 143.672 11.066 24.965-22.308-18.875Zm0 0"/><path fill="#cd071d" d="m197.063 168.637-11.067-24.965 11.207-10.184Zm0 0"/><path fill="#fed501" d="m259.219 187.941-28.754-8.843L244.367 144Zm0 0"/><path fill="#fed600" d="m230.465 179.098-26.57-47.145L244.367 144Zm0 0"/><path fill="#fed600" d="m203.895 131.953 26.57 47.145-17.848-10.965Zm0 0"/><path fill="#fefefe" d="m349.395 325.75-26.688 11.742 6.867-49.914Zm0 0"/><path fill="#d5cfba" d="m322.707 337.492-4.074-49.394 10.941-.52Zm0 0"/><path fill="#edc10f" d="m318.633 288.098 4.074 49.394-14.008-16.558Zm0 0"/><path fill="#fefefe" d="m354.531 359.828-26.054 9.727 18.375-20.758Zm0 0"/><path fill="#712b88" d="m332.309 384-46.266-19.453 42.434 5.008Zm0 0"/><path fill="#6b1d7f" d="M286.043 364.547 332.309 384l-69.891-10.547Zm0 0"/><path fill="#70247e" d="m286.043 364.547 31.758-24.04 10.676 29.048Zm0 0"/><path fill="#997daa" d="m259.715 352 26.328 12.547-23.625 8.906Zm0 0"/><path fill="#cd0c1f" d="m259.219 187.941 21.824 35.223-20.965-8.562Zm0 0"/><path fill="#fed600" d="m157.14 50.352 20.395 9.105-33.187 18.152Zm0 0"/><path fill="#fed809" d="m177.535 59.457-20.394-9.105 5.422-22.332Zm0 0"/><path fill="#742b7c" d="m317.8 340.508-39.995-5.305 2.382-15.98Zm0 0"/><path fill="#b4b4c2" d="m286.043 364.547-8.238-29.344 39.996 5.305Zm0 0"/><path fill="#b7bbc4" d="m277.805 335.203 8.238 29.344L259.715 352Zm0 0"/><path fill="#b8bcc5" d="M277.805 335.203 259.715 352l-8.035-20.602Zm0 0"/><path fill="#b57d44" d="m277.805 335.203-26.125-3.805 28.507-12.175Zm0 0"/></svg>