<svg xmlns="http://www.w3.org/2000/svg" width="512" height="512" viewBox="0 0 384 384"><path fill="#deded9" d="m189.387 296.613 9.597-38.351 14.438-5.282Zm0 0"/><path fill="#e9eaeb" d="m198.984 258.262-9.597 38.351-11.086-37.875Zm0 0"/><path fill="#b8bcc5" d="m102.836 54.852-22.941-6.133 15.808-31.281Zm0 0"/><path fill="#b8bcc5" d="M79.895 48.719 60.473 22.512l35.23-5.074Zm0 0"/><path fill="#f9f7f0" d="M107.074 154.77 98.98 128.7l17.532 18.995Zm0 0"/><path fill="#fafafa" d="m94.898 193.86-24.57-14.423 20.914-3.792Zm0 0"/><path fill="#f2f2f3" d="m106.398 186.988-11.5 6.871-3.656-18.214Zm0 0"/><path fill="#6c6123" d="m263.86 174.086 15.867-12.055 2.98 34.778Zm0 0"/><path fill="#091e3b" d="m225.465 120.824 34.21 11.04-9.1 16.152Zm0 0"/><path fill="#fefefe" d="m259.676 131.863 35.894-20.566-9.597 30.406Zm0 0"/><path fill="#6b7376" d="m213.422 252.98-14.438 5.282-20.683.476Zm0 0"/><path fill="#081d3c" d="m0 269.672.031-32.145 22.145 14.188Zm0 0"/><path fill="#806e1e" d="m79.926 313.3-20.727 17.231-28.844-28.047Zm0 0"/><path fill="#fdfdfd" d="m27.262 320.496 3.297 29.348-16-8.828Zm0 0"/><path fill="#c6c9ce" d="m182.559 202.742-22.274 18.883-10.976-20.152Zm0 0"/><path fill="#293437" d="m79.926 313.3 37.816-24.905 4.11 19.023Zm0 0"/><path fill="#e7e6e1" d="m178.3 258.738-29.796 17.285-3.723-22.011Zm0 0"/><path fill="#e3e3e3" d="m148.504 276.023 29.797-17.285 11.086 37.875Zm0 0"/><path fill="#454e50" d="m117.742 288.395 30.762-12.372-26.652 31.395Zm0 0"/><path fill="#656d71" d="m178.3 258.738-33.519-4.726 15.504-32.387Zm0 0"/><path fill="#616b76" d="m160.285 221.625-15.504 32.387 4.528-52.54Zm0 0"/><path fill="#eeeff0" d="m134.863 203.219 1.766-17.555 12.68 15.809Zm0 0"/><path fill="#edeff1" d="m136.629 185.664-1.766 17.555-10.37-10.301Zm0 0"/><path fill="#5b646c" d="m144.781 254.012-9.918-50.793 14.446-1.746Zm0 0"/><path fill="#687072" d="m134.863 203.219 9.918 50.793-25.347-4.227Zm0 0"/><path fill="#b8bcc5" d="m117.313 28.71-14.477 26.142-7.133-37.414ZM87.969 76.285 79.895 48.72l22.94 6.133Zm0 0"/><path fill="#fec300" d="m87.969 76.285-27.586-10.95L79.895 48.72Zm0 0"/><path fill="#fdfdfe" d="m235.55 109.426-30.226-12.883 25.25-13.766Zm0 0"/><path fill="#b8bcc5" d="M188.902.004 165 34.27 118.059 0Zm0 0"/><path fill="#b8bcc5" d="m165 34.27-47.687-5.56.746-28.71Zm0 0"/><path fill="#bcbfc8" d="m165 34.27 16.684 12.07-7.383 4.14Zm0 0"/><path fill="#b8bcc5" d="M181.684 46.34 165 34.27 188.902.004ZM221.492 40.434 188.902.004 259.31 0Zm0 0"/><path fill="#b8bcc5" d="m259.309 0-2.747 17.14-35.07 23.294ZM188.902.004l32.59 40.43-16.367 3.175Zm0 0"/><path fill="#fcc200" d="M181.684 46.34 188.902.004l16.223 43.605Zm0 0"/><path fill="#fdc300" d="M205.852 61.695 181.684 46.34l23.441-2.73Zm0 0"/><path fill="#b59317" d="m181.684 46.34 6.617 29.496-14-25.356Zm0 0"/><path fill="#f4bc02" d="m188.3 75.836-6.616-29.496 24.168 15.355Zm0 0"/><path fill="#1c2b36" d="m289.469 91.027 19.27-10.82-10.571 16.45Zm0 0"/><path fill="#fec300" d="M79.895 48.719 60.383 65.336l.09-42.824Zm0 0"/><path fill="#0b1f3b" d="m29.133 143.906 4.652 20.895-11.906-12.516Zm0 0"/><path fill="#bbbfc8" d="m-.008 135.016 22.36-2.786-.473 20.055Zm0 0"/><path fill="#11243d" d="m22.352 132.23 6.78 11.676-7.253 8.38Zm0 0"/><path fill="#081d3c" d="m16.898 195.313 4.98-43.028 11.907 12.516Zm0 0"/><path fill="#bfc3cb" d="m-.004 195.46 16.902-.148 5.079 29.31Zm0 0"/><path fill="#091e3c" d="M16.898 195.313 33.785 164.8l22.781 55.215Zm0 0"/><path fill="#0b1f3b" d="m21.977 224.621-5.079-29.309 39.668 24.704Zm0 0"/><path fill="#fefefe" d="m122.828 125.21-17.953-6.19 24.938-18.66Zm0 0"/><path fill="#fefefe" d="m104.875 119.02 17.953 6.19-6.316 22.485Zm0 0"/><path fill="#f7bf03" d="m98.98 128.7 5.895-9.68 11.637 28.675Zm0 0"/><path fill="#fbfbf9" d="m104.875 119.02-5.895 9.68-9.144-5.36Zm0 0"/><path fill="#f7f7f5" d="M182.234 180.82 160.34 158.97l15.844-5.817Zm0 0"/><path fill="#f5f5f5" d="m160.34 158.969 21.894 21.851-25.195 8.344Zm0 0"/><path fill="#f2bb02" d="m139.754 170.184-23.242-22.489 6.316-22.484Zm0 0"/><path fill="#bdc1c9" d="M21.879 152.285-.004 195.461l-.004-60.445Zm0 0"/><path fill="#bdc0c9" d="m16.898 195.313-16.902.148 21.883-43.176Zm0 0"/><path fill="#efb903" d="m126.992 169.074-10.48-21.379 23.242 22.489Zm0 0"/><path fill="#263649" d="m94.898 193.86-38.332 26.156 13.762-40.578Zm0 0"/><path fill="#b7bbc4" d="m383.996 170.043-21.234-9.59-1.215-46.265Zm0 0"/><path fill="#9e8317" d="m309.691 169.215-3.812 42.082-23.172-14.488Zm0 0"/><path fill="#44462d" d="m279.727 162.031 29.964 7.184-26.984 27.594Zm0 0"/><path fill="#555129" d="m250.574 148.016 29.153 14.015-15.868 12.055Zm0 0"/><path fill="#081d3b" d="m279.727 162.031-29.153-14.015 35.399-6.313ZM250.574 148.016l9.102-16.153 26.297 9.84Zm0 0"/><path fill="#091e3c" d="m309.691 169.215-29.964-7.184 6.246-20.328Zm0 0"/><path fill="#b8bcc5" d="M325.844 0H384l-38.04 47.531Zm0 0"/><path fill="#b8bcc5" d="M306.043 33.766 259.309 0h66.535ZM384.004 72.18 345.96 47.53 384 0Zm0 0"/><path fill="#b7bbc4" d="m345.96 47.531 38.044 24.649-31.781-7.852Zm0 0"/><path fill="#fefefe" d="m297.258 142.21-1.688-30.913 21.325 1.726Zm0 0"/><path fill="#fefefd" d="m295.57 111.297 1.688 30.914-11.285-.508Zm0 0"/><path fill="#091d3b" d="m297.258 142.21 12.433 27.005-23.718-27.512Zm0 0"/><path fill="#091e3b" d="m309.691 169.215-12.433-27.004 22.328 21.973Zm0 0"/><path fill="#ab8b14" d="m258.496 189.793-15.703-21.313 21.066 5.606Zm0 0"/><path fill="#c89f0d" d="m242.793 168.48 15.703 21.313-23.09-13.367Zm0 0"/><path fill="#1e2b36" d="m258.496 189.793-25.863 17.152 2.773-30.52Zm0 0"/><path fill="#0f223c" d="m232.633 206.945-15.766-11.03 18.54-19.49Zm0 0"/><path fill="#fafafa" d="m214.063 214.254-31.504-11.512 15.414-18.55Zm0 0"/><path fill="#cccfd3" d="m160.285 221.625 22.274-18.883-4.258 55.996Zm0 0"/><path fill="#e6e6e2" d="m214.063 214.254-.641 38.726-35.121 5.758Zm0 0"/><path fill="#d8d9da" d="m182.559 202.742 31.504 11.512-35.762 44.484Zm0 0"/><path fill="#545029" d="m309.691 169.215 17.41 39.058-21.222 3.024Zm0 0"/><path fill="#787a6c" d="m332.645 234.82-4.133 28.121-11.852-10.832Zm0 0"/><path fill="#675d24" d="m214.063 214.254 16.261 35.547-16.902 3.18Zm0 0"/><path fill="#c49c0e" d="m230.324 249.8-16.262-35.546 18.57-7.309Zm0 0"/><path fill="#b7bbc2" d="m136.418 384.004 1.613-7.274 36.676 7.297Zm0 0"/><path fill="#3b4851" d="m138.031 376.73-1.613 7.274-27.82-9.54Zm0 0"/><path fill="#484f46" d="m136.418 384.004-31.52.008 3.7-9.547Zm0 0"/><path fill="#fefefe" d="m105.953 360.777-7.973 3.446-2.812-19.555Zm0 0"/><path fill="#f7f7f8" d="m97.98 364.223-2.168 8.886-29.515-9.336Zm0 0"/><path fill="#1b2a37" d="m95.813 373.11-4.31 10.847-25.206-20.184Zm0 0"/><path fill="#fafafb" d="m95.168 344.668 2.812 19.555-31.683-.45Zm0 0"/><path fill="#47482c" d="m91.504 383.957 4.308-10.848 9.086 10.903Zm0 0"/><path fill="#11243f" d="m53.031 361.355-17.883 4.047 9.004-10.203Zm0 0"/><path fill="#1a2937" d="m91.504 383.957-30.067-14.941 4.86-5.243Zm0 0"/><path fill="#10233b" d="m61.438 369.016-8.407-7.66 13.266 2.417Zm0 0"/><path fill="#0a1e3d" d="m.02 346.484-.024-12.398 14.563 6.93Zm0 0"/><path fill="#b8bcc5" d="m15.61 368.074 18.507 15.957L0 384Zm0 0"/><path fill="#091e3b" d="M30.355 302.484 59.2 330.531l-31.937-10.035Zm0 0"/><path fill="#263237" d="M20.379 281.262 79.926 313.3l-49.57-10.817Zm0 0"/><path fill="#0a1e3c" d="m30.559 349.844-10.176 6.91-5.824-15.738Zm0 0"/><path fill="#fafafa" d="m30.559 349.844 28.64-19.313L44.152 355.2Zm0 0"/><path fill="#fcfcfc" d="m59.2 330.531-28.641 19.313-3.297-29.348Zm0 0"/><path fill="#1b2c3f" d="m35.148 365.402-4.59-15.558 13.594 5.355Zm0 0"/><path fill="#0b1f3d" d="m30.559 349.844 4.59 15.558-14.766-8.648Zm0 0"/><path fill="#1c2d41" d="m84.797 248.164-28.23-28.148 38.331-26.157Zm0 0"/><path fill="#fefefe" d="m182.234 180.82.325 21.922-25.52-13.578Zm0 0"/><path fill="#fefdfb" d="m249.223 357.004-38.059-37.965 40.953 11.836Zm0 0"/><path fill="#fefefd" d="m211.164 319.04 38.059 37.964-36.875 3.707Zm0 0"/><path fill="#eae8de" d="m148.504 276.023-29.07-26.238 25.347 4.227Zm0 0"/><path fill="#454f55" d="m119.434 249.785 29.07 26.238-30.762 12.372Zm0 0"/><path fill="#e0e2e5" d="m134.863 203.219-15.687.804 5.316-11.105Zm0 0"/><path fill="#fcfbfa" d="m119.176 204.023-12.778-17.035 18.094 5.93Zm0 0"/><path fill="#2f3c45" d="M119.176 204.023 94.898 193.86l11.5-6.87Zm0 0"/><path fill="#1b2a39" d="m84.797 248.164 34.379-44.14.258 45.761Zm0 0"/><path fill="#2c383f" d="m119.176 204.023-34.38 44.141 10.102-54.305Zm0 0"/><path fill="#767c7b" d="m119.176 204.023 15.687-.804-15.43 46.566Zm0 0"/><path fill="#fdfdfd" d="m129.313 355.79-23.36 4.987-10.785-16.109Zm0 0"/><path fill="#f7f7f8" d="m129.313 355.79 8.718 20.94-29.433-2.265Zm0 0"/><path fill="#f3f4f5" d="m105.953 360.777 23.36-4.988-20.715 18.676ZM158.617 359.898l53.73.813-37.64 23.316Zm0 0"/><path fill="#b8bcc5" d="M118.059 0 95.703 17.438 0 0ZM95.703 17.438 118.06 0l-.746 28.71Zm0 0"/><path fill="#fcc200" d="m117.313 28.71 15.292 22.735-29.77 3.407Zm0 0"/><path fill="#b8bcc4" d="m132.605 51.445 3.895-1.875 3.422 16.004Zm0 0"/><path fill="#b8bcc5" d="m136.5 49.57-3.895 1.875-15.292-22.734Zm0 0"/><path fill="#f2bb03" d="m156.441 141.793-16.687 28.39-16.926-44.972Zm0 0"/><path fill="#343b31" d="m139.754 170.184 16.687-28.391 3.899 17.176Zm0 0"/><path fill="#cca10c" d="m143.125 115.375-20.297 9.836 6.984-24.852Zm0 0"/><path fill="#fefefe" d="m153.742 100.34-10.617 15.035-13.312-15.016Zm0 0"/><path fill="#fbc100" d="m143.125 115.375 13.316 26.418-33.613-16.582Zm0 0"/><path fill="#fefefe" d="m143.125 115.375 10.617-15.035 3.399 16.039Zm0 0"/><path fill="#fefefe" d="m156.441 141.793-13.316-26.418 14.016 1.004Zm0 0"/><path fill="#cacdd3" d="m87.969 76.285 14.867-21.433 2.148 24.347Zm0 0"/><path fill="#fefefe" d="m144.523 80.758 9.22 19.582-23.93.02Zm0 0"/><path fill="#b8bcc5" d="m95.703 17.438-79.926-2.825L0 0Zm0 0"/><path fill="#fdfdfd" d="m225.465 120.824-20.14-24.281 30.226 12.883Zm0 0"/><path fill="#091e3b" d="m197.59 112.336 27.875 8.488-18.738 22.41Zm0 0"/><path fill="#fefefe" d="m225.465 120.824-27.875-8.488 7.734-15.793Zm0 0"/><path fill="#fefefe" d="m197.59 112.336-15.055-6.34 22.79-9.453Zm0 0"/><path fill="#0b1f3b" d="M295.57 111.297 269.7 101.07l28.468-4.414Zm0 0"/><path fill="#fdfdfd" d="m269.7 101.07 25.87 10.227-35.894 20.566Zm0 0"/><path fill="#dad7c7" d="m264.117 90.332 10.309-30.11 15.043 30.805Zm0 0"/><path fill="#fefefe" d="m235.55 109.426 24.126 22.437-34.211-11.039Zm0 0"/><path fill="#b8bcc5" d="m165 34.27-2.316 12.316-45.371-17.875Zm0 0"/><path fill="#b8bcc5" d="M162.684 46.586 136.5 49.57l-19.187-20.86Zm0 0"/><path fill="#fcfcfd" d="M162.684 46.586 165 34.27l9.3 16.21Zm0 0"/><path fill="#0c1f3a" d="m205.973 71.336-17.672 4.5 17.55-14.14Zm0 0"/><path fill="#fdfdfb" d="m227.707 68.363 8.086 10.563-5.219 3.851Zm0 0"/><path fill="#bdc0c7" d="m221.492 40.434-15.64 21.261-.727-18.086Zm0 0"/><path fill="#b8bcc5" d="m286.41 44.34-29.848-27.2L259.31 0Zm0 0"/><path fill="#b8bcc5" d="M306.043 33.766 286.41 44.34 259.31 0Zm0 0"/><path fill="#fcfcfb" d="m290.668 60.598-1.2 30.43-15.042-30.805Zm0 0"/><path fill="#fbfbfb" d="m286.41 44.34 4.258 16.258-16.242-.375Zm0 0"/><path fill="#babec7" d="M290.668 60.598 286.41 44.34l9.66 15.344Zm0 0"/><path fill="#b9bdc5" d="m296.07 59.684-9.66-15.344 19.633-10.574Zm0 0"/><path fill="#fcc200" d="m98.98 128.7-15.195 11.335 6.05-16.695Zm0 0"/><path fill="#091e3b" d="m29.133 143.906 21.52 16.64-16.868 4.255Zm0 0"/><path fill="#c8cbd1" d="m97.832 96.727-9.863-20.442 17.015 2.914Zm0 0"/><path fill="#fec300" d="M87.969 76.285 79.887 89.07 60.383 65.336Zm0 0"/><path fill="#3a4035" d="M97.832 96.727 79.887 89.07l8.082-12.785Zm0 0"/><path fill="#b8bcc5" d="m-.008 135.016 16.934-23.22 5.426 20.434Zm0 0"/><path fill="#635b25" d="m16.926 111.797 14.637 15.363-9.211 5.07Zm0 0"/><path fill="#b9bdc6" d="m-.004 195.46 21.98 29.161L.032 237.527Zm0 0"/><path fill="#081d3c" d="m.031 237.527 21.946-12.906.199 27.094Zm0 0"/><path fill="#d5a70a" d="m197.59 112.336-19.332 19.715 4.277-26.055Zm0 0"/><path fill="#fefefe" d="m178.258 132.05-12.723.555 17-26.609Zm0 0"/><path fill="#fefefe" d="m182.535 105.996-17 26.61-8.394-16.227Zm0 0"/><path fill="#f9f9fa" d="m160.34 158.969 5.195-26.364 10.649 20.547Zm0 0"/><path fill="#0c203c" d="m165.535 132.605 12.723-.554-2.074 21.101Zm0 0"/><path fill="#fefefe" d="m165.535 132.605-9.094 9.188.7-25.414Zm0 0"/><path fill="#0e213a" d="m156.441 141.793 9.094-9.188-5.195 26.364Zm0 0"/><path fill="#d8cea8" d="m107.074 154.77 7.914 19.37-23.746 1.505Zm0 0"/><path fill="#fefefe" d="m114.988 174.14-8.59 12.848-15.156-11.343Zm0 0"/><path fill="#2d3634" d="m116.512 147.695-1.524 26.446-7.914-19.371Zm0 0"/><path fill="#f3bc02" d="m126.992 169.074-12.004 5.067 1.524-26.446Zm0 0"/><path fill="#fefefe" d="m106.398 186.988 8.59-12.847 9.504 18.777Zm0 0"/><path fill="#957c19" d="m139.754 170.184 20.586-11.215-3.3 30.195Zm0 0"/><path fill="#b7bbc4" d="m384.004 72.18-.008 97.863-22.45-55.856Zm0 0"/><path fill="#b6bac3" d="m365 223.324 18.996-53.281.004 51.148Zm0 0"/><path fill="#fefefe" d="m362.762 160.453-10.918-26.7 9.703-19.565Zm0 0"/><path fill="#5d5627" d="m242.793 168.48 7.781-20.464 13.285 26.07Zm0 0"/><path fill="#fefdfb" d="m341.996 85.992 17.727-.762 1.824 28.957Zm0 0"/><path fill="#47482c" d="m308.672 99.953 14.488-7.348-6.265 20.418Zm0 0"/><path fill="#86721d" d="m308.738 80.207-.066 19.746-10.504-3.297Zm0 0"/><path fill="#0d203b" d="m308.672 99.953-13.102 11.344 2.598-14.64Zm0 0"/><path fill="#0a1e3b" d="m295.57 111.297 13.102-11.344 8.223 13.07Zm0 0"/><path fill="#8f9599" d="m327.102 208.273-7.516-44.09 17.844 6.536Zm0 0"/><path fill="#0f223a" d="m319.586 164.184 7.516 44.09-17.41-39.06Zm0 0"/><path fill="#b8bcc5" d="m345.96 47.531-39.917-13.765L325.843 0Zm0 0"/><path fill="#b18f12" d="m214.063 214.254 2.804-18.34 15.766 11.031Zm0 0"/><path fill="#fefefe" d="m182.559 202.742-.325-21.922 15.739 3.371Zm0 0"/><path fill="#fbfaf8" d="m384.016 237.098.011 34.257-21.039-27.867Zm0 0"/><path fill="#fcfbf6" d="m328.512 262.941 4.133-28.12 30.343 8.667Zm0 0"/><path fill="#eeefee" d="m384.016 331.867-28.246-16.562 10.968-27.875Zm0 0"/><path fill="#fcfbf9" d="m365 223.324 19.016 13.774-21.028 6.39Zm0 0"/><path fill="#b2b6c0" d="m365 223.324 19-2.133.016 15.907Zm0 0"/><path fill="#273645" d="m327.102 208.273-1.48 17.309-19.743-14.285Zm0 0"/><path fill="#fcfcfb" d="m325.621 225.582 1.48-17.309 16.243 12.153Zm0 0"/><path fill="#565c56" d="m325.621 225.582 7.024 9.238-15.985 17.29Zm0 0"/><path fill="#fcfcfc" d="m332.645 234.82-7.024-9.238 17.723-5.156Zm0 0"/><path fill="#5f5d3d" d="m320.707 282.668-7.062-20.16 14.867.433Zm0 0"/><path fill="#5b593b" d="m328.512 262.941-14.867-.433 3.015-10.399Zm0 0"/><path fill="#766721" d="m313.645 262.508-20.118-9.149 23.133-1.25Zm0 0"/><path fill="#44462f" d="m95.813 373.11 12.785 1.355-3.7 9.547Zm0 0"/><path fill="#f8f8f9" d="m105.953 360.777 2.645 13.688-10.618-10.242Zm0 0"/><path fill="#f8f8f9" d="m108.598 374.465-12.785-1.356 2.167-8.886Zm0 0"/><path fill="#605b2f" d="m95.168 344.668-25.867-5.875 10.625-25.492Zm0 0"/><path fill="#fafbfb" d="m59.2 330.531 10.1 8.262-25.148 16.406Zm0 0"/><path fill="#595428" d="m69.3 338.793-10.1-8.262 20.726-17.23Zm0 0"/><path fill="#f9f9f9" d="m69.3 338.793-16.269 22.562-8.879-6.156Zm0 0"/><path fill="#fafafb" d="m53.031 361.355 16.27-22.562-3.004 24.98Zm0 0"/><path fill="#fbfbfb" d="m69.3 338.793 25.868 5.875-28.871 19.105Zm0 0"/><path fill="#0c203b" d="m52.703 371.84-17.555-6.438 17.883-4.047Zm0 0"/><path fill="#172738" d="m61.438 369.016-8.735 2.824.328-10.485Zm0 0"/><path fill="#0d213a" d="m52.703 371.84 8.734-2.824 30.067 14.941Zm0 0"/><path fill="#b1b7c0" d="m52.703 371.84 38.8 12.117-57.386.074Zm0 0"/><path fill="#b8bcc5" d="m-.004 361.477 15.613 6.597L0 384Zm0 0"/><path fill="#081d3c" d="m.016 311.043 30.34-8.559-3.094 18.012Zm0 0"/><path fill="#fbfbfb" d="m-.004 334.086.02-23.043 14.543 29.973ZM.016 311.043l27.246 9.453-12.703 20.52Zm0 0"/><path fill="#081d3c" d="m.016 311.043 20.363-29.781 9.976 21.222Zm0 0"/><path fill="#081d3c" d="m0 269.672 20.379 11.59L.016 311.043Zm0 0"/><path fill="#081d3c" d="M20.379 281.262 0 269.672l22.176-17.957Zm0 0"/><path fill="#1b2b3c" d="m84.797 248.164-62.621 3.55 34.39-31.698Zm0 0"/><path fill="#1d2c3a" d="m22.176 251.715-.2-27.094 34.59-4.605Zm0 0"/><path fill="#081d3c" d="M10.727 353.52.02 346.484l14.539-5.468ZM20.383 356.754l-9.656-3.234 3.832-12.504Zm0 0"/><path fill="#b8bcc5" d="m10.727 353.52 9.656 3.234-4.774 11.32Zm0 0"/><path fill="#c1c4cc" d="m10.727 353.52-10.73 7.957.023-14.993Zm0 0"/><path fill="#b8bcc5" d="m-.004 361.477 10.73-7.957 4.883 14.554Zm0 0"/><path fill="#f9f8f5" d="m211.164 319.04-21.777-22.427 23.023.196Zm0 0"/><path fill="#fbfaf6" d="m189.387 296.613 22.96 64.098-32.21-50.34Zm0 0"/><path fill="#fbf9f3" d="m189.387 296.613 21.777 22.426 1.184 41.672Zm0 0"/><path fill="#0c203a" d="m257.191 274.598 10.887-16.563 22.309 13Zm0 0"/><path fill="#0d203a" d="m268.078 258.035-10.887 16.563-26.867-24.797Zm0 0"/><path fill="#c69d0d" d="m263.148 315.031-16.523-18.918 43.762-25.078Zm0 0"/><path fill="#c39b0e" d="m246.625 296.113 10.566-21.515 33.196-3.563Zm0 0"/><path fill="#c0990f" d="m246.625 296.113-16.3-46.312 26.866 24.797Zm0 0"/><path fill="#62675f" d="m148.504 276.023 31.633 34.348-58.285-2.953Zm0 0"/><path fill="#8d8e80" d="m180.137 310.371-28.977 46.031-29.308-48.984Zm0 0"/><path fill="#e1e0da" d="m180.137 310.371-31.633-34.348 40.883 20.59Zm0 0"/><path fill="#202d37" d="m22.176 251.715 62.62-3.55-64.417 33.097Zm0 0"/><path fill="#2e3737" d="m20.379 281.262 64.418-33.098-4.871 65.137Zm0 0"/><path fill="#2b363b" d="m84.797 248.164 32.945 40.23-37.816 24.907Zm0 0"/><path fill="#eeeff0" d="m238.64 384.031-63.933-.004 37.64-23.316Zm0 0"/><path fill="#e8e9ec" d="M249.223 357.004 238.64 384.03l-26.293-23.32Zm0 0"/><path fill="#7e7c61" d="m95.168 344.668-15.242-31.367 41.926-5.883Zm0 0"/><path fill="#b0a675" d="m151.16 356.402-55.992-11.734 26.684-37.25Zm0 0"/><path fill="#f5f6f7" d="m129.313 355.79 21.492 8.304-12.774 12.636Zm0 0"/><path fill="#f5f5f7" d="m150.805 364.094 23.902 19.933-36.676-7.297Zm0 0"/><path fill="#b5ae8a" d="m212.348 360.71-53.73-.812 21.519-49.527Zm0 0"/><path fill="#b1ab89" d="m158.617 359.898-7.457-3.496 28.977-46.03Zm0 0"/><path fill="#fefefe" d="m102.836 54.852 18.187 23.187-16.039 1.16Zm0 0"/><path fill="#fdc300" d="m121.023 78.04 18.899-12.466 4.601 15.184Zm0 0"/><path fill="#fec300" d="M139.922 65.574 121.023 78.04l-18.187-23.187Zm0 0"/><path fill="#fec300" d="m132.605 51.445 7.317 14.13-37.086-10.723Zm0 0"/><path fill="#fefefe" d="m153.742 100.34 28.793 5.656-25.394 10.383ZM170.645 84.586l35.593-2.461-.914 14.418ZM170.645 84.586l11.89 21.41-28.793-5.656Zm0 0"/><path fill="#fefefe" d="m182.535 105.996-11.89-21.41 34.68 11.957Zm0 0"/><path fill="#0a1e3b" d="m225.465 120.824-2.184 14.918-16.554 7.492Zm0 0"/><path fill="#0a1e3b" d="m223.281 135.742 2.184-14.918 25.11 27.192Zm0 0"/><path fill="#fefefe" d="m269.7 101.07 19.769-10.043 8.699 5.63Zm0 0"/><path fill="#fdfdfd" d="m289.469 91.027-19.77 10.043-5.582-10.738Zm0 0"/><path fill="#414431" d="m264.117 90.332-8.082-14.21 18.39-15.9Zm0 0"/><path fill="#d6a809" d="m256.563 17.14-.528 58.981-20.242 2.805Zm0 0"/><path fill="#fdc200" d="m256.035 76.121.527-58.98 17.864 43.082Zm0 0"/><path fill="#fefefe" d="m255.348 101.816-19.797 7.61-4.977-26.649Zm0 0"/><path fill="#fefefe" d="m235.55 109.426 19.798-7.61 4.328 30.047Zm0 0"/><path fill="#fdfefe" d="m255.348 101.816 14.351-.746-10.023 30.793Zm0 0"/><path fill="#fefefe" d="m269.7 101.07-14.352.746 8.77-11.484Zm0 0"/><path fill="#0e213a" d="m162.684 46.586-18.16 34.172-4.602-15.184Zm0 0"/><path fill="#b7bbc4" d="m136.5 49.57 26.184-2.984-22.762 18.988Zm0 0"/><path fill="#d3c690" d="m205.973 71.336 24.601 11.441-24.336-.652Zm0 0"/><path fill="#fefefe" d="m230.574 82.777-25.25 13.766.914-14.418Zm0 0"/><path fill="#626556" d="m211.172 64.922-5.2 6.414-.12-9.64Zm0 0"/><path fill="#555e62" d="m221.492 40.434-10.32 24.488-5.32-3.227Zm0 0"/><path fill="#cbbe8c" d="m211.172 64.922 10.32-24.488 6.215 27.93Zm0 0"/><path fill="#ccba77" d="m230.574 82.777-19.402-17.855 16.535 3.441Zm0 0"/><path fill="#bfa956" d="m211.172 64.922 19.402 17.855-24.601-11.441Zm0 0"/><path fill="#b8bcc5" d="m240.195 65.703-18.703-25.27 35.07-23.292Zm0 0"/><path fill="#222f38" d="m240.195 65.703 16.368-48.562-20.77 61.785Zm0 0"/><path fill="#fefdfc" d="m227.707 68.363 12.488-2.66-4.402 13.223Zm0 0"/><path fill="#fdfdfb" d="m221.492 40.434 18.703 25.27-12.488 2.66Zm0 0"/><path fill="#b8bcc5" d="m256.563 17.14 29.847 27.2-11.984 15.883ZM15.777 14.613l79.926 2.825-35.23 5.074ZM60.473 22.512 35.41 43.363l-19.633-28.75Zm0 0"/><path fill="#f9f3dd" d="m107.074 154.77-12.379-2.536L98.98 128.7Zm0 0"/><path fill="#2c3a44" d="m94.695 152.234-10.91-12.199L98.98 128.7Zm0 0"/><path fill="#f8f8f8" d="m94.695 152.234 12.38 2.536-15.833 20.875Zm0 0"/><path fill="#505344" d="m34.52 133.316 16.132 27.23-21.52-16.64Zm0 0"/><path fill="#212e36" d="m34.52 133.316-2.958-6.156 12.614-4.617Zm0 0"/><path fill="#0a1e3b" d="m22.352 132.23 12.168 1.086-5.387 10.59Zm0 0"/><path fill="#152638" d="m31.563 127.16 2.957 6.156-12.168-1.086Zm0 0"/><path fill="#fcc200" d="m52.355 130.07 7.922-9.246 11.899 36.305Zm0 0"/><path fill="#f9c001" d="m50.652 160.547 1.703-30.477 19.82 27.059Zm0 0"/><path fill="#b8bcc4" d="m52.355 130.07-17.835 3.246 9.656-10.773Zm0 0"/><path fill="#323d43" d="m34.52 133.316 17.835-3.246-1.703 30.477Zm0 0"/><path fill="#0c203a" d="m70.328 179.438-19.676-18.891 21.524-3.418Zm0 0"/><path fill="#fefefe" d="m50.652 160.547 19.676 18.89-36.543-14.636Zm0 0"/><path fill="#0a1e3b" d="m70.328 179.438-13.762 40.578-22.78-55.215Zm0 0"/><path fill="#fdfcfb" d="m93.54 113.027 11.335 5.993-15.04 4.32Zm0 0"/><path fill="#fefefe" d="m104.875 119.02 15.55-30.13 9.388 11.47Zm0 0"/><path fill="#f9ecbe" d="m120.426 88.89-22.594 7.837 7.152-17.528Zm0 0"/><path fill="#fefefe" d="m93.54 113.027 26.886-24.136-15.551 30.129ZM120.426 88.89l-26.887 24.137 4.293-16.3ZM121.023 78.04l-.597 10.85-15.442-9.69Zm0 0"/><path fill="#fefefd" d="m120.426 88.89 24.097-8.132-14.71 19.601Zm0 0"/><path fill="#fec300" d="m120.426 88.89.597-10.85 23.5 2.718Zm0 0"/><path fill="#a08417" d="m79.887 89.07-24.09-22.875 4.586-.86Zm0 0"/><path fill="#fefefe" d="M85.102 110.625 79.887 89.07l17.945 7.657Zm0 0"/><path fill="#b8bcc5" d="m12.645 110.656 4.28 1.14-16.933 23.22ZM0 0l12.645 110.656-12.653 24.36Zm0 0"/><path fill="#b8bcc5" d="M12.645 110.656 0 0l15.777 14.613ZM16.926 111.797l-4.281-1.14 3.132-96.044Zm0 0"/><path fill="#e8b505" d="m31.563 127.16-14.637-15.363 27.25 10.746Zm0 0"/><path fill="#d3a60a" d="m16.926 111.797 28.758-.598-1.508 11.344Zm0 0"/><path fill="#f9c001" d="m35.926 93.875-.516-50.512 20.387 22.832Zm0 0"/><path fill="#fec300" d="m35.926 93.875 19.87-27.68L67.2 94.652Zm0 0"/><path fill="#eeb903" d="m16.926 111.797 19-17.922 9.758 17.324Zm0 0"/><path fill="#e8b405" d="m206.625 143.29-9.035-30.954 9.137 30.898Zm0 0"/><path fill="#fec300" d="m193.172 157.059-10.938 23.761-6.05-27.668Zm0 0"/><path fill="#fefefe" d="m114.988 174.14 21.64 11.524-12.136 7.254Zm0 0"/><path fill="#0c1f3a" d="m136.629 185.664-21.64-11.523 12.003-5.067Zm0 0"/><path fill="#0b1f3b" d="m139.754 170.184-3.125 15.48-9.637-16.59Zm0 0"/><path fill="#b8bcc5" d="m359.723 85.23 24.28-13.05-22.456 42.007Zm0 0"/><path fill="#b7bbc4" d="m384.004 72.18-24.281 13.05-7.5-20.902Zm0 0"/><path fill="#b5b9c3" d="m365 223.324-2.715-39.336 21.711-13.945Zm0 0"/><path fill="#fcfdfd" d="m362.285 183.988-35.183 24.285 10.328-37.554Zm0 0"/><path fill="#fcfcfc" d="m327.102 208.273 35.183-24.285-18.941 36.438Zm0 0"/><path fill="#fefefe" d="M362.285 183.988 365 223.324l-21.656-2.898Zm0 0"/><path fill="#fec401" d="m336.95 115.879 24.597-1.692-9.703 19.567Zm0 0"/><path fill="#b18f12" d="m242.793 168.48-36.066-25.246 43.847 4.782Zm0 0"/><path fill="#323931" d="m206.727 143.234 16.554-7.492 27.293 12.274Zm0 0"/><path fill="#9f8317" d="m206.727 143.234 36.066 25.246-7.387 7.946Zm0 0"/><path fill="#fefdf8" d="m352.223 64.328 7.5 20.902-17.727.762Zm0 0"/><path fill="#5b5528" d="m308.672 99.953.066-19.746 14.422 12.398Zm0 0"/><path fill="#3b4031" d="m323.16 92.605-14.422-12.398 23.075 2.95Zm0 0"/><path fill="#86721d" d="m323.16 92.605 6.508 2.95-12.773 17.468Zm0 0"/><path fill="#b39012" d="m259.445 214.098-29.12 35.703 2.308-42.856Zm0 0"/><path fill="#0e213a" d="m258.496 189.793.95 24.305-26.813-7.153Zm0 0"/><path fill="#fefefe" d="m214.89 195.758-.827 18.496-16.09-30.063Zm0 0"/><path fill="#fbfaf9" d="m214.89 195.758 1.977.156-2.804 18.34Zm0 0"/><path fill="#fefefe" d="m213.473 173.426 1.418 22.332-16.918-11.567Zm0 0"/><path fill="#efefed" d="m366.738 287.43 17.29-16.075-.012 60.512Zm0 0"/><path fill="#0a1e3b" d="M358.59 384h-27.266l10.551-18.46Zm0 0"/><path fill="#827126" d="m307.445 320.055-7.453 8.722-36.844-13.746Zm0 0"/><path fill="#c79e0d" d="m295.27 299.504 12.175 20.55-44.297-5.023Zm0 0"/><path fill="#9b8018" d="m295.27 299.504-32.122 15.527 27.239-43.996Zm0 0"/><path fill="#0a1e3b" d="m331.324 384-9.34-11.195 19.891-7.266Zm0 0"/><path fill="#e5e4df" d="m336.824 354.055-23.07 7.882 5.05-20.519Zm0 0"/><path fill="#fdfdfa" d="m362.988 243.488-30.343-8.668 10.699-14.394Zm0 0"/><path fill="#fefefd" d="m365 223.324-2.012 20.164-19.644-23.062Zm0 0"/><path fill="#091e3b" d="m325.621 225.582-19.504 8.766-.238-23.051Zm0 0"/><path fill="#8c761b" d="m286.156 227.05 19.961 7.298-12.59 19.011Zm0 0"/><path fill="#927a1a" d="m293.527 253.36 12.59-19.012 10.543 17.761Zm0 0"/><path fill="#1e2c36" d="m306.117 234.348 19.504-8.766-8.96 26.527Zm0 0"/><path fill="#b3b8c1" d="m34.582 372.027 18.121-.187-18.586 12.191Zm0 0"/><path fill="#aeb3be" d="m52.703 371.84-18.121.187.566-6.625Zm0 0"/><path fill="#b7bbc4" d="m15.61 368.074 18.972 3.953-.465 12.004Zm0 0"/><path fill="#b5b9c2" d="m35.148 365.402-19.539 2.672 4.774-11.32Zm0 0"/><path fill="#b8bcc5" d="m34.582 372.027-18.973-3.953 19.54-2.672Zm0 0"/><path fill="#85711d" d="m246.625 296.113-5 11.477-29.215-10.781Zm0 0"/><path fill="#3f422e" d="m211.164 319.04 30.461-11.45 10.492 23.285Zm0 0"/><path fill="#0c1f3a" d="m241.625 307.59-30.46 11.45 1.245-22.231Zm0 0"/><path fill="#4a4a2b" d="m241.625 307.59 5-11.477 16.523 18.918Zm0 0"/><path fill="#142539" d="m252.117 330.875-10.492-23.285 21.523 7.441Zm0 0"/><path fill="#cfa40b" d="m230.324 249.8-17.351 34.587.449-31.407Zm0 0"/><path fill="#fcfcfb" d="m212.973 284.387-23.586 12.226 24.035-43.633Zm0 0"/><path fill="#8b751c" d="m212.973 284.387 33.652 11.726-34.215.696Zm0 0"/><path fill="#b79311" d="m212.973 284.387 17.351-34.586 16.301 46.312Zm0 0"/><path fill="#f8f8f5" d="m189.387 296.613 23.586-12.226-.563 12.422Zm0 0"/><path fill="#353e3f" d="m84.797 248.164 34.637 1.621-1.692 38.61Zm0 0"/><path fill="#283334" d="m279.32 334.863-27.203-3.988 11.031-15.844Zm0 0"/><path fill="#f6f6f7" d="m150.805 364.094 7.812-4.196 16.09 24.13Zm0 0"/><path fill="#0c203d" d="m95.168 344.668 55.992 11.734-21.847-.613Zm0 0"/><path fill="#fdfdfd" d="m151.16 356.402-.355 7.692-21.493-8.305Zm0 0"/><path fill="#fefefe" d="m144.523 80.758 26.122 3.828-16.903 15.754Zm0 0"/><path fill="#0a1e3b" d="m188.3 75.836 17.673-4.5.265 10.789Zm0 0"/><path fill="#fefefe" d="m170.645 84.586 17.656-8.75 17.937 6.289Zm0 0"/><path fill="#091e3b" d="m256.035 76.121 8.082 14.211-28.324-11.406Zm0 0"/><path fill="#fefefe" d="m235.793 78.926 28.324 11.406-33.543-7.555Zm0 0"/><path fill="#fefefe" d="m264.117 90.332-8.77 11.484-24.773-19.039Zm0 0"/><path fill="#fec300" d="m324.23 66.543 21.73-19.012 6.263 16.797Zm0 0"/><path fill="#b39012" d="m296.07 59.684-6.601 31.343 1.199-30.43Zm0 0"/><path fill="#fdc200" d="m296.07 59.684 12.668 20.523-19.27 10.82Zm0 0"/><path fill="#fac101" d="M308.738 80.207 296.07 59.684l28.16 6.859Zm0 0"/><path fill="#b8bcc5" d="m35.41 43.363-18.484 68.434-1.149-97.184Zm0 0"/><path fill="#091e3b" d="m35.41 43.363.516 50.512-19 17.922Zm0 0"/><path fill="#253034" d="m55.797 66.195 4.676-43.683-.09 42.824Zm0 0"/><path fill="#b8bcc5" d="m35.41 43.363 25.063-20.851-4.676 43.683Zm0 0"/><path fill="#0b1f3b" d="m70.328 179.438 1.848-22.31 19.066 18.517Zm0 0"/><path fill="#525749" d="m72.176 157.129 22.52-4.895-3.454 23.41Zm0 0"/><path fill="#1e2c38" d="m94.695 152.234-22.52 4.895 11.61-17.094Zm0 0"/><path fill="#fefefe" d="m93.54 113.027-8.438-2.402 12.73-13.898Zm0 0"/><path fill="#fdc300" d="m85.102 110.625 8.437 2.402-3.703 10.313Zm0 0"/><path fill="#fac206" d="m67.2 94.652-15.907 20.891-5.61-4.344Zm0 0"/><path fill="#666a63" d="m45.684 111.2 5.609 4.343-7.117 7Zm0 0"/><path fill="#babec6" d="m51.293 115.543 1.062 14.527-8.18-7.527Zm0 0"/><path fill="#dcdddf" d="m52.355 130.07-1.062-14.527 8.984 5.281Zm0 0"/><path fill="#fec300" d="m67.2 94.652 17.902 15.973-24.825 10.2Zm0 0"/><path fill="#f3f4f5" d="m51.293 115.543 15.906-20.89-6.922 26.171Zm0 0"/><path fill="#fec300" d="m35.926 93.875 31.273.777L45.684 111.2Zm0 0"/><path fill="#fcc200" d="m197.59 112.336 9.035 30.953-28.367-11.238Zm0 0"/><path fill="#fdc300" d="m193.172 157.059 20.3 16.367-15.5 10.765Zm0 0"/><path fill="#fec300" d="m182.234 180.82 10.938-23.761 4.8 27.132Zm0 0"/><path fill="#fcfcfc" d="m214.89 195.758-1.417-22.332 3.394 22.488Zm0 0"/><path fill="#fbc100" d="m213.473 173.426-20.301-16.367 13.453-13.77Zm0 0"/><path fill="#0b1f3b" d="m213.473 173.426 21.933 3-18.539 19.488Zm0 0"/><path fill="#10233a" d="m157.04 189.164-20.411-3.5 3.125-15.48Zm0 0"/><path fill="#fdfdfd" d="m157.04 189.164 25.519 13.578-33.25-1.27Zm0 0"/><path fill="#fdfdfe" d="m136.629 185.664 20.41 3.5-7.73 12.309Zm0 0"/><path fill="#fec300" d="m361.547 114.188-29.735-31.032 10.184 2.836Zm0 0"/><path fill="#fefefe" d="m343.914 150.625-6.965-34.746 14.895 17.875ZM343.914 150.625l-6.484 20.094-17.844-6.535ZM337.43 170.719l25.332-10.266-.477 23.535Zm0 0"/><path fill="#b6bac3" d="m362.285 183.988.477-23.535 21.234 9.59Zm0 0"/><path fill="#fefefe" d="m362.762 160.453-18.848-9.828 7.93-16.871Zm0 0"/><path fill="#fefefe" d="m343.914 150.625 18.848 9.828-25.332 10.266Zm0 0"/><path fill="#fec300" d="m343.914 150.625-27.02-37.602 20.055 2.856Zm0 0"/><path fill="#323931" d="m297.258 142.21 19.637-29.187 2.69 51.16Zm0 0"/><path fill="#fec300" d="m316.895 113.023 27.02 37.602-24.33 13.559ZM329.668 95.555l2.144-12.399 29.735 31.031Zm0 0"/><path fill="#f9c001" d="m331.813 83.156-2.145 12.399-6.508-2.95Zm0 0"/><path fill="#fec300" d="m336.95 115.879-7.282-20.324 31.879 18.632Zm0 0"/><path fill="#f9c001" d="m316.895 113.023 12.773-17.468 7.281 20.324Zm0 0"/><path fill="#b79311" d="m258.496 189.793 5.363-15.707 18.848 22.723Zm0 0"/><path fill="#6e6123" d="m267.875 242.043.203 15.992-37.754-8.234Zm0 0"/><path fill="#937b1a" d="m259.445 214.098 8.43 27.945-37.55 7.758Zm0 0"/><path fill="#5e5727" d="m286.156 227.05-18.281 14.993-8.43-27.945Zm0 0"/><path fill="#c29b0e" d="m267.875 242.043 18.281-14.992 7.371 26.308Zm0 0"/><path fill="#6b6023" d="m268.078 258.035-.203-15.992 25.652 11.316Zm0 0"/><path fill="#fbfbfb" d="m363.445 355.586 20.57-23.719-.011 10.903Zm0 0"/><path fill="#091e3c" d="m384 384-20.555-28.414 20.559-12.816Zm0 0"/><path fill="#091e3b" d="m358.59 384 4.855-28.414L384 384Zm0 0"/><path fill="#091d3c" d="M363.445 355.586 358.59 384l-16.715-18.46Zm0 0"/><path fill="#fefefc" d="m355.77 315.305-25.485-29.555 36.453 1.68Zm0 0"/><path fill="#fefcf5" d="m384.027 271.355-17.289 16.075-38.226-24.489Zm0 0"/><path fill="#fefcf5" d="m384.027 271.355-55.515-8.414 34.476-19.453Zm0 0"/><path fill="#d3cfb9" d="m320.707 282.668 9.578 3.082-6.25 33.082Zm0 0"/><path fill="#fefefd" d="m366.738 287.43-36.453-1.68-1.773-22.809Zm0 0"/><path fill="#838476" d="m330.285 285.75-9.578-3.082 7.805-19.727Zm0 0"/><path fill="#eeebde" d="m313.754 361.938-8.05-22.274 13.1 1.754Zm0 0"/><path fill="#18283a" d="m305.703 339.664 1.742-19.61 11.36 21.364Zm0 0"/><path fill="#212f38" d="m307.445 320.055-1.742 19.61-5.71-10.888Zm0 0"/><path fill="#5a5527" d="m290.387 271.035 23.258-8.527 7.062 20.16Zm0 0"/><path fill="#9c8118" d="m313.645 262.508-23.258 8.527 3.14-17.676Zm0 0"/><path fill="#615926" d="m290.387 271.035-22.309-13 25.45-4.676Zm0 0"/><path fill="#4d4c2b" d="m309.395 295.668 11.312-13 3.328 36.164Zm0 0"/><path fill="#b59211" d="m295.27 299.504 14.125-3.836-1.95 24.387Zm0 0"/><path fill="#0c1f3a" d="m309.395 295.668-19.008-24.633 30.32 11.633Zm0 0"/><path fill="#947c19" d="m290.387 271.035 19.008 24.633-14.125 3.836Zm0 0"/><path fill="#ecebe7" d="m335.902 333.816 19.868-18.511 28.246 16.562Zm0 0"/><path fill="#dfe0dd" d="m336.824 354.055-.922-20.239 48.114-1.949Zm0 0"/><path fill="#d2d5d8" d="m335.902 333.816.922 20.239-18.02-12.637Zm0 0"/><path fill="#fdfdfc" d="m336.824 354.055 26.621 1.53-21.57 9.954Zm0 0"/><path fill="#fefefe" d="m363.445 355.586-26.62-1.531 47.19-22.188Zm0 0"/><path fill="#0c1f3b" d="m313.082 384.004 8.902-11.2 9.34 11.196Zm0 0"/><path fill="#e2e4e5" d="m321.984 372.805-13.379 2.972 5.149-13.84Zm0 0"/><path fill="#0c203b" d="m308.605 375.777 4.477 8.227-35.879.02Zm0 0"/><path fill="#0c203a" d="m313.082 384.004-4.477-8.227 13.38-2.972Zm0 0"/><path fill="#0c1f3b" d="m306.117 234.348-19.96-7.297 19.722-15.754Zm0 0"/><path fill="#0b1f3c" d="m305.879 211.297-19.723 15.754-3.449-30.242Zm0 0"/><path fill="#f0f1f2" d="m238.64 384.031 10.583-27.027 26.32 14.266Zm0 0"/><path fill="#efe3b7" d="m238.64 384.031 36.903-12.761 1.66 12.753Zm0 0"/><path fill="#e7dfc5" d="m275.543 371.27 33.062 4.507-31.402 8.246Zm0 0"/><path fill="#fdfdfd" d="m269.285 352.098-20.062 4.906 2.894-26.129Zm0 0"/><path fill="#fefdfb" d="m279.32 334.863-10.035 17.235-17.168-21.223Zm0 0"/><path fill="#d3d6db" d="m249.223 357.004 20.062-4.906 6.258 19.172Zm0 0"/><path fill="#fcfcfc" d="m151.16 356.402 7.457 3.496-7.812 4.196Zm0 0"/><path fill="#fec300" d="m331.813 83.156-7.583-16.613 27.993-2.215Zm0 0"/><path fill="#786920" d="m324.23 66.543 7.582 16.613-23.074-2.949Zm0 0"/><path fill="#fec300" d="m331.813 83.156 20.41-18.828-10.227 21.664Zm0 0"/><path fill="#fdc300" d="m306.043 33.766 18.187 32.777-28.16-6.86Zm0 0"/><path fill="#b8bcc5" d="m324.23 66.543-18.187-32.777 39.918 13.765Zm0 0"/><path fill="#fec300" d="m83.785 140.035 1.317-29.41 4.734 12.715Zm0 0"/><path fill="#fec300" d="m85.102 110.625-1.317 29.41-23.508-19.21Zm0 0"/><path fill="#fcc200" d="m60.277 120.824 23.508 19.211-11.61 17.094Zm0 0"/><path fill="#fdfdfe" d="M67.2 94.652 55.796 66.195l24.09 22.875Zm0 0"/><path fill="#fdc200" d="M85.102 110.625 67.199 94.652l12.688-5.582Zm0 0"/><path fill="#f9c001" d="m206.625 143.29-13.453 13.769-14.914-25.008Zm0 0"/><path fill="#fcc200" d="m178.258 132.05 14.914 25.009-16.988-3.907Zm0 0"/><path fill="#937b1a" d="m235.406 176.426-28.781-33.137.102-.055Zm0 0"/><path fill="#9f8317" d="m206.625 143.29 28.781 33.136-21.933-3Zm0 0"/><path fill="#fefefe" d="m355.77 315.305-31.735 3.527 6.25-33.082ZM335.902 333.816l-11.867-14.984 31.735-3.527Zm0 0"/><path fill="#b49112" d="m309.395 295.668 14.64 23.164-16.59 1.223Zm0 0"/><path fill="#766825" d="m324.035 318.832-5.23 22.586-11.36-21.363Zm0 0"/><path fill="#fefefd" d="m318.805 341.418 5.23-22.586 11.867 14.984Zm0 0"/><path fill="#fbf7eb" d="m321.984 372.805 14.84-18.75 5.051 11.484Zm0 0"/><path fill="#fefefc" d="m336.824 354.055-14.84 18.75-8.23-10.868Zm0 0"/><path fill="#fbfcfc" d="M308.605 375.777 293.691 363.7l20.063-1.762Zm0 0"/><path fill="#fcfcfd" d="m293.691 363.7 14.914 12.077-33.062-4.507Zm0 0"/><path fill="#dfded6" d="m293.691 363.7 12.012-24.036 8.05 22.274Zm0 0"/><path fill="#d3d6db" d="m269.285 352.098 24.406 11.601-18.148 7.57Zm0 0"/><path fill="#122439" d="m258.496 189.793 12.617 16.344-11.668 7.96Zm0 0"/><path fill="#0b1f3b" d="m271.113 206.137 15.043 20.914-26.71-12.953Zm0 0"/><path fill="#11233a" d="m271.113 206.137-12.617-16.344 24.211 7.016Zm0 0"/><path fill="#0b1f3c" d="m286.156 227.05-15.043-20.913 11.594-9.328Zm0 0"/><path fill="#a69449" d="m162.684 46.586 5.5 9.852-23.66 24.32Zm0 0"/><path fill="#ac9f65" d="m168.184 56.438 2.46 28.148-26.12-3.828Zm0 0"/><path fill="#fdfdfd" d="m168.184 56.438-5.5-9.852L174.3 50.48Zm0 0"/><path fill="#fefefe" d="m188.3 75.836-20.116-19.398 6.117-5.958Zm0 0"/><path fill="#fefdfd" d="m170.645 84.586-2.461-28.148L188.3 75.836Zm0 0"/><path fill="#3e453d" d="m305.703 339.664-26.383-4.8 20.672-6.087Zm0 0"/><path fill="#fbfbfa" d="m293.691 363.7-14.37-28.837 26.382 4.801Zm0 0"/><path fill="#fefefd" d="m279.32 334.863 14.371 28.836-24.406-11.601Zm0 0"/><path fill="#0e213a" d="m299.992 328.777-20.672 6.086-16.172-19.832Zm0 0"/></svg>