<svg xmlns="http://www.w3.org/2000/svg" width="512" height="512" viewBox="0 0 384 384"><path fill="#a5b585" d="m172.305 257.496 35.945 37.742-27.863 18.313Zm0 0"/><path fill="#a7b586" d="m214.734 248.898-6.484 46.34-35.945-37.742Zm0 0"/><path fill="#89aaba" d="M111.238 49.23 82.465 63.242l9.039-22.156ZM82.465 63.242l-4.516-18.355 13.555-3.801Zm0 0"/><path fill="#9c3900" d="M182.95 33.918 188.761.004l12.027 28.844Zm0 0"/><path fill="#9eb380" d="m291.629 70.262-15.344 2.949 10.64-27.625Zm0 0"/><path fill="#89aaba" d="m65.742 23.852-32.855 6.343L52.257 0Zm0 0"/><path fill="#9eb481" d="m96.355 150.79-3.554-18.622 16.066 1.05Zm0 0"/><path fill="#9eb380" d="M93.332 203.063 59.844 187.66l29.129-16.93Zm0 0"/><path fill="#acb689" d="m110.832 186.824-17.5 16.238-4.36-32.332Zm0 0"/><path fill="#9c3900" d="m256.457 171.383 21.906-13.067 1.93 41.043Zm0 0"/><path fill="#f6c5b4" d="m224.23 121.645 15.653-14.23 43 34.39ZM239.883 107.414l40.23.773 2.77 33.618Zm0 0"/><path fill="#4a2d2c" d="M19.676 284.281 0 239.637l22.313 2.625Zm0 0"/><path fill="#9daf7b" d="m70.75 310.809-29.031 7.742 7.394-23.047Zm0 0"/><path fill="#4a3203" d="m24.863 346.027-12.468 7.504.902-14.832Zm0 0"/><path fill="#a1b483" d="m172.305 257.496 1.168-42.773 24.222 10.718Zm0 0"/><path fill="#e4c2aa" d="m214.734 248.898-42.43 8.598 25.391-32.055Zm0 0"/><path fill="#9eb481" d="m172.305 257.496-31.668 32.594-27.324-44.16Zm0 0"/><path fill="#9fb481" d="m140.637 290.09 31.668-32.594 8.082 56.055Zm0 0"/><path fill="#d0be9e" d="m138.309 220.703 33.996 36.793-58.993-11.566Zm0 0"/><path fill="#9eb481" d="m172.305 257.496-33.996-36.793 35.164-5.98Zm0 0"/><path fill="#9eb481" d="m173.473 214.723-35.164 5.98 16.675-31.746ZM138.309 220.703l-.457-30.336 17.132-1.41Zm0 0"/><path fill="#a0b482" d="m137.852 190.367.457 30.336-27.477-33.879Zm0 0"/><path fill="#f3c5b3" d="m236.45 344.438-23.548 14.761-5.675-25.254Zm0 0"/><path fill="#89aaba" d="M116.004 27.98 129.187 0l11.22 32.195ZM116.004 27.98l-4.766 21.25-19.734-8.144ZM77.95 44.887 65.741 23.852l25.762 17.234Zm0 0"/><path fill="#8aaaba" d="m87.543 71.613-5.078-8.37 28.773-14.013Zm0 0"/><path fill="#dd7a51" d="M87.543 71.613 75.91 83.223l6.555-19.98Zm0 0"/><path fill="#f6c5b4" d="m239.883 107.414-26.336-5.41 18.18-17.543Zm0 0"/><path fill="#89aaba" d="M163.586 21.586 188.762.004l-5.813 33.914Zm0 0"/><path fill="#89aaba" d="m188.762.004-25.176 21.582L129.187 0Zm0 0"/><path fill="#89aaba" d="m129.188 0 34.398 21.586-23.18 10.61ZM163.586 21.586l19.363 12.332-18.566 5.543Zm0 0"/><path fill="#9c3900" d="m268.14 43.063-25.648 12.046 12.164-39.843Zm0 0"/><path fill="#89aaba" d="m188.762.004 40.633 15.973-28.606 12.87ZM268.785 0l-39.39 15.977L188.762.004Zm0 0"/><path fill="#89aaba" d="m242.492 55.11-13.097-39.133 25.261-.711Zm0 0"/><path fill="#89aaba" d="M229.395 15.977 268.785 0l-14.129 15.266Zm0 0"/><path fill="#dd7a51" d="m203.387 47.555-20.438-13.637 17.84-5.07Zm0 0"/><path fill="#89aaba" d="m182.95 33.918-3.434 25.312-15.133-19.77Zm0 0"/><path fill="#9c3900" d="m179.516 59.23 3.433-25.312 20.438 13.637Zm0 0"/><path fill="#b0b78f" d="m276.285 73.21-3.383-14.714 14.024-12.91Zm0 0"/><path fill="#9c3900" d="m272.902 58.496-30.41-3.387 25.649-12.047Zm0 0"/><path fill="#89aaba" d="m297.832 51.055-10.906-5.47 21.5-14.245ZM52.258 0 32.887 30.195 0 0Zm0 0"/><path fill="#dd7b52" d="m82.465 63.242-7.102-.699 2.586-17.656Zm0 0"/><path fill="#dd7a51" d="m75.91 83.223-.547-20.68 7.102.7Zm0 0"/><path fill="#89aaba" d="m0 168.059 18.125-56.754 6.535 54.632ZM0 212.926l20.828-9.211.485 23.437Zm0 0"/><path fill="#f6c5b4" d="m121.969 126.758-5.137 18.59-7.965-12.13Zm0 0"/><path fill="#9eb380" d="m116.832 145.348-20.477 5.441 12.512-17.57Zm0 0"/><path fill="#f6c5b4" d="m121.969 126.758-14.41-9.235 22.738-17.68Zm0 0"/><path fill="#f6c5b4" d="m107.559 117.523 14.41 9.235-13.102 6.46Zm0 0"/><path fill="#a6b586" d="m92.8 132.168 14.759-14.645 1.308 15.696Zm0 0"/><path fill="#9eb481" d="m160.676 165.945-6.278-23.418 21.188 9.446ZM180.691 180.465l-20.015-14.52 14.91-13.972Zm0 0"/><path fill="#a3b584" d="m160.676 165.945 20.015 14.52-25.707 8.492Zm0 0"/><path fill="#9c3900" d="m131.945 139.746-15.113 5.602 5.137-18.59ZM131.945 139.746l22.453 2.781-23.66 12.149Zm0 0"/><path fill="#9c3900" d="m116.832 145.348 15.113-5.602-1.207 14.93Zm0 0"/><path fill="#89aaba" d="m0 168.059 20.828 35.656L0 212.925Zm0 0"/><path fill="#89aaba" d="M20.828 203.715 0 168.059l24.66-2.121Zm0 0"/><path fill="#9eb380" d="m24.66 165.938 35.184 21.722-39.016 16.055ZM59.844 187.66l7.101 42.531-46.117-26.476Zm0 0"/><path fill="#89aaba" d="m384 139.355-20.16 14.375.855-20.765Zm0 0"/><path fill="#9c3900" d="m312.82 170.566-15.172 36.782-17.355-7.989Zm0 0"/><path fill="#9c3900" d="m278.363 158.316 34.457 12.25-32.527 28.793ZM247.652 145.191l30.711 13.125-21.906 13.067Zm0 0"/><path fill="#9eb380" d="m278.363 158.316-30.71-13.125 35.23-3.386Zm0 0"/><path fill="#9eb481" d="m247.652 145.191-23.422-23.546 58.653 20.16ZM312.82 170.566l-34.457-12.25 4.52-16.511Zm0 0"/><path fill="#f6c5b4" d="m299.578 138.64-19.465-30.452 34.035 4.527ZM280.113 108.188l19.465 30.453-16.695 3.164Zm0 0"/><path fill="#9eb481" d="m299.578 138.64 13.242 31.926-29.937-28.761Zm0 0"/><path fill="#9db380" d="m312.82 170.566-13.242-31.925 24.277 13.183Zm0 0"/><path fill="#9b3900" d="m256.457 171.383-1.582 18.699-22.613-8.86Zm0 0"/><path fill="#9eb380" d="m254.875 190.082-21.246 15.816-1.367-24.675Zm0 0"/><path fill="#9db380" d="m233.629 205.898-15.606-11.582 14.239-13.093Zm0 0"/><path fill="#a1b483" d="m214.004 205.785-16.309 19.656-1.004-31.925Zm0 0"/><path fill="#9b3900" d="m215.309 229.137-1.305-23.352 12.8 4.227Zm0 0"/><path fill="#e1c1a8" d="m215.309 229.137-.575 19.761-17.039-23.457Zm0 0"/><path fill="#e6c2ab" d="m215.309 229.137-17.614-3.696 16.309-19.656Zm0 0"/><path fill="#9c3900" d="m312.82 170.566 12.14 48.985-27.312-12.203Zm0 0"/><path fill="#f1c4b1" d="m334.613 237.98-3.328 26.618-7.535-22.48Zm0 0"/><path fill="#9eb27f" d="m215.309 229.137 29.796 23.367-30.37-3.606Zm0 0"/><path fill="#9b3900" d="m245.105 252.504-29.796-23.367 11.496-19.125Zm0 0"/><path fill="#4e3706" d="M154.879 379.473 154.25 384l-49.7-9.816Zm0 0"/><path fill="#4f3909" d="m154.25 384-60.285.004 10.586-9.82Zm0 0"/><path fill="#c8b9b5" d="M91.2 360.18 71.003 375.69l2.582-16.105Zm0 0"/><path fill="#4a2f2d" d="M77.898 338.125 91.2 360.18l-17.613-.594Zm0 0"/><path fill="#4a302d" d="m91.2 360.18-13.302-22.055 34.622 9.379Zm0 0"/><path fill="#9da975" d="m77.898 338.125 33.95-28.055.672 37.434Zm0 0"/><path fill="#9d9b66" d="m77.898 338.125-7.148-27.316 41.098-.739Zm0 0"/><path fill="#89aaba" d="m70.848 384.004.156-8.313 22.96 8.313Zm0 0"/><path fill="#c4b9b6" d="m71.004 375.691-20.41-18.847 22.992 2.742Zm0 0"/><path fill="#9da773" d="m41.719 318.55-22.043-34.269 29.437 11.223Zm0 0"/><path fill="#4a3001" d="M35.656 365.883 12.395 353.53l12.468-7.504Zm0 0"/><path fill="#4b322b" d="m35.656 365.883 6.063-47.332 8.875 38.293Zm0 0"/><path fill="#4a3129" d="m41.719 318.55-6.063 47.333-10.793-19.856Zm0 0"/><path fill="#9eb380" d="m59.844 187.66 33.488 15.403-26.387 27.128Zm0 0"/><path fill="#f6c5b4" d="M180.691 180.465 182 190.934l-27.016-1.977Zm0 0"/><path fill="#b2b794" d="m236.45 344.438-23.29-20.532 37.121 8.356Zm0 0"/><path fill="#d0bda2" d="m213.16 323.906 23.29 20.531-29.223-10.492Zm0 0"/><path fill="#9eb380" d="m113.313 245.93-1.465 64.14-41.098.739Zm0 0"/><path fill="#b2b88d" d="m113.313 245.93 27.324 44.16-28.79 19.98Zm0 0"/><path fill="#c4bb97" d="m138.309 220.703-44.977-17.64 17.5-16.239Zm0 0"/><path fill="#c3bb96" d="m93.332 203.063 44.977 17.64-24.996 25.227Zm0 0"/><path fill="#503a2e" d="m113.063 360.39-21.864-.21 21.32-12.676Zm0 0"/><path fill="#e7c2b5" d="m113.063 360.39 41.816 19.083-50.328-5.29Zm0 0"/><path fill="#dfbfb4" d="m91.2 360.18 21.862.21-8.511 13.794Zm0 0"/><path fill="#e8c2b4" d="m177.297 360.906 35.605-1.707-23.351 24.774Zm0 0"/><path fill="#89aaba" d="m65.742 23.852 50.262 4.128-24.5 13.106Zm0 0"/><path fill="#9c3900" d="m116.004 27.98 9.933 14.403-14.699 6.847Zm0 0"/><path fill="#89aaba" d="m125.938 42.383 14.468-10.188 2.457 33.352ZM140.406 32.195l-14.469 10.188-9.933-14.403Zm0 0"/><path fill="#9c3900" d="m150.605 125.207-18.66 14.54-9.976-12.99Zm0 0"/><path fill="#9f3c03" d="m131.945 139.746 18.66-14.539 3.793 17.32Zm0 0"/><path fill="#9c3900" d="m139.09 109.512-17.121 17.246 8.328-26.914Zm0 0"/><path fill="#f6c5b4" d="m144.207 96.508-5.117 13.004-8.793-9.668Zm0 0"/><path fill="#9c3900" d="m139.09 109.512 11.515 15.695-28.636 1.55Zm0 0"/><path fill="#f6c5b4" d="m139.09 109.512 5.117-13.004 15.215 15.3ZM150.605 125.207l-11.515-15.695 20.332 2.297Zm0 0"/><path fill="#a8b58a" d="m108.93 66.523-21.387 5.09 23.695-22.383Zm0 0"/><path fill="#9eb380" d="m87.543 71.613 21.387-5.09L98.547 80.88Zm0 0"/><path fill="#f6c5b4" d="m127.887 85.898 16.32 10.61-13.91 3.336ZM144.207 96.508l25.168-.074-9.953 15.375ZM224.23 121.645l-10.683-19.641 26.336 5.41Zm0 0"/><path fill="#db784e" d="m195.64 107.621 4.837 13.285-9.887-.703Zm0 0"/><path fill="#9eb481" d="m200.477 120.906 23.753.739-5.257 14.457Zm0 0"/><path fill="#f6c5b4" d="m224.23 121.645-23.753-.739 13.07-18.902Zm0 0"/><path fill="#f6c5b4" d="m200.477 120.906-4.836-13.285 17.906-5.617ZM280.113 108.188l-21.015-19.579 38.742 4.551ZM259.098 88.61l21.015 19.578-40.23-.774Zm0 0"/><path fill="#89aaba" d="m163.586 21.586.797 17.875-23.977-7.266Zm0 0"/><path fill="#9c3900" d="m200.207 63.86-20.691-4.63 23.87-11.675Zm0 0"/><path fill="#d3bea0" d="m232.066 59.656 5.762 18.516-6.101 6.289Zm0 0"/><path fill="#89aaba" d="m221.55 38.414 7.845-22.437 13.097 39.132Zm0 0"/><path fill="#89aaba" d="m229.395 15.977-7.844 22.437-20.762-9.566ZM221.55 38.414l-18.163 9.14-2.598-18.706ZM273.715 41.328l-.813 17.168-4.761-15.434ZM286.926 45.586l-13.211-4.258L268.785 0Zm0 0"/><path fill="#89aaba" d="m273.715 41.328-19.059-26.062L268.786 0Zm0 0"/><path fill="#89aaba" d="m254.656 15.266 19.059 26.062-5.574 1.734Zm0 0"/><path fill="#f6c5b4" d="m329.02 71.84 25.23-.805-6.594 22.121Zm0 0"/><path fill="#8baab9" d="m297.832 51.055-6.203 19.207-4.703-24.676Zm0 0"/><path fill="#9c3900" d="m291.629 70.262 6.203-19.207 5.617 12.742ZM318.637 55.281l-20.805-4.226 10.594-19.715Zm0 0"/><path fill="#9c3900" d="m297.832 51.055 20.805 4.226-15.188 8.516Zm0 0"/><path fill="#89aabb" d="M0 73.059V0l32.887 30.195Zm0 0"/><path fill="#9d3a01" d="m75.363 62.543-20.289.625L77.95 44.887Zm0 0"/><path fill="#9c3900" d="m55.074 63.168 20.29-.625.546 20.68Zm0 0"/><path fill="#9eb481" d="m86.813 93.91.73-22.297 11.004 9.266Zm0 0"/><path fill="#9c3900" d="M86.813 93.91 75.91 83.223l11.633-11.61Zm0 0"/><path fill="#89aaba" d="M18.125 111.305 0 168.059v-95ZM0 239.637v-26.711l21.313 14.226Zm0 0"/><path fill="#4a2e2b" d="m0 239.637 21.313-12.485 1 15.11Zm0 0"/><path fill="#9c3900" d="m190.59 120.203-10.82 10.668 1.75-23.273Zm0 0"/><path fill="#f6c5b4" d="m179.77 130.871-12.258-1.137 14.008-22.136ZM181.52 107.598l-14.008 22.136-8.09-17.925Zm0 0"/><path fill="#a0b482" d="m154.398 142.527 13.114-12.793 8.074 22.239Zm0 0"/><path fill="#f6c5b4" d="m167.512 129.734 12.258 1.137-4.184 21.102ZM167.512 129.734l-16.907-4.527 8.817-13.398Zm0 0"/><path fill="#f6c5b4" d="m150.605 125.207 16.907 4.527-13.114 12.793Zm0 0"/><path fill="#9c3900" d="m231.059 161.027 25.398 10.356-24.195 9.84Zm0 0"/><path fill="#9eb380" d="m96.355 150.79 16.286 21.175-23.668-1.235Zm0 0"/><path fill="#f6c5b4" d="m112.64 171.965-1.808 14.86-21.86-16.095Zm0 0"/><path fill="#9eb381" d="m116.832 145.348-4.191 26.617-16.286-21.176Zm0 0"/><path fill="#9c3900" d="m130.738 154.676-18.097 17.289 4.191-26.617Zm0 0"/><path fill="#9eb481" d="m138.371 174.898 22.305-8.953-5.692 23.012Zm0 0"/><path fill="#9c3900" d="m154.398 142.527-16.027 32.371-7.633-20.222Zm0 0"/><path fill="#9eb380" d="m160.676 165.945-22.305 8.953 16.027-32.37Zm0 0"/><path fill="#f5c5b5" d="m354.25 71.035 4.191 19.793-10.785 2.328Zm0 0"/><path fill="#f6c5b5" d="m360.809 174.258-13.801-25.254 16.832 4.726Zm0 0"/><path fill="#89aaba" d="m364.984 227.73-4.175-53.472L384 172.28Zm0 0"/><path fill="#89aaba" d="M384 139.355v32.926l-20.16-18.55Zm0 0"/><path fill="#89aaba" d="m384 172.281-23.191 1.977 3.03-20.528Zm0 0"/><path fill="#9c3900" d="m231.059 161.027 16.593-15.836 8.805 26.192Zm0 0"/><path fill="#89aaba" d="M377.234 75.438 384 0v139.355Zm0 0"/><path fill="#89aaba" d="m384 0-6.766 75.438-24.68-39.09Zm0 0"/><path fill="#9c3900" d="m308.719 101.488 20.586-6.437-15.157 17.664Zm0 0"/><path fill="#9eb481" d="m308.719 101.488-28.606 6.7L297.84 93.16Zm0 0"/><path fill="#9eb481" d="m280.113 108.188 28.606-6.7 5.43 11.227ZM337.773 166.977l-24.953 3.59 11.035-18.743Zm0 0"/><path fill="#9eb380" d="m337.773 166.977-12.812 52.574-12.14-48.985Zm0 0"/><path fill="#89aaba" d="m268.785 0 39.64 31.34-21.5 14.246ZM308.426 31.34 268.786 0h59.464ZM352.555 36.348 328.25 0H384ZM308.426 31.34l44.129 5.008-10.938 11.586Zm0 0"/><path fill="#89aaba" d="M308.426 31.34 328.25 0l24.305 36.348Zm0 0"/><path fill="#9b3900" d="m214.004 205.785 4.02-11.469 8.78 15.696Zm0 0"/><path fill="#993b03" d="m218.023 194.316 15.606 11.582-6.824 4.114Zm0 0"/><path fill="#a1b483" d="m197.695 225.441-24.222-10.718 23.218-21.207Zm0 0"/><path fill="#9eb481" d="m173.473 214.723 8.527-23.79 14.691 2.583Zm0 0"/><path fill="#9eb481" d="m182 190.934-8.527 23.789-18.489-25.766Zm0 0"/><path fill="#f6c5b4" d="m361.871 255.047-27.258-17.067 30.371-10.25Zm0 0"/><path fill="#f6c5b4" d="m334.613 237.98 27.258 17.067-30.586 9.55Zm0 0"/><path fill="#f1c4b2" d="m354.14 315.754 29.837-28.942.02 57.856Zm0 0"/><path fill="#89aaba" d="m384 239.742-19.016-12.012L384 172.281Zm0 0"/><path fill="#a7b586" d="m324.96 219.55 9.653 18.43-10.863 4.137Zm0 0"/><path fill="#f5c5b4" d="m334.613 237.98-9.652-18.43 16.164 1.587Zm0 0"/><path fill="#9eb381" d="m331.285 264.598-28.215 8.39 20.68-30.87Zm0 0"/><path fill="#4e3706" d="m93.965 384.004-3.754-13.887 14.34 4.067Zm0 0"/><path fill="#e3c0b4" d="m90.21 370.117.99-9.937 13.35 14.004Zm0 0"/><path fill="#5c5639" d="m71.004 375.691 19.207-5.574 3.754 13.887Zm0 0"/><path fill="#ccbab4" d="m90.21 370.117-19.206 5.574 20.195-15.511Zm0 0"/><path fill="#4a302d" d="m41.719 318.55 36.18 19.575-27.305 18.719Zm0 0"/><path fill="#9dad7a" d="m77.898 338.125-36.18-19.574 29.032-7.742Zm0 0"/><path fill="#4b3431" d="m50.594 356.844 27.304-18.719-4.312 21.46Zm0 0"/><path fill="#4b3407" d="m71.004 375.691-35.348-9.808 14.938-9.04Zm0 0"/><path fill="#89aaba" d="m71.004 375.691-.156 8.313L33.895 384Zm0 0"/><path fill="#89a9ba" d="M0 384v-14.914L33.895 384Zm0 0"/><path fill="#4a2e2c" d="m0 304.54 13.297 34.16L0 346.386Zm0 0"/><path fill="#4a332e" d="m13.297 338.7 28.422-20.15-16.856 27.477Zm0 0"/><path fill="#4a2e2c" d="M41.719 318.55 7.402 302.899l12.274-18.617Zm0 0"/><path fill="#4a2e2c" d="m7.402 302.898 5.895 35.801L0 304.54Zm0 0"/><path fill="#4a2f2d" d="m13.297 338.7-5.895-35.802 34.317 15.653Zm0 0"/><path fill="#4a2e2c" d="m0 239.637 7.402 63.261L0 304.54Zm0 0"/><path fill="#4a2e2c" d="M7.402 302.898 0 239.637l19.676 44.644Zm0 0"/><path fill="#9db380" d="M38.363 238.29 19.676 284.28l2.637-42.02Zm0 0"/><path fill="#9eb27f" d="m38.363 238.29 10.75 57.214-29.437-11.223Zm0 0"/><path fill="#9fb380" d="m66.945 230.191-28.582 8.098-17.535-34.574Zm0 0"/><path fill="#89956b" d="m38.363 238.29-17.05-11.138-.485-23.437Zm0 0"/><path fill="#9db17e" d="m21.313 227.152 17.05 11.137-16.05 3.973Zm0 0"/><path fill="#4a3101" d="M12.395 353.531 0 346.387l13.297-7.688Zm0 0"/><path fill="#89aaba" d="M12.395 353.531 0 369.086v-22.7Zm0 0"/><path fill="#f4c5b3" d="m213.16 323.906-5.933 10.04 4.277-38.38Zm0 0"/><path fill="#9c3900" d="m265.926 313.89-21.781-6.222 24.484-16.777Zm0 0"/><path fill="#9c3a01" d="m244.145 307.668.96-55.164 23.524 38.387Zm0 0"/><path fill="#c4bb97" d="m140.637 290.09 11.12 44.945-39.91-24.965Zm0 0"/><path fill="#a7b586" d="m151.758 335.035-11.121-44.945 39.75 23.46Zm0 0"/><path fill="#9eb380" d="m38.363 238.29 28.582-8.099-17.832 65.313ZM49.113 295.504l17.832-65.313 3.805 80.618Zm0 0"/><path fill="#9eb380" d="m66.945 230.191 46.368 15.739-42.563 64.879Zm0 0"/><path fill="#9eb481" d="m198.992 383.992 51.301-8.918 2.691 8.926Zm0 0"/><path fill="#eec4b3" d="m250.293 375.074-51.3 8.918 13.91-24.793Zm0 0"/><path fill="#e1c1ab" d="m212.902 359.2-13.91 24.792-9.441-.02Zm0 0"/><path fill="#f0c4b1" d="m236.45 344.438 13.843 30.636-37.39-15.875Zm0 0"/><path fill="#9db27f" d="m111.848 310.07 8.922 21.465-8.25 15.969Zm0 0"/><path fill="#9eb27f" d="m151.758 335.035-30.988-3.5-8.922-21.465Zm0 0"/><path fill="#9caf7c" d="m112.52 347.504 8.25-15.969 30.988 3.5Zm0 0"/><path fill="#e4c1b3" d="m113.063 360.39 33.906 1.048 7.91 18.035Zm0 0"/><path fill="#a3b584" d="m207.227 333.945-29.832 12.672 2.992-33.066Zm0 0"/><path fill="#a0b482" d="m177.395 346.617 29.832-12.672 5.675 25.254Zm0 0"/><path fill="#a0b482" d="m177.297 360.906.098-14.289 35.507 12.582Zm0 0"/><path fill="#a2b483" d="m177.395 346.617-25.637-11.582 28.629-21.484Zm0 0"/><path fill="#9db27f" d="m151.758 335.035 25.637 11.582-15.915 12.578Zm0 0"/><path fill="#9c3900" d="M127.887 85.898 108.93 66.523l22.386 9.997Zm0 0"/><path fill="#dc7950" d="m131.316 76.52-9.601-18.418 21.148 7.445Zm0 0"/><path fill="#dd7a51" d="m121.715 58.102 4.222-15.72 16.926 23.165Zm0 0"/><path fill="#9c3900" d="m108.93 66.523 12.785-8.421 9.601 18.418Zm0 0"/><path fill="#9c3900" d="m125.938 42.383-4.223 15.719-10.477-8.872Zm0 0"/><path fill="#9c3900" d="m121.715 58.102-12.785 8.421 2.308-17.293Zm0 0"/><path fill="#f6c5b4" d="m127.887 85.898 18.445 2.07-2.125 8.54ZM146.332 87.969l23.043 8.465-25.168.074ZM169.375 96.434l12.145 11.164-22.098 4.21Zm0 0"/><path fill="#9c3900" d="m181.52 107.598 14.12.023-5.05 12.582Zm0 0"/><path fill="#f6c5b4" d="m188.86 93.367 17.687-13.199 7 21.836Zm0 0"/><path fill="#f6c5b5" d="m188.86 93.367-7.34 14.23-12.145-11.163Zm0 0"/><path fill="#f6c5b4" d="m195.64 107.621-6.78-14.254 24.687 8.637Zm0 0"/><path fill="#f6c5b4" d="m181.52 107.598 7.34-14.23 6.78 14.253Zm0 0"/><path fill="#89aaba" d="M65.742 23.852 52.258 0h76.93Zm0 0"/><path fill="#89aaba" d="m116.004 27.98-50.262-4.128L129.187 0Zm0 0"/><path fill="#9eb380" d="m224.23 121.645 23.422 23.546-28.68-9.09Zm0 0"/><path fill="#9c3900" d="m247.652 145.191-16.593 15.836-12.086-24.925Zm0 0"/><path fill="#9eb481" d="m276.285 73.21 9.09 15.58-26.277-.18Zm0 0"/><path fill="#9c3900" d="m285.375 88.79 9.89-5.606 2.575 9.976Zm0 0"/><path fill="#9c3900" d="m295.266 83.184-9.891 5.605 6.254-18.527Zm0 0"/><path fill="#9eb380" d="m285.375 88.79-9.09-15.58 15.344-2.948Zm0 0"/><path fill="#9eb481" d="m259.098 88.61 26.277.18 12.465 4.37Zm0 0"/><path fill="#9c3900" d="m242.492 55.11 13.68 18.132-18.344 4.93Zm0 0"/><path fill="#9eb380" d="m256.172 73.242 16.73-14.746 3.383 14.715Zm0 0"/><path fill="#9c3900" d="m272.902 58.496-16.73 14.746-13.68-18.133Zm0 0"/><path fill="#f6c5b4" d="m259.098 88.61-19.215 18.804-8.156-22.953Zm0 0"/><path fill="#89aaba" d="m164.383 39.46-21.52 26.087-2.457-33.352Zm0 0"/><path fill="#f5c5b4" d="m213.547 102.004-7-21.836 25.18 4.293Zm0 0"/><path fill="#9eb481" d="m206.547 80.168 25.52-20.512-.34 24.805Zm0 0"/><path fill="#9c3900" d="m211.012 55.059-10.805 8.8 3.18-16.304Zm0 0"/><path fill="#89aaba" d="M221.55 38.414 211.013 55.06l-7.625-7.504Zm0 0"/><path fill="#a8b686" d="m211.012 55.059 10.539-16.645 10.515 21.242Zm0 0"/><path fill="#9eb481" d="m206.547 80.168 4.465-25.11 21.054 4.598Zm0 0"/><path fill="#9fb481" d="m211.012 55.059-4.465 25.109-6.34-16.309Zm0 0"/><path fill="#89aaba" d="m232.066 59.656-10.515-21.242 20.941 16.695Zm0 0"/><path fill="#9eb481" d="m232.066 59.656 10.426-4.547-4.664 23.063Zm0 0"/><path fill="#89aaba" d="m273.715 41.328 13.21 4.258-14.023 12.91ZM38.242 48.895l-5.355-18.7 13.117 12.73Zm0 0"/><path fill="#89aaba" d="m32.887 30.195 32.855-6.343-19.738 19.074ZM32.887 30.195l5.355 18.7L0 73.059ZM65.742 23.852 55.074 63.168l-9.07-20.242Zm0 0"/><path fill="#9c3900" d="m55.074 63.168 10.668-39.316L77.95 44.887Zm0 0"/><path fill="#89a9ba" d="M55.074 63.168 38.242 48.895l7.762-5.97Zm0 0"/><path fill="#9c3900" d="m38.242 48.895 16.832 14.273-18.36 26.031Zm0 0"/><path fill="#9eb481" d="M96.355 150.79 82.73 140.226l10.07-8.059Zm0 0"/><path fill="#9daf7c" d="m30.164 134.684 20.961 26.57-26.465 4.684Zm0 0"/><path fill="#9b3800" d="m30.164 134.684.102-30.192 10.136 17.418Zm0 0"/><path fill="#9db380" d="m18.125 111.305 12.04 23.379-5.505 31.254Zm0 0"/><path fill="#9db381" d="m30.266 104.492-.102 30.192-12.039-23.38Zm0 0"/><path fill="#9c3900" d="m51.719 137.41 9.465-24.133 5.16 31.817Zm0 0"/><path fill="#9b3900" d="m51.125 161.254.594-23.844 14.625 7.684Zm0 0"/><path fill="#9eb380" d="m51.719 137.41-21.555-2.726 10.238-12.774Zm0 0"/><path fill="#9db380" d="m30.164 134.684 21.555 2.726-.594 23.844Zm0 0"/><path fill="#9eb380" d="m51.125 161.254 8.719 26.406-35.184-21.722Zm0 0"/><path fill="#f6c5b4" d="m84.676 103.66 22.883 13.863L92.8 132.168ZM107.559 117.523l5.32-23.14 17.418 5.46Zm0 0"/><path fill="#9fb481" d="m112.879 94.383-26.067-.473L98.548 80.88Zm0 0"/><path fill="#f4c5b4" d="m84.676 103.66 28.203-9.277-5.32 23.14Zm0 0"/><path fill="#f6c5b4" d="m112.879 94.383-28.203 9.277 2.136-9.75Zm0 0"/><path fill="#9fb481" d="m108.93 66.523 3.949 27.86-14.332-13.504Zm0 0"/><path fill="#f6c5b4" d="m112.879 94.383 15.008-8.485 2.41 13.946Zm0 0"/><path fill="#cebd9d" d="m112.879 94.383-3.95-27.86 18.958 19.375Zm0 0"/><path fill="#89aaba" d="M18.125 111.305 0 73.059l30.266 31.433Zm0 0"/><path fill="#89aaba" d="m0 73.059 36.715 16.14-6.45 15.293Zm0 0"/><path fill="#9b3800" d="m30.266 104.492 12.64-2.812-2.504 20.23Zm0 0"/><path fill="#9c3900" d="m55.074 63.168-9.23 27.84-9.13-1.809ZM45.844 91.008l9.23-27.84-2.113 30.93ZM36.715 89.2l6.191 12.48-12.64 2.812ZM207.84 146.836l-7.363-25.93 18.496 15.196ZM193.324 160.691l-12.633 19.774-5.105-28.492Zm0 0"/><path fill="#a6b585" d="m138.371 174.898-.52 15.47-27.019-3.544Zm0 0"/><path fill="#f6c5b4" d="m112.64 171.965 25.731 2.933-27.539 11.926Zm0 0"/><path fill="#9c3900" d="m138.371 174.898-25.73-2.933 18.097-17.29Zm0 0"/><path fill="#89aaba" d="m364.695 132.965 12.54-57.527L384 139.355ZM377.234 75.438l-12.539 57.527-6.254-42.137Zm0 0"/><path fill="#f6c5b4" d="m347.008 149.004 13.8 25.254-23.035-7.281Zm0 0"/><path fill="#f6c5b4" d="M360.809 174.258 324.96 219.55l12.812-52.574Zm0 0"/><path fill="#f6c5b5" d="m324.96 219.55 35.849-45.292-19.684 46.879ZM360.809 174.258l4.175 53.472-23.859-6.593Zm0 0"/><path fill="#f6c5b4" d="m363.84 153.73-16.832-4.726 17.687-16.04Zm0 0"/><path fill="#f2c5b2" d="m347.008 149.004-9.235 17.973-13.918-15.153Zm0 0"/><path fill="#89aaba" d="m354.25 71.035-1.695-34.687 24.68 39.09ZM358.441 90.828l-4.191-19.793 22.984 4.403Zm0 0"/><path fill="#9eb481" d="m324.941 68.035-16.222 33.453-10.88-8.328Zm0 0"/><path fill="#9c3900" d="m329.305 95.05-.285-23.21 18.636 21.316Zm0 0"/><path fill="#9eb481" d="m329.305 95.05 4.363 11.02-19.52 6.645Zm0 0"/><path fill="#9c3900" d="m233.629 205.898 11.476 46.606-18.3-42.492Zm0 0"/><path fill="#9c3900" d="m233.629 205.898 19.32 6.426-7.844 40.18Zm0 0"/><path fill="#a3b584" d="m212.09 194.844 1.914 10.941-17.313-12.27Zm0 0"/><path fill="#ecc3b1" d="m212.09 194.844 5.933-.528-4.02 11.47Zm0 0"/><path fill="#f5c5b4" d="m208.547 180.113 3.543 14.73-15.399-1.327Zm0 0"/><path fill="#f6c5b4" d="m339.438 332.383 14.703-16.63 29.855 28.915Zm0 0"/><path fill="#9c3900" d="m285.527 303.195 20.578 18.43-25.718-2.566ZM285.527 303.195l-19.601 10.696 2.703-23Zm0 0"/><path fill="#9b3900" d="m265.926 313.89 19.601-10.695-5.14 15.864Zm0 0"/><path fill="#f6c5b4" d="m364.984 227.73-30.37 10.25 6.511-16.843Zm0 0"/><path fill="#9db380" d="m324.96 219.55-21.823 12.223-5.489-24.425Zm0 0"/><path fill="#9c3900" d="m270.875 241.285 32.262-9.512-.067 41.215ZM303.07 272.988l.067-41.215 20.613 10.344Zm0 0"/><path fill="#9eb380" d="m303.137 231.773 21.824-12.222-1.211 22.566Zm0 0"/><path fill="#8aaaba" d="m35.656 365.883 35.348 9.808L33.894 384Zm0 0"/><path fill="#89aaba" d="m0 369.086 35.656-3.203L33.895 384ZM35.656 365.883 0 369.086l12.395-15.555Zm0 0"/><path fill="#d1be9f" d="m208.25 295.238-1.023 38.707-26.84-20.394Zm0 0"/><path fill="#f6c5b4" d="m207.227 333.945 1.023-38.707 3.254.328Zm0 0"/><path fill="#4b6b47" d="m213.16 323.906 30.985-16.238 6.136 24.594Zm0 0"/><path fill="#4a3720" d="m244.145 307.668-30.985 16.238-1.656-28.34Zm0 0"/><path fill="#4a6c47" d="m250.281 332.262-6.136-24.594 21.78 6.223Zm0 0"/><path fill="#9b3900" d="m245.105 252.504-33.601 43.062 3.23-46.668Zm0 0"/><path fill="#f4c5b3" d="m211.504 295.566-3.254-.328 6.484-46.34Zm0 0"/><path fill="#9c3c03" d="m211.504 295.566 33.601-43.062-.96 55.164Zm0 0"/><path fill="#9eb481" d="m93.332 203.063 19.98 42.867-46.367-15.739Zm0 0"/><path fill="#4a6944" d="m269.102 335.125-3.176-21.234 14.46 5.168Zm0 0"/><path fill="#4a6a45" d="m269.102 335.125-18.82-2.863 15.644-18.371Zm0 0"/><path fill="#ebc3b1" d="m154.879 379.473 22.418-18.567 12.254 23.067Zm0 0"/><path fill="#665c2a" d="m154.25 384 .629-4.527 34.672 4.5Zm0 0"/><path fill="#513c0c" d="m112.52 347.504 33.761 6.957-33.219 5.93Zm0 0"/><path fill="#563f10" d="m146.281 354.46.688 6.978-33.906-1.047Zm0 0"/><path fill="#9db27f" d="m146.281 354.46 5.477-19.425 9.722 24.16Zm0 0"/><path fill="#a1b281" d="m146.281 354.46-33.761-6.956 39.238-12.469Zm0 0"/><path fill="#f6c5b4" d="m146.332 87.969 26.941-4.809-3.898 13.274ZM173.273 83.16l15.586 10.207-19.484 3.067Zm0 0"/><path fill="#9c3900" d="m145.594 81.902-17.707 3.996 3.43-9.378Zm0 0"/><path fill="#f6c5b4" d="m145.594 81.902.738 6.067-18.445-2.07Zm0 0"/><path fill="#9c3900" d="m145.594 81.902-14.278-5.382 11.547-10.973Zm0 0"/><path fill="#9eb481" d="m173.273 83.16-27.68-1.258-2.73-16.355Zm0 0"/><path fill="#f6c5b4" d="m145.594 81.902 27.68 1.258-26.942 4.809Zm0 0"/><path fill="#9c3900" d="m185.574 78.379 14.633-14.52 6.34 16.309Zm0 0"/><path fill="#f6c5b4" d="m188.86 93.367-3.286-14.988 20.973 1.789Zm0 0"/><path fill="#9c3900" d="m200.207 63.86-14.633 14.519-6.058-19.149Zm0 0"/><path fill="#9eb380" d="m259.098 88.61-2.926-15.368 20.113-.031Zm0 0"/><path fill="#9c3900" d="m256.172 73.242 2.926 15.367-21.27-10.437Zm0 0"/><path fill="#9eb380" d="m237.828 78.172 21.27 10.437-27.371-4.148Zm0 0"/><path fill="#9eb481" d="m329.02 71.84-20.301 29.648 16.222-33.453Zm0 0"/><path fill="#9c3900" d="m329.02 71.84.285 23.21-20.586 6.438Zm0 0"/><path fill="#dd7a51" d="m329.02 71.84 12.597-23.906 12.633 23.101Zm0 0"/><path fill="#debfb6" d="M341.617 47.934 329.02 71.84l-4.079-3.805Zm0 0"/><path fill="#89aaba" d="m318.637 55.281 22.98-7.347-16.676 20.101Zm0 0"/><path fill="#9c3900" d="m308.055 76.324-16.426-6.062 11.82-6.465ZM308.055 76.324l-12.79 6.86-3.636-12.922ZM308.055 76.324 297.84 93.16l-2.574-9.976Zm0 0"/><path fill="#9c3900" d="m318.637 55.281-10.582 21.043-4.606-12.527ZM308.055 76.324l10.582-21.043 6.304 12.754Zm0 0"/><path fill="#9eb481" d="m297.84 93.16 10.215-16.836 16.886-8.289Zm0 0"/><path fill="#89aaba" d="m38.242 48.895-1.527 40.304L0 73.06Zm0 0"/><path fill="#9eb380" d="m59.844 187.66 13.496-29.097 15.633 12.167Zm0 0"/><path fill="#9eb481" d="m73.34 158.563 23.015-7.774-7.382 19.941Zm0 0"/><path fill="#9eb380" d="m51.125 161.254 22.215-2.691-13.496 29.097Zm0 0"/><path fill="#4a2d2b" d="m73.34 158.563-22.215 2.69 15.219-16.16Zm0 0"/><path fill="#4a2d2c" d="m82.73 140.227-9.39 18.335-6.996-13.468Zm0 0"/><path fill="#9eb380" d="m96.355 150.79-23.015 7.773 9.39-18.336Zm0 0"/><path fill="#de7b52" d="m84.676 103.66-8.371-1.582 10.507-8.168Zm0 0"/><path fill="#dd7a51" d="m76.305 102.078-.395-18.855L86.813 93.91Zm0 0"/><path fill="#de7b52" d="m76.305 102.078 8.37 1.582 8.126 28.508Zm0 0"/><path fill="#9c3900" d="m52.96 94.098.165 14-10.219-6.418Zm0 0"/><path fill="#9b3800" d="m42.906 101.68 10.219 6.418-12.723 13.812Zm0 0"/><path fill="#9eb380" d="m53.125 108.098-1.406 29.312-11.317-15.5Zm0 0"/><path fill="#9cb28c" d="m51.719 137.41 1.406-29.312 8.059 5.18Zm0 0"/><path fill="#9c3900" d="m76.305 102.078-9.774-7.867 9.38-10.988Zm0 0"/><path fill="#9d3a02" d="m66.531 94.21 9.774 7.868-15.121 11.2Zm0 0"/><path fill="#8aaaba" d="M53.125 108.098 66.531 94.21l-5.347 19.066Zm0 0"/><path fill="#a7440e" d="m66.531 94.21-13.406 13.888-.164-14Zm0 0"/><path fill="#9c3900" d="m45.844 91.008-2.938 10.672-6.191-12.48ZM42.906 101.68l2.938-10.672 7.117 3.09Zm0 0"/><path fill="#d26f43" d="m193.895 131.805-3.305-11.602 9.887.703Zm0 0"/><path fill="#dd7a51" d="m207.84 146.836-13.945-15.031 6.582-10.899Zm0 0"/><path fill="#9c3900" d="m190.59 120.203 3.305 11.602-14.125-.934Zm0 0"/><path fill="#f6c5b4" d="m191.547 184.125 17-4.012-11.856 13.403Zm0 0"/><path fill="#f6c5b4" d="m182 190.934 9.547-6.809 5.144 9.39Zm0 0"/><path fill="#f6c5b4" d="M191.547 184.125 182 190.934l-1.309-10.47Zm0 0"/><path fill="#9c3900" d="m193.324 160.691-1.777 23.434-10.856-3.66Zm0 0"/><path fill="#f4c5b4" d="m212.09 194.844-3.543-14.73 9.476 14.202Zm0 0"/><path fill="#de7b52" d="m209.227 174.996-15.903-14.305 14.516-13.855Zm0 0"/><path fill="#9c3900" d="m191.547 184.125 17.68-9.129-.68 5.117Zm0 0"/><path fill="#9c3900" d="m209.227 174.996-17.68 9.129 1.777-23.434Zm0 0"/><path fill="#9b3800" d="m218.023 194.316-4.824-19.793 19.063 6.7Zm0 0"/><path fill="#5f3020" d="m213.2 174.523 17.859-13.496 1.203 20.196Zm0 0"/><path fill="#f6c5b4" d="m208.547 180.113 4.652-5.59 4.824 19.793Zm0 0"/><path fill="#9c3900" d="m213.2 174.523-4.653 5.59.68-5.117ZM231.059 161.027l-23.22-14.191 11.134-10.734Zm0 0"/><path fill="#b99b6d" d="m138.371 174.898 16.613 14.059-17.132 1.41Zm0 0"/><path fill="#f6c5b5" d="m364.695 132.965-17.039-39.809 10.785-2.328Zm0 0"/><path fill="#9eb481" d="m333.668 106.07-9.813 45.754-9.707-39.11Zm0 0"/><path fill="#9db380" d="m323.855 151.824-24.277-13.183 14.57-25.926Zm0 0"/><path fill="#de7b52" d="m333.668 106.07 13.988-12.914 17.04 39.809Zm0 0"/><path fill="#9c3900" d="m347.656 93.156-13.988 12.914-4.363-11.02Zm0 0"/><path fill="#f6c5b4" d="m347.008 149.004-13.34-42.934 31.027 26.895Zm0 0"/><path fill="#9eb481" d="m323.855 151.824 9.813-45.754 13.34 42.934Zm0 0"/><path fill="#9c3900" d="m254.875 190.082 1.582-18.7 23.836 27.977Zm0 0"/><path fill="#9eb481" d="m233.629 205.898 21.246-15.816-1.926 22.242Zm0 0"/><path fill="#9c3900" d="m270.875 241.285-25.77 11.219 7.844-40.18Zm0 0"/><path fill="#9db17e" d="m245.105 252.504 25.77-11.219 32.195 31.703Zm0 0"/><path fill="#9c3a02" d="m268.629 290.89-23.524-38.386 57.965 20.484Zm0 0"/><path fill="#f6c5b4" d="m346.078 363.148-6.64-30.765 44.558 12.285Zm0 0"/><path fill="#89a9ba" d="m384 384-37.922-20.852 37.918-18.48Zm0 0"/><path fill="#89aaba" d="m293.566 383.988 52.512-20.84L384 384Zm0 0"/><path fill="#f5c5b4" d="m383.977 286.813-22.106-31.766L384 239.742Zm0 0"/><path fill="#efc4b2" d="m384 239.742-22.129 15.305 3.113-27.317Zm0 0"/><path fill="#f6c5b4" d="m351.367 283.492 32.61 3.32-29.836 28.942Zm0 0"/><path fill="#f6c5b4" d="m351.367 283.492 2.774 32.262-24.625-20.484Zm0 0"/><path fill="#f6c5b4" d="m383.977 286.813-32.61-3.32 10.504-28.446ZM351.367 283.492l-21.851 11.778 1.77-30.672Zm0 0"/><path fill="#f6c5b4" d="m361.871 255.047-10.504 28.445-20.082-18.894Zm0 0"/><path fill="#9eb380" d="m303.07 272.988 28.215-8.39-1.77 30.672Zm0 0"/><path fill="#9c3900" d="m303.07 272.988-17.543 30.207-16.898-12.304Zm0 0"/><path fill="#9c3a01" d="m315.281 303.758-12.21-30.77 26.445 22.282Zm0 0"/><path fill="#9c3900" d="m303.07 272.988 12.211 30.77-29.754-.563Zm0 0"/><path fill="#9c3900" d="m315.281 303.758-9.176 17.867-20.578-18.43Zm0 0"/><path fill="#eec4b0" d="m339.438 332.383 6.64 30.765-24.836-23.753Zm0 0"/><path fill="#c0ba99" d="M293.566 383.988 294.902 369l51.176-5.852Zm0 0"/><path fill="#939377" d="m294.902 369-1.336 14.988-8.003.012Zm0 0"/><path fill="#9eb380" d="m303.137 231.773-25.957-11.535 20.468-12.89Zm0 0"/><path fill="#9c3900" d="m277.18 220.238 25.957 11.535-32.262 9.512Zm0 0"/><path fill="#9eb481" d="m297.648 207.348-20.468 12.89 3.113-20.879Zm0 0"/><path fill="#a6b485" d="m252.984 384-2.691-8.926 28.121-4.554Zm0 0"/><path fill="#a5b184" d="m278.414 370.52 16.488-1.52-9.34 15Zm0 0"/><path fill="#a3b283" d="m252.984 384 25.43-13.48 7.149 13.48Zm0 0"/><path fill="#dec0ad" d="m265.527 355.125-29.078-10.687 13.832-12.176Zm0 0"/><path fill="#c9bab4" d="m269.102 335.125-3.575 20-15.246-22.863Zm0 0"/><path fill="#edc3b3" d="m250.293 375.074 15.234-19.949 12.887 15.395Zm0 0"/><path fill="#f1c4b2" d="m265.527 355.125-15.234 19.95-13.844-30.637Zm0 0"/><path fill="#d5bdb6" d="m161.48 359.195-6.601 20.278-7.91-18.036Zm0 0"/><path fill="#543e0e" d="m146.281 354.46 15.2 4.735-14.512 2.243Zm0 0"/><path fill="#9eb380" d="m161.48 359.195 15.915-12.578-.098 14.29Zm0 0"/><path fill="#e6c1b4" d="m154.879 379.473 6.601-20.278 15.817 1.711Zm0 0"/><path fill="#f6c5b4" d="m173.273 83.16 12.301-4.781 3.285 14.988Zm0 0"/><path fill="#e8c2ac" d="m185.574 78.379-12.3 4.781 6.242-23.93Zm0 0"/><path fill="#89aaba" d="m341.617 47.934 10.938-11.586 1.695 34.687ZM341.617 47.934l-22.98 7.347-10.211-23.941Zm0 0"/><path fill="#9c3900" d="m82.73 140.227-6.425-38.149 16.496 30.09Zm0 0"/><path fill="#9c3900" d="m76.305 102.078 6.425 38.149-21.546-26.95ZM61.184 113.277l21.546 26.95-16.386 4.867ZM55.074 63.168l11.457 31.043-13.57-.113Zm0 0"/><path fill="#f6c5b4" d="M66.531 94.21 55.074 63.169 75.91 83.223Zm0 0"/><path fill="#9c3900" d="m193.895 131.805-2.973 12.285-11.152-13.219Zm0 0"/><path fill="#9c3900" d="m179.77 130.871 11.152 13.219-15.336 7.883ZM190.922 144.09l2.402 16.601-17.738-8.718Zm0 0"/><path fill="#dd7a51" d="m193.324 160.691-2.402-16.601 16.918 2.746Zm0 0"/><path fill="#dd7a51" d="m190.922 144.09 2.973-12.285 13.945 15.03Zm0 0"/><path fill="#9c3900" d="m213.2 174.523-5.36-27.687 23.219 14.191Zm0 0"/><path fill="#f6c5b4" d="m207.84 146.836 5.36 27.687-3.973.473Zm0 0"/><path fill="#f3c5b3" d="m354.14 315.754-26.62 1.297 1.996-21.781Zm0 0"/><path fill="#cabd9b" d="M339.438 332.383 327.52 317.05l26.62-1.297Zm0 0"/><path fill="#9eb481" d="m327.52 317.05-12.239-13.292 14.235-8.488Zm0 0"/><path fill="#9c3b02" d="m315.281 303.758 12.239 13.293-21.415 4.574Zm0 0"/><path fill="#9eb380" d="m306.105 321.625 21.415-4.574-6.278 22.344Zm0 0"/><path fill="#a9b687" d="m327.52 317.05 11.918 15.333-18.196 7.012Zm0 0"/><path fill="#c3bb96" d="m294.902 369-.738-15.172 51.914 9.32Zm0 0"/><path fill="#f0c4b3" d="m294.164 353.828.738 15.172-16.488 1.52Zm0 0"/><path fill="#f4c5b3" d="m294.164 353.828 27.078-14.433 24.836 23.753Zm0 0"/><path fill="#efc4b2" d="m265.527 355.125 28.637-1.297-15.75 16.692Zm0 0"/><path fill="#9eb481" d="m254.875 190.082 22.305 30.156-24.23-7.914Zm0 0"/><path fill="#9c3900" d="m277.18 220.238-6.305 21.047-17.926-28.96Zm0 0"/><path fill="#a1b483" d="m277.18 220.238-22.305-30.156 25.418 9.277Zm0 0"/><path fill="#9eb481" d="m164.383 39.46 8.89 43.7-30.41-17.613Zm0 0"/><path fill="#edc3af" d="m173.273 83.16-8.89-43.7 15.133 19.77Zm0 0"/><path fill="#9eb381" d="m321.242 339.395-30.176-2.372 15.04-15.398Zm0 0"/><path fill="#dabfa9" d="m294.164 353.828-3.098-16.805 30.176 2.372Zm0 0"/><path fill="#c6b9b4" d="m291.066 337.023 3.098 16.805-28.637 1.297Zm0 0"/><path fill="#e1c1af" d="m291.066 337.023-25.539 18.102 3.575-20Zm0 0"/><path fill="#9d824d" d="m306.105 321.625-15.039 15.398-10.68-17.964Zm0 0"/><path fill="#988e5a" d="m291.066 337.023-21.964-1.898 11.285-16.066Zm0 0"/></svg>