<svg xmlns="http://www.w3.org/2000/svg" width="512" height="512" viewBox="0 0 384 384"><path fill="#da5d6c" d="m188.844 198.313-20.485-2.633 20.13-16.012Zm0 0"/><path fill="#0bc1ca" d="m165.121 72.66-53.59 8.352 30.18-43.66Zm0 0"/><path fill="#1cb2c3" d="M250.516 39.703 293.684-.012l30.414 33.61Zm0 0"/><path fill="#1bb3c4" d="M250.516 39.703 221.234-.004l72.45-.008Zm0 0"/><path fill="#1ab4c4" d="m332.828 99.996-8.73-66.398 59.906 63.097Zm0 0"/><path fill="#08c4cb" d="m267.879 84.5 64.95 15.496-52.45 17.008Zm0 0"/><path fill="#1fafc2" d="m197.254 32.91-55.543 4.442L170.156.004Zm0 0"/><path fill="#0fbec9" d="M197.254 32.91 165.12 72.66l-23.41-35.308Zm0 0"/><path fill="#fcb47b" d="m165.594 109.566 23.457 41.692-33.567-12.36Zm0 0"/><path fill="#35355b" d="m282.625 302.887-7.422-18.426 23.031-4.379Zm0 0"/><path fill="#d5556b" d="m217.105 196.633-28.261 1.68-.356-18.645Zm0 0"/><path fill="#19b4c4" d="m384.004 96.695-41.11 65.48-10.066-62.179Zm0 0"/><path fill="#07c4cc" d="m307.621 145.25 35.274 16.926-31.118 23.304Zm0 0"/><path fill="#f2cf83" d="m309.117 364.238-9.293 19.766-6.84-11.004Zm0 0"/><path fill="#29a6bd" d="m-.004 156.594.031-87.25 52.239 18.781Zm0 0"/><path fill="#3b97b6" d="M63.559 0 42.14 39.547.008 0Zm0 0"/><path fill="#2ba5bd" d="M52.266 88.125.027 69.344l42.114-29.797Zm0 0"/><path fill="#0ebec9" d="M88.71 123.777 52.267 88.125l59.265-7.113Zm0 0"/><path fill="#0fbdc8" d="m91.512 38.207 50.199-.855-30.18 43.66Zm0 0"/><path fill="#3999b7" d="m91.512 38.207-49.371 1.34L63.559 0Zm0 0"/><path fill="#349db9" d="M119.379-.004 91.512 38.207 63.559 0Zm0 0"/><path fill="#24abc0" d="m91.512 38.207 27.867-38.21 22.332 37.355Zm0 0"/><path fill="#0fbec9" d="m91.512 38.207 20.02 42.805-59.266 7.113Zm0 0"/><path fill="#2ba5bd" d="m42.14 39.547 49.372-1.34-39.246 49.918Zm0 0"/><path fill="#1bb3c3" d="m221.234-.004-23.98 32.914L170.156.004Zm0 0"/><path fill="#1ab4c4" d="m221.234-.004 29.282 39.707-53.262-6.793Zm0 0"/><path fill="#05c7cd" d="m165.594 109.566-.473-36.906 25.414 40.16Zm0 0"/><path fill="#fec67e" d="m161.203 173.504-29.394-.984 23.675-33.622Zm0 0"/><path fill="#e7606e" d="m161.203 173.504 27.285 6.164-20.129 16.012Zm0 0"/><path fill="#fdbe7d" d="m189.05 151.258-27.847 22.246-5.719-34.606Zm0 0"/><path fill="#fbbe7d" d="m188.488 179.668-27.285-6.164 27.848-22.246Zm0 0"/><path fill="#fecb7f" d="m126.117 141.7 5.692 30.82-27.707-7.575Zm0 0"/><path fill="#fecd7f" d="M141.914 113.316 126.117 141.7l-8.687-17.105Zm0 0"/><path fill="#fece7f" d="m131.809 172.52-5.692-30.82 29.367-2.802Zm0 0"/><path fill="#fec97f" d="m126.117 141.7 15.797-28.384 13.57 25.582Zm0 0"/><path fill="#c25068" d="m251.984 140.746-14.992 12.57-3.082-25.953Zm0 0"/><path fill="#da5d6c" d="m236.992 153.316-23.347-16.484 20.265-9.469Zm0 0"/><path fill="#faaa7a" d="m235.988 115.168 13.64 7.023-15.718 5.172Zm0 0"/><path fill="#d7576b" d="m249.629 122.191 2.355 18.555-18.074-13.383Zm0 0"/><path fill="#833a5f" d="m249.629 122.191 14.27 12.086-11.915 6.47Zm0 0"/><path fill="#f2cb81" d="m299.824 384.004-28.074-.04L292.984 373Zm0 0"/><path fill="#f67472" d="m154.754 191.746 6.45-18.242 7.155 22.176Zm0 0"/><path fill="#f8cf81" d="m263.48 325.07 20.34-7.832-14.93 19.36Zm0 0"/><path fill="#9c7e6a" d="m199.168 261.05-18 5.087 5.543-26.555Zm0 0"/><path fill="#ddb478" d="m167.938 275.477 13.23-9.34 8.973 21.402Zm0 0"/><path fill="#e4b97a" d="m181.168 266.137-13.23 9.34 1.863-30.829Zm0 0"/><path fill="#fbcd7f" d="m167.938 275.477-10.77-3.114 12.633-27.715Zm0 0"/><path fill="#ae8d6e" d="m190.14 287.54-8.972-21.403 18-5.086Zm0 0"/><path fill="#01cace" d="M293.234 225.793 239 219.695l9.914-21.511Zm0 0"/><path fill="#02c9ce" d="M243.266 233.875 239 219.695l54.234 6.098Zm0 0"/><path fill="#01cace" d="m226.309 236.61 16.957-2.735.68 15.988Zm0 0"/><path fill="#02c9ce" d="m243.266 233.875-16.957 2.734L239 219.695Zm0 0"/><path fill="#b44665" d="m248.898 193.32-31.793 3.313 22.758-21.703Zm0 0"/><path fill="#02c9ce" d="M348.926 217.836 333.28 257.09l-40.047-31.297Zm0 0"/><path fill="#1eb0c2" d="m384.008 189.984-41.113-27.808 41.109-65.48Zm0 0"/><path fill="#06c6cc" d="m332.828 99.996-25.207 45.254-27.242-28.246Zm0 0"/><path fill="#fbcf80" d="m309.117 364.238 12.852 19.778-22.145-.012Zm0 0"/><path fill="#3d3459" d="m288.125 347.574 20.992 16.664L292.984 373Zm0 0"/><path fill="#11bcc7" d="M38.86 205.664 0 227.988l-.004-71.394Zm0 0"/><path fill="#0fbec8" d="m53.809 154.953-53.813 1.64 52.27-68.468Zm0 0"/><path fill="#0ebfc9" d="m53.809 154.953-14.95 50.711-38.863-49.07Zm0 0"/><path fill="#0cc1ca" d="M88.71 123.777 53.81 154.953l-1.543-66.828Zm0 0"/><path fill="#3c96b6" d="M42.14 39.547.028 69.344.007 0Zm0 0"/><path fill="#3b97b6" d="M324.098 33.598 293.684-.012 384.008 0Zm0 0"/><path fill="#3d95b5" d="m384.004 96.695-59.906-63.097L384.008 0Zm0 0"/><path fill="#11bcc8" d="m324.098 33.598 8.73 66.398-64.95-15.496Zm0 0"/><path fill="#0fbec8" d="M324.098 33.598 267.878 84.5l-17.362-44.797Zm0 0"/><path fill="#21aec1" d="m119.379-.004 50.777.008-28.445 37.348Zm0 0"/><path fill="#05c7cd" d="m190.535 112.82 27.926-32.996-2.133 35.602Zm0 0"/><path fill="#04c7cd" d="m218.46 79.824-27.925 32.996-25.414-40.16Zm0 0"/><path fill="#03c8cd" d="m218.46 79.824 17.528 35.344-19.66.258Zm0 0"/><path fill="#08c4cb" d="M218.46 79.824 197.255 32.91l53.262 6.793Zm0 0"/><path fill="#0ac2ca" d="m218.46 79.824-53.339-7.164 32.133-39.75Zm0 0"/><path fill="#09c3cb" d="m267.879 84.5-49.418-4.676 32.055-40.12Zm0 0"/><path fill="#06c5cc" d="m235.988 115.168-17.527-35.344 49.418 4.676Zm0 0"/><path fill="#08c4cc" d="m138.719 100.332 3.195 12.984-24.484 11.278Zm0 0"/><path fill="#07c5cc" d="m138.719 100.332-21.29 24.262-5.898-43.582Zm0 0"/><path fill="#07c5cc" d="m138.719 100.332-27.188-19.32 53.59-8.352Zm0 0"/><path fill="#07c5cc" d="m165.594 109.566-26.875-9.234L165.12 72.66Zm0 0"/><path fill="#07c5cc" d="m138.719 100.332 26.875 9.234-23.68 3.75Zm0 0"/><path fill="#feb87c" d="m141.914 113.316 23.68-3.75-10.11 29.332Zm0 0"/><path fill="#07c4cc" d="m117.43 124.594-28.72-.817 22.821-42.765Zm0 0"/><path fill="#fd8175" d="m131.809 172.52-38.653 13.82 10.946-21.395Zm0 0"/><path fill="#05c6cd" d="m82.79 171.293-14.228 16.219-14.753-32.559Zm0 0"/><path fill="#fece7f" d="m126.117 141.7-22.46-3.692 13.773-13.414Zm0 0"/><path fill="#04c7cd" d="m103.656 138.008-14.945-14.23 28.719.816Zm0 0"/><path fill="#fecf7f" d="m103.656 138.008 22.461 3.691-22.015 23.246Zm0 0"/><path fill="#f6b07a" d="m212.879 172.8-24.39 6.868.562-28.41Zm0 0"/><path fill="#ec9b77" d="m213.645 136.832-.766 35.969-23.828-21.543Zm0 0"/><path fill="#c34d68" d="m212.879 172.8 4.226 23.833-28.617-16.965Zm0 0"/><path fill="#e28973" d="m212.879 172.8.766-35.968 23.347 16.484Zm0 0"/><path fill="#d98572" d="m212.879 172.8 24.113-19.484 2.871 21.614Zm0 0"/><path fill="#ac4464" d="M217.105 196.633 212.88 172.8l26.984 2.129Zm0 0"/><path fill="#faaa7a" d="m216.328 115.426 19.66-.258-2.078 12.195Zm0 0"/><path fill="#f09276" d="m213.645 136.832 2.683-21.406 17.582 11.937Zm0 0"/><path fill="#05c7cd" d="m249.629 122.191 18.25-37.691 12.5 32.504Zm0 0"/><path fill="#04c7cd" d="m249.629 122.191-13.64-7.023 31.89-30.668Zm0 0"/><path fill="#02c9ce" d="m263.898 134.277-14.27-12.086 30.75-5.187Zm0 0"/><path fill="#fccf80" d="m152.398 375.703 12.188 8.27-19.984.047Zm0 0"/><path fill="#362b55" d="m271.75 383.965-19.254-17.453L292.984 373Zm0 0"/><path fill="#fdd080" d="m256.281 332.793 5.04 15.406-18.579-12.637Zm0 0"/><path fill="#fa7a73" d="m154.754 191.746-22.945-19.226 29.394.984Zm0 0"/><path fill="#31516e" d="m307.883 308.656-24.063 8.582-1.195-14.351Zm0 0"/><path fill="#34979c" d="m307.883 308.656-25.258-5.77 15.61-22.804Zm0 0"/><path fill="#342b56" d="m283.82 317.238 24.063-8.582-3.918 17.047Zm0 0"/><path fill="#362f58" d="m282.625 302.887-22.766-7.047 15.344-11.38Zm0 0"/><path fill="#8a7f70" d="m259.86 295.84-3.38-13.34 18.723 1.96Zm0 0"/><path fill="#fdd080" d="m256.281 332.793-8.023-11.469 15.222 3.746Zm0 0"/><path fill="#706367" d="m248.258 321.324-5.516 14.238-9.312-10.066Zm0 0"/><path fill="#f5ce82" d="m248.258 321.324 8.023 11.469-13.539 2.77Zm0 0"/><path fill="#facd7f" d="m244.168 313.379-10.738 12.117-6.934-14.371ZM244.168 313.379l-17.672-2.254 6.566-13.8Zm0 0"/><path fill="#8f786a" d="m244.168 313.379 4.09 7.945-14.828 4.172Zm0 0"/><path fill="#4d425c" d="m248.258 321.324-4.09-7.945 20.504-.3Zm0 0"/><path fill="#f3c27d" d="m168.203 214.79 1.598 29.858-11.688-18.347Zm0 0"/><path fill="#fecf7f" d="m169.8 244.648-25.359 5.286 13.672-23.633Zm0 0"/><path fill="#d7ad77" d="m169.8 244.648-1.597-29.859 18.508 24.793Zm0 0"/><path fill="#a8886d" d="m181.168 266.137-11.367-21.489 16.91-5.066Zm0 0"/><path fill="#3a2b55" d="m204.633 235.328 12.472-38.695 5.54 26.14Zm0 0"/><path fill="#372a55" d="m217.105 196.633-12.472 38.695-15.79-37.015Zm0 0"/><path fill="#fecf7f" d="m144.441 249.934 3.72-33.024 9.952 9.39Zm0 0"/><path fill="#01cace" d="m148.16 216.91-3.719 33.024-7.765-5.813ZM112.273 220.07l35.887-3.16-11.484 27.211Zm0 0"/><path fill="#58465c" d="m211.918 286.047-21.777 1.492 9.027-26.488Zm0 0"/><path fill="#362a55" d="m233.89 287.254-21.972-1.207 17.613-19.422Zm0 0"/><path fill="#372b55" d="m211.918 286.047 21.973 1.207-.828 10.07Zm0 0"/><path fill="#352a55" d="m226.496 311.125-14.578-25.078 21.144 11.277Zm0 0"/><path fill="#362b55" d="m201.316 301.945 10.602-15.898 14.578 25.078Zm0 0"/><path fill="#503f5a" d="m211.918 286.047-10.602 15.898-11.175-14.406Zm0 0"/><path fill="#413457" d="m225.238 255.402-13.32 30.645-12.75-24.996Zm0 0"/><path fill="#362b55" d="m211.918 286.047 13.32-30.645 4.293 11.223Zm0 0"/><path fill="#e4d289" d="m229.531 266.625-4.293-11.223 18.707-5.539Zm0 0"/><path fill="#02cace" d="m225.238 255.402 1.07-18.793 17.637 13.254Zm0 0"/><path fill="#57465c" d="m204.633 235.328-5.465 25.723-12.457-21.469Zm0 0"/><path fill="#3c2f56" d="m204.633 235.328 20.605 20.074-26.07 5.649Zm0 0"/><path fill="#362a55" d="m225.238 255.402-20.605-20.074 21.676 1.281Zm0 0"/><path fill="#01cace" d="m226.309 236.61-3.664-13.837L239 219.695Zm0 0"/><path fill="#392d55" d="m204.633 235.328 18.012-12.555 3.664 13.836Zm0 0"/><path fill="#04c8cd" d="m333.281 257.09-25.07 7.703-14.977-39Zm0 0"/><path fill="#18b6c5" d="m359.129 265.27-10.203-47.434 35.082 41.367Zm0 0"/><path fill="#08c4cb" d="m348.926 217.836 10.203 47.434-25.848-8.18Zm0 0"/><path fill="#74706d" d="m233.89 287.254 14.794-17.488 7.796 12.734Zm0 0"/><path fill="#f4ca7f" d="m248.684 269.766-14.793 17.488-4.36-20.629Zm0 0"/><path fill="#fdd080" d="m248.684 269.766-19.153-3.141 14.414-16.762Zm0 0"/><path fill="#363159" d="m373.098 324.578 10.91 8.192-10.254 5.668Zm0 0"/><path fill="#f4ce82" d="m302.422 335.852 13.957-6.711-4.613 14.777Zm0 0"/><path fill="#04c7cd" d="m333.281 257.09-4.972 13.441-20.098-5.738Zm0 0"/><path fill="#1ab4c4" d="m348.926 217.836-6.031-55.66 41.113 27.808Zm0 0"/><path fill="#09c3cb" d="m342.895 162.176 6.03 55.66-37.148-32.356Zm0 0"/><path fill="#09c3cb" d="m307.621 145.25 25.207-45.254 10.067 62.18Zm0 0"/><path fill="#03c8cd" d="m311.777 185.48-18.543 40.313-3.695-34.555Zm0 0"/><path fill="#05c7cd" d="m348.926 217.836-55.692 7.957 18.543-40.313Zm0 0"/><path fill="#06c5cc" d="m288.875 187.527 22.902-2.047-22.238 5.758Zm0 0"/><path fill="#bea176" d="m384.008 332.77.02 28.23-10.274-22.562Zm0 0"/><path fill="#f8cf81" d="m331.887 370.082-9.918 13.934-12.852-19.778Zm0 0"/><path fill="#f4d083" d="m288.125 347.574 14.297-11.722 9.344 8.066Zm0 0"/><path fill="#0fbdc8" d="M21.36 242.664 0 227.988l38.86-22.324Zm0 0"/><path fill="#08c3cb" d="m68.563 187.512 7.226 27.484-36.93-9.332Zm0 0"/><path fill="#0ac2ca" d="m38.86 205.664 15.37 39.89-16.394-5.64Zm0 0"/><path fill="#07c4cc" d="m75.79 214.996-21.56 30.559-15.37-39.89Zm0 0"/><path fill="#0bc1ca" d="m53.809 154.953 14.754 32.559-29.704 18.152Zm0 0"/><path fill="#11bcc8" d="m21.36 242.664 17.5-37-1.024 34.25Zm0 0"/><path fill="#d9b67b" d="m80.125 282.738 19.785-5.761-11.066 17.171Zm0 0"/><path fill="#56495e" d="m63.047 297.559-.168-20.04 17.246 5.22Zm0 0"/><path fill="#eec880" d="m-.008 285.297 14.356 7.691L-.016 309.84Zm0 0"/><path fill="#382e56" d="m38.434 302.723.765-15.77 7.442 5.207Zm0 0"/><path fill="#01cace" d="m88.71 123.777 14.946 14.23-13.941 16.544Zm0 0"/><path fill="#06c5cc" d="m89.715 154.55-6.926 16.743-28.98-16.34Zm0 0"/><path fill="#04c7cd" d="m89.715 154.55-35.906.403 34.902-31.176Zm0 0"/><path fill="#06c5cc" d="m82.79 171.293 10.366 15.047-24.594 1.172Zm0 0"/><path fill="#fecf7f" d="m103.656 138.008.446 26.937-14.387-10.394Zm0 0"/><path fill="#fbac7a" d="m165.594 109.566 24.941 3.254-1.484 38.438Zm0 0"/><path fill="#f7a178" d="m190.535 112.82 23.11 24.012-24.594 14.426Zm0 0"/><path fill="#f38374" d="m190.535 112.82 25.793 2.606-2.683 21.406Zm0 0"/><path fill="#fecf7f" d="m104.8 365.012 15.993-6.742 2.492 12.359Zm0 0"/><path fill="#b39270" d="m120.793 358.27-15.992 6.742 2.504-25.219Zm0 0"/><path fill="#be9b72" d="m104.8 365.012-20.538-9.766 23.043-15.453Zm0 0"/><path fill="#53445c" d="m132.625 384.031 2.23-19.226 9.747 19.215Zm0 0"/><path fill="#5f4c5e" d="m201.316 301.945-12.918 3.336 1.743-17.742Zm0 0"/><path fill="#3d3056" d="m188.398 305.281 12.918-3.336-4.789 9.106Zm0 0"/><path fill="#51415b" d="m233.43 325.496-20.035-7.148 13.101-7.223Zm0 0"/><path fill="#392d56" d="m213.395 318.348-12.079-16.403 25.18 9.18Zm0 0"/><path fill="#fdcf7f" d="m201.316 301.945 12.079 16.403-16.868-7.297Zm0 0"/><path fill="#fbce7f" d="m.008 383.996 38.367-23.879 10.527 23.88Zm0 0"/><path fill="#fed080" d="M38.375 360.117.008 383.997l23.305-36.466Zm0 0"/><path fill="#f6cb7f" d="M206.098 384h-21.34l-.512-13.46Zm0 0"/><path fill="#fbcd7f" d="m244.695 357.305 16.625-9.106-8.824 18.313Zm0 0"/><path fill="#f5c87e" d="m235.395 367.48 9.3-10.175 7.801 9.207Zm0 0"/><path fill="#fccf80" d="m261.32 348.2-16.625 9.105-1.953-21.743Zm0 0"/><path fill="#7e6e69" d="m242.629 384.016 9.867-17.504 19.254 17.453Zm0 0"/><path fill="#352b55" d="m261.32 348.2 7.57-11.602 7.337 13.214Zm0 0"/><path fill="#fccf80" d="m256.281 332.793 12.61 3.805-7.57 11.601Zm0 0"/><path fill="#f4ce82" d="m268.89 336.598-12.609-3.805 7.2-7.723Zm0 0"/><path fill="#9d816c" d="m143.547 299.113 13.594 10.657-20.864 4.308Zm0 0"/><path fill="#3b2f56" d="m167.254 300.117 21.144 5.164-17.18 4.149Zm0 0"/><path fill="#d9b077" d="m167.254 300.117.684-24.64 22.203 12.062Zm0 0"/><path fill="#b89470" d="m188.398 305.281-21.144-5.164 22.887-12.578Zm0 0"/><path fill="#f1c67d" d="m157.14 309.77 1.614 10.914-22.477-6.606Zm0 0"/><path fill="#e2d48b" d="m283.82 317.238-19.148-4.16 17.953-10.191Zm0 0"/><path fill="#362e57" d="m264.672 313.078-4.813-17.238 22.766 7.047Zm0 0"/><path fill="#efce83" d="m264.672 313.078 19.148 4.16-20.34 7.832Zm0 0"/><path fill="#f7cd80" d="m248.258 321.324 16.414-8.246-1.192 11.992Zm0 0"/><path fill="#fecf7f" d="m169.8 244.648-12.632 27.715-12.727-22.43Zm0 0"/><path fill="#fecf7f" d="m157.168 272.363-18.016-2.758 5.29-19.671Zm0 0"/><path fill="#523259" d="m186.71 239.582-18.507-24.793 20.64-16.476Zm0 0"/><path fill="#413057" d="m204.633 235.328-17.922 4.254 2.133-41.27Zm0 0"/><path fill="#ee516d" d="m154.754 191.746 13.605 3.934-.156 19.11Zm0 0"/><path fill="#513058" d="m168.203 214.79.156-19.11 20.485 2.632Zm0 0"/><path fill="#fb566f" d="m132.445 190.32-.636-17.8 22.945 19.226Zm0 0"/><path fill="#02c9ce" d="m154.754 191.746-6.594 25.164-15.715-26.59Zm0 0"/><path fill="#fb556e" d="m148.16 216.91 6.594-25.164 13.45 23.043Zm0 0"/><path fill="#f87773" d="m148.16 216.91 20.043-2.12-10.09 11.51Zm0 0"/><path fill="#3c3358" d="m259.86 295.84-25.97-8.586 22.59-4.754Zm0 0"/><path fill="#352a55" d="m233.89 287.254 25.97 8.586-26.798 1.484Zm0 0"/><path fill="#736466" d="m259.86 295.84-15.692 17.539-11.106-16.055Zm0 0"/><path fill="#e6c17e" d="m244.168 313.379 15.691-17.54 4.813 17.24Zm0 0"/><path fill="#01cace" d="M217.105 196.633 239 219.695l-16.355 3.078Zm0 0"/><path fill="#ef516d" d="m248.914 198.184-31.809-1.551 31.793-3.313Zm0 0"/><path fill="#02c9ce" d="M248.914 198.184 239 219.695l-21.895-23.062Zm0 0"/><path fill="#27a9be" d="m371.652 278.043 12.356-18.84-.004 36.84Zm0 0"/><path fill="#20afc1" d="m359.129 265.27 24.879-6.067-12.356 18.84Zm0 0"/><path fill="#1db1c2" d="m384.008 259.203-35.082-41.367 35.082-27.852Zm0 0"/><path fill="#d1cd8c" d="m270.637 261.582 18.261 1.781-13.695 21.098Zm0 0"/><path fill="#a19879" d="m256.48 282.5 14.157-20.918 4.566 22.879Zm0 0"/><path fill="#f4cf82" d="m248.684 269.766 21.953-8.184L256.48 282.5Zm0 0"/><path fill="#f6cf82" d="m288.898 263.363 9.336 16.719-23.03 4.379Zm0 0"/><path fill="#06c6cd" d="m298.234 280.082-9.336-16.719 19.313 1.43Zm0 0"/><path fill="#02c9ce" d="m288.898 263.363 4.336-37.57 14.977 39Zm0 0"/><path fill="#01cace" d="m293.234 225.793-4.336 37.57-18.261-1.781Zm0 0"/><path fill="#c6d092" d="m248.684 269.766-4.739-19.903 26.692 11.719Zm0 0"/><path fill="#938d76" d="M373.098 324.578 384 316.344l.008 16.426Zm0 0"/><path fill="#3e576e" d="m337.063 321.887-5.317 14.16-15.367-6.906Zm0 0"/><path fill="#e0c984" d="m303.965 325.703 12.414 3.438-13.957 6.71Zm0 0"/><path fill="#efce83" d="m283.82 317.238 20.145 8.465-1.543 10.149Zm0 0"/><path fill="#c6b781" d="m345.59 287.914 10.594 8.399-14.625 3.308Zm0 0"/><path fill="#f5cf83" d="m356.184 296.313-10.594-8.399 15.89-5.059Zm0 0"/><path fill="#09c3cb" d="m345.59 287.914-17.281-17.383 4.972-13.441Zm0 0"/><path fill="#05c6cd" d="m328.309 270.531-10.567 7.653-9.531-13.391Zm0 0"/><path fill="#efd285" d="m317.742 278.184-19.508 1.898 9.977-15.289Zm0 0"/><path fill="#3d3157" d="m362.926 347.063 2.828-13.684 8 5.058Zm0 0"/><path fill="#d2b27a" d="m365.754 333.379-2.828 13.683-13.578-9.695Zm0 0"/><path fill="#362e57" d="m365.754 333.379 7.344-8.8.656 13.858Zm0 0"/><path fill="#9b8a72" d="m373.098 324.578-7.344 8.8-9.649-12.815Zm0 0"/><path fill="#f5cc80" d="m362.926 347.063-6.246 11.78-7.332-21.476Zm0 0"/><path fill="#f3cc81" d="m356.68 358.844-21.035-12.153 13.703-9.324Zm0 0"/><path fill="#fbcd7f" d="M362.926 347.063 384.027 361l-27.347-2.156Zm0 0"/><path fill="#efc67e" d="m331.887 370.082 26.957 13.926-36.875.008Zm0 0"/><path fill="#e2bd7c" d="m276.227 349.813 11.898-2.239 4.86 25.426Zm0 0"/><path fill="#352a55" d="m252.496 366.512 23.73-16.7L292.985 373Zm0 0"/><path fill="#05c6cd" d="m54.23 245.555 21.56-30.559 11.288 28.969Zm0 0"/><path fill="#e3ce87" d="m13.414 255.234 7.945-12.57 3.645 15.16Zm0 0"/><path fill="#07c5cc" d="m13.414 255.234-4.02-6.504 11.965-6.066Zm0 0"/><path fill="#04c7cd" d="M21.36 242.664 9.394 248.73 0 227.988Zm0 0"/><path fill="#05c6cc" d="m9.395 248.73-9.387 9.254L0 227.988Zm0 0"/><path fill="#06c6cc" d="m9.395 248.73 4.02 6.504-13.407 2.75Zm0 0"/><path fill="#04c7cd" d="M87.078 243.965 75.79 214.996l36.484 5.074Zm0 0"/><path fill="#362c55" d="m99.91 276.977 2.203 12.675-13.27 4.496Zm0 0"/><path fill="#403357" d="m118.691 323.188 13.274 9.59-24.66 7.015Zm0 0"/><path fill="#dab479" d="m101.266 330.715 17.425-7.527-11.386 16.605Zm0 0"/><path fill="#fecf7f" d="m135.3 288.617 11.29-1.758-3.043 12.254Zm0 0"/><path fill="#54435b" d="m135.3 288.617-16.515-4.469 10.5-12.789Zm0 0"/><path fill="#d0ac77" d="m115.52 265.824 13.449-8.68.316 14.215Zm0 0"/><path fill="#527278" d="m139.152 269.605-10.183-12.46 15.472-7.211Zm0 0"/><path fill="#fdcf80" d="m118.785 284.148 6.106 19.91-20.668-5.175Zm0 0"/><path fill="#4b3c59" d="m124.89 304.059 10.41-15.442 8.247 10.496Zm0 0"/><path fill="#f5c87e" d="m135.3 288.617-10.41 15.442-6.105-19.91Zm0 0"/><path fill="#8d7468" d="m118.785 284.148-16.672 5.504-2.203-12.675Zm0 0"/><path fill="#837169" d="m102.113 289.652 16.672-5.504-14.562 14.735Zm0 0"/><path fill="#eec37d" d="m-.016 309.84 13.293 9.242-13.27 64.914Zm0 0"/><path fill="#fecf80" d="m.008 383.996 13.27-64.914 10.035 28.45Zm0 0"/><path fill="#816d68" d="m14.348 292.988 3.308-20.422 10.64 18.305Zm0 0"/><path fill="#3b345a" d="m49.598 279.723 13.449 17.836-16.406-5.399Zm0 0"/><path fill="#3d3358" d="m39.2 286.953 10.398-7.23-2.957 12.437Zm0 0"/><path fill="#fdcf80" d="m62.879 277.52-13.281 2.203 1.18-14.868Zm0 0"/><path fill="#aba781" d="m49.598 279.723 13.28-2.203.169 20.039Zm0 0"/><path fill="#b49672" d="m28.297 290.871 10.902-3.918-.765 15.77Zm0 0"/><path fill="#04c7cd" d="m54.23 245.555-16.609 2.437.215-8.078Zm0 0"/><path fill="#fbcf80" d="m37.621 247.992 16.61-2.437-3.454 19.3Zm0 0"/><path fill="#fea479" d="M93.156 186.34 82.79 171.293l21.313-6.348Zm0 0"/><path fill="#fece7f" d="m89.715 154.55 14.387 10.395-21.313 6.348Zm0 0"/><path fill="#d6af78" d="m113.164 383.977-14.785.027 6.422-18.992Zm0 0"/><path fill="#facd7f" d="m113.164 383.977-8.363-18.965 18.484 5.617Zm0 0"/><path fill="#f3c77e" d="m71.98 302.758 16.864-8.61.703 24.461Zm0 0"/><path fill="#fecf80" d="m71.98 302.758 8.145-20.02 8.719 11.41ZM73.398 338.082l20.594-2.332-9.73 19.496Zm0 0"/><path fill="#fecf7f" d="m93.992 335.75 13.313 4.043-23.043 15.453Zm0 0"/><path fill="#3d3157" d="m93.992 335.75-4.445-17.14 11.719 12.105Zm0 0"/><path fill="#dab378" d="m89.547 318.61 4.445 17.14-20.594 2.332Zm0 0"/><path fill="#3a2f56" d="m66.82 324.164 5.16-21.406 17.567 15.851Zm0 0"/><path fill="#4b3f5b" d="m66.82 324.164-14.058-8.648 19.218-12.758Zm0 0"/><path fill="#56465c" d="m66.82 324.164 22.727-5.555-16.149 19.473Zm0 0"/><path fill="#a0836c" d="m134.855 364.805 17.543 10.898-7.796 8.317Zm0 0"/><path fill="#ae8f6f" d="m123.285 370.629 11.57-5.824-2.23 19.226Zm0 0"/><path fill="#3b2f56" d="m123.285 370.629 9.34 13.402-19.46-.054Zm0 0"/><path fill="#816b66" d="m149.527 340.285 11.766-7.297 5.309 16.184Zm0 0"/><path fill="#f1c87f" d="m164.586 383.973 19.66-13.434.512 13.461Zm0 0"/><path fill="#a4886e" d="m166.781 365.086 17.465 5.453-19.66 13.434Zm0 0"/><path fill="#9a7f6b" d="m166.781 365.086-2.195 18.887-12.188-8.27Zm0 0"/><path fill="#362a55" d="m72.152 384.012 12.11-28.766 14.117 28.758Zm0 0"/><path fill="#fecf7f" d="m98.379 384.004-14.117-28.758 20.539 9.766Zm0 0"/><path fill="#fdcf7f" d="m38.375 360.117-15.062-12.586 12.656-1.758Zm0 0"/><path fill="#ddb478" d="m84.262 355.246-23.559 5.55 12.695-22.714Zm0 0"/><path fill="#fecf7f" d="m38.375 360.117 22.328.68-11.8 23.2Zm0 0"/><path fill="#4d445e" d="m235.395 367.48 7.234 16.536-18.133-.036Zm0 0"/><path fill="#f3c87e" d="m242.629 384.016-7.234-16.536 17.101-.968Zm0 0"/><path fill="#cead78" d="m206.098 384 12.64-14.398 5.758 14.378Zm0 0"/><path fill="#ebc37d" d="m218.738 369.602 16.657-2.122-10.899 16.5Zm0 0"/><path fill="#fdd080" d="m242.742 335.563-16.52 13.796 7.208-23.863Zm0 0"/><path fill="#fecf80" d="m226.223 349.36 18.472 7.945-9.3 10.175Zm0 0"/><path fill="#fecf80" d="m226.223 349.36 9.172 18.12-16.657 2.122Zm0 0"/><path fill="#ab9071" d="m226.223 349.36 16.52-13.798 1.952 21.743Zm0 0"/><path fill="#352a55" d="m252.496 366.512 8.824-18.313 14.907 1.613Zm0 0"/><path fill="#494660" d="m288.125 347.574-4.602-8.922 18.899-2.8Zm0 0"/><path fill="#fcd080" d="m283.82 317.238-.297 21.414-14.632-2.054Zm0 0"/><path fill="#e7cb84" d="m283.523 338.652.297-21.414 18.602 18.614Zm0 0"/><path fill="#7f6765" d="m157.14 309.77 10.114-9.653 3.965 9.313Zm0 0"/><path fill="#fdcf7f" d="m158.754 320.684-1.613-10.914 14.078-.34Zm0 0"/><path fill="#fccd7f" d="m167.254 300.117-8.461-2.64 9.144-22Zm0 0"/><path fill="#fdce7f" d="m158.793 297.477-1.625-25.114 10.77 3.114Zm0 0"/><path fill="#fccd7f" d="m158.793 297.477-12.203-10.618 10.578-14.496Zm0 0"/><path fill="#cea875" d="m158.793 297.477 8.46 2.64-10.112 9.653Zm0 0"/><path fill="#56455c" d="m143.547 299.113 15.246-1.636-1.652 12.293Zm0 0"/><path fill="#fbcc7f" d="m146.59 286.86 12.203 10.617-15.246 1.636Zm0 0"/><path fill="#02c9ce" d="m75.79 214.996 17.366-28.656 19.117 33.73Zm0 0"/><path fill="#05c6cd" d="m68.563 187.512 24.593-1.172-17.367 28.656Zm0 0"/><path fill="#25abbf" d="m371.652 278.043 2.883 18.437-13.055-13.625Zm0 0"/><path fill="#a8a68d" d="m374.535 296.48-18.351-.168 5.296-13.457Zm0 0"/><path fill="#01cace" d="m243.945 249.863 49.29-24.07-22.598 35.789Zm0 0"/><path fill="#02c9ce" d="m293.234 225.793-49.289 24.07-.68-15.988Zm0 0"/><path fill="#3f375a" d="m331.746 336.047 17.602 1.32-13.703 9.324Zm0 0"/><path fill="#384263" d="m365.754 333.379-16.406 3.988 6.757-16.805Zm0 0"/><path fill="#403f5e" d="m303.965 325.703 3.918-17.047 8.496 20.485Zm0 0"/><path fill="#09c3cb" d="m359.129 265.27-13.54 22.644-12.308-30.824Zm0 0"/><path fill="#10bdc8" d="m345.59 287.914 13.539-22.644 2.351 17.585Zm0 0"/><path fill="#20aec1" d="m361.48 282.855-2.351-17.585 12.523 12.773Zm0 0"/><path fill="#f0d084" d="m331.02 290.746-13.278-12.562 10.567-7.653Zm0 0"/><path fill="#c2b581" d="m331.02 290.746 14.57-2.832-4.031 11.707Zm0 0"/><path fill="#eacc83" d="m345.59 287.914-14.57 2.832-2.711-20.215Zm0 0"/><path fill="#b1b184" d="m317.742 278.184 13.278 12.562-12.778 4.305Zm0 0"/><path fill="#343d61" d="m325.098 307.457 5.922-16.71 10.539 8.874Zm0 0"/><path fill="#e8c983" d="m298.234 280.082 19.508-1.898.5 16.867Zm0 0"/><path fill="#883b5f" d="m263.898 134.277 6.387 8.786-18.3-2.317Zm0 0"/><path fill="#01cace" d="m281.348 153.508-3.012-16.504 29.285 8.246ZM278.336 137.004l-14.438-2.727 16.48-17.273Zm0 0"/><path fill="#02c9ce" d="m278.336 137.004-8.05 6.059-6.388-8.786Zm0 0"/><path fill="#01cace" d="m307.621 145.25-29.285-8.246 2.043-20Zm0 0"/><path fill="#02cace" d="m289.54 191.238 3.694 34.555-44.32-27.61Zm0 0"/><path fill="#472e57" d="m239.863 174.93 18.504-19.063 8.43 17.957Zm0 0"/><path fill="#a44f65" d="m251.984 140.746 6.383 15.121-21.375-2.55Zm0 0"/><path fill="#8d4661" d="m258.367 155.867-18.504 19.063-2.87-21.614Zm0 0"/><path fill="#67365b" d="m270.285 143.063-11.918 12.804-6.383-15.12Zm0 0"/><path fill="#7c395e" d="m292.895 174.047-4.02 13.48-22.078-13.703Zm0 0"/><path fill="#412d56" d="m274.164 158.328 18.73 15.719-26.097-.223Zm0 0"/><path fill="#442d57" d="m292.895 174.047-18.73-15.719 7.183-4.82Zm0 0"/><path fill="#02cace" d="m292.895 174.047-11.547-20.54 26.273-8.257Zm0 0"/><path fill="#09c3cb" d="m288.875 187.527 4.02-13.48 18.882 11.433Zm0 0"/><path fill="#07c4cc" d="m292.895 174.047 14.726-28.797 4.156 40.23Zm0 0"/><path fill="#665561" d="M373.754 338.438 384.027 361l-21.101-13.937Zm0 0"/><path fill="#f2cf83" d="m311.766 343.918-2.649 20.32-20.992-16.664Zm0 0"/><path fill="#393359" d="m276.227 349.813 7.296-11.16 4.602 8.921Zm0 0"/><path fill="#f3cb80" d="m283.523 338.652-7.296 11.16-7.336-13.214Zm0 0"/><path fill="#fdcf80" d="m74.469 264.04-11.59 13.48-12.102-12.665Zm0 0"/><path fill="#505467" d="m54.23 245.555 20.239 18.484-23.692.816Zm0 0"/><path fill="#57465c" d="m89.203 266.063 10.707 10.914-19.785 5.761Zm0 0"/><path fill="#c5a375" d="m136.277 314.078-4.312 18.7-13.274-9.59Zm0 0"/><path fill="#382e56" d="m102.113 289.652 2.11 9.23-15.38-4.734Zm0 0"/><path fill="#3e3257" d="m139.152 269.605-3.851 19.012-6.016-17.258Zm0 0"/><path fill="#fecf7f" d="m135.3 288.617 3.852-19.012 7.438 17.254Zm0 0"/><path fill="#b39673" d="m128.969 257.145 10.183 12.46-9.867 1.754Zm0 0"/><path fill="#fecf7f" d="m146.59 286.86-7.438-17.255 18.016 2.758Zm0 0"/><path fill="#e1b87a" d="m118.785 284.148-3.265-18.324 13.765 5.535Zm0 0"/><path fill="#f8cc7f" d="m115.52 265.824 3.265 18.324-18.875-7.171Zm0 0"/><path fill="#a1886f" d="m28.297 290.871-15.02 28.211 1.07-26.094Zm0 0"/><path fill="#fdce7f" d="m13.277 319.082 15.02-28.21 10.137 11.85Zm0 0"/><path fill="#8e766a" d="m14.348 292.988-1.07 26.094-13.294-9.242Zm0 0"/><path fill="#4f435d" d="m17.656 272.566-3.308 20.422-14.356-7.691Zm0 0"/><path fill="#fecf80" d="m17.656 272.566-4.242-17.332 11.59 2.59Zm0 0"/><path fill="#fccf80" d="m.008 257.984 17.648 14.582-17.664 12.73Zm0 0"/><path fill="#fdd080" d="m13.414 255.234 4.242 17.332L.008 257.984Zm0 0"/><path fill="#f6ca7f" d="m49.598 279.723-14.184-10.278 15.363-4.59Zm0 0"/><path fill="#a5896f" d="m35.414 269.445 14.184 10.278-10.399 7.23Zm0 0"/><path fill="#f3c87e" d="m35.414 269.445 2.207-21.453 13.156 16.863Zm0 0"/><path fill="#423558" d="m35.414 269.445 3.785 17.508-10.902 3.918Zm0 0"/><path fill="#fecf80" d="m35.414 269.445-17.758 3.121 7.348-14.742Zm0 0"/><path fill="#fbce7f" d="m17.656 272.566 17.758-3.12-7.117 21.425Zm0 0"/><path fill="#fbcd7f" d="m63.047 297.559 17.078-14.82-8.145 20.019Zm0 0"/><path fill="#f7cb7f" d="m52.762 315.516 10.285-17.957 8.933 5.199Zm0 0"/><path fill="#413558" d="m93.992 335.75 7.274-5.035 6.039 9.078Zm0 0"/><path fill="#4a3d5a" d="m66.82 324.164-11.011 7.168-3.047-15.816Zm0 0"/><path fill="#dfb77a" d="m55.809 331.332 11.011-7.168 6.578 13.918Zm0 0"/><path fill="#fcce7f" d="m134.855 364.805 14.59-6.676 2.953 17.574Zm0 0"/><path fill="#fecf80" d="m181.02 350.926 3.226 19.613-17.465-5.453Zm0 0"/><path fill="#bf9c72" d="m23.313 347.531 13.273-18.554-.617 16.796Zm0 0"/><path fill="#7d6665" d="M36.586 328.977 23.313 347.53l-10.036-28.449Zm0 0"/><path fill="#fecf7f" d="m50.414 343.871 10.29 16.926-22.329-.68Zm0 0"/><path fill="#63505f" d="m50.414 343.871 5.395-12.539 17.59 6.75Zm0 0"/><path fill="#fecf80" d="M60.703 360.797 50.414 343.87l22.984-5.789Zm0 0"/><path fill="#f6ca7e" d="m60.703 360.797 11.45 23.215-23.25-.016Zm0 0"/><path fill="#fa6d72" d="m131.809 172.52.636 17.8-39.289-3.98Zm0 0"/><path fill="#01cace" d="m132.445 190.32 15.715 26.59-35.887 3.16Zm0 0"/><path fill="#02c9ce" d="m93.156 186.34 39.29 3.98-20.173 29.75Zm0 0"/><path fill="#03c9ce" d="m114.453 248.191-27.375-4.226 25.195-23.895Zm0 0"/><path fill="#01cace" d="m136.676 244.121-22.223 4.07-2.18-28.12Zm0 0"/><path fill="#f7d182" d="m128.969 257.145-14.516-8.954 22.223-4.07Zm0 0"/><path fill="#fbcf80" d="m115.52 265.824-1.067-17.633 14.516 8.954Zm0 0"/><path fill="#d7d48f" d="m128.969 257.145 7.707-13.024 7.765 5.813Zm0 0"/><path fill="#c4ca8e" d="m384 316.344-9.465-19.864 9.469-.437Zm0 0"/><path fill="#28a8be" d="m374.535 296.48-2.883-18.437 12.352 18Zm0 0"/><path fill="#bfaf7e" d="m374.535 296.48-7.738 13.153-10.613-13.32Zm0 0"/><path fill="#f1ca80" d="m366.797 309.633 6.3 14.945-16.992-4.015Zm0 0"/><path fill="#33667a" d="m337.063 321.887 12.285 15.48-17.602-1.32Zm0 0"/><path fill="#dec482" d="m349.348 337.367-12.286-15.48 19.043-1.325Zm0 0"/><path fill="#333d61" d="m325.098 307.457-17.215 1.2 10.36-13.606Zm0 0"/><path fill="#333f62" d="m331.02 290.746-5.922 16.711-6.856-12.406Zm0 0"/><path fill="#4a6f7a" d="m307.883 308.656 17.215-1.199-8.72 21.684Zm0 0"/><path fill="#efcf84" d="m325.098 307.457 11.964 14.43-20.683 7.254Zm0 0"/><path fill="#48767e" d="m307.883 308.656-9.649-28.574 20.008 14.969Zm0 0"/><path fill="#05c7cd" d="m278.336 137.004 3.012 16.504-11.063-10.446Zm0 0"/><path fill="#b04465" d="m289.54 191.238-40.642 2.082 39.977-5.793Zm0 0"/><path fill="#c74968" d="m248.898 193.32 40.641-2.082-40.625 6.946Zm0 0"/><path fill="#7b385e" d="m288.875 187.527-39.977 5.793 17.899-19.496Zm0 0"/><path fill="#9b4062" d="m248.898 193.32-9.035-18.39 26.934-1.106Zm0 0"/><path fill="#432d56" d="m258.367 155.867 15.797 2.461-7.367 15.496Zm0 0"/><path fill="#3d2b56" d="m274.164 158.328-15.797-2.46 11.918-12.805Zm0 0"/><path fill="#5b335a" d="m281.348 153.508-7.184 4.82-3.879-15.266Zm0 0"/><path fill="#facd7f" d="m331.887 370.082-9.063-16.844 12.82-6.547Zm0 0"/><path fill="#a4876d" d="m356.68 358.844-24.793 11.238 3.758-23.39Zm0 0"/><path fill="#6b5c64" d="m356.68 358.844 2.164 25.164-26.957-13.926Zm0 0"/><path fill="#3a365a" d="m316.379 329.14 7.625 13.333-12.238 1.445Zm0 0"/><path fill="#7b6c69" d="m324.004 342.473 7.742-6.426 3.899 10.644Zm0 0"/><path fill="#393359" d="m331.746 336.047-7.742 6.426-7.625-13.332Zm0 0"/><path fill="#fecf80" d="m62.879 277.52 11.59-13.48 5.656 18.698Zm0 0"/><path fill="#fecf80" d="m74.469 264.04 14.734 2.022-9.078 16.676Zm0 0"/><path fill="#fecf7f" d="m89.203 266.063-14.734-2.024 12.61-20.074Zm0 0"/><path fill="#fed080" d="M74.469 264.04 54.23 245.554l32.848-1.59Zm0 0"/><path fill="#facc7f" d="m124.89 304.059 18.657-4.946-7.27 14.965Zm0 0"/><path fill="#fcce7f" d="m118.691 323.188 6.2-19.13 11.386 10.02Zm0 0"/><path fill="#56475d" d="m158.754 320.684-12.348 8.511-10.129-15.117Zm0 0"/><path fill="#3d3257" d="m146.406 329.195-14.441 3.582 4.312-18.699Zm0 0"/><path fill="#3e3357" d="m131.965 332.777 14.441-3.582 3.121 11.09Zm0 0"/><path fill="#f6ca7f" d="m161.293 332.988-14.887-3.793 12.348-8.511Zm0 0"/><path fill="#e1bb7c" d="m146.406 329.195 14.887 3.793-11.766 7.297Zm0 0"/><path fill="#facd7f" d="m101.266 330.715-11.72-12.106 29.145 4.579Zm0 0"/><path fill="#f7ca7f" d="m104.223 298.883-14.676 19.726-.703-24.46Zm0 0"/><path fill="#766566" d="m89.547 318.61 14.676-19.727 14.468 24.305Zm0 0"/><path fill="#efcc82" d="m21.36 242.664 16.261 5.328-12.617 9.832Zm0 0"/><path fill="#fecf7f" d="m37.621 247.992-2.207 21.453-10.41-11.62Zm0 0"/><path fill="#08c4cc" d="m37.621 247.992-16.262-5.328 16.477-2.75Zm0 0"/><path fill="#f5c87e" d="m166.781 365.086-17.336-6.957 17.157-8.957Zm0 0"/><path fill="#fecf80" d="m149.445 358.129 17.336 6.957-14.383 10.617Zm0 0"/><path fill="#eec37d" d="m133.469 351.98-1.504-19.203 17.562 7.508Zm0 0"/><path fill="#fecf80" d="m120.793 358.27 14.062 6.535-11.57 5.824Zm0 0"/><path fill="#fbcd7f" d="m184.246 370.54 15.512-13.243 6.34 26.703Zm0 0"/><path fill="#fecf7f" d="m181.02 350.926 18.738 6.37-15.512 13.243Zm0 0"/><path fill="#fecf80" d="m206.098 384-6.34-26.703 18.98 12.305Zm0 0"/><path fill="#fecf7f" d="m199.758 357.297 26.465-7.938-7.485 20.243Zm0 0"/><path fill="#4d3e5a" d="m188.398 305.281.305 13.145-17.484-8.996Zm0 0"/><path fill="#51415b" d="m188.703 318.426-.305-13.145 8.13 5.77Zm0 0"/><path fill="#f8cc7f" d="m170.516 325.016-9.223 7.972-2.54-12.304Zm0 0"/><path fill="#fbcd7f" d="m170.516 325.016-11.762-4.332 12.465-11.254Zm0 0"/><path fill="#fcce7f" d="m188.703 318.426-18.187 6.59.703-15.586Zm0 0"/><path fill="#fecf7f" d="m166.602 349.172 14.418 1.754-14.239 14.16ZM35.969 345.773l14.445-1.902-12.039 16.246ZM72.152 384.012l-11.449-23.215 23.559-5.55Zm0 0"/><path fill="#fdcf7f" d="m89.203 266.063 11.242-4.543-.535 15.457Zm0 0"/><path fill="#fed080" d="m100.445 261.52-11.242 4.543-2.125-22.098Zm0 0"/><path fill="#f7d183" d="m114.453 248.191-14.008 13.329-13.367-17.555Zm0 0"/><path fill="#ecca82" d="m366.797 309.633 7.738-13.153L384 316.344Zm0 0"/><path fill="#473d5b" d="m366.797 309.633 17.203 6.71-10.902 8.235Zm0 0"/><path fill="#504f63" d="m325.098 307.457 26.18 3.293-14.216 11.137Zm0 0"/><path fill="#4d6572" d="m356.184 296.313-4.907 14.437-9.718-11.129Zm0 0"/><path fill="#34395e" d="m351.277 310.75-26.18-3.293 16.462-7.836Zm0 0"/><path fill="#c9bb83" d="m337.063 321.887 14.214-11.137 4.828 9.813Zm0 0"/><path fill="#a89a78" d="m351.277 310.75 15.52-1.117-10.692 10.93Zm0 0"/><path fill="#494c64" d="m366.797 309.633-15.52 1.117 4.907-14.437Zm0 0"/><path fill="#43395a" d="m358.844 384.008-2.164-25.164L384 384.012Zm0 0"/><path fill="#58495d" d="M356.68 358.844 384.027 361 384 384.012Zm0 0"/><path fill="#39365b" d="m324.004 342.473-1.18 10.765-11.058-9.32Zm0 0"/><path fill="#b39873" d="m311.766 343.918 11.058 9.32-13.707 11Zm0 0"/><path fill="#e8c57f" d="m322.824 353.238 9.063 16.844-22.77-5.844Zm0 0"/><path fill="#3b365a" d="m322.824 353.238 1.18-10.765 11.64 4.218Zm0 0"/><path fill="#fecf80" d="m124.89 304.059-6.199 19.128-14.468-24.304Zm0 0"/><path fill="#fdcf80" d="m63.047 297.559-24.613 5.164 8.207-10.563Zm0 0"/><path fill="#fccf80" d="m38.434 302.723 24.613-5.164-10.285 17.957Zm0 0"/><path fill="#3a2e56" d="m149.445 358.129.082-17.844 17.075 8.887Zm0 0"/><path fill="#413457" d="m131.965 332.777-10.004 16.645-14.656-9.629Zm0 0"/><path fill="#f4c97e" d="m107.305 339.793 14.656 9.629-1.168 8.848Zm0 0"/><path fill="#fdcf7f" d="m226.223 349.36-32.575-9.278 39.782-14.586Zm0 0"/><path fill="#937869" d="m199.758 357.297-6.11-17.215 32.575 9.277Zm0 0"/><path fill="#facc7f" d="m193.648 340.082 6.11 17.215-18.738-6.371Zm0 0"/><path fill="#b79872" d="m176.938 341.855-6.422-16.84 18.187-6.59Zm0 0"/><path fill="#e9bf7c" d="m166.602 349.172 10.335-7.317 4.083 9.07Zm0 0"/><path fill="#786666" d="m170.516 325.016 6.422 16.84-15.645-8.868Zm0 0"/><path fill="#372c55" d="m161.293 332.988 15.644 8.867-10.335 7.317Zm0 0"/><path fill="#e2b97a" d="m55.809 331.332-5.395 12.54-13.828-14.895Zm0 0"/><path fill="#453758" d="m50.414 343.871-14.445 1.902.617-16.796Zm0 0"/><path fill="#fcce80" d="m100.445 261.52 15.075 4.304-15.61 11.153Zm0 0"/><path fill="#dcba7c" d="m115.52 265.824-15.075-4.304 14.008-13.329Zm0 0"/><path fill="#efc47d" d="m38.434 302.723-1.848 26.254-23.309-9.895Zm0 0"/><path fill="#7a6464" d="m55.809 331.332-19.223-2.355 16.176-13.461Zm0 0"/><path fill="#fcce7f" d="m36.586 328.977 1.848-26.254 14.328 12.793Zm0 0"/><path fill="#fecf7f" d="m120.793 358.27 12.676-6.29 1.386 12.825Zm0 0"/><path fill="#362b55" d="m133.469 351.98 16.058-11.695-.082 17.844Zm0 0"/><path fill="#c19d73" d="m133.469 351.98 15.976 6.149-14.59 6.676Zm0 0"/><path fill="#382d55" d="m176.938 341.855 16.71-1.773-12.628 10.844Zm0 0"/><path fill="#7d6765" d="m193.648 340.082-16.71 1.773 11.765-23.43Zm0 0"/><path fill="#4b3c59" d="m121.96 349.422 11.509 2.558-12.676 6.29Zm0 0"/><path fill="#cba775" d="m133.469 351.98-11.508-2.558 10.004-16.645Zm0 0"/><path fill="#d0aa76" d="m213.395 318.348-24.692.078 7.824-7.375Zm0 0"/><path fill="#fecf80" d="m213.395 318.348-19.747 21.734-4.945-21.656Zm0 0"/><path fill="#836d67" d="m193.648 340.082 19.747-21.734 20.035 7.148Zm0 0"/></svg>