<svg xmlns="http://www.w3.org/2000/svg" width="512" height="512" viewBox="0 0 384 384"><path fill="#0098db" d="m320.598 126.402 3.742-57.797 59.66 52.07ZM320.598 126.402l-35.618-20.457 39.36-37.34ZM204.586 54.434 234.992 0l28.797 52.73Zm0 0"/><path fill="#0198db" d="M169.922 0h65.07l-30.406 54.434Zm0 0"/><path fill="#0098db" d="m169.922 0 34.664 54.434-68.004 5.476Zm0 0"/><path fill="#d9d7dc" d="m175.617 110.566 8.055 36.942-26.367-7.406Zm0 0"/><path fill="#271c39" d="m179.477 195-3.48-16.777 27.425 17.996Zm0 0"/><path fill="#24a0b1" d="m279.39 301.04-4.023-15.892 20.297 2.965Zm0 0"/><path fill="#0098db" d="m384 120.676-53.367 61.394-10.035-55.668ZM97.469 0l-30.5 66.895L0 0ZM71.742 122.09 0 121.988l66.969-55.093ZM71.742 122.09 66.97 66.895l34.511 34.043Zm0 0"/><path fill="#0098db" d="m66.969 66.895 69.613-6.985-35.102 41.028ZM324.34 68.605 263.79 52.73 299.585 0Zm0 0"/><path fill="#0098db" d="M284.98 105.945 263.79 52.73l60.55 15.875ZM263.79 52.73 234.991 0h64.594ZM97.469 0l39.113 59.91-69.613 6.985ZM174.344 94.254l30.242-39.82-11.39 55.285Zm0 0"/><path fill="#0098db" d="m204.586 54.434-30.242 39.82-37.762-34.344ZM175.617 110.566l-1.273-16.312 18.851 15.465Zm0 0"/><path fill="#c8c6cd" d="m175.996 178.223-37.914-15.477 19.223-22.644Zm0 0"/><path fill="#bbb8c1" d="m183.672 147.508-7.676 30.715-18.691-38.121Zm0 0"/><path fill="#e8e7ea" d="m125.95 135.52 12.132 27.226-24.844-4.578Zm0 0"/><path fill="#fefefe" d="m135.855 116.094-9.906 19.426-8.687-11.043Zm0 0"/><path fill="#dfdde1" d="m138.082 162.746-12.133-27.226 31.356 4.582Zm0 0"/><path fill="#fcfcfd" d="m125.95 135.52 9.905-19.426 21.45 24.008Zm0 0"/><path fill="#332944" d="M271.074 141.785 255.41 154.22l-20.047-23.29Zm0 0"/><path fill="#2e233f" d="M255.41 154.219 242.496 173.8l-7.133-42.871Zm0 0"/><path fill="#403650" d="m242.496 173.8-27.59-32.163 20.457-10.707Zm0 0"/><path fill="#dbdade" d="m233.832 116.219 14.207 5.316-12.676 9.395Zm0 0"/><path fill="#0098db" d="m236.086 88.75 11.953 32.785-14.207-5.316Zm0 0"/><path fill="#96919f" d="m248.04 121.535 23.034 20.25-35.71-10.855Zm0 0"/><path fill="#0098db" d="m248.04 121.535 36.94-15.59-13.906 35.84Zm0 0"/><path fill="#2a1f3c" d="m157.652 196.105 18.344-17.882 3.48 16.777Zm0 0"/><path fill="#211734" d="m200.484 262.27-21.445 4.015 7.7-25.633Zm0 0"/><path fill="#3a314b" d="m164.871 285.29 14.168-19.005 12.258 24.074Zm0 0"/><path fill="#211634" d="m191.297 290.36-12.258-24.075 21.445-4.015Zm0 0"/><path fill="#0098db" d="m284.895 210.977-44.711.77 15.148-15.153Zm0 0"/><path fill="#0098db" d="m261.703 235.25-21.52-23.504 44.712-.77Zm0 0"/><path fill="#0098db" d="m240.184 211.746 21.52 23.504-26.825-10.14ZM227.2 236.555l34.503-1.305-13.355 16.113Zm0 0"/><path fill="#0098db" d="m261.703 235.25-34.504 1.305 7.68-11.446Zm0 0"/><path fill="#201533" d="m236.438 196.508-24.184-23.14 30.242.433Zm0 0"/><path fill="#0098db" d="m284.895 210.977 33.796 27.003-56.988-2.73Zm0 0"/><path fill="#f8fefe" d="m307.54 363.238 13.065 20.813-37.566-.043Zm0 0"/><path fill="#1f2743" d="m292.457 352.375 15.082 10.863-24.5 20.77Zm0 0"/><path fill="#0098db" d="M46.871 187.86 0 201.214v-79.227Zm0 0"/><path fill="#0098db" d="M62.203 152.586 0 121.988l71.742.102ZM62.203 152.586l-15.332 35.273L0 121.99ZM0 121.988V0l66.969 66.895ZM324.34 68.605 299.586 0H384ZM384 120.676l-59.66-52.07L384 0ZM97.469 0h72.453l-33.34 59.91ZM236.086 88.75l-42.89 20.969 11.39-55.285Zm0 0"/><path fill="#0098db" d="m236.086 88.75-31.5-34.316 59.203-1.704ZM129.992 104.254l5.863 11.84-18.593 8.383Zm0 0"/><path fill="#0098db" d="m129.992 104.254-12.73 20.223-15.782-23.54ZM136.582 59.91l-6.59 44.344-28.512-3.317ZM174.344 94.254l-18.067 15.574-19.695-49.918ZM156.277 109.828l18.067-15.574 1.273 16.312Zm0 0"/><path fill="#0098db" d="m156.277 109.828-26.285-5.574 6.59-44.344Zm0 0"/><path fill="#0098db" d="m129.992 104.254 26.285 5.574-20.422 6.266Zm0 0"/><path fill="#f2f2f3" d="m156.277 109.828 19.34.738-18.312 29.536Zm0 0"/><path fill="#f1f0f2" d="m135.855 116.094 20.422-6.266 1.028 30.274Zm0 0"/><path fill="#0098db" d="m117.262 124.477-21.028 3.773 5.246-27.312ZM96.234 128.25l-24.492-6.16 29.738-21.153Zm0 0"/><path fill="#ebeaed" d="m138.082 162.746-11.945 9.746-12.899-14.324Zm0 0"/><path fill="#0098db" d="m89.602 154.637-14.348 13.816-13.05-15.867Zm0 0"/><path fill="#fdfefe" d="m125.95 135.52-21.84 1.96 13.152-13.003Zm0 0"/><path fill="#0098db" d="m104.11 137.48-7.876-9.23 21.028-3.773Zm0 0"/><path fill="#fbfbfb" d="m104.11 137.48 21.84-1.96-12.712 22.648Zm0 0"/><path fill="#736c7f" d="m212.254 173.367-36.258 4.856 7.676-30.715Zm0 0"/><path fill="#7c7587" d="m214.906 141.637-2.652 31.73-28.582-25.86Zm0 0"/><path fill="#221835" d="m175.996 178.223 36.258-4.856-8.832 22.852Zm0 0"/><path fill="#463d55" d="m212.254 173.367 2.652-31.73 27.59 32.164Zm0 0"/><path fill="#d3d1d7" d="m216.277 114.734 17.555 1.485 1.531 14.71Zm0 0"/><path fill="#807a8b" d="m214.906 141.637 1.371-26.903 19.086 16.196Zm0 0"/><path fill="#0098db" d="m233.832 116.219-17.555-1.485 19.809-25.984ZM216.277 114.734l-23.082-5.015 42.89-20.969ZM284.98 105.945l-36.94 15.59-11.954-32.785Zm0 0"/><path fill="#0098db" d="M284.98 105.945 236.086 88.75l27.703-36.02Zm0 0"/><path fill="#ecebee" d="m142.32 374.309 42.621 9.671-46.082.02Zm0 0"/><path fill="#1f1634" d="m262.809 384.012-.032-9.063 20.262 9.059Zm0 0"/><path fill="#eeeff1" d="m258.39 333.527.2 20.547-14.652-17.512Zm0 0"/><path fill="#1c4761" d="m293.578 308.836-15.75 2.766 1.563-10.563Zm0 0"/><path fill="#1e445e" d="m293.578 308.836-14.187-7.797 16.273-12.926Zm0 0"/><path fill="#203550" d="m293.578 308.836-3.023 14.504-12.727-11.738Zm0 0"/><path fill="#7db6c2" d="m277.828 311.602 12.727 11.738-11.739 12.383Zm0 0"/><path fill="#1b4b64" d="m279.39 301.04-43.28-3.524 39.257-12.368Zm0 0"/><path fill="#4ab7c5" d="m236.11 297.516-2.118-10.739 41.375-1.629Zm0 0"/><path fill="#f8fdfd" d="m258.39 333.527-9.89-14.386 29.328-7.54Zm0 0"/><path fill="#f2f7f8" d="m248.5 319.14-4.562 17.423-7.907-11.981Zm0 0"/><path fill="#fefefe" d="m248.5 319.14 9.89 14.387-14.452 3.036Zm0 0"/><path fill="#29213e" d="m244.762 311.77-8.73 12.812-9.173-15.535Zm0 0"/><path fill="#221a37" d="m244.762 311.77-17.903-2.723 9.25-11.531Zm0 0"/><path fill="#98a0ac" d="m244.762 311.77 3.738 7.37-12.469 5.442Zm0 0"/><path fill="#261b38" d="m165.75 217.293-.691 31.355-15.989-25.816Zm0 0"/><path fill="#d3d1d7" d="m165.059 248.648-20.371 1.633 4.382-27.449Zm0 0"/><path fill="#211634" d="m165.059 248.648.691-31.355 20.988 23.36Zm0 0"/><path fill="#211634" d="m179.04 266.285-13.981-17.637 21.68-7.996Zm0 0"/><path fill="#676175" d="m165.059 248.648 13.98 17.637-14.168 19.004Zm0 0"/><path fill="#201533" d="m205.32 234.566-1.898-38.347 19.035 23.691Zm0 0"/><path fill="#201533" d="m203.422 196.219 1.898 38.347L179.477 195Zm0 0"/><path fill="#0098db" d="m149.07 222.832-4.382 27.45-14.141-14.188Zm0 0"/><path fill="#0098db" d="m117.832 225.348 31.238-2.516-18.523 13.262Zm0 0"/><path fill="#201533" d="m213.402 285.484-22.105 4.875 9.187-28.09Zm0 0"/><path fill="#1f1533" d="m233.992 286.777-20.59-1.293 16.125-16.086Zm0 0"/><path fill="#1f1735" d="m213.402 285.484 20.59 1.293 2.117 10.739Zm0 0"/><path fill="#1f1634" d="m226.86 309.047-13.458-23.563 22.707 12.032Zm0 0"/><path fill="#201533" d="m201.71 304.96 11.692-19.476 13.457 23.563Zm0 0"/><path fill="#201533" d="m213.402 285.484-11.691 19.477-10.414-14.602ZM225.953 252.473l-12.55 33.011-12.919-23.214Zm0 0"/><path fill="#201533" d="m213.402 285.484 12.551-33.011 3.574 16.925Zm0 0"/><path fill="#fafdfe" d="m229.527 269.398-3.574-16.925 22.395-1.11Zm0 0"/><path fill="#0098db" d="m225.953 252.473 1.246-15.918 21.149 14.808Zm0 0"/><path fill="#201533" d="m205.32 234.566-4.836 27.704-13.746-21.618ZM205.32 234.566l20.633 17.907-25.469 9.797Zm0 0"/><path fill="#201533" d="m225.953 252.473-20.633-17.907 21.88 1.989Zm0 0"/><path fill="#0098db" d="m227.2 236.555-4.743-16.645 12.422 5.2Zm0 0"/><path fill="#201533" d="m205.32 234.566 17.137-14.656 4.742 16.645Zm0 0"/><path fill="#0098db" d="m240.184 211.746-5.305 13.363-12.422-5.199ZM318.691 237.98l-18.199 39.375-17.328-12.875Zm0 0"/><path fill="#0098db" d="m318.691 237.98-35.527 26.5-21.46-29.23ZM318.691 237.98l38.938 25.301-20.418 5.73Zm0 0"/><path fill="#0098db" d="m357.629 263.281-38.938-25.3L384 215.026Zm0 0"/><path fill="#d5ecf0" d="m255.105 265.668-21.113 21.11-4.465-17.38Zm0 0"/><path fill="#f1f9fa" d="m255.105 265.668-25.578 3.73 18.82-18.035Zm0 0"/><path fill="#242845" d="m373.059 322.246 10.949 10.68-17.145 2.87Zm0 0"/><path fill="#27536b" d="m299.055 339.16 14.043-7.805-4.848 16.883Zm0 0"/><path fill="#0098db" d="m329.008 272.64-10.317-34.66 18.52 31.032Zm0 0"/><path fill="#0098db" d="m318.691 237.98 10.317 34.66-28.516 4.715ZM318.691 237.98l11.942-55.91L384 215.027ZM284.895 210.977l-4.61-15.059 8.063-2.856Zm0 0"/><path fill="#0098db" d="m330.633 182.07-45.738 28.907 3.453-17.915Zm0 0"/><path fill="#0098db" d="m318.691 237.98-33.796-27.003 45.738-28.907ZM292.652 176.2l37.98 5.87-42.284 10.993Zm0 0"/><path fill="#3d586f" d="M384.008 332.926 384 360.742l-17.137-24.945Zm0 0"/><path fill="#497689" d="m292.457 352.375 6.598-13.215 9.195 9.078Zm0 0"/><path fill="#0098db" d="M24.793 220.355 0 201.215l46.871-13.356ZM46.871 187.86l37.176 36.21-59.254-3.715Zm0 0"/><path fill="#0098db" d="m24.793 220.355 29.617 25.86-31.87-1.914Zm0 0"/><path fill="#0098db" d="M84.047 224.07 54.41 246.215l-29.617-25.86ZM62.203 152.586l13.05 15.867-28.382 19.406Zm0 0"/><path fill="#fbfefe" d="m77.402 286.512 7.188-10.074 2 17.066Zm0 0"/><path fill="#f0f9fa" d="m70.895 298.387 6.507-11.875 9.188 6.992Zm0 0"/><path fill="#1f314d" d="m48.762 293.766 18.343-12.29 3.79 16.91Zm0 0"/><path fill="#81ced8" d="m67.105 281.477 10.297 5.035-6.507 11.875Zm0 0"/><path fill="#f4fbfc" d="m77.402 286.512-10.297-5.035 17.485-5.04Zm0 0"/><path fill="#eaf4f6" d="m85.852 318.328-14.957-19.941 15.695-4.883Zm0 0"/><path fill="#e9f7f9" d="m-.004 267.39 11.41 12.844L-.008 297.5Zm0 0"/><path fill="#0098db" d="m96.234 128.25 7.875 9.23-14.507 17.157Zm0 0"/><path fill="#f9f9fa" d="m107.375 175.672-9.918-7.867 15.781-9.637Zm0 0"/><path fill="#ecebee" d="m126.137 172.492-18.762 3.18 5.863-17.504Zm0 0"/><path fill="#0098db" d="m46.871 187.86 40.156-3.708 11.309 21.313ZM87.027 184.152l-40.156 3.707 28.383-19.406ZM89.602 154.637l-27.399-2.051 9.54-30.496Zm0 0"/><path fill="#0098db" d="m96.234 128.25-6.632 26.387-17.86-32.547ZM89.602 154.637l-5.098 14.476-9.25-.66Zm0 0"/><path fill="#0098db" d="m84.504 169.113 2.523 15.04-11.773-15.7Zm0 0"/><path fill="#fcfcfc" d="m95.46 158.445 8.65-20.965 9.128 20.688Zm0 0"/><path fill="#f7f7f8" d="m104.11 137.48-8.65 20.965-5.858-3.808Zm0 0"/><path fill="#e4e3e6" d="m216.277 114.734-25.488 7.47 2.406-12.485Zm0 0"/><path fill="#f8f8f9" d="m190.79 122.203-15.173-11.637 17.578-.847Zm0 0"/><path fill="#e4e3e6" d="m175.617 110.566 15.172 11.637-7.117 25.305Zm0 0"/><path fill="#928d9b" d="m190.79 122.203 24.116 19.434-31.234 5.87Zm0 0"/><path fill="#b5b1bb" d="m190.79 122.203 25.487-7.469-1.37 26.903Zm0 0"/><path fill="#41ceda" d="m82.992 357.02 9.012 12.593-9.563-8.715Zm0 0"/><path fill="#1f324e" d="m92.004 369.613-9.012-12.593 11.824-10.532Zm0 0"/><path fill="#e0e6ea" d="m94.816 346.488-30.863-6.734 13.067-3.317Zm0 0"/><path fill="#f7f7f8" d="m109.32 340.063 4.192 21.164-18.696-14.739Zm0 0"/><path fill="#d8eff2" d="m113.512 361.227-21.508 8.386 2.812-23.125Zm0 0"/><path fill="#bdbac2" d="m220.063 320.414 15.968 4.168-16.39 7.055Zm0 0"/><path fill="#f9f9f9" d="m236.031 324.582-15.969-4.168 6.797-11.367Zm0 0"/><path fill="#211634" d="m220.063 320.414-18.352-15.453 25.148 4.086Zm0 0"/><path fill="#b5b2bc" d="m201.71 304.96 18.352 15.454-19.699 2.844Zm0 0"/><path fill="#24445d" d="M29.086 355.113 16.19 335.641l17.239 9.488Zm0 0"/><path fill="#e9f5f6" d="m29.086 355.113-29.09 28.918.008-38.832Zm0 0"/><path fill="#59b6c4" d="m29.086 355.113 4.762 28.86-33.852.058Zm0 0"/><path fill="#211634" d="m221.879 377.39-5.941 6.626-5.782-14.84Zm0 0"/><path fill="#22213e" d="m242.59 356.605 16-2.53-9.738 15.488Zm0 0"/><path fill="#202541" d="m232.988 368.258 9.602-11.653 6.262 12.957Zm0 0"/><path fill="#736c7f" d="m258.59 354.074-16 2.531 1.347-20.043Zm0 0"/><path fill="#30455e" d="m246.574 384.004 16.203-9.055.032 9.063Zm0 0"/><path fill="#201937" d="m258.59 354.074 9.328-15.3 1.586 15.378Zm0 0"/><path fill="#fafbfb" d="m258.39 333.527 9.528 5.246-9.328 15.301Zm0 0"/><path fill="#96bcc6" d="m267.918 338.773 9.91-27.171.988 24.12Zm0 0"/><path fill="#fdfefe" d="m267.918 338.773-9.527-5.246 19.437-21.925Zm0 0"/><path fill="#5a5268" d="m169.3 307.219-4.429-21.93 26.426 5.07Zm0 0"/><path fill="#251b38" d="m201.71 304.96-32.41 2.259 21.997-16.86Zm0 0"/><path fill="#746e81" d="m149.281 299.598 7.867 15.414-18.035-.54Zm0 0"/><path fill="#e5e4e7" d="m138.977 174.129-12.84-1.637 11.945-9.746Zm0 0"/><path fill="#e2e0e4" d="m175.996 178.223-37.02-4.094-.894-11.383Zm0 0"/><path fill="#322843" d="m157.652 196.105-18.675-21.976 37.02 4.094Zm0 0"/><path fill="#0098db" d="M106.82 238.398 84.047 224.07l33.785 1.278Zm0 0"/><path fill="#1b4a64" d="m277.828 311.602-41.719-14.086 43.282 3.523Zm0 0"/><path fill="#1d2f4a" d="m236.11 297.516 41.718 14.086-33.066.168Zm0 0"/><path fill="#203651" d="M277.828 311.602 248.5 319.14l-3.738-7.371Zm0 0"/><path fill="#c2bfc7" d="m151.313 269.242 13.746-20.594-.188 36.641Zm0 0"/><path fill="#ccced4" d="m165.059 248.648-13.746 20.594-6.625-18.96Zm0 0"/><path fill="#a19daa" d="m150.152 283.234 1.16-13.992 13.56 16.047Zm0 0"/><path fill="#f3f4f5" d="m138.762 275.715 12.55-6.473-1.16 13.992Zm0 0"/><path fill="#f4f9fa" d="m151.313 269.242-12.551 6.473 5.926-25.434Zm0 0"/><path fill="#201533" d="m186.738 240.652-20.988-23.359L179.477 195Zm0 0"/><path fill="#201533" d="m205.32 234.566-18.582 6.086L179.477 195ZM157.652 196.105 179.477 195l-13.727 22.293Zm0 0"/><path fill="#0098db" d="m157.652 196.105-8.582 26.727-20.66-15.277Zm0 0"/><path fill="#271d3a" d="m149.07 222.832 8.582-26.727 8.098 21.188Zm0 0"/><path fill="#0098db" d="m117.832 225.348 10.578-17.793 20.66 15.277ZM118.52 245.465l-.688-20.117 12.715 10.746Zm0 0"/><path fill="#0098db" d="m118.52 245.465-11.7-7.067 11.012-13.05Zm0 0"/><path fill="#211634" d="m236.438 196.508-18.922 1.441-5.262-24.582Zm0 0"/><path fill="#0198db" d="m240.184 211.746-22.668-13.797 18.922-1.441Zm0 0"/><path fill="#251a37" d="m217.516 197.95-14.094-1.731 8.832-22.852Zm0 0"/><path fill="#201533" d="m203.422 196.219 14.094 1.73 4.941 21.961Zm0 0"/><path fill="#0098db" d="m217.516 197.95 22.668 13.796-17.727 8.164Zm0 0"/><path fill="#201533" d="m255.332 196.594-18.894-.086 6.058-22.707Zm0 0"/><path fill="#0098db" d="m255.332 196.594-15.148 15.152-3.746-15.238ZM372.39 279.477 384 269.195l.004 27.09ZM384 269.195l-26.371-5.914L384 215.027Zm0 0"/><path fill="#0098db" d="M357.629 263.281 384 269.195l-11.61 10.282Zm0 0"/><path fill="#f2f8f9" d="m262.555 277.156 20.61-12.676-7.798 20.668Zm0 0"/><path fill="#f1fcfd" d="m233.992 286.777 28.563-9.62 12.812 7.991Zm0 0"/><path fill="#477e91" d="m255.105 265.668 7.45 11.488-28.563 9.621Zm0 0"/><path fill="#d1e8ec" d="m262.555 277.156-7.45-11.488 28.06-1.188Zm0 0"/><path fill="#64bdc9" d="m275.367 285.148 16.399-4.73 3.898 7.695Zm0 0"/><path fill="#f5fafb" d="m283.164 264.48 8.602 15.938-16.399 4.73Zm0 0"/><path fill="#e5f1f4" d="m291.766 280.418 8.726-3.063-4.828 10.758Zm0 0"/><path fill="#85b3bf" d="m300.492 277.355-8.726 3.063-8.602-15.938Zm0 0"/><path fill="#aadee7" d="m255.105 265.668-6.757-14.305 34.816 13.117Zm0 0"/><path fill="#49778b" d="m373.059 322.246 10.941-8.11.008 18.79Zm0 0"/><path fill="#3190a2" d="m337.695 322.133-24.597 9.222 1.664-11.293Zm0 0"/><path fill="#21566e" d="m337.695 322.133-9.265 17.094-15.332-7.872Zm0 0"/><path fill="#f6fcfd" d="m300.188 323.988 12.91 7.367-14.043 7.805Zm0 0"/><path fill="#25788d" d="m313.098 331.355-12.91-7.367 14.574-3.925Zm0 0"/><path fill="#1e2744" d="m300.188 323.988-9.633-.648 3.023-14.504Zm0 0"/><path fill="#f2fafc" d="m290.555 323.34 9.632.648-1.132 15.172Zm0 0"/><path fill="#a6c4cd" d="m342.074 289.098 16.168 8.75-17.047 2.98Zm0 0"/><path fill="#f7fcfd" d="m358.242 297.848-16.168-8.75 19.25-5.43Zm0 0"/><path fill="#0098db" d="m342.074 289.098-13.066-16.457 8.203-3.63Zm0 0"/><path fill="#fbfefe" d="m329.008 272.64-19.16 15.825-9.356-11.11Zm0 0"/><path fill="#0098db" d="m384 215.027-53.367-32.957L384 120.676ZM330.633 182.07l-46.594-26.804 36.559-28.864Zm0 0"/><path fill="#201533" d="M279.863 190.934 242.496 173.8l30.234-4.168Zm0 0"/><path fill="#d0dee3" d="m366.863 335.797-7.953 10.015-8.625-8.964Zm0 0"/><path fill="#8aa5b2" d="m373.059 322.246-6.196 13.55-11.058-14.847Zm0 0"/><path fill="#f7fcfd" d="m351.969 346.852 6.941-1.04-2.23 13.497Zm0 0"/><path fill="#ecf5f7" d="m358.91 345.813-6.941 1.039-1.684-10.004Zm0 0"/><path fill="#f8fafa" d="m351.969 346.852-21.793 3.539 20.11-13.543Zm0 0"/><path fill="#e4f1f4" d="m358.91 345.813 25.09 14.93-27.32-1.434Zm0 0"/><path fill="#283d57" d="m383.98 383.984-63.375.067 29.77-3.113Zm0 0"/><path fill="#1f203d" d="m278.172 358.824 14.285-6.449-9.418 31.633Zm0 0"/><path fill="#211c39" d="m262.777 374.95 15.395-16.126 4.867 25.184Zm0 0"/><path fill="#fafefe" d="m6.262 258.148 16.277-13.847.098 27.293Zm0 0"/><path fill="#0098db" d="m6.262 258.148 18.531-37.793-2.254 23.946ZM24.793 220.355 0 255.925v-54.71ZM24.793 220.355 6.262 258.148 0 255.926ZM84.047 224.07l10.187 29.551-39.824-7.406Zm0 0"/><path fill="#0098db" d="m94.234 253.621-10.187-29.55 22.773 14.327Zm0 0"/><path fill="#cfe5e9" d="m84.59 276.438 15.71 4.66-13.71 12.406Zm0 0"/><path fill="#eef5f7" d="m100.3 281.098-15.71-4.66 19.469-7.598Zm0 0"/><path fill="#2f2541" d="m122.809 328.613 11.093 18.762-24.582-7.312Zm0 0"/><path fill="#939daa" d="m109.32 340.063-5.43-18.528 18.919 7.078Zm0 0"/><path fill="#212a46" d="m134.332 290.809-16.945-6.825 6.531-6.785Zm0 0"/><path fill="#2b3f58" d="m104.059 268.84 19.742-5.55.117 13.91Zm0 0"/><path fill="#4f7487" d="M138.762 275.715 123.8 263.289l20.886-13.008Zm0 0"/><path fill="#c8dce1" d="m134.332 290.809-28.238 9.246 11.293-16.07Zm0 0"/><path fill="#f2f9fa" d="m117.387 283.984-17.086-2.886 3.758-12.258Zm0 0"/><path fill="#337085" d="m100.3 281.098 17.087 2.886-11.293 16.07Zm0 0"/><path fill="#9dd0d8" d="m-.008 297.5 11.414-17.266 7.875 12.938Zm0 0"/><path fill="#569aaa" d="m67.105 281.477-26.156-6.82 19.371-7.184Zm0 0"/><path fill="#1e3a55" d="m40.95 274.656 26.155 6.82-18.343 12.29Zm0 0"/><path fill="#dff7f9" d="m54.41 246.215-12.617 16.05-19.254-17.964Zm0 0"/><path fill="#3c99aa" d="m41.793 262.266 12.617-16.051 5.91 21.258Zm0 0"/><path fill="#24334e" d="m33.43 345.129.972-20.59 10.653 18.73Zm0 0"/><path fill="#676074" d="m107.375 175.672-20.348 8.48 10.43-16.347Zm0 0"/><path fill="#c9c7ce" d="m87.027 184.152-2.523-15.039 12.953-1.308Zm0 0"/><path fill="#fcfcfc" d="m97.457 167.805-1.996-9.36 17.777-.277Zm0 0"/><path fill="#fdfdfd" d="m84.504 169.113 10.957-10.668 1.996 9.36Zm0 0"/><path fill="#f8f8f9" d="m95.46 158.445-10.956 10.668 5.098-14.476Zm0 0"/><path fill="#1e2643" d="m98.855 384.027 12.743-10.64 7.304 10.62Zm0 0"/><path fill="#dbe8eb" d="m69.29 314.215 1.605-15.828 14.957 19.941Zm0 0"/><path fill="#f2f9fa" d="m70.895 298.387-1.606 15.828-11.789-2.406Zm0 0"/><path fill="#758495" d="m94.816 346.488-8.964-28.16 18.039 3.207Zm0 0"/><path fill="#c4d5db" d="m85.852 318.328 8.964 28.16-17.796-10.05Zm0 0"/><path fill="#55687c" d="m69.29 314.215-3.153 13-8.637-15.406Zm0 0"/><path fill="#3c586f" d="m66.137 327.215 3.152-13 16.563 4.113Zm0 0"/><path fill="#223651" d="m66.137 327.215 19.715-8.887-8.832 18.11Zm0 0"/><path fill="#b2c7cf" d="m63.953 339.754 2.184-12.54 10.883 9.224Zm0 0"/><path fill="#1f1735" d="m125.926 371.555 16.394 2.754-3.46 9.691Zm0 0"/><path fill="#202b47" d="m125.926 371.555-14.328 1.832 1.914-12.16Zm0 0"/><path fill="#1e2844" d="M125.926 371.555 138.859 384l-19.957.008Zm0 0"/><path fill="#1f2a46" d="m111.598 373.387 14.328-1.832-7.024 12.453Zm0 0"/><path fill="#2b203d" d="m143.188 337.418 15.605.883-1.813 14.183Zm0 0"/><path fill="#57586e" d="m184.941 383.98 25.215-14.804 5.781 14.84Zm0 0"/><path fill="#c7c4cb" d="m181.777 359.89 28.38 9.286-25.216 14.804Zm0 0"/><path fill="#f2f1f3" d="m165.48 362.82 19.461 21.16-42.62-9.671ZM165.48 362.82l16.297-2.93 3.164 24.09Zm0 0"/><path fill="#1a6f85" d="m69.691 384.012 22.313-14.399 6.851 14.414Zm0 0"/><path fill="#1e203d" d="m98.855 384.027-6.851-14.414 19.594 3.774Zm0 0"/><path fill="#1e2c48" d="m92.004 369.613 21.508-8.386-1.914 12.16Zm0 0"/><path fill="#8eb4bf" d="m18.86 312.29 15.542 12.25-18.21 11.1Zm0 0"/><path fill="#5e667a" d="M16.191 335.64.004 345.2 0 329.202Zm0 0"/><path fill="#dfe7eb" d="M29.086 355.113.004 345.2l16.187-9.558Zm0 0"/><path fill="#e7f5f7" d="m45.027 349.73-15.941 5.383 4.344-9.984Zm0 0"/><path fill="#fefefe" d="m29.086 355.113 15.941-5.383 20.047 19.098Zm0 0"/><path fill="#488396" d="m82.992 357.02-18.758-12.575 30.582 2.043Zm0 0"/><path fill="#211634" d="m232.988 368.258 13.586 15.746-18.344-.008Zm0 0"/><path fill="#1f1735" d="m246.574 384.004-13.586-15.746 15.864 1.305Zm0 0"/><path fill="#37667c" d="m262.777 374.95-16.203 9.054 2.278-14.442Zm0 0"/><path fill="#201533" d="m215.938 384.016 5.94-6.625 6.352 6.605Zm0 0"/><path fill="#201634" d="m221.879 377.39 11.11-9.132-4.759 15.738Zm0 0"/><path fill="#211634" d="m232.988 368.258-11.11 9.133-11.722-8.215Zm0 0"/><path fill="#241937" d="m242.59 356.605-10.52-16.808 11.868-3.235Zm0 0"/><path fill="#dfdde2" d="m243.938 336.563-11.868 3.234 3.961-15.215Zm0 0"/><path fill="#f3f2f4" d="m232.07 339.797-11.36 7.238-1.07-15.398Zm0 0"/><path fill="#fafafa" d="m236.031 324.582-3.96 15.215-12.43-8.16Zm0 0"/><path fill="#c8c5cd" d="m220.71 347.035 21.88 9.57-9.602 11.653Zm0 0"/><path fill="#9893a1" d="m220.71 347.035 12.278 21.223-22.832.918Zm0 0"/><path fill="#5a5268" d="m220.71 347.035 11.36-7.238 10.52 16.808Zm0 0"/><path fill="#c9e0e5" d="m258.59 354.074 4.187 20.875-13.925-5.387Zm0 0"/><path fill="#201836" d="m262.777 374.95-4.187-20.876 10.914.078Zm0 0"/><path fill="#201735" d="m278.172 358.824-15.395 16.125 6.727-20.797Zm0 0"/><path fill="#304b64" d="m292.457 352.375-4.168-13.04 10.766-.175Zm0 0"/><path fill="#94cad3" d="m290.555 323.34-2.266 15.996-9.473-3.613Zm0 0"/><path fill="#b9e4e9" d="m288.29 339.336 2.265-15.996 8.5 15.82Zm0 0"/><path fill="#514960" d="m169.3 307.219-12.152 7.793-7.867-15.414Zm0 0"/><path fill="#fdfdfd" d="m166.902 326.281-9.754-11.27 12.153-7.792Zm0 0"/><path fill="#777284" d="m169.3 307.219-20.019-7.621 15.59-14.309Zm0 0"/><path fill="#d4d3d9" d="m149.281 299.598.871-16.364 14.72 2.055Zm0 0"/><path fill="#dfdee3" d="m149.281 299.598-5.293-13.13 6.164-3.234Zm0 0"/><path fill="#fcfcfc" d="m143.988 286.469 5.293 13.129-14.949-8.79Zm0 0"/><path fill="#0098db" d="M84.047 224.07 46.87 187.86l51.465 17.605ZM372.39 279.477l2.36 18.007-13.426-13.816Zm0 0"/><path fill="#a5c0ca" d="m374.75 297.484-16.508.364 3.082-14.18Zm0 0"/><path fill="#0098db" d="m248.348 251.363 13.355-16.113 21.461 29.23Zm0 0"/><path fill="#283c56" d="m328.43 339.227 21.855-2.38-20.11 13.544Zm0 0"/><path fill="#3c5068" d="m366.863 335.797-16.578 1.05 5.52-15.898Zm0 0"/><path fill="#1e2844" d="m300.188 323.988 6.972-19.242 7.602 15.317Zm0 0"/><path fill="#1e2743" d="m307.16 304.746-6.973 19.242-6.609-15.152Zm0 0"/><path fill="#0098db" d="m357.629 263.281-15.555 25.817-4.863-20.086ZM342.074 289.098l15.555-25.817 3.695 20.387Zm0 0"/><path fill="#0098db" d="m361.324 283.668-3.695-20.387 14.762 16.196Zm0 0"/><path fill="#e7f6f7" d="m321.418 294.484-11.57-6.02 19.16-15.823Zm0 0"/><path fill="#bddbe0" d="m321.418 294.484 20.656-5.386-.879 11.73Zm0 0"/><path fill="#d4e7eb" d="m342.074 289.098-20.656 5.386 7.59-21.843Zm0 0"/><path fill="#6dc8d2" d="m309.848 288.465 11.57 6.02-14.258 10.261Zm0 0"/><path fill="#1d3450" d="m325.32 308.168-3.902-13.684 19.777 6.344Zm0 0"/><path fill="#3e667b" d="m309.848 288.465-14.184-.352 4.828-10.758Zm0 0"/><path fill="#298ea0" d="m295.664 288.113 14.184.352-2.688 16.281Zm0 0"/><path fill="#0098db" d="m284.04 155.266.94-49.32 35.618 20.456Zm0 0"/><path fill="#201533" d="m279.863 190.934 12.79-14.735-4.305 16.863ZM292.652 176.2l-12.789 14.734-7.133-21.301Zm0 0"/><path fill="#0098db" d="m280.285 195.918-.422-4.984 8.485 2.129Zm0 0"/><path fill="#0297d9" d="m255.332 196.594 24.531-5.66.422 4.984Zm0 0"/><path fill="#0098db" d="m255.332 196.594 24.953-.676 4.61 15.059Zm0 0"/><path fill="#211634" d="m292.652 176.2-19.922-6.567 11.31-14.367Zm0 0"/><path fill="#0098db" d="m292.652 176.2-8.613-20.934 46.594 26.804Zm0 0"/><path fill="#252643" d="M366.863 335.797 384 360.742l-25.09-14.93Zm0 0"/><path fill="#76a8b5" d="m308.25 348.238-.71 15-15.083-10.863Zm0 0"/><path fill="#cae4e8" d="m320.605 384.05 3-21.855 26.77 18.743Zm0 0"/><path fill="#1f1936" d="m278.809 346.473-.637 12.351-8.668-4.672Zm0 0"/><path fill="#9eb4be" d="m278.172 358.824.637-12.351 13.648 5.902Zm0 0"/><path fill="#232945" d="m278.809 346.473 9.48-7.137 4.168 13.039Zm0 0"/><path fill="#211735" d="m267.918 338.773 10.89 7.7-9.304 7.68Zm0 0"/><path fill="#515369" d="m278.809 346.473-10.891-7.7 10.898-3.05Zm0 0"/><path fill="#273e58" d="m288.29 339.336-9.481 7.137.007-10.75Zm0 0"/><path fill="#e2f3f5" d="m94.234 253.621-11.492 13.02-28.332-20.426Zm0 0"/><path fill="#201533" d="m122.809 328.613 20.379 8.805-9.286 9.957Zm0 0"/><path fill="#342b46" d="m139.113 314.473 4.075 22.945-20.38-8.805Zm0 0"/><path fill="#baccd4" d="m106.094 300.055-20.242 18.273.738-24.824Zm0 0"/><path fill="#1e3853" d="m100.3 281.098 5.794 18.957-19.504-6.551Zm0 0"/><path fill="#212541" d="m138.762 275.715-4.43 15.094-10.414-13.61Zm0 0"/><path fill="#f8fafb" d="m134.332 290.809 4.43-15.094 5.226 10.754Zm0 0"/><path fill="#22223f" d="m123.8 263.29 14.962 12.425-14.844 1.484Zm0 0"/><path fill="#f1f1f3" d="m143.988 286.469-5.226-10.754 11.39 7.52Zm0 0"/><path fill="#578092" d="m117.387 283.984-13.328-15.144 19.859 8.36Zm0 0"/><path fill="#223853" d="m18.86 312.29.421-19.118 15.215 14.508Zm0 0"/><path fill="#f6fbfc" d="m0 329.203 18.86-16.914-2.669 23.352Zm0 0"/><path fill="#1e3752" d="M18.86 312.29-.009 297.5l19.29-4.328Zm0 0"/><path fill="#475a70" d="m-.008 297.5 18.867 14.79L0 329.202Zm0 0"/><path fill="#cde7eb" d="m11.406 280.234-11.41-12.843 22.64 4.203Zm0 0"/><path fill="#f6fcfd" d="m-.004 267.39 6.266-9.242 16.375 13.446Zm0 0"/><path fill="#f6fcfd" d="m6.262 258.148-6.266 9.243L0 255.926Zm0 0"/><path fill="#c9e8ec" d="m40.95 274.656.843-12.39 18.527 5.207Zm0 0"/><path fill="#2b5971" d="m34.496 307.68-7.152-19.344 21.418 5.43Zm0 0"/><path fill="#1f334f" d="m27.344 288.336 7.152 19.344-15.215-14.508Zm0 0"/><path fill="#5c95a5" d="m27.344 288.336-15.938-8.102 11.23-8.64Zm0 0"/><path fill="#d3eff2" d="m11.406 280.234 15.938 8.102-8.063 4.836Zm0 0"/><path fill="#b2cad2" d="m48.762 293.766 22.133 4.62L57.5 311.81Zm0 0"/><path fill="#dce8eb" d="m44.77 312.594 3.992-18.828 8.738 18.043Zm0 0"/><path fill="#aaa7b3" d="m109.32 340.063-14.504 6.425 9.075-24.953Zm0 0"/><path fill="#3c4e66" d="m66.137 327.215-14.883-1.297 6.246-14.11Zm0 0"/><path fill="#44687d" d="m34.402 324.54 16.852 1.378-6.2 17.352Zm0 0"/><path fill="#cee2e6" d="m45.055 343.27 6.199-17.352 12.7 13.836Zm0 0"/><path fill="#b3c9d1" d="m51.254 325.918 14.883 1.297-2.184 12.539Zm0 0"/><path fill="#f8f8f9" d="m191.414 342.52 18.742 26.656-28.379-9.285Zm0 0"/><path fill="#728798" d="m16.191 335.64 18.211-11.1-.972 20.589Zm0 0"/><path fill="#dcf8fa" d="m33.848 383.973-4.762-28.86 35.988 13.715Zm0 0"/><path fill="#2e7e92" d="m33.848 383.973 31.226-15.145 4.617 15.184Zm0 0"/><path fill="#e0ebee" d="m64.234 344.445-.28-4.691 30.862 6.734Zm0 0"/><path fill="#4ed2dd" d="m65.074 368.828 17.918-11.808-.55 3.878Zm0 0"/><path fill="#a2e2e8" d="m65.074 368.828-.84-24.383 18.758 12.575Zm0 0"/><path fill="#1c6980" d="m65.074 368.828 26.93.785-22.313 14.399Zm0 0"/><path fill="#0098db" d="m128.41 207.555-2.336-13.645 31.578 2.195Zm0 0"/><path fill="#4b425a" d="m138.977 174.129-12.903 19.781.063-21.418Zm0 0"/><path fill="#261b38" d="m157.652 196.105-31.578-2.195 12.903-19.781Zm0 0"/><path fill="#0098db" d="m84.047 224.07 14.289-18.605 19.496 19.883Zm0 0"/><path fill="#0098db" d="m98.336 205.465 30.074 2.09-10.578 17.793Zm0 0"/><path fill="#b5ecf0" d="m115.648 250.738-21.414 2.883 12.586-15.223Zm0 0"/><path fill="#9beaf2" d="m118.52 245.465-2.872 5.273-8.828-12.34Zm0 0"/><path fill="#eff9fa" d="m144.688 250.281-29.04.457 2.872-5.273Zm0 0"/><path fill="#d9f2f5" d="m123.8 263.29-8.152-12.552 29.04-.457Zm0 0"/><path fill="#0198db" d="m144.688 250.281-26.168-4.816 12.027-9.371Zm0 0"/><path fill="#a8cfd7" d="m384 314.137-9.25-16.653 9.254-1.199Zm0 0"/><path fill="#0098db" d="m374.75 297.484-2.36-18.007 11.614 16.808Zm0 0"/><path fill="#88b7c2" d="m374.75 297.484-6.324 12.196-10.184-11.832Zm0 0"/><path fill="#f7fafb" d="m368.426 309.68 4.633 12.566-17.254-1.297Zm0 0"/><path fill="#254b64" d="m337.695 322.133 12.59 14.715-21.855 2.379Zm0 0"/><path fill="#82cad4" d="m350.285 336.848-12.59-14.715 18.11-1.184Zm0 0"/><path fill="#1d3550" d="m321.418 294.484 3.902 13.684-18.16-3.422Zm0 0"/><path fill="#1b536b" d="m307.16 304.746 18.16 3.422-10.558 11.894Zm0 0"/><path fill="#e6f7f9" d="m325.32 308.168 12.375 13.965-22.933-2.07Zm0 0"/><path fill="#1b425c" d="m295.664 288.113 11.496 16.633-13.582 4.09Zm0 0"/><path fill="#0098db" d="m271.074 141.785 13.906-35.84-.94 49.32Zm0 0"/><path fill="#201533" d="m272.73 169.633-1.656-27.848 12.965 13.48ZM255.332 196.594 242.496 173.8l37.367 17.133Zm0 0"/><path fill="#261b38" d="m255.41 154.219 17.32 15.414-30.234 4.168Zm0 0"/><path fill="#271d3a" d="m272.73 169.633-17.32-15.414 15.664-12.434Zm0 0"/><path fill="#eff9fa" d="m356.68 359.309-33.075 2.886 6.57-11.804Zm0 0"/><path fill="#6c98a7" d="m323.605 362.195 33.075-2.886-6.305 21.628Zm0 0"/><path fill="#f4f7f8" d="m351.969 346.852 4.71 12.457-26.503-8.918Zm0 0"/><path fill="#dcf5f7" d="m313.098 331.355 4.136 15.36-8.984 1.523Zm0 0"/><path fill="#203550" d="m317.234 346.715 11.196-7.488 1.746 11.164Zm0 0"/><path fill="#2a435d" d="m328.43 339.227-11.196 7.488-4.136-15.36Zm0 0"/><path fill="#f3fcfd" d="m307.54 363.238 16.065-1.043-3 21.856Zm0 0"/><path fill="#3d7b8e" d="m67.105 281.477 15.637-14.836 1.848 9.796Zm0 0"/><path fill="#397d90" d="m60.32 267.473 22.422-.832-15.637 14.836Zm0 0"/><path fill="#95cad3" d="m82.742 266.64-22.422.833-5.91-21.258Zm0 0"/><path fill="#7e8c9c" d="m149.281 299.598-23.953 7.992 9.004-16.781Zm0 0"/><path fill="#edf7f8" d="m125.328 307.59-19.234-7.535 28.238-9.246Zm0 0"/><path fill="#717587" d="m125.328 307.59 23.953-7.992-10.168 14.875Zm0 0"/><path fill="#fcfcfd" d="m103.89 321.535 21.438-13.945-2.52 21.023Zm0 0"/><path fill="#cccbd2" d="m125.328 307.59 13.785 6.883-16.304 14.14Zm0 0"/><path fill="#b8cad2" d="m106.094 300.055 19.234 7.535-21.437 13.945Zm0 0"/><path fill="#bcb9c2" d="m157.148 315.012-4.093 12.578-13.942-13.117Zm0 0"/><path fill="#423952" d="m153.055 327.59-9.868 9.828-4.074-22.945Zm0 0"/><path fill="#e0dee2" d="m153.055 327.59 4.093-12.578 9.754 11.27Zm0 0"/><path fill="#c6c4cb" d="m158.793 338.3-5.738-10.71 13.847-1.309Zm0 0"/><path fill="#a6a2ae" d="m153.055 327.59 5.738 10.71-15.606-.882Zm0 0"/><path fill="#f8fbfc" d="m85.852 318.328 20.242-18.273-2.203 21.48Zm0 0"/><path fill="#b8ccd3" d="m18.86 312.29 15.636-4.61-.094 16.86Zm0 0"/><path fill="#f9fdfd" d="m41.793 262.266-19.156 9.328-.098-27.293Zm0 0"/><path fill="#fefefe" d="M165.48 362.82 151.371 359l5.61-6.516Zm0 0"/><path fill="#fcfcfd" d="m151.371 359 14.11 3.82-23.16 11.489Zm0 0"/><path fill="#565d72" d="m131.402 353.66-5.476 17.895-12.414-10.328Zm0 0"/><path fill="#211e3b" d="m131.402 353.66 10.918 20.649-16.394-2.754Zm0 0"/><path fill="#b8b4be" d="m191.414 342.52 29.297 4.515-10.555 22.14Zm0 0"/><path fill="#2b203d" d="m201.71 304.96-16.843 13.474-15.566-11.215Zm0 0"/><path fill="#f6f5f6" d="m184.867 318.434 16.844-13.473-1.348 18.297Zm0 0"/><path fill="#fefefe" d="m184.867 318.434-17.965 7.847 2.399-19.062ZM165.48 362.82l9.833-16.793 6.464 13.864Zm0 0"/><path fill="#f4f4f5" d="m175.313 346.027 16.101-3.507-9.637 17.37Zm0 0"/><path fill="#fdfdfd" d="m175.313 346.027-9.833 16.793-8.5-10.336Zm0 0"/><path fill="#fbfefe" d="m45.027 349.73 19.207-5.285.84 24.383Zm0 0"/><path fill="#3adae5" d="m92.004 369.613-26.93-.785 17.367-7.93Zm0 0"/><path fill="#201533" d="m106.54 190.45-19.513-6.298 20.348-8.48Zm0 0"/><path fill="#0098db" d="m87.027 184.152 19.512 6.297-8.203 15.016Zm0 0"/><path fill="#b3cdd4" d="m82.742 266.64 21.317 2.2-19.47 7.598Zm0 0"/><path fill="#fdfefe" d="m104.059 268.84-21.317-2.2 11.492-13.019Zm0 0"/><path fill="#fdfefe" d="m115.648 250.738-11.59 18.102-9.824-15.219Zm0 0"/><path fill="#aad9e0" d="m384 314.137-15.574-4.457 6.324-12.196Zm0 0"/><path fill="#406b80" d="M368.426 309.68 384 314.137l-10.941 8.11Zm0 0"/><path fill="#202542" d="m325.32 308.168 26.559 4.082-14.184 9.883Zm0 0"/><path fill="#295a71" d="m358.242 297.848-6.363 14.402-10.684-11.422Zm0 0"/><path fill="#1d344f" d="m351.879 312.25-26.559-4.082 15.875-7.34Zm0 0"/><path fill="#f8fcfc" d="m337.695 322.133 14.184-9.883 3.926 8.7Zm0 0"/><path fill="#7291a0" d="m351.879 312.25 16.547-2.57-12.621 11.27Zm0 0"/><path fill="#d6ebee" d="m368.426 309.68-16.547 2.57 6.363-14.402Zm0 0"/><path fill="#2d677d" d="m350.375 380.938 6.305-21.63 27.3 24.676Zm0 0"/><path fill="#203a55" d="m356.68 359.309 27.32 1.433-.02 23.242Zm0 0"/><path fill="#89c3cd" d="m317.234 346.715 6.371 15.48-15.355-13.957Zm0 0"/><path fill="#a2d5dd" d="m308.25 348.238 15.355 13.957-16.066 1.043Zm0 0"/><path fill="#abd2d9" d="m323.605 362.195-6.37-15.48 12.94 3.676Zm0 0"/><path fill="#fafdfd" d="m34.496 307.68 14.266-13.914-3.992 18.828Zm0 0"/><path fill="#99c3cc" d="m40.95 274.656-18.313-3.062 19.156-9.328Zm0 0"/><path fill="#5db3c0" d="m22.637 271.594 18.312 3.062-13.605 13.68Zm0 0"/><path fill="#20576f" d="m27.344 288.336 13.605-13.68 7.813 19.11Zm0 0"/><path fill="#271c39" d="m133.902 347.375 9.286-9.957 13.792 15.066Zm0 0"/><path fill="#231836" d="m151.371 359-17.469-11.625 23.078 5.11Zm0 0"/><path fill="#babac2" d="m109.32 340.063 22.082 13.597-17.89 7.567Zm0 0"/><path fill="#f2f1f3" d="m220.71 347.035-29.296-4.515 28.227-10.883Zm0 0"/><path fill="#d3d1d7" d="m175.313 346.027-8.41-19.746 17.964-7.847Zm0 0"/><path fill="#2d233f" d="m166.902 326.281 8.41 19.746-16.519-7.726Zm0 0"/><path fill="#201533" d="m158.793 338.3 16.52 7.727-18.333 6.457Zm0 0"/><path fill="#385d73" d="m45.055 343.27 18.898-3.516.281 4.691Zm0 0"/><path fill="#ecf4f6" d="m45.027 349.73.028-6.46 19.18 1.175Zm0 0"/><path fill="#eff7f8" d="m45.055 343.27-.028 6.46-11.597-4.601Zm0 0"/><path fill="#0098db" d="m126.074 193.91 2.336 13.645-30.074-2.09Zm0 0"/><path fill="#0098db" d="m106.54 190.45 19.534 3.46-27.738 11.555Zm0 0"/><path fill="#423952" d="m126.074 193.91-18.699-18.238 18.762-3.18Zm0 0"/><path fill="#231936" d="m126.074 193.91-19.535-3.46.836-14.778Zm0 0"/><path fill="#fafdfe" d="m123.8 263.29-19.741 5.55 11.59-18.102Zm0 0"/><path fill="#bcc6ce" d="m34.496 307.68 10.274 4.914-10.368 11.945Zm0 0"/><path fill="#fcfdfd" d="m51.254 325.918-6.484-13.324 12.73-.785Zm0 0"/><path fill="#fcfdfd" d="m44.77 312.594 6.484 13.324-16.852-1.379Zm0 0"/><path fill="#251b38" d="m131.402 353.66 2.5-6.285L151.372 359Zm0 0"/><path fill="#f5f5f6" d="m131.402 353.66 19.97 5.34-9.052 15.309Zm0 0"/><path fill="#726b7e" d="m191.414 342.52-16.101 3.507 9.554-27.593Zm0 0"/><path fill="#211634" d="m109.32 340.063 24.582 7.312-2.5 6.285Zm0 0"/><path fill="#d8d6db" d="m200.363 323.258-8.949 19.262-6.547-24.086Zm0 0"/><path fill="#413851" d="m200.363 323.258 19.7-2.844-.422 11.223Zm0 0"/><path fill="#2a203c" d="m191.414 342.52 8.95-19.262 19.277 8.379Zm0 0"/></svg>