<svg xmlns="http://www.w3.org/2000/svg" width="512" height="512" viewBox="0 0 384 384"><path fill="#32232f" d="m189.309 198.59-21.602-19.883 39.492 3.637Zm0 0"/><path fill="#788a87" d="M333.969 144.309 313.672 99.07 384 87.7ZM303.39 45.79 251.27 0h54.457Zm0 0"/><path fill="#788a87" d="M313.672 99.07 303.39 45.79 384 87.7ZM269.168 89.602l44.504 9.468L291.91 126Zm0 0"/><path fill="#788a87" d="m384 170.086-50.031-25.777L384 87.699ZM118.602 89.734l33.601-46.984 26.613 37.21Zm0 0"/><path fill="#788a87" d="m226.629 46.45-74.426-3.7L180.547 0Zm0 0"/><path fill="#788a87" d="m152.203 42.75 74.426 3.7-47.813 33.51Zm0 0"/><path fill="#8a3a3f" d="m194.766 112.352-9.336 33.828-56.02-27.297Zm0 0"/><path fill="#a18754" d="m279.586 304.563-1.79-19.2 20.11 5.32Zm0 0"/><path fill="#d7cd7b" d="m309.625 366.54-14.543 17.37-4.777-7.7Zm0 0"/><path fill="#788a87" d="M0 154.387V77.652l58.68 35.02ZM108.215 0 80 51.652 0 0Zm0 0"/><path fill="#788a87" d="M58.68 112.672 0 77.652l80-26ZM118.602 89.734 58.68 112.672 80 51.652ZM303.39 45.79l10.282 53.28-44.504-9.468ZM152.203 42.75 80 51.652 108.215 0Zm0 0"/><path fill="#788a87" d="m180.547 0-28.344 42.75L108.215 0ZM152.203 42.75l-33.601 46.984L80 51.652ZM226.629 46.45 180.547 0h70.723Zm0 0"/><path fill="#788a87" d="M226.629 46.45 251.269 0l52.122 45.79Zm0 0"/><path fill="#a26a5e" d="m167.707 178.707-68.363-35.328 30.066-24.496Zm0 0"/><path fill="#964c4b" d="m185.43 146.18-17.723 32.527-38.297-59.824Zm0 0"/><path fill="#32232f" d="m258.2 129.941-7.868 24.59-22.281-22.687Zm0 0"/><path fill="#452732" d="m250.332 154.531-43.133 27.813 20.852-50.5Zm0 0"/><path fill="#572c36" d="m226.031 116.406 17 1.824-14.98 13.614Zm0 0"/><path fill="#788a87" d="m226.383 92.035 16.648 26.195-17-1.824Zm0 0"/><path fill="#492833" d="m243.031 118.23 15.168 11.711-30.148 1.903Zm0 0"/><path fill="#788a87" d="m243.031 118.23 23.031 3.243-7.863 8.468Zm0 0"/><path fill="#493b39" d="m295.082 383.91-31.719.055 26.942-7.754Zm0 0"/><path fill="#ece284" d="m265.61 331.824 5.992-15.922 5.605 19.395Zm0 0"/><path fill="#703e3a" d="M200.2 263.418h-22.137l6.496-31.465Zm0 0"/><path fill="#954040" d="m170.93 272.41 7.132-8.992 14.137 24.723Zm0 0"/><path fill="#81403d" d="m192.2 288.14-14.137-24.722h22.136Zm0 0"/><path fill="#788a87" d="m285.188 235.012-32.801 2.054 2.422-21.449ZM226.281 233.145l26.106 3.921-8.719 13.657Zm0 0"/><path fill="#788a87" d="m331.121 205.18 3.035 42.879-48.969-13.047ZM313.672 99.07l20.297 45.239L291.91 126Zm0 0"/><path fill="#788a87" d="m283.16 206.375 47.961-1.195-45.933 29.832Zm0 0"/><path fill="#b19f62" d="m309.625 366.54 8.316 17.374-22.859-.004Zm0 0"/><path fill="#3b2d33" d="m293.04 354.363 16.585 12.176-19.32 9.672Zm0 0"/><path fill="#788a87" d="M40.473 203.27 0 220.133v-65.746ZM58.715 162.766 0 154.386l58.68-41.714Zm0 0"/><path fill="#788a87" d="M58.715 162.766 40.473 203.27 0 154.387Zm0 0"/><path fill="#788a87" d="m98.363 141.578-39.648 21.188-.035-50.094ZM80 51.652l-80 26V0ZM303.39 45.79 305.728 0H384ZM384 87.7l-80.61-41.91L384 0ZM303.39 45.79l-34.222 43.812-42.54-43.153ZM194.766 112.352l31.617-20.317-.352 24.371Zm0 0"/><path fill="#788a87" d="m226.383 92.035-31.617 20.317-15.95-32.391ZM226.383 92.035l-47.567-12.074 47.813-33.512ZM269.168 89.602l-42.785 2.433.246-45.586Zm0 0"/><path fill="#788a87" d="m164.469 108.105 14.347-28.144 15.95 32.39ZM164.469 108.105l-45.867-18.37 60.214-9.774Zm0 0"/><path fill="#788a87" d="m118.602 89.734 45.867 18.371-35.059 10.778Zm0 0"/><path fill="#983c40" d="m164.469 108.105 30.297 4.247-65.356 6.53Zm0 0"/><path fill="#788a87" d="m99.344 143.379-40.63 19.387 39.65-21.188ZM98.363 141.578l20.239-51.844 10.808 29.149Zm0 0"/><path fill="#993d41" d="m98.363 141.578 31.047-22.695-30.066 24.496Zm0 0"/><path fill="#653038" d="m207.2 182.344-39.493-3.637 17.723-32.527Zm0 0"/><path fill="#6a3139" d="m228.05 131.844-20.85 50.5-21.77-36.164Zm0 0"/><path fill="#7b353c" d="m228.05 131.844-33.284-19.492 31.265 4.054Zm0 0"/><path fill="#788a87" d="m269.168 89.602-26.137 28.628-16.648-26.195ZM266.063 121.473l3.105-31.871L291.91 126ZM243.031 118.23l26.137-28.628-3.106 31.87Zm0 0"/><path fill="#ceb265" d="m145.8 384 10.583-18.11 22.715 18.102Zm0 0"/><path fill="#c2b973" d="m263.363 383.965 10.04-10.742 16.902 2.988Zm0 0"/><path fill="#c1b56f" d="m258.758 337.078-.98 16.934-15.317-16.864Zm0 0"/><path fill="#705b43" d="m288.637 320.504-9.051-15.942 15.906 8.465Zm0 0"/><path fill="#f1e181" d="m279.586 304.563 9.05 15.94-17.034-4.6Zm0 0"/><path fill="#f1d070" d="m271.602 315.902 17.035 4.602-11.43 14.793Zm0 0"/><path fill="#b3a062" d="m279.586 304.563-18.195-4.625 16.406-14.575Zm0 0"/><path fill="#987e50" d="m261.39 299.938-3.023-18.579 19.43 4.004Zm0 0"/><path fill="#ede486" d="m258.758 337.078-9.578-12.57 16.43 7.316Zm0 0"/><path fill="#f0e989" d="m249.18 324.508-6.72 12.64-11.917-10.14Zm0 0"/><path fill="#f0e888" d="m249.18 324.508 9.578 12.57-16.297.07Zm0 0"/><path fill="#dcd37e" d="m246.45 314.266-15.907 12.742-3.727-16.414Zm0 0"/><path fill="#f1e786" d="m246.45 314.266-19.634-3.672 6.676-14.25Zm0 0"/><path fill="#897c56" d="m246.45 314.266 2.73 10.242-18.637 2.5Zm0 0"/><path fill="#f7b553" d="m167.656 212.227-3.879 27.191-9.086-11.82Zm0 0"/><path fill="#f9bf5b" d="m163.777 239.418-18.168 6.945 9.082-18.765Zm0 0"/><path fill="#ba7948" d="m163.777 239.418 3.88-27.191 16.902 19.726Zm0 0"/><path fill="#a35643" d="m178.063 263.418-14.286-24 20.782-7.465Zm0 0"/><path fill="#cc864b" d="m163.777 239.418 14.286 24-7.133 8.992Zm0 0"/><path fill="#2e222f" d="m206.906 233.707.293-51.363 19.082 50.8Zm0 0"/><path fill="#2f222f" d="m207.2 182.344-.294 51.363-17.597-35.117Zm0 0"/><path fill="#f6d270" d="m145.61 246.363 1.769-20.336 7.312 1.57Zm0 0"/><path fill="#788a87" d="m147.379 226.027-1.77 20.336-12.41-10.675Zm0 0"/><path fill="#788a87" d="m114.465 221.145 32.914 4.882-14.18 9.66Zm0 0"/><path fill="#472c33" d="m212.941 286-20.742 2.14 8-24.722Zm0 0"/><path fill="#2f222f" d="M233.766 283.445 212.94 286l16.707-20.437Zm0 0"/><path fill="#32242f" d="m212.941 286 20.825-2.555-.274 12.899Zm0 0"/><path fill="#32242f" d="M226.816 310.594 212.941 286l20.551 10.344Zm0 0"/><path fill="#3f2e32" d="M202.445 302.305 212.941 286l13.875 24.594Zm0 0"/><path fill="#3f2a32" d="m212.941 286-10.496 16.305L192.2 288.14Zm0 0"/><path fill="#3a2631" d="M226.34 254.156 212.94 286 200.2 263.418Zm0 0"/><path fill="#30232f" d="m212.941 286 13.399-31.844 3.308 11.406Zm0 0"/><path fill="#ebe487" d="m229.648 265.563-3.308-11.407 17.328-3.433Zm0 0"/><path fill="#788a87" d="m226.34 254.156-.059-21.011 17.387 17.578Zm0 0"/><path fill="#432a32" d="m206.906 233.707-6.707 29.711-15.64-31.465Zm0 0"/><path fill="#332630" d="m206.906 233.707 19.434 20.45-26.14 9.261Zm0 0"/><path fill="#30232f" d="m226.34 254.156-19.434-20.449 19.375-.562Zm0 0"/><path fill="#788a87" d="m254.809 215.617-2.422 21.45-26.106-3.922ZM334.156 248.059l-19.886 28.718-6.348-11.273Zm0 0"/><path fill="#788a87" d="m334.156 248.059-26.234 17.445-22.735-30.492ZM334.156 248.059l-3.035-42.88L384 230.755Zm0 0"/><path fill="#c49a53" d="m233.766 283.445 19.066-20.386 5.535 18.3Zm0 0"/><path fill="#cfb063" d="m252.832 263.059-19.066 20.386-4.118-17.882Zm0 0"/><path fill="#f2eb8a" d="m252.832 263.059-23.184 2.503 14.02-14.84Zm0 0"/><path fill="#84623f" d="m368.824 330.484 15.164 1.649-20.379 16.676Zm0 0"/><path fill="#cfb568" d="m329.223 331.074-15.836 1.66 3.937-13.261Zm0 0"/><path fill="#788a87" d="m330.715 274.805 3.441-26.746 15.063 26.117Zm0 0"/><path fill="#788a87" d="m334.156 248.059-3.441 26.746-16.445 1.972Zm0 0"/><path fill="#f2ea89" d="m314.27 276.777-17.856-1.433 11.508-9.84Zm0 0"/><path fill="#788a87" d="m384 170.086-52.879 35.094 2.848-60.871ZM333.969 144.309l-2.848 60.87-24.437-33.331ZM331.121 205.18l-47.96 1.195 6.933-13.348Zm0 0"/><path fill="#788a87" d="m306.684 171.848 24.437 33.332-41.027-12.153Zm0 0"/><path fill="#778986" d="m293.434 174.871 13.25-3.023-16.59 21.18Zm0 0"/><path fill="#f6c461" d="m383.988 332.133.016 26.61-20.395-9.934Zm0 0"/><path fill="#ecce71" d="m346.598 341-11.27 18.61-4.726-11.887Zm0 0"/><path fill="#4d3934" d="m368.914 362.793 15.09-4.05-.027 25.28Zm0 0"/><path fill="#b19f62" d="m323.887 371.164-5.946 12.75-8.316-17.375Zm0 0"/><path fill="#bdaf6c" d="m295.055 347.227 2.382-16.73 15.95 2.237Zm0 0"/><path fill="#788a87" d="m74.336 197.063-33.863 6.207 18.242-40.504Zm0 0"/><path fill="#788a87" d="m74.336 197.063-4.129 22.964-29.734-16.757ZM70.207 220.027l-20.215 21.364-9.52-38.121Zm0 0"/><path fill="#788a87" d="m22.273 244.07 6.051-14.824 21.668 12.145Zm0 0"/><path fill="#788a87" d="m28.324 229.246 12.149-25.976 9.52 38.12Zm0 0"/><path fill="#788a87" d="M28.324 229.246 0 220.133l40.473-16.863Zm0 0"/><path fill="#e5ce75" d="m78.195 280.21 21.586-.112-11.937 13.488Zm0 0"/><path fill="#e7ae56" d="m71.23 300.113 6.965-19.902 9.649 13.375Zm0 0"/><path fill="#da9a4f" d="M88.406 311.605 71.23 300.113l16.614-6.527Zm0 0"/><path fill="#f2cb6a" d="m53.266 295.105 24.93-14.894-6.966 19.902Zm0 0"/><path fill="#efb95a" d="m.02 260.254 17.664 8.363L-.02 295.242Zm0 0"/><path fill="#75593e" d="m28.102 292.422 20.8-16.242 4.364 18.925Zm0 0"/><path fill="#a67d6a" d="m132.547 175.664-34.45-5.277 1.247-27.008Zm0 0"/><path fill="#788a87" d="m118.602 89.734-20.239 51.844-39.683-28.906ZM99.344 143.379l-16.426 28.184-24.203-8.797Zm0 0"/><path fill="#788a87" d="m82.918 171.563-8.582 25.5-15.621-34.297Zm0 0"/><path fill="#6c3139" d="m194.766 112.352 33.285 19.492-42.621 14.336Zm0 0"/><path fill="#5a493d" d="m99.145 379.918 23.863 4.102H95.859Zm0 0"/><path fill="#a3905b" d="m83.422 347.516 14.113 5.129-6.289 16.988Zm0 0"/><path fill="#afa368" d="m108.059 338.3 4.683 20.493-15.207-6.148Zm0 0"/><path fill="#52453d" d="m123.008 384.02 12.504-15.645L145.8 384Zm0 0"/><path fill="#4e3234" d="m202.445 302.305-9.078 8.472-1.168-22.636Zm0 0"/><path fill="#f1eb8a" d="m193.367 310.777 9.078-8.472-4.87 12.53Zm0 0"/><path fill="#ebe487" d="m230.543 327.008-15.793-10.153 12.066-6.261Zm0 0"/><path fill="#786548" d="m214.75 316.855-12.305-14.55 24.371 8.289Zm0 0"/><path fill="#f1ea89" d="m202.445 302.305 12.305 14.55-17.176-2.02Zm0 0"/><path fill="#d7cd7b" d="m91.246 369.633 7.899 10.285-3.286 4.102Zm0 0"/><path fill="#ede283" d="m14.285 335.992 13.113 13.32-12.421 14.07Zm0 0"/><path fill="#ddcd77" d="M14.977 363.383.004 384.02v-37.946Zm0 0"/><path fill="#745e44" d="m14.977 363.383 24.992 20.601-39.965.036Zm0 0"/><path fill="#50403a" d="m201.219 366.375 17.004 8.629-7.903 9.016Zm0 0"/><path fill="#ccbe72" d="m218.223 375.004-17.004-8.629 17.785-4.023Zm0 0"/><path fill="#3a2c32" d="m243.566 376.02-7.148-14.055 15.23 2.789Zm0 0"/><path fill="#362931" d="m240.883 353.992 16.894.02-6.129 10.742Zm0 0"/><path fill="#7f7150" d="m236.418 361.965 4.465-7.973 10.765 10.762Zm0 0"/><path fill="#443536" d="m257.777 354.012-16.894-.02 1.578-16.844Zm0 0"/><path fill="#dfd881" d="m260.652 372.371 12.75.852-10.039 10.742Zm0 0"/><path fill="#695b47" d="m257.777 354.012 11-11.637-2.523 13.563Zm0 0"/><path fill="#ece284" d="m258.758 337.078 10.02 5.297-11 11.637Zm0 0"/><path fill="#c2b26c" d="m268.777 342.375-3.168-10.55 11.598 3.472Zm0 0"/><path fill="#f0e989" d="m268.777 342.375-10.02-5.297 6.852-5.254Zm0 0"/><path fill="#daaf5c" d="m135.844 298.852 15.55 13.718-15.582.063Zm0 0"/><path fill="#906741" d="m161.043 298.043 32.324 12.734-8.902 7.957Zm0 0"/><path fill="#883a3e" d="m161.043 298.043 9.887-25.633 21.27 15.73Zm0 0"/><path fill="#a35043" d="m193.367 310.777-32.324-12.734 31.156-9.902Zm0 0"/><path fill="#f1e988" d="m151.395 312.57 1.3 14.703-16.882-14.64Zm0 0"/><path fill="#a1685d" d="m167.707 178.707-35.16-3.043-33.203-32.285Zm0 0"/><path fill="#502a34" d="m157.71 189.11-25.163-13.446 35.16 3.043Zm0 0"/><path fill="#788a87" d="m70.207 220.027 44.258 1.118-36.227 18.91Zm0 0"/><path fill="#655542" d="m271.602 315.902-10.211-15.964 18.195 4.625Zm0 0"/><path fill="#f1e786" d="m261.39 299.938 10.212 15.964-25.153-1.636Zm0 0"/><path fill="#f1e888" d="m249.18 324.508 22.422-8.606-5.993 15.922Zm0 0"/><path fill="#b3a567" d="m271.602 315.902-22.422 8.606-2.73-10.242Zm0 0"/><path fill="#cc7f4b" d="m152.863 272.258 10.914-32.84 7.153 32.992Zm0 0"/><path fill="#f9bd59" d="m163.777 239.418-10.914 32.84-7.254-25.895Zm0 0"/><path fill="#f8bb58" d="m152.863 272.258-13.277-6.617 6.023-19.278Zm0 0"/><path fill="#4b2f34" d="m184.559 231.953-16.903-19.726 21.653-13.637Zm0 0"/><path fill="#372730" d="m206.906 233.707-22.347-1.754 4.75-33.363Zm0 0"/><path fill="#342330" d="m169.836 196.219-11.649 1.207-.476-8.317Zm0 0"/><path fill="#bd8b48" d="m158.188 197.426 11.648-1.207-2.18 16.008Zm0 0"/><path fill="#31222f" d="m169.836 196.219-12.125-7.11 9.996-10.402Zm0 0"/><path fill="#30222f" d="m189.309 198.59-19.473-2.371-2.129-17.512Zm0 0"/><path fill="#4e3834" d="m167.656 212.227 2.18-16.008 19.473 2.37Zm0 0"/><path fill="#30222f" d="m158.188 197.426-16.75-2.031 16.273-6.286Zm0 0"/><path fill="#788a87" d="m141.438 195.395 16.75 2.03-18.141 8.696Zm0 0"/><path fill="#33232f" d="m141.438 195.395-8.891-19.73 25.164 13.444Zm0 0"/><path fill="#778986" d="m158.188 197.426-5.09 15.523-13.051-6.828Zm0 0"/><path fill="#a44c43" d="m153.098 212.95 5.09-15.524 9.468 14.8Zm0 0"/><path fill="#d1854c" d="m153.098 212.95 14.558-.723-12.965 15.37Zm0 0"/><path fill="#f9be5a" d="m147.379 226.027 5.719-13.078 1.593 14.649Zm0 0"/><path fill="#788a87" d="m114.465 221.145 27.894-4.95 5.02 9.832ZM153.098 212.95l-10.739 3.245-2.312-10.074Zm0 0"/><path fill="#788a87" d="m142.36 216.195 10.738-3.246-5.72 13.078Zm0 0"/><path fill="#d9c875" d="m261.39 299.938-17.413-5.09 14.39-13.489Zm0 0"/><path fill="#443233" d="m243.977 294.848-10.211-11.403 24.601-2.086Zm0 0"/><path fill="#473837" d="m233.766 283.445 10.21 11.403-10.484 1.496Zm0 0"/><path fill="#aa965e" d="m243.977 294.848 17.414 5.09-14.942 14.328Zm0 0"/><path fill="#6f5f47" d="m243.977 294.848 2.472 19.418-12.957-17.922Zm0 0"/><path fill="#2e222f" d="m250.75 195.586-33.09 2.437-10.46-15.68Zm0 0"/><path fill="#788a87" d="m254.809 215.617-37.149-17.594 33.09-2.437Zm0 0"/><path fill="#2e222f" d="m207.2 182.344 10.46 15.68 8.621 35.12Zm0 0"/><path fill="#788a87" d="m217.66 198.023 37.149 17.594-28.528 17.528ZM374.273 280.922l-13.222 2.617 3.941-17.3ZM374.273 280.922l9.727-7.969.004 24.277ZM384 272.953l-9.727 7.969-9.28-14.684Zm0 0"/><path fill="#788a87" d="M384 230.754v42.2l-19.008-6.716Zm0 0"/><path fill="#788a87" d="M334.156 248.059 384 230.754l-19.008 35.484ZM384 230.754l-52.879-25.574L384 170.086Zm0 0"/><path fill="#e2c86f" d="m265.648 271.066 30.766 4.278-18.617 10.02Zm0 0"/><path fill="#f0e787" d="m296.414 275.344-30.766-4.278-.488-13.324Zm0 0"/><path fill="#b99e5d" d="m258.367 281.36 7.281-10.294 12.149 14.297Zm0 0"/><path fill="#e0b962" d="m252.832 263.059 12.816 8.007-7.28 10.293Zm0 0"/><path fill="#f2eb8a" d="m265.648 271.066-12.816-8.007 12.328-5.317Zm0 0"/><path fill="#efdb7c" d="m277.797 285.363 18.617-10.02 1.492 15.34Zm0 0"/><path fill="#788a87" d="m296.414 275.344-11.226-40.332 22.734 30.492Zm0 0"/><path fill="#788a87" d="m285.188 235.012 11.226 40.332-31.254-17.602ZM252.387 237.066l5.207 11.782-13.926 1.875Zm0 0"/><path fill="#788a87" d="m257.594 248.848-4.762 14.21-9.164-12.335ZM252.832 263.059l4.762-14.211 7.566 8.894Zm0 0"/><path fill="#d49d4d" d="m368.824 330.484 15.172-14.945-.008 16.594Zm0 0"/><path fill="#d6aa59" d="m336.566 321.797-7.343 9.277-11.899-11.601Zm0 0"/><path fill="#efe282" d="m301.75 322.887 11.637 9.847-15.95-2.238Zm0 0"/><path fill="#c4b871" d="m313.387 332.734-11.637-9.847 15.574-3.414Zm0 0"/><path fill="#836f4c" d="m301.75 322.887-13.113-2.383 6.855-7.477Zm0 0"/><path fill="#ece183" d="m288.637 320.504 13.113 2.383-4.312 7.61Zm0 0"/><path fill="#dba24e" d="m346.133 294.328 13.996 3.434-9.055 13.77Zm0 0"/><path fill="#f3d776" d="m360.129 297.762-13.996-3.434 14.918-10.789Zm0 0"/><path fill="#788a86" d="m346.133 294.328-15.418-19.523 18.504-.63Zm0 0"/><path fill="#eee081" d="m330.715 274.805-17.543 11.136 1.098-9.164Zm0 0"/><path fill="#a28652" d="m313.172 285.941-16.758-10.597 17.856 1.433Zm0 0"/><path fill="#788a87" d="m298.332 152.016 35.637-7.707-27.285 27.539Zm0 0"/><path fill="#2e222f" d="m264.992 175.809-14.242 19.777-43.55-13.242Zm0 0"/><path fill="#b2874a" d="M352.07 358.125 346.598 341l17.011 7.809Zm0 0"/><path fill="#f1e483" d="m346.598 341 22.226-10.516-5.215 18.325Zm0 0"/><path fill="#75573c" d="M368.824 330.484 346.598 341l8.273-18.516Zm0 0"/><path fill="#c89b52" d="m352.07 358.125-16.742 1.484L346.598 341Zm0 0"/><path fill="#968557" d="m323.887 371.164 19.633 12.82-25.579-.07Zm0 0"/><path fill="#e0c871" d="m343.52 383.984-19.633-12.82 24.633 4.441Zm0 0"/><path fill="#efe383" d="m282.004 355.543 13.05-8.316-2.015 7.136Zm0 0"/><path fill="#856f4b" d="m282.004 355.543 11.035-1.18-2.734 21.848Zm0 0"/><path fill="#2e222f" d="m273.402 373.223 8.602-17.68 8.3 20.668Zm0 0"/><path fill="#788a87" d="m49.992 241.39 28.246-1.335-12.863 17.957Zm0 0"/><path fill="#788a87" d="m78.238 240.055-28.246 1.336 20.215-21.364ZM0 220.133l28.324 9.113-6.05 14.824ZM0 220.133l22.273 23.937L.02 260.254ZM114.465 221.145l-.684 26.843-35.543-7.933ZM113.781 247.988l.684-26.843 18.734 14.542Zm0 0"/><path fill="#c2b771" d="m128.18 337.488 3.437 3.047-11.043 6.715Zm0 0"/><path fill="#3b2f34" d="m120.23 327.664 7.95 9.824-7.606 9.762Zm0 0"/><path fill="#ac7f48" d="m135.844 298.852-16.934-13.766 10.094-2.035Zm0 0"/><path fill="#422f32" d="m125.16 276.082 14.426-10.441-10.582 17.41Zm0 0"/><path fill="#c59f58" d="m118.91 285.086 16.934 13.766-22.926-1.672Zm0 0"/><path fill="#baa665" d="m118.91 285.086-19.129-4.988 11.23-9.754Zm0 0"/><path fill="#3a2b31" d="m99.781 280.098 19.13 4.988-5.993 12.094Zm0 0"/><path fill="#c5b971" d="m-.02 295.242 14.305 40.75L.004 346.074Zm0 0"/><path fill="#684f3c" d="m17.684 268.617 10.418 23.805-28.122 2.82Zm0 0"/><path fill="#f7cd6a" d="m78.195 280.21-29.293-4.03 16.473-18.168Zm0 0"/><path fill="#bc8f4d" d="m48.902 276.18 29.293 4.03-24.93 14.895Zm0 0"/><path fill="#f4d977" d="m39.105 256.332 10.887-14.941 15.383 16.62Zm0 0"/><path fill="#973c40" d="m90.281 186.234-7.363-14.672 15.18-1.175Zm0 0"/><path fill="#788a87" d="m74.336 197.063 15.945-10.829 24.11 19.98ZM82.918 171.563l7.363 14.671-15.945 10.828Zm0 0"/><path fill="#9b4a49" d="m82.918 171.563 16.426-28.184-1.246 27.008Zm0 0"/><path fill="#5a4d41" d="m99.145 379.918 18.753-9.492 5.11 13.594Zm0 0"/><path fill="#908358" d="m74.953 336.094 18.613.648-10.144 10.774Zm0 0"/><path fill="#eade82" d="m93.566 336.742 3.97 15.903-14.114-5.13Zm0 0"/><path fill="#6c5e48" d="m93.566 336.742-7.632-14.633 18.437.086Zm0 0"/><path fill="#ece385" d="m85.934 322.11 7.632 14.632-18.613-.648Zm0 0"/><path fill="#f3db79" d="m88.406 311.605-14.101 4.383-3.075-15.875Zm0 0"/><path fill="#aa9a61" d="m74.305 315.988 14.101-4.383-2.472 10.504Zm0 0"/><path fill="#f3d776" d="m74.305 315.988-22.864.075 19.79-15.95Zm0 0"/><path fill="#56473d" d="m74.305 315.988 11.629 6.121-10.98 13.985Zm0 0"/><path fill="#7d6848" d="m145.8 384-10.288-15.625 20.87-2.484Zm0 0"/><path fill="#7f704f" d="m117.898 370.426 17.614-2.051-12.504 15.645Zm0 0"/><path fill="#c1a35d" d="m177.438 363.18 1.66 20.812-22.715-18.101Zm0 0"/><path fill="#7c6b4c" d="m179.098 383.992 22.12-17.617 9.102 17.645Zm0 0"/><path fill="#beaa66" d="m201.219 366.375-22.121 17.617-1.66-20.812Zm0 0"/><path fill="#4f413c" d="m66.734 383.992 24.512-14.36 4.613 14.388Zm0 0"/><path fill="#6a5c47" d="m99.145 379.918-7.899-10.285 26.652.793Zm0 0"/><path fill="#d4c877" d="m91.246 369.633 21.496-10.84 5.156 11.633Zm0 0"/><path fill="#55463d" d="m112.742 358.793-21.496 10.84 6.29-16.988Zm0 0"/><path fill="#91855b" d="m35.867 330.266-7.355-16.817 22.93 2.613Zm0 0"/><path fill="#eee384" d="m14.285 335.992.692 27.39L.004 346.075Zm0 0"/><path fill="#b7a767" d="m37.645 357.535 2.324 26.45-24.992-20.602Zm0 0"/><path fill="#f0e787" d="m27.398 349.313 10.247 8.222-22.668 5.848Zm0 0"/><path fill="#ddce79" d="m37.645 357.535 5.468-12.3 12.29 20.714Zm0 0"/><path fill="#cec275" d="m43.113 345.234-5.468 12.301-10.247-8.223Zm0 0"/><path fill="#b09559" d="m55.402 365.95 15.637-1.981-4.305 20.023Zm0 0"/><path fill="#e6d57b" d="m62.23 347.445 8.81 16.524-15.638 1.98Zm0 0"/><path fill="#57483e" d="m243.566 376.02 19.797 7.945-22.414.035Zm0 0"/><path fill="#b6aa6a" d="m260.652 372.371-17.086 3.649 8.082-11.266Zm0 0"/><path fill="#776b4e" d="m243.566 376.02 17.086-3.649 2.711 11.594Zm0 0"/><path fill="#3c2f34" d="m210.32 384.02 7.903-9.016L240.949 384Zm0 0"/><path fill="#5d5143" d="m218.223 375.004 25.343 1.016-2.617 7.98Zm0 0"/><path fill="#e4d87f" d="m236.418 361.965-18.195 13.039.78-12.652Zm0 0"/><path fill="#695c48" d="m243.566 376.02-25.343-1.016 18.195-13.04Zm0 0"/><path fill="#776a4e" d="m240.883 353.992-18.324-7.238 19.902-9.606Zm0 0"/><path fill="#ebe386" d="m242.46 337.148-19.901 9.606 7.984-19.746Zm0 0"/><path fill="#ccc074" d="m222.559 346.754 18.324 7.238-4.465 7.973Zm0 0"/><path fill="#bcb06d" d="m222.559 346.754 13.859 15.21-17.414.388Zm0 0"/><path fill="#d3c575" d="m262.11 366.445-1.458 5.926-9.004-7.617Zm0 0"/><path fill="#d5c877" d="m257.777 354.012 4.332 12.433-10.46-1.691Zm0 0"/><path fill="#58493f" d="m262.11 366.445-4.333-12.433 8.477 1.925Zm0 0"/><path fill="#dcd27e" d="m260.652 372.371 1.457-5.926 11.293 6.778Zm0 0"/><path fill="#473837" d="m282.004 355.543-19.895 10.902 4.145-10.507Zm0 0"/><path fill="#eee586" d="m262.11 366.445 19.894-10.902-8.602 17.68Zm0 0"/><path fill="#cfac5f" d="m295.055 347.227-17.848-11.93 20.23-4.8Zm0 0"/><path fill="#ecd174" d="m277.207 335.297 11.43-14.793 8.8 9.992Zm0 0"/><path fill="#f4cf6e" d="m159.992 314.805 1.051-16.762 23.422 20.691Zm0 0"/><path fill="#eac56e" d="m161.043 298.043-1.05 16.762-8.598-2.235Zm0 0"/><path fill="#e5c46a" d="m152.695 327.273 7.297-12.468 24.473 3.93Zm0 0"/><path fill="#f1e786" d="m159.992 314.805-7.297 12.468-1.3-14.703Zm0 0"/><path fill="#da934e" d="m161.043 298.043-8.18-25.785 18.067.152Zm0 0"/><path fill="#e7a451" d="m161.043 298.043-15.23-7.711 7.05-18.074Zm0 0"/><path fill="#a57d47" d="m135.844 298.852 25.199-.809-9.648 14.527Zm0 0"/><path fill="#f2b656" d="m145.813 290.332 15.23 7.711-25.2.809Zm0 0"/><path fill="#788a87" d="m114.465 221.145-40.13-24.083 40.056 9.153Zm0 0"/><path fill="#788a87" d="m74.336 197.063 40.129 24.082-44.258-1.118ZM374.273 280.922l.317 15.508-13.54-12.89Zm0 0"/><path fill="#eedc80" d="m374.59 296.43-14.461 1.332.922-14.223Zm0 0"/><path fill="#788a87" d="m257.594 248.848 27.594-13.836-20.028 22.73Zm0 0"/><path fill="#788a87" d="m285.188 235.012-27.594 13.836-5.207-11.782Zm0 0"/><path fill="#9a7848" d="M329.223 331.074 346.598 341l-15.996 6.723Zm0 0"/><path fill="#453737" d="m301.75 322.887 5.25-18.219 10.324 14.805Zm0 0"/><path fill="#473736" d="m307 304.668-5.25 18.219-6.258-9.86Zm0 0"/><path fill="#788a87" d="m346.133 294.328 3.086-20.152 11.832 9.363Zm0 0"/><path fill="#788a87" d="m361.05 283.54-11.831-9.364 15.773-7.938Zm0 0"/><path fill="#788a87" d="m349.219 274.176-15.063-26.117 30.836 18.18Zm0 0"/><path fill="#edc86a" d="m319.992 294.367-6.82-8.426 17.543-11.136Zm0 0"/><path fill="#c4954e" d="m319.992 294.367 26.14-.039 4.942 17.203Zm0 0"/><path fill="#f4d675" d="m346.133 294.328-26.14.04 10.722-19.563Zm0 0"/><path fill="#5a4439" d="m325.445 307.332-5.453-12.965 31.082 17.164Zm0 0"/><path fill="#efdb7b" d="m313.172 285.941-15.266 4.743-1.492-15.34Zm0 0"/><path fill="#ecdc7f" d="m297.906 290.684 15.266-4.743 6.82 8.426Zm0 0"/><path fill="#778986" d="m266.063 121.473 3.542 16.992-11.406-8.524Zm0 0"/><path fill="#788a87" d="M281.172 151.066 291.91 126l6.422 26.016ZM291.91 126l-22.305 12.465-3.543-16.992Zm0 0"/><path fill="#788a87" d="M298.332 152.016 291.91 126l42.059 18.309Zm0 0"/><path fill="#2e222f" d="m281.203 191.273-10.176 4.336-6.035-19.8ZM281.203 191.273l12.23-16.402-3.34 18.156Zm0 0"/><path fill="#2e222f" d="m293.434 174.871-12.23 16.402-16.212-15.464Zm0 0"/><path fill="#788a87" d="m283.16 206.375-1.957-15.102 8.89 1.754ZM271.027 195.61l10.176-4.337 1.957 15.102Zm0 0"/><path fill="#788a87" d="m283.16 206.375 2.027 28.637-30.378-19.395Zm0 0"/><path fill="#33232f" d="m250.332 154.531 14.66 21.278-57.793 6.535Zm0 0"/><path fill="#30222f" d="m269.605 138.465-19.273 16.066 7.867-24.59Zm0 0"/><path fill="#2e222f" d="m288.621 163.434 4.813 11.437-28.442.938ZM271.676 156.773l16.945 6.66-23.629 12.376Zm0 0"/><path fill="#2e222f" d="m288.621 163.434-16.945-6.66 9.496-5.708Zm0 0"/><path fill="#788a87" d="m288.621 163.434-7.45-12.368 17.161.95ZM293.434 174.871l-4.813-11.437 18.063 8.414Zm0 0"/><path fill="#788a87" d="m288.621 163.434 9.711-11.418 8.352 19.832Zm0 0"/><path fill="#d9b663" d="m368.914 362.793-5.305-13.984 20.395 9.933Zm0 0"/><path fill="#f2d978" d="m363.61 348.809 5.304 13.984-16.844-4.668Zm0 0"/><path fill="#e6db81" d="m295.055 347.227 14.57 19.312-16.586-12.176Zm0 0"/><path fill="#7d6c4d" d="m268.777 342.375 13.227 13.168-15.75.394Zm0 0"/><path fill="#f0e382" d="m282.004 355.543-13.227-13.168 26.278 4.852Zm0 0"/><path fill="#9a7a4a" d="m268.777 342.375 8.43-7.078 17.848 11.93Zm0 0"/><path fill="#7a6244" d="m88.637 265.074 11.144 15.024-21.586.113Zm0 0"/><path fill="#f2ea89" d="m113.781 247.988-25.144 17.086-10.399-25.02Zm0 0"/><path fill="#a89c65" d="m128.18 337.488 5.722-4.996-2.285 8.043Zm0 0"/><path fill="#8c8058" d="m133.902 332.492-13.672-4.828 15.582-15.031Zm0 0"/><path fill="#afa569" d="m120.23 327.664 13.672 4.828-5.722 4.996Zm0 0"/><path fill="#ddb05d" d="m103.95 300.898-4.169-20.8 13.137 17.082Zm0 0"/><path fill="#d5a353" d="m103.95 300.898-15.544 10.707-.562-18.02Zm0 0"/><path fill="#584338" d="m99.781 280.098 4.168 20.8-16.105-7.312Zm0 0"/><path fill="#513935" d="m137.191 283.738-1.347 15.114-6.84-15.801Zm0 0"/><path fill="#f2c868" d="m135.844 298.852 1.347-15.114 8.621 6.594Zm0 0"/><path fill="#3e2d32" d="m139.586 265.64-2.395 18.098-8.187-.687Zm0 0"/><path fill="#f7c461" d="m137.191 283.738 2.395-18.097 13.277 6.617Zm0 0"/><path fill="#f4bb5b" d="m145.813 290.332-8.622-6.594 15.672-11.48Zm0 0"/><path fill="#4f3b36" d="m118.91 285.086 6.25-9.004 3.844 6.969Zm0 0"/><path fill="#9e814f" d="m125.16 276.082-6.25 9.004-7.898-14.742Zm0 0"/><path fill="#ded57f" d="M14.285 335.992-.02 295.242l28.532 18.207Zm0 0"/><path fill="#ecd97b" d="M28.512 313.45-.02 295.241l28.122-2.82Zm0 0"/><path fill="#f2e988" d="m17.684 268.617 4.59-24.547 16.831 12.262Zm0 0"/><path fill="#f2e685" d="m22.273 244.07-4.59 24.547L.02 260.254Zm0 0"/><path fill="#f2e785" d="m48.902 276.18-9.797-19.848 26.27 1.68Zm0 0"/><path fill="#403032" d="m28.102 292.422 5.66-20.152 15.14 3.91Zm0 0"/><path fill="#f1e281" d="m33.762 272.27-16.078-3.653 21.421-12.285Zm0 0"/><path fill="#7d6545" d="m17.684 268.617 16.078 3.653-5.66 20.152Zm0 0"/><path fill="#a7814b" d="m51.441 316.063 1.825-20.958 17.964 5.008Zm0 0"/><path fill="#95895c" d="m108.059 338.3-14.493-1.558 10.805-14.547Zm0 0"/><path fill="#92875c" d="m120.23 327.664-12.171 10.637-3.688-16.106Zm0 0"/><path fill="#efe788" d="m93.566 336.742 14.493 1.559-10.524 14.344Zm0 0"/><path fill="#3b2e34" d="m108.059 338.3 12.171-10.636.344 19.586Zm0 0"/><path fill="#ebe486" d="m51.441 316.063 3.407 21.347-18.98-7.144Zm0 0"/><path fill="#635746" d="m54.848 337.41-3.407-21.348 23.512 20.032Zm0 0"/><path fill="#8c7a52" d="m51.441 316.063 22.864-.075.648 20.106Zm0 0"/><path fill="#edde80" d="m135.512 368.375 14.949-9.875 5.922 7.39Zm0 0"/><path fill="#ede182" d="m183.379 349.078 17.84 17.297-23.781-3.195Zm0 0"/><path fill="#9a9060" d="m14.285 335.992 21.582-5.726-8.469 19.046Zm0 0"/><path fill="#eee788" d="m35.867 330.266-21.582 5.726 14.227-22.543Zm0 0"/><path fill="#6e5d46" d="m39.969 383.984-2.324-26.449 17.757 8.414Zm0 0"/><path fill="#856c48" d="m39.969 383.984 15.433-18.035 11.332 18.043Zm0 0"/><path fill="#3a2d33" d="m35.867 330.266 7.246 14.968-15.715 4.079Zm0 0"/><path fill="#a08f5c" d="m62.23 347.445-7.382-10.035 20.105-1.316Zm0 0"/><path fill="#f1e888" d="m62.23 347.445 12.723-11.351 8.469 11.422Zm0 0"/><path fill="#b9a867" d="m71.04 363.969-8.81-16.524 21.192.07Zm0 0"/><path fill="#eee383" d="m71.04 363.969 12.382-16.453 7.824 22.117Zm0 0"/><path fill="#816f4e" d="m71.04 363.969 20.206 5.664-24.512 14.36Zm0 0"/><path fill="#788a87" d="m140.047 206.121 2.312 10.074-27.894 4.95Zm0 0"/><path fill="#788a87" d="m114.39 206.215 25.657-.094-25.582 15.024Zm0 0"/><path fill="#d69f50" d="m126.824 259.797 12.762 5.844-14.426 10.441Zm0 0"/><path fill="#788a87" d="m145.61 246.363-31.829 1.625 19.418-12.3Zm0 0"/><path fill="#f2e988" d="m126.824 259.797 18.785-13.434-6.023 19.278Zm0 0"/><path fill="#f1ea89" d="m145.61 246.363-18.786 13.434-13.043-11.809Zm0 0"/><path fill="#f9be5a" d="m383.996 315.54-9.406-19.11 9.414.8Zm0 0"/><path fill="#788a87" d="m374.59 296.43-.317-15.508 9.73 16.308Zm0 0"/><path fill="#f9be5a" d="m374.59 296.43-6.164 16.347-8.297-15.015Zm0 0"/><path fill="#c99b51" d="m368.426 312.777.398 17.707-13.953-8Zm0 0"/><path fill="#d5a04f" d="M336.566 321.797 346.598 341l-17.375-9.926Zm0 0"/><path fill="#c1924c" d="m346.598 341-10.032-19.203 18.305.687Zm0 0"/><path fill="#3b2d33" d="M325.445 307.332 307 304.668l12.992-10.3Zm0 0"/><path fill="#b19d61" d="m307 304.668 18.445 2.664-8.12 12.14Zm0 0"/><path fill="#f1e685" d="m325.445 307.332 11.121 14.465-19.242-2.324Zm0 0"/><path fill="#dacd79" d="m307 304.668-9.094-13.984 22.086 3.683Zm0 0"/><path fill="#a58651" d="m279.586 304.563 27.414.105-11.508 8.36Zm0 0"/><path fill="#69533f" d="M297.906 290.684 307 304.668l-27.414-.106Zm0 0"/><path fill="#788a87" d="m291.91 126-10.738 25.066-11.567-12.601Zm0 0"/><path fill="#2e222f" d="m264.992 175.809 6.035 19.8-20.277-.023Zm0 0"/><path fill="#788a87" d="m250.75 195.586 20.277.023-16.218 20.008Zm0 0"/><path fill="#788a87" d="m271.027 195.61 12.133 10.765-28.351 9.242Zm0 0"/><path fill="#2e222f" d="m250.332 154.531 21.344 2.242-6.684 19.036Zm0 0"/><path fill="#2f222f" d="m271.676 156.773-21.344-2.242 19.273-16.066Zm0 0"/><path fill="#2e222f" d="m281.172 151.066-9.496 5.707-2.07-18.308Zm0 0"/><path fill="#6f5a42" d="m348.52 375.605-24.633-4.44 11.441-11.556Zm0 0"/><path fill="#a3834e" d="m352.07 358.125-3.55 17.48-13.192-15.996Zm0 0"/><path fill="#654c3a" d="m343.52 383.984 5-8.379 35.457 8.418Zm0 0"/><path fill="#95794d" d="m313.387 332.734 15.836-1.66 1.379 16.649Zm0 0"/><path fill="#f4d472" d="m65.375 258.012 23.262 7.062-10.442 15.137Zm0 0"/><path fill="#f2e785" d="m88.637 265.074-23.262-7.062 12.863-17.957Zm0 0"/><path fill="#e1be67" d="m119.656 311.672 16.188-12.82-.031 13.78Zm0 0"/><path fill="#f0e888" d="m120.23 327.664-.574-15.992 16.156.96Zm0 0"/><path fill="#f0e989" d="m104.371 322.195 15.285-10.523.574 15.992Zm0 0"/><path fill="#8d7850" d="m103.95 300.898 15.706 10.774-15.285 10.523Zm0 0"/><path fill="#ccbe72" d="m152.695 327.273-18.793 5.22 1.91-19.86Zm0 0"/><path fill="#8c7a53" d="m133.902 332.492 18.793-5.219-2.363 13.399Zm0 0"/><path fill="#e8da7e" d="m88.406 311.605 15.543-10.707.422 21.297Zm0 0"/><path fill="#e9de82" d="m88.406 311.605 15.965 10.59-18.437-.086Zm0 0"/><path fill="#788a87" d="M39.105 256.332 22.273 244.07l27.72-2.68Zm0 0"/><path fill="#f1e686" d="m156.383 365.89-5.922-7.39 14.832-9.242Zm0 0"/><path fill="#f1e989" d="m133.902 332.492 16.43 8.18-18.715-.137Zm0 0"/><path fill="#ece284" d="m124.375 357.988 11.137 10.387-17.614 2.05Zm0 0"/><path fill="#e7dd82" d="m112.742 358.793 11.633-.805-6.477 12.438Zm0 0"/><path fill="#f0e989" d="m183.379 349.078 18.016 6.5-.176 10.797Zm0 0"/><path fill="#ece486" d="m201.219 366.375.176-10.797 17.609 6.774Zm0 0"/><path fill="#d4c877" d="m201.395 355.578 21.164-8.824-3.555 15.598Zm0 0"/><path fill="#f1ea89" d="m184.465 318.734 8.902-7.957 4.207 4.059Zm0 0"/><path fill="#eee182" d="m156.383 365.89 8.91-16.632 12.144 13.922Zm0 0"/><path fill="#f0e988" d="m165.293 349.258 18.086-.18-5.941 14.102Zm0 0"/><path fill="#eddf81" d="m43.113 345.234 19.117 2.211-6.828 18.504Zm0 0"/><path fill="#5b2d36" d="m122.164 191.55-31.883-5.316 7.817-15.847Zm0 0"/><path fill="#788a87" d="m90.281 186.234 31.883 5.317-7.773 14.664Zm0 0"/><path fill="#b59152" d="m99.781 280.098-11.144-15.024 22.375 5.27Zm0 0"/><path fill="#f9bb56" d="m368.426 312.777 6.164-16.347 9.406 19.11Zm0 0"/><path fill="#cb9a4f" d="m368.426 312.777 15.57 2.762-15.172 14.945Zm0 0"/><path fill="#896640" d="m325.445 307.332 25.63 4.2-14.509 10.265Zm0 0"/><path fill="#f3d16f" d="m336.566 321.797 14.508-10.266 3.797 10.953Zm0 0"/><path fill="#eed475" d="m351.074 311.531 17.352 1.246-13.555 9.707Zm0 0"/><path fill="#f1b858" d="m368.426 312.777-17.352-1.246 9.055-13.77Zm0 0"/><path fill="#e9cb6f" d="m368.914 362.793-20.394 12.812 3.55-17.48Zm0 0"/><path fill="#564037" d="m348.52 375.605 20.394-12.812 15.063 21.23Zm0 0"/><path fill="#eee485" d="m313.387 332.734 7.457 23.29-25.79-8.797Zm0 0"/><path fill="#c6b46b" d="m323.887 371.164-3.043-15.14 14.484 3.585Zm0 0"/><path fill="#a18d59" d="m295.055 347.227 25.789 8.796-11.219 10.516Zm0 0"/><path fill="#e0d37c" d="m320.844 356.023 3.043 15.141-14.262-4.625Zm0 0"/><path fill="#edd97a" d="m335.328 359.61-14.484-3.587 9.758-8.3Zm0 0"/><path fill="#655543" d="m320.844 356.023-7.457-23.289 17.215 14.989Zm0 0"/><path fill="#f0e585" d="m119.656 311.672-15.707-10.774 8.969-3.718Zm0 0"/><path fill="#f1e484" d="m135.844 298.852-16.188 12.82-6.738-14.492Zm0 0"/><path fill="#f2e281" d="m28.512 313.45-.41-21.028 25.164 2.683Zm0 0"/><path fill="#b39759" d="m28.512 313.45 24.754-18.345-1.825 20.957Zm0 0"/><path fill="#745e44" d="m33.762 272.27 5.343-15.938 9.797 19.848Zm0 0"/><path fill="#53423a" d="m150.46 358.5-.128-17.828 14.961 8.586Zm0 0"/><path fill="#e1d880" d="m120.574 347.25 3.801 10.738-11.633.805Zm0 0"/><path fill="#dbd17c" d="m108.059 338.3 12.515 8.95-7.832 11.543Zm0 0"/><path fill="#f0ea89" d="m222.559 346.754-30.055-8.957 38.039-10.79Zm0 0"/><path fill="#867a55" d="m201.395 355.578-8.891-17.781 30.055 8.957Zm0 0"/><path fill="#ece183" d="m192.504 337.797 8.89 17.781-18.015-6.5Zm0 0"/><path fill="#cab96e" d="m172.004 334.262-19.309-6.989 31.77-8.539Zm0 0"/><path fill="#d0c072" d="m165.293 349.258 6.71-14.996 11.376 14.816Zm0 0"/><path fill="#dccc78" d="m152.695 327.273 19.309 6.989-21.672 6.41Zm0 0"/><path fill="#83714d" d="m150.332 340.672 21.672-6.41-6.711 14.996Zm0 0"/><path fill="#584b41" d="m54.848 337.41-11.735 7.824-7.246-14.968Zm0 0"/><path fill="#5c4b3e" d="m54.848 337.41 7.382 10.035-19.117-2.21Zm0 0"/><path fill="#788a87" d="m122.164 191.55 17.883 14.571-25.656.094Zm0 0"/><path fill="#788a87" d="m140.047 206.121-17.883-14.57 19.274 3.844Zm0 0"/><path fill="#31222f" d="m141.438 195.395-19.274-3.844 10.383-15.887Zm0 0"/><path fill="#75343b" d="m122.164 191.55-24.066-21.163 34.449 5.277Zm0 0"/><path fill="#ba9958" d="m111.012 270.344 15.812-10.547-1.664 16.285Zm0 0"/><path fill="#f3de7c" d="m126.824 259.797-15.812 10.547 2.77-22.356Zm0 0"/><path fill="#f4d976" d="m111.012 270.344-22.375-5.27 25.144-17.086Zm0 0"/><path fill="#f0e787" d="m124.375 357.988 7.922-5.968 3.215 16.355Zm0 0"/><path fill="#413134" d="m132.297 352.02 18.035-11.348.129 17.828Zm0 0"/><path fill="#b0a064" d="m132.297 352.02 18.164 6.48-14.95 9.875Zm0 0"/><path fill="#6b5a44" d="m172.004 334.262 20.5 3.535-9.125 11.281Zm0 0"/><path fill="#dfce78" d="m192.504 337.797-20.5-3.535 12.46-15.528Zm0 0"/><path fill="#96895b" d="m120.574 347.25 11.723 4.77-7.922 5.968Zm0 0"/><path fill="#c2b771" d="m132.297 352.02-11.723-4.77 11.043-6.715Zm0 0"/><path fill="#ede486" d="m150.332 340.672-18.035 11.348-.68-11.485Zm0 0"/><path fill="#857652" d="m198.496 324.324-14.031-5.59 13.11-3.898Zm0 0"/><path fill="#e3d981" d="m198.496 324.324-5.992 13.473-8.04-19.063Zm0 0"/><path fill="#ccc074" d="m214.75 316.855-16.254 7.47-.922-9.49Zm0 0"/><path fill="#b5ac6c" d="m198.496 324.324 16.254-7.469 15.793 10.153Zm0 0"/><path fill="#75684d" d="m192.504 337.797 5.992-13.473 32.047 2.684Zm0 0"/></svg>