<svg xmlns="http://www.w3.org/2000/svg" width="512" height="512" viewBox="0 0 384 384"><path fill="#daf2e9" d="m75.242 132.508-15.12-37.145L95.3 106.441ZM156.645 80.727 108.918 54.14l59.32-10.055ZM291.742 0l15.79 64.305-47.934-25.39Zm0 0"/><path fill="#daf2e9" d="M291.742 0H384l-76.469 64.305ZM248.781 84.953l58.75-20.648-22.691 44.117Zm0 0"/><path fill="#d9f1e8" d="m215.95 46.54-47.712-2.454L191.141 0Zm0 0"/><path fill="#daf2e9" d="m215.95 46.54-25.634 35.605-22.078-38.06Zm0 0"/><path fill="#d9f1e8" d="m190.316 82.145-33.671-1.418 11.593-36.641Zm0 0"/><path fill="#5d2633" d="m176.281 111.168 10.688 38.539-31.754-17.504Zm0 0"/><path fill="#daf2e9" d="m248.781 84.953-17.457 29.457-11.148-11.656Zm0 0"/><path fill="#1d2537" d="m260.852 300.254-2.036-13.168 28.153 1.45Zm0 0"/><path fill="#daf2e9" d="m384 138.695-52.598-15.715 27.707-33.347Zm0 0"/><path fill="#1c2637" d="m307.46 362.535-22.589 21.485-5.277-12.438Zm0 0"/><path fill="#daf2e9" d="m48.566 0 1.875 40.66L0 0ZM60.121 95.363 0 92.461l50.441-51.8ZM60.121 95.363l48.797-41.222-13.617 52.3Zm0 0"/><path fill="#daf2e9" d="M108.918 54.14 60.121 95.364l-9.68-54.703ZM238.234 0h53.508l-32.144 38.914ZM384 88.395v50.3l-24.89-49.062ZM108.918 54.14 85.375 0h53.242Zm0 0"/><path fill="#daf2e9" d="m85.375 0 23.543 54.14-58.477-13.48Zm0 0"/><path fill="#d9f1e8" d="M215.95 46.54 191.14 0h47.094Zm0 0"/><path fill="#daf2e9" d="M215.95 46.54 238.233 0l21.364 38.914ZM176.105 99.438l14.211-17.293 4.43 29.53Zm0 0"/><path fill="#d9f1e8" d="m190.316 82.145-14.21 17.293-19.461-18.711ZM176.281 111.168l-.176-11.73 18.641 12.238Zm0 0"/><path fill="#daf2e9" d="m190.316 82.145 12.454 28.113-8.024 1.418Zm0 0"/><path fill="#81252f" d="m168.297 176.723-30.14-14.973 17.058-29.547Zm0 0"/><path fill="#202537" d="m168.297 176.723 29.867 17.984-22.144 2.594Zm0 0"/><path fill="#602633" d="m186.969 149.707-18.672 27.016-13.082-44.52Zm0 0"/><path fill="#392535" d="m198.164 194.707-29.867-17.984 18.672-27.016Zm0 0"/><path fill="#99272f" d="m123.797 140.773 14.36 20.977-28.77-.43Zm0 0"/><path fill="#994247" d="m137.809 115.629-14.012 25.144-8.262-14.847Zm0 0"/><path fill="#98363c" d="m138.156 161.75-14.36-20.977 31.419-8.57Zm0 0"/><path fill="#982e35" d="m123.797 140.773 14.012-25.144 17.406 16.574Zm0 0"/><path fill="#232537" d="m251.332 132.957-.61 19.926-16.687-19.922Zm0 0"/><path fill="#292536" d="m250.723 152.883-29.817 16.527 13.13-36.45Zm0 0"/><path fill="#2c2536" d="m220.906 169.41-8.074-32.21 21.203-4.24Zm0 0"/><path fill="#222537" d="m231.324 114.41 16.535 5.64-13.824 12.91Zm0 0"/><path fill="#daf2e9" d="m248.781 84.953-.922 35.098-16.535-5.64Zm0 0"/><path fill="#2c2536" d="m247.86 120.05 3.472 12.907-17.297.004Zm0 0"/><path fill="#252537" d="m247.86 120.05 12.038 7.97-8.566 4.937Zm0 0"/><path fill="#1c2537" d="m284.871 384.02-19.508-.028 14.23-12.41Zm0 0"/><path fill="#222537" d="m157.176 187.285 11.12-10.562 7.724 20.578Zm0 0"/><path fill="#3e2635" d="m203.938 266.238-27.223-.86 10.914-24.108Zm0 0"/><path fill="#5e2734" d="m168.797 280.89 7.918-15.511 17.57 32.566Zm0 0"/><path fill="#c38983" d="m176.715 265.379-7.918 15.512-2.54-16.094Zm0 0"/><path fill="#e26565" d="m168.797 280.89-16.188-8.523 13.649-7.57Zm0 0"/><path fill="#712531" d="m171.863 223.004-10.492-10.762 14.649-14.941Zm0 0"/><path fill="#bb4147" d="m161.371 212.242 10.492 10.762-12.683 3.266Zm0 0"/><path fill="#d9f1e8" d="m137.523 243.313 10.754-.493-5.855 10.996Zm0 0"/><path fill="#3a2635" d="m194.285 297.945-17.57-32.566 27.222.86Zm0 0"/><path fill="#daf2e9" d="m272.945 218.715-30.972-8.488 2.746-11.422Zm0 0"/><path fill="#daf2e9" d="m250.43 233.344-8.457-23.117 30.972 8.488Zm0 0"/><path fill="#daf2e9" d="m241.973 210.227 8.457 23.117-18.16-14.074ZM226.914 237.32l23.516-3.976-9.442 17.511Zm0 0"/><path fill="#d9f1e8" d="m250.43 233.344-23.516 3.976 5.356-18.05Zm0 0"/><path fill="#1c2537" d="m230.563 197.352-9.657-27.942 20.13 21.211Zm0 0"/><path fill="#daf2e9" d="m340.555 194.242 7.718 50.754-43.59-13.75ZM307.531 64.305l23.871 58.675-46.562-14.558Zm0 0"/><path fill="#daf2e9" d="m272.945 218.715 25.75-11.14 5.989 23.671ZM298.695 207.574l41.86-13.332-35.871 37.004Zm0 0"/><path fill="#964b4e" d="m307.46 362.535 9.65 21.477-32.239.008Zm0 0"/><path fill="#1d2638" d="m282.75 347.05 24.71 15.485-27.866 9.047Zm0 0"/><path fill="#daf2e9" d="m0 183.05 54.316 3.692-10.113 34.692Zm0 0"/><path fill="#d9f1e8" d="m41.227 143.578 13.09 43.164L0 183.051Zm0 0"/><path fill="#daf2e9" d="M41.227 143.578 0 92.461l60.121 2.902Zm0 0"/><path fill="#d9f1e8" d="M41.227 143.578 0 183.051V92.46Zm0 0"/><path fill="#daf2e9" d="m75.242 132.508-34.015 11.07L60.12 95.363Zm0 0"/><path fill="#d9f1e8" d="m70.34 161.64-29.113-18.062 34.015-11.07Zm0 0"/><path fill="#daf2e9" d="M50.441 40.66 48.566 0h36.809ZM0 92.46V0l50.441 40.66ZM384 88.395l-24.89 1.238L384 0ZM259.598 38.914l47.933 25.39-58.75 20.65Zm0 0"/><path fill="#daf2e9" d="m259.598 38.914-10.817 46.04-32.832-38.415ZM168.238 44.086 138.618 0h52.523ZM138.617 0l29.621 44.086-59.32 10.055ZM202.77 110.258l10.28-22.48 7.126 14.976ZM213.05 87.777l-10.28 22.48-12.454-28.112Zm0 0"/><path fill="#d9f1e8" d="m213.05 87.777 35.731-2.824-28.605 17.8Zm0 0"/><path fill="#daf2e9" d="m213.05 87.777-22.734-5.632 25.633-35.606ZM248.781 84.953l-35.73 2.824 2.898-41.238Zm0 0"/><path fill="#d9f1e8" d="m130.414 98.309 7.395 17.32-22.274 10.297Zm0 0"/><path fill="#daf2e9" d="m130.414 98.309-14.879 27.617-20.234-19.485Zm0 0"/><path fill="#d9f1e8" d="m108.918 54.14 21.496 44.169-35.113 8.132Zm0 0"/><path fill="#d9f1e8" d="M130.414 98.309 108.918 54.14l47.727 26.586ZM176.105 99.438l-18.207 10.246-1.253-28.957ZM157.898 109.684l18.207-10.246.176 11.73ZM157.898 109.684l-27.484-11.375 26.23-17.582ZM130.414 98.309l27.484 11.375-20.09 5.945Zm0 0"/><path fill="#6c2b36" d="m157.898 109.684 18.383 1.484-21.066 21.035Zm0 0"/><path fill="#7d313a" d="m137.809 115.629 20.09-5.945-2.684 22.52Zm0 0"/><path fill="#daf2e9" d="m115.535 125.926-19.605 4.55-.63-24.035Zm0 0"/><path fill="#daf2e9" d="m95.93 130.477-20.688 2.03 20.059-26.066Zm0 0"/><path fill="#9a242d" d="m138.156 161.75-7.851 16.645-20.918-17.075Zm0 0"/><path fill="#daf2e9" d="m83.594 169.773-4.602 6.692-8.652-14.824Zm0 0"/><path fill="#9a3d42" d="m123.797 140.773-22.43.684 14.168-15.531Zm0 0"/><path fill="#d9f1e8" d="m101.367 141.457-5.437-10.98 19.605-4.551Zm0 0"/><path fill="#995052" d="m101.367 141.457 22.43-.684-14.41 20.547Zm0 0"/><path fill="#422434" d="m220.906 169.41-22.742 25.297-11.195-45Zm0 0"/><path fill="#422534" d="m212.832 137.2 8.074 32.21-33.937-19.703Zm0 0"/><path fill="#3b2535" d="m216.04 114.773 15.284-.363 2.711 18.55Zm0 0"/><path fill="#3a2535" d="m212.832 137.2 3.207-22.427 17.996 18.188Zm0 0"/><path fill="#d9f1e8" d="m231.324 114.41-15.285.363 4.137-12.02Zm0 0"/><path fill="#d9f1e8" d="m216.04 114.773-13.27-4.515 17.406-7.504Zm0 0"/><path fill="#daf2e9" d="m258.25 115.477-10.39 4.574.921-35.098Zm0 0"/><path fill="#daf2e9" d="m258.25 115.477-9.469-30.524 36.059 23.469Zm0 0"/><path fill="#daf2e9" d="m259.898 128.02-1.648-12.543 26.59-7.055Zm0 0"/><path fill="#d9f1e8" d="m247.86 120.05 10.39-4.573 1.648 12.543Zm0 0"/><path fill="#894f52" d="m150.012 370.441 34.582 13.579-46.203-.016Zm0 0"/><path fill="#994246" d="m269.832 339.043-14.48 20.96-16.012-25.64Zm0 0"/><path fill="#492433" d="m157.176 187.285-26.871-8.89 37.992-1.672Zm0 0"/><path fill="#27293a" d="m286.59 311.125-33.406 4.695 7.668-15.566Zm0 0"/><path fill="#212537" d="m286.59 311.125-25.738-10.871 26.117-11.719Zm0 0"/><path fill="#8e2f37" d="m286.59 311.125 2.293 11.492-35.7-6.797Zm0 0"/><path fill="#914246" d="m253.184 315.82 35.699 6.797-19.051 16.426Zm0 0"/><path fill="#76323b" d="m253.184 315.82-13.844 18.543-13.153-14.168Zm0 0"/><path fill="#979a91" d="m253.184 315.82 16.648 23.223-30.492-4.68Zm0 0"/><path fill="#7b3f46" d="m230.809 299.477 22.375 16.343-26.996 4.375Zm0 0"/><path fill="#ab4348" d="m171.863 223.004-2.77 22.21-9.913-18.944Zm0 0"/><path fill="#e75d5f" d="m169.094 245.215-20.817-2.395 10.903-16.55Zm0 0"/><path fill="#602532" d="m169.094 245.215 2.77-22.211 15.765 18.266ZM176.715 265.379l-7.621-20.164 18.535-3.945Zm0 0"/><path fill="#c69089" d="m169.094 245.215 7.62 20.164-10.456-.582Zm0 0"/><path fill="#ef5053" d="m148.277 242.82-1.21-17.218 12.113.668Zm0 0"/><path fill="#d9f1e8" d="m147.066 225.602 1.211 17.218-10.754.493Zm0 0"/><path fill="#d9f1e8" d="m127.977 225.973 19.09-.371-9.544 17.71Zm0 0"/><path fill="#1d2537" d="m233.848 285.5-29.91-19.262 25.789-1.312Zm0 0"/><path fill="#1c2537" d="m203.938 266.238 29.91 19.262-3.04 13.977Zm0 0"/><path fill="#1e2637" d="m203.938 266.238 26.87 33.239-36.523-1.532Zm0 0"/><path fill="#1d2537" d="m203.938 266.238 22.98-13.539 2.809 12.227Zm0 0"/><path fill="#984f51" d="m229.727 264.926-2.809-12.227 14.07-1.844Zm0 0"/><path fill="#d9f1e8" d="m226.918 252.7-.004-15.38 14.074 13.535Zm0 0"/><path fill="#2e2636" d="m209.793 239.563-5.856 26.675-16.308-24.968Zm0 0"/><path fill="#1e2637" d="m209.793 239.563 17.125 13.136-22.98 13.54Zm0 0"/><path fill="#1e2537" d="m226.918 252.7-17.125-13.137 17.121-2.243Zm0 0"/><path fill="#d9f1e8" d="m226.914 237.32-3.61-15.086 8.966-2.964Zm0 0"/><path fill="#d9f1e8" d="m232.27 219.27-8.965 2.964-1.555-8.894Zm0 0"/><path fill="#1d2537" d="m209.793 239.563 13.512-17.329 3.61 15.086Zm0 0"/><path fill="#daf2e9" d="m230.313 206.75 1.957 12.52-10.52-5.93Zm0 0"/><path fill="#daf2e9" d="m230.313 206.75 11.66 3.477-9.703 9.043ZM313.336 253.09l-4.5 12.226-17.25-4.796ZM313.336 253.09l-21.75 7.43 13.098-29.274Zm0 0"/><path fill="#daf2e9" d="m348.273 244.996-34.937 8.094-8.652-21.844ZM348.273 244.996l-7.718-50.754L384 215.945Zm0 0"/><path fill="#50313d" d="M233.848 285.5 251 266.688l7.816 20.398Zm0 0"/><path fill="#984a4d" d="M251 266.688 233.848 285.5l-4.121-20.574Zm0 0"/><path fill="#986664" d="m251 266.688-21.273-1.762 11.261-14.07Zm0 0"/><path fill="#3e2d3b" d="m372.387 315.469 11.625 1.5-23.715 39.508Zm0 0"/><path fill="#daf2e9" d="m327.785 268.988-14.45-15.898 34.938-8.094Zm0 0"/><path fill="#daf2e9" d="m313.336 253.09 14.45 15.898-18.95-3.672Zm0 0"/><path fill="#d9f1e8" d="m308.836 265.316-11.82 9.266-5.43-14.062Zm0 0"/><path fill="#daf2e9" d="m384 138.695-43.445 55.547-9.153-71.262ZM359.11 89.633l-27.708 33.347-23.87-58.675ZM282.184 201.39l16.511 6.184-25.75 11.14Zm0 0"/><path fill="#daf2e9" d="m298.695 207.574-16.511-6.183 8.289-8.243ZM304.055 187.074l-5.36 20.5-8.222-14.426Zm0 0"/><path fill="#daf2e9" d="m298.695 207.574 5.36-20.5 36.5 7.168Zm0 0"/><path fill="#d9f1e8" d="m291.215 185.45 12.84 1.624-13.582 6.074Zm0 0"/><path fill="#512836" d="M384.012 316.969 384 360.965l-23.703-4.488Zm0 0"/><path fill="#202637" d="M360.297 356.477 384 360.965l.004 23.039Zm0 0"/><path fill="#272537" d="m350.688 384 9.609-27.523 23.707 27.527Zm0 0"/><path fill="#8f3c41" d="m323.48 360.285-6.37 23.727-9.65-21.477Zm0 0"/><path fill="#daf2e9" d="m54.316 186.742 16.532 24.453-26.645 10.239Zm0 0"/><path fill="#daf2e9" d="m70.848 211.195-5.602 26.285-21.043-16.046Zm0 0"/><path fill="#daf2e9" d="m44.203 221.434 8.453 24.539-14.422 1.007Zm0 0"/><path fill="#daf2e9" d="m65.246 237.48-12.59 8.493-8.453-24.54Zm0 0"/><path fill="#d9f1e8" d="m70.34 161.64 8.652 14.825-24.676 10.277Zm0 0"/><path fill="#d9f1e8" d="m41.227 143.578 29.113 18.063-16.024 25.101Zm0 0"/><path fill="#daf2e9" d="m384 0-24.89 89.633-51.579-25.328Zm0 0"/><path fill="#d9f1e8" d="m20.855 246.32 2.997-15.297 14.382 15.957Zm0 0"/><path fill="#daf2e9" d="m23.852 231.023 20.351-9.59-5.969 25.547Zm0 0"/><path fill="#daf2e9" d="M23.852 231.023 0 183.051l44.203 38.383Zm0 0"/><path fill="#979d93" d="m67.457 297.57 10.434-19.804 17.921 20.23Zm0 0"/><path fill="#62333d" d="m47.176 278.688 30.715-.922-10.434 19.804Zm0 0"/><path fill="#994649" d="m67.457 297.57 28.356.426-8.54 20.7Zm0 0"/><path fill="#978c85" d="m25.09 293.715 22.086-15.027-7.328 17.914Zm0 0"/><path fill="#daf2e9" d="m95.93 130.477-3.856 9-16.832-6.97Zm0 0"/><path fill="#d9f1e8" d="m92.074 139.477 9.293 1.98-12.754 15.04ZM101.367 141.457l-9.293-1.98 3.856-9Zm0 0"/><path fill="#9a242d" d="m130.305 178.395-27.246-2.973 6.328-14.102Zm0 0"/><path fill="#d9f1e8" d="m78.992 176.465 6.953 10.09-31.629.187Zm0 0"/><path fill="#daf2e9" d="m70.848 211.195 15.097-24.64 10.348 20.894Zm0 0"/><path fill="#daf2e9" d="m85.945 186.555-15.097 24.64-16.532-24.453ZM88.613 156.496l-5.02 13.277-13.253-8.132Zm0 0"/><path fill="#daf2e9" d="m88.613 156.496-18.273 5.145 4.902-29.133Zm0 0"/><path fill="#d9f1e8" d="m92.074 139.477-3.46 17.02-13.372-23.99ZM83.594 169.773l5.047 7.57-9.649-.878Zm0 0"/><path fill="#d9f1e8" d="m88.64 177.344-2.695 9.21-6.953-10.09Zm0 0"/><path fill="#9a4044" d="m97.395 157.852 3.972-16.395 8.02 19.863Zm0 0"/><path fill="#9a3c41" d="m101.367 141.457-3.972 16.395-8.782-1.356Zm0 0"/><path fill="#4f2634" d="m202.77 110.258-4.31 10.992-3.714-9.574Zm0 0"/><path fill="#5a2734" d="m216.04 114.773-17.58 6.477 4.31-10.992Zm0 0"/><path fill="#4f2735" d="m198.46 121.25-22.179-10.082 18.465.508Zm0 0"/><path fill="#612632" d="m176.281 111.168 22.18 10.082-11.492 28.457Zm0 0"/><path fill="#432534" d="m198.46 121.25 14.372 15.95-25.863 12.507Zm0 0"/><path fill="#472534" d="m198.46 121.25 17.58-6.477-3.208 22.426Zm0 0"/><path fill="#9a343a" d="m91.914 366.988-12.203-27.527 28.934-2.191Zm0 0"/><path fill="#452836" d="m91.914 366.988 16.73-29.718 22.606 24.367Zm0 0"/><path fill="#1e2638" d="m230.809 299.477-28.793 11.64-7.73-13.172Zm0 0"/><path fill="#1f2638" d="m230.809 299.477-4.621 20.718-24.172-9.078Zm0 0"/><path fill="#70474e" d="m-.004 384 26.809-29.02 10.746 29.024Zm0 0"/><path fill="#984b4e" d="M26.805 354.98-.004 384l-.004-53.79Zm0 0"/><path fill="#92726f" d="m240.414 383.996-2.98-22.527 17.918-1.465Zm0 0"/><path fill="#975052" d="m237.434 361.469 1.906-27.106 16.012 25.64Zm0 0"/><path fill="#312838" d="m143.031 297.648 18.344 6.57-20.445 10.391Zm0 0"/><path fill="#2b2637" d="m161.375 304.219 40.64 6.898-17.824 6.469Zm0 0"/><path fill="#5b2835" d="m161.375 304.219 7.422-23.328 25.488 17.054Zm0 0"/><path fill="#412937" d="m202.016 311.117-40.641-6.898 32.91-6.274Zm0 0"/><path fill="#93464a" d="m161.375 304.219-3.086 21.344-17.36-10.954Zm0 0"/><path fill="#7f232e" d="m168.297 176.723-37.992 1.672 7.851-16.645Zm0 0"/><path fill="#daf2e9" d="m65.246 237.48 14.434.31-3.586 10.855ZM105.066 237.977l-25.386-.188 29.195-12.305Zm0 0"/><path fill="#e06363" d="m153.242 257.281 15.852-12.066-2.836 19.582Zm0 0"/><path fill="#e75d5e" d="m169.094 245.215-15.852 12.066-4.965-14.46Zm0 0"/><path fill="#e85c5d" d="m152.61 272.367.632-15.086 13.016 7.516Zm0 0"/><path fill="#e75d5e" d="m140.941 265.984 12.301-8.703-.633 15.086Zm0 0"/><path fill="#da7270" d="m148.277 242.82 4.965 14.461-10.82-3.465Zm0 0"/><path fill="#ce847f" d="m153.242 257.281-12.3 8.703 1.48-12.168Zm0 0"/><path fill="#432534" d="m171.863 223.004 23.617-2.016-7.851 20.282Zm0 0"/><path fill="#352535" d="m195.48 220.988-23.617 2.016 4.157-25.703Zm0 0"/><path fill="#2a2536" d="m198.164 194.707-2.684 26.281-19.46-23.687Zm0 0"/><path fill="#232537" d="m176.02 197.3-20.883-1.816 2.039-8.199Zm0 0"/><path fill="#75242f" d="m155.137 195.484 20.883 1.817-14.649 14.941Zm0 0"/><path fill="#2f2536" d="m136.29 192.613-5.985-14.218 26.87 8.89ZM155.137 195.484l-18.848-2.87 20.887-5.329Zm0 0"/><path fill="#d9f1e8" d="m136.29 192.613 18.847 2.871-15.856 14.243ZM155.137 195.484l-2.285 18.95-13.57-4.707Zm0 0"/><path fill="#a32e36" d="m152.852 214.434 2.285-18.95 6.234 16.758Zm0 0"/><path fill="#ec4d51" d="m152.852 214.434 8.52-2.192-2.192 14.028Zm0 0"/><path fill="#ec5255" d="m147.066 225.602 5.786-11.168 6.328 11.836Zm0 0"/><path fill="#daf2e9" d="m127.977 225.973 11.304-16.246 7.785 15.875Zm0 0"/><path fill="#d9f1e8" d="m139.281 209.727 13.57 4.707-5.785 11.168ZM115.332 243.898l12.645-17.925 9.546 17.34ZM115.332 243.898l-10.266-5.921 3.809-12.493Zm0 0"/><path fill="#d9f1e8" d="m127.977 225.973-12.645 17.925-6.457-18.414Zm0 0"/><path fill="#3d2a39" d="m260.852 300.254-30.043-.777 28.007-12.391Zm0 0"/><path fill="#1e2537" d="m230.809 299.477 3.039-13.977 24.968 1.586Zm0 0"/><path fill="#5d3b44" d="m230.809 299.477 30.043.777-7.668 15.566Zm0 0"/><path fill="#1c2537" d="m230.563 197.352-13.856-.004 4.2-27.938Zm0 0"/><path fill="#d9f1e8" d="m230.313 206.75-13.606-9.402 13.856.004Zm0 0"/><path fill="#1c2537" d="m216.707 197.348-18.543-2.641 22.742-25.297Zm0 0"/><path fill="#242537" d="m198.164 194.707 18.543 2.64 5.043 15.993Zm0 0"/><path fill="#d9f1e8" d="m216.707 197.348 13.606 9.402-8.563 6.59Zm0 0"/><path fill="#daf2e9" d="m241.973 210.227-3.942-10.563 6.688-.86ZM230.313 206.75l7.718-7.086 3.942 10.563Zm0 0"/><path fill="#1d2537" d="m238.031 199.664 3.004-9.043 3.684 8.184Zm0 0"/><path fill="#1c2537" d="m238.031 199.664-7.469-2.312 10.473-6.73Zm0 0"/><path fill="#daf2e9" d="m238.031 199.664-7.719 7.086.25-9.398Zm0 0"/><path fill="#d9f1e8" d="m372.621 281.934-11.937-1.176 8.043-6.848ZM372.621 281.934 384 268.964l.004 28.11Zm0 0"/><path fill="#d9f1e8" d="m384 268.965-11.379 12.969-3.894-8.024Zm0 0"/><path fill="#daf2e9" d="m384 268.965-35.727-23.969L384 215.946ZM348.273 244.996 384 268.965l-15.273 4.945Zm0 0"/><path fill="#984044" d="m251 266.688 25.703-2.145-17.887 22.543Zm0 0"/><path fill="#992f36" d="M276.703 264.543 251 266.687l6.734-12.8Zm0 0"/><path fill="#1e2537" d="m258.816 287.086 26.047-7.82 2.106 9.27Zm0 0"/><path fill="#92363c" d="m276.703 264.543 8.16 14.723-26.047 7.82Zm0 0"/><path fill="#442635" d="m284.863 279.266 12.153-4.684-10.047 13.953Zm0 0"/><path fill="#995052" d="m284.863 279.266-8.16-14.723 14.883-4.023Zm0 0"/><path fill="#9a363c" d="m297.016 274.582-12.153 4.684 6.723-18.746Zm0 0"/><path fill="#daf2e9" d="m291.586 260.52-16.024-17.641 29.122-11.633Zm0 0"/><path fill="#d9f1e8" d="m276.703 264.543-1.14-21.664 16.023 17.64Zm0 0"/><path fill="#d9f1e8" d="m275.563 242.879 1.14 21.664-18.969-10.656Zm0 0"/><path fill="#daf2e9" d="m275.563 242.879-2.618-24.164 31.739 12.531Zm0 0"/><path fill="#d9f1e8" d="m250.43 233.344 7.304 20.543-16.746-3.032Zm0 0"/><path fill="#9a3d42" d="m257.734 253.887-6.734 12.8-10.012-15.832Zm0 0"/><path fill="#212637" d="m319.61 326.16-30.727-3.543-2.293-11.492Zm0 0"/><path fill="#8e4a4e" d="m288.883 322.617 30.726 3.543-9.054 8.836Zm0 0"/><path fill="#6c2934" d="m341.707 283.027 9.438 11.203-14.125 3.575Zm0 0"/><path fill="#d9f1e8" d="m351.145 294.23-9.438-11.203 18.977-2.27Zm0 0"/><path fill="#daf2e9" d="m341.707 283.027-13.922-14.039 20.488-23.992Zm0 0"/><path fill="#d9f1e8" d="m327.785 268.988-10.535 9.02-8.414-12.692Zm0 0"/><path fill="#953e43" d="m317.25 278.008-20.234-3.426 11.82-9.266Zm0 0"/><path fill="#daf2e9" d="m384 215.945-43.445-21.703L384 138.695ZM310.191 160.703l-20.578-29.3 41.79-8.423Zm0 0"/><path fill="#daf2e9" d="m310.191 160.703 21.211-37.723 9.153 71.262Zm0 0"/><path fill="#d9f1e8" d="m304.055 187.074 6.136-26.37 30.364 33.538Zm0 0"/><path fill="#daf2e9" d="m310.191 160.703-26.359-4.66 5.781-24.64Zm0 0"/><path fill="#1c2537" d="m275.11 194.191-10.028-21.558 16.379 6.945Zm0 0"/><path fill="#1d2537" d="m220.906 169.41 28.34 7.172-8.21 14.04Zm0 0"/><path fill="#1c2537" d="m265.082 172.633 12.465-12.613 3.914 19.558Zm0 0"/><path fill="#984c4f" d="m352.047 332.422 20.34-16.953-12.09 41.008Zm0 0"/><path fill="#986b69" d="m352.047 332.422 8.25 24.055-23.02-10.77Zm0 0"/><path fill="#442937" d="M323.48 360.285 350.687 384l-33.578.012Zm0 0"/><path fill="#1c2537" d="m255.352 360.004 27.398-12.953-3.156 24.531Zm0 0"/><path fill="#1c2638" d="m265.363 383.992-10.011-23.988 24.242 11.578Zm0 0"/><path fill="#9a2b32" d="m52.656 245.973 11.485 2.593-.438 17.95Zm0 0"/><path fill="#d9f1e8" d="m64.14 248.566 1.106-11.086 10.848 11.165Zm0 0"/><path fill="#d9f1e8" d="m64.14 248.566-11.484-2.593 12.59-8.493Zm0 0"/><path fill="#996362" d="m8.934 255.668 11.921-9.348-4.027 22.657Zm0 0"/><path fill="#daf2e9" d="m0 237.805 23.852-6.782-2.997 15.297Zm0 0"/><path fill="#d9f1e8" d="M8.934 255.668 0 237.805l20.855 8.515Zm0 0"/><path fill="#daf2e9" d="M23.852 231.023 0 237.805V183.05Zm0 0"/><path fill="#d9f1e8" d="m0 237.805 8.934 17.863-8.95 3.754Zm0 0"/><path fill="#995a5a" d="m79.68 237.79 20.492 13.062-24.078-2.207Zm0 0"/><path fill="#d9f1e8" d="M100.172 250.852 79.68 237.789l25.386.188Zm0 0"/><path fill="#542b38" d="m77.89 277.766 29.88 1.765-11.957 18.465Zm0 0"/><path fill="#db6968" d="m135.324 284.023 16.207 3.422-8.5 10.203Zm0 0"/><path fill="#562735" d="m140.941 265.984-23.851-1.05 25.332-11.118Zm0 0"/><path fill="#292737" d="m127.215 293.371 8.11-9.348 7.706 13.625Zm0 0"/><path fill="#71353e" d="m.016 296.781 13.23 24.422-13.254 9.008Zm0 0"/><path fill="#987d78" d="m-.008 330.21 13.254-9.007 13.559 33.777Zm0 0"/><path fill="#272738" d="M25.09 293.715.016 296.78 0 287.242Zm0 0"/><path fill="#663942" d="m47.176 278.688 20.281 18.882-27.61-.968Zm0 0"/><path fill="#993b40" d="M52.656 245.973 40.863 260.84l-2.629-13.86Zm0 0"/><path fill="#99464a" d="m40.863 260.84 11.793-14.867 11.047 20.543Zm0 0"/><path fill="#99232c" d="m96.633 186.262-7.992-8.918 14.418-1.922Zm0 0"/><path fill="#daf2e9" d="m85.945 186.555 10.688-.293-.34 21.187Zm0 0"/><path fill="#93252e" d="m88.64 177.344 7.993 8.918-10.688.293Zm0 0"/><path fill="#9b3a3f" d="m103.059 175.422-8.75-7.817 15.078-6.285Zm0 0"/><path fill="#9a3138" d="m94.309 167.605 3.086-9.753 11.992 3.468Zm0 0"/><path fill="#9a272f" d="m88.64 177.344 5.669-9.739 8.75 7.817Zm0 0"/><path fill="#9a4b4e" d="m94.309 167.605-5.668 9.739-5.047-7.57Zm0 0"/><path fill="#9a3138" d="m88.613 156.496 5.696 11.11-10.715 2.167Zm0 0"/><path fill="#982730" d="m97.395 157.852-3.086 9.753-5.696-11.109Zm0 0"/><path fill="#975657" d="m101.094 383.996-9.18-17.008 39.336-5.351Zm0 0"/><path fill="#95beaf" d="m103.953 323.96 4.692 13.31-28.934 2.19Zm0 0"/><path fill="#894e52" d="m87.273 318.695 16.68 5.266-24.242 15.5Zm0 0"/><path fill="#712f39" d="m50.586 318.207 16.871-20.637 19.816 21.125Zm0 0"/><path fill="#252637" d="m50.586 318.207 36.687.488-7.562 20.766Zm0 0"/><path fill="#885c5d" d="m131.25 361.637 18.762 8.804-11.621 13.563Zm0 0"/><path fill="#202637" d="m131.25 361.637 7.14 22.367-37.296-.008Zm0 0"/><path fill="#6c343d" d="m148.242 339.234 10.047-13.671 10.043 22.289Zm0 0"/><path fill="#8a4f52" d="m174.707 359.73 9.887 24.29-34.582-13.579Zm0 0"/><path fill="#43323f" d="m184.594 384.02 23.824-22.832 9.527 22.808Zm0 0"/><path fill="#5c3540" d="m208.418 361.188-23.824 22.832-9.887-24.29Zm0 0"/><path fill="#97595a" d="m25.09 293.715 9.191 33.426-21.035-5.938Zm0 0"/><path fill="#462c3a" d="m26.805 354.98 42.043 6.395-31.297 22.629Zm0 0"/><path fill="#883139" d="m55.012 339.594 13.836 21.781-42.043-6.395Zm0 0"/><path fill="#1d2638" d="m265.363 383.992-24.949.004 14.938-23.992Zm0 0"/><path fill="#262637" d="m237.434 361.469-19.489 22.527-9.527-22.808Zm0 0"/><path fill="#1c2637" d="M240.414 383.996h-22.469l19.489-22.527Zm0 0"/><path fill="#925b5c" d="m226.188 320.195 13.152 14.168-24.52-1.343Zm0 0"/><path fill="#452938" d="m239.34 334.363-1.906 27.106-29.016-.281Zm0 0"/><path fill="#372938" d="m288.883 322.617-6.133 24.434-12.918-8.008Zm0 0"/><path fill="#502936" d="m282.75 347.05 6.133-24.433 21.672 12.38Zm0 0"/><path fill="#6d2b36" d="m158.29 325.563 3.085-21.344 22.816 13.367Zm0 0"/><path fill="#dc6c6b" d="m161.375 304.219-9.844-16.774 17.266-6.554Zm0 0"/><path fill="#df6969" d="m151.531 287.445 1.078-15.078 16.188 8.524Zm0 0"/><path fill="#dc6868" d="m143.031 297.648 8.5-10.203 9.844 16.774Zm0 0"/><path fill="#daf2e9" d="m79.68 237.79-8.832-26.595 25.445-3.746Zm0 0"/><path fill="#daf2e9" d="m70.848 211.195 8.832 26.594-14.434-.309Zm0 0"/><path fill="#2a2637" d="m195.48 220.988 14.313 18.575-22.164 1.707Zm0 0"/><path fill="#202637" d="m195.48 220.988 27.825 1.246-13.512 17.328Zm0 0"/><path fill="#212537" d="m195.48 220.988 2.684-26.281 23.586 18.633Zm0 0"/><path fill="#202537" d="m223.305 222.234-27.825-1.246 26.27-7.648Zm0 0"/><path fill="#daf2e9" d="m130.813 198.828 5.476-6.215 2.992 17.114Zm0 0"/><path fill="#d9f1e8" d="m372.621 281.934-6.777 6.593-5.16-7.77Zm0 0"/><path fill="#5f2834" d="m365.844 288.527-14.7 5.703 9.54-13.472Zm0 0"/><path fill="#daf2e9" d="m275.563 242.879-25.133-9.535 22.515-14.63ZM275.563 242.879l-17.829 11.008-7.304-20.543ZM341.707 283.027l6.566-38.03 12.41 35.76ZM360.684 280.758l-12.41-35.762 20.453 28.914Zm0 0"/><path fill="#783e45" d="m327.61 286.523-10.36-8.515 10.535-9.02Zm0 0"/><path fill="#862d36" d="m327.61 286.523 14.097-3.496-4.687 14.778Zm0 0"/><path fill="#382938" d="m341.707 283.027-14.098 3.496.176-17.535Zm0 0"/><path fill="#412534" d="m317.25 278.008 10.36 8.515-7.657 18.75Zm0 0"/><path fill="#212537" d="m319.953 305.273 7.656-18.75 9.41 11.282Zm0 0"/><path fill="#602c38" d="m297.016 274.582 6.32 16.242-16.367-2.289Zm0 0"/><path fill="#2f2637" d="m317.25 278.008-13.914 12.816-6.32-16.242Zm0 0"/><path fill="#5e2834" d="m303.336 290.824 13.914-12.816 2.703 27.265Zm0 0"/><path fill="#252637" d="m303.336 290.824-16.746 20.301.379-22.59Zm0 0"/><path fill="#1c2638" d="m259.898 128.02 7.551 8.14-16.117-3.203Zm0 0"/><path fill="#daf2e9" d="m289.613 131.402-29.715-3.382 24.942-19.598Zm0 0"/><path fill="#d9f1e8" d="m289.613 131.402-22.164 4.758-7.55-8.14Zm0 0"/><path fill="#daf2e9" d="m331.402 122.98-41.789 8.422-4.773-22.98Zm0 0"/><path fill="#1c2537" d="m283.984 191.004-8.875 3.187 6.352-14.613ZM283.984 191.004l7.23-5.555-.741 7.7Zm0 0"/><path fill="#1c2537" d="m291.215 185.45-7.23 5.554-2.524-11.426Zm0 0"/><path fill="#daf2e9" d="m282.184 201.39 1.8-10.386 6.489 2.144Zm0 0"/><path fill="#d9f1e8" d="m275.11 194.191 8.874-3.187-1.8 10.387Zm0 0"/><path fill="#daf2e9" d="m269.02 202.809 6.09-8.618 7.074 7.2ZM269.02 202.809l3.925 15.906-28.226-19.91Zm0 0"/><path fill="#daf2e9" d="m269.02 202.809 13.164-1.418-9.239 17.324Zm0 0"/><path fill="#1c2537" d="m249.246 176.582 1.477-23.7 14.359 19.75Zm0 0"/><path fill="#1d2537" d="m250.723 152.883-1.477 23.699-28.34-7.172Zm0 0"/><path fill="#1e2537" d="m267.45 136.16-16.727 16.723.609-19.926ZM294.863 174.547l-3.648 10.902-9.754-5.87Zm0 0"/><path fill="#1c2537" d="m277.547 160.02 17.316 14.527-13.402 5.031Zm0 0"/><path fill="#1d2638" d="m294.863 174.547-17.316-14.527 6.285-3.977Zm0 0"/><path fill="#daf2e9" d="m294.863 174.547-11.031-18.504 26.36 4.66Zm0 0"/><path fill="#d9f1e8" d="m291.215 185.45 3.648-10.903 9.192 12.527Zm0 0"/><path fill="#daf2e9" d="m294.863 174.547 15.328-13.844-6.136 26.371Zm0 0"/><path fill="#976867" d="m310.555 334.996-3.094 27.54-24.711-15.485Zm0 0"/><path fill="#1c2637" d="m282.75 347.05-27.398 12.954 14.48-20.961Zm0 0"/><path fill="#9a3037" d="m100.172 250.852-10.45 12.398-13.628-14.605Zm0 0"/><path fill="#965e5e" d="m120.898 327.563 27.344 11.671-12.289 10.676Zm0 0"/><path fill="#3c2e3c" d="m148.242 339.234-27.344-11.671 20.032-12.954Zm0 0"/><path fill="#986160" d="m107.77 279.531 7.875 29.961-19.832-11.496Zm0 0"/><path fill="#1c2637" d="m117.09 264.934 18.234 19.09-8.11 9.347Zm0 0"/><path fill="#1f2637" d="m135.324 284.023-18.234-19.09 23.851 1.051Zm0 0"/><path fill="#d97370" d="m135.324 284.023 5.617-18.039 11.668 6.383Zm0 0"/><path fill="#ce847f" d="m151.531 287.445-16.207-3.422 17.285-11.656Zm0 0"/><path fill="#50303d" d="m107.77 279.531 9.32-14.597 10.125 28.437Zm0 0"/><path fill="#6f2e38" d="m.016 296.781 25.074-3.066-11.844 27.488Zm0 0"/><path fill="#985859" d="m16.828 268.977 8.262 24.738L0 287.242Zm0 0"/><path fill="#69303b" d="m-.016 259.422 16.844 9.555L0 287.242Zm0 0"/><path fill="#99343a" d="m8.934 255.668 7.894 13.309-16.844-9.555Zm0 0"/><path fill="#978982" d="m47.176 278.688-6.313-17.848 22.84 5.676Zm0 0"/><path fill="#432b39" d="M47.176 278.688 25.09 293.715l-8.262-24.738Zm0 0"/><path fill="#97978e" d="m103.953 323.96 16.945 3.603-12.253 9.707Zm0 0"/><path fill="#925859" d="m55.012 339.594-4.426-21.387 29.125 21.254Zm0 0"/><path fill="#914146" d="m131.25 361.637 17.523-2.512 1.239 11.316Zm0 0"/><path fill="#977c77" d="m189.59 342.86 18.828 18.327-33.711-1.457Zm0 0"/><path fill="#362837" d="m13.246 321.203 21.035 5.938-7.476 27.84Zm0 0"/><path fill="#2e2637" d="m26.805 354.98 7.476-27.84 20.73 12.454Zm0 0"/><path fill="#202637" d="m68.848 361.375 10.863-21.914 12.203 27.527Zm0 0"/><path fill="#382737" d="m68.848 361.375-13.836-21.781 24.699-.133Zm0 0"/><path fill="#1c2637" d="m91.914 366.988 9.18 17.008-63.543.008Zm0 0"/><path fill="#202738" d="m68.848 361.375 23.066 5.613-54.363 17.016Zm0 0"/><path fill="#d9f1e8" d="m130.813 198.828-3.575-6.035 9.051-.18Zm0 0"/><path fill="#3e2434" d="m136.29 192.613-9.052.18 3.067-14.398Zm0 0"/><path fill="#daf2e9" d="m79.68 237.79 16.613-30.34 12.582 18.034ZM119.16 207.387l20.121 2.34-11.304 16.246Zm0 0"/><path fill="#daf2e9" d="m119.16 207.387 11.653-8.559 8.468 10.899ZM119.16 207.387l8.817 18.586-19.102-.489Zm0 0"/><path fill="#daf2e9" d="m96.293 207.45 22.867-.063-10.285 18.097ZM119.16 207.387l8.078-14.594 3.575 6.035Zm0 0"/><path fill="#9a363c" d="m115.332 243.898-15.16 6.954 4.894-12.875Zm0 0"/><path fill="#d9f1e8" d="m118.121 249.672-2.789-5.774 22.191-.585Zm0 0"/><path fill="#99353b" d="m118.121 249.672-17.95 1.18 15.161-6.954Zm0 0"/><path fill="#985d5d" d="m118.121 249.672 19.402-6.36 4.899 10.504Zm0 0"/><path fill="#99494c" d="m117.09 264.934 1.031-15.262 24.3 4.144Zm0 0"/><path fill="#994448" d="m118.121 249.672-1.031 15.262-16.918-14.082Zm0 0"/><path fill="#572a37" d="m384.012 316.969-6.094-19.266 6.086-.629Zm0 0"/><path fill="#d9f1e8" d="m377.918 297.703-5.297-15.77 11.383 15.141ZM377.918 297.703l-12.074-9.176 6.777-6.593Zm0 0"/><path fill="#302636" d="m365.844 288.527-3.422 18.825-11.277-13.122Zm0 0"/><path fill="#993037" d="m362.422 307.352 9.965 8.117-20.34 16.953Zm0 0"/><path fill="#582633" d="m377.918 297.703-15.496 9.649 3.422-18.825Zm0 0"/><path fill="#292637" d="m337.977 322.305 14.07 10.117-14.688-.852Zm0 0"/><path fill="#542836" d="m352.047 332.422-14.77 13.285.082-14.137Zm0 0"/><path fill="#984649" d="m319.953 305.273 18.024 17.032-18.368 3.855Zm0 0"/><path fill="#292637" d="m319.61 326.16-33.02-15.035 33.363-5.852Zm0 0"/><path fill="#262738" d="m286.59 311.125 16.746-20.3 16.617 14.448Zm0 0"/><path fill="#daf2e9" d="m276.813 144.39 12.8-12.988-5.781 24.641Zm0 0"/><path fill="#daf2e9" d="m289.613 131.402-12.8 12.989-9.364-8.23Zm0 0"/><path fill="#1c2638" d="m277.547 160.02-.735-15.63 7.02 11.653Zm0 0"/><path fill="#daf2e9" d="m269.02 202.809-4.81-8.508 10.9-.11Zm0 0"/><path fill="#1c2537" d="m249.246 176.582 14.965 17.719-23.176-3.68ZM241.035 190.621l23.176 3.68-19.492 4.504Zm0 0"/><path fill="#d9f1e8" d="m264.21 194.3 4.81 8.509-24.301-4.004Zm0 0"/><path fill="#1c2537" d="m275.11 194.191-10.9.11.872-21.668ZM264.21 194.3l-14.964-17.718 15.836-3.95ZM266.906 153.527l10.64 6.493-12.464 12.613Zm0 0"/><path fill="#1c2537" d="m250.723 152.883 16.183.644-1.824 19.106ZM266.906 153.527l9.906-9.136.735 15.629ZM266.906 153.527l-16.183-.644 16.726-16.723Zm0 0"/><path fill="#1d2537" d="m276.813 144.39-9.907 9.137.543-17.367Zm0 0"/><path fill="#903b41" d="m360.297 356.477-36.817 3.808 13.797-14.578Zm0 0"/><path fill="#74323b" d="m323.48 360.285 36.817-3.808-9.61 27.523Zm0 0"/><path fill="#5c2834" d="m319.61 326.16 17.75 5.41-.083 14.137Zm0 0"/><path fill="#7a2c36" d="m337.36 331.57-17.75-5.41 18.367-3.855Zm0 0"/><path fill="#985c5c" d="m47.176 278.688 16.527-12.172 14.188 11.25Zm0 0"/><path fill="#979b91" d="m63.703 266.516 26.02-3.266-11.832 14.516Zm0 0"/><path fill="#99393e" d="m89.723 263.25-26.02 3.266 12.39-17.871Zm0 0"/><path fill="#992931" d="m63.703 266.516.438-17.95 11.953.079Zm0 0"/><path fill="#83353d" d="m131.004 309.766-3.79-16.395 15.817 4.277Zm0 0"/><path fill="#2a293a" d="m131.004 309.766 12.027-12.118-2.101 16.961Zm0 0"/><path fill="#52323e" d="m120.898 327.563 10.106-17.797 9.926 4.843Zm0 0"/><path fill="#975c5c" d="m115.645 309.492 5.253 18.07-16.945-3.601Zm0 0"/><path fill="#955b5c" d="m115.645 309.492 15.359.274-10.106 17.796Zm0 0"/><path fill="#977874" d="m158.29 325.563-10.048 13.671-7.312-24.625Zm0 0"/><path fill="#312a39" d="m115.645 309.492-11.692 14.469-8.14-25.965Zm0 0"/><path fill="#97857f" d="m95.813 297.996 8.14 25.965-16.68-5.266Zm0 0"/><path fill="#986161" d="m20.855 246.32 20.008 14.52-24.035 8.137Zm0 0"/><path fill="#943c41" d="m40.863 260.84 6.313 17.848-30.348-9.711Zm0 0"/><path fill="#95393f" d="m40.863 260.84-20.008-14.52 17.38.66Zm0 0"/><path fill="#96b3a6" d="m174.707 359.73-25.934-.605 19.559-11.273Zm0 0"/><path fill="#984649" d="m148.773 359.125 25.934.605-24.695 10.711Zm0 0"/><path fill="#1f2637" d="m108.645 337.27 27.308 12.64-4.703 11.727Zm0 0"/><path fill="#99474a" d="m239.34 334.363-30.922 26.825 6.402-28.168Zm0 0"/><path fill="#8a464b" d="M202.016 311.117 189.59 342.86l-5.399-25.273Zm0 0"/><path fill="#986b68" d="m77.89 277.766 11.833-14.516 18.047 16.281Zm0 0"/><path fill="#933a40" d="m372.387 315.469 5.531-17.766 6.094 19.266Zm0 0"/><path fill="#94373d" d="m372.387 315.469-9.965-8.117 15.496-9.649Zm0 0"/><path fill="#312636" d="m319.953 305.273 26.36 9.766-8.336 7.266Zm0 0"/><path fill="#99353b" d="m346.313 315.04 5.734 17.382-14.07-10.117Zm0 0"/><path fill="#292637" d="m351.145 294.23-4.832 20.81-9.293-17.235Zm0 0"/><path fill="#1d2637" d="m346.313 315.04-26.36-9.767 17.067-7.468Zm0 0"/><path fill="#972d34" d="m346.313 315.04 16.109-7.688-10.375 25.07Zm0 0"/><path fill="#272637" d="m362.422 307.352-16.11 7.687 4.833-20.809Zm0 0"/><path fill="#1e2637" d="m323.48 360.285-12.925-25.289 26.722 10.711Zm0 0"/><path fill="#523440" d="m310.555 334.996 12.925 25.29-16.02 2.25Zm0 0"/><path fill="#322636" d="m310.555 334.996 9.054-8.836 17.668 19.547Zm0 0"/><path fill="#352b3a" d="m127.215 293.371-11.57 16.121-7.875-29.96Zm0 0"/><path fill="#969f95" d="m115.645 309.492 11.57-16.12 3.789 16.394Zm0 0"/><path fill="#79313a" d="M39.848 296.602 34.28 327.14l-9.191-33.426Zm0 0"/><path fill="#242637" d="m39.848 296.602 27.609.968-16.871 20.637Zm0 0"/><path fill="#1e2637" d="m149.055 348.758-.813-9.524 20.09 8.618Zm0 0"/><path fill="#1e2637" d="m148.773 359.125.282-10.367 19.277-.906Zm0 0"/><path fill="#262637" d="m120.898 327.563 15.055 22.347-27.308-12.64Zm0 0"/><path fill="#973138" d="m214.82 333.02-6.402 28.168-18.828-18.329Zm0 0"/><path fill="#342838" d="m168.332 347.852 15.86-30.266 5.398 25.273Zm0 0"/><path fill="#976866" d="m174.707 359.73-6.375-11.878 21.258-4.993Zm0 0"/><path fill="#2e2737" d="m184.191 317.586-15.859 30.266-10.043-22.29Zm0 0"/><path fill="#d9f1e8" d="m111.219 190.383 7.941 17.004-22.867.062ZM96.633 186.262l14.586 4.12-14.926 17.067Zm0 0"/><path fill="#daf2e9" d="m119.16 207.387-7.941-17.004 16.02 2.41Zm0 0"/><path fill="#3b2534" d="m127.238 192.793-16.02-2.41 19.087-11.988Zm0 0"/><path fill="#6d232f" d="m111.219 190.383-8.16-14.961 27.246 2.973Zm0 0"/><path fill="#532432" d="m111.219 190.383-14.586-4.121 6.426-10.84Zm0 0"/><path fill="#987a75" d="m89.723 263.25 27.367 1.684-9.32 14.597Zm0 0"/><path fill="#99393e" d="m117.09 264.934-27.367-1.684 10.449-12.398Zm0 0"/><path fill="#442837" d="m39.848 296.602 10.738 21.605-16.305 8.934Zm0 0"/><path fill="#96b3a6" d="m50.586 318.207 4.426 21.387-20.73-12.453Zm0 0"/><path fill="#1d2637" d="m149.055 348.758-13.102 1.152 12.29-10.676ZM135.953 349.91l13.102-1.152-.282 10.367Zm0 0"/><path fill="#673841" d="m135.953 349.91 12.82 9.215-17.523 2.512Zm0 0"/><path fill="#96a499" d="m214.82 333.02-25.23 9.84 12.426-31.743Zm0 0"/><path fill="#733840" d="M226.188 320.195 214.82 333.02l-12.804-21.903Zm0 0"/></svg>