<svg xmlns="http://www.w3.org/2000/svg" width="512" height="512" viewBox="0 0 384 384"><path fill="#ded684" d="m90.547 187.184-28.313 32.148-12.964-57.883Zm0 0"/><path fill="#ded684" d="m90.805 156.434-.258 30.75-41.277-25.735ZM44.047 100.945l5.223 60.504L0 135.164ZM82.023 384l-47.812-54.297 43.621 21.332Zm0 0"/><path fill="#ded584" d="m318.672 151.543 65.328-4.09-41.156 46.102Zm0 0"/><path fill="#ded684" d="M384 147.453v74.406l-41.156-28.304Zm0 0"/><path fill="#ded684" d="m358.324 237.89-15.48-44.335L384 221.859Zm0 0"/><path fill="#36280c" d="m254.625 269.328-4.73 20.152-14.98 1.055Zm0 0"/><path fill="#362709" d="m254.625 269.328 8.117 9.164-12.847 10.988Zm0 0"/><path fill="#ed702c" d="m243.266 233.844-17.243 18.258 1-13.817Zm0 0"/><path fill="#e36c2a" d="m239.941 218.34 3.325 15.504-16.243 4.441Zm0 0"/><path fill="#ea6f2c" d="m243.266 233.844 1.613 20.594-18.856-2.336Zm0 0"/><path fill="#ded684" d="m112.598 109.492-31.114 5.711 32.121-29.398ZM108.813 68.793l-27 9.687 12.796-29.976ZM81.813 78.48l-37.766 22.465L49.574 50.7Zm0 0"/><path fill="#ded684" d="M94.61 48.504 81.812 78.48 49.574 50.7ZM74.613 0 94.61 48.504l-45.035 2.195ZM0 217.445l62.234 1.887-23.015 58.586Zm0 0"/><path fill="#ded684" d="M0 304.465v-87.02l39.219 60.473Zm0 0"/><path fill="#af4e32" d="m88.375 309.645-22.176-2.692 32.621-31.242Zm0 0"/><path fill="#ded684" d="M62.234 219.332 0 217.445l49.27-55.996Zm0 0"/><path fill="#ded684" d="M0 217.445v-82.28l49.27 26.284ZM62.234 219.332l28.313-32.148 15.785 32.058ZM62.234 219.332l44.098-.09-16.648 34.871ZM77.832 351.035l36.633.125L82.023 384Zm0 0"/><path fill="#ded684" d="m82.023 384 32.442-32.84 21.082 9.707ZM0 384v-79.535l34.21 25.238Zm0 0"/><path fill="#dfd785" d="M330.465 48.695 276.37 64.813 278.387 0Zm0 0"/><path fill="#bb5d21" d="m108.453 168.387 22.074-6 3.383 20.617Zm0 0"/><path fill="#c19967" d="m157.438 207.613-.907-25.644 23.836 20.164Zm0 0"/><path fill="#ded684" d="m90.547 187.184 22.547 10.691-6.762 21.367Zm0 0"/><path fill="#222213" d="m226.023 252.102-19.175 5.66 20.175-19.477Zm0 0"/><path fill="#ded684" d="m241.992 36.73 34.38 28.083-39.974-9.036ZM244.012 92.559l32.36-27.746 5.503 52.19Zm0 0"/><path fill="#412a04" d="m244.879 254.438 24.234-6.094-14.488 20.984Zm0 0"/><path fill="#452c05" d="m269.113 248.344-24.234 6.094-1.613-20.594Zm0 0"/><path fill="#e76e2b" d="m244.879 254.438-2.469 12.113-16.387-14.45Zm0 0"/><path fill="#3b2806" d="m242.41 266.55 2.469-12.113 9.746 14.891Zm0 0"/><path fill="#38290a" d="m242.41 266.55 12.215 2.778-19.71 21.207Zm0 0"/><path fill="#dfd684" d="m330.516 332.645-21.34 19.656-8.453-12.957Zm0 0"/><path fill="#ded684" d="M309.176 352.3 324.43 384l-38.657-20.46Zm0 0"/><path fill="#fc7730" d="m337.04 274.277-42.403-17.441 32.043-13.227Zm0 0"/><path fill="#dfd685" d="M324.43 384h-78.735l40.078-20.46Zm0 0"/><path fill="#ded684" d="m245.625 354.094 17.242 3.351L245.695 384Zm0 0"/><path fill="#ded685" d="m226.316 358.05 19.309-3.956.07 29.906Zm0 0"/><path fill="#ded684" d="M126.266 0h69.433l-52.52 21.086ZM109.742 26.664 74.613 0h51.653Zm0 0"/><path fill="#ded684" d="M109.742 26.664 94.61 48.504 74.613 0ZM106.836 141.457l-25.352-26.254 31.114-5.71Zm0 0"/><path fill="#ded684" d="M44.047 100.945 81.813 78.48l-.329 36.723Zm0 0"/><path fill="#ded684" d="m81.484 115.203.329-36.723 31.792 7.325ZM81.813 78.48l27-9.687 4.792 17.012ZM195.7 0l-23.305 28.094-29.215-7.008ZM0 135.164v-61.52l44.047 27.301Zm0 0"/><path fill="#ded684" d="M44.047 100.945 0 73.645l49.574-22.946Zm0 0"/><path fill="#ded684" d="M0 0h74.613L49.574 50.7Zm0 0"/><path fill="#ded684" d="M0 73.645V0l49.574 50.7ZM34.21 329.703 0 304.465l39.219-26.547ZM66.2 306.953l23.484-52.84 9.136 21.598Zm0 0"/><path fill="#ded684" d="m39.219 277.918 50.465-23.805-23.485 52.84ZM89.684 254.113l-50.465 23.805 23.015-58.586ZM106.332 219.242l19.55 23.254-36.198 11.617ZM114.465 351.16l-36.633-.125 29.016-15.773Zm0 0"/><path fill="#ded684" d="m77.832 351.035 1.672-19.59 27.344 3.817Zm0 0"/><path fill="#ded584" d="m120.387 338.441-5.922 12.72-7.617-15.9Zm0 0"/><path fill="#ded684" d="M82.023 384H0l34.21-54.297ZM34.21 329.703l32.337 2.742 11.285 18.59Zm0 0"/><path fill="#ded684" d="m66.547 332.445 12.957-1-1.672 19.59Zm0 0"/><path fill="#dfd785" d="m384 74.29-53.535-25.595L384 0Zm0 0"/><path fill="#ded684" d="M330.465 48.695 278.387 0H384Zm0 0"/><path fill="#dfd684" d="m276.371 64.813 54.094-16.118-1.434 51.059Zm0 0"/><path fill="#ded684" d="m318.672 151.543 10.36-51.79 54.968 47.7Zm0 0"/><path fill="#dfd684" d="m329.031 99.754-10.36 51.789-36.796-34.54Zm0 0"/><path fill="#dfd785" d="m276.371 64.813 52.66 34.94-47.156 17.25Zm0 0"/><path fill="#c56628" d="m108.453 168.387.703-11.856 21.371 5.856Zm0 0"/><path fill="#ded684" d="m109.156 156.531-18.351-.097 16.03-14.977ZM90.805 156.434l18.351.097-.703 11.856Zm0 0"/><path fill="#b08e5f" d="m156.531 181.969-22.62 1.035-3.384-20.617Zm0 0"/><path fill="#d56727" d="m239.941 218.34-34.886 17.82-4.93-25.504Zm0 0"/><path fill="#4c2f09" d="m206.848 257.762-1.793-21.602 21.968 2.125Zm0 0"/><path fill="#d16526" d="m205.055 236.16 34.886-17.82-12.918 19.945Zm0 0"/><path fill="#ded684" d="m278.387 0-2.016 64.813-34.379-28.083Zm0 0"/><path fill="#dfd785" d="M228.82 19.617 195.7 0h82.687Zm0 0"/><path fill="#ded684" d="m232.594 112.355 49.281 4.649-29.516 23.676Zm0 0"/><path fill="#dfd684" d="m281.875 117.004-1.25 38.676-28.266-15Zm0 0"/><path fill="#fe7831" d="m280.625 155.68-31.328 13.832 3.062-28.832Zm0 0"/><path fill="#ded684" d="m235.14 74.75 1.258-18.973 39.973 9.035ZM244.012 92.559 235.14 74.75l41.23-9.937Zm0 0"/><path fill="#b75a1f" d="m276.645 231.848-33.38 1.996-3.324-15.504Zm0 0"/><path fill="#c35f22" d="m276.645 231.848-7.532 16.496-25.847-14.5Zm0 0"/><path fill="#ded684" d="m322.828 222.531-15.152-24.277 35.168-4.7ZM358.324 237.89l-35.496-15.359 20.016-28.976Zm0 0"/><path fill="#cbaa64" d="m200.125 210.656-19.758-8.523 12.961-12.188Zm0 0"/><path fill="#fe7831" d="m224.934 139.965-10.52-15.805 13.348-4.117Zm0 0"/><path fill="#492e06" d="m269.113 248.344 7.465 17.367-21.953 3.617Zm0 0"/><path fill="#392908" d="m276.578 265.71-13.836 12.782-8.117-9.164Zm0 0"/><path fill="#d96828" d="m276.578 265.71 1.238 14.224-15.074-1.442Zm0 0"/><path fill="#ded684" d="M384 384h-59.57l31.297-40.895Zm0 0"/><path fill="#5b3611" d="m275.309 328.887 12.214 8.972-17.937.246Zm0 0"/><path fill="#212214" d="m263.828 323.176 11.48 5.71-5.722 9.22Zm0 0"/><path fill="#ded684" d="m324.43 384-15.254-31.7 21.34-19.655ZM324.43 384l6.086-51.355 25.21 10.46ZM337.04 274.277l21.284-36.386-3.86 76.304ZM358.324 237.89l-21.285 36.387-10.36-30.668Zm0 0"/><path fill="#f8752f" d="m337.04 274.277-34.895 14.473-7.508-31.914Zm0 0"/><path fill="#fe7730" d="m310.723 320.363 19.793 12.282-29.793 6.699Zm0 0"/><path fill="#fa762f" d="m310.723 320.363-10 18.98-4.75-18.683Zm0 0"/><path fill="#ded684" d="m129.266 31.543-3-31.543 16.914 21.086Zm0 0"/><path fill="#ded684" d="m129.266 31.543-19.524-4.879L126.266 0ZM120.57 59.953l-11.757 8.84-14.204-20.29Zm0 0"/><path fill="#ded584" d="m121.473 87.734-8.875 21.758 1.007-23.687Zm0 0"/><path fill="#e56d2b" d="m122.156 128.746-15.32 12.711 5.762-31.965Zm0 0"/><path fill="#ded684" d="M81.484 115.203 49.27 161.45l-5.223-60.504ZM225.219 33.152l-6.942 4.094-4.554-10.445ZM225.219 33.152l3.601-13.535 13.172 17.113Zm0 0"/><path fill="#ded684" d="m228.82 19.617-3.601 13.535-11.496-6.351ZM228.82 19.617 278.387 0l-36.395 36.73ZM225.914 44.684l16.078-7.954-5.594 19.047Zm0 0"/><path fill="#ded684" d="m225.914 44.684-.695-11.532 16.773 3.578Zm0 0"/><path fill="#202215" d="m225.914 44.684-7.637-7.438 6.942-4.094ZM218.277 37.246l7.637 7.438-9.976 2.367Zm0 0"/><path fill="#ded684" d="m172.395 28.094 23.078.949-13.157 11.922ZM195.473 29.043l-23.078-.95L195.699 0Zm0 0"/><path fill="#ded684" d="m172.395 28.094 9.921 12.87-14.09 2.895ZM198.422 364.098l27.894-6.047L245.696 384ZM114.465 351.16l17.172-6.437 3.91 16.144ZM120.387 338.441l11.25 6.282-17.172 6.437Zm0 0"/><path fill="#573309" d="m119.145 330.777.175-20.558 11.594 8.742Zm0 0"/><path fill="#ded584" d="m119.145 330.777 1.242 7.664-13.54-3.18Zm0 0"/><path fill="#95433e" d="m66.2 306.953.347 25.492-32.336-2.742Zm0 0"/><path fill="#914130" d="m66.2 306.953 22.175 2.692-8.871 21.8Zm0 0"/><path fill="#873b35" d="m66.547 332.445-.348-25.492 13.305 24.492Zm0 0"/><path fill="#ded684" d="m39.219 277.918 26.98 29.035-31.988 22.75ZM329.031 99.754 384 74.289v73.164Zm0 0"/><path fill="#ded684" d="m384 74.29-54.969 25.464 1.434-51.059Zm0 0"/><path fill="#e3964e" d="m122.156 128.746.985 18.488-16.305-5.777Zm0 0"/><path fill="#d56a29" d="m123.14 147.234-13.984 9.297-2.32-15.074Zm0 0"/><path fill="#cb6425" d="m109.156 156.531 13.985-9.297 7.386 15.153Zm0 0"/><path fill="#695539" d="m180.508 168.934-.14 33.199-23.837-20.164Zm0 0"/><path fill="#ded684" d="m193.328 189.945-.36-24.086 18.766-7.945Zm0 0"/><path fill="#ded584" d="m180.508 168.934 12.46-3.075-12.6 36.274Zm0 0"/><path fill="#fc7c34" d="m188.586 94.137 12.57-12.176-2.312 21.418Zm0 0"/><path fill="#bb8e62" d="m157.438 207.613-14.59-5.246 13.683-20.398Zm0 0"/><path fill="#a2571e" d="m142.848 202.367-6.852 18.446-9.07-19.563Zm0 0"/><path fill="#c5a16b" d="m148.45 233.95-12.454-13.137 26.844.523Zm0 0"/><path fill="#ded684" d="m135.996 220.813 12.453 13.136-22.566 8.547ZM106.332 219.242l6.762-21.367 13.832 3.375ZM135.996 220.813l-29.664-1.57 20.594-17.993Zm0 0"/><path fill="#ded684" d="m106.332 219.242 29.664 1.57-10.113 21.684Zm0 0"/><path fill="#ded584" d="m113.094 197.875 5.594-11.324 8.238 14.699Zm0 0"/><path fill="#d56727" d="m221.434 275.973 20.976-9.422-7.496 23.984Zm0 0"/><path fill="#202214" d="m221.434 275.973-14.586-18.211 19.175-5.66Zm0 0"/><path fill="#db6928" d="m242.41 266.55-20.976 9.423 4.59-23.871Zm0 0"/><path fill="#202214" d="m206.848 257.762 14.586 18.21-15.621 13.637Zm0 0"/><path fill="#ded684" d="M195.473 29.043 195.699 0l18.024 26.8Zm0 0"/><path fill="#ded684" d="m195.7 0 33.12 19.617-15.097 7.184Zm0 0"/><path fill="#202215" d="m225.914 44.684-1.035 9.46-8.941-7.093Zm0 0"/><path fill="#ded684" d="m224.879 54.145 1.035-9.461 10.484 11.093Zm0 0"/><path fill="#fd7730" d="m249.297 169.512-13.488-19.207 16.55-9.625Zm0 0"/><path fill="#fe7831" d="m214.414 124.16 7.246-12.8 6.102 8.683Zm0 0"/><path fill="#fe7831" d="m190.41 124.383 16.906-8.367 7.098 8.144Zm0 0"/><path fill="#fe7831" d="m207.316 116.016 14.344-4.657-7.246 12.801Zm0 0"/><path fill="#c76123" d="m266.313 206.488 10.332 25.36-36.704-13.508Zm0 0"/><path fill="#fe7831" d="m266.313 206.488 28.972-30.234 12.39 22Zm0 0"/><path fill="#c25f22" d="M266.313 206.488 239.94 218.34l9.356-48.828Zm0 0"/><path fill="#fb7630" d="m274.758 173.406-8.445 33.082-17.016-36.976Zm0 0"/><path fill="#fe7730" d="m266.313 206.488 8.445-33.082 20.527 2.848ZM274.758 173.406l-25.461-3.894 31.328-13.832Zm0 0"/><path fill="#fd7730" d="m303.57 224.574-37.257-18.086 41.363-8.234Zm0 0"/><path fill="#f0722d" d="m266.313 206.488 37.257 18.086-26.925 7.274Zm0 0"/><path fill="#fe7730" d="m322.828 222.531-19.258 2.043 4.106-26.32Zm0 0"/><path fill="#cfb575" d="m183.914 225.992-9.492 12.125-11.582-16.781Zm0 0"/><path fill="#d2bc78" d="m174.422 238.117 9.492-12.125 4.106 14.403Zm0 0"/><path fill="#dacd80" d="m180.367 202.133 19.758 8.523-16.21 15.336Zm0 0"/><path fill="#cdb173" d="m180.367 202.133-17.527 19.203-5.403-13.723Zm0 0"/><path fill="#d6c47c" d="m180.367 202.133 3.547 23.86-21.074-4.657Zm0 0"/><path fill="#ec722d" d="m214.586 193.707-21.258-3.762 18.406-32.03Zm0 0"/><path fill="#fe7730" d="m235.809 150.305-10.875-10.34 2.828-19.922Zm0 0"/><path fill="#fe7831" d="m252.36 140.68-16.551 9.625-8.047-30.262Zm0 0"/><path fill="#252312" d="m225 324.23 9.914-33.695 12.145 20.969Zm0 0"/><path fill="#292412" d="m247.059 311.504-12.145-20.969 14.98-1.055Zm0 0"/><path fill="#222213" d="m239.098 329.031-14.098-4.8 22.059-12.727Zm0 0"/><path fill="#272412" d="m250.652 327.777-11.554 1.254 7.96-17.527Zm0 0"/><path fill="#5c3819" d="m239.098 329.031-5.809 11.903L225 324.23Zm0 0"/><path fill="#ded684" d="M384 320.582V384l-28.273-40.895Zm0 0"/><path fill="#ded684" d="M354.465 314.195 384 320.582l-28.273 22.523Zm0 0"/><path fill="#ded684" d="m330.516 332.645 23.949-18.45 1.262 28.91Zm0 0"/><path fill="#fe7730" d="m330.516 332.645-19.793-12.282 18.609-7.64Zm0 0"/><path fill="#ded684" d="m329.332 312.723 7.707-38.446 17.426 39.918Zm0 0"/><path fill="#fe7730" d="m329.332 312.723-27.187-23.973 34.894-14.473Zm0 0"/><path fill="#ded684" d="m354.465 314.195-23.95 18.45-1.183-19.922ZM287.523 337.86l-14.843 12.617-3.094-12.372Zm0 0"/><path fill="#ded684" d="m272.68 350.477 13.093 13.062-22.906-6.094ZM285.773 363.54 245.695 384l17.172-26.555Zm0 0"/><path fill="#a6541b" d="m300.723 339.344-13.2-1.485 8.45-17.199Zm0 0"/><path fill="#f4732e" d="m278.11 298.746-.294-18.812 24.329 8.816Zm0 0"/><path fill="#d16526" d="m277.816 279.934.293 18.812-15.367-20.254Zm0 0"/><path fill="#a0511b" d="m262.742 278.492-1.984 18.63-10.863-7.642Zm0 0"/><path fill="#64380e" d="m260.758 297.121-13.7 14.383 2.837-22.024Zm0 0"/><path fill="#a6531c" d="m278.11 298.746-17.352-1.625 1.984-18.629Zm0 0"/><path fill="#7d4312" d="m260.758 297.121 17.351 1.625-11.757 11.828Zm0 0"/><path fill="#ded684" d="m384 320.582-25.676-82.691L384 221.859Zm0 0"/><path fill="#ded684" d="M358.324 237.89 384 320.583l-29.535-6.387Zm0 0"/><path fill="#fe7730" d="m326.68 243.61-32.043 13.226 8.933-32.262Zm0 0"/><path fill="#f5742e" d="m303.57 224.574-8.933 32.262-17.992-24.988Zm0 0"/><path fill="#c46022" d="m294.637 256.836-25.524-8.492 7.532-16.496Zm0 0"/><path fill="#673a0d" d="m294.637 256.836-18.059 8.875-7.465-17.367Zm0 0"/><path fill="#ed702c" d="m302.145 288.75-25.567-23.04 18.059-8.874Zm0 0"/><path fill="#f6742e" d="m276.578 265.71 25.567 23.04-24.329-8.816Zm0 0"/><path fill="#202214" d="m260.2 335.367 3.628-12.191 5.758 14.93ZM263.828 323.176l-3.629 12.191-9.547-7.59Zm0 0"/><path fill="#202214" d="m260.2 335.367-6.942 5.84-2.606-13.43Zm0 0"/><path fill="#ded684" d="m253.258 341.207 3.07 6.406-10.703 6.48ZM245.625 354.094l10.703-6.48 6.54 9.831Zm0 0"/><path fill="#ded584" d="m135.934 34.691-6.668-3.148 13.914-10.457Zm0 0"/><path fill="#202214" d="m129.266 31.543 6.668 3.148-14.243 13.59Zm0 0"/><path fill="#ded684" d="m115.566 49.336 5.004 10.617-25.96-11.45Zm0 0"/><path fill="#ded684" d="m120.57 59.953-5.004-10.617 6.125-1.055ZM109.742 26.664l5.895 14.914-21.028 6.926Zm0 0"/><path fill="#ded684" d="m129.266 31.543-13.63 10.035-5.894-14.914ZM115.637 41.578l-.07 7.758-20.958-.832ZM115.637 41.578l13.629-10.035-7.575 16.738Zm0 0"/><path fill="#ded684" d="m115.566 49.336.07-7.758 6.055 6.703ZM168.227 43.86l9.84 9.09-8.766 4.124ZM108.813 68.793l10.992 2.254-6.2 14.758Zm0 0"/><path fill="#ded684" d="m120.57 59.953-.765 11.094-10.993-2.254ZM81.484 115.203l25.352 26.254-16.031 14.977ZM81.484 115.203l9.32 41.23-41.534 5.016Zm0 0"/><path fill="#212215" d="m221.426 74.469-20.27 7.492 10.223-21.098Zm0 0"/><path fill="#fc7932" d="m198.445 59.664 4.758-13.195 8.176 14.394Zm0 0"/><path fill="#fb7b33" d="m201.156 81.96-2.71-22.296 12.933 1.2Zm0 0"/><path fill="#f1742f" d="m198.445 59.664 2.711 22.297-13.39-8.215Zm0 0"/><path fill="#222214" d="m198.445 59.664-10.68 14.082.2-21.84Zm0 0"/><path fill="#ded684" d="m172.395 28.094-27.243 9.058-1.972-16.066Zm0 0"/><path fill="#ded684" d="m145.152 37.152 27.243-9.058-4.168 15.765Zm0 0"/><path fill="#ded584" d="m145.152 37.152-9.218-2.46 7.246-13.606Zm0 0"/><path fill="#ded684" d="m155.137 52.426-9.985-15.274 23.075 6.707Zm0 0"/><path fill="#202214" d="m203.203 46.469-4.758 13.195-10.48-7.758Zm0 0"/><path fill="#202215" d="m203.203 46.469 4.129-7.074 8.606 7.656Zm0 0"/><path fill="#dfd785" d="m196.465 40.98-8.5 10.926-5.649-10.941Zm0 0"/><path fill="#ded684" d="m196.465 40.98 6.738 5.489-15.238 5.437Zm0 0"/><path fill="#ded684" d="m203.203 46.469-6.738-5.489 10.867-1.585ZM218.277 37.246l-10.945 2.149 6.39-12.594Zm0 0"/><path fill="#202215" d="m207.332 39.395 10.945-2.149-2.34 9.805Zm0 0"/><path fill="#ded684" d="m195.473 29.043.992 11.937-14.149-.015Zm0 0"/><path fill="#ded684" d="m196.465 40.98-.992-11.937 11.859 10.352Zm0 0"/><path fill="#ded684" d="m207.332 39.395-11.86-10.352 18.25-2.242Zm0 0"/><path fill="#d56828" d="m148.828 81.676 17.684 15.922-19.024-5.785Zm0 0"/><path fill="#9f511a" d="m148.828 81.676-1.34 10.136-9.148-2.078Zm0 0"/><path fill="#ded684" d="m125.883 242.496-2.805 23.563-33.394-11.946ZM166.008 377.871 245.695 384H82.023Zm0 0"/><path fill="#ded684" d="m135.547 360.867 30.46 17.004L82.024 384ZM198.422 364.098 245.695 384l-79.687-6.129ZM130.605 332.027l1.032 12.696-11.25-6.282Zm0 0"/><path fill="#462d0a" d="m130.605 332.027-11.46-1.25 11.77-11.816Zm0 0"/><path fill="#ded684" d="m119.145 330.777 11.46 1.25-10.218 6.414Zm0 0"/><path fill="#884319" d="m106.39 327.305-18.015-17.66 30.945.574Zm0 0"/><path fill="#5f350d" d="m119.145 330.777-12.754-3.472 12.93-17.086Zm0 0"/><path fill="#5d351a" d="m106.39 327.305 12.755 3.472-12.297 4.485Zm0 0"/><path fill="#884227" d="m79.504 331.445 26.887-4.14.457 7.957Zm0 0"/><path fill="#8b4424" d="m88.375 309.645 18.016 17.66-26.887 4.14Zm0 0"/><path fill="#ded684" d="m192.969 165.86.36 24.085-12.962 12.188Zm0 0"/><path fill="#fc7730" d="m177.266 113.602 11.32-19.465 10.258 9.242Zm0 0"/><path fill="#7c4316" d="m177.266 113.602-8.508 3.394-2.246-19.398Zm0 0"/><path fill="#f77630" d="m188.586 94.137-11.32 19.465-10.754-16.004Zm0 0"/><path fill="#ded684" d="m199.426 147.813-6.457 18.046-1.77-8.488Zm0 0"/><path fill="#ded684" d="m192.969 165.86 6.457-18.048 12.308 10.102Zm0 0"/><path fill="#e3c978" d="m197.762 135.125-7.352-10.742 24.004-.223Zm0 0"/><path fill="#c6a56d" d="m157.438 207.613-21.442 13.2 6.852-18.446Zm0 0"/><path fill="#d0b976" d="m135.996 220.813 21.441-13.2 5.403 13.723Zm0 0"/><path fill="#c46123" d="m118.688 186.55-10.235-18.163 25.457 14.617Zm0 0"/><path fill="#743d14" d="m190.063 268.352 15.75 21.257-20.72 6.102Zm0 0"/><path fill="#d9cb7f" d="m200.125 210.656 4.93 25.504-21.14-10.168Zm0 0"/><path fill="#d2bc78" d="m183.914 225.992 21.14 10.168-17.034 4.235Zm0 0"/><path fill="#683e24" d="m205.055 236.16 1.793 21.602-18.828-17.367Zm0 0"/><path fill="#e26d2a" d="m239.941 218.34-39.816-7.684 14.46-16.949Zm0 0"/><path fill="#202215" d="m224.879 54.145-13.5 6.718 4.559-13.812Zm0 0"/><path fill="#fa7730" d="m211.379 60.863-8.176-14.394 12.734.582Zm0 0"/><path fill="#ded684" d="m232.594 112.355 19.765 28.325-24.597-20.637ZM232.594 112.355l11.418-19.796 37.863 24.445Zm0 0"/><path fill="#f4732e" d="m191.828 116.96 15.488-.944-16.906 8.367Zm0 0"/><path fill="#fa7630" d="m191.828 116.96-14.562-3.358 21.578-10.223Zm0 0"/><path fill="#ded684" d="m221.426 74.469 1.883-10.942L235.14 74.75ZM235.14 74.75 223.31 63.527l13.09-7.75Zm0 0"/><path fill="#ded684" d="m223.309 63.527 1.57-9.382 11.52 1.632Zm0 0"/><path fill="#352a17" d="m223.309 63.527-1.883 10.942-10.047-13.606Zm0 0"/><path fill="#212215" d="m223.309 63.527-11.93-2.664 13.5-6.718Zm0 0"/><path fill="#ded684" d="m218.133 97.422 3.293-22.953 13.715.281Zm0 0"/><path fill="#fd7831" d="m218.133 97.422 3.527 13.937-22.816-7.98Zm0 0"/><path fill="#fa8239" d="m201.156 81.96 16.977 15.462-19.29 5.957Zm0 0"/><path fill="#4b361c" d="m221.426 74.469-3.293 22.953-16.977-15.461Zm0 0"/><path fill="#ded684" d="M218.133 97.422 235.14 74.75l8.87 17.809ZM358.324 237.89l-31.644 5.72-3.852-21.079Zm0 0"/><path fill="#fe7730" d="m326.68 243.61-23.11-19.036 19.258-2.043Zm0 0"/><path fill="#fe7831" d="m274.758 173.406 5.867-17.726 14.66 20.574Zm0 0"/><path fill="#ded684" d="m280.625 155.68 38.047-4.137-23.387 24.71Zm0 0"/><path fill="#ded684" d="m318.672 151.543-38.047 4.137 1.25-38.676Zm0 0"/><path fill="#f7752f" d="m214.586 193.707 34.71-24.195-9.355 48.828Zm0 0"/><path fill="#fe7730" d="m235.809 150.305-21.223 43.402-2.852-35.793Zm0 0"/><path fill="#fb7730" d="m214.586 193.707 21.223-43.402 13.488 19.207Zm0 0"/><path fill="#ded684" d="m211.734 157.914-12.308-10.101 7.457-8.395Zm0 0"/><path fill="#fc7832" d="m235.809 150.305-24.075 7.61 13.2-17.95Zm0 0"/><path fill="#5f350f" d="m202.758 314.523-14.063 7.582-3.601-26.394Zm0 0"/><path fill="#773d15" d="m205.813 289.61-3.055 24.913-17.664-18.812Zm0 0"/><path fill="#ded684" d="m233.75 347.477 11.875 6.617-19.309 3.957Zm0 0"/><path fill="#dfd684" d="m285.773 363.54-13.093-13.063 14.843-12.618Zm0 0"/><path fill="#ded684" d="m300.723 339.344-14.95 24.195 1.75-25.68ZM285.773 363.54l14.95-24.196 8.453 12.957Zm0 0"/><path fill="#a8541c" d="m276.8 316.344 10.723 21.515-12.214-8.972Zm0 0"/><path fill="#ee712d" d="m276.8 316.344 1.31-17.598 17.863 21.914Zm0 0"/><path fill="#64390d" d="m278.11 298.746-1.31 17.598-10.448-5.77Zm0 0"/><path fill="#62370d" d="m247.059 311.504 13.699-14.383 5.594 13.453Zm0 0"/><path fill="#ded684" d="m256.328 347.613 5.906-4.324.633 14.156Zm0 0"/><path fill="#202215" d="m262.234 343.29-2.035-7.923 9.387 2.738Zm0 0"/><path fill="#202215" d="m260.2 335.367 2.034 7.922-8.976-2.082Zm0 0"/><path fill="#ded684" d="m262.234 343.29-5.906 4.323-3.07-6.406ZM272.68 350.477l-10.446-7.188 7.352-5.184ZM262.234 343.29l10.446 7.187-9.813 6.968Zm0 0"/><path fill="#232213" d="m135.934 34.691 2.738 10.7-16.98 2.89Zm0 0"/><path fill="#774111" d="m142.66 55.809-3.988-10.418 16.465 7.035Zm0 0"/><path fill="#222214" d="m138.672 45.39 6.48-8.238 9.985 15.274Zm0 0"/><path fill="#202214" d="m145.152 37.152-6.48 8.239-2.738-10.7ZM128.082 59.02l14.578-3.211 2.031 9.875Zm0 0"/><path fill="#3e2e15" d="m128.082 59.02-8.277 12.027.765-11.094Zm0 0"/><path fill="#202214" d="m128.082 59.02 10.59-13.63 3.988 10.419Zm0 0"/><path fill="#242414" d="m128.082 59.02-7.512.933 1.121-11.672Zm0 0"/><path fill="#212214" d="m138.672 45.39-10.59 13.63-6.39-10.739Zm0 0"/><path fill="#ded684" d="m155.137 52.426 13.09-8.567 1.074 13.215Zm0 0"/><path fill="#894917" d="m142.66 55.809 12.477-3.383-10.446 13.258Zm0 0"/><path fill="#e3712e" d="m119.805 71.047 1.668 16.687-7.868-1.93Zm0 0"/><path fill="#f9853a" d="m188.586 94.137-.82-20.39 13.39 8.214Zm0 0"/><path fill="#dfd785" d="m168.227 43.86 14.09-2.895-4.25 11.984Zm0 0"/><path fill="#e66e2b" d="m187.766 73.746-9.7-20.797 9.899-1.043Zm0 0"/><path fill="#ded684" d="m178.066 52.95 4.25-11.985 5.649 10.941Zm0 0"/><path fill="#5b360e" d="m160.078 65.688-11.25 15.988-4.137-15.992Zm0 0"/><path fill="#fa7630" d="m160.078 65.688 9.223-8.614-2.79 40.524Zm0 0"/><path fill="#b65c21" d="m148.828 81.676 11.25-15.989 6.434 31.91Zm0 0"/><path fill="#663a0f" d="m155.137 52.426 4.941 13.261-15.387-.003Zm0 0"/><path fill="#fd7831" d="m160.078 65.688-4.941-13.262 14.164 4.648Zm0 0"/><path fill="#ded684" d="M123.078 266.059 98.82 275.71l-9.136-21.598Zm0 0"/><path fill="#994e19" d="m119.32 310.219 14.489-20.985 9.457 15.387Zm0 0"/><path fill="#65390c" d="m119.32 310.219 23.946-5.598-12.352 14.34Zm0 0"/><path fill="#f8752f" d="m133.809 289.234 25.636-23.129-1.324 21.024Zm0 0"/><path fill="#aa925f" d="m163.547 345.031 9.976-6.37 6.504 8.612Zm0 0"/><path fill="#ded684" d="m131.637 344.723 12.886-.57-8.976 16.714Zm0 0"/><path fill="#58330b" d="m143.266 304.621 9.945 22.152-22.297-7.812Zm0 0"/><path fill="#57350d" d="m153.21 326.773-22.605 5.254.31-13.066Zm0 0"/><path fill="#dacd80" d="m149.492 153.078-26.351-5.844 29.207-8.976Zm0 0"/><path fill="#b88e61" d="m149.492 153.078 7.04 28.89-26.005-19.581Zm0 0"/><path fill="#af8b5e" d="m123.14 147.234 26.352 5.844-18.965 9.309Zm0 0"/><path fill="#ded684" d="m194.93 143.598 2.832-8.473 9.12 4.293Zm0 0"/><path fill="#202214" d="m194.93 143.598 4.496 4.214-8.227 9.56Zm0 0"/><path fill="#ded684" d="m199.426 147.813-4.496-4.215 11.953-4.18Zm0 0"/><path fill="#202215" d="m182.465 148.586 12.465-4.988-3.73 13.773Zm0 0"/><path fill="#fb7731" d="m197.762 135.125-2.832 8.473-7.926-4.715Zm0 0"/><path fill="#232416" d="m194.93 143.598-12.465 4.988 4.539-9.703Zm0 0"/><path fill="#c05f22" d="m118.688 186.55 15.222-3.546-6.984 18.246Zm0 0"/><path fill="#b35b20" d="m133.91 183.004 8.938 19.363-15.922-1.117Zm0 0"/><path fill="#b08c5e" d="m142.848 202.367-8.938-19.363 22.621-1.035Zm0 0"/><path fill="#ded684" d="m118.688 186.55-28.141.634 17.906-18.797Zm0 0"/><path fill="#ded684" d="m108.453 168.387-17.906 18.797.258-30.75Zm0 0"/><path fill="#9f4d1f" d="m190.063 268.352 16.785-10.59-1.036 31.847Zm0 0"/><path fill="#794e2f" d="m206.848 257.762-16.786 10.59-2.042-27.957Zm0 0"/><path fill="#212214" d="m172.8 253.508-13.355 12.597-3.289-27.382Zm0 0"/><path fill="#222214" d="m171.91 275.008 18.153-6.656-4.97 27.359Zm0 0"/><path fill="#212214" d="m171.91 275.008 13.184 20.703-26.973-8.582Zm0 0"/><path fill="#222214" d="m159.445 266.105 12.465 8.903-13.789 12.12Zm0 0"/><path fill="#302716" d="m190.063 268.352-18.153 6.656.89-21.5Zm0 0"/><path fill="#202214" d="m171.91 275.008-12.465-8.903 13.356-12.597Zm0 0"/><path fill="#d86928" d="m214.586 193.707-14.461 16.95-6.797-20.712Zm0 0"/><path fill="#202214" d="m185.094 295.71-25.586 11.853-1.387-20.434Zm0 0"/><path fill="#212214" d="m179.453 322.547-19.945-14.985 25.586-11.851Zm0 0"/><path fill="#b75a20" d="m159.508 307.563-16.242-2.942 14.855-17.492Zm0 0"/><path fill="#fd7a33" d="m221.66 111.36 10.934.995-4.832 7.688Zm0 0"/><path fill="#ded684" d="m232.594 112.355-14.461-14.933 25.879-4.863Zm0 0"/><path fill="#dfd684" d="m218.133 97.422 14.46 14.933-10.933-.996Zm0 0"/><path fill="#212215" d="m191.828 116.96 7.016-13.581 8.472 12.637Zm0 0"/><path fill="#fe7730" d="m207.316 116.016-8.472-12.637 22.816 7.98Zm0 0"/><path fill="#ded684" d="m307.676 198.254 6.508-17.832 28.66 13.133Zm0 0"/><path fill="#ded584" d="m314.184 180.422 4.488-28.879 24.172 42.012Zm0 0"/><path fill="#dfd684" d="m295.285 176.254 18.899 4.168-6.508 17.832Zm0 0"/><path fill="#ded684" d="m318.672 151.543-4.488 28.879-18.899-4.168Zm0 0"/><path fill="#d4c07a" d="m174.422 238.117-18.266.606 6.684-17.387Zm0 0"/><path fill="#b6815c" d="m172.8 253.508-16.644-14.785 18.266-.606Zm0 0"/><path fill="#c5a16b" d="m156.156 238.723-7.707-4.774 14.39-12.613Zm0 0"/><path fill="#975a40" d="M190.063 268.352 172.8 253.508l15.219-13.113Zm0 0"/><path fill="#a86b51" d="m172.8 253.508 1.622-15.39 13.598 2.277Zm0 0"/><path fill="#dfd684" d="m211.734 157.914-4.851-18.496 18.05.547Zm0 0"/><path fill="#dfd684" d="m224.934 139.965-18.051-.547 7.531-15.258Zm0 0"/><path fill="#ded684" d="m206.883 139.418-9.121-4.293 16.652-10.965ZM194.629 347.27l3.793 16.828-18.395-16.825Zm0 0"/><path fill="#743d1c" d="m188.695 322.105-9.242.442 5.64-26.836Zm0 0"/><path fill="#9d501a" d="m216.66 300.902 18.254-10.367L225 324.23Zm0 0"/><path fill="#202214" d="m205.813 289.61 10.847 11.292-13.902 13.621Zm0 0"/><path fill="#ac561e" d="m216.66 300.902 4.774-24.93 13.48 14.563Zm0 0"/><path fill="#202214" d="m221.434 275.973-4.774 24.93-10.847-11.294Zm0 0"/><path fill="#ded684" d="m194.629 347.27 17.437.117-13.644 16.71Zm0 0"/><path fill="#272516" d="m233.29 340.934-12.837.894L225 324.23Zm0 0"/><path fill="#ded684" d="m212.066 347.387 14.25 10.664-27.894 6.047ZM226.316 358.05l-14.25-10.663 8.387-5.559ZM233.75 347.477l-13.297-5.649 12.836-.894Zm0 0"/><path fill="#ded684" d="m233.75 347.477-7.434 10.574-5.863-16.223Zm0 0"/><path fill="#202215" d="m243.79 340.832-10.5.102 5.808-11.903Zm0 0"/><path fill="#ded684" d="m243.79 340.832-10.04 6.645-.46-6.543Zm0 0"/><path fill="#202214" d="m250.652 327.777-6.863 13.055-4.691-11.8ZM243.79 340.832l6.862-13.055 2.606 13.43Zm0 0"/><path fill="#ded684" d="m243.79 340.832 9.468.375-7.633 12.887Zm0 0"/><path fill="#ded684" d="m233.75 347.477 10.04-6.645 1.835 13.262Zm0 0"/><path fill="#fa762f" d="m276.8 316.344 19.173 4.316-8.45 17.2Zm0 0"/><path fill="#67390d" d="m263.828 323.176 12.973-6.832-1.492 12.543Zm0 0"/><path fill="#59330a" d="m276.8 316.344-12.972 6.832 2.524-12.602Zm0 0"/><path fill="#65380d" d="m263.828 323.176-16.77-11.672 19.294-.93Zm0 0"/><path fill="#623610" d="m247.059 311.504 16.77 11.672-13.177 4.601Zm0 0"/><path fill="#553412" d="m128.082 59.02 8.086 18.132-16.363-6.105Zm0 0"/><path fill="#6b3c0f" d="m136.168 77.152-14.695 10.582-1.668-16.687Zm0 0"/><path fill="#212214" d="m136.168 77.152-8.086-18.132 16.61 6.664Zm0 0"/><path fill="#734012" d="m121.473 87.734 14.695-10.582 2.172 12.582Zm0 0"/><path fill="#232313" d="m148.828 81.676-12.66-4.524 8.523-11.468Zm0 0"/><path fill="#242313" d="m136.168 77.152 12.66 4.524-10.488 8.058Zm0 0"/><path fill="#fd7730" d="m169.3 57.074 18.466 16.672-21.254 23.852Zm0 0"/><path fill="#fc7932" d="m187.766 73.746.82 20.39-22.074 3.462Zm0 0"/><path fill="#e36d2a" d="M187.766 73.746 169.3 57.074l8.765-4.125Zm0 0"/><path fill="#bd5629" d="m98.82 275.71 20.5 34.509-30.945-.574Zm0 0"/><path fill="#bd5827" d="m119.32 310.219-20.5-34.508 34.989 13.523Zm0 0"/><path fill="#dd6a29" d="m143.266 304.621-9.457-15.387 24.312-2.105Zm0 0"/><path fill="#ded684" d="m135.547 360.867 15.871-6.566 14.59 23.57ZM144.523 344.152l6.895 10.149-15.871 6.566Zm0 0"/><path fill="#ddd483" d="m151.418 354.3-6.895-10.148 19.024.88Zm0 0"/><path fill="#ded684" d="m130.605 332.027 8.114 4.895-7.082 7.8Zm0 0"/><path fill="#202215" d="m138.719 336.922 5.804 7.23-12.886.57Zm0 0"/><path fill="#ddd584" d="m153.21 326.773-14.491 10.149-8.114-4.895Zm0 0"/><path fill="#ded584" d="m180.508 168.934 4.367-10.446 8.094 7.371ZM182.465 148.586l2.41 9.902-16.332-7.332Zm0 0"/><path fill="#ded584" d="m192.969 165.86-8.094-7.372 6.324-1.117Zm0 0"/><path fill="#ddd483" d="m184.875 158.488-2.41-9.902 8.734 8.785ZM182.465 148.586l-7.52-6.395 12.059-3.308Zm0 0"/><path fill="#ded684" d="m174.945 142.191 7.52 6.395-13.922 2.57Zm0 0"/><path fill="#874715" d="m177.266 113.602-1.016 11.261-7.492-7.867Zm0 0"/><path fill="#8b4915" d="m168.758 116.996 7.492 7.867-15.023 7.04Zm0 0"/><path fill="#7b4312" d="m176.25 124.863-1.305 17.328-13.718-10.289Zm0 0"/><path fill="#dc6b2a" d="m174.945 142.191 1.305-17.328 10.754 14.02Zm0 0"/><path fill="#ef722d" d="m166.512 97.598-22.063 4.382 3.04-10.168Zm0 0"/><path fill="#a2531b" d="m147.488 91.813-3.039 10.167-6.11-12.246Zm0 0"/><path fill="#ded684" d="m137.375 130.957-14.234 16.277-.985-18.488Zm0 0"/><path fill="#d8c87e" d="m123.14 147.234 14.235-16.277 14.973 7.3Zm0 0"/><path fill="#e2ab60" d="m141.191 118.02-3.816 12.937-15.219-2.21Zm0 0"/><path fill="#ded684" d="m113.094 197.875-22.547-10.691 28.14-.633Zm0 0"/><path fill="#fc7730" d="m133.809 289.234 10.207-28.066 15.43 4.937Zm0 0"/><path fill="#f9752f" d="m123.078 266.059 20.938-4.891-10.207 28.066Zm0 0"/><path fill="#59340a" d="m159.508 307.563-6.297 19.21-9.945-22.152Zm0 0"/><path fill="#8c4a18" d="m220.453 341.828-4.363-18.515 8.91.917Zm0 0"/><path fill="#7b4211" d="m216.09 323.313.57-22.41L225 324.23Zm0 0"/><path fill="#212213" d="m216.66 300.902-.57 22.41-13.332-8.789Zm0 0"/><path fill="#fd7730" d="m310.723 320.363-8.578-31.613 27.187 23.973Zm0 0"/><path fill="#ee712d" d="m295.973 320.66-17.864-21.914 24.036-9.996Zm0 0"/><path fill="#f7742f" d="m295.973 320.66 6.172-31.91 8.578 31.613Zm0 0"/><path fill="#f87631" d="m123.078 266.059 10.73 23.175-34.988-13.523Zm0 0"/><path fill="#ded684" d="m166.008 377.871-14.59-23.57 12.129-9.27ZM166.008 377.871l-2.461-32.84 16.48 2.242Zm0 0"/><path fill="#ded684" d="m198.422 364.098-32.414 13.773 14.02-30.598Zm0 0"/><path fill="#202215" d="m144.523 344.152 15.36-12.945 3.664 13.824Zm0 0"/><path fill="#212215" d="m138.719 336.922 21.164-5.715-15.36 12.945Zm0 0"/><path fill="#202214" d="m159.883 331.207-.375-23.644 19.945 14.984Zm0 0"/><path fill="#202215" d="m159.883 331.207-21.164 5.715 14.492-10.149Zm0 0"/><path fill="#202214" d="m159.508 307.563.375 23.644-6.672-4.434Zm0 0"/><path fill="#262416" d="m173.523 338.66-13.64-7.453 19.57-8.66Zm0 0"/><path fill="#202215" d="m159.883 331.207 13.64 7.453-9.976 6.371Zm0 0"/><path fill="#fc7831" d="m176.25 124.863 14.16-.48-3.406 14.5ZM191.828 116.96l-1.418 7.423-13.144-10.781Zm0 0"/><path fill="#f97630" d="m190.41 124.383-14.16.48 1.016-11.261Zm0 0"/><path fill="#fe7831" d="m190.41 124.383 7.352 10.742-10.758 3.758Zm0 0"/><path fill="#c5a26c" d="m169.176 159.195 15.699-.707-4.367 10.446Zm0 0"/><path fill="#242517" d="m169.176 159.195-.633-8.039 16.332 7.332Zm0 0"/><path fill="#835e43" d="m169.176 159.195 11.332 9.739-23.977 13.035Zm0 0"/><path fill="#ab6b52" d="m149.492 153.078 19.684 6.117-12.645 22.774Zm0 0"/><path fill="#c19968" d="m168.543 151.156.633 8.04-19.684-6.118Zm0 0"/><path fill="#302715" d="m152.715 108.98 13.797-11.382 2.246 19.398Zm0 0"/><path fill="#bf5e22" d="m152.715 108.98-8.266-7 22.063-4.382Zm0 0"/><path fill="#b65921" d="m144.45 101.98 8.265 7-11.524 9.04Zm0 0"/><path fill="#312711" d="m122.773 106.344-1.3-18.61 16.867 2Zm0 0"/><path fill="#be5e22" d="m144.45 101.98-21.677 4.364 15.567-16.61Zm0 0"/><path fill="#6e3e0f" d="m122.773 106.344 21.676-4.364-3.258 16.04Zm0 0"/><path fill="#7f4514" d="m122.773 106.344 18.418 11.676-19.035 10.726Zm0 0"/><path fill="#da6a2a" d="m121.473 87.734 1.3 18.61-10.175 3.148Zm0 0"/><path fill="#ea702c" d="m122.773 106.344-.617 22.402-9.558-19.254Zm0 0"/><path fill="#ded684" d="m159.445 266.105-15.43-4.937 12.141-22.445Zm0 0"/><path fill="#ded684" d="m144.016 261.168 4.433-27.219 7.707 4.774Zm0 0"/><path fill="#ded684" d="m148.45 233.95-4.434 27.218-18.133-18.672Zm0 0"/><path fill="#ded684" d="m144.016 261.168-20.938 4.89 2.805-23.562Zm0 0"/><path fill="#272415" d="m197.227 331.488-11.79-2.77 3.258-6.613Zm0 0"/><path fill="#753e1f" d="m185.438 328.719-5.985-6.172 9.242-.442Zm0 0"/><path fill="#ded684" d="m185.438 328.719-11.915 9.941 5.93-16.113Zm0 0"/><path fill="#202214" d="m197.227 331.488 14.84 15.899-17.438-.117Zm0 0"/><path fill="#322713" d="m197.227 331.488-8.532-9.383 14.063-7.582Zm0 0"/><path fill="#ba8e62" d="m168.543 151.156-19.05 1.922 2.855-14.82Zm0 0"/><path fill="#d7c77d" d="m161.227 131.902 7.316 19.254-16.195-12.898Zm0 0"/><path fill="#d9cb7f" d="m174.945 142.191-6.402 8.965-7.316-19.254Zm0 0"/><path fill="#b95c20" d="m141.191 118.02 27.567-1.024-7.531 14.906Zm0 0"/><path fill="#232314" d="m141.191 118.02 11.524-9.04 16.043 8.016Zm0 0"/><path fill="#ddd383" d="m141.191 118.02 20.036 13.882-8.88 6.356Zm0 0"/><path fill="#ded684" d="m137.375 130.957 3.816-12.937 11.157 20.238ZM185.438 328.719l-.696 10.687-11.219-.746ZM184.742 339.406l.696-10.687 11.789 2.77Zm0 0"/><path fill="#ded684" d="m173.523 338.66 11.22.746-4.716 7.867Zm0 0"/><path fill="#202214" d="m184.742 339.406 9.887 7.864-14.602.003Zm0 0"/><path fill="#202215" d="m184.742 339.406 12.485-7.918-2.598 15.782ZM212.066 347.387l-3.613-17.98 12 12.421Zm0 0"/><path fill="#202214" d="m197.227 331.488 11.226-2.082 3.613 17.98ZM208.453 329.406l7.637-6.094 4.363 18.516Zm0 0"/><path fill="#202214" d="m216.09 323.313-7.637 6.093-5.695-14.883ZM208.453 329.406l-11.226 2.082 5.53-16.965Zm0 0"/></svg>