<svg xmlns="http://www.w3.org/2000/svg" width="512" height="512" viewBox="0 0 384 384"><path fill="#fcfdfe" d="m-.008 254.656 36.32-39.883 44.063 38.5Zm0 0"/><path fill="#f8fdfe" d="m36.313 214.773 63.269-5.199-19.207 43.7Zm0 0"/><path fill="#81fef2" d="m99.582 209.574-63.27 5.2 49.208-49.645Zm0 0"/><path fill="#f6fdfe" d="m99.582 209.574 18.41 28.852-37.617 14.847Zm0 0"/><path fill="#f5fcfd" d="m-.02 172.066 60.883-64.484 24.657 57.547Zm0 0"/><path fill="#f8fdfe" d="M36.863 383.992.012 331.504 41.16 348.77Zm0 0"/><path fill="#f7fdfe" d="m92.938 348.125-56.075 35.867 4.297-35.222Zm0 0"/><path fill="#fcfdfe" d="m359.227 231.398-25.676-33.546 50.43-34.383Zm0 0"/><path fill="#3e3264" d="m242.047 269.09 6.18 26.351-13.422-8.41ZM261.379 278.773l-19.332-9.683 30.262-7.844Zm0 0"/><path fill="#3e3264" d="m242.047 269.09 19.332 9.683-13.152 16.668Zm0 0"/><path fill="#553f67" d="m242.508 230.297-16.938 15.016-3.46-10.172Zm0 0"/><path fill="#fc9d7c" d="m240.293 213.746 2.215 16.55-20.399 4.845Zm0 0"/><path fill="#3e3264" d="m242.047 269.09 2.66-15.668 27.602 7.824Zm0 0"/><path fill="#fa9b7c" d="m242.508 230.297 2.199 23.125-19.137-8.11Zm0 0"/><path fill="#0ffee6" d="M113.723 108.781 87.414 87.137l27.188-1.348Zm0 0"/><path fill="#14fee6" d="M108.383 69.063 87.414 87.137l8.457-37.074Zm0 0"/><path fill="#12fee6" d="m87.414 87.137-26.55 20.445-9.989-59.23Zm0 0"/><path fill="#19fee7" d="m95.871 50.063-8.457 37.074-36.539-38.785Zm0 0"/><path fill="#18fee7" d="M111.277 0 95.871 50.063l-44.996-1.711Zm0 0"/><path fill="#eefdfd" d="m-.008 254.656-.012-82.59 36.333 42.707Zm0 0"/><path fill="#12fee6" d="m.012 331.504 33.718-3.11 7.43 20.376Zm0 0"/><path fill="#fdfdfe" d="M33.73 328.395.012 331.504l-.02-76.848Zm0 0"/><path fill="#fdfdfe" d="M33.73 328.395-.008 254.656l53.203 37.446Zm0 0"/><path fill="#26fee8" d="M36.313 214.773-.02 172.066l85.54-6.937Zm0 0"/><path fill="#0ffee6" d="M60.863 107.582-.02 172.066l.012-86.503Zm0 0"/><path fill="#f6fdfe" d="m92.938 348.125 37.156 35.879-93.23-.012Zm0 0"/><path fill="#aa8473" d="m112.773 166.586-7.328-23.633 12.489 2.61Zm0 0"/><path fill="#7e666d" d="m112.773 166.586 17.711-11.555 8.614 19.672Zm0 0"/><path fill="#e7bc7c" d="m170.332 211.582-.848-16.676 13.047 5.973Zm0 0"/><path fill="#b08f74" d="m169.484 194.906-22.191 3.84 20.539-20.11Zm0 0"/><path fill="#caa578" d="m169.484 194.906.848 16.676-23.039-12.836Zm0 0"/><path fill="#554067" d="m225.57 245.313-8.047 1.68 4.586-11.852Zm0 0"/><path fill="#dffdfb" d="m209.582-.047 126.55.04-24.265 55.62Zm0 0"/><path fill="#0dfee6" d="m311.867 55.613-64.722 11.34-19.102-39.066Zm0 0"/><path fill="#483765" d="m272.309 261.246-27.602-7.824-2.2-23.125Zm0 0"/><path fill="#f3fdfd" d="m383.98 163.469-50.43 34.383-10.058-26.989Zm0 0"/><path fill="#fdfdfe" d="m383.996 281.32-24.77-49.922 24.754-67.93Zm0 0"/><path fill="#fea47d" d="m220.266 219.363 20.027-5.617-18.184 21.395Zm0 0"/><path fill="#da8978" d="m244.707 253.422-13.008 8.996-6.129-17.106Zm0 0"/><path fill="#f89a7c" d="m231.7 262.418 13.007-8.996-2.66 15.668Zm0 0"/><path fill="#f6997b" d="m231.7 262.418 10.347 6.672-7.242 17.941Zm0 0"/><path fill="#fefdfe" d="m327.043 362.727-73.402 21.277 29.62-26.645Zm0 0"/><path fill="#fefcfe" d="m359.227 231.398-4.282 37.172-15.558-19.004Zm0 0"/><path fill="#fe9d7c" d="m331.559 291.953-26.582-11.305 14.98-9.468Zm0 0"/><path fill="#fdfdfe" d="m238.332 356.684 22.461-2.008-7.152 29.328Zm0 0"/><path fill="#12fee6" d="m116.75 40.348-20.879 9.715L111.277 0Zm0 0"/><path fill="#0bfee6" d="m87.414 87.137 20.969-18.074 6.219 16.726ZM209.582-.047 157 20.66 111.277 0Zm0 0"/><path fill="#14fee6" d="M111.277 0 157 20.66l-22.809 11.363Zm0 0"/><path fill="#28fee9" d="m60.863 107.582-60.87-22.02 50.882-37.21Zm0 0"/><path fill="#25fee8" d="M50.875 48.352-.008 85.562V-.004Zm0 0"/><path fill="#15fee7" d="M-.008-.004 111.277 0 50.875 48.352Zm0 0"/><path fill="#fefdfe" d="m80.375 253.273-27.18 38.829-53.203-37.446Zm0 0"/><path fill="#fefdfe" d="m53.195 292.102 27.18-38.829 12.34 28.864Zm0 0"/><path fill="#fcfdfe" d="m136.941 367.027-6.847 16.977-37.156-35.879Zm0 0"/><path fill="#12fee6" d="m92.938 348.125-15.583-17.148 24.618 2.742ZM77.355 330.977l15.582 17.148-51.777.645Zm0 0"/><path fill="#14fee6" d="m129.77 344.95-36.833 3.175 9.036-14.406Zm0 0"/><path fill="#edfdfd" d="m36.863 383.992-36.867-.008.016-52.48Zm0 0"/><path fill="#876c6e" d="m87.668 310.645 5.047-28.508 19.945 26.332Zm0 0"/><path fill="#fefcfe" d="m57.203 325.605-23.473 2.79 19.465-36.293Zm0 0"/><path fill="#13fee6" d="m33.73 328.395 23.473-2.79L41.16 348.77Zm0 0"/><path fill="#10fee6" d="m57.203 325.605 20.152 5.372L41.16 348.77Zm0 0"/><path fill="#0ffee6" d="m384 75.79-35.066-32.536 35.07-43.258Zm0 0"/><path fill="#10fee6" d="M348.934 43.254 336.133-.008l47.87.004ZM364.566 89.332l-15.632-46.078L384 75.789Zm0 0"/><path fill="#13fee6" d="M364.566 89.332 384 75.789l-.02 87.68Zm0 0"/><path fill="#fdfdfe" d="m364.566 89.332 19.414 74.137-60.488 7.394Zm0 0"/><path fill="#93fdf4" d="m348.934 43.254 15.632 46.078-52.699-33.719Zm0 0"/><path fill="#937770" d="m130.484 155.031-17.71 11.555 5.16-21.024Zm0 0"/><path fill="#9f8172" d="m192.152 186.29-11.855.722 5.2-11.887Zm0 0"/><path fill="#ddb37b" d="m182.531 200.879-2.234-13.867 11.855-.723Zm0 0"/><path fill="#dab27a" d="m169.484 194.906 10.813-7.894 2.234 13.867Zm0 0"/><path fill="#fbfdfe" d="m99.582 209.574 21.594 2.781-3.184 26.07Zm0 0"/><path fill="#574067" d="m217.523 246.992-10.875-9.11 15.461-2.741Zm0 0"/><path fill="#a97172" d="m206.648 237.883 13.618-18.52 1.843 15.778Zm0 0"/><path fill="#f6fdfe" d="m336.133-.008 12.8 43.262-37.066 12.36Zm0 0"/><path fill="#fefdfe" d="m293.715 106.246 18.152-50.633 52.7 33.719Zm0 0"/><path fill="#83fef2" d="m323.492 170.863-29.777-64.617 70.851-16.914Zm0 0"/><path fill="#f9fdfe" d="m273.031 149.285 20.684-43.039 29.777 64.617Zm0 0"/><path fill="#d68777" d="m280.965 246.523-38.457-16.226-2.215-16.55Zm0 0"/><path fill="#5d4368" d="m280.965 246.523-8.656 14.723-29.801-30.95Zm0 0"/><path fill="#453664" d="m272.309 261.246 8.656-14.723 4.277 14.145Zm0 0"/><path fill="#dcfdfb" d="m323.492 170.863 10.059 26.989-28.63-5.184Zm0 0"/><path fill="#fe9e7d" d="m312.5 209.016-32.66.457 25.082-16.805Zm0 0"/><path fill="#fefcfe" d="m333.55 197.852-21.05 11.164-7.578-16.348ZM312.5 209.016l21.05-11.164-10.546 27.109Zm0 0"/><path fill="#fe9e7d" d="m304.902 231.828 7.598-22.812 10.504 15.945Zm0 0"/><path fill="#6d576a" d="m198.21 215.914-15.679-15.035 9.621-14.59Zm0 0"/><path fill="#604d68" d="m170.332 211.582.309 14.59-22.164-10.14Zm0 0"/><path fill="#fea77d" d="m208.594 165.55 7.972 31.954-24.414-11.215Zm0 0"/><path fill="#fec47f" d="m227.316 147.008-9.03-20.586 12.097-2.504Zm0 0"/><path fill="#523d66" d="m272.309 261.246 7.777 19.461-18.707-1.934Zm0 0"/><path fill="#3e3264" d="m225.14 322.21 23.087-26.769-11.149 33.227Zm0 0"/><path fill="#fec47f" d="m240.293 213.746-23.727-16.242 31.536-17.86Zm0 0"/><path fill="#fec57f" d="m220.266 219.363-3.7-21.86 23.727 16.243Zm0 0"/><path fill="#f3fdfd" d="m355.621 331.879-3.64-36.336 32.015-14.223Zm0 0"/><path fill="#fbfdfe" d="m351.98 295.543 2.965-26.973 29.051 12.75Zm0 0"/><path fill="#3e3264" d="m275.344 326.145 5.832 12.511-13.192.934Zm0 0"/><path fill="#fefdfe" d="m327.043 362.727 56.96 21.277H253.642Zm0 0"/><path fill="#fdfdfe" d="m384.004 384.004-56.961-21.277 28.578-30.848ZM336.145 272.598l18.8-4.028-2.965 26.973Zm0 0"/><path fill="#fefcfe" d="m331.559 291.953 4.586-19.355 15.835 22.945Zm0 0"/><path fill="#f99b7c" d="m336.145 272.598-4.586 19.355-11.602-20.773Zm0 0"/><path fill="#fefdfe" d="m354.945 268.57 4.282-37.172 24.77 49.922Zm0 0"/><path fill="#8c5d6e" d="m272.309 261.246 12.933-.578-5.156 20.039Zm0 0"/><path fill="#fd9d7c" d="m331.559 291.953-14.352 12.02-12.23-23.325Zm0 0"/><path fill="#fefdfe" d="m327.043 362.727 2.566-30.118 26.012-.73Zm0 0"/><path fill="#fefdfe" d="m329.61 332.61-2.567 30.117-21.434-23.832Zm0 0"/><path fill="#c37c75" d="m321.73 327.488 7.88 5.121-24 6.286Zm0 0"/><path fill="#d18477" d="m310.402 319.71 11.328 7.778-16.12 11.407Zm0 0"/><path fill="#12fee6" d="M126.738 35.262 111.278 0l22.913 32.023Zm0 0"/><path fill="#10fee6" d="m126.738 35.262-9.988 5.086L111.277 0Zm0 0"/><path fill="#0ffee6" d="m119.637 57.137-11.254 11.926-12.512-19Zm0 0"/><path fill="#12fee6" d="m120.762 87.39-7.04 21.391.88-22.992Zm0 0"/><path fill="#14fee7" d="m87.414 87.137 1.578 36.156-28.129-15.711Zm0 0"/><path fill="#16fee7" d="m113.723 108.781-24.73 14.512-1.579-36.156Zm0 0"/><path fill="#10fee6" d="m88.992 123.293-3.472 41.836-24.657-57.547Zm0 0"/><path fill="#0bfee6" d="m228.043 27.887-3.461 5.535-19.914-7.293ZM228.043 27.887 209.582-.047l102.285 55.66ZM180.555 33.047 157 20.66 209.582-.047Zm0 0"/><path fill="#0bfee6" d="m157 20.66 23.555 12.387-17.696 10.144Zm0 0"/><path fill="#fefdfe" d="m210.488 361.398 27.844-4.714 15.309 27.32Zm0 0"/><path fill="#fcfdfe" d="m129.77 344.95 7.171 22.077-44.003-18.902Zm0 0"/><path fill="#473965" d="m121.527 328.07-8.867-19.601 23.133 5.816Zm0 0"/><path fill="#22fee8" d="m121.527 328.07 8.243 16.88-27.797-11.231Zm0 0"/><path fill="#fefdfe" d="m71.332 305.852-14.129 19.753-4.008-33.503Zm0 0"/><path fill="#5c4868" d="m87.668 310.645-16.336-4.793 21.383-23.715Zm0 0"/><path fill="#584768" d="m71.332 305.852 16.336 4.793-10.313 20.332Zm0 0"/><path fill="#4d3f66" d="m57.203 325.605 14.129-19.753 6.023 25.125Zm0 0"/><path fill="#fefcfe" d="m71.332 305.852-18.137-13.75 39.52-9.965Zm0 0"/><path fill="#b29174" d="m124.219 134.063 9.738 9.464-16.023 2.036Zm0 0"/><path fill="#b89575" d="m133.957 143.527-3.473 11.504-12.55-9.469Zm0 0"/><path fill="#a48572" d="m180.297 187.012-12.465-8.375 17.664-3.512Zm0 0"/><path fill="#cba578" d="m167.832 178.637 12.465 8.375-10.813 7.894Zm0 0"/><path fill="#fecf7f" d="m208.594 165.55-9.516-16.05 10.285-3.898Zm0 0"/><path fill="#b69475" d="m167.832 178.637 11.918-17.13 5.746 13.618Zm0 0"/><path fill="#fece7f" d="m195.664 97.535 6.93-16.972 14.453 19.363Zm0 0"/><path fill="#705d6d" d="m137.953 211.512-3.55 5.699-3.926-8.348Zm0 0"/><path fill="#705c6c" d="m138.203 224.879-3.8-7.668 14.074-1.18Zm0 0"/><path fill="#f4fcfc" d="m134.402 217.21 3.801 7.669-8.516-5.691Zm0 0"/><path fill="#e3fdfc" d="m129.688 219.188-8.512-6.833 9.3-3.492Zm0 0"/><path fill="#e2fbfa" d="m134.402 217.21-4.714 1.977.789-10.324Zm0 0"/><path fill="#fdfdfe" d="m121.176 212.355 8.511 6.833-11.695 19.238Zm0 0"/><path fill="#37fde8" d="m121.176 212.355 2.828-16.335 6.473 12.843Zm0 0"/><path fill="#594367" d="m206.766 258.629-.118-20.746 10.875 9.11Zm0 0"/><path fill="#dc9479" d="m206.648 237.883-8.437-21.969 22.055 3.45Zm0 0"/><path fill="#f89a7c" d="m222.105 262.898 9.594-.48 3.106 24.613Zm0 0"/><path fill="#3f3264" d="m222.105 262.898-4.582-15.906 8.047-1.68Zm0 0"/><path fill="#dc8a78" d="m231.7 262.418-9.595.48 3.465-17.586Zm0 0"/><path fill="#3e3264" d="m222.105 262.898-15.34-4.27 10.758-11.636ZM206.766 258.629l15.34 4.27-3.762 17.074Zm0 0"/><path fill="#0bfee6" d="m204.668 26.129 4.914-26.176 18.461 27.934ZM204.668 26.129l-24.113 6.918L209.582-.047Zm0 0"/><path fill="#0cfee6" d="m247.145 66.953-22.563-33.531 3.461-5.535Zm0 0"/><path fill="#feca7f" d="m244.004 150.98-1.719-11.675 30.746 9.98Zm0 0"/><path fill="#fec87f" d="m218.285 126.422-1.238-26.496 13.336 23.992Zm0 0"/><path fill="#fe9e7d" d="m194.11 128.3 10.949-10.116 13.226 8.238Zm0 0"/><path fill="#fea27d" d="m205.059 118.184 11.988-18.258 1.238 26.496Zm0 0"/><path fill="#fefdfe" d="m333.55 197.852 25.677 33.546-36.223-6.437Zm0 0"/><path fill="#fe9e7c" d="m240.293 213.746 7.809-34.101 31.738 29.828Zm0 0"/><path fill="#fea97d" d="m248.102 179.645-4.098-28.665 29.027-1.695Zm0 0"/><path fill="#fe9d7c" d="m240.293 213.746 39.547-4.273 1.125 37.05Zm0 0"/><path fill="#fe9e7d" d="m279.84 209.473 32.66-.457-7.598 22.812Zm0 0"/><path fill="#fe9e7c" d="m279.84 209.473 25.062 22.355-23.937 14.695Zm0 0"/><path fill="#6c566a" d="m184.746 240.25-17.34 3.617 3.235-17.695Zm0 0"/><path fill="#b18c74" d="m198.21 215.914-27.878-4.332 12.2-10.703Zm0 0"/><path fill="#a58472" d="m198.21 215.914-13.464 24.336-14.105-14.078Zm0 0"/><path fill="#524166" d="m170.332 211.582 27.879 4.332-27.57 10.258Zm0 0"/><path fill="#fecc7f" d="m216.566 197.504-7.972-31.953 39.508 14.094Zm0 0"/><path fill="#feb57e" d="m242.285 139.305 1.719 11.675-16.688-3.972Zm0 0"/><path fill="#ffc37f" d="m242.285 139.305-14.969 7.703 3.067-23.09Zm0 0"/><path fill="#0bfee5" d="m258.746 122.531-16.46 16.774-11.903-15.387Zm0 0"/><path fill="#3e3264" d="m225.14 322.21 9.665-35.179 13.422 8.41Zm0 0"/><path fill="#fafdfe" d="m383.996 281.32.008 102.684-28.383-52.125Zm0 0"/><path fill="#c37c75" d="m329.61 332.61-7.88-5.122 5.735-8.925Zm0 0"/><path fill="#fefdfe" d="m330.813 307.844.746-15.89 20.421 3.589Zm0 0"/><path fill="#fc9c7c" d="m330.813 307.844-13.606-3.871 14.352-12.02Zm0 0"/><path fill="#fefcfe" d="m337.902 318.625-8.293 13.984-2.144-14.046ZM330.813 307.844l7.09 10.781-10.438-.062Zm0 0"/><path fill="#fefdfe" d="m337.902 318.625-7.09-10.781 21.168-12.301ZM329.61 332.61l8.292-13.985 17.72 13.254Zm0 0"/><path fill="#f6fdfe" d="m337.902 318.625 14.078-23.082 3.641 36.336Zm0 0"/><path fill="#fefdfe" d="m281.176 338.656-8.059 7.64-5.133-6.706ZM273.117 346.297l10.145 11.062-22.469-2.683ZM283.262 357.36l-29.621 26.644 7.152-29.328Zm0 0"/><path fill="#3e3264" d="m275.344 326.145 11.258 3.695-5.426 8.816Zm0 0"/><path fill="#433564" d="m286.602 329.84 19.007 9.055-24.433-.239Zm0 0"/><path fill="#7f566c" d="m280.086 280.707-9.363 13.805-9.344-15.739Zm0 0"/><path fill="#584067" d="m270.723 294.512-22.496.93 13.152-16.669Zm0 0"/><path fill="#fefdfe" d="m354.945 268.57-18.8 4.028 3.242-23.032Zm0 0"/><path fill="#fefcfe" d="m336.145 272.598-7.786-21.063 11.028-1.969Zm0 0"/><path fill="#fe9d7c" d="m328.36 251.535 7.785 21.063-16.188-1.418Zm0 0"/><path fill="#fe9e7c" d="m328.36 251.535-24.958 3.149 1.5-22.856Zm0 0"/><path fill="#f5987b" d="m285.242 260.668 18.16-5.984 1.575 25.964Zm0 0"/><path fill="#fa9b7c" d="m304.977 280.648-1.575-25.964 16.555 16.496Zm0 0"/><path fill="#fe9d7c" d="m303.402 254.684 24.957-3.149-8.402 19.645Zm0 0"/><path fill="#fd9c7c" d="m304.902 231.828-1.5 22.856-22.437-8.16Zm0 0"/><path fill="#6e4d6a" d="m303.402 254.684-18.16 5.984-4.277-14.145Zm0 0"/><path fill="#be7974" d="m285.242 260.668 19.735 19.98-24.891.059Zm0 0"/><path fill="#3f3264" d="m275.344 326.145-7.36 13.445-9.921-14.711Zm0 0"/><path fill="#ecbd7d" d="m267.984 339.59-17.933 1.746 8.012-16.457Zm0 0"/><path fill="#fefdfe" d="m250.05 341.336 10.743 13.34-22.461 2.008Zm0 0"/><path fill="#77606c" d="m132.496 38.816-5.758-3.554 7.453-3.239Zm0 0"/><path fill="#bf9b76" d="m126.738 35.262 5.758 3.554-6.644 5.813Zm0 0"/><path fill="#0efee6" d="m116.75 40.348 2.887 16.789-23.766-7.074Zm0 0"/><path fill="#13fee6" d="m119.637 57.137-2.887-16.79 9.102 4.282Zm0 0"/><path fill="#0efee6" d="m116.75 40.348 9.988-5.086-.886 9.367Zm0 0"/><path fill="#0cfee6" d="m162.902 55.734-8.523-3.007 8.48-9.536Zm0 0"/><path fill="#fea97d" d="m162.902 55.734 4.743 14.875-10.754-8.074Zm0 0"/><path fill="#0bfee5" d="m108.383 69.063 12.234 1.113-6.015 15.613Zm0 0"/><path fill="#10fee6" d="m119.637 57.137.98 13.039-12.234-1.114Zm0 0"/><path fill="#df8f79" d="m110.98 132.047 14.727-7.817-1.488 9.832Zm0 0"/><path fill="#ab8273" d="m105.445 142.953 5.535-10.906 6.954 13.516Zm0 0"/><path fill="#aa8373" d="m110.98 132.047 13.239 2.016-6.285 11.5Zm0 0"/><path fill="#a66d71" d="m125.707 124.23-14.727 7.817 2.743-23.266Zm0 0"/><path fill="#12fee6" d="m88.992 123.293 21.988 8.754-5.535 10.906Zm0 0"/><path fill="#1afee7" d="m110.98 132.047-21.988-8.754 24.73-14.512Zm0 0"/><path fill="#11fee6" d="m112.773 166.586-27.253-1.457 19.925-22.176Zm0 0"/><path fill="#12fee6" d="m85.52 165.129 3.472-41.836 16.453 19.66Zm0 0"/><path fill="#feb47e" d="m220.39 70.21-17.796 10.353 9.187-19.946Zm0 0"/><path fill="#fecf7f" d="m199.23 57.11 8.942-9.337 3.61 12.844Zm0 0"/><path fill="#fecb7f" d="m202.594 80.563-3.364-23.454 12.551 3.508Zm0 0"/><path fill="#ffc67f" d="m199.23 57.11 3.364 23.453-11.531-10.82Zm0 0"/><path fill="#3e3264" d="m199.23 57.11-8.167 12.632-2.227-16.41Zm0 0"/><path fill="#14fee6" d="m157 20.66-10.82 19.39-11.989-8.027Zm0 0"/><path fill="#0cfee6" d="M146.18 40.05 157 20.66l5.86 22.531Zm0 0"/><path fill="#f6bc7e" d="m146.18 40.05-13.684-1.234 1.695-6.793Zm0 0"/><path fill="#10fee6" d="m154.379 52.727-8.2-12.676 16.68 3.14Zm0 0"/><path fill="#3d3264" d="m200.441 46.7-1.21 10.41-10.395-3.778Zm0 0"/><path fill="#3e3264" d="m199.23 57.11 1.211-10.41 7.73 1.073ZM200.441 46.7l5.473-4.16 2.258 5.233Zm0 0"/><path fill="#0bfee6" d="m197.348 40.797-8.512 12.535-8.281-20.285Zm0 0"/><path fill="#0bfee5" d="m197.348 40.797 3.093 5.902-11.605 6.633Zm0 0"/><path fill="#0cfde5" d="m200.441 46.7-3.093-5.903 8.566 1.742Zm0 0"/><path fill="#0bfee5" d="m224.582 33.422-18.668 9.117-1.246-16.41Zm0 0"/><path fill="#423564" d="m205.914 42.54 18.668-9.118-16.41 14.351Zm0 0"/><path fill="#0bfee6" d="m197.348 40.797-16.793-7.75 24.113-6.918Zm0 0"/><path fill="#0bfee6" d="m205.914 42.54-8.566-1.743 7.32-14.668Zm0 0"/><path fill="#0cfee6" d="m188.836 53.332-14.164.793 5.883-21.078Zm0 0"/><path fill="#fda47d" d="m150.02 79.844 17.39 14.73-17.133 1.551Zm0 0"/><path fill="#f79b7c" d="m150.02 79.844.257 16.281-14.879-4.715Zm0 0"/><path fill="#fefdfe" d="m133.137 256.3-15.969 11.954.824-29.828Zm0 0"/><path fill="#fefdfe" d="m133.137 256.3-15.145-17.874 24.586 7.687Zm0 0"/><path fill="#fbfdfe" d="m138.203 224.879-20.21 13.547 11.695-19.238Zm0 0"/><path fill="#fefdfe" d="m142.578 246.113-24.586-7.687 20.211-13.547Zm0 0"/><path fill="#fafdfe" d="M253.64 384.004H130.095l51.027-11.965ZM130.094 384.004l6.847-16.977 44.18 5.012Zm0 0"/><path fill="#fbfdfe" d="m210.488 361.398 43.153 22.606-72.52-11.965Zm0 0"/><path fill="#594868" d="m101.973 333.719-14.305-23.074 24.992-2.176Zm0 0"/><path fill="#514166" d="m121.527 328.07-19.554 5.649 10.687-25.25Zm0 0"/><path fill="#493b65" d="m87.668 310.645 14.305 23.074-24.618-2.742Zm0 0"/><path fill="#fecf7f" d="m185.496 175.125 23.098-9.574-16.442 20.738Zm0 0"/><path fill="#6c586a" d="m139.098 174.703 28.734 3.934-20.539 20.11Zm0 0"/><path fill="#fe9e7d" d="m178.898 114.457 16.766-16.922 4.969 11.653Zm0 0"/><path fill="#3e3264" d="m163.29 118.926-8.763-13.989 24.371 9.52Zm0 0"/><path fill="#a96f71" d="m154.527 104.938 12.883-10.364 11.488 19.883Zm0 0"/><path fill="#f89a7c" d="m167.41 94.574-12.883 10.364-4.25-8.813Zm0 0"/><path fill="#fea87d" d="m197.14 139.441-3.03-11.14 24.175-1.88Zm0 0"/><path fill="#987c71" d="m147.293 198.746-9.34 12.766-7.476-2.649Zm0 0"/><path fill="#a38472" d="m147.293 198.746 1.184 17.285-10.524-4.52Zm0 0"/><path fill="#76606c" d="m148.477 216.031-14.075 1.18 3.551-5.7Zm0 0"/><path fill="#ba9575" d="m148.477 216.031-1.184-17.285 23.039 12.836Zm0 0"/><path fill="#81686d" d="m118.875 183.816-6.102-17.23 26.325 8.117Zm0 0"/><path fill="#f2c57e" d="m191.727 266.922 14.644 13.984-21.226 12.817Zm0 0"/><path fill="#3f3364" d="m206.371 280.906-14.644-13.984 26.617 13.05Zm0 0"/><path fill="#8c6d6f" d="m206.648 237.883-21.902 2.367 13.465-24.336Zm0 0"/><path fill="#3f3264" d="m206.648 237.883.118 20.746-22.02-18.379Zm0 0"/><path fill="#f8a07c" d="m198.21 215.914 18.356-18.41 3.7 21.86Zm0 0"/><path fill="#0dfee6" d="m258.746 122.531 34.969-16.285-20.684 43.04Zm0 0"/><path fill="#0bfee6" d="m242.285 139.305 16.461-16.774 14.285 26.754Zm0 0"/><path fill="#0bfee6" d="m257.219 96.242 1.527 26.29-28.363 1.386Zm0 0"/><path fill="#0cfee6" d="m257.219 96.242-10.074-29.289 64.722-11.34Zm0 0"/><path fill="#0ffee6" d="m293.715 106.246-36.496-10.004 54.648-40.629Zm0 0"/><path fill="#11fee6" d="m258.746 122.531-1.527-26.289 36.496 10.004Zm0 0"/><path fill="#fca17d" d="m178.898 114.457 26.16 3.727L194.11 128.3Zm0 0"/><path fill="#0ffee6" d="m220.39 70.21 5.442-15.331 21.313 12.074Zm0 0"/><path fill="#0efee6" d="m225.832 54.879-1.25-21.457 22.563 33.531Zm0 0"/><path fill="#fecd7f" d="m225.832 54.879-5.441 15.332-8.61-9.594Zm0 0"/><path fill="#f8c97f" d="m208.172 47.773 17.66 7.106-14.05 5.738Zm0 0"/><path fill="#fecd7f" d="m225.832 54.879-17.66-7.106 16.41-14.351Zm0 0"/><path fill="#0bfee6" d="m220.68 82.32-.29-12.11 26.755-3.257Zm0 0"/><path fill="#feaa7d" d="m202.594 80.563 18.086 1.757-3.633 17.606Zm0 0"/><path fill="#fdbc7e" d="m220.39 70.21.29 12.11-18.086-1.757Zm0 0"/><path fill="#fe9e7d" d="m323.004 224.96 5.355 26.575-23.457-19.707Zm0 0"/><path fill="#fefcfe" d="m328.36 251.535-5.356-26.574 16.383 24.605Zm0 0"/><path fill="#fefdfe" d="m323.004 224.96 36.223 6.438-19.84 18.168Zm0 0"/><path fill="#eafdfc" d="m293.617 172.836-20.586-23.55 50.461 21.577Zm0 0"/><path fill="#feb37e" d="m293.617 172.836-45.515 6.809 24.93-30.36Zm0 0"/><path fill="#fea27d" d="m248.102 179.645 45.515-6.81-13.777 36.638Zm0 0"/><path fill="#fe9f7d" d="m293.617 172.836 11.305 19.832-25.082 16.805Zm0 0"/><path fill="#dffdfb" d="m304.922 192.668-11.305-19.832 29.875-1.973Zm0 0"/><path fill="#fecf7f" d="m227.316 147.008-18.722 18.543.77-19.95Zm0 0"/><path fill="#fea07d" d="m248.102 179.645-20.786-32.637 16.688 3.972Zm0 0"/><path fill="#fec57f" d="m208.594 165.55 18.722-18.542 20.786 32.637Zm0 0"/><path fill="#fecf7f" d="m209.363 145.602-10.285 3.898-1.937-10.059Zm0 0"/><path fill="#70576b" d="m185.145 293.723 19.59 4.972 4.792 15.97Zm0 0"/><path fill="#fecf7f" d="m204.734 298.695-19.59-4.972 21.227-12.817Zm0 0"/><path fill="#bd7974" d="m321.73 327.488-11.328-7.777 17.063-1.149Zm0 0"/><path fill="#fefdfe" d="m283.262 357.36-10.145-11.063 8.059-7.64ZM305.61 338.895l-22.348 18.464-2.086-18.703Zm0 0"/><path fill="#fefdfe" d="m283.262 357.36 22.347-18.465 21.434 23.832Zm0 0"/><path fill="#493865" d="m285.59 304.14 1.012 25.7-11.258-3.695Zm0 0"/><path fill="#6b4b69" d="m280.086 280.707 5.504 23.434-14.867-9.63Zm0 0"/><path fill="#3e3264" d="m248.227 295.441 9.835 29.438-20.984 3.789Zm0 0"/><path fill="#fefdfe" d="m267.984 339.59-7.191 15.086-10.742-13.34ZM273.117 346.297l-12.324 8.379 7.191-15.086Zm0 0"/><path fill="#ac8a73" d="m132.496 38.816 6.484 10.711-13.128-4.898Zm0 0"/><path fill="#f9c17e" d="m144.469 63.477-5.489-13.95 15.399 3.2Zm0 0"/><path fill="#fec07f" d="m138.98 49.527 7.2-9.476 8.199 12.676Zm0 0"/><path fill="#fdb17e" d="m146.18 40.05-7.2 9.477-6.484-10.71Zm0 0"/><path fill="#fcbf7e" d="m128.863 59.457-8.246 10.719-.98-13.04Zm0 0"/><path fill="#3f3364" d="m128.863 59.457 10.117-9.93 5.489 13.95Zm0 0"/><path fill="#f3c47e" d="m128.863 59.457-9.226-2.32 6.215-12.508Zm0 0"/><path fill="#403464" d="m138.98 49.527-10.117 9.93-3.011-14.828Zm0 0"/><path fill="#fcc57f" d="m156.89 62.535-12.421.942 9.91-10.75Zm0 0"/><path fill="#fec77f" d="m162.902 55.734-6.011 6.801-2.512-9.808Zm0 0"/><path fill="#584367" d="m120.617 70.176.145 17.215-6.16-1.602Zm0 0"/><path fill="#ffcf7f" d="m195.664 97.535-9.516-17.402 16.446.43Zm0 0"/><path fill="#fecd7f" d="m202.594 80.563-16.446-.43 4.915-10.39Zm0 0"/><path fill="#0bfee6" d="m180.555 33.047-5.883 21.078-11.813-10.934ZM174.672 54.125l-11.77 1.61-.043-12.544Zm0 0"/><path fill="#fea67d" d="m162.902 55.734 11.77-1.609-7.027 16.484Zm0 0"/><path fill="#fea57d" d="m174.672 54.125 9.148 12.191-16.175 4.293Zm0 0"/><path fill="#3e3264" d="m191.063 69.742-7.243-3.426 5.016-12.984Zm0 0"/><path fill="#fda77d" d="m183.82 66.316-9.148-12.191 14.164-.793Zm0 0"/><path fill="#feca7f" d="m167.645 70.61-17.625 9.234 6.87-17.309Zm0 0"/><path fill="#fea37d" d="m150.02 79.844 17.625-9.235-.235 23.965Zm0 0"/><path fill="#f5bc7d" d="m156.89 62.535-6.87 17.309-5.551-16.367Zm0 0"/><path fill="#fcfdfe" d="m117.168 268.254-36.793-14.98 37.617-14.848Zm0 0"/><path fill="#fefdfe" d="m80.375 253.273 36.793 14.98-24.453 13.884Zm0 0"/><path fill="#554367" d="m112.66 308.469 32.406-11.934-9.273 17.75Zm0 0"/><path fill="#fbcc7f" d="m145.371 274.55 13.34-7.363.969 10.75Zm0 0"/><path fill="#0dfee5" d="m166.125 344.582 9.473-9.043 5.062 11.332Zm0 0"/><path fill="#fcfdfe" d="m129.77 344.95 21.43 1.155-14.259 20.922Zm0 0"/><path fill="#d4ad79" d="m149.477 327.867-27.95.203 14.266-13.785Zm0 0"/><path fill="#fecf7f" d="m189.527 159.293 9.551-9.793 9.516 16.05Zm0 0"/><path fill="#fccd7f" d="m185.496 175.125 4.031-15.832 19.067 6.258Zm0 0"/><path fill="#e7bc7c" d="m189.527 159.293-4.03 15.832-5.747-13.617Zm0 0"/><path fill="#c09d76" d="m152.21 153.578-18.253-10.05 17.29-6.633Zm0 0"/><path fill="#67546a" d="m152.21 153.578-13.112 21.125-8.614-19.672Zm0 0"/><path fill="#b39175" d="m133.957 143.527 18.254 10.051-21.727 1.453Zm0 0"/><path fill="#5e4c68" d="m170.125 158.656 9.625 2.852-11.918 17.129Zm0 0"/><path fill="#3e3264" d="m193.191 145.95 5.887 3.55-9.55 9.793Zm0 0"/><path fill="#ecc07d" d="m199.078 149.5-5.887-3.55 3.95-6.509Zm0 0"/><path fill="#3e3264" d="m179.508 150.797 13.683-4.848-3.664 13.344Zm0 0"/><path fill="#facc7f" d="m197.14 139.441-3.949 6.508-6.34-6.105Zm0 0"/><path fill="#3e3264" d="m193.191 145.95-13.683 4.847 7.344-10.953Zm0 0"/><path fill="#705a6b" d="m131.316 192.695-12.441-8.879 20.223-9.113Zm0 0"/><path fill="#7f676d" d="m118.875 183.816 12.441 8.88-7.312 3.324Zm0 0"/><path fill="#7d666e" d="m124.004 196.02 7.312-3.325-.84 16.168Zm0 0"/><path fill="#82686d" d="m131.316 192.695 15.977 6.051-16.816 10.117Zm0 0"/><path fill="#7e666d" d="m147.293 198.746-15.977-6.05 7.782-17.993Zm0 0"/><path fill="#13fee6" d="m118.875 183.816-13.246-4.437 7.144-12.793Zm0 0"/><path fill="#1bfee7" d="m112.773 166.586-7.144 12.793-20.11-14.25Zm0 0"/><path fill="#17fee7" d="m105.629 179.379-6.047 30.195L85.52 165.13Zm0 0"/><path fill="#3f3364" d="m191.727 266.922 15.039-8.293 11.578 21.344ZM206.766 258.629l-15.04 8.293-6.98-26.672Zm0 0"/><path fill="#423564" d="m158.176 253.188 9.23-9.32 4.809 8.76Zm0 0"/><path fill="#3e3264" d="m169.234 268.41 22.493-1.488-6.582 26.8Zm0 0"/><path fill="#403364" d="m169.234 268.41 15.91 25.313-25.464-15.786Zm0 0"/><path fill="#403464" d="m158.71 267.188 10.524 1.222-9.554 9.527Zm0 0"/><path fill="#3e3264" d="m191.727 266.922-22.493 1.488 2.98-15.781Zm0 0"/><path fill="#423564" d="m169.234 268.41-11.058-15.223 14.039-.558Zm0 0"/><path fill="#433664" d="m158.176 253.188 11.058 15.222-10.523-1.223Zm0 0"/><path fill="#fdaf7d" d="m216.566 197.504-18.355 18.41-6.059-29.625Zm0 0"/><path fill="#3e3264" d="m185.145 293.723-27 23.093 1.535-38.878ZM180.145 320.887l-22-4.07 27-23.094Zm0 0"/><path fill="#fece7f" d="m158.145 316.816-13.079-20.28 14.614-18.598Zm0 0"/><path fill="#f1c47d" d="m145.066 296.535 13.079 20.281-22.352-2.53Zm0 0"/><path fill="#0bfee5" d="m217.047 99.926 16.918-6.176-3.582 30.168Zm0 0"/><path fill="#0bfee6" d="m233.965 93.75 23.254 2.492-26.836 27.676Zm0 0"/><path fill="#0bfee6" d="m257.219 96.242-23.254-2.492 13.18-26.797ZM233.965 93.75 220.68 82.32l26.465-15.367Zm0 0"/><path fill="#0bfee5" d="m220.68 82.32 13.285 11.43-16.918 6.176Zm0 0"/><path fill="#3e3264" d="m178.898 114.457 21.735-5.27 4.426 8.997Zm0 0"/><path fill="#fea97d" d="m200.633 109.188-4.969-11.653 21.383 2.39Zm0 0"/><path fill="#fe9f7d" d="m205.059 118.184-4.426-8.996 16.414-9.262Zm0 0"/><path fill="#fdfdfe" d="m142.578 246.113 14.227-7.504 1.37 14.578Zm0 0"/><path fill="#463865" d="m156.805 238.61 10.601 5.257-9.23 9.32Zm0 0"/><path fill="#8f746f" d="m170.64 226.172-13.835 12.437-8.328-22.578Zm0 0"/><path fill="#7e646d" d="m167.406 243.867-10.601-5.258 13.836-12.437Zm0 0"/><path fill="#6b576b" d="m156.805 238.61-18.602-13.731 10.274-8.848Zm0 0"/><path fill="#fefcfe" d="m156.805 238.61-14.227 7.503-4.375-21.234Zm0 0"/><path fill="#4c3d66" d="m167.406 243.867 17.34-3.617-12.531 12.379Zm0 0"/><path fill="#4c3c66" d="m184.746 240.25 6.98 26.672-19.511-14.293Zm0 0"/><path fill="#fecf7f" d="m227.316 147.008-17.953-1.406 8.922-19.18Zm0 0"/><path fill="#fece7f" d="m209.363 145.602-12.222-6.16 21.144-13.02Zm0 0"/><path fill="#fcfdfe" d="m181.121 372.04 14.988-24.642 14.38 14Zm0 0"/><path fill="#fefdfe" d="M196.11 347.398 181.12 372.04l-.46-25.168Zm0 0"/><path fill="#eec17d" d="m180.145 320.887 5-27.164 24.382 20.941Zm0 0"/><path fill="#3e3264" d="m218.344 279.973-13.61 18.722 1.637-17.789Zm0 0"/><path fill="#fc9c7c" d="m218.344 279.973 3.761-17.075 12.7 24.133Zm0 0"/><path fill="#d38677" d="m209.527 314.664 25.278-27.633-9.664 35.18Zm0 0"/><path fill="#e9927a" d="m209.527 314.664 8.817-34.691 16.46 7.058Zm0 0"/><path fill="#3e3264" d="m218.344 279.973-8.817 34.691-4.793-15.969Zm0 0"/><path fill="#fcfdfe" d="m196.11 347.398 11.671-.738 2.707 14.738Zm0 0"/><path fill="#fefdfe" d="m218.297 347.64 16.101-5.5 3.934 14.544ZM210.488 361.398l7.809-13.757 20.035 9.043ZM207.781 346.66l10.516.98-7.809 13.758Zm0 0"/><path fill="#3f3364" d="m218.297 347.64-10.516-.98 10.13-5.808Zm0 0"/><path fill="#3f3364" d="m234.398 342.14-16.488-1.288 19.168-12.184Zm0 0"/><path fill="#3e3264" d="m217.91 340.852 7.23-18.641 11.938 6.457Zm0 0"/><path fill="#fbfcfe" d="m218.297 347.64-.387-6.788 16.488 1.289Zm0 0"/><path fill="#3e3264" d="m250.05 341.336-15.652.805 2.68-13.473Zm0 0"/><path fill="#fecf7f" d="m258.063 324.879-8.012 16.457-12.973-12.668Zm0 0"/><path fill="#fefdfe" d="m234.398 342.14 15.653-.804-11.719 15.348Zm0 0"/><path fill="#b57473" d="m310.402 319.71-23.8 10.13-1.012-25.7Zm0 0"/><path fill="#a76c71" d="m286.602 329.84 23.8-10.13-4.793 19.185Zm0 0"/><path fill="#553f67" d="m268.832 307.8 16.758-3.66-10.246 22.005Zm0 0"/><path fill="#634668" d="m285.59 304.14-16.758 3.66 1.89-13.288Zm0 0"/><path fill="#533e66" d="m268.832 307.8-20.605-12.359 22.496-.93Zm0 0"/><path fill="#3e3264" d="m268.832 307.8 6.512 18.345-17.281-1.266Zm0 0"/><path fill="#433564" d="m248.227 295.441 20.605 12.36-10.77 17.078Zm0 0"/><path fill="#f0bb7d" d="m128.863 59.457 4.918 15.68-13.164-4.961Zm0 0"/><path fill="#ea9f7b" d="m133.781 75.137-13.02 12.254-.144-17.215Zm0 0"/><path fill="#3e3264" d="m133.781 75.137-4.918-15.68 15.606 4.02Zm0 0"/><path fill="#e8957a" d="m120.762 87.39 13.02-12.253 1.616 16.273Zm0 0"/><path fill="#3e3264" d="m150.02 79.844-16.239-4.707 10.688-11.66Zm0 0"/><path fill="#483965" d="m133.781 75.137 16.239 4.707-14.622 11.566Zm0 0"/><path fill="#fec97f" d="m167.41 94.574 18.738-14.441 9.516 17.402Zm0 0"/><path fill="#feb57e" d="m167.41 94.574 28.254 2.961-16.766 16.922Zm0 0"/><path fill="#fea37d" d="m183.82 66.316 2.328 13.817-18.503-9.524Zm0 0"/><path fill="#fea17d" d="m186.148 80.133-2.328-13.817 7.243 3.426Zm0 0"/><path fill="#fec17f" d="M186.148 80.133 167.41 94.574l.235-23.965Zm0 0"/><path fill="#c98576" d="M123.125 283.57 112.66 308.47l-19.945-26.332Zm0 0"/><path fill="#eeb27c" d="m117.168 268.254 5.957 15.316-30.41-1.433Zm0 0"/><path fill="#fecd7f" d="m145.066 296.535.305-21.984 14.309 3.387Zm0 0"/><path fill="#fdfdfe" d="m146.535 261.297-13.398-4.996 9.441-10.188Zm0 0"/><path fill="#fbfdfe" d="m136.941 367.027 28.746-16.597 15.434 21.61Zm0 0"/><path fill="#fcfdfe" d="m151.2 346.105 14.488 4.325-28.747 16.597Zm0 0"/><path fill="#1efde7" d="m165.688 350.43-14.489-4.325 14.926-1.523Zm0 0"/><path fill="#1dfce6" d="m121.527 328.07 27.95-.203-19.707 17.082Zm0 0"/><path fill="#3e3264" d="m149.477 327.867 1.722 18.238-21.43-1.156Zm0 0"/><path fill="#f5c77e" d="m179.508 150.797.242 10.71-7.816-6.991Zm0 0"/><path fill="#f7c97e" d="m179.75 161.508-9.625-2.852 1.809-4.14Zm0 0"/><path fill="#fccd7f" d="m179.75 161.508-.242-10.711 10.02 8.496Zm0 0"/><path fill="#9c7e71" d="m179.508 150.797-8.516-4.977 15.86-5.976Zm0 0"/><path fill="#f1c47e" d="m170.992 145.82 8.516 4.977-7.574 3.719Zm0 0"/><path fill="#4a3965" d="m178.898 114.457-1.976 9.516-13.633-5.047Zm0 0"/><path fill="#4a3965" d="m163.29 118.926 13.632 5.047-16.883 6.539Zm0 0"/><path fill="#4d3e66" d="m176.922 123.973-5.93 21.847-10.953-15.308Zm0 0"/><path fill="#9c7d71" d="m170.992 145.82 5.93-21.847 9.93 15.87Zm0 0"/><path fill="#deb57b" d="m170.125 158.656-17.914-5.078 19.723.938Zm0 0"/><path fill="#ce8376" d="m154.527 104.938-14.207-1.083 9.957-7.73Zm0 0"/><path fill="#f79a7c" d="m150.277 96.125-9.957 7.73-4.922-12.445Zm0 0"/><path fill="#daaa7a" d="m135.148 129.934-1.191 13.593-9.738-9.464Zm0 0"/><path fill="#c8a277" d="m133.957 143.527 1.191-13.593 16.098 6.96Zm0 0"/><path fill="#d78b78" d="m125.707 124.23 9.441 5.704-10.93 4.129Zm0 0"/><path fill="#de8c78" d="m136.984 119.547-1.836 10.387-9.441-5.704Zm0 0"/><path fill="#1bfee7" d="m99.582 209.574 6.047-30.195 13.246 4.437Zm0 0"/><path fill="#25fee8" d="m99.582 209.574 24.422-13.554-2.828 16.335Zm0 0"/><path fill="#2efee9" d="m99.582 209.574 19.293-25.758 5.129 12.204Zm0 0"/><path fill="#fbcc7f" d="m145.371 274.55 1.164-13.253 12.176 5.89Zm0 0"/><path fill="#fefcfe" d="m146.535 261.297 11.64-8.11.536 14Zm0 0"/><path fill="#f7c97e" d="m158.145 316.816-8.668 11.051-13.684-13.582Zm0 0"/><path fill="#e38e79" d="m310.402 319.71 6.805-15.737 10.258 14.59Zm0 0"/><path fill="#fc9c7c" d="m317.207 303.973 13.606 3.87-3.348 10.72Zm0 0"/><path fill="#ea927a" d="m304.977 280.648-19.387 23.493-5.504-23.434Zm0 0"/><path fill="#e18d79" d="m317.207 303.973-31.617.168 19.387-23.493Zm0 0"/><path fill="#e38e79" d="m285.59 304.14 31.617-.167-6.805 15.738Zm0 0"/><path fill="#a27671" d="m123.125 283.57 21.941 12.965-32.406 11.934Zm0 0"/><path fill="#efc27d" d="m145.066 296.535-21.941-12.965 22.246-9.02Zm0 0"/><path fill="#1ed2ca" d="m165.688 350.43.437-5.848 14.535 2.29Zm0 0"/><path fill="#fdfdfe" d="m181.121 372.04-15.434-21.61 14.973-3.559Zm0 0"/><path fill="#3d3364" d="m151.2 346.105 11.554-14.421 3.371 12.898Zm0 0"/><path fill="#423564" d="m149.477 327.867 13.277 3.817-11.555 14.421Zm0 0"/><path fill="#3e3264" d="m162.754 331.684-4.61-14.868 22 4.07Zm0 0"/><path fill="#3e3264" d="m158.145 316.816 4.609 14.868-13.277-3.817ZM175.598 335.54l-12.844-3.856 17.39-10.797Zm0 0"/><path fill="#3d3264" d="m162.754 331.684 12.844 3.855-9.473 9.043Zm0 0"/><path fill="#ebc07d" d="m152.21 153.578 18.782-7.758.942 8.696Zm0 0"/><path fill="#fecc7f" d="m176.922 123.973 17.187 4.328-7.257 11.543Zm0 0"/><path fill="#fec77f" d="m194.11 128.3-17.188-4.327 1.976-9.516Zm0 0"/><path fill="#fecd7f" d="m194.11 128.3 3.03 11.141-10.288.403Zm0 0"/><path fill="#614f69" d="m152.21 153.578 15.622 25.059-28.734-3.934Zm0 0"/><path fill="#514166" d="m152.21 153.578 17.915 5.078-2.293 19.98Zm0 0"/><path fill="#865a6d" d="m140.32 103.855 14.207 1.082-17.543 14.61Zm0 0"/><path fill="#6f4f6a" d="m125.871 104.094-5.11-16.703 14.637 4.02Zm0 0"/><path fill="#f7997c" d="m140.32 103.855-14.449.239 9.527-12.684Zm0 0"/><path fill="#9c6770" d="m125.871 104.094 14.45-.239-3.337 15.692Zm0 0"/><path fill="#9a6770" d="m125.871 104.094 11.113 15.453-11.277 4.683Zm0 0"/><path fill="#8e5f6e" d="m120.762 87.39 5.11 16.704-12.15 4.687Zm0 0"/><path fill="#b37473" d="m125.871 104.094-.164 20.136-11.984-15.449Zm0 0"/><path fill="#fdfdfe" d="m146.535 261.297-3.957-15.184 15.598 7.075Zm0 0"/><path fill="#4e3f66" d="m197.82 333-17.675-12.113 29.382-6.223Zm0 0"/><path fill="#3e3264" d="m197.82 333 9.961 13.66-11.672.738Zm0 0"/><path fill="#fefdfe" d="m146.535 261.297-11.883 3.558-1.515-8.554Zm0 0"/><path fill="#fefcfe" d="m133.137 256.3 1.515 8.555-17.484 3.399Zm0 0"/><path fill="#fcc87f" d="m134.652 264.855-11.527 18.715-5.957-15.316Zm0 0"/><path fill="#f8ca7f" d="m134.652 264.855 11.883-3.558-1.164 13.254Zm0 0"/><path fill="#fdcc7f" d="m123.125 283.57 11.527-18.715 10.72 9.696Zm0 0"/><path fill="#d1aa79" d="m151.246 136.895 19.746 8.925-18.781 7.758Zm0 0"/><path fill="#9d7f71" d="m170.992 145.82-19.746-8.925 8.793-6.383Zm0 0"/><path fill="#7c556c" d="m145.156 123.969 18.133-5.043-3.25 11.586Zm0 0"/><path fill="#3e3264" d="m145.156 123.969 9.371-19.031 8.762 13.988Zm0 0"/><path fill="#b58a74" d="m145.156 123.969 14.883 6.543-8.793 6.383Zm0 0"/><path fill="#896c6e" d="m135.148 129.934 10.008-5.965 6.09 12.926Zm0 0"/><path fill="#cf8476" d="m145.156 123.969-10.008 5.965 1.836-10.387Zm0 0"/><path fill="#3e3264" d="m154.527 104.938-9.37 19.03-8.173-4.421Zm0 0"/><path fill="#f7ca7e" d="m180.145 320.887 8.015 13.93-12.562.722Zm0 0"/><path fill="#facb7f" d="m188.16 334.816-8.015-13.93L197.82 333Zm0 0"/><path fill="#12fce5" d="m175.598 335.54 12.562-.724-7.5 12.055Zm0 0"/><path fill="#3d3264" d="m188.16 334.816 7.95 12.582-15.45-.527Zm0 0"/><path fill="#3e3264" d="m188.16 334.816 9.66-1.816-1.71 14.398ZM207.781 346.66l2.098-12.62 8.031 6.812Zm0 0"/><path fill="#473965" d="m197.82 333 12.059 1.04-2.098 12.62Zm0 0"/><path fill="#f5c77e" d="m209.879 334.04 15.262-11.83-7.23 18.642Zm0 0"/><path fill="#dab27a" d="m209.879 334.04-.352-19.376 15.614 7.547Zm0 0"/><path fill="#3e3264" d="M209.879 334.04 197.82 333l11.707-18.336Zm0 0"/></svg>