<svg xmlns="http://www.w3.org/2000/svg" width="512" height="512" viewBox="0 0 384 384"><path fill="#daf2e9" d="M0 179.484v-92.34l47.414 28.68ZM57.078 55.168l-9.664 60.656L0 87.144ZM47.414 115.824l9.664-60.656 30.063 37.61ZM113.172 357.906 120.469 384l-81.48-32.46ZM277.11 98.656l52.57 15.508-39.188 20.23Zm0 0"/><path fill="#252536" d="m243.23 266.004 5.125 24.441-14.25-3.554Zm0 0"/><path fill="#302535" d="m243.23 266.004 37.176-5.555-32.05 29.996Zm0 0"/><path fill="#bd343b" d="m240.207 225.773 2.766.965-18.692 16.313Zm0 0"/><path fill="#552432" d="m243.23 266.004-.257-39.266 37.433 33.711Zm0 0"/><path fill="#99222b" d="m242.973 226.738.257 39.266-18.949-22.953Zm0 0"/><path fill="#d9f1e8" d="M112.832 108.313 87.141 92.777l28.222-8.738Zm0 0"/><path fill="#daf2e9" d="m57.078 55.168 44.063 9.957-14 27.652Zm0 0"/><path fill="#daf2e9" d="m103.324 31.68-2.183 33.445-44.063-9.957Zm0 0"/><path fill="#daf2e9" d="m80.281 0 23.043 31.68-46.246 23.488ZM0 179.484l65.71-4.23-16.226 59.71Zm0 0"/><path fill="#daf2e9" d="M0 289.996V179.484l49.484 55.48Zm0 0"/><path fill="#9b242d" d="m107.105 294.691-19.21-7.703 15.64-2.527Zm0 0"/><path fill="#daf2e9" d="M65.71 175.254 0 179.484l47.414-63.66ZM101.68 220.574l-52.196 14.39 16.227-59.71Zm0 0"/><path fill="#daf2e9" d="m102.402 182.219-.722 38.355-35.97-45.32ZM101.68 220.574l-10.79 31.543-41.406-17.152Zm0 0"/><path fill="#daf2e9" d="m90.89 252.117 10.79-31.543 15.039 33.336Zm0 0"/><path fill="#daf1e8" d="M38.988 351.54 0 289.995l37.04 3.703Zm0 0"/><path fill="#daf2e9" d="M0 384v-94.004l38.988 61.543ZM384 0l-63.066 55.496L280.477 0Zm0 0"/><path fill="#daf2e9" d="m320.934 55.496-55.907-16.281L280.477 0Zm0 0"/><path fill="#ea5154" d="m113.957 172.582 17.957-9.238-5.738 16.101Zm0 0"/><path fill="#97dac7" d="m165.125 214.55.898-19.675 16.157 11.766Zm0 0"/><path fill="#daf2e9" d="m102.402 182.219 10.63 8.508-11.352 29.847Zm0 0"/><path fill="#daf1e8" d="m277.11 98.656-36.462-16.25 24.38-43.191Zm0 0"/><path fill="#daf2e9" d="m290.492 134.395 39.188-20.23-9.98 44.542ZM384 170.895l-47.02 27.722-17.28-39.91Zm0 0"/><path fill="#ec4c50" d="m218.004 221.188 22.203 4.585-15.926 17.278Zm0 0"/><path fill="#9a222b" d="m243.23 266.004-12.5 2.777-6.449-25.73Zm0 0"/><path fill="#99232c" d="m230.73 268.781 12.5-2.777-9.125 20.887Zm0 0"/><path fill="#d9f1e8" d="m344.266 359.227-59.504-2.543 21.222-17.903Zm0 0"/><path fill="#f04d51" d="m337.355 272.152-26.59 7.653 19.481-26.035Zm0 0"/><path fill="#daf2e9" d="m221.707 360.602 21.207-6.664L257.864 384ZM148.938 0l-45.614 31.68L80.281 0ZM87.14 92.777l14-27.652 14.223 18.914Zm0 0"/><path fill="#daf1e8" d="m148.938 0 9.421 32.137-12.832-.907Zm0 0"/><path fill="#daf2e9" d="M0 0h80.281L57.078 55.168Zm0 0"/><path fill="#daf2e9" d="M0 87.145V0l57.078 55.168ZM37.04 293.7 0 289.995l49.484-55.031Zm0 0"/><path fill="#daf2e9" d="M73.875 273.066 37.039 293.7l12.445-58.734Zm0 0"/><path fill="#daf2e9" d="m90.89 252.117-17.015 20.95-24.39-38.102ZM102.613 272.887l-11.722-20.77 25.828 1.793Zm0 0"/><path fill="#e64a4f" d="m87.895 286.988 14.718-14.101.922 11.574Zm0 0"/><path fill="#daf1e8" d="m73.875 273.066 28.738-.18-14.718 14.102Zm0 0"/><path fill="#daf2e9" d="m102.613 272.887-28.738.18 17.016-20.95ZM142.875 362.46 120.469 384l-7.297-26.094Zm0 0"/><path fill="#d9f1e8" d="M113.172 357.906 74.46 330.38l33.238 4.547Zm0 0"/><path fill="#daf2e9" d="m74.46 330.379 38.712 27.527-74.184-6.367Zm0 0"/><path fill="#d9f1e8" d="m120.762 338.719-7.59 19.187-5.473-22.98Zm0 0"/><path fill="#daf2e9" d="M120.469 384H0l38.988-32.46Zm0 0"/><path fill="#7c242f" d="m91.59 305.23-3.695-18.242 19.21 7.703Zm0 0"/><path fill="#75232f" d="m115.637 312.04-24.047-6.81 15.515-10.539Zm0 0"/><path fill="#daf1e8" d="m52.777 325.895-13.789 25.644-1.949-57.84Zm0 0"/><path fill="#daf2e9" d="m52.777 325.895 21.684 4.484-35.473 21.16ZM384 84.36l-63.066-28.864L384 0Zm0 0"/><path fill="#daf2e9" d="m320.934 55.496-43.825 43.16-12.082-59.441ZM329.68 114.164l-8.746-58.668L384 84.36ZM329.68 114.164 384 84.36v86.536Zm0 0"/><path fill="#daf2e9" d="m329.68 114.164 54.32 56.73-64.3-12.187Zm0 0"/><path fill="#daf2e9" d="m277.11 98.656 43.824-43.16 8.746 58.668Zm0 0"/><path fill="#ee5054" d="m113.957 172.582 5.988-22.543 11.97 13.305Zm0 0"/><path fill="#ef4f53" d="m119.945 150.04-5.988 22.542-9.289-10.969Zm0 0"/><path fill="#cfd8cf" d="m182.18 206.64 1.015-21.788 11.887 13.566Zm0 0"/><path fill="#96d9c6" d="m166.023 194.875 17.172-10.023-1.015 21.789Zm0 0"/><path fill="#c98b85" d="m131.914 163.344 14.457 21.703-20.195-5.602Zm0 0"/><path fill="#94dcc9" d="m147.781 156.52-1.41 28.527-14.457-21.703Zm0 0"/><path fill="#392837" d="m212.262 256.516-8.39-18.383 20.41 4.918Zm0 0"/><path fill="#95464a" d="m203.871 238.133 14.133-16.946 6.277 21.864Zm0 0"/><path fill="#ca6c6a" d="m205.645 208.125-10.563-9.707 18.012-10.508Zm0 0"/><path fill="#daf1e8" d="m277.11 98.656 13.382 35.739-28.012 11.316Zm0 0"/><path fill="#daebe3" d="m290.492 134.395-10.183 21.41-17.829-10.094Zm0 0"/><path fill="#daf2e9" d="m280.309 155.805 10.183-21.41 29.207 24.312Zm0 0"/><path fill="#f04e52" d="m280.309 155.805-21.387-1.938 3.558-8.156Zm0 0"/><path fill="#a82931" d="m285.27 262.879-4.864-2.43 23.367-37.41Zm0 0"/><path fill="#daf1e8" d="m316.398 213.434-9.191-16.735 29.773 1.918Zm0 0"/><path fill="#daf1e8" d="m316.398 213.434 20.582-14.817-14.128 26.363Zm0 0"/><path fill="#f04e52" d="m303.773 223.04 12.625-9.606 6.454 11.546Zm0 0"/><path fill="#9eb1a4" d="m194.05 210.777-11.87-4.136 12.902-8.223Zm0 0"/><path fill="#cf837e" d="m195.082 198.418 3.879-18.75 14.133 8.242Zm0 0"/><path fill="#d9f1e8" d="m198.96 179.668-3.878 18.75-11.887-13.566Zm0 0"/><path fill="#f04e52" d="m229.258 141.305-12.028-13.426 9.602-12.309Zm0 0"/><path fill="#9a222b" d="M285.27 262.879 274.94 302.21l5.465-41.762Zm0 0"/><path fill="#1d2537" d="m228.664 313.027 19.691-22.582 1.407 20.88Zm0 0"/><path fill="#ef4e52" d="m218.004 221.188 3.402-13.036 18.801 17.621Zm0 0"/><path fill="#99222b" d="m242.973 226.738-6.493-31.683 19.649-13.66Zm0 0"/><path fill="#ef4e52" d="m236.48 195.055 3.727 30.718-18.8-17.62Zm0 0"/><path fill="#9a222b" d="m236.48 195.055 6.493 31.683-2.766-.965Zm0 0"/><path fill="#daf2e9" d="M384 384H257.863l86.403-24.773Zm0 0"/><path fill="#daf1e8" d="m330.23 331.168 4.043-20.695 24.973-4.23Zm0 0"/><path fill="#1f2537" d="m277.758 327.418-1.403 11.824-8.03-.308Zm0 0"/><path fill="#202537" d="m264.605 324.813 13.153 2.605-9.434 11.516Zm0 0"/><path fill="#daf2e9" d="m257.863 384 26.899-27.316 59.504 2.543Zm0 0"/><path fill="#91222c" d="m305.984 338.781-18.808-.883L293 318.484Zm0 0"/><path fill="#daf1e8" d="m284.762 356.684 2.414-18.786 18.808.883ZM337.355 272.152l21.614-27.492.277 61.582Zm0 0"/><path fill="#daf1e8" d="m358.969 244.66-21.614 27.492-7.109-18.382Zm0 0"/><path fill="#daf2e9" d="m358.969 244.66-21.989-46.043L384 170.895Zm0 0"/><path fill="#f04d51" d="m337.355 272.152-14.773 25.2-11.816-17.547Zm0 0"/><path fill="#daf2e9" d="m344.266 359.227-14.036-28.059 29.016-24.926ZM330.23 331.168l14.036 28.059-38.282-20.446Zm0 0"/><path fill="#b13037" d="m314.656 319.55 15.574 11.618-24.246 7.613Zm0 0"/><path fill="#9b222b" d="m293 318.484 21.656 1.067-8.672 19.23Zm0 0"/><path fill="#daf2e9" d="M129.785 32.848 148.938 0l-3.41 31.23Zm0 0"/><path fill="#daf1e8" d="m129.785 32.848-26.46-1.168L148.937 0Zm0 0"/><path fill="#daf2e9" d="M120.926 54.953 101.14 65.125l2.183-33.445Zm0 0"/><path fill="#daf1e8" d="m120.027 89.914-7.195 18.399 2.531-24.274Zm0 0"/><path fill="#d9f1e8" d="m112.832 108.313-26.277 20.503.586-36.039Zm0 0"/><path fill="#daf2e9" d="m86.555 128.816-39.14-12.992L87.14 92.777ZM224.426 32.203l-10.73 6.672-4.997-23.16Zm0 0"/><path fill="#9b222b" d="M213.695 38.875 213 54.781l-5.133-3.36Zm0 0"/><path fill="#daf2e9" d="m265.027 39.215-40.601-7.012-15.727-16.488Zm0 0"/><path fill="#daf2e9" d="m265.027 39.215-56.328-23.5L280.477 0ZM225.527 52.145l39.5-12.93-24.379 43.191Zm0 0"/><path fill="#daf2e9" d="m225.527 52.145-1.101-19.942 40.601 7.012Zm0 0"/><path fill="#9b222b" d="m225.527 52.145-11.832-13.27 10.73-6.672Zm0 0"/><path fill="#9a222b" d="m213.695 38.875 11.832 13.27L213 54.78Zm0 0"/><path fill="#daf2e9" d="M158.36 32.137 148.936 0l31.958 32.066ZM158.36 32.137l22.535-.07-16.575 11.906ZM133.168 342.973l9.707 19.488-29.703-4.555Zm0 0"/><path fill="#daf1e8" d="m120.762 338.719 12.406 4.254-19.996 14.933Zm0 0"/><path fill="#642330" d="m118.797 330.344-3.16-18.305 17.37 2.395Zm0 0"/><path fill="#d9f1e8" d="m118.797 330.344 1.965 8.375-13.063-3.793Zm0 0"/><path fill="#daf1e8" d="m72.047 301.73-19.27 24.165-15.738-32.196Zm0 0"/><path fill="#8c2730" d="m91.59 305.23-19.543-3.5 15.848-14.742Zm0 0"/><path fill="#87242e" d="m72.047 301.73 19.543 3.5-17.13 25.149Zm0 0"/><path fill="#80222d" d="m52.777 325.895 19.27-24.165 2.414 28.649Zm0 0"/><path fill="#daf1e8" d="m73.875 273.066-1.828 28.664-35.008-8.03Zm0 0"/><path fill="#daf0e8" d="m72.047 301.73 1.828-28.664 14.02 13.922Zm0 0"/><path fill="#d9f1e8" d="m122.781 132.543 14.871 13.566-17.707 3.93Zm0 0"/><path fill="#96dcc9" d="m119.945 150.04 17.707-3.93-5.738 17.234Zm0 0"/><path fill="#97dac7" d="m170.914 173.066 12.281 11.786-17.172 10.023Zm0 0"/><path fill="#daf0e7" d="m198.96 179.668 1.349-19.766 9.214 2.102Zm0 0"/><path fill="#95ddc9" d="m165.125 214.55-17.586-8.323 18.484-11.352Zm0 0"/><path fill="#d87371" d="m138.117 201.852-6.05 9.5-6.122-16.922Zm0 0"/><path fill="#d17e7a" d="m139.176 225.445-7.11-14.093 14.133 7.816Zm0 0"/><path fill="#daf1e8" d="m132.066 211.352 7.11 14.093-37.496-4.87ZM101.68 220.574l11.351-29.847 12.914 3.703ZM132.066 211.352l-30.386 9.222 24.265-26.144Zm0 0"/><path fill="#daf1e8" d="m113.031 190.727 3.563-7.391 9.351 11.094Zm0 0"/><path fill="#3d2837" d="m206.27 262.2-2.399-24.067 8.39 18.383Zm0 0"/><path fill="#a54f51" d="m203.871 238.133-5.434-15.93 19.567-1.016Zm0 0"/><path fill="#b5a399" d="m194.05 210.777 4.387 11.426-14.773-.851Zm0 0"/><path fill="#99222b" d="m220.047 272.184 10.683-3.403 3.375 18.11Zm0 0"/><path fill="#2a2536" d="m220.047 272.184-7.785-15.668 12.02-13.465Zm0 0"/><path fill="#97232c" d="m230.73 268.781-10.683 3.403 4.234-29.133Zm0 0"/><path fill="#2e2637" d="m220.047 272.184-13.777-9.985 5.992-5.683Zm0 0"/><path fill="#daf1e8" d="m148.938 0 59.761 15.715-27.804 16.351Zm0 0"/><path fill="#daf2e9" d="M208.7 15.715 148.937 0h131.539Zm0 0"/><path fill="#f04e52" d="m258.922 153.867-17.149-19.054 20.707 10.898ZM192.734 118.656l34.098-3.086-9.602 12.309ZM274.656 209.242l22.461-30.46 10.09 17.917Zm0 0"/><path fill="#9c222b" d="m242.973 226.738 31.683-17.496 5.75 51.207Zm0 0"/><path fill="#cd3b41" d="m274.656 209.242-31.683 17.496 13.156-45.343Zm0 0"/><path fill="#f04e52" d="m274.656 209.242-18.527-27.847 40.988-2.614Zm0 0"/><path fill="#f04d51" d="m258.922 153.867 12.797 12.211-15.59 15.317Zm0 0"/><path fill="#f04d51" d="m271.719 166.078-12.797-12.21 21.387 1.937Zm0 0"/><path fill="#f04e52" d="m256.129 181.395 15.59-15.317 25.398 12.703Zm0 0"/><path fill="#f04d51" d="m303.773 223.04-29.117-13.798 32.551-12.543Zm0 0"/><path fill="#e0454a" d="m274.656 209.242 29.117 13.797-23.367 37.41Zm0 0"/><path fill="#f04e52" d="m316.398 213.434-12.625 9.605 3.434-26.34Zm0 0"/><path fill="#a2bcae" d="m183.664 221.352-9.824 17.273-8.715-24.074Zm0 0"/><path fill="#a6b1a5" d="m173.84 238.625 9.824-17.273 6.027 18.632Zm0 0"/><path fill="#b7a59a" d="m182.18 206.64 11.87 4.137-10.386 10.575Zm0 0"/><path fill="#b5a69b" d="m182.18 206.64 1.484 14.712-18.539-6.801Zm0 0"/><path fill="#d96968" d="m221.406 208.152-15.761-.027 7.449-20.215Zm0 0"/><path fill="#cf837e" d="m213.094 187.91-14.133-8.242 10.562-17.664Zm0 0"/><path fill="#f04e52" d="m221.406 208.152-8.312-20.242 23.386 7.145Zm0 0"/><path fill="#f04d51" d="m246.953 155.758 11.969-1.89-2.793 27.527ZM246.953 155.758l-5.18-20.946 17.149 19.055Zm0 0"/><path fill="#f04e52" d="m241.773 134.813-12.515 6.492-2.426-25.735Zm0 0"/><path fill="#daf1e8" d="m249.328 120.906-7.555 13.906-14.941-19.242Zm0 0"/><path fill="#ce3c42" d="m229.258 141.305 12.515-6.493 5.18 20.946Zm0 0"/><path fill="#1e2637" d="m228.664 313.027 5.441-26.136 14.25 3.554Zm0 0"/><path fill="#1e2537" d="m246.563 326.715-17.899-13.688 21.098-1.703Zm0 0"/><path fill="#1e2637" d="m228.664 313.027 17.899 13.688-15.247 1.86Zm0 0"/><path fill="#daf2e9" d="M384 309.555V384l-39.734-24.773Zm0 0"/><path fill="#daf1e8" d="M359.246 306.242 384 309.555l-39.734 49.672Zm0 0"/><path fill="#bf353c" d="m330.23 331.168-15.574-11.617 13.305-9.403Zm0 0"/><path fill="#daf1e8" d="m332.5 300.703 4.855-28.55 21.891 34.09Zm0 0"/><path fill="#f04e52" d="m332.5 300.703-9.918-3.351 14.773-25.2Zm0 0"/><path fill="#daf1e8" d="m334.273 310.473-4.043 20.695-2.27-21.02ZM332.5 300.703l1.773 9.77-6.312-.325Zm0 0"/><path fill="#daf1e8" d="m334.273 310.473-1.773-9.77 26.746 5.54Zm0 0"/><path fill="#d9f1e8" d="m276.355 339.242-7.023 6.305-1.008-6.613Zm0 0"/><path fill="#daf2e9" d="m269.332 345.547 15.43 11.137-22.055-1.622Zm0 0"/><path fill="#daf2e9" d="m262.707 355.063 22.055 1.62L257.863 384Zm0 0"/><path fill="#8c222c" d="m287.176 337.898-9.418-10.48L293 318.484Zm0 0"/><path fill="#202537" d="m277.758 327.418 9.418 10.48-10.82 1.344Zm0 0"/><path fill="#8b222c" d="m280.406 260.45-5.465 41.76-26.586-11.765Zm0 0"/><path fill="#daf1e8" d="m358.969 244.66-36.117-19.68 14.128-26.363Zm0 0"/><path fill="#daf1e8" d="m322.852 224.98 36.117 19.68-28.723 9.11Zm0 0"/><path fill="#daf2e9" d="m384 309.555-25.031-64.895L384 170.895Zm0 0"/><path fill="#daf1e8" d="M358.969 244.66 384 309.555l-24.754-3.313Zm0 0"/><path fill="#f04d51" d="m322.852 224.98-13.47 25.739-5.609-27.68Zm0 0"/><path fill="#ec4b4f" d="m285.27 262.879 24.113-12.16 1.383 29.086Zm0 0"/><path fill="#f04d51" d="m310.766 279.805-1.383-29.086 20.863 3.05Zm0 0"/><path fill="#f04d51" d="m309.383 250.719 13.469-25.739 7.394 28.79Zm0 0"/><path fill="#a92931" d="m309.383 250.719-24.113 12.16 18.503-39.84Zm0 0"/><path fill="#ce3c42" d="m294.004 295.867-8.734-32.988 25.496 16.926Zm0 0"/><path fill="#9c222b" d="m285.27 262.879 8.734 32.988-19.063 6.344Zm0 0"/><path fill="#202537" d="m260.25 334.332 4.355-9.52 3.72 14.122Zm0 0"/><path fill="#1f2537" d="m264.605 324.813-4.355 9.519-13.687-7.617Zm0 0"/><path fill="#1e2537" d="m260.25 334.332-2.375 7.688-11.312-15.305Zm0 0"/><path fill="#daf2e9" d="m257.875 342.02 4.832 13.043-19.793-1.125ZM242.914 353.938l19.793 1.125L257.863 384Zm0 0"/><path fill="#d9f1e8" d="m142.098 36.172-12.313-3.324 15.742-1.618Zm0 0"/><path fill="#292636" d="m129.785 32.848 12.313 3.324-9.93 8.293Zm0 0"/><path fill="#daf1e8" d="m125.438 41.684-4.512 13.27-17.602-23.274Zm0 0"/><path fill="#252537" d="m120.926 54.953 4.511-13.27 6.731 2.782Zm0 0"/><path fill="#daf1e8" d="m129.785 32.848-4.347 8.836-22.114-10.004Zm0 0"/><path fill="#272637" d="m125.438 41.684 4.347-8.836 2.383 11.617Zm0 0"/><path fill="#ed5154" d="m154.34 52.45 15.32 4.534-16.469-.136Zm0 0"/><path fill="#daf1e8" d="m101.14 65.125 18.798 4.602-4.575 14.312Zm0 0"/><path fill="#daf1e8" d="m120.926 54.953-.989 14.774-18.796-4.602Zm0 0"/><path fill="#f04d51" d="m109.71 132.285 13.372-11.015-.3 11.273Zm0 0"/><path fill="#f04e52" d="m104.668 161.613 5.043-29.328 10.234 17.754Zm0 0"/><path fill="#f04e52" d="m109.71 132.285 13.071.258-2.836 17.496ZM123.082 121.27l-13.371 11.015 3.121-23.972Zm0 0"/><path fill="#daf1e8" d="m86.555 128.816 23.156 3.47-5.043 29.327Zm0 0"/><path fill="#daf1e8" d="m109.71 132.285-23.155-3.469 26.277-20.504Zm0 0"/><path fill="#daf2e9" d="m65.71 175.254 20.845-46.438 18.113 32.797Zm0 0"/><path fill="#daf2e9" d="M86.555 128.816 65.71 175.254l-18.297-59.43Zm0 0"/><path fill="#95ddca" d="m218.129 82.547-23.016-5.285L213 54.782Zm0 0"/><path fill="#f04e52" d="m195.113 77.262 23.016 5.285-15.824 15.797Zm0 0"/><path fill="#97d5c3" d="m195.113 77.262 12.754-25.84 5.133 3.36Zm0 0"/><path fill="#9b222b" d="m207.867 51.422-12.754 25.84L186.961 63Zm0 0"/><path fill="#9a222b" d="M207.867 51.422 186.961 63l1.61-8.914Zm0 0"/><path fill="#daf1e8" d="m158.36 32.137-8.77 11.125-4.063-12.032Zm0 0"/><path fill="#daf2e9" d="m149.59 43.262 8.77-11.125 5.96 11.836Zm0 0"/><path fill="#d9f1e8" d="m149.59 43.262-7.492-7.09 3.43-4.942ZM154.34 52.45l-4.75-9.188 14.73.71Zm0 0"/><path fill="#9a222b" d="m201.754 45.348 6.113 6.074-19.297 2.664Zm0 0"/><path fill="#9b222b" d="m201.754 45.348 5.113-4.7 1 10.774Zm0 0"/><path fill="#daf2e9" d="m197.98 39.258-9.41 14.828-7.675-22.02Zm0 0"/><path fill="#d9f1e8" d="m197.98 39.258 3.774 6.09-13.184 8.738ZM201.754 45.348l-3.774-6.09 8.887 1.39Zm0 0"/><path fill="#daf2e9" d="m213.695 38.875-6.828 1.773 1.832-24.933Zm0 0"/><path fill="#9b222b" d="m206.867 40.648 6.828-1.773-5.828 12.547Zm0 0"/><path fill="#daf2e9" d="m197.98 39.258-17.085-7.192 27.804-16.351ZM206.867 40.648l-8.887-1.39 10.72-23.543Zm0 0"/><path fill="#daf1e8" d="m188.57 54.086-10.84-2.023 3.165-19.997Zm0 0"/><path fill="#f04e52" d="m169.66 56.984-9.754 17.657-6.715-17.793ZM139.496 88.371l19.43 10.328-6.406 5.254Zm0 0"/><path fill="#daf2e9" d="m134.832 244.566-18.113 9.344-15.04-33.336Zm0 0"/><path fill="#daf1e8" d="m139.176 225.445-4.344 19.121-33.152-23.992Zm0 0"/><path fill="#daf2e9" d="M257.863 384H120.47l64.664-9.504ZM120.469 384l22.406-21.54 42.258 12.036Zm0 0"/><path fill="#daf2e9" d="M221.707 360.602 257.863 384l-72.73-9.504Zm0 0"/><path fill="#daf1e8" d="m127.793 332.129 5.375 10.844-12.406-4.254Zm0 0"/><path fill="#482433" d="m127.793 332.129-8.996-1.785 14.21-15.91Zm0 0"/><path fill="#d9f1e8" d="m118.797 330.344 8.996 1.785-7.031 6.59Zm0 0"/><path fill="#70232f" d="M106.766 324.582 91.59 305.23l24.047 6.81Zm0 0"/><path fill="#582431" d="m118.797 330.344-12.031-5.762 8.87-12.543Zm0 0"/><path fill="#5d2331" d="m106.766 324.582 12.03 5.762-11.097 4.582Zm0 0"/><path fill="#662431" d="m74.46 330.379 32.306-5.797.933 10.344Zm0 0"/><path fill="#692330" d="m91.59 305.23 15.176 19.352-32.305 5.797Zm0 0"/><path fill="#a1e0ce" d="m179.336 162.309 5.766 7.457-14.188 3.3Zm0 0"/><path fill="#d9f1e8" d="m185.102 169.766-1.907 15.086-12.28-11.786Zm0 0"/><path fill="#d3efe5" d="m198.96 179.668-13.858-9.902 15.207-9.864Zm0 0"/><path fill="#daf1e8" d="m185.102 169.766 13.859 9.902-15.766 5.184Zm0 0"/><path fill="#76aaa1" d="m147.781 156.52 23.133 16.546-24.543 11.98Zm0 0"/><path fill="#95dfcb" d="m146.371 185.047 24.543-11.98-4.89 21.808Zm0 0"/><path fill="#4f2533" d="m171.574 100.242 4.363 23.668-12.132-6.05Zm0 0"/><path fill="#9c2b33" d="m158.926 98.7 4.879 19.16-11.285-13.907Zm0 0"/><path fill="#daf1e8" d="m205.336 149.813-5.027 10.09-3.371-3.083Zm0 0"/><path fill="#daf1e8" d="m200.309 159.902 5.027-10.09 4.187 12.192Zm0 0"/><path fill="#e78f8e" d="m199.117 136.664-6.383-18.008 24.496 9.223Zm0 0"/><path fill="#a4c6b6" d="m146.371 185.047 1.168 21.18-9.422-4.375Zm0 0"/><path fill="#96dcc9" d="m147.54 206.227-1.169-21.18 19.652 9.828Zm0 0"/><path fill="#c4948d" d="m146.371 185.047-8.254 16.805-12.172-7.422Zm0 0"/><path fill="#ce807c" d="m147.54 206.227-15.474 5.125 6.051-9.5Zm0 0"/><path fill="#cc817d" d="m132.066 211.352 15.473-5.125-1.34 12.941Zm0 0"/><path fill="#bd978f" d="m147.54 206.227 17.585 8.324-18.926 4.617Zm0 0"/><path fill="#a8b9ab" d="m205.457 284.121-15.297-12.996 16.11-8.926Zm0 0"/><path fill="#b6a097" d="m198.438 222.203-8.747 17.781-6.027-18.632Zm0 0"/><path fill="#a39a91" d="m189.691 239.984 8.746-17.78 5.434 15.929Zm0 0"/><path fill="#5c575d" d="m206.27 262.2-16.579-22.216 14.18-1.851Zm0 0"/><path fill="#9a4e50" d="m198.438 222.203 7.207-14.078 12.359 13.063Zm0 0"/><path fill="#d76a69" d="m205.645 208.125 15.761.027-3.402 13.036Zm0 0"/><path fill="#daf1e8" d="m249.328 120.906 27.781-22.25-14.629 47.055Zm0 0"/><path fill="#daf1e8" d="m241.773 134.813 7.555-13.907 13.152 24.805Zm0 0"/><path fill="#d9f1e8" d="m240.492 102.23 8.836 18.676-22.496-5.336Zm0 0"/><path fill="#daf2e9" d="m240.492 102.23.156-19.824 36.461 16.25ZM249.328 120.906l-8.836-18.676 36.617-3.574ZM218.129 82.547l7.398-30.402 15.121 30.261Zm0 0"/><path fill="#9a222b" d="m225.527 52.145-7.398 30.402L213 54.78Zm0 0"/><path fill="#daf1e8" d="m217.473 97.375.656-14.828 22.52-.14Zm0 0"/><path fill="#f04e52" d="m218.129 82.547-.656 14.828-15.168.969ZM271.719 166.078l8.59-10.273 16.808 22.976Zm0 0"/><path fill="#daf1e8" d="m280.309 155.805 39.39 2.902-22.582 20.074Zm0 0"/><path fill="#ac2e35" d="m229.906 166.977-.648-25.672 17.695 14.453Zm0 0"/><path fill="#f04e52" d="m229.906 166.977-16.812 20.933-3.57-25.906Zm0 0"/><path fill="#9a222b" d="m256.129 181.395-26.223-14.418 17.047-11.22Zm0 0"/><path fill="#f04e52" d="m213.094 187.91 16.812-20.933 6.574 28.078Zm0 0"/><path fill="#9d242d" d="m229.906 166.977 26.223 14.418-19.649 13.66Zm0 0"/><path fill="#daf1e8" d="m205.336 149.813 10.488 2.039-6.3 10.152Zm0 0"/><path fill="#f04e52" d="m215.824 151.852 14.082 15.125-20.383-4.973Zm0 0"/><path fill="#f04e52" d="m229.906 166.977-14.082-15.125 13.434-10.547Zm0 0"/><path fill="#96dcc9" d="m205.457 284.121-2.355 29.39-12.942-42.386Zm0 0"/><path fill="#daf2e9" d="m229.266 342.938 13.648 11-21.207 6.664Zm0 0"/><path fill="#c4373d" d="m311.531 303.023 3.125 16.528L293 318.484Zm0 0"/><path fill="#c2363d" d="m314.656 319.55-3.125-16.527 16.43 7.125Zm0 0"/><path fill="#daf2e9" d="m284.762 356.684-15.43-11.137 7.023-6.305Zm0 0"/><path fill="#daf2e9" d="m287.176 337.898-2.414 18.786-8.407-17.442Zm0 0"/><path fill="#9a222b" d="m274.941 302.21 19.063-6.343L293 318.484Zm0 0"/><path fill="#672330" d="m274.941 302.21-25.18 9.114-1.406-20.879Zm0 0"/><path fill="#1d2537" d="m257.875 342.02 2.375-7.688 8.074 4.602Zm0 0"/><path fill="#d9f1e8" d="m269.332 345.547-11.457-3.527 10.45-3.086Zm0 0"/><path fill="#daf1e8" d="m257.875 342.02 11.457 3.527-6.625 9.515Zm0 0"/><path fill="#1e2637" d="m142.098 36.172.39 12.992-10.32-4.7Zm0 0"/><path fill="#5a2532" d="m142.488 49.164 7.102-5.902 4.75 9.187Zm0 0"/><path fill="#682531" d="m149.59 43.262-7.102 5.902-.39-12.992Zm0 0"/><path fill="#1c2638" d="m129.059 60.852 13.43-11.688-2.196 17.941Zm0 0"/><path fill="#93232c" d="m129.059 60.852-9.121 8.875.988-14.774Zm0 0"/><path fill="#1c2637" d="m129.059 60.852-8.133-5.899 11.242-10.488Zm0 0"/><path fill="#1c2638" d="m142.488 49.164-13.43 11.688 3.11-16.387Zm0 0"/><path fill="#75a199" d="m142.488 49.164 10.703 7.684-12.898 10.257Zm0 0"/><path fill="#492f3c" d="m153.191 56.848-10.703-7.684 11.852 3.285Zm0 0"/><path fill="#ca3a40" d="m123.32 81.918-3.293 7.996-4.664-5.875Zm0 0"/><path fill="#b8333a" d="m119.938 69.727 3.382 12.191-7.957 2.121Zm0 0"/><path fill="#77232f" d="m120.027 89.914 3.293-7.996 16.176 6.453Zm0 0"/><path fill="#d9f1e8" d="m177.73 52.063-13.41-8.09 16.575-11.907Zm0 0"/><path fill="#daf1e8" d="m154.34 52.45 9.98-8.477 5.34 13.011Zm0 0"/><path fill="#daf1e8" d="m164.32 43.973 13.41 8.09-8.07 4.921Zm0 0"/><path fill="#f04e52" d="M177.73 52.063 186.96 63l-17.3-6.016Zm0 0"/><path fill="#ef4e52" d="m186.96 63-9.23-10.937 10.84 2.023Zm0 0"/><path fill="#3e5059" d="m159.906 74.64-20.41 13.731.797-21.266Zm0 0"/><path fill="#ed4d51" d="m139.496 88.371 20.41-13.73-.98 24.058Zm0 0"/><path fill="#90c9b9" d="m153.191 56.848 6.715 17.793-19.613-7.536Zm0 0"/><path fill="#daf1e8" d="m122.953 268.238-20.34 4.649 14.106-18.977Zm0 0"/><path fill="#ed4c50" d="m102.613 272.887 20.34-4.649-7.035 14.168Zm0 0"/><path fill="#7d222e" d="m129.617 295.531-13.98 16.508-8.532-17.348Zm0 0"/><path fill="#672330" d="m115.637 312.04 13.98-16.509 3.39 18.903Zm0 0"/><path fill="#6c232f" d="m129.617 295.531 28.79 2.48-25.4 16.423Zm0 0"/><path fill="#f04e52" d="m133.957 275.992 24.84-15.746.289 20.992Zm0 0"/><path fill="#d8f0e7" d="m173.3 340.523 2.653-10.367 4.39 16.207Zm0 0"/><path fill="#d9f1e8" d="m133.168 342.973 26.078.265-16.371 19.223Zm0 0"/><path fill="#4a2433" d="m143.207 330.32-15.414 1.809 5.215-17.695Zm0 0"/><path fill="#d9f1e8" d="m185.102 169.766-1.18-7.739 16.387-2.125Zm0 0"/><path fill="#d9f1e8" d="m183.922 162.027 1.18 7.739-5.766-7.457Zm0 0"/><path fill="#202b3c" d="m200.309 159.902-16.387 2.125 13.016-5.207Zm0 0"/><path fill="#93dbc7" d="m147.781 156.52-10.129-10.41 19.864-4.508Zm0 0"/><path fill="#94deca" d="m137.652 146.11 10.13 10.41-15.868 6.824Zm0 0"/><path fill="#eb5356" d="m194.332 143.117 4.785-6.453 6.219 13.149Zm0 0"/><path fill="#1d2738" d="m194.332 143.117 11.004 6.696-8.399 7.007Zm0 0"/><path fill="#1c2637" d="m182.758 146.855 11.574-3.738 2.606 13.703Zm0 0"/><path fill="#ee4d51" d="m199.117 136.664-4.785 6.453-4.785-6.554Zm0 0"/><path fill="#98363c" d="m194.332 143.117-11.574 3.738 6.789-10.292Zm0 0"/><path fill="#ec5457" d="m113.957 172.582 12.219 6.863-9.582 3.89Zm0 0"/><path fill="#e9595b" d="m116.594 183.336 9.582-3.89-.23 14.984Zm0 0"/><path fill="#c98c85" d="m126.176 179.445 20.195 5.602-20.426 9.383Zm0 0"/><path fill="#daf1e8" d="m113.957 172.582-11.555 9.637 2.266-20.606Zm0 0"/><path fill="#daf2e9" d="m104.668 161.613-2.266 20.606-36.691-6.965Zm0 0"/><path fill="#756566" d="m206.27 262.2-16.11 8.925-.469-31.14Zm0 0"/><path fill="#1f2637" d="m168.652 250.945-9.855 9.301-2.926-22.723Zm0 0"/><path fill="#1e2537" d="m158.797 260.246 9.855-9.3 2.024 13.98Zm0 0"/><path fill="#2f2536" d="m170.781 285.469-.105-20.543 19.484 6.199Zm0 0"/><path fill="#1e2537" d="m170.676 264.926.105 20.543-11.695-4.23Zm0 0"/><path fill="#1d2537" d="m158.797 260.246 11.879 4.68-11.59 16.312Zm0 0"/><path fill="#9f4a4d" d="m205.645 208.125-7.208 14.078-4.386-11.426Zm0 0"/><path fill="#984d4f" d="m205.645 208.125-11.594 2.652 1.031-12.359Zm0 0"/><path fill="#212537" d="m170.781 285.469-12.375 12.543.68-16.774Zm0 0"/><path fill="#2d2536" d="m181.348 311.785-22.942-13.773 12.375-12.543Zm0 0"/><path fill="#daf2e9" d="m240.492 102.23-23.02-4.855 23.176-14.969Zm0 0"/><path fill="#daf1e8" d="m217.473 97.375 23.02 4.855-13.661 13.34Zm0 0"/><path fill="#f04e52" d="m171.574 100.242 30.73-1.898-9.57 20.312ZM226.832 115.57l-24.527-17.226 15.168-.969ZM192.734 118.656l9.57-20.312 24.528 17.226Zm0 0"/><path fill="#daf2e9" d="m307.207 196.7 6.352-12.907 23.421 14.824ZM313.559 183.793l6.14-25.086 17.281 39.91Zm0 0"/><path fill="#daf1e8" d="m297.117 178.781 16.442 5.012-6.352 12.906Zm0 0"/><path fill="#daf1e8" d="m319.7 158.707-6.141 25.086-16.442-5.012Zm0 0"/><path fill="#c1928b" d="m165.125 214.55-9.254 22.973-9.672-18.355Zm0 0"/><path fill="#a7b5a8" d="m173.84 238.625-17.969-1.102 9.254-22.972Zm0 0"/><path fill="#795659" d="m168.652 250.945-12.78-13.422 17.968 1.102Zm0 0"/><path fill="#ca8d87" d="m155.871 237.523-16.695-12.078 7.023-6.277Zm0 0"/><path fill="#daf1e8" d="m155.871 237.523-21.039 7.043 4.344-19.12Zm0 0"/><path fill="#252a3b" d="m168.652 250.945 8.157 3.23-6.133 10.75Zm0 0"/><path fill="#6e6869" d="m190.16 271.125-13.351-16.95 12.882-14.19Zm0 0"/><path fill="#2d2636" d="m176.809 254.176 13.351 16.949-19.484-6.2Zm0 0"/><path fill="#886f6e" d="m176.809 254.176-2.97-15.551 15.852 1.36Zm0 0"/><path fill="#806062" d="m176.809 254.176-8.157-3.23 5.188-12.321Zm0 0"/><path fill="#daf1e8" d="m215.824 151.852-3.219-9.86 16.653-.687Zm0 0"/><path fill="#d9f1e8" d="m212.605 141.992 3.22 9.86-10.49-2.04Zm0 0"/><path fill="#daf1e8" d="m229.258 141.305-16.653.687 4.625-14.113ZM212.605 141.992l-13.488-5.328 18.113-8.785Zm0 0"/><path fill="#daf1e8" d="m199.117 136.664 13.488 5.328-7.27 7.82Zm0 0"/><path fill="#daf2e9" d="m185.133 374.496 12.847-27.734 23.727 13.84ZM197.98 346.762l-12.847 27.734-4.79-28.133Zm0 0"/><path fill="#292637" d="m190.16 271.125-8.812 40.66-10.567-26.316Zm0 0"/><path fill="#95ddca" d="m203.102 313.512-21.754-1.727 8.812-40.66Zm0 0"/><path fill="#382636" d="m220.047 272.184-14.59 11.937.813-21.922Zm0 0"/><path fill="#3e2534" d="m205.457 284.121 14.59-11.937 14.058 14.707Zm0 0"/><path fill="#212537" d="m205.457 284.121 23.207 28.906-25.562.485Zm0 0"/><path fill="#572432" d="m228.664 313.027-23.207-28.906 28.648 2.77Zm0 0"/><path fill="#d9f1e8" d="m197.98 346.762 20.993-1.035 2.734 14.875Zm0 0"/><path fill="#daf2e9" d="m222.277 347.715 6.989-4.777-7.559 17.664Zm0 0"/><path fill="#daf2e9" d="m218.973 345.727 3.304 1.988-.57 12.887Zm0 0"/><path fill="#1e283a" d="m229.266 342.938-7.696-8.387 9.746-5.977Zm0 0"/><path fill="#d9f1e8" d="m221.57 334.55 7.696 8.387-10.293 2.79Zm0 0"/><path fill="#daf1e8" d="m229.266 342.938-6.989 4.777-3.304-1.988Zm0 0"/><path fill="#1c2637" d="m240.574 339.805-9.258-11.23 15.246-1.86Zm0 0"/><path fill="#1c2638" d="m240.574 339.805-11.308 3.132 2.05-14.363Zm0 0"/><path fill="#1c2537" d="m240.574 339.805 5.988-13.09 11.313 15.305Zm0 0"/><path fill="#daf2e9" d="m240.574 339.805 17.301 2.215-14.96 11.918Zm0 0"/><path fill="#d9f1e8" d="m229.266 342.938 11.308-3.133 2.34 14.132Zm0 0"/><path fill="#e7494d" d="m322.582 297.352-11.05 5.671-.766-23.218Zm0 0"/><path fill="#c6383e" d="m311.531 303.023-17.527-7.156 16.762-16.062Zm0 0"/><path fill="#8c222c" d="M274.941 302.21 293 318.485l-15.242 8.934Zm0 0"/><path fill="#3e2434" d="m264.605 324.813 10.336-22.602 2.817 25.207Zm0 0"/><path fill="#662330" d="m264.605 324.813-14.843-13.489 25.18-9.113Zm0 0"/><path fill="#692330" d="m249.762 311.324 14.843 13.488-18.043 1.903Zm0 0"/><path fill="#92242d" d="m129.059 60.852 2.246 11.425-11.368-2.55Zm0 0"/><path fill="#8f242e" d="m131.305 72.277-7.985 9.641-3.382-12.191Zm0 0"/><path fill="#1c2638" d="m131.305 72.277-2.246-11.425 11.234 6.253Zm0 0"/><path fill="#942c34" d="m123.32 81.918 7.985-9.64 8.191 16.093Zm0 0"/><path fill="#1e2638" d="m139.496 88.371-8.191-16.094 8.988-5.172Zm0 0"/><path fill="#f04e52" d="m171.574 100.242 23.54-22.98 7.19 21.082Zm0 0"/><path fill="#d23f45" d="m159.906 74.64 11.668 25.602-12.648-1.543Zm0 0"/><path fill="#9f262f" d="m158.926 98.7 12.648 1.542-7.77 17.617Zm0 0"/><path fill="#f04d51" d="m177.527 73.305-17.62 1.336 9.753-17.657Zm0 0"/><path fill="#f04d51" d="m186.96 63-9.433 10.305-7.867-16.32ZM177.527 73.305l-5.953 26.937-11.668-25.601Zm0 0"/><path fill="#f04d51" d="m195.113 77.262-17.586-3.957L186.961 63Zm0 0"/><path fill="#f04e52" d="m171.574 100.242 5.953-26.937 17.586 3.957Zm0 0"/><path fill="#96222b" d="m115.918 282.406 13.7 13.125-22.513-.84Zm0 0"/><path fill="#9b242d" d="m115.918 282.406-8.813 12.285-3.57-10.23Zm0 0"/><path fill="#d94247" d="m102.613 272.887 13.305 9.52-12.383 2.054Zm0 0"/><path fill="#c1494d" d="m159.086 281.238-.68 16.774-28.789-2.48Zm0 0"/><path fill="#daf1e8" d="m132.012 263.832-15.293-9.922 18.113-9.344ZM142.875 362.46l26.313-10.702 15.945 22.738Zm0 0"/><path fill="#daf1e8" d="m159.246 343.238 9.941 8.52-26.312 10.703Zm0 0"/><path fill="#d9f1e8" d="m169.188 351.758-9.942-8.52 14.055-2.715ZM127.793 332.129l15.414-1.809-10.039 12.653Zm0 0"/><path fill="#1c2637" d="m143.207 330.32 16.04 12.918-26.079-.265Zm0 0"/><path fill="#6c9e97" d="m170.914 173.066-4.562-22.77 12.984 12.013Zm0 0"/><path fill="#d9f1e8" d="m183.008 158.023-16.656-7.726 16.406-3.442Zm0 0"/><path fill="#273644" d="m183.922 162.027-.914-4.004 13.93-1.203Zm0 0"/><path fill="#d9f1e8" d="m183.008 158.023-.25-11.168 14.18 9.965Zm0 0"/><path fill="#9ddecc" d="m183.008 158.023.914 4.004-4.586.282Zm0 0"/><path fill="#212c3d" d="m166.352 150.297 16.656 7.726-3.672 4.286Zm0 0"/><path fill="#ab2f36" d="m163.805 117.86 12.132 6.05-13.757 8.887Zm0 0"/><path fill="#9d252d" d="m182.758 146.855-6.82-22.945 13.609 12.653Zm0 0"/><path fill="#9a232c" d="m175.938 123.91 6.82 22.945-20.578-14.058Zm0 0"/><path fill="#d9f1e8" d="m146.11 127.86-8.458 18.25-14.87-13.567Zm0 0"/><path fill="#d9f1e8" d="m137.652 146.11 8.457-18.25 11.407 13.742Zm0 0"/><path fill="#ad2f36" d="m123.082 121.27 23.027 6.59-23.328 4.683Zm0 0"/><path fill="#9b222b" d="m142.316 115.172 3.793 12.687-23.027-6.59Zm0 0"/><path fill="#daf1e8" d="m102.402 182.219 14.192 1.117-3.563 7.39Zm0 0"/><path fill="#daf1e8" d="m102.402 182.219 11.555-9.637 2.637 10.754Zm0 0"/><path fill="#ef5558" d="m133.957 275.992-1.945-12.16 26.785-3.586Zm0 0"/><path fill="#2a2637" d="m156.793 322.758 24.555-10.973-1.938 9.309Zm0 0"/><path fill="#222537" d="m156.793 322.758 1.613-24.746 22.942 13.773Zm0 0"/><path fill="#462433" d="m156.793 322.758-13.586 7.562-10.2-15.886Zm0 0"/><path fill="#502432" d="m158.406 298.012-1.613 24.746-23.785-8.324Zm0 0"/><path fill="#daede5" d="m221.57 334.55 1.723-9.94 8.023 3.964Zm0 0"/><path fill="#2a2536" d="m223.293 324.61 5.371-11.583 2.652 15.547Zm0 0"/><path fill="#452433" d="m228.664 313.027-5.371 11.582-20.191-11.097Zm0 0"/><path fill="#ee4d51" d="m311.531 303.023 11.051-5.671 5.379 12.796Zm0 0"/><path fill="#ef4d51" d="m322.582 297.352 9.918 3.351-4.54 9.445Zm0 0"/><path fill="#cc3b41" d="m294.004 295.867 17.527 7.156L293 318.484Zm0 0"/><path fill="#ea4b4f" d="m133.957 275.992-4.34 19.54-13.699-13.126Zm0 0"/><path fill="#ee4d51" d="m133.957 275.992 25.129 5.246-29.469 14.293Zm0 0"/><path fill="#f04d51" d="m122.953 268.238 11.004 7.754-18.039 6.414Zm0 0"/><path fill="#d9f1e8" d="m169.188 351.758 4.113-11.235 7.043 5.84Zm0 0"/><path fill="#daf2e9" d="m185.133 374.496-15.946-22.738 11.157-5.395Zm0 0"/><path fill="#1c2638" d="m159.246 343.238-2.453-20.48 16.508 17.765Zm0 0"/><path fill="#1f2637" d="m143.207 330.32 13.586-7.562 2.453 20.48Zm0 0"/><path fill="#212638" d="m175.953 330.156-19.16-7.398 22.617-1.664Zm0 0"/><path fill="#212b3c" d="m156.793 322.758 19.16 7.398-2.652 10.367Zm0 0"/><path fill="#d9f1e8" d="m182.758 146.855-25.242-5.253 4.664-8.805ZM166.352 150.297l-8.836-8.695 25.242 5.253Zm0 0"/><path fill="#f04d51" d="m175.938 123.91 16.796-5.254-3.187 17.906Zm0 0"/><path fill="#f04d51" d="m171.574 100.242 21.16 18.414-16.797 5.254Zm0 0"/><path fill="#f04e52" d="m192.734 118.656 6.383 18.008-9.57-.101Zm0 0"/><path fill="#628f8c" d="m147.781 156.52 18.57-6.223 4.563 22.77Zm0 0"/><path fill="#292637" d="m152.52 103.953 11.285 13.906-21.489-2.687Zm0 0"/><path fill="#602431" d="m123.516 104.273-3.489-14.359 19.47-1.543Zm0 0"/><path fill="#ed4d51" d="m152.52 103.953-29.004.32 15.98-15.902Zm0 0"/><path fill="#ae2f36" d="m123.516 104.273 29.004-.32-10.204 11.219Zm0 0"/><path fill="#a1252e" d="m123.516 104.273 18.8 10.899-19.234 6.098Zm0 0"/><path fill="#f04d51" d="m120.027 89.914 3.489 14.36-10.684 4.038Zm0 0"/><path fill="#f04d51" d="m123.516 104.273-.434 16.997-10.25-12.957Zm0 0"/><path fill="#daf1e8" d="m158.797 260.246-23.965-15.68 21.04-7.043ZM132.012 263.832l2.82-19.266 23.965 15.68Zm0 0"/><path fill="#94ddc9" d="m197.898 333.133-9.546-8.82 14.75-10.801Zm0 0"/><path fill="#96ddc9" d="m188.352 324.313-7.004-12.528 21.754 1.727Zm0 0"/><path fill="#94dbc8" d="m188.352 324.313-12.399 5.843 3.457-9.062Zm0 0"/><path fill="#95dbc8" d="m181.348 311.785 7.004 12.527-8.942-3.218Zm0 0"/><path fill="#1d2537" d="m208.008 333.148 10.965 12.579-20.993 1.035Zm0 0"/><path fill="#1c2638" d="m197.898 333.133 10.11.015-10.028 13.614Zm0 0"/><path fill="#1f2739" d="m208.008 333.148-10.11-.015 5.204-19.621Zm0 0"/><path fill="#daf1e8" d="m132.012 263.832-9.059 4.406-6.234-14.328Zm0 0"/><path fill="#f04d51" d="m122.953 268.238 9.059-4.406 1.945 12.16Zm0 0"/><path fill="#93d7c4" d="m157.516 141.602 8.836 8.695-18.57 6.223Zm0 0"/><path fill="#a02e35" d="m146.11 127.86 17.695-10-1.625 14.937Zm0 0"/><path fill="#d9f1e8" d="m146.11 127.86 16.07 4.937-4.664 8.805Zm0 0"/><path fill="#9b232c" d="m163.805 117.86-17.696 10-3.793-12.688Zm0 0"/><path fill="#d9f0e7" d="m188.352 324.313.097 10.199-12.496-4.356Zm0 0"/><path fill="#99d8c7" d="m188.45 334.512-.098-10.2 9.546 8.82Zm0 0"/><path fill="#d9f1e8" d="m175.953 330.156 12.496 4.356-8.105 11.851Zm0 0"/><path fill="#1c2638" d="m188.45 334.512 9.53 12.25-17.636-.399Zm0 0"/><path fill="#1c2638" d="m188.45 334.512 9.448-1.38.082 13.63Zm0 0"/><path fill="#202537" d="m208.008 333.148 13.562 1.403-2.597 11.176Zm0 0"/><path fill="#312838" d="m208.008 333.148 15.285-8.539-1.723 9.942Zm0 0"/><path fill="#1d2537" d="m223.293 324.61-15.285 8.538-4.906-19.636Zm0 0"/></svg>