<svg xmlns="http://www.w3.org/2000/svg" width="512" height="512" viewBox="0 0 384 384"><path fill="#dcd483" d="m204.914 384.04-44.14-.036-.708-10.008Zm0 0"/><path fill="#202215" d="m24.043 333.148 12.32-47.222 26.684 36.554ZM30.156 365.531l-6.113-32.383 39.004-10.668ZM383.84 277.656l.152 36.762-12.754-5.07Zm0 0"/><path fill="#963d3c" d="m166.387 73.07-8.856 19.246L147 83.555ZM166.387 73.07l14.125 28.727-22.98-9.48Zm0 0"/><path fill="#222315" d="M118.172 109.895 103.09 148.57l-2.285-.199Zm0 0"/><path fill="#943b3b" d="m157.531 92.316-39.676 15.852L147 83.555Zm0 0"/><path fill="#202215" d="M91.691 126.586 78.348 99.262l21.734-7.746Zm0 0"/><path fill="#963c3c" d="m199.305 89.203 1.129-16.965 19.757 9.051Zm0 0"/><path fill="#ded684" d="m241.375 150.926-13.203-23.594 24.758-1.973Zm0 0"/><path fill="#dcd482" d="m261.398 44.203 17.75-16.3-1.668 22.984Zm0 0"/><path fill="#963c3c" d="m299.363 115.238-31.582-30.785 48.14 19.914Zm0 0"/><path fill="#2b2c1b" d="m136.602 62.137-21.16 3.383 17.285-22.993Zm0 0"/><path fill="#202215" d="m0 272.383 36.363 13.543-36.367 30.531Zm0 0"/><path fill="#cac378" d="M42.348 203.172 0 225.722l-.012-36.59Zm0 0"/><path fill="#dbd382" d="m66 373.023 9.898 10.98-39.421.009Zm0 0"/><path fill="#ded684" d="m30.156 365.531 23.524-3.902-12.09 11.926Zm0 0"/><path fill="#202215" d="m53.68 361.629-23.524 3.902 32.89-43.05Zm0 0"/><path fill="#212315" d="m-.004 316.457 24.047 16.691-24.05 18.172Zm0 0"/><path fill="#bbb56f" d="m289.113 289.77-5.105 15.421-19.86-5.894Zm0 0"/><path fill="#202215" d="m279.484 344.086-29.847 11.578 18.968-21.504Zm0 0"/><path fill="#202215" d="m282.633 326.094-3.149 17.992-10.879-9.926Zm0 0"/><path fill="#c9c176" d="m269.816 319.227 12.817 6.867-14.028 8.066Zm0 0"/><path fill="#958f55" d="m167.61 228.164 34.038-13.848-3.195 45.48Zm0 0"/><path fill="#5c4d1f" d="m201.648 214.316-34.039 13.848 2.918-42.91Zm0 0"/><path fill="#dcd483" d="m367.023 241.258 6.485-13.64 10.484 3.362Zm0 0"/><path fill="#202215" d="m339.367 280.484-8.101 16.985-11.754-21.457Zm0 0"/><path fill="#3b2903" d="m180.512 101.797-18.403 14.3-4.578-23.78Zm0 0"/><path fill="#dcd483" d="m55.395 162.824 21.488 23.602-34.535 16.746Zm0 0"/><path fill="#202215" d="m84.91 216.926-8.027-30.5 5.93-9.656Zm0 0"/><path fill="#212215" d="m78.945 138.555 21.86 9.816-34.035 3.461Zm0 0"/><path fill="#953c3c" d="m91.691 126.586-12.746 11.969-.597-39.293Zm0 0"/><path fill="#cac175" d="m43.566 127.27 23.204 24.562-33.692-1.937Zm0 0"/><path fill="#ded684" d="M78.945 138.555 66.77 151.832 43.566 127.27Zm0 0"/><path fill="#d8d07f" d="m66.77 151.832-11.375 10.992-22.317-12.93Zm0 0"/><path fill="#212315" d="m117.855 108.168-26.164 18.418 8.391-35.07Zm0 0"/><path fill="#878451" d="m91.691 126.586 26.164-18.418.317 1.727Zm0 0"/><path fill="#322608" d="m149.215 113.887-31.36-5.719 39.676-15.852Zm0 0"/><path fill="#3a2802" d="m162.11 116.098-12.895-2.211 8.316-21.57Zm0 0"/><path fill="#3a2802" d="m152.785 121.008-3.57-7.121 12.894 2.21Zm0 0"/><path fill="#3c2903" d="m374.906 118.277-28.926 2.563-.753-23.508Zm0 0"/><path fill="#ded684" d="m284.262 183.543-37.524 2.656 20.02-23.558Zm0 0"/><path fill="#953b3b" d="m250 0 9.824 26.273-30.531 9.899Zm0 0"/><path fill="#3a2802" d="m219.906 61.11 9.387-24.938 7.027 18.297Zm0 0"/><path fill="#3b2903" d="m238.035 70.402-18.129-9.293 16.414-6.64Zm0 0"/><path fill="#963c3c" d="m219.906 61.11 18.13 9.292L220.19 81.29Zm0 0"/><path fill="#ddd584" d="m197.664 29.93 31.629 6.242-24.106 15.215Zm0 0"/><path fill="#ded684" d="m217.766 114.41-15.711 6.63.37-11.063Zm0 0"/><path fill="#963c3c" d="m267.781 84.453-10.41-10.547 20.11-23.02ZM250 0l-53.18 27.055L157.785 0Zm0 0"/><path fill="#953c3c" d="M196.82 27.055 250 0l-20.707 36.172Zm0 0"/><path fill="#963d3c" d="m197.664 29.93-.844-2.875 32.473 9.117Zm0 0"/><path fill="#ded684" d="m299.363 115.238-7.406 8.567-24.176-39.352Zm0 0"/><path fill="#3a2802" d="m291.957 123.805-39.027 1.554 14.851-40.906Zm0 0"/><path fill="#963c3c" d="m252.93 125.36-11.16-32.11 26.011-8.797Zm0 0"/><path fill="#963c3c" d="m241.77 93.25 15.601-19.344 10.41 10.547ZM257.371 73.906 241.77 93.25l-3.735-22.848Zm0 0"/><path fill="#ddd584" d="m261.398 44.203-1.574-17.93 19.324 1.63Zm0 0"/><path fill="#ded684" d="m17.477 51.191 15.558.625-8.453 11.793Zm0 0"/><path fill="#242516" d="m.008 142.738 43.558-15.468-10.488 22.625Zm0 0"/><path fill="#232516" d="m115.441 65.52-6.453-6.676 23.739-16.317Zm0 0"/><path fill="#963c3c" d="m132.727 42.527-23.739 16.317L84.172 0Zm0 0"/><path fill="#963c3c" d="m84.172 0 24.816 58.844-41.703-15.73Zm0 0"/><path fill="#c8c077" d="m108.988 58.844-38.027.035-3.676-15.766Zm0 0"/><path fill="#2b2c1b" d="m108.988 58.844-5.675 12.488L70.96 58.879Zm0 0"/><path fill="#282a1a" d="m103.313 71.332 5.675-12.488 6.453 6.676Zm0 0"/><path fill="#953c3b" d="m78.945 138.555-20.558-37.07 19.96-2.223Zm0 0"/><path fill="#d9d080" d="m58.387 101.484 20.558 37.07-35.379-11.284Zm0 0"/><path fill="#ded684" d="M62.766 78.48 50.914 62.21l20.047-3.331Zm0 0"/><path fill="#d7ce7e" d="M70.96 58.879 50.915 62.21l16.371-19.098Zm0 0"/><path fill="#d0c679" d="M50.914 62.21 34.801 27.497l32.484 15.617Zm0 0"/><path fill="#756731" d="m34.8 27.496 16.114 34.715-17.879-10.395Zm0 0"/><path fill="#2c2d1c" d="m25.094 86.195 18.472 41.075L.008 142.738Zm0 0"/><path fill="#ded684" d="m50.914 62.21-8.965 8.177-8.914-18.57ZM41.95 70.387l8.964-8.176 11.852 16.27Zm0 0"/><path fill="#ded684" d="m41.95 70.387-17.368-6.778 8.453-11.793Zm0 0"/><path fill="#202215" d="M41.95 70.387 25.093 86.195l-.512-22.586Zm0 0"/><path fill="#963c3c" d="m306.914 0 12.121 26.621-18.48.996ZM319.035 26.621l11.68-9.305 21.816 28.477Zm0 0"/><path fill="#953c3c" d="m383.988 123.98-9.082-5.703L384 79.172Zm0 0"/><path fill="#5e4e1e" d="m345.98 120.84 28.926-2.563-9.082.805Zm0 0"/><path fill="#963c3c" d="m384 79.172-9.094 39.105-29.68-20.945Zm0 0"/><path fill="#202215" d="m135.176 255.047 17.504 50.219-75.14-33.957ZM107.762 229.723 84.91 216.926l-2.097-40.156Zm0 0"/><path fill="#65643d" d="m197.445 331.43-9.757-33.399 36.074 1.98Zm0 0"/><path fill="#363722" d="m9.04 173.785 15.108-3.918 18.2 33.305Zm0 0"/><path fill="#d7cf80" d="m24.148 169.867 31.247-7.043-13.047 40.348Zm0 0"/><path fill="#202215" d="m55.395 162.824-31.247 7.043 8.93-19.972ZM36.363 285.926 20.59 254.53l20.746-6.367ZM0 272.383l20.59-17.852 15.773 31.395Zm0 0"/><path fill="#d3cc7e" d="M48.414 211.613 0 225.723l42.348-22.551Zm0 0"/><path fill="#8b8854" d="m101.02 348.902-18.63 21.72-10.163-20.442Zm0 0"/><path fill="#ddd684" d="M82.39 370.621 66 373.023l6.227-22.843Zm0 0"/><path fill="#dad382" d="m66 373.023 16.39-2.402-6.492 13.383Zm0 0"/><path fill="#ded684" d="M53.68 361.629 66 373.023l-24.41.532Zm0 0"/><path fill="#ddd584" d="M66 373.023 53.68 361.63l18.547-11.45Zm0 0"/><path fill="#dad282" d="m66 373.023-29.523 10.989 5.113-10.457Zm0 0"/><path fill="#202215" d="m-.004 316.457 36.367-30.531-12.32 47.222ZM331.266 297.469l-16.383-18.914 4.629-2.543Zm0 0"/><path fill="#b1ab69" d="m320.672 346.273 9.95 20.176-28.845-1.73Zm0 0"/><path fill="#ded684" d="M330.621 366.45 301.895 384l-.118-19.281Zm0 0"/><path fill="#202215" d="m279.484 344.086-1.726 17.137-28.121-5.559Zm0 0"/><path fill="#ded684" d="m277.758 361.223-30.754 9.73 2.633-15.289Zm0 0"/><path fill="#bfb872" d="m269.816 319.227-30.718 7.8 25.05-27.73Zm0 0"/><path fill="#30311e" d="m239.098 327.027-41.653 4.403 26.317-31.418Zm0 0"/><path fill="#98945b" d="m239.098 327.027 30.718-7.8-1.21 14.933Zm0 0"/><path fill="#b4ae6b" d="m239.098 327.027 14.656-32.293 10.394 4.563Zm0 0"/><path fill="#b4ae6c" d="m253.754 294.734-14.656 32.293-15.336-27.015Zm0 0"/><path fill="#d3cb7d" d="m201.648 214.316-31.12-29.062 29.706-15.883Zm0 0"/><path fill="#202215" d="m82.813 176.77 43.12 41.765-18.171 11.188Zm0 0"/><path fill="#202215" d="m135.176 255.047-27.414-25.324 18.172-11.188Zm0 0"/><path fill="#212316" d="m167.61 228.164-32.434 26.883-9.242-36.512Zm0 0"/><path fill="#473913" d="m167.61 228.164-28.837-24.824 31.754-18.086Zm0 0"/><path fill="#232313" d="m138.773 203.34 28.836 24.824-41.675-9.629Zm0 0"/><path fill="#202215" d="m62.066 258.11-25.703 27.816 4.973-37.762ZM68.113 220.563l1.453-12.602 15.344 8.965Zm0 0"/><path fill="#262819" d="m69.566 207.96-21.152 3.653-6.066-8.441Zm0 0"/><path fill="#dcd483" d="m48.414 211.613 21.152-3.652-1.453 12.601Zm0 0"/><path fill="#b6b06c" d="m76.883 186.426-7.317 21.535-27.218-4.79Zm0 0"/><path fill="#202215" d="m69.566 207.96 7.317-21.534 8.027 30.5Zm0 0"/><path fill="#ded684" d="m327.605 220.68-22.765 7.347 7.96-15.359Zm0 0"/><path fill="#ded684" d="m304.84 228.027 22.765-7.347.68 2.101ZM326.477 245.305l-21.637-17.278 23.445-5.246Zm0 0"/><path fill="#ded684" d="m304.84 228.027 21.637 17.278-17.461 5.93Zm0 0"/><path fill="#dbd382" d="m361.668 188.453-4.398 11.192-10.81-14.516Zm0 0"/><path fill="#ded684" d="m357.27 199.645 4.398-11.192 11.84 39.164Zm0 0"/><path fill="#3b2a05" d="m383.992 230.98-22.324-42.527L384 183.418Zm0 0"/><path fill="#3d2b05" d="m361.668 188.453 22.324 42.527-10.484-3.363Zm0 0"/><path fill="#ded684" d="m384.004 252.684.164 25.285-15.309-14.543ZM384.004 252.684l-16.98-11.426 16.968-10.278Zm0 0"/><path fill="#212315" d="m368.86 263.426 14.98 14.23-12.602 31.692Zm0 0"/><path fill="#5e5c39" d="m384.168 277.969-.328-.313-14.98-14.23Zm0 0"/><path fill="#dbd382" d="m360.648 268.441 8.211-5.015 2.38 45.922Zm0 0"/><path fill="#202215" d="m339.367 280.484 7.004 20.844-15.105-3.86Zm0 0"/><path fill="#ddd584" d="m346.371 301.328-9.746 9.77-5.36-13.63Zm0 0"/><path fill="#202215" d="m346.371 301.328 14.277-32.887 10.59 40.907Zm0 0"/><path fill="#202215" d="m360.648 268.441-14.277 32.887-7.004-20.844Zm0 0"/><path fill="#8b8854" d="m330.621 366.45-9.95-20.177 26.974-1.87Zm0 0"/><path fill="#dad282" d="m362.918 383.941 7.2-13.351 13.886 13.406Zm0 0"/><path fill="#dad282" d="m370.117 370.59 13.883-.203.004 13.61Zm0 0"/><path fill="#963c3c" d="m166.387 73.07 34.047-.832-1.13 16.965Zm0 0"/><path fill="#963c3c" d="M180.512 101.797 166.387 73.07l32.918 16.133Zm0 0"/><path fill="#dbd181" d="m202.055 121.04-16.465-7.411 16.836-3.652Zm0 0"/><path fill="#ded684" d="m185.59 113.629 16.465 7.41-11.121 12.785Zm0 0"/><path fill="#3c2a03" d="m180.512 101.797 5.078 11.832-23.48 2.469Zm0 0"/><path fill="#953d3b" d="m185.59 113.629-5.078-11.832 21.914 8.18Zm0 0"/><path fill="#963c3c" d="m180.512 101.797 18.793-12.594 3.12 20.774ZM157.785 0l-25.058 42.527L84.172 0Zm0 0"/><path fill="#953c3b" d="m157.785 0 39.035 27.055-13.414 15.027Zm0 0"/><path fill="#963c3b" d="M.004 0h84.168L34.8 27.496Zm0 0"/><path fill="#963c3c" d="M34.8 27.496 84.173 0 67.285 43.113Zm0 0"/><path fill="#908c56" d="M123.355 156.953 107.25 177.52l-4.16-28.95Zm0 0"/><path fill="#dcd483" d="m156.488 147.676-29.82-14.336 22.8-2.774Zm0 0"/><path fill="#212214" d="m126.668 133.34-23.578 15.23 15.082-38.675Zm0 0"/><path fill="#dcd483" d="m126.668 133.34-3.313 23.613-20.265-8.383Zm0 0"/><path fill="#8e8348" d="m123.355 156.953 3.313-23.613 29.82 14.336Zm0 0"/><path fill="#202215" d="m82.813 176.77-27.418-13.946 11.375-10.992Zm0 0"/><path fill="#202215" d="m82.813 176.77-5.93 9.656-21.488-23.602Zm0 0"/><path fill="#212214" d="m91.691 126.586 9.114 21.785-21.86-9.816ZM91.691 126.586l26.48-16.691-17.366 38.476Zm0 0"/><path fill="#dcd483" d="m115.52 91.824-.079-26.304 21.16-3.383Zm0 0"/><path fill="#232213" d="m115.52 91.824 21.082-29.687L147 83.555Zm0 0"/><path fill="#202215" d="m117.855 108.168-2.335-16.344 31.48-8.27Zm0 0"/><path fill="#ddd584" d="m115.52 91.824-12.207-20.492 12.128-5.812Zm0 0"/><path fill="#212215" d="m115.52 91.824 2.335 16.344-17.773-16.652Zm0 0"/><path fill="#d9d281" d="m103.313 71.332 12.207 20.492-15.438-.308Zm0 0"/><path fill="#272411" d="m117.855 108.168 26.282 15.21-25.965-13.483Zm0 0"/><path fill="#322608" d="m149.215 113.887-5.078 9.492-26.282-15.211Zm0 0"/><path fill="#3a2802" d="m144.137 123.379 5.078-9.492 3.57 7.12Zm0 0"/><path fill="#232212" d="m144.137 123.379-17.469 9.96-8.496-23.444Zm0 0"/><path fill="#dbd382" d="m144.137 123.379 8.648-2.371-3.316 9.558Zm0 0"/><path fill="#d6cd7e" d="m126.668 133.34 17.469-9.961 5.332 7.187Zm0 0"/><path fill="#ded684" d="m241.375 150.926 25.383 11.715-20.02 23.558ZM241.375 150.926l-28.273-15.504 15.07-8.09Zm0 0"/><path fill="#ded684" d="m213.102 135.422 28.273 15.504-41.14 18.445Zm0 0"/><path fill="#cdc477" d="m242.125 225.367-40.477-11.05 45.09-28.118Zm0 0"/><path fill="#963c3c" d="m267.781 84.453 27.235-18.492 20.906 38.406Zm0 0"/><path fill="#963c3c" d="M295.016 65.96 267.78 84.454l9.7-33.566Zm0 0"/><path fill="#d1c87a" d="m279.148 27.902 20.332 17.34-22 5.645Zm0 0"/><path fill="#953c3b" d="m299.48 45.242-4.464 20.719-17.536-15.074Zm0 0"/><path fill="#412f07" d="m299.48 45.242-20.332-17.34 21.407-.285Zm0 0"/><path fill="#ded684" d="m202.055 121.04 11.047 14.382-22.168-1.598ZM213.102 135.422l4.664-21.012 10.406 12.922Zm0 0"/><path fill="#ded684" d="m217.766 114.41-4.664 21.012-11.047-14.383Zm0 0"/><path fill="#3d2b04" d="m229.293 36.172 30.531-9.899 1.574 17.93Zm0 0"/><path fill="#ded684" d="m229.293 36.172 32.105 8.031L236.32 54.47Zm0 0"/><path fill="#953c3b" d="m219.906 61.11-19.472 11.128 4.754-20.851Zm0 0"/><path fill="#3a2802" d="m229.293 36.172-9.387 24.937-14.719-9.722Zm0 0"/><path fill="#963c3c" d="m200.434 72.238 19.472-11.129.285 20.18ZM257.371 73.906l-3.215-12.941 23.324-10.078Zm0 0"/><path fill="#963c3c" d="m254.156 60.965 3.215 12.941-19.336-3.504Zm0 0"/><path fill="#ded684" d="m254.156 60.965-16.12 9.437-1.716-15.933ZM261.398 44.203l-7.242 16.762-17.836-6.496Zm0 0"/><path fill="#ded684" d="m254.156 60.965 7.242-16.762 16.082 6.684Zm0 0"/><path fill="#48370d" d="m259.824 26.273 18.258-4.796 1.066 6.425Zm0 0"/><path fill="#d1c779" d="m279.148 27.902-1.066-6.425 22.473 6.14Zm0 0"/><path fill="#963c3c" d="M278.082 21.477 306.914 0l-6.36 27.617ZM230.887 117.188 241.77 93.25l11.16 32.11Zm0 0"/><path fill="#ded684" d="m230.887 117.188-2.715 10.144-10.406-12.922ZM230.887 117.188l22.043 8.171-24.758 1.973Zm0 0"/><path fill="#963c3c" d="M241.77 93.25 220.19 81.29l17.844-10.888Zm0 0"/><path fill="#202215" d="M10.73 65.148.012 98.832.004 52.344Zm0 0"/><path fill="#d0c87b" d="M17.477 51.191 10.73 65.148.004 52.344Zm0 0"/><path fill="#cfc87b" d="m10.73 65.148 6.747-13.957 7.105 12.418Zm0 0"/><path fill="#953c3b" d="M43.566 127.27 25.094 86.195l33.293 15.29Zm0 0"/><path fill="#953c3c" d="m58.387 101.484 4.379-23.004 15.582 20.782Zm0 0"/><path fill="#202215" d="M78.348 99.262 62.766 78.48l37.316 13.036Zm0 0"/><path fill="#ddd584" d="m62.766 78.48 40.547-7.148-3.231 20.184Zm0 0"/><path fill="#ded684" d="M103.313 71.332 62.766 78.48 70.96 58.88Zm0 0"/><path fill="#953c3c" d="M58.387 101.484 44.953 80.16l17.813-1.68Zm0 0"/><path fill="#232314" d="m44.953 80.16-3.004-9.773 20.817 8.093Zm0 0"/><path fill="#953b3b" d="m25.094 86.195 19.86-6.035 13.433 21.324Zm0 0"/><path fill="#202215" d="m41.95 70.387 3.003 9.773-19.86 6.035Zm0 0"/><path fill="#bcb570" d="m.012 98.832 25.082-12.637L.008 142.738Zm0 0"/><path fill="#3a2802" d="m299.48 45.242 15.637-10.293 4.457 22.317Zm0 0"/><path fill="#3a2802" d="M315.117 34.95 299.48 45.241l1.075-17.625Zm0 0"/><path fill="#ded684" d="m319.035 26.621-3.918 8.328-14.562-7.332Zm0 0"/><path fill="#3a2802" d="m319.574 57.266-4.457-22.317 37.414 10.844Zm0 0"/><path fill="#ded684" d="m315.117 34.95 3.918-8.329 33.496 19.172Zm0 0"/><path fill="#963c3c" d="m306.914 0 23.8 17.316-11.679 9.305ZM330.715 17.316 306.915 0H384Zm0 0"/><path fill="#953b3b" d="m352.531 45.793-21.816-28.477L384 0Zm0 0"/><path fill="#963c3c" d="m310.352 127.316-10.989-12.078 16.559-10.87Zm0 0"/><path fill="#202215" d="m127.266 329.172-3.746 48.765-22.5-29.035Zm0 0"/><path fill="#a8a162" d="m160.066 373.996.707 10.008-18.695.008Zm0 0"/><path fill="#d8d081" d="m-.012 189.133.008-18.692 9.043 3.344Zm0 0"/><path fill="#d6cf80" d="m-.012 189.133 9.051-15.348 33.309 29.387Zm0 0"/><path fill="#202214" d="m12.523 161.535-12.527 8.906.012-27.703ZM24.148 169.867l-11.625-8.332 20.555-11.64Zm0 0"/><path fill="#202215" d="m-.004 170.441 12.527-8.906-3.484 12.25ZM12.523 161.535l11.625 8.332-15.109 3.918ZM12.523 161.535.008 142.738l33.07 7.157ZM-.004 243.945l20.594 10.586L0 272.383Zm0 0"/><path fill="#ddd584" d="m52.285 237.047-3.87-25.434 19.698 8.95Zm0 0"/><path fill="#202215" d="m52.285 237.047 9.781 21.062-20.73-9.945Zm0 0"/><path fill="#878451" d="m30.332 375.586-.176-10.055 11.434 8.024Zm0 0"/><path fill="#a9a465" d="m36.477 384.012-6.145-8.426 11.258-2.031Zm0 0"/><path fill="#212315" d="m30.332 375.586 6.145 8.426-36.461-.008Zm0 0"/><path fill="#242617" d="m0 373.934 15.895-4.313-15.88 14.383Zm0 0"/><path fill="#212316" d="m15.895 369.621 14.437 5.965-30.316 8.418Zm0 0"/><path fill="#202215" d="m30.332 375.586-14.437-5.965 14.261-4.09Zm0 0"/><path fill="#dad282" d="M11.152 357.914 0 373.934l-.008-22.614Zm0 0"/><path fill="#202215" d="m24.043 333.148-12.89 24.766-11.16-6.594Zm0 0"/><path fill="#202215" d="m11.152 357.914 12.891-24.766 6.113 32.383Zm0 0"/><path fill="#d8d181" d="m15.895 369.621-4.743-11.707 19.004 7.617Zm0 0"/><path fill="#d7cf80" d="m11.152 357.914 4.743 11.707L0 373.934Zm0 0"/><path fill="#dbd383" d="m123.52 377.938 18.558 6.074-66.18-.008Zm0 0"/><path fill="#ded684" d="m82.39 370.621 41.13 7.317-47.622 6.066Zm0 0"/><path fill="#bab46f" d="m123.52 377.938-41.13-7.317 18.63-21.719Zm0 0"/><path fill="#202215" d="m63.047 322.48 37.973 26.422-28.793 1.278Zm0 0"/><path fill="#202215" d="m63.047 322.48 64.219 6.692-26.246 19.73ZM53.68 361.629l9.367-39.149 9.18 27.7Zm0 0"/><path fill="#202214" d="m127.266 329.172-49.727-57.863 75.14 33.957Zm0 0"/><path fill="#202215" d="m63.047 322.48 14.492-51.171 49.727 57.863Zm0 0"/><path fill="#ded684" d="m273.426 221.66 10.836-38.117 16.101 22.703ZM320.672 346.273l7.43-17.8 19.543 15.93Zm0 0"/><path fill="#ddd584" d="m346.371 301.328 13.965 23.516-23.711-13.746Zm0 0"/><path fill="#ded684" d="m360.336 324.844-32.234 3.629 8.523-17.375Zm0 0"/><path fill="#dad282" d="m383.992 314.418-23.656 10.426 10.902-15.496Zm0 0"/><path fill="#dcd483" d="m360.336 324.844-13.965-23.516 24.867 8.02Zm0 0"/><path fill="#ded684" d="m328.102 328.473 32.234-3.63-12.691 19.56Zm0 0"/><path fill="#ddd584" d="m289.113 289.77 17.75 10.554-22.855 4.867Zm0 0"/><path fill="#ded684" d="m314.883 278.555-8.02 21.77-17.75-10.555Zm0 0"/><path fill="#202215" d="m306.863 300.324 8.02-21.77 16.383 18.915ZM279.484 344.086l3.149-17.992 17.715 10.101Zm0 0"/><path fill="#dcd483" d="m284.008 305.191 22.855-4.867-24.23 25.77Zm0 0"/><path fill="#bdb770" d="m269.816 319.227 14.192-14.036-1.375 20.903Zm0 0"/><path fill="#cbc377" d="m284.008 305.191-14.192 14.036-5.668-19.93Zm0 0"/><path fill="#202215" d="m293.23 353.738-13.746-9.652 20.864-7.89Zm0 0"/><path fill="#202215" d="m293.23 353.738-15.472 7.485 1.726-17.137ZM320.672 346.273l-27.442 7.465 7.118-17.543Zm0 0"/><path fill="#ddd584" d="m293.23 353.738 27.442-7.465-18.895 18.446Zm0 0"/><path fill="#434329" d="m239.098 327.027.035 17.383-41.688-12.98Zm0 0"/><path fill="#a5a063" d="m239.133 344.41-.035-17.383 29.507 7.133Zm0 0"/><path fill="#202215" d="m249.637 355.664-10.504-11.254 29.472-10.25Zm0 0"/><path fill="#262818" d="m144.367 170.742-37.117 6.778 16.105-20.567Zm0 0"/><path fill="#202215" d="m107.762 229.723 27.414 25.324-57.637 16.262ZM73.137 246.063l-5.024-25.5 16.797-3.637ZM107.762 229.723l-34.625 16.34 11.773-29.137Zm0 0"/><path fill="#ded684" d="m73.137 246.063-20.852-9.016 15.828-16.484Zm0 0"/><path fill="#202215" d="m52.285 237.047 20.852 9.016-11.07 12.046Zm0 0"/><path fill="#ded684" d="m348.484 244.168-9.054-9.48 5.316-6.727Zm0 0"/><path fill="#ded684" d="m339.43 234.688-11.145-11.907 16.461 5.18Zm0 0"/><path fill="#888552" d="m339.43 234.688-12.953 10.617 1.808-22.524Zm0 0"/><path fill="#3e2b05" d="m383.988 160.816.012 22.602-5.07-21.125Zm0 0"/><path fill="#d6cd7e" d="m383.988 160.816-5.058 1.477 5.058-38.313Zm0 0"/><path fill="#dbd382" d="m378.93 162.293-4.024-44.016 9.082 5.703Zm0 0"/><path fill="#402e07" d="m378.93 162.293-16.399-25.8 12.375-18.216Zm0 0"/><path fill="#3c2a03" d="m374.906 118.277-12.375 18.215 3.293-17.41Zm0 0"/><path fill="#a09453" d="m310.352 127.316 23.949 20.371-27.715-.746Zm0 0"/><path fill="#ded684" d="m319.86 195.29 7.745 25.39-14.804-8.012ZM300.363 206.246l19.496-10.957-7.058 17.379Zm0 0"/><path fill="#392702" d="m311.852 177.195 19.687 11.399-11.68 6.695Zm0 0"/><path fill="#ded684" d="m305.516 190.605-5.153 15.641-16.101-22.703ZM305.516 190.605l6.336-13.41 8.007 18.094Zm0 0"/><path fill="#ded684" d="m311.852 177.195-6.336 13.41-21.254-7.062ZM300.363 206.246l5.153-15.64 14.343 4.683Zm0 0"/><path fill="#3a2802" d="m356.188 221.016 1.082-21.371 16.238 27.972Zm0 0"/><path fill="#ded684" d="m367.023 241.258-10.836-20.242 17.32 6.601Zm0 0"/><path fill="#ded684" d="m356.188 221.016-7.704 23.152-3.738-16.207ZM348.484 244.168l7.704-23.152 10.835 20.242Zm0 0"/><path fill="#3a2802" d="m357.27 199.645-11.727 17.617.918-32.133Zm0 0"/><path fill="#d9d181" d="m345.543 217.262 10.644 3.754-11.44 6.945Zm0 0"/><path fill="#382703" d="m356.188 221.016-10.645-3.754 11.727-17.617Zm0 0"/><path fill="#ddd584" d="m328.285 222.781 17.258-5.52-.797 10.7Zm0 0"/><path fill="#bcb56f" d="m327.605 220.68 17.938-3.418-17.258 5.52Zm0 0"/><path fill="#3a2802" d="m354.496 167.715-8.035 17.414-8.04-12.934Zm0 0"/><path fill="#ddd583" d="m367.3 252.93 16.704-.246-15.145 10.742Zm0 0"/><path fill="#dcd483" d="m384.004 252.684-16.703.246-.278-11.672Zm0 0"/><path fill="#272919" d="m341.703 384.023 5.758-13.789 15.457 13.707Zm0 0"/><path fill="#ddd584" d="m384.012 350.344-16.371-3.926 16.347-14.613Zm0 0"/><path fill="#232517" d="m373.55 359.39-3.433 11.2-7.539-9.7Zm0 0"/><path fill="#252618" d="m370.117 370.59 3.434-11.2L384 370.388Zm0 0"/><path fill="#222416" d="m373.55 359.39 10.462-9.046-.012 20.043Zm0 0"/><path fill="#212315" d="m384.012 350.344-10.461 9.047-5.91-12.973Zm0 0"/><path fill="#ddd584" d="m367.64 346.418-7.304-21.574 23.652 6.96Zm0 0"/><path fill="#ddd584" d="m360.336 324.844 23.656-10.426-.004 17.387Zm0 0"/><path fill="#5f5e3a" d="m370.117 370.59-22.656-.356 15.117-9.343Zm0 0"/><path fill="#dcd483" d="m347.46 370.234 22.657.356-7.199 13.351Zm0 0"/><path fill="#ded584" d="m197.664 29.93-14.258 12.152 13.414-15.027Zm0 0"/><path fill="#d9d180" d="m183.406 42.082 14.258-12.152 7.524 21.457Zm0 0"/><path fill="#3a2802" d="m183.406 42.082 2.63 18.379-24.266-9.383Zm0 0"/><path fill="#3a2802" d="m186.035 60.46-19.648 12.61-4.617-21.992ZM186.035 60.46l-2.629-18.378 21.781 9.305Zm0 0"/><path fill="#963c3c" d="m200.434 72.238-14.399-11.777 19.153-9.074Zm0 0"/><path fill="#963c3c" d="m166.387 73.07 19.648-12.61 14.399 11.778Zm0 0"/><path fill="#953c3b" d="M155.766 28.016 157.786 0l25.62 42.082Zm0 0"/><path fill="#953b3b" d="m157.785 0-2.02 28.016-23.038 14.511Zm0 0"/><path fill="#3a2802" d="m155.766 28.016 27.64 14.066-21.636 8.996Zm0 0"/><path fill="#c7c076" d="m107.25 177.52-6.445-29.149 2.285.2Zm0 0"/><path fill="#9d995e" d="m100.805 148.371 6.445 29.149-24.437-.75Zm0 0"/><path fill="#212315" d="M100.805 148.371 82.812 176.77 66.77 151.832Zm0 0"/><path fill="#3f3f27" d="m223.762 300.012-36.074-1.98 10.765-38.235Zm0 0"/><path fill="#65633d" d="m238.059 254.965-14.297 45.047-25.309-40.215Zm0 0"/><path fill="#b3ad6b" d="m223.762 300.012 14.297-45.047 15.695 39.77Zm0 0"/><path fill="#cfc679" d="m238.059 254.965-36.41-40.649 40.476 11.051Zm0 0"/><path fill="#963c3c" d="m352.531 45.793-7.304 51.539-25.653-40.066Zm0 0"/><path fill="#963c3c" d="m345.227 97.332 7.304-51.539L384 79.172Zm0 0"/><path fill="#963c3c" d="m319.574 57.266 25.653 40.066-29.305 7.035Zm0 0"/><path fill="#963c3c" d="m295.016 65.96 24.558-8.694-3.652 47.101Zm0 0"/><path fill="#953b3b" d="m319.574 57.266-24.558 8.695 4.464-20.719Zm0 0"/><path fill="#bbb169" d="m170.527 185.254-14.039-37.578 43.746 21.695Zm0 0"/><path fill="#b2a861" d="m190.934 133.824-34.446 13.852 8.051-22.125Zm0 0"/><path fill="#ded684" d="m156.488 147.676 34.446-13.852 9.3 35.547Zm0 0"/><path fill="#dcd483" d="m164.54 125.55-8.052 22.126-7.02-17.11Zm0 0"/><path fill="#ded584" d="m152.785 121.008 11.754 4.543-15.07 5.015Zm0 0"/><path fill="#dbd382" d="m164.54 125.55-11.755-4.542 9.324-4.91Zm0 0"/><path fill="#dbd382" d="m185.59 113.629-21.05 11.922-2.43-9.453Zm0 0"/><path fill="#ded684" d="m164.54 125.55 21.05-11.921 5.344 20.195Zm0 0"/><path fill="#963c3c" d="M278.082 21.477 250 0h56.914Zm0 0"/><path fill="#953c3c" d="m278.082 21.477-18.258 4.796L250 0Zm0 0"/><path fill="#dcd483" d="m291.957 123.805 18.395 3.511-3.766 19.625Zm0 0"/><path fill="#d8cf7f" d="m310.352 127.316-18.395-3.511 7.406-8.567Zm0 0"/><path fill="#963c3c" d="m220.191 81.29-.812 19.116-20.074-11.203Zm0 0"/><path fill="#963c3c" d="m199.305 89.203 20.074 11.203-16.953 9.57Zm0 0"/><path fill="#963c3c" d="m219.379 100.406-1.613 14.004-15.34-4.433ZM34.8 27.496.017 17.36.004 0Zm0 0"/><path fill="#3f2e08" d="m.004 52.344.012-34.985 17.46 33.832Zm0 0"/><path fill="#ddd584" d="m.016 17.36 27.156 11.624-9.695 22.207Zm0 0"/><path fill="#202215" d="M25.094 86.195 15.98 73.152l8.602-9.543ZM15.98 73.152l-5.25-8.004 13.852-1.539Zm0 0"/><path fill="#202215" d="m10.73 65.148 5.25 8.004L.012 98.832ZM15.98 73.152l9.114 13.043L.012 98.832Zm0 0"/><path fill="#232517" d="m197.445 331.43-30.16 16.851-14.605-43.015Zm0 0"/><path fill="#272919" d="m167.285 348.281-40.02-19.11 25.415-23.905Zm0 0"/><path fill="#202215" d="m163.82 265.488-28.644-10.441 32.433-26.883Zm0 0"/><path fill="#202214" d="m163.82 265.488-11.14 39.778-17.504-50.22Zm0 0"/><path fill="#2a2b1a" d="m163.82 265.488 3.79-37.324 30.843 31.633Zm0 0"/><path fill="#252413" d="m152.68 305.266 11.14-39.778 23.868 32.543Zm0 0"/><path fill="#2e2911" d="m163.82 265.488 34.633-5.691-10.766 38.234Zm0 0"/><path fill="#ddd584" d="m140.125 358.79 1.953 25.222-18.558-6.074Zm0 0"/><path fill="#262818" d="m160.066 373.996-19.941-15.207 27.16-10.508Zm0 0"/><path fill="#dad282" d="m142.078 384.012-1.953-25.223 19.941 15.207Zm0 0"/><path fill="#202215" d="m127.266 329.172 12.859 29.617-16.605 19.149Zm0 0"/><path fill="#202215" d="m167.285 348.281-27.16 10.508-12.86-29.617Zm0 0"/><path fill="#2d2f1d" d="m197.445 331.43-44.765-26.164 35.007-7.235Zm0 0"/><path fill="#ded684" d="m26.453 230.91 25.832 6.137-10.95 11.117Zm0 0"/><path fill="#ded684" d="m52.285 237.047-25.832-6.137 21.961-19.297Zm0 0"/><path fill="#202215" d="m20.59 254.531 5.863-23.62 14.883 17.253Zm0 0"/><path fill="#222316" d="m48.414 211.613-21.96 19.297L0 225.723Zm0 0"/><path fill="#ded684" d="M26.453 230.91-.004 243.945 0 225.723Zm0 0"/><path fill="#202215" d="m-.004 243.945 26.457-13.035-5.863 23.621ZM63.047 322.48l-26.684-36.554 41.176-14.617Zm0 0"/><path fill="#ded684" d="m267.809 264.703 47.074 13.852-25.77 11.215Zm0 0"/><path fill="#d3cb7e" d="m267.809 264.703 21.304 25.067-24.965 9.527Zm0 0"/><path fill="#ded684" d="m314.883 278.555-5.867-27.32 10.496 24.777ZM309.016 251.234l17.46-5.93-6.964 30.708ZM304.84 228.027l-4.477-21.78 12.438 6.421Zm0 0"/><path fill="#ded684" d="m304.84 228.027-31.414-6.367 26.937-15.414Zm0 0"/><path fill="#dcd483" d="m328.102 328.473-8.047-18.578 16.57 1.203Zm0 0"/><path fill="#ddd684" d="m336.625 311.098-16.57-1.203 11.21-12.426Zm0 0"/><path fill="#64633d" d="m320.055 309.895-13.192-9.57 24.403-2.856Zm0 0"/><path fill="#dcd483" d="m285.672 369.977-38.668.976 30.754-9.73Zm0 0"/><path fill="#ded684" d="M285.672 369.977 247.199 384l-.195-13.047Zm0 0"/><path fill="#ddd584" d="m285.672 369.977 7.558-16.239 8.547 10.98Zm0 0"/><path fill="#ded684" d="m293.23 353.738-7.558 16.239-7.914-8.754ZM247.2 384l38.472-14.023L301.895 384Zm0 0"/><path fill="#ded684" d="m301.895 384-16.223-14.023 16.105-5.258Zm0 0"/><path fill="#545333" d="m239.133 344.41-33.528 6.27-8.16-19.25Zm0 0"/><path fill="#202215" d="m205.605 350.68 33.528-6.27 10.504 11.254ZM205.605 350.68l-38.32-2.399 30.16-16.851Zm0 0"/><path fill="#dad382" d="m222.21 367.316 24.794 3.637.195 13.047Zm0 0"/><path fill="#c3bc74" d="m247.004 370.953-24.793-3.637 27.426-11.652Zm0 0"/><path fill="#ded684" d="m222.73 384-.52-16.684L247.2 384Zm0 0"/><path fill="#dad282" d="m222.21 367.316.52 16.684-17.816.04Zm0 0"/><path fill="#212316" d="m222.21 367.316-16.605-16.636 44.032 4.984Zm0 0"/><path fill="#ded684" d="m205.605 350.68 16.606 16.636-17.297 16.723Zm0 0"/><path fill="#343420" d="m107.25 177.52 37.117-6.778-5.594 32.598Zm0 0"/><path fill="#202215" d="M125.934 218.535 107.25 177.52l31.523 25.82ZM107.25 177.52l18.684 41.015-43.121-41.765Zm0 0"/><path fill="#ded684" d="m73.137 246.063 4.402 25.246-15.473-13.2Zm0 0"/><path fill="#202215" d="m77.54 271.309-4.403-25.247 34.625-16.34ZM62.066 258.11l15.473 13.199-41.176 14.617ZM339.64 257.875l-.273 22.61-19.855-4.473Zm0 0"/><path fill="#202215" d="m326.477 245.305 13.164 12.57-20.13 18.137Zm0 0"/><path fill="#202215" d="m339.43 234.688.21 23.187-13.163-12.57Zm0 0"/><path fill="#222416" d="m339.64 257.875-.21-23.187 9.054 9.48Zm0 0"/><path fill="#202214" d="m339.64 257.875 21.008 10.566-21.28 12.043Zm0 0"/><path fill="#3e2c05" d="m384 183.418-22.332 5.035 17.262-26.16Zm0 0"/><path fill="#3c2a03" d="m361.668 188.453-7.172-20.738 24.434-5.422Zm0 0"/><path fill="#dcd482" d="m354.496 167.715 7.172 20.738-15.207-3.324Zm0 0"/><path fill="#3c2a03" d="m362.531 136.492-16.55-15.652 19.843-1.758Zm0 0"/><path fill="#953c3b" d="m345.98 120.84-22.195-.309 21.442-23.199Zm0 0"/><path fill="#963c3c" d="m323.785 120.531-7.863-16.164 29.305-7.035Zm0 0"/><path fill="#3b2803" d="m323.785 120.531 22.195.309-11.68 26.847Zm0 0"/><path fill="#ded684" d="m323.785 120.531-13.433 6.785 5.57-22.949ZM323.785 120.531l10.516 27.156-23.95-20.37ZM284.262 183.543l-17.504-20.902 16.36-3.989Zm0 0"/><path fill="#ded684" d="m283.117 158.652 17.047 1.68-15.902 23.211Zm0 0"/><path fill="#ded684" d="m300.164 160.332 11.688 16.863-27.59 6.348Zm0 0"/><path fill="#3a2802" d="m345.543 217.262-14.004-28.668 14.922-3.465Zm0 0"/><path fill="#392802" d="m319.86 195.29 11.68-6.696-3.935 32.086Zm0 0"/><path fill="#2f260b" d="m331.54 188.594 14.003 28.668-17.938 3.418Zm0 0"/><path fill="#3c2803" d="m346.46 185.129-14.92 3.465 6.882-16.399Zm0 0"/><path fill="#dbd382" d="m378.93 162.293-20.746-21.606 4.347-4.195Zm0 0"/><path fill="#cec577" d="m354.496 167.715 3.688-27.028 20.746 21.606Zm0 0"/><path fill="#3b2903" d="M358.184 140.688 345.98 120.84l16.551 15.652Zm0 0"/><path fill="#3b2803" d="m345.98 120.84 12.204 19.847-23.883 7Zm0 0"/><path fill="#202215" d="m339.64 257.875 15.153-3.05 5.855 13.616Zm0 0"/><path fill="#202215" d="m354.793 254.824-15.152 3.051 8.843-13.707Zm0 0"/><path fill="#ded684" d="m360.648 268.441-5.855-13.617 14.066 8.602Zm0 0"/><path fill="#ded684" d="m354.793 254.824 12.508-1.894 1.558 10.496ZM354.793 254.824l-6.309-10.656 18.54-2.91Zm0 0"/><path fill="#ded684" d="m367.3 252.93-12.507 1.894 12.23-13.566Zm0 0"/><path fill="#202215" d="m333.23 375.05 8.473 8.973-9.84-.02Zm0 0"/><path fill="#272919" d="m341.703 384.023-8.473-8.972 14.23-4.817Zm0 0"/><path fill="#202215" d="m367.64 346.418 5.91 12.973-10.972 1.5Zm0 0"/><path fill="#222416" d="m347.645 344.402 19.996 2.016-5.063 14.473Zm0 0"/><path fill="#ddd584" d="m360.336 324.844 7.305 21.574-19.996-2.016Zm0 0"/><path fill="#3a2802" d="m132.727 42.527 23.039-14.511 6.004 23.062Zm0 0"/><path fill="#6c6a41" d="m201.648 214.316 36.41 40.649-39.605 4.832Zm0 0"/><path fill="#ddd483" d="m201.648 214.316-1.414-44.945 46.504 16.828Zm0 0"/><path fill="#ded684" d="m213.102 135.422-12.868 33.95-9.3-35.548Zm0 0"/><path fill="#963d3c" d="m34.8 27.496-7.628 1.488L.016 17.36Zm0 0"/><path fill="#3e300c" d="m17.477 51.191 9.695-22.207 5.863 22.832Zm0 0"/><path fill="#866b3c" d="m27.172 28.984 7.629-1.488-1.766 24.32Zm0 0"/><path fill="#953c3b" d="M352.531 45.793 384 0v79.172Zm0 0"/><path fill="#878451" d="m160.066 373.996 45.54-23.316-.692 33.36Zm0 0"/><path fill="#202215" d="m205.605 350.68-45.539 23.316 7.22-25.715Zm0 0"/><path fill="#b1ab6a" d="m267.809 264.703-14.055 30.031-15.695-39.77Zm0 0"/><path fill="#dcd483" d="m253.754 294.734 14.055-30.03-3.66 34.593Zm0 0"/><path fill="#252718" d="m310.46 321.742-27.827 4.352 24.23-25.77Zm0 0"/><path fill="#434329" d="m320.055 309.895-9.594 11.847-3.598-21.418Zm0 0"/><path fill="#c1ba73" d="m282.633 326.094 27.828-4.352-10.113 14.453Zm0 0"/><path fill="#989156" d="m144.367 170.742 12.121-23.066 14.04 37.578Zm0 0"/><path fill="#d9d281" d="m156.488 147.676-12.12 23.066-21.013-13.789Zm0 0"/><path fill="#413008" d="m138.773 203.34 5.594-32.598 26.16 14.512Zm0 0"/><path fill="#ded684" d="m276.105 138.316-34.73 12.61 11.555-25.567Zm0 0"/><path fill="#dfd785" d="m276.105 138.316-9.347 24.325-25.383-11.715Zm0 0"/><path fill="#3a2802" d="m291.957 123.805-15.852 14.511-23.175-12.957Zm0 0"/><path fill="#ded684" d="m266.758 162.64 9.347-24.324 7.012 20.336Zm0 0"/><path fill="#3f2d05" d="m300.164 160.332-9.144-12.95 15.566-.44Zm0 0"/><path fill="#ddd583" d="m291.02 147.383 9.144 12.949-17.047-1.68Zm0 0"/><path fill="#ded684" d="m276.105 138.316 14.915 9.067-7.903 11.27Zm0 0"/><path fill="#3c2a03" d="m291.02 147.383.937-23.578 14.629 23.136Zm0 0"/><path fill="#3a2802" d="m291.02 147.383-14.915-9.067 15.852-14.511ZM321.121 164.418l-20.957-4.086 6.422-13.39Zm0 0"/><path fill="#3a2902" d="m300.164 160.332 20.957 4.086-9.27 12.777Zm0 0"/><path fill="#3d2c05" d="m331.54 188.594-10.419-24.176 17.3 7.777Zm0 0"/><path fill="#3a2802" d="m311.852 177.195 9.27-12.777 10.417 24.176Zm0 0"/><path fill="#635322" d="m334.3 147.688-13.179 16.73-14.535-17.477Zm0 0"/><path fill="#423108" d="m321.121 164.418 13.18-16.73 4.12 24.507Zm0 0"/><path fill="#3d2b04" d="m334.3 147.688 20.196 20.027-16.074 4.48Zm0 0"/><path fill="#ddd583" d="m334.3 147.688 23.884-7-3.688 27.027Zm0 0"/><path fill="#2b2c1b" d="m301.895 384 31.335-8.95-1.367 8.954Zm0 0"/><path fill="#dcd483" d="M333.23 375.05 301.895 384l28.726-17.55Zm0 0"/><path fill="#dad282" d="m347.46 370.234-14.23 4.817-2.609-8.602Zm0 0"/><path fill="#c0b972" d="m347.645 344.402-.184 25.832-16.84-3.785Zm0 0"/><path fill="#c1bb73" d="m347.46 370.234.185-25.832 14.933 16.489Zm0 0"/><path fill="#ada665" d="m132.727 42.527 14.68 18.207-10.805 1.403Zm0 0"/><path fill="#3a2904" d="m147.406 60.734 18.98 12.336L147 83.555Zm0 0"/><path fill="#3b2e0c" d="m136.602 62.137 10.804-1.403-.406 22.82Zm0 0"/><path fill="#3a2904" d="m147.406 60.734 14.364-9.656 4.617 21.992Zm0 0"/><path fill="#3a2802" d="m147.406 60.734-14.68-18.207 29.044 8.551Zm0 0"/><path fill="#ded684" d="m246.738 186.2-46.504-16.829 41.141-18.445Zm0 0"/><path fill="#963c3c" d="m219.379 100.406.812-19.117L241.77 93.25Zm0 0"/><path fill="#963c3c" d="m230.887 117.188-11.508-16.782 22.39-7.156Zm0 0"/><path fill="#963d3c" d="m217.766 114.41 1.613-14.004 11.508 16.781Zm0 0"/><path fill="#ded684" d="m273.426 221.66-26.688-35.46 37.524-2.657ZM267.809 264.703l23.058-14.98 24.016 28.832ZM267.809 264.703l-29.75-9.738 4.066-29.598Zm0 0"/><path fill="#dcd483" d="m290.867 249.723 13.973-21.696 4.176 23.207ZM328.102 328.473l-17.641-6.73 9.594-11.848Zm0 0"/><path fill="#ded684" d="m328.102 328.473-7.43 17.8-20.324-10.078ZM310.46 321.742l17.642 6.73-27.754 7.723ZM290.867 249.723l-17.441-28.063 31.414 6.367Zm0 0"/><path fill="#c6bf76" d="m267.809 264.703 5.617-43.043 17.441 28.063Zm0 0"/><path fill="#ded684" d="m246.738 186.2 26.688 35.46-31.301 3.707Zm0 0"/><path fill="#dfd785" d="m273.426 221.66-5.617 43.043-25.684-39.336Zm0 0"/><path fill="#ded684" d="m290.867 249.723 18.149 1.511 5.867 27.32Zm0 0"/></svg>