<svg xmlns="http://www.w3.org/2000/svg" width="512" height="512" viewBox="0 0 384 384"><path fill="#fed600" d="m65.102 35.867-22.11 21.024 4-23.72ZM27.813 334.727l8.699-29.907 27.527 24.473Zm0 0"/><path fill="#fed600" d="m41.79 366.32-13.977-31.593 36.226-5.434ZM312.426 384.008l-33-.004 26.187-17.367Zm0 0"/><path fill="#5c0b90" d="m383.992 278.164-.043 55.18-16.73-49.793Zm0 0"/><path fill="#fbd507" d="m157.129 74.203 14.476 21.742-26.976-10.582Zm0 0"/><path fill="#5b0a90" d="m111.559 112.383 10.738 22.398-24.586 3.903ZM122.297 134.781l-17.5 12.266-7.086-8.363Zm0 0"/><path fill="#fed601" d="m197.45 76.785 14.85 28.203-24.75-13.96ZM212.3 104.988l-14.85-28.203 27.753-3.933Zm0 0"/><path fill="#edc210" d="m270.438 151.637-16.075-26.223 24.184 13.203Zm0 0"/><path fill="#5b0a90" d="m266.496 53.457-.398-12 34.308.11Zm0 0"/><path fill="#fdd603" d="m281.637 75.04 14.011 26.46-22.761-4.184Zm0 0"/><path fill="#fad40a" d="m281.637 75.04-15.14-21.583 33.91-11.89Zm0 0"/><path fill="#f8d30d" d="M22.66 286.262.012 281.82l19.183-18.722Zm0 0"/><path fill="#5b0a90" d="m22.66 286.262-3.465-23.164 20.875-14.711Zm0 0"/><path fill="#cdc081" d="m6.55 171.41 18.325 59.047L-.02 171.285Zm0 0"/><path fill="#5f0f8d" d="m41.79 366.32 33.6-16.28-33.218 17.69Zm0 0"/><path fill="#fed600" d="m75.39 350.04-33.6 16.28 22.25-37.027Zm0 0"/><path fill="#fdd603" d="m.004 310.41 27.809 24.317L0 343.507Zm0 0"/><path fill="#fed601" d="M27.813 334.727.003 310.41l36.509-5.59Zm0 0"/><path fill="#f8d311" d="M22.66 286.262.004 310.41l.008-28.59Zm0 0"/><path fill="#fbd509" d="m.004 310.41 22.656-24.148 13.852 18.558Zm0 0"/><path fill="#d8a825" d="m275.5 310.238 23.758-1.781-25.426 25.133Zm0 0"/><path fill="#e2cc4f" d="m182.758 240.465-.047-43.902 32.082 34.53Zm0 0"/><path fill="#803b74" d="M122.484 194.613 70.18 209.695 80.645 183Zm0 0"/><path fill="#fed602" d="m369.348 248.582 3.183-19.719 11.465 1.028Zm0 0"/><path fill="#5b0a90" d="m339.738 261.09-23.863 21.305 9.535-32.63ZM171.605 95.945l-4.199 18.782-22.777-29.364Zm0 0"/><path fill="#f6d316" d="m150.828 172.883-23.601-21.215 14.886-11.469Zm0 0"/><path fill="#fed600" d="m56.723 165.5 7.933 7.66-20.933 37.664Zm0 0"/><path fill="#5b0a90" d="m70.18 209.695-5.524-36.535L80.645 183Zm0 0"/><path fill="#5b0b90" d="m89.145 129.258 8.566 9.426-26.106 10.59Zm0 0"/><path fill="#f8cf06" d="m97.953 93.035-8.808 36.223-12.184-33.98Zm0 0"/><path fill="#f0c50c" d="m66.352 144.867 22.793-15.61-17.54 20.016Zm0 0"/><path fill="#fed500" d="m50.105 127.29 16.247 17.577-13.07 19.188Zm0 0"/><path fill="#fdd501" d="m89.145 129.258-22.793 15.61-16.247-17.579Zm0 0"/><path fill="#62138a" d="m66.352 144.867-9.63 20.633-3.44-1.445Zm0 0"/><path fill="#fdd500" d="m56.723 165.5 9.629-20.633 5.253 4.406Zm0 0"/><path fill="#ce9a2b" d="m114.855 92.164 13.153 8.191-16.45 12.028Zm0 0"/><path fill="#af7446" d="m97.953 93.035 16.902-.87-3.296 20.218Zm0 0"/><path fill="#5b0a90" d="m128.008 100.355-13.153-8.19 29.774-6.802Zm0 0"/><path fill="#fed600" d="m143.992 98.914-15.984 1.441 16.62-14.992Zm0 0"/><path fill="#5b0a90" d="m167.406 114.727-23.414-15.813.637-13.55ZM152.855 121.434l-8.863-22.52 23.414 15.813Zm0 0"/><path fill="#fcd605" d="m188.434 161.742-5.723 34.82-31.883-23.68Zm0 0"/><path fill="#5b0a90" d="m245.676 0 6.293 9.875-22.89 25.781ZM236.406 71.395l-7.328-35.739 12.617 32.512Zm0 0"/><path fill="#fdd601" d="m194.05 29.45 35.028 6.206-19.633 17.383Zm0 0"/><path fill="#fed601" d="m261.422 78.887 20.215-3.848-8.75 22.277Zm0 0"/><path fill="#fdd604" d="m281.637 75.04-20.215 3.847 5.074-25.43Zm0 0"/><path fill="#5b0a90" d="m194.05 29.45-10.187-9.962L204.653 0Zm0 0"/><path fill="#5b0a90" d="m183.863 19.488 10.188 9.961-20.887 6.645ZM204.652 0h41.024l-16.598 35.656Zm0 0"/><path fill="#5b0a90" d="M194.05 29.45 204.653 0l24.426 35.656ZM254.363 125.414l29.934-13.785-5.75 26.988Zm0 0"/><path fill="#fed600" d="m295.648 101.5-11.351 10.129-11.41-14.313Zm0 0"/><path fill="#5b0a90" d="m284.297 111.629-29.934 13.785 18.524-28.098Zm0 0"/><path fill="#5b0a90" d="m254.363 125.414-8.308-24.547 26.832-3.55Zm0 0"/><path fill="#5b0a90" d="m246.055 100.867 15.367-21.98 11.465 18.43Zm0 0"/><path fill="#5b0a90" d="m261.422 78.887-15.367 21.98-9.649-29.472Zm0 0"/><path fill="#fed500" d="m266.098 41.457-8.395 3.402-2.469-13.402Zm0 0"/><path fill="#5b0a90" d="m257.703 44.86 8.395-3.403.398 12ZM271.242 25.371l-5.144 16.086-10.864-10ZM266.098 41.457l5.144-16.086 29.164 16.195Zm0 0"/><path fill="#5e0d8e" d="m17.234 145.742 11.266-8.574 24.781 26.887Zm0 0"/><path fill="#60118c" d="m28.5 137.168-11.266 8.574-2.058-30.465Zm0 0"/><path fill="#5b0a90" d="m135.82 63.938-32.187-13.622 21.8-5.707Zm0 0"/><path fill="#5b0a90" d="m103.633 50.316 17.398-26.37 4.403 20.663Zm0 0"/><path fill="#5b0a90" d="m121.031 23.945-17.398 26.371L90.695 21.45ZM90.695 21.45l12.938 28.866-22.61-2.343Zm0 0"/><path fill="#5b0a90" d="M103.633 50.316 76.766 60.781l4.257-12.808ZM103.633 50.316l-2.094 21.461-24.773-10.996ZM101.54 71.777l2.093-21.46 32.187 13.62ZM89.145 129.258l-30-25.547 17.816-8.434Zm0 0"/><path fill="#fad104" d="m59.145 103.71 30 25.548-39.04-1.969Zm0 0"/><path fill="#fcd302" d="m55.047 76.992-6.762-6 28.48-10.21Zm0 0"/><path fill="#5c0b90" d="m76.766 60.781-28.48 10.211 32.737-23.02Zm0 0"/><path fill="#fed600" d="m48.285 70.992 16.817-35.125 15.921 12.106Zm0 0"/><path fill="#fed600" d="M65.102 35.867 48.285 70.992l-5.293-14.101Zm0 0"/><path fill="#f7d10e" d="m31.895 113.8-6.18-30.179 18.953 19.313Zm0 0"/><path fill="#f9d30b" d="M31.895 113.8 28.5 137.169l-13.324-21.89Zm0 0"/><path fill="#fcd402" d="m48.285 70.992-26.27-7.867 20.977-6.234Zm0 0"/><path fill="#5b0a90" d="m48.285 70.992-22.57 12.63-3.7-20.497ZM321.938 0H384l-43.922 21.574Zm0 0"/><path fill="#c6c19b" d="m352.969 59.574 31.058-13.527-.035 31.898Zm0 0"/><path fill="#5b0a90" d="M384.027 46.047 352.97 59.574l-2.676-15.406Zm0 0"/><path fill="#c6c19b" d="m383.992 77.945.024 33.856-13.528-22.035Zm0 0"/><path fill="#c4c0a2" d="m384.016 111.8-26.664-8.39 13.136-13.644Zm0 0"/><path fill="#fcd505" d="m357.352 103.41 26.664 8.39-6.34 18.56Zm0 0"/><path fill="#691c84" d="m123.445 273.79-22.199 37.136-18.336-32.93Zm0 0"/><path fill="#752b7a" d="m162.063 300.09-60.817 10.836 22.2-37.137Zm0 0"/><path fill="#73297d" d="m70.18 209.695 50.824 24.47-44.977-7.481Zm0 0"/><path fill="#d2bb62" d="M121.004 234.164 70.18 209.695l52.304-15.082Zm0 0"/><path fill="#a96c4c" d="m162.063 300.09-11.407 45.547-49.41-34.711Zm0 0"/><path fill="#efcf27" d="m212.93 262.355 13.254 27.364-35.536-18.977Zm0 0"/><path fill="#edc922" d="m226.184 289.719-16.786 23.308-18.75-42.285Zm0 0"/><path fill="#5c0c8f" d="M.012 281.82 0 258.55l19.195 4.548Zm0 0"/><path fill="#fed601" d="m6.55 171.41 46.731-7.355-9.558 46.77Zm0 0"/><path fill="#fed600" d="m53.281 164.055 3.442 1.445-13 45.324Zm0 0"/><path fill="#d4c571" d="M24.875 230.457-.02 242.66v-71.375Zm0 0"/><path fill="#5b0a90" d="m19.195 263.098-3.148-13.235 24.023-1.476Zm0 0"/><path fill="#5b0b90" d="m0 258.55 16.047-8.687 3.148 13.235Zm0 0"/><path fill="#c7be92" d="m43.723 210.824-18.848 19.633L6.551 171.41Zm0 0"/><path fill="#5b0a90" d="M81.082 383.992 33.039 384l9.133-16.27Zm0 0"/><path fill="#5d0c8e" d="m75.39 350.04-.253 15.386-32.965 2.304Zm0 0"/><path fill="#5b0a90" d="m75.137 365.426 5.945 18.566-38.91-16.262Zm0 0"/><path fill="#f4c909" d="m321.492 343.203 19.332 12.719-35.21 10.715Zm0 0"/><path fill="#5b0a90" d="m273.832 333.59 3.184 28.32-24.559-6.125Zm0 0"/><path fill="#fad204" d="m277.016 361.91-.047 14.16-24.512-20.285Zm0 0"/><path fill="#f5ce0e" d="m275.5 310.238-27.547 5.082 9.031-25.27Zm0 0"/><path fill="#e3b61c" d="m247.953 315.32-38.555-2.293 16.786-23.308Zm0 0"/><path fill="#e3b519" d="m247.953 315.32 27.547-5.082-1.668 23.352Zm0 0"/><path fill="#eac21c" d="m226.184 289.719 16.023-28.168 14.777 28.5Zm0 0"/><path fill="#e4b619" d="m247.953 315.32-21.77-25.601 30.801.332Zm0 0"/><path fill="#cba349" d="m122.484 194.613 24.434 16.754-25.914 22.797Zm0 0"/><path fill="#e7cd3f" d="m121.004 234.164 25.914-22.797 5.758 13.906Zm0 0"/><path fill="#c19754" d="m121.004 234.164 25.89 15.598-23.449 24.027Zm0 0"/><path fill="#e6cd41" d="m146.895 249.762-25.891-15.598 31.672-8.89Zm0 0"/><path fill="#efd029" d="m182.758 240.465-30.082-15.192 30.035-28.71Zm0 0"/><path fill="#edd031" d="m152.676 225.273 30.082 15.192-35.863 9.297Zm0 0"/><path fill="#f9d30b" d="m59.031 258.387-36.37 27.875 17.41-37.875Zm0 0"/><path fill="#5b0b90" d="m67.781 225.398 2.399-15.703 5.847 16.989Zm0 0"/><path fill="#fad50d" d="m43.723 210.824 26.457-1.129-2.399 15.703Zm0 0"/><path fill="#5b0a90" d="m64.656 173.16 5.524 36.535-26.457 1.13Zm0 0"/><path fill="#fcd605" d="m327.676 221.79-15.281 9.585-13.297-19.348Zm0 0"/><path fill="#fed600" d="m325.41 249.766-13.015-18.391 15.28-9.586Zm0 0"/><path fill="#fed601" d="m312.395 231.375 13.015 18.39-27.469-7.738Zm0 0"/><path fill="#fed600" d="m356.813 199.297 10.671-9.496 5.047 39.062Zm0 0"/><path fill="#f6d316" d="m367.484 189.8 16.512 40.09-11.465-1.027Zm0 0"/><path fill="#fcd507" d="m384 254.074-.008 24.09-14.726-16.402Zm0 0"/><path fill="#fdd605" d="m384 254.074-14.652-5.492 14.648-18.691Zm0 0"/><path fill="#5b0a90" d="m373.898 275.656 10.094 2.508-16.773 5.387ZM369.266 261.762l4.632 13.894-6.68 7.895Zm0 0"/><path fill="#5b0a90" d="m383.992 278.164-10.094-2.508-4.632-13.894ZM359.438 270.813l9.828-9.051-2.047 21.789ZM339.738 261.09l-9.125 36.574-14.738-15.27ZM330.613 297.664l28.825-26.851 7.78 12.738Zm0 0"/><path fill="#5b0a90" d="m359.438 270.813-28.825 26.851 9.125-36.574Zm0 0"/><path fill="#f9d005" d="m340.824 355.922-19.332-12.719 21.074 1.082Zm0 0"/><path fill="#f9d40d" d="m362.953 384.004-.875-14.707 21.922 14.7Zm0 0"/><path fill="#fcd505" d="m362.078 369.297 21.93 1.305-.008 13.394Zm0 0"/><path fill="#fdd603" d="m167.848 71.77 29.601 5.015-9.898 14.242Zm0 0"/><path fill="#fdd605" d="m171.605 95.945-3.757-24.175 19.703 19.257Zm0 0"/><path fill="#fdd602" d="m167.848 71.77 3.757 24.175-14.476-21.742Zm0 0"/><path fill="#fed600" d="m189.61 113.223 23.925.64-19.394 22.157Zm0 0"/><path fill="#fdd401" d="m189.61 113.223-18.005-17.278 15.946-4.918Zm0 0"/><path fill="#5b0a90" d="m189.61 113.223-22.204 1.504 4.2-18.782Zm0 0"/><path fill="#fcd404" d="m212.3 104.988-22.69 8.235-2.06-22.196Zm0 0"/><path fill="#5b0a90" d="m189.61 113.223 22.69-8.235 1.235 8.875ZM121.031 23.945 104.52 0h55.918ZM160.438 0l23.425 19.488-10.699 16.606ZM121.031 23.945l13.63 17.723-9.227 2.941ZM104.52 0 90.695 21.45 42.22 0Zm0 0"/><path fill="#5b0a90" d="M121.031 23.945 90.695 21.45 104.52 0ZM42.219 0l48.476 21.45-42.054-6.595Zm0 0"/><path fill="#5c0b90" d="m48.64 14.855-6.863 1.301L42.22 0Zm0 0"/><path fill="#5e0e8e" d="m41.777 16.156 6.864-1.3-1.649 18.316Zm0 0"/><path fill="#5b0a90" d="M65.102 35.867 90.695 21.45l-9.672 26.524ZM65.102 35.867 48.64 14.855l42.054 6.594Zm0 0"/><path fill="#fed600" d="m48.64 14.855 16.462 21.012-18.11-2.695Zm0 0"/><path fill="#945669" d="M122.95 157.535 95.597 171.23l9.199-24.183Zm0 0"/><path fill="#fcd507" d="m127.227 151.668-4.93-16.887 19.816 5.418Zm0 0"/><path fill="#ecca29" d="m122.297 134.781 4.93 16.887-22.43-4.621Zm0 0"/><path fill="#f6d011" d="m127.227 151.668-4.278 5.867-18.152-10.488Zm0 0"/><path fill="#5b0a90" d="m64.656 173.16-7.933-7.66 14.882-16.227ZM89.145 129.258l22.414-16.875-13.848 26.3Zm0 0"/><path fill="#cc9a31" d="m89.145 129.258 8.808-36.223 13.606 19.348Zm0 0"/><path fill="#5b0a90" d="m114.855 92.164 20.965-28.226 8.809 21.425Zm0 0"/><path fill="#fed600" d="M114.855 92.164 101.54 71.777l34.281-7.84Zm0 0"/><path fill="#fbd305" d="m101.54 71.777 13.315 20.387-16.902.871Zm0 0"/><path fill="#5b0a90" d="m128.008 100.355 9.629 25.75-26.078-13.722Zm0 0"/><path fill="#5b0a90" d="m143.992 98.914-6.355 27.191-9.63-25.75ZM137.637 126.105l6.355-27.19 8.863 22.519ZM137.637 126.105l-15.34 8.676-10.738-22.398Zm0 0"/><path fill="#edcc27" d="m137.637 126.105 15.218-4.671-10.742 18.765Zm0 0"/><path fill="#f5d218" d="m122.297 134.781 15.34-8.676 4.476 14.094Zm0 0"/><path fill="#e9ce3b" d="m212.93 262.355-30.172-21.89 32.035-9.371Zm0 0"/><path fill="#ebcf36" d="m212.93 262.355-22.282 8.387-7.89-30.277Zm0 0"/><path fill="#fed601" d="m281.637 75.04 28.539-22.474-14.528 48.934Zm0 0"/><path fill="#fcd606" d="m310.176 52.566 6.246 49.567-20.774-.633Zm0 0"/><path fill="#f8d310" d="m310.176 52.566-28.54 22.473 18.77-33.473Zm0 0"/><path fill="#fed600" d="m311.027 31.055-.851 21.511-9.77-11ZM310.176 52.566l.851-21.511 3.754 21.164ZM194.14 136.02l32.641-19.473-15.316 29.672Zm0 0"/><path fill="#f2c90f" d="m226.781 116.547-32.64 19.473 19.394-22.157Zm0 0"/><path fill="#fed600" d="m223.113 173-40.402 23.563 5.723-34.82ZM188.434 161.742l-20.371-19.367 26.078-6.355Zm0 0"/><path fill="#ebbf13" d="m251.969 9.875-10.293 30.11-12.598-4.329Zm0 0"/><path fill="#fed600" d="m257.703 44.86-16.027-4.876 13.558-8.527Zm0 0"/><path fill="#fcd302" d="m255.234 31.457-13.558 8.527 10.293-30.109Zm0 0"/><path fill="#5b0a90" d="m229.078 35.656 12.598 4.328.02 28.184Zm0 0"/><path fill="#5b0a90" d="m241.676 39.984 16.027 4.875-16.008 23.309Zm0 0"/><path fill="#61118b" d="m236.406 71.395-26.96-18.356 19.632-17.383Zm0 0"/><path fill="#fed600" d="m197.45 76.785 11.995-23.746 15.758 19.813Zm0 0"/><path fill="#5b0a90" d="m209.445 53.04 26.961 18.355-11.203 1.457Zm0 0"/><path fill="#edc211" d="m261.422 78.887-19.727-10.719 24.801-14.711Zm0 0"/><path fill="#5b0a90" d="m241.695 68.168 19.727 10.719-25.016-7.492ZM241.695 68.168l16.008-23.309 8.793 8.598ZM183.863 19.488 160.438 0h44.214Zm0 0"/><path fill="#fed600" d="m271.242 25.371 39.785 5.684-10.62 10.511Zm0 0"/><path fill="#5b0a90" d="m226.781 116.547 19.274-15.68 8.308 24.547Zm0 0"/><path fill="#f7d312" d="m226.781 116.547 27.582 8.867-21.008 18.52Zm0 0"/><path fill="#5b0a90" d="m236.406 71.395-12.465 34.148 1.262-32.691Zm0 0"/><path fill="#5b0b90" d="m246.055 100.867-22.114 4.676 12.465-34.148Zm0 0"/><path fill="#f6cc07" d="m223.941 105.543-11.64-.555 12.902-32.136Zm0 0"/><path fill="#fed600" d="m270.438 151.637-20.618 3.336 4.543-29.559ZM249.82 154.973l15.496 35.043L223.113 173Zm0 0"/><path fill="#62138a" d="M42.992 56.89 30.98 50.73l16.012-17.558Zm0 0"/><path fill="#fed600" d="m30.98 50.73 12.012 6.16-20.976 6.235Zm0 0"/><path fill="#e4ca44" d="m0 141.668-.035-68.469 15.21 42.078Zm0 0"/><path fill="#5c0c8f" d="M17.234 145.742 0 141.668l15.176-26.39Zm0 0"/><path fill="#fad207" d="m59.145 103.71-9.04 23.58-5.437-24.356Zm0 0"/><path fill="#f6cf0d" d="m50.105 127.29-18.21-13.49 12.773-10.866Zm0 0"/><path fill="#fed602" d="m31.895 113.8 18.21 13.49-21.605 9.878Zm0 0"/><path fill="#fed600" d="m28.5 137.168 21.605-9.879 3.176 36.766Zm0 0"/><path fill="#5b0a90" d="m59.145 103.71 16.988-20.538.828 12.105ZM76.133 83.172 59.145 103.71l-4.098-26.719Zm0 0"/><path fill="#5e0e8d" d="m76.96 95.277-.827-12.105 21.82 9.863Zm0 0"/><path fill="#fed500" d="m76.133 83.172-21.086-6.18 21.719-16.21Zm0 0"/><path fill="#fdd602" d="m76.133 83.172 25.406-11.395-3.586 21.258Zm0 0"/><path fill="#fed600" d="M101.54 71.777 76.132 83.172l.633-22.39Zm0 0"/><path fill="#fbd305" d="m55.047 76.992 4.098 26.719-14.477-.777Zm0 0"/><path fill="#ecc71e" d="m25.715 83.621 29.332-6.629-10.379 25.942Zm0 0"/><path fill="#5c0c8f" d="m48.285 70.992 6.762 6-29.332 6.63Zm0 0"/><path fill="#5b0a90" d="m-.035 73.2 25.75 10.421-10.54 31.656Zm0 0"/><path fill="#f9d20b" d="m25.715 83.621 6.18 30.18-16.72 1.476Zm0 0"/><path fill="#fed600" d="m322.523 44.492-11.496-13.437 22.637 3.543ZM314.781 52.219l7.742-7.727 8.375 11.309ZM322.523 44.492l-7.742 7.727-3.754-21.164ZM330.898 55.8l-8.375-11.308 11.141-9.894Zm0 0"/><path fill="#5b0a90" d="m311.027 31.055 29.051-9.48-6.414 13.023ZM340.078 21.574l-29.05 9.48L321.937 0Zm0 0"/><path fill="#fed600" d="m310.11 125.383 15.613 29.066-13.707-1.351ZM310.11 125.383 295.647 101.5l20.774.633Zm0 0"/><path fill="#cac292" d="m370.488 89.766-17.52-30.192 31.024 18.371Zm0 0"/><path fill="#fed600" d="m350.293 44.168-19.395 11.633 2.766-21.203Zm0 0"/><path fill="#deaf1c" d="m122.148 346.746-.347 37.238-13.559-31.011Zm0 0"/><path fill="#5b0a90" d="m122.148 346.746-13.906 6.227-6.996-42.047Zm0 0"/><path fill="#c7963b" d="m163.723 263.484-1.66 36.606-38.618-26.3Zm0 0"/><path fill="#c8a65a" d="m146.895 249.762 16.828 13.722-40.278 10.305Zm0 0"/><path fill="#fed600" d="m199.004 380.113-.719 3.89-46.097-.003Zm0 0"/><path fill="#f8d00a" d="m159.387 373.313 39.617 6.8L152.188 384Zm0 0"/><path fill="#fcd505" d="m198.285 384.004.719-3.89 4.246 3.878Zm0 0"/><path fill="#8f4b63" d="m150.656 345.637 11.406-45.547 21.993 46.25Zm0 0"/><path fill="#d2a02b" d="m162.063 300.09 47.335 12.937-25.343 33.313Zm0 0"/><path fill="#5b0a90" d="M-.02 171.285 0 141.668l6.55 29.742ZM0 141.668l17.234 4.074L6.551 171.41Zm0 0"/><path fill="#5b0a90" d="m17.234 145.742 36.047 18.313-46.73 7.355Zm0 0"/><path fill="#5c0b90" d="m-.02 242.66 16.067 7.203L0 258.551Zm0 0"/><path fill="#fed600" d="m51.715 236.219-7.992-25.395 24.058 14.574Zm0 0"/><path fill="#5b0a90" d="m51.715 236.219 7.316 22.168-18.96-10ZM21.648 365.625 33.04 384H.004Zm0 0"/><path fill="#5b0a90" d="m.016 373.61 21.632-7.985L.004 384Zm0 0"/><path fill="#5d0d8e" d="m21.648 365.625 20.524 2.105L33.039 384Zm0 0"/><path fill="#f9d004" d="m42.172 367.73-20.524-2.105 20.141.695Zm0 0"/><path fill="#fed602" d="M19.527 356.156.016 373.61 0 343.508Zm0 0"/><path fill="#fed600" d="m27.813 334.727-8.286 21.43L0 343.506Zm0 0"/><path fill="#fed600" d="m19.527 356.156 8.285-21.43L41.79 366.32Zm0 0"/><path fill="#fed600" d="m21.648 365.625-2.12-9.469 22.261 10.164Zm0 0"/><path fill="#fed602" d="m19.527 356.156 2.121 9.469-21.632 7.984Zm0 0"/><path fill="#fdd501" d="m121.8 383.984-40.718.008-5.945-18.566Zm0 0"/><path fill="#5b0a90" d="m121.8 383.984-46.663-18.558 33.105-12.453Zm0 0"/><path fill="#5c0b8f" d="m75.39 350.04 32.852 2.933-33.105 12.453Zm0 0"/><path fill="#661787" d="m108.242 352.973-7.199-41.957.203-.09Zm0 0"/><path fill="#5c0b8f" d="m101.246 310.926-.203.09-18.133-33.02Zm0 0"/><path fill="#f8d410" d="m299.098 212.027-1.157 30-25.402-12.898Zm0 0"/><path fill="#f5d319" d="m272.54 229.129-30.333 32.422.496-40.887Zm0 0"/><path fill="#5b0b90" d="m321.492 343.203 10.02-15.887 11.054 16.97Zm0 0"/><path fill="#5b0a90" d="m366.852 309.07-35.34 18.246-.899-29.652Zm0 0"/><path fill="#782f76" d="m383.95 333.344-17.098-24.274.367-25.52Zm0 0"/><path fill="#fad307" d="m366.852 309.07-36.239-11.406 36.606-14.113Zm0 0"/><path fill="#5b0b90" d="m331.512 327.316 35.34-18.246-24.286 35.215ZM273.832 333.59l25.426-25.133 9.781 22.016Zm0 0"/><path fill="#f0cb1b" d="m288.82 285.613-13.32 24.625-18.516-20.187Zm0 0"/><path fill="#5d0d8e" d="m296.285 354.125-22.453-20.535 35.207-3.117Zm0 0"/><path fill="#5b0a90" d="m296.285 354.125-19.27 7.785-3.183-28.32Zm0 0"/><path fill="#61128b" d="m321.492 343.203-25.207 10.922 12.754-23.652Zm0 0"/><path fill="#f9d004" d="m296.285 354.125 25.207-10.922-15.879 23.434Zm0 0"/><path fill="#cf9b2a" d="m240.746 344.57-33.062 6.11 1.714-37.653Zm0 0"/><path fill="#f0c40d" d="m247.953 315.32-7.207 29.25-31.348-31.543Zm0 0"/><path fill="#eabc12" d="m240.746 344.57 7.207-29.25 25.879 18.27Zm0 0"/><path fill="#5b0a90" d="m252.457 355.785-11.71-11.215 33.085-10.98Zm0 0"/><path fill="#5b0a90" d="m238.035 359.14 2.711-14.57 11.711 11.215Zm0 0"/><path fill="#fed600" d="m276.969 376.07-33.317-6.48 8.805-13.805Zm0 0"/><path fill="#62138a" d="m243.652 369.59-5.617-10.45 14.422-3.355Zm0 0"/><path fill="#d6c66f" d="m150.828 172.883-28.344 21.73.465-37.078Zm0 0"/><path fill="#833f75" d="m95.598 171.23 26.886 23.383L80.644 183Zm0 0"/><path fill="#ebcf36" d="m95.598 171.23 27.351-13.695-.465 37.078Zm0 0"/><path fill="#f2d223" d="m182.71 196.563-30.034 28.71-5.758-13.906Zm0 0"/><path fill="#813a70" d="m84.82 251.75 38.625 22.04-40.535 4.206Zm0 0"/><path fill="#73287c" d="M121.004 234.164 84.82 251.75l-8.793-25.066Zm0 0"/><path fill="#c5a360" d="M123.445 273.79 84.82 251.75l36.184-17.586Zm0 0"/><path fill="#5e0e8e" d="m76.055 248.46-8.274-23.062 8.246 1.286Zm0 0"/><path fill="#5d0c8f" d="m84.82 251.75-8.765-3.29-.028-21.776Zm0 0"/><path fill="#fed601" d="m76.055 248.46-24.34-12.241 16.066-10.82Zm0 0"/><path fill="#5b0a90" d="m51.715 236.219 24.34 12.242-17.024 9.926Zm0 0"/><path fill="#fed600" d="m350.125 246.492-7.355-10.37 5.824-4.97Zm0 0"/><path fill="#fed600" d="m342.77 236.121-15.094-14.332 20.918 9.363Zm0 0"/><path fill="#5b0a90" d="m342.77 236.121-17.36 13.645 2.266-27.977Zm0 0"/><path fill="#fed601" d="m384.008 154.61-6.332-24.25 6.34-18.56Zm0 0"/><path fill="#5b0a90" d="m310.11 125.383 25.558 22.363-9.945 6.703Zm0 0"/><path fill="#fed601" d="m317.156 189.406 10.52 32.383-28.578-9.762Zm0 0"/><path fill="#fed600" d="m298.188 183.602.91 28.425-33.782-22.011Zm0 0"/><path fill="#fed600" d="m317.156 189.406-18.969-5.804 11.47-11.286Zm0 0"/><path fill="#fed600" d="m299.098 212.027-.91-28.425 18.968 5.804ZM372.531 228.863l-22.406 17.63-1.531-15.34Zm0 0"/><path fill="#fed600" d="m350.125 246.492 22.406-17.629-3.183 19.719ZM351.09 216.867l21.441 11.996-23.937 2.29Zm0 0"/><path fill="#5b0a90" d="m372.531 228.863-21.441-11.996 5.723-17.57Zm0 0"/><path fill="#fed600" d="m327.676 221.79 23.414-4.923-2.496 14.285Zm0 0"/><path fill="#fcd404" d="m354.445 167.758-3.168 21.433-6.824-4.414Zm0 0"/><path fill="#fed601" d="M369.348 248.582 384 254.074l-14.734 7.688Zm0 0"/><path fill="#5b0a90" d="m384.008 370.602-5.406-22.317 5.347-14.941Zm0 0"/><path fill="#5d0d8e" d="m362.078 369.297 16.524-21.012 5.406 22.317Zm0 0"/><path fill="#5b0a90" d="m378.602 348.285-10.93-11.351 16.277-3.59ZM366.852 309.07l.82 27.864-25.106 7.351Zm0 0"/><path fill="#5b0a90" d="m367.672 336.934-.82-27.864 17.097 24.274Zm0 0"/><path fill="#fed601" d="m346.688 370.832 15.39-1.535.875 14.707Zm0 0"/><path fill="#5b0a90" d="m194.05 29.45-9.019 15.163-11.867-8.52Zm0 0"/><path fill="#fed600" d="m185.031 44.613-12.05 8.227.183-16.746ZM185.031 44.613l9.02-15.164 15.394 23.59Zm0 0"/><path fill="#5b0a90" d="m172.98 52.84 10.801 6.226-26.652 15.137Zm0 0"/><path fill="#5b0a90" d="M183.781 59.066 167.848 71.77l-10.72 2.433ZM183.781 59.066l1.25-14.453 24.414 8.426Zm0 0"/><path fill="#5b0a90" d="m185.031 44.613-1.25 14.453-10.8-6.226Zm0 0"/><path fill="#fdd603" d="M197.45 76.785 183.78 59.066l25.664-6.027Zm0 0"/><path fill="#fed601" d="m167.848 71.77 15.933-12.704 13.668 17.72Zm0 0"/><path fill="#5b0a90" d="M153.648 27.266 160.438 0l12.726 36.094Zm0 0"/><path fill="#5b0a90" d="m160.438 0-6.79 27.266-32.617-3.32Zm0 0"/><path fill="#5b0a90" d="M153.648 27.266 134.66 41.668l-13.629-17.723Zm0 0"/><path fill="#fed600" d="m172.98 52.84-19.332-25.574 19.516 8.828Zm0 0"/><path fill="#fbd203" d="M153.648 27.266 172.98 52.84 157.13 74.203Zm0 0"/><path fill="#d1a02d" d="m95.598 171.23-8.563-4.953 17.762-19.23Zm0 0"/><path fill="#5b0a90" d="m87.035 166.277 10.676-27.593 7.086 8.363Zm0 0"/><path fill="#cb9730" d="m87.035 166.277 8.563 4.953L80.645 183Zm0 0"/><path fill="#5b0a90" d="m64.656 173.16 22.38-6.883L80.644 183ZM97.71 138.684l-10.675 27.593-15.43-17.004Zm0 0"/><path fill="#5b0a90" d="m87.035 166.277-22.379 6.883 6.95-23.887Zm0 0"/><path fill="#f3d11d" d="m242.207 261.55-16.023 28.169-13.254-27.364Zm0 0"/><path fill="#fdd604" d="m214.793 231.094-32.082-34.531 43.629 3.75Zm0 0"/><path fill="#fed600" d="M182.71 196.563 223.114 173l3.227 27.313Zm0 0"/><path fill="#fdd604" d="m214.793 231.094 27.91-10.43-.496 40.887Zm0 0"/><path fill="#fad50b" d="m226.34 200.313 16.363 20.351-27.91 10.43Zm0 0"/><path fill="#5b0a90" d="m342.105 68.96-16.933 17.11 5.726-30.27Zm0 0"/><path fill="#5b0b90" d="m325.172 86.07 16.933-17.11 15.247 34.45Zm0 0"/><path fill="#5b0a90" d="m325.172 86.07-10.39-33.851 16.116 3.582Zm0 0"/><path fill="#edce2e" d="m314.781 52.219 10.39 33.851-8.75 16.063Zm0 0"/><path fill="#fad309" d="m310.176 52.566 4.605-.347 1.64 49.914Zm0 0"/><path fill="#fad50c" d="m265.316 190.016-22.613 30.648-16.363-20.351Zm0 0"/><path fill="#fcd605" d="m223.113 173 42.203 17.016-38.976 10.297Zm0 0"/><path fill="#fad50b" d="m265.316 190.016 7.223 39.113-29.836-8.465Zm0 0"/><path fill="#fed600" d="m265.316 190.016 33.782 22.011-26.559 17.102ZM188.434 161.742l5.707-25.722 17.324 10.199Zm0 0"/><path fill="#fed600" d="m223.113 173-34.68-11.258 23.032-15.523Zm0 0"/><path fill="#fed601" d="m168.063 142.375-17.235 30.508-8.715-32.684Zm0 0"/><path fill="#f6d318" d="m152.855 121.434 15.208 20.941-25.95-2.176Zm0 0"/><path fill="#f2d222" d="m168.063 142.375-15.208-20.941 14.551-6.707Zm0 0"/><path fill="#fed600" d="m167.406 114.727 22.203-1.504 4.532 22.797Zm0 0"/><path fill="#f2cc16" d="m168.063 142.375-.657-27.648 26.735 21.293Zm0 0"/><path fill="#5b0a90" d="M251.969 9.875 245.676 0h76.262Zm0 0"/><path fill="#fed600" d="M255.234 31.457 251.97 9.875l19.273 15.496Zm0 0"/><path fill="#fed600" d="m251.969 9.875 59.058 21.18-39.785-5.684Zm0 0"/><path fill="#5b0a90" d="M251.969 9.875 321.938 0l-10.91 31.055ZM284.297 111.629l17.187 27.164-22.937-.176Zm0 0"/><path fill="#fdd504" d="m295.648 101.5 5.836 37.293-17.187-27.164Zm0 0"/><path fill="#fdd602" d="m301.484 138.793 8.625-13.41 1.907 27.715Zm0 0"/><path fill="#fed601" d="m310.11 125.383-8.626 13.41-5.836-37.293Zm0 0"/><path fill="#fed600" d="m211.465 146.219 15.316-29.672 6.574 27.387ZM223.113 173l-11.648-26.781 21.89-2.285Zm0 0"/><path fill="#5b0a90" d="m212.3 104.988 11.641.555-10.406 8.32ZM223.941 105.543l2.84 11.004-13.246-2.684Zm0 0"/><path fill="#fed600" d="m249.82 154.973-16.465-11.04 21.008-18.519Zm0 0"/><path fill="#5c0b90" d="M42.219 0 21.594 23.629 0 0ZM0 53.148V0l13.734 29.895Zm0 0"/><path fill="#5b0b90" d="m0 0 21.594 23.629-7.86 6.266Zm0 0"/><path fill="#5c0c8f" d="M21.594 23.629 30.98 50.73 13.734 29.895Zm0 0"/><path fill="#fed600" d="m0 53.148 22.016 9.977L-.035 73.199Zm0 0"/><path fill="#fdd501" d="m0 53.148 30.98-2.418-8.964 12.395Zm0 0"/><path fill="#5b0a90" d="M30.98 50.73 0 53.148l13.734-23.253ZM22.016 63.125l3.699 20.496L-.035 73.2ZM384 25.426l.027 20.62-33.734-1.878Zm0 0"/><path fill="#5b0a90" d="M340.078 21.574 384 25.426l-33.707 18.742ZM384 25.426l-43.922-3.852L384 0ZM340.078 21.574l10.215 22.594-16.629-9.57Zm0 0"/><path fill="#5b0a90" d="m352.969 59.574-22.07-3.773 19.394-11.633Zm0 0"/><path fill="#baab97" d="m342.105 68.96 10.864-9.386 4.383 43.836Zm0 0"/><path fill="#5b0a90" d="m352.969 59.574-10.864 9.387-11.207-13.16ZM150.656 345.637l-28.508 1.11-20.902-35.821Zm0 0"/><path fill="#edcf30" d="m163.723 263.484-16.828-13.722 35.863-9.297Zm0 0"/><path fill="#e7ce40" d="m190.648 270.742-26.925-7.258 19.035-23.02Zm0 0"/><path fill="#fed600" d="M139.816 356.68 152.187 384l-30.386-.016Zm0 0"/><path fill="#e1b31d" d="m159.387 373.313-19.57-16.633 10.84-11.043Zm0 0"/><path fill="#fbd507" d="m152.188 384-12.372-27.32 19.57 16.632Zm0 0"/><path fill="#9e5f56" d="m122.148 346.746 17.668 9.934-18.015 27.304Zm0 0"/><path fill="#5b0a90" d="m150.656 345.637-10.84 11.043-17.668-9.934Zm0 0"/><path fill="#ddb229" d="m209.398 313.027-47.335-12.937 28.585-29.348Zm0 0"/><path fill="#d8ad2f" d="m162.063 300.09 1.66-36.606 26.925 7.258Zm0 0"/><path fill="#fed601" d="m24.875 230.457 26.84 5.762-11.645 12.168Zm0 0"/><path fill="#fdd602" d="m51.715 236.219-26.84-5.762 18.848-19.633Zm0 0"/><path fill="#5b0a90" d="m16.047 249.863 8.828-19.406 15.195 17.93Zm0 0"/><path fill="#5b0b90" d="m-.02 242.66 24.895-12.203-8.828 19.406Zm0 0"/><path fill="#fdd502" d="M64.04 329.293 36.511 304.82l46.398-26.824Zm0 0"/><path fill="#fbd304" d="m101.043 311.016-37.004 18.277 18.871-51.297Zm0 0"/><path fill="#fed600" d="m64.04 329.293 37.003-18.277 7.2 41.957Zm0 0"/><path fill="#fdd501" d="m64.04 329.293 44.202 23.68-32.851-2.934Zm0 0"/><path fill="#efcd23" d="m278.54 260.785 10.28 24.828-31.836 4.438Zm0 0"/><path fill="#fcd606" d="m242.207 261.55 36.332-.765-21.555 29.266Zm0 0"/><path fill="#f3d21f" d="m288.82 285.613 14.032-22.144 13.023 18.926Zm0 0"/><path fill="#fad50b" d="m315.875 282.395-13.023-18.926 22.558-13.703Zm0 0"/><path fill="#fcd507" d="m325.41 249.766-22.558 13.703-4.91-21.442Zm0 0"/><path fill="#fed601" d="m312.395 231.375-14.454 10.652 1.157-30Zm0 0"/><path fill="#eecb23" d="m299.258 308.457-23.758 1.781 13.32-24.625Zm0 0"/><path fill="#f3d21e" d="m315.875 282.395-16.617 26.062-10.438-22.844Zm0 0"/><path fill="#5b0a90" d="m330.613 297.664-31.355 10.793 16.617-26.062Zm0 0"/><path fill="#fed600" d="m279.426 384.004-46.797.004 44.34-7.938ZM232.629 384.008l11.023-14.418 33.317 6.48Zm0 0"/><path fill="#f8cf07" d="m276.969 376.07 19.316-21.945 9.328 12.512Zm0 0"/><path fill="#fdd402" d="M296.285 354.125 276.97 376.07l.047-14.16Zm0 0"/><path fill="#fed500" d="m279.426 384.004-2.457-7.934 28.644-9.433Zm0 0"/><path fill="#5b0a90" d="m207.684 350.68 33.062-6.11-2.71 14.57Zm0 0"/><path fill="#5e0e8d" d="m220.578 368.508 12.05 15.5-29.378-.016Zm0 0"/><path fill="#fed600" d="m220.578 368.508 23.074 1.082-11.023 14.418Zm0 0"/><path fill="#fcd402" d="m243.652 369.59-23.074-1.082 17.457-9.367Zm0 0"/><path fill="#5b0a90" d="m220.578 368.508-12.894-17.828 30.351 8.46Zm0 0"/><path fill="#e7cd40" d="m122.484 194.613 28.344-21.73-3.91 38.484Zm0 0"/><path fill="#fdd501" d="m76.055 248.46-3.75 16.563-13.274-6.636ZM36.512 304.82l35.793-39.797 10.605 12.973Zm0 0"/><path fill="#5e0e8e" d="M72.305 265.023 84.82 251.75l-1.91 26.246Zm0 0"/><path fill="#5d0d8e" d="m72.305 265.023 3.75-16.562 8.765 3.289Zm0 0"/><path fill="#fcd504" d="m22.66 286.262 49.645-21.239-35.793 39.797Zm0 0"/><path fill="#fcd405" d="m59.031 258.387 13.274 6.636-49.645 21.239Zm0 0"/><path fill="#5b0a90" d="m342.77 236.121-3.032 24.969-14.328-11.324Zm0 0"/><path fill="#5b0a90" d="m339.738 261.09 3.032-24.969 7.355 10.371Zm0 0"/><path fill="#f7d415" d="m367.484 189.8 16.524-35.19-.012 75.28Zm0 0"/><path fill="#fed600" d="m351.277 189.191 16.207.61-10.671 9.496Zm0 0"/><path fill="#f8d411" d="m367.484 189.8-13.039-22.042 29.563-13.149Zm0 0"/><path fill="#fed600" d="m354.445 167.758 13.04 22.043-16.208-.61Zm0 0"/><path fill="#5b0a90" d="m345.059 120.125 12.293-16.715 20.324 26.95Zm0 0"/><path fill="#fdd602" d="m316.422 102.133 8.75-16.063 32.18 17.34Zm0 0"/><path fill="#fed600" d="m345.059 120.125-28.637-17.992 40.93 1.277Zm0 0"/><path fill="#fcd402" d="m316.422 102.133 28.637 17.992-9.391 27.621Zm0 0"/><path fill="#5b0a90" d="m316.422 102.133 19.246 45.613-25.559-22.363Zm0 0"/><path fill="#fed600" d="m249.82 154.973 20.618-3.336-5.122 38.379ZM270.438 151.637l30.269 7.37-35.39 31.009Zm0 0"/><path fill="#fdd603" d="m300.707 159.008-2.52 24.594-32.87 6.414ZM298.188 183.602l2.519-24.594 8.95 13.308Zm0 0"/><path fill="#d8c768" d="m325.723 154.45-16.067 17.866 2.36-19.218Zm0 0"/><path fill="#5b0a90" d="m339.55 197.984-22.394-8.578 10.371-11.222Zm0 0"/><path fill="#5b0a90" d="m351.09 216.867-11.54-18.883 17.262 1.313Zm0 0"/><path fill="#5b0a90" d="m317.156 189.406 22.395 8.578-11.875 23.805Zm0 0"/><path fill="#5b0a90" d="m339.55 197.984 11.54 18.883-23.414 4.922ZM339.55 197.984l11.727-8.793 5.536 10.106ZM339.55 197.984l-12.023-19.8 16.926 6.593Zm0 0"/><path fill="#5b0a90" d="m351.277 189.191-11.726 8.793 4.902-13.207Zm0 0"/><path fill="#fed601" d="m384.008 154.61-48.34-6.864 42.008-17.387Zm0 0"/><path fill="#fed600" d="m354.445 167.758-18.777-20.012 48.34 6.863Zm0 0"/><path fill="#5b0a90" d="m335.668 147.746 9.39-27.621 32.618 10.234ZM339.738 261.09l17.461-1.871 2.238 11.594Zm0 0"/><path fill="#5b0a90" d="m357.2 259.219-17.462 1.87 10.387-14.597Zm0 0"/><path fill="#fbd50a" d="m359.438 270.813-2.239-11.594 12.067 2.543Zm0 0"/><path fill="#fed601" d="m357.2 259.219 12.148-10.637-.082 13.18Zm0 0"/><path fill="#fed600" d="m357.2 259.219-7.075-12.727 19.223 2.09Zm0 0"/><path fill="#5e0e8d" d="m346.688 370.832 16.265 13.172-50.527.004Zm0 0"/><path fill="#fdd502" d="m365.68 345.922 12.922 2.363-16.524 21.012Zm0 0"/><path fill="#fed500" d="m340.824 355.922 24.856-10-3.602 23.375Zm0 0"/><path fill="#f4ca09" d="m365.68 345.922-24.856 10 1.742-11.637Zm0 0"/><path fill="#5c0b8f" d="m367.672 336.934-1.992 8.988-23.114-1.637Zm0 0"/><path fill="#5b0a90" d="m365.68 345.922 1.992-8.988 10.93 11.351Zm0 0"/><path fill="#fed600" d="m134.66 41.668 18.988-14.402 3.48 46.937Zm0 0"/><path fill="#5b0a90" d="m134.66 41.668 1.16 22.27-10.386-19.329Zm0 0"/><path fill="#dec855" d="m214.793 231.094 27.414 30.457-29.277.804Zm0 0"/><path fill="#fed600" d="m150.828 172.883 17.234-30.508 20.372 19.367ZM233.355 143.934l16.465 11.039L223.113 173Zm0 0"/><path fill="#5b0b90" d="M41.777 16.156 21.594 23.63 42.219 0Zm0 0"/><path fill="#5c0c90" d="m21.594 23.629 20.183-7.473 5.215 17.016Zm0 0"/><path fill="#fbd203" d="m21.594 23.629 25.398 9.543L30.98 50.73Zm0 0"/><path fill="#c7c098" d="m352.969 59.574 17.52 30.192-13.137 13.644Zm0 0"/><path fill="#5c0c8f" d="m199.004 380.113 21.574-11.605-17.328 15.484Zm0 0"/><path fill="#fed600" d="m199.004 380.113 8.68-29.433 12.894 17.828Zm0 0"/><path fill="#fcd302" d="m207.684 350.68-8.68 29.433-16.324-20.066Zm0 0"/><path fill="#c28b35" d="m184.055 346.34 25.343-33.313-1.714 37.653Zm0 0"/><path fill="#5b0a90" d="m182.68 360.047 1.375-13.707 23.629 4.34ZM182.68 360.047l-32.024-14.41 33.399.703Zm0 0"/><path fill="#5c0b8f" d="m182.68 360.047-23.293 13.265-8.73-27.675Zm0 0"/><path fill="#5b0a90" d="m182.68 360.047 16.324 20.066-39.617-6.8Zm0 0"/><path fill="#fcd506" d="m127.227 151.668 23.601 21.215-27.879-15.348Zm0 0"/><path fill="#e0cb55" d="m150.828 172.883 31.883 23.68-35.793 14.804Zm0 0"/><path fill="#fdd604" d="m300.707 159.008-30.27-7.371 8.11-13.02Zm0 0"/><path fill="#5b0a91" d="m301.484 138.793-.777 20.215-22.16-20.39Zm0 0"/><path fill="#c6c19b" d="m312.016 153.098-2.36 19.218-8.949-13.308Zm0 0"/><path fill="#c0bfad" d="m312.016 153.098-11.309 5.91.777-20.215Zm0 0"/><path fill="#5b0a90" d="m327.527 178.184-17.87-5.868 16.066-17.867ZM309.656 172.316l17.871 5.868-10.37 11.222Zm0 0"/><path fill="#5e0e90" d="m335.668 147.746 3.512 21.535-13.457-14.832Zm0 0"/><path fill="#5b0a90" d="m339.18 169.281-11.653 8.903-1.804-23.735ZM327.527 178.184l11.653-8.903 5.273 15.496Zm0 0"/><path fill="#5b0a90" d="m339.18 169.281 15.265-1.523-9.992 17.02Zm0 0"/><path fill="#5b0a90" d="m339.18 169.281-3.512-21.535 18.777 20.012Zm0 0"/><path fill="#fed601" d="m346.688 370.832-34.262 13.176 28.398-28.086Zm0 0"/><path fill="#fed600" d="m312.426 384.008-6.813-17.371 35.211-10.715Zm0 0"/><path fill="#fbd303" d="m346.688 370.832-5.864-14.91 21.254 13.375Zm0 0"/><path fill="#5b0a90" d="m135.82 63.938 21.309 10.265-12.5 11.16Zm0 0"/><path fill="#5b0a90" d="m135.82 63.938-1.16-22.27 22.469 32.535ZM226.781 116.547l-2.84-11.004 22.114-4.676ZM309.04 330.473l21.573-32.809.899 29.652Zm0 0"/><path fill="#f7cf0b" d="m309.04 330.473-9.782-22.016 31.355-10.793Zm0 0"/><path fill="#5b0a90" d="m309.04 330.473 22.472-3.157-10.02 15.887Zm0 0"/><path fill="#efd02b" d="m297.941 242.027-19.402 18.758-6-31.656Zm0 0"/><path fill="#f3d220" d="m272.54 229.129 6 31.656-36.333.766Zm0 0"/><path fill="#f8d411" d="m302.852 263.469-24.313-2.684 19.402-18.758Zm0 0"/><path fill="#f1d124" d="m278.54 260.785 24.312 2.684-14.032 22.144Zm0 0"/></svg>