<svg xmlns="http://www.w3.org/2000/svg" width="512" height="512" viewBox="0 0 384 384"><path fill="#93ddc9" d="m23.66 336.598 9.145-31.723 20.078 28.406Zm0 0"/><path fill="#94dfcb" d="M41.512 364.652 23.66 336.598l29.223-3.317Zm0 0"/><path fill="#90222c" d="m383.992 306.078-9.648 5.25-7.059-27.16Zm0 0"/><path fill="#e2585a" d="m158.742 74.895-6.004 19.136-9.425-9.105Zm0 0"/><path fill="#ef4e52" d="m158.742 74.895 13.418 19.19-19.422-.054Zm0 0"/><path fill="#9a232c" d="m110.824 114.352 1.457 26.14-25.719-7.258Zm0 0"/><path fill="#9a242d" d="m112.281 140.492-9.273 9.356-16.445-16.614Zm0 0"/><path fill="#a77c78" d="m152.738 94.031-27.402 10.477 17.977-19.582Zm0 0"/><path fill="#1c2638" d="m83.371 106.965-7.164-9.84 15.844-5.676Zm0 0"/><path fill="#9a222b" d="m215.652 46.66 17.637-12.594 2.133 14.344Zm0 0"/><path fill="#f04e52" d="m203.61 79 3.25 22.977-34.7-7.891Zm0 0"/><path fill="#98dbc7" d="m254.215 140.023 3.719-12.933 13.011 8.918Zm0 0"/><path fill="#98dac7" d="m278.164 165.691-23.95-25.668 16.731-4.015Zm0 0"/><path fill="#96dcc9" d="m253.516 60.766 2.199-15.426 15.187 8.187Zm0 0"/><path fill="#95decb" d="m255.715 45.34 16.433-5.04-1.246 13.227Zm0 0"/><path fill="#98dac7" d="m280.086 105.133-14.25-22.934 29.586-3.472Zm0 0"/><path fill="#f04f53" d="m265.836 82.2-12.32-21.434 17.386-7.239Zm0 0"/><path fill="#9b222b" d="m143.883 61.504-38.649 9.098 2.036-11.704Zm0 0"/><path fill="#1e293a" d="m-.043 246.375 16.344 28.441L.01 298.871Zm0 0"/><path fill="#212e3e" d="M16.3 274.816-.042 246.375l39.453 2.305Zm0 0"/><path fill="#94dfcb" d="m25.766 192.54-13 28.847-12.774-24.403Zm0 0"/><path fill="#3b3744" d="m41.512 364.652 25.668-8.824-23.598 16.453Zm0 0"/><path fill="#94dfcb" d="m67.18 355.828-25.668 8.824 11.37-31.37Zm0 0"/><path fill="#93ddca" d="M23.66 336.598.012 298.87l32.793 6.004Zm0 0"/><path fill="#92dcc9" d="M.012 298.871 16.3 274.816l16.504 30.059Zm0 0"/><path fill="#9a232c" d="m281.82 328.91-37.132 23.758-1.918-7.926Zm0 0"/><path fill="#2c3241" d="m281.148 328.004.672.906-39.05 15.832Zm0 0"/><path fill="#546c6f" d="m250.145 320.64 31.003 7.364-38.378 16.738Zm0 0"/><path fill="#90d2c0" d="m248.719 288.14 10.035-1.488-7.027 9.957Zm0 0"/><path fill="#202c3d" d="m198.676 253.523-30.125-28.73 37.16-1.703Zm0 0"/><path fill="#446369" d="m168.55 224.793 18.419-23.84 18.742 22.137Zm0 0"/><path fill="#598382" d="m186.969 200.953-18.418 23.84-2.13-40.93Zm0 0"/><path fill="#354c56" d="m166.953 240.598 1.598-15.805 30.125 28.73Zm0 0"/><path fill="#6b9d97" d="m198.676 253.523 15.953 19.704-17.848 17.671Zm0 0"/><path fill="#263443" d="m102.688 204.402-34.114 3.887 11.992-23.68Zm0 0"/><path fill="#94decb" d="m371.84 228.66 12.164-28.937v46.425Zm0 0"/><path fill="#95dfcb" d="m366.441 245.215 5.399-16.555 12.164 17.488Zm0 0"/><path fill="#1c2537" d="m341.79 268.719-8.747 28.031-12.969-22.973Zm0 0"/><path fill="#9a222b" d="m172.16 94.086-.754 19.328-18.668-19.383Zm0 0"/><path fill="#9a232c" d="m171.406 113.414-13.008 5.262-5.66-24.645Zm0 0"/><path fill="#f04e52" d="M105.25 27.848 98.953 0l47.754 12.277Zm0 0"/><path fill="#95dbc8" d="m161.68 156.172-17.946-7.07 8.078-10.997Zm0 0"/><path fill="#94dfcb" d="m53.402 163.863 10.086 9.325-19.336 39.468Zm0 0"/><path fill="#9a242d" d="m68.574 208.29-5.086-35.102 17.078 11.421Zm0 0"/><path fill="#982c34" d="m83.371 106.965-17.719 7.633 10.555-17.473Zm0 0"/><path fill="#9a2b32" d="m31.46 116.129 34.071 35.238-34.562-4.176Zm0 0"/><path fill="#9a2f36" d="m65.652 114.598-.12 36.77-34.071-35.24Zm0 0"/><path fill="#995a5a" d="m65.531 151.367.121-36.77 20.91 18.637Zm0 0"/><path fill="#994b4e" d="m65.531 151.367-12.129 12.496-22.433-16.672Zm0 0"/><path fill="#1c2638" d="m112.035 97.879 13.3 6.629-14.51 9.844ZM112.035 97.879l-28.664 9.086 8.68-15.516Zm0 0"/><path fill="#1c2638" d="m83.371 106.965 28.664-9.086-1.21 16.473Zm0 0"/><path fill="#1d2739" d="m125.336 104.508-13.3-6.63 31.277-12.952Zm0 0"/><path fill="#9c242d" d="m144.156 111.152-18.82-6.644 27.402-10.477Zm0 0"/><path fill="#9b222b" d="m158.398 118.676-14.242-7.524 8.582-17.12Zm0 0"/><path fill="#9a242d" d="m138.645 126.977 5.511-15.825 14.242 7.524Zm0 0"/><path fill="#ef5053" d="m354.672 73.21 5.926 29.938-44.223-17.3Zm0 0"/><path fill="#ef4f53" d="m226.398 0 22.504 13.172-15.613 20.894Zm0 0"/><path fill="#9a222b" d="m215.246 63.387.406-16.727 19.77 1.75Zm0 0"/><path fill="#9a242d" d="m233.25 74.848-18.004-11.461 20.176-14.977Zm0 0"/><path fill="#f04e52" d="m215.246 63.387 18.004 11.46L203.61 79Zm0 0"/><path fill="#9b222b" d="m201.363 31.348 14.29 15.312-16.9 6.348Zm0 0"/><path fill="#9a222b" d="m215.652 46.66-14.289-15.312 31.926 2.718Zm0 0"/><path fill="#ef4f53" d="M226.398 0h31.696l-9.192 13.172Zm0 0"/><path fill="#f04d51" d="m226.398 0-18.05 17.887L197.738 0ZM208.348 17.887 226.398 0l6.891 34.066Zm0 0"/><path fill="#f04e52" d="m208.348 17.887-14.856 7.406L197.738 0ZM201.363 31.348l6.985-13.461 24.941 16.18ZM208.348 17.887l-6.985 13.46-7.87-6.054Zm0 0"/><path fill="#ee5255" d="m257.934 127.09 17.066-.887-4.055 9.805Zm0 0"/><path fill="#f04f53" d="m275 126.203-17.066.887 22.152-21.957Zm0 0"/><path fill="#ef5053" d="m257.934 127.09-8.758-23.86 30.91 1.903Zm0 0"/><path fill="#f04e52" d="m249.176 103.23 16.66-21.03 14.25 22.933Zm0 0"/><path fill="#f04e52" d="m265.836 82.2-16.66 21.03-15.926-28.382Zm0 0"/><path fill="#95dfcb" d="m255.715 45.34 4.62-17.246L272.149 40.3Zm0 0"/><path fill="#9a262e" d="m0 138.79 31.46-22.661-.491 31.062Zm0 0"/><path fill="#9b222b" d="M105.234 70.602 76.535 44.504l30.735 14.394Zm0 0"/><path fill="#ef4d51" d="m76.535 44.504 28.715-16.656 2.02 31.05Zm0 0"/><path fill="#9a222b" d="m76.535 44.504-10.578 15.18-9.105-12.168Zm0 0"/><path fill="#9b222b" d="m76.535 44.504 26.77 28.383-37.348-13.203Zm0 0"/><path fill="#9b242d" d="m103.305 72.887-26.77-28.383 28.7 26.098Zm0 0"/><path fill="#9a272f" d="M65.652 114.598 53.277 92.156l22.93 4.969Zm0 0"/><path fill="#9a2931" d="m53.277 92.156 12.375 22.442-34.191 1.53Zm0 0"/><path fill="#95d7c4" d="m58.324 74.05-10.86-3.71 18.493-10.656Zm0 0"/><path fill="#9a2830" d="M65.957 59.684 47.465 70.34l9.387-22.824Zm0 0"/><path fill="#9a272f" d="M47.465 70.34 36.508 43.98l20.344 3.536Zm0 0"/><path fill="#9a262f" d="m36.508 43.98 10.957 26.36-16.598-17.863Zm0 0"/><path fill="#9a262e" d="m31.46 116.129-1.253-33.262 23.07 9.29Zm0 0"/><path fill="#9a3f43" d="m47.465 70.34-24.559-8.008 7.961-9.855Zm0 0"/><path fill="#94ddca" d="M47.465 70.34 30.207 82.867l-7.3-20.535Zm0 0"/><path fill="#f04e52" d="m301.582 14.707 11.48 18.594-23.867-8.317ZM313.063 33.3l8.753-15.69 27.446 28.156ZM384 89.96l-29.328-16.75L384 55.696ZM384 89.96l-23.402 13.188-5.926-29.937Zm0 0"/><path fill="#1c2638" d="m122.633 270.926-6.219 24.738-42.664-26.25Zm0 0"/><path fill="#1c2638" d="m160.918 301.895-44.504-6.23 6.219-24.74Zm0 0"/><path fill="#1c2638" d="m116.414 295.664 44.504 6.23-29.887 29.918Zm0 0"/><path fill="#1d2739" d="m68.574 208.29 34.114-3.888-20.555 19.442Zm0 0"/><path fill="#1c2638" d="m155.469 343.875-24.438-12.062 29.887-29.918Zm0 0"/><path fill="#517577" d="m196.781 290.898 35.43 10.84-27.02 23.012Zm0 0"/><path fill="#8fd5c3" d="m10.898 171.23 24.477-3.402-9.61 24.711Zm0 0"/><path fill="#94dfcb" d="m25.766 192.54 9.609-24.712 8.777 44.828Zm0 0"/><path fill="#94dfcb" d="m35.375 167.828 18.027-3.965-9.25 48.793Zm0 0"/><path fill="#9a252e" d="m53.402 163.863-18.027 3.965-4.406-20.637Zm0 0"/><path fill="#84c6b7" d="M12.766 221.387.008 228.254l-.016-31.27Zm0 0"/><path fill="#94c4b4" d="m44.152 212.656-31.386 8.73 13-28.847Zm0 0"/><path fill="#572734" d="M106.543 356.348 120.75 384l-35.84-13.172Zm0 0"/><path fill="#ee4e52" d="m120.75 384-79.855-.047 44.015-13.125Zm0 0"/><path fill="#95242d" d="m67.18 355.828 17.73 15-41.328 1.453Zm0 0"/><path fill="#9a272f" d="m84.91 370.828-44.015 13.125 2.687-11.672Zm0 0"/><path fill="#93ddca" d="m0 345.168.012-46.297 23.648 37.727Zm0 0"/><path fill="#212537" d="m333.043 296.75-18.063-15.227 5.094-7.746Zm0 0"/><path fill="#f04e52" d="m299.262 384 19.586-38.14L335.992 384Zm0 0"/><path fill="#9a222b" d="m281.82 328.91-7.578 32.602-29.555-8.844Zm0 0"/><path fill="#415a61" d="m232.21 301.738 17.935 18.903-44.954 4.109Zm0 0"/><path fill="#7dbbae" d="m232.21 301.738 16.509-13.597 3.008 8.468Zm0 0"/><path fill="#577f7f" d="m250.145 320.64-17.934-18.902 19.516-5.129Zm0 0"/><path fill="#91dbc8" d="m190.148 164.172-3.18 36.781-20.546-17.09Zm0 0"/><path fill="#95dfcb" d="m186.969 200.953 3.18-36.781 29.867 21.676Zm0 0"/><path fill="#1f2b3c" d="m102.688 204.402 33.335-.289-6.199 35.551Zm0 0"/><path fill="#659791" d="m168.55 224.793-32.527-20.68 30.399-20.25Zm0 0"/><path fill="#496c6f" d="m168.55 224.793-1.597 15.805-37.129-.934Zm0 0"/><path fill="#1c2738" d="M62.059 256.375 16.3 274.816l23.11-26.136Zm0 0"/><path fill="#1e2638" d="m68.137 223.82.437-15.53 13.559 15.554Zm0 0"/><path fill="#94dfcb" d="m44.152 212.656 24.422-4.367-.437 15.531Zm0 0"/><path fill="#9a232c" d="m63.488 173.188 5.086 35.101-24.422 4.367Zm0 0"/><path fill="#99d9c6" d="M326.336 219.117 314.19 229.66l-2.812-13.156Zm0 0"/><path fill="#95deca" d="m314.191 229.66 12.145-10.543 2.004 8.844Zm0 0"/><path fill="#95dfcb" d="m324.188 250.96-9.997-21.3 14.149-1.7Zm0 0"/><path fill="#95dfcb" d="m314.191 229.66 9.997 21.3-21.375-3.753ZM278.973 227.852l19.62-24.747 12.786 13.399Zm0 0"/><path fill="#95dfcb" d="m275.07 193.7 23.524 9.405-19.621 24.747Zm0 0"/><path fill="#96dcc9" d="m368.164 192.367 3.676 36.293-14.836-29.773Zm0 0"/><path fill="#95dfcb" d="m368.164 192.367 15.84 7.356-12.164 28.937ZM384.004 246.148l-.008 33.211-14.547-17.398Zm0 0"/><path fill="#1d2537" d="m371.258 282.871 12.738-3.512-.004 26.72Zm0 0"/><path fill="#232537" d="m371.258 282.871 12.734 23.207-16.707-21.91Zm0 0"/><path fill="#93232c" d="m369.45 261.96 1.808 20.911-3.973 1.297Zm0 0"/><path fill="#302838" d="m383.996 279.36-12.738 3.511-1.809-20.91Zm0 0"/><path fill="#99262e" d="m360.496 268.188 8.953-6.227-2.164 22.207Zm0 0"/><path fill="#1c2638" d="m341.79 268.719 25.495 15.449-34.242 12.582Zm0 0"/><path fill="#1d2537" d="m367.285 284.168-17.058 19.648-17.184-7.066Zm0 0"/><path fill="#1d2638" d="m360.496 268.188 6.79 15.98-25.497-15.45Zm0 0"/><path fill="#f04e52" d="m318.848 345.86 23.492-1.653L335.992 384ZM335.992 384l20.98-23.39L384 384ZM174.832 68.453 203.609 79 172.16 94.086Zm0 0"/><path fill="#f04e52" d="m174.832 68.453-2.672 25.633-13.418-19.191Zm0 0"/><path fill="#a4272f" d="m168.313 56.434 6.519 12.02-16.09 6.44Zm0 0"/><path fill="#97dcc9" d="m185.055 114.238 20.597-1.933-13.68 21.675Zm0 0"/><path fill="#9b222b" d="m183.914 107.594-12.508 5.82.754-19.328Zm0 0"/><path fill="#9a232c" d="m183.914 107.594 1.14 6.644-13.648-.824Zm0 0"/><path fill="#9b222b" d="m185.055 114.238-1.14-6.644 21.737 4.71Zm0 0"/><path fill="#ef4e52" d="m206.86 101.977-22.946 5.617-11.754-13.508Zm0 0"/><path fill="#9d242c" d="m183.914 107.594 22.945-5.617-1.207 10.328Zm0 0"/><path fill="#f04e52" d="M98.953 0h51.93l-4.176 12.277Zm0 0"/><path fill="#f04e52" d="m193.492 25.293-46.785-13.016L150.883 0ZM105.25 27.848l28.18 12.289-26.16 18.761ZM133.43 40.137l-28.18-12.29 41.457-15.57ZM79.34 19.664l25.91 8.184-28.715 16.656Zm0 0"/><path fill="#f04e52" d="m105.25 27.848-25.91-8.184L98.953 0Zm0 0"/><path fill="#9b232c" d="M48.406 18.82 24.81 20.941 34.402 0Zm0 0"/><path fill="#9a242d" d="m48.406 18.82 28.13 25.684-19.684 3.012Zm0 0"/><path fill="#f04e52" d="m48.406 18.82 30.934.844-2.805 24.84Zm0 0"/><path fill="#9a222b" d="m36.508 43.98 11.898-25.16 8.446 28.696Zm0 0"/><path fill="#4a6d70" d="m119.008 185.852-20.73-10.797 22.628-17.567Zm0 0"/><path fill="#94d7c5" d="m143.734 149.102-13.43-15.04 21.508 4.043Zm0 0"/><path fill="#9a2a31" d="m130.305 134.063-18.024 6.43-1.457-26.141Zm0 0"/><path fill="#92dac7" d="m130.305 134.063-9.399 23.425-8.625-16.996Zm0 0"/><path fill="#72aaa1" d="m120.906 157.488 9.399-23.425 13.43 15.039Zm0 0"/><path fill="#93d9c6" d="m112.281 140.492 8.625 16.996-17.898-7.64Zm0 0"/><path fill="#608f8b" d="m120.906 157.488-22.629 17.567 4.73-25.207Zm0 0"/><path fill="#9a222b" d="m63.488 173.188-10.086-9.325 12.13-12.496Zm0 0"/><path fill="#9a2c34" d="m86.563 133.234-20.91-18.636 17.718-7.633Zm0 0"/><path fill="#1c2638" d="m86.563 133.234-3.192-26.27 27.453 7.388Zm0 0"/><path fill="#94decb" d="m112.852 91.129-7.618-20.527 38.649-9.098Zm0 0"/><path fill="#1f293a" d="m112.852 91.129 31.03-29.625-.57 23.422Zm0 0"/><path fill="#1d2739" d="m112.035 97.879.817-6.75 30.46-6.203Zm0 0"/><path fill="#94dfcb" d="m112.852 91.129-9.547-18.242 1.93-2.285Zm0 0"/><path fill="#1c2638" d="m112.852 91.129-.817 6.75-19.984-6.43Zm0 0"/><path fill="#94dfcb" d="m103.305 72.887 9.547 18.242-20.801.32Zm0 0"/><path fill="#9a2b33" d="m125.336 104.508 13.309 22.469-27.82-12.625Zm0 0"/><path fill="#9a242d" d="m144.156 111.152-5.511 15.825-13.31-22.47Zm0 0"/><path fill="#9a2b33" d="m138.645 126.977-8.34 7.085-19.48-19.71Zm0 0"/><path fill="#95dcc9" d="m130.305 134.063 8.34-7.086 13.167 11.128Zm0 0"/><path fill="#659691" d="m198.676 253.523 41.094-.308-25.141 20.012Zm0 0"/><path fill="#ee5154" d="m295.422 78.727-29.586 3.472 5.066-28.672Zm0 0"/><path fill="#95dfcb" d="m272.148 40.3 20.317 5.837-21.563 7.39Zm0 0"/><path fill="#f04f52" d="m292.465 46.137 2.957 32.59-24.52-25.2Zm0 0"/><path fill="#95dfcb" d="M292.465 46.137 272.148 40.3l17.047-15.317ZM205.652 112.305l5.211 9.195-18.89 12.48Zm0 0"/><path fill="#9fcfbe" d="m210.863 121.5 16.825 20.438-35.715-7.958Zm0 0"/><path fill="#9ad7c4" d="m217.52 115.61-6.657 5.89-5.21-9.195Zm0 0"/><path fill="#95dfcb" d="m227.688 141.938-7.672 43.91-29.868-21.676Zm0 0"/><path fill="#96ddc9" d="m248.902 13.172-4.87 22.488-10.743-1.594Zm0 0"/><path fill="#95dfcb" d="m244.031 35.66 16.305-7.566-4.621 17.246Zm0 0"/><path fill="#98dbc8" d="M260.336 28.094 244.03 35.66l4.871-22.488Zm0 0"/><path fill="#99d7c4" d="m233.29 34.066 10.741 1.594-8.61 12.75Zm0 0"/><path fill="#9ad7c4" d="m244.031 35.66 11.684 9.68-20.293 3.07Zm0 0"/><path fill="#9b222b" d="m215.246 63.387-16.492-10.38 16.898-6.347Zm0 0"/><path fill="#f04f53" d="m198.754 53.008 16.492 10.379L203.61 79Zm0 0"/><path fill="#f04e52" d="m253.516 60.766 12.32 21.433-32.586-7.351Zm0 0"/><path fill="#95deca" d="M253.516 60.766 233.25 74.848l2.172-26.438Zm0 0"/><path fill="#97dbc8" d="m255.715 45.34-2.2 15.426-18.093-12.356Zm0 0"/><path fill="#f04e52" d="m197.738 0-4.246 25.293L150.882 0Zm0 0"/><path fill="#95dfcb" d="m260.336 28.094 28.86-3.11-17.048 15.317Zm0 0"/><path fill="#96deca" d="m316.375 85.848-36.29 19.285 15.337-26.406Zm0 0"/><path fill="#ef4f53" d="m244.305 123.074 4.87-19.844 8.759 23.86Zm0 0"/><path fill="#97dcc8" d="m244.305 123.074 13.629 4.016-3.72 12.933Zm0 0"/><path fill="#f04f52" d="m233.25 74.848-9.7 24.718L203.61 79Zm0 0"/><path fill="#ed5256" d="m249.176 103.23-25.625-3.664 9.699-24.718Zm0 0"/><path fill="#ee5255" d="m223.55 99.566-16.69 2.41L203.61 79Zm0 0"/><path fill="#95d0be" d="M22.906 62.332-.016 74.32l.004-23.007Zm0 0"/><path fill="#95c1b2" d="m30.867 52.477-7.96 9.855-22.919-11.02Zm0 0"/><path fill="#9a232c" d="m0 138.79.008-38.813 31.453 16.152Zm0 0"/><path fill="#982931" d="m53.277 92.156 15.13-9.793 7.8 14.762Zm0 0"/><path fill="#9a2830" d="m68.406 82.363-15.129 9.793 5.047-18.105Zm0 0"/><path fill="#1c2638" d="m76.207 97.125-7.8-14.762L92.05 91.45Zm0 0"/><path fill="#94dfcb" d="m68.406 82.363-10.082-8.312 7.633-14.367Zm0 0"/><path fill="#95deca" d="m68.406 82.363 34.899-9.476L92.05 91.449Zm0 0"/><path fill="#95ddc9" d="m103.305 72.887-34.899 9.476-2.449-22.68Zm0 0"/><path fill="#9a3037" d="M53.277 92.156 47.465 70.34l10.86 3.71Zm0 0"/><path fill="#9a2830" d="m47.465 70.34 5.812 21.816-23.07-9.289Zm0 0"/><path fill="#9a252d" d="M31.46 116.129 14.942 91.62l15.266-8.754Zm0 0"/><path fill="#93dcc9" d="M14.941 91.621.008 99.977-.016 74.32Zm0 0"/><path fill="#9a262e" d="M.008 99.977 14.94 91.62l16.52 24.508Zm0 0"/><path fill="#f04e52" d="M306.465-.004 384 0l-62.184 17.61Zm0 0"/><path fill="#95dfcb" d="M292.465 46.137 313.063 33.3l10.058 25.765Zm0 0"/><path fill="#96ddca" d="m313.063 33.3-20.598 12.837-3.27-21.153Zm0 0"/><path fill="#95decb" d="m323.121 59.066-10.058-25.765 36.199 12.465Zm0 0"/><path fill="#f04e52" d="m301.582 14.707 20.234 2.902-8.753 15.692Zm0 0"/><path fill="#f04e52" d="m321.816 17.61-20.234-2.903 4.883-14.71Zm0 0"/><path fill="#98d9c6" d="m306.098 143.063-26.012-37.93 36.289-19.285Zm0 0"/><path fill="#f04e52" d="m354.672 73.21-5.41-27.444L384 55.696Zm0 0"/><path fill="#f04e52" d="m354.672 73.21-31.55-14.144 26.14-13.3ZM120.75 384l19.184-26.219 15.84 26.2Zm0 0"/><path fill="#79232e" d="m131.031 331.813 8.903 25.968-33.391-1.433Zm0 0"/><path fill="#72232f" d="m106.195 338.32 24.836-6.507-24.488 24.535Zm0 0"/><path fill="#1f2b3c" d="m163.707 265.285-2.789 36.61-38.285-30.97Zm0 0"/><path fill="#1d2739" d="m129.824 239.664 33.883 25.621-41.074 5.64Zm0 0"/><path fill="#f04e52" d="m165.195 372.441 1.73 11.563-11.152-.024ZM166.926 384.004l-1.73-11.563 39.702 11.59Zm0 0"/><path fill="#94dfcb" d="m-.008 196.984-.004-28.027 10.91 2.273ZM-.008 196.984l10.906-25.754 14.868 21.31Zm0 0"/><path fill="#9a2d35" d="m13.098 159.633-13.11 9.324L0 138.789Zm0 0"/><path fill="#97262f" d="m35.375 167.828-22.277-8.195 17.87-12.442Zm0 0"/><path fill="#993239" d="m-.012 168.957 13.11-9.324-2.2 11.597Zm0 0"/><path fill="#9a232c" d="m13.098 159.633 22.277 8.195-24.477 3.402Zm0 0"/><path fill="#986b69" d="M13.098 159.633 0 138.789l30.969 8.402Zm0 0"/><path fill="#94dfcb" d="m13.379 233.023-13.371-4.77 12.758-6.866Zm0 0"/><path fill="#93deca" d="M13.379 233.023-.043 246.375l.05-18.121Zm0 0"/><path fill="#1e293a" d="M13.379 233.023 39.41 248.68l-39.453-2.305Zm0 0"/><path fill="#95dfcb" d="m53.027 236.273-8.875-23.617 23.985 11.164Zm0 0"/><path fill="#1d283a" d="m53.027 236.273 9.032 20.102-22.649-7.695Zm0 0"/><path fill="#9a232c" d="m17.996 368.688 22.899 15.265-40.895.05Zm0 0"/><path fill="#9a252e" d="m.008 372.688 17.988-4L0 384.004ZM17.996 368.688l25.586 3.593-2.687 11.672Zm0 0"/><path fill="#982730" d="m43.582 372.281-25.586-3.594 23.516-4.035Zm0 0"/><path fill="#94dfcb" d="M15.41 356.64.008 372.689 0 345.168Zm0 0"/><path fill="#94dfcb" d="m23.66 336.598-8.25 20.043L0 345.168Zm0 0"/><path fill="#94dfcb" d="m15.41 356.64 8.25-20.042 17.852 28.054Zm0 0"/><path fill="#94deca" d="M17.996 368.688 15.41 356.64l26.102 8.011Zm0 0"/><path fill="#94deca" d="m15.41 356.64 2.586 12.048-17.988 4Zm0 0"/><path fill="#7e222d" d="M139.934 357.781 120.75 384l-14.207-27.652Zm0 0"/><path fill="#342737" d="m87.477 345.621 19.066 10.727-21.633 14.48Zm0 0"/><path fill="#93dcc8" d="m87.477 345.621 18.718-7.3.348 18.027Zm0 0"/><path fill="#342636" d="m67.18 355.828 20.297-10.207-2.567 25.207Zm0 0"/><path fill="#78232e" d="m106.195 338.32-5.597-26.898 30.433 20.39Zm0 0"/><path fill="#1c2638" d="m116.414 295.664-15.816 15.758-26.848-42.008ZM100.598 311.422l15.816-15.758 14.617 36.149Zm0 0"/><path fill="#86c7b8" d="m87.477 345.621 13.12-34.2 5.598 26.9Zm0 0"/><path fill="#95decb" d="m318.848 345.86 8.867-18.282 14.625 16.629Zm0 0"/><path fill="#1f2537" d="m374.344 311.328-24.117-7.512 17.058-19.648Zm0 0"/><path fill="#9a222b" d="m327.715 327.578 22.512-23.762-7.887 40.391Zm0 0"/><path fill="#95cfbe" d="m314.98 281.523-6.19 16.172-14.868-12.07Zm0 0"/><path fill="#6d2733" d="m308.79 297.695 6.19-16.172 18.063 15.227Zm0 0"/><path fill="#585e62" d="m295.785 311.41-13.965 17.5-.672-.906Zm0 0"/><path fill="#83bfb2" d="m293.922 285.625-18.195 23.125-16.973-22.098Zm0 0"/><path fill="#8cd2c1" d="m295.785 311.41-20.058-2.66 18.195-23.125Zm0 0"/><path fill="#82aaa0" d="m275.727 308.75 20.058 2.66-14.637 16.594Zm0 0"/><path fill="#669490" d="m250.145 320.64 25.582-11.89 5.421 19.254Zm0 0"/><path fill="#80bbae" d="m275.727 308.75-24-12.14 7.027-9.958Zm0 0"/><path fill="#77afa5" d="m275.727 308.75-25.582 11.89 1.582-24.03Zm0 0"/><path fill="#f04e52" d="m294.477 354.71 24.37-8.85L299.263 384Zm0 0"/><path fill="#9a222b" d="m294.477 354.71-12.657-25.8 20.582 7.57Zm0 0"/><path fill="#9b222b" d="m294.477 354.71-20.235 6.802 7.578-32.602Zm0 0"/><path fill="#9b232b" d="m318.848 345.86-24.371 8.85 7.925-18.23Zm0 0"/><path fill="#2f2f3e" d="m250.145 320.64-7.375 24.102-37.579-19.992Zm0 0"/><path fill="#324853" d="m143.258 171.04-24.25 14.812 1.898-28.364Zm0 0"/><path fill="#202d3d" d="m98.277 175.055 20.73 10.797-16.32 18.55Zm0 0"/><path fill="#243342" d="m98.277 175.055 4.41 29.347-22.12-19.793Zm0 0"/><path fill="#293a48" d="m136.023 204.113 32.528 20.68-38.727 14.871Zm0 0"/><path fill="#1c2638" d="m99.176 242.367 23.457 28.559-48.883-1.512ZM102.688 204.402l-3.512 37.965-17.043-18.523Zm0 0"/><path fill="#1c2738" d="m122.633 270.926-23.457-28.559 30.648-2.703Zm0 0"/><path fill="#1c2638" d="m99.176 242.367 3.511-37.965 27.137 35.262ZM76.52 247.566l-8.383-23.746 13.996.024ZM99.176 242.367l-22.656 5.2 5.613-23.723Zm0 0"/><path fill="#94dfcb" d="m76.52 247.566-23.493-11.293 15.11-12.453Zm0 0"/><path fill="#2e424e" d="m53.027 236.273 23.493 11.293-14.461 8.809Zm0 0"/><path fill="#94dfcb" d="m354.574 255.613-11.32-16.77 6.894-5.292Zm0 0"/><path fill="#95d9c6" d="M343.254 238.844 328.34 227.96l21.808 5.59Zm0 0"/><path fill="#1c2537" d="m343.254 238.844-19.067 12.117 4.153-23Zm0 0"/><path fill="#ef4f53" d="m383.996 162.52-22.027-24.254 22.02-6.375Zm0 0"/><path fill="#96deca" d="m383.988 131.89-22.02 6.376-1.37-35.118Zm0 0"/><path fill="#f04e52" d="m384 89.96-.012 41.93-23.39-28.742ZM306.098 143.063l28.16 6.164-11.414 15.507Zm0 0"/><path fill="#99d9c6" d="m319.969 198.2 6.367 20.917-14.957-2.613Zm0 0"/><path fill="#95dfcb" d="m298.594 203.105 21.375-4.906-8.59 18.305Zm0 0"/><path fill="#a32f36" d="m312.121 178.129 16.504 9.016-8.656 11.054Zm0 0"/><path fill="#9ad6c4" d="m299.645 183.164 12.476-5.035 7.848 20.07Zm0 0"/><path fill="#95dfcb" d="m298.594 203.105 1.05-19.94 20.325 15.034Zm0 0"/><path fill="#95dfcb" d="m299.645 183.164-1.051 19.941-23.524-9.406Zm0 0"/><path fill="#95decb" d="m366.441 245.215-16.293-11.664 21.692-4.89Zm0 0"/><path fill="#95dfcb" d="m354.574 255.613-4.426-22.062 16.293 11.664Zm0 0"/><path fill="#1e2537" d="m371.84 228.66-22.293-10.48 7.457-19.293Zm0 0"/><path fill="#95dfcb" d="m350.148 233.55-.601-15.37 22.293 10.48ZM328.34 227.96l21.207-9.78.601 15.37Zm0 0"/><path fill="#9a242d" d="m326.336 219.117 23.21-.937-21.206 9.78Zm0 0"/><path fill="#f04f52" d="m355.48 168.582 6.489-30.316 22.027 24.254Zm0 0"/><path fill="#95deca" d="m366.441 245.215 17.563.933-14.555 15.813Zm0 0"/><path fill="#9a222b" d="m383.992 350.063-16.32-5.555 16.332-7.711Zm0 0"/><path fill="#f04d51" d="m356.973 360.61 10.699-16.102L384 384Zm0 0"/><path fill="#ef4d51" d="m367.672 344.508 16.32 5.555L384 384Zm0 0"/><path fill="#9a222b" d="m367.672 344.508 6.672-33.18 9.66 25.469ZM350.227 303.816l24.117 7.512-32.004 32.879Zm0 0"/><path fill="#9a222b" d="m374.344 311.328 9.648-5.25.012 30.719Zm0 0"/><path fill="#9c232c" d="m201.363 31.348-17.05 11.84 9.18-17.895Zm0 0"/><path fill="#9b222b" d="m184.313 43.188 17.05-11.84-2.61 21.66Zm0 0"/><path fill="#99222b" d="m184.313 43.188 3.378 17.351-19.379-4.105Zm0 0"/><path fill="#9b222b" d="m187.691 60.54-12.859 7.913-6.52-12.02Zm0 0"/><path fill="#9a222b" d="m187.691 60.54-3.379-17.352 14.442 9.82Zm0 0"/><path fill="#f04f53" d="M203.61 79 187.69 60.54l11.063-7.532Zm0 0"/><path fill="#f04e52" d="m174.832 68.453 12.86-7.914L203.608 79ZM155.656 26.906l-8.949-14.629 46.785 13.016Zm0 0"/><path fill="#f04e52" d="m155.656 26.906-22.226 13.23 13.277-27.859Zm0 0"/><path fill="#f04e52" d="m184.313 43.188-28.657-16.282 37.836-1.613Zm0 0"/><path fill="#9a222b" d="m155.656 26.906 28.656 16.282-16 13.246Zm0 0"/><path fill="#9c222b" d="m56.828 0-8.422 18.82L34.402 0Zm0 0"/><path fill="#f04e52" d="M56.828 0h42.125L79.34 19.664Zm0 0"/><path fill="#f04e52" d="M48.406 18.82 56.828 0 79.34 19.664Zm0 0"/><path fill="#8fd4c3" d="m98.277 175.055-11.761-8.703 16.492-16.504Zm0 0"/><path fill="#98252e" d="m86.516 166.352.046-33.118 16.446 16.614Zm0 0"/><path fill="#5f8c89" d="m86.516 166.352 11.761 8.703-17.71 9.554Zm0 0"/><path fill="#9a222b" d="m63.488 173.188 23.028-6.836-5.95 18.257Zm0 0"/><path fill="#9a242d" d="m86.563 133.234-.047 33.118-20.985-14.985Zm0 0"/><path fill="#9a222b" d="m86.516 166.352-23.028 6.835 2.043-21.82Zm0 0"/><path fill="#95dfcb" d="m247.96 177.41-27.944 8.438 7.672-43.91Zm0 0"/><path fill="#5c8685" d="m226.152 283.508-29.37 7.39 17.847-17.671Zm0 0"/><path fill="#5d8886" d="m239.77 253.215-13.618 30.293-11.523-10.281Zm0 0"/><path fill="#70a49c" d="m196.781 290.898 29.371-7.39 6.059 18.23Zm0 0"/><path fill="#6d9d96" d="m226.152 283.508 13.618-30.293 8.949 34.926Zm0 0"/><path fill="#699c96" d="m232.21 301.738-6.058-18.23 22.567 4.633Zm0 0"/><path fill="#95dfcb" d="m243.16 212.008-23.144-26.16 27.945-8.438Zm0 0"/><path fill="#f04e52" d="m354.672 73.21-38.297 12.638 6.746-26.782Zm0 0"/><path fill="#ee5154" d="m295.422 78.727-2.957-32.59 30.656 12.93ZM316.375 85.848l-20.953-7.121 27.7-19.66Zm0 0"/><path fill="#96deca" d="m275.07 193.7-31.91 18.308 4.8-34.598Zm0 0"/><path fill="#95dfcb" d="m170.39 138.773 19.758 25.399-28.468-8Zm0 0"/><path fill="#95dfcb" d="m151.813 138.105 18.578.668-8.711 17.399Zm0 0"/><path fill="#97dbc8" d="m151.813 138.105-13.168-11.128 19.753-8.301Zm0 0"/><path fill="#95dfcb" d="m170.39 138.773-18.577-.668 6.585-19.43Zm0 0"/><path fill="#96d9c6" d="m185.055 114.238-9.715 9.77-3.934-10.594Zm0 0"/><path fill="#95d3c1" d="m171.406 113.414 3.934 10.594-16.942-5.332Zm0 0"/><path fill="#97dbc8" d="m175.34 124.008 9.715-9.77 6.918 19.742Zm0 0"/><path fill="#95dfcb" d="m175.34 124.008-4.95 14.765-11.992-20.097ZM175.34 124.008l16.633 9.972-21.582 4.793Zm0 0"/><path fill="#f04e52" d="M265.473 13.3 258.093 0l48.372-.004Zm0 0"/><path fill="#f04e52" d="m258.094 0 7.379 13.3-16.57-.128Zm0 0"/><path fill="#95deca" d="m265.473 13.3-5.137 14.794-11.434-14.922Zm0 0"/><path fill="#98dbc7" d="m265.473 13.3 23.722 11.684-28.86 3.11Zm0 0"/><path fill="#f04e52" d="m301.582 14.707-36.11-1.406L306.466-.004Zm0 0"/><path fill="#f04e52" d="m265.473 13.3 36.109 1.407-12.387 10.277Zm0 0"/><path fill="#ec5457" d="m275 126.203 31.098 16.86-35.153-7.055Zm0 0"/><path fill="#ef4f53" d="m280.086 105.133 26.012 37.93L275 126.203Zm0 0"/><path fill="#95deca" d="m227.688 141.938 16.617-18.864 9.91 16.95Zm0 0"/><path fill="#9b222b" d="m223.55 99.566-5.89 9.739-10.8-7.328Zm0 0"/><path fill="#9b222b" d="m206.86 101.977 10.8 7.328-12.008 3Zm0 0"/><path fill="#9a222b" d="m217.66 109.305-.14 6.304-11.868-3.304Zm0 0"/><path fill="#9b232c" d="M34.402 0 24.81 20.941 0 .004Zm0 0"/><path fill="#9a222b" d="M-.012 51.313 0 .002l24.809 20.938Zm0 0"/><path fill="#9a232c" d="m-.012 51.313 36.52-7.333-5.64 8.497Zm0 0"/><path fill="#9a222b" d="m36.508 43.98-36.52 7.333 24.82-30.372Zm0 0"/><path fill="#93deca" d="m30.207 82.867-12.918-3.492 5.617-17.043Zm0 0"/><path fill="#94dfcb" d="M22.906 62.332 17.29 79.375-.016 74.32Zm0 0"/><path fill="#94dbc8" d="m14.941 91.621 2.348-12.246 12.918 3.492Zm0 0"/><path fill="#94ddc9" d="M17.29 79.375 14.94 91.621l-14.957-17.3Zm0 0"/><path fill="#f04e52" d="M384 0v55.695l-34.738-9.93Zm0 0"/><path fill="#f04e52" d="m384 0-34.738 45.766-27.446-28.157Zm0 0"/><path fill="#38515a" d="m163.707 265.285-33.883-25.62 37.13.933Zm0 0"/><path fill="#324752" d="m163.707 265.285 3.246-24.687 31.723 12.925Zm0 0"/><path fill="#426167" d="m163.707 265.285 34.969-11.762-1.895 37.375Zm0 0"/><path fill="#752631" d="m155.773 383.98-15.84-26.199 15.536-13.906Zm0 0"/><path fill="#79232e" d="m155.469 343.875-15.535 13.906-8.903-25.969Zm0 0"/><path fill="#293947" d="m160.918 301.895 2.789-36.61 33.074 25.613Zm0 0"/><path fill="#94dfcb" d="m29.852 231.363 23.175 4.91L39.41 248.68Zm0 0"/><path fill="#94dfcb" d="m53.027 236.273-23.175-4.91 14.3-18.707Zm0 0"/><path fill="#93232d" d="m44.152 212.656-14.3 18.707-17.086-9.976Zm0 0"/><path fill="#94dfcb" d="m29.852 231.363-16.473 1.66-.613-11.636Zm0 0"/><path fill="#1c2738" d="m13.379 233.023 16.473-1.66 9.558 17.317Zm0 0"/><path fill="#79b6aa" d="m52.883 333.281-20.078-28.406 40.945-35.46Zm0 0"/><path fill="#82c2b4" d="m100.598 311.422-47.715 21.86 20.867-63.868Zm0 0"/><path fill="#84c6b7" d="m52.883 333.281 47.715-21.86-13.121 34.2Zm0 0"/><path fill="#94dfcb" d="m52.883 333.281 34.594 12.34-20.297 10.207Zm0 0"/><path fill="#93d5c3" d="m283.223 256.113 10.699 29.512-35.168 1.027Zm0 0"/><path fill="#96ddca" d="m293.922 285.625 13.223-17.914 7.835 13.812Zm0 0"/><path fill="#96dbc8" d="m314.98 281.523-7.835-13.812 12.93 6.066Zm0 0"/><path fill="#95d8c6" d="m307.145 267.71 17.043-16.75-4.114 22.817Zm0 0"/><path fill="#95dfcb" d="m324.188 250.96-17.043 16.75-4.332-20.503ZM278.973 227.852l35.218 1.808-11.378 17.547Zm0 0"/><path fill="#95dfcb" d="m314.191 229.66-35.218-1.808 32.406-11.348Zm0 0"/><path fill="#92cebd" d="m308.79 297.695-13.005 13.715-1.863-25.785Zm0 0"/><path fill="#9a242c" d="m327.715 327.578-9.54-13.406 32.052-10.356Zm0 0"/><path fill="#9a252d" d="m350.227 303.816-32.051 10.356 14.867-17.422Zm0 0"/><path fill="#95dbc8" d="m318.176 314.172-9.387-16.477 24.254-.945Zm0 0"/><path fill="#f04e52" d="M299.262 384h-40.36l15.34-22.488Zm0 0"/><path fill="#ef4f53" d="M244.688 352.668 258.902 384l-53.328-.008Zm0 0"/><path fill="#f04e52" d="m258.902 384-14.214-31.332 29.554 8.844ZM294.477 354.71l4.785 29.29-25.02-22.488Zm0 0"/><path fill="#392535" d="m242.77 344.742-36.997 5.88-.582-25.872Zm0 0"/><path fill="#8c222c" d="m205.773 350.621 36.997-5.879 1.917 7.926Zm0 0"/><path fill="#84222d" d="m205.574 383.992.2-33.37 38.914 2.046Zm0 0"/><path fill="#6ba099" d="m143.258 171.04-7.235 33.073-17.015-18.261Zm0 0"/><path fill="#233141" d="m119.008 185.852 17.015 18.261-33.335.29Zm0 0"/><path fill="#94dfcb" d="m190.148 164.172-23.726 19.691-4.742-27.691Zm0 0"/><path fill="#92dcc9" d="m76.52 247.566-2.77 21.848-11.691-13.039Zm0 0"/><path fill="#1c2638" d="m73.75 269.414 2.77-21.848 22.656-5.199Zm0 0"/><path fill="#5d8b88" d="m16.3 274.816 57.45-5.402-40.945 35.461Zm0 0"/><path fill="#1c2638" d="m62.059 256.375 11.691 13.04-57.45 5.401Zm0 0"/><path fill="#1c2637" d="m324.188 250.96 17.601 17.759-21.715 5.058Zm0 0"/><path fill="#1c2537" d="m343.254 238.844-1.465 29.875-17.601-17.758Zm0 0"/><path fill="#1c2638" d="m341.79 268.719 1.464-29.875 11.32 16.77Zm0 0"/><path fill="#95dfcb" d="m368.164 192.367 15.832-29.847.008 37.203Zm0 0"/><path fill="#96ddc9" d="m348.367 177.246 19.797 15.121-11.16 6.52Zm0 0"/><path fill="#96ddca" d="m368.164 192.367-12.684-23.785 28.516-6.062Zm0 0"/><path fill="#97dcc8" d="m355.48 168.582 12.684 23.785-19.797-15.12Zm0 0"/><path fill="#95dfcb" d="m361.969 138.266-27.711 10.96 26.34-46.078Zm0 0"/><path fill="#97dcc9" d="m334.258 149.227-17.883-63.38 44.223 17.301Zm0 0"/><path fill="#ef5053" d="m316.375 85.848 17.883 63.379-28.16-6.165Zm0 0"/><path fill="#97dbc8" d="m247.96 177.41 30.204-11.719-3.094 28.008Zm0 0"/><path fill="#95dfcb" d="m278.164 165.691 21.48 17.473L275.07 193.7Zm0 0"/><path fill="#99d9c6" d="m278.164 165.691 21.348-7.816.133 25.29Zm0 0"/><path fill="#a4c7b7" d="m299.512 157.875 12.61 20.254-12.477 5.035Zm0 0"/><path fill="#9b222b" d="m338.762 200.297-18.793-2.098 8.656-11.054Zm0 0"/><path fill="#1d2638" d="m349.547 218.18-10.785-17.883 18.242-1.41Zm0 0"/><path fill="#99232c" d="m319.969 198.2 18.793 2.097-12.426 18.82Zm0 0"/><path fill="#3c2534" d="m338.762 200.297 10.785 17.883-23.211.937Zm0 0"/><path fill="#212637" d="m338.762 200.297 9.605-23.05 8.637 21.64Zm0 0"/><path fill="#9a272f" d="m338.762 200.297-10.137-13.152 19.742-9.899Zm0 0"/><path fill="#1c2638" d="m341.79 268.719 12.784-13.106 5.922 12.575Zm0 0"/><path fill="#95dfcb" d="m360.496 268.188-5.922-12.575 14.875 6.348ZM354.574 255.613l11.867-10.398 3.008 16.746Zm0 0"/><path fill="#f04d51" d="m342.34 344.207 25.332.3-10.7 16.102Zm0 0"/><path fill="#9a222b" d="m374.344 311.328-6.672 33.18-25.332-.301Zm0 0"/><path fill="#9b222b" d="m143.883 61.504 11.773-34.598 12.656 29.528Zm0 0"/><path fill="#9b222b" d="m155.656 26.906-11.773 34.598-10.453-21.367Zm0 0"/><path fill="#f04e52" d="m133.43 40.137 10.453 21.367-36.613-2.606Zm0 0"/><path fill="#6b9e97" d="m205.71 223.09 34.06 30.125-41.094.308Zm0 0"/><path fill="#95dfcb" d="m239.77 253.215-34.06-30.125 37.45-11.082Zm0 0"/><path fill="#95dfcb" d="m205.71 223.09 14.306-37.242 23.144 26.16ZM170.39 138.773l21.583-4.793-1.825 30.192ZM191.973 133.98l35.714 7.958-37.539 22.234Zm0 0"/><path fill="#95deca" d="m217.52 115.61 10.167 26.328-16.824-20.438Zm0 0"/><path fill="#99d9c6" d="m254.215 140.023-6.254 37.387-20.274-35.472Zm0 0"/><path fill="#95dfcb" d="m247.96 177.41 6.255-37.387 23.95 25.668Zm0 0"/><path fill="#9b222b" d="M48.406 18.82 36.508 43.98l-11.7-23.039Zm0 0"/><path fill="#88242e" d="m205.773 350.621-.875 33.41-39.703-11.59Zm0 0"/><path fill="#9a343a" d="m204.898 384.031.875-33.41-.199 33.371Zm0 0"/><path fill="#233140" d="m196.781 290.898 8.41 33.852-44.273-22.855Zm0 0"/><path fill="#1c2537" d="m205.191 324.75-49.722 19.125 5.449-41.98ZM155.469 343.875l49.722-19.125.582 25.871Zm0 0"/><path fill="#71232f" d="m155.469 343.875 9.726 28.566-9.422 11.54Zm0 0"/><path fill="#6e232f" d="m155.469 343.875 50.304 6.746-40.578 21.82Zm0 0"/><path fill="#8fd0bf" d="m239.77 253.215 43.453 2.898-24.47 30.54Zm0 0"/><path fill="#93d6c4" d="m248.719 288.14-8.95-34.925 18.985 33.437Zm0 0"/><path fill="#99484b" d="m304.453 319.695-22.633 9.215 13.965-17.5Zm0 0"/><path fill="#996665" d="m308.79 297.695-4.337 22-8.668-8.285Zm0 0"/><path fill="#96b8aa" d="m318.176 314.172-13.723 5.523 4.336-22Zm0 0"/><path fill="#95ccbb" d="m281.82 328.91 22.633-9.215-2.05 16.785Zm0 0"/><path fill="#87cbbb" d="m166.422 183.863-23.164-12.824 18.422-14.867Zm0 0"/><path fill="#94deca" d="m143.258 171.04.476-21.938 17.946 7.07Zm0 0"/><path fill="#80c0b2" d="m143.734 149.102-.476 21.937-22.352-13.55Zm0 0"/><path fill="#466469" d="m136.023 204.113 7.235-33.074 23.164 12.824Zm0 0"/><path fill="#95dfcb" d="m299.512 157.875-21.348 7.816-7.219-29.683Zm0 0"/><path fill="#ee5154" d="m306.098 143.063-6.586 14.812-28.567-21.867Zm0 0"/><path fill="#f04e52" d="m299.512 157.875 6.586-14.812 16.746 21.671ZM299.512 157.875l23.332 6.86-10.723 13.394Zm0 0"/><path fill="#ef4f53" d="m328.625 187.145-5.781-22.41 25.523 12.511Zm0 0"/><path fill="#ef4e52" d="m312.121 178.129 10.723-13.395 5.781 22.41Zm0 0"/><path fill="#f04e52" d="m322.844 164.734 11.414-15.507 14.11 28.02Zm0 0"/><path fill="#ef5054" d="m334.258 149.227 21.222 19.355-7.113 8.664Zm0 0"/><path fill="#f04e52" d="m334.258 149.227 27.71-10.961-6.488 30.316ZM335.992 384l6.348-39.793 14.633 16.402Zm0 0"/><path fill="#9b242c" d="m143.883 61.504 14.86 13.39-15.43 10.032Zm0 0"/><path fill="#9b232b" d="m158.742 74.895-14.86-13.391 24.43-5.07Zm0 0"/><path fill="#8fd8c5" d="m205.71 223.09-18.741-22.137 33.047-15.105Zm0 0"/><path fill="#9b222b" d="m228.73 114.973-11.07-5.668 5.89-9.739Zm0 0"/><path fill="#9a222b" d="m228.73 114.973-11.21.636.14-6.304Zm0 0"/><path fill="#ef4f53" d="m228.73 114.973-5.18-15.407 25.626 3.664ZM244.305 123.074l-15.575-8.101 20.446-11.743Zm0 0"/><path fill="#96ddc9" d="m227.688 141.938 1.042-26.965 15.575 8.101Zm0 0"/><path fill="#95dfcb" d="m217.52 115.61 11.21-.637-1.042 26.965ZM278.973 227.852l-35.813-15.844 31.91-18.309Zm0 0"/><path fill="#7eb7ab" d="m283.223 256.113-43.453-2.898 39.203-25.363Zm0 0"/><path fill="#95deca" d="m312.742 326.906 5.434-12.734 9.539 13.406Zm0 0"/><path fill="#96b8aa" d="m312.742 326.906-8.289-7.21 13.723-5.524Zm0 0"/><path fill="#95deca" d="m312.742 326.906 14.973.672-8.867 18.281Zm0 0"/><path fill="#95c7b7" d="m312.742 326.906 6.106 18.953-16.446-9.379Zm0 0"/><path fill="#95cdbc" d="m304.453 319.695 8.29 7.211-10.34 9.574Zm0 0"/><path fill="#95dfcb" d="m278.973 227.852-39.203 25.363 3.39-41.207ZM307.145 267.71l-23.922-11.597 19.59-8.906Zm0 0"/><path fill="#95dfcb" d="m283.223 256.113-4.25-28.261 23.84 19.355ZM283.223 256.113l23.922 11.598-13.223 17.914Zm0 0"/></svg>