<svg xmlns="http://www.w3.org/2000/svg" width="512" height="512" viewBox="0 0 384 384"><path fill="#f0ea8a" d="m23.191 328.809 18.473-21.18 4.57 26.137Zm0 0"/><path fill="#f1eb8a" d="m40.723 364.648-17.532-35.84 23.043 4.958Zm0 0"/><path fill="#bebd7f" d="m306.512 383.984-26.594.008 20.89-15.73Zm0 0"/><path fill="#f1eb8a" d="m153.313 77.41.996 18.05-28.016 7.49Zm0 0"/><path fill="#f1ea8a" d="m153.313 77.41 12.554 13.012-11.558 5.039Zm0 0"/><path fill="#2e222f" d="m108.316 117.531-3.285 26.969-13.726-4.398Zm0 0"/><path fill="#302430" d="m86.14 113.422-9.398-19.84 9.113-5.703Zm0 0"/><path fill="#30242f" d="m207.203 52.559 20.668-18.176 3.598 17.949Zm0 0"/><path fill="#322631" d="m194.742 80.887 6.192 13.23-11.95-5.156Zm0 0"/><path fill="#2e222f" d="m200.934 94.117-6.192-13.23 31.516-4.692Zm0 0"/><path fill="#f1eb8a" d="m245.758 137.188 6.437-13.43 26.918 14.207ZM254.25 174.16l-8.492-36.972 33.355.777Zm0 0"/><path fill="#963e41" d="m254.816 62.23 15.75-13.64 11.414 5.672Zm0 0"/><path fill="#f0ea8a" d="m270.566 48.59 16.57-10.695-5.156 16.367Zm0 0"/><path fill="#993d41" d="M289.117 103.727 266.02 82.102l42.82-8.672Zm0 0"/><path fill="#f1eb8a" d="m266.02 82.102 23.097 21.625-21.234-14.016Zm0 0"/><path fill="#993d41" d="M266.02 82.102 254.816 62.23l27.164-7.968Zm0 0"/><path fill="#2e222f" d="m143.777 61.043-42.515 10.754 17.37-18.738Zm0 0"/><path fill="#f1eb8a" d="m383.996 111.43-29.719-5.883L384 92.148Zm0 0"/><path fill="#2e222f" d="m23.922 279.805-23.938-3.328 17.805-13.372Zm0 0"/><path fill="#ece688" d="m23.922 279.805-6.133-16.7 23.84-15.628Zm0 0"/><path fill="#d6cf7d" d="M30.602 192.746.016 225.168l-.02-33.86Zm0 0"/><path fill="#665964" d="m86.516 372.555 1.867 11.453-29.692-.016Zm0 0"/><path fill="#2e222f" d="m40.723 364.648 26.773-9.304-2.742 14.75Zm0 0"/><path fill="#f1eb8a" d="m67.496 355.344-26.773 9.304 5.511-30.882ZM-.004 317.742l23.195 11.067L.011 372.91Zm0 0"/><path fill="#eee889" d="m23.191 328.809-5.273-36.59 23.746 15.41Zm0 0"/><path fill="#9b9362" d="m23.922 279.805-6.004 12.414-17.934-15.742Zm0 0"/><path fill="#2e222f" d="m17.918 292.219 6.004-12.414 17.742 27.824ZM277.91 345.754l-25.883 10.191 21.07-21.199Zm0 0"/><path fill="#f1eb8a" d="m166.621 235.578 1.996-50.7 42.649 8.099Zm0 0"/><path fill="#cac378" d="m101.98 203.332-30.578 6.438 9.442-27.106Zm0 0"/><path fill="#2e222f" d="m344.04 261.672-10.099 35.973-16.847-20.106ZM383.996 313.848l-11.414-2.637 11.504-31.899ZM165.867 90.422l5.41 22.535-16.968-17.496ZM171.277 112.957l-8.629 4.395-8.34-21.891Zm0 0"/><path fill="#f1eb8a" d="m160.395 140.063-33.106 17.859 15.977-22.754Zm0 0"/><path fill="#efe989" d="m57.203 163.168 8.7 11.695-15.68 21.25Zm0 0"/><path fill="#2f232f" d="m71.402 209.77-5.5-34.907 14.942 7.801Zm0 0"/><path fill="#2e222f" d="m86.512 134.043 4.793 6.059-19.38 9.777Zm0 0"/><path fill="#f1eb8a" d="m86.14 113.422-17.175 2.262 7.777-22.102ZM64.648 141.14l21.864-7.097-14.586 15.836Zm0 0"/><path fill="#e7e186" d="m46.547 126.836 18.101 14.305-27.941 10.382Zm0 0"/><path fill="#d9d27f" d="m68.965 115.684-4.317 25.457-18.101-14.305Zm0 0"/><path fill="#f1eb8a" d="m64.648 141.14 4.317-25.456 17.547 18.359Zm0 0"/><path fill="#e9e286" d="m64.648 141.14-7.445 22.028-20.496-11.645Zm0 0"/><path fill="#f1eb8a" d="m57.203 163.168 7.445-22.027 7.278 8.738Zm0 0"/><path fill="#8e855c" d="m111.258 92.922 15.035 10.027-17.977 14.582Zm0 0"/><path fill="#312530" d="m111.258 92.922-25.117 20.5-.286-25.543Zm0 0"/><path fill="#948b5e" d="m86.14 113.422 25.118-20.5-2.942 24.61Zm0 0"/><path fill="#2e222f" d="m148.367 121.586-22.074-18.637 28.016-7.488Zm0 0"/><path fill="#2e222f" d="m162.648 117.352-14.28 4.234 5.94-26.125Zm0 0"/><path fill="#f1eb8a" d="m268.563 231.004-57.297-38.027 42.984-18.817Zm0 0"/><path fill="#2e222f" d="M240.043 23.563 222.047-.005l29.348 10.176ZM222.047-.004l17.996 23.567-12.172 10.82ZM226.258 76.195 207.203 52.56l24.266-.227Zm0 0"/><path fill="#f1eb8a" d="m207.203 52.559-2.691-20.946 23.36 2.77Zm0 0"/><path fill="#2e222f" d="m169.504-.023 23.969 28.375-21.649 7.515ZM222.047-.004h29.363l-.015 10.176ZM222.047-.004l-17.25 19.621-35.293-19.64ZM204.797 19.617l17.25-19.62 5.824 34.386Zm0 0"/><path fill="#2e222f" d="m204.797 19.617-11.324 8.735-23.97-28.375Zm0 0"/><path fill="#2e222f" d="m204.512 31.613.285-11.996 23.074 14.766Zm0 0"/><path fill="#2f232f" d="m204.797 19.617-.285 11.996-11.04-3.261Zm0 0"/><path fill="#2e222f" d="m309.676 21.973 15.25-21.98 35.05 32.562Zm0 0"/><path fill="#2f232f" d="m252.195 123.758 29.504-13.672-2.586 27.879Zm0 0"/><path fill="#f1eb8a" d="m289.117 103.727-7.418 6.359-13.816-20.375Zm0 0"/><path fill="#2e222f" d="m281.7 110.086-29.505 13.672 15.688-34.047ZM252.195 123.758l-23.101-17.215 38.789-16.832Zm0 0"/><path fill="#973d41" d="m229.094 106.543 36.926-24.441 1.863 7.609Zm0 0"/><path fill="#993d41" d="m266.02 82.102-36.926 24.441-2.836-30.348Zm0 0"/><path fill="#2e222f" d="m270.566 48.59-15.75 13.64-11.683-22.078Zm0 0"/><path fill="#f0ea8a" d="m260.102 27.473 10.464 21.117-27.433-8.438Zm0 0"/><path fill="#f1eb8a" d="m270.566 48.59-10.464-21.117 27.035 10.422Zm0 0"/><path fill="#625847" d="m18.05 54.586 24.825-11.223-1.543 10.899Zm0 0"/><path fill="#2e222f" d="m-.016 140.457 28.844-7.785 7.879 18.851Zm0 0"/><path fill="#2f232f" d="m101.262 71.797-14.082-21.8 31.453 3.062Zm0 0"/><path fill="#924041" d="m87.18 49.996 19.644-23.203 11.809 26.266Zm0 0"/><path fill="#993d41" d="M106.824 26.793 87.18 49.996l-2.227-23.36Zm0 0"/><path fill="#2f232f" d="m84.953 26.637 2.227 23.36-16.82-7.118Zm0 0"/><path fill="#887f59" d="M87.18 49.996 71.75 60.324 70.36 42.88Zm0 0"/><path fill="#c3bb75" d="m87.18 49.996 3.043 23.25L71.75 60.324Zm0 0"/><path fill="#ded882" d="m90.223 73.246-3.043-23.25 14.082 21.8Zm0 0"/><path fill="#2f242f" d="M68.965 115.684 54.89 96.766l21.851-3.184Zm0 0"/><path fill="#efe989" d="m54.89 96.766 14.075 18.918-22.418 11.152Zm0 0"/><path fill="#f0ea8a" d="m44.3 71.121 5.66-7.21 21.79-3.587Zm0 0"/><path fill="#372b33" d="M71.75 60.324 49.96 63.91l20.4-21.031Zm0 0"/><path fill="#3a2f35" d="m49.96 63.91-8.628-9.648 29.027-11.383Zm0 0"/><path fill="#3e3236" d="m18.68 100.023 10.148 32.649-28.844 7.785Zm0 0"/><path fill="#efe98a" d="m49.96 63.91-5.66 7.211-2.968-16.86Zm0 0"/><path fill="#ebe588" d="M44.3 71.121 18.05 54.586l23.282-.324Zm0 0"/><path fill="#2f232f" d="m44.3 71.121-16.413 7.121-9.836-23.656Zm0 0"/><path fill="#f1eb8a" d="M362.938 51.871 384 45.121v23.29Zm0 0"/><path fill="#2e222f" d="m309.676 21.973 50.3 10.582-8.945 11.343Zm0 0"/><path fill="#efe98a" d="m376.71 121.879 7.298-.625.023 6.457Zm0 0"/><path fill="#f1eb8a" d="m354.277 105.547-3.152-27.621L384 92.148Zm0 0"/><path fill="#f1eb8a" d="M351.125 77.926 384 68.41v23.738ZM351.125 77.926l3.152 27.62-20.035-14.694Zm0 0"/><path fill="#b2aa6d" d="m80.27 274.445 37.804-33.222 5.871 45.492Zm0 0"/><path fill="#e8e286" d="m123.945 286.715 30.934 29.922-52.809-5.508Zm0 0"/><path fill="#5f5446" d="m71.402 209.77 15.832 13.25-18.277.261Zm0 0"/><path fill="#b7af6f" d="m87.234 223.02 14.746-19.688 16.094 37.89Zm0 0"/><path fill="#aea66b" d="m87.234 223.02-15.832-13.25 30.578-6.438Zm0 0"/><path fill="#ece688" d="m154.879 316.637-4.941 26.62-47.868-32.128Zm0 0"/><path fill="#e5df85" d="m238.195 279.523-33.007 42.262-20.63-41.57Zm0 0"/><path fill="#2e222f" d="m-.016 276.477.012-14.301 17.793.93Zm0 0"/><path fill="#e5df85" d="m-.02 170.871 31.918-2.73-1.296 24.605Zm0 0"/><path fill="#f0ea8a" d="m30.602 192.746 1.296-24.605 18.325 27.972Zm0 0"/><path fill="#f1eb8a" d="m31.898 168.14 25.305-4.972-6.98 32.945Zm0 0"/><path fill="#2f232f" d="m57.203 163.168-25.305 4.973 4.809-16.618Zm0 0"/><path fill="#eae487" d="m43.21 212.02-12.608-19.274 19.62 3.367Zm0 0"/><path fill="#bdb672" d="M43.21 212.02.017 225.168l30.586-32.422Zm0 0"/><path fill="#2e222f" d="m106.75 350.754-20.234 21.8-4.301-10.761Zm0 0"/><path fill="#2e222f" d="m64.754 370.094 2.742-14.75 14.719 6.449Zm0 0"/><path fill="#2e222f" d="m86.516 372.555-21.762-2.461 17.46-8.301Zm0 0"/><path fill="#655863" d="m64.754 370.094 21.762 2.46-27.825 11.438Zm0 0"/><path fill="#f0ea8a" d="M17.918 292.219-.004 317.742l-.012-41.265Zm0 0"/><path fill="#f1eb8a" d="m-.004 317.742 17.922-25.523 5.273 36.59Zm0 0"/><path fill="#2e222f" d="m333.941 297.645-27.53 2.808 10.683-22.914Zm0 0"/><path fill="#dad583" d="m320.336 345.617 18.742 24.274-38.27-1.63Zm0 0"/><path fill="#cbc882" d="m339.078 369.89-32.566 14.094-5.703-15.722Zm0 0"/><path fill="#2e222f" d="m277.91 345.754-2.445 16.621-23.438-6.43Zm0 0"/><path fill="#ebe689" d="m275.465 362.375-.367 10.355-23.07-16.785Zm0 0"/><path fill="#f0ea8a" d="m238.195 279.523 4.774 42.875-37.781-.613Zm0 0"/><path fill="#f1eb8a" d="m242.969 322.398 22.242-15.472 7.887 27.82Zm0 0"/><path fill="#f1eb8a" d="m242.969 322.398-4.774-42.875 27.016 27.403Zm0 0"/><path fill="#b7af6f" d="m101.98 203.332 20.985-7.7-4.89 45.59Zm0 0"/><path fill="#e1da83" d="m118.074 241.223 48.547-5.645-42.676 51.137Zm0 0"/><path fill="#2e222f" d="m62.441 256.824-38.52 22.98 17.708-32.327ZM71.402 209.77l-28.191 2.25 7.012-15.907Zm0 0"/><path fill="#efe989" d="m43.21 212.02 28.192-2.25-2.445 13.511Zm0 0"/><path fill="#2f232f" d="m65.902 174.863 5.5 34.907-21.18-13.657Zm0 0"/><path fill="#f1eb8a" d="m326.184 212.652-8.72 19.723-10.417-16.25Zm0 0"/><path fill="#f1eb8a" d="m317.465 232.375 8.719-19.723.812 20.5Zm0 0"/><path fill="#f1eb8a" d="m324.36 249.852-6.895-17.477 9.531.777ZM317.465 232.375l6.894 17.477-25.613-4.153ZM301.094 203.543l-32.531 27.46 21.23-45.093Zm0 0"/><path fill="#f1eb8a" d="m268.563 231.004 32.53-27.461 5.954 12.582ZM369.68 195.48l-8.965 9.497-4.68-9.606Zm0 0"/><path fill="#efe989" d="m360.715 204.977 8.965-9.497 14.304 39.368Zm0 0"/><path fill="#e1db83" d="M383.984 234.848 369.68 195.48l14.304-.296Zm0 0"/><path fill="#f1ea8a" d="m384 252.465.086 26.847-16.063-18.062Zm0 0"/><path fill="#f0ea8a" d="m384 252.465-18.617-9.79 18.601-7.827Zm0 0"/><path fill="#2e222f" d="m383.953 279.383.133-.07-11.504 31.898Zm0 0"/><path fill="#2e222f" d="m368.023 261.25 15.93 18.133-11.371 31.828Zm0 0"/><path fill="#958c5f" d="m384.086 279.313-.133.07-15.93-18.133Zm0 0"/><path fill="#ede788" d="m359.398 266.898 8.625-5.648 4.559 49.96Zm0 0"/><path fill="#2e222f" d="m333.941 297.645 25.457-30.747 13.184 44.313Zm0 0"/><path fill="#2e222f" d="m359.398 266.898-25.457 30.747 10.098-35.973Zm0 0"/><path fill="#f1eb8a" d="m171.297 70.203 23.445 10.684-5.758 8.074Zm0 0"/><path fill="#f1eb8a" d="m165.867 90.422 5.43-20.219 17.687 18.758Zm0 0"/><path fill="#f1eb8a" d="m171.297 70.203-5.43 20.219-12.554-13.012Zm0 0"/><path fill="#30242f" d="m166.05 61.281 5.247 8.922-17.984 7.207Zm0 0"/><path fill="#f1eb8a" d="m202.348 123.672-18.38-10.43 24.321-1.187Zm0 0"/><path fill="#f1eb8a" d="m183.969 113.242 18.379 10.43-8.957 19.836ZM182.371 105.348l-16.504-14.926 23.117-1.461Zm0 0"/><path fill="#2e222f" d="m182.371 105.348-11.094 7.609-5.41-22.535ZM182.371 105.348l1.598 7.894-12.692-.285Zm0 0"/><path fill="#2e222f" d="m183.969 113.242-1.598-7.894 25.918 6.707Zm0 0"/><path fill="#2f232f" d="m200.934 94.117-18.563 11.23 6.613-16.386Zm0 0"/><path fill="#2e222f" d="m182.371 105.348 18.563-11.23 7.355 17.937Zm0 0"/><path fill="#993d41" d="m156.418 14.64-9.98 4.747L133.445 0Zm0 0"/><path fill="#2e222f" d="M156.418 14.64 169.504-.022l2.32 35.89Zm0 0"/><path fill="#993d41" d="M169.504-.023 156.418 14.64 133.445 0ZM146.438 19.387l-13.735 21.148L133.445 0Zm0 0"/><path fill="#993d41" d="m106.824 26.793 25.88 13.742-14.071 12.524Zm0 0"/><path fill="#993d41" d="m132.703 40.535-25.879-13.742L133.445 0ZM86.41 0l20.414 26.793-21.87-.156Zm0 0"/><path fill="#2e222f" d="M67.875 16.168 86.41 0l-1.457 26.637Zm0 0"/><path fill="#993d41" d="M106.824 26.793 86.41 0h47.035Zm0 0"/><path fill="#2e222f" d="m70.36 42.879-2.485-26.711 17.078 10.469ZM70.36 42.879 48.187 15.195l19.687.973Zm0 0"/><path fill="#433839" d="M70.36 42.879 41.331 54.262l1.543-10.899Zm0 0"/><path fill="#dbd480" d="M100.625 176.008 86.77 163.14 105.03 144.5Zm0 0"/><path fill="#d0c97b" d="m122.965 195.633-22.34-19.625 26.664-18.086Zm0 0"/><path fill="#f1eb8a" d="m127.29 157.922 4.538-28.508 11.438 5.754Zm0 0"/><path fill="#2e222f" d="M131.828 129.414 105.031 144.5l3.285-26.969Zm0 0"/><path fill="#ede789" d="m131.828 129.414-4.539 28.508-22.258-13.422Zm0 0"/><path fill="#eae387" d="m127.29 157.922-26.665 18.086 4.406-31.508Zm0 0"/><path fill="#2e222f" d="m65.902 174.863-8.699-11.695 14.723-13.29Zm0 0"/><path fill="#f1eb8a" d="m86.512 134.043-17.547-18.36 17.176-2.261Zm0 0"/><path fill="#2e222f" d="m86.512 134.043 21.804-16.512-17.011 22.57Zm0 0"/><path fill="#968d60" d="m86.512 134.043-.371-20.621 22.175 4.11Zm0 0"/><path fill="#f0e98a" d="m111.258 92.922-9.996-21.125 42.515-10.754Zm0 0"/><path fill="#2f2330" d="m111.258 92.922 32.52-31.879-17.485 41.906Zm0 0"/><path fill="#f1eb8a" d="M111.258 92.922 90.223 73.246l11.039-1.45Zm0 0"/><path fill="#f1eb8a" d="m90.223 73.246 21.035 19.676-25.403-5.043Zm0 0"/><path fill="#322631" d="m126.293 102.95 5.535 26.464-23.512-11.883Zm0 0"/><path fill="#2e222f" d="m148.367 121.586-16.539 7.828-5.535-26.465Zm0 0"/><path fill="#f0ea8a" d="m131.828 129.414 16.54-7.828-5.102 13.582Zm0 0"/><path fill="#dbd480" d="m220.402 234.762 17.793 44.761-53.636.692Zm0 0"/><path fill="#f1eb8a" d="m220.402 234.762-53.78.816 44.644-42.601Zm0 0"/><path fill="#ebe587" d="m220.402 234.762-35.843 45.453-17.938-44.637Zm0 0"/><path fill="#f0ea8a" d="m308.84 73.43 42.285 4.496-16.883 12.926Zm0 0"/><path fill="#993d41" d="m266.02 82.102 34.878-19.598 7.942 10.926Zm0 0"/><path fill="#993d41" d="M300.898 62.504 266.02 82.102l15.96-27.84Zm0 0"/><path fill="#9a4042" d="m287.137 37.895 13.574 13.761-18.73 2.606Zm0 0"/><path fill="#993d41" d="m300.71 51.656.188 10.848-18.918-8.242Zm0 0"/><path fill="#e4dd84" d="m300.71 51.656-13.573-13.761 18.34-8.043Zm0 0"/><path fill="#f1eb8a" d="m202.348 123.672 5.941-11.617 2.715 14.851ZM224.27 146.64l-13.004 46.337-17.875-49.47Zm0 0"/><path fill="#92895e" d="m240.043 23.563 20.059 3.91-16.97 12.68Zm0 0"/><path fill="#bbb471" d="m240.043 23.563 3.09 16.59-15.262-5.77Zm0 0"/><path fill="#302430" d="m227.871 34.383 15.262 5.77-11.664 12.179Zm0 0"/><path fill="#2e222f" d="m243.133 40.152 11.683 22.078-23.347-9.898Zm0 0"/><path fill="#2f232f" d="m226.258 76.195-31.516 4.692 12.461-28.328Zm0 0"/><path fill="#993e41" d="m254.816 62.23 11.204 19.872-39.762-5.907Zm0 0"/><path fill="#2e222f" d="m254.816 62.23-28.558 13.965 5.21-23.863Zm0 0"/><path fill="#877e59" d="m260.102 27.473 13.02-10.309 14.015 20.73Zm0 0"/><path fill="#f1eb8a" d="m287.137 37.895-14.016-20.73 32.356 12.687Zm0 0"/><path fill="#993d41" d="m273.121 17.164 36.555 4.809-4.2 7.879Zm0 0"/><path fill="#2e222f" d="m225.969 116.281 3.125-9.738 23.101 17.215Zm0 0"/><path fill="#f1eb8a" d="m225.969 116.281 19.789 20.906-21.488 9.454Zm0 0"/><path fill="#f1eb8a" d="m225.969 116.281 26.226 7.477-6.437 13.43Zm0 0"/><path fill="#2e222f" d="m229.094 106.543-14.196-7.41 11.36-22.938Zm0 0"/><path fill="#2e222f" d="m214.898 99.133-13.964-5.016 25.324-17.922Zm0 0"/><path fill="#4e433e" d="M12.102 67.04-.012 79.866l.02-26.031Zm0 0"/><path fill="#302430" d="m18.05 54.586-5.948 12.453L.008 53.836Zm0 0"/><path fill="#9c9462" d="m54.89 96.766-8.343 30.07-27.867-26.813Zm0 0"/><path fill="#827956" d="m18.68 100.023 27.867 26.813-17.719 5.836Zm0 0"/><path fill="#645a48" d="m28.828 132.672 17.719-5.836-9.84 24.687Zm0 0"/><path fill="#2f232f" d="m54.89 96.766 16.36-16.45 5.492 13.266Zm0 0"/><path fill="#302430" d="m71.25 80.316-16.36 16.45L44.3 71.12Zm0 0"/><path fill="#342932" d="M76.742 93.582 71.25 80.316l14.605 7.563Zm0 0"/><path fill="#f1eb8a" d="M71.25 80.316 44.3 71.121l27.45-10.797Zm0 0"/><path fill="#efe989" d="m71.25 80.316 18.973-7.07-4.368 14.633Zm0 0"/><path fill="#f1eb8a" d="m90.223 73.246-18.973 7.07.5-19.992Zm0 0"/><path fill="#473b3a" d="m36.36 85.594 18.53 11.172-36.21 3.257Zm0 0"/><path fill="#302430" d="M54.89 96.766 36.36 85.594 44.3 71.12Zm0 0"/><path fill="#6b614b" d="m27.887 78.242 8.472 7.352-17.68 14.43Zm0 0"/><path fill="#2e222f" d="m44.3 71.121-7.94 14.473-8.473-7.352Zm0 0"/><path fill="#999061" d="m-.012 79.867 18.692 20.156-18.696 40.434Zm0 0"/><path fill="#2e222f" d="m300.71 51.656 37.603-5.668 1.578 13.196Zm0 0"/><path fill="#f1eb8a" d="m338.313 45.988-37.602 5.668 4.766-21.804Zm0 0"/><path fill="#2e222f" d="m309.676 21.973 28.637 24.015-32.836-16.136ZM339.89 59.184l-1.577-13.196 12.718-2.09Zm0 0"/><path fill="#f1eb8a" d="m338.313 45.988-28.637-24.015 41.355 21.925ZM308.79 127.07l25.472 19.246-27.223 21.551Zm0 0"/><path fill="#993d41" d="m308.79 127.07-19.673-23.343L308.84 73.43Zm0 0"/><path fill="#f1eb8a" d="M362.938 51.871 384 68.411l-32.875 9.515Zm0 0"/><path fill="#2e222f" d="m362.938 51.871-23.047 7.313 11.14-15.286Zm0 0"/><path fill="#d2cb7c" d="m184.559 280.215-29.68 36.422-30.934-29.922Zm0 0"/><path fill="#cbc479" d="m166.621 235.578 17.938 44.637-60.614 6.5Zm0 0"/><path fill="#8b8771" d="m180.215 376.688-.035 7.316-24.078-.04Zm0 0"/><path fill="#8e8c72" d="m159.504 371.82 20.71 4.868-24.112 7.277Zm0 0"/><path fill="#b9b77e" d="m180.18 384.004.035-7.317 23.742 7.32Zm0 0"/><path fill="#f1eb8a" d="m149.938 343.258 4.94-26.621 28.395 30.574Zm0 0"/><path fill="#eee889" d="m154.879 316.637 50.309 5.148-21.915 25.426Zm0 0"/><path fill="#f1eb8a" d="M-.004 191.309-.02 170.87l30.622 21.875Zm0 0"/><path fill="#2e222f" d="M31.898 168.14-.016 140.458l36.723 11.066Zm0 0"/><path fill="#2e222f" d="m-.016 140.457 31.914 27.684-31.918 2.73ZM-.004 243.621l17.793 19.484-17.793-.93Zm0 0"/><path fill="#efe889" d="m52.5 236.445-9.29-24.425 25.747 11.261Zm0 0"/><path fill="#2e222f" d="m52.5 236.445 9.941 20.38-20.812-9.348Zm0 0"/><path fill="#322632" d="m58.691 383.992-17.968-19.344 24.03 5.446Zm0 0"/><path fill="#40343f" d="m40.723 364.648 17.968 19.344L.004 384Zm0 0"/><path fill="#463a41" d="M40.723 364.648.003 384l.009-11.09Zm0 0"/><path fill="#f1eb8a" d="m23.191 328.809 17.532 35.84L.012 372.91Zm0 0"/><path fill="#cbc680" d="m123.34 379.648 32.762 4.317-67.72.043Zm0 0"/><path fill="#d5d183" d="m86.516 372.555 36.824 7.093-34.957 4.36Zm0 0"/><path fill="#2f2430" d="m123.34 379.648-36.824-7.093 20.234-21.801Zm0 0"/><path fill="#2e222f" d="m87.145 345.504 19.605 5.25-24.535 11.039Zm0 0"/><path fill="#2e222f" d="m67.496 355.344 19.649-9.84-4.93 16.289Zm0 0"/><path fill="#e0d982" d="m123.945 286.715-21.875 24.414-21.8-36.684Zm0 0"/><path fill="#d6d07e" d="m87.145 345.504 14.925-34.375 4.68 39.625Zm0 0"/><path fill="#2e222f" d="m347.723 323.21-18.63-1.01 4.848-24.555Zm0 0"/><path fill="#e3dd84" d="m347.723 323.21-13.782-25.565 38.641 13.566Zm0 0"/><path fill="#2e222f" d="m347.723 323.21 10.195 19.86-37.582 2.547ZM329.094 322.2l18.629 1.01-27.387 22.407Zm0 0"/><path fill="#f1eb8a" d="m279.918 278.836 26.492 21.617-12.922 16.031Zm0 0"/><path fill="#2e222f" d="m277.91 345.754-4.812-11.008 16.797-3.93Zm0 0"/><path fill="#f1eb8a" d="m265.21 306.926 28.278 9.558-20.39 18.262ZM293.488 316.484l-28.277-9.558 14.707-28.09Zm0 0"/><path fill="#2e222f" d="m292.203 356.36-14.293-10.606 11.985-14.938Zm0 0"/><path fill="#2e222f" d="m292.203 356.36-16.738 6.015 2.445-16.621ZM320.336 345.617l-28.133 10.742-2.308-25.543Zm0 0"/><path fill="#e9e388" d="m292.203 356.36 28.133-10.743-19.527 22.645Zm0 0"/><path fill="#f1eb8a" d="m243.055 344.41-35.89 5.414-1.977-28.039Zm0 0"/><path fill="#f1eb8a" d="m242.969 322.398.086 22.012-37.868-22.625Zm0 0"/><path fill="#efe989" d="m243.055 344.41-.086-22.012 30.129 12.348Zm0 0"/><path fill="#2f232f" d="m252.027 355.945-8.972-11.535 30.043-9.664Zm0 0"/><path fill="#2e222f" d="m243.809 357.719-.754-13.309 8.972 11.535Zm0 0"/><path fill="#e8e388" d="m275.098 372.73-27.57-8.832 4.5-7.953Zm0 0"/><path fill="#534840" d="m247.527 363.898-3.718-6.18 8.218-1.773Zm0 0"/><path fill="#9e9663" d="m100.625 176.008 22.34 19.625-20.985 7.699Zm0 0"/><path fill="#c4bc75" d="m100.625 176.008 1.355 27.324-21.136-20.668Zm0 0"/><path fill="#dbd580" d="m86.77 163.14 13.855 12.868-19.781 6.656Zm0 0"/><path fill="#dad480" d="m122.965 195.633 43.656 39.945-48.547 5.645Zm0 0"/><path fill="#6a5f4b" d="m87.234 223.02-12.742 23.84-5.535-23.579Zm0 0"/><path fill="#8d845b" d="m80.27 274.445-5.778-27.586 43.582-5.636Zm0 0"/><path fill="#675d49" d="m74.492 246.86 12.742-23.84 30.84 18.203Zm0 0"/><path fill="#f0ea8a" d="M74.492 246.86 52.5 236.444l16.457-13.164Zm0 0"/><path fill="#2e222f" d="m52.5 236.445 21.992 10.414-12.05 9.965Zm0 0"/><path fill="#2f232f" d="m332.828 243.39-5.832-10.238 12.45 2.102Zm0 0"/><path fill="#2e222f" d="m332.828 243.39-8.469 6.462 2.637-16.7ZM384.004 161.5l-17.344-25.629 17.371-8.16Zm0 0"/><path fill="#2f232f" d="m366.66 135.871 10.05-13.992 7.321 5.832Zm0 0"/><path fill="#2e222f" d="m376.71 121.879-10.05 13.992-12.383-30.324Zm0 0"/><path fill="#f1eb8a" d="m383.996 111.43-7.285 10.449-22.434-16.332Zm0 0"/><path fill="#f1eb8a" d="m376.71 121.879 7.286-10.45.012 9.825ZM319.672 196.813l6.512 15.84-19.137 3.472ZM301.094 203.543l18.578-6.73-12.625 19.312Zm0 0"/><path fill="#2e222f" d="m313.746 181.973 13.402 5.332-7.476 9.507Zm0 0"/><path fill="#f1eb8a" d="m307.2 192.04-6.106 11.503-11.301-17.633Zm0 0"/><path fill="#f0ea8a" d="m307.2 192.04 6.546-10.067 5.926 14.84Zm0 0"/><path fill="#f1eb8a" d="m313.746 181.973-6.547 10.066-17.406-6.129ZM301.094 203.543l6.105-11.504 12.473 4.774Zm0 0"/><path fill="#2e222f" d="m354.55 219.117 6.165-14.14 23.27 29.87Zm0 0"/><path fill="#f1eb8a" d="m365.383 242.676-10.832-23.559 29.433 15.73Zm0 0"/><path fill="#f1eb8a" d="m339.445 235.254 15.106-16.137 10.832 23.559Zm0 0"/><path fill="#2e222f" d="m360.715 204.977-21.02 14.707 16.34-24.313Zm0 0"/><path fill="#f0ea8a" d="m339.695 219.684 14.856-.567-15.106 16.137Zm0 0"/><path fill="#2e222f" d="m354.55 219.117-14.855.567 21.02-14.707ZM326.996 233.152l12.7-13.468-.25 15.57Zm0 0"/><path fill="#2e222f" d="m326.184 212.652 13.511 7.032-12.699 13.468Zm0 0"/><path fill="#eee889" d="m354.5 167.605 1.535 27.766-10.7-10.601Zm0 0"/><path fill="#2e222f" d="m354.5 167.605 12.16-31.734 17.344 25.629Zm0 0"/><path fill="#f1eb8a" d="m367.352 253.398 16.648-.933-15.977 8.785Zm0 0"/><path fill="#f1eb8a" d="m384 252.465-16.648.933-1.97-10.722Zm0 0"/><path fill="#dbd682" d="m357.918 343.07-18.84 26.82-18.742-24.273Zm0 0"/><path fill="#655861" d="m370.156 369.215 13.871-18.324-.02 33.105Zm0 0"/><path fill="#ede789" d="m384.027 350.89-13.87 18.325-12.239-26.145Zm0 0"/><path fill="#ccc579" d="m357.918 343.07-10.195-19.86 24.859-12Zm0 0"/><path fill="#988f60" d="m357.918 343.07 26.078-29.222.031 37.043Zm0 0"/><path fill="#9b9362" d="m383.996 313.848-26.078 29.222 14.664-31.86Zm0 0"/><path fill="#665964" d="m347.39 384.004 22.766-14.79 13.852 14.782Zm0 0"/><path fill="#f1eb8a" d="M204.512 31.613 185.328 44.95l8.145-16.597Zm0 0"/><path fill="#2e222f" d="m193.473 28.352-8.145 16.597-13.504-9.082Zm0 0"/><path fill="#f1eb8a" d="m185.328 44.95-11.84 8.187-1.664-17.27ZM185.328 44.95l19.184-13.337 2.691 20.946Zm0 0"/><path fill="#312530" d="m173.488 53.137 9.79 8.308-17.227-.164Zm0 0"/><path fill="#332831" d="m183.277 61.445-11.98 8.758-5.246-8.922Zm0 0"/><path fill="#312530" d="m183.277 61.445 2.051-16.496 21.875 7.61Zm0 0"/><path fill="#2e222f" d="m185.328 44.95-2.05 16.495-9.79-8.308Zm0 0"/><path fill="#f1eb8a" d="m194.742 80.887-11.465-19.442 23.926-8.886ZM171.297 70.203l11.98-8.758 11.465 19.442Zm0 0"/><path fill="#2e222f" d="m153.992 27.11 2.426-12.47 15.406 21.227Zm0 0"/><path fill="#a14d47" d="m156.418 14.64-2.426 12.47-7.554-7.723Zm0 0"/><path fill="#b06c55" d="m153.992 27.11-21.289 13.425 13.734-21.148Zm0 0"/><path fill="#f1eb8a" d="m173.488 53.137-19.496-26.028 17.832 8.758ZM153.992 27.11l19.496 26.027-7.437 8.144Zm0 0"/><path fill="#493e3c" d="m56.324-.008-8.136 15.203L29.43-.012Zm0 0"/><path fill="#2e222f" d="M56.324-.008 86.41 0 67.875 16.168ZM48.188 15.195 56.323-.008l11.551 16.176ZM86.77 163.14l-3.098-1.91 21.36-16.73ZM83.672 161.23l7.633-21.128 13.726 4.398Zm0 0"/><path fill="#2e222f" d="m83.672 161.23 3.098 1.91-5.926 19.524Zm0 0"/><path fill="#2e222f" d="m65.902 174.863 17.77-13.633-2.828 21.434Zm0 0"/><path fill="#2e222f" d="m91.305 140.102-7.633 21.128-11.746-11.351Zm0 0"/><path fill="#2e222f" d="m83.672 161.23-17.77 13.633 6.024-24.984Zm0 0"/><path fill="#f1eb8a" d="m220.402 234.762-9.136-41.785 57.297 38.027Zm0 0"/><path fill="#efe688" d="M351.125 77.926 308.84 73.43l31.05-14.246Zm0 0"/><path fill="#f1ea8a" d="m362.938 51.871-11.813 26.055-11.234-18.742Zm0 0"/><path fill="#993d41" d="m300.898 62.504-.187-10.848 39.18 7.528Zm0 0"/><path fill="#9a3f41" d="m308.84 73.43-7.942-10.926 38.993-3.32Zm0 0"/><path fill="#f1eb8a" d="m289.793 185.91-21.23 45.094-14.313-56.844ZM168.617 184.879l-8.222-44.816 32.996 3.445ZM148.367 121.586l12.028 18.477-17.13-4.895Zm0 0"/><path fill="#f2ec8b" d="m160.395 140.063-12.028-18.477 14.281-4.234Zm0 0"/><path fill="#f1eb8a" d="m183.969 113.242-10.606 9.422-2.086-9.707Zm0 0"/><path fill="#f1eb8a" d="m171.277 112.957 2.086 9.707-10.715-5.312ZM173.363 122.664l10.606-9.422 9.422 30.266Zm0 0"/><path fill="#f2ec8b" d="m160.395 140.063 12.968-17.399 20.028 20.844Zm0 0"/><path fill="#f2ec8b" d="m173.363 122.664-12.968 17.399 2.253-22.711Zm0 0"/><path fill="#f1eb8a" d="m193.39 143.508 17.876 49.469-42.649-8.098Zm0 0"/><path fill="#2e222f" d="m251.395 10.172.015-10.176L279.953 0Zm0 0"/><path fill="#f0e98a" d="m240.043 23.563 11.352-13.391 8.707 17.3Zm0 0"/><path fill="#efe889" d="m251.395 10.172 21.726 6.992-13.02 10.309Zm0 0"/><path fill="#993d41" d="M309.676 21.973 279.953 0l44.973-.008Zm0 0"/><path fill="#993d41" d="M273.121 17.164 279.953 0l29.723 21.973Zm0 0"/><path fill="#2e222f" d="M251.395 10.172 279.953 0l-6.832 17.164ZM281.7 110.086l16.726 21.062-19.313 6.817Zm0 0"/><path fill="#f1eb8a" d="m289.117 103.727 9.309 27.421-16.727-21.062Zm0 0"/><path fill="#f0ea8a" d="m298.426 131.148 10.363-4.078-1.75 40.797Zm0 0"/><path fill="#f1eb8a" d="m308.79 127.07-10.364 4.078-9.309-27.421ZM211.004 126.906l14.965-10.625-1.7 30.36Zm0 0"/><path fill="#2e222f" d="m200.934 94.117 13.964 5.016-6.609 12.922Zm0 0"/><path fill="#f1eb8a" d="m254.25 174.16-29.98-27.52 21.488-9.452Zm0 0"/><path fill="#352932" d="m29.43-.012-7.938 22.649L.004.004Zm0 0"/><path fill="#372b33" d="M21.492 22.637.016 19.03.004.004Zm0 0"/><path fill="#d2cb7c" d="M.008 53.836.016 19.03 18.05 54.586Zm0 0"/><path fill="#e9e387" d="m.016 19.031 21.476 3.606-3.441 31.949Zm0 0"/><path fill="#a39b66" d="m21.492 22.637 21.383 20.726-24.824 11.223Zm0 0"/><path fill="#2e222f" d="M27.887 78.242 12.102 67.04l5.949-12.453Zm0 0"/><path fill="#2e222f" d="m12.102 67.04 15.785 11.202-27.899 1.625ZM27.887 78.242l-9.207 21.781L-.012 79.867ZM362.938 51.871l-2.961-19.316L384 45.12Zm0 0"/><path fill="#2e222f" d="M359.977 32.555 384 0v45.121Zm0 0"/><path fill="#2e222f" d="m384 0-24.023 32.555L324.926-.008ZM359.977 32.555l2.96 19.316-11.906-7.973Zm0 0"/><path fill="#30242f" d="m149.938 343.258-43.188 7.496-4.68-39.625Zm0 0"/><path fill="#ece789" d="m147.79 348.492 8.312 35.473-32.762-4.317Zm0 0"/><path fill="#ebe487" d="m159.504 371.82-11.715-23.328 2.149-5.234Zm0 0"/><path fill="#ede789" d="m156.102 383.965-8.313-35.473 11.715 23.328Zm0 0"/><path fill="#9f9664" d="m106.75 350.754 41.04-2.262-24.45 31.156Zm0 0"/><path fill="#2e222f" d="m149.938 343.258-2.149 5.234-41.039 2.262Zm0 0"/><path fill="#f0ea8a" d="m154.879 316.637 29.68-36.422 20.629 41.57ZM23.895 230.488l28.605 5.957-10.871 11.032Zm0 0"/><path fill="#efe989" d="m52.5 236.445-28.605-5.957L43.21 212.02Zm0 0"/><path fill="#2e222f" d="m17.79 263.105 6.105-32.617 17.734 16.989Zm0 0"/><path fill="#f1eb8a" d="m43.21 212.02-19.315 18.468-23.88-5.32Zm0 0"/><path fill="#f1eb8a" d="M23.895 230.488-.004 243.621l.02-18.453Zm0 0"/><path fill="#2e222f" d="m-.004 243.621 23.899-13.133-6.106 32.617ZM61.281 324.973l-19.617-17.344 38.606-33.184Zm0 0"/><path fill="#2e222f" d="m102.07 311.129-40.789 13.844 18.989-50.528Zm0 0"/><path fill="#2f232f" d="m61.281 324.973 40.79-13.844-14.926 34.375Zm0 0"/><path fill="#f0e98a" d="m41.664 307.629 19.617 17.344-15.047 8.793Zm0 0"/><path fill="#f1eb8a" d="m61.281 324.973 6.215 30.37-21.262-21.577Zm0 0"/><path fill="#f1eb8a" d="m61.281 324.973 25.864 20.53-19.649 9.84ZM279.918 278.836l26.754-6.59-.262 28.207Zm0 0"/><path fill="#f1eb8a" d="m306.41 300.453.262-28.207 10.422 5.293Zm0 0"/><path fill="#eee889" d="m306.672 272.246 17.687-22.394-7.265 27.687Zm0 0"/><path fill="#f1eb8a" d="m324.36 249.852-17.688 22.394-7.926-26.547Zm0 0"/><path fill="#f1eb8a" d="m307.047 216.125 10.418 16.25-18.719 13.324Zm0 0"/><path fill="#2e222f" d="m329.094 322.2-17.18-.24 22.027-24.315Zm0 0"/><path fill="#ece688" d="m311.914 321.96-5.504-21.507 27.531-2.808Zm0 0"/><path fill="#8f9275" d="m279.918 383.992-36.293.012 31.473-11.274Zm0 0"/><path fill="#8f9175" d="m243.625 384.004 3.902-20.106 27.57 8.832Zm0 0"/><path fill="#ebe688" d="m275.098 372.73 17.105-16.37 8.606 11.902Zm0 0"/><path fill="#ece688" d="m292.203 356.36-17.105 16.37.367-10.355Zm0 0"/><path fill="#e3de87" d="m279.918 383.992-4.82-11.262 25.71-4.468Zm0 0"/><path fill="#2e222f" d="m207.164 349.824 35.89-5.414.755 13.309Zm0 0"/><path fill="#645762" d="m220.98 368.32.91 15.676-17.933.012Zm0 0"/><path fill="#827d6e" d="m220.98 368.32 26.547-4.422-3.902 20.106Zm0 0"/><path fill="#938b5f" d="m247.527 363.898-26.547 4.422 22.829-10.601Zm0 0"/><path fill="#6b6467" d="m221.89 383.996-.91-15.676 22.645 15.684Zm0 0"/><path fill="#2e222f" d="m220.98 368.32-13.816-18.496 36.645 7.895ZM41.664 307.629l20.777-50.805 17.829 17.621Zm0 0"/><path fill="#eee889" d="m62.441 256.824 12.051-9.965 5.778 27.586Zm0 0"/><path fill="#2e222f" d="m23.922 279.805 38.52-22.98-20.778 50.804ZM324.36 249.852l19.68 11.82-26.946 15.867Zm0 0"/><path fill="#2e222f" d="m332.828 243.39 11.211 18.282-19.68-11.82Zm0 0"/><path fill="#2e222f" d="m344.04 261.672-11.212-18.281 6.617-8.137Zm0 0"/><path fill="#eee889" d="m383.984 195.184-14.304.296 14.324-33.98Zm0 0"/><path fill="#e8e286" d="m369.68 195.48-15.18-27.875 29.504-6.105Zm0 0"/><path fill="#f1eb8a" d="m354.5 167.605 15.18 27.875-13.645-.109Zm0 0"/><path fill="#2e222f" d="m366.66 135.871-26.765 10.953 14.382-41.277Zm0 0"/><path fill="#9a3f41" d="M317.895 104.336 308.84 73.43l25.402 17.422Zm0 0"/><path fill="#2e222f" d="m354.277 105.547-36.382-1.211 16.347-13.484Zm0 0"/><path fill="#2e222f" d="m339.895 146.824-22-42.488 36.382 1.21Zm0 0"/><path fill="#2e222f" d="m317.895 104.336 22 42.488-5.633-.508Zm0 0"/><path fill="#993d41" d="m317.895 104.336-9.106 22.734.05-53.64Zm0 0"/><path fill="#f1eb8a" d="m317.895 104.336 16.367 41.98-25.473-19.246ZM289.793 185.91l-35.543-11.75 31.129-5.285ZM285.379 168.875l21.66-1.008-17.246 18.043ZM307.04 167.867l6.706 14.106-23.953 3.937Zm0 0"/><path fill="#2e222f" d="m335.52 200.293-15.848-3.48 7.476-9.508ZM339.695 219.684l-4.175-19.391 20.515-4.922Zm0 0"/><path fill="#2e222f" d="m319.672 196.813 15.848 3.48-9.336 12.36Zm0 0"/><path fill="#2e222f" d="m335.52 200.293 4.175 19.39-13.511-7.03ZM335.52 200.293l-8.372-12.988 18.188-2.535ZM356.035 195.371l-20.515 4.922 9.816-15.523Zm0 0"/><path fill="#f1eb8a" d="m354.5 167.605-14.605-20.78 26.765-10.954Zm0 0"/><path fill="#2e222f" d="m344.04 261.672 11.655-6.258 3.703 11.484ZM355.695 255.414l-11.656 6.258-4.594-26.418Zm0 0"/><path fill="#f1eb8a" d="m359.398 266.898-3.703-11.484 12.328 5.836Zm0 0"/><path fill="#f1eb8a" d="m355.695 255.414 11.657-2.016.671 7.852ZM355.695 255.414l-16.25-20.16 25.938 7.422Zm0 0"/><path fill="#f1eb8a" d="m367.352 253.398-11.657 2.016 9.688-12.738Zm0 0"/><path fill="#665964" d="m339.078 369.89 8.313 14.114-40.88-.02Zm0 0"/><path fill="#dad482" d="m339.078 369.89 18.84-26.82 12.238 26.145Zm0 0"/><path fill="#f1eb8a" d="m143.777 61.043 10.215-33.934 12.059 34.172Zm0 0"/><path fill="#f1ea8a" d="m153.992 27.11-10.215 33.933-11.074-20.508Zm0 0"/><path fill="#2e222f" d="m132.703 40.535 11.074 20.508-25.144-7.984Zm0 0"/><path fill="#f1eb8b" d="m254.25 174.16-42.984 18.817 13.004-46.336Zm0 0"/><path fill="#f2ec8b" d="m211.004 126.906 13.266 19.735-30.88-3.133Zm0 0"/><path fill="#f2ec8b" d="m202.348 123.672 8.656 3.234-17.613 16.602Zm0 0"/><path fill="#362a32" d="m48.188 15.195-26.696 7.442L29.43-.012Zm0 0"/><path fill="#342932" d="m21.492 22.637 26.696-7.442-5.313 28.168Zm0 0"/><path fill="#eee889" d="M48.188 15.195 70.358 42.88l-27.484.484Zm0 0"/><path fill="#332731" d="m180.215 376.688 19.012-3.586 4.73 10.906Zm0 0"/><path fill="#2e222f" d="m181.73 359.8 17.497 13.302-19.012 3.586Zm0 0"/><path fill="#655862" d="m199.227 373.102 21.753-4.782-17.023 15.688Zm0 0"/><path fill="#ede789" d="m199.227 373.102 7.937-23.278 13.816 18.496Zm0 0"/><path fill="#f0ea8a" d="m207.164 349.824-7.937 23.278L181.73 359.8Zm0 0"/><path fill="#f1eb8a" d="m183.273 347.21 21.915-25.425 1.976 28.04Zm0 0"/><path fill="#2e222f" d="m181.73 359.8 1.543-12.59 23.891 2.614Zm0 0"/><path fill="#2e222f" d="m181.73 359.8-31.792-16.542 33.335 3.953Zm0 0"/><path fill="#2e222f" d="m181.73 359.8-22.226 12.02-9.566-28.562ZM181.73 359.8l-1.515 16.887-20.711-4.867Zm0 0"/><path fill="#f1eb8a" d="m279.918 278.836-14.707 28.09-27.016-27.403Zm0 0"/><path fill="#9f9764" d="m311.914 321.96-18.426-5.476 12.922-16.03Zm0 0"/><path fill="#2f232f" d="m273.098 334.746 20.39-18.262-3.593 14.332Zm0 0"/><path fill="#f1eb8a" d="m168.617 184.879-41.328-26.957 33.106-17.86Zm0 0"/><path fill="#c4bd75" d="m168.617 184.879-45.652 10.754 4.324-37.711Zm0 0"/><path fill="#eae487" d="m122.965 195.633 45.652-10.754-1.996 50.7Zm0 0"/><path fill="#f1eb8a" d="m254.25 174.16 24.863-36.195 6.266 30.91Zm0 0"/><path fill="#f1eb8a" d="m279.113 137.965 27.926 29.902-21.66 1.008Zm0 0"/><path fill="#2e222f" d="m307.04 167.867-27.927-29.902 19.313-6.817Zm0 0"/><path fill="#2f232f" d="m326.629 173.781-19.59-5.914 27.223-21.55Zm0 0"/><path fill="#2e222f" d="m307.04 167.867 19.589 5.914-12.883 8.192Zm0 0"/><path fill="#30242f" d="m327.148 187.305-.52-13.524 18.708 10.989Zm0 0"/><path fill="#302430" d="m313.746 181.973 12.883-8.192.52 13.524Zm0 0"/><path fill="#2e222f" d="m339.895 146.824-13.266 26.957 7.633-27.465ZM326.629 173.781l13.266-26.957 5.44 37.946Zm0 0"/><path fill="#2e222f" d="m339.895 146.824 14.605 20.781-9.164 17.165Zm0 0"/><path fill="#665964" d="m347.39 384.004-8.312-14.113 31.078-.676Zm0 0"/><path fill="#362a32" d="m148.617 72.168 4.696 5.242-27.02 25.54Zm0 0"/><path fill="#302430" d="m143.777 61.043 4.84 11.125-22.324 30.781Zm0 0"/><path fill="#ddd781" d="m148.617 72.168 17.434-10.887-12.738 16.13Zm0 0"/><path fill="#ede789" d="m148.617 72.168-4.84-11.125 22.274.238Zm0 0"/><path fill="#2e222f" d="m208.29 112.055 6.608-12.922 14.196 7.41Zm0 0"/><path fill="#2e222f" d="m225.969 116.281-17.68-4.226 20.805-5.512Zm0 0"/><path fill="#f1eb8a" d="m211.004 126.906-2.715-14.851 17.68 4.226ZM268.563 231.004l11.355 47.832-41.723.687Zm0 0"/><path fill="#f1eb8a" d="m220.402 234.762 48.16-3.758-30.367 48.52ZM268.563 231.004l30.183 14.695-18.828 33.137Zm0 0"/><path fill="#2e222f" d="m311.914 321.96 17.18.24-8.758 23.417Zm0 0"/><path fill="#f1eb8a" d="m311.914 321.96 8.422 23.657-30.441-14.8Zm0 0"/><path fill="#eee889" d="m293.488 316.484 18.426 5.477-22.02 8.855Zm0 0"/><path fill="#f1eb8a" d="m307.047 216.125-8.3 29.574-30.185-14.695ZM298.746 245.7l7.926 26.546-26.754 6.59Zm0 0"/></svg>