<svg xmlns="http://www.w3.org/2000/svg" width="512" height="512" viewBox="0 0 384 384"><path fill="#1f344f" d="m19.07 334.54 13.618-27.868 12.703 27.863Zm0 0"/><path fill="#1f334f" d="M35.727 365.855 19.07 334.54l26.32-.004Zm0 0"/><path fill="#d8f3f5" d="m152.945 78.273-.86 16.22-9.331-8.075Zm0 0"/><path fill="#d2f0f3" d="m152.945 78.273 10.614 11.98-11.473 4.24Zm0 0"/><path fill="#1f1a37" d="m112.719 112.941-4.5 31.04-16.098-15.305Zm0 0"/><path fill="#daf1f4" d="m152.086 94.492-27.274 9.973 17.942-18.047Zm0 0"/><path fill="#1f1f3c" d="M88.535 122.55 79.5 102.5l16.984-12.676Zm0 0"/><path fill="#dbf5f7" d="m206.895 51.469 20.578-16.817 2.304 18.711Zm0 0"/><path fill="#a6e3e9" d="m199.723 71.7 4.402 39.823-15.309-17.27Zm0 0"/><path fill="#bce9ed" d="M204.125 111.523 199.723 71.7l24.308-1.89Zm0 0"/><path fill="#aba8b3" d="m273.602 51.441 18.914-8.87-9.528 15.484Zm0 0"/><path fill="#fbfcfc" d="m264.988 81.637 23.582 20.343-9.078 4.536Zm0 0"/><path fill="#989ba8" d="m264.988 81.637 8.614-30.196 9.386 6.614Zm0 0"/><path fill="#8fdbe3" d="m29.176 191.055-10.414 27.968L0 196.051Zm0 0"/><path fill="#c1bfc7" d="m35.727 365.855 17.515-4.105 3.383 13.684Zm0 0"/><path fill="#1f2340" d="m53.242 361.75-17.515 4.105 9.664-31.32Zm0 0"/><path fill="#1f2e4a" d="M-.016 315.898 19.07 334.54-.023 372.08Zm0 0"/><path fill="#1f2c48" d="M19.07 334.54-.016 315.897l32.704-9.226Zm0 0"/><path fill="#20324e" d="M19.492 277.973-.016 315.898l.024-37.488Zm0 0"/><path fill="#1f2541" d="m-.016 315.898 19.508-37.925 13.196 28.699Zm0 0"/><path fill="#797385" d="m263.54 357.426-25.485 2.554 15.273-17.687Zm0 0"/><path fill="#7c798a" d="m282.664 328.3-19.125 29.126-10.21-15.133Zm0 0"/><path fill="#9cd8e0" d="m252.184 318.684 30.48 9.617-29.336 13.992Zm0 0"/><path fill="#1f6e84" d="m183.414 238.934 5.606-38.582 26.347 29.386Zm0 0"/><path fill="#1e8195" d="m189.02 200.352-5.606 38.582-15.742-31.23Zm0 0"/><path fill="#1e2743" d="m183.414 238.934 24.996 25.457-26.058-1.977Zm0 0"/><path fill="#21a8b9" d="m119.563 190.313-49.204 18.44 15.133-40.624Zm0 0"/><path fill="#d1f2f5" d="m374.238 229.125 9.774-37.465-.012 57.043Zm0 0"/><path fill="#effcfd" d="m364.445 242.973 9.793-13.848L384 248.703Zm0 0"/><path fill="#1f1533" d="m342.383 282.32-18.328 7.633-2.953-17.39Zm0 0"/><path fill="#1d455e" d="m163.559 90.254 9.98 24.25-21.453-20.012Zm0 0"/><path fill="#1d435d" d="m173.54 114.504-13.185 3.558-8.27-23.57Zm0 0"/><path fill="#58edf5" d="m163.031 151.473-28.715-.72 6.446-13.171Zm0 0"/><path fill="#f9fefe" d="m54.64 162.82 10.676 12.66L47.5 198.383Zm0 0"/><path fill="#1f1634" d="m70.36 208.754-5.044-33.274 20.176-7.351Zm0 0"/><path fill="#47bcc9" d="m88.535 122.55 3.586 6.126-21.691 20.25Zm0 0"/><path fill="#dffafb" d="m88.535 122.55-20.906-4.16L79.5 102.5Zm0 0"/><path fill="#2d778b" d="m66.578 145.332 21.957-22.781-18.105 26.375Zm0 0"/><path fill="#e8fcfd" d="m46.71 124.844 19.868 20.488-29.812 6.152Zm0 0"/><path fill="#e3fbfd" d="m67.629 118.39-1.05 26.942-19.868-20.488Zm0 0"/><path fill="#f6fcfd" d="m66.578 145.332 1.05-26.941 20.907 4.16Zm0 0"/><path fill="#e1fbfc" d="M66.578 145.332 54.641 162.82l-17.875-11.336Zm0 0"/><path fill="#63bcc8" d="m54.64 162.82 11.938-17.488 3.852 3.594Zm0 0"/><path fill="#458093" d="m114.02 93.656 10.793 10.809-12.094 8.476Zm0 0"/><path fill="#1e3651" d="m114.02 93.656-25.485 28.895 7.95-32.727Zm0 0"/><path fill="#43a4b3" d="m88.535 122.55 25.485-28.894-1.301 19.285Zm0 0"/><path fill="#1f1a38" d="M124.813 104.465 114.02 93.656l28.734-7.238Zm0 0"/><path fill="#21566e" d="m144.277 111.953-19.464-7.488 27.273-9.973Zm0 0"/><path fill="#1e536c" d="m160.355 118.063-16.078-6.11 7.809-17.46Zm0 0"/><path fill="#213c56" d="m317.152 84.145-6.445 43.16-22.137-25.325Zm0 0"/><path fill="#e0fbfd" d="m227.695 191.73 23.953-4.558-4.277 37.574Zm0 0"/><path fill="#fefefe" d="M222.05 0 251 10.516l-23.527 24.136Zm0 0"/><path fill="#384860" d="m224.031 69.809-17.136-18.34 22.882 1.894Zm0 0"/><path fill="#3a546b" d="m236.605 73.504-12.574-3.695 5.746-16.446Zm0 0"/><path fill="#1d304c" d="m206.895 51.469-7.68-20.696 28.258 3.88Zm0 0"/><path fill="#fefefe" d="m196.031 27.992-38.254-7.336L160.152 0ZM222.05 0l41.79-.004L251 10.516ZM222.05 0l-20.948 23.414L160.152 0Zm0 0"/><path fill="#fefefe" d="M201.102 23.414 222.05 0l5.422 34.652ZM201.102 23.414l-5.07 4.578L160.151 0Zm0 0"/><path fill="#fefefe" d="m199.215 30.773 1.887-7.359 26.37 11.238Zm0 0"/><path fill="#fefefe" d="m201.102 23.414-1.887 7.36-3.184-2.782ZM321.29 21.621 300.933 0h37.53Zm0 0"/><path fill="#fefefe" d="M303.844 29.82 300.934 0l20.355 21.621Zm0 0"/><path fill="#201735" d="m253.59 123.871 37.547-1.738-11.805 16.597Zm0 0"/><path fill="#f7fefe" d="m288.57 101.98 2.567 20.153-11.645-15.617Zm0 0"/><path fill="#221936" d="m291.137 122.133-37.547 1.738 25.902-17.355Zm0 0"/><path fill="#1f1634" d="m253.59 123.871-9.418-17.457 35.32.102Zm0 0"/><path fill="#201734" d="m244.172 106.414 20.816-24.777 14.504 24.879Zm0 0"/><path fill="#213651" d="m264.988 81.637-20.816 24.777-7.567-32.91Zm0 0"/><path fill="#221835" d="m274.094 20.68-.492 30.761-16.07-7.355Zm0 0"/><path fill="#211634" d="m273.602 51.441.492-30.761 18.422 21.89Zm0 0"/><path fill="#59ccd7" d="m31.36 65.113-17.72-9.726 25.16-.965Zm0 0"/><path fill="#1e536b" d="m15.363 141.922 13.989-14.32 7.414 23.882Zm0 0"/><path fill="#21455f" d="m29.352 127.602-13.989 14.32-5.336-23.48Zm0 0"/><path fill="#fefefe" d="m67.363 57.059 51.89-32.016 9.517 38.34Zm0 0"/><path fill="#d0f7f9" d="m101.941 72.258-34.578-15.2 61.407 6.325Zm0 0"/><path fill="#d3f7f9" d="M67.629 118.39 54.574 98.583 79.5 102.5Zm0 0"/><path fill="#f6fdfe" d="m54.574 98.582 13.055 19.809-20.918 6.453Zm0 0"/><path fill="#23455e" d="m23.508 96.563 5.844 31.039-19.325-9.16Zm0 0"/><path fill="#3a7c90" d="M67.363 57.059 45.883 70.39 38.8 54.42Zm0 0"/><path fill="#fafefe" d="m45.883 70.39 21.48-13.331-11.136 19.504Zm0 0"/><path fill="#a1e6ec" d="m45.883 70.39-14.524-5.277 7.442-10.691Zm0 0"/><path fill="#1f1c39" d="M45.883 70.39 21.336 83.96l10.023-18.847Zm0 0"/><path fill="#fcfefe" d="M379.035 131.215 384 103.05l.008 57.93Zm0 0"/><path fill="#fefefe" d="m384 103.05-31.91-24.51L384 59.276ZM352.09 78.54 384 103.05l-22.344 4.372Zm0 0"/><path fill="#f9fcfd" d="m352.09 78.54 9.566 28.882-34.98 8.629Zm0 0"/><path fill="#1b4d66" d="m98.074 305.39 20.746-67.808 34.024 19.285Zm0 0"/><path fill="#1e465f" d="m70.36 208.754 48.46 28.828-38.613-9.918Zm0 0"/><path fill="#1b7086" d="m118.82 237.582-48.46-28.828 49.203-18.441Zm0 0"/><path fill="#19647b" d="m152.844 256.867-6.992 83.406-47.778-34.882Zm0 0"/><path fill="#2d7b8f" d="M206.332 295.328 195.809 328.7l-24.84-27.887Zm0 0"/><path fill="#4e9dad" d="m208.41 264.39-2.078 30.938-23.98-32.914Zm0 0"/><path fill="#3691a3" d="m206.332 295.328-35.363 5.485 11.383-38.399Zm0 0"/><path fill="#1f1836" d="M.008 278.41 0 245.57l19.492 32.403Zm0 0"/><path fill="#4cd9e3" d="m.008 170.371 32.21-1.516-3.042 22.2Zm0 0"/><path fill="#34b5c4" d="m29.176 191.055 3.043-22.2L47.5 198.383Zm0 0"/><path fill="#d0f8fb" d="m32.219 168.855 22.422-6.035-7.141 35.563Zm0 0"/><path fill="#1f1533" d="m54.64 162.82-22.421 6.035 4.547-17.37Zm0 0"/><path fill="#adebf0" d="M18.762 219.023-.004 228.54 0 196.051Zm0 0"/><path fill="#317a8e" d="m19.492 277.973 5.64-30.57 15.458 2.07Zm0 0"/><path fill="#1f1735" d="m0 245.57 25.133 1.832-5.64 30.57Zm0 0"/><path fill="#30b3c2" d="m47.48 211.371-18.304-20.316 18.324 7.328Zm0 0"/><path fill="#a5e8ee" d="m47.48 211.371-28.718 7.652 10.414-27.968Zm0 0"/><path fill="#4a435b" d="m104.332 353.434-15.297 19.035-17.332-18.48Zm0 0"/><path fill="#c0bdc5" d="m89.035 372.469-14.547 11.523-2.785-30.004Zm0 0"/><path fill="#a3acb7" d="m56.625 375.434-3.383-13.684 18.461-7.762Zm0 0"/><path fill="#b9b5bf" d="m74.488 383.992-17.863-8.558 15.078-21.446Zm0 0"/><path fill="#1f1937" d="m324.055 289.953-10.23-7.855 7.277-9.536Zm0 0"/><path fill="#f8f8f8" d="m263.54 357.426-2.997 25.883-22.488-23.329Zm0 0"/><path fill="#468d9e" d="m206.332 295.328 25.281 26.942-35.804 6.43Zm0 0"/><path fill="#77c7d1" d="m231.613 322.27 20.57-3.586 1.145 23.609Zm0 0"/><path fill="#62b2bf" d="m232.105 285.645 18.477-8.614 1.602 41.653Zm0 0"/><path fill="#72c5cf" d="m231.613 322.27.492-36.625 20.079 33.039Zm0 0"/><path fill="#519cac" d="m232.105 285.645-.492 36.625-25.281-26.942Zm0 0"/><path fill="#1f95a7" d="m151.984 174.922 37.036 25.43-21.348 7.351Zm0 0"/><path fill="#b9f7fa" d="m189.02 200.352-37.036-25.43 40.66-2.547Zm0 0"/><path fill="#1a6c82" d="m183.414 238.934-31.21-21.797 15.468-9.434Zm0 0"/><path fill="#1b556e" d="m152.203 217.137 31.211 21.797-30.57 17.933Zm0 0"/><path fill="#1a6a81" d="m152.203 217.137-8.957-36.184 24.426 26.75Zm0 0"/><path fill="#1b4660" d="m152.203 217.137.64 39.73-34.023-19.285Zm0 0"/><path fill="#1f1533" d="m72.98 262.793-53.488 15.18 21.098-28.5Zm0 0"/><path fill="#1f1e3b" d="m69.594 227.367.765-18.613 9.848 18.91Zm0 0"/><path fill="#1f1734" d="m70.36 208.754-22.88 2.617.02-12.988Zm0 0"/><path fill="#effcfd" d="m47.48 211.371 22.88-2.617-.766 18.613Zm0 0"/><path fill="#1f1533" d="m65.316 175.48 5.043 33.274L47.5 198.383Zm0 0"/><path fill="#f8fefe" d="m307.605 219.25 17.641-8.488 2.094 10.336Zm0 0"/><path fill="#fefefe" d="m325.684 242.969-18.079-23.719 19.735 1.848Zm0 0"/><path fill="#fbfefe" d="m307.605 219.25 18.079 23.719-21.497-4.016Zm0 0"/><path fill="#f6fefe" d="m276.5 226.969 18.707-37.02 12.398 29.301Zm0 0"/><path fill="#f7fefe" d="m355.656 198.84 8.406-9.235 10.176 39.52Zm0 0"/><path fill="#6ad3dd" d="m364.063 189.605 19.949 2.055-9.774 37.465Zm0 0"/><path fill="#effcfc" d="m384 248.703.121 30.637-14.039-18.262Zm0 0"/><path fill="#1f1a37" d="m383.887 279.512.234-.172-.105 34.773Zm0 0"/><path fill="#1f1533" d="m383.887 279.512.129 34.601-16.375-29.453Zm0 0"/><path fill="#1f1533" d="m370.082 261.078 13.805 18.434-16.246 5.148Zm0 0"/><path fill="#1f1836" d="m384.121 279.34-.234.172-13.805-18.434Zm0 0"/><path fill="#1f1f3c" d="m359.93 269 10.152-7.922-2.441 23.582Zm0 0"/><path fill="#1f1634" d="m342.383 282.32-7.895 16.098-10.433-8.465ZM342.383 282.32 359.93 269l7.71 15.66Zm0 0"/><path fill="#fdfdfd" d="m320.21 365.02-.55-19.739 23.961-1.402Zm0 0"/><path fill="#dff8fa" d="m173.441 68.602 26.282 3.097-10.907 22.555Zm0 0"/><path fill="#f0fcfd" d="m163.559 90.254 9.882-21.652 15.375 25.652Zm0 0"/><path fill="#d2eff2" d="m173.441 68.602-9.882 21.652-10.614-11.98Zm0 0"/><path fill="#1f1634" d="m166.508 56.168 6.933 12.434-20.496 9.671Zm0 0"/><path fill="#f9fdfe" d="m185.8 111.95 18.325-.427-22.758 14.223Zm0 0"/><path fill="#f0fafb" d="M185.8 111.95 163.56 90.253l25.257 4Zm0 0"/><path fill="#1f3954" d="m185.8 111.95-12.26 2.554-9.981-24.25Zm0 0"/><path fill="#83d4dd" d="m204.125 111.523-18.324.426 3.015-17.695Zm0 0"/><path fill="#fefefe" d="m160.152 0-2.375 20.656-38.523 4.387Zm0 0"/><path fill="#fefefe" d="m102.25 0 17.004 25.043-51.89 32.016ZM47.91-.008 102.25 0 67.363 57.059Zm0 0"/><path fill="#fefefe" d="M119.254 25.043 102.25 0h57.902Zm0 0"/><path fill="#f2fafb" d="m38.8 54.422 9.11-54.43L67.363 57.06Zm0 0"/><path fill="#3ee1ec" d="m119.547 174.016-3.57-15.024 9.566.27Zm0 0"/><path fill="#73eff6" d="m134.316 150.754-8.742-16.242 15.188 3.07Zm0 0"/><path fill="#1f1b38" d="m125.574 134.512-17.355 9.468 4.5-31.039Zm0 0"/><path fill="#a1f5f9" d="m121.613 150.059 12.703.695-8.773 8.508Zm0 0"/><path fill="#8ef2f8" d="m115.977 158.992 5.636-8.933 3.93 9.203Zm0 0"/><path fill="#6cecf4" d="m125.574 134.512-3.96 15.547-13.395-6.079Zm0 0"/><path fill="#9cf4f9" d="m121.613 150.059 3.961-15.547 8.742 16.242Zm0 0"/><path fill="#5fecf4" d="m121.613 150.059-5.636 8.933-7.758-15.012Zm0 0"/><path fill="#1f1634" d="m68.02 164.098-13.38-1.278 15.79-13.894Zm0 0"/><path fill="#1f1735" d="m68.02 164.098-2.704 11.382-10.675-12.66Zm0 0"/><path fill="#201735" d="m65.316 175.48 2.704-11.382 17.472 4.03Zm0 0"/><path fill="#53bdca" d="m88.535 122.55 24.184-9.609-20.598 15.735Zm0 0"/><path fill="#6cd4dd" d="m114.18 91.363 14.59-27.98 5.964 2.3Zm0 0"/><path fill="#1f1937" d="m114.18 91.363 20.554-25.68 8.02 20.735Zm0 0"/><path fill="#1f1a38" d="m114.02 93.656.16-2.293 28.574-4.945Zm0 0"/><path fill="#1d879b" d="M114.18 91.363 101.94 72.258l26.829-8.875Zm0 0"/><path fill="#dbf8fa" d="m114.18 91.363-.16 2.293-17.536-3.832ZM101.941 72.258l12.239 19.105-17.696-1.539Zm0 0"/><path fill="#201d3a" d="m124.813 104.465 10.96 23.012-23.054-14.536Zm0 0"/><path fill="#2c4e66" d="m144.277 111.953-8.504 15.524-10.96-23.012Zm0 0"/><path fill="#1e3e58" d="m135.773 127.477 8.504-15.524 16.078 6.11Zm0 0"/><path fill="#211c39" d="m135.773 127.477-10.199 7.035-12.855-21.57Zm0 0"/><path fill="#defbfd" d="m135.773 127.477 24.582-9.415-19.593 19.52Zm0 0"/><path fill="#e1fbfd" d="m125.574 134.512 10.2-7.035 4.988 10.105Zm0 0"/><path fill="#e7fcfd" d="m227.695 191.73-23.578-48.789 26.266-3.09Zm0 0"/><path fill="#a0f5f9" d="m204.117 142.941 5.34-19.406 20.926 16.317Zm0 0"/><path fill="#24b4c3" d="m208.41 264.39-24.996-25.456 31.953-9.196Zm0 0"/><path fill="#51ccd8" d="m247.371 224.746-32.004 4.992 12.328-38.008Zm0 0"/><path fill="#f4f8f9" d="m310.707 127.305 6.445-43.16 9.524 31.906Zm0 0"/><path fill="#fafbfc" d="m317.152 84.145 34.938-5.606-25.414 37.512Zm0 0"/><path fill="#28546c" d="m264.988 81.637 27.317-2.645-3.735 22.988Zm0 0"/><path fill="#305f75" d="m292.305 78.992 24.847 5.153-28.582 17.835Zm0 0"/><path fill="#4f778a" d="m292.305 78.992-27.317 2.645 18-23.582Zm0 0"/><path fill="#bebec6" d="m292.516 42.57 11.941 8.707-21.469 6.778Zm0 0"/><path fill="#30677d" d="m304.457 51.277-12.152 27.715-9.317-20.937Zm0 0"/><path fill="#221735" d="m304.457 51.277-11.941-8.707 11.328-12.75Zm0 0"/><path fill="#f9fefe" d="m204.125 111.523 5.332 12.012-28.09 2.211Zm0 0"/><path fill="#f7fefe" d="m209.457 123.535-5.34 19.406-22.75-17.195Zm0 0"/><path fill="#5beef6" d="m204.117 142.941 23.578 48.79-35.05-19.356Zm0 0"/><path fill="#fdfefe" d="m251 10.516-16.988 26.12-6.54-1.984Zm0 0"/><path fill="#211835" d="m234.012 36.637 40.082-15.957-16.563 23.406Zm0 0"/><path fill="#a39eab" d="m274.094 20.68-40.082 15.957L251 10.516Zm0 0"/><path fill="#e0f3f6" d="m227.473 34.652 6.539 1.985-4.235 16.726Zm0 0"/><path fill="#d6f2f5" d="m234.012 36.637 23.52 7.449-27.755 9.277Zm0 0"/><path fill="#c8dfe4" d="m199.723 71.7 7.172-20.231 17.136 18.34Zm0 0"/><path fill="#adadb8" d="M264.988 81.637 257.5 59.219l16.102-7.778Zm0 0"/><path fill="#d0ecf0" d="m257.5 59.219 7.488 22.418-28.383-8.133Zm0 0"/><path fill="#1e2b47" d="m257.5 59.219-20.895 14.285-6.828-20.14Zm0 0"/><path fill="#92e2e9" d="m257.531 44.086-.031 15.133-27.723-5.856Zm0 0"/><path fill="#231a37" d="m257.5 59.219.031-15.133 16.07 7.355Zm0 0"/><path fill="#a8a4af" d="m274.094 20.68 2.172-1.41 16.25 23.3Zm0 0"/><path fill="#827c8c" d="m292.516 42.57-16.25-23.3 27.578 10.55Zm0 0"/><path fill="#f4fbfc" d="m310.707 127.305-19.57-5.172-2.567-20.153Zm0 0"/><path fill="#201c39" d="m227.129 115.629 17.043-9.215 9.418 17.457Zm0 0"/><path fill="#edfdfe" d="m227.129 115.629 26.46 8.242-23.206 15.98Zm0 0"/><path fill="#212e4a" d="m236.605 73.504-10.671 29.93-1.903-33.625Zm0 0"/><path fill="#1f2d49" d="m244.172 106.414-18.238-2.98 10.671-29.93Zm0 0"/><path fill="#b1e2e8" d="m225.934 103.434-21.809 8.09 19.906-41.715Zm0 0"/><path fill="#f6fefe" d="m279.332 138.73-13.355 4.418-12.387-19.277Zm0 0"/><path fill="#f9fefe" d="m13.64 55.387 1.934-12.426 23.227 11.46Zm0 0"/><path fill="#1e3e58" d="M13.64 55.387-.015 69.168l.004-17.645Zm0 0"/><path fill="#93e4eb" d="m.008 137.992-.016-40.527 10.035 20.976Zm0 0"/><path fill="#298094" d="m15.363 141.922-15.355-3.93 10.02-19.55Zm0 0"/><path fill="#32a1b2" d="m54.574 98.582-7.863 26.262-23.203-28.281Zm0 0"/><path fill="#77c9d3" d="m23.508 96.563 23.203 28.28-17.36 2.759Zm0 0"/><path fill="#5fadbb" d="m29.352 127.602 17.359-2.758-9.945 26.64Zm0 0"/><path fill="#e6fafb" d="m54.574 98.582 16.852-15.426L79.5 102.5Zm0 0"/><path fill="#6ec1cc" d="M71.426 83.156 54.574 98.582l1.653-22.02Zm0 0"/><path fill="#1f1c39" d="m79.5 102.5-8.074-19.344 25.058 6.668Zm0 0"/><path fill="#f9fefe" d="m71.426 83.156-15.2-6.594L67.364 57.06Zm0 0"/><path fill="#dffafc" d="m71.426 83.156 30.515-10.898-5.457 17.566Zm0 0"/><path fill="#f8fefe" d="M101.941 72.258 71.426 83.156 67.363 57.06Zm0 0"/><path fill="#1c465f" d="m44.57 81.586 10.004 16.996-31.066-2.02Zm0 0"/><path fill="#204862" d="M54.574 98.582 44.57 81.586l11.657-5.023Zm0 0"/><path fill="#1f1e3c" d="m44.57 81.586 1.313-11.195 10.344 6.171Zm0 0"/><path fill="#57bfcb" d="m21.336 83.96 23.234-2.374-21.062 14.977Zm0 0"/><path fill="#1f1b38" d="M45.883 70.39 44.57 81.587 21.336 83.96Zm0 0"/><path fill="#a2eaf0" d="m-.008 97.465 23.516-.903-13.48 21.88Zm0 0"/><path fill="#fefefe" d="M338.465 0H384l-35.062 44.563Zm0 0"/><path fill="#201533" d="m304.457 51.277 14.246-15.879 8.625 21.122Zm0 0"/><path fill="#201533" d="m318.703 35.398-14.246 15.88-.613-21.458Zm0 0"/><path fill="#1f1533" d="m327.328 56.52-8.625-21.122 30.235 9.164Zm0 0"/><path fill="#fefefe" d="m303.844 29.82 17.445-8.199-2.586 13.777ZM321.29 21.621l27.647 22.942-30.234-9.165ZM348.938 44.563 321.289 21.62 338.465 0Zm0 0"/><path fill="#1f1836" d="m310.707 127.305 9.313 19.664-18.329-5.235Zm0 0"/><path fill="#fefefe" d="m352.09 78.54-3.152-33.978L384 59.278Zm0 0"/><path fill="#f8f8f9" d="m161.598 372.195 41.78 11.84-57.905-.047Zm0 0"/><path fill="#1c6077" d="m170.969 300.813-25.117 39.46 6.992-83.406Zm0 0"/><path fill="#296a80" d="m170.969 300.813 24.84 27.886-49.957 11.574Zm0 0"/><path fill="#fcfefe" d="m0 196.05.008-25.679 29.168 20.684Zm0 0"/><path fill="#1f1735" d="M15.363 141.922.008 170.372v-32.38Zm0 0"/><path fill="#1f1533" d="m32.219 168.855-16.856-26.933 21.403 9.562Zm0 0"/><path fill="#1f1533" d="m15.363 141.922 16.856 26.933-32.211 1.516Zm0 0"/><path fill="#f7fefe" d="m16.074 232.422-16.078-3.883 18.766-9.516Zm0 0"/><path fill="#fafefe" d="M16.074 232.422 0 245.57l-.004-17.03Zm0 0"/><path fill="#1f1533" d="m16.074 232.422 9.059 14.98L0 245.57Zm0 0"/><path fill="#fbfefe" d="m51.664 236.375-4.184-25.004 22.114 15.996Zm0 0"/><path fill="#1f1533" d="m51.664 236.375 21.316 26.418-32.39-13.32Zm0 0"/><path fill="#fdfdfd" d="m13.414 370.383 22.313-4.528 20.898 9.579Zm0 0"/><path fill="#fcfcfc" d="m74.488 383.992-61.074-13.61 43.211 5.052Zm0 0"/><path fill="#f2f6f7" d="m13.414 370.383 61.074 13.61L-.004 384Zm0 0"/><path fill="#eff7f8" d="m-.023 372.078 13.437-1.695L-.004 384Zm0 0"/><path fill="#222d49" d="m19.07 334.54-5.656 35.843-13.437 1.695Zm0 0"/><path fill="#1f2c48" d="m13.414 370.383 5.656-35.844 16.657 31.316Zm0 0"/><path fill="#fcfcfc" d="m89.035 372.469 34.477 6.695-49.024 4.828Zm0 0"/><path fill="#7c7789" d="m123.512 379.164-34.477-6.695 15.297-19.035Zm0 0"/><path fill="#fbfafb" d="m123.512 379.164 21.96 4.824-70.984.004Zm0 0"/><path fill="#1f1533" d="m69.277 345.418 35.055 8.016-32.629.554Zm0 0"/><path fill="#1f1533" d="m53.242 361.75 16.035-16.332 2.426 8.57ZM69.277 345.418l28.797-40.027 6.258 48.043Zm0 0"/><path fill="#f1fcfd" d="m290.816 251.328 23.008 30.77-17.945 8.3Zm0 0"/><path fill="#e0ebee" d="m319.66 345.281 9.918-20.648 14.043 19.246Zm0 0"/><path fill="#1f1634" d="m342.383 282.32 8.219 20.239-16.114-4.141Zm0 0"/><path fill="#daf3f6" d="m350.602 302.559-21.024 22.074 4.91-26.215Zm0 0"/><path fill="#1f1d3a" d="m384.016 314.113-33.414-11.554 17.039-17.899Zm0 0"/><path fill="#1f1836" d="m350.602 302.559-8.22-20.239 25.259 2.34Zm0 0"/><path fill="#cceef2" d="m329.578 324.633 21.024-22.074-6.98 41.32Zm0 0"/><path fill="#e3f5f7" d="m313.824 282.098-7.187 16.289-10.758-7.989Zm0 0"/><path fill="#1f1634" d="m306.637 298.387 7.187-16.29 10.23 7.856Zm0 0"/><path fill="#d9d8dd" d="m263.54 357.426 19.124-29.125 21.36 10.07Zm0 0"/><path fill="#e5f9fb" d="m295.879 290.398 10.758 7.989-23.973 29.914Zm0 0"/><path fill="#cef2f5" d="m252.184 318.684 43.695-28.286-13.215 37.903Zm0 0"/><path fill="#89d6df" d="m295.879 290.398-43.695 28.286-1.602-41.653Zm0 0"/><path fill="#bab9c2" d="m306.887 351.93-43.348 5.496 40.484-19.055Zm0 0"/><path fill="#f9f9f9" d="m306.887 351.93-46.344 31.379 2.996-25.883Zm0 0"/><path fill="#d0ced5" d="m319.66 345.281-12.773 6.649-2.864-13.559Zm0 0"/><path fill="#fcfcfc" d="m306.887 351.93 12.773-6.649.55 19.739Zm0 0"/><path fill="#2e6279" d="m227.137 346.387-32.434 2.375 1.106-20.063Zm0 0"/><path fill="#6dafbc" d="m231.613 322.27-4.476 24.117-31.328-17.688Zm0 0"/><path fill="#619baa" d="m227.137 346.387 4.476-24.117 21.715 20.023Zm0 0"/><path fill="#201533" d="m238.055 359.98-10.918-13.593 26.191-4.094Zm0 0"/><path fill="#1b92a5" d="m143.246 180.953-23.7-6.937 5.997-14.754Zm0 0"/><path fill="#55d8e3" d="m119.547 174.016.016 16.297-34.07-22.184Zm0 0"/><path fill="#4fd8e2" d="m115.977 158.992 3.57 15.024-34.055-5.887Zm0 0"/><path fill="#197f93" d="m152.203 217.137-32.64-26.824 23.683-9.36Zm0 0"/><path fill="#1c3f5a" d="m119.563 190.313 32.64 26.824-33.383 20.445Zm0 0"/><path fill="#1a637a" d="m143.246 180.953 8.738-6.031 15.688 32.781Zm0 0"/><path fill="#1c4761" d="m118.82 237.582-36.343 16.625-2.27-26.543Zm0 0"/><path fill="#1d6279" d="m98.074 305.39-15.597-51.183 36.343-16.625Zm0 0"/><path fill="#1e2a46" d="m76.602 250.04-7.008-22.673 10.613.297Zm0 0"/><path fill="#1d3954" d="m82.477 254.207-5.875-4.168 3.605-22.375Zm0 0"/><path fill="#fcfefe" d="m76.602 250.04-24.938-13.665 17.93-9.008Zm0 0"/><path fill="#1f1836" d="m51.664 236.375 24.938 13.664-3.622 12.754Zm0 0"/><path fill="#fdfefe" d="m348.375 244.383-8.434-11.098 5.317-6.187Zm0 0"/><path fill="#f6fcfd" d="m339.941 233.285-12.601-12.187 17.918 6Zm0 0"/><path fill="#1f1633" d="m339.941 233.285-14.257 9.684 1.656-21.871Zm0 0"/><path fill="#8fe6ec" d="m384.008 160.98.004 30.68-9.68-28.414Zm0 0"/><path fill="#1e2c48" d="m361.29 139.605 22.718 21.375-9.676 2.266Zm0 0"/><path fill="#91e8ee" d="m361.29 139.605 17.745-8.39 4.973 29.765Zm0 0"/><path fill="#234a63" d="m361.29 139.605.366-32.183 17.38 23.793Zm0 0"/><path fill="#fefefe" d="M361.656 107.422 384 103.05l-4.965 28.164Zm0 0"/><path fill="#e1e5e8" d="m310.707 127.305 15.824 2.949-6.511 16.715Zm0 0"/><path fill="#f7fdfe" d="m319.16 194.625 6.086 16.137-17.64 8.488Zm0 0"/><path fill="#f7fefe" d="m295.207 189.95 23.953 4.675-11.555 24.625Zm0 0"/><path fill="#201836" d="m313.652 182.113 10.563-4.418-5.055 16.93Zm0 0"/><path fill="#f2fdfe" d="M295.207 189.95 276.5 226.968l-24.852-39.797Zm0 0"/><path fill="#fdfefe" d="m295.207 189.95 18.445-7.837 5.508 12.512Zm0 0"/><path fill="#1f1735" d="m357.621 220.86-1.965-22.02 18.582 30.285Zm0 0"/><path fill="#fbfefe" d="m364.445 242.973-6.824-22.114 16.617 8.266Zm0 0"/><path fill="#fdfefe" d="m357.621 220.86-9.246 23.523-3.117-17.285Zm0 0"/><path fill="#fcfefe" d="m348.375 244.383 9.246-23.524 6.824 22.114Zm0 0"/><path fill="#fdfefe" d="m348.027 217.145 9.594 3.714-12.363 6.239Zm0 0"/><path fill="#1f1936" d="m357.621 220.86-9.594-3.715 7.63-18.305Zm0 0"/><path fill="#f5fdfd" d="m327.34 221.098 20.687-3.953-2.77 9.953Zm0 0"/><path fill="#1f1533" d="m325.246 210.762 22.781 6.383-20.687 3.953Zm0 0"/><path fill="#f6fdfe" d="m355.281 166.992-4.07 22.188-6.902-5.067Zm0 0"/><path fill="#1f2945" d="m355.281 166.992 6.008-27.387 13.043 23.641Zm0 0"/><path fill="#f2fdfd" d="M367.543 253.172 384 248.703l-13.918 12.375Zm0 0"/><path fill="#f2fcfd" d="m384 248.703-16.457 4.469-3.098-10.2Zm0 0"/><path fill="#c3c0c8" d="m260.668 383.453 59.543-18.433 63.797 18.976Zm0 0"/><path fill="#efeef0" d="m320.21 365.02 63.763-16.133.035 35.11Zm0 0"/><path fill="#c5eff3" d="m350.602 302.559 16.777 25.07-23.758 16.25Zm0 0"/><path fill="#d0f3f6" d="m367.379 327.629-16.777-25.07 33.414 11.554Zm0 0"/><path fill="#7098a7" d="m367.379 327.629 16.637-13.516-.043 34.774Zm0 0"/><path fill="#1d6077" d="m199.215 30.773-13.918 12.672 10.734-15.453Zm0 0"/><path fill="#fefefe" d="m196.031 27.992-10.734 15.453-27.52-22.789Zm0 0"/><path fill="#14b2c2" d="m185.297 43.445 13.918-12.672 7.68 20.696Zm0 0"/><path fill="#1f1735" d="m185.297 43.445 3.629 15.918-22.418-3.195Zm0 0"/><path fill="#1f1634" d="m188.926 59.363-15.485 9.239-6.933-12.434Zm0 0"/><path fill="#1f1533" d="m188.926 59.363-3.63-15.918 21.599 8.024Zm0 0"/><path fill="#e2f5f7" d="m199.723 71.7-10.797-12.337 17.969-7.894Zm0 0"/><path fill="#eff8f9" d="m173.441 68.602 15.485-9.239L199.723 71.7Zm0 0"/><path fill="#fefefe" d="m155.254 27.55-36-2.507 38.523-4.387ZM185.297 43.445l-30.043-15.894 2.523-6.895Zm0 0"/><path fill="#1d2b47" d="m155.254 27.55 30.043 15.895-18.79 12.723Zm0 0"/><path fill="#80eff6" d="m115.977 158.992-30.485 9.137 22.727-24.149Zm0 0"/><path fill="#1f1b38" d="m85.492 168.129 6.63-39.453 16.097 15.304Zm0 0"/><path fill="#1f1533" d="m92.121 128.676-6.629 39.453-15.062-19.203Zm0 0"/><path fill="#201734" d="m85.492 168.129-17.472-4.031 2.41-15.172Zm0 0"/><path fill="#5fb2bf" d="m232.105 285.645-25.773 9.683 2.078-30.937Zm0 0"/><path fill="#4ca9b8" d="m235.707 255.602-3.602 30.043-23.695-21.254Zm0 0"/><path fill="#3c8094" d="m232.105 285.645 3.602-30.043 14.875 21.43Zm0 0"/><path fill="#268fa1" d="m215.367 229.738 20.34 25.864-27.297 8.789Zm0 0"/><path fill="#7ee2e9" d="m215.367 229.738 32.004-4.992-11.664 30.856Zm0 0"/><path fill="#fafdfd" d="m352.09 78.54-34.938 5.605 10.176-27.625Zm0 0"/><path fill="#fefefe" d="m348.938 44.563 3.152 33.976-24.762-22.02Zm0 0"/><path fill="#f2f2f4" d="m317.152 84.145-12.695-32.868 22.871 5.243Zm0 0"/><path fill="#3c6d82" d="m317.152 84.145-24.847-5.153 12.152-27.715Zm0 0"/><path fill="#aaf6fa" d="m163.031 151.473 41.086-8.532-11.472 29.434Zm0 0"/><path fill="#71eff6" d="m151.984 174.922 11.047-23.45 29.614 20.903Zm0 0"/><path fill="#b9f7fb" d="m163.031 151.473-22.27-13.891L166.454 136Zm0 0"/><path fill="#c7f9fb" d="m166.453 136-25.691 1.582 19.593-19.52Zm0 0"/><path fill="#fdfefe" d="m185.8 111.95-4.433 13.796-7.828-11.242Zm0 0"/><path fill="#fcfefe" d="m173.54 114.504 7.827 11.242-21.012-7.683Zm0 0"/><path fill="#b9f7fb" d="M181.367 125.746 166.453 136l-6.098-17.937Zm0 0"/><path fill="#fefefe" d="m263.84-.004 10.254 20.684L251 10.516ZM276.266 19.27 263.84-.004 300.934 0ZM303.844 29.82l-27.578-10.55L300.934 0Zm0 0"/><path fill="#fefefe" d="m276.266 19.27-2.172 1.41L263.84-.004Zm0 0"/><path fill="#9ed5dc" d="m291.137 122.133 10.554 19.601-22.359-3.004Zm0 0"/><path fill="#201b39" d="m310.707 127.305-9.016 14.43-10.554-19.602Zm0 0"/><path fill="#f8fefe" d="m209.457 123.535 17.672-7.906 3.254 24.223Zm0 0"/><path fill="#fbfefe" d="m265.977 143.148-35.594-3.296 23.207-15.98Zm0 0"/><path fill="#fefefe" d="m265.977 143.148 4.226 9.602-39.82-12.898Zm0 0"/><path fill="#f4fdfe" d="m270.203 152.75-18.555 34.422-21.265-47.32Zm0 0"/><path fill="#fefefe" d="m270.203 152.75-4.226-9.602 13.355-4.418ZM47.91-.008.004 29.61 0 0Zm0 0"/><path fill="#fdfefe" d="m.004 29.61 15.57 13.35-15.586 8.563Zm0 0"/><path fill="#fcfefe" d="m15.574 42.96-1.933 12.427-13.653-3.864Zm0 0"/><path fill="#fefefe" d="M15.574 42.96.004 29.61 47.91-.009Zm0 0"/><path fill="#1f1734" d="M21.336 83.96 13.64 55.388l17.718 9.726Zm0 0"/><path fill="#1e2441" d="m13.64 55.387 7.696 28.574L-.016 69.168Zm0 0"/><path fill="#1e213e" d="m-.016 69.168 21.352 14.793L-.008 97.465Zm0 0"/><path fill="#1f1937" d="m21.336 83.96 2.172 12.603-23.516.902Zm0 0"/><path fill="#fefefe" d="m384 59.277-35.062-14.715L384 0Zm0 0"/><path fill="#1f1533" d="m145.852 340.273-41.52 13.16-6.258-48.042Zm0 0"/><path fill="#1b4760" d="m152.844 256.867 30.57-17.933-1.062 23.48Zm0 0"/><path fill="#dfdee2" d="m140.531 359.473 4.942 24.515-21.961-4.824Zm0 0"/><path fill="#1f2744" d="m161.598 372.195-21.067-12.722 5.32-19.2Zm0 0"/><path fill="#d5d6db" d="m145.473 383.988-4.942-24.515 21.067 12.722Zm0 0"/><path fill="#201533" d="m104.332 353.434 36.2 6.039-17.02 19.691Zm0 0"/><path fill="#1f1533" d="m145.852 340.273-5.32 19.2-36.2-6.04Zm0 0"/><path fill="#21869a" d="m170.969 300.813-18.125-43.946 29.508 5.547Zm0 0"/><path fill="#f8fefe" d="m29.66 233.148 22.004 3.227-11.074 13.098Zm0 0"/><path fill="#fbfefe" d="m51.664 236.375-22.004-3.227 17.82-21.777Zm0 0"/><path fill="#223e58" d="m25.133 247.402 4.527-14.254 10.93 16.325Zm0 0"/><path fill="#e5fafc" d="m47.48 211.371-17.82 21.777-10.898-14.125Zm0 0"/><path fill="#effcfd" d="m29.66 233.148-13.586-.726 2.688-13.399Zm0 0"/><path fill="#1f1634" d="m16.074 232.422 13.586.726-4.527 14.254Zm0 0"/><path fill="#1f1533" d="m45.39 334.535-12.702-27.863 65.386-1.281ZM45.39 334.535l52.684-29.144-28.797 40.027Zm0 0"/><path fill="#1f1835" d="m45.39 334.535 23.887 10.883-16.035 16.332Zm0 0"/><path fill="#e6fafc" d="m250.582 277.031 40.234-25.703 5.063 39.07Zm0 0"/><path fill="#f6fcfd" d="m290.816 251.328 17.391 1.41 5.617 29.36Zm0 0"/><path fill="#f1fbfc" d="m313.824 282.098-5.617-29.36 12.895 19.825Zm0 0"/><path fill="#f6fdfe" d="m308.207 252.738 17.477-9.77-4.582 29.595Zm0 0"/><path fill="#f5fdfe" d="m325.684 242.969-17.477 9.77-4.02-13.786Zm0 0"/><path fill="#eefdfd" d="m276.5 226.969 31.105-7.719-3.418 19.703Zm0 0"/><path fill="#f6fbfc" d="m329.578 324.633-9.023-17.082 13.933-9.133Zm0 0"/><path fill="#1f1a37" d="m334.488 298.418-13.933 9.133 3.5-17.598Zm0 0"/><path fill="#1f1a38" d="m320.555 307.55-13.918-9.163 17.418-8.434Zm0 0"/><path fill="#fefefe" d="m260.543 383.309.125.144-57.29.582Zm0 0"/><path fill="#f3f2f4" d="m260.543 383.309 46.344-31.38 13.324 13.09Zm0 0"/><path fill="#f7f7f8" d="m260.668 383.453-.125-.144 59.668-18.29Zm0 0"/><path fill="#1f1533" d="m227.137 346.387-18.856 5.261-13.578-2.886Zm0 0"/><path fill="#1f1533" d="m208.281 351.648 18.856-5.261 10.918 13.593Zm0 0"/><path fill="#1f1634" d="m208.281 351.648-11.578 3.512-2-6.398Zm0 0"/><path fill="#f7f7f8" d="m219.813 366.21 40.73 17.099-57.164.726Zm0 0"/><path fill="#f6f5f6" d="m260.543 383.309-40.73-17.098 18.242-6.23Zm0 0"/><path fill="#e9e9eb" d="m219.813 366.21-16.434 17.825 2.95-22.691Zm0 0"/><path fill="#211b38" d="m219.813 366.21-11.532-14.562 29.774 8.332Zm0 0"/><path fill="#f2f4f5" d="m208.281 351.648 11.531 14.563-13.484-4.867Zm0 0"/><path fill="#1da7b8" d="m119.563 190.313-.016-16.297 23.7 6.937Zm0 0"/><path fill="#1f1533" d="m32.688 306.672 40.292-43.879 25.094 42.598Zm0 0"/><path fill="#3da4b4" d="m72.98 262.793 9.497-8.586 15.597 51.184Zm0 0"/><path fill="#99e1e8" d="m72.98 262.793 3.622-12.754 5.875 4.168Zm0 0"/><path fill="#1f1533" d="m19.492 277.973 53.488-15.18-40.293 43.879ZM340.156 258.262l2.227 24.058-21.281-9.757ZM325.684 242.969l14.472 15.293-19.054 14.3Zm0 0"/><path fill="#1f1533" d="m339.941 233.285.215 24.977-14.472-15.293Zm0 0"/><path fill="#1f1936" d="m340.156 258.262-.215-24.977 8.434 11.098Zm0 0"/><path fill="#1f1634" d="M340.156 258.262 359.93 269l-17.547 13.32Zm0 0"/><path fill="#fafefe" d="m351.21 189.18 12.853.425-8.407 9.235Zm0 0"/><path fill="#67d2dc" d="m384.012 191.66-19.95-2.055 10.27-26.359Zm0 0"/><path fill="#7fc8d2" d="m364.063 189.605-8.782-22.613 19.051-3.746Zm0 0"/><path fill="#fafefe" d="m355.281 166.992 8.781 22.613-12.851-.425Zm0 0"/><path fill="#213853" d="m361.29 139.605-21.876-9.511 22.242-22.672Zm0 0"/><path fill="#fbfbfb" d="m339.414 130.094-12.738-14.043 34.98-8.63Zm0 0"/><path fill="#295068" d="m326.676 116.05 12.738 14.044-12.883.16Zm0 0"/><path fill="#fefefe" d="m326.676 116.05-.145 14.204-15.824-2.95Zm0 0"/><path fill="#edfdfe" d="m251.648 187.172 31.086-20.531 12.473 23.308Zm0 0"/><path fill="#effdfe" d="m251.648 187.172 18.555-34.422 12.531 13.89Zm0 0"/><path fill="#f7fefe" d="m282.734 166.64 19.813-3.242-7.34 26.551Zm0 0"/><path fill="#1f1533" d="m320.02 146.969-17.473 16.43-.856-21.665Zm0 0"/><path fill="#effdfe" d="m302.547 163.398 11.105 18.715-18.445 7.836Zm0 0"/><path fill="#1f1533" d="m338.328 196.426-19.168-1.801 5.055-16.93ZM348.027 217.145l-9.699-20.72 17.328 2.415Zm0 0"/><path fill="#1f1533" d="m319.16 194.625 19.168 1.8-13.082 14.337Zm0 0"/><path fill="#1f1533" d="m338.328 196.426 9.7 20.719-22.782-6.383ZM338.328 196.426l12.883-7.246 4.445 9.66ZM338.328 196.426l-14.113-18.73 20.094 6.417Zm0 0"/><path fill="#1f1735" d="m351.21 189.18-12.882 7.246 5.98-12.313Zm0 0"/><path fill="#e3f3f6" d="m355.281 166.992-19.25-19.254 25.258-8.133Zm0 0"/><path fill="#202a46" d="m336.031 147.738 3.383-17.644 21.875 9.511Zm0 0"/><path fill="#1f1e3b" d="m339.414 130.094-3.383 17.644-9.5-17.484Zm0 0"/><path fill="#1f1533" d="m340.156 258.262 15.285-1.973L359.93 269Zm0 0"/><path fill="#1f1836" d="m355.441 256.29-15.285 1.972 8.219-13.88Zm0 0"/><path fill="#f9fefe" d="m359.93 269-4.489-12.71 14.641 4.788Zm0 0"/><path fill="#fbfefe" d="m355.441 256.29 12.102-3.118 2.539 7.906Zm0 0"/><path fill="#fcfefe" d="m355.441 256.29-7.066-11.907 16.07-1.41Zm0 0"/><path fill="#fcfefe" d="m367.543 253.172-12.102 3.117 9.004-13.316Zm0 0"/><path fill="#fdfdfd" d="m343.621 343.879 40.352 5.008-63.762 16.133Zm0 0"/><path fill="#527a8d" d="m367.379 327.629 16.594 21.258-40.352-5.008Zm0 0"/><path fill="#1e2440" d="m135.7 41.98 19.554-14.43 11.254 28.618Zm0 0"/><path fill="#fefefe" d="m155.254 27.55-19.555 14.43-16.445-16.937ZM135.7 41.98l-.966 23.704-5.964-2.301Zm0 0"/><path fill="#fefefe" d="m119.254 25.043 16.445 16.937-6.93 21.403Zm0 0"/><path fill="#a9f6fa" d="m227.695 191.73 2.688-51.878 21.265 47.32Zm0 0"/><path fill="#9bf2f7" d="m215.367 229.738-26.347-29.386 38.675-8.622Zm0 0"/><path fill="#a8f5fa" d="m227.695 191.73-38.675 8.622 3.625-27.977Zm0 0"/><path fill="#a0f5f9" d="m181.367 125.746 22.75 17.195L166.453 136Zm0 0"/><path fill="#75f0f7" d="m204.117 142.941-41.086 8.532L166.453 136Zm0 0"/><path fill="#fafdfd" d="m204.125 111.523 23.004 4.106-17.672 7.906Zm0 0"/><path fill="#fbfdfd" d="M15.574 42.96 47.91-.007l-9.11 54.43Zm0 0"/><path fill="#f5f5f6" d="m196.703 355.16 9.625 6.184-2.95 22.691Zm0 0"/><path fill="#f8fafb" d="m196.703 355.16 11.578-3.512-1.953 9.696Zm0 0"/><path fill="#1c556e" d="m195.809 328.7-1.106 20.062-48.851-8.489Zm0 0"/><path fill="#1f1533" d="m194.703 348.762-11.808 10.168-37.043-18.657Zm0 0"/><path fill="#1f1533" d="m182.895 358.93 11.808-10.168 2 6.398ZM182.895 358.93l-21.297 13.265-15.746-31.922Zm0 0"/><path fill="#473e57" d="m182.895 358.93 20.484 25.105-41.781-11.84Zm0 0"/><path fill="#e8e7ea" d="m182.895 358.93 13.808-3.77 6.676 28.875Zm0 0"/><path fill="#1f1633" d="m312.75 323.625-30.086 4.676 23.973-29.914Zm0 0"/><path fill="#1f1533" d="m320.555 307.55-7.805 16.075-6.113-25.238ZM282.664 328.3l30.086-4.675-8.727 14.746Zm0 0"/><path fill="#56ebf3" d="m151.984 174.922-17.668-24.168 28.715.719Zm0 0"/><path fill="#61ecf4" d="m134.316 150.754 17.668 24.168-26.441-15.66Zm0 0"/><path fill="#1d6c83" d="m151.984 174.922-8.738 6.031-17.703-21.691Zm0 0"/><path fill="#f1fdfe" d="m290.168 149.473-19.965 3.277 9.129-14.02Zm0 0"/><path fill="#6ccfd9" d="m301.691 141.734-11.523 7.739-10.836-10.743Zm0 0"/><path fill="#fbfefe" d="m270.203 152.75 19.965-3.277-7.434 17.168Zm0 0"/><path fill="#ecfdfe" d="m290.168 149.473 12.379 13.925-19.813 3.243Zm0 0"/><path fill="#59e7f0" d="m302.547 163.398-12.379-13.925 11.523-7.739Zm0 0"/><path fill="#1f1533" d="m324.215 177.695-21.668-14.297 17.473-16.43Zm0 0"/><path fill="#1f1533" d="m302.547 163.398 21.668 14.297-10.563 4.418Zm0 0"/><path fill="#e4f1f3" d="m326.531 130.254 9.5 17.484-16.011-.77Zm0 0"/><path fill="#1f1633" d="m336.031 147.738-11.816 29.957-4.195-30.726Zm0 0"/><path fill="#1f1533" d="m324.215 177.695 11.816-29.957 8.278 36.375Zm0 0"/><path fill="#1f1633" d="m336.031 147.738 19.25 19.254-10.972 17.121Zm0 0"/><path fill="#fbfdfd" d="m135.7 41.98 10.132 18.77-11.098 4.934Zm0 0"/><path fill="#1f1735" d="m145.832 60.75 7.113 17.523-10.191 8.145Zm0 0"/><path fill="#1f1937" d="m134.734 65.684 11.098-4.934-3.078 25.668Zm0 0"/><path fill="#1f1e3b" d="m145.832 60.75 20.676-4.582-13.563 22.105Zm0 0"/><path fill="#1e2340" d="m145.832 60.75-10.133-18.77 30.809 14.188Zm0 0"/><path fill="#211a38" d="m227.129 115.629-23.004-4.106 21.809-8.09Zm0 0"/><path fill="#201533" d="m227.129 115.629-1.195-12.195 18.238 2.98Zm0 0"/><path fill="#bef0f4" d="m250.582 277.031-14.875-21.43 11.664-30.855Zm0 0"/><path fill="#f0fafb" d="m312.75 323.625 7.805-16.074 9.023 17.082Zm0 0"/><path fill="#fcfefe" d="m312.75 323.625 16.828 1.008-9.918 20.648Zm0 0"/><path fill="#1f1533" d="m312.75 323.625 6.91 21.656-15.637-6.91Zm0 0"/><path fill="#62b5c2" d="M250.582 277.031 276.5 226.97l14.316 24.36Zm0 0"/><path fill="#9eeef3" d="m251.648 187.172 24.852 39.797-29.129-2.223Zm0 0"/><path fill="#91d9e1" d="m276.5 226.969-25.918 50.062-3.21-52.285Zm0 0"/><path fill="#f3fdfd" d="m308.207 252.738-17.39-1.41 13.37-12.375Zm0 0"/><path fill="#effdfd" d="m290.816 251.328-14.316-24.36 27.688 11.985Zm0 0"/></svg>