<svg xmlns="http://www.w3.org/2000/svg" width="512" height="512" viewBox="0 0 384 384"><path fill="#256a93" d="m162.64 0 20.5 65.668-53.542-18.606Zm0 0"/><path fill="#276993" d="M113.223 0h49.418l-33.043 47.063Zm0 0"/><path fill="#216790" d="m248.305 69.445-65.164-3.777L232.273.004Zm0 0"/><path fill="#fef9f4" d="m263.652 136.95-9.539-3.958 9.18-6.558Zm0 0"/><path fill="#366594" d="M66.113 0 46.621 59.55 0 0Zm0 0"/><path fill="#2e6895" d="M93.117 43.945 46.621 59.551 66.113 0Zm0 0"/><path fill="#265e88" d="m49.867 226.98-16.199 48.516-33.645-46.18Zm0 0"/><path fill="#2c507c" d="m71.754 334.348-42.402.058 4.316-58.91Zm0 0"/><path fill="#2b4e79" d="m77.309 275.375-5.555 58.973-38.086-58.852Zm0 0"/><path fill="#2d4c78" d="m106.16 277.008-34.406 57.34 5.555-58.973Zm0 0"/><path fill="#2b638f" d="M36.691 174.594.023 229.316 0 149.16Zm0 0"/><path fill="#24638d" d="m36.691 174.594 13.176 52.386-49.844 2.336Zm0 0"/><path fill="#2b6894" d="m80.36 82.453-29.747 46.578-3.992-69.48Zm0 0"/><path fill="#255f88" d="M232.273.004h93.66l-50.617 41.164Zm0 0"/><path fill="#1e688f" d="m248.305 69.445-27.32 46.813-37.844-50.59Zm0 0"/><path fill="#23638c" d="M248.305 69.445 232.273.004l43.043 41.164Zm0 0"/><path fill="#235f88" d="m325.934.004-20.782 72.758-29.836-31.594Zm0 0"/><path fill="#17688d" d="M154.926 351.277 156.578 384l-26.234-29.219Zm0 0"/><path fill="#17698e" d="m97.102 384 10.593-50.715 22.649 21.496Zm0 0"/><path fill="#17688d" d="M156.578 384H97.102l33.242-29.219Zm0 0"/><path fill="#236c95" d="M183.14 65.668 162.64 0l69.633.004Zm0 0"/><path fill="#fefaf6" d="m112.23 104.105 16.446 13.907-12.41 10.66Zm0 0"/><path fill="#156f93" d="m122.715 162.484 3.93 14.887-30.868-5.2Zm0 0"/><path fill="#ecc681" d="m263.652 136.95-9.804 6.722.265-10.68Zm0 0"/><path fill="#fce6c3" d="m254.113 132.992 5.18-10.629 4 4.07Zm0 0"/><path fill="#fefaf6" d="m259.293 122.363 6.348-3.015-2.348 7.086Zm0 0"/><path fill="#1c648b" d="m265.64 119.348-6.347 3.015-5.84-13.89Zm0 0"/><path fill="#186e93" d="m177.695 129 43.29-12.742-5.141 33.062Zm0 0"/><path fill="#196e93" d="M220.984 116.258 177.695 129l5.446-63.332Zm0 0"/><path fill="#137195" d="M192.102 162.465 177.695 129l38.149 20.32Zm0 0"/><path fill="#396394" d="m0 0 46.621 59.55L0 81.064Zm0 0"/><path fill="#2a6893" d="M113.223 0 93.117 43.945 66.113 0Zm0 0"/><path fill="#286893" d="m129.598 47.063-36.48-3.118L113.222 0Zm0 0"/><path fill="#316593" d="M0 81.063 46.621 59.55l3.992 69.48Zm0 0"/><path fill="#166f93" d="m87.012 194.164-26.098-13.867 34.863-8.125Zm0 0"/><path fill="#186e93" d="m60.914 180.297-24.223-5.703 59.086-2.422Zm0 0"/><path fill="#215f87" d="m49.867 226.98 27.442 48.395-43.641.121Zm0 0"/><path fill="#206088" d="M103.05 243.598 77.31 275.375l20.52-38.262Zm0 0"/><path fill="#1f6188" d="m103.05 243.598 3.11 33.41-28.851-1.633Zm0 0"/><path fill="#27537e" d="m107.695 333.285-35.941 1.063 50.414-32.36Zm0 0"/><path fill="#304f7c" d="m33.668 275.496-33.672 58.75.027-104.93Zm0 0"/><path fill="#286792" d="M36.691 174.594 0 149.16l50.613-20.129Zm0 0"/><path fill="#2f6694" d="m0 81.063 50.613 47.968L0 149.161Zm0 0"/><path fill="#1c6c93" d="m50.613 129.031 50.348 18.348-5.184 24.793Zm0 0"/><path fill="#1f6b92" d="m36.691 174.594 13.922-45.563 45.164 43.14Zm0 0"/><path fill="#1c658b" d="m275.566 102.383-9.925 16.965-12.188-10.875Zm0 0"/><path fill="#22648c" d="m305.152 72.762-56.847-3.317 27.011-28.277Zm0 0"/><path fill="#19658b" d="m350.602 160.648-5.23-31.453L384 144.625Zm0 0"/><path fill="#1d6187" d="M350.602 160.648 334 179.91l-14.344-26.55Zm0 0"/><path fill="#18678c" d="m334 179.91 16.602-19.262 33.394 49.004Zm0 0"/><path fill="#19668b" d="m383.996 209.652-33.394-49.004L384 144.625Zm0 0"/><path fill="#1d6087" d="m345.371 129.195 5.23 31.453-30.945-7.289Zm0 0"/><path fill="#205c84" d="m334 179.91-32.66 23.922 8.894-27.187Zm0 0"/><path fill="#27547e" d="m71.754 334.348 34.406-57.34 16.008 24.98Zm0 0"/><path fill="#1e6288" d="m107.695 333.285 23.125-2.117-.476 23.613Zm0 0"/><path fill="#2b4d79" d="m107.695 333.285 14.473-31.297 8.652 29.18Zm0 0"/><path fill="#17688d" d="M184.555 358.047 156.578 384l-1.652-32.723Zm0 0"/><path fill="#304e7b" d="m29.352 334.406-29.356-.16 33.672-58.75Zm0 0"/><path fill="#176a8f" d="m97.102 384-25.348-49.652 35.941-1.063Zm0 0"/><path fill="#166d91" d="m-.004 384 71.758-49.652L97.102 384Zm0 0"/><path fill="#176f94" d="m215.738 170.434-23.636-7.97 23.742-13.144Zm0 0"/><path fill="#1d678a" d="m216.633 349.184 10.082-13.18 15.18.09Zm0 0"/><path fill="#1e6589" d="m226.715 336.004-10.082 13.18-2.184-14.243Zm0 0"/><path fill="#fefcfe" d="m226.715 336.004-1.578-13.629 4.953 3.719Zm0 0"/><path fill="#fefcfe" d="m225.137 322.375 1.578 13.629-12.266-1.063ZM217.14 284.969l8.56-18.473.663 23.774Zm0 0"/><path fill="#2f4975" d="m231.113 324.367-2.343-10.828L244 319.82Zm0 0"/><path fill="#236c95" d="M103.855 57.418 80.36 82.453l12.758-38.508Zm0 0"/><path fill="#206d95" d="m80.36 82.453 23.495-25.035 4.286 29.574Zm0 0"/><path fill="#246a93" d="m129.598 47.063-25.743 10.355-10.738-13.473Zm0 0"/><path fill="#236a93" d="m132.64 84.504-3.042-37.442 53.543 18.606Zm0 0"/><path fill="#fefbfa" d="m128.676 118.012.98 21.367-13.39-10.707Zm0 0"/><path fill="#fefcfe" d="m134.605 189.086 3.06-11.184 7.929 7.473Zm0 0"/><path fill="#fffdff" d="m137.664 177.902-3.059 11.184-7.96-11.715Zm0 0"/><path fill="#fefcfe" d="m131.512 155.54 2.61 11.53-11.407-4.586ZM134.121 167.07l-7.476 10.301-3.93-14.887Zm0 0"/><path fill="#fffdff" d="m134.121 167.07 3.543 10.832-11.02-.53Zm0 0"/><path fill="#fefcfe" d="m134.121 167.07-2.61-11.53 8.09 4.812Zm0 0"/><path fill="#196b91" d="m246.441 125.355-25.457-9.097 32.47-7.785Zm0 0"/><path fill="#1b678d" d="m259.293 122.363-12.852 2.992 7.012-16.882Zm0 0"/><path fill="#fcebcf" d="m246.441 125.355 12.852-2.992-5.18 10.63Zm0 0"/><path fill="#1f5f86" d="m259.77 148.906 1.484-3.738 2.656 3.465Zm0 0"/><path fill="#f5cb82" d="m261.254 145.168-7.406-1.496 9.804-6.723Zm0 0"/><path fill="#ecc580" d="m261.254 145.168-1.484 3.738-5.922-5.234Zm0 0"/><path fill="#fef9f5" d="m265.64 119.348 3.907 8.086-6.254-1Zm0 0"/><path fill="#fefcfd" d="m269.547 127.434-5.895 9.515-.359-10.515Zm0 0"/><path fill="#286a95" d="M80.36 82.453 46.62 59.551l46.496-15.606Zm0 0"/><path fill="#166f93" d="m100.96 147.379 21.755 15.105-26.938 9.688Zm0 0"/><path fill="#225f87" d="m77.309 275.375 7.722-54.777 12.797 16.515Zm0 0"/><path fill="#1f6189" d="m49.867 226.98 35.164-6.382-7.722 54.777Zm0 0"/><path fill="#1a658a" d="m103.05 243.598 22.11 31.515-19 1.895Zm0 0"/><path fill="#1d6288" d="m125.16 275.113-22.11-31.515 29.708 9.62Zm0 0"/><path fill="#1a7095" d="m112.23 104.105-18.746 7.122 14.657-24.235Zm0 0"/><path fill="#216c94" d="M93.484 111.227 80.36 82.453l27.782 4.54Zm0 0"/><path fill="#157296" d="m93.484 111.227 18.746-7.122 4.036 24.567Zm0 0"/><path fill="#127497" d="m100.96 147.379-7.476-36.152 22.782 17.445Zm0 0"/><path fill="#1b6e94" d="m50.613 129.031 42.871-17.804 7.477 36.152Zm0 0"/><path fill="#246b95" d="m93.484 111.227-42.87 17.804 29.745-46.578Zm0 0"/><path fill="#1f5f86" d="M322.508 111.73 384 62.57l-38.629 66.625Zm0 0"/><path fill="#1a658b" d="M384 62.57v82.055l-38.629-15.43Zm0 0"/><path fill="#215e86" d="m322.508 111.73-17.356-38.968L384 62.57Zm0 0"/><path fill="#215f87" d="m305.152 72.762 17.356 38.968-24.36 3.235Zm0 0"/><path fill="#285984" d="m325.934.004 58.062-.008L384 62.57Zm0 0"/><path fill="#255b85" d="M305.152 72.762 325.934.004 384 62.57Zm0 0"/><path fill="#196b91" d="m248.305 69.445 5.148 39.028-32.469 7.785Zm0 0"/><path fill="#1a668c" d="m275.566 102.383 4.145 19.683-14.07-2.718Zm0 0"/><path fill="#1a668b" d="m279.71 122.066-10.163 5.368-3.906-8.086Zm0 0"/><path fill="#373a6a" d="m337.27 275.504 46.73-.777v58.308Zm0 0"/><path fill="#383a6a" d="m348.527 334.242-11.257-58.738L384 333.035Zm0 0"/><path fill="#1b638a" d="m156.578 384 27.977-25.953L249.672 384Zm0 0"/><path fill="#fefcfe" d="m205.43 309.621-6.368-1.23.606-11.555Zm0 0"/><path fill="#156d91" d="m-.004 384 29.356-49.594 42.402-.058Zm0 0"/><path fill="#186b91" d="M-.004 384v-49.754l29.356.16Zm0 0"/><path fill="#fefcfc" d="m273.313 167.883 10.894-5.867-7.273 11.03Zm0 0"/><path fill="#fffcfe" d="m291.793 170.992-17.242 17.367 2.383-15.312ZM264.914 205.012l9.637-16.653 8.367 16.598Zm0 0"/><path fill="#fefcfe" d="m292.848 190.176 8.492 13.656-18.422 1.125Zm0 0"/><path fill="#fffdfe" d="m274.55 188.36 18.298 1.816-9.93 14.781Zm0 0"/><path fill="#fefcfe" d="m292.848 190.176-18.297-1.817 17.242-17.367Zm0 0"/><path fill="#fefcfe" d="m292.848 190.176-1.055-19.184 11.387 3.102Zm0 0"/><path fill="#fefcfe" d="m310.234 176.645-17.386 13.53 10.332-16.081Zm0 0"/><path fill="#fefcfe" d="m301.34 203.832-8.492-13.656 17.386-13.531Zm0 0"/><path fill="#e6c581" d="m249.531 179.094 8.864.332-2.329 11.816Zm0 0"/><path fill="#156f94" d="m228.031 163.426-12.293 7.008.106-21.114Zm0 0"/><path fill="#fefcfe" d="m229.215 183.676 1.89-10.305 8.133 2.805Zm0 0"/><path fill="#157094" d="m228.031 163.426 3.074 9.945-15.367-2.937Zm0 0"/><path fill="#fefcfe" d="m240.914 188.313-11.7-4.637 10.024-7.5Zm0 0"/><path fill="#fefcfd" d="m240.914 188.313 8.617-9.22 6.535 12.15Zm0 0"/><path fill="#fffcfe" d="m249.531 179.094-8.617 9.219-1.676-12.137Zm0 0"/><path fill="#fefcfe" d="m232.855 213.066 12.024-13.57-1.375 16.074ZM264.914 205.012l-9.984-.02 1.136-13.75Zm0 0"/><path fill="#dabf82" d="m244.879 199.496 10.05 5.496-11.425 10.578Zm0 0"/><path fill="#dec182" d="m254.93 204.992-10.051-5.496 11.187-8.254Zm0 0"/><path fill="#fefcfe" d="m193.45 254.648 22.991-12.617 9.258 24.465Zm0 0"/><path fill="#fefcfe" d="m216.441 242.031-22.992 12.617 4.067-19.511Zm0 0"/><path fill="#17688c" d="m249.672 384-33.04-34.816 25.263-13.09Zm0 0"/><path fill="#bfc0cd" d="m225.137 322.375 5.976 1.992-1.023 1.727Zm0 0"/><path fill="#fefcfe" d="m225.137 322.375 3.633-8.836 2.343 10.828ZM202.86 278.785l22.84-12.289-8.56 18.473Zm0 0"/><path fill="#a6a284" d="m202.86 278.785-20.801 12.563.664-30.028Zm0 0"/><path fill="#b9b086" d="m202.86 278.785-9.41-24.137 32.25 11.848Zm0 0"/><path fill="#a3a284" d="m193.45 254.648 9.41 24.137-20.137-17.465Zm0 0"/><path fill="#fefcfe" d="m212.254 298.035-6.824 11.586-5.762-12.785Zm0 0"/><path fill="#fefcfe" d="m212.254 298.035 12.883 24.34-19.707-12.754Zm0 0"/><path fill="#fefcfe" d="m225.137 322.375-12.883-24.34 16.516 15.504Zm0 0"/><path fill="#fdcf83" d="m228.77 313.54 20.207-12.755L244 319.82Zm0 0"/><path fill="#33406e" d="m248.977 300.785 10.718 3.55L244 319.82Zm0 0"/><path fill="#d3bc82" d="m254.93 204.992-.043 11.352-11.383-.774Zm0 0"/><path fill="#fefcfe" d="m254.887 216.344.043-11.352 9.984.02ZM189.54 217.379l23.757 7.746-15.781 10.012Zm0 0"/><path fill="#fefaf8" d="m213.297 225.125-23.758-7.746 16.703-7.465Zm0 0"/><path fill="#fefbfb" d="m112.23 104.105 10.715-5.578 5.73 19.485Zm0 0"/><path fill="#fef9f6" d="m103.855 57.418 11.7 23.277-7.414 6.297Zm0 0"/><path fill="#236992" d="m115.555 80.695-11.7-23.277 25.743-10.355Zm0 0"/><path fill="#1f6b92" d="m132.64 84.504-17.085-3.809 14.043-33.632Zm0 0"/><path fill="#fefcfe" d="m120.227 147.418 9.43-8.04 1.855 16.161Zm0 0"/><path fill="#196d93" d="m100.96 147.379 19.267.039 2.488 15.066Zm0 0"/><path fill="#fefcfe" d="m120.227 147.418 11.285 8.121-8.797 6.945Zm0 0"/><path fill="#1a6d92" d="m120.227 147.418-19.266-.04 15.305-18.706Zm0 0"/><path fill="#fefbfb" d="m129.656 139.379-9.43 8.039-3.96-18.746Zm0 0"/><path fill="#fefcfe" d="m137.004 136.023-7.348 3.356-.98-21.367Zm0 0"/><path fill="#186c91" d="m144.785 158.7 7.102-10.688 14.816 15.761Zm0 0"/><path fill="#fefcfe" d="m140.621 151.371 4.164 7.328-5.183 1.653Zm0 0"/><path fill="#1a6b90" d="m144.785 158.7-4.164-7.329 11.266-3.36Zm0 0"/><path fill="#147295" d="M151.887 148.012 177.695 129l-10.992 34.773Zm0 0"/><path fill="#176d92" d="m151.887 148.012-14.883-11.989L177.695 129Zm0 0"/><path fill="#fefcfe" d="m158.43 194.086-9.64 16.984-3.196-25.695Zm0 0"/><path fill="#fffdfe" d="m148.79 211.07-14.185-21.984 10.989-3.711Zm0 0"/><path fill="#fffcfe" d="m137.664 177.902 10.438-7.797-2.508 15.27Zm0 0"/><path fill="#fefcfe" d="m244.203 132.941 2.238-7.586 7.672 7.637Zm0 0"/><path fill="#176d91" d="m246.441 125.355-2.238 7.586-23.219-16.683Zm0 0"/><path fill="#156c90" d="m261.059 155.879 12.253 12.004L258.388 163Zm0 0"/><path fill="#1c6389" d="m261.059 155.879-1.29-6.973 4.141-.273Zm0 0"/><path fill="#fefcfe" d="m263.988 175.918 9.325-8.035 3.62 5.164Zm0 0"/><path fill="#1b648a" d="m261.254 145.168 7.898-1.563-5.242 5.028Zm0 0"/><path fill="#eacc96" d="m269.152 143.605-7.898 1.563 2.398-8.219Zm0 0"/><path fill="#fefcfc" d="m275.652 136-6.5 7.605-5.5-6.656Zm0 0"/><path fill="#166f93" d="m192.102 162.465 23.636 7.969-19.21 9.742Zm0 0"/><path fill="#fefcfe" d="m85.031 220.598 7.79-6.434 5.007 22.95Zm0 0"/><path fill="#fef2e2" d="m75.398 204.828-14.484-24.531 26.098 13.867Zm0 0"/><path fill="#1b688e" d="m59.508 209.941 25.523 10.657-35.164 6.382Zm0 0"/><path fill="#20678f" d="m59.508 209.941-9.64 17.04-13.177-52.387Zm0 0"/><path fill="#2b4c78" d="m122.168 301.988-16.008-24.98 19-1.895Zm0 0"/><path fill="#f7cd84" d="m125.184 239.191-22.133 4.407-5.223-6.485Zm0 0"/><path fill="#f1c980" d="m103.05 243.598 22.134-4.407 7.574 14.028Zm0 0"/><path fill="#156f93" d="m126.645 177.371 1.925 13.29-32.793-18.49Zm0 0"/><path fill="#fefcfe" d="m134.605 189.086-6.035 1.574-1.925-13.289Zm0 0"/><path fill="#176c91" d="m128.57 190.66-20.761 15.735-12.032-34.223Zm0 0"/><path fill="#196c90" d="m95.777 172.172 12.032 34.223-20.797-12.23Zm0 0"/><path fill="#fdd48d" d="m107.809 206.395-14.989 7.77-5.808-20Zm0 0"/><path fill="#1e638a" d="m275.566 102.383-22.113 6.09-5.148-39.028Zm0 0"/><path fill="#1f648c" d="m275.566 102.383-27.261-32.938 56.847 3.317Zm0 0"/><path fill="#18698e" d="m275.566 102.383 29.586-29.621-7.004 42.203ZM279.71 122.066l-4.144-19.683 22.582 12.582Zm0 0"/><path fill="#236387" d="m275.652 136-6.105-8.566 10.164-5.368Zm0 0"/><path fill="#fefcfc" d="m269.547 127.434 6.105 8.566-12 .95Zm0 0"/><path fill="#1f5f86" d="m326.469 129.664 18.902-.469-25.715 24.164Zm0 0"/><path fill="#fefcfd" d="m313.586 151.254 12.883-21.59-6.813 23.695Zm0 0"/><path fill="#205e85" d="m334 179.91-18.5-17.375 4.156-9.176Zm0 0"/><path fill="#1f5e85" d="m310.234 176.645 5.266-14.11L334 179.91Zm0 0"/><path fill="#1d5f86" d="m383.996 209.652.004 65.075-46.73.777Zm0 0"/><path fill="#1e5e85" d="m337.27 275.504-50.786.074 6.04-24.71Zm0 0"/><path fill="#fefcfe" d="m301.34 203.832-3.39 8.012-15.032-6.887Zm0 0"/><path fill="#1f5c84" d="m319.383 237.813 17.887 37.69-44.747-24.636Zm0 0"/><path fill="#1e5e85" d="m337.27 275.504-17.887-37.692 64.613-28.16Zm0 0"/><path fill="#1d6087" d="m384.004 384-44.379-.02L384 333.035Zm0 0"/><path fill="#1c6087" d="m339.625 383.98 8.902-49.738L384 333.035Zm0 0"/><path fill="#18668b" d="m142.965 335.238 11.96 16.04-24.581 3.503Zm0 0"/><path fill="#1e6489" d="m130.82 331.168 12.145 4.07-12.621 19.543Zm0 0"/><path fill="#18678c" d="m166.57 336.059 17.985 21.988-29.63-6.77Zm0 0"/><path fill="#216287" d="m142.965 335.238 23.605.82-11.644 15.22Zm0 0"/><path fill="#2a4e7a" d="m150.168 309.71-19.348 21.458-8.652-29.18Zm0 0"/><path fill="#16698e" d="m184.555 358.047 32.078-8.863L249.672 384Zm0 0"/><path fill="#216086" d="m216.633 349.184-17.035-13.942 14.851-.3Zm0 0"/><path fill="#1a6389" d="m199.598 335.242 17.035 13.942-32.078 8.863Zm0 0"/><path fill="#fefaf9" d="m199.063 308.39-7.297-6.452 7.902-5.102Zm0 0"/><path fill="#2b4f7a" d="m199.063 308.39 4.218 18.063-12.047-.976Zm0 0"/><path fill="#fefcfe" d="m203.281 326.453 21.856-4.078-10.688 12.566Zm0 0"/><path fill="#304774" d="m225.137 322.375-21.856 4.078 2.149-16.832Zm0 0"/><path fill="#304673" d="m203.281 326.453-4.219-18.062 6.368 1.23Zm0 0"/><path fill="#fefcfe" d="m199.598 335.242 3.683-8.789 11.168 8.488Zm0 0"/><path fill="#fefcfe" d="m203.281 326.453-3.683 8.79-8.364-9.766Zm0 0"/><path fill="#156f93" d="m208.973 192.797 6.765-22.363 7.535 8.515Zm0 0"/><path fill="#176c91" d="m215.738 170.434-6.765 22.363-12.446-12.621Zm0 0"/><path fill="#294f7a" d="m142.84 285.977-20.672 16.011 2.992-26.875Zm0 0"/><path fill="#b5aa83" d="m162.445 270.363 20.278-9.043-.664 30.028Zm0 0"/><path fill="#fbcf83" d="m284.207 162.016 2.648-5.207 8.118 7.921Zm0 0"/><path fill="#fdd287" d="m286.855 156.809 3.297-1.684 4.82 9.605Zm0 0"/><path fill="#fefaf8" d="m275.652 136 11.203 20.809-17.703-13.204Zm0 0"/><path fill="#fefcfe" d="M286.855 156.809 275.652 136l14.5 19.125Zm0 0"/><path fill="#1c658b" d="m269.691 151.34 14.516 10.676-10.894 5.867Zm0 0"/><path fill="#17698e" d="m269.691 151.34-8.632 4.539 2.851-7.246Zm0 0"/><path fill="#166a8f" d="m261.059 155.879 8.632-4.54 3.622 16.544Zm0 0"/><path fill="#feeed6" d="m269.691 151.34 17.164 5.469-2.648 5.207Zm0 0"/><path fill="#1a668b" d="m269.691 151.34-5.78-2.707 5.241-5.028Zm0 0"/><path fill="#d4bd8a" d="m286.855 156.809-17.164-5.47-.539-7.734Zm0 0"/><path fill="#fccf81" d="m291.793 170.992-7.586-8.976 10.766 2.714Zm0 0"/><path fill="#fefcfe" d="m284.207 162.016 7.586 8.976-14.86 2.055Zm0 0"/><path fill="#fffdfe" d="m249.676 167.277-.145 11.817-10.293-2.918Zm0 0"/><path fill="#166f93" d="m231.105 173.371-7.832 5.578-7.535-8.515Zm0 0"/><path fill="#1b6e90" d="m223.273 178.95 7.832-5.579-1.89 10.305Zm0 0"/><path fill="#fefcfe" d="m244.879 199.496-3.965-11.184 15.152 2.93ZM274.55 188.36l-18.484 2.882 2.329-11.816Zm0 0"/><path fill="#fefcfe" d="m256.066 191.242 18.485-2.883-9.637 16.653Zm0 0"/><path fill="#fefcfe" d="m274.55 188.36-10.562-12.442 12.946-2.871Zm0 0"/><path fill="#fefcfe" d="m263.988 175.918 10.563 12.441-16.156-8.933ZM213.297 225.125l3.144 16.906-18.925-6.894Zm0 0"/><path fill="#344470" d="m241.895 336.094-10.782-11.727L244 319.82Zm0 0"/><path fill="#33416f" d="m268.242 334.621-26.347 1.473L244 319.82Zm0 0"/><path fill="#2f4774" d="m231.113 324.367 10.782 11.727-11.805-10Zm0 0"/><path fill="#324773" d="m241.895 336.094-15.18-.09 3.375-9.91Zm0 0"/><path fill="#343f6e" d="m268.242 334.621 18.242-59.043 28.715 56.98Zm0 0"/><path fill="#fbf8f7" d="m202.86 278.785 9.394 19.25-12.586-1.2Zm0 0"/><path fill="#fefcfe" d="m212.254 298.035-9.395-19.25 14.282 6.184Zm0 0"/><path fill="#768f88" d="m157.543 256.09 9.5-15.164 15.68 20.394Zm0 0"/><path fill="#8c9b87" d="m157.543 256.09-5.29-15.106 14.79-.058Zm0 0"/><path fill="#fefcfe" d="m226.363 290.27-14.11 7.765 4.888-13.066ZM212.254 298.035l14.11-7.765 2.406 23.27Zm0 0"/><path fill="#dbbb7f" d="m226.363 290.27 22.614 10.515-20.207 12.754Zm0 0"/><path fill="#373b6b" d="m286.484 275.578 50.786-.074-22.07 57.055Zm0 0"/><path fill="#373a6a" d="m315.2 332.559 22.07-57.055 11.257 58.738Zm0 0"/><path fill="#33416f" d="m259.695 304.336 26.79-28.758-18.243 59.043Zm0 0"/><path fill="#33406f" d="m259.695 304.336 8.547 30.285-24.242-14.8Zm0 0"/><path fill="#d1bb82" d="m243.504 215.57 11.383.774-6.559 12.422Zm0 0"/><path fill="#137295" d="m182.293 178.371-14.238 6.309-1.352-20.907Zm0 0"/><path fill="#fffcfe" d="m189.54 217.379 5.526-16.879 11.176 9.414ZM195.066 200.5l-5.527 16.879-6.195-14.36Zm0 0"/><path fill="#fefcfe" d="m161.094 218.969 4.5-7.164 23.945 5.574Zm0 0"/><path fill="#fefcfe" d="m165.594 211.805 17.75-8.785 6.195 14.359Zm0 0"/><path fill="#fef9f4" d="m118.395 89.965-6.165 14.14-4.09-17.113Zm0 0"/><path fill="#fefbfa" d="m118.395 89.965 4.55 8.562-10.715 5.578Zm0 0"/><path fill="#fef8f2" d="m115.555 80.695 2.84 9.27-10.254-2.973Zm0 0"/><path fill="#22668e" d="m122.945 98.527-4.55-8.562 14.246-5.461Zm0 0"/><path fill="#23678f" d="m118.395 89.965-2.84-9.27 17.086 3.809Zm0 0"/><path fill="#fefcfe" d="m129.656 139.379 10.965 11.992-9.11 4.168Zm0 0"/><path fill="#fefcfe" d="m137.004 136.023 3.617 15.348-10.965-11.992Zm0 0"/><path fill="#196b91" d="m151.887 148.012-11.266 3.36-3.617-15.349Zm0 0"/><path fill="#206890" d="m122.945 98.527 24.508 10.543-18.777 8.942Zm0 0"/><path fill="#1a6c92" d="m147.453 109.07-10.45 26.953-8.327-18.011Zm0 0"/><path fill="#176e93" d="m137.004 136.023 10.45-26.953L177.694 129Zm0 0"/><path fill="#1a6c92" d="m147.453 109.07 35.688-43.402L177.695 129Zm0 0"/><path fill="#1f6b93" d="m147.453 109.07-14.812-24.566 50.5-18.836Zm0 0"/><path fill="#206a92" d="m147.453 109.07-24.508-10.543 9.696-14.023Zm0 0"/><path fill="#fefcfe" d="m140.621 151.371-1.02 8.98-8.09-4.812Zm0 0"/><path fill="#fffcfe" d="m148.102 170.105-13.98-3.035 5.48-6.718Zm0 0"/><path fill="#fefcfe" d="m144.785 158.7 3.317 11.405-8.5-9.753ZM134.121 167.07l13.98 3.035-10.437 7.797Zm0 0"/><path fill="#176c91" d="m148.102 170.105-3.317-11.406 21.918 5.074Zm0 0"/><path fill="#fefcfe" d="m247.09 139.102-2.887-6.16 9.91.05Zm0 0"/><path fill="#fefbfb" d="m253.848 143.672-6.758-4.57 7.023-6.11Zm0 0"/><path fill="#fefcfe" d="m247.09 139.102 6.758 4.57-12.102 4.558Zm0 0"/><path fill="#1b688e" d="m233.16 144.344 8.02-5.219.566 9.105Zm0 0"/><path fill="#fefcfd" d="m241.18 139.125 5.91-.023-5.344 9.128Zm0 0"/><path fill="#fefcfd" d="m247.09 139.102-5.91.023 3.023-6.184Zm0 0"/><path fill="#dec081" d="m251.875 155.738 9.184.14-2.672 7.122Zm0 0"/><path fill="#e5c481" d="m249.676 167.277 2.199-11.539 6.512 7.262Zm0 0"/><path fill="#fffcfe" d="m251.875 155.738-2.2 11.54-7.292-8.86Zm0 0"/><path fill="#e2c180" d="m261.059 155.879-9.184-.14 7.895-6.833Zm0 0"/><path fill="#e9c480" d="m259.77 148.906-7.895 6.832 1.973-12.066Zm0 0"/><path fill="#fffcfe" d="m241.746 148.23 10.129 7.508-9.492 2.68Zm0 0"/><path fill="#fefcfe" d="m251.875 155.738-10.129-7.508 12.102-4.558Zm0 0"/><path fill="#dec081" d="m249.531 179.094 8.184-7.77.68 8.102Zm0 0"/><path fill="#1e6d8e" d="m257.715 171.324 6.273 4.594-5.593 3.508Zm0 0"/><path fill="#e4c381" d="m257.715 171.324-8.04-4.047 8.712-4.277Zm0 0"/><path fill="#dcbf81" d="m249.676 167.277 8.039 4.047-8.184 7.77Zm0 0"/><path fill="#156c90" d="m273.313 167.883-15.598 3.441.672-8.324Zm0 0"/><path fill="#146d91" d="m263.988 175.918-6.273-4.594 15.598-3.441Zm0 0"/><path fill="#237692" d="m236.547 164.805-5.442 8.566-3.074-9.945Zm0 0"/><path fill="#fefbfc" d="m231.105 173.371 5.442-8.566 2.691 11.37Zm0 0"/><path fill="#fffdfe" d="m236.547 164.805 13.129 2.472-10.438 8.899Zm0 0"/><path fill="#fffcfe" d="m249.676 167.277-13.13-2.472 5.837-6.387Zm0 0"/><path fill="#196b90" d="m241.746 148.23-6.258 8.149-2.328-12.035Zm0 0"/><path fill="#186d92" d="m233.16 144.344 2.328 12.035-19.644-7.059Zm0 0"/><path fill="#166e93" d="m235.488 156.379-7.457 7.047-12.187-14.106Zm0 0"/><path fill="#1a6e90" d="m235.488 156.379 1.059 8.426-8.516-1.38Zm0 0"/><path fill="#fefcfd" d="m235.488 156.379 6.258-8.149.637 10.188ZM236.547 164.805l-1.059-8.426 6.895 2.039Zm0 0"/><path fill="#147195" d="m177.695 129 14.407 33.465-25.399 1.308Zm0 0"/><path fill="#157296" d="m192.102 162.465-9.809 15.906-15.59-14.598Zm0 0"/><path fill="#157094" d="m192.102 162.465 4.425 17.71-14.234-1.804Zm0 0"/><path fill="#1e688f" d="m60.914 180.297-1.406 29.644-22.817-35.347Zm0 0"/><path fill="#1d668d" d="m59.508 209.941 1.406-29.644 14.484 24.531Zm0 0"/><path fill="#fefcfe" d="m75.398 204.828 17.422 9.336-7.789 6.434Zm0 0"/><path fill="#1d658c" d="m59.508 209.941 15.89-5.113 9.633 15.77Zm0 0"/><path fill="#fefcfe" d="m92.82 214.164-17.422-9.336 11.614-10.664ZM92.82 214.164l13.922 9.477-8.914 13.472Zm0 0"/><path fill="#fefaf9" d="m106.742 223.64 18.442 15.551-27.356-2.078Zm0 0"/><path fill="#fbd99f" d="m107.809 206.395-1.067 17.246-13.922-9.477Zm0 0"/><path fill="#1e6087" d="m326.469 129.664-3.961-17.934 22.863 17.465Zm0 0"/><path fill="#fefcfe" d="m305.18 160.242-2 13.852-8.207-9.364ZM305.18 160.242l-15.028-5.117 12.352-7.727Zm0 0"/><path fill="#fefbfc" d="m290.152 155.125 15.028 5.117-10.207 4.488Zm0 0"/><path fill="#fefcfe" d="m303.18 174.094 2-13.852 5.054 16.403Zm0 0"/><path fill="#fefcfe" d="m305.18 160.242 10.32 2.293-5.266 14.11Zm0 0"/><path fill="#205b83" d="m279.984 252.71 6.5 22.868-23.308-19.77Zm0 0"/><path fill="#1e5e86" d="m286.484 275.578-6.5-22.867 12.54-1.844Zm0 0"/><path fill="#215b83" d="m279.984 252.71.477-6.94 12.062 5.097Zm0 0"/><path fill="#205c84" d="m319.383 237.813-26.86 13.054-2.421-12.738Zm0 0"/><path fill="#225981" d="m315.117 217.297 4.266 20.516-29.281.316Zm0 0"/><path fill="#235780" d="m315.117 217.297-17.168-5.453 3.39-8.012Zm0 0"/><path fill="#235780" d="m297.95 211.844 17.167 5.453-25.015 20.832Zm0 0"/><path fill="#205c84" d="m334 179.91-18.883 37.387-13.777-13.465Zm0 0"/><path fill="#1e5f86" d="M315.117 217.297 334 179.91l49.996 29.742Zm0 0"/><path fill="#1f5d85" d="m319.383 237.813-4.266-20.516 68.88-7.645Zm0 0"/><path fill="#27547e" d="m144.309 330.031-1.344 5.207-12.145-4.07Zm0 0"/><path fill="#2a4e79" d="m150.168 309.71-5.86 20.321-13.488 1.137Zm0 0"/><path fill="#fefcfe" d="m144.309 330.031 5.859-20.32 15.52 12.773Zm0 0"/><path fill="#fefcfe" d="m166.57 336.059-22.261-6.028 21.379-7.547Zm0 0"/><path fill="#fefcfe" d="m144.309 330.031 22.261 6.028-23.605-.82Zm0 0"/><path fill="#2a4e79" d="m145.426 292.223-23.258 9.765 20.672-16.011Zm0 0"/><path fill="#fdfbfc" d="m149.379 290.758-3.953 1.465-2.586-6.246Zm0 0"/><path fill="#2d4d79" d="m150.168 309.71 22.086 7.231-6.566 5.543Zm0 0"/><path fill="#2c4d79" d="m183.39 312.75 15.673-4.36-7.829 17.087Zm0 0"/><path fill="#2e4e7a" d="m183.39 312.75 8.376-10.812 7.297 6.453Zm0 0"/><path fill="#e9c785" d="m203.348 197.91 17.894 10.156-15 1.848Zm0 0"/><path fill="#fefcfe" d="m195.066 200.5 8.282-2.59 2.894 12.004Zm0 0"/><path fill="#ebcc90" d="m203.348 197.91 5.625-5.113 12.27 15.27Zm0 0"/><path fill="#fbd188" d="m208.973 192.797-5.625 5.113-6.82-17.734Zm0 0"/><path fill="#fefcfe" d="m203.348 197.91-8.282 2.59 1.461-20.324Zm0 0"/><path fill="#fffdfe" d="m224.695 200.934 20.184-1.438-12.024 13.57Zm0 0"/><path fill="#fefcfe" d="m221.242 208.066 3.453-7.132 8.16 12.132Zm0 0"/><path fill="#fffcfe" d="m224.695 200.934 16.22-12.621 3.964 11.183Zm0 0"/><path fill="#1e688c" d="m208.973 192.797 15.722 8.137-3.453 7.132Zm0 0"/><path fill="#788e88" d="m167.043 240.926 26.406 13.722-10.726 6.672Zm0 0"/><path fill="#fefcfe" d="m193.45 254.648-21.079-22.132 25.145 2.62Zm0 0"/><path fill="#fefcfe" d="m172.371 232.516 21.078 22.132-26.406-13.722Zm0 0"/><path fill="#2a4e79" d="m138.168 272.543 4.672 13.434-17.68-10.864Zm0 0"/><path fill="#fefcfd" d="m138.168 272.543 11.625 9.91-6.953 3.524Zm0 0"/><path fill="#fefcfe" d="m149.793 282.453-11.625-9.91 15.23 4.41ZM149.793 282.453l-.414 8.305-6.54-4.781Zm0 0"/><path fill="#fdd083" d="m303.18 174.094-11.387-3.102 3.18-6.262Zm0 0"/><path fill="#156f93" d="m168.055 184.68 9.449 13.648-19.074-4.242Zm0 0"/><path fill="#19688d" d="m177.504 198.328-11.91 13.477-7.164-17.72Zm0 0"/><path fill="#fefcfe" d="m165.594 211.805 11.91-13.477 5.84 4.692Zm0 0"/><path fill="#33416f" d="m257.18 275.992 2.515 28.344-10.718-3.55Zm0 0"/><path fill="#205b83" d="m286.484 275.578-29.304.414 5.996-20.183Zm0 0"/><path fill="#33416f" d="m257.18 275.992 29.304-.414-26.789 28.758Zm0 0"/><path fill="#cbb682" d="m206.242 209.914 15-1.848-7.945 17.059Zm0 0"/><path fill="#fcf8f7" d="m191.766 301.938-9.707-10.59 17.609 5.488Zm0 0"/><path fill="#fefcfe" d="m182.059 291.348 20.8-12.563-3.191 18.05Zm0 0"/><path fill="#b7ab82" d="m162.445 270.363-4.902-14.273 25.18 5.23Zm0 0"/><path fill="#919c87" d="m152.254 240.984 4.262-8.136 10.527 8.078Zm0 0"/><path fill="#fefcfe" d="m232.855 213.066-19.558 12.059 7.945-17.059Zm0 0"/><path fill="#d5be82" d="m254.887 216.344-2.301 13.328-4.258-.906Zm0 0"/><path fill="#fefcfe" d="m265.332 221.719-10.445-5.375 10.027-11.332Zm0 0"/><path fill="#fefcfe" d="m265.332 221.719-.418-16.707 18.004-.055Zm0 0"/><path fill="#166d92" d="m153.863 180.395-5.761-10.29 18.601-6.332Zm0 0"/><path fill="#146f93" d="m168.055 184.68-14.192-4.285 12.84-16.622Zm0 0"/><path fill="#fefcfe" d="m148.102 170.105 5.761 10.29-8.27 4.98Zm0 0"/><path fill="#fefcfd" d="m153.863 180.395 4.567 13.69-12.836-8.71Zm0 0"/><path fill="#196a8f" d="m158.43 194.086-4.567-13.691 14.192 4.285Zm0 0"/><path fill="#fefcfe" d="m172.371 232.516-11.277-13.547 28.445-1.59ZM172.371 232.516l17.168-15.137 7.977 17.758Zm0 0"/><path fill="#fefbfc" d="m160.668 211.95-11.879-.88 9.64-16.984Zm0 0"/><path fill="#fefbfa" d="m165.594 211.805-4.926.144-2.238-17.863Zm0 0"/><path fill="#235d83" d="m132.758 253.219 5.41 19.324-13.008 2.57Zm0 0"/><path fill="#fefcfd" d="m138.168 272.543-5.41-19.324 11.941 12.601Zm0 0"/><path fill="#e6c687" d="m125.184 239.191 13.007 10.348-5.433 3.68Zm0 0"/><path fill="#1a6a8f" d="m241.18 139.125-20.196-22.867 23.22 16.683Zm0 0"/><path fill="#1a6a90" d="m220.984 116.258 20.196 22.867-8.02 5.219Zm0 0"/><path fill="#176c91" d="m220.984 116.258 12.176 28.086-17.316 4.976Zm0 0"/><path fill="#156f93" d="m179.047 188.965-10.992-4.285 14.238-6.309Zm0 0"/><path fill="#186c91" d="m179.047 188.965-1.543 9.363-9.45-13.648Zm0 0"/><path fill="#aba684" d="m134.105 221.258 12.243 9.097-21.164 8.836Zm0 0"/><path fill="#d8c18d" d="m134.105 221.258-27.363 2.383 1.067-17.246Zm0 0"/><path fill="#b1ad8e" d="m106.742 223.64 27.363-2.382-8.921 17.933Zm0 0"/><path fill="#fefcfe" d="m305.18 160.242 8.406-8.988 1.914 11.281Zm0 0"/><path fill="#fefcfd" d="m315.5 162.535-1.914-11.281 6.07 2.105Zm0 0"/><path fill="#fefcfe" d="m313.586 151.254-8.406 8.988-2.676-12.844Zm0 0"/><path fill="#1c6187" d="m315.2 332.559 33.327 1.683-8.902 49.738Zm0 0"/><path fill="#16698d" d="m249.672 384 65.527-51.441 24.426 51.421Zm0 0"/><path fill="#fefcfd" d="m172.254 316.941.773 10.23-7.34-4.687Zm0 0"/><path fill="#fefcfe" d="m173.027 327.172-6.457 8.887-.882-13.575Zm0 0"/><path fill="#176c91" d="m229.215 183.676-20.242 9.12 14.3-13.847Zm0 0"/><path fill="#186b90" d="m229.215 183.676-4.52 17.258-15.722-8.137Zm0 0"/><path fill="#fefcfe" d="m224.695 200.934 4.52-17.258 11.7 4.637Zm0 0"/><path fill="#fefbfc" d="m138.168 272.543 6.531-6.723 8.7 11.133Zm0 0"/><path fill="#bfb587" d="M153.398 276.953 144.7 265.82l17.746 4.543Zm0 0"/><path fill="#bfb485" d="m144.7 265.82 12.843-9.73 4.902 14.273Zm0 0"/><path fill="#1e6188" d="m275.652 136 15.98-.473-1.48 19.598Zm0 0"/><path fill="#1c6389" d="m279.71 122.066 11.923 13.461-15.98.473Zm0 0"/><path fill="#215f85" d="m290.152 155.125 1.48-19.598 10.872 11.871Zm0 0"/><path fill="#e6c381" d="m245.852 271.648-19.489 18.622-.664-23.774Zm0 0"/><path fill="#e3bd7e" d="m226.363 290.27 19.489-18.622 3.125 29.137Zm0 0"/><path fill="#fecf80" d="m245.852 271.648 11.328 4.344-8.203 24.793Zm0 0"/><path fill="#dbc084" d="m245.852 271.648-20.153-5.152 24.29-25.144Zm0 0"/><path fill="#146c90" d="M268.242 334.621 249.672 384l-7.777-47.906Zm0 0"/><path fill="#c7bb95" d="m144.7 265.82-6.509-16.28 19.352 6.55Zm0 0"/><path fill="#d4c090" d="m138.191 249.54 6.508 16.28-11.941-12.601Zm0 0"/><path fill="#fefcfe" d="m156.516 232.848 15.855-.332-5.328 8.41ZM172.371 232.516l-15.855.332 4.578-13.88Zm0 0"/><path fill="#e7c480" d="m276.688 247.563-16.434 6.488 10.172-16.375Zm0 0"/><path fill="#dbbd80" d="m260.254 254.05 16.433-6.488-13.511 8.247Zm0 0"/><path fill="#1d6187" d="m276.688 247.563 3.296 5.148-16.808 3.098Zm0 0"/><path fill="#245981" d="m279.984 252.71-3.296-5.148 3.773-1.792Zm0 0"/><path fill="#edc680" d="m276.688 247.563-6.262-9.887 10.035 8.094Zm0 0"/><path fill="#d2ba82" d="m252.586 229.672-2.598 11.68-1.66-12.586Zm0 0"/><path fill="#fef8f3" d="m249.988 241.352 2.598-11.68 17.84 8.004Zm0 0"/><path fill="#e2c282" d="m260.254 254.05-10.266-12.698 20.438-3.676Zm0 0"/><path fill="#f9f6f2" d="m252.586 229.672 12.746-7.953 5.094 15.957Zm0 0"/><path fill="#fcfafa" d="m265.332 221.719 15.285 3.41-10.191 12.547Zm0 0"/><path fill="#fefbfb" d="m265.332 221.719-12.746 7.953 2.3-13.328Zm0 0"/><path fill="#909883" d="m146.348 230.355-8.157 19.184-13.007-10.348Zm0 0"/><path fill="#fefcfe" d="m177.504 198.328 7.86-6.855-2.02 11.547Zm0 0"/><path fill="#226f90" d="m179.047 188.965 6.316 2.508-7.86 6.855Zm0 0"/><path fill="#fefcfe" d="m183.344 203.02 2.02-11.547 9.702 9.027Zm0 0"/><path fill="#fefcfe" d="m185.363 191.473 11.164-11.297-1.46 20.324Zm0 0"/><path fill="#156f92" d="m196.527 180.176-11.164 11.297-3.07-13.102Zm0 0"/><path fill="#176d91" d="m185.363 191.473-6.316-2.508 3.246-10.594Zm0 0"/><path fill="#fefcfe" d="m134.105 221.258 15.903 2.008-3.66 7.09Zm0 0"/><path fill="#156c90" d="m128.57 190.66 5.535 30.598-26.296-14.863Zm0 0"/><path fill="#fefcfe" d="m134.105 221.258-5.535-30.598 6.035-1.574Zm0 0"/><path fill="#fefcfe" d="m148.79 211.07-14.685 10.188.5-32.172Zm0 0"/><path fill="#fefcfe" d="m150.008 223.266-15.903-2.008 14.684-10.188Zm0 0"/><path fill="#fefcfe" d="m156.516 232.848-10.168-2.493 3.66-7.09Zm0 0"/><path fill="#fefbfa" d="m160.668 211.95.426 7.019-12.305-7.899Zm0 0"/><path fill="#fefbfb" d="m161.094 218.969-11.086 4.297-1.219-12.196Zm0 0"/><path fill="#fefcfe" d="m161.094 218.969-4.578 13.879-6.508-9.582Zm0 0"/><path fill="#f4dfbb" d="m161.094 218.969-.426-7.02 4.926-.144Zm0 0"/><path fill="#156b90" d="m298.148 114.965-6.515 20.562-11.922-13.46Zm0 0"/><path fill="#16698e" d="M315.2 332.559 249.671 384l18.57-49.379Zm0 0"/><path fill="#1f6187" d="m166.57 336.059 16.246-2.172 1.739 24.16Zm0 0"/><path fill="#fefcfe" d="m173.027 327.172 9.79 6.715-16.247 2.172Zm0 0"/><path fill="#215e84" d="m182.816 333.887 16.782 1.355-15.043 22.805Zm0 0"/><path fill="#fefcfe" d="m199.598 335.242-16.782-1.355 8.418-8.41Zm0 0"/><path fill="#2a507b" d="m145.426 292.223 4.742 17.488-28-7.723Zm0 0"/><path fill="#fefcfe" d="m149.379 290.758.789 18.953-4.742-17.488Zm0 0"/><path fill="#c0b389" d="m165.664 288.887-12.266-11.934 9.047-6.59Zm0 0"/><path fill="#c0b48e" d="m165.664 288.887-3.219-18.524 19.614 20.985Zm0 0"/><path fill="#2d4d79" d="m173.79 305.516 9.6 7.234-11.136 4.191Zm0 0"/><path fill="#314a77" d="m150.168 309.71 23.621-4.194-1.535 11.425Zm0 0"/><path fill="#ddd7c8" d="m173.79 305.516-23.622 4.195 15.496-20.824Zm0 0"/><path fill="#d3b884" d="m179.469 303.16-13.805-14.273 16.395 2.46Zm0 0"/><path fill="#dac396" d="m179.469 303.16-5.68 2.356-8.125-16.63Zm0 0"/><path fill="#2d4e7a" d="m173.79 305.516 5.679-2.356 3.922 9.59Zm0 0"/><path fill="#c4af86" d="m179.469 303.16 2.59-11.812 9.707 10.59Zm0 0"/><path fill="#2e4d7a" d="m183.39 312.75-3.921-9.59 12.297-1.223Zm0 0"/><path fill="#fdcf80" d="m260.254 254.05-14.402 17.598 4.136-30.296Zm0 0"/><path fill="#f9cc80" d="m257.18 275.992 3.074-21.941 2.922 1.758Zm0 0"/><path fill="#fcce80" d="m245.852 271.648 14.402-17.597-3.074 21.941Zm0 0"/><path fill="#f0e4cf" d="m238.977 234.414-13.278 32.082-9.258-24.465Zm0 0"/><path fill="#f1e1c6" d="m213.297 225.125 25.68 9.29-22.536 7.616Zm0 0"/><path fill="#e0c386" d="m225.7 266.496 13.277-32.082 11.011 6.938Zm0 0"/><path fill="#d8bd82" d="m249.988 241.352-11.011-6.938 9.351-5.648Zm0 0"/><path fill="#f3c980" d="m270.426 237.676 14.508 2.183-4.473 5.91Zm0 0"/><path fill="#fefcfe" d="m280.617 225.129 4.317 14.73-14.508-2.183Zm0 0"/><path fill="#225b83" d="m284.934 239.86 7.59 11.007-12.063-5.097Zm0 0"/><path fill="#225981" d="m292.523 250.867-7.59-11.008 5.169-1.73Zm0 0"/><path fill="#889686" d="m138.191 249.54 14.063-8.556 5.289 15.106Zm0 0"/><path fill="#899584" d="m146.348 230.355 5.906 10.63-14.063 8.554Zm0 0"/><path fill="#909684" d="m156.516 232.848-4.262 8.136-5.906-10.629Zm0 0"/><path fill="#2d4a76" d="m179.785 321.61 3.606-8.86 7.843 12.727Zm0 0"/><path fill="#fefcfe" d="m182.816 333.887-3.03-12.278 11.448 3.868Zm0 0"/><path fill="#2b4f7a" d="m183.39 312.75-3.605 8.86-7.531-4.669Zm0 0"/><path fill="#fefbfd" d="m179.785 321.61-6.758 5.562-.773-10.23Zm0 0"/><path fill="#fefcfe" d="m179.785 321.61 3.031 12.277-9.789-6.715Zm0 0"/><path fill="#fcf9f9" d="m149.379 290.758 16.285-1.871-15.496 20.824ZM153.398 276.953l12.266 11.934-15.871-6.434Zm0 0"/><path fill="#fefbfd" d="m165.664 288.887-16.285 1.87.414-8.304Zm0 0"/><path fill="#dfc081" d="m238.977 234.414 4.527-18.844 4.824 13.196Zm0 0"/><path fill="#fefcfe" d="m232.855 213.066 6.122 21.348-25.68-9.289ZM238.977 234.414l-6.122-21.348 10.649 2.504ZM280.617 225.129l-15.285-3.41 17.586-16.762Zm0 0"/><path fill="#fefcfe" d="m297.95 211.844-17.333 13.285 2.301-20.172Zm0 0"/><path fill="#fefcfe" d="m280.617 225.129 17.332-13.285-7.847 26.285Zm0 0"/><path fill="#fefbfb" d="m284.934 239.86-4.317-14.731 9.485 13Zm0 0"/><path fill="#1d6188" d="m322.508 111.73-12.52 28.293-11.84-25.058Zm0 0"/><path fill="#1d638a" d="m291.633 135.527 18.355 4.496-7.484 7.375Zm0 0"/><path fill="#1c648a" d="m298.148 114.965 11.84 25.058-18.355-4.496Zm0 0"/><path fill="#fefcfe" d="m309.988 140.023 3.598 11.23-11.082-3.855Zm0 0"/><path fill="#fefcfe" d="m309.988 140.023 16.48-10.359-12.882 21.59Zm0 0"/><path fill="#215c85" d="m309.988 140.023 12.52-28.293 3.96 17.934Zm0 0"/></svg>