<svg xmlns="http://www.w3.org/2000/svg" width="512" height="512" viewBox="0 0 384 384"><path fill="#5b0a91" d="m46.145 274.223-12.047 40.71L0 273.27ZM50.844 91.46l7.664 48.376L0 133.789ZM292.21 46.125 261.778 77.02 251.191 36.62Zm0 0"/><path fill="#5d0d92" d="M349.613 116.02 384 156.703l-44.602-1.535Zm0 0"/><path fill="#a595b6" d="m258.496 383.98-116.504.008 44.594-12.18Zm0 0"/><path fill="#5c0c91" d="M100.73 0h61.883l-29.847 34.613ZM196.047 61.512 223.84 0l27.351 36.621Zm0 0"/><path fill="#b8bcc5" d="m263.434 136.27-8.618-3.758 8.04-4.895Zm0 0"/><path fill="#5b0a91" d="m58.55 0-1.507 32.64L0 0ZM57.043 32.64l-6.2 58.82L0 63.384ZM69.66 168.078l-33.715 8.637 22.563-36.88ZM78.14 298.879l-44.042 16.055 12.047-40.711Zm0 0"/><path fill="#5b0b91" d="m77.324 253.504.817 45.375-31.996-24.656Zm0 0"/><path fill="#5b0a91" d="m78.14 298.879-17.3 38.484-26.742-22.43ZM99.969 268.738l-21.828 30.14-.817-45.374ZM35.945 176.715 0 202.085V133.79ZM0 202.086l35.945-25.371 4.227 51.719Zm0 0"/><path fill="#5c0c91" d="M223.84 0h47.008L251.19 36.621ZM251.191 36.621l10.586 40.399-65.73-15.508Zm0 0"/><path fill="#5b0b91" d="m261.777 77.02-26.699 26.664-39.031-42.172Zm0 0"/><path fill="#5b0a91" d="m270.848 0 21.363 46.125-41.02-9.504ZM292.21 46.125l16.919 46.09-47.352-15.195Zm0 0"/><path fill="#5d0e92" d="m384 156.703-42.973 35.75-1.629-37.285Zm0 0"/><path fill="#621894" d="m146.45 344.64.609 22.688-22.094-23.941Zm0 0"/><path fill="#631a95" d="m147.059 367.328-29.598-4.492 7.504-19.45Zm0 0"/><path fill="#651e96" d="m117.46 362.836 29.599 4.492-5.067 16.66Zm0 0"/><path fill="#9273ae" d="m141.992 383.988 5.067-16.66 39.527 4.48Zm0 0"/><path fill="#631a95" d="m98.016 384.004 19.445-21.168 24.531 21.152Zm0 0"/><path fill="#a290b4" d="m241.766 344.55 16.73 39.43-71.91-12.171Zm0 0"/><path fill="#5b0a91" d="M132.766 34.613 93.39 36.082 100.73 0Zm0 0"/><path fill="#5b0b91" d="M196.047 61.512 162.613 0h61.227Zm0 0"/><path fill="#5b0b91" d="m162.613 0 33.434 61.512-63.281-26.899Zm0 0"/><path fill="#5b0a91" d="M100.379 47.688 93.39 36.082l39.375-1.469Zm0 0"/><path fill="#b8bcc5" d="m115.223 115.18 13.285 5.617-12.696 10.055Zm0 0"/><path fill="#5b0a91" d="m123.238 164.64 5.024 16.516-15.766-.523Zm0 0"/><path fill="#b7bbc4" d="m263.434 136.27-6.618 4.015-2-7.773Zm0 0"/><path fill="#b8bcc5" d="m254.816 132.512 3.543-10.102 4.496 5.207ZM258.36 122.41l7.18-2.05-2.685 7.257Zm0 0"/><path fill="#5b0a91" d="m265.54 120.36-7.18 2.05-1.372-12.437ZM235.078 103.684l-32.101 26.976-6.93-69.148Zm0 0"/><path fill="#5b0a91" d="m202.977 130.66-40.633-18.52 33.703-50.628ZM202.977 130.66l-34.188 14.719-6.445-33.238ZM187.05 165.723l-18.26-20.344 34.187-14.719ZM57.043 32.64 0 63.384V0ZM100.73 0 57.043 32.64 58.551 0ZM100.73 0l-7.34 36.082-36.347-3.441ZM96.535 153.938l-4.36 26.878-22.515-12.738Zm0 0"/><path fill="#5b0a91" d="M92.176 180.816 80.742 190.93 69.66 168.078ZM40.172 228.434l37.152 25.07-31.18 20.719ZM101.871 244.875l-24.547 8.629L96.23 234.09ZM101.871 244.875l-1.902 23.863-22.645-15.234ZM91.387 335.137 78.14 298.879l35.125 18.285Zm0 0"/><path fill="#5b0a91" d="m78.14 298.879 13.247 36.258-30.547 2.226ZM0 273.27v-71.184l40.172 26.348ZM46.145 274.223 0 273.27l40.172-44.836ZM35.945 176.715 0 133.789l58.508 6.047ZM83.184 57.137 50.844 91.46l6.199-58.82Zm0 0"/><path fill="#5b0a91" d="M83.184 57.137 57.043 32.64l36.348 3.441ZM83.184 57.137l17.195-9.45 4.105 8.817Zm0 0"/><path fill="#5b0a91" d="m100.379 47.688-17.195 9.449L93.39 36.082ZM92.895 91.031l-9.711-33.894 21.3-.633Zm0 0"/><path fill="#5b0a91" d="m83.184 57.137 9.71 33.894-42.05.43ZM0 63.383 50.844 91.46 0 133.789ZM58.508 139.836l38.027 14.101-26.875 14.141Zm0 0"/><path fill="#5c0d92" d="M341.484 68.719 309.13 92.215l-16.918-46.09Zm0 0"/><path fill="#5b0a91" d="m280.215 110.91-14.676 9.45-8.55-10.387Zm0 0"/><path fill="#5e0f92" d="m384 225.09-42.973-32.637L384 156.703Zm0 0"/><path fill="#5d0e92" d="m329.742 171.98 9.656-16.812 1.63 37.285ZM349.613 116.02l34.367-22.844.02 63.527Zm0 0"/><path fill="#5b0a91" d="m325.098 234.48-13.575-24.011 29.504-18.016ZM311.523 210.469l-12.293-2.953 5.868-16.97Zm0 0"/><path fill="#5b0b91" d="m343.645 271.605 8.5 37.61-37.235-7.586Zm0 0"/><path fill="#5b0a91" d="m134.895 325.176-21.63-8.012 22.602-7.406Zm0 0"/><path fill="#5b0a91" d="m78.14 298.879 38.61-11.52-3.484 29.805Zm0 0"/><path fill="#5b0b91" d="m116.75 287.36-38.61 11.519 21.829-30.14Zm0 0"/><path fill="#5b0a91" d="m124.965 343.387-11.7-26.223 21.63 8.012Zm0 0"/><path fill="#5b0b91" d="m124.965 343.387-33.578-8.25 21.879-17.973Zm0 0"/><path fill="#6d2d9a" d="m161.488 345.938-14.43 21.39-.609-22.687Zm0 0"/><path fill="#5b0a91" d="m0 273.27 34.098 41.664L0 343.809Zm0 0"/><path fill="#5c0b91" d="m34.098 314.934-1.075 29.234L0 343.808Zm0 0"/><path fill="#661e96" d="m117.46 362.836-29.624-17.57 37.129-1.88Zm0 0"/><path fill="#641b95" d="m98.016 384.004-10.18-38.738 29.625 17.57Zm0 0"/><path fill="#b6b6bf" d="m60.84 337.363 26.996 7.903-27.398.14Zm0 0"/><path fill="#b4b1bc" d="m87.836 345.266 3.55-10.13 33.579 8.25Zm0 0"/><path fill="#b3abb6" d="m91.387 335.137-3.551 10.129-26.996-7.903Zm0 0"/><path fill="#5b0a91" d="m206.71 170.547-19.66-4.824 15.927-35.063Zm0 0"/><path fill="#5b0a91" d="m221.762 162.895-15.051 7.652-3.734-39.887Zm0 0"/><path fill="#b8bcc5" d="m272.25 218.59-15.832-24.676 24.871 7.777Zm0 0"/><path fill="#5b0b91" d="m231.375 324.734 2.875 10.45-22.805-.704Zm0 0"/><path fill="#5c0c91" d="m231.375 324.734-.09-11.847 13.168 9.09Zm0 0"/><path fill="#5b0a91" d="M108.582 89.266 92.895 91.03l11.59-34.527ZM92.895 91.031l15.687-1.765 1.883 12.48Zm0 0"/><path fill="#5b0a91" d="m104.484 56.504-4.105-8.816 32.387-13.075Zm0 0"/><path fill="#5b0b91" d="m141.992 76.285-37.508-19.781 28.282-21.89Zm0 0"/><path fill="#5c0b91" d="m196.047 61.512-54.055 14.773-9.226-41.672Zm0 0"/><path fill="#5b0a91" d="m141.992 76.285 54.055-14.773-33.703 50.629Zm0 0"/><path fill="#5b0a91" d="m134.816 101.207 7.176-24.922 20.352 35.856Zm0 0"/><path fill="#b8bcc5" d="m128.508 120.797-1.77 14.55-10.925-4.495ZM135.863 192.695l2.348-12.855 9.164 7.988ZM138.21 179.84l-2.347 12.855-7.601-11.539ZM130.8 161.86l-2.538 19.296-5.024-16.515Zm0 0"/><path fill="#b8bcc5" d="m130.8 161.86 7.41 17.98-9.948 1.316Zm0 0"/><path fill="#5b0a91" d="m244.445 126.094-9.367-22.41 21.91 6.289ZM258.36 122.41l-13.915 3.684 12.543-16.121Zm0 0"/><path fill="#b7bbc4" d="m244.445 126.094 13.914-3.684-3.543 10.102Zm0 0"/><path fill="#b8bbc4" d="m261.195 144.973-4.379-4.688 6.618-4.015Zm0 0"/><path fill="#b8bcc5" d="m265.54 120.36 5.808 8.07-8.493-.813Zm0 0"/><path fill="#5b0a91" d="m96.535 153.938 26.703 10.703-10.742 15.992Zm0 0"/><path fill="#5b0a91" d="m92.176 180.816 4.36-26.879 15.96 26.696ZM77.324 253.504l10.465-27.707 8.441 8.293ZM40.172 228.434l47.617-2.637-10.465 27.707ZM101.871 244.875l19.004 17.883-20.906 5.98ZM120.875 262.758l-19.004-17.883 30.465 7.32ZM115.223 115.18l-24.657 3.59 19.899-17.024ZM90.566 118.77l2.329-27.739 17.57 10.715Zm0 0"/><path fill="#5b0a91" d="m90.566 118.77 24.657-3.59.59 15.672Zm0 0"/><path fill="#5b0a91" d="m96.535 153.938-5.969-35.168 25.246 12.082Zm0 0"/><path fill="#5b0a91" d="m58.508 139.836 32.058-21.066 5.97 35.168ZM92.895 91.031l-2.329 27.739-39.722-27.31Zm0 0"/><path fill="#5b0a91" d="m90.566 118.77-32.058 21.066-7.664-48.375Zm0 0"/><path fill="#5d0e92" d="m349.613 116.02-8.129-47.301 42.496 24.457Zm0 0"/><path fill="#651e96" d="m384 0-.02 93.176-42.496-24.457Zm0 0"/><path fill="#5f1393" d="M325.137-.004 292.21 46.125 270.848 0Zm0 0"/><path fill="#611594" d="M325.137-.004 384 0l-42.516 68.719Zm0 0"/><path fill="#5e1093" d="M292.21 46.125 325.138-.004l16.347 68.723Zm0 0"/><path fill="#5b0a91" d="m261.777 77.02 18.438 33.89-23.227-.937Zm0 0"/><path fill="#5b0a91" d="m235.078 103.684 26.7-26.664-4.79 32.953ZM280.215 110.91l-8.867 17.52-5.809-8.07ZM325.098 234.48l15.93-42.027L384 225.09ZM352.145 309.215l-8.5-37.61L384 297.06ZM302.758 263.402l40.887 8.203-28.735 30.024Zm0 0"/><path fill="#5b0b91" d="m384 297.059.004 39.878-14.973-4.054Zm0 0"/><path fill="#5b0a91" d="M352.145 309.215 384 297.059l-14.969 35.824Zm0 0"/><path fill="#5b0a91" d="m342.152 332.371 9.993-23.156 16.886 23.668Zm0 0"/><path fill="#5b0a91" d="m352.145 309.215-9.993 23.156-27.242-30.742Zm0 0"/><path fill="#6b2999" d="m369.031 332.883 14.973 4.055-.004 47.058Zm0 0"/><path fill="#672297" d="m161.488 345.938 25.098 25.87-39.527-4.48Zm0 0"/><path fill="#71349c" d="m186.586 371.809-25.098-25.872 21.278-1.113Zm0 0"/><path fill="#5b0b91" d="m60.84 337.363-27.817 6.805 1.075-29.234Zm0 0"/><path fill="#b5b3bd" d="m33.023 344.168 27.817-6.805-.403 8.043Zm0 0"/><path fill="#682398" d="m45.11 384.004 42.726-38.738 10.18 38.738Zm0 0"/><path fill="#6a2799" d="m45.11 384.004-45.114-.008L0 343.81Zm0 0"/><path fill="#5f1293" d="m87.836 345.266-42.727 38.738 15.328-38.598Zm0 0"/><path fill="#641b95" d="m45.11 384.004-12.087-39.836 27.414 1.238Zm0 0"/><path fill="#651d96" d="M45.11 384.004 0 343.809l33.023.359Zm0 0"/><path fill="#b8bcc5" d="m214.965 224.816-16.41 33.79 4.828-43.391ZM267.813 172.59l15.03-10.406-4.886 21.644Zm0 0"/><path fill="#b8bcc5" d="m256.418 193.914 21.539-10.086 3.332 17.863ZM293.11 188.203l6.12 19.313-17.94-5.825Zm0 0"/><path fill="#b8bcc5" d="m277.957 183.828 15.152 4.375-11.82 13.488ZM293.11 188.203l-15.153-4.375 14.137-19.031ZM299.23 207.516l-6.12-19.313 11.988 2.344Zm0 0"/><path fill="#ad99a7" d="m250.328 175.5 6.09 18.414-8.422.176Zm0 0"/><path fill="#5b0a91" d="m206.71 170.547 15.052-7.652-2.41 18.68Zm0 0"/><path fill="#b8bcc5" d="m197.281 180.988 7.953 7.23-10.957 9.446ZM205.234 188.219l-.96 10.46-9.997-1.015ZM229.762 184.89l1.258-10.64 7.273 4.215Zm0 0"/><path fill="#5b0b91" d="m221.762 162.895 9.258 11.355-11.668 7.324Zm0 0"/><path fill="#b8bcc5" d="m247.996 194.09-18.234-9.2 8.531-6.425Zm0 0"/><path fill="#b8bcc5" d="m250.328 175.5-2.332 18.59-9.703-15.625Zm0 0"/><path fill="#5b0a91" d="m206.71 170.547-9.429 10.441-10.23-15.265ZM205.234 188.219l1.477-17.672 12.64 11.027ZM206.71 170.547l-1.476 17.672-7.953-7.23Zm0 0"/><path fill="#b0a3af" d="m247.996 194.09 8.422-.176-5.32 33.43Zm0 0"/><path fill="#b7bbc4" d="m231.285 312.887.09 11.847-25.95-22.41ZM198.555 258.605l26.39-2.566 1.184 33.004Zm0 0"/><path fill="#5b0a91" d="m278.07 285.332-17.582 15.356-6.523-13.055ZM279.152 315.008l-18.664-14.32 17.582-15.356ZM260.488 300.688l-12.187-3.512 5.664-9.543Zm0 0"/><path fill="#b8bcc5" d="m231.285 312.887 17.016-15.711-3.848 24.8Zm0 0"/><path fill="#5b0a91" d="m248.3 297.176 12.188 3.512-16.035 21.289Zm0 0"/><path fill="#b8bcc5" d="m251.098 227.344 5.32-33.43 15.832 24.676ZM198.555 258.605l-16.25-41.34 21.078-2.05ZM115.223 115.18l12.492-2.711.793 8.328ZM108.582 89.266l10.29 1.02-8.407 11.46ZM104.484 56.504l14.387 33.781-10.289-1.02Zm0 0"/><path fill="#5b0a91" d="m118.871 90.285-14.387-33.781 37.508 19.781ZM134.816 101.207l-15.945-10.922 23.121-14Zm0 0"/><path fill="#b8bcc5" d="m119.863 149.652 6.875-14.304 3.364 13ZM130.8 161.86l-10.937-12.208 10.239-1.304Zm0 0"/><path fill="#5b0a91" d="m96.535 153.938 23.328-4.286 3.375 14.989Zm0 0"/><path fill="#b8bcc5" d="m119.863 149.652 10.938 12.207-7.563 2.782Zm0 0"/><path fill="#5b0a91" d="m119.863 149.652-23.328 4.286 19.278-23.086Zm0 0"/><path fill="#b8bcc5" d="m126.738 135.348-6.875 14.304-4.05-18.8ZM135.023 127.707l-8.285 7.64 1.77-14.55Zm0 0"/><path fill="#5b0a91" d="m167.117 170.863-23.996-18.812 25.668-6.672Zm0 0"/><path fill="#b8bcc5" d="m138.664 153.621-7.863 8.238-.7-13.511Zm0 0"/><path fill="#5b0a91" d="m143.121 152.05 4.29-15.468 21.378 8.797Zm0 0"/><path fill="#5b0a91" d="m168.79 145.379-21.38-8.797 14.934-24.441ZM147.41 136.582l-12.387-8.875 27.32-15.566Zm0 0"/><path fill="#b8bcc5" d="m160.684 200.754-13.66 5.547.351-18.473Zm0 0"/><path fill="#b8bcc5" d="m147.023 206.3-11.16-13.605 11.512-4.867ZM138.21 179.84l11.063-8.055-1.898 16.043Zm0 0"/><path fill="#5b0a91" d="m259.398 158.21 8.414 14.38-9.925-2.574ZM259.398 158.21l1.797-13.237 8.645 7.011Zm0 0"/><path fill="#b8bcc5" d="m264.7 181.137 3.113-8.547 10.144 11.238ZM261.195 144.973l11.832-1.621-3.187 8.632ZM273.027 143.352l-11.832 1.62 2.239-8.702ZM271.348 128.43l1.68 14.922-9.594-7.082Zm0 0"/><path fill="#b7bbc4" d="m87.79 225.797 7.01-7.61 1.43 15.903Zm0 0"/><path fill="#5b0a91" d="m57.695 205.133 30.094 20.664-47.617 2.637ZM57.695 205.133l-17.523 23.3-4.227-51.718ZM116.75 287.36l4.125-24.602 9.734 5.789ZM120.875 262.758l-4.125 24.601-16.781-18.62Zm0 0"/><path fill="#b7b9c3" d="m126.602 235.07-24.73 9.805-5.642-10.785Zm0 0"/><path fill="#b5b2bc" d="m101.871 244.875 24.73-9.805 5.735 17.125Zm0 0"/><path fill="#5b0a91" d="m128.262 181.156.668 13.043-16.434-13.566Zm0 0"/><path fill="#b8bcc5" d="m135.863 192.695-6.933 1.504-.668-13.043Zm0 0"/><path fill="#5b0a91" d="m105.648 205.176-13.472-24.36 20.32-.183ZM128.93 194.2l-23.282 10.976 6.848-24.543Zm0 0"/><path fill="#5b0a91" d="m105.648 205.176 23.282-10.977-10.618 18.406ZM92.176 180.816l13.472 24.36-24.906-14.246Zm0 0"/><path fill="#b8bbc4" d="m105.648 205.176-10.847 13.012-14.059-27.258Zm0 0"/><path fill="#5c0c91" d="M349.613 116.02 309.13 92.215l32.355-23.496Zm0 0"/><path fill="#5b0a91" d="m280.215 110.91-18.438-33.89 47.352 15.195Zm0 0"/><path fill="#b8bcc5" d="m262.855 127.617 8.493.813-7.914 7.84Zm0 0"/><path fill="#5b0a91" d="m286.188 130.77-14.84-2.34 8.867-17.52Zm0 0"/><path fill="#5b0b91" d="m326.941 127.828 22.672-11.808-10.215 39.148Zm0 0"/><path fill="#5c0c91" d="m318.895 152.957 8.046-25.129 12.457 27.34Zm0 0"/><path fill="#b8bcc5" d="m305.555 168.379-.457 22.168-11.989-2.344ZM305.555 168.379l8.074 2.613-8.531 19.555Zm0 0"/><path fill="#5c0c91" d="m329.742 171.98-16.113-.988 25.77-15.824Zm0 0"/><path fill="#5d0e92" d="m341.027 192.453-27.398-21.46 16.113.987Zm0 0"/><path fill="#5b0a91" d="m341.027 192.453-29.504 18.016-6.425-19.922Zm0 0"/><path fill="#5b0b91" d="m313.629 170.992 27.398 21.461-35.93-1.906ZM384 225.09l-40.355 46.515-18.547-37.125Zm0 0"/><path fill="#5b0a91" d="m302.758 263.402 22.34-28.922 18.547 37.125Zm0 0"/><path fill="#5b0b91" d="m276.727 261.402 26.03 2-24.687 21.93Zm0 0"/><path fill="#6b2999" d="m384 383.996-52.746.02 37.777-51.133Zm0 0"/><path fill="#6f309a" d="m331.254 384.016 10.898-51.645 26.88.512Zm0 0"/><path fill="#afa1ae" d="m142.5 335.184 3.95 9.457-21.485-1.254Zm0 0"/><path fill="#5b0a91" d="m134.895 325.176 7.605 10.008-17.535 8.203Zm0 0"/><path fill="#b5b4be" d="m154.246 335.773 7.242 10.164-15.039-1.296Zm0 0"/><path fill="#b3aeb9" d="m142.5 335.184 11.746.59-7.797 8.867Zm0 0"/><path fill="#5b0a91" d="m149.73 321.332-14.835 3.844.972-15.418Zm0 0"/><path fill="#ae9daa" d="m205.207 344.809 29.043-9.625 7.516 9.367Zm0 0"/><path fill="#6d2c9a" d="m186.586 371.809 18.621-27 36.559-.258Zm0 0"/><path fill="#b5b2bd" d="m234.25 335.184-29.043 9.625 6.238-10.329Zm0 0"/><path fill="#b2a9b4" d="m205.207 344.809-5.797-8.36 12.035-1.969Zm0 0"/><path fill="#6e2e9a" d="m205.207 344.809-18.621 27-3.82-26.985Zm0 0"/><path fill="#b4b1bb" d="m199.41 336.45 5.797 8.359-22.441.015Zm0 0"/><path fill="#b7bbc4" d="m198.156 308.54-6.898-6.696 14.168.48Zm0 0"/><path fill="#5b0a91" d="m198.156 308.54 7.13 2.554-16.356 13.761Zm0 0"/><path fill="#5b0a91" d="m205.285 311.094 26.09 13.64-19.93 9.746Zm0 0"/><path fill="#b8bcc5" d="m231.375 324.734-26.09-13.64.14-8.77Zm0 0"/><path fill="#b7bbc4" d="m205.285 311.094-7.129-2.555 7.27-6.215Zm0 0"/><path fill="#5b0b91" d="m199.41 336.45 5.875-25.356 6.16 23.386ZM205.285 311.094l-5.875 25.355-10.48-11.594Zm0 0"/><path fill="#5b0a91" d="m213.535 198.34-8.3-10.121 11.913 6.543Zm0 0"/><path fill="#b8bcc5" d="m205.234 188.219 8.301 10.12-9.262.34Zm0 0"/><path fill="#5b0a91" d="m113.266 317.164 3.484-29.805 19.117 22.399ZM141.578 278.969l-24.828 8.39 13.86-18.812Zm0 0"/><path fill="#b7bac4" d="m159.145 259.652 10.605 20.524-14.793-2.598Zm0 0"/><path fill="#b7bac3" d="m198.555 258.605-28.805 21.57-10.605-20.523Zm0 0"/><path fill="#b8bcc5" d="m271.348 128.43 8.328 12.543-6.649 2.379ZM291.707 155.152l11.102.852-10.715 8.793ZM302.809 156.004l2.746 12.375-13.461-3.582ZM282.844 162.184l2.508-5.164 6.742 7.777Zm0 0"/><path fill="#b8bcc5" d="m285.352 157.02 6.355-1.868.387 9.645ZM279.676 140.973l5.676 16.047-12.325-13.668Zm0 0"/><path fill="#b8bcc5" d="m285.352 157.02-5.676-16.047 12.031 14.18Zm0 0"/><path fill="#5b0a91" d="m269.84 151.984 13.004 10.2-15.031 10.406Zm0 0"/><path fill="#5b0a91" d="m259.398 158.21 10.442-6.226-2.027 20.606Zm0 0"/><path fill="#b8bcc5" d="m269.84 151.984 15.512 5.036-2.508 5.164Zm0 0"/><path fill="#b8bcc5" d="m285.352 157.02-15.512-5.036 3.187-8.632ZM282.844 162.184l9.25 2.613-14.137 19.031Zm0 0"/><path fill="#5b0b91" d="m205.234 188.219 14.118-6.645-2.204 13.188Zm0 0"/><path fill="#5d0e92" d="m219.352 181.574 11.668-7.324-1.258 10.64Zm0 0"/><path fill="#b8bcc5" d="m204.273 198.68-.89 16.535-9.106-17.55ZM247.996 194.09l-15.672.55-2.562-9.75ZM264.7 181.137l13.257 2.691-21.539 10.086Zm0 0"/><path fill="#ad99a6" d="m224.945 256.04 19.09 28.843-17.906 4.16Zm0 0"/><path fill="#b6b5bf" d="m214.965 224.816 9.98 31.223-26.39 2.566Zm0 0"/><path fill="#5c0c91" d="m242.379 335.648-11.004-10.914 13.078-2.757Zm0 0"/><path fill="#5b0b91" d="m275.5 335.543-33.121.105 2.074-13.671Zm0 0"/><path fill="#5c0c91" d="m242.379 335.648-8.129-.464-2.875-10.45Zm0 0"/><path fill="#5b0a91" d="m279.152 315.008 3.938 14.152-7.59 6.383Zm0 0"/><path fill="#5b0a91" d="m283.09 329.16-3.938-14.152 29.11 22.465Zm0 0"/><path fill="#b7bbc4" d="m199.438 290.676-.883-32.07 27.574 30.437Zm0 0"/><path fill="#b7bac3" d="m205.426 302.324-5.988-11.648 26.69-1.633Zm0 0"/><path fill="#b7bbc4" d="m205.426 302.324 20.703-13.281 5.156 23.844Zm0 0"/><path fill="#b0a4b0" d="m226.129 289.043 22.172 8.133-17.016 15.71Zm0 0"/><path fill="#5b0a91" d="m314.91 301.629-35.758 13.379-1.082-29.676Zm0 0"/><path fill="#5b0a91" d="m279.152 315.008 35.758-13.38-6.648 35.845Zm0 0"/><path fill="#5b0a91" d="m302.758 263.402 12.152 38.227-36.84-16.297ZM308.262 337.473l6.648-35.844 27.242 30.742ZM279.152 315.008l-3.652 20.535-31.047-13.566ZM260.488 300.688l18.664 14.32-34.699 6.969ZM188.055 189.375l-19.133 4.387-1.805-22.899Zm0 0"/><path fill="#b8bcc5" d="m203.383 215.215-21.078 2.05 11.972-19.6ZM159.082 235.906l5.684-23.308 17.539 4.668Zm0 0"/><path fill="#b8bcc5" d="m164.766 212.598-5.684 23.308-3.465-22.55ZM123.625 103.68l-8.402 11.5-4.758-13.434Zm0 0"/><path fill="#b8bcc5" d="m123.625 103.68 4.09 8.789-12.492 2.71ZM118.871 90.285l4.754 13.395-13.16-1.934Zm0 0"/><path fill="#5b0a91" d="m127.715 112.469-4.09-8.79 11.191-2.472Zm0 0"/><path fill="#5b0a91" d="m123.625 103.68-4.754-13.395 15.945 10.922Zm0 0"/><path fill="#b8bcc5" d="m126.738 135.348 11 4.699-7.636 8.3ZM135.023 127.707l2.715 12.34-11-4.7Zm0 0"/><path fill="#5b0a91" d="m147.41 136.582-9.672 3.465-2.715-12.34Zm0 0"/><path fill="#b8bcc5" d="m137.738 140.047.926 13.574-8.562-5.273Zm0 0"/><path fill="#b7bbc4" d="m138.664 153.621-.926-13.574 5.383 12.004Zm0 0"/><path fill="#5b0a91" d="m137.738 140.047 9.672-3.465-4.289 15.469ZM127.715 112.469l7.922 3.37-7.13 4.958ZM135.637 115.84l-.614 11.867-6.515-6.91Zm0 0"/><path fill="#5b0a91" d="m135.023 127.707.614-11.867 26.707-3.7Zm0 0"/><path fill="#5b0a91" d="m135.637 115.84-.82-14.633 27.527 10.934ZM135.637 115.84l-7.922-3.371 7.101-11.262Zm0 0"/><path fill="#b8bcc5" d="m149.273 171.785-18.472-9.926 7.863-8.238Zm0 0"/><path fill="#b8bcc5" d="m143.121 152.05 6.152 19.735-10.609-18.164Zm0 0"/><path fill="#b8bcc5" d="m130.8 161.86 18.473 9.925-11.062 8.055Zm0 0"/><path fill="#5b0a91" d="m149.273 171.785-6.152-19.734 23.996 18.812Zm0 0"/><path fill="#b8bcc5" d="m241.234 147.457 3.211-21.363 10.371 6.418Zm0 0"/><path fill="#b7bbc4" d="m256.816 140.285-15.582 7.172 13.582-14.945Zm0 0"/><path fill="#5b0a91" d="m241.234 147.457-10.87-1.027 14.081-20.336Zm0 0"/><path fill="#b4b0ba" d="m249.27 157.121 10.128 1.09-1.511 11.805Zm0 0"/><path fill="#b3acb7" d="m250.328 175.5-1.058-18.379 8.617 12.895Zm0 0"/><path fill="#b7bbc4" d="m249.27 157.121 1.058 18.379-6.433-16.258Zm0 0"/><path fill="#afa0ac" d="m259.398 158.21-10.128-1.089 11.925-12.148Zm0 0"/><path fill="#b0a3af" d="M261.195 144.973 249.27 157.12l7.546-16.836Zm0 0"/><path fill="#b8bbc4" d="m241.234 147.457 8.036 9.664-5.375 2.121Zm0 0"/><path fill="#b5b1bc" d="m249.27 157.121-8.036-9.664 15.582-7.172Zm0 0"/><path fill="#ae9ca9" d="m250.328 175.5 8.137 2.75-2.047 15.664Zm0 0"/><path fill="#b8bcc5" d="m258.465 178.25 6.234 2.887-8.281 12.777Zm0 0"/><path fill="#b2aab6" d="m258.465 178.25-8.137-2.75 7.559-5.484Zm0 0"/><path fill="#5b0a91" d="m267.813 172.59-9.348 5.66-.578-8.234Zm0 0"/><path fill="#b8bcc5" d="m264.7 181.137-6.235-2.887 9.348-5.66Zm0 0"/><path fill="#5d0d92" d="m236.121 167.492-5.101 6.758-9.258-11.355Zm0 0"/><path fill="#b8bcc5" d="m231.02 174.25 5.101-6.758 2.172 10.973Zm0 0"/><path fill="#b8bcc5" d="m236.121 167.492 14.207 8.008-12.035 2.965Zm0 0"/><path fill="#b8bcc5" d="m250.328 175.5-14.207-8.008 7.774-8.25Zm0 0"/><path fill="#5d0f92" d="M241.234 147.457 236 157.82l-5.637-11.39Zm0 0"/><path fill="#5b0b91" d="M230.363 146.43 236 157.82l-14.238 5.075Zm0 0"/><path fill="#5d0e92" d="m236 157.82.121 9.672-14.36-4.597Zm0 0"/><path fill="#b7bbc4" d="m236 157.82 5.234-10.363 2.66 11.785Zm0 0"/><path fill="#b7bbc4" d="M236.121 167.492 236 157.82l7.895 1.422Zm0 0"/><path fill="#5b0a91" d="m187.05 165.723 10.231 15.265-9.226 8.387ZM187.05 165.723l-19.933 5.14 1.672-25.484Zm0 0"/><path fill="#5b0a91" d="m187.05 165.723 1.005 23.652-20.938-18.512Zm0 0"/><path fill="#b8bcc5" d="m197.281 180.988-3.004 16.676-6.222-8.289Zm0 0"/><path fill="#b7bbc4" d="m72.04 199.535-10.5-18.043 19.202 9.438Zm0 0"/><path fill="#5b0a91" d="m69.66 168.078-8.12 13.414-25.595-4.777Zm0 0"/><path fill="#5b0a91" d="m80.742 190.93-19.203-9.438 8.121-13.414Zm0 0"/><path fill="#5b0a91" d="m61.54 181.492-3.845 23.64-21.75-28.417Zm0 0"/><path fill="#5b0a91" d="m57.695 205.133 3.844-23.64 10.5 18.042Zm0 0"/><path fill="#b8bcc5" d="m72.04 199.535 22.76 18.653-7.01 7.609Zm0 0"/><path fill="#5b0a91" d="m57.695 205.133 14.344-5.598 15.75 26.262Zm0 0"/><path fill="#b7bbc4" d="m94.8 218.188-22.76-18.653 8.702-8.605Zm0 0"/><path fill="#b7b9c2" d="m94.8 218.188 16.84 3.796-15.41 12.106Zm0 0"/><path fill="#b6b5bf" d="m111.64 221.984 14.962 13.086-30.372-.98Zm0 0"/><path fill="#b7bbc4" d="m111.64 221.984-5.992-16.808 12.665 7.43Zm0 0"/><path fill="#b7bbc4" d="m105.648 205.176 5.993 16.808-16.84-3.797Zm0 0"/><path fill="#5b0a91" d="M326.941 127.828 309.13 92.215l40.484 23.805Zm0 0"/><path fill="#5c0b91" d="M343.645 271.605 384 225.09v71.969Zm0 0"/><path fill="#5b0b91" d="m276.727 261.402 6.863-19.668 19.168 21.668Zm0 0"/><path fill="#5b0a91" d="m292.625 236.7 32.473-2.22-22.34 28.922Zm0 0"/><path fill="#5b0a91" d="m325.098 234.48-32.473 2.22 3.305-13.77Zm0 0"/><path fill="#5b0b91" d="m283.59 241.734 9.035-5.035 10.133 26.703Zm0 0"/><path fill="#5b0a91" d="m311.523 210.469 13.575 24.011-29.168-11.55ZM299.23 207.516l12.293 2.953-15.593 12.46Zm0 0"/><path fill="#b5b4be" d="m161.488 345.938 14.149-8.887 7.129 7.773Zm0 0"/><path fill="#b6b8c2" d="m154.246 335.773 21.39 1.278-14.148 8.887Zm0 0"/><path fill="#5b0a91" d="m145.063 329.785-2.563 5.399-7.605-10.008ZM149.73 321.332l-4.667 8.453-10.168-4.61Zm0 0"/><path fill="#5b0b91" d="m154.246 335.773-9.184-5.988 4.668-8.453Zm0 0"/><path fill="#5c0b91" d="m145.063 329.785 9.183 5.988-11.746-.59Zm0 0"/><path fill="#5b0a91" d="m116.75 287.36 24.828-8.391-5.71 30.789ZM169.695 315.648l4.61 10.93-24.575-5.246Zm0 0"/><path fill="#5b0b91" d="m181.715 314.95 16.441-6.41-9.226 16.315Zm0 0"/><path fill="#5b0a91" d="m181.715 314.95 9.543-13.106 6.898 6.695ZM222.71 205.879l-9.175-7.54 3.613-3.577Zm0 0"/><path fill="#b8bbc4" d="m222.71 205.879 9.505.078-17.25 18.86Zm0 0"/><path fill="#b8bcc5" d="m203.383 215.215 19.328-9.336-7.746 18.937ZM222.71 205.879l-19.327 9.336 10.152-16.875Zm0 0"/><path fill="#b8bcc5" d="m213.535 198.34-10.152 16.875.89-16.535Zm0 0"/><path fill="#b7bbc4" d="m232.215 205.957 15.781-11.867 3.102 33.254Zm0 0"/><path fill="#b8bcc5" d="m232.215 205.957.11-11.316 15.671-.551Zm0 0"/><path fill="#b4aeb9" d="m159.082 235.906 39.473 22.7-39.41 1.046Zm0 0"/><path fill="#5b0a91" d="m137.96 265.172 3.618 13.797-10.969-10.422Zm0 0"/><path fill="#b7bac4" d="m146.633 271.672 12.512-12.02-4.188 17.926Zm0 0"/><path fill="#b7bbc4" d="m137.96 265.172 8.673 6.5-5.055 7.297Zm0 0"/><path fill="#b7b9c2" d="m146.633 271.672-8.672-6.5 21.184-5.52Zm0 0"/><path fill="#b7bbc4" d="m146.633 271.672 8.324 5.906-13.379 1.39Zm0 0"/><path fill="#5b0a91" d="m286.188 130.77-6.512 10.203-8.328-12.543Zm0 0"/><path fill="#b8bcc5" d="m292.094 164.797 13.46 3.582-12.445 19.824ZM182.305 217.266l-4.977-16.805 16.95-2.797Zm0 0"/><path fill="#5b0a91" d="m168.922 193.762 2.191 11.511-10.43-4.52ZM171.113 205.273l-6.347 7.325-4.082-11.844Zm0 0"/><path fill="#b8bbc4" d="m164.766 212.598 6.347-7.325 11.192 11.993Zm0 0"/><path fill="#5b0b91" d="m177.328 200.46-6.215 4.813-2.191-11.511Zm0 0"/><path fill="#b8bbc4" d="m171.113 205.273 6.215-4.812 4.977 16.805Zm0 0"/><path fill="#5b0a91" d="m260.027 264.48 18.043 20.852-24.105 2.3Zm0 0"/><path fill="#5b0a91" d="m260.027 264.48 16.7-3.078 1.343 23.93Zm0 0"/><path fill="#b7bbc4" d="m191.258 301.844 8.18-11.168 5.988 11.648Zm0 0"/><path fill="#b5b3bd" d="m144.945 254.879 14.137-18.973.063 23.746Zm0 0"/><path fill="#b7bac3" d="m248.3 297.176-4.265-12.293 9.93 2.75Zm0 0"/><path fill="#b5b2bc" d="m226.129 289.043 17.906-4.16 4.266 12.293Zm0 0"/><path fill="#b8bcc5" d="m214.965 224.816 17.25-18.859 18.883 21.387Zm0 0"/><path fill="#5b0a91" d="m155.352 184.02-6.079-12.235 17.844-.922ZM168.922 193.762l-13.57-9.742 11.765-13.157Zm0 0"/><path fill="#b8bcc5" d="m149.273 171.785 6.079 12.235-7.977 3.808ZM155.352 184.02l5.332 16.734-13.309-12.926Zm0 0"/><path fill="#5b0b91" d="m160.684 200.754-5.332-16.734 13.57 9.742Zm0 0"/><path fill="#b8bcc5" d="m198.555 258.605-39.473-22.699 23.223-18.64ZM155.617 213.355l-8.594-7.054 13.66-5.547Zm0 0"/><path fill="#b7bbc4" d="m164.766 212.598-9.149.757 5.067-12.601Zm0 0"/><path fill="#5b0a91" d="m120.875 262.758 13.672-4.125-3.938 9.914Zm0 0"/><path fill="#5b0a91" d="m132.336 252.195 2.21 6.438-13.671 4.125Zm0 0"/><path fill="#5b0b91" d="m134.547 258.633 3.414 6.539-7.352 3.375Zm0 0"/><path fill="#b7bac3" d="m137.96 265.172-3.413-6.54 10.398-3.753Zm0 0"/><path fill="#b6b7c1" d="m126.602 235.07 13.976 5.551-8.242 11.574Zm0 0"/><path fill="#5b0a91" d="m244.445 126.094-41.468 4.566 32.101-26.976ZM230.363 146.43l-27.386-15.77 41.468-4.566Zm0 0"/><path fill="#5b0a91" d="m202.977 130.66 27.386 15.77-8.601 16.465Zm0 0"/><path fill="#5b0b91" d="m177.21 198.723-8.288-4.961 19.133-4.387Zm0 0"/><path fill="#5b0b91" d="m177.21 198.723.118 1.738-8.406-6.7Zm0 0"/><path fill="#b7b9c2" d="m132.063 220.922 10.492 3.992-15.953 10.156Zm0 0"/><path fill="#b7bbc4" d="m132.063 220.922-20.422 1.062 6.671-9.379Zm0 0"/><path fill="#b7b8c2" d="m111.64 221.984 20.423-1.062-5.461 14.148Zm0 0"/><path fill="#b8bcc5" d="m305.555 168.379 13.34-15.422-5.266 18.035Zm0 0"/><path fill="#5c0c91" d="m313.629 170.992 5.266-18.035 20.503 2.211Zm0 0"/><path fill="#b8bcc5" d="m318.895 152.957-13.34 15.422-2.746-12.375Zm0 0"/><path fill="#6b2898" d="m331.254 384.016-22.992-46.543 33.89-5.102Zm0 0"/><path fill="#5c0c91" d="m174.305 326.578-20.059 9.195-4.516-14.441Zm0 0"/><path fill="#5b0b91" d="m174.305 326.578 1.332 10.473-21.39-1.278ZM225.68 195.219l-2.97 10.66-5.562-11.117Zm0 0"/><path fill="#b8bcc5" d="m225.68 195.219 6.535 10.738-9.504-.078Zm0 0"/><path fill="#5c0d92" d="m219.352 181.574 6.328 13.645-8.532-.457Zm0 0"/><path fill="#5e1092" d="m225.68 195.219-6.328-13.645 10.41 3.317Zm0 0"/><path fill="#b8bcc5" d="m232.324 194.64-6.644.579 4.082-10.328ZM232.215 205.957l-6.535-10.738 6.644-.578Zm0 0"/><path fill="#b7bac3" d="m159.145 259.652-21.184 5.52 6.984-10.293Zm0 0"/><path fill="#b7bbc4" d="m199.438 290.676-13.79-1.246 12.907-30.825ZM185.648 289.43l13.79 1.246-8.18 11.168Zm0 0"/><path fill="#5b0a91" d="m279.676 140.973 19.402 8.316-7.371 5.863Zm0 0"/><path fill="#5b0a91" d="m286.188 130.77 12.89 18.52-19.402-8.317Zm0 0"/><path fill="#b8bcc5" d="m299.078 149.29 3.73 6.714-11.101-.852Zm0 0"/><path fill="#b2a8b4" d="m246.645 264.984-2.61 19.899-19.09-28.844Zm0 0"/><path fill="#b7bbc4" d="m244.035 284.883 2.61-19.899 7.32 22.649Zm0 0"/><path fill="#b7bac4" d="m246.645 264.984 13.382-.504-6.062 23.153Zm0 0"/><path fill="#692598" d="m275.5 335.543-17.004 48.437-16.73-39.43Zm0 0"/><path fill="#b4afb9" d="m242.379 335.648 33.121-.105-33.734 9.008Zm0 0"/><path fill="#b2aab5" d="m242.379 335.648-.613 8.903-7.516-9.367Zm0 0"/><path fill="#b5b4be" d="m144.945 254.879-4.367-14.258 18.504-4.715ZM140.578 240.621l4.367 14.258-12.61-2.684Zm0 0"/><path fill="#b7b9c2" d="m144.945 254.879-10.398 3.754-2.211-6.438Zm0 0"/><path fill="#b7bbc4" d="m271.71 235.004-7.151 17.555-13.461-25.215Zm0 0"/><path fill="#b7bbc4" d="m264.559 252.559-15.868 1.097 2.407-26.312Zm0 0"/><path fill="#b7bbc4" d="m248.691 253.656 15.868-1.097-4.532 11.921Zm0 0"/><path fill="#5b0a91" d="m264.559 252.559 12.168 8.843-16.7 3.078Zm0 0"/><path fill="#5b0a91" d="m276.727 261.402-12.168-8.843 19.03-10.825Zm0 0"/><path fill="#b7bbc4" d="m264.559 252.559 7.152-17.555 11.879 6.73Zm0 0"/><path fill="#b5b2bc" d="m251.098 227.344-2.407 26.312-23.746 2.383Zm0 0"/><path fill="#b8bcc5" d="m272.25 218.59-.54 16.414-20.612-7.66Zm0 0"/><path fill="#b6b7c1" d="m142.555 224.914-1.977 15.707-13.976-5.55Zm0 0"/><path fill="#b8bcc5" d="m177.328 200.46 10.727-11.085 6.222 8.29Zm0 0"/><path fill="#b8bcc5" d="m177.21 198.723 10.845-9.348-10.727 11.086Zm0 0"/><path fill="#b7bbc4" d="m132.063 220.922 1.511-6.82 8.98 10.812Zm0 0"/><path fill="#5b0a91" d="m128.93 194.2 4.644 19.902-15.262-1.497ZM133.574 214.102l-1.512 6.82-13.75-8.317Zm0 0"/><path fill="#b8bcc5" d="m133.574 214.102-4.644-19.903 6.933-1.504Zm0 0"/><path fill="#b8bcc5" d="m147.023 206.3-13.449 7.802 2.29-21.407ZM142.555 224.914l-8.98-10.812 13.448-7.801Zm0 0"/><path fill="#b7bbc4" d="m159.082 235.906-16.527-10.992 13.062-11.559Zm0 0"/><path fill="#b8bcc5" d="m155.617 213.355-13.062 11.56 4.468-18.614Zm0 0"/><path fill="#5b0a91" d="m298.906 124.988-18.691-14.078 28.914-18.695ZM298.906 124.988l-12.719 5.782-5.972-19.86Zm0 0"/><path fill="#5b0a91" d="m298.906 124.988.172 24.301-12.89-18.52Zm0 0"/><path fill="#763c9d" d="m258.496 383.98 49.766-46.507 22.992 46.543Zm0 0"/><path fill="#6a2698" d="m308.262 337.473-49.766 46.507 17.004-48.437Zm0 0"/><path fill="#5b0b91" d="m308.262 337.473-32.762-1.93 7.59-6.383Zm0 0"/><path fill="#b4b1bc" d="m175.637 337.05 7.293-1.132-.164 8.906Zm0 0"/><path fill="#5b0b91" d="m174.305 326.578 8.625 9.34-7.293 1.133Zm0 0"/><path fill="#b5b3be" d="m182.93 335.918 16.48.531-16.644 8.375Zm0 0"/><path fill="#5c0c91" d="m199.41 336.45-16.48-.532 6-11.063Zm0 0"/><path fill="#5b0a91" d="m150.61 308.715-.88 12.617-13.863-11.574ZM141.578 278.969l9.031 29.746-14.742 1.043ZM150.61 308.715l19.085 6.933-19.965 5.684Zm0 0"/><path fill="#5b0a91" d="m150.61 308.715 22.327-4.367-3.242 11.3Zm0 0"/><path fill="#b7bbc4" d="m150.61 308.715 6.8-19.008 15.528 14.64ZM154.957 277.578l2.453 12.129-15.832-10.738ZM157.41 289.707l-6.8 19.008-9.032-29.746Zm0 0"/><path fill="#b6b7c1" d="m185.648 289.43-15.898-9.254 28.805-21.57Zm0 0"/><path fill="#5b0a91" d="m169.695 315.648 12.02-.699-7.41 11.63Zm0 0"/><path fill="#5b0a91" d="m172.938 304.348 8.777 10.601-12.02.7Zm0 0"/><path fill="#b7bbc4" d="m172.938 304.348 12.71-14.918 5.61 12.414Zm0 0"/><path fill="#5b0a91" d="m181.715 314.95-8.778-10.602 18.32-2.504Zm0 0"/><path fill="#b4b0ba" d="m248.691 253.656-2.046 11.328-21.7-8.945Zm0 0"/><path fill="#b7bbc4" d="m246.645 264.984 2.046-11.328 11.336 10.824ZM271.71 235.004l16.278-5.645-4.398 12.375Zm0 0"/><path fill="#b8bcc5" d="m272.25 218.59 15.738 10.77-16.277 5.644Zm0 0"/><path fill="#b7bbc4" d="m287.988 229.36 4.637 7.34-9.035 5.034Zm0 0"/><path fill="#5b0a91" d="m292.625 236.7-4.637-7.34 7.942-6.43Zm0 0"/><path fill="#b6b6bf" d="m142.555 224.914 16.527 10.992-18.504 4.715Zm0 0"/><path fill="#5b0a91" d="m298.906 124.988 10.223-32.773 17.812 35.613Zm0 0"/><path fill="#5b0b91" d="m174.305 326.578 7.41-11.629 7.215 9.906ZM182.93 335.918l-8.625-9.34 14.625-1.723Zm0 0"/><path fill="#b7bbc4" d="m169.75 280.176 15.898 9.254-12.71 14.918Zm0 0"/><path fill="#b7bbc4" d="m157.41 289.707 12.34-9.531 3.188 24.172Zm0 0"/><path fill="#b7bbc4" d="m169.75 280.176-12.34 9.531-2.453-12.129Zm0 0"/><path fill="#b8bcc5" d="m251.098 227.344-26.153 28.695-9.98-31.223ZM287.434 216.7l.554 12.66-15.738-10.77Zm0 0"/><path fill="#b8bcc5" d="m287.434 216.7-15.184 1.89 9.04-16.899Zm0 0"/><path fill="#b8bcc5" d="m299.23 207.516-11.796 9.183-6.145-15.008ZM287.434 216.7l11.796-9.184-3.3 15.414ZM287.988 229.36l-.554-12.66 8.496 6.23ZM299.078 149.29l9.34-7.435-5.61 14.149Zm0 0"/><path fill="#5b0a91" d="m298.906 124.988 9.512 16.867-9.34 7.434Zm0 0"/><path fill="#b8bcc5" d="m308.418 141.855 10.477 11.102-16.086 3.047Zm0 0"/><path fill="#b7bbc4" d="m308.418 141.855 18.523-14.027-8.046 25.129Zm0 0"/><path fill="#5b0a91" d="m308.418 141.855-9.512-16.867 28.035 2.84Zm0 0"/></svg>