<svg xmlns="http://www.w3.org/2000/svg" width="512" height="512" viewBox="0 0 384 384"><path fill="#23495d" d="M80.152 0h80.164L112.11 38.71Zm0 0"/><path fill="#23495c" d="m216.262 61.379-54.754 28.578L160.316 0Zm0 0"/><path fill="#23495c" d="m160.316 0 1.192 89.957-49.399-51.246Zm0 0"/><path fill="#dbe6de" d="m261.508 142.305-7.008-4.723 8.79-5.32Zm0 0"/><path fill="#23495d" d="M80.152 0 48.805 49.445 0 0Zm0 0"/><path fill="#23495d" d="m80.152 0 8.43 47.633-39.777 1.812Zm0 0"/><path fill="#23495c" d="m63.016 179.96-14.489 9.028-5.3-29.906Zm0 0"/><path fill="#23495d" d="m0 290.484 44.297-54.84L70.02 309.86Zm0 0"/><path fill="#23485c" d="m80.73 249.547 23.106 26.016-33.816 34.296Zm0 0"/><path fill="#23495d" d="M44.297 235.645 0 194.059l48.527-5.07Zm0 0"/><path fill="#23485c" d="M48.527 188.988 0 194.058l43.227-34.976Zm0 0"/><path fill="#24495d" d="m0 194.059 44.297 41.586L0 290.485Zm0 0"/><path fill="#23495d" d="M43.227 159.082 0 102.648l69.46-5.53Zm0 0"/><path fill="#23495d" d="m0 102.648 43.227 56.434L0 194.059Zm0 0"/><path fill="#23485c" d="M242.176 0h66.59l-34.633 54.453Zm0 0"/><path fill="#23485c" d="m242.176 0 31.957 54.453-57.871 6.926Zm0 0"/><path fill="#22485c" d="M148 357.184 103.34 384l19.734-41.687ZM103.34 384l-33.32-74.14 53.054 32.452Zm0 0"/><path fill="#23485c" d="M178.398 384H103.34L148 357.184Zm0 0"/><path fill="#23495d" d="m242.176 0-25.914 61.379L160.316 0Zm0 0"/><path fill="#daf0e7" d="m113.277 108.996 12.832 2.074-11.082 10.864Zm0 0"/><path fill="#23495c" d="m122.531 163.277 4.172 16.27-16.226.101ZM122.531 163.277l-21.523-11.984 16.008-.754Zm0 0"/><path fill="#9d6469" d="m261.508 142.305-8.817 9.351 1.809-14.074Zm0 0"/><path fill="#dbe9e0" d="m254.5 137.582 1.473-13.488 7.316 8.168Zm0 0"/><path fill="#daece3" d="m255.973 124.094 9.836-3.969-2.52 12.137Zm0 0"/><path fill="#23485c" d="m265.809 120.125-9.836 3.969-5.645-24.82Zm0 0"/><path fill="#23495d" d="m212.125 118.316-50.617-28.359 54.754-28.578ZM176.188 139.844l35.937-21.528-1.758 36.48Zm0 0"/><path fill="#23495d" d="m212.125 118.316-35.937 21.528-14.68-49.887Zm0 0"/><path fill="#23495c" d="m161.508 89.957 14.68 49.887-26.579-6.574Zm0 0"/><path fill="#24495d" d="m0 0 48.805 49.445L0 102.648Zm0 0"/><path fill="#23495d" d="m70.371 184.75-7.355-4.79 13.82-16.46Zm0 0"/><path fill="#23485c" d="m44.297 235.645 36.433 13.902-10.71 60.312Zm0 0"/><path fill="#23495d" d="m102.684 243.988-21.954 5.559 13.575-17.356Zm0 0"/><path fill="#23495c" d="m102.684 243.988 1.152 31.575-23.106-26.016Zm0 0"/><path fill="#23485c" d="m70.02 309.86 33.816-34.298 18.219 21.317Zm0 0"/><path fill="#23495d" d="m69.46 97.117 19.122-49.484 15.461 9.32ZM76.836 163.5l-33.61-4.418 26.235-61.965Zm0 0"/><path fill="#23485c" d="m76.836 163.5-13.82 16.46-19.79-20.878ZM291.234 99.79l-25.425 20.335-15.48-20.852ZM384 237.371l-40.422-41.703L384 139.285ZM341.176 151.82l1.578-25.488L384 139.285ZM341.176 151.82l-13.336 13.895-8.121-12.969ZM327.84 165.715l13.336-13.895 2.402 43.848Zm0 0"/><path fill="#23485c" d="m343.578 195.668-2.402-43.848L384 139.285Zm0 0"/><path fill="#23485c" d="m325.242 137.055 15.934 14.765-21.457.926Zm0 0"/><path fill="#23485c" d="m341.176 151.82-15.934-14.765 17.512-10.723Zm0 0"/><path fill="#24485c" d="m307.45 216.23-11.4-3.414 5.7-9.898Zm0 0"/><path fill="#1c2638" d="m384 333.984-56.824 23.84 15.949-26.086Zm0 0"/><path fill="#23485c" d="m129.293 320.168-7.238-23.29 15.004 7.364Zm0 0"/><path fill="#23495d" d="m70.02 309.86 59.273 10.308-6.219 22.144Zm0 0"/><path fill="#23485c" d="m70.02 309.86 52.035-12.981 7.238 23.289ZM178.578 353.617l-.18 30.383L148 357.184ZM0 290.484l70.02 19.375-25.84 28.672Zm0 0"/><path fill="#23495c" d="M44.18 338.531 0 384v-93.516Zm0 0"/><path fill="#23485c" d="m103.34 384-59.16-45.469 25.84-28.672Zm0 0"/><path fill="#8ba29e" d="m171.465 274.84-20.965-.867 9.05-16.094Zm0 0"/><path fill="#daefe6" d="m195.54 180.023 5.964 11.739-7.176-.145ZM263.46 207.59l3.58-15.137 12.214 13.89Zm0 0"/><path fill="#daefe6" d="m267.04 192.453-3.58 15.137-8.87-10.883Zm0 0"/><path fill="#22485c" d="m215.586 358.395 9.746-22.91 10.496 2.003ZM225.332 335.484l-9.746 22.91-16.027-22.582Zm0 0"/><path fill="#d6e6de" d="m225.332 335.484-.156-12.597 4.207-.375Zm0 0"/><path fill="#dcdad3" d="m225.176 322.887.156 12.597-25.773.329Zm0 0"/><path fill="#23495d" d="m110.02 97.285-40.56-.168 34.583-40.164Zm0 0"/><path fill="#23495d" d="m104.043 56.953-15.461-9.32 23.527-8.922Zm0 0"/><path fill="#23495c" d="m161.508 89.957-57.465-33.004 8.066-18.242Zm0 0"/><path fill="#23495d" d="m80.152 0 31.957 38.71-23.527 8.923Zm0 0"/><path fill="#daeee6" d="m126.11 111.07-3.45 13.618-7.633-2.754Zm0 0"/><path fill="#daeee5" d="m133.781 191.203 2.594-11.95 7.828 6.74Zm0 0"/><path fill="#daf0e7" d="m136.375 179.254-2.594 11.95-7.078-11.657Zm0 0"/><path fill="#daefe6" d="m132.18 161.074-5.477 18.473-4.172-16.27ZM132.18 161.074l4.195 18.18-9.672.293Zm0 0"/><path fill="#23485c" d="m244.922 125.102-32.797-6.786 38.203-19.043Zm0 0"/><path fill="#23495c" d="m255.973 124.094-11.051 1.008 5.406-25.829Zm0 0"/><path fill="#daebe3" d="m244.922 125.102 11.05-1.008-1.472 13.488Zm0 0"/><path fill="#2a495c" d="m259.863 150.918 1.645-8.613 6.195 7.113Zm0 0"/><path fill="#987378" d="m261.508 142.305-1.645 8.613-7.172.738Zm0 0"/><path fill="#daece4" d="m265.809 120.125 5.59 10.234-8.11 1.903Zm0 0"/><path fill="#daebe3" d="m270.676 137.785-9.168 4.52 1.781-10.043Zm0 0"/><path fill="#dbe9e1" d="m271.398 130.36-.722 7.425-7.387-5.523Zm0 0"/><path fill="#244a5e" d="m48.805 49.445 39.777-1.812-19.121 49.484Zm0 0"/><path fill="#23495d" d="m0 102.648 48.805-53.203L69.46 97.117Zm0 0"/><path fill="#23485c" d="m101.008 151.293 21.523 11.984-12.054 16.371Zm0 0"/><path fill="#23495c" d="m76.836 163.5 24.172-12.207 9.469 28.355Zm0 0"/><path fill="#23495d" d="m80.73 249.547 7.418-25.781 6.157 8.425ZM44.297 235.645l43.851-11.88-7.418 25.782Zm0 0"/><path fill="#24495c" d="m102.684 243.988 14.21 21.106-13.058 10.469Zm0 0"/><path fill="#25495d" d="m116.895 265.094-14.211-21.106 30.261 8.953Zm0 0"/><path fill="#23495d" d="m113.277 108.996-17.53 7.602 14.273-19.313ZM95.746 116.598l-26.285-19.48 40.559.167Zm0 0"/><path fill="#23495d" d="m95.746 116.598 17.531-7.602 1.75 12.938Zm0 0"/><path fill="#23495c" d="m101.008 151.293-5.262-34.695 19.281 5.336Zm0 0"/><path fill="#23495d" d="m76.836 163.5 18.91-46.902 5.262 34.695Zm0 0"/><path fill="#23495d" d="M95.746 116.598 76.836 163.5 69.46 97.117Zm0 0"/><path fill="#23485c" d="m384 139.285-41.246-12.953-4.899-58.262ZM274.133 54.453l63.722 13.617-46.62 31.72Zm0 0"/><path fill="#23485c" d="M337.855 68.07 384 0v139.285Zm0 0"/><path fill="#23485c" d="M308.766 0H384l-46.145 68.07Zm0 0"/><path fill="#23485c" d="M274.133 54.453 308.766 0l29.09 68.07Zm0 0"/><path fill="#23495d" d="m216.262 61.379 34.066 37.894-38.203 19.043Zm0 0"/><path fill="#23485c" d="m291.234 99.79-11.136 26.112-14.29-5.777Zm0 0"/><path fill="#23485c" d="m280.098 125.902-8.7 4.457-5.59-10.234Zm0 0"/><path fill="#23495c" d="m274.133 54.453-23.805 44.82-34.066-37.894Zm0 0"/><path fill="#23485c" d="M343.578 195.668 384 237.371l-60.797 4.098ZM384 302.07v31.914l-40.875-2.246Zm0 0"/><path fill="#23485c" d="M338.395 284.879 384 302.07l-40.875 29.668Zm0 0"/><path fill="#1c2638" d="M327.176 357.824 384 333.984V384Zm0 0"/><path fill="#dbe7df" d="m205.305 309.785-7.657-3.367 1.168-9.809Zm0 0"/><path fill="#23485c" d="M44.18 338.531 103.34 384H0Zm0 0"/><path fill="#829695" d="m171.465 274.84-6.414 13.023-14.551-13.89Zm0 0"/><path fill="#daf1e8" d="m269.063 170.93 7.558-3.903 3.887 14.84ZM267.04 192.453l13.468-10.586-1.254 24.477ZM292.742 200.191l3.309 12.625-16.797-6.472Zm0 0"/><path fill="#daf1e8" d="m280.508 181.867 12.234 18.324-13.488 6.153ZM292.742 200.191l-12.234-18.324 23.613-6.71ZM301.75 202.918l-9.008-2.727 11.38-25.035Zm0 0"/><path fill="#daeee6" d="m296.05 212.816-3.308-12.625 9.008 2.727Zm0 0"/><path fill="#23495c" d="m225.555 169.098-9.825 9.644-5.363-23.945ZM203.172 174.898l2.008 13.098-9.64-7.973Zm0 0"/><path fill="#dcc7c2" d="m205.18 187.996-3.676 3.766-5.965-11.739Zm0 0"/><path fill="#23485c" d="m225.555 169.098 4.129 12.539-13.954-2.895ZM215.73 178.742l-12.558-3.844 7.195-20.101Zm0 0"/><path fill="#24485c" d="m215.73 178.742-10.55 9.254-2.008-13.098Zm0 0"/><path fill="#dae9e1" d="m237.168 214.867 6.66-10.652 2.219 8.836Zm0 0"/><path fill="#daeee5" d="m263.46 207.59-9.081.305.21-11.188Zm0 0"/><path fill="#685961" d="m243.828 204.215 10.55 3.68-8.331 5.156Zm0 0"/><path fill="#56404e" d="m254.379 207.895-10.55-3.68 10.76-7.508Zm0 0"/><path fill="#644a54" d="m257.832 183.855-3.242 12.852-5.645-13.27Zm0 0"/><path fill="#d7d7d0" d="m223.262 263.957 13.511 5.129-11.05 6.812Zm0 0"/><path fill="#daf1e8" d="m223.262 263.957-25.032-7.844 16.891-19.629ZM192.61 225.992l22.511 10.492-28.86 13.664Zm0 0"/><path fill="#23485c" d="m215.586 358.395 67.445 25.59-104.633.015Zm0 0"/><path fill="#23485c" d="m178.578 353.617 37.008 4.778L178.398 384Zm0 0"/><path fill="#778887" d="m197.492 281.75.738-25.637 25.032 7.844Zm0 0"/><path fill="#dbe7df" d="m214.93 295.348-9.625 14.437-6.489-13.176Zm0 0"/><path fill="#dbe9e0" d="m214.93 295.348 10.246 27.539-19.871-13.102Zm0 0"/><path fill="#dae9e0" d="m225.176 322.887-10.246-27.54 14.453 27.165Zm0 0"/><path fill="#23485c" d="m294.258 275.23 18.199 57.75-59.312-44.746Zm0 0"/><path fill="#23485c" d="m312.457 332.98-68.89-14.18 9.578-30.566Zm0 0"/><path fill="#68515a" d="m254.379 207.895-.14 9.14-8.192-3.984Zm0 0"/><path fill="#daece3" d="m254.238 217.035.14-9.14 9.083-.305Zm0 0"/><path fill="#daf1e8" d="m192.61 225.992-19.555-.855 7.375-15.34Zm0 0"/><path fill="#daf0e7" d="m104.043 56.953 16.273 36.516-10.296 3.816Zm0 0"/><path fill="#23485c" d="m120.316 93.469-16.273-36.516 57.465 33.004Zm0 0"/><path fill="#daede4" d="m116.785 133.375 5.875-8.687 4.156 8.19Zm0 0"/><path fill="#daf0e7" d="m120.652 149.941-3.867-16.566 10.031-.496Zm0 0"/><path fill="#23495d" d="m101.008 151.293 15.777-17.918.23 17.164ZM116.785 133.375l3.867 16.566-3.636.598Zm0 0"/><path fill="#23495d" d="m116.785 133.375-15.777 17.918 14.02-29.36Zm0 0"/><path fill="#daf0e7" d="m122.66 124.688-5.875 8.687-1.758-11.441Zm0 0"/><path fill="#daeee6" d="m131.734 122.113-9.074 2.575 3.45-13.618Zm0 0"/><path fill="#23495d" d="m120.652 149.941 1.88 13.336-5.516-12.738Zm0 0"/><path fill="#daefe6" d="m122.531 163.277-1.879-13.336 11.528 11.133Zm0 0"/><path fill="#23485c" d="m163.367 165.285-19.183-10.226 32.004-15.215Zm0 0"/><path fill="#23495c" d="m144.184 155.059 5.425-21.79 26.578 6.575Zm0 0"/><path fill="#daf0e7" d="m137.332 140.059 6.852 15-3.114 1.277Zm0 0"/><path fill="#23495d" d="m144.184 155.059-6.852-15 12.277-6.79Zm0 0"/><path fill="#daefe7" d="m137.332 140.059-16.68 9.882 6.164-17.062Zm0 0"/><path fill="#daeee5" d="m159.664 197.629-12.348 8.434-3.113-20.07Zm0 0"/><path fill="#daf0e7" d="m147.316 206.063-13.535-14.86 10.422-5.21Zm0 0"/><path fill="#daeee6" d="m136.375 179.254 11.531-9.668-3.703 16.406Zm0 0"/><path fill="#daf0e7" d="m240.98 142.29 3.942-17.188 9.578 12.48Zm0 0"/><path fill="#23485c" d="m244.922 125.102-3.942 17.187-28.855-23.973Zm0 0"/><path fill="#24485c" d="m259.723 162.012.14-11.094 7.84-1.5Zm0 0"/><path fill="#daf0e7" d="m263.996 177.691 5.067-6.761 11.445 10.937Zm0 0"/><path fill="#dcddd6" d="m261.508 142.305 10.933 4.183-4.738 2.93Zm0 0"/><path fill="#dce1d9" d="m272.441 146.488-10.933-4.183 9.168-4.52Zm0 0"/><path fill="#dce2da" d="m280.188 142.738-7.747 3.75-1.765-8.703Zm0 0"/><path fill="#23485c" d="m203.172 174.898-14.86-9.226 22.055-10.875Zm0 0"/><path fill="#23485c" d="m188.313 165.672 14.859 9.226-7.633 5.125Zm0 0"/><path fill="#d9e4dc" d="m88.148 223.766 10.36-5.09-4.203 13.515Zm0 0"/><path fill="#23495c" d="m60.434 197.195 27.714 26.57-43.851 11.88Zm0 0"/><path fill="#23495c" d="m60.434 197.195-16.137 38.45 4.23-46.657ZM127.344 280.086l-5.29 16.793-18.218-21.317Zm0 0"/><path fill="#23495d" d="m116.895 265.094 10.449 14.992-23.508-4.524Zm0 0"/><path fill="#dbe4dc" d="m116.328 231.672-13.644 12.316-8.38-11.797Zm0 0"/><path fill="#d6d8d2" d="m102.684 243.988 13.644-12.316 16.617 21.27Zm0 0"/><path fill="#23495c" d="m126.703 179.547 2.367 13.055-18.593-12.954Zm0 0"/><path fill="#daeee6" d="m133.781 191.203-4.71 1.399-2.368-13.055Zm0 0"/><path fill="#23495d" d="M104.152 203.863 76.836 163.5l33.64 16.148Zm0 0"/><path fill="#23495d" d="m129.07 192.602-24.918 11.261 6.325-24.215Zm0 0"/><path fill="#23495d" d="m76.836 163.5 27.316 40.363-33.78-19.113Zm0 0"/><path fill="#dcdfd7" d="m104.152 203.863-5.644 14.813L70.37 184.75Zm0 0"/><path fill="#23485c" d="m291.234 99.79-40.906-.517 23.805-44.82ZM280.188 142.738l-4.079-7.613 8.735.574Zm0 0"/><path fill="#dbe3db" d="m276.11 135.125-5.434 2.66.722-7.426Zm0 0"/><path fill="#dbe7de" d="m276.11 135.125 4.077 7.613-9.511-4.953Zm0 0"/><path fill="#23485c" d="m284.844 135.7-8.735-.575 3.989-9.223Zm0 0"/><path fill="#23485c" d="m276.11 135.125-4.712-4.766 8.7-4.457Zm0 0"/><path fill="#daf1e8" d="m315.91 136.04 9.332 1.015-5.523 15.691Zm0 0"/><path fill="#daf1e8" d="m312.297 151.422 3.613-15.383 3.809 16.707Zm0 0"/><path fill="#daede4" d="m304.121 175.156 6.508 2.008-8.879 25.754Zm0 0"/><path fill="#23485c" d="m310.629 177.164 9.09-24.418 8.12 12.969Zm0 0"/><path fill="#23485c" d="m343.578 195.668-32.95-18.504 17.212-11.45ZM343.578 195.668 307.45 216.23l-5.699-13.312Zm0 0"/><path fill="#23485c" d="m310.629 177.164 32.95 18.504-41.829 7.25ZM384 237.371l-45.605 47.508-15.192-43.41ZM323.203 241.469l-28.945 33.761 2.972-31.539Zm0 0"/><path fill="#1c2638" d="m384 384-100.969-.016 44.145-26.16Zm0 0"/><path fill="#22485c" d="M141.914 335.898 148 357.184l-24.926-14.872Zm0 0"/><path fill="#23495d" d="m129.293 320.168 12.621 15.73-18.84 6.414Zm0 0"/><path fill="#23485c" d="m159.867 335.633 18.711 17.984L148 357.184Zm0 0"/><path fill="#23485c" d="m141.914 335.898 17.953-.265L148 357.183ZM150.664 310.328l-21.371 9.84 7.766-15.926ZM215.586 358.395l-37.008-4.778 20.98-17.805Zm0 0"/><path fill="#23485c" d="m178.578 353.617 4.73-18.043 16.25.238Zm0 0"/><path fill="#23485c" d="m183.309 335.574-4.73 18.043-7.255-17.847Zm0 0"/><path fill="#dae9e0" d="m197.648 306.418-7.101-5.457 8.27-4.352Zm0 0"/><path fill="#23495d" d="m197.648 306.418-.785 20.578-9.133-3.426Zm0 0"/><path fill="#d8e8e0" d="m196.863 326.996 28.313-4.11-25.617 12.926Zm0 0"/><path fill="#24495d" d="m225.176 322.887-28.313 4.11 8.442-17.212Zm0 0"/><path fill="#23495d" d="m196.863 326.996.785-20.578 7.657 3.367Zm0 0"/><path fill="#d6e7df" d="m183.309 335.574 13.554-8.578 2.696 8.817Zm0 0"/><path fill="#d8e3dc" d="m196.863 326.996-13.554 8.578 4.421-12.004Zm0 0"/><path fill="#24495c" d="m212.336 198.52-7.156-10.524 9.097 1.516Zm0 0"/><path fill="#decbc5" d="m205.18 187.996 7.156 10.524-10.832-6.758Zm0 0"/><path fill="#a78d8e" d="m212.336 198.52.851 28.312-8.695-23.867Zm0 0"/><path fill="#a78b8e" d="m222.832 207.828-9.644 19.004-.852-28.312Zm0 0"/><path fill="#798c89" d="m171.465 274.84 12.125-14.113 13.902 21.023Zm0 0"/><path fill="#768988" d="m183.59 260.727-12.125 14.113-11.914-16.961Zm0 0"/><path fill="#23485c" d="m144.516 290.277-22.461 6.602 5.289-16.793Zm0 0"/><path fill="#d9e5dd" d="m165.05 287.863-15.648.79 1.098-14.68Zm0 0"/><path fill="#7b8f8e" d="m182.375 290.445-17.324-2.582 6.414-13.023Zm0 0"/><path fill="#80a09a" d="m182.375 290.445-10.91-15.605 26.027 6.91Zm0 0"/><path fill="#dfcec8" d="m289.742 153.844 2.66 3.613-9.07 4.238Zm0 0"/><path fill="#e69392" d="m292.402 157.457-3.464 8.402-5.606-4.164Zm0 0"/><path fill="#daeae2" d="m280.188 142.738 3.144 18.957-10.89-15.207Zm0 0"/><path fill="#dbe4dc" d="m283.332 161.695-3.144-18.957 9.554 11.106Zm0 0"/><path fill="#23485c" d="m270.36 151.52 6.261 15.507-7.558 3.903Zm0 0"/><path fill="#24485c" d="m270.36 151.52-10.637 10.492 7.98-12.594Zm0 0"/><path fill="#23485c" d="m259.723 162.012 10.636-10.492-1.296 19.41Zm0 0"/><path fill="#23495c" d="m270.36 151.52 12.972 10.175-6.71 5.332Zm0 0"/><path fill="#dce2da" d="m270.36 151.52-2.657-2.102 4.738-2.93Zm0 0"/><path fill="#daebe2" d="m283.332 161.695-12.973-10.175 2.082-5.032Zm0 0"/><path fill="#daf1e8" d="m276.621 167.027 6.711-5.332-2.824 20.172Zm0 0"/><path fill="#daece3" d="m250.371 165.98-1.426 17.458-9.78-4.168Zm0 0"/><path fill="#24485c" d="m205.18 187.996 10.55-9.254-1.453 10.77Zm0 0"/><path fill="#daf1e8" d="m201.504 191.762-6.941 9.156-.235-9.3Zm0 0"/><path fill="#dbe9e1" d="m243.828 204.215-4.965-11.918 15.727 4.41Zm0 0"/><path fill="#dbe9e1" d="m254.59 196.707-15.727-4.41 10.082-8.86Zm0 0"/><path fill="#daede5" d="m238.863 192.297.301-13.027 9.781 4.167Zm0 0"/><path fill="#daece4" d="m239.164 179.27-.3 13.027-9.18-10.66Zm0 0"/><path fill="#daede5" d="m267.04 192.453-12.45 4.254 3.242-12.852Zm0 0"/><path fill="#daf0e7" d="m267.04 192.453-3.044-14.762 16.512 4.176ZM263.996 177.691l3.043 14.762-9.207-8.598Zm0 0"/><path fill="#d8dcd4" d="m236.773 269.086 1.235 16.488-12.285-9.676Zm0 0"/><path fill="#869693" d="m183.59 260.727 14.64-4.614-.738 25.637Zm0 0"/><path fill="#72686b" d="m198.23 256.113-14.64 4.614 2.672-10.579Zm0 0"/><path fill="#daf0e7" d="m215.121 236.484-16.89 19.63-11.97-5.966Zm0 0"/><path fill="#24485c" d="m235.828 337.488-6.445-14.976 14.183-3.711Zm0 0"/><path fill="#25485c" d="m235.828 337.488-10.496-2.004 4.05-12.972Zm0 0"/><path fill="#dae7de" d="m197.492 281.75 17.438 13.598-16.114 1.261Zm0 0"/><path fill="#dae7df" d="m214.93 295.348-17.438-13.598 25.77-17.793Zm0 0"/><path fill="#5c5d66" d="m154.672 242.414 5.898-5.945-1.02 21.41Zm0 0"/><path fill="#dae6de" d="m225.855 294.52-10.925.828 8.332-31.391Zm0 0"/><path fill="#daeae2" d="m214.93 295.348 10.925-.828 3.528 27.992Zm0 0"/><path fill="#725158" d="m225.855 294.52 17.711 24.28-14.183 3.712Zm0 0"/><path fill="#daeae1" d="m225.855 294.52-2.593-30.563 2.46 11.941Zm0 0"/><path fill="#23485c" d="m338.395 284.879-25.938 48.101-18.2-57.75ZM323.203 241.469l15.192 43.41-44.137-9.649ZM312.457 332.98l25.938-48.101 4.73 46.86Zm0 0"/><path fill="#24485c" d="m271.805 335.637-35.977 1.851 7.738-18.687Zm0 0"/><path fill="#23485c" d="m312.457 332.98-40.652 2.657-28.239-16.836Zm0 0"/><path fill="#dbe8e0" d="m243.652 223.844-6.484-8.977 8.879-1.816Zm0 0"/><path fill="#5a4955" d="m254.238 217.035-10.586 6.809 2.395-10.793Zm0 0"/><path fill="#5e4e58" d="m243.652 223.844 10.586-6.809-6.015 9.852Zm0 0"/><path fill="#daf1e8" d="m192.61 225.992 1.952-25.074 9.93 2.047Zm0 0"/><path fill="#daf0e7" d="m194.563 200.918-1.954 25.074-12.18-16.195Zm0 0"/><path fill="#daf1e8" d="m173.055 225.137-6.97-13.41 14.345-1.93Zm0 0"/><path fill="#daf1e8" d="m166.086 211.727 6.969 13.41-16.36-4.957ZM121.2 102.227l-7.923 6.77-3.257-11.712Zm0 0"/><path fill="#daf1e8" d="m120.316 93.469.883 8.758-11.18-4.942Zm0 0"/><path fill="#23495d" d="m113.277 108.996 7.922-6.77 40.309-12.269Zm0 0"/><path fill="#23495d" d="m121.2 102.227-.884-8.758 41.192-3.512Zm0 0"/><path fill="#daeee6" d="m122.66 124.688 9.074-2.575-4.918 10.766Zm0 0"/><path fill="#daf0e7" d="m131.734 122.113 5.598 17.946-10.516-7.18Zm0 0"/><path fill="#23485c" d="m137.332 140.059-5.598-17.946 17.875 11.157Zm0 0"/><path fill="#23495d" d="m113.277 108.996 48.23-19.039-35.398 21.113Zm0 0"/><path fill="#23495c" d="m161.508 89.957-29.774 32.156-5.625-11.043Zm0 0"/><path fill="#23495d" d="m131.734 122.113 29.774-32.156-11.899 43.313Zm0 0"/><path fill="#daeee5" d="m132.18 161.074 5.152-21.015 3.738 16.277Zm0 0"/><path fill="#daefe6" d="m137.332 140.059-5.152 21.015-11.528-11.133Zm0 0"/><path fill="#daebe3" d="m147.906 169.586-15.726-8.512 8.89-4.738Zm0 0"/><path fill="#daf0e7" d="m144.184 155.059 3.722 14.527-6.836-13.25Zm0 0"/><path fill="#daefe7" d="m132.18 161.074 15.726 8.512-11.531 9.668Zm0 0"/><path fill="#23495c" d="m147.906 169.586-3.722-14.527 19.183 10.226Zm0 0"/><path fill="#daf0e7" d="m244.195 148.125-3.215-5.836 13.52-4.707Zm0 0"/><path fill="#dbeae1" d="m252.691 151.656-8.496-3.531 10.305-10.543Zm0 0"/><path fill="#daf0e7" d="m244.195 148.125-6.254-1.234 3.04-4.602Zm0 0"/><path fill="#877274" d="m250.371 165.98 2.32-14.324 7.032 10.356Zm0 0"/><path fill="#daebe3" d="m252.691 151.656-2.32 14.324-6.457-10.261Zm0 0"/><path fill="#a09c99" d="m259.723 162.012-7.032-10.356 7.172-.738Zm0 0"/><path fill="#daede5" d="m244.195 148.125 8.496 3.531-8.777 4.063Zm0 0"/><path fill="#6c4b54" d="m248.945 183.438 8.243-7.704.644 8.121Zm0 0"/><path fill="#daefe7" d="m257.188 175.734 6.808 1.957-6.164 6.164Zm0 0"/><path fill="#693f4a" d="m257.188 175.734-6.817-9.754 9.352-3.968Zm0 0"/><path fill="#553e4c" d="m250.371 165.98 6.816 9.754-8.242 7.703Zm0 0"/><path fill="#23485c" d="m269.063 170.93-11.875 4.804 2.535-13.722ZM263.996 177.691l-6.808-1.957 11.875-4.804ZM232.574 170.441l-2.89 11.196-4.13-12.54Zm0 0"/><path fill="#daede4" d="m229.684 181.637 2.89-11.196 6.59 8.829Zm0 0"/><path fill="#daefe6" d="m232.574 170.441 17.797-4.46-11.207 13.289Zm0 0"/><path fill="#daece3" d="m250.371 165.98-17.797 4.461 11.34-14.722Zm0 0"/><path fill="#daf1e8" d="m244.195 148.125-5.773 4.176-.48-5.41Zm0 0"/><path fill="#23485c" d="m237.941 146.89.48 5.41-28.054 2.497Zm0 0"/><path fill="#23495c" d="m238.422 152.3-12.867 16.798-15.188-14.301Zm0 0"/><path fill="#23485c" d="m238.422 152.3-5.848 18.141-7.02-1.343Zm0 0"/><path fill="#daede4" d="m238.422 152.3 5.773-4.175-.28 7.594Zm0 0"/><path fill="#daefe7" d="m232.574 170.441 5.848-18.14 5.492 3.418Zm0 0"/><path fill="#23495d" d="m188.313 165.672-12.125-25.828 34.18 14.953Zm0 0"/><path fill="#23485c" d="m188.313 165.672-24.946-.387 12.82-25.441ZM188.313 165.672l-15.391 17.527-9.555-17.914Zm0 0"/><path fill="#23485c" d="m188.313 165.672 7.226 14.351-22.617 3.176Zm0 0"/><path fill="#d9f0e7" d="m67.664 191.55-3.629-3.702 6.336-3.098Zm0 0"/><path fill="#23495d" d="m63.016 179.96 1.02 7.888-15.509 1.14Zm0 0"/><path fill="#d9f1e8" d="m70.371 184.75-6.336 3.098-1.02-7.887Zm0 0"/><path fill="#23495d" d="m64.035 187.848-3.601 9.347-11.907-8.207Zm0 0"/><path fill="#23495d" d="m60.434 197.195 3.601-9.347 3.63 3.703Zm0 0"/><path fill="#dbe9e1" d="m67.664 191.55 30.844 27.126-10.36 5.09Zm0 0"/><path fill="#23495d" d="m60.434 197.195 7.23-5.644 20.484 32.215Zm0 0"/><path fill="#daeee5" d="M98.508 218.676 67.664 191.55l2.707-6.801Zm0 0"/><path fill="#dce2da" d="m98.508 218.676 17.82 12.996-22.023.52Zm0 0"/><path fill="#23485c" d="m326.316 128.129 16.438-1.797-17.512 10.723Zm0 0"/><path fill="#d9f1e8" d="m315.91 136.04 10.406-7.911-1.074 8.926Zm0 0"/><path fill="#daeee5" d="m304.121 175.156-11.719-17.699 11.008-3.68Zm0 0"/><path fill="#794c59" d="m292.402 157.457 11.72 17.7-15.185-9.298Zm0 0"/><path fill="#daebe3" d="m304.121 175.156 15.598-22.41-9.09 24.418Zm0 0"/><path fill="#23485c" d="M338.395 284.879 384 237.37v64.7ZM283.969 249.715l10.289 25.515-30.563-21.718Zm0 0"/><path fill="#23485c" d="m294.258 275.23-10.29-25.515 13.262-6.024Zm0 0"/><path fill="#23485c" d="m283.969 249.715 4.234-11.957 9.027 5.933ZM323.203 241.469l-25.973 2.222-3.546-16.535Zm0 0"/><path fill="#23485c" d="m307.45 216.23 15.753 25.239-29.52-14.313Zm0 0"/><path fill="#23485c" d="m296.05 212.816 11.4 3.414-13.766 10.926ZM323.203 241.469 307.45 216.23l36.13-20.562Zm0 0"/><path fill="#1c2638" d="m327.176 357.824-14.719-24.844 30.668-1.242Zm0 0"/><path fill="#22475b" d="m159.867 335.633 11.457.137 7.254 17.847Zm0 0"/><path fill="#23485c" d="m145.55 324.7-3.636 11.198-12.621-15.73Zm0 0"/><path fill="#23485c" d="m150.664 310.328-5.113 14.371-16.258-4.531Zm0 0"/><path fill="#daeae2" d="m145.55 324.7 5.114-14.372 10.195 12.215Zm0 0"/><path fill="#d9e9e1" d="m159.867 335.633-14.316-10.934 15.308-2.156Zm0 0"/><path fill="#d7eae2" d="m145.55 324.7 14.317 10.933-17.953.265Zm0 0"/><path fill="#23485c" d="m122.055 296.879 22.46-6.602-7.456 13.965Zm0 0"/><path fill="#d8eae2" d="m150.664 310.328 12.332 4.383-2.137 7.832Zm0 0"/><path fill="#d8ebe3" d="m162.996 314.71 11.977 4.61-14.114 3.223Zm0 0"/><path fill="#23485c" d="m184 312.422 13.648-6.004-9.918 17.152Zm0 0"/><path fill="#23485c" d="m184 312.422 6.547-11.461 7.101 5.457Zm0 0"/><path fill="#ac989b" d="m212.336 198.52-7.844 4.445-2.988-11.203Zm0 0"/><path fill="#daefe7" d="m201.504 191.762 2.988 11.203-9.93-2.047Zm0 0"/><path fill="#daebe3" d="m222.832 207.828 20.996-3.613-6.66 10.652Zm0 0"/><path fill="#daebe2" d="m222.832 207.828 16.031-15.531 4.965 11.918Zm0 0"/><path fill="#606168" d="m160.57 236.469 13.368 13.511-14.387 7.899Zm0 0"/><path fill="#54545e" d="m173.938 249.98 9.652 10.747-24.04-2.848Zm0 0"/><path fill="#54545f" d="m183.59 260.727-9.653-10.747 12.325.168Zm0 0"/><path fill="#54535f" d="m173.938 249.98 2.363-5.535 9.96 5.703Zm0 0"/><path fill="#595d67" d="m176.3 244.445-2.363 5.535-13.367-13.511Zm0 0"/><path fill="#23495d" d="m139.805 277.672 4.71 12.605-17.171-10.191Zm0 0"/><path fill="#daeee5" d="m139.805 277.672 9.597 10.98-4.886 1.625Zm0 0"/><path fill="#daefe6" d="m280.508 181.867 8.43-16.008 15.183 9.297Zm0 0"/><path fill="#daf0e7" d="m283.332 161.695 5.606 4.164-8.43 16.008Zm0 0"/><path fill="#daf1e8" d="m180.43 209.797 2.918-16.945 11.214 8.066Zm0 0"/><path fill="#23485c" d="m172.922 183.2.426 18.421-13.684-3.992Zm0 0"/><path fill="#27485b" d="m173.348 201.621-7.262 10.106-6.422-14.098Zm0 0"/><path fill="#daf1e8" d="m166.086 211.727 7.262-10.106 7.082 8.176Zm0 0"/><path fill="#23485c" d="m183.348 192.852-10 8.77-.426-18.423Zm0 0"/><path fill="#daf1e8" d="m173.348 201.621 10-8.77-2.918 16.946Zm0 0"/><path fill="#23485c" d="m257.086 268.637 37.172 6.593-41.113 13.004Zm0 0"/><path fill="#23495c" d="m294.258 275.23-37.172-6.593 6.61-15.125Zm0 0"/><path fill="#daf1e8" d="m204.492 202.965 8.696 23.867-20.579-.84Zm0 0"/><path fill="#daf1e8" d="m213.188 226.832 1.933 9.652-22.512-10.492Zm0 0"/><path fill="#dae4dc" d="m190.547 300.96-8.172-10.515 16.441 6.164Zm0 0"/><path fill="#d9e7df" d="m182.375 290.445 15.117-8.695 1.324 14.86Zm0 0"/><path fill="#758386" d="m150.5 273.973-13.727-24.098 22.778 8.004Zm0 0"/><path fill="#52606b" d="m136.773 249.875 17.899-7.46 4.879 15.464Zm0 0"/><path fill="#944549" d="m243.566 318.8-5.558-33.226 15.137 2.66Zm0 0"/><path fill="#9fb8ad" d="m225.855 294.52 12.153-8.946 5.558 33.227Zm0 0"/><path fill="#94a29c" d="m238.008 285.574-12.153 8.946-.132-18.622Zm0 0"/><path fill="#dbe9e1" d="m243.652 223.844-15.015 1.21 8.531-10.187Zm0 0"/><path fill="#dbe5dd" d="m213.188 226.832 15.449-1.777-13.516 11.43Zm0 0"/><path fill="#dbe6de" d="m228.637 225.055 4.758 8.953-18.274 2.476Zm0 0"/><path fill="#daebe2" d="m228.637 225.055-5.805-17.227 14.336 7.04Zm0 0"/><path fill="#daebe2" d="m228.637 225.055-15.45 1.777 9.645-19.004Zm0 0"/><path fill="#63525b" d="m254.238 217.035-1.777 10.606-4.238-.754Zm0 0"/><path fill="#daede5" d="m268.238 221.176-14-4.14 9.223-9.446Zm0 0"/><path fill="#daefe6" d="m268.238 221.176-4.777-13.586 15.793-1.246Zm0 0"/><path fill="#23485c" d="m153.21 179.379-5.304-9.793 15.461-4.3Zm0 0"/><path fill="#23485c" d="m172.922 183.2-19.711-3.821 10.156-14.094Zm0 0"/><path fill="#daefe6" d="m147.906 169.586 5.305 9.793-9.008 6.613Zm0 0"/><path fill="#daefe6" d="m153.21 179.379 6.454 18.25-15.46-11.637Zm0 0"/><path fill="#23485c" d="m159.664 197.629-6.453-18.25 19.71 3.82Zm0 0"/><path fill="#daf1e8" d="m176.3 244.445-3.245-19.308 19.554.855Zm0 0"/><path fill="#daf0e7" d="m176.3 244.445 16.31-18.453-6.348 24.156Zm0 0"/><path fill="#daeee5" d="m158.86 209.766-11.544-3.703 12.348-8.434Zm0 0"/><path fill="#daf1e8" d="m166.086 211.727-7.227-1.961.805-12.137Zm0 0"/><path fill="#23495d" d="m116.895 265.094 16.05-12.153-5.601 27.145Zm0 0"/><path fill="#23495c" d="m132.945 252.941 6.86 24.73-12.461 2.415Zm0 0"/><path fill="#daeae2" d="m139.805 277.672-6.86-24.73 17.555 21.03Zm0 0"/><path fill="#d4dcd5" d="m116.328 231.672 20.445 18.203-3.828 3.066Zm0 0"/><path fill="#23485c" d="m237.941 146.89-25.816-28.574 28.855 23.973ZM212.125 118.316l25.816 28.575-27.574 7.906Zm0 0"/><path fill="#ddd9d2" d="m134.691 221.316-36.183-2.64 5.644-14.813Zm0 0"/><path fill="#676a75" d="m98.508 218.676 36.183 2.64-18.363 10.356Zm0 0"/><path fill="#23485c" d="m326.316 128.129-3.507-15.504 19.945 13.707ZM337.855 68.07l-15.046 44.555-31.575-12.836ZM342.754 126.332l-19.945-13.707 15.046-44.555Zm0 0"/><path fill="#daf0e7" d="m304.121 175.156 8.176-23.734 7.422 1.324Zm0 0"/><path fill="#daf0e7" d="m312.297 151.422-8.176 23.734-.71-21.379Zm0 0"/><path fill="#1c2638" d="m283.031 383.984-11.226-48.347 55.37 22.187ZM327.176 357.824l-55.371-22.187 40.652-2.657Zm0 0"/><path fill="#d5e6df" d="m174.973 319.32-4.758 10.016-9.356-6.793Zm0 0"/><path fill="#d7e8e0" d="m170.215 329.336-10.348 6.297.992-13.09Zm0 0"/><path fill="#d7e7df" d="m170.215 329.336 1.11 6.434-11.458-.137Zm0 0"/><path fill="#23495c" d="m226.996 191.945-14.66 6.575 1.941-9.008Zm0 0"/><path fill="#23485c" d="m226.996 191.945-4.164 15.883-10.496-9.308ZM215.73 178.742l11.266 13.203-12.719-2.433ZM226.996 191.945l-11.266-13.203 13.954 2.895Zm0 0"/><path fill="#daede4" d="m238.863 192.297-11.867-.352 2.688-10.308Zm0 0"/><path fill="#daf0e7" d="m222.832 207.828 4.164-15.883 11.867.352Zm0 0"/><path fill="#daebe2" d="m139.805 277.672 10.695-3.7-1.098 14.68Zm0 0"/><path fill="#23485c" d="m280.188 142.738 17.613 6.145-8.059 4.96ZM284.844 135.7l12.957 13.183-17.613-6.145Zm0 0"/><path fill="#23485c" d="m297.8 148.883-5.398 8.574-2.66-3.613Zm0 0"/><path fill="#daf1e8" d="m292.402 157.457 5.399-8.574 5.61 4.894Zm0 0"/><path fill="#867f7c" d="m257.086 268.637-19.078 16.937-1.235-16.488Zm0 0"/><path fill="#926565" d="m238.008 285.574 19.078-16.937-3.941 19.597Zm0 0"/><path fill="#dad8d1" d="m223.262 263.957 14.965-3.117-1.454 8.246Zm0 0"/><path fill="#838b87" d="m238.227 260.84 18.859 7.797-20.313.449Zm0 0"/><path fill="#876f6f" d="m257.086 268.637-18.86-7.797 12.903-17.934Zm0 0"/><path fill="#dbe1d9" d="m233.395 234.008-10.133 29.949-8.14-27.473Zm0 0"/><path fill="#1c2638" d="m235.828 337.488 35.977-1.851 11.226 48.347Zm0 0"/><path fill="#23485c" d="m235.828 337.488 47.203 46.496-67.445-25.59Zm0 0"/><path fill="#d5e2da" d="m132.945 252.941 3.828-3.066 13.727 24.098Zm0 0"/><path fill="#daf0e7" d="m173.055 225.137 3.246 19.308-15.73-7.976Zm0 0"/><path fill="#daf1e8" d="m173.055 225.137-12.485 11.332-3.875-16.29Zm0 0"/><path fill="#ded3cd" d="m276.559 233.645 1.199 9.824-11.84-10.957Zm0 0"/><path fill="#dcdfd8" d="m277.758 243.469-14.711-1.676 2.871-9.281Zm0 0"/><path fill="#d7b6b2" d="m263.047 241.793 14.71 1.676-14.062 10.043Zm0 0"/><path fill="#26485c" d="m277.758 243.469 6.21 6.246-20.273 3.797Zm0 0"/><path fill="#24485c" d="m283.969 249.715-6.211-6.246 10.445-5.711Zm0 0"/><path fill="#dec9c3" d="m277.758 243.469-1.2-9.824 11.645 4.113Zm0 0"/><path fill="#d8dcd4" d="m251.742 234.055 11.305 7.738-11.918 1.113Zm0 0"/><path fill="#62434f" d="m252.46 227.64-.718 6.415-3.52-7.168Zm0 0"/><path fill="#d6e0d8" d="m251.742 234.055.719-6.414 13.457 4.87Zm0 0"/><path fill="#dcded7" d="m263.047 241.793-11.305-7.738 14.176-1.543Zm0 0"/><path fill="#dbe9e1" d="m252.46 227.64 15.778-6.464-2.32 11.336Zm0 0"/><path fill="#daeee6" d="m268.238 221.176 8.32 12.469-10.64-1.133Zm0 0"/><path fill="#daebe2" d="m268.238 221.176-15.777 6.465 1.777-10.606Zm0 0"/><path fill="#5e6672" d="m134.691 221.316 2.082 28.559-20.445-18.203Zm0 0"/><path fill="#daf1e8" d="m194.563 200.918-11.215-8.066 10.98-1.235Zm0 0"/><path fill="#daf0e7" d="m183.348 192.852 12.191-12.829-1.21 11.594Zm0 0"/><path fill="#23485c" d="m195.54 180.023-12.192 12.829-10.426-9.653Zm0 0"/><path fill="#23495d" d="m129.07 192.602 5.621 28.714-30.539-17.453Zm0 0"/><path fill="#daefe6" d="m134.691 221.316-5.62-28.714 4.71-1.399Zm0 0"/><path fill="#daece4" d="m147.316 206.063-12.625 15.253-.91-30.113Zm0 0"/><path fill="#daf1e8" d="m160.57 236.469-10.754-5.5 6.88-10.79Zm0 0"/><path fill="#daefe7" d="m158.86 209.766-2.165 10.414-9.379-14.118Zm0 0"/><path fill="#dbe8e0" d="m156.695 220.18-22.004 1.136 12.625-15.254Zm0 0"/><path fill="#dadad3" d="m156.695 220.18-6.879 10.789-15.125-9.653Zm0 0"/><path fill="#daf1e8" d="m156.695 220.18 2.164-10.414 7.227 1.96Zm0 0"/><path fill="#23495d" d="m293.715 129.457-13.617-3.555 11.136-26.113Zm0 0"/><path fill="#23485c" d="m293.715 129.457-8.871 6.242-4.746-9.797ZM293.715 129.457l4.086 19.426-12.957-13.184Zm0 0"/><path fill="#d8e7df" d="m170.215 329.336 13.094 6.238-11.985.196Zm0 0"/><path fill="#23485c" d="m144.516 290.277 6.148 20.051-13.605-6.086Zm0 0"/><path fill="#26495d" d="m150.664 310.328 10.238-3.457 2.094 7.84Zm0 0"/><path fill="#dbe4dc" d="m150.664 310.328-1.262-21.676 11.5 18.22Zm0 0"/><path fill="#daede5" d="m149.402 288.652 1.262 21.676-6.148-20.05Zm0 0"/><path fill="#23485c" d="m174.066 305.594 9.934 6.828-9.027 6.898Zm0 0"/><path fill="#25495d" d="m162.996 314.71 11.07-9.116.907 13.726Zm0 0"/><path fill="#23495d" d="m160.902 306.871 13.164-1.277-11.07 9.117Zm0 0"/><path fill="#daddd6" d="m174.066 305.594-13.164 1.277 12.438-8.832Zm0 0"/><path fill="#65616a" d="m182.375 290.445 8.172 10.516-17.207-2.922Zm0 0"/><path fill="#c9d0cb" d="m190.547 300.96-16.48 4.634-.727-7.555Zm0 0"/><path fill="#23485c" d="m174.066 305.594 16.48-4.633L184 312.42Zm0 0"/><path fill="#dad4ce" d="m263.047 241.793.648 11.719-12.566-10.606Zm0 0"/><path fill="#885b5e" d="m263.695 253.512-6.61 15.125-5.956-25.73Zm0 0"/><path fill="#dce0d8" d="m240.922 236.992-2.695 23.848-14.965 3.117Zm0 0"/><path fill="#dce1d9" d="m233.395 234.008 7.527 2.984-17.66 26.965Zm0 0"/><path fill="#747475" d="m238.227 260.84 2.695-23.848 10.207 5.914Zm0 0"/><path fill="#787072" d="m240.922 236.992 10.82-2.937-.613 8.851Zm0 0"/><path fill="#6c525a" d="m251.742 234.055-10.82 2.937 7.3-10.105Zm0 0"/><path fill="#24485c" d="m297.23 243.691-9.027-5.933 5.48-10.602Zm0 0"/><path fill="#394c5d" d="m136.773 249.875 13.043-18.906 4.856 11.445Zm0 0"/><path fill="#676872" d="m134.691 221.316 15.125 9.653-13.043 18.906Zm0 0"/><path fill="#5e616b" d="m149.816 230.969 10.754 5.5-5.898 5.945Zm0 0"/><path fill="#23485c" d="m322.809 112.625-13.72 12.969-17.855-25.805Zm0 0"/><path fill="#23485c" d="m309.09 125.594-15.375 3.863-2.48-29.668ZM309.09 125.594l13.719-12.969 3.507 15.504ZM309.09 125.594l17.226 2.535-10.406 7.91ZM174.973 319.32l9.027-6.898 3.73 11.148Zm0 0"/><path fill="#d7e6de" d="m183.309 335.574-8.336-16.254 12.757 4.25Zm0 0"/><path fill="#d8e6de" d="m174.973 319.32 8.336 16.254-13.094-6.238Zm0 0"/><path fill="#b8c1bc" d="m165.05 287.863 17.325 2.582-9.035 7.594Zm0 0"/><path fill="#d6dbd4" d="m160.902 306.871 4.149-19.008 8.289 10.176Zm0 0"/><path fill="#dae3db" d="m149.402 288.652 15.649-.789-4.149 19.008Zm0 0"/><path fill="#dbe5dd" d="m243.652 223.844-2.73 13.148-7.527-2.984Zm0 0"/><path fill="#63535c" d="m240.922 236.992 2.73-13.148 4.57 3.043Zm0 0"/><path fill="#dbe5dd" d="m228.637 225.055 15.015-1.211-10.257 10.164Zm0 0"/><path fill="#daebe2" d="m282.754 223.672 5.45 14.086-11.645-4.113Zm0 0"/><path fill="#daefe6" d="m282.754 223.672-14.516-2.496 11.016-14.832Zm0 0"/><path fill="#daede5" d="m282.754 223.672-6.195 9.973-8.32-12.47Zm0 0"/><path fill="#daf0e7" d="m296.05 212.816-13.296 10.856-3.5-17.328Zm0 0"/><path fill="#daeee5" d="m282.754 223.672 13.297-10.856-2.367 14.34Zm0 0"/><path fill="#daede4" d="m288.203 237.758-5.45-14.086 10.93 3.484Zm0 0"/><path fill="#23485c" d="m309.09 125.594-3.906 19.125-11.47-15.262Zm0 0"/><path fill="#daf1e8" d="m297.8 148.883 7.384-4.164-1.774 9.058Zm0 0"/><path fill="#23485c" d="m293.715 129.457 11.469 15.262-7.383 4.164Zm0 0"/><path fill="#daf1e8" d="m305.184 144.719 7.113 6.703-8.887 2.355Zm0 0"/><path fill="#daf1e8" d="m305.184 144.719 10.726-8.68-3.613 15.383Zm0 0"/><path fill="#23485c" d="m305.184 144.719 3.906-19.125 6.82 10.445Zm0 0"/></svg>