<svg xmlns="http://www.w3.org/2000/svg" width="512" height="512" viewBox="0 0 384 384"><path fill="#202215" d="m178.61 70.04 40.378-15.505-8.816 37.09ZM218.988 54.535l-3.62-33.023 27.109 4.273Zm0 0"/><path fill="#202215" d="m182.547 102.313-3.938-32.274 31.563 21.586ZM32.863 260.922l22 33.578-32.437-3.531Zm0 0"/><path fill="#202215" d="m54.863 294.5-22-33.578 37.633 1.312ZM81.879 90.73l.793-32.625 20.758 20.418ZM29.395 126.113l1.683 33.559L0 143.41ZM356.867 135.965 384 162.828l-38.668-1.793ZM142.64 0l-12.25 24.684L113.95 0ZM228.96 0l-13.593 21.512L200.094 0ZM228.96 0h29.395l-15.878 25.785Zm0 0"/><path fill="#202215" d="M215.367 21.512 228.961 0l13.516 25.785ZM215.367 21.512l-30.883 9.394L200.094 0ZM184.484 30.906l34.504 23.63-40.379 15.503Zm0 0"/><path fill="#202215" d="m218.988 54.535-34.504-23.629 30.883-9.394ZM145.3 70.879l6.65-25.582 26.66 24.742Zm0 0"/><path fill="#202215" d="m151.95 45.297 32.534-14.39-5.875 39.132ZM184.484 30.906l-32.535 14.39 3.406-25.41ZM169.855 124.445l-16.808-26.11 29.5 3.978ZM47.09 0 32.785 31.223 0 0ZM32.785 31.223 47.09 0l18.957 27.945ZM32.785 31.223l33.262-3.278-13.328 23.778ZM28.09 63.09l4.695-31.867 19.934 20.5ZM32.785 31.223 28.09 63.09 0 44.793ZM66.047 27.945l16.625 30.16-29.953-6.382ZM86.176 183.277l-15.98 17.282-7.864-27.985ZM57.086 230.152l-24.223 30.77-8.351-31.723ZM32.863 260.922l24.223-30.77 13.41 32.082Zm0 0"/><path fill="#202215" d="m96.39 289.52-41.527 4.98 15.633-32.266ZM96.695 258.496l-.304 31.024-25.895-27.286ZM96.39 289.52l-18.18 31.066L54.864 294.5Zm0 0"/><path fill="#202215" d="M117.473 263.805 96.39 289.52l.304-31.024ZM0 305.223v-29.79l22.426 15.536Zm0 0"/><path fill="#202215" d="m0 275.434 32.863-14.512-10.437 30.047ZM57.086 230.152l-22.3-32.879 35.41 3.286Zm0 0"/><path fill="#202215" d="m70.195 200.559-35.41-3.286 27.547-24.699Zm0 0"/><path fill="#202215" d="m34.785 197.273-3.707-37.601 31.254 12.902ZM0 212.457l34.785-15.184L24.512 229.2Zm0 0"/><path fill="#202215" d="m34.785 197.273 22.3 32.88-32.573-.954ZM81.879 90.73l5.86 30.415-30.704-12.692ZM122.43 159.29l9.64 16.327-21.218 6.703ZM59.941 140.613l-30.546-14.5 27.64-17.66Zm0 0"/><path fill="#202215" d="m87.738 121.145-27.797 19.468-2.906-32.16ZM31.078 159.672l28.863-19.059 2.391 31.961Zm0 0"/><path fill="#202215" d="m29.395 126.113 30.546 14.5-28.863 19.059ZM218.988 54.535l26.133 29.707-34.95 7.383ZM245.121 84.242l-12.39 30.211-22.56-22.828Zm0 0"/><path fill="#202215" d="m257.691 53.02-38.703 1.515 23.489-28.75ZM257.691 53.02l-12.57 31.222-26.133-29.707ZM289.184 0 273.48 26.113 258.355 0Zm0 0"/><path fill="#202215" d="m258.355 0 15.125 26.113-31.003-.328ZM273.48 26.113 257.691 53.02l-15.214-27.235ZM257.691 53.02l15.79-26.907 19.156 27.512ZM273.48 26.113 289.184 0l12.191 24.414Zm0 0"/><path fill="#202215" d="M292.637 53.625 273.48 26.113l27.895-1.699ZM292.637 53.625l8.738-29.21 24.047 16.355ZM353.969 189.016l-25.356 18.332-1.488-27.465ZM384 162.828l-30.031 26.188-8.637-27.98ZM154.84 339.953l-5.406 20.399-10.797-16.614ZM123.8 358.86l-1.948-24.762 16.785 9.64ZM149.434 360.352l-25.633-1.493 14.836-15.12ZM123.8 358.86l25.634 1.492L136.464 384ZM149.434 360.352l21.879-8.543L173.07 384Zm0 0"/><path fill="#202215" d="m171.313 351.809-21.88 8.543 5.407-20.399ZM0 305.223l27.535 11.66L0 340.637Zm0 0"/><path fill="#202215" d="m27.535 316.883 8.63 28.183L0 340.636ZM99.18 384l24.62-25.14L136.466 384ZM197.234 357.328 173.07 384l-1.757-32.191ZM155.355 19.887l-24.964 4.797L142.64 0ZM184.484 30.906 170.117 0h29.977Zm0 0"/><path fill="#202215" d="M142.64 0h27.477l-14.762 19.887Zm0 0"/><path fill="#202215" d="m170.117 0 14.367 30.906-29.129-11.02ZM82.672 58.105l37.047-2.949-16.29 23.367ZM119.719 55.156l5.875 30.356-22.164-6.989Zm0 0"/><path fill="#202215" d="m125.594 85.512-5.875-30.356L145.3 70.88ZM143.34 126.316l13.469 19.707-19.88-.105ZM147.809 180.926l4.453 18.625-19.239-6.504ZM201.57 124.914l25.153 14.957-19.141 14.64Zm0 0"/><path fill="#202215" d="m201.57 124.914 31.16-10.46-6.007 25.417ZM232.73 114.453l-31.16 10.461 8.602-33.289Zm0 0"/><path fill="#202215" d="m201.57 124.914-19.023-22.601 27.625-10.688Zm0 0"/><path fill="#202215" d="m201.57 124.914-31.715-.469 12.692-22.132ZM181.758 148.652l19.812-23.738 6.012 29.598Zm0 0"/><path fill="#202215" d="m201.57 124.914-19.812 23.738-11.903-24.207ZM190.14 173.535l-8.382-24.883 25.824 5.86ZM47.09 0h34.777l-15.82 27.945ZM32.785 31.223 0 44.793V0ZM130.39 24.684l-31.3 2.984L113.95 0Zm0 0"/><path fill="#202215" d="M99.09 27.668 81.867 0h32.082Zm0 0"/><path fill="#202215" d="M81.867 0 99.09 27.668l-33.043.277ZM66.047 27.945l33.043-.277-16.418 30.437ZM99.09 27.668l20.629 27.488-37.047 2.95Zm0 0"/><path fill="#202215" d="m119.719 55.156-20.63-27.488 31.302-2.984ZM0 78.262V44.793L28.09 63.09ZM29.395 126.113l-1.125-32.09 28.765 14.43ZM28.27 94.023 0 78.262 28.09 63.09Zm0 0"/><path fill="#202215" d="M28.27 94.023 0 110.348V78.262ZM0 110.348l28.27-16.325 1.125 32.09ZM132.07 175.617l.953 17.43-22.171-10.727ZM133.023 193.047l-16.035 13.683-6.136-24.41Zm0 0"/><path fill="#202215" d="m116.988 206.73-21.976-4.296 15.84-20.114Zm0 0"/><path fill="#202215" d="m95.012 202.434-8.836-19.157 24.676-.957ZM87.14 239.23l9.555 19.266-26.199 3.738Zm0 0"/><path fill="#202215" d="m57.086 230.152 30.055 9.078-16.645 23.004ZM109.668 242.875l7.805 20.93-20.778-5.309ZM104.25 320.39l-7.86-30.87 30.176 19.253Zm0 0"/><path fill="#202215" d="m96.39 289.52 7.86 30.87-26.04.196ZM0 275.434v-30.559l32.863 16.047ZM0 244.875v-32.418l24.512 16.742ZM32.863 260.922 0 244.875l24.512-15.676ZM0 178.375l34.785 18.898L0 212.457ZM0 178.375V143.41l31.078 16.262Zm0 0"/><path fill="#202215" d="M34.785 197.273 0 178.375l31.078-18.703ZM106.137 99.508l-18.399 21.637-5.86-30.415ZM106.137 99.508 81.879 90.73l21.55-12.207ZM106.137 99.508l19.457-13.996.594 24.008Zm0 0"/><path fill="#202215" d="m125.594 85.512-19.457 13.996-2.707-20.985Zm0 0"/><path fill="#202215" d="m110.2 115.117-4.063-15.61 20.05 10.013ZM106.137 99.508l4.062 15.61-22.46 6.027ZM0 110.348l29.395 15.765L0 143.41ZM92.125 155.574l-32.184-14.96 27.797-19.47ZM92.125 155.574l30.305 3.715-11.578 23.031Zm0 0"/><path fill="#202215" d="m86.176 183.277 5.949-27.703 18.727 26.746Zm0 0"/><path fill="#202215" d="m92.125 155.574-5.95 27.703-23.843-10.703Zm0 0"/><path fill="#202215" d="m59.941 140.613 32.184 14.961-29.793 17ZM352.188 60.844l-30.676 11.172 3.91-31.246ZM321.512 72.016l30.676-11.172-6.926 30.383Zm0 0"/><path fill="#202215" d="m321.512 72.016-28.875-18.391 32.785-12.855Zm0 0"/><path fill="#202215" d="M321.512 72.016 295.098 85.52l-2.461-31.895ZM384 0v45.203l-29.223-14.777ZM272.695 75.164 257.691 53.02l34.946.605Zm0 0"/><path fill="#202215" d="m295.098 85.52-22.403-10.356 19.942-21.539ZM257.691 53.02l15.004 22.144-27.574 9.078ZM353.969 189.016 384 162.828v39.805ZM345.332 161.035l-18.207 18.848-6.062-21.531ZM345.332 161.035l8.637 27.98-26.844-9.132Zm0 0"/><path fill="#202215" d="m331.855 139.992 13.477 21.043-24.27-2.683Zm0 0"/><path fill="#202215" d="m345.332 161.035-13.477-21.043 25.012-4.027ZM331.855 139.992l6.18-22.59 18.832 18.563ZM356.867 135.965 384 124.199v38.63ZM328.613 207.348l-20.851-15.551 19.363-11.914ZM384 315.824v28.965l-20.566-14.418ZM342.129 277.273l12.82 28.383-35.008-1.824ZM384 344.79l-28.645 10.097 8.079-24.516ZM149.434 360.352 173.07 384h-36.605ZM96.39 289.52l32.903-6.016-2.727 25.27Zm0 0"/><path fill="#202215" d="m129.293 283.504-32.902 6.016 21.082-25.715ZM121.852 334.098l19.918-6.98-3.133 16.62ZM121.852 334.098l4.714-25.325 15.204 18.344ZM121.852 334.098 104.25 320.39l22.316-11.618ZM169.215 334.145l2.097 17.664-16.472-11.856ZM27.535 316.883 0 305.223l22.426-14.254Zm0 0"/><path fill="#202215" d="m54.863 294.5-27.328 22.383-5.11-25.914ZM21.547 361.914 0 384v-43.363Zm0 0"/><path fill="#202215" d="m36.164 345.066-14.617 16.848L0 340.637ZM96.066 346.348 99.18 384l-20.782-20.953ZM96.066 346.348l-17.668 16.699-12.886-16.664ZM123.8 358.86l-27.734-12.512 25.786-12.25Zm0 0"/><path fill="#202215" d="m99.18 384-3.114-37.652 27.735 12.511ZM78.21 320.586l17.856 25.762-30.554.035ZM96.066 346.348l8.184-25.957 17.602 13.707ZM104.25 320.39l-8.184 25.958-17.855-25.762ZM218.406 228.914l-26-1.062 17.176-17.766ZM202.05 192.55l-8.687 13.544-8.789-11.969ZM270.602 210.05l-13.7-16.613 18.121-3.824ZM248.688 210.762l8.214-17.324 13.7 16.613ZM201.309 335.27l11.207-12.536 5.492 19.375Zm0 0"/><path fill="#202215" d="m212.516 322.734-11.207 12.536-7.266-14.461ZM212.516 322.734l-8.063-17.851 20.363 2.34Zm0 0"/><path fill="#202215" d="m204.453 304.883 8.063 17.851-18.473-1.925ZM153.047 98.336l-27.453-12.824L145.3 70.879ZM125.594 85.512l27.453 12.824-26.86 11.184Zm0 0"/><path fill="#202215" d="M153.047 98.336 145.3 70.879l33.308-.84ZM182.547 102.313l-29.5-3.977 25.562-28.297Zm0 0"/><path fill="#202215" d="m119.719 55.156 32.23-9.86-6.648 25.583Zm0 0"/><path fill="#202215" d="m155.355 19.887-3.406 25.41-21.558-20.613Zm0 0"/><path fill="#202215" d="m151.95 45.297-32.231 9.86 10.672-30.473ZM156.809 146.023l-13.305 16.606-6.574-16.711ZM265.043 134.129l-11.367-9.758 16.18-5.945ZM252.883 162.172l7.125-14.637 11.719 12.516Zm0 0"/><path fill="#202215" d="m269.855 118.426 10.946 14.199-15.758 1.504ZM272.598 144.453l-12.59 3.082 5.035-13.406Zm0 0"/><path fill="#202215" d="m280.8 132.625-8.202 11.828-7.555-10.324ZM55.016 77.79l26.863 12.94-24.844 17.723Zm0 0"/><path fill="#202215" d="M28.27 94.023 55.016 77.79l2.02 30.664ZM55.016 77.79 28.27 94.022l-.18-30.933Zm0 0"/><path fill="#202215" d="M55.016 77.79 28.09 63.09l24.629-11.367Zm0 0"/><path fill="#202215" d="M82.672 58.105 55.016 77.79l-2.297-26.066ZM81.879 90.73 55.016 77.79l27.656-19.685ZM147.809 180.926l-14.786 12.12-.953-17.429ZM96.695 258.496l-9.554-19.266 22.527 3.645ZM117.473 263.805l-7.805-20.93 21.117 3.258ZM143.34 126.316l-26.125 7.528 8.972-24.324Zm0 0"/><path fill="#202215" d="m117.215 133.844-7.016-18.727 15.989-5.597ZM117.215 133.844l26.125-7.528-6.41 19.602ZM122.43 159.29l-5.215-25.446 19.715 12.074Zm0 0"/><path fill="#202215" d="m92.125 155.574 25.09-21.73 5.215 25.445ZM110.2 115.117l7.015 18.727-29.477-12.7Zm0 0"/><path fill="#202215" d="m117.215 133.844-25.09 21.73-4.387-34.43ZM360.75 111.613l-15.488-20.386L384 85.657ZM338.035 117.402l22.715-5.789-3.883 24.352Zm0 0"/><path fill="#202215" d="m360.75 111.613-22.715 5.79 7.227-26.176ZM384 124.2l-23.25-12.587L384 85.656Zm0 0"/><path fill="#202215" d="M360.75 111.613 384 124.2l-27.133 11.766ZM384 45.203v40.453l-31.812-24.812Zm0 0"/><path fill="#202215" d="m384 85.656-38.738 5.57 6.926-30.382ZM318.105 100.648l3.407-28.632 23.75 19.21ZM295.098 85.52l23.007 15.128-24.968 12.512Zm0 0"/><path fill="#202215" d="m321.512 72.016-3.407 28.632-23.007-15.128ZM354.777 30.426 384 45.203l-31.812 15.64ZM354.777 30.426l-2.59 30.418-26.765-20.074ZM330.371 0H384l-29.223 30.426ZM330.371 0l-28.996 24.414L289.184 0Zm0 0"/><path fill="#202215" d="m330.371 0 24.406 30.426-29.355 10.344ZM301.375 24.414 330.371 0l-4.95 40.77ZM253.676 124.371l1.758-15.797 14.421 9.852Zm0 0"/><path fill="#202215" d="m245.121 84.242 10.313 24.332-22.704 5.88Zm0 0"/><path fill="#202215" d="m255.434 108.574-1.758 15.797-20.946-9.918ZM280.8 132.625l-10.945-14.2 23.282-5.265ZM272.695 75.164l-.504 22.297-27.07-13.219Zm0 0"/><path fill="#202215" d="m272.191 97.46-16.757 11.114-10.313-24.332ZM255.434 108.574l16.757-11.113-2.336 20.965ZM356.73 219.098 384 235.625l-29.71 13.336ZM356.73 219.098l-2.761-30.082L384 202.633Zm0 0"/><path fill="#202215" d="m353.969 189.016 2.761 30.082-28.117-11.75ZM354.95 305.656l-12.821-28.383 41.871-.527Zm0 0"/><path fill="#202215" d="m356.73 219.098-21.636 12.87-6.48-24.62Zm0 0"/><path fill="#202215" d="m335.094 231.969 21.636-12.871-2.44 29.863ZM314.871 274.703l27.258 2.57-22.188 26.559ZM384 315.824l-29.05-10.168 29.05-28.91ZM354.95 305.656 384 315.824l-20.566 14.547ZM355.355 354.887l-16.562-24.324 24.64-.192Zm0 0"/><path fill="#202215" d="m338.793 330.563 16.156-24.907 8.485 24.715Zm0 0"/><path fill="#202215" d="m354.95 305.656-16.157 24.906-18.852-26.73ZM355.355 354.887 384 344.789V384ZM171.313 351.809l-2.098-17.664 15.61 2.27ZM204.453 304.883l-19.422.21 8.625-17.195ZM78.21 320.586l-25.757 4.605 2.41-30.691Zm0 0"/><path fill="#202215" d="m52.453 325.191-24.918-8.308L54.863 294.5ZM52.453 325.191l25.758-4.605-12.7 25.797Zm0 0"/><path fill="#202215" d="m36.164 345.066 16.29-19.875 13.058 21.192ZM27.535 316.883l24.918 8.308-16.289 19.875ZM49.863 384l28.535-20.953L99.18 384ZM49.863 384H0l21.547-22.086Zm0 0"/><path fill="#202215" d="M78.398 363.047 49.863 384l15.649-37.617Zm0 0"/><path fill="#202215" d="m49.863 384-13.699-38.934 29.348 1.317Zm0 0"/><path fill="#202215" d="m49.863 384-28.316-22.086 14.617-16.848ZM229.16 211.203l-10.754 17.711-8.824-18.828ZM169.313 256.02l-11.254 11.632-5.543-19.48ZM263.297 176.488l8.43-16.437 6.453 14.765ZM291.168 182.348l-1.227 18.082-14.918-10.817Zm0 0"/><path fill="#202215" d="m291.168 182.348-16.145 7.265 3.157-14.797Zm0 0"/><path fill="#202215" d="m289.941 200.43 1.227-18.082 16.594 9.449ZM229.96 181.914l15.669-3.2-7.149 16.45ZM207.582 154.512l23.8 8.23-17.882 13.903ZM231.383 162.742l-23.801-8.23 19.14-14.64Zm0 0"/><path fill="#202215" d="m231.383 162.742-1.422 19.172-16.461-5.27ZM207.582 154.512l5.918 22.133-23.36-3.11ZM248.688 210.762l-10.208-15.598 18.422-1.726Zm0 0"/><path fill="#202215" d="m248.688 210.762-19.528.441 9.32-16.039Zm0 0"/><path fill="#202215" d="m245.629 178.715 11.273 14.722-18.422 1.727ZM218.547 264.172l-18.32 4.238 7.777-20.12ZM197.234 357.328l12.5 26.672H173.07ZM197.234 357.328l4.075-22.058 16.699 6.84ZM216.945 285.305l-16.718-16.895 18.32-4.238ZM216.945 285.305l-12.492 19.578-10.797-16.985ZM204.453 304.883l12.492-19.578 7.871 21.918ZM261.75 302.586l-3.414-24.246 29.336 7.539Zm0 0"/><path fill="#202215" d="m258.336 278.34 3.414 24.246-21.61-10.09ZM286.918 321.3l-25.168-18.714 25.922-16.707Zm0 0"/><path fill="#202215" d="m224.816 307.223 15.325-14.727 2.539 18.676Zm0 0"/><path fill="#202215" d="m240.14 292.496 21.61 10.09-19.07 8.586ZM248.688 210.762l-9.434 16.867-10.094-16.426ZM192.406 227.852l-22.754-5.383 9.254-13.309ZM143.34 126.316l-17.153-16.796 26.86-11.184ZM143.504 162.629l-11.434 12.988-9.64-16.328ZM132.07 175.617l11.434-12.988 4.305 18.297Zm0 0"/><path fill="#202215" d="m143.504 162.629-21.074-3.34 14.5-13.371ZM143.504 162.629l21.586 5.523-17.281 12.774Zm0 0"/><path fill="#202215" d="m143.504 162.629 13.305-16.606 8.28 22.13Zm0 0"/><path fill="#202215" d="m181.758 148.652-24.95-2.629 13.047-21.578Zm0 0"/><path fill="#202215" d="m156.809 146.023 24.949 2.63-16.668 19.5ZM165.086 209.258l-10.973 8.379-1.851-18.086Zm0 0"/><path fill="#202215" d="m154.113 217.637-17.097-5.282 15.246-12.804ZM253.27 137.27l11.773-3.141-5.035 13.406ZM265.043 134.129l-11.773 3.14.406-12.898ZM231.383 162.742l-4.66-22.87 17.972 7.343Zm0 0"/><path fill="#202215" d="m260.008 147.535 12.59-3.082-.871 15.598ZM190.14 173.535l23.36 3.11-11.45 15.906ZM87.14 239.23l15.477-16.386 7.051 20.031Zm0 0"/><path fill="#202215" d="m83.313 218.848 3.828 20.382-30.055-9.078ZM83.313 218.848l-26.227 11.304 13.11-29.593ZM129.293 283.504l-11.82-19.7 21.754.813ZM109.668 242.875l13.594-15.984 7.523 19.242ZM137.016 212.355l-3.993-19.308 19.239 6.504ZM338.035 117.402l-19.93-16.754 27.157-9.421ZM272.191 97.46l.504-22.296 22.403 10.356Zm0 0"/><path fill="#202215" d="m272.191 97.46 22.907-11.94-1.961 27.64ZM269.855 118.426l2.336-20.965 20.946 15.7ZM313.727 142.777l18.128-2.785-10.793 18.36Zm0 0"/><path fill="#202215" d="m302.504 153.906 11.223-11.129 7.336 15.575ZM291.168 182.348l15.285-10.426 1.309 19.875ZM327.125 179.883l-20.672-7.961 14.61-13.57Zm0 0"/><path fill="#202215" d="m307.762 191.797-1.309-19.875 20.672 7.96ZM384 235.625l-27.27-16.527L384 202.633ZM384 235.625v41.121l-29.71-27.785ZM384 276.746l-41.871.527 12.16-28.312Zm0 0"/><path fill="#202215" d="m342.129 277.273-16.34-24.05 28.5-4.262Zm0 0"/><path fill="#202215" d="m325.79 253.223 9.304-21.254 19.195 16.992ZM314.871 274.703l10.918-21.48 16.34 24.05Zm0 0"/><path fill="#202215" d="m325.79 253.223-10.919 21.48-16.71-18.973ZM314.871 274.703l-27.2 11.176 10.49-30.149ZM289.941 200.43l-19.34 9.62 4.422-20.437ZM310.797 230.648l14.992 22.575-27.629 2.507Zm0 0"/><path fill="#202215" d="m325.79 253.223-14.993-22.575 24.297 1.32Zm0 0"/><path fill="#202215" d="m335.094 231.969-24.297-1.32 17.816-23.301ZM340.094 384l15.261-29.113L384 384ZM324.594 355.598l14.199-25.036 16.562 24.325Zm0 0"/><path fill="#202215" d="m340.094 384-15.5-28.402 30.761-.711ZM141.77 327.117l13.07 12.836-16.203 3.785ZM159.152 323.125l10.063 11.02-14.375 5.808Zm0 0"/><path fill="#202215" d="m141.77 327.117 17.382-3.992-4.312 16.828ZM148.23 312l-6.46 15.117-15.204-18.344ZM184.824 336.414l16.485-1.144-4.075 22.058ZM171.313 351.809l13.511-15.395 12.41 20.914ZM201.309 335.27l-16.485 1.144 9.219-15.605ZM185.031 305.094l-8.277-13.903 16.902-3.293ZM204.453 304.883l-10.41 15.926-9.012-15.715ZM202.05 192.55l7.532 17.536-16.219-3.992ZM229.16 211.203l10.094 16.426-20.848 1.285ZM161.902 285.172l-14.632-5.895 10.789-11.625Zm0 0"/><path fill="#202215" d="m147.27 279.277 14.632 5.895-15.312 10.371Zm0 0"/><path fill="#202215" d="m178.254 272.594-16.352 12.578-3.843-17.52Zm0 0"/><path fill="#202215" d="m169.313 256.02 8.94 16.574-20.194-4.942ZM272.598 144.453l13.46 4.32-14.331 11.278Zm0 0"/><path fill="#202215" d="m271.727 160.05 14.332-11.277 3.343 16.47ZM252.883 162.172l18.844-2.121-8.43 16.437Zm0 0"/><path fill="#202215" d="m278.18 174.816-6.453-14.765 17.675 5.191ZM220.445 194.668l-18.394-2.117 11.449-15.906Zm0 0"/><path fill="#202215" d="m202.05 192.55 18.395 2.118-10.863 15.418ZM229.96 181.914l-9.515 12.754-6.945-18.023Zm0 0"/><path fill="#202215" d="m229.16 211.203-8.715-16.535 18.035.496ZM220.445 194.668l9.516-12.754 8.52 13.25ZM263.297 176.488l-6.395 16.95-11.273-14.723ZM275.023 189.613l-11.726-13.125 14.883-1.672Zm0 0"/><path fill="#202215" d="m263.297 176.488 11.726 13.125-18.12 3.825ZM236.441 271.035l3.7 21.461-23.196-7.191ZM186.664 252.254l13.563 16.156-21.973 4.184Zm0 0"/><path fill="#202215" d="m200.227 268.41-13.563-16.156 21.34-3.965ZM169.313 256.02l17.351-3.766-8.41 20.34Zm0 0"/><path fill="#202215" d="m208.004 248.29-21.34 3.964 5.742-24.402ZM218.547 264.172l13.012-15.887 4.882 22.75ZM231.559 248.285l-13.012 15.887-10.543-15.883ZM197.234 357.328l24.899 5.067L209.734 384ZM232.395 326.531l-7.579-19.308 17.864 3.949Zm0 0"/><path fill="#202215" d="m232.395 326.531-19.88-3.797 12.301-15.511Zm0 0"/><path fill="#202215" d="m212.516 322.734 19.879 3.797-14.387 15.578ZM286.918 321.3l-15.828 30.747-15.246-24.824ZM193.656 287.898l6.57-19.488 16.72 16.895Zm0 0"/><path fill="#202215" d="m200.227 268.41-6.57 19.488-15.403-15.304ZM216.945 285.305l23.196 7.191-15.325 14.727ZM319.941 303.832l-33.023 17.469.754-35.422Zm0 0"/><path fill="#202215" d="m314.871 274.703 5.07 29.129-32.27-17.953ZM255.844 327.223l-23.45-.692 10.286-15.36Zm0 0"/><path fill="#202215" d="m261.75 302.586-5.906 24.637-13.164-16.051ZM286.918 321.3l-31.074 5.923 5.906-24.637ZM169.57 197.188l-4.484 12.07-12.824-9.707ZM192.406 227.852l.957-21.758 16.219 3.992Zm0 0"/><path fill="#202215" d="m193.363 206.094-.957 21.758-13.5-18.692ZM169.652 222.469l-4.566-13.211 13.82-.098Zm0 0"/><path fill="#202215" d="m165.086 209.258 4.566 13.21-15.539-4.831ZM156.809 146.023l-13.47-19.707 26.516-1.87Zm0 0"/><path fill="#202215" d="m143.34 126.316 9.707-27.98 16.808 26.11ZM165.09 168.152l-3.13 18.305-14.151-5.531Zm0 0"/><path fill="#202215" d="m147.809 180.926 14.152 5.531-9.7 13.094Zm0 0"/><path fill="#202215" d="m161.96 186.457 3.13-18.305 8.844 16.489ZM244.695 147.215l8.575-9.945 6.738 10.265Zm0 0"/><path fill="#202215" d="m252.883 162.172-8.188-14.957 15.313.32Zm0 0"/><path fill="#202215" d="m252.883 162.172-21.5.57 13.312-15.527Zm0 0"/><path fill="#202215" d="m245.629 178.715-14.246-15.973 21.5-.57Zm0 0"/><path fill="#202215" d="m231.383 162.742 14.246 15.973-15.668 3.2ZM263.297 176.488l-17.668 2.227 7.254-16.543ZM181.758 148.652l8.383 24.883-25.051-5.383ZM190.14 173.535l-16.206 11.106-8.844-16.489ZM184.574 194.125l5.567-20.59 11.91 19.016Zm0 0"/><path fill="#202215" d="m190.14 173.535-5.566 20.59-10.64-9.484ZM86.176 183.277l8.836 19.157-24.817-1.875Zm0 0"/><path fill="#202215" d="m95.012 202.434-11.7 16.414-13.117-18.29ZM83.313 218.848l19.304 3.996-15.476 16.386Zm0 0"/><path fill="#202215" d="m102.617 222.844-19.305-3.996 11.7-16.414Zm0 0"/><path fill="#202215" d="m102.617 222.844-7.605-20.41 21.976 4.296ZM102.617 222.844l20.645 4.047-13.594 15.984ZM315.664 124.883l22.371-7.48-6.18 22.59Zm0 0"/><path fill="#202215" d="m313.727 142.777 1.937-17.894 16.191 15.11ZM291.168 182.348l-1.766-17.106 17.051 6.68ZM287.672 285.879l-14.524-25.027 25.012-5.122ZM273.148 260.852l6.778-16.266 18.234 11.144ZM290.11 235.715l20.687-5.067-12.637 25.082ZM310.797 230.648l-20.688 5.067.036-16.399Zm0 0"/><path fill="#202215" d="m279.926 244.586 10.183-8.871 8.051 20.015ZM304.75 209.652l6.047 20.996-20.652-11.332Zm0 0"/><path fill="#202215" d="m289.941 200.43 14.809 9.222-14.605 9.664ZM307.762 191.797l-3.012 17.855-14.809-9.222ZM304.75 209.652l3.012-17.855 20.851 15.55ZM310.797 230.648l-6.047-20.996 23.863-2.304ZM338.793 330.563l-24.75 1.898 5.898-28.629Zm0 0"/><path fill="#202215" d="m324.594 355.598-10.551-23.137 24.75-1.899ZM314.043 332.46l-27.125-11.16 33.023-17.468ZM169.215 334.145l7.031-13.473 8.578 15.742Zm0 0"/><path fill="#202215" d="m159.152 323.125 17.094-2.453-7.031 13.473ZM159.152 323.125 148.23 312l16.641-7.305Zm0 0"/><path fill="#202215" d="m148.23 312 10.922 11.125-17.382 3.992ZM129.293 283.504l17.297 12.039-20.024 13.23ZM148.23 312l-1.64-16.457 18.281 9.152ZM164.871 304.695l11.883-13.504 8.277 13.903ZM209.582 210.086l10.863-15.418 8.715 16.535ZM171.316 239.797l-2.004 16.223-16.796-7.848Zm0 0"/><path fill="#202215" d="m169.313 256.02 2.003-16.223 15.348 12.457ZM147.27 279.277l-17.977 4.227 9.934-18.887Zm0 0"/><path fill="#202215" d="m147.27 279.277-.68 16.266-17.297-12.04ZM280.8 132.625l5.259 16.148-13.461-4.32ZM278.18 174.816l11.222-9.574 1.766 17.106ZM178.906 209.16l5.668-15.035 8.79 11.969Zm0 0"/><path fill="#202215" d="m165.086 209.258 4.484-12.07 9.336 11.972Zm0 0"/><path fill="#202215" d="m169.57 197.188 15.004-3.063-5.668 15.035ZM216.945 285.305l1.602-21.133 17.894 6.863ZM287.672 285.879l-29.336-7.54 14.812-17.487ZM231.559 248.285l-13.153-19.37 20.848-1.286Zm0 0"/><path fill="#202215" d="m218.406 228.914 13.153 19.371-23.555.004Zm0 0"/><path fill="#202215" d="m218.406 228.914-10.402 19.375-15.598-20.437ZM271.09 352.047l-29.965-3.5 14.719-21.324Zm0 0"/><path fill="#202215" d="m241.125 348.547-8.73-22.016 23.449.692ZM158.059 267.652l-18.832-3.035 13.289-16.445Zm0 0"/><path fill="#202215" d="m152.516 248.172 5.601-16.777 13.2 8.402ZM258.035 227.047l-18.781.582 9.434-16.867Zm0 0"/><path fill="#202215" d="m258.035 227.047-9.348-16.285 21.915-.711ZM169.57 197.188l-7.61-10.731 11.974-1.816Zm0 0"/><path fill="#202215" d="m161.96 186.457 7.61 10.73-17.308 2.364ZM171.316 239.797l-1.664-17.328 22.754 5.383Zm0 0"/><path fill="#202215" d="m186.664 252.254-15.348-12.457 21.09-11.945ZM130.785 246.133l8.442 18.484-21.754-.812ZM253.27 137.27l-10.286-4.028 10.692-8.87Zm0 0"/><path fill="#202215" d="m244.695 147.215-1.71-13.973 10.285 4.028ZM232.73 114.453l10.254 18.79-16.261 6.628ZM253.676 124.371l-10.692 8.871-10.254-18.789Zm0 0"/><path fill="#202215" d="m242.984 133.242 1.711 13.973-17.972-7.344ZM116.988 206.73l20.028 5.625-13.754 14.536Zm0 0"/><path fill="#202215" d="m102.617 222.844 14.371-16.114 6.274 20.16ZM318.105 100.648l-2.44 24.235-22.528-11.723Zm0 0"/><path fill="#202215" d="m338.035 117.402-22.37 7.48 2.44-24.234ZM289.402 165.242l13.102-11.336 3.95 18.016Zm0 0"/><path fill="#202215" d="m306.453 171.922-3.95-18.016 18.56 4.446Zm0 0"/><path fill="#202215" d="m302.504 153.906-13.102 11.336-3.343-16.469ZM340.094 384h-43.207l27.707-28.402ZM299.207 348.266l14.836-15.805 10.55 23.137Zm0 0"/><path fill="#202215" d="m296.887 384 2.32-35.734 25.387 7.332ZM314.043 332.46l-14.836 15.806-12.289-26.965ZM299.207 348.266l-28.117 3.78 15.828-30.745ZM164.871 304.695l11.375 15.977-17.094 2.453ZM147.27 279.277l-8.043-14.66 18.832 3.035ZM258.336 278.34l-18.195 14.156-3.7-21.46ZM252.36 257.191l5.976 21.149-21.895-7.305ZM231.559 248.285l20.8 8.906-15.918 13.844ZM248.316 384h-38.582l12.399-21.605Zm0 0"/><path fill="#202215" d="M241.125 348.547 248.316 384l-26.183-21.605ZM241.125 348.547l-23.117-6.438 14.387-15.578Zm0 0"/><path fill="#202215" d="m218.008 342.11 23.117 6.437-18.992 13.848Zm0 0"/><path fill="#202215" d="m218.008 342.11 4.125 20.285-24.899-5.067ZM139.227 264.617l-8.442-18.484 21.73 2.039ZM171.316 239.797l-13.199-8.402 11.535-8.926ZM169.652 222.469l-11.535 8.926-4.004-13.758ZM273.148 260.852l-8.406-17.543 15.184 1.277ZM249.531 240.54l15.211 2.769-12.383 13.882Zm0 0"/><path fill="#202215" d="m249.531 240.54 8.504-13.493 6.707 16.262ZM258.035 227.047l-8.504 13.492-10.277-12.91ZM137.016 212.355l5.504 18.024-19.258-3.488Zm0 0"/><path fill="#202215" d="m142.52 230.379-11.735 15.754-7.523-19.242ZM184.574 194.125l-15.004 3.063 4.364-12.547ZM133.023 193.047l3.993 19.308-20.028-5.625Zm0 0"/><path fill="#202215" d="m158.117 231.395-15.597-1.016 11.593-12.742Zm0 0"/><path fill="#202215" d="m154.113 217.637-11.593 12.742-5.504-18.024ZM271.09 352.047l28.117-3.781-2.32 35.734Zm0 0"/><path fill="#202215" d="m248.316 384 22.774-31.953L296.887 384ZM271.09 352.047 248.316 384l-7.191-35.453ZM176.246 320.672l17.797.137-9.219 15.605Zm0 0"/><path fill="#202215" d="m194.043 320.809-17.797-.137 8.785-15.578ZM146.59 295.543 148.23 312l-21.664-3.227ZM161.902 285.172l14.852 6.02-11.883 13.503Zm0 0"/><path fill="#202215" d="m146.59 295.543 15.312-10.371 2.97 19.523ZM178.254 272.594l-1.5 18.597-14.852-6.02ZM176.754 291.191l1.5-18.597 15.402 15.304ZM264.742 243.309l8.406 17.543-20.789-3.66Zm0 0"/><path fill="#202215" d="m273.148 260.852-14.812 17.488-5.977-21.149ZM231.559 248.285l17.972-7.746 2.828 16.652ZM264.742 243.309l10.84-13.266 4.344 14.543Zm0 0"/><path fill="#202215" d="m258.035 227.047 17.547 2.996-10.84 13.266Zm0 0"/><path fill="#202215" d="m275.582 230.043 14.527 5.672-10.183 8.87ZM290.11 235.715l-14.528-5.672 14.563-10.727ZM142.52 230.379l9.996 17.793-21.73-2.04Zm0 0"/><path fill="#202215" d="m152.516 248.172-9.996-17.793 15.597 1.016ZM315.664 124.883l-17.047 11.3-5.48-23.023Zm0 0"/><path fill="#202215" d="m298.617 136.184-17.816-3.559 12.336-19.465ZM298.617 136.184l17.047-11.301-1.937 17.894ZM176.246 320.672l-11.375-15.977 20.16.399ZM249.531 240.54l-17.972 7.745 7.695-20.656ZM270.602 210.05l4.98 19.993-17.547-2.996ZM270.602 210.05l19.34-9.62.203 18.886Zm0 0"/><path fill="#202215" d="m275.582 230.043-4.98-19.992 19.543 9.265ZM280.8 132.625l17.817 3.559-12.558 12.59Zm0 0"/><path fill="#202215" d="m298.617 136.184 3.887 17.722-16.445-5.133Zm0 0"/><path fill="#202215" d="m298.617 136.184 15.11 6.593-11.223 11.13Zm0 0"/></svg>