<svg xmlns="http://www.w3.org/2000/svg" width="512" height="512" viewBox="0 0 384 384"><path fill="#45293f" d="m194.621 65.438 36.145-3.204-15.907 33.625Zm0 0"/><path fill="#45293f" d="m183.066 103.262 11.555-37.824 20.238 30.421ZM63.46 297.762l-26.476-25.418 25.32-24.34ZM33.96 120.016l-3.917 40.207L0 140.352ZM354.46 134.563 384 163.359l-41.48-4.28ZM212.383 384h-59.625l28.894-27.766ZM191.855 0l-19.699 33.125L148.906 0ZM148.906 0l-21.379 30.262L105.98 0ZM212.547 32.262l18.219 29.972-36.145 3.203ZM155.121 67.063l17.035-33.938 22.465 32.313Zm0 0"/><path fill="#45293f" d="m172.156 33.125 40.39-.863-17.925 33.176ZM157.137 111.77l19.289 30.171-27.324-3.039Zm0 0"/><path fill="#45293f" d="m176.426 141.941-19.29-30.171 25.93-8.508Zm0 0"/><path fill="#665964" d="m262.469 137.504-11.145-.988 2.848-12.133Zm0 0"/><path fill="#45293f" d="M63.09 0 44.18 38.852 0 0ZM44.18 38.852l-7.36 41.187L0 56.492ZM44.18 38.852l28.836 28.734L36.82 80.039ZM53.695 177.578l-25.312 20.934 1.66-38.29ZM36.984 272.344l-6.601-36.676 31.922 12.336Zm0 0"/><path fill="#45293f" d="m92.316 275.828-28.855 21.934-1.156-49.758Zm0 0"/><path fill="#45293f" d="m90.883 241.348 1.433 34.48-30.011-27.824Zm0 0"/><path fill="#45293f" d="m92.316 275.828 5.446 36.309-34.301-14.375ZM28.383 198.512 0 219.71v-39.84ZM0 219.71l28.383-21.198 2 37.156ZM73.016 67.586l-2.934 31.047L36.82 80.039ZM99.16 146.262l9.008 19.125-22.711 1.629ZM108.168 165.387l-1.39 17.254-21.321-15.625Zm0 0"/><path fill="#45293f" d="m106.777 182.64 1.391-17.253 13.957 6.23ZM70.082 98.633l-36.121 21.383 2.86-39.977ZM233.016 0h42.52l-22.704 32.34ZM230.766 62.234l11.957 21.157-27.864 12.468Zm0 0"/><path fill="#45293f" d="m233.016 0 19.816 32.34-40.285-.078ZM252.832 32.34l-22.066 29.894-18.22-29.972ZM230.766 62.234l22.066-29.894 16.738 32.898ZM275.535 0l20.957 34.59-43.66-2.25Zm0 0"/><path fill="#45293f" d="M296.492 34.59 269.57 65.238 252.832 32.34ZM354.336 191.027l-18.316 35.43-6.567-38.242Zm0 0"/><path fill="#45293f" d="m384 163.36-29.664 27.667-11.816-31.949ZM128.586 351.938l23.77-.563.402 32.625Zm0 0"/><path fill="#45293f" d="m152.758 384-.403-32.625 29.297 4.86ZM100.68 384l27.906-32.062L152.758 384ZM214.02 353.422 212.383 384l-30.73-27.766ZM172.156 33.125l-44.629-2.863L148.907 0ZM212.547 32.262 191.855 0h41.16Zm0 0"/><path fill="#45293f" d="m191.855 0 20.692 32.262-40.39.863ZM141.313 79.617l-32.055-15.695 45.863 3.14Zm0 0"/><path fill="#5e4d5b" d="m73.016 67.586 29.265-9.445-6.797 14.07Zm0 0"/><path fill="#665964" d="m102.281 58.14 6.977 5.782-13.774 8.289ZM115.64 121.23l6.794 6.743-6.266 3.02ZM251.324 136.516l-5.797-12.149 8.645.016Zm0 0"/><path fill="#45293f" d="m245.527 124.367 9.243-15.097-.598 15.113Zm0 0"/><path fill="#45293f" d="m254.77 109.27-9.243 15.097-5.117-20.168ZM203.543 136.27l-20.477-33.008 31.793-7.403Zm0 0"/><path fill="#45293f" d="m203.543 136.27-27.117 5.671 6.64-38.68Zm0 0"/><path fill="#45293f" d="m176.426 141.941 27.117-5.671-.742 34.171ZM44.18 38.852 0 56.492V0ZM127.527 30.262l-41.062-2.66L105.98 0Zm0 0"/><path fill="#45293f" d="M86.465 27.602 63.09 0h42.89Zm0 0"/><path fill="#45293f" d="m63.09 0 23.375 27.602-42.285 11.25Zm0 0"/><path fill="#45293f" d="m44.18 38.852 42.285-11.25-13.45 39.984Zm0 0"/><path fill="#45293f" d="M86.465 27.602 102.28 58.14l-29.265 9.445Zm0 0"/><path fill="#45293f" d="M102.281 58.14 86.465 27.603l41.062 2.66ZM0 99.492v-43L36.82 80.04ZM0 99.492 36.82 80.04l-2.86 39.977ZM106.777 182.64l-16.324 13.485-4.996-29.11ZM90.453 196.125l-29.836-14.508 24.84-14.601ZM60.617 181.617l-6.922-4.039 31.762-10.562ZM101.89 245.016l-11.007-3.668 6.383-6.38Zm0 0"/><path fill="#45293f" d="m101.89 245.016-9.574 30.812-1.433-34.48ZM0 274.254V219.71l30.383 15.957ZM36.984 272.344 0 274.254l30.383-38.586ZM0 179.871v-39.52l30.043 19.872Zm0 0"/><path fill="#45293f" d="M28.383 198.512 0 179.872l30.043-19.65ZM95.484 72.21 70.082 98.634l2.934-31.047Zm0 0"/><path fill="#665964" d="m95.484 72.21 13.774-8.288 3.558 18.39Zm0 0"/><path fill="#45293f" d="m93.926 95.426 1.558-23.215 17.332 10.102ZM95.484 72.21l-1.558 23.216-23.844 3.207ZM0 99.492l33.96 20.524L0 140.352ZM66.055 140.691 33.96 120.016l36.121-21.383ZM66.055 140.691l33.105 5.57-13.703 20.755Zm0 0"/><path fill="#45293f" d="m53.695 177.578 12.36-36.887 19.402 26.325Zm0 0"/><path fill="#45293f" d="m66.055 140.691-12.36 36.887-23.652-17.355Zm0 0"/><path fill="#45293f" d="m33.96 120.016 32.095 20.675-36.012 19.532ZM343.012 40.363 318.18 72.418 296.492 34.59ZM318.18 72.418l24.832-32.055 11.996 36.825Zm0 0"/><path fill="#45293f" d="m318.18 72.418-48.61-7.18 26.922-30.648Zm0 0"/><path fill="#45293e" d="M384 0v57.79l-40.988-17.427Zm0 0"/><path fill="#45293f" d="m261.742 93.285-6.972 15.985-14.36-5.07ZM230.766 62.234l38.804 3.004-26.847 18.153Zm0 0"/><path fill="#45293e" d="m384 228.04-29.664-37.013L384 163.36Zm0 0"/><path fill="#45293f" d="m342.52 159.078-18.606 7.043-5.672-12.637Zm0 0"/><path fill="#45293f" d="m323.914 166.121 18.606-7.043-13.067 29.137ZM342.52 159.078l11.816 31.95-24.883-2.813ZM326.234 133.078l16.286 26-24.278-5.594Zm0 0"/><path fill="#45293f" d="m342.52 159.078-16.286-26 28.227 1.484Zm0 0"/><path fill="#45293f" d="m326.234 133.078 17.387-22.773 10.84 24.257Zm0 0"/><path fill="#45293e" d="M354.46 134.563 384 107.965v55.394Zm0 0"/><path fill="#45293f" d="m336.02 226.457-23.11-15.855 16.543-22.387Zm0 0"/><path fill="#45293f" d="m312.91 210.602-13.723-6.137 7.391-16.742ZM384 331.527l-32.988 16.942-2.313-36.531ZM126.117 323.227l-28.355-11.09 24.773-18.184Zm0 0"/><path fill="#45293f" d="m92.316 275.828 30.22 18.125-24.774 18.184ZM29.29 302.11 0 274.253l36.984-1.91Zm0 0"/><path fill="#45293f" d="m63.46 297.762-34.17 4.347 7.694-29.765ZM0 274.254l29.29 27.855L0 329.613ZM29.29 302.11l13.312 32.984L0 329.614Zm0 0"/><path fill="#45293f" d="m0 329.613 23.828 27.055L0 384Zm0 0"/><path fill="#45293f" d="m42.602 335.094-18.774 21.574L0 329.613ZM105.977 340.832 100.68 384l-24.582-43.324Zm0 0"/><path fill="#45293f" d="m128.586 351.938-22.61-11.106 20.141-17.605Zm0 0"/><path fill="#45293f" d="m100.68 384 5.297-43.168 22.609 11.106ZM97.762 312.137l8.215 28.695-29.88-.156Zm0 0"/><path fill="#45293f" d="m105.977 340.832-8.215-28.695 28.355 11.09ZM201.309 184.309l6.507 8.914-14.332 5.789ZM203.543 136.27l11.52 31.464-12.262 2.707Zm0 0"/><path fill="#45293f" d="m224.844 155.8-9.781 11.934-11.52-31.464Zm0 0"/><path fill="#665964" d="m270.887 215.238-4.778-28.949 18.09 15.395Zm0 0"/><path fill="#665964" d="m266.11 186.29 4.777 28.948-28.762-14.613Zm0 0"/><path fill="#45293f" d="m228.496 329.14.52 13.286-10.543-5.258Zm0 0"/><path fill="#665964" d="m228.496 329.14-21.281-3.968 19.965-3.914Zm0 0"/><path fill="#655863" d="m207.215 325.172 21.281 3.969-10.023 8.027Zm0 0"/><path fill="#655963" d="m227.18 321.258 5.402-22.45 10.41 20.997Zm0 0"/><path fill="#45293f" d="m109.469 94.86-15.543.566 18.89-13.114Zm0 0"/><path fill="#45293f" d="m93.926 95.426 15.543-.567 1.894 12.73ZM141.313 79.617l-28.497 2.695-3.558-18.39ZM183.066 103.262l-27.945-36.2 39.5-1.624Zm0 0"/><path fill="#45293f" d="m157.137 111.77-2.016-44.707 27.945 36.199Zm0 0"/><path fill="#45293f" d="m141.313 79.617 13.808-12.555 2.016 44.708ZM102.281 58.14l25.246-27.878-18.27 33.66ZM109.258 63.922l18.27-33.66 27.593 36.8Zm0 0"/><path fill="#45293f" d="m127.527 30.262 44.63 2.863-17.036 33.938ZM134.867 107.266l6.446-27.649 15.824 32.153Zm0 0"/><path fill="#665964" d="m122.434 127.973 16.746 20.957-23.012-17.938Zm0 0"/><path fill="#45293f" d="m127.89 171.7 1.72 17.835-7.485-17.918Zm0 0"/><path fill="#45293f" d="m127.89 171.7 15.626 29.421-13.907-11.586ZM245.527 124.367 226.07 129.7l14.34-25.5Zm0 0"/><path fill="#665964" d="m260.031 159.656 2.438-22.152 9.96 11.137Zm0 0"/><path fill="#45293f" d="m254.77 109.27 10.03 9.96-10.628 5.153Zm0 0"/><path fill="#665964" d="m264.8 119.23-2.331 18.274-8.297-13.121Zm0 0"/><path fill="#45293f" d="m106.777 182.64 15.348-11.023 7.484 17.918Zm0 0"/><path fill="#655863" d="m90.883 241.348-1.707-21.22 8.09 14.84Zm0 0"/><path fill="#45293f" d="m62.305 248.004 26.87-27.875 1.708 21.219ZM101.89 245.016l20.126 23.808-29.7 7.004ZM122.016 268.824l-20.125-23.808 30.425 8.32ZM115.64 121.23l-21.206.485 16.93-14.125ZM94.434 121.715l-.508-26.29 17.437 12.165ZM94.434 121.715l21.207-.485.527 9.762Zm0 0"/><path fill="#45293f" d="m99.16 146.262-4.726-24.547 21.734 9.277Zm0 0"/><path fill="#45293f" d="m66.055 140.691 28.379-18.976 4.726 24.547ZM93.926 95.426l.508 26.289-24.352-23.082Zm0 0"/><path fill="#45293f" d="m94.434 121.715-28.38 18.976 4.028-42.058Zm0 0"/><path fill="#45293e" d="m343.621 110.305 11.387-33.118L384 107.965ZM343.621 110.305l40.379-2.34-29.54 26.597Zm0 0"/><path fill="#45293e" d="M355.008 77.188 384 57.789v50.176Zm0 0"/><path fill="#45293f" d="m384 57.79-28.992 19.398-11.996-36.825ZM269.57 65.238l48.61 7.18-15.25 24.863ZM322.418 0H384l-40.988 40.363ZM322.418 0l-25.926 34.59L275.535 0Zm0 0"/><path fill="#45293f" d="m322.418 0 20.594 40.363-46.52-5.773ZM242.723 83.39l-2.313 20.81-25.55-8.34ZM240.41 104.2l-14.34 25.5-11.21-33.84ZM261.742 93.285l11.477 18.047-18.45-2.062Zm0 0"/><path fill="#45293f" d="m273.219 111.332-8.418 7.898-10.031-9.96ZM269.57 65.238l-7.828 28.047-19.02-9.894ZM261.742 93.285 240.41 104.2l2.313-20.808ZM336.02 226.457l18.316-35.43L384 228.04ZM384 287.664v43.863l-35.3-19.59Zm0 0"/><path fill="#45293f" d="M345.723 269.395 384 287.665l-35.3 24.272ZM351.012 348.469 384 331.527V384Zm0 0"/><path fill="#665964" d="m210.191 314.285-14.265-5.7 7.027-14.214Zm0 0"/><path fill="#45293f" d="m63.46 297.762 34.302 14.375-21.664 28.539Zm0 0"/><path fill="#45293f" d="m42.602 335.094 20.859-37.332 12.637 42.914Zm0 0"/><path fill="#45293f" d="m29.29 302.11 34.17-4.348-20.858 37.332ZM51.71 384l24.388-43.324L100.68 384ZM51.71 384H0l23.828-27.332Zm0 0"/><path fill="#45293f" d="m51.71 384-9.108-48.906 33.496 5.582Zm0 0"/><path fill="#45293f" d="m51.71 384-27.882-27.332 18.774-21.574Zm0 0"/><path fill="#665964" d="m227.89 221.984 5.008 24.145-23.937-11.024ZM293.02 183.676l6.168 20.789-14.989-2.781Zm0 0"/><path fill="#665964" d="m266.11 186.29 26.91-2.614-8.82 18.008ZM293.02 183.676l-26.91 2.613 13.718-21.426ZM299.188 204.465l-6.168-20.79 13.558 4.048Zm0 0"/><path fill="#45293f" d="m202.8 170.441 11.997 15.121-13.488-1.253Zm0 0"/><path fill="#45293f" d="m214.797 185.563-6.98 7.66-6.508-8.914Zm0 0"/><path fill="#665964" d="m227.383 188.441 4.336-15.007 17.515 6.957Zm0 0"/><path fill="#45293f" d="m224.844 155.8 6.875 17.634-16.656-5.7ZM214.797 185.563 202.8 170.44l12.262-2.707Zm0 0"/><path fill="#665964" d="m215.094 257.371-18.89 1.29 12.757-23.556Zm0 0"/><path fill="#45293f" d="M239.023 359.023 265.641 384h-53.258Zm0 0"/><path fill="#45293f" d="m214.02 353.422 25.003 5.601L212.383 384ZM229.016 342.426l10.007 16.597-25.003-5.601ZM227.18 321.258l-19.965 3.914 2.976-10.887Zm0 0"/><path fill="#665964" d="m211.059 276.832-14.856-18.172 18.89-1.289ZM196.203 258.66l14.856 18.172-24.29 2.973ZM219.648 296.71l-9.457 17.575-7.238-19.914ZM219.648 296.71l7.532 24.548-16.989-6.973Zm0 0"/><path fill="#665964" d="m227.18 321.258-7.532-24.547 12.934 2.098Zm0 0"/><path fill="#45293f" d="m286.07 328.617-13.933-29.531 37.761-1.914Zm0 0"/><path fill="#655863" d="m232.582 298.809 19.711-8.098-9.3 29.094Zm0 0"/><path fill="#45293f" d="m252.293 290.71 19.844 8.376-29.145 20.719Zm0 0"/><path fill="#655863" d="m249.102 226.996-6.977-26.371 28.762 14.613Zm0 0"/><path fill="#665964" d="m115.64 121.23 8.84-8.14-2.046 14.883ZM109.469 94.86l10.613 3.417-8.719 9.313ZM112.816 82.313l7.266 15.964-10.613-3.418Zm0 0"/><path fill="#45293f" d="m120.082 98.277-7.266-15.965 28.496-2.695ZM134.867 107.266l-14.785-8.989 21.23-18.66Zm0 0"/><path fill="#655863" d="m127.89 171.7-6.628-14.61 17.918-8.16Zm0 0"/><path fill="#45293f" d="m121.262 157.09-13.094 8.297-9.008-19.125ZM108.168 165.387l13.094-8.297.863 14.527Zm0 0"/><path fill="#45293f" d="m121.262 157.09 6.629 14.61-5.766-.083ZM121.262 157.09 99.16 146.262l17.008-15.27Zm0 0"/><path fill="#665964" d="m139.18 148.93-17.918 8.16-5.094-26.098Zm0 0"/><path fill="#665964" d="m130.39 127.938 8.79 20.992-16.746-20.957Zm0 0"/><path fill="#45293f" d="m172.09 168.39-23.758-15.827 28.094-10.622ZM143.133 155.703 127.89 171.7l11.289-22.77Zm0 0"/><path fill="#45293f" d="m148.332 152.563.77-13.66 27.324 3.038ZM164.914 208.203l-8.805 10.356.746-24.555Zm0 0"/><path fill="#45293f" d="m156.11 218.559-12.594-17.438 13.34-7.117ZM143.516 201.121l7.672-28.414 5.667 21.297Zm0 0"/><path fill="#665964" d="m241.98 137.867 3.547-13.5 5.797 12.149Zm0 0"/><path fill="#45293f" d="m245.527 124.367-3.547 13.5-15.91-8.168Zm0 0"/><path fill="#665964" d="m260.031 159.656 19.797 5.207-13.719 21.426ZM272.43 148.64l6.105-10.788 1.164 10.585Zm0 0"/><path fill="#665964" d="m278.535 137.852-6.105 10.789-9.961-11.137ZM89.176 220.129l9.734-7.024-1.644 21.864Zm0 0"/><path fill="#45293f" d="m58.414 213.832 3.89 34.172-31.921-12.336ZM58.414 213.832l30.762 6.297-26.871 27.875Zm0 0"/><path fill="#45293f" d="m58.414 213.832-28.031 21.836-2-37.156ZM122.535 293.953l-.52-25.129 18.235 9.54Zm0 0"/><path fill="#45293f" d="m122.016 268.824.52 25.13-30.22-18.126Zm0 0"/><path fill="#665964" d="m130.582 235.879-28.691 9.137-4.625-10.047Zm0 0"/><path fill="#665964" d="m101.89 245.016 28.692-9.137 1.734 17.457Zm0 0"/><path fill="#655863" d="m143.516 201.121-11.051 17.969-2.856-29.555Zm0 0"/><path fill="#45293f" d="m105.777 204.746 1-22.105 22.832 6.894ZM132.465 219.09l-26.688-14.344 23.832-15.21ZM106.777 182.64l-1 22.106-15.324-8.621Zm0 0"/><path fill="#665964" d="m105.777 204.746-6.867 8.36-8.457-16.981Zm0 0"/><path fill="#45293f" d="M343.621 110.305 318.18 72.418l36.828 4.77ZM302.93 97.281l-41.188-3.996 7.828-28.047ZM302.93 97.281l-29.711 14.051-11.477-18.047ZM278.535 137.852l-7.875-12.875 21.313 1.617Zm0 0"/><path fill="#665964" d="m270.66 124.977-8.191 12.527 2.332-18.274ZM270.66 124.977l7.875 12.875-16.066-.348Zm0 0"/><path fill="#45293f" d="m291.973 126.594-21.313-1.617 2.559-13.645Zm0 0"/><path fill="#45293f" d="m270.66 124.977-5.86-5.747 8.419-7.898Zm0 0"/><path fill="#665964" d="m318.715 133.246 7.52-.168-7.993 20.406Zm0 0"/><path fill="#665964" d="m312.473 152.7 6.242-19.454-.473 20.238ZM293.02 183.676l20.093-14.95-6.535 18.997Zm0 0"/><path fill="#45293f" d="m323.914 166.121-10.8 2.606 5.128-15.243Zm0 0"/><path fill="#45293f" d="m329.453 188.215-16.34-19.488 10.801-2.606ZM329.453 188.215l-16.543 22.387-6.332-22.88Zm0 0"/><path fill="#45293f" d="m313.113 168.727 16.34 19.488-22.875-.492ZM384 228.04l-38.277 41.355-9.703-42.938ZM309.89 256.992l26.13-30.535 9.703 42.938Zm0 0"/><path fill="#45293f" d="m283.188 274.105 26.703-17.113.007 40.18Zm0 0"/><path fill="#45293f" d="m272.137 299.086 11.05-24.98 26.711 23.066ZM304.898 229.926l31.122-3.469-26.13 30.535ZM384 384h-62.238l29.25-35.531ZM141.805 335.09l10.55 16.285-23.77.563Zm0 0"/><path fill="#45293f" d="m126.117 323.227 15.688 11.863-13.22 16.848ZM161.355 336.371l20.297 19.863-29.297-4.859Zm0 0"/><path fill="#45293f" d="m141.805 335.09 19.55 1.281-9 15.004ZM148.18 309.148l-22.063 14.079-3.582-29.274ZM229.016 342.426l-14.996 10.996 4.453-16.254Zm0 0"/><path fill="#45293f" d="m214.02 353.422-16.493-18.781 20.946 2.527Zm0 0"/><path fill="#45293f" d="m197.527 334.64 16.493 18.782-32.368 2.812Zm0 0"/><path fill="#665964" d="m195.926 308.586-9.98-7.227 17.007-6.988Zm0 0"/><path fill="#45293f" d="m195.926 308.586 11.289 16.586-15.125-4.461Zm0 0"/><path fill="#45293f" d="m207.215 325.172-11.29-16.586 14.266 5.7Zm0 0"/><path fill="#655863" d="m197.527 334.64 9.688-9.468 11.258 11.996Zm0 0"/><path fill="#655863" d="m207.215 325.172-9.688 9.469-5.437-13.93Zm0 0"/><path fill="#45293f" d="m214.797 185.563-3.926 9.671-3.055-2.011Zm0 0"/><path fill="#665964" d="m163.324 280.527 11.516-21.066 11.93 20.344Zm0 0"/><path fill="#45293f" d="m140.25 278.363 1.508 11.754-19.223 3.836Zm0 0"/><path fill="#665964" d="m172.047 299.113-8.723-18.586 23.446-.722Zm0 0"/><path fill="#655863" d="m278.535 137.852 5.305 5.93-4.14 4.655Zm0 0"/><path fill="#665964" d="m279.7 148.438 12.37 5.242-12.242 11.183Zm0 0"/><path fill="#655863" d="m279.7 148.438 4.14-4.657 8.23 9.899Zm0 0"/><path fill="#665964" d="m260.031 159.656 12.399-11.015 7.398 16.222Zm0 0"/><path fill="#665964" d="m272.43 148.64 7.27-.202.128 16.425ZM260.031 159.656l6.078 26.633-16.875-5.898Zm0 0"/><path fill="#45293f" d="m222.238 179.676-7.441 5.887.266-17.829Zm0 0"/><path fill="#45293f" d="m231.719 173.434-9.48 6.242-7.177-11.942Zm0 0"/><path fill="#45293f" d="m222.238 179.676 9.48-6.242-4.335 15.007Zm0 0"/><path fill="#665964" d="m198.414 213.91-20.941-4.308 16.011-10.59Zm0 0"/><path fill="#655863" d="m207.816 193.223-9.402 20.687-4.93-14.898ZM242.125 200.625l7.11-20.234 16.874 5.898Zm0 0"/><path fill="#665964" d="m174.84 259.46 21.363-.8-9.433 21.145Zm0 0"/><path fill="#665964" d="m196.203 258.66-21.363.8 9.281-26.257Zm0 0"/><path fill="#665964" d="m196.203 258.66-12.082-25.457 24.84 1.902Zm0 0"/><path fill="#665964" d="m232.898 246.129-17.804 11.242-6.133-22.266Zm0 0"/><path fill="#45293f" d="m239.023 359.023 25.782-10.566.836 35.543Zm0 0"/><path fill="#4b3246" d="m228.496 329.14-1.316-7.882 15.812-1.453Zm0 0"/><path fill="#45293f" d="m245.727 337.066-17.23-7.925 14.495-9.336ZM286.07 328.617l4.57 26.965-25.835-7.125Zm0 0"/><path fill="#45293f" d="m290.64 355.582-4.57-26.965 32.118 8.684Zm0 0"/><path fill="#665964" d="m211.059 276.832 8.59 19.879-16.696-2.34Zm0 0"/><path fill="#665964" d="m231.035 282.535-11.387 14.176-8.59-19.879Zm0 0"/><path fill="#665964" d="m219.648 296.71 11.387-14.175 1.547 16.274Zm0 0"/><path fill="#655863" d="m231.035 282.535 21.258 8.176-19.711 8.098Zm0 0"/><path fill="#665964" d="m231.035 282.535-19.976-5.703 15.683-10.168Zm0 0"/><path fill="#45293f" d="m286.07 328.617 23.828-31.445 8.29 40.129ZM309.898 297.172l-.007-40.18 35.832 12.403Zm0 0"/><path fill="#45293f" d="m348.7 311.938-38.802-14.766 35.825-27.777Zm0 0"/><path fill="#45293f" d="m318.188 337.3-8.29-40.128 38.801 14.765ZM261.04 327.55l25.03 1.067-21.265 19.84ZM261.04 327.55l-15.313 9.516-2.735-17.261Zm0 0"/><path fill="#45293f" d="m245.727 337.066 15.312-9.515 3.766 20.906ZM272.137 299.086l-11.098 28.465-18.047-7.746Zm0 0"/><path fill="#45293f" d="m286.07 328.617-25.03-1.066 11.097-28.465ZM162.316 191.238l2.598 16.965-8.059-14.2Zm0 0"/><path fill="#45293f" d="m162.316 191.238 12.711 4.57-10.113 12.395ZM196.266 179.758l-20.04 13.68-4.136-25.047Zm0 0"/><path fill="#665964" d="m184.121 233.203 14.293-19.293 10.547 21.195Zm0 0"/><path fill="#665964" d="m177.473 209.602 20.941 4.308-14.293 19.293ZM161.773 237.098l5.582-20.73 16.766 16.835Zm0 0"/><path fill="#655863" d="m167.355 216.367 10.118-6.765 6.648 23.601Zm0 0"/><path fill="#665964" d="m124.48 113.09-8.84 8.14-4.277-13.64Zm0 0"/><path fill="#665964" d="m120.082 98.277 4.398 14.813-13.117-5.5Zm0 0"/><path fill="#45293f" d="m124.48 113.09-4.398-14.813 14.785 8.989ZM130.39 127.938l10.278 20.421-1.488.57ZM149.102 138.902l-8.434 9.457-10.277-20.422ZM140.668 148.36l2.465 7.343-3.953-6.773ZM143.133 155.703l-2.465-7.344 7.664 4.203Zm0 0"/><path fill="#45293f" d="m140.668 148.36 8.434-9.458-.77 13.66Zm0 0"/><path fill="#665964" d="m124.48 113.09 5.91 14.847-7.956.036Zm0 0"/><path fill="#45293f" d="m130.39 127.938 26.747-16.168-8.035 27.132Zm0 0"/><path fill="#45293f" d="m130.39 127.938 4.477-20.672 22.27 4.504Zm0 0"/><path fill="#45293f" d="m130.39 127.938-5.91-14.848 10.387-5.824ZM151.188 172.707l-23.297-1.008 15.242-15.996Zm0 0"/><path fill="#45293f" d="m148.332 152.563 2.856 20.144-8.055-17.004ZM127.89 171.7l23.298 1.007-7.672 28.414Zm0 0"/><path fill="#45293f" d="m151.188 172.707-2.856-20.144 23.758 15.828Zm0 0"/><path fill="#665964" d="m250.648 146.797-8.668-8.93 9.344-1.351ZM262.469 137.504l-11.82 9.293.675-10.281Zm0 0"/><path fill="#665964" d="m250.648 146.797-10.878-1.375 2.21-7.555ZM250.648 146.797l9.383 12.86-24.656 1.042ZM260.031 159.656l-9.383-12.86 11.82-9.292Zm0 0"/><path fill="#45293f" d="m235.375 160.7-3.656 12.734-6.875-17.633Zm0 0"/><path fill="#665964" d="m231.719 173.434 3.656-12.735 13.86 19.692Zm0 0"/><path fill="#665964" d="m235.375 160.7 24.656-1.044-10.797 20.735Zm0 0"/><path fill="#45293f" d="m239.77 145.422-4.395 15.277-10.531-4.898Zm0 0"/><path fill="#665964" d="m239.77 145.422 10.878 1.375-15.273 13.902Zm0 0"/><path fill="#45293f" d="m202.8 170.441-30.71-2.05 4.336-26.45ZM202.8 170.441l-6.534 9.317-24.176-11.367Zm0 0"/><path fill="#45293f" d="m202.8 170.441-1.491 13.868-5.043-4.551ZM53.695 177.578l4.72 36.254-30.032-15.32Zm0 0"/><path fill="#45293f" d="m58.414 213.832-4.719-36.254 6.922 4.04Zm0 0"/><path fill="#665964" d="m79.86 211.648 19.05 1.457-9.734 7.024Zm0 0"/><path fill="#45293f" d="m58.414 213.832 21.445-2.184 9.317 8.48Zm0 0"/><path fill="#45293f" d="m79.86 211.648-21.446 2.184 2.203-32.215Zm0 0"/><path fill="#665964" d="m98.91 213.105-19.05-1.457 10.593-15.523Zm0 0"/><path fill="#665964" d="m79.86 211.648-19.243-30.03 29.836 14.507ZM98.91 213.105l33.555 5.985-35.2 15.879ZM132.465 219.09l-1.883 16.789-33.316-.91Zm0 0"/><path fill="#665964" d="m105.777 204.746 26.688 14.344-33.555-5.985Zm0 0"/><path fill="#45293f" d="m325.016 126.664 18.605-16.36-17.387 22.774Zm0 0"/><path fill="#665964" d="m318.715 133.246 6.3-6.582 1.22 6.414ZM299.688 161.453l-6.668 22.223-13.192-18.813ZM299.688 161.453l-7.618-7.773 11.961-9.82Zm0 0"/><path fill="#665964" d="m292.07 153.68 7.618 7.773-19.86 3.41Zm0 0"/><path fill="#665964" d="m293.02 183.676 6.668-22.223 13.425 7.274Zm0 0"/><path fill="#45293f" d="M345.723 269.395 384 228.039v59.625ZM285.516 254.219l-2.329 19.886-21.746-16.07Zm0 0"/><path fill="#45293f" d="m283.188 274.105 2.328-19.886 24.375 2.773Zm0 0"/><path fill="#45293f" d="m285.516 254.219 5.5-17.406 18.875 20.18ZM291.016 236.813l13.882-6.887 4.993 27.066Zm0 0"/><path fill="#45293f" d="m312.91 210.602-8.012 19.324-8.144-10.504ZM299.188 204.465l13.722 6.137-16.156 8.82Zm0 0"/><path fill="#45293f" d="m304.898 229.926 8.012-19.324 23.11 15.855ZM161.355 336.371l19.586-2.5.711 22.363ZM145.21 324.926l-3.405 10.164-15.688-11.863Zm0 0"/><path fill="#45293f" d="m148.18 309.148-2.97 15.778-19.093-1.7Zm0 0"/><path fill="#665964" d="m145.21 324.926 2.97-15.778 8.058 7.457ZM161.355 336.371l-16.144-11.445 11.027-8.32Zm0 0"/><path fill="#665964" d="m145.21 324.926 16.145 11.445-19.55-1.281Zm0 0"/><path fill="#45293f" d="m186.57 311.598 9.356-3.012-3.836 12.125ZM186.57 311.598l-.625-10.239 9.98 7.227ZM222.719 207.102l-11.848-11.868 3.926-9.672Zm0 0"/><path fill="#665964" d="m211.32 213.348 16.57 8.636-18.93 13.121ZM198.414 213.91l12.906-.562-2.36 21.757ZM211.32 213.348l11.399-6.246 5.172 14.882Zm0 0"/><path fill="#665964" d="m222.719 207.102-11.399 6.246-.449-18.114Zm0 0"/><path fill="#655863" d="m210.871 195.234.45 18.114-3.505-20.125Zm0 0"/><path fill="#665964" d="m211.32 213.348-12.906.562 9.402-20.687ZM222.719 207.102l19.406-6.477-14.234 21.36ZM155.426 259.86l19.414-.4-11.516 21.067Zm0 0"/><path fill="#45293f" d="m140.25 278.363 4.977 10.856-3.47.898Zm0 0"/><path fill="#665964" d="m149.652 274.336-4.425 14.883-4.977-10.856ZM145.227 289.219l4.425-14.883 13.672 6.191Zm0 0"/><path fill="#45293f" d="m291.973 126.594-8.133 17.187-5.305-5.93ZM167.355 216.367l-2.44-8.164 12.558 1.399ZM178.668 196.871l-13.754 11.332 10.113-12.394Zm0 0"/><path fill="#45293f" d="m164.914 208.203 13.754-11.332-1.195 12.73Zm0 0"/><path fill="#665964" d="m211.059 276.832 4.035-19.46 11.648 9.292Zm0 0"/><path fill="#45293f" d="m256.984 277.32 15.153 21.766-19.844-8.375ZM283.188 274.105l-26.204 3.215 4.457-19.285ZM256.984 277.32l26.204-3.215-11.051 24.98Zm0 0"/><path fill="#665964" d="m215.094 257.371 17.804-11.242-6.156 20.535ZM185.945 301.36l.825-21.555 16.183 14.566Zm0 0"/><path fill="#665964" d="m186.77 279.805 24.289-2.973-8.106 17.54ZM249.102 226.996l-21.211-5.012 14.234-21.359ZM249.102 226.996l-16.204 19.133-5.007-24.145Zm0 0"/><path fill="#45293f" d="m162.316 191.238-11.129-18.531 20.903-4.316ZM176.227 193.438l-13.91-2.2 9.773-22.847Zm0 0"/><path fill="#45293f" d="m151.188 172.707 11.128 18.531-5.46 2.766ZM162.316 191.238l13.91 2.2-1.199 2.37Zm0 0"/><path fill="#665964" d="m184.121 233.203-9.281 26.258-13.067-22.363Zm0 0"/><path fill="#45293f" d="m167.355 216.367-11.246 2.192 8.805-10.356ZM122.016 268.824l15.105-5.887 3.129 15.426Zm0 0"/><path fill="#45293f" d="m132.316 253.336 4.805 9.601-15.105 5.887Zm0 0"/><path fill="#655863" d="m137.121 262.938 12.531 11.398-9.402 4.027Zm0 0"/><path fill="#665964" d="m149.652 274.336-12.53-11.399 18.304-3.078ZM130.582 235.879l13.41 7.957-11.676 9.5Zm0 0"/><path fill="#45293f" d="m239.77 145.422-13.7-15.723 15.91 8.168ZM214.86 95.86l11.21 33.84-22.527 6.57Zm0 0"/><path fill="#45293f" d="m226.07 129.7-1.226 26.1-21.301-19.53ZM226.07 129.7l13.7 15.722-14.926 10.379ZM176.227 193.438l2.441 3.433-3.64-1.062Zm0 0"/><path fill="#665964" d="m132.465 219.09 12.105 6.656-13.988 10.133Zm0 0"/><path fill="#45293f" d="M325.016 126.664 302.93 97.281l40.691 13.024ZM343.621 110.305 302.93 97.28l15.25-24.863Zm0 0"/><path fill="#665964" d="m299.688 161.453 12.785-8.754.64 16.028Zm0 0"/><path fill="#665964" d="m313.113 168.727-.64-16.028 5.77.785ZM312.473 152.7l-12.786 8.753 4.344-17.594Zm0 0"/><path fill="#45293f" d="m318.188 337.3 30.511-25.363 2.313 36.532ZM321.762 384l-3.575-46.7 32.825 11.169Zm0 0"/><path fill="#665964" d="m167.547 314.844-6.192 21.527-5.117-19.766ZM167.547 314.844l13.394 19.027-19.586 2.5Zm0 0"/><path fill="#45293f" d="m227.383 188.441-4.664 18.66-7.922-21.538Zm0 0"/><path fill="#665964" d="m227.383 188.441 14.742 12.184-19.406 6.477Zm0 0"/><path fill="#45293f" d="m222.238 179.676 5.145 8.765-12.586-2.879Zm0 0"/><path fill="#665964" d="m242.125 200.625-14.742-12.184 21.851-8.05ZM163.324 280.527l-13.672-6.191 5.774-14.477Zm0 0"/><path fill="#45293f" d="m186.57 311.598-8.304-2.403 7.68-7.836ZM283.84 143.781l9.805-2.57-1.575 12.469ZM291.973 126.594l1.672 14.617-9.805 2.57Zm0 0"/><path fill="#45293f" d="m292.07 153.68 1.575-12.47 10.386 2.65Zm0 0"/><path fill="#665964" d="m242.813 268.547-11.778 13.988-4.293-15.87Zm0 0"/><path fill="#655863" d="m231.035 282.535 11.778-13.988 9.48 22.164ZM242.813 268.547l14.171 8.773-4.691 13.39Zm0 0"/><path fill="#665964" d="m232.898 246.129 9.915 22.418-16.07-1.883Zm0 0"/><path fill="#45293f" d="m228.496 329.14 17.23 7.926-16.71 5.36ZM245.727 337.066l-6.704 21.957-10.007-16.597ZM245.727 337.066l19.078 11.391-25.782 10.566Zm0 0"/><path fill="#665964" d="m155.426 259.86-14.926-4.508 3.492-11.516Zm0 0"/><path fill="#665964" d="m143.992 243.836-3.492 11.516-8.184-2.016Zm0 0"/><path fill="#665964" d="m137.121 262.938 3.379-7.586 14.926 4.507Zm0 0"/><path fill="#665964" d="m140.5 255.352-3.379 7.585-4.805-9.601ZM174.84 259.46l-19.414.4 6.347-22.762ZM280.625 231.895l-2.543 12.675-10.582-11.035Zm0 0"/><path fill="#665964" d="m278.082 244.57-23.121 3.02 12.539-14.055Zm0 0"/><path fill="#665964" d="m254.96 247.59 23.122-3.02-16.64 13.465Zm0 0"/><path fill="#45293f" d="m278.082 244.57 7.434 9.649-24.075 3.816Zm0 0"/><path fill="#45293f" d="m285.516 254.219-7.434-9.649 12.934-7.757Zm0 0"/><path fill="#665964" d="m278.082 244.57 2.543-12.675 10.39 4.917Zm0 0"/><path fill="#655863" d="m249.102 226.996 5.859 20.594-22.063-1.461Zm0 0"/><path fill="#665964" d="m254.96 247.59-5.858-20.594 18.398 6.54ZM270.887 215.238l9.738 16.657-13.125 1.64Zm0 0"/><path fill="#665964" d="m270.887 215.238-3.387 18.297-18.398-6.539ZM144.57 225.746l-.578 18.09-13.41-7.957Zm0 0"/><path fill="#45293f" d="m177.473 209.602 1.195-12.73 14.816 2.14Zm0 0"/><path fill="#45293f" d="m178.668 196.871 22.64-12.562-7.824 14.703Zm0 0"/><path fill="#45293f" d="m201.309 184.309-22.641 12.562 17.598-17.113ZM178.668 196.871l-2.441-3.434 20.039-13.68Zm0 0"/><path fill="#665964" d="m144.57 225.746-12.105-6.656 11.05-17.969Zm0 0"/><path fill="#655863" d="m156.11 218.559-11.54 7.187-1.054-24.625Zm0 0"/><path fill="#665964" d="m156.11 218.559 5.663 18.539-17.203-11.352ZM156.11 218.559l11.245-2.192-5.582 20.73Zm0 0"/><path fill="#45293f" d="m291.973 126.594-18.754-15.262 29.71-14.05ZM290.64 355.582l27.548-18.281L321.762 384Zm0 0"/><path fill="#45293f" d="m265.64 384 25-28.418L321.763 384Zm0 0"/><path fill="#45293f" d="m290.64 355.582-25 28.418-.835-35.543ZM180.941 333.871l16.586.77-15.875 21.593Zm0 0"/><path fill="#45293f" d="m197.527 334.64-16.586-.769 11.149-13.16ZM141.758 290.117l6.422 19.031-25.645-15.195Zm0 0"/><path fill="#665964" d="m148.18 309.148 9.52-5.316-1.462 12.773ZM148.18 309.148l-2.953-19.93 12.472 14.614Zm0 0"/><path fill="#45293f" d="m145.227 289.219 2.953 19.93-6.422-19.032Zm0 0"/><path fill="#665964" d="m157.7 303.832 9.847 11.012-11.309 1.761Zm0 0"/><path fill="#665964" d="m172.047 299.113-4.5 15.73-9.848-11.011ZM167.547 314.844l4.5-15.73 6.219 10.081ZM172.047 299.113l14.723-19.308-.825 21.554Zm0 0"/><path fill="#665964" d="m178.266 309.195-6.22-10.082 13.9 2.246Zm0 0"/><path fill="#655863" d="m254.96 247.59-12.148 20.957-9.914-22.418ZM242.813 268.547l12.148-20.957 6.48 10.445Zm0 0"/><path fill="#655863" d="m256.984 277.32-14.171-8.773 18.628-10.512Zm0 0"/><path fill="#665964" d="m280.625 231.895 10.398-5.446-.007 10.363Zm0 0"/><path fill="#665964" d="m270.887 215.238 20.136 11.211-10.398 5.446Zm0 0"/><path fill="#45293f" d="m291.023 226.45 13.875 3.476-13.882 6.887ZM304.898 229.926l-13.875-3.477 5.73-7.027Zm0 0"/><path fill="#665964" d="m161.773 237.098-17.78 6.738.577-18.09Zm0 0"/><path fill="#665964" d="m143.992 243.836 17.781-6.738-6.347 22.761Zm0 0"/><path fill="#45293f" d="m309.895 125.879-17.922.715L302.93 97.28Zm0 0"/><path fill="#45293f" d="M309.895 125.879 302.93 97.28l22.086 29.383ZM309.895 125.879l15.12.785-6.3 6.582ZM180.875 317.793l5.695-6.195 5.52 9.113ZM180.941 333.871l-.066-16.078 11.215 2.918Zm0 0"/><path fill="#45293f" d="m180.875 317.793-2.61-8.598 8.305 2.403Zm0 0"/><path fill="#655863" d="m178.266 309.195 2.609 8.598-13.328-2.95ZM180.875 317.793l.066 16.078-13.394-19.027Zm0 0"/><path fill="#665964" d="m172.047 299.113-14.348 4.719 5.625-23.305Zm0 0"/><path fill="#665964" d="m157.7 303.832-12.473-14.613 18.097-8.692ZM288.848 214.414l2.175 12.035-20.136-11.21ZM288.848 214.414l-17.961.824 13.312-13.554Zm0 0"/><path fill="#665964" d="m299.188 204.465-10.34 9.95-4.649-12.731Zm0 0"/><path fill="#665964" d="m288.848 214.414 10.34-9.95-2.434 14.958Zm0 0"/><path fill="#665964" d="m291.023 226.45-2.175-12.036 7.906 5.008Zm0 0"/><path fill="#45293f" d="m309.895 125.879-5.864 17.98-12.058-17.265Zm0 0"/><path fill="#45293f" d="m291.973 126.594 12.058 17.265-10.386-2.648Zm0 0"/><path fill="#665964" d="m304.031 143.86 14.684-10.614-6.242 19.453Zm0 0"/><path fill="#45293f" d="m304.031 143.86 5.864-17.981 8.82 7.367Zm0 0"/></svg>