<svg xmlns="http://www.w3.org/2000/svg" width="512" height="512" viewBox="0 0 384 384"><path fill="#4a704a" d="m142.254 96.133-48.43 8.43 18.324-52.153Zm0 0"/><path fill="#4a714a" d="m189.75 91.516 21.95 39.203-41.255 5.824Zm0 0"/><path fill="#4a7049" d="m189.75 91.516 28.613-43.79 14.32 43.583ZM0 108.172l55.602-43.738-2.485 53.144Zm0 0"/><path fill="#9c3a01" d="m157.875 217.016-24.57 16.375-3.145-21.942Zm0 0"/><path fill="#4a7049" d="m35.434 154.691 17.683-37.113 23.586 31.777Zm0 0"/><path fill="#4a714a" d="m0 108.172 53.117 9.406-17.683 37.113ZM53.117 117.578l40.707-13.016-17.12 44.793Zm0 0"/><path fill="#4a7049" d="M112.148 52.41 78.75 0h59.32Zm0 0"/><path fill="#4a714a" d="m93.824 104.563-38.222-40.13 56.546-12.023Zm0 0"/><path fill="#4a714a" d="M55.602 64.434 78.75 0l33.398 52.41Zm0 0"/><path fill="#4a7049" d="m55.602 64.434 38.222 40.129-40.707 13.015Zm0 0"/><path fill="#4a714a" d="m121.875 143.055 20.379-46.922 28.191 40.41Zm0 0"/><path fill="#4a704a" d="m93.824 104.563 28.051 38.492-45.172 6.3Zm0 0"/><path fill="#4a714a" d="m142.254 96.133-20.379 46.922-28.05-38.493ZM149.988 162.402l-28.113-19.347 48.57-6.512ZM165.66 47.992l-53.512 4.418L138.07 0ZM165.66 47.992l-23.406 48.14-30.106-43.722Zm0 0"/><path fill="#4a7049" d="m265.91 0 7.074 56.977-54.62-9.25Zm0 0"/><path fill="#4a714a" d="m218.363 47.727 54.621 9.25-40.3 34.332Zm0 0"/><path fill="#4a7049" d="M78.75 0 55.602 64.434 0 0Zm0 0"/><path fill="#4a3007" d="m243.215 284.39-2.176 2.926-11.043-11.617Zm0 0"/><path fill="#f6c5b4" d="m61.004 207.145-29.043-5.79 5.086-6.066Zm0 0"/><path fill="#4a7049" d="M0 245.36v-53.626l24.89 50.727Zm0 0"/><path fill="#497049" d="m0 191.734 31.96 9.621-7.07 41.106Zm0 0"/><path fill="#4a7049" d="m31.96 201.355 10.946 33.23-18.015 7.876ZM129.723 184.387l-34.293-3.684 26.445-37.648Zm0 0"/><path fill="#4a714a" d="m170.445 136.543 41.254-5.824-10.64 21.168Zm0 0"/><path fill="#4a7049" d="M0 191.734v-83.562l35.434 46.52ZM31.96 201.355l-.163-11.003 5.25 4.937Zm0 0"/><path fill="#497049" d="m0 191.734 31.797-1.382.164 11.003Zm0 0"/><path fill="#4a7049" d="m384 163.43-27.46-1.59-7.411-36.168ZM349.129 125.672l-18.34-46.824L384 76.73Zm0 0"/><path fill="#4a7049" d="m330.79 78.848-43.88 5.785-13.926-27.656Zm0 0"/><path fill="#4a7049" d="m286.91 84.633 43.88-5.785-21.606 19.906Zm0 0"/><path fill="#9c3900" d="m303.75 172.082-2.016 18.14-13.246-4.538Zm0 0"/><path fill="#4a2d2b" d="m45.02 342.113 42.195 13.633L67.812 384Zm0 0"/><path fill="#9c4b13" d="M233.672 190.355 220.532 218l-19.036-19.273Zm0 0"/><path fill="#9c6932" d="M201.496 198.727 220.531 218l-33.074 1.996Zm0 0"/><path fill="#4a3003" d="m243.266 274.82-.051 9.57-13.219-8.69Zm0 0"/><path fill="#497049" d="M384 163.43v81.273l-20.312-21.566Zm0 0"/><path fill="#4a2d2b" d="m285.016 356.352 22.996-32.586L321.71 384Zm0 0"/><path fill="#4a714a" d="M194.734 0 165.66 47.992 138.07 0ZM165.66 47.992l24.09 43.524-47.496 4.617ZM142.254 96.133l47.496-4.617-19.305 45.027Zm0 0"/><path fill="#9db380" d="m210.988 179.7 22.684 10.655-32.176 8.372Zm0 0"/><path fill="#4a7049" d="M194.734 0h71.176l-47.547 47.727ZM272.984 56.977l-5.156 34.546-35.144-.214Zm0 0"/><path fill="#4a7049" d="m267.828 91.523 5.156-34.546 13.926 27.656ZM0 108.172V0l55.602 64.434Zm0 0"/><path fill="#4a3101" d="m241.04 287.316-17.185-1.101 6.141-10.516Zm0 0"/><path fill="#4b2d28" d="m259.172 356.207-25.738-17.297 16.156-12.543Zm0 0"/><path fill="#4b2f14" d="m198.742 338.695 34.692.215-36.055 2.625Zm0 0"/><path fill="#9b3900" d="m61.004 207.145 18.547 21.96-26.602-9.398Zm0 0"/><path fill="#9c3a01" d="m79.55 229.105-18.546-21.96 21.793-6.387Zm0 0"/><path fill="#c88661" d="m61.004 207.145-8.055 12.562-20.988-18.352Zm0 0"/><path fill="#4a6f49" d="m52.95 219.707-10.044 14.879-10.945-33.23Zm0 0"/><path fill="#f6c5b4" d="m52.95 219.707-2.595 15.324-7.449-.445Zm0 0"/><path fill="#4a2d2b" d="M57.89 253.473 38.86 268.28l3.277-23.64Zm0 0"/><path fill="#e3b5a4" d="m67.254 269.379-9.363-15.906 12.074 5.109Zm0 0"/><path fill="#4a2d2b" d="m57.89 253.473 9.364 15.906-28.395-1.098Zm0 0"/><path fill="#4e3408" d="m110.535 272.664-26.379 4 5.774-11.004Zm0 0"/><path fill="#d7aa94" d="m110.535 272.664-5.129 10.402-21.25-6.402Zm0 0"/><path fill="#cda189" d="m84.156 276.664-4.926-12.879 10.7 1.875Zm0 0"/><path fill="#4a714a" d="m198.277 161.953-27.832-25.41 30.614 15.344Zm0 0"/><path fill="#497049" d="m209.969 157.477-11.692 4.476 2.782-10.066Zm0 0"/><path fill="#9daf7c" d="m204.02 170.953-5.743-9 11.692-4.476Zm0 0"/><path fill="#4a714a" d="m149.988 162.402-20.265 21.985-7.848-41.332ZM95.43 180.703l-18.727-31.348 45.172-6.3ZM349.129 125.672 384 76.73v86.7Zm0 0"/><path fill="#9c3900" d="m301.734 190.223-8.902 21.746-4.344-26.285Zm0 0"/><path fill="#497049" d="m346.566 210.793 14.957-32.777 2.164 45.12Zm0 0"/><path fill="#4a7049" d="m363.688 223.137-2.165-45.121L384 163.43Zm0 0"/><path fill="#9daa76" d="m311.434 193.625-18.602 18.344 8.902-21.746Zm0 0"/><path fill="#9c3900" d="m282.305 175.27 21.445-3.188-15.262 13.602Zm0 0"/><path fill="#4a7049" d="m272.984 56.977 60.352-23.079-2.547 44.95Zm0 0"/><path fill="#4a7049" d="m265.91 0 67.426 33.898-60.352 23.079Zm0 0"/><path fill="#4a7049" d="m332.39 0 .946 33.898L265.91 0Zm0 0"/><path fill="#4c2e2a" d="m131.875 384 34.754-27.027 41.578 27.02Zm0 0"/><path fill="#4a2d2a" d="m208.207 383.992-41.578-27.02 30.75-15.437Zm0 0"/><path fill="#4a2d2a" d="m166.629 356.973 10.176-19.996 20.574 4.558Zm0 0"/><path fill="#4a2d2b" d="M131.875 384H67.813l19.402-28.254ZM0 384v-65.773l45.02 23.886ZM67.813 384H0l45.02-41.887Zm0 0"/><path fill="#9c460e" d="m255.969 172.54 18.09-20.782 8.246 23.512Zm0 0"/><path fill="#533613" d="m140.328 286.05 19.152 12.958-12.457 3.976Zm0 0"/><path fill="#79542e" d="m125.488 301.395 14.84-15.344 6.695 16.933Zm0 0"/><path fill="#9da672" d="m204.02 170.953 6.968 8.746-19.504 6.957Zm0 0"/><path fill="#9db27f" d="m210.988 179.7-9.492 19.027-10.012-12.07Zm0 0"/><path fill="#9db380" d="m201.496 198.727-35.043-4.313 25.031-7.758Zm0 0"/><path fill="#9eb380" d="m253.453 249.605 19.402 5.16-17.527 5.45Zm0 0"/><path fill="#be9482" d="m341.145 266.273-2.516-8.523 20.172-13.77Zm0 0"/><path fill="#4a2d2b" d="m208.207 383.992 50.965-27.785L271.184 384Zm0 0"/><path fill="#4a2d2a" d="m233.434 338.91-25.227 45.082-10.828-42.457Zm0 0"/><path fill="#bd754b" d="m347.848 230.91 15.84-7.773-4.887 20.843Zm0 0"/><path fill="#c18c6f" d="m338.629 257.75 9.219-26.84 10.953 13.07Zm0 0"/><path fill="#f5c4b2" d="m347.848 230.91-9.22 26.84-.94-18.75Zm0 0"/><path fill="#4a2d2b" d="m363.688 223.137-15.84 7.773-1.282-20.117ZM271.184 384l13.832-27.648L321.71 384Zm0 0"/><path fill="#9c3c04" d="m260.777 303.656 10.23-28.601 32.216 19.43Zm0 0"/><path fill="#9b410c" d="m271.008 275.055-10.23 28.601-17.563-19.265Zm0 0"/><path fill="#4b2d29" d="M285.016 356.352 273.75 332.84l34.262-9.074Zm0 0"/><path fill="#4a714a" d="M218.363 47.727 189.75 91.516l-24.09-43.524Zm0 0"/><path fill="#4a714a" d="m194.734 0 23.63 47.727-52.704.265ZM211.7 130.719l20.984-39.41 6.402 45.25Zm0 0"/><path fill="#9db27f" d="m274.059 151.758-7.692-16.543 17.82-1.54Zm0 0"/><path fill="#4a7049" d="m267.828 91.523-.918 20.59-16.039-4.574Zm0 0"/><path fill="#4a714a" d="m266.91 112.113-16.613 20.621.574-25.195Zm0 0"/><path fill="#9db380" d="m266.367 135.215.543-23.102L283.055 120Zm0 0"/><path fill="#9db380" d="m266.91 112.113-.543 23.102-16.07-2.48Zm0 0"/><path fill="#4a714a" d="m232.684 91.309-20.985 39.41-21.949-39.203Zm0 0"/><path fill="#ecb7a2" d="m287.535 106-19.707-14.477 19.082-6.89Zm0 0"/><path fill="#b35f31" d="m287.535 106-.625-21.367 22.274 14.12Zm0 0"/><path fill="#4a704a" d="m267.828 91.523-16.957 16.016-18.187-16.23Zm0 0"/><path fill="#cf9070" d="m239.082 306.648-15.227-20.433 17.184 1.101Zm0 0"/><path fill="#4d3304" d="m223.855 286.215 15.227 20.433-21.941 1.188Zm0 0"/><path fill="#b8794e" d="m249.59 326.367-16.156 12.543 2.011-17.953Zm0 0"/><path fill="#9b3800" d="m116.04 240.82-13.282-5.449 30.547-1.98Zm0 0"/><path fill="#9c3900" d="m102.758 235.371 2.414-16.34 28.133 14.36Zm0 0"/><path fill="#9c3900" d="m105.172 219.031 24.988-7.582 3.145 21.942Zm0 0"/><path fill="#9c5c25" d="m95.43 180.703-12.633 20.055-6.082-21.074Zm0 0"/><path fill="#9c4209" d="m82.797 200.758 12.633-20.055 12.316 22.543Zm0 0"/><path fill="#9c3900" d="m105.172 219.031-22.375-18.273 24.95 2.488Zm0 0"/><path fill="#9c3900" d="m82.797 200.758 22.375 18.273-25.621 10.074Zm0 0"/><path fill="#9b3900" d="m105.172 219.031-2.414 16.34-23.207-6.266Zm0 0"/><path fill="#4a2d2b" d="m30.406 299.926 33.555 10.406-18.941 31.781Zm0 0"/><path fill="#4a2d2b" d="m63.96 310.332-33.554-10.406 25.48-12.719ZM87.215 355.746l4.515-25.637 12.813 6.774Zm0 0"/><path fill="#f6c5b4" d="m66.969 239.625-16.614-4.594 2.594-15.324Zm0 0"/><path fill="#492d2a" d="m79.55 229.105-12.581 10.52-14.02-19.918Zm0 0"/><path fill="#f6c5b4" d="m57.89 253.473 9.079-13.848 2.996 18.957Zm0 0"/><path fill="#4a2d2b" d="m38.86 268.281-13.97-25.82 17.247 2.18Zm0 0"/><path fill="#4a7049" d="m24.89 242.46 18.016-7.874-.77 10.055Zm0 0"/><path fill="#4b2e2c" d="m48.598 241.066 9.293 12.407-15.754-8.832Zm0 0"/><path fill="#4a6946" d="m42.906 234.586 5.692 6.48-6.461 3.575Zm0 0"/><path fill="#f6c5b4" d="m50.355 235.031-1.757 6.035-5.692-6.48Zm0 0"/><path fill="#f6c5b4" d="m66.969 239.625-18.371 1.441 1.757-6.035Zm0 0"/><path fill="#f5c4b3" d="m48.598 241.066 18.37-1.441-9.077 13.848Zm0 0"/><path fill="#4d3119" d="m79.23 263.785-11.976 5.594 2.71-10.797Zm0 0"/><path fill="#4a2d2b" d="m95.555 250.586-8.082-10.238 15.285-4.977Zm0 0"/><path fill="#4a2d27" d="m102.758 235.371-15.285 4.977-7.922-11.243Zm0 0"/><path fill="#9db380" d="m166.453 194.414-35.297-7.394 26.074-7.168Zm0 0"/><path fill="#9c440c" d="m166.453 194.414-8.578 22.602-27.715-5.567Zm0 0"/><path fill="#9c4b12" d="m131.156 187.02 35.297 7.394-36.293 17.035Zm0 0"/><path fill="#9b3800" d="m133.992 243.656-17.953-2.836 17.266-7.43Zm0 0"/><path fill="#9daf7b" d="m191.367 167.457 12.653 3.496-12.536 15.703Zm0 0"/><path fill="#9dac78" d="m191.367 167.457 6.91-5.504 5.743 9Zm0 0"/><path fill="#4a714a" d="m198.277 161.953-6.91 5.504-20.922-30.914Zm0 0"/><path fill="#9db380" d="m131.156 187.02-1.433-2.633 27.507-4.535Zm0 0"/><path fill="#4a7049" d="m129.723 184.387 20.265-21.985 7.242 17.45ZM35.434 154.691l-3.637 35.66L0 191.735Zm0 0"/><path fill="#4a7049" d="m59.586 179.11-27.79 11.242 3.638-35.66Zm0 0"/><path fill="#f5c5b3" d="m31.797 190.352 27.789-11.243-22.54 16.18Zm0 0"/><path fill="#9c4e16" d="m65.734 190.43 10.98-10.746 6.083 21.074Zm0 0"/><path fill="#9c3a01" d="m61.004 207.145 4.73-16.715 17.063 10.328Zm0 0"/><path fill="#f6c5b4" d="m37.047 195.29 28.687-4.86-4.73 16.715Zm0 0"/><path fill="#9c4810" d="m65.734 190.43-6.148-11.32 17.129.574Zm0 0"/><path fill="#f5c4b2" d="m59.586 179.11 6.148 11.32-28.687 4.86Zm0 0"/><path fill="#9da673" d="m319.496 157.477-1.933 17.824-13.813-3.219Zm0 0"/><path fill="#9dab78" d="m317.563 175.3 1.933-17.823 10.527 12.195Zm0 0"/><path fill="#9c5b24" d="m284.188 133.676-17.82 1.539L283.054 120Zm0 0"/><path fill="#9c3a01" d="m282.305 175.27 11.87-16.95 9.575 13.762Zm0 0"/><path fill="#9c4f17" d="m294.176 158.32-11.871 16.95-8.246-23.512Zm0 0"/><path fill="#4a7049" d="M333.336 33.898 332.39 0H384ZM384 76.73l-50.664-42.832L384 0Zm0 0"/><path fill="#4a7049" d="M333.336 33.898 384 76.73l-53.21 2.118Zm0 0"/><path fill="#4c2d2a" d="m131.875 384 9.586-36.129 25.168 9.102Zm0 0"/><path fill="#4a2d2b" d="m63.96 310.332 12.06 19.477-31 12.304ZM91.73 330.11l13.098-4.258-.285 11.03Zm0 0"/><path fill="#9db27f" d="m227.121 167.324 6.55 23.031-22.683-10.656Zm0 0"/><path fill="#9db17e" d="m227.121 167.324 28.848 5.215-22.297 17.816Zm0 0"/><path fill="#4a714a" d="m211.7 130.719-1.731 26.758-8.91-5.59Zm0 0"/><path fill="#9da26e" d="m250.254 152.418 5.715 20.121-28.848-5.215Zm0 0"/><path fill="#4a3005" d="M159.48 299.008 178.016 289l4.668 16.566Zm0 0"/><path fill="#edbaa6" d="m160.723 278.148-1.243 20.86-19.152-12.957Zm0 0"/><path fill="#a1663f" d="m159.48 299.008 1.243-20.86L178.016 289Zm0 0"/><path fill="#eebdaa" d="m200.328 302.965-8.223-6.559 7.454-7.738Zm0 0"/><path fill="#b89073" d="m179.809 278.516-19.086-.368 9.066-9.343Zm0 0"/><path fill="#4a3008" d="m160.723 278.148 19.086.368L178.016 289Zm0 0"/><path fill="#4a2f11" d="m125.04 275.379 8.304-.184-4.473 10.348Zm0 0"/><path fill="#f3c2b0" d="m133.344 275.195-8.305.184 1.234-7Zm0 0"/><path fill="#f3c2b1" d="m125.04 275.379-4.59-2.29 5.823-4.71Zm0 0"/><path fill="#f2c1af" d="m136.168 265.66-2.824 9.535-7.07-6.816Zm0 0"/><path fill="#f6c5b4" d="m136.168 265.66-2.094-11.941 12.446 4.418Zm0 0"/><path fill="#f0c0ae" d="m160.723 278.148-2.192-9.164 11.258-.18Zm0 0"/><path fill="#f6c5b4" d="m158.531 268.984 8.09-10.257 3.168 10.078Zm0 0"/><path fill="#ecbca9" d="m166.621 258.727-8.09 10.257-12.011-10.847Zm0 0"/><path fill="#9c5e27" d="m233.672 190.355 14.504 18.461L220.53 218Zm0 0"/><path fill="#9c3b02" d="m248.176 208.816-.934 26.52L220.532 218Zm0 0"/><path fill="#9b3c03" d="m247.242 235.336.934-26.52 20.207 15.461Zm0 0"/><path fill="#9c3d04" d="m248.176 208.816 26.09 6.852-5.883 8.61Zm0 0"/><path fill="#9da672" d="m227.121 167.324-23.101 3.63 5.949-13.477Zm0 0"/><path fill="#9da36f" d="m204.02 170.953 23.101-3.629-16.133 12.375Zm0 0"/><path fill="#9c3f06" d="m187.457 219.996-21.004-25.582 35.043 4.313Zm0 0"/><path fill="#4a2d2b" d="M341.145 266.273 384 244.703v63.758Zm0 0"/><path fill="#4a7049" d="m358.8 243.98 4.887-20.843L384 244.703Zm0 0"/><path fill="#f5c4b3" d="m243.266 274.82.05-16.726 12.012 2.12Zm0 0"/><path fill="#9fb17e" d="m243.316 258.094 10.137-8.489 1.875 10.61Zm0 0"/><path fill="#9db380" d="m253.453 249.605 12.57-8.046 6.832 13.207Zm0 0"/><path fill="#4a3100" d="m266.023 241.559-18.78-6.223 21.14-11.059Zm0 0"/><path fill="#4a3000" d="m266.023 241.559-12.57 8.046-6.21-14.27Zm0 0"/><path fill="#9da06c" d="m300.137 219.75-7.305-7.781 18.602-18.344Zm0 0"/><path fill="#9db27f" d="m308.121 247.89-7.984-28.14 19.691 3.695Zm0 0"/><path fill="#9fab78" d="m286.805 256.54 1.41-14.813 6.348 10.64Zm0 0"/><path fill="#9db27f" d="m288.215 241.727-1.41 14.812-13.95-1.773Zm0 0"/><path fill="#4e3101" d="m243.266 274.82 27.742.235-27.793 9.336Zm0 0"/><path fill="#b77c51" d="m271.008 275.055-27.742-.235 12.062-14.605Zm0 0"/><path fill="#4b2d26" d="m259.172 356.207-50.965 27.785 25.227-45.082Zm0 0"/><path fill="#4a2d2b" d="m285.016 356.352-25.844-.145 14.578-23.367Zm0 0"/><path fill="#4c2d28" d="m340.781 226.422 7.067 4.488-10.16 8.09Zm0 0"/><path fill="#4a2d2b" d="m347.848 230.91-7.067-4.488 5.785-15.629ZM384 308.46V384l-35.71-58.086ZM384 384h-62.29l26.58-58.086ZM321.71 384l-13.698-60.234 40.277 2.148Zm0 0"/><path fill="#b97955" d="m273.75 332.84-12.973-29.184 42.446-9.172Zm0 0"/><path fill="#9c3a01" d="m273.75 332.84 29.473-38.356 4.789 29.282Zm0 0"/><path fill="#55301a" d="m259.172 356.207-9.582-29.84 24.16 6.473Zm0 0"/><path fill="#834717" d="m249.59 326.367 11.187-22.71 12.973 29.183Zm0 0"/><path fill="#4a714a" d="m232.684 91.309 18.187 16.23-11.785 29.02Zm0 0"/><path fill="#4a704a" d="m250.871 107.54-.574 25.194-11.211 3.825Zm0 0"/><path fill="#9d3e07" d="m260.777 303.656-19.738-16.34 2.176-2.925Zm0 0"/><path fill="#994410" d="m260.777 303.656-21.695 2.992 1.957-19.332Zm0 0"/><path fill="#edb9a4" d="m239.082 306.648 21.695-2.992-25.332 17.301Zm0 0"/><path fill="#9e4915" d="m260.777 303.656-11.187 22.711-14.145-5.41Zm0 0"/><path fill="#f4c3b1" d="m239.082 306.648-3.637 14.309-18.304-13.121Zm0 0"/><path fill="#503504" d="m203.223 302.879-2.895.086-.77-14.297Zm0 0"/><path fill="#4a3003" d="m203.223 302.879 20.632-16.664-6.714 21.62Zm0 0"/><path fill="#b86d43" d="m223.855 286.215-20.632 16.664-3.664-14.211Zm0 0"/><path fill="#b15f30" d="m199.223 320.113 4-17.234 13.918 4.957Zm0 0"/><path fill="#a0430d" d="m203.223 302.879-4 17.234 1.105-17.148Zm0 0"/><path fill="#4a2d2b" d="m55.887 287.207 19.281-.27-11.207 23.395Zm0 0"/><path fill="#9c3900" d="m107.746 203.246 22.414 8.203-24.988 7.582Zm0 0"/><path fill="#9c430b" d="M107.746 203.246 95.43 180.703l34.293 3.684Zm0 0"/><path fill="#9c733d" d="m131.156 187.02-23.41 16.226 21.977-18.86Zm0 0"/><path fill="#9c3d05" d="m107.746 203.246 23.41-16.226-.996 24.43Zm0 0"/><path fill="#4a2d2b" d="m0 245.36 30.406 54.566L0 318.226Zm0 0"/><path fill="#4a2d2b" d="m0 318.227 30.406-18.301 14.614 42.187ZM24.89 242.46l13.97 25.821L0 245.36Zm0 0"/><path fill="#4a2d2b" d="m38.86 268.281-8.454 31.645L0 245.359Zm0 0"/><path fill="#4a2d2b" d="m67.254 269.379-11.367 17.828-17.028-18.926Zm0 0"/><path fill="#4a2d2b" d="m38.86 268.281 17.027 18.926-25.48 12.719ZM76.02 329.809l15.71.3-4.515 25.637Zm0 0"/><path fill="#4a2d2b" d="m45.02 342.113 31-12.304 11.195 25.937ZM86.313 315.629l-10.293 14.18-12.06-19.477Zm0 0"/><path fill="#4a2d2b" d="m76.02 329.809 10.293-14.18 5.417 14.48Zm0 0"/><path fill="#a74e1a" d="m105.406 283.066 7.11 16.278-20.598-3.668Zm0 0"/><path fill="#4a2d2c" d="m87.473 240.348-9.657 2.539 1.735-13.782Zm0 0"/><path fill="#f6c5b4" d="m66.969 239.625 10.847 3.262-7.851 15.695Zm0 0"/><path fill="#4a2d2b" d="m77.816 242.887-10.847-3.262 12.582-10.52Zm0 0"/><path fill="#9db380" d="m166.453 194.414 6.102-19.41 18.93 11.652Zm0 0"/><path fill="#9daf7c" d="m172.555 175.004 18.812-7.547.117 19.2Zm0 0"/><path fill="#9db380" d="m157.23 179.852 15.325-4.848-6.102 19.41Zm0 0"/><path fill="#4a714a" d="m191.367 167.457-23.363-1.93 2.441-28.984Zm0 0"/><path fill="#4a714a" d="m170.445 136.543-2.441 28.984-18.016-3.125Zm0 0"/><path fill="#4a7049" d="m172.555 175.004-4.551-9.477 23.363 1.93Zm0 0"/><path fill="#4a714a" d="m168.004 165.527-10.774 14.325-7.242-17.45Zm0 0"/><path fill="#4a7049" d="m168.004 165.527 4.55 9.477-15.324 4.848ZM76.703 149.355 59.586 179.11l-24.152-24.418ZM59.586 179.11l17.117-29.755.012 30.329Zm0 0"/><path fill="#4a704a" d="m76.703 149.355 18.727 31.348-18.715-1.02Zm0 0"/><path fill="#9d9460" d="m300.137 219.75-19.606 11.48 12.301-19.261Zm0 0"/><path fill="#9c3900" d="m280.531 231.23-6.265-15.562 18.566-3.7ZM274.266 215.668l6.265 15.562-12.148-6.953Zm0 0"/><path fill="#9c3a01" d="m269.625 192.98-13.656-20.44 26.336 2.73Zm0 0"/><path fill="#9c3b02" d="m274.266 215.668-4.641-22.688 23.207 18.989Zm0 0"/><path fill="#9c652e" d="m255.969 172.54 13.656 20.44-35.953-2.625Zm0 0"/><path fill="#9c3a01" d="m269.625 192.98 12.68-17.71 6.183 10.414Zm0 0"/><path fill="#9c3c03" d="m292.832 211.969-23.207-18.989 18.863-7.296Zm0 0"/><path fill="#9d7d47" d="m269.625 192.98-21.45 15.836-14.503-18.46Zm0 0"/><path fill="#9c3a01" d="m248.176 208.816 21.449-15.836 4.64 22.688Zm0 0"/><path fill="#4a7049" d="m361.523 178.016-4.984-16.176L384 163.43Zm0 0"/><path fill="#9dad7a" d="m329.512 193.473-11.95-18.172 12.461-5.63Zm0 0"/><path fill="#4a7049" d="m316.05 116.805 14.74-37.957 18.339 46.824Zm0 0"/><path fill="#9dae7b" d="m310.21 152.547 9.286 4.93-15.746 14.605Zm0 0"/><path fill="#9c3a01" d="m294.176 158.32 16.035-5.773-6.461 19.535Zm0 0"/><path fill="#9c3900" d="m295.258 143.066 1.086-16.175 10.496 8.566Zm0 0"/><path fill="#9c3b02" d="m310.21 152.547-14.952-9.48 11.582-7.61Zm0 0"/><path fill="#9c3a01" d="m295.258 143.066 14.953 9.48-16.035 5.774Zm0 0"/><path fill="#4a2d2b" d="m104.543 336.883 14.707 12.16-32.035 6.703Zm0 0"/><path fill="#4b2d2b" d="M119.25 349.043 131.875 384l-44.66-28.254Zm0 0"/><path fill="#4c2d2a" d="m131.875 384-12.625-34.957 22.21-1.172Zm0 0"/><path fill="#4a2d28" d="m164.336 336.508 12.469.469-10.176 19.996Zm0 0"/><path fill="#9db380" d="m209.969 157.477 14.71-10.055 2.442 19.902ZM224.68 147.422l25.574 4.996-23.133 14.906Zm0 0"/><path fill="#9db380" d="m250.254 152.418-25.574-4.996 14.406-10.863Zm0 0"/><path fill="#4a714a" d="m224.68 147.422-12.98-16.703 27.386 5.84ZM224.68 147.422l-14.711 10.055 1.73-26.758Zm0 0"/><path fill="#4f3507" d="m120.45 273.09-1.985 14-7.93-14.426Zm0 0"/><path fill="#9c3e06" d="m105.406 283.066 13.059 4.024-5.95 12.254Zm0 0"/><path fill="#4a3105" d="m125.04 275.379-6.575 11.71 1.984-14Zm0 0"/><path fill="#efbeab" d="m110.535 272.664 7.93 14.426-13.059-4.024Zm0 0"/><path fill="#f6c5b4" d="m129.754 255.309 6.414 10.351-9.895 2.719ZM136.168 265.66l-6.414-10.351 4.32-1.59Zm0 0"/><path fill="#4a3100" d="m133.992 243.656 32.63 15.07-20.102-.59Zm0 0"/><path fill="#4a3000" d="m134.074 253.719-.082-10.063 12.528 14.48Zm0 0"/><path fill="#4a3000" d="m166.621 258.727-32.629-15.07 31.828-.169Zm0 0"/><path fill="#9b3900" d="m165.82 243.488-31.828.168-.687-10.265Zm0 0"/><path fill="#4a3008" d="m179.809 278.516 5.558 9.168-7.351 1.316Zm0 0"/><path fill="#f2c0ad" d="m192.105 296.406-6.738-8.722 14.192.984Zm0 0"/><path fill="#4a3102" d="m178.016 289 7.351-1.316-2.683 17.882Zm0 0"/><path fill="#4d3305" d="m185.367 287.684 6.738 8.722-9.421 9.16Zm0 0"/><path fill="#f4c2b0" d="m142.484 328.008 9.743-7.992 2.777 8Zm0 0"/><path fill="#f3c1af" d="m125.422 315.14.066-13.745 21.535 1.59Zm0 0"/><path fill="#9c4b13" d="m112.516 299.344 12.906 15.797-25.957-3.329Zm0 0"/><path fill="#f6c5b4" d="m158.531 268.984-13.347 6.043 1.336-16.89ZM145.184 275.027l-9.016-9.367 10.352-7.523Zm0 0"/><path fill="#f1c0ad" d="m136.168 265.66 9.016 9.367-11.84.168Zm0 0"/><path fill="#f4c3b1" d="m145.184 275.027 13.347-6.043 2.192 9.164Zm0 0"/><path fill="#9c3900" d="m204.383 259.355 2.664-15.078 20.312 14.356ZM207.047 244.277l-2.664 15.078-17.54-11.41Zm0 0"/><path fill="#9c460d" d="m207.047 244.277-20.203 3.668.613-27.949Zm0 0"/><path fill="#9c3b02" d="m220.531 218-13.484 26.277-19.59-24.28Zm0 0"/><path fill="#9c430a" d="m187.457 219.996-29.582-2.98 8.578-22.602Zm0 0"/><path fill="#9c3a01" d="m157.875 217.016 29.582 2.98-21.637 23.492Zm0 0"/><path fill="#9c3900" d="m157.875 217.016 7.945 26.472-32.515-10.097Zm0 0"/><path fill="#9a3b04" d="m321.992 309.383 8.676-47.992 10.477 4.882Zm0 0"/><path fill="#4a2d2a" d="M341.145 266.273 358.8 243.98l25.199.723Zm0 0"/><path fill="#f5c4b2" d="m233.086 267.008 10.18 7.812-13.27.88Zm0 0"/><path fill="#f6c5b3" d="m233.086 267.008 10.23-8.914-.05 16.726Zm0 0"/><path fill="#4a3000" d="m253.453 249.605-11.39 2.528 5.18-16.797Zm0 0"/><path fill="#9eac79" d="m243.316 258.094-1.254-5.961 11.391-2.528Zm0 0"/><path fill="#f5c5b3" d="m308.121 247.89-5.691 19.473-7.868-14.996Zm0 0"/><path fill="#9eaf7c" d="m288.215 241.727 19.906 6.164-13.558 4.476Zm0 0"/><path fill="#9eb27f" d="m308.121 247.89-19.906-6.163 11.922-21.977Zm0 0"/><path fill="#9da774" d="m288.215 241.727-7.684-10.497 19.606-11.48Zm0 0"/><path fill="#9db380" d="m319.828 223.445-19.691-3.695 11.297-26.125Zm0 0"/><path fill="#55340f" d="m271.008 275.055 31.422-7.692.793 27.121Zm0 0"/><path fill="#f6c5b4" d="m286.805 256.54 15.625 10.823-31.422 7.692Zm0 0"/><path fill="#f1c2af" d="m302.43 267.363-15.625-10.824 7.757-4.172Zm0 0"/><path fill="#f6c5b4" d="m272.855 254.766-1.847 20.289-15.68-14.84Zm0 0"/><path fill="#ba9176" d="m286.805 256.54-15.797 18.515 1.847-20.29Zm0 0"/><path fill="#9c3901" d="m337.688 239-17.86-15.555 20.953 2.977Zm0 0"/><path fill="#4a2d2b" d="m271.184 384-12.012-27.793 25.844.145Zm0 0"/><path fill="#4b2d2b" d="m321.992 309.383 26.297 16.531-40.277-2.148Zm0 0"/><path fill="#4a2e2b" d="m341.145 266.273 7.144 59.641-26.297-16.531Zm0 0"/><path fill="#4a2d2b" d="m384 308.46-35.71 17.454-7.145-59.64Zm0 0"/><path fill="#9db380" d="m250.254 152.418 16.113-17.203 7.692 16.543Zm0 0"/><path fill="#9db27f" d="m255.969 172.54-5.715-20.122 23.805-.66Zm0 0"/><path fill="#9d9661" d="m250.254 152.418.043-19.684 16.07 2.48Zm0 0"/><path fill="#9db380" d="m250.297 132.734-.043 19.684-11.168-15.86Zm0 0"/><path fill="#a84c18" d="M294.879 116.473 287.535 106l21.649-7.246Zm0 0"/><path fill="#9a3901" d="m294.879 116.473 21.172.332-19.707 10.086Zm0 0"/><path fill="#9c3901" d="m296.344 126.89 19.707-10.085-9.211 18.652Zm0 0"/><path fill="#9b3900" d="m316.05 116.805 2.864 14.386-12.074 4.266Zm0 0"/><path fill="#d49778" d="m218.605 324.852 16.84-3.895-2.011 17.953Zm0 0"/><path fill="#843905" d="m198.742 338.695 19.863-13.843 14.829 14.058Zm0 0"/><path fill="#bb7851" d="m199.223 320.113 19.382 4.739-19.863 13.843Zm0 0"/><path fill="#4d3010" d="m218.605 324.852-19.382-4.739 17.918-12.277Zm0 0"/><path fill="#573616" d="m235.445 320.957-16.84 3.895-1.464-17.016Zm0 0"/><path fill="#703910" d="m176.805 336.977 7.242-12.157 13.332 16.715Zm0 0"/><path fill="#7b3806" d="m197.379 341.535-13.332-16.715 14.695 13.875Zm0 0"/><path fill="#ebb8a4" d="m184.047 324.82 15.176-4.707-.48 18.582Zm0 0"/><path fill="#f4c2b1" d="m91.918 295.676-7.762-19.012 21.25 6.402Zm0 0"/><path fill="#714f45" d="m75.168 286.938 8.988-10.274 7.762 19.012Zm0 0"/><path fill="#f4c2b0" d="m112.516 299.344-13.051 12.469-7.547-16.137Zm0 0"/><path fill="#4a2d2b" d="m95.402 320.531 9.426 5.32-13.098 4.258Zm0 0"/><path fill="#4a2d2b" d="m86.313 315.629 9.09 4.902-3.673 9.578Zm0 0"/><path fill="#875a47" d="m104.828 325.852-9.426-5.32 4.063-8.72Zm0 0"/><path fill="#eebca8" d="m99.465 311.813-4.063 8.718-9.09-4.902Zm0 0"/><path fill="#f3c3b1" d="m114.219 264.059-3.684 8.605-20.605-7.004Zm0 0"/><path fill="#f2c2b0" d="m102.215 257.3 12.004 6.759-24.29 1.601Zm0 0"/><path fill="#492d2b" d="m106.332 251.633-10.777-1.047 7.203-15.215Zm0 0"/><path fill="#f6c5b4" d="m106.332 251.633-4.117 5.668-6.66-6.715Zm0 0"/><path fill="#f6c5b4" d="m102.215 257.3 4.117-5.667 7.887 12.426Zm0 0"/><path fill="#4a2d2b" d="m84.602 247.543-6.786-4.656 9.657-2.54Zm0 0"/><path fill="#4a2d2a" d="m84.602 247.543 2.87-7.195 8.083 10.238Zm0 0"/><path fill="#f6c5b4" d="m84.602 247.543-5.372 16.242-9.265-5.203ZM77.816 242.887l6.786 4.656-14.637 11.039Zm0 0"/><path fill="#9b3900" d="m186.844 247.945-20.223 10.782-.8-15.239Zm0 0"/><path fill="#9c430a" d="m187.457 219.996-.613 27.95-21.024-4.458Zm0 0"/><path fill="#f3c1ae" d="m224.809 267.074-20.426-7.719 22.976-.722Zm0 0"/><path fill="#4a2f0c" d="m185.367 287.684 15.852-10.125-1.66 11.109Zm0 0"/><path fill="#4a3009" d="m201.219 277.559-15.852 10.125-5.558-9.168Zm0 0"/><path fill="#9c3e05" d="m319.496 157.477 17.742-.485-7.215 12.68Zm0 0"/><path fill="#4a7049" d="m337.238 156.992 11.89-31.32 7.411 36.168Zm0 0"/><path fill="#9da471" d="m318.914 131.191 4.774 14.157-16.848-9.891Zm0 0"/><path fill="#9daf7c" d="m329.512 193.473-9.684 29.972-8.394-29.82Zm0 0"/><path fill="#9c3900" d="m329.512 193.473 17.054 17.32-5.785 15.629Zm0 0"/><path fill="#9c3900" d="m319.828 223.445 9.684-29.972 11.27 32.949Zm0 0"/><path fill="#9db380" d="m329.512 193.473-18.078.152 6.128-18.324Zm0 0"/><path fill="#9d9864" d="m303.75 172.082 7.684 21.543-9.7-3.402Zm0 0"/><path fill="#9dad79" d="m317.563 175.3-6.13 18.325-7.683-21.543Zm0 0"/><path fill="#4a7049" d="m347.137 175.227 9.402-13.387 4.984 16.176Zm0 0"/><path fill="#9c3b02" d="m347.137 175.227-17.625 18.246.511-23.801Zm0 0"/><path fill="#9c3f07" d="m337.238 156.992 9.899 18.235-17.114-5.555Zm0 0"/><path fill="#497049" d="m347.137 175.227-9.899-18.235 19.301 4.848Zm0 0"/><path fill="#9c480f" d="m274.059 151.758 21.199-8.692-1.082 15.254Zm0 0"/><path fill="#9d824c" d="m295.258 143.066-11.07-9.39 12.156-6.785Zm0 0"/><path fill="#4a2d2a" d="m104.828 325.852 10.668 3.968-10.953 7.063Zm0 0"/><path fill="#4a2d2b" d="m115.496 329.82 3.754 19.223-14.707-12.16Zm0 0"/><path fill="#f3c2b0" d="m164.926 327.914-.59 8.594-9.332-8.492Zm0 0"/><path fill="#4a2d2b" d="m142.484 328.008 10.512 10-11.535 9.863Zm0 0"/><path fill="#4a2d2b" d="m141.46 347.871 11.536-9.863 13.633 18.965Zm0 0"/><path fill="#4a2d2a" d="m152.996 338.008 11.34-1.5 2.293 20.465Zm0 0"/><path fill="#61370c" d="m164.336 336.508-11.34 1.5 2.008-9.992Zm0 0"/><path fill="#924410" d="m152.996 338.008-10.512-10 12.52.008Zm0 0"/><path fill="#4a2e19" d="m118.465 287.09 6.574-11.711 3.832 10.164Zm0 0"/><path fill="#984009" d="m118.465 287.09 5.574 14.48-11.523-2.226Zm0 0"/><path fill="#f4c3b1" d="m125.488 301.395-7.023-14.305 10.406-1.547Zm0 0"/><path fill="#d99d81" d="m124.04 301.57-5.575-14.48 7.023 14.305Zm0 0"/><path fill="#f6c5b4" d="m106.332 251.633 12.371 1.445-4.484 10.98Zm0 0"/><path fill="#f5c5b3" d="m120.45 273.09-6.231-9.031 12.054 4.32Zm0 0"/><path fill="#f6c5b4" d="m114.219 264.059 15.535-8.75-3.48 13.07Zm0 0"/><path fill="#f5c4b2" d="m114.219 264.059 4.484-10.98 11.05 2.23Zm0 0"/><path fill="#4a3002" d="m118.703 253.078 15.29-9.422-4.24 11.653Zm0 0"/><path fill="#4a3003" d="m133.992 243.656-15.289 9.422-2.664-12.258Zm0 0"/><path fill="#4a3001" d="m129.754 255.309 4.238-11.653.082 10.063Zm0 0"/><path fill="#4a3007" d="m158.566 305.691.914-6.683 23.204 6.558Zm0 0"/><path fill="#4a3003" d="m158.566 305.691-11.543-2.707 12.457-3.976Zm0 0"/><path fill="#ecbaa5" d="m147.023 302.984 11.543 2.707-6.34 14.325Zm0 0"/><path fill="#f3c0ae" d="m140.55 319.566 1.934 8.442-18.12-8.45Zm0 0"/><path fill="#edb9a4" d="m140.55 319.566 11.677.45-9.743 7.992Zm0 0"/><path fill="#a86a38" d="m140.55 319.566 6.473-16.582 5.204 17.032Zm0 0"/><path fill="#c7835d" d="m125.422 315.14 15.129 4.426-16.188-.007Zm0 0"/><path fill="#a46531" d="m147.023 302.984-6.472 16.582-15.13-4.425Zm0 0"/><path fill="#e7b39d" d="m124.363 319.559-19.535 6.293-5.363-14.04Zm0 0"/><path fill="#aa612f" d="m125.422 315.14-1.059 4.419-24.898-7.747Zm0 0"/><path fill="#ca9980" d="m124.363 319.559-8.867 10.261-10.668-3.968Zm0 0"/><path fill="#4a3007" d="m140.328 286.05 4.856-11.023 15.539 3.121Zm0 0"/><path fill="#f5c4b3" d="m140.328 286.05-14.84 15.345 3.383-15.852Zm0 0"/><path fill="#4a2f14" d="m133.344 275.195 6.984 10.856-11.457-.508Zm0 0"/><path fill="#4a2f11" d="m145.184 275.027-4.856 11.024-6.984-10.856Zm0 0"/><path fill="#a37b66" d="m330.668 261.39 7.96-3.64 2.517 8.523Zm0 0"/><path fill="#a44611" d="m303.223 294.484 27.445-33.093-8.676 47.992Zm0 0"/><path fill="#913e0f" d="m302.43 267.363 28.238-5.972-27.445 33.093Zm0 0"/><path fill="#b56336" d="m303.223 294.484 18.77 14.899-13.981 14.383Zm0 0"/><path fill="#f6c5b3" d="m233.086 267.008-5.727-8.375 15.957-.54Zm0 0"/><path fill="#9e9b67" d="m227.36 258.633 14.702-6.5 1.254 5.96Zm0 0"/><path fill="#4b2e2c" d="m287.535 106-4.094 4.36-15.613-18.837Zm0 0"/><path fill="#9eb07d" d="m266.91 112.113 16.531-1.754-.386 9.641Zm0 0"/><path fill="#9eb07d" d="m283.441 110.36-16.53 1.753.917-20.59Zm0 0"/><path fill="#ba6d42" d="m283.441 110.36 4.094-4.36 7.344 10.473Zm0 0"/><path fill="#ad5625" d="m309.184 98.754 6.867 18.05-21.172-.331Zm0 0"/><path fill="#4a7049" d="m316.05 116.805-6.866-18.051 21.605-19.906Zm0 0"/><path fill="#eab6a0" d="m199.223 320.113-11.946-11.23 13.051-5.918Zm0 0"/><path fill="#503418" d="m187.277 308.883 11.946 11.23-15.176 4.707Zm0 0"/><path fill="#a18854" d="m187.277 308.883 4.828-12.477 8.223 6.559Zm0 0"/><path fill="#9e8853" d="m192.105 296.406-4.828 12.477-4.593-3.317Zm0 0"/><path fill="#55390e" d="m67.254 269.379 11.976-5.594 4.926 12.88Zm0 0"/><path fill="#f3c2b1" d="m67.254 269.379 16.902 7.285-8.988 10.274Zm0 0"/><path fill="#4b2e2c" d="m67.254 269.379 7.914 17.558-19.281.27Zm0 0"/><path fill="#563631" d="m99.465 311.813-16.406-6.704 8.859-9.433Zm0 0"/><path fill="#f3c2b0" d="m83.059 305.11 16.406 6.702-13.153 3.817Zm0 0"/><path fill="#4a2d2b" d="m75.168 286.938 7.89 18.171-19.097 5.223Zm0 0"/><path fill="#f2c0af" d="m83.059 305.11-7.891-18.173 16.75 8.739Zm0 0"/><path fill="#4b2d2b" d="m83.059 305.11 3.254 10.519-22.352-5.297Zm0 0"/><path fill="#4a2d26" d="m116.04 240.82 2.663 12.258-12.371-1.445Zm0 0"/><path fill="#4a2d21" d="m116.04 240.82-9.708 10.813-3.574-16.262Zm0 0"/><path fill="#f4c4b2" d="m84.602 247.543 5.328 18.117-10.7-1.875Zm0 0"/><path fill="#f6c5b4" d="m89.93 265.66-5.328-18.117 10.953 3.043Zm0 0"/><path fill="#f6c5b4" d="m102.215 257.3-12.285 8.36 5.625-15.074Zm0 0"/><path fill="#f4c3b1" d="m224.809 267.074 8.277-.066-3.09 8.691Zm0 0"/><path fill="#f6c5b4" d="m224.809 267.074 2.55-8.441 5.727 8.375Zm0 0"/><path fill="#4a2f0c" d="m201.219 277.559 28.777-1.86-6.14 10.516Zm0 0"/><path fill="#f4c2b0" d="m201.219 277.559 23.59-10.485 5.187 8.625Zm0 0"/><path fill="#4d3007" d="m201.219 277.559 22.636 8.656-24.296 2.453Zm0 0"/><path fill="#c5825f" d="m224.809 267.074-23.59 10.485 3.164-18.204Zm0 0"/><path fill="#f2c1b0" d="m185.746 260.191 15.473 17.368-21.41.957Zm0 0"/><path fill="#f6c5b3" d="m201.219 277.559-15.473-17.368 18.637-.836Zm0 0"/><path fill="#9d7857" d="m185.746 260.191-5.937 18.325-10.02-9.711Zm0 0"/><path fill="#f6c5b4" d="m166.621 258.727 19.125 1.464-15.957 8.614Zm0 0"/><path fill="#9c3900" d="m185.746 260.191-19.125-1.464 20.223-10.782ZM204.383 259.355l-18.637.836 1.098-12.246Zm0 0"/><path fill="#9c3f07" d="m323.688 145.348 13.55 11.644-17.742.485Zm0 0"/><path fill="#4a7049" d="m337.238 156.992-13.55-11.644 25.44-19.676Zm0 0"/><path fill="#4a7049" d="m349.129 125.672-25.442 19.676-4.773-14.157Zm0 0"/><path fill="#497049" d="m316.05 116.805 33.079 8.867-30.215 5.52Zm0 0"/><path fill="#9c3900" d="m347.137 175.227-.57 35.566-17.055-17.32Zm0 0"/><path fill="#497049" d="m346.566 210.793.57-35.566 14.387 2.789Zm0 0"/><path fill="#9c6029" d="m274.059 151.758 10.128-18.082 11.07 9.39Zm0 0"/><path fill="#4a2d2b" d="m115.496 329.82 16.07 4.97-12.316 14.253Zm0 0"/><path fill="#f3c2b0" d="m142.484 328.008-10.918 6.781-7.203-15.23Zm0 0"/><path fill="#4a2d2b" d="m119.25 349.043 12.316-14.254 9.895 13.082Zm0 0"/><path fill="#4b2d26" d="m131.566 334.79 10.918-6.782-1.023 19.863Zm0 0"/><path fill="#68360a" d="m172.426 331.148 11.62-6.328-7.241 12.157Zm0 0"/><path fill="#793e0a" d="m164.336 336.508 8.09-5.36 4.379 5.829Zm0 0"/><path fill="#d2a38b" d="m164.926 327.914 7.5 3.234-8.09 5.36Zm0 0"/><path fill="#f3c3b1" d="m114.219 264.059 6.23 9.03-9.914-.425Zm0 0"/><path fill="#f4c2b0" d="m112.516 299.344 11.523 2.226 1.383 13.57Zm0 0"/><path fill="#f3c1af" d="m125.422 315.14-1.383-13.57 1.45-.175Zm0 0"/><path fill="#9c3c03" d="m337.688 239-11.137 4.813-6.723-20.368Zm0 0"/><path fill="#9c3c03" d="m326.55 243.813-18.429 4.078 11.707-24.446Zm0 0"/><path fill="#f0beab" d="m338.629 257.75-12.078-13.937L337.688 239Zm0 0"/><path fill="#d8ab95" d="m326.55 243.813 12.079 13.937-7.961 3.64Zm0 0"/><path fill="#4a3000" d="m242.063 252.133-10.196-11.79 15.375-5.007Zm0 0"/><path fill="#9a3900" d="m227.36 258.633 4.507-18.29 10.196 11.79Zm0 0"/><path fill="#9c3a01" d="m247.242 235.336-15.375 5.008L220.531 218Zm0 0"/><path fill="#9c3900" d="m207.047 244.277 24.82-3.933-4.508 18.289Zm0 0"/><path fill="#9c6d36" d="m231.867 240.344-24.82 3.933L220.53 218Zm0 0"/><path fill="#4a3000" d="m280.531 231.23-14.508 10.329 2.36-17.282Zm0 0"/><path fill="#9eb380" d="m266.023 241.559 14.508-10.329-7.676 23.536Zm0 0"/><path fill="#9eb380" d="m280.531 231.23 7.684 10.497-15.36 13.039Zm0 0"/><path fill="#9f4710" d="m283.055 120 11.824-3.527 1.465 10.418Zm0 0"/><path fill="#b87448" d="m283.055 120 .386-9.64 11.438 6.113Zm0 0"/><path fill="#9d440c" d="M284.188 133.676 283.055 120l13.289 6.89Zm0 0"/><path fill="#4a2d21" d="m169.715 324.355 17.562-15.472-3.23 15.937Zm0 0"/><path fill="#e9b9a4" d="m172.426 331.148-2.711-6.793 14.332.465Zm0 0"/><path fill="#f1c0ae" d="m169.715 324.355 2.71 6.793-7.5-3.234Zm0 0"/><path fill="#4a2d22" d="m187.277 308.883-17.562 15.472 12.969-18.789Zm0 0"/><path fill="#9db17e" d="m314.828 148.89-4.617 3.657-3.371-17.09Zm0 0"/><path fill="#9da36f" d="m323.688 145.348-8.86 3.543-7.988-13.434Zm0 0"/><path fill="#9dae7b" d="m310.21 152.547 4.618-3.656 4.668 8.586Zm0 0"/><path fill="#9c3c03" d="m314.828 148.89 8.86-3.542-4.192 12.129Zm0 0"/><path fill="#9f7464" d="m124.363 319.559 7.203 15.23-16.07-4.969Zm0 0"/><path fill="#f2c3b0" d="m308.121 247.89 18.43-4.077 4.117 17.578Zm0 0"/><path fill="#e4bda5" d="m302.43 267.363 5.691-19.472 22.547 13.5Zm0 0"/><path fill="#f1c0ad" d="m160.531 321.813-1.965-16.122 24.118-.125Zm0 0"/><path fill="#4a2f15" d="m169.715 324.355-9.184-2.543 22.153-16.246Zm0 0"/><path fill="#f4c4b2" d="m160.531 321.813 9.184 2.542-4.79 3.56Zm0 0"/><path fill="#a86937" d="m158.566 305.691 1.965 16.122-8.304-1.797Zm0 0"/><path fill="#f4c3b1" d="m152.227 320.016 8.304 1.796-5.527 6.204Zm0 0"/><path fill="#f5c4b3" d="m160.531 321.813 4.395 6.101-9.922.102Zm0 0"/></svg>