<svg xmlns="http://www.w3.org/2000/svg" width="512" height="512" viewBox="0 0 384 384"><path fill="#1c2638" d="m153.156 66.707-55.02 19.98 9.028-44.976Zm0 0"/><path fill="#ef5054" d="m155.691 222.645-49.437 2.222 6.914-15.793Zm0 0"/><path fill="#1c2638" d="M42.64 148.605 0 136.665l46.23-30.333ZM56.09 52l-9.86 54.332L0 76.023ZM42.64 148.605l3.59-42.273 36.114 34.094Zm0 0"/><path fill="#1c2638" d="m46.23 106.332 51.907-19.644-15.793 53.738Zm0 0"/><path fill="#1c2638" d="M98.137 86.688 46.23 106.332 56.09 52ZM384 110.246l.004 91.594-18.36-29.074ZM107.164 41.71 80.922 0h77.351Zm0 0"/><path fill="#1c2638" d="M98.137 86.688 56.09 52l51.074-10.29Zm0 0"/><path fill="#1c2638" d="M56.09 52 80.922 0l26.242 41.71ZM143.262 116.469l9.894-49.762 53.64 35.25ZM98.137 86.688l45.125 29.78-60.918 23.958Zm0 0"/><path fill="#1c2638" d="m153.156 66.707-9.894 49.762-45.125-29.781ZM153.156 66.707l-45.992-24.996L158.274 0ZM312.281 0l-6.511 66.324-34.704-13.836Zm0 0"/><path fill="#1c2638" d="m291.555 84.266-20.489-31.778 34.704 13.836ZM80.922 0 56.09 52 0 0Zm0 0"/><path fill="#342536" d="m259.543 289.684-22.617 10.382-.668-25.707Zm0 0"/><path fill="#50303c" d="m236.926 300.066 22.617-10.382-6.8 25.668Zm0 0"/><path fill="#ee5255" d="m53.363 200.66-18.715 1.48 1.961-13.39Zm0 0"/><path fill="#1c2638" d="m34.648 202.14-2.933 25.235L.008 245.102ZM116.203 182.043l-14.797 1.473 1.914-12.328Zm0 0"/><path fill="#ef4f53" d="m155.691 222.645-17.8 19.585-31.637-17.363Zm0 0"/><path fill="#1c2638" d="m182.793 138.828-39.531-22.36 63.535-14.511Zm0 0"/><path fill="#1c2638" d="m208.566 139.664-25.773-.836 24.004-36.871ZM182.793 138.828l25.773.836-10.734 12.746ZM82.344 140.426l44.469 16.75-23.493 14.012Zm0 0"/><path fill="#1c2638" d="m143.262 116.469-16.45 40.707-44.468-16.75ZM0 136.664v-60.64l46.23 30.308ZM34.648 202.14l-12.488-9.156 14.45-4.234ZM22.16 192.984.008 245.102 0 182.372ZM.008 245.102l22.152-52.118 12.488 9.157ZM349.676 139.395l-12.403-33.364L384 110.246Zm0 0"/><path fill="#1c2638" d="m337.273 106.031 12.403 33.364-21.711-12.16ZM304.82 93.527l.95-27.203 33.09 4.102ZM337.273 106.031 304.82 93.527l34.04-23.101Zm0 0"/><path fill="#1c2638" d="m304.82 93.527-13.265-9.261 14.215-17.942Zm0 0"/><path fill="#1c2638" d="m291.555 84.266 13.265 9.261-5.93.645Zm0 0"/><path fill="#9fcfbd" d="m234.543 190.395-16.973 33.07-28.16-26.38Zm0 0"/><path fill="#a1cbbb" d="m189.41 197.086 28.16 26.379-27.28 3.617Zm0 0"/><path fill="#272536" d="m260.313 271.805-.77 17.879-23.285-15.325Zm0 0"/><path fill="#1c2638" d="M384.004 201.84 384 244.168l-13.379-20.879Zm0 0"/><path fill="#1c2738" d="m362.41 242.973-1.16-19.934 9.371.25Zm0 0"/><path fill="#1c2638" d="m384 244.168-21.59-1.195 8.211-19.684Zm0 0"/><path fill="#95dfcb" d="m309.82 345.66 36.297-11.328L317.141 384Zm0 0"/><path fill="#1c2638" d="m215.52 48.691 31.3 32.082-40.023 21.184ZM153.156 66.707l62.364-18.016-8.723 53.266ZM241.383 0h70.898l-41.215 52.488Zm0 0"/><path fill="#1c2638" d="m271.066 52.488 3.032 33.309-27.278-5.024ZM274.098 85.797l-3.032-33.309 20.489 31.778ZM0 76.023V0l56.09 52Zm0 0"/><path fill="#282637" d="m236.926 300.066-19.504-22.828 18.836-2.879Zm0 0"/><path fill="#94dfcb" d="m252.945 353.996-22.02-13.754 21.098-2.336Zm0 0"/><path fill="#3a2535" d="m230.574 328.918.352 11.324-36.774 2.563Zm0 0"/><path fill="#322535" d="m196.55 326.8 34.024 2.118-36.422 13.887Zm0 0"/><path fill="#72a9a0" d="m53.363 200.66 25.325 18.395-27.586.015Zm0 0"/><path fill="#80bcaf" d="M78.688 219.055 53.363 200.66l29.336 2.324Zm0 0"/><path fill="#7b232e" d="m78.688 219.055-2.657 9.996-24.93-9.98Zm0 0"/><path fill="#877472" d="m53.363 200.66-2.261 18.41-16.454-16.93Zm0 0"/><path fill="#1c2638" d="m51.102 219.07-19.387 8.305 2.933-25.234Zm0 0"/><path fill="#1c2638" d="m51.102 219.07-6.051 22.825-13.336-14.52Zm0 0"/><path fill="#922932" d="m60.828 258.676-15.777-16.781 21.695 9.753Zm0 0"/><path fill="#95deca" d="m45.05 241.895 15.778 16.78-18.258-5.706Zm0 0"/><path fill="#71232f" d="m78.688 219.055 12.832 14.02-15.489-4.024Zm0 0"/><path fill="#5d2b37" d="m60.828 258.676 17.594 7.875-8.047 11.652Zm0 0"/><path fill="#392535" d="m97.238 277.82-18.816-11.27 16.398.645Zm0 0"/><path fill="#1c2638" d="m126.813 157.176-10.61 24.867-12.883-10.856Zm0 0"/><path fill="#ef5054" d="m88.648 180.102 12.758 3.414-12.836 10.879Zm0 0"/><path fill="#1c2638" d="m88.648 180.102 14.672-8.915-1.914 12.329ZM337.273 106.031l1.586-35.605L384 110.246ZM361.25 223.04l2.586-19.384 6.785 19.633ZM384.004 201.84l-20.168 1.816 1.809-30.89Zm0 0"/><path fill="#1c2638" d="m370.621 223.29-6.785-19.634 20.168-1.816Zm0 0"/><path fill="#9ed0be" d="m305.426 215.566-12.063-6.867 8.145-21.937Zm0 0"/><path fill="#ed5356" d="m284.766 171.66 18.648-2.25-1.906 17.352Zm0 0"/><path fill="#95dfcb" d="m161.258 352.324 32.242 1.235L179.852 384Zm0 0"/><path fill="#95dfcb" d="m161.258 352.324 3.84-13.101 28.402 14.336ZM83.809 352.91l-9.903-29.789 13.64 5.36ZM83.809 352.91 62.789 384l-20.156-47.629ZM0 384v-74.75l42.633 27.121Zm0 0"/><path fill="#95dfcb" d="M42.633 336.371 62.789 384H0ZM42.633 336.371 0 309.25l39.531-15.148Zm0 0"/><path fill="#99d9c6" d="m269.086 158.176 15.68 13.484-28.293-2.082Zm0 0"/><path fill="#ed5256" d="m275.629 190.383 9.137-18.723 16.742 15.102Zm0 0"/><path fill="#a5c5b5" d="m275.629 190.383-19.156-20.805 28.293 2.082Zm0 0"/><path fill="#9cd3c1" d="m256.473 169.578 19.156 20.805-41.086.012Zm0 0"/><path fill="#ee5255" d="m248.57 211.715-9.644 31.137-21.356-19.387Zm0 0"/><path fill="#99d9c6" d="m201.238 161.21-11.828 35.876-5.957-18.59Zm0 0"/><path fill="#afb5a8" d="m169.574 194.887 19.836 2.199.88 29.996Zm0 0"/><path fill="#99d9c6" d="m189.41 197.086-19.836-2.2 13.88-16.39Zm0 0"/><path fill="#94dfcb" d="m384 316.71-28.164-25.44L384 275.39Zm0 0"/><path fill="#9fcab9" d="m247.98 253.77 17.438-11.72 1.559 14.032Zm0 0"/><path fill="#242537" d="m259.543 289.684.77-17.88 22.488 1.864Zm0 0"/><path fill="#9b272f" d="m345.453 260.457.926-24.773 8.422 11.558Zm0 0"/><path fill="#95dfcb" d="M230.926 340.242 193.5 353.56l.652-10.754ZM254.523 384l26.59-26.379L317.141 384Zm0 0"/><path fill="#d05557" d="m346.379 235.684 16.031 7.289-7.61 4.27Zm0 0"/><path fill="#bd7a76" d="m362.41 242.973-16.031-7.29 14.871-12.644Zm0 0"/><path fill="#95dfcb" d="M346.117 334.332 384 384h-66.86Zm0 0"/><path fill="#3d2535" d="m277.332 300.336-17.789-10.652 23.258-16.016Zm0 0"/><path fill="#402534" d="m259.543 289.684 17.789 10.652-24.59 15.016Zm0 0"/><path fill="#582936" d="m302.98 286.145-25.648 14.19 5.469-26.667Zm0 0"/><path fill="#392d3b" d="m290.008 315.223-12.676-14.887 25.648-14.191Zm0 0"/><path fill="#95dfcb" d="m291.684 331.668-10.57 25.953-16.329-19.8Zm0 0"/><path fill="#362636" d="m264.055 329.32 27.629 2.348-26.899 6.152Zm0 0"/><path fill="#372535" d="m290.008 315.223 1.676 16.445-27.63-2.348Zm0 0"/><path fill="#95dfcb" d="m281.113 357.621 28.707-11.96L317.14 384Zm0 0"/><path fill="#95dfcb" d="m291.684 331.668 18.136 13.992-28.707 11.961Zm0 0"/><path fill="#1c2638" d="M215.52 48.691 158.273 0h83.11ZM158.273 0l57.247 48.691-62.364 18.016Zm0 0"/><path fill="#1c2638" d="m246.82 80.773-31.3-32.082 55.546 3.797Zm0 0"/><path fill="#1c2638" d="M215.52 48.691 241.383 0l29.683 52.488ZM224.875 135.473l-18.078-33.516 32.41 34.953ZM270.258 99.398l-16.149 20.153 11.66-23.254Zm0 0"/><path fill="#97dcc8" d="m258.824 122.879 5.352 18.695-13.48-8.691Zm0 0"/><path fill="#1c2638" d="m254.11 119.55 4.714 3.329-8.129 10.004ZM258.824 122.879l11.434-23.48-5.801 14.628Zm0 0"/><path fill="#1c2738" d="m270.258 99.398-11.434 23.48-4.715-3.327Zm0 0"/><path fill="#1c2638" d="m206.797 101.957 18.078 33.516-16.309 4.191ZM254.11 119.55l-11.255-4.202 22.915-19.051ZM265.77 96.297l-22.915 19.05 3.965-34.574Zm0 0"/><path fill="#1c2638" d="m242.855 115.348-36.058-13.391 40.023-21.184Zm0 0"/><path fill="#c6918a" d="m285.988 93.598-11.89-7.801 17.457-1.531Zm0 0"/><path fill="#b9a69b" d="m285.988 93.598 5.567-9.332 7.336 9.906Zm0 0"/><path fill="#b4ada1" d="m274.098 85.797-3.84 13.601-4.488-3.101Zm0 0"/><path fill="#1c2638" d="m274.098 85.797-8.328 10.5-18.95-15.524Zm0 0"/><path fill="#e06767" d="m274.098 85.797 11.89 7.8-15.73 5.801Zm0 0"/><path fill="#312536" d="m201.617 307.262 15.805-30.024 7.719 35.82Zm0 0"/><path fill="#2e2636" d="m217.422 277.238 19.504 22.828-11.785 12.993Zm0 0"/><path fill="#362535" d="m230.574 328.918 22.168-13.566-.719 22.554Zm0 0"/><path fill="#2d2536" d="m230.926 340.242-.352-11.324 21.45 8.988Zm0 0"/><path fill="#b02d35" d="m106.254 224.867-14.734 8.207-12.832-14.02Zm0 0"/><path fill="#99d8c5" d="m71.844 179.45 16.726 14.945-5.87 8.59Zm0 0"/><path fill="#a0cdbc" d="m88.648 180.102-.078 14.293-16.726-14.946Zm0 0"/><path fill="#ef4f53" d="m113.168 209.074-30.469-6.09 5.871-8.59Zm0 0"/><path fill="#eb5659" d="m106.254 224.867-23.555-21.883 30.469 6.09Zm0 0"/><path fill="#ea585b" d="m82.7 202.984 23.554 21.883-27.567-5.812Zm0 0"/><path fill="#95dfcb" d="m0 309.25 21.688-33.937 17.843 18.789ZM0 265.324l21.688 9.988L0 309.25Zm0 0"/><path fill="#95dfcb" d="M61.184 304.73 39.53 294.102l30.844-15.899Zm0 0"/><path fill="#ee5154" d="m67.605 239.527-22.554 2.368 6.05-22.825Zm0 0"/><path fill="#1d2537" d="m76.031 229.05-8.426 10.477-16.503-20.457Zm0 0"/><path fill="#ed4e52" d="m45.05 241.895 22.555-2.368-.859 12.121Zm0 0"/><path fill="#95dfcb" d="m42.57 252.969-18.304-7.938 20.785-3.136ZM24.266 245.031l-2.578 30.281L0 265.325ZM24.266 245.031 0 265.324l.008-20.222Zm0 0"/><path fill="#1c2638" d="m31.715 227.375-7.45 17.656-24.257.07Zm0 0"/><path fill="#1c2638" d="m24.266 245.031 7.449-17.656 13.336 14.52Zm0 0"/><path fill="#97484b" d="m97.238 277.82 11.79 10.086-18.122.016Zm0 0"/><path fill="#892c35" d="m78.422 266.55-17.594-7.874 5.918-7.028Zm0 0"/><path fill="#1c2638" d="m101.18 250.129-16.696-9.57 7.036-7.485Zm0 0"/><path fill="#1c2537" d="m91.52 233.074-7.036 7.485-8.453-11.508Zm0 0"/><path fill="#9ed1bf" d="m153.793 193.305 3.7-13.504 12.081 15.086Zm0 0"/><path fill="#1c2638" d="m144.438 169.531 13.054 10.27-25.86 5.797Zm0 0"/><path fill="#e16666" d="m153.793 193.305-23.484-4.313 1.324-3.394Zm0 0"/><path fill="#98dac7" d="m157.492 179.8-3.699 13.505-22.16-7.707Zm0 0"/><path fill="#b3afa3" d="m153.793 193.305 1.898 29.34-42.523-13.57Zm0 0"/><path fill="#a3c9b8" d="m130.309 188.992 23.484 4.313-40.625 15.77Zm0 0"/><path fill="#96ddc9" d="m182.434 169.625 18.804-8.414-17.785 17.285Zm0 0"/><path fill="#1c2638" d="m182.434 169.625 15.398-17.215 3.406 8.8Zm0 0"/><path fill="#1c2638" d="m197.832 152.41-15.398 17.215.359-30.797ZM126.813 157.176l4.82 28.422-15.43-3.555Zm0 0"/><path fill="#1c2638" d="m144.438 169.531-12.805 16.067-4.82-28.422ZM27.14 171.383 0 182.37v-45.707ZM0 182.371l27.14-10.988-4.98 21.601Zm0 0"/><path fill="#1c2638" d="m42.64 148.605-15.5 22.778L0 136.664ZM22.16 192.984l4.98-21.601 9.47 17.367ZM55.547 180.469l-28.406-9.086 15.5-22.778Zm0 0"/><path fill="#1c2638" d="m27.14 171.383 28.407 9.086-18.938 8.281Zm0 0"/><path fill="#96dcc9" d="m57.45 189.617 14.394-10.168 10.855 23.535Zm0 0"/><path fill="#9ecdbc" d="m53.363 200.66 4.086-11.043 25.25 13.367Zm0 0"/><path fill="#e9595b" d="m36.61 188.75 20.84.867-4.087 11.043Zm0 0"/><path fill="#9ad6c4" d="m57.45 189.617-1.903-9.148 16.297-1.02Zm0 0"/><path fill="#cc8882" d="m55.547 180.469 1.902 9.148-20.84-.867Zm0 0"/><path fill="#ed5356" d="m280.496 213.398 12.867-4.699-7.562 12.606Zm0 0"/><path fill="#9ad7c4" d="m320.602 157.504-19.094 29.258 1.906-17.352Zm0 0"/><path fill="#95dfcb" d="m301.508 186.762 19.094-29.258 7.761 7.113Zm0 0"/><path fill="#95deca" d="m271.04 124.926-12.216-2.047 5.633-8.852Zm0 0"/><path fill="#b3b0a3" d="m258.824 122.879 12.215 2.047-6.863 16.648Zm0 0"/><path fill="#e56061" d="m294.266 148.582 9.148 20.828-18.648 2.25Zm0 0"/><path fill="#1c2638" d="m384 110.246-45.14-39.82L384 0Zm0 0"/><path fill="#1c2638" d="M338.86 70.426 312.28 0H384Zm0 0"/><path fill="#95dfcb" d="m146.48 360.8 14.778-8.476L179.852 384Zm0 0"/><path fill="#95dfcb" d="m146.48 360.8 1.301-21.843 13.477 13.367ZM146.48 360.8l33.372 23.2h-57.145Zm0 0"/><path fill="#95dfcb" d="m62.79 384 21.019-31.09L122.707 384ZM42.633 336.371l18.55-31.64 12.723 18.39Zm0 0"/><path fill="#95dfcb" d="m61.184 304.73-18.551 31.641-3.102-42.27Zm0 0"/><path fill="#f04f53" d="m234.543 190.395-8.125-19.833 12.262-9.289Zm0 0"/><path fill="#f04e52" d="m256.473 169.578-21.93 20.817 4.137-29.122Zm0 0"/><path fill="#97dcc8" d="m212.957 153.023 13.461 17.54-25.18-9.352Zm0 0"/><path fill="#1c2638" d="m212.957 153.023-11.719 8.188-3.406-8.8Zm0 0"/><path fill="#1c2638" d="m208.566 139.664 4.391 13.36-15.125-.614Zm0 0"/><path fill="#ef5054" d="m248.45 149.605 8.023 19.973-17.793-8.305Zm0 0"/><path fill="#292536" d="m150.852 301.57 26.144.465-6.586 12.457Zm0 0"/><path fill="#99706d" d="m150.852 301.57 4.98-22.12 21.164 22.585Zm0 0"/><path fill="#c09b92" d="m177.3 277.977-21.468 1.472 1.098-16.547Zm0 0"/><path fill="#1d2537" d="m155.832 279.45 21.469-1.473-.305 24.058Zm0 0"/><path fill="#d9706e" d="m129.102 277.531-7.586-4.785 6.968-3.082Zm0 0"/><path fill="#adb9ab" d="m157.473 258.406-.543 4.496-21.57-5.644Zm0 0"/><path fill="#98dac7" d="m234.543 190.395 14.027 21.32-31 11.75Zm0 0"/><path fill="#ef4f53" d="m248.57 211.715 31.926 1.683-15.984 16.54Zm0 0"/><path fill="#97dbc8" d="m217.195 179.898-27.785 17.188 11.828-35.875Zm0 0"/><path fill="#f04f53" d="m189.41 197.086 27.785-17.188 17.348 10.497Zm0 0"/><path fill="#9bd6c4" d="m226.418 170.563-9.223 9.335-15.957-18.687Zm0 0"/><path fill="#ed5256" d="m217.195 179.898 9.223-9.335 8.125 19.832Zm0 0"/><path fill="#a7c3b3" d="m155.691 222.645 13.883-27.758 20.715 32.195Zm0 0"/><path fill="#94363c" d="m326.227 306.383-9.309-4.711 16.867-19.719Zm0 0"/><path fill="#95dfcb" d="m355.836 291.27-29.61 15.113 7.56-24.43Zm0 0"/><path fill="#94dfcb" d="m355.836 291.27-22.05-9.317 11.667-21.496Zm0 0"/><path fill="#95dfcb" d="m362.41 242.973 2.684 17.007-10.293-12.738Zm0 0"/><path fill="#95dfcb" d="m384 275.39-18.906-15.41L384 244.168Zm0 0"/><path fill="#95dfcb" d="m365.094 259.98-2.684-17.007 21.59 1.195Zm0 0"/><path fill="#d27f7b" d="M260.313 271.805 247.98 253.77l18.997 2.312Zm0 0"/><path fill="#5d2331" d="m247.98 253.77 16.532-23.833.906 12.114Zm0 0"/><path fill="#f04f53" d="m248.57 211.715 15.942 18.222-25.586 12.915Zm0 0"/><path fill="#622330" d="M264.512 229.938 247.98 253.77l-9.054-10.918Zm0 0"/><path fill="#96ddca" d="m293.363 208.7 12.063 6.866-19.625 5.739Zm0 0"/><path fill="#97dbc8" d="m265.418 242.05 16.648 3.204-15.09 10.828Zm0 0"/><path fill="#96ddca" d="m284.379 254.277-2.313-9.023 21.329 5.32Zm0 0"/><path fill="#97dbc8" d="m282.066 245.254 2.313 9.023-17.402 1.805Zm0 0"/><path fill="#1e293a" d="m345.293 213.055 18.543-9.399-2.586 19.383Zm0 0"/><path fill="#95dfcb" d="M230.719 363.395 254.523 384h-74.671Zm0 0"/><path fill="#95dfcb" d="m254.523 384-23.804-20.605 22.226-9.399Zm0 0"/><path fill="#95dfcb" d="m230.719 363.395.207-23.153 22.02 13.754Zm0 0"/><path fill="#95dfcb" d="m230.719 363.395-37.219-9.836 37.426-13.317ZM230.719 363.395 179.852 384l13.648-30.441ZM281.113 357.621 254.523 384l-1.578-30.004Zm0 0"/><path fill="#95dfcb" d="m281.113 357.621-28.168-3.625 11.84-16.176Zm0 0"/><path fill="#9f262e" d="m346.379 235.684-1.086-22.63 15.957 9.985Zm0 0"/><path fill="#95dfcb" d="M384 316.71V384l-37.883-49.668Zm0 0"/><path fill="#94dfcb" d="m316.395 320.512-6.575 25.148-18.136-13.992Zm0 0"/><path fill="#95dfcb" d="m316.395 320.512 29.722 13.82-36.297 11.328Zm0 0"/><path fill="#652632" d="m290.008 315.223 26.387 5.289-24.711 11.156Zm0 0"/><path fill="#916a69" d="m290.008 315.223 26.91-13.551-.523 18.84Zm0 0"/><path fill="#722631" d="m316.918 301.672-26.91 13.55 12.972-29.077Zm0 0"/><path fill="#442433" d="m252.023 337.906.72-22.554 11.312 13.968Zm0 0"/><path fill="#442534" d="m252.023 337.906 12.032-8.586.73 8.5Zm0 0"/><path fill="#95dfcb" d="m252.945 353.996-.922-16.09 12.762-.086Zm0 0"/><path fill="#4c2433" d="m264.055 329.32-11.313-13.968 37.266-.13Zm0 0"/><path fill="#332535" d="m252.742 315.352 24.59-15.016 12.676 14.887Zm0 0"/><path fill="#1c2638" d="m269.086 158.176-4.91-16.602 6.863-16.648ZM242.855 115.348l11.254 4.203-3.414 13.332ZM206.797 101.957l36.058 13.39-3.648 21.563Zm0 0"/><path fill="#1c2638" d="m242.855 115.348 7.84 17.535-11.488 4.027Zm0 0"/><path fill="#302536" d="m236.926 300.066 15.816 15.286-27.601-2.293Zm0 0"/><path fill="#95dfcb" d="m70.375 278.203 10.504 22.715-19.695 3.812Zm0 0"/><path fill="#d27d7a" d="m131.633 185.598-1.324 3.394-14.106-6.949Zm0 0"/><path fill="#cc8782" d="m109.7 193.938-8.294-10.422 14.797-1.473Zm0 0"/><path fill="#a3c8b8" d="m130.309 188.992-20.61 4.946 6.504-11.895Zm0 0"/><path fill="#a0cdbc" d="m109.7 193.938 20.609-4.946-17.141 20.082Zm0 0"/><path fill="#cb8883" d="m109.7 193.938 3.468 15.136-24.598-14.68Zm0 0"/><path fill="#c88e88" d="m101.406 183.516 8.293 10.422-21.129.457Zm0 0"/><path fill="#95dfcb" d="m40.402 269.512-16.136-24.48 18.304 7.937Zm0 0"/><path fill="#94dfcb" d="m24.266 245.031 16.136 24.48-18.714 5.801Zm0 0"/><path fill="#95dfcb" d="m40.402 269.512-.87 24.59-17.844-18.79ZM40.402 269.512l20.426-10.836 9.547 19.527Zm0 0"/><path fill="#95dfcb" d="m60.828 258.676-20.426 10.836 2.168-16.543ZM39.531 294.102l.871-24.59 29.973 8.691ZM42.633 336.371l31.273-13.25 9.903 29.79ZM73.906 323.121l14.844-4.742-1.203 10.101Zm0 0"/><path fill="#913f45" d="m107.766 296.05 1.261-8.144 6.075 4.77Zm0 0"/><path fill="#963b40" d="m90.906 287.922 16.86 8.129-12.551 4.32Zm0 0"/><path fill="#94353c" d="m109.027 287.906-1.261 8.145-16.86-8.13Zm0 0"/><path fill="#462534" d="m111.66 279.375-2.633 8.531-11.789-10.086Zm0 0"/><path fill="#2c2536" d="m111.66 279.375-3.457-9.723 13.313 3.094Zm0 0"/><path fill="#352535" d="m108.203 269.652 3.457 9.723-14.422-1.555Zm0 0"/><path fill="#1c2537" d="m84.484 240.559-16.879-1.032 8.426-10.476Zm0 0"/><path fill="#b3afa3" d="m157.473 258.406 23.601 2.63-24.144 1.866Zm0 0"/><path fill="#542432" d="m181.074 261.035-23.601-2.629 3.132-9.761Zm0 0"/><path fill="#9ed0be" d="m169.574 194.887 6.27-20.735 7.61 4.344Zm0 0"/><path fill="#9ed1bf" d="m175.844 174.152 6.59-4.527 1.02 8.871Zm0 0"/><path fill="#9bd5c3" d="m157.492 179.8 18.352-5.648-6.27 20.735Zm0 0"/><path fill="#1c2638" d="m182.434 169.625-22.836-14.734 23.195-16.063Zm0 0"/><path fill="#1c2638" d="m182.793 138.828-23.195 16.063-16.336-38.422ZM175.844 174.152l-16.246-19.261 22.836 14.734Zm0 0"/><path fill="#1c2638" d="m159.598 154.89-32.786 2.286 16.45-40.707ZM159.598 154.89l-15.16 14.641-17.625-12.355Zm0 0"/><path fill="#1c2638" d="m159.598 154.89-2.106 24.91-13.054-10.269ZM159.598 154.89l16.246 19.262-18.352 5.649ZM82.344 140.426l-26.797 40.043-12.906-31.864ZM55.547 180.469l26.797-40.043-10.5 39.023Zm0 0"/><path fill="#1c2638" d="m82.344 140.426 6.304 39.676-16.804-.653Zm0 0"/><path fill="#1c2638" d="m82.344 140.426 20.976 30.762-14.672 8.914Zm0 0"/><path fill="#82222d" d="m280.496 213.398 5.305 7.907-21.29 8.632Zm0 0"/><path fill="#ef5054" d="m280.496 213.398-4.867-23.015 17.734 18.316Zm0 0"/><path fill="#f04e52" d="m293.363 208.7-17.734-18.317 25.879-3.621Zm0 0"/><path fill="#a2cab9" d="m275.629 190.383-27.059 21.332-14.027-21.32Zm0 0"/><path fill="#ef5154" d="m248.57 211.715 27.059-21.332 4.867 23.015Zm0 0"/><path fill="#1c2638" d="m365.645 172.766-15.97-33.371L384 110.246Zm0 0"/><path fill="#98dac7" d="m331.754 177.89-30.246 8.872 26.855-22.145Zm0 0"/><path fill="#1c2638" d="m314.137 113.633 23.136-7.602-9.308 21.203Zm0 0"/><path fill="#1c2638" d="m337.273 106.031-23.136 7.602-9.317-20.106Zm0 0"/><path fill="#96deca" d="m310.984 152.398 9.618 5.106-17.188 11.906Zm0 0"/><path fill="#1c2638" d="m294.266 148.582 16.718 3.816-7.57 17.012ZM294.266 148.582l3.918-32.488 8.855 18.734Zm0 0"/><path fill="#1c2638" d="m310.984 152.398-16.718-3.816 12.773-13.754ZM305.77 66.324 312.28 0l26.578 70.426Zm0 0"/><path fill="#95dfcb" d="m83.809 352.91 43.007-.851L122.707 384ZM126.816 352.059l19.664 8.742L122.707 384Zm0 0"/><path fill="#95dfcb" d="m146.48 360.8-19.664-8.741 20.965-13.102Zm0 0"/><path fill="#9cd4c2" d="m226.418 170.563.324-26.25 11.938 16.96Zm0 0"/><path fill="#97dcc8" d="m212.957 153.023 13.785-8.71-.324 26.25Zm0 0"/><path fill="#95dfcb" d="m226.742 144.313 21.707 5.292-9.77 11.668Zm0 0"/><path fill="#95deca" d="m248.45 149.605-21.708-5.292 12.465-7.403Zm0 0"/><path fill="#1c2638" d="m226.742 144.313-1.867-8.84 14.332 1.437ZM224.875 135.473l1.867 8.84-18.176-4.649Zm0 0"/><path fill="#1c2638" d="m226.742 144.313-13.785 8.71-4.39-13.359Zm0 0"/><path fill="#ae817c" d="m109.027 287.906 9.094-3.172-3.02 7.942Zm0 0"/><path fill="#272536" d="m129.102 277.531-10.98 7.203 3.394-11.988Zm0 0"/><path fill="#242537" d="m118.121 284.734-6.46-5.359 9.855-6.629Zm0 0"/><path fill="#522835" d="m111.66 279.375 6.461 5.36-9.094 3.171Zm0 0"/><path fill="#342535" d="m136.262 250.742 21.21 7.664-22.113-1.148Zm0 0"/><path fill="#602330" d="m157.473 258.406-21.211-7.664 24.343-2.097Zm0 0"/><path fill="#5e2331" d="m160.605 248.645-24.343 2.097 1.629-8.512Zm0 0"/><path fill="#9a232c" d="m149.875 327.453.133-14.723 18.125 14.141Zm0 0"/><path fill="#342636" d="m107.766 296.05 10.91 7.384-12.555 6.328Zm0 0"/><path fill="#e55f60" d="m156.93 262.902-17.73 10.114-3.84-15.758Zm0 0"/><path fill="#e9585b" d="m139.2 273.016-10.716-3.352 6.875-12.406Zm0 0"/><path fill="#d47674" d="m128.484 269.664 10.715 3.352-10.097 4.515Zm0 0"/><path fill="#b1b2a5" d="m139.2 273.016 17.73-10.114-1.098 16.547Zm0 0"/><path fill="#ec5457" d="m217.57 223.465-15.722 28.355-11.559-24.738Zm0 0"/><path fill="#98d9c6" d="m169.574 194.887-13.883 27.758-1.898-29.34Zm0 0"/><path fill="#ee5154" d="m155.691 222.645 4.914 26-22.714-6.415Zm0 0"/><path fill="#95dfcb" d="m365.094 259.98-9.258 31.29-10.383-30.813Zm0 0"/><path fill="#95dfcb" d="m365.094 259.98-19.64.477 9.347-13.215ZM365.094 259.98 384 275.39l-28.164 15.88Zm0 0"/><path fill="#c1938c" d="m238.563 259.316 21.75 12.489-24.055 2.554Zm0 0"/><path fill="#da7270" d="m238.563 259.316 9.417-5.546 12.333 18.035Zm0 0"/><path fill="#492433" d="m247.98 253.77-9.417 5.546.363-16.464Zm0 0"/><path fill="#602431" d="m320.773 250.73-11.652 15.903-5.726-16.059Zm0 0"/><path fill="#ef5054" d="m317.074 229.594 3.7 21.136-17.38-.156Zm0 0"/><path fill="#98dac7" d="m282.066 245.254 12.645-13.211 8.684 18.531Zm0 0"/><path fill="#99d9c6" d="m294.71 232.043 22.364-2.45-13.68 20.981Zm0 0"/><path fill="#9cd3c1" d="m317.074 229.594-22.363 2.449 10.715-16.477Zm0 0"/><path fill="#96ddca" d="m294.71 232.043-8.91-10.738 19.626-5.739Zm0 0"/><path fill="#272838" d="m282.8 273.668 26.321-7.035-6.14 19.512Zm0 0"/><path fill="#b68c85" d="m284.379 254.277 24.742 12.356-26.32 7.035Zm0 0"/><path fill="#522432" d="m309.121 266.633-24.742-12.356 19.016-3.703Zm0 0"/><path fill="#9a4246" d="m260.313 271.805 12.902-8.883 9.586 10.746Zm0 0"/><path fill="#c26e6c" d="m273.215 262.922-12.902 8.883 6.664-15.723Zm0 0"/><path fill="#8e232d" d="m284.379 254.277-11.164 8.645-6.238-6.84Zm0 0"/><path fill="#85242f" d="m273.215 262.922 11.164-8.645-1.578 19.391Zm0 0"/><path fill="#1c2638" d="m333.719 240.863 11.574-27.808 1.086 22.629Zm0 0"/><path fill="#f04f52" d="m333.719 240.863-16.645-11.27 28.219-16.538Zm0 0"/><path fill="#94dfcb" d="m326.227 306.383 19.89 27.949-29.722-13.82Zm0 0"/><path fill="#95dfcb" d="m355.836 291.27-9.719 43.062-19.89-27.95Zm0 0"/><path fill="#95e0cc" d="m384 316.71-37.883 17.622 9.719-43.062Zm0 0"/><path fill="#ee5154" d="m248.45 149.605 20.636 8.57-12.613 11.403Zm0 0"/><path fill="#ef5054" d="m248.45 149.605 15.726-8.03 4.91 16.6Zm0 0"/><path fill="#a1cbba" d="m248.45 149.605 2.245-16.722 13.48 8.691Zm0 0"/><path fill="#9ed1bf" d="m250.695 132.883-2.246 16.722-9.242-12.695Zm0 0"/><path fill="#db706e" d="m285.988 93.598-1.34 15.355-14.39-9.555Zm0 0"/><path fill="#ec5558" d="m284.648 108.953 1.34-15.355 12.903.574Zm0 0"/><path fill="#ed5356" d="m298.184 116.094-13.536-7.14 14.243-14.782Zm0 0"/><path fill="#96ddc9" d="m298.184 116.094 16.367 8.293-7.512 10.441Zm0 0"/><path fill="#95dfcb" d="m298.184 116.094 15.953-2.461.414 10.754Zm0 0"/><path fill="#582734" d="m225.14 313.059 27.602 2.293-22.168 13.566Zm0 0"/><path fill="#5e2331" d="m196.55 326.8 28.59-13.741 5.434 15.859Zm0 0"/><path fill="#282536" d="m201.617 307.262 23.524 5.797-28.59 13.742Zm0 0"/><path fill="#95dfcb" d="m165.098 339.223 29.054 3.582-.652 10.754Zm0 0"/><path fill="#2f2636" d="m95.215 300.371 12.55-4.32-1.644 13.71Zm0 0"/><path fill="#993037" d="m88.75 318.379 6.465-18.008 10.906 9.39Zm0 0"/><path fill="#da716f" d="m94.82 267.195 6.453-10.12 6.93 12.577Zm0 0"/><path fill="#352535" d="m94.82 267.195 13.383 2.457-10.965 8.168Zm0 0"/><path fill="#1c2638" d="m82.875 247.082-15.27-7.555 16.88 1.032ZM82.875 247.082l1.61-6.523 16.695 9.57Zm0 0"/><path fill="#de6363" d="m78.422 266.55 4.453-19.468 11.945 20.113Zm0 0"/><path fill="#e3595b" d="m82.875 247.082-4.453 19.469-11.676-14.903Zm0 0"/><path fill="#f04e52" d="m67.605 239.527 15.27 7.555-16.129 4.566Zm0 0"/><path fill="#8e222c" d="m181.906 248.742-.832 12.293-20.469-12.39Zm0 0"/><path fill="#78232e" d="m181.074 261.035.832-12.293 19.942 3.078Zm0 0"/><path fill="#ef4e52" d="m155.691 222.645 26.215 26.097-21.3-.097Zm0 0"/><path fill="#ec5457" d="m201.848 251.82-19.942-3.078 8.383-21.66Zm0 0"/><path fill="#ef4f53" d="m181.906 248.742-26.215-26.097 34.598 4.437Zm0 0"/><path fill="#d87572" d="m320.602 157.504 10.898-3.977-3.137 11.09Zm0 0"/><path fill="#1c2638" d="m331.5 153.527-.184-11.644 18.36-2.488Zm0 0"/><path fill="#a1cbbb" d="m314.55 124.387 3.743 8.683-11.254 1.758Zm0 0"/><path fill="#97dcc8" d="m328.133 201.855-11.059 27.739-11.648-14.028Zm0 0"/><path fill="#ef4f53" d="m317.074 229.594 11.059-27.739 17.16 11.2Zm0 0"/><path fill="#96dcc9" d="m301.508 186.762 26.625 15.093-22.707 13.711Zm0 0"/><path fill="#9ad7c4" d="m328.133 201.855-26.625-15.093 30.246-8.871Zm0 0"/><path fill="#1c2638" d="m342.5 163.957 7.176-24.562 15.969 33.37Zm0 0"/><path fill="#ec5558" d="m342.5 163.957-10.746 13.934-3.39-13.274Zm0 0"/><path fill="#e85c5d" d="m331.5 153.527 11 10.43-14.137.66Zm0 0"/><path fill="#1c2638" d="m342.5 163.957-11-10.43 18.176-14.132Zm0 0"/><path fill="#aeb7aa" d="m269.086 158.176 25.18-9.594-9.5 23.078Zm0 0"/><path fill="#bf9d94" d="m294.266 148.582-10.23-5.957 14.148-26.531Zm0 0"/><path fill="#95dfcb" d="m88.75 318.379 25.73 14.976-26.933-4.875Zm0 0"/><path fill="#95dfcb" d="M114.48 333.355 83.81 352.91l3.738-24.43Zm0 0"/><path fill="#95dfcb" d="m114.48 333.355 12.336 18.704-43.007.851Zm0 0"/><path fill="#79232e" d="m149.875 327.453 15.223 11.77-17.317-.266Zm0 0"/><path fill="#95dfcb" d="m147.781 338.957 17.317.266-3.84 13.101Zm0 0"/><path fill="#462433" d="m165.098 339.223-15.223-11.77 18.258-.582Zm0 0"/><path fill="#472b39" d="m130.008 294.531-11.887-9.797 10.98-7.203Zm0 0"/><path fill="#48323f" d="m130.008 294.531-.906-17 12.234 10.36Zm0 0"/><path fill="#b4a096" d="m118.121 284.734 11.887 9.797-14.906-1.855Zm0 0"/><path fill="#997c77" d="m150.852 301.57-20.844-7.039 11.328-6.64Zm0 0"/><path fill="#c3968e" d="m101.273 257.074 11.547-3.508-4.617 16.086Zm0 0"/><path fill="#1c2537" d="m135.36 257.258-22.54-3.692 23.442-2.824Zm0 0"/><path fill="#9acbba" d="m101.18 250.129 11.64 3.437-11.547 3.508Zm0 0"/><path fill="#e26464" d="m121.516 272.746.242-7.52 6.726 4.438Zm0 0"/><path fill="#ee5255" d="m121.758 265.227 13.601-7.97-6.875 12.407Zm0 0"/><path fill="#272637" d="m131.102 308.746 19.75-7.176-.844 11.16Zm0 0"/><path fill="#9a4246" d="m135.473 322.383 14.535-9.653-.133 14.723Zm0 0"/><path fill="#312a3a" d="m135.473 322.383-4.371-13.637 18.906 3.984Zm0 0"/><path fill="#2c2636" d="m118.676 303.434-10.91-7.383 7.336-3.375Zm0 0"/><path fill="#6c2834" d="m130.008 294.531-11.332 8.903-3.574-10.758Zm0 0"/><path fill="#963c41" d="M120.617 320.117 88.75 318.38l17.371-8.617Zm0 0"/><path fill="#2f2536" d="m118.676 303.434 1.941 16.683-14.496-10.355Zm0 0"/><path fill="#662532" d="m120.617 320.117-6.137 13.238-25.73-14.976Zm0 0"/><path fill="#994044" d="m131.102 308.746-10.485 11.371-1.941-16.683Zm0 0"/><path fill="#a6968e" d="m141.336 287.89 14.496-8.44-4.98 22.12Zm0 0"/><path fill="#222637" d="m141.336 287.89-2.137-14.874 16.633 6.433Zm0 0"/><path fill="#212537" d="m139.2 273.016 2.136 14.875-12.234-10.36Zm0 0"/><path fill="#9a2f36" d="m327.422 275.754 18.031-15.297-11.668 21.496Zm0 0"/><path fill="#3f2535" d="m327.422 275.754 3.473-14.805 14.558-.492Zm0 0"/><path fill="#422735" d="m327.422 275.754-24.442 10.39 6.141-19.511Zm0 0"/><path fill="#8d363d" d="m302.98 286.145 24.442-10.391-10.504 25.918Zm0 0"/><path fill="#95a69a" d="m327.422 275.754 6.363 6.2-16.867 19.718Zm0 0"/><path fill="#984448" d="m316.395 320.512.523-18.84 9.309 4.71Zm0 0"/><path fill="#a7c2b3" d="m294.71 232.043-19 2.2 10.09-12.938Zm0 0"/><path fill="#85222d" d="m285.8 221.305-10.09 12.937-11.198-4.304Zm0 0"/><path fill="#97dcc9" d="m275.71 234.242 19-2.199-12.644 13.21Zm0 0"/><path fill="#99d8c5" d="m270.258 99.398 14.39 9.555-20.191 5.074Zm0 0"/><path fill="#ed5457" d="m304.82 93.527-6.636 22.567.707-21.922Zm0 0"/><path fill="#e16565" d="m314.137 113.633-15.953 2.46 6.636-22.566Zm0 0"/><path fill="#482433" d="m196.55 326.8-19.554-24.765 24.621 5.227Zm0 0"/><path fill="#512e3b" d="m97.238 277.82-6.332 10.102-12.484-21.371Zm0 0"/><path fill="#98b2a5" d="m78.422 266.55 12.484 21.372-20.531-9.719Zm0 0"/><path fill="#582633" d="M90.906 287.922 80.88 300.918l-10.504-22.715Zm0 0"/><path fill="#352636" d="m95.215 300.371-14.336.547 10.027-12.996Zm0 0"/><path fill="#8f2e36" d="m80.879 300.918 14.336-.547-6.465 18.008Zm0 0"/><path fill="#95dfcb" d="m80.879 300.918-6.973 22.203-12.722-18.39ZM80.879 300.918l7.871 17.46-14.844 4.743Zm0 0"/><path fill="#a22c34" d="m136.262 250.742-25.774-11.324 27.403 2.812Zm0 0"/><path fill="#ef5053" d="m110.488 239.418-4.234-14.55 31.637 17.362Zm0 0"/><path fill="#1d2537" d="m112.82 253.566-2.332-14.148 25.774 11.324Zm0 0"/><path fill="#1c2537" d="m110.488 239.418 2.332 14.148-11.64-3.437Zm0 0"/><path fill="#a3383e" d="m106.254 224.867 4.234 14.551-18.968-6.344Zm0 0"/><path fill="#1c2638" d="m110.488 239.418-9.308 10.71-9.66-17.054Zm0 0"/><path fill="#e26565" d="m82.875 247.082 18.398 9.992-6.453 10.121Zm0 0"/><path fill="#a1cab9" d="m101.273 257.074-18.398-9.992 18.305 3.047Zm0 0"/><path fill="#b6a59a" d="m217.422 277.238-2.86-15.668 21.696 12.79Zm0 0"/><path fill="#992b32" d="m214.563 261.57 24-2.254-2.305 15.043Zm0 0"/><path fill="#282536" d="m202.648 277.438 14.774-.2-15.805 30.024Zm0 0"/><path fill="#b8a59b" d="m202.648 277.438 11.915-15.868 2.859 15.668Zm0 0"/><path fill="#8e6363" d="m202.648 277.438-1.03 29.824-24.622-5.227Zm0 0"/><path fill="#1f2537" d="m177.3 277.977 25.348-.54-25.652 24.598Zm0 0"/><path fill="#9b242d" d="m202.648 277.438-21.574-16.403 33.488.535Zm0 0"/><path fill="#c78e87" d="m181.074 261.035 21.574 16.402-25.347.54Zm0 0"/><path fill="#9d242d" d="m181.074 261.035-3.773 16.942-20.371-15.075Zm0 0"/><path fill="#c09a92" d="m214.563 261.57-33.489-.535 20.774-9.215Zm0 0"/><path fill="#9ad7c5" d="m322.387 143.172 9.113 10.355-10.898 3.977Zm0 0"/><path fill="#1c2638" d="m331.5 153.527-9.113-10.355 8.93-1.29ZM327.965 127.234l-9.672 5.836-3.742-8.683ZM314.137 113.633l13.828 13.601-13.414-2.847Zm0 0"/><path fill="#1c2638" d="m331.316 141.883-3.351-14.649 21.71 12.16Zm0 0"/><path fill="#1c2638" d="m322.387 143.172 5.578-15.938 3.351 14.649Zm0 0"/><path fill="#1c2638" d="m327.965 127.234-5.578 15.938-4.094-10.102Zm0 0"/><path fill="#ed5356" d="m347.512 188.254-19.38 13.601 3.622-23.964Zm0 0"/><path fill="#f04f53" d="m342.5 163.957 5.012 24.297-15.758-10.363Zm0 0"/><path fill="#f04e52" d="m328.133 201.855 19.379-13.601-2.219 24.8Zm0 0"/><path fill="#1c2638" d="m347.512 188.254-5.012-24.297 23.145 8.809ZM347.512 188.254l18.133-15.488-1.81 30.89Zm0 0"/><path fill="#1c2638" d="m345.293 213.055 2.219-24.801 16.324 15.402Zm0 0"/><path fill="#98dac7" d="m269.086 158.176 14.95-15.551 10.23 5.957Zm0 0"/><path fill="#1c2638" d="m284.035 142.625-14.95 15.55 1.954-33.25Zm0 0"/><path fill="#95dfcb" d="m114.48 333.355 17.223 2.504-4.887 16.2Zm0 0"/><path fill="#6d2330" d="m149.875 327.453-18.172 8.406 3.77-13.476Zm0 0"/><path fill="#95dfcb" d="m126.816 352.059 4.887-16.2 16.078 3.098Zm0 0"/><path fill="#4b2533" d="m131.703 335.86 18.172-8.407-2.094 11.504Zm0 0"/><path fill="#452433" d="m168.133 326.871 26.02 15.934-29.055-3.582Zm0 0"/><path fill="#522432" d="m194.152 342.805-26.02-15.934 28.419-.07Zm0 0"/><path fill="#c5938c" d="m112.82 253.566 8.938 11.66-13.555 4.426Zm0 0"/><path fill="#d37c78" d="m121.758 265.227-8.938-11.66 22.54 3.69Zm0 0"/><path fill="#e06767" d="m108.203 269.652 13.555-4.425-.242 7.52Zm0 0"/><path fill="#452736" d="m131.102 308.746-12.426-5.312 11.332-8.903Zm0 0"/><path fill="#5d353f" d="m150.852 301.57-19.75 7.176-1.094-14.215Zm0 0"/><path fill="#ef5054" d="m333.719 240.863-12.946 9.867-3.699-21.136Zm0 0"/><path fill="#f04e52" d="m333.703 252.035.016-11.172 12.66-5.18Zm0 0"/><path fill="#a42b33" d="m345.453 260.457-11.75-8.422 12.676-16.351Zm0 0"/><path fill="#9a252d" d="m330.895 260.95 2.808-8.915 11.75 8.422Zm0 0"/><path fill="#ee5155" d="m333.703 252.035-12.93-1.305 12.946-9.867Zm0 0"/><path fill="#7e2530" d="m320.773 250.73 12.93 1.305-2.808 8.914Zm0 0"/><path fill="#492433" d="m238.563 259.316-14.348-10.406 14.71-6.058Zm0 0"/><path fill="#aa6866" d="m224.215 248.91 14.347 10.406-24 2.254Zm0 0"/><path fill="#ef4f53" d="m238.926 242.852-14.711 6.058-6.645-25.445Zm0 0"/><path fill="#5a2431" d="m201.848 251.82 22.367-2.91-9.653 12.66Zm0 0"/><path fill="#ef5053" d="m224.215 248.91-22.367 2.91 15.722-28.355Zm0 0"/><path fill="#8e222c" d="m264.512 229.938 11.199 4.304-10.293 7.809Zm0 0"/><path fill="#a0cdbc" d="m275.71 234.242 6.356 11.012-16.648-3.203Zm0 0"/><path fill="#9fcebd" d="m284.316 111.262.332-2.309 13.536 7.14Zm0 0"/><path fill="#99d9c6" d="m284.035 142.625.281-31.363 13.868 4.832Zm0 0"/><path fill="#1d2739" d="m284.648 108.953-.332 2.309-19.859 2.765Zm0 0"/><path fill="#afb6a9" d="m284.316 111.262-13.277 13.664-6.582-10.899Zm0 0"/><path fill="#1c2638" d="m284.316 111.262-.28 31.363-12.997-17.7Zm0 0"/><path fill="#222537" d="m170.41 314.492 6.586-12.457 19.555 24.766Zm0 0"/><path fill="#8f222c" d="m168.133 326.871 2.277-12.379 26.14 12.309Zm0 0"/><path fill="#97dcc9" d="m322.387 143.172-5.95 1.172 1.856-11.274Zm0 0"/><path fill="#95dfcb" d="m316.438 144.344-5.454 8.054-3.945-17.57Zm0 0"/><path fill="#a8c0b1" d="m318.293 133.07-1.856 11.274-9.398-9.516Zm0 0"/><path fill="#95dfcb" d="m310.984 152.398 5.454-8.054 4.164 13.16Zm0 0"/><path fill="#a2cab9" d="m316.438 144.344 5.949-1.172-1.785 14.332Zm0 0"/><path fill="#232637" d="m120.617 320.117 11.086 15.742-17.223-2.504Zm0 0"/><path fill="#70232f" d="m131.703 335.86-11.086-15.743 14.856 2.266Zm0 0"/><path fill="#8e363c" d="m120.617 320.117 10.485-11.37 4.37 13.636Zm0 0"/><path fill="#afaa9e" d="m309.121 266.633 11.652-15.903 10.122 10.22Zm0 0"/><path fill="#302737" d="m327.422 275.754-18.3-9.121 21.773-5.684Zm0 0"/><path fill="#292637" d="m150.008 312.73.844-11.16 19.558 12.922Zm0 0"/><path fill="#98222b" d="m150.008 312.73 20.402 1.762-2.277 12.38Zm0 0"/></svg>