<svg xmlns="http://www.w3.org/2000/svg" width="512" height="512" viewBox="0 0 384 384"><path fill="#091d3b" d="m231.309 81.719-23.176 43.187-35.649-29.105Zm0 0"/><path fill="#081d3b" d="M43.363 143.781-.004 170.38 0 93.91ZM50.902 50.594l16.84 47.023L0 93.91Zm0 0"/><path fill="#0a1e3b" d="M97.21 141.559 67.743 97.617l48.719.965Zm0 0"/><path fill="#081d3b" d="m67.742 97.617-24.379 46.164L0 93.911ZM43.363 143.781l24.38-46.164L97.21 141.56Zm0 0"/><path fill="#0a1e3b" d="m67.742 97.617 22.461-41.574 26.258 42.539Zm0 0"/><path fill="#091e3b" d="m90.203 56.043-22.46 41.574-16.84-47.023Zm0 0"/><path fill="#0a1e3b" d="M138.73 44.57 89.258 0h79.77Zm0 0"/><path fill="#0a1e3b" d="M90.203 56.043 89.258 0l49.472 44.57Zm0 0"/><path fill="#0f223a" d="m116.46 98.582 22.27-54.012 33.754 51.23Zm0 0"/><path fill="#122439" d="m138.73 44.57-22.27 54.012-26.257-42.539Zm0 0"/><path fill="#112339" d="m146.73 141.566-30.27-42.984 56.024-2.781Zm0 0"/><path fill="#0a1e3b" d="m116.46 98.582 30.27 42.984-49.52-.007Zm0 0"/><path fill="#081d3b" d="m301.918 0-6.293 57.55-40.164-17.07Zm0 0"/><path fill="#091d3b" d="M272.824 71.906 231.31 81.72 255.46 40.48Zm0 0"/><path fill="#081d3b" d="m295.625 57.55-22.8 14.356L255.46 40.48ZM286.219 84.867l-13.395-12.96 22.801-14.356ZM0 0l50.902 50.594L0 93.91Zm0 0"/><path fill="#091d3b" d="m89.258 0 .945 56.043-39.3-5.45Zm0 0"/><path fill="#504e2a" d="m256.922 275.117-15.422 17.64-9.281-17.23Zm0 0"/><path fill="#d7a909" d="m241.5 292.758 15.422-17.64 12.68 16.257Zm0 0"/><path fill="#fec300" d="m52.96 203.094-19.562-1.383 2.739-13.098Zm0 0"/><path fill="#081d3b" d="M0 268.938V215.25l23.93 14.156ZM0 215.25l33.398-13.54-9.468 27.696Zm0 0"/><path fill="#081d3b" d="M38.047 264.055 0 268.937l23.93-39.53ZM179.672 145.875l-32.942-4.309 25.754-45.765Zm0 0"/><path fill="#091d3b" d="m208.133 124.906-28.461 20.969-7.188-50.074Zm0 0"/><path fill="#081d3b" d="m179.672 145.875 28.46-20.969-8.066 25.75Zm0 0"/><path fill="#f1bb03" d="m33.398 201.71-10.347-6.983 13.086-6.114Zm0 0"/><path fill="#081d3b" d="M23.05 194.727 0 215.25l-.004-44.871Zm0 0"/><path fill="#081d3b" d="m0 215.25 23.05-20.523 10.348 6.984ZM356.496 138.469l-14.824-36.215 42.328-7.2Zm0 0"/><path fill="#081d3b" d="m341.672 102.254-2.309-45.11L384 95.055Zm0 0"/><path fill="#091e3b" d="m315.77 84.953-20.145-27.402 43.738-.406Zm0 0"/><path fill="#081d3b" d="m341.672 102.254-25.902-17.3 23.593-27.81Zm0 0"/><path fill="#091d3b" d="m315.77 84.953 25.902 17.3-26.985 9.774Zm0 0"/><path fill="#081d3b" d="m315.77 84.953-29.551-.086 9.406-27.316Zm0 0"/><path fill="#091e3b" d="m315.77 84.953-1.082 27.074-9.09-16.23Zm0 0"/><path fill="#0a1e3b" d="m286.219 84.867 29.55.086-10.171 10.844Zm0 0"/><path fill="#a08417" d="m303.023 173.395-1.457 12.777-9.933-1.524Zm0 0"/><path fill="#fec300" d="m245.57 181.79-11.574 38.948-18.039-26.62Zm0 0"/><path fill="#fec300" d="m233.996 220.738-38.945 6.703 20.906-33.324Zm0 0"/><path fill="#655b25" d="m282.492 274.676 12.543 3.586-9.87 10.586Zm0 0"/><path fill="#081d3b" d="m383.996 252.484-20.379-25.199L384 168.125Zm0 0"/><path fill="#091e3b" d="m203.102 38.168 28.207 43.55-58.825 14.083Zm0 0"/><path fill="#102339" d="m138.73 44.57 64.372-6.402-30.618 57.633Zm0 0"/><path fill="#081d3b" d="M230.89 0h71.028l-46.457 40.48ZM272.824 71.906l-1.058 13.754-40.457-3.941Zm0 0"/><path fill="#081d3b" d="m271.766 85.66 1.058-13.754 13.395 12.961ZM0 0h89.258L50.902 50.594Zm0 0"/><path fill="#e4b106" d="m241.5 292.758-25.652 2.254 16.37-19.485Zm0 0"/><path fill="#d3a60a" d="m52.96 203.094 22.395 11.742-22.18 6.691Zm0 0"/><path fill="#eab605" d="m75.355 214.836-22.394-11.742 14.164-7.766Zm0 0"/><path fill="#ac8b14" d="m75.355 214.836-4.968 13.86-17.211-7.169Zm0 0"/><path fill="#fec300" d="m88.207 194.969-12.852 19.867-8.23-19.508Zm0 0"/><path fill="#e0af07" d="m75.355 214.836 12.852-19.867 10.273 22.648Zm0 0"/><path fill="#c29b0e" d="m43.5 213.582 9.46-10.488.216 18.433Zm0 0"/><path fill="#e1b007" d="m52.96 203.094-9.46 10.488-10.102-11.871Zm0 0"/><path fill="#081d3b" d="m43.5 213.582-19.57 15.824 9.468-27.695ZM44.441 223.793l-.941-10.211 9.676 7.945Zm0 0"/><path fill="#081d3b" d="m43.5 213.582.941 10.211-20.511 5.613ZM55.477 252.21l-17.43 11.845 3.715-28.02Zm0 0"/><path fill="#c69e11" d="m63.273 263.773-7.796-11.562 8.804-1.887Zm0 0"/><path fill="#091d3b" d="m55.477 252.21 7.796 11.563-25.226.282Zm0 0"/><path fill="#be980f" d="m92.68 234.215-17.325-19.38 23.125 2.782Zm0 0"/><path fill="#d1a50b" d="m75.355 214.836 17.325 19.379-22.293-5.52Zm0 0"/><path fill="#b59315" d="m63.273 263.773 15.485 7.59-7.477 8.285Zm0 0"/><path fill="#d7a90b" d="m88.27 286.906-9.512-15.543 8.46-2.867Zm0 0"/><path fill="#daac0c" d="m78.758 271.363-1.938-11.441 10.399 8.574Zm0 0"/><path fill="#081d3b" d="m195.36 162.348-15.688-16.473 20.394 4.781Zm0 0"/><path fill="#091e3b" d="m204.18 159.066-8.82 3.282 4.706-11.692Zm0 0"/><path fill="#fec300" d="m197.656 171.555-2.297-9.207 8.82-3.282Zm0 0"/><path fill="#081d3b" d="m127.34 164.05-25.692 18.845-4.437-41.336Zm0 0"/><path fill="#0a1e3b" d="m146.73 141.566-19.39 22.485-30.13-22.492Zm0 0"/><path fill="#081d3b" d="m146.715 168.734-19.375-4.683 19.39-22.485Zm0 0"/><path fill="#fec300" d="m86.348 179.367 15.3 3.528-13.441 12.074Zm0 0"/><path fill="#081d3b" d="M86.348 179.367 97.21 141.56l4.437 41.336ZM384 168.125l-27.504-29.656L384 95.055Zm0 0"/><path fill="#9d8117" d="m301.566 186.172-14.921 24.648 4.988-26.172Zm0 0"/><path fill="#081d3b" d="m363.617 227.285-1.86-44.898L384 168.125Zm0 0"/><path fill="#dfae07" d="m314.637 185.96-20.903 27.977 7.832-27.765Zm0 0"/><path fill="#0c203a" d="m293.734 213.938-7.09-3.118 14.922-24.648Zm0 0"/><path fill="#f8bf01" d="m277.176 174.32 14.855-1.148-.398 11.476Zm0 0"/><path fill="#d3a60a" d="m292.031 173.172 10.992.223-11.39 11.253Zm0 0"/><path fill="#091e3b" d="m301.918 0 37.445 57.145-43.738.406Zm0 0"/><path fill="#081d3b" d="M159.828 353.145 180.637 384H137.64Zm0 0"/><path fill="#081d3b" d="m180.637 384-20.809-30.855 39.985-7.41ZM137.64 384H77.435l44.097-34.187ZM81.164 338.133l25.738-13.676 14.63 25.356ZM41.805 347.242 77.434 384H0Zm0 0"/><path fill="#081d3b" d="m0 325.633 41.805 21.61L0 384Zm0 0"/><path fill="#fec300" d="m269.426 155.719 7.75 18.601-21.88-6.047Zm0 0"/><path fill="#fec300" d="m245.57 181.79 9.727-13.517 21.879 6.047Zm0 0"/><path fill="#a38616" d="m255.297 168.273-9.727 13.516-4.175-15.027Zm0 0"/><path fill="#c09a0f" d="m254.523 227.648-9.53 13.754-10.997-20.664Zm0 0"/><path fill="#fec300" d="m197.656 171.555 18.301 22.562-27.598-7.238Zm0 0"/><path fill="#fdc300" d="m215.957 194.117-20.906 33.324-6.692-40.562Zm0 0"/><path fill="#fdc300" d="m195.05 227.441-26.171-28.773 19.48-11.79Zm0 0"/><path fill="#081d3b" d="m351.648 344.637-27.683-36.707L384 302.973Zm0 0"/><path fill="#c69d0e" d="m253.066 247.11 9.63-3.54.398 11.282Zm0 0"/><path fill="#b18f12" d="m269.602 291.375 12.89-16.7 2.672 14.173Zm0 0"/><path fill="#081d3b" d="M199.813 345.734 224.875 384h-44.238Zm0 0"/><path fill="#0b1f3b" d="m346.273 235.66 17.344-8.375-11.73 21.754Zm0 0"/><path fill="#091d3b" d="m346.273 235.66 5.614 13.38-14.5-10.231Zm0 0"/><path fill="#081d3b" d="M310.66 344.355 279.172 384l1.7-46.297ZM279.172 384l31.488-39.645L331.164 384Zm0 0"/><path fill="#081d3b" d="m310.66 344.355 40.988.282L331.164 384ZM292.188 317.004l-19.122-2.84 12.098-25.316Zm0 0"/><path fill="#091e3b" d="m273.066 314.164-3.464-22.789 15.562-2.527Zm0 0"/><path fill="#0a1e3b" d="m295.035 278.262 8.485 9.562-18.356 1.024Zm0 0"/><path fill="#081d3b" d="m303.52 287.824-11.332 29.18-7.024-28.156ZM273.066 314.164l7.805 23.54-34.726 5.913Zm0 0"/><path fill="#081d3b" d="m310.66 344.355-29.789-6.652 11.317-20.7Zm0 0"/><path fill="#081d3b" d="m292.188 317.004-11.317 20.7-7.805-23.54ZM203.102 38.168 169.027 0h61.864Zm0 0"/><path fill="#091e3b" d="m169.027 0 34.075 38.168-64.372 6.402Zm0 0"/><path fill="#081d3b" d="m231.309 81.719-28.207-43.551 52.359 2.312Zm0 0"/><path fill="#081d3b" d="M203.102 38.168 230.89 0l24.57 40.48ZM230.129 132.133l6.043-10.586 4.695 15.34ZM269.426 155.719l-6.985-7.207 8.375-6.367Zm0 0"/><path fill="#081d3b" d="m262.441 148.512 6.985 7.207-14.13 12.554Zm0 0"/><path fill="#0b1f3b" d="m271.086 101.125-10.934 19.348 5.696-23.692Zm0 0"/><path fill="#f7be01" d="m268.055 124.96-9.258 18.423-5.848-7.074Zm0 0"/><path fill="#fec300" d="m260.152 120.473 7.903 4.488-15.106 11.348Zm0 0"/><path fill="#b39112" d="m268.055 124.96 3.03-23.835 6.544 12.773Zm0 0"/><path fill="#fbc100" d="m271.086 101.125-3.031 23.836-7.903-4.488Zm0 0"/><path fill="#0a1e3b" d="m236.172 121.547-28.04 3.36 23.177-43.188Zm0 0"/><path fill="#081d3b" d="m236.172 121.547-6.043 10.586-21.996-7.227Zm0 0"/><path fill="#091e3b" d="m260.152 120.473-11.43-5.282 17.126-18.41Zm0 0"/><path fill="#081d3b" d="m265.848 96.781-17.125 18.41-17.414-33.472Zm0 0"/><path fill="#091e3b" d="m248.723 115.191-12.551 6.356-4.863-39.828Zm0 0"/><path fill="#f7bf01" d="m278.586 93.305-6.82-7.645 14.453-.793Zm0 0"/><path fill="#f6be02" d="m278.586 93.305 7.633-8.438 19.379 10.93Zm0 0"/><path fill="#081d3b" d="m271.766 85.66-5.918 11.121-34.54-15.062Zm0 0"/><path fill="#a78815" d="m265.848 96.781 12.738-3.476-7.5 7.82Zm0 0"/><path fill="#f8bf01" d="m278.586 93.305-12.738 3.476 5.918-11.12Zm0 0"/><path fill="#373c30" d="m222.512 305.52-6.664-10.508 25.652-2.254Zm0 0"/><path fill="#f4bc02" d="m119.914 228.7-3.937-24.66 35.632 16.694Zm0 0"/><path fill="#fac001" d="M115.977 204.04 98.48 217.616 88.207 194.97Zm0 0"/><path fill="#deae07" d="M119.914 228.7 98.48 217.616l17.497-13.578Zm0 0"/><path fill="#dfaf07" d="m98.48 217.617 21.434 11.082-27.234 5.516Zm0 0"/><path fill="#fec300" d="m151.61 220.734-35.633-16.695 29.046-7.203ZM72.355 178.48l15.852 16.489-21.082.36Zm0 0"/><path fill="#fec300" d="m86.348 179.367 1.859 15.602-15.852-16.489Zm0 0"/><path fill="#091d3b" d="M0 325.633v-56.695l46.559 37.156Zm0 0"/><path fill="#091e3b" d="m0 268.938 38.047-4.883 8.512 42.039Zm0 0"/><path fill="#081d3b" d="m53.164 225.352-8.723-1.559 8.735-2.266Zm0 0"/><path fill="#091d3b" d="m70.387 228.695-17.223-3.343.012-3.825Zm0 0"/><path fill="#fec300" d="m55.477 252.21-2.313-26.858 11.117 24.972Zm0 0"/><path fill="#091d3b" d="M38.047 264.055 23.93 229.406l17.832 6.63Zm0 0"/><path fill="#081d3b" d="m44.441 223.793-2.68 12.242-17.831-6.629ZM53.164 225.352l-11.402 10.683 2.68-12.242Zm0 0"/><path fill="#efb904" d="m41.762 236.035 11.402-10.683 2.313 26.859Zm0 0"/><path fill="#d1a60f" d="m87.219 268.496 15.164 14.11-14.113 4.3Zm0 0"/><path fill="#fdc301" d="m76.82 259.922-13.547 3.851 1.008-13.449Zm0 0"/><path fill="#45462d" d="m76.82 259.922 1.938 11.441-15.485-7.59Zm0 0"/><path fill="#081d3b" d="m85.727 245.914-5.575-6.473 12.528-5.226Zm0 0"/><path fill="#081d3b" d="m92.68 234.215-12.528 5.226-9.765-10.746Zm0 0"/><path fill="#fec400" d="m145.023 196.836 7.52-16.215 16.336 18.047Zm0 0"/><path fill="#fec300" d="m145.023 196.836 23.856 1.832-17.27 22.066Zm0 0"/><path fill="#f5bd02" d="m142.746 240.156-17.625 1.946-5.207-13.403Zm0 0"/><path fill="#b99410" d="M142.746 240.156 119.914 228.7l31.695-7.965Zm0 0"/><path fill="#fec300" d="m184.809 168.95 12.847 2.605-9.297 15.324Zm0 0"/><path fill="#fec300" d="m184.809 168.95 10.55-6.602 2.297 9.207Zm0 0"/><path fill="#081d3b" d="m195.36 162.348-10.551 6.601-5.137-23.074ZM127.34 164.05l6.488 18.825-32.18.02Zm0 0"/><path fill="#081d3b" d="m146.715 168.734-12.887 14.141-6.488-18.824Zm0 0"/><path fill="#fec300" d="m145.023 196.836-11.195-13.961 18.715-2.254Zm0 0"/><path fill="#081d3b" d="m133.828 182.875 12.887-14.14 5.828 11.886ZM-.004 170.379l28.875 11.184-5.82 13.164Zm0 0"/><path fill="#0a1e3b" d="m43.363 143.781-14.492 37.781L-.004 170.38Zm0 0"/><path fill="#fec300" d="m23.05 194.727 5.821-13.165 7.266 7.051Zm0 0"/><path fill="#081d3b" d="m58.14 179.29-29.269 2.273 14.492-37.782Zm0 0"/><path fill="#081d3b" d="m28.871 181.563 29.27-2.274-22.004 9.324Zm0 0"/><path fill="#fec300" d="m59.234 189.164 13.121-10.684-5.23 16.848Zm0 0"/><path fill="#f4bd02" d="m52.96 203.094 6.274-13.93 7.891 6.164Zm0 0"/><path fill="#fec300" d="m36.137 188.613 23.097.551-6.273 13.93ZM59.234 189.164l-1.093-9.875 14.214-.809Zm0 0"/><path fill="#fec300" d="m58.14 179.29 1.094 9.874-23.097-.55Zm0 0"/><path fill="#081d3b" d="m361.758 182.387-7.403-18.465L384 168.125Zm0 0"/><path fill="#fec300" d="m320.086 160.406-5.45 25.555-11.613-12.566ZM314.637 185.96l5.449-25.554 10.484 9.906Zm0 0"/><path fill="#081d3b" d="m258.797 143.383 12.543-16.856-.524 15.618Zm0 0"/><path fill="#122339" d="m271.34 126.527-3.285-1.566 9.574-11.063Zm0 0"/><path fill="#f3bc02" d="m268.055 124.96 3.285 1.567-12.543 16.856Zm0 0"/><path fill="#f4bc02" d="m292.031 173.172 2.867-25.563 8.125 25.786Zm0 0"/><path fill="#fec300" d="m294.898 147.61-2.867 25.562-14.855 1.148Zm0 0"/><path fill="#081d3b" d="M339.363 57.145 301.918 0H384ZM384 95.055l-44.637-37.91L384 0ZM121.531 349.813l38.297 3.332L137.641 384Zm0 0"/><path fill="#091d3b" d="m121.531 349.813 26.969-24.106 11.328 27.438Zm0 0"/><path fill="#081d3b" d="M81.164 338.133 77.434 384l-35.63-36.758ZM77.434 384l3.73-45.867 40.367 11.68Zm0 0"/><path fill="#081d3b" d="m46.559 306.094 34.605 32.039-39.36 9.11Zm0 0"/><path fill="#081d3b" d="m0 325.633 46.559-19.54-4.754 41.15Zm0 0"/><path fill="#fec300" d="m241.395 166.762-25.438 27.355 3.961-33.289Zm0 0"/><path fill="#cba00c" d="m245.57 181.79-29.613 12.327 25.438-27.355Zm0 0"/><path fill="#fbc101" d="m214.047 151.469 5.871 9.36-15.738-1.763Zm0 0"/><path fill="#081d3b" d="m214.047 151.469-9.867 7.597-4.114-8.41ZM208.133 124.906l5.914 26.563-13.98-.813Zm0 0"/><path fill="#f8bf02" d="m141.73 292.242 13.258-14.894 10.551 16.984Zm0 0"/><path fill="#cda20c" d="m199.203 309.328-20.066-3.926 11.726-11.066Zm0 0"/><path fill="#685e24" d="m154.988 277.348 24.399 1.89-13.848 15.094Zm0 0"/><path fill="#fbc101" d="m129 264.652 3.164 10.918-13.133-2.152Zm0 0"/><path fill="#fec300" d="m129 264.652 1.328-8.867 8.371 4.043Zm0 0"/><path fill="#fec301" d="m144.469 266.762 7.93-8.473 2.59 19.059Zm0 0"/><path fill="#f4bc02" d="m152.398 258.29-7.93 8.472-5.769-6.934Zm0 0"/><path fill="#eab505" d="M219.266 239.883 195.05 227.44l38.945-6.703Zm0 0"/><path fill="#fec300" d="m245.57 181.79 19.254 23.71-30.828 15.238Zm0 0"/><path fill="#cba10c" d="m264.824 205.5-10.3 22.148-20.528-6.91Zm0 0"/><path fill="#daab08" d="m254.523 227.648 10.301-22.148 4.238 21.887Zm0 0"/><path fill="#9c8117" d="m264.824 205.5 21.82 5.32-17.582 16.567Zm0 0"/><path fill="#fec300" d="m215.957 194.117-18.3-22.562 6.523-12.489Zm0 0"/><path fill="#fec300" d="m219.918 160.828-3.961 33.29-11.777-35.052Zm0 0"/><path fill="#081d3b" d="m384 344.414-32.352.223L384 302.973Zm0 0"/><path fill="#172738" d="m351.887 249.04 11.73-21.755 20.38 25.2Zm0 0"/><path fill="#fdc300" d="m256.922 275.117-9.324-17.851 15.496-2.414Zm0 0"/><path fill="#7e6d1f" d="m247.598 257.266 5.468-10.157 10.028 7.743Zm0 0"/><path fill="#0b1f3b" d="m253.066 247.11 5.243-11.137 4.386 7.597Zm0 0"/><path fill="#8f781b" d="m258.309 235.973-3.786-8.325 14.54-.261Zm0 0"/><path fill="#977e19" d="m254.523 227.648 3.786 8.325-13.317 5.43Zm0 0"/><path fill="#091e3b" d="m258.309 235.973-5.243 11.136-8.074-5.707Zm0 0"/><path fill="#fdc200" d="m307 222.14-17.133 11.118 3.867-19.32Zm0 0"/><path fill="#f9bf01" d="m307 222.14-13.266-8.202 20.903-27.977Zm0 0"/><path fill="#fcc200" d="M315.598 247.906 307 222.141l18.598 1.816Zm0 0"/><path fill="#fdc300" d="m307 222.14 8.598 25.766-25.73-14.648Zm0 0"/><path fill="#fcc200" d="m262.695 243.57 6.711 2.075-6.312 9.207Zm0 0"/><path fill="#fac101" d="m269.406 245.645 9.473 9.078-15.785.129Zm0 0"/><path fill="#4a492b" d="m270.977 272.46-1.375 18.915-12.68-16.258Zm0 0"/><path fill="#f8bf01" d="m270.977 272.46-14.055 2.657 6.172-20.265Zm0 0"/><path fill="#081d3b" d="m347.785 197.848 13.973-15.461 1.86 44.898ZM246.145 343.617 224.875 384l-25.062-38.266ZM246.145 343.617l34.726-5.914-1.7 46.297Zm0 0"/><path fill="#091d3b" d="m341.621 227.785 4.652 7.875-8.886 3.149Zm0 0"/><path fill="#091e3b" d="m346.273 235.66-4.652-7.875 21.996-.5Zm0 0"/><path fill="#0f223a" d="m341.621 227.785 6.164-29.937 15.832 29.437Zm0 0"/><path fill="#d8a909" d="m347.785 197.848-6.164 29.937-16.023-3.828Zm0 0"/><path fill="#081d3b" d="m331.164 384 20.484-39.363L384 384ZM351.648 344.637l32.352-.223V384ZM246.145 343.617l.855-37.144 26.066 7.691Zm0 0"/><path fill="#0a1e3b" d="M273.066 314.164 247 306.473l22.602-15.098Zm0 0"/><path fill="#081d3b" d="m262.441 148.512-3.644-5.13 12.02-1.237Zm0 0"/><path fill="#f9c001" d="m250.152 132.164 10-11.691-7.203 15.836Zm0 0"/><path fill="#081d3b" d="m250.152 132.164-1.43-16.973 11.43 5.282Zm0 0"/><path fill="#081d3b" d="m248.723 115.191 1.43 16.973-13.981-10.617ZM236.172 121.547l13.98 10.617-9.285 4.723Zm0 0"/><path fill="#fbc100" d="m250.152 132.164 2.797 4.145-12.082.578Zm0 0"/><path fill="#665c25" d="m247 306.473-5.5-13.715 28.102-1.383Zm0 0"/><path fill="#ad8c13" d="m247 306.473-24.488-.953 18.988-12.762Zm0 0"/><path fill="#081d3b" d="m222.512 305.52 24.488.953-23.43 16.101ZM247 306.473l-.855 37.144-22.575-21.043ZM223.57 322.574l22.575 21.043-46.333 2.117Zm0 0"/><path fill="#bc9710" d="m199.203 309.328 16.645-14.316 6.664 10.508Zm0 0"/><path fill="#514e2a" d="m215.848 295.012-16.645 14.316-8.34-14.992Zm0 0"/><path fill="#fec400" d="m133.828 182.875-17.851 21.164-14.329-21.144Zm0 0"/><path fill="#fec300" d="m115.977 204.04 17.851-21.165 11.195 13.96ZM115.977 204.04l-27.77-9.071 13.441-12.074Zm0 0"/><path fill="#0b1f3b" d="m57.223 275.855 6.05-12.082 8.008 15.875Zm0 0"/><path fill="#091d3b" d="m63.273 263.773-6.05 12.082-19.176-11.8Zm0 0"/><path fill="#0a1e3b" d="m46.559 306.094 10.664-30.239 14.058 3.793Zm0 0"/><path fill="#091e3b" d="m38.047 264.055 19.176 11.8-10.664 30.239Zm0 0"/><path fill="#091d3b" d="m81.164 338.133 7.676-27.781 18.062 14.105ZM88.27 286.906l12.074 7.739-11.504 15.707Zm0 0"/><path fill="#82701e" d="m102.383 282.605-2.04 12.04-12.073-7.739Zm0 0"/><path fill="#ab8b14" d="m102.383 282.605 2.183-12.093 14.465 2.906Zm0 0"/><path fill="#3d412f" d="m104.566 270.512-2.183 12.093-15.164-14.109Zm0 0"/><path fill="#091e3b" d="m80.152 239.441-11.07.848 1.305-11.594Zm0 0"/><path fill="#fdc300" d="m53.164 225.352 15.918 14.937-4.8 10.035Zm0 0"/><path fill="#0b1f3b" d="m69.082 240.29-15.918-14.938 17.223 3.343Zm0 0"/><path fill="#fdc302" d="m152.398 258.29 19.438 1.722-16.848 17.336Zm0 0"/><path fill="#0b1f3b" d="m171.836 260.012-19.438-1.723 7.282-11.266Zm0 0"/><path fill="#fec300" d="m168.879 198.668 4.43-16.285 15.05 4.496Zm0 0"/><path fill="#fec300" d="m173.309 182.383 11.5-13.434 3.55 17.93ZM152.543 180.621l20.766 1.762-4.43 16.285Zm0 0"/><path fill="#081d3b" d="m184.809 168.95-14.508 5.152 9.37-28.227Zm0 0"/><path fill="#081d3b" d="m179.672 145.875-9.371 28.227-23.57-32.536Zm0 0"/><path fill="#fec300" d="m173.309 182.383-3.008-8.281 14.508-5.153Zm0 0"/><path fill="#081d3b" d="m170.3 174.102-23.585-5.368.015-27.168Zm0 0"/><path fill="#081d3b" d="m170.3 174.102-17.757 6.52-5.828-11.888Zm0 0"/><path fill="#fec300" d="m170.3 174.102 3.009 8.28-20.766-1.76Zm0 0"/><path fill="#081d3b" d="m72.148 167.727-14.007 11.562-14.778-35.508ZM72.148 167.727 43.363 143.78l53.848-2.222ZM58.14 179.29l14.008-11.563.207 10.753ZM72.148 167.727l14.2 11.64-13.993-.887ZM72.148 167.727l25.063-26.168-10.863 37.808Zm0 0"/><path fill="#d6a809" d="m289.867 233.258-7.648-7.52 11.515-11.8Zm0 0"/><path fill="#0c1f3a" d="m282.219 225.738 4.426-14.918 7.09 3.118Zm0 0"/><path fill="#0a1e3b" d="m286.645 210.82-4.426 14.918-13.156 1.649Zm0 0"/><path fill="#fec300" d="m264.824 205.5-19.254-23.71 31.606-7.47Zm0 0"/><path fill="#fbc100" d="m264.824 205.5 12.352-31.18 14.457 10.328Zm0 0"/><path fill="#c89f0d" d="m286.645 210.82-21.82-5.32 26.808-20.852Zm0 0"/><path fill="#081d3b" d="m384 168.125-29.645-4.203 2.141-25.453Zm0 0"/><path fill="#fcc200" d="m336.934 181.238-22.297 4.723 15.933-15.649Zm0 0"/><path fill="#f5bd02" d="m310.121 151.902 9.965 8.504-17.063 12.989Zm0 0"/><path fill="#081d3b" d="m294.898 147.61 15.223 4.292-7.098 21.493Zm0 0"/><path fill="#091e3b" d="m294.898 147.61.875-17.09 11.434 4.722Zm0 0"/><path fill="#081d3b" d="m310.121 151.902-15.223-4.293 12.309-12.367Zm0 0"/><path fill="#091d3b" d="m148.5 325.707 22.043 4.32-10.715 23.118Zm0 0"/><path fill="#fec300" d="m214.047 151.469 12.367-9.11-6.496 18.47Zm0 0"/><path fill="#fec300" d="m226.414 142.36 14.98 24.402-21.476-5.934ZM241.395 166.762l-14.98-24.403 14.452-5.472Zm0 0"/><path fill="#081d3b" d="m226.414 142.36 3.715-10.227 10.738 4.754ZM230.129 132.133l-3.715 10.226-18.281-17.453Zm0 0"/><path fill="#081d3b" d="m226.414 142.36-12.367 9.109-5.914-26.563Zm0 0"/><path fill="#fdc301" d="m122.914 257.09 6.086 7.562-9.969 8.766Zm0 0"/><path fill="#fec300" d="m129 264.652-6.086-7.562 7.414-1.305Zm0 0"/><path fill="#192837" d="m141.941 247.508 10.457 10.781-13.699 1.54Zm0 0"/><path fill="#10223a" d="m130.328 255.785 11.613-8.277-3.242 12.32Zm0 0"/><path fill="#1a2937" d="m152.398 258.29-10.457-10.782 17.739-.485Zm0 0"/><path fill="#0e213a" d="m141.941 247.508-11.613 8.277-5.207-13.683Zm0 0"/><path fill="#947b19" d="m142.746 240.156-.805 7.352-16.82-5.406Zm0 0"/><path fill="#826f1e" d="m159.68 247.023-17.739.485.805-7.352Zm0 0"/><path fill="#e2b107" d="m179.387 279.238 11.476 15.098-25.324-.004Zm0 0"/><path fill="#2d3632" d="m190.863 294.336-11.726 11.066-13.598-11.07Zm0 0"/><path fill="#5d5727" d="m135.5 303.45-18.48-13.36 24.71 2.152Zm0 0"/><path fill="#081d3b" d="m88.84 310.352 27.222-6.766-9.16 20.871Zm0 0"/><path fill="#fdc301" d="m144.469 266.762-12.305 8.808 6.535-15.742Zm0 0"/><path fill="#fec300" d="M132.164 275.57 129 264.652l9.7-4.824Zm0 0"/><path fill="#e3b106" d="m132.164 275.57 12.305-8.808 10.52 10.586Zm0 0"/><path fill="#635a25" d="m212.809 257.008-14.274 2.797-3.484-32.364Zm0 0"/><path fill="#af8e13" d="m219.266 239.883-6.457 17.125-17.758-29.567Zm0 0"/><path fill="#fec300" d="m195.05 227.441-43.44-6.707 17.269-22.066Zm0 0"/><path fill="#e3b106" d="m175.172 248.555-23.563-27.82 43.442 6.706Zm0 0"/><path fill="#c19a0e" d="m151.61 220.734 23.562 27.82-15.492-1.53Zm0 0"/><path fill="#ddad08" d="m151.61 220.734 8.07 26.29-16.934-6.868Zm0 0"/><path fill="#162638" d="m321.164 277.82 19.277-10.047-16.476 40.157Zm0 0"/><path fill="#253134" d="m323.965 307.93-31.777 9.074 11.332-29.18Zm0 0"/><path fill="#081d3b" d="m384 302.973-43.559-35.2 43.555-15.289Zm0 0"/><path fill="#162638" d="m340.441 267.773 11.446-18.734 32.11 3.445Zm0 0"/><path fill="#091d3b" d="m340.441 267.773 43.559 35.2-60.035 4.957Zm0 0"/><path fill="#fdc300" d="m232.219 275.527 15.379-18.261 9.324 17.851Zm0 0"/><path fill="#0a1e3b" d="m253.066 247.11-10.488 2.57 2.414-8.278Zm0 0"/><path fill="#44452d" d="m247.598 257.266-5.02-7.586 10.488-2.57Zm0 0"/><path fill="#645b25" d="m315.598 247.906-3.149 16.551-15.312-12.3Zm0 0"/><path fill="#fec300" d="m278.879 254.723 10.988-21.465 7.27 18.898Zm0 0"/><path fill="#fbc100" d="m289.867 233.258 25.73 14.648-18.46 4.25Zm0 0"/><path fill="#fec300" d="M325.598 223.957 307 222.141l7.637-36.18Zm0 0"/><path fill="#4c4b2b" d="m282.492 274.676 10.414-4.84 2.13 8.426Zm0 0"/><path fill="#fbc100" d="m278.879 254.723 14.027 15.113-10.414 4.84Zm0 0"/><path fill="#595428" d="m292.906 269.836 19.543-5.379-17.414 13.805Zm0 0"/><path fill="#deae08" d="m312.45 264.457-19.544 5.379 4.23-17.68Zm0 0"/><path fill="#957d1a" d="m292.906 269.836-14.027-15.113 18.258-2.567Zm0 0"/><path fill="#343a31" d="m269.602 291.375 1.375-18.914 11.515 2.215Zm0 0"/><path fill="#d3a60b" d="m278.879 254.723-7.902 17.738-7.883-17.61Zm0 0"/><path fill="#f3bb02" d="m270.977 272.46 7.902-17.737 3.613 19.953Zm0 0"/><path fill="#daab08" d="m327.5 244.355-1.902-20.398 11.789 14.852Zm0 0"/><path fill="#a28516" d="m325.598 223.957 16.023 3.828-4.234 11.024Zm0 0"/><path fill="#081d3b" d="M246.145 343.617 279.172 384h-54.297Zm0 0"/><path fill="#0a1e3b" d="m312.45 264.457-8.93 23.367-8.485-9.562Zm0 0"/><path fill="#081d3b" d="m351.648 344.637-40.988-.282 13.305-36.425Zm0 0"/><path fill="#e4b106" d="m249.129 152.156 13.312-3.644-7.144 19.761Zm0 0"/><path fill="#fac101" d="m241.395 166.762 7.734-14.606 6.168 16.117Zm0 0"/><path fill="#fec300" d="m249.129 152.156 9.668-8.773 3.644 5.129Zm0 0"/><path fill="#fec300" d="m249.129 152.156 3.82-15.847 5.848 7.074ZM249.129 152.156l-7.734 14.606-.528-29.875Zm0 0"/><path fill="#fec300" d="m252.95 136.309-3.821 15.847-8.262-15.27Zm0 0"/><path fill="#f0ba03" d="m278.586 93.305 4.629 14.843-12.13-7.023Zm0 0"/><path fill="#fac001" d="m283.215 108.148-4.63-14.843 27.013 2.492Zm0 0"/><path fill="#9f8317" d="m293.414 116.27-10.2-8.122 22.384-12.351Zm0 0"/><path fill="#f0ba03" d="m293.414 116.27 6.711 1.253-4.352 12.997Zm0 0"/><path fill="#0a1f3b" d="m295.773 130.52 4.352-12.997 7.082 17.72Zm0 0"/><path fill="#fac001" d="m300.125 117.523 14.984 6.094-7.902 11.625Zm0 0"/><path fill="#fdc300" d="m300.125 117.523 14.563-5.496.421 11.59Zm0 0"/><path fill="#091d3b" d="m199.203 309.328 24.367 13.246-23.757 23.16Zm0 0"/><path fill="#081d3b" d="m223.57 322.574-24.367-13.246 23.309-3.808ZM170.543 330.027l29.27 15.707-39.985 7.41Zm0 0"/><path fill="#091e3b" d="m181.61 318.926 17.593-9.598.61 36.406Zm0 0"/><path fill="#081d3b" d="m88.84 310.352-11.723-16.793 11.153-6.653Zm0 0"/><path fill="#f8bf03" d="m95.234 257.914 9.332 12.598-17.347-2.016Zm0 0"/><path fill="#fdc301" d="m85.57 255.8 9.664 2.114-8.015 10.582Zm0 0"/><path fill="#081d3b" d="m93.586 249.559-7.86-3.645 6.954-11.7Zm0 0"/><path fill="#f7bf04" d="M93.586 249.559 85.57 255.8l.157-9.887Zm0 0"/><path fill="#fdc303" d="m85.57 255.8 8.016-6.241 1.648 8.355Zm0 0"/><path fill="#081d3b" d="m78.25 246.41-9.168-6.12 11.07-.849ZM78.25 246.41l1.902-6.969 5.575 6.473Zm0 0"/><path fill="#fcc200" d="m78.25 246.41-1.43 13.512-12.539-9.598Zm0 0"/><path fill="#dcac09" d="m69.082 240.29 9.168 6.12-13.969 3.914Zm0 0"/><path fill="#4a4a2c" d="m175.172 248.555-3.336 11.457-12.156-12.989Zm0 0"/><path fill="#152638" d="m171.836 260.012 3.336-11.457 23.363 11.25Zm0 0"/><path fill="#89741c" d="m198.535 259.805-23.363-11.25 19.879-21.114Zm0 0"/><path fill="#fec300" d="m205.586 277.496-7.05-17.691 14.273-2.797ZM320.086 160.406l16.398-4.047-5.914 13.953Zm0 0"/><path fill="#081d3b" d="m354.355 163.922-17.87-7.563 20.011-17.89Zm0 0"/><path fill="#081d3b" d="m336.484 156.36-.554-11.872 20.566-6.02Zm0 0"/><path fill="#fdc200" d="m315.11 123.617 4.269 11.926-12.172-.3Zm0 0"/><path fill="#fec300" d="m336.934 181.238-11.336 42.719-10.961-37.996Zm0 0"/><path fill="#dfaf07" d="m336.934 181.238 10.851 16.61-22.187 26.109Zm0 0"/><path fill="#f9c001" d="m303.023 173.395 11.614 12.566-13.07.21Zm0 0"/><path fill="#f8bf01" d="m342.91 167.648-5.976 13.59-6.364-10.925Zm0 0"/><path fill="#fdc200" d="m336.484 156.36 6.426 11.288-12.34 2.665Zm0 0"/><path fill="#081d3b" d="m342.91 167.648-6.426-11.289 17.871 7.563ZM278.543 148.988l-9.117 6.73 1.39-13.573Zm0 0"/><path fill="#fec300" d="m269.426 155.719 9.117-6.73-1.367 25.331Zm0 0"/><path fill="#fec300" d="m278.543 148.988 16.355-1.379-17.722 26.711Zm0 0"/><path fill="#f1bb03" d="m294.898 147.61-10.726-13.669 11.601-3.421Zm0 0"/><path fill="#caa00d" d="m117.02 290.09-14.637-7.485 16.648-9.187Zm0 0"/><path fill="#5b5527" d="m117.02 290.09 2.011-16.672 13.133 2.152Zm0 0"/><path fill="#edb804" d="m141.73 292.242-24.71-2.152 15.144-14.52Zm0 0"/><path fill="#fec300" d="m95.234 257.914 13.121-5.297-3.789 17.895Zm0 0"/><path fill="#0a1e3b" d="m117.781 253.941-9.426-1.324 16.766-10.515Zm0 0"/><path fill="#fec301" d="m93.586 249.559 14.77 3.058-13.122 5.297Zm0 0"/><path fill="#fac101" d="m115.672 259.465 7.242-2.375-3.883 16.328Zm0 0"/><path fill="#fdc200" d="m115.672 259.465 2.11-5.524 5.132 3.149Zm0 0"/><path fill="#0c203a" d="m117.781 253.941 7.34-11.84-2.207 14.989Zm0 0"/><path fill="#0d203a" d="m122.914 257.09 2.207-14.988 5.207 13.683Zm0 0"/><path fill="#937b1a" d="m155.879 303.938-20.379-.489 6.23-11.207Zm0 0"/><path fill="#45462d" d="m155.879 303.938-14.149-11.696 23.81 2.09Zm0 0"/><path fill="#081d3b" d="m135.5 303.45 20.379.488-7.379 21.769Zm0 0"/><path fill="#091e3b" d="m135.5 303.45 13 22.257-22.43-4.3Zm0 0"/><path fill="#0e213a" d="m100.344 294.645 15.719 8.94-27.223 6.767Zm0 0"/><path fill="#8a751c" d="m117.02 290.09-16.676 4.555 2.039-12.04Zm0 0"/><path fill="#091e3b" d="m126.07 321.406-19.168 3.051 9.16-20.871Zm0 0"/><path fill="#635a25" d="m141.73 292.242-9.566-16.672 22.824 1.778Zm0 0"/><path fill="#172738" d="m303.52 287.824 17.644-10.004 2.8 30.11Zm0 0"/><path fill="#091e3b" d="m312.45 264.457 8.714 13.363-17.644 10.004Zm0 0"/><path fill="#081d3b" d="m321.164 277.82-8.715-13.363 27.992 3.316ZM292.188 317.004l31.777-9.074-13.305 36.425Zm0 0"/><path fill="#fbc101" d="m232.219 275.527.668-18.464 14.71.203Zm0 0"/><path fill="#685e24" d="m232.887 257.063 9.691-7.383 5.02 7.586Zm0 0"/><path fill="#d2a60a" d="m289.867 233.258-14.816 3.11 7.168-10.63Zm0 0"/><path fill="#0a1e3b" d="m282.219 225.738-7.168 10.63-5.988-8.981Zm0 0"/><path fill="#fbc101" d="m269.406 245.645 5.645-9.278 3.828 18.356Zm0 0"/><path fill="#fcc200" d="m275.05 236.367 14.817-3.11-10.988 21.466Zm0 0"/><path fill="#46462c" d="m271.086 101.125 12.129 7.023-5.586 5.75Zm0 0"/><path fill="#ba9510" d="m305.598 95.797-5.473 21.726-6.71-1.253Zm0 0"/><path fill="#bf980f" d="m300.125 117.523 5.473-21.726 9.09 16.23Zm0 0"/><path fill="#081d3b" d="m181.61 318.926-2.473-13.524 20.066 3.926Zm0 0"/><path fill="#685e27" d="m71.281 279.648 7.477-8.285 9.512 15.543Zm0 0"/><path fill="#091d3b" d="m77.117 293.559-5.836-13.91 16.989 7.257Zm0 0"/><path fill="#10223a" d="m71.281 279.648 5.836 13.91-30.558 12.536Zm0 0"/><path fill="#10233a" d="m77.117 293.559 11.723 16.793-42.281-4.258Zm0 0"/><path fill="#081d3b" d="m88.84 310.352-7.676 27.78-34.605-32.038Zm0 0"/><path fill="#f1bb03" d="m125.121 242.102-18.805-3.446 13.598-9.957Zm0 0"/><path fill="#081d3b" d="m108.355 252.617-2.039-13.96 18.805 3.445Zm0 0"/><path fill="#081d3b" d="m106.316 238.656 2.04 13.961-14.77-3.058Zm0 0"/><path fill="#c39c0e" d="m119.914 228.7-13.598 9.956-13.636-4.441Zm0 0"/><path fill="#081d3b" d="m106.316 238.656-12.73 10.903-.906-15.344Zm0 0"/><path fill="#fec300" d="m78.25 246.41 7.32 9.39-8.75 4.122Zm0 0"/><path fill="#f9c002" d="m85.57 255.8-7.32-9.39 7.477-.496Zm0 0"/><path fill="#fec300" d="m76.82 259.922 8.75-4.121 1.649 12.695ZM232.887 257.063l-27.301 20.433 7.223-20.488Zm0 0"/><path fill="#e4b207" d="m205.586 277.496 27.3-20.433-.667 18.464Zm0 0"/><path fill="#504d2a" d="m205.586 277.496 26.633-1.969-16.371 19.485Zm0 0"/><path fill="#dfae07" d="m205.586 277.496 10.262 17.516-24.985-.676Zm0 0"/><path fill="#44462d" d="m179.387 279.238 26.199-1.742-14.723 16.84Zm0 0"/><path fill="#e0af08" d="m205.586 277.496-26.2 1.742 19.15-19.433Zm0 0"/><path fill="#fdc303" d="m171.836 260.012 7.55 19.226-24.398-1.89Zm0 0"/><path fill="#fec300" d="m179.387 279.238-7.551-19.226 26.7-.207Zm0 0"/><path fill="#fac001" d="m325.258 147.61 11.226 8.75-16.398 4.046Zm0 0"/><path fill="#081d3b" d="m336.484 156.36-11.226-8.75 10.672-3.122ZM330.617 127.64l-11.238 7.903-4.27-11.926Zm0 0"/><path fill="#091e3b" d="m330.617 127.64-15.93-15.613 26.985-9.773Zm0 0"/><path fill="#081d3b" d="m314.688 112.027 15.93 15.614-15.509-4.024Zm0 0"/><path fill="#081d3b" d="m356.496 138.469-25.879-10.828 11.055-25.387Zm0 0"/><path fill="#081d3b" d="m335.93 144.488-5.313-16.847 25.88 10.828Zm0 0"/><path fill="#081d3b" d="m325.258 147.61 5.36-19.97 5.312 16.848ZM330.617 127.64l-5.36 19.97-5.878-12.067Zm0 0"/><path fill="#c9a00c" d="m342.91 167.648 3.508 9.704-9.484 3.886Zm0 0"/><path fill="#ddad08" d="m336.934 181.238 9.484-3.886 1.367 20.496Zm0 0"/><path fill="#081d3b" d="m346.418 177.352-3.508-9.704 11.445-3.726ZM346.418 177.352l7.937-13.43 7.403 18.465ZM347.785 197.848l-1.367-20.496 15.34 5.035Zm0 0"/><path fill="#f8bf01" d="m278.543 148.988 2.305-8.3 14.05 6.921Zm0 0"/><path fill="#f9c001" d="m280.848 140.688 3.324-6.747 10.726 13.668Zm0 0"/><path fill="#091e3b" d="m280.848 140.688-2.305 8.3-7.727-6.843Zm0 0"/><path fill="#081d3b" d="m271.34 126.527 9.508 14.16-10.032 1.458ZM284.172 133.941l-3.324 6.746-9.508-14.16ZM121.531 349.813l4.54-28.407 22.429 4.301ZM199.813 345.734l-29.27-15.707 11.066-11.101Zm0 0"/><path fill="#fec300" d="m108.355 252.617 7.317 6.848-11.106 11.047Zm0 0"/><path fill="#fac101" d="m115.672 259.465-7.317-6.848 9.426 1.324Zm0 0"/><path fill="#f7bf05" d="m104.566 270.512 11.106-11.047 3.36 13.953Zm0 0"/><path fill="#90791b" d="m116.063 303.586-15.72-8.941 16.677-4.555Zm0 0"/><path fill="#d8aa09" d="m135.5 303.45-19.437.136.957-13.496Zm0 0"/><path fill="#0a1e3b" d="m126.07 321.406-10.007-17.82 19.437-.137Zm0 0"/><path fill="#e4b206" d="m327.5 244.355-11.902 3.551 10-23.949Zm0 0"/><path fill="#091e3b" d="m351.887 249.04-21.742 2.523 7.242-12.754Zm0 0"/><path fill="#2a3433" d="m330.145 251.563-2.645-7.208 9.887-5.546Zm0 0"/><path fill="#081d3b" d="m340.441 267.773-10.296-16.21 21.742-2.524Zm0 0"/><path fill="#3e412e" d="m330.145 251.563-14.547-3.657 11.902-3.55Zm0 0"/><path fill="#091e3b" d="m242.578 249.68-8.36-3.309 10.774-4.969Zm0 0"/><path fill="#091e3b" d="m232.887 257.063 1.332-10.692 8.36 3.309Zm0 0"/><path fill="#0e213a" d="m234.219 246.371-1.332 10.691-20.078-.054Zm0 0"/><path fill="#a18416" d="m244.992 241.402-10.773 4.97-.223-25.634Zm0 0"/><path fill="#9a7f18" d="m234.219 246.371-14.953-6.488 14.73-19.145Zm0 0"/><path fill="#8c761c" d="m234.219 246.371-21.41 10.637 6.457-17.125Zm0 0"/><path fill="#0b1f3b" d="m266.8 239.36-8.491-3.387 10.753-8.586Zm0 0"/><path fill="#0a1e3b" d="m275.05 236.367-8.25 2.992 2.262-11.972Zm0 0"/><path fill="#e5b206" d="m266.8 239.36 8.25-2.993-5.644 9.278Zm0 0"/><path fill="#0a1e3b" d="m258.309 235.973 8.492 3.386-4.106 4.211Zm0 0"/><path fill="#f5bd02" d="m266.8 239.36 2.606 6.285-6.71-2.075Zm0 0"/><path fill="#fdc200" d="m285.344 121.273 8.07-5.003 2.36 14.25Zm0 0"/><path fill="#d9aa09" d="m285.344 121.273-2.13-13.125 10.2 8.122Zm0 0"/><path fill="#fdc200" d="m284.172 133.941 1.172-12.668 10.43 9.247Zm0 0"/><path fill="#0b1f3b" d="m283.215 108.148 2.129 13.125-7.715-7.375Zm0 0"/><path fill="#081d3b" d="m285.344 121.273-14.004 5.254 6.289-12.629Zm0 0"/><path fill="#091e3b" d="m285.344 121.273-1.172 12.668-12.832-7.414Zm0 0"/><path fill="#091d3b" d="m167.582 311.27 11.555-5.868 2.472 13.524ZM170.543 330.027l-2.961-18.757 14.027 7.656Zm0 0"/><path fill="#b79311" d="m179.137 305.402-11.555 5.868-2.043-16.938Zm0 0"/><path fill="#fdc200" d="m325.258 147.61-8.528.863 2.649-12.93Zm0 0"/><path fill="#f4bc02" d="m316.73 148.473-6.609 3.43-2.914-16.66Zm0 0"/><path fill="#fcc200" d="m319.379 135.543-2.649 12.93-9.523-13.23Zm0 0"/><path fill="#fec300" d="m310.121 151.902 6.61-3.43 3.355 11.934Zm0 0"/><path fill="#fec300" d="m316.73 148.473 8.528-.864-5.172 12.797Zm0 0"/><path fill="#081d3b" d="m121.531 349.813-14.629-25.356 19.168-3.05Zm0 0"/><path fill="#40432e" d="m315.598 247.906 14.547 3.656-17.696 12.895Zm0 0"/><path fill="#091d3b" d="m312.45 264.457 17.695-12.894 10.296 16.21Zm0 0"/><path fill="#cfa30c" d="m167.582 311.27-11.703-7.332 9.66-9.606Zm0 0"/><path fill="#091d3b" d="m155.879 303.938 11.703 7.332-19.082 14.437ZM167.582 311.27l2.961 18.757-22.043-4.32Zm0 0"/></svg>