<svg xmlns="http://www.w3.org/2000/svg" width="512" height="512" viewBox="0 0 384 384"><path fill="#b8bbc3" d="M130.996 59.648 87.672 83.594l6.484-43.762Zm0 0"/><path fill="#b8bcc4" d="m216.09 66.164-27.164 52.55-21.309-39.382Zm0 0"/><path fill="#b8bcc3" d="m48.79 52.246-6.188 54.133L0 79.555Zm0 0"/><path fill="#b8bbc4" d="m45.785 150.395-3.183-44.016 38.07 25.16Zm0 0"/><path fill="#b8bcc2" d="M42.602 106.379 0 146.355v-66.8Zm0 0"/><path fill="#b8bbc4" d="m0 146.355 42.602-39.976 3.183 44.016Zm0 0"/><path fill="#b8bcc2" d="m42.602 106.379 45.07-22.785-7 47.945ZM87.672 83.594l-45.07 22.785 6.187-54.133Zm0 0"/><path fill="#f4cd10" d="m322.563 384-4.915-40.504 34.696 6.719Zm0 0"/><path fill="#b8bcc2" d="M94.156 39.832 69.996 0h66.926Zm0 0"/><path fill="#b8bcc4" d="M87.672 83.594 48.789 52.246l45.367-12.414Zm0 0"/><path fill="#b8bbc3" d="M48.79 52.246 69.995 0l24.16 39.832Zm0 0"/><path fill="#b8bbc4" d="m129.316 111.48 1.68-51.832 36.621 19.684ZM87.672 83.594l41.644 27.886-48.644 20.06Zm0 0"/><path fill="#b8bbc4" d="m130.996 59.648-1.68 51.832-41.644-27.886Zm0 0"/><path fill="#b8bcc3" d="m130.996 59.648-36.84-19.816L136.922 0Zm0 0"/><path fill="#b8bbc4" d="m221.23 0 61.575 43.867-66.715 22.297ZM282.805 43.867 254.25 83.13l-38.16-16.965Zm0 0"/><path fill="#b8bbc3" d="m278.754 81.668-24.504 1.46 28.555-39.26Zm0 0"/><path fill="#b8bbc4" d="M69.996 0 48.79 52.246 0 0Zm0 0"/><path fill="#80133b" d="m251.68 286.906-12.075 5.555-7.414-15.387Zm0 0"/><path fill="#82224a" d="m239.605 292.46 12.075-5.554 3.57 17.239Zm0 0"/><path fill="#e6ae06" d="m58.293 206.426-25.531-.367.683-18.72Zm0 0"/><path fill="#b8bbc2" d="M0 243.938v-42.805l21.586 25.402Zm0 0"/><path fill="#b7bac3" d="m0 201.133 32.762 4.926-11.176 20.476Zm0 0"/><path fill="#b7bac4" d="M32.887 246.55 0 243.938l21.586-17.402Zm0 0"/><path fill="#b8bbc4" d="m32.762 206.059 8.672 25.918-19.848-5.442ZM122.594 181.902l-20.051.84 4.762-27.793Zm0 0"/><path fill="#b8bcc4" d="m188.926 118.715-59.61-7.235 38.301-32.148Zm0 0"/><path fill="#b7bbc4" d="m129.316 111.48 17.692 39.872-39.703 3.597ZM33.445 187.34 0 201.133v-54.778ZM0 201.133l33.445-13.793-.683 18.719ZM341.227 131.492l6.714-25.984L384 134.672Zm0 0"/><path fill="#b8bbc3" d="m347.941 105.508-18.09-27.973L384 70.988Zm0 0"/><path fill="#b7bbc4" d="m299.96 78.594-17.155-34.727 47.047 33.668Zm0 0"/><path fill="#b8bbc1" d="m299.96 78.594 29.892-1.059-21.43 16.149Zm0 0"/><path fill="#b8bbc3" d="m299.96 78.594-21.206 3.074 4.05-37.8Zm0 0"/><path fill="#b7bbc3" d="m299.96 78.594 8.462 15.09-13.656-4.305Zm0 0"/><path fill="#b8bbc2" d="m278.754 81.668 21.207-3.074-5.195 10.785Zm0 0"/><path fill="#b8bcc4" d="m308.246 0-25.441 43.867L221.23 0Zm0 0"/><path fill="#eecd25" d="m27.281 384 12.887-44.105 34.184 44.109Zm0 0"/><path fill="#fed600" d="m235.285 187.988-4.52 31.965-19.66-21.137Zm0 0"/><path fill="#fed600" d="m230.766 219.953-31.149 3.473 11.488-24.61ZM199.617 223.426l-19.066-25.203 30.554.593Zm0 0"/><path fill="#fcd301" d="m263.617 245.063 15.024 10.925-25.47 1.614Zm0 0"/><path fill="#831b3e" d="m238.738 271.355 12.942 15.551-19.489-9.832Zm0 0"/><path fill="#b8bbc4" d="m384 190.242.008 52.11-15.852-41.036Zm0 0"/><path fill="#b8bbc3" d="m365.871 233.816-9.363-15.898 11.648-16.602Zm0 0"/><path fill="#b8bcc1" d="m384.008 242.352-18.137-8.536 2.285-32.5Zm0 0"/><path fill="#88223a" d="m251.68 286.906 20.363 1.028-16.793 16.21Zm0 0"/><path fill="#9c4637" d="m267.203 338.29-4.355-15.614 30.902-7.012Zm0 0"/><path fill="#b8bcc3" d="m172.547 42.484 43.543 23.68-48.473 13.168Zm0 0"/><path fill="#b8bbc4" d="m130.996 59.648 41.55-17.164-4.929 36.848Zm0 0"/><path fill="#b8bcc2" d="m268.852 91.988-14.602-8.86 24.504-1.46Zm0 0"/><path fill="#b8bbc4" d="M0 79.555V0l48.79 52.246Zm0 0"/><path fill="#7a0e43" d="m239.605 292.46-10.433.825 3.02-16.21Zm0 0"/><path fill="#f5cd0e" d="m252.063 356.691-19.31-11.89 9.77-6.055Zm0 0"/><path fill="#851c3a" d="m231.074 334.684 1.68 10.117-10.012-3.649ZM219.691 328.07l11.383 6.614-8.332 6.468Zm0 0"/><path fill="#a94515" d="m58.293 206.426 25.367 16.75-29.594-1.016Zm0 0"/><path fill="#e9b205" d="m83.66 223.176-25.367-16.75 11.445-2.52Zm0 0"/><path fill="#a13919" d="m83.66 223.176-6.387 8.687-23.207-9.703Zm0 0"/><path fill="#f8cb01" d="m88.34 197.746-4.68 25.43-13.922-19.27Zm0 0"/><path fill="#a23b18" d="m58.293 206.426-4.227 15.734-21.304-16.101Zm0 0"/><path fill="#b7bbc4" d="m54.066 222.16-12.632 9.817-8.672-25.918Zm0 0"/><path fill="#f4ca0c" d="m54.066 222.16-6.148 19.156-6.484-9.34Zm0 0"/><path fill="#661886" d="m66.2 266.457-12.052-14.523L71.04 258.5Zm0 0"/><path fill="#5e0e8d" d="m104.457 270.02-17.918 11.484 2.633-13.516Zm0 0"/><path fill="#651383" d="m104.457 270.02-2.559 11.289-15.359.195Zm0 0"/><path fill="#671885" d="m86.54 281.504-7.942-7.79 10.574-5.726Zm0 0"/><path fill="#6d2080" d="m78.598 273.715 2.777-11.774 7.797 6.047Zm0 0"/><path fill="#b7bbc4" d="m188.691 168.156.235-49.441 21.699 35.625Zm0 0"/><path fill="#fed600" d="m210.238 170.5-21.547-2.344 21.934-13.816Zm0 0"/><path fill="#fed601" d="m211.105 198.816-22.414-30.66 21.547 2.344Zm0 0"/><path fill="#b8bbc2" d="m147.008 151.352-24.414 30.55-15.29-26.953Zm0 0"/><path fill="#fed600" d="m70.754 177.195 31.789 5.547-14.203 15.004Zm0 0"/><path fill="#b7bbc4" d="m107.305 154.95-26.633-23.41 48.644-20.06Zm0 0"/><path fill="#b7bbc4" d="m70.754 177.195 36.55-22.246-4.761 27.793Zm0 0"/><path fill="#b8bbc4" d="m384 190.242-36.715-22.734L384 134.672Zm0 0"/><path fill="#b7bbc4" d="m347.285 167.508-6.058-36.016 42.773 3.18Zm0 0"/><path fill="#b8bbc4" d="M347.941 105.508 384 70.988v63.684Zm0 0"/><path fill="#b8bcc4" d="m384 190.242-15.844 11.074-20.87-33.808Zm0 0"/><path fill="#821e43" d="m281.46 214.215 18.696-22.957-10.082 25.433Zm0 0"/><path fill="#e8b105" d="m284.953 172.82 18.414-.074-3.21 18.512Zm0 0"/><path fill="#b7bbc4" d="m282.805 43.867 54.84-3.437-7.793 37.105ZM308.246 0l29.399 40.43-54.84 3.437Zm0 0"/><path fill="#f0ca19" d="M214.234 384.004 137.832 384l40.094-21.496Zm0 0"/><path fill="#efcf27" d="M0 355.648 27.281 384H0Zm0 0"/><path fill="#efce24" d="M27.281 384 0 355.648l40.168-15.753Zm0 0"/><path fill="#f1cf20" d="M40.168 339.895.004 303.52l44.27-7.34Zm0 0"/><path fill="#a16559" d="m145.453 290.07 4.172 10.39-7.562 1.49Zm0 0"/><path fill="#7d3574" d="m131.61 292.242 13.843-2.172-3.39 11.88Zm0 0"/><path fill="#e8b105" d="m251.121 223.043-7.535 16.812-12.82-19.902Zm0 0"/><path fill="#eac625" d="m384 322.21-23.586-38.534 23.586-7.7Zm0 0"/><path fill="#b35b1a" d="m248.129 248.918 15.488-3.856-10.445 12.54Zm0 0"/><path fill="#740a4c" d="m272.043 287.934 14.242-14.618-.82 26.63Zm0 0"/><path fill="#6f237d" d="m347.758 256.68-7.781-6.465 18.328-5.852Zm0 0"/><path fill="#f4cc0f" d="m216.094 359.594-1.86 24.41-36.308-21.5Zm0 0"/><path fill="#f6ca07" d="m232.754 344.8-16.66 14.794 6.648-18.442Zm0 0"/><path fill="#742d82" d="m348.316 234.7 17.555-.884-7.566 10.547Zm0 0"/><path fill="#6f217b" d="m339.977 250.215 8.34-15.516 9.988 9.664Zm0 0"/><path fill="#f8ce05" d="m348.316 234.7-8.34 15.515-6.011-9.074Zm0 0"/><path fill="#fcd302" d="m365.871 233.816-17.555.883 8.192-16.781Zm0 0"/><path fill="#d49d1f" d="m272.043 287.934 13.422 12.011-30.215 4.2Zm0 0"/><path fill="#f5cb08" d="m295.648 332.438-12.086 26.773-16.359-20.922Zm0 0"/><path fill="#f0c30b" d="m317.648 343.496-22-11.058 10.426-6.813Zm0 0"/><path fill="#93363a" d="m295.648 332.438-1.898-16.774 12.324 9.961Zm0 0"/><path fill="#781452" d="m293.75 315.664 1.898 16.774-28.445 5.851Zm0 0"/><path fill="#f2c60b" d="m348.203 326.063-30.555 17.433 1.356-23.156Zm0 0"/><path fill="#f7ce06" d="m317.648 343.496 30.555-17.433 4.14 24.152Zm0 0"/><path fill="#f6cc07" d="m283.563 359.21 12.085-26.772 22 11.058Zm0 0"/><path fill="#f2cb13" d="m283.563 359.21 39 24.79-65.403.004Zm0 0"/><path fill="#f7cd06" d="m322.563 384-39-24.79 34.085-15.714Zm0 0"/><path fill="#b8bcc4" d="m136.922 0 35.625 42.484-41.55 17.164Zm0 0"/><path fill="#b8bcc4" d="M172.547 42.484 136.922 0h84.308Zm0 0"/><path fill="#b8bbc4" d="M172.547 42.484 221.23 0l-5.14 66.164Zm0 0"/><path fill="#b7bbc4" d="m188.926 118.715 46.082-10.844-5.797 33.461Zm0 0"/><path fill="#fed500" d="m278.516 107.086-24.961 24.121 14.5-28.059Zm0 0"/><path fill="#f8cd02" d="m278.516 107.086-10.61 26.633-14.351-2.512Zm0 0"/><path fill="#b8bbc4" d="M235.008 107.871 216.09 66.164l38.16 16.965ZM235.008 107.871l-46.082 10.844 27.164-52.55ZM253.555 131.207l-18.547-23.336 33.047-4.723Zm0 0"/><path fill="#b8bbc4" d="m268.055 103.148-33.047 4.723L254.25 83.13Zm0 0"/><path fill="#fcd301" d="m282.473 96.668-13.621-4.68 9.902-10.32Zm0 0"/><path fill="#fed500" d="m282.473 96.668-3.72-15 16.013 7.71Zm0 0"/><path fill="#830d29" d="m268.852 91.988 9.664 15.098-10.461-3.938Zm0 0"/><path fill="#b8bcc2" d="m268.852 91.988-.797 11.16-13.805-20.02Zm0 0"/><path fill="#a13818" d="m268.852 91.988 13.62 4.68-3.956 10.418Zm0 0"/><path fill="#8c3a52" d="m201.516 290.86 27.656 2.425-8.8 12.242Zm0 0"/><path fill="#d6a424" d="m236.742 305.398-7.57-12.113 10.433-.824Zm0 0"/><path fill="#ddaa1a" d="m229.172 293.285 7.57 12.113-16.37.13Zm0 0"/><path fill="#a45235" d="m262.848 322.676-20.325 16.07-6.77-18.789Zm0 0"/><path fill="#9c3e2d" d="m231.074 334.684 11.45 4.062-9.77 6.055Zm0 0"/><path fill="#83193c" d="m200.95 341.313 18.741-13.243 3.051 13.082Zm0 0"/><path fill="#f7cc07" d="m216.094 359.594-15.145-18.281 21.793-.16Zm0 0"/><path fill="#f6cd0a" d="m200.95 341.313 15.144 18.28-38.168 2.91Zm0 0"/><path fill="#dfa008" d="m114.27 236.004-5.477-13.156 30.918 1.566Zm0 0"/><path fill="#d48f0a" d="m83.66 223.176 25.133-.328-8.332 11.851Zm0 0"/><path fill="#c4730f" d="m108.793 222.848 5.477 13.156-13.81-1.305Zm0 0"/><path fill="#f5c702" d="m64.508 195.559 23.832 2.187-18.602 6.16Zm0 0"/><path fill="#fed500" d="m70.754 177.195 17.586 20.551-23.832-2.187Zm0 0"/><path fill="#e9b205" d="m88.34 197.746 20.453 25.102-25.133.328Zm0 0"/><path fill="#f4d119" d="m32.887 246.55-32.89 15.622L0 243.937Zm0 0"/><path fill="#f1d021" d="m.004 303.52 33.965-32.536 10.304 25.196Zm0 0"/><path fill="#f2d01e" d="m-.004 262.172 33.973 8.812L.004 303.52Zm0 0"/><path fill="#f2d01f" d="m33.969 270.984-33.973-8.812 32.89-15.621Zm0 0"/><path fill="#f3d01b" d="M64.578 312.203 44.273 296.18l23.754-15.446Zm0 0"/><path fill="#f7ca03" d="m66.656 239.086-18.738 2.23 6.148-19.156Zm0 0"/><path fill="#680a6c" d="m77.273 231.863-10.617 7.223-12.59-16.926Zm0 0"/><path fill="#f3ca0f" d="m54.148 251.934 12.508-12.848L71.04 258.5Zm0 0"/><path fill="#ecce2f" d="m54.148 251.934-21.261-5.383 15.031-5.235Zm0 0"/><path fill="#b7bbc3" d="m41.434 231.977-8.547 14.574-11.301-20.016Zm0 0"/><path fill="#b7bbc3" d="m32.887 246.55 8.547-14.573 6.484 9.34Zm0 0"/><path fill="#742f87" d="m47.918 241.316 18.738-2.23-12.508 12.848Zm0 0"/><path fill="#600b83" d="m104.457 270.02 10.098 11.101-12.657.188Zm0 0"/><path fill="#62138a" d="m71.04 258.5 7.558 15.215-12.399-7.258Zm0 0"/><path fill="#661886" d="M78.598 273.715 71.039 258.5l10.336 3.441Zm0 0"/><path fill="#992f1f" d="m88.172 237.082-4.512-13.906 16.8 11.523Zm0 0"/><path fill="#5e0d8b" d="m96.73 250.012-8.558-12.93 12.289-2.383Zm0 0"/><path fill="#8d1e26" d="m83.66 223.176 4.512 13.906-10.899-5.219Zm0 0"/><path fill="#fed600" d="m153.332 202.875-32.168-.25 14.766-18.86Zm0 0"/><path fill="#fed600" d="m121.164 202.625 32.168.25-13.621 21.54Zm0 0"/><path fill="#861933" d="m130.516 243.977-17.848.585 1.602-8.558Zm0 0"/><path fill="#d58f0a" d="m130.516 243.977-16.246-7.973 25.44-11.59Zm0 0"/><path fill="#f3ca0e" d="m188.691 168.156 22.414 30.66-30.554-.593Zm0 0"/><path fill="#b7bbc4" d="m147.008 151.352-11.078 32.414-13.336-1.864Zm0 0"/><path fill="#b8bbc4" d="m45.785 150.395-12.34 36.945L0 146.355ZM70.754 177.195 33.445 187.34l12.34-36.945Zm0 0"/><path fill="#ecb704" d="m58.293 206.426 6.215-10.867 5.23 8.347Zm0 0"/><path fill="#f7ca01" d="m33.445 187.34 31.063 8.219-6.215 10.867Zm0 0"/><path fill="#fed600" d="m70.754 177.195-6.246 18.364-31.063-8.22ZM303.367 172.746l24.254-25.133 5.203 30.922Zm0 0"/><path fill="#fad002" d="m295.953 146.977 7.414 25.77-18.414.073Zm0 0"/><path fill="#b8bbc4" d="M337.645 40.43 308.246 0H384ZM384 70.988 337.645 40.43 384 0Zm0 0"/><path fill="#b8bbc4" d="M337.645 40.43 384 70.988l-54.148 6.547Zm0 0"/><path fill="#f0ca18" d="m137.832 384-1.375-29.578 41.469 8.082Zm0 0"/><path fill="#f0cd1f" d="m89.602 352.398-15.25 31.606-34.184-44.11Zm0 0"/><path fill="#eecb22" d="m74.352 384.004 15.25-31.606L137.832 384Zm0 0"/><path fill="#f1ce20" d="m64.578 312.203-24.41 27.692 4.105-43.715Zm0 0"/><path fill="#f1cf21" d="M40.168 339.895 0 355.648l.004-52.128Zm0 0"/><path fill="#e2cb4e" d="m259.766 165.207-24.48 22.781-7.77-18.449Zm0 0"/><path fill="#fed600" d="m210.625 154.34 16.89 15.2-17.277.96ZM227.602 143.164l32.164 22.043-32.25 4.332Zm0 0"/><path fill="#761253" d="m160.516 291.5 2.277-13.602 18.02 25.149Zm0 0"/><path fill="#9c5c57" d="m160.516 291.5-10.891 8.96-4.172-10.39Zm0 0"/><path fill="#711f73" d="m162.793 277.898-2.277 13.602-15.063-1.43Zm0 0"/><path fill="#cd992f" d="m199.656 318.895-18.844-15.848 20.704-12.188Zm0 0"/><path fill="#f3c90c" d="m180.39 277.188-17.597.71 2.945-15.449Zm0 0"/><path fill="#65117f" d="m130.691 283.984-12.066-11.644 10.41-1.031Zm0 0"/><path fill="#bf8536" d="m136.27 262.758.132-7.445 9.274 2.925Zm0 0"/><path fill="#c7841e" d="m165.91 258.965-.172 3.484-20.062-4.21Zm0 0"/><path fill="#e1a507" d="m199.617 223.426 14.395 20.172-26.117 1.597Zm0 0"/><path fill="#ecb804" d="m214.012 243.598-14.395-20.172 31.149-3.473Zm0 0"/><path fill="#fed600" d="m235.285 187.988 28.492 11.754-33.011 20.211Zm0 0"/><path fill="#f8cc01" d="m263.777 199.742-12.656 23.301-20.355-3.09Zm0 0"/><path fill="#f4c402" d="m251.121 223.043 12.656-23.3 4.371 23.823Zm0 0"/><path fill="#e9b205" d="m263.777 199.742 17.684 14.473-13.313 9.351Zm0 0"/><path fill="#fed600" d="m227.516 169.54-16.41 29.276-.868-28.316Zm0 0"/><path fill="#fed600" d="m211.105 198.816 16.41-29.277 7.77 18.45ZM174.121 225.785l6.43-27.562 19.066 25.203Zm0 0"/><path fill="#f4c502" d="m174.121 225.785 25.496-2.36-11.722 21.77Zm0 0"/><path fill="#f3ca0f" d="m338.84 271.828 21.574 11.848-32.453 16.926Zm0 0"/><path fill="#fad105" d="m360.414 283.676-21.574-11.848 8.918-15.148Zm0 0"/><path fill="#c7be94" d="m365.871 233.816 1.461 15.54-9.027-4.993Zm0 0"/><path fill="#f4d119" d="m384 275.977-16.668-26.622 16.676-7.003Zm0 0"/><path fill="#b9bcc1" d="m367.332 249.355-1.46-15.539 18.136 8.536Zm0 0"/><path fill="#66076f" d="m248.129 248.918 9.484-14.527 6.004 10.672Zm0 0"/><path fill="#e4a906" d="m257.613 234.39-6.492-11.347 17.027.523Zm0 0"/><path fill="#d38d0a" d="m251.121 223.043 6.492 11.348-14.027 5.464Zm0 0"/><path fill="#6f0655" d="m257.613 234.39-9.484 14.528-4.543-9.063Zm0 0"/><path fill="#f8cd02" d="m300.156 191.258 2.399 22.906-12.48 2.527Zm0 0"/><path fill="#face01" d="m302.555 214.164-10.801 16.422-1.68-13.895Zm0 0"/><path fill="#fcd200" d="m302.555 214.164-2.399-22.906 10.934-.293Zm0 0"/><path fill="#fed600" d="m302.555 214.164 17.664 16.649-28.465-.227ZM263.617 245.063l16.195-2.97-1.171 13.895Zm0 0"/><path fill="#fed600" d="m278.64 255.988 1.173-13.894 22.105 9.02Zm0 0"/><path fill="#7c0b3a" d="m238.738 271.355 20.575 1.512-7.633 14.04Zm0 0"/><path fill="#740648" d="m259.313 272.867 12.73 15.067-20.363-1.028Zm0 0"/><path fill="#8c374d" d="m259.313 272.867-20.575-1.512 14.434-13.753Zm0 0"/><path fill="#b8bcc2" d="m346.086 210.742 22.07-9.426-11.648 16.602Zm0 0"/><path fill="#f3cd15" d="m234.125 365.54-1.371-20.74 19.309 11.891Zm0 0"/><path fill="#f6ce0c" d="m234.125 365.54-18.031-5.946 16.66-14.793Zm0 0"/><path fill="#f2cc17" d="m216.094 359.594 18.031 5.945-19.89 18.465Zm0 0"/><path fill="#f1ca16" d="m234.125 365.54 23.035 18.464h-42.926Zm0 0"/><path fill="#efcb1d" d="m234.125 365.54 17.938-8.849 5.097 27.313Zm0 0"/><path fill="#f3cc11" d="m252.063 356.691 31.5 2.52-26.403 24.793Zm0 0"/><path fill="#f6cd0a" d="m283.563 359.21-31.5-2.519 15.14-18.402Zm0 0"/><path fill="#5c0a8c" d="m340.941 227.84 7.375 6.86-14.351 6.44Zm0 0"/><path fill="#5f0e8a" d="m348.316 234.7-7.375-6.86 15.567-9.922Zm0 0"/><path fill="#5e0c8a" d="m340.941 227.84 5.145-17.098 10.422 7.176Zm0 0"/><path fill="#e4aa06" d="m346.086 210.742-5.145 17.098-10.566-21.703Zm0 0"/><path fill="#f2cd17" d="m322.563 384 29.78-33.785L384 383.996Zm0 0"/><path fill="#b36b2f" d="m285.465 299.945 19.191-12.36-10.906 28.08Zm0 0"/><path fill="#953a3b" d="m293.75 315.664 17.027-4.687-4.703 14.648Zm0 0"/><path fill="#6a0f6f" d="m310.777 310.977-17.027 4.687 10.906-28.078Zm0 0"/><path fill="#f0c30b" d="m319.004 320.34-1.356 23.156-11.574-17.871Zm0 0"/><path fill="#82254e" d="m310.777 310.977 8.227 9.363-12.93 5.285Zm0 0"/><path fill="#822a57" d="m242.523 338.746 20.325-16.07 4.355 15.613Zm0 0"/><path fill="#f5cb07" d="m252.063 356.691-9.54-17.945 24.68-.457Zm0 0"/><path fill="#91363e" d="m285.465 299.945-22.617 22.73-7.598-18.53Zm0 0"/><path fill="#6b1170" d="m262.848 322.676 22.617-22.73 8.285 15.718Zm0 0"/><path fill="#f4ce12" d="M348.203 326.063 384 322.21l-31.656 28.004Zm0 0"/><path fill="#f2ce1a" d="M384 322.21v61.786l-31.656-33.781Zm0 0"/><path fill="#67096e" d="m259.766 165.207 8.14-31.488 10.446 13.5Zm0 0"/><path fill="#b7bbc4" d="m235.008 107.871 18.547 23.336-24.344 10.125Zm0 0"/><path fill="#7f0d34" d="m229.172 293.285-7.637-16.844 10.656.633Zm0 0"/><path fill="#7c0a39" d="m201.516 290.86 20.02-14.419 7.636 16.844Zm0 0"/><path fill="#e8bb17" d="m255.25 304.145-18.508 1.253 2.863-12.937Zm0 0"/><path fill="#a04830" d="m236.742 305.398 18.508-1.253-19.496 15.812Zm0 0"/><path fill="#740f54" d="m255.25 304.145 7.598 18.53-27.094-2.718Zm0 0"/><path fill="#a14930" d="m235.754 319.957 6.77 18.79-11.45-4.063Zm0 0"/><path fill="#953c3c" d="m236.742 305.398-.988 14.559-15.383-14.43Zm0 0"/><path fill="#b46523" d="m199.656 318.895 1.86-28.036 18.855 14.668Zm0 0"/><path fill="#79124d" d="m219.691 328.07-20.035-9.175 20.715-13.368Zm0 0"/><path fill="#f5cf13" d="m68.027 280.734 8.688 7.043-12.137 24.426Zm0 0"/><path fill="#fed600" d="m135.93 183.766-14.766 18.859 1.43-20.723Zm0 0"/><path fill="#face01" d="m121.164 202.625 18.547 21.79-30.918-1.567Zm0 0"/><path fill="#fed600" d="m121.164 202.625-18.621-19.883 20.05-.84Zm0 0"/><path fill="#fdd500" d="m121.164 202.625-12.371 20.223-20.453-25.102Zm0 0"/><path fill="#fed600" d="m102.543 182.742 18.621 19.883-32.824-4.879Zm0 0"/><path fill="#efcf26" d="m33.969 270.984-1.082-24.433 21.261 5.383Zm0 0"/><path fill="#f3cc11" d="m66.2 266.457-10.407 5.356-1.645-19.88Zm0 0"/><path fill="#f5d115" d="m68.027 280.734-12.234-8.921 10.406-5.356Zm0 0"/><path fill="#f0cf22" d="m44.273 296.18 11.52-24.368 12.234 8.922Zm0 0"/><path fill="#f4d11c" d="m55.793 271.813-21.824-.829 20.18-19.05Zm0 0"/><path fill="#efcf25" d="m33.969 270.984 21.824.829-11.52 24.367Zm0 0"/><path fill="#efcb20" d="m40.168 339.895 24.41-27.692 25.024 40.195Zm0 0"/><path fill="#f4cc0e" d="m64.578 312.203 26.621 9.43-1.597 30.765Zm0 0"/><path fill="#732374" d="m109.145 289.254 5.41-8.133 8.27 8.832Zm0 0"/><path fill="#d49e1f" d="m109.145 289.254 5.582 10.598-20.57-4.922Zm0 0"/><path fill="#e3b316" d="m101.898 281.309 7.247 7.945-14.989 5.676Zm0 0"/><path fill="#7c2863" d="m114.555 281.121-5.41 8.133-7.247-7.945Zm0 0"/><path fill="#6b1777" d="m118.625 272.34-4.07 8.781-10.098-11.101Zm0 0"/><path fill="#e9ba10" d="m106.227 262.844 12.398 9.496-14.168-2.32Zm0 0"/><path fill="#5c0b8f" d="m88.172 237.082-7.79 8.547-3.109-13.766Zm0 0"/><path fill="#fad103" d="m66.656 239.086 13.727 6.543-9.344 12.871Zm0 0"/><path fill="#5f0c89" d="m80.383 245.629-13.727-6.543 10.617-7.223Zm0 0"/><path fill="#e1aa0e" d="m165.91 258.965 18.14-1.535-18.312 5.02Zm0 0"/><path fill="#7c1344" d="m184.05 257.43-18.14 1.535 2.211-9.828Zm0 0"/><path fill="#fed600" d="m153.332 202.875 10.234-25.234 16.985 20.582ZM163.566 177.64l25.125-9.484-8.14 30.067Zm0 0"/><path fill="#fed500" d="m135.93 183.766 27.636-6.125-10.234 25.234Zm0 0"/><path fill="#b7bbc4" d="m188.691 168.156-41.683-16.804 41.918-32.637ZM188.926 118.715l-41.918 32.637-17.692-39.872Zm0 0"/><path fill="#b7bbc4" d="m163.566 177.64-16.558-26.288 41.683 16.804Zm0 0"/><path fill="#b7bac4" d="m147.008 151.352 16.558 26.289-27.636 6.125Zm0 0"/><path fill="#b7bbc4" d="m70.754 177.195-24.969-26.8 34.887-18.856ZM107.305 154.95l-36.551 22.245 9.918-45.656Zm0 0"/><path fill="#f4c603" d="m291.754 230.586-9.8-6.543 8.12-7.352Zm0 0"/><path fill="#7d0f3b" d="m281.953 224.043-.492-9.828 8.613 2.476Zm0 0"/><path fill="#820d2b" d="m281.46 214.215.493 9.828-13.805-.477Zm0 0"/><path fill="#fed600" d="m263.777 199.742-4.011-34.535 25.187 7.613Zm0 0"/><path fill="#fed600" d="m259.766 165.207 4.011 34.535-28.492-11.754Zm0 0"/><path fill="#f7c901" d="m263.777 199.742 21.176-26.922 15.203 18.438Zm0 0"/><path fill="#dfa107" d="m281.46 214.215-17.683-14.473 36.38-8.484Zm0 0"/><path fill="#b7b9c2" d="m315.05 114.922 14.802-37.387 18.09 27.973Zm0 0"/><path fill="#b8bbc2" d="m329.852 77.535-14.801 37.387-6.63-21.238Zm0 0"/><path fill="#fdd400" d="m309.988 147.984 17.633-.37-24.254 25.132Zm0 0"/><path fill="#5f0e8c" d="m295.953 146.977 14.035 1.007-6.62 24.762Zm0 0"/><path fill="#600f8a" d="m309.988 147.984-14.035-1.007 4.453-25.707Zm0 0"/><path fill="#f2cc17" d="m89.602 352.398 46.855 2.024L137.832 384Zm0 0"/><path fill="#fed600" d="m210.625 154.34 16.977-11.176-.086 26.375Zm0 0"/><path fill="#b8bbc4" d="m227.602 143.164-38.676-24.45 40.285 22.618ZM227.602 143.164l-16.977 11.176-21.7-35.625Zm0 0"/><path fill="#732374" d="m114.555 281.121 16.136 2.863-7.867 5.97Zm0 0"/><path fill="#620d81" d="m118.625 272.34 12.066 11.644-16.136-2.863Zm0 0"/><path fill="#72267a" d="m127.102 257.336 9.168 5.422-7.235 8.55Zm0 0"/><path fill="#d19d26" d="m136.27 262.758-9.168-5.422 9.3-2.024Zm0 0"/><path fill="#730a50" d="m145.703 245.508 20.207 13.457-20.234-.727Zm0 0"/><path fill="#6f0f60" d="m136.402 255.313 9.301-9.805-.027 12.73Zm0 0"/><path fill="#922322" d="m165.91 258.965-20.207-13.457 22.418 3.629Zm0 0"/><path fill="#98352a" d="m145.703 245.508-9.3 9.804-5.887-11.335Zm0 0"/><path fill="#e0a307" d="m139.71 224.414 5.993 21.094-15.187-1.531Zm0 0"/><path fill="#ce850c" d="m168.121 249.137-22.418-3.63-5.992-21.093Zm0 0"/><path fill="#79104a" d="m180.813 303.047-.422-25.86 21.125 13.672Zm0 0"/><path fill="#79134c" d="m162.793 277.898 17.598-.71.422 25.859Zm0 0"/><path fill="#70237d" d="m137.875 337.945 14.273-14.453 15.079 16.965Zm0 0"/><path fill="#d6a629" d="m127.262 299.805 4.347-7.563 10.453 9.707Zm0 0"/><path fill="#ba813d" d="m127.54 312.078-.278-12.273 14.8 2.144Zm0 0"/><path fill="#6a197e" d="m165.738 262.45-23.535 11.343 3.473-15.555Zm0 0"/><path fill="#6b1d7f" d="m142.203 273.793-5.933-11.035 9.406-4.52Zm0 0"/><path fill="#71257c" d="m136.27 262.758 5.933 11.035-13.168-2.484Zm0 0"/><path fill="#f3c90d" d="m142.203 273.793 23.535-11.344-2.945 15.45Zm0 0"/><path fill="#610e85" d="m213.684 250.785 6.324 9.715-35.957-3.07Zm0 0"/><path fill="#a94a1b" d="m213.684 250.785-29.633 6.645 3.844-12.235Zm0 0"/><path fill="#c97d10" d="m214.012 243.598-.328 7.187-25.79-5.59Zm0 0"/><path fill="#fed600" d="m180.55 198.223-6.429 27.562-20.789-22.91Zm0 0"/><path fill="#fcd300" d="m174.121 225.785-34.41-1.37 13.621-21.54Zm0 0"/><path fill="#e8b005" d="m174.121 225.785-6 23.352-28.41-24.723Zm0 0"/><path fill="#7e3671" d="m339.941 257.762.036-7.547 7.78 6.465Zm0 0"/><path fill="#640e7d" d="m338.84 271.828 1.101-14.066 7.817-1.082Zm0 0"/><path fill="#7b235c" d="m327.664 273.246 11.176-1.418-10.88 28.774Zm0 0"/><path fill="#953431" d="m320.602 294.566 7.062-21.32.297 27.356Zm0 0"/><path fill="#721c6b" d="m310.777 310.977 9.825-16.41 7.359 6.035Zm0 0"/><path fill="#a14e36" d="m320.602 294.566-9.825 16.41-6.12-23.39Zm0 0"/><path fill="#f7cf0c" d="m367.332 249.355-6.918 34.32-12.656-26.995Zm0 0"/><path fill="#fcd402" d="m367.332 249.355-19.574 7.325 10.547-12.317Zm0 0"/><path fill="#f6d011" d="M367.332 249.355 384 275.977l-23.586 7.699Zm0 0"/><path fill="#fed600" d="m279.813 242.094 11.94-11.508 10.165 20.527Zm0 0"/><path fill="#fed500" d="m291.754 230.586 28.465.226-18.301 20.301Zm0 0"/><path fill="#fed600" d="m330.375 206.137-27.82 8.027 8.535-23.2ZM302.555 214.164l27.82-8.027-10.156 24.676Zm0 0"/><path fill="#cc9426" d="m286.285 273.316-7.644-17.328 23.277-4.875Zm0 0"/><path fill="#710752" d="m272.043 287.934-12.73-15.067 26.972.45Zm0 0"/><path fill="#81305f" d="m278.64 255.988-19.327 16.88-6.141-15.266Zm0 0"/><path fill="#dfa912" d="m259.313 272.867 19.328-16.879 7.644 17.328Zm0 0"/><path fill="#cd850f" d="m320.219 230.813 20.722-2.973-6.976 13.3Zm0 0"/><path fill="#efbc04" d="m340.941 227.84-20.722 2.972 10.156-24.675Zm0 0"/><path fill="#9b4235" d="m304.656 287.586-19.191 12.36.82-26.63Zm0 0"/><path fill="#f3c808" d="m327.96 300.602 20.243 25.46-29.2-5.722Zm0 0"/><path fill="#efc716" d="m360.414 283.676-12.21 42.387-20.243-25.461Zm0 0"/><path fill="#ebc620" d="m384 322.21-35.797 3.853 12.211-42.387Zm0 0"/><path fill="#fbd001" d="m259.766 165.207-6.211-34 14.351 2.512Zm0 0"/><path fill="#fed600" d="m259.766 165.207-32.164-22.043 1.609-1.832Zm0 0"/><path fill="#fed600" d="m253.555 131.207 6.21 34-30.554-23.875Zm0 0"/><path fill="#a5421a" d="m282.473 96.668 2.293 16.687-6.25-6.27Zm0 0"/><path fill="#b45913" d="m284.766 113.355-2.293-16.687 12.293-7.29Zm0 0"/><path fill="#7f2455" d="m295.148 115.992-10.382-2.637 10-23.976Zm0 0"/><path fill="#fed600" d="m300.406 121.27 14.645-6.348 4.61 19.676Zm0 0"/><path fill="#aa562b" d="m219.691 328.07 16.063-8.113-4.68 14.727Zm0 0"/><path fill="#770f4d" d="m235.754 319.957-16.063 8.113.68-22.543Zm0 0"/><path fill="#f2ca0f" d="m167.227 340.457 33.722.856-23.023 21.19Zm0 0"/><path fill="#a9582f" d="m200.95 341.313-1.294-22.418 20.035 9.175Zm0 0"/><path fill="#ba7933" d="m199.656 318.895 1.293 22.418-16.644-13.875Zm0 0"/><path fill="#873f67" d="m94.156 294.93-7.617-13.426 15.36-.195Zm0 0"/><path fill="#cd9120" d="m76.715 287.777 9.824-6.273 7.617 13.426Zm0 0"/><path fill="#8d445d" d="m114.727 299.852-13.145 13.738-7.426-18.66Zm0 0"/><path fill="#f4ca0b" d="m91.2 321.633 23.859 11.957-25.457 18.808Zm0 0"/><path fill="#833b6c" d="m115.059 333.59-23.86-11.957 10.383-8.043Zm0 0"/><path fill="#e6b715" d="m106.227 262.844-1.77 7.176-15.285-2.032Zm0 0"/><path fill="#f7cd06" d="m95.781 254.11 10.446 8.734-17.055 5.144Zm0 0"/><path fill="#5b0a8f" d="m80.383 245.629 7.789-8.547 8.558 12.93Zm0 0"/><path fill="#e8ba13" d="m71.04 258.5 9.343-12.871.992 16.312Zm0 0"/><path fill="#a1391a" d="m187.895 245.195-3.844 12.235-15.93-8.293Zm0 0"/><path fill="#de9f08" d="m174.121 225.785 13.774 19.41-19.774 3.942Zm0 0"/><path fill="#fed600" d="m327.621 147.613 19.664 19.895-14.46 11.027ZM332.824 178.535l-21.734 12.43-7.723-18.219Zm0 0"/><path fill="#fed600" d="m330.375 206.137-19.285-15.172 21.734-12.43Zm0 0"/><path fill="#fcd200" d="m303.367 172.746 7.723 18.219-10.934.293Zm0 0"/><path fill="#fed600" d="m259.766 165.207 18.586-17.988 6.601 25.601Zm0 0"/><path fill="#fed600" d="m278.352 147.219 17.601-.242-11 25.843Zm0 0"/><path fill="#fcd201" d="m295.953 146.977-13.488-13.504 17.941-12.203Zm0 0"/><path fill="#f5cc0c" d="m115.059 333.59 21.398 20.832-46.855-2.024Zm0 0"/><path fill="#eecb23" d="m137.875 337.945 29.352 2.512-30.77 13.965Zm0 0"/><path fill="#f1ca16" d="m136.457 354.422 30.77-13.965 10.699 22.047Zm0 0"/><path fill="#c68e2e" d="m131.61 292.242-4.348 7.563-4.438-9.852Zm0 0"/><path fill="#7c316f" d="m130.691 283.984.918 8.258-8.785-2.289Zm0 0"/><path fill="#fdd500" d="m95.781 254.11 19.125-1.305-8.68 10.039Zm0 0"/><path fill="#f1c40a" d="m96.73 250.012 18.176 2.793-19.125 1.304Zm0 0"/><path fill="#c48d33" d="m118.625 272.34 1.406-7.371 9.004 6.34Zm0 0"/><path fill="#a05f52" d="m120.031 264.969 7.07-7.633 1.934 13.973Zm0 0"/><path fill="#e0b019" d="m120.031 264.969-5.125-12.164 12.196 4.53Zm0 0"/><path fill="#641080" d="m114.906 252.805 11.82-1.2.376 5.73Zm0 0"/><path fill="#721866" d="m130.516 243.977-3.79 7.628-14.058-7.042Zm0 0"/><path fill="#630b7c" d="m126.727 251.605-11.82 1.2-2.239-8.243Zm0 0"/><path fill="#640c7b" d="m136.402 255.313-9.675-3.708 3.789-7.628Zm0 0"/><path fill="#68157c" d="m127.102 257.336-.375-5.73 9.675 3.707Zm0 0"/><path fill="#cbab5b" d="m149.625 300.46-3.098 8.337-4.464-6.848Zm0 0"/><path fill="#61128c" d="m146.527 308.797-18.988 3.281 14.523-10.129Zm0 0"/><path fill="#dbab23" d="m156.969 307.738 3.547-16.238 20.297 11.547Zm0 0"/><path fill="#e9c120" d="m160.516 291.5-3.547 16.238-7.344-7.277Zm0 0"/><path fill="#9c605f" d="m156.969 307.738-10.442 1.059 3.098-8.336Zm0 0"/><path fill="#6b1f85" d="m146.527 308.797 10.442-1.059-4.82 15.754Zm0 0"/><path fill="#c48d34" d="m128.977 320.492 23.171 3-14.273 14.453Zm0 0"/><path fill="#661887" d="m128.977 320.492 17.55-11.695 5.621 14.695Zm0 0"/><path fill="#651789" d="m146.527 308.797-17.55 11.695-1.438-8.414Zm0 0"/><path fill="#964e54" d="m114.727 299.852-5.582-10.598 13.68.7Zm0 0"/><path fill="#e6b612" d="m127.262 299.805-12.535.047 8.097-9.899Zm0 0"/><path fill="#c3892f" d="m118.75 317.277-3.691 16.313-13.477-20Zm0 0"/><path fill="#661684" d="m114.727 299.852 4.023 17.425-17.168-3.687Zm0 0"/><path fill="#6d1f7d" d="m127.54 312.078-8.79 5.2-4.023-17.426Zm0 0"/><path fill="#6c1573" d="m130.691 283.984 32.102-6.086-17.34 12.172Zm0 0"/><path fill="#701569" d="m130.691 283.984 11.512-10.191 20.59 4.105Zm0 0"/><path fill="#7e3570" d="m131.61 292.242-.919-8.258 14.762 6.086Zm0 0"/><path fill="#66127d" d="m142.203 273.793-11.512 10.191-1.656-12.675Zm0 0"/><path fill="#630e80" d="m327.664 273.246 2.785-12.41 8.39 10.992Zm0 0"/><path fill="#620c80" d="m330.45 260.836 9.491-3.074-1.101 14.066Zm0 0"/><path fill="#710851" d="m310.531 265.48-5.875 22.106-18.37-14.27Zm0 0"/><path fill="#bf7721" d="m304.656 287.586 23.008-14.34-7.062 21.32Zm0 0"/><path fill="#6a0966" d="m310.531 265.48 17.133 7.766-23.008 14.34Zm0 0"/><path fill="#670a70" d="m330.45 260.836-2.786 12.41-17.133-7.766Zm0 0"/><path fill="#872e4c" d="m310.777 310.977 17.184-10.375-8.957 19.738Zm0 0"/><path fill="#ddac1b" d="m238.738 271.355-2.27-13.57 16.704-.183Zm0 0"/><path fill="#762974" d="m236.469 257.785 11.66-8.867 5.043 8.684Zm0 0"/><path fill="#f7cb02" d="m291.754 230.586-13.66 1.129 3.86-7.672Zm0 0"/><path fill="#831434" d="m281.953 224.043-3.86 7.672-9.945-8.149Zm0 0"/><path fill="#fdd400" d="m278.094 231.715 13.66-1.13-11.942 11.509Zm0 0"/><path fill="#6a0c6d" d="m278.516 107.086 6.25 6.27-16.86 20.363Zm0 0"/><path fill="#791048" d="m303.059 114.227-2.653 7.043-5.258-5.278Zm0 0"/><path fill="#7e0a35" d="m308.422 93.684-5.363 20.543-8.293-24.848Zm0 0"/><path fill="#821538" d="m303.059 114.227-7.91 1.765-.383-26.613Zm0 0"/><path fill="#7d113f" d="m315.05 114.922-11.991-.695 5.363-20.543Zm0 0"/><path fill="#f5c702" d="m300.406 121.27 2.653-7.043 11.992.695Zm0 0"/><path fill="#702179" d="m184.305 327.438-3.493-24.391 18.844 15.848Zm0 0"/><path fill="#d8a21c" d="m78.598 273.715 7.941 7.789-9.824 6.273Zm0 0"/><path fill="#7c3472" d="m78.598 273.715-10.57 7.02-1.829-14.278Zm0 0"/><path fill="#752976" d="m78.598 273.715-1.883 14.062-8.688-7.043Zm0 0"/><path fill="#671784" d="m101.582 313.59-20.531-8.61 13.105-10.05Zm0 0"/><path fill="#8f4b63" d="m81.05 304.98 20.532 8.61-10.383 8.043Zm0 0"/><path fill="#f7d00e" d="m76.715 287.777 4.336 17.203-16.473 7.223Zm0 0"/><path fill="#9b534f" d="m81.05 304.98-4.335-17.203 17.441 7.153Zm0 0"/><path fill="#f5cd0d" d="m81.05 304.98 10.15 16.653-26.622-9.43Zm0 0"/><path fill="#5d0a8a" d="m112.668 244.563 2.238 8.242-18.176-2.793Zm0 0"/><path fill="#8d202b" d="m114.27 236.004-1.602 8.559-12.207-9.864Zm0 0"/><path fill="#5f0c88" d="m112.668 244.563-15.938 5.449 3.73-15.313Zm0 0"/><path fill="#dcaa1d" d="m80.383 245.629 15.398 8.48-14.406 7.832Zm0 0"/><path fill="#f9cf04" d="m95.781 254.11-15.398-8.481 16.347 4.383Zm0 0"/><path fill="#fcd302" d="m81.375 261.941 14.406-7.832-6.61 13.88Zm0 0"/><path fill="#f6ca05" d="m219.313 268.273 7.367-1.503-5.145 9.671Zm0 0"/><path fill="#e1aa0f" d="m221.535 276.441 5.145-9.671 5.511 10.304Zm0 0"/><path fill="#efc20d" d="m226.68 266.77 12.058 4.585-6.547 5.72Zm0 0"/><path fill="#f7cd05" d="m226.68 266.77-7.368 1.503.696-7.773Zm0 0"/><path fill="#e8b50c" d="m236.469 257.785-9.79 8.985-6.671-6.27Zm0 0"/><path fill="#daa81f" d="m226.68 266.77 9.789-8.985 2.27 13.57Zm0 0"/><path fill="#800c31" d="m197.191 274.988 24.344 1.453-20.02 14.418Zm0 0"/><path fill="#f8ce04" d="m197.191 274.988 22.121-6.715 2.223 8.168Zm0 0"/><path fill="#7b1044" d="m180.39 277.188 16.801-2.2 4.325 15.871Zm0 0"/><path fill="#fbd103" d="m219.313 268.273-22.122 6.715 22.817-14.488Zm0 0"/><path fill="#ca8b1f" d="m197.191 274.988-13.14-17.558 35.957 3.07Zm0 0"/><path fill="#d5a021" d="m184.05 257.43 13.141 17.558-16.8 2.2Zm0 0"/><path fill="#c78d2a" d="m184.05 257.43-3.66 19.757-14.652-14.738Zm0 0"/><path fill="#b7bac4" d="m347.285 167.508-19.664-19.895 13.606-16.12Zm0 0"/><path fill="#b7bac2" d="m341.227 131.492-26.176-16.57 32.89-9.414Zm0 0"/><path fill="#b7bbc3" d="m315.05 114.922 26.177 16.57-21.567 3.106Zm0 0"/><path fill="#b7bac4" d="m341.227 131.492-13.606 16.121-7.96-13.015Zm0 0"/><path fill="#fbd000" d="m348.492 195.219-18.117 10.918 2.45-27.602Zm0 0"/><path fill="#fcd300" d="m330.375 206.137 18.117-10.918-2.406 15.523Zm0 0"/><path fill="#fdd500" d="m348.492 195.219-15.668-16.684 14.461-11.027Zm0 0"/><path fill="#b9bcc2" d="m348.492 195.219-1.207-27.711 20.871 33.808Zm0 0"/><path fill="#b8bcc4" d="m346.086 210.742 2.406-15.523 19.664 6.097Zm0 0"/><path fill="#fdd400" d="m278.352 147.219 4.113-13.746 13.488 13.504Zm0 0"/><path fill="#640f80" d="m267.906 133.719 14.559-.246-4.113 13.746Zm0 0"/><path fill="#f3c90b" d="m115.059 333.59 22.816 4.355-1.418 16.477Zm0 0"/><path fill="#781452" d="m200.95 341.313-33.723-.856 17.078-13.02Zm0 0"/><path fill="#cd9425" d="m114.906 252.805 5.125 12.164-13.804-2.125Zm0 0"/><path fill="#f0c40b" d="m106.227 262.844 13.804 2.125-1.406 7.37Zm0 0"/><path fill="#bb792e" d="m127.54 312.078-12.813-12.226 12.535-.047Zm0 0"/><path fill="#e7b007" d="m333.965 241.14-6.223 5.743-7.523-16.07Zm0 0"/><path fill="#ebbd0f" d="m327.742 246.883-25.824 4.23 18.3-20.3Zm0 0"/><path fill="#d8a621" d="m330.45 260.836 9.527-10.621-.036 7.547Zm0 0"/><path fill="#fad003" d="m339.977 250.215-12.235-3.332 6.223-5.742Zm0 0"/><path fill="#f5ca07" d="m327.742 246.883 12.235 3.332-9.528 10.62Zm0 0"/><path fill="#690b6c" d="m248.129 248.918-14.82-2.434 10.277-6.629Zm0 0"/><path fill="#63097b" d="m236.469 257.785-3.16-11.3 14.82 2.433Zm0 0"/><path fill="#5f0e8a" d="m233.309 246.484 3.16 11.301-16.461 2.715Zm0 0"/><path fill="#e2a707" d="m243.586 239.855-10.277 6.63-2.543-26.532Zm0 0"/><path fill="#e3a906" d="m233.309 246.484-19.297-2.886 16.754-23.645Zm0 0"/><path fill="#630d7e" d="m213.684 250.785 19.625-4.3-13.301 14.015Zm0 0"/><path fill="#b25716" d="m233.309 246.484-19.625 4.301.328-7.187Zm0 0"/><path fill="#810d2f" d="m270.363 236.715-12.75-2.324 10.535-10.825Zm0 0"/><path fill="#7c0c3a" d="m278.094 231.715-7.73 5-2.216-13.149Zm0 0"/><path fill="#eab405" d="m270.363 236.715 7.73-5 1.72 10.379Zm0 0"/><path fill="#700a59" d="m257.613 234.39 12.75 2.325-6.746 8.347Zm0 0"/><path fill="#eebc05" d="m270.363 236.715 9.45 5.379-16.196 2.969Zm0 0"/><path fill="#fcd300" d="m282.465 133.473 12.683-17.48 5.258 5.277Zm0 0"/><path fill="#fcd200" d="m282.465 133.473 2.3-20.118 10.383 2.637Zm0 0"/><path fill="#630c7d" d="m284.766 113.355-2.301 20.118-14.559.246Zm0 0"/><path fill="#fdd401" d="m327.621 147.613-17.633.371 9.672-13.386Zm0 0"/><path fill="#fed600" d="m319.66 134.598-9.672 13.386-9.582-26.714Zm0 0"/><path fill="#8e4055" d="m118.75 317.277 10.227 3.215-13.918 13.098Zm0 0"/><path fill="#833664" d="m128.977 320.492 8.898 17.453-22.816-4.355Zm0 0"/><path fill="#691c83" d="m128.977 320.492-10.227-3.215 8.79-5.199Zm0 0"/><path fill="#f1c60b" d="m310.531 265.48 17.211-18.597 2.707 13.953Zm0 0"/><path fill="#934753" d="m301.918 251.113 8.613 14.367-24.246 7.836Zm0 0"/><path fill="#6d2080" d="m327.742 246.883-17.21 18.597-8.614-14.367Zm0 0"/><path fill="#9b5b59" d="m160.828 321.254-3.86-13.516 23.845-4.691Zm0 0"/><path fill="#702078" d="m184.305 327.438-23.477-6.184 19.984-18.207Zm0 0"/><path fill="#be8132" d="m160.828 321.254 23.477 6.183-17.078 13.02Zm0 0"/><path fill="#732779" d="m156.969 307.738 3.86 13.516-8.68 2.238Zm0 0"/><path fill="#c38f3a" d="m152.148 323.492 8.68-2.238 6.399 19.203Zm0 0"/></svg>