<svg xmlns="http://www.w3.org/2000/svg" width="512" height="512" viewBox="0 0 384 384"><path fill="#313c61" d="m191.64 82.352 41.872-36.907 9.25 39.13ZM48.695 141.05l5.66-68.679 40.407 43.988Zm0 0"/><path fill="#31395f" d="M0 123.52 54.355 72.37l-5.66 68.68Zm0 0"/><path fill="#313c61" d="m54.355 72.371 39.762-5.105.645 49.093Zm0 0"/><path fill="#32385e" d="M384.008 103.984 384 192.121l-19.078-21.508Zm0 0"/><path fill="#313d62" d="m90.254 0 93.742.004-49.77 66.43Zm0 0"/><path fill="#313d62" d="M94.117 67.266 90.254 0l43.973 66.434Zm0 0"/><path fill="#31395f" d="m134.227 66.434 15.785 64.71-55.25-14.785Zm0 0"/><path fill="#313d62" d="m94.117 67.266 40.11-.832-39.465 49.925Zm0 0"/><path fill="#313a60" d="m150.012 131.145-15.785-64.711 57.414 15.918Zm0 0"/><path fill="#313a5f" d="m191.64 82.352-57.413-15.918 49.77-66.43Zm0 0"/><path fill="#313c61" d="m280.066 0-8.109 53.676-38.445-8.23Zm0 0"/><path fill="#313b61" d="M271.957 53.676 280.067 0l51.574 49.66Zm0 0"/><path fill="#323b60" d="m295.55 73.605-23.593-19.93 59.684-4.015Zm0 0"/><path fill="#313c61" d="m233.512 45.445 38.445 8.23-29.195 30.9Zm0 0"/><path fill="#313a60" d="M90.254 0 54.355 72.371 0 0Zm0 0"/><path fill="#313b60" d="m90.254 0 3.863 67.266-39.762 5.105Zm0 0"/><path fill="#d59675" d="m265.902 297.363-22.28 14.946-1.653-33.84Zm0 0"/><path fill="#f3c37d" d="m51.871 200.047-18.398 3.543 1.199-15.711Zm0 0"/><path fill="#32375e" d="M0 242.41v-41.277l19.715 23.683Zm0 0"/><path fill="#32375d" d="m0 201.133 33.473 2.457-13.758 21.226ZM22.375 243.473 0 242.41l19.715-17.594Zm0 0"/><path fill="#32385e" d="m33.473 203.59 9.785 25.398-23.543-4.172Zm0 0"/><path fill="#313e62" d="m120.344 182.227-15.32 1.023 2.91-24Zm0 0"/><path fill="#fece7f" d="m147.203 210.32-.77 21.88-22.14-7.15Zm0 0"/><path fill="#31395f" d="m197.723 134.91-47.711-3.765 41.629-48.793ZM150.012 131.145l-17.465 38.859-24.613-10.754Zm0 0"/><path fill="#313a60" d="m33.473 203.59-8.895-21.688 10.094 5.977ZM24.578 181.902 0 201.132V123.52Zm0 0"/><path fill="#32395f" d="m0 201.133 24.578-19.23 8.895 21.687Zm0 0"/><path fill="#32385f" d="m350.84 134.875-9.192-30.996 42.36.105Zm0 0"/><path fill="#323b60" d="m318.043 90.715-22.492-17.11 36.09-23.945ZM295.55 73.605l22.493 17.11-11.09 5.515Zm0 0"/><path fill="#fecf7f" d="m281.836 170.367-3.027 23.867-21.332-27.261ZM250.367 220.168l-52.898-18.527 45.691-15.274Zm0 0"/><path fill="#f9c57e" d="m270.648 250.54 7.215 4.667-10.425 2.543Zm0 0"/><path fill="#fab37d" d="m211.684 364.031-49.47 19.965 25.661-27.758Zm0 0"/><path fill="#3f2d56" d="m254.137 273.129 11.765 24.234-23.933-18.894Zm0 0"/><path fill="#32385e" d="M384 192.121v51.399l-20.895-19.305Zm0 0"/><path fill="#32385e" d="m384 243.52-23.82-.372 2.925-18.933Zm0 0"/><path fill="#fab97e" d="m319.11 348.898 26.874 7.387-31.722 27.711Zm0 0"/><path fill="#313b61" d="M183.996.004 280.066 0l-46.554 45.445Zm0 0"/><path fill="#313d62" d="m271.957 53.676.863 30.988-30.058-.09Zm0 0"/><path fill="#313c61" d="m272.82 84.664-.863-30.988 23.594 19.93Zm0 0"/><path fill="#31395f" d="M0 123.52V0l54.355 72.371Zm0 0"/><path fill="#7a4b60" d="m243.621 312.309-19.226-11.934 17.574-21.906Zm0 0"/><path fill="#f9b07d" d="m238.39 357.648-13.824-15.836 22.61-.164Zm0 0"/><path fill="#4e3058" d="m197.836 334.79 24.559-9.614 2.171 16.637Zm0 0"/><path fill="#b48c6f" d="m51.871 200.047 17.356 12.316-12.91 9Zm0 0"/><path fill="#f9c87e" d="M69.227 212.363 51.87 200.047l14.734-6.508Zm0 0"/><path fill="#826365" d="m69.227 212.363.003 14.477-12.914-5.477Zm0 0"/><path fill="#fecf7f" d="m88.816 201.48-19.59 10.883-2.62-18.824Zm0 0"/><path fill="#c89c74" d="m51.871 200.047 4.445 21.316-22.843-17.773Zm0 0"/><path fill="#32395e" d="m56.316 221.363-13.058 7.625-9.785-25.398Zm0 0"/><path fill="#fbc27e" d="m56.316 221.363-4.46 10.418-8.598-2.793Zm0 0"/><path fill="#f9b57d" d="m48.2 243.3-7.259 14.731-18.566-14.558Zm0 0"/><path fill="#4d3459" d="M60.742 257.016 48.2 243.3l15.399 1.156Zm0 0"/><path fill="#f7b27d" d="m48.2 243.3 12.542 13.716-19.8 1.015Zm0 0"/><path fill="#f6c37d" d="m83.313 222.617-14.086-10.254 19.59-10.883Zm0 0"/><path fill="#856565" d="m69.227 212.363 14.085 10.254-14.082 4.223Zm0 0"/><path fill="#472e57" d="m106.605 272.46-22.785 1.032 5.07-8.449Zm0 0"/><path fill="#402d56" d="m106.605 272.46-2.675 15.294-20.11-14.262Zm0 0"/><path fill="#413057" d="m60.742 257.016 23.078 16.476-8.543 8.7Zm0 0"/><path fill="#32375e" d="m207.824 157.613-16.031 8.153 5.93-30.856Zm0 0"/><path fill="#fecf7f" d="m203.29 172.457-11.497-6.691 16.031-8.153Zm0 0"/><path fill="#313b61" d="m132.547 170.004-12.203 12.223-12.41-22.977Zm0 0"/><path fill="#fecf7f" d="m86.273 178.973 18.75 4.277-16.207 18.23Zm0 0"/><path fill="#32385e" d="m107.934 159.25-13.172-42.89 55.25 14.785Zm0 0"/><path fill="#313c61" d="m86.273 178.973 21.66-19.723-2.91 24Zm0 0"/><path fill="#313a60" d="M341.648 103.879 331.641 49.66l52.367 54.324Zm0 0"/><path fill="#31395f" d="m331.64 49.66 10.008 54.219-23.605-13.164Zm0 0"/><path fill="#32385e" d="m350.84 134.875 33.168-30.89-19.086 66.628ZM384 192.121l-20.68 2.086 1.602-23.594Zm0 0"/><path fill="#32385e" d="m363.105 224.215.215-30.008 20.68-2.086ZM280.066 0H384l-52.36 49.66Zm0 0"/><path fill="#fab57d" d="m162.215 383.996 3.187-30.73 22.473 2.972Zm0 0"/><path fill="#fbb67e" d="m162.215 383.996-21.582-24.422 24.77-6.308Zm0 0"/><path fill="#fab47d" d="m165.402 353.266 19.098-10.93 3.375 13.902Zm0 0"/><path fill="#fbbc7e" d="m0 384.004-.004-70.996L42 341.82Zm0 0"/><path fill="#fab87e" d="M75.406 384.012 0 384.004l42-42.184Zm0 0"/><path fill="#fecf7f" d="m261.527 163.094 20.309 7.273-24.36-3.394ZM278.809 194.234l3.027-23.867 21.719 1.844Zm0 0"/><path fill="#372b55" d="m127.7 289.484 14.562-3.84-3.032 13.34Zm0 0"/><path fill="#ff9e7d" d="m197.469 201.64 20.633-22.226 25.058 6.953Zm0 0"/><path fill="#fbbd7e" d="m337.887 330.293 25.629-53.66 20.488 51.047Zm0 0"/><path fill="#3a2c56" d="m250.445 258.527 20.203-7.988-3.21 7.211Zm0 0"/><path fill="#453257" d="m265.902 297.363.774-22.09 16.027-1.457Zm0 0"/><path fill="#f9b17c" d="m211.684 364.031 28.87 19.98-78.34-.015Zm0 0"/><path fill="#fab47d" d="m265.215 360.352-26.824-2.704 8.785-16Zm0 0"/><path fill="#855965" d="m360.18 243.148-10.676 9.454-4.875-17.54Zm0 0"/><path fill="#755161" d="m292.21 304.563-26.308-7.2 16.801-23.547Zm0 0"/><path fill="#f0b37a" d="m306.191 286.59-13.98 17.973-9.508-30.747Zm0 0"/><path fill="#e19d76" d="m298.71 318.434-35.57 3.757 29.07-17.628Zm0 0"/><path fill="#eebb7b" d="m302.734 339.078-13.89-4.95 18.566-6.76Zm0 0"/><path fill="#443157" d="m288.844 334.129 9.867-15.695 8.7 8.933Zm0 0"/><path fill="#69415d" d="m298.71 318.434-9.866 15.695-25.703-11.938Zm0 0"/><path fill="#fbb87e" d="m319.11 348.898 18.777-18.605 8.097 25.992Zm0 0"/><path fill="#fcbf7e" d="m298.066 351.234 4.668-12.156 16.375 9.82Zm0 0"/><path fill="#fcc37e" d="m298.066 351.234-9.222-17.105 13.89 4.95Zm0 0"/><path fill="#fbbb7e" d="m314.262 383.996-16.196-32.762 21.043-2.336Zm0 0"/><path fill="#313c61" d="m183.996.004 49.516 45.441-41.871 36.907Zm0 0"/><path fill="#31395f" d="m218.555 136.707 5.574-22.078 13.281 22.383Zm0 0"/><path fill="#fecf7f" d="m261.527 163.094-6.64-23.492 10.496-2.239Zm0 0"/><path fill="#fecf7f" d="m254.887 139.602 6.64 23.492-4.05 3.879ZM278.746 106.191l-17.742 15.317 6.543-17.926ZM261.004 121.508l1.527 1.512-13.254 12.027ZM262.531 123.02l16.215-16.829-.207 12.118Zm0 0"/><path fill="#fecf7f" d="m278.746 106.191-16.215 16.829-1.527-1.512Zm0 0"/><path fill="#313b60" d="M224.129 114.629 191.64 82.352l51.12 2.222Zm0 0"/><path fill="#313b60" d="m224.129 114.629-26.406 20.281-6.082-52.558Zm0 0"/><path fill="#313a5f" d="m224.129 114.629-5.574 22.078-20.832-1.797Zm0 0"/><path fill="#2f4467" d="m261.004 121.508-12.777-10.934 19.32-6.992Zm0 0"/><path fill="#313e62" d="m267.547 103.582-19.32 6.992-5.465-26Zm0 0"/><path fill="#313b61" d="m248.227 110.574-24.098 4.055 18.633-30.055Zm0 0"/><path fill="#313c61" d="m289.387 86.918-16.567-2.254 22.73-11.059Zm0 0"/><path fill="#323b60" d="m289.387 86.918 6.164-13.313 11.402 22.625Zm0 0"/><path fill="#304164" d="m269.684 97.027 9.062 9.164-11.2-2.609Zm0 0"/><path fill="#313e62" d="m269.684 97.027-2.137 6.555-24.785-19.008Zm0 0"/><path fill="#313d62" d="m272.82 84.664-3.136 12.363-26.922-12.453Zm0 0"/><path fill="#fecf7f" d="m269.684 97.027 19.703-10.109-10.64 19.273Zm0 0"/><path fill="#fecf7f" d="m289.387 86.918-19.703 10.11 3.136-12.364Zm0 0"/><path fill="#362a55" d="m222.395 325.176 2-24.801 19.226 11.934Zm0 0"/><path fill="#422f57" d="m224.566 341.813 21.47-13.18 1.14 13.015Zm0 0"/><path fill="#78395d" d="m222.395 325.176 23.64 3.457-21.469 13.18Zm0 0"/><path fill="#443257" d="m198.75 344.54-.914-9.75 26.73 7.022Zm0 0"/><path fill="#fbb87e" d="M211.684 364.031 198.75 344.54l25.816-2.726Zm0 0"/><path fill="#fab37d" d="m198.75 344.54 12.934 19.491-23.809-7.793Zm0 0"/><path fill="#fecf7f" d="m124.293 225.05-22.164-5.671 15.59-18.504Zm0 0"/><path fill="#f9c67e" d="m102.129 219.379-18.817 3.238 5.504-21.137Zm0 0"/><path fill="#e6b67a" d="m83.313 222.617 18.816-3.238-1.004 14.445Zm0 0"/><path fill="#d5aa76" d="m102.129 219.379 22.164 5.672-23.168 8.773Zm0 0"/><path fill="#fecf7f" d="m70.398 177.957 6.938 8.867-10.73 6.715ZM77.336 186.824l11.48 14.656-22.21-7.94Zm0 0"/><path fill="#fecf7f" d="m86.273 178.973-8.937 7.851-6.938-8.867ZM77.336 186.824l8.937-7.851 2.543 22.507Zm0 0"/><path fill="#fecd7f" d="M102.129 219.379 88.816 201.48l28.903-.605Zm0 0"/><path fill="#f9ba7e" d="M22.375 243.473 0 259.227V242.41Zm0 0"/><path fill="#fab87e" d="m0 259.227 21.652 8.296-21.656 45.485Zm0 0"/><path fill="#fab97e" d="M21.652 267.523 0 259.227l22.375-15.754Zm0 0"/><path fill="#fbbe7e" d="m45.066 291.02 30.211-8.829.664 11.336Zm0 0"/><path fill="#fabc7e" d="m67.406 322.031-22.34-31.011 30.875 2.507Zm0 0"/><path fill="#eeb67b" d="m61.598 234.73-9.743-2.949 4.461-10.418Zm0 0"/><path fill="#3a2e56" d="m69.23 226.84-7.632 7.89-5.282-13.367Zm0 0"/><path fill="#f4ab7c" d="m48.2 243.3 13.398-8.57 2 9.727Zm0 0"/><path fill="#32375e" d="m43.258 228.988-20.883 14.485-2.66-18.657Zm0 0"/><path fill="#323a5f" d="m43.258 228.988 4.941 14.313-25.824.172Zm0 0"/><path fill="#d29e76" d="m51.855 231.781-3.656 11.52-4.941-14.313Zm0 0"/><path fill="#f7b67d" d="m61.598 234.73-13.399 8.57 3.656-11.519Zm0 0"/><path fill="#493258" d="m83.82 273.492-23.078-16.476 28.149 8.027Zm0 0"/><path fill="#cca074" d="m82.703 231.504.61-8.887 17.812 11.207Zm0 0"/><path fill="#382c55" d="m97.988 249.938-15.285-18.434 18.422 2.32Zm0 0"/><path fill="#917268" d="m83.313 222.617-.61 8.887-13.473-4.664Zm0 0"/><path fill="#fecf7f" d="m166.766 203.645 1.726-27.243 28.977 25.239Zm0 0"/><path fill="#32395f" d="m132.547 170.004 35.945 6.398-34.597 8.024Zm0 0"/><path fill="#fecf7f" d="m154.516 195.227-7.313 15.093-13.308-25.894ZM168.492 176.402l-13.976 18.825-20.621-10.801ZM154.516 195.227l13.976-18.825-1.726 27.243Zm0 0"/><path fill="#fecf7f" d="m154.516 195.227 12.25 8.418-19.563 6.675Zm0 0"/><path fill="#c8a074" d="m124.293 225.05 22.14 7.15-12.203 10.456Zm0 0"/><path fill="#fecf7f" d="m191.793 165.766 11.496 6.691-5.82 29.184Zm0 0"/><path fill="#313c61" d="m132.547 170.004 1.348 14.422-13.551-2.2Zm0 0"/><path fill="#313a60" d="m48.695 141.05-24.117 40.852L0 123.52Zm0 0"/><path fill="#313a60" d="m55.14 169.7-30.562 12.202 24.117-40.851Zm0 0"/><path fill="#313b61" d="M24.578 181.902 55.141 169.7l-20.47 18.18Zm0 0"/><path fill="#fecf7f" d="m57.2 180.703 13.198-2.746-3.793 15.582Zm0 0"/><path fill="#fece7f" d="m51.871 200.047 5.328-19.344 9.406 12.836Zm0 0"/><path fill="#fecf7f" d="m34.672 187.879 22.527-7.176-5.328 19.344Zm0 0"/><path fill="#313c61" d="M57.2 180.703 55.14 169.7l15.258 8.258Zm0 0"/><path fill="#313a60" d="m55.14 169.7 2.06 11.003-22.528 7.176Zm0 0"/><path fill="#3b2e56" d="m284.848 218.918 15.718-22.23-10.953 25.476Zm0 0"/><path fill="#fecf7f" d="m262.531 123.02 9.684 3.726-6.832 10.617Zm0 0"/><path fill="#fecf7f" d="m272.215 126.746-9.684-3.726 16.008-4.711Zm0 0"/><path fill="#fdc87f" d="m295.813 151.484 7.742 20.727-21.72-1.844Zm0 0"/><path fill="#32375e" d="m384 0 .008 103.984L331.64 49.66Zm0 0"/><path fill="#f8b27d" d="m140.633 359.574 3.543-19.14 21.226 12.832Zm0 0"/><path fill="#fab77d" d="m140.633 359.574 21.582 24.422-71.719-24.039ZM75.406 384.012 42 341.82l48.496 18.137Zm0 0"/><path fill="#fbb77d" d="m162.215 383.996-86.809.016 15.09-24.055Zm0 0"/><path fill="#fbba7e" d="m45.066 291.02 22.34 31.011L42 341.821Zm0 0"/><path fill="#fabc7e" d="M45.066 291.02 42 341.82-.004 313.008Zm0 0"/><path fill="#fecf7f" d="m225.45 160.793 17.71 25.574-25.058-6.953ZM243.16 186.367l-17.71-25.574 14.76-7.738Zm0 0"/><path fill="#ffcf80" d="m216.45 150.96 9 9.833-17.626-3.18Zm0 0"/><path fill="#32345c" d="m216.45 150.96-8.626 6.653-10.101-22.703Zm0 0"/><path fill="#33335b" d="m218.555 136.707-2.106 14.254-18.726-16.05Zm0 0"/><path fill="#ffcf7f" d="m278.809 194.234-35.649-7.867 14.317-19.394Zm0 0"/><path fill="#3e2d56" d="m155.934 288.148 21.277-9.96 5.246 22.644Zm0 0"/><path fill="#3c2d56" d="m155.934 288.148-16.704 10.836 3.032-13.34Zm0 0"/><path fill="#3b2c55" d="m153.344 274.32 2.59 13.828-13.672-2.503Zm0 0"/><path fill="#523459" d="m155.934 288.148-2.59-13.828 23.867 3.868Zm0 0"/><path fill="#69415d" d="m199.438 314.781-16.981-13.949 18.129-12.223Zm0 0"/><path fill="#f29979" d="m177.21 278.188-23.866-3.868 16.332-15.441Zm0 0"/><path fill="#f6b57d" d="m130.66 275.7-12.789-4.68 11.953-4.825Zm0 0"/><path fill="#f8ab7c" d="m129.824 266.195 3.664-10.882 8.055 4.808Zm0 0"/><path fill="#f59678" d="m153.344 274.32-1.446-5.77 17.778-9.671Zm0 0"/><path fill="#b36b6b" d="m151.898 268.55-1.93-10.304 19.708.633Zm0 0"/><path fill="#d16f6f" d="m149.969 258.246 1.93 10.305-10.356-8.43Zm0 0"/><path fill="#fecf7f" d="m210.941 235.07-13.472-33.43 52.898 18.528Zm0 0"/><path fill="#cba174" d="m250.367 220.168 34.48-1.25-13.593 15.125Zm0 0"/><path fill="#ffcf7f" d="m218.102 179.414-14.813-6.957 4.535-14.844Zm0 0"/><path fill="#fecf7f" d="m218.102 179.414-20.633 22.227 5.82-29.184Zm0 0"/><path fill="#ffcf7f" d="m225.45 160.793-7.348 18.621-10.278-21.8Zm0 0"/><path fill="#fecf7f" d="m173.074 235.91 24.395-34.27 13.472 33.43Zm0 0"/><path fill="#483458" d="m324.195 310.645-7.761-10.864 21.84-25.89Zm0 0"/><path fill="#fbbd7e" d="m363.516 276.633-39.32 34.012 14.077-36.754Zm0 0"/><path fill="#f9bb7e" d="M363.516 276.633 384 268.789l.004 58.89Zm0 0"/><path fill="#fbc07e" d="m384 268.79-23.82-25.642 23.82.372Zm0 0"/><path fill="#f0957a" d="m254.137 273.129-3.692-14.602 16.993-.777Zm0 0"/><path fill="#352a55" d="m250.445 258.527 9.137-18.129 11.066 10.141Zm0 0"/><path fill="#916667" d="m259.582 240.398-9.215-20.23 20.887 13.875Zm0 0"/><path fill="#f28f7a" d="m250.367 220.168 9.215 20.23-16.602 7.426Zm0 0"/><path fill="#352a55" d="m259.582 240.398-9.137 18.13-7.465-10.704Zm0 0"/><path fill="#fcc57e" d="m300.566 196.688.93 23.519-11.883 1.957Zm0 0"/><path fill="#fecd7f" d="m301.496 220.207-4.906 9.984-6.977-8.027Zm0 0"/><path fill="#fecf7f" d="m301.496 220.207 16.39 10.434-21.296-.45Zm0 0"/><path fill="#f2bf7c" d="m270.648 250.54 7.262-7.962-.047 12.629Zm0 0"/><path fill="#fecd7f" d="m277.863 255.207.047-12.629 27.293 8.098Zm0 0"/><path fill="#4d3458" d="m254.137 273.129 12.539 2.144-.774 22.09Zm0 0"/><path fill="#f0987a" d="m266.676 275.273-12.54-2.144 13.302-15.379Zm0 0"/><path fill="#32395f" d="m345.84 211.063 17.48-16.856-.215 30.008Zm0 0"/><path fill="#fbb67d" d="m265.215 360.352-24.66 23.66-2.164-26.364Zm0 0"/><path fill="#fab37d" d="m238.39 357.648-26.706 6.383 12.882-22.219Zm0 0"/><path fill="#fbb47d" d="m238.39 357.648 2.165 26.364-28.871-19.98Zm0 0"/><path fill="#fcbe7e" d="m298.066 351.234-32.851 9.118 23.629-26.223Zm0 0"/><path fill="#f8ae7d" d="m345.84 211.063 14.34 32.085-15.551-8.085Zm0 0"/><path fill="#f7a77c" d="m360.18 243.148-14.34-32.085 17.265 13.152Zm0 0"/><path fill="#fbbb7e" d="m314.262 383.996 31.722-27.71L384 384ZM345.984 356.285l38.02-28.605L384 384Zm0 0"/><path fill="#3c2e56" d="m306.191 286.59 10.243 13.191-24.223 4.781Zm0 0"/><path fill="#fbba7e" d="m307.41 327.367 16.785-16.722 13.692 19.648Zm0 0"/><path fill="#fbb77e" d="m319.11 348.898-11.7-21.53 30.477 2.925Zm0 0"/><path fill="#fcc07e" d="m307.41 327.367 11.7 21.531-16.376-9.82Zm0 0"/><path fill="#60455d" d="m307.41 327.367-8.7-8.933 25.485-7.79Zm0 0"/><path fill="#3c2e56" d="m292.21 304.563 24.224-4.782-17.723 18.653Zm0 0"/><path fill="#e19c77" d="m298.71 318.434 17.724-18.653 7.761 10.864Zm0 0"/><path fill="#4d3659" d="m246.035 328.633 15.567 9.719-14.426 3.296Zm0 0"/><path fill="#452f57" d="m261.602 338.352-15.567-9.72 17.106-6.44Zm0 0"/><path fill="#4a3458" d="m261.602 338.352 1.539-16.16 25.703 11.937Zm0 0"/><path fill="#fab57d" d="m261.602 338.352 3.613 22-18.04-18.704Zm0 0"/><path fill="#fbbd7e" d="m265.215 360.352-3.613-22 27.242-4.223Zm0 0"/><path fill="#3f2e56" d="m292.21 304.563-29.07 17.628 2.762-24.828Zm0 0"/><path fill="#fbbb7e" d="m337.887 330.293 46.117-2.613-38.02 28.605Zm0 0"/><path fill="#fecf7f" d="m254.887 139.602 7.644-16.582 2.852 14.343ZM262.531 123.02l-7.644 16.582-5.61-4.555Zm0 0"/><path fill="#313c61" d="m243.707 124.867 17.297-3.36-11.727 13.54Zm0 0"/><path fill="#313c61" d="m243.707 124.867 4.52-14.293 12.777 10.934ZM248.227 110.574l-4.52 14.293-19.578-10.238Zm0 0"/><path fill="#313a60" d="m224.129 114.629 19.578 10.238-6.297 12.145Zm0 0"/><path fill="#31395f" d="m243.707 124.867 5.57 10.18-11.867 1.965Zm0 0"/><path fill="#de9675" d="m243.621 312.309 2.414 16.324-23.64-3.457Zm0 0"/><path fill="#412e56" d="m263.14 322.191-19.519-9.882 22.281-14.946Zm0 0"/><path fill="#e0a277" d="m243.621 312.309 19.52 9.882-17.106 6.442Zm0 0"/><path fill="#352a55" d="m199.438 314.781 24.957-14.406-2 24.8Zm0 0"/><path fill="#e2ae79" d="m224.395 300.375-24.958 14.406 1.149-26.172Zm0 0"/><path fill="#c68971" d="m197.836 334.79 1.601-20.009 22.958 10.395Zm0 0"/><path fill="#4d3859" d="m75.277 282.191 6.618 9.555-5.954 1.781Zm0 0"/><path fill="#fecf7f" d="m124.293 225.05-6.574-24.175 29.484 9.445ZM133.895 184.426l-16.176 16.449 2.625-18.648Zm0 0"/><path fill="#fecf7f" d="m117.719 200.875 16.176-16.45 13.308 25.895ZM117.719 200.875l-12.696-17.625 15.32-1.023Zm0 0"/><path fill="#fecf7f" d="m105.023 183.25 12.696 17.625-28.903.605Zm0 0"/><path fill="#fbba7e" d="m21.652 267.523 23.414 23.497-45.07 21.988Zm0 0"/><path fill="#fab77e" d="m21.652 267.523.723-24.05 18.566 14.558Zm0 0"/><path fill="#fbbb7e" d="m45.066 291.02 15.676-34.004 14.535 25.175Zm0 0"/><path fill="#faba7e" d="M60.742 257.016 45.066 291.02l-4.125-32.989Zm0 0"/><path fill="#fab87e" d="m45.066 291.02-23.414-23.497 19.29-9.492Zm0 0"/><path fill="#fbb77e" d="m67.406 322.031 23.09 37.926L42 341.82Zm0 0"/><path fill="#fab67d" d="m67.406 322.031 28.278 2.61-5.188 35.316Zm0 0"/><path fill="#3d2d56" d="m103.93 287.754-2.84 19.566-7.676-10.25Zm0 0"/><path fill="#fcc07e" d="m106.605 272.46 1.762-6.534 9.504 5.094Zm0 0"/><path fill="#3a2d56" d="m82.703 231.504-13.652 6.723.18-11.387Zm0 0"/><path fill="#f1ac7c" d="m61.598 234.73 7.453 3.497-5.453 6.23Zm0 0"/><path fill="#3a2d56" d="m69.05 238.227-7.452-3.497 7.632-7.89Zm0 0"/><path fill="#3c2e56" d="m169.676 258.879-19.707-.633 8.61-8.683Zm0 0"/><path fill="#fecf7f" d="m168.492 176.402 23.301-10.636 5.676 35.875Zm0 0"/><path fill="#32385e" d="m191.793 165.766-41.781-34.621 47.71 3.765Zm0 0"/><path fill="#32385f" d="m168.492 176.402-18.48-45.257 41.781 34.62Zm0 0"/><path fill="#31395f" d="m150.012 131.145 18.48 45.257-35.945-6.398Zm0 0"/><path fill="#32395f" d="M76.273 157.746 55.141 169.7l-6.446-28.648Zm0 0"/><path fill="#32385e" d="m76.273 157.746-27.578-16.695 46.067-24.692Zm0 0"/><path fill="#313b60" d="m107.934 159.25-31.66-1.504 18.488-41.387Zm0 0"/><path fill="#313a60" d="m55.14 169.7 21.133-11.954-5.875 20.211Zm0 0"/><path fill="#313b61" d="m76.273 157.746 10 21.227-15.875-1.016Zm0 0"/><path fill="#313a5f" d="m76.273 157.746 31.66 1.504-21.66 19.723Zm0 0"/><path fill="#382c55" d="m284.848 218.918 4.765 3.246-18.36 11.879Zm0 0"/><path fill="#f8c67e" d="m284.848 218.918-6.04-24.684 21.758 2.453Zm0 0"/><path fill="#d5ac77" d="m300.566 196.688-21.757-2.454 24.746-22.023Zm0 0"/><path fill="#fecf7f" d="m278.809 194.234-28.442 25.934-7.207-33.8Zm0 0"/><path fill="#f6bc7d" d="m250.367 220.168 28.442-25.934 6.039 24.684Zm0 0"/><path fill="#32395f" d="m313.629 109.156 4.414-18.441 23.605 13.164Zm0 0"/><path fill="#32395f" d="m318.043 90.715-4.414 18.441-6.676-12.926Zm0 0"/><path fill="#fecf7f" d="m309.867 151.148 6.707 23.309-13.02-2.246Zm0 0"/><path fill="#352a55" d="m295.813 151.484 14.054-.336-6.312 21.063Zm0 0"/><path fill="#362b55" d="m295.004 137.797 3.426-23.793 6.011 13.937Zm0 0"/><path fill="#342f58" d="m309.867 151.148-14.863-13.351 9.437-9.856Zm0 0"/><path fill="#352b55" d="m295.004 137.797 14.863 13.351-14.055.336Zm0 0"/><path fill="#fab67d" d="m129.05 346.25 11.583 13.324-50.137.383Zm0 0"/><path fill="#f6b27d" d="M140.633 359.574 129.05 346.25l15.125-5.816Zm0 0"/><path fill="#fab17d" d="m171.063 341.973 13.437.363-19.098 10.93Zm0 0"/><path fill="#fecf7f" d="m225.45 160.793-.723-15.988 15.484 8.25ZM216.45 150.96l8.277-6.155.722 15.988Zm0 0"/><path fill="#fecf7f" d="m240.21 153.055-15.483-8.25 12.683-7.793Zm0 0"/><path fill="#33335b" d="m224.727 144.805-6.172-8.098 18.855.305Zm0 0"/><path fill="#342c56" d="m224.727 144.805-8.278 6.156 2.106-14.254Zm0 0"/><path fill="#966c68" d="m103.93 287.754 13.027-5.063-1.613 17.594Zm0 0"/><path fill="#392b55" d="m130.66 275.7-13.703 6.991.914-11.671Zm0 0"/><path fill="#372a55" d="m116.957 282.691-10.352-10.23 11.266-1.441Zm0 0"/><path fill="#4e3459" d="m106.605 272.46 10.352 10.231-13.027 5.063Zm0 0"/><path fill="#efa57a" d="m129.824 266.195-5.535-9.433 9.2-1.45Zm0 0"/><path fill="#483057" d="m143.355 251.965 6.614 6.281-8.426 1.875Zm0 0"/><path fill="#3d2e56" d="m133.488 255.313 9.867-3.348-1.812 8.156Zm0 0"/><path fill="#483558" d="m149.969 258.246-6.614-6.281 15.223-2.403Zm0 0"/><path fill="#3b2e56" d="m143.355 251.965-9.867 3.347.742-12.656Zm0 0"/><path fill="#a5806c" d="m146.434 232.2-3.079 19.765-9.125-9.309Zm0 0"/><path fill="#ac866d" d="m158.578 249.563-15.223 2.402 3.079-19.766Zm0 0"/><path fill="#382b55" d="m182.457 300.832-5.246-22.644 23.375 10.421Zm0 0"/><path fill="#f1b97c" d="m115.344 300.285 12.355-10.8 11.531 9.5Zm0 0"/><path fill="#3d2d56" d="m101.09 307.32 14.254-7.035-3.961 15.89Zm0 0"/><path fill="#c9646c" d="m151.898 268.55-12.93 5.196 2.575-13.625Zm0 0"/><path fill="#a16168" d="m138.969 273.746-9.145-7.55 11.719-6.075Zm0 0"/><path fill="#f1b27b" d="m129.824 266.195 9.145 7.551-8.309 1.953Zm0 0"/><path fill="#efa379" d="m138.969 273.746 12.93-5.195 1.445 5.77Zm0 0"/><path fill="#fecf7f" d="m197.469 201.64-24.395 34.27-6.308-32.265Zm0 0"/><path fill="#fece7f" d="m166.766 203.645 6.308 32.265-25.87-25.59Zm0 0"/><path fill="#fdcb7f" d="m173.074 235.91-26.64-3.71.77-21.88Zm0 0"/><path fill="#c69a73" d="m173.074 235.91-14.496 13.653-12.144-17.364Zm0 0"/><path fill="#382a55" d="m330.48 261.012 19.024-8.41-11.23 21.289Zm0 0"/><path fill="#fbbf7e" d="m363.516 276.633-3.336-33.485L384 268.79Zm0 0"/><path fill="#fdc67f" d="m363.516 276.633-25.243-2.742 11.23-21.29Zm0 0"/><path fill="#fbc07e" d="m360.18 243.148 3.336 33.485-14.012-24.031Zm0 0"/><path fill="#fece7f" d="m277.91 242.578 18.68-12.387 8.613 20.485Zm0 0"/><path fill="#fecd7f" d="m296.59 230.191 21.297.45-12.684 20.035Zm0 0"/><path fill="#fece7f" d="m321.965 215.781-20.469 4.426-.93-23.52Zm0 0"/><path fill="#fecf7f" d="m301.496 220.207 20.469-4.426-4.078 14.86Zm0 0"/><path fill="#372a55" d="m282.703 273.816 29.149-8.765-5.66 21.539Zm0 0"/><path fill="#fdc37e" d="m311.852 265.05-29.149 8.766 22.5-23.14Zm0 0"/><path fill="#985d66" d="m282.703 273.816-4.84-18.609 27.34-4.531Zm0 0"/><path fill="#d48a73" d="m277.863 255.207-11.187 20.066.762-17.523Zm0 0"/><path fill="#b2706c" d="m266.676 275.273 11.187-20.066 4.84 18.61Zm0 0"/><path fill="#362a55" d="m333.508 242.906 5.113-12.785 6.008 4.941Zm0 0"/><path fill="#362a55" d="m338.621 230.121 7.219-19.059-1.211 24Zm0 0"/><path fill="#fbbf7e" d="m345.84 211.063-7.219 19.058-4.808-17.39Zm0 0"/><path fill="#fecb7f" d="m338.621 230.121-16.656-14.34 11.848-3.05Zm0 0"/><path fill="#edb27b" d="m338.621 230.121-5.113 12.785-15.621-12.265Zm0 0"/><path fill="#fecb7f" d="m321.965 215.781 16.656 14.34-20.734.52Zm0 0"/><path fill="#fbba7d" d="m265.215 360.352 49.047 23.644-73.707.016Zm0 0"/><path fill="#fcbd7e" d="m314.262 383.996-49.047-23.644 32.851-9.118Zm0 0"/><path fill="#fbbc7e" d="m363.516 276.633-25.63 53.66-13.69-19.648Zm0 0"/><path fill="#fecf7f" d="m240.21 153.055 14.677-13.453 2.59 27.37ZM243.16 186.367l-2.95-33.312 17.267 13.918Zm0 0"/><path fill="#fecf7f" d="m240.21 153.055 9.067-18.008 5.61 4.555Zm0 0"/><path fill="#fecf7f" d="m249.277 135.047-9.066 18.008-2.8-16.043ZM289.387 86.918l.508 16.098-11.149 3.175Zm0 0"/><path fill="#fecf7f" d="m289.895 103.016-.508-16.098 17.566 9.312Zm0 0"/><path fill="#eab87b" d="m298.43 114.004-8.535-10.988 17.058-6.786Zm0 0"/><path fill="#fdcb7f" d="m298.43 114.004 8.476 4.105-2.465 9.832Zm0 0"/><path fill="#fecf7f" d="m306.906 118.11 8.805 7.605-11.27 2.226Zm0 0"/><path fill="#fecf7f" d="m306.906 118.11 6.723-8.954 2.082 16.559Zm0 0"/><path fill="#fab47d" d="m184.5 342.336 14.25 2.203-10.875 11.7Zm0 0"/><path fill="#382b55" d="m198.75 344.54-14.25-2.204 13.336-7.547Zm0 0"/><path fill="#edab7a" d="m103.93 287.754-17.446-3.031-2.664-11.23Zm0 0"/><path fill="#ebab79" d="m93.414 297.07-6.93-12.347 17.446 3.03Zm0 0"/><path fill="#4a3759" d="m81.895 291.746 4.59-7.023 6.93 12.347Zm0 0"/><path fill="#cf786f" d="m95.684 324.64 5.406-17.32 10.293 8.856Zm0 0"/><path fill="#e28476" d="m108.367 265.926-1.762 6.535-17.714-7.418Zm0 0"/><path fill="#b3516a" d="m96.984 256.324 11.383 9.602-19.476-.883Zm0 0"/><path fill="#372b55" d="m78.793 246.184-9.742-7.957 13.652-6.723Zm0 0"/><path fill="#352a55" d="m78.793 246.184 3.91-14.68 15.285 18.434Zm0 0"/><path fill="#eba77a" d="m60.742 257.016 18.051-10.832 10.098 18.859Zm0 0"/><path fill="#8f6467" d="m78.793 246.184-18.05 10.832 2.855-12.559Zm0 0"/><path fill="#f1a87b" d="m69.05 238.227 9.743 7.957-15.195-1.727Zm0 0"/><path fill="#ab816d" d="m173.074 235.91-3.398 22.969-11.098-9.317Zm0 0"/><path fill="#927068" d="m169.676 258.879 3.398-22.969 37.785 23.133Zm0 0"/><path fill="#d9a777" d="m210.86 259.043-37.786-23.133 37.867-.84Zm0 0"/><path fill="#fecf7f" d="m316.574 174.457 23.106-14.539-6.57 19.644Zm0 0"/><path fill="#32385e" d="m339.68 159.918-4.063-18.313 15.223-6.73Zm0 0"/><path fill="#fecf7f" d="m327.996 196.137-6.031 19.644-21.399-19.094ZM327.996 196.137l17.844 14.926-12.027 1.667Zm0 0"/><path fill="#fecb7f" d="m321.965 215.781 6.031-19.644 5.817 16.593Zm0 0"/><path fill="#fdc57f" d="m316.574 174.457-16.008 22.23 2.989-24.476Zm0 0"/><path fill="#fecf7f" d="m316.574 174.457 11.422 21.68-27.43.55Zm0 0"/><path fill="#fece7f" d="m327.996 196.137-11.422-21.68 16.535 5.106Zm0 0"/><path fill="#313a5f" d="m339.68 159.918 11.16-25.043 14.082 35.738Zm0 0"/><path fill="#fecf7f" d="m279.887 148.27 15.117-10.473.808 13.687Zm0 0"/><path fill="#342e57" d="m279.887 148.27-18.36 14.824 3.856-25.73Zm0 0"/><path fill="#fecf7f" d="m261.527 163.094 18.36-14.824 1.949 22.097Zm0 0"/><path fill="#fecf7f" d="m279.887 148.27 15.926 3.214-13.977 18.883Zm0 0"/><path fill="#fab87d" d="m95.684 324.64 21.777 9.684-26.965 25.633Zm0 0"/><path fill="#fab57d" d="m117.46 334.324 11.59 11.926-38.554 13.707Zm0 0"/><path fill="#372b55" d="m179.887 325.422-8.824 16.55-9.926-4.156Zm0 0"/><path fill="#382b55" d="m143.734 323.965 17.403 13.851-16.961 2.618Zm0 0"/><path fill="#f9b17d" d="m144.176 340.434 16.96-2.618 4.266 15.45Zm0 0"/><path fill="#fab07d" d="m161.137 337.816 9.926 4.157-5.66 11.293Zm0 0"/><path fill="#382b55" d="m127.7 289.484-10.743-6.793 13.703-6.992Zm0 0"/><path fill="#e2a678" d="m116.957 282.691 10.742 6.793-12.355 10.801Zm0 0"/><path fill="#8f5265" d="m96.984 256.324 16.57-2.41-5.187 12.012Zm0 0"/><path fill="#f9b67d" d="m97.988 249.938 15.567 3.976-16.57 2.41Zm0 0"/><path fill="#f7b37c" d="m117.871 271.02.777-8.262 11.176 3.437Zm0 0"/><path fill="#f3ad7b" d="m118.648 262.758 5.641-5.996 5.535 9.433Zm0 0"/><path fill="#885a64" d="m118.648 262.758-5.093-8.844 10.734 2.848Zm0 0"/><path fill="#362a55" d="m113.555 253.914 10.53-10.332.204 13.18Zm0 0"/><path fill="#d0a675" d="m124.086 243.582.207-18.531 9.937 17.605Zm0 0"/><path fill="#bb9170" d="m124.293 225.05-.207 18.532-12.504-4.172Zm0 0"/><path fill="#372b55" d="m124.086 243.582-10.531 10.332-1.973-14.504Zm0 0"/><path fill="#443558" d="m133.488 255.313-9.402-11.731 10.144-.926Zm0 0"/><path fill="#362b55" d="m124.29 256.762-.204-13.18 9.402 11.73Zm0 0"/><path fill="#f7ad7c" d="m160.02 312.79-4.086-24.642 26.523 12.684Zm0 0"/><path fill="#7b4660" d="m155.934 288.148 4.086 24.641-20.79-13.805Zm0 0"/><path fill="#372a55" d="m160.02 312.79-16.286 11.175-4.504-24.98Zm0 0"/><path fill="#3a2c55" d="m122.426 309.59 16.804-10.606 4.504 24.98Zm0 0"/><path fill="#c38e71" d="m122.426 309.59-7.082-9.305 23.886-1.3Zm0 0"/><path fill="#382c55" d="m103.93 287.754 11.414 12.531-14.254 7.035Zm0 0"/><path fill="#4a2f58" d="m111.383 316.176 6.078 18.148-21.777-9.683Zm0 0"/><path fill="#3f2e56" d="m122.426 309.59-11.043 6.586 3.96-15.89Zm0 0"/><path fill="#392b55" d="m138.93 280.164 14.414-5.844-11.082 11.325Zm0 0"/><path fill="#392c55" d="m138.93 280.164.039-6.418 14.375.574Zm0 0"/><path fill="#352a55" d="m127.7 289.484 11.23-9.32 3.332 5.48Zm0 0"/><path fill="#352a55" d="m130.66 275.7 8.27 4.464-11.23 9.32Zm0 0"/><path fill="#352a55" d="m138.969 273.746-.04 6.418-8.269-4.465Zm0 0"/><path fill="#724d60" d="m306.191 286.59 20.86-14.656-10.617 27.847Zm0 0"/><path fill="#cb8972" d="m327.05 271.934 11.223 1.957-21.84 25.89Zm0 0"/><path fill="#392b55" d="m311.852 265.05 15.199 6.884-20.86 14.656Zm0 0"/><path fill="#382b55" d="m330.48 261.012-3.43 10.922-15.198-6.883Zm0 0"/><path fill="#392b55" d="m327.05 271.934 3.43-10.922 7.793 12.879Zm0 0"/><path fill="#f7b67d" d="m296.59 230.191-18.68 12.387 11.703-20.414Zm0 0"/><path fill="#413357" d="m289.613 222.164-11.703 20.414-6.656-8.535Zm0 0"/><path fill="#d0a876" d="m289.895 103.016-3.766 7.59-7.383-4.415Zm0 0"/><path fill="#372c55" d="m278.746 106.191 7.383 4.414-7.59 7.704Zm0 0"/><path fill="#a8866d" d="m286.129 110.605 3.766-7.59 8.535 10.989Zm0 0"/><path fill="#d8a977" d="m313.629 109.156-15.2 4.848 8.524-17.774Zm0 0"/><path fill="#463458" d="m306.906 118.11-8.476-4.106 15.199-4.848Zm0 0"/><path fill="#7c445f" d="m197.836 334.79-17.95-9.368 19.552-10.64Zm0 0"/><path fill="#392b55" d="m179.887 325.422 2.57-24.59 16.98 13.95Zm0 0"/><path fill="#9a6768" d="m83.82 273.492 2.664 11.23-11.207-2.53Zm0 0"/><path fill="#493658" d="m86.484 284.723-4.59 7.023-6.617-9.555Zm0 0"/><path fill="#cd6f6e" d="m101.09 307.32-17.781.184 10.105-10.434Zm0 0"/><path fill="#613d5c" d="m83.309 307.504 17.78-.184-5.405 17.32Zm0 0"/><path fill="#423257" d="m81.895 291.746 1.414 15.758-7.368-13.977Zm0 0"/><path fill="#413057" d="m83.309 307.504-1.414-15.758 11.52 5.324Zm0 0"/><path fill="#f6b67d" d="M83.309 307.504 67.406 322.03l8.535-28.504Zm0 0"/><path fill="#f2b47c" d="m83.309 307.504 12.375 17.137-28.278-2.61Zm0 0"/><path fill="#352a55" d="m111.582 239.41 1.973 14.504-15.567-3.976Zm0 0"/><path fill="#cfa375" d="m124.293 225.05-12.711 14.36-10.457-5.586Zm0 0"/><path fill="#362a55" d="m111.582 239.41-13.594 10.528 3.137-16.114Zm0 0"/><path fill="#f6b27c" d="m78.793 246.184 18.191 10.14-8.093 8.719Zm0 0"/><path fill="#f7ba7d" d="m96.984 256.324-18.191-10.14 19.195 3.754Zm0 0"/><path fill="#e49278" d="m242.219 266.863 11.918 6.266-12.168 5.34Zm0 0"/><path fill="#d2566f" d="m250.445 258.527-8.226 8.336-31.36-7.82Zm0 0"/><path fill="#fab27d" d="m242.219 266.863 8.226-8.336 3.692 14.602Zm0 0"/><path fill="#503158" d="m216.148 276.906 25.82 1.563-17.573 21.906Zm0 0"/><path fill="#da9b76" d="m216.148 276.906 26.07-10.043-.25 11.606Zm0 0"/><path fill="#432f57" d="m216.148 276.906 8.247 23.469-23.81-11.766Zm0 0"/><path fill="#362a55" d="m177.21 278.188 38.938-1.282-15.562 11.703Zm0 0"/><path fill="#ac4e68" d="m242.219 266.863-26.07 10.043-5.29-17.863Zm0 0"/><path fill="#fcc17e" d="m210.86 259.043 5.288 17.863-38.937 1.281Zm0 0"/><path fill="#d8616d" d="m210.86 259.043-33.65 19.144-7.534-19.308Zm0 0"/><path fill="#fecf7f" d="m323.852 146.164 15.828 13.754-23.106 14.539Zm0 0"/><path fill="#32385f" d="m339.68 159.918-15.828-13.754 11.765-4.559Zm0 0"/><path fill="#323a5f" d="m329.336 125.46-15.707-16.304 28.02-5.277Zm0 0"/><path fill="#323c61" d="m313.629 109.156 15.707 16.305-13.625.254Zm0 0"/><path fill="#31395f" d="m350.84 134.875-21.504-9.414 12.312-21.582Zm0 0"/><path fill="#32385e" d="m335.617 141.605-6.281-16.144 21.504 9.414Zm0 0"/><path fill="#32365d" d="m323.852 146.164 5.484-20.703 6.281 16.144Zm0 0"/><path fill="#32385f" d="m329.336 125.46-5.484 20.704-8.141-20.45Zm0 0"/><path fill="#fecf7f" d="m348.898 184.813-20.902 11.324 5.113-16.574Zm0 0"/><path fill="#fece7f" d="m339.68 159.918 9.218 24.894-15.789-5.25Zm0 0"/><path fill="#fecf7f" d="m327.996 196.137 20.902-11.324-3.058 26.25Zm0 0"/><path fill="#323a60" d="m348.898 184.813-9.218-24.895 25.242 10.695Zm0 0"/><path fill="#313b60" d="m348.898 184.813 16.024-14.2-1.602 23.594Zm0 0"/><path fill="#32395f" d="m345.84 211.063 3.058-26.25 14.422 9.394Zm0 0"/><path fill="#fecf7f" d="m279.887 148.27 2.851-16.16 12.266 5.687Zm0 0"/><path fill="#32375e" d="m282.738 132.11-2.851 16.16-14.504-10.907Zm0 0"/><path fill="#32355c" d="m272.215 126.746 10.523 5.363-17.355 5.254Zm0 0"/><path fill="#362f58" d="m295.004 137.797-12.266-5.688-10.523-5.363Zm0 0"/><path fill="#f8b27d" d="m117.46 334.324 14.06 1.778-2.47 10.148Zm0 0"/><path fill="#f3b47c" d="m129.05 346.25 2.47-10.148 12.656 4.332Zm0 0"/><path fill="#382b55" d="m131.52 336.102 12.214-12.137.442 16.469Zm0 0"/><path fill="#362b55" d="m184.5 342.336-1.305-4.535 14.64-3.012Zm0 0"/><path fill="#3b2e56" d="m171.063 341.973 12.132-4.172 1.305 4.535Zm0 0"/><path fill="#362a55" d="m179.887 325.422 3.308 12.379-12.132 4.172Zm0 0"/><path fill="#a55d69" d="m113.555 253.914 5.093 8.844-10.28 3.168Zm0 0"/><path fill="#f5ae7c" d="m108.367 265.926 10.281-3.168-.777 8.262Zm0 0"/><path fill="#fbbe7e" d="m333.508 242.906-28.305 7.77 12.684-20.035Zm0 0"/><path fill="#ed917a" d="m349.504 252.602-15.996-9.696 11.12-7.844Zm0 0"/><path fill="#e99a79" d="m330.48 261.012 3.028-18.106 15.996 9.696Zm0 0"/><path fill="#362a55" d="m242.98 247.824 7.465 10.703-39.586.516Zm0 0"/><path fill="#f8ab7d" d="m242.98 247.824-32.039-12.754 39.426-14.902Zm0 0"/><path fill="#a87d6d" d="m242.98 247.824-32.12 11.219.081-23.973Zm0 0"/><path fill="#352a55" d="m270.316 242.137-10.734-1.739 11.672-6.355Zm0 0"/><path fill="#372b55" d="m277.91 242.578-7.594-.441.938-8.094Zm0 0"/><path fill="#362a55" d="m259.582 240.398 10.734 1.739.332 8.402Zm0 0"/><path fill="#453558" d="m270.316 242.137 7.594.441-7.262 7.961Zm0 0"/><path fill="#fbc97f" d="m278.54 118.309 7.589-7.704 12.3 3.399Zm0 0"/><path fill="#fecf7f" d="m295.004 137.797-16.465-19.488 19.89-4.305Zm0 0"/><path fill="#33315a" d="m278.54 118.309 16.464 19.488-22.79-11.05Zm0 0"/><path fill="#362a55" d="m183.195 337.8-3.308-12.378 17.949 9.367Zm0 0"/><path fill="#fecf7f" d="m323.852 146.164-13.73 4.91 5.589-25.36Zm0 0"/><path fill="#443758" d="m310.121 151.074-.254.074-5.426-23.207Zm0 0"/><path fill="#fecf7f" d="m315.71 125.715-5.589 25.36-5.68-23.134Zm0 0"/><path fill="#fecf7f" d="m309.867 151.148.254-.074 6.453 23.383Zm0 0"/><path fill="#fecf7f" d="m310.121 151.074 13.73-4.91-7.277 28.293Zm0 0"/><path fill="#4a2f58" d="m111.383 316.176 17.254 12.597-11.176 5.551Zm0 0"/><path fill="#493358" d="m128.637 328.773 2.883 7.329-14.06-1.778Zm0 0"/><path fill="#352a55" d="m131.52 336.102-2.883-7.329 15.097-4.808Zm0 0"/><path fill="#f7ac7b" d="m128.637 328.773-6.211-19.183 21.308 14.375Zm0 0"/><path fill="#5c3b5b" d="m128.637 328.773-17.254-12.597 11.043-6.586Zm0 0"/><path fill="#efa278" d="m311.852 265.05 21.656-22.144-3.028 18.106Zm0 0"/><path fill="#6c425d" d="m333.508 242.906-21.656 22.145-6.649-14.375Zm0 0"/><path fill="#3c2b55" d="m179.887 325.422-19.867-12.633 22.437-11.957Zm0 0"/><path fill="#55375a" d="m143.734 323.965 16.286-11.176 1.117 25.027Zm0 0"/><path fill="#e69976" d="m160.02 312.79 19.867 12.632-18.75 12.394Zm0 0"/></svg>