<svg xmlns="http://www.w3.org/2000/svg" width="512" height="512" viewBox="0 0 384 384"><path fill="#202215" d="m137.258 151.89-39.586-6.175 37.332-41.977Zm0 0"/><path fill="#202215" d="m135.004 103.738-29.781-39.105 49.87-13.848ZM186.656 92.223l12.137 47.07-24.238-.262ZM186.656 92.223l27.524-48.188 23.68 34.817ZM59.223 56.55l17.554 47.153L0 110.953ZM97.672 145.715l-20.895-42.012 58.227.035Zm0 0"/><path fill="#202215" d="m56.05 146.477 20.727-42.774 20.895 42.012Zm0 0"/><path fill="#202215" d="m0 110.953 76.777-7.25-20.726 42.774ZM76.777 103.703l28.446-39.07 29.78 39.105ZM105.223 64.633l-28.446 39.07-17.554-47.152ZM319.75 384l-7.012-44.375 33.942-.082ZM101.867 0h78.996l-25.77 50.785Zm0 0"/><path fill="#202215" d="M105.223 64.633 101.867 0l53.227 50.785ZM137.258 151.89l-2.254-48.152 39.55 35.293ZM237.86 78.852l-23.68-34.817 62.757-.383Zm0 0"/><path fill="#202215" d="m279.691 83.266-41.832-4.414 39.078-35.2ZM101.867 0 59.223 56.55 0 0ZM101.867 0l3.356 64.633-46-8.082Zm0 0"/><path fill="#60301c" d="m262.184 288.004-14.618 14.851-3.418-25.156Zm0 0"/><path fill="#c9592d" d="m57.266 213.648-25.254-6.52 2.25-19.347Zm0 0"/><path fill="#202215" d="m32.012 207.129 3.754 22.629L0 232.418ZM120.441 182.406l-19.976-.273 12.437-12.309Zm0 0"/><path fill="#eac174" d="m140.496 203.508 6.16 25.504-29.851-7.973ZM174.555 139.031l24.238.262-2.867 22.191Zm0 0"/><path fill="#202215" d="M32.012 207.129 21.8 178.824l12.46 8.957ZM21.8 178.824 0 232.418V110.953ZM0 232.418l21.8-53.594 10.212 28.305ZM344.176 127.273l-7.742-32.613L384 99.043ZM309.043 76.57l-32.106-32.918 58.27 6.336Zm0 0"/><path fill="#202215" d="m309.043 76.57-29.352 6.696-2.753-39.614ZM309.043 76.57l3.117 25.125-12.41-10.507ZM279.691 83.266l29.352-6.696-9.293 14.618Zm0 0"/><path fill="#eac174" d="m301.426 168.66-6.965 30.582-16.238-12.265Zm0 0"/><path fill="#202215" d="m308.086 0-31.149 43.652L245.13 0Zm0 0"/><path fill="#ebc275" d="m234.832 175.934-3.742 37.945-20.625-26.129Zm0 0"/><path fill="#ebc275" d="m231.09 213.879-31.305.754 10.68-26.883Zm0 0"/><path fill="#eac174" d="m199.785 214.633-16.156-24.008 26.836-2.875Zm0 0"/><path fill="#4d2d0c" d="m279.809 273.902 19.039-6.285 3.707 28.004Zm0 0"/><path fill="#202215" d="m261.219 384-2.805-48.766 30.73 17.391Zm0 0"/><path fill="#532e13" d="m259.09 273.96 3.094 14.044-18.036-10.305Zm0 0"/><path fill="#202215" d="m384 251.777-17.996-22.238L384 171.2ZM319.75 384h-58.531l27.926-31.375Zm0 0"/><path fill="#4c2b23" d="m262.184 288.004 18.773 12.32-33.39 2.531Zm0 0"/><path fill="#202215" d="m155.094 50.785 31.562 41.438-51.652 11.515Zm0 0"/><path fill="#202215" d="m135.004 103.738 51.652-11.515-12.101 46.808ZM267.406 92.797 237.86 78.852l41.832 4.414ZM0 110.953V0l59.223 56.55Zm0 0"/><path fill="#63311c" d="m247.566 302.855-18.078-11.89 14.66-13.266Zm0 0"/><path fill="#202214" d="m227.129 339.871 6.402 16.86-42.93 7.019Zm0 0"/><path fill="#202215" d="m192.816 339.95 34.313-.079-36.527 23.879Zm0 0"/><path fill="#252311" d="m57.266 213.648 14.937 7.934-12.348 5.516Zm0 0"/><path fill="#eac174" d="m72.203 221.582-14.937-7.934 17.187-10.925Zm0 0"/><path fill="#cb6032" d="m72.203 221.582.36 10.18-12.708-4.664Zm0 0"/><path fill="#eac174" d="m72.203 221.582 2.25-18.86 15.91 8.548Zm0 0"/><path fill="#202214" d="m47.512 223.305 9.754-9.657 2.59 13.45Zm0 0"/><path fill="#202215" d="m57.266 213.648-9.754 9.657-15.5-16.176Zm0 0"/><path fill="#202215" d="m47.512 223.305-11.746 6.453-3.754-22.63Zm0 0"/><path fill="#eabf73" d="m46.836 232.047.676-8.742 12.343 3.793Zm0 0"/><path fill="#202215" d="m47.512 223.305-.676 8.742-11.07-2.29ZM50.703 248.098l-3.164 6.804-11.93-8.699Zm0 0"/><path fill="#e1cd7e" d="m62.555 258.309-11.852-10.211 16.477-1.52Zm0 0"/><path fill="#212215" d="m50.703 248.098 11.852 10.21-15.016-3.406Zm0 0"/><path fill="#eac174" d="m88.285 229.719-16.082-8.137 18.16-10.312Zm0 0"/><path fill="#492f08" d="m72.203 221.582 16.082 8.137-15.722 2.043Zm0 0"/><path fill="#b1724f" d="m62.555 258.309 19.008 7.71-13.793 10.165Zm0 0"/><path fill="#202215" d="m137.258 151.89-16.817 30.516-7.539-12.582Zm0 0"/><path fill="#eac174" d="m86.941 179.18 13.524 2.953-12.668 11.054Zm0 0"/><path fill="#202215" d="m97.672 145.715 39.586 6.176-24.356 17.933ZM100.465 182.133l-2.793-36.418 15.23 24.11ZM86.941 179.18l10.73-33.465 2.794 36.418ZM336.434 94.66l-1.227-44.672L384 99.043ZM335.207 49.988l1.227 44.672-27.391-18.09ZM359.71 153.496l-15.534-26.223L384 99.043Zm0 0"/><path fill="#202215" d="m384 171.2-24.29-17.704L384 99.043Zm0 0"/><path fill="#eac174" d="m294.46 199.242-6.933 9.024-9.304-21.29Zm0 0"/><path fill="#202215" d="m366.004 229.54-1.535-52.364L384 171.199Zm0 0"/><path fill="#3a2802" d="m301.52 199.984-6.067 5.778-.992-6.52Zm0 0"/><path fill="#3a2802" d="m295.453 205.762-7.926 2.504 6.934-9.024ZM287.527 208.266l7.926-2.504-2.504 8.687Zm0 0"/><path fill="#ebc275" d="m257.797 169.871 20.312-3.016.114 20.122Zm0 0"/><path fill="#eac174" d="m278.11 166.855 23.316 1.805-23.203 18.317Zm0 0"/><path fill="#202215" d="m308.086 0 27.121 49.988-58.27-6.336Zm0 0"/><path fill="#212215" d="M190.602 363.75 200.41 384h-77.617Zm0 0"/><path fill="#202215" d="M56.836 384H0l37.781-36.426ZM73.813 347.633l27.41-4.102L122.793 384Zm0 0"/><path fill="#202215" d="m0 310.426 37.781 37.148L0 384Zm0 0"/><path fill="#202215" d="M37.781 347.574 0 310.426l52.016-.422Zm0 0"/><path fill="#ebc275" d="m267.563 155.2 10.546 11.655-20.312 3.016Zm0 0"/><path fill="#733b26" d="m144.84 290.46 13.441 14.153-13.523-.343Zm0 0"/><path fill="#bd5e3b" d="m125.023 316.828 19.817-26.367-.082 13.809Zm0 0"/><path fill="#eac174" d="m255.668 222.871-8.344 16.453-16.234-25.445Zm0 0"/><path fill="#ebc275" d="m201.133 167.043 9.332 20.707-16.32-12.387Zm0 0"/><path fill="#ebc275" d="m210.465 187.75-26.836 2.875 10.516-15.262Zm0 0"/><path fill="#62311b" d="m279.809 273.902 1.148 26.422-18.773-12.32Zm0 0"/><path fill="#65311e" d="m280.957 300.324-1.148-26.422 22.746 21.72Zm0 0"/><path fill="#202215" d="m200.41 384 33.121-27.27L261.22 384ZM384 384h-64.25l26.93-44.457ZM312.738 339.625 319.75 384l-30.605-31.375ZM290.695 330.938l-1.55 21.687-30.73-17.39Zm0 0"/><path fill="#643127" d="m264.828 319.426 25.867 11.512-32.28 4.296Zm0 0"/><path fill="#943b3b" d="m290.695 330.938 1.551-18.184 14.348 11.09Zm0 0"/><path fill="#913b39" d="m292.246 312.754-1.55 18.183-25.868-11.511Zm0 0"/><path fill="#202215" d="m290.695 330.938 22.043 8.687-23.593 13Zm0 0"/><path fill="#202215" d="m312.738 339.625-22.043-8.687 15.899-7.094ZM214.18 44.035l-27.524 48.188-31.562-41.438ZM214.18 44.035 180.863 0h64.266Zm0 0"/><path fill="#202215" d="m180.863 0 33.317 44.035-59.086 6.75ZM214.18 44.035 245.129 0l31.809 43.652ZM224.191 142.66l-1.886-21.629 14.691 15.414Zm0 0"/><path fill="#ebc275" d="m267.563 155.2-12.196-7.45 11.27 5.363ZM255.367 147.75l12.196 7.45-9.766 14.671Zm0 0"/><path fill="#202215" d="m268.48 101.824-3.152 9.512-7.566-7.309ZM265.328 111.336l-13.988 20.398 6.422-27.707Zm0 0"/><path fill="#eac174" d="m261.703 135.785-6.336 11.965-4.027-16.016ZM261.703 135.785l3.625-24.45 15.235-3.42Zm0 0"/><path fill="#ebc275" d="m265.328 111.336-3.625 24.45-10.363-4.052Zm0 0"/><path fill="#202215" d="m222.305 121.031-35.649-28.808 51.203-13.371Zm0 0"/><path fill="#202215" d="m222.305 121.031-23.512 18.262-12.137-47.07ZM222.305 121.031l1.886 21.63-25.398-3.368ZM251.34 131.734l-12.38-13.058 18.802-14.649Zm0 0"/><path fill="#202215" d="m257.762 104.027-18.801 14.649-1.102-39.824Zm0 0"/><path fill="#202215" d="m238.96 118.676-16.655 2.355 15.554-42.18Zm0 0"/><path fill="#e9be72" d="m282.164 95.422-14.758-2.625 12.285-9.531Zm0 0"/><path fill="#eabf73" d="m282.164 95.422-2.473-12.156 20.059 7.921Zm0 0"/><path fill="#202215" d="m267.406 92.797 1.074 9.027-10.718 2.203Zm0 0"/><path fill="#202215" d="m267.406 92.797-9.644 11.23-19.903-25.175Zm0 0"/><path fill="#d1703d" d="m267.406 92.797 14.758 2.625-13.684 6.402Zm0 0"/><path fill="#7f372d" d="m240.238 308.902-10.75-17.937 18.078 11.89Zm0 0"/><path fill="#7b362b" d="m229.488 290.965 10.75 17.937-29.843-5.515Zm0 0"/><path fill="#61301a" d="m227.129 339.871 8.844-20.055 22.441 15.418Zm0 0"/><path fill="#202215" d="m233.531 356.73-6.402-16.859 31.285-4.637Zm0 0"/><path fill="#d07743" d="m92.742 294.477 2.656-24.414 1.047 24.445Zm0 0"/><path fill="#eac174" d="M112 200.031 90.363 211.27l-2.566-18.083Zm0 0"/><path fill="#eac174" d="m116.805 221.04-26.442-9.77L112 200.03ZM90.363 211.27l26.442 9.77-28.52 8.679Zm0 0"/><path fill="#eac174" d="M116.805 221.04 112 200.03l28.496 3.477Zm0 0"/><path fill="#eac074" d="m69.25 178.848 18.547 14.34-13.344 9.535Zm0 0"/><path fill="#eac174" d="m86.941 179.18.856 14.007-18.547-14.34ZM74.453 202.723l13.344-9.536 2.566 18.083Zm0 0"/><path fill="#202215" d="M0 310.426v-78.008l35.805 42.363ZM52.016 310.004 35.805 274.78l31.965 1.403ZM73.813 347.633 92.89 321.68l8.332 21.851Zm0 0"/><path fill="#e2a863" d="m61.79 236.73-14.954-4.683 13.02-4.95Zm0 0"/><path fill="#202214" d="m72.563 231.762-10.774 4.968-1.934-9.632Zm0 0"/><path fill="#e7b96f" d="M50.703 248.098 61.79 236.73l5.39 9.848Zm0 0"/><path fill="#202215" d="m35.61 246.203.195 28.578L0 232.418Zm0 0"/><path fill="#202215" d="m35.766 229.758-.157 16.445L0 232.418Zm0 0"/><path fill="#202215" d="m44.477 236.852 6.226 11.246-15.094-1.895ZM35.766 229.758l8.71 7.094-8.867 9.351Zm0 0"/><path fill="#202215" d="m46.836 232.047-2.36 4.805-8.71-7.094Zm0 0"/><path fill="#eabf73" d="m61.79 236.73-17.313.122 2.359-4.805Zm0 0"/><path fill="#d68a50" d="m44.477 236.852 17.312-.122-11.086 11.368Zm0 0"/><path fill="#eac174" d="m77.219 254.55-14.664 3.759 4.625-11.73Zm0 0"/><path fill="#e9bd71" d="m77.219 254.55 4.344 11.47-19.008-7.711Zm0 0"/><path fill="#3c2802" d="m96.879 248.184-14.672-10.102 6.078-8.363Zm0 0"/><path fill="#2f250a" d="m88.285 229.719-6.078 8.363-9.644-6.32Zm0 0"/><path fill="#ebc275" d="m162.71 192.152 3.716-16.355 17.203 14.828Zm0 0"/><path fill="#202215" d="m149.422 171.578 17.004 4.219-16.04 4.773Zm0 0"/><path fill="#eac174" d="m162.71 192.152-22.214 11.356 9.89-22.938Zm0 0"/><path fill="#ebc174" d="m166.426 175.797-3.715 16.355-12.324-11.582Zm0 0"/><path fill="#eac174" d="m133.773 240.48 12.883-11.468.098 16.754Zm0 0"/><path fill="#eac174" d="m146.656 229.012-12.883 11.468-16.968-19.44Zm0 0"/><path fill="#ebc275" d="m189.863 166.852 11.27.191-6.988 8.32Zm0 0"/><path fill="#ebc275" d="m189.863 166.852 6.063-5.368 5.207 5.559Zm0 0"/><path fill="#202215" d="m195.926 161.484-6.063 5.368-15.308-27.82ZM137.258 151.89l-5.637 31.106-11.18-.59ZM149.422 171.578l-17.8 11.418 5.636-31.105Zm0 0"/><path fill="#eac174" d="m140.496 203.508-8.875-20.512 18.766-2.426Zm0 0"/><path fill="#202215" d="m131.621 182.996 17.8-11.418.966 8.992ZM56.05 146.477 21.8 178.824 0 110.954ZM60.203 173.21l-38.402 5.614 34.25-32.347Zm0 0"/><path fill="#202215" d="m21.8 178.824 38.403-5.613-25.941 14.57Zm0 0"/><path fill="#eac174" d="m60.492 180.418 8.758-1.57 5.203 23.875Zm0 0"/><path fill="#e7b86e" d="m57.266 213.648 3.226-33.23 13.961 22.305Zm0 0"/><path fill="#202215" d="m34.262 187.781 26.23-7.363-3.226 33.23ZM60.492 180.418l-.289-7.207 9.047 5.637Zm0 0"/><path fill="#202215" d="m60.203 173.21.29 7.208-26.231 7.363Zm0 0"/><path fill="#3a2802" d="m273.234 224.188 14.293-15.922 5.422 6.183Zm0 0"/><path fill="#202215" d="m364.469 177.176-4.758-23.68L384 171.2Zm0 0"/><path fill="#ebc275" d="m301.426 168.66 12.058-15.601 7.793 7.828Zm0 0"/><path fill="#ebc174" d="m255.367 147.75 9.528-9.492 1.742 14.855Zm0 0"/><path fill="#eac174" d="m264.895 138.258-3.192-2.473 18.86-27.87Zm0 0"/><path fill="#eac174" d="m261.703 135.785 3.192 2.473-9.528 9.492ZM278.11 166.855l16.195-16.511 7.12 18.316Zm0 0"/><path fill="#202215" d="M335.207 49.988 308.086 0H384ZM384 99.043l-48.793-49.055L384 0ZM122.793 384l29.723-45.445 38.086 25.195ZM73.813 347.633 56.835 384 37.78 347.574ZM56.836 384l16.977-36.367L122.792 384Zm0 0"/><path fill="#202215" d="m52.016 310.004 21.797 37.629-36.032-.059ZM92.89 321.68l16.465 6.511-8.132 15.34Zm0 0"/><path fill="#ebc275" d="m218.39 168.344 16.442 7.59-24.367 11.816ZM209.93 154.762l8.46 13.582-17.257-1.301Zm0 0"/><path fill="#ebc275" d="m209.93 154.762-8.797 12.281-5.207-5.559Zm0 0"/><path fill="#202215" d="m198.793 139.293 11.137 15.469-14.004 6.722Zm0 0"/><path fill="#6b3622" d="m164.047 294.457 14.387-14.004-2.66 25.113Zm0 0"/><path fill="#713426" d="m164.047 294.457-5.766 10.156-13.441-14.152Zm0 0"/><path fill="#e4b36b" d="m161.707 278.43 2.34 16.027-19.207-3.996Zm0 0"/><path fill="#4b2c0c" d="m164.047 294.457-2.34-16.027 16.727 2.023Zm0 0"/><path fill="#eac174" d="m178.434 280.453-16.727-2.023 2.996-7.516ZM141.953 264.316l.14-7.507 15.7 2.125ZM214.52 230.316l-14.735-15.683 31.305-.754Zm0 0"/><path fill="#ebc275" d="m234.832 175.934 24.977 24.66-28.72 13.285Zm0 0"/><path fill="#eac174" d="m259.809 200.594-4.141 22.277-24.578-8.992Zm0 0"/><path fill="#eac174" d="m255.668 222.871 4.14-22.277 13.426 23.594Zm0 0"/><path fill="#ebc275" d="M210.465 172.98v14.77l-9.332-20.707Zm0 0"/><path fill="#ebc275" d="m218.39 168.344-7.925 4.636-9.332-5.937ZM210.465 172.98l7.926-4.636-7.926 19.406Zm0 0"/><path fill="#eac174" d="m170.64 218.074 12.989-27.449 16.156 24.008Zm0 0"/><path fill="#c3572d" d="m320.695 314.742-6.59-6.77 28.055-42.406Zm0 0"/><path fill="#202215" d="m357.281 302.055-36.586 12.687 21.465-49.176Zm0 0"/><path fill="#e0b06b" d="m259.09 273.96-11.8-12.878 13.706-3.383Zm0 0"/><path fill="#e9bd71" d="m247.29 261.082 11.694-12.184 2.012 8.801Zm0 0"/><path fill="#eac174" d="m261.977 233.438-6.309-10.567 17.566 1.316Zm0 0"/><path fill="#e9be72" d="m255.668 222.871 6.309 10.566-14.653 5.887Zm0 0"/><path fill="#3a2802" d="m261.977 233.438-2.993 15.46-11.66-9.574Zm0 0"/><path fill="#e9bd71" d="m295.453 205.762 9.149 11.14-11.653-2.453Zm0 0"/><path fill="#eac174" d="m304.602 216.902-14.305 16.703 2.652-19.156ZM304.602 216.902l-9.149-11.14 6.067-5.778Zm0 0"/><path fill="#ebc275" d="m305.762 237.809-1.16-20.907 17.117 10.223Zm0 0"/><path fill="#eac174" d="m304.602 216.902 1.16 20.907-15.465-4.204ZM258.984 248.898l22.239 5.082-20.227 3.72ZM281.223 253.98l9.074-20.375 7.187 17.774Zm0 0"/><path fill="#522d10" d="m259.09 273.96 20.719-.058-17.625 14.102Zm0 0"/><path fill="#202215" d="m347.32 208.953 17.149-31.777 1.535 52.363ZM233.531 356.73l24.883-21.496L261.22 384Zm0 0"/><path fill="#202215" d="m200.41 384-9.808-20.25 42.93-7.02Zm0 0"/><path fill="#953e3c" d="m347.32 208.953 18.684 20.586-29.195 10.207Zm0 0"/><path fill="#202215" d="m384 384-37.32-44.457L384 319.102Zm0 0"/><path fill="#b55228" d="m292.246 312.754-11.289-12.43 21.598-4.703Zm0 0"/><path fill="#743525" d="m317 264.89-2.895 43.083-11.55-12.352Zm0 0"/><path fill="#913b39" d="m292.246 312.754 21.86-4.781-7.512 15.87Zm0 0"/><path fill="#5c2f27" d="m306.594 323.844 7.511-15.871 6.59 6.77Zm0 0"/><path fill="#202215" d="m306.594 323.844 14.101-9.102-7.957 24.883Zm0 0"/><path fill="#582f1e" d="m302.555 295.621 11.55 12.352-21.859 4.78Zm0 0"/><path fill="#eac174" d="m258.414 335.234-22.441-15.418 28.855-.39Zm0 0"/><path fill="#af5028" d="m280.957 300.324-16.129 19.102-17.262-16.57Zm0 0"/><path fill="#432a07" d="m264.828 319.426 16.129-19.102 11.29 12.43Zm0 0"/><path fill="#202215" d="m222.305 121.031 16.656-2.355-1.965 17.77Zm0 0"/><path fill="#202215" d="m238.96 118.676 12.38 13.058-14.344 4.711Zm0 0"/><path fill="#3f2905" d="m229.488 290.965-17.383-14.492 32.043 1.226Zm0 0"/><path fill="#472b0a" d="m210.395 303.387 1.71-26.914 17.383 14.492Zm0 0"/><path fill="#5b3015" d="m264.828 319.426-24.59-10.524 7.328-6.047Zm0 0"/><path fill="#4b2b23" d="m240.238 308.902 24.59 10.524-28.855.39Zm0 0"/><path fill="#4c2c0c" d="m240.238 308.902-4.265 10.914-25.578-16.43Zm0 0"/><path fill="#202215" d="m67.77 276.184 9.273 12.867-25.027 20.953Zm0 0"/><path fill="#eac174" d="m112 200.031 13.145-10.07 15.351 13.547ZM131.621 182.996l-6.476 6.965-4.704-7.555Zm0 0"/><path fill="#eac174" d="m125.145 189.96 6.476-6.964 8.875 20.512ZM112 200.031l-11.535-17.898 19.976.273ZM125.145 189.96 112 200.032l8.441-17.625Zm0 0"/><path fill="#eac174" d="M100.465 182.133 112 200.03l-24.203-6.844Zm0 0"/><path fill="#202215" d="m0 310.426 35.805-35.645 16.21 35.223ZM35.805 274.781l-.196-28.578 11.93 8.7ZM35.805 274.781l26.75-16.472 5.215 17.875Zm0 0"/><path fill="#202215" d="m62.555 258.309-26.75 16.472 11.734-19.879ZM77.012 321.766l15.879-.086-19.079 25.953ZM52.016 310.004l24.996 11.762-3.2 25.867ZM82.035 306.445l-5.023 15.32-24.996-11.761Zm0 0"/><path fill="#232315" d="m77.012 321.766 5.023-15.32 10.856 15.234Zm0 0"/><path fill="#8c3b36" d="m95.398 270.063 10.43 13.585-9.383 10.86Zm0 0"/><path fill="#853930" d="m110.516 271.816-4.688 11.832-10.43-13.586Zm0 0"/><path fill="#eac174" d="m109.926 265.258.59 6.558-15.118-1.753Zm0 0"/><path fill="#202214" d="m82.207 238.082-10.457 1.867.813-8.187Zm0 0"/><path fill="#e8bd71" d="m61.79 236.73 9.96 3.22-4.57 6.628Zm0 0"/><path fill="#202214" d="m71.75 239.95-9.96-3.22 10.773-4.968Zm0 0"/><path fill="#eac174" d="m157.793 258.934 20.004 2.332-13.094 9.648Zm0 0"/><path fill="#3a2802" d="m177.797 261.266-20.004-2.332 8.738-11.63Zm0 0"/><path fill="#ebc275" d="m183.629 190.625 1.754-20.84 8.762 5.578ZM185.383 169.785l4.48-2.933 4.282 8.511Zm0 0"/><path fill="#eac174" d="m166.426 175.797 18.957-6.012-1.754 20.84Zm0 0"/><path fill="#202215" d="m189.863 166.852-22.699-5.176 7.39-22.645Zm0 0"/><path fill="#202215" d="m174.555 139.031-7.39 22.645-29.907-9.785Zm0 0"/><path fill="#eac174" d="m185.383 169.785-18.219-8.11 22.7 5.177Zm0 0"/><path fill="#202215" d="m167.164 161.676-17.742 9.902-12.164-19.687ZM167.164 161.676l-.738 14.12-17.004-4.218ZM167.164 161.676l18.219 8.11-18.957 6.01ZM72.61 166.918l-12.407 6.293-4.152-26.734Zm0 0"/><path fill="#202215" d="m72.61 166.918-16.56-20.441 41.622-.762ZM60.203 173.21l12.406-6.292-3.359 11.93Zm0 0"/><path fill="#202215" d="M72.61 166.918 86.94 179.18l-17.691-.332ZM72.61 166.918l25.062-21.203-10.73 33.465Zm0 0"/><path fill="#e4ab65" d="m290.297 233.605-10.117-2.582 12.77-16.574Zm0 0"/><path fill="#3a2802" d="m280.18 231.023-6.946-6.835 19.715-9.739Zm0 0"/><path fill="#eac174" d="m273.234 224.188-13.425-23.594 27.718 7.672Zm0 0"/><path fill="#ebc275" d="m257.797 169.871 2.012 30.723-24.977-24.66ZM259.809 200.594l-2.012-30.723 20.426 17.106Zm0 0"/><path fill="#eac174" d="m287.527 208.266-27.718-7.672 18.414-13.617Zm0 0"/><path fill="#202215" d="m359.71 153.496-18.952-5.973 3.418-20.25Zm0 0"/><path fill="#ebc275" d="m325.457 180.031-24.031-11.37 19.851-7.774Zm0 0"/><path fill="#202215" d="m312.16 101.695-3.117-25.125 27.39 18.09Zm0 0"/><path fill="#eac174" d="m309.332 151.855 4.152 1.204-12.058 15.601Zm0 0"/><path fill="#3a2802" d="m294.305 150.344 15.027 1.511-7.906 16.805Zm0 0"/><path fill="#202215" d="m294.305 150.344 4.988-31.574 5.289 10.543ZM309.332 151.855l-15.027-1.511 10.277-21.031Zm0 0"/><path fill="#202214" d="m101.223 343.531 24.566 1.168L122.793 384ZM122.793 384l2.996-39.3 26.727-6.145Zm0 0"/><path fill="#ebc275" d="m218.39 168.344 5.696-24.461 10.746 32.05Zm0 0"/><path fill="#ebc275" d="m209.93 154.762 14.156-10.88-5.695 24.462ZM224.086 143.883l20.137 5.75-9.391 26.3Zm0 0"/><path fill="#ebc275" d="m244.223 149.633-20.137-5.75 12.91-7.438Zm0 0"/><path fill="#e9c074" d="m224.086 143.883.105-1.223 12.805-6.215Zm0 0"/><path fill="#202215" d="m224.191 142.66-.105 1.223-25.293-4.59Zm0 0"/><path fill="#202215" d="m224.086 143.883-14.156 10.879-11.137-15.469Zm0 0"/><path fill="#903b36" d="m130.926 274.246-13.067 7.512-7.343-9.942Zm0 0"/><path fill="#6d3325" d="m105.828 283.648 12.031-1.89-1.277 4.75Zm0 0"/><path fill="#843930" d="m110.516 271.816 7.343 9.942-12.03 1.89Zm0 0"/><path fill="#a55646" d="m131.863 257.273 10.09 7.043-11.027 9.93Zm0 0"/><path fill="#eac174" d="m141.953 264.316-10.09-7.043 10.23-.464Zm0 0"/><path fill="#3a2802" d="m142.094 256.809 4.66-11.043 11.039 13.168Zm0 0"/><path fill="#3a2802" d="m157.793 258.934-11.04-13.168 19.778 1.539Zm0 0"/><path fill="#eac174" d="m166.531 247.305-19.777-1.54-.098-16.753Zm0 0"/><path fill="#bf8b4d" d="m187.777 321.68 4.485-28.403 18.133 10.11Zm0 0"/><path fill="#69341e" d="m178.434 280.453 13.828 12.824-16.489 12.29Zm0 0"/><path fill="#af592b" d="m192.262 293.277-4.485 28.403-12.004-16.114Zm0 0"/><path fill="#eac174" d="m164.703 270.914-15.879 3.516 8.969-15.496Zm0 0"/><path fill="#e4b870" d="m148.824 274.43-6.87-10.114 15.839-5.382Zm0 0"/><path fill="#eac174" d="m141.953 264.316 6.871 10.114-17.898-.184ZM148.824 274.43l15.88-3.516-2.997 7.516Zm0 0"/><path fill="#c65e30" d="m198.727 269.71-4.477-18.046 16.297 8.5Zm0 0"/><path fill="#eac174" d="m214.52 230.316-20.27 21.348 5.535-37.031Zm0 0"/><path fill="#ebc275" d="m183.629 190.625-12.988 27.45-7.93-25.923Zm0 0"/><path fill="#eac174" d="m162.71 192.152 7.93 25.922-30.144-14.566ZM170.64 218.074l-23.984 10.938-6.16-25.504ZM170.64 218.074l-4.109 29.23-19.875-18.292Zm0 0"/><path fill="#202215" d="m384 251.777-26.719 50.278-15.12-36.489Zm0 0"/><path fill="#202215" d="m384 251.777-41.84 13.79 23.844-36.028ZM357.281 302.055 384 251.777v67.325Zm0 0"/><path fill="#eac174" d="m247.29 261.082 11.8 12.879-14.942 3.738Zm0 0"/><path fill="#3b2802" d="m258.984 248.898-13.836 7.684 2.176-17.258Zm0 0"/><path fill="#eabf73" d="m247.29 261.082-2.142-4.5 13.836-7.684Zm0 0"/><path fill="#c4774d" d="m305.844 251.86-6.996 15.757-1.364-16.238Zm0 0"/><path fill="#eac174" d="m305.762 237.809.082 14.05-8.36-.48ZM290.297 233.605l15.465 4.204-8.278 13.57Zm0 0"/><path fill="#ebc275" d="m318.594 207.527-13.992 9.375-3.082-16.918ZM304.602 216.902l13.992-9.375 3.125 19.598Zm0 0"/><path fill="#d6834a" d="m281.223 253.98 17.625 13.637-19.04 6.285Zm0 0"/><path fill="#ce6938" d="m298.848 267.617-17.625-13.637 16.261-2.601Zm0 0"/><path fill="#c18f5a" d="m279.809 273.902-20.72.059 1.907-16.262Zm0 0"/><path fill="#c37042" d="m281.223 253.98-1.414 19.922-18.813-16.203Zm0 0"/><path fill="#eac174" d="m325.86 238.04-4.141-10.915 15.09 12.621Zm0 0"/><path fill="#eac174" d="m321.719 227.125 25.601-18.172-10.511 30.793Zm0 0"/><path fill="#eac174" d="m347.32 208.953-25.601 18.172-3.125-19.598Zm0 0"/><path fill="#a04929" d="M298.848 267.617 317 264.891l-14.445 30.73Zm0 0"/><path fill="#202215" d="m320.695 314.742 25.985 24.801-33.942.082Zm0 0"/><path fill="#202215" d="m357.281 302.055-10.601 37.488-25.985-24.8ZM346.68 339.543l10.601-37.488L384 319.102Zm0 0"/><path fill="#ebc275" d="m244.223 149.633 11.144-1.883 2.43 22.121ZM234.832 175.934l9.39-26.301 13.575 20.238ZM244.223 149.633l7.117-17.899 4.027 16.016Zm0 0"/><path fill="#ebc275" d="m251.34 131.734-7.117 17.899-7.227-13.188Zm0 0"/><path fill="#c7592d" d="m282.164 95.422-1.601 12.492-12.083-6.09Zm0 0"/><path fill="#eac073" d="m280.563 107.914 1.601-12.492 17.586-4.234Zm0 0"/><path fill="#eac174" d="m299.293 118.77 14.809-2.122-9.52 12.665Zm0 0"/><path fill="#ca5c2f" d="m299.293 118.77 12.867-17.075 1.942 14.953Zm0 0"/><path fill="#eac174" d="m210.313 323.309 25.66-3.493-8.844 20.055Zm0 0"/><path fill="#7b362a" d="m192.816 339.95 17.496-16.641 16.817 16.562Zm0 0"/><path fill="#923b3a" d="m235.973 319.816-25.66 3.493.082-19.922Zm0 0"/><path fill="#eac174" d="m196.121 322.156 14.191 1.153-17.496 16.64Zm0 0"/><path fill="#903a39" d="m210.313 323.309-14.192-1.153 14.274-18.77Zm0 0"/><path fill="#9b4d3c" d="m95.398 270.063-2.656 24.414-11.18-28.457Zm0 0"/><path fill="#eac174" d="m92.742 294.477 3.703.03 4.754 16.747Zm0 0"/><path fill="#c66436" d="m101.2 311.254 8.155 16.937-16.464-6.511Zm0 0"/><path fill="#e9bf73" d="m82.035 306.445 19.164 4.809-8.308 10.426Zm0 0"/><path fill="#cb5f32" d="m92.742 294.477 8.457 16.777-19.164-4.809Zm0 0"/><path fill="#eac174" d="m95.398 270.063-.652-12.274 15.18 7.469Zm0 0"/><path fill="#e9bd72" d="m94.746 257.79.652 12.272-13.835-4.042Zm0 0"/><path fill="#202215" d="m80.406 246.219-8.656-6.27 10.457-1.867ZM80.406 246.219l1.801-8.137 14.672 10.102Zm0 0"/><path fill="#e7b76d" d="m80.406 246.219-3.187 8.332-10.04-7.973Zm0 0"/><path fill="#eabf73" d="m71.75 239.95 8.656 6.269-13.226.36Zm0 0"/><path fill="#3a2802" d="m194.25 251.664-16.453 9.602-11.266-13.961Zm0 0"/><path fill="#eac174" d="m170.64 218.074 23.61 33.59-27.719-4.36ZM194.25 251.664l-23.61-33.59 29.145-3.441Zm0 0"/><path fill="#813733" d="m212.105 276.473-13.378-6.762 11.82-9.547Zm0 0"/><path fill="#512d12" d="m192.262 293.277 4.152-15.507 13.98 25.617Zm0 0"/><path fill="#3b2802" d="m196.414 277.77-4.152 15.507-13.828-12.824Zm0 0"/><path fill="#ebc275" d="m313.484 153.059 12.844-4.961-5.05 12.789Zm0 0"/><path fill="#202215" d="m340.758 147.523-14.43.575 17.848-20.825Zm0 0"/><path fill="#202215" d="m326.328 148.098 1.977-17.84 15.87-2.985Zm0 0"/><path fill="#ebc275" d="m325.457 180.031-6.863 27.496-17.074-7.543Zm0 0"/><path fill="#eac174" d="m325.457 180.031 21.863 28.922-28.726-1.426Zm0 0"/><path fill="#3a2802" d="m301.426 168.66.094 31.324-7.06-.742Zm0 0"/><path fill="#eac174" d="m301.426 168.66 24.031 11.371-23.937 19.953Zm0 0"/><path fill="#202215" d="m337.344 156.535 3.414-9.012 18.953 5.973Zm0 0"/><path fill="#ebc275" d="m337.344 156.535-11.887 23.496-4.18-19.144Zm0 0"/><path fill="#eac174" d="m326.328 148.098 11.016 8.437-16.067 4.352Zm0 0"/><path fill="#202215" d="m337.344 156.535-11.016-8.437 14.43-.575Zm0 0"/><path fill="#3a2802" d="m294.305 150.344-26.743 4.855-.925-2.086Zm0 0"/><path fill="#eac174" d="m267.563 155.2 26.742-4.856-16.196 16.511ZM294.305 150.344l-11.168-10.38 16.156-21.194Zm0 0"/><path fill="#202215" d="M109.355 328.191 125.79 344.7l-24.566-1.168Zm0 0"/><path fill="#843834" d="m187.777 321.68 5.04 18.27-30.626-3.356Zm0 0"/><path fill="#8a3a38" d="m154 319.977 8.191 16.617-9.675 1.96Zm0 0"/><path fill="#202215" d="m152.516 338.555 9.675-1.961 28.41 27.156ZM162.191 336.594l30.625 3.355-2.214 23.801Zm0 0"/><path fill="#813730" d="m125.309 288.52-7.45-6.762 13.067-7.512Zm0 0"/><path fill="#7e362e" d="m125.309 288.52 5.617-14.274 13.914 16.215Zm0 0"/><path fill="#883934" d="m117.86 281.758 7.449 6.762-8.727-2.012Zm0 0"/><path fill="#daa05e" d="m125.023 316.828.286-28.308 19.53 1.94Zm0 0"/><path fill="#eac174" d="m94.746 257.79 13.34-5.895 1.84 13.363Zm0 0"/><path fill="#3a2802" d="m131.863 257.273-23.777-5.378 24.484-3.77Zm0 0"/><path fill="#eac174" d="m96.879 248.184 11.207 3.71-13.34 5.895Zm0 0"/><path fill="#963e3c" d="m109.926 265.258 21.937-7.985-.937 16.973Zm0 0"/><path fill="#3a2802" d="m132.57 248.125 1.203-7.645 12.98 5.286Zm0 0"/><path fill="#3a2802" d="m142.094 256.809-9.524-8.684 14.184-2.36Zm0 0"/><path fill="#3a2802" d="m131.863 257.273.707-9.148 9.524 8.684Zm0 0"/><path fill="#6c3429" d="m158.281 304.613 5.766-10.156 11.726 11.11Zm0 0"/><path fill="#eac174" d="m144.758 304.27 13.523.343L154 319.977Zm0 0"/><path fill="#893a35" d="m125.023 316.828 19.735-12.558L154 319.977Zm0 0"/><path fill="#eac074" d="M113.902 299.832 101.2 311.254l-4.754-16.746Zm0 0"/><path fill="#e9bf73" d="m113.902 299.832-8.074-16.184 10.754 2.86Zm0 0"/><path fill="#2a2518" d="m105.828 283.648 8.074 16.184-17.457-5.324Zm0 0"/><path fill="#eac174" d="m125.309 288.52-11.407 11.312 2.68-13.324Zm0 0"/><path fill="#703324" d="m144.84 290.46 3.984-16.03 12.883 4Zm0 0"/><path fill="#7b362b" d="m148.824 274.43-3.984 16.03-13.914-16.214Zm0 0"/><path fill="#6a352b" d="m330.512 269.73.691-9.652 10.957 5.488Zm0 0"/><path fill="#733624" d="m317 264.89 13.512 4.84-16.407 38.243Zm0 0"/><path fill="#c5582d" d="m330.512 269.73 11.648-4.164-28.055 42.407Zm0 0"/><path fill="#eac174" d="m281.223 253.98-1.043-22.957 10.117 2.582ZM280.563 107.914l-15.235 3.422 3.152-9.512Zm0 0"/><path fill="#c95a2e" d="m312.16 101.695-12.867 17.075.457-27.582Zm0 0"/><path fill="#ca5a2e" d="m299.293 118.77-18.73-10.856 19.187-16.726Zm0 0"/><path fill="#eac174" d="m196.121 322.156-8.344-.476 22.618-18.293Zm0 0"/><path fill="#c95c30" d="m81.563 266.02 11.18 28.457-15.7-5.426Zm0 0"/><path fill="#e9c074" d="m81.563 266.02-4.52 23.03-9.273-12.866Zm0 0"/><path fill="#eac174" d="m77.043 289.05 15.7 5.427-10.708 11.968Zm0 0"/><path fill="#202215" d="m77.043 289.05 4.992 17.395-30.02 3.559Zm0 0"/><path fill="#3a2802" d="m132.57 248.125-21.238-11.012 22.441 3.367Zm0 0"/><path fill="#eac174" d="m111.332 237.113 5.473-16.074 16.968 19.441Zm0 0"/><path fill="#3a2802" d="m108.086 251.895 3.246-14.782 21.238 11.012Zm0 0"/><path fill="#392702" d="m111.332 237.113-3.246 14.782-11.207-3.711Zm0 0"/><path fill="#eac174" d="m116.805 221.04-5.473 16.073-23.047-7.394Zm0 0"/><path fill="#3e2903" d="m111.332 237.113-14.453 11.07-8.594-18.464Zm0 0"/><path fill="#eac174" d="m80.406 246.219 14.34 11.57-17.527-3.238Zm0 0"/><path fill="#eac073" d="m94.746 257.79-14.34-11.571 16.473 1.965Zm0 0"/><path fill="#e8bc72" d="m77.219 254.55 17.527 3.24-13.183 8.23Zm0 0"/><path fill="#eac174" d="m212.105 276.473 35.184-15.391-3.14 16.617Zm0 0"/><path fill="#8d3d39" d="m247.29 261.082-35.185 15.39-1.558-16.308Zm0 0"/><path fill="#da9455" d="m245.148 256.582 2.141 4.5-36.742-.918Zm0 0"/><path fill="#402906" d="m196.414 277.77 15.691-1.297-1.71 26.914Zm0 0"/><path fill="#eac174" d="m212.105 276.473-15.69 1.297 2.312-8.06ZM185.813 267.871l10.601 9.899-17.98 2.683Zm0 0"/><path fill="#eac074" d="m196.414 277.77-10.601-9.899 12.914 1.84Zm0 0"/><path fill="#eac174" d="m185.813 267.871-7.38 12.582-13.73-9.539Zm0 0"/><path fill="#e9c073" d="m177.797 261.266 8.016 6.605-21.11 3.043Zm0 0"/><path fill="#ca5b2f" d="m185.813 267.871-8.016-6.605 16.453-9.602Zm0 0"/><path fill="#c95b2f" d="m198.727 269.71-12.915-1.839 8.438-16.207Zm0 0"/><path fill="#ebc275" d="m317.922 131.059 8.406 17.039-12.844 4.96Zm0 0"/><path fill="#202215" d="m326.328 148.098-8.406-17.04 10.383-.8ZM325.34 115.602l-13.18-13.907 24.274-7.035Zm0 0"/><path fill="#202215" d="m312.16 101.695 13.18 13.907-11.238 1.046Zm0 0"/><path fill="#202215" d="m344.176 127.273-18.836-11.671 11.094-20.942Zm0 0"/><path fill="#202215" d="m328.305 130.258-2.965-14.656 18.836 11.671Zm0 0"/><path fill="#202215" d="m317.922 131.059 7.418-15.457 2.965 14.656ZM325.34 115.602l-7.418 15.457-3.82-14.41Zm0 0"/><path fill="#eac174" d="m337.344 156.535 9.273 14.63-21.16 8.866Zm0 0"/><path fill="#eac174" d="m325.457 180.031 21.16-8.867.703 37.79Zm0 0"/><path fill="#202215" d="m346.617 171.164-9.273-14.629 22.367-3.039Zm0 0"/><path fill="#202215" d="m346.617 171.164 13.094-17.668 4.758 23.68ZM347.32 208.953l-.703-37.789 17.852 6.012Zm0 0"/><path fill="#ebc174" d="m274.867 151.934 8.27-11.97 11.168 10.38Zm0 0"/><path fill="#3a2802" d="m274.867 151.934 19.438-1.59-27.668 2.77ZM264.895 138.258l9.972 13.676-8.23 1.18Zm0 0"/><path fill="#202214" d="m283.137 139.965-8.27 11.969-9.972-13.676Zm0 0"/><path fill="#202215" d="m109.355 328.191 21.786 5.348-5.352 11.16Zm0 0"/><path fill="#c9592d" d="m154 319.977-22.86 13.562-6.117-16.71Zm0 0"/><path fill="#202215" d="m125.79 344.7 5.35-11.16 21.376 5.015Zm0 0"/><path fill="#8f3a39" d="M131.14 333.54 154 319.976l-1.484 18.578Zm0 0"/><path fill="#eac174" d="m187.777 321.68 8.344.476-3.305 17.793ZM109.926 265.258l-1.84-13.363 23.777 5.378ZM109.926 265.258l21 8.988-20.41-2.43Zm0 0"/><path fill="#7b382e" d="m113.902 299.832 11.121 16.996-23.824-5.574Zm0 0"/><path fill="#e9be72" d="m125.023 316.828-11.12-16.996 11.406-11.312Zm0 0"/><path fill="#eac174" d="m325.86 238.04-7.415 8.968 3.274-19.883Zm0 0"/><path fill="#eac174" d="m318.445 247.008-12.683-9.2 15.957-10.683ZM318.445 247.008l-12.601 4.851-.082-14.05Zm0 0"/><path fill="#dc9657" d="m342.16 265.566-5.351-25.82 29.195-10.207Zm0 0"/><path fill="#c25c2f" d="m331.203 260.078 5.606-20.332 5.351 25.82Zm0 0"/><path fill="#eac174" d="m336.809 239.746-18.364 7.262 7.414-8.969Zm0 0"/><path fill="#c45f30" d="m318.445 247.008 18.364-7.262-5.606 20.332Zm0 0"/><path fill="#3a2802" d="m245.148 256.582-14.03-11.727 16.206-5.53ZM231.117 244.855l14.031 11.727-34.601 3.582Zm0 0"/><path fill="#eac174" d="m247.324 239.324-16.207 5.531-.027-30.976ZM231.117 244.855l-16.597-14.539 16.57-16.437Zm0 0"/><path fill="#3b2802" d="m194.25 251.664 36.867-6.809-20.57 15.31Zm0 0"/><path fill="#eac174" d="m231.117 244.855-36.867 6.81 20.27-21.349Zm0 0"/><path fill="#3a2802" d="m270.2 237.254-8.223-3.816 11.257-9.25Zm0 0"/><path fill="#3a2802" d="m280.18 231.023-9.98 6.23 3.034-13.065Zm0 0"/><path fill="#eac074" d="m270.2 237.254 9.98-6.23 1.043 22.956Zm0 0"/><path fill="#3a2802" d="m261.977 233.438 8.222 3.816-11.215 11.644Zm0 0"/><path fill="#e4ad67" d="m270.2 237.254 11.023 16.726-22.239-5.082Zm0 0"/><path fill="#ca5c2f" d="m284.695 117.46-4.132-9.546 18.73 10.856Zm0 0"/><path fill="#eac174" d="m283.137 139.965 1.558-22.504 14.598 1.309Zm0 0"/><path fill="#202214" d="m284.695 117.46-19.8 20.798 15.668-30.344Zm0 0"/><path fill="#202215" d="m284.695 117.46-1.558 22.505-18.242-1.707Zm0 0"/><path fill="#eac174" d="m317.922 131.059-4.781.14.96-14.55ZM313.14 131.2l-3.808 20.655-4.75-22.542Zm0 0"/><path fill="#eac174" d="m314.102 116.648-.961 14.551-8.559-1.887Zm0 0"/><path fill="#ebc275" d="m309.332 151.855 3.809-20.656.343 21.86Zm0 0"/><path fill="#eac174" d="m313.14 131.2 4.782-.141-4.438 22Zm0 0"/><path fill="#ddb76f" d="m101.2 311.254 23.823 5.574-15.668 11.363Zm0 0"/><path fill="#9c4333" d="m125.023 316.828 6.118 16.711-21.786-5.348Zm0 0"/><path fill="#cc7e49" d="m317 264.89 1.445-17.882 12.758 13.07Zm0 0"/><path fill="#74392f" d="m317 264.89 14.203-4.812-.691 9.652Zm0 0"/><path fill="#c47d51" d="M305.844 251.86 317 264.89l-18.152 2.727Zm0 0"/><path fill="#964f3d" d="M318.445 247.008 317 264.89l-11.156-13.032Zm0 0"/><path fill="#e9bf73" d="m160.996 320.41-2.715-15.797 17.492.953Zm0 0"/><path fill="#823834" d="m187.777 321.68-26.78-1.27 14.776-14.844Zm0 0"/><path fill="#e7c175" d="m158.281 304.613 2.715 15.797-6.996-.433Zm0 0"/><path fill="#e7c879" d="m154 319.977 6.996.433 1.195 16.184Zm0 0"/><path fill="#eac275" d="m160.996 320.41 26.781 1.27-25.586 14.914Zm0 0"/></svg>