<svg xmlns="http://www.w3.org/2000/svg" width="512" height="512" viewBox="0 0 384 384"><path fill="#158599" d="m187.402 57.629-3.285 72.191-46.277-7.086Zm0 0"/><path fill="#15879b" d="m187.402 57.629 74.801-.215-27.969 50.383Zm0 0"/><path fill="#148ca0" d="m0 0 56.54 73.348L0 97.305Zm0 0"/><path fill="#bcb9c2" d="m145.145 219.582-44.024 7.832 10.692-18.379Zm0 0"/><path fill="#158095" d="m52.52 138.977 4.02-65.63 38.542 33.801Zm0 0"/><path fill="#157e93" d="m0 97.305 56.54-23.957-4.02 65.629Zm0 0"/><path fill="#15879c" d="m56.54 73.348 66.179-9.137-27.637 42.937Zm0 0"/><path fill="#167a8f" d="m122.719 64.21 15.12 58.524-42.757-15.586Zm0 0"/><path fill="#157f94" d="m187.402 57.629-49.562 65.105-15.121-58.523Zm0 0"/><path fill="#177288" d="M187.402 57.629 122.72 64.21 111.473-.008Zm0 0"/><path fill="#158599" d="M262.203 57.414 295.051 0l25.828 64.168Zm0 0"/><path fill="#177c91" d="m284.95 84.398-22.747-26.984 58.676 6.754Zm0 0"/><path fill="#16788e" d="m111.473-.008 11.246 64.219-66.18 9.137Zm0 0"/><path fill="#c6c3cb" d="m264.375 291.625-15.426 15.332-20.605-31.727Zm0 0"/><path fill="#211634" d="m54.332 201.66-20.586 8.55-.246-14.773Zm0 0"/><path fill="#16758b" d="m.008 182.363 33.738 27.848L.008 241.523Zm0 0"/><path fill="#16768b" d="m33.746 210.21 9.41 30.74-43.148.573Zm0 0"/><path fill="#16798f" d="m127.5 183.879-39.207-3.527 12.852-32.106Zm0 0"/><path fill="#16768c" d="m95.082 107.148 42.758 15.586-36.695 25.512Zm0 0"/><path fill="#16798e" d="M.008 182.363 0 97.305l52.52 41.672Zm0 0"/><path fill="#16788d" d="M.008 182.363 33.5 195.438l.246 14.773Zm0 0"/><path fill="#158398" d="m334.344 100.176-13.465-36.008 63.125 29.789Zm0 0"/><path fill="#157e93" d="m320.879 64.168 13.465 36.008-22.98-2.813Zm0 0"/><path fill="#1a7a8f" d="m320.879 64.168-9.516 33.195-7.672-4.12Zm0 0"/><path fill="#1a7b90" d="m284.95 84.398 35.929-20.23-17.188 29.074Zm0 0"/><path fill="#fbfbfb" d="M-.004 383.996 43.38 300.93l23.918 26.394Zm0 0"/><path fill="#fefefe" d="m240.555 187.02-19.735 34.582-7.168-25.223Zm0 0"/><path fill="#fdfdfd" d="m220.82 221.602-38.058-23.891 30.89-1.332Zm0 0"/><path fill="#231835" d="m284.297 270.785 15.988-1.414-15.32 15.344Zm0 0"/><path fill="#f1f0f2" d="m220.918 371.168-63.617 12.836 24.797-23.067Zm0 0"/><path fill="#fbfbfb" d="m296.613 384.016-15.36-31.137 16.173-6.277Zm0 0"/><path fill="#201533" d="m251.54 273.883 12.835 17.742-36.031-16.395Zm0 0"/><path fill="#16798f" d="M384.004 189.426 384 244.277l-22.105-22.757Zm0 0"/><path fill="#17768c" d="m384 244.277-22.36-2.77.255-19.987Zm0 0"/><path fill="#fefefe" d="m297.426 346.602 36.355-9.668-37.168 47.082Zm0 0"/><path fill="#5f5c71" d="m216.484 178.98 24.07 8.04-26.902 9.359Zm0 0"/><path fill="#16758a" d="M219.566.004 295.051 0l-32.848 57.414Zm0 0"/><path fill="#158498" d="m262.203 57.414 4.93 34.66-32.899 15.723Zm0 0"/><path fill="#158195" d="m267.133 92.074-4.93-34.66 22.746 26.984Zm0 0"/><path fill="#158196" d="m0 0 111.473-.008-54.934 73.356Zm0 0"/><path fill="#a7a3af" d="m248.95 306.957-26.981-13.547 6.375-18.18Zm0 0"/><path fill="#f9f9f9" d="m255.336 357.11-27.203-14.93 24.937-1.832Zm0 0"/><path fill="#201533" d="m227.875 326.824.258 15.356-16.824-.239Zm0 0"/><path fill="#231836" d="m205.715 328.797 22.16-1.973-16.566 15.117Zm0 0"/><path fill="#524961" d="m54.332 201.66 21.11 14.852-24.45 1.652Zm0 0"/><path fill="#c5c2ca" d="M75.441 216.512 54.332 201.66l26.59-3.031Zm0 0"/><path fill="#60586d" d="m75.441 216.512-4.472 10.02-19.977-8.368Zm0 0"/><path fill="#b5b2bb" d="m75.441 216.512 5.48-17.883 20.2 28.785Zm0 0"/><path fill="#4f475e" d="m54.332 201.66-3.34 16.504-17.246-7.953Zm0 0"/><path fill="#16768b" d="m50.992 218.164-7.836 22.785-9.41-30.738Zm0 0"/><path fill="#f7f7f8" d="m50.992 218.164 1.45 13.434-9.286 9.351Zm0 0"/><path fill="#d3d1d7" d="m58.5 255.668-15.344-14.719 18.692 3.707Zm0 0"/><path fill="#f7f7f8" d="M43.156 240.95 58.5 255.667l-16.34-8.945Zm0 0"/><path fill="#4e455d" d="m70.969 226.531 4.472-10.02 25.68 10.903Zm0 0"/><path fill="#201533" d="m105.277 276.363-21.015 2.23 6.468-11.007ZM105.277 276.363l-.695 6.883-20.32-4.652Zm0 0"/><path fill="#d8d6db" d="m58.5 255.668 12.246 19.754-6.203 6.512Zm0 0"/><path fill="#e4e2e6" d="m84.262 278.594-6.02-16.153 12.488 5.145Zm0 0"/><path fill="#167c91" d="m185.316 169.816-1.199-39.996 25.14 25.735Zm0 0"/><path fill="#167a8f" d="m152.738 179.938-25.238 3.94-26.355-35.632Zm0 0"/><path fill="#16788d" d="m137.84 122.734 14.898 57.204-51.593-31.692Zm0 0"/><path fill="#d9d7dc" d="m36.637 187.988 17.695 13.672-20.832-6.222Zm0 0"/><path fill="#158094" d="m334.344 100.176 49.66-6.219-34.7 36.152Zm0 0"/><path fill="#16768c" d="m384.004 189.426-34.7-59.317 34.7-36.152Zm0 0"/><path fill="#16758b" d="m349.305 130.11 34.699 59.316-18.813-.11Zm0 0"/><path fill="#544c63" d="m302.98 182.219-19.296 24.773 6.707-20.172Zm0 0"/><path fill="#167b90" d="m361.895 221.52 3.296-32.204 18.813.11Zm0 0"/><path fill="#ecebee" d="m310.453 196.215-16.71 16.105 9.237-30.101Zm0 0"/><path fill="#221735" d="m293.742 212.32-10.058-5.328 19.296-24.773Zm0 0"/><path fill="#7c7587" d="m288.191 171.719 14.79 10.5-12.59 4.601Zm0 0"/><path fill="#b2aeb9" d="m302.98 182.219-14.789-10.5 15.641-1.168Zm0 0"/><path fill="#15859a" d="M320.879 64.168 295.05 0l88.957.004Zm0 0"/><path fill="#f6f5f6" d="m152.813 355.813 29.285 5.125-24.797 23.066Zm0 0"/><path fill="#f9f9f9" d="m152.813 355.813 16-15.895 13.285 21.02Zm0 0"/><path fill="#f7f7f8" d="m123.313 356.563-39.711 27.43 16.003-39.505Zm0 0"/><path fill="#f6f6f7" d="m83.602 383.992-16.305-56.668 32.308 17.164Zm0 0"/><path fill="#f4f4f5" d="m83.602 383.992-83.606.004 67.3-56.672Zm0 0"/><path fill="#fcfcfc" d="M-.004 383.996 0 278.508l43.379 22.422Zm0 0"/><path fill="#fefefe" d="m267.32 156.328 7.145 11.246-16.203-1.87Zm0 0"/><path fill="#635b70" d="m237.164 162.504 21.098 3.2-17.707 21.316Zm0 0"/><path fill="#f7f7f8" d="m258.262 165.703 16.203 1.871-33.91 19.446Zm0 0"/><path fill="#f0eff1" d="m154.129 294.266 5.266.984-11.793 11.93Zm0 0"/><path fill="#f3f2f4" d="m137.398 293.71 16.73.556-6.526 12.914Zm0 0"/><path fill="#655e72" d="m252.402 220.355-3.12 17.004-28.462-15.757Zm0 0"/><path fill="#8a8695" d="m182.762 197.71 33.722-18.73-2.832 17.399Zm0 0"/><path fill="#f6f5f6" d="m220.918 371.168 75.695 12.848-139.312-.012Zm0 0"/><path fill="#f8f8f9" d="m208.707 353.066 12.211 18.102-38.82-10.23Zm0 0"/><path fill="#fafafa" d="m228.133 342.18-19.426 10.886 2.602-11.125Zm0 0"/><path fill="#60586e" d="m361.64 241.508-12.75 11.933-6.945-16.386Zm0 0"/><path fill="#201533" d="m300.285 269.371 3.844 22.516-19.164-7.172Zm0 0"/><path fill="#f5f5f6" d="m290.457 331.172-5.598 11.976-14.718-4.886Zm0 0"/><path fill="#211634" d="m267.645 325.188 22.812 5.984-20.316 7.09Zm0 0"/><path fill="#221735" d="m288.387 314 2.07 17.172-22.812-5.985Zm0 0"/><path fill="#f7f7f8" d="m290.457 331.172 6.969 15.43-12.567-3.454Zm0 0"/><path fill="#15869a" d="m111.473-.008 108.093.012-32.164 57.625Zm0 0"/><path fill="#15869b" d="M187.402 57.629 219.566.004l42.637 57.41Zm0 0"/><path fill="#158195" d="m219.266 131.434 14.968-23.637 4.914 30.016Zm0 0"/><path fill="#15879b" d="m267.133 92.074 2.847 14.645-35.746 1.078Zm0 0"/><path fill="#167b90" d="m269.98 106.719-10.511 16.86-25.235-15.782Zm0 0"/><path fill="#fcfcfc" d="m264.117 127.117.164 13.2-11.57-7.739Zm0 0"/><path fill="#fefefe" d="m259.469 123.578 4.648 3.54-11.406 5.46Zm0 0"/><path fill="#fdfdfd" d="m264.117 127.117 5.863-20.398 7.665 5.707Zm0 0"/><path fill="#fefefe" d="m269.98 106.719-5.863 20.398-4.648-3.539Zm0 0"/><path fill="#158296" d="m234.234 107.797-50.117 22.023 3.285-72.191Zm0 0"/><path fill="#158095" d="m234.234 107.797-14.968 23.637-35.149-1.614Zm0 0"/><path fill="#a7a2ae" d="m197.988 292.723 23.98.687-15.69 15.434Zm0 0"/><path fill="#291e3b" d="m206.277 308.844 15.692-15.434 26.98 13.547Zm0 0"/><path fill="#2d223f" d="m227.875 326.824 39.77-1.637-14.575 15.16Zm0 0"/><path fill="#625a6f" d="m228.133 342.18-.258-15.356 25.195 13.524Zm0 0"/><path fill="#413851" d="m193.32 341.875 12.395-13.078 5.594 13.144Zm0 0"/><path fill="#fbfbfb" d="m208.707 353.066-15.387-11.191 17.989.066Zm0 0"/><path fill="#f6f6f7" d="m193.32 341.875 15.387 11.191-26.61 7.872Zm0 0"/><path fill="#362c47" d="m70.969 226.531 30.152.883-1.183 7.496Zm0 0"/><path fill="#bfbcc4" d="m88.293 180.352 1.457 11.722-8.828 6.555Zm0 0"/><path fill="#f3f2f4" d="M111.813 209.035 80.922 198.63l8.828-6.555Zm0 0"/><path fill="#c1bec6" d="m101.121 227.414-20.2-28.785 30.891 10.406Zm0 0"/><path fill="#fbfbfb" d="M38.688 245.79 0 278.507l.008-36.985Zm0 0"/><path fill="#f8f8f8" d="M41.137 270.371 0 278.508l38.688-32.719Zm0 0"/><path fill="#fafafa" d="m43.379 300.93 21.164-18.996.766 17.027Zm0 0"/><path fill="#f7f7f8" d="M67.297 327.324 43.379 300.93l21.93-1.97Zm0 0"/><path fill="#c1bec6" d="m62.504 235.2-10.063-3.602-1.449-13.434Zm0 0"/><path fill="#201533" d="m70.969 226.531-8.465 8.668-11.512-17.035Zm0 0"/><path fill="#f5f5f6" d="m43.156 240.95 19.348-5.75-.656 9.456Zm0 0"/><path fill="#f0eff1" d="m42.16 246.723-3.472-.934 4.468-4.84Zm0 0"/><path fill="#177288" d="m43.156 240.95-4.468 4.84-38.68-4.267Zm0 0"/><path fill="#f1f1f2" d="m62.504 235.2-19.348 5.75 9.285-9.352Zm0 0"/><path fill="#231836" d="M70.746 275.422 58.5 255.668l19.742 6.773Zm0 0"/><path fill="#201533" d="m80.508 238.406-9.54-11.875 28.97 8.38Zm0 0"/><path fill="#201533" d="m89.5 247.594-8.992-9.188 19.43-3.496Zm0 0"/><path fill="#f0eff1" d="m144.867 190.938.278 28.644-33.333-10.547Zm0 0"/><path fill="#201533" d="m133.156 240.895-22.203 6.027-11.016-12.012Zm0 0"/><path fill="#362c47" d="m133.156 240.895-33.219-5.985 1.184-7.496Zm0 0"/><path fill="#898393" d="m145.145 219.582-11.989 21.313-32.035-13.48Zm0 0"/><path fill="#d9d7dc" d="M111.813 209.035 127.5 183.88l17.367 7.059Zm0 0"/><path fill="#fbfbfb" d="m127.5 183.879 25.238-3.941-7.87 11Zm0 0"/><path fill="#16778d" d="m.008 182.363 36.629 5.625-3.137 7.45Zm0 0"/><path fill="#16768c" d="m52.52 138.977-15.883 49.011-36.63-5.625Zm0 0"/><path fill="#16798e" d="m62.86 178.082-26.223 9.906 15.883-49.011Zm0 0"/><path fill="#f1f1f3" d="m63.453 186.742 24.84-6.39-7.371 18.277Zm0 0"/><path fill="#b1adb7" d="m54.332 201.66 9.121-14.918 17.469 11.887Zm0 0"/><path fill="#eeeef0" d="m36.637 187.988 26.816-1.246-9.121 14.918Zm0 0"/><path fill="#fefefe" d="m63.453 186.742-.594-8.66 25.434 2.27Zm0 0"/><path fill="#fdfcfd" d="m62.86 178.082.593 8.66-26.816 1.246Zm0 0"/><path fill="#eae9ec" d="m312.887 177.352-9.907 4.867.852-11.668Zm0 0"/><path fill="#f3f2f4" d="m317.402 152.996-4.515 24.356-9.055-6.801Zm0 0"/><path fill="#fefefe" d="m312.887 177.352 4.515-24.356 16.227 19.406Zm0 0"/><path fill="#201533" d="m264.281 140.316 8.496-10.3.97 12.023Zm0 0"/><path fill="#bfbcc4" d="m272.777 130.016-8.66-2.899 13.528-14.691Zm0 0"/><path fill="#b0acb7" d="m264.117 127.117 8.66 2.899-8.496 10.3Zm0 0"/><path fill="#f4f4f5" d="m288.191 171.719 6.477-25.164 9.164 23.996Zm0 0"/><path fill="#f8f7f8" d="m294.668 146.555-6.477 25.164-13.726-4.145Zm0 0"/><path fill="#148a9e" d="m384.004 93.957-63.125-29.789L384.008.004Zm0 0"/><path fill="#f4f3f5" d="m123.313 356.563 29.5-.75 4.488 28.19Zm0 0"/><path fill="#f7f7f8" d="m123.313 356.563 12.082-19.188 17.417 18.438ZM123.313 356.563l33.988 27.44-73.7-.01Zm0 0"/><path fill="#faf9fa" d="m90.656 320.063 19.989 9.64-11.04 14.785Zm0 0"/><path fill="#fbfbfc" d="m216.484 178.98 4.508-18.98 16.172 2.504Zm0 0"/><path fill="#c6c5cd" d="m216.484 178.98 20.68-16.476 3.39 24.516Zm0 0"/><path fill="#167b90" d="m219.266 131.434-10.008 24.12-25.14-25.734Zm0 0"/><path fill="#b6b3bc" d="m161.648 278.762 22.063 11.12-4.488 13.532Zm0 0"/><path fill="#e8e7ea" d="m161.648 278.762-2.253 16.488-5.266-.984Zm0 0"/><path fill="#201533" d="m206.277 308.844-24.656-.387 16.367-15.734Zm0 0"/><path fill="#f5f4f6" d="m189.398 277.223-27.75 1.539 15.598-16.02Zm0 0"/><path fill="#201533" d="m161.648 278.762 27.75-1.54-5.687 12.66Zm0 0"/><path fill="#211634" d="m129.43 275.934 13.074-1.227-2.543 11.719Zm0 0"/><path fill="#fefefe" d="m142.504 274.707-13.074 1.227.61-6.426Zm0 0"/><path fill="#fefefe" d="m129.43 275.934-6.38-3.641 6.99-2.785Zm0 0"/><path fill="#fcfcfc" d="m136.613 261.89 5.89 12.817-12.464-5.2Zm0 0"/><path fill="#f8f8f9" d="m136.613 261.89.5-6.007 10.895 3.094Zm0 0"/><path fill="#fafafb" d="m161.648 278.762 3.004-14.824 12.594-1.196Zm0 0"/><path fill="#fcfbfc" d="m164.652 263.938.036-4.336 12.558 3.14Zm0 0"/><path fill="#eae9ec" d="m164.688 259.602-.036 4.336-16.644-4.961Zm0 0"/><path fill="#eeedef" d="m182.762 197.71 38.058 23.892-35.039 4.093Zm0 0"/><path fill="#f0f0f2" d="m240.555 187.02 17.863 19.644-37.598 14.938Zm0 0"/><path fill="#b2aeb8" d="m258.418 206.664-6.016 13.691-31.582 1.247Zm0 0"/><path fill="#736c7f" d="m252.402 220.355 6.016-13.69 7.11 16.124Zm0 0"/><path fill="#c0bdc6" d="m258.418 206.664 25.266.328-18.157 15.797Zm0 0"/><path fill="#fcfbfc" d="m216.484 178.98-31.168-9.164 23.942-14.261Zm0 0"/><path fill="#f6f6f7" d="m216.484 178.98-33.722 18.73 2.554-27.894Zm0 0"/><path fill="#fefefe" d="m220.992 160-4.508 18.98-7.226-23.425ZM169.773 222.633l-7.835-29.153 20.824 4.23Zm0 0"/><path fill="#f5f5f6" d="m169.773 222.633 12.989-24.922 3.02 27.984Zm0 0"/><path fill="#fafafa" d="m348.129 288.02-23.79 19.144 7.458-21.484Zm0 0"/><path fill="#f7f7f8" d="m348.129 288.02-16.332-2.34 17.094-32.239Zm0 0"/><path fill="#f9f9fa" d="m383.996 269.379-22.355-27.871 22.359 2.77Zm0 0"/><path fill="#484058" d="m249.281 237.36 3.121-17.005 13.125 2.434Zm0 0"/><path fill="#eeeef0" d="m302.117 221.41-18.148 14.352 9.773-23.442Zm0 0"/><path fill="#f2f1f3" d="m302.117 221.41-8.375-9.09 16.711-16.105Zm0 0"/><path fill="#fefefe" d="m297.172 240.852 4.945-19.442 12.305 27.153Zm0 0"/><path fill="#fefefe" d="m302.117 221.41-4.945 19.442-13.203-5.09Zm0 0"/><path fill="#fdfdfd" d="m279.938 257.68-3.946-12.043 15.063 8.476Zm0 0"/><path fill="#fbfbfb" d="m275.992 245.637 3.945 12.043-29.562.468Zm0 0"/><path fill="#201533" d="m251.54 273.883 17.964-1.41-5.129 19.152ZM269.504 272.473l15.46 12.242-20.589 6.91Zm0 0"/><path fill="#edecef" d="m269.504 272.473-17.965 1.41-2.266-13.235Zm0 0"/><path fill="#187389" d="m345.762 211.93 19.43-22.614-3.297 32.204Zm0 0"/><path fill="#fbfbfb" d="m220.918 371.168 7.215-28.988 27.203 14.93Zm0 0"/><path fill="#fafafb" d="m220.918 371.168-12.211-18.102 19.426-10.886Zm0 0"/><path fill="#f7f7f8" d="m296.613 384.016-75.695-12.848 34.418-14.059Zm0 0"/><path fill="#fdfdfd" d="m281.254 352.879 3.605-9.73 12.567 3.453Zm0 0"/><path fill="#f8f8f9" d="m281.254 352.879 15.36 31.137-41.278-26.907Zm0 0"/><path fill="#f9f9f9" d="m284.86 343.148-3.606 9.73-11.113-14.616Zm0 0"/><path fill="#f9f9fa" d="m281.254 352.879-25.918 4.23 14.805-18.847Zm0 0"/><path fill="#f6f5f6" d="m347.973 224.89 13.668 16.618-19.696-4.453Zm0 0"/><path fill="#fbfbfb" d="m361.64 241.508-13.667-16.617 13.922-3.371Zm0 0"/><path fill="#d2d0d6" d="m347.973 224.89-2.211-12.96 16.133 9.59Zm0 0"/><path fill="#756e80" d="m345.762 211.93 2.21 12.96-21.238-3.48Zm0 0"/><path fill="#f3f3f4" d="m384.004 326.625-.016 57.379-50.207-47.07Zm0 0"/><path fill="#f6f5f7" d="m296.613 384.016 37.168-47.082 50.207 47.07Zm0 0"/><path fill="#5a5268" d="m288.387 314-24.012-22.375 20.59-6.91Zm0 0"/><path fill="#797284" d="M304.129 291.887 288.387 314l-3.422-29.285Zm0 0"/><path fill="#5e566c" d="m288.387 314 18.933-1.059-16.863 18.23Zm0 0"/><path fill="#312742" d="m307.29 325.71.03-12.769 17.02-5.777Zm0 0"/><path fill="#dfdde1" d="m307.29 325.71 17.05-18.546 9.441 29.77Zm0 0"/><path fill="#eeedef" d="m307.29 325.71-9.864 20.892-6.969-15.43Zm0 0"/><path fill="#faf9fa" d="m307.29 325.71 26.491 11.224-36.355 9.668Zm0 0"/><path fill="#281d3a" d="m307.32 312.941-.03 12.77-16.833 5.46Zm0 0"/><path fill="#2e2440" d="m304.129 291.887 3.191 21.054L288.387 314Zm0 0"/><path fill="#2a203c" d="m253.07 340.348 14.575-15.16 2.496 13.074Zm0 0"/><path fill="#fcfcfc" d="m255.336 357.11-2.266-16.762 17.07-2.086Zm0 0"/><path fill="#817a8b" d="m267.645 325.188-3.27-33.563L288.387 314Zm0 0"/><path fill="#201533" d="m267.32 156.328-3.039-16.012 9.465 1.723Zm0 0"/><path fill="#158095" d="m252.71 132.578-18.476-24.781 25.235 15.781Zm0 0"/><path fill="#158498" d="m234.234 107.797 18.477 24.781-13.563 5.234Zm0 0"/><path fill="#201533" d="m221.969 293.41-7.645-18.465 14.02.285Zm0 0"/><path fill="#201533" d="m197.988 292.723 16.336-17.778 7.645 18.465Zm0 0"/><path fill="#cecbd2" d="m206.277 308.844 42.672-1.887-21.074 19.867Zm0 0"/><path fill="#908a99" d="m248.95 306.957 18.695 18.23-39.77 1.637Zm0 0"/><path fill="#261b39" d="m248.95 306.957 15.425-15.332 3.27 33.563Zm0 0"/><path fill="#fbfbfb" d="M64.543 281.934 76 288.364 65.309 298.96Zm0 0"/><path fill="#f6f6f7" d="m111.813 209.035-23.52-28.683 39.207 3.527Zm0 0"/><path fill="#fcfcfc" d="m88.293 180.352 23.52 28.683-22.063-16.96Zm0 0"/><path fill="#f8f8f9" d="m41.137 270.371 2.242 30.559L0 278.508Zm0 0"/><path fill="#fafafb" d="m41.137 270.371-2.45-24.582 3.473.934Zm0 0"/><path fill="#fbfbfb" d="M41.137 270.371 58.5 255.668l6.043 26.266Zm0 0"/><path fill="#fdfdfd" d="m58.5 255.668-17.363 14.703 1.023-23.648Zm0 0"/><path fill="#faf9fa" d="m43.379 300.93-2.242-30.559 23.406 11.563Zm0 0"/><path fill="#f7f7f8" d="m67.297 327.324 23.36-7.262 8.948 24.426Zm0 0"/><path fill="#201533" d="m120.348 278.48-15.766 4.766.695-6.883Zm0 0"/><path fill="#2c223e" d="m120.348 278.48-12.16-8.668 14.863 2.481Zm0 0"/><path fill="#211634" d="m108.188 269.813 12.16 8.667-15.07-2.117Zm0 0"/><path fill="#201533" d="m80.508 238.406-10.574.625 1.035-12.5Zm0 0"/><path fill="#c9c6cd" d="m62.504 235.2 7.43 3.831-8.086 5.625Zm0 0"/><path fill="#201533" d="m69.934 239.031-7.43-3.832 8.465-8.668Zm0 0"/><path fill="#f9f9f9" d="m161.938 193.48 23.378-23.664-2.554 27.895Zm0 0"/><path fill="#16778d" d="m185.316 169.816-32.578 10.121 31.38-50.117Zm0 0"/><path fill="#16788e" d="m184.117 129.82-31.379 50.118-14.898-57.204Zm0 0"/><path fill="#fefefe" d="m161.938 193.48-9.2-13.542 32.578-10.122Zm0 0"/><path fill="#fcfcfc" d="m152.738 179.938 9.2 13.542-17.07-2.542Zm0 0"/><path fill="#167c91" d="m101.145 148.246-38.286 29.836-10.34-39.105Zm0 0"/><path fill="#16768c" d="m101.145 148.246-48.625-9.27 42.562-31.828Zm0 0"/><path fill="#16778d" d="m62.86 178.082 38.285-29.836-12.852 32.106Zm0 0"/><path fill="#c6c3cb" d="m283.969 235.762-4.758-5.18 14.531-18.262Zm0 0"/><path fill="#201533" d="m279.21 230.582 4.474-23.59 10.058 5.328Zm0 0"/><path fill="#211634" d="m283.684 206.992-4.473 23.59-13.684-7.793Zm0 0"/><path fill="#ecebed" d="m273.46 188.871 1.005-21.297 13.726 4.145Zm0 0"/><path fill="#fdfdfe" d="m274.465 167.574-1.004 21.297-32.906-1.851Zm0 0"/><path fill="#d6d4d9" d="m273.46 188.871 14.731-17.152 2.2 15.101Zm0 0"/><path fill="#9893a1" d="m283.684 206.992-10.223-18.12 16.93-2.052Zm0 0"/><path fill="#f4f4f5" d="m273.46 188.871-15.042 17.793-17.863-19.644Zm0 0"/><path fill="#dbd9de" d="m258.418 206.664 15.043-17.793 10.223 18.121Zm0 0"/><path fill="#167a8f" d="m314.7 116.258 19.644-16.082 14.96 29.933Zm0 0"/><path fill="#167a8f" d="m334.344 100.176-19.645 16.082-3.336-18.895Zm0 0"/><path fill="#fcfcfc" d="m310.98 153.25 6.422-.254-13.57 17.555Zm0 0"/><path fill="#251a37" d="m294.668 146.555 16.312 6.695-7.148 17.3Zm0 0"/><path fill="#201533" d="m294.668 146.555 4.441-25.957 8.91 17.605Zm0 0"/><path fill="#211634" d="m310.98 153.25-16.312-6.695 13.352-8.352Zm0 0"/><path fill="#fefefe" d="m220.992 160 3.738-13.645 12.434 16.149Zm0 0"/><path fill="#fefefe" d="m209.258 155.555 15.472-9.2L220.992 160Zm0 0"/><path fill="#fefefe" d="m224.73 146.355 13.415 1.926-.98 14.223Zm0 0"/><path fill="#fefefe" d="m238.145 148.281-13.415-1.926 14.418-8.542Zm0 0"/><path fill="#167b90" d="m224.73 146.355-5.464-14.921 19.882 6.379Zm0 0"/><path fill="#16798f" d="m224.73 146.355-15.472 9.2 10.008-24.121Zm0 0"/><path fill="#201533" d="m104.582 283.246 15.766-4.766-.63 8.895Zm0 0"/><path fill="#453b54" d="m129.43 275.934-9.082 2.546 2.703-6.187Zm0 0"/><path fill="#f9f9fa" d="m128.46 257.395 8.153 4.496-6.574 7.617Zm0 0"/><path fill="#f5f4f5" d="m136.613 261.89-8.152-4.495 8.652-1.512Zm0 0"/><path fill="#201533" d="m150.625 243.59 14.063 16.012-16.68-.625Zm0 0"/><path fill="#201533" d="m137.113 255.883 13.512-12.293-2.617 15.387Zm0 0"/><path fill="#201533" d="m150.625 243.59-13.512 12.293-3.957-14.988Zm0 0"/><path fill="#b9b5be" d="m145.145 219.582 5.48 24.008-17.469-2.695Zm0 0"/><path fill="#201533" d="m189.398 277.223 8.59 15.5-14.277-2.84Zm0 0"/><path fill="#e0dee2" d="m183.71 289.883 14.278 2.84-18.765 10.691Zm0 0"/><path fill="#201533" d="m197.988 292.723-16.367 15.734-2.398-5.043Zm0 0"/><path fill="#211633" d="m146.77 324.988.832-17.808 9.949 18.074ZM136.695 307.45l-10.78-13.77 11.483.03Zm0 0"/><path fill="#281e3a" d="m136.695 307.45.703-13.74 10.204 13.47Zm0 0"/><path fill="#201533" d="m137.973 314.297-1.278-6.848 10.907-.27Zm0 0"/><path fill="#dcdadf" d="m95.309 297.516 20.894 6.187-14.035 9.477Zm0 0"/><path fill="#2b213d" d="m164.652 263.938-22.148 10.769 5.504-15.73Zm0 0"/><path fill="#696276" d="m142.504 274.707-5.89-12.816 11.394-2.914Zm0 0"/><path fill="#fcfcfc" d="m142.504 274.707 22.148-10.77-3.004 14.825Zm0 0"/><path fill="#201533" d="m205.926 248.23 2.754 9.348-30.493 1.3Zm0 0"/><path fill="#494059" d="m205.926 248.23-27.738 10.649 7.593-33.184Zm0 0"/><path fill="#a5a1ad" d="m220.82 221.602-14.894 26.628-20.145-22.535Zm0 0"/><path fill="#e8e7ea" d="m161.938 193.48-16.793 26.102-.278-28.644Zm0 0"/><path fill="#f4f3f5" d="m169.773 222.633-24.628-3.051 16.792-26.102Zm0 0"/><path fill="#928d9c" d="m145.145 219.582 24.628 3.05-19.148 20.958Zm0 0"/><path fill="#372d48" d="m331.797 285.68 7.637-29.102 9.457-3.137Zm0 0"/><path fill="#60586d" d="m307.32 312.941 24.477-27.261-7.457 21.484Zm0 0"/><path fill="#261b39" d="M331.797 285.68 307.32 312.94l-3.191-21.054Zm0 0"/><path fill="#f9f9f9" d="m383.996 269.379-35.867 18.64.762-34.578Zm0 0"/><path fill="#fafafb" d="m361.64 241.508 22.356 27.87-35.105-15.937Zm0 0"/><path fill="#fdfdfd" d="m249.273 260.648 2.266 13.235-23.195 1.347Zm0 0"/><path fill="#302642" d="m314.422 248.563-14.137 20.808-9.23-15.258Zm0 0"/><path fill="#fefefe" d="m297.172 240.852 17.25 7.71-23.367 5.551ZM275.992 245.637l7.977-9.875 7.086 18.351Zm0 0"/><path fill="#fdfdfe" d="m283.969 235.762 13.203 5.09-6.117 13.261Zm0 0"/><path fill="#fdfdfd" d="M326.734 221.41h-24.617l8.336-25.195Zm0 0"/><path fill="#dddbe0" d="M302.117 221.41h24.617l-12.312 27.153Zm0 0"/><path fill="#c1bec6" d="m284.297 270.785 4.469-7.754 11.52 6.34Zm0 0"/><path fill="#eeeef0" d="m279.938 257.68 8.828 5.351-4.47 7.754Zm0 0"/><path fill="#d0ced4" d="m300.285 269.371-11.52-6.34 2.29-8.918Zm0 0"/><path fill="#fafafb" d="m288.766 263.031-8.829-5.351 11.118-3.567Zm0 0"/><path fill="#231836" d="m284.965 284.715-15.461-12.242 14.793-1.688Zm0 0"/><path fill="#dedce1" d="m250.375 258.148 19.129 14.325-20.23-11.825Zm0 0"/><path fill="#403650" d="m279.938 257.68-10.434 14.793-19.129-14.325Zm0 0"/><path fill="#e7e6e9" d="m269.504 272.473 10.433-14.793 4.36 13.105Zm0 0"/><path fill="#4b435b" d="m347.973 224.89-6.028 12.165-15.21-15.645Zm0 0"/><path fill="#433a53" d="m326.734 221.41 15.211 15.645-27.523 11.507Zm0 0"/><path fill="#f4f4f5" d="m356.059 305.656 27.945 20.969-50.223 10.309Zm0 0"/><path fill="#fbfbfb" d="m324.34 307.164 31.719-1.508-22.278 31.278Zm0 0"/><path fill="#f3f3f4" d="m348.129 288.02 7.93 17.636-31.72 1.508Zm0 0"/><path fill="#edecef" d="m384.004 326.625-27.945-20.969 27.937-36.277Zm0 0"/><path fill="#ecebed" d="m356.059 305.656-7.93-17.636 35.867-18.641Zm0 0"/><path fill="#868292" d="m252.457 150.418 14.863 5.91-9.058 9.375Zm0 0"/><path fill="#a29fab" d="m237.164 162.504 15.293-12.086 5.805 15.285Zm0 0"/><path fill="#a39fab" d="m252.457 150.418 11.824-10.102 3.04 16.012Zm0 0"/><path fill="#f3f2f4" d="m252.457 150.418.254-17.84 11.57 7.738Zm0 0"/><path fill="#f4f4f5" d="m252.457 150.418-15.293 12.086.98-14.223Zm0 0"/><path fill="#fefefe" d="m252.457 150.418-14.312-2.137 1.003-10.469Zm0 0"/><path fill="#fdfdfd" d="m252.71 132.578-.253 17.84-13.309-12.606Zm0 0"/><path fill="#dcdadf" d="m284.95 84.398.632 20.676-18.45-13Zm0 0"/><path fill="#fdfdfd" d="m285.582 105.074-.633-20.676 18.742 8.844Zm0 0"/><path fill="#201533" d="m299.11 120.598-13.528-15.524 18.11-11.832Zm0 0"/><path fill="#fcfcfd" d="m299.11 120.598 17.964 6.902-9.054 10.703Zm0 0"/><path fill="#f9f9f9" d="m299.11 120.598 15.59-4.34 2.374 11.242Zm0 0"/><path fill="#201533" d="m227.875 326.824-22.16 1.973.562-19.953Zm0 0"/><path fill="#f9f8f9" d="m168.813 339.918 24.507 1.957-11.222 19.063Zm0 0"/><path fill="#c5c2ca" d="m193.32 341.875-3.61-17.32 16.005 4.242Zm0 0"/><path fill="#211633" d="m205.715 328.797-16.004-4.242 16.566-15.711Zm0 0"/><path fill="#eae9eb" d="m95.309 297.516-11.047-18.922 20.32 4.652Zm0 0"/><path fill="#291e3b" d="m76 288.363 8.262-9.77 11.047 18.923Zm0 0"/><path fill="#bbb8c1" d="m93.227 309.168 2.082-11.652 6.859 15.664Zm0 0"/><path fill="#211633" d="m102.168 313.18 8.477 16.523-19.989-9.64Zm0 0"/><path fill="#e6e4e8" d="m93.227 309.168 8.941 4.012-11.512 6.882Zm0 0"/><path fill="#2a203c" d="m108.188 269.813-2.91 6.55-14.548-8.777Zm0 0"/><path fill="#f9f9f9" d="m97.777 256.926 10.41 12.887-17.457-2.227Zm0 0"/><path fill="#201533" d="m98.91 250.383-9.41-2.79 10.438-12.683Zm0 0"/><path fill="#fdfdfd" d="m98.91 250.383-1.133 6.543-8.277-9.332Zm0 0"/><path fill="#201533" d="m77.547 246.133-7.613-7.102 10.574-.625Zm0 0"/><path fill="#201533" d="m77.547 246.133 2.96-7.727 8.993 9.188Zm0 0"/><path fill="#fcfbfc" d="m58.5 255.668 19.047-9.535.695 16.308Zm0 0"/><path fill="#c6c3ca" d="M77.547 246.133 58.5 255.668l3.348-11.012Zm0 0"/><path fill="#efeef0" d="m69.934 239.031 7.613 7.102-15.7-1.477Zm0 0"/><path fill="#201533" d="m167.953 248.406-3.266 11.196-14.062-16.012Zm0 0"/><path fill="#2d233f" d="m164.688 259.602 3.265-11.196 10.234 10.473Zm0 0"/><path fill="#6d6679" d="m169.773 222.633-1.82 25.773-17.328-4.816Zm0 0"/><path fill="#463d55" d="m178.188 258.879-10.235-10.473 17.828-22.71Zm0 0"/><path fill="#9e99a6" d="m167.953 248.406 1.82-25.773 16.008 3.062Zm0 0"/><path fill="#f5f5f6" d="m317.402 152.996 24.63 10.934-8.403 8.472Zm0 0"/><path fill="#ebeaed" d="M317.074 127.5 323 143.379l-14.98-5.176ZM333.7 195.66l-6.966 25.75-16.28-25.195Zm0 0"/><path fill="#d1cfd5" d="m333.7 195.66 12.062 16.27-19.028 9.48Zm0 0"/><path fill="#e6e5e8" d="m312.887 177.352-2.434 18.863-7.473-13.996Zm0 0"/><path fill="#fcfcfc" d="m312.887 177.352 20.812 18.308-23.246.555Zm0 0"/><path fill="#f7f6f7" d="m333.7 195.66-20.813-18.308 20.742-4.95Zm0 0"/><path fill="#16758b" d="m342.031 163.93 7.274-33.82 15.886 59.206Zm0 0"/><path fill="#211634" d="m280.07 147.668-12.75 8.66 6.426-14.289Zm0 0"/><path fill="#fefefe" d="m267.32 156.328 12.75-8.66-5.605 19.906ZM280.07 147.668l14.598-1.113-20.203 21.02Zm0 0"/><path fill="#eae9ec" d="M294.668 146.555 283.68 135.62l15.43-15.023Zm0 0"/><path fill="#fcfbfc" d="m110.645 329.703 8.015 4.176-19.055 10.61Zm0 0"/><path fill="#f9f9fa" d="m118.66 333.879 4.653 22.683-23.708-12.074Zm0 0"/><path fill="#eeedef" d="m172.39 324.445-3.577 15.473-11.262-14.664Zm0 0"/><path fill="#201533" d="m146.77 324.988 5.21 13.14-16.585-.753Zm0 0"/><path fill="#f8f8f9" d="m135.395 337.375 16.585.754.833 17.683Zm0 0"/><path fill="#f6f6f7" d="m151.98 338.129 16.833 1.789-16 15.894Zm0 0"/><path fill="#211634" d="m168.813 339.918-16.833-1.79 5.57-12.874Zm0 0"/><path fill="#201533" d="m151.98 338.129-5.21-13.14 10.78.265ZM127.965 285.91l-7.617-7.43 9.082-2.546ZM127.965 285.91l1.465-9.976 10.53 10.492Zm0 0"/><path fill="#eae9ec" d="m127.965 285.91-2.05 7.77-6.196-6.305Zm0 0"/><path fill="#261b38" d="m120.348 278.48 7.617 7.43-8.246 1.465Zm0 0"/><path fill="#2d223f" d="m137.398 293.71-9.433-7.8 11.996.516Zm0 0"/><path fill="#908a99" d="m125.914 293.68 2.05-7.77 9.434 7.8Zm0 0"/><path fill="#fdfdfd" d="m97.777 256.926 11.715-4.305-1.305 17.191Zm0 0"/><path fill="#201533" d="m128.46 257.395-18.968-4.774 1.461-5.7Zm0 0"/><path fill="#edecef" d="m98.91 250.383 10.582 2.238-11.715 4.305Zm0 0"/><path fill="#fdfdfd" d="m123.05 272.293-1.405-8.695 8.394 5.91Zm0 0"/><path fill="#fbfafb" d="m121.645 263.598 6.816-6.203 1.578 12.113Zm0 0"/><path fill="#201533" d="m133.156 240.895-3.894 10.425-18.309-4.398Zm0 0"/><path fill="#201533" d="m129.262 251.32-.801 6.075-17.508-10.473ZM137.113 255.883l-7.851-4.563 3.894-10.425Zm0 0"/><path fill="#201533" d="m128.46 257.395.802-6.075 7.851 4.563Zm0 0"/><path fill="#ccc9d0" d="m159.395 295.25 2.253-16.488 17.575 24.652Zm0 0"/><path fill="#201533" d="m137.973 314.297 8.797 10.691-13.336-3.18Zm0 0"/><path fill="#201533" d="m137.973 314.297 9.629-7.117-.832 17.808Zm0 0"/><path fill="#221936" d="m127.477 315.246 10.496-.95-4.54 7.513Zm0 0"/><path fill="#a49fab" d="m127.477 315.246 9.218-7.797 1.278 6.848Zm0 0"/><path fill="#413751" d="m115.738 297.23.465 6.473-20.894-6.187Zm0 0"/><path fill="#e5e4e8" d="m115.738 297.23-11.156-13.984 15.137 4.129Zm0 0"/><path fill="#2f2541" d="m104.582 283.246 11.156 13.984-20.43.286Zm0 0"/><path fill="#f6f5f6" d="m125.914 293.68-10.176 3.55 3.98-9.855Zm0 0"/><path fill="#e2e0e4" d="m119.207 319.746-8.562 9.957-8.477-16.523Zm0 0"/><path fill="#221735" d="m116.203 303.703 3.004 16.043-17.039-6.566Zm0 0"/><path fill="#231836" d="m119.207 319.746-.547 14.133-8.015-4.176ZM127.477 315.246l-8.27 4.5-3.004-16.043Zm0 0"/><path fill="#201533" d="m139.96 286.426 21.688-7.664-7.52 15.504Zm0 0"/><path fill="#3c324c" d="m139.96 286.426 2.544-11.719 19.144 4.055Zm0 0"/><path fill="#f5f5f6" d="m137.398 293.71 2.563-7.284 14.168 7.84Zm0 0"/><path fill="#201533" d="m328.723 259.813 10.71-3.235-7.636 29.102Zm0 0"/><path fill="#777082" d="m300.285 269.371 31.512 16.309-27.668 6.207Zm0 0"/><path fill="#302642" d="m331.797 285.68-31.512-16.309 28.438-9.558Zm0 0"/><path fill="#fafafb" d="m226.2 258.434 24.175-.286-1.102 2.5Zm0 0"/><path fill="#c0bcc5" d="m283.969 235.762-12.598 3.293 7.84-8.473Zm0 0"/><path fill="#201533" d="m279.21 230.582-7.839 8.473-5.844-16.266Zm0 0"/><path fill="#dad8dd" d="m271.371 239.055 12.598-3.293-7.977 9.875Zm0 0"/><path fill="#201533" d="m269.98 106.719 15.602-1.645-7.937 7.352Zm0 0"/><path fill="#5f576d" d="m285.582 105.074-15.602 1.645-2.847-14.645Zm0 0"/><path fill="#2a203c" d="m311.363 97.363-12.254 23.235 4.582-27.356Zm0 0"/><path fill="#261b38" d="m314.7 116.258-15.59 4.34 12.253-23.235Zm0 0"/><path fill="#d3d1d7" d="m189.71 324.555-8.089-16.098 24.656.387Zm0 0"/><path fill="#241936" d="m70.746 275.422 7.496-12.98 6.02 16.152Zm0 0"/><path fill="#f2f1f3" d="m70.746 275.422 13.516 3.172-8.262 9.77Zm0 0"/><path fill="#231836" d="M70.746 275.422 76 288.363l-11.457-6.43Zm0 0"/><path fill="#251a37" d="m93.227 309.168-11.774-4.281 13.856-7.371Zm0 0"/><path fill="#a6a1ad" d="m81.453 304.887 11.774 4.281-2.57 10.894Zm0 0"/><path fill="#f8f8f8" d="m76 288.363 5.453 16.524-16.144-5.926Zm0 0"/><path fill="#d3d0d6" d="M81.453 304.887 76 288.363l19.309 9.153Zm0 0"/><path fill="#f8f7f8" d="m81.453 304.887-14.156 22.437-1.988-28.363Zm0 0"/><path fill="#f9f9fa" d="m81.453 304.887 9.203 15.176-23.36 7.261Zm0 0"/><path fill="#201533" d="m110.953 246.922-1.46 5.7-10.583-2.24Zm0 0"/><path fill="#201533" d="m110.953 246.922-12.043 3.46 1.028-15.472Zm0 0"/><path fill="#fcfcfc" d="m77.547 246.133 9.262 9.172-8.567 7.136Zm0 0"/><path fill="#eeedef" d="m86.809 255.305-9.262-9.172 11.953 1.46Zm0 0"/><path fill="#fefefe" d="m97.777 256.926-10.968-1.621 2.691-7.711Zm0 0"/><path fill="#efeef0" d="m78.242 262.441 8.567-7.136 3.921 12.28Zm0 0"/><path fill="#f9f9fa" d="m86.809 255.305 10.968 1.62-7.047 10.66Zm0 0"/><path fill="#fbfafb" d="m211.398 265.707 14.801-7.273-11.875 16.511Zm0 0"/><path fill="#a09ca8" d="m214.324 274.945 11.875-16.511 2.145 16.796Zm0 0"/><path fill="#39304a" d="m226.2 258.434 23.073 2.214-20.93 14.582Zm0 0"/><path fill="#fdfdfd" d="m226.2 258.434-14.802 7.273-2.718-8.129Zm0 0"/><path fill="#201533" d="m189.398 277.223 24.926-2.278-16.336 17.778Zm0 0"/><path fill="#f9f8f9" d="m189.398 277.223 22-11.516 2.926 9.238Zm0 0"/><path fill="#f7f6f7" d="m211.398 265.707-22 11.516 19.282-19.645Zm0 0"/><path fill="#372e48" d="m189.398 277.223-12.152-14.48 31.434-5.165Zm0 0"/><path fill="#fcfbfc" d="m177.246 262.742-12.559-3.14 13.5-.723Zm0 0"/><path fill="#f7f7f8" d="m208.68 257.578-31.434 5.164.941-3.863Zm0 0"/><path fill="#fefefe" d="m323 143.379 19.031 20.55-24.629-10.933Zm0 0"/><path fill="#167389" d="M349.305 130.11 323 143.378l-5.926-15.879Zm0 0"/><path fill="#167389" d="m314.7 116.258 34.605 13.851-32.23-2.609Zm0 0"/><path fill="#167389" d="m323 143.379 26.305-13.27-7.274 33.82Zm0 0"/><path fill="#c2bfc7" d="m348.45 188.813-14.75 6.847-.071-23.258Zm0 0"/><path fill="#e7e6e9" d="m342.031 163.93 6.418 24.882-14.82-16.41Zm0 0"/><path fill="#ccc9d0" d="m333.7 195.66 14.75-6.847-2.688 23.117Zm0 0"/><path fill="#176e84" d="m348.45 188.813-6.419-24.883 23.16 25.386Zm0 0"/><path fill="#197187" d="m345.762 211.93 2.687-23.118 16.742.504Zm0 0"/><path fill="#e1e0e4" d="m280.07 147.668 1.153-7.867 13.445 6.754Zm0 0"/><path fill="#fdfdfd" d="m281.223 139.8 2.457-4.179 10.988 10.934Zm0 0"/><path fill="#201533" d="m281.223 139.8-1.153 7.868-6.324-5.629Zm0 0"/><path fill="#201533" d="m272.777 130.016 8.446 9.785-7.477 2.238Zm0 0"/><path fill="#201533" d="m283.68 135.621-2.457 4.18-8.446-9.785Zm0 0"/><path fill="#f8f8f8" d="m118.66 333.879 16.735 3.496-12.083 19.188ZM146.77 324.988l-11.375 12.387-1.961-15.566Zm0 0"/><path fill="#201533" d="m180.879 327.492 12.441 14.383-24.507-1.957Zm0 0"/><path fill="#201533" d="m193.32 341.875-12.441-14.383 8.832-2.937Zm0 0"/><path fill="#332945" d="m172.39 324.445 8.489 3.047-12.066 12.426Zm0 0"/><path fill="#ada9b4" d="m109.492 252.621 12.153 10.977-13.457 6.214Zm0 0"/><path fill="#cecbd2" d="m121.645 263.598-12.153-10.977 18.969 4.774Zm0 0"/><path fill="#fdfdfd" d="m108.188 269.813 13.457-6.215 1.406 8.695Zm0 0"/><path fill="#fcfbfc" d="m120.95 302.074 6.527 13.172-11.274-11.543Zm0 0"/><path fill="#cac7ce" d="m115.738 297.23 5.211 4.844-4.746 1.63Zm0 0"/><path fill="#faf9fa" d="m120.95 302.074-5.212-4.844 10.176-3.55Zm0 0"/><path fill="#241936" d="m136.695 307.45-15.746-5.376 4.965-8.394Zm0 0"/><path fill="#edecee" d="m127.477 315.246-6.528-13.172 15.746 5.375Zm0 0"/><path fill="#f5f5f6" d="m348.89 253.441-10.87-8.316 3.925-8.07Zm0 0"/><path fill="#efeef0" d="m339.434 256.578-1.414-11.453 10.87 8.316Zm0 0"/><path fill="#f5f4f6" d="m328.723 259.813 9.297-14.688 1.414 11.453Zm0 0"/><path fill="#f2f1f3" d="m338.02 245.125-23.598 3.438 27.523-11.508Zm0 0"/><path fill="#251a38" d="m314.422 248.563 23.598-3.438-9.297 14.688Zm0 0"/><path fill="#201533" d="m250.375 258.148-22.633-12.464 21.54-8.325Zm0 0"/><path fill="#201533" d="m226.2 258.434 1.542-12.75 22.633 12.464ZM227.742 245.684l-1.543 12.75-17.52-.856Zm0 0"/><path fill="#857f8f" d="m249.281 237.36-21.539 8.324-6.922-24.082Zm0 0"/><path fill="#201533" d="m205.926 248.23 21.816-2.546-19.062 11.894Zm0 0"/><path fill="#5a5168" d="m227.742 245.684-21.816 2.546 14.894-26.628Zm0 0"/><path fill="#201533" d="m271.371 239.055-22.09-1.696 16.246-14.57ZM249.281 237.36l22.09 1.695-20.996 19.093Zm0 0"/><path fill="#9792a0" d="m271.371 239.055 4.621 6.582-25.617 12.511Zm0 0"/><path fill="#261b38" d="m284.816 120.125.766-15.05 13.527 15.523Zm0 0"/><path fill="#fcfcfd" d="m283.68 135.621 1.136-15.496 14.293.473Zm0 0"/><path fill="#1f1533" d="m285.582 105.074-.766 15.051-7.171-7.7Zm0 0"/><path fill="#201533" d="m284.816 120.125-12.039 9.89 4.868-17.59ZM284.816 120.125l-1.136 15.496-10.903-5.605Zm0 0"/><path fill="#211634" d="m180.879 327.492.742-19.035 8.09 16.098Zm0 0"/><path fill="#201533" d="m181.621 308.457-.742 19.035-8.488-3.047Zm0 0"/><path fill="#fefefe" d="m317.402 152.996-6.422.254-2.96-15.047Zm0 0"/><path fill="#fdfdfe" d="m323 143.379-5.598 9.617-9.382-14.793Zm0 0"/><path fill="#221735" d="m119.207 319.746 9.066 3.55-9.613 10.583Zm0 0"/><path fill="#201533" d="m128.273 323.297 7.122 14.078-16.735-3.496Zm0 0"/><path fill="#fcfcfd" d="m135.395 337.375-7.122-14.078 5.16-1.488Zm0 0"/><path fill="#a19ca9" d="m128.273 323.297-.796-8.05 5.957 6.562Zm0 0"/><path fill="#564e64" d="m128.273 323.297-9.066-3.55 8.27-4.5Zm0 0"/><path fill="#f6f5f7" d="m300.285 269.371 14.137-20.808 14.3 11.25Zm0 0"/><path fill="#211634" d="m167.79 309.727-8.395-14.477 19.828 8.164Zm0 0"/><path fill="#322743" d="m181.621 308.457-13.832 1.27 11.434-6.313Zm0 0"/><path fill="#201533" d="m167.79 309.727 13.831-1.27-9.23 15.988Zm0 0"/><path fill="#261b38" d="m159.395 295.25 8.394 14.477-20.187-2.547Zm0 0"/><path fill="#e2e1e5" d="m147.602 307.18 20.187 2.547-10.238 15.527Zm0 0"/><path fill="#211633" d="m167.79 309.727 4.6 14.718-14.84.809Zm0 0"/></svg>