<svg xmlns="http://www.w3.org/2000/svg" width="512" height="512" viewBox="0 0 384 384"><path fill="#d9f1e8" d="m186.094 201.969-2.137-18.524 9.54 13.477ZM-.02 63.094l37.934-31.242 8.754 51.437Zm0 0"/><path fill="#daf1e8" d="m37.914 31.852 69.281 12.695-60.527 38.742Zm0 0"/><path fill="#daf1e8" d="m107.195 44.547-69.28-12.695L85.308 0Zm0 0"/><path fill="#d9f1e8" d="m183.957 183.445 24.79 1.735-15.25 11.742Zm0 0"/><path fill="#d9f1e8" d="m208.746 185.18-9.734 25.34-5.516-13.598ZM301.277 169.938l24.207-40.118 9.793 45.664ZM25.125 169.285l28.18-7.719-5.442 30.614Zm0 0"/><path fill="#d9f1e8" d="m24.254 203.129.871-33.844 22.738 22.895Zm0 0"/><path fill="#95dfcb" d="m37.543 316.164 45.914 30.11-50.934-1.337Zm0 0"/><path fill="#99222b" d="m39.715 242.383 15.265 8.304-21.48 14.57Zm0 0"/><path fill="#1c2638" d="m205.938 323.855 19.894 8.32-21.539-1.21Zm0 0"/><path fill="#1c2638" d="m229.96 322.398-4.128 9.778-19.894-8.32Zm0 0"/><path fill="#daf1e8" d="M107.195 44.547 85.31 0h56.617ZM325.484 129.82l35.57 16.082-25.777 29.582ZM168.473 42.477 207.743 0l6.577 74.785Zm0 0"/><path fill="#d9f1e8" d="M141.926 0h65.816l-39.27 42.477ZM215.672 183.71l-6.926 1.47.953-44.16Zm0 0"/><path fill="#1c2638" d="m275.453 294.93 11.824-15.438 3.477 7.586Zm0 0"/><path fill="#83222d" d="m204.324 276.332-14.82 1.293 3.488-9.578Zm0 0"/><path fill="#d9f1e8" d="m189.297 222.898 9.715-12.378 1.734 21.09Zm0 0"/><path fill="#d9f1e8" d="m189.297 222.898-6.043-4.148 15.758-8.23ZM362.719 189.152l-18.883 17.625-8.559-31.293Zm0 0"/><path fill="#daf1e8" d="m301.277 169.938-15.988-35.165 40.195-4.953ZM107.195 44.547 141.925 0l26.548 42.477ZM214.32 74.785l-35.375 26.328 2.457-19.23Zm0 0"/><path fill="#d9f1e8" d="m178.945 101.113.594 1.157L154 108.914Zm0 0"/><path fill="#daf1e8" d="m178.945 101.113 35.375-26.328-34.78 27.485ZM181.402 81.883l-31.437-12.715 18.508-26.691Zm0 0"/><path fill="#daf1e8" d="m107.195 44.547 42.77 24.621-36.059 30.059Zm0 0"/><path fill="#daf1e8" d="m149.965 69.168-42.77-24.621 61.278-2.07Zm0 0"/><path fill="#d9f1e8" d="m175.129 143.516 16.504 17.62-13.094-1.253Zm0 0"/><path fill="#1c2537" d="m145.668 173.293-28.961 7.402 9.352-17.148Zm0 0"/><path fill="#d9f1e8" d="m115.977 137.434-22.786-4.536 20.715-33.671Zm0 0"/><path fill="#d9f1e8" d="M93.191 132.898 46.668 83.29l67.238 15.938ZM136.102 136.336l-12.91 18.629-7.215-17.531Zm0 0"/><path fill="#9a222b" d="m153.688 187.559-27.93 39.675-15.977-27.652Zm0 0"/><path fill="#382535" d="m116.707 180.695 36.98 6.864-43.906 12.023Zm0 0"/><path fill="#1c2537" d="m145.668 173.293 8.02 14.266-36.981-6.864Zm0 0"/><path fill="#1e2638" d="m123.191 154.965 2.868 8.582-8.649-3.668Zm0 0"/><path fill="#d9f1e8" d="m53.305 161.566 14.277 17.223-19.719 13.39Zm0 0"/><path fill="#1c2537" d="m96.594 173.734 1.457 11.899-14.43-.465Zm0 0"/><path fill="#96deca" d="M27.754 90.723 0 174.836-.02 63.094Zm0 0"/><path fill="#95dfcb" d="m0 174.836 25.125-5.55-.871 33.843Zm0 0"/><path fill="#95deca" d="M24.254 203.129-.008 248.41 0 174.836Zm0 0"/><path fill="#95dfcb" d="m23.656 234.871-23.664 13.54 24.262-45.282Zm0 0"/><path fill="#94dfcb" d="m57.578 307.613 25.879 38.66-45.914-30.109ZM57.578 307.613l-20.035 8.551 7.84-25.324Zm0 0"/><path fill="#94dfcb" d="m63.29 291.95-5.712 15.663-12.195-16.773Zm0 0"/><path fill="#94dfcb" d="m57.578 307.613 5.711-15.664 12.883 12.375Zm0 0"/><path fill="#95dcc9" d="m-.004 316.785 32.527 28.152L0 384Zm0 0"/><path fill="#1c2638" d="m203.645 314.508 26.316 7.89-24.024 1.457Zm0 0"/><path fill="#95dfcb" d="m203.645 314.508 30.234-6.914-3.918 14.804Zm0 0"/><path fill="#1c2638" d="m225.832 332.176 4.129-9.778 12.262 11.704Zm0 0"/><path fill="#1c2638" d="m229.96 322.398 23.372 3.239-11.11 8.465Zm0 0"/><path fill="#95dfcb" d="m225.832 332.176-7.8 17.605-13.739-18.816ZM266.96 344.047l7.4 18.91-31.196-11.848Zm0 0"/><path fill="#1c2638" d="m309.586 339.266 12.09-9.45 5.383 9.625ZM120.414 315.363l1.324-9.441 14.742 12.18ZM120.414 315.363l-19.52-3.972 20.844-5.47Zm0 0"/><path fill="#95dfcb" d="m100.895 311.39 19.52 3.973-36.958 30.91ZM134.164 344.977l21.125-10.637 9.918 15.535ZM194.027 357.992 146.937 384l18.27-34.125ZM227.621 384h-80.684l47.09-26.008Zm0 0"/><path fill="#95dfcb" d="m146.938 384-12.774-39.023 31.043 4.898Zm0 0"/><path fill="#1c2638" d="m193.262 325.91 12.676-2.055-1.645 7.11Zm0 0"/><path fill="#1c2537" d="m193.262 325.91-14.555.883 5.809-13.445Zm0 0"/><path fill="#95dfcb" d="m184.77 338.578 9.257 19.414-28.82-8.117Zm0 0"/><path fill="#95dfcb" d="m194.027 357.992-9.257-19.414 19.523-7.613Zm0 0"/><path fill="#95decb" d="m184.77 338.578 8.492-12.668 11.031 5.055Zm0 0"/><path fill="#95decb" d="m193.262 325.91-8.492 12.668-6.063-11.785Zm0 0"/><path fill="#daf1e8" d="M40.39 0H85.31L37.914 31.852Zm0 0"/><path fill="#d9f1e8" d="m40.39 0-2.476 31.852L.027-.035Zm0 0"/><path fill="#95dfcb" d="m384 146.527-14.523 6.672-8.422-7.297Zm0 0"/><path fill="#f14e52" d="m263.434 173.648-15.727.715 15.848-19.058Zm0 0"/><path fill="#f04e52" d="m247.707 174.363 13.41 18.266-12.39 17.527ZM247.707 174.363l1.02 35.793-13.946-33.644Zm0 0"/><path fill="#f14e52" d="m227.324 124.918 13.82 19.809-12.386.023Zm0 0"/><path fill="#daf1e8" d="m244.945 128.168 15.121 1.227-2.156 9.43Zm0 0"/><path fill="#f14e52" d="m244.945 128.168-3.8 16.559-13.82-19.809Zm0 0"/><path fill="#daf1e8" d="m207.742 0 42 54.344-35.422 20.441ZM214.32 74.785l31.844 20.852-16.734 3.254Zm0 0"/><path fill="#d9f1e8" d="m199.012 210.52 20.633 7.296-18.899 13.793Zm0 0"/><path fill="#d9f1e8" d="m208.746 185.18 10.899 32.636-20.633-7.296Zm0 0"/><path fill="#94deca" d="m287.277 279.492 9.688-2.308-6.211 9.894Zm0 0"/><path fill="#94dfcb" d="m336.75 276.367 11.742-4.8-5.441 42.07Zm0 0"/><path fill="#1c2638" d="m327.781 259.11 8.969 17.257-23.79-6.293Zm0 0"/><path fill="#96decb" d="m327.781 259.11 13.102-6.715 7.61 19.171Zm0 0"/><path fill="#95dfcb" d="m336.75 276.367-8.969-17.258 20.711 12.457Zm0 0"/><path fill="#91222b" d="m261.117 192.629 7.445 22.734-19.835-5.207Zm0 0"/><path fill="#1c2638" d="m290.223 298.059 10.906 10.203-19.781 3.656ZM290.223 298.059l-14.77-3.13 15.3-7.85ZM275.453 294.93l14.77 3.129-8.875 13.859Zm0 0"/><path fill="#8cd3c2" d="m304.016 290.184-13.793 7.875.53-10.98Zm0 0"/><path fill="#1c2638" d="m290.223 298.059 13.793-7.875-2.887 18.078Zm0 0"/><path fill="#1c2537" d="m271.32 259.688.649-12.993 8.812 7.25Zm0 0"/><path fill="#1e2537" d="m271.969 246.695-.649 12.993-21.597 11.562Zm0 0"/><path fill="#94dfcb" d="m240.023 288.48 30.649-4.98-10.848 20.129Zm0 0"/><path fill="#1c2638" d="m275.453 294.93-4.781-11.43 16.605-4.008Zm0 0"/><path fill="#94deca" d="m271.32 259.688-.648 23.812-20.95-12.25Zm0 0"/><path fill="#95dfcb" d="m249.723 271.25 20.949 12.25-30.649 4.98Zm0 0"/><path fill="#1c2638" d="m121.738 305.922 16.348-.848-1.606 13.028Zm0 0"/><path fill="#94222b" d="M125.758 227.234 130 262.06 89.566 247.23Zm0 0"/><path fill="#98222b" d="m130 262.059-28.637 6.226-11.797-21.055Zm0 0"/><path fill="#d9f1e8" d="m199.012 210.52-12.918-8.551 7.402-5.047Zm0 0"/><path fill="#d9f1e8" d="m183.254 218.75 2.84-16.781 12.918 8.55ZM189.297 222.898l-7.762 7.532 1.719-11.68Zm0 0"/><path fill="#502432" d="m161.137 228.648-35.38-1.414 27.93-39.675Zm0 0"/><path fill="#95decb" d="m340.883 252.395 21.547-1.465-13.938 20.636Zm0 0"/><path fill="#95dfcb" d="m373.094 237.719-10.297-10.985L384 221.031Zm0 0"/><path fill="#d9f1e8" d="m362.719 189.152.078 37.582-18.961-19.957Zm0 0"/><path fill="#95dfcb" d="M373.094 237.719 384 221.03v31.285Zm0 0"/><path fill="#95dfcb" d="M384 146.527v74.504l-21.281-31.879Zm0 0"/><path fill="#d9f1e8" d="m361.055 145.902 1.664 43.25-27.442-13.668Zm0 0"/><path fill="#97dcc8" d="m362.719 189.152-1.664-43.25 8.422 7.297Zm0 0"/><path fill="#95dfcb" d="m362.719 189.152 6.758-35.953L384 146.527Zm0 0"/><path fill="#daf1e8" d="m325.484 129.82-40.195 4.953 10.973-28.62ZM260.066 129.395l25.223 5.378-27.379 4.051Zm0 0"/><path fill="#94deca" d="M384 326.336V384l-36.387-28.266Zm0 0"/><path fill="#96ddc9" d="m362.43 250.93 3.738 22.855-17.676-2.219Zm0 0"/><path fill="#9ad7c4" d="m366.168 273.785-3.738-22.855 21.57 1.386Zm0 0"/><path fill="#daf1e8" d="m181.402 81.883-12.93-39.406 45.848 32.308Zm0 0"/><path fill="#d9f1e8" d="m179.54 102.27-23.837 21.515-1.703-14.87ZM178.945 101.113l-4.918-13.8 7.375-5.43Zm0 0"/><path fill="#d9f1e8" d="m174.027 87.313-24.062-18.145 31.437 12.715Zm0 0"/><path fill="#9a232b" d="m174.027 87.313 4.918 13.8L154 108.914Zm0 0"/><path fill="#d9f1e8" d="m113.906 99.227 22.196 37.109-20.125 1.098Zm0 0"/><path fill="#daf1e8" d="m209.7 141.02-18.067 20.117-16.504-17.621Zm0 0"/><path fill="#d9f1e8" d="m191.633 161.137-8.578 5.004-4.516-6.258Zm0 0"/><path fill="#1c2637" d="m163.664 172.633-9.976 14.926-8.02-14.266Zm0 0"/><path fill="#1c2537" d="m131.484 158.879 14.184 14.414-19.61-9.746Zm0 0"/><path fill="#1c2638" d="m123.191 154.965 8.293 3.914-5.425 4.668Zm0 0"/><path fill="#d9f1e8" d="m131.484 158.879-8.293-3.914 12.91-18.63Zm0 0"/><path fill="#daf1e8" d="m46.668 83.29 6.637 78.276-28.18 7.72Zm0 0"/><path fill="#d9f1e8" d="m27.754 90.723 18.914-7.434-21.543 85.996ZM107.719 149.273l15.472 5.692-5.78 4.914ZM107.719 149.273 93.19 132.898l22.786 4.536ZM123.191 154.965l-15.472-5.692 8.258-11.84Zm0 0"/><path fill="#f04e52" d="m239.043 104.707-8.434 7.55-1.18-13.366Zm0 0"/><path fill="#e85c5d" d="m246.164 95.637-7.121 9.07-9.613-5.816Zm0 0"/><path fill="#daf2e9" d="m208.438 116.52-41.715 14.464 12.816-28.714Zm0 0"/><path fill="#97222b" d="m89.566 247.23-1.14 30.844-29.871-17.035Zm0 0"/><path fill="#9a222b" d="m101.363 268.285-12.937 9.79 1.14-30.845Zm0 0"/><path fill="#94222b" d="m98.05 185.633 18.657-4.938-6.926 18.887Zm0 0"/><path fill="#1c2537" d="m96.594 173.734 20.113 6.961-18.656 4.938ZM126.059 163.547l-9.352 17.148.703-20.816Zm0 0"/><path fill="#96deca" d="m0 174.836 27.754-84.113-2.629 78.562Zm0 0"/><path fill="#daf1e8" d="m46.668 83.29-18.914 7.433L-.02 63.093Zm0 0"/><path fill="#d9f1e8" d="m46.668 83.29 60.527-38.743 6.711 54.68Zm0 0"/><path fill="#94dfcb" d="m56.504 278.285 6.785 13.664-17.906-1.11Zm0 0"/><path fill="#94afa3" d="m88.426 278.074-31.922.211 2.05-17.246Zm0 0"/><path fill="#9a222b" d="m33.5 265.258 21.48-14.57 3.575 10.351Zm0 0"/><path fill="#98d3c1" d="m22.223 251.57-3.293 31.407L-.008 248.41Zm0 0"/><path fill="#5e8583" d="M18.93 282.977-.004 316.785l-.004-68.375Zm0 0"/><path fill="#95dfcb" d="m23.656 234.871-1.433 16.7-22.23-3.16Zm0 0"/><path fill="#d9f1e8" d="m24.254 203.129 19.297 22.93-19.895 8.812ZM58.387 204.25l-11.246 3.074.722-15.144Zm0 0"/><path fill="#d9f1e8" d="m47.14 207.324-22.886-4.195 23.61-10.95Zm0 0"/><path fill="#d9f1e8" d="m47.14 207.324-3.59 18.735-19.296-22.93Zm0 0"/><path fill="#9a222b" d="m54.98 250.688 34.586-3.458-31.011 13.81Zm0 0"/><path fill="#9a222b" d="m88.555 219.246 37.203 7.988-36.192 19.996ZM88.555 219.246l21.226-19.664 15.977 27.652Zm0 0"/><path fill="#97706d" d="M69.973 193.203 58.387 204.25l-10.524-12.07Zm0 0"/><path fill="#9a222b" d="m69.973 193.203 16.453 8.836-28.04 2.211Zm0 0"/><path fill="#d9f1e8" d="m67.582 178.79 2.39 14.413-22.109-1.023Zm0 0"/><path fill="#9a222b" d="m109.781 199.582-23.355 2.457 11.625-16.406Zm0 0"/><path fill="#9a222b" d="m88.555 219.246-2.13-17.207 23.356-2.457Zm0 0"/><path fill="#9a222b" d="m86.426 202.04 2.129 17.206-30.168-14.996Zm0 0"/><path fill="#95deca" d="m32.523 344.938 50.934 1.335L57.398 384Zm0 0"/><path fill="#95ddc9" d="M32.523 344.938 57.398 384H0ZM203.645 314.508l-19.13-1.16 6.637-14.29Zm0 0"/><path fill="#1c2637" d="m193.262 325.91 10.383-11.402 2.292 9.347Zm0 0"/><path fill="#1c2638" d="m203.645 314.508-10.383 11.402-8.746-12.562Zm0 0"/><path fill="#95dfcb" d="m233.879 307.594-22.719-14.926 28.863-4.188Zm0 0"/><path fill="#95dfcb" d="m203.645 314.508 7.515-21.84 22.719 14.926Zm0 0"/><path fill="#94dfcb" d="m229.96 322.398 3.919-14.804 19.453 18.043Zm0 0"/><path fill="#95dfcb" d="m253.332 325.637-19.453-18.043 25.945-3.965Zm0 0"/><path fill="#95dfcb" d="m233.879 307.594 6.144-19.114 19.801 15.149Zm0 0"/><path fill="#94dfcb" d="m227.621 384 46.738-21.043L313.754 384Zm0 0"/><path fill="#94dfcb" d="M274.36 362.957 227.62 384l15.543-32.89ZM274.36 362.957l37.12-5.273L313.754 384Zm0 0"/><path fill="#95dfcb" d="m227.621 384-9.59-34.219 25.133 1.328ZM194.027 357.992l24.004-8.21 9.59 34.218Zm0 0"/><path fill="#95dfcb" d="m218.031 349.781-24.004 8.211 10.266-27.027Zm0 0"/><path fill="#94dfcb" d="m243.164 351.11-17.332-18.934 16.39 1.926Zm0 0"/><path fill="#95dfcb" d="m243.164 351.11-25.133-1.329 7.801-17.605ZM343.05 313.637l5.442-42.07 6.707 48.042Zm0 0"/><path fill="#1c2638" d="m313.934 319.93 7.742 9.886-12.09 9.45ZM267.977 334.824l-12.872-.898-1.773-8.29Zm0 0"/><path fill="#1c2638" d="m253.332 325.637 1.773 8.289-12.882.176Zm0 0"/><path fill="#8ed6c4" d="m255.105 333.926 12.872.898-1.016 9.223Zm0 0"/><path fill="#94dfcb" d="m255.105 333.926-11.94 17.183-.942-17.007Zm0 0"/><path fill="#95dfcb" d="m243.164 351.11 11.941-17.184 11.856 10.12Zm0 0"/><path fill="#1c2638" d="m272.996 327.824-5.02 7-14.644-9.187Zm0 0"/><path fill="#94dfcb" d="m267.395 317.695 5.601 10.13-19.664-2.188ZM272.996 327.824l8.352-15.906 12.988 18.562Zm0 0"/><path fill="#94dfcb" d="m281.348 311.918-8.352 15.906-5.601-10.129Zm0 0"/><path fill="#95dfcb" d="m259.824 303.629 7.57 14.066-14.062 7.942Zm0 0"/><path fill="#94dfcb" d="m259.824 303.629 10.848-20.129 4.781 11.43Zm0 0"/><path fill="#95dfcb" d="m259.824 303.629 15.63-8.7 5.894 16.989Zm0 0"/><path fill="#95dfcb" d="m267.395 317.695-7.57-14.066 21.523 8.289ZM83.457 346.273 146.937 384H57.399ZM146.938 384l-63.481-37.727 50.707-1.296ZM155.29 334.34l16.26-2.684-6.343 18.219ZM171.55 331.656l13.22 6.922-19.563 11.297ZM184.77 338.578l-13.22-6.922 7.157-4.863ZM134.164 344.977l-13.75-29.614 16.066 2.739Zm0 0"/><path fill="#95dfcb" d="m120.414 315.363 13.75 29.614-50.707 1.296ZM.027-.035l37.887 31.887L-.02 63.094Zm0 0"/><path fill="#1c2638" d="m214.04 258.969-9.716 17.363-11.332-8.285Zm0 0"/><path fill="#f14e52" d="m214.04 258.969 23.44-9.848-9.257 21.918Zm0 0"/><path fill="#95dfcb" d="m228.223 271.04 21.5.21-9.7 17.23Zm0 0"/><path fill="#f14e52" d="m213.633 142.281 13.691-17.363 1.434 19.832Zm0 0"/><path fill="#d9f1e8" d="m227.324 124.918-13.691 17.363-3.934-1.261Zm0 0"/><path fill="#95e0cc" d="m215.672 183.71-2.04-41.429 11.427 37.34Zm0 0"/><path fill="#d9f1e8" d="m183.055 166.14 8.578-5.003-7.676 22.308Zm0 0"/><path fill="#d9f1e8" d="m191.633 161.137 17.113 24.043-24.789-1.735Zm0 0"/><path fill="#d9f1e8" d="m208.746 185.18-17.113-24.043 18.066-20.117Zm0 0"/><path fill="#daf1e8" d="m359.66 68.074-34.176 61.746-15.886-47.406Zm0 0"/><path fill="#95dfcb" d="M359.66 68.074 384 60.938v85.59Zm0 0"/><path fill="#d9f1e8" d="m268.629 63.29-18.887-8.946 49.692-17.09ZM356.547 0l3.113 68.074L324.258 0Zm0 0"/><path fill="#95dfcb" d="M384 60.938 356.547 0H384Zm0 0"/><path fill="#daf1e8" d="m359.66 68.074-60.226-30.82L324.258 0ZM299.434 37.254l60.226 30.82-50.062 14.34ZM249.742 54.344 272.141 0l27.293 37.254Zm0 0"/><path fill="#daf1e8" d="M299.434 37.254 272.14 0h52.117Zm0 0"/><path fill="#d9f1e8" d="m215.672 183.71 3.973 34.106-10.899-32.636Zm0 0"/><path fill="#1c2638" d="m312.96 270.074-15.995 7.11-16.184-23.239Zm0 0"/><path fill="#f04e52" d="m270.402 169.07-6.968 4.578.12-18.343Zm0 0"/><path fill="#d9f1e8" d="m274.68 152.18-4.278 16.89-6.847-13.765ZM270.402 169.07l4.278-16.89 26.597 17.757Zm0 0"/><path fill="#d9f1e8" d="m274.68 152.18 10.61-17.407 15.987 35.165Zm0 0"/><path fill="#9a222b" d="m268.563 215.363 3.406 31.332-20.985-18.097Zm0 0"/><path fill="#1f2537" d="m248.727 210.156 19.835 5.207-17.578 13.235Zm0 0"/><path fill="#9a222b" d="m271.969 246.695-3.406-31.332 21.324 22.969Zm0 0"/><path fill="#1c2638" d="m319.031 296.504 17.719-20.137 6.3 37.27Zm0 0"/><path fill="#1c2638" d="m336.75 276.367-17.719 20.137-6.07-26.43ZM304.016 290.184l-7.051-13 15.996-7.11Zm0 0"/><path fill="#1c2638" d="m319.031 296.504-15.015-6.32 8.945-20.11Zm0 0"/><path fill="#273745" d="m296.965 277.184 7.05 13-13.261-3.106Zm0 0"/><path fill="#1c2638" d="m287.277 279.492-16.605 4.008.648-23.812ZM287.277 279.492l-15.957-19.805 9.461-5.742Zm0 0"/><path fill="#959e94" d="m296.965 277.184-9.688 2.308-6.496-25.547Zm0 0"/><path fill="#95dfcb" d="m118.82 295.277 19.266 9.797-16.348.848ZM165.95 313.227l-27.864-8.153 13.371-9.078Zm0 0"/><path fill="#9a222b" d="m170.688 221.54 15.406-19.571-2.84 16.781Zm0 0"/><path fill="#9a222b" d="m170.688 221.54-17-33.981 32.406 14.41Zm0 0"/><path fill="#d9f1e8" d="m181.535 230.43 19.211 1.18-10.207 9.757ZM200.746 231.61l-19.21-1.18 7.76-7.532ZM200.746 231.61l1.836 20.64-12.043-10.883Zm0 0"/><path fill="#9a222b" d="m181.535 230.43-10.847-8.89 12.566-2.79Zm0 0"/><path fill="#95decb" d="m384 221.031-21.203 5.703-.078-37.582Zm0 0"/><path fill="#95dfcb" d="m362.43 250.93 10.664-13.211L384 252.316Zm0 0"/><path fill="#95dfcb" d="m362.43 250.93.367-24.196 10.297 10.985Zm0 0"/><path fill="#daf1e8" d="m285.29 134.773-10.61 17.407-16.77-13.356Zm0 0"/><path fill="#92d4c2" d="m384 326.336-17.832-52.55L384 252.315Zm0 0"/><path fill="#95deca" d="m366.168 273.785-10.969 45.824-6.707-48.043ZM366.168 273.785 384 326.335l-28.8-6.726Zm0 0"/><path fill="#d9f1e8" d="m155.703 123.785 2.95 14.617-22.551-2.066Zm0 0"/><path fill="#9a222b" d="m149.738 90.34 24.29-3.028L154 108.915Zm0 0"/><path fill="#d9f1e8" d="m174.027 87.313-24.289 3.027.227-21.172Zm0 0"/><path fill="#d9f1e8" d="m149.738 90.34-35.832 8.887 36.059-30.059ZM209.7 141.02l3.933 1.261 2.039 41.43Zm0 0"/><path fill="#1c2537" d="m183.055 166.14-19.39 6.493 14.874-12.75Zm0 0"/><path fill="#d9f1e8" d="m107.719 149.273-22.164 6.059 7.636-22.434Zm0 0"/><path fill="#f04e52" d="m213.414 113.492 13.91 11.426-18.887-8.398Zm0 0"/><path fill="#d9f1e8" d="m214.32 74.785-.906 38.707-33.875-11.222Zm0 0"/><path fill="#f04f53" d="m213.414 113.492-4.976 3.028-28.899-14.25Zm0 0"/><path fill="#daf1e8" d="m213.414 113.492.906-38.707 15.11 24.106Zm0 0"/><path fill="#f04e52" d="m227.324 124.918-21.234.21 2.347-8.608Zm0 0"/><path fill="#d9f1e8" d="m206.09 125.129 21.234-.211L209.7 141.02ZM166.723 130.984l-11.02-7.199 23.836-21.515Zm0 0"/><path fill="#d9f1e8" d="m166.723 130.984-8.07 7.418-2.95-14.617Zm0 0"/><path fill="#1c2638" d="m80.723 284.023 7.703-5.949 1.476 11.246ZM76.172 304.324l4.55-20.3 9.18 5.296Zm0 0"/><path fill="#1c2638" d="m63.29 291.95 17.433-7.927-4.551 20.301Zm0 0"/><path fill="#1c2638" d="m56.504 278.285 24.219 5.738-17.434 7.926Zm0 0"/><path fill="#8dd2c0" d="m80.723 284.023-24.22-5.738 31.923-.21Zm0 0"/><path fill="#1c2537" d="m116.707 180.695-11.266-20.52 11.97-.296ZM105.441 160.176l11.266 20.52-20.113-6.962Zm0 0"/><path fill="#d9f1e8" d="m105.441 160.176 2.278-10.903 9.691 10.606Zm0 0"/><path fill="#d9f1e8" d="m105.441 160.176-19.886-4.844 22.164-6.059Zm0 0"/><path fill="#95deca" d="m18.93 282.977 14.57-17.72 11.883 25.583Zm0 0"/><path fill="#97d4c2" d="m33.5 265.258-14.57 17.719 3.293-31.407Zm0 0"/><path fill="#95dfcb" d="m33.5 265.258 23.004 13.027-11.121 12.555Zm0 0"/><path fill="#95726f" d="M56.504 278.285 33.5 265.258l25.055-4.219Zm0 0"/><path fill="#d9f1e8" d="m33.96 241.656-11.737 9.914 1.433-16.699Zm0 0"/><path fill="#d9f1e8" d="m43.55 226.059-9.59 15.597-10.304-6.785ZM22.223 251.57l11.738-9.914-.461 23.602Zm0 0"/><path fill="#d9f1e8" d="m33.96 241.656 5.755.727-6.215 22.875Zm0 0"/><path fill="#d9f1e8" d="m33.96 241.656 9.59-15.597-3.835 16.324Zm0 0"/><path fill="#99222b" d="m43.55 226.059 16.048 3.242-19.883 13.082Zm0 0"/><path fill="#9a222b" d="m47.14 207.324 12.458 21.977-16.047-3.242ZM89.566 247.23 59.598 229.3l28.957-10.054Zm0 0"/><path fill="#9a222b" d="m88.555 219.246-28.957 10.055-1.211-25.051Zm0 0"/><path fill="#99222b" d="M59.598 229.3 47.14 207.325l11.246-3.074Zm0 0"/><path fill="#97222b" d="m59.598 229.3-4.618 21.387-15.265-8.304Zm0 0"/><path fill="#9a222b" d="m59.598 229.3 29.968 17.93-34.586 3.458Zm0 0"/><path fill="#d9f1e8" d="m83.621 185.168-13.648 8.035-2.391-14.414Zm0 0"/><path fill="#99222b" d="m69.973 193.203 13.648-8.035 2.805 16.871Zm0 0"/><path fill="#96222b" d="m86.426 202.04-2.805-16.872 14.43.465Zm0 0"/><path fill="#94ddca" d="m18.93 282.977 18.613 33.187-37.547.621Zm0 0"/><path fill="#95deca" d="m-.004 316.785 37.547-.62-5.02 28.772Zm0 0"/><path fill="#93ddca" d="M37.543 316.164 18.93 282.977l26.453 7.863Zm0 0"/><path fill="#1c2638" d="m100.895 311.39-43.317-3.777 18.594-3.289Zm0 0"/><path fill="#95dfcb" d="m57.578 307.613 43.317 3.778-17.438 34.882ZM189.504 277.625l21.656 15.043-20.008 6.39ZM211.16 292.668l-7.515 21.84-12.493-15.45Zm0 0"/><path fill="#94deca" d="m211.16 292.668-21.656-15.043 14.82-1.293Zm0 0"/><path fill="#95dfcb" d="m288.23 339.766 23.25 17.918-37.12 5.273ZM288.23 339.766l-13.87 23.191-7.4-18.91Zm0 0"/><path fill="#94decb" d="m267.977 334.824 20.253 4.942-21.27 4.28Zm0 0"/><path fill="#1c2638" d="m288.23 339.766-15.234-11.942 21.34 2.656ZM272.996 327.824l15.234 11.942-20.253-4.942Zm0 0"/><path fill="#1c2638" d="m309.586 339.266-21.356.5 6.106-9.286Zm0 0"/><path fill="#94decb" d="m311.48 357.684-23.25-17.918 21.356-.5Zm0 0"/><path fill="#1c2638" d="m294.336 330.48 19.598-10.55-4.348 19.336Zm0 0"/><path fill="#982d34" d="m171.55 331.656-5.6-18.43 12.757 13.567Zm0 0"/><path fill="#1c2638" d="m178.707 326.793-12.758-13.566 18.567.12ZM229.836 228.012l18.89-17.856 2.258 18.442Zm0 0"/><path fill="#f04d51" d="m237.48 249.121-7.644-21.11 21.148.587Zm0 0"/><path fill="#1c2537" d="m202.582 252.25 11.457 6.719-21.047 9.078Zm0 0"/><path fill="#f04d51" d="m222.23 276.445-8.19-17.476 14.183 12.07Zm0 0"/><path fill="#f04d51" d="m214.04 258.969 8.19 17.476-17.906-.113Zm0 0"/><path fill="#95dfcb" d="m222.23 276.445 5.993-5.406 11.8 17.441ZM211.16 292.668l11.07-16.223 17.793 12.035Zm0 0"/><path fill="#92d6c3" d="m222.23 276.445-11.07 16.223-6.836-16.336Zm0 0"/><path fill="#1e2537" d="m228.223 271.04 21.789-16.509-.29 16.719Zm0 0"/><path fill="#d9f1e8" d="m359.66 68.074 1.395 77.828-35.57-16.082Zm0 0"/><path fill="#95dfcb" d="m384 146.527-22.945-.625-1.395-77.828Zm0 0"/><path fill="#daf1e8" d="m291.344 68.75 8.09-31.496 10.164 45.16Zm0 0"/><path fill="#daf1e8" d="m291.344 68.75-22.715-5.46 30.805-26.036ZM309.598 82.414l15.886 47.406-29.222-23.668Zm0 0"/><path fill="#d9f1e8" d="m266.64 90.465 42.958-8.05-13.336 23.737Zm0 0"/><path fill="#daf1e8" d="m309.598 82.414-42.957 8.05 24.703-21.714Zm0 0"/><path fill="#d9f1e8" d="m266.64 90.465-16.898-36.121 18.887 8.945Zm0 0"/><path fill="#f04e52" d="m266.64 90.465 1.989-27.176 22.715 5.461ZM213.633 142.281l21.148 34.23-9.722 3.11ZM241.145 144.727l3.8-16.559 12.965 10.656Zm0 0"/><path fill="#ee5154" d="m230.61 112.258-17.196 1.234 16.016-14.601Zm0 0"/><path fill="#ed5356" d="m213.414 113.492 17.195-1.234-3.285 12.66Zm0 0"/><path fill="#95dfcb" d="m384 60.938-24.34 7.136L356.547 0Zm0 0"/><path fill="#202638" d="m327.781 259.11-14.82 10.964-4.41-30.168Zm0 0"/><path fill="#d9f1e8" d="m329.754 235.848-1.973 23.261-19.23-19.203ZM327.781 259.11l1.973-23.262 11.129 16.547ZM343.836 206.777l1.734 22.786-7.168-3.665ZM362.797 226.734l-17.227 2.828-1.734-22.785Zm0 0"/><path fill="#d9f1e8" d="m362.43 250.93-16.86-21.368 17.227-2.828Zm0 0"/><path fill="#f04e52" d="m263.434 173.648-2.317 18.98-13.41-18.265Zm0 0"/><path fill="#daf1e8" d="m319.64 199.32-18.363-29.382 34 5.546Zm0 0"/><path fill="#d9f1e8" d="m343.836 206.777-24.195-7.457 15.636-23.836Zm0 0"/><path fill="#f04d51" d="m295.586 220.914.418-11.195 18.285 6.55Zm0 0"/><path fill="#9a222b" d="m301.547 228.043-5.961-7.129 18.703-4.644Zm0 0"/><path fill="#9a222b" d="m295.586 220.914 5.96 7.129-11.66 10.289Zm0 0"/><path fill="#9a222b" d="m268.563 215.363 27.023 5.551-5.7 17.418Zm0 0"/><path fill="#f04d51" d="m296.004 209.719-.418 11.195-27.024-5.55Zm0 0"/><path fill="#1c2537" d="m271.969 246.695 17.918-8.363-9.106 15.613Zm0 0"/><path fill="#9a222b" d="m289.887 238.332 11.66-10.289 7.004 11.863Zm0 0"/><path fill="#1c2537" d="m289.887 238.332 23.074 31.742-32.18-16.129Zm0 0"/><path fill="#1c2537" d="m312.96 270.074-23.073-31.742 18.664 1.574Zm0 0"/><path fill="#f14e52" d="m329.754 235.848-2.895-19.27 11.543 9.32Zm0 0"/><path fill="#d9f1e8" d="m319.64 199.32 7.22 17.258-12.57-.308ZM326.86 216.578l16.976-9.8-5.434 19.12Zm0 0"/><path fill="#d9f1e8" d="m326.86 216.578-7.22-17.258 24.196 7.457Zm0 0"/><path fill="#9a222b" d="m308.55 239.906-7.003-11.863 12.742-11.773Zm0 0"/><path fill="#f04d51" d="m326.86 216.578-18.31 23.328 5.74-23.636ZM308.55 239.906l18.31-23.328 2.894 19.27Zm0 0"/><path fill="#95dfcb" d="m138.086 305.074-1.922-16.945 15.293 7.867ZM118.82 295.277l17.344-7.148 1.922 16.945Zm0 0"/><path fill="#95decb" d="m162.258 290.691 27.246-13.066 1.648 21.434Zm0 0"/><path fill="#95dfcb" d="m151.457 295.996 10.8-5.305 3.692 22.536ZM184.516 313.348l-22.258-22.657 28.894 8.368Zm0 0"/><path fill="#98928a" d="m165.95 313.227-3.692-22.536 22.258 22.657Zm0 0"/><path fill="#95dfcb" d="m134.164 344.977 2.316-26.875 18.81 16.238Zm0 0"/><path fill="#1d2739" d="m165.95 313.227-29.47 4.875 1.606-13.028Zm0 0"/><path fill="#94dfcb" d="m100.895 311.39 17.925-16.113 2.918 10.645Zm0 0"/><path fill="#1c2638" d="m100.895 311.39-24.723-7.066 13.73-15.004ZM100.895 311.39l-.012-26.792 17.937 10.68Zm0 0"/><path fill="#1c2638" d="m100.883 284.598.012 26.793-10.993-22.07Zm0 0"/><path fill="#1c2638" d="m88.426 278.074 12.457 6.524-10.98 4.722Zm0 0"/><path fill="#90c4b5" d="m101.363 268.285-.48 16.313-12.457-6.524Zm0 0"/><path fill="#9a222b" d="m170.688 221.54-9.551 7.108-7.45-41.09Zm0 0"/><path fill="#94ddca" d="m347.613 355.734-36.133 1.95 15.579-18.243ZM313.754 384l-2.274-26.316 36.133-1.95Zm0 0"/><path fill="#94ddc9" d="m311.48 357.684-1.894-18.418 17.473.175Zm0 0"/><path fill="#95dfcb" d="m355.2 319.61 28.8 6.726-36.387 29.398Zm0 0"/><path fill="#95deca" d="m347.613 355.734-20.554-16.293 28.14-19.832Zm0 0"/><path fill="#94ddc9" d="m327.059 339.441 15.992-25.804 12.148 5.972Zm0 0"/><path fill="#1c2638" d="M343.05 313.637 327.06 339.44l-5.383-9.625Zm0 0"/><path fill="#d9f1e8" d="m155.703 123.785-13.207-11.71 11.504-3.16ZM142.496 112.074l7.242-21.734L154 108.914Zm0 0"/><path fill="#d9f1e8" d="m149.738 90.34-7.242 21.734-28.59-12.847Zm0 0"/><path fill="#d9f1e8" d="m142.496 112.074 13.207 11.711-19.601 12.55Zm0 0"/><path fill="#d9f1e8" d="m113.906 99.227 28.59 12.847-6.394 24.262Zm0 0"/><path fill="#1c2637" d="m131.484 158.879 24.106.074-9.922 14.34Zm0 0"/><path fill="#1c2638" d="m155.59 158.953 8.074 13.68-17.996.66Zm0 0"/><path fill="#d9f1e8" d="m155.59 158.953-24.106-.074 4.618-22.543Zm0 0"/><path fill="#d9f1e8" d="m158.652 138.402-3.062 20.551-19.488-22.617Zm0 0"/><path fill="#1c2638" d="m163.664 172.633-8.074-13.68 22.95.93Zm0 0"/><path fill="#d9f1e8" d="m155.59 158.953 19.539-15.437 3.41 16.367Zm0 0"/><path fill="#d9f1e8" d="m155.59 158.953 3.062-20.55 16.477 5.113Zm0 0"/><path fill="#1c2638" d="m174.102 183.746-10.438-11.113 19.39-6.492ZM174.102 183.746l8.953-17.605.902 17.304Zm0 0"/><path fill="#d9f1e8" d="m186.094 201.969-11.992-18.223 9.855-.3Zm0 0"/><path fill="#322535" d="m153.688 187.559 20.414-3.813 11.992 18.223Zm0 0"/><path fill="#1c2637" d="m163.664 172.633 10.438 11.113-20.415 3.813Zm0 0"/><path fill="#d9f1e8" d="m46.668 83.29 27.078 63.444-20.441 14.832Zm0 0"/><path fill="#daf1e8" d="M73.746 146.734 46.668 83.29l46.523 49.61Zm0 0"/><path fill="#d9f1e8" d="m85.555 155.332-11.809-8.598 19.445-13.836Zm0 0"/><path fill="#daf1e8" d="m206.09 125.129 3.61 15.89-34.571 2.497ZM256.23 106.563l10.41-16.098 29.622 15.687Zm0 0"/><path fill="#d9f1e8" d="m244.945 128.168 16.375-11.125-1.254 12.352Zm0 0"/><path fill="#daf1e8" d="m285.29 134.773-23.97-17.73 34.942-10.89ZM261.32 117.043l23.97 17.73-25.224-5.378Zm0 0"/><path fill="#f04e52" d="m261.32 117.043-5.09-10.48 40.032-.41Zm0 0"/><path fill="#d9f1e8" d="m158.652 138.402 8.07-7.418 8.407 12.532Zm0 0"/><path fill="#1c2637" d="m105.441 160.176-27.48.82 7.594-5.664Zm0 0"/><path fill="#d9f1e8" d="m77.96 160.996-4.214-14.262 11.809 8.598Zm0 0"/><path fill="#1c2537" d="m77.96 160.996 18.634 12.738-12.973 11.434ZM77.96 160.996l27.481-.82-8.847 13.558Zm0 0"/><path fill="#d9f1e8" d="m73.746 146.734 4.215 14.262-24.656.57Zm0 0"/><path fill="#d9f1e8" d="m67.582 178.79 10.379-17.794 5.66 24.172Zm0 0"/><path fill="#d9f1e8" d="M77.96 160.996 67.583 178.79l-14.277-17.223Zm0 0"/><path fill="#1c2638" d="m313.934 319.93 29.117-6.293-21.375 16.18ZM313.934 319.93l5.097-23.426 24.02 17.133ZM158.93 324.258l7.02-11.031 5.6 18.43Zm0 0"/><path fill="#1c2638" d="m158.93 324.258-22.45-6.156 29.47-4.875Zm0 0"/><path fill="#94dbc8" d="m158.93 324.258 12.62 7.398-16.26 2.684Zm0 0"/><path fill="#94dfcb" d="m136.48 318.102 22.45 6.156-3.64 10.082Zm0 0"/><path fill="#f14e52" d="m220.145 240.996 9.69-12.984 7.645 21.11Zm0 0"/><path fill="#d9f1e8" d="m220.145 240.996-17.563 11.254-1.836-20.64Zm0 0"/><path fill="#f14e52" d="m220.145 240.996 17.335 8.125-23.44 9.848Zm0 0"/><path fill="#d9f1e8" d="m202.582 252.25 17.563-11.254-6.106 17.973Zm0 0"/><path fill="#f04e52" d="m232.273 205.645-7.214-26.024 9.722-3.11Zm0 0"/><path fill="#95dfcb" d="m232.273 205.645-16.601-21.934 9.387-4.09Zm0 0"/><path fill="#f14e52" d="m248.727 210.156-16.454-4.511 2.508-29.133Zm0 0"/><path fill="#f04d51" d="m229.836 228.012 2.437-22.367 16.454 4.511Zm0 0"/><path fill="#95dfcb" d="m215.672 183.71 16.601 21.935-12.628 12.171Zm0 0"/><path fill="#99222b" d="m250.012 254.531 21.957-7.836-22.246 24.555Zm0 0"/><path fill="#97222b" d="m271.969 246.695-21.957 7.836.972-25.933Zm0 0"/><path fill="#1f2537" d="m250.012 254.531-12.532-5.41 13.504-20.523Zm0 0"/><path fill="#232537" d="m237.48 249.121 12.532 5.41-21.79 16.508Zm0 0"/><path fill="#f14e52" d="m234.781 176.512-21.148-34.23 15.125 2.468Zm0 0"/><path fill="#daf1e8" d="m274.68 152.18-11.125 3.125-5.645-16.48Zm0 0"/><path fill="#f04e52" d="m263.555 155.305-22.41-10.578 16.765-5.903Zm0 0"/><path fill="#daf1e8" d="M207.742 0h64.399l-22.399 54.344Zm0 0"/><path fill="#d9f1e8" d="m341.934 233.969 20.496 16.96-21.547 1.466Zm0 0"/><path fill="#d9f1e8" d="m341.934 233.969 3.636-4.406 16.86 21.367Zm0 0"/><path fill="#f04e52" d="m345.57 229.563-3.636 4.406-3.532-8.07Zm0 0"/><path fill="#f04e52" d="m341.934 233.969-12.18 1.879 8.648-9.95Zm0 0"/><path fill="#d9f1e8" d="m329.754 235.848 12.18-1.88-1.051 18.427Zm0 0"/><path fill="#9a222b" d="m279.566 189.219-11.003 26.144-7.446-22.734Zm0 0"/><path fill="#f04e52" d="m263.434 173.648 16.132 15.57-18.449 3.41Zm0 0"/><path fill="#9a222b" d="m279.566 189.219 16.438 20.5-27.442 5.644Zm0 0"/><path fill="#f04f52" d="m279.566 189.219-16.132-15.57 6.968-4.579Zm0 0"/><path fill="#d9f1e8" d="m279.566 189.219-9.164-20.149 30.875.868Zm0 0"/><path fill="#d9f1e9" d="m296.004 209.719-16.438-20.5 21.711-19.281Zm0 0"/><path fill="#daf1e8" d="m296.004 209.719 23.637-10.399-5.352 16.95ZM319.64 199.32l-23.636 10.399 5.273-39.781Zm0 0"/><path fill="#d9f1e8" d="m178.29 241.121 3.245-10.691 9.004 10.937Zm0 0"/><path fill="#99222b" d="m178.29 241.121-7.602-19.582 10.847 8.89Zm0 0"/><path fill="#85222d" d="m161.45 271.316 31.542-3.27-3.488 9.579Zm0 0"/><path fill="#95dfcb" d="m136.164 288.129 23.7-3.774-8.407 11.641Zm0 0"/><path fill="#1c2638" d="m159.863 284.355-30.851-13.453 32.437.414Zm0 0"/><path fill="#1c2638" d="m129.012 270.902 30.851 13.453-23.699 3.774ZM162.258 290.691l-2.395-6.336 29.64-6.73Zm0 0"/><path fill="#1c2537" d="m159.863 284.355 1.586-13.039 28.055 6.309Zm0 0"/><path fill="#95dfcb" d="m159.863 284.355 2.395 6.336-10.801 5.305Zm0 0"/><path fill="#1c2638" d="m129.012 270.902-28.13 13.696.481-16.313Zm0 0"/><path fill="#98222b" d="m129.012 270.902-27.649-2.617L130 262.06Zm0 0"/><path fill="#99222b" d="m129.012 270.902.988-8.843 31.45 9.257Zm0 0"/><path fill="#3e2635" d="m130 262.059 17.258-12.293 14.191 21.55Zm0 0"/><path fill="#452433" d="m161.137 228.648-13.88 21.118-21.5-22.532Zm0 0"/><path fill="#94deca" d="M384 384h-70.246l33.86-28.266Zm0 0"/><path fill="#f04e52" d="m175.895 138.441-9.172-7.457 41.714-14.464Zm0 0"/><path fill="#f04e52" d="m206.09 125.129-30.195 13.312 32.542-21.921Zm0 0"/><path fill="#daf1e8" d="m175.895 138.441 30.195-13.312-30.961 18.387Zm0 0"/><path fill="#d9f1e8" d="m166.723 130.984 9.172 7.457-.766 5.075Zm0 0"/><path fill="#96decb" d="m256.23 106.563-17.187-1.856 7.121-9.07Zm0 0"/><path fill="#d9f1e8" d="m249.742 54.344-3.578 41.293-31.844-20.852Zm0 0"/><path fill="#db8e8b" d="m256.23 106.563-10.066-10.926 20.477-5.172Zm0 0"/><path fill="#daf1e8" d="m266.64 90.465-20.476 5.172 3.578-41.293Zm0 0"/><path fill="#95dfcb" d="m261.32 117.043-16.375 11.125 11.285-21.606Zm0 0"/><path fill="#9cd4c2" d="m230.61 112.258 14.335 15.91-17.62-3.25Zm0 0"/><path fill="#95dfcb" d="m239.043 104.707 5.902 23.461-14.336-15.91ZM256.23 106.563l-11.285 21.605-5.902-23.461Zm0 0"/><path fill="#1c2638" d="m294.336 330.48 6.793-22.218 12.805 11.668Zm0 0"/><path fill="#1c2638" d="m301.129 308.262-6.793 22.218-12.988-18.562Zm0 0"/><path fill="#d9f1e8" d="m219.645 217.816.5 23.18-19.399-9.387Zm0 0"/><path fill="#d9f1e8" d="m220.145 240.996-.5-23.18 10.19 10.196Zm0 0"/><path fill="#95dfcb" d="m219.645 217.816 12.628-12.171-2.437 22.367Zm0 0"/><path fill="#f14e52" d="m263.555 155.305-15.848 19.058-6.562-29.636Zm0 0"/><path fill="#99222b" d="m178.29 241.121-17.153-12.473 9.55-7.109Zm0 0"/><path fill="#d9f1e8" d="m202.582 252.25-13.98.781 1.937-11.664Zm0 0"/><path fill="#1c2537" d="m192.992 268.047-4.39-15.016 13.98-.781Zm0 0"/><path fill="#d9f1e8" d="m188.602 253.031-10.313-11.91 12.25.246Zm0 0"/><path fill="#1c2637" d="m188.602 253.031 4.39 15.016-31.543 3.27Zm0 0"/><path fill="#1c2638" d="m129.012 270.902-6.672 18.211-21.457-4.515ZM122.34 289.113l6.672-18.21 7.152 17.226Zm0 0"/><path fill="#95dfcb" d="m122.34 289.113 13.824-.984-17.344 7.148Zm0 0"/><path fill="#1c2638" d="m100.883 284.598 21.457 4.515-3.52 6.164Zm0 0"/><path fill="#4c2433" d="M147.258 249.766 130 262.059l-4.242-34.825Zm0 0"/><path fill="#1c2638" d="m301.129 308.262 17.902-11.758-5.097 23.426Zm0 0"/><path fill="#1c2638" d="m304.016 290.184 15.015 6.32-17.902 11.758Zm0 0"/><path fill="#f14e52" d="m241.145 144.727-6.364 31.785-6.023-31.762ZM241.145 144.727l6.562 29.636-12.926 2.149Zm0 0"/><path fill="#1c2537" d="m166.938 249.215 21.664 3.816-27.153 18.285Zm0 0"/><path fill="#1c2537" d="m166.938 249.215-5.489 22.101-14.191-21.55Zm0 0"/><path fill="#292536" d="m161.137 228.648 5.8 20.567-19.68.55Zm0 0"/><path fill="#97222b" d="m166.938 249.215-5.801-20.567 17.152 12.473Zm0 0"/><path fill="#98222b" d="m188.602 253.031-21.665-3.816 11.352-8.094Zm0 0"/></svg>