<svg xmlns="http://www.w3.org/2000/svg" width="512" height="512" viewBox="0 0 384 384"><path fill="#ded684" d="m206.805 0-3.88 51.7-73.628-12.02Zm0 0"/><path fill="#ded685" d="M113.82 0h92.985l-77.508 39.68Zm0 0"/><path fill="#ded684" d="m82.258 88.352-15.903-50.48 62.942 1.808ZM209.383 193.762l-10.309 19.695-3.98-28.102Zm0 0"/><path fill="#ded684" d="m209.793 173.473-.41 20.289-14.29-8.407ZM284.727 135.113l8.925-28.625 35.223 40.719Zm0 0"/><path fill="#953c3b" d="m116.406 235.277 11.992-25.242 16.778 27.422Zm0 0"/><path fill="#ded684" d="m38.727 180.79 4.714-38.09 17.172 31.323Zm0 0"/><path fill="#ded684" d="m34.68 204.809 4.047-24.02 12.425 10.465Zm0 0"/><path fill="#ded684" d="m38.727 180.79 21.886-6.767-9.46 17.23ZM40.434 345.336l-13.059-30.004 29.645-.535Zm0 0"/><path fill="#ded684" d="m27.375 315.332 13.059 30.004L0 334.207ZM209.809 319.41l12.316 13.625-19.465.7Zm0 0"/><path fill="#202215" d="m222.078 317.234.047 15.801-12.316-13.625Zm0 0"/><path fill="#ded684" d="m78.566 334.11 30.778 10.605L75.644 384ZM66.355 37.871 64.891 0h48.93Zm0 0"/><path fill="#963c3c" d="m256.715 201.023-20.582-10.984 15.445-13.207Zm0 0"/><path fill="#dfd785" d="m206.805 0 54.933 39.125-58.812 12.574Zm0 0"/><path fill="#ded684" d="M261.738 39.125 248.18 70.227l-45.254-18.528Zm0 0"/><path fill="#202215" d="m278.797 300.871 15.781-17.48 5.887 10.488Zm0 0"/><path fill="#953b3b" d="m205.293 276.004-14.473.906 9.137-13.09Zm0 0"/><path fill="#7f3734" d="m134.844 251.57-18.438-16.293 28.77 2.18Zm0 0"/><path fill="#ded684" d="m193.953 235.309 5.121-21.852 9.434 17.863Zm0 0"/><path fill="#ded684" d="m193.953 235.309-12.039-12.614 17.16-9.238ZM384 221.164l-28.832-26.742L384 144.844Zm0 0"/><path fill="#dfd684" d="M129.297 39.68 66.355 37.87 113.82 0Zm0 0"/><path fill="#ded684" d="m202.926 51.7 25.129 30.769-26.754 27.89ZM202.926 51.7l-31.094 37.07-31.008-19.48Zm0 0"/><path fill="#973e3d" d="m171.832 88.77 4.73 12.718-22.117 7.32Zm0 0"/><path fill="#98423e" d="m176.563 101.488-4.731-12.718 29.469 21.59Zm0 0"/><path fill="#ded684" d="m171.832 88.77 31.094-37.07-1.625 58.66Zm0 0"/><path fill="#dfd785" d="m129.297 39.68 11.527 29.61-58.566 19.062Zm0 0"/><path fill="#ded684" d="m195.094 185.355-12.043-27.187 10.777-1.918Zm0 0"/><path fill="#ded684" d="m183.05 158.168 12.044 27.187-13.406-24.472ZM109.992 133.773l-29.816 6.887 2.082-52.308ZM80.176 140.66 43.44 142.7l38.817-54.348Zm0 0"/><path fill="#ded684" d="m149.21 125.547-17.663 19.95-21.555-11.724Zm0 0"/><path fill="#953b3b" d="m128.398 210.035 1.684-29.39 35.238 22.289Zm0 0"/><path fill="#202215" d="m90.45 175.93-2.122 9.418-6.41-5.684Zm0 0"/><path fill="#953b3b" d="m128.398 210.035-40.07-24.687 41.754-4.703Zm0 0"/><path fill="#ded684" d="M-.004 276.918 0 190.378l13.941 73.59Zm0 0"/><path fill="#202215" d="m-.004 276.918 11.39 9.762L.005 297.008Zm0 0"/><path fill="#ded684" d="m0 190.379 38.727-9.59-4.047 24.02Zm0 0"/><path fill="#ded684" d="M38.727 180.79 0 190.378l43.441-47.68ZM26.23 226.012 0 190.379l34.68 14.43ZM57.02 314.797l-9.274-18.688 15.75-3.57ZM57.02 314.797l6.476-22.258 15.879 16.34ZM0 334.207l40.434 11.129L0 384Zm0 0"/><path fill="#ddd583" d="m212 303.36 10.078 13.874-12.27 2.176Zm0 0"/><path fill="#202215" d="m222.125 333.035 10.777-12.11 6.79 10.602Zm0 0"/><path fill="#202215" d="m222.078 317.234 10.824 3.692-10.777 12.11Zm0 0"/><path fill="#202215" d="m232.902 320.926 15.07 1.61-8.28 8.991Zm0 0"/><path fill="#ded684" d="m222.125 333.035-1.918 19.711-17.547-19.012ZM249.566 360.598l26.223-7.57L303.324 384ZM275.79 353.027l-26.224 7.57 15.696-17.437ZM317.777 340.945l19.989-13.644 9.195 21.18ZM304.004 347.453l-1.27-7.91 15.043 1.402ZM109.344 344.715l-9.239-32.52 18.82 1.317ZM192.023 356.969 147.348 384l18.148-38.648ZM219.82 384h-72.472l44.675-27.031Zm0 0"/><path fill="#49492d" d="m194.176 319.55 15.633-.14-7.149 14.324Zm0 0"/><path fill="#212316" d="m194.176 319.55-12.559 4.032 5.84-7.812Zm0 0"/><path fill="#ded684" d="m185.258 334.938 6.765 22.03-26.527-11.616Zm0 0"/><path fill="#ded684" d="m192.023 356.969-6.765-22.031 17.402-1.204Zm0 0"/><path fill="#ded684" d="m185.258 334.938 8.918-15.387 8.484 14.183ZM194.176 319.55l-8.918 15.387-3.64-11.355Zm0 0"/><path fill="#dfd684" d="m64.89 0 1.465 37.871L0 0Zm0 0"/><path fill="#ded684" d="M0 91.27 66.355 37.87l15.903 50.48ZM384 74.02v70.824l-44.582-45.672Zm0 0"/><path fill="#dfd785" d="M293.652 106.488 305.97 76.7l33.449 22.473Zm0 0"/><path fill="#ded684" d="m305.969 76.7 30.254-26.977 3.195 49.449Zm0 0"/><path fill="#963c3c" d="m251.578 176.832-7.758-25.184 20.809 6.45ZM236.281 214.563l-.148-24.524 20.582 10.984ZM243.82 151.648l-16.855-18.937 10.406-9.274Zm0 0"/><path fill="#963c3c" d="m226.965 132.71 16.855 18.938-22.789 13.551Zm0 0"/><path fill="#ded684" d="m250.113 128.855 15.532-1.8-6.286 17.691Zm0 0"/><path fill="#963c3c" d="m250.113 128.855-6.293 22.793-6.449-28.21Zm0 0"/><path fill="#ded684" d="M299.96 0H384l-47.777 49.723Zm0 0"/><path fill="#dfd785" d="m299.96 0 36.263 49.723-38.422-2.426Zm0 0"/><path fill="#ded684" d="m248.18 70.227-20.125 12.242-25.13-30.77Zm0 0"/><path fill="#963c3c" d="m236.281 214.563-20.07-21.95 19.922-2.574Zm0 0"/><path fill="#ded684" d="m216.21 192.613-6.827 1.149.41-20.29Zm0 0"/><path fill="#ded684" d="m213.945 172.781 2.266 19.832-6.418-19.14ZM199.074 213.457l19.274 6.742-9.84 11.121Zm0 0"/><path fill="#dfd684" d="m209.383 193.762 8.965 26.437-19.274-6.742Zm0 0"/><path fill="#ded684" d="m340.43 289.09 11.89 18.883-10.234.132Zm0 0"/><path fill="#ded684" d="m352.32 307.973-11.89-18.883 14.492-10.094Zm0 0"/><path fill="#202215" d="m334.082 267.879 6.348 21.21-23.364-11.726Zm0 0"/><path fill="#ded684" d="m334.082 267.879 16.457-16.668 4.383 27.785Zm0 0"/><path fill="#ded684" d="m340.43 289.09-6.348-21.211 20.84 11.117Zm0 0"/><path fill="#202215" d="m297.258 307.25-18.461-6.379 21.668-6.992Zm0 0"/><path fill="#202215" d="m278.797 300.871 18.46 6.379-16.796 2.066Zm0 0"/><path fill="#953b3b" d="m273.445 251.031-17.097-20.851 20.996 13.941Zm0 0"/><path fill="#953b3b" d="m256.348 230.18 17.097 20.851-1.804.696Zm0 0"/><path fill="#ded684" d="m258.41 287.367 14.188 4.598-13.938 9.402Zm0 0"/><path fill="#202215" d="m278.797 300.871-6.2-8.906 21.981-8.574Zm0 0"/><path fill="#202215" d="m272.598 291.965-.309-15.961 22.29 7.387Zm0 0"/><path fill="#202215" d="m273.445 251.031-1.156 24.973-.648-24.277Zm0 0"/><path fill="#ded684" d="m272.29 276.004-22.942-3.777 22.293-20.5Zm0 0"/><path fill="#ded684" d="m249.348 272.227 22.941 3.777-13.879 11.363ZM272.29 276.004l.308 15.96-14.188-4.597Zm0 0"/><path fill="#202215" d="m116.406 235.277-10.89 22.813-17.075-13.656Zm0 0"/><path fill="#202215" d="m134.844 251.57-29.328 6.52 10.89-22.813Zm0 0"/><path fill="#953b3b" d="m105.516 258.09-9.348 6.156-7.727-19.812Zm0 0"/><path fill="#ded684" d="m199.074 213.457-13.496-12.289 9.516-15.813ZM181.914 222.695l3.664-21.527 13.496 12.289ZM193.953 235.309l-14.562 5.043 2.523-17.657Zm0 0"/><path fill="#963c3c" d="m163.316 225.61-34.918-15.575 36.922-7.101Zm0 0"/><path fill="#963c3c" d="m128.398 210.035 34.918 15.574-18.14 11.848Zm0 0"/><path fill="#ded684" d="m384 221.164-.027 53.344-18.145-22.238Zm0 0"/><path fill="#ded685" d="M358.277 226.05 384 221.165l-18.172 31.106Zm0 0"/><path fill="#ded684" d="m328.875 147.207-35.223-40.719 45.766-7.316Zm0 0"/><path fill="#dfd785" d="m355.168 194.422-26.293-47.215L384 144.844Zm0 0"/><path fill="#ded684" d="m328.875 147.207 10.543-48.035L384 144.844ZM284.727 135.113l-16.286-21.39 25.211-7.235ZM284.727 135.113l-19.082-8.058 2.796-13.332ZM369.125 318.555 384 313.187V384ZM383.973 274.508l-29.051 4.488 10.906-26.726ZM352.32 307.973l16.805 10.582-22.164 29.925ZM129.297 39.68l73.629 12.02-62.102 17.59Zm0 0"/><path fill="#dfd785" d="m176.563 101.488-27.352 24.059 5.234-16.738Zm0 0"/><path fill="#ded684" d="M171.832 88.77H154.27l-13.446-19.48Zm0 0"/><path fill="#9a4440" d="M154.27 88.77h17.562l-17.387 20.039Zm0 0"/><path fill="#ded684" d="m127.266 104.273-17.274 29.5-27.734-45.421Zm0 0"/><path fill="#dfd785" d="m140.824 69.29-13.558 34.983-45.008-15.921Zm0 0"/><path fill="#dfd684" d="m127.266 104.273 21.945 21.274-39.219 8.226Zm0 0"/><path fill="#ded684" d="m195.094 185.355-14.242-4.742.835-19.73Zm0 0"/><path fill="#953b3b" d="m130.082 180.645 30.633 1.937 4.605 20.352Zm0 0"/><path fill="#202215" d="m160.715 182.582-30.633-1.937-.27-4.223Zm0 0"/><path fill="#202215" d="m145.715 158.3-15.903 18.122-6.222-19.774Zm0 0"/><path fill="#ded685" d="m131.547 145.496 14.168 12.805-22.125-1.653Zm0 0"/><path fill="#ded684" d="m145.715 158.3-14.168-12.804 17.664-19.95Zm0 0"/><path fill="#ded685" d="m109.992 133.773 21.555 11.723-7.957 11.152Zm0 0"/><path fill="#ded684" d="m238.852 93.633-10.797-11.164 20.125-12.242ZM185.21 124.285l-8.648-22.797 24.739 8.871ZM205.406 116.71l-20.195 7.575 16.09-13.926Zm0 0"/><path fill="#2c2419" d="m96.168 264.246-.969 16.156-22.336-18.812Zm0 0"/><path fill="#202215" d="m88.328 185.348 41.485-8.926.269 4.223ZM90.45 175.93l39.363.492-41.485 8.926Zm0 0"/><path fill="#ded684" d="m0 91.27 43.441 51.43L0 190.378Zm0 0"/><path fill="#ded684" d="M43.441 142.7 0 91.27l82.258-2.918Zm0 0"/><path fill="#202215" d="m58.8 278.883 14.188 1.094-9.492 12.562ZM95.2 280.402l-22.212-.425-.125-18.387Zm0 0"/><path fill="#ded684" d="m34.117 265.293 24.684 13.59-20.715-1.211ZM34.117 265.293l-15.582 13.473-4.594-14.797Zm0 0"/><path fill="#ded684" d="m18.535 278.766-18.539-1.848 13.945-12.95Zm0 0"/><path fill="#212315" d="m18.535 278.766-7.148 7.914-11.39-9.762Zm0 0"/><path fill="#ded684" d="m26.23 226.012-12.289 37.957L0 190.379ZM34.68 204.809l8.847 21.656-17.297-.453ZM61.383 200.645l-15.332 7.242 5.101-16.633Zm0 0"/><path fill="#dfd785" d="m46.05 207.887-11.37-3.078 16.472-13.555Zm0 0"/><path fill="#ded684" d="m46.05 207.887-2.523 18.578-8.847-21.656Zm0 0"/><path fill="#953b3b" d="m96.168 264.246-23.305-2.656 15.578-17.156Zm0 0"/><path fill="#953b3b" d="m72.863 261.59-10.699-31.281 26.277 14.125Zm0 0"/><path fill="#953b3b" d="m62.164 230.309 23.969-15.25 2.308 29.375Zm0 0"/><path fill="#953b3b" d="m86.133 215.059 30.273 20.218-27.965 9.157Zm0 0"/><path fill="#953b3b" d="m86.133 215.059 42.265-5.024-11.992 25.242Zm0 0"/><path fill="#ded684" d="m60.613 174.023 7.016 15.172-16.477 2.059ZM67.629 189.195l-6.246 11.45-10.23-9.391ZM67.629 189.195l4.016 5.34-10.262 6.11Zm0 0"/><path fill="#953b3b" d="m128.398 210.035-42.265 5.024 2.195-29.711Zm0 0"/><path fill="#963c3c" d="m86.133 215.059-14.488-20.524 16.683-9.187ZM86.133 215.059l-23.969 15.25-.781-29.664Zm0 0"/><path fill="#963c3c" d="m71.645 194.535 14.488 20.524-24.75-14.414Zm0 0"/><path fill="#202215" d="m11.387 286.68 12.535 9.316-23.918 1.012ZM23.922 295.996l-5.387-17.23 19.55-1.094Zm0 0"/><path fill="#202215" d="m18.535 278.766 5.387 17.23-12.535-9.316Zm0 0"/><path fill="#ded684" d="m78.566 334.11-38.132 11.226 16.586-30.54Zm0 0"/><path fill="#ded684" d="m40.434 345.336 38.132-11.227L75.645 384ZM40.434 345.336 75.644 384H0ZM249.348 272.227 237.32 299.43l-10.28-12.676Zm0 0"/><path fill="#ded684" d="M237.32 299.43 212 303.36l15.04-16.606ZM237.32 299.43l21.09-12.063.25 14Zm0 0"/><path fill="#ded684" d="m237.32 299.43 12.028-27.203 9.062 15.14ZM212 303.36l-24.543 12.41 16.973-25.055ZM194.176 319.55 212 303.36l-2.191 16.05Zm0 0"/><path fill="#ded684" d="m212 303.36-17.824 16.19-6.719-3.78ZM212 303.36l-7.57-12.645 22.61-3.961ZM212 303.36l25.32-3.93-15.242 17.804Zm0 0"/><path fill="#ded684" d="m237.32 299.43-4.418 21.496-10.824-3.692ZM232.902 320.926l4.418-21.496 10.653 23.105ZM247.973 322.535 237.32 299.43l21.34 1.937ZM275.79 353.027l28.214-5.574-.68 36.547ZM249.566 360.598 219.82 384l.387-31.254Zm0 0"/><path fill="#ded684" d="m219.82 384 29.746-23.402L303.324 384ZM192.023 356.969l28.184-4.223L219.82 384Zm0 0"/><path fill="#ded684" d="m220.207 352.746-28.184 4.223 10.637-23.235ZM237.531 342.363l-15.406-9.328 17.566-1.508ZM237.531 342.363l-17.324 10.383 1.918-19.71ZM237.531 342.363l12.035 18.235-29.359-7.852ZM352.32 307.973 337.766 327.3l4.32-19.196ZM337.766 327.3l14.554-19.327-5.36 40.507Zm0 0"/><path fill="#202215" d="m311.36 323.887 26.406 3.414-19.989 13.644ZM302.734 339.543l8.625-15.656 6.418 17.058ZM253.684 334.383l-5.711-11.848 12.125 5.356ZM265.805 334.457l-12.121-.074 6.414-6.492Zm0 0"/><path fill="#202215" d="m247.973 322.535 5.71 11.848-13.992-2.856Zm0 0"/><path fill="#ded684" d="m253.684 334.383 12.12.074-.542 8.703ZM253.684 334.383l-16.153 7.98 2.16-10.836ZM249.566 360.598l4.118-26.215 11.578 8.777ZM237.531 342.363l16.153-7.98-4.118 26.215Zm0 0"/><path fill="#202215" d="m297.258 307.25-9.754 12.922-7.043-10.856Zm0 0"/><path fill="#ded684" d="m287.504 320.172-14.813-1.274 7.77-9.582Zm0 0"/><path fill="#202215" d="m275.227 330.605-9.422 3.852-5.707-6.566Zm0 0"/><path fill="#dad282" d="m272.691 318.898 2.536 11.707-15.13-2.714Zm0 0"/><path fill="#ded684" d="m287.504 320.172-12.277 10.433-2.536-11.707ZM266.516 308.332l6.175 10.566-12.593 8.993ZM266.516 308.332l-18.543 14.203 10.687-21.168Zm0 0"/><path fill="#ded684" d="m247.973 322.535 18.543-14.203-6.418 19.559ZM272.598 291.965l-6.082 16.367-7.856-6.965ZM266.516 308.332l6.082-16.367 6.199 8.906ZM266.516 308.332l12.28-7.46 1.665 8.444Zm0 0"/><path fill="#ded684" d="m272.691 318.898-6.175-10.566 13.945.984ZM109.344 344.715 147.348 384H75.645ZM170.71 329.668l14.548 5.27-19.762 10.414ZM185.258 334.938l-14.547-5.27 10.906-6.086Zm0 0"/><path fill="#ded684" d="m109.344 344.715 26.972-5.18L147.348 384Zm0 0"/><path fill="#ded684" d="m136.316 339.535 29.18 5.817L147.348 384ZM136.316 339.535l-26.972 5.18 9.582-31.203Zm0 0"/><path fill="#dfd785" d="M66.355 37.871 0 91.27V0Zm0 0"/><path fill="#202215" d="m217.375 259.383-12.082 16.62-5.336-12.183Zm0 0"/><path fill="#963c3c" d="m217.375 259.383 18.434-23.242 8.398 15.847Zm0 0"/><path fill="#ded684" d="m224.023 270.445 25.325 1.782-22.309 14.527Zm0 0"/><path fill="#963c3c" d="m211.383 126.137 15.582 6.574-5.934 32.488Zm0 0"/><path fill="#ded685" d="m339.418 99.172-3.195-49.45L384 74.02Zm0 0"/><path fill="#dfd785" d="m336.223 49.723-30.254 26.976-8.168-29.402Zm0 0"/><path fill="#963c3c" d="m236.133 190.04-5.172-15.505 20.617 2.297Zm0 0"/><path fill="#963c3c" d="m230.96 174.535 12.86-22.887 7.758 25.184ZM226.965 132.71l-4.348-10.026 14.754.754Zm0 0"/><path fill="#ded684" d="m222.617 122.684 4.348 10.027-15.582-6.574Zm0 0"/><path fill="#963c3c" d="m222.617 122.684 11.137-10.696 3.617 11.45Zm0 0"/><path fill="#953b3b" d="m211.957 115.598 10.66 7.086-11.234 3.453Zm0 0"/><path fill="#ded684" d="M336.223 49.723 384 0v74.02Zm0 0"/><path fill="#963c3c" d="m216.21 192.613 8.962-10.765 10.96 8.191Zm0 0"/><path fill="#953b3b" d="m225.172 181.848-8.961 10.765-2.266-19.832Zm0 0"/><path fill="#ded684" d="m216.21 192.613 2.138 27.586-8.965-26.437Zm0 0"/><path fill="#202215" d="m294.578 283.39 8.633-26.753 13.855 20.726Zm0 0"/><path fill="#ded684" d="m334.082 267.879-.074-20.672 16.531 4.004ZM358.277 226.05l-17.437-12.495 14.328-19.133Zm0 0"/><path fill="#dfd685" d="m264.629 158.098 20.098-22.985 12.664 36.336Zm0 0"/><path fill="#dfd785" d="m284.727 135.113 44.148 12.094-31.484 24.242Zm0 0"/><path fill="#963c3c" d="m256.348 230.18-20.067-15.618 20.434-13.539Zm0 0"/><path fill="#963c3c" d="m236.281 214.563 20.067 15.617-20.54 5.96ZM279.242 207.14l-22.894 23.04.367-29.157ZM256.348 230.18l22.894-23.04-1.898 36.981Zm0 0"/><path fill="#202215" d="m320.383 304.34 20.047-15.25 1.656 19.015Zm0 0"/><path fill="#202215" d="m340.43 289.09-20.047 15.25-3.317-26.977ZM300.465 293.879l-5.887-10.488 22.488-6.028Zm0 0"/><path fill="#202215" d="m320.383 304.34-19.918-10.461 16.601-16.516Zm0 0"/><path fill="#202215" d="m300.465 293.879 19.918 10.46-23.125 2.911ZM294.578 283.39l-22.289-7.386 1.156-24.973Zm0 0"/><path fill="#ded684" d="m115.824 297.96 28.149 11.868-25.047 3.684ZM168.828 314.316l-24.855-4.488 14.004-12.316Zm0 0"/><path fill="#953b3b" d="m174.113 213.566 11.465-12.398-3.664 21.527Zm0 0"/><path fill="#953b3b" d="m174.113 213.566-8.793-10.632 20.258-1.766Zm0 0"/><path fill="#ded684" d="m179.39 240.352 14.563-5.043-10.219 9.183ZM193.953 235.309l-3.683 16.398-6.536-7.215Zm0 0"/><path fill="#8f3a39" d="m179.39 240.352-16.074-14.743 18.598-2.914Zm0 0"/><path fill="#953b3b" d="m163.316 225.61 10.797-12.044 7.801 9.13Zm0 0"/><path fill="#ded684" d="m384 221.164-25.723 4.887-3.109-31.63ZM354.922 278.996l-4.383-27.785 15.29 1.059Zm0 0"/><path fill="#dfd785" d="m350.54 251.21 7.737-25.16 7.551 26.22Zm0 0"/><path fill="#ded684" d="m265.645 127.055 19.082 8.058-25.368 9.633ZM303.324 384l43.637-35.52L384 384Zm0 0"/><path fill="#202215" d="m364.434 296.504 19.539-21.996.023 23.02Zm0 0"/><path fill="#ded684" d="m364.434 296.504-9.512-17.508 29.05-4.488Zm0 0"/><path fill="#ded684" d="m384 313.188-19.566-16.684 19.562 1.023ZM354.922 278.996l9.512 17.508-12.114 11.469Zm0 0"/><path fill="#ded685" d="m364.434 296.504 4.691 22.05-16.805-10.581Zm0 0"/><path fill="#ded684" d="M364.434 296.504 384 313.187l-14.875 5.368Zm0 0"/><path fill="#973e3d" d="m148.941 93.652 5.329-4.882.175 20.039Zm0 0"/><path fill="#ded684" d="m154.27 88.77-5.329 4.882-8.117-24.363Zm0 0"/><path fill="#ded684" d="m148.941 93.652-21.675 10.621 13.558-34.984ZM209.793 173.473l-15.965-17.223 17.555-30.113ZM213.945 172.781l-4.152.692 1.59-47.336Zm0 0"/><path fill="#ded684" d="m193.828 156.25 15.965 17.223-14.7 11.882Zm0 0"/><path fill="#202215" d="m180.852 180.613-20.137 1.969 20.972-21.7Zm0 0"/><path fill="#dfd785" d="M109.992 133.773 88.72 155.445l-8.543-14.785Zm0 0"/><path fill="#b6805c" d="m201.3 110.36 10.657 5.238-6.55 1.113Zm0 0"/><path fill="#ded684" d="m201.3 110.36 26.755-27.891 10.797 11.164Zm0 0"/><path fill="#953c3b" d="m211.957 115.598-.574 10.539-5.977-9.426Zm0 0"/><path fill="#ded684" d="m175.523 125.777-26.312-.23 27.351-24.059ZM185.21 124.285l-9.687 1.492 1.04-24.289Zm0 0"/><path fill="#ded684" d="m175.523 125.777-8.128 15.02-18.184-15.25Zm0 0"/><path fill="#202215" d="m63.496 292.54 18.848 1.487-2.969 14.852ZM72.988 279.977l9.356 14.05-18.848-1.488Zm0 0"/><path fill="#202215" d="m82.344 294.027-9.356-14.05 22.211.425ZM129.813 176.422l-24.801-15.633 18.578-4.14ZM105.012 160.79l24.8 15.632-39.363-.492Zm0 0"/><path fill="#dfd785" d="m105.012 160.79 4.98-27.017 13.598 22.875Zm0 0"/><path fill="#ded684" d="m105.012 160.79-16.293-5.345 21.273-21.672ZM18.535 278.766l15.582-13.473 3.969 12.379Zm0 0"/><path fill="#242617" d="m72.988 279.977-14.187-1.094 14.062-17.293Zm0 0"/><path fill="#272919" d="m58.8 278.883-24.683-13.59 38.746-3.703Zm0 0"/><path fill="#ded684" d="m13.941 263.969 12.29-37.957 7.886 39.281Zm0 0"/><path fill="#ded684" d="m26.23 226.012 17.297.453-9.41 38.828Zm0 0"/><path fill="#953b3b" d="m43.527 226.465 18.637 3.844-28.047 34.984Zm0 0"/><path fill="#953b3b" d="m46.05 207.887 16.114 22.422-18.637-3.844Zm0 0"/><path fill="#963c3c" d="m62.164 230.309-16.113-22.422 15.332-7.242Zm0 0"/><path fill="#953b3b" d="m62.164 230.309 10.7 31.28-38.747 3.704Zm0 0"/><path fill="#ded684" d="m67.629 189.195-7.016-15.172 21.305 5.641Zm0 0"/><path fill="#ded684" d="m88.328 185.348-20.7 3.847 14.29-9.53ZM71.645 194.535l-4.016-5.34 20.7-3.847ZM27.375 315.332 0 334.207l.004-37.2Zm0 0"/><path fill="#ded684" d="m23.922 295.996 3.453 19.336L.004 297.008Zm0 0"/><path fill="#ddd584" d="m58.8 278.883-11.054 17.226-9.66-18.437Zm0 0"/><path fill="#202215" d="m47.746 296.11-23.824-.114 14.164-18.324Zm0 0"/><path fill="#ded684" d="m47.746 296.11 11.055-17.227 4.695 13.656ZM78.566 334.11 57.02 314.796l22.355-5.918ZM100.105 312.195 78.566 334.11l.809-25.23ZM78.566 334.11l21.54-21.915 9.238 32.52ZM204.43 290.715l-13.61-13.805 14.473-.906ZM277.125 338.586l26.879 8.867-28.215 5.574ZM277.125 338.586l-1.336 14.441-10.527-9.867Zm0 0"/><path fill="#ded684" d="m265.805 334.457 11.32 4.129-11.863 4.574Zm0 0"/><path fill="#202215" d="m275.227 330.605 1.898 7.98-11.32-4.128Zm0 0"/><path fill="#202215" d="m302.734 339.543-25.609-.957-1.898-7.98Zm0 0"/><path fill="#ded684" d="m304.004 347.453-26.879-8.867 25.61.957Zm0 0"/><path fill="#202215" d="m337.766 327.3-17.383-22.96 21.703 3.765Zm0 0"/><path fill="#ded684" d="m287.504 320.172 15.23 19.371-27.507-8.938Zm0 0"/><path fill="#202215" d="m170.71 329.668-1.882-15.352 12.79 9.266Zm0 0"/><path fill="#202215" d="m181.617 323.582-12.789-9.266 18.629 1.454Zm0 0"/><path fill="#963c3c" d="m227.027 226.941 9.254-12.379-.472 21.579Zm0 0"/><path fill="#ded684" d="m204.508 253.723-10.555-18.414 14.555-3.989Zm0 0"/><path fill="#ded684" d="m193.953 235.309 10.555 18.414-14.238-2.016Zm0 0"/><path fill="#913b3a" d="m204.508 253.723 12.867 5.66-17.418 4.437Zm0 0"/><path fill="#953b3b" d="m190.27 251.707 14.238 2.016-4.551 10.097ZM224.023 270.445l-6.648-11.062 26.832-7.395Zm0 0"/><path fill="#953b3b" d="m217.375 259.383 6.648 11.062-18.73 5.559Zm0 0"/><path fill="#ded684" d="m204.43 290.715 19.593-20.27 3.016 16.309Zm0 0"/><path fill="#ded684" d="m224.023 270.445-19.593 20.27.863-14.711Zm0 0"/><path fill="#953b3b" d="m224.023 270.445 20.184-18.457 5.14 20.239ZM249.348 272.227l-5.141-20.239 27.434-.261Zm0 0"/><path fill="#ded684" d="m305.969 76.7-21.13-15.184 12.962-14.22Zm0 0"/><path fill="#ded684" d="m284.84 61.516-23.102-22.391 36.063 8.172Zm0 0"/><path fill="#ded684" d="m284.84 61.516-15.5 5.73-7.602-28.121Zm0 0"/><path fill="#99443f" d="m269.34 67.246 15.5-5.73-.934 16.058Zm0 0"/><path fill="#ded684" d="m284.84 61.516 21.129 15.183-22.063.875Zm0 0"/><path fill="#ded684" d="m288.098 88.223 17.87-11.524-12.316 29.79Zm0 0"/><path fill="#ded684" d="m305.969 76.7-17.871 11.523-4.192-10.649ZM260.246 97.457l27.852-9.234 5.554 18.265Zm0 0"/><path fill="#ded684" d="m288.098 88.223-27.852 9.234 23.66-19.883Zm0 0"/><path fill="#9c4a42" d="m260.246 97.457 9.094-30.21 14.566 10.327Zm0 0"/><path fill="#963c3c" d="m213.945 172.781 17.016 1.754-5.79 7.313ZM243.82 151.648l6.293-22.793 9.246 15.891ZM217.637 110.008l4.98 12.676-10.66-7.086Zm0 0"/><path fill="#ded684" d="m217.637 110.008-16.336.351 37.55-16.726ZM201.3 110.36l16.337-.352-5.68 5.59Zm0 0"/><path fill="#963c3c" d="m233.754 111.988-16.117-1.98 21.215-16.375Zm0 0"/><path fill="#963c3c" d="m222.617 122.684-4.98-12.676 16.117 1.98Zm0 0"/><path fill="#ded684" d="m299.96 0-2.16 47.297-36.062-8.172Zm0 0"/><path fill="#202215" d="m319.766 250.078 14.316 17.8-17.016 9.485ZM303.21 256.637l16.556-6.559-2.7 27.285Zm0 0"/><path fill="#202215" d="m319.766 250.078-16.555 6.559 1.59-19.715Zm0 0"/><path fill="#ded684" d="m319.766 250.078 14.242-2.871.074 20.672Zm0 0"/><path fill="#dfd785" d="m325.332 237.652-5.566 12.426-14.965-13.156Zm0 0"/><path fill="#ded684" d="m319.766 250.078 5.566-12.426 8.676 9.555ZM340.84 213.555l3.344 17.191-9.34-7.988Zm0 0"/><path fill="#ded684" d="m358.277 226.05-14.093 4.696-3.344-17.191ZM350.54 251.21l-6.356-20.464 14.093-4.695ZM355.168 194.422l-31.098 1.168 4.805-48.383ZM340.84 213.555l-16.77-17.965 31.098-1.168Zm0 0"/><path fill="#963c3c" d="m279.242 207.14 14.48-9.87-3.327 13.261ZM277.344 244.121l1.898-36.98 11.153 3.39Zm0 0"/><path fill="#953c3b" d="m273.445 251.031 3.899-6.91 17.234 39.27Zm0 0"/><path fill="#202215" d="m277.344 244.121 25.867 12.516-8.633 26.754Zm0 0"/><path fill="#202215" d="m303.21 256.637-25.866-12.516 27.457-7.2Zm0 0"/><path fill="#963c3c" d="m325.332 237.652-2.703-21.3 12.215 6.406Zm0 0"/><path fill="#ded684" d="m324.07 195.59-1.441 20.762-32.234-5.82ZM322.629 216.352l18.21-2.797-5.995 9.203Zm0 0"/><path fill="#dfd785" d="m322.629 216.352 1.441-20.762 16.77 17.965Zm0 0"/><path fill="#963c3c" d="m304.8 236.922-27.456 7.2 13.05-33.59ZM322.629 216.352l-17.828 20.57-14.406-26.39Zm0 0"/><path fill="#963c3c" d="m304.8 236.922 17.829-20.57 2.703 21.3Zm0 0"/><path fill="#953b3b" d="m157.21 256.035 13.677 18.496-15.18-2.324Zm0 0"/><path fill="#ded684" d="M143.973 309.828 136 287.957l21.977 9.555ZM115.824 297.96 136 287.958l7.973 21.871ZM178.637 298.219l12.183-21.309 13.61 13.805ZM157.977 297.512l20.66.707-9.809 16.097ZM187.457 315.77l-8.82-17.551 25.793-7.504Zm0 0"/><path fill="#ded684" d="m168.828 314.316 9.809-16.097 8.82 17.55ZM147.504 323.504l-11.188 16.031-17.39-26.023ZM136.316 339.535l11.188-16.031 17.992 21.848Zm0 0"/><path fill="#202215" d="m143.973 309.828 3.53 13.676-28.577-9.992Zm0 0"/><path fill="#202215" d="m168.828 314.316-21.324 9.188-3.531-13.676Zm0 0"/><path fill="#ded684" d="m100.484 308.594 15.34-10.633 3.102 15.55Zm0 0"/><path fill="#202215" d="m100.105 312.195.38-3.601 18.44 4.918ZM100.484 308.594l-21.109.285 2.969-14.852Zm0 0"/><path fill="#202215" d="m100.484 308.594-.379 3.601-20.73-3.316ZM100.484 308.594 95.2 280.402l20.625 17.559Zm0 0"/><path fill="#202215" d="m95.2 280.402 5.284 28.192-18.14-14.567Zm0 0"/><path fill="#953b3b" d="m174.113 213.566-10.797 12.043 2.004-22.675Zm0 0"/><path fill="#ded684" d="M316.992 352.707 303.324 384l.68-36.547Zm0 0"/><path fill="#ded684" d="m316.992 352.707 29.969-4.227L303.324 384Zm0 0"/><path fill="#ded684" d="m316.992 352.707.785-11.762 29.184 7.535Zm0 0"/><path fill="#ded684" d="m316.992 352.707-12.988-5.254 13.773-6.508ZM346.96 348.48l22.165-29.925L384 384Zm0 0"/><path fill="#dfd785" d="m149.21 125.547-2.98-17.164 8.215.426Zm0 0"/><path fill="#ded684" d="m146.23 108.383 2.711-14.73 5.504 15.156Zm0 0"/><path fill="#ded684" d="m148.941 93.652-2.71 14.73-18.965-4.109Zm0 0"/><path fill="#dfd785" d="m127.266 104.273 18.964 4.11 2.98 17.164Zm0 0"/><path fill="#202215" d="m145.715 158.3 15 24.282-30.903-6.16Zm0 0"/><path fill="#ded684" d="m167.395 140.797-21.68 17.504 3.496-32.754Zm0 0"/><path fill="#202215" d="m160.715 182.582-15-24.281 35.973 2.582Zm0 0"/><path fill="#ded684" d="m145.715 158.3 37.336-.132-1.363 2.715Zm0 0"/><path fill="#dfd785" d="m145.715 158.3 21.68-17.503 15.656 17.371Zm0 0"/><path fill="#202215" d="m176.66 186.574-15.945-3.992 20.137-1.969Zm0 0"/><path fill="#ded684" d="m176.66 186.574 4.192-5.96 14.242 4.741ZM185.578 201.168l-8.918-14.594 18.434-1.219Zm0 0"/><path fill="#953b3b" d="m165.32 202.934 11.34-16.36 8.918 14.594Zm0 0"/><path fill="#202215" d="m160.715 182.582 15.945 3.992-11.34 16.36Zm0 0"/><path fill="#cfb575" d="m268.441 113.723-8.195-16.266 33.406 9.031Zm0 0"/><path fill="#ded684" d="m250.113 128.855 11.801-10.75 3.73 8.95ZM265.645 127.055l-3.73-8.95 6.526-4.382Zm0 0"/><path fill="#98423e" d="m268.441 113.723-6.527 4.382-4.867-19.617Zm0 0"/><path fill="#ded684" d="m167.395 140.797 15.792-4.863-.136 22.234Zm0 0"/><path fill="#202215" d="m175.523 125.777 7.665 10.157-15.793 4.863Zm0 0"/><path fill="#dfd785" d="m183.05 158.168.137-22.234 10.641 20.316Zm0 0"/><path fill="#202215" d="m105.012 160.79-27.602-1.86 11.309-3.485Zm0 0"/><path fill="#ded684" d="m77.41 158.93 2.766-18.27 8.543 14.785Zm0 0"/><path fill="#202215" d="m77.41 158.93 13.04 17-8.532 3.734Zm0 0"/><path fill="#202215" d="m77.41 158.93 27.602 1.86-14.563 15.14Zm0 0"/><path fill="#dfd685" d="m80.176 140.66-2.766 18.27-33.969-16.23Zm0 0"/><path fill="#ded684" d="M60.613 174.023 77.41 158.93l4.508 20.734Zm0 0"/><path fill="#ded684" d="m77.41 158.93-16.797 15.093L43.441 142.7Zm0 0"/><path fill="#ddd584" d="m47.746 296.11-20.371 19.222-3.453-19.336Zm0 0"/><path fill="#ded684" d="m27.375 315.332 20.371-19.223 9.274 18.688Zm0 0"/><path fill="#202215" d="m311.36 323.887 9.023-19.547 17.383 22.96Zm0 0"/><path fill="#ddd584" d="m147.504 323.504 21.324-9.188 1.883 15.352Zm0 0"/><path fill="#ded684" d="m147.504 323.504 23.207 6.164-5.215 15.684Zm0 0"/><path fill="#963c3c" d="m223.172 235.371 3.855-8.43 8.782 9.2Zm0 0"/><path fill="#ded684" d="m223.172 235.371-18.664 18.352 4-22.403Zm0 0"/><path fill="#963c3c" d="m223.172 235.371 12.637.77-18.434 23.242Zm0 0"/><path fill="#ded684" d="m204.508 253.723 18.664-18.352-5.797 24.012Zm0 0"/><path fill="#963c3c" d="m216.21 192.613 20.071 21.95-17.933 5.636ZM244.207 251.988l12.14-21.808 15.294 21.547Zm0 0"/><path fill="#963c3c" d="m256.348 230.18-12.141 21.808-8.398-15.847ZM225.172 181.848l5.789-7.313 5.172 15.504Zm0 0"/><path fill="#953c3b" d="m221.031 165.2 9.93 9.335-17.016-1.754Zm0 0"/><path fill="#ded684" d="m221.031 165.2-7.086 7.581-2.562-46.644Zm0 0"/><path fill="#963d3c" d="m243.82 151.648 15.54-6.902 5.269 13.352Zm0 0"/><path fill="#ded684" d="m259.36 144.746 25.367-9.633-20.098 22.985ZM299.96 0l-38.222 39.125L206.805 0ZM334.008 247.207l10.176-16.46 6.355 20.464Zm0 0"/><path fill="#963c3c" d="m344.184 230.746-18.852 6.906 9.512-14.894Zm0 0"/><path fill="#ded684" d="m325.332 237.652 18.852-6.906-10.176 16.461Zm0 0"/><path fill="#963c3c" d="m279.188 189.46.054 17.68-22.527-6.117Zm0 0"/><path fill="#963c3c" d="m251.578 176.832 27.61 12.629-22.473 11.562Zm0 0"/><path fill="#98413e" d="m279.188 189.46 14.535 7.81-14.48 9.87Zm0 0"/><path fill="#963c3c" d="m279.188 189.46-27.61-12.628 13.05-18.734Zm0 0"/><path fill="#ded684" d="m279.188 189.46-14.56-31.362 32.763 13.351Zm0 0"/><path fill="#ded684" d="m293.723 197.27-14.536-7.81 18.204-18.01ZM293.723 197.27l30.347-1.68-33.675 14.941Zm0 0"/><path fill="#ded684" d="m328.875 147.207-4.805 48.383-26.68-24.14Zm0 0"/><path fill="#ded684" d="m324.07 195.59-30.347 1.68 3.668-25.82Zm0 0"/><path fill="#953b3b" d="m170.887 274.531 14.808-11.738 5.125 14.117Zm0 0"/><path fill="#963c3c" d="m190.82 276.91-5.125-14.117 14.262 1.027Zm0 0"/><path fill="#953b3b" d="m185.695 262.793 4.575-11.086 9.687 12.113Zm0 0"/><path fill="#ded684" d="m136 287.957 18.328-3.555 3.649 13.11Zm0 0"/><path fill="#202215" d="m154.328 284.402-17.855-9.777 19.234-2.418Zm0 0"/><path fill="#202215" d="m136.473 274.625 17.855 9.777L136 287.957Zm0 0"/><path fill="#ded684" d="m178.637 298.219-8.403-12.156 20.586-9.153Zm0 0"/><path fill="#202215" d="m170.234 286.063.653-11.532 19.933 2.38ZM170.887 274.531l-.653 11.531-14.527-13.855Zm0 0"/><path fill="#ded684" d="m170.234 286.063 8.403 12.156-20.66-.707Zm0 0"/><path fill="#202215" d="m155.707 272.207 14.527 13.856-15.906-1.66Zm0 0"/><path fill="#ded684" d="m170.234 286.063-12.257 11.449-3.649-13.11Zm0 0"/><path fill="#202215" d="m107.383 268.828-12.184 11.574.969-16.156Zm0 0"/><path fill="#953b3b" d="m134.844 251.57-27.461 17.258-1.867-10.738Zm0 0"/><path fill="#953b3b" d="m107.383 268.828-11.215-4.582 9.348-6.156ZM136.473 274.625l-29.09-5.797 27.46-17.258Zm0 0"/><path fill="#953b3b" d="m136.473 274.625-1.63-23.055 20.864 20.637Zm0 0"/><path fill="#953b3b" d="m134.844 251.57 22.367 4.465-1.504 16.172Zm0 0"/><path fill="#943b3b" d="m183.188 135.934-7.665-10.157 9.688-1.492Zm0 0"/><path fill="#963c3c" d="m183.188 135.934 2.023-11.649 20.195-7.574Zm0 0"/><path fill="#963c3c" d="m211.383 126.137-28.196 9.797 22.22-19.223Zm0 0"/><path fill="#ded684" d="m183.188 135.934 28.195-9.797-17.555 30.113ZM257.047 98.488l-18.195-4.855 9.328-23.406Zm0 0"/><path fill="#99433f" d="m268.441 113.723-11.394-15.235 3.2-1.031Zm0 0"/><path fill="#ded684" d="m257.047 98.488-8.867-28.261 12.066 27.23Zm0 0"/><path fill="#ded685" d="m269.34 67.246-21.16 2.98 13.558-31.101Zm0 0"/><path fill="#ded684" d="m260.246 97.457-12.066-27.23 21.16-2.98Zm0 0"/><path fill="#9b4841" d="m243.191 112.219 18.723 5.886-11.8 10.75Zm0 0"/><path fill="#ded684" d="m261.914 118.105-18.723-5.886 13.856-13.73ZM233.754 111.988l9.437.23-5.82 11.22Zm0 0"/><path fill="#ded684" d="m243.191 112.219 6.922 16.636-12.742-5.417ZM238.852 93.633l4.34 18.586-9.438-.23Zm0 0"/><path fill="#99443f" d="m257.047 98.488-13.856 13.73-4.34-18.585Zm0 0"/><path fill="#202215" d="m311.36 323.887-23.856-3.715 9.754-12.922ZM311.36 323.887l-8.626 15.656-15.23-19.371Zm0 0"/><path fill="#dfd785" d="m218.348 220.2 4.824 15.171-14.664-4.05Zm0 0"/><path fill="#ded684" d="m223.172 235.371-4.824-15.172 8.68 6.742Zm0 0"/><path fill="#963c3c" d="m218.348 220.2 17.933-5.637-9.254 12.378ZM221.031 165.2l22.79-13.552-12.86 22.887Zm0 0"/><path fill="#953b3b" d="m163.316 225.61 3.727 21.175-21.867-9.328Zm0 0"/><path fill="#202215" d="m179.39 240.352-12.347 6.433-3.727-21.176Zm0 0"/><path fill="#ded684" d="m190.27 251.707-14.184-1.234 7.648-5.98Zm0 0"/><path fill="#953b3b" d="m185.695 262.793-9.61-12.32 14.185 1.234Zm0 0"/><path fill="#ded684" d="m176.086 250.473 3.305-10.121 4.343 4.14Zm0 0"/><path fill="#953b3b" d="m176.086 250.473 9.61 12.32-14.81 11.738Zm0 0"/><path fill="#202215" d="M107.383 268.828 121.422 289l-26.223-8.598Zm0 0"/><path fill="#202215" d="m121.422 289-14.04-20.172 29.09 5.797ZM121.422 289l15.05-14.375-.472 13.332Zm0 0"/><path fill="#ded684" d="M121.422 289 136 287.957l-20.176 10.004Zm0 0"/><path fill="#202215" d="M95.2 280.402 121.421 289l-5.598 8.96Zm0 0"/><path fill="#953b3b" d="m157.21 256.035-22.366-4.465 10.332-14.113Zm0 0"/><path fill="#202215" d="m311.36 323.887-14.102-16.637 23.125-2.91Zm0 0"/><path fill="#953b3b" d="m167.043 246.785 3.844 27.746-13.676-18.496Zm0 0"/><path fill="#953b3b" d="m167.043 246.785 9.043 3.688-5.2 24.058ZM167.043 246.785l-9.832 9.25-12.035-18.578Zm0 0"/><path fill="#212215" d="m176.086 250.473-9.043-3.688 12.348-6.433Zm0 0"/></svg>