<svg xmlns="http://www.w3.org/2000/svg" width="512" height="512" viewBox="0 0 384 384"><path fill="#a9b2a2" d="M186.582 0h57.129l-25.36 42.465Zm0 0"/><path fill="#a9b2a1" d="m182.203 181.469 17.09 1.75-12.496 17.258ZM205.766 203.781l-8.016 18.438-10.953-21.742Zm0 0"/><path fill="#a9b2a1" d="m199.293 183.219 6.473 20.562-18.97-3.304ZM295.52 132.57l41.437-28.328-4.918 52.828ZM218.352 42.465 162.3 43.949 186.582 0Zm0 0"/><path fill="#c8653d" d="m109.238 225.586 24.39-16.867.325 34.12Zm0 0"/><path fill="#a9b2a2" d="m26.348 192.027 19.886-35.207 3.856 31.805Zm0 0"/><path fill="#a9b2a1" d="m27.145 226.684-.797-34.657 18.882 15.254Zm0 0"/><path fill="#a9b2a1" d="m26.348 192.027 23.742-3.402-4.86 18.656Zm0 0"/><path fill="#9e5540" d="m37.188 255.016 15.492 5.316-18.055 4.965Zm0 0"/><path fill="#a9b2a1" d="M52.691 46.25 53.481 0h59.792ZM215.043 175.512l-15.75 7.707 1.84-21.832Zm0 0"/><path fill="#b6ae6e" d="m279.184 301.613 11.195-18.265 15.137 7.89Zm0 0"/><path fill="#e3df89" d="m244.246 275.047 9.871-4.945 1.832 12.523Zm0 0"/><path fill="#492c3a" d="m207.559 278.703-15.676-2.027 3.105-7.906Zm0 0"/><path fill="#c4643d" d="m129.75 252.531-20.512-26.945 24.715 17.254Zm0 0"/><path fill="#a9b2a1" d="M113.273 0h73.309l-24.281 43.95Zm0 0"/><path fill="#a9b2a2" d="M105.598 79.828 113.273 0l49.028 43.95Zm0 0"/><path fill="#a9b2a1" d="M105.598 79.828 52.69 46.25 113.273 0Zm0 0"/><path fill="#a9b2a2" d="m218.352 42.465-18.368 32.152-37.683-30.668Zm0 0"/><path fill="#a9b2a1" d="m154.328 85.695 45.656-11.078 6.516 40.895ZM176.57 140.16l6.559 22.453-13.82-3.55ZM112.066 135.773l-31.96-3.511 25.492-52.434ZM139.781 128.852l-15.445 27.953-12.27-21.032Zm0 0"/><path fill="#63363e" d="m90.465 239.012 6.012 27.605-24.036-12.422Zm0 0"/><path fill="#45293e" d="m133.629 208.719-18.356-25.551 37.352 6.922Zm0 0"/><path fill="#2e222f" d="m124.336 156.805 17.914 22.773-27.023-20.465Zm0 0"/><path fill="#a9b2a1" d="m46.234 156.82 20.414 24.024-16.558 7.781Zm0 0"/><path fill="#2e222f" d="m94.684 173.945 1.855 11.97L82.49 182Zm0 0"/><path fill="#89483d" d="M109.238 225.586 96.54 185.914l37.09 22.805Zm0 0"/><path fill="#a9b2a2" d="m0 228.305 26.348-36.278.797 34.657Zm0 0"/><path fill="#a9b2a1" d="M26.348 192.027 0 228.305v-76.512Zm0 0"/><path fill="#a9b2a2" d="M26.348 192.027 0 151.793l46.234 5.027Zm0 0"/><path fill="#a9b2a1" d="m40.332 227.57-13.187-.886L45.23 207.28Zm0 0"/><path fill="#e1d681" d="m45.629 355.852 39.887-15.028.543 43.207Zm0 0"/><path fill="#bdaf6f" d="m63.516 314.75-17.887 41.102-8.469-43.497Zm0 0"/><path fill="#473c3b" d="m63.516 314.75-26.356-2.395 13.63-13.863Zm0 0"/><path fill="#534940" d="m68.563 300.07-5.047 14.68-12.727-16.258Zm0 0"/><path fill="#5b5044" d="m63.516 314.75 5.047-14.68 18.226 12.2Zm0 0"/><path fill="#7b6d50" d="m.027 311.398 45.602 44.454L.004 384.016Zm0 0"/><path fill="#c2ba74" d="m216.883 294.652 9.574 13.953-7.953 9.188Zm0 0"/><path fill="#efe889" d="m216.883 294.652 13.398.438-3.824 13.515Zm0 0"/><path fill="#2f232f" d="m218.504 317.793 15.566-.375.223 9.734Zm0 0"/><path fill="#b0a86c" d="m226.457 308.605 7.613 8.813-15.566.375Zm0 0"/><path fill="#322631" d="m234.07 317.418 10.278 2.672-10.055 7.062Zm0 0"/><path fill="#2f232f" d="m218.504 317.793-1.945 16.523-14.836-2.84Zm0 0"/><path fill="#eee889" d="m277.742 358.21-41.129 3.278 27.61-17.285Zm0 0"/><path fill="#eadc82" d="m316.95 340.762 15.007-9.09 8.29 9.265Zm0 0"/><path fill="#e5df85" d="m301.125 353.625.055-14.016 15.77 1.153Zm0 0"/><path fill="#ab9f67" d="m112.09 328.746 4.855-15.418 21.36 7.504Zm0 0"/><path fill="#d1c67a" d="m112.09 328.746-9.672-12.832 14.527-2.586Zm0 0"/><path fill="#c1b471" d="m102.418 315.914 9.672 12.832-22.961-1.422Zm0 0"/><path fill="#e9e186" d="m134.125 355.547 21.055-19.25 15.992 14.789Zm0 0"/><path fill="#e7de84" d="m179.082 384-7.91-32.914 26.02-1.043Zm0 0"/><path fill="#e6dd84" d="m134.125 355.547 37.047-4.461 7.91 32.914Zm0 0"/><path fill="#342932" d="m189.586 317.719 28.918.074-16.781 13.684Zm0 0"/><path fill="#e5da82" d="m182.652 333.445 14.54 16.598-26.02 1.043Zm0 0"/><path fill="#e8dd83" d="m197.191 350.043-14.539-16.598 19.07-1.968Zm0 0"/><path fill="#776d51" d="m182.652 333.445 6.934-15.726 12.137 13.758Zm0 0"/><path fill="#776d51" d="m189.586 317.719-6.934 15.726-7.086-5.683Zm0 0"/><path fill="#a9b2a1" d="m53.48 0-.789 46.25L0 0Zm0 0"/><path fill="#a9b2a2" d="M0 76.652 52.691 46.25l-6.863 59.648ZM210.02 237.867l-12.27-15.648 16.398 5.058Zm0 0"/><path fill="#a9b2a1" d="M336.957 104.242 384 71.122v59.507ZM321.48 43.594 384 71.12l-47.043 33.121Zm0 0"/><path fill="#cc673d" d="m236.266 173.473 7.425 13.039-13.894 2.699Zm0 0"/><path fill="#482a3e" d="m251.867 222.992 7.856-11.972 7.394 17.468Zm0 0"/><path fill="#cc673d" d="m259.723 211.02-7.856 11.972-11.5-22.972ZM243.691 186.512l-3.324 13.508-10.57-10.81Zm0 0"/><path fill="#cc673d" d="m259.723 211.02-19.356-11 3.324-13.508ZM240.367 200.02l-10.09-.06-.48-10.75ZM225.203 131.586l22.176-.656-9.746 16.164Zm0 0"/><path fill="#a9b2a1" d="m199.984 74.617 48.028 19.43-21.137 5.8Zm0 0"/><path fill="#45293f" d="m230.277 199.96-14.351-13.991 13.87 3.242Zm0 0"/><path fill="#a9b2a1" d="m215.926 185.969-10.16 17.812-6.473-20.562Zm0 0"/><path fill="#a9b2a2" d="m215.043 175.512.883 10.457-16.633-2.75Zm0 0"/><path fill="#a9b2a1" d="m197.75 222.219 21.105-5.106-4.707 10.164Zm0 0"/><path fill="#a9b2a1" d="m205.766 203.781 13.09 13.332-21.106 5.106Zm0 0"/><path fill="#cec77a" d="m290.379 283.348-7.399-26.996 22.536 34.886Zm0 0"/><path fill="#ece688" d="m339.77 290.121 13.12 8.86-10.695 8.902Zm0 0"/><path fill="#f0ea8a" d="m352.89 298.98-13.12-8.859 13.894-6.71Zm0 0"/><path fill="#4c413d" d="m330.629 265.727 9.14 24.394-23.546-18.516Zm0 0"/><path fill="#a9b2a1" d="m330.629 265.727 27.043-12.547-4.008 30.23Zm0 0"/><path fill="#eee889" d="m339.77 290.121-9.141-24.394 23.035 17.683Zm0 0"/><path fill="#4a2b3e" d="m259.723 211.02 24.507 5.292-17.113 12.176Zm0 0"/><path fill="#2f232f" d="m301.703 310.86-22.52-9.247 26.333-10.375Zm0 0"/><path fill="#2f232f" d="m279.184 301.613 22.52 9.246-18.727 3.696Zm0 0"/><path fill="#2e222f" d="m326.29 304.453-24.587 6.406 3.813-19.62ZM272.664 249.258l10.316 7.094-11.652-1.465Zm0 0"/><path fill="#f0ea8a" d="m255.95 282.625 16.91 8.586-19.43 8.23Zm0 0"/><path fill="#2f232f" d="m279.184 301.613-6.325-10.402 17.52-7.863Zm0 0"/><path fill="#302430" d="m272.86 291.21-1.075-14.933 18.594 7.07Zm0 0"/><path fill="#2e222f" d="m282.98 256.352-11.195 19.925-.457-21.39Zm0 0"/><path fill="#d1cf84" d="m271.785 276.277-17.668-6.175 17.211-15.215Zm0 0"/><path fill="#e2de89" d="m254.117 270.102 17.668 6.175-15.836 6.348Zm0 0"/><path fill="#f0e98a" d="m271.785 276.277 1.074 14.934-16.91-8.586Zm0 0"/><path fill="#e4db83" d="m175.133 287.102 16.75-10.426 4.39 22.133Zm0 0"/><path fill="#322631" d="m116.945 313.328 19.996-6.14 1.364 13.644Zm0 0"/><path fill="#753f3e" d="m109.238 225.586-2.687 30.453-16.086-17.027Zm0 0"/><path fill="#b55d3d" d="m129.75 252.531-23.2 3.508 2.688-30.453Zm0 0"/><path fill="#5b333e" d="m106.55 256.04-10.073 10.577-6.012-27.605Zm0 0"/><path fill="#a9b2a1" d="m197.75 222.219-15.14-2.442 4.187-19.3ZM197.75 222.219l-18.18 16.34 3.04-18.782Zm0 0"/><path fill="#46293e" d="m151.16 237.508-17.531-28.79 18.996-18.628Zm0 0"/><path fill="#46293e" d="m133.629 208.719 17.531 28.789-17.207 5.332Zm0 0"/><path fill="#a9b2a1" d="m384 238.035.008 41.38-26.336-26.235Zm0 0"/><path fill="#a9b2a1" d="M361.336 225.438 384 238.035l-26.328 15.145Zm0 0"/><path fill="#a9b2a2" d="M361.336 225.438 384 187.73v50.305ZM332.04 157.07l4.917-52.828L384 130.63Zm0 0"/><path fill="#abb29f" d="m295.52 132.57-10.801-64.12 52.238 35.792Zm0 0"/><path fill="#a9b2a1" d="m258.45 117.867 13.468-3.363-13.531 24.047Zm0 0"/><path fill="#f5b859" d="m271.918 114.504 12.8-46.055 10.802 64.121Zm0 0"/><path fill="#eee889" d="M384 342.895V384l-49.7-23.086Zm0 0"/><path fill="#eee688" d="m358.375 320.488 25.582-21.48.043 43.887Zm0 0"/><path fill="#a9b2a1" d="m384.008 279.414-30.344 3.996 4.008-30.23Zm0 0"/><path fill="#a9b2a2" d="m248.012 94.047-48.028-19.43 18.368-32.152Zm0 0"/><path fill="#a9b2a1" d="m162.3 43.95 37.684 30.667-45.656 11.078ZM105.598 79.828l34.183 49.024-27.715 6.921ZM201.133 161.387l-18.004 1.226-6.559-22.453Zm0 0"/><path fill="#a9b2a1" d="m213.855 139.496-12.722 21.89-24.563-21.226Zm0 0"/><path fill="#2e222f" d="m183.129 162.613-2.973 10.887-10.847-14.437Zm0 0"/><path fill="#45293e" d="m152.625 190.09-37.352-6.922 26.977-3.59Zm0 0"/><path fill="#a9b2a1" d="m45.828 105.898 34.277 26.364-33.87 24.558Zm0 0"/><path fill="#a9b1a1" d="m113.418 154.055 10.918 2.75-9.11 2.308Zm0 0"/><path fill="#a9b2a1" d="m124.336 156.805-10.918-2.75-1.352-18.282Zm0 0"/><path fill="#45293e" d="m248.012 94.047-15.32 17.508-5.817-11.707Zm0 0"/><path fill="#3c2f36" d="m72.441 254.195 15.301 24.512-22.152-13.629Zm0 0"/><path fill="#a09865" d="m87.742 278.707 8.735-12.09 2.359 15.344Zm0 0"/><path fill="#6d453f" d="m96.477 266.617-8.735 12.09-15.3-24.512Zm0 0"/><path fill="#46293e" d="m96.54 185.914 18.733-2.746 18.356 25.55Zm0 0"/><path fill="#2e222f" d="m94.684 173.945 20.59 9.223-18.735 2.746Zm0 0"/><path fill="#2e222f" d="m142.25 179.578-26.977 3.59-.046-24.055Zm0 0"/><path fill="#a9b2a2" d="m0 151.793 45.828-45.895.406 50.922Zm0 0"/><path fill="#a9b2a1" d="m0 76.652 45.828 29.246L0 151.793Zm0 0"/><path fill="#a9b2a1" d="m105.598 79.828-59.77 26.07 6.863-59.648ZM80.105 132.262l-34.277-26.364 59.77-26.07Zm0 0"/><path fill="#e8e186" d="m55.844 277.633 12.718 22.437-17.773-1.578Zm0 0"/><path fill="#eae387" d="m43.5 289.902 12.344-12.27-5.055 20.86Zm0 0"/><path fill="#808f85" d="m87.742 278.707-31.898-1.074 9.746-12.555Zm0 0"/><path fill="#ebe487" d="M55.844 277.633 43.5 289.903 32.406 277.77Zm0 0"/><path fill="#788986" d="m52.68 260.332 3.164 17.3-21.219-12.335Zm0 0"/><path fill="#788a86" d="m55.844 277.633-3.164-17.301 12.91 4.746Zm0 0"/><path fill="#a9b2a1" d="M22.484 255.781 9.277 278.738 0 228.305Zm0 0"/><path fill="#a9b2a1" d="m9.277 278.738-9.277-.5v-49.933Zm0 0"/><path fill="#d5cd7d" d="m9.277 278.738-9.297 9.223.02-9.723Zm0 0"/><path fill="#a9b2a1" d="m27.145 226.684-4.66 29.097L0 228.305ZM40.332 227.57l-.043 9.078-13.144-9.964Zm0 0"/><path fill="#44283e" d="m59.527 215.043-14.726 13.508.43-21.27Zm0 0"/><path fill="#a9b1a1" d="m44.8 228.55-4.468-.98 4.898-20.289Zm0 0"/><path fill="#a9b1a1" d="m44.8 228.55-4.51 8.098.042-9.078Zm0 0"/><path fill="#472a3e" d="m52.68 260.332 19.761-6.137-6.851 10.883Zm0 0"/><path fill="#47293e" d="m77.934 207.922 12.53 31.09-18.023 15.183Zm0 0"/><path fill="#a9b2a1" d="m50.09 188.625 14.293 11.07-19.153 7.586Zm0 0"/><path fill="#45293f" d="m64.383 199.695-4.856 15.348-14.297-7.762Zm0 0"/><path fill="#4b2c3e" d="m64.383 199.695 13.55 8.227-18.406 7.121Zm0 0"/><path fill="#a9b2a1" d="m66.648 180.844-2.265 18.851-14.293-11.07Zm0 0"/><path fill="#5c343e" d="m109.238 225.586-31.304-17.664 18.605-22.008Zm0 0"/><path fill="#46293e" d="m90.465 239.012-12.531-31.09 31.304 17.664Zm0 0"/><path fill="#bcb572" d="m16.52 294.668-7.243-15.93 23.13-.968Zm0 0"/><path fill="#d9d27f" d="m9.277 278.738 7.243 15.93-16.54-6.707Zm0 0"/><path fill="#d2c87a" d="m63.516 314.75 22 26.074-39.887 15.028Zm0 0"/><path fill="#d6cb7b" d="m.004 384.016 45.625-28.164 40.43 28.18Zm0 0"/><path fill="#efe889" d="m244.246 275.047-1.953 14.765-10.277-6.539Zm0 0"/><path fill="#eee789" d="m242.293 289.813-12.012 5.277 1.735-11.817Zm0 0"/><path fill="#eee889" d="m242.293 289.813 13.656-7.188-2.52 16.816Zm0 0"/><path fill="#f0e98a" d="m242.293 289.813 1.953-14.766 11.703 7.578Zm0 0"/><path fill="#ece587" d="m196.273 298.809 20.61-4.157 1.62 23.141Zm0 0"/><path fill="#d7cf7d" d="m189.586 317.719 6.687-18.91 22.23 18.984Zm0 0"/><path fill="#eee889" d="m230.281 295.09-7.226-9.68 8.96-2.137Zm0 0"/><path fill="#ede688" d="m216.883 294.652 6.172-9.242 7.226 9.68Zm0 0"/><path fill="#ede788" d="m230.281 295.09 9.125 8.281-12.949 5.234Zm0 0"/><path fill="#ece688" d="m239.406 303.371-5.336 14.047-7.613-8.813Zm0 0"/><path fill="#eae487" d="m234.07 317.418 5.336-14.047 4.942 16.719Zm0 0"/><path fill="#ebe587" d="m242.293 289.813-2.887 13.558-9.125-8.281Zm0 0"/><path fill="#ece588" d="m244.348 320.09-4.942-16.719 14.024-3.93Zm0 0"/><path fill="#eee889" d="m239.406 303.371 2.887-13.558 11.137 9.628Zm0 0"/><path fill="#ece688" d="m292.438 384-14.696-25.79 23.383-4.585Zm0 0"/><path fill="#ece588" d="M277.742 358.21 292.437 384l-55.824-22.512Zm0 0"/><path fill="#ece588" d="m179.082 384 57.531-22.512L292.438 384Zm0 0"/><path fill="#e8df84" d="m179.082 384 18.11-33.957 39.421 11.445Zm0 0"/><path fill="#e9e085" d="m197.191 350.043 19.368-15.727 20.054 27.172Zm0 0"/><path fill="#e1d881" d="m216.559 334.316-19.368 15.727 4.532-18.566Zm0 0"/><path fill="#2e222f" d="m230.55 332.668-12.046-14.875 15.789 9.36Zm0 0"/><path fill="#2f232f" d="m230.55 332.668-13.991 1.648 1.945-16.523Zm0 0"/><path fill="#dbd27f" d="m216.559 334.316 13.992-1.648 6.062 28.82Zm0 0"/><path fill="#efe989" d="m342.195 307.883 10.696-8.903 5.484 21.508Zm0 0"/><path fill="#2e222f" d="m312.324 326.379 19.633 5.293-15.008 9.09Zm0 0"/><path fill="#2e222f" d="m301.18 339.61 11.144-13.231 4.625 14.383Zm0 0"/><path fill="#2f242f" d="m251.723 335.621-7.375-15.531 17.402 6.367Zm0 0"/><path fill="#322630" d="m265.45 336.676-13.727-1.055 10.027-9.164Zm0 0"/><path fill="#322631" d="m244.348 320.09 7.375 15.531-17.43-8.469Zm0 0"/><path fill="#e0d982" d="m251.723 335.621 13.726 1.055-1.226 7.527Zm0 0"/><path fill="#312530" d="m251.723 335.621-21.172-2.953 3.742-5.516Zm0 0"/><path fill="#e1da83" d="m236.613 361.488 15.11-25.867 12.5 8.582Zm0 0"/><path fill="#e1d982" d="m230.55 332.668 21.173 2.953-15.11 25.867Zm0 0"/><path fill="#312530" d="m276.605 328.215-11.156 8.46-3.699-10.218Zm0 0"/><path fill="#e9e286" d="m271.234 319.563 5.371 8.652-14.855-1.758Zm0 0"/><path fill="#eae387" d="m276.605 328.215 6.372-13.66 12.539 15.12Zm0 0"/><path fill="#e7e085" d="m282.977 314.555-6.372 13.66-5.37-8.652Zm0 0"/><path fill="#eee789" d="m264.61 309.426 6.624 10.137-9.484 6.894Zm0 0"/><path fill="#eae387" d="m264.61 309.426-20.262 10.664 9.082-20.649Zm0 0"/><path fill="#eee788" d="m244.348 320.09 20.261-10.664-2.859 17.031Zm0 0"/><path fill="#f1eb8a" d="m272.86 291.21-8.25 18.216-11.18-9.985Zm0 0"/><path fill="#f0ea8a" d="m264.61 309.426 8.25-18.215 6.324 10.402ZM264.61 309.426l14.574-7.813 3.793 12.942Zm0 0"/><path fill="#efe789" d="m271.234 319.563-6.625-10.137 18.368 5.129Zm0 0"/><path fill="#dfd47f" d="m85.516 340.824 48.609 14.723-48.066 28.484Zm0 0"/><path fill="#e9df85" d="m86.059 384.031 48.066-28.484L179.082 384Zm0 0"/><path fill="#d7ca7b" d="m112.09 328.746-26.574 12.078 3.613-13.5Zm0 0"/><path fill="#e2d580" d="m85.516 340.824 26.574-12.078 22.035 26.8Zm0 0"/><path fill="#e6dc83" d="m155.18 336.297 15.96-4.371.032 19.16Zm0 0"/><path fill="#e7de84" d="m171.14 331.926 11.512 1.52-11.48 17.64Zm0 0"/><path fill="#7a7052" d="m182.652 333.445-11.511-1.52 4.425-4.163Zm0 0"/><path fill="#e4d982" d="m134.125 355.547-22.035-26.8 26.215-7.915Zm0 0"/><path fill="#a9b2a2" d="M52.691 46.25 0 76.652V0Zm0 0"/><path fill="#2e222f" d="m216.04 256.309-8.481 22.394-12.57-9.933Zm0 0"/><path fill="#eae489" d="m225.344 272.422 18.902 2.625-12.23 8.226Zm0 0"/><path fill="#85463e" d="m213.855 139.496 11.348-7.91 12.43 15.508Zm0 0"/><path fill="#a9b2a1" d="m225.203 131.586-11.348 7.91 5.485-13.621Zm0 0"/><path fill="#cc673d" d="m220.613 162.77-6.758-23.274 23.778 7.598Zm0 0"/><path fill="#a9b2a2" d="m201.133 161.387 12.722-21.89 6.758 23.273Zm0 0"/><path fill="#45293e" d="m215.043 175.512 5.57-12.742 4.239 14.648Zm0 0"/><path fill="#a9b2a1" d="m188.52 173.223-8.364.277 2.973-10.887ZM180.156 173.5l8.364-.277-6.317 8.246ZM188.52 173.223l10.773 9.996-17.09-1.75ZM199.293 183.219l-10.773-9.996 12.613-11.836ZM268.336 41.465l-20.324 52.582-29.66-51.582Zm0 0"/><path fill="#cc673c" d="m236.266 173.473 16.664-2.996-9.239 16.035Zm0 0"/><path fill="#44283e" d="m225.203 131.586-.43-6.277 22.606 5.62Zm0 0"/><path fill="#a9b2a1" d="m224.773 125.309.43 6.277-5.863-5.711Zm0 0"/><path fill="#382536" d="m224.773 125.309 7.918-13.754 14.688 19.375Zm0 0"/><path fill="#382535" d="m217.266 113.684 7.507 11.625-5.433.566Zm0 0"/><path fill="#a9b2a1" d="m384 0-62.52 43.594L300.316 0Zm0 0"/><path fill="#a9b2a1" d="m384 71.121-62.52-27.527L384 0ZM268.336 41.465l53.144 2.129-36.761 24.855ZM321.48 43.594l-53.144-2.13L300.316 0Zm0 0"/><path fill="#45293f" d="m215.926 185.969 8.926-8.551 4.945 11.793Zm0 0"/><path fill="#45293e" d="m224.852 177.418-8.926 8.55-.883-10.456Zm0 0"/><path fill="#cc673d" d="m224.852 177.418 11.414-3.945-6.47 15.738Zm0 0"/><path fill="#45293e" d="m219.059 204.703-3.133-18.734 14.351 13.992Zm0 0"/><path fill="#a9b2a2" d="m215.926 185.969 3.133 18.734-13.293-.922Zm0 0"/><path fill="#a9b2a1" d="m219.059 204.703-.204 12.41-13.09-13.332Zm0 0"/><path fill="#2e222f" d="m282.98 256.352 23.012-14.286 10.23 29.54Zm0 0"/><path fill="#a9b2a1" d="m330.629 265.727 4.414-18.59 22.629 6.043Zm0 0"/><path fill="#a9b2a2" d="m337.5 198.492-5.46-41.422L384 187.73Zm0 0"/><path fill="#a9b2a1" d="M361.336 225.438 337.5 198.492 384 187.73Zm0 0"/><path fill="#cc683d" d="m279.23 186.844-26.3-16.367 14.297-8.551Zm0 0"/><path fill="#a9b2a1" d="m295.52 132.57-16.29 54.274-12.003-24.918ZM295.52 132.57l36.52 24.5-52.81 29.774Zm0 0"/><path fill="#45293e" d="m267.117 228.488 5.547 20.77-26.785-13.938ZM251.867 222.992l15.25 5.496-21.238 6.832Zm0 0"/><path fill="#45293e" d="m272.664 249.258-5.547-20.77 22.508 6.899ZM267.117 228.488l17.113-12.175 5.395 19.074Zm0 0"/><path fill="#443939" d="m326.29 304.453 13.48-14.332 2.425 17.762Zm0 0"/><path fill="#312530" d="m339.77 290.121-13.48 14.332-10.067-32.848Zm0 0"/><path fill="#2e222f" d="m305.516 291.238-22.536-34.886 33.243 15.253ZM326.29 304.453l-20.774-13.215 10.707-19.633Zm0 0"/><path fill="#2f242f" d="m271.785 276.277 11.195-19.925 7.399 26.996Zm0 0"/><path fill="#e6cd7a" d="m115.602 298.637 21.34 8.55-19.997 6.141Zm0 0"/><path fill="#e8dd84" d="m148.84 310.95-11.899-3.762 22.13-7.829Zm0 0"/><path fill="#b6aa6d" d="m148.84 310.95 10.23-11.59 2.047 10.87Zm0 0"/><path fill="#362932" d="m96.477 266.617 11.605 1.715-9.246 13.629Zm0 0"/><path fill="#99503d" d="m106.55 256.04 1.532 12.292-11.605-1.715Zm0 0"/><path fill="#ca663d" d="m182.61 219.777-17.45-10.937 21.637-8.363Zm0 0"/><path fill="#a9b2a1" d="m194.742 241.598-15.172-3.04 18.18-16.34Zm0 0"/><path fill="#a9b2a1" d="m210.02 237.867-15.278 3.73 3.008-19.378ZM194.742 241.598l-8.637 11.164-6.535-14.203Zm0 0"/><path fill="#ca663d" d="m179.57 238.559-8.992-.543 12.031-18.239Zm0 0"/><path fill="#a9b2a2" d="M332.04 157.07 384 130.63v57.101Zm0 0"/><path fill="#a9b2a1" d="m271.918 114.504 23.602 18.066-37.133 5.98Zm0 0"/><path fill="#efe889" d="m292.438 384 41.863-23.086L384 384Zm0 0"/><path fill="#e3dd84" d="m383.957 299.008-30.293-15.598 30.344-3.996Zm0 0"/><path fill="#877e59" d="m353.664 283.41 30.293 15.598-31.066-.028Zm0 0"/><path fill="#eee889" d="m383.957 299.008-25.582 21.48-5.484-21.508Zm0 0"/><path fill="#b2b299" d="m154.328 85.695 14.262 46.516-28.809-3.36Zm0 0"/><path fill="#a9b2a1" d="m162.3 43.95-7.972 41.745-48.73-5.867ZM201.133 161.387l19.48 1.383-5.57 12.742Zm0 0"/><path fill="#aab2a0" d="m201.133 161.387-12.613 11.836-5.391-10.61Zm0 0"/><path fill="#2e222f" d="m161.965 173.352-9.34 16.738-10.375-10.512ZM180.156 173.5l-18.191-.148 7.344-14.29Zm0 0"/><path fill="#a9b2a1" d="m113.418 154.055-13.941 1.625 12.59-19.907Zm0 0"/><path fill="#aab2a0" d="m211.938 109.25 5.328 4.434-7.13 2.511Zm0 0"/><path fill="#a9b2a1" d="m199.984 74.617 11.953 34.633-5.437 6.262Zm0 0"/><path fill="#a9b2a1" d="m211.938 109.25-1.801 6.945-3.637-.683ZM211.938 109.25l-11.954-34.633 26.891 25.23Zm0 0"/><path fill="#4a2b3e" d="m217.266 113.684-3.391 11.953-3.738-9.442Zm0 0"/><path fill="#a9b2a1" d="m213.855 139.496.02-13.86 5.465.239Zm0 0"/><path fill="#41283c" d="m213.875 125.637 3.39-11.953 2.075 12.191Zm0 0"/><path fill="#f3b85a" d="m206.5 115.512-37.91 16.699-14.262-46.516Zm0 0"/><path fill="#2e222f" d="m86.79 312.27.952-33.563 11.094 3.254Zm0 0"/><path fill="#2e222f" d="m68.563 300.07 19.18-21.363-.954 33.563ZM55.844 277.633l31.898 1.074-19.18 21.363ZM115.273 183.168l-14.812-22.43 14.766-1.625ZM100.46 160.738l14.813 22.43-20.59-9.223Zm0 0"/><path fill="#a9b1a1" d="m100.46 160.738 12.958-6.683 1.809 5.058Zm0 0"/><path fill="#a9b2a1" d="m100.46 160.738-.983-5.058 13.941-1.625ZM32.406 277.77l-23.129.968 13.207-22.957ZM32.406 277.77l-9.922-21.989 12.141 9.516ZM55.844 277.633l-23.438.137 2.219-12.473Zm0 0"/><path fill="#a9b2a1" d="m40.29 236.648-17.806 19.133 4.66-29.097ZM22.484 255.781l14.703-.765-2.562 10.28Zm0 0"/><path fill="#a9b2a1" d="m22.484 255.781 17.805-19.133-3.102 18.368Zm0 0"/><path fill="#4a2b3e" d="m40.29 236.648 14.573 2.782-17.675 15.586Zm0 0"/><path fill="#45293e" d="m44.8 228.55 10.063 10.88-14.574-2.782Zm0 0"/><path fill="#4c2c3e" d="M72.441 254.195 54.863 239.43l23.07-31.508Zm0 0"/><path fill="#482a3e" d="m77.934 207.922-23.07 31.508 4.663-24.387ZM54.863 239.43l-10.062-10.88 14.726-13.507Zm0 0"/><path fill="#45293e" d="m54.863 239.43-2.183 20.902-15.492-5.316ZM54.863 239.43l17.578 14.765-19.761 6.137Zm0 0"/><path fill="#a9b2a1" d="m78.734 190.527-14.351 9.168 2.265-18.851Zm0 0"/><path fill="#492a3e" d="m64.383 199.695 14.351-9.168-.8 17.395Zm0 0"/><path fill="#a9b2a1" d="m78.734 190.527-12.086-9.683L82.488 182Zm0 0"/><path fill="#a8b1a1" d="m96.54 185.914-17.806 4.613L82.488 182Zm0 0"/><path fill="#46293e" d="m77.934 207.922.8-17.395 17.805-4.613Zm0 0"/><path fill="#554a41" d="M16.52 294.668.027 311.398l-.047-23.437Zm0 0"/><path fill="#aca46a" d="m43.5 289.902-6.805 7.364-4.289-19.496Zm0 0"/><path fill="#b0a86c" d="m36.695 297.266-20.175-2.598 15.886-16.898Zm0 0"/><path fill="#bdb572" d="m36.695 297.266 6.805-7.364 7.29 8.59Zm0 0"/><path fill="#463b3a" d="m37.16 312.355-.465-15.09 14.094 1.227Zm0 0"/><path fill="#d1c77a" d="m89.129 327.324-3.613 13.5-22-26.074Zm0 0"/><path fill="#a59c66" d="M89.129 327.324 63.516 314.75l23.273-2.48Zm0 0"/><path fill="#b3aa6d" d="m102.418 315.914-13.29 11.41-2.339-15.054Zm0 0"/><path fill="#e8df85" d="m191.883 276.676 15.676 2.027-11.286 20.106Zm0 0"/><path fill="#938a5e" d="m196.273 298.809 11.286-20.106 9.324 15.95Zm0 0"/><path fill="#ede588" d="m207.559 278.703 15.496 6.707-6.172 9.242Zm0 0"/><path fill="#ede788" d="m281.71 338.633 19.415 14.992-23.383 4.586Zm0 0"/><path fill="#e9e386" d="m281.71 338.633-3.968 19.578-13.52-14.008Zm0 0"/><path fill="#d6cf7e" d="m265.45 336.676 16.26 1.957-17.487 5.57Zm0 0"/><path fill="#312530" d="m281.71 338.633-5.105-10.418 18.91 1.46Zm0 0"/><path fill="#2f232f" d="m276.605 328.215 5.106 10.418-16.262-1.957Zm0 0"/><path fill="#2e222f" d="m301.18 339.61-19.47-.977 13.806-8.957Zm0 0"/><path fill="#dad480" d="m301.125 353.625-19.414-14.992 19.469.976Zm0 0"/><path fill="#2e222f" d="m295.516 329.676 16.808-3.297-11.144 13.23Zm0 0"/><path fill="#cec679" d="m171.14 331.926-3.214-18.383 7.64 14.219Zm0 0"/><path fill="#302430" d="m175.566 327.762-7.64-14.219 21.66 4.176Zm0 0"/><path fill="#9f523d" d="m227.535 231.54 24.332-8.548-5.988 12.328Zm0 0"/><path fill="#a6563d" d="m235.063 252.598-7.528-21.059 18.344 3.781Zm0 0"/><path fill="#a9b2a1" d="m202.043 253.652-7.3-12.054 15.277-3.73ZM194.742 241.598l7.301 12.054-15.938-.89Zm0 0"/><path fill="#2e222f" d="m202.043 253.652 13.996 2.657-21.05 12.46ZM186.105 252.762l15.938.89-7.055 15.118Zm0 0"/><path fill="#914c3d" d="m225.344 272.422-9.305-16.113 19.024-3.711Zm0 0"/><path fill="#a6563d" d="m216.04 256.309 9.304 16.113-17.785 6.281Zm0 0"/><path fill="#efe989" d="m223.055 285.41 2.289-12.988 6.672 10.851Zm0 0"/><path fill="#ece588" d="m225.344 272.422-2.29 12.988-15.495-6.707Zm0 0"/><path fill="#47293e" d="m244.246 275.047-9.184-22.45 19.055 17.505Zm0 0"/><path fill="#45293e" d="m225.344 272.422 9.719-19.824 9.183 22.449ZM254.117 270.102l-19.054-17.504 36.265 2.289Zm0 0"/><path fill="#cc673d" d="m220.613 162.77 15.653 10.703-11.414 3.945Zm0 0"/><path fill="#a9b2a1" d="m217.266 113.684-5.328-4.434 14.937-9.402Zm0 0"/><path fill="#302230" d="m232.691 111.555-15.425 2.129 9.609-13.836Zm0 0"/><path fill="#2e222f" d="m224.773 125.309-7.507-11.625 15.425-2.13Zm0 0"/><path fill="#aab2a0" d="M268.336 41.465 243.71 0h56.605Zm0 0"/><path fill="#2e222f" d="m319.016 248.559 11.613 17.168-14.406 5.878Zm0 0"/><path fill="#2e222f" d="m305.992 242.066 13.024 6.493-2.793 23.046Zm0 0"/><path fill="#a9b1a1" d="m319.016 248.559-13.024-6.493 6.403-7.425Zm0 0"/><path fill="#a9b2a1" d="m319.016 248.559 16.027-1.422-4.414 18.59Zm0 0"/><path fill="#a9b1a1" d="m327.887 237.23-8.871 11.329-6.621-13.918Zm0 0"/><path fill="#a9b2a1" d="m319.016 248.559 8.87-11.329 7.157 9.907Zm0 0"/><path fill="#a9b2a2" d="m337.5 198.492 6.969 33.399-16.867-13.922Zm0 0"/><path fill="#a9b2a2" d="m361.336 225.438-16.867 6.453-6.969-33.399Zm0 0"/><path fill="#cc683d" d="m252.93 170.477 6.793 40.543-16.032-24.508Zm0 0"/><path fill="#a9b2a1" d="m293.34 197.34 11.023 14.777-20.133 4.196Zm0 0"/><path fill="#cb673d" d="m312.395 234.64-12.2-13.952 4.168-8.57Zm0 0"/><path fill="#63373e" d="m300.195 220.688 12.2 13.953-22.77.746Zm0 0"/><path fill="#492b3e" d="m284.23 216.313 15.965 4.375-10.57 14.699Zm0 0"/><path fill="#cc673d" d="m304.363 212.117-4.168 8.57-15.965-4.375Zm0 0"/><path fill="#2f222f" d="m272.664 249.258 16.961-13.871-6.645 20.965Zm0 0"/><path fill="#2e222f" d="m289.625 235.387 16.367 6.68-23.012 14.285Zm0 0"/><path fill="#2f2230" d="m305.992 242.066-16.367-6.68 22.77-.745Zm0 0"/><path fill="#a9b2a2" d="m337.5 198.492-9.898 19.477-23.239-5.852Zm0 0"/><path fill="#cc673d" d="m327.602 217.969.285 19.261-15.492-2.59Zm0 0"/><path fill="#cc683d" d="m327.602 217.969-15.207 16.672-8.032-22.524Zm0 0"/><path fill="#efe889" d="m136.941 307.188-4.937-18.614 27.066 10.785Zm0 0"/><path fill="#efe989" d="m115.602 298.637 16.402-10.063 4.937 18.613Zm0 0"/><path fill="#ede688" d="m167.129 301.734 8.004-14.632 21.14 11.707Zm0 0"/><path fill="#d7ce7d" d="m159.07 299.36 8.059 2.374-6.012 8.496Zm0 0"/><path fill="#e7dc83" d="m189.586 317.719-22.457-15.985 29.144-2.925Zm0 0"/><path fill="#dbd27e" d="m167.926 313.543-.797-11.809 22.457 15.985Zm0 0"/><path fill="#5c5044" d="m167.129 301.734.797 11.809-6.809-3.313Zm0 0"/><path fill="#e3da82" d="m134.125 355.547 4.18-34.715 16.875 15.465Zm0 0"/><path fill="#302430" d="m148.84 310.95-10.535 9.882-1.364-13.644Zm0 0"/><path fill="#dfca79" d="m104.219 307.426 11.383-8.79 1.343 14.692Zm0 0"/><path fill="#382b33" d="m102.418 315.914 1.8-8.488 12.727 5.902Zm0 0"/><path fill="#2e222f" d="m104.219 307.426-17.43 4.844 12.047-30.31Zm0 0"/><path fill="#4b403c" d="m104.219 307.426-1.801 8.488-15.629-3.644Zm0 0"/><path fill="#2e222f" d="m104.219 307.426-5.383-25.465 16.766 16.676Zm0 0"/><path fill="#512f3e" d="m127.336 269.3 25.719-6.562 8.234 20.91Zm0 0"/><path fill="#492b3e" d="m153.055 262.738-23.305-10.207 4.203-9.691Zm0 0"/><path fill="#4a2b3e" d="m151.16 237.508 1.895 25.23-19.102-19.898Zm0 0"/><path fill="#67383e" d="m165.16 208.84-14 28.668 1.465-47.418Zm0 0"/><path fill="#cc673d" d="m170.578 238.016-5.418-29.176 17.45 10.937Zm0 0"/><path fill="#efe889" d="M334.3 360.914 292.438 384l8.688-30.375Zm0 0"/><path fill="#eee788" d="m334.3 360.914-17.35-20.152 23.296.175Zm0 0"/><path fill="#eee789" d="m334.3 360.914-33.175-7.289 15.824-12.863Zm0 0"/><path fill="#efe587" d="m340.246 340.938 18.129-20.45L384 342.895Zm0 0"/><path fill="#f0e989" d="M340.246 340.938 384 342.895l-49.7 18.02Zm0 0"/><path fill="#efe788" d="m331.957 331.672 5.023-3.172 3.266 12.438Zm0 0"/><path fill="#f0e989" d="M340.246 340.938 336.98 328.5l21.395-8.012Zm0 0"/><path fill="#ede487" d="m336.98 328.5 5.215-20.617 16.18 12.605Zm0 0"/><path fill="#322631" d="M342.195 307.883 336.98 328.5l-5.023 3.172Zm0 0"/><path fill="#a9b2a1" d="m105.598 79.828 48.73 5.867-14.547 43.157Zm0 0"/><path fill="#2e222f" d="m124.336 156.805 26.894 2.34-8.98 20.433Zm0 0"/><path fill="#2e222f" d="m151.23 159.145 10.735 14.207-19.715 6.226Zm0 0"/><path fill="#a9b2a1" d="m151.23 159.145-26.894-2.34 15.445-27.953ZM168.59 132.21l-17.36 26.935-11.449-30.293Zm0 0"/><path fill="#2e222f" d="m161.965 173.352-10.735-14.207 18.079-.083Zm0 0"/><path fill="#a9b2a1" d="m151.23 159.145 25.34-18.985-7.261 18.903Zm0 0"/><path fill="#a9b2a1" d="m151.23 159.145 17.36-26.934 7.98 7.95Zm0 0"/><path fill="#2e222f" d="m171.402 184.23-9.437-10.878 18.191.148Zm0 0"/><path fill="#2e222f" d="m161.965 173.352 9.437 10.878-18.777 5.86Zm0 0"/><path fill="#2e222f" d="m171.402 184.23 8.754-10.73 2.047 7.969Zm0 0"/><path fill="#a9b2a1" d="m186.797 200.477-15.395-16.247 10.801-2.761Zm0 0"/><path fill="#cc673d" d="m165.16 208.84 6.242-24.61 15.395 16.247Zm0 0"/><path fill="#c2633d" d="m152.625 190.09 18.777-5.86-6.242 24.61Zm0 0"/><path fill="#a9b2a1" d="m99.477 155.68-19.372-23.418 31.961 3.511Zm0 0"/><path fill="#46293e" d="m213.875 125.637-8.02-.075 4.282-9.367Zm0 0"/><path fill="#a9b2a1" d="m205.855 125.563 8 13.933-37.285.664Zm0 0"/><path fill="#a9b2a1" d="m205.855 125.563 8.02.074-.02 13.86Zm0 0"/><path fill="#fab854" d="m271.918 114.504-13.469 3.363-10.437-23.82Zm0 0"/><path fill="#2e222f" d="m168.59 132.21 37.91-16.698-29.93 24.648ZM100.46 160.738l-23.343-1.05 22.36-4.008Zm0 0"/><path fill="#a9b2a1" d="m77.117 159.688 2.988-27.426 19.372 23.418Zm0 0"/><path fill="#2e222f" d="m77.117 159.688 17.567 14.257L82.488 182ZM77.117 159.688l23.344 1.05-5.777 13.207Zm0 0"/><path fill="#a9b1a1" d="m80.105 132.262-2.988 27.426-30.883-2.868Zm0 0"/><path fill="#a9b2a1" d="m66.648 180.844 10.47-21.156L82.487 182Zm0 0"/><path fill="#a9b2a1" d="m77.117 159.688-10.469 21.156-20.414-24.024Zm0 0"/><path fill="#423738" d="m36.695 297.266.465 15.09-20.64-17.688Zm0 0"/><path fill="#453a3a" d="m37.16 312.355-37.133-.957 16.493-16.73Zm0 0"/><path fill="#ab9e68" d="m.027 311.398 37.133.957 8.469 43.497Zm0 0"/><path fill="#2e222f" d="m312.324 326.379 13.965-21.926 5.668 27.219Zm0 0"/><path fill="#3e3336" d="m326.29 304.453 15.905 3.43-10.238 23.789Zm0 0"/><path fill="#2e222f" d="m167.926 313.543-10.707 11.793 3.898-15.106Zm0 0"/><path fill="#372b33" d="m157.219 325.336 10.707-11.793 3.215 18.383Zm0 0"/><path fill="#2e222f" d="m157.219 325.336-8.38-14.387 12.278-.719Zm0 0"/><path fill="#30242f" d="m157.219 325.336-18.914-4.504 10.535-9.883Zm0 0"/><path fill="#dad27f" d="m157.219 325.336 13.922 6.59-15.961 4.37Zm0 0"/><path fill="#e7e085" d="m138.305 320.832 18.914 4.504-2.04 10.96Zm0 0"/><path fill="#cb673d" d="m218.773 247.137 8.762-15.598 7.528 21.059Zm0 0"/><path fill="#a9b2a1" d="m218.773 247.137-16.73 6.515 7.977-15.785Zm0 0"/><path fill="#c6643d" d="m218.773 247.137 16.29 5.46-19.024 3.712Zm0 0"/><path fill="#a8b1a1" d="m202.043 253.652 16.73-6.515-2.734 9.172Zm0 0"/><path fill="#cc673d" d="m233.55 212.223-3.273-12.262 10.09.059Zm0 0"/><path fill="#45293e" d="m233.55 212.223-14.491-7.52 11.218-4.742Zm0 0"/><path fill="#cc673d" d="m251.867 222.992-18.316-10.77 6.816-12.202ZM227.535 231.54l6.016-19.317 18.316 10.77Zm0 0"/><path fill="#45293f" d="m219.059 204.703 14.492 7.52-14.696 4.89Zm0 0"/><path fill="#45293e" d="m235.063 252.598 37.601-3.34-1.336 5.629Zm0 0"/><path fill="#45293e" d="m272.664 249.258-37.601 3.34 10.816-17.278Zm0 0"/><path fill="#a9b2a1" d="m321.48 43.594 15.477 60.648-52.238-35.793Zm0 0"/><path fill="#cc683d" d="m236.266 173.473-15.653-10.703 17.02-15.676Zm0 0"/><path fill="#cc673d" d="m252.93 170.477 5.457-31.926 8.84 23.375Zm0 0"/><path fill="#a9b2a1" d="m258.387 138.55 37.133-5.98-28.293 29.356ZM243.71 0l24.626 41.465-49.984 1ZM344.469 231.89l16.867-6.452-3.664 27.742ZM335.043 247.137l9.426-15.246 13.203 21.289Zm0 0"/><path fill="#cc683d" d="m344.469 231.89-16.582 5.34-.285-19.261Zm0 0"/><path fill="#a9b2a1" d="m327.887 237.23 16.582-5.34-9.426 15.247Zm0 0"/><path fill="#c4633d" d="m272.918 197.066 11.312 19.246-24.507-5.292Zm0 0"/><path fill="#cc673d" d="m252.93 170.477 19.988 26.59-13.195 13.953ZM272.918 197.066l20.422.274-9.11 18.972Zm0 0"/><path fill="#cc683d" d="m272.918 197.066-19.988-26.59 26.3 16.368Zm0 0"/><path fill="#cc673d" d="m293.34 197.34-20.422-.274 6.312-10.222Zm0 0"/><path fill="#a9b2a1" d="m293.34 197.34 44.16 1.152-33.137 13.625Zm0 0"/><path fill="#a9b2a2" d="m337.5 198.492-44.16-1.152 38.7-40.27Zm0 0"/><path fill="#a9b2a1" d="m332.04 157.07-38.7 40.27-14.11-10.496Zm0 0"/><path fill="#2e222f" d="m175.133 287.102-2.707-15.7 19.457 5.274Zm0 0"/><path fill="#4c2d3c" d="m191.883 276.676-19.457-5.274 22.562-2.632Zm0 0"/><path fill="#2e222f" d="m172.426 271.402 13.68-18.64 8.882 16.008Zm0 0"/><path fill="#ebe587" d="m132.004 288.574 29.285-4.926-2.219 15.711Zm0 0"/><path fill="#2f232f" d="m127.336 269.3 33.953 14.348-29.285 4.926Zm0 0"/><path fill="#eae387" d="m167.129 301.734-5.84-18.086 13.844 3.454Zm0 0"/><path fill="#2e222f" d="m161.29 283.648 11.136-12.246 2.707 15.7Zm0 0"/><path fill="#4e2d3e" d="m172.426 271.402-11.137 12.246-8.234-20.91Zm0 0"/><path fill="#2e222f" d="m161.29 283.648 5.839 18.086-8.059-2.375Zm0 0"/><path fill="#ac593d" d="m127.336 269.3-19.254-.968-1.531-12.293Zm0 0"/><path fill="#ae5a3d" d="m129.75 252.531-2.414 16.77-20.785-13.262Zm0 0"/><path fill="#4a2c3a" d="m129.75 252.531 23.305 10.207-25.72 6.563Zm0 0"/><path fill="#cc673d" d="m162.691 237.055 2.47-28.215 5.417 29.176Zm0 0"/><path fill="#a1533d" d="m162.691 237.055 1.051 10.101-12.582-9.648Zm0 0"/><path fill="#9d523d" d="m165.16 208.84-2.469 28.215-11.53.453Zm0 0"/><path fill="#4c2c3e" d="m205.855 125.563.645-10.051 3.637.683Zm0 0"/><path fill="#492e42" d="m206.5 115.512-.645 10.05-29.285 14.598Zm0 0"/><path fill="#abb29f" d="m284.719 68.45-12.801 46.054-23.906-20.457Zm0 0"/><path fill="#a9b2a1" d="m268.336 41.465 16.383 26.984-36.707 25.598Zm0 0"/><path fill="#f8b856" d="m232.691 111.555 25.758 6.312-11.07 13.063Zm0 0"/><path fill="#a9b1a1" d="m258.45 117.867-.063 20.684-11.008-7.621Zm0 0"/><path fill="#f7b856" d="m248.012 94.047 10.437 23.82-25.758-6.312Zm0 0"/><path fill="#2e222f" d="m295.516 329.676 6.187-18.817 10.621 15.52Zm0 0"/><path fill="#2e222f" d="m301.703 310.86 24.586-6.407-13.965 21.926Zm0 0"/><path fill="#2f232f" d="m301.703 310.86-6.187 18.816-12.54-15.121Zm0 0"/><path fill="#a9b2a1" d="m227.535 231.54-8.762 15.597-8.753-9.27Zm0 0"/><path fill="#45293f" d="m233.55 212.223-6.015 19.316-8.68-14.426Zm0 0"/><path fill="#a9b2a1" d="m227.535 231.54-17.515 6.327 4.128-10.59ZM218.855 217.113l8.68 14.426-13.387-4.262Zm0 0"/><path fill="#cc683d" d="m258.387 138.55-5.457 31.927-5.551-39.547Zm0 0"/><path fill="#cb673d" d="m186.105 252.762-15.527-14.746 8.992.543Zm0 0"/><path fill="#685e4a" d="m108.082 268.332 13.461 21.14-22.707-7.511Zm0 0"/><path fill="#332430" d="m121.543 289.473-13.461-21.141 19.254.969Zm0 0"/><path fill="#2f232f" d="m121.543 289.473 5.793-20.172 4.668 19.273Zm0 0"/><path fill="#ece587" d="m121.543 289.473 10.46-.899-16.401 10.063Zm0 0"/><path fill="#2e222f" d="m98.836 281.96 22.707 7.513-5.941 9.164Zm0 0"/><path fill="#8f4b3d" d="m153.055 262.738-1.895-25.23 12.582 9.648Zm0 0"/><path fill="#cc673d" d="m252.93 170.477-15.297-23.383 9.746-16.164Zm0 0"/><path fill="#cc673d" d="m237.633 147.094 15.297 23.383-16.664 2.996Zm0 0"/><path fill="#2e222f" d="m163.742 247.156 8.684 24.246-19.371-8.664Zm0 0"/><path fill="#2e222f" d="m163.742 247.156 22.363 5.606-13.68 18.64Zm0 0"/><path fill="#cc673d" d="m163.742 247.156-1.05-10.101 7.886.96ZM186.105 252.762l-22.363-5.606 6.836-9.14Zm0 0"/></svg>