<svg xmlns="http://www.w3.org/2000/svg" width="512" height="512" viewBox="0 0 384 384"><path fill="#cbb99b" d="M28.18 79.277-.012 0l50.77 49.809Zm0 0"/><path fill="#b0b098" d="M-.012 0 51.73-.004l-.972 49.813Zm0 0"/><path fill="#fefbfa" d="m210.164 191.605-9.508 13.938-7.691-17.695Zm0 0"/><path fill="#ebdfc5" d="m49.578 154.219-28.48 39.84L.012 119.348Zm0 0"/><path fill="#fcf1df" d="m21.098 194.059 28.48-39.84 2.23 35.82Zm0 0"/><path fill="#f9f1e2" d="m21.313 234.559-.215-40.5 25.175 15.968Zm0 0"/><path fill="#fbf3e4" d="m21.098 194.059 30.71-4.02-5.535 19.988Zm0 0"/><path fill="#352a55" d="m38.664 251.668 8.805 6.68-14.946 3.511Zm0 0"/><path fill="#d4b77d" d="M34.527 339.707 0 384l.012-74.883Zm0 0"/><path fill="#f1cd82" d="m166.563 384.004-75.649-.012 48.797-31.742Zm0 0"/><path fill="#372c55" d="m220.762 317.914 10.691 12.805-17.625 1.742Zm0 0"/><path fill="#352d57" d="m242.422 318.578-10.969 12.14-10.691-12.804Zm0 0"/><path fill="#eac881" d="m262.46 384 30.505-45.219 32.273 45.215Zm0 0"/><path fill="#f8efd9" d="m327.848 145.555-28.578-43.188 27.406-7.48Zm0 0"/><path fill="#342c56" d="m278.992 300.137 8.352-14.922 15.785 6.504Zm0 0"/><path fill="#3c3056" d="m214.008 275.715-16.403-.707 9.825-7.528Zm0 0"/><path fill="#fc536e" d="m122.875 268.273-10.664-38.84 19.652-22.386Zm0 0"/><path fill="#fefaf7" d="m197.234 233.457 3.422-27.914 9.074 23.11Zm0 0"/><path fill="#fefbfb" d="m197.234 233.457-11.578-30.746 15 2.832Zm0 0"/><path fill="#f7f0df" d="m362.758 203.875-33.27-2.031-1.64-56.29Zm0 0"/><path fill="#e8e4cc" d="m363.43 144.098-.672 59.777-34.91-58.32Zm0 0"/><path fill="#f0e4ce" d="m88.84.012 61.129.011-14.79 71.915Zm0 0"/><path fill="#faeedf" d="M92.605 84.402 88.84.012l46.34 71.926Zm0 0"/><path fill="#dcd3bc" d="m88.84.012 3.765 84.39L50.758 49.81Zm0 0"/><path fill="#aeb198" d="m51.73-.004 37.11.016-38.082 49.797Zm0 0"/><path fill="#fbf4ec" d="m149.969.023 19.101 56.942-33.89 14.972Zm0 0"/><path fill="#e3d4be" d="M169.07 56.965 149.97.023l74.86-.046Zm0 0"/><path fill="#fefbf9" d="m192.36 70.86 16.667 19.37-22.988 13.524Zm0 0"/><path fill="#352a55" d="m174.563 87.742 2.238 14.164-14.059 3.727Zm0 0"/><path fill="#392d56" d="m176.8 101.906-2.238-14.164 11.477 16.012Zm0 0"/><path fill="#fefbf9" d="m174.563 87.742 17.796-16.883-6.32 32.895Zm0 0"/><path fill="#fefcfd" d="m182.238 161.867-9.597-14.383 21.886-1.601Zm0 0"/><path fill="#fefcfe" d="m172.64 147.484 9.598 14.383-13.472-2.738Zm0 0"/><path fill="#352a55" d="m140.816 175.93-27.804-2.262 8.437-9.398Zm0 0"/><path fill="#fefaf7" d="m126.93 117.371-34.153 14.953-.172-47.922Zm0 0"/><path fill="#fbf1e5" d="m92.777 132.324-28.925-7.222 28.753-40.7Zm0 0"/><path fill="#352a55" d="m140.816 175.93-8.953 31.117-18.851-33.379ZM123.695 157.707l-2.246 6.563-5.136-4.47Zm0 0"/><path fill="#fbf7f1" d="m49.578 154.219 18.223 24.75-15.992 11.07Zm0 0"/><path fill="#352a55" d="m95.27 174.488 8.933 13.332-19.262-1.382Zm0 0"/><path fill="#fd536e" d="m103.047 206.277 1.156-18.457 27.66 19.227Zm0 0"/><path fill="#e94f6c" d="m103.047 206.277 28.816.77-19.652 22.387Zm0 0"/><path fill="#bfb79d" d="M28.18 79.277.012 119.347.004 80.302Zm0 0"/><path fill="#eecb86" d="m.02 277.637-.028-36.485 18.559 14.543Zm0 0"/><path fill="#3e4d68" d="m.02 277.637 20.304 3.781-20.312 27.7Zm0 0"/><path fill="#d7c6ad" d="m-.008 241.152 21.106-47.093.215 40.5Zm0 0"/><path fill="#cccab3" d="M21.098 194.059-.008 241.152l.02-121.804Zm0 0"/><path fill="#fcf2e4" d="m38.055 229.098-16.742 5.46 24.96-24.53Zm0 0"/><path fill="#e0c683" d="m66.734 312.219-7.214 40.52-24.993-13.032Zm0 0"/><path fill="#e0c07f" d="m59.52 352.738 31.394 31.254L0 384Zm0 0"/><path fill="#35375d" d="m70.117 301.066-3.383 11.153-19.004-16.04Zm0 0"/><path fill="#fdcf80" d="m231.16 297.656 11.262 20.922-21.66-.664Zm0 0"/><path fill="#f9cc7f" d="m231.453 330.719-.129 9.683-17.496-7.941Zm0 0"/><path fill="#f7cc80" d="m317.734 342.195 16.051-12.308 2.453 1.804Zm0 0"/><path fill="#34345b" d="m292.965 338.781 2.875-8.836 21.894 12.25Zm0 0"/><path fill="#efcc82" d="m110.473 335.035-7.496-24.008 31.39 7.004Zm0 0"/><path fill="#eecc82" d="m102.977 311.027 7.496 24.008-21.067-.492Zm0 0"/><path fill="#f7ce81" d="m139.71 352.25 15.892-16.148 16.132 15.128Zm0 0"/><path fill="#f6cd80" d="M166.563 384.004 139.71 352.25l32.023-1.02Zm0 0"/><path fill="#443758" d="m192.355 317.184 28.407.73-6.934 14.547Zm0 0"/><path fill="#face80" d="m171.734 351.23.227-22.5 41.867 3.73Zm0 0"/><path fill="#ebc780" d="m171.96 328.73 20.395-11.546 21.473 15.277Zm0 0"/><path fill="#52435b" d="m192.355 317.184-20.394 11.546 9.414-16.402Zm0 0"/><path fill="#cdc5a7" d="m383.996 86.727.008 58.27-20.574-.9Zm0 0"/><path fill="#d0c8a8" d="m360.45 96.5 23.546-9.773-20.566 57.37Zm0 0"/><path fill="#f8eedc" d="m299.27 102.367 7.332-29.719 20.074 22.239Zm0 0"/><path fill="#f0e9d0" d="m306.602 72.648 24.296-21.273-4.222 43.512Zm0 0"/><path fill="#fe546f" d="m248.188 163.594 18.48 18.672-18.027 8.547ZM266.668 182.266l-18.48-18.672 15.078-9.453Zm0 0"/><path fill="#fd536e" d="m248.64 190.813 20.864 14.613-14.98 12.785Zm0 0"/><path fill="#fe546f" d="m235.328 168.762 13.313 22.05-22.828-10.769Zm0 0"/><path fill="#352a55" d="m226.977 127.523 14.375 1.141-15.207 12.809Zm0 0"/><path fill="#fefbfb" d="m248.793 129.988 12.937.875-2.824 9.758Zm0 0"/><path fill="#fef8f2" d="M241.8 74.152 209.028 90.23 192.36 70.86Zm0 0"/><path fill="#fef9f4" d="m209.027 90.23 32.774-16.078-15.215 26.512Zm0 0"/><path fill="#fefaf8" d="m214.344 177.25-4.18 14.355-17.2-3.757Zm0 0"/><path fill="#fefaf9" d="m200.656 205.543 17.852 7.465-8.778 15.644Zm0 0"/><path fill="#fefbf9" d="m210.164 191.605 8.344 21.403-17.852-7.465Zm0 0"/><path fill="#c9c388" d="m287.344 285.215-1.285-25.406 17.07 31.91Zm0 0"/><path fill="#face80" d="m340.21 288.738 20.274 25.664-18.257-3.035Zm0 0"/><path fill="#ebc57f" d="m360.484 314.402-20.273-25.664 16.484-9.367Zm0 0"/><path fill="#352a55" d="m326.113 257.934 14.098 30.804-26.941-11.097Zm0 0"/><path fill="#f3d083" d="m326.113 257.934 34.832-5.657-4.25 27.094Zm0 0"/><path fill="#f4cd81" d="m340.21 288.738-14.097-30.804 30.582 21.437Zm0 0"/><path fill="#9d3f62" d="m269.504 205.426 6.824 17.441-21.805-4.656Zm0 0"/><path fill="#53495f" d="m271.344 252.14 7.82-7.202 6.895 14.87Zm0 0"/><path fill="#fbcf80" d="m252.914 284.172 19.637 7.504-17.863 7.285Zm0 0"/><path fill="#342a55" d="m278.992 300.137-6.441-8.461 14.793-6.461Zm0 0"/><path fill="#342b56" d="m272.55 291.676-1.6-17.535 16.394 11.074Zm0 0"/><path fill="#fdcf80" d="m270.95 274.14-18.528-3.128 18.922-18.871Zm0 0"/><path fill="#fad081" d="m252.422 271.012 18.527 3.129-18.035 10.03Zm0 0"/><path fill="#fccf80" d="m270.95 274.14 1.6 17.536-19.636-7.504Zm0 0"/><path fill="#fdcf80" d="m180.438 283.68 17.167-8.672-5.406 17.027Zm0 0"/><path fill="#34335b" d="m102.977 311.027 28.808-6.082 2.582 13.086Zm0 0"/><path fill="#ed506c" d="m112.21 229.434 10.665 38.84-31.883-22.66Zm0 0"/><path fill="#dfb579" d="m122.875 268.273-34.91-7 3.027-15.66Zm0 0"/><path fill="#fefbfc" d="m200.656 205.543-15-2.832 7.309-14.863Zm0 0"/><path fill="#fefaf8" d="m185.656 202.71-10.219-17.608 17.528 2.746Zm0 0"/><path fill="#fefbfc" d="m197.234 233.457-18.27 6.137 6.692-36.883Zm0 0"/><path fill="#d0c5a7" d="m372.012 215.668-9.254-11.793 21.238.852Zm0 0"/><path fill="#cec9ad" d="m372.012 215.668 11.984-10.941.012 50.925Zm0 0"/><path fill="#c7c4a7" d="m384.004 144.996-.008 59.73-20.566-60.628Zm0 0"/><path fill="#cbc6a7" d="m383.996 204.727-21.238-.852.672-59.777Zm0 0"/><path fill="#e0dcc2" d="m360.45 96.5 2.98 47.598-35.582 1.457Zm0 0"/><path fill="#fcf0db" d="m281.281 133.262 17.989-30.895 28.578 43.188Zm0 0"/><path fill="#fefaf9" d="m261.73 130.863 19.551 2.399-22.375 7.36Zm0 0"/><path fill="#fef5ea" d="m299.27 102.367-17.989 30.895-3.402-18.254Zm0 0"/><path fill="#e4c27f" d="M384 336.105 383.996 384l-38.984-28.059Zm0 0"/><path fill="#eac47e" d="m360.484 314.402 23.524-58.75-.008 80.453Zm0 0"/><path fill="#f4cf82" d="m356.695 279.371 4.25-27.094 23.063 3.375Zm0 0"/><path fill="#faf0e1" d="m192.36 70.86-23.29-13.895L224.828-.023Zm0 0"/><path fill="#fefcfe" d="m176.8 101.906-12.054 16.512-2.004-12.785Zm0 0"/><path fill="#fdf7f1" d="m192.36 70.86-36.946 16.035 13.656-29.93Zm0 0"/><path fill="#fefafa" d="m174.563 87.742-19.149-.847 36.945-16.036Zm0 0"/><path fill="#fdf8f4" d="M155.414 86.895 135.18 71.938l33.89-14.973Zm0 0"/><path fill="#362b55" d="m155.414 86.895 19.149.847-11.82 17.89Zm0 0"/><path fill="#fefbfa" d="m132.883 99.418-5.953 17.953-34.325-32.969Zm0 0"/><path fill="#fef9f5" d="m135.18 71.938-2.297 27.48-40.278-15.016Zm0 0"/><path fill="#352a55" d="m182.238 161.867-10.285 12.883-3.187-15.621ZM159.602 186.785l-27.739 20.262 8.953-31.117ZM123.695 157.707l17.121 18.223-19.367-11.66Zm0 0"/><path fill="#fefcfc" d="m123.695 157.707 3.235-40.336 21.875 12.637Zm0 0"/><path fill="#ebe0c4" d="m63.852 125.102-14.274 29.117L.012 119.348Zm0 0"/><path fill="#e3d5b7" d="m28.18 79.277 35.672 45.825-63.84-5.754Zm0 0"/><path fill="#fefcfc" d="m92.777 132.324 30.918 25.383-7.382 2.094Zm0 0"/><path fill="#fefbfb" d="m123.695 157.707-30.918-25.383 34.153-14.953Zm0 0"/><path fill="#352a55" d="m247.91 93.113-16.066 18.14-5.258-10.589Zm0 0"/><path fill="#fef9f4" d="m241.8 74.152 6.11 18.961-21.324 7.551Zm0 0"/><path fill="#fdfbfb" d="m186.309 124.371-9.508-22.465 9.238 1.848Zm0 0"/><path fill="#fefcfd" d="m206.383 116.395-20.074 7.976-.27-20.617Zm0 0"/><path fill="#352a55" d="m87.965 261.273 2.996 17.258-43.492-20.183ZM104.203 187.82l8.809-14.152 18.851 33.379Zm0 0"/><path fill="#352a55" d="m95.27 174.488 17.742-.82-8.809 14.152ZM121.45 164.27l-8.438 9.398 3.3-13.867Zm0 0"/><path fill="#c6ae93" d="M.004 80.3-.012 0 28.18 79.277Zm0 0"/><path fill="#f1e4c9" d="M92.605 84.402 28.18 79.277 50.758 49.81Zm0 0"/><path fill="#f4e7c9" d="M63.852 125.102 28.18 79.277l64.425 5.125Zm0 0"/><path fill="#f6cd81" d="m54.832 277.613 15.285 23.453-22.387-4.886Zm0 0"/><path fill="#c0d093" d="m90.96 278.531-36.128-.918-7.363-19.265Zm0 0"/><path fill="#5ab9a3" d="M47.469 258.348 39.62 276.53l-7.098-14.672Zm0 0"/><path fill="#f1cb82" d="M20.324 281.418.02 277.637l18.53-21.942Zm0 0"/><path fill="#cdd5c0" d="m21.313 234.559-2.762 21.136-18.559-14.543Zm0 0"/><path fill="#faf2e5" d="m38.055 229.098 1.648 9.441-18.39-3.98Zm0 0"/><path fill="#382b55" d="m58.719 218.125-14.793 11.95 2.347-20.048Zm0 0"/><path fill="#fef9f6" d="m43.926 230.074-5.871-.976 8.218-19.07Zm0 0"/><path fill="#fdfaf9" d="m43.926 230.074-4.223 8.465-1.648-9.441Zm0 0"/><path fill="#7d395e" d="m77.465 245.262 10.5 16.011-40.496-2.925Zm0 0"/><path fill="#bf4766" d="m87.965 261.273-10.5-16.011 13.527.351Zm0 0"/><path fill="#db4c6a" d="m90.992 245.613 12.055-39.336 9.164 23.157Zm0 0"/><path fill="#fbf7ef" d="m51.809 190.04 20.328 4.042-25.864 15.945Zm0 0"/><path fill="#372a55" d="m72.137 194.082-13.418 24.043-12.446-8.098Zm0 0"/><path fill="#492e57" d="m72.137 194.082 6.41 4.18-19.828 19.863Zm0 0"/><path fill="#fdfcfd" d="m67.8 178.969 4.337 15.113-20.328-4.043Zm0 0"/><path fill="#f2516d" d="m103.047 206.277-24.5-8.015 25.656-10.442Zm0 0"/><path fill="#66345b" d="m90.992 245.613-12.445-47.351 24.5 8.015Zm0 0"/><path fill="#513058" d="m78.547 198.262 12.445 47.351-13.527-.351Zm0 0"/><path fill="#60335a" d="m78.547 198.262-1.082 47-18.746-27.137Zm0 0"/><path fill="#404d67" d="m20.324 281.418 11.348 26.445-31.66 1.254Zm0 0"/><path fill="#56606d" d="m31.672 307.863-11.348-26.445 19.297-4.887Zm0 0"/><path fill="#ddbb7d" d="m34.527 339.707 24.993 13.031L0 384Zm0 0"/><path fill="#edca81" d="m59.52 352.738 29.886-18.195 1.508 49.45Zm0 0"/><path fill="#e5c781" d="M89.406 334.543 59.52 352.738l7.214-40.52Zm0 0"/><path fill="#fecf80" d="m252.422 271.012.492 13.16-21.234-12.008Zm0 0"/><path fill="#fecf80" d="m252.914 284.172-21.754 13.484.52-25.492Zm0 0"/><path fill="#fed080" d="m207.148 302.008-25.773 10.32 10.824-20.293ZM207.148 302.008l24.012-4.352-10.398 20.258Zm0 0"/><path fill="#fbcd7f" d="m192.355 317.184 14.793-15.176 13.614 15.906Zm0 0"/><path fill="#fdcf80" d="m207.148 302.008-14.793 15.176-10.98-4.856Zm0 0"/><path fill="#fdd080" d="m231.16 297.656 23.528 1.305-12.266 19.617Zm0 0"/><path fill="#fecf80" d="m252.914 284.172 1.774 14.789-23.528-1.305Zm0 0"/><path fill="#e8c680" d="m262.46 384 3.427-46.937 27.078 1.718Zm0 0"/><path fill="#f4ce82" d="M265.887 337.063 262.46 384l-19.774-35.082Zm0 0"/><path fill="#f9ce80" d="M220.984 358.457 262.461 384l-95.899.004Zm0 0"/><path fill="#f8ce81" d="m262.46 384-41.476-25.543 21.703-9.539Zm0 0"/><path fill="#f7ce81" d="m220.984 358.457 10.34-18.055 11.363 8.516Zm0 0"/><path fill="#face80" d="m171.734 351.23 49.25 7.227-54.422 25.547Zm0 0"/><path fill="#f9ce80" d="m220.984 358.457-49.25-7.227 42.094-18.77Zm0 0"/><path fill="#f9ce80" d="m231.324 340.402-10.34 18.055-7.156-25.996Zm0 0"/><path fill="#342b56" d="m311.945 322.852 21.84 7.035-16.05 12.308Zm0 0"/><path fill="#342c56" d="m295.84 329.945 16.105-7.093 5.79 19.343Zm0 0"/><path fill="#34325a" d="m241.738 334.441.684-15.863 25.844 6.762Zm0 0"/><path fill="#342d57" d="m242.422 318.578-.684 15.863-10.285-3.722Zm0 0"/><path fill="#33325a" d="m241.738 334.441 26.528-9.101-2.38 11.723Zm0 0"/><path fill="#f2c97f" d="m241.738 334.441-10.414 5.961.13-9.683Zm0 0"/><path fill="#f8cf81" d="m242.688 348.918-.95-14.477 24.149 2.622Zm0 0"/><path fill="#f8ce81" d="m231.324 340.402 10.414-5.96.95 14.476Zm0 0"/><path fill="#f2ce82" d="m282.566 313.117-14.3 12.223-2.344-16.828Zm0 0"/><path fill="#fdd080" d="m265.922 308.512-23.5 10.066 12.266-19.617Zm0 0"/><path fill="#f7d082" d="m242.422 318.578 23.5-10.066 2.344 16.828Zm0 0"/><path fill="#fcd081" d="m272.55 291.676-6.628 16.836-11.235-9.551Zm0 0"/><path fill="#f1d084" d="m265.922 308.512 6.629-16.836 6.441 8.46Zm0 0"/><path fill="#eccf85" d="m265.922 308.512 13.07-8.375 3.574 12.98Zm0 0"/><path fill="#efcc82" d="m110.473 335.035-19.559 48.957-1.508-49.449Zm0 0"/><path fill="#facf81" d="m155.602 336.102 16.359-7.372-.227 22.5Zm0 0"/><path fill="#f1cc81" d="m139.71 352.25-29.237-17.215 23.894-17.004Zm0 0"/><path fill="#f1cc81" d="m110.473 335.035 29.238 17.215-48.797 31.742Zm0 0"/><path fill="#896f67" d="m216.27 258.492-2.262 17.223-6.578-8.235Zm0 0"/><path fill="#fd536e" d="m216.27 258.492 13.824-27.574 2.27 27.785Zm0 0"/><path fill="#372b55" d="m232.363 258.703 20.059 12.309-20.742 1.152Zm0 0"/><path fill="#fefcfd" d="m215.313 139.809-5.032-7.243 5.934-4.593Zm0 0"/><path fill="#352a55" d="m215.313 139.809 11.664-12.286-.832 13.95Zm0 0"/><path fill="#fefcfc" d="m226.977 127.523-11.665 12.286.903-11.836Zm0 0"/><path fill="#fd546f" d="m216.582 150.297-1.27-10.488 10.833 1.664Zm0 0"/><path fill="#fefbfa" d="m194.527 145.883 20.786-6.074 1.269 10.488Zm0 0"/><path fill="#fefbfb" d="m215.313 139.809-20.786 6.074 15.754-13.317Zm0 0"/><path fill="#352a55" d="m214.344 177.25 6.34-13.914 5.129 16.707ZM182.57 180.344l-10.617-5.594 10.285-12.883ZM171.953 174.75l10.617 5.594-7.132 4.758Zm0 0"/><path fill="#fefaf9" d="m182.57 180.344 10.395 7.504-17.528-2.746Zm0 0"/><path fill="#efe8ca" d="m360.45 96.5-32.602 49.055-1.172-50.668Zm0 0"/><path fill="#f3ebd7" d="m330.898 51.375-24.296 21.273-20.141-21.46Zm0 0"/><path fill="#d0cbb0" d="m296.512-.004-40.621 46.5-31.063-46.52Zm0 0"/><path fill="#f8efdf" d="M255.89 46.496 192.36 70.86 224.827-.023Zm0 0"/><path fill="#cdcdaf" d="m286.46 51.188-30.57-4.692 40.622-46.5Zm0 0"/><path fill="#fdf7f1" d="m265.867 68-9.976-21.504 30.57 4.691Zm0 0"/><path fill="#fe546f" d="m235.328 168.762 12.86-5.168.453 27.219Zm0 0"/><path fill="#352a55" d="m226.977 127.523 4.867-16.27 9.508 17.411Zm0 0"/><path fill="#3f3257" d="m217.813 113.387 9.164 14.136-10.762.45Zm0 0"/><path fill="#9eb29e" d="M355.547 25.82 337.828.004l46.164-.008Zm0 0"/><path fill="#acb29b" d="m296.512-.004 41.316.008-6.93 51.371Zm0 0"/><path fill="#ccceb0" d="m296.512-.004 34.386 51.379-44.437-.187Zm0 0"/><path fill="#352a55" d="m216.605 190.895-2.261-13.645 11.469 2.793Zm0 0"/><path fill="#fefbfc" d="m214.344 177.25 2.261 13.645-6.44.71Zm0 0"/><path fill="#fefbfb" d="m216.605 190.895 1.903 22.113-8.344-21.403Zm0 0"/><path fill="#342d57" d="m286.059 259.809 11.68-11.82 15.53 29.652Zm0 0"/><path fill="#e8d38d" d="m326.113 257.934 9.727-7.922 25.105 2.265Zm0 0"/><path fill="#fe546f" d="m274.402 178.309-7.734 3.957-3.402-28.125Zm0 0"/><path fill="#fef9f5" d="m287.547 160.328-13.145 17.98-11.136-24.167Zm0 0"/><path fill="#fef9f6" d="m274.402 178.309 13.145-17.98 15.922 32.058Zm0 0"/><path fill="#fef7ef" d="m287.547 160.328-6.266-27.066 46.567 12.293Zm0 0"/><path fill="#fdf8f2" d="m287.547 160.328 40.3-14.773-24.378 46.832Zm0 0"/><path fill="#372a55" d="m276.328 222.867 2.836 22.07-34.226-9.414Zm0 0"/><path fill="#372a55" d="m254.523 218.21 21.805 4.657-31.39 12.656Zm0 0"/><path fill="#342a55" d="m320.277 305.5 19.934-16.762 2.016 22.63Zm0 0"/><path fill="#342a55" d="M340.21 288.738 320.278 305.5l-7.007-27.86Zm0 0"/><path fill="#352c56" d="m303.129 291.719-17.07-31.91 27.21 17.832Zm0 0"/><path fill="#342d57" d="m320.277 305.5-17.148-13.781 10.14-14.078ZM270.95 274.14l15.109-14.331 1.285 25.406Zm0 0"/><path fill="#352a55" d="m286.059 259.809-15.11 14.332.395-22Zm0 0"/><path fill="#f9cf81" d="m122.59 288.508 9.195 16.437-28.808 6.082Zm0 0"/><path fill="#fccf80" d="m166.188 312.363-34.403-7.418 13.832-7.34Zm0 0"/><path fill="#403357" d="m166.406 306.926-.219 5.437-20.57-14.758Zm0 0"/><path fill="#372c55" d="m122.875 268.273-31.914 10.258-2.996-17.258Zm0 0"/><path fill="#fc536e" d="m161.46 227.98-1.858-41.195 15.835-1.683Zm0 0"/><path fill="#fd536e" d="m185.656 202.71-24.195 25.27 13.976-42.878Zm0 0"/><path fill="#fefaf9" d="m178.965 239.594 18.27-6.137-7.977 12.41Zm0 0"/><path fill="#fefaf7" d="m197.234 233.457.477 19.703-8.453-7.293Zm0 0"/><path fill="#fc536e" d="M178.965 239.594 161.46 227.98l24.195-25.27Zm0 0"/><path fill="#c9ccaf" d="m360.945 252.277 11.067-36.609 11.996 39.984Zm0 0"/><path fill="#c4d59f" d="m360.945 252.277 1.813-48.402 9.254 11.793Zm0 0"/><path fill="#fefbfa" d="m281.281 133.262-10.918 13.547-11.457-6.188Zm0 0"/><path fill="#fefaf9" d="m270.363 146.809 17.184 13.52-24.281-6.188Zm0 0"/><path fill="#fef7f0" d="m287.547 160.328-17.184-13.52 10.918-13.546Zm0 0"/><path fill="#d5b67c" d="m383.996 384-58.758-.004 19.774-28.055Zm0 0"/><path fill="#e8c17d" d="m356.695 279.371 27.313-23.719-23.524 58.75Zm0 0"/><path fill="#fefcfd" d="m164.746 118.418-.312 14.332-15.63-2.742Zm0 0"/><path fill="#352a55" d="m148.895 95.086 6.52-8.191 7.327 18.738Zm0 0"/><path fill="#fefaf8" d="m155.414 86.895-6.52 8.19-13.714-23.147Zm0 0"/><path fill="#fefaf9" d="m148.895 95.086-16.012 4.332 2.297-27.48Zm0 0"/><path fill="#fefcfd" d="m201.063 164.93-6.536-19.047 22.055 4.414ZM220.684 163.336l-19.621 1.594 15.519-14.633Zm0 0"/><path fill="#fefbf9" d="m201.063 164.93 19.62-1.594-6.34 13.914Zm0 0"/><path fill="#fefbfa" d="m201.063 164.93 13.28 12.32-21.378 10.598Zm0 0"/><path fill="#fefbfb" d="m182.57 180.344 18.493-15.414-8.098 22.918Zm0 0"/><path fill="#fefcfd" d="m194.527 145.883 6.536 19.047-18.825-3.063Zm0 0"/><path fill="#fefbfb" d="m201.063 164.93-18.493 15.414-.332-18.477Zm0 0"/><path fill="#352a55" d="m158.68 170.48.922 16.305-18.786-10.855ZM171.953 174.75l-13.273-4.27 10.086-11.351Zm0 0"/><path fill="#fafafb" d="m205.668 110.719 12.144 2.668-11.43 3.008Zm0 0"/><path fill="#fdfcfd" d="m209.027 90.23-3.359 20.489-19.629-6.965Zm0 0"/><path fill="#4dd0d0" d="m205.668 110.719.715 5.676-20.344-12.641Zm0 0"/><path fill="#fefbfa" d="m205.668 110.719 3.36-20.489 17.558 10.434Zm0 0"/><path fill="#3a2d56" d="m217.813 113.387-10.262 12.75-1.168-9.742Zm0 0"/><path fill="#fefcfc" d="m210.281 132.566-2.73-6.43 8.664 1.837Zm0 0"/><path fill="#382c55" d="m207.55 126.137 10.262-12.75-1.597 14.586Zm0 0"/><path fill="#fefcfd" d="m177.168 126.992-12.422-8.574 12.055-16.512Zm0 0"/><path fill="#fefafa" d="m186.309 124.371-9.141 2.621-.367-25.086Zm0 0"/><path fill="#fefcfe" d="m177.168 126.992-12.734 5.758.312-14.332Zm0 0"/><path fill="#352a55" d="m70.117 301.066 20.844-22.535 8.496 6.684Zm0 0"/><path fill="#352a55" d="m54.832 277.613 36.129.918-20.844 22.535ZM113.012 173.668l-16.27-16.387 19.57 2.52Zm0 0"/><path fill="#352a55" d="m96.742 157.281 16.27 16.387-17.742.82Zm0 0"/><path fill="#fefbfb" d="m96.742 157.281-3.965-24.957 23.536 27.477Zm0 0"/><path fill="#f0cd82" d="m20.324 281.418 12.2-19.559 7.097 14.672Zm0 0"/><path fill="#edd18b" d="m32.523 261.86-12.199 19.558-1.773-25.723Zm0 0"/><path fill="#c2cb8f" d="m54.832 277.613-15.21-1.082 7.847-18.183Zm0 0"/><path fill="#faf4e9" d="m31.21 251.05-12.66 4.645 2.762-21.136Zm0 0"/><path fill="#faf5ea" d="m39.703 238.54-8.492 12.51-9.898-16.491Zm0 0"/><path fill="#ebcf8c" d="m18.55 255.695 12.66-4.644 1.313 10.808Zm0 0"/><path fill="#f1cc86" d="m31.21 251.05 7.454.618-6.14 10.191Zm0 0"/><path fill="#fcf8f1" d="m31.21 251.05 8.493-12.51-1.039 13.128Zm0 0"/><path fill="#3c2d56" d="m39.703 238.54 11.207 1.01-12.246 12.118Zm0 0"/><path fill="#463258" d="m43.926 230.074 6.984 9.477-11.207-1.012Zm0 0"/><path fill="#452d57" d="M77.465 245.262 50.91 239.55l7.809-21.426Zm0 0"/><path fill="#403157" d="m50.91 239.55-6.984-9.476 14.793-11.949Zm0 0"/><path fill="#422e56" d="m50.91 239.55-3.441 18.798-8.805-6.68Zm0 0"/><path fill="#4d2f58" d="m50.91 239.55 26.555 5.712-29.996 13.086Zm0 0"/><path fill="#fefcfd" d="m84.941 186.438-12.804 7.644-4.336-15.113Zm0 0"/><path fill="#352a55" d="m72.137 194.082 12.804-7.644-6.394 11.824Zm0 0"/><path fill="#352a55" d="m78.547 198.262 6.394-11.824 19.262 1.382Zm0 0"/><path fill="#f3ce82" d="M54.832 277.613 47.73 296.18l-8.109-19.649Zm0 0"/><path fill="#3f5a6f" d="m47.73 296.18-16.058 11.683 7.95-31.332Zm0 0"/><path fill="#eec980" d="m102.977 311.027-13.57 23.516-22.673-22.324Zm0 0"/><path fill="#342c56" d="m102.977 311.027-36.243 1.192 3.383-11.153Zm0 0"/><path fill="#fdce7f" d="m197.605 275.008 15.06 12.027-20.466 5Zm0 0"/><path fill="#fcce7f" d="m212.664 287.035-5.516 14.973-14.949-9.973ZM212.664 287.035l-15.059-12.027 16.403.707Zm0 0"/><path fill="#fdcf80" d="m231.68 272.164-19.016 14.871 1.344-11.32Zm0 0"/><path fill="#fed080" d="m207.148 302.008 5.516-14.973 18.496 10.621Zm0 0"/><path fill="#fecf7f" d="m212.664 287.035 19.016-14.87-.52 25.491Zm0 0"/><path fill="#333059" d="m268.266 325.34 24.699 13.441-27.078-1.719Zm0 0"/><path fill="#33345b" d="m292.965 338.781-24.7-13.441 27.575 4.605Zm0 0"/><path fill="#f7cd80" d="m282.566 313.117 13.274 16.828-27.574-4.605Zm0 0"/><path fill="#766164" d="m171.96 328.73-5.773-16.367 15.188-.035Zm0 0"/><path fill="#fd536e" d="m230.094 230.918 24.43-12.707-9.586 17.312Zm0 0"/><path fill="#fef8f2" d="m208.871 253.852-11.637-20.395 12.496-4.805Zm0 0"/><path fill="#fef9f6" d="m197.234 233.457 11.637 20.395-11.16-.692Zm0 0"/><path fill="#382c55" d="m208.871 253.852 7.399 4.64-8.84 8.988Zm0 0"/><path fill="#362a55" d="m197.71 253.16 11.161.692-1.441 13.628Zm0 0"/><path fill="#614e5e" d="m216.27 258.492 16.093.211-18.355 17.012Zm0 0"/><path fill="#352a55" d="m232.363 258.703-.683 13.461-17.672 3.55Zm0 0"/><path fill="#382c55" d="m232.363 258.703 17.219-2.344 2.84 14.653Zm0 0"/><path fill="#372a55" d="m252.422 271.012-2.84-14.653 21.762-4.218Zm0 0"/><path fill="#cbb498" d="M383.996 86.727 360.45 96.5 330.9 51.375Zm0 0"/><path fill="#f8f3e8" d="m306.602 72.648-20.293-9.535.152-11.925Zm0 0"/><path fill="#faf7f3" d="M286.309 63.113 265.867 68l20.594-16.812Zm0 0"/><path fill="#342d56" d="m265.867 68 20.442-4.887-.622 14.332Zm0 0"/><path fill="#f6f2e5" d="m286.309 63.113 20.293 9.535-20.914 4.797Zm0 0"/><path fill="#fbf4e8" d="m288.246 82.95 18.356-10.302-7.332 29.72Zm0 0"/><path fill="#f5f2e5" d="M306.602 72.648 288.246 82.95l-2.558-5.504Zm0 0"/><path fill="#fcf4e9" d="m268.902 85.582 19.344-2.633 11.024 19.418Zm0 0"/><path fill="#fbf5ec" d="m288.246 82.95-19.344 2.632 16.786-8.137Zm0 0"/><path fill="#97b4a0" d="m337.828.004 17.719 25.816-24.649 25.555Zm0 0"/><path fill="#c9b497" d="m355.547 25.82 28.45 60.907-53.099-35.352Zm0 0"/><path fill="#352a55" d="M268.902 85.582 265.867 68l19.82 9.445Zm0 0"/><path fill="#fd536e" d="m220.684 163.336 14.644 5.426-9.516 11.281Zm0 0"/><path fill="#fd546f" d="m248.41 146.5.383-16.512 10.113 10.633Zm0 0"/><path fill="#fd536e" d="m248.793 129.988-.383 16.512-7.058-17.836Zm0 0"/><path fill="#fafafb" d="m217.813 113.387-12.145-2.668 20.918-10.055Zm0 0"/><path fill="#362a55" d="m231.844 111.254-14.031 2.133 8.773-12.723Zm0 0"/><path fill="#352a55" d="m226.977 127.523-9.165-14.136 14.032-2.133Zm0 0"/><path fill="#342a55" d="m297.738 247.988 28.375 9.946-12.843 19.707Zm0 0"/><path fill="#352a55" d="m326.113 257.934-28.375-9.946 9.059-11.652Zm0 0"/><path fill="#fdfbfb" d="m327.668 238.137-1.555 19.797-19.316-21.598Zm0 0"/><path fill="#fefcfc" d="m326.113 257.934 1.555-19.797 8.172 11.875Zm0 0"/><path fill="#fefaf7" d="m329.488 201.844 16.02 29.21-20.778-13.32Zm0 0"/><path fill="#faf3e7" d="m362.758 203.875-17.25 27.18-16.02-29.211Zm0 0"/><path fill="#deede7" d="m360.945 252.277-15.437-21.222 17.25-27.18Zm0 0"/><path fill="#fd546f" d="m266.668 182.266 2.836 23.16-20.863-14.613Zm0 0"/><path fill="#f2516d" d="m285.543 200.055 5.383 11.398-14.598 11.414Zm0 0"/><path fill="#d94c6a" d="m306.797 236.336-15.871-24.883 19.394 3.461Zm0 0"/><path fill="#7f395e" d="m290.926 211.453 15.87 24.883-30.468-13.469Zm0 0"/><path fill="#352c56" d="m279.164 244.938 18.574 3.05-11.68 11.82Zm0 0"/><path fill="#352a55" d="m297.738 247.988-18.574-3.05-2.836-22.07Zm0 0"/><path fill="#352a55" d="m306.797 236.336-9.059 11.652-21.41-25.12Zm0 0"/><path fill="#fef9f6" d="m329.488 201.844-4.758 15.89-14.41-2.82Zm0 0"/><path fill="#d14a69" d="m324.73 217.734-17.933 18.602 3.523-21.422Zm0 0"/><path fill="#eb506c" d="m306.797 236.336 17.933-18.602 2.938 20.403Zm0 0"/><path fill="#fccf80" d="m131.785 304.945 5.899-17.586 7.933 10.246Zm0 0"/><path fill="#fdcf7f" d="m122.59 288.508 15.094-1.149-5.899 17.586Zm0 0"/><path fill="#fdcf80" d="m166.406 306.926 14.031-23.246 11.762 8.355Zm0 0"/><path fill="#fed080" d="m181.375 312.328-14.969-5.402 25.793-14.89Zm0 0"/><path fill="#fccf80" d="m166.188 312.363.218-5.437 14.969 5.402Zm0 0"/><path fill="#f5ce81" d="m139.71 352.25-5.343-34.219 21.235 18.07Zm0 0"/><path fill="#342a55" d="m166.188 312.363-31.82 5.668-2.583-13.086Zm0 0"/><path fill="#342b56" d="m102.977 311.027-32.86-9.96 29.34-15.852Zm0 0"/><path fill="#342a55" d="m102.977 311.027-3.52-25.812 23.133 3.293Zm0 0"/><path fill="#533058" d="m148.754 232.473-25.879 35.8 8.988-61.226Zm0 0"/><path fill="#4d2f58" d="m159.602 186.785-10.848 45.688-16.89-25.426Zm0 0"/><path fill="#64335b" d="m161.46 227.98-12.706 4.493 10.848-45.688Zm0 0"/><path fill="#edcb82" d="m360.484 314.402-15.472 41.54-8.774-24.25Zm0 0"/><path fill="#e8c37e" d="m345.012 355.941-19.774 28.055-32.273-45.215Zm0 0"/><path fill="#f4cb80" d="m345.012 355.941-27.278-13.746 18.504-10.504Zm0 0"/><path fill="#f2c97f" d="m345.012 355.941-52.047-17.16 24.77 3.414Zm0 0"/><path fill="#e9c37e" d="M360.484 314.402 384 336.105l-38.988 19.836Zm0 0"/><path fill="#edcb82" d="m336.238 331.691 5.989-20.324 18.257 3.035Zm0 0"/><path fill="#362e57" d="m342.227 311.367-5.989 20.324-2.453-1.804Zm0 0"/><path fill="#fefcfe" d="m164.746 118.418-11.605-8.652 9.601-4.133Zm0 0"/><path fill="#382c55" d="m153.14 109.766-4.245-14.68 13.847 10.547Zm0 0"/><path fill="#fefaf7" d="m148.895 95.086 4.246 14.68-20.258-10.348Zm0 0"/><path fill="#fefbfb" d="m153.14 109.766 11.606 8.652-15.941 11.59Zm0 0"/><path fill="#fefcfd" d="m126.93 117.371 26.21-7.605-4.335 20.242Zm0 0"/><path fill="#fefbfb" d="m132.883 99.418 20.258 10.348-26.211 7.605Zm0 0"/><path fill="#352a55" d="m123.695 157.707 27.2 1.3-10.079 16.923ZM150.895 159.008l7.785 11.472-17.864 5.45Zm0 0"/><path fill="#fefcfd" d="m150.895 159.008-27.2-1.301 25.11-27.7Zm0 0"/><path fill="#fefcfe" d="m164.434 132.75-13.54 26.258-2.09-29Zm0 0"/><path fill="#352a55" d="m158.68 170.48-7.785-11.472 17.87.12Zm0 0"/><path fill="#fefcfe" d="m150.895 159.008 21.746-11.524-3.875 11.645Zm0 0"/><path fill="#fefcfd" d="m150.895 159.008 13.539-26.258 8.207 14.734Zm0 0"/><path fill="#352a55" d="m159.602 186.785-.922-16.305 13.273 4.27ZM159.602 186.785l12.351-12.035 3.484 10.352Zm0 0"/><path fill="#fdf6f0" d="m63.852 125.102 28.925 7.222-43.199 21.895Zm0 0"/><path fill="#fefcfd" d="m207.55 126.137 2.731 6.43-15.754 13.316Zm0 0"/><path fill="#342e58" d="m277.879 115.008-6.762-8.586 28.153-4.055Zm0 0"/><path fill="#fdf4e6" d="m271.117 106.422-2.215-20.84 30.368 16.785Zm0 0"/><path fill="#fdf9f5" d="M259.066 87.773 265.867 68l3.035 17.582Zm0 0"/><path fill="#fefbfb" d="m248.793 129.988 15.945-14.77-3.008 15.645Zm0 0"/><path fill="#fdf7f0" d="m281.281 133.262-16.543-18.043 13.14-.211Zm0 0"/><path fill="#fefaf8" d="m264.738 115.219 16.543 18.043-19.55-2.399Zm0 0"/><path fill="#342c56" d="m264.738 115.219 6.38-8.797 6.76 8.586Zm0 0"/><path fill="#342f58" d="m271.117 106.422-6.379 8.797-.687-8.278Zm0 0"/><path fill="#fefcfe" d="m164.434 132.75 13.058 5.379-4.851 9.355Zm0 0"/><path fill="#392d55" d="m177.168 126.992.324 11.137-13.058-5.379Zm0 0"/><path fill="#fefbfc" d="m172.64 147.484 4.852-9.355 17.035 7.754Zm0 0"/><path fill="#fef9f5" d="m96.742 157.281-19.976 1.172 16.011-26.129Zm0 0"/><path fill="#342a55" d="m76.766 158.453 18.504 16.035-10.329 11.95Zm0 0"/><path fill="#352a55" d="m76.766 158.453 19.976-1.172-1.472 17.207Zm0 0"/><path fill="#fcf6ed" d="m92.777 132.324-16.011 26.13-27.188-4.235Zm0 0"/><path fill="#fefcfc" d="m67.8 178.969 8.966-20.516 8.175 27.984Zm0 0"/><path fill="#fbf7f1" d="M76.766 158.453 67.8 178.97l-18.223-24.75Zm0 0"/><path fill="#34375d" d="M31.672 307.863 47.73 296.18l19.004 16.039Zm0 0"/><path fill="#ddbd7e" d="m31.672 307.863 35.062 4.356-32.207 27.488Zm0 0"/><path fill="#d3b87e" d="m.012 309.117 31.66-1.254 2.855 31.844Zm0 0"/><path fill="#342b55" d="m311.945 322.852 8.332-17.352 13.508 24.387Zm0 0"/><path fill="#342b55" d="m320.277 305.5 21.95 5.867-8.442 18.52Zm0 0"/><path fill="#372b55" d="m157.64 324.227 8.548-11.864 5.773 16.367Zm0 0"/><path fill="#352a55" d="m157.64 324.227-23.273-6.196 31.82-5.668Zm0 0"/><path fill="#f4cb7f" d="m157.64 324.227 14.32 4.503-16.358 7.372Zm0 0"/><path fill="#f3d083" d="m134.367 318.031 23.274 6.196-2.04 11.875Zm0 0"/><path fill="#fefaf7" d="m226.465 229.48-17.594 24.372.86-25.2Zm0 0"/><path fill="#352a55" d="m226.465 229.48 3.629 1.438-13.824 27.574Zm0 0"/><path fill="#fefaf9" d="m208.871 253.852 17.594-24.372-10.195 29.012Zm0 0"/><path fill="#fd546f" d="m232.535 207.207-6.722-27.164 22.828 10.77Zm0 0"/><path fill="#352a55" d="m232.535 207.207-15.93-16.312 9.208-10.852Zm0 0"/><path fill="#fd546f" d="m254.523 218.21-21.988-11.003 16.106-16.394Zm0 0"/><path fill="#fd536e" d="m230.094 230.918 2.441-23.711 21.988 11.004Zm0 0"/><path fill="#362a55" d="m216.605 190.895 15.93 16.312-14.027 5.8Zm0 0"/><path fill="#372a55" d="m244.938 235.523 34.226 9.415-7.82 7.203Zm0 0"/><path fill="#382a55" d="m249.582 256.36-4.644-20.837 26.406 16.618Zm0 0"/><path fill="#fd536e" d="m230.094 230.918 14.844 4.605-12.575 23.18Zm0 0"/><path fill="#372a55" d="m244.938 235.523 4.644 20.836-17.219 2.344Zm0 0"/><path fill="#e7dabb" d="M330.898 51.375 360.45 96.5l-33.773-1.613Zm0 0"/><path fill="#c7b596" d="m383.996 86.727-28.45-60.907L383.993-.004Zm0 0"/><path fill="#fd536e" d="m233.578 151.777 1.75 16.985-14.644-5.426Zm0 0"/><path fill="#fd546f" d="m233.578 151.777-16.996-1.48 9.563-8.824Zm0 0"/><path fill="#fe546f" d="m233.578 151.777-12.894 11.559-4.102-13.04Zm0 0"/><path fill="#fefaf8" d="m270.363 146.809-7.097 7.332-4.36-13.52Zm0 0"/><path fill="#fe546f" d="m263.266 154.14-14.856-7.64 10.496-5.879Zm0 0"/><path fill="#f3f7f3" d="m335.84 250.012 9.668-18.957 15.437 21.222Zm0 0"/><path fill="#fd536e" d="m345.508 231.055-17.84 7.082-2.938-20.403Zm0 0"/><path fill="#fcfaf9" d="m327.668 238.137 17.84-7.082-9.668 18.957Zm0 0"/><path fill="#f5526d" d="m285.543 200.055-9.215 22.812-6.824-17.441Zm0 0"/><path fill="#fd536e" d="m266.668 182.266 18.875 17.789-16.04 5.37Zm0 0"/><path fill="#fc536e" d="m285.543 200.055-18.875-17.79 7.734-3.956Zm0 0"/><path fill="#fdf8f3" d="m285.543 200.055-11.14-21.746 29.066 14.078Zm0 0"/><path fill="#fef9f6" d="m285.543 200.055 17.926-7.668-12.543 19.066Zm0 0"/><path fill="#fef9f5" d="m290.926 211.453 12.543-19.066 6.851 22.527Zm0 0"/><path fill="#fef8f3" d="m303.469 192.387 26.02 9.457-19.169 13.07Zm0 0"/><path fill="#fcf4e6" d="m329.488 201.844-26.02-9.457 24.38-46.832Zm0 0"/><path fill="#372b55" d="m180.438 283.68 11.593-17.211 5.574 8.539Zm0 0"/><path fill="#352a55" d="m173.82 271.371 18.211-4.902-11.594 17.21Zm0 0"/><path fill="#362b55" d="m197.605 275.008-5.574-8.54 15.399 1.012Zm0 0"/><path fill="#352a55" d="m192.031 266.469 5.68-13.309 9.719 14.32Zm0 0"/><path fill="#facc7f" d="m137.684 287.36 18.683-1.954-10.75 12.2Zm0 0"/><path fill="#352a55" d="m156.367 285.406-3.812-16.746 9.61 15.64ZM166.406 306.926l-10.039-21.52 5.797-1.105Zm0 0"/><path fill="#f9cb7e" d="m156.367 285.406 10.04 21.52-20.79-9.32Zm0 0"/><path fill="#483959" d="m156.367 285.406-18.012-6.101 14.2-10.645Zm0 0"/><path fill="#352a55" d="m138.355 279.305 18.012 6.101-18.683 1.953Zm0 0"/><path fill="#fdcf7f" d="m166.406 306.926-4.242-22.625 18.274-.621Zm0 0"/><path fill="#3b2e56" d="m162.164 284.3 11.656-12.929 6.618 12.309Zm0 0"/><path fill="#352a55" d="m173.82 271.371-11.656 12.93-9.61-15.64Zm0 0"/><path fill="#c4a174" d="m122.875 268.273-23.418 16.942-8.496-6.684Zm0 0"/><path fill="#352a55" d="m138.355 279.305-15.48-11.032 29.68.387ZM188.195 132.691l-11.027-5.699 9.14-2.62ZM188.195 132.691l-1.886-8.32 20.074-7.976ZM207.55 126.137l-19.355 6.554 18.188-16.296ZM188.195 132.691l-10.703 5.438-.324-11.137Zm0 0"/><path fill="#fefcfd" d="m188.195 132.691 19.356-6.554-13.024 19.746Zm0 0"/><path fill="#fefcfd" d="m177.492 138.129 10.703-5.438 6.332 13.192Zm0 0"/><path fill="#f3efeb" d="m247.91 93.113 23.207 13.309-7.066.52Zm0 0"/><path fill="#fdfaf7" d="M271.117 106.422 247.91 93.113l11.156-5.34Zm0 0"/><path fill="#fcf3e5" d="m271.117 106.422-12.05-18.649 9.835-2.191Zm0 0"/><path fill="#fdf8f3" d="M255.89 46.496 241.8 74.152l-49.44-3.293Zm0 0"/><path fill="#fdf8f1" d="m247.91 93.113-6.11-18.96 17.266 13.62Zm0 0"/><path fill="#fbf7f2" d="m265.867 68-24.066 6.152 14.09-27.656Zm0 0"/><path fill="#fcf8f3" d="m259.066 87.773-17.265-13.62L265.867 68Zm0 0"/><path fill="#988f9f" d="m249.637 113.176 15.101 2.043-15.945 14.77Zm0 0"/><path fill="#8f8894" d="m264.738 115.219-15.101-2.043 14.414-6.235Zm0 0"/><path fill="#f5f0ee" d="m231.844 111.254 17.793 1.922-8.285 15.488Zm0 0"/><path fill="#857d95" d="m249.637 113.176-.844 16.812-7.441-1.324Zm0 0"/><path fill="#c2dace" d="m247.91 93.113 1.727 20.063-17.793-1.922Zm0 0"/><path fill="#473c61" d="m249.637 113.176-1.727-20.063 16.14 13.828Zm0 0"/><path fill="#342c56" d="m295.84 329.945 4.45-17.804 11.655 10.71Zm0 0"/><path fill="#332f58" d="m300.29 312.14 19.987-6.64-8.332 17.352Zm0 0"/><path fill="#342b55" d="m300.29 312.14-17.724.977-3.574-12.98Zm0 0"/><path fill="#342d57" d="m300.29 312.14-4.45 17.805-13.274-16.828Zm0 0"/><path fill="#352a55" d="m232.535 207.207-6.07 22.273-7.957-16.472ZM226.465 229.48l6.07-22.273-2.441 23.711Zm0 0"/><path fill="#fefcfd" d="m218.508 213.008 7.957 16.472-16.735-.828Zm0 0"/><path fill="#fe546f" d="m263.266 154.14-15.079 9.454.223-17.094Zm0 0"/><path fill="#fe546f" d="m233.578 151.777 14.61 11.817-12.86 5.168Zm0 0"/><path fill="#fd536e" d="m178.965 239.594-13.934 9.785-3.57-21.399Zm0 0"/><path fill="#903d60" d="m165.031 249.379-16.277-16.906 12.707-4.493Zm0 0"/><path fill="#fefcfd" d="m197.71 253.16-11.538-.64 3.086-6.653Zm0 0"/><path fill="#362a55" d="m192.031 266.469-5.86-13.95 11.54.641Zm0 0"/><path fill="#fefaf8" d="m186.172 252.52-7.207-12.926 10.293 6.273Zm0 0"/><path fill="#352a55" d="m186.172 252.52 5.86 13.949-18.212 4.902Zm0 0"/><path fill="#806865" d="m122.875 268.273-.285 20.235-23.133-3.293Zm0 0"/><path fill="#50405a" d="m122.59 288.508.285-20.235 15.48 11.032Zm0 0"/><path fill="#352a55" d="m122.59 288.508 15.765-9.203-.671 8.054Zm0 0"/><path fill="#372a55" d="m152.555 268.66-3.801-36.187 16.277 16.906Zm0 0"/><path fill="#352a55" d="m122.875 268.273 25.879-35.8 3.8 36.187Zm0 0"/><path fill="#332f58" d="m320.277 305.5-19.988 6.64 2.84-20.421Zm0 0"/><path fill="#3c4f6a" d="m303.129 291.719-2.84 20.422-21.297-12.004Zm0 0"/><path fill="#fe546f" d="m248.188 163.594-14.61-11.817 14.832-5.277Zm0 0"/><path fill="#fd536e" d="m241.352 128.664-7.774 23.113-7.433-10.304Zm0 0"/><path fill="#fe546f" d="m248.41 146.5-14.832 5.277 7.774-23.113Zm0 0"/><path fill="#352a55" d="m165.031 249.379 8.79 21.992-21.266-2.71Zm0 0"/><path fill="#352a55" d="m165.031 249.379 21.14 3.14-12.35 18.852Zm0 0"/><path fill="#fd546f" d="m186.172 252.52-21.14-3.141 13.933-9.785Zm0 0"/></svg>